<svg xmlns="http://www.w3.org/2000/svg" xmlns:xlink="http://www.w3.org/1999/xlink" version="1.1" baseProfile="full" viewBox="0 0 200 200" width="200" height="200">
<g fill="black">
<path d="M 124.8 36.7 L 123.17631282806397 37.125251388549806 L 120.7 39.2 L 117.3 42.2 L 114.3 45.3 L 111.7 48.3 L 109.6 51.3 L 107.7 54.2 L 106.3 57.1 L 105.2 60.0 L 104.4 62.9 L 104.0 65.13999996185302 L 104.0 180.0 L 90.0 180.0 L 90.0 178.52727270126343 L 89.3 177.0 L 87.8 174.5 L 85.9 171.9 L 83.6 169.2 L 80.8 166.5 L 77.5 163.8 L 73.7 161.0 L 69.5 158.2 L 64.8 155.4 L 59.6 152.6 L 66.1 140.2 L 71.7 143.2 L 76.9 146.4 L 81.7 149.5 L 86.1 152.8 L 90.0 156.01750001907348 L 90.0 64.0 L 90.03255815505982 64.0 L 90.7 59.9 L 91.9 55.6 L 93.5 51.5 L 95.5 47.4 L 97.9 43.4 L 98.11223754882812 43.12189559936523 L 90.5 44.6 L 81.3 45.9 L 73.2 46.4 L 66.1 46.3 L 59.8 45.3 L 54.2 43.1 L 49.4 39.3 L 46.5 33.9 L 59.9 29.9 L 60.1 30.2 L 60.9 30.8 L 63.2 31.7 L 67.2 32.3 L 72.8 32.4 L 79.8 31.9 L 88.2 30.8 L 97.9 28.9 L 108.9 26.4 L 121.1 23.2 Z M 124.9 78.7 L 129.8 81.4 L 133.4 85.3 L 136.0 90.1 L 138.0 95.7 L 138.32393245697023 97.18083419799805 L 140.8 94.8 L 143.5 92.5 L 146.4 90.6 L 149.4 89.1 L 152.6 87.9 L 155.52440738677979 87.27967119216919 L 155.5 86.9 L 159.5 86.9 L 163.3 87.4 L 166.9 88.5 L 170.3 90.2 L 173.4 92.5 L 176.0 95.3 L 178.1 98.4 L 179.7 101.9 L 181.0 105.7 L 181.51638841629028 108.05243616104126 L 181.9 108.0 L 182.3 114.5 L 181.7 121.0 L 180.1 127.2 L 177.4 133.2 L 173.8 138.8 L 169.2 144.1 L 163.9 148.9 L 157.7 153.5 L 150.7 157.8 L 142.9 161.8 L 136.8 149.2 L 143.8 145.6 L 149.9 141.9 L 155.0 138.1 L 159.2 134.3 L 162.6 130.4 L 165.1 126.5 L 166.9 122.6 L 167.9 118.6 L 168.3 114.4 L 168.14506645202636 112.07599620819092 L 168.0 112.1 L 167.5 109.3 L 166.7 107.1 L 165.9 105.3 L 165.0 103.9 L 164.0 102.9 L 163.0 102.1 L 161.8 101.5 L 160.4 101.1 L 158.6 100.9 L 157.98478260040284 100.9 L 158.0 101.0 L 156.5 101.4 L 155.0 101.9 L 153.5 102.7 L 151.8 103.8 L 150.1 105.2 L 148.4 106.9 L 146.6 109.0 L 144.8 111.4 L 142.9 114.2 L 141.1 117.3 L 140.86883516311644 117.17408094406127 L 140.9 117.6 L 127.0 118.3 L 126.4 110.8 L 125.6 104.5 L 124.5 99.4 L 123.2 95.7 L 121.9 93.3 L 121.0 92.3 L 120.6 92.0 L 120.1 92.0 L 118.8 92.3 L 116.4 93.4 L 109.2 81.4 L 114.1 79.1 L 119.4 78.0 Z M 39.9 104.8 L 37.8 109.6 L 36.2 113.8 L 35.2 117.3 L 34.7 120.0 L 34.6 121.8 L 34.610869598388675 121.87608699798584 L 35.6 121.8 L 38.4 121.3 L 41.3 120.5 L 44.4 119.3 L 47.7 117.7 L 51.2 115.7 L 54.8 113.3 L 58.5 110.5 L 62.4 107.2 L 66.4 103.6 L 76.1 113.7 L 71.6 117.8 L 67.2 121.4 L 62.9 124.7 L 58.6 127.6 L 54.3 130.1 L 50.0 132.1 L 45.7 133.8 L 41.5 135.0 L 37.2 135.7 L 35.0 135.85714282989503 L 35.0 136.0 L 34.25 135.91071424484252 L 33.0 136.0 L 33.0 135.7619047164917 L 30.8 135.5 L 26.7 133.8 L 23.3 130.7 L 21.3 126.7 L 20.6 122.5 L 20.8 118.4 L 21.6 114.0 L 22.9 109.4 L 24.8 104.4 L 27.2 98.9 Z M 34.0 121.9 L 34.11428575515747 121.91142854690551 L 34.1 121.9 Z " />
</g>
</svg>
