<svg xmlns="http://www.w3.org/2000/svg" xmlns:xlink="http://www.w3.org/1999/xlink" version="1.1" baseProfile="full" viewBox="0 0 200 200" width="200" height="200">
<g fill="black">
<path d="M 127.0 13.7 L 130.8 14.3 L 134.4 15.8 L 137.6 18.3 L 138.78965520858765 20.110344791412352 L 138.9 20.0 L 141.9 25.4 L 141.5 31.5 L 140.89630603790283 32.56807384490967 L 140.8 33.3 L 140.51442031860353 33.24371786117554 L 138.9 36.1 L 135.2 40.0 L 130.5 43.8 L 124.6 47.7 L 117.6 51.8 L 109.2 56.2 L 99.6 60.9 L 96.4814305305481 62.330536460876466 L 99.6 63.5 L 104.8 65.0 L 111.0 66.5 L 114.12302923202515 67.18449954986572 L 118.9 67.7 L 118.2 73.2 L 117.4 78.3 L 116.4 83.1 L 115.3 87.6 L 114.0 91.8 L 112.6 95.7 L 112.5386281967163 95.82635383605957 L 116.0 95.9 L 125.7 96.6 L 135.6 97.9 L 145.8 99.8 L 151.10087852478028 101.02327966690063 L 152.3 97.7 L 165.6 102.2 L 164.72622308731079 104.56839532852173 L 167.0 105.2 L 162.9 118.7 L 159.59461030960082 117.750927734375 L 157.6 122.5 L 152.9 132.1 L 147.6 141.4 L 141.9 150.3 L 135.7 158.7 L 129.0 166.8 L 121.9 174.5 L 114.2 181.9 L 106.1 188.8 L 97.3 177.9 L 104.8 171.5 L 111.9 164.7 L 118.5 157.6 L 124.7 150.2 L 130.4 142.3 L 135.6 134.2 L 140.5 125.6 L 144.9 116.7 L 145.94524936676027 114.2074821472168 L 142.9 113.5 L 133.4 111.8 L 124.2 110.5 L 115.4 109.9 L 106.8 109.7 L 104.19620857238769 109.82701425552368 L 100.1 116.4 L 95.8 122.9 L 91.5 128.9 L 87.3 134.5 L 83.2 139.7 L 79.1 144.4 L 75.0 148.6 L 70.9 152.5 L 66.9 155.8 L 62.8 158.8 L 62.12950296401978 157.78119287490844 L 59.3 156.2 L 56.1 154.1 L 52.9 151.8 L 49.7 149.3 L 46.6 146.5 L 43.6 143.6 L 40.6 140.5 L 37.6 137.2 L 34.7 133.6 L 32.58059463500977 130.7993571281433 L 31.9 130.4 L 32.078723430633545 130.13617019653321 L 31.9 129.9 L 32.57414770126343 129.4048295021057 L 34.0 127.3 L 36.5 124.3 L 39.5 121.4 L 42.9 118.5 L 46.6 115.6 L 50.9 112.8 L 55.5 109.9 L 60.6 107.0 L 66.1 104.0 L 71.85420846939087 101.17166023254394 L 71.8 101.0 L 80.1 98.8 L 88.7 97.2 L 96.37633590698242 96.2404580116272 L 97.2 95.1 L 98.4 92.9 L 99.6 90.3 L 100.7 87.3 L 101.8 83.8 L 102.8 80.0 L 102.99545450210572 78.97386360168457 L 101.1 78.5 L 95.3 76.8 L 90.3 75.0 L 86.1 73.0 L 82.6 70.6 L 79.5 67.1 L 78.1 61.8 L 79.7 56.5 L 82.7 53.2 L 83.35881099700927 53.99945602416992 L 83.0 53.2 L 93.6 48.3 L 102.9 43.7 L 110.8 39.6 L 117.3 35.8 L 122.3 32.4 L 125.9 29.6 L 127.3 28.2 L 127.3 27.919999980926512 L 127.0 27.8 L 125.8 27.6 L 123.7 27.6 L 120.9 27.9 L 117.5 28.6 L 114.4 14.9 L 118.8 14.0 L 123.0 13.6 Z M 83.2 112.4 L 77.90588235855103 113.7970588684082 L 72.5 116.5 L 67.3 119.2 L 62.6 121.9 L 58.5 124.5 L 54.8 127.0 L 51.6 129.4 L 50.409615421295165 130.45303258895873 L 50.9 131.0 L 53.5 133.7 L 56.1 136.3 L 58.7 138.6 L 61.3 140.7 L 62.261311054229736 141.37647819519043 L 65.1 138.7 L 68.7 134.9 L 72.5 130.7 L 76.3 125.9 L 80.2 120.7 L 84.2 115.0 L 86.29656839370728 111.82957954406739 Z M 63.8 20.7 L 63.6 23.6 L 63.6 26.2 L 63.9 28.3 L 64.3 30.1 L 64.8 31.5 L 65.29299364089965 32.40382165908814 L 65.3 32.4 L 67.7 31.1 L 70.3 29.8 L 73.0 28.4 L 75.9 27.0 L 78.9 25.6 L 82.1 24.0 L 88.0 36.7 L 84.9 38.2 L 82.0 39.6 L 74.2 43.5 L 72.0 44.7 L 69.9 45.8 L 68.0 46.9 L 66.2 47.9 L 64.7 48.9 L 64.43894128799438 48.485786819458006 L 61.5 47.2 L 58.6 45.4 L 55.9 43.1 L 53.8 40.4 L 52.1 37.4 L 50.8 34.1 L 50.1 30.6 L 49.7 27.0 L 49.6 23.2 L 49.9 19.2 Z " />
</g>
</svg>
