<svg xmlns="http://www.w3.org/2000/svg" xmlns:xlink="http://www.w3.org/1999/xlink" version="1.1" baseProfile="full" viewBox="0 0 200 200" width="200" height="200">
<g fill="black">
<path d="M 124.2 22.6 L 129.1 24.4 L 133.4 27.2 L 137.0 31.0 L 139.7 35.4 L 141.6 40.5 L 142.7 46.0 L 143.1 51.9 L 142.9 58.4 L 142.82102270126342 58.39488639831543 L 140.6 69.5 L 137.6 79.6 L 133.8 88.5 L 129.0 96.0 L 123.2 102.1 L 116.4 106.7 L 108.7 109.4 L 100.4 110.2 L 91.7 109.4 L 84.27511205673218 107.36019563674927 L 83.9 108.1 L 80.0 115.6 L 76.1142201423645 122.55825691223144 L 77.5 121.8 L 78.74799995422363 121.2960000038147 L 78.7 121.2 L 84.0 119.0 L 89.4 117.6 L 94.7 117.2 L 99.9 118.0 L 104.8 119.9 L 109.1 123.0 L 112.8 126.9 L 115.9 131.5 L 118.5 136.9 L 119.87244091033935 140.82125988006592 L 120.0 140.8 L 120.3375 142.15 L 120.6 142.9 L 120.53036651611328 142.9214659690857 L 121.6 147.2 L 123.9 152.5 L 126.8 156.7 L 130.3 160.0 L 134.7 162.6 L 140.0 164.4 L 146.4 165.5 L 154.0 165.7 L 162.7 164.9 L 172.4 163.1 L 175.5 176.8 L 164.6 178.8 L 154.5 179.7 L 145.2 179.4 L 136.6 178.0 L 128.8 175.3 L 121.9 171.2 L 116.2 165.8 L 111.6 159.2 L 108.3 151.6 L 106.91546964645386 145.99594841003417 L 105.5 142.3 L 103.7 138.4 L 101.8 135.5 L 99.9 133.5 L 98.1 132.2 L 96.3 131.5 L 94.2 131.2 L 91.7 131.4 L 88.6 132.2 L 87.26311950683593 132.79416913986205 L 87.3 132.9 L 83.6 134.5 L 79.5 136.7 L 75.2 139.6 L 70.6 143.1 L 65.7 147.4 L 60.7 152.4 L 55.5 158.0 L 50.0 164.3 L 44.4 171.4 L 38.6 179.1 L 27.3 170.8 L 33.3 162.8 L 39.2 155.4 L 43.51843452453613 150.41146354675294 L 43.5 150.4 L 49.0 141.4 L 54.2 132.8 L 59.0 124.5 L 63.5 116.5 L 67.7 108.9 L 71.5 101.7 L 75.0 94.8 L 78.2 88.2 L 79.2280104637146 85.96040573120118 L 75.3 83.8 L 73.3 82.9 L 69.3 81.5 L 67.4 81.0 L 70.5 67.4 L 73.3 68.1 L 76.0 69.0 L 78.8 70.0 L 81.4 71.3 L 84.1 72.6 L 86.7 74.2 L 89.2 75.8 L 91.8 77.7 L 94.2 79.7 L 96.7 81.8 L 95.99607725143433 82.5632004737854 L 93.8 87.8 L 90.8 94.2 L 90.60097160339356 94.61011915206909 L 94.3 95.6 L 100.4 96.2 L 105.6 95.7 L 110.1 94.1 L 114.2 91.4 L 117.9 87.5 L 121.4 82.0 L 124.4 74.9 L 127.0 66.2 L 129.0 55.9 L 129.0301028251648 55.90454788208008 L 129.1 52.2 L 128.8 47.8 L 128.1 44.2 L 127.1 41.4 L 125.9 39.4 L 124.5 38.0 L 122.9 37.0 L 120.8 36.2 L 118.0 35.8 L 115.96956520080566 35.8 L 116.0 36.0 L 110.9 36.9 L 105.6 38.0 L 100.1 39.3 L 94.3 40.9 L 88.3 42.7 L 82.1 44.7 L 75.6 47.0 L 68.9 49.6 L 61.9 52.3 L 54.7 55.4 L 54.1862268447876 54.19496850967407 L 54.1 54.9 L 50.2 54.3 L 46.6 53.3 L 43.2 51.9 L 40.0 50.0 L 37.3 47.6 L 34.9 44.9 L 33.1 41.7 L 31.9 38.3 L 31.2 34.7 L 31.0 31.0 L 45.0 31.0 L 45.1 33.0 L 45.4 34.6 L 45.8 35.9 L 46.4 36.9 L 47.1 37.8 L 48.1 38.6 L 49.4 39.3 L 51.1 40.0 L 53.2 40.6 L 53.59165153503418 40.660254096984865 L 56.6 39.4 L 63.8 36.5 L 70.8 33.9 L 77.5 31.5 L 84.1 29.3 L 90.5 27.4 L 96.6 25.7 L 102.6 24.3 L 108.4 23.1 L 113.42982950210572 22.276937007904053 L 113.4 21.9 L 118.9 21.8 Z " />
</g>
</svg>
