<svg xmlns="http://www.w3.org/2000/svg" xmlns:xlink="http://www.w3.org/1999/xlink" version="1.1" baseProfile="full" viewBox="0 0 200 200" width="200" height="200">
<g fill="black">
<path d="M 50.9 55.7 L 51.7 52.0 L 53.2 48.2 L 55.0 44.0 L 57.4 39.6 L 59.19534883499146 36.4581395149231 L 57.6 36.8 L 51.8 37.5 L 45.8 37.7 L 39.6 37.5 L 33.3 36.8 L 26.8 35.6 L 20.1 34.0 L 23.8 20.5 L 29.7 21.9 L 35.3 22.9 L 40.7 23.5 L 45.8 23.7 L 50.6 23.5 L 55.2 23.0 L 59.6 22.0 L 63.7 20.7 L 67.6 19.0 L 71.3 17.0 L 71.75213642120362 17.73704433441162 L 83.1 25.8 L 78.9 31.7 L 75.3 37.1 L 72.2 42.0 L 69.6 46.4 L 67.6 50.3 L 66.1 53.5 L 65.1 56.1 L 64.79925556182862 57.52853593826294 L 65.2 58.0 L 68.1 62.0 L 70.5 66.0 L 72.4 70.1 L 73.9 74.2 L 74.7 78.4 L 75.1 82.7 L 74.7 86.9 L 73.8 91.0 L 72.3470913887024 94.77756233215332 L 72.5 95.3 L 58.9 98.7 L 58.0 95.5 L 57.0 92.8 L 55.9 90.5 L 54.8 88.6 L 53.7 87.1 L 52.5 86.0 L 51.4 85.2 L 50.2 84.6 L 48.9 84.2 L 48.8375 84.1875 L 48.8 84.2 L 47.1 86.3 L 45.0 91.5 L 43.1 99.3 L 41.8 109.4 L 41.0 121.4 L 40.6 135.1 L 40.7 150.1 L 41.2 166.4 L 41.9 183.6 L 28.0 184.3 L 27.2 166.9 L 26.7 150.4 L 26.6 135.0 L 27.0 120.8 L 27.9 108.0 L 29.4 96.8 L 31.6 87.3 L 35.0 79.3 L 40.4 73.0 L 48.5 70.0 L 52.0 70.5 L 55.5 71.6 L 58.388076305389404 73.09062004089355 L 58.2 72.7 L 56.4 69.7 L 54.1 66.6 L 51.4 63.4 L 50.6 59.4 Z M 146.7 46.8 L 151.5 48.6 L 155.6 52.0 L 158.2 56.7 L 159.2 61.7 L 158.9 66.9 L 158.62745094299316 66.86274509429931 L 158.1 69.5 L 156.0 73.3 L 155.23070468902588 74.20666942596435 L 156.5 74.3 L 162.7 76.3 L 168.1 79.8 L 172.2 84.8 L 175.0 90.8 L 176.5 97.5 L 176.92011413574218 103.80171184539795 L 177.0 103.8 L 176.9434977531433 104.15246639251708 L 177.0 105.0 L 176.80763359069823 105.0 L 174.9 116.9 L 168.9 127.8 L 160.2 136.3 L 150.0 142.6 L 140.0472294807434 146.49062852859498 L 139.5 147.2 L 136.2 150.6 L 132.5 153.8 L 128.3 156.9 L 123.66602811813354 159.8578543663025 L 123.0 160.6 L 121.6 163.3 L 121.5 163.9 L 122.0 164.4 L 125.3 166.1 L 132.4 167.6 L 143.6 168.0 L 158.6 166.9 L 177.7 164.1 L 180.2 177.8 L 160.2 180.8 L 143.8 182.0 L 130.9 181.5 L 120.7 179.3 L 113.0 175.1 L 108.1 168.0 L 108.1 159.7 L 111.5 152.6 L 114.59370002746581 149.1125563621521 L 108.1 147.8 L 100.2 142.5 L 98.8695237159729 138.38383903503419 L 98.1 138.7 L 97.2186960220337 133.27659072875977 L 97.0 132.6 L 97.10964727401733 132.605521774292 L 96.8 130.7 L 99.1 123.4 L 103.5 117.8 L 109.1 113.5 L 115.6 110.5 L 122.6 108.8 L 129.9 108.9 L 137.0 111.2 L 143.2 116.5 L 146.51905012130737 123.69127521514892 L 147.0 123.6 L 147.4 127.8 L 147.39905481338502 127.81323251724243 L 151.7 125.2 L 157.9 119.2 L 161.7 112.2 L 162.9555132865906 104.37718629837036 L 162.6 99.4 L 161.7 95.2 L 160.3 92.2 L 158.7 90.3 L 156.7 88.9 L 153.9 88.1 L 149.9 87.8 L 144.8 88.3 L 139.2199999809265 89.56000003814697 L 126.8 93.7 L 121.0 95.6 L 115.5 97.6 L 115.38461542129517 97.64153842926025 L 113.6 98.4 L 113.55848188400269 98.29894647598266 L 110.5 99.4 L 105.8 101.1 L 101.5 102.8 L 97.7 104.4 L 92.2 91.5 L 96.3 89.8 L 100.8 88.1 L 105.6 86.2 L 110.8 84.4 L 110.98780488967896 84.33292684555053 L 115.9 82.2 L 122.7 79.1 L 128.6 76.2 L 133.7 73.4 L 137.9 70.9 L 141.1 68.6 L 143.4 66.6 L 144.6 65.1 L 145.0 64.5 L 145.0 65.0 L 145.2 62.5 L 145.0 61.2 L 144.8 60.9 L 144.7 60.8 L 143.7 60.4 L 141.4 60.2 L 137.9 60.5 L 133.4 61.3 L 127.8 62.9 L 121.4 65.1 L 116.4 52.0 L 123.6 49.5 L 130.1 47.7 L 136.1 46.6 L 141.6 46.2 Z M 120.2 123.7 L 116.3 125.5 L 113.2 127.8 L 111.4 130.2 L 110.8 131.9 L 111.0 133.4 L 110.94136362075805 133.42409086227417 L 111.0 133.6 L 112.9 134.7 L 118.4 135.7 L 126.1 135.4 L 131.61448831558226 134.222749710083 L 132.0 133.6 L 132.9 131.6 L 133.3 129.8 L 133.4 128.0 L 133.3741096496582 127.53397359848023 L 133.1 127.6 L 132.0 124.9 L 130.4 123.5 L 127.8 122.8 L 124.3 122.7 Z M 163.3 28.6 L 155.7 31.0 L 148.4 32.9 L 141.4 34.4 L 134.7 35.2 L 128.2 35.6 L 122.0 35.4 L 116.1 34.5 L 110.4 33.1 L 105.1 31.1 L 100.1 28.4 L 107.5 16.5 L 110.9 18.3 L 114.6 19.8 L 118.7 20.8 L 123.2 21.4 L 128.1 21.6 L 133.4 21.3 L 139.1 20.6 L 145.2 19.3 L 151.7 17.6 L 158.6 15.3 Z " />
</g>
</svg>
