<svg xmlns="http://www.w3.org/2000/svg" xmlns:xlink="http://www.w3.org/1999/xlink" version="1.1" baseProfile="full" viewBox="0 0 200 200" width="200" height="200">
<g fill="black">
<path d="M 138.7 80.2 L 139.7 72.7 L 140.8 66.0 L 141.8 60.3 L 142.0125470161438 58.90326223373413 L 139.6 60.3 L 135.4 62.5 L 131.0 64.8 L 126.4 67.1 L 121.4 69.4 L 116.1 71.7 L 110.6 74.0 L 110.5381341934204 73.85220947265626 L 107.6 75.9 L 100.3 64.0 L 102.1 62.7 L 103.9 61.1 L 105.8 59.0 L 107.5 56.6 L 109.3 53.8 L 111.0 50.5 L 112.6 46.8 L 114.1 42.7 L 115.6 38.2 L 116.08691759109497 36.32724018096924 L 115.9 35.9 L 115.2 34.6 L 114.4 33.5 L 113.5 32.6 L 112.4 31.8 L 111.1 31.2 L 109.6 30.6 L 107.7 30.2 L 105.5 30.0 L 106.4 16.0 L 110.0 16.4 L 113.4 17.2 L 116.6 18.3 L 119.6 19.9 L 122.4 21.8 L 124.9 24.2 L 126.9 26.9 L 128.6 29.9 L 129.9 33.1 L 130.8 36.5 L 130.42094860076904 36.580237197875974 L 130.5 36.6 L 129.0 42.1 L 127.4 47.3 L 125.69735851287842 51.84037733078003 L 128.9 50.2 L 132.7 48.1 L 136.2 46.1 L 139.4 44.1 L 142.2 42.2 L 144.7 40.4 L 145.0 40.79176473617554 L 145.0 40.0 L 151.3 41.7 L 155.6 46.9 L 156.6 52.2 L 156.4 57.2 L 155.6 62.6 L 154.6 68.5 L 153.5 74.9 L 152.6 81.8 L 152.0 89.1 L 151.92236843109131 95.0 L 152.0 95.0 L 152.0 110.1 L 152.1 123.5 L 152.1799235343933 128.13556404113768 L 160.6 127.2 L 173.7 125.1 L 176.2 138.8 L 162.6 141.1 L 152.3712689399719 142.2268940925598 L 152.4 145.1 L 152.5 153.7 L 152.4 161.0 L 152.1 167.1 L 151.6 172.4 L 150.7 176.9 L 149.2 181.1 L 136.7 174.8 L 136.71125001907347 174.76625003814698 L 128.0 170.6 L 119.8 165.9 L 112.8 160.9 L 106.8 155.6 L 102.0 149.9 L 98.4 143.7 L 96.2 137.1 L 95.5 130.2 L 96.3 123.2 L 97.72025318145752 118.74556961059571 L 98.4 115.8 L 100.5 111.0 L 103.4 106.6 L 107.0 102.7 L 111.2 99.4 L 116.1 97.0 L 121.6 95.6 L 127.4 95.6 L 133.3 97.1 L 138.0 99.738596534729 L 138.0 88.4 Z M 60.6 21.7 L 64.8 25.7 L 67.5 31.4 L 67.8 37.8 L 66.1 44.3 L 63.0 51.4 L 58.3 59.6 L 51.9 69.5 L 49.39740257263183 73.07077922821045 L 53.3 71.9 L 58.5 70.7 L 63.9 69.6 L 69.5 68.7 L 75.2 68.0 L 76.7 81.9 L 71.4 82.6 L 66.4 83.4 L 61.5 84.3 L 56.9 85.5 L 52.5 86.7 L 49.031564998626706 87.93872680664063 L 51.2 89.5 L 53.5 91.5 L 55.6 93.7 L 57.5 96.0 L 59.0 98.5 L 60.3 101.1 L 61.2 103.9 L 61.8 106.7 L 62.0 109.6 L 61.9 112.6 L 60.03326444625854 112.4254132270813 L 61.4 112.8 L 59.9 118.8 L 58.8 124.9 L 57.9 131.0 L 57.4 137.1 L 57.19891614913941 141.25573301315308 L 59.3 136.2 L 62.9 127.7 L 67.0 118.3 L 71.6 108.1 L 84.3 113.8 L 79.8 124.0 L 75.7 133.2 L 72.2 141.6 L 69.1 149.1 L 66.5 155.7 L 64.4 161.4 L 62.8 166.2 L 61.7 170.0 L 61.1 172.7 L 61.0 174.0 L 60.73333330154419 174.0 L 60.8 174.3 L 47.1 177.6 L 45.6 170.7 L 44.5 163.8 L 43.7 156.9 L 43.2 150.0 L 43.1 143.1 L 43.4 136.3 L 44.0 129.4 L 45.0 122.6 L 46.3 115.8 L 47.9 109.1 L 47.93411245346069 109.10934934616088 L 47.9 108.7 L 47.7 107.5 L 47.3 106.3 L 46.8 105.2 L 46.1 104.1 L 45.1 102.9 L 44.0 101.7 L 42.6 100.5 L 40.9 99.3 L 48.38395462036133 88.1700161933899 L 48.3 88.2 L 44.3 89.7 L 40.5 91.5 L 36.9 93.3 L 33.5 95.3 L 33.18206338882446 94.79302005767822 L 22.3 86.8 L 32.3 73.1 L 40.3 61.6 L 46.3 52.3 L 50.5 45.0 L 53.0 39.5 L 53.9 36.0 L 53.9 34.6 L 53.7 34.2 L 52.6 33.2 L 49.9 31.7 L 55.8 19.0 Z M 123.4 109.5 L 121.0 110.1 L 118.7 111.2 L 116.5 113.0 L 114.5 115.2 L 112.8 117.7 L 111.7 120.3 L 111.35497989654542 121.58150339126587 L 111.4 121.6 L 111.0285714149475 122.79387750625611 L 111.0 122.9 L 110.9957381248474 122.89941320419311 L 110.0 126.1 L 109.5 130.3 L 109.9 134.1 L 111.2 137.9 L 113.4 141.8 L 116.8 145.8 L 121.4 149.9 L 127.3 154.1 L 134.4 158.1 L 138.40986490249634 160.00945949554443 L 138.5 153.7 L 138.4 145.3 L 138.37339839935302 142.63984136581422 L 132.8 142.3 L 126.1 140.8 L 120.3 137.6 L 116.5 131.6 L 116.9 124.6 L 120.0 119.1 L 122.61724138259888 116.36896553039551 L 123.6 114.6 L 124.5 112.9 L 125.1 111.2 L 125.5 109.8 L 125.54285717010498 109.5 Z M 137.3 118.5 L 136.0 121.3 L 134.3 124.0 L 133.74344263076782 124.83483610153198 L 133.8 124.9 L 133.47692308425903 125.23461542129516 L 132.5 126.7 L 131.6547730445862 127.7373239517212 L 134.6 128.4 L 138.18582334518433 128.6206660270691 L 138.1 123.6 L 138.0472388267517 116.5300066947937 Z " />
</g>
</svg>
