<svg xmlns="http://www.w3.org/2000/svg" xmlns:xlink="http://www.w3.org/1999/xlink" version="1.1" baseProfile="full" viewBox="0 0 200 200" width="200" height="200">
<g fill="black">
<path d="M 109.5 16.1 L 112.8 16.4 L 116.0 17.1 L 119.0 18.0 L 121.8 19.3 L 124.4 21.1 L 126.7 23.2 L 128.6 25.7 L 130.0 28.6 L 130.66504554748536 31.093920993804932 L 130.7 31.1 L 130.6839506149292 31.16481485366821 L 130.8 31.6 L 130.5647080421448 31.646371364593506 L 128.1 41.6 L 126.33793935775756 46.45641098022461 L 130.9 46.1 L 136.9 46.6 L 142.6 48.1 L 147.8 50.7 L 152.3 54.3 L 156.0 58.9 L 158.7 64.2 L 159.6945701599121 67.1837103843689 L 160.0 67.1 L 160.1666666984558 68.6 L 160.7 70.2 L 160.35439996719361 70.28959999084472 L 160.9 75.2 L 159.3 82.7 L 155.5 89.1 L 150.1 94.0 L 143.7 97.5 L 136.5 99.8 L 128.9 100.8 L 120.9 100.6 L 112.9 99.1 L 105.1 96.3 L 110.8 83.6 L 116.5 85.6 L 122.4 86.7 L 128.1 86.8 L 133.5 86.1 L 138.3 84.6 L 142.1 82.6 L 144.7 80.1 L 146.3 77.5 L 146.9 74.6 L 146.6293478012085 72.02880430221558 L 145.8 69.6 L 144.2 66.5 L 142.3 64.1 L 140.2 62.4 L 137.7 61.2 L 134.7 60.4 L 130.9 60.1 L 126.4 60.4 L 121.1 61.5 L 119.96895036697387 61.82589569091797 L 118.4 65.3 L 111.3 78.7 L 102.6 93.2 L 92.4 108.8 L 85.9320613861084 118.03201484680176 L 92.4 119.6 L 98.1 123.2 L 102.8 128.3 L 106.7 134.7 L 110.0 142.3 L 112.67702131271362 151.0251064300537 L 114.1 155.1 L 116.2 160.0 L 118.3 163.4 L 120.6 165.6 L 123.7 167.3 L 128.4 168.4 L 135.2 168.9 L 144.5 168.5 L 156.2 167.3 L 170.8 165.0 L 173.1 178.9 L 158.1 181.1 L 145.6 182.5 L 135.1 182.9 L 126.3 182.3 L 118.8 180.4 L 112.4 176.9 L 107.4 172.1 L 103.7 166.4 L 101.0 160.0 L 99.21567029953003 154.79570512771608 L 99.2 154.8 L 99.0285714149475 154.25 L 98.6 153.0 L 98.63546981811524 152.98879899978638 L 96.8 147.1 L 94.2 141.0 L 91.6 136.6 L 89.1 133.9 L 86.9 132.5 L 84.8 132.0 L 82.3 132.2 L 78.8 133.5 L 74.5 136.2 L 69.6795413017273 140.24918527603148 L 67.4 143.3 L 52.7 162.3 L 36.3 182.4 L 25.6 173.5 L 41.7 153.6 L 56.3 134.8 L 69.3 117.3 L 80.8 100.9 L 90.7 85.7 L 99.1 71.8 L 102.19338674545288 66.02264528274536 L 98.0 67.7 L 93.2 70.0 L 88.5 72.6 L 83.9 75.6 L 79.5 78.9 L 75.2 82.7 L 71.0 86.8 L 60.9 77.1 L 61.643568420410155 76.37192258834838 L 66.7 68.6 L 70.1 62.0 L 71.7 57.2 L 72.1 54.4 L 72.01428575515747 54.1 L 71.8 54.1 L 70.3 54.5 L 68.6 55.3 L 61.0 43.5 L 65.6 41.3 L 70.5 40.2 L 75.7 40.5 L 80.9 43.0 L 84.7 47.8 L 86.0 53.9 L 85.6110357284546 58.113779830932614 L 86.7 57.5 L 92.5 54.8 L 98.4 52.5 L 104.4 50.6 L 110.34038667678833 49.27991409301758 L 111.1 47.6 L 114.7 37.5 L 116.00952377319337 32.2619047164917 L 115.8 32.0 L 115.1 31.6 L 114.0 31.1 L 112.6 30.6 L 110.7 30.3 L 108.5 30.0 L 106.0 30.0 L 106.0 16.0 Z M 52.8 53.0 L 50.9 56.8 L 49.4 60.6 L 48.2 64.2 L 47.2 67.6 L 46.5 70.9 L 46.0 74.0 L 45.9 77.0 L 45.9 79.9 L 46.2 82.6 L 46.7 85.3 L 33.2 88.6 L 32.4 84.8 L 31.9 80.8 L 31.9 76.7 L 32.1 72.6 L 32.7 68.5 L 33.6 64.2 L 34.8 59.9 L 36.3 55.6 L 38.1 51.2 L 40.2 46.7 Z " />
</g>
</svg>
