<svg xmlns="http://www.w3.org/2000/svg" xmlns:xlink="http://www.w3.org/1999/xlink" version="1.1" baseProfile="full" viewBox="0 0 200 200" width="200" height="200">
<g fill="black">
<path d="M 69.4 28.9 L 71.0 35.2 L 71.2 41.8 L 70.1 48.5 L 67.7 55.2 L 64.2 62.0 L 59.7 68.8 L 54.0 75.7 L 47.4 82.8 L 40.823529434204104 89.03921566009521 L 40.0 90.0 L 39.3 91.0 L 39.0 91.8 L 38.9 92.4 L 38.9 92.9 L 39.1 93.7 L 39.61750001907349 94.5625 L 46.0 100.6 L 50.6 109.2 L 53.1 118.6 L 54.2 128.5 L 54.3 138.4 L 54.29555559158325 138.50888891220092 L 55.1 136.9 L 58.8 130.0 L 62.8 122.6 L 75.1 129.3 L 71.1 136.6 L 67.6 143.3 L 64.4 149.5 L 61.7 155.2 L 59.4 160.3 L 57.5 164.8 L 56.0 168.7 L 54.9 172.0 L 54.3 174.7 L 54.0 176.5 L 53.617547798156735 176.4699501991272 L 53.7 177.0 L 40.2 180.9 L 39.0 173.5 L 38.9 165.4 L 39.3 156.6 L 39.9 147.4 L 40.3 138.1 L 40.2 129.2 L 39.3 121.0 L 37.5 114.2 L 35.56028881072998 110.4642599105835 L 32.6 107.8 L 30.0 105.1 L 27.8 102.1 L 26.1 98.9 L 25.1 95.3 L 24.9 91.6 L 25.5 88.0 L 26.9 84.6 L 28.9 81.5 L 30.372599506378172 79.78196725845336 L 30.3 79.7 L 31.05 78.99166669845582 L 31.3 78.7 L 31.32857141494751 78.72857141494751 L 37.5 72.9 L 43.5 66.5 L 48.4 60.4 L 52.2 54.8 L 54.9 49.6 L 56.6 44.9 L 57.3 40.8 L 57.2 37.2 L 56.3 33.9 L 54.6 30.6 L 66.4 23.0 Z M 102.4 131.8 L 104.7 135.9 L 107.8 139.2 L 112.2 142.0 L 117.9 144.2 L 125.2 145.7 L 133.9 146.4 L 144.1 146.2 L 155.7 145.1 L 168.7 143.1 L 171.2 156.8 L 157.5 159.0 L 144.9 160.2 L 133.5 160.4 L 123.2 159.6 L 114.0 157.7 L 105.9 154.5 L 98.9 150.0 L 93.4 144.2 L 89.4 137.1 L 87.2 129.1 L 101.0 126.8 Z M 143.2 59.2 L 150.0 60.0 L 149.92461929321288 60.49894847869873 L 160.2 69.6 L 158.3 71.7 L 156.4 73.7 L 154.6 75.7 L 152.6 77.8 L 150.7 79.8 L 146.7 84.0 L 144.7 86.0 L 142.7 88.1 L 140.6 90.2 L 130.7 80.3 L 132.7 78.3 L 134.7 76.2 L 136.7 74.2 L 137.80125226974488 73.0407871246338 L 136.7 73.0 L 131.6 73.3 L 126.8 74.0 L 122.2 75.2 L 117.9 76.8 L 113.9 78.9 L 110.0 81.4 L 106.3 84.4 L 102.8 87.9 L 92.4 78.5 L 96.9 74.0 L 101.7 70.1 L 106.9 66.8 L 112.3 64.0 L 118.0 61.8 L 124.0 60.3 L 130.2 59.3 L 136.6 59.0 Z " />
</g>
</svg>
