<svg xmlns="http://www.w3.org/2000/svg" xmlns:xlink="http://www.w3.org/1999/xlink" version="1.1" baseProfile="full" viewBox="0 0 200 200" width="200" height="200">
<g fill="black">
<path d="M 64.4 43.5 L 63.657894706726076 44.98421049118042 L 65.0 45.7 L 68.2 46.7 L 72.8 47.5 L 78.8 48.0 L 86.1 48.2 L 94.7 48.0 L 95.17327251434327 61.15697526931763 L 95.3 61.8 L 95.19753694534302 61.831527137756346 L 95.2 61.9 L 94.94799995422363 61.90830764770508 L 94.0 62.2 L 91.4 63.3 L 87.86672286987304 65.16478519439697 L 94.0 64.2 L 102.61350622177125 63.170124244689944 L 102.6 62.9 L 109.7 62.6 L 116.6 62.5 L 123.3 62.6 L 129.8 62.9 L 136.2 63.5 L 142.3 64.2 L 148.3 65.2 L 154.1 66.3 L 159.7 67.7 L 165.1 69.3 L 168.6 72.3 L 171.3 76.2 L 172.6 81.0 L 171.8 86.2 L 169.2 90.2 L 165.8 93.3 L 161.7 95.9 L 156.9 98.2 L 151.3 100.3 L 144.9 102.4 L 140.9 89.0 L 146.7 87.1 L 151.5 85.3 L 155.1 83.6 L 157.5 82.1 L 157.88275861740112 81.7491379737854 L 156.0 81.2 L 151.0 80.0 L 145.8 78.9 L 140.4 78.1 L 134.7 77.4 L 128.9 76.9 L 122.8 76.6 L 120.3531141281128 76.56116056442261 L 120.7 76.8 L 125.8 80.9 L 129.8 85.0 L 132.7 89.6 L 134.2 95.0 L 132.9 100.9 L 129.4 105.4 L 124.9 108.3 L 119.5 110.3 L 118.26055736541748 110.59986515045166 L 118.3 110.8 L 114.075 111.6125 L 113.3 111.8 L 113.29269676208496 111.76294288635253 L 107.9 112.8 L 106.87857398986816 112.94278001785278 L 106.82713756561279 114.4858736038208 L 109.01068305969238 114.24325742721558 L 109.2 113.7 L 110.05454549789428 114.12727270126342 L 110.3 114.1 L 110.31471700668335 114.25735845565796 L 116.6 117.4 L 120.2 126.5 L 116.1 133.2 L 111.1 136.5 L 106.4 138.94038457870482 L 106.4 142.75714282989503 L 107.4 142.9 L 114.7 144.3 L 121.4 146.1 L 127.7 148.2 L 133.5 150.7 L 138.8 153.5 L 143.5 156.8 L 147.8 160.5 L 151.5 164.7 L 140.4 173.2 L 138.0 170.5 L 135.0 167.9 L 131.5 165.5 L 127.4 163.3 L 122.7 161.3 L 117.4 159.5 L 111.6 158.0 L 106.62875537872314 157.00575103759766 L 106.72294893264771 161.41401119232177 L 106.9 161.4 L 107.1 166.8 L 106.87695569992066 168.62152824401855 L 106.9 169.7 L 106.744211769104 169.70560388565065 L 106.5 171.7 L 105.0 176.3 L 102.1 180.4 L 97.8 183.3 L 92.9 184.4 L 88.1 184.0 L 83.3 182.6 L 78.4 180.4 L 73.1 177.4 L 73.24044284820556 177.1741527557373 L 70.1 175.0 L 66.5 172.2 L 63.2 169.4 L 60.1 166.5 L 57.4 163.6 L 54.8 160.7 L 52.6 157.7 L 50.7 154.6 L 49.0 151.5 L 47.7 148.2 L 48.088282680511476 148.06174783706666 L 47.8 142.2 L 49.7 136.3 L 53.3 131.4 L 58.1 127.4 L 64.0 124.1 L 71.0 121.4 L 79.0 119.1 L 88.2 117.1 L 92.81097002029419 116.34628372192383 L 92.87547168731689 114.65849056243897 L 90.4 114.9 L 83.2 115.1 L 76.9 114.6 L 71.3 113.3 L 66.4 110.7 L 62.5 106.1 L 61.1 100.3 L 62.0 94.8 L 75.3 99.0 L 75.16870231628418 99.72213745117188 L 76.0 100.1 L 78.9 100.8 L 83.4 101.1 L 89.5 100.9 L 93.88740034103394 100.48497562408447 L 94.0 99.1 L 95.6 89.7 L 97.8 82.6 L 100.81373491287232 77.48578310012817 L 95.9 78.1 L 87.6 79.4 L 79.7 81.0 L 72.2 82.8 L 65.1 84.9 L 58.4 87.2 L 52.2 89.7 L 46.3 92.5 L 40.9 95.5 L 35.9 98.7 L 28.0 87.2 L 31.884735202789308 84.72180681228637 L 31.8 84.6 L 41.1 78.2 L 49.6 72.4 L 57.4 67.3 L 64.5 62.8 L 67.65502710342408 60.79680814743042 L 64.9 60.3 L 59.6 58.6 L 55.0 56.0 L 51.3 51.9 L 49.6 46.4 L 50.2 41.0 L 52.5 36.2 Z M 92.4 130.6360824584961 L 90.8 130.9 L 82.4 132.7 L 75.4 134.7 L 69.9 136.8 L 65.9 139.0 L 63.4 141.1 L 62.1 142.7 L 61.7 144.0 L 61.8 145.6 L 61.75683679580688 145.6085065841675 L 62.8 147.6 L 64.1 149.8 L 65.8 152.0 L 67.7 154.2 L 69.9 156.5 L 72.5 158.9 L 75.3 161.3 L 78.5 163.7 L 81.9 166.2 L 81.85066900253295 166.27181091308594 L 84.7 167.9 L 88.2 169.5 L 90.8 170.2 L 92.2 170.4 L 92.35 170.4 L 92.4 170.3 L 92.8 168.9 L 92.93702421188354 167.71245670318604 L 92.62029991149902 155.2018454551697 L 90.4 155.0 L 90.45111112594604 154.28444442749023 L 90.1 154.8 L 84.1 148.2 L 84.1 138.9 L 88.7 133.3 L 92.4 130.8333333015442 Z M 110.8 87.9 L 109.3 92.8 L 108.31764106750488 98.48364820480347 L 111.51078071594239 97.87695169448853 L 115.5 96.9 L 118.8 95.7 L 119.78571424484252 95.04285717010498 L 119.0 93.9 L 116.4 91.3 L 112.4 88.1 L 111.16065578460693 87.25081968307495 Z M 75.5 16.6 L 80.9 18.8 L 85.9 20.5 L 90.7 21.8 L 95.2 22.6 L 99.5 23.1 L 103.4 23.2 L 107.0 22.9 L 110.4 22.3 L 113.5 21.4 L 118.4 34.5 L 113.7 35.9 L 108.8 36.8 L 103.7 37.2 L 98.5 37.1 L 93.1 36.5 L 87.6 35.4 L 81.9 33.9 L 76.0 31.9 L 70.0 29.5 L 63.8 26.7 L 69.9 14.1 Z " />
</g>
</svg>
