<svg xmlns="http://www.w3.org/2000/svg" xmlns:xlink="http://www.w3.org/1999/xlink" version="1.1" baseProfile="full" viewBox="0 0 200 200" width="200" height="200">
<g fill="black">
<path d="M 84.80071172714233 28.901423454284668 L 85.0 28.9 L 84.9673469543457 29.234693908691405 L 85.2 29.7 L 84.90872249603271 29.835594749450685 L 84.6 33.0 L 83.8 37.1 L 82.4 41.5 L 80.6 46.1 L 78.4 51.1 L 75.7 56.3 L 72.5 62.0 L 68.9 68.0 L 65.1511459350586 73.76043424606323 L 66.7 76.6 L 69.3 82.2 L 69.90762929916382 83.73228244781494 L 71.0 82.9 L 80.3 76.6 L 87.9 88.4 L 79.2 94.3 L 74.55196352005005 97.77131834030152 L 75.1 100.0 L 76.4 106.3 L 77.3 112.7 L 77.7623462677002 118.8029709815979 L 77.9 118.8 L 77.87158670425416 121.69815502166747 L 78.0 126.0 L 77.82941179275512 126.0 L 77.8 129.0 L 77.1 138.4 L 75.7 147.0 L 73.6 154.9 L 70.7 161.9 L 67.1 168.2 L 62.6 173.6 L 57.3 178.0 L 51.2 181.4 L 44.5 183.5 L 44.382352924346925 183.0 L 41.0 183.0 L 36.4 181.9 L 32.3 179.5 L 29.0 176.1 L 26.7 171.9 L 25.3 167.3 L 24.5 162.3 L 24.2 156.8 L 24.4 150.8 L 25.0 144.1 L 25.16851673126221 144.12060995101928 L 26.6 137.5 L 29.2 130.2 L 32.6 123.0 L 36.9 116.0 L 42.1 109.1 L 48.1 102.4 L 54.9 95.8 L 58.43726758956909 92.81399488449097 L 58.4 92.7 L 56.5 87.8 L 54.2 82.9 L 51.6 78.3 L 48.7 73.7 L 49.06708860397339 73.45 L 48.7 73.2 L 53.1 66.7 L 57.0 60.6 L 60.4 54.9 L 63.4 49.7 L 65.8 44.9 L 67.8 40.6 L 69.2 36.8 L 69.44852771759034 36.00471143722534 L 67.6 36.6 L 61.6 38.1 L 55.5 39.2 L 49.4 40.0 L 43.3 40.3 L 37.2 40.2 L 31.0 39.7 L 24.8 38.8 L 27.1 25.1 L 32.5 25.8 L 37.8 26.2 L 43.0 26.3 L 48.2 26.0 L 53.4 25.4 L 58.6 24.4 L 63.7 23.1 L 68.8 21.5 L 73.9 19.5 L 78.9 17.1 Z M 164.8 25.6 L 168.4053864479065 31.368618297576905 L 168.9 31.2 L 173.0 44.7 L 169.1 45.9 L 165.0 47.5 L 160.4 49.4 L 155.6 51.7 L 153.98275861740112 52.50862064361572 L 152.4 63.5 L 150.7 79.1 L 149.2 97.7 L 148.73454961776733 105.43363742828369 L 150.6 105.9 L 153.6 106.8 L 156.6 107.9 L 159.4 109.2 L 162.1 110.7 L 164.7 112.4 L 167.2 114.2 L 169.5 116.2 L 171.7 118.4 L 173.7 120.7 L 173.6645203590393 120.72923784255981 L 174.7 121.7 L 177.3 127.9 L 177.3 134.5 L 175.1 140.7 L 171.3 146.7 L 166.1 152.9 L 159.4 159.3 L 151.3 166.1 L 141.8 173.4 L 130.7 181.2 L 122.8 169.6 L 133.5 162.1 L 142.6 155.2 L 150.1 148.9 L 155.9 143.3 L 160.0 138.4 L 162.6 134.4 L 163.5 131.8 L 163.6 130.5 L 163.3 129.9 L 162.9396249771118 129.56734609603882 L 162.9 129.6 L 162.58500003814697 129.23999996185302 L 162.0 128.7 L 162.04947805404663 128.62797498703003 L 161.5 128.0 L 160.0 126.5 L 158.4 125.2 L 156.7 123.9 L 155.0 122.8 L 153.1 121.8 L 151.1 120.9 L 149.0 120.1 L 146.8 119.4 L 146.0618127822876 119.2074294090271 L 134.0 118.6 L 135.3 96.8 L 136.8 77.8 L 138.5 61.8 L 138.65990858078004 60.69747247695923 L 132.8 64.1 L 126.4 68.0 L 119.6 72.3 L 112.0 60.5 L 119.0 56.1 L 125.7 52.1 L 132.0 48.3 L 138.1 44.9 L 141.5792127609253 43.071939086914064 L 142.6 38.2 L 145.2 30.3 L 149.2 24.1 L 157.9 21.2 Z M 62.47139234542847 107.96865329742431 L 58.2 112.1 L 52.9 118.0 L 48.5 123.9 L 44.9 129.7 L 42.1 135.5 L 40.1 141.3 L 38.9 147.0 L 38.77981262207031 146.98184223175048 L 38.3 151.7 L 38.2 156.7 L 38.4 160.9 L 38.9 164.2 L 39.7 166.5 L 40.4 167.9 L 41.0 168.6 L 41.6 168.9 L 42.5 169.1 L 43.81428575515747 169.1 L 45.7 168.5 L 49.4 166.5 L 52.7 163.7 L 55.6 160.2 L 58.1 155.8 L 60.3 150.5 L 62.0 144.1 L 63.2 136.8 L 63.9 128.4 L 63.94390239715576 124.31707315444946 L 63.8 120.0 L 63.3 114.2 L 62.6 108.6 Z M 159.66000003814696 25.719999980926513 L 159.7 25.7 L 159.6 25.6 Z " />
</g>
</svg>
