<svg xmlns="http://www.w3.org/2000/svg" xmlns:xlink="http://www.w3.org/1999/xlink" version="1.1" baseProfile="full" viewBox="0 0 200 200" width="200" height="200">
<g fill="black">
<path d="M 62.6 23.5 L 68.9 24.0 L 74.9 24.8 L 80.4 26.0 L 85.6 27.6 L 90.4 29.6 L 94.8 32.1 L 94.61463718414306 32.38165521621704 L 94.9 32.4 L 94.0 48.1 L 93.48655853271484 57.79120788574219 L 99.1 54.2 L 112.6 45.5 L 123.9 38.4 L 133.4 32.9 L 141.2 28.8 L 148.0 26.1 L 154.3 24.8 L 160.6 25.6 L 166.0 28.7 L 169.8 33.1 L 169.57324266433716 33.249233436584475 L 167.1 37.8 L 164.5 42.3 L 161.9 46.6 L 159.2 50.7 L 156.6 54.6 L 153.9 58.4 L 151.3 62.0 L 148.6 65.4 L 145.8 68.6 L 143.1 71.7 L 143.06745433807373 71.6699821472168 L 142.0 73.2 L 140.39869813919069 75.93555736541748 L 143.9 74.8 L 147.9 73.9 L 152.1 73.3 L 155.12426261901857 73.09838247299194 L 155.1 72.9 L 160.6 72.6 L 165.8 73.2 L 170.6 74.9 L 174.9 77.9 L 178.0 82.0 L 180.0 86.7 L 180.8 91.9 L 180.9 97.4 L 180.1 103.3 L 179.43001737594605 106.36277751922607 L 179.6 106.4 L 179.11791048049926 107.78955221176147 L 178.7 109.7 L 178.47531204223634 109.64174757003784 L 177.9 111.3 L 175.1 115.9 L 171.6 120.0 L 167.2 124.0 L 162.0 127.8 L 156.1 131.4 L 149.4 135.0 L 141.9 138.5 L 133.5 142.1 L 126.95033111572266 144.5205298423767 L 126.1 145.3 L 125.5 146.4 L 125.5 146.6 L 126.1 147.7 L 128.3 150.0 L 132.5 153.0 L 138.8 156.4 L 147.0 159.9 L 157.0 163.5 L 168.9 167.2 L 165.0 180.7 L 152.6 176.8 L 141.9 172.9 L 132.8 169.0 L 125.3 165.0 L 119.2 160.7 L 114.6 155.8 L 111.8 149.7 L 112.0 142.8 L 115.0 136.8 L 119.8 132.1 L 119.93402776718139 132.26946039199828 L 128.3 129.0 L 136.2 125.7 L 143.1 122.5 L 149.2 119.3 L 154.2 116.1 L 158.4 113.1 L 161.6 110.2 L 163.8 107.6 L 165.2 105.3 L 165.62777776718139 104.13888893127441 L 166.3 100.9 L 166.9 96.4 L 166.9 92.9 L 166.5 90.4 L 165.9 88.9 L 165.2 88.0 L 164.3 87.4 L 162.8 86.9 L 160.3 86.6 L 157.29354372024537 86.77179746627807 L 157.3 86.9 L 153.7 87.2 L 150.4 87.7 L 147.5 88.3 L 145.0 89.1 L 142.9 90.0 L 141.1 91.0 L 139.7 92.1 L 138.5 93.3 L 137.5 94.5 L 136.7 96.0 L 136.38918533325196 95.85560579299927 L 126.8 104.7 L 124.2 101.2 L 122.4 97.2 L 121.5 93.0 L 121.3 88.6 L 122.0 84.2 L 123.2 79.7 L 125.0 75.2 L 127.4 70.5 L 130.3 65.7 L 133.7 60.7 L 133.99241323471068 60.91219367980957 L 135.3 59.5 L 137.7 56.6 L 140.2 53.5 L 142.6 50.2 L 145.1 46.7 L 147.5 43.0 L 148.97818183898926 40.75316362380981 L 147.2 41.5 L 140.2 45.1 L 131.2 50.4 L 120.1 57.3 L 106.7 65.9 L 92.72123422622681 74.92976179122925 L 92.6 77.9 L 92.2 92.0 L 91.9 105.6 L 91.8 118.6 L 91.9 131.1 L 92.1 143.1 L 92.4 154.6 L 92.87319345474243 165.01025638580322 L 93.4 165.3 L 86.7 177.6 L 82.5 175.3 L 78.5 172.9 L 74.7 170.6 L 71.2 168.3 L 67.9 166.0 L 64.8 163.8 L 62.0 161.5 L 59.3 159.2 L 56.9 156.9 L 55.55665845870972 155.49559745788574 L 51.0 161.4 L 40.4 166.8 L 40.23195638656616 166.0061388015747 L 33.3 166.4 L 25.5 162.5 L 20.4 155.3 L 18.3 146.0 L 19.4 135.2 L 23.7 123.1 L 31.7 109.9 L 43.7 95.8 L 47.63460006713867 92.26592807769775 L 47.3 90.7 L 43.5 80.5 L 39.0 72.9 L 34.2 68.5 L 41.4 56.5 L 50.0 64.2 L 56.2 74.6 L 58.94607009887695 82.10592498779297 L 60.4 80.8 L 79.0079553604126 67.33710145950317 L 79.2 62.6 L 80.0 47.3 L 80.37765550613403 40.6700478553772 L 76.9 39.6 L 72.4 38.6 L 67.5 37.9 L 61.9 37.5 L 55.9 37.3 L 49.4 37.5 L 42.3 38.0 L 34.8 38.8 L 33.1 24.9 L 41.1 24.0 L 48.7 23.5 L 55.9 23.3 Z M 69.1 91.7 L 62.9485541343689 97.21233463287354 L 63.6 100.2 L 64.9 114.1 L 64.6 127.9 L 62.4 140.7 L 58.44182767868042 151.28580980300904 L 65.2 145.3 L 66.8 147.0 L 68.7 148.8 L 70.9 150.7 L 73.3 152.6 L 76.0 154.6 L 78.46067419052125 156.32247190475465 L 78.4 155.2 L 78.1 143.5 L 77.9 131.3 L 77.8 118.6 L 77.9 105.3 L 78.2 91.6 L 78.38545732498169 85.01626501083373 Z M 43.0 118.1 L 36.3 129.2 L 33.0 138.3 L 32.3 145.2 L 33.3 149.8 L 34.8 152.0 L 36.2 152.7 L 37.9 152.6 L 37.98029508590698 152.8542676925659 L 41.8 150.9 L 45.7 145.6 L 48.8 137.2 L 50.6 126.6 L 50.9 114.6 L 50.427015209198 109.35416898727416 Z " />
</g>
</svg>
