<svg xmlns="http://www.w3.org/2000/svg" xmlns:xlink="http://www.w3.org/1999/xlink" version="1.1" baseProfile="full" viewBox="0 0 200 200" width="200" height="200">
<g fill="black">
<path d="M 84.0 18.7 L 87.0 19.5 L 90.0 20.4 L 93.0 21.6 L 95.9 23.0 L 98.8 24.6 L 101.6 26.4 L 104.3 28.3 L 107.0 30.5 L 109.19089632034301 32.36631908416748 L 109.9 32.3 L 109.5 36.9 L 107.8 41.0 L 105.2 44.5 L 102.0 48.0 L 98.1 51.5 L 97.66645364761352 51.83929710388183 L 105.2 50.5 L 113.5 49.0 L 121.0 47.7 L 127.9 46.5 L 134.0 45.6 L 139.3 44.7 L 144.0 44.0 L 144.01936130523683 44.1416431427002 L 144.3 44.1 L 144.92038373947145 50.73333330154419 L 145.9 57.9 L 145.59445762634277 57.94073896408081 L 145.6 58.0 L 132.0 60.1 L 123.3 63.2 L 118.3 67.3 L 115.2 73.1 L 114.29978923797607 77.81286783218384 L 115.2807879447937 77.45354862213135 L 115.3 77.4 L 115.34746494293213 77.42912616729737 L 115.7 77.3 L 115.84750919342041 77.73597154617309 L 119.7 80.1 L 122.4 85.0 L 122.6 89.9 L 121.3 94.2 L 119.1 98.4 L 116.2 102.7 L 113.53805227279663 106.0813931465149 L 113.7 110.4 L 114.42047901153565 126.01037874221802 L 116.9 126.1 L 127.1 125.7 L 139.1 124.7 L 153.0 123.0 L 154.9 136.9 L 140.5 138.6 L 127.9 139.7 L 117.0 140.1 L 114.86202840805053 140.0317668914795 L 115.2 153.1 L 114.9 180.2 L 101.23889083862305 179.70859317779542 L 101.1 179.8 L 101.02059259414673 179.70074071884156 L 101.0 179.7 L 101.00018692016602 179.67523365020753 L 100.7 179.3 L 99.0 177.7 L 96.5 175.5 L 93.1 172.7 L 88.9 169.4 L 83.8 165.6 L 78.0 161.2 L 71.4 156.4 L 63.9 151.1 L 56.174562549591066 145.54145355224608 L 55.9 145.9 L 49.3 139.6 L 45.2 132.1 L 44.5 123.6 L 47.5 115.5 L 53.1 108.5 L 61.0 102.1 L 71.2 95.9 L 83.6 89.7 L 98.5 83.6 L 99.50897722244262 83.23043279647827 L 99.6 80.7 L 102.0 68.7 L 103.97922077178956 64.96147184371948 L 98.7 65.9 L 88.9 67.6 L 78.4 69.6 L 67.2 71.6 L 60.4 59.4 L 67.9 55.1 L 74.5 51.0 L 80.3 47.3 L 85.2 43.8 L 89.2 40.7 L 92.3 37.9 L 92.79350004196166 37.35950002670288 L 91.6 36.6 L 89.5 35.5 L 87.4 34.5 L 85.3 33.6 L 83.2 32.9 L 81.1 32.4 L 79.0 32.0 L 80.9 18.2 Z M 89.4 102.5 L 77.9 108.2 L 69.0 113.6 L 62.9 118.6 L 59.5 122.7 L 58.3 125.6 L 58.5 127.9 L 60.2 130.8 L 63.61838569641113 134.05560541152954 L 63.8 133.8 L 72.1 139.7 L 79.6 145.0 L 86.3 149.9 L 92.2 154.4 L 97.4 158.3 L 101.13955812454223 161.2085452079773 L 101.2 153.2 L 100.82479944229127 138.94237966537474 L 99.7 138.8 L 93.1 136.8 L 87.5 133.3 L 83.8 127.2 L 83.8 120.2 L 86.5 114.2 L 87.21612710952759 114.63328695297241 L 86.8 114.2 L 92.7 108.4 L 97.7 103.1 L 99.3421067237854 101.21758489608764 L 99.23841047286987 98.38321828842163 Z M 97.55251989364623 123.26445627212524 L 97.51855669021606 123.3391752243042 L 98.5 123.9 L 100.32229814529418 124.41398153305053 L 100.15039358139038 120.70848369598389 Z " />
</g>
</svg>
