<svg xmlns="http://www.w3.org/2000/svg" xmlns:xlink="http://www.w3.org/1999/xlink" version="1.1" baseProfile="full" viewBox="0 0 200 200" width="200" height="200">
<g fill="black">
<path d="M 136.7 74.9 L 136.1904788017273 75.33548822402955 L 134.0 83.5 L 134.0 88.4 L 134.9 90.8 L 136.8 92.5 L 140.0 94.2 L 144.4 95.7 L 149.4 97.3 L 154.6 99.8 L 159.6 104.9 L 160.82671184539794 112.44899587631225 L 161.2 112.7 L 157.1 116.7 L 152.3 119.1 L 147.1 120.6 L 141.4 121.8 L 135.1 122.8 L 128.1 124.0 L 123.5876365661621 124.83122482299805 L 125.16259126663208 125.3331335067749 L 125.2 125.3 L 125.24837760925293 125.36047201156616 L 126.0 125.6 L 125.74426231384277 125.98032789230346 L 126.8 127.3 L 128.3 129.3 L 129.6 131.4 L 130.7 133.6 L 131.6 135.8 L 132.3 138.1 L 132.8 140.5 L 133.1 142.9 L 133.2 145.3 L 133.08317155838012 146.70194177627565 L 133.3 147.1 L 133.04074077606202 147.2111110687256 L 133.0 147.7 L 132.10932035446166 147.61029129028321 L 119.3 153.1 L 105.6 156.2 L 103.00551128387451 156.341886138916 L 106.9 156.7 L 115.9 158.6 L 125.6 161.5 L 136.1 165.5 L 147.9 170.5 L 161.0 176.6 L 154.9 189.3 L 142.1 183.3 L 130.9 178.5 L 121.1 174.8 L 112.4 172.2 L 104.8 170.6 L 97.8 169.9 L 91.3 170.1 L 84.8 171.2 L 78.0 173.1 L 71.50591115951538 175.64498071670533 L 70.0 176.8 L 58.2 183.6 L 44.8 188.7 L 41.1 175.2 L 52.1 171.0 L 62.1 165.2 L 71.3 158.2 L 76.31776542663575 153.6054196357727 L 72.2 152.1 L 65.1 146.0 L 63.7 135.6 L 70.2 127.4 L 81.2 121.8 L 89.63106908798218 119.48659687042236 L 89.6 119.4 L 99.6 116.1 L 109.1 113.5 L 117.8 111.6 L 125.8 110.2 L 132.9 109.0 L 137.6859329223633 108.21542081832885 L 134.8 107.2 L 128.9 104.1 L 123.5 98.9 L 120.2 91.1 L 120.17599477767945 88.81950426101685 L 113.8 94.0 L 103.4 102.4 L 93.5 110.0 L 84.4 116.8 L 75.8 122.8 L 67.9 128.1 L 60.6 132.6 L 53.9 136.4 L 47.8 139.3 L 42.1 126.6 L 47.4 124.0 L 53.5 120.5 L 58.16992607116699 117.65743627548218 L 54.5 116.6 L 49.5 113.1 L 46.7 106.7 L 48.5 100.0 L 52.8 95.4 L 58.7 92.0 L 66.2 89.3 L 71.0 88.18842105865478 L 71.0 85.2 L 70.99002990722656 84.97068796157836 L 70.9 85.0 L 67.2 86.1 L 63.7 86.8 L 60.2 87.2 L 56.5 86.7 L 52.9 85.1 L 50.0 82.7 L 47.9 79.9 L 46.3 76.9 L 44.9 73.6 L 57.8 68.2 L 59.0 70.9 L 59.9 72.6 L 60.31489362716675 73.18085107803344 L 61.4 73.0 L 63.6 72.5 L 66.7 71.6 L 70.7 70.3 L 70.77998638153076 70.53640413284302 L 84.0 69.3 L 84.7 77.5 L 85.0 84.9 L 85.0 90.44532375335693 L 87.9 90.8 L 87.3 94.4 L 86.57486038208008 97.6631284713745 L 94.7 91.4 L 105.0 83.1 L 116.0 74.1 L 127.6 64.3 Z M 86.1 134.9 L 78.5 138.7 L 77.95185995101929 139.17505474090575 L 78.8 139.8 L 84.6 141.8 L 87.95958700180054 142.22971458435057 L 94.3 135.8 L 99.31157894134522 131.29684209823608 Z M 114.5 137.4 L 110.0 140.4 L 109.32600603103637 141.0168758392334 L 115.1 139.7 L 117.50474662780762 138.67536878585815 L 117.3 138.3 L 116.6 137.0 L 116.45398225784302 136.80530977249146 Z M 139.1 40.3 L 147.5 41.2 L 154.8 42.7 L 161.1 45.0 L 166.4 48.4 L 170.4 53.2 L 172.2 59.3 L 171.8 65.6 L 171.45879802703857 65.51781263351441 L 171.4 65.9 L 169.8 69.6 L 167.4 72.7 L 164.3 75.2 L 160.9 77.0 L 157.1 78.6 L 152.9 79.7 L 148.2 80.7 L 143.1 81.4 L 137.4 81.9 L 136.5 68.0 L 141.5 67.5 L 145.9 66.9 L 149.6 66.1 L 152.7 65.3 L 155.0 64.4 L 156.6 63.5 L 157.5 62.8 L 157.9 62.4 L 157.9 62.2 L 158.0 62.0 L 158.1375 62.0 L 158.3 60.7 L 158.1 59.9 L 157.3 59.0 L 155.0 57.6 L 151.1 56.2 L 145.4 55.0 L 138.2 54.2 L 129.4 53.9 L 127.45714282989502 53.938095283508304 L 117.39181814193725 54.22363634109497 L 111.2945945739746 54.640540504455565 L 101.7 55.6 L 89.9 57.7 L 79.2 60.4 L 69.6 63.4 L 61.1 66.5 L 53.6 69.6 L 47.0 72.2 L 41.3 74.4 L 36.726454162597655 75.52181310653687 L 36.7 75.6 L 36.59087839126587 75.55506753921509 L 36.0 75.7 L 35.93697137832642 75.28581171035766 L 33.3 74.2 L 30.1 72.6 L 27.3 70.5 L 24.9 67.9 L 23.0 64.9 L 21.9 61.5 L 21.5 57.9 L 21.9 54.4 L 22.8 51.0 L 24.2 47.7 L 36.8 54.0 L 36.0 55.7 L 35.6 57.1 L 35.5 58.0 L 35.6 58.6 L 35.7 59.0 L 35.9 59.4 L 36.5 59.9 L 37.5 60.7 L 37.68850574493408 60.79425287246704 L 41.8 59.2 L 48.2 56.6 L 56.0 53.5 L 65.1 50.2 L 75.4 46.9 L 86.9 44.0 L 99.8 41.7 L 106.41091423034668 41.03890857696533 L 106.4 40.9 L 109.68461542129516 40.7115385055542 L 113.8 40.3 L 118.44425535202026 40.20893621444702 L 118.6 40.2 L 129.5 39.9 Z M 84.9 12.5 L 89.1 14.9 L 93.2 17.1 L 97.3 18.9 L 101.4 20.5 L 105.5 21.7 L 109.6 22.7 L 113.7 23.4 L 117.8 23.8 L 122.0 24.0 L 122.0 38.0 L 116.9 37.8 L 111.8 37.3 L 106.8 36.4 L 101.8 35.2 L 96.9 33.7 L 92.0 31.9 L 87.1 29.7 L 82.3 27.2 L 77.5 24.4 L 72.8 21.3 L 80.8 9.8 Z " />
</g>
</svg>
