<svg xmlns="http://www.w3.org/2000/svg" xmlns:xlink="http://www.w3.org/1999/xlink" version="1.1" baseProfile="full" viewBox="0 0 200 200" width="200" height="200">
<g fill="black">
<path d="M 105.4 24.1 L 105.9 25.9 L 106.5 27.4 L 107.2 28.7 L 107.9 29.8 L 108.7 30.7 L 109.7 31.4 L 110.8 32.1 L 111.6869158744812 32.509345817565915 L 113.1 32.3 L 116.5 31.8 L 120.6 31.1 L 125.2 30.3 L 130.5 29.3 L 136.3 28.2 L 142.8 27.0 L 149.9 25.6 L 156.87970066070557 24.240318012237548 L 157.2 23.9 L 157.44465370178222 24.130262279510497 L 157.6 24.1 L 157.64269895553588 24.316657924652098 L 167.4 33.5 L 160.9 40.3 L 154.6 46.9 L 148.4 53.5 L 142.3 59.9 L 136.3 66.2 L 134.37739248275756 68.25520114898681 L 138.8 67.6 L 143.320959854126 67.12410945892334 L 143.3 66.9 L 148.4 66.7 L 153.2 67.2 L 157.7 68.5 L 161.9 70.5 L 165.5 73.4 L 168.6 76.9 L 170.8 81.0 L 172.5 85.5 L 173.5 90.4 L 173.88481559753419 95.49880695343018 L 173.9 95.5 L 173.8881607055664 95.54312896728516 L 173.9 95.7 L 173.8445505142212 95.70199460983277 L 172.5 100.6 L 169.8 105.0 L 166.2 109.4 L 161.5 114.1 L 155.7 119.3 L 148.8 124.9 L 140.8 131.1 L 131.7 137.8 L 121.3 145.0 L 109.8 152.8 L 109.7267370223999 152.68867826461792 L 106.5 154.8 L 101.7 159.1 L 100.70232553482056 160.63488368988038 L 101.4 161.1 L 107.3 163.1 L 117.7 164.6 L 132.5 165.0 L 151.6 164.2 L 175.2 162.0 L 176.7 175.9 L 152.6 178.2 L 132.6 179.0 L 116.6 178.5 L 104.1 176.7 L 94.8 173.4 L 88.0 167.2 L 86.8 157.7 L 91.0 150.0 L 98.0 143.6 L 107.6 137.4 L 107.60036859512329 137.40063705444337 L 113.4 133.5 L 123.5 126.4 L 132.4 119.9 L 140.2 113.9 L 146.6 108.6 L 151.9 103.9 L 155.8 99.9 L 158.5 96.8 L 159.7 94.7 L 159.82272729873657 94.51590909957886 L 159.6 92.4 L 159.0 89.3 L 158.1 86.8 L 157.0 84.9 L 155.9 83.5 L 154.5 82.4 L 152.8 81.6 L 150.6 81.0 L 147.9 80.7 L 145.48380126953126 80.77321815490723 L 145.5 81.0 L 140.5 81.5 L 135.9 82.2 L 131.5 83.1 L 127.4 84.3 L 123.6 85.7 L 120.0 87.3 L 116.6 89.1 L 113.5 91.2 L 110.6 93.4 L 107.9 95.9 L 102.95 90.95 L 97.9 86.1 L 108.9 74.7 L 120.3 62.7 L 126.2 56.6 L 132.2 50.3 L 138.3 43.9 L 140.3358208656311 41.73283586502075 L 139.0 42.0 L 133.0 43.1 L 127.7 44.1 L 122.9 44.9 L 118.8 45.6 L 115.2 46.1 L 112.1 46.6 L 109.6 46.8 L 109.57084922790527 46.4883111000061 L 107.2 45.8 L 104.3 44.5 L 101.6 42.9 L 99.2 40.9 L 97.1 38.6 L 95.2 36.1 L 93.8 33.3 L 92.6 30.3 L 91.7 27.2 L 91.1 23.9 L 105.0 22.0 Z M 66.5 30.3 L 67.1 36.4 L 66.7 42.6 L 65.3 48.8 L 62.9 55.0 L 59.8 61.3 L 55.7 67.6 L 50.9 73.9 L 45.3 80.4 L 39.991207122802734 85.79046659469604 L 40.0 85.8 L 38.4 87.4 L 37.5 88.6 L 37.1 89.4 L 37.1 89.8 L 37.2 90.1 L 37.58955821990967 90.6453815460205 L 42.73389825820923 94.520339012146 L 43.2 94.8 L 43.173000526428225 94.85109128952027 L 44.3 95.7 L 48.9 103.8 L 51.3 112.9 L 52.3 122.8 L 52.55250597000122 131.38520288467407 L 55.0 126.7 L 58.8 119.6 L 71.1 126.3 L 67.3 133.2 L 64.1 139.6 L 61.2 145.6 L 58.8 151.1 L 56.7 156.2 L 55.2 160.7 L 54.0 164.8 L 53.3 168.3 L 52.9 171.2 L 52.9 173.5 L 52.617979526519775 173.51812992095947 L 52.7 174.0 L 39.2 177.9 L 38.0 170.4 L 37.7 161.9 L 37.9 152.6 L 38.3 142.8 L 38.6 133.0 L 38.4 123.6 L 37.5 115.3 L 35.8 108.8 L 34.09421796798706 105.62104263305665 L 33.0 105.0 L 29.8 102.6 L 27.0 99.9 L 24.9 96.7 L 23.4 93.0 L 23.1 88.9 L 23.8 85.0 L 25.5 81.5 L 27.7 78.4 L 29.124073791503907 76.92506647109985 L 29.1 76.9 L 35.0 70.9 L 40.1 65.1 L 44.3 59.5 L 47.6 54.3 L 50.1 49.4 L 51.9 44.8 L 52.8 40.5 L 53.1 36.6 L 52.7 32.9 L 51.7 29.3 L 64.9 24.4 Z " />
</g>
</svg>
