<svg xmlns="http://www.w3.org/2000/svg" xmlns:xlink="http://www.w3.org/1999/xlink" version="1.1" baseProfile="full" viewBox="0 0 200 200" width="200" height="200">
<g fill="black">
<path d="M 89.1 119.4 L 88.7 120.8 L 88.7 121.3 L 89.6 122.2 L 91.5 123.3 L 94.8 124.5 L 99.3 125.5 L 105.1 126.3 L 112.0 126.8 L 120.0 127.0 L 120.0 140.7039999961853 L 120.2 141.8 L 117.3 142.5 L 114.4 143.4 L 111.3 144.5 L 108.3 145.9 L 105.1 147.6 L 101.9 149.6 L 98.6 151.8 L 95.3 154.4 L 91.9 157.2 L 88.5 160.3 L 88.35630130767822 160.1488169670105 L 86.1 162.2 L 85.23358211517333 163.74029846191405 L 85.7 164.3 L 88.5 166.0 L 94.0 167.8 L 102.0 168.9 L 112.4 169.2 L 125.0 168.3 L 139.7 166.1 L 142.2 179.8 L 126.5 182.2 L 112.7 183.2 L 100.9 182.9 L 90.9 181.4 L 82.7 178.8 L 76.2 174.6 L 71.9 168.3 L 71.6 160.4 L 75.1 153.5 L 81.0 148.0 L 81.11789884567261 148.15719842910767 L 82.7 146.7 L 86.6 143.4 L 90.4 140.5 L 93.33490304946899 138.46814403533935 L 90.9 137.9 L 85.7 136.1 L 81.2 133.4 L 77.5 129.7 L 75.2 124.8 L 74.8 119.4 L 76.1 114.3 Z M 166.9 41.2 L 173.6 43.2 L 179.4 46.8 L 183.9 51.8 L 184.98662014007567 54.20608749389648 L 185.7 54.0 L 186.434024143219 57.411053562164305 L 186.7 58.0 L 186.5689088821411 58.03787078857422 L 187.4 61.9 L 187.8 69.3 L 186.5 76.2 L 183.2 82.4 L 178.1 87.1 L 171.7 90.1 L 164.4 91.8 L 156.1 92.2 L 146.9 91.6 L 136.6 90.0 L 139.2 76.3 L 148.5 77.7 L 156.3 78.2 L 162.6 77.9 L 167.3 76.9 L 170.3 75.4 L 172.1 73.8 L 173.3 71.7 L 173.8 68.5 L 173.6 63.9 L 173.05806455612182 61.57741937637329 L 172.1 59.4 L 170.5 57.6 L 168.0 56.1 L 164.2 54.9 L 159.0 54.4 L 152.3 54.6 L 144.4 55.6 L 135.2 57.6 L 124.8 60.4 L 117.67270803451538 62.73480253219604 L 117.7 62.8 L 104.8 68.1 L 93.9587646484375 72.25580682754517 L 93.9 72.6 L 93.5 77.3 L 93.4 82.7 L 93.48555889129639 87.83353118896484 L 93.8 88.0 L 95.5 88.8 L 97.4 89.4 L 99.5 90.0 L 101.6 90.4 L 103.9 90.7 L 106.4 90.9 L 109.0 91.0 L 109.0 105.0 L 105.7 104.9 L 102.4 104.6 L 99.3 104.2 L 96.3 103.6 L 93.4 102.8 L 90.5 101.8 L 87.8 100.7 L 85.2 99.3 L 82.7 97.8 L 80.94348459243774 96.42533578872681 L 80.0 96.5 L 79.5 89.3 L 79.4 82.7 L 79.48400373458863 77.49176797866821 L 71.2 80.2 L 61.6 83.0 L 52.8 85.3 L 44.8 86.9 L 37.6 87.9 L 31.0 88.2 L 25.0 87.9 L 25.07368936538696 87.36090383529663 L 21.0 86.1 L 17.2 83.5 L 14.5 79.3 L 13.8 74.5 L 14.7 70.1 L 16.5 66.2 L 19.0 62.3 L 22.3 58.2 L 26.2 53.8 L 36.3 63.5 L 32.9 67.3 L 30.4 70.5 L 28.7 73.0 L 28.363157939910888 73.75789470672608 L 30.3 74.0 L 30.291668128967284 74.16544723510742 L 31.0 74.2 L 36.2 74.0 L 42.4 73.1 L 49.7 71.6 L 57.9 69.5 L 67.0 66.9 L 77.0 63.5 L 81.88216972351074 61.75316867828369 L 82.1 60.9 L 83.8 56.5 L 86.1 52.6 L 88.9 49.2 L 92.4 46.5 L 98.07873439788818 55.63201875686646 L 99.7 55.0 L 108.72143535614013 51.34846668243408 L 108.6 51.0 L 120.7 47.0 L 131.8 44.0 L 142.0 41.8 L 151.1 40.6 L 159.4 40.4 Z M 77.4 15.5 L 81.7 17.3 L 86.4 19.0 L 91.3 20.3 L 96.4 21.4 L 101.9 22.3 L 107.6 22.9 L 113.7 23.2 L 120.0 23.2 L 126.6 23.0 L 127.3 36.9 L 120.2 37.2 L 113.3 37.2 L 106.6 36.8 L 100.1 36.2 L 93.9 35.2 L 87.9 33.9 L 82.2 32.3 L 76.7 30.4 L 71.4 28.1 L 66.4 25.5 L 73.3 13.3 Z " />
</g>
</svg>
