<svg xmlns="http://www.w3.org/2000/svg" xmlns:xlink="http://www.w3.org/1999/xlink" version="1.1" baseProfile="full" viewBox="0 0 200 200" width="200" height="200">
<g fill="black">
<path d="M 101.8 27.5 L 101.9 35.1 L 101.82529067993164 35.809738349914554 L 114.15031776428222 33.31142206192017 L 114.1 32.9 L 125.6 31.8 L 135.7 31.6 L 144.6 32.2 L 152.3 33.6 L 159.0 36.3 L 164.5 40.4 L 168.3 46.1 L 169.6 52.9 L 168.8 59.8 L 166.99515123367308 64.85357656478882 L 167.3 65.0 L 163.9 71.2 L 162.29560136795044 73.40604810714721 L 163.28688259124755 75.4447208404541 L 163.4 75.4 L 163.64525547027588 76.18175182342529 L 163.8 76.5 L 163.74851694107056 76.51089782714844 L 165.0 80.5 L 165.4 85.8 L 164.6 91.0 L 162.6 95.9 L 159.4 100.3 L 155.5 104.0 L 151.89068965911866 106.55659484863281 L 154.8 107.2 L 160.9 115.1 L 162.4 124.4 L 161.1 134.2 L 158.0 144.4 L 153.3 154.3 L 147.3 163.4 L 140.1 171.1 L 131.4 176.5 L 125.11711196899414 177.3457734107971 L 125.2 177.8 L 120.7 178.3 L 116.3 178.0 L 111.9 177.1 L 107.6 175.6 L 103.5 173.4 L 99.5 170.7 L 95.7 167.5 L 92.0 163.7 L 88.4 159.5 L 87.946861743927 158.90840282440186 L 81.3 165.1 L 73.4 171.4 L 65.0 176.9 L 55.9 181.8 L 49.8 169.2 L 57.8 164.9 L 65.3 160.0 L 72.2 154.5 L 78.6 148.5 L 84.5 141.9 L 89.9 134.7 L 94.7 126.9 L 95.54495210647583 125.30611295700074 L 88.7 126.5 L 80.1 128.1 L 71.3 129.9 L 63.12883529663086 131.66422872543336 L 63.1 131.9 L 62.58903875350952 131.78077573776244 L 62.5 131.8 L 62.490444374084475 131.75777034759523 L 60.1 131.2 L 57.1 129.5 L 54.6 126.6 L 53.4 123.2 L 53.3 120.0 L 53.9 117.1 L 54.8 114.4 L 56.1 111.7 L 57.7 108.9 L 59.6 105.9 L 71.2 113.7 L 69.80209007263184 115.93665590286255 L 77.4 114.4 L 86.3 112.7 L 95.0 111.2 L 102.71453247070312 109.94414587020874 L 102.9 109.5 L 103.08668222427369 108.97289724349976 L 102.2 108.5 L 100.8 107.9 L 99.5 107.5 L 98.2 107.2 L 97.1 107.0 L 96.0 107.0 L 96.0 93.0 L 98.4 93.1 L 100.9 93.4 L 103.4 94.0 L 105.8 94.9 L 108.2 95.9 L 110.5 97.1 L 112.9 98.5 L 115.1 100.1 L 117.4 101.8 L 119.6 103.7 L 119.39127569198608 103.93565645217896 L 119.6 104.0 L 118.30610637664795 107.80979804992675 L 120.7 107.5 L 129.0 106.5 L 129.26893453598024 106.4740785598755 L 127.9 102.0 L 134.0 99.9 L 139.2 97.7 L 143.4 95.4 L 146.7 93.2 L 148.9 91.0 L 150.4 89.0 L 151.1 87.2 L 151.4 85.3 L 151.34119691848755 84.68256721496581 L 150.2 85.6 L 144.6 89.0 L 138.5 91.5 L 132.0 93.3 L 125.1 94.3 L 117.8 94.5 L 110.88435325622558 94.04502325057983 L 110.8 94.3 L 110.32596683502197 94.00828733444214 L 110.2 94.0 L 110.20700569152832 93.93508043289185 L 101.7 88.7 L 98.9 78.6 L 103.2 70.5 L 110.2 64.9 L 119.0 60.6 L 128.8 57.9 L 139.2 57.1 L 149.5 59.2 L 153.06450538635255 61.73475933074951 L 153.94392518997194 60.11121492385864 L 155.2 56.5 L 155.6 53.2 L 155.3 51.4 L 154.4 50.1 L 152.4 48.6 L 148.6 47.1 L 142.9 46.1 L 135.5 45.6 L 126.4 45.8 L 117.1408522605896 46.673504543304446 L 117.2 47.0 L 103.0 49.9 L 99.70944538116456 50.729116153717044 L 97.4 57.1 L 96.26666669845581 59.6 L 94.0 64.7 L 92.92957744598388 66.6 L 90.2 71.7 L 85.9 78.2 L 81.2 84.3 L 81.16768579483032 84.33417844772339 L 83.9 86.6 L 88.3 89.3 L 93.2 91.3 L 88.7 104.6 L 82.0 101.8 L 75.8 98.0 L 71.08453607559204 94.11181049346924 L 70.3 94.8 L 64.2 99.2 L 57.6 103.1 L 51.890350914001466 105.8307017326355 L 51.5 106.3 L 51.285620021820066 106.11992082595825 L 50.7 106.4 L 50.187198066711424 105.1972463607788 L 49.0 104.2 L 44.2 100.0 L 41.9 97.8 L 37.5 93.4 L 35.3 91.1 L 33.2 88.8 L 29.2 84.2 L 29.27904644012451 84.13412799835206 L 29.0 84.1 L 30.9 76.4 L 34.6 69.4 L 39.9 63.0 L 46.5 57.3 L 49.7791971206665 55.168521881103516 L 48.0 48.2 L 46.2 38.0 L 60.0 35.9 L 61.7 45.3 L 62.45272159576416 48.2082426071167 L 63.9 47.5 L 74.5 43.4 L 86.6 39.6 L 87.4189531326294 39.39064359664917 L 87.9 34.5 L 87.8 28.4 L 87.1 22.1 L 100.8 19.8 Z M 146.5 119.0 L 130.5 120.4 L 114.1 122.4 L 112.59883317947387 122.61703615188598 L 111.8 124.5 L 106.9 133.9 L 101.4 142.6 L 97.28373985290527 148.13333330154418 L 99.3 150.8 L 102.3 154.2 L 105.2 157.2 L 108.0 159.6 L 110.7 161.4 L 113.3 162.8 L 115.7 163.7 L 118.1 164.2 L 120.4 164.3 L 122.7 164.1 L 122.80653171539306 164.68379402160645 L 122.9 164.0 L 126.3 163.5 L 131.0 160.4 L 136.2 154.9 L 141.1 147.5 L 144.9 139.3 L 147.4 131.2 L 148.4 124.3 L 147.8 120.0 L 147.2 119.0 L 146.49674968719484 118.95863237380982 Z M 49.8 72.8 L 46.3 77.1 L 44.50692481994629 80.45227108001708 L 45.6 81.6 L 47.5 83.6 L 49.5 85.7 L 53.35 89.36666669845582 L 56.5 87.5 L 61.6 83.8 L 61.961161041259764 83.47809562683105 L 60.5 81.4 L 56.6 74.2 L 54.323281574249265 68.9099778175354 Z M 131.3 71.6 L 123.9 73.7 L 117.6 76.8 L 113.5 80.0 L 113.43061676025391 80.08480176925659 L 113.70189571380615 80.2251184463501 L 118.1 80.5 L 123.9 80.3 L 129.2 79.6 L 134.0 78.3 L 138.3 76.5 L 142.2 74.1 L 144.48113203048706 72.32578620910644 L 144.3 72.2 L 138.5 71.1 Z M 79.1 56.6 L 69.5 60.3 L 66.56182508468628 61.78722429275513 L 69.2 68.1 L 71.92323236465454 73.12095956802368 L 74.1 70.4 L 78.1 64.4 L 80.61653547286987 60.03307085037231 L 81.5 58.4 L 82.798792552948 55.444127368927 Z " />
</g>
</svg>
