<svg xmlns="http://www.w3.org/2000/svg" xmlns:xlink="http://www.w3.org/1999/xlink" version="1.1" baseProfile="full" viewBox="0 0 200 200" width="200" height="200">
<g fill="black">
<path d="M 144.1 16.5 L 148.6 18.5 L 152.0 22.1 L 153.9 26.6 L 154.2 31.5 L 153.2 36.4 L 151.63000936508178 40.063311386108396 L 151.7 40.1 L 151.3181818008423 40.790909099578855 L 151.1 41.3 L 151.05145530700685 41.27355699539184 L 149.91524591445923 43.32955503463745 L 151.2 43.2 L 163.5 42.7 L 176.3 43.0 L 175.6 56.9 L 163.6 56.7 L 152.2 57.1 L 141.2 58.3 L 140.17313432693481 58.477726745605466 L 136.6 63.7 L 132.1 69.9 L 127.2 76.7 L 123.63272724151611 81.52242422103882 L 128.2 80.0 L 133.4 78.3 L 138.9 76.6 L 143.1 89.9 L 142.93565216064454 89.9517391204834 L 143.0 90.0 L 141.3 92.0 L 139.2 94.4 L 136.6 97.3 L 133.3 100.7 L 129.5 104.6 L 125.2 109.0 L 120.2 113.9 L 116.02705879211426 118.07294120788575 L 119.4 120.8 L 122.7 125.7 L 124.9 131.6 L 126.3 138.3 L 126.9707223892212 144.67186307907104 L 129.2 143.3 L 131.9 141.7 L 132.33831577301027 141.46623153686522 L 132.3 141.4 L 137.3 138.7 L 142.2 136.7 L 147.1 135.3 L 151.9 134.7 L 156.6 134.9 L 161.2 136.0 L 165.4 138.0 L 169.2 140.9 L 172.4 144.4 L 175.1 148.6 L 174.89704036712646 148.71055526733397 L 176.1 153.8 L 175.5 159.4 L 173.2 164.5 L 169.7 169.0 L 165.2 172.8 L 159.7 176.3 L 153.3 179.6 L 145.8 182.8 L 137.4 185.8 L 127.9 188.7 L 124.0 175.2 L 133.0 172.5 L 140.8 169.7 L 147.4 166.9 L 152.8 164.2 L 156.9 161.5 L 159.7 159.1 L 161.3 157.1 L 162.0 155.7 L 162.1 154.7 L 161.90975608825684 153.87560977935792 L 161.3 152.9 L 159.7 151.1 L 158.1 150.0 L 156.5 149.2 L 154.7 148.8 L 152.6 148.7 L 150.0 149.0 L 146.9 149.9 L 143.84161624908447 151.17432651519775 L 143.9 151.3 L 141.2 152.6 L 138.7 153.9 L 136.4 155.2 L 134.4 156.6 L 132.5 157.9 L 130.9 159.2 L 129.4 160.4 L 128.2 161.7 L 127.2 162.9 L 126.9486873626709 163.2071599006653 L 126.9 164.4 L 113.0 163.5 L 113.3 154.5 L 113.1 146.7 L 112.5 140.4 L 111.4 135.4 L 110.2 132.0 L 108.9 130.1 L 108.0 129.3 L 107.2 129.0 L 105.5 129.1 L 104.39618616104126 129.44256296157837 L 101.8 132.0 L 101.74806661605835 131.94592504501344 L 101.7 132.0 L 100.0 134.4 L 98.1 137.2 L 96.0 140.5 L 93.8 144.2 L 91.4 148.4 L 88.9 153.1 L 86.2 158.2 L 73.7 151.7 L 76.5 146.5 L 79.2 141.6 L 81.7 137.2 L 84.1 133.1 L 86.4 129.5 L 88.6 126.3 L 90.7 123.4 L 92.7 120.9 L 94.8 118.8 L 97.0 117.0 L 97.06349887847901 117.08466520309449 L 98.8 115.4 L 104.9 109.4 L 110.4 104.0 L 114.79047622680665 99.60952377319336 L 112.2 100.6 L 109.2 101.9 L 106.4 103.1 L 104.1 104.2 L 97.8 91.7 L 98.72651166915894 91.26983385086059 L 104.7 83.4 L 110.6 75.6 L 115.9 68.4 L 120.11180362701415 62.72695837020874 L 111.4 65.6 L 102.4 69.4 L 93.9 73.9 L 85.8 78.9 L 78.2 84.7 L 69.3 73.9 L 77.8 67.4 L 86.9 61.7 L 96.4 56.7 L 106.5 52.5 L 117.0 49.1 L 127.9 46.4 L 131.90583333969116 45.6972222328186 L 132.3 45.1 L 135.2 40.6 L 137.5 36.8 L 139.02448978424073 34.089795875549314 L 139.9 32.1 L 140.2 30.4 L 140.2 30.01666669845581 L 140.1 30.0 L 138.7 30.3 L 136.6 31.2 L 134.0 32.9 L 125.5 21.8 L 130.0 18.8 L 134.7 16.9 L 139.4 16.0 Z M 34.9 18.4 L 37.8 19.6 L 40.5 20.9 L 43.1 22.6 L 45.3 24.5 L 47.3 26.8 L 48.9 29.3 L 50.1 32.1 L 50.7 35.0 L 50.95558910369873 37.55589122772217 L 51.5 37.7 L 47.4 54.1 L 44.2 69.8 L 41.9 84.7 L 40.5 98.9 L 39.9 112.3 L 40.1 125.0 L 41.06967992782593 135.49017410278321 L 42.6 130.5 L 45.3 122.2 L 48.5 113.2 L 52.0 103.4 L 65.2 108.3 L 61.7 117.9 L 58.6 126.7 L 55.9 134.7 L 53.7 142.0 L 51.9 148.5 L 50.5 154.2 L 49.5 159.0 L 48.9 163.0 L 48.8 166.0 L 48.833098602294925 166.62887325286866 L 49.4 168.2 L 36.5 173.7 L 35.14649724960327 169.9778673171997 L 35.0 170.0 L 34.9753623008728 169.5072463989258 L 32.5 162.7 L 29.5 151.0 L 27.3 138.7 L 26.2 125.7 L 25.9 112.1 L 26.5 97.8 L 28.0 82.9 L 30.5 67.3 L 33.8 51.0 L 36.98652849197388 37.8652850151062 L 36.9 37.0 L 36.7 36.3 L 36.5 35.7 L 36.1 35.1 L 35.5 34.5 L 34.7 33.8 L 33.6 33.1 L 32.1 32.4 L 30.3 31.6 L 28.1 31.0 L 31.7 17.4 Z M 107.3 27.6 L 105.7 30.2 L 104.6 32.6 L 103.9 34.6 L 103.6 36.2 L 103.5 37.5 L 103.7 38.4 L 104.0 39.3 L 104.6 40.1 L 105.5 41.1 L 106.8 42.1 L 99.1 53.8 L 96.1 51.5 L 93.5 48.7 L 91.5 45.6 L 90.2 42.1 L 89.6 38.4 L 89.7 34.6 L 90.4 30.9 L 91.6 27.3 L 93.4 23.6 L 95.5 20.0 Z " />
</g>
</svg>
