<svg xmlns="http://www.w3.org/2000/svg" xmlns:xlink="http://www.w3.org/1999/xlink" version="1.1" baseProfile="full" viewBox="0 0 200 200" width="200" height="200">
<g fill="black">
<path d="M 127.0 22.6 L 125.7 25.5 L 124.3 28.4 L 122.8 31.4 L 121.2 34.5 L 119.4 37.6 L 117.6 40.9 L 115.6 44.2 L 114.64297590255737 45.72253828048706 L 115.2 46.4 L 118.3763578414917 50.72337589263916 L 129.1 52.0 L 126.9128270149231 65.21813230514526 L 128.3 67.9 L 131.1 74.2 L 133.8 80.7 L 136.3 87.7 L 138.6 94.9 L 138.31166553497314 94.98888502120971 L 138.9 94.9 L 139.6 125.4 L 136.25058012008668 137.3692503929138 L 144.0 138.9 L 153.3 139.8 L 163.8 140.0 L 164.1 153.9 L 152.5 153.7 L 142.0 152.7 L 132.4 150.8 L 132.07462520599364 150.69528169631957 L 119.9 167.4 L 103.0 178.1 L 84.3 181.4 L 65.8 177.4 L 49.9 165.9 L 39.0 147.4 L 34.8 122.7 L 38.9 92.1 L 39.033369636535646 92.13530368804932 L 43.9 82.7 L 49.9 74.4 L 56.8 67.2 L 64.7 61.2 L 73.5 56.6 L 83.1 53.2 L 93.5 51.1 L 100.46736011505126 50.53507890701294 L 97.7 47.6 L 97.76340208053588 47.536597919464114 L 97.1 47.1 L 99.4 43.6 L 101.6 40.2 L 103.6 36.9 L 105.5 33.8 L 107.3 30.7 L 108.9 27.8 L 110.4 24.9 L 111.8 22.2 L 113.0 19.6 L 114.1 17.1 Z M 86.8 66.7 L 79.1 69.4 L 72.2 73.0 L 66.1 77.7 L 60.6 83.3 L 55.9 90.0 L 52.37034683227539 96.63910961151123 L 48.8 122.5 L 52.1 142.6 L 60.3 156.4 L 71.5 164.6 L 84.5 167.4 L 98.0 165.0 L 110.3 157.2 L 118.78571424484252 145.54285717010498 L 116.1 144.2 L 109.5 139.3 L 104.1 133.4 L 100.0 126.5 L 97.4 118.8 L 96.0 110.5 L 96.30601091384888 110.47595624923706 L 97.0 107.7 L 97.8 104.9 L 98.6 102.3 L 99.6 99.8 L 99.89129886627197 99.16443881988525 L 98.2 98.5 L 95.7 97.1 L 93.4 95.5 L 91.3 93.6 L 89.4 91.5 L 87.9 89.1 L 86.8 86.5 L 86.2 83.8 L 86.00192308425903 81.02692308425904 L 85.6 80.9 L 87.4 76.1 L 89.8 71.6 L 92.7 67.6 L 95.12894945144653 64.95673151016236 Z M 110.9 70.4 L 108.1 72.2 L 105.6 74.2 L 103.5 76.4 L 101.7 79.0 L 100.2 81.9 L 100.09363632202148 82.1618182182312 L 100.1 82.2 L 100.3 82.7 L 100.6 83.2 L 101.1 83.8 L 101.9 84.4 L 102.9 85.1 L 104.3 85.8 L 106.0 86.6 L 107.78705635070801 87.22546968460082 L 108.0 87.0 L 117.9 96.9 L 116.9 98.0 L 115.9 99.2 L 115.0 100.5 L 114.1 102.0 L 113.3 103.5 L 112.5 105.2 L 111.8 107.1 L 111.1 109.1 L 110.5 111.2 L 110.38095235824585 111.72380952835083 L 111.0 115.5 L 112.8 120.7 L 115.4 125.1 L 118.9 128.9 L 123.35905294418335 132.16997213363646 L 125.7 123.7 L 125.03060388565063 98.16732120513916 L 123.1 92.2 L 120.7 85.8 L 118.3 79.7 L 115.7 74.0 L 113.3083565711975 69.30529251098633 Z " />
</g>
</svg>
