<svg xmlns="http://www.w3.org/2000/svg" xmlns:xlink="http://www.w3.org/1999/xlink" version="1.1" baseProfile="full" viewBox="0 0 200 200" width="200" height="200">
<g fill="black">
<path d="M 143.7 71.7 L 148.1 74.7 L 151.2 79.0 L 152.7 83.9 L 153.2 89.1 L 152.9 94.8 L 152.69846725463867 94.77535209655761 L 152.2 97.6 L 150.6 104.2 L 149.79555559158325 107.14962959289551 L 151.5 106.8 L 155.6 106.5 L 159.8 106.5 L 164.2 107.0 L 168.2521683692932 107.82885265350342 L 168.3 107.7 L 172.0 109.4 L 175.4 111.6 L 178.3 114.3 L 180.7 117.4 L 182.5 121.0 L 183.6 124.8 L 184.1 128.8 L 184.1 132.9 L 183.7 137.2 L 182.7 141.6 L 182.42764549255372 141.53342447280883 L 181.2 145.6 L 178.8 150.6 L 175.4 155.4 L 171.3 160.0 L 166.4 164.4 L 160.8 168.8 L 154.5 173.1 L 147.3 177.4 L 139.5 181.6 L 130.8 185.9 L 124.9 173.2 L 133.1 169.2 L 140.4 165.2 L 146.9 161.3 L 152.6 157.5 L 157.4 153.7 L 161.4 150.1 L 164.5 146.6 L 166.7 143.4 L 168.2 140.4 L 169.1 137.6 L 169.319410610199 137.6432415008545 L 169.8 135.0 L 170.2 132.1 L 170.2 129.7 L 169.9 127.7 L 169.4 126.1 L 168.8 124.8 L 167.9 123.7 L 166.8 122.7 L 165.4 121.7 L 164.5052631378174 121.34210529327393 L 162.0 120.9 L 158.9 120.5 L 156.1 120.5 L 153.6 120.7 L 151.3 121.1 L 149.3 121.8 L 147.4 122.8 L 145.7 124.0 L 144.0 125.4 L 142.5 127.2 L 140.90126342773436 125.97574224472046 L 129.9 121.2 L 131.2 118.3 L 133.4 112.5 L 135.4 106.7 L 136.2 103.7 L 137.1 100.7 L 138.5 94.7 L 139.06206893920898 91.88965520858764 L 139.2 89.2 L 139.0 86.5 L 138.5 85.0 L 138.3 84.6 L 138.1 84.5 L 137.3 84.3 L 135.3 84.4 L 132.1 85.0 L 128.0 86.5 L 123.0 88.8 L 116.7 76.2 L 122.7 73.5 L 128.3 71.6 L 133.6 70.5 L 138.7 70.4 Z M 63.5 24.4 L 64.2 34.9 L 64.0 46.8 L 63.61581506729126 51.41021900177002 L 69.1 50.0 L 76.3 47.4 L 83.7 44.1 L 91.4 39.9 L 98.5 52.0 L 90.0 56.6 L 81.5 60.4 L 73.2 63.4 L 65.0 65.5 L 62.0824312210083 65.9682518005371 L 60.9 74.6 L 58.1 90.6 L 56.27075061798096 99.20241584777833 L 56.6 98.8 L 64.9 91.0 L 74.6 84.3 L 74.62546129226685 84.34501848220825 L 74.5 84.0 L 79.3 82.6 L 84.1 81.9 L 88.8 82.0 L 93.3 83.2 L 97.4 85.5 L 100.7 88.8 L 103.3 92.7 L 105.1 97.2 L 105.74647579193115 100.02098531723023 L 105.9 100.0 L 106.04243640899658 101.31244983673096 L 106.2 102.0 L 106.9 107.4 L 106.70477743148804 107.41544923782348 L 107.3 112.9 L 107.6 124.7 L 107.0 135.6 L 105.3 145.4 L 102.4 154.3 L 98.3 162.2 L 93.0 168.8 L 86.4 174.2 L 78.8 178.1 L 70.61970148086547 180.50597019195556 L 70.6 180.9 L 65.3 180.2 L 60.3 178.4 L 56.0 175.2 L 52.9 170.9 L 51.1 166.0 L 50.5 160.6 L 50.8 155.0 L 52.0 148.9 L 53.9 142.4 L 55.39061584472656 138.38680353164673 L 55.4 138.3 L 56.5 134.8 L 58.2 131.5 L 60.3 128.2 L 62.9 124.9 L 65.9 121.4 L 69.4 117.9 L 73.4 114.1 L 77.8 110.2 L 82.8 106.1 L 91.6 117.0 L 86.9 120.9 L 82.8 124.5 L 79.2 127.9 L 76.1 131.0 L 73.6 133.8 L 71.7 136.4 L 70.3 138.5 L 69.4 140.2 L 69.31164379119873 140.46506853103637 L 69.4 140.5 L 69.0 141.6454545021057 L 69.0 142.0 L 68.87619047164917 142.0 L 67.2 146.8 L 65.6 152.2 L 64.7 156.8 L 64.5 160.4 L 64.8 162.9 L 65.3 164.5 L 65.9 165.3 L 66.8 166.0 L 68.5 166.6 L 68.58558950424194 166.6091703414917 L 73.7 165.1 L 78.8 162.5 L 83.0 159.0 L 86.6 154.6 L 89.5 149.0 L 91.7 142.1 L 93.1 134.0 L 93.6 124.6 L 93.3 113.9 L 92.12369842529297 103.0418312072754 L 91.7 101.4 L 90.8 99.1 L 89.9 97.6 L 89.0 96.7 L 88.1 96.2 L 86.8 95.9 L 85.0 95.8 L 82.5 96.2 L 81.46593885421753 96.52314414978028 L 73.7 101.8 L 66.9 108.3 L 60.8 115.8 L 55.5 123.9 L 51.0 132.4 L 47.2 141.0 L 44.1 149.4 L 41.5 157.1 L 39.4 164.1 L 37.7 169.9 L 24.2 166.0 L 25.9 160.2 L 30.8 143.4 L 36.2 123.4 L 40.7 104.9 L 44.3 87.9 L 47.1 72.4 L 47.81687850952149 67.1177375793457 L 41.0 66.6 L 33.3 65.2 L 25.9 62.9 L 18.6 59.6 L 25.0 47.2 L 30.8 49.8 L 36.7 51.6 L 42.8 52.7 L 49.0 53.2 L 49.42435655593872 53.180414295196535 L 50.0 46.1 L 50.2 35.3 L 49.6 26.2 L 48.2 18.7 L 61.7 15.2 Z " />
</g>
</svg>
