<svg xmlns="http://www.w3.org/2000/svg" xmlns:xlink="http://www.w3.org/1999/xlink" version="1.1" baseProfile="full" viewBox="0 0 200 200" width="200" height="200">
<g fill="black">
<path d="M 100.9 18.3 L 100.2 29.7 L 99.0 40.5 L 97.92460250854492 48.48866720199585 L 102.8 47.7 L 109.9 45.7 L 117.2 43.1 L 124.9 39.7 L 131.0 52.2 L 122.5 56.1 L 114.1 59.1 L 105.9 61.3 L 97.8 62.7 L 95.28221130371094 62.888834190368655 L 93.6 70.0 L 91.1 78.8 L 88.2 87.1 L 85.0 94.9 L 82.53235292434692 99.83529415130616 L 86.9 99.2 L 92.6 98.2 L 98.5 96.9 L 102.15785818099975 96.0464997291565 L 102.2 95.7 L 104.6 89.6 L 111.5 84.9 L 118.7 86.4 L 123.47704486846924 89.77203168869019 L 123.7 89.7 L 128.3 102.9 L 121.4 105.2 L 115.06840305328369 107.06223440170288 L 114.8 112.9 L 114.7 124.6 L 114.8 139.4 L 114.9 157.5 L 114.99738597869873 178.43797779083252 L 115.1 178.6 L 114.99839696884155 178.65534477233888 L 115.0 179.0 L 114.36567163467407 179.0 L 102.8 185.3 L 101.9 183.9 L 100.5 182.2 L 98.6 180.3 L 96.1 178.2 L 93.2 176.0 L 89.7 173.7 L 85.7 171.3 L 81.3 168.9 L 76.3 166.3 L 70.9 163.7 L 76.8 151.0 L 82.6 153.8 L 87.9 156.5 L 92.7 159.2 L 97.2 161.9 L 100.93186454772949 164.4190085411072 L 100.9 157.6 L 100.8 139.5 L 100.7 124.6 L 100.8 112.5 L 100.89330711364747 110.7458254814148 L 95.3 111.9 L 89.1 113.0 L 83.1 113.8 L 77.3 114.5 L 71.5 114.8 L 66.0 115.0 L 66.0 101.5576271057129 L 65.6 101.3 L 69.1 95.5 L 72.2 89.1 L 75.1 82.1 L 77.7 74.6 L 80.1 66.5 L 80.92078227996826 62.92959718704223 L 74.4 61.9 L 67.1 60.0 L 60.0 57.1 L 53.1 53.4 L 60.5 41.5 L 65.9 44.4 L 71.5 46.7 L 77.3 48.2 L 83.3 49.1 L 83.70519342422486 49.113070774078366 L 83.8 48.6 L 85.1 38.8 L 86.2 28.5 L 87.0 17.6 Z M 86.9 139.4 L 81.1 143.0 L 75.8 146.3 L 70.7 149.3 L 66.0 152.0 L 61.6 154.5 L 57.5 156.6 L 53.8 158.5 L 50.3 160.2 L 47.1 161.5 L 44.2 162.6 L 44.15349931716919 162.46256456375122 L 44.1 162.9 L 40.1 162.2 L 36.4 160.9 L 33.0 158.8 L 30.2 155.7 L 28.5 151.8 L 28.2 147.7 L 28.8 143.8 L 30.2 140.1 L 32.2 136.4 L 34.7 132.7 L 46.0 140.9 L 44.2 143.7 L 42.9 146.0 L 42.3 147.6 L 42.17142858505249 148.1785714149475 L 42.2 148.2 L 42.44860553741455 148.27649402618408 L 44.6 147.4 L 47.6 146.0 L 51.1 144.2 L 54.9 142.2 L 59.1 139.9 L 63.6 137.2 L 68.5 134.3 L 73.8 131.1 L 79.4 127.6 Z M 143.3 121.7 L 147.8 122.8 L 152.0 124.3 L 156.0 126.2 L 159.6 128.6 L 163.0 131.4 L 165.9 134.7 L 168.5 138.3 L 170.7 142.3 L 172.5 146.5 L 159.4 151.4 L 158.1 148.4 L 156.7 145.8 L 155.0 143.5 L 153.2 141.5 L 151.3 139.8 L 149.1 138.4 L 146.6 137.2 L 143.8 136.2 L 140.7 135.5 L 137.3 135.0 L 138.6 121.1 Z " />
</g>
</svg>
