<svg xmlns="http://www.w3.org/2000/svg" xmlns:xlink="http://www.w3.org/1999/xlink" version="1.1" baseProfile="full" viewBox="0 0 200 200" width="200" height="200">
<g fill="black">
<path d="M 97.8 28.2 L 97.2 35.4 L 96.3 42.6 L 95.83733682632446 45.298868560791014 L 102.4 45.1 L 108.7 44.3 L 114.4 43.0 L 119.7 41.2 L 124.6 38.8 L 131.3 51.1 L 125.0 54.1 L 118.2 56.5 L 111.1 58.1 L 103.5 59.0 L 95.6 59.3 L 92.71782178878784 59.159405899047854 L 91.5 63.3 L 89.2 70.0 L 86.5 76.6 L 84.43071460723877 80.87207298278808 L 87.0 80.9 L 95.7 82.3 L 103.6 85.1 L 110.6 89.3 L 116.7 94.8 L 121.6 101.6 L 125.4 109.4 L 128.1 118.3 L 129.55780305862427 126.23692770004273 L 129.9 126.2 L 130.2 132.7 L 129.7 139.0 L 128.3 145.0 L 126.0 150.7 L 123.0 156.0 L 119.1 160.9 L 114.5 165.4 L 109.2 169.3 L 103.2 172.9 L 96.6 176.0 L 96.48182878494262 175.72283477783202 L 93.4 176.7 L 89.1 177.3 L 84.8 177.0 L 80.5 176.1 L 76.4 174.5 L 72.4 172.3 L 68.5 169.5 L 64.7 166.2 L 60.9 162.5 L 57.2 158.2 L 68.0 149.3 L 71.2 152.9 L 74.2 156.0 L 77.1 158.5 L 79.8 160.4 L 82.3 161.8 L 84.6 162.7 L 86.7 163.2 L 88.6 163.3 L 90.5 163.0 L 92.38224296569824 162.50467290878296 L 96.7 160.5 L 101.4 157.7 L 105.4 154.7 L 108.8 151.5 L 111.4 148.2 L 113.4 144.6 L 114.9 140.9 L 115.8 136.9 L 116.2 132.5 L 116.08705635070801 129.78935279846192 L 116.0 129.8 L 114.5 121.5 L 112.4 114.5 L 109.6 108.8 L 106.2 104.1 L 102.3 100.5 L 97.7 97.8 L 92.3 95.9 L 85.9 94.9 L 78.5 94.8 L 70.1 95.7 L 67.8 81.9 L 68.2413408279419 81.85145254135132 L 70.9 76.8 L 73.7 70.9 L 76.1 65.0 L 78.2 59.0 L 78.54770717620849 57.75234470367432 L 69.8 56.1 L 60.4 53.8 L 50.7 50.9 L 55.1 37.6 L 64.2 40.3 L 72.8 42.5 L 80.9 44.0 L 81.85200004577636 44.111272716522215 L 82.5 40.4 L 83.3 34.1 L 83.8 27.6 L 84.0 21.0 L 98.0 21.0 Z M 73.1 129.8 L 69.0 135.2 L 64.6 140.1 L 60.0 144.4 L 55.1 148.2 L 50.0 151.5 L 44.6 154.2 L 39.0 156.3 L 33.1 157.8 L 27.1 158.7 L 21.0 159.0 L 20.9 145.0 L 25.8 144.7 L 30.4 144.0 L 34.8 142.9 L 39.0 141.3 L 43.1 139.3 L 47.1 136.8 L 50.9 133.8 L 54.6 130.3 L 58.2 126.3 L 61.6 121.7 Z M 150.0 109.9 L 154.2 111.8 L 158.1 114.2 L 161.8 117.1 L 165.3 120.5 L 168.5 124.2 L 171.5 128.4 L 174.3 132.9 L 177.0 137.9 L 179.4 143.2 L 166.5 148.7 L 164.4 144.0 L 162.2 139.9 L 159.9 136.2 L 157.5 132.9 L 155.1 130.1 L 152.6 127.7 L 150.1 125.7 L 147.5 124.1 L 144.9 122.9 L 142.1 122.0 L 145.7 108.4 Z " />
</g>
</svg>
