<svg xmlns="http://www.w3.org/2000/svg" xmlns:xlink="http://www.w3.org/1999/xlink" version="1.1" baseProfile="full" viewBox="0 0 200 200" width="200" height="200">
<g fill="black">
<path d="M 81.0 20.2 L 86.1 27.4 L 91.8 35.9 L 93.64059772491456 38.93698625564575 L 97.6 37.9 L 105.0 36.3 L 111.5 35.4 L 117.2 35.1 L 122.3 35.8 L 127.2 38.0 L 131.0 42.8 L 131.78495111465455 48.4908953666687 L 131.9 48.5 L 131.34838705062867 50.21290321350098 L 130.4 53.6 L 130.27426319122316 53.54834070205688 L 130.0 54.4 L 126.5 59.4 L 121.5 64.7 L 115.0 70.7 L 112.99827003479004 72.35997114181518 L 119.1 83.6 L 119.17048454284668 83.73568277359009 L 122.3 83.1 L 128.4 82.0 L 131.8193510055542 81.4104567527771 L 130.8 80.7 L 127.9 78.1 L 125.3 75.2 L 135.9 66.2 L 137.7 68.1 L 139.6 69.8 L 141.8 71.4 L 144.3 72.9 L 147.0 74.3 L 150.0 75.5 L 153.3 76.6 L 156.9 77.6 L 160.7 78.4 L 164.9 79.0 L 163.95 85.95 L 163.6 92.9 L 163.0021505355835 92.88426713943481 L 163.0 92.9 L 162.8875 92.88125 L 159.8 92.8 L 155.7 92.9 L 151.3 93.1 L 146.6 93.5 L 141.6 94.1 L 136.3 94.8 L 130.8 95.7 L 125.87130041122437 96.63475332260131 L 127.1 99.0 L 128.6322380065918 101.99320917129516 L 131.1 101.2 L 136.3 100.1 L 141.1 99.7 L 145.8 100.3 L 150.3 102.3 L 153.9 106.1 L 155.5 110.9 L 155.4 115.7 L 154.5436611175537 118.98263235092163 L 154.6 119.0 L 154.44193544387818 119.3725806236267 L 154.2 120.3 L 152.2 125.1 L 152.0452166557312 125.02198925018311 L 151.8 125.6 L 147.6 132.0 L 145.64329280853272 134.31906042098998 L 149.5 141.7 L 154.6 151.5 L 158.9 160.1 L 162.5 167.4 L 165.4 173.4 L 167.4 178.4 L 154.5 183.5 L 154.080504322052 182.55061502456664 L 154.0 182.6 L 152.8 181.1 L 150.9 179.4 L 148.2 177.5 L 144.6 175.5 L 140.2 173.5 L 135.0 171.5 L 129.1 169.5 L 122.3 167.6 L 114.8 165.8 L 108.49030208587646 164.41494436264037 L 107.6 165.0 L 95.7 172.0 L 82.5 179.3 L 68.0 186.8 L 61.7 174.2 L 75.9 166.9 L 88.7 159.9 L 100.2 153.1 L 110.2 146.5 L 118.9 140.3 L 126.2 134.3 L 128.2837649345398 132.32401609420776 L 123.2 122.1 L 122.55893850326538 120.84050283432006 L 121.69464063644409 119.24214372634887 L 115.8 121.6 L 108.5 125.1 L 101.2 129.1 L 94.1 133.5 L 87.1 138.4 L 80.3 143.7 L 73.5 149.6 L 66.9 155.9 L 66.5365385055542 155.5365385055542 L 53.1 152.3 L 53.7 149.6 L 53.9 146.9 L 54.0 144.4 L 53.8 141.9 L 53.3 139.5 L 52.6 137.2 L 51.7 135.0 L 50.5 132.7 L 49.0 130.5 L 47.3 128.3 L 57.9 119.2 L 60.4 122.3 L 62.6 125.6 L 64.4 129.0 L 65.8 132.6 L 66.9 136.2 L 66.99275274276734 136.7035147666931 L 71.4 132.9 L 78.8 127.1 L 86.4 121.8 L 94.2 117.0 L 102.1 112.6 L 110.2 108.8 L 114.9681318283081 106.88111763000488 L 111.54113159179687 100.65400743484497 L 107.5 101.8 L 95.2 105.4 L 84.1 108.7 L 74.2 111.8 L 65.4 114.7 L 57.8 117.3 L 51.4 119.6 L 46.2 121.7 L 42.2 123.5 L 39.6 124.9 L 32.3 113.0 L 32.928668117523195 112.64318838119507 L 32.9 112.6 L 49.4 101.6 L 64.2 91.4 L 77.2 82.2 L 88.5 74.0 L 95.03286743164062 68.9112401008606 L 92.3 64.0 L 87.19060773849488 55.35333614349365 L 86.09023103713989 55.67982158660889 L 86.1 55.7 L 81.0 58.0 L 76.0 59.9 L 71.1 61.5 L 66.3 62.8 L 61.6 63.7 L 56.9 64.3 L 52.3 64.5 L 47.8 64.3 L 43.4 63.7 L 39.1 62.7 L 42.8 49.2 L 45.8 49.9 L 49.0 50.3 L 52.3 50.5 L 55.8 50.3 L 59.4 49.9 L 63.2 49.2 L 67.1 48.1 L 71.3 46.8 L 75.6 45.1 L 79.77162628173828 43.203806209564206 L 74.6 35.3 L 69.8 28.7 L 65.7 23.6 L 76.2 14.3 Z M 127.4 151.4 L 124.23130197525025 153.6828254699707 L 125.9 154.1 L 133.1 156.1 L 139.7 158.3 L 143.0061224937439 159.51224489212035 L 142.2 157.9 L 137.1 148.2 L 135.3719967842102 144.92275257110595 Z M 138.57333335876464 113.88666667938233 L 138.6 114.0 L 135.246723651886 114.91452989578247 L 135.7 115.8 L 135.77151279449464 115.94223966598511 L 137.0 118.2 L 138.3509243965149 120.70021839141846 L 139.5 118.9 L 141.1043478012085 115.33478260040283 L 141.55913982391357 113.74301071166992 L 141.0 113.7 Z M 96.9 85.1 L 85.4 93.6 L 85.21365222930908 93.73129043579101 L 91.3 91.9 L 103.6 88.3 L 104.59598054885865 88.01964988708497 L 101.18484783172607 81.81062183380126 Z M 112.9 49.3 L 107.5 50.1 L 101.13015871047973 51.45117845535278 L 104.4 57.0 L 106.06599216461181 59.95654954910278 L 111.7 54.8 L 115.7 50.4 L 116.67397260665894 49.101369857788086 Z " />
</g>
</svg>
