<svg xmlns="http://www.w3.org/2000/svg" xmlns:xlink="http://www.w3.org/1999/xlink" version="1.1" baseProfile="full" viewBox="0 0 200 200" width="200" height="200">
<g fill="black">
<path d="M 78.6 16.8 L 82.2 18.5 L 85.5 20.5 L 88.5 22.8 L 91.3 25.5 L 93.8 28.5 L 96.0 31.8 L 97.8 35.3 L 99.4 39.1 L 100.53771057128907 42.600647926330566 L 100.8 42.9 L 100.67980718612671 43.03786821365357 L 100.7 43.1 L 100.60229597091674 43.12677812576294 L 97.4 46.8 L 93.9 52.5 L 90.7 59.6 L 87.6 67.5 L 84.6 76.0 L 81.5 84.6 L 78.2 92.9 L 77.32337245941162 94.77171821594239 L 83.0 93.3 L 92.0 91.5 L 99.4 90.7 L 105.6 90.9 L 111.4 92.9 L 115.4 100.3 L 113.2 106.8 L 109.2 111.0 L 103.94719104766845 114.72471914291381 L 103.3 115.3 L 99.7 118.8 L 96.1 122.5 L 92.5 126.5 L 88.9 130.7 L 85.4 135.1 L 81.8 139.8 L 78.3 144.7 L 74.82685422897339 149.76086959838867 L 70.8 158.5 L 70.4 162.9 L 71.0 163.8 L 75.1 165.2 L 83.1 165.9 L 93.8 165.7 L 105.9 165.0 L 118.7 164.5 L 131.6 165.0 L 143.9 167.2 L 140.0 180.7 L 130.3 178.9 L 118.9 178.5 L 106.7 179.0 L 94.5 179.7 L 82.9 179.9 L 72.4 179.0 L 63.0 175.3 L 56.8 166.3 L 57.4 154.6 L 63.4 141.3 L 63.57145481109619 141.39918870925902 L 66.8 136.6 L 70.6 131.5 L 74.3 126.5 L 78.2 121.7 L 82.0 117.2 L 85.9 113.0 L 89.8 108.9 L 93.42666664123536 105.4546667098999 L 86.2 106.9 L 76.1 109.5 L 64.67321653366089 113.1184814453125 L 64.2 113.6 L 55.8 102.4 L 58.9 99.2 L 62.2 94.1 L 65.3 87.4 L 68.4 79.7 L 71.4 71.3 L 74.5 62.7 L 77.8 54.2 L 81.5 46.1 L 84.83202743530273 40.62066602706909 L 83.9 38.9 L 82.6 36.8 L 81.1 35.0 L 79.4 33.4 L 77.6 32.0 L 75.6 30.8 L 73.4 29.8 L 70.9 28.9 L 74.9 15.5 Z M 101.8 54.1 L 106.3 55.2 L 110.8 56.1 L 115.2 56.6 L 119.5 56.8 L 123.8 56.7 L 128.1 56.3 L 132.3 55.6 L 136.5 54.6 L 140.7 53.3 L 145.2 66.6 L 140.2 68.1 L 135.0 69.3 L 129.8 70.2 L 124.6 70.7 L 119.3 70.8 L 114.0 70.5 L 108.7 69.9 L 103.4 68.9 L 98.0 67.6 L 92.6 65.9 L 97.2 52.7 Z " />
</g>
</svg>
