<svg xmlns="http://www.w3.org/2000/svg" xmlns:xlink="http://www.w3.org/1999/xlink" version="1.1" baseProfile="full" viewBox="0 0 200 200" width="200" height="200">
<g fill="black">
<path d="M 116.7 25.8 L 113.3 27.4 L 110.6 29.0 L 108.3 30.8 L 106.6 32.6 L 105.3 34.5 L 104.3 36.6 L 103.7 38.9 L 103.3 41.4 L 103.4 44.3 L 103.73174943923951 47.0369330406189 L 104.0 47.0 L 105.9 57.5 L 108.3 67.4 L 111.5 76.5 L 115.2 85.0 L 119.6 92.7 L 124.7 99.8 L 130.3 106.2 L 136.6 112.0 L 143.6 117.2 L 150.8755905151367 121.54645671844483 L 151.0 121.6 L 150.99224472045898 121.61614618301391 L 151.3 121.8 L 147.95 127.95 L 144.9 134.3 L 137.9 131.2 L 131.1 128.9 L 124.4 127.3 L 117.7 126.4 L 110.9 126.4 L 103.9 127.2 L 96.5 128.9 L 88.7 131.6 L 80.4 135.4 L 71.70895519256592 140.22835817337037 L 69.1 142.1 L 65.6 145.0 L 63.3 147.5 L 62.0 149.5 L 61.6 150.7 L 61.6 151.3 L 61.9 152.1 L 62.9 153.4 L 65.1 155.2 L 67.7430136680603 156.88191776275636 L 67.8 156.8 L 71.9 159.4 L 76.6 161.8 L 81.8 163.9 L 87.5 165.9 L 93.8 167.5 L 100.6 169.0 L 107.9 170.1 L 115.8 171.0 L 124.2 171.6 L 133.1 172.0 L 132.8 185.9 L 123.4 185.6 L 114.5 184.9 L 106.0 184.0 L 98.1 182.7 L 90.5 181.2 L 83.5 179.3 L 76.9 177.0 L 70.7 174.5 L 65.0 171.6 L 61.738143348693846 169.52997560501097 L 61.7 169.6 L 56.8 166.6 L 52.8 163.1 L 49.7 158.8 L 47.9 153.8 L 47.8 148.5 L 49.4 143.5 L 52.2 139.0 L 56.0 134.9 L 60.6 130.9 L 64.22436552047729 128.44060916900634 L 64.2 128.4 L 64.64799995422364 128.15314283370972 L 66.2 127.1 L 66.2937741279602 127.24628772735596 L 74.0 123.0 L 83.5 118.6 L 92.6 115.5 L 101.5 113.4 L 110.2 112.4 L 117.20451736450195 112.48240604400635 L 113.7 108.5 L 107.8 100.2 L 102.8 91.3 L 98.5 81.6 L 94.9 71.4 L 92.2 60.5 L 90.43016061782836 50.23493185043335 L 90.1 50.3 L 89.4 45.4 L 89.4 40.7 L 89.9 36.1 L 91.2 31.7 L 93.2 27.5 L 95.7 23.8 L 98.9 20.4 L 102.6 17.5 L 106.8 15.0 L 111.4 12.8 Z " />
</g>
</svg>
