<svg xmlns="http://www.w3.org/2000/svg" xmlns:xlink="http://www.w3.org/1999/xlink" version="1.1" baseProfile="full" viewBox="0 0 200 200" width="200" height="200">
<g fill="black">
<path d="M 145.4 48.1 L 152.0 49.3 L 157.9 51.5 L 163.2 54.6 L 167.5 58.7 L 170.8 63.8 L 172.9 69.5 L 173.9 75.8 L 173.9 78.7035714149475 L 174.0 78.7 L 173.9 79.91999998092652 L 173.9 82.4 L 173.69779443740845 82.38690757751465 L 173.5 84.8 L 171.5 90.7 L 168.2 96.0 L 163.8 100.8 L 158.4 105.0 L 152.0 108.8 L 144.6 112.2 L 136.2 115.3 L 126.9 118.2 L 122.54536085128784 119.28865976333618 L 125.7 120.2 L 131.2 121.2 L 137.5 122.0 L 136.4 135.9 L 136.2944214820862 135.88842973709106 L 136.3 136.0 L 129.4 136.5 L 123.2 137.3 L 117.7 138.4 L 112.9 139.8 L 108.8 141.3 L 105.5 143.1 L 102.9 144.9 L 101.05352115631104 146.84366197586058 L 100.96216220855713 146.95405406951903 L 99.6 148.9 L 98.6 151.2 L 98.53574876785278 151.17826089859008 L 98.5 151.5 L 98.8 152.0 L 100.3 153.1 L 104.2 154.5 L 110.7 155.2 L 119.8 154.8 L 131.6 152.9 L 146.0 149.2 L 149.9 162.7 L 134.5 166.6 L 121.3 168.7 L 110.3 169.2 L 101.1 168.1 L 93.7 165.4 L 87.9 160.8 L 84.8 154.2 L 85.0 147.2 L 87.8 140.9 L 90.0622950553894 138.24426231384277 L 90.3 137.9 L 90.74628095626831 137.44132232666016 L 92.4 135.5 L 92.51561460494995 135.62284049987792 L 93.9 134.2 L 98.2 131.2 L 103.1 128.6 L 106.80024213790894 127.16101694107056 L 106.7 127.1 L 102.8 123.5 L 99.9 119.2 L 98.0 114.2 L 97.4 109.0 L 97.9 103.7 L 111.7 106.2 L 111.4 108.9 L 111.6 111.0 L 112.3 112.7 L 113.3 114.2 L 115.1 115.8 L 115.41206779479981 115.99204177856446 L 113.4 107.1 L 123.2 104.7 L 131.8 102.1 L 139.2 99.3 L 145.5 96.4 L 150.6 93.4 L 154.4 90.4 L 157.2 87.5 L 158.9 84.7 L 159.8 82.0 L 160.0 79.2 L 160.0 76.8 L 159.4 73.0 L 158.3 70.0 L 156.8 67.7 L 154.7 65.8 L 152.0 64.1 L 148.3 62.8 L 143.7 62.0 L 138.1 61.6 L 132.19885730743408 61.86823377609253 L 132.2 61.9 L 123.9 62.6 L 116.6 64.0 L 110.4 65.8 L 104.9 68.1 L 100.0 70.6 L 95.7 73.3 L 91.7 76.1 L 87.8 78.8 L 84.0 81.4 L 80.0 83.8 L 80.0 84.0 L 76.7 83.7 L 73.6 82.9 L 70.7 81.6 L 68.0 79.8 L 65.7 77.5 L 63.8 74.9 L 62.2 72.1 L 61.0 69.0 L 60.0 65.7 L 59.2 62.2 L 73.0 59.7 L 73.6 62.3 L 74.2 64.4 L 74.9 66.1 L 75.6 67.4 L 76.3 68.4 L 76.9 69.0 L 77.15777778625488 69.17185182571411 L 79.7 67.4 L 83.5 64.7 L 88.0 61.6 L 93.1 58.4 L 99.0 55.4 L 105.7 52.6 L 113.4 50.3 L 122.0 48.7 L 130.4151424407959 48.09272165298462 L 130.4 47.9 L 138.2 47.6 Z M 49.7 66.2 L 48.3 75.4 L 47.4 84.3 L 47.2 92.7 L 47.5 100.7 L 48.3 108.4 L 49.7 115.7 L 51.7 122.5 L 54.2 129.0 L 57.2 135.2 L 60.7 141.0 L 49.2 148.9 L 44.9 141.9 L 41.3 134.6 L 38.4 126.9 L 36.1 118.9 L 34.5 110.5 L 33.5 101.8 L 33.2 92.7 L 33.5 83.4 L 34.4 73.7 L 35.9 63.7 Z " />
</g>
</svg>
