<svg xmlns="http://www.w3.org/2000/svg" xmlns:xlink="http://www.w3.org/1999/xlink" version="1.1" baseProfile="full" viewBox="0 0 200 200" width="200" height="200">
<g fill="black">
<path d="M 75.6 20.5 L 83.3 26.4 L 83.07211189270019 26.61886281967163 L 85.2 28.6 L 87.7 31.4 L 89.8 34.5 L 91.5 37.7 L 92.6 41.1 L 93.3 44.7 L 93.4 48.3 L 92.9 51.9 L 91.95165824890137 55.21919593811035 L 92.1 55.3 L 88.8 59.6 L 84.7 62.8 L 79.9 65.3 L 74.7 67.1 L 69.1 68.3 L 63.2 68.8 L 57.1 68.5 L 51.1 67.1 L 48.681648349761964 66.05760698318481 L 47.9 69.3 L 46.0 81.8 L 45.16959371566772 91.91585845947266 L 45.70861701965332 91.94756574630738 L 45.7 91.9 L 54.6 91.0 L 63.0 91.9 L 70.8 94.5 L 71.51382236480713 94.96877889633178 L 74.2 91.4 L 81.3 81.8 L 92.6 90.1 L 85.4 99.8 L 82.15465440750123 104.1580355644226 L 82.9 105.0 L 86.7 112.5 L 89.1 121.1 L 90.1 130.8 L 89.6 141.6 L 88.2686939239502 150.32745122909546 L 88.6 150.4 L 87.93578338623047 152.50986461639405 L 87.8 153.4 L 87.66457986831665 153.37133445739747 L 85.2 161.2 L 80.4 170.2 L 74.4 177.2 L 67.2 182.1 L 59.1 184.5 L 50.7 184.0 L 42.8 180.4 L 36.2 174.1 L 32.16674184799194 167.55546789169313 L 26.9 173.7 L 26.852266597747803 173.65902128219605 L 26.9 174.2 L 13.0 175.7 L 12.6 171.7 L 12.5 167.7 L 12.5 163.9 L 12.7 160.2 L 13.2 156.7 L 13.8 153.2 L 14.6 149.8 L 15.6 146.6 L 16.9 143.5 L 18.3 140.5 L 30.6 147.1 L 30.246889972686766 147.92392349243164 L 34.4 142.9 L 40.7 135.1 L 47.1 126.9 L 53.7 118.5 L 60.4 109.8 L 62.87272729873657 106.49090909957886 L 60.2 105.6 L 54.7 105.0 L 50.0 105.5061538696289 L 50.0 106.0 L 46.6 106.0 L 44.9 105.9 L 43.1 106.0 L 31.0 106.0 L 31.0 92.0 L 31.203424644470214 92.0 L 32.1 80.1 L 34.2 66.6 L 37.2 54.2 L 41.0 43.3 L 45.6 33.9 L 51.2 26.3 L 58.1 20.8 L 66.7 18.5 Z M 141.2 18.3 L 145.7 19.5 L 150.2 22.5 L 152.7 28.6 L 151.3 34.5 L 149.63269233703613 36.65769233703613 L 148.3 39.0 L 144.9 44.8 L 141.3 50.7 L 137.6 56.6 L 135.8589147567749 59.211627864837645 L 138.1 58.3 L 144.0 56.4 L 149.9 55.0 L 155.9 54.2 L 156.61382980346679 54.176595783233644 L 156.6 53.9 L 161.1 53.9 L 161.74931507110597 54.008219146728514 L 162.0 54.0 L 162.0 54.05 L 165.3 54.6 L 169.4 55.9 L 173.1 57.9 L 176.3 60.6 L 178.9 64.0 L 180.7 67.8 L 182.0 71.9 L 182.7 76.3 L 182.82241821289062 78.21788597106934 L 183.0 78.2 L 183.1 83.2 L 182.3 88.0 L 180.7 92.5 L 178.2 96.7 L 175.0 100.6 L 171.2 104.0 L 166.8 107.1 L 161.8 109.9 L 156.3 112.3 L 150.2 114.6 L 149.24224529266357 111.7693027496338 L 148.4 115.1 L 145.5 123.5 L 141.9 131.8 L 137.6 139.9 L 134.42501230239867 145.08365335464478 L 139.2 144.9 L 147.0 146.3 L 154.6 149.1 L 162.2 153.3 L 169.6 158.7 L 177.0 165.4 L 184.3 173.4 L 173.6 182.5 L 167.0 175.3 L 160.7 169.5 L 154.6 165.0 L 148.8 161.8 L 143.3 159.8 L 138.2 158.9 L 133.2 159.0 L 128.3 160.2 L 123.2 162.4 L 118.69659662246704 165.43113689422609 L 114.0 170.4 L 106.5 177.5 L 98.3 184.4 L 89.6 173.5 L 97.2 167.1 L 104.1 160.5 L 110.4 153.8 L 116.1 147.0 L 121.1 140.0 L 125.5 133.0 L 129.3 125.8 L 132.4 118.5 L 135.0 111.0 L 135.9752851486206 107.15019006729126 L 135.9 107.1 L 135.2 106.8 L 134.2 106.5 L 132.7 106.5 L 130.7 106.7 L 128.2 107.2 L 125.3 108.2 L 120.5 95.0 L 124.5 93.7 L 128.4 92.9 L 132.2 92.5 L 136.0 92.6 L 139.6 93.5 L 143.1 95.0 L 146.1 97.3 L 148.5 100.2 L 148.54592418670654 100.27976303100586 L 151.0 99.4 L 155.5 97.3 L 159.4 95.2 L 162.5 93.0 L 164.9 90.8 L 166.7 88.7 L 168.0 86.6 L 168.8 84.4 L 169.1 82.2 L 169.1 81.0 L 169.0 81.0 L 168.8 77.7 L 168.4 75.0 L 167.7 72.9 L 167.0 71.4 L 166.1 70.3 L 165.1 69.4 L 163.9 68.8 L 162.2 68.2 L 161.0709677696228 68.03870964050293 L 157.2 68.2 L 152.4 68.8 L 147.7 69.9 L 142.9 71.4 L 138.0 73.4 L 133.2 75.8 L 128.3 78.8 L 123.4 82.2 L 118.4 86.0 L 114.24008092880248 89.66072874069214 L 111.5 93.2 L 100.4 84.7 L 103.92411623001098 80.12614707946777 L 103.9 80.1 L 104.0303448677063 79.98827590942383 L 105.1 78.6 L 109.6 72.5 L 113.9 66.5 L 118.0 60.6 L 122.0 54.8 L 125.8 49.0 L 129.5 43.3 L 132.9 37.6 L 136.0727710723877 32.21590356826782 L 133.8 32.5 L 130.0 33.3 L 126.1 34.7 L 122.3 36.6 L 115.4 24.4 L 120.8 21.7 L 126.2 19.9 L 131.4 18.7 L 136.5 18.1 Z M 71.5 118.3 L 64.8 127.1 L 58.1 135.6 L 51.6 143.8 L 45.2 151.7 L 42.159235668182376 155.47643308639528 L 43.6 159.6 L 47.1 165.4 L 50.7 168.8 L 54.2 170.4 L 57.5 170.6 L 61.1 169.5 L 65.0 166.9 L 68.8 162.3 L 72.3 155.8 L 74.26071968078614 149.4653673171997 L 75.7 140.2 L 76.1 131.2 L 75.3 123.6 L 73.7 117.5 L 73.05050392150879 116.25513248443603 Z M 64.7 33.1 L 61.4 35.8 L 57.6 41.1 L 53.9 48.6 L 52.516676139831546 52.58229579925537 L 55.3 53.8 L 59.0 54.6 L 63.0 54.8 L 67.0 54.5 L 70.9 53.7 L 74.4 52.4 L 77.2 51.0 L 79.0 49.5 L 79.07912092208862 49.41098899841309 L 79.2 49.0 L 79.4 47.5 L 79.3 46.1 L 79.1 44.7 L 78.6 43.2 L 77.8 41.7 L 76.7 40.1 L 75.1 38.3 L 73.2 36.5 L 70.8 34.6 L 70.98352003097534 34.35014743804932 L 69.4 33.1 L 67.0 32.5 Z " />
</g>
</svg>
