<svg xmlns="http://www.w3.org/2000/svg" xmlns:xlink="http://www.w3.org/1999/xlink" version="1.1" baseProfile="full" viewBox="0 0 200 200" width="200" height="200">
<g fill="black">
<path d="M 70.8 34.9 L 73.0 50.4 L 73.93075933456421 58.518289947509764 L 74.0 58.5 L 79.0 56.5 L 83.9 53.9 L 88.6 50.5 L 97.3 61.4 L 91.4 65.7 L 85.0 69.2 L 78.3 71.8 L 75.29249868392944 72.58456554412842 L 76.0 81.9 L 76.50328493118286 93.47555389404297 L 80.8 89.1 L 92.5 76.7 L 104.06810131072999 64.12198505401611 L 103.9 64.0 L 116.4 48.8 L 128.4 38.5 L 139.9 32.7 L 150.9 31.2 L 160.8 34.1 L 168.3 40.5 L 173.0 49.0 L 175.2 58.7 L 175.1 69.0 L 173.65320625305176 74.7871750831604 L 173.7 74.8 L 173.37272729873658 75.90909090042115 L 172.5 79.4 L 172.35826663970948 79.34698524475098 L 170.1 87.0 L 167.1 95.6 L 164.1 101.6 L 159.2 106.2 L 151.9 106.8 L 147.6 104.6 L 144.6 102.4 L 141.8 100.7 L 138.8 99.4 L 136.13432836532593 99.11940298080444 L 132.7 100.0 L 129.2 102.5 L 125.9 106.7 L 123.0 112.5 L 120.8 119.8 L 119.5 128.3 L 119.3 137.7 L 120.12054920196533 146.81721286773683 L 120.9 145.7 L 124.6 141.9 L 128.8 138.8 L 133.5 136.4 L 138.5 134.6 L 144.0 133.5 L 148.0 133.14912281036376 L 148.0 133.0 L 149.01760559082032 133.05985918045045 L 149.7 133.0 L 149.7035789489746 133.10021057128907 L 153.1 133.3 L 157.9 134.3 L 162.5 136.0 L 166.6 138.4 L 170.2 141.6 L 173.3 145.4 L 175.8 149.7 L 177.6 154.4 L 179.0 159.6 L 179.9 165.1 L 166.0 166.8 L 165.3 162.4 L 164.3 158.8 L 163.1 155.7 L 161.7 153.2 L 160.2 151.3 L 158.4 149.8 L 156.4 148.6 L 154.1 147.7 L 151.3 147.2 L 149.3444444656372 147.0814814567566 L 146.0 147.4 L 142.2 148.1 L 139.0 149.2 L 136.2 150.7 L 133.8 152.5 L 131.7 154.7 L 129.8 157.3 L 128.2 160.4 L 126.9 164.0 L 125.8 168.3 L 125.41229314804077 168.22359066009523 L 125.5 168.5 L 112.4 173.4 L 108.6 161.5 L 106.3 149.7 L 105.3 138.2 L 105.6 127.1 L 107.1 116.8 L 109.9 107.5 L 114.0 99.2 L 119.6 92.3 L 126.8 87.4 L 135.0 85.1811764717102 L 135.0 85.0 L 142.4 85.9 L 148.4 88.3 L 152.7 91.0 L 153.5713433265686 91.62238807678223 L 154.2 90.4 L 156.8 82.8 L 160.2 71.1 L 160.2359281539917 71.1098469734192 L 161.2 67.2 L 161.3 60.1 L 159.9 53.9 L 157.3 49.2 L 154.0 46.3 L 150.0 45.2 L 144.2 46.0 L 136.3 50.1 L 126.5 58.6 L 115.23376407623292 72.15936365127564 L 115.5 72.4 L 102.8 86.3 L 90.9 98.8 L 79.8 110.1 L 76.97535667419433 112.86925821304321 L 77.0 114.2 L 76.7 130.6 L 75.9 147.1 L 74.7 163.9 L 72.9 180.8 L 59.0 179.1 L 59.07083330154419 178.4125 L 58.2 175.8 L 57.0 172.8 L 55.5 169.8 L 53.7 166.8 L 51.6 163.8 L 49.2 160.9 L 46.5 157.9 L 43.5 155.0 L 40.1 152.0 L 36.5 149.1 L 39.14881591796875 145.64095802307128 L 36.6 147.4 L 30.1 151.2 L 24.0 153.6 L 19.990621280670165 140.59396657943725 L 19.5 140.4 L 20.8 137.4 L 22.7 134.0 L 25.1 130.1 L 28.0 125.5 L 31.5 120.2 L 35.6 114.3 L 40.3 107.7 L 45.5 100.3 L 51.3 92.3 L 57.7 83.6 L 62.21094083786011 86.91334590911865 L 62.0 82.8 L 61.356201362609866 74.53791732788086 L 56.7 74.6 L 49.1 73.8 L 41.3 72.3 L 33.3 69.9 L 25.1 66.8 L 30.6 53.9 L 37.8 56.7 L 44.7 58.7 L 51.2 60.0 L 57.4 60.6 L 60.03947372436524 60.6 L 59.1 52.2 L 56.9 37.1 L 54.3 22.3 L 68.0 19.6 Z M 60.2 128.8 L 51.6 136.3 L 47.188949298858645 139.76183729171754 L 49.1 141.3 L 53.0 144.7 L 56.5 148.2 L 59.8 151.7 L 61.40591402053833 153.74892473220825 L 62.0 146.3 L 62.7 130.1 L 62.76939735412598 126.42194080352783 Z M 62.6 100.6 L 56.8 108.5 L 51.7 115.8 L 48.21434106826782 120.72538757324219 L 50.9 118.4 L 60.0 110.0 L 62.910367488861084 107.11903018951416 L 62.82399377822876 100.29550848007202 Z " />
</g>
</svg>
