<svg xmlns="http://www.w3.org/2000/svg" xmlns:xlink="http://www.w3.org/1999/xlink" version="1.1" baseProfile="full" viewBox="0 0 200 200" width="200" height="200">
<g fill="black">
<path d="M 128.2 28.0 L 129.9 38.4 L 131.2 48.7 L 131.39120483398438 50.84574298858642 L 136.1 52.6 L 140.5 55.7 L 140.03271884918212 56.23917055130005 L 140.2 56.3 L 138.3 60.7 L 135.9 65.3 L 132.9 70.1 L 132.5 70.69428567886352 L 132.5 78.67959184646607 L 135.9 77.5 L 140.9 75.9 L 145.9 74.4 L 148.78192768096923 73.67951803207397 L 148.2 73.3 L 145.8 71.6 L 154.1 60.3 L 158.1 63.1 L 160.1 64.3 L 162.0 65.4 L 163.9 66.4 L 165.8 67.3 L 167.6 68.1 L 169.4 68.8 L 171.1 69.4 L 172.8 69.9 L 169.1 83.4 L 168.9159999847412 83.34399995803832 L 169.0 83.9 L 164.0 84.7 L 159.1 85.7 L 154.3 86.7 L 149.6 88.0 L 145.0 89.3 L 140.4 90.8 L 135.9 92.3 L 131.5 94.0 L 131.4018343925476 94.04238967895508 L 131.0 97.9 L 130.4863904953003 101.34852075576782 L 131.0 101.1 L 133.34702434539795 100.21986589431762 L 133.3 100.1 L 139.9 98.2 L 146.6 97.8 L 153.2 98.7 L 159.6 101.1 L 165.3 105.0 L 170.1 110.4 L 173.7 117.1 L 176.0 125.0 L 176.7 134.0 L 175.9 144.0 L 175.5978578567505 143.95435266494752 L 174.8 149.3 L 173.0 155.6 L 170.5 161.3 L 167.0 166.5 L 162.8 170.9 L 157.9 174.6 L 152.3 177.6 L 146.2 179.7 L 139.5 181.2 L 134.81435766220093 181.6619647026062 L 131.9 182.2 L 125.8 182.8 L 120.1 182.9 L 114.8 182.4 L 109.9 181.1 L 105.4 179.0 L 101.5 176.1 L 98.4 172.3 L 96.3 167.9 L 95.17776193618775 163.67002573013306 L 94.9 163.7 L 95.5 156.1 L 99.2 149.7 L 104.9 145.6 L 111.5 143.8 L 118.6 144.0 L 125.7 146.1 L 132.6 150.0 L 139.0 155.8 L 144.4 163.4 L 145.24282112121583 165.26624689102172 L 146.8 164.7 L 150.4 162.8 L 153.5 160.5 L 156.1 157.8 L 158.2 154.6 L 159.9 150.8 L 161.1 146.4 L 161.9 141.3 L 162.05190572738647 141.31420698165894 L 162.7 134.0 L 162.2 127.5 L 160.7 122.3 L 158.7 118.4 L 156.1 115.5 L 153.1 113.5 L 149.8 112.3 L 146.1 111.7 L 145.39067621231078 111.75599927902222 L 145.4 111.9 L 143.0 112.2 L 140.7 112.6 L 138.5 113.2 L 136.4 114.0 L 134.4 115.0 L 132.4 116.1 L 130.4 117.4 L 128.6 119.0 L 126.7 120.7 L 124.9 122.7 L 114.3 113.7 L 114.48852128982544 113.48791360855103 L 114.1 113.4 L 115.8 104.9 L 115.98641510009766 103.6524528503418 L 115.7 103.8 L 112.2 105.5 L 108.6 107.4 L 105.0 109.4 L 101.3 111.5 L 97.4 113.6 L 93.6 116.0 L 86.3 103.9 L 87.20460319519043 103.39253969192505 L 86.9 103.1 L 93.6 96.1 L 99.6 89.6 L 105.1 83.4 L 110.0 77.6 L 114.3 72.2 L 118.0 67.1 L 118.39097747802734 66.53796997070313 L 118.36997184753417 66.0443380355835 L 116.2 67.1 L 111.9 69.7 L 107.2 73.3 L 102.1 77.7 L 96.7 83.1 L 86.6 73.4 L 92.6 67.5 L 98.4 62.4 L 104.0 58.2 L 109.4 54.8 L 114.8 52.2 L 117.4034613609314 51.42860403060913 L 117.3 50.2 L 116.1 40.4 L 114.4 30.5 L 112.3 20.5 L 126.0 17.4 Z M 66.5 31.3 L 67.1 37.4 L 66.7 43.6 L 65.3 49.8 L 62.9 56.0 L 59.8 62.3 L 55.7 68.6 L 50.9 74.9 L 45.3 81.4 L 39.991207122802734 86.79046659469604 L 40.0 86.8 L 38.4 88.4 L 37.5 89.6 L 37.1 90.4 L 37.1 90.8 L 37.2 91.1 L 37.39823789596558 91.3775330543518 L 37.8 90.8 L 42.356028366088864 95.29361705780029 L 43.2 95.8 L 43.0867413520813 96.01432018280029 L 45.1 98.0 L 49.6 106.7 L 52.1 116.3 L 53.2 126.2 L 53.24805660247803 131.05372018814086 L 55.0 127.7 L 58.8 120.6 L 71.1 127.3 L 67.3 134.2 L 64.1 140.6 L 61.2 146.6 L 58.8 152.1 L 56.7 157.2 L 55.2 161.7 L 54.0 165.8 L 53.3 169.3 L 52.9 172.2 L 52.9 174.5 L 52.62497253417969 174.5176803588867 L 52.7 175.0 L 39.2 178.9 L 38.0 171.5 L 37.9 163.4 L 38.3 154.6 L 38.9 145.3 L 39.3 136.0 L 39.2 127.0 L 38.3 118.7 L 36.5 111.6 L 33.91285419464111 106.51810646057129 L 33.0 106.0 L 29.8 103.6 L 27.0 100.9 L 24.9 97.7 L 23.4 94.0 L 23.1 89.9 L 23.8 86.0 L 25.5 82.5 L 27.7 79.4 L 29.124073791503907 77.92506647109985 L 29.1 77.9 L 35.0 71.9 L 40.1 66.1 L 44.3 60.5 L 47.6 55.3 L 50.1 50.4 L 51.9 45.8 L 52.8 41.5 L 53.1 37.6 L 52.7 33.9 L 51.7 30.3 L 64.9 25.4 Z M 110.7 158.3 L 109.5 159.1 L 108.9 160.1 L 108.86162872314453 160.90579710006713 L 108.9 160.9 L 109.4 163.1 L 110.2 164.8 L 111.2 166.0 L 112.6 167.0 L 114.5 167.9 L 117.2 168.6 L 120.7 168.9 L 124.9 168.9 L 129.9 168.3 L 130.7301336288452 168.15176181793214 L 128.5 165.1 L 124.4 161.4 L 120.2 159.0 L 116.3 157.9 L 113.0 157.7 Z " />
</g>
</svg>
