<svg xmlns="http://www.w3.org/2000/svg" xmlns:xlink="http://www.w3.org/1999/xlink" version="1.1" baseProfile="full" viewBox="0 0 200 200" width="200" height="200">
<g fill="black">
<path d="M 68.0 12.5 L 70.5 12.8 L 72.9 13.4 L 75.3 14.2 L 77.6 15.2 L 79.9 16.5 L 82.1 17.8 L 84.00711822509766 19.25304250717163 L 84.4 19.0 L 89.1 26.6 L 93.36743850708008 33.4456826210022 L 95.9 32.3 L 99.9 30.1 L 103.7 27.5 L 107.4 24.5 L 110.9 21.1 L 121.0 30.8 L 116.7 35.0 L 112.1 38.7 L 107.2 42.0 L 102.1 44.9 L 101.29440078735351 45.24312562942505 L 104.2 49.3 L 107.48353595733643 53.217200756073 L 109.4 51.7 L 115.5 46.6 L 120.1 42.5 L 122.8 39.5 L 134.0 48.0 L 130.61784992218017 51.623732280731204 L 139.7 49.0 L 141.2 54.3 L 142.6 59.1 L 143.9 63.4 L 145.1 67.1 L 146.2 70.3 L 147.1 72.9 L 147.9 75.0 L 148.31538457870482 75.9692307472229 L 148.5 76.0 L 148.47327938079835 76.33765182495117 L 148.5 76.4 L 148.8 77.0 L 148.4529088973999 76.59506034851074 L 147.4 89.9 L 135.5 88.0 L 124.8 84.3 L 115.3 79.1 L 106.9 72.7 L 106.3490161895752 72.15656385421752 L 103.2 74.7 L 96.9662205696106 79.94549732208252 L 97.1 80.0 L 99.8 81.2 L 102.2 82.7 L 104.4 84.5 L 106.4 86.5 L 108.1 88.7 L 109.5 91.1 L 110.56685495376587 93.62165727615357 L 111.0 93.6 L 111.1086495399475 97.04962377548217 L 114.5 96.7 L 123.9 96.9 L 132.8 98.2 L 141.1 100.6 L 148.6 104.1 L 155.1 108.8 L 160.3 114.7 L 163.7 121.9 L 164.8714412689209 129.1989800453186 L 164.9 129.2 L 164.88503065109253 129.28365240097045 L 165.0 130.0 L 164.75684213638306 130.0 L 163.2 138.7 L 159.2 147.0 L 153.4 153.8 L 146.5 159.1 L 138.7 162.9 L 130.5 165.2 L 122.1 166.0 L 113.9 165.3 L 108.05326089859008 163.35108699798585 L 107.2 168.3 L 105.3 176.4 L 103.0 183.9 L 100.4 190.7 L 87.5 185.2 L 89.8 179.3 L 91.7 172.8 L 93.5 165.5 L 94.9 157.5 L 96.0 148.7 L 96.8 139.2 L 97.3 129.1 L 97.5 118.2 L 97.4611743927002 113.6962287902832 L 95.5 114.1 L 88.9 116.2 L 82.5 119.1 L 76.2 122.6 L 70.0 126.9 L 64.0 132.0 L 58.1 137.9 L 52.3 144.5 L 46.7 152.0 L 35.2 143.9 L 35.45930891036987 143.55704307556152 L 35.0 143.6 L 35.0 140.2 L 35.5 136.7 L 36.6 133.2 L 38.0 129.6 L 39.8 125.7 L 42.0 121.7 L 44.6 117.3 L 47.6 112.7 L 51.0 107.8 L 54.7 102.6 L 54.921235942840575 102.76250076293945 L 60.7 95.5 L 68.8 86.8 L 77.3 78.6 L 85.9 71.0 L 94.3 63.9 L 96.63060731887818 61.982411766052245 L 93.1 57.8 L 87.4340425491333 49.98488626480103 L 85.3 50.5 L 79.3 51.5 L 73.1 52.0 L 66.7 52.0 L 66.70422916412353 51.88158254623413 L 64.2 51.4 L 61.7 50.8 L 59.3 50.2 L 56.9 49.4 L 54.6 48.6 L 52.4 47.7 L 50.3 46.7 L 48.3 45.6 L 46.4 44.4 L 44.6 43.2 L 52.9 32.0 L 54.1 32.8 L 55.3 33.5 L 58.1 34.9 L 59.7 35.6 L 61.3 36.2 L 63.1 36.7 L 65.0 37.2 L 67.0 37.7 L 69.1 38.0 L 72.6 38.0 L 77.7 37.6 L 79.32988510131835 37.3338963508606 L 77.2 33.9 L 74.50560274124146 29.624108695983885 L 74.2 29.4 L 72.8 28.6 L 71.5 27.8 L 70.2 27.3 L 69.0 26.9 L 67.8 26.6 L 66.7 26.4 L 64.4 26.4 L 63.3 26.6 L 60.6 12.9 L 63.0 12.5 L 65.5 12.4 Z M 111.44001245498657 111.06148023605347 L 111.5 118.2 L 111.3 129.5 L 110.8 140.2 L 110.03473796844483 148.7029109954834 L 112.1 150.1 L 116.6 151.6 L 122.0 152.0 L 127.8 151.5 L 133.7 149.8 L 139.2 147.1 L 143.9 143.6 L 147.5 139.3 L 149.9 134.4 L 150.84878702163695 128.99191370010377 L 150.4 126.0 L 148.7 122.5 L 145.8 119.2 L 141.6 116.2 L 136.3 113.7 L 129.9 111.9 L 122.8 110.9 L 115.1 110.7 Z M 78.8 96.6 L 71.3 104.7 L 64.6 113.1 L 64.47964811325073 113.01159992218018 L 63.44399995803833 114.45 L 68.7 110.8 L 76.2 106.6 L 84.0 103.1 L 92.0 100.6 L 95.02127332687378 99.97363843917847 L 95.0 99.9 L 97.16629877090455 99.41368799209594 L 97.10810813903808 97.62432432174683 L 97.0 97.3 L 96.5 96.5 L 95.9 95.7 L 95.2 95.0 L 94.2 94.3 L 93.0 93.5 L 91.6 92.8 L 89.8 92.1 L 87.8 91.5 L 85.6 91.0 L 85.82983894348145 89.833780002594 Z M 124.6 57.3 L 118.2 62.5 L 117.3876106262207 63.165707969665526 L 122.9 67.3 L 130.5 71.5 L 131.99988174438477 72.01781635284424 L 131.8 71.4 L 130.6 67.5 L 129.2 63.1 L 127.8 58.3 L 126.88008947372437 55.19530200958252 Z " />
</g>
</svg>
