<svg xmlns="http://www.w3.org/2000/svg" xmlns:xlink="http://www.w3.org/1999/xlink" version="1.1" baseProfile="full" viewBox="0 0 200 200" width="200" height="200">
<g fill="black">
<path d="M 68.4 27.4 L 68.9 29.4 L 69.5 31.1 L 70.2 32.5 L 71.0 33.7 L 71.9 34.6 L 72.8 35.4 L 73.79785718917847 36.035000038146975 L 75.6 35.6 L 79.0 34.7 L 82.9 33.7 L 87.2 32.6 L 92.0 31.4 L 97.4 30.0 L 103.2 28.5 L 109.4 26.9 L 115.94117650985717 25.264705848693847 L 116.0 25.2 L 116.04510641098022 25.238723373413087 L 116.2 25.2 L 116.25725841522217 25.420853900909425 L 126.6 34.3 L 125.2 35.8 L 123.6 37.6 L 121.6 39.4 L 119.5 41.5 L 117.0 43.8 L 114.3 46.3 L 111.3 49.0 L 108.0 51.9 L 104.4 55.0 L 100.65582380294799 58.168149089813234 L 100.8 58.4 L 99.2 59.7 L 98.7 60.4 L 98.7 60.5 L 98.8 60.7 L 99.6 61.6 L 101.9 63.1 L 106.2 64.6 L 112.4 65.6 L 120.7 65.8 L 131.1 65.0 L 132.8 78.9 L 129.9755513191223 79.11726531982421 L 130.1 79.3 L 126.8 81.6 L 122.9 84.3 L 118.4 87.4 L 113.4 90.9 L 107.8 94.8 L 101.6 99.2 L 94.8 103.9 L 87.4 109.1 L 79.5 114.7 L 71.0 120.7 L 70.93489894866943 120.60757255554199 L 67.6 123.0 L 66.80920038223266 123.83731727600097 L 69.7 125.6 L 78.7 129.4 L 90.9 134.1 L 104.8 140.3 L 119.5 148.8 L 133.9 160.1 L 146.7 175.0 L 135.2 182.9 L 124.3 170.3 L 111.8 160.4 L 98.6 152.9 L 85.6 147.1 L 73.7 142.4 L 63.6 138.2 L 55.6 132.9 L 52.1 122.2 L 58.0 112.8 L 62.91511116027832 109.22145414352417 L 62.9 109.2 L 64.36279067993163 108.16744184494019 L 69.4 104.5 L 69.44829959869385 104.57767086029052 L 71.4 103.2 L 79.4 97.6 L 86.7 92.5 L 93.5 87.7 L 99.7 83.4 L 105.4 79.4 L 106.33314762115478 78.74679670333862 L 102.8 78.2 L 95.9 75.7 L 90.4 72.2 L 86.4 67.3 L 84.7 61.3 L 85.7 55.3 L 88.8 50.3 L 91.67582340240479 47.92431983947754 L 91.4 47.6 L 94.06000003814697 45.28999996185303 L 90.7 46.2 L 86.3 47.3 L 82.4 48.3 L 79.0 49.1 L 76.1 49.9 L 73.6 50.5 L 73.47303371429443 49.99213485717773 L 73.3 50.7 L 70.2 49.8 L 67.2 48.4 L 64.5 46.7 L 62.1 44.6 L 59.9 42.2 L 58.1 39.5 L 56.7 36.6 L 55.5 33.5 L 54.7 30.3 L 54.1 26.8 L 68.0 25.1 Z " />
</g>
</svg>
