<svg xmlns="http://www.w3.org/2000/svg" xmlns:xlink="http://www.w3.org/1999/xlink" version="1.1" baseProfile="full" viewBox="0 0 200 200" width="200" height="200">
<g fill="black">
<path d="M 52.5 67.5 L 53.2 68.7 L 54.3 69.8 L 55.9 70.9 L 58.0 72.0 L 60.8 73.0 L 64.2 73.8 L 68.2 74.4 L 72.8 74.8 L 78.0 75.0 L 78.0 88.40677967071534 L 78.3 88.6 L 76.5 91.2 L 74.2 94.2 L 71.4 97.6 L 68.1 101.5 L 64.3 105.8 L 59.9 110.7 L 55.0 116.0 L 54.51009836196899 116.51662349700928 L 56.6 115.6 L 62.7 112.9 L 69.0 109.7 L 75.7 106.2 L 81.8980149269104 102.78660049438477 L 82.1 102.3 L 82.49803762435913 102.45615320205688 L 82.6 102.4 L 82.67063302993775 102.52386369705201 L 95.1 107.4 L 92.8 113.1 L 90.1 119.2 L 84.5 132.2 L 81.9 138.7 L 79.7 144.9 L 78.1 150.5 L 77.2 155.2 L 77.01935482025146 158.2709677696228 L 77.3 159.3 L 78.0 160.3 L 79.7 161.5 L 82.7 162.9 L 87.1 164.1 L 92.9 164.9 L 99.9 165.4 L 108.2 165.4 L 117.6 164.9 L 126.64571619033813 164.13196744918824 L 126.6 163.9 L 134.0 161.9 L 137.3 160.2 L 137.8 159.7 L 137.8 158.4 L 136.9 154.4 L 134.7 148.1 L 131.6 139.9 L 128.2 129.8 L 125.2 117.8 L 123.0 103.7 L 136.9 102.2 L 138.9 114.9 L 141.6 125.8 L 144.7 135.1 L 147.7 143.1 L 150.3 150.2 L 151.7 157.1 L 150.9 164.6 L 146.1 171.1 L 138.8 175.1 L 129.65747423171996 177.50592784881593 L 129.7 177.9 L 118.6 178.9 L 108.5 179.4 L 99.5 179.4 L 91.4 178.9 L 84.3 177.8 L 78.1 176.1 L 72.6 173.6 L 68.0 170.1 L 64.93911247253418 165.64779996871948 L 64.6 165.8 L 63.25789470672608 160.2526315689087 L 63.1 159.7 L 63.123577976226805 159.69745559692382 L 63.1 159.6 L 63.3 153.4 L 64.5 147.1 L 66.4 140.5 L 68.9 133.7 L 71.6 126.8 L 73.10090599060058 123.33238954544068 L 68.7 125.5 L 62.3 128.4 L 56.1 131.1 L 50.2 133.3 L 44.5 135.3 L 39.1 136.8 L 33.9 138.0 L 28.9 138.9 L 27.030846214294435 125.22566413879395 L 26.9 125.1 L 33.4 118.3 L 39.4 112.1 L 44.8 106.4 L 49.6 101.2 L 53.9 96.5 L 57.6 92.3 L 60.7 88.6 L 61.50579710006714 87.60081157684326 L 61.5 87.6 L 56.8 86.4 L 52.5 84.9 L 48.6 82.9 L 45.1 80.4 L 42.2 77.3 L 39.9 73.7 L 38.4 69.7 L 52.0 66.1 Z M 158.2 69.4 L 162.3 71.4 L 165.9 74.2 L 168.9 77.8 L 171.4 81.9 L 173.5 86.5 L 160.4 91.4 L 159.0 88.3 L 157.6 85.9 L 156.2 84.3 L 154.9 83.3 L 153.7 82.7 L 152.3 82.4 L 150.5 82.4 L 148.3 82.9 L 145.5 83.9 L 142.3 85.5 L 135.3 73.4 L 139.9 71.1 L 144.5 69.4 L 149.1 68.5 L 153.7 68.5 Z M 70.8 23.6 L 72.2 25.4 L 73.9 27.0 L 75.7 28.5 L 77.8 29.8 L 80.1 31.0 L 82.8 32.0 L 85.7 32.9 L 89.0 33.5 L 92.6 34.0 L 91.3 47.9 L 86.8 47.3 L 82.4 46.5 L 78.4 45.3 L 74.5 43.8 L 70.9 42.0 L 67.5 39.9 L 64.5 37.4 L 61.7 34.6 L 59.3 31.5 L 57.2 28.1 L 69.6 21.5 Z " />
</g>
</svg>
