<svg xmlns="http://www.w3.org/2000/svg" xmlns:xlink="http://www.w3.org/1999/xlink" version="1.1" baseProfile="full" viewBox="0 0 200 200" width="200" height="200">
<g fill="black">
<path d="M 101.1 14.4 L 104.8 15.0 L 108.2 15.9 L 111.5 17.1 L 114.6 18.6 L 117.5 20.5 L 120.1 22.6 L 122.5 25.1 L 124.5 27.8 L 126.2 30.8 L 125.11025638580323 31.349230766296387 L 125.9 31.4 L 125.3 41.2 L 124.25658502578736 55.95686902999878 L 124.8 55.9 L 133.9 54.3 L 143.5 51.8 L 153.7 48.5 L 164.3 44.5 L 169.6 57.4 L 158.3 61.7 L 147.4 65.3 L 136.9 67.9 L 126.8 69.8 L 123.25844240188599 70.16510906219483 L 123.2 71.0 L 122.4 81.0 L 121.6 91.1 L 120.7 101.1 L 120.04795446395875 108.48984928131104 L 122.88947372436523 106.77368421554566 L 125.1 105.3 L 128.5 103.3 L 129.31904764175414 102.89047622680664 L 129.8 102.6 L 130.1960000038147 102.45200004577637 L 132.1 101.5 L 132.1911693572998 101.70633068084717 L 139.7 98.9 L 149.2 97.5 L 158.0 98.6 L 165.9 101.9 L 172.4 107.3 L 177.1 114.3 L 180.0 122.5 L 180.9 131.6 L 180.34393148422242 136.5540650367737 L 180.8 136.6 L 179.95389165878296 140.02896547317505 L 179.8 141.4 L 179.6247386932373 141.3629009246826 L 178.9 144.3 L 175.1 151.2 L 169.8 157.6 L 163.4 163.4 L 155.9 168.8 L 147.5 173.7 L 138.4 178.1 L 128.8 182.0 L 118.7 185.2 L 108.4 187.8 L 105.5 174.1 L 114.9 171.8 L 124.0 168.8 L 132.8 165.3 L 140.9 161.4 L 148.3 157.1 L 154.6 152.5 L 159.8 147.9 L 163.6 143.3 L 165.9 139.0 L 166.15252523422242 138.04040403366088 L 166.9 131.5 L 166.3 125.5 L 164.6 120.5 L 162.0 116.6 L 158.7 113.9 L 154.5 112.1 L 149.4 111.5 L 143.2 112.4 L 137.43999996185303 114.56000003814697 L 135.39508199691772 115.46885242462159 L 131.31428575515747 117.95714282989502 L 130.2 118.7 L 128.0 120.6 L 125.8 122.6 L 123.8 124.9 L 121.8 127.3 L 120.0 130.0 L 118.3 132.9 L 116.7 136.0 L 104.90841541290283 130.3849596977234 L 104.0 130.3 L 105.0 120.1 L 106.8 99.9 L 107.6 89.9 L 108.5 79.9 L 109.12499465942383 70.97150545120239 L 107.8 71.0 L 98.8 70.2 L 90.3 68.6 L 82.2 66.1 L 74.6 62.6 L 81.1 50.2 L 87.2 53.0 L 93.7 55.0 L 100.7 56.4 L 108.2 57.0 L 110.18671436309815 56.950332164764404 L 110.6 50.2 L 111.3 40.3 L 111.68086957931519 34.079130458831784 L 110.6 32.9 L 109.3 31.8 L 107.8 30.8 L 106.0 30.0 L 104.1 29.3 L 101.8 28.7 L 99.3 28.2 L 96.6 28.0 L 97.3 14.0 Z M 38.9 19.4 L 41.9 20.6 L 44.7 22.1 L 47.3 23.8 L 49.6 25.8 L 51.6 28.0 L 53.3 30.6 L 54.6 33.4 L 55.5 36.3 L 55.9 39.3 L 55.336832427978514 39.35267038345337 L 51.4 55.1 L 48.2 70.8 L 45.9 85.7 L 44.5 99.9 L 43.9 113.3 L 44.1 126.0 L 45.2 137.9 L 45.3580397605896 138.8316026687622 L 45.4 138.7 L 48.2 131.1 L 51.3 122.8 L 55.0 113.8 L 59.1 104.1 L 72.0 109.6 L 67.9 119.2 L 64.4 128.0 L 61.3 136.0 L 58.7 143.3 L 56.5 149.8 L 54.9 155.4 L 53.7 160.3 L 53.0 164.2 L 52.8 167.1 L 52.828705406188966 167.61669797897338 L 53.4 169.2 L 40.5 174.7 L 39.14649724960327 170.9778673171997 L 39.0 171.0 L 38.97671232223511 170.51095886230468 L 36.5 163.7 L 33.5 152.0 L 31.3 139.7 L 30.2 126.7 L 29.9 113.1 L 30.5 98.8 L 32.0 83.9 L 34.5 68.3 L 37.8 52.0 L 41.256554985046385 37.752248764038086 L 41.1 37.4 L 40.5 36.6 L 39.8 35.8 L 38.8 35.0 L 37.6 34.1 L 36.1 33.4 L 34.3 32.6 L 32.1 32.0 L 35.7 18.4 Z " />
</g>
</svg>
