<svg xmlns="http://www.w3.org/2000/svg" xmlns:xlink="http://www.w3.org/1999/xlink" version="1.1" baseProfile="full" viewBox="0 0 200 200" width="200" height="200">
<g fill="black">
<path d="M 130.2 30.2 L 136.2 35.7 L 141.7 40.6 L 147.0 44.9 L 151.8 48.5 L 156.2 51.4 L 160.1 53.7 L 163.6 55.4 L 166.5 56.4 L 168.8 56.9 L 168.51136693954467 59.26000003814697 L 169.6 70.9 L 160.7 71.8 L 152.2 72.7 L 144.2 73.6 L 136.7 74.7 L 129.6 75.8 L 126.772585105896 76.3140754699707 L 126.7 83.5 L 126.6 93.5 L 126.6 103.5 L 126.9 133.8 L 126.88078517913819 133.8004147529602 L 126.9 134.3 L 127.8 136.2 L 129.6 138.3 L 133.0 140.6 L 137.6 143.0 L 143.4 145.4 L 149.9 148.0 L 157.1 150.8 L 164.6 154.0 L 172.3 157.8 L 165.6 170.1 L 158.8 166.7 L 151.8 163.7 L 144.9 161.0 L 138.2 158.4 L 131.8 155.7 L 125.8 152.6 L 120.5 148.9 L 116.1 143.9 L 113.3 137.5 L 113.1135643005371 134.0975489616394 L 113.0 134.1 L 112.93664121627808 130.86870231628419 L 112.9 130.2 L 112.92357931137084 130.20254449844361 L 112.8 123.9 L 112.6 103.5 L 112.6 93.4 L 112.7427466392517 79.1253384590149 L 112.01935482025146 79.29032258987426 L 110.78452377319336 79.58333330154419 L 105.8 80.9 L 101.0 82.3 L 100.9924843788147 82.27620038986205 L 95.0 84.1 L 83.9 88.4 L 75.48542861938476 92.40304851531982 L 75.9 101.8 L 76.1 114.7 L 76.1 126.7 L 76.0 137.1 L 76.0 145.5 L 75.86782608032226 145.5 L 75.2 155.1 L 71.5 164.5 L 65.3 171.5 L 57.3 175.2 L 48.5 175.2 L 40.2 171.5 L 33.5 164.6 L 28.8 154.9 L 26.5 142.8 L 27.0 128.1 L 27.420635318756105 128.15144462585448 L 28.7 120.4 L 33.0 110.8 L 39.3 102.1 L 47.2 94.3 L 56.6 87.3 L 60.93135013580322 84.67620134353638 L 60.2 75.9 L 58.4 63.3 L 55.9 51.7 L 52.6 41.6 L 48.6 33.6 L 60.4 26.0 L 65.6 36.4 L 69.5 48.1 L 72.2 60.9 L 74.1 74.4 L 74.36231079101563 77.41657438278199 L 78.3 75.5 L 90.4 70.9 L 102.9 67.0 L 107.5869047164917 65.92976188659668 L 107.7 65.9 L 112.97420949935913 64.68952569961547 L 113.2 53.4 L 113.6 43.5 L 113.9 33.7 L 114.18965520858765 33.71034479141235 L 123.9 24.0 Z M 56.3 104.9 L 49.9 111.3 L 45.1 117.9 L 42.1 124.5 L 41.0 131.2 L 40.8531174659729 131.19475421905517 L 40.5 141.7 L 42.1 150.6 L 45.0 156.6 L 48.3 160.0 L 51.4 161.5 L 54.3 161.5 L 57.0 160.2 L 59.5 157.3 L 61.5 152.1 L 62.0 144.3 L 62.0 136.9 L 62.1 126.6 L 62.1 114.8 L 61.9 102.2 L 61.83357934951782 100.74981546401978 Z M 127.2 53.8 L 127.03340682983398 62.04636402130127 L 127.3 62.0 L 134.6 60.8 L 142.4 59.7 L 143.20493440628053 59.60183725357056 L 138.3 55.9 L 132.7 51.3 L 127.41901311874389 46.64557094573975 Z " />
</g>
</svg>
