<svg xmlns="http://www.w3.org/2000/svg" xmlns:xlink="http://www.w3.org/1999/xlink" version="1.1" baseProfile="full" viewBox="0 0 200 200" width="200" height="200">
<g fill="black">
<path d="M 89.3 13.9 L 88.6 27.9 L 85.7 27.8 L 83.3 28.0 L 81.4 28.3 L 80.0 28.7 L 79.1 29.2 L 78.6 29.5 L 78.4 29.8 L 78.2 30.2 L 78.13333330154418 30.4 L 80.7 38.1 L 81.26113357543946 39.743319797515866 L 82.5 39.0 L 85.04432344436646 37.56881799697876 L 85.0 37.5 L 89.6 34.7 L 93.9 32.5 L 98.1 30.8 L 102.2 29.7 L 106.3 29.3 L 110.5 30.0 L 114.5 31.9 L 117.6 34.9 L 119.6 38.6 L 120.29049243927003 40.90164155960083 L 120.9 40.7 L 121.2 46.2 L 119.6 50.5 L 117.1 54.5 L 113.8 58.8 L 109.6 63.5 L 104.5 68.7 L 98.4 74.5 L 94.20011587142945 78.27989568710328 L 95.1 81.0 L 97.54817562103271 88.29556341171265 L 98.5 87.9 L 106.1 84.4 L 113.7 80.4 L 121.3 76.0 L 128.6 87.9 L 120.5 92.7 L 112.3 96.9 L 104.1 100.8 L 102.03498229980468 101.63584051132202 L 105.7 112.5 L 106.68288621902465 115.40109977722167 L 110.8 113.8 L 125.1 108.8 L 138.6 104.2 L 150.6 100.0 L 156.33502607345582 97.58525218963624 L 156.3 97.5 L 158.0 96.5 L 158.16725664138795 96.38053092956542 L 157.3 95.6 L 155.4 94.6 L 152.7 93.7 L 149.1 93.0 L 150.8 79.1 L 156.2 80.1 L 161.0 81.7 L 165.1 84.0 L 168.6 87.0 L 171.2 90.8 L 172.5 95.4 L 172.0 100.4 L 169.6 104.7 L 166.1 108.0 L 165.75923433303834 108.18174171447754 L 166.0 108.7 L 155.5 113.1 L 143.2 117.4 L 129.7 122.0 L 119.92880373001098 125.46496324539184 L 129.2 133.5 L 126.9 136.3 L 124.9 138.9 L 123.1 141.2 L 121.7 143.4 L 120.6 145.3 L 119.7 147.0 L 119.2 148.3 L 118.9 149.3 L 118.8 149.9 L 118.8 150.1 L 118.41388893127441 150.1472222328186 L 118.6 150.7 L 105.3 155.2 L 98.6 135.2 L 98.17489070892334 133.9452419281006 L 88.8 138.2 L 77.6 144.5 L 68.8 151.3 L 63.54285717010498 157.68367347717285 L 63.05699481964111 158.51658029556273 L 61.5595588684082 162.87867650985717 L 61.9 163.9 L 63.3 165.6 L 66.9 167.6 L 72.8 169.4 L 81.0 170.6 L 91.2 170.8 L 103.5 170.0 L 117.8 168.1 L 120.1 181.8 L 105.0 184.0 L 91.5 184.8 L 79.8 184.5 L 69.8 183.1 L 61.4 180.5 L 54.5 176.5 L 49.5 170.6 L 47.5 163.2 L 47.50650901794434 163.16194715499878 L 47.0 163.1 L 48.03553981781006 160.06915168762208 L 48.8 155.6 L 50.77154693603516 152.06132593154908 L 51.1 151.1 L 51.763559341430664 150.2807909965515 L 52.7 148.6 L 52.966465091705324 148.7957221031189 L 59.2 141.1 L 70.0 132.8 L 82.6 125.7 L 93.66934156417847 120.6466049194336 L 92.4 116.9 L 88.96280965805053 106.52593479156494 L 87.3 107.1 L 78.9 109.6 L 70.3 111.6 L 61.7 113.2 L 53.0 114.3 L 44.60050439834595 114.87927560806274 L 44.3 115.1 L 41.7 110.0 L 41.4 103.9 L 43.9 98.7 L 47.5 95.5 L 51.4 92.9 L 55.7 90.4 L 60.4 87.6 L 65.5 84.4 L 67.55010986328125 82.85274724960327 L 74.3 77.1 L 77.96754970550538 73.90264902114868 L 77.4 72.2 L 73.65755939483643 61.06863803863526 L 73.3 61.3 L 68.6 64.6 L 64.3 67.8 L 60.4 71.0 L 56.8 74.1 L 53.6 77.2 L 53.33500003814697 76.93500003814697 L 53.5 77.4 L 40.4 82.5 L 39.0 78.4 L 37.9 74.4 L 37.1 70.4 L 36.7 66.3 L 36.6 62.3 L 36.8 58.3 L 37.4 54.4 L 38.3 50.5 L 39.6 46.6 L 41.2 42.9 L 53.9 48.8 L 52.7 51.6 L 51.8 54.3 L 51.2 57.0 L 50.8 59.8 L 50.71881189346313 60.89603958129883 L 51.4 60.3 L 55.7 56.8 L 60.4 53.3 L 65.4 49.7 L 69.05059175491333 47.33387575149536 L 67.4 42.5 L 65.2 36.0 L 63.6 31.1 L 64.06012697219849 30.947777557373048 L 64.2 28.5 L 65.1 25.2 L 66.7 22.0 L 69.0 19.3 L 71.8 17.2 L 74.9 15.7 L 78.2 14.7 L 81.7 14.1 L 85.4 13.8 Z M 115.6 127.0 L 111.18680448532105 128.69492292404175 L 111.9 130.8 L 112.38510932922364 132.24084701538087 L 113.7 130.4 L 116.1 127.4 L 116.82232084274293 126.56655292510986 Z M 79.6 91.4 L 75.56999998092651 94.325 L 74.4 95.3 L 74.33474950790405 95.22155275344849 L 73.4 95.9 L 72.01214637756348 96.80088739395141 L 75.3 96.0 L 83.1 93.8 L 84.50637350082397 93.30685606002808 L 82.87168045043946 88.53098793029785 Z M 104.7 43.4 L 102.6 44.0 L 101.84505119323731 44.296586990356445 L 95.7 47.7 L 89.6 51.1 L 85.87354879379272 53.34872055053711 L 86.8 56.1 L 89.37260227203369 63.75184268951416 L 94.7 58.7 L 99.4 53.9 L 103.1 49.8 L 105.7 46.5 L 106.88611106872558 44.55138893127442 L 106.7 43.9 L 106.4444444656372 43.388888931274415 L 106.0 43.3 Z " />
</g>
</svg>
