<svg xmlns="http://www.w3.org/2000/svg" xmlns:xlink="http://www.w3.org/1999/xlink" version="1.1" baseProfile="full" viewBox="0 0 200 200" width="200" height="200">
<g fill="black">
<path d="M 150.0 16.7 L 153.6 18.3 L 156.5 20.9 L 158.7 23.8 L 159.8680781364441 26.136156368255616 L 160.0 26.1 L 160.03409090042115 26.468181800842284 L 160.4 27.2 L 160.11317501068115 27.322289752960206 L 160.5 31.5 L 159.9 36.3 L 158.7 40.7 L 157.6347945213318 44.161917781829835 L 159.2 44.0 L 162.3 43.7 L 165.6 43.6 L 169.5 44.1 L 173.8 46.3 L 177.0 50.2 L 178.5 54.9 L 179.0 59.9 L 178.3456090927124 59.904674243927005 L 178.7 60.2 L 176.7 62.2 L 174.1 64.5 L 170.7 67.2 L 166.4 70.4 L 161.2 74.3 L 155.0 78.8 L 147.9 83.8 L 140.13611431121825 89.33176851272583 L 143.8 102.7 L 141.9 103.4 L 139.7 104.6 L 137.4 106.3 L 134.9 108.7 L 134.20948276519775 109.46724138259887 L 137.8 110.2 L 142.1 112.7 L 145.4 116.4 L 147.6 120.7 L 149.0 125.6 L 149.7 131.0 L 149.93509273529054 135.7018545150757 L 150.0 135.7 L 149.98586959838866 136.71739130020143 L 150.0 137.0 L 149.9819444656372 137.0 L 149.9 142.9 L 149.4 149.7 L 148.2 156.1 L 146.6 162.3 L 144.3 168.1 L 141.5 173.5 L 138.2 178.5 L 134.2 183.1 L 129.7 187.2 L 124.8 190.8 L 117.1 179.1 L 120.9 176.3 L 124.2 173.3 L 127.0 170.0 L 129.5 166.3 L 131.6 162.3 L 133.3 157.9 L 134.6 153.1 L 135.5 147.9 L 135.9 142.2 L 135.98947372436524 136.74210529327394 L 135.8 132.1 L 135.2 128.4 L 134.5 125.7 L 133.7 124.1 L 133.2 123.5 L 132.9 123.3 L 132.3 123.2 L 130.8 123.3 L 128.4 124.1 L 127.52061071395875 124.51221370697021 L 127.1 124.8 L 125.1 126.4 L 123.2 128.4 L 121.2 130.9 L 119.2 133.7 L 117.2 137.0 L 115.3 140.6 L 113.4 144.7 L 100.5 139.2 L 102.7 134.4 L 105.0 130.1 L 108.3 123.5 L 111.5 117.5 L 114.8 112.1 L 118.0 107.2 L 119.23636360168457 105.6 L 119.0 105.6 L 116.2 105.5 L 113.4 105.2 L 110.7 104.8 L 113.14360494613648 91.40904512405396 L 113.0 91.2 L 122.9 84.3 L 131.8 78.1 L 139.8 72.4 L 146.8 67.4 L 152.9 63.0 L 158.0 59.2 L 158.55604572296141 58.779575157165525 L 153.5 60.0 L 147.1 59.0 L 142.4 53.3 L 142.1 48.1 L 143.0 44.1 L 144.2 40.3 L 145.3 36.6 L 146.2 33.4 L 146.5 30.9 L 146.5 30.73333330154419 L 146.3270270347595 30.502702713012695 L 146.1 30.6 L 144.8 31.6 L 143.1 33.3 L 141.0 35.6 L 130.1 26.8 L 132.9 23.6 L 135.8 20.9 L 138.8 18.7 L 142.1 17.1 L 145.9 16.3 Z M 63.87433824539185 134.45073833465577 L 59.4 132.4 L 55.8 128.1 L 54.6 122.8 L 55.3 117.6 L 57.4 112.5 L 60.7 107.2 L 65.3 101.7 L 69.73697481155395 97.33697481155396 L 69.7 97.3 L 73.1 93.9 L 76.9 89.9 L 78.09236392974853 88.56222581863403 L 76.5 88.9 L 72.7 90.3 L 68.4 92.4 L 64.99753351211548 94.45565681457519 L 60.2 99.6 L 51.3 109.2 L 41.8 119.6 L 31.9 130.8 L 21.4 121.6 L 31.4 110.3 L 40.9 99.7 L 49.9 90.0 L 56.015767669677736 83.5244812965393 L 56.0 83.5 L 56.0890625 83.446875 L 58.4 81.0 L 65.89517965316773 73.31744079589843 L 62.0 74.6 L 54.0 76.9 L 46.2 78.7 L 38.6 79.9 L 31.2 80.7 L 24.0 81.0 L 24.0 67.0 L 30.2 66.7 L 36.7 66.1 L 43.5 64.9 L 50.5 63.3 L 57.9 61.3 L 59.781392860412595 60.65636558532715 L 61.4 57.8 L 62.8 54.4 L 64.0 50.3 L 64.19838275909424 49.13450136184692 L 60.8 49.4 L 54.9 49.2 L 49.5 48.3 L 44.4 46.6 L 39.9 43.8 L 36.1 40.1 L 47.0 31.4 L 48.4 32.7 L 50.3 33.9 L 52.9 34.8 L 56.2 35.3 L 60.4 35.4 L 65.3 35.0 L 65.3 34.3 L 65.0 27.8 L 64.3 20.7 L 63.2 13.1 L 77.0 10.8 L 78.2 19.0 L 79.0 26.8 L 79.20838251113892 31.87064199447632 L 84.6 30.2 L 92.5 27.4 L 97.4 40.5 L 89.1 43.5 L 81.2 45.9 L 78.76175298690796 46.509561729431155 L 78.7 47.3 L 77.6 53.3 L 77.41632652282715 53.98571424484253 L 81.6 52.2 L 90.0 48.2 L 97.340625 44.4875 L 98.7 43.4 L 107.2 54.5 L 102.2 58.5 L 96.5 63.4 L 90.4 69.0 L 84.72470073699951 74.34145812988281 L 88.0 74.8 L 89.78985948562622 75.52356023788452 L 90.6 74.6 L 96.0 68.5 L 101.8 61.8 L 108.0 54.5 L 114.6 46.8 L 121.6 38.5 L 132.3 47.4 L 125.3 55.8 L 118.7 63.6 L 112.4 70.9 L 106.6 77.7 L 101.1 83.9 L 100.85763959884643 84.17629079818725 L 102.61580114364624 86.93911600112915 L 102.7 86.9 L 102.77578945159912 87.19052629470825 L 103.1 87.7 L 102.93187322616578 87.78884744644165 L 104.5 93.8 L 104.3 100.7 L 102.4 107.3 L 99.4 113.7 L 95.4 119.7 L 90.5 125.0 L 84.8 129.5 L 78.4 133.0 L 71.4 134.9 L 63.8 134.9 Z M 87.1 99.4 L 83.2 103.6 L 79.6 107.2 L 79.55 107.15 L 75.6 111.1 L 72.0 115.5 L 69.8 119.0 L 69.0761194229126 120.73731346130371 L 69.9 120.6 L 70.00143041610718 120.92119636535645 L 73.1 120.0 L 77.0 117.9 L 80.9 114.8 L 84.4 111.0 L 87.3 106.7 L 89.3 102.4 L 90.5 98.4 L 90.58259286880494 95.67443552017212 Z M 159.13830270767212 58.14243116378784 L 159.19321269989013 58.297814750671385 L 159.43201665878297 58.11725568771362 Z " />
</g>
</svg>
