<svg xmlns="http://www.w3.org/2000/svg" xmlns:xlink="http://www.w3.org/1999/xlink" version="1.1" baseProfile="full" viewBox="0 0 200 200" width="200" height="200">
<g fill="black">
<path d="M 127.9 17.6 L 132.2 24.8 L 132.5 32.2 L 130.8 39.3 L 128.74674968719484 44.25612134933472 L 130.1 43.6 L 133.3 42.1 L 136.4 40.8 L 136.4123077392578 40.8307692527771 L 137.8 40.2 L 141.9 38.4 L 145.8 36.8 L 146.48571424484254 36.53333330154419 L 150.2 34.8 L 155.1 33.2 L 155.17100210189818 33.459061813354495 L 156.0 33.2 L 159.9 46.7 L 157.2 47.5 L 154.2 48.5 L 151.9925133705139 49.39679145812988 L 149.8 50.8 L 147.6 52.7 L 145.8 54.7 L 144.2 57.0 L 143.0 59.7 L 142.0 62.8 L 141.3 66.3 L 141.03440856933594 69.75268821716308 L 141.4 90.5 L 141.5 110.5 L 141.46975059509276 113.11657028198242 L 142.0 113.1 L 150.9 113.7 L 159.0 115.2 L 166.3 117.8 L 172.7 121.5 L 178.1 126.3 L 167.8 135.6 L 164.6 132.9 L 160.6 130.6 L 155.4 128.8 L 149.2 127.6 L 141.8 127.1 L 141.30788927078248 127.11757535934449 L 141.3 127.8 L 140.7 142.4 L 139.7 154.5 L 138.1 164.2 L 135.9 171.7 L 131.8 177.9 L 123.5 180.6 L 120.59993515014648 179.23282651901246 L 120.5 179.5 L 117.2 177.8 L 116.75312938690186 177.41933240890503 L 116.5 177.3 L 116.54688005447387 177.24363861083984 L 114.5 175.5 L 111.8 172.7 L 109.0 169.4 L 106.1 165.5 L 103.0 160.9 L 99.7 155.7 L 96.1 149.9 L 92.3 143.4 L 88.3 136.2 L 88.76376419067383 135.94361000061036 L 84.9 123.0 L 98.1 119.3 L 110.4 116.5 L 121.8 114.6 L 127.45812406539918 113.95945768356323 L 127.5 110.4 L 127.4 90.7 L 127.02833652496338 69.70101203918458 L 127.0 69.7 L 127.0238450050354 69.44724292755127 L 127.0 68.1 L 127.15124912261963 68.09675893783569 L 127.5 64.4 L 128.21926898956298 60.40406141281128 L 125.4 61.9 L 124.80449438095093 62.20337076187134 L 123.2 63.1 L 119.6 65.3 L 115.8 67.6 L 111.9 70.1 L 107.9 72.73414630889893 L 107.7 72.9 L 103.95 66.95 L 100.1 61.1 L 100.21601877212524 61.025416469573976 L 100.2 61.0 L 101.9 59.6 L 105.0 56.1 L 108.6 51.4 L 112.2 45.9 L 115.3 40.1 L 117.6 34.7 L 118.7 30.4 L 118.7 28.2 L 118.8 28.2 L 117.9 28.0 L 120.0 14.2 Z M 38.9 19.4 L 41.8 20.5 L 44.6 21.9 L 47.1 23.5 L 49.4 25.3 L 51.5 27.5 L 53.2 29.9 L 54.5 32.5 L 55.4 35.3 L 55.9 38.3 L 55.59455232620239 38.328567028045654 L 51.5 59.8 L 48.3 79.5 L 46.0 97.3 L 44.5 113.3 L 43.9 127.3 L 44.1 139.4 L 44.294457244873044 141.1854706764221 L 45.3 138.3 L 48.1 130.9 L 51.3 122.7 L 55.0 113.8 L 59.1 104.1 L 72.0 109.6 L 67.9 119.2 L 64.3 128.0 L 61.2 135.9 L 58.5 143.1 L 56.2 149.4 L 54.5 154.9 L 53.2 159.6 L 52.3 163.3 L 52.0 165.9 L 51.92238807678223 166.9865672111511 L 52.0 167.1 L 51.90797262191772 167.18838272094726 L 51.9 167.3 L 51.780073928833005 167.3112160682678 L 41.9 176.8 L 37.0 169.9 L 33.6 161.5 L 31.4 151.7 L 30.2 140.2 L 29.9 127.1 L 30.5 112.3 L 32.1 95.8 L 34.5 77.5 L 37.7 57.4 L 41.48415842056274 37.66831684112549 L 41.2 37.1 L 40.7 36.4 L 40.0 35.7 L 39.0 34.9 L 37.8 34.1 L 36.2 33.4 L 34.3 32.6 L 32.1 32.0 L 35.7 18.4 Z M 125.31453485488892 166.62848834991456 L 125.2640585899353 166.76343517303468 L 125.4 166.6 Z M 123.8 128.4 L 113.2 130.3 L 102.43432207107544 132.6923728942871 L 104.5 136.4 L 108.2 142.7 L 111.6 148.3 L 114.7 153.2 L 117.5 157.4 L 120.1 160.8 L 122.3 163.4 L 123.44483671188354 164.67952337265015 L 124.4 161.2 L 125.7 152.9 L 126.7 141.6 L 127.27303276062011 128.03822574615478 Z " />
</g>
</svg>
