<svg xmlns="http://www.w3.org/2000/svg" xmlns:xlink="http://www.w3.org/1999/xlink" version="1.1" baseProfile="full" viewBox="0 0 200 200" width="200" height="200">
<g fill="black">
<path d="M 74.9 15.2 L 78.8 15.9 L 82.6 16.9 L 86.1 18.4 L 89.4 20.4 L 92.3 22.7 L 95.0 25.4 L 97.3 28.5 L 99.2 31.8 L 99.00486488342285 31.89834804534912 L 106.0 51.8 L 108.6326018333435 59.1557993888855 L 116.3 56.6 L 126.7 51.9 L 137.2 46.2 L 147.9 39.2 L 156.0 50.7 L 144.4 58.2 L 132.9 64.5 L 121.5 69.6 L 113.35314254760742 72.36284732818604 L 119.1 88.6 L 124.71230049133301 104.12736473083496 L 128.4 100.6 L 128.53496770858766 100.7405333518982 L 130.8 98.4 L 136.3 92.6 L 141.1 87.0 L 142.0686813354492 85.80604391098022 L 141.7 84.7 L 141.1 83.3 L 140.4 82.3 L 139.8 81.5 L 139.0 81.0 L 138.1 80.6 L 137.0 80.2 L 135.4 80.0 L 136.4 66.0 L 139.9 66.5 L 143.2 67.5 L 146.3 69.1 L 149.1 71.1 L 151.5 73.7 L 153.4 76.6 L 154.8 79.7 L 155.9 83.1 L 156.6 86.7 L 156.9 90.5 L 156.22128553390502 90.54394550323487 L 151.8 96.0 L 146.7 101.9 L 141.0 108.1 L 134.7 114.5 L 130.05544166564943 119.0752366065979 L 130.6 120.6 L 135.8 134.7 L 140.5 147.7 L 144.9 159.5 L 148.9 170.1 L 152.5 179.4 L 139.4 184.5 L 135.8 175.0 L 131.8 164.4 L 127.4 152.6 L 122.6 139.5 L 118.99214124679565 129.45458936691284 L 112.9 135.0 L 104.5 142.4 L 95.6 149.9 L 86.2 157.7 L 86.14184036254883 157.62942419052123 L 85.7 158.0 L 76.9 165.1 L 68.7 171.3 L 61.0 176.7 L 53.9 181.3 L 47.2 185.1 L 40.7 172.8 L 46.6 169.4 L 53.2 165.1 L 60.5 160.0 L 68.3 154.0 L 76.8 147.2 L 85.9 139.6 L 95.6 131.1 L 106.0 121.8 L 113.63067827224731 114.65936527252197 L 111.9 109.9 L 105.9 93.3 L 99.75825805664063 75.94714183807373 L 98.7 76.2 L 87.4 77.6 L 76.2 77.8 L 65.1 76.7 L 54.1 74.4 L 43.3 70.8 L 48.4 57.8 L 57.8 60.9 L 67.2 62.9 L 76.7 63.8 L 86.4 63.7 L 94.99312314987182 62.56009588241577 L 92.8 56.4 L 85.7796757698059 36.42668333053589 L 85.6 36.1 L 84.3 34.5 L 83.0 33.1 L 81.5 31.9 L 79.8 30.9 L 77.9 30.1 L 75.7 29.5 L 73.2 29.1 L 70.4 28.9 L 67.3 28.9 L 66.6 14.9 L 70.8 14.9 Z " />
</g>
</svg>
