<svg xmlns="http://www.w3.org/2000/svg" xmlns:xlink="http://www.w3.org/1999/xlink" version="1.1" baseProfile="full" viewBox="0 0 200 200" width="200" height="200">
<g fill="black">
<path d="M 56.1 18.6 L 60.5 20.7 L 64.4 24.3 L 66.5 29.7 L 66.3 35.3 L 64.3 40.5 L 61.9600417137146 44.42509126663208 L 65.9 43.0 L 71.1 41.3 L 76.7 39.3 L 77.16624803543091 40.67802200317383 L 85.6 50.2 L 83.5 52.1 L 81.1 54.4 L 78.2 57.2 L 74.9 60.4 L 67.3 68.0 L 63.0 72.4 L 58.2 77.2 L 53.1 82.5 L 47.7 88.1 L 47.683942794799805 88.08457870483399 L 46.44949836730957 89.78193979263305 L 46.6 89.8 L 52.8 89.1 L 57.422875022888185 87.90699996948243 L 61.2 79.8 L 61.329086208343504 79.86249408721923 L 65.1 75.0 L 68.8 71.0 L 72.8 67.9 L 77.4 65.9 L 83.0 65.9 L 88.0 68.4 L 91.2 72.3 L 93.3 76.8 L 94.7 82.0 L 95.79550409317017 88.07506809234619 L 95.9 88.3 L 79.7 95.3 L 67.45783128738404 99.65277109146118 L 65.8 103.3 L 61.8 112.4 L 58.86769847869873 119.31722412109374 L 60.0 118.8 L 68.4 117.1 L 71.80304136276246 117.3025619506836 L 84.5 100.5 L 95.4 109.4 L 85.7529715538025 122.12201881408691 L 90.8 127.5 L 94.1 136.5 L 94.4 147.3 L 91.78740892410278 159.1499669075012 L 92.2 159.3 L 87.5 166.8 L 80.8 172.2 L 73.2 175.6 L 64.8 176.7 L 56.1 173.5 L 51.1 164.6 L 51.9 153.6 L 57.3 140.0 L 61.18552913665771 133.56112308502196 L 58.9 134.6 L 53.7 138.4 L 49.35894823074341 143.12692308425903 L 46.5 150.5 L 42.8 160.5 L 39.2 170.8 L 35.6 181.2 L 22.3 176.7 L 26.0 166.1 L 29.7 155.8 L 33.4 145.6 L 37.2 135.6 L 41.1 125.8 L 45.0 116.2 L 49.0 106.8 L 50.47673215866089 103.40351600646973 L 46.6 103.8 L 39.1 102.6 L 32.9 97.6 L 31.5 89.9 L 33.8 83.5 L 38.0 77.8 L 40.59553575515747 75.29553575515747 L 43.1 72.7 L 48.2 67.4 L 53.0 62.6 L 53.516794776916505 62.0714599609375 L 50.9 63.0 L 48.2 63.9 L 46.0 64.7 L 44.1 65.3 L 43.950847434997556 64.84915256500244 L 43.8 65.0 L 34.1 54.9 L 40.9 48.1 L 46.1 42.4 L 49.7 37.7 L 51.8 34.2 L 52.57241382598877 32.268965530395505 L 51.4 31.8 L 48.6 31.0 L 51.3 17.3 Z M 132.7 21.2 L 138.6 23.3 L 143.3 28.0 L 145.4 34.3 L 145.1 40.9 L 143.2 47.9 L 139.8 55.8 L 135.0 64.9 L 134.9282651901245 65.01728067398071 L 140.3 62.6 L 146.0 60.0 L 148.95827980041503 58.65532732009888 L 149.7 55.4 L 152.9 49.2 L 159.4 45.0 L 166.4 45.8 L 171.08067226409912 48.60840339660645 L 171.1 48.6 L 171.1122844696045 48.62737064361572 L 171.4 48.8 L 171.2674511909485 48.97309312820435 L 176.8 61.3 L 172.3 63.4 L 167.6 65.5 L 162.6 67.8 L 161.49126949310303 68.30206661224365 L 160.8 74.8 L 160.2 87.8 L 160.08472175598143 97.59864740371704 L 162.4 99.0 L 164.4 107.2 L 162.4 115.1 L 160.20517168045043 119.2988018989563 L 160.3 126.0 L 160.9 151.7 L 147.15789499282837 152.1943202972412 L 147.1 152.4 L 145.3 151.8 L 143.5 151.1 L 141.7 150.2 L 139.9 149.2 L 138.0 148.1 L 137.60443620681764 147.84288358688354 L 127.38928575515747 157.45714282989502 L 125.7 159.3 L 124.56751594543456 161.16050958633423 L 124.8 161.3 L 128.9 162.4 L 135.8 163.2 L 145.5 163.3 L 157.9 162.6 L 173.1 161.0 L 174.8 174.9 L 159.1 176.6 L 145.9 177.3 L 135.0 177.2 L 126.3 176.2 L 119.2 174.1 L 113.4 170.1 L 110.3 163.3 L 111.3 156.4 L 114.6 150.7 L 117.33390035629273 147.73827457427979 L 117.3 147.7 L 117.81599998474121 147.21599998474122 L 119.4 145.5 L 119.51508836746216 145.62228145599366 L 126.63959999084473 138.93959999084473 L 123.7 136.0 L 121.0 131.7 L 119.5 126.8 L 119.6 121.7 L 121.1 116.8 L 123.7 112.4 L 127.2 108.4 L 131.5 104.5 L 131.64062089920043 104.67222108840943 L 139.4 98.9 L 146.10492506027222 95.72398290634155 L 146.2 87.5 L 146.74723634719848 75.00476932525635 L 146.1 75.3 L 140.1 78.1 L 133.9 80.9 L 127.5 83.8 L 120.8 86.9 L 120.78690576553345 86.87181406021118 L 120.7 87.0 L 109.2 78.9 L 116.9 67.6 L 122.9 57.9 L 127.2 49.8 L 130.0 43.3 L 131.3 38.5 L 131.5 35.8 L 131.32666664123536 35.28000001907348 L 130.3 35.0 L 127.3 34.9 L 126.6 20.9 Z M 69.7 146.4 L 65.4 157.1 L 64.9 162.2 L 64.9 162.6 L 65.7 162.8 L 69.1 162.2 L 73.5 160.2 L 77.2 157.3 L 78.39702968597412 155.43795375823976 L 80.4 145.9 L 80.3 138.9 L 78.9 134.8 L 77.60462265014648 133.442938041687 Z M 140.3 115.6 L 140.24484844207763 115.5357575416565 L 137.2 118.2 L 135.0 120.7 L 133.9 122.7 L 133.4 124.0 L 133.4 124.9 L 133.7 125.8 L 134.6 127.2 L 136.24975128173827 128.8497512817383 L 139.7 125.0 L 146.0 116.4 L 146.15777206420898 116.10699481964112 L 146.0901035308838 111.25742235183716 Z " />
</g>
</svg>
