<svg xmlns="http://www.w3.org/2000/svg" xmlns:xlink="http://www.w3.org/1999/xlink" version="1.1" baseProfile="full" viewBox="0 0 200 200" width="200" height="200">
<g fill="black">
<path d="M 82.9 27.1 L 86.1 36.5 L 87.44234218597413 44.25575475692749 L 91.4 42.6 L 101.9 37.7 L 108.0 50.2 L 97.1 55.4 L 88.7 58.906796073913576 L 88.7 69.9 L 87.9 81.7 L 87.83224105834961 82.29940624237061 L 96.1 84.6 L 105.6 91.5 L 110.61378974914551 102.18977823257447 L 110.9 102.2 L 110.80410852432252 102.59555215835572 L 110.9 102.8 L 110.74846696853638 102.82507381439208 L 108.5 112.1 L 103.1 120.2 L 95.9 127.1 L 87.6 133.1 L 78.9 138.5 L 70.2 143.5 L 62.3 148.2 L 58.94054050445557 150.49054050445557 L 53.4 155.2 L 49.8 159.2 L 48.53376626968384 161.44025974273683 L 50.3 162.5 L 55.2 164.0 L 62.8 165.2 L 72.7 165.9 L 84.8 166.0 L 84.80200901031495 166.09308347702026 L 85.3 166.1 L 92.4 166.0 L 99.3 165.8 L 106.1 165.5 L 112.7 164.9 L 119.2 164.3 L 125.6 163.4 L 131.8 162.4 L 138.0 161.3 L 143.9 159.9 L 147.9 158.8 L 150.6 157.1 L 152.6 154.8 L 154.1 151.4 L 155.0 146.6 L 155.0 140.1 L 154.0 132.2 L 151.9 123.0 L 148.8 112.4 L 144.4 100.5 L 157.5 95.4 L 162.0 107.9 L 165.5 119.4 L 167.8 129.8 L 169.0 139.2 L 168.9 147.8 L 167.5 155.5 L 164.4 162.3 L 159.6 167.8 L 153.3 171.7 L 147.0557936668396 173.41074142456054 L 147.1 173.6 L 140.8 175.0 L 134.3 176.2 L 127.6 177.3 L 120.9 178.2 L 114.0 178.9 L 107.0 179.4 L 99.9 179.8 L 92.6 180.0 L 85.3 180.1 L 77.8 180.0 L 77.80335493087769 179.8434368133545 L 72.2 179.8 L 61.2 179.1 L 52.2 177.6 L 44.7 175.3 L 38.7 171.4 L 34.8 164.9 L 35.1 157.4 L 36.54205732345581 154.68553905487062 L 36.3 154.6 L 38.132034587860105 151.69264068603516 L 38.5 151.0 L 38.740295791625975 150.72735671997071 L 40.9 147.3 L 47.3 141.5 L 50.42199172973633 139.4049792289734 L 50.9 139.0 L 50.94259653091431 139.05562601089477 L 53.94383115768433 137.04163961410524 L 53.0 137.0 L 46.6 135.1 L 40.6 131.8 L 37.02653064727783 128.22653064727783 L 36.8 128.4 L 36.43692312240601 127.636923122406 L 35.7 126.9 L 32.2 120.5 L 31.77385082244873 117.83656797409057 L 30.9 116.0 L 31.109043216705324 113.68152027130127 L 31.0 113.0 L 31.170491790771486 113.0 L 32.0 103.8 L 38.7 94.2 L 48.5 87.5 L 59.9 83.2 L 72.3 81.1 L 73.82918920516968 81.13729734420777 L 73.9 80.5 L 74.7 69.4 L 74.7 64.03043479919434 L 67.9 66.1 L 59.3 68.2 L 51.2 69.4 L 43.6 69.9 L 36.5 69.4 L 29.8 68.0 L 23.7 65.7 L 30.0 53.1 L 33.8 54.6 L 38.3 55.5 L 43.6 55.9 L 49.7 55.5 L 56.6 54.4 L 64.2 52.6 L 72.6 50.1 L 74.06622648239136 49.5460922241211 L 74.0 48.6 L 72.5 39.8 L 70.2 32.9 L 67.4 28.3 L 77.8 19.0 Z M 63.5 96.7 L 54.8 100.0 L 48.3 104.4 L 45.0 108.9 L 44.63555555343628 113.0 L 45.0 113.0 L 45.21479454040527 114.61095886230468 L 47.4875 119.0875 L 49.0 120.6 L 51.9 122.2 L 55.3 123.2 L 58.7 123.3 L 61.9 122.7 L 64.5 121.3 L 66.5 119.2 L 67.62850465774537 116.62056074142455 L 69.2 110.5 L 71.1 101.5 L 72.07248458862304 95.30041065216065 Z M 84.9 104.0 L 82.8 113.7 L 81.19818954467773 119.74319410324097 L 81.4 119.8 L 81.04556369781494 120.56099557876587 L 87.0 116.2 L 92.5 111.0 L 95.8 106.2 L 96.3945086479187 103.76791906356812 L 95.0 100.7 L 90.3 97.3 L 86.12746839523315 96.20196533203125 Z M 159.3 46.8 L 163.8 49.2 L 167.8 51.9 L 171.5 55.0 L 174.6 58.4 L 177.3 62.2 L 179.3 66.3 L 180.8 70.6 L 181.7 75.2 L 182.0 80.0 L 168.0 80.0 L 167.8 76.9 L 167.3 74.2 L 166.4 71.7 L 165.2 69.4 L 163.7 67.2 L 161.8 65.1 L 159.5 63.1 L 156.6 61.2 L 153.3 59.5 L 149.4 57.9 L 154.3 44.7 Z " />
</g>
</svg>
