<svg xmlns="http://www.w3.org/2000/svg" xmlns:xlink="http://www.w3.org/1999/xlink" version="1.1" baseProfile="full" viewBox="0 0 200 200" width="200" height="200">
<g fill="black">
<path d="M 142.2 18.5 L 145.00064516067505 19.90032262802124 L 145.1 19.6 L 146.30638294219972 20.553191471099854 L 147.6 21.2 L 150.6079999923706 23.952000045776366 L 153.2 26.0 L 155.0 35.5 L 152.6 44.6 L 147.9 54.2 L 145.09693880081176 58.87176866531372 L 146.2 58.6 L 152.9 58.3 L 159.2 59.9 L 164.7 63.5 L 168.6 68.7 L 171.2 74.9 L 172.5 82.0 L 172.9375 89.0 L 173.0 89.0 L 172.96850395202637 89.49606294631958 L 173.0 90.0 L 172.93650789260863 90.0 L 172.6 95.3 L 171.5 101.4 L 169.6 107.0 L 166.9 112.2 L 163.4 116.8 L 159.2 120.9 L 154.3 124.3 L 148.9 127.1 L 142.8 129.2 L 136.3 130.8 L 135.49442625045776 126.7124589920044 L 133.7 133.2 L 130.64103183746337 140.64073333740234 L 136.2 140.5 L 144.0 142.1 L 151.7 145.4 L 159.3 150.3 L 166.7 156.7 L 174.1 164.5 L 181.6 173.8 L 170.4 182.2 L 163.5 173.7 L 157.0 166.8 L 150.8 161.5 L 145.0 157.7 L 139.7 155.4 L 134.9 154.4 L 130.4 154.6 L 125.9 155.8 L 121.3 158.3 L 116.5 162.3 L 116.47563972473145 162.27463521957398 L 112.2 167.1 L 104.1 174.5 L 95.0 181.6 L 86.9 170.3 L 95.1 163.9 L 102.2 157.2 L 108.3 150.4 L 113.4 143.4 L 117.4 136.2 L 120.5 128.7 L 122.6 121.0 L 123.7 113.0 L 123.9 104.6 L 123.2 95.9 L 137.0 94.0 L 137.9 104.2 L 137.7 114.1 L 137.40427808761598 116.14893045425416 L 138.8 115.8 L 143.4 114.2 L 147.2 112.3 L 150.4 110.0 L 153.0 107.6 L 155.1 104.8 L 156.7 101.6 L 157.9 97.9 L 158.7 93.7 L 158.96842107772827 89.49473686218262 L 158.6 83.6 L 157.7 78.7 L 156.4 75.5 L 155.0 73.7 L 153.6 72.7 L 151.6 72.3 L 148.3 72.4 L 143.8 73.5 L 138.1 75.9 L 131.4 79.5 L 131.34844560623168 79.41213960647583 L 125.4 87.6 L 107.8 111.4 L 99.7 122.9 L 88.2 115.0 L 96.5 103.2 L 105.3 91.2 L 114.1 79.3 L 122.5 67.8 L 129.8 57.0 L 135.7 47.4 L 139.6 39.5 L 141.0 34.2 L 141.0 33.86666669845581 L 139.8 32.8 L 138.0 31.9 L 135.7 31.5 L 132.7 31.7 L 129.1 32.6 L 125.0 34.1 L 120.4 36.3 L 115.7 38.9 L 110.7 41.9 L 105.7 45.2 L 97.9 33.6 L 103.2 30.1 L 108.6 26.8 L 114.0 23.8 L 119.5 21.2 L 125.0 19.2 L 130.6 17.9 L 136.4 17.5 Z M 58.5 23.6 L 53.8 43.2 L 50.0 61.7 L 47.0 79.3 L 44.9 96.0 L 43.6 111.6 L 43.2 126.2 L 43.6 139.9 L 43.650931644439694 140.43478260040283 L 46.0 134.6 L 49.7 126.3 L 53.9 117.4 L 58.7 107.8 L 71.2 114.1 L 66.5 123.5 L 62.4 132.1 L 58.9 140.1 L 55.9 147.4 L 53.5 154.0 L 51.7 159.8 L 50.4 164.8 L 49.7 169.1 L 49.5 172.4 L 49.7 174.7 L 49.57935800552368 174.72185544967653 L 49.6 174.8 L 36.3 179.1 L 33.1 167.2 L 30.9 154.4 L 29.6 140.7 L 29.2 126.2 L 29.6 110.8 L 31.0 94.5 L 33.2 77.3 L 36.2 59.2 L 40.1 40.1 L 44.9 20.2 Z " />
</g>
</svg>
