<svg xmlns="http://www.w3.org/2000/svg" xmlns:xlink="http://www.w3.org/1999/xlink" version="1.1" baseProfile="full" viewBox="0 0 200 200" width="200" height="200">
<g fill="black">
<path d="M 48.9 16.7 L 51.7 17.5 L 54.3 18.5 L 56.9 19.7 L 59.4 21.0 L 61.7 22.7 L 63.9 24.5 L 66.0 26.4 L 67.9 28.6 L 69.7 30.9 L 69.43043775558472 31.089865589141844 L 69.9 31.1 L 69.8 40.1 L 69.6 49.7 L 69.5499282836914 52.22862176895141 L 72.3 50.3 L 80.5 44.0 L 89.2 36.7 L 98.5 28.5 L 107.9 38.8 L 98.4 47.3 L 89.3 54.9 L 80.6 61.6 L 72.3 67.4 L 69.31094894409179 69.2394160270691 L 69.3 70.4 L 69.2 81.5 L 69.12592468261718 90.16680727005004 L 77.1 84.6 L 87.9 78.1 L 98.8 72.2 L 109.8 67.2 L 120.9 62.9 L 130.51704835891724 59.980538845062256 L 130.5 59.9 L 131.06753511428832 59.813426876068114 L 132.1 59.5 L 132.14102191925048 59.649674606323245 L 136.4 59.0 L 142.1 58.9 L 147.5 59.8 L 152.5 61.9 L 156.8 65.1 L 160.2 69.3 L 162.6 74.2 L 164.1 79.7 L 164.78034429550172 84.8025824546814 L 164.9 84.8 L 164.87641925811766 85.52314414978028 L 164.9 85.7 L 164.9 92.2 L 164.6589783668518 92.19133014678955 L 164.6 94.0 L 163.2 102.4 L 160.6 110.1 L 156.8 117.0 L 151.7 122.8 L 145.5 127.5 L 138.3 131.0 L 130.3 133.4 L 121.5 134.7 L 115.35523281097412 134.89004430770873 L 107.9 139.4 L 98.8 144.3 L 97.97051887512207 144.70242156982422 L 107.9 146.5 L 119.1 148.8 L 129.7 151.5 L 139.9 154.3 L 149.7 157.5 L 159.0 161.0 L 167.8 164.7 L 176.1 168.7 L 169.8 181.2 L 162.0 177.5 L 153.8 174.0 L 145.1 170.7 L 135.9 167.7 L 126.2 165.0 L 116.0 162.5 L 105.3 160.2 L 94.1 158.2 L 82.4 156.5 L 70.2 155.0 L 71.7 141.1 L 72.2264446258545 141.1631733894348 L 72.2 141.1 L 82.9 136.5 L 92.5 131.9 L 99.09629096984864 128.33024253845215 L 98.7 128.0 L 97.0 126.3 L 95.5 124.5 L 94.1 122.5 L 93.21363639831543 121.0 L 93.0 121.0 L 93.01380319595337 120.66182088851929 L 92.8 120.3 L 93.0337688446045 120.17266244888306 L 93.2 116.1 L 94.0 111.5 L 95.4 107.1 L 97.5 103.0 L 100.1 99.3 L 103.2 96.0 L 106.9 93.2 L 110.9 90.8 L 115.4 88.9 L 120.2 87.4 L 120.27488813400268 87.69099397659302 L 122.8 87.2 L 126.3 86.9 L 129.8 87.2 L 133.2 88.1 L 136.4 89.7 L 139.1 92.0 L 141.2 94.9 L 142.7 98.0 L 143.8 101.4 L 141.9 107.5 L 138.8 113.3 L 136.42177419662477 116.4709677696228 L 138.2 115.6 L 142.2 112.6 L 145.3 108.9 L 147.8 104.5 L 149.6 99.1 L 150.7 92.6 L 150.9131579399109 87.27105264663696 L 150.9 86.6 L 150.4 82.4 L 149.5 79.1 L 148.3 76.8 L 147.1 75.2 L 145.6 74.1 L 143.7 73.3 L 141.1 72.9 L 137.7 72.9 L 134.3847328186035 73.43969469070434 L 125.5 76.2 L 115.2 80.1 L 105.0 84.8 L 94.9 90.2 L 84.8 96.4 L 74.7 103.3 L 69.0 107.68900003433228 L 69.0 145.0 L 68.50288457870484 145.0 L 68.2 151.3 L 67.4 160.4 L 66.1 168.1 L 63.9 174.6 L 56.9 180.1 L 48.380939197540286 177.03696689605712 L 48.0 177.1 L 47.6 175.2 L 47.0 173.2 L 46.2 171.0 L 45.1 168.6 L 43.8 166.1 L 42.2 163.4 L 40.3 160.5 L 38.2 157.5 L 35.8 154.4 L 33.2 151.2 L 44.0 142.2 L 46.8 145.8 L 49.5 149.3 L 51.9 152.6 L 53.76503496170044 155.61958045959472 L 54.2 150.4 L 54.7 140.5 L 54.9 129.6 L 54.99002771377563 119.33684492111206 L 54.8 119.5 L 44.9 128.7 L 35.0 138.8 L 25.01199598312378 129.20756044387818 L 25.0 129.2 L 25.001649856567383 129.19762411117554 L 24.9 129.1 L 25.480410480499266 128.50820894241332 L 27.5 125.6 L 29.8 122.3 L 32.0 119.1 L 34.0 115.9 L 35.5 112.7 L 36.6 109.3 L 37.2 105.6 L 37.2 101.3 L 36.5 96.2 L 34.7 90.3 L 47.9 85.5 L 50.1 93.2 L 51.2 100.2 L 51.2 104.22211542129517 L 55.0 100.97019233703614 L 55.0 96.0 L 55.07622947692871 96.0 L 55.1 93.1 L 55.2 81.4 L 55.24068412780762 76.84337291717529 L 49.9 79.1 L 43.1 81.1 L 36.5 82.1 L 30.1 81.9 L 31.8 68.0 L 35.5 68.1 L 40.0 67.4 L 45.2 65.9 L 51.0 63.4 L 55.38579349517822 61.10589265823364 L 55.4 59.6 L 55.6 49.5 L 55.8 39.9 L 55.88384428024292 36.08508701324463 L 54.6 34.9 L 53.4 33.9 L 52.0 32.9 L 50.6 32.1 L 49.0 31.4 L 47.4 30.8 L 45.7 30.4 L 43.9 30.0 L 46.0 16.2 Z M 124.8 101.0 L 122.7 101.4 L 120.2 102.2 L 120.16972360610961 102.11311979293824 L 117.2 103.4 L 114.6 104.8 L 112.6 106.5 L 110.9 108.2 L 109.5 110.2 L 108.4 112.3 L 107.6 114.8 L 107.26425991058349 116.7472924232483 L 107.4 116.9 L 108.9 118.4 L 109.7 118.8 L 110.4 119.2 L 111.1 119.5 L 112.5222222328186 119.8555555343628 L 114.7 118.3 L 119.9 113.9 L 124.0 109.7 L 127.0 105.7 L 129.0 102.0 L 129.0481249809265 101.846875 L 128.9 101.6 L 128.6 101.3 L 128.2 101.1 L 127.5 101.0 L 126.4 100.9 Z " />
</g>
</svg>
