<svg xmlns="http://www.w3.org/2000/svg" xmlns:xlink="http://www.w3.org/1999/xlink" version="1.1" baseProfile="full" viewBox="0 0 200 200" width="200" height="200">
<g fill="black">
<path d="M 80.1 68.9 L 85.7 70.7 L 91.1 72.3 L 96.4 73.6 L 101.4 74.7 L 106.3 75.4 L 111.1 75.9 L 115.7 76.2 L 117.75 76.2 L 120.7 76.0 L 120.70611209869385 76.17113752365113 L 124.3 76.0 L 125.6 89.9 L 120.5 90.2 L 117.86666669845582 90.2 L 116.2 90.3 L 111.5 91.0 L 107.0 91.9 L 102.9 93.1 L 99.0 94.6 L 95.4 96.4 L 92.1 98.5 L 89.07514190673828 100.67411680221558 L 89.1 100.7 L 85.2 104.7 L 82.1 108.6 L 79.7 112.2 L 78.1 115.6 L 77.1 118.7 L 76.7 121.5 L 76.8 124.3 L 77.5 127.0 L 78.7 129.8 L 80.6 132.8 L 80.53100833892822 132.85067529678344 L 82.7 135.1 L 86.4 138.4 L 91.2 142.2 L 97.1 146.4 L 103.9 151.0 L 111.8 155.9 L 120.6 161.2 L 130.5 166.8 L 141.3 172.8 L 134.6 185.1 L 123.6 179.0 L 113.6 173.3 L 104.5 167.8 L 96.3 162.7 L 89.1 157.9 L 82.8 153.4 L 77.4 149.2 L 72.9 145.2 L 69.3 141.3 L 66.5 137.4 L 66.81692304611207 137.2098461151123 L 66.3 136.4 L 64.2 131.4 L 63.0 126.2 L 62.7 120.9 L 63.4 115.6 L 65.1 110.4 L 67.5 105.3 L 70.8 100.3 L 72.85786094665528 97.71448240280151 L 72.6 97.5 L 76.1 93.6 L 80.0 90.0 L 84.2 86.9 L 86.46875 85.5078125 L 81.5 84.1 L 75.5 82.1 L 69.4 79.8 L 74.4 66.8 Z M 75.5 17.6 L 77.5 19.1 L 80.8 20.6 L 85.4 22.1 L 91.2 23.3 L 98.2 24.1 L 106.3 24.6 L 115.6 24.8 L 126.0 24.6 L 137.5 24.0 L 138.4 37.9 L 126.5 38.6 L 115.7 38.8 L 105.8 38.6 L 96.9 38.1 L 89.0 37.1 L 81.9 35.6 L 75.7 33.7 L 70.4 31.1 L 65.8 27.7 L 62.3 23.3 L 74.5 16.4 Z " />
</g>
</svg>
