<svg xmlns="http://www.w3.org/2000/svg" xmlns:xlink="http://www.w3.org/1999/xlink" version="1.1" baseProfile="full" viewBox="0 0 200 200" width="200" height="200">
<g fill="black">
<path d="M 58.4 21.5 L 59.5 22.8 L 60.8 24.1 L 62.1 25.2 L 63.6 26.3 L 67.0 28.1 L 69.0 28.9 L 69.875 29.15 L 70.5 28.9 L 75.9 27.1 L 81.2 25.7 L 86.4 24.8 L 91.4 24.4 L 96.4 24.4 L 101.2 25.0 L 105.8 26.1 L 110.3 27.8 L 114.5 29.9 L 114.23181638717651 30.357045364379882 L 114.9 30.4 L 114.0 46.4 L 113.4 61.3 L 113.0 75.2 L 112.8 88.0 L 112.9 99.8 L 113.3 110.5 L 113.8 120.2 L 114.6 128.7 L 114.82027969360351 130.33006992340088 L 117.1 130.9 L 132.3 136.1 L 146.8 142.7 L 160.4 150.6 L 172.5 159.6 L 163.4 170.3 L 152.7 162.3 L 140.4 155.2 L 127.1 149.1 L 116.64992609024048 145.4913414001465 L 115.4 157.6 L 107.1 169.3 L 95.1 176.5 L 81.3 180.0 L 67.1 180.4 L 53.5 178.0 L 41.7 172.6 L 33.2 163.3 L 31.6 150.1 L 37.9614634513855 137.5614634513855 L 37.7 137.3 L 38.309720802307126 136.8750431060791 L 38.5 136.5 L 38.66017637252808 136.63078622817994 L 47.6 130.4 L 59.4 126.3 L 72.6 124.7 L 86.9 125.0 L 100.36855983734131 126.88559837341309 L 99.8 121.2 L 99.3 111.1 L 98.9 100.1 L 98.8 88.0 L 99.0 74.9 L 99.4 60.8 L 100.0 45.7 L 100.36247787475585 39.17539825439453 L 98.7 38.8 L 95.4 38.4 L 91.9 38.3 L 88.2 38.7 L 84.2 39.4 L 79.9 40.5 L 75.4 42.0 L 70.7 43.9 L 70.55009117126465 43.56336259841919 L 70.5 43.8 L 67.3 43.0 L 64.3 42.1 L 61.4 40.9 L 58.7 39.6 L 56.0 38.0 L 53.6 36.3 L 51.3 34.4 L 49.2 32.3 L 47.3 30.0 L 45.6 27.6 L 57.4 20.0 Z M 62.4 140.0 L 53.7 142.9 L 48.92759599685669 146.26415367126464 L 45.3 152.9 L 45.7 157.0 L 49.6 161.0 L 57.5 164.6 L 68.1 166.5 L 79.5 166.1 L 89.9 163.5 L 97.8 158.8 L 102.3 152.6 L 102.9972092628479 144.93069763183593 L 102.41020956039429 141.67962236404418 L 99.2 140.9 L 85.7 138.9 L 73.3 138.6 Z " />
</g>
</svg>
