<svg xmlns="http://www.w3.org/2000/svg" xmlns:xlink="http://www.w3.org/1999/xlink" version="1.1" baseProfile="full" viewBox="0 0 200 200" width="200" height="200">
<g fill="black">
<path d="M 93.2 15.0 L 96.1 16.9 L 98.9 18.9 L 101.5 21.1 L 103.9 23.4 L 106.2 25.9 L 108.2 28.5 L 110.1 31.2 L 111.8 34.0 L 113.09661016464233 36.59322032928467 L 113.5 36.7 L 111.9 42.5 L 109.31011238098145 52.34157304763794 L 109.5 52.4 L 113.3 53.0 L 118.1 53.4 L 124.0 53.4 L 130.8 53.1 L 138.6 52.5 L 147.3 51.4 L 156.9 50.0 L 159.0 63.9 L 149.1 65.3 L 140.0 66.4 L 131.7 67.1 L 124.3 67.4 L 117.6 67.4 L 111.6 67.0 L 106.3 66.1 L 105.70941543579102 65.91151561737061 L 104.4 70.8 L 101.6 81.8 L 100.70638294219971 85.07659578323364 L 102.2 84.8 L 109.7 84.6 L 116.7 86.0 L 123.0 89.1 L 128.0 94.0 L 131.6 100.2 L 133.8 107.3 L 134.22543859481812 110.39409885406494 L 138.8 109.8 L 146.5 108.9 L 154.1 108.2 L 161.6 107.7 L 169.1 107.3 L 176.6 107.0 L 184.0 107.0 L 184.0 121.0 L 176.9 121.0 L 162.5 121.6 L 155.3 122.2 L 147.9 122.9 L 140.5 123.7 L 133.1 124.7 L 132.09193153381347 124.85916872024536 L 130.9 133.6 L 129.4 141.7 L 127.5 149.4 L 125.2 156.4 L 122.5 162.8 L 119.4 168.7 L 115.8 174.0 L 111.7 178.6 L 107.2 182.6 L 106.78134326934814 182.04179105758666 L 107.1 182.7 L 98.6 185.4 L 90.2 185.4 L 82.5 183.1 L 75.7 179.2 L 69.8 174.0 L 64.7 167.9 L 60.5 161.2 L 57.1 154.2 L 54.6 147.1 L 53.0 140.0 L 66.9 137.9 L 68.0 143.2 L 70.0 148.8 L 72.7 154.5 L 76.1 159.7 L 79.9 164.3 L 84.0 167.9 L 88.2 170.3 L 92.3 171.5 L 96.4 171.5 L 99.85839414596558 170.44744529724122 L 101.8 168.7 L 104.7 165.4 L 107.4 161.4 L 109.9 156.8 L 112.1 151.5 L 114.1 145.5 L 115.7 138.8 L 117.1 131.4 L 117.65114107131959 127.34159755706787 L 114.0 128.0 L 102.7 130.0 L 92.2 131.9 L 82.5 133.6 L 73.7 135.3 L 65.8 136.8 L 58.7 138.2 L 52.4 139.4 L 42.54442548751831 141.59012765884398 L 42.5 141.8 L 39.2 141.0 L 36.1 139.9 L 33.2 138.6 L 30.3 137.1 L 27.7 135.3 L 25.2 133.3 L 22.9 131.1 L 20.8 128.6 L 18.9 126.0 L 17.3 123.1 L 29.6 116.5 L 30.7 118.4 L 31.9 120.0 L 33.1 121.5 L 34.5 122.8 L 36.0 124.0 L 37.6 125.1 L 39.3 126.0 L 41.2 126.9 L 42.40331954956055 127.26099586486816 L 44.1 126.9 L 49.6 125.7 L 56.0 124.4 L 63.1 123.0 L 71.2 121.5 L 80.0 119.9 L 89.7 118.1 L 100.2 116.2 L 107.60033416748047 114.901695728302 L 107.6 114.9 L 115.5 113.4 L 120.40918197631837 112.51886472702026 L 120.1 110.2 L 118.8 105.7 L 117.0 102.6 L 114.9 100.6 L 112.3 99.3 L 108.6 98.6 L 103.7 98.7 L 97.6 99.8 L 90.3 102.2 L 85.50344610214233 89.27867126464844 L 85.2 89.2 L 86.6 83.8 L 89.4 72.8 L 90.9 67.2 L 92.4 61.7 L 93.8 56.0 L 95.3 50.4 L 96.9 44.7 L 98.40445108413697 38.882789325714114 L 98.3 38.7 L 97.0 36.8 L 95.5 35.0 L 93.9 33.2 L 92.2 31.5 L 90.3 29.9 L 88.2 28.4 L 85.9 27.0 L 83.5 25.6 L 90.1 13.2 Z " />
</g>
</svg>
