<svg xmlns="http://www.w3.org/2000/svg" xmlns:xlink="http://www.w3.org/1999/xlink" version="1.1" baseProfile="full" viewBox="0 0 200 200" width="200" height="200">
<g fill="black">
<path d="M 131.0700912475586 116.90341682434082 L 135.9 127.3 L 126.3 131.9 L 116.8 136.9 L 107.4 142.1 L 98.0 147.6 L 97.67931032180786 147.8 L 106.8 147.8 L 117.1 149.2 L 127.3 152.1 L 137.2 156.3 L 146.9 161.9 L 156.5 168.7 L 165.8 176.9 L 156.1 187.0 L 147.7 179.7 L 139.3 173.6 L 131.0 168.8 L 122.6 165.3 L 114.2 162.9 L 105.8 161.8 L 97.3 161.8 L 88.7 162.9 L 79.8 165.3 L 79.70120162963867 165.339519405365 L 79.8 165.7 L 77.1 166.5 L 74.2 167.6 L 71.1 168.9 L 67.8 170.5 L 64.3 172.4 L 60.6 174.6 L 56.7 177.0 L 52.6 179.7 L 48.4 182.7 L 44.89523811340332 185.3285714149475 L 43.2 186.7 L 34.3 175.9 L 35.56351690292358 174.8836929321289 L 35.5 174.8 L 37.7589147567749 173.11782941818237 L 43.5 168.5 L 52.8 161.3 L 62.1 154.5 L 71.6 147.9 L 81.1 141.6 L 87.90745344161988 137.41625261306763 L 81.0 137.8 L 74.3 137.2 L 67.9 134.8 L 62.8 130.0 L 60.1 123.2 L 73.8 120.7 L 74.3 122.1 L 75.1 122.7 L 77.1 123.5 L 81.1 123.8 L 86.7 123.5 L 93.6 122.5 L 101.6 120.9 L 110.5 119.0 L 120.1 116.7 L 130.5 114.3 Z M 128.0 32.6 L 126.6 36.1 L 126.14022989273072 37.57126436233521 L 126.8 37.1 L 129.7 35.4 L 132.7 33.8 L 135.7 32.4 L 138.9 31.2 L 142.0 30.2 L 142.09430055618287 30.526424884796143 L 147.8 29.1 L 153.8 28.2 L 159.4 28.0 L 164.7 28.8 L 169.6 30.8 L 173.8 33.9 L 177.0 38.1 L 179.0 43.0 L 179.79807558059693 47.6997784614563 L 179.8 47.7 L 179.79882287979126 47.70417890548706 L 179.9 48.3 L 179.62370691299438 48.325840377807616 L 177.8 54.8 L 173.9 61.4 L 168.3 67.4 L 161.2 73.2 L 152.5 78.9 L 142.3 84.6 L 130.5 90.3 L 120.91777505874634 94.34582834243774 L 125.5 94.0 L 126.5 108.0 L 121.0 108.4 L 115.8 108.6 L 110.7 108.8 L 105.7 108.9 L 100.9 109.0 L 96.3 108.9 L 91.8 108.8 L 87.5 108.6 L 83.3 108.3 L 79.2 107.9 L 80.7 94.0 L 81.39988470077515 94.05674743652344 L 97.1 88.6 L 111.8 83.0 L 124.7 77.5 L 135.9 72.2 L 145.3 66.9 L 152.9 61.9 L 158.8 57.2 L 162.8 52.9 L 165.0 49.1 L 165.57089548110963 47.19701490402222 L 165.5 46.8 L 164.8 44.9 L 163.9 43.8 L 162.9 43.0 L 161.2 42.4 L 158.6 42.0 L 155.1 42.1 L 150.6 42.8 L 145.4 44.1 L 139.36489362716674 46.177659606933595 L 138.9 46.4 L 136.6 47.6 L 134.4 48.9 L 132.2 50.4 L 130.1 52.0 L 127.9 53.9 L 125.8 55.8 L 123.8 58.0 L 123.79528245925903 57.9956488609314 L 118.3 64.2 L 115.7 61.4 L 113.6 58.3 L 112.0 54.9 L 111.1 51.3 L 110.6 47.5 L 110.7 43.6 L 111.2 39.7 L 112.1 35.6 L 113.4 31.4 L 115.1 27.1 Z M 79.4 16.9 L 76.6 25.8 L 75.0 30.2 L 75.06713047027588 30.43237476348877 L 78.2 30.3 L 84.6 31.3 L 90.2 33.6 L 94.9 37.3 L 98.3 42.0 L 100.2 47.4 L 101.0 53.2 L 100.8 59.2 L 100.03909530639649 63.91760902404785 L 100.3 64.0 L 99.1 67.5 L 97.5 71.0 L 95.6 74.4 L 93.5 77.6 L 91.1 80.8 L 88.4 84.0 L 85.4 87.0 L 82.2 89.9 L 78.8 92.8 L 75.0 95.6 L 74.81907072067261 95.34759244918823 L 74.6 95.6 L 73.3 94.5 L 71.6 93.2 L 67.1 90.2 L 64.4 88.5 L 61.3 86.7 L 57.9 84.7 L 54.2 82.7 L 50.1 80.5 L 48.04103193283081 79.42372121810914 L 46.1 82.0 L 40.2 89.0 L 34.0 95.8 L 23.9 86.1 L 29.7 79.8 L 35.1 73.3 L 40.2 66.6 L 44.9 59.6 L 49.3 52.5 L 49.633579349517824 51.87453870773315 L 46.1 52.8 L 42.4 53.7 L 39.2 54.5 L 36.8 55.03333330154419 L 35.1 55.6 L 31.2 56.2 L 27.2 55.8 L 23.4 54.1 L 20.3 51.2 L 18.4 47.7 L 17.3 44.1 L 16.8 40.2 L 16.6 35.9 L 16.9 31.3 L 30.8 32.6 L 30.6 36.2 L 30.7 39.1 L 31.0 41.2 L 31.31071424484253 42.13214282989502 L 31.6 42.1 L 31.636703491210938 42.0862361907959 L 31.6 41.9 L 32.81599998474121 41.64399995803833 L 33.2 41.5 L 33.22470989227295 41.55795583724976 L 33.5 41.5 L 35.9 40.9 L 39.0 40.1 L 42.5 39.2 L 46.6 38.1 L 51.3 36.9 L 56.4 35.5 L 57.97879247665405 35.0568302154541 L 60.3 29.5 L 63.3 21.3 L 65.9 13.0 Z M 76.62164945602417 44.33659791946411 L 72.1 45.6 L 68.02503385543824 46.78305463790893 L 65.8 51.4 L 61.4 59.4 L 56.7 67.2 L 56.25088062286377 67.86046962738037 L 56.7 68.1 L 60.9 70.4 L 64.8 72.5 L 68.4 74.6 L 71.6 76.5 L 74.29121141433716 78.20443391799927 L 75.7 76.9 L 78.1 74.5 L 80.2 72.0 L 82.0 69.6 L 83.6 67.1 L 85.0 64.7 L 86.1 62.3 L 86.15080642700195 62.15887098312378 L 86.8 57.8 L 87.0 53.8 L 86.6 50.6 L 85.8 48.4 L 84.7 46.8 L 83.3 45.7 L 81.0 44.8 L 77.5 44.3 Z " />
</g>
</svg>
