<svg xmlns="http://www.w3.org/2000/svg" xmlns:xlink="http://www.w3.org/1999/xlink" version="1.1" baseProfile="full" viewBox="0 0 200 200" width="200" height="200">
<g fill="black">
<path d="M 126.4 26.8 L 129.4 35.9 L 131.9 45.2 L 133.17745037078856 52.01306858062744 L 137.2 51.2 L 146.60964908599854 50.09298248291016 L 146.6 49.9 L 151.0 50.0 L 155.3 50.8 L 159.4 52.3 L 163.0 54.7 L 166.1 57.7 L 168.5 61.3 L 170.4 65.4 L 171.7 69.8 L 172.5 74.5 L 172.8845211982727 79.498775100708 L 172.9 79.5 L 172.89017343521118 79.57225437164307 L 172.9 79.7 L 172.87266626358033 79.70098323822022 L 171.2 92.0 L 168.0 104.1 L 163.5 115.8 L 157.6 127.2 L 150.3 138.2 L 141.7 148.8 L 131.9 159.0 L 120.7 168.8 L 108.2 178.3 L 94.5 187.4 L 87.1 175.5 L 100.1 166.9 L 111.8 158.0 L 122.2 148.9 L 131.3 139.5 L 139.0 129.9 L 145.5 120.1 L 150.7 110.1 L 154.7 99.8 L 157.4 89.2 L 158.89090909957886 79.13636360168456 L 158.6 76.3 L 158.1 72.9 L 157.3 70.2 L 156.3 68.1 L 155.3 66.6 L 154.2 65.6 L 153.1 64.8 L 151.6 64.3 L 149.7 63.9 L 148.49214286804198 63.9 L 148.5 64.0 L 139.4 65.1 L 135.08454189300537 65.93189554214477 L 135.7 74.9 L 135.9 85.3 L 135.4 96.0 L 134.4 106.9 L 132.9 118.1 L 119.0 115.8 L 119.07017545700073 115.3087718963623 L 118.8 115.0 L 117.3 113.8 L 115.0 112.2 L 112.0 110.4 L 108.3 108.4 L 104.0 106.2 L 99.0 103.9 L 93.4 101.4 L 87.2 98.8 L 87.21969156265259 98.75207147598266 L 78.3 95.6 L 81.6 87.8 L 85.8 80.6 L 90.9 74.1 L 96.7 68.3 L 103.4 63.3 L 110.8 59.2 L 118.9 55.8 L 119.60740566253662 55.585393810272215 L 118.2 48.3 L 116.0 39.9 L 113.2 31.7 L 110.0 23.7 L 122.7 18.0 Z M 53.8 29.8 L 51.1 52.1 L 49.2 72.5 L 47.8 90.9 L 47.2 107.3 L 47.2 121.8 L 47.774352359771726 133.66994819641113 L 48.9 130.6 L 51.5 124.2 L 54.4 117.5 L 57.6 110.3 L 61.2 102.8 L 73.8 108.9 L 70.3 116.2 L 67.2 123.1 L 64.4 129.6 L 62.0 135.6 L 60.0 141.2 L 58.2 146.4 L 56.9 151.1 L 55.9 155.4 L 55.3 159.1 L 54.95500001907349 161.86000003814698 L 55.3 162.4 L 44.6 171.5 L 40.4 164.8 L 37.3 156.6 L 35.2 146.8 L 33.8 135.4 L 33.2 122.1 L 33.2 107.0 L 33.9 90.1 L 35.2 71.3 L 37.2 50.6 L 39.9 28.1 Z M 116.9 71.8 L 111.0 75.1 L 105.8 79.0 L 101.3 83.4 L 97.6737159729004 88.04908199310303 L 99.0 88.6 L 104.8 91.1 L 110.1 93.6 L 114.8 96.0 L 118.9 98.2 L 121.06109981536865 99.52067213058471 L 121.5 95.0 L 121.9 85.1 L 121.7 75.5 L 121.34525213241577 69.94228267669678 Z " />
</g>
</svg>
