<svg xmlns="http://www.w3.org/2000/svg" xmlns:xlink="http://www.w3.org/1999/xlink" version="1.1" baseProfile="full" viewBox="0 0 200 200" width="200" height="200">
<g fill="black">
<path d="M 109.6 91.0 L 106.4 93.9 L 104.3 96.2 L 103.41702127456665 97.61276597976685 L 103.8 97.9 L 105.9 98.9 L 109.4 100.1 L 114.1 101.1 L 114.04786500930786 101.41054344177246 L 122.5 112.0 L 118.9 115.2 L 115.8 118.2 L 113.4 121.1 L 111.9 123.5 L 111.34390239715576 124.89024391174317 L 112.3 125.3 L 115.7 126.0 L 121.0 125.6 L 127.7 124.9 L 135.3 124.4 L 143.3 125.3 L 151.4 128.9 L 157.5 136.5 L 160.3 147.1 L 159.96418132781983 158.60179090499878 L 160.0 158.6 L 159.9604040145874 158.73116159439087 L 159.9 160.8 L 159.35593662261962 160.73345985412598 L 156.8 169.2 L 149.0 176.5 L 138.7 181.6 L 126.5 185.1 L 113.0 187.2 L 98.8 187.6 L 84.8 186.3 L 71.5 182.9 L 59.6 177.0 L 52.43442621231079 170.0655737876892 L 52.3 170.2 L 51.90652589797973 169.55470247268676 L 50.3 168.0 L 50.75824575424194 167.67152299880982 L 47.3 162.0 L 48.1 152.7 L 53.8 146.3 L 61.5 142.8 L 70.5 141.6 L 80.4 142.7 L 90.6 146.3 L 100.4 152.8 L 108.9 162.5 L 114.10593538284301 172.83299293518067 L 123.5 171.4 L 133.8 168.5 L 141.4 164.8 L 145.3 161.2 L 146.0 159.3 L 147.1607515335083 159.24196243286133 L 146.0 159.1 L 146.4 148.4 L 145.0 142.6 L 143.0 140.2 L 140.1 138.9 L 135.3 138.4 L 129.2 138.8 L 122.5 139.6 L 115.6 140.0 L 114.21209087371827 139.78795833587645 L 114.2 139.9 L 111.78823528289794 139.41764707565306 L 108.4 138.9 L 108.06065578460694 138.63442621231079 L 103.1 136.3 L 99.1 132.2 L 97.2 126.7 L 97.7 121.5 L 99.5 116.9 L 102.2 112.7 L 102.37091121673583 112.49283485412597 L 100.8 112.0 L 96.4 109.8 L 92.6 106.6 L 89.9 102.2 L 89.3 96.9 L 90.6 92.0 L 93.1 87.8 L 96.5 84.0 L 100.7 80.2 Z M 65.2 156.3 L 61.7 157.8 L 60.927272701263426 158.57272729873657 L 62.2 160.3 L 62.117543888092044 160.38245611190797 L 67.5 165.4 L 76.2 169.7 L 87.1 172.5 L 99.00731468200684 173.58248319625855 L 97.4 170.4 L 91.2 163.4 L 84.4 158.8 L 77.3 156.3 L 70.7 155.6 Z M 77.5 16.6 L 75.0 25.5 L 73.73042039871216 29.399422931671143 L 77.0 28.8 L 82.8 28.8 L 88.2 30.2 L 92.9 33.1 L 96.6 37.1 L 99.1 41.9 L 100.5 47.1 L 101.0 52.8 L 100.8 58.9 L 100.01708459854126 63.910658264160155 L 100.3 64.0 L 99.1 67.5 L 97.5 71.0 L 95.6 74.3 L 93.4 77.6 L 91.0 80.7 L 88.3 83.7 L 85.3 86.6 L 82.1 89.4 L 78.6 92.2 L 74.8 94.8 L 74.6388882637024 94.55519390106201 L 74.6 94.6 L 73.3 93.5 L 71.6 92.2 L 67.1 89.2 L 64.4 87.5 L 61.3 85.7 L 57.9 83.7 L 54.2 81.7 L 50.1 79.5 L 47.96285715103149 78.382857131958 L 46.0 81.0 L 40.2 88.1 L 34.0 94.8 L 23.9 85.1 L 29.7 78.8 L 35.0 72.4 L 40.0 65.7 L 44.6 58.9 L 48.8 51.8 L 50.673036861419675 48.201797580718996 L 46.2 48.5 L 40.5 48.6 L 35.1 48.3 L 29.9 47.6 L 24.9 46.4 L 20.3 44.8 L 25.5 31.8 L 28.8 32.9 L 32.4 33.8 L 36.4 34.3 L 40.8 34.6 L 45.6 34.5 L 50.8 34.2 L 56.3 33.4 L 57.48055620193482 33.199905681610105 L 59.0 29.3 L 61.7 21.4 L 63.9 13.2 Z M 128.0 31.5 L 127.0 34.3 L 126.81818180084228 34.890909099578856 L 130.0 33.3 L 133.4 31.9 L 136.2158013343811 30.9613995552063 L 136.2 30.9 L 136.775 30.775 L 137.0 30.7 L 140.8 29.8 L 144.9 29.0 L 144.9175269126892 29.11601142883301 L 149.5 28.4 L 155.4 28.1 L 160.9 28.5 L 166.0 29.8 L 170.6 32.0 L 174.6 35.3 L 177.5 39.6 L 179.2 44.4 L 179.690354347229 48.0426323890686 L 180.0 48.0 L 179.84306221008302 49.177033519744874 L 179.9 49.6 L 179.78590049743653 49.60574598312378 L 179.0 55.5 L 175.0 61.0 L 169.8 64.8 L 164.0 67.9 L 157.6 70.7 L 151.0 73.3 L 144.5 75.8 L 138.4 78.3 L 133.2 80.9 L 129.3 83.5 L 120.6 72.4 L 126.3 68.7 L 132.6 65.6 L 139.3 62.8 L 146.0 60.2 L 152.3 57.7 L 158.0 55.3 L 162.5 52.9 L 165.3 50.8 L 165.9635036468506 50.06277370452881 L 165.6 47.7 L 165.0 45.9 L 164.2 44.7 L 163.1 43.8 L 161.4 43.0 L 158.8 42.4 L 155.3 42.1 L 150.9 42.4 L 146.52727270126343 42.98863639831543 L 144.7454545021057 43.322727298736574 L 140.36666669845582 44.34444446563721 L 138.1 45.1 L 135.8 46.0 L 133.8 47.0 L 132.1 48.2 L 130.6 49.3 L 129.4 50.5 L 128.5 51.8 L 127.80666666030884 53.013333320617676 L 128.0 53.4 L 115.9 60.5 L 114.3 57.4 L 113.1 54.2 L 112.1 50.9 L 111.6 47.5 L 111.4 44.0 L 111.5 40.5 L 111.9 37.0 L 112.7 33.4 L 113.7 29.8 L 115.1 26.2 Z M 78.9 42.7 L 71.8 44.6 L 67.52714595794677 45.542541313171384 L 65.2 50.7 L 61.0 58.6 L 56.4 66.3 L 56.08524589538574 66.77213115692139 L 56.7 67.1 L 60.9 69.4 L 64.8 71.5 L 68.4 73.6 L 71.6 75.5 L 74.57466220855713 77.38395271301269 L 75.8 76.3 L 78.2 74.0 L 80.3 71.7 L 82.1 69.3 L 83.7 67.0 L 85.0 64.6 L 86.1 62.2 L 86.20786514282227 61.91235952377319 L 86.9 57.5 L 87.0 53.1 L 86.7 49.5 L 86.0 46.8 L 85.1 45.0 L 84.0 43.9 L 82.8 43.2 L 81.1 42.7 Z " />
</g>
</svg>
