<svg xmlns="http://www.w3.org/2000/svg" xmlns:xlink="http://www.w3.org/1999/xlink" version="1.1" baseProfile="full" viewBox="0 0 200 200" width="200" height="200">
<g fill="black">
<path d="M 128.3 100.5 L 127.9 112.0 L 126.9 123.0 L 125.3 133.5 L 123.0 143.5 L 120.0 153.1 L 116.3 162.2 L 112.0 170.8 L 107.0 178.8 L 101.4 186.4 L 90.5 177.5 L 95.5 171.0 L 99.8 163.9 L 103.6 156.4 L 106.8 148.4 L 109.5 139.9 L 111.5 130.8 L 113.0 121.2 L 114.0 111.1 L 114.3 100.5 L 114.0 89.3 L 128.0 88.6 Z M 48.6 16.3 L 52.6 16.9 L 56.3 17.8 L 59.9 19.0 L 63.1 20.6 L 66.1 22.6 L 68.7 25.0 L 70.9 27.8 L 72.6 30.9 L 73.69671154022217 34.28983554840088 L 73.9 34.3 L 72.73887844085694 64.66779375076294 L 76.5 63.4 L 86.2 59.5 L 91.7 72.4 L 81.4 76.5 L 72.3138500213623 79.62336406707763 L 71.9 96.0 L 71.88620042800903 99.06350536346436 L 80.5 92.4 L 92.0 83.0 L 104.2 72.1 L 117.1 59.9 L 117.21055030822754 60.015109062194824 L 123.2 54.4 L 132.3 47.8 L 141.0 43.5 L 149.5 41.6 L 157.7 42.4 L 164.8 46.3 L 169.9 52.6 L 172.9 60.4 L 174.2 69.4 L 173.9 79.6 L 173.54281091690063 79.56659383773804 L 172.5 85.6 L 170.0 92.7 L 166.4 98.7 L 161.9 103.5 L 156.7 107.0 L 150.9 108.9 L 144.8 109.3 L 138.9 107.9 L 133.6 104.7 L 129.2 99.9 L 140.7 92.0 L 142.4 93.8 L 144.2 94.9 L 146.1 95.3 L 148.2 95.2 L 150.5 94.4 L 152.9 92.8 L 155.2 90.3 L 157.3 86.8 L 159.0 82.2 L 159.9 76.4 L 160.0460615158081 76.41147623062133 L 160.2 70.1 L 159.3 63.8 L 157.6 59.4 L 155.7 57.0 L 153.6 55.8 L 150.6 55.5 L 145.9 56.6 L 139.6 59.7 L 132.2 65.2 L 123.7 73.1 L 123.60110549926758 73.00502214431762 L 113.6 82.4 L 101.1 93.6 L 89.3 103.4 L 78.0 111.9 L 71.80925636291504 116.1450813293457 L 71.8 118.2 L 71.9 135.6 L 72.1 149.0 L 72.0 159.4 L 71.4 167.5 L 70.0 174.4 L 67.1 180.5 L 63.1 185.7 L 62.53658943176269 185.180349445343 L 62.4 185.4 L 60.3 183.9 L 58.3 182.2 L 56.1 180.3 L 53.7 178.0 L 51.2 175.4 L 48.4 172.5 L 45.5 169.2 L 42.4 165.6 L 39.1 161.7 L 35.5 157.4 L 46.4 148.5 L 49.8 152.7 L 53.0 156.5 L 56.0 159.9 L 57.78824672698975 161.87984457015992 L 58.0 159.0 L 58.1 149.1 L 57.9 135.7 L 57.83771858215332 124.80074605941772 L 57.5 125.0 L 48.0 129.6 L 39.1 132.8 L 30.6 134.7 L 22.5 135.0 L 23.4 121.0 L 28.8 120.8 L 35.2 119.4 L 42.6 116.7 L 50.8 112.7 L 57.843212032318114 108.52051153182984 L 57.9 95.8 L 58.21513481140137 83.1946078300476 L 54.6 83.9 L 46.9 84.6 L 39.8 84.5 L 33.2 83.3 L 27.2 81.0 L 22.0 77.5 L 17.8 72.8 L 29.3 64.8 L 31.2 66.9 L 33.7 68.6 L 36.9 69.8 L 41.1 70.6 L 46.3 70.7 L 52.5 70.0 L 58.574946880340576 68.80212316513061 L 58.6 67.8 L 59.79395046234131 36.38991746902466 L 59.2 35.4 L 58.5 34.5 L 57.5 33.7 L 56.3 32.8 L 54.6 32.0 L 52.5 31.3 L 50.0 30.7 L 47.0 30.3 L 43.6 30.0 L 44.3 16.0 Z M 142.0 137.7 L 147.7 140.4 L 153.1 143.5 L 158.1 147.1 L 162.8 151.2 L 167.1 155.8 L 171.0 160.8 L 174.5 166.2 L 177.7 172.1 L 180.4 178.4 L 167.5 183.5 L 165.1 178.2 L 162.5 173.4 L 159.6 168.9 L 156.5 164.9 L 153.1 161.3 L 149.4 158.1 L 145.5 155.3 L 141.2 152.8 L 136.7 150.7 L 131.8 148.9 L 136.0 135.6 Z " />
</g>
</svg>
