<svg xmlns="http://www.w3.org/2000/svg" xmlns:xlink="http://www.w3.org/1999/xlink" version="1.1" baseProfile="full" viewBox="0 0 200 200" width="200" height="200">
<g fill="black">
<path d="M 60.5 134.1 L 57.4 136.6 L 55.984949588775635 137.96788206100464 L 61.2 136.6 L 67.33540201187134 135.27852878570556 L 67.3 134.9 L 74.7 135.0 L 81.3 136.8 L 87.0 139.8 L 91.6 143.6 L 95.4 147.8 L 98.8 152.0 L 100.76830224990844 154.60323848724366 L 101.9 153.0 L 104.6 149.8 L 107.7 146.8 L 111.1 144.1 L 114.8 141.6 L 118.9 139.3 L 123.2 137.2 L 127.9 135.3 L 132.00078916549683 133.90573167800903 L 132.0 133.9 L 132.02457914352416 133.89764308929443 L 132.9 133.6 L 132.96550035476685 133.80741777420045 L 139.3 133.2 L 146.4 133.5 L 153.1 134.8 L 159.4 137.1 L 165.2 140.4 L 170.3 144.7 L 174.9 149.8 L 178.7 155.8 L 182.0 162.5 L 184.6 169.9 L 171.3 174.0 L 169.1 167.9 L 166.5 162.6 L 163.7 158.2 L 160.6 154.7 L 157.2 151.9 L 153.5 149.8 L 149.4 148.3 L 144.8 147.5 L 139.7 147.2 L 135.10427484512329 147.59618320465088 L 132.8 148.4 L 128.9 150.0 L 125.3 151.7 L 122.2 153.5 L 119.3 155.4 L 116.9 157.4 L 114.8 159.4 L 113.0 161.5 L 111.5 163.7 L 110.3 165.9 L 110.21306781768799 165.85961418151857 L 103.2 176.8 L 98.3 173.1 L 94.3 168.9 L 90.8 164.6 L 87.7 160.5 L 84.7 156.8 L 81.9 153.7 L 79.0 151.4 L 76.1 149.8 L 72.8 148.9 L 70.17054233551025 148.83739385604858 L 70.2 149.0 L 64.4 150.2 L 59.1 151.6 L 54.3 153.2 L 50.1 154.9 L 46.4 156.8 L 43.3 158.8 L 40.6 161.0 L 38.4 163.2 L 36.6 165.5 L 35.3 167.9 L 35.18268632888794 167.84549989700318 L 34.9 168.4 L 32.3 173.8 L 19.6 168.1 L 22.3 162.2 L 25.1 156.7 L 28.1 151.4 L 31.1 146.5 L 34.3 141.8 L 37.6 137.4 L 41.0 133.4 L 44.5 129.6 L 48.1 126.2 L 51.9 123.0 Z M 98.13311672210693 29.746962451934813 L 98.9 29.5 L 111.5 26.3 L 111.61078624725342 26.805924034118654 L 118.8 26.5 L 127.5 26.8 L 135.4 28.0 L 142.5 30.1 L 148.9 33.2 L 154.3 37.4 L 158.6 42.7 L 161.6 48.8 L 163.4 55.6 L 163.8137650489807 60.70310201644897 L 163.9 60.7 L 163.86959619522094 61.39168643951416 L 164.0 63.0 L 163.7989010810852 63.0 L 163.5 69.8 L 161.6 78.3 L 158.2 86.0 L 153.5 92.9 L 149.63036441802979 96.6384614944458 L 147.31525421142578 100.6372880935669 L 145.5 104.7 L 143.42101907730103 107.36369428634643 L 143.4 107.4 L 143.3955309867859 107.39635095596313 L 142.3 108.8 L 138.4 112.4 L 133.6 115.6 L 128.2 118.5 L 121.9 121.1 L 115.0 123.5 L 107.2 125.7 L 98.6 127.8 L 89.2 129.7 L 86.7 115.9 L 95.6 114.1 L 103.7 112.2 L 110.8 110.2 L 117.0 108.0 L 121.83081569671631 105.95619335174561 L 114.5 105.0 L 105.73202562332153 101.95428256988525 L 105.4 102.3 L 105.00273542404175 101.70095014572144 L 105.0 101.7 L 105.00084972381592 101.69810676574707 L 99.1 92.8 L 100.4 82.1 L 107.5 75.6 L 116.1 72.6 L 125.5 71.6 L 135.0 72.8 L 143.8 76.6 L 145.9406174659729 79.38620052337646 L 146.0 79.3 L 148.3 73.9 L 149.6 67.9 L 149.93949575424193 62.213445377349856 L 149.6 57.8 L 148.5 53.6 L 146.8 50.3 L 144.6 47.5 L 141.5 45.1 L 137.5 43.2 L 132.4 41.7 L 126.2 40.7 L 118.9 40.5 L 111.37146978378296 40.76887607574463 L 102.7 42.9 L 97.1536849975586 44.69741687774658 L 95.3 54.8 L 92.0 65.1 L 87.6 74.9 L 83.53451328277588 81.50641593933105 L 88.1 83.3 L 83.8 96.6 L 76.4 93.7 L 74.81362867355347 92.77658977508545 L 67.3 100.1 L 66.37915058135987 100.82644786834717 L 66.2 101.0 L 63.2 103.7 L 60.4 106.0 L 57.6 107.9 L 55.0 109.5 L 54.11843194961548 109.83438787460327 L 49.36736946105957 112.82755727767945 L 48.8 113.6 L 48.50445671081543 113.37119226455688 L 48.3 113.5 L 48.006873512268065 112.98596658706666 L 45.7 111.2 L 42.7 108.8 L 39.9 106.3 L 37.2 103.8 L 34.7 101.2 L 32.3 98.5 L 30.1 95.8 L 28.0 93.0 L 26.1 90.2 L 24.457723903656007 87.39847011566162 L 23.6 87.0 L 28.4 78.0 L 34.1 69.6 L 40.8 61.9 L 46.6045482635498 56.48242158889771 L 44.6 48.9 L 43.0 39.5 L 42.0 29.4 L 56.0 28.5 L 56.8 37.6 L 58.3 45.9 L 58.66558790206909 47.32386856079101 L 66.0 42.7 L 76.2 37.7 L 84.00401973724365 34.549753475189206 L 84.2 32.1 L 84.0 21.4 L 97.9 20.5 Z M 50.9 71.6 L 45.2 78.2 L 40.4 85.3 L 40.128439044952394 85.80338115692139 L 41.1 87.2 L 44.9 91.6 L 49.3 96.0 L 49.5299635887146 96.19316940307617 L 50.3 95.7 L 56.070260238647464 91.18736057281494 L 56.6 90.7 L 59.5 88.0 L 62.7 84.7 L 63.00869455337524 84.36406774520874 L 58.3 79.3 L 53.7 72.8 L 52.34947738647461 70.24111499786378 Z M 119.0 86.2 L 114.2 87.9 L 112.70722351074218 89.04153499603271 L 113.3690058708191 89.91508769989014 L 117.7 91.4 L 124.0 92.2 L 129.6 91.7 L 134.7 90.1 L 136.53489360809326 88.97404251098632 L 135.7 88.0 L 131.6 86.3 L 125.4 85.6 Z M 72.8 55.0 L 64.7 60.0 L 63.307324504852296 61.05391654968262 L 65.7 65.6 L 69.2 70.5 L 71.98481168746949 73.49902791976929 L 75.2 68.3 L 79.0 60.1 L 81.7 51.4 L 81.88104410171509 50.40958204269409 Z " />
</g>
</svg>
