<svg xmlns="http://www.w3.org/2000/svg" xmlns:xlink="http://www.w3.org/1999/xlink" version="1.1" baseProfile="full" viewBox="0 0 200 200" width="200" height="200">
<g fill="black">
<path d="M 113.0 15.8 L 115.7 17.2 L 118.4 18.9 L 120.9 20.8 L 123.3 23.0 L 125.7 25.5 L 127.9 28.1 L 130.0 31.0 L 132.1 34.2 L 133.85701751708984 37.09907894134521 L 133.9 37.1 L 133.89883623123168 37.16807975769043 L 134.1 37.5 L 133.8911597251892 37.61715431213379 L 133.7 48.8 L 133.6714383125305 51.913219928741455 L 137.2 51.2 L 146.60964908599854 50.09298248291016 L 146.6 49.9 L 151.0 50.0 L 155.3 50.8 L 159.4 52.3 L 163.0 54.7 L 166.1 57.7 L 168.5 61.3 L 170.4 65.4 L 171.7 69.8 L 172.5 74.5 L 172.8845211982727 79.498775100708 L 172.9 79.5 L 172.89017343521118 79.57225437164307 L 172.9 79.7 L 172.87266626358033 79.70098323822022 L 171.2 92.0 L 168.0 104.1 L 163.5 115.8 L 157.6 127.2 L 150.3 138.2 L 141.7 148.8 L 131.9 159.0 L 120.7 168.8 L 108.2 178.3 L 94.5 187.4 L 87.1 175.5 L 100.1 166.9 L 111.8 158.0 L 122.2 148.9 L 131.3 139.5 L 139.0 129.9 L 145.5 120.1 L 150.7 110.1 L 154.7 99.8 L 157.4 89.2 L 158.89090909957886 79.13636360168456 L 158.6 76.3 L 158.1 72.9 L 157.3 70.2 L 156.3 68.1 L 155.3 66.6 L 154.2 65.6 L 153.1 64.8 L 151.6 64.3 L 149.7 63.9 L 148.49214286804198 63.9 L 148.5 64.0 L 139.4 65.1 L 133.47043466567993 66.24304876327514 L 133.4 69.8 L 133.3 79.0 L 133.2 87.3 L 133.1 94.7 L 133.0 101.3 L 133.0 116.0 L 119.0 116.0 L 119.0 115.22857141494751 L 118.8 115.0 L 117.3 113.8 L 115.0 112.2 L 112.0 110.4 L 108.3 108.4 L 104.0 106.2 L 99.0 103.9 L 93.4 101.4 L 87.2 98.8 L 87.21969156265259 98.75207147598266 L 78.3 95.6 L 81.6 87.8 L 85.8 80.6 L 90.9 74.1 L 96.7 68.3 L 103.4 63.3 L 110.8 59.2 L 118.9 55.8 L 119.63599338531495 55.57672109603882 L 119.7 48.6 L 119.82827987670899 41.031486892700194 L 118.5 39.0 L 116.8 36.8 L 115.2 34.8 L 113.5 33.0 L 111.9 31.5 L 110.3 30.3 L 108.7 29.3 L 107.2 28.5 L 105.7 27.9 L 110.1 14.6 Z M 43.4 25.1 L 46.1 26.1 L 48.6 27.4 L 51.0 28.9 L 53.1 30.8 L 55.0 32.9 L 56.5 35.2 L 57.7 37.8 L 58.5 40.5 L 58.9 43.3 L 58.57710065841675 43.330199241638184 L 55.1 63.1 L 52.3 81.2 L 50.2 97.6 L 48.9 112.3 L 48.4 125.3 L 48.513467502594 131.65417957305908 L 48.9 130.6 L 51.5 124.2 L 54.4 117.5 L 57.6 110.3 L 61.2 102.8 L 73.8 108.9 L 70.3 116.2 L 67.2 123.1 L 64.4 129.6 L 62.0 135.6 L 60.0 141.2 L 58.2 146.4 L 56.9 151.1 L 55.9 155.4 L 55.3 159.1 L 54.95342464447022 161.87260274887086 L 55.3 162.4 L 44.6 171.5 L 40.4 165.0 L 37.5 157.1 L 35.6 147.9 L 34.6 137.2 L 34.4 125.1 L 35.0 111.4 L 36.3 96.1 L 38.4 79.2 L 41.3 60.7 L 44.542045497894286 42.598579502105714 L 43.8 41.3 L 43.3 40.8 L 42.6 40.2 L 41.7 39.6 L 40.5 39.0 L 39.1 38.5 L 37.4 38.0 L 40.5 24.4 Z M 116.9 71.8 L 111.0 75.1 L 105.8 79.0 L 101.3 83.4 L 97.6737159729004 88.04908199310303 L 99.0 88.6 L 104.8 91.1 L 110.1 93.6 L 114.8 96.0 L 118.9 98.2 L 119.0441201210022 98.28807334899902 L 119.1 94.6 L 119.2 87.1 L 119.3 78.8 L 119.38738594055175 70.76049547195434 Z " />
</g>
</svg>
