<svg xmlns="http://www.w3.org/2000/svg" xmlns:xlink="http://www.w3.org/1999/xlink" version="1.1" baseProfile="full" viewBox="0 0 200 200" width="200" height="200">
<g fill="black">
<path d="M 73.9 30.8 L 78.6 33.9 L 80.29024391174316 36.90487804412842 L 80.7 36.7 L 80.8545150756836 37.9080267906189 L 81.3 38.7 L 82.0 44.0 L 81.6337209701538 44.0 L 81.8 45.3 L 79.0 52.2 L 74.7 58.0 L 69.7 63.4 L 64.6 68.5 L 60.0 73.2 L 56.8 77.2 L 55.89501962661743 78.87073307037353 L 60.2 83.0 L 63.798080921173096 87.1838150024414 L 69.7 80.4 L 80.2 89.5 L 71.7 99.5 L 71.6415298461914 99.57001037597657 L 73.9 104.9 L 75.9 111.2 L 77.3 117.7 L 78.1 124.4 L 78.3 131.4 L 77.9 138.6 L 77.51522016525269 138.5640133857727 L 76.7 143.9 L 74.9 150.5 L 72.5 156.7 L 69.4 162.3 L 65.7 167.3 L 61.3 171.6 L 56.3 175.3 L 50.7 178.2 L 44.6 180.4 L 42.88705883026123 180.7952940940857 L 40.6 181.6 L 38.3241379737854 181.84827585220336 L 38.1 181.9 L 38.09556722640991 181.873210811615 L 35.1 182.2 L 29.7 181.1 L 25.1 178.2 L 21.6 174.0 L 19.6 169.0 L 18.8 163.5 L 19.0 157.6 L 20.2 151.2 L 21.27960443496704 147.91211376190185 L 21.2 147.9 L 22.4 143.6 L 24.4 139.3 L 27.1 134.5 L 30.7 129.0 L 35.1 122.8 L 40.3 115.9 L 46.4 108.2 L 53.3 99.7 L 54.542430305480956 98.19940242767333 L 53.4 96.6 L 50.0 92.6 L 48.203034019470216 90.89518604278564 L 48.2 90.9 L 48.16274089813233 90.85695934295654 L 46.1 88.9 L 46.28456792831421 88.68734569549561 L 42.4 84.2 L 42.0 75.8 L 45.2 69.3 L 49.6 63.8 L 54.7 58.6 L 59.7 53.6 L 64.1 48.9 L 67.1 45.0 L 67.11909818649292 44.95331563949585 L 66.7 45.1 L 64.3 46.2 L 61.6 47.6 L 59.519672107696536 48.755737686157225 L 58.3 49.7 L 54.8 51.5 L 51.2 52.9 L 47.4 53.7 L 43.5 54.1 L 39.6 53.9 L 35.6 53.2 L 31.6 52.1 L 27.6 50.6 L 23.6 48.6 L 30.1 36.2 L 33.2 37.7 L 36.0 38.8 L 38.7 39.5 L 41.1 40.0 L 43.3 40.1 L 45.3 39.9 L 47.2 39.5 L 49.0 38.8 L 49.52327041625976 38.522974491119385 L 49.4 38.3 L 52.0 36.9 L 52.35842695236206 36.70224723815918 L 52.5 36.6 L 52.51376190185547 36.6165452003479 L 54.9 35.3 L 58.1 33.6 L 61.5 32.1 L 65.2 30.9 L 69.2 30.2 Z M 141.3 26.4 L 147.4 28.2 L 152.9 31.4 L 157.7 35.8 L 161.8 41.2 L 161.22235031127929 41.570288276672365 L 162.0 41.4 L 162.6 46.1 L 162.3 50.7 L 161.0 55.2 L 158.8 59.3 L 156.0 63.1 L 152.4 66.5 L 148.3 69.6 L 143.6 72.5 L 138.3 75.1 L 133.69679765701295 76.97248907089234 L 132.9 77.7 L 132.44651165008545 78.00837211608886 L 131.2 81.0 L 129.7 84.4 L 128.4 87.4 L 127.8 89.6 L 127.75641546249389 89.86150712966919 L 134.4 96.6 L 136.39854526519775 99.22966480255127 L 137.4 98.2 L 144.1 92.4 L 150.6 88.2 L 157.3 85.7 L 164.2 85.4 L 170.8 88.0 L 175.7 92.9 L 175.4805595397949 93.05456237792968 L 177.6 96.7 L 178.9 101.5 L 178.5 106.5 L 176.8 111.2 L 174.0 115.3 L 170.4 119.1 L 166.0 122.7 L 160.9 126.2 L 157.56461992263795 128.11374273300171 L 161.5 131.5 L 165.5 135.3 L 169.2 139.2 L 172.5 143.2 L 175.5 147.3 L 178.2 151.6 L 180.5 155.9 L 182.4 160.4 L 169.5 165.5 L 167.9 162.1 L 166.1 158.6 L 163.9 155.2 L 161.4 151.8 L 158.7 148.5 L 155.6 145.2 L 152.1 141.9 L 148.99353551864624 139.12936954498292 L 147.9 146.7 L 145.2 155.6 L 141.1 164.7 L 136.8644109725952 171.97242650985717 L 136.9 172.0 L 136.7595217704773 172.15251922607422 L 135.8 173.8 L 135.45265369415284 173.5714045524597 L 133.4 175.8 L 129.5 178.8 L 124.9 180.8 L 119.9 181.3 L 115.1 180.2 L 110.7 177.9 L 106.9 174.6 L 103.4 170.6 L 100.4910099029541 166.49319047927855 L 96.5 170.3 L 87.4 159.6 L 93.0 154.4 L 98.0 148.7 L 102.3 142.9 L 105.6 137.5 L 107.59862270355225 133.02689208984376 L 95.8 126.6 L 99.9 117.5 L 101.6 111.0 L 101.6 107.4 L 101.47624998092651 107.11125001907348 L 99.6 108.0 L 96.9 110.7 L 94.2 115.2 L 92.0 121.6 L 78.4 118.4 L 81.5 109.2 L 86.0 101.9 L 91.5 96.6 L 98.0 93.5 L 105.3 93.4 L 111.9 97.5 L 115.3 104.6 L 115.5 112.8 L 114.29305629730224 117.57748556137085 L 116.3 118.0 L 118.2029013633728 120.15422792434693 L 122.6 114.4 L 126.73187971115112 109.6241909980774 L 123.8 105.8 L 118.0 99.8 L 118.20326480865478 99.57727365493774 L 116.8 98.6 L 113.9 92.6 L 114.0 87.1 L 115.3 82.5 L 117.0 78.5 L 117.95074625015259 76.40835819244384 L 116.8 73.8 L 116.3 70.8 L 116.2 67.8 L 116.5 64.5 L 117.0 60.8 L 130.68137130737304 63.0638240814209 L 132.5 62.3 L 136.9 60.2 L 140.5 58.0 L 143.4 55.8 L 145.6 53.8 L 147.0 51.8 L 148.0 50.0 L 148.5 48.3 L 148.58675622940063 46.73838768005371 L 147.4 45.2 L 144.6 42.7 L 141.9 41.1 L 138.9 40.2 L 135.5 40.0 L 131.4 40.6 L 126.7 42.1 L 121.4 44.6 L 115.5 48.2 L 109.0 52.9 L 100.4 41.8 L 107.7 36.6 L 114.7 32.3 L 121.6 29.1 L 128.2 27.0 L 134.8 26.1 Z M 57.3 116.9 L 51.4 124.4 L 46.4 131.1 L 42.3 136.9 L 39.1 141.8 L 36.8 145.8 L 35.4 148.7 L 35.217166900634766 149.29420747756959 L 35.5 149.4 L 33.8 154.7 L 32.9 159.2 L 32.8 162.8 L 33.2 165.4 L 33.8 167.0 L 34.3 167.7 L 34.8 168.0 L 35.7 168.2 L 35.830552101135254 168.1846408843994 L 35.8 168.0 L 39.86217613220215 167.08808288574218 L 40.1 167.0 L 40.11459541320801 167.03141736984253 L 40.7 166.9 L 45.1 165.4 L 48.9 163.4 L 52.2 161.0 L 55.1 158.1 L 57.7 154.7 L 59.8 150.8 L 61.6 146.2 L 62.9 141.0 L 63.9 135.1 L 64.10702476501464 135.1238302230835 L 64.3 131.2 L 64.1 125.4 L 63.5 119.9 L 62.4 114.7 L 61.4602575302124 111.8220386505127 Z M 133.5 123.2 L 125.7 133.3 L 117.92734174728393 144.21873416900635 L 113.9 150.8 L 110.28914871215821 155.63854064941407 L 111.9 158.4 L 114.4 162.1 L 116.7 164.7 L 118.7 166.4 L 120.0 167.1 L 120.8 167.3 L 121.4 167.2 L 122.3 166.8 L 123.9 165.6 L 125.40756645202637 163.85439672470093 L 128.7 158.2 L 132.1 150.7 L 134.2 143.6 L 135.2 136.8 L 135.2 130.3 L 134.0 124.0 L 133.64875755310058 123.02610034942627 Z M 160.4 99.4 L 157.1 100.6 L 152.6 103.6 L 147.0 108.3 L 144.07118644714356 111.320339012146 L 144.5 112.1 L 146.68741855621337 118.15185785293579 L 148.1 117.4 L 153.4 114.4 L 157.7 111.5 L 161.0 108.8 L 163.2 106.5 L 164.4 104.6 L 164.9 103.5 L 164.9 102.8 L 164.8 102.2 L 164.1 101.1 L 164.44155254364014 100.82986297607422 L 164.2 101.0 L 162.9 99.6 L 162.0 99.2 Z " />
</g>
</svg>
