<svg xmlns="http://www.w3.org/2000/svg" xmlns:xlink="http://www.w3.org/1999/xlink" version="1.1" baseProfile="full" viewBox="0 0 200 200" width="200" height="200">
<g fill="black">
<path d="M 81.2 17.7 L 84.4 18.4 L 87.5 19.3 L 90.4 20.5 L 93.1 21.9 L 95.7 23.5 L 98.1 25.4 L 100.3 27.5 L 102.3 29.8 L 103.63674840927123 31.765806484222413 L 104.0 31.7 L 105.7 41.4 L 107.0 51.2 L 108.1 60.8 L 108.8 70.4 L 109.05499057769775 76.51977405548095 L 109.2 76.5 L 119.8 75.3 L 129.8 74.3 L 139.3 73.7 L 146.7 73.37472524642945 L 146.7 70.0 L 145.8 61.8 L 144.1 54.2 L 142.48275861740112 49.34827585220337 L 142.0 48.9 L 140.5 47.7 L 138.9 46.6 L 137.3 45.6 L 135.5 44.7 L 133.7 43.9 L 131.7 43.2 L 129.6 42.5 L 127.5 42.0 L 130.4 28.3 L 133.3 29.0 L 136.2 29.9 L 138.9 30.9 L 141.6 32.1 L 144.1 33.4 L 146.6 34.9 L 148.9 36.5 L 151.1 38.3 L 153.2 40.2 L 155.2 42.3 L 154.91799631118775 42.549774742126466 L 157.6 50.5 L 159.6 59.5 L 160.7 69.2 L 160.7 73.43703699111938 L 165.1 73.6 L 172.8 74.1 L 180.0 75.0 L 177.9 88.9 L 171.4 88.1 L 164.4 87.5 L 159.89788990020753 87.38152341842651 L 159.7 89.4 L 157.3 99.6 L 153.6 109.4 L 148.4 118.6 L 141.5 126.9 L 132.7 133.8 L 132.54436340332032 133.5572069168091 L 131.1 134.7 L 121.3 140.7 L 111.7 145.9 L 102.9 150.4 L 95.7 154.4 L 91.1 157.7 L 90.33199996948242 158.53199996948243 L 92.2 160.4 L 92.13240556716919 160.4882703781128 L 92.9 161.0 L 96.0 162.1 L 100.9 163.1 L 107.0 163.6 L 114.0 163.7 L 121.5 163.4 L 129.2 162.7 L 136.8 161.7 L 143.9 160.5 L 150.3 159.1 L 153.6 172.8 L 146.5 174.3 L 138.8 175.6 L 130.7 176.6 L 122.5 177.3 L 114.3 177.7 L 106.4 177.6 L 99.1 176.9 L 92.3 175.6 L 86.3 173.3 L 83.84193964004517 171.31464357376097 L 83.7 171.5 L 82.79891700744629 170.47220220565796 L 81.1 169.1 L 81.39174118041993 168.8671422958374 L 77.3 164.2 L 76.7 154.4 L 81.6 147.4 L 88.3 142.5 L 96.4 138.0 L 105.3 133.4 L 114.4 128.5 L 123.2 123.1 L 130.8 117.2 L 136.7 110.7 L 136.77252283096314 110.75152940750122 L 136.9 110.6 L 141.0 103.5 L 143.9 95.6 L 145.75413703918457 87.4027626991272 L 140.1 87.6 L 130.9 88.3 L 124.99216651916504 88.84814949035645 L 125.0 88.9 L 112.7 90.6 L 109.36698007583618 91.05193490982056 L 109.2 98.9 L 108.7 108.3 L 108.0 117.6 L 106.9 126.9 L 93.0 125.0 L 94.0 116.2 L 94.8 107.4 L 95.2 98.4 L 95.32380094528199 92.89085655212402 L 90.13347635269164 93.53390560150146 L 89.1 93.7 L 89.09255952835083 93.65535717010498 L 78.6 94.8 L 68.1 95.9 L 66.94709930419921 96.00376110076904 L 67.1 99.1 L 67.7 106.7 L 68.8 113.4 L 69.4275671005249 115.55726175308227 L 70.7 114.2 L 72.0 112.7 L 73.2 111.2 L 74.4 109.8 L 85.6 118.2 L 84.2 119.9 L 82.7 121.7 L 81.1 123.6 L 79.4 125.4 L 75.7 129.1 L 73.7 131.0 L 71.7 132.8 L 69.5 134.8 L 67.2 136.7 L 67.090371799469 136.5684461593628 L 67.0 136.7 L 61.2 131.0 L 58.863934421539305 126.6967212677002 L 58.2 125.9 L 58.35793867111206 125.76462392807007 L 57.4 124.0 L 55.1 116.4 L 53.8 108.3 L 53.1 100.0 L 52.96777505874634 97.22327632904053 L 48.4 97.6 L 39.2 98.2 L 30.5 98.6 L 22.1 98.9 L 21.8 84.9 L 29.9 84.7 L 38.4 84.2 L 47.4 83.6 L 52.4011248588562 83.23149604797364 L 52.4 83.2 L 51.8 75.3 L 50.9 68.1 L 50.56521739959717 66.61739130020142 L 48.8 65.4 L 46.0 63.6 L 43.2 61.9 L 40.5 60.5 L 37.9 59.2 L 35.4 58.2 L 33.0 57.3 L 30.7 56.6 L 28.5 56.0 L 31.4 42.3 L 34.4 43.1 L 37.5 44.0 L 40.6 45.2 L 43.7 46.5 L 46.9 48.0 L 50.1 49.7 L 53.3 51.6 L 56.5 53.7 L 59.8 55.9 L 62.62972402572632 57.98067941665649 L 62.9 57.9 L 62.98163728713989 58.23943920135498 L 63.2 58.4 L 63.06389780044556 58.58146963119507 L 64.8 65.8 L 65.8 74.1 L 66.27308931350709 82.04790096282959 L 66.8 82.0 L 77.1 80.9 L 87.9 79.7 L 88.3 79.65 L 95.11709089279175 78.51381816864014 L 94.8 71.3 L 94.1 62.1 L 93.1 52.9 L 91.8 43.6 L 90.82459888458251 37.869518756866455 L 90.1 37.0 L 87.7 35.0 L 86.3 34.1 L 84.6 33.3 L 82.8 32.5 L 80.8 31.9 L 78.5 31.4 L 76.1 31.0 L 77.8 17.1 Z " />
</g>
</svg>
