<svg xmlns="http://www.w3.org/2000/svg" xmlns:xlink="http://www.w3.org/1999/xlink" version="1.1" baseProfile="full" viewBox="0 0 200 200" width="200" height="200">
<g fill="black">
<path d="M 134.2 25.0 L 133.0 32.1 L 130.6 39.3 L 126.9 46.7 L 126.68334627151489 47.034007740020755 L 128.1 46.9 L 135.3 46.5 L 142.5 46.4 L 149.5 46.6 L 156.4 47.0 L 163.2 47.8 L 169.9 48.8 L 176.5 50.1 L 173.4 63.8 L 167.5 62.6 L 161.4 61.6 L 155.2 61.0 L 148.9 60.6 L 142.4 60.4 L 135.8 60.5 L 129.1 60.9 L 122.3 61.5 L 115.50767631530762 62.47033195495605 L 109.1 69.6 L 101.76203918457031 76.84847354888916 L 102.0 76.8 L 107.2 75.8 L 112.1 74.9 L 116.7 74.1 L 121.1 73.5 L 125.2 73.0 L 126.7 86.9 L 125.61867418289185 87.0422797203064 L 121.4 90.4 L 115.7 95.4 L 109.0 101.5 L 101.5 108.6 L 93.0 116.8 L 91.51163082122802 118.27236518859863 L 101.8 120.3 L 100.7 126.3 L 99.7 132.2 L 98.9 138.0 L 98.2 143.7 L 97.7 149.3 L 97.48325471878051 151.6841980934143 L 99.4 149.5 L 104.2 144.8 L 109.6 140.2 L 115.4 135.8 L 121.8 131.5 L 127.24817037582397 128.2150737762451 L 127.2 128.1 L 127.85104894638062 127.85157346725464 L 128.6 127.4 L 128.67856760025023 127.5358097076416 L 134.8 125.2 L 142.0 123.3 L 148.7 122.3 L 155.2 122.4 L 161.2 123.7 L 166.7 126.4 L 171.3 130.4 L 174.8 135.4 L 177.3 141.3 L 178.75612936019897 147.21552562713623 L 178.9 147.2 L 179.1 151.9 L 178.6 156.5 L 177.4 160.9 L 175.5 165.0 L 173.0 168.9 L 169.9 172.4 L 166.2 175.5 L 162.1 178.3 L 157.5 180.8 L 152.5 183.1 L 147.3 170.1 L 151.3 168.3 L 154.8 166.4 L 157.7 164.4 L 160.1 162.4 L 161.9 160.3 L 163.3 158.3 L 164.2 156.1 L 164.8 153.9 L 165.1 151.4 L 165.051535987854 150.09147243499757 L 165.0 150.1 L 164.0 145.6 L 162.5 142.1 L 160.9 139.7 L 159.0 138.1 L 156.7 137.0 L 153.6 136.3 L 149.7 136.3 L 144.9 137.0 L 139.1 138.6 L 133.92306890487671 140.51148223876953 L 129.3 143.3 L 123.5 147.2 L 118.3 151.1 L 113.7 155.1 L 109.6 159.1 L 106.0 163.2 L 102.9 167.4 L 100.3 171.6 L 98.2 175.8 L 96.6 180.1 L 84.37434558868408 176.14734477996825 L 82.9 176.2 L 82.8 170.8 L 82.8 165.2 L 83.0 159.6 L 83.3 153.9 L 83.7 148.1 L 84.3 142.2 L 85.0 136.2 L 85.9 130.1 L 86.9 123.9 L 87.15009460449218 122.58700313568116 L 83.7 126.0 L 73.5 136.2 L 62.4 147.5 L 50.5 159.7 L 37.7 173.1 L 28.16312952041626 163.94082736968994 L 27.7 163.7 L 27.770891857147216 163.564123916626 L 27.6 163.4 L 28.165269470214845 162.8082335472107 L 30.1 159.1 L 32.1 154.7 L 33.7 150.8 L 35.0 147.1 L 36.0 143.9 L 36.7 141.0 L 37.0 138.6 L 37.1 136.7 L 37.0 135.2 L 36.7 134.3 L 49.9 129.5 L 50.8 132.9 L 51.1 136.3 L 51.02187280654907 139.11258039474487 L 52.4 137.7 L 63.6 126.4 L 73.8 116.0 L 83.2 106.8 L 91.8 98.5 L 98.90474452972413 91.764333152771 L 94.1 92.9 L 88.2 94.3 L 82.1 95.8 L 75.7 97.5 L 72.1 83.9 L 72.53267431259155 83.78855361938477 L 82.4 75.5 L 91.3 67.5 L 92.19873027801513 66.6129415512085 L 89.4 67.0 L 80.3 68.0 L 71.4 68.6 L 62.6 69.0 L 54.0 69.0 L 45.7 68.7 L 37.5 68.1 L 29.5 67.1 L 21.6 65.8 L 24.3 52.1 L 31.4 53.3 L 38.8 54.2 L 46.4 54.7 L 54.3 55.0 L 62.3 55.0 L 70.6 54.7 L 79.0 54.0 L 87.7 53.1 L 96.6 51.8 L 105.7 50.3 L 106.00929689407349 51.92975673675537 L 106.05682497024536 51.86967401504516 L 105.7 49.9 L 107.91921129226685 49.51533670425415 L 110.7 46.0 L 114.8 39.7 L 117.7 33.9 L 119.4 28.7 L 120.2 24.1 L 120.0 20.0 L 133.9 17.9 Z M 72.9 25.5 L 72.8 26.8 L 73.0 28.0 L 73.4 29.3 L 74.1 30.6 L 75.0 31.9 L 76.3 33.4 L 77.9 35.0 L 79.9 36.5 L 82.4 38.1 L 85.2 39.8 L 78.7 52.1 L 75.1 50.1 L 71.8 47.9 L 68.8 45.6 L 66.2 43.1 L 63.9 40.5 L 61.9 37.6 L 60.4 34.5 L 59.4 31.2 L 58.9 27.8 L 58.9 24.4 Z " />
</g>
</svg>
