<svg xmlns="http://www.w3.org/2000/svg" xmlns:xlink="http://www.w3.org/1999/xlink" version="1.1" baseProfile="full" viewBox="0 0 200 200" width="200" height="200">
<g fill="black">
<path d="M 131.7053822517395 21.149626541137696 L 137.6 22.4 L 142.6 26.9 L 144.9 32.5 L 145.4 38.0 L 145.0 43.6 L 144.0 49.3 L 142.5 55.0 L 141.41832637786865 58.71825304031372 L 142.6 59.3 L 153.7 66.5 L 163.0 74.6 L 170.5 83.6 L 175.9 93.6 L 179.2 104.3 L 180.3 115.7 L 179.3 127.6 L 176.3 140.0 L 173.1790026664734 147.98975324630737 L 173.2 148.0 L 173.10745811462402 148.17290716171266 L 171.3593406677246 152.6480878829956 L 174.0 155.5 L 178.8 161.5 L 183.6 167.9 L 172.3 176.0 L 167.8 170.1 L 163.4 164.7 L 162.9372175216675 164.19608125686645 L 160.5 167.1 L 155.4 172.0 L 149.9 175.9 L 143.9 179.0 L 137.5 181.2 L 130.9 182.4 L 124.0 182.7 L 116.9 182.0 L 116.96003894805908 181.60545806884767 L 115.8 181.5 L 110.7 179.5 L 110.02081594467163 178.93138074874878 L 108.6 179.6 L 103.0 180.9 L 102.59064750671386 180.9 L 102.6 181.0 L 97.7 181.2 L 93.1 180.7 L 88.7 179.5 L 84.7 177.5 L 81.1 174.8 L 78.2 171.3 L 76.0 167.4 L 74.4 163.0 L 73.4 158.3 L 73.0 153.3 L 73.11587533950805 153.29416456222535 L 74.3 145.4 L 76.9 138.3 L 80.9 132.1 L 86.3 127.2 L 92.8 123.9 L 99.77091884613037 122.20437107086181 L 100.8 117.5 L 102.2 111.5 L 103.8 106.1 L 105.4 101.1 L 107.2 96.5 L 109.1 92.5 L 111.2 88.8 L 113.6 85.6 L 116.3 82.7 L 116.4535075187683 82.87331495285034 L 121.9 82.3 L 127.6 83.9 L 132.2 87.5 L 135.2 92.3 L 137.0 97.8 L 138.0 104.1 L 138.3 111.3 L 138.1 119.5 L 137.32336072921754 127.43897914886475 L 137.5 127.5 L 143.0 130.1 L 148.4 133.1 L 153.7 136.6 L 158.9 140.6 L 160.52712392807007 142.035697555542 L 162.9 135.8 L 165.5 125.3 L 166.3 115.8 L 165.4 107.1 L 163.0 99.0 L 158.9 91.5 L 153.1 84.4 L 145.4 77.7 L 135.7 71.5 L 124.1 65.8 L 125.16944446563721 63.29166669845581 L 127.5 56.3 L 129.1 51.3 L 130.3 46.3 L 131.1 41.8 L 131.4 38.0 L 131.2 35.4 L 131.10828399658203 35.03313608169556 L 128.1 35.4 L 123.8 36.3 L 119.3 37.7 L 114.5 39.6 L 109.5 42.2 L 104.3 45.3 L 98.9 48.9 L 93.2 53.2 L 87.4 58.0 L 84.47022523880005 60.6814887046814 L 80.53703966140748 64.97588529586793 L 80.0 73.3 L 78.1 88.8 L 75.3 104.2 L 71.5 119.4 L 66.8 134.6 L 63.021528816223146 144.72090482711792 L 66.8 151.9 L 72.6 160.9 L 61.3 169.0 L 56.097991943359375 161.11816968917847 L 54.6 164.5 L 47.63024911880493 178.25364179611205 L 47.7 178.9 L 47.287781715393066 178.92944412231446 L 47.1 179.3 L 46.52035818099976 178.9842601776123 L 43.5 179.2 L 39.4 178.9 L 35.4 178.2 L 31.7 177.0 L 28.1 175.2 L 24.9 172.8 L 22.1 170.0 L 19.6 166.9 L 17.5 163.3 L 16.019214057922362 159.90290288925172 L 16.0 159.9 L 16.00547456741333 159.87138290405272 L 15.8 159.4 L 16.119641304016113 159.27460222244264 L 18.2 148.4 L 21.2 136.9 L 25.2 125.5 L 30.1 114.1 L 35.9 102.7 L 35.953905296325686 102.60988969802857 L 35.5 99.8 L 34.3 86.2 L 34.0 72.1 L 34.5 57.4 L 35.9 42.1 L 49.8 43.8 L 48.5 58.3 L 48.0 72.2 L 48.24598445892334 83.10531253814698 L 50.2 80.2 L 58.6 69.0 L 66.88332691192628 59.218624687194826 L 67.0 57.3 L 67.0 42.5 L 66.1 27.6 L 80.0 26.3 L 81.0 42.1 L 81.0 45.13548383712769 L 84.5 42.2 L 90.7 37.5 L 96.8 33.4 L 102.8 29.9 L 108.7 26.9 L 114.5 24.5 L 120.3 22.7 L 126.0 21.5 L 131.0 21.061403465270995 L 131.0 21.0 L 131.2047872543335 21.043439674377442 L 131.7 21.0 Z M 134.4 143.9 L 131.9 151.4 L 129.1 158.1 L 125.9 164.1 L 122.89748573303223 168.56087827682495 L 124.4 168.7 L 129.4 168.5 L 134.0 167.6 L 138.4 166.2 L 142.5 164.0 L 146.5 161.2 L 150.3 157.6 L 153.11425151824952 154.16035928726197 L 150.0 151.4 L 145.5 148.0 L 141.1 145.0 L 136.7 142.5 L 134.94499998092653 141.7199999809265 Z M 97.6 137.0 L 94.2 138.8 L 91.5 141.1 L 89.5 144.4 L 87.9 148.8 L 87.06256685256957 154.10374336242677 L 87.3 156.3 L 87.9 159.3 L 88.7 161.6 L 89.7 163.4 L 90.8 164.7 L 92.0 165.6 L 93.6 166.4 L 95.6 166.9 L 98.2 167.2 L 98.58244876861572 167.18766298294068 L 98.6 167.0 L 101.39056606292725 167.0 L 101.0 166.1 L 99.5 160.2 L 98.6 153.5 L 98.3 145.9 L 98.4 137.6 L 98.45242443084717 136.79615936279296 Z M 38.3 130.6 L 34.6 141.0 L 31.8 151.5 L 30.624954795837404 157.99367084503174 L 31.2 159.0 L 32.6 160.8 L 34.0 162.1 L 35.4 163.2 L 37.1 164.0 L 38.84497041702271 164.6785996437073 L 42.0 158.5 L 47.80299606323242 145.20926713943481 L 44.4 137.1 L 40.54027824401855 125.32290019989014 Z M 112.4 138.2 L 112.3 145.7 L 112.6 152.2 L 113.3 157.6 L 113.33548383712768 157.73548383712767 L 113.9 156.9 L 116.4 152.2 L 118.8 146.6 L 120.9 139.9 L 121.52725629806518 137.51642599105836 L 115.1 136.2 L 112.52743673324585 135.9826003074646 Z M 61.6 88.4 L 54.4 99.0 L 50.56960258483887 105.48696346282959 L 51.3 110.1 L 54.0 121.5 L 55.159419536590576 125.04451122283936 L 58.1 115.7 L 61.6 101.2 L 64.3 86.7 L 64.57666807174682 84.45591487884522 Z M 121.5 98.9 L 120.0 102.1 L 118.6 105.8 L 117.1 110.2 L 115.8 115.1 L 114.4 120.5 L 114.075 122.125 L 117.1 122.4 L 123.62088546752929 123.69059190750122 L 124.1 118.6 L 124.3 111.4 L 124.1 105.4 L 123.4 100.9 L 122.4 98.0 L 122.22439022064209 97.69268293380738 Z " />
</g>
</svg>
