<svg xmlns="http://www.w3.org/2000/svg" xmlns:xlink="http://www.w3.org/1999/xlink" version="1.1" baseProfile="full" viewBox="0 0 200 200" width="200" height="200">
<g fill="black">
<path d="M 82.4 21.9 L 79.4 33.3 L 76.9 45.7 L 74.9 59.1 L 73.4 73.3 L 72.77711143493653 82.767906665802 L 76.6 79.1 L 84.4 71.6 L 84.52812767028809 71.7348009109497 L 91.5 66.1 L 98.0 61.4 L 103.9 57.9 L 109.4 55.5 L 115.1 54.5 L 121.1 56.0 L 125.7 60.5 L 127.6 66.1 L 127.7 71.8 L 127.02240867614746 76.6937150001526 L 127.4 76.8 L 123.2 93.2 L 120.1 107.5 L 118.3 119.9 L 117.6 130.0 L 118.1 138.0 L 119.4 143.5 L 121.1 146.6 L 123.0 148.0 L 125.7 148.6 L 129.82663955688477 148.16099576950074 L 129.8 148.0 L 138.5 146.2 L 145.6 143.8 L 151.3 140.9 L 155.6 137.6 L 158.7 133.9 L 160.7 129.7 L 161.8 124.8 L 161.9 118.9 L 160.9 112.0 L 160.35143852233887 110.05510025024414 L 159.3 111.2 L 154.1 115.8 L 148.1 120.2 L 141.5 124.5 L 134.1 128.7 L 127.6 116.3 L 134.3 112.5 L 140.2 108.7 L 145.3 104.9 L 149.5 101.1 L 153.0 97.4 L 155.8 93.7 L 157.8 90.0 L 159.1 86.4 L 159.8 82.9 L 159.91483869552613 80.77548389434814 L 159.7 79.2 L 159.2 77.6 L 158.4 76.3 L 157.5 75.1 L 156.1 74.1 L 154.3 73.1 L 151.9 72.2 L 148.8 71.5 L 145.2 71.1 L 141.0 71.0 L 141.0 57.0 L 141.13235492706298 57.002545261383055 L 141.0 56.9 L 144.8 51.9 L 148.0 47.4 L 150.8 43.2 L 153.0 39.4 L 154.8 36.0 L 155.60762128829955 34.13625869750977 L 153.7 34.0 L 150.9 34.1 L 148.2 34.4 L 145.5 35.0 L 142.8 35.9 L 140.1 37.0 L 137.4 38.5 L 130.3 26.4 L 134.0 24.4 L 137.9 22.8 L 141.8 21.5 L 145.8 20.6 L 149.9 20.1 L 154.0 20.0 L 158.1 20.3 L 162.3 21.0 L 166.4 22.0 L 169.81915426254272 23.167516136169432 L 170.7 22.9 L 171.3 26.7 L 171.2 30.5 L 170.4 34.2 L 169.1 38.1 L 167.4 42.0 L 165.2 46.2 L 162.6 50.6 L 159.6 55.3 L 156.81544713974 59.19837398529053 L 159.9 60.3 L 163.8 62.3 L 167.2 65.0 L 170.0 68.3 L 172.0 72.1 L 173.3 76.2 L 173.65009155273438 78.70898952484131 L 173.9 78.7 L 173.85023040771483 80.14331798553467 L 173.9 80.5 L 173.8377921104431 80.50402784347534 L 173.7 84.5 L 172.6 90.3 L 170.5 95.9 L 167.5470085144043 101.11695156097412 L 171.9 99.6 L 174.6 109.0 L 175.9 118.0 L 175.7 126.4 L 173.9 134.3 L 170.4 141.5 L 165.3 147.7 L 158.8 152.7 L 151.0 156.7 L 142.1 159.7 L 133.45516614913942 161.60186347961425 L 133.5 161.8 L 125.0 162.6 L 117.0 160.6 L 110.5 155.7 L 106.3 148.5 L 104.2 139.9 L 103.6 129.9 L 104.3 118.3 L 106.3 105.0 L 109.5 89.9 L 113.21707000732422 75.62307214736938 L 113.1 75.6 L 113.7 70.9 L 113.7 68.9 L 110.4 70.3 L 105.7 73.1 L 100.0 77.2 L 93.2 82.7 L 93.09792518615723 82.57864437103271 L 86.3 89.2 L 78.9 96.2 L 72.1 103.0 L 71.94784641265869 103.14977617263794 L 71.9 104.7 L 71.9 121.7 L 72.4 139.7 L 73.4 158.5 L 74.9 178.3 L 61.0 179.6 L 59.4 159.5 L 58.4 140.2 L 57.9 121.9 L 57.9 117.23454542160034 L 54.3 120.9 L 49.3 126.1 L 44.8 130.9 L 40.8 135.4 L 37.3 139.5 L 36.896340942382814 139.1567011833191 L 36.9 139.2 L 23.0 140.7 L 22.3 133.2 L 21.9 126.0 L 21.7 119.0 L 21.8 112.2 L 22.1 105.7 L 22.8 99.4 L 23.7 93.3 L 24.8 87.5 L 26.3 81.9 L 28.0 76.5 L 41.2 81.3 L 39.7 85.8 L 38.5 90.6 L 37.5 95.7 L 36.7 101.1 L 36.1 106.7 L 35.8 112.7 L 35.7 118.9 L 35.7385760307312 120.15372171401978 L 39.1 116.5 L 44.2 111.2 L 49.8 105.5 L 55.8 99.4 L 58.121875 97.078125 L 58.4 87.9 L 59.4 72.1 L 61.0 57.3 L 63.1 43.3 L 65.8 30.2 L 69.0 17.9 Z " />
</g>
</svg>
