<svg xmlns="http://www.w3.org/2000/svg" xmlns:xlink="http://www.w3.org/1999/xlink" version="1.1" baseProfile="full" viewBox="0 0 200 200" width="200" height="200">
<g fill="black">
<path d="M 176.1 43.9 L 175.41386861801146 43.92189779281616 L 163.7 45.3 L 152.9 47.1 L 143.4 49.4 L 135.0 52.0 L 127.8 55.0 L 121.8 58.3 L 117.0 61.9 L 113.4 65.7 L 110.7 69.7 L 109.83380346298217 71.76924724578858 L 109.9 71.8 L 109.2 73.6 L 108.9 75.0 L 108.9 76.1 L 109.0 77.1 L 109.4 78.0 L 110.2 79.1 L 111.4 80.3 L 113.2 81.7 L 114.66226415634155 82.51886796951294 L 119.4 84.8 L 123.7 88.9 L 126.5 94.2 L 127.6 100.1 L 127.5 106.4 L 126.4 113.2 L 124.3 120.7 L 121.3 128.8 L 117.4 137.6 L 112.6 147.3 L 112.58957109451293 147.29453325271606 L 112.3 147.9 L 111.3 151.5 L 111.2 154.1 L 111.7 155.9 L 112.9 157.6 L 115.2 159.4 L 119.0 161.3 L 124.3 162.9 L 131.1 164.2 L 139.4 165.0 L 138.5 178.9 L 129.2 178.0 L 121.1 176.5 L 113.9 174.3 L 107.8 171.3 L 102.7 167.2 L 99.1 162.0 L 97.3 155.8 L 97.5 149.3 L 99.3 142.9 L 100.2812307357788 140.84258060455323 L 100.2 140.8 L 104.7 131.7 L 108.3 123.5 L 111.0 116.3 L 112.7 110.1 L 113.6 105.0 L 113.7 101.2 L 113.2 98.7 L 112.5 97.3 L 112.05714282989501 96.85714282989503 L 109.2 95.5 L 105.5 93.3 L 102.3 90.9 L 99.5 88.1 L 97.2 84.9 L 95.7 81.2 L 94.9 77.4 L 95.0 73.5 L 95.70537328720093 70.06130542755128 L 95.5 70.0 L 96.99065418243408 66.45327100753784 L 97.2 65.9 L 97.21940040588379 65.90901279449463 L 98.4 63.1 L 102.5 56.9 L 107.8 51.4 L 111.68264741897583 48.53281421661377 L 104.2 50.0 L 94.2 51.6 L 84.5 52.9 L 75.1 53.8 L 65.9 54.2 L 57.1 54.3 L 48.5 54.0 L 40.2 53.4 L 32.2 52.3 L 24.4 50.8 L 27.5 37.1 L 34.4 38.5 L 41.7 39.4 L 49.3 40.1 L 57.2 40.3 L 65.5 40.3 L 74.0 39.8 L 82.9 39.0 L 92.1 37.8 L 101.7 36.2 L 111.5 34.3 L 111.53017044067383 34.442529106140135 L 113.2 34.1 L 117.7 33.4 L 122.7 32.8 L 128.4 32.2 L 134.7 31.7 L 141.6 31.2 L 149.2 30.8 L 157.4 30.5 L 166.3 30.2 L 173.94935064315797 30.038961029052736 L 174.3 30.0 L 174.30294761657714 30.03151693344116 L 175.8 30.0 Z " />
</g>
</svg>
