<svg xmlns="http://www.w3.org/2000/svg" xmlns:xlink="http://www.w3.org/1999/xlink" version="1.1" baseProfile="full" viewBox="0 0 200 200" width="200" height="200">
<g fill="black">
<path d="M 91.0 39.0 L 73.3 40.0 L 64.7 42.4 L 63.2 44.0 L 63.8 48.9 L 68.3 59.2 L 73.00949897766114 67.5143006324768 L 80.7 62.9 L 91.3 57.2 L 102.3 52.0 L 113.7 47.7 L 125.5 44.5 L 129.8109312057495 43.965587043762206 L 129.8 43.9 L 135.00714282989503 43.32142858505249 L 137.6 43.0 L 137.60166931152344 43.03314781188965 L 143.3 42.4 L 154.8 42.8 L 164.6 45.1 L 172.6 49.0 L 178.7 54.4 L 182.9 60.7 L 185.2 67.6 L 185.9 74.5 L 185.2 81.2 L 183.77241258621217 86.40649509429932 L 184.0 86.5 L 183.52310152053832 87.31574735641479 L 183.5 87.4 L 183.47853908538818 87.39197263717651 L 180.2 93.0 L 174.7 98.5 L 167.9 103.1 L 159.9 106.7 L 151.0 109.1 L 141.4 110.0 L 131.4 109.3 L 121.1 106.5 L 110.9 101.5 L 101.2 94.1 L 110.7 83.8 L 118.3 89.6 L 126.0 93.4 L 133.7 95.5 L 141.2 96.0 L 148.5 95.3 L 155.2 93.5 L 161.1 90.9 L 165.8 87.7 L 169.2 84.3 L 170.48249998092652 82.20749998092651 L 171.5 78.6 L 171.9 74.5 L 171.5 70.4 L 170.3 66.8 L 168.2 63.5 L 164.9 60.7 L 160.0 58.3 L 153.1 56.7 L 143.8 56.4 L 134.45384616851806 57.438461494445804 L 128.3 58.3 L 118.0 61.0 L 107.8 64.9 L 97.6 69.7 L 87.7 75.1 L 79.96496896743774 79.64532747268677 L 86.9 91.6 L 98.7 113.4 L 110.7 139.1 L 121.6 168.8 L 108.3 173.1 L 97.8 144.5 L 86.2 119.7 L 74.8 98.5 L 68.05259075164795 86.99727382659913 L 59.9 92.0 L 51.6 96.9 L 43.8 100.9 L 43.66974267959595 100.619615650177 L 43.7 100.9 L 39.4 101.2 L 35.3 101.0 L 31.5 100.3 L 27.8 99.1 L 24.4 97.2 L 21.5 94.6 L 19.2 91.5 L 17.5 88.0 L 16.5 84.3 L 16.0 80.4 L 30.0 79.5 L 30.3 81.6 L 30.7 83.2 L 31.2 84.3 L 31.8 85.1 L 32.5 85.7 L 33.5 86.3 L 34.9 86.7 L 36.8 87.1 L 39.2 87.2 L 39.973026275634766 87.14846487045288 L 44.8 84.7 L 52.6 80.0 L 61.05720930099487 74.84790697097779 L 55.9 65.7 L 50.4 52.9 L 49.6 40.6 L 57.5 30.4 L 71.2 26.1 L 91.0 25.0 Z " />
</g>
</svg>
