<svg xmlns="http://www.w3.org/2000/svg" xmlns:xlink="http://www.w3.org/1999/xlink" version="1.1" baseProfile="full" viewBox="0 0 200 200" width="200" height="200">
<g fill="black">
<path d="M 99.3 62.4 L 102.4 63.4 L 105.2 64.9 L 107.5 66.9 L 109.6 69.2 L 111.4 71.8 L 113.1 74.6 L 112.70855293273925 74.81322727203369 L 113.3 75.0 L 112.3 78.0 L 110.9 80.9 L 109.3 83.8 L 107.4 86.6 L 105.3 89.4 L 103.15365858078003 91.81463413238525 L 107.2 92.2 L 112.0 93.4 L 117.1 96.3 L 121.1 101.5 L 122.39729728698731 106.32882881164551 L 123.7 108.5 L 111.7 115.9 L 100.2 123.2 L 89.3 130.4 L 78.9 137.6 L 73.09302244186401 141.85046815872192 L 75.0 141.9 L 82.4 143.4 L 89.4 146.1 L 95.8 150.0 L 101.25662097930908 154.63812789916992 L 103.1 150.7 L 105.8 146.4 L 109.1 142.7 L 112.9 139.5 L 117.3 136.9 L 122.0 135.0 L 127.0 133.7 L 130.94393997192384 133.18874855041503 L 130.9 132.9 L 137.1 132.5 L 143.2 133.2 L 149.2 135.0 L 154.9 137.9 L 160.3 141.7 L 165.5 146.4 L 170.4 152.0 L 175.2 158.4 L 179.7 165.7 L 184.2 173.8 L 171.7 180.1 L 167.7 172.7 L 163.6 166.3 L 159.5 160.8 L 155.5 156.2 L 151.5 152.6 L 147.7 149.9 L 144.0 148.0 L 140.3 146.9 L 136.7 146.5 L 133.48211040496827 146.67393999099733 L 133.5 146.9 L 129.7 147.4 L 126.4 148.3 L 123.5 149.5 L 121.0 151.0 L 118.9 152.7 L 117.0 154.8 L 115.4 157.4 L 114.0 160.4 L 112.9 163.9 L 112.0 168.0 L 111.76866235733033 167.9647964477539 L 112.0 168.3 L 99.9 175.6 L 96.0 169.7 L 91.9 165.0 L 87.6 161.3 L 83.2 158.6 L 78.5 156.8 L 73.5 155.8 L 68.1 155.7 L 62.1 156.5 L 55.7 158.2 L 48.7 160.9 L 48.681395053863525 160.85854682922363 L 43.3 165.5 L 35.8 172.2 L 28.9 178.9 L 19.0 169.0 L 26.3 162.0 L 34.1 154.9 L 42.4 147.8 L 51.3 140.7 L 60.8 133.5 L 70.8 126.2 L 81.4 118.9 L 92.5 111.5 L 101.4518518447876 105.76163339614868 L 98.3 105.6 L 93.9 104.8 L 88.9 102.6 L 84.7 97.8 L 83.10967741012573 91.81290321350097 L 82.8 91.4 L 85.6 89.1 L 88.2 86.9 L 90.6 84.7 L 92.6 82.6 L 94.5 80.5 L 96.0 78.5 L 97.34666662216186 76.57619047164917 L 97.1 76.4 L 96.96891889572143 76.26891889572144 L 96.66999998092652 76.4214285850525 L 96.0 76.9 L 95.9240743637085 76.80200290679932 L 92.4 78.6 L 87.7 80.8 L 83.2 82.6 L 78.9 84.0 L 74.7 85.0 L 70.7 85.5 L 66.8 85.6 L 63.0 85.2 L 59.4 84.1 L 56.0 82.4 L 63.6 70.6 L 64.5 71.1 L 65.8 71.4 L 67.4 71.6 L 69.5 71.6 L 72.1 71.2 L 75.1 70.5 L 78.4 69.4 L 82.1 67.9 L 86.2 66.1 L 89.89600000381469 64.16800003051758 L 90.0 64.1 L 90.12517986297607 64.0482014656067 L 90.6 63.8 L 90.62299242019654 63.84221000671387 L 92.9 62.9 L 96.0 62.3 Z M 91.2 17.0 L 92.8 19.7 L 94.9 22.1 L 97.5 24.3 L 100.7 26.2 L 104.5 27.8 L 109.1 29.2 L 114.3 30.1 L 120.3 30.7 L 127.0 31.0 L 127.0 45.0 L 119.4 44.7 L 112.4 44.0 L 105.9 42.8 L 99.9 41.0 L 94.4 38.7 L 89.4 35.7 L 85.1 32.2 L 81.5 27.9 L 78.6 23.2 L 76.5 17.9 L 89.9 13.9 Z " />
</g>
</svg>
