<svg xmlns="http://www.w3.org/2000/svg" xmlns:xlink="http://www.w3.org/1999/xlink" version="1.1" baseProfile="full" viewBox="0 0 200 200" width="200" height="200">
<g fill="black">
<path d="M 109.9 24.2 L 109.0 35.8 L 106.9 48.0 L 106.00954866409302 51.58963203430176 L 115.1 48.4 L 127.2 43.5 L 132.7 56.4 L 120.1 61.5 L 108.0 65.7 L 101.54539947509765 67.66444368362427 L 99.4 74.4 L 96.28000001907348 82.75924530029297 L 104.3 81.7 L 115.19890108108521 81.0307692527771 L 115.2 81.0 L 115.38681316375732 81.0192307472229 L 115.7 81.0 L 115.70184497833252 81.05166053771973 L 122.0 81.7 L 128.3 83.4 L 134.0 86.1 L 138.9 90.0 L 142.9 95.0 L 145.7 100.7 L 147.6 107.1 L 148.5 114.0 L 148.6 121.6 L 147.9 129.8 L 140.95 128.95 L 147.9 129.9 L 145.0 141.7 L 144.95557489395142 141.79062719345092 L 148.3 143.5 L 161.7 153.7 L 174.5 167.6 L 163.4 176.3 L 152.2 164.0 L 140.8 155.3 L 138.29415283203124 154.01321363449097 L 133.3 160.2 L 125.6 166.7 L 117.1 171.3 L 108.2 173.9 L 99.4 174.5 L 91.0 172.7 L 83.5 168.1 L 78.2021276473999 161.0361701965332 L 78.0 161.1 L 77.5 151.4 L 81.7 143.0 L 89.1 137.0 L 98.5 133.3 L 109.5 131.8 L 121.8 132.8 L 132.0713203430176 135.80238590240478 L 134.0 128.0 L 134.00847215652465 128.00115804672242 L 134.6 121.1 L 134.5 115.0 L 133.9 109.9 L 132.7 105.7 L 131.0 102.5 L 129.0 100.0 L 126.6 98.0 L 123.5 96.5 L 119.6 95.5 L 115.2351942062378 95.05461168289185 L 105.6 95.6 L 95.9 96.9 L 90.01812705993652 98.10311040878295 L 87.7 103.5 L 80.2 119.0 L 71.7 135.2 L 62.1 152.2 L 53.73115472793579 165.96557731628417 L 53.8 166.0 L 53.22875928878784 166.79194736480713 L 51.4 169.8 L 51.16460294723511 169.65361862182618 L 49.4 172.1 L 42.0 175.4 L 34.5 172.4 L 30.8 166.8 L 28.9 160.4 L 28.1 152.9 L 28.5 144.4 L 30.1 135.3 L 33.2 125.8 L 36.7293643951416 118.81479969024659 L 36.7 118.8 L 36.946140670776366 118.38576326370239 L 38.0 116.3 L 38.13595142364502 116.38339881896972 L 40.8 111.9 L 45.9 105.6 L 51.8 100.0 L 58.6 95.2 L 66.2 91.1 L 74.6 87.7 L 79.88298683166504 86.20698194503784 L 81.1 83.4 L 85.45481481552125 71.78716049194335 L 85.4 71.8 L 74.8 73.5 L 64.7 74.4 L 55.1 74.4 L 46.0 73.4 L 37.3 71.6 L 29.2 68.8 L 34.6 55.9 L 41.0 58.1 L 48.1 59.6 L 55.8 60.4 L 64.1 60.4 L 73.1 59.6 L 82.6 58.0 L 90.4332495689392 56.17477684020996 L 93.2 45.2 L 95.1 34.0 L 96.0 23.7 Z M 101.9 146.9 L 96.0 149.2 L 92.5 152.0 L 91.2 154.4 L 91.24616937637329 155.5542338371277 L 92.8 157.7 L 96.0 159.6 L 100.3 160.5 L 105.7 160.1 L 111.7 158.3 L 117.7 155.1 L 123.3 150.4 L 125.01733331680298 148.26209526062013 L 119.2 146.6 L 109.8 145.8 Z M 66.0 107.1 L 60.7 110.9 L 56.1 115.1 L 52.3 119.8 L 49.2 125.1 L 49.15220499038696 125.07591133117675 L 46.1 131.1 L 43.7 138.7 L 42.4 145.9 L 42.1 152.4 L 42.55921955108643 157.3595715522766 L 50.0 145.1 L 59.4 128.5 L 67.7 112.7 L 71.89376087188721 103.96299829483033 Z M 59.4 27.4 L 59.9 29.6 L 60.6 31.5 L 61.4 33.3 L 62.3 34.8 L 63.4 36.2 L 64.5 37.5 L 65.9 38.7 L 67.4 39.7 L 69.1 40.7 L 62.8 53.2 L 59.9 51.6 L 57.2 49.7 L 54.8 47.6 L 52.6 45.2 L 50.6 42.6 L 49.0 39.7 L 47.6 36.7 L 46.5 33.6 L 45.7 30.3 L 45.1 26.8 L 59.0 25.1 Z " />
</g>
</svg>
