<svg xmlns="http://www.w3.org/2000/svg" xmlns:xlink="http://www.w3.org/1999/xlink" version="1.1" baseProfile="full" viewBox="0 0 200 200" width="200" height="200">
<g fill="black">
<path d="M 74.5 24.1 L 75.4 32.6 L 75.5 40.8 L 75.4282012939453 41.60004320144653 L 78.0 41.3 L 84.3 40.1 L 90.9 38.3 L 95.0 51.6 L 87.5 53.7 L 80.2 55.1 L 73.14604234695435 55.99416360855103 L 73.1 56.2 L 70.6 63.4 L 67.3 70.1 L 64.55384616851806 74.28461542129517 L 67.6 75.3 L 71.3 77.4 L 74.2 80.6 L 76.1 84.5 L 76.8 88.6 L 76.6300482749939 92.16898689270019 L 76.8 92.2 L 76.0 96.1 L 74.8 100.3 L 73.2 104.7 L 71.4 109.6 L 69.59722223281861 113.86111106872559 L 74.9 109.9 L 83.2 104.7 L 91.3 100.3 L 99.4 97.0 L 107.4 94.6 L 115.3 93.2 L 120.0996199607849 93.01773595809937 L 120.1 93.0 L 120.28043479919434 93.01086959838867 L 123.2 92.9 L 123.1918212890625 93.18625431060791 L 128.4 93.5 L 136.0 94.5 L 142.9 96.2 L 149.1 98.6 L 154.6 101.7 L 159.4 105.6 L 163.2 110.3 L 165.9 115.7 L 167.4 121.7 L 168.0 128.0 L 167.82808990478514 128.0 L 166.3 136.5 L 163.4 144.7 L 159.1 152.3 L 153.5 159.3 L 146.8 165.4 L 138.8 170.8 L 129.8 175.5 L 119.7 179.5 L 108.5 182.9 L 96.2 185.6 L 93.6 171.9 L 105.0 169.3 L 115.1 166.3 L 124.0 162.8 L 131.7 158.8 L 138.1 154.4 L 143.4 149.6 L 147.5 144.5 L 150.7 138.9 L 152.8 132.9 L 153.89032258987427 126.90322580337525 L 153.6 124.0 L 152.8 120.7 L 151.4 117.9 L 149.4 115.4 L 146.8 113.2 L 143.2 111.3 L 138.8 109.6 L 133.4 108.3 L 127.1 107.4 L 120.27712421417236 107.0261438369751 L 116.8 107.2 L 110.6 108.2 L 104.1 110.2 L 97.3 113.0 L 90.2 116.7 L 82.9 121.4 L 75.3 127.1 L 67.4 133.7 L 59.4 141.2 L 51.1 149.7 L 40.8 140.2 L 41.31349382400513 139.67483587265014 L 45.0 132.8 L 48.3 126.3 L 51.4 120.2 L 54.0 114.5 L 56.4 109.2 L 58.4 104.4 L 60.1 100.0 L 61.4 96.1 L 62.27917890548706 93.022873878479 L 62.2 93.0 L 62.7 90.7 L 62.8 89.3 L 62.7 88.6 L 62.7 88.5 L 62.6 88.4 L 62.1 88.1 L 60.8 87.7 L 58.6 87.5 L 55.6 87.4 L 51.8 87.8 L 51.71592788696289 87.11258659362792 L 43.3 76.9 L 48.0 72.6 L 51.9 68.0 L 55.2 63.1 L 57.7 57.9 L 58.48560647964477 55.62587604522705 L 53.2 54.8 L 47.1 53.1 L 41.2 50.7 L 35.6 47.7 L 30.4 44.1 L 39.1 33.1 L 43.0 35.8 L 47.1 38.0 L 51.5 39.8 L 56.2 41.1 L 61.2 41.9 L 61.337340641021726 41.90792350769043 L 61.5 40.2 L 61.4 33.4 L 60.6 26.2 L 59.1 18.6 L 72.8 15.3 Z " />
</g>
</svg>
