<svg xmlns="http://www.w3.org/2000/svg" xmlns:xlink="http://www.w3.org/1999/xlink" version="1.1" baseProfile="full" viewBox="0 0 200 200" width="200" height="200">
<g fill="black">
<path d="M 51.1 149.5 L 49.6 155.3 L 50.1 159.0 L 52.4 162.0 L 57.7 165.1 L 66.6 167.8 L 79.0 169.6 L 94.7 170.3 L 113.7 169.7 L 135.8 168.0 L 161.0 165.0 L 162.9 178.9 L 137.2 181.9 L 114.4 183.7 L 94.7 184.3 L 77.8 183.6 L 63.6 181.5 L 52.1 178.0 L 43.1 172.5 L 37.2 164.4 L 35.6 154.4 L 38.1 144.2 Z M 62.0 144.25 L 61.5 143.0 L 60.6 140.8 L 59.3 138.6 L 57.9 136.3 L 56.1 133.9 L 54.1 131.4 L 51.8 128.9 L 49.2 126.3 L 47.50850143432617 124.72932271957397 L 47.1 125.1 L 42.6 129.2 L 42.40910844802856 128.9844772338867 L 42.4 129.0 L 38.4 126.5 L 34.8 123.8 L 31.5 120.9 L 28.7 117.8 L 26.3 114.4 L 24.3 110.9 L 22.9 107.1 L 22.0 103.2 L 21.7 99.2 L 21.9 95.1 L 35.8 96.8 L 35.7 99.0 L 35.8 101.1 L 36.3 103.1 L 37.0 105.0 L 38.1 107.0 L 39.5 108.9 L 41.3 110.9 L 41.60013589859009 111.16098775863648 L 43.1 109.8 L 49.5 104.1 L 56.8 97.4 L 62.254019546508786 92.47166900634765 L 62.3 87.0 L 62.4 74.3 L 62.47692108154297 69.06936340332031 L 60.7 69.1 L 55.1 68.7 L 49.8 67.7 L 44.8 66.1 L 40.0 64.0 L 35.7 61.2 L 43.9 49.9 L 46.7 51.6 L 49.8 53.0 L 53.2 54.1 L 56.9 54.8 L 61.1 55.1 L 62.67771444320679 55.0657018661499 L 62.8 46.2 L 62.86768865585327 35.84363203048706 L 61.9 34.7 L 60.7 33.5 L 58.1 31.3 L 56.7 30.3 L 55.2 29.4 L 53.6 28.5 L 52.0 27.7 L 57.8 15.0 L 60.1 16.1 L 62.3 17.3 L 66.5 20.1 L 68.4 21.7 L 70.3 23.4 L 72.1 25.1 L 73.7 27.0 L 75.3 29.0 L 76.72769231796265 30.998769187927245 L 76.9 31.0 L 76.7 46.4 L 76.65161800384521 53.415392112731936 L 81.6 52.2 L 87.7 50.3 L 92.2 63.6 L 85.4 65.7 L 78.8 67.3 L 76.49997663497925 67.70159139633179 L 76.4 74.5 L 76.35902309417725 79.7040678024292 L 84.4 72.3 L 95.5 62.2 L 107.5 51.3 L 120.02829027175903 39.928167247772215 L 119.8 39.6 L 125.1 36.2 L 130.1 33.5 L 135.0 31.4 L 139.8 30.1 L 144.6 29.6 L 149.3 30.0 L 153.8 31.6 L 157.7 34.3 L 160.9 37.8 L 163.3 42.0 L 162.90657606124878 42.18277177810669 L 163.0 46.2 L 162.2 50.5 L 160.7 54.6 L 158.5 58.7 L 155.7 62.7 L 152.4 66.9 L 148.5 71.1 L 143.9 75.5 L 141.3926386833191 77.76154155731201 L 142.9 81.4 L 144.80446004867554 87.36178789138793 L 146.6 87.0 L 161.6 85.3 L 178.1 85.0 L 177.8 98.9 L 162.6 99.3 L 148.8 100.8 L 147.67716751098632 101.02821798324585 L 148.0 103.2 L 148.5 110.6 L 148.5 118.0 L 147.8 125.6 L 146.5 133.2 L 144.7 140.8 L 144.56939697265625 140.7642050743103 L 144.9 141.2 L 133.0 148.7 L 131.9 147.2 L 130.3 145.5 L 128.2 143.6 L 125.6 141.6 L 122.4 139.5 L 118.8 137.2 L 114.6 135.0 L 109.9 132.6 L 104.8 130.2 L 99.725 128.025 L 99.5 128.4 L 93.8 122.3 L 93.5 113.8 L 97.4 107.2 L 103.5 102.0 L 111.5 97.4 L 121.4 93.2 L 131.08551445007325 90.32717790603638 L 129.8 86.2 L 127.3 80.2 L 124.3 74.2 L 124.5365876197815 74.07112703323364 L 124.4 73.9 L 129.7 69.4 L 134.4 65.3 L 138.5 61.3 L 141.8 57.7 L 144.5 54.3 L 146.6 51.4 L 148.0 48.8 L 148.8 46.7 L 149.0278302192688 45.48490562438965 L 148.4 44.8 L 147.4 44.1 L 146.3 43.7 L 144.7 43.6 L 142.5 43.8 L 139.7 44.6 L 136.2 46.1 L 132.2 48.3 L 129.87900609970092 49.77699613571167 L 129.9 49.8 L 116.9 61.6 L 104.9 72.6 L 93.8 82.7 L 83.7 91.9 L 76.20215377807617 98.74585962295532 L 76.2 99.0 L 76.1 110.0 L 76.0 120.0 L 76.0 145.0 L 62.0 145.0 Z M 126.1 106.4 L 117.7 109.9 L 111.5 113.5 L 108.02669296264648 116.41006803512573 L 110.5 117.5 L 116.0 120.0 L 121.1 122.6 L 125.7 125.1 L 129.9 127.6 L 132.92204723358154 129.6677165031433 L 133.9 123.8 L 134.5 117.3 L 134.5 111.0 L 134.1 104.7 L 134.0047420501709 104.04377880096436 Z M 58.9 114.4 L 57.92372884750366 115.28474578857421 L 58.9 116.2 L 61.9 119.3 L 62.00487632751465 119.41236753463745 L 62.083784866333005 111.52150955200196 Z " />
</g>
</svg>
