<svg xmlns="http://www.w3.org/2000/svg" xmlns:xlink="http://www.w3.org/1999/xlink" version="1.1" baseProfile="full" viewBox="0 0 200 200" width="200" height="200">
<g fill="black">
<path d="M 104.6 101.9 L 104.09722948074341 106.71821746826171 L 107.1 106.1 L 114.4 104.4 L 122.2 102.4 L 122.30432720184326 102.79412508010864 L 130.2 102.1 L 138.2 105.8 L 142.4 112.8 L 143.5 120.3 L 143.0 128.1 L 141.5 136.2 L 139.4 144.5 L 137.0 152.5 L 134.7 159.8 L 132.97168951034547 164.98493146896362 L 133.2 165.1 L 129.2 172.2 L 124.7 178.0 L 119.6 182.4 L 113.6 185.2 L 106.9 185.6 L 100.6 183.7 L 95.0 179.9 L 89.9 174.7 L 85.0 168.1 L 83.12539920806884 164.94907522201538 L 78.8 170.6 L 71.9 178.0 L 64.1 184.8 L 55.4 173.8 L 62.1 167.9 L 68.1 161.5 L 73.5 154.6 L 78.1 147.1 L 82.0 139.0 L 85.2 130.4 L 86.99713230133057 123.7865530014038 L 84.4 124.1 L 79.1 124.5 L 74.3 124.6 L 69.8 124.4 L 65.7 123.8 L 68.2 110.1 L 71.0 110.4 L 74.4 110.6 L 78.5 110.5 L 83.1 110.2 L 88.3 109.6 L 89.71399898529053 109.37673702239991 L 90.6 101.0 L 91.0 90.0 L 105.0 90.0 Z M 124.7 116.4 L 124.66787643432617 116.27953672409058 L 117.7 118.0 L 110.1 119.8 L 103.0 121.3 L 101.83788118362426 121.50814065933227 L 101.3 124.3 L 98.5 134.7 L 94.8 144.5 L 90.3 153.8 L 89.43124475479127 155.22606992721558 L 92.6 153.5 L 96.7 160.4 L 100.6 165.7 L 104.1 169.2 L 106.8 171.1 L 108.7 171.7 L 110.1 171.6 L 111.9 170.8 L 114.4 168.5 L 117.4 164.6 L 119.68737754821777 160.57976064682006 L 121.3 155.5 L 123.7 148.3 L 125.9 140.7 L 127.9 133.2 L 129.1 126.2 L 129.5 120.5 L 129.1 116.9 L 128.7 116.1 L 128.3 116.0 Z M 65.6 22.4 L 67.3 30.7 L 67.7574257850647 33.90198020935058 L 68.7 33.7 L 74.5 32.0 L 80.5 29.6 L 86.8 26.7 L 93.1 39.2 L 86.0 42.5 L 79.0 45.2 L 72.2 47.3 L 69.50507841110229 47.86311798095703 L 70.2 56.5 L 70.6 65.5 L 70.7 74.5 L 70.58999996185302 77.91000003814698 L 75.6 72.9 L 83.6 64.4 L 92.0 55.1 L 102.5 64.3 L 93.9 73.9 L 85.7 82.6 L 77.7 90.6 L 70.1 97.7 L 69.41399726867675 98.28402938842774 L 69.0 102.7 L 64.76393022537232 102.24287014007568 L 62.7 104.0 L 55.7 109.6 L 48.9 114.3 L 42.4 118.2 L 36.1 121.4 L 30.0 123.6 L 26.011443042755126 110.6615104675293 L 25.6 110.4 L 29.0 104.8 L 32.1 99.4 L 35.0 94.1 L 37.5 89.1 L 39.6 84.2 L 41.5 79.6 L 41.654652214050294 79.16504068374634 L 39.7 80.3 L 37.7 82.0 L 36.7 83.2 L 36.4 83.9 L 36.3 84.2 L 36.5 84.9 L 37.2 86.2 L 25.6 94.0 L 23.4 89.8 L 22.4 85.0 L 22.9 80.1 L 24.9 75.7 L 27.9 72.0 L 31.7 68.9 L 36.2 66.2 L 41.3 63.7 L 47.3 61.4 L 54.0 59.2 L 55.471804237365724 64.29470701217652 L 56.53524141311645 64.44006900787353 L 56.2 57.4 L 55.63639726638794 49.60349550247192 L 52.5 49.7 L 46.3 49.2 L 40.2 48.0 L 34.3 46.2 L 28.6 43.6 L 35.1 31.2 L 39.3 33.1 L 43.6 34.5 L 48.1 35.3 L 52.9 35.7 L 53.89192323684692 35.68016157150269 L 53.5 33.1 L 52.0 25.3 L 50.2 17.7 L 63.7 14.2 Z M 140.3 16.8 L 144.7 18.0 L 148.7 20.1 L 148.3876353263855 20.587288856506348 L 148.8 20.5 L 149.5 25.0 L 149.8 29.5 L 149.6 34.0 L 148.9 38.4 L 147.8 42.8 L 146.3 47.1 L 145.33593463897705 49.17274045944214 L 147.7 49.1 L 153.6 49.4 L 159.1 50.2 L 164.0 51.6 L 168.5 53.6 L 172.5 56.4 L 175.6 60.1 L 177.8 64.4 L 178.78196182250977 68.59565505981445 L 178.8 68.6 L 178.789466381073 68.62772006988526 L 178.9 69.1 L 178.59586544036864 69.13719635009765 L 176.9 73.6 L 173.8 78.1 L 169.8 82.1 L 164.9 85.7 L 159.2 89.1 L 152.7 92.2 L 145.3 95.2 L 136.9 98.1 L 127.7 100.9 L 117.6 103.5 L 114.3 89.9 L 124.0 87.4 L 132.7 84.8 L 140.4 82.1 L 147.0 79.4 L 152.7 76.7 L 157.2 74.0 L 160.7 71.4 L 163.1 69.1 L 163.94489793777467 67.8326530456543 L 163.1 66.8 L 161.6 65.8 L 159.4 64.8 L 156.3 63.9 L 152.3 63.4 L 147.6 63.1 L 142.0 63.3 L 135.7 63.8 L 135.6681653022766 63.50499887466431 L 125.2 54.7 L 127.8 51.4 L 130.0 48.2 L 131.8 45.0 L 133.3 41.8 L 134.4 38.7 L 135.2 35.7 L 135.6 32.6 L 135.71756753921508 30.836486530303954 L 135.4 30.9 L 133.6 31.7 L 131.4 33.1 L 129.0 35.2 L 126.3 38.0 L 123.4 41.6 L 120.4 45.9 L 108.6 38.3 L 112.2 33.2 L 115.7 28.8 L 119.3 25.0 L 123.1 21.8 L 127.1 19.3 L 131.3 17.5 L 135.7 16.6 Z M 56.4 79.5 L 54.6 84.5 L 52.5 89.7 L 50.1 95.1 L 49.29909009933472 96.73148317337036 L 53.8 93.2 L 55.94105367660522 91.36924390792846 L 56.4 83.2 L 56.542307662963864 79.02564105987548 Z " />
</g>
</svg>
