<svg xmlns="http://www.w3.org/2000/svg" xmlns:xlink="http://www.w3.org/1999/xlink" version="1.1" baseProfile="full" viewBox="0 0 200 200" width="200" height="200">
<g fill="black">
<path d="M 151.5 42.3 L 156.5 44.9 L 159.9 49.0 L 161.9 53.8 L 162.5959397315979 57.48848037719726 L 163.0 57.4 L 162.7 63.5 L 160.8 68.1 L 158.4 72.1 L 155.9 75.9 L 153.6 79.5 L 151.9 82.6 L 151.1 84.7 L 151.05200004577637 84.98800001144409 L 154.7 85.9 L 160.5 88.1 L 165.7 91.1 L 170.3 94.8 L 174.0 99.3 L 176.8 104.4 L 178.6 110.0 L 179.5 116.0 L 179.6 122.4 L 179.34529962539673 124.83784666061402 L 179.8 124.9 L 178.9515895843506 128.60621385574342 L 178.9 129.1 L 178.8407967567444 129.09020376205444 L 177.9 133.2 L 174.6 141.1 L 170.0 148.6 L 164.1 155.8 L 156.9 162.5 L 148.6 168.9 L 139.1 175.0 L 128.4 180.8 L 116.5 186.3 L 103.4 191.5 L 98.5 178.4 L 111.0 173.4 L 122.1 168.2 L 132.0 162.9 L 140.6 157.4 L 147.9 151.9 L 153.9 146.2 L 158.6 140.5 L 162.2 134.7 L 164.5 128.9 L 165.00160427093505 126.78609628677368 L 165.6 121.6 L 165.6 117.1 L 165.0 113.2 L 163.9 109.9 L 162.4 107.2 L 160.4 104.8 L 157.8 102.7 L 154.6 100.8 L 150.5 99.2 L 146.08427352905272 98.11859760284423 L 146.0 98.3 L 140.3 94.1 L 137.2 87.9 L 137.4 81.7 L 139.2 76.6 L 141.6 72.2 L 144.3 68.1 L 146.7 64.5 L 148.5 61.5 L 148.9259036064148 60.404819297790525 L 148.4 57.6 L 147.75128202438356 56.02454214096069 L 146.7 56.4 L 144.1 57.8 L 140.7 60.4 L 136.5 64.1 L 131.8 69.0 L 121.5 59.4 L 126.8 54.0 L 131.8 49.6 L 136.5 46.1 L 141.2 43.5 L 146.1 42.1 Z M 40.0 65.3 L 38.3 66.8 L 37.1 68.6 L 36.4 70.4 L 36.3 71.6 L 36.4 72.0 L 36.7 72.2 L 38.4 72.7 L 42.5 72.8 L 48.77676658630371 71.67580299377441 L 52.0 70.1 L 56.2 68.6 L 60.5 67.8 L 65.1 68.2 L 69.6 70.6 L 72.5 74.6 L 73.6 79.0 L 73.6 83.3 L 72.9 87.9 L 72.11298704147339 91.17922077178955 L 72.0 93.1 L 71.92809019088745 97.70222721099853 L 75.9 93.8 L 81.5 88.5 L 91.0 98.8 L 85.6 103.9 L 80.1 109.3 L 74.5 115.0 L 71.99886064529419 117.63277826309204 L 72.0 117.7 L 72.3 128.4 L 72.7 138.2 L 72.9 147.0 L 72.7 154.7 L 71.8 161.7 L 69.7 168.0 L 65.3 173.4 L 64.83099727630615 172.81239891052246 L 62.8 172.0 L 60.1 171.0 L 57.2 170.0 L 54.1 169.0 L 50.9 168.1 L 47.4 167.2 L 43.8 166.3 L 39.9 165.5 L 35.9 164.6 L 31.7 163.8 L 31.868634510040284 162.87588262557983 L 21.5 154.6 L 27.9 146.7 L 34.2 139.0 L 40.4 131.7 L 46.5 124.7 L 52.6 117.9 L 57.903261280059816 112.14730978012085 L 57.8 105.9 L 58.1 92.6 L 58.301170349121094 89.02922697067261 L 58.2 89.0 L 58.33176898956299 88.48610105514527 L 58.63515958786011 83.10091753005982 L 52.8 85.1 L 43.7 86.8 L 35.9 86.5 L 29.3 84.1 L 24.5 79.3 L 22.4 73.3 L 22.7 67.5 L 24.6 62.2 L 27.9 57.5 L 32.2 53.7 Z M 57.0 133.9 L 51.0 140.8 L 44.9 148.0 L 41.92701559066772 151.59635210037231 L 42.9 151.8 L 46.9 152.7 L 50.8 153.6 L 54.6 154.6 L 58.1 155.6 L 58.469648933410646 155.71959228515624 L 58.7 153.8 L 58.9 147.0 L 58.7 138.7 L 58.43688364028931 132.31942796707153 Z M 62.8 19.4 L 65.4 22.6 L 68.1 25.4 L 70.9 27.9 L 73.9 30.2 L 76.9 32.1 L 80.0 33.8 L 83.3 35.1 L 86.7 36.2 L 90.3 37.1 L 87.6 50.8 L 83.0 49.7 L 78.4 48.3 L 74.0 46.4 L 69.8 44.2 L 65.8 41.6 L 62.0 38.7 L 58.4 35.4 L 54.9 31.8 L 51.7 27.9 L 48.7 23.7 L 60.3 15.9 Z " />
</g>
</svg>
