<svg xmlns="http://www.w3.org/2000/svg" xmlns:xlink="http://www.w3.org/1999/xlink" version="1.1" baseProfile="full" viewBox="0 0 200 200" width="200" height="200">
<g fill="black">
<path d="M 116.25725841522217 21.420853900909425 L 126.6 30.3 L 125.2 31.8 L 123.6 33.6 L 121.6 35.4 L 119.5 37.5 L 117.0 39.8 L 114.3 42.3 L 111.3 45.0 L 108.0 47.9 L 104.4 51.0 L 100.65582380294799 54.168149089813234 L 100.8 54.4 L 99.2 55.7 L 98.7 56.4 L 98.7 56.5 L 98.8 56.7 L 99.6 57.6 L 101.9 59.1 L 106.2 60.6 L 112.4 61.6 L 120.7 61.8 L 131.1 61.0 L 132.72403383255005 74.27886476516724 L 132.8 74.4 L 132.74323377609252 74.43585233688354 L 132.8 74.9 L 131.89854011535644 74.96934309005738 L 129.0 76.8 L 124.7 79.7 L 119.8 82.9 L 114.4 86.6 L 108.4 90.6 L 102.0 95.0 L 95.0 99.9 L 87.5 105.1 L 79.5 110.7 L 71.0 116.7 L 70.93489894866943 116.60757255554199 L 67.6 119.0 L 66.80920038223266 119.83731727600097 L 69.7 121.6 L 78.7 125.4 L 90.9 130.1 L 104.8 136.3 L 119.5 144.8 L 133.9 156.1 L 146.7 171.0 L 135.2 178.9 L 124.3 166.3 L 111.8 156.4 L 98.6 148.9 L 85.6 143.1 L 73.7 138.4 L 63.6 134.2 L 55.6 128.9 L 52.1 118.2 L 58.0 108.8 L 62.91511116027832 105.22145414352417 L 62.9 105.2 L 63.96778526306152 104.45503358840942 L 69.4 100.5 L 69.47160968780517 100.61515607833863 L 71.5 99.2 L 79.5 93.6 L 87.0 88.4 L 94.0 83.5 L 100.5 79.1 L 106.5 75.0 L 106.77478418350219 74.81514520645142 L 102.8 74.2 L 95.9 71.7 L 90.4 68.2 L 86.4 63.3 L 84.7 57.3 L 85.7 51.3 L 88.8 46.3 L 91.67582340240479 43.92431983947754 L 91.4 43.6 L 95.2 40.3 L 96.89436616897584 38.888028144836426 L 92.5 39.3 L 86.2 39.5 L 80.2 39.4 L 74.4 38.9 L 68.8 37.9 L 63.4 36.6 L 58.3 34.8 L 63.4 21.8 L 67.4 23.1 L 71.6 24.2 L 76.2 25.0 L 81.0 25.4 L 86.1 25.5 L 91.6 25.3 L 97.3 24.8 L 103.3 23.9 L 109.6 22.7 L 115.94791669845581 21.25729169845581 L 116.0 21.2 L 116.04186410903931 21.235939979553223 L 116.2 21.2 Z " />
</g>
</svg>
