<svg xmlns="http://www.w3.org/2000/svg" xmlns:xlink="http://www.w3.org/1999/xlink" version="1.1" baseProfile="full" viewBox="0 0 200 200" width="200" height="200">
<g fill="black">
<path d="M 76.7 24.6 L 81.3 30.1 L 80.75676679611206 30.343813323974608 L 81.8 38.5 L 78.9 45.6 L 74.5 51.6 L 69.4 57.0 L 64.2 62.1 L 59.6 66.9 L 56.4 71.0 L 55.2 73.4 L 55.1 73.5 L 55.27545738220215 73.63646688461304 L 55.4 73.5 L 60.2 78.3 L 63.77669906616211 82.5421314239502 L 69.6 75.5 L 80.3 84.4 L 71.8 94.8 L 71.62160663604736 95.02299165725708 L 73.9 100.4 L 75.9 106.6 L 77.3 113.1 L 78.1 119.7 L 78.3 126.5 L 77.9 133.6 L 70.2 132.87985610961914 L 77.8 133.7 L 76.7 141.2 L 74.9 148.2 L 72.6 154.6 L 69.5 160.4 L 65.8 165.7 L 61.4 170.2 L 56.4 174.0 L 50.8 177.1 L 44.7 179.4 L 42.752702713012695 179.84256753921508 L 40.6 180.6 L 38.3307692527771 180.84755249023436 L 38.1 180.9 L 38.09556722640991 180.873210811615 L 35.1 181.2 L 29.7 180.0 L 25.0 177.1 L 21.6 172.8 L 19.6 167.7 L 18.8 162.1 L 19.0 156.1 L 20.2 149.6 L 21.325702953338624 146.01821784973146 L 21.2 146.0 L 22.3 141.6 L 24.3 137.0 L 27.0 131.9 L 30.6 126.2 L 35.0 119.7 L 40.2 112.4 L 46.3 104.4 L 53.2 95.6 L 54.665899181365965 93.77702283859253 L 53.4 91.9 L 49.9 87.7 L 46.0 83.8 L 46.17071847915649 83.61293611526489 L 42.1 78.7 L 41.6 70.2 L 44.7 63.3 L 49.2 57.6 L 54.3 52.2 L 59.5 47.1 L 63.9 42.4 L 66.9 38.4 L 67.79361705780029 36.45029010772705 L 66.7 36.5 L 62.8 37.2 L 57.9 38.6 L 52.4 40.2 L 46.3 41.9 L 39.9 43.1 L 33.3 43.7 L 26.4 43.0 L 29.4 29.3 L 33.2 29.7 L 37.8 29.3 L 43.0 28.3 L 48.4 26.8 L 54.0 25.1 L 59.5 23.6 L 64.9 22.6 L 70.6 22.5 Z M 141.3 20.0 L 147.5 21.8 L 153.0 25.2 L 157.8 29.7 L 161.9 35.3 L 161.59098119735717 35.48956613540649 L 162.0 35.4 L 162.6 40.1 L 162.3 44.7 L 161.0 49.2 L 158.9 53.4 L 156.0 57.3 L 152.5 60.8 L 148.4 64.0 L 143.7 67.0 L 138.5 69.8 L 133.81497659683228 71.86458654403687 L 132.9 72.7 L 132.65879945755006 72.85770807266235 L 131.3 76.3 L 129.7 79.8 L 128.5 82.9 L 127.8 85.3 L 127.74857950210571 85.76278409957885 L 134.5 92.9 L 136.15202207565306 95.16066179275512 L 136.3 95.0 L 143.0 89.0 L 149.6 84.6 L 156.3 81.9 L 163.4 81.5 L 170.1 83.8 L 175.4 88.6 L 175.27451181411743 88.70016031265259 L 177.6 92.7 L 178.9 97.6 L 178.5 102.6 L 176.8 107.3 L 174.1 111.5 L 170.5 115.4 L 166.2 119.1 L 161.0 122.8 L 157.1366147994995 125.18242092132569 L 157.4 125.4 L 161.7 129.2 L 165.6 133.2 L 169.3 137.4 L 172.6 141.6 L 175.6 145.9 L 178.2 150.3 L 180.5 154.8 L 182.5 159.5 L 169.4 164.4 L 167.8 160.7 L 166.0 157.1 L 163.8 153.5 L 161.3 149.9 L 158.5 146.3 L 155.4 142.8 L 152.0 139.4 L 149.00982027053834 136.64588708877562 L 147.9 144.5 L 145.2 153.8 L 141.2 163.2 L 136.89994678497314 170.82650957107543 L 137.0 170.9 L 136.57973976135253 171.39442377090455 L 135.9 172.6 L 135.67323942184447 172.4608947753906 L 133.6 174.9 L 129.6 178.0 L 125.0 180.1 L 119.8 180.6 L 114.9 179.4 L 110.5 176.8 L 106.7 173.4 L 103.2 169.1 L 100.63150911331176 165.13051404953003 L 96.6 169.1 L 87.3 158.8 L 92.8 153.2 L 97.7 147.4 L 101.8 141.6 L 105.0 136.2 L 106.9 131.5 L 107.46863098144532 128.9005439758301 L 105.01976318359375 129.37671270370484 L 104.9 129.6 L 93.0 122.3 L 97.9 113.1 L 100.0 106.3 L 100.3 102.4 L 100.28395719528199 102.34652404785156 L 99.3 102.9 L 96.7 105.7 L 94.1 110.8 L 92.0 118.2 L 78.2 115.7 L 81.0 105.6 L 85.3 97.6 L 90.7 91.8 L 97.3 88.4 L 104.9 88.5 L 111.4 93.2 L 114.1 100.5 L 113.8 108.9 L 111.74824466705323 115.5340087890625 L 115.9 116.6 L 117.25201082229614 118.25552339553833 L 121.8 111.9 L 126.6292236328125 105.91176271438599 L 123.7 101.9 L 117.9 95.7 L 118.10285892486573 95.48446235656738 L 116.7 94.5 L 113.9 88.5 L 114.0 82.9 L 115.3 78.2 L 116.9 74.2 L 118.07292070388795 71.63423595428466 L 116.7 68.3 L 116.3 65.3 L 116.2 62.1 L 116.5 58.7 L 117.0 54.9 L 130.9 57.0 L 130.75266971588135 57.94291362762451 L 132.4 57.2 L 136.7 54.9 L 140.4 52.6 L 143.3 50.3 L 145.5 48.1 L 147.0 46.0 L 148.0 44.1 L 148.5 42.3 L 148.5906310081482 40.66864242553711 L 147.3 38.9 L 144.5 36.3 L 141.8 34.6 L 138.8 33.7 L 135.5 33.5 L 131.5 34.1 L 126.8 35.7 L 121.5 38.3 L 115.6 42.0 L 109.1 46.8 L 100.3 35.9 L 107.6 30.4 L 114.6 26.0 L 121.5 22.7 L 128.2 20.5 L 134.8 19.6 Z M 57.4 112.9 L 51.5 120.7 L 46.5 127.7 L 42.3 133.8 L 39.1 139.0 L 36.8 143.2 L 35.5 146.3 L 35.23395614624023 147.2045491218567 L 35.5 147.3 L 33.8 152.9 L 32.9 157.7 L 32.8 161.5 L 33.2 164.3 L 33.8 166.0 L 34.4 166.7 L 34.9 167.0 L 35.7 167.2 L 35.830552101135254 167.1846408843994 L 35.8 167.0 L 39.86217613220215 166.08808288574218 L 40.1 166.0 L 40.11459541320801 166.03141736984253 L 40.7 165.9 L 45.0 164.3 L 48.8 162.3 L 52.1 159.8 L 55.0 156.7 L 57.6 153.2 L 59.7 148.9 L 61.5 144.1 L 62.9 138.5 L 63.9 132.2 L 64.00451126098633 132.2112781524658 L 64.3 126.4 L 64.1 120.7 L 63.5 115.3 L 62.4 110.2 L 61.56261682510376 107.63551397323609 Z M 133.0 120.3 L 125.5 130.7 L 117.4 142.9 L 117.26361484527588 142.81215867996215 L 113.6 149.2 L 110.3220588684082 153.84375 L 112.0 156.9 L 114.6 160.9 L 116.9 163.8 L 118.9 165.6 L 120.2 166.4 L 120.9 166.6 L 121.4 166.6 L 122.2 166.2 L 123.7 164.9 L 125.13853816986084 163.2456810951233 L 128.6 157.0 L 132.0 149.0 L 134.2 141.5 L 135.2 134.4 L 135.2 127.5 L 134.0 120.9 L 133.54172658920288 119.62480449676514 Z M 159.6 95.5 L 156.3 96.9 L 151.7 100.0 L 146.2 104.9 L 143.80306463241578 107.48716831207275 L 144.5 108.8 L 146.66915187835693 115.0182354927063 L 148.0 114.3 L 153.3 111.1 L 157.6 108.0 L 160.9 105.3 L 163.1 102.8 L 164.4 100.9 L 164.9 99.6 L 164.9 98.9 L 164.8 98.2 L 164.1 97.1 L 164.19140300750732 97.02770853042603 L 162.8 95.8 L 161.6 95.3 Z " />
</g>
</svg>
