<svg xmlns="http://www.w3.org/2000/svg" xmlns:xlink="http://www.w3.org/1999/xlink" version="1.1" baseProfile="full" viewBox="0 0 200 200" width="200" height="200">
<g fill="black">
<path d="M 131.1 22.1 L 135.0 25.0 L 138.6 27.7 L 142.0 30.1 L 145.1 32.3 L 148.0 34.3 L 150.7 36.0 L 153.1 37.5 L 155.2 38.7 L 157.1 39.7 L 156.9529644012451 39.99173727035522 L 157.3 40.0 L 156.6 53.9 L 144.7 53.7 L 133.6 54.0 L 123.2 54.8 L 122.28871393203735 54.942388439178465 L 121.5 60.7 L 121.01036157608033 65.2155541419983 L 122.8 65.5 L 135.9 69.3 L 147.1 74.8 L 156.3 82.0 L 163.1 91.0 L 167.2 101.6 L 168.8 113.3 L 167.9 126.1 L 164.8 139.8 L 163.43623819351197 143.56297235488893 L 169.8 149.3 L 181.7 164.0 L 170.2 171.9 L 159.7 158.9 L 157.1444444656372 156.6111110687256 L 151.2 164.0 L 139.3 173.2 L 126.6 178.3 L 113.8 179.5 L 101.7 176.8 L 91.2 170.6 L 84.56787624359131 163.16882524490356 L 80.6 165.2 L 72.4 167.5 L 64.0 167.0 L 56.6 161.1 L 54.8 151.7 L 57.28729982376099 141.84646606445312 L 57.2 141.8 L 57.34926824569702 141.60097560882568 L 57.4 141.4 L 57.47740030288696 141.4301329612732 L 64.7 131.8 L 74.8 124.4 L 76.720223903656 123.67386493682861 L 80.0 110.9 L 85.0 99.8 L 91.2 92.0 L 99.1 87.6 L 107.9 88.0 L 114.7 92.9 L 118.8 100.4 L 120.5 109.5 L 119.8 119.9 L 119.70465307235717 120.23515872955322 L 128.2 122.3 L 142.6 128.4 L 151.7451021194458 134.2789942741394 L 154.1 123.9 L 154.8 113.7 L 153.7 105.1 L 150.8 97.9 L 146.3 91.9 L 139.7 86.7 L 130.9 82.4 L 119.8 79.1 L 111.92082595825195 77.88336286544799 L 106.0 77.5 L 106.7 67.8 L 107.6 59.0 L 107.77843370437623 57.60821714401245 L 104.7 58.3 L 96.6 60.8 L 89.3 63.9 L 82.7 67.5 L 76.8 71.6 L 71.6 76.2 L 61.7 66.3 L 68.1 60.6 L 75.3 55.6 L 83.2 51.3 L 91.8 47.7 L 101.1 44.8 L 110.29653377532959 42.663431549072264 L 111.5 38.0 L 113.3 32.7 L 115.5 28.1 L 118.3 24.1 L 122.0 20.9 L 126.82761640548706 19.225112628936767 L 127.0 19.0 Z M 31.4 22.1 L 34.1 23.1 L 36.6 24.4 L 39.0 25.9 L 41.1 27.8 L 43.0 29.9 L 44.5 32.2 L 45.7 34.8 L 46.5 37.5 L 46.9 40.3 L 46.67891073226929 40.32067737579346 L 43.1 60.8 L 40.3 79.6 L 38.2 96.7 L 37.0 112.0 L 36.4 125.5 L 36.56647834777832 135.23898305892945 L 39.0 128.5 L 42.0 120.5 L 45.3 111.8 L 49.1 102.3 L 62.1 107.5 L 58.4 116.9 L 55.1 125.5 L 52.1 133.3 L 49.6 140.3 L 47.5 146.6 L 45.8 152.1 L 44.5 156.7 L 43.6 160.5 L 43.1 163.3 L 43.06223773956299 163.94195804595947 L 43.4 164.5 L 43.01071424484253 164.817857170105 L 43.0 165.0 L 42.787640476226805 165.0 L 32.5 173.4 L 28.4 166.6 L 25.5 158.5 L 23.6 149.0 L 22.6 137.9 L 22.4 125.3 L 23.0 111.1 L 24.3 95.3 L 26.4 77.8 L 29.3 58.6 L 32.565808868408205 39.640165424346925 L 31.8 38.3 L 31.3 37.8 L 30.6 37.2 L 29.7 36.6 L 28.5 36.0 L 27.1 35.5 L 25.4 35.0 L 28.5 21.4 Z M 111.9 139.2 L 105.1 147.7 L 97.3 155.1 L 96.45936546325683 155.68743133544922 L 100.1 159.8 L 106.8 163.8 L 114.7 165.5 L 123.3 164.7 L 132.3 161.0 L 141.4 154.0 L 146.54799757003784 147.53507280349731 L 136.1 140.8 L 123.8 135.5 L 115.01254062652588 133.39391469955444 Z M 74.5 141.8 L 70.2084478378296 147.58045797348024 L 68.8 152.8 L 68.8 153.6 L 70.4 153.6 L 75.4 152.2 L 78.28271188735962 150.7586441040039 L 77.6 149.2 L 76.48008975982665 140.3651523590088 Z M 90.1 133.4 L 90.0273380279541 133.42839660644532 L 89.8 135.1 L 90.68181819915772 142.15454549789428 L 94.9 138.2 L 99.753777217865 132.0878360748291 Z M 102.6 101.2 L 100.6 102.4 L 97.1 106.9 L 93.3 115.4 L 92.35115547180176 119.08036680221558 L 99.8 118.0 L 105.75453109741211 118.34025888442993 L 106.0 117.5 L 106.5 110.2 L 105.6 104.9 L 104.0 101.9 L 103.1 101.2 Z M 126.3 37.9 L 125.3556269645691 40.59820852279663 L 131.7962917327881 40.080655097961426 L 130.3 39.0 L 126.91439609527588 36.52942419052124 Z " />
</g>
</svg>
