<svg xmlns="http://www.w3.org/2000/svg" xmlns:xlink="http://www.w3.org/1999/xlink" version="1.1" baseProfile="full" viewBox="0 0 200 200" width="200" height="200">
<g fill="black">
<path d="M 133.6 18.4 L 130.8 27.3 L 126.9 35.0 L 122.4 41.7 L 117.7 47.5 L 113.4 52.4 L 109.9 56.4 L 107.7 59.4 L 107.34972648620605 60.042168045043944 L 112.41349010467529 69.82831802368165 L 121.4 68.3 L 135.2 69.0 L 147.3 74.5 L 146.95450077056884 74.93286685943603 L 148.0 79.4 L 148.3 84.2 L 147.8 89.0 L 146.5 93.9 L 144.6 98.7 L 142.0 103.5 L 138.9 108.3 L 135.1 113.1 L 131.8385754585266 116.73204097747802 L 131.9 116.8 L 130.88269891738892 117.79653978347778 L 130.7 118.0 L 128.87588548660278 119.861341381073 L 128.9 120.0 L 129.3 133.0 L 129.17263154983522 133.84912281036378 L 131.2 134.6 L 138.9 136.4 L 148.9 138.0 L 147.0 151.9 L 136.3 150.2 L 127.3 148.0 L 126.62126293182374 147.7582580566406 L 123.9 156.3 L 118.4 166.6 L 111.3 176.2 L 102.7 185.1 L 93.76379823684692 175.4112759590149 L 93.6 175.6 L 91.5 173.6 L 89.0 170.9 L 85.9 167.6 L 82.3 163.4 L 78.2 158.6 L 73.4 152.9 L 68.1 146.4 L 62.1 139.2 L 55.6 131.2 L 49.62105264663696 123.70526313781738 L 45.7 119.0 L 47.3 107.4 L 54.5 98.1 L 64.8 89.7 L 77.6 82.1 L 91.9 75.6 L 98.54833068847657 73.44378461837769 L 94.35113286972046 65.29922218322754 L 94.1 65.0 L 93.4 57.7 L 95.7 52.1 L 99.1 47.5 L 103.0 43.0 L 107.1 38.3 L 111.2 33.3 L 114.9 27.8 L 117.9 21.9 L 119.9 15.5 Z M 96.9 88.6 L 84.1 94.5 L 72.8 101.2 L 64.3 108.1 L 59.8 113.7 L 59.70387506484985 113.9723539352417 L 66.5 122.3 L 73.0 130.3 L 78.9 137.5 L 84.2 143.9 L 88.9 149.5 L 92.9 154.3 L 96.4 158.3 L 99.2 161.4 L 101.4 163.7 L 102.43157892227173 164.65789470672607 L 106.6 159.1 L 111.0 150.8 L 113.9 141.9 L 113.92690153121949 141.7136109352112 L 109.6 136.6 L 107.8 130.0 L 109.0 123.4 L 112.2 117.7 L 113.96045017242432 115.50921754837036 L 112.9 109.5 L 108.9 96.2 L 104.65398035049438 86.13282442092896 Z M 118.47841501235962 82.96953887939453 L 122.0 91.4 L 125.43145656585693 102.68567934036255 L 127.5 100.1 L 130.0 96.3 L 131.9 92.7 L 133.3 89.4 L 134.0 86.5 L 134.3 83.8 L 134.28969697952272 83.55272731781005 L 132.3 82.7 L 122.4 82.3 Z " />
</g>
</svg>
