<svg xmlns="http://www.w3.org/2000/svg" xmlns:xlink="http://www.w3.org/1999/xlink" version="1.1" baseProfile="full" viewBox="0 0 200 200" width="200" height="200">
<g fill="black">
<path d="M 74.3 115.6 L 70.0 118.3 L 68.3522388458252 119.67313432693481 L 68.4 119.7 L 72.7 120.8 L 79.3 121.6 L 88.2 121.7 L 99.3 121.0 L 100.6 134.9 L 98.47997846603394 135.04133472442626 L 98.7 135.4 L 95.5 137.5 L 92.3 139.5 L 89.3 141.4 L 86.5 143.4 L 83.8 145.3 L 81.3 147.1 L 78.9 148.9 L 76.7 150.7 L 74.6 152.5 L 73.43794250488281 153.4877489089966 L 73.5 153.6 L 69.4 156.6 L 69.1 157.2 L 69.7 158.2 L 73.4 161.5 L 80.5 165.3 L 90.4 168.8 L 102.4 171.6 L 116.1 173.4 L 130.8 173.9 L 146.2 173.0 L 147.7 186.9 L 131.0 187.9 L 114.9 187.3 L 100.0 185.4 L 86.5 182.3 L 74.9 178.2 L 65.5 173.1 L 58.5 166.6 L 55.1 157.5 L 58.4 148.0 L 63.477960681915285 143.90092334747314 L 63.3 143.7 L 65.5 141.8 L 67.8 139.9 L 70.3 137.9 L 72.9 135.9 L 74.06000003814697 135.0714285850525 L 70.1 134.6 L 63.3 132.7 L 57.7 129.5 L 53.8 123.8 L 53.8 116.7 L 57.0 111.2 L 61.7 106.9 L 67.8 103.2 Z M 112.5 14.4 L 119.3 16.4 L 126.5 19.9 L 134.1 24.6 L 126.2 36.2 L 119.7 32.1 L 114.2 29.5 L 109.9 28.2 L 106.9 28.0 L 105.2 28.4 L 104.0 29.3 L 102.6 31.4 L 101.2 35.2 L 100.3 40.8 L 100.27329301834106 41.44096803665161 L 110.6 40.8 L 125.4 39.4 L 140.5 37.4 L 155.9 35.0 L 171.6 32.1 L 174.3 45.8 L 158.3 48.8 L 142.5 51.3 L 127.0 53.3 L 111.8 54.7 L 100.0117486000061 55.48588342666626 L 100.3 62.5 L 101.1 67.9 L 102.3 71.5 L 104.0 73.9 L 106.9 76.0 L 111.9 78.0 L 119.4 79.8 L 129.6 81.5 L 142.7 83.0 L 141.2 96.9 L 141.0 96.8777777671814 L 141.0 97.0 L 139.3 97.0 L 136.8 97.3 L 133.7 97.8 L 130.0 98.5 L 125.7 99.5 L 120.9 100.6 L 115.5 102.0 L 109.5 103.6 L 102.9 105.4 L 95.9 107.4 L 92.0 93.9 L 99.2 91.9 L 105.15523977279663 90.27584371566772 L 100.2 88.2 L 94.1 83.8 L 89.8 77.9 L 87.5 71.1 L 86.4 63.7 L 86.0321086883545 56.06625480651856 L 82.1 56.2 L 67.7 56.2 L 53.5 55.6 L 39.6 54.6 L 26.0 53.0 L 27.9 39.1 L 40.9 40.6 L 54.3 41.6 L 67.9 42.2 L 81.9 42.2 L 86.2737473487854 42.04599485397339 L 86.4 39.3 L 87.7 31.8 L 90.0 25.2 L 93.8 19.7 L 99.3 15.7 L 105.7 14.0 Z " />
</g>
</svg>
