<svg xmlns="http://www.w3.org/2000/svg" xmlns:xlink="http://www.w3.org/1999/xlink" version="1.1" baseProfile="full" viewBox="0 0 200 200" width="200" height="200">
<g fill="black">
<path d="M 147.7 25.2 L 154.7 27.2 L 160.8 30.5 L 165.7 35.2 L 169.1 41.2 L 169.77289552688597 43.742049598693846 L 169.9 43.7 L 170.12248516082764 45.06272192001343 L 170.9 48.0 L 170.6085452079773 48.03983917236328 L 170.7 48.6 L 169.9 53.6 L 167.4 57.9 L 164.0 61.2 L 159.8 63.9 L 154.9 66.0 L 149.3 67.9 L 145.4136200904846 68.825328540802 L 150.1 70.2 L 157.8 72.9 L 165.8 76.1 L 160.3 89.0 L 159.95196943283082 88.85890655517578 L 157.1 91.8 L 153.5 94.7 L 149.4 97.3 L 145.1 99.6 L 140.3 101.5 L 135.2 103.1 L 129.8 104.5 L 124.0 105.5 L 117.9 106.3 L 115.33444910049438 106.53682012557984 L 115.4 108.7 L 115.5 119.0 L 115.4 129.7 L 115.1 141.0 L 114.5 152.7 L 113.8 164.8 L 112.9 177.5 L 99.0 176.4 L 99.02435340881348 176.06175813674926 L 98.7 176.3 L 96.8 174.0 L 94.6 171.6 L 92.0 169.3 L 89.0 167.0 L 85.5 164.6 L 81.7 162.3 L 77.5 160.1 L 72.9 157.8 L 67.9 155.6 L 62.5 153.5 L 65.18861770629883 146.31206293106078 L 64.9 146.5 L 60.3 149.4 L 57.23343534469605 151.31660289764403 L 57.3 151.4 L 53.4 154.3 L 49.9 156.7 L 46.5 158.6 L 43.2 159.9 L 39.4 160.4 L 34.8 159.4 L 31.1 155.9 L 29.6 151.9 L 29.4 148.3 L 29.603592777252196 146.79341316223145 L 29.6 146.7 L 29.9 144.2 L 30.4 141.7 L 31.3 139.3 L 32.4 136.9 L 33.7 134.5 L 35.2 132.1 L 37.0 129.7 L 38.9 127.2 L 49.7 136.2 L 48.1 138.2 L 46.8 140.0 L 45.7 141.7 L 45.517373752594 142.04242420196533 L 48.2 140.4 L 52.9 137.5 L 57.3 134.7 L 61.6 132.0 L 65.6 129.3 L 69.5 126.7 L 73.1 124.2 L 76.5 121.7 L 79.8 119.4 L 88.2 130.6 L 84.8 133.0 L 81.2 135.6 L 77.4 138.2 L 73.4 140.9 L 71.65935831069946 142.06042776107788 L 73.3 142.7 L 78.7 145.1 L 83.9 147.6 L 88.6 150.2 L 93.1 152.9 L 97.2 155.6 L 100.24772033691406 157.98875379562378 L 100.6 152.0 L 101.1 140.5 L 101.4 129.5 L 101.5 118.9 L 101.40230674743653 109.13067779541015 L 98.3 109.5 L 93.8 110.0 L 89.0 110.4 L 84.0 110.8 L 78.7 111.1 L 73.1 111.4 L 67.3 111.7 L 61.842105293273924 111.87894735336303 L 60.8 112.1 L 57.4 112.0 L 54.1 111.0 L 51.1 109.2 L 48.8 106.8 L 46.9 104.2 L 45.5 101.2 L 44.3 98.0 L 43.4 94.5 L 57.0 91.3 L 57.7 93.8 L 58.4 95.8 L 59.1 97.1 L 59.6 97.9 L 59.8 98.1 L 59.9 98.1 L 60.8 97.7 L 60.897482299804686 97.89341726303101 L 66.7 97.7 L 72.4 97.5 L 77.9 97.2 L 83.0 96.8 L 87.9 96.5 L 92.4 96.1 L 96.7 95.6 L 100.7 95.1 L 100.85991058349609 95.0783905029297 L 100.6 90.4 L 100.0 81.8 L 99.20592956542968 74.74159603118896 L 96.8 67.3 L 102.7 65.7 L 108.7 64.8 L 115.1 64.4 L 121.6 64.5 L 126.96247720718384 65.05201969146728 L 126.1 58.0 L 133.6 56.9 L 140.1 55.7 L 145.5 54.4 L 150.0 53.0 L 153.3 51.5 L 155.4 50.1 L 156.5 49.2 L 156.7 48.8 L 156.7 48.73333330154419 L 156.1 46.4 L 154.7 43.8 L 152.6 41.9 L 149.5 40.2 L 145.2 39.0 L 139.5 38.4 L 132.4 38.6 L 124.1 39.7 L 118.6 40.8 L 112.6 42.2 L 108.75 43.11666669845581 L 103.8 44.4 L 103.76512660980225 44.27610759735107 L 99.7 45.2 L 92.8 46.8 L 85.5 48.5 L 77.9 50.2 L 70.0 51.9 L 61.8 53.8 L 53.3 55.6 L 44.9364631652832 57.479446506500246 L 45.0 57.9 L 41.5 58.2 L 38.0 57.9 L 34.6 57.0 L 31.5 55.4 L 28.8 53.1 L 26.5 50.4 L 24.8 47.4 L 23.6 44.1 L 22.7 40.5 L 22.1 36.7 L 36.0 35.2 L 36.4 37.8 L 36.9 39.9 L 37.5 41.5 L 38.2 42.6 L 38.7 43.3 L 39.2 43.7 L 39.7 43.9 L 40.3 44.1 L 41.4 44.2 L 41.463829803466794 44.19148931503296 L 41.4 43.9 L 50.3 42.0 L 58.8 40.1 L 67.0 38.3 L 74.8 36.5 L 82.4 34.8 L 89.6 33.2 L 96.5 31.6 L 103.1 30.0 L 106.56363639831542 29.230303001403808 L 111.4 28.0 L 113.14953269958497 27.646728992462158 L 115.3 27.1 L 115.32584161758423 27.207281970977782 L 121.8 25.9 L 131.3 24.7 L 139.9 24.5 Z M 135.4 119.6 L 141.4 121.4 L 147.2 123.9 L 152.7 126.9 L 157.9 130.4 L 162.8 134.4 L 167.3 139.0 L 171.6 144.0 L 175.5 149.6 L 179.1 155.6 L 166.8 162.3 L 163.8 157.2 L 160.5 152.6 L 157.0 148.5 L 153.4 144.8 L 149.5 141.6 L 145.4 138.8 L 141.1 136.5 L 136.6 134.6 L 131.8 133.1 L 126.8 132.0 L 129.1 118.2 Z M 113.68580379486085 78.50083503723144 L 113.9 80.5 L 114.6 89.5 L 114.76337080001831 92.53869743347168 L 116.4 92.4 L 121.9 91.7 L 126.9 90.8 L 131.5 89.7 L 135.6 88.4 L 139.2 86.9 L 142.5 85.2 L 145.17835054397582 83.41443300247192 L 139.1 81.6 L 132.6 80.1 L 126.5 79.0 L 120.8 78.5 L 115.4 78.4 Z " />
</g>
</svg>
