<svg xmlns="http://www.w3.org/2000/svg" xmlns:xlink="http://www.w3.org/1999/xlink" version="1.1" baseProfile="full" viewBox="0 0 200 200" width="200" height="200">
<g fill="black">
<path d="M 85.35500421524048 25.914695167541502 L 85.4 25.8 L 85.82450647354126 25.968454933166505 L 86.1 26.0 L 86.07817373275756 26.069116592407227 L 91.7 28.3 L 97.6 30.6 L 103.2 32.8 L 108.4 34.9 L 113.3 36.8 L 117.8 38.6 L 122.0 40.2 L 125.9 41.8 L 129.4 43.2 L 132.5 44.5 L 132.3014142036438 45.002305316925046 L 139.6 56.9 L 129.6 62.6 L 119.1 67.5 L 108.2 71.6 L 96.9 74.9 L 87.3114956855774 76.94882574081421 L 95.4 91.2 L 104.16384553909302 104.61963844299316 L 108.3 101.7 L 123.4 92.7 L 139.4 84.3 L 155.9 76.8 L 160.20717401504515 75.12355499267578 L 158.6 73.8 L 156.8 72.7 L 154.8 71.7 L 152.7 70.9 L 157.1 57.6 L 160.4 58.9 L 163.6 60.5 L 166.6 62.3 L 169.4 64.5 L 172.0 66.9 L 174.3 69.6 L 176.4 72.5 L 178.4 75.6 L 180.0 78.9 L 181.5 82.5 L 168.4 87.4 L 168.25966701507568 87.06830387115478 L 161.4 89.7 L 145.5 96.9 L 130.2 104.9 L 115.9 113.5 L 112.25793914794922 116.03237047195435 L 115.1 120.0 L 125.2 132.4 L 114.7 141.5 L 104.0 128.5 L 100.9091407775879 124.24277877807617 L 92.4 131.4 L 84.1 140.1 L 78.8 148.1 L 76.7 154.7 L 77.18264980316162 159.4299684524536 L 77.7 160.4 L 79.2 162.0 L 82.0 163.7 L 86.1 165.3 L 91.7 166.5 L 98.7 167.4 L 106.9 167.8 L 116.4 167.7 L 127.2 167.1 L 139.2 166.0 L 140.7 179.9 L 128.3 181.1 L 116.9 181.7 L 106.7 181.8 L 97.5 181.4 L 89.3 180.3 L 82.1 178.7 L 75.9 176.3 L 70.5 173.0 L 66.2 168.5 L 64.18991708755493 164.3309391975403 L 64.0 164.4 L 63.9376558303833 163.80773067474365 L 63.5 162.9 L 63.83168315887451 162.8009901046753 L 62.8 153.0 L 66.3 141.8 L 73.2 131.3 L 82.8 121.2 L 92.76398124694825 112.91063747406005 L 83.5 98.5 L 74.6 83.0 L 72.71614789962769 79.12763738632202 L 60.6 80.0 L 47.8 80.1 L 34.6 79.5 L 21.0 78.0 L 22.9 64.1 L 35.7 65.5 L 48.1 66.1 L 60.1 66.0 L 66.42930173873901 65.55970077514648 L 62.4 54.6 L 60.2 42.4 L 62.7 31.2 L 73.0 24.5 Z M 74.7 38.5 L 74.2 42.0 L 75.9 50.7 L 80.3 62.6 L 80.91072607040405 63.857913398742674 L 82.7 63.6 L 93.4 61.3 L 103.7 58.3 L 113.6 54.6 L 116.55435094833373 53.200570583343506 L 112.6 51.6 L 108.1 49.8 L 103.2 47.9 L 98.0 45.8 L 92.5 43.6 L 86.6 41.3 L 81.35502395629882 39.218660259246825 L 75.2 38.3 Z " />
</g>
</svg>
