<svg xmlns="http://www.w3.org/2000/svg" xmlns:xlink="http://www.w3.org/1999/xlink" version="1.1" baseProfile="full" viewBox="0 0 200 200" width="200" height="200">
<g fill="black">
<path d="M 72.9 24.1 L 76.7 24.5 L 80.3 25.1 L 83.7 26.0 L 87.0 27.3 L 90.1 28.9 L 93.0 30.7 L 95.5 32.9 L 97.9 35.4 L 99.62010049819946 37.808140659332274 L 100.0 37.8 L 99.9232391357422 54.764157390594484 L 109.9 52.7 L 121.2 50.7 L 131.9 49.0 L 131.92121448516846 49.14041976928711 L 132.1 48.6 L 134.7 49.6 L 137.2 50.8 L 139.5 52.2 L 141.6 53.8 L 143.5 55.7 L 145.1 57.8 L 146.3 60.2 L 147.3 62.7 L 147.8 65.3 L 148.0 68.0 L 147.99772729873658 68.0 L 148.3 68.1 L 142.8 84.3 L 137.8 99.2 L 133.4 112.6 L 129.7 124.6 L 127.0 135.1 L 125.2 143.8 L 124.6 150.7 L 125.0 155.4 L 126.0 157.7 L 126.38940401077271 158.05695362091063 L 127.2 158.2 L 130.6 158.4 L 135.3 158.3 L 141.2 158.0 L 148.2 157.4 L 156.2 156.7 L 165.3 155.9 L 175.4 155.0 L 176.5 168.9 L 166.6 169.8 L 157.5 170.6 L 149.4 171.4 L 142.2 172.0 L 135.9 172.3 L 130.4 172.4 L 125.6 172.1 L 121.2 171.2 L 120.77085485458375 170.96592082977295 L 120.7 171.1 L 120.16589860916137 170.6359447479248 L 116.8 168.8 L 115.11575708389282 166.24811687469483 L 114.6 165.8 L 114.14639177322388 164.77938146591185 L 113.5 163.8 L 113.6876371383667 163.7471836090088 L 111.4 158.6 L 110.6 150.6 L 111.4 141.7 L 113.3 131.8 L 116.3 120.7 L 120.1 108.4 L 124.5 94.7 L 129.6 79.8 L 133.88794059753417 67.01558437347413 L 133.8 66.4 L 133.6 65.9 L 133.3 65.4 L 132.9 64.9 L 132.4 64.3 L 131.6 63.7 L 131.02278480529785 63.35367088317871 L 123.5 64.5 L 112.5 66.5 L 101.3 68.8 L 99.32680473327636 69.2621898651123 L 98.7 79.5 L 96.1 96.8 L 92.4 112.2 L 87.4 125.9 L 81.2 138.0 L 73.9 148.8 L 65.6 158.5 L 56.3 167.3 L 46.2 175.5 L 45.95944232940674 175.1858599662781 L 45.6 175.6 L 42.4 172.6 L 39.4 169.5 L 36.6 166.3 L 34.0 163.0 L 31.6 159.6 L 29.5 156.0 L 27.6 152.4 L 25.9 148.6 L 24.4 144.8 L 23.2 140.8 L 36.7 137.1 L 37.7 140.2 L 38.8 143.3 L 40.2 146.3 L 41.7 149.2 L 43.4 152.0 L 45.3 154.7 L 46.95068588256836 156.82231044769287 L 47.1 156.7 L 55.4 148.8 L 62.8 140.3 L 69.1 130.9 L 74.5 120.3 L 79.0 108.2 L 82.4 94.2 L 84.7 78.0 L 85.03407649993896 72.82181377410889 L 79.3 74.4 L 69.1 77.8 L 59.9 81.6 L 51.9 85.7 L 45.5 90.1 L 41.0 94.5 L 30.1 85.8 L 36.7 79.2 L 44.8 73.7 L 54.1 68.9 L 64.3 64.7 L 75.2 61.0 L 85.90647506713867 58.02080698013306 L 85.97657041549682 43.09049234390259 L 85.9 43.0 L 84.6 41.9 L 83.1 41.0 L 81.4 40.1 L 79.4 39.4 L 77.2 38.8 L 74.7 38.3 L 72.0 38.0 L 69.0 38.0 L 69.0 24.0 Z M 126.48998937606811 160.14355850219727 L 127.0 160.0 L 126.7550458908081 159.6419900894165 Z " />
</g>
</svg>
