<svg xmlns="http://www.w3.org/2000/svg" xmlns:xlink="http://www.w3.org/1999/xlink" version="1.1" baseProfile="full" viewBox="0 0 200 200" width="200" height="200">
<g fill="black">
<path d="M 122.7 16.5 L 126.6 16.8 L 130.5 17.3 L 134.5 18.1 L 131.4 31.8 L 130.97894735336303 31.721052646636963 L 127.4 35.3 L 123.5 39.3 L 120.38003616333008 42.642818450927734 L 122.1 42.4 L 130.5 41.4 L 138.8 40.8 L 146.9 40.4 L 154.9 40.3 L 162.8 40.5 L 170.5 41.0 L 169.4 54.9 L 162.2 54.5 L 154.8 54.3 L 147.3 54.4 L 139.7 54.7 L 131.9 55.4 L 123.9 56.2 L 115.8 57.4 L 107.5 58.8 L 105.93292741775512 59.11714563369751 L 105.1 60.1 L 99.8 66.4 L 94.3 73.2 L 88.5 80.5 L 82.5 88.2 L 81.05156841278077 87.09084062576294 L 82.5 88.4 L 81.9 89.3 L 81.7 90.8 L 82.1 94.0 L 83.1 98.5 L 83.87188062667846 101.69779100418091 L 91.7 97.4 L 93.57844276428223 96.44400682449341 L 93.5 96.3 L 100.4 92.8 L 106.8 89.9 L 112.9 87.6 L 118.6 85.9 L 124.1 84.9 L 129.2 84.6 L 129.75357141494752 84.65535717010498 L 129.8737226486206 78.94817514419556 L 129.7 75.3 L 130.3 69.7 L 131.9 64.8 L 134.7 60.5 L 138.9 57.5 L 143.9 56.4 L 148.7 57.1 L 152.9 59.2 L 156.6 62.2 L 160.0 66.0 L 148.8 74.4 L 146.9 72.2 L 145.3 70.9 L 144.6199999809265 70.56000003814697 L 144.6 70.6 L 144.1 72.4 L 143.7 75.7 L 143.8085536956787 78.19673404693603 L 143.9 78.2 L 143.86989250183106 79.60752687454223 L 143.9 80.3 L 143.85499019622802 80.30420951843261 L 143.65253925323486 89.76879043579102 L 146.5 92.7 L 145.8327488899231 93.2109580039978 L 143.9 95.9 L 143.5102752685547 96.41963300704955 L 143.5 96.9 L 143.5 113.2 L 143.53783168792725 115.86713361740112 L 149.30765829086303 114.05243005752564 L 153.5 112.2 L 156.7 110.3 L 159.0 108.5 L 160.3 107.0 L 160.9 106.0 L 161.0 105.1 L 160.9 104.1 L 160.4 102.5 L 159.1 100.4 L 156.9 97.7 L 167.0 88.2 L 170.4 92.2 L 173.0 96.5 L 174.6 101.0 L 175.0 105.9 L 174.0 110.8 L 171.7 115.1 L 168.5 118.7 L 164.5 121.9 L 159.9 124.6 L 159.15705490112305 124.94395608901978 L 162.2 127.0 L 165.6 129.7 L 168.8 132.7 L 171.6 135.9 L 174.0 139.3 L 176.1 142.9 L 177.9 146.7 L 179.3 150.7 L 180.3 154.9 L 180.9 159.2 L 167.0 160.7 L 166.5 157.6 L 165.8 154.6 L 164.9 151.9 L 163.7 149.3 L 162.3 146.9 L 160.6 144.6 L 158.7 142.4 L 156.5 140.3 L 154.0 138.3 L 151.2 136.4 L 157.85900888442993 125.54490327835083 L 156.11603469848632 126.35183582305908 L 156.2 126.6 L 143.7776668548584 130.45845193862914 L 144.0 139.5 L 144.2 150.0 L 144.2 158.9 L 143.9 166.6 L 143.1 173.3 L 141.5 179.4 L 138.8 184.8 L 127.64466781616211 177.4584566116333 L 127.4 177.6 L 127.13502998352051 177.12305393218995 L 127.1 177.1 L 127.11052627563477 177.07894735336305 L 126.9 176.7 L 126.1 175.7 L 125.1 174.4 L 123.8 172.9 L 122.3 171.3 L 120.6 169.6 L 118.6 167.7 L 116.4 165.7 L 114.0 163.5 L 111.4 161.3 L 120.5 150.6 L 123.3 153.0 L 125.8 155.3 L 128.2 157.5 L 130.18000001907347 159.38999996185302 L 130.2 158.7 L 130.2 150.2 L 130.0 139.9 L 129.84450960159302 133.52489519119263 L 123.5 134.4 L 116.4 134.2 L 110.3 132.2 L 105.5 126.9 L 105.1 120.0 L 107.6 114.8 L 109.39893617630005 112.8117021560669 L 109.3 112.7 L 110.24347829818726 111.87826089859009 L 111.4 110.6 L 113.7887324333191 108.65915489196777 L 115.3 107.2 L 118.1 104.5 L 120.8 101.7 L 123.13134326934815 99.27898969650269 L 121.9 99.5 L 117.4 100.8 L 112.2 102.8 L 107.96940507888795 104.72974500656127 L 98.3 109.7 L 88.6 115.1 L 86.73923301696777 116.2418342590332 L 87.1 118.8 L 87.3 127.7 L 86.3 137.4 L 84.19493894577026 145.7422791481018 L 84.4 145.8 L 82.9 150.4 L 80.9 154.7 L 78.4 158.6 L 75.6 162.3 L 72.3 165.6 L 68.7 168.6 L 64.7 171.2 L 60.3 173.4 L 55.7 175.2 L 53.832513618469235 175.76024589538574 L 53.9 176.0 L 50.75263156890869 176.6842104911804 L 50.7 176.7 L 50.69893293380737 176.69588413238526 L 49.3 177.0 L 44.9 177.3 L 40.5 176.6 L 36.3 174.5 L 33.0 171.0 L 31.2 166.8 L 30.7 162.4 L 30.9 157.8 L 31.8 153.0 L 32.773101234436034 149.62658224105834 L 32.7 149.6 L 32.910726642608644 149.149481010437 L 33.3 147.8 L 33.51015481948853 147.86794481277465 L 35.6 143.4 L 39.4 137.4 L 44.1 131.5 L 49.8 125.7 L 56.4 120.0 L 63.9 114.3 L 71.27373857498169 109.32494745254516 L 70.9 107.6 L 69.5 102.0 L 68.3 96.5 L 67.7 90.8 L 68.7 84.7 L 71.59389171600341 79.84847564697266 L 71.4 79.7 L 77.5 71.8 L 83.4 64.5 L 84.29772930145263 63.39386920928955 L 79.2 64.4 L 72.2 65.8 L 66.0 67.2 L 60.4 68.5 L 55.6 69.7 L 51.5 70.9 L 48.2 72.0 L 45.6 73.0 L 45.49591503143311 72.75587348937988 L 42.0 72.0 L 38.5 70.8 L 35.3 69.4 L 32.2 67.6 L 29.4 65.5 L 27.0 63.1 L 24.8 60.3 L 23.0 57.3 L 21.5 54.1 L 20.4 50.7 L 34.0 47.1 L 34.6 49.1 L 35.4 50.8 L 36.3 52.4 L 37.4 53.7 L 38.6 54.9 L 40.0 56.0 L 41.6 56.9 L 43.6 57.8 L 45.05 58.28333330154419 L 47.4 57.5 L 51.9 56.2 L 57.1 54.9 L 62.9 53.5 L 69.3 52.1 L 76.4 50.7 L 84.2 49.2 L 92.7 47.6 L 94.46944446563721 47.288888931274414 L 96.2 46.9 L 98.31491708755493 46.4674033164978 L 99.5 45.1 L 104.3 39.5 L 109.0 34.3 L 111.94407663345336 31.08205575942993 L 110.1 31.4 L 107.2 32.1 L 104.4 33.0 L 101.5 34.0 L 101.41573305130005 33.794897365570066 L 101.4 33.8 L 98.0 35.0 L 94.7 36.2 L 91.5 37.5 L 88.4 38.7 L 82.8 41.3 L 80.2 42.7 L 77.8 44.0 L 75.5 45.4 L 75.0 45.9 L 73.0 43.7 L 71.3 41.3 L 69.8 38.7 L 68.7 35.9 L 67.8 33.1 L 67.3 30.1 L 67.0 27.1 L 67.1 23.9 L 67.4 20.8 L 67.9 17.6 L 81.6 20.3 L 81.2 22.6 L 81.0 26.6 L 81.01468534469605 26.724825191497803 L 82.9 25.9 L 86.2 24.5 L 89.7 23.1 L 93.3 21.8 L 97.0 20.5 L 100.8 19.3 L 100.83029289245606 19.39369668960571 L 103.5 18.6 L 107.3 17.7 L 111.1 17.0 L 114.9 16.6 L 118.8 16.4 Z M 72.0 125.7 L 65.2 130.9 L 59.4 136.0 L 54.6 140.9 L 50.7 145.6 L 47.8 150.1 L 46.02127656936646 154.1255319595337 L 45.4 156.3 L 44.8 159.6 L 44.7 162.0 L 44.79514560699463 163.23689317703247 L 45.3 163.3 L 47.2 163.1 L 48.192105293273926 162.8947368621826 L 51.1 162.0 L 54.6 160.6 L 57.7 159.0 L 60.5 157.2 L 62.9 155.3 L 65.1 153.1 L 66.9 150.7 L 68.5 148.1 L 69.9 145.2 L 70.3340588569641 143.81101150512694 L 70.3 143.8 L 72.5 135.0 L 73.3 127.2 L 73.23545455932617 124.87636365890503 Z M 128.0 114.4 L 125.0 117.4 L 124.06446781158448 118.24782609939575 L 124.1 118.3 L 123.425 118.82734375 L 121.71243162155152 120.37935886383056 L 122.6 120.4 L 129.58534393310546 119.40209369659424 L 129.5 113.3 L 129.5 112.84827585220337 Z " />
</g>
</svg>
