<svg xmlns="http://www.w3.org/2000/svg" xmlns:xlink="http://www.w3.org/1999/xlink" version="1.1" baseProfile="full" viewBox="0 0 200 200" width="200" height="200">
<g fill="black">
<path d="M 150.1 135.0 L 154.4 135.8 L 158.5 137.5 L 162.1 139.9 L 165.0 143.2 L 167.1 147.0 L 168.4 151.1 L 168.9 155.6 L 168.5933159828186 155.61544446945192 L 167.5 159.4 L 165.3 163.4 L 162.2 166.9 L 158.5 170.0 L 154.1 172.8 L 149.1 175.3 L 143.5 177.6 L 137.2 179.8 L 130.2 181.9 L 122.5 183.8 L 119.4 170.1 L 126.6 168.3 L 133.0 166.5 L 138.5 164.5 L 143.3 162.6 L 147.2 160.6 L 150.3 158.7 L 152.5 156.8 L 153.9 155.3 L 154.6 154.0 L 154.64897956848145 153.8367346763611 L 154.2 152.4 L 153.6 151.2 L 152.9 150.5 L 151.9 149.8 L 150.5 149.3 L 148.4 148.9 L 145.7 148.7 L 142.3 149.0 L 138.3 149.6 L 135.6 135.9 L 140.7 135.1 L 145.5 134.7 Z M 62.4 23.4 L 64.7 31.1 L 64.8 39.3 L 63.3 47.8 L 60.3 56.5 L 56.1 65.7 L 50.8 75.1 L 44.5 84.9 L 42.439184761047365 87.7908658027649 L 44.9 88.3 L 50.8 94.6 L 54.0 102.8 L 55.7 112.8 L 56.4 125.1 L 56.3 139.6 L 55.4 156.5 L 53.9 175.6 L 40.0 174.3 L 41.5 155.5 L 42.3 139.2 L 42.4 125.4 L 41.7 114.3 L 40.4 106.2 L 38.7 101.5 L 37.8 100.4 L 37.6 100.4 L 34.8 101.5 L 29.3 105.5 L 28.484539413452147 104.5693112373352 L 18.5 96.6 L 26.1 86.7 L 32.9 77.1 L 38.8 67.9 L 43.6 59.3 L 47.3 51.3 L 49.7 44.1 L 50.9 38.0 L 50.8 33.1 L 49.7 29.5 L 47.7 26.6 L 57.6 16.7 Z M 106.4 142.1 L 103.9 144.3 L 101.7 146.5 L 99.8 148.9 L 98.2 151.4 L 97.73079023361205 152.41662120819092 L 100.1 151.2 L 104.3 149.1 L 109.0 146.8 L 114.2 144.3 L 120.0 141.6 L 125.9 154.3 L 120.2 157.0 L 115.1 159.4 L 110.4 161.7 L 106.4 163.7 L 102.9 165.5 L 99.9 167.0 L 97.5 168.4 L 95.8 169.4 L 94.88289785385132 169.98361043930055 L 94.9 170.3 L 81.0 171.6 L 80.7 166.7 L 80.9 162.0 L 81.5 157.4 L 82.5 152.9 L 84.0 148.7 L 86.0 144.6 L 88.3 140.8 L 91.1 137.3 L 94.3 134.0 L 97.9 131.0 Z M 166.9 100.2 L 172.5 102.8 L 177.0 107.3 L 179.4 113.0 L 179.9 119.2 L 179.62564306259156 119.19013109207154 L 178.5 123.0 L 175.9 126.3 L 172.7 128.7 L 169.0 130.4 L 165.0 131.7 L 160.4 132.7 L 155.3 133.6 L 149.6 134.2 L 143.2 134.7 L 136.1 134.9 L 135.8 121.0 L 142.4 120.7 L 148.3 120.3 L 153.5 119.7 L 157.8 119.0 L 161.3 118.2 L 164.0 117.3 L 165.6 116.6 L 165.81945943832397 116.44324321746826 L 165.8 116.2 L 165.3 115.0 L 164.6 114.3 L 163.0 113.6 L 159.7 113.1 L 154.9 113.2 L 148.7 114.1 L 141.1 115.9 L 132.4 118.6 L 124.57485599517823 121.33880043029785 L 124.6 121.4 L 118.0 123.9 L 111.5 126.0 L 105.2 127.6 L 99.1 128.7 L 93.1 129.3 L 87.3 129.4 L 81.7 129.0 L 76.2 128.1 L 71.0 126.7 L 66.0 124.7 L 71.8 112.0 L 75.4 113.4 L 79.2 114.5 L 83.3 115.1 L 87.6 115.4 L 92.2 115.3 L 97.1 114.8 L 102.2 113.9 L 107.7 112.5 L 113.4 110.7 L 117.43648805618287 109.194868850708 L 117.4 109.1 L 127.9 105.3 L 137.5 102.4 L 146.0 100.4 L 153.7 99.2 L 160.6 99.1 Z M 119.2 23.6 L 121.7 30.9 L 122.8 38.3 L 122.85460004806518 42.34040613174439 L 128.3 41.0 L 135.2 38.5 L 142.6 35.1 L 150.5 30.9 L 157.4 43.0 L 148.9 47.6 L 140.6 51.4 L 132.5 54.4 L 124.4 56.4 L 121.91648845672607 56.71436853408814 L 121.5 60.0 L 120.46045255661011 66.33178882598877 L 121.6 65.8 L 124.9 64.6 L 128.4 63.4 L 132.2 62.2 L 132.54236249923707 62.11649694442749 L 132.5 62.0 L 135.5 61.2 L 138.6 60.9 L 141.7 61.1 L 144.8 62.1 L 147.6 63.7 L 149.9 65.8 L 151.8 68.2 L 153.4 70.9 L 154.6 73.9 L 155.7 77.0 L 155.4268370628357 77.0789137840271 L 156.0 77.0 L 156.0 81.7 L 154.5 86.1 L 151.9 89.9 L 148.6 93.1 L 144.6 95.9 L 140.0 98.4 L 134.7 100.7 L 128.7 102.8 L 122.0 104.9 L 114.6 106.8 L 111.3 93.1 L 118.3 91.4 L 124.4 89.5 L 129.6 87.7 L 133.9 85.8 L 137.3 84.0 L 139.8 82.3 L 141.3 80.8 L 141.88709678649903 79.96129035949707 L 141.5 78.8 L 140.8 77.2 L 140.2 76.0 L 139.6 75.3 L 139.3 75.0 L 139.1 74.9 L 138.8800000190735 74.9 L 136.0 75.7 L 132.7 76.7 L 129.6 77.7 L 127.0 78.8 L 124.6 79.8 L 122.6 80.8 L 121.0 81.8 L 119.7 82.8 L 118.92050209045411 83.49288702011108 L 118.9 84.6 L 105.0 85.3 L 105.0 78.4 L 105.7 71.5 L 106.6 64.7 L 107.6 58.0 L 107.69977121353149 57.176887893676756 L 100.7 56.1 L 92.9 53.6 L 85.3 50.0 L 77.7 45.2 L 85.8 33.8 L 92.0 37.7 L 98.0 40.6 L 103.9 42.4 L 108.86500749588012 43.17043218612671 L 108.8 39.4 L 108.0 34.1 L 106.4 29.3 L 103.9 24.9 L 115.2 16.6 Z " />
</g>
</svg>
