<svg xmlns="http://www.w3.org/2000/svg" xmlns:xlink="http://www.w3.org/1999/xlink" version="1.1" baseProfile="full" viewBox="0 0 200 200" width="200" height="200">
<g fill="black">
<path d="M 165.5847541809082 26.50039052963257 L 166.0 26.2 L 173.9 37.7 L 169.8 40.7 L 165.8 43.9 L 161.9 47.5 L 158.0 51.4 L 154.1 55.6 L 150.3 60.2 L 146.5 65.0 L 142.8 70.2 L 139.1 75.8 L 135.74269666671753 81.30224723815918 L 136.1 81.6 L 139.4 83.7 L 144.1 86.3 L 149.5 89.3 L 155.1 93.0 L 160.4 97.8 L 164.7 104.2 L 166.7655619621277 111.80502367019653 L 167.0 111.8 L 166.7 121.7 L 165.6 130.8 L 163.5 139.0 L 160.4 146.3 L 156.1 152.7 L 150.7 157.9 L 144.3 161.9 L 137.1 164.5 L 129.1 165.8 L 126.0 165.83647060394287 L 126.0 166.0 L 123.79801979064942 165.86237621307373 L 120.6 165.9 L 120.61192293167115 165.66324520111084 L 119.6 165.6 L 113.5 164.7 L 107.7 163.2 L 102.2 160.9 L 97.1 158.1 L 92.3 154.6 L 87.9 150.5 L 83.9 145.9 L 80.3 140.7 L 79.33219060897827 138.97608947753906 L 73.6 146.9 L 65.7 156.7 L 56.8 167.1 L 46.7 178.0 L 36.6 168.4 L 46.3 157.8 L 55.0 147.8 L 62.5 138.4 L 68.9 129.6 L 74.1 121.4 L 78.2 113.9 L 81.2 107.2 L 83.1 101.2 L 83.93516292572022 96.37461404800415 L 80.4 93.9 L 78.2 92.7 L 75.9 91.6 L 73.4 90.5 L 68.2 88.7 L 65.3 88.0 L 68.5 74.4 L 72.0 75.3 L 75.3 76.3 L 78.6 77.5 L 81.7 78.8 L 84.7 80.3 L 87.6 82.0 L 90.4 83.7 L 93.0 85.7 L 95.5 87.8 L 97.9 90.0 L 97.67580642700196 90.22419357299805 L 97.9 90.2 L 98.0 97.2 L 96.7 104.6 L 94.3 112.2 L 90.8 120.2 L 86.1 128.6 L 84.30991735458375 131.39504127502443 L 89.7 128.7 L 92.2 133.3 L 95.0 137.3 L 98.0 140.8 L 101.2 143.8 L 104.6 146.3 L 108.2 148.3 L 112.2 149.9 L 116.4 151.0 L 121.0 151.7 L 125.0524193763733 151.94314517974854 L 127.9 151.9 L 133.6 150.9 L 138.2 149.2 L 142.1 146.9 L 145.3 143.7 L 148.0 139.7 L 150.2 134.5 L 151.8 128.2 L 152.8 120.7 L 152.9679334640503 113.47885990142822 L 152.1 110.2 L 150.0 107.2 L 146.7 104.2 L 142.3 101.3 L 137.5 98.6 L 132.5 95.9 L 127.7 92.8 L 123.4 88.4 L 121.2 81.3 L 123.5 74.0 L 123.6526653289795 74.0983268737793 L 127.3 68.3 L 131.2 62.3 L 135.3 56.7 L 139.4 51.4 L 143.6 46.4 L 145.07575998306274 44.78696002960205 L 140.3 45.8 L 129.9 48.1 L 119.0 50.5 L 107.5 53.0 L 95.5 55.7 L 83.0 58.5 L 70.0 61.5 L 56.746839714050296 64.54331827163696 L 56.7 64.8 L 53.0 64.0 L 49.4 62.9 L 46.0 61.5 L 42.7 59.9 L 39.5 58.0 L 36.5 55.9 L 33.6 53.5 L 30.9 50.8 L 28.3 48.0 L 25.9 44.9 L 37.2 36.6 L 39.0 39.0 L 41.0 41.1 L 43.0 43.1 L 45.0 44.8 L 47.2 46.3 L 49.4 47.6 L 51.7 48.7 L 54.1 49.7 L 55.99083557128906 50.30506734848022 L 66.9 47.8 L 80.0 44.9 L 92.5 42.0 L 104.5 39.4 L 115.9 36.8 L 126.9 34.4 L 137.3 32.1 L 147.2 30.0 L 156.6 28.0 L 165.5 26.1 Z M 135.3 81.6 L 135.25306119918824 81.55306119918824 L 134.9122857093811 81.3502857208252 Z " />
</g>
</svg>
