<svg xmlns="http://www.w3.org/2000/svg" xmlns:xlink="http://www.w3.org/1999/xlink" version="1.1" baseProfile="full" viewBox="0 0 200 200" width="200" height="200">
<g fill="black">
<path d="M 94.5 143.2 L 95.7 144.4 L 97.4 145.5 L 99.5 146.4 L 102.1 147.1 L 105.0 147.6 L 108.0 147.8 L 111.0 147.7 L 112.06097564697265 147.6268292427063 L 116.1 147.1 L 116.1088981628418 147.17275581359863 L 116.6 147.1 L 119.3 160.8 L 115.6 161.4 L 113.25161294937134 161.58064517974853 L 113.1 161.6 L 108.2 162.2 L 103.4 162.8 L 98.9 163.7 L 94.8 164.8 L 91.4 166.1 L 88.8 167.5 L 87.2 169.0 L 86.46101694107055 170.29322032928468 L 88.2 171.3 L 91.8 172.4 L 97.1 173.3 L 104.2 173.5 L 113.0 172.8 L 123.6 171.1 L 126.3 184.8 L 114.6 186.7 L 104.5 187.4 L 95.9 187.2 L 88.6 186.1 L 82.5 184.1 L 77.6 181.1 L 73.9 176.9 L 72.13560066223144 171.50877990722657 L 72.0 171.5 L 73.3 165.3 L 76.5 160.0 L 80.7 156.1 L 85.18000001907349 153.58000001907348 L 83.6 152.0 L 81.0 147.8 L 93.7 142.0 Z M 87.2 12.7 L 90.5 13.4 L 93.7 14.4 L 96.8 15.6 L 99.8 17.1 L 102.6 18.7 L 105.3 20.6 L 107.8 22.7 L 110.2 25.0 L 112.4 27.5 L 111.88692855834961 27.918929862976075 L 111.8 32.7 L 111.6 38.1 L 111.4 43.3 L 111.30192308425903 48.30192308425903 L 118.9 55.9 L 116.3 58.5 L 114.1 61.0 L 112.1 63.2 L 111.25896625518799 64.23892402648926 L 111.2 67.6 L 111.00281686782837 70.36056337356567 L 111.2 70.4 L 115.1 70.8 L 120.0 71.0 L 120.0 81.47615385055542 L 130.9 77.2 L 144.4 71.8 L 144.4506667137146 71.92666664123536 L 147.9 70.6 L 151.8 69.6 L 155.6 69.3 L 159.5 69.8 L 163.3 71.4 L 166.5 74.0 L 168.7 77.3 L 170.0 81.0 L 170.7 84.8 L 170.95162391662598 88.32273502349854 L 171.4 88.5 L 168.8 92.7 L 165.3 96.0 L 160.8 99.3 L 155.3 102.7 L 148.7 106.3 L 140.9 110.2 L 131.8 114.5 L 121.6 119.0 L 110.2 123.9 L 101.10733213424683 127.62298212051391 L 103.3 128.2 L 108.4 129.2 L 114.7 130.0 L 113.2 143.9 L 106.2 143.0 L 100.3 141.9 L 95.2 140.5 L 90.8 138.8 L 87.0 136.2 L 84.0 131.7 L 83.8 125.8 L 86.2 121.3 L 89.5 118.2 L 92.36614170074463 116.265354347229 L 92.3 116.1 L 93.08651685714722 115.77910108566284 L 93.5 115.5 L 93.55321340560913 115.58868894577026 L 104.8 111.0 L 116.0 106.2 L 126.0 101.7 L 134.8 97.6 L 142.2 93.9 L 148.3 90.5 L 153.1 87.6 L 156.5 85.2 L 156.58640003204346 85.11840000152588 L 156.5 84.6 L 156.1 83.6 L 156.0 83.3 L 155.5 83.3 L 154.3 83.4 L 152.3 83.9 L 149.7 84.9 L 149.11034479141236 83.5758620262146 L 149.6 84.8 L 136.0 90.2 L 123.0 95.3 L 110.5 100.1 L 98.5 104.6 L 87.1 108.9 L 76.2 112.8 L 65.9 116.4 L 56.1 119.8 L 46.8 122.9 L 38.0 125.6 L 37.86594829559326 125.16514930725097 L 37.8 125.2 L 34.1 117.5 L 31.4 109.8 L 29.6 102.1 L 28.7 94.4 L 28.8 86.8 L 29.9 79.4 L 32.0 72.0 L 35.0 64.9 L 39.0 58.0 L 43.9 51.3 L 54.8 60.1 L 50.7 65.6 L 47.6 71.2 L 45.2 76.7 L 43.6 82.3 L 42.8 88.0 L 42.7 93.7 L 43.3 99.7 L 44.8 105.8 L 45.75860185623169 108.42573566436768 L 51.6 106.5 L 61.3 103.2 L 71.5 99.6 L 81.0465181350708 96.15264625549317 L 80.4 95.8 L 77.2 93.7 L 74.0 91.3 L 70.8 88.6 L 67.7 85.6 L 67.96000003814697 85.33999996185302 L 67.1 85.7 L 65.6 80.3 L 65.8 74.7 L 67.6 69.4 L 70.7 64.7 L 74.9 60.6 L 80.0 56.9 L 86.0 53.5 L 93.0 50.3 L 97.28966569900513 48.61671342849731 L 97.3 48.1 L 97.4 42.9 L 97.6 37.7 L 97.7867841720581 32.563436126708986 L 96.8 31.7 L 95.0 30.5 L 93.1 29.4 L 91.2 28.4 L 89.1 27.6 L 86.9 27.0 L 84.6 26.4 L 82.1 26.0 L 83.8 12.1 Z M 87.5 68.7 L 83.8 71.3 L 81.4 73.7 L 80.1 75.7 L 79.6 77.2 L 79.57172241210938 77.59588689804077 L 80.2 78.2 L 82.7 80.3 L 85.2 82.2 L 87.7 83.8 L 90.0 85.1 L 92.3 86.2 L 93.9647379875183 86.77903928756714 L 94.6 84.7 L 95.5 80.7 L 95.87019414901734 78.7102066040039 L 93.7 76.4 L 91.8 72.1 L 91.6 67.6 L 91.88616142272949 66.23278417587281 Z M 108.7311803817749 85.77527837753296 L 111.91988735198974 84.56665563583374 L 109.2 84.3 L 109.10466318130493 84.28134717941285 Z " />
</g>
</svg>
