<svg xmlns="http://www.w3.org/2000/svg" xmlns:xlink="http://www.w3.org/1999/xlink" version="1.1" baseProfile="full" viewBox="0 0 200 200" width="200" height="200">
<g fill="black">
<path d="M 64.6 14.2 L 67.6 14.9 L 70.7 15.7 L 73.7 16.5 L 76.7 17.2 L 88.7 20.4 L 91.00075092315674 20.993742179870605 L 91.6 20.8 L 91.73705587387084 21.183756351470947 L 91.8 21.2 L 91.77518863677979 21.290528106689454 L 93.1 25.0 L 95.4 30.9 L 97.87535066604615 36.62424850463867 L 104.0 35.3 L 110.5 34.4 L 116.2 34.1 L 121.3 34.8 L 126.2 37.0 L 130.0 41.8 L 130.78495111465455 47.4908953666687 L 130.9 47.5 L 130.34838705062867 49.21290321350098 L 129.4 52.6 L 129.27426319122316 52.54834070205688 L 129.0 53.4 L 125.5 58.4 L 120.5 63.7 L 114.0 69.7 L 113.31994552612305 70.26394758224487 L 119.13918914794922 82.53891468048096 L 121.3 82.1 L 127.4 81.0 L 130.8193510055542 80.4104567527771 L 129.8 79.7 L 126.9 77.1 L 124.3 74.2 L 134.9 65.2 L 136.7 67.1 L 138.6 68.8 L 140.8 70.4 L 143.3 71.9 L 146.0 73.3 L 149.0 74.5 L 152.3 75.6 L 155.9 76.6 L 159.7 77.4 L 163.9 78.0 L 162.95 84.95 L 162.6 91.9 L 162.0021505355835 91.88426713943481 L 162.0 91.9 L 161.8875 91.88125 L 158.8 91.8 L 154.7 91.9 L 150.3 92.1 L 145.6 92.5 L 140.6 93.1 L 135.3 93.8 L 129.8 94.7 L 125.41345043182373 95.5319317817688 L 126.8 98.4 L 128.01295566558838 100.87083568572999 L 130.1 100.2 L 135.3 99.1 L 140.1 98.7 L 144.8 99.3 L 149.3 101.3 L 152.9 105.1 L 154.5 109.9 L 154.4 114.7 L 153.5436611175537 117.98263235092163 L 153.6 118.0 L 153.44193544387818 118.3725806236267 L 153.2 119.3 L 151.2 124.1 L 151.0452166557312 124.02198925018311 L 150.8 124.6 L 146.6 131.0 L 144.64329280853272 133.31906042098998 L 148.5 140.7 L 153.6 150.5 L 157.9 159.1 L 161.5 166.4 L 163.646222782135 170.84046096801757 L 163.7 170.9 L 163.68134937286376 170.9131365776062 L 164.4 172.4 L 166.4 177.4 L 153.5 182.5 L 151.7098265647888 178.44855489730836 L 151.4 178.1 L 149.7 176.8 L 147.1 175.2 L 143.6 173.6 L 139.3 171.8 L 134.1 170.1 L 128.1 168.3 L 121.4 166.5 L 113.9 164.8 L 107.4960220336914 163.4111855506897 L 106.6 164.0 L 94.7 171.0 L 81.5 178.3 L 67.0 185.8 L 60.7 173.2 L 74.9 165.9 L 87.7 158.9 L 99.2 152.1 L 109.2 145.5 L 117.9 139.3 L 125.2 133.3 L 127.31344118118287 131.29587478637694 L 122.90175294876099 122.32378969192504 L 120.69464063644409 118.24214372634887 L 114.8 120.6 L 107.5 124.1 L 100.2 128.1 L 93.1 132.5 L 86.1 137.4 L 79.3 142.7 L 72.5 148.6 L 65.9 154.9 L 65.5365385055542 154.5365385055542 L 52.1 151.3 L 52.7 148.6 L 52.9 145.9 L 53.0 143.4 L 52.8 140.9 L 52.3 138.5 L 51.6 136.2 L 50.7 134.0 L 49.5 131.7 L 48.0 129.5 L 46.3 127.3 L 56.9 118.2 L 59.4 121.3 L 61.6 124.6 L 63.4 128.0 L 64.8 131.6 L 65.9 135.2 L 65.99275274276734 135.7035147666931 L 70.4 131.9 L 77.8 126.1 L 85.4 120.8 L 93.2 116.0 L 101.1 111.6 L 109.2 107.8 L 113.9681318283081 105.88111763000488 L 110.54113159179687 99.65400743484497 L 106.5 100.8 L 94.2 104.4 L 83.1 107.7 L 73.2 110.8 L 64.4 113.7 L 56.8 116.3 L 50.4 118.6 L 45.2 120.7 L 41.2 122.5 L 38.6 123.9 L 31.3 112.0 L 31.928668117523195 111.64318838119507 L 31.9 111.6 L 48.4 100.6 L 63.2 90.4 L 76.2 81.2 L 87.5 73.0 L 95.97218866348267 66.40061092376709 L 94.7 63.7 L 89.96097602844239 53.23465547561646 L 84.39495038986206 54.88611364364624 L 84.4 54.9 L 79.9 56.5 L 75.8 58.2 L 72.1 59.7 L 68.9 61.2 L 66.0 62.7 L 63.6 64.1 L 61.7 65.3 L 60.2 66.5 L 59.2 67.4 L 58.6 68.0 L 57.99691209793091 67.567698097229 L 58.0 68.0 L 54.6 67.7 L 51.3 67.1 L 48.2 65.8 L 45.4 64.0 L 43.0 61.6 L 41.1 58.8 L 39.9 55.7 L 39.2 52.4 L 38.8 49.0 L 38.9 45.5 L 52.9 46.4 L 52.8 48.6 L 53.0 50.3 L 53.3 51.5 L 53.6 52.3 L 53.9 52.8 L 54.2 53.1 L 54.52941179275513 53.347058868408205 L 56.4 52.1 L 59.4 50.4 L 62.7 48.7 L 66.4 46.9 L 70.5 45.2 L 74.9 43.5 L 78.80179824829102 42.00569429397583 L 78.8 42.0 L 78.88571424484253 41.973556232452395 L 79.6 41.7 L 79.61739130020142 41.74782609939575 L 84.26335573196411 40.31449661254883 L 82.5 36.2 L 81.13554220199585 32.81614456176758 L 79.2 32.3 L 76.2 31.6 L 70.2 30.0 L 67.2 29.3 L 61.2 27.7 L 58.2 27.0 L 61.6 13.4 Z M 126.4 150.4 L 123.35930433273316 152.59060869216918 L 124.7 152.9 L 131.9 154.8 L 138.3 156.7 L 141.6833333015442 157.86666669845582 L 141.2 156.9 L 136.1 147.2 L 134.3719967842102 143.92275257110595 Z M 137.57333335876464 112.88666667938233 L 137.6 113.0 L 134.39620990753173 113.8737608909607 L 134.9 114.9 L 136.43837890625 118.011328125 L 137.3509243965149 119.70021839141846 L 138.5 117.9 L 140.1043478012085 114.33478260040283 L 140.55913982391357 112.74301071166992 L 140.0 112.7 Z M 95.9 84.1 L 84.4 92.6 L 84.21365222930908 92.73129043579101 L 90.3 90.9 L 102.6 87.3 L 103.59598054885865 87.01964988708497 L 100.18484783172607 80.81062183380126 Z M 111.9 48.3 L 106.5 49.1 L 103.69486980438232 49.69502763748169 L 107.08426084518433 57.10932054519653 L 110.7 53.8 L 114.7 49.4 L 115.67397260665894 48.101369857788086 Z " />
</g>
</svg>
