<svg xmlns="http://www.w3.org/2000/svg" xmlns:xlink="http://www.w3.org/1999/xlink" version="1.1" baseProfile="full" viewBox="0 0 200 200" width="200" height="200">
<g fill="black">
<path d="M 137.3 29.1 L 141.2 30.3 L 144.78097248077393 32.28942918777466 L 145.0 32.0 L 146.49808921813965 33.77898092269898 L 147.9 35.0 L 147.6971428871155 35.20285711288452 L 148.2 35.8 L 149.5 40.0 L 149.6 44.2 L 149.0 48.6 L 147.9 53.3 L 146.2 58.5 L 144.0 64.2 L 142.59303483963012 67.41592035293579 L 144.2 67.0 L 152.5 66.8 L 160.2 68.9 L 166.9 73.0 L 172.2 79.0 L 175.9 86.3 L 177.9 94.8 L 178.2 104.2 L 177.21014709472655 111.41178512573242 L 177.6 111.5 L 176.85903615951537 113.96987953186036 L 176.8 114.4 L 176.73417978286744 114.38606729507447 L 176.1 116.5 L 174.1 121.3 L 171.5 126.1 L 168.3 130.7 L 164.7 135.3 L 160.5 139.7 L 155.8 144.1 L 150.6 148.4 L 144.9 152.7 L 138.7 156.8 L 138.62251739501954 156.67912712097169 L 137.3 157.5 L 136.1 158.9 L 135.9256410598755 159.3358974456787 L 136.4 160.0 L 138.7 161.3 L 143.2 162.7 L 149.8 163.3 L 158.6 162.9 L 169.5 161.1 L 172.4 174.8 L 160.1 176.8 L 149.5 177.3 L 140.6 176.4 L 133.2 174.2 L 127.2 170.5 L 123.1 165.1 L 121.9 158.4 L 123.9 152.0 L 128.1 147.0 L 133.9 143.1 L 133.94437084197997 143.18874168395996 L 136.8 141.2 L 142.0 137.4 L 146.6 133.6 L 150.6 129.8 L 154.1 126.1 L 157.1 122.4 L 159.5 118.8 L 161.5 115.3 L 162.9 111.8 L 163.19587154388427 110.79403667449951 L 164.2 103.4 L 164.0 96.6 L 162.7 91.0 L 160.6 86.8 L 157.9 83.7 L 154.7 81.8 L 150.8 80.7 L 146.2 80.8 L 140.7 82.3 L 134.5 85.4 L 134.2505618095398 84.99887638092041 L 134.2 85.1 L 121.7 78.8 L 125.4 71.4 L 128.5 64.8 L 131.0 58.9 L 133.0 53.8 L 134.4 49.4 L 135.3 45.9 L 135.6 43.4 L 135.6 43.1 L 134.8 42.9 L 134.0 42.8 L 133.0 43.0 L 131.7 43.5 L 129.9 44.6 L 127.9 46.2 L 125.6 48.5 L 123.1 51.5 L 112.1 42.8 L 115.3 39.1 L 118.5 35.9 L 121.9 33.1 L 125.4 31.0 L 129.2 29.5 L 133.2 28.8 Z M 76.86798343658447 79.48417129516602 L 77.0 79.3 L 82.6 88.8 L 78.5 98.1 L 71.2 103.2 L 68.26615934371948 104.40613451004029 L 67.7 106.4 L 66.0 116.4 L 65.0 127.5 L 64.80486698150635 138.62258272171022 L 66.7 134.9 L 69.8 129.1 L 73.2 123.1 L 76.9 116.8 L 81.0 110.2 L 92.9 117.7 L 88.9 124.1 L 85.3 130.1 L 82.0 135.9 L 79.1 141.3 L 76.6 146.5 L 74.4 151.3 L 72.5 155.8 L 71.0 160.0 L 69.8 163.9 L 69.18426961898804 166.51685390472412 L 69.4 167.2 L 56.5 172.7 L 53.4 162.6 L 51.6 151.3 L 50.8 139.1 L 51.1 126.7 L 52.1 114.6 L 53.03687362670898 109.07737655639649 L 52.1 109.3 L 41.9 110.4 L 32.1 109.4 L 23.3 104.9 L 18.9 94.7 L 22.4 83.4 L 34.6 90.3 L 32.9 94.7 L 32.9 94.8 L 35.4 95.8 L 41.6 96.4 L 49.7 95.5 L 56.64308967590332 93.8065634727478 L 56.7 93.6 L 60.5 85.5 L 66.8 79.4 L 77.0 79.2 Z M 57.1 27.6 L 58.5 30.7 L 60.3 33.5 L 62.3 36.0 L 64.7 38.3 L 67.5 40.3 L 70.7 42.1 L 74.4 43.7 L 78.6 45.0 L 83.2 46.1 L 80.7 59.8 L 74.9 58.5 L 69.6 56.8 L 64.6 54.7 L 60.0 52.1 L 55.8 49.1 L 52.1 45.6 L 48.9 41.7 L 46.2 37.4 L 44.0 32.7 L 42.4 27.7 L 56.0 24.2 Z " />
</g>
</svg>
