<svg xmlns="http://www.w3.org/2000/svg" xmlns:xlink="http://www.w3.org/1999/xlink" version="1.1" baseProfile="full" viewBox="0 0 200 200" width="200" height="200">
<g fill="black">
<path d="M 109.3 21.3 L 113.0 21.8 L 116.4 22.5 L 119.6 23.4 L 122.6 24.7 L 125.3 26.3 L 127.7 28.4 L 129.8 31.0 L 131.2 34.0 L 131.9 37.2 L 131.1 56.1 L 130.0 74.4 L 129.725848197937 78.37520112991334 L 132.1 76.9 L 142.1 72.5 L 151.8 70.0 L 161.2 70.0 L 169.8 73.0 L 176.5 79.5 L 180.2 88.5 L 180.9 99.4 L 180.6163540840149 99.38163442611695 L 179.1 106.3 L 176.3 112.9 L 172.4 118.8 L 167.4 123.7 L 161.4 127.6 L 154.7 130.5 L 147.1 132.4 L 138.9 133.4 L 129.9 133.6 L 126.66260213851929 133.3663733482361 L 126.6 136.1 L 126.9 147.1 L 128.0 155.5 L 129.7 160.6 L 130.48139533996581 161.77209300994872 L 131.8 162.4 L 135.6 163.3 L 140.8 163.8 L 147.4 163.9 L 155.3 163.5 L 164.5 162.5 L 174.8 161.0 L 177.1 174.9 L 166.2 176.4 L 156.4 177.4 L 147.7 177.9 L 140.0 177.8 L 133.3 177.1 L 127.3 175.7 L 123.23486614227295 173.74560871124268 L 123.2 173.8 L 123.09096269607544 173.676424407959 L 122.1 173.2 L 117.9 169.3 L 115.3 164.0 L 115.07159938812256 160.68819131851197 L 114.3 158.4 L 113.0 148.1 L 112.6 136.1 L 113.0 122.4 L 113.6898995399475 109.37814683914185 L 106.8 116.1 L 95.9 127.0 L 86.3 136.8 L 78.2 145.6 L 71.5 153.4 L 66.1 159.9 L 62.3 165.3 L 59.9 169.4 L 59.0 171.6 L 58.681556224823 171.5250720024109 L 45.1 174.4 L 43.8 167.2 L 42.7 159.2 L 42.0 150.5 L 41.6 141.0 L 41.4 130.7 L 41.6 119.6 L 42.0 107.7 L 42.7 95.1 L 42.8173469543457 93.33979587554931 L 37.1 92.9 L 31.1 91.5 L 25.6 88.9 L 20.7 85.3 L 16.8 80.8 L 28.3 72.8 L 30.3 75.1 L 32.7 76.9 L 35.6 78.2 L 39.2 79.1 L 43.6 79.4 L 43.80105447769165 79.38840074539185 L 44.9 67.3 L 45.12378101348877 67.32092914581298 L 45.6 62.4 L 46.7 56.6 L 48.4 51.3 L 50.9 46.5 L 54.6 42.3 L 60.2 39.8 L 66.8 40.4 L 72.1 43.8 L 76.6 48.9 L 79.32341194152832 53.48330307006836 L 81.7 56.3 L 84.3 59.4 L 86.7 62.5 L 88.7 66.1 L 90.0 70.5 L 89.4 75.9 L 86.4 80.4 L 82.63472976684571 83.24691162109374 L 82.7 83.4 L 73.9 86.9 L 65.6 89.7 L 57.8 91.8 L 56.90472412109375 91.94716863632202 L 56.6 96.0 L 56.0 108.4 L 55.6 120.0 L 55.4 130.7 L 55.6 140.6 L 56.0 149.6 L 56.04450788497925 150.1213782310486 L 60.8 144.3 L 67.8 136.3 L 76.2 127.2 L 85.9 117.2 L 97.0 106.1 L 101.61060571670532 101.60094118118286 L 101.5 101.5 L 111.5 91.5 L 114.57312974929809 89.05343074798584 L 115.0385498046875 88.60839395523071 L 116.0 73.4 L 117.1 55.3 L 117.82989692687988 38.32989692687988 L 117.7 38.2 L 117.2 37.8 L 116.3 37.2 L 114.9 36.6 L 113.0 36.1 L 110.7 35.6 L 107.9 35.2 L 104.6 35.0 L 105.3 21.0 Z M 153.7 83.9 L 146.8 85.7 L 138.7 89.3 L 129.9 94.7 L 128.53013544082643 95.79890232086181 L 127.7 108.1 L 127.09455757141113 119.37636451721191 L 130.3 119.6 L 138.0 119.4 L 144.6 118.6 L 150.2 117.2 L 154.9 115.3 L 158.6 112.8 L 161.6 109.9 L 164.0 106.3 L 165.7 102.1 L 166.9 96.9 L 166.90994443893433 96.90151329040528 L 166.6 91.4 L 164.9 87.3 L 162.6 85.1 L 159.1 83.9 Z M 61.4 56.5 L 60.3 60.0 L 59.4 64.4 L 58.9 69.3 L 58.74110651016235 69.29199819564819 L 58.0650447845459 77.23572340011597 L 61.6 76.3 L 69.0 73.8 L 75.57393770217895 71.15439090728759 L 75.2 70.5 L 73.4 68.2 L 71.0 65.4 L 68.40271701812745 62.24615640640259 L 68.3 62.3 L 67.88782205581666 61.617330169677736 L 65.1 58.2 L 62.5268292427063 54.340243911743165 Z " />
</g>
</svg>
