<svg xmlns="http://www.w3.org/2000/svg" xmlns:xlink="http://www.w3.org/1999/xlink" version="1.1" baseProfile="full" viewBox="0 0 200 200" width="200" height="200">
<g fill="black">
<path d="M 70.4 24.1 L 70.9 25.9 L 71.5 27.4 L 72.2 28.7 L 72.9 29.8 L 73.7 30.7 L 74.7 31.4 L 75.8 32.1 L 76.6869158744812 32.509345817565915 L 78.1 32.3 L 81.5 31.8 L 85.6 31.1 L 90.2 30.3 L 95.5 29.3 L 101.3 28.2 L 107.8 27.0 L 114.9 25.6 L 121.87970066070557 24.240318012237548 L 122.2 23.9 L 122.44465370178223 24.130262279510497 L 122.6 24.1 L 122.64269895553589 24.316657924652098 L 132.4 33.5 L 125.9 40.3 L 119.6 46.9 L 113.4 53.5 L 107.3 59.9 L 101.3 66.2 L 99.37739248275757 68.25520114898681 L 103.8 67.6 L 108.32095985412597 67.12410945892334 L 108.3 66.9 L 113.4 66.7 L 118.2 67.2 L 122.7 68.5 L 126.9 70.5 L 130.5 73.4 L 133.6 76.9 L 135.8 81.0 L 137.5 85.5 L 138.5 90.4 L 138.88481559753419 95.49880695343018 L 138.9 95.5 L 138.8881607055664 95.54312896728516 L 138.9 95.7 L 138.8445505142212 95.70199460983277 L 137.5 100.6 L 134.8 105.0 L 131.2 109.4 L 126.5 114.1 L 120.7 119.3 L 113.8 124.9 L 105.8 131.1 L 96.7 137.8 L 86.3 145.0 L 74.8 152.8 L 74.7267370223999 152.68867826461792 L 71.5 154.8 L 66.7 159.1 L 65.70232553482056 160.63488368988038 L 66.4 161.1 L 72.3 163.1 L 82.7 164.6 L 97.5 165.0 L 116.6 164.2 L 140.2 162.0 L 141.7 175.9 L 117.6 178.2 L 97.6 179.0 L 81.6 178.5 L 69.1 176.7 L 59.8 173.4 L 53.0 167.2 L 51.8 157.7 L 56.0 150.0 L 63.0 143.6 L 72.6 137.4 L 72.60036859512329 137.40063705444337 L 78.4 133.5 L 88.5 126.4 L 97.4 119.9 L 105.2 113.9 L 111.6 108.6 L 116.9 103.9 L 120.8 99.9 L 123.5 96.8 L 124.7 94.7 L 124.82272729873657 94.51590909957886 L 124.6 92.4 L 124.0 89.3 L 123.1 86.8 L 122.0 84.9 L 120.9 83.5 L 119.5 82.4 L 117.8 81.6 L 115.6 81.0 L 112.9 80.7 L 110.48380126953126 80.77321815490723 L 110.5 81.0 L 105.5 81.5 L 100.9 82.2 L 96.5 83.1 L 92.4 84.3 L 88.6 85.7 L 85.0 87.3 L 81.6 89.1 L 78.5 91.2 L 75.6 93.4 L 72.9 95.9 L 67.95 90.95 L 62.9 86.1 L 73.9 74.7 L 85.3 62.7 L 91.2 56.6 L 97.2 50.3 L 103.3 43.9 L 105.3358208656311 41.73283586502075 L 104.0 42.0 L 98.0 43.1 L 92.7 44.1 L 87.9 44.9 L 83.8 45.6 L 80.2 46.1 L 77.1 46.6 L 74.6 46.8 L 74.57084922790527 46.4883111000061 L 72.2 45.8 L 69.3 44.5 L 66.6 42.9 L 64.2 40.9 L 62.1 38.6 L 60.2 36.1 L 58.8 33.3 L 57.6 30.3 L 56.7 27.2 L 56.1 23.9 L 70.0 22.0 Z " />
</g>
</svg>
