<svg xmlns="http://www.w3.org/2000/svg" xmlns:xlink="http://www.w3.org/1999/xlink" version="1.1" baseProfile="full" viewBox="0 0 200 200" width="200" height="200">
<g fill="black">
<path d="M 104.4 45.2 L 105.0 64.6 L 104.41029357910156 74.41056995391845 L 111.4 73.1 L 121.6 70.3 L 132.5 66.5 L 144.0 61.6 L 149.9 74.3 L 137.6 79.5 L 125.8 83.7 L 114.5 86.8 L 103.7 88.7 L 102.91057472229004 88.76831569671631 L 101.0 100.1 L 96.3 116.3 L 89.8 131.4 L 81.5 145.3 L 74.9794090270996 153.4187749862671 L 84.9 151.6 L 97.0 150.6 L 109.3 150.9 L 121.8 152.4 L 134.3 155.1 L 147.1 159.0 L 159.9 164.1 L 154.2 176.9 L 142.4 172.2 L 130.8 168.6 L 119.4 166.2 L 108.3 164.8 L 97.4 164.6 L 86.7 165.5 L 76.2 167.4 L 65.8 170.5 L 55.6 174.7 L 45.5 180.0 L 41.95 173.95 L 38.1 168.1 L 50.4 158.9 L 61.0 148.6 L 70.0 137.3 L 77.3 125.0 L 83.2 111.6 L 87.4 97.0 L 88.64905586242676 89.45762414932251 L 83.5 89.3 L 74.1 87.8 L 65.2 85.1 L 57.0 81.2 L 49.4 76.1 L 58.1 65.1 L 63.9 69.0 L 70.3 72.1 L 77.2 74.2 L 84.8 75.4 L 90.3410168647766 75.53681526184081 L 91.0 64.4 L 90.4 46.3 L 88.2 27.0 L 102.0 24.9 Z " />
</g>
</svg>
