<svg xmlns="http://www.w3.org/2000/svg" xmlns:xlink="http://www.w3.org/1999/xlink" version="1.1" baseProfile="full" viewBox="0 0 200 200" width="200" height="200">
<g fill="black">
<path d="M 92.9 123.7 L 88.7 117.9 L 86.9 111.1 L 86.524773311615 105.39655504226684 L 86.36189155578613 105.37663421630859 L 77.8 107.2 L 67.9 109.2 L 58.7 110.7 L 50.4 111.8 L 42.9 112.5 L 36.1 112.7 L 30.0 112.5 L 24.6 111.8 L 27.3 98.1 L 31.1 98.6 L 36.0 98.7 L 42.0 98.5 L 48.9 97.9 L 56.7 96.8 L 65.4 95.4 L 75.0 93.5 L 85.5 91.2 L 85.8128514289856 91.1259036064148 L 86.1 88.8 L 87.2 80.6 L 88.2 72.6 L 89.3 64.5 L 91.42666664123536 49.03333330154419 L 91.9 44.3 L 92.13464126586913 44.321944904327395 L 92.7 40.6 L 93.41236877441406 35.48389730453491 L 91.8 35.1 L 89.9 34.8 L 88.4 34.7 L 87.0 34.8 L 85.8 35.1 L 84.8 35.5 L 83.8 36.1 L 75.8 24.6 L 78.6 23.0 L 81.6 21.7 L 84.8 21.0 L 88.1 20.7 L 91.4 20.8 L 94.7 21.4 L 98.1 22.3 L 101.4 23.5 L 104.9 25.0 L 108.4 26.8 L 108.33563575744628 26.914736366271974 L 108.9 27.0 L 106.5 42.6 L 105.09726886749267 52.674159622192384 L 104.3 60.7 L 103.51388454437256 67.77503900527954 L 109.4 63.8 L 116.0 59.0 L 121.7 54.5 L 126.3 50.3 L 129.9 46.5 L 132.5 43.2 L 134.1 40.5 L 134.9 38.5 L 135.0 37.4 L 148.9 36.5 L 148.5 41.6 L 146.8 46.5 L 144.1 51.1 L 140.5 55.7 L 136.43052940368653 59.95033588409424 L 137.8 61.5 L 141.5 65.3 L 145.3 68.5 L 148.9 71.3 L 152.5 73.5 L 156.1 75.3 L 159.5 76.6 L 162.9 77.5 L 166.3 77.9 L 169.6 78.0 L 169.60025463104247 78.00505685806274 L 169.8 78.0 L 169.95 84.95 L 170.3 91.9 L 170.1 91.9 L 162.6 92.2 L 155.1 92.7 L 147.8 93.3 L 140.6 94.1 L 133.5 95.1 L 126.5 96.2 L 119.7 97.5 L 113.0 98.9 L 112.78798494338989 98.95460996627807 L 112.8 99.0 L 107.73670883178711 100.25569620132447 L 106.4 100.6 L 100.44425840377808 102.24928226470948 L 100.4 103.4 L 100.8 109.1 L 101.5 112.3 L 101.91293535232543 112.87810945510864 L 104.1 112.8 L 106.9 113.0 L 109.6 113.5 L 112.3 114.2 L 115.0 115.3 L 117.6 116.5 L 120.2 118.0 L 122.7 119.7 L 125.2 121.6 L 127.40338983535767 123.53898305892945 L 127.8 123.8 L 121.6 133.8 L 116.8 142.6 L 113.3 150.2 L 111.1 156.5 L 110.2 161.3 L 110.2 164.4 L 110.7 165.9 L 111.5 166.6 L 113.18051023483277 167.30758323669434 L 113.2 167.2 L 118.2 168.0 L 123.3 168.6 L 128.2 168.9 L 133.1 168.9 L 138.0 168.8 L 142.9 168.3 L 147.6 167.7 L 152.4 166.8 L 157.1 165.7 L 161.8 164.3 L 166.1 177.6 L 160.7 179.2 L 155.3 180.5 L 149.9 181.5 L 144.4 182.3 L 138.9 182.7 L 133.3 182.9 L 127.7 182.9 L 122.1 182.5 L 116.4 181.9 L 114.975 181.675 L 109.8 181.0 L 103.6 178.2 L 98.9 173.3 L 96.5 166.9 L 96.2 160.1 L 97.6 152.8 L 100.3 144.9 L 104.3 136.3 L 108.93071670532227 127.91228666305543 L 107.9 127.5 L 106.5 127.1 L 105.1 126.9 L 99.7 126.9 Z M 124.5 70.1 L 117.4 75.3 L 109.4 80.7 L 101.61157674789429 85.68809127807617 L 101.6 85.8 L 101.45752868652343 87.35135459899902 L 102.45607481002807 87.09968843460084 L 102.8 87.0 L 104.21772155761718 86.65569620132446 L 109.2 85.4 L 109.21136989593506 85.44295301437378 L 109.8 85.3 L 116.9 83.8 L 124.1 82.4 L 131.4 81.2 L 137.76000003814698 80.35200004577636 L 136.5 79.4 L 132.0 75.5 L 127.6 71.1 L 125.7771668434143 69.07002668380737 Z M 58.5 42.7 L 57.8 45.7 L 57.4 48.6 L 57.3 51.4 L 57.4 54.0 L 57.8 56.6 L 58.4 59.1 L 59.2 61.5 L 60.4 63.9 L 61.8 66.3 L 63.5 68.6 L 52.4 77.3 L 50.1 73.9 L 48.0 70.5 L 46.3 66.9 L 45.0 63.1 L 44.0 59.3 L 43.4 55.4 L 43.3 51.4 L 43.5 47.3 L 44.0 43.2 L 44.9 39.1 Z " />
</g>
</svg>
