<svg xmlns="http://www.w3.org/2000/svg" xmlns:xlink="http://www.w3.org/1999/xlink" version="1.1" baseProfile="full" viewBox="0 0 200 200" width="200" height="200">
<g fill="black">
<path d="M 111.2 94.2 L 108.4 104.7 L 106.8 115.8 L 106.69991827011108 117.21365489959717 L 113.8 115.6 L 123.3 112.9 L 133.5 109.4 L 138.4 122.5 L 127.6 126.2 L 117.3 129.2 L 107.6 131.4 L 105.91859502792359 131.65867767333984 L 105.8 138.3 L 105.92780027389526 145.0734143257141 L 109.1 145.3 L 120.4 147.3 L 131.7 150.6 L 142.9 155.2 L 153.8 161.1 L 164.3 168.4 L 155.6 179.5 L 146.4 173.1 L 136.9 167.9 L 127.1 163.9 L 117.2 161.0 L 107.3 159.2 L 106.19517889022828 159.11944007873535 L 106.1 167.4 L 105.3 175.0 L 104.87471504211426 176.086839389801 L 105.0 176.2 L 104.7097674369812 176.50837211608888 L 102.6 181.9 L 95.1 186.9 L 94.94826908111573 185.98301763534545 L 92.8 184.0 L 90.1 181.8 L 87.3 179.7 L 84.6 177.8 L 81.7 176.1 L 78.9 174.5 L 76.0 173.1 L 73.0 171.8 L 70.0 170.6 L 67.0 169.7 L 68.7436040878296 163.66444749832152 L 64.41630554199219 165.56134548187256 L 63.5 166.5 L 58.9 170.7 L 53.8 175.0 L 48.3 179.5 L 39.6 168.4 L 44.8 164.2 L 49.6 160.2 L 53.8 156.3 L 57.6 152.6 L 60.9 149.1 L 63.7 145.7 L 66.0 142.6 L 67.8 139.7 L 69.1 137.1 L 70.0 134.8 L 83.3 139.0 L 81.9 142.8 L 80.25472707748413 146.00828227996826 L 87.1 144.9 L 91.91706647872925 144.72159013748168 L 91.8 138.4 L 91.88718547821045 133.2560562133789 L 89.8 133.4 L 81.6 133.1 L 74.0 132.0 L 66.9 130.0 L 60.3 127.0 L 54.4 123.1 L 63.1 112.1 L 67.1 114.7 L 71.6 116.8 L 76.9 118.3 L 82.8 119.2 L 89.5 119.4 L 92.48535823822021 119.19828662872314 L 92.8 114.4 L 94.7 101.9 L 98.0 89.6 Z M 88.4 158.9 L 81.06253519058228 159.98394365310668 L 81.8 160.3 L 85.4 162.1 L 88.8 164.0 L 92.2 166.1 L 92.2 158.8 L 92.1986795425415 158.7366159439087 Z M 61.0 90.8 L 59.1 92.7 L 58.0 94.1 L 57.74193544387818 94.48709678649902 L 57.9 94.6 L 59.46000003814697 95.38000001907349 L 59.8 95.3 L 61.7 94.9 L 63.5 94.3 L 65.4 93.5 L 67.4 92.6 L 69.4 91.5 L 71.5 90.3 L 73.6 88.9 L 75.8 87.4 L 84.2 98.6 L 81.5 100.4 L 78.9 102.2 L 76.3 103.7 L 73.6 105.1 L 71.0 106.4 L 68.3 107.4 L 65.6 108.3 L 62.9 109.0 L 60.2 109.5 L 57.5 109.8 L 57.47795286178589 109.52140493392945 L 54.2 108.4 L 50.8 106.7 L 47.8 104.5 L 45.2 101.5 L 43.7 97.6 L 43.5 93.5 L 44.5 89.7 L 46.3 86.4 L 48.6 83.4 L 51.5 80.5 Z M 152.8 77.7 L 152.0 81.9 L 150.7 86.0 L 148.9 89.9 L 146.6 93.5 L 143.7 96.8 L 140.5 99.8 L 136.8 102.6 L 132.7 105.1 L 128.3 107.4 L 123.5 109.5 L 118.4 96.4 L 122.4 94.7 L 125.9 92.9 L 128.9 91.1 L 131.5 89.1 L 133.6 87.1 L 135.3 85.1 L 136.7 83.0 L 137.7 80.8 L 138.5 78.6 L 138.9 76.2 Z M 85.3 66.1 L 88.5 66.6 L 91.7 67.4 L 94.6 68.5 L 97.4 70.0 L 100.0 71.9 L 102.3 74.1 L 104.3 76.6 L 106.0 79.3 L 107.4 82.3 L 94.5 87.6 L 93.7 86.0 L 92.9 84.7 L 92.0 83.6 L 91.0 82.6 L 90.0 81.9 L 88.8 81.2 L 87.4 80.7 L 85.8 80.3 L 84.0 80.0 L 82.0 80.0 L 82.0 66.0 Z M 130.6 13.8 L 134.6 16.0 L 137.7 19.6 L 139.4 23.8 L 140.1 28.1 L 140.05661640167236 29.09782247543335 L 142.6 29.0 L 147.5 29.1 L 152.2 29.7 L 156.6 30.7 L 160.8 32.2 L 164.7 34.2 L 168.2 36.7 L 171.2 39.7 L 173.8 43.2 L 162.1 50.7 L 160.7 48.9 L 159.2 47.4 L 157.4 46.1 L 155.2 45.0 L 152.7 44.1 L 149.8 43.5 L 146.5 43.1 L 142.8 43.0 L 138.6 43.2 L 135.70721645355223 43.514433002471925 L 133.8 47.1 L 130.8 51.6 L 127.4 55.8 L 123.5 59.9 L 119.1 63.7 L 114.2 67.4 L 109.0 70.9 L 103.3 74.1 L 96.6 61.8 L 101.7 58.9 L 106.2 55.9 L 110.2 52.9 L 113.8 49.8 L 115.1810601234436 48.37438955307007 L 110.6 49.4 L 97.9 51.7 L 85.8 53.4 L 80.26921997070312 53.832843685150145 L 80.3 53.9 L 81.8 55.9 L 83.5 57.6 L 74.4 68.3 L 71.0 64.9 L 68.3 60.9 L 66.2 56.6 L 65.51692304611205 54.459692287445066 L 63.3 54.5 L 53.0 53.9 L 43.2 52.7 L 34.0 50.6 L 25.4 47.8 L 30.4 34.8 L 37.6 37.1 L 45.6 38.9 L 54.2 40.0 L 63.6 40.5 L 63.76017475128174 40.49679651260376 L 64.0 36.1 L 64.8 30.3 L 66.2 24.2 L 68.0 17.8 L 81.3 22.0 L 79.7 27.6 L 78.6 32.8 L 77.9 37.5 L 77.78614444732666 39.947894382476804 L 84.3 39.4 L 95.7 37.9 L 107.8 35.7 L 120.6 32.8 L 125.30680999755859 31.535483837127686 L 125.9 29.4 L 126.07341775894164 29.437974643707275 L 126.1 28.8 L 125.9 27.3 L 125.73684206008912 26.892105293273925 L 125.0 26.8 L 123.2 26.8 L 120.4 27.3 L 116.9 28.4 L 112.6 30.0 L 107.1 17.1 L 112.4 15.1 L 117.2 13.7 L 121.8 12.9 L 126.2 12.8 Z " />
</g>
</svg>
