<svg xmlns="http://www.w3.org/2000/svg" xmlns:xlink="http://www.w3.org/1999/xlink" version="1.1" baseProfile="full" viewBox="0 0 200 200" width="200" height="200">
<g fill="black">
<path d="M 85.8 23.2 L 89.4 23.8 L 92.9 24.9 L 96.1 26.6 L 99.0 28.9 L 101.4 31.6 L 103.3 34.7 L 104.6 38.1 L 105.5 41.7 L 105.9 45.5 L 105.37185478210449 45.53419647216797 L 103.38980207443237 49.156568717956546 L 105.2 49.1 L 111.2 48.3 L 116.7 47.0 L 121.8 45.2 L 126.5 42.9 L 133.4 55.0 L 127.3 58.1 L 120.7 60.4 L 113.7 62.1 L 106.3 63.0 L 98.6 63.3 L 95.94371757507324 63.16718587875366 L 94.9 65.3 L 92.7 69.9 L 90.7 74.3 L 88.9 78.5 L 87.3 82.5 L 86.47435894012452 84.8 L 90.6 84.8 L 99.0 86.1 L 106.7 88.8 L 113.6 92.8 L 119.5 98.1 L 124.2 104.6 L 127.8 112.2 L 130.4 120.7 L 131.9 130.2 L 131.4 136.3 L 130.3 142.3 L 128.6 147.9 L 126.2 153.2 L 123.2 158.3 L 119.7 162.9 L 115.5 167.2 L 110.8 171.1 L 105.7 174.6 L 100.0 177.8 L 99.61803274154663 177.0360655784607 L 99.8 177.7 L 95.7 178.5 L 91.6 178.6 L 87.5 178.1 L 83.5 177.1 L 79.6 175.4 L 75.7 173.3 L 72.0 170.7 L 68.4 167.7 L 64.8 164.2 L 61.3 160.2 L 71.9 151.2 L 74.9 154.5 L 77.8 157.3 L 80.6 159.6 L 83.2 161.5 L 85.7 162.8 L 88.0 163.8 L 90.2 164.4 L 92.2 164.6 L 94.2 164.6 L 95.18591060638428 164.39243984222412 L 98.3 162.7 L 102.4 159.9 L 106.0 156.9 L 109.0 153.8 L 111.6 150.4 L 113.7 146.8 L 115.4 143.0 L 116.7 138.9 L 117.6 134.5 L 117.88936166763305 131.02765960693358 L 116.7 123.8 L 114.7 117.2 L 112.1 111.8 L 109.0 107.4 L 105.3 104.1 L 100.9 101.5 L 95.7 99.7 L 89.5 98.8 L 82.3 98.7 L 74.1 99.7 L 71.81086091995239 85.96516551971436 L 71.3 85.8 L 72.6 81.8 L 74.2 77.5 L 75.9 73.1 L 77.9 68.6 L 80.0 64.0 L 81.12232484817505 61.60896005630493 L 73.4 60.1 L 64.2 57.8 L 54.7 54.9 L 59.1 41.6 L 68.0 44.4 L 76.4 46.5 L 84.3 48.0 L 87.85571327209473 48.426685619354245 L 90.3 43.8 L 91.23324604034424 42.144240856170654 L 90.7 40.9 L 90.1 39.8 L 89.4 39.0 L 88.6 38.4 L 87.5 37.8 L 86.1 37.4 L 84.2 37.1 L 82.0 37.0 L 82.0 23.0 Z M 87.4 140.1 L 80.9 144.9 L 74.6 149.2 L 68.6 153.1 L 62.7 156.5 L 57.1 159.4 L 51.6 161.9 L 46.3 163.9 L 41.2 165.4 L 36.2 166.4 L 31.393241500854494 166.89048557281495 L 31.2 167.1 L 28.5 164.4 L 26.2 161.4 L 24.5 158.2 L 23.3 154.7 L 22.8 151.1 L 23.0 147.4 L 24.0 143.9 L 25.6 140.6 L 27.7 137.6 L 30.3 134.7 L 40.2 144.6 L 38.7 146.3 L 37.7 147.7 L 37.1 148.9 L 36.8 149.9 L 36.8 150.7 L 36.9 151.5 L 37.0470588684082 151.94117650985717 L 37.7 151.8 L 41.8 150.6 L 46.2 148.9 L 50.9 146.8 L 56.0 144.2 L 61.3 141.1 L 66.9 137.5 L 72.8 133.5 L 78.9 129.0 Z M 152.0 111.9 L 156.2 113.8 L 160.1 116.3 L 163.7 119.2 L 167.1 122.5 L 170.3 126.3 L 173.1 130.5 L 175.8 135.1 L 178.2 140.1 L 180.5 145.4 L 167.4 150.5 L 165.5 145.8 L 163.5 141.7 L 161.3 138.0 L 159.1 134.8 L 156.8 132.0 L 154.4 129.6 L 152.0 127.7 L 149.4 126.1 L 146.9 124.9 L 144.1 124.0 L 147.7 110.4 Z " />
</g>
</svg>
