<svg xmlns="http://www.w3.org/2000/svg" xmlns:xlink="http://www.w3.org/1999/xlink" version="1.1" baseProfile="full" viewBox="0 0 200 200" width="200" height="200">
<g fill="black">
<path d="M 157.0 57.0 L 153.1 57.0 L 145.3 57.4 L 141.2 57.8 L 137.1 58.3 L 133.0 58.9 L 124.4 60.5 L 120.1 61.4 L 118.89820108413696 61.693773078918454 L 118.9 61.7 L 110.2 64.2 L 102.2 66.6 L 96.51061639785766 68.36832189559937 L 89.59336738586425 75.97729587554932 L 90.8 76.8 L 95.8 82.7 L 98.7 89.6 L 100.0 97.2 L 100.0382001876831 98.78530759811402 L 107.8 95.8 L 116.0 92.5 L 124.8 88.7 L 127.87127304077148 87.33128051757812 L 127.8 85.3 L 127.3 80.8 L 126.7 77.6 L 126.44256925582886 76.97481107711792 L 125.3 77.8 L 122.6 80.2 L 112.7 70.3 L 116.6 66.8 L 120.6 64.1 L 125.2 62.5 L 130.6 62.7 L 135.3 65.3 L 138.4 69.3 L 140.1 73.7 L 141.2 78.7 L 141.8 84.4 L 141.81865549087524 85.01563024520874 L 142.1 85.0 L 145.7 85.3 L 149.2 86.2 L 152.6 87.7 L 155.7 89.6 L 158.6 92.0 L 161.2 94.8 L 163.6 97.9 L 163.31455240249633 98.10461282730103 L 164.2 98.7 L 161.2 101.5 L 157.7 103.9 L 152.4 107.6 L 145.0 112.4 L 141.88382530212402 114.42219848632813 L 142.0 123.6 L 142.2466477394104 134.53471832275392 L 144.0 134.9 L 153.5 138.2 L 163.1 142.8 L 172.7 148.5 L 182.3 155.4 L 173.6 166.5 L 164.9 160.2 L 156.5 155.1 L 148.2 151.2 L 142.63001117706298 149.2505039215088 L 142.8 156.9 L 142.7 164.3 L 142.2 170.7 L 140.8 176.3 L 138.2 181.4 L 135.4792007446289 184.19056329727172 L 134.7 185.6 L 134.32071714401246 185.37875165939332 L 134.3 185.4 L 134.2502145767212 185.33762521743773 L 132.3 184.2 L 129.7 182.3 L 126.6 180.0 L 123.1 177.3 L 119.0 174.0 L 114.5 170.2 L 109.5 166.0 L 103.9 161.2 L 98.52718162536621 156.54355735778807 L 98.9 173.6 L 85.0 174.3 L 84.51672859191895 155.93568773269652 L 81.1 157.4 L 75.5 159.9 L 69.8 162.5 L 64.0 165.3 L 58.1 168.2 L 54.95 161.95 L 51.2 156.0 L 70.6 143.7 L 84.86921977996826 134.59722185134888 L 85.2 125.6 L 85.60200796127319 118.02885074615479 L 83.2 118.7 L 76.9 120.2 L 71.0 121.2 L 65.5 121.8 L 64.4 107.9 L 69.0 107.4 L 74.1 106.4 L 79.8 105.1 L 86.0 103.4 L 86.14442100524903 103.35473375320434 L 86.0 98.3 L 85.2 93.3 L 83.8 90.0 L 81.6 87.3 L 80.48229598999023 86.56395101547241 L 78.0 89.5 L 69.6 100.4 L 62.1 111.2 L 55.3 121.9 L 49.4 132.6 L 44.3 143.2 L 40.0 153.7 L 36.5 164.1 L 33.8 174.5 L 20.1 171.4 L 23.1 160.1 L 26.8 148.8 L 31.5 137.5 L 36.9 126.2 L 43.3 114.8 L 50.4 103.5 L 58.4 92.1 L 67.1 80.7 L 70.15148334503174 77.11372060775757 L 67.3 78.2 L 63.7 79.6 L 61.476018238067624 80.59695739746094 L 61.5 80.9 L 58.3 81.0 L 55.1 80.8 L 51.9 80.2 L 48.7 79.3 L 45.4 78.1 L 42.2 76.6 L 39.0 74.8 L 35.8 72.8 L 32.6 70.5 L 29.3 68.0 L 38.1 57.1 L 40.9 59.3 L 43.6 61.2 L 46.1 62.8 L 48.5 64.1 L 50.8 65.1 L 53.0 66.0 L 55.0 66.5 L 56.9 66.9 L 57.74078950881958 66.94671049118043 L 58.3 66.7 L 62.2 65.1 L 66.7 63.4 L 71.8 61.6 L 77.5 59.7 L 83.8 57.7 L 90.7 55.5 L 98.2 53.2 L 106.3 50.8 L 112.23181819915771 49.02727270126343 L 112.2 48.9 L 114.31056604385375 48.40603771209717 L 115.0 48.2 L 115.01209030151367 48.241851234436034 L 116.9 47.8 L 121.6 46.8 L 126.2 45.9 L 130.8 45.1 L 135.3 44.5 L 139.7 43.9 L 144.1 43.5 L 148.4 43.2 L 152.7 43.0 L 157.0 43.0 Z M 117.4 146.6 L 110.26472549438476 148.14276208877564 L 113.1 150.6 L 118.6 155.3 L 123.5 159.5 L 127.9 163.2 L 128.69719438552858 163.83366737365722 L 128.7 163.8 L 128.8 157.0 L 128.6 148.3 L 128.55080318450928 146.496116065979 L 124.8 146.2 Z M 124.3 125.9 L 112.63767423629761 133.3847762107849 L 115.5 132.8 L 124.9 132.2 L 128.19125032424927 132.44251317977904 L 128.0 123.9 L 127.99478759765626 123.48040456771851 Z M 121.4 105.4 L 112.9 108.9 L 104.8 111.9 L 99.86021146774291 113.65492486953735 L 99.8 115.1 L 99.25255708694458 125.3189335823059 L 103.3 122.7 L 116.7 114.1 L 127.80459880828857 106.92623262405395 L 127.8269136428833 102.68641424179077 Z M 90.5 16.0 L 93.7 18.4 L 97.0 20.5 L 100.3 22.4 L 103.6 23.9 L 107.0 25.2 L 110.5 26.3 L 114.0 27.1 L 117.6 27.7 L 121.3 28.0 L 120.6 41.9 L 116.0 41.6 L 111.4 40.9 L 106.9 39.8 L 102.5 38.5 L 98.1 36.8 L 93.9 34.8 L 89.8 32.5 L 85.8 29.9 L 81.9 27.0 L 78.0 23.8 L 87.3 13.4 Z " />
</g>
</svg>
