<svg xmlns="http://www.w3.org/2000/svg" xmlns:xlink="http://www.w3.org/1999/xlink" version="1.1" baseProfile="full" viewBox="0 0 200 200" width="200" height="200">
<g fill="black">
<path d="M 104.1 24.2 L 103.5 36.2 L 102.9765531539917 38.77171726226807 L 107.1 37.5 L 108.11372385025024 37.13218870162964 L 108.1 37.1 L 115.2 34.4 L 117.54393939971924 33.71060609817505 L 118.4 33.4 L 118.42054796218872 33.45278005599975 L 122.0 32.4 L 128.5 31.2 L 134.7 30.9 L 140.7 31.5 L 146.3 33.0 L 151.5 35.6 L 156.1 39.2 L 160.0 43.6 L 163.2 48.7 L 163.0403193473816 48.78303394317627 L 163.6 54.1 L 162.5 59.7 L 159.4 64.7 L 154.9 68.3 L 149.6 70.6 L 143.6 72.0 L 136.8 72.6 L 129.1 72.6 L 120.5 72.0 L 111.0 70.9 L 112.9 57.0 L 121.9 58.1 L 129.7 58.6 L 136.2 58.6 L 141.5 58.1 L 145.4 57.3 L 147.8 56.2 L 149.0 55.3 L 149.4 54.7 L 149.6 53.6 L 149.55981311798095 53.318691635131835 L 148.7 51.9 L 146.5 49.3 L 144.0 47.5 L 141.3 46.1 L 138.2 45.2 L 134.5 44.9 L 130.2 45.1 L 125.2 46.0 L 123.49809246063232 46.49510040283203 L 123.5 46.5 L 111.5 50.8 L 100.2 54.3 L 99.0130103111267 54.591148376464844 L 97.9 58.2 L 94.4 67.9 L 91.4 76.3 L 89.5 83.1 L 89.1 87.3 L 89.5 88.4 L 90.60769233703613 89.02307691574097 L 92.3 89.7 L 97.2 91.2 L 103.4 93.5 L 110.2 97.3 L 116.8 103.2 L 122.2 111.7 L 125.5 122.8 L 126.5 136.8 L 125.04072351455689 152.57842683792114 L 125.5 152.7 L 121.4 164.5 L 116.2 174.2 L 109.7 181.7 L 101.7 186.5 L 92.5 187.9 L 83.2 185.8 L 74.5 180.5 L 66.2 172.4 L 59.910830402374266 163.80214796066284 L 55.5 167.0 L 48.7 171.4 L 42.6 174.3 L 36.9 175.9 L 31.1 175.9 L 26.0 174.0 L 22.52820415496826 171.30935821533203 L 22.1 171.4 L 22.04863224029541 170.93768997192382 L 22.0 170.9 L 22.039999961853027 170.86000003814698 L 21.0 161.5 L 21.9 152.4 L 24.5 144.1 L 28.8 137.2 L 35.0 132.1 L 43.0 129.8 L 51.5 131.3 L 59.2 136.5 L 64.26113004684449 142.67755584716798 L 74.8 133.7 L 87.5 122.4 L 96.9 132.8 L 83.9 144.2 L 72.9 153.6 L 71.27625246047974 154.91281719207763 L 72.0 156.3 L 71.79172220230103 156.38880062103271 L 76.9 163.3 L 83.2 169.5 L 88.7 172.9 L 93.1 174.0 L 96.8 173.4 L 100.6 171.0 L 104.7 166.4 L 108.6 159.0 L 111.0 151.8 L 112.5 136.5 L 111.8 125.3 L 109.4 117.5 L 106.2 112.3 L 102.3 108.8 L 97.8 106.3 L 92.9 104.5 L 88.0 103.0 L 86.82564725875855 102.52067232131958 L 86.8 102.6 L 86.41594829559327 102.35344829559327 L 83.1 101.0 L 81.14826326370239 98.9717246055603 L 78.7 97.4 L 78.01410512924194 95.71465826034546 L 78.0 95.7 L 78.00689067840577 95.69693145751953 L 75.2 88.8 L 75.8 80.4 L 78.1 71.9 L 81.3 63.0 L 83.06148281097413 58.130018043518064 L 79.5 58.8 L 70.1 59.8 L 61.3 60.0 L 53.0 59.3 L 45.3 57.6 L 38.2 54.9 L 31.8 51.3 L 39.8 39.8 L 44.1 42.3 L 49.2 44.2 L 55.0 45.4 L 61.7 46.0 L 69.2 45.9 L 77.5 45.0 L 86.6 43.3 L 87.90218133926392 42.96781091690063 L 89.6 34.3 L 90.1 24.9 L 88.5 16.0 L 101.9 11.9 Z M 41.8 144.3 L 39.5 146.3 L 37.3 149.9 L 35.6 155.1 L 35.0 161.4 L 35.0698637008667 162.02004041671753 L 37.5 161.3 L 41.8 159.2 L 47.6 155.5 L 52.72971563339233 151.70541582107543 L 50.7 148.1 L 50.721201229095456 148.08931455612182 L 49.6 146.7 L 46.0 144.2 L 43.7 143.8 Z M 154.5 90.8 L 158.1 92.3 L 161.4 94.5 L 164.0 97.3 L 165.06054792404174 98.9665753364563 L 165.3 98.8 L 165.50569801330568 99.66609687805176 L 166.1 100.6 L 165.77017011642457 100.77966346740723 L 167.2 106.8 L 165.0 113.0 L 161.5 118.1 L 157.6 122.9 L 153.6 127.4 L 150.3 131.7 L 148.1 135.1 L 147.87145919799804 135.70944204330445 L 147.9 135.7 L 148.5 137.0 L 149.5 138.3 L 151.0 139.7 L 153.1 141.1 L 156.0 142.5 L 159.5 143.7 L 163.7 144.8 L 168.6 145.8 L 174.2 146.5 L 180.4 147.0 L 179.5 160.9 L 172.7 160.4 L 166.4 159.6 L 160.7 158.5 L 155.4 157.1 L 150.6 155.4 L 146.3 153.3 L 142.4 150.8 L 139.1 147.7 L 137.2615484237671 145.2251612663269 L 135.4 143.6 L 134.60498037338257 140.110747051239 L 134.6 140.1 L 134.60235414505004 140.0992211341858 L 133.6 135.7 L 135.5 129.0 L 138.9 123.4 L 142.9 118.4 L 147.0 113.7 L 150.5 109.5 L 152.7 106.2 L 152.86800003051758 105.86400003433228 L 152.1 105.0 L 151.5 104.6 L 151.0 104.4 L 150.2 104.3 L 149.1 104.4 L 147.4 104.8 L 145.3 105.7 L 142.7 107.1 L 139.9 109.0 L 131.7 97.7 L 135.4 95.2 L 139.2 93.1 L 142.9 91.6 L 146.7 90.6 L 150.6 90.3 Z " />
</g>
</svg>
