<svg xmlns="http://www.w3.org/2000/svg" xmlns:xlink="http://www.w3.org/1999/xlink" version="1.1" baseProfile="full" viewBox="0 0 200 200" width="200" height="200">
<g fill="black">
<path d="M 118.3 66.1 L 125.4 67.5 L 132.2 69.3 L 138.6 71.6 L 144.6 74.2 L 150.1 77.3 L 155.2 80.8 L 159.9 84.8 L 164.1 89.2 L 167.7 94.0 L 156.2 101.9 L 155.94233665466308 101.568718624115 L 155.8 101.7 L 154.1 100.3 L 151.8 99.1 L 148.8 98.2 L 144.9 97.6 L 140.3 97.6 L 134.8 98.1 L 128.5 99.2 L 121.5 100.9 L 113.7 103.2 L 107.68753538131713 105.34730882644654 L 108.3 105.8 L 111.9 107.8 L 116.7 110.0 L 122.5 112.4 L 117.6543083190918 124.84677667617798 L 117.7 124.9 L 117.59897813796997 124.98889923095703 L 117.4 125.5 L 117.14191074371338 125.39111862182617 L 115.2 127.1 L 112.8 129.3 L 110.4 131.4 L 108.2 133.4 L 106.1 135.4 L 103.53000001907348 137.9699999809265 L 104.7 140.7 L 106.2 145.0 L 107.4 149.2 L 108.3 153.5 L 108.9 157.8 L 109.2 162.1 L 109.2 166.4 L 108.9 170.7 L 108.53818407058716 170.66095514297484 L 107.3 183.9 L 102.9 183.4 L 98.5 182.5 L 94.2 181.5 L 89.9 180.2 L 85.6 178.6 L 81.4 176.8 L 77.1 174.8 L 73.0 172.5 L 68.8 170.0 L 64.8 167.3 L 72.8 155.8 L 76.4 158.2 L 80.0 160.4 L 83.6 162.3 L 87.1 164.1 L 90.7 165.6 L 94.3 166.9 L 95.1241322517395 167.15181818008423 L 95.2 165.9 L 95.2 162.6 L 95.0 159.3 L 94.5 156.0 L 93.8 152.6 L 92.8 149.2 L 91.6 145.8 L 90.2 142.4 L 88.4 138.9 L 86.5 135.4 L 86.74390239715576 135.25365858078004 L 88.5 133.4 L 90.3 131.4 L 92.2 129.4 L 94.3 127.4 L 96.4 125.3 L 98.7 123.2 L 101.0 121.0 L 103.26004962921142 118.92828788757325 L 101.0 117.7 L 97.2 115.0 L 94.0 112.0 L 91.7 107.8 L 91.5 102.2 L 94.0 97.6 L 97.5 94.7 L 100.58527135848999 93.23449611663818 L 100.5 93.0 L 109.4 89.9 L 117.8 87.4 L 125.6 85.5 L 132.54356155395507 84.2634753227234 L 128.1 82.7 L 122.3 81.2 L 116.0 79.9 L 109.2 79.0 L 110.7 65.1 Z M 74.3 139.6 L 70.7 144.8 L 67.0 149.4 L 63.1 153.7 L 59.1 157.5 L 54.9 160.8 L 50.6 163.7 L 46.0 166.0 L 41.4 167.9 L 36.5 169.2 L 31.6 169.9 L 30.3 156.0 L 33.7 155.5 L 37.0 154.6 L 40.2 153.3 L 43.5 151.6 L 46.7 149.5 L 49.9 146.9 L 53.1 143.9 L 56.3 140.4 L 59.4 136.4 L 62.5 132.0 Z M 143.1 137.5 L 147.7 138.4 L 152.2 139.8 L 156.4 141.8 L 160.4 144.2 L 164.1 147.1 L 167.6 150.4 L 170.7 154.1 L 173.6 158.2 L 176.2 162.7 L 163.7 169.2 L 161.7 165.7 L 159.6 162.6 L 157.3 159.9 L 155.0 157.7 L 152.5 155.7 L 149.9 154.2 L 147.1 152.9 L 144.2 152.0 L 141.0 151.3 L 137.6 151.0 L 138.3 137.0 Z M 105.75186519622802 16.869193744659423 L 105.8 16.8 L 110.5 19.9 L 114.8 22.6 L 118.9 24.8 L 122.7 26.6 L 126.0 28.0 L 129.0 29.0 L 131.6 29.5 L 133.8 29.7 L 135.5 29.6 L 136.7 29.3 L 141.2 42.6 L 140.92221183776854 42.66579189300537 L 141.2 43.2 L 130.4 48.3 L 119.8 52.4 L 109.4 55.4 L 99.1 57.4 L 88.9 58.3 L 79.0 58.2 L 78.2009672164917 58.09400587081909 L 70.2 70.5 L 60.1 86.8 L 48.9 105.9 L 36.5 127.5 L 24.3 120.7 L 36.7 98.8 L 48.1 79.6 L 58.3 63.0 L 63.25060977935791 55.41265239715576 L 59.6 54.5 L 50.3 51.1 L 41.3 46.5 L 48.3 34.4 L 56.0 38.2 L 63.8 41.1 L 71.63003664016723 43.057509136199954 L 75.7 37.3 L 82.9 28.2 L 89.3 21.5 L 95.5 17.0 L 103.3 15.3 Z M 98.8 31.8 L 93.5 37.3 L 88.00370683670045 44.29528226852417 L 88.4 44.3 L 97.1 43.5 L 106.1 41.8 L 115.3 39.1 L 115.87897310256957 38.87685413360596 L 112.5 37.3 L 107.8 34.7 L 102.9 31.7 L 100.75683450698853 30.271223068237305 Z " />
</g>
</svg>
