<svg xmlns="http://www.w3.org/2000/svg" xmlns:xlink="http://www.w3.org/1999/xlink" version="1.1" baseProfile="full" viewBox="0 0 200 200" width="200" height="200">
<g fill="black">
<path d="M 72.1 22.4 L 71.1 25.6 L 70.4 28.4 L 70.2 30.6 L 70.3 32.2 L 70.6 33.4 L 71.1 34.2 L 71.7 34.9 L 72.7 35.7 L 72.7444444656372 35.7222222328186 L 77.3 33.9 L 81.9 32.2 L 87.0 30.3 L 92.8 28.2 L 99.1 26.0 L 106.1 23.6 L 113.6 21.0 L 121.7 18.3 L 121.752734375 18.455859375 L 121.8 18.4 L 132.8 27.1 L 130.0 30.4 L 126.4 34.2 L 122.0 38.6 L 116.7 43.7 L 110.5 49.3 L 103.5 55.6 L 100.69589738845825 58.05358972549438 L 101.6 57.8 L 110.2 56.3 L 118.8 55.8 L 127.3 56.2 L 135.4 57.6 L 142.8 60.2 L 149.4 64.3 L 154.4 70.4 L 156.42358951568605 76.71359910964966 L 157.0 76.6 L 157.3 83.5 L 155.6 90.1 L 151.9 95.9 L 146.7 100.7 L 140.2 104.7 L 132.5 108.0 L 123.5 110.9 L 113.3 113.3 L 101.7 115.3 L 97.8 115.78000001907348 L 96.3 120.4 L 94.04626607894897 127.63072957992554 L 98.1 126.2 L 105.1 124.9 L 112.1 125.2 L 118.8 127.2 L 124.9 131.0 L 129.7 136.6 L 133.1 143.7 L 134.6738392829895 151.04458312988282 L 135.0 151.0 L 135.5 157.2 L 135.4 163.0 L 134.4 168.5 L 132.5 173.5 L 129.6 177.9 L 125.8 181.5 L 121.3 184.2 L 116.1 186.0 L 110.6 186.8 L 110.06816902160645 186.80901412963868 L 110.1 187.0 L 103.2 187.1 L 97.1 184.9 L 92.5 180.7 L 89.9 175.4 L 89.2 169.7 L 90.4 163.9 L 93.3 158.6 L 98.0 154.2 L 104.2 151.2 L 111.6 150.0 L 112.3 163.9 L 108.4 164.6 L 105.9 165.8 L 104.4 167.2 L 103.5 168.8 L 103.2 170.3 L 103.3 171.5 L 103.7 172.4 L 104.3 172.9 L 105.19289102554322 173.1976303100586 L 105.2 173.0 L 109.5 172.9 L 112.9 172.3 L 115.5 171.5 L 117.4 170.4 L 118.8 169.0 L 120.0 167.2 L 120.9 164.8 L 121.4 161.6 L 121.6 157.7 L 121.19131269454957 153.77660207748414 L 121.0 153.8 L 119.8 148.1 L 118.0 144.2 L 115.7 141.6 L 113.1 139.9 L 110.0 139.0 L 106.2 138.9 L 101.8 139.7 L 97.0 141.4 L 92.1 144.1 L 88.08157634735107 147.05231122970582 L 86.7 151.6 L 84.4 159.5 L 82.2 167.6 L 79.9 175.6 L 77.7 183.8 L 64.2 180.1 L 66.4 171.9 L 71.0 155.7 L 73.3 147.7 L 75.7 139.7 L 80.5 123.9 L 83.0 116.1 L 85.3730043411255 108.79114656448364 L 84.8 108.3 L 82.5 105.3 L 80.98228492736817 102.50420904159546 L 80.1 101.8 L 82.0 99.7 L 83.9 97.8 L 86.1 96.2 L 88.7 95.0 L 91.7 94.3 L 94.9 94.4 L 97.8 95.4 L 100.3 97.1 L 102.3 99.0 L 103.55082874298095 100.71988954544068 L 103.7 100.7 L 105.3 100.4 L 105.31409692764282 100.45638771057129 L 110.5 99.6 L 119.8 97.4 L 127.6 94.9 L 133.8 92.2 L 138.3 89.4 L 141.2 86.8 L 142.8 84.4 L 143.4 82.0 L 143.3135615348816 79.6661623954773 L 143.0 79.7 L 142.2 77.2 L 140.3 75.0 L 136.9 72.9 L 131.9 71.2 L 125.8 70.1 L 119.0 69.8 L 111.8 70.3 L 104.6 71.4 L 99.57126951217651 72.82605791091919 L 94.3 74.9 L 88.5 77.3 L 82.9 79.9 L 77.6 82.5 L 72.5 85.2 L 67.7 87.9 L 63.2 90.7 L 59.0 93.6 L 55.0 96.6 L 51.2 99.6 L 51.17680416107178 99.57268037796021 L 51.0 99.8 L 50.7 100.6 L 37.2 97.3 L 38.6 93.5 L 40.7 90.2 L 43.2 87.4 L 46.1 84.9 L 49.5 82.2 L 53.3 79.3 L 57.8 75.9 L 63.0 71.9 L 64.11848344802857 70.99004735946656 L 68.0 67.7 L 77.6 59.5 L 86.3 52.0 L 94.2 45.2 L 99.03533964157104 40.85520210266113 L 97.5 41.4 L 91.8 43.4 L 86.8 45.3 L 82.3 47.0 L 78.5 48.5 L 75.3 49.8 L 73.33233184814453 50.665773963928224 L 73.3 50.8 L 73.1431372642517 50.749019622802734 L 72.8 50.9 L 72.65636444091797 50.5908185005188 L 69.3 49.5 L 65.5 47.7 L 62.2 45.3 L 59.5 42.1 L 57.6 38.5 L 56.5 34.5 L 56.2 30.4 L 56.6 26.2 L 57.6 21.8 L 59.1 17.4 Z " />
</g>
</svg>
