<svg xmlns="http://www.w3.org/2000/svg" xmlns:xlink="http://www.w3.org/1999/xlink" version="1.1" baseProfile="full" viewBox="0 0 200 200" width="200" height="200">
<g fill="black">
<path d="M 64.9 158.7 L 64.2 161.4 L 64.3 162.2 L 65.4 163.3 L 69.1 165.2 L 75.8 166.8 L 85.1 167.8 L 97.0 168.1 L 111.3 167.5 L 128.0 166.2 L 147.1 164.0 L 148.8 177.9 L 129.4 180.1 L 112.2 181.5 L 97.1 182.1 L 84.3 181.8 L 73.4 180.6 L 64.5 178.4 L 57.2 174.7 L 51.9 168.7 L 50.2 160.7 L 52.2 153.0 Z M 114.5 74.2 L 117.5 75.6 L 120.0 77.5 L 122.2 79.8 L 124.0 82.3 L 123.90314636230468 82.35843238830566 L 124.6 95.3 L 124.44919853210449 99.82404441833496 L 126.5 99.9 L 134.0 101.0 L 141.0 102.9 L 147.4 105.8 L 140.5 118.1 L 136.2 116.1 L 131.2 114.7 L 125.3 113.8 L 123.20511884689331 113.7374662399292 L 122.5 118.3 L 119.7 128.2 L 115.5 137.2 L 110.0 144.9 L 103.2 151.4 L 95.2 156.6 L 86.1 160.3 L 76.1 162.7 L 73.8 148.9 L 81.9 147.0 L 88.8 144.2 L 94.6 140.4 L 99.4 135.8 L 103.4 130.2 L 106.5 123.4 L 108.8 115.3 L 108.9369647026062 114.390163230896 L 102.9 115.2 L 93.9 117.1 L 88.7935393333435 118.45477523803712 L 88.8 118.5 L 89.4 121.1 L 90.1 122.6 L 90.35365858078003 122.98048782348633 L 91.4 122.6 L 93.4 121.5 L 100.8 133.4 L 97.0 135.4 L 92.9 136.7 L 88.5 136.9 L 84.1 135.6 L 80.5 133.0 L 77.9 129.5 L 76.2 125.6 L 75.41049289703369 122.5137451171875 L 73.6 123.1 L 62.4 127.1 L 57.4 114.1 L 69.1 109.8 L 73.43646497726441 108.43264617919922 L 73.4 106.5 L 73.7 101.6 L 74.4 97.1 L 75.7 93.0 L 77.7 89.3 L 80.6 86.1 L 84.4 83.8 L 88.6 82.8 L 92.9 82.9 L 91.0 96.8 L 90.0 96.7 L 89.7 96.8 L 89.6 96.9 L 89.2 97.2 L 88.7 98.3 L 88.1 100.2 L 87.6 103.1 L 87.53188724517823 104.32603034973144 L 90.6 103.5 L 100.5 101.4 L 109.7 100.1 L 110.42421216964722 100.05837860107422 L 110.6 95.4 L 110.2008695602417 87.55043478012085 L 110.1 87.5 L 109.7 87.5 L 109.0 87.7 L 108.0 88.1 L 106.6 88.8 L 105.0 90.0 L 96.6 78.8 L 99.3 76.9 L 102.1 75.4 L 105.0 74.3 L 108.1 73.6 L 111.3 73.6 Z M 77.3 20.2 L 80.4 22.0 L 84.0 23.4 L 88.2 24.4 L 93.1 24.9 L 98.7 24.8 L 105.0 24.1 L 111.9 22.8 L 119.5 20.9 L 127.7 18.3 L 131.0947039604187 28.333236026763917 L 133.0 32.3 L 122.7 37.5 L 113.0 43.1 L 103.7 49.1 L 94.9 55.5 L 86.7 62.3 L 78.9 69.4 L 76.93152713775635 71.42167491912842 L 83.40578031539917 66.74582529067993 L 83.2 66.4 L 85.85106382369995 64.9797872543335 L 86.1 64.8 L 86.12374296188355 64.83370914459229 L 91.6 61.9 L 99.6 58.5 L 107.1 56.3 L 114.3 55.5 L 121.3 56.3 L 127.6 58.7 L 133.1 62.8 L 137.4 68.3 L 138.99095678329468 71.58134841918945 L 143.2 71.8 L 150.2 72.9 L 156.7 75.0 L 162.5 78.1 L 167.6 82.1 L 171.7 87.1 L 174.7 92.9 L 176.8 99.3 L 177.7727026939392 105.48992614746093 L 177.9 105.5 L 177.84603776931763 105.95660381317138 L 177.9 106.3 L 177.80439786911012 106.30894117355346 L 176.6 116.5 L 174.1 126.1 L 170.4 134.5 L 165.3 141.5 L 158.8 146.8 L 151.1 150.1 L 142.5 151.4 L 133.4 150.8 L 123.6 148.6 L 113.1 144.8 L 118.6 131.9 L 127.6 135.2 L 135.5 137.0 L 142.0 137.4 L 147.3 136.6 L 151.6 134.8 L 155.1 131.9 L 158.2 127.6 L 160.8 121.6 L 162.8 113.9 L 163.77609329223634 106.1725947380066 L 163.2 102.5 L 161.8 98.3 L 160.0 94.9 L 157.7 92.1 L 154.9 89.8 L 151.3 87.9 L 147.0 86.6 L 141.8 85.7 L 135.6 85.4 L 128.6 85.8 L 128.30809173583984 82.67882671356202 L 127.5 79.8 L 125.5 75.6 L 123.2 72.8 L 120.8 70.9 L 118.1 69.9 L 114.5 69.5 L 109.9 70.0 L 104.3 71.7 L 97.8 74.4 L 93.59450283050538 76.73007278442383 L 83.5 83.9 L 74.0 91.1 L 65.5 97.8 L 58.0 104.2 L 51.6 110.1 L 46.3 115.6 L 42.1 120.5 L 38.9 124.9 L 36.8 128.7 L 36.74634141921997 128.84146337509156 L 35.7 131.9 L 28.95 129.95 L 22.2 128.3 L 22.294232177734376 128.02722263336182 L 22.2 128.0 L 23.9 123.1 L 26.1 117.9 L 28.9 112.5 L 32.1 106.8 L 36.0 100.8 L 40.3 94.5 L 42.521921920776364 91.50720720291137 L 47.0 85.0 L 53.8 76.0 L 61.2 67.5 L 69.1 59.4 L 77.5 51.7 L 86.4 44.4 L 94.03120441436768 38.879554176330565 L 92.6 38.9 L 86.0 38.2 L 79.9 36.8 L 74.2 34.6 L 69.0 31.4 L 64.5 27.5 L 74.7 17.9 Z " />
</g>
</svg>
