<svg xmlns="http://www.w3.org/2000/svg" xmlns:xlink="http://www.w3.org/1999/xlink" version="1.1" baseProfile="full" viewBox="0 0 200 200" width="200" height="200">
<g fill="black">
<path d="M 93.6 15.1 L 97.1 15.6 L 100.3 16.6 L 103.4 18.0 L 106.2 20.1 L 108.5 22.7 L 110.1 25.9 L 110.9 29.2 L 111.2 32.6 L 110.9 36.0 L 110.63991680145264 35.960706901550296 L 108.6 53.3 L 107.81528978347778 57.67918920516968 L 109.3 57.5 L 120.0 57.4 L 129.8 58.7 L 138.7 61.5 L 146.5 66.0 L 153.2 72.0 L 158.4 79.4 L 162.2 88.0 L 164.7 97.7 L 165.9 108.6 L 164.67083330154418 108.6619005203247 L 165.8 108.8 L 165.1 113.6 L 164.2 118.1 L 163.2 122.5 L 162.79185762405396 124.09546566009521 L 167.5 128.2 L 174.0 135.6 L 178.9 143.4 L 180.59335412979127 148.18810482025145 L 180.8 148.1 L 182.5 152.8 L 183.4 157.5 L 183.6 162.2 L 182.7 166.7 L 180.8 171.0 L 178.0 174.7 L 174.5 177.8 L 170.4 180.2 L 165.8 182.2 L 160.6 183.7 L 157.3 170.2 L 161.1 169.0 L 164.1 167.7 L 166.3 166.4 L 167.8 165.1 L 168.8 163.9 L 169.3 162.6 L 169.6 161.1 L 169.5 159.2 L 169.0 156.7 L 168.1452244758606 154.29108715057373 L 168.1 154.3 L 166.4 149.8 L 162.8 144.1 L 157.67949047088624 138.1917197227478 L 157.52761907577514 138.4333333015442 L 155.7 141.8 L 153.7 145.1 L 151.5 148.2 L 151.4247784614563 148.1423978805542 L 151.2 148.5 L 143.4 156.4 L 134.9 161.8 L 125.9 164.5 L 116.9 164.1 L 108.8 160.3 L 102.8 153.2 L 99.9 143.7 L 100.1 132.5 L 103.27030487060547 120.10699014663696 L 103.0 119.9 L 111.4 112.3 L 121.4 108.7 L 131.6 108.5 L 141.6 111.1 L 150.50622568130493 115.26887159347534 L 151.3 111.3 L 151.81011905670167 107.72916669845581 L 150.9 100.2 L 149.0 92.5 L 146.2 86.2 L 142.7 81.2 L 138.4 77.3 L 133.1 74.4 L 126.8 72.4 L 119.2 71.3 L 110.3 71.4 L 105.13778142929077 72.05792980194092 L 101.5 86.7 L 96.7 101.4 L 91.0 114.8 L 87.88398885726929 120.38091554641724 L 90.9 127.3 L 95.5 139.6 L 82.4 144.3 L 78.70105056762695 134.68273143768312 L 76.7 137.5 L 68.1 146.9 L 58.6 154.7 L 48.2 161.2 L 48.09469270706177 160.99748601913453 L 41.3 162.9 L 33.9 162.7 L 27.4 159.8 L 22.3 155.1 L 18.8 149.1 L 16.5 142.2 L 15.3 134.6 L 15.0 126.4 L 15.6 117.7 L 17.1 108.5 L 17.634422779083252 108.61312599182129 L 16.9 108.3 L 21.4 99.3 L 26.9 91.1 L 33.4 83.8 L 40.8 77.4 L 45.429575538635255 74.29479694366455 L 43.7 71.9 L 36.7 63.4 L 29.5 55.3 L 21.9 47.7 L 31.5 37.6 L 39.6 45.7 L 47.4 54.3 L 54.7 63.4 L 57.74230766296387 67.52884616851807 L 58.2 67.3 L 68.1 63.7 L 78.8 60.9 L 90.3 59.0 L 93.37300176620484 58.750162506103514 L 94.7 51.2 L 96.9 33.3 L 97.07778301239014 33.316627216339114 L 97.2 32.4 L 97.1 31.3 L 97.0 30.8 L 96.8 30.5 L 96.7 30.3 L 95.5 29.7 L 94.2 29.3 L 92.3 29.1 L 90.0 29.0 L 90.0 15.0 Z M 123.7 122.5 L 118.6 124.3 L 115.86475591659546 126.79211120605468 L 113.9 134.5 L 113.8 141.9 L 115.2 146.6 L 117.3 149.2 L 120.1 150.5 L 124.0 150.6 L 129.0 149.1 L 134.6 145.6 L 140.2 139.8 L 145.2 131.7 L 145.22702703475952 131.71351346969604 L 146.3644067764282 129.27627115249635 L 144.0 127.7 L 136.7 124.2 L 129.8 122.4 Z M 49.3 88.6 L 43.3 93.8 L 38.0 99.7 L 33.5 106.3 L 30.707905578613282 111.95965089797974 L 29.5 119.3 L 29.0 126.7 L 29.2 133.3 L 30.2 139.0 L 31.6 143.4 L 33.4 146.5 L 35.2 148.2 L 36.9 149.0 L 39.4 149.0 L 42.78899002075195 148.0441309928894 L 50.5 143.4 L 58.5 136.7 L 65.8 128.7 L 72.19317665100098 119.69143285751343 L 67.9 110.6 L 62.3 100.2 L 56.5 90.3 L 53.47003231048584 85.7790958404541 Z M 81.7 74.6 L 72.2 77.0 L 65.95716171264648 79.35024499893188 L 68.3 82.9 L 74.5 93.3 L 80.2863465309143 104.1743408203125 L 83.6 96.4 L 88.1 82.8 L 90.46369609832763 73.15356473922729 Z " />
</g>
</svg>
