<svg xmlns="http://www.w3.org/2000/svg" xmlns:xlink="http://www.w3.org/1999/xlink" version="1.1" baseProfile="full" viewBox="0 0 200 200" width="200" height="200">
<g fill="black">
<path d="M 89.5 25.0 L 92.6 26.0 L 95.5 27.2 L 98.3 28.6 L 100.9 30.2 L 103.4 32.1 L 105.6 34.2 L 107.7 36.5 L 109.5 38.9 L 111.1 41.6 L 110.86088647842408 41.730248832702635 L 109.3 58.9 L 106.97394638061523 73.92988510131836 L 111.4 73.1 L 121.6 70.3 L 132.5 66.5 L 144.0 61.6 L 149.9 74.3 L 137.6 79.5 L 125.8 83.7 L 114.5 86.8 L 103.75895195007324 88.68962879180908 L 103.1 91.6 L 98.4 106.7 L 92.5 120.9 L 85.6 134.2 L 77.7 146.6 L 71.7916145324707 154.13156833648682 L 72.9 153.8 L 84.9 151.6 L 97.0 150.6 L 109.3 150.9 L 121.8 152.4 L 134.3 155.1 L 147.1 159.0 L 159.9 164.1 L 154.2 176.9 L 142.4 172.2 L 130.8 168.6 L 119.4 166.2 L 108.3 164.8 L 97.4 164.6 L 86.7 165.5 L 76.2 167.4 L 65.8 170.5 L 55.6 174.7 L 45.5 180.0 L 38.4 167.9 L 38.8200101852417 167.68070268630981 L 38.6 167.4 L 48.8 158.6 L 58.0 149.0 L 66.3 138.5 L 73.5 127.2 L 79.8 115.0 L 85.2 101.9 L 89.13389558792115 89.47246618270874 L 83.5 89.3 L 74.1 87.8 L 65.2 85.1 L 57.0 81.2 L 49.4 76.1 L 58.1 65.1 L 63.9 69.0 L 70.3 72.1 L 77.2 74.2 L 84.8 75.4 L 92.43216609954834 75.5884485244751 L 93.0 73.1 L 95.4 57.3 L 96.50641202926636 44.98194637298584 L 95.6 44.0 L 94.4 42.8 L 93.0 41.8 L 91.4 40.8 L 89.7 39.9 L 87.9 39.2 L 85.8 38.5 L 83.6 38.0 L 86.3 24.3 Z " />
</g>
</svg>
