<svg xmlns="http://www.w3.org/2000/svg" xmlns:xlink="http://www.w3.org/1999/xlink" version="1.1" baseProfile="full" viewBox="0 0 200 200" width="200" height="200">
<g fill="black">
<path d="M 103.81902313232422 20.302313613891602 L 103.9 20.0 L 117.4 23.8 L 116.0 29.1 L 114.7 34.3 L 113.5 39.6 L 113.10911598205567 41.6325966835022 L 114.1 40.7 L 117.7 37.5 L 121.8 34.1 L 121.85947923660278 34.173673152923584 L 127.9 31.5 L 133.4 29.5 L 138.5 28.2 L 143.3 27.7 L 148.2 28.4 L 152.8 30.8 L 156.0 34.9 L 157.5 39.7 L 157.56969060897828 43.045150184631346 L 157.9 43.0 L 157.0 48.25 L 156.8 49.5 L 156.78624773025513 49.496888160705566 L 156.7 50.0 L 152.8 55.1 L 147.5 59.3 L 140.6 63.4 L 132.0 67.5 L 121.7 71.8 L 109.5 76.4 L 95.5 81.1 L 79.6 86.2 L 65.14679670333862 90.42228412628174 L 61.9 93.6 L 60.8 95.7 L 60.9 97.2 L 62.5 100.7 L 64.20655431747437 103.63314027786255 L 66.1 102.3 L 77.4 95.6 L 85.62881755828857 91.3549750328064 L 85.6 91.3 L 87.70909090042115 90.28181819915771 L 90.0 89.1 L 90.02976932525635 89.16149072647094 L 91.4 88.5 L 96.9 86.5 L 102.0 85.3 L 107.0 85.0 L 112.0 86.0 L 116.5 88.5 L 119.9 92.3 L 121.9 96.9 L 122.8 101.9 L 122.88111934661865 106.19932565689086 L 122.9 106.2 L 122.88581562042236 106.44822692871094 L 122.9 107.2 L 122.84297437667847 107.19794874191284 L 122.1 120.2 L 121.0 132.3 L 120.0 142.5 L 119.3 150.9 L 119.2 157.2 L 119.8 161.4 L 120.7 163.6 L 122.1 164.8 L 125.4 166.1 L 130.5868131637573 166.87802200317384 L 132.1 166.7 L 134.1 166.3 L 136.3 165.7 L 141.4 164.0 L 144.2 162.8 L 147.2 161.5 L 150.4 160.0 L 152.3125 158.9875 L 152.5 158.8 L 152.6 158.5 L 152.8 157.2 L 152.4 154.6 L 151.3 150.8 L 149.3 146.1 L 146.89464626312255 141.5298278808594 L 145.6 142.4 L 138.7 146.5 L 131.1 150.7 L 124.6 138.3 L 131.8 134.3 L 138.1 130.5 L 139.46919832229614 129.6037974357605 L 137.6 126.8 L 131.9 118.9 L 132.1288040161133 118.73194046020508 L 130.1 112.0 L 131.2 104.8 L 134.8 99.1 L 139.8 95.1 L 145.6 92.6 L 151.9 91.6 L 158.3 92.3 L 164.6 95.0 L 169.8 100.2 L 172.8 107.5 L 172.75593280792236 107.50932807922364 L 172.9 107.5 L 172.6 112.5 L 171.2 117.2 L 168.8 121.7 L 165.7 126.0 L 161.8 130.1 L 158.29151000976563 133.16059770584107 L 158.5 133.5 L 161.9 140.0 L 164.4 146.0 L 166.1 151.6 L 166.8 156.9 L 166.1 162.3 L 163.7 167.2 L 160.18196020126342 170.3748164176941 L 160.3 170.6 L 156.6 172.5 L 153.1 174.2 L 149.7 175.7 L 146.4 177.1 L 143.2 178.2 L 140.2 179.2 L 137.2 179.9 L 134.4 180.5 L 131.6 180.8 L 130.50100107192992 180.8845383644104 L 130.5 180.9 L 130.42946062088012 180.89004144668579 L 129.0 181.0 L 129.0 180.68823528289795 L 122.0 179.7 L 114.8 176.8 L 109.3 171.7 L 106.2 165.1 L 105.2 157.9 L 105.3 150.1 L 106.0 141.2 L 107.1 131.0 L 108.1 119.2 L 108.9 105.7 L 108.9715015411377 105.70255365371705 L 108.9 103.2 L 108.5 100.9 L 108.0 99.7 L 107.7 99.4 L 107.4 99.2 L 106.3 99.0 L 104.1 99.2 L 101.0 99.9 L 96.9 101.4 L 94.10836820602417 102.73765687942505 L 84.2 107.9 L 73.7 114.1 L 70.42927055358886 116.37848567962646 L 72.9 123.5 L 74.8 135.7 L 74.3 150.7 L 70.82882671356201 168.15228776931764 L 71.1 168.3 L 68.1 173.0 L 64.7 176.9 L 60.5 180.0 L 55.6 181.7 L 50.4 181.8 L 45.4 180.4 L 40.9 177.8 L 36.8 174.3 L 32.8 170.0 L 28.8 164.8 L 29.28552837371826 164.45801916122437 L 29.1 164.5 L 28.1 155.9 L 28.8 147.4 L 31.2 139.1 L 35.3 131.2 L 40.9 123.5 L 47.9 116.2 L 52.888165664672854 112.04319524765015 L 50.2 107.4 L 47.5 101.0 L 47.0 93.1 L 50.7 85.2 L 57.8 78.2 L 58.234567928314206 78.73333330154419 L 58.0 77.9 L 75.5 72.8 L 91.2 67.8 L 95.46738424301148 66.35662002563477 L 95.6 64.5 L 96.2 59.0 L 96.9 53.4 L 97.7 47.8 L 98.7 42.3 L 99.8 36.7 L 99.97371129989624 35.889347076416016 L 99.1 36.2 L 94.8 37.7 L 86.7 40.4 L 82.9 41.7 L 79.4 42.8 L 76.0 43.9 L 72.8 44.8 L 70.46210069656372 45.525554943084714 L 70.4 45.8 L 69.96470584869385 45.67991886138916 L 69.9 45.7 L 69.88809328079223 45.65878438949585 L 67.5 45.0 L 64.7 44.1 L 62.1 43.1 L 59.6 42.0 L 57.2 40.6 L 55.0 39.2 L 52.9 37.5 L 51.0 35.7 L 49.2 33.8 L 47.7 31.7 L 59.3 23.9 L 60.1 25.0 L 61.0 26.0 L 62.0 26.9 L 63.2 27.8 L 64.5 28.7 L 65.9 29.5 L 67.6 30.2 L 69.4 30.9 L 69.9384614944458 31.088461494445802 L 71.9 30.5 L 75.1 29.5 L 78.6 28.3 L 82.3 27.1 L 86.1 25.8 L 90.2 24.4 L 94.5 23.0 L 99.0 21.4 L 103.6 19.7 Z M 57.4 126.5 L 51.6 132.6 L 47.2 138.6 L 44.2 144.4 L 42.6 150.0 L 42.1 155.7 L 42.60282335281372 159.79441890716552 L 43.5 161.0 L 46.5 164.3 L 49.1 166.4 L 51.0 167.6 L 52.3 168.0 L 53.0 168.0 L 53.8 167.7 L 55.1 166.7 L 56.8 164.7 L 57.495652198791504 163.6217391014099 L 60.4 149.1 L 60.8 136.6 L 59.3 126.9 L 58.76489810943603 125.35643672943115 Z M 149.5 106.1 L 146.8 107.2 L 145.0 108.6 L 144.2 109.8 L 144.0 110.9 L 144.63129625320434 112.61351852416992 L 149.1 118.9 L 150.670947265625 121.24101943969727 L 152.1 120.0 L 155.0 117.0 L 157.0 114.2 L 158.3 111.8 L 158.8964072227478 109.91137723922729 L 158.1 108.0 L 156.9 106.7 L 154.9 105.9 L 152.3 105.6 Z M 141.0 42.0 L 137.6 42.8 L 133.2 44.4 L 129.10039739608766 46.25642385482788 L 126.9 48.1 L 123.5 51.1 L 120.5 53.9 L 117.9 56.6 L 115.6 59.1 L 115.51813631057739 59.2034068107605 L 116.6 58.8 L 126.3 54.7 L 134.1 51.0 L 139.7 47.7 L 143.1 45.0 L 143.3800000190735 44.664000034332275 L 143.6 43.3 L 143.6 41.73333330154419 L 143.3 41.7 Z " />
</g>
</svg>
