<svg xmlns="http://www.w3.org/2000/svg" xmlns:xlink="http://www.w3.org/1999/xlink" version="1.1" baseProfile="full" viewBox="0 0 200 200" width="200" height="200">
<g fill="black">
<path d="M 154.0 41.8 L 157.6 44.4 L 160.2 47.8 L 162.1 51.6 L 163.5801321029663 55.577855014801024 L 163.8 55.6 L 163.1 59.8 L 161.9 64.3 L 160.5 69.1 L 159.0 74.1 L 157.7 78.9 L 156.9 83.3 L 156.66999998092652 85.75333337783813 L 159.7 87.1 L 164.6 90.3 L 168.8 94.3 L 172.3 98.9 L 174.9 104.2 L 176.7 109.9 L 177.8 116.1 L 178.1 122.6 L 177.8 129.7 L 176.9 137.1 L 176.48080425262452 137.03063669204712 L 174.8 143.4 L 171.8 150.3 L 167.9 156.7 L 163.0 162.6 L 157.1 168.1 L 150.4 173.1 L 142.8 177.6 L 134.4 181.7 L 125.1 185.4 L 114.9 188.7 L 111.0 175.2 L 120.3 172.2 L 128.7 168.9 L 136.2 165.3 L 142.7 161.4 L 148.2 157.3 L 152.8 153.0 L 156.5 148.5 L 159.4 143.8 L 161.5 138.9 L 162.9 133.7 L 163.1483603477478 133.74499282836913 L 163.9 128.4 L 164.1 122.6 L 163.9 117.6 L 163.1 113.2 L 161.9 109.4 L 160.4 106.3 L 158.4 103.6 L 156.0 101.4 L 153.7173047065735 99.90444107055664 L 146.9 97.6 L 143.2 91.8 L 142.6 86.4 L 143.0 81.1 L 144.1 75.7 L 145.5 70.3 L 147.0 65.1 L 148.4 60.4 L 149.23880596160888 57.21253728866577 L 149.2 57.1 L 148.3 55.2 L 147.9640000343323 54.76800003051758 L 147.9 54.8 L 146.5 55.8 L 144.5 57.7 L 142.1 60.5 L 131.1 51.8 L 134.3 48.1 L 137.5 45.0 L 141.0 42.6 L 144.9 40.9 L 149.5 40.5 Z M 47.1 74.5 L 44.2 82.4 L 41.8 90.8 L 40.0 99.5 L 38.7 108.7 L 37.8 118.3 L 37.6 128.3 L 37.8 138.8 L 37.826598453521726 139.16240406036377 L 38.6 137.1 L 41.2 130.1 L 44.2 122.5 L 47.5 114.3 L 60.4 119.6 L 57.2 127.6 L 54.3 135.1 L 51.7 142.0 L 49.4 148.3 L 47.4 154.0 L 45.7 159.1 L 44.3 163.5 L 43.2 167.4 L 42.5 170.5 L 42.0 173.0 L 40.972245597839354 172.85105009078978 L 28.1 175.2 L 26.1 162.9 L 24.7 151.0 L 23.8 139.5 L 23.6 128.3 L 23.9 117.5 L 24.7 107.1 L 26.2 97.1 L 28.2 87.4 L 30.9 78.1 L 34.1 69.3 Z M 82.2 11.6 L 85.5 12.3 L 88.5 13.2 L 91.4 14.3 L 94.1 15.7 L 96.5 17.4 L 98.7 19.5 L 100.5 21.9 L 101.9 24.6 L 102.6714285850525 27.0 L 103.0 27.0 L 103.0 49.38823528289795 L 106.6 47.8 L 113.1 44.1 L 120.8 55.8 L 112.9 60.3 L 104.7 63.9 L 102.92869663238525 64.46856651306152 L 102.9 68.4 L 103.0 82.0 L 103.0 93.22727270126343 L 107.9 95.9 L 111.0 103.9 L 110.3 112.8 L 110.2326036453247 112.99470043182373 L 112.7 109.9 L 118.7 102.0 L 124.7 93.7 L 136.1 101.8 L 129.9 110.4 L 123.7 118.5 L 117.6 126.2 L 111.4 133.5 L 105.2 140.4 L 103.0 142.70645160675048 L 103.0 161.0 L 89.30412368774414 161.0 L 89.2 161.1 L 89.10983610153198 161.0 L 89.0 161.0 L 89.0 160.87818183898926 L 86.7891282081604 158.42612400054932 L 86.6 158.6 L 80.3 163.8 L 74.1 168.6 L 65.98617944717407 157.5534731864929 L 65.7 157.3 L 76.30627841949463 144.6046061515808 L 75.3 143.0 L 72.5 137.0 L 70.7 131.0 L 70.0 125.0 L 70.4 119.0 L 72.1 113.3 L 75.0 108.0 L 78.3337423324585 103.81145191192627 L 78.2 103.7 L 85.0 97.0 L 89.0 94.66666669845581 L 89.0 82.0 L 88.9 68.4 L 88.90263156890869 68.03947372436524 L 88.6 68.1 L 81.2 68.6 L 74.2 67.7 L 67.8 64.9 L 63.0 58.8 L 62.4 50.9 L 65.4 43.3 L 77.5 50.3 L 76.2 53.5 L 76.16666669845581 53.6 L 77.5 54.1 L 81.4 54.6 L 86.7 54.2 L 89.0 53.72539682388306 L 89.0 30.2 L 88.9 29.9 L 88.7 29.4 L 88.3 28.9 L 87.7 28.3 L 86.8 27.7 L 85.6 27.1 L 84.0 26.5 L 82.1 25.9 L 79.8 25.4 L 77.1 25.0 L 78.8 11.1 Z M 89.0 112.8 L 86.6 115.7 L 85.1 118.6 L 84.2 121.6 L 84.0 124.6 L 84.4 128.1 L 85.5 131.9 L 85.51680250167847 131.9344051361084 L 88.1 128.2 L 89.0 126.53965520858765 L 89.0 112.7 L 88.21298704147338 112.04415588378906 Z M 36.7 22.7 L 40.5 23.6 L 44.0 24.8 L 47.3 26.5 L 50.3 28.5 L 52.9 31.0 L 55.2 33.8 L 56.9 37.0 L 58.1 40.4 L 58.791737937927245 43.51282052993774 L 59.0 43.6 L 58.875 43.8875 L 58.9 44.0 L 58.82141666412353 44.01074161529541 L 58.0 45.9 L 57.0 48.1 L 56.0 50.4 L 54.9 52.6 L 52.7 56.8 L 51.5 58.9 L 50.3 60.9 L 49.0 62.9 L 47.8 64.8 L 36.1 57.1 L 37.2 55.4 L 39.4 51.8 L 41.4 48.2 L 42.4 46.2 L 43.4 44.3 L 44.109411811828615 42.7235294342041 L 44.1 42.7 L 43.5 41.5 L 42.6 40.4 L 41.6 39.5 L 40.3 38.6 L 38.6 37.7 L 36.5 37.0 L 34.1 36.4 L 31.2 36.0 L 32.7 22.1 Z " />
</g>
</svg>
