<svg xmlns="http://www.w3.org/2000/svg" xmlns:xlink="http://www.w3.org/1999/xlink" version="1.1" baseProfile="full" viewBox="0 0 200 200" width="200" height="200">
<g fill="black">
<path d="M 163.4 35.0 L 161.2 42.2 L 157.7 49.3 L 152.9 56.3 L 146.7 63.4 L 139.4 70.5 L 130.8 77.8 L 125.47928266525268 81.77710189819337 L 125.5 81.8 L 127.2 83.9 L 128.8 86.0 L 130.1 88.3 L 131.2 90.6 L 132.1 93.0 L 132.8 95.4 L 132.10331506729125 95.55764398574829 L 133.0 95.5 L 133.21879177093507 99.24680891036988 L 145.3 97.4 L 163.6 94.1 L 166.3 107.8 L 147.6 111.2 L 133.92881155014038 113.22536125183106 L 134.2 121.7 L 134.1 133.0 L 133.6 143.0 L 132.6 151.9 L 131.2 159.7 L 129.2 166.4 L 126.5 172.2 L 122.8 177.0 L 118.61178159713745 179.84798851013184 L 118.3 180.2 L 118.21109628677368 180.1204545021057 L 117.8 180.4 L 117.32692308425904 179.32935218811036 L 116.4 178.5 L 112.2 175.1 L 110.0 173.5 L 107.7 171.8 L 105.2 170.2 L 102.7 168.5 L 100.0 166.8 L 97.3 165.2 L 94.4 163.5 L 97.10091104507447 158.724476146698 L 96.1 159.3 L 92.2 161.3 L 88.1 162.9 L 84.0 164.3 L 79.9 165.3 L 75.7 165.9 L 75.68129653930664 165.7266812324524 L 75.3 166.0 L 73.1 162.7 L 71.3 159.3 L 70.0 155.8 L 69.2 152.2 L 68.8 148.6 L 69.0 144.9 L 69.7 141.3 L 70.9 137.9 L 72.7 134.6 L 74.8 131.5 L 85.9 140.0 L 84.7 141.8 L 83.8 143.5 L 83.2 145.1 L 82.9 146.7 L 82.8 148.2 L 82.99963436126708 149.8968921661377 L 83.3 149.8 L 86.3 148.5 L 89.4 147.0 L 92.5 145.1 L 95.7 143.0 L 98.9 140.5 L 102.1 137.8 L 105.3 134.7 L 115.2 144.6 L 111.5 148.1 L 107.7 151.4 L 104.95637063980102 153.49382238388063 L 107.3 154.9 L 110.2 156.7 L 113.0 158.5 L 115.7 160.3 L 116.34394788742065 160.77057723999025 L 117.6 156.5 L 118.8 150.0 L 119.6 142.0 L 120.1 132.6 L 120.2 121.9 L 119.97007265090943 114.94469738006592 L 117.8 115.2 L 106.5 115.7 L 97.4 115.3 L 90.0 113.5 L 83.8 108.6 L 82.5 100.0 L 85.9 93.4 L 90.34347829818725 88.63913040161133 L 90.2 88.4 L 91.06387434005737 87.86727752685547 L 91.5 87.4 L 91.61510601043702 87.5273512840271 L 102.2 81.0 L 112.8 73.8 L 122.1 66.8 L 130.0 60.1 L 136.6 53.8 L 141.8 47.7 L 145.7 42.1 L 148.2 37.0 L 149.6 32.3 L 150.0 28.2 L 163.9 27.7 Z M 65.5 28.3 L 66.1 34.4 L 65.7 40.6 L 64.3 46.8 L 61.9 53.0 L 58.8 59.3 L 54.7 65.6 L 49.9 71.9 L 44.3 78.4 L 37.8 85.0 L 37.71384735107422 84.91029472351075 L 37.4 85.2 L 36.7 86.1 L 36.4 86.6 L 36.4 87.4 L 36.6 88.1 L 37.163451766967775 89.13299493789673 L 44.0 95.6 L 48.6 104.2 L 51.1 113.6 L 52.2 123.5 L 52.24603624343872 128.05758781433104 L 54.0 124.7 L 57.8 117.6 L 70.1 124.3 L 66.3 131.2 L 63.1 137.6 L 60.2 143.6 L 57.8 149.1 L 55.7 154.2 L 54.2 158.7 L 53.0 162.8 L 52.3 166.3 L 51.9 169.2 L 51.9 171.5 L 51.62497253417969 171.5176803588867 L 51.7 172.0 L 38.2 175.9 L 37.0 168.5 L 36.9 160.4 L 37.3 151.6 L 37.9 142.4 L 38.3 133.1 L 38.2 124.2 L 37.3 116.0 L 35.5 109.2 L 33.469946479797365 105.29026737213135 L 30.4 102.7 L 27.7 99.8 L 25.4 96.7 L 23.7 93.4 L 22.6 89.8 L 22.4 86.0 L 23.2 82.2 L 24.8 78.8 L 27.0 75.8 L 29.7 73.2 L 29.732874584197997 73.2394495010376 L 34.0 68.9 L 39.1 63.1 L 43.3 57.5 L 46.6 52.3 L 49.1 47.4 L 50.9 42.8 L 51.8 38.5 L 52.1 34.6 L 51.7 30.9 L 50.7 27.3 L 63.9 22.4 Z M 149.1 125.0 L 153.9 126.1 L 158.5 128.1 L 162.8 130.8 L 166.8 134.1 L 170.4 138.0 L 173.6 142.5 L 176.6 147.5 L 179.3 153.1 L 166.6 158.8 L 164.3 154.2 L 161.9 150.2 L 159.5 146.9 L 157.0 144.2 L 154.6 142.1 L 152.1 140.5 L 149.5 139.4 L 146.9 138.8 L 144.0 138.5 L 140.9 138.8 L 139.0 124.9 L 144.1 124.5 Z M 109.8 92.7 L 99.90860166549683 98.84223928451539 L 97.74663105010987 101.11508026123047 L 99.1 101.4 L 106.4 101.7 L 116.6 101.2 L 119.26940450668334 100.91252565383911 L 119.12503490447997 98.49433517456055 L 119.1 98.5 L 118.8 97.3 L 118.4 96.2 L 117.8 94.9 L 117.0 93.7 L 116.1 92.3 L 115.0 91.0 L 113.96524314880371 89.88564653396607 Z M 100.6 35.4 L 100.2 38.1 L 100.1 40.5 L 100.2 42.4 L 100.6 43.9 L 101.2 45.2 L 102.0 46.3 L 103.1 47.4 L 104.5 48.4 L 106.5 49.4 L 108.9 50.2 L 105.0 63.7 L 101.0 62.3 L 97.4 60.5 L 94.2 58.2 L 91.3 55.4 L 89.1 52.2 L 87.4 48.6 L 86.4 44.8 L 86.1 40.8 L 86.2 36.7 L 86.9 32.5 Z " />
</g>
</svg>
