<svg xmlns="http://www.w3.org/2000/svg" xmlns:xlink="http://www.w3.org/1999/xlink" version="1.1" baseProfile="full" viewBox="0 0 200 200" width="200" height="200">
<g fill="black">
<path d="M 139.7380115509033 21.42439947128296 L 144.0 27.5 L 148.4 33.7 L 152.5 39.4 L 156.2 44.6 L 159.7 49.2 L 162.8 53.3 L 165.6 56.8 L 168.1 59.8 L 170.2 62.2 L 171.9 64.0 L 162.0 73.9 L 161.54097747802734 73.42011280059815 L 161.7 73.8 L 145.8 80.7 L 130.7 87.6 L 128.42533206939697 88.69811553955078 L 128.2 92.4 L 127.5 104.0 L 127.22653141021729 109.15032539367675 L 132.9 107.4 L 141.3 105.4 L 149.0 104.4 L 156.0 104.4 L 162.4 105.6 L 168.1 108.2 L 172.7 112.6 L 175.7 118.1 L 176.70572252273558 123.38004350662231 L 176.8 123.4 L 176.7479142189026 123.60154943466186 L 176.9 124.4 L 176.53408975601195 124.4289568901062 L 174.5 132.3 L 171.4 140.8 L 167.6 148.7 L 163.0 156.0 L 157.7 162.8 L 151.6 168.9 L 144.8 174.4 L 137.3 179.3 L 129.1 183.6 L 120.3 187.2 L 115.5 174.0 L 123.2 170.9 L 130.2 167.2 L 136.5 163.1 L 142.2 158.5 L 147.2 153.5 L 151.6 147.9 L 155.4 141.9 L 158.5 135.3 L 161.1 128.2 L 162.45812129974365 122.97123289108276 L 162.4 122.7 L 161.6 121.0 L 160.4 119.9 L 158.3 118.9 L 154.9 118.3 L 150.0 118.4 L 143.9 119.2 L 136.6 120.9 L 128.1 123.5 L 118.5 127.1 L 113.51027898788452 114.62569751739503 L 113.0 114.6 L 113.5 103.2 L 113.94905138015747 95.75857648849487 L 102.6 101.6 L 89.7 108.6 L 77.5 115.7 L 76.02341785430909 116.61962566375732 L 76.3 126.3 L 76.7 135.8 L 76.9 144.4 L 76.7 152.0 L 75.8 158.8 L 73.6 165.0 L 70.0987735748291 169.39688901901246 L 69.8 170.3 L 69.47224035263062 170.18369817733765 L 69.3 170.4 L 68.99108171463013 170.01296453475953 L 66.7 169.2 L 63.5 168.0 L 60.2 166.6 L 56.7 165.1 L 53.0 163.5 L 49.2 161.7 L 45.3 159.8 L 41.2 157.7 L 38.18132972717285 156.11879177093505 L 38.1 156.3 L 35.4 155.0 L 33.0 153.5 L 30.9 151.7 L 29.0 149.6 L 27.4 147.2 L 26.3 144.5 L 25.8 141.6 L 25.7 138.8 L 26.2 136.0 L 27.1 133.3 L 27.533862400054932 133.47354497909546 L 37.1 126.0 L 47.4 118.5 L 58.5 111.1 L 61.87933483123779 108.98075609207153 L 61.8 104.3 L 62.1 91.3 L 62.13983592987061 90.60785083770752 L 62.1 90.6 L 62.16312398910522 90.20322065353393 L 62.629328632354735 82.1029151916504 L 56.8 84.1 L 47.7 85.8 L 40.0 85.6 L 33.4 83.2 L 28.6 78.5 L 26.4 72.6 L 26.7 66.8 L 28.7 61.5 L 32.0 57.0 L 36.6 53.4 L 43.6 65.5 L 42.1 66.7 L 41.0 68.3 L 40.4 69.8 L 40.3 70.8 L 40.4 71.0 L 40.6 71.2 L 42.4 71.8 L 46.5 71.9 L 53.2 70.6 L 53.250740909576415 70.58271465301513 L 53.2 70.5 L 57.1 68.3 L 61.1 66.9 L 65.4 66.4 L 70.1 67.6 L 73.9 70.8 L 76.0 74.7 L 76.9 78.9 L 77.1 83.2 L 76.7 88.0 L 75.99603958129883 92.14554452896118 L 75.86206855773926 100.45175199508667 L 82.8 96.4 L 96.0 89.2 L 110.0 82.1 L 115.01508827209473 79.64363021850586 L 116.1 68.4 L 117.5 57.5 L 119.6 47.4 L 122.3 38.3 L 126.1 30.5 L 131.7 24.1 L 139.5 20.3 Z M 55.4 130.0 L 45.5 137.2 L 40.30797548294068 141.30797548294066 L 40.375 141.375 L 43.6 143.1 L 47.6 145.2 L 51.6 147.2 L 55.3 149.1 L 58.9 150.8 L 62.3 152.3 L 62.52892417907715 152.39711933135987 L 62.7 151.0 L 62.9 144.4 L 62.7 136.3 L 62.3 126.8 L 62.260291481018065 125.38372907638549 Z M 135.4 43.3 L 133.2 50.7 L 131.4 59.7 L 130.0 69.9 L 129.7285714149475 72.61428575515747 L 140.1 67.9 L 152.3529661178589 62.605508518219 L 151.8 61.9 L 148.5 57.6 L 145.0 52.9 L 141.1 47.6 L 137.0 41.9 L 136.44690265655518 41.12566375732422 Z M 66.7 20.1 L 69.3 23.1 L 72.0 25.8 L 74.8 28.2 L 77.8 30.3 L 80.8 32.2 L 83.9 33.8 L 87.2 35.2 L 90.7 36.2 L 94.3 37.1 L 91.6 50.8 L 87.0 49.8 L 82.5 48.3 L 78.1 46.6 L 73.9 44.4 L 69.9 42.0 L 66.1 39.2 L 62.5 36.0 L 59.1 32.6 L 55.8 28.8 L 52.8 24.8 L 64.3 16.8 Z " />
</g>
</svg>
