<svg xmlns="http://www.w3.org/2000/svg" xmlns:xlink="http://www.w3.org/1999/xlink" version="1.1" baseProfile="full" viewBox="0 0 200 200" width="200" height="200">
<g fill="black">
<path d="M 73.2 9.6 L 76.5 10.0 L 79.9 11.0 L 83.3 13.2 L 85.9 16.9 L 87.0 21.2 L 86.7 25.3 L 86.63159608840942 25.528013038635255 L 85.1048776626587 35.0809084892273 L 92.7 32.2 L 104.0 28.8 L 115.1 26.3 L 125.9 24.9 L 136.4 24.4 L 146.7 25.0 L 146.64777431488037 25.48395767211914 L 147.8 25.7 L 150.9 26.9 L 153.7 28.8 L 156.1 31.0 L 158.1 33.6 L 159.7 36.5 L 161.1 39.7 L 162.2 43.1 L 163.1 46.9 L 163.9 50.9 L 163.54463710784913 50.95368795394897 L 164.0 52.6 L 163.2 57.9 L 160.2 62.0 L 156.4 64.7 L 152.1 66.4 L 147.2 67.5 L 141.6 68.3 L 135.2 68.8 L 127.9 69.0 L 119.8 68.9 L 120.1 55.0 L 127.8 55.0 L 134.5 54.8 L 140.1 54.4 L 144.7 53.8 L 148.0 53.0 L 149.86046514511108 52.25581398010254 L 149.4 49.8 L 148.7 47.0 L 148.0 44.6 L 147.2 42.7 L 146.3 41.3 L 145.6 40.3 L 144.9 39.7 L 144.4 39.3 L 143.9 39.1 L 143.3 39.0 L 143.31934614181517 38.79314470291138 L 136.4 38.4 L 127.1 38.8 L 117.5 40.1 L 107.5 42.3 L 97.2 45.4 L 86.4 49.5 L 82.667063331604 51.181503009796145 L 80.6 67.4 L 79.0 86.0 L 78.96291427612304 88.06443977355957 L 85.77149543762206 84.21611127853393 L 85.7 84.0 L 98.5 80.4 L 110.9 78.4 L 111.71595544815064 78.36600189208984 L 112.803297996521 75.87870588302613 L 112.9 75.1 L 126.8 76.8 L 126.62765607833862 78.19689292907715 L 134.2 78.8 L 144.8 81.4 L 154.6 85.4 L 163.4 91.1 L 170.9 98.2 L 177.0 106.7 L 181.5 116.6 L 181.13435564041137 116.73118543624878 L 181.8 116.6 L 182.5 121.6 L 182.6 126.6 L 182.2 131.6 L 181.2 136.5 L 179.7 141.4 L 177.7 146.2 L 175.2 151.0 L 172.2 155.7 L 168.7 160.3 L 165.2113299369812 164.4148416519165 L 165.3 164.5 L 160.2 169.3 L 154.3 173.6 L 147.9 177.5 L 140.9 180.8 L 133.3 183.8 L 125.1 186.2 L 116.3 188.3 L 106.9 189.9 L 96.9 191.1 L 86.3 191.9 L 85.6 178.0 L 95.5 177.2 L 104.9 176.1 L 113.5 174.6 L 121.5 172.7 L 128.8 170.5 L 135.4 168.0 L 141.3 165.1 L 146.6 162.0 L 151.2 158.6 L 154.43236513137816 155.52925310134887 L 154.4 155.5 L 157.8 151.6 L 160.7 147.7 L 163.1 144.0 L 165.0 140.3 L 166.5 136.6 L 167.6 133.1 L 168.3 129.6 L 168.6 126.1 L 168.5 122.7 L 168.3134831428528 121.11460676193238 L 164.9 113.8 L 160.3 107.4 L 154.7 102.1 L 148.1 97.9 L 140.5 94.7 L 132.0 92.7 L 124.91272897720337 92.0968279838562 L 124.9 92.2 L 123.1 106.2 L 121.4 118.9 L 119.8 130.2 L 118.3 140.2 L 117.0 148.9 L 115.8 156.3 L 114.7 162.4 L 113.6 167.3 L 112.6 171.0 L 110.62029209136963 170.3897141456604 L 110.3 171.7 L 95.8 166.3 L 84.1 158.1 L 82.87716035842895 156.5679365158081 L 75.4 164.3 L 66.4 171.5 L 57.0 176.6 L 47.3 179.4 L 40.48173971176148 179.74435653686524 L 40.5 180.0 L 38.60303792953491 179.83924055099487 L 37.4 179.9 L 37.41279067993164 179.73837213516236 L 34.6 179.5 L 29.5 177.4 L 25.4 174.1 L 22.4 170.1 L 20.3 165.6 L 19.0 160.9 L 18.4 156.1 L 18.7 151.3 L 19.9 146.6 L 22.1 142.1 L 22.514396476745606 142.37272243499757 L 24.4 138.8 L 28.8 131.8 L 33.8 125.0 L 39.4 118.5 L 45.7 112.2 L 52.5 106.2 L 60.0 100.4 L 64.8032787322998 97.0377049446106 L 65.0 85.3 L 66.6 65.9 L 67.55971393585205 58.471103286743165 L 63.8 60.4 L 51.9 67.3 L 41.384929466247556 74.1089391708374 L 41.5 74.4 L 40.35978364944458 74.77276306152343 L 39.7 75.2 L 39.583392238616945 75.02658329010009 L 36.3 76.1 L 31.2 76.4 L 26.1 74.9 L 22.1 71.4 L 20.1 67.1 L 19.4 63.0 L 19.4 58.9 L 20.0 54.8 L 20.9 50.8 L 22.0 46.8 L 35.3 51.0 L 34.4 54.2 L 33.8 57.3 L 33.4 60.0 L 33.3 62.1 L 33.341600036621095 62.32880001068115 L 33.5 62.3 L 34.22180614471436 62.10088109970093 L 44.6 55.4 L 57.0 48.2 L 69.2 41.9 L 69.8496205329895 41.61067323684692 L 72.59666604995728 24.67055959701538 L 72.4 24.6 L 72.67627115249634 23.550169467926025 L 72.3 23.5 L 70.2 23.5 L 67.6 23.6 L 64.5 23.8 L 63.4 9.9 L 66.7 9.6 L 70.0 9.5 Z M 61.5 116.9 L 55.3 122.4 L 49.7 128.0 L 44.7 133.8 L 40.3 139.7 L 36.5 145.7 L 33.3 151.9 L 32.98641977310181 151.7543210029602 L 32.6 153.3 L 32.4 155.8 L 32.7 158.3 L 33.4 160.8 L 34.4 162.9 L 35.6 164.5 L 36.8 165.4 L 37.9 165.9 L 39.0 165.96875 L 44.9 165.6 L 51.6 163.7 L 58.6 159.8 L 66.0 154.0 L 73.5 146.1 L 74.38552370071412 144.96471319198608 L 69.5 134.2 L 66.1 119.5 L 65.60208015441894 113.70279045104981 Z M 101.2 131.2 L 92.7 144.2 L 91.78612718582153 145.38265895843506 L 93.8 147.9 L 102.03157892227173 153.71052627563478 L 103.2 146.7 L 104.5 138.2 L 105.9 128.2 L 106.9446759223938 120.88726854324341 Z M 101.5 94.1 L 92.19933032989502 96.71071424484253 L 83.7 101.4 L 78.85801334381104 104.48676652908325 L 80.0 117.4 L 82.8 129.8 L 83.87384271621704 132.1577851295471 L 89.2 124.0 L 97.1 109.8 L 105.09706010818482 93.50599012374877 Z M 150.11968021392823 52.981918811798096 L 150.0 53.7 L 150.0 53.8 L 152.55193347930907 52.61445608139038 Z " />
</g>
</svg>
