<svg xmlns="http://www.w3.org/2000/svg" xmlns:xlink="http://www.w3.org/1999/xlink" version="1.1" baseProfile="full" viewBox="0 0 200 200" width="200" height="200">
<g fill="black">
<path d="M 127.5 18.9 L 131.8 23.9 L 133.1 31.0 L 130.6 37.2 L 126.2 42.0 L 120.3 46.2 L 114.80034017562866 49.172789096832275 L 120.6 47.6 L 126.1 46.1 L 131.2 44.7 L 135.557142829895 43.4021276473999 L 136.4 42.9 L 143.5 55.0 L 138.9 57.7 L 133.8 60.9 L 128.1 64.4 L 121.9 68.2 L 115.2 72.5 L 107.9 77.1 L 100.1 82.1 L 91.8 87.4 L 83.0 93.2 L 75.12638702392579 98.30947227478028 L 74.70053052902222 98.89018564224243 L 75.3 99.1 L 79.8 99.8 L 86.5 100.0 L 92.16993780136109 99.80221147537232 L 92.7 98.0 L 94.5 94.8 L 97.3 92.0 L 101.1 90.2 L 105.2 90.0 L 108.8 90.9 L 112.0 92.5 L 115.0 94.6 L 117.88284521102905 97.00237102508545 L 117.9 97.0 L 117.90288066864014 97.01906719207764 L 118.0 97.1 L 117.92705621719361 97.17908639907837 L 120.0 110.9 L 107.63969993591309 112.54160232543946 L 107.6 115.4 L 107.52787418365479 118.06865425109864 L 120.1 115.8 L 133.80555419921876 114.15919418334961 L 133.8 113.9 L 141.3 114.0 L 148.2 114.5 L 154.5 115.6 L 160.3 117.2 L 165.5 119.5 L 170.1 122.6 L 174.0 126.4 L 177.0 130.9 L 178.9 135.9 L 179.6304808616638 139.84459667205812 L 179.9 139.8 L 180.3 145.7 L 179.8 151.4 L 178.1 157.0 L 175.5 162.1 L 171.9 166.8 L 167.5 171.0 L 162.2 174.9 L 156.3 178.3 L 149.6 181.4 L 142.2 184.2 L 137.6 171.0 L 144.2 168.5 L 149.9 165.9 L 154.6 163.1 L 158.5 160.3 L 161.5 157.4 L 163.7 154.6 L 165.2 151.7 L 166.0 148.8 L 166.3 145.6 L 166.0425163269043 142.59602365493774 L 166.0 142.6 L 165.5 139.7 L 164.5 137.3 L 163.2 135.3 L 161.4 133.5 L 158.9 131.9 L 155.6 130.4 L 151.5 129.2 L 146.5 128.4 L 140.7 128.0 L 135.59276275634767 127.92261762619019 L 135.6 128.0 L 122.2 129.7 L 109.6 131.9 L 107.27192268371581 132.46194972991944 L 107.2 138.0 L 107.1 145.9 L 107.0 153.9 L 107.0 179.0 L 93.0 179.0 L 93.0 153.8 L 93.1 145.8 L 93.2 137.9 L 93.22230958938599 136.15984983444213 L 87.2 138.0 L 77.3 141.9 L 68.2 146.3 L 60.0 151.3 L 52.7 156.7 L 46.2 162.7 L 41.080152702331546 168.628244304657 L 40.3 169.9 L 36.3 167.2 L 32.7 164.0 L 30.343686866760255 161.33964643478393 L 29.4 160.6 L 29.553166770935057 160.42881355285644 L 27.1 156.7 L 25.1 152.5 L 23.7 148.0 L 23.0 143.4 L 22.7 138.6 L 23.1 133.6 L 23.9 128.5 L 37.6 131.4 L 37.0 135.2 L 36.7 138.7 L 36.9 141.9 L 37.4 144.8 L 38.2 147.4 L 39.3 149.8 L 39.44437913894653 150.01175603866577 L 43.8 146.0 L 52.2 139.6 L 61.5 134.0 L 71.6 129.1 L 82.6 124.8 L 93.43040542602539 121.375 L 93.6 115.1 L 93.6193826675415 113.70444707870483 L 86.6 114.0 L 78.5 113.8 L 71.8 112.7 L 66.0 110.3 L 61.3 105.4 L 60.1 98.4 L 62.2 92.4 L 66.0 87.1 L 66.26249504089355 87.32782583236694 L 75.3 81.4 L 84.2 75.7 L 92.5 70.3 L 93.51881608963012 69.6551796913147 L 88.1 70.8 L 81.5 72.3 L 75.1 73.6 L 69.2 74.8 L 63.7 76.0 L 58.5 77.0 L 53.7 78.0 L 53.38571424484253 78.05714282989501 L 53.1 78.2 L 53.05802793502808 78.11672220230102 L 49.3 78.8 L 46.6 65.1 L 48.8 64.65 L 52.7 62.7 L 55.2 61.4 L 57.9 59.9 L 61.0 58.3 L 64.3 56.5 L 67.8 54.6 L 71.6 52.5 L 75.7 50.3 L 75.95275793075561 50.76401824951172 L 75.7 50.0 L 87.9 45.6 L 98.3 41.5 L 106.6 37.7 L 113.0 34.2 L 117.2 31.3 L 118.6013289451599 29.824916934967042 L 116.0 28.3 L 121.9 15.6 Z M 64.7 28.1 L 63.9 29.8 L 63.7 30.8 L 63.7 31.1 L 63.9 31.3 L 64.6 31.9 L 66.2 32.7 L 68.6 33.6 L 71.8 34.4 L 75.8 35.0 L 74.1 48.9 L 69.1 48.1 L 64.6 47.0 L 60.6 45.6 L 57.0 43.6 L 53.8 41.0 L 51.3 37.6 L 49.9 33.5 L 49.8 29.3 L 50.7 25.3 L 52.3 21.5 Z " />
</g>
</svg>
