<svg xmlns="http://www.w3.org/2000/svg" xmlns:xlink="http://www.w3.org/1999/xlink" version="1.1" baseProfile="full" viewBox="0 0 200 200" width="200" height="200">
<g fill="black">
<path d="M 52.2 15.1 L 54.7 16.0 L 57.2 17.0 L 59.7 18.1 L 62.1 19.4 L 64.5 20.8 L 69.1 24.0 L 71.4 25.8 L 73.6 27.7 L 73.23220338821412 28.115254211425782 L 73.7 28.2 L 70.7 44.4 L 67.96276149749755 58.359916305541994 L 69.4 57.9 L 74.1 56.5 L 75.63720474243163 56.10676155090332 L 75.6 56.0 L 76.02894563674927 56.00654878616333 L 78.4 55.4 L 78.54702043533325 56.04499263763428 L 88.7 56.2 L 97.4 65.0 L 100.9 77.1 L 101.6 91.7 L 100.0 108.1 L 96.5 125.4 L 91.2 142.7 L 84.2 159.0 L 75.7 173.2 L 65.4 184.4 L 64.91432466506959 183.805184173584 L 64.9 183.9 L 60.7 182.7 L 57.0 180.5 L 54.0 177.4 L 51.8 173.8 L 50.2 169.7 L 49.2 165.3 L 48.6 160.5 L 48.3 155.3 L 48.4 149.5 L 48.9 143.3 L 62.8 144.6 L 62.4 150.2 L 62.3 155.1 L 62.5 159.4 L 63.0 162.9 L 63.6 165.7 L 63.6465841293335 165.8106372833252 L 64.4 165.0 L 71.7 152.7 L 78.0 138.0 L 82.9 122.0 L 86.1 106.0 L 87.6 91.2 L 87.0 79.1 L 84.9 71.3 L 83.0 69.0 L 80.92307691574096 69.14835166931152 L 78.0 69.9 L 73.6 71.2 L 68.8 72.8 L 64.7751187324524 74.11582660675049 L 61.9 87.5 L 59.0 100.1 L 56.1 111.7 L 53.2 122.5 L 50.3 132.4 L 47.4 141.3 L 44.5 149.4 L 31.4 144.5 L 34.1 136.8 L 36.9 128.3 L 39.7 118.7 L 42.5 108.2 L 45.3 96.8 L 48.2 84.5 L 49.40796794891357 78.96000909805298 L 47.5 79.5 L 42.4 80.7 L 37.6 81.6 L 37.36204423904419 81.62069177627563 L 37.4 81.8 L 33.9 82.3 L 30.4 82.4 L 27.0 81.8 L 23.7 80.4 L 20.7 78.2 L 18.5 75.3 L 17.1 72.1 L 16.2 68.7 L 15.9 65.2 L 15.9 61.5 L 29.9 62.4 L 29.8 64.7 L 30.0 66.4 L 30.3 67.6 L 30.5 68.1 L 30.6 68.2 L 30.8 68.3 L 31.5 68.4 L 32.7 68.4 L 32.9026159286499 68.36623067855835 L 32.9 68.0 L 35.7 67.7 L 39.4 67.0 L 43.9 66.0 L 48.8 64.6 L 52.7022500038147 63.29925003051758 L 54.0 56.9 L 56.9 41.8 L 58.43038673400879 33.58692445755005 L 57.1 32.7 L 55.3 31.6 L 51.7 29.8 L 49.9 29.1 L 48.0 28.5 L 46.2 28.0 L 49.6 14.4 Z M 166.1 56.5 L 172.2 59.1 L 177.2 63.2 L 180.8 68.7 L 182.8 75.1 L 183.6 82.2 L 183.3 89.9 L 182.0 98.4 L 180.32689809799194 105.23789472579956 L 180.5 105.3 L 179.98245611190796 106.64561405181885 L 179.7 107.8 L 179.55386600494384 107.75994844436646 L 178.0 111.8 L 175.1 117.9 L 171.9 123.8 L 168.3 129.4 L 164.4 134.7 L 160.1 139.7 L 155.4 144.4 L 150.4 148.7 L 145.1 152.7 L 139.4 156.4 L 132.2 144.4 L 137.0 141.3 L 141.6 137.8 L 145.9 134.1 L 149.8 130.2 L 153.5 125.9 L 156.8 121.4 L 159.9 116.7 L 162.7 111.6 L 165.2 106.3 L 166.44293785095215 103.079660987854 L 168.2 95.7 L 169.3 88.5 L 169.6 82.5 L 169.1 77.9 L 168.1 74.6 L 166.7 72.5 L 165.0 71.1 L 162.5 70.1 L 158.8 69.6 L 154.79056606292724 69.76037731170655 L 152.0 70.8 L 147.7 73.2 L 144.0 75.8 L 141.0 78.9 L 138.5 82.4 L 136.5 86.4 L 135.0 90.9 L 134.1 96.1 L 133.7 101.9 L 133.78936166763305 104.8042552947998 L 134.0 110.0 L 120.0 110.0 L 119.92857141494751 107.64285717010497 L 119.7443299293518 102.85257730484008 L 119.2 97.5 L 118.4 92.1 L 117.2 87.4 L 115.7 83.3 L 114.0 79.7 L 112.0 76.8 L 109.8 74.3 L 107.4 72.3 L 104.7 70.7 L 111.0 58.1 L 115.5 60.9 L 119.6 64.3 L 123.1 68.3 L 126.2 72.8 L 127.00074768066406 74.50158882141113 L 130.3 69.9 L 134.9 65.2 L 140.2 61.3 L 146.3 58.1 L 152.1003541946411 55.902896118164065 L 152.1 55.9 L 152.10897359848022 55.89963121414185 L 152.9 55.6 L 152.9832739830017 55.863701057434085 L 159.4 55.6 Z " />
</g>
</svg>
