<svg xmlns="http://www.w3.org/2000/svg" xmlns:xlink="http://www.w3.org/1999/xlink" version="1.1" baseProfile="full" viewBox="0 0 200 200" width="200" height="200">
<g fill="black">
<path d="M 88.9 23.0 L 92.0 23.5 L 94.9 24.2 L 97.7 25.4 L 100.3 26.8 L 102.7 28.7 L 104.9 30.8 L 106.7 33.2 L 108.2 35.8 L 107.75764636993408 36.02294626235962 L 107.0 41.8 L 105.7 47.9 L 104.1 54.1 L 103.21344537734986 56.848319339752194 L 109.2 56.1 L 117.3 54.5 L 125.4 52.3 L 133.4 49.4 L 138.5 62.5 L 129.6 65.6 L 120.5 68.1 L 111.4 69.9 L 102.3 71.0 L 97.58328609466552 71.20963172912597 L 96.8 73.0 L 93.6 79.4 L 90.0 85.8 L 86.1 92.3 L 84.02138729095459 95.41791906356812 L 88.7 95.5 L 95.8 95.4 L 103.8 95.1 L 112.0 95.1 L 120.2 95.7 L 128.0 97.2 L 127.9893723487854 97.23499355316162 L 128.5 97.1 L 131.4 110.8 L 124.1 112.7 L 116.1 115.7 L 107.7 119.7 L 98.6 124.7 L 89.0 130.8 L 78.9 138.0 L 70.31963052749634 144.6376443862915 L 71.13495149612427 144.5398057937622 L 72.8 144.2 L 72.82385005950928 144.3371379852295 L 74.8 144.1 L 79.8 144.2 L 84.8 145.1 L 89.6 146.6 L 94.1 148.8 L 98.5 151.7 L 100.46264533996582 153.28880815505983 L 104.3 149.0 L 109.3 144.0 L 114.4 139.8 L 119.4 136.5 L 124.6 134.0 L 129.8 132.4 L 135.2 132.0 L 140.5 132.6 L 145.6 134.5 L 150.2 137.4 L 150.17489137649537 137.43278884887695 L 150.6 137.7 L 154.0 140.4 L 157.3 143.4 L 160.7 146.9 L 163.9 150.8 L 167.2 155.1 L 170.5 159.8 L 173.7 164.9 L 177.0 170.5 L 164.9 177.4 L 161.8 172.2 L 158.8 167.5 L 155.9 163.3 L 153.0 159.5 L 150.2 156.2 L 147.5 153.4 L 145.0 151.1 L 142.6 149.2 L 140.3 147.8 L 138.3 146.8 L 138.36984128952025 146.62539682388305 L 137.2 146.2 L 135.0 145.9 L 132.5 146.2 L 129.7 147.0 L 126.4 148.6 L 122.7 151.0 L 118.7 154.4 L 114.5 158.6 L 110.2582335472107 163.4073353767395 L 110.5 163.7 L 99.4 172.2 L 96.3 168.5 L 93.3 165.5 L 90.2 163.0 L 87.3 161.0 L 84.3 159.6 L 81.4 158.7 L 78.5 158.2 L 75.5 158.1 L 73.36666669845582 158.36666669845582 L 71.2 158.8 L 67.1 159.9 L 62.9 161.3 L 58.7 162.9 L 54.5 164.8 L 50.1 167.0 L 45.7 169.5 L 41.3 172.2 L 36.7 175.2 L 32.2 178.6 L 23.8 167.4 L 23.91133756637573 167.3159287452698 L 23.8 167.2 L 36.2 155.6 L 48.1 144.9 L 59.5 135.3 L 70.6 126.8 L 81.2 119.2 L 91.4 112.7 L 97.35210208892822 109.35953454971313 L 96.3 109.4 L 88.8 109.5 L 81.9 109.4 L 75.6 108.3 L 69.3 104.0 L 68.0 95.0 L 70.26751670837402 91.04638109207153 L 70.2 91.0 L 70.90918922424316 89.92756757736205 L 71.9 88.2 L 71.99774694442749 88.28145580291748 L 74.3 84.8 L 77.9 78.8 L 81.2 72.8 L 82.29557456970215 70.68188915252685 L 75.8 69.7 L 67.4 67.5 L 59.5 64.5 L 52.0 60.4 L 59.6 48.6 L 65.4 51.7 L 71.7 54.2 L 78.5 56.0 L 85.8 57.0 L 88.30802202224731 57.13376121520996 L 88.9 55.6 L 90.7 50.1 L 92.1 44.7 L 93.2 39.4 L 93.25196504592896 39.013973808288576 L 92.7 38.6 L 91.7 38.0 L 90.5 37.5 L 89.1 37.2 L 87.5 36.9 L 85.6 36.8 L 83.4 36.9 L 82.5 22.9 L 85.7 22.8 Z " />
</g>
</svg>
