<svg xmlns="http://www.w3.org/2000/svg" xmlns:xlink="http://www.w3.org/1999/xlink" version="1.1" baseProfile="full" viewBox="0 0 200 200" width="200" height="200">
<g fill="black">
<path d="M 120.2 134.6 L 119.20454549789429 135.92727270126343 L 119.5 136.4 L 122.1 138.9 L 126.5 142.3 L 132.0 146.3 L 138.0 151.1 L 144.0 156.9 L 149.4 164.0 L 153.6 172.7 L 140.3 177.2 L 137.6 171.5 L 133.6 166.3 L 128.9 161.7 L 123.6 157.5 L 118.2 153.6 L 113.2 149.7 L 108.7 145.3 L 105.4 139.1 L 105.9 131.2 L 110.3 124.7 Z M 54.5 29.3 L 58.2 29.8 L 62.0 30.8 L 65.7 32.3 L 69.2 34.6 L 72.2 37.9 L 74.2 42.1 L 74.52520999908447 44.09191102981568 L 74.9 44.1 L 74.8519684791565 46.09330711364746 L 75.0 47.0 L 74.83014974594116 46.9987868309021 L 74.7 52.4 L 74.5 61.6 L 74.34913759231567 69.29398403167724 L 78.8 67.4 L 83.3 64.9 L 90.6 77.0 L 84.9 80.0 L 79.0 82.5 L 74.18065385818481 84.08011350631713 L 74.00113382339478 95.03083591461181 L 75.2 93.8 L 85.3 103.6 L 77.7 111.3 L 73.69701890945434 115.36016654968262 L 73.6 122.2 L 73.4 137.2 L 73.2 153.1 L 73.0 170.0 L 72.33824434280396 169.99527320861816 L 72.6 170.7 L 59.3 175.2 L 58.4 172.7 L 57.2 170.2 L 55.8 167.8 L 54.1 165.3 L 52.2 162.8 L 50.0 160.3 L 47.6 157.7 L 44.9 155.2 L 41.9 152.7 L 38.682795715332034 150.26272401809692 L 38.0 150.9 L 35.6 153.2 L 35.166228675842284 152.7102581977844 L 22.0 151.1 L 22.5 147.7 L 23.1 144.4 L 23.7 141.2 L 24.5 138.0 L 25.4 134.9 L 27.4 128.9 L 28.6 126.0 L 29.9 123.2 L 31.3 120.5 L 42.81904764175415 126.68095235824585 L 48.5 121.0 L 54.3 115.1 L 59.77677087783813 109.53765459060669 L 59.8 107.9 L 60.0 94.8 L 60.133953380584714 86.69582109451294 L 60.1 86.7 L 53.4 87.0 L 46.5 86.8 L 39.5 86.0 L 32.4 84.8 L 25.0 83.0 L 28.8 69.5 L 35.3 71.1 L 41.5 72.2 L 47.5 72.8 L 53.3 73.0 L 58.8 72.8 L 60.38051338195801 72.59125299453736 L 60.4 71.5 L 60.6 61.3 L 60.8 52.1 L 60.934736824035646 46.5084210395813 L 60.9 46.3 L 60.7 45.9 L 60.2 45.4 L 59.2 44.7 L 57.6 44.1 L 55.6 43.6 L 53.3 43.2 L 50.9 43.2 L 48.5 43.3 L 46.3 43.6 L 43.6 29.9 L 47.1 29.4 L 50.7 29.2 Z M 58.5 130.8 L 48.862121200561525 140.43787879943847 L 50.6 141.8 L 54.1 144.7 L 57.4 147.7 L 59.241473484039304 149.60285596847535 L 59.4 137.0 L 59.49617805480957 129.7866464614868 Z M 124.0 101.9 L 123.5 102.8 L 123.3 103.2 L 123.3 103.3 L 123.5 103.6 L 124.1 104.4 L 125.2 105.4 L 127.1 106.7 L 129.6 108.1 L 132.7 109.5 L 127.2 122.4 L 123.3 120.6 L 119.7 118.6 L 116.6 116.5 L 113.9 114.0 L 111.6 111.2 L 110.0 107.8 L 109.3 104.1 L 109.6 100.3 L 110.8 96.8 L 112.7 93.6 Z M 128.7 22.1 L 133.6 24.8 L 136.38571424484252 30.0 L 137.0 30.0 L 136.5 34.5 L 136.3724299430847 34.95140190124512 L 136.3 36.4 L 135.43084115982055 38.28317756652832 L 135.2 39.1 L 133.1 43.8 L 130.5 48.7 L 127.1 53.8 L 123.1 59.2 L 118.5 64.9 L 114.29281120300293 69.74223613739014 L 120.8 69.3 L 130.4 68.9 L 139.2 68.7 L 147.3 68.7 L 154.6 68.9 L 161.3 69.4 L 167.2 70.1 L 172.5 71.0 L 177.2 72.3 L 172.7 85.6 L 169.4 84.7 L 165.2 83.9 L 160.0 83.3 L 154.0 82.9 L 147.1 82.7 L 139.4 82.7 L 130.9 82.9 L 121.6 83.3 L 111.5 84.0 L 100.5 84.8 L 100.43385829925538 84.03385829925537 L 90.7 74.3 L 97.1 67.7 L 102.8 61.6 L 107.8 55.9 L 112.1 50.6 L 115.6 45.8 L 118.5 41.4 L 120.6 37.6 L 121.45034198760986 35.59562244415283 L 121.4 35.6 L 118.4 36.3 L 115.0 37.6 L 111.5 39.5 L 108.1 41.8 L 99.4 30.8 L 104.2 27.5 L 109.2 24.9 L 114.2 23.0 L 119.1 21.8 L 123.9 21.4 Z " />
</g>
</svg>
