<svg xmlns="http://www.w3.org/2000/svg" xmlns:xlink="http://www.w3.org/1999/xlink" version="1.1" baseProfile="full" viewBox="0 0 200 200" width="200" height="200">
<g fill="black">
<path d="M 83.7 15.7 L 87.5 16.6 L 91.2 17.7 L 94.6 19.3 L 97.8 21.1 L 100.8 23.3 L 103.4 25.9 L 105.7 28.7 L 107.7 31.8 L 109.4 35.2 L 108.89765930175781 35.414176273345944 L 108.7 53.5 L 108.83262310028076 62.032084941864014 L 121.4 59.2 L 136.9 54.9 L 153.6 49.3 L 158.3 62.6 L 141.0 68.3 L 124.9 72.8 L 109.8 76.2 L 109.10853939056396 76.30943984985352 L 109.6 92.2 L 110.3 111.2 L 110.71391973495483 126.10111017227173 L 123.4 129.2 L 136.5 134.3 L 149.6 141.1 L 162.7 149.5 L 175.5 159.6 L 166.4 170.3 L 154.5 160.9 L 142.6 153.2 L 130.8 147.0 L 119.1 142.6 L 110.94047126770019 140.57816982269287 L 111.0 145.4 L 110.5 159.3 L 109.0 170.7 L 105.60207614898681 179.53460206985474 L 105.8 179.9 L 93.2 186.2 L 91.0 181.9 L 88.6 177.8 L 86.0 173.9 L 83.3 170.1 L 80.4 166.4 L 77.4 163.0 L 74.2 159.6 L 70.9 156.5 L 67.4 153.4 L 63.8 150.6 L 63.81578950881958 150.57894735336305 L 61.5 152.2 L 57.4 155.2 L 53.2 158.5 L 49.0 161.9 L 44.7 165.6 L 40.4 169.4 L 40.25902347564697 169.24552574157715 L 35.0 174.8 L 24.9 165.1 L 33.6 155.9 L 41.5 147.3 L 48.6 139.4 L 54.8 132.2 L 60.1 125.6 L 64.7 119.7 L 68.3 114.5 L 71.1 110.1 L 73.0 106.5 L 73.3915662765503 105.48192768096924 L 73.3 104.2 L 73.2 103.3 L 72.9 102.7 L 72.6 102.3 L 72.0 101.8 L 71.0 101.2 L 69.5 100.7 L 67.3 100.3 L 64.6 100.0 L 65.3 86.0 L 69.4 86.4 L 73.1 87.2 L 76.7 88.4 L 79.9 90.2 L 82.8 92.7 L 85.1 95.7 L 86.6 99.2 L 87.3 102.8 L 87.3 106.6 L 87.13501358032227 107.82089958190917 L 87.4 107.9 L 86.97079210281372 109.03613862991332 L 86.8 110.3 L 86.51458330154419 110.24375 L 85.7 112.4 L 83.2 117.1 L 79.9 122.3 L 76.55553865432739 127.06585731506348 L 84.6 125.3 L 96.66334524154664 124.63509120941163 L 96.3 111.7 L 95.6 92.7 L 95.16400508880615 78.45749959945678 L 83.1 79.4 L 71.3 79.1 L 60.6 77.6 L 50.8 74.8 L 42.2 70.5 L 34.8 64.7 L 44.5 54.6 L 49.6 58.6 L 55.9 61.7 L 63.5 63.9 L 72.4 65.2 L 82.7 65.4 L 94.3 64.5 L 94.86627407073975 64.40781583786011 L 94.7 53.6 L 94.86860523223876 37.66680850982666 L 94.4 36.9 L 93.1 35.4 L 91.7 34.0 L 90.1 32.8 L 88.2 31.7 L 86.2 30.8 L 83.8 30.0 L 81.2 29.4 L 78.2 29.0 L 79.7 15.1 Z M 86.4 139.1 L 80.8442307472229 140.33461542129515 L 77.3 142.2 L 76.41403121948242 142.6997773170471 L 80.3 146.1 L 84.1 149.7 L 87.8 153.5 L 91.2 157.5 L 94.5 161.7 L 95.83637676239013 163.55368394851683 L 96.5 158.3 L 97.0 145.3 L 96.91521110534669 138.6016746520996 L 96.9 138.6 Z " />
</g>
</svg>
