<svg xmlns="http://www.w3.org/2000/svg" xmlns:xlink="http://www.w3.org/1999/xlink" version="1.1" baseProfile="full" viewBox="0 0 200 200" width="200" height="200">
<g fill="black">
<path d="M 140.2 19.2 L 148.8 22.9 L 155.7 28.8 L 160.4 36.7 L 162.6443459510803 45.04896688461304 L 163.0 45.0 L 163.1 54.7 L 160.9 63.8 L 156.6 71.9 L 150.8 78.9 L 143.6 84.6 L 135.5 88.8 L 126.75548362731934 91.15807180404663 L 126.7 93.1 L 126.62844457626343 95.4971076965332 L 127.0 95.6 L 132.8 99.0 L 137.3 104.6 L 137.537282371521 105.63287620544433 L 137.6 105.6 L 139.5 113.9 L 136.7 121.4 L 131.5 126.4 L 125.5 130.0 L 123.53739614486695 130.87562322616577 L 122.8 135.3 L 121.8 140.4 L 120.33362102508545 140.08959865570068 L 115.6 140.4 L 109.7 140.1 L 104.0 139.1 L 103.4047381401062 138.91600999832153 L 101.3 139.8 L 98.2 141.4 L 98.2 141.375 L 87.6 148.0 L 78.7 154.4 L 73.0 159.7 L 70.58759126663207 162.98087587356568 L 73.2 164.2 L 80.1 165.8 L 90.4 166.7 L 100.53924055099488 166.92531642913818 L 101.4 166.9 L 105.3 166.8 L 109.7 166.5 L 114.5 166.2 L 119.8 165.7 L 125.6 165.2 L 131.8 164.5 L 138.4 163.8 L 145.5 163.0 L 153.1 162.0 L 154.8 175.9 L 147.2 176.8 L 140.0 177.7 L 133.3 178.5 L 127.0 179.1 L 121.1 179.7 L 115.6 180.1 L 110.6 180.5 L 106.0 180.7 L 103.99924659729004 180.7952739715576 L 104.0 180.9 L 102.29945945739746 180.87621622085572 L 101.8 180.9 L 98.0 181.0 L 98.0 180.81608390808105 L 89.7 180.7 L 77.9 179.6 L 68.6 177.4 L 61.2 173.5 L 56.6 165.9 L 57.8 157.4 L 62.6 150.3 L 69.9 143.5 L 79.8 136.3 L 88.56688928604126 130.84658069610595 L 85.4 126.8 L 83.1 121.2 L 82.4 115.0 L 83.06287622451782 108.75002384185791 L 82.5 108.4 L 87.3 102.8 L 93.2 98.6 L 99.8 95.7 L 106.7 94.0 L 112.76750392913819 93.39324960708618 L 112.8 92.7 L 112.82462949752808 91.02519483566284 L 107.6 90.1 L 98.3 86.0 L 98.42035245895386 85.80051164627075 L 98.2 85.7 L 93.6 82.0 L 90.3 77.4 L 88.4 72.2 L 88.0 66.7 L 89.4 61.1 L 92.9 56.3 L 98.1 52.8 L 104.4 51.1 L 106.51097230911255 51.070680904388425 L 106.5 50.9 L 111.8 51.0 L 116.8 52.3 L 121.3 54.6 L 125.0 58.0 L 127.7 62.3 L 129.4 67.0 L 130.2 72.1 L 130.13197240829467 75.7734914779663 L 130.4 75.7 L 136.1 72.8 L 141.0 68.9 L 145.0 64.1 L 147.8 58.8 L 149.2 53.0 L 149.2 47.872661876678464 L 149.0 47.9 L 147.5 42.0 L 145.0 37.8 L 141.5 34.8 L 136.5 32.7 L 129.5 31.6 L 120.6 31.8 L 109.7 33.5 L 97.1 36.8 L 82.7 41.6 L 67.29119901657104 47.725237655639646 L 67.3 47.9 L 66.8243691444397 47.91080980300903 L 66.6 48.0 L 66.56449136734008 47.9167160987854 L 62.9 48.0 L 58.7 47.8 L 54.7 47.3 L 50.8 46.4 L 47.1 45.2 L 43.6 43.6 L 40.3 41.7 L 37.3 39.5 L 34.5 36.9 L 32.0 34.0 L 43.1 25.5 L 44.6 27.2 L 46.2 28.7 L 48.0 30.0 L 49.9 31.2 L 52.1 32.1 L 54.5 32.9 L 57.1 33.5 L 60.0 33.9 L 63.2 34.0 L 63.9 34.0 L 77.9 28.5 L 93.1 23.4 L 106.9 19.8 L 119.3 17.9 L 130.3 17.6 Z M 109.1 107.8 L 104.3 109.0 L 100.0 110.9 L 96.7 113.2 L 96.59172611236572 113.32239656448364 L 96.4 115.0 L 96.7 117.7 L 97.5 119.7 L 98.9 121.4 L 100.9 123.0 L 102.95 124.025 L 107.6 122.3 L 110.76282253265381 121.10746040344239 L 111.2 117.1 L 111.7 111.4 L 112.02539405822753 107.49527149200439 Z M 103.8 65.6 L 102.6 66.3 L 102.2 67.0 L 101.9 67.9 L 102.0 69.2 L 102.6 70.8 L 103.8 72.4 L 105.6 73.8 L 108.1 75.0 L 108.08688774108887 75.04152221679688 L 111.7 76.7 L 116.02053136825562 77.46654586791992 L 116.2 76.3 L 116.2 73.0 L 115.8 70.3 L 115.2 68.4 L 114.3 67.0 L 113.3 66.1 L 111.9 65.4 L 110.0 64.9 L 106.2 64.9 Z " />
</g>
</svg>
