<svg xmlns="http://www.w3.org/2000/svg" xmlns:xlink="http://www.w3.org/1999/xlink" version="1.1" baseProfile="full" viewBox="0 0 200 200" width="200" height="200">
<g fill="black">
<path d="M 156.8 33.9 L 163.0 36.0 L 167.1541247367859 38.76941652297974 L 167.4 38.5 L 168.62040815353393 39.74693880081177 L 168.7 39.8 L 168.68658046722413 39.81454963684082 L 172.0 43.2 L 175.6 48.2 L 178.0 53.6 L 179.1 59.4 L 178.8 65.2 L 177.0 70.8 L 173.9 76.0 L 169.9 80.8 L 166.52212104797363 83.84671440124512 L 168.5 85.2 L 171.8 88.4 L 174.5 92.2 L 176.5 96.4 L 177.9 101.0 L 178.7 105.8 L 178.92515420913696 109.70267305374145 L 179.0 109.7 L 178.9456174850464 110.05737047195434 L 179.0 111.0 L 178.80217390060426 111.0 L 177.6 118.9 L 173.1 126.7 L 166.7 132.8 L 159.1 137.3 L 150.6 140.5 L 148.38453369140626 140.89386072158814 L 148.2 144.4 L 147.6 151.5 L 146.9 158.1 L 146.0 164.2 L 144.9 169.8 L 143.6 175.0 L 142.0 179.7 L 140.3 183.9 L 127.6 178.0 L 128.9 174.9 L 130.1 171.1 L 131.2 166.8 L 132.2 161.8 L 133.0 156.3 L 133.7 150.2 L 134.2 143.5 L 134.27225103378296 142.18141946792602 L 132.6 142.2 L 123.8 140.4 L 115.7 136.5 L 110.30457515716553 131.02156858444215 L 109.8 131.4 L 106.5 125.1 L 104.6 117.8 L 103.5 109.6 L 103.1 100.8 L 103.4 91.8 L 104.5 83.1 L 106.4 74.9 L 109.5 67.7 L 114.7 61.7 L 114.91927728652954 61.628668785095215 L 114.9 61.6 L 121.0 58.5 L 127.7 57.7 L 134.3 59.9 L 139.2 64.5 L 142.6 70.6 L 145.0 77.9 L 146.8 86.6 L 148.0 96.8 L 148.7 108.5 L 148.9555555343628 120.0 L 149.0 120.0 L 148.9847328186035 121.3129771232605 L 149.0 122.0 L 148.97674417495728 122.0 L 148.9281355857849 126.18033895492553 L 153.1 124.7 L 158.4 121.5 L 162.2 117.9 L 164.4 114.1 L 164.96800003051757 110.4079999923706 L 164.8 107.3 L 164.3 104.1 L 163.4 101.5 L 162.4 99.3 L 161.1 97.5 L 159.6 96.0 L 157.7 94.7 L 155.3 93.6 L 152.4 92.7 L 149.0 92.0 L 150.8 78.1 L 151.14547243118287 78.16909446716309 L 151.1 78.1 L 156.0 74.5 L 159.8 71.1 L 162.5 67.9 L 164.2 65.0 L 165.0 62.5 L 165.2 60.3 L 164.7 58.0 L 163.5 55.3 L 161.3 52.2 L 159.2300950050354 50.06737060546875 L 159.2 50.1 L 157.0 48.6 L 154.0 47.6 L 150.4 47.3 L 146.1 47.6 L 141.5 48.5 L 136.9 50.0 L 132.4 51.8 L 128.3 53.8 L 124.8 55.9 L 122.1 57.8 L 113.4 46.9 L 117.1 44.2 L 121.6 41.5 L 126.6 39.0 L 132.2 36.8 L 138.0 35.0 L 144.2 33.7 L 150.5 33.3 Z M 37.0 44.2 L 40.5 47.2 L 44.2 49.8 L 48.2 52.1 L 52.6 54.2 L 57.3 55.9 L 62.3 57.4 L 67.6 58.6 L 73.3 59.4 L 79.4 60.0 L 78.5 73.9 L 78.19097948074341 73.87273349761963 L 78.2 73.9 L 77.2 74.4 L 76.4 74.9 L 75.6 75.7 L 74.8 76.9 L 73.9 78.5 L 73.1 80.5 L 72.2 82.9 L 71.53996982574463 85.12760181427002 L 80.1 76.9 L 89.8 87.0 L 79.6 96.8 L 71.14686765670777 105.34705600738525 L 72.0 107.0 L 74.0 110.8 L 76.2 115.5 L 78.3 121.2 L 79.9 128.1 L 80.69208927154541 134.7535496711731 L 81.0 134.7 L 81.5 147.4 L 78.5 158.1 L 72.6 166.4 L 64.9 172.1 L 56.2 175.1 L 47.3 175.5 L 38.7 173.4 L 31.3 168.5 L 26.2 160.5 L 25.223818874359132 152.28380908966065 L 24.9 152.3 L 25.035614204406738 150.69975271224976 L 25.0 150.4 L 25.060610485076904 150.40479650497437 L 25.4 146.4 L 27.2 140.5 L 30.1 134.3 L 34.1 127.8 L 39.1 120.7 L 45.2 113.1 L 52.3 105.0 L 55.2750846862793 101.80722618103027 L 54.9 100.0 L 54.8 94.1 L 55.9 87.4 L 56.36714563369751 87.50570449829101 L 58.0 81.7 L 58.9 78.6 L 60.0 75.5 L 61.3 72.5 L 61.75994062423706 71.61078138351441 L 58.8 71.0 L 52.8 69.2 L 47.1 67.1 L 41.7 64.5 L 36.7 61.6 L 31.9 58.2 L 27.5 54.5 L 23.4 50.4 L 33.8 41.0 Z M 55.9 122.1 L 50.3 129.2 L 45.8 135.5 L 42.4 141.0 L 40.2 145.6 L 39.1 149.2 L 38.90485439300537 151.54174757003784 L 39.4 155.8 L 41.2 158.6 L 44.2 160.5 L 48.5 161.6 L 53.5 161.3 L 58.4 159.6 L 62.7 156.5 L 65.8 152.1 L 67.6 145.8 L 67.21315851211548 137.38619832992555 L 67.0 137.4 L 66.1 130.6 L 64.9 125.2 L 63.3 120.9 L 61.5 117.2 L 61.02390689849854 116.29792890548705 Z M 125.4 71.8 L 122.94206895828248 73.07448272705078 L 121.6 74.8 L 119.8 79.2 L 118.3 85.5 L 117.4 92.9 L 117.1 100.7 L 117.4 108.4 L 118.3 115.2 L 119.7 120.4 L 120.5511326789856 122.10226535797119 L 120.7 122.0 L 123.7 125.0 L 128.1 127.1 L 133.8 128.2 L 134.9012047767639 128.2 L 134.9841269493103 121.31746034622192 L 134.7 109.1 L 134.0 98.0 L 132.9 88.7 L 131.5 81.4 L 129.7 76.0 L 128.0 72.9 L 126.9 71.7 L 126.5 71.6 Z M 53.0 19.1 L 55.8 22.1 L 58.7 24.5 L 61.7 26.4 L 64.8 27.9 L 67.9 29.0 L 71.2 29.7 L 74.8 29.9 L 78.5 29.7 L 82.5 29.1 L 85.4 42.8 L 80.0 43.7 L 74.6 43.9 L 69.4 43.5 L 64.3 42.5 L 59.4 40.9 L 54.8 38.6 L 50.4 35.7 L 46.3 32.3 L 42.4 28.3 L 38.9 23.9 L 50.2 15.6 Z " />
</g>
</svg>
