<svg xmlns="http://www.w3.org/2000/svg" xmlns:xlink="http://www.w3.org/1999/xlink" version="1.1" baseProfile="full" viewBox="0 0 200 200" width="200" height="200">
<g fill="black">
<path d="M 140.4 24.1 L 143.3 25.1 L 146.1 26.3 L 148.7 27.8 L 151.2 29.4 L 153.5 31.4 L 155.5 33.5 L 157.3 35.8 L 159.0 38.4 L 160.3 41.1 L 159.8352568626404 41.30858554840088 L 158.9 50.1 L 155.4 60.0 L 149.9 70.8 L 142.47129259109497 82.377206325531 L 143.9 86.0 L 145.8 94.1 L 146.8 103.1 L 146.8590000152588 109.0 L 147.0 109.0 L 146.88897638320924 111.99763774871826 L 146.9 113.1 L 146.84818954467772 113.09888181686401 L 146.7 117.1 L 145.9 125.1 L 144.7 132.8 L 142.9 140.4 L 140.6 147.8 L 137.7 154.9 L 134.4 161.9 L 130.5 168.6 L 126.2 175.1 L 121.3 181.4 L 121.20408725738525 181.3202220916748 L 121.1 181.7 L 117.3 180.5 L 113.5 178.7 L 109.7 176.6 L 105.9 174.1 L 102.0 171.1 L 98.0 167.7 L 94.0 164.0 L 89.8 159.8 L 85.6 155.2 L 81.9264079093933 150.92838125228883 L 71.9 160.9 L 51.5 180.4 L 41.9 170.2 L 62.2 150.8 L 80.3 132.9 L 96.2 116.3 L 109.9 101.0 L 121.4 87.2 L 125.89354839324952 81.20860214233399 L 123.6 79.0 L 120.6 77.3 L 116.8 76.2 L 112.0 76.0 L 106.40714282989502 76.5785714149475 L 103.3 77.2 L 97.5 78.6 L 91.9 80.1 L 86.4 81.8 L 81.1 83.6 L 75.9 85.6 L 70.8 87.7 L 65.9 90.0 L 61.1 92.4 L 56.5 95.0 L 49.4 82.9 L 54.5 80.1 L 59.8 77.4 L 65.2 74.9 L 70.7 72.6 L 76.3 70.4 L 82.1 68.4 L 88.1 66.6 L 94.1 65.0 L 100.3 63.5 L 106.7 62.3 L 106.74585332870484 62.541611671447754 L 111.5 62.0 L 119.0 62.4 L 125.9 64.3 L 132.0 67.8 L 133.98635711669922 69.7084608078003 L 137.8 63.8 L 142.6 54.4 L 145.3 46.8 L 145.69347829818724 43.65217390060425 L 144.9 42.7 L 143.9 41.6 L 142.7 40.6 L 141.4 39.7 L 139.9 38.8 L 138.3 38.1 L 136.5 37.5 L 134.5 37.0 L 137.4 23.3 Z M 120.5 110.2 L 106.4 125.8 L 90.49154167175293 142.39586086273192 L 91.9 141.2 L 96.0 145.9 L 99.9 150.1 L 103.7 153.9 L 107.3 157.3 L 110.7 160.2 L 114.0 162.7 L 116.5384614944458 164.39230766296387 L 118.6 161.3 L 122.0 155.4 L 124.9 149.4 L 127.3 143.1 L 129.4 136.7 L 130.9 130.1 L 132.0 123.2 L 132.7 116.2 L 132.9445255279541 110.3313868522644 L 132.8 103.9 L 132.0 96.4 L 131.99642190933227 96.38497200012208 Z M 82.2 21.6 L 83.9 23.0 L 85.8 24.3 L 88.2 25.7 L 91.0 26.9 L 94.2 28.1 L 97.8 29.3 L 101.8 30.3 L 106.2 31.2 L 111.0 32.0 L 108.9 45.9 L 103.6 45.0 L 98.7 43.9 L 94.0 42.7 L 89.7 41.4 L 85.7 39.9 L 82.0 38.2 L 78.5 36.3 L 75.4 34.2 L 72.6 31.8 L 70.2 29.2 L 81.0 20.3 Z " />
</g>
</svg>
