<svg xmlns="http://www.w3.org/2000/svg" xmlns:xlink="http://www.w3.org/1999/xlink" version="1.1" baseProfile="full" viewBox="0 0 200 200" width="200" height="200">
<g fill="black">
<path d="M 57.1 17.6 L 60.2 18.3 L 63.2 19.3 L 65.9 20.4 L 68.5 21.8 L 70.8 23.6 L 72.9 25.6 L 74.6 28.0 L 75.9 30.6 L 76.57871475219727 32.71155700683594 L 76.9 32.7 L 77.1 38.4 L 77.3 45.2 L 77.35679960250854 49.51676683425903 L 80.5 48.6 L 85.2 46.9 L 89.7 44.7 L 96.2 57.2 L 90.6 59.8 L 84.8 61.9 L 78.9 63.6 L 77.426260471344 63.89474792480469 L 77.5 70.9 L 77.43543901443482 77.74346752166748 L 82.4 75.1 L 90.4 71.1 L 98.8 67.1 L 107.6 63.2 L 110.3977370262146 62.00096979141235 L 108.3 52.6 L 107.8 42.0 L 110.5 32.6 L 119.3 26.5 L 129.76775894165038 28.08003911972046 L 129.9 27.9 L 133.4 30.4 L 136.7 32.8 L 139.8 34.9 L 142.8 36.9 L 145.6 38.6 L 148.2 40.2 L 150.6 41.6 L 154.8 43.7 L 156.3426139831543 44.42593603134155 L 156.7 44.3 L 161.2 57.6 L 150.9 61.2 L 140.9 64.8 L 131.3 68.5 L 127.63751401901246 69.97295637130738 L 128.6 72.7 L 132.56849060058593 81.54207544326782 L 139.2 78.7 L 146.4 75.9 L 153.7 73.4 L 161.1 71.2 L 174.1 76.5 L 171.4 83.4 L 169.1 89.9 L 167.2 96.0 L 165.7 101.8 L 164.5 107.2 L 163.7 112.3 L 163.2 117.0 L 163.1 121.2 L 163.3 125.1 L 163.8 128.6 L 150.1 131.3 L 150.04779930114745 130.9420524597168 L 139.2 118.9 L 129.8 105.6 L 126.65874338150024 100.11274166107178 L 125.2 100.9 L 119.0 104.5 L 112.9 108.4 L 106.9 112.5 L 104.68671627044678 114.15058450698852 L 107.0 115.5 L 110.3 117.0 L 114.3 118.6 L 118.90612773895263 120.19804430007935 L 119.2 120.0 L 126.7 131.9 L 122.7 134.5 L 119.0 137.4 L 115.4 140.3 L 112.1 143.4 L 109.0 146.7 L 106.1 150.0 L 103.5 153.6 L 101.0 157.3 L 98.7 161.1 L 98.63333330154418 161.23333330154418 L 99.1 161.7 L 100.5 162.5 L 103.0 163.4 L 106.6 164.1 L 111.3 164.5 L 116.9 164.4 L 123.5 164.0 L 130.9 163.0 L 133.0 176.9 L 124.9 177.9 L 117.5 178.4 L 110.8 178.5 L 104.8 178.0 L 99.4 177.0 L 94.5 175.2 L 90.2 172.5 L 86.8 168.7 L 84.6 164.0 L 84.0 159.0 L 84.1 159.0 L 86.5 154.3 L 89.1 149.8 L 92.0 145.5 L 95.2 141.3 L 98.6 137.3 L 102.3 133.5 L 105.71278877258301 130.17702140808106 L 104.8 129.8 L 100.7 127.9 L 97.1 126.0 L 94.1 123.8 L 91.4 121.2 L 89.4 117.7 L 88.7 113.2 L 89.9 108.9 L 92.3 105.7 L 92.82692308425904 106.22692308425903 L 92.5 105.8 L 98.8 101.1 L 105.2 96.7 L 111.8 92.5 L 118.4 88.6 L 120.05300340652465 87.72488050460815 L 115.6 77.9 L 114.71278896331788 75.35409011840821 L 113.2 76.0 L 104.7 79.8 L 96.6 83.7 L 88.8 87.6 L 81.4 91.5 L 77.3930853843689 93.75741672515869 L 77.3 105.3 L 77.1 118.7 L 77.0 133.0 L 63.0 132.9 L 63.00617761611939 132.01660232543946 L 62.2 131.3 L 60.0 129.5 L 57.5 127.7 L 54.6 125.8 L 51.3 123.9 L 47.6 122.0 L 43.6 120.0 L 39.2 117.9 L 34.4 115.9 L 29.3 113.8 L 34.4 100.8 L 34.56069326400757 100.86546764373779 L 40.3 97.6 L 45.7 94.5 L 50.7 91.8 L 55.2 89.2 L 59.3 86.9 L 63.1 84.9 L 63.4 84.73636360168457 L 63.4 81.4 L 63.5 71.0 L 63.44319362640381 65.60339069366455 L 60.4 65.7 L 54.0 65.5 L 47.5 64.8 L 40.8 63.6 L 34.1 62.0 L 37.8 48.5 L 43.7 49.9 L 49.4 50.9 L 55.0 51.5 L 60.4 51.7 L 63.38249940872193 51.58745288848877 L 63.3 45.4 L 63.1 38.8 L 63.056190490722656 36.34666662216186 L 62.9 35.8 L 62.3 34.8 L 61.7 34.2 L 60.9 33.6 L 59.8 33.0 L 58.4 32.4 L 56.6 31.9 L 54.5 31.4 L 52.1 31.0 L 53.8 17.1 Z M 62.0 101.5 L 57.5 104.0 L 52.5 106.8 L 50.67079648971558 107.83539819717407 L 54.0 109.5 L 58.1 111.7 L 61.9 113.9 L 63.157999992370605 114.71400003433227 L 63.3 105.2 L 63.33588228225708 100.75060262680054 Z M 151.2 89.1 L 144.5 91.6 L 139.21828002929686 93.95645971298218 L 141.6 98.1 L 149.9083562850952 109.78966407775879 L 150.7 104.6 L 152.1 98.5 L 153.8 92.1 L 155.11650676727294 87.75552749633789 Z M 121.7 43.1 L 122.2 50.6 L 123.49061374664306 56.583754539489746 L 126.2 55.5 L 136.0 51.7 L 138.51820449829103 50.78653364181518 L 138.2 50.6 L 135.2 48.6 L 132.0 46.5 L 128.7 44.3 L 125.2 41.8 L 123.78709678649902 40.779569911956784 L 122.38252429962158 40.3699028968811 Z " />
</g>
</svg>
