<svg xmlns="http://www.w3.org/2000/svg" xmlns:xlink="http://www.w3.org/1999/xlink" version="1.1" baseProfile="full" viewBox="0 0 200 200" width="200" height="200">
<g fill="black">
<path d="M 104.2 16.7 L 107.5 17.4 L 110.8 18.4 L 113.9 19.6 L 116.9 21.0 L 119.8 22.6 L 122.6 24.5 L 125.2 26.5 L 127.7 28.8 L 130.1 31.2 L 120.07375411987304 40.447508335113525 L 120.2 40.7 L 117.7 42.1 L 114.6 44.1 L 111.3 46.7 L 108.2 49.5 L 105.5 52.5 L 103.5 55.2 L 102.5 57.3 L 102.3 58.4 L 102.34358978271484 58.48717947006226 L 102.5 58.4 L 102.82168674468994 59.021686744689944 L 103.2 59.4 L 103.09197244644164 59.54403667449951 L 108.41349010467529 69.82831802368165 L 117.4 68.3 L 131.2 69.0 L 143.3 74.5 L 142.95450077056884 74.93286685943603 L 144.0 79.4 L 144.3 84.2 L 143.8 89.0 L 142.5 93.9 L 140.6 98.7 L 138.0 103.5 L 134.9 108.3 L 131.1 113.1 L 127.8385754585266 116.73204097747802 L 127.9 116.8 L 126.88269891738892 117.79653978347778 L 126.7 118.0 L 124.87588548660278 119.861341381073 L 124.9 120.0 L 125.3 133.0 L 125.1726315498352 133.84912281036378 L 127.2 134.6 L 134.9 136.4 L 144.9 138.0 L 143.0 151.9 L 132.3 150.2 L 123.3 148.0 L 122.62126293182374 147.7582580566406 L 119.9 156.3 L 114.4 166.6 L 107.3 176.2 L 98.7 185.1 L 89.76379823684692 175.4112759590149 L 89.6 175.6 L 87.5 173.6 L 85.0 170.9 L 81.9 167.6 L 78.3 163.4 L 74.2 158.6 L 69.4 152.9 L 64.1 146.4 L 58.1 139.2 L 51.6 131.2 L 45.62105264663696 123.70526313781738 L 41.7 119.0 L 43.3 107.4 L 50.5 98.1 L 60.8 89.7 L 73.6 82.1 L 87.9 75.6 L 94.54833068847657 73.44378461837769 L 90.79396390914917 66.15852518081665 L 90.2 65.5 L 88.4 59.1 L 89.2 53.1 L 91.5 48.0 L 94.7 43.6 L 98.4 39.5 L 102.4 35.9 L 106.4 32.8 L 107.43943662643433 32.10704221725464 L 106.2 31.6 L 104.0 31.0 L 101.6 30.4 L 99.1 30.0 L 100.8 16.1 Z M 92.9 88.6 L 80.1 94.5 L 68.8 101.2 L 60.3 108.1 L 55.8 113.7 L 55.70387506484985 113.9723539352417 L 62.5 122.3 L 69.0 130.3 L 74.9 137.5 L 80.2 143.9 L 84.9 149.5 L 88.9 154.3 L 92.4 158.3 L 95.2 161.4 L 97.4 163.7 L 98.43157892227173 164.65789470672607 L 102.6 159.1 L 107.0 150.8 L 109.9 141.9 L 109.92690153121949 141.7136109352112 L 105.6 136.6 L 103.8 130.0 L 105.0 123.4 L 108.2 117.7 L 109.96045017242432 115.50921754837036 L 108.9 109.5 L 104.9 96.2 L 100.65398035049438 86.13282442092896 Z M 114.47841501235962 82.96953887939453 L 118.0 91.4 L 121.43145656585693 102.68567934036255 L 123.5 100.1 L 126.0 96.3 L 127.9 92.7 L 129.3 89.4 L 130.0 86.5 L 130.3 83.8 L 130.28969697952272 83.55272731781005 L 128.3 82.7 L 118.4 82.3 Z " />
</g>
</svg>
