<svg xmlns="http://www.w3.org/2000/svg" xmlns:xlink="http://www.w3.org/1999/xlink" version="1.1" baseProfile="full" viewBox="0 0 200 200" width="200" height="200">
<g fill="black">
<path d="M 134.7 18.3 L 138.4 22.1 L 140.4 26.4 L 141.5 31.3 L 141.75249395370483 34.70866899490356 L 141.8 34.7 L 141.78024320602418 35.08328266143799 L 141.9 36.7 L 141.69652996063232 36.70731906890869 L 141.3 44.4 L 139.58888893127443 50.15555553436279 L 148.2 49.6 L 157.0 49.5 L 165.4 49.6 L 173.4 50.1 L 180.9 51.0 L 179.0 64.9 L 172.1 64.1 L 164.8 63.6 L 157.0 63.5 L 148.7 63.6 L 140.0 64.1 L 134.09780321121215 64.67738885879517 L 132.6 68.2 L 125.6 81.7 L 117.69542646408081 94.21557474136353 L 118.0 95.6 L 118.3 100.9 L 117.9 106.7 L 117.77138786315918 106.68612098693848 L 117.5 109.4 L 116.6 113.4 L 115.3 117.3 L 113.6 121.0 L 111.5 124.5 L 109.55594158172607 127.06615705490113 L 112.7 128.4 L 115.8 130.2 L 118.6 132.4 L 121.0 135.1 L 123.0 138.1 L 124.12937059402466 140.58461542129515 L 124.4 140.7 L 124.28292684555053 140.92243900299073 L 124.5 141.4 L 123.91086406707764 141.62935829162598 L 122.4 144.5 L 119.8 148.1 L 116.7 151.5 L 113.0 154.9 L 108.9 158.2 L 104.1 161.5 L 98.9 164.8 L 93.1 168.1 L 88.95048713684082 170.30442867279052 L 94.6 170.8 L 102.2 170.9 L 111.5 170.5 L 122.4 169.5 L 135.0 168.0 L 136.9 181.9 L 123.9 183.4 L 112.4 184.4 L 102.4 184.9 L 93.9 184.8 L 86.7 184.1 L 80.6 182.6 L 75.3 179.7 L 71.4 174.3 L 71.1 167.6 L 73.5 162.1 L 73.99888887405396 162.41286249160765 L 73.9 162.2 L 80.4 159.0 L 86.4 155.9 L 91.7 152.8 L 96.4 149.8 L 100.5 147.0 L 104.0 144.2 L 106.8 141.6 L 107.1235294342041 141.2470588684082 L 106.7 141.0 L 105.2 140.4 L 103.3 139.9 L 101.1 139.7 L 98.6 139.6 L 95.7 139.8 L 95.6362416267395 139.20917224884033 L 95.5 139.3 L 88.1 127.5 L 91.1 125.4 L 93.8 123.3 L 96.2 121.1 L 98.2 118.9 L 99.9 116.7 L 101.2 114.4 L 101.93576154708862 112.79470195770264 L 97.5 117.1 L 86.2 123.9 L 73.5 125.2 L 62.24980125427246 118.86585445404053 L 62.0 118.9 L 61.98622283935547 118.71745319366455 L 61.6 118.5 L 61.94481801986694 118.16883821487427 L 61.6 113.6 L 61.9 108.4 L 62.8 103.5 L 64.5 98.7 L 66.8 94.3 L 69.8 90.3 L 73.3 86.6 L 77.5 83.4 L 82.1 80.5 L 87.2 77.9 L 87.61310949325562 78.83493204116822 L 87.4 77.9 L 92.9 76.9 L 98.1 76.7 L 103.1 77.4 L 107.7 79.2 L 109.69815835952758 80.61333150863648 L 113.4 74.7 L 117.67198972702026 66.60911045074462 L 111.0 67.6 L 103.2823694229126 68.91054105758667 L 103.3 69.0 L 93.6 70.9 L 84.1 72.5 L 74.9 74.0 L 66.0 75.2 L 57.4 76.2 L 49.1 77.0 L 41.1 77.6 L 33.4 77.9 L 25.9 78.0 L 18.7 77.9 L 19.2 64.0 L 25.9 64.0 L 32.9 63.9 L 40.3 63.6 L 48.0 63.0 L 56.0 62.3 L 64.3 61.3 L 72.9 60.1 L 81.8 58.7 L 86.8798318862915 57.82605037689209 L 97.8 55.7 L 108.7 53.8 L 119.2 52.2 L 124.53073368072509 51.566645526885985 L 124.9 50.7 L 127.6 41.5 L 128.1 37.2 L 128.12455196380614 37.19551973342895 L 128.0 37.2 L 127.6 33.3 L 127.19661493301392 31.202397727966307 L 124.8 32.9 L 121.6 35.8 L 119.43584909439087 38.13962268829346 L 119.0 38.7 L 117.6 40.4 L 116.3 42.0 L 113.9 45.2 L 111.7 48.2 L 110.6 49.6 L 109.6 51.0 L 109.20544242858887 50.717175579071046 L 96.1 53.3 L 94.9 47.9 L 93.6 43.4 L 92.2 39.8 L 90.8 37.2 L 89.6 35.6 L 88.7 34.9 L 88.3 34.7 L 87.8 34.6 L 86.9 34.8 L 85.3 35.6 L 78.4 23.4 L 82.6 21.5 L 87.2 20.6 L 91.9 21.2 L 96.2 23.1 L 99.8 26.0 L 102.6 29.7 L 104.89751892089843 33.99536142349243 L 105.3 33.5 L 106.6 31.8 L 107.47929515838624 30.669477653503417 L 107.4 30.6 L 108.28965520858765 29.62758617401123 L 109.4 28.2 L 110.9 26.4 L 111.097980594635 26.55802116394043 L 111.7 25.9 L 115.9 22.1 L 120.0 19.2 L 124.3 17.2 L 129.4 16.5 Z M 94.4 90.9 L 91.87005987167359 91.28922157287597 L 88.9 92.7 L 85.5 94.8 L 82.7 97.0 L 80.4 99.4 L 78.7 101.8 L 77.3 104.3 L 76.4 107.1 L 75.8 110.1 L 75.72895088195801 111.27231073379517 L 76.1 111.5 L 81.3 110.8 L 88.7 106.2 L 97.2 97.9 L 101.81675128936767 91.97969541549682 L 101.2 91.5 L 99.8 91.0 L 97.5 90.7 Z M 71.8 24.9 L 70.3 28.4 L 69.1 31.7 L 68.3 34.7 L 67.8 37.5 L 67.6 40.1 L 67.7 42.3 L 68.0 44.4 L 68.6 46.3 L 69.4 48.1 L 70.6 49.8 L 59.4 58.2 L 57.2 54.9 L 55.6 51.4 L 54.4 47.6 L 53.8 43.8 L 53.6 39.8 L 53.9 35.8 L 54.6 31.6 L 55.8 27.5 L 57.3 23.2 L 59.2 18.8 Z " />
</g>
</svg>
