<svg xmlns="http://www.w3.org/2000/svg" xmlns:xlink="http://www.w3.org/1999/xlink" version="1.1" baseProfile="full" viewBox="0 0 200 200" width="200" height="200">
<g fill="black">
<path d="M 87.8 49.0 L 92.0 50.6 L 95.5 53.1 L 98.7 56.3 L 101.6 60.2 L 104.4 64.6 L 106.62727270126342 68.73636360168457 L 106.7 68.7 L 107.16956520080566 69.74347829818726 L 107.2 69.8 L 107.1959243774414 69.80205411911011 L 108.5 72.7 L 110.4 77.1 L 112.5 81.9 L 114.5 86.9 L 116.7 91.9 L 118.9 96.8 L 121.1 101.4 L 123.3 105.5 L 125.3 108.9 L 127.2 111.3 L 127.05973281860352 111.42423667907715 L 127.8 112.0 L 128.8 112.5 L 129.9 112.9 L 131.3 113.2 L 132.9 113.3 L 134.9 113.2 L 137.2 112.9 L 139.8 112.3 L 140.60442733764648 112.01270456314087 L 140.6 112.0 L 140.91999998092652 111.9 L 142.6 111.3 L 142.62386798858643 111.36754121780396 L 147.0 110.0 L 153.0 108.7 L 158.7 107.9 L 164.0 107.8 L 169.0 108.5 L 173.7 110.1 L 177.9 112.7 L 181.4 116.2 L 184.0 120.4 L 185.43926219940187 124.46379919052124 L 185.9 124.5 L 185.1 128.4 L 183.6 132.0 L 181.5 135.4 L 178.9 138.5 L 175.8 141.5 L 172.2 144.4 L 168.1 147.1 L 163.5 149.9 L 158.5 152.6 L 152.9 155.3 L 147.0 142.6 L 152.1 140.1 L 156.6 137.7 L 160.5 135.3 L 163.9 133.1 L 166.6 130.9 L 168.7 128.9 L 170.2 127.1 L 171.04516124725342 125.83225803375244 L 170.4 124.8 L 169.3 123.7 L 167.8 122.9 L 165.9 122.2 L 163.2 121.8 L 159.7 121.9 L 155.5 122.4 L 150.7 123.5 L 147.28436040878296 124.55574312210084 L 147.3 124.6 L 143.5 125.7 L 139.9 126.6 L 136.3 127.1 L 132.8 127.3 L 129.4 127.1 L 126.1 126.4 L 123.0 125.3 L 120.0 123.6 L 117.4 121.6 L 115.1 119.1 L 115.38292570114136 118.87417850494384 L 113.8 116.8 L 111.1 112.4 L 108.6 107.7 L 106.1 102.7 L 103.8 97.5 L 101.6 92.3 L 99.5 87.3 L 97.6 82.6 L 95.7 78.4 L 94.1 75.0 L 94.11052627563477 74.99473686218262 L 92.3 71.6 L 90.1 68.1 L 88.1 65.4 L 86.4 63.7 L 85.2 62.9 L 84.8625 62.73125 L 84.3 63.2 L 83.39671669006347 64.1785569190979 L 83.5 64.3 L 77.8 69.6 L 72.3 75.4 L 67.1 81.4 L 62.3 87.5 L 57.8 93.4 L 53.7 99.0 L 49.9 104.2 L 46.4 108.6 L 43.2 112.3 L 39.5 115.4 L 38.93932189941406 114.49836912155152 L 39.0 114.9 L 35.4 115.1 L 31.9 114.8 L 28.4 113.9 L 25.2 112.2 L 22.4 110.0 L 20.1 107.3 L 18.1 104.3 L 16.5 100.9 L 15.3 97.3 L 14.3 93.4 L 28.0 90.5 L 28.7 93.4 L 29.5 95.7 L 30.4 97.6 L 31.3 99.0 L 32.1 99.9 L 32.8 100.5 L 33.5 100.8 L 34.4 101.1 L 34.444444465637204 101.1 L 35.6 99.8 L 38.7 95.7 L 42.4 90.8 L 46.6 85.1 L 51.2 78.9 L 56.3 72.5 L 61.9 66.0 L 67.9 59.7 L 72.42399997711182 55.4543999671936 L 75.1 52.6 L 78.7 50.2 L 83.1 48.8 Z " />
</g>
</svg>
