<svg xmlns="http://www.w3.org/2000/svg" xmlns:xlink="http://www.w3.org/1999/xlink" version="1.1" baseProfile="full" viewBox="0 0 200 200" width="200" height="200">
<g fill="black">
<path d="M 80.7 19.1 L 82.78540544509887 21.706756782531738 L 82.8 21.7 L 82.83405408859252 21.767567539215086 L 83.1 22.1 L 83.02714395523071 22.15068244934082 L 89.1 34.2 L 82.7 37.1 L 77.0596360206604 39.12700576782227 L 76.9 42.2 L 76.85471696853638 44.6 L 79.5 44.6 L 84.8 45.0 L 83.1 58.9 L 82.06909093856811 58.801818180084226 L 82.6 59.2 L 80.3 62.3 L 78.0 65.6 L 76.7169665336609 67.60822620391846 L 76.89213266372681 82.14701251983642 L 77.0 82.2 L 76.89548168182372 82.42498006820679 L 76.9 82.8 L 76.71944952011108 82.80389680862427 L 71.1 94.9 L 64.9 91.8 L 63.77436351776123 91.1969804763794 L 62.0 94.9 L 60.51351346969604 98.27837839126587 L 60.2 101.1 L 60.8 103.5 L 62.3 105.9 L 65.0 109.0 L 66.15492687225341 110.12371263504028 L 71.5 102.7 L 81.6 89.2 L 92.8 74.5 L 103.9 83.0 L 92.8 97.6 L 82.8 111.0 L 75.68510284423829 120.83294782638549 L 77.1 122.8 L 80.5 130.1 L 82.6 138.9 L 82.9 149.4 L 82.7535912513733 149.39052028656005 L 80.9 157.0 L 78.3 163.9 L 74.7 169.8 L 70.0 174.5 L 64.3 177.8 L 57.9 179.4 L 51.1 179.4 L 44.2 178.0 L 36.9 175.4 L 29.4 171.5 L 29.41622142791748 171.4715537071228 L 29.1 171.4 L 30.8 166.2 L 33.5 160.3 L 37.2 153.4 L 41.9 145.5 L 47.7 136.5 L 54.6 126.4 L 57.981626987457275 121.60579471588134 L 55.1 118.8 L 51.3 114.5 L 48.0 109.0 L 46.3 102.1 L 46.9 94.4 L 48.01640195846558 94.65261650085449 L 47.0 94.2 L 49.3 89.0 L 51.7 84.0 L 51.708138370513915 83.98338422775268 L 49.7 82.6 L 45.6 79.4 L 42.2 76.1 L 39.2 72.6 L 36.8 69.0 L 35.0 65.1 L 34.0 60.9 L 34.36348667144775 60.85031480789185 L 38.9 57.3 L 43.7 54.2 L 48.5 51.5 L 53.5 49.2 L 58.5 47.4 L 62.81858158111572 46.23730497360229 L 62.89146671295166 42.265066623687744 L 57.7 42.6 L 51.7 42.3 L 45.8 41.3 L 40.0 39.7 L 34.5 37.4 L 29.1 34.4 L 36.5 22.5 L 40.5 24.8 L 44.6 26.5 L 48.8 27.7 L 53.1 28.4 L 57.6 28.6 L 62.2 28.3 L 63.90877599716187 28.021016120910645 L 64.0 27.2 L 65.1 22.3 L 68.4 17.3 L 76.6 16.1 Z M 143.3 33.9 L 146.8 35.3 L 149.78561773300171 37.10946531295777 L 149.8 37.1 L 149.8147096633911 37.12709674835205 L 150.1 37.3 L 149.9899248123169 37.449861431121825 L 151.7 40.6 L 153.1 44.4 L 153.8 48.3 L 153.9 52.4 L 153.5 56.6 L 152.6 60.8 L 151.2 65.1 L 149.4 69.6 L 147.1 74.1 L 144.4 78.7 L 144.3663338661194 78.67963056564331 L 142.7 82.1 L 141.3 85.7 L 140.5 88.8 L 140.2 91.4 L 140.3 93.5 L 140.7 95.2 L 141.4 96.6 L 142.4 98.0 L 143.62597398757936 99.07272729873657 L 147.2 101.4 L 150.4 105.5 L 152.0 110.5 L 152.0 115.5 L 150.7 120.5 L 148.6 125.6 L 145.7 130.8 L 141.9 136.4 L 137.3 142.4 L 132.52672815322876 148.05721111297606 L 132.7 148.2 L 129.7 152.5 L 128.5 155.2 L 128.5 156.2 L 128.8 156.7 L 130.6 158.0 L 134.8 159.6 L 141.4 161.0 L 150.1 161.9 L 160.9 162.2 L 173.7 162.0 L 174.2 175.9 L 160.9 176.2 L 149.2 175.9 L 139.3 174.9 L 130.9 173.1 L 124.0 170.3 L 118.3 166.0 L 114.9 159.5 L 114.9 152.3 L 117.5 145.6 L 121.58020257949829 139.7578917503357 L 121.4 139.6 L 126.4 133.6 L 130.5 128.2 L 133.8 123.4 L 136.1 119.3 L 137.5 116.0 L 138.1 113.6 L 138.1 112.4 L 138.0111110687256 112.04444446563721 L 135.7 110.6 L 132.2 107.6 L 129.4 103.9 L 127.5 99.8 L 126.4 95.4 L 126.2 90.8 L 126.7 86.1 L 128.0 81.3 L 129.9 76.5 L 132.3 71.5 L 134.30588903427125 72.59263877868652 L 132.5 71.5 L 134.8 67.5 L 136.6 63.7 L 138.1 60.3 L 139.1 57.2 L 139.7 54.4 L 139.9 51.9 L 139.9 49.8 L 139.5 47.9 L 139.3343373298645 47.36987953186035 L 138.4 47.2 L 137.2 47.2 L 135.7 47.5 L 134.0 48.1 L 132.0 49.2 L 129.8 50.7 L 127.3 52.7 L 124.6 55.2 L 114.7 45.3 L 118.1 42.1 L 121.5 39.4 L 124.9 37.1 L 128.4 35.3 L 132.0 34.0 L 135.7 33.3 L 139.5 33.3 Z M 66.1 134.4 L 59.4 144.3 L 53.8 152.9 L 49.3 160.4 L 47.23243246078491 164.28452091217042 L 48.1 164.6 L 52.6 165.5 L 56.2 165.5 L 59.0 164.8 L 61.4 163.5 L 63.6 161.2 L 65.7 157.7 L 67.6 152.9 L 68.95398225784302 147.30353984832763 L 68.7 140.7 L 67.4 134.7 L 66.77191009521485 133.44382019042968 Z M 58.8 62.2 L 54.9 64.0 L 51.739137172698975 65.78305082321167 L 52.3 66.4 L 54.8 68.8 L 58.0 71.3 L 58.151413917541504 71.40359897613526 L 58.9 70.0 L 61.4 65.8 L 62.7 63.63333330154419 L 62.7 60.7375 Z " />
</g>
</svg>
