<svg xmlns="http://www.w3.org/2000/svg" xmlns:xlink="http://www.w3.org/1999/xlink" version="1.1" baseProfile="full" viewBox="0 0 200 200" width="200" height="200">
<g fill="black">
<path d="M 70.7 13.0 L 74.0 14.0 L 77.1 15.2 L 79.9 16.8 L 82.5 18.7 L 84.8 21.0 L 86.6 23.7 L 87.9 26.6 L 88.7 29.7 L 89.0 33.0 L 88.575 33.0 L 87.6 35.7 L 85.8 38.4 L 83.5 41.1 L 80.7 43.9 L 80.51538457870484 44.06832580566406 L 81.9 43.6 L 89.2 41.2 L 96.9 38.5 L 105.1 35.7 L 112.72536058425904 33.039990520477296 L 112.7 32.9 L 113.47005348205566 32.78021392822266 L 113.7 32.7 L 113.71499443054199 32.74211196899414 L 117.2 32.2 L 121.7 31.9 L 125.9 31.9 L 130.0 32.3 L 134.0 33.1 L 137.8 34.4 L 141.3 36.0 L 144.6 38.1 L 147.6 40.6 L 150.3 43.5 L 149.3684639930725 44.27482900619507 L 149.4 44.3 L 146.4 47.4 L 142.6 50.4 L 137.8 53.7 L 132.0 57.4 L 125.1 61.4 L 117.1 65.9 L 109.25531816482544 70.03785419464111 L 109.75326089859009 79.2 L 110.6 79.2 L 124.56872968673706 79.00325736999511 L 124.6 79.0 L 124.60014171600342 79.0028148651123 L 124.8 79.0 L 124.95 85.95 L 125.3 92.9 L 122.1 93.3 L 117.8 94.2 L 112.6 95.6 L 110.32133760452271 96.30974731445312 L 110.4 99.0 L 110.4 111.61473684310913 L 111.1 111.6 L 133.6 111.0 L 159.6 110.0 L 160.3 123.9 L 134.1 125.0 L 111.4 125.6 L 109.93718280792237 125.63047533035278 L 109.8 128.9 L 108.8 141.7 L 107.3 153.3 L 105.2 163.5 L 102.5 172.4 L 99.2 180.1 L 95.1 186.5 L 84.1 177.8 L 86.8 173.6 L 89.4 167.6 L 91.6 160.1 L 93.5 151.0 L 94.9 140.3 L 95.9 128.1 L 95.97951602935791 125.92126007080078 L 92.2 126.0 L 76.3 125.9 L 63.8 125.5 L 54.5 124.7 L 47.8 123.3 L 41.3 115.7 L 46.4 107.4 L 47.3625 106.9875 L 58.0 102.1 L 68.3 97.5 L 77.9 93.4 L 80.52926826477051 92.32439022064209 L 80.2 92.3 L 74.0 91.4 L 68.7 89.5 L 64.1 82.0 L 67.8 75.0 L 72.5 72.1 L 78.7 69.7 L 78.74102430343628 69.81772193908691 L 80.2 69.1 L 86.9375 65.73125 L 86.6 65.6 L 84.7 64.9 L 87.47831163406372 56.50192174911499 L 86.3 56.9 L 79.4 59.2 L 72.8 61.3 L 66.7 63.2 L 61.0 64.9 L 55.6 66.4 L 51.61721105575562 67.45665826797486 L 50.9 68.0 L 42.6 56.7 L 49.0 51.9 L 54.8 47.5 L 59.9 43.4 L 64.3 39.8 L 68.0 36.6 L 71.0 33.8 L 73.2 31.5 L 74.26329116821289 30.294936752319337 L 74.0 29.9 L 73.4 29.3 L 72.4 28.6 L 71.1 27.9 L 69.4 27.2 L 67.3 26.6 L 64.7 26.0 L 67.2 12.2 Z M 91.8 102.9 L 83.3 106.3 L 73.9 110.3 L 70.74320192337036 111.706494140625 L 76.5 111.9 L 92.1 112.0 L 96.4 111.90947370529175 L 96.4 101.1307692527771 Z M 91.8235294342041 78.98823528289795 L 95.73145427703858 79.11035795211792 L 95.63072776794434 77.08463611602784 Z M 122.1 45.9 L 118.8 46.1 L 116.90322580337525 46.41612901687622 L 109.7 48.9 L 101.5 51.8 L 95.05 53.95 L 96.2 54.5 L 98.4 55.6 L 102.34905662536622 57.85660381317139 L 110.5 53.6 L 118.2 49.3 L 123.95384616851807 45.9 Z " />
</g>
</svg>
