<svg xmlns="http://www.w3.org/2000/svg" xmlns:xlink="http://www.w3.org/1999/xlink" version="1.1" baseProfile="full" viewBox="0 0 200 200" width="200" height="200">
<g fill="black">
<path d="M 97.7 19.6 L 103.0 24.7 L 106.5 31.0 L 108.1 38.1 L 107.9 45.7 L 106.3295636177063 52.679717254638675 L 106.7 52.4 L 110.07657413482666 49.89883403778076 L 110.0 49.8 L 112.99162015914916 47.7586591720581 L 117.8 44.3 L 117.88621959686279 44.41881484985352 L 118.5 44.0 L 127.0 39.9 L 135.3 37.4 L 143.5 36.6 L 151.2 37.6 L 158.4 40.2 L 164.7 44.3 L 169.9 49.9 L 173.9 56.6 L 175.73163070678712 61.75570116043091 L 175.9 61.7 L 176.0091603279114 62.53689565658569 L 176.6 64.2 L 176.23823070526123 64.29310235977172 L 177.4 73.2 L 175.0 84.1 L 169.5 93.7 L 161.8 102.1 L 152.5 109.0 L 142.2 114.4 L 131.1 118.2 L 127.75841274261475 118.72761907577515 L 127.7 119.1 L 127.7 123.1 L 128.5 125.7 L 130.3 127.7 L 135.0 129.7 L 144.1 131.0 L 143.50915212631224 142.7325499534607 L 144.6 144.2 L 140.0 147.8 L 137.7 149.8 L 133.3 153.8 L 131.2 156.0 L 129.2 158.2 L 127.1 160.5 L 125.2 162.8 L 124.07878789901733 164.1454545021057 L 123.59764709472657 165.1764705657959 L 124.0 165.4 L 127.2 166.5 L 132.7 167.4 L 140.6 167.7 L 150.6 167.3 L 163.0 166.0 L 164.8 179.9 L 151.7 181.3 L 140.6 181.7 L 131.4 181.4 L 123.8 180.1 L 117.6 177.9 L 112.5 174.0 L 109.6 168.1 L 109.9 161.7 L 112.24286613464355 156.73312377929688 L 112.2 156.7 L 112.34863014221192 156.50890407562255 L 112.4 156.4 L 112.96999998092652 155.71000003814697 L 114.3 154.0 L 116.5 151.3 L 121.1 146.3 L 123.5 143.9 L 126.0 141.5 L 126.53610181808472 141.00857334136964 L 122.3 139.1 L 116.3 132.5 L 113.8 124.9 L 113.8 119.73660717010497 L 108.5 119.5 L 105.51676645278931 118.59940118789673 L 105.5 118.7 L 96.3 115.8 L 90.1 109.3 L 89.7 100.7 L 93.4 94.4 L 98.7 89.7 L 105.0 86.5 L 112.2 84.8 L 120.1 85.8 L 127.1 91.1 L 128.0983221054077 93.7132550239563 L 129.9 96.0 L 130.24936552047728 99.34392747879028 L 130.5 100.0 L 130.32049255371095 100.02471475601196 L 130.6 102.7 L 130.4489574432373 103.67338514328003 L 136.6 101.6 L 145.1 97.1 L 152.5 91.6 L 158.3 85.4 L 162.0 78.9 L 163.5 72.5 L 162.70526313781738 66.84853801727294 L 161.2 62.5 L 158.7 58.3 L 155.6 55.0 L 152.1 52.7 L 148.0 51.2 L 143.4 50.6 L 138.0 51.2 L 132.1 52.9 L 125.6 56.1 L 121.1384614944458 59.15934066772461 L 120.4 59.7 L 115.1 63.6 L 110.3 67.2 L 106.0 70.7 L 102.0 73.9 L 98.4 76.9 L 95.3 79.7 L 92.6 82.3 L 90.3 84.6 L 89.2305154800415 85.78206186294555 L 85.6 91.1 L 74.2 82.8 L 77.71434574127197 77.7120665550232 L 77.7 77.7 L 77.79010238647462 77.60238904953003 L 80.9 73.1 L 86.2 64.3 L 90.1 56.5 L 92.7 49.6 L 94.0 43.9 L 94.1 39.3 L 93.4 35.9 L 91.9 33.3 L 89.4 30.9 L 85.6 28.8 L 91.2 15.9 Z M 66.5 29.3 L 67.1 35.4 L 66.7 41.6 L 65.3 47.8 L 62.9 54.0 L 59.8 60.3 L 55.7 66.6 L 50.9 72.9 L 45.3 79.4 L 39.991207122802734 84.79046659469604 L 40.0 84.8 L 38.4 86.4 L 37.5 87.6 L 37.1 88.4 L 37.1 88.8 L 37.2 89.1 L 37.7 89.8 L 38.9 90.9 L 40.58934421539307 92.2139344215393 L 41.95 93.05 L 43.2 93.8 L 43.1927906036377 93.81364240646363 L 46.1 95.6 L 50.7 103.4 L 52.9 112.3 L 53.7 122.0 L 53.65971975326538 126.06830759048462 L 54.2 125.2 L 57.4 120.8 L 68.6 129.2 L 65.9 132.9 L 63.5 136.7 L 61.4 140.7 L 59.5 144.8 L 57.8 149.1 L 56.4 153.5 L 55.2 158.0 L 54.2 162.7 L 53.5 167.5 L 53.0 172.5 L 52.62150535583496 172.47296466827393 L 52.7 173.0 L 39.2 176.9 L 38.0 169.3 L 37.9 160.7 L 38.4 151.3 L 39.0 141.4 L 39.6 131.6 L 39.7 122.3 L 39.0 114.3 L 37.6 108.3 L 36.20421838760376 105.81861038208008 L 33.0 104.0 L 29.8 101.6 L 27.0 98.9 L 24.9 95.7 L 23.4 92.0 L 23.1 87.9 L 23.8 84.0 L 25.5 80.5 L 27.7 77.4 L 29.124073791503907 75.92506647109985 L 29.1 75.9 L 35.0 69.9 L 40.1 64.1 L 44.3 58.5 L 47.6 53.3 L 50.1 48.4 L 51.9 43.8 L 52.8 39.5 L 53.1 35.6 L 52.7 31.9 L 51.7 28.3 L 64.9 23.4 Z M 110.0 99.6 L 106.5 101.4 L 103.9 103.6 L 103.82307691574097 103.71538457870483 L 103.92937126159669 103.74704675674438 L 104.0 103.6 L 110.7 105.7 L 115.9435043334961 105.95893850326539 L 116.0 105.7 L 116.6 101.7 L 116.6 101.6222222328186 L 115.8 99.4 L 115.2 99.0 L 113.3 98.8 Z " />
</g>
</svg>
