<svg xmlns="http://www.w3.org/2000/svg" xmlns:xlink="http://www.w3.org/1999/xlink" version="1.1" baseProfile="full" viewBox="0 0 200 200" width="200" height="200">
<g fill="black">
<path d="M 113.4 74.9 L 113.37800407409668 75.24215888977051 L 120.8 77.0 L 127.8 79.3 L 134.1 82.3 L 139.7 86.0 L 144.6 90.3 L 148.5 95.3 L 151.6 101.0 L 153.7 107.1 L 154.8 113.7 L 154.8458589553833 115.30506353378296 L 154.9 115.3 L 155.1 124.2 L 153.9 132.9 L 151.3 141.3 L 147.4 149.2 L 142.1 156.8 L 135.6 163.8 L 127.9 170.4 L 119.0 176.6 L 108.9 182.5 L 97.7 187.9 L 92.0 175.2 L 102.4 170.1 L 111.5 164.8 L 119.3 159.3 L 125.9 153.7 L 131.2 147.9 L 135.4 142.1 L 138.4 136.0 L 140.3 129.9 L 141.1 123.4 L 141.02619047164916 118.38095235824585 L 140.9 115.1 L 140.1 110.5 L 138.8 106.6 L 136.9 103.1 L 134.4 99.9 L 131.2 97.1 L 127.3 94.6 L 122.6 92.3 L 117.1 90.5 L 110.7 89.0 L 110.72999200820922 88.83444414138793 L 106.0 88.659259223938 L 106.0 89.9 L 105.1 97.0 L 103.4 103.7 L 100.7 110.0 L 97.1 115.8 L 92.7 121.1 L 87.5 125.8 L 81.5 129.9 L 74.7 133.5 L 68.25515947341918 136.11277322769166 L 68.4 136.5 L 63.2 137.4 L 58.3 136.8 L 53.6 135.3 L 49.0 133.1 L 44.7 130.1 L 40.9 126.5 L 37.9 122.0 L 36.1 116.4 L 36.7 110.0 L 38.52277164459228 106.69622640609741 L 38.4 106.6 L 38.889041137695315 106.03236303329467 L 39.9 104.2 L 40.23044776916504 104.47537317276002 L 44.0 100.1 L 50.1 94.3 L 56.6 89.2 L 63.6 84.8 L 71.0 81.2 L 78.8 78.4 L 86.9 76.4 L 95.4 75.1 L 104.2 74.6 Z M 89.6 90.1 L 82.8 91.8 L 76.4 94.1 L 70.4 97.1 L 64.7 100.6 L 59.3 104.8 L 54.2 109.7 L 50.00115270614624 114.70288181304932 L 50.4 115.7 L 51.5 117.3 L 53.5 119.2 L 56.1 121.0 L 58.8 122.3 L 61.4 123.1 L 62.77064218521118 123.32844038009644 L 68.8 120.8 L 74.2 117.9 L 78.8 114.8 L 82.7 111.3 L 85.8 107.6 L 88.3 103.6 L 90.1 99.2 L 91.4 94.4 L 91.9233226776123 89.77731628417969 Z M 77.7 22.5 L 81.5 25.1 L 85.9 27.6 L 91.0 29.9 L 96.8 32.0 L 103.2 33.8 L 110.3 35.5 L 118.1 36.9 L 126.5 38.1 L 135.5 39.0 L 134.4 52.9 L 124.8 52.0 L 115.9 50.7 L 107.5 49.2 L 99.7 47.4 L 92.5 45.3 L 85.8 42.9 L 79.7 40.1 L 74.1 37.0 L 69.1 33.5 L 64.7 29.6 L 74.6 19.7 Z " />
</g>
</svg>
