<svg xmlns="http://www.w3.org/2000/svg" xmlns:xlink="http://www.w3.org/1999/xlink" version="1.1" baseProfile="full" viewBox="0 0 200 200" width="200" height="200">
<g fill="black">
<path d="M 104.0 33.81521739959717 L 106.5 33.0 L 110.9 31.1 L 115.3 28.6 L 119.6 25.5 L 128.3 36.4 L 122.9 40.3 L 117.2 43.6 L 111.4 46.1 L 105.3 48.0 L 104.0 48.251612949371335 L 104.0 49.444444465637204 L 105.1 49.2 L 110.0 48.5 L 114.5 48.5 L 118.8 49.3 L 123.1 51.6 L 124.6 53.8 L 124.68064336776733 53.913633823394775 L 124.7 53.9 L 124.8367088317871 54.13354434967041 L 126.8 56.9 L 127.9 60.5 L 128.07931032180787 62.65172414779663 L 128.3 63.7 L 128.16715326309205 64.32335767745971 L 127.7 67.5 L 126.7 71.0 L 126.32201013565063 70.86541271209717 L 123.5 75.3 L 118.1 80.7 L 110.5 87.0 L 104.0 91.79611654281616 L 104.0 97.0 L 103.76000003814697 97.0 L 104.0 97.3 L 91.9 104.6 L 91.8 104.4 L 90.9 103.4 L 89.41279621124268 102.11109008789063 L 86.7 104.0 L 79.80489511489868 108.62377624511718 L 84.3 107.5 L 90.8 105.8 L 97.5 104.2 L 104.2 102.4 L 104.26028966903687 102.63426856994629 L 104.4 102.6 L 109.8 101.3 L 115.3 100.2 L 121.0 99.2 L 126.9 98.2 L 132.9 97.4 L 139.1 96.6 L 145.4 96.0 L 151.9 95.4 L 158.5 95.0 L 158.50282382965088 95.04361190795899 L 159.0 95.0 L 159.0 102.72222223281861 L 159.4 108.9 L 159.0 108.93125 L 159.0 109.0 L 156.4 109.2 L 153.6 110.1 L 150.2 112.1 L 145.8 115.2 L 140.2 119.8 L 136.77278022766114 122.82401742935181 L 136.76954221725464 122.84753522872924 L 139.1 123.9 L 141.9 125.6 L 144.5 127.7 L 146.6 130.2 L 148.3 133.0 L 149.5 136.1 L 150.1 139.4 L 150.2 142.7 L 149.9 146.0 L 149.02467308044433 145.86775636672974 L 149.3 146.0 L 146.1 151.4 L 142.1 156.4 L 137.3 161.1 L 131.7 165.3 L 125.4 169.2 L 118.3 172.9 L 110.5 176.2 L 101.9 179.2 L 92.6 182.0 L 82.5 184.5 L 79.4 170.9 L 88.9 168.5 L 97.6 165.9 L 105.4 163.1 L 112.4 160.2 L 118.5 157.0 L 123.8 153.8 L 128.2 150.4 L 131.8 147.0 L 134.6 143.5 L 136.0921875 140.8140625 L 136.0 139.8 L 135.7 139.0 L 135.3 138.3 L 134.7 137.7 L 133.9 137.0 L 132.7 136.3 L 131.1 135.6 L 129.37167625427247 135.0815029144287 L 125.9 134.7 L 123.54079685211181 134.61472759246826 L 114.9 142.4 L 102.7 153.2 L 88.95722541809081 164.9524416923523 L 88.6 165.4 L 88.51416664123535 165.33133335113524 L 88.2 165.6 L 86.8235294342041 163.97882356643677 L 85.6 163.0 L 82.8 160.7 L 80.1 158.4 L 77.5 156.3 L 75.0 154.2 L 72.7 152.1 L 70.5 150.1 L 68.5 148.2 L 66.5 146.4 L 64.7 144.6 L 65.0 144.3 L 69.1 138.5 L 74.1 133.6 L 79.8 129.4 L 86.2 126.0 L 93.2 123.5 L 100.8 121.7 L 109.0 120.7 L 117.7 120.4 L 118.46323347091675 120.4328272819519 L 124.1 115.4 L 127.56551723480224 112.33054189682007 L 123.4 113.0 L 118.0 113.9 L 112.7 115.0 L 102.7 117.4 L 102.66719474792481 117.27698040008545 L 94.3 119.4 L 87.7 121.1 L 74.9 124.3 L 68.6 125.9 L 56.4 128.9 L 50.5 130.3 L 44.6 131.8 L 41.3 118.1 L 41.37481031417847 118.08194236755371 L 41.0 117.5 L 61.9 103.7 L 77.7234920501709 93.18203172683715 L 74.3 90.7 L 69.9 87.7 L 65.6333517074585 84.79867916107177 L 65.2 85.0 L 64.99950246810913 84.36766166687012 L 64.9 84.3 L 64.95303869247437 84.22112197875977 L 63.9 80.9 L 63.7 76.5 L 64.8 72.2 L 66.9 68.5 L 69.7 65.2 L 73.1 62.3 L 77.0 59.7 L 81.6 57.2 L 86.7 54.7 L 86.81932792663574 54.65268030166626 L 86.7 54.3 L 90.0 53.23235292434693 L 90.0 49.613846111297605 L 86.3 49.5 L 79.7 48.6 L 73.1 47.1 L 66.4 44.9 L 71.3 31.7 L 76.9 33.6 L 82.3 34.9 L 87.5 35.6 L 90.0 35.65 L 90.0 17.0 L 104.0 17.0 Z M 97.2 136.9 L 91.9 138.8 L 87.2 141.2 L 84.10704221725464 143.51971826553344 L 84.2 143.6 L 86.6 145.6 L 88.34750118255616 147.06790103912354 L 93.5 142.6 L 101.02554655075073 136.0073724746704 Z M 87.9 69.6 L 84.3 71.6 L 81.5 73.5 L 79.5 75.2 L 78.3519684791565 76.53937005996704 L 82.3 79.2 L 86.5 82.2 L 90.0 84.65945949554444 L 90.0 68.64545450210571 Z M 108.3276596069336 62.89893617630005 L 107.6 63.0 L 104.0 63.8 L 104.0 74.22835817337037 L 108.7 70.3 L 112.7 66.3 L 114.0512396812439 64.31818180084228 L 114.1722222328186 63.6527777671814 L 113.95862064361572 63.28965520858765 L 112.8 63.0 L 110.9 62.8 Z " />
</g>
</svg>
