<svg xmlns="http://www.w3.org/2000/svg" xmlns:xlink="http://www.w3.org/1999/xlink" version="1.1" baseProfile="full" viewBox="0 0 200 200" width="200" height="200">
<g fill="black">
<path d="M 86.35500421524048 22.914695167541502 L 86.4 22.8 L 86.82450647354126 22.968454933166505 L 87.1 23.0 L 87.07817373275756 23.069116592407227 L 92.7 25.3 L 98.6 27.6 L 104.2 29.8 L 109.4 31.9 L 114.3 33.8 L 118.8 35.6 L 123.0 37.2 L 126.9 38.8 L 130.4 40.2 L 133.5 41.5 L 133.3014142036438 42.002305316925046 L 140.6 53.9 L 130.6 59.6 L 120.1 64.5 L 109.2 68.6 L 97.9 71.9 L 88.3114956855774 73.94882574081421 L 96.4 88.2 L 105.16384553909302 101.61963844299316 L 109.3 98.7 L 124.4 89.7 L 140.4 81.3 L 156.9 73.8 L 173.6 67.3 L 178.3 80.6 L 162.4 86.7 L 146.5 93.9 L 131.2 101.9 L 116.9 110.5 L 113.25793914794922 113.03237047195435 L 116.1 117.0 L 126.2 129.4 L 115.7 138.5 L 105.0 125.5 L 101.9091407775879 121.24277877807617 L 93.4 128.4 L 85.1 137.1 L 79.8 145.1 L 77.7 151.7 L 78.18264980316162 156.4299684524536 L 78.7 157.4 L 80.2 159.0 L 83.0 160.7 L 87.1 162.3 L 92.7 163.5 L 99.7 164.4 L 107.9 164.8 L 117.4 164.7 L 128.2 164.1 L 140.2 163.0 L 141.7 176.9 L 129.3 178.1 L 117.9 178.7 L 107.7 178.8 L 98.5 178.4 L 90.3 177.3 L 83.1 175.7 L 76.9 173.3 L 71.5 170.0 L 67.2 165.5 L 65.18991708755493 161.3309391975403 L 65.0 161.4 L 64.9376558303833 160.80773067474365 L 64.5 159.9 L 64.83168315887451 159.8009901046753 L 63.8 150.0 L 67.3 138.8 L 74.2 128.3 L 83.8 118.2 L 93.76398124694825 109.91063747406005 L 84.5 95.5 L 75.6 80.0 L 73.71614789962769 76.12763738632202 L 61.6 77.0 L 48.8 77.1 L 35.6 76.5 L 22.0 75.0 L 23.9 61.1 L 36.7 62.5 L 49.1 63.1 L 61.1 63.0 L 67.42930173873901 62.55970077514648 L 63.4 51.6 L 61.2 39.4 L 63.7 28.2 L 74.0 21.5 Z M 75.7 35.5 L 75.2 39.0 L 76.9 47.7 L 81.3 59.6 L 81.91072607040405 60.857913398742674 L 83.7 60.6 L 94.4 58.3 L 104.7 55.3 L 114.6 51.6 L 117.55435094833373 50.200570583343506 L 113.6 48.6 L 109.1 46.8 L 104.2 44.9 L 99.0 42.8 L 93.5 40.6 L 87.6 38.3 L 82.35502395629882 36.218660259246825 L 76.2 35.3 Z " />
</g>
</svg>
