<svg xmlns="http://www.w3.org/2000/svg" xmlns:xlink="http://www.w3.org/1999/xlink" version="1.1" baseProfile="full" viewBox="0 0 200 200" width="200" height="200">
<g fill="black">
<path d="M 133.9 21.9 L 132.8 29.1 L 131.5 35.9 L 130.1 42.3 L 128.5 48.4 L 126.7 54.0 L 124.8 59.3 L 123.63057327270508 62.0286623954773 L 125.2 61.3 L 127.9 59.9 L 130.6 58.3 L 133.2 56.7 L 141.0 68.3 L 140.84876270294188 68.39757251739502 L 141.1 68.5 L 139.0 74.0 L 137.7 79.1 L 136.9 84.4 L 136.4 90.6 L 136.2 98.3 L 136.1 107.9 L 136.1 119.8 L 136.0 134.5 L 135.6 152.5 L 134.9291304588318 173.29695653915405 L 135.2 173.8 L 134.90815849304198 173.94708814620972 L 134.9 174.2 L 134.43923473358154 174.18342571258546 L 122.7 180.1 L 121.5 177.8 L 120.1 175.3 L 118.6 172.7 L 116.9 169.9 L 115.0 167.0 L 112.9 163.9 L 110.7 160.6 L 108.3 157.2 L 105.7 153.7 L 103.0 150.0 L 114.2 141.6 L 117.0 145.4 L 119.7 149.1 L 121.60740737915039 151.770370388031 L 122.0 134.3 L 122.1 119.7 L 122.1 107.8 L 122.2 98.1 L 122.4 89.9 L 123.0 82.8 L 123.86073055267335 77.11917810440063 L 121.0 78.1 L 117.4 79.3 L 113.7 80.3 L 106.1 81.9 L 103.8 68.0 L 104.2470489501953 67.9187183380127 L 104.1 67.8 L 106.2 65.0 L 108.1 61.8 L 110.0 58.2 L 111.8 54.1 L 113.5 49.5 L 115.0 44.5 L 116.5 39.0 L 117.8 33.1 L 119.0 26.8 L 120.0 20.0 Z M 71.3 81.9 L 70.8820083618164 82.03556489944458 L 70.73308935165406 89.77935285568238 L 72.9 87.4 L 84.1 75.0 L 94.5 84.4 L 83.3 96.8 L 73.0 108.1 L 70.41905078887939 110.84746208190919 L 70.4 111.8 L 70.3 121.5 L 70.2 131.0 L 70.1 140.3 L 70.0 149.3 L 70.0 175.0 L 56.0 175.0 L 56.0 174.7 L 55.8 174.0 L 55.3 172.6 L 54.2 170.5 L 52.7 167.9 L 50.7 164.9 L 48.2 161.6 L 45.2 157.8 L 41.7 153.7 L 37.8 149.2 L 35.24984912872314 146.35331993103028 L 31.2 149.8 L 27.1 152.7 L 23.0 154.7 L 18.9 141.2 L 19.608852481842042 140.8455738067627 L 19.4 140.6 L 20.1 139.8 L 21.6 138.0 L 23.4 135.1 L 25.7 131.4 L 28.2 126.9 L 31.0 121.5 L 34.1 115.3 L 37.5 108.3 L 41.2 100.5 L 45.2 92.0 L 56.642469024658205 97.2256944656372 L 56.7 91.3 L 56.81977806091309 85.01165370941162 L 55.2 85.2 L 50.7 85.5 L 46.1 85.6 L 41.3 85.5 L 36.4 85.1 L 31.2 84.6 L 25.9 83.9 L 28.0 70.0 L 32.9 70.7 L 37.6 71.2 L 42.0 71.5 L 46.2 71.6 L 50.2 71.5 L 53.9 71.3 L 57.5 70.9 L 60.8 70.3 L 63.8 69.6 L 66.7 68.7 Z M 114.6 119.2 L 112.2 123.2 L 109.7 127.1 L 107.0 130.7 L 104.1 134.2 L 101.0 137.4 L 97.7 140.4 L 94.3 143.2 L 90.7 145.8 L 87.0 148.1 L 83.1 150.2 L 76.8 137.7 L 80.0 136.0 L 83.0 134.1 L 85.8 132.1 L 88.6 129.8 L 91.2 127.4 L 93.6 124.8 L 96.0 122.0 L 98.2 119.0 L 100.3 115.9 L 102.3 112.5 Z M 55.4 126.8 L 48.0 134.3 L 45.48694944381714 136.77438821792603 L 48.3 139.9 L 52.4 144.6 L 56.0 149.0 L 56.002192687988284 149.0026577949524 L 56.1 140.2 L 56.2 130.9 L 56.25211925506592 125.89654817581177 Z M 160.2 108.9 L 164.5 111.1 L 168.3 114.1 L 171.6 117.9 L 174.4 122.3 L 176.8 127.3 L 178.9 132.9 L 180.7 139.2 L 167.2 142.7 L 165.6 137.3 L 163.9 132.7 L 162.1 129.0 L 160.3 126.2 L 158.6 124.1 L 157.0 122.9 L 155.5 122.1 L 154.0 121.8 L 152.2 121.8 L 150.0 122.3 L 145.8 109.0 L 150.6 107.9 L 155.4 107.9 Z M 53.9 106.4 L 52.46917095184326 109.49368448257447 L 53.5 108.4 L 56.52852067947388 105.17396717071533 L 56.6 101.6 L 56.609965324401855 100.5735746383667 Z M 56.0 25.1 L 57.2 27.6 L 58.4 29.5 L 59.7 31.0 L 61.1 32.1 L 62.5 32.8 L 64.2 33.3 L 66.2 33.6 L 68.7 33.5 L 71.5 33.1 L 74.4 46.8 L 69.9 47.5 L 65.5 47.6 L 61.3 47.0 L 57.2 45.8 L 53.5 43.8 L 50.1 41.2 L 47.3 38.0 L 44.9 34.3 L 43.0 30.3 L 41.5 25.8 L 55.0 22.0 Z " />
</g>
</svg>
