<svg xmlns="http://www.w3.org/2000/svg" xmlns:xlink="http://www.w3.org/1999/xlink" version="1.1" baseProfile="full" viewBox="0 0 200 200" width="200" height="200">
<g fill="black">
<path d="M 90.3 23.0 L 88.6 29.2 L 87.1 36.4 L 85.7 44.5 L 84.6 53.5 L 84.31221561431884 56.37784433364868 L 86.3 55.8 L 94.0 55.09195404052734 L 94.0 55.0 L 94.67896680831909 55.02952032089233 L 95.0 55.0 L 95.0 55.04347829818725 L 98.6 55.2 L 103.2 56.0 L 107.5 57.4 L 111.6 59.4 L 115.4 61.9 L 118.9 64.9 L 120.93994255065918 67.20316095352173 L 123.2 63.9 L 126.0 60.5 L 129.3 57.5 L 132.8 55.0 L 136.7 53.0 L 140.8 51.5 L 145.1 50.5 L 149.6 50.0 L 149.60503282546998 50.10065641403198 L 154.2 50.7 L 158.5 51.7 L 162.5 53.1 L 166.1 55.1 L 169.4 57.5 L 172.1 60.5 L 174.3 64.0 L 175.8 67.7 L 176.7 71.8 L 176.78112449645997 72.93574295043945 L 177.4 74.9 L 176.8 82.5 L 173.8 89.7 L 168.9 96.9 L 162.3 104.1 L 153.9 111.6 L 143.7 119.4 L 131.8 127.7 L 117.9 136.4 L 102.73636360168457 145.2454545021057 L 96.5 149.7 L 89.5 154.8 L 83.1 159.5 L 78.0812162399292 163.3741488456726 L 79.7 163.1 L 91.4 161.6 L 102.6 160.7 L 113.2 160.4 L 123.3 160.7 L 132.7 161.7 L 141.6 163.3 L 150.0 165.6 L 157.8 168.5 L 152.1 181.4 L 145.7 178.9 L 138.6 177.0 L 130.8 175.6 L 122.3 174.7 L 113.2 174.4 L 103.4 174.7 L 92.9 175.5 L 81.7 176.9 L 69.9 178.9 L 57.5 181.6 L 57.4258918762207 181.27248992919922 L 57.4 181.3 L 46.5 172.6 L 48.8 170.0 L 51.6 167.1 L 55.0 164.0 L 59.0 160.6 L 63.6 156.9 L 68.9 152.8 L 74.7 148.3 L 81.2 143.5 L 88.3 138.3 L 96.1 132.8 L 96.19432315826415 132.93275108337403 L 110.7 124.4 L 124.1 116.0 L 135.5 108.1 L 145.0 100.8 L 152.5 94.1 L 158.0 88.1 L 161.6 83.0 L 163.2 79.0 L 163.4 76.3 L 163.31000003814697 76.0 L 163.0 76.0 L 162.8807692527771 74.5692307472229 L 162.8 74.3 L 162.8558003425598 74.26960468292236 L 162.8 73.6 L 162.4 71.8 L 161.8 70.3 L 161.0 69.0 L 160.0 67.9 L 158.7 66.9 L 156.9 66.0 L 154.5 65.1 L 151.7 64.5 L 149.12591094970702 64.12145748138428 L 147.4 64.3 L 144.8 64.9 L 142.4 65.8 L 140.2 66.9 L 138.1 68.4 L 136.2 70.2 L 134.3 72.4 L 132.6 75.0 L 131.0 78.0 L 129.5 81.4 L 129.32025032043458 81.33276538848877 L 116.5 86.6 L 114.8 83.0 L 113.0 79.8 L 111.1 77.1 L 109.1 74.9 L 107.0 73.0 L 104.8 71.6 L 102.4 70.4 L 99.8 69.6 L 97.0 69.1 L 94.75 69.025 L 89.0 69.6 L 83.10172262191773 71.25889053344727 L 82.9 74.4 L 82.3 86.2 L 82.0 98.8 L 81.9 112.4 L 81.9 126.9 L 80.65491313934326 126.90895748138428 L 68.1 129.2 L 67.4 126.4 L 66.5 123.7 L 65.4 120.9 L 63.9 118.1 L 62.1 115.3 L 60.0 112.5 L 57.6 109.6 L 54.9 106.8 L 51.8 103.9 L 48.4 101.0 L 57.1 90.1 L 61.0 93.4 L 64.7 96.8 L 67.98849172592163 100.18814296722412 L 68.0 98.6 L 68.3 85.7 L 68.62891273498535 79.06692619323731 L 63.1 83.3 L 57.2 88.8 L 52.0 94.9 L 47.5 101.2 L 44.0 107.7 L 41.7039137840271 113.8894497871399 L 41.8 114.3 L 28.1 117.6 L 27.0 112.3 L 26.1 106.9 L 25.4 101.5 L 25.0 96.1 L 24.9 90.7 L 25.0 85.3 L 25.4 79.8 L 26.0 74.4 L 26.8 68.9 L 27.9 63.4 L 41.6 66.4 L 40.6 71.3 L 39.8 76.2 L 39.3 81.1 L 39.0 85.9 L 38.93314781188965 89.1089030265808 L 41.0 86.2 L 47.1 79.1 L 54.0 72.6 L 61.5 66.9 L 69.4 62.0 L 69.64914064407348 61.88893728256225 L 70.6 52.0 L 71.9 42.5 L 73.3 33.8 L 75.0 25.9 L 77.0 18.8 Z " />
</g>
</svg>
