<svg xmlns="http://www.w3.org/2000/svg" xmlns:xlink="http://www.w3.org/1999/xlink" version="1.1" baseProfile="full" viewBox="0 0 200 200" width="200" height="200">
<g fill="black">
<path d="M 80.0 14.9 L 83.9 15.7 L 87.5 16.8 L 91.0 18.0 L 94.4 19.4 L 97.5 21.0 L 100.5 22.7 L 103.3 24.7 L 105.8 26.9 L 108.2 29.3 L 108.01323909759522 29.465416812896727 L 109.7 37.8 L 111.2 46.4 L 112.5 55.3 L 113.6 64.4 L 113.65480089187622 64.97845430374146 L 120.3 64.5 L 133.2 63.5 L 146.5 62.3 L 160.3 61.0 L 161.6 74.9 L 147.8 76.3 L 134.4 77.4 L 121.4 78.5 L 114.86564102172852 78.96673994064331 L 115.2 83.6 L 115.7 93.5 L 116.0 103.8 L 116.1 114.3 L 115.9 125.1 L 115.4450379371643 125.09018068313598 L 106.8 135.7 L 99.8 130.5 L 93.0 126.3 L 86.4 123.1 L 80.0 120.8 L 73.7 119.5 L 67.6 119.0 L 61.6 119.4 L 55.6 120.7 L 49.6 122.9 L 44.97382555007935 125.25100669860839 L 42.7 127.2 L 39.7 131.1 L 37.1 135.7 L 35.1 140.9 L 33.6 146.4 L 32.6 152.0 L 32.3 157.6 L 32.5 162.8 L 33.3 167.5 L 34.28153848648071 170.9800000190735 L 34.4 171.2 L 35.0 172.0 L 35.4 172.3 L 35.8 172.5 L 36.3 172.5 L 37.3 172.2 L 38.8 171.7 L 39.71041669845581 171.2208333015442 L 39.7 171.2 L 40.24761905670166 170.9380952835083 L 40.7 170.7 L 42.9 169.3 L 43.0846905708313 169.55765476226807 L 44.4 168.9 L 46.9 167.5 L 49.7 166.0 L 52.6 164.5 L 55.6 162.8 L 58.8 161.0 L 62.2 159.0 L 65.7 157.0 L 69.4 154.9 L 76.5 167.0 L 72.7 169.2 L 69.1 171.2 L 65.7 173.2 L 62.4 175.0 L 59.3 176.7 L 56.3 178.3 L 53.5 179.9 L 50.8 181.3 L 48.3 182.6 L 46.0 183.8 L 45.96000003814697 183.7199999809265 L 44.6 184.4 L 41.3 185.7 L 37.9 186.4 L 34.3 186.4 L 30.8 185.6 L 27.6 183.9 L 24.9 181.6 L 22.7 178.9 L 21.0 175.8 L 21.238843727111817 175.6890411376953 L 19.6 170.6 L 18.6 164.2 L 18.3 157.5 L 18.7 150.5 L 19.9 143.4 L 21.8 136.4 L 24.5 129.7 L 28.0 123.4 L 32.5 117.7 L 36.55023889541626 114.15604095458984 L 36.4 113.9 L 37.470909118652344 113.3504545211792 L 38.1 112.8 L 38.21852321624756 112.9668104171753 L 44.0 110.0 L 51.8 107.2 L 59.7 105.6 L 67.7 105.0 L 75.8 105.6 L 83.8 107.3 L 91.8 110.2 L 99.8 114.1 L 102.08838682174682 115.51937923431396 L 102.1 114.3 L 102.0 104.0 L 101.7 94.1 L 101.2 84.4 L 100.8664005279541 79.92023601531983 L 96.6 80.2 L 84.9 80.8 L 73.5 81.3 L 62.6 81.7 L 52.1 81.9 L 42.0 82.0 L 42.0 68.0 L 51.9 67.9 L 62.2 67.7 L 73.0 67.3 L 84.2 66.8 L 95.8 66.2 L 99.70349597930908 65.93976697921752 L 99.7 65.9 L 98.6 57.1 L 97.4 48.6 L 95.9 40.4 L 95.0549295425415 36.174647903442384 L 94.6 35.8 L 92.8 34.5 L 90.8 33.2 L 88.5 32.1 L 86.1 31.1 L 83.4 30.1 L 80.4 29.3 L 77.3 28.6 L 73.9 28.0 L 76.0 14.2 Z M 146.5 126.1 L 152.9 127.3 L 158.9 129.3 L 164.5 132.3 L 169.6 136.2 L 174.1 141.0 L 178.1 146.5 L 181.5 152.7 L 184.3 159.6 L 186.7 167.1 L 173.2 170.8 L 173.08571424484253 170.4285714149475 L 172.9 170.8 L 171.3 170.0 L 169.6 169.3 L 167.8 168.6 L 165.9 167.9 L 164.0 167.3 L 161.9 166.7 L 159.8 166.2 L 157.6 165.7 L 155.3 165.3 L 152.9 164.9 L 155.0 151.0 L 160.4 152.0 L 163.0 152.6 L 165.5 153.2 L 165.76119403839112 153.2731343269348 L 163.4 149.9 L 160.3 146.6 L 157.0 144.1 L 153.4 142.2 L 149.4 140.8 L 145.0 140.1 L 140.2 139.9 L 139.7 125.9 Z " />
</g>
</svg>
