<svg xmlns="http://www.w3.org/2000/svg" xmlns:xlink="http://www.w3.org/1999/xlink" version="1.1" baseProfile="full" viewBox="0 0 200 200" width="200" height="200">
<g fill="black">
<path d="M 100.0 27.8 L 99.70599250793457 28.1328387260437 L 102.2 41.8 L 93.4 43.3 L 87.59543523788452 43.92941064834595 L 85.9 46.7 L 82.5 53.6 L 79.6 61.0 L 77.2 68.7 L 75.5 76.8 L 74.4 85.4 L 74.20014324188233 88.36454153060913 L 74.3 88.3 L 83.1 83.4 L 92.5 78.8 L 100.75543479919433 75.17771739959717 L 100.0 74.8 L 105.7 62.0 L 110.0 64.3 L 113.6 67.5 L 116.4 71.4 L 116.48484439849854 71.60094718933105 L 118.1 71.5 L 124.8 71.9 L 131.5 73.1 L 138.1 75.1 L 144.3 78.1 L 149.9 82.2 L 154.3 87.7 L 156.8 94.7 L 156.47189865112304 94.75987253189086 L 156.8 94.8 L 155.7 100.7 L 154.1 106.7 L 152.2 112.8 L 150.4 118.7 L 148.8 124.2 L 147.9 128.8 L 147.63156185150146 131.66334056854248 L 150.0 131.5 L 155.4 131.5 L 160.3 132.0 L 164.9 133.4 L 169.2 135.8 L 172.6 139.7 L 174.5 144.5 L 174.9 149.6 L 174.2 154.8 L 172.76357889175415 159.73769750595093 L 172.9 159.8 L 172.6311435699463 160.1929440498352 L 172.6 160.3 L 172.5660930633545 160.2880178451538 L 170.3 163.6 L 166.9 166.6 L 162.9 169.0 L 158.1 171.2 L 152.6 173.3 L 146.3 175.3 L 139.1 177.2 L 131.0 179.1 L 122.0 181.0 L 112.2 182.8 L 109.7 169.1 L 119.3 167.3 L 128.0 165.5 L 135.7 163.7 L 142.4 161.9 L 148.1 160.1 L 152.7 158.3 L 156.3 156.6 L 158.8 155.1 L 159.67931032180786 154.36724138259888 L 160.5 151.7 L 160.9 149.0 L 160.8 147.4 L 160.5 146.8 L 159.6 146.3 L 157.7 145.8 L 154.6 145.5 L 150.6 145.5 L 147.0 145.71599998474122 L 147.0 146.0 L 146.08387098312377 145.7709677696228 L 145.6 145.8 L 145.58450183868408 145.64612550735472 L 139.8 144.2 L 134.9 138.6 L 133.6 132.5 L 134.0 126.6 L 135.3 120.7 L 137.0 114.7 L 138.9 108.6 L 140.7 102.8 L 142.1 97.5 L 142.47181205749513 95.45503358840942 L 142.2 94.7 L 140.3 92.4 L 137.2 90.1 L 133.1 88.2 L 128.3 86.7 L 123.2 85.8 L 119.2 85.56470584869385 L 119.2 85.7 L 118.4 90.9 L 117.0 96.3 L 114.9 102.0 L 113.67050075531006 104.83730592727662 L 113.8 104.9 L 112.84637680053712 106.73913040161133 L 112.3 108.0 L 112.21400890350341 107.9586971282959 L 109.6 113.0 L 104.9 120.7 L 99.6 128.2 L 93.7 135.3 L 87.3 142.1 L 82.96459016799926 146.12573766708374 L 85.1 151.3 L 88.2 157.8 L 75.7 164.1 L 72.4 157.1 L 71.7024793624878 155.49570245742797 L 64.8 160.5 L 56.3 166.0 L 47.55805883407593 170.899329662323 L 47.3 171.3 L 42.2 167.8 L 37.8 164.2 L 34.0 160.6 L 30.7 156.9 L 28.1 153.0 L 26.3 148.9 L 25.2 144.5 L 25.1 140.0 L 26.0 135.6 L 27.9 131.5 L 28.078303337097168 131.60167713165282 L 32.6 125.0 L 38.2 118.1 L 44.4 111.4 L 51.1 105.2 L 58.3 99.2 L 59.84013977050781 98.09425859451294 L 59.8 94.0 L 60.4 84.0 L 61.7 74.5 L 63.7 65.3 L 66.3 56.4 L 69.7 47.9 L 71.35 44.6 L 69.9 44.6 L 63.0 44.1 L 56.6 43.0 L 50.7 41.4 L 45.2 39.1 L 40.3 36.2 L 35.9 32.7 L 45.5 22.5 L 48.2 24.7 L 51.4 26.5 L 55.2 28.1 L 59.6 29.3 L 64.7 30.2 L 70.5 30.6 L 76.8 30.7 L 79.6584979057312 30.498697376251222 L 83.8 24.9 L 89.9 18.1 Z M 60.3 115.7 L 54.3 121.3 L 48.8 127.2 L 43.9 133.4 L 39.4 139.9 L 39.35611572265625 139.87173557281494 L 39.3 140.0 L 39.0 141.3 L 39.1 142.7 L 39.5 144.2 L 40.3 146.1 L 41.8 148.4 L 44.0 150.9 L 46.9 153.6 L 48.12279205322265 154.55840454101562 L 49.1 154.0 L 57.0 149.0 L 64.3 143.6 L 66.42978019714356 141.87738361358643 L 64.8 136.6 L 63.1 130.0 L 61.8 123.5 L 60.9 117.0 L 60.793513488769534 115.29621620178223 Z M 98.4 91.5 L 89.7 95.7 L 81.5 100.3 L 74.5 104.8131579399109 L 74.5 110.1 L 74.9 115.6 L 75.6 121.2 L 76.7 126.9 L 77.97366981506347 131.59665756225587 L 83.2 126.1 L 88.4 119.7 L 93.2 113.0 L 97.4 106.1 L 99.70714282989502 101.66785717010498 L 102.0 96.7 L 103.6 92.1 L 104.51433877944946 88.77513160705567 Z " />
</g>
</svg>
