<svg xmlns="http://www.w3.org/2000/svg" xmlns:xlink="http://www.w3.org/1999/xlink" version="1.1" baseProfile="full" viewBox="0 0 200 200" width="200" height="200">
<g fill="black">
<path d="M 40.2 20.8 L 43.0 22.1 L 45.8 23.5 L 48.5 25.1 L 51.1 26.7 L 53.7 28.6 L 56.2 30.5 L 58.6 32.6 L 60.9 34.9 L 63.1 37.2 L 62.88426265716553 37.39898099899292 L 62.9 37.4 L 62.2 42.2 L 60.6 47.2 L 58.4 52.4 L 55.4 58.0 L 51.7 63.9 L 47.3 70.2 L 42.3 76.9 L 36.5 84.1 L 32.359739112854 89.00461673736572 L 36.7 92.3 L 40.6 97.9 L 43.4 104.6 L 45.3 112.5 L 46.5 121.5 L 47.0 131.8 L 46.99965000152588 131.84059886932374 L 47.9 130.3 L 53.1 122.0 L 59.0 113.1 L 65.5 103.7 L 72.07225389480591 94.48058824539184 L 71.8 94.2 L 79.9 86.6 L 88.2 79.6 L 96.7 73.2 L 97.1216528892517 72.9122838973999 L 93.5 61.3 L 90.9 44.0 L 93.4 30.0 L 105.8 22.2 L 118.00191650390624 26.482791900634766 L 118.1 26.3 L 119.47097787857055 26.998422718048097 L 120.9 27.5 L 120.79019985198974 27.670479202270506 L 123.4 29.0 L 128.4 31.6 L 133.2 34.0 L 137.7 36.2 L 142.1 38.2 L 146.1 40.0 L 150.0 41.6 L 153.6 43.0 L 156.9 44.2 L 159.501398563385 45.12307691574097 L 159.6 45.1 L 159.6123038291931 45.162430381774904 L 160.0 45.3 L 159.78003911972047 46.01353168487549 L 162.3 58.8 L 153.8 60.8 L 145.4 63.4 L 137.1 66.5 L 128.9 70.1 L 120.8 74.4 L 113.7725191116333 78.6164885520935 L 121.9 97.4 L 133.6 118.7 L 147.5 139.0 L 163.1 156.7 L 164.6802110671997 157.97559204101563 L 164.5 153.2 L 164.3 147.2 L 164.1 140.4 L 164.0 133.0 L 164.0 116.0 L 178.0 116.0 L 178.0 132.8 L 178.1 140.2 L 178.3 146.8 L 178.4 152.7 L 178.7 157.8 L 178.9 162.2 L 179.2 165.9 L 179.5 168.7 L 179.8 170.6 L 179.3186803817749 170.69485864639282 L 172.2 181.8 L 153.4 166.7 L 136.4 147.6 L 121.6 126.0 L 109.3 103.5 L 102.05157480239868 86.71417322158814 L 97.0 90.6 L 89.2 97.1 L 83.70821914672851 102.30273971557617 L 76.9 111.7 L 70.6 120.9 L 64.9 129.5 L 59.9 137.5 L 55.7 144.8 L 52.1 151.5 L 49.2 157.5 L 47.1 162.7 L 45.7 167.3 L 44.9 170.9 L 37.95 169.95 L 31.0 169.2 L 31.018468952178956 169.00252456665038 L 31.0 169.0 L 31.034582805633544 168.8302297592163 L 32.3 155.3 L 33.0 143.0 L 33.1 132.1 L 32.6 122.7 L 31.6 115.0 L 30.1 108.9 L 28.3 104.5 L 26.4 101.9 L 24.8 100.6 L 23.0 100.0 L 23.049263191223144 99.61957893371581 L 22.8 99.9 L 12.4 90.5 L 19.4 82.6 L 25.7 75.2 L 31.2 68.3 L 36.0 62.0 L 40.0 56.2 L 43.3 50.9 L 45.8 46.3 L 47.5 42.2 L 47.66603775024414 41.71698112487793 L 47.2 41.3 L 45.2 39.8 L 43.3 38.3 L 41.2 37.0 L 39.1 35.8 L 37.0 34.7 L 34.8 33.7 L 32.5 32.9 L 37.2 19.7 Z M 175.3 30.0 L 179.1 32.9 L 182.3 36.3 L 184.8 40.2 L 186.5 44.5 L 187.4 49.1 L 187.5 53.8 L 186.9 58.7 L 185.7 63.6 L 183.8 68.7 L 170.9 63.3 L 172.3 59.5 L 173.2 56.0 L 173.5 53.1 L 173.5 50.5 L 173.1 48.4 L 172.4 46.6 L 171.3 44.9 L 169.8 43.3 L 167.7 41.8 L 165.0 40.3 L 170.9 27.6 Z M 105.9 36.4 L 104.9 43.6 L 107.1 58.0 L 109.2794882774353 64.98939332962036 L 114.0 62.2 L 122.8 57.5 L 131.8 53.5 L 137.3953077316284 51.409445476531985 L 136.3 50.9 L 131.8 48.8 L 127.0 46.6 L 122.1 44.1 L 116.9 41.4 L 111.5 38.6 L 111.52813606262207 38.547564601898195 L 106.0 36.2 Z " />
</g>
</svg>
