<svg xmlns="http://www.w3.org/2000/svg" xmlns:xlink="http://www.w3.org/1999/xlink" version="1.1" baseProfile="full" viewBox="0 0 200 200" width="200" height="200">
<g fill="black">
<path d="M 90.0 14.3 L 92.3 16.3 L 94.3 18.4 L 96.1 20.8 L 97.6 23.3 L 98.8 26.0 L 99.8 28.9 L 100.4 31.8 L 100.8 34.8 L 101.0 38.0 L 100.8 38.0 L 98.9 39.9 L 96.7 42.0 L 95.5641900062561 43.09037761688232 L 105.2 39.7 L 110.4 38.0 L 115.5 36.4 L 120.5 34.9 L 125.4 33.5 L 130.2 32.2 L 133.7 45.7 L 133.16612548828124 45.85423040390015 L 133.3 46.1 L 131.8 47.0 L 129.4 48.8 L 126.2 51.3 L 122.4 54.5 L 118.0 58.3 L 112.9 62.8 L 110.6920066833496 64.7755729675293 L 110.8 64.9 L 105.99826593399048 69.02543354034424 L 100.9 73.8 L 97.1688018798828 77.26082143783569 L 97.7 77.1 L 108.2 75.5 L 118.3 75.7 L 127.7 78.2 L 136.0 83.0 L 142.6 90.4 L 147.0 99.9 L 149.1 111.3 L 148.99172134399413 118.50053224563598 L 149.0 118.5 L 148.9807017326355 119.23333330154419 L 148.9 124.6 L 148.83962230682374 124.59435319900513 L 148.6 133.7 L 146.42959280014037 144.31949224472046 L 153.3 148.2 L 163.4 155.5 L 172.9 164.0 L 163.0 173.9 L 154.7 166.4 L 145.8 160.0 L 141.548743724823 157.6030150413513 L 140.8 159.4 L 134.0 169.4 L 125.6 177.2 L 116.0 182.6 L 105.6 185.1 L 94.8 184.4 L 84.3 180.3 L 80.75835695266724 177.47422094345092 L 78.7 176.2 L 75.60149250030517 173.35970153808594 L 74.9 172.8 L 74.97329683303833 172.72960605621338 L 73.19621686935425 170.33973989486694 L 67.3 171.6 L 55.0 172.1 L 44.0 170.1 L 35.1 164.8 L 31.8 153.7 L 38.0 143.5 L 50.40724639892578 134.93309183120726 L 50.4 134.9 L 50.47480392456055 134.88644495010377 L 50.6 134.8 L 50.631610012054445 134.8580304145813 L 65.3 132.2 L 71.04151620864869 131.6339349746704 L 71.2 131.0 L 71.22528085708618 131.00730333328247 L 71.5 130.0 L 72.9 125.7 L 74.5 121.7 L 76.3 117.9 L 78.4 114.4 L 80.7 111.1 L 83.3 108.1 L 86.1 105.4 L 89.2 103.0 L 92.5 100.9 L 92.64988107681275 101.16283493041992 L 92.6 100.9 L 97.8 100.4 L 103.0 101.3 L 107.7 104.0 L 111.1 108.1 L 113.0 112.9 L 113.8 118.2 L 113.7 123.9 L 113.0 130.2 L 112.53443202972412 132.67109127044677 L 119.0 133.8 L 131.1 137.4 L 133.41556072235107 138.354660987854 L 134.7 132.1 L 135.0 119.4 L 135.0358009338379 119.39769849777221 L 135.1 112.4 L 133.6 104.1 L 130.9 98.0 L 127.2 93.9 L 122.4 91.1 L 116.5 89.6 L 109.2 89.4 L 100.9 90.7 L 95.27777776718139 92.41111106872559 L 93.9 92.9 L 90.4 94.4 L 86.5 96.2 L 82.3 98.4 L 77.7 101.0 L 72.7 103.9 L 67.4 107.2 L 61.8 110.8 L 56.48999996185303 114.31000003814697 L 55.9 114.9 L 46.0 105.0 L 50.0 101.0 L 54.4 96.8 L 59.1 92.3 L 64.2 87.6 L 69.5 82.7 L 75.3 77.5 L 81.3 72.1 L 87.8 66.4 L 94.5 60.5 L 97.4235294342041 57.947058868408206 L 97.57604732513428 57.80645637512207 L 94.7 58.8 L 89.6 60.5 L 85.1 62.1 L 84.30827589035034 62.37034482955933 L 82.5 63.1 L 82.46051502227783 63.00128755569458 L 81.0 63.5 L 77.4 64.8 L 74.3 66.0 L 71.8 67.0 L 69.7 67.9 L 68.3 68.6 L 67.6 69.0 L 61.241141414642335 58.459974098205564 L 60.0 57.1 L 64.3 53.2 L 68.3 49.4 L 72.1 46.0 L 75.6 42.7 L 78.8 39.7 L 81.8 36.9 L 84.5 34.3 L 86.30703620910644 32.63752660751343 L 86.3 32.6 L 85.8 31.1 L 85.2 29.8 L 84.5 28.6 L 83.6 27.5 L 82.6 26.4 L 81.4 25.4 L 80.0 24.4 L 87.6 12.6 Z M 103.8 154.0 L 92.9 163.1 L 87.87530679702759 165.39126014709473 L 88.10495052337646 165.57425746917724 L 89.2 166.2 L 89.11173181533813 166.3765362739563 L 91.4 168.2 L 97.8 170.7 L 104.3 171.1 L 110.9 169.5 L 117.3 165.9 L 123.3 160.3 L 128.5 152.7 L 128.93932180404664 151.64112195968627 L 126.4 150.6 L 115.8 147.5 L 108.39081363677978 146.16501150131225 Z M 67.2 146.1 L 55.7 148.1833333015442 L 47.7 153.6 L 46.104301071166994 155.5756272315979 L 48.4 156.8 L 55.9 158.1 L 65.6 157.8 L 68.25511693954468 157.18728065490723 L 67.9 154.6 L 67.9 149.2 L 68.23706684112548 145.99786462783814 Z M 82.4138466835022 144.76751861572265 L 82.3 145.4 L 81.9 149.9 L 81.9 152.78453607559203 L 85.7 151.1 L 93.3 144.8 L 93.38909730911254 144.644553565979 L 92.8 144.6 Z M 97.28620691299439 114.41034479141236 L 95.3 115.9 L 93.5 117.7 L 91.7 119.7 L 90.1 122.0 L 88.6 124.5 L 87.3 127.4 L 86.0 130.5 L 85.93129587173462 130.70611248016357 L 93.2 130.6 L 98.59820899963378 131.0089551925659 L 99.2 128.0 L 99.8 123.0 L 99.8 119.0 L 99.4 116.4 L 98.9 115.0 L 98.6 114.7 L 98.4 114.6 L 97.4 114.4 Z " />
</g>
</svg>
