<svg xmlns="http://www.w3.org/2000/svg" xmlns:xlink="http://www.w3.org/1999/xlink" version="1.1" baseProfile="full" viewBox="0 0 200 200" width="200" height="200">
<g fill="black">
<path d="M 117.8 16.1 L 121.4 16.6 L 124.9 17.4 L 128.1 18.7 L 131.2 20.4 L 133.8 22.6 L 136.1 25.3 L 137.9 28.2 L 139.1 31.5 L 139.9 34.9 L 139.46988134384156 34.964981937408446 L 139.7 35.0 L 138.6 40.7 L 137.0 46.9 L 136.89681272506715 47.224302768707275 L 138.0 46.8 L 144.9 43.4 L 152.2 39.1 L 159.7 50.8 L 151.6 55.7 L 143.7 59.6 L 135.9 62.6 L 131.08538675308228 63.93035364151001 L 129.4 68.2 L 125.9 76.2 L 121.9 84.7 L 117.4 93.7 L 115.95194034576416 96.53701496124268 L 120.1 95.5 L 125.6 94.3 L 131.8 92.9 L 138.7 91.5 L 146.2 89.8 L 154.5 88.1 L 154.54926538467407 88.33273649215698 L 154.7 88.2 L 163.6 99.0 L 157.8 104.2 L 152.7 109.5 L 148.5 115.0 L 145.1 120.5 L 142.4 126.2 L 140.4 132.2 L 139.1 138.5 L 138.6 145.1 L 138.8 152.2 L 139.70666666030883 159.0 L 140.0 159.0 L 140.0 159.8 L 140.3 160.5 L 140.9 161.3 L 142.1 162.4 L 143.9 163.6 L 146.5 164.9 L 149.8 166.1 L 153.8 167.2 L 158.5 168.2 L 163.9 169.0 L 162.0 182.9 L 156.0 181.9 L 150.5 180.8 L 145.5 179.4 L 141.0 177.8 L 137.0 175.8 L 133.4 173.4 L 130.4 170.5 L 128.0 167.1 L 126.5 163.1 L 126.38392543792725 162.14818878173827 L 126.1 162.2 L 124.9 153.3 L 124.6 144.8 L 125.3 136.6 L 126.9 128.6 L 129.4 121.1 L 132.8 113.8 L 137.0 106.9 L 137.74511623382568 105.95034198760986 L 134.8 106.6 L 128.7 108.0 L 123.2 109.2 L 118.5 110.3 L 114.6 111.3 L 111.3 112.1 L 108.8 112.8 L 107.1 113.3 L 94.8 106.6 L 100.1 96.7 L 104.9 87.4 L 109.3 78.7 L 113.1 70.4 L 115.06297492980957 65.95443906784058 L 113.4 66.0 L 106.2 65.1 L 99.3 63.1 L 92.8 60.1 L 86.6 56.2 L 94.9 44.9 L 99.5 47.8 L 104.1 50.0 L 109.0 51.3 L 114.1 52.0 L 119.6 51.9 L 120.70913705825805 51.724873065948486 L 121.7 49.0 L 123.6 43.0 L 125.0 37.7 L 125.50172414779664 35.0241379737854 L 125.2 34.3 L 124.7 33.4 L 124.1 32.6 L 123.2 32.0 L 122.2 31.4 L 120.7 30.8 L 118.9 30.4 L 116.6 30.1 L 114.0 30.0 L 114.0 16.0 Z M 42.9 21.4 L 45.8 22.5 L 48.6 23.9 L 51.1 25.5 L 53.4 27.3 L 55.5 29.5 L 57.2 31.9 L 58.5 34.5 L 59.4 37.3 L 59.9 40.3 L 58.73560209274292 40.408900547027585 L 59.5 40.6 L 55.6 57.4 L 52.4 73.5 L 50.0 88.8 L 48.3 103.3 L 47.4 117.0 L 47.2 129.9 L 47.629805660247804 140.38725700378419 L 50.0 134.5 L 53.7 126.3 L 57.9 117.3 L 62.7 107.8 L 75.2 114.1 L 70.5 123.5 L 66.4 132.1 L 62.9 140.1 L 59.9 147.3 L 57.5 153.7 L 55.7 159.5 L 54.4 164.4 L 53.7 168.5 L 53.5 171.6 L 53.6 173.7 L 53.574741172790525 173.7047936439514 L 53.6 173.8 L 40.3 178.1 L 37.3 167.1 L 35.1 155.5 L 33.8 143.2 L 33.2 130.1 L 33.4 116.4 L 34.4 102.0 L 36.1 86.9 L 38.6 71.0 L 41.9 54.5 L 45.378260898590085 39.45652170181275 L 45.2 39.1 L 44.7 38.4 L 44.0 37.7 L 43.0 36.9 L 41.8 36.1 L 40.2 35.4 L 38.3 34.6 L 36.1 34.0 L 39.7 20.4 Z " />
</g>
</svg>
