<svg xmlns="http://www.w3.org/2000/svg" xmlns:xlink="http://www.w3.org/1999/xlink" version="1.1" baseProfile="full" viewBox="0 0 200 200" width="200" height="200">
<g fill="black">
<path d="M 110.99137144088745 52.89191646575928 L 111.1 52.8 L 119.2 64.2 L 115.4 67.4 L 110.4 72.5 L 104.3 79.5 L 97.2 88.2 L 91.5489501953125 95.59520092010499 L 93.8 94.6 L 103.8 91.3 L 109.03455152511597 90.09202661514283 L 110.6 85.2 L 112.6 80.8 L 115.1 76.9 L 118.5 73.8 L 122.9 71.7 L 127.6 71.1 L 132.2 72.0 L 127.8 85.3 L 127.0 85.1 L 126.8 85.1 L 126.6 85.2 L 125.9 85.9 L 124.9 87.5 L 124.8452488899231 87.61862745285035 L 125.0 87.6 L 136.3 87.1 L 147.9 87.6 L 160.0 89.0 L 157.9 102.9 L 146.8 101.6 L 136.2 101.1 L 126.2 101.5 L 120.90069608688354 102.16241302490235 L 120.6 104.0 L 120.18957653045655 107.811074924469 L 120.3 108.4 L 120.7 109.7 L 121.1 110.7 L 121.5 111.5 L 121.9 112.0 L 121.97582416534424 112.1010989189148 L 123.43265304565429 112.9387755393982 L 123.8 113.0 L 123.78285999298096 113.1401445388794 L 125.8 114.3 L 129.3 117.2 L 132.2 120.6 L 134.5 124.6 L 136.1 128.8 L 137.1 133.4 L 137.6 138.3 L 137.4 143.4 L 136.90012369155883 148.79866437911988 L 144.8 152.2 L 159.4 160.7 L 173.6 171.7 L 164.3 182.2 L 151.5 172.3 L 138.5 164.7 L 131.79651136398314 161.81959476470948 L 131.5 162.4 L 124.9 169.8 L 117.1 175.6 L 108.5 179.7 L 99.6 182.1 L 90.8 182.8 L 82.3 181.6 L 74.6 177.9 L 68.7 171.4 L 66.46097564697266 164.1024390220642 L 65.9 164.2 L 66.04635515213013 162.7510835647583 L 66.0 162.6 L 66.06220378875733 162.59418239593506 L 66.9 154.3 L 72.8 146.7 L 81.3 142.3 L 91.6 140.2 L 103.4 140.1 L 116.5 142.0 L 123.31835842132568 143.96211757659913 L 123.5 142.4 L 123.6 138.7 L 123.3 135.5 L 122.7 132.8 L 121.9 130.5 L 120.8 128.7 L 119.5 127.2 L 117.9 125.9 L 117.28888893127441 125.53333330154419 L 117.2 125.5 L 114.9 124.3 L 112.8 122.7 L 111.1 120.9 L 109.6 118.8 L 108.4 116.6 L 107.5 114.2 L 106.7 111.7 L 106.26167459487915 109.42070808410645 L 106.0 109.4 L 106.41881561279297 105.15201349258423 L 98.9 107.6 L 90.7 111.3 L 82.9 115.8 L 75.5 121.1 L 68.96861925125123 126.88493719100953 L 59.3 140.9 L 47.5 158.5 L 34.8 177.8 L 23.1 170.1 L 35.9 150.7 L 47.7 133.1 L 58.7 117.1 L 68.7 102.9 L 77.9 90.4 L 86.2 79.6 L 91.46922369003296 73.03151569366455 L 87.1 74.3 L 81.3 75.9 L 76.1 77.3 L 71.3 78.5 L 67.0 79.5 L 63.2 80.2 L 60.21701135635376 80.74236154556274 L 60.2 80.9 L 57.4 80.4 L 54.7 79.4 L 52.2 78.0 L 49.9 76.3 L 47.9 74.2 L 46.2 71.9 L 44.7 69.4 L 43.5 66.7 L 42.4 63.8 L 41.4 60.7 L 55.0 57.1 L 55.6 59.4 L 56.4 61.3 L 57.1 62.9 L 57.9 64.2 L 58.6 65.2 L 59.3 65.9 L 60.20845069885254 66.50563383102417 L 60.8 66.4 L 64.1 65.8 L 68.1 64.9 L 72.6 63.8 L 77.6 62.4 L 83.2 60.8 L 89.3 59.0 L 95.9 57.0 L 103.1 54.8 L 110.8 52.3 Z M 93.0 154.1 L 85.8 155.5 L 81.4 157.7 L 79.8 159.6 L 79.72197046279908 161.31665019989015 L 79.9 161.3 L 80.8 164.5 L 82.7 166.5 L 86.2 168.1 L 91.1 168.8 L 97.2 168.3 L 103.6 166.5 L 109.9 163.5 L 115.5 159.4 L 117.73622150421143 156.9153094291687 L 113.5 155.7 L 102.4 154.1 Z M 97.4 16.8 L 101.8 18.4 L 105.9 20.3 L 109.8 22.5 L 113.4 24.9 L 116.7 27.6 L 119.6 30.6 L 122.2 33.9 L 124.5 37.4 L 126.4 41.1 L 113.5 46.8 L 112.3 44.3 L 110.9 42.0 L 109.2 39.9 L 107.2 38.0 L 105.0 36.1 L 102.5 34.4 L 99.6 32.8 L 96.5 31.4 L 93.0 30.1 L 89.2 29.0 L 92.7 15.4 Z " />
</g>
</svg>
