<svg xmlns="http://www.w3.org/2000/svg" xmlns:xlink="http://www.w3.org/1999/xlink" version="1.1" baseProfile="full" viewBox="0 0 200 200" width="200" height="200">
<g fill="black">
<path d="M 124.0 81.6 L 127.3 82.8 L 130.6 84.4 L 130.2277756690979 85.04341630935669 L 130.7 84.9 L 131.3 88.8 L 130.8 92.7 L 129.3 96.3 L 127.1 99.3 L 124.5 102.0 L 121.3 104.3 L 120.58865976333618 104.72680416107178 L 120.5 106.5 L 120.4 115.6 L 120.5 125.4 L 120.7 135.6 L 120.8 145.8 L 120.8 155.6 L 120.5 164.9 L 119.8 173.4 L 118.5 180.8 L 116.1 187.3 L 112.55940103530884 185.3713809967041 L 111.6 185.0 L 108.5 183.6 L 105.3 182.0 L 101.9 180.1 L 98.5 178.1 L 95.0 175.8 L 91.3 173.3 L 87.5 170.5 L 83.6 167.6 L 83.36470584869384 167.41176471710205 L 81.2 168.9 L 75.1 172.9 L 69.5 176.4 L 64.2 179.5 L 59.4 182.1 L 54.8 184.3 L 49.1 171.6 L 49.136742973327635 171.58209962844847 L 46.7 168.4 L 50.8 165.1 L 54.9 161.6 L 58.9 157.9 L 62.9 154.1 L 66.7 150.1 L 70.4 146.0 L 72.42302160263061 143.64892082214357 L 72.0 143.8 L 68.8 145.2 L 65.5 146.9 L 61.8 148.9 L 57.9 151.3 L 53.8 154.1 L 45.8 142.6 L 45.94792079925537 142.5013861656189 L 45.8 142.3 L 49.2 139.7 L 52.5 136.9 L 55.5 134.0 L 58.3 131.1 L 60.9 128.0 L 61.989075660705566 126.59327726364135 L 60.3 127.1 L 55.8 128.4 L 54.79025831222534 128.66445617675782 L 54.8 128.7 L 53.90136985778808 128.89726028442382 L 51.6 129.5 L 51.57687864303589 129.40751447677613 L 50.7 129.6 L 46.6 130.1 L 42.6 130.1 L 38.7 129.6 L 35.0 128.4 L 31.5 126.7 L 28.3 124.4 L 25.6 121.7 L 23.2 118.5 L 21.1 115.0 L 33.7 108.7 L 34.9 110.8 L 36.1 112.5 L 37.4 113.8 L 38.7 114.7 L 40.1 115.4 L 41.7 115.9 L 43.6 116.2 L 45.7 116.2 L 48.2 115.9 L 52.1 114.9 L 56.4 113.7 L 61.2 112.2 L 66.3 110.6 L 72.0 108.8 L 78.0 106.7 L 84.5 104.4 L 91.4 102.0 L 98.7 99.3 L 105.1 96.92051286697388 L 107.12236547470093 96.03896894454957 L 107.6 92.6 L 108.7 89.3 L 110.4 86.1 L 113.1 83.4 L 116.7 81.7 L 120.5 81.2 Z M 101.7 154.2 L 95.35818185806275 158.95636367797852 L 95.8 159.3 L 99.4 161.8 L 102.7 164.1 L 105.9 166.2 L 106.32046852111816 166.44414300918578 L 106.5 164.2 L 106.8 155.5 L 106.8 150.3584415435791 Z M 147.2 123.9 L 152.6 125.4 L 157.6 127.7 L 162.2 130.7 L 166.3 134.4 L 169.8 138.8 L 172.8 143.7 L 175.3 149.2 L 177.3 155.1 L 178.8 161.6 L 165.1 164.3 L 163.8 158.9 L 162.3 154.3 L 160.4 150.2 L 158.4 146.8 L 156.1 144.0 L 153.6 141.7 L 150.9 139.9 L 147.8 138.5 L 144.3 137.6 L 140.4 137.0 L 141.5 123.0 Z M 104.2 112.2 L 104.1928804397583 112.17957010269166 L 103.6 112.4 L 96.2 115.1 L 89.2 117.6 L 82.6 119.9 L 82.4398931503296 119.95422973632813 L 82.0 120.9 L 79.8 125.1 L 78.09593267440796 127.89467039108277 L 81.6 127.7 L 84.49506168365478 127.94814815521241 L 84.6 127.8 L 84.85763750076293 127.97922611236572 L 85.1 128.0 L 85.07806453704833 128.13256664276122 L 96.1 135.8 L 92.5 140.9 L 88.7 145.8 L 87.62793292999268 147.15418996810914 L 93.3 143.0 L 100.9 137.3 L 106.64106578826905 132.79435348510742 L 106.5 125.6 L 106.4 115.6 L 106.44476718902588 111.39188385009766 Z M 75.1 18.0 L 77.6 23.0 L 78.6 28.7 L 78.0 34.5 L 76.0 40.2 L 72.9 45.9 L 69.08491563796997 51.13465061187744 L 70.8 50.8 L 74.9 50.1 L 79.1 49.5 L 83.3 49.0 L 84.6 62.9 L 84.04824562072754 62.959649085998535 L 82.31604280471802 65.4342246055603 L 82.9 65.0 L 91.4 76.1 L 87.2 79.3 L 82.9 82.3 L 78.5 85.2 L 74.0 88.0 L 69.5 90.7 L 64.9 93.2 L 60.2 95.7 L 55.4 98.1 L 50.6 100.3 L 45.6 102.4 L 40.90592288970947 90.97479343414307 L 39.7 89.4 L 43.8 86.1 L 47.8 82.8 L 51.5 79.4 L 55.1 76.0 L 58.5 72.6 L 61.7 69.1 L 63.678378391265866 66.79189186096191 L 62.6 67.1 L 59.0 68.2 L 55.5 69.3 L 52.0 70.6 L 48.9809928894043 71.84312057495117 L 48.6 72.2 L 39.3 61.7 L 46.8 54.8 L 52.9 48.6 L 57.7 43.1 L 61.1 38.3 L 63.3 34.4 L 64.3 31.3 L 64.6 29.1 L 64.3 27.4 L 63.4 25.7 L 61.7 23.6 L 71.6 13.7 Z M 141.8 15.6 L 146.0 19.1 L 148.94048748016357 23.36844959259033 L 149.3 23.6 L 146.8 27.4 L 145.68000001907347 29.080000019073488 L 154.62241382598876 38.02241382598877 L 154.7 38.0 L 154.73181819915771 38.13181819915771 L 155.2 38.6 L 154.91133756637572 38.87554140090943 L 155.4 40.9 L 155.5 44.9 L 154.3 49.5 L 151.7 53.9 L 147.8 58.3 L 142.3 63.1 L 134.8 68.7 L 124.8 75.3 L 112.2 83.2 L 96.3 92.5 L 89.3 80.4 L 104.9 71.2 L 117.3 63.5 L 126.7 57.2 L 133.0352518081665 52.54172658920288 L 130.4 53.5 L 127.0 54.6 L 126.78305683135986 53.896257400512695 L 116.5 45.5 L 118.3 43.3 L 120.1 41.0 L 122.1 38.4 L 124.0 35.7 L 126.1 32.9 L 126.48440675735473 32.332542419433594 L 123.0 34.9 L 118.7 38.2 L 114.0 41.9 L 105.5 30.8 L 110.1 27.2 L 114.5 23.8 L 118.7 20.7 L 122.8 18.0 L 126.9 15.7 L 131.5 14.2 L 136.6 14.0 Z " />
</g>
</svg>
