<svg xmlns="http://www.w3.org/2000/svg" xmlns:xlink="http://www.w3.org/1999/xlink" version="1.1" baseProfile="full" viewBox="0 0 200 200" width="200" height="200">
<g fill="black">
<path d="M 94.0 13.8 L 97.0 14.8 L 99.8 16.0 L 102.4 17.6 L 104.8 19.5 L 107.0 21.6 L 109.0 24.0 L 110.7 26.6 L 112.2 29.4 L 113.20210933685303 31.71255989074707 L 113.4 31.8 L 113.31478033065795 31.972569942474365 L 113.5 32.4 L 113.0093804359436 32.59100456237793 L 110.01180124282837 38.66110248565674 L 112.3 39.4 L 119.38704872131348 47.18577184677124 L 119.7 47.1 L 120.3 52.5 L 119.3 57.8 L 117.3 62.9 L 114.3 68.1 L 110.4 73.4 L 105.6 79.0 L 103.45076141357421 81.18629446029664 L 103.6 81.3 L 105.7 83.0 L 107.6 84.7 L 109.4 86.5 L 110.11284046173095 87.30194549560547 L 116.70989761352538 86.24641637802124 L 116.7 85.9 L 123.8 86.0 L 130.3 86.6 L 136.3 87.8 L 141.9 89.7 L 146.9 92.2 L 151.3 95.6 L 155.0 99.6 L 157.8 104.3 L 159.8 109.5 L 160.55280685424805 113.3324712753296 L 160.9 113.3 L 161.2 122.6 L 160.2 131.0 L 157.8 138.6 L 153.7 145.0 L 148.1 150.1 L 141.2 153.4 L 133.4 155.1 L 124.8 155.3 L 115.4 154.3 L 112.49952621459961 153.652321434021 L 111.0 161.0 L 108.3 170.2 L 104.7 178.5 L 100.0 185.7 L 89.2 176.7 L 92.3 172.0 L 95.1 165.5 L 97.4 157.7 L 99.2 148.9 L 100.4 139.4 L 101.3 129.4 L 101.7 119.4 L 101.7 109.5 L 101.566650390625 103.23257055282593 L 100.8 103.4 L 92.7 105.7 L 85.1 108.3 L 78.2 111.3 L 71.9 114.6 L 66.2 118.3 L 61.1 122.3 L 56.5 126.6 L 52.5 131.2 L 46.95 126.95 L 40.7 123.8 L 41.8 121.9 L 43.2 120.2 L 44.9 118.2 L 46.9 115.8 L 49.4 113.1 L 52.3 110.0 L 55.6 106.5 L 59.4 102.7 L 63.6 98.4 L 68.3 93.7 L 68.4546667098999 93.8546667098999 L 76.6 87.1 L 83.8 80.8 L 90.0 74.9 L 95.2 69.6 L 99.4 64.7 L 102.6 60.4 L 104.7 56.7 L 105.9 53.8 L 106.1833333015442 52.38333330154419 L 105.3 51.5 L 102.80583744049072 50.79512796401978 L 99.0 56.3 L 92.9 64.0 L 86.4 70.9 L 79.3 76.7 L 71.8 81.2 L 63.7 83.8 L 55.1 83.8 L 47.3223162651062 80.52025384902954 L 47.0 80.8 L 42.1 70.4 L 44.2 59.8 L 50.7 51.9 L 59.6 45.8 L 69.9 41.0 L 81.0 37.7 L 92.2 36.1 L 95.36015577316284 36.16019344329834 L 97.0 33.3 L 97.56491231918335 32.13789472579956 L 96.7 31.1 L 95.6 30.0 L 94.5 29.1 L 93.3 28.4 L 92.0 27.8 L 90.5 27.4 L 88.9 27.0 L 91.0 13.2 Z M 118.9 100.0 L 115.43192167282105 100.55341672897339 L 115.7 109.4 L 115.7 119.7 L 115.2 130.3 L 114.47847661972045 139.7699948310852 L 117.8 140.5 L 125.5 141.4 L 131.8 141.2 L 136.7 140.2 L 140.3 138.4 L 143.0 136.1 L 145.0 132.8 L 146.5 128.2 L 147.2 122.1 L 147.05847597122192 116.79284830093384 L 147.0 116.8 L 146.3 113.3 L 145.2 110.4 L 143.7 108.0 L 141.9 105.9 L 139.5 104.1 L 136.5 102.6 L 132.8 101.4 L 128.3 100.5 L 123.1 100.0 L 118.89034013748169 99.92983903884888 Z M 84.1 51.4 L 74.8 54.2 L 66.4 58.0 L 60.0 62.4 L 56.6 66.4 L 56.0 68.7 L 56.43140745162964 69.48192596435547 L 57.8 70.1 L 61.3 70.1 L 65.9 68.6 L 71.1 65.4 L 76.7 60.7 L 82.4 54.8 L 85.2391752243042 51.22474222183227 Z " />
</g>
</svg>
