<svg xmlns="http://www.w3.org/2000/svg" xmlns:xlink="http://www.w3.org/1999/xlink" version="1.1" baseProfile="full" viewBox="0 0 200 200" width="200" height="200">
<g fill="black">
<path d="M 150.0 17.7 L 153.6 19.3 L 156.5 21.9 L 158.7 24.8 L 160.4 28.2 L 159.7547728538513 28.475096893310546 L 159.2 32.2 L 158.1 36.7 L 156.9 40.9 L 155.8 44.8 L 155.68192768096924 45.322891521453855 L 156.3 45.3 L 159.2 45.0 L 162.3 44.7 L 165.6 44.6 L 169.5 45.1 L 173.8 47.3 L 177.0 51.2 L 178.5 55.9 L 179.0 60.9 L 178.3456090927124 60.904674243927005 L 178.7 61.2 L 176.7 63.2 L 174.1 65.5 L 170.7 68.2 L 166.4 71.4 L 161.2 75.3 L 155.0 79.8 L 147.9 84.8 L 140.13611431121825 90.33176851272583 L 143.8 103.7 L 141.9 104.4 L 139.7 105.6 L 137.4 107.3 L 134.9 109.7 L 134.20948276519775 110.46724138259887 L 137.8 111.2 L 142.1 113.7 L 145.4 117.4 L 147.6 121.7 L 149.0 126.6 L 149.7 132.0 L 149.93509273529054 136.7018545150757 L 150.0 136.7 L 149.98586959838866 137.71739130020143 L 150.0 138.0 L 149.9819444656372 138.0 L 149.9 143.9 L 149.4 150.7 L 148.2 157.1 L 146.6 163.3 L 144.3 169.1 L 141.5 174.5 L 138.2 179.5 L 134.2 184.1 L 129.7 188.2 L 124.8 191.8 L 117.1 180.1 L 120.9 177.3 L 124.2 174.3 L 127.0 171.0 L 129.5 167.3 L 131.6 163.3 L 133.3 158.9 L 134.6 154.1 L 135.5 148.9 L 135.9 143.2 L 135.98947372436524 137.74210529327394 L 135.8 133.1 L 135.2 129.4 L 134.5 126.7 L 133.7 125.1 L 133.2 124.5 L 132.9 124.3 L 132.3 124.2 L 130.8 124.3 L 128.4 125.1 L 127.52061071395875 125.51221370697021 L 127.1 125.8 L 125.1 127.4 L 123.2 129.4 L 121.2 131.9 L 119.2 134.7 L 117.2 138.0 L 115.3 141.6 L 113.4 145.7 L 100.5 140.2 L 102.7 135.4 L 105.0 131.1 L 108.3 124.5 L 111.5 118.5 L 114.8 113.1 L 118.0 108.2 L 119.23636360168457 106.6 L 119.0 106.6 L 116.2 106.5 L 113.4 106.2 L 110.7 105.8 L 113.14360494613648 92.40904512405396 L 113.0 92.2 L 122.9 85.3 L 131.8 79.1 L 139.8 73.4 L 146.8 68.4 L 152.9 64.0 L 158.0 60.2 L 158.56191234588624 59.77513942718506 L 153.4 61.0 L 147.1 60.1 L 142.1 55.3 L 140.9 50.0 L 141.3 45.5 L 142.2 41.3 L 143.4 37.1 L 144.6 33.0 L 144.6551724433899 32.744827556610105 L 143.1 34.3 L 141.0 36.6 L 130.1 27.8 L 132.9 24.6 L 135.8 21.9 L 138.8 19.7 L 142.1 18.1 L 145.9 17.3 Z M 63.87433824539185 135.45073833465577 L 59.4 133.4 L 55.8 129.1 L 54.6 123.8 L 55.3 118.6 L 57.4 113.5 L 60.7 108.2 L 65.3 102.7 L 69.73697481155395 98.33697481155396 L 69.7 98.3 L 73.1 94.9 L 76.9 90.9 L 77.64545450210571 90.06363639831542 L 76.7 90.3 L 72.9 91.9 L 68.5 94.1 L 65.91252641677856 95.77107667922974 L 63.5 98.5 L 62.443575382232666 99.76424579620361 L 62.1 100.2 L 57.9 105.4 L 53.5 110.8 L 48.9 116.3 L 44.2 122.0 L 39.4 127.7 L 34.4 133.6 L 29.2 139.5 L 18.7 130.4 L 23.8 124.5 L 28.7 118.7 L 33.5 113.0 L 38.1 107.4 L 40.19963436126709 104.88043870925904 L 40.1 104.8 L 46.6 96.9 L 49.264179134368895 93.72835817337037 L 51.1 91.4 L 55.2 86.3 L 59.1 81.4 L 61.58374471664429 78.11071643829345 L 57.2 79.9 L 52.5 81.7 L 49.95833854675293 82.62424058914185 L 50.0 82.9 L 48.925 83.0 L 48.1 83.3 L 48.02834606170654 83.08340969085694 L 45.7 83.3 L 41.5 83.3 L 37.4 82.8 L 33.6 81.7 L 30.0 80.0 L 26.7 77.6 L 23.9 74.8 L 21.6 71.4 L 19.8 67.8 L 18.5 63.8 L 32.0 60.0 L 32.8 62.5 L 33.7 64.4 L 34.8 65.9 L 35.9 67.0 L 37.1 67.9 L 38.5 68.6 L 40.2 69.1 L 42.4 69.4 L 44.9 69.4 L 45.65 69.3 L 47.6 68.6 L 51.9 66.9 L 56.6 65.0 L 57.9996579170227 64.38415050506592 L 57.8 64.2 L 60.0 61.6 L 61.9 58.8 L 63.5 55.7 L 64.8 52.4 L 65.50384778976441 50.03251190185547 L 60.8 50.4 L 54.9 50.2 L 49.5 49.3 L 44.4 47.6 L 39.9 44.8 L 36.1 41.1 L 47.0 32.4 L 48.4 33.7 L 50.3 34.9 L 52.9 35.8 L 56.2 36.3 L 60.4 36.4 L 65.3 36.0 L 67.5 35.620689678192136 L 67.5 30.9 L 67.36443510055543 29.10376567840576 L 66.9 28.5 L 65.8 27.3 L 64.6 26.3 L 63.4 25.5 L 61.9 24.7 L 60.4 24.1 L 58.6 23.6 L 56.7 23.2 L 54.5 23.0 L 55.4 9.0 L 58.7 9.4 L 61.8 10.0 L 64.9 10.9 L 67.8 12.0 L 70.5 13.5 L 73.1 15.2 L 75.5 17.2 L 77.6 19.4 L 79.5 21.9 L 80.87068138122558 24.21302490234375 L 81.0 24.2 L 81.02199764251709 24.46837100982666 L 81.1 24.6 L 81.0356595993042 24.635047245025635 L 81.5 30.3 L 81.5 32.16056337356567 L 84.6 31.2 L 92.5 28.4 L 97.4 41.5 L 89.1 44.5 L 81.2 46.9 L 80.58883247375488 47.05279188156128 L 79.5 52.2 L 78.87049179077148 54.35831384658813 L 84.9 51.2 L 91.6 47.7 L 98.6 43.8 L 99.4857852935791 45.426143169403076 L 107.2 55.5 L 102.3 59.4 L 97.3 63.7 L 92.1 68.4 L 86.7 73.5 L 84.675 75.525 L 87.8 75.9 L 89.70891084671021 76.61584157943726 L 90.6 75.6 L 96.0 69.5 L 101.8 62.8 L 108.0 55.5 L 114.6 47.8 L 121.6 39.5 L 132.3 48.4 L 125.3 56.8 L 118.7 64.6 L 112.4 71.9 L 106.6 78.7 L 101.1 84.9 L 100.85763959884643 85.17629079818725 L 102.61580114364624 87.93911600112915 L 102.7 87.9 L 102.77578945159912 88.19052629470825 L 103.1 88.7 L 102.93187322616578 88.78884744644165 L 104.5 94.8 L 104.3 101.7 L 102.4 108.3 L 99.4 114.7 L 95.4 120.7 L 90.5 126.0 L 84.8 130.5 L 78.4 134.0 L 71.4 135.9 L 63.8 135.9 Z M 87.1 100.4 L 83.2 104.6 L 79.6 108.2 L 79.55 108.15 L 75.6 112.1 L 72.0 116.5 L 69.8 120.0 L 69.0761194229126 121.73731346130371 L 69.9 121.6 L 70.00143041610718 121.92119636535645 L 73.1 121.0 L 77.0 118.9 L 80.9 115.8 L 84.4 112.0 L 87.3 107.7 L 89.3 103.4 L 90.5 99.4 L 90.58259286880494 96.67443552017212 Z M 63.68874320983887 77.18056907653809 L 63.731302452087405 77.21315956115723 L 63.811643505096434 77.12491617202758 Z M 159.13830270767212 59.14243116378784 L 159.19321269989013 59.297814750671385 L 159.43201665878297 59.11725568771362 Z " />
</g>
</svg>
