<svg xmlns="http://www.w3.org/2000/svg" xmlns:xlink="http://www.w3.org/1999/xlink" version="1.1" baseProfile="full" viewBox="0 0 200 200" width="200" height="200">
<g fill="black">
<path d="M 163.5 40.5 L 163.3704140663147 40.54582920074463 L 158.3 48.4 L 153.0 56.2 L 147.6 63.8 L 142.0 71.2 L 136.3 78.6 L 130.3 85.7 L 124.2 92.8 L 117.9 99.6 L 111.5 106.4 L 104.8 113.0 L 104.77175912857055 112.97059450149536 L 104.12745094299316 113.69803924560547 L 104.5 113.6 L 110.5 114.0 L 116.0 116.3 L 120.7 120.0 L 124.7 124.8 L 128.3 130.7 L 128.40450782775878 130.9286108970642 L 129.1 130.2 L 131.3 128.2 L 135.9 124.2 L 138.4 122.3 L 140.9 120.5 L 143.6 118.7 L 146.3 117.0 L 146.38485288619995 117.13832187652588 L 147.3 116.6 L 151.1 115.1 L 155.2 114.2 L 159.6 114.2 L 164.2 115.4 L 168.5 118.0 L 172.1 121.9 L 174.6 126.9 L 176.2 132.8 L 176.83823528289795 139.0 L 177.0 139.0 L 176.4 143.9 L 174.7 148.6 L 172.2 153.0 L 168.9 157.4 L 164.8 161.7 L 160.1 166.0 L 154.5 170.4 L 148.3 174.8 L 141.2 179.4 L 133.4 184.0 L 126.5 171.9 L 133.9 167.5 L 140.4 163.2 L 146.2 159.2 L 151.0 155.3 L 155.1 151.7 L 158.2 148.3 L 160.5 145.3 L 162.0 142.7 L 162.7 140.6 L 162.90487804412842 139.50731706619263 L 162.4 135.3 L 161.5 131.8 L 160.5 129.8 L 159.6 128.8 L 158.9 128.3 L 158.0 128.1 L 156.8 128.1 L 155.2 128.5 L 153.4 129.2 L 151.7 130.2 L 151.64673748016358 130.1207890510559 L 151.2 130.4 L 148.9 132.0 L 144.7 135.2 L 142.7 136.8 L 140.7 138.5 L 138.9 140.2 L 137.2 142.0 L 134.39085960388184 145.16028289794923 L 134.6 145.7 L 121.3 150.2 L 118.6 143.1 L 115.9 137.3 L 113.3 132.9 L 110.8 129.9 L 108.8 128.3 L 107.98075113296508 127.91768388748169 L 107.1 128.4 L 103.1 130.7 L 99.3 133.0 L 95.7 135.3 L 92.3 137.6 L 89.1 139.8 L 86.2 142.0 L 83.4 144.2 L 80.8 146.3 L 78.4 148.4 L 76.6225806236267 146.47290325164795 L 67.2 140.0 L 71.7 133.4 L 76.0 127.2 L 80.1 121.5 L 84.1 116.3 L 87.8 111.5 L 91.3 107.2 L 94.6 103.3 L 97.8 99.9 L 100.8 96.8 L 103.66537313461303 94.32985076904296 L 107.7 90.1 L 113.8 83.4 L 119.6 76.7 L 125.4 69.8 L 130.9 62.7 L 136.3 55.5 L 141.5 48.2 L 142.35998821258545 46.93531141281128 L 139.1 47.7 L 131.1 49.1 L 123.0 50.0 L 115.0 50.4 L 107.0 50.3 L 99.1 49.7 L 91.2 48.6 L 83.3 47.0 L 86.5 33.4 L 93.5 34.8 L 100.6 35.8 L 107.6 36.3 L 114.7 36.4 L 121.9 36.0 L 129.1 35.2 L 136.3 34.0 L 143.6 32.2 L 151.0 30.1 L 158.4 27.4 Z M 48.6 22.2 L 45.3 41.5 L 42.7 59.8 L 40.9 77.0 L 39.9 93.2 L 39.7 108.4 L 40.1 122.5 L 41.4 135.6 L 41.97313432693481 139.0388059616089 L 42.4 137.7 L 45.2 130.1 L 48.3 121.8 L 52.0 112.8 L 56.1 103.1 L 69.0 108.6 L 64.9 118.2 L 61.4 127.0 L 58.3 135.0 L 55.7 142.3 L 53.5 148.8 L 51.9 154.4 L 50.7 159.3 L 50.0 163.2 L 49.8 166.1 L 49.9 167.9 L 49.26529684066772 167.99589042663575 L 49.4 168.4 L 36.5 173.5 L 32.6 162.4 L 29.6 150.3 L 27.5 137.3 L 26.2 123.4 L 25.7 108.5 L 25.9 92.7 L 27.0 75.9 L 28.8 58.1 L 31.5 39.3 L 34.9 19.6 Z " />
</g>
</svg>
