<svg xmlns="http://www.w3.org/2000/svg" xmlns:xlink="http://www.w3.org/1999/xlink" version="1.1" baseProfile="full" viewBox="0 0 200 200" width="200" height="200">
<g fill="black">
<path d="M 147.1 24.3 L 145.1 28.0 L 143.1 31.9 L 141.0 36.0 L 138.9 40.4 L 136.7 45.1 L 134.4 50.1 L 132.1 55.4 L 129.7 60.9 L 127.3 66.6 L 126.7785574913025 67.87231969833374 L 130.2 68.3 L 138.3 70.4 L 145.5 73.5 L 151.9 77.8 L 157.2 83.1 L 161.4 89.3 L 164.4 96.5 L 166.2 104.3 L 166.71957178115844 110.60908632278442 L 166.9 110.6 L 166.9 119.6 L 165.8 128.3 L 163.8 136.6 L 160.7 144.5 L 156.6 152.1 L 151.5 159.1 L 145.5 165.7 L 138.6 171.8 L 130.8 177.4 L 122.2 182.6 L 115.5 170.3 L 123.2 165.7 L 129.9 160.9 L 135.7 155.7 L 140.7 150.3 L 144.7 144.6 L 148.0 138.6 L 150.4 132.4 L 152.1 125.7 L 152.9 118.7 L 152.9788649559021 112.86399221420288 L 152.4 106.4 L 151.0 100.7 L 149.0 95.9 L 146.4 92.0 L 143.0 88.6 L 138.9 85.9 L 133.8 83.7 L 127.6 82.1 L 120.4 81.1 L 112.1 80.9 L 111.81080875396728 67.40440664291381 L 111.8 67.4 L 111.8102014541626 67.37606592178345 L 111.8 66.9 L 112.01031341552735 66.90657234191895 L 114.4 61.3 L 116.8 55.4 L 119.2 49.8 L 121.6 44.4 L 123.9 39.3 L 125.98316497802735 34.86195287704468 L 124.1 35.4 L 118.8 37.0 L 113.0 38.8 L 106.9 40.7 L 100.3 42.9 L 93.3 45.1 L 89.5006833076477 46.383552932739256 L 90.1 49.5 L 90.2 58.1 L 89.2 67.5 L 87.3 77.7 L 84.8 88.5 L 81.6 99.7 L 78.0 111.3 L 74.1 122.9 L 70.0 134.4 L 69.936923122406 134.57076921463013 L 69.3 136.8 L 67.9 140.9 L 66.2 144.9 L 64.3 148.8 L 62.1 152.6 L 59.7 156.3 L 57.1 159.9 L 54.2 163.4 L 51.1 166.8 L 47.7 170.1 L 47.10459613800049 169.45445680618286 L 34.2 166.3 L 34.5 164.4 L 34.8 162.3 L 34.9 160.0 L 34.8 157.5 L 34.6 154.7 L 34.2 151.8 L 33.6 148.7 L 32.8 145.3 L 31.8 141.8 L 30.6 138.1 L 43.9 133.7 L 45.2 137.8 L 46.3 141.9 L 47.2 145.7 L 47.84832715988159 148.77955389022827 L 48.2 148.3 L 50.2 145.3 L 51.9 142.2 L 52.85555553436279 140.34861106872557 L 56.77889184951782 129.6575198173523 L 56.9 129.2 L 56.941379356384275 129.21034479141235 L 60.9 118.3 L 64.7 106.9 L 68.2 95.8 L 71.2 84.9 L 73.7 74.7 L 75.4 65.4 L 76.2 57.3 L 76.2 50.7 L 75.95040655136108 49.45203256607056 L 71.9 50.4 L 67.4 51.3 L 63.1 52.2 L 59.0 52.9 L 58.956799793243405 52.614055728912355 L 58.7 53.1 L 55.4 51.2 L 52.4 49.2 L 49.7 46.9 L 47.3 44.5 L 45.3 41.8 L 43.7 38.9 L 42.5 35.8 L 41.8 32.5 L 41.6 29.2 L 41.9 25.9 L 55.7 28.0 L 55.6 29.4 L 55.7 30.6 L 55.9 31.8 L 56.4 32.9 L 57.0 34.1 L 58.0 35.3 L 59.2 36.7 L 60.8 38.0 L 61.215384578704835 38.27692308425903 L 64.6 37.6 L 68.8 36.7 L 73.3 35.7 L 78.0 34.5 L 82.9 33.2 L 88.0 31.7 L 93.4 30.2 L 99.0 28.4 L 104.8 26.6 L 104.82978677749634 26.692131137847902 L 108.9 25.4 L 114.7 23.6 L 120.2 22.0 L 125.3 20.6 L 129.9 19.3 L 134.3 18.2 L 134.3516508102417 18.411298561096192 L 134.8 17.6 Z " />
</g>
</svg>
