<svg xmlns="http://www.w3.org/2000/svg" xmlns:xlink="http://www.w3.org/1999/xlink" version="1.1" baseProfile="full" viewBox="0 0 200 200" width="200" height="200">
<g fill="black">
<path d="M 86.3 56.8 L 87.21048946380616 65.83986015319825 L 87.7 65.7 L 88.6 65.4 L 88.61394662857056 65.43887243270873 L 91.9 64.5 L 96.8 62.8 L 106.8 59.4 L 111.8 57.8 L 116.8 56.5 L 121.9 55.5 L 126.9 55.0 L 130.39119863510132 55.13690977096557 L 130.4 55.0 L 133.8 55.4 L 137.1 56.2 L 140.2 57.5 L 143.0 59.2 L 145.6 61.4 L 147.6 64.1 L 149.2 67.0 L 150.2 70.2 L 150.8 73.5 L 150.85209741592408 74.41170454025269 L 151.0 74.4 L 150.91475410461425 75.50819673538209 L 151.0 77.0 L 150.8 77.0 L 150.6 79.6 L 148.4 84.4 L 144.8 87.9 L 140.6 90.0 L 136.1 91.2 L 131.4 91.8 L 126.3 92.0 L 120.9 91.8 L 115.2 91.5 L 109.3 90.9 L 110.6 77.0 L 116.3 77.5 L 121.6 77.8 L 126.3 78.0 L 130.3 77.8 L 133.6 77.4 L 135.8 76.9 L 136.9 76.3 L 136.96341466903687 76.26829271316528 L 136.9 75.0 L 136.6 73.5 L 136.2 72.4 L 135.8 71.6 L 135.3 71.0 L 134.8 70.5 L 134.0 70.0 L 132.9 69.6 L 132.71655168533326 69.55108041763306 L 132.7 69.6 L 130.4 69.1 L 127.4 69.0 L 124.0 69.3 L 120.1 70.1 L 115.8 71.3 L 111.2 72.7 L 106.4 74.4 L 101.4 76.1 L 96.1 77.8 L 90.8 79.4 L 90.79026775360107 79.36542491912842 L 87.95544242858887 80.34295091629028 L 88.1 85.8 L 88.35484504699707 99.05194463729859 L 96.9 96.4 L 106.3 95.0 L 110.56586418151855 94.91468267440796 L 111.2 93.7 L 113.5115385055542 94.8557692527771 L 116.3 94.8 L 126.4 95.7 L 136.5 97.7 L 146.3 100.8 L 155.4 105.0 L 163.6 110.4 L 170.4 117.1 L 173.6466950416565 122.35964593887329 L 173.9 122.2 L 174.66160335540772 124.0037974357605 L 175.4 125.2 L 175.20226278305054 125.28430652618408 L 175.8 126.7 L 176.6 131.3 L 176.4 135.9 L 175.5 140.4 L 174.1 144.8 L 172.1 149.1 L 169.6 153.2 L 166.7 157.0 L 163.4 160.4 L 161.74782609939575 161.66086959838867 L 157.7 164.8 L 152.5 168.4 L 147.1 171.7 L 141.3 174.7 L 135.3 177.5 L 129.0 180.1 L 122.5 182.4 L 115.7 184.4 L 108.6 186.3 L 101.3 187.8 L 98.6 174.1 L 105.4 172.6 L 111.9 171.0 L 118.1 169.1 L 124.1 167.0 L 129.7 164.7 L 135.1 162.2 L 140.1 159.5 L 144.9 156.6 L 149.5 153.5 L 152.0152732849121 151.52371377944945 L 152.0 151.5 L 153.5 150.35714282989503 L 153.7 150.2 L 153.70241060256959 150.2029252052307 L 154.1 149.9 L 156.1 147.9 L 158.0 145.4 L 159.7 142.6 L 161.0 139.7 L 162.0 136.8 L 162.5 134.2 L 162.6 132.0 L 162.40677967071534 130.55084743499756 L 159.5 125.9 L 154.9 121.4 L 148.7 117.3 L 141.3 113.9 L 133.1 111.3 L 124.4 109.6 L 121.32453327178955 109.31391010284423 L 121.6 113.4 L 122.1 121.7 L 122.5 129.3 L 122.9 136.3 L 123.2 142.6 L 123.5 148.3 L 123.7 153.4 L 123.8 157.9 L 123.9 161.7 L 123.97387094497681 164.13774194717408 L 124.1 164.9 L 123.99696969985962 164.9 L 124.0 165.0 L 110.0 165.0 L 109.99677419662476 164.9 L 106.1 164.9 L 92.0 158.5 L 88.58757314682006 154.30864963531494 L 87.1 156.0 L 79.7 162.9 L 72.2 168.4 L 64.5 172.3 L 56.6 174.5 L 51.488321685791014 174.75242853164673 L 51.5 174.9 L 46.9 175.0 L 42.5 174.4 L 38.2 173.1 L 34.2 171.3 L 30.6 168.8 L 27.4 165.6 L 25.1 161.7 L 23.7 157.1 L 23.7 152.1 L 25.1 147.2 L 25.517510414123535 147.37477178573607 L 25.1 147.1 L 29.1 141.5 L 33.6 136.1 L 38.7 130.9 L 44.4 125.8 L 50.5 120.9 L 57.2 116.2 L 64.4 111.7 L 72.2 107.3 L 74.63765830993653 106.05144329071045 L 74.4 101.8 L 74.1 86.0 L 74.0488522529602 84.13310613632203 L 68.8 85.1 L 61.8 85.8 L 55.4 85.7 L 49.3 84.5 L 43.9 82.4 L 39.1 79.0 L 35.3 74.5 L 32.7 69.3 L 45.9 64.5 L 47.1 66.9 L 48.5 68.7 L 50.5 70.0 L 53.1 71.1 L 56.7 71.7 L 61.3 71.8 L 66.8 71.3 L 73.2 70.1 L 73.56236610412597 70.00072164535523 L 72.5 59.2 L 70.1 50.9 L 82.7 44.8 Z M 75.83179998397827 121.2902250289917 L 71.6 123.7 L 65.0 127.9 L 58.9 132.2 L 53.4 136.5 L 48.4 141.0 L 44.0 145.5 L 40.1 150.1 L 37.788925075531004 153.3915309906006 L 37.6 154.1 L 37.6 155.1 L 37.8 156.0 L 38.4 157.0 L 39.5 158.1 L 41.0 159.1 L 43.0 160.0 L 45.3 160.7 L 47.8 161.0 L 49.4 161.0 L 54.2 160.7 L 59.4 159.2 L 64.9 156.4 L 70.8 152.1 L 77.0 146.3 L 80.86798973083496 141.89644241333008 L 77.7 133.2 Z M 101.7 137.9 L 97.50423812866211 143.53266668319702 L 100.7 147.6 L 108.8 151.2 L 109.59151287078858 151.18782291412353 L 109.5 148.9 L 109.2 143.3 L 108.9 137.0 L 108.5 130.1 L 108.37178115844726 127.66384258270264 Z M 99.9 110.1 L 94.8245982170105 111.63067674636841 L 94.9 111.8 L 89.09187507629395 114.45914154052734 L 89.2 116.5 L 91.15973215103149 128.52562894821168 L 97.1 119.4 L 102.71595058441162 109.69242820739746 Z M 73.2 17.4 L 77.9 19.6 L 82.9 21.4 L 88.0 22.7 L 93.3 23.6 L 98.8 24.1 L 104.5 24.1 L 110.5 23.6 L 116.7 22.6 L 123.2 21.2 L 126.7 34.7 L 119.4 36.4 L 112.2 37.5 L 105.1 38.1 L 98.3 38.1 L 91.5 37.5 L 85.0 36.4 L 78.7 34.8 L 72.5 32.5 L 66.6 29.7 L 61.0 26.4 L 68.6 14.6 Z " />
</g>
</svg>
