<svg xmlns="http://www.w3.org/2000/svg" xmlns:xlink="http://www.w3.org/1999/xlink" version="1.1" baseProfile="full" viewBox="0 0 200 200" width="200" height="200">
<g fill="black">
<path d="M 87.3 14.7 L 91.9 15.9 L 96.0 19.4 L 98.0 24.5 L 97.8 29.2 L 96.4 33.6 L 95.73855848312378 33.328244972229 L 93.0 37.2 L 89.2 41.3 L 84.5 45.7 L 78.8 50.5 L 74.29283504486084 54.065369319915774 L 75.1 53.8 L 82.8 51.3 L 90.8 48.6 L 90.83067598342896 48.69272508621216 L 91.0 48.6 L 96.9 61.3 L 94.1 62.8 L 90.9 65.0 L 87.4 67.7 L 83.7 71.1 L 79.6 75.1 L 75.4 79.7 L 70.9 84.9 L 66.2 90.7 L 61.3 97.2 L 60.58234806060791 98.18501253128052 L 60.6 98.2 L 59.893103408813474 99.13103446960449 L 56.2 104.2 L 56.171109962463376 104.17947292327881 L 54.804376411437985 106.58752737045288 L 54.9 106.6 L 59.9 106.3 L 67.2 105.0 L 72.71879281997681 103.64965705871582 L 72.8 103.0 L 73.6 99.9 L 78.4 95.1 L 86.7 97.6 L 87.68339262008666 99.33539867401123 L 87.8 99.3 L 87.98156538009644 99.86158599853516 L 88.4 100.6 L 89.5 103.6 L 90.5 107.3 L 90.39495649337769 107.32626085281372 L 90.8949444770813 108.8727352142334 L 95.6 101.4 L 100.2 92.8 L 112.8 98.9 L 107.7 108.4 L 102.1 117.4 L 95.7 126.0 L 88.8 134.2 L 86.47981243133545 136.58124513626097 L 86.5 138.6 L 86.1 147.4 L 85.4 155.3 L 84.3 162.1 L 82.7 168.1 L 80.4 173.3 L 77.2 177.6 L 72.5 180.8 L 67.0 182.0 L 67.0 181.66000003814696 L 66.1 180.4 L 64.9 178.9 L 63.5 177.3 L 61.9 175.7 L 60.1 174.1 L 58.1 172.4 L 55.9 170.7 L 53.5 169.0 L 50.9 167.2 L 49.07856330871582 166.02907638549806 L 44.7 168.7 L 35.2701678276062 173.54710998535157 L 34.7 174.1 L 34.53743686676025 173.9237473487854 L 34.0 174.2 L 33.109871292114256 172.3759656906128 L 25.2 163.8 L 27.9 161.1 L 30.7 158.2 L 33.4 155.0 L 36.1 151.5 L 38.8 147.7 L 41.6 143.6 L 44.2 139.3 L 46.9 134.7 L 49.6 129.9 L 52.2 124.7 L 64.8 131.0 L 62.0 136.4 L 59.1 141.6 L 58.21050424575806 143.1029411315918 L 64.0 138.6 L 71.5 131.9 L 72.42159671783448 130.9516902923584 L 72.4 128.9 L 72.10188674926758 121.0 L 72.0 121.0 L 72.0 118.25445547103882 L 70.2 118.7 L 61.6 120.2 L 54.4 120.6 L 48.0 119.5 L 42.1 115.3 L 39.9 108.1 L 41.5 101.7 L 44.9 95.7 L 47.45 92.45 L 50.1 88.8 L 55.2 82.1 L 60.1 76.0 L 63.1375 72.45625 L 58.6 73.9 L 52.4 75.9 L 46.5 77.8 L 41.0 79.6 L 35.8 81.2 L 31.0 82.6 L 26.9 69.3 L 27.68896551132202 69.05344829559326 L 37.8 62.5 L 47.5 56.0 L 56.2 50.0 L 63.6 44.6 L 70.0 39.6 L 75.3 35.2 L 79.3 31.4 L 81.68356161117553 28.852054786682128 L 80.5 29.0 L 76.1 30.1 L 70.7 31.8 L 64.4 34.1 L 59.3 21.1 L 66.2 18.5 L 72.3 16.6 L 77.8 15.3 L 82.7 14.6 Z M 145.1 39.3 L 150.3 42.8 L 152.0 47.6 L 151.9 51.7 L 151.0 55.8 L 150.7916666984558 56.425 L 150.7 56.9 L 149.2 62.4 L 147.6 67.9 L 145.7 73.3 L 143.5 78.5 L 141.1 83.7 L 139.05311651229857 87.71504068374634 L 141.8 87.2 L 146.3 86.5 L 150.5 85.8 L 153.42769746780397 85.28765296936035 L 154.0 80.9 L 167.9 83.0 L 167.89767446517945 83.017054271698 L 168.0 83.0 L 169.9 96.9 L 167.1 97.3 L 166.04840993881226 97.46431093215942 L 165.5 102.4 L 165.0 108.7 L 164.7 114.8 L 164.68667879104615 115.06642332077027 L 167.1 119.7 L 167.9 125.1 L 167.2 130.4 L 165.1 135.4 L 164.53820962905883 136.26986904144286 L 164.6 138.0 L 164.8733485221863 143.011389541626 L 165.4 143.6 L 154.5 152.3 L 154.3 152.1 L 153.4 151.4 L 152.1324420928955 150.61996431350707 L 147.2 154.8 L 140.4 159.9 L 135.73140573501587 163.07224988937378 L 138.7 163.6 L 145.2 164.0 L 153.5 164.1 L 163.6 163.7 L 175.4 163.0 L 176.5 176.9 L 164.3 177.7 L 153.7 178.1 L 144.7 178.0 L 137.1 177.5 L 130.8 176.4 L 125.5 174.4 L 120.8 170.3 L 119.3 163.3 L 121.7 157.6 L 125.07733573913575 153.86715517044067 L 124.9 153.6 L 132.2 148.5 L 138.31150999069214 143.94061946868896 L 134.8 142.5 L 130.4 140.9 L 130.51742582321168 140.58366928100585 L 127.5 137.3 L 125.6 132.7 L 125.5 127.7 L 127.1 123.0 L 130.2 119.0 L 134.4 115.8 L 139.5 113.5 L 145.6 112.1 L 150.85274333953856 111.65610618591309 L 151.1 107.7 L 151.6 101.2 L 151.74886074066163 99.7751898765564 L 148.6 100.3 L 144.2 101.0 L 139.4 101.9 L 134.4 102.7 L 129.2 103.7 L 129.11641397476197 103.238604927063 L 117.9 95.0 L 120.9 90.7 L 123.7 86.4 L 126.2 82.0 L 128.6 77.5 L 130.7 73.0 L 132.6 68.3 L 134.3 63.5 L 135.8 58.7 L 136.1116883277893 57.401298713684085 L 133.2 59.7 L 124.3 48.9 L 128.7 45.4 L 132.6 42.7 L 136.3 40.6 L 140.2 39.2 Z M 64.1 156.2 L 61.83703699111938 157.740740776062 L 64.3 159.5 L 66.9 161.5 L 69.3 163.6 L 69.44063930511474 163.72785387039184 L 69.5 163.6 L 70.6 159.3 L 71.5 153.6 L 71.8400731086731 150.19926919937134 Z M 147.7 125.9 L 144.0 126.8 L 141.5 127.9 L 140.0 129.0 L 139.65395345687867 129.40372095108032 L 139.9 129.5 L 144.0 131.1 L 147.8 132.7 L 149.44910182952881 133.47604789733887 L 150.39618530273438 132.37111721038818 L 150.3 126.6 L 150.31459789276124 125.69493350982665 Z M 86.02100868225098 114.45460748672485 L 86.0 115.4 L 86.0 115.62931032180786 L 87.10530824661255 114.12380428314209 Z M 39.5 29.5 L 39.1 32.0 L 38.8 34.2 L 38.9 36.1 L 39.1 37.7 L 39.5 39.0 L 40.0 40.1 L 40.6 41.1 L 41.5 42.0 L 42.6 42.8 L 44.1 43.7 L 37.8 56.2 L 34.8 54.5 L 32.1 52.3 L 29.7 49.8 L 27.8 47.0 L 26.3 43.9 L 25.4 40.6 L 24.9 37.2 L 24.9 33.6 L 25.2 30.0 L 25.9 26.3 Z " />
</g>
</svg>
