<svg xmlns="http://www.w3.org/2000/svg" xmlns:xlink="http://www.w3.org/1999/xlink" version="1.1" baseProfile="full" viewBox="0 0 200 200" width="200" height="200">
<g fill="black">
<path d="M 86.1 29.9 L 95.4 45.2 L 103.98317756652833 60.51316909790039 L 106.1 60.0 L 116.3 56.6 L 126.7 51.9 L 137.2 46.2 L 147.9 39.2 L 156.0 50.7 L 144.4 58.2 L 132.9 64.5 L 121.5 69.6 L 110.69182510375977 73.26538105010987 L 112.6 76.9 L 120.4 93.2 L 125.89375610351563 105.5980712890625 L 126.0 105.5 L 129.3 101.9 L 131.9 98.4 L 133.9 94.9 L 135.3 91.5 L 136.3 88.1 L 136.7 84.6 L 136.7 81.1 L 136.1 77.4 L 149.8 74.5 L 150.6 79.9 L 150.7 85.4 L 150.0 90.8 L 148.6 96.1 L 146.4 101.2 L 143.6 106.1 L 140.1 110.8 L 136.0 115.4 L 131.69110317230223 119.34982204437256 L 134.8 126.9 L 141.2 144.3 L 147.2 162.0 L 152.7 180.0 L 139.2 183.9 L 133.9 166.3 L 128.0 149.0 L 121.7 132.0 L 120.37440919876099 128.71570053100587 L 119.1 129.9 L 109.6 138.5 L 100.4 146.5 L 91.7 153.9 L 83.4 160.6 L 75.4 166.7 L 67.8 172.3 L 60.6 177.2 L 53.7 181.4 L 47.2 185.1 L 40.7 172.8 L 46.6 169.4 L 52.9 165.4 L 59.7 160.8 L 67.0 155.5 L 74.7 149.6 L 82.8 143.1 L 91.3 135.9 L 100.3 128.1 L 109.6 119.6 L 114.74243268966674 114.8248839378357 L 107.7 99.1 L 100.1 83.1 L 96.60923519134522 76.45903282165527 L 87.4 77.6 L 76.2 77.8 L 65.1 76.7 L 54.1 74.4 L 43.3 70.8 L 48.4 57.8 L 57.8 60.9 L 67.2 62.9 L 76.7 63.8 L 86.4 63.7 L 89.51612339019775 63.28663673400879 L 83.3 52.3 L 74.2 37.3 L 64.7 22.7 L 76.3 14.9 Z " />
</g>
</svg>
