<svg xmlns="http://www.w3.org/2000/svg" xmlns:xlink="http://www.w3.org/1999/xlink" version="1.1" baseProfile="full" viewBox="0 0 200 200" width="200" height="200">
<g fill="black">
<path d="M 94.3 15.1 L 100.5 19.6 L 104.3 26.3 L 104.8 33.9 L 102.6 41.4 L 98.3 48.9 L 92.1 56.7 L 90.39072370529175 58.516106033325194 L 96.3 56.5 L 105.7 53.3 L 115.9 50.0 L 126.63345756530762 46.68238582611084 L 126.7 46.6 L 126.75923528671265 46.64350910186768 L 126.9 46.6 L 126.96040019989013 46.79126739501953 L 138.0 54.9 L 135.4 58.2 L 131.2 63.1 L 125.3 69.8 L 117.6 78.3 L 108.2 88.6 L 97.1 100.8 L 96.30718545913696 101.66041889190674 L 99.3 106.0 L 102.5 112.8 L 105.0 120.4 L 106.50419158935547 127.5031270980835 L 107.1 127.0 L 112.0 123.7 L 117.1 120.9 L 122.6 118.6 L 128.2 116.7 L 134.2 115.3 L 140.3 114.4 L 146.0 114.04375 L 146.0 114.0 L 146.33870964050294 114.02258062362671 L 146.7 114.0 L 146.70167064666748 114.04677801132202 L 149.0 114.2 L 151.9 115.0 L 154.7 116.1 L 157.3 117.6 L 159.8 119.5 L 162.3 121.6 L 164.7 124.0 L 167.0 126.7 L 169.4 129.7 L 171.54494380950928 132.77752809524537 L 171.7 132.7 L 173.8 139.4 L 173.5 146.4 L 171.1 152.9 L 166.9 158.7 L 161.4 164.1 L 154.6 169.3 L 146.6 174.5 L 137.2 179.7 L 126.6 185.0 L 114.8 190.4 L 109.1 177.5 L 120.6 172.3 L 130.7 167.3 L 139.4 162.5 L 146.7 157.8 L 152.3 153.5 L 156.4 149.5 L 158.8 146.1 L 159.8 143.5 L 159.9 141.3 L 159.34406776428222 139.70169486999512 L 158.2 138.1 L 156.2 135.7 L 154.4 133.6 L 152.7 131.8 L 151.1 130.4 L 149.6 129.4 L 148.4 128.7 L 147.4 128.2 L 146.70909090042113 128.02727270126343 L 141.8 128.3 L 136.8 129.1 L 132.0 130.2 L 127.5 131.7 L 123.3 133.5 L 119.3 135.7 L 115.5 138.2 L 112.0 141.2 L 108.6 144.5 L 105.5 148.2 L 94.4 139.7 L 94.60573396682739 139.45206422805785 L 94.0 139.5 L 93.0 131.2 L 91.5 124.0 L 89.5 117.9 L 87.2 113.0 L 86.62837743759155 112.16455163955689 L 84.2 114.8 L 69.6 130.6 L 53.2 148.2 L 35.1 167.7 L 24.8 158.2 L 25.14094638824463 157.83268203735352 L 25.1 157.8 L 25.3 157.5 L 25.9 156.5 L 26.6 154.9 L 27.6 152.8 L 28.6 150.2 L 29.7 147.2 L 31.0 143.8 L 32.3 139.9 L 33.7 135.6 L 35.3 130.8 L 46.79755744934082 134.51725540161132 L 59.3 121.1 L 73.9 105.3 L 75.69566774368286 103.35121335983277 L 75.0 103.1 L 70.8 102.6 L 65.8 102.8 L 64.1 88.9 L 71.4 88.6 L 78.2 89.5 L 84.7 91.8 L 85.73624048233032 92.45446767807007 L 86.8 91.3 L 97.9 79.2 L 107.2 68.9 L 108.96559944152833 66.94854803085327 L 100.8 69.7 L 92.4 72.6 L 84.9 75.3 L 78.2 77.9 L 72.4 80.2 L 67.6 82.4 L 63.6 84.3 L 60.6 86.0 L 53.3 73.9 L 53.66578435897827 73.70303916931152 L 53.5 73.5 L 64.9 63.9 L 74.3 55.3 L 81.6 47.6 L 86.7 40.9 L 89.8 35.6 L 91.0 32.0 L 90.9 30.2 L 90.3 29.2 L 88.0 27.6 L 83.3 26.0 L 86.6 12.4 Z " />
</g>
</svg>
