<svg xmlns="http://www.w3.org/2000/svg" xmlns:xlink="http://www.w3.org/1999/xlink" version="1.1" baseProfile="full" viewBox="0 0 200 200" width="200" height="200">
<g fill="black">
<path d="M 118.0 101.3 L 113.4 103.3 L 110.78329572677612 104.26704292297363 L 106.2 106.9 L 102.4 109.8 L 99.6 112.7 L 97.7 115.3 L 96.9 117.3 L 96.8 118.2 L 96.8 118.21724138259887 L 98.2 118.7 L 101.3 119.7 L 104.6 120.6 L 108.2 121.4 L 112.0 122.2 L 116.0 122.9 L 120.3 123.5 L 124.8 124.0 L 129.5 124.5 L 134.5 125.0 L 133.4 138.9 L 132.7819553375244 138.85245809555053 L 132.8 139.0 L 112.6 141.9 L 95.0 144.8 L 79.8 148.0 L 67.2 151.2 L 57.2 154.5 L 50.0 157.8 L 45.7 160.7 L 44.2 162.5 L 44.1 162.7 L 44.7 164.0 L 45.0 164.0 L 45.5 165.9 L 47.8 168.0 L 53.4 170.3 L 62.3 172.1 L 74.1 173.1 L 88.3 173.2 L 104.8 172.4 L 123.2 170.9 L 143.3 168.7 L 165.0 166.0 L 166.9 179.9 L 145.0 182.6 L 124.5 184.8 L 105.7 186.4 L 88.7 187.1 L 73.6 187.1 L 60.5 186.0 L 49.4 183.8 L 40.4 179.9 L 33.6 173.3 L 33.20721626281738 171.8950427055359 L 33.2 171.9 L 30.2 164.5 L 31.5 156.5 L 36.4 150.3 L 43.3 145.5 L 52.2 141.5 L 63.3 137.8 L 76.7 134.3 L 91.55225572586059 131.2727886199951 L 90.4 130.9 L 90.47227792739868 130.70529222488403 L 89.3 130.2 L 84.9 125.6 L 82.9 119.8 L 83.3 113.9 L 85.4 108.6 L 85.68430032730103 108.19863481521607 L 81.1 107.8 L 76.5 107.1 L 72.0 106.0 L 75.8 92.5 L 79.3 93.4 L 82.9 93.9 L 86.4 94.3 L 89.9 94.3 L 93.5 94.1 L 97.1 93.5 L 100.7 92.8 L 104.4 91.7 L 105.07634410858154 91.44408597946168 L 111.38181819915772 88.83181819915771 L 111.9 88.6 Z M 70.5 53.3 L 67.8 59.1 L 67.2 62.3 L 67.4 63.0 L 68.5 63.7 L 72.7 64.7 L 80.1 64.9 L 90.5 63.8 L 103.4 61.3 L 118.9 57.5 L 136.9 52.3 L 141.0 65.6 L 122.6 71.0 L 106.4 75.0 L 92.6 77.6 L 80.8 78.9 L 71.0 78.6 L 62.7 76.4 L 56.0 71.2 L 53.2 63.1 L 54.5 54.8 L 58.4 46.3 Z M 77.6 14.7 L 82.9 16.5 L 88.1 18.0 L 93.4 19.3 L 98.7 20.4 L 104.1 21.3 L 109.5 22.0 L 114.9 22.5 L 120.4 22.8 L 126.0 23.0 L 126.0 37.0 L 119.9 36.8 L 113.9 36.5 L 107.9 35.9 L 102.0 35.2 L 96.1 34.2 L 90.3 32.9 L 84.5 31.5 L 78.7 29.8 L 73.0 27.9 L 67.3 25.8 L 72.4 12.8 Z " />
</g>
</svg>
