<svg xmlns="http://www.w3.org/2000/svg" xmlns:xlink="http://www.w3.org/1999/xlink" version="1.1" baseProfile="full" viewBox="0 0 200 200" width="200" height="200">
<g fill="black">
<path d="M 49.8 27.0 L 47.9 31.4 L 47.3 34.3 L 47.4 35.7 L 47.7 36.2 L 48.8 36.9 L 51.5 37.9 L 56.1 38.4 L 62.4 38.4 L 70.3 37.6 L 79.6 36.1 L 82.3 49.8 L 81.58857145309449 49.91857147216797 L 78.8 51.4 L 75.4 53.5 L 72.0 56.0 L 68.8 58.8 L 66.0 61.7 L 63.9 64.5 L 62.4 67.1 L 61.8 69.2 L 61.70872917175293 70.38652114868164 L 63.7 72.2 L 68.1 78.0 L 71.2 84.5 L 73.1 91.5 L 73.9 99.0 L 73.9 107.1 L 73.2 116.0 L 72.29643306732177 124.2142448425293 L 75.1 120.8 L 85.8 107.4 L 96.9 93.0 L 108.7 77.6 L 120.9 61.1 L 133.7 43.6 L 134.18592290878297 43.95691680908203 L 133.6 43.4 L 137.4 39.6 L 141.1 36.5 L 144.9 34.1 L 148.9 32.5 L 153.5 32.0 L 158.2 33.5 L 161.8 36.7 L 164.0 40.5 L 165.2 44.7 L 165.9 49.3 L 164.69583330154418 49.41261987686157 L 165.8 49.5 L 164.7 54.8 L 162.6 59.6 L 160.1 64.3 L 157.4 68.8 L 154.8 73.0 L 152.8 76.7 L 151.87818183898926 78.68545455932617 L 153.1 79.5 L 157.4 83.1 L 161.0 87.2 L 164.0 91.7 L 166.2 96.7 L 167.7 102.0 L 168.5 107.5 L 168.6 113.3 L 168.0 119.3 L 166.8 125.6 L 166.2445945739746 125.46621618270873 L 162.7 136.1 L 159.81790504455566 140.63575592041016 L 163.0 143.4 L 171.7 154.7 L 178.5 168.5 L 165.4 173.4 L 159.9 162.1 L 152.9 153.1 L 150.83299741744995 151.31721029281616 L 148.9 153.2 L 140.3 158.6 L 131.3 161.8 L 122.2 162.9 L 113.5 161.7 L 105.7 158.1 L 99.7 151.5 L 97.45605564117432 144.1032946586609 L 96.9 144.2 L 97.03710527420044 142.72230997085572 L 97.0 142.6 L 97.04887771606445 142.59542865753173 L 97.8 134.5 L 103.8 127.3 L 112.1 123.8 L 121.6 123.1 L 131.8 124.7 L 142.5 128.5 L 148.68662900924681 132.17695875167846 L 150.0 130.1 L 152.9 121.5 L 153.24537811279296 121.57310924530029 L 154.1 117.3 L 154.6 112.7 L 154.5 108.5 L 154.0 104.8 L 153.1 101.5 L 151.7 98.5 L 149.9 95.7 L 147.6 93.1 L 144.8 90.7 L 141.4 88.5 L 141.51755151748657 88.2921552658081 L 139.0 86.5 L 137.3 79.9 L 138.3 74.8 L 140.3 70.3 L 142.8 65.9 L 145.4 61.5 L 147.9 57.3 L 150.0 53.4 L 151.4 50.2 L 151.73333330154418 49.0 L 151.5 47.6 L 151.2380952835083 46.65714282989502 L 149.5 47.7 L 146.9 49.9 L 144.9064295768738 51.83127126693726 L 145.0 51.9 L 132.2 69.4 L 119.8 86.0 L 108.0 101.5 L 96.8 116.0 L 86.0 129.6 L 75.8 142.0 L 66.0 153.5 L 56.8 164.0 L 48.1 173.4 L 39.9 181.9 L 30.0 172.0 L 37.9 163.8 L 43.488330364227295 157.7514542579651 L 42.1 157.6 L 37.0 156.3 L 32.4 153.9 L 28.5 150.2 L 25.9 145.3 L 25.2 139.6 L 26.3 133.9 L 28.9 128.3 L 29.274337100982667 128.5258397102356 L 33.4 123.3 L 38.0 118.8 L 42.7 115.3 L 48.0 113.2 L 54.0 113.1 L 59.206718063354494 115.41409692764282 L 59.3 114.6 L 59.9 106.5 L 59.9 99.6 L 59.3 93.9 L 58.1 89.3 L 56.2 85.4 L 53.4 81.7 L 49.4 78.1 L 49.636519050598146 77.80095291137695 L 47.9 72.5 L 48.0 66.8 L 49.6 61.5 L 52.2 56.8 L 55.4 52.6 L 55.58974361419678 52.4 L 55.4 52.4 L 48.5 51.5 L 42.4 49.4 L 37.3 45.5 L 34.1 39.9 L 33.4 33.5 L 34.6 27.2 L 37.2 20.7 Z M 115.1 137.4 L 111.8 138.8 L 110.8 139.9 L 110.7254566192627 141.3163242340088 L 110.9 141.3 L 111.9 144.5 L 113.8 146.7 L 117.3 148.2 L 122.2 148.9 L 128.1 148.1 L 134.3 145.9 L 139.2587426185608 142.84210872650146 L 136.5 141.2 L 128.3 138.2 L 120.9 137.0 Z M 51.0 126.9 L 49.7 127.5 L 47.2 129.3 L 43.9 132.6 L 40.2 137.3 L 40.142525386810306 137.2577841758728 L 39.5 138.5 L 39.2 140.3 L 39.2 141.1 L 39.5 141.6 L 40.3 142.3 L 41.9 143.1 L 44.6 143.8 L 48.0 144.2 L 52.0 144.0 L 55.610614681243895 143.43834886550903 L 56.37348642349243 137.7392484664917 L 55.6 134.8 L 53.9 130.6 L 52.4 128.0 L 51.4 127.0 L 51.2 126.9 Z " />
</g>
</svg>
