<svg xmlns="http://www.w3.org/2000/svg" xmlns:xlink="http://www.w3.org/1999/xlink" version="1.1" baseProfile="full" viewBox="0 0 200 200" width="200" height="200">
<g fill="black">
<path d="M 154.6 16.2 L 152.7 27.7 L 150.9 39.1 L 149.5 50.5 L 148.3 61.8 L 147.4 73.2 L 146.8 84.5 L 146.4818518638611 93.48768520355225 L 151.5 91.2 L 158.4 88.0 L 163.4904314994812 85.6045027732849 L 163.3 84.5 L 162.6 81.2 L 161.8 77.5 L 160.7 73.5 L 159.4 69.1 L 158.0 64.3 L 156.3 59.2 L 169.6 54.7 L 171.3 60.1 L 172.9 65.1 L 174.2 69.8 L 175.4 74.1 L 176.3 78.2 L 177.1 82.0 L 177.6 85.5 L 178.0 88.7 L 178.1 91.7 L 178.0 94.6 L 177.38477115631105 94.54246063232422 L 164.3 100.7 L 157.4 103.9 L 150.5 107.0 L 146.33272590637208 108.93264884948731 L 146.5 118.3 L 146.80103588104248 126.80426349639893 L 147.0 126.8 L 147.1 133.9 L 146.9 140.8 L 146.6 147.5 L 146.0 154.0 L 145.1 160.3 L 144.1 166.3 L 142.8 172.2 L 141.2 177.9 L 139.4 183.4 L 137.4 188.6 L 124.5 183.3 L 126.2 178.7 L 127.8 173.9 L 129.2 168.9 L 130.3 163.6 L 131.3 158.1 L 132.0 152.4 L 132.6 146.4 L 132.9 140.2 L 133.1 133.8 L 133.0477252960205 130.2975965499878 L 133.0 130.3 L 132.5 118.7 L 132.44113912582398 115.28606700897217 L 129.7 116.5 L 122.7 119.7 L 108.7 125.9 L 108.49952039718627 125.44980020523072 L 108.3 125.9 L 95.6 120.0 L 99.3 111.7 L 102.0 104.5 L 103.9 98.3 L 104.9 93.3 L 105.2 89.6 L 104.9 87.4 L 104.6 86.5 L 104.4 86.3 L 103.5 86.0 L 101.3 85.9 L 100.6 71.9 L 106.3 72.3 L 111.7 74.4 L 116.0 78.4 L 118.4 83.6 L 119.2 89.3 L 118.8 95.3 L 117.5 101.8 L 115.71366844177246 107.4696611404419 L 117.0 106.9 L 123.9 103.8 L 130.9 100.6 L 132.36169576644897 99.94329614639283 L 132.4 95.5 L 132.8 83.9 L 133.4 72.2 L 134.4 60.5 L 135.6 48.8 L 137.1 37.1 L 138.8 25.4 L 140.9 13.7 Z M 59.8 15.6 L 58.9 23.7 L 57.8 31.4 L 56.4 38.8 L 54.7 45.8 L 52.9 52.5 L 50.8 58.8 L 48.59294328689575 64.4096025466919 L 50.5 63.7 L 55.0 62.1 L 59.8 60.5 L 64.7 58.9 L 69.9 57.3 L 70.2352201461792 58.387421417236325 L 79.0 67.7 L 76.8 71.4 L 74.7 79.2 L 73.2 89.9 L 72.73000001907349 99.76999998092651 L 73.1 99.4 L 80.5 92.5 L 90.0 102.8 L 82.9 109.5 L 76.4 115.9 L 72.58759288787842 119.97087545394898 L 72.8 129.6 L 73.2 142.6 L 73.5 154.3 L 73.5 163.9 L 72.8 171.3 L 59.1 168.6 L 59.13005781173706 168.21676301956177 L 58.7 167.5 L 57.7 166.2 L 56.2 164.7 L 54.3 162.9 L 51.9 160.9 L 49.2 158.8 L 46.1 156.6 L 44.95840444564819 155.80722532272338 L 44.7 156.2 L 39.4 164.4 L 34.0 173.5 L 21.9 166.4 L 27.5 157.1 L 32.9 148.6 L 33.82951993942261 147.18784475326538 L 32.9 146.5 L 28.7 142.5 L 25.4 138.0 L 23.3 133.1 L 22.4 127.7 L 23.1 122.3 L 25.0 117.2 L 28.1 112.5 L 30.520187759399413 109.70747566223145 L 30.4 109.6 L 31.83089427947998 108.19512195587158 L 32.0 108.0 L 32.01467885971069 108.0146788597107 L 35.9 104.2 L 41.8 100.2 L 47.9 97.6 L 54.3 96.8 L 58.803134250640866 98.21143016815185 L 59.3 88.7 L 60.9 76.5 L 61.417074298858644 74.70747575759887 L 59.6 75.3 L 55.3 76.9 L 51.2 78.4 L 47.3 79.9 L 43.6 81.4 L 40.2 82.9 L 36.9 84.3 L 34.0 85.8 L 27.7 73.2 L 28.22349395751953 72.96204814910888 L 30.8 68.8 L 33.2 64.3 L 35.5 59.4 L 37.6 54.1 L 39.5 48.4 L 41.2 42.3 L 42.7 35.9 L 43.9 29.1 L 45.0 21.9 L 45.9 14.3 Z M 54.7 141.5 L 52.79404706954956 144.20645322799683 L 54.1 145.1 L 57.6 147.6 L 59.35415945053101 148.95805892944335 L 59.2 143.1 L 58.97869091033935 135.8521279335022 Z M 51.8 111.0 L 48.6 112.4 L 44.8 115.0 L 41.86329116821289 117.8632911682129 L 41.9 117.9 L 39.2 121.0 L 37.5 123.6 L 36.7 125.8 L 36.4 127.5 L 36.7 129.1 L 37.5 131.0 L 39.2 133.2 L 41.72957830429077 135.6322868347168 L 43.4 133.3 L 44.10047082901001 132.36163339614868 L 44.0 132.3 L 49.2 122.8 L 52.1 115.8 L 52.9 111.4 L 52.858091259002684 110.81327800750732 Z " />
</g>
</svg>
