<svg xmlns="http://www.w3.org/2000/svg" xmlns:xlink="http://www.w3.org/1999/xlink" version="1.1" baseProfile="full" viewBox="0 0 200 200" width="200" height="200">
<g fill="black">
<path d="M 149.7 21.5 L 157.9 23.4 L 165.9 26.6 L 165.75679197311402 26.908261394500734 L 172.4 34.3 L 176.4 43.7 L 177.3 53.7 L 175.6 63.6 L 171.6 73.0 L 165.5 81.6 L 157.5 88.8 L 147.7 94.1 L 138.0 96.69821424484253 L 138.0 101.934375 L 142.2 102.0 L 141.7 115.9 L 141.26666669845582 115.9 L 139.4 120.7 L 138.0 123.66800003051758 L 138.0 147.0 L 137.71417322158814 147.0 L 132.0 159.3 L 128.6 157.7 L 125.5 156.2 L 122.5 154.8 L 119.7 153.4 L 118.25231647491455 152.70296716690063 L 114.5 156.7 L 109.6 161.7 L 106.58766756057739 164.42815017700195 L 106.5236967086792 164.52701425552368 L 107.1 164.8 L 112.0 166.0 L 119.4 166.9 L 129.1 167.2 L 141.0 167.0 L 155.1 166.3 L 171.3 165.0 L 172.6 178.9 L 156.1 180.3 L 141.5 181.0 L 129.0 181.2 L 118.4 180.8 L 109.6 179.8 L 102.4 178.0 L 96.4 174.8 L 92.2 168.7 L 92.5 161.2 L 95.26695108413696 156.39852600097657 L 95.0 156.1 L 99.9 151.5 L 104.5 147.0 L 105.5768035888672 145.84628190994263 L 104.5 144.9 L 101.5 141.9 L 98.9 138.8 L 96.5 135.5 L 94.5 132.0 L 92.9 128.4 L 91.6 124.7 L 90.7 120.9 L 90.1 116.9 L 90.01995897293091 113.77840051651 L 89.9 113.6 L 90.01360836029053 113.53072662353516 L 90.0 113.0 L 90.88400001525879 113.0 L 94.0 111.1 L 98.3 108.9 L 102.9 107.1 L 107.8 105.5 L 112.9 104.2 L 118.3 103.2 L 123.9 102.5 L 124.0 102.49310340881348 L 124.0 98.99696969985962 L 123.6 98.9 L 120.3 97.3 L 117.3 94.0 L 116.2 89.4 L 116.9 85.4 L 118.5 82.4 L 120.6 79.7 L 123.1 77.0 L 126.1 74.3 L 129.7 71.4 L 138.046164894104 82.29910945892334 L 142.5 81.1 L 149.3 77.4 L 155.0 72.3 L 159.3 66.2 L 162.2 59.6 L 163.3 53.0 L 162.8 47.0 L 160.6 41.8 L 157.289497756958 38.24121007919312 L 153.6 36.8 L 147.5 35.3 L 141.4 34.8 L 135.3 35.3 L 129.2 36.7 L 123.0 39.1 L 116.6 42.6 L 110.1 47.2 L 103.5 53.0 L 96.8 59.9 L 86.4 50.5 L 93.9 42.8 L 101.4 36.3 L 109.1 30.8 L 117.0 26.5 L 125.0 23.3 L 133.2 21.4 L 141.4 20.8 Z M 67.7 41.0 L 67.5731861114502 41.09299688339233 L 67.9 41.1 L 67.7 53.6 L 67.6 65.1 L 67.4 75.6 L 67.36203126907348 79.2449966430664 L 71.9 79.8 L 71.0 85.5 L 69.7 91.7 L 67.9 98.5 L 67.1021653175354 101.23543310165405 L 67.1 101.4 L 67.0 108.0 L 67.0 112.73725490570068 L 69.0 109.6 L 74.1 100.9 L 79.3 91.5 L 91.6 98.2 L 86.3 107.8 L 80.9 116.8 L 75.6 125.2 L 70.4 133.0 L 65.1 140.2 L 59.9 146.7 L 54.7 152.6 L 49.5 157.9 L 44.3 162.6 L 39.0 166.7 L 30.9 155.2 L 31.020717811584472 155.10946168899537 L 31.0 155.1 L 35.7 144.7 L 39.9 134.9 L 43.7 125.6 L 45.441226959228516 121.06225700378418 L 43.7 120.1 L 39.7 117.4 L 35.6 114.2 L 31.2 110.5 L 26.6 106.3 L 22.0790657043457 101.96359367370606 L 21.3 101.7 L 23.0 97.8 L 25.2 94.2 L 28.1 90.9 L 31.4 88.0 L 35.1 85.5 L 39.2 83.3 L 43.8 81.4 L 48.7 79.7 L 53.36713304519653 78.55523157119751 L 53.4 75.4 L 53.6 64.9 L 53.7 53.4 L 53.779429054260255 48.395969772338866 L 50.6 49.4 L 46.5 50.3 L 42.2 51.0 L 37.6 51.5 L 32.9 51.9 L 28.0 52.0 L 28.0 38.0 L 32.3 37.9 L 36.4 37.6 L 40.2 37.2 L 43.7 36.6 L 47.0 35.8 L 49.9 35.0 L 52.5 33.9 L 54.8 32.8 L 56.9 31.6 L 58.7 30.2 Z M 120.4 117.1 L 115.9 117.9 L 111.6 119.0 L 107.7 120.2 L 105.17027025222778 121.25405406951904 L 105.9 123.2 L 107.0 125.6 L 108.3 127.9 L 109.9 130.2 L 111.9 132.5 L 114.1 134.7 L 114.31812076568603 134.89194631576538 L 114.70783958435058 135.09826803207397 L 116.0 133.4 L 119.1 128.9 L 121.9 124.3 L 124.0 120.43599996566772 L 124.0 116.58571424484253 Z M 52.6 93.2 L 48.7 94.5 L 45.2 95.9 L 42.3 97.5 L 39.9 99.1 L 39.65125350952148 99.32256269454956 L 40.4 100.0 L 44.3 103.3 L 47.9 106.0 L 50.31809453964233 107.6624400138855 L 52.4 101.5 L 53.12702875137329 99.14581155776978 L 53.2 93.6 L 53.20653190612793 93.03825817108154 Z " />
</g>
</svg>
