<svg xmlns="http://www.w3.org/2000/svg" xmlns:xlink="http://www.w3.org/1999/xlink" version="1.1" baseProfile="full" viewBox="0 0 200 200" width="200" height="200">
<g fill="black">
<path d="M 113.6 25.4 L 121.6 27.2 L 130.1 30.5 L 138.7 35.6 L 146.8 42.7 L 154.1 52.0 L 160.0 63.5 L 164.1 77.4 L 165.8226993560791 93.0 L 166.0 93.0 L 165.0 108.0 L 162.2 121.6 L 157.8 133.5 L 152.1 143.8 L 145.4 152.4 L 137.8 159.5 L 129.8 164.9 L 121.5 168.8 L 114.18031492233277 170.89133853912352 L 114.2 171.0 L 113.33924055099487 171.13164558410645 L 113.1 171.2 L 112.51367292404174 171.25790882110596 L 105.7 172.3 L 97.9 173.0 L 90.9 173.0 L 84.5 172.3 L 78.8 170.8 L 73.7 168.2 L 69.4 164.5 L 66.5 159.6 L 65.1 154.1 L 65.0 148.3 L 66.4 148.4309352874756 L 65.1 148.3 L 68.2 141.6 L 73.4 138.2 L 79.2 136.4 L 85.7 135.9 L 92.7 136.4 L 100.0 138.2 L 107.2 141.4 L 114.1 146.3 L 120.0 153.0 L 120.48772172927856 153.91041383743286 L 122.9 152.8 L 129.1 148.5 L 135.0 143.0 L 140.4 136.0 L 145.1 127.6 L 148.7 117.7 L 151.1 106.2 L 151.94889087677 93.74960069656372 L 150.4 80.1 L 147.0 68.7 L 142.3 59.5 L 136.7 52.4 L 130.5 47.0 L 124.0 43.1 L 117.6 40.6 L 111.7 39.3 L 107.04757280349732 39.00922327041626 L 101.6 39.8 L 95.9 41.1 L 90.6 42.8 L 85.6 44.7 L 81.0 47.1 L 76.9 49.7 L 73.0 52.7 L 69.5 56.1 L 66.3 59.8 L 63.727798271179196 63.4365611076355 L 63.8 63.7 L 63.49394369125366 63.76718311309814 L 63.4 63.9 L 63.27008142471313 63.816323566436765 L 59.7 64.6 L 55.7 65.2 L 51.8 65.3 L 48.0 65.0 L 44.3 64.1 L 40.8 62.7 L 37.5 60.8 L 34.5 58.5 L 31.9 55.7 L 29.6 52.6 L 41.4 45.0 L 42.7 46.8 L 44.0 48.2 L 45.4 49.3 L 46.8 50.1 L 48.4 50.7 L 50.2 51.1 L 52.2 51.3 L 54.5 51.2 L 55.38163261413574 51.10204086303711 L 59.3 46.4 L 63.9 42.1 L 68.8 38.3 L 74.1 34.9 L 79.8 32.0 L 85.9 29.6 L 92.3 27.6 L 99.0 26.1 L 100.0121563911438 25.943187046051026 L 100.0 25.9 L 103.15076923370361 25.45692310333252 L 106.1 25.0 L 106.10507240295411 25.04147415161133 L 106.4 25.0 Z M 81.7 150.2 L 79.0 151.0 L 78.9 151.04285717010498 L 78.9 152.4 L 79.4 154.2 L 80.2 155.5 L 81.4 156.6 L 83.6 157.7 L 87.0 158.6 L 91.5 159.1 L 97.2 159.0 L 104.0 158.4 L 105.0 158.24415588378906 L 105.0 158.0 L 105.78199052810669 157.91469192504883 L 104.8 156.8 L 100.4 153.6 L 95.5 151.5 L 90.5 150.2 L 85.7 149.9 Z M 78.9 149.9285714149475 L 79.0 149.7 L 78.9 149.68992805480957 Z " />
</g>
</svg>
