<svg xmlns="http://www.w3.org/2000/svg" xmlns:xlink="http://www.w3.org/1999/xlink" version="1.1" baseProfile="full" viewBox="0 0 200 200" width="200" height="200">
<g fill="black">
<path d="M 94.7 21.0 L 96.9 22.5 L 100.9 25.7 L 104.7 29.1 L 106.5 30.9 L 109.9 34.7 L 111.26762752532959 36.40953435897827 L 111.5 36.5 L 111.44700317382812 36.63375396728516 L 111.5 36.7 L 111.38623714447021 36.78711566925049 L 109.4 41.8 L 104.8 52.0 L 102.3 56.9 L 100.41611890792846 60.377934265136716 L 101.1 60.0 L 104.8 58.0 L 108.4 55.9 L 112.0 53.9 L 119.0 49.9 L 122.4 47.9 L 129.5 60.0 L 128.17804050445557 60.75540542602539 L 121.1 68.9 L 116.6 75.9 L 114.0 82.1 L 112.7 88.6 L 112.4 96.3 L 112.7 105.8 L 113.3 117.8 L 113.6 132.6 L 113.3 150.6 L 111.9 172.6 L 111.47565422058105 172.56031293869017 L 100.0 179.6 L 98.4 177.2 L 96.6 174.7 L 94.5 172.0 L 92.1 169.1 L 89.4 166.1 L 86.5 162.9 L 83.3 159.6 L 79.8 156.1 L 76.0 152.5 L 72.0 148.8 L 81.4 138.4 L 85.6 142.3 L 89.5 146.1 L 93.2 149.7 L 96.7 153.3 L 99.0206015586853 155.84517593383788 L 99.4 150.1 L 99.6 132.7 L 99.3 118.4 L 98.7 106.5 L 98.4 96.3 L 98.8 87.0 L 100.6 78.1 L 101.53451328277588 75.81563425064087 L 100.2 76.5 L 92.2 80.7 L 88.3 82.8 L 84.3 84.9 L 80.3 87.1 L 73.6 74.8 L 74.47885990142822 74.31662712097167 L 77.0 71.1 L 79.8 67.2 L 82.4 63.2 L 85.0 59.1 L 87.5 54.8 L 89.9 50.4 L 92.2 45.9 L 94.4 41.2 L 95.16470584869384 39.364705848693845 L 95.0 39.2 L 93.5 37.8 L 91.9 36.4 L 90.3 35.1 L 88.6 33.8 L 85.0 31.4 L 92.6 19.6 Z M 47.1 120.8 L 45.8 122.8 L 44.9 124.6 L 44.2 126.1 L 43.7 127.5 L 43.5 128.5 L 43.5 129.9 L 43.9 130.9 L 44.12608699798584 131.18260869979858 L 45.3 130.4 L 49.3 127.8 L 53.7 125.2 L 58.4 122.6 L 63.6 119.8 L 69.1 117.0 L 75.0 114.1 L 81.1 126.7 L 75.4 129.5 L 70.1 132.2 L 65.2 134.9 L 60.7 137.4 L 56.6 139.8 L 53.0 142.1 L 49.8 144.2 L 47.1 146.3 L 44.7 148.2 L 42.9 149.9 L 33.0 140.0 L 33.14864339828491 139.86279067993163 L 31.9 138.1 L 30.6 135.5 L 29.8 132.6 L 29.5 129.7 L 29.6 126.8 L 30.2 123.9 L 31.1 121.1 L 32.3 118.3 L 33.8 115.6 L 35.6 112.8 Z M 155.0 100.4 L 159.8 102.5 L 163.7 105.9 L 166.5 110.3 L 168.4 115.2 L 169.7 120.8 L 170.6 127.1 L 171.0 134.2 L 170.9 142.1 L 157.0 141.8 L 157.0 134.6 L 156.6 128.4 L 155.9 123.3 L 155.0 119.3 L 153.9 116.5 L 152.9 114.9 L 152.2 114.2 L 151.7 114.0 L 150.8 113.9 L 149.0 114.3 L 144.8 101.0 L 149.8 100.0 Z " />
</g>
</svg>
