<svg xmlns="http://www.w3.org/2000/svg" xmlns:xlink="http://www.w3.org/1999/xlink" version="1.1" baseProfile="full" viewBox="0 0 200 200" width="200" height="200">
<g fill="black">
<path d="M 56.0 13.3 L 59.4 13.8 L 62.6 14.5 L 65.6 15.5 L 68.3 16.8 L 70.9 18.5 L 73.2 20.6 L 75.0 23.2 L 76.3 26.1 L 76.9 29.2 L 76.6726173400879 29.224537658691407 L 76.12013683319091 33.75487804412842 L 76.92411422729492 35.23083658218384 L 79.9 34.1 L 84.8 33.1 L 89.6 33.0 L 94.3 34.1 L 98.5 36.7 L 101.7 40.5 L 102.8789743423462 43.23025636672973 L 103.0 43.2 L 103.01661968231201 43.5490140914917 L 103.6 44.9 L 103.0884614944458 45.05769233703613 L 103.2 47.4 L 102.1 51.0 L 100.4 54.0 L 99.70305347442627 54.85534353256226 L 100.3 55.9 L 101.8 58.6 L 103.2 61.3 L 104.4 63.9 L 105.4 66.5 L 106.3 69.0 L 107.0 71.4 L 107.22610836029052 72.53054189682007 L 110.9 68.3 L 121.8 77.1 L 111.3 89.2 L 100.3 100.5 L 89.1 110.9 L 81.68409128189087 117.31375885009766 L 85.58645696640015 118.84468698501587 L 91.9 117.8 L 93.0 126.4 L 93.7 134.7 L 93.8 142.6 L 93.3 150.3 L 92.2 157.6 L 90.6 164.5 L 88.3 171.1 L 85.5 177.4 L 82.0 183.2 L 78.0 188.7 L 67.51232872009277 179.96027393341063 L 67.3 180.2 L 62.8 172.5 L 61.88438491821289 168.46297006607057 L 59.9 170.6 L 54.4 176.0 L 48.5 181.3 L 48.19174308776856 180.9375440597534 L 45.7 179.5 L 43.5 177.7 L 41.5 175.6 L 39.5 173.1 L 37.5 170.3 L 35.3 167.1 L 33.1 163.5 L 30.8 159.5 L 28.3 155.1 L 25.7 150.2 L 25.87985610961914 150.10647478103638 L 25.2 149.9 L 28.8 143.9 L 34.0 138.6 L 40.9 132.6 L 49.2 125.9 L 57.61998176574707 119.07538318634033 L 57.6 118.4 L 57.6 100.2 L 57.617668342590335 99.53213787078857 L 56.9 99.8 L 45.3 102.7 L 35.9 103.5 L 27.9 101.9 L 21.7 96.4 L 20.0 88.6 L 21.8 81.5 L 25.6 74.8 L 37.1 82.8 L 34.7 87.0 L 34.004864883422854 89.1722972869873 L 36.4 89.6 L 42.8 89.0 L 52.6 86.4 L 58.017594528198245 84.41492719650269 L 58.1 81.3 L 59.2 62.3 L 59.872787952423096 54.091986656188965 L 56.2 54.9 L 51.3 55.6 L 46.5 55.9 L 41.8 55.7 L 37.2 55.1 L 32.8 53.9 L 37.0 40.6 L 40.0 41.3 L 43.1 41.8 L 46.4 41.9 L 49.9 41.7 L 53.6 41.1 L 57.6 40.2 L 61.325845623016356 39.13547267913818 L 62.53039999008179 29.772799968719482 L 62.3 29.6 L 61.6 29.1 L 60.4 28.6 L 58.9 28.0 L 56.8 27.6 L 54.4 27.2 L 51.6 27.0 L 52.3 13.0 Z M 137.3 22.9 L 141.3 23.8 L 145.0 25.0 L 148.4 26.4 L 151.4 28.2 L 154.2 30.5 L 156.4 33.2 L 158.0 36.5 L 158.9 40.0 L 158.9 42.65925922393799 L 159.4 42.8 L 157.0 49.9 L 154.0 57.7 L 147.2 73.9 L 144.1 81.8 L 141.7 89.0 L 140.4 95.0 L 140.1247760772705 98.57791042327881 L 140.8 98.5 L 143.7 98.0 L 147.0 97.7 L 150.8 97.9 L 155.1 99.5 L 158.8 102.9 L 161.0 107.4 L 161.9 112.5 L 161.9 115.0 L 162.0 115.0 L 161.9 115.86666669845582 L 161.9 118.3 L 161.62085285186768 118.28594226837158 L 160.5 128.0 L 156.5 139.8 L 153.58074197769164 144.84685287475585 L 161.4 151.2 L 171.6 164.1 L 180.4 181.3 L 167.5 186.6 L 159.8 171.7 L 151.4 161.0 L 145.37660417556762 156.15358953475953 L 143.3 158.6 L 135.1 165.3 L 126.5 169.9 L 117.6 172.2 L 108.6 171.4 L 100.7 166.4 L 97.53275260925292 160.2062717437744 L 97.0 160.4 L 96.92664909362793 159.0210026741028 L 96.2 157.6 L 96.84270715713501 157.44289379119874 L 96.5 151.0 L 100.8 143.2 L 108.0 137.9 L 117.0 134.9 L 127.4 134.4 L 138.7 136.6 L 141.4661096572876 137.922922039032 L 143.8 134.0 L 146.8 124.9 L 148.0 115.0 L 148.0 113.5 L 147.657142829895 111.7 L 147.5 111.7 L 145.6 111.9 L 142.9 112.3 L 139.7 112.7 L 136.0 113.0 L 136.0 112.6319444656372 L 128.9 107.8 L 126.2 100.3 L 126.5 92.9 L 128.3 85.2 L 131.0 77.0 L 134.2 68.7 L 137.7 60.3 L 141.0 52.3 L 143.9 45.1 L 145.0 41.744999980926515 L 145.0 41.7 L 144.9 41.3 L 144.7 40.9 L 144.3 40.4 L 143.5 39.7 L 142.1 38.9 L 140.1 38.1 L 137.6 37.3 L 134.6 36.6 L 131.0 36.0 L 132.9 22.1 Z M 78.7 147.2 L 74.5 153.3 L 73.65789031982422 154.40409927368165 L 74.4 160.5 L 75.49911851882935 165.41370649337767 L 77.1 160.7 L 78.5 155.0 L 79.4 148.8 L 79.58504590988159 145.79300394058228 Z M 58.0 136.8 L 49.8 143.4 L 43.5 148.9 L 41.83636360168457 150.56363639831542 L 43.0 152.6 L 45.1 156.3 L 47.1 159.6 L 48.707569408416745 161.9690496444702 L 49.9 160.8 L 54.6 155.7 L 59.1 150.4 L 59.11038846969605 150.38657093048096 L 59.1 150.3 L 58.18974704742432 136.64620504379272 Z M 119.6 148.7 L 114.3 150.4 L 111.1 152.7 L 110.1 154.4 L 110.16666669845581 155.2 L 111.1 157.0 L 112.7 158.1 L 116.1 158.3 L 121.2 156.9 L 127.3 153.6 L 132.37215700149537 149.5095507621765 L 126.4 148.3 Z M 71.77927446365356 125.59507045745849 L 71.91931734085082 131.3718409538269 L 73.7 128.2 L 76.5 122.3 L 76.88385829925537 121.41417322158813 Z M 88.1 86.7 L 71.76773986816406 94.19362525939941 L 71.6 100.4 L 71.6 107.54018688201904 L 79.7 100.5 L 90.5 90.4 L 100.53328886032105 80.17560091018677 Z M 88.7 64.8 L 84.5 67.7 L 79.8 70.8 L 74.5 74.0 L 72.69052438735962 70.91624584197999 L 72.277667427063 78.59538650512695 L 81.9 74.2 L 91.35995750427246 69.20591077804565 L 90.5 67.4 L 89.4 65.2 L 89.04006519317628 64.53550491333007 Z M 86.5 47.0 L 83.8 47.6 L 80.3 48.9 L 76.1 50.9 L 74.11038494110107 51.99631853103638 L 73.56526651382447 58.094830417633055 L 76.7 56.1 L 80.5 53.5 L 83.6 51.1 L 86.0 49.0 L 87.8 47.2 L 88.04170408248902 46.914349746704104 Z " />
</g>
</svg>
