<svg xmlns="http://www.w3.org/2000/svg" xmlns:xlink="http://www.w3.org/1999/xlink" version="1.1" baseProfile="full" viewBox="0 0 200 200" width="200" height="200">
<g fill="black">
<path d="M 176.1 43.9 L 175.41386861801146 43.92189779281616 L 163.7 45.3 L 152.9 47.1 L 143.4 49.4 L 135.0 52.0 L 127.8 55.0 L 121.8 58.3 L 117.0 61.9 L 113.4 65.7 L 110.7 69.7 L 109.83380346298217 71.76924724578858 L 109.9 71.8 L 109.2 73.6 L 108.9 75.0 L 108.9 76.1 L 109.0 77.1 L 109.4 78.0 L 110.2 79.1 L 111.4 80.3 L 113.2 81.7 L 114.66226415634155 82.51886796951294 L 119.4 84.8 L 123.7 88.9 L 126.5 94.2 L 127.6 100.1 L 127.5 106.4 L 126.4 113.2 L 124.3 120.7 L 121.3 128.8 L 117.4 137.6 L 112.6 147.3 L 112.58957109451293 147.29453325271606 L 112.3 147.9 L 111.3 151.5 L 111.2 154.1 L 111.7 155.9 L 112.9 157.6 L 115.2 159.4 L 119.0 161.3 L 124.3 162.9 L 131.1 164.2 L 139.4 165.0 L 138.5 178.9 L 129.2 178.0 L 121.1 176.5 L 113.9 174.3 L 107.8 171.3 L 102.7 167.2 L 99.1 162.0 L 97.3 155.8 L 97.5 149.3 L 99.3 142.9 L 100.2812307357788 140.84258060455323 L 100.2 140.8 L 104.7 131.7 L 108.3 123.5 L 111.0 116.3 L 112.7 110.1 L 113.6 105.0 L 113.7 101.2 L 113.2 98.7 L 112.5 97.3 L 112.05714282989501 96.85714282989503 L 109.2 95.5 L 105.5 93.3 L 102.3 90.9 L 99.5 88.1 L 97.2 84.9 L 95.7 81.2 L 94.9 77.4 L 95.0 73.5 L 95.70537328720093 70.06130542755128 L 95.5 70.0 L 96.99065418243408 66.45327100753784 L 97.2 65.9 L 97.21940040588379 65.90901279449463 L 98.4 63.1 L 102.5 56.9 L 107.8 51.4 L 111.25801334381103 48.84639015197754 L 108.6 49.5 L 102.5 51.1 L 90.7 54.3 L 84.9 56.0 L 79.2 57.7 L 68.0 61.1 L 62.5 62.8 L 57.2 64.6 L 57.12077465057373 64.36584510803223 L 57.2 64.8 L 53.1 65.3 L 48.9 65.1 L 44.8 64.3 L 40.9 62.8 L 37.2 60.8 L 33.8 58.2 L 30.6 55.1 L 27.6 51.6 L 24.9 47.6 L 22.3 43.2 L 34.6 36.5 L 36.7 40.0 L 38.8 43.1 L 40.9 45.6 L 42.9 47.6 L 44.9 49.1 L 46.8 50.2 L 48.7 50.9 L 50.6 51.2 L 52.5 51.3 L 52.77692308425903 51.274825191497804 L 58.2 49.5 L 63.8 47.7 L 69.5 46.0 L 75.2 44.2 L 81.0 42.5 L 86.9 40.9 L 92.9 39.2 L 98.9 37.6 L 109.30357780456544 34.915205764770505 L 109.3 34.9 L 109.6046875 34.8375 L 111.3 34.4 L 111.32134141921998 34.485365867614746 L 113.2 34.1 L 117.7 33.4 L 122.7 32.8 L 128.4 32.2 L 134.7 31.7 L 141.6 31.2 L 149.2 30.8 L 157.4 30.5 L 166.3 30.2 L 173.94935064315797 30.038961029052736 L 174.3 30.0 L 174.30294761657714 30.03151693344116 L 175.8 30.0 Z " />
</g>
</svg>
