<svg xmlns="http://www.w3.org/2000/svg" xmlns:xlink="http://www.w3.org/1999/xlink" version="1.1" baseProfile="full" viewBox="0 0 200 200" width="200" height="200">
<g fill="black">
<path d="M 70.8 16.1 L 74.5 16.6 L 78.1 17.4 L 81.5 18.5 L 84.8 20.0 L 87.8 21.9 L 90.6 24.1 L 93.0 26.7 L 95.2 29.5 L 96.69903783798217 31.94579858779907 L 97.0 31.9 L 102.0 62.5 L 102.00340824127197 62.51863670349121 L 107.3 60.4 L 117.5 55.4 L 128.2 49.0 L 135.7 60.9 L 124.2 67.7 L 113.1 73.2 L 104.58277101516724 76.62281169891358 L 106.7 88.2 L 110.9 109.6 L 114.7 127.1 L 117.7 141.4 L 119.9 153.0 L 121.1 162.5 L 121.1 170.7 L 119.2 178.1 L 115.3 184.5 L 104.6 175.4 L 104.74691362380982 175.1666666984558 L 104.7 175.2 L 104.0 174.4 L 102.9 173.2 L 101.3 171.6 L 99.4 169.9 L 97.1 167.9 L 94.3 165.6 L 91.3 163.2 L 87.8 160.5 L 84.0 157.7 L 79.8 154.6 L 88.1 143.3 L 92.3 146.4 L 99.9 152.1 L 103.1 154.7 L 106.1 157.1 L 106.37397556304931 157.3423629760742 L 106.1 155.3 L 104.0 144.2 L 101.0 130.1 L 97.2 112.4 L 92.9 90.8 L 91.0495044708252 80.56321640014649 L 82.1 82.1 L 72.5 82.3 L 63.3 81.2 L 54.6 78.5 L 46.5 74.4 L 39.1 68.9 L 48.3 58.3 L 53.9 62.5 L 59.8 65.5 L 66.2 67.5 L 73.2 68.4 L 80.7 68.1 L 88.5709680557251 66.85216360092163 L 88.2 64.8 L 83.772190284729 37.524692344665525 L 83.7 37.4 L 82.5 35.9 L 81.1 34.5 L 79.7 33.3 L 78.1 32.4 L 76.4 31.5 L 74.4 30.9 L 72.2 30.4 L 69.7 30.1 L 67.0 30.0 L 67.0 16.0 Z M 39.5 115.6 L 38.6 120.3 L 38.1 124.8 L 38.2 129.2 L 38.8 133.4 L 39.8 137.6 L 41.4 141.7 L 43.4 145.8 L 43.73493976593018 146.32817420959472 L 44.0 145.9 L 45.5 143.5 L 47.2 141.0 L 49.0 138.1 L 51.0 135.0 L 53.2 131.6 L 55.6 128.0 L 58.1 124.1 L 69.8 131.8 L 67.3 135.6 L 65.0 139.2 L 62.8 142.6 L 60.8 145.7 L 59.0 148.5 L 57.3 151.1 L 55.8 153.4 L 54.5 155.5 L 53.4 157.3 L 52.4 158.8 L 52.215025901794434 158.68497409820557 L 43.0 167.9 L 38.5 163.0 L 34.6 158.0 L 31.3 152.8 L 28.5 147.3 L 26.5 141.8 L 25.0 136.0 L 24.3 130.2 L 24.2 124.3 L 24.7 118.3 L 25.9 112.2 Z M 158.6 43.2 L 161.6 44.3 L 164.4 45.8 L 166.9 47.6 L 169.3 49.7 L 171.3 52.1 L 172.9 54.8 L 174.2 57.7 L 175.2 60.7 L 175.9 63.9 L 175.37348480224608 63.979545497894286 L 174.2 67.5 L 172.5 71.5 L 170.3 75.5 L 167.6 79.7 L 164.4 84.0 L 160.8 88.4 L 156.7 93.1 L 152.2 97.9 L 147.2 102.9 L 141.7 108.1 L 132.2 97.8 L 137.4 92.8 L 142.2 88.1 L 146.4 83.6 L 150.1 79.4 L 153.4 75.4 L 156.1 71.7 L 158.3 68.3 L 160.0 65.2 L 161.15471696853638 62.60188674926758 L 160.6 61.4 L 159.9 60.3 L 159.1 59.3 L 158.2 58.5 L 157.1 57.7 L 155.8 57.1 L 154.3 56.5 L 152.5 56.0 L 155.4 42.3 Z " />
</g>
</svg>
