<svg xmlns="http://www.w3.org/2000/svg" xmlns:xlink="http://www.w3.org/1999/xlink" version="1.1" baseProfile="full" viewBox="0 0 200 200" width="200" height="200">
<g fill="black">
<path d="M 143.2 25.5 L 148.1 28.7 L 151.1 33.2 L 152.5096197128296 37.51177787780762 L 153.0 37.4 L 153.5 43.2 L 152.9 48.9 L 151.7 54.6 L 150.4 60.1 L 149.2 65.1 L 148.4 69.4 L 148.29746837615966 70.32278480529786 L 150.7 70.6 L 155.4 71.6 L 159.8 72.9 L 163.7 74.8 L 167.1 77.3 L 170.0 80.5 L 171.9 84.4 L 172.7 88.6 L 172.6 92.8 L 171.6119309425354 96.94988985061646 L 171.8 97.1 L 169.1 100.0 L 165.4 103.4 L 160.5 107.5 L 154.4 112.4 L 147.1 118.2 L 138.4 124.8 L 128.5 132.2 L 117.3 140.5 L 104.8 149.6 L 102.17799997329712 151.5 L 105.8 151.5 L 118.3 151.6 L 132.4 152.1 L 147.5 153.6 L 162.9 156.5 L 177.7 161.5 L 172.2 174.4 L 159.4 170.1 L 145.6 167.4 L 131.5 166.1 L 118.1 165.6 L 105.9 165.5 L 95.6 165.5 L 87.6 164.9 L 79.4 160.3 L 81.8 148.9 L 89.5 143.4 L 89.53421792984008 143.45750513076783 L 96.6 138.3 L 109.0 129.2 L 120.2 121.0 L 130.0 113.6 L 138.5 107.1 L 145.7 101.5 L 151.6 96.7 L 156.2 92.9 L 158.72807483673097 90.53502674102783 L 158.8 89.6 L 158.6 88.9 L 158.3 88.3 L 157.8 87.7 L 156.6 86.9 L 154.7 86.0 L 152.1 85.2 L 148.6 84.5 L 144.4 84.0 L 144.4245131492615 83.68801441192628 L 141.3 83.6 L 135.5 78.5 L 134.1 72.6 L 134.5 67.3 L 135.5 62.0 L 138.1 51.4 L 139.1 46.6 L 139.5 42.8 L 139.44013195037843 41.42303581237793 L 139.1 41.5 L 138.3029196739197 39.00912408828735 L 138.0 39.1 L 135.6 40.6 L 132.2 43.3 L 128.1 47.4 L 123.4 52.8 L 119.31756753921509 57.88378381729126 L 111.4 68.1 L 99.9 83.3 L 89.3 97.7 L 79.5 111.4 L 72.03743619918824 122.2165249824524 L 72.3 122.8 L 72.0 129.7 L 68.8 136.0 L 63.42808141708374 141.27599143981934 L 63.5 144.8 L 63.7 149.6 L 64.0 154.4 L 64.4 159.3 L 64.9 164.1 L 51.914165306091306 165.6881956100464 L 51.9 165.7 L 51.89203901290894 165.6909016609192 L 51.0 165.8 L 50.8514705657959 164.5127450942993 L 50.3 163.9 L 49.2 162.9 L 47.9 161.7 L 47.50013904571533 161.35345382690429 L 43.8 168.0 L 39.3 177.0 L 26.6 170.9 L 31.4 161.5 L 36.16658821105957 152.81800003051757 L 36.0 152.7 L 36.03570108413696 152.64803009033204 L 34.8 151.8 L 30.6 148.0 L 27.3 143.8 L 25.2 138.9 L 24.7 133.5 L 26.0 128.3 L 28.7 123.7 L 32.4 119.7 L 33.93333330154419 118.53333330154419 L 33.7 118.3 L 39.8 113.5 L 46.4 110.6 L 49.746325397491454 110.09298105239868 L 49.8 109.1 L 50.7 98.7 L 51.9 88.9 L 53.5 79.7 L 55.4 71.1 L 57.6 63.1 L 58.523707962036134 60.435457706451416 L 56.3 60.8 L 50.5 60.9 L 45.0 59.9 L 40.0 57.7 L 35.6 54.4 L 32.2 50.0 L 29.8 44.9 L 28.3 39.3 L 42.0 36.6 L 43.0 40.2 L 44.2 42.7 L 45.5 44.5 L 47.0 45.7 L 49.0 46.5 L 51.6 46.9 L 55.0 46.9 L 59.3 46.2 L 64.4 44.7 L 70.2 42.5 L 75.40536479949951 54.70894641876221 L 75.8 54.9 L 75.64255647659301 55.265268898010255 L 75.7 55.4 L 75.56168794631958 55.45288400650024 L 73.3 60.7 L 71.0 67.3 L 69.0 74.5 L 67.2 82.4 L 65.8 90.9 L 64.6 100.2 L 63.746216487884524 109.5916181564331 L 68.0 103.4 L 77.9 89.5 L 88.7 74.9 L 100.3 59.5 L 112.8 43.4 L 112.89314479827881 43.47366905212402 L 117.9 37.9 L 122.8 33.0 L 127.5 29.2 L 132.2 26.4 L 137.4 24.9 Z M 47.0 125.5 L 44.66337909698486 127.3555519104004 L 44.9 127.7 L 41.7 130.2 L 39.8 132.2 L 38.9 133.7 L 38.7 134.6 L 38.7 135.3 L 39.3 136.5 L 40.8 138.4 L 43.34821424484253 140.75219783782958 L 43.5 140.5 L 48.90036277770996 131.844624042511 L 48.9 131.8 L 49.08581619262695 124.61510829925537 Z " />
</g>
</svg>
