<svg xmlns="http://www.w3.org/2000/svg" xmlns:xlink="http://www.w3.org/1999/xlink" version="1.1" baseProfile="full" viewBox="0 0 200 200" width="200" height="200">
<g fill="black">
<path d="M 114.3 26.1 L 106.4 49.5 L 101.4884955406189 63.50442476272583 L 108.6 61.9 L 123.2 60.9 L 136.3 62.3 L 147.7 66.2 L 157.3 72.3 L 164.9 80.3 L 170.4 89.7 L 174.1 100.1 L 175.77436351776123 110.61128187179565 L 176.0 110.6 L 175.7 117.8 L 174.3 125.5 L 171.8 133.5 L 168.2 141.7 L 163.6 149.8 L 157.8 157.6 L 150.8 165.0 L 142.8 171.6 L 133.5 177.2 L 123.2 181.6 L 118.7 168.3 L 127.1 164.8 L 134.6 160.2 L 141.3 154.8 L 147.0 148.7 L 151.8 142.1 L 155.8 135.4 L 158.7 128.6 L 160.7 122.2 L 161.8 116.3 L 161.96129035949707 112.26774196624756 L 160.5 103.5 L 157.7 95.5 L 153.7 88.7 L 148.4 83.1 L 141.7 78.8 L 133.3 76.0 L 123.0 74.9 L 110.7 75.8 L 96.2 79.0 L 95.892795753479 79.11103763580323 L 92.1 89.5 L 85.7 106.2 L 79.8 120.7 L 74.4 133.0 L 69.5 143.1 L 64.9 151.2 L 60.6 157.3 L 55.8 161.8 L 55.496756076812744 161.33922672271729 L 52.6 163.1 L 46.6 164.2 L 40.9 162.8 L 36.5 159.6 L 33.2 155.4 L 30.7 150.7 L 28.6 145.3 L 27.0 139.5 L 25.8 133.2 L 25.01217393875122 126.70043478012084 L 25.0 126.7 L 25.00698251724243 126.6576060295105 L 25.0 126.6 L 25.01672830581665 126.59843549728393 L 26.4 118.2 L 29.5 110.2 L 34.2 102.6 L 40.2 95.5 L 47.3 88.8 L 55.4 82.6 L 64.4 76.8 L 74.2 71.5 L 84.6 66.7 L 85.65973024368286 66.28574180603027 L 85.8 65.9 L 93.1 44.9 L 95.45065488815308 37.99681091308594 L 90.9 39.1 L 84.8 40.5 L 79.3 41.8 L 74.3 43.0 L 69.8 44.0 L 65.9 44.9 L 62.5 45.6 L 59.6 46.2 L 57.91509876251221 46.551021099090576 L 57.9 46.6 L 57.81538457870484 46.57179489135742 L 57.2 46.7 L 57.135732650756836 46.34524421691894 L 54.3 45.4 L 51.1 43.9 L 48.1 42.2 L 45.3 40.2 L 42.9 37.8 L 40.9 35.2 L 39.4 32.2 L 38.4 29.1 L 37.9 25.8 L 37.9 22.4 L 51.9 23.5 L 51.8 24.8 L 52.0 25.9 L 52.3 26.8 L 52.8 27.7 L 53.4 28.6 L 54.4 29.5 L 55.7 30.5 L 57.4 31.4 L 58.80689659118652 32.06995077133179 L 59.6 31.9 L 62.9 31.2 L 66.7 30.3 L 71.1 29.3 L 76.1 28.2 L 81.6 26.9 L 87.6 25.5 L 94.2 23.9 L 100.82257804870605 22.221036529541017 L 101.0 21.7 Z M 71.6 88.9 L 63.5 94.1 L 56.3 99.6 L 50.3 105.2 L 45.5 110.9 L 42.0 116.5 L 39.8 122.0 L 39.074146366119386 126.71804876327515 L 39.6 131.0 L 40.7 136.3 L 42.0 141.0 L 43.4 144.9 L 45.0 147.9 L 46.4 149.6 L 47.1 150.2 L 47.3 150.1 L 48.7 149.2 L 48.83636360168457 149.36363639831544 L 49.8 148.4 L 53.0 143.8 L 57.1 136.6 L 61.7 127.1 L 66.9 115.2 L 72.7 101.0 L 78.88997306823731 84.88641929626465 Z " />
</g>
</svg>
