<svg xmlns="http://www.w3.org/2000/svg" xmlns:xlink="http://www.w3.org/1999/xlink" version="1.1" baseProfile="full" viewBox="0 0 200 200" width="200" height="200">
<g fill="black">
<path d="M 143.8669734954834 143.47648639678954 L 147.8 145.5 L 161.4 156.2 L 174.5 170.7 L 163.4 179.2 L 151.9 166.5 L 140.2 157.3 L 137.34321966171265 155.82149085998535 L 132.2 162.5 L 124.3 169.2 L 115.6 174.0 L 106.7 176.8 L 97.7 177.4 L 89.1 175.7 L 81.5 171.2 L 76.14250545501709 163.9574610710144 L 76.0 164.0 L 75.5 153.9 L 79.8 145.1 L 87.2 138.8 L 96.9 134.8 L 108.1 133.3 L 120.7 134.4 L 131.0322971343994 137.5074577331543 L 133.0 129.1 L 133.6 121.7 L 133.5 115.3 L 132.8 109.9 L 131.5 105.4 L 129.8 101.9 L 127.7 99.2 L 125.1 97.2 L 121.8 95.6 L 117.7 94.5 L 113.28988761901856 94.05898876190186 L 103.4 94.7 L 93.6 96.0 L 87.37730932235718 97.25852174758911 L 85.3 102.2 L 77.8 118.7 L 69.1 135.9 L 59.3 153.9 L 50.77358989715576 168.74226942062378 L 50.9 168.8 L 49.46164379119873 171.02602739334105 L 48.5 172.7 L 48.41332540512085 172.64842500686646 L 46.7 175.3 L 39.0 179.0 L 31.3 175.6 L 27.7 169.8 L 25.9 163.0 L 25.1 155.1 L 25.5 146.3 L 27.1 136.8 L 30.2 127.0 L 33.65197019577026 120.02414360046387 L 33.6 120.0 L 34.198117637634276 118.92047061920167 L 35.0 117.3 L 35.071607780456546 117.34392747879028 L 37.7 112.6 L 42.8 106.0 L 48.8 100.1 L 55.7 95.0 L 63.4 90.7 L 71.9 87.1 L 77.08445682525635 85.53908824920654 L 78.8 81.4 L 83.71908931732177 67.87250442504883 L 83.2 68.0 L 72.4 70.0 L 62.1 71.0 L 52.4 71.2 L 43.1 70.4 L 34.4 68.6 L 26.2 65.8 L 31.6 52.9 L 38.0 55.1 L 45.1 56.5 L 52.9 57.2 L 61.3 57.1 L 70.4 56.1 L 80.2 54.3 L 88.44605102539063 52.258120727539065 L 91.1 41.2 L 93.1 29.5 L 94.0 18.7 L 107.9 19.2 L 106.9 31.2 L 104.8 44.0 L 103.98244934082031 47.423493480682374 L 113.7 43.8 L 126.1 38.6 L 131.8 51.3 L 118.8 56.8 L 106.4 61.4 L 99.73918790817261 63.54500722885132 L 97.3 71.6 L 93.60281686782837 81.80148668289185 L 102.1 80.7 L 113.1989200592041 80.03023757934571 L 113.2 80.0 L 113.38817205429078 80.0188172340393 L 113.7 80.0 L 113.7017921447754 80.05017919540406 L 120.2 80.7 L 126.7 82.5 L 132.6 85.3 L 137.6 89.4 L 141.6 94.5 L 144.6 100.4 L 146.5 107.0 L 147.5 114.3 L 147.6 122.2 L 146.9 130.8 L 144.0 143.2 Z M 100.4 148.4 L 94.3 150.8 L 90.7 153.9 L 89.2 156.8 L 89.31563520431519 158.65016288757323 L 90.8 160.7 L 94.0 162.5 L 98.5 163.4 L 104.0 163.0 L 110.1 161.1 L 116.3 157.7 L 122.1 152.8 L 124.22046098709106 150.03041820526124 L 118.1 148.2 L 108.4 147.3 Z M 63.3 106.8 L 57.9 110.8 L 53.3 115.3 L 49.4 120.3 L 46.3 125.9 L 46.273172760009764 125.88753700256348 L 43.2 132.2 L 40.7 140.0 L 39.4 147.7 L 39.1 154.7 L 39.63032464981079 159.91485919952393 L 47.1 147.0 L 56.7 129.4 L 65.1 112.6 L 69.366357421875 103.3754433631897 Z M 56.4 22.4 L 56.9 24.6 L 57.6 26.5 L 58.4 28.3 L 59.3 29.8 L 60.4 31.2 L 61.5 32.5 L 62.9 33.7 L 64.4 34.7 L 66.1 35.7 L 59.8 48.2 L 56.9 46.6 L 54.2 44.7 L 51.8 42.6 L 49.6 40.2 L 47.6 37.6 L 46.0 34.7 L 44.6 31.7 L 43.5 28.6 L 42.7 25.3 L 42.1 21.8 L 56.0 20.1 Z " />
</g>
</svg>
