<svg xmlns="http://www.w3.org/2000/svg" xmlns:xlink="http://www.w3.org/1999/xlink" version="1.1" baseProfile="full" viewBox="0 0 200 200" width="200" height="200">
<g fill="black">
<path d="M 63.7 28.5 L 65.4 38.2 L 66.9 48.4 L 68.2 59.1 L 68.48335905075074 62.30195779800415 L 68.5 62.3 L 75.9 60.8 L 83.8 58.5 L 92.4 55.4 L 97.5 68.5 L 88.2 71.8 L 79.2 74.4 L 70.7 76.1 L 69.59466552734375 76.22131719589234 L 70.0 82.2 L 70.6 94.6 L 70.9 107.5 L 71.1 121.0 L 71.0 135.0 L 70.87348785400391 134.99909629821778 L 70.8 138.6 L 70.6 143.7 L 70.4 149.2 L 70.2 155.0 L 70.0 161.1 L 69.7 167.5 L 69.3 174.3 L 68.9 181.3 L 55.0 180.6 L 55.046983337402345 179.48806161880492 L 54.4 178.0 L 53.2 175.6 L 51.7 173.1 L 50.0 170.4 L 47.9 167.7 L 45.6 164.9 L 42.9 162.0 L 40.0 159.1 L 36.952195167541504 156.23691053390502 L 35.4 159.6 L 33.2 164.1 L 20.7 157.8 L 22.7 153.6 L 25.0 148.7 L 27.5 143.0 L 30.2 136.6 L 33.1 129.5 L 36.3 121.7 L 39.7 113.2 L 43.2 104.0 L 47.0 94.1 L 51.0 83.4 L 56.11396865844726 85.29836711883544 L 56.0 83.0 L 55.58885250091553 77.089755153656 L 54.8 77.1 L 47.4 76.3 L 40.5 74.5 L 34.0 71.8 L 28.0 68.2 L 22.7 63.6 L 32.6 53.7 L 36.3 56.9 L 40.4 59.4 L 44.9 61.3 L 49.9 62.5 L 54.418729305267334 62.9841495513916 L 54.2 60.6 L 53.0 50.2 L 51.6 40.4 L 50.0 31.2 L 48.1 22.5 L 61.8 19.4 Z M 119.6 134.4 L 119.0 139.5 L 119.4 143.2 L 120.8 145.9 L 123.1 148.3 L 127.1 150.5 L 132.9 152.3 L 140.6 153.4 L 150.0 153.8 L 161.2 153.3 L 174.1 152.0 L 175.8 165.9 L 162.2 167.3 L 150.1 167.8 L 139.3 167.4 L 129.9 165.9 L 121.7 163.4 L 114.8 159.5 L 109.4 154.0 L 106.0 147.2 L 105.0 139.5 L 105.9 131.4 Z M 56.3 109.0 L 52.7 118.3 L 49.3 126.9 L 46.1 134.8 L 43.1 142.0 L 42.764095306396484 142.79177541732787 L 46.1 145.7 L 49.7 149.0 L 53.0 152.4 L 56.1 155.7 L 56.155242347717284 155.76510705947877 L 56.2 154.4 L 56.5 148.7 L 56.6 143.3 L 56.8 138.2 L 56.9 133.5 L 56.9 129.0 L 57.0 125.0 L 57.0712230682373 125.0 L 57.1 121.0 L 56.9 107.8 L 56.89157238006592 107.44323062896729 Z M 146.0 41.2 L 152.3 42.4 L 158.3 44.1 L 164.0 46.5 L 169.4 49.4 L 174.3 52.9 L 178.9 57.0 L 169.0 66.9 L 165.6 63.9 L 162.0 61.3 L 158.0 59.1 L 153.7 57.3 L 149.1 56.0 L 144.1 55.0 L 138.6 54.5 L 132.8 54.4 L 126.7 54.8 L 120.1 55.7 L 117.8 41.9 L 125.3 40.9 L 132.5 40.5 L 139.4 40.5 Z " />
</g>
</svg>
