<svg xmlns="http://www.w3.org/2000/svg" xmlns:xlink="http://www.w3.org/1999/xlink" version="1.1" baseProfile="full" viewBox="0 0 200 200" width="200" height="200">
<g fill="black">
<path d="M 66.9 38.6 L 71.0 40.2 L 74.7 42.1 L 78.1 44.5 L 81.1 47.3 L 83.6 50.4 L 85.5 54.0 L 86.9 57.8 L 87.7 61.8 L 87.94333333969116 65.20666666030884 L 88.2 65.3 L 87.9919418334961 65.8871862411499 L 88.0 66.0 L 87.95196847915649 66.0 L 83.7 78.0 L 79.8 90.1 L 76.3 101.5 L 73.2 112.3 L 70.7 122.3 L 68.6 131.7 L 67.0 140.3 L 65.8 148.3 L 65.2 155.5 L 65.02985076904297 161.02985076904298 L 65.8 161.8 L 68.8 163.3 L 74.3 164.8 L 81.9 166.0 L 91.7 166.7 L 103.5 166.8 L 117.2 166.4 L 132.8 165.5 L 135.41333332061768 165.27600002288818 L 135.2 164.7 L 133.9 161.3 L 132.5 157.4 L 130.8 152.9 L 128.9 147.8 L 126.8 142.0 L 124.6 135.7 L 122.1 128.8 L 119.4 121.3 L 132.5 116.6 L 135.2 124.1 L 137.7 131.0 L 140.0 137.3 L 142.1 143.0 L 143.9 148.1 L 145.6 152.5 L 147.0 156.4 L 148.3 159.7 L 149.3 162.4 L 149.95193367004396 164.0298342704773 L 150.3 164.0 L 151.6 177.9 L 133.8 179.5 L 117.8 180.4 L 103.6 180.8 L 91.2 180.7 L 80.5 179.9 L 71.4 178.5 L 63.8 176.4 L 57.6 173.1 L 52.8 168.0 L 51.25714282989502 162.0 L 51.0 162.0 L 51.02445650100708 161.09510869979857 L 51.0 161.0 L 51.02702703475952 161.0 L 51.2 154.6 L 51.9 146.6 L 53.2 138.0 L 54.9 128.9 L 57.1 119.1 L 59.7 108.6 L 62.8 97.6 L 66.4 85.9 L 70.5 73.5 L 73.82462682724 63.89552240371704 L 73.8 63.6 L 73.4 61.5 L 72.8 59.7 L 71.9 58.2 L 70.8 56.7 L 69.4 55.4 L 67.5 54.1 L 65.3 53.0 L 62.5 51.9 L 59.3 51.0 L 62.5 37.4 Z M 118.2 13.7 L 122.6 14.7 L 126.7 16.2 L 130.4 18.2 L 133.8 20.7 L 136.7 23.7 L 139.1 27.1 L 140.9 30.8 L 142.2 34.9 L 142.84875621795655 38.88521680831909 L 143.0 39.0 L 142.89059505462646 39.14222650527954 L 142.9 39.2 L 142.84127941131592 39.20633678436279 L 141.0 41.6 L 138.4 45.2 L 135.6 49.4 L 132.8 53.9 L 130.4 58.4 L 128.8 62.5 L 128.1 65.5 L 128.1 65.59473686218261 L 128.8 66.0 L 131.1 66.8 L 133.6 67.5 L 136.6 68.0 L 139.9 68.8 L 143.5 70.1 L 147.3 72.7 L 150.3 76.8 L 151.8 81.8 L 151.8922339439392 86.96509990692138 L 152.3 87.1 L 150.3 91.0 L 147.6 94.4 L 144.3 97.7 L 140.2 100.8 L 135.4 104.1 L 129.8 107.4 L 123.5 110.9 L 116.4 114.6 L 108.5 118.4 L 99.8 122.3 L 94.1 109.6 L 102.6 105.7 L 110.2 102.0 L 116.9 98.6 L 122.8 95.3 L 127.9 92.3 L 132.0 89.5 L 135.2 87.0 L 137.4 84.9 L 137.91681413650514 84.25398225784302 L 137.9 83.8 L 137.7 82.8 L 137.5 82.7 L 136.2 82.3 L 133.9 81.8 L 130.8 81.2 L 127.1 80.3 L 125.70568733215332 79.76883325576782 L 125.7 79.8 L 125.1615385055542 79.5615385055542 L 122.9 78.7 L 121.88944845199585 78.11247005462647 L 118.7 76.7 L 114.7 70.5 L 114.2 64.0 L 115.5 58.1 L 117.8 52.4 L 120.7 47.0 L 123.8 41.8 L 126.9 37.2 L 127.84496040344239 35.883805179595946 L 127.0 34.1 L 125.9 32.6 L 124.6 31.3 L 123.0 30.1 L 121.0 29.0 L 118.6 28.2 L 115.7 27.5 L 112.3 27.0 L 113.6 13.1 Z " />
</g>
</svg>
