<svg xmlns="http://www.w3.org/2000/svg" xmlns:xlink="http://www.w3.org/1999/xlink" version="1.1" baseProfile="full" viewBox="0 0 200 200" width="200" height="200">
<g fill="black">
<path d="M 151.0 53.2 L 156.0 55.7 L 160.2 59.4 L 163.9 64.0 L 166.9 69.4 L 169.2111110687256 74.8222222328186 L 169.9 76.2 L 170.1 82.4 L 168.5 88.4 L 165.6 94.2 L 161.6 100.3 L 156.7 106.9 L 150.8 114.1 L 144.1 121.9 L 136.5 130.4 L 128.90963859558104 138.8036144256592 L 128.2 139.7 L 126.73938331604003 141.4681149482727 L 127.5 141.4 L 133.9 141.1 L 140.0 141.0 L 145.9 141.2 L 151.5 141.7 L 156.9 142.4 L 162.0 143.5 L 166.9 144.8 L 171.5 146.5 L 166.4 159.4 L 162.7 158.2 L 158.8 157.1 L 154.5 156.2 L 149.9 155.6 L 145.0 155.2 L 139.8 155.0 L 134.3 155.0 L 128.5 155.4 L 122.4 155.9 L 116.00368661880493 156.68723859786988 L 116.0 156.7 L 115.9815899848938 156.68995819091796 L 115.9 156.7 L 115.89188032150268 156.64102563858032 L 111.6 154.3 L 108.8 149.4 L 108.8 144.8 L 110.0 141.4 L 111.6 138.6 L 113.4 135.9 L 115.3 133.4 L 117.3 130.9 L 117.82777643203735 130.22561902999877 L 117.8 130.2 L 118.13690032958985 129.83062734603882 L 119.1 128.6 L 120.8 126.6 L 120.96835231781006 126.72626428604126 L 126.1 121.1 L 133.6 112.7 L 140.1 105.1 L 145.7 98.3 L 150.2 92.3 L 153.5 87.2 L 155.5 83.2 L 156.2 80.5 L 156.24250001907347 80.03249998092652 L 154.3 75.5 L 152.2 71.7 L 150.1 69.0 L 148.1 67.3 L 146.3 66.4 L 144.4 66.0 L 142.2 66.1 L 139.3 66.9 L 139.0161277770996 67.03358688354493 L 139.1 67.2 L 126.8 74.0 L 115.2 81.5 L 104.5 89.9 L 94.5 99.0 L 85.4 109.0 L 77.0 119.8 L 69.3 131.4 L 62.4 143.8 L 56.3 157.1 L 50.9 171.3 L 50.573504734039304 171.18622131347655 L 50.8 172.8 L 37.1 175.1 L 36.1 169.0 L 35.4 162.7 L 34.9 156.3 L 34.5 149.7 L 34.4 143.0 L 34.5 136.1 L 34.8 129.0 L 35.3 121.9 L 36.0 114.5 L 36.45949802398682 110.67084999084473 L 36.1 110.6 L 36.8 104.5 L 36.5 99.5 L 35.5 95.3 L 34.1 91.5 L 32.4 87.8 L 30.7 84.0 L 29.2 79.7 L 28.8 74.3 L 30.6 68.6 L 34.3 63.7 L 44.2 73.6 L 42.9 75.2 L 42.7 75.7 L 42.8 76.5 L 43.5 78.5 L 45.0 81.8 L 47.0 86.0 L 48.9 91.2 L 50.3 97.5 L 50.8 104.9 L 50.33143434524536 108.83595142364501 L 50.8 108.9 L 49.9 116.0 L 49.2 123.0 L 48.8 129.8 L 48.5 136.5 L 48.434345436096194 140.70189151763915 L 49.9 137.5 L 57.3 124.1 L 65.6 111.6 L 74.7 99.9 L 84.7 89.1 L 95.5 79.2 L 107.1 70.1 L 119.6 62.0 L 123.71686916351318 59.723246574401855 L 123.7 59.7 L 129.1 56.2 L 134.5 53.7 L 140.0 52.3 L 145.6 52.0 Z M 46.3 23.1 L 49.8 25.8 L 53.0 28.7 L 55.8 31.7 L 58.2 34.9 L 60.2 38.2 L 61.8 41.7 L 63.0 45.4 L 63.7 49.1 L 64.0 53.0 L 50.0 53.0 L 49.8 50.8 L 49.4 48.8 L 48.8 46.8 L 47.9 44.8 L 46.6 42.8 L 45.1 40.7 L 43.1 38.7 L 40.8 36.6 L 38.1 34.5 L 35.1 32.4 L 42.5 20.6 Z " />
</g>
</svg>
