<svg xmlns="http://www.w3.org/2000/svg" xmlns:xlink="http://www.w3.org/1999/xlink" version="1.1" baseProfile="full" viewBox="0 0 200 200" width="200" height="200">
<g fill="black">
<path d="M 83.6 22.4 L 87.8 24.3 L 91.0 27.3 L 93.4 31.0 L 95.2 35.1 L 95.28725824356079 35.40875997543335 L 95.3 35.4 L 98.8 33.4 L 102.4 31.4 L 106.3 29.6 L 110.5 27.9 L 114.8 26.3 L 119.4 24.8 L 124.2 23.4 L 125.2576036453247 23.130414772033692 L 125.2 22.9 L 128.9 22.2 L 128.90976257324218 22.19947233200073 L 129.3 22.1 L 129.31863679885865 22.17737102508545 L 132.6 22.0 L 136.2 22.5 L 139.7 23.7 L 142.9 25.7 L 145.5 28.4 L 147.4 31.6 L 148.7 35.0 L 149.5 38.6 L 149.9 42.5 L 149.4018723487854 42.532252883911134 L 146.3 45.9 L 141.7 50.4 L 135.8 55.5 L 128.5 61.6 L 119.9 68.4 L 109.9 76.1 L 98.5 84.7 L 108.3 83.6 L 116.3221824645996 83.13718175888062 L 116.3 82.9 L 118.34660196304321 83.02038831710816 L 118.7 83.0 L 118.70147371292114 83.04126319885253 L 124.8 83.4 L 132.9 86.0 L 140.5 90.5 L 147.2 96.6 L 152.7 104.1 L 156.7 113.0 L 158.5 122.8 L 157.8 133.5 L 154.2 144.4 L 154.02988777160644 144.67674980163574 L 161.4 149.0 L 177.9 163.1 L 168.0 172.8 L 153.3 160.4 L 147.750182056427 157.1538800239563 L 135.7 169.4 L 121.9 176.6 L 107.6 179.2 L 93.9 177.7 L 81.4 173.0 L 79.73314113616944 171.852068901062 L 71.8 175.2 L 60.7 177.4 L 50.1 177.3 L 40.4 174.7 L 32.3 169.0 L 27.6 159.9 L 28.141053676605225 150.07085905075073 L 27.6 149.9 L 33.8 140.2 L 43.8 133.4 L 56.5 128.6 L 61.26480674743652 127.74233474731446 L 63.246757698059085 123.97337884902954 L 63.1 123.9 L 64.38546304702759 121.80797185897828 L 64.6 121.4 L 64.62373905181884 121.42018928527833 L 68.2 115.6 L 74.2 109.3 L 80.9 104.9 L 88.1 102.8 L 95.6 103.4 L 102.2 107.0 L 106.9 113.1 L 109.3 121.0 L 109.51664018630981 127.6436318397522 L 124.9 131.2 L 141.78811473846434 137.82813110351563 L 144.1 130.8 L 144.6 123.7 L 143.3 117.2 L 140.7 111.2 L 136.8 106.0 L 132.2 101.8 L 127.1 98.8 L 122.1 97.1 L 119.19665870666503 96.90644388198852 L 119.2 97.0 L 109.5 97.6 L 100.4 98.6 L 92.0 99.9 L 84.3 101.7 L 77.2 103.8 L 70.9 106.3 L 65.3 109.1 L 63.660215091705325 110.1494623184204 L 57.95283842086792 114.21048030853271 L 56.0 115.8 L 52.2 119.5 L 41.7 110.4 L 46.6 105.4 L 47.92517795562744 104.335124874115 L 47.9 104.3 L 48.62553195953369 103.7723403930664 L 52.2 100.9 L 55.52142858505249 98.75714282989502 L 63.3 93.1 L 77.4 82.9 L 90.1 73.5 L 101.4 65.0 L 111.2 57.4 L 119.7 50.7 L 126.7 44.9 L 132.3 40.0 L 134.76940727233887 37.6510516166687 L 134.3 36.9 L 134.0 36.5 L 133.7 36.3 L 133.1 36.1 L 132.1 36.0 L 131.6042372703552 36.03305082321167 L 127.9 36.9 L 123.5 38.2 L 119.4 39.6 L 115.5 41.0 L 112.0 42.4 L 108.7 44.0 L 105.6 45.6 L 102.9 47.2 L 100.4 48.9 L 98.2 50.6 L 97.87521743774414 50.21747827529907 L 97.9 50.5 L 84.0 51.4 L 83.5 46.6 L 82.8 42.7 L 81.9 39.6 L 81.1 37.5 L 80.3 36.3 L 79.9 35.9 L 79.6 35.9 L 78.7 36.1 L 77.0 36.8 L 70.7 24.2 L 74.8 22.6 L 79.1 21.9 Z M 101.4 153.6 L 93.43060045242309 162.6814087867737 L 97.2 164.1 L 107.3 165.2 L 117.5 163.4 L 127.4 158.1 L 135.12477655410765 150.2090991973877 L 120.8 144.6 L 107.11119394302368 141.40321292877198 Z M 50.1 145.9 L 43.6 150.3 L 41.694117641448976 152.9823529243469 L 41.4 157.1 L 42.7 159.6 L 46.0 161.9 L 51.9 163.4 L 59.4 163.5 L 67.48333520889283 161.84437713623046 L 62.8 156.4 L 58.2 145.2 L 58.25826511383057 142.83055372238158 Z M 73.0 139.8 L 71.94084205627442 139.99031744003295 L 71.9 142.4 L 74.6 148.9 L 80.1 155.3 L 80.17406587600708 155.35032682418824 L 83.5 153.0 L 89.7 145.9 L 92.65776958465577 139.6405342102051 L 87.9 139.2 Z M 86.9 117.6 L 83.3 120.0 L 79.4 124.1 L 78.48472318649291 125.6089698791504 L 88.3 125.2 L 95.54640636444091 125.88438282012939 L 95.5 123.1 L 94.4 119.4 L 93.1 117.6 L 91.7 116.8 L 89.8 116.7 Z M 48.9 31.4 L 48.8 33.6 L 48.8 35.7 L 48.9 37.7 L 49.2 39.6 L 49.28068180084229 40.084090900421145 L 50.3 39.3 L 51.6 38.0 L 53.0 36.5 L 54.3 34.8 L 65.6 43.1 L 63.7 45.5 L 61.6 47.8 L 59.5 49.9 L 57.2 51.7 L 54.7 53.3 L 52.1 54.6 L 49.5 55.6 L 46.7 56.4 L 43.8 56.8 L 41.0 57.0 L 41.0 56.64285717010498 L 39.7 54.6 L 38.5 52.2 L 37.4 49.7 L 36.6 47.1 L 35.9 44.5 L 35.3 41.8 L 35.0 39.1 L 34.8 36.3 L 34.8 33.4 L 34.9 30.4 Z " />
</g>
</svg>
