<svg xmlns="http://www.w3.org/2000/svg" xmlns:xlink="http://www.w3.org/1999/xlink" version="1.1" baseProfile="full" viewBox="0 0 200 200" width="200" height="200">
<g fill="black">
<path d="M 86.4 16.8 L 90.8 18.4 L 94.7 20.2 L 98.3 22.4 L 101.4 25.0 L 103.9 28.1 L 105.9 31.6 L 107.0 35.4 L 107.3 39.4 L 107.09593858718873 41.03249101638794 L 107.3 41.1 L 106.98518514633179 41.91851854324341 L 106.8 43.4 L 106.44434061050416 43.324714469909665 L 106.3 43.7 L 104.8 46.8 L 102.9 50.7 L 100.5 55.3 L 97.5 60.8 L 94.41447534561158 66.51729574203492 L 95.8 66.2 L 107.7 65.1 L 118.6 65.9 L 128.4 69.0 L 136.7 74.4 L 143.3 82.0 L 147.9 91.3 L 150.8 102.3 L 151.74919357299805 113.0 L 152.0 113.0 L 151.87431526184082 114.41046247482299 L 151.9 114.7 L 151.84834928512572 114.70185794830323 L 151.1 123.1 L 148.6 132.8 L 144.4 142.0 L 138.6 150.6 L 131.3 158.5 L 122.5 165.9 L 112.3 172.6 L 100.6 178.8 L 87.6 184.4 L 73.1 189.6 L 68.8 176.3 L 82.4 171.4 L 94.6 166.2 L 105.1 160.5 L 114.2 154.6 L 121.6 148.4 L 127.6 141.9 L 132.2 135.1 L 135.4 128.1 L 137.3 120.8 L 137.8941249847412 114.17974996566772 L 136.9 104.6 L 134.8 96.1 L 131.6 89.7 L 127.5 85.0 L 122.5 81.7 L 116.0 79.7 L 107.9 79.1 L 98.1 80.0 L 86.5 82.7 L 84.96642370224 83.21509437561035 L 80.6 90.9 L 79.89536428451538 92.10794706344605 L 79.8 92.4 L 77.7 96.8 L 75.2 100.7 L 72.2 104.1 L 68.6 106.8 L 64.5 108.8 L 60.1 109.9 L 55.5 110.3 L 50.9 109.9 L 51.13077688217163 108.37247676849366 L 50.2 108.6 L 49.3 102.5 L 49.8 96.6 L 51.5 91.1 L 54.2 86.3 L 57.6 82.1 L 61.5 78.4 L 65.8 75.3 L 70.4 72.6 L 75.1 70.4 L 76.42273511886597 69.89342060089112 L 77.9 67.3 L 81.8 60.3 L 85.2 54.1 L 88.1 48.8 L 90.4 44.3 L 92.2 40.8 L 93.24905662536621 38.439622688293454 L 93.2 37.9 L 92.9 37.0 L 92.4 36.1 L 91.5 35.0 L 90.1 33.8 L 88.1 32.5 L 85.4 31.3 L 82.1 30.1 L 78.2 29.0 L 81.6 15.4 Z " />
</g>
</svg>
