<svg xmlns="http://www.w3.org/2000/svg" xmlns:xlink="http://www.w3.org/1999/xlink" version="1.1" baseProfile="full" viewBox="0 0 200 200" width="200" height="200">
<g fill="black">
<path d="M 90.6 15.7 L 92.63273162841797 16.798773860931398 L 92.7 16.7 L 93.60625 17.325 L 94.3 17.7 L 94.24956455230713 17.76866521835327 L 95.6 18.7 L 98.4 20.6 L 101.1 22.3 L 103.7 23.8 L 106.1 25.3 L 108.5 26.6 L 110.7 27.7 L 112.8 28.8 L 114.7 29.7 L 116.5 30.5 L 116.35566034317017 30.86509437561035 L 121.7 43.4 L 111.6 47.4 L 101.5 50.7 L 91.5 53.3 L 81.6 55.1 L 71.7 56.3 L 69.64696350097657 56.38466129302979 L 67.3 61.3 L 62.7 71.3 L 58.5 80.2 L 54.9 87.9 L 51.8 94.6 L 49.772347927093506 98.88926410675049 L 55.8 97.0 L 63.0 94.6 L 70.7 92.1 L 79.0 89.3 L 87.7 86.3 L 90.83125143051147 85.21086912155151 L 89.7 82.2 L 102.9 77.5 L 104.06749439239502 80.61331825256347 L 106.7 79.7 L 111.3 92.9 L 108.97995443344116 93.71321182250976 L 109.2 94.3 L 115.6 109.5 L 121.2 121.4 L 123.6 119.0 L 127.3 114.1 L 128.7 111.0 L 128.8 109.6 L 128.2 108.4 L 125.7 106.2 L 133.8 94.8 L 139.2 99.8 L 142.5 106.6 L 142.3 114.2 L 139.3 121.4 L 134.0 128.3 L 128.04324321746827 134.25675678253174 L 128.5 135.1 L 135.1 145.5 L 141.6 154.2 L 148.1 161.3 L 151.1023036956787 163.88010473251342 L 150.9 162.7 L 150.1 158.6 L 149.3 154.0 L 148.4 148.9 L 147.4 143.3 L 146.2 137.2 L 160.0 134.7 L 161.1 140.8 L 162.2 146.5 L 163.1 151.6 L 163.9 156.1 L 164.6 160.2 L 165.3 163.8 L 165.8 166.8 L 166.3 169.3 L 166.6 171.3 L 166.9 172.8 L 166.20471506118776 172.9150471687317 L 166.9 173.2 L 163.0 186.7 L 154.4 183.2 L 146.2 178.1 L 138.4 171.3 L 130.8 163.1 L 123.5 153.4 L 117.29795007705688 143.6164846420288 L 117.2 143.7 L 105.3 152.8 L 90.9 163.1 L 73.9 174.8 L 69.95 168.95 L 65.6 163.5 L 66.7 162.4 L 67.8 161.2 L 68.7 159.6 L 69.5 157.8 L 70.2 155.6 L 70.8 153.1 L 71.1 150.2 L 71.3 147.0 L 71.3 143.5 L 71.1 139.6 L 85.0 138.3 L 85.3 143.0 L 85.3 147.4 L 85.17378606796265 149.9873857498169 L 97.0 141.6 L 108.5 132.8 L 110.40897188186645 131.17303533554076 L 109.5 129.5 L 102.8 115.2 L 96.2 99.5 L 95.7535252571106 98.31169023513795 L 92.3 99.5 L 83.5 102.6 L 75.2 105.3 L 67.4 107.9 L 60.1 110.3 L 53.3 112.5 L 47.0 114.4 L 41.2 116.2 L 35.8 117.7 L 32.11390151977539 104.25072174072265 L 32.0 104.2 L 33.0 102.0 L 34.5 98.6 L 36.5 94.2 L 39.1 88.7 L 42.2 82.0 L 45.8 74.2 L 50.0 65.4 L 54.19822731018066 56.37827739715576 L 52.3 56.3 L 42.7 55.3 L 33.2 53.5 L 23.8 50.9 L 28.0 37.6 L 36.3 39.8 L 44.8 41.4 L 53.3 42.4 L 60.62165431976318 42.65540657043457 L 61.77820520401001 40.17998189926148 L 61.6 40.1 L 64.1 34.8 L 66.6 30.0 L 69.2 25.9 L 71.9 22.3 L 74.9 19.3 L 78.2 16.9 L 82.0 15.3 L 86.3 14.8 Z M 152.5 28.8 L 156.7 30.5 L 160.5 33.0 L 163.6 36.3 L 166.4 40.1 L 168.8 44.5 L 170.8 49.4 L 172.7 55.0 L 159.2 58.9 L 157.7 54.3 L 156.1 50.5 L 154.5 47.4 L 152.9 45.2 L 151.4 43.7 L 150.2 42.8 L 149.1 42.4 L 147.9 42.3 L 146.5 42.4 L 144.5 43.0 L 139.2 30.1 L 143.5 28.7 L 148.0 28.3 Z M 85.2 29.0 L 84.1 29.8 L 82.6 31.4 L 80.8 33.8 L 78.7 37.0 L 78.24171543121338 37.87292289733887 L 78.3 37.9 L 76.57192831039428 41.62899684906006 L 79.5 41.3 L 88.5 39.6 L 97.6 37.2 L 98.41437339782715 36.93444347381592 L 96.5 35.8 L 93.7 34.1 L 90.8 32.3 L 87.9 30.4 L 85.59820356369019 28.84071855545044 Z " />
</g>
</svg>
