<svg xmlns="http://www.w3.org/2000/svg" xmlns:xlink="http://www.w3.org/1999/xlink" version="1.1" baseProfile="full" viewBox="0 0 200 200" width="200" height="200">
<g fill="black">
<path d="M 142.2 18.5 L 145.00064516067505 19.90032262802124 L 145.1 19.6 L 146.30638294219972 20.553191471099854 L 147.6 21.2 L 150.6079999923706 23.952000045776366 L 153.2 26.0 L 155.0 35.5 L 152.6 44.6 L 147.9 54.2 L 145.09693880081176 58.87176866531372 L 146.2 58.6 L 152.9 58.3 L 159.2 59.9 L 164.7 63.5 L 168.6 68.7 L 171.2 74.9 L 172.5 82.0 L 172.9375 89.0 L 173.0 89.0 L 172.96850395202637 89.49606294631958 L 173.0 90.0 L 172.93650789260863 90.0 L 172.6 95.3 L 171.5 101.4 L 169.6 107.0 L 166.9 112.2 L 163.4 116.8 L 159.2 120.9 L 154.3 124.3 L 148.9 127.1 L 142.8 129.2 L 137.84337902069092 130.420091342926 L 137.5 131.3 L 133.6 139.3 L 132.84217462539672 140.5850082397461 L 136.2 140.5 L 144.0 142.1 L 151.7 145.4 L 159.3 150.3 L 166.7 156.7 L 174.1 164.5 L 181.6 173.8 L 170.4 182.2 L 163.5 173.7 L 157.0 166.8 L 150.8 161.5 L 145.0 157.7 L 139.7 155.4 L 134.9 154.4 L 130.4 154.6 L 125.9 155.8 L 121.3 158.3 L 118.46363639831543 160.66363639831542 L 117.6 161.7 L 110.8 168.6 L 103.3 175.2 L 95.1 181.6 L 86.8 170.3 L 94.3 164.5 L 101.1 158.4 L 106.99758520126343 152.40573301315308 L 106.8 152.2 L 108.0937931060791 151.1572413444519 L 112.6 145.9 L 117.3 139.3 L 121.4 132.6 L 124.7 125.8 L 127.4 118.7 L 129.5 111.4 L 130.2654676437378 107.35395679473876 L 130.0 107.0 L 129.7 106.8 L 129.2 106.6 L 128.2 106.4 L 126.8 106.4 L 124.8 106.6 L 122.3 107.2 L 119.3 108.2 L 116.28919668197632 99.92029085159302 L 107.8 111.4 L 99.7 122.9 L 88.2 115.0 L 96.5 103.2 L 105.3 91.2 L 114.1 79.3 L 122.5 67.8 L 129.8 57.0 L 135.7 47.4 L 139.6 39.5 L 141.0 34.2 L 141.0 33.86666669845581 L 139.8 32.8 L 138.0 31.9 L 135.7 31.5 L 132.7 31.7 L 129.1 32.6 L 125.0 34.1 L 120.4 36.3 L 115.7 38.9 L 110.7 41.9 L 105.7 45.2 L 97.9 33.6 L 103.2 30.1 L 108.6 26.8 L 114.0 23.8 L 119.5 21.2 L 125.0 19.2 L 130.6 17.9 L 136.4 17.5 Z M 43.9 18.4 L 46.9 19.6 L 49.7 21.1 L 52.2 22.9 L 54.5 24.9 L 56.5 27.3 L 58.0 30.0 L 59.1 32.9 L 59.7 35.9 L 59.99054288864136 38.90227670669556 L 60.3 39.0 L 55.3 55.7 L 51.2 71.6 L 47.9 86.9 L 45.6 101.5 L 44.1 115.5 L 43.5 128.7 L 43.77222623825073 140.13350257873535 L 46.0 134.6 L 49.7 126.3 L 53.9 117.4 L 58.7 107.8 L 71.2 114.1 L 66.5 123.5 L 62.4 132.1 L 58.9 140.1 L 55.9 147.4 L 53.5 154.0 L 51.7 159.8 L 50.4 164.8 L 49.7 169.1 L 49.5 172.4 L 49.7 174.7 L 49.57917051315307 174.72188940048218 L 49.6 174.8 L 36.3 179.1 L 33.2 167.3 L 31.0 155.0 L 29.8 142.1 L 29.5 128.5 L 30.1 114.4 L 31.7 99.7 L 34.2 84.4 L 37.5 68.4 L 41.8 51.9 L 45.9432032585144 38.27523555755615 L 45.9 37.8 L 45.7 36.8 L 45.4 36.0 L 45.0 35.3 L 44.4 34.6 L 43.6 33.9 L 42.5 33.1 L 41.0 32.3 L 39.2 31.6 L 37.1 31.0 L 40.7 17.4 Z M 148.3 72.4 L 143.8 73.5 L 138.1 75.9 L 131.4 79.5 L 131.34844560623168 79.41213960647583 L 125.4 87.6 L 121.40124711990356 93.00740451812744 L 122.3 92.8 L 126.0 92.4 L 129.6 92.5 L 133.2 93.2 L 136.6 94.6 L 139.6 96.8 L 142.0 99.7 L 143.7 102.9 L 144.6402727127075 105.89177665710449 L 144.7 105.9 L 144.67890577316285 106.01470003128051 L 144.8 106.4 L 144.59971113204955 106.44532079696656 L 143.1580885887146 114.28414306640624 L 143.4 114.2 L 147.2 112.3 L 150.4 110.0 L 153.0 107.6 L 155.1 104.8 L 156.7 101.6 L 157.9 97.9 L 158.7 93.7 L 158.96842107772827 89.49473686218262 L 158.6 83.6 L 157.7 78.7 L 156.4 75.5 L 155.0 73.7 L 153.6 72.7 L 151.6 72.3 Z " />
</g>
</svg>
