<svg xmlns="http://www.w3.org/2000/svg" xmlns:xlink="http://www.w3.org/1999/xlink" version="1.1" baseProfile="full" viewBox="0 0 200 200" width="200" height="200">
<g fill="black">
<path d="M 83.8 21.5 L 90.2 30.4 L 92.09106473922729 33.02308979034424 L 95.9 31.3 L 99.9 29.1 L 103.7 26.5 L 107.4 23.5 L 110.9 20.1 L 121.0 29.8 L 116.7 34.0 L 112.1 37.7 L 107.2 41.0 L 102.1 43.9 L 100.66964845657348 44.50922384262085 L 102.6 47.0 L 107.26310157775879 52.39171123504639 L 109.4 50.7 L 115.5 45.6 L 120.1 41.5 L 122.8 38.5 L 134.0 47.0 L 129.8 51.5 L 124.6 56.3 L 118.2 61.5 L 117.43961868286132 62.1230902671814 L 122.8 66.2 L 130.4 70.4 L 132.6516981124878 71.19471702575683 L 131.9 68.0 L 131.0 64.2 L 130.1 60.0 L 129.1 55.4 L 142.8 52.5 L 143.8 57.1 L 144.7 61.1 L 145.5 64.8 L 146.3 67.9 L 147.0 70.7 L 147.7 72.9 L 148.2 74.6 L 148.3721311569214 74.97868852615356 L 148.5 75.0 L 148.48247547149657 75.22144603729248 L 148.7 75.7 L 148.8 76.1 L 148.44989156723022 75.63318872451782 L 147.4 88.9 L 135.4 87.0 L 124.7 83.2 L 115.1 77.9 L 106.5 71.4 L 106.29341993331909 71.2014684677124 L 103.2 73.7 L 95.0 80.6 L 86.8 87.9 L 78.8 95.6 L 71.3 103.7 L 64.6 112.1 L 64.47964811325073 112.01159992218018 L 64.17992563247681 112.42788105010986 L 67.6 109.9 L 74.6 105.6 L 81.8 102.2 L 89.2 99.6 L 93.62098550796509 98.61109533309937 L 93.3 96.3 L 91.3 85.3 L 105.0 82.5 L 107.1 94.1 L 107.42690315246583 96.42918519973755 L 114.5 95.7 L 123.9 95.9 L 132.8 97.2 L 141.1 99.6 L 148.6 103.1 L 155.1 107.8 L 160.3 113.7 L 163.7 120.9 L 164.8714412689209 128.1989800453186 L 164.9 128.2 L 164.88503065109253 128.28365240097045 L 165.0 129.0 L 164.75684213638306 129.0 L 163.2 137.7 L 159.2 146.0 L 153.4 152.8 L 146.5 158.1 L 138.7 161.9 L 130.5 164.2 L 122.1 165.0 L 113.9 164.3 L 107.48553848266602 162.16184616088867 L 106.1 169.6 L 103.6 179.5 L 100.6 189.2 L 87.3 184.7 L 90.1 175.7 L 92.4 166.6 L 94.1 157.3 L 95.3 147.7 L 96.0 137.9 L 96.1 127.9 L 95.7 117.6 L 95.27156639099121 112.6016077041626 L 93.1 113.1 L 87.2 115.2 L 81.2 118.0 L 75.4 121.5 L 69.5 125.8 L 63.7 130.9 L 58.0 136.8 L 52.3 143.5 L 46.7 151.0 L 35.2 142.9 L 35.45819797515869 142.55714693069459 L 35.0 142.6 L 35.0 139.2 L 35.5 135.7 L 36.6 132.2 L 38.0 128.6 L 39.8 124.7 L 42.0 120.7 L 44.6 116.3 L 47.6 111.7 L 51.0 106.8 L 54.7 101.6 L 54.921235942840575 101.76250076293945 L 60.7 94.5 L 68.8 85.8 L 77.3 77.6 L 85.9 70.0 L 94.3 62.9 L 96.35425825119019 61.20978755950928 L 91.7 55.9 L 86.55575103759766 49.19688768386841 L 85.3 49.5 L 79.3 50.5 L 73.1 51.0 L 66.7 51.0 L 66.70422916412353 50.88158254623413 L 64.2 50.4 L 61.7 49.8 L 59.3 49.2 L 56.9 48.4 L 54.6 47.6 L 52.4 46.7 L 50.3 45.7 L 48.3 44.6 L 46.4 43.4 L 44.6 42.2 L 52.9 31.0 L 54.1 31.8 L 55.3 32.5 L 58.1 33.9 L 59.7 34.6 L 61.3 35.2 L 63.1 35.7 L 65.0 36.2 L 67.0 36.7 L 69.1 37.0 L 72.6 37.0 L 77.43338956832886 36.62091064453125 L 72.4 29.7 L 66.0 21.0 L 77.1 12.5 Z M 109.12766609191894 110.28986015319825 L 109.7 116.7 L 110.1 127.7 L 110.0 138.5 L 109.4197343826294 147.28687915802 L 112.1 149.1 L 116.6 150.6 L 122.0 151.0 L 127.8 150.5 L 133.7 148.8 L 139.2 146.1 L 143.9 142.6 L 147.5 138.3 L 149.9 133.4 L 150.84878702163695 127.99191370010377 L 150.4 125.0 L 148.7 121.5 L 145.8 118.2 L 141.6 115.2 L 136.3 112.7 L 129.9 110.9 L 122.8 109.9 L 115.1 109.7 Z " />
</g>
</svg>
