<svg xmlns="http://www.w3.org/2000/svg" xmlns:xlink="http://www.w3.org/1999/xlink" version="1.1" baseProfile="full" viewBox="0 0 200 200" width="200" height="200">
<g fill="black">
<path d="M 96.5 26.1 L 100.7 35.6 L 104.2 45.5 L 106.9 55.9 L 108.8 66.7 L 109.75631456375122 76.43702096939087 L 119.8 75.3 L 129.8 74.3 L 139.3 73.7 L 148.06692943572997 73.31464042663575 L 148.2 70.6 L 147.0 60.7 L 144.2 51.8 L 139.8 44.2 L 133.6 38.2 L 141.9 26.9 L 150.9 35.7 L 157.1 46.2 L 160.7 57.9 L 162.2 70.1 L 162.03613595962526 73.48652353286744 L 165.1 73.6 L 172.8 74.1 L 180.0 75.0 L 177.9 88.9 L 171.4 88.1 L 164.4 87.5 L 160.6682536125183 87.40179615020752 L 159.3 94.6 L 155.4 106.0 L 150.0 116.3 L 148.0433702468872 118.75976305007934 L 148.1 118.8 L 147.3851508140564 119.5872389793396 L 143.0 125.1 L 140.55735054016114 127.10646200180054 L 140.2 127.5 L 136.89090909957886 130.11818180084228 L 134.6 132.0 L 134.57172803878785 131.953138256073 L 131.1 134.7 L 121.3 140.7 L 111.7 145.9 L 102.9 150.4 L 95.7 154.4 L 91.1 157.7 L 90.33199996948242 158.53199996948243 L 92.2 160.4 L 92.13240556716919 160.4882703781128 L 92.9 161.0 L 96.0 162.1 L 100.9 163.1 L 107.0 163.6 L 114.0 163.7 L 121.5 163.4 L 129.2 162.7 L 136.8 161.7 L 143.9 160.5 L 150.3 159.1 L 153.6 172.8 L 146.5 174.3 L 138.8 175.6 L 130.7 176.6 L 122.5 177.3 L 114.3 177.7 L 106.4 177.6 L 99.1 176.9 L 92.3 175.6 L 86.3 173.3 L 83.84193964004517 171.31464357376097 L 83.7 171.5 L 82.79891700744629 170.47220220565796 L 81.1 169.1 L 81.39174118041993 168.8671422958374 L 77.3 164.2 L 76.7 154.4 L 81.6 147.4 L 88.3 142.5 L 96.4 138.0 L 105.3 133.4 L 114.4 128.5 L 123.2 123.1 L 127.30702810287475 119.91164922714233 L 127.3 119.9 L 131.00228567123412 116.97714281082153 L 136.7 110.7 L 136.70194272994996 110.70138034820556 L 138.2 108.8 L 142.5 100.4 L 145.8 91.0 L 146.4747561454773 87.37762479782104 L 140.1 87.6 L 130.9 88.3 L 124.99216651916504 88.84814949035645 L 125.0 88.9 L 112.7 90.6 L 110.25598707199097 90.93139162063599 L 109.9 101.7 L 108.7 114.2 L 106.8 127.1 L 93.1 124.8 L 94.8 112.6 L 95.9 100.8 L 96.18628568649292 92.78400001525878 L 90.13347635269164 93.53390560150146 L 89.1 93.7 L 89.09255952835083 93.65535717010498 L 78.6 94.8 L 68.1 95.9 L 66.60875301361084 96.03421220779418 L 66.9 100.5 L 67.5 108.6 L 68.3 115.0 L 68.7142653465271 116.31811695098877 L 70.7 114.2 L 72.0 112.7 L 73.2 111.2 L 74.4 109.8 L 85.6 118.2 L 84.2 119.9 L 82.7 121.7 L 81.1 123.6 L 79.4 125.4 L 75.7 129.1 L 73.7 131.0 L 71.7 132.8 L 69.5 134.8 L 67.2 136.7 L 62.42065954208374 130.96479148864745 L 62.4 131.0 L 56.8 124.8 L 54.5 117.6 L 53.5 109.8 L 53.0 101.4 L 52.67340316772461 97.247554397583 L 48.4 97.6 L 39.2 98.2 L 30.5 98.6 L 22.1 98.9 L 21.8 84.9 L 29.9 84.7 L 38.4 84.2 L 47.4 83.6 L 51.139130401611325 83.32448511123657 L 49.3 75.0 L 46.3 67.3 L 42.0 60.7 L 35.9 55.3 L 43.7 43.7 L 52.6 51.6 L 58.8 61.0 L 62.7 71.1 L 65.0 81.3 L 65.11096134185792 82.15354900360107 L 66.8 82.0 L 77.1 80.9 L 87.9 79.7 L 88.3 79.65 L 95.85063695907593 78.3915605545044 L 94.9 68.6 L 93.2 58.9 L 90.8 49.6 L 87.7 40.8 L 84.0 32.4 L 79.5 24.5 L 91.4 17.1 Z " />
</g>
</svg>
