<svg xmlns="http://www.w3.org/2000/svg" xmlns:xlink="http://www.w3.org/1999/xlink" version="1.1" baseProfile="full" viewBox="0 0 200 200" width="200" height="200">
<g fill="black">
<path d="M 147.9 61.9 L 145.6 64.3 L 143.2 66.9 L 140.6 69.9 L 137.9 73.2 L 135.1 76.8 L 132.2 80.6 L 129.2 84.8 L 126.0 89.2 L 123.88148145675659 92.2814814567566 L 129.8 93.5 L 136.0 95.6 L 141.7 98.4 L 146.8 101.9 L 151.2 106.0 L 154.8 110.8 L 157.7 116.2 L 159.61432857513427 121.84726934432983 L 159.9 121.8 L 160.3 132.4 L 158.3 142.5 L 154.0 151.8 L 147.7 160.0 L 139.7 166.9 L 130.2 172.2 L 119.5 175.8 L 107.7 177.4 L 95.0 176.8 L 82.73310585021973 174.10500049591064 L 82.7 174.2 L 82.05548391342163 173.95612907409668 L 81.8 173.9 L 81.81143579483032 173.86378650665284 L 75.3 171.4 L 68.7 168.5 L 63.0 165.2 L 58.0 161.6 L 53.8 157.5 L 50.5 152.8 L 48.2 147.6 L 47.2 142.0 L 47.2 136.2 L 48.1 130.3 L 48.419589614868165 130.3769814491272 L 52.0 123.7 L 57.9 119.0 L 65.2 117.7 L 72.0 119.7 L 77.8 123.9 L 82.7 129.8 L 86.7 137.1 L 89.7 145.9 L 91.5 155.9 L 91.76650400161743 161.86968898773193 L 96.9 163.0 L 107.0 163.4 L 116.3 162.1 L 124.5 159.4 L 131.7 155.4 L 137.5 150.3 L 142.0 144.5 L 145.0 138.1 L 146.4 131.3 L 146.0745283126831 125.44150943756104 L 144.8 121.8 L 143.0 118.3 L 140.7 115.4 L 138.0 112.8 L 134.7 110.5 L 130.8 108.6 L 126.1 107.0 L 120.8 105.9 L 114.7 105.2 L 108.0 105.0 L 108.0 91.40172414779663 L 107.7 91.2 L 111.2 86.1 L 114.5 81.2 L 117.8 76.6 L 118.48023328781127 75.68593645095825 L 114.3 77.5 L 108.5 80.1 L 102.4 82.9 L 95.8 85.9 L 95.57936429977417 85.42507228851318 L 95.5 85.8 L 92.4 85.0 L 89.4 84.1 L 86.6 83.0 L 84.0 81.8 L 81.5 80.3 L 79.2 78.6 L 77.1 76.7 L 75.2 74.7 L 73.5 72.4 L 72.1 70.0 L 84.7 63.7 L 85.3 64.8 L 86.0 65.8 L 86.9 66.8 L 87.9 67.7 L 89.1 68.6 L 90.6 69.4 L 92.2 70.2 L 94.0 70.9 L 94.5384614944458 71.05384616851806 L 96.6 70.1 L 102.8 67.3 L 108.6 64.7 L 113.9 62.4 L 118.9 60.2 L 123.4 58.2 L 127.5 56.5 L 131.2 54.9 L 134.5 53.6 L 137.4 52.4 L 137.46184406280517 52.558854293823245 L 138.0 52.0 Z M 63.8 131.7 L 63.0 132.4 L 61.6 135.3 L 61.50114212036133 135.2650652885437 L 61.1 137.5 L 61.1 140.7 L 61.6 143.5 L 62.7 145.9 L 64.4 148.4 L 66.9 150.9 L 70.5 153.4 L 75.0 156.0 L 77.5315068244934 157.13013696670532 L 76.1 149.4 L 73.8 142.8 L 71.0 137.6 L 68.1 134.0 L 65.6 132.1 L 64.2 131.7 Z M 152.0 24.7 L 159.1 25.2 L 165.9 26.0 L 172.4 27.1 L 169.5 40.8 L 163.9 39.8 L 157.9 39.1 L 151.4 38.7 L 144.4 38.5 L 136.9 38.7 L 129.1 39.1 L 120.8 39.8 L 112.0 40.8 L 102.8 42.1 L 93.2 43.7 L 93.16951217651368 43.53170728683472 L 87.1 44.3 L 79.4 45.0 L 71.9 45.5 L 64.5 45.7 L 57.4 45.7 L 50.4 45.4 L 43.6 44.8 L 37.0 43.9 L 30.6 42.8 L 33.3 29.1 L 39.1 30.1 L 45.1 30.9 L 51.3 31.4 L 57.7 31.7 L 64.4 31.7 L 71.2 31.5 L 78.3 31.1 L 85.6 30.4 L 93.1 29.4 L 99.59908256530761 28.387156009674072 L 100.7 28.2 L 110.2 26.9 L 119.4 25.8 L 128.1 25.1 L 136.4 24.7 L 144.4 24.5 Z " />
</g>
</svg>
