<svg xmlns="http://www.w3.org/2000/svg" xmlns:xlink="http://www.w3.org/1999/xlink" version="1.1" baseProfile="full" viewBox="0 0 200 200" width="200" height="200">
<g fill="black">
<path d="M 65.2 16.0 L 67.9 17.5 L 70.3 19.2 L 72.5 21.2 L 74.4 23.5 L 75.9 26.0 L 77.0 28.8 L 77.7 31.7 L 78.0 34.6 L 77.94372596740723 36.288221740722655 L 81.9 34.4 L 85.9 32.6 L 89.4 31.0 L 92.5 29.6 L 95.3 28.5 L 100.47761039733886 41.10210847854614 L 101.0 41.4 L 99.0 44.7 L 96.6 48.2 L 93.9 51.9 L 90.7 55.9 L 87.2 60.1 L 83.3 64.6 L 78.9 69.3 L 78.16164684295654 70.08548212051392 L 81.9 68.3 L 89.0 65.1 L 96.03295097351074 62.01706256866455 L 96.0 61.9 L 105.9 59.5 L 114.31981420516968 58.112118530273435 L 116.8 48.9 L 118.0553113937378 43.33296699523926 L 117.7 42.8 L 117.1 42.0 L 116.4 41.3 L 115.6 40.7 L 114.7 40.2 L 113.6 39.7 L 112.3 39.3 L 110.8 39.0 L 113.1 25.2 L 115.8 25.8 L 118.4 26.6 L 120.9 27.7 L 123.3 29.0 L 125.5 30.6 L 127.4 32.5 L 129.1 34.6 L 130.6 36.9 L 131.7 39.4 L 132.39007873535155 41.125196838378905 L 132.8 41.2 L 132.665882396698 41.81470584869385 L 132.7 41.9 L 132.64353094100952 41.9171498298645 L 130.4 52.2 L 128.93703699111938 57.61296300888061 L 131.2 57.7 L 138.4 59.2 L 144.9 61.7 L 150.5 65.6 L 155.1 70.6 L 158.5 76.6 L 160.32166814804077 81.98580150604248 L 160.6 81.9 L 162.2 91.2 L 161.2 100.0 L 157.7 107.7 L 152.2 113.9 L 145.1 118.2 L 136.9 120.5 L 128.1 120.8 L 118.9 118.8 L 109.8 114.5 L 107.1960379600525 112.53971395492553 L 103.3 119.7 L 96.0 132.0 L 92.12511014938354 137.91997060775756 L 93.7 137.5 L 96.6 136.9 L 99.6 136.6 L 102.6 136.6 L 105.6 136.9 L 108.5 137.5 L 111.3 138.4 L 111.11008443832398 138.92933902740478 L 111.3 138.8 L 115.8 147.2 L 118.2 154.7 L 119.6 160.9 L 120.6 165.2 L 121.7 167.4 L 123.3 168.7 L 127.7 170.1 L 136.5 170.8 L 150.0 170.2 L 169.0 168.0 L 170.9 181.9 L 151.2 184.1 L 136.4 184.8 L 125.3 183.9 L 116.8 181.1 L 110.6 175.9 L 107.3 169.6 L 105.8 163.7 L 104.6 158.0 L 102.8 152.5 L 101.78448276519775 150.6 L 100.3 150.6 L 98.7 150.7 L 97.0 151.1 L 95.3 151.6 L 93.4 152.3 L 91.5 153.2 L 89.5 154.4 L 85.36191959381104 147.74551935195922 L 81.7 152.8 L 74.5 161.4 L 67.4 168.6 L 60.3 174.7 L 53.0 179.4 L 45.6 182.9 L 38.1 184.9 L 38.06975107192993 184.7171911239624 L 37.9 184.9 L 28.0 175.0 L 29.6 173.3 L 30.9 171.5 L 31.9 169.6 L 32.8 167.5 L 33.4 165.3 L 33.9 162.9 L 34.1 160.4 L 34.1 157.6 L 33.8 154.5 L 33.3 151.3 L 47.0 148.6 L 47.7 152.8 L 48.1 156.9 L 48.1 160.9 L 47.8 164.8 L 47.528736209869386 166.27257471084596 L 51.8 163.5 L 57.9 158.4 L 64.1 152.0 L 70.1303030014038 144.76363639831544 L 77.5 134.0 L 84.5 123.1 L 91.0 112.3 L 96.8 101.5 L 102.0 90.8 L 106.6 80.2 L 109.30406093597412 73.1018401145935 L 108.7 73.2 L 101.01194648742675 75.10041770935058 L 94.6 77.9 L 87.8 80.9 L 81.4 84.0 L 75.3 87.1 L 69.6 90.2 L 64.2 93.2 L 59.2 96.3 L 54.6 99.4 L 50.3 102.4 L 46.3 105.4 L 46.28941926956177 105.38674373626709 L 46.0 105.6 L 41.95 99.95 L 37.6 94.5 L 38.931578922271726 93.47105264663696 L 40.1 92.4 L 41.4 91.1 L 42.9 89.5 L 44.4 87.7 L 46.1 85.6 L 47.8 83.3 L 49.6 80.8 L 51.5 78.0 L 53.5 75.0 L 53.80296392440796 75.19512929916382 L 59.1 69.8 L 64.1 64.7 L 68.7 59.8 L 72.8 55.2 L 74.47962379455566 53.3435736656189 L 73.3 53.9 L 67.6 56.7 L 61.5 59.6 L 59.147524738311766 60.74059410095215 L 56.4 62.3 L 52.9 64.2 L 49.8 65.9 L 47.0 67.5 L 44.5 69.0 L 38.596915340423585 58.93981351852417 L 36.9 57.1 L 42.0 52.5 L 46.6 48.2 L 50.8 44.3 L 54.5 40.8 L 57.8 37.7 L 60.7 34.9 L 63.2 32.6 L 63.43333330154419 32.388888931274415 L 63.4 32.3 L 63.0 31.6 L 62.4 30.9 L 61.6 30.1 L 60.5 29.4 L 59.1 28.6 L 57.4 27.8 L 62.4 14.8 Z M 123.8 74.4 L 119.6 85.5 L 114.7 96.7 L 113.24772233963013 99.65736541748046 L 117.0 102.5 L 123.4 105.5 L 129.4 106.8 L 134.8 106.7 L 139.5 105.4 L 143.2 103.1 L 146.0 100.0 L 147.7 96.2 L 148.2 91.6 L 147.37051944732667 86.43878755569457 L 147.1 86.5 L 145.7 82.2 L 143.8 78.8 L 141.4 76.2 L 138.4 74.1 L 134.5 72.6 L 129.6 71.6 L 124.7613049507141 71.43597640991212 Z " />
</g>
</svg>
