<svg xmlns="http://www.w3.org/2000/svg" xmlns:xlink="http://www.w3.org/1999/xlink" version="1.1" baseProfile="full" viewBox="0 0 200 200" width="200" height="200">
<g fill="black">
<path d="M 100.9 52.3 L 99.5 68.1 L 96.99273662567138 82.66141405105591 L 99.3 82.4 L 123.9 77.4 L 152.9 69.3 L 157.0 82.6 L 127.2 91.0 L 101.5 96.2 L 93.24264078140259 97.155712890625 L 93.1 97.7 L 88.1 111.5 L 86.29130640029908 115.29242210388183 L 94.1 114.4 L 105.1 115.5 L 116.6 119.0 L 128.4 124.7 L 140.3 132.7 L 152.2 143.1 L 164.1 155.8 L 175.7 170.9 L 164.2 179.0 L 153.4 164.8 L 142.5 153.1 L 131.8 143.8 L 121.4 136.8 L 111.5 132.0 L 102.3 129.2 L 94.1 128.4 L 86.9 129.2 L 80.7 131.5 L 75.5 135.3 L 75.38661947250367 135.18194398880004 L 74.4 136.8 L 65.8 148.4 L 56.0 159.3 L 45.1 169.4 L 33.0 178.7 L 24.9 167.2 L 36.1 158.6 L 46.1 149.4 L 55.0 139.6 L 62.8 129.1 L 69.5 117.9 L 75.2 106.0 L 77.82375316619873 98.71179685592651 L 62.3 98.8 L 48.5 96.6 L 38.2 92.2 L 31.8 83.9 L 32.6 73.3 L 39.3 65.0 L 49.9 58.2 L 56.3 70.6 L 48.4 75.7 L 45.3 79.2 L 45.1 79.6 L 46.2 80.7 L 52.1 83.1 L 63.2 84.8 L 79.0 84.7 L 82.12728252410889 84.34567737579346 L 83.2 80.3 L 85.6 66.3 L 86.9 51.6 Z M 134.0350687980652 20.027073287963866 L 144.4 28.3 L 142.5 30.6 L 140.4 33.0 L 138.1 35.4 L 135.5 38.1 L 132.8 40.8 L 129.7 43.7 L 126.5 46.7 L 123.0 49.9 L 119.2 53.2 L 115.3 56.6 L 106.2 46.0 L 110.0 42.6 L 112.49523162841797 40.44196186065674 L 108.5 41.6 L 96.4 44.7 L 85.8 46.7 L 76.3 47.6 L 67.7 47.1 L 59.9 45.1 L 52.9 41.4 L 46.9 36.2 L 41.7 29.7 L 53.3 21.8 L 57.1 26.6 L 60.8 29.9 L 64.9 32.0 L 69.8 33.2 L 76.0 33.6 L 83.8 32.8 L 93.3 31.0 L 104.8 28.1 L 118.2 24.2 L 133.8 19.3 Z " />
</g>
</svg>
