<svg xmlns="http://www.w3.org/2000/svg" xmlns:xlink="http://www.w3.org/1999/xlink" version="1.1" baseProfile="full" viewBox="0 0 200 200" width="200" height="200">
<g fill="black">
<path d="M 88.7 16.5 L 91.3 17.6 L 93.8 18.8 L 96.1 20.2 L 98.3 21.8 L 100.3 23.5 L 102.1 25.4 L 103.7 27.5 L 105.2 29.7 L 105.92183504104614 31.274912929534914 L 106.5 31.5 L 106.27864074707031 32.053398036956786 L 106.3 32.1 L 106.25124759674073 32.12188100814819 L 103.1 40.0 L 99.91286373138428 48.16703672409058 L 102.8 47.7 L 109.9 45.7 L 117.2 43.1 L 124.9 39.7 L 131.0 52.2 L 122.5 56.1 L 114.1 59.1 L 105.9 61.3 L 97.8 62.7 L 94.22408027648926 62.968194007873535 L 93.9 63.8 L 91.1 71.2 L 88.4 78.3 L 85.8 85.2 L 83.4 91.9 L 81.1 98.2 L 80.78768844604492 99.06595478057861 L 81.5 99.0 L 87.0 98.3 L 92.7 97.4 L 98.6 96.2 L 102.26929302215576 95.41801948547364 L 102.3 95.2 L 104.7 89.1 L 111.8 84.8 L 118.8 86.4 L 123.43862562179565 89.73981046676636 L 123.9 89.6 L 128.1 102.9 L 121.2 105.0 L 115.0435733795166 106.74585227966308 L 114.8 111.8 L 114.7 123.1 L 114.8 137.5 L 114.9 155.1 L 115.0 176.0 L 114.78571424484252 176.0 L 115.0 176.3 L 102.9 183.6 L 102.1 182.3 L 100.7 180.7 L 98.7 178.9 L 96.3 177.0 L 93.3 174.9 L 89.8 172.6 L 85.8 170.3 L 81.3 167.9 L 76.3 165.3 L 70.9 162.7 L 76.8 150.0 L 82.5 152.8 L 87.8 155.5 L 92.7 158.1 L 97.1 160.7 L 100.93797464370728 163.09873418807985 L 100.9 155.2 L 100.8 137.6 L 100.7 123.1 L 100.8 111.4 L 100.87033319473267 110.11993656158447 L 95.2 111.2 L 89.1 112.2 L 83.1 112.9 L 77.2 113.5 L 71.5 113.8 L 66.0 114.0 L 66.0 100.0 L 66.50312013626099 99.97987518310546 L 65.7 99.7 L 67.9 93.5 L 70.2 87.1 L 72.7 80.4 L 75.3 73.4 L 78.0 66.2 L 79.33234901428223 62.67879190444946 L 74.4 61.9 L 67.1 60.0 L 60.0 57.1 L 53.1 53.4 L 60.5 41.5 L 65.9 44.4 L 71.5 46.7 L 77.3 48.2 L 83.3 49.1 L 84.55925922393799 49.14062128067017 L 86.9 43.1 L 90.1 34.9 L 90.57471666336059 33.67724494934082 L 89.6 32.8 L 88.4 31.9 L 87.0 31.1 L 85.5 30.3 L 83.8 29.6 L 81.8 28.9 L 86.0 15.6 Z M 86.9 138.4 L 81.1 142.0 L 75.8 145.3 L 70.7 148.3 L 66.0 151.0 L 61.6 153.5 L 57.5 155.6 L 53.8 157.5 L 50.3 159.2 L 47.1 160.5 L 44.2 161.6 L 44.15349931716919 161.46256456375122 L 44.1 161.9 L 40.1 161.2 L 36.4 159.9 L 33.0 157.8 L 30.2 154.7 L 28.5 150.8 L 28.2 146.7 L 28.8 142.8 L 30.2 139.1 L 32.2 135.4 L 34.7 131.7 L 46.0 139.9 L 44.2 142.7 L 42.9 145.0 L 42.3 146.6 L 42.17142858505249 147.1785714149475 L 42.2 147.2 L 42.44860553741455 147.27649402618408 L 44.6 146.4 L 47.6 145.0 L 51.1 143.2 L 54.9 141.2 L 59.1 138.9 L 63.6 136.2 L 68.5 133.3 L 73.8 130.1 L 79.4 126.6 Z M 150.6 118.6 L 155.1 119.5 L 159.3 121.1 L 163.1 123.5 L 166.5 126.5 L 169.4 130.1 L 171.7 134.1 L 173.6 138.6 L 173.53240156173706 138.62388820648192 L 173.8 138.8 L 172.0 141.2 L 169.9 143.5 L 167.5 145.6 L 164.9 147.5 L 162.0 149.4 L 159.0 151.1 L 155.6 152.8 L 152.0 154.3 L 148.2 155.8 L 144.1 157.3 L 139.7 144.0 L 143.3 142.7 L 146.7 141.4 L 149.7 140.1 L 152.4 138.7 L 154.8 137.4 L 156.45365858078003 136.2975609779358 L 156.3 136.1 L 154.8 134.7 L 153.1 133.7 L 151.2 133.0 L 149.0 132.5 L 146.3 132.4 L 143.2 132.7 L 139.7 133.5 L 136.2 119.9 L 141.1 118.9 L 145.9 118.4 Z " />
</g>
</svg>
