<svg xmlns="http://www.w3.org/2000/svg" xmlns:xlink="http://www.w3.org/1999/xlink" version="1.1" baseProfile="full" viewBox="0 0 200 200" width="200" height="200">
<g fill="black">
<path d="M 49.8 21.4 L 55.4 24.4 L 58.1 26.0 L 63.3 29.4 L 65.7 31.1 L 68.1 32.9 L 70.4 34.8 L 71.87976703643798 36.0779806137085 L 72.9 36.1 L 72.7 45.0 L 72.5 54.2 L 72.4 63.7 L 72.38270359039306 64.53887491226196 L 75.8 63.8 L 83.8 61.5 L 92.4 58.4 L 97.5 71.5 L 88.2 74.8 L 79.2 77.4 L 72.08876953125 78.90590763092041 L 72.0 83.3 L 71.8 93.6 L 71.6 104.1 L 71.4 114.8 L 71.2 125.8 L 71.0 137.1 L 70.8617651939392 137.0970377922058 L 70.8 140.0 L 70.6 144.9 L 70.4 150.2 L 70.2 155.8 L 70.0 161.7 L 69.7 167.9 L 69.3 174.5 L 68.9 181.3 L 55.0 180.6 L 55.04078950881958 179.6618420600891 L 54.5 178.4 L 53.3 176.1 L 51.8 173.7 L 50.1 171.2 L 48.0 168.6 L 45.6 165.8 L 43.0 163.0 L 40.0 160.1 L 37.00593328475952 157.2873918533325 L 35.4 160.7 L 33.2 165.1 L 20.7 158.8 L 22.8 154.5 L 25.2 149.5 L 27.9 143.8 L 30.9 137.4 L 34.2 130.2 L 37.8 122.4 L 41.7 113.9 L 45.9 104.6 L 50.4 94.7 L 55.2 84.0 L 57.958080768585205 85.23787879943848 L 58.0 83.1 L 58.05563926696777 80.31803531646729 L 54.9 80.4 L 47.5 79.7 L 40.6 78.1 L 34.1 75.5 L 28.2 72.1 L 22.8 67.7 L 32.5 57.6 L 36.2 60.6 L 40.2 62.9 L 44.7 64.7 L 49.8 65.8 L 55.4 66.4 L 58.340099811553955 66.30515804290772 L 58.4 63.4 L 58.6 53.9 L 58.8 44.7 L 58.828751945495604 43.420537090301515 L 55.3 40.9 L 53.1 39.4 L 48.5 36.6 L 43.5 34.0 L 40.9 32.7 L 46.8 20.0 Z M 119.6 136.5 L 118.9 141.3 L 119.4 144.8 L 120.7 147.3 L 123.0 149.6 L 127.0 151.7 L 132.8 153.4 L 140.5 154.5 L 150.0 154.8 L 161.2 154.3 L 174.1 153.0 L 175.8 166.9 L 162.3 168.3 L 150.1 168.8 L 139.4 168.5 L 129.9 167.1 L 121.8 164.7 L 114.9 160.9 L 109.4 155.6 L 106.0 148.9 L 104.9 141.3 L 105.9 133.4 Z M 54.5 119.6 L 50.6 128.2 L 47.0 136.1 L 43.6 143.3 L 43.206808471679686 144.15191488265992 L 46.1 146.6 L 49.7 149.9 L 53.0 153.2 L 56.0 156.5 L 56.150116539001466 156.6715618133545 L 56.2 155.2 L 56.5 149.7 L 56.6 144.5 L 56.8 139.6 L 56.9 135.1 L 56.9 130.8 L 57.0 127.0 L 57.175 127.0 L 57.2 125.6 L 57.4 114.5 L 57.4244083404541 113.19415311813354 Z M 145.9 45.0 L 152.2 46.1 L 158.2 47.7 L 163.9 49.9 L 169.2 52.7 L 174.2 56.0 L 178.8 59.9 L 169.1 70.0 L 165.8 67.2 L 162.1 64.7 L 158.1 62.7 L 153.8 61.0 L 149.2 59.7 L 144.1 58.9 L 138.7 58.4 L 132.9 58.4 L 126.7 58.8 L 120.1 59.7 L 117.8 45.9 L 125.3 44.9 L 132.4 44.4 L 139.3 44.4 Z " />
</g>
</svg>
