<svg xmlns="http://www.w3.org/2000/svg" xmlns:xlink="http://www.w3.org/1999/xlink" version="1.1" baseProfile="full" viewBox="0 0 200 200" width="200" height="200">
<g fill="black">
<path d="M 135.2 17.2 L 139.2 19.4 L 142.2 22.9 L 143.7 27.2 L 143.86863737106324 30.741384315490723 L 144.4 30.9 L 143.4 33.7 L 141.9 37.5 L 137.4 48.3 L 134.3 55.5 L 130.6 63.8 L 126.4 73.3 L 123.61597766876221 79.50604972839355 L 124.5 83.2 L 118.8 95.3 L 114.11960506439209 100.4191819190979 L 110.90394163131714 107.55904483795166 L 111.0 107.6 L 110.70827684402465 107.99348707199097 L 110.3 108.9 L 110.10378675460815 108.80884580612182 L 106.7 113.4 L 100.6 116.2 L 97.344371509552 116.305020236969 L 84.5 126.7 L 83.22630348205567 127.54646911621094 L 86.3 126.8 L 93.4 125.0 L 100.6 123.2 L 115.2 119.4 L 115.20741348266601 119.42800655364991 L 117.1 118.6 L 122.0 116.7 L 127.3 115.0 L 132.7 113.5 L 138.5 112.1 L 141.4 125.8 L 136.2 127.0 L 131.3 128.4 L 126.7 129.9 L 122.4 131.5 L 118.4 133.3 L 114.7 135.3 L 111.2 137.3 L 108.1 139.5 L 105.2 141.8 L 103.3933596611023 143.4676679611206 L 109.7 144.7 L 118.6 147.7 L 127.8 151.9 L 136.9 157.4 L 145.7 164.1 L 154.1 172.2 L 143.8 181.7 L 136.6 174.8 L 129.0 168.9 L 121.2 164.2 L 113.5 160.7 L 106.1 158.2 L 99.4 156.9 L 93.5 156.7 L 88.9 157.4 L 86.30414505004883 158.52487049102783 L 82.3 162.1 L 77.1 166.6 L 72.5 170.6 L 68.4 174.1 L 64.8 177.1 L 61.7 179.6 L 59.1 181.6 L 50.8 170.3 L 53.1 168.6 L 56.0 166.3 L 59.4 163.4 L 63.4 160.0 L 67.9 156.1 L 73.0 151.6 L 78.5 146.6 L 83.9323395729065 141.78098917007446 L 82.6 142.1 L 75.6 143.7 L 61.8 146.9 L 55.1 148.4 L 48.4 149.8 L 45.573053455352785 136.44511451721192 L 45.3 136.0 L 76.2 115.3 L 81.9386435508728 110.6921236038208 L 78.9 108.3 L 75.0 103.8 L 72.2 98.3 L 71.1 91.9 L 72.48097515106201 85.54751434326172 L 72.4 85.5 L 72.52118225097657 85.36256160736085 L 72.6 85.0 L 72.77086915969849 85.07938013076782 L 80.6 76.2 L 90.8 70.0 L 101.6 66.6 L 112.1 66.5 L 113.71454544067383 67.34090909957885 L 117.8 58.1 L 121.5 49.9 L 124.5 42.8 L 127.0 36.9 L 129.0 32.3 L 129.76398105621337 30.301895713806154 L 127.9 30.4 L 125.0 30.8 L 121.2 31.7 L 116.7 33.1 L 111.5 35.1 L 106.3 22.1 L 112.1 19.9 L 117.4 18.2 L 122.3 17.0 L 126.8 16.4 L 131.0 16.4 Z M 104.0 80.4 L 96.5 82.8 L 89.4 87.1 L 85.11678323745727 91.90769233703614 L 85.1 92.0 L 85.4 93.6 L 86.5 95.8 L 88.6 98.2 L 91.2 100.3 L 93.40791168212891 101.48280982971191 L 96.5 99.0 L 102.2312707901001 92.79550495147706 L 103.5 90.0 L 107.84214000701904 80.3325940132141 Z M 77.6 26.3 L 76.3 28.7 L 75.5 30.7 L 75.1 32.4 L 74.9 33.7 L 75.0 34.5 L 75.1 35.1 L 75.13870964050292 35.16451616287232 L 76.8 34.5 L 79.0 33.4 L 81.3 32.2 L 83.8 30.7 L 86.3 29.1 L 89.0 27.3 L 91.8 25.3 L 100.1 36.6 L 97.0 38.8 L 94.0 40.8 L 91.0 42.7 L 88.2 44.4 L 85.4 45.9 L 82.7 47.2 L 80.0 48.4 L 77.3 49.3 L 74.8 50.1 L 72.2 50.7 L 72.02760810852051 49.748396682739255 L 71.8 50.2 L 68.8 48.4 L 66.0 46.2 L 63.8 43.4 L 62.1 40.3 L 61.2 36.8 L 60.9 33.3 L 61.3 29.8 L 62.2 26.3 L 63.6 22.9 L 65.4 19.4 Z " />
</g>
</svg>
