<svg xmlns="http://www.w3.org/2000/svg" xmlns:xlink="http://www.w3.org/1999/xlink" version="1.1" baseProfile="full" viewBox="0 0 200 200" width="200" height="200">
<g fill="black">
<path d="M 169.0 30.9 L 173.7 32.5 L 173.50394611358644 32.95983543395996 L 173.9 32.9 L 174.3 37.8 L 174.1 42.9 L 173.2 48.2 L 171.8 53.6 L 169.9 59.3 L 167.4 65.1 L 164.4 71.2 L 160.9 77.6 L 156.8 84.2 L 156.64033117294312 84.44482555389405 L 158.8 92.2 L 160.3 100.5 L 160.89090909957886 107.0 L 166.5 107.0 L 174.4 107.7 L 182.4 109.1 L 179.5 122.8 L 172.5 121.6 L 165.8 121.0 L 161.17113399505615 121.0 L 160.8 128.2 L 159.7 138.4 L 158.0 149.1 L 155.7 160.2 L 152.7493369102478 171.60923080444337 L 153.0 171.9 L 141.8 180.4 L 139.8 178.0 L 136.8 174.5 L 133.1 170.1 L 128.9 165.0 L 124.6 159.4 L 120.4 153.3 L 116.7 147.0 L 113.6 140.5 L 111.5 133.7 L 111.0 126.5 L 111.66628103256225 126.54314050674438 L 111.2 126.0 L 117.2 121.2 L 123.5 117.2 L 130.1 113.7 L 137.0 111.0 L 144.0 109.0 L 146.94859237670897 108.43451652526855 L 146.4 102.4 L 145.1 95.3 L 143.3 88.7 L 141.3207281112671 83.62273721694946 L 140.7 83.2 L 145.0 76.7 L 148.8 70.5 L 152.0 64.7 L 154.7 59.3 L 156.8 54.2 L 158.4 49.6 L 159.5 45.3 L 159.69381446838378 44.04020614624024 L 158.2 44.3 L 156.0 45.1 L 153.6 46.4 L 151.2 48.3 L 148.6 50.8 L 146.0 54.0 L 143.4 57.8 L 131.5 50.4 L 134.8 45.6 L 138.3 41.4 L 142.0 37.7 L 145.9 34.7 L 150.2 32.4 L 154.7 30.8 L 159.4 30.0 L 164.2 30.0 Z M 99.4 37.8 L 101.4 51.5 L 102.42269039154053 61.11329011917114 L 104.8 60.3 L 108.4 58.6 L 111.8 56.4 L 120.2 67.6 L 115.3 70.7 L 110.1 73.3 L 104.7 75.1 L 103.63765630722045 75.32365131378174 L 104.0 80.1 L 104.53266153335571 91.4380820274353 L 107.0 87.6 L 112.4 78.4 L 124.6 85.2 L 118.9 94.9 L 113.3 103.8 L 107.5 111.9 L 104.96887884140014 115.18601694107056 L 104.9 126.0 L 104.3 142.1 L 103.3 158.7 L 101.9 175.6 L 101.5652153968811 175.56868925094605 L 101.7 176.0 L 88.2 179.9 L 87.4 177.3 L 86.4 174.6 L 85.2 171.7 L 83.8 168.7 L 82.1 165.4 L 80.3 162.0 L 78.2 158.4 L 75.9 154.7 L 73.4 150.8 L 70.7 146.7 L 82.3 138.8 L 85.2 143.1 L 87.8 147.2 L 89.80101833343505 150.48167009353637 L 90.3 141.5 L 90.69427232742309 131.11749496459962 L 90.0 131.8 L 84.0 136.9 L 77.9 141.3 L 71.7 144.8 L 65.3 147.5 L 62.38558950424194 139.37685585021973 L 61.7 137.8 L 60.9 135.5 L 60.68245611190796 134.62982454299927 L 60.6 134.4 L 60.62253522872925 134.39014081954957 L 60.3 133.1 L 59.9 130.6 L 59.7 128.1 L 59.6 125.5 L 59.7 122.8 L 59.9 120.1 L 60.3 117.3 L 60.9 114.5 L 74.6 117.4 L 73.8 121.8 L 73.6 125.6 L 73.6 127.1960000038147 L 75.4 125.9 L 80.5 121.5 L 85.7 116.4 L 90.99934587478637 110.4007405281067 L 91.0 110.3 L 90.8 95.4 L 90.1 80.9 L 89.76927680969239 76.69079599380493 L 87.0 76.6 L 80.8 75.8 L 74.4 74.4 L 67.9 72.4 L 61.1 69.8 L 66.6 56.9 L 72.5 59.2 L 78.0 60.9 L 83.2 62.0 L 88.2 62.7 L 88.53759212493897 62.70750207901001 L 87.5 53.3 L 85.6 40.1 L 83.3 27.3 L 97.0 24.6 Z M 35.7 25.4 L 38.8 28.8 L 41.5 32.5 L 43.7 36.4 L 45.5 40.5 L 46.7 44.8 L 47.5 49.3 L 47.7 53.8 L 47.5 58.5 L 47.33150444030762 59.655398273468016 L 47.5 59.7 L 47.06348314285278 61.49325838088989 L 46.8 63.3 L 46.6317554473877 63.26684236526489 L 43.8 74.9 L 40.9 89.7 L 38.8 103.9 L 37.6 117.2 L 37.2 129.3 L 37.6 139.9 L 38.9 148.7 L 39.24835462570191 149.89173946380615 L 40.0 145.1 L 41.1 139.8 L 42.5 134.3 L 44.1 128.6 L 46.0 122.7 L 59.3 127.1 L 57.5 132.6 L 56.0 137.9 L 54.8 142.9 L 53.8 147.7 L 53.1 152.2 L 52.5 156.4 L 52.3 160.4 L 52.3 164.1 L 52.4 167.6 L 52.9 170.8 L 39.250902557373045 173.0584837913513 L 39.1 173.4 L 32.3 168.1 L 27.9 160.6 L 25.2 151.6 L 23.7 141.1 L 23.2 129.3 L 23.6 116.3 L 24.9 102.2 L 27.1 87.4 L 30.1 71.9 L 33.51296300888062 57.70925922393799 L 33.6 57.1 L 33.7 53.9 L 33.6 50.8 L 33.1 47.9 L 32.3 45.2 L 31.2 42.6 L 29.8 40.1 L 28.0 37.7 L 25.8 35.3 L 23.3 33.0 L 32.2 22.2 Z M 141.5 124.3 L 135.9 126.5 L 130.6 129.3 L 125.66800289154052 132.37086610794069 L 126.6 135.3 L 129.0 140.4 L 132.2 145.7 L 135.9 151.1 L 139.9 156.3 L 141.63722896575928 158.43812799453735 L 142.0 157.0 L 144.2 146.5 L 145.9 136.5 L 146.9 127.1 L 147.10323362350465 122.62886018753052 Z " />
</g>
</svg>
