<svg xmlns="http://www.w3.org/2000/svg" xmlns:xlink="http://www.w3.org/1999/xlink" version="1.1" baseProfile="full" viewBox="0 0 200 200" width="200" height="200">
<g fill="black">
<path d="M 76.8547511100769 22.180090522766115 L 77.9 23.3 L 81.7 27.6 L 85.1 31.8 L 88.1 35.7 L 90.7 39.6 L 93.0 43.3 L 94.9 46.8 L 96.3 50.4 L 97.4 53.9 L 97.9 57.4 L 97.4729434967041 57.433795833587645 L 89.0 60.9 L 80.3 63.6 L 71.7 65.4 L 63.2 66.2 L 61.160547733306885 66.1754282951355 L 60.7 67.7 L 58.0 78.5 L 55.7 90.4 L 55.51086959838867 91.57981367111206 L 57.5 90.5 L 61.2 88.9 L 65.1 87.8 L 69.0 87.13414630889892 L 69.0 87.0 L 76.2 88.6 L 81.8 93.9 L 83.17536420822144 98.27615890502929 L 84.9 95.6 L 96.1 80.6 L 107.1 68.6 L 117.9 59.7 L 128.8 53.9 L 139.9 51.6 L 150.9 53.3 L 160.8 58.8 L 169.5 67.6 L 169.24265089035035 67.80170602798462 L 169.8 67.7 L 171.4 78.6 L 171.7 88.3 L 170.9 97.0 L 168.5 104.6 L 164.5 111.1 L 158.6 115.9 L 151.5 118.6 L 143.6 119.3 L 135.0 118.4 L 128.40132341384887 116.62616224288941 L 128.1 117.5 L 127.3 123.3 L 127.2 130.6 L 127.8 138.6 L 129.1 146.3 L 130.9 152.8 L 132.35943746566772 156.02612495422363 L 132.4 156.0 L 133.7 157.6 L 135.4 158.9 L 137.7 159.9 L 140.8 160.6 L 144.6 160.9 L 149.3 160.6 L 154.7 159.8 L 160.9 158.3 L 167.8 156.2 L 175.4 153.4 L 180.5 166.5 L 172.3 169.5 L 164.6 171.8 L 157.5 173.5 L 150.8 174.6 L 144.6 174.9 L 138.7 174.5 L 133.3 173.2 L 128.4 171.0 L 126.7596082687378 169.8069878578186 L 126.6 170.1 L 125.1 168.6 L 124.0 167.8 L 122.725 166.225 L 120.9 164.4 L 117.7 157.4 L 115.4 149.2 L 113.9 140.3 L 113.2 131.1 L 113.4 122.3 L 114.5 114.3 L 117.3 107.2 L 124.4 101.7 L 130.0404242515564 102.78008127212524 L 130.1 102.6 L 132.771875 103.303125 L 133.8 103.5 L 133.76062335968018 103.56332197189332 L 137.7 104.6 L 143.9 105.4 L 148.5 105.0 L 151.7 103.8 L 153.9 101.9 L 155.7 99.0 L 157.1 94.4 L 157.8 88.0 L 157.4 79.9 L 156.67517890930176 74.49171991348267 L 152.2 69.8 L 146.2 66.5 L 140.4 65.6 L 133.7 67.0 L 125.8 71.3 L 116.8 78.7 L 106.9 89.5 L 96.4 103.5 L 85.3 120.8 L 73.6 141.4 L 73.5587929725647 141.3775538444519 L 68.9 151.9 L 61.7 166.8 L 53.1 183.3 L 40.8 176.6 L 49.2 160.5 L 56.2 146.0 L 61.8 133.4 L 65.9 122.6 L 68.7 113.7 L 70.0 106.9 L 70.1 102.5 L 69.7625 101.15 L 68.2 101.4 L 65.8 102.1 L 63.6 103.0 L 61.6 104.2 L 59.7 105.6 L 57.9 107.3 L 56.1 109.4 L 54.4 111.8 L 52.9 114.5 L 52.071500587463376 116.26746530532837 L 51.9 117.7 L 51.424074459075925 117.64864110946655 L 51.4 117.7 L 51.23056039810181 117.62775831222534 L 38.0 116.2 L 39.8 101.5 L 41.9 88.0 L 44.4 75.4 L 46.94627170562744 65.0330364227295 L 46.7 65.0 L 38.8 62.9 L 31.1 59.9 L 23.7 56.0 L 16.5 51.1 L 25.0 40.0 L 30.9 44.0 L 36.9 47.2 L 43.1 49.6 L 49.4 51.3 L 51.17503910064697 51.5184663772583 L 53.9 44.2 L 57.9 35.9 L 62.4 28.6 L 67.3 22.3 L 72.8 17.1 Z M 70.3 42.5 L 66.8 49.7 L 65.9762375831604 51.86237621307373 L 69.6 51.5 L 76.8 50.0 L 80.07702703475952 48.99504508972168 L 79.0 47.2 L 76.8 44.0 L 74.1 40.5 L 72.60185871124267 38.663568782806394 Z " />
</g>
</svg>
