<svg xmlns="http://www.w3.org/2000/svg" xmlns:xlink="http://www.w3.org/1999/xlink" version="1.1" baseProfile="full" viewBox="0 0 200 200" width="200" height="200">
<g fill="black">
<path d="M 109.6 15.6 L 113.2 16.4 L 116.7 17.4 L 119.9 18.7 L 122.9 20.3 L 125.6 22.2 L 128.0 24.5 L 130.0 27.1 L 131.6 30.0 L 132.7 33.1 L 131.85136823654176 33.332588005065915 L 132.9 33.4 L 132.1 46.5 L 131.74577627182006 53.87966022491455 L 136.5 53.6 L 146.7 53.9 L 157.1 55.1 L 167.6 57.1 L 164.3 70.8 L 154.9 68.9 L 145.7 67.8 L 136.7 67.6 L 131.1286250114441 67.91299858093262 L 131.0 71.0 L 130.5 82.5 L 130.2 93.4 L 130.1291934967041 95.85462512969971 L 131.3832589149475 96.22745532989502 L 131.4 96.2 L 131.50892724990845 96.26481618881226 L 132.3 96.5 L 135.9 98.1 L 139.3 100.2 L 142.5 102.6 L 142.3842607498169 102.73608903884887 L 143.5 103.4 L 140.8 107.8 L 138.0 112.1 L 135.0 116.5 L 131.9 120.8 L 129.70943393707276 123.72075471878051 L 129.8 131.6 L 129.9 139.8 L 117.37723798751831 140.0702754020691 L 117.4 140.1 L 111.71698112487793 144.95424528121947 L 110.0 146.8 L 109.79104242324829 146.5993179321289 L 107.8 148.3 L 102.0 155.1 L 99.6 159.9 L 99.5 161.8 L 100.5 163.0 L 104.7 164.9 L 112.8 166.2 L 124.5 166.0 L 139.3 164.1 L 145.1540880203247 162.8245283126831 L 144.6 159.5 L 143.8 155.0 L 142.9 150.2 L 141.8 145.2 L 140.7 139.9 L 139.5 134.4 L 138.1 128.5 L 151.8 125.4 L 153.1 131.3 L 154.4 136.9 L 155.5 142.3 L 156.6 147.5 L 157.6 152.4 L 158.4 157.1 L 159.2 161.5 L 159.8 165.6 L 160.4 169.5 L 160.8 173.2 L 160.57662000656128 173.2241057395935 L 160.7 173.7 L 141.8 177.9 L 125.5 180.0 L 111.9 180.2 L 100.8 178.4 L 91.9 174.0 L 86.2 166.2 L 86.1 156.5 L 90.3 147.3 L 98.0 138.3 L 101.76545457839966 135.0872727394104 L 101.80395011901855 135.04573802948 L 99.2 133.9 L 94.7 131.5 L 90.7 128.3 L 87.6 123.6 L 86.9 117.3 L 89.3 111.6 L 93.5 107.1 L 99.2 103.0 L 105.61236047744751 99.32357997894287 L 105.6 99.3 L 105.9531120300293 99.12821578979492 L 106.7 98.7 L 106.72691974639892 98.75176877975464 L 109.3 97.5 L 113.2 96.1 L 116.13126420974731 95.40575323104858 L 116.2 93.0 L 116.5 82.0 L 117.0 70.4 L 117.02135715484619 69.88315696716309 L 110.4 71.5 L 101.8 74.5 L 93.4 78.2 L 85.1 82.7 L 76.8 88.1 L 68.7 76.7 L 77.9 70.7 L 87.2 65.6 L 96.7 61.4 L 106.4 58.1 L 116.3 55.7 L 117.65574226379394 55.49663867950439 L 118.2 45.7 L 118.73698625564575 35.573972606658934 L 118.3 34.7 L 117.6 33.9 L 116.7 33.0 L 115.5 32.2 L 114.0 31.4 L 112.1 30.6 L 109.9 30.0 L 107.2 29.4 L 104.2 29.0 L 105.7 15.1 Z M 63.5 32.3 L 64.1 38.4 L 63.7 44.6 L 62.3 50.8 L 59.9 57.0 L 56.8 63.3 L 52.7 69.6 L 47.9 75.9 L 42.3 82.4 L 36.991207122802734 87.79046659469604 L 37.0 87.8 L 36.739759063720705 88.04578313827514 L 35.8 89.0 L 35.76642627716065 88.96504182815552 L 35.2 89.5 L 34.0 91.0 L 33.66727275848389 91.55454549789428 L 33.9 91.7 L 34.64333333969116 92.02520837783814 L 34.8 91.8 L 35.33525743484497 92.32792510986329 L 35.5 92.4 L 35.47456741333008 92.46532678604126 L 42.1 99.0 L 46.6 107.7 L 49.1 117.3 L 50.2 127.2 L 50.3 137.3 L 50.001560878753665 144.61175861358643 L 53.9 138.3 L 56.2 135.0 L 67.7 142.9 L 65.6 146.0 L 63.6 149.2 L 61.7 152.3 L 59.8 155.6 L 57.9 158.8 L 56.2 162.1 L 54.5 165.5 L 51.3 172.3 L 49.8 175.7 L 49.64311771392822 175.63432836532593 L 49.7 176.0 L 36.2 179.9 L 35.0 172.5 L 34.9 164.4 L 35.3 155.6 L 35.9 146.3 L 36.3 137.0 L 36.2 128.0 L 35.3 119.7 L 33.5 112.6 L 30.7 107.1 L 27.89841775894165 104.37025318145751 L 27.3 104.1 L 24.4 102.2 L 21.9 99.7 L 20.1 96.5 L 19.3 92.7 L 19.6 89.0 L 20.9 85.7 L 22.6 82.8 L 24.8 80.1 L 27.060465145111085 77.92325582504273 L 32.0 72.9 L 37.1 67.1 L 41.3 61.5 L 44.6 56.3 L 47.1 51.4 L 48.9 46.8 L 49.8 42.5 L 50.1 38.6 L 49.7 34.9 L 48.7 31.3 L 61.9 26.4 Z M 114.7 110.4 L 113.17936506271363 111.16031742095947 L 113.2 111.2 L 106.7 114.8 L 102.6 117.8 L 101.41724138259887 118.98275861740112 L 102.3 119.7 L 105.3 121.3 L 109.5 123.1 L 111.62610168457032 123.92440681457519 L 114.3 120.7 L 115.74261417388917 118.8516505241394 L 115.8 113.4 L 115.83396835327149 110.0371301651001 Z M 161.7 82.2 L 165.7 85.4 L 169.4 88.9 L 172.5 92.9 L 175.3 97.1 L 177.5 101.7 L 179.3 106.6 L 180.6 111.7 L 181.5 117.1 L 181.9 122.7 L 168.0 123.2 L 167.6 118.7 L 166.9 114.6 L 165.9 110.7 L 164.7 107.2 L 163.1 104.0 L 161.2 101.1 L 159.0 98.4 L 156.5 95.9 L 153.6 93.6 L 150.3 91.5 L 157.3 79.4 Z " />
</g>
</svg>
