<svg xmlns="http://www.w3.org/2000/svg" xmlns:xlink="http://www.w3.org/1999/xlink" version="1.1" baseProfile="full" viewBox="0 0 200 200" width="200" height="200">
<g fill="black">
<path d="M 148.3 42.5 L 153.7 52.2 L 155.5 64.8 L 155.0 80.8 L 152.4 100.6 L 147.97858095169067 123.47603750228882 L 146.2 134.9 L 144.8 148.3 L 144.8 158.1 L 145.8 164.0 L 146.11754875183107 164.68802232742308 L 147.7 164.0 L 153.2 159.9 L 160.7 152.3 L 169.8 141.4 L 180.8 150.1 L 171.1 161.7 L 162.5 170.4 L 154.6 176.2 L 146.2 178.9 L 137.2 175.9 L 132.5 168.4 L 130.8 159.1 L 130.9 147.5 L 132.3 133.1 L 134.16447057724 121.51364707946777 L 134.1 121.5 L 134.49130430221558 119.48260869979859 L 135.1 115.7 L 135.22072687149048 115.72203044891357 L 138.6 98.3 L 141.1 79.5 L 141.5 65.4 L 140.3 56.2 L 138.4 52.5 L 137.3 52.0 L 132.8 53.2 L 124.4 58.3 L 113.3 67.9 L 100.24066457748413 81.4430145263672 L 100.3 81.5 L 88.8 93.5 L 78.4 104.6 L 69.0 114.8 L 67.067356300354 116.9627202987671 L 66.8 122.8 L 66.3 137.8 L 66.0 154.5 L 66.0 172.47692308425903 L 66.3 173.1 L 53.6 178.8 L 52.7 177.0 L 51.5 175.0 L 50.2 173.0 L 48.7 170.8 L 46.9 168.5 L 44.9 166.1 L 42.8 163.7 L 40.3 161.1 L 35.80476188659668 156.6047618865967 L 33.98695650100708 159.55869569778443 L 33.4 160.7 L 20.5 155.2 L 22.02316379547119 152.21459903717042 L 22.0 152.2 L 22.158163261413574 151.95 L 23.0 150.3 L 26.4 144.7 L 27.065116310119627 143.76279067993164 L 28.1 141.9 L 31.0 136.3 L 33.4 130.6 L 35.3 124.9 L 36.3 119.4 L 36.5 114.2 L 35.7 109.3 L 33.8 104.8 L 30.6 100.5 L 40.7 90.9 L 46.0 97.9 L 49.2 105.5 L 50.5 113.3 L 50.449129009246825 114.60568962097167 L 53.28808946609497 111.39933423995971 L 53.4 108.9 L 54.2 97.1 L 55.2 87.0 L 56.323870944976804 79.73806447982788 L 54.2 80.8 L 50.6 82.7 L 46.9 84.6 L 43.0 86.6 L 39.1 88.7 L 38.9682017326355 88.4485694885254 L 38.9 88.9 L 34.7 88.0 L 30.9 86.8 L 27.5 85.0 L 24.5 82.3 L 22.3 78.7 L 21.4 74.4 L 22.0 70.4 L 23.4 66.8 L 25.4 63.4 L 28.0 60.1 L 38.6 69.3 L 36.9 71.5 L 35.9 73.1 L 35.72461538314819 73.5384614944458 L 36.3 73.8 L 36.9235294342041 74.02972135543823 L 40.4 72.2 L 44.1 70.3 L 47.7 68.4 L 51.2 66.6 L 54.6 64.9 L 57.8 63.2 L 60.9 61.6 L 63.9 60.1 L 66.8 58.7 L 72.47312135696411 69.95619325637817 L 73.2 70.6 L 72.99960155487061 71.00079679489136 L 73.1 71.2 L 72.83636360168457 71.32727270126342 L 72.7 71.6 L 71.5 75.2 L 70.3 81.0 L 69.1 88.7 L 68.54444446563721 94.6259259223938 L 78.6 83.9 L 89.46907358169555 72.5624319076538 L 89.4 72.5 L 103.6 57.8 L 116.1 47.1 L 127.2 40.4 L 138.1 38.1 Z M 47.2 140.2 L 42.1 146.8 L 38.68455114364624 151.66701459884644 L 38.668146228790285 151.69634466171266 L 44.5 145.5 L 50.4 151.4 L 52.02175321578979 153.0818181991577 L 52.3 137.5 L 52.421738147735596 133.79915962219238 Z M 58.7 20.9 L 59.8 22.5 L 61.1 24.1 L 62.6 25.5 L 64.4 26.9 L 66.6 28.1 L 69.0 29.3 L 71.8 30.4 L 74.9 31.3 L 78.3 32.1 L 75.6 45.8 L 71.3 44.8 L 67.3 43.6 L 63.5 42.2 L 59.9 40.5 L 56.7 38.5 L 53.7 36.3 L 50.9 33.7 L 48.6 30.9 L 46.6 27.9 L 44.9 24.6 L 57.8 19.1 Z " />
</g>
</svg>
