<svg xmlns="http://www.w3.org/2000/svg" xmlns:xlink="http://www.w3.org/1999/xlink" version="1.1" baseProfile="full" viewBox="0 0 200 200" width="200" height="200">
<g fill="black">
<path d="M 121.6 22.5 L 124.0 23.6 L 126.3 24.7 L 128.5 26.1 L 130.5 27.5 L 132.4 29.1 L 134.1 30.8 L 135.6 32.7 L 137.0 34.7 L 137.68782682418822 35.90369701385498 L 137.7 35.9 L 137.71071424484253 35.94375 L 138.2 36.8 L 137.95112628936766 36.92543239593506 L 138.9 40.8 L 140.0 46.4 L 140.9 52.7 L 141.6 59.7 L 142.2 67.5 L 142.6 76.1 L 142.9 85.4 L 143.1 95.5 L 143.1 106.4 L 143.0703995704651 109.86325073242188 L 153.7 111.8 L 177.9 120.6 L 172.0 133.3 L 150.1 125.3 L 142.56998538970947 123.92770767211914 L 142.2 129.2 L 141.6 134.8 L 140.9 140.5 L 140.0 146.1 L 138.9 151.6 L 137.6 157.1 L 136.2 162.6 L 134.746431350708 167.50579404830933 L 134.9 167.6 L 134.65462818145753 167.8156297683716 L 134.6 168.0 L 134.48512477874755 167.9645873069763 L 125.0 176.3 L 112.7 177.6 L 100.7 173.5 L 89.4 165.6 L 79.0 155.0 L 78.81848306655884 154.74098148345948 L 72.7 158.7 L 63.4 162.1 L 53.5 163.2 L 43.6 161.7 L 34.1 157.4 L 34.480416202545165 156.78824968338012 L 34.2 157.2 L 28.5 146.7 L 32.4 136.4 L 40.9 128.2 L 53.1 120.8 L 60.892504596710204 117.58244972229004 L 59.8 113.0 L 60.5 97.6 L 66.5583927154541 83.00026664733886 L 66.4 82.8 L 70.6 79.9 L 75.0 77.7 L 79.7 76.6 L 84.6 76.7 L 89.2 78.5 L 93.0 81.6 L 95.8 85.4 L 97.9 89.9 L 99.6 95.0 L 100.71934642791749 100.31689567565918 L 100.9 100.3 L 100.9564380645752 107.8062575340271 L 107.6 107.0 L 129.08976039886474 107.4775502204895 L 129.1 106.3 L 129.1 95.6 L 128.9 85.7 L 128.6 76.6 L 128.2 68.4 L 127.7 61.0 L 127.0 54.4 L 126.2 48.7 L 125.2 43.9 L 124.5125 41.21875 L 124.5 41.2 L 122.9 39.4 L 121.9 38.6 L 120.8 37.8 L 119.5 37.0 L 118.18161430358887 36.24663677215576 L 115.8 36.5 L 110.9 37.1 L 106.1 38.0 L 101.1 39.1 L 96.1 40.5 L 91.0 42.0 L 85.8 43.7 L 80.6 45.7 L 75.3 47.9 L 70.55454549789428 50.00909090042114 L 70.4 50.4 L 70.02906980514527 50.24263563156128 L 69.9 50.3 L 69.83512630462647 50.16035661697388 L 67.1 49.0 L 64.1 47.4 L 61.4 45.6 L 58.9 43.5 L 56.8 41.2 L 55.1 38.5 L 53.9 35.5 L 53.3 32.4 L 53.4 29.2 L 53.9 26.1 L 67.4 29.8 L 67.3 30.6 L 67.3 31.2 L 67.4 31.6 L 67.6 32.1 L 67.9 32.7 L 68.6 33.5 L 69.7 34.4 L 70.2983606338501 34.798907089233396 L 75.5 32.7 L 81.1 30.6 L 86.7 28.7 L 92.3 27.0 L 97.8 25.5 L 103.3 24.3 L 108.7 23.3 L 114.1 22.6 L 118.95084743499756 22.050847434997557 L 119.1 21.6 Z M 99.45558853149414 122.09426307678223 L 98.8 125.7 L 94.6 136.5 L 89.04516696929932 145.01741056442262 L 89.8 146.1 L 98.5 155.0 L 107.3 161.1 L 114.8 163.8 L 119.6 163.4 L 122.07077407836914 161.14723539352417 L 122.7 158.9 L 124.0 153.8 L 125.2 148.7 L 126.2 143.6 L 127.0 138.4 L 127.7 133.2 L 128.3 128.0 L 128.6 122.7 L 128.67225255966187 121.3994532585144 L 108.4 121.0 Z M 59.4 133.3 L 49.3 139.4 L 43.6 144.8 L 42.8490385055542 146.09711542129517 L 47.6 148.2 L 53.8 149.2 L 60.2 148.5 L 66.4 146.2 L 70.8197998046875 143.32713012695314 L 70.1 142.3 L 64.7945258140564 131.055562210083 Z M 42.01335649490356 145.72722339630127 L 42.17175846099853 145.79733572006225 L 42.1 145.6 Z M 77.98860960006714 126.32599868774415 L 80.76969966888427 132.18615283966065 L 82.1 130.1 L 84.20498600006104 124.70597333908081 Z M 81.3 90.5 L 80.0 90.8 L 77.8 91.9 L 77.666379737854 91.99402904510498 L 74.2 100.4 L 73.7 111.5 L 74.05284557342529 112.9478835105896 L 87.0 109.5 L 87.07306604385376 109.49113273620605 L 87.01102514266968 102.79071569442749 L 86.1 98.6 L 84.9 95.0 L 83.7 92.5 L 82.7 91.1 L 82.1 90.6 L 81.8 90.5 Z " />
</g>
</svg>
