<svg xmlns="http://www.w3.org/2000/svg" xmlns:xlink="http://www.w3.org/1999/xlink" version="1.1" baseProfile="full" viewBox="0 0 200 200" width="200" height="200">
<g fill="black">
<path d="M 88.0 15.4 L 93.7 16.4 L 99.0 17.9 L 104.0 19.9 L 108.5 22.4 L 112.7 25.5 L 116.4 29.1 L 119.6 33.3 L 121.77445840835571 37.06348581314087 L 122.0 37.0 L 122.166623878479 37.74223365783691 L 122.2 37.8 L 122.18166618347168 37.80924024581909 L 122.97480278015136 41.342303371429445 L 125.6 41.4 L 134.6 43.5 L 143.3 47.2 L 151.4 52.5 L 158.7 59.4 L 164.9 67.6 L 169.7 77.2 L 172.9 88.0 L 173.9083333015442 99.0 L 174.0 99.0 L 173.9438323020935 99.38726148605346 L 174.0 100.0 L 173.85496187210083 100.0 L 172.1 112.1 L 166.9 124.1 L 159.0 134.7 L 148.9 143.4 L 137.2 149.9 L 124.1 153.7 L 110.1 154.4 L 105.1086091041565 153.30260200500487 L 104.3 154.4 L 97.8 161.5 L 90.5 168.3 L 82.2 174.6 L 73.1 180.6 L 63.2 186.2 L 56.7 173.7 L 65.9 168.6 L 74.1 163.2 L 81.5 157.5 L 87.9 151.6 L 90.70944576263427 148.5397108078003 L 82.2 144.1 L 69.9138635635376 132.78895378112793 L 69.6 133.0 L 66.2 127.1 L 63.9 121.2 L 63.0 115.2 L 63.7 109.3 L 66.1 103.8 L 70.0 99.1 L 75.0 95.4 L 80.9 92.4 L 87.7 90.0 L 95.13532466888428 88.18883113861084 L 95.1 87.9 L 99.9 87.4 L 104.6 87.1 L 109.2 87.0 L 110.79252109527587 87.03461999893189 L 111.0 83.3 L 111.2 75.1 L 111.3 67.5 L 111.1 60.7 L 110.77745723724365 55.78122253417969 L 100.8 58.2 L 89.5 63.0 L 79.7 69.4 L 71.3 77.0 L 64.3 85.6 L 58.4 95.1 L 53.6 105.1 L 49.8 115.3 L 46.9 125.4 L 44.8 135.2 L 44.405475521087645 135.12800645828247 L 44.6 135.8 L 31.3 140.1 L 28.9 131.6 L 27.0 123.0 L 25.9 114.3 L 25.3 105.5 L 25.4 96.6 L 26.1 87.7 L 27.4 78.7 L 29.3 69.7 L 31.9 60.6 L 35.0 51.4 L 48.1 56.4 L 45.2 64.8 L 42.9 73.0 L 41.2 81.2 L 40.0 89.3 L 39.4 97.2 L 39.322714519500735 103.30555381774903 L 40.7 99.6 L 46.1 88.4 L 52.9 77.5 L 61.2 67.4 L 71.1 58.3 L 82.8 50.7 L 96.4 44.9 L 108.4536117553711 42.02268619537354 L 107.9 41.1 L 105.9 38.4 L 103.6 36.2 L 101.0 34.2 L 97.9 32.5 L 94.5 31.1 L 90.6 30.1 L 86.3 29.3 L 81.5 28.9 L 76.2 28.9 L 75.7 14.9 L 82.0 14.9 Z M 125.1 60.1 L 125.3 67.4 L 125.2 75.3 L 125.0 83.9 L 124.75384225845337 88.42930326461791 L 126.7 88.8 L 130.8 89.8 L 134.8 91.0 L 138.6 92.5 L 133.3 105.4 L 130.2 104.3 L 127.0 103.3 L 123.83307256698609 102.5322600364685 L 123.8 103.0 L 122.9 113.6 L 122.57354488372803 113.56946821212769 L 121.0 121.9 L 118.2 130.6 L 114.5 138.9 L 113.6935887336731 140.28492364883422 L 121.7 139.9 L 131.7 137.0 L 140.9 131.9 L 148.8 125.1 L 154.8 117.1 L 158.6 108.2 L 159.94123134613037 99.38619403839111 L 159.1 90.6 L 156.7 82.3 L 153.0 75.0 L 148.3 68.7 L 142.8 63.5 L 136.6 59.5 L 130.2 56.8 L 124.82781457901001 55.54089403152466 Z M 105.2 101.1 L 101.1 101.3 L 98.36156396865844 101.61842279434204 L 98.4 101.8 L 91.7 103.4 L 86.3 105.3 L 82.3 107.4 L 79.5 109.4 L 78.0 111.2 L 77.2 112.9 L 77.0 114.9 L 77.4 117.5 L 78.8 121.0 L 80.21347713470459 123.47358493804931 L 80.3 123.4 L 90.3 132.7 L 99.23913040161133 137.34147157669068 L 102.1 132.5 L 105.2 125.6 L 107.4 118.5 L 108.9 111.0 L 109.10999794006348 111.02891273498535 L 109.9 101.9 L 109.95500822067261 101.01986865997314 L 109.2 101.0 Z " />
</g>
</svg>
