<svg xmlns="http://www.w3.org/2000/svg" xmlns:xlink="http://www.w3.org/1999/xlink" version="1.1" baseProfile="full" viewBox="0 0 200 200" width="200" height="200">
<g fill="black">
<path d="M 73.0 12.1 L 75.9 12.7 L 78.7 13.8 L 81.3 15.4 L 83.6 17.5 L 85.4 19.9 L 86.9 22.5 L 87.9 25.3 L 88.5 28.3 L 88.85885362625122 31.081115627288817 L 89.2 31.2 L 86.6 38.9 L 84.2 46.7 L 81.8 54.7 L 79.7 62.7 L 77.7 70.8 L 75.8 79.0 L 74.1 87.3 L 72.02075185775757 99.08240604400635 L 75.7 97.2 L 80.1 95.3 L 84.7 93.7 L 89.5 92.5 L 94.4 91.6 L 96.28461542129517 91.3692307472229 L 102.1 90.4 L 111.2 90.7 L 120.1 92.5 L 128.5 95.7 L 136.1 100.4 L 142.8 106.5 L 148.1 113.9 L 151.6 122.6 L 152.9 132.2 L 151.83579769134522 142.1648036956787 L 152.2 142.3 L 147.7 150.7 L 141.2 158.1 L 133.2 164.6 L 123.8 170.3 L 113.3 175.3 L 102.0 179.4 L 90.1 182.6 L 77.7 184.8 L 65.1 186.0 L 52.6 185.9 L 53.3 172.0 L 64.5 172.0 L 75.8 170.9 L 87.0 168.9 L 97.8 166.0 L 108.0 162.4 L 117.2 158.0 L 125.1 153.1 L 131.6 147.9 L 136.2 142.6 L 138.14766836166382 138.98290157318115 L 138.9 132.4 L 138.1 126.2 L 135.8 120.7 L 132.4 115.8 L 127.8 111.7 L 122.3 108.3 L 116.1 105.9 L 109.6 104.6 L 103.1 104.4 L 100.58991804122925 104.79220027923584 L 100.6 104.9 L 97.41111106872559 105.28888893127441 L 96.7 105.4 L 96.69370079040527 105.37637796401978 L 96.5 105.4 L 92.6 106.2 L 88.8 107.1 L 85.1 108.4 L 81.6 109.9 L 78.2 111.6 L 74.9 113.6 L 71.7 115.9 L 68.6 118.4 L 65.6 121.2 L 55.7 111.3 L 56.0230429649353 111.00314979553222 L 56.0 111.0 L 57.3 102.1 L 58.8 93.3 L 60.4 84.7 L 62.1 76.1 L 64.1 67.6 L 66.1 59.2 L 68.4 50.9 L 70.8 42.7 L 73.3 34.6 L 74.71889657974243 30.395862102508545 L 74.4 29.2 L 74.0 28.1 L 73.7 27.4 L 73.3 26.9 L 73.0 26.6 L 72.6 26.4 L 72.0 26.2 L 71.1 26.0 L 70.0 26.0 L 70.0 12.0 Z " />
</g>
</svg>
