<svg xmlns="http://www.w3.org/2000/svg" xmlns:xlink="http://www.w3.org/1999/xlink" version="1.1" baseProfile="full" viewBox="0 0 200 200" width="200" height="200">
<g fill="black">
<path d="M 125.6 17.2 L 128.9 18.3 L 131.7 20.2 L 134.1 22.6 L 135.9 25.3 L 137.16974363327026 27.839487171173097 L 137.3 27.9 L 137.249830532074 27.99966106414795 L 137.4 28.3 L 137.02005853652955 28.45609998703003 L 129.9 42.6 L 121.5 57.5 L 112.3 71.9 L 106.70134124755859 79.61243810653687 L 107.8 83.5 L 108.7 88.1 L 109.1 92.6 L 109.0 97.1 L 108.5 101.5 L 107.89320392608643 104.1699028968811 L 111.0 103.3 L 120.2 101.6 L 128.6 101.0 L 136.5 101.7 L 143.6 103.9 L 149.8 107.6 L 154.9 112.8 L 158.5 119.2 L 160.8 126.5 L 160.67850246429444 126.52571849822998 L 161.2 128.2 L 161.1 134.6 L 158.8 140.6 L 154.8 145.6 L 149.5 149.8 L 143.1 153.3 L 135.5 156.4 L 126.6 159.1 L 116.5 161.5 L 105.1 163.7 L 105.07865495681763 163.5719298362732 L 102.2 164.2 L 98.6 165.9 L 97.1786283493042 167.2325358390808 L 100.0 168.4 L 105.8 169.1 L 114.5 168.5 L 126.2 166.2 L 129.7 179.7 L 116.4 182.4 L 105.4 183.1 L 96.5 181.9 L 89.3 178.8 L 84.2 173.3 L 82.9 165.8 L 85.7 159.1 L 90.8 154.3 L 97.7 150.9 L 106.2 149.1 L 106.21468000411987 149.23603448867797 L 113.6 147.8 L 122.9 145.6 L 130.8 143.2 L 137.1 140.6 L 141.9 138.0 L 145.0 135.6 L 146.7 133.5 L 147.3 131.9 L 147.3 130.3 L 146.6 127.8 L 145.6 124.6 L 143.6 121.1 L 141.2 118.6 L 138.0 116.7 L 133.9 115.5 L 128.6 115.0 L 122.0 115.5 L 114.3 116.9 L 105.4 119.5 L 95.5 123.1 L 90.3 110.1 L 90.32951049804687 110.08896808624267 L 90.2 110.0 L 91.8 107.3 L 93.1 104.7 L 94.1 101.9 L 94.7 99.1 L 95.1 96.2 L 95.1 94.04554452896119 L 92.4 97.2 L 82.1 106.9 L 71.5 114.0 L 60.4 117.4 L 55.362431335449216 116.4445990562439 L 55.3 116.7 L 52.60694980621338 115.92200775146485 L 48.8 115.2 L 47.26976747512818 113.77066192626953 L 46.9 113.6 L 43.4 111.2 L 40.4 108.1 L 38.400679969787596 104.2013258934021 L 37.9 104.3 L 37.86409015655518 101.31948471069336 L 37.6 99.9 L 37.81866664886475 97.5493332862854 L 37.8 96.0 L 38.225 94.83125 L 39.2 91.5 L 40.132075500488284 89.58679246902466 L 40.6 88.3 L 41.08155336380005 87.637864112854 L 41.1 87.6 L 43.7 83.7 L 43.8606635093689 83.81658763885498 L 45.4 81.7 L 51.7 76.1 L 59.2 71.7 L 67.7 68.7 L 77.0 67.2 L 86.7 67.6 L 96.28724555969238 70.14355497360229 L 100.7 64.1 L 109.5 50.3 L 117.6 36.0 L 119.63043479919433 31.93913040161133 L 119.5 32.0 L 119.080246925354 32.27160491943359 L 119.1 32.3 L 115.2 35.0 L 107.4 40.0 L 103.6 42.4 L 99.7 44.7 L 92.1 48.9 L 88.3 50.8 L 84.5 52.6 L 80.8 54.3 L 80.74644536972046 54.18067646026611 L 76.6 55.5 L 72.2 56.1 L 67.7 55.7 L 63.4 54.3 L 59.5 52.0 L 56.2 49.0 L 53.3 45.3 L 50.9 41.1 L 48.8 36.4 L 61.8 31.3 L 63.4 34.8 L 65.0 37.5 L 66.5 39.5 L 67.9 40.8 L 69.2 41.6 L 70.4 42.0 L 71.8 42.1 L 73.6 41.8 L 75.9 41.1 L 78.6 39.8 L 78.68614988327026 39.958155727386476 L 82.1 38.3 L 85.6 36.5 L 92.8 32.5 L 96.4 30.4 L 100.0 28.2 L 107.4 23.4 L 109.85303869247437 21.676243114471436 L 109.8 21.6 L 112.7 19.8 L 115.7 18.3 L 118.9 17.3 L 122.2 16.9 Z M 71.3 82.2 L 65.1 84.4 L 59.8 87.5 L 55.7 91.2 L 53.918181800842284 93.61818180084228 L 53.3 94.6 L 52.3222222328186 96.5555555343628 L 51.925 97.625 L 51.7 98.3 L 51.600771236419675 99.1930591583252 L 53.91911764144898 101.45196075439453 L 55.7 102.3 L 58.6 103.2 L 58.574181175231935 103.30562229156494 L 59.1 103.4 L 65.2 101.5 L 73.2 96.1 L 82.2 87.6 L 86.95747299194336 82.02403697967529 L 84.6 81.4 L 77.9 81.2 Z " />
</g>
</svg>
