<svg xmlns="http://www.w3.org/2000/svg" xmlns:xlink="http://www.w3.org/1999/xlink" version="1.1" baseProfile="full" viewBox="0 0 200 200" width="200" height="200">
<g fill="black">
<path d="M 48.8 19.1 L 51.5 19.5 L 54.2 20.2 L 56.9 21.1 L 59.3 22.3 L 61.7 23.8 L 63.9 25.5 L 66.0 27.5 L 67.9 29.6 L 69.7 31.9 L 69.27812280654908 32.19714832305908 L 69.8 32.3 L 68.4 39.4 L 66.9 46.5 L 65.93906507492065 50.82420701980591 L 68.6 50.4 L 75.9 48.7 L 83.7 46.3 L 88.2 59.6 L 79.6 62.2 L 71.3 64.1 L 63.4 65.4 L 62.72407236099243 65.45266971588134 L 62.1 68.3 L 60.4 75.6 L 58.300845050811766 84.34647884368897 L 60.7 82.7 L 65.9 80.4 L 71.4 79.3 L 77.1 80.2 L 82.1 83.0 L 85.8 87.2 L 88.4 92.3 L 87.9 92.50542631149293 L 87.9 96.5 L 87.2 101.7 L 85.9 107.1 L 84.1 112.8 L 82.99680767059326 115.72585792541504 L 84.4 113.3 L 84.8311972618103 113.54945297241211 L 88.9 110.9 L 93.3 108.9 L 97.9 107.8 L 102.6 107.8 L 107.2 109.2 L 111.3 111.6 L 114.48870153427124 114.88532886505126 L 115.4 112.9 L 119.0 107.3 L 123.3 102.5 L 128.3 98.3 L 134.0 94.9 L 140.2 92.2 L 146.9 90.3 L 154.0 89.13287668228149 L 154.0 89.0 L 158.3 89.2 L 162.5 90.0 L 166.4 91.5 L 170.0 93.5 L 173.3 96.1 L 176.1 99.3 L 178.4 102.8 L 180.3 106.8 L 181.7 111.0 L 182.8 115.6 L 182.5075068473816 115.65764465332032 L 182.9 115.7 L 181.6 123.4 L 179.3 130.8 L 176.1 137.8 L 172.1 144.5 L 167.2 150.7 L 161.5 156.6 L 154.9 162.0 L 147.6 167.0 L 139.5 171.7 L 130.7 175.9 L 125.0 163.1 L 133.0 159.3 L 140.2 155.2 L 146.5 150.8 L 152.0 146.2 L 156.7 141.5 L 160.6 136.5 L 163.8 131.3 L 166.2 125.9 L 167.9 120.2 L 168.62131147384645 116.2655737876892 L 168.3 114.9 L 167.3 112.0 L 166.2 109.7 L 164.9 107.8 L 163.6 106.3 L 162.2 105.1 L 160.6 104.2 L 158.7 103.5 L 156.5 103.1 L 155.46103897094727 103.05844154357911 L 150.0 104.0 L 144.8 105.4 L 140.3 107.3 L 136.4 109.7 L 133.1 112.5 L 130.2 115.8 L 127.7 119.6 L 125.6 124.1 L 124.0 129.2 L 122.9 135.0 L 109.0 132.9 L 109.00587844848633 132.8717836380005 L 108.3 133.1 L 106.8 129.1 L 105.3 126.0 L 103.8 123.8 L 102.6 122.6 L 101.6 122.0 L 100.7 121.7 L 99.6 121.7 L 98.0 122.1 L 95.7 123.2 L 94.30312147140503 124.09799327850342 L 90.6 130.5 L 85.1 139.9 L 80.0 148.4 L 75.3 156.1 L 71.0 162.9 L 67.1 168.9 L 63.5 174.1 L 60.4 178.4 L 57.5 182.0 L 54.9 184.9 L 45.0 175.0 L 45.299043846130374 174.66772909164428 L 45.0 174.7 L 44.8 169.9 L 45.3 165.0 L 46.3 159.8 L 48.0 154.4 L 50.1 148.7 L 50.673528385162356 147.44673414230346 L 50.6 147.4 L 50.97925071716308 146.77867431640624 L 52.8 142.8 L 55.9 136.5 L 59.6 130.0 L 63.9 123.1 L 66.25322360992432 119.49506168365478 L 66.3 119.4 L 68.9 113.6 L 70.9 108.2 L 72.4 103.4 L 73.4 99.1 L 73.9 95.4 L 73.91987581253052 94.78385095596313 L 73.1 93.8 L 72.5 93.4 L 71.9 93.3 L 70.3 93.7 L 67.6 94.9 L 64.1 97.2 L 59.9 100.8 L 55.2 105.6 L 50.0 111.6 L 39.2 102.7 L 39.589663696289065 102.24881048202515 L 39.4 102.2 L 43.2 87.2 L 45.0 79.8 L 46.7 72.4 L 48.241212368011475 65.7818528175354 L 41.4 65.0 L 34.8 63.4 L 28.5 61.0 L 22.7 57.9 L 17.3 54.0 L 26.2 43.2 L 30.1 46.0 L 34.3 48.3 L 38.9 50.0 L 43.9 51.2 L 49.4 51.9 L 51.42570352554321 51.9343339920044 L 51.7 50.7 L 53.2 43.6 L 54.7 36.6 L 54.7828125 36.1859375 L 53.7 35.3 L 52.6 34.6 L 51.4 34.0 L 50.1 33.5 L 48.8 33.2 L 47.5 33.0 L 46.0 33.0 L 46.0 19.0 Z " />
</g>
</svg>
