<svg xmlns="http://www.w3.org/2000/svg" xmlns:xlink="http://www.w3.org/1999/xlink" version="1.1" baseProfile="full" viewBox="0 0 200 200" width="200" height="200">
<g fill="black">
<path d="M 62.1 35.2 L 62.6 51.2 L 62.488034629821776 59.70937051773071 L 67.1 58.2 L 72.0 56.6 L 76.3 55.4 L 76.4529411315918 56.011764717102054 L 88.0 56.9 L 96.4 65.8 L 99.9 78.0 L 100.6 92.6 L 99.0 108.9 L 95.5 126.0 L 90.2 143.1 L 83.2 159.2 L 74.7 173.3 L 64.4 184.4 L 63.91432466506958 183.805184173584 L 63.9 183.9 L 59.7 182.7 L 56.0 180.5 L 53.0 177.4 L 50.8 173.8 L 49.2 169.7 L 48.2 165.3 L 47.6 160.5 L 47.3 155.3 L 47.4 149.5 L 47.9 143.3 L 61.8 144.6 L 61.4 150.2 L 61.3 155.1 L 61.5 159.4 L 62.0 162.9 L 62.6 165.7 L 62.6465841293335 165.8106372833252 L 63.4 165.0 L 70.7 152.9 L 77.0 138.3 L 81.9 122.5 L 85.2 106.7 L 86.6 92.1 L 86.1 80.0 L 83.9 72.0 L 81.7 69.4 L 78.8 69.4 L 78.76278162002563 69.26777667999268 L 76.2 70.0 L 71.4 71.5 L 65.7 73.4 L 61.94825115203857 74.53147983551025 L 61.6 80.8 L 60.2 94.4 L 58.1 107.2 L 55.3 119.2 L 51.9 130.4 L 47.8 140.8 L 43.1 150.4 L 30.8 143.5 L 35.0 135.1 L 38.7 125.8 L 41.8 115.6 L 44.3 104.5 L 46.3 92.5 L 47.6 79.7 L 47.71041879653931 77.7952754020691 L 45.5 78.2 L 38.2 78.7 L 31.0 78.2 L 23.9 76.3 L 17.4 72.3 L 26.5 61.6 L 29.3 63.4 L 33.2 64.4 L 38.1 64.7 L 43.6 64.3 L 48.43295192718506 63.49450798034668 L 48.6 51.3 L 48.1 35.9 L 47.1 19.5 L 61.0 18.4 Z M 165.1 56.5 L 171.2 59.1 L 176.2 63.2 L 179.8 68.7 L 181.8 75.1 L 182.6 82.2 L 182.3 89.9 L 181.0 98.4 L 179.32689809799194 105.23789472579956 L 179.5 105.3 L 178.98245611190796 106.64561405181885 L 178.7 107.8 L 178.55386600494384 107.75994844436646 L 177.0 111.8 L 174.1 117.9 L 170.9 123.8 L 167.3 129.4 L 163.4 134.7 L 159.1 139.7 L 154.4 144.4 L 149.4 148.7 L 144.1 152.7 L 138.4 156.4 L 131.2 144.4 L 136.0 141.3 L 140.6 137.8 L 144.9 134.1 L 148.8 130.2 L 152.5 125.9 L 155.8 121.4 L 158.9 116.7 L 161.7 111.6 L 164.2 106.3 L 165.44293785095215 103.079660987854 L 167.2 95.7 L 168.3 88.5 L 168.6 82.5 L 168.1 77.9 L 167.1 74.6 L 165.7 72.5 L 164.0 71.1 L 161.5 70.1 L 157.8 69.6 L 153.79056606292724 69.76037731170655 L 151.0 70.8 L 146.7 73.2 L 143.0 75.8 L 140.0 78.9 L 137.5 82.4 L 135.5 86.4 L 134.0 90.9 L 133.1 96.1 L 132.7 101.9 L 132.78936166763305 104.8042552947998 L 133.0 110.0 L 119.0 110.0 L 118.92857141494751 107.64285717010497 L 118.7443299293518 102.85257730484008 L 118.2 97.5 L 117.4 92.1 L 116.2 87.4 L 114.7 83.3 L 113.0 79.7 L 111.0 76.8 L 108.8 74.3 L 106.4 72.3 L 103.7 70.7 L 110.0 58.1 L 114.5 60.9 L 118.6 64.3 L 122.1 68.3 L 125.2 72.8 L 126.00074768066406 74.50158882141113 L 129.3 69.9 L 133.9 65.2 L 139.2 61.3 L 145.3 58.1 L 151.1003541946411 55.902896118164065 L 151.1 55.9 L 151.10897359848022 55.89963121414185 L 151.9 55.6 L 151.9832739830017 55.863701057434085 L 158.4 55.6 Z " />
</g>
</svg>
