<svg xmlns="http://www.w3.org/2000/svg" xmlns:xlink="http://www.w3.org/1999/xlink" version="1.1" baseProfile="full" viewBox="0 0 200 200" width="200" height="200">
<g fill="black">
<path d="M 103.1 157.3 L 97.3 161.6 L 94.0 165.0 L 93.81615200042725 165.28598575592042 L 95.1 165.9 L 100.4 167.3 L 108.2 168.3 L 118.4 168.9 L 130.8 169.0 L 131.1 182.9 L 118.0 182.9 L 107.0 182.3 L 97.8 181.1 L 90.4 179.1 L 84.2 175.9 L 79.8 170.0 L 79.7 162.4 L 83.0 156.3 L 88.2 151.0 L 95.2 145.7 Z M 129.0 28.7 L 126.3 30.6 L 124.0 32.6 L 121.9 34.5 L 120.1 36.5 L 118.7 38.4 L 117.5 40.4 L 117.09271068572998 41.418223190307614 L 119.9 42.2 L 126.8 44.8 L 132.9 47.8 L 138.0 51.4 L 142.1 55.8 L 145.0 61.0 L 146.4 66.7 L 146.1 72.7 L 145.47496404647828 74.96575536727906 L 145.7 75.0 L 140.9 89.2 L 131.9 99.5 L 120.3 105.7 L 107.6 108.2 L 100.72894983291626 107.7206244468689 L 93.7 111.9 L 85.1 116.2 L 75.1 120.5 L 69.70964040756226 122.53320579528808 L 72.1 122.3 L 80.6 121.1 L 89.2 119.2 L 98.0 116.7 L 107.1 113.6 L 116.3 109.9 L 125.1 107.9 L 133.2 106.3 L 140.6 105.2 L 147.3 104.4 L 153.3 104.1 L 158.8 104.3 L 163.7 105.0 L 168.2 106.3 L 172.3 108.5 L 175.7 111.9 L 176.0 117.2 L 174.3 121.7 L 171.6 125.4 L 168.1 128.7 L 163.9 131.9 L 158.8 135.1 L 152.8 138.4 L 146.0 141.8 L 138.2 145.3 L 129.5 149.0 L 124.2 136.1 L 132.6 132.5 L 140.0 129.1 L 146.3 126.0 L 151.7 123.0 L 156.0 120.3 L 158.52857141494752 118.4035714149475 L 157.7 118.3 L 153.5 118.1 L 148.4 118.4 L 142.5 119.1 L 135.6 120.1 L 128.0 121.6 L 120.5935483932495 123.27526884078979 L 111.9 126.7 L 102.2 130.0 L 92.6 132.7 L 83.1 134.8 L 73.8 136.2 L 64.6 137.0 L 55.5 137.2 L 46.6 136.7 L 37.9 135.5 L 29.3 133.7 L 32.6 120.2 L 32.919129085540774 120.26298599243164 L 32.9 120.2 L 46.7 115.9 L 59.0 111.7 L 64.73465700149536 109.469855594635 L 60.5 109.7 L 51.8 107.0 L 45.0 100.5 L 42.0 91.1 L 42.26278810501098 88.69110870361328 L 41.9 81.0 L 47.3 73.7 L 55.0 67.9 L 61.298636531829835 64.81629247665406 L 62.3 58.5 L 65.5 51.6 L 70.3 46.5 L 76.2 43.4 L 82.7 42.5 L 89.1 43.9 L 94.7 47.6 L 98.8 53.3 L 100.9 60.5 L 100.9 60.80485439300537 L 108.1 64.3 L 115.5 74.2 L 118.0 88.0 L 117.38333330154418 88.0 L 115.99103260040283 92.3967391014099 L 123.2 88.5 L 128.7 82.2 L 131.68921461105347 73.51259498596191 L 131.4 73.4 L 132.3 70.3 L 132.4 68.0 L 132.0 66.1 L 130.9 64.2 L 128.9 62.1 L 125.7 59.8 L 121.3 57.6 L 115.7 55.5 L 108.8 53.7 L 100.7 52.0 L 102.13999996185302 43.71999998092652 L 102.4 41.9 L 102.58571424484253 41.15714282989502 L 103.1 38.2 L 103.31417112350464 38.24331550598144 L 103.4 37.9 L 104.440394115448 35.494088649749756 L 102.3 36.0 L 96.6 37.3 L 90.7 38.7 L 84.7 40.2 L 78.5 41.6 L 72.1 43.2 L 70.75378456115723 43.53137607574463 L 70.8 43.7 L 67.1 44.5 L 66.6748031616211 44.53543310165405 L 65.6 44.8 L 65.55867624282837 44.62844362258911 L 63.5 44.8 L 59.9 44.6 L 56.5 43.7 L 53.2 42.2 L 50.3 40.1 L 47.9 37.5 L 46.0 34.5 L 44.5 31.2 L 43.4 27.6 L 57.0 24.2 L 57.6 26.3 L 58.3 27.9 L 59.0 29.0 L 59.7 29.7 L 60.3 30.2 L 61.0 30.5 L 62.0 30.7 L 63.3 30.8 L 63.911999988555905 30.72799997329712 L 68.8 29.6 L 75.2 28.0 L 81.4 26.5 L 87.5 25.1 L 99.1 22.3 L 104.6 21.0 L 110.1 19.8 L 115.3 18.5 L 120.4 17.4 L 120.4333333015442 17.546236515045166 L 120.9 17.2 Z M 56.9 83.9 L 56.647456073760985 84.20064754486084 L 55.9 89.9 L 56.9 93.1 L 58.8 94.8 L 62.0 95.8 L 66.7 95.5 L 70.1339991569519 94.16455593109131 L 64.0 86.4 L 62.16445655822754 80.00040254592895 Z M 99.0 79.1 L 94.2 90.6 L 92.97459554672241 92.15801429748535 L 96.72610969543457 93.38041772842408 L 98.3 92.2 L 101.6 89.1 L 103.3 86.6 L 103.59881420135498 85.75335969924927 L 102.5 79.6 L 99.49738216400146 75.43507852554322 Z M 78.5 73.4 L 74.88552522659302 74.56327924728393 L 76.4 79.9 L 80.66963634490966 85.32599620819092 L 82.1 83.5 L 85.5 75.4 L 85.90217142105102 72.35498752593995 Z M 80.6 56.7 L 78.8 57.6 L 77.2 59.4 L 77.13316831588745 59.538118839263916 L 85.4956521987915 58.34347829818726 L 85.0 57.6 L 83.7 56.8 L 82.2 56.4 Z " />
</g>
</svg>
