<svg xmlns="http://www.w3.org/2000/svg" xmlns:xlink="http://www.w3.org/1999/xlink" version="1.1" baseProfile="full" viewBox="0 0 200 200" width="200" height="200">
<g fill="black">
<path d="M 30.9 163.8 L 28.5 161.4 L 28.4192307472229 161.30384616851808 L 28.3 161.2 L 28.31642379760742 161.18145694732667 L 26.4 158.9 L 24.6 156.3 L 23.2 153.5 L 22.2 150.5 L 21.9 147.3 L 22.2 144.1 L 22.908627700805663 141.65917119979858 L 22.8 141.6 L 23.03903226852417 141.21000003814697 L 23.1 141.0 L 23.153217220306395 141.0236982345581 L 28.5 132.3 L 35.2 123.1 L 43.0 114.1 L 51.372492122650144 105.63236589431763 L 51.3 104.4 L 50.20315380096436 90.87223081588745 L 50.0 90.9 L 49.2 83.1 L 48.9 75.4 L 49.2 67.9 L 49.9 60.5 L 51.2 53.2 L 53.0 46.0 L 55.4 39.0 L 58.2 32.2 L 61.6 25.5 L 65.5 19.0 L 77.3 26.6 L 73.9 32.3 L 71.0 38.1 L 68.5 44.0 L 66.5 50.0 L 64.9 56.1 L 63.8 62.4 L 63.1 68.8 L 62.9 75.4 L 63.2 82.1 L 63.83059282302857 88.31584386825561 L 64.0 88.3 L 64.47151117324829 94.23318214416504 L 72.7 87.8 L 84.6 79.3 L 97.7 70.8 L 111.7 62.5 L 126.12339391708375 54.57190933227539 L 126.5 50.9 L 127.2 44.4 L 127.6 39.0 L 127.9 34.8 L 127.94333333969116 33.586666679382326 L 127.9 33.5 L 127.5 33.0 L 126.9 32.4 L 125.8 31.6 L 124.3 30.7 L 122.4 29.7 L 120.0 28.8 L 117.3 27.9 L 114.1 27.0 L 117.7 13.4 L 121.4 14.5 L 124.9 15.7 L 128.0 16.9 L 130.9 18.4 L 133.6 19.9 L 136.0 21.8 L 138.1 23.8 L 139.9 26.3 L 141.2 29.1 L 141.87666664123535 32.0 L 142.0 32.0 L 141.9 35.5 L 141.6 40.0 L 141.1 45.6 L 140.5 52.3 L 140.25529413223268 54.716470623016356 L 142.5 56.4 L 144.8 59.9 L 146.1 63.6 L 146.8 67.6 L 147.0 72.0 L 146.9 72.0 L 145.3 74.0 L 143.4 76.4 L 141.0 79.4 L 138.2 82.8 L 136.87329845428468 84.45837697982788 L 136.19401092529296 89.94119777679444 L 141.4 88.9 L 146.9 87.9 L 152.4 87.3 L 153.37991266250611 87.2109169960022 L 152.0 85.9 L 150.0 83.9 L 159.9 74.0 L 161.8 75.9 L 163.6 77.6 L 165.3 79.2 L 168.5 82.0 L 169.9 83.1 L 171.2 84.2 L 172.5 85.0 L 173.6 85.8 L 174.6 86.4 L 174.2604516029358 86.98693370819092 L 174.5 87.0 L 173.4 100.9 L 168.5 100.7 L 163.6 100.6 L 158.7 100.8 L 153.9 101.2 L 149.0 101.8 L 144.0 102.6 L 139.1 103.7 L 134.39342107772828 104.85263156890869 L 133.92990655899047 108.5607476234436 L 134.1 108.5 L 136.8 107.6 L 139.4 106.9 L 142.0 106.4 L 144.09790210723878 106.14825172424317 L 146.8 105.6 L 153.5 105.7 L 159.9 107.3 L 165.5 110.3 L 170.3 114.7 L 174.1 120.1 L 176.7 126.4 L 178.2 133.3 L 178.6 140.9 L 177.9 149.1 L 164.0 146.8 L 164.6 140.6 L 164.4 135.1 L 163.4 130.5 L 161.8 126.8 L 159.8 123.9 L 157.5 121.8 L 154.8 120.4 L 151.7 119.6 L 148.1 119.5 L 147.0 119.73571424484253 L 147.0 120.0 L 145.76666669845582 120.0 L 143.9 120.4 L 143.86330270767212 120.27706422805787 L 142.6 120.5 L 140.8 121.0 L 138.7 121.7 L 136.6 122.5 L 134.2 123.5 L 131.7 124.7 L 129.1 126.0 L 126.3 127.6 L 119.4 115.4 L 119.77435989379883 115.19470586776734 L 119.0 115.1 L 119.51040458679199 111.01676301956176 L 118.5 111.5 L 114.1 113.9 L 112.1 115.2 L 110.1 116.6 L 102.61653146743774 106.41166324615479 L 101.5 105.5 L 106.9 99.0 L 111.9 92.9 L 116.4 87.4 L 120.5 82.4 L 123.48032789230346 78.75737705230713 L 123.6 77.8 L 124.3442497253418 71.47387771606445 L 118.6 74.6 L 105.0 82.7 L 92.5 90.8 L 81.1 99.0 L 70.7 107.2 L 65.72979145050049 111.58233442306519 L 66.1 117.3 L 66.6 129.9 L 66.7 141.3 L 66.5 151.5 L 65.9 160.5 L 64.8 168.4 L 63.4 175.2 L 61.4 181.1 L 58.6 186.1 L 47.3 177.8 L 47.43251533508301 177.54601230621338 L 47.0 177.2 L 45.9 176.3 L 44.6 175.2 L 43.0 173.9 L 41.2 172.4 L 39.1 170.6 L 36.8 168.6 L 33.7 166.2 Z M 177.7 149.1 L 176.2 155.6 L 174.0 161.7 L 170.9 167.1 L 166.9 171.9 L 162.2 175.9 L 156.8 179.1 L 150.8 181.4 L 144.3 183.0 L 138.85114440917968 183.62272634506226 L 138.9 184.0 L 131.3 184.2 L 124.5 182.9 L 118.7 180.2 L 114.1 176.4 L 110.9 171.5 L 109.3 166.0 L 109.8 160.2 L 112.5 154.8 L 117.2 150.6 L 123.3 148.2 L 123.40270719528198 148.6201657295227 L 125.9 148.3 L 129.8 148.8 L 133.6 149.9 L 137.3 151.7 L 141.0 154.0 L 144.8 156.7 L 148.7 160.0 L 152.7 163.8 L 153.659259223938 164.759259223938 L 154.1 164.5 L 156.9 162.1 L 159.3 159.2 L 161.3 155.8 L 162.8 151.6 L 163.9 146.8 Z M 124.5 162.6 L 123.6 163.4 L 123.3 163.9 L 123.2 164.6 L 123.6 165.6 L 124.5 167.0 L 126.2 168.4 L 128.8 169.6 L 130.8 169.9888889312744 L 136.4 169.9 L 138.39378881454468 169.646245098114 L 136.1 167.7 L 133.1 165.5 L 130.6 164.0 L 128.4 163.0 L 126.9 162.5 L 125.9 162.3 L 125.5 162.4 L 125.4 162.4 L 125.31136360168458 162.25227270126342 Z M 46.1 131.9 L 40.1 140.1 L 35.80921983718872 147.13687944412231 L 35.9 147.5 L 36.1 148.1 L 36.6 149.1 L 37.5 150.3 L 38.38571424484253 151.407142829895 L 40.6 153.4 L 43.4 155.8 L 46.0 158.0 L 48.3 160.0 L 50.3 161.7 L 51.44901962280274 162.65751638412476 L 51.9 159.2 L 52.5 150.9 L 52.7 141.2 L 52.6 130.3 L 52.37116813659668 124.67073669433594 Z " />
</g>
</svg>
