<svg xmlns="http://www.w3.org/2000/svg" xmlns:xlink="http://www.w3.org/1999/xlink" version="1.1" baseProfile="full" viewBox="0 0 200 200" width="200" height="200">
<g fill="black">
<path d="M 97.4 24.5 L 101.6 34.7 L 105.2 45.2 L 108.3 55.9 L 110.30200490951538 65.07585563659669 L 118.3 64.5 L 131.2 63.5 L 144.5 62.3 L 158.3 61.0 L 159.6 74.9 L 145.8 76.3 L 132.4 77.4 L 119.4 78.5 L 112.60099439620971 78.9856432914734 L 113.8 89.5 L 114.4 101.3 L 114.5 113.2 L 113.9 125.4 L 113.22804355621338 125.3564920425415 L 104.8 135.7 L 97.8 130.5 L 91.0 126.3 L 84.4 123.1 L 78.0 120.8 L 71.7 119.5 L 65.6 119.0 L 59.6 119.4 L 53.6 120.7 L 47.6 122.9 L 42.97382555007935 125.25100669860839 L 40.7 127.2 L 37.7 131.1 L 35.1 135.7 L 33.1 140.9 L 31.6 146.4 L 30.6 152.0 L 30.3 157.6 L 30.5 162.8 L 31.3 167.5 L 32.4 171.4 L 32.38746356964111 171.40495624542237 L 32.8 171.9 L 33.0 172.1 L 33.4 172.3 L 34.0 172.3 L 35.0 172.2 L 36.4 171.8 L 37.72173910140991 171.24347829818726 L 37.7 171.2 L 40.0 170.1 L 42.4 168.9 L 44.9 167.5 L 47.7 166.0 L 50.6 164.5 L 53.6 162.8 L 56.8 161.0 L 60.2 159.0 L 63.7 157.0 L 67.4 154.9 L 74.5 167.0 L 70.7 169.2 L 67.1 171.2 L 63.7 173.2 L 60.4 175.0 L 57.3 176.7 L 54.3 178.3 L 51.5 179.9 L 48.8 181.3 L 46.3 182.6 L 44.65714282989502 183.45714282989502 L 44.2 183.7 L 44.16235294342041 183.7152940750122 L 44.0 183.8 L 43.99220781326294 183.78441562652588 L 41.0 185.0 L 37.8 185.9 L 34.5 186.3 L 31.2 186.1 L 27.9 185.2 L 24.9 183.5 L 22.3 181.2 L 20.4 178.5 L 18.9 175.6 L 19.17332410812378 175.48558530807495 L 17.6 170.6 L 16.6 164.2 L 16.3 157.5 L 16.7 150.5 L 17.9 143.4 L 19.8 136.4 L 22.5 129.7 L 26.0 123.4 L 30.5 117.7 L 34.55023889541626 114.15604095458984 L 34.4 113.9 L 35.470909118652344 113.3504545211792 L 36.1 112.8 L 36.21852321624756 112.9668104171753 L 42.0 110.0 L 49.8 107.2 L 57.7 105.6 L 65.7 105.0 L 73.8 105.6 L 81.8 107.3 L 89.8 110.2 L 97.8 114.1 L 100.3793176651001 115.69982995986939 L 100.5 112.9 L 100.4 101.7 L 99.8 90.7 L 98.60415916442871 79.93743219375611 L 94.6 80.2 L 82.9 80.8 L 71.5 81.3 L 60.6 81.7 L 50.1 81.9 L 40.0 82.0 L 40.0 68.0 L 49.9 67.9 L 60.2 67.7 L 71.0 67.3 L 82.2 66.8 L 93.8 66.2 L 96.15438146591187 66.04304122924805 L 94.7 59.3 L 91.9 49.4 L 88.5 39.7 L 84.6 30.3 L 80.2 21.1 L 92.6 14.6 Z M 144.5 126.1 L 150.9 127.3 L 156.9 129.3 L 162.5 132.3 L 167.6 136.2 L 172.1 141.0 L 176.1 146.5 L 179.5 152.7 L 182.3 159.6 L 184.7 167.1 L 171.2 170.8 L 169.2 164.3 L 166.8 158.7 L 164.2 153.9 L 161.4 149.9 L 158.3 146.6 L 155.0 144.1 L 151.4 142.2 L 147.4 140.8 L 143.0 140.1 L 138.2 139.9 L 137.7 125.9 Z " />
</g>
</svg>
