<svg xmlns="http://www.w3.org/2000/svg" xmlns:xlink="http://www.w3.org/1999/xlink" version="1.1" baseProfile="full" viewBox="0 0 200 200" width="200" height="200">
<g fill="black">
<path d="M 102.1 26.6 L 103.8 37.4 L 105.2 48.9 L 105.708948802948 54.45216884613037 L 109.7 52.7 L 113.6 50.4 L 117.5 47.5 L 126.4 58.4 L 121.3 62.1 L 116.1 65.2 L 110.6 67.6 L 106.73653764724732 68.82004070281982 L 107.0 73.6 L 107.4 86.9 L 107.42500829696655 90.40116472244263 L 110.0 91.0 L 113.8 99.3 L 112.4 107.0 L 108.7 115.8 L 107.19629802703858 118.55253915786743 L 107.19487209320069 118.5958890914917 L 109.2 117.1 L 113.36366233825683 113.97725324630737 L 113.3 113.9 L 114.55 113.0875 L 116.0 112.0 L 116.07310924530029 112.09747896194457 L 121.3 108.7 L 130.0 105.8 L 138.9 105.0 L 147.5 106.6 L 155.5 110.4 L 162.4 116.4 L 167.5 124.5 L 170.6 134.3 L 171.4 145.7 L 169.9049195289612 157.66064405441284 L 170.4 157.8 L 165.7 168.7 L 158.7 176.7 L 150.2 181.6 L 141.1 183.6 L 132.1 183.1 L 123.7 180.4 L 116.4 175.7 L 110.8 169.1 L 107.7 160.7 L 108.2 151.2 L 121.7 154.7 L 121.5 158.5 L 122.8 161.8 L 125.5 165.0 L 129.7 167.7 L 134.7 169.3 L 140.1 169.6 L 145.2 168.5 L 149.9 165.9 L 153.9 161.3 L 156.30554389953613 155.44650993347167 L 156.1 155.4 L 157.4 145.2 L 156.9 136.9 L 154.8 130.4 L 151.7 125.5 L 147.8 122.1 L 143.3 119.9 L 138.2 119.0 L 132.9 119.5 L 127.4 121.3 L 123.6444444656372 123.7555555343628 L 117.6 128.2 L 111.4 132.9 L 106.44732608795167 136.7913866996765 L 105.9 146.4 L 94.983527469635 145.69317808151246 L 92.1 148.0 L 91.12146339416503 148.83463411331178 L 91.0 149.0 L 90.96204080581666 148.97061223983764 L 88.7 150.9 L 85.8 153.3 L 83.6 155.3 L 81.9 156.9 L 72.0 147.0 L 72.48000001907349 146.54285717010498 L 78.25091867446899 138.29868764877318 L 75.0 134.9 L 71.5 130.2 L 69.0 125.4 L 67.6 120.2 L 67.8 114.9 L 69.6 109.8 L 72.9 105.5 L 77.1 102.1 L 77.2210262298584 102.28389701843261 L 86.0 96.0 L 93.43366479873657 91.77841262817383 L 93.4 87.2 L 93.0 74.3 L 92.80568027496338 70.88552522659302 L 87.0 70.6 L 80.8 69.6 L 74.6 68.0 L 68.3 65.8 L 73.5 52.8 L 78.7 54.7 L 83.6 55.9 L 88.4 56.7 L 91.86015253067016 56.85378456115723 L 91.3 50.3 L 89.9 39.4 L 88.3 29.1 L 86.3 19.5 L 100.0 16.4 Z M 45.8 24.8 L 43.5 45.1 L 41.8 64.3 L 40.7 82.3 L 40.1 99.3 L 40.2 115.1 L 40.8 129.7 L 41.7755952835083 141.67321424484254 L 42.4 139.8 L 45.4 132.2 L 48.7 123.9 L 52.6 115.1 L 65.3 120.8 L 61.6 129.4 L 58.4 137.3 L 55.6 144.7 L 53.2 151.3 L 51.4 157.4 L 50.0 162.7 L 49.0 167.4 L 48.5 171.3 L 48.4 174.5 L 48.6 176.7 L 48.57431602478027 176.7048743247986 L 48.6 176.8 L 35.3 181.1 L 32.2 170.0 L 29.8 157.9 L 28.0 144.8 L 26.8 130.6 L 26.2 115.3 L 26.1 99.0 L 26.7 81.7 L 27.9 63.2 L 29.6 43.7 L 31.9 23.1 Z M 85.0 113.9 L 84.04542207717896 112.65343351364136 L 84.8 113.8 L 82.8 115.4 L 81.9 116.6 L 81.5 117.5 L 81.5 118.5 L 82.0 120.2 L 83.3 122.7 L 85.7 125.8 L 86.27688837051392 126.4108229637146 L 90.8 119.4 L 93.30340156555175 114.85678977966309 L 93.40011501312256 107.94177894592285 Z M 154.4 36.0 L 158.6 37.3 L 162.4 39.0 L 165.9 41.2 L 169.0 43.9 L 171.6 47.1 L 173.5 50.7 L 174.9 54.5 L 175.7 58.7 L 176.0 63.0 L 162.0 63.0 L 161.8 60.3 L 161.4 58.2 L 160.8 56.4 L 159.9 54.9 L 158.9 53.6 L 157.6 52.4 L 155.9 51.4 L 153.7 50.4 L 151.1 49.6 L 148.0 49.0 L 149.9 35.2 Z " />
</g>
</svg>
