<svg xmlns="http://www.w3.org/2000/svg" xmlns:xlink="http://www.w3.org/1999/xlink" version="1.1" baseProfile="full" viewBox="0 0 200 200" width="200" height="200">
<g fill="black">
<path d="M 54.0 141.9 L 49.7 149.5 L 48.6 154.6 L 49.6 157.7 L 53.4 161.0 L 61.4 164.5 L 73.6 167.1 L 90.0 168.7 L 110.3 169.0 L 134.4 168.1 L 162.3 166.0 L 163.6 179.9 L 135.2 182.1 L 110.5 183.0 L 89.3 182.7 L 71.6 181.0 L 57.2 177.8 L 46.0 173.0 L 38.0 165.5 L 34.6 155.2 L 36.6 144.4 L 42.7 133.7 Z M 107.3 23.6 L 108.5 31.3 L 109.4 39.6 L 110.0 48.3 L 110.14677228927613 55.12490959167481 L 116.0 48.6 L 120.7 42.2 L 124.1 36.2 L 126.1 30.6 L 127.0 25.5 L 140.9 26.4 L 139.6 34.3 L 136.8 42.1 L 132.5 49.8 L 126.9 57.5 L 119.9 65.2 L 111.6 73.0 L 109.9285457611084 74.38994617462158 L 109.8 77.7 L 109.35883150100707 85.64103260040284 L 111.4 85.1 L 119.0 82.9 L 125.8 80.7 L 131.8 78.7 L 132.65854053497316 78.35982360839844 L 131.4 77.3 L 129.6 75.6 L 127.9 73.8 L 126.3 71.9 L 124.8 69.8 L 136.3 61.8 L 138.5 64.6 L 139.6 65.8 L 140.8 66.9 L 141.9 67.9 L 143.1 68.8 L 144.3 69.6 L 146.9 70.8 L 147.93360652923585 71.19754095077515 L 148.1 71.1 L 155.8 82.8 L 151.9 85.1 L 147.5 87.4 L 142.4 89.6 L 136.6 91.8 L 130.1 94.0 L 123.0 96.3 L 115.2 98.6 L 108.23616542816163 100.48433170318603 L 108.13533334732055 101.40733337402344 L 108.9 101.8 L 112.2 104.1 L 115.1 106.9 L 117.4 110.2 L 118.9 113.8 L 119.7 117.7 L 119.7 120.210169506073 L 125.0 120.3 L 130.2 120.6 L 134.8 121.3 L 138.9 122.4 L 142.7 124.1 L 146.1 126.8 L 148.4 130.9 L 148.9 135.6 L 147.06865797042846 135.42872343063354 L 148.7 135.9 L 145.9 142.9 L 141.8 148.9 L 136.4 153.6 L 130.0 156.9 L 122.7 158.7 L 114.8 159.2 L 106.3 158.5 L 97.0 156.7 L 87.0 153.8 L 76.3 149.8 L 81.5 136.8 L 91.4 140.5 L 100.4 143.1 L 108.3 144.6 L 115.0 145.2 L 120.7 144.9 L 125.1 143.8 L 128.6 142.0 L 131.3 139.6 L 133.5 136.4 L 133.86319570541383 135.45996408462526 L 132.1 135.0 L 128.8 134.6 L 124.5 134.3 L 119.3 134.2 L 113.3 134.4 L 106.5 134.8 L 105.5130274772644 122.32825689315796 L 105.4 122.3 L 105.4738018989563 121.83258781433105 L 105.4 120.9 L 105.62350330352783 120.8844789505005 L 105.7 120.4 L 105.7 119.0 L 105.5 117.9 L 105.1 117.0 L 104.5 116.0 L 103.4 115.0 L 101.8 113.9 L 99.6 112.8 L 96.7 111.7 L 93.3 110.8 L 93.43523073196411 110.23858766555786 L 93.1 110.2 L 93.71829853057861 104.22311391830445 L 92.5 104.5 L 88.09281435012818 105.36227540969848 L 87.5 105.5 L 87.49299697875976 105.46927709579468 L 83.2 106.2 L 78.4 106.8 L 73.5 107.3 L 68.5 107.7 L 63.3 107.9 L 58.0 108.0 L 58.0 94.0 L 58.55034160614014 93.98876857757568 L 58.2 93.4 L 71.4 85.3 L 83.1 77.5 L 93.5 69.9 L 96.18292236328125 67.66925554275512 L 96.2 67.1 L 96.2 57.8 L 96.0 49.0 L 95.4 40.8 L 94.6 33.1 L 93.5 26.1 L 92.1 19.6 L 105.8 16.3 Z M 91.2 89.0 L 88.1445704460144 91.01211214065552 L 94.1 89.6 L 95.04940204620361 89.35737504959107 L 95.2 87.5 L 95.30432720184326 85.94999532699585 Z M 78.4 42.8 L 77.9 45.3 L 77.7 47.5 L 77.7 49.3 L 78.1 50.9 L 78.6 52.3 L 79.4 53.5 L 80.5 54.8 L 82.1 56.0 L 84.1 57.3 L 86.6 58.5 L 81.3 71.4 L 77.4 69.6 L 74.0 67.5 L 70.9 64.9 L 68.2 62.0 L 66.1 58.6 L 64.7 55.0 L 63.9 51.1 L 63.7 47.1 L 64.0 43.1 L 64.9 39.0 Z " />
</g>
</svg>
