<svg xmlns="http://www.w3.org/2000/svg" xmlns:xlink="http://www.w3.org/1999/xlink" version="1.1" baseProfile="full" viewBox="0 0 200 200" width="200" height="200">
<g fill="black">
<path d="M 114.95660257339478 32.20964794158935 L 115.2 32.3 L 109.9 45.1 L 106.38256855010987 52.192525672912595 L 111.9 51.3 L 118.1 50.6 L 124.0 50.4 L 129.4 50.7 L 134.4 51.5 L 139.0 52.9 L 143.2 55.1 L 146.9 58.0 L 137.0 67.9 L 136.9545757293701 67.86505823135376 L 132.2 73.0 L 128.7 77.5 L 126.7 80.9 L 126.0 82.9 L 126.0 82.9333333015442 L 126.7 83.4 L 129.6 84.2 L 134.3 84.9 L 140.8 85.0 L 141.1 98.9 L 140.82515535354614 98.89643058776855 L 141.1 99.3 L 136.5 102.5 L 132.54618644714355 105.35042371749878 L 133.9 105.2 L 137.60711250305175 105.04225053787232 L 137.6 104.9 L 145.4 104.9 L 152.5 105.9 L 159.0 108.0 L 164.8 111.2 L 169.6 115.7 L 173.1 121.2 L 175.5 127.5 L 176.6 134.4 L 176.7 141.9 L 175.9 150.0 L 175.44049587249756 149.93057851791383 L 172.8 157.5 L 167.1 164.6 L 159.7 170.3 L 150.8 174.7 L 140.9 177.9 L 130.2 179.7 L 119.0 180.2 L 107.7 179.0 L 96.7 176.0 L 88.26111011505127 171.8616982460022 L 88.2 172.0 L 87.310169506073 171.39537153244018 L 86.3 170.9 L 86.38270854949951 170.7651737213135 L 80.4 166.7 L 75.9 159.2 L 75.8 150.8 L 79.5 143.6 L 85.9 138.5 L 94.2 135.7 L 103.9 135.8 L 114.4 139.1 L 125.2 145.8 L 136.2 156.4 L 125.7 165.5 L 116.6 156.8 L 108.5 151.8 L 101.7 149.7 L 96.3 149.6 L 92.5 150.8 L 90.3 152.6 L 89.4 154.2 L 89.4 155.4 L 90.4 156.9 L 93.9 159.1 L 93.88318586349487 159.1380531311035 L 101.6 162.9 L 110.3 165.2 L 119.4 166.2 L 128.7 165.8 L 137.5 164.3 L 145.5 161.7 L 152.3 158.3 L 157.5 154.4 L 160.6 150.5 L 161.9 147.0 L 162.09129791259767 147.0261486053467 L 162.7 141.2 L 162.7 135.6 L 161.9 131.0 L 160.6 127.4 L 158.8 124.7 L 156.5 122.5 L 153.5 120.8 L 149.5 119.6 L 144.5 118.9 L 139.3 118.9 L 135.0 119.2 L 131.1 119.6 L 127.4 120.1 L 123.9 120.8 L 120.8 121.5 L 117.9 122.4 L 115.2 123.4 L 112.9 124.5 L 110.8 125.7 L 110.34300518035889 126.03005180358886 L 109.7 126.9 L 109.41220436096191 126.70229692459107 L 109.0 127.0 L 108.10134525299073 125.80179376602173 L 98.2 119.0 L 100.4 116.0 L 102.9 113.0 L 105.7 110.0 L 108.7 106.9 L 112.1 103.9 L 115.7 100.7 L 119.7 97.6 L 121.40044250488282 96.2639380455017 L 120.9 96.1 L 115.8 92.6 L 112.6 87.1 L 112.2 80.9 L 113.9 75.1 L 117.1 69.6 L 121.04006071090699 64.52169952392578 L 119.2 64.6 L 113.8 65.1 L 107.7 66.1 L 101.1 67.6 L 97.44253578186036 68.50184049606324 L 97.1 69.1 L 89.6 80.3 L 81.6 90.8 L 72.9 100.6 L 63.8 109.8 L 54.1 118.2 L 44.1 126.0 L 33.6 132.9 L 33.44816436767578 132.6524871826172 L 33.3 133.0 L 25.6 126.4 L 23.5 117.1 L 25.6 107.8 L 30.6 98.7 L 37.7 89.5 L 47.0 80.4 L 58.0 71.8 L 70.5 64.1 L 84.4 57.7 L 88.18233718872071 56.54008321762085 L 91.5 50.8 L 97.1 39.4 L 97.490980052948 38.44249782562256 L 96.2 38.8 L 89.5 40.1 L 82.6 41.0 L 75.5 41.4 L 68.1 41.4 L 60.5 41.0 L 52.7 40.2 L 44.7 39.0 L 47.1 25.2 L 54.5 26.3 L 61.6 27.1 L 68.4 27.4 L 75.0 27.4 L 81.3 27.0 L 87.3 26.3 L 93.1 25.1 L 98.6 23.7 L 103.9 21.8 L 108.9 19.6 Z M 66.0 83.3 L 56.2 90.9 L 48.2 98.8 L 42.2 106.4 L 39.143116283416745 112.08920030593872 L 45.2 107.4 L 54.2 99.6 L 62.7 91.0 L 70.7 81.9 L 72.92086534500122 79.03625259399413 Z " />
</g>
</svg>
