<svg xmlns="http://www.w3.org/2000/svg" xmlns:xlink="http://www.w3.org/1999/xlink" version="1.1" baseProfile="full" viewBox="0 0 200 200" width="200" height="200">
<g fill="black">
<path d="M 131.3 40.2 L 131.1 57.5 L 129.3 73.8 L 126.0 88.8 L 121.2 102.1 L 114.6 113.3 L 106.1 122.1 L 103.21066789627075 123.61217384338379 L 100.4 132.7 L 96.5 142.2 L 91.7 151.3 L 87.68134717941284 157.18445596694946 L 87.7 157.2 L 85.83050575256348 159.91076669692993 L 89.2 161.1 L 95.2 162.0 L 103.5 162.4 L 114.0 162.3 L 126.6 161.5 L 141.2 160.0 L 142.7 173.9 L 127.7 175.4 L 114.6 176.3 L 103.3 176.4 L 93.8 176.0 L 85.9 174.7 L 79.3 172.4 L 73.9 168.0 L 71.5 160.9 L 73.1 154.0 L 75.16359691619873 150.85029935836792 L 75.1 150.8 L 79.7 144.1 L 83.8 136.3 L 86.95423374176025 128.5999587059021 L 83.2 129.0 L 70.2 125.8 L 70.37211513519287 125.38107814788819 L 67.6 123.5 L 65.1 121.4 L 62.9 119.1 L 60.9 116.6 L 59.4 113.8 L 58.3 110.8 L 57.6 107.7 L 57.4 104.6 L 57.6 101.4 L 58.09587907791138 98.8379578590393 L 57.7 98.7 L 59.6 94.2 L 62.1 90.1 L 65.1 86.4 L 68.7 83.1 L 72.8 80.4 L 77.2 78.2 L 82.1 76.5 L 87.3 75.2 L 92.8 74.4 L 98.02947788238525 74.04545907974243 L 98.4 73.6 L 103.2 79.7 L 105.8 87.0 L 106.8 95.1 L 106.75392160415649 99.15490198135376 L 108.5 96.2 L 112.6 84.9 L 115.5 71.6 L 117.1 56.7 L 117.3 40.6 L 117.08998603820801 37.88597345352173 L 114.1 38.6 L 107.5 39.9 L 101.0 40.9 L 94.5 41.5 L 88.0 41.8 L 81.7 41.7 L 75.4 41.2 L 69.2 40.4 L 63.1 39.2 L 57.0 37.7 L 60.9 24.2 L 66.1 25.6 L 71.4 26.6 L 76.8 27.3 L 82.3 27.7 L 87.9 27.8 L 93.5 27.5 L 99.3 27.0 L 105.1 26.1 L 111.1 25.0 L 117.1 23.5 L 117.14387950897216 23.66010103225708 L 129.9 22.1 Z M 89.9 88.9 L 86.1 89.9 L 82.7 91.1 L 79.8 92.5 L 77.3 94.2 L 75.3 96.0 L 73.5 98.2 L 72.1 100.6 L 71.65991086959839 101.59020042419434 L 71.7 101.6 L 71.4 103.2 L 71.4 105.7 L 71.7 106.8 L 72.1 107.8 L 72.7 108.9 L 73.5 110.0 L 74.6 111.1 L 76.0 112.3 L 77.69459457397461 113.42972974777221 L 84.2 115.0 L 91.03414096832276 114.32621145248413 L 91.8 110.9 L 92.7 102.9 L 92.8 95.8 L 92.1 90.0 L 91.65362319946288 88.66086959838867 Z " />
</g>
</svg>
