<svg xmlns="http://www.w3.org/2000/svg" xmlns:xlink="http://www.w3.org/1999/xlink" version="1.1" baseProfile="full" viewBox="0 0 200 200" width="200" height="200">
<g fill="black">
<path d="M 118.0 19.2 L 121.1 21.0 L 123.8 23.3 L 125.9 26.0 L 127.7 29.1 L 129.2 32.6 L 116.0 37.5 L 115.1 35.3 L 114.7798882484436 34.766480445861816 L 114.6 45.2 L 114.4 56.7 L 114.3 68.3 L 114.2 79.8 L 114.1 91.2 L 114.02171869277954 100.2023470878601 L 115.8 100.1 L 131.8 98.4 L 135.40011529922486 97.9252594947815 L 135.3 97.7 L 134.1 94.7 L 132.7 91.4 L 131.3 87.8 L 129.8 83.9 L 128.1 79.7 L 126.4 75.2 L 124.6 70.4 L 122.7 65.3 L 135.9 60.5 L 137.7 65.5 L 139.5 70.2 L 141.2 74.7 L 142.8 78.8 L 144.3 82.6 L 145.7 86.1 L 147.0 89.3 L 148.2 92.2 L 149.3 94.8 L 149.83140535354613 96.02223224639893 L 150.0 96.0 L 150.0817419052124 96.59800624847412 L 150.3 97.1 L 150.1590093612671 97.16327924728394 L 151.9 109.9 L 133.4 112.3 L 116.9 114.0 L 114.0 114.18000001907349 L 114.0 137.0 L 113.64772729873657 137.0 L 113.6 137.7 L 113.2 141.6 L 112.5 145.1 L 111.5 148.3 L 110.1 151.4 L 107.6 154.2 L 103.6 156.2 L 99.2 156.2 L 95.7 154.8 L 93.46883716583253 153.14728679656983 L 93.4 153.2 L 93.15652170181275 152.91594200134278 L 93.0 152.8 L 93.02917642593384 152.7673725128174 L 91.6 151.1 L 89.2 149.0 L 86.4 147.0 L 83.3 145.4 L 79.8 144.2 L 76.0 143.5 L 71.8 143.5 L 67.3 144.3 L 62.2 146.2 L 58.41687536239624 148.29422969818114 L 51.9 155.0 L 49.2 159.6 L 49.2 160.9 L 50.8 162.5 L 57.0 165.2 L 68.1 167.4 L 83.7 168.7 L 103.5 168.9 L 127.4 168.0 L 155.3 166.0 L 156.6 179.9 L 128.1 182.0 L 103.7 182.9 L 83.1 182.7 L 66.3 181.3 L 53.0 178.6 L 42.9 174.1 L 36.2 166.2 L 35.8 155.8 L 40.8 146.4 L 49.19944267272949 137.80966091156006 L 49.0 137.5 L 56.4 133.4 L 63.6 130.8 L 70.6 129.6 L 77.2 129.5 L 83.3 130.6 L 88.9 132.5 L 93.7 135.1 L 98.0 138.1 L 99.32829580307006 139.28070735931396 L 99.7 136.4 L 100.0 132.6 L 100.0 114.9383999824524 L 89.9 115.1 L 79.3 114.4 L 70.5 112.8 L 63.2 110.1 L 57.3 105.4 L 54.2 98.3 L 55.0 90.8 L 55.13268156051636 90.84189939498901 L 56.9 87.7 L 58.8 84.6 L 60.8 81.8 L 63.0 79.2 L 64.12553195953369 78.0255319595337 L 61.0 74.9 L 59.1 70.4 L 58.9 65.7 L 60.0 61.4 L 62.1 57.4 L 64.8 53.4 L 75.9 62.0 L 74.0 64.6 L 73.1 66.5 L 72.93043479919433 67.06521739959717 L 73.6 67.4 L 75.7 68.1 L 79.0 68.6 L 83.2 69.0 L 82.7 82.9 L 82.10179643630981 82.85568866729736 L 81.0 83.2 L 79.4 83.9 L 77.8 84.8 L 76.3 85.8 L 74.8 87.1 L 73.3 88.6 L 71.9 90.4 L 70.4 92.4 L 69.0 94.6 L 68.1 96.4 L 68.2 96.6 L 69.7 97.7 L 74.0 99.3 L 80.9 100.5 L 90.3 101.1 L 100.01449995040893 100.9325086593628 L 100.4 56.6 L 101.0 21.8 L 101.59456644058227 21.812832355499268 L 104.2 20.3 L 107.4 19.0 L 110.8 18.3 L 114.4 18.3 Z M 72.7 28.1 L 73.7 29.8 L 74.8 31.2 L 76.0 32.5 L 77.3 33.6 L 78.7 34.6 L 80.3 35.4 L 82.0 36.1 L 83.8 36.6 L 85.9 37.0 L 84.0 50.9 L 80.6 50.3 L 77.4 49.3 L 74.4 48.1 L 71.5 46.6 L 68.8 44.7 L 66.3 42.6 L 64.1 40.2 L 62.1 37.6 L 60.4 34.7 L 58.9 31.6 L 71.8 26.1 Z " />
</g>
</svg>
