<svg xmlns="http://www.w3.org/2000/svg" xmlns:xlink="http://www.w3.org/1999/xlink" version="1.1" baseProfile="full" viewBox="0 0 200 200" width="200" height="200">
<g fill="black">
<path d="M 84.0 11.3 L 87.4 11.8 L 90.6 12.5 L 93.6 13.5 L 96.3 14.8 L 98.9 16.5 L 101.2 18.6 L 103.0 21.2 L 104.3 24.1 L 104.9 27.2 L 104.66867599487304 27.224962997436524 L 102.5 42.8 L 100.81290912628174 58.452454566955566 L 103.1 57.2 L 110.5 52.9 L 116.9 49.0 L 122.3 45.4 L 126.7 42.2 L 130.0 39.4 L 130.69090909957885 38.709090900421145 L 130.6 38.7 L 129.3 38.9 L 127.8 39.2 L 126.0 39.8 L 124.0 40.8 L 117.7 28.2 L 120.8 26.8 L 123.9 25.8 L 127.0 25.1 L 130.1 24.8 L 133.3 24.9 L 136.3 25.5 L 139.3 26.7 L 142.0 28.3 L 144.4 30.3 L 146.5 32.7 L 145.8164316177368 33.22345323562622 L 146.9 32.9 L 147.2 38.2 L 145.5 42.6 L 142.9 46.2 L 139.5 49.7 L 135.3 53.2 L 130.3 56.9 L 124.4 60.8 L 117.6 65.0 L 109.9 69.4 L 101.2 74.1 L 99.73209476470947 71.32227153778076 L 99.3 76.6 L 99.24755954742432 77.49148693084717 L 105.6 76.1 L 116.4 72.6 L 127.4 67.9 L 138.3 62.0 L 145.6 73.9 L 133.5 80.5 L 121.3 85.7 L 109.2 89.6 L 98.39403972625732 92.00132446289062 L 98.3 93.6 L 97.9267240524292 105.76879615783692 L 107.7 103.5 L 122.02413063049316 101.03804006576539 L 122.1 99.9 L 120.9 95.7 L 133.8 90.1 L 136.0 98.6 L 135.78486289978028 102.38641242980957 L 138.9 103.0 L 145.0 105.0 L 150.7 107.6 L 155.8 110.8 L 160.4 114.7 L 164.5 119.2 L 167.8 124.3 L 170.6 129.9 L 172.47589120864868 135.34901733398436 L 173.0 135.3 L 172.9 143.1 L 171.1 150.6 L 167.7 157.6 L 162.9 164.0 L 156.7 169.9 L 149.2 175.2 L 140.5 180.1 L 130.5 184.7 L 119.3 188.8 L 106.8 192.7 L 103.1 179.2 L 114.8 175.6 L 125.2 171.7 L 134.2 167.6 L 141.7 163.4 L 147.8 159.0 L 152.5 154.6 L 155.8 150.2 L 157.9 145.8 L 159.0 141.3 L 159.0395990371704 139.43884716033935 L 157.6 135.3 L 155.7 131.3 L 153.3 127.8 L 150.7 124.7 L 147.6 122.1 L 144.0 119.9 L 140.0 118.1 L 135.4 116.6 L 132.39339427948 116.01046943664551 L 127.1 124.4 L 119.7 132.6 L 110.4 141.0 L 99.9620569229126 148.75917892456056 L 101.20193338394165 153.93748655319214 L 102.0 152.9 L 104.2 150.3 L 106.6 147.6 L 109.2 144.9 L 112.0 142.0 L 121.9 151.9 L 119.3 154.5 L 116.9 157.1 L 114.8 159.5 L 112.8 161.8 L 111.1 164.0 L 109.6 166.0 L 108.3 167.9 L 107.3 169.6 L 106.4 171.2 L 105.8 172.6 L 93.5638298034668 167.70553188323976 L 93.2 168.1 L 88.5 160.5 L 87.59676017761231 156.92467565536498 L 85.8 158.1 L 70.5 167.0 L 53.1 176.2 L 52.767477893829344 175.54023389816285 L 52.7 175.6 L 49.4 171.9 L 46.3 168.3 L 43.3 165.0 L 40.5 161.8 L 37.8 158.7 L 35.4 155.9 L 33.1 153.2 L 30.9 150.7 L 29.0 148.3 L 27.632873249053954 146.70501880645753 L 27.1 146.6 L 27.238216590881347 146.24458599090576 L 27.2 146.2 L 27.28175621032715 146.1326268196106 L 29.2 141.2 L 32.8 136.2 L 38.0 131.2 L 44.8 126.2 L 53.3 121.3 L 63.8 116.4 L 76.3 111.7 L 83.80631027221679 109.48923740386962 L 84.28448371887207 93.5182430267334 L 75.7 93.6 L 66.0 92.4 L 57.3 89.9 L 49.7 85.8 L 43.8 79.8 L 55.2 71.7 L 58.0 74.5 L 62.5 76.9 L 68.7 78.7 L 76.4 79.6 L 85.07011489868164 79.6 L 85.3 75.6 L 86.8 58.1 L 88.7 41.0 L 90.50957746505738 27.757183074951172 L 90.3 27.6 L 89.6 27.1 L 88.4 26.6 L 86.9 26.0 L 84.8 25.6 L 82.4 25.2 L 79.6 25.0 L 80.3 11.0 Z M 80.7 125.0 L 69.2 129.3 L 59.8 133.7 L 52.4 138.0 L 47.0 142.0 L 44.15498857498169 144.61433486938478 L 46.0 146.7 L 48.4 149.6 L 51.0 152.5 L 53.8 155.7 L 56.33884954452515 158.67658224105836 L 63.7 154.8 L 78.5 146.2 L 84.94974861145019 141.9513560295105 L 84.6 139.2 L 83.9 125.3 L 83.89195346832275 124.04474382400512 Z M 110.5 117.2 L 97.86802005767822 120.10300159454346 L 97.9 124.9 L 98.3085168838501 132.54510173797607 L 101.6 130.1 L 109.9 122.7 L 115.51894931793213 116.33185739517212 Z M 64.3 38.1 L 63.7 40.1 L 63.4 41.9 L 63.4 43.3 L 63.6 44.6 L 63.9 45.6 L 64.3043478012085 46.408695697784424 L 65.4 45.8 L 69.4 43.4 L 71.6 42.1 L 73.8 40.6 L 76.1 39.1 L 83.8 50.8 L 81.4 52.4 L 79.1 53.9 L 76.8 55.3 L 74.6 56.7 L 72.4 57.9 L 70.4 59.1 L 68.3 60.2 L 66.4 61.2 L 64.5 62.1 L 62.711799716949464 62.89475564956665 L 62.6 63.1 L 59.6 61.3 L 56.8 59.1 L 54.4 56.6 L 52.4 53.8 L 50.9 50.8 L 49.9 47.5 L 49.4 44.1 L 49.5 40.6 L 50.0 37.1 L 51.0 33.7 Z " />
</g>
</svg>
