<svg xmlns="http://www.w3.org/2000/svg" xmlns:xlink="http://www.w3.org/1999/xlink" version="1.1" baseProfile="full" viewBox="0 0 200 200" width="200" height="200">
<g fill="black">
<path d="M 160.0 43.0 L 107.0 43.0 L 107.0 90.0 L 177.0 90.0 L 177.0 104.0 L 107.0 104.0 L 107.0 169.0 L 106.51553401947021 169.0 L 97.2 179.1 L 95.2 177.3 L 92.7 175.4 L 89.9 173.4 L 86.6 171.3 L 83.1 169.1 L 79.1 166.7 L 74.8 164.4 L 70.2 161.9 L 65.2 159.3 L 59.8 156.7 L 65.9 144.1 L 71.4 146.8 L 76.6 149.5 L 81.5 152.1 L 86.1 154.6 L 90.3 157.1 L 93.0 158.7615385055542 L 93.0 104.0 L 23.0 104.0 L 23.0 90.0 L 93.0 90.0 L 93.0 43.0 L 40.0 43.0 L 40.0 29.0 L 160.0 29.0 Z " />
</g>
</svg>
