<svg xmlns="http://www.w3.org/2000/svg" xmlns:xlink="http://www.w3.org/1999/xlink" version="1.1" baseProfile="full" viewBox="0 0 200 200" width="200" height="200">
<g fill="black">
<path d="M 85.8 111.3 L 88.5 104.1 L 92.7 97.6 L 98.4 91.8 L 105.5 86.6 L 113.7 82.0 L 123.3 77.9 L 130.37142858505248 75.54285717010498 L 133.2 66.2 L 134.76968212127684 59.51431674957276 L 131.2 61.2 L 127.4 62.9 L 123.2 64.9 L 118.8 66.9 L 114.1 69.1 L 109.1 71.4 L 103.8 73.9 L 97.9 61.2 L 99.12046909332275 60.6243070602417 L 102.0 57.2 L 105.3 52.9 L 108.1 48.6 L 110.6 44.3 L 112.8 40.1 L 114.5 35.9 L 115.9 31.8 L 116.9 27.7 L 117.6 23.7 L 118.0 19.6 L 131.9 20.3 L 131.5 25.4 L 130.6 30.6 L 129.3 35.8 L 127.6 40.9 L 125.5 45.9 L 123.82436971664428 49.18681316375732 L 125.4 48.5 L 128.9 46.8 L 132.2 45.3 L 135.3 43.9 L 138.0 42.6 L 138.14989032745362 42.922645282745364 L 151.9 45.0 L 149.6 57.6 L 146.7 69.8 L 146.31846103668212 71.07543029785157 L 159.7 68.3 L 162.2 82.0 L 161.706644821167 82.10488653182983 L 161.2 85.0 L 160.6 89.1 L 159.9 93.2 L 159.1 97.2 L 158.4 101.3 L 157.6 105.4 L 156.7 109.4 L 155.9 113.5 L 155.52266006469728 115.0093596458435 L 157.7 114.8 L 162.6 115.0 L 167.2 115.9 L 171.5 117.7 L 175.2 120.6 L 178.1 124.3 L 180.0 128.6 L 180.74586477279664 132.41219778060912 L 180.9 132.4 L 180.87119998931885 133.05279998779298 L 180.9 133.2 L 180.86453704833986 133.20382690429688 L 180.6 139.2 L 178.5 145.6 L 174.8 151.6 L 169.9 156.9 L 163.7 161.9 L 156.3 166.4 L 147.8 170.8 L 138.0 174.8 L 127.0 178.7 L 114.8 182.4 L 111.0 168.9 L 122.7 165.4 L 133.0 161.8 L 142.0 158.0 L 149.5 154.2 L 155.7 150.4 L 160.4 146.6 L 163.7 143.0 L 165.8 139.7 L 166.8 136.6 L 166.94146337509156 134.40731706619263 L 166.6 132.7 L 166.0 131.4 L 165.4 130.5 L 164.6 129.9 L 163.2 129.3 L 161.1 128.9 L 158.1 128.8 L 154.4 129.2 L 150.0 130.0 L 144.9 131.4 L 141.06619453430176 118.55675163269044 L 140.4 118.4 L 141.3 114.4 L 142.2 110.5 L 143.0 106.5 L 143.9 102.6 L 144.6 98.6 L 145.4 94.7 L 146.1 90.7 L 146.8 86.8 L 147.02278480529785 85.35189876556396 L 141.22672367095947 86.8771780014038 L 139.2 92.4 L 134.9 102.3 L 130.2 111.0 L 125.3 118.3 L 120.1 124.2 L 114.0 128.5 L 111.87719297409058 128.91897506713866 L 111.9 129.0 L 108.3 129.9 L 104.9 130.5 L 101.7 130.9 L 98.6 130.9 L 95.6 130.5 L 92.6 129.5 L 89.7 127.8 L 87.4 125.2 L 85.9 122.2 L 85.3 119.0 L 85.0 119.0 Z M 68.1 85.2 L 72.6 91.7 L 71.99887008666992 91.90338983535767 L 69.7 98.8 L 67.8 106.3 L 66.4 113.7 L 65.6 121.0 L 65.4 128.2 L 65.7 135.3 L 65.84413480758667 136.57919635772706 L 66.2 135.7 L 68.1 131.4 L 70.2 127.1 L 72.5 122.8 L 74.9 118.5 L 87.0 125.4 L 84.8 129.4 L 82.7 133.4 L 80.8 137.3 L 79.1 141.2 L 77.5 145.0 L 76.1 148.8 L 74.8 152.5 L 73.7 156.2 L 72.8 159.8 L 72.15473022460938 162.62305536270142 L 72.4 163.3 L 59.5 168.6 L 56.6 160.7 L 54.3 152.7 L 52.7 144.6 L 51.7 136.4 L 51.4 128.2 L 51.6 119.9 L 52.6 111.6 L 54.1 103.3 L 55.61498708724976 97.51550388336182 L 54.0 98.0 L 48.7 99.8 L 42.7 101.6 L 36.0 102.6 L 28.6 101.9 L 21.3 98.2 L 15.4 91.4 L 27.5 84.2 L 29.9 87.2 L 32.2 88.4 L 35.3 88.6 L 39.4 88.0 L 44.3 86.5 L 49.5 84.8 L 55.0 83.2 L 61.1 82.6 Z M 99.12153224945068 117.90620965957642 L 99.2 117.9 L 99.2 117.8 L 99.14545450210571 117.69090909957886 Z M 119.9 94.6 L 113.0 98.4 L 107.6 102.4 L 103.6 106.4 L 101.0 110.4 L 99.5 114.5 L 99.23424654006958 116.89178085327148 L 99.3 116.9 L 100.8 116.9 L 102.8 116.7 L 105.2 116.2 L 108.1 115.5 L 108.15297727584839 115.68820886611938 L 110.6 113.9 L 114.2 109.9 L 118.2 103.8 L 122.3 96.2 L 123.70929775238037 92.94777450561523 Z M 67.9 21.5 L 69.1 24.4 L 70.4 27.0 L 72.0 29.3 L 73.7 31.3 L 75.7 33.1 L 78.0 34.6 L 80.5 36.0 L 83.4 37.2 L 86.6 38.2 L 83.3 51.7 L 78.8 50.4 L 74.6 48.7 L 70.6 46.6 L 67.0 44.0 L 63.8 41.1 L 60.9 37.8 L 58.4 34.2 L 56.3 30.3 L 54.7 26.0 L 53.4 21.5 L 67.0 18.3 Z " />
</g>
</svg>
