<svg xmlns="http://www.w3.org/2000/svg" xmlns:xlink="http://www.w3.org/1999/xlink" version="1.1" baseProfile="full" viewBox="0 0 200 200" width="200" height="200">
<g fill="black">
<path d="M 62.8 26.6 L 63.9 28.6 L 65.1 30.5 L 66.4 32.2 L 67.8 33.8 L 69.3 35.2 L 70.9 36.4 L 72.6 37.6 L 72.89482755661011 37.755172443389895 L 75.0 37.3 L 79.1 36.5 L 83.6 35.6 L 88.5 34.7 L 93.9 33.8 L 99.8 32.9 L 106.1 32.0 L 112.8 31.0 L 120.0 30.0 L 120.13189496994019 30.964915561676026 L 121.1 29.9 L 131.4 39.4 L 128.6 42.6 L 124.4 47.3 L 118.9 53.5 L 112.2 61.4 L 104.1 70.7 L 94.7 81.6 L 84.0 94.0 L 77.31196660995484 101.86827459335328 L 82.1 99.5 L 92.1 94.9 L 102.9 90.4 L 111.11760606765748 87.14129419326783 L 111.1 87.1 L 113.61525421142578 86.15084743499756 L 114.5 85.8 L 114.50570344924927 85.81482887268066 L 116.4 85.1 L 121.3 83.6 L 126.1 82.7 L 130.6 82.3 L 135.0 82.7 L 139.1 84.0 L 142.9 86.2 L 146.1 89.3 L 148.3 93.1 L 149.6 97.0 L 150.0 97.0 L 149.3 102.3 L 147.6 107.7 L 145.4 113.4 L 142.6 119.5 L 139.6 125.8 L 133.4 138.4 L 130.7 144.5 L 128.3 150.1 L 126.7 154.9 L 126.65768804550171 154.88777656555175 L 126.0 157.1 L 125.8 159.5 L 126.1 160.7 L 126.7 161.5 L 128.3 162.6 L 131.8 163.7 L 137.2 164.4 L 144.6 164.4 L 153.7 163.7 L 164.8 162.0 L 167.1 175.9 L 155.3 177.6 L 145.1 178.4 L 136.4 178.3 L 128.9 177.4 L 122.5 175.3 L 117.1 171.7 L 113.3 166.5 L 111.8 160.5 L 112.3 154.4 L 113.29516620635987 151.02749242782593 L 113.2 151.0 L 113.85820894241333 149.11940298080444 L 114.1 148.3 L 114.13956708908081 148.315522480011 L 115.3 145.0 L 117.9 138.8 L 120.8 132.4 L 127.0 119.6 L 130.0 113.5 L 132.5 107.9 L 134.4 103.0 L 135.6 99.1 L 135.62474222183226 98.97010307312011 L 135.6 98.9 L 135.0 97.9 L 134.4 97.3 L 133.6 96.8 L 132.4 96.5 L 130.5 96.3 L 128.0 96.5 L 124.8 97.2 L 121.0 98.3 L 116.6 100.0 L 116.58355035781861 99.96141805648804 L 108.2 103.3 L 97.8 107.7 L 88.1 112.2 L 79.2 116.5 L 71.2 120.9 L 63.9 125.2 L 57.5 129.4 L 51.9 133.6 L 47.1 137.7 L 43.1 141.7 L 32.8 132.2 L 33.6 131.4 L 48.2 114.4 L 61.4 98.9 L 73.4 84.9 L 84.1 72.5 L 93.5 61.6 L 101.6 52.2 L 107.02887392044067 45.97276229858399 L 101.9 46.8 L 96.1 47.7 L 90.9 48.5 L 86.1 49.4 L 81.8 50.2 L 77.9 51.0 L 74.6 51.7 L 71.7 52.5 L 71.57857875823974 52.041297626495364 L 71.4 52.5 L 68.4 51.2 L 65.5 49.6 L 62.7 47.8 L 60.2 45.8 L 57.8 43.6 L 55.6 41.1 L 53.6 38.5 L 51.8 35.7 L 50.2 32.6 L 48.8 29.5 L 61.8 24.3 Z " />
</g>
</svg>
