<svg xmlns="http://www.w3.org/2000/svg" xmlns:xlink="http://www.w3.org/1999/xlink" version="1.1" baseProfile="full" viewBox="0 0 200 200" width="200" height="200">
<g fill="black">
<path d="M 91.8 53.1 L 89.8 56.1 L 89.2 58.2 L 89.3 59.5 L 89.9 60.7 L 91.4 62.2 L 94.1 63.6 L 98.0 64.8 L 102.9 65.4 L 108.8 65.2 L 113.19411764144897 64.46764707565308 L 113.6 64.3 L 113.63337278366089 64.39443788528442 L 115.4 64.1 L 118.5 77.8 L 117.1978723526001 78.01702127456664 L 114.6 79.0 L 110.7 80.9 L 106.4 83.3 L 101.8 86.1 L 96.9 89.5 L 91.8 93.3 L 86.4 97.6 L 80.7 102.4 L 74.7 107.6 L 71.92809495925903 110.19307250976563 L 73.1 110.5 L 80.8 110.9 L 91.7 110.1 L 105.7 107.7 L 110.20126523971558 106.61440076828003 L 110.7 104.9 L 113.3 100.3 L 117.6 96.9 L 122.6 95.8 L 126.5 96.3 L 129.7 97.0 L 132.6 97.7 L 135.5 98.1 L 138.6 98.1 L 142.02338304519654 97.51313428878784 L 142.7 97.3 L 147.2 110.6 L 126.4 117.1 L 124.29877367019654 117.61650257110595 L 124.2 127.0 L 123.5 136.2 L 122.3 145.0 L 120.5 153.4 L 118.2 161.4 L 115.4 169.0 L 111.9 176.2 L 108.0 182.9 L 103.5 189.3 L 92.4 180.6 L 96.2 175.3 L 99.6 169.6 L 102.5 163.5 L 104.9 157.0 L 106.9 150.0 L 108.5 142.6 L 109.6 134.7 L 110.2 126.4 L 110.26059970855712 121.06722688674927 L 108.5 121.5 L 93.4 124.0 L 81.0 124.9 L 71.1 124.3 L 63.2 122.2 L 57.0 117.3 L 55.4 108.7 L 59.4 102.0 L 63.139175224304196 99.22577323913575 L 65.3 97.2 L 71.5 91.8 L 77.5 86.8 L 83.3 82.2 L 88.8 78.1 L 90.27771854400635 77.06838521957397 L 88.7 76.6 L 83.1 73.4 L 78.6 69.0 L 75.8 63.2 L 75.3 56.7 L 77.1 50.3 L 80.9 44.3 Z M 103.6 14.7 L 105.5 18.2 L 107.5 21.3 L 109.6 24.2 L 111.7 26.7 L 114.0 29.0 L 116.3 31.0 L 118.7 32.8 L 121.2 34.3 L 123.8 35.5 L 118.1 48.4 L 114.5 46.5 L 110.9 44.4 L 107.6 42.0 L 104.4 39.2 L 101.4 36.1 L 98.6 32.8 L 95.9 29.2 L 93.4 25.3 L 91.1 21.2 L 89.0 16.8 L 101.7 11.0 Z " />
</g>
</svg>
