<svg xmlns="http://www.w3.org/2000/svg" xmlns:xlink="http://www.w3.org/1999/xlink" version="1.1" baseProfile="full" viewBox="0 0 200 200" width="200" height="200">
<g fill="black">
<path d="M 96.9 17.3 L 95.4 29.0 L 92.3 40.1 L 91.39161491394043 42.239751529693606 L 94.9 41.7 L 101.5 40.0 L 108.1 37.7 L 114.8 34.7 L 121.1 47.2 L 113.4 50.7 L 105.6 53.4 L 97.7 55.4 L 89.9 56.6 L 84.15695323944092 56.96348400115967 L 82.1 60.5 L 75.3 69.5 L 67.6 77.5 L 67.42914571762086 77.64271354675293 L 70.0 77.0 L 79.5 74.4 L 89.3 71.5 L 99.4 68.3 L 109.8 64.7 L 120.6 60.7 L 125.47597589492798 73.8352819442749 L 125.7 73.9 L 124.0 78.0 L 121.6 82.0 L 118.6 85.8 L 114.8 89.7 L 110.4 93.7 L 105.4 97.7 L 99.7 101.9 L 93.3 106.3 L 91.25244579315185 107.59774560928345 L 94.8 109.7 L 99.6 113.8 L 100.46301374435424 114.80684928894043 L 103.8 112.9 L 122.3 103.8 L 143.8 94.3 L 168.4 84.4 L 173.5 97.5 L 149.2 107.2 L 128.2 116.5 L 110.4 125.3 L 108.29768991470337 126.49514884948731 L 110.3 130.7 L 112.7 137.8 L 114.6 145.6 L 100.9 148.4 L 99.3 141.7 L 97.3 135.9 L 96.13185482025146 133.41134281158446 L 95.8 133.6 L 84.6 141.3 L 76.7 148.3 L 72.1 154.2 L 70.6 158.5 L 70.9 161.7 L 72.33238430023194 163.8199288368225 L 73.6 164.6 L 77.2 166.1 L 81.8 167.3 L 87.4 168.3 L 94.1 168.9 L 101.6 169.1 L 110.1 168.9 L 119.5 168.4 L 129.8 167.4 L 141.0 166.0 L 142.9 179.9 L 131.3 181.3 L 120.6 182.3 L 110.7 182.9 L 101.6 183.1 L 93.2 182.8 L 85.7 182.2 L 78.8 181.0 L 72.7 179.3 L 67.3 177.1 L 63.495305156707765 174.7220657348633 L 63.2 175.0 L 62.70298509597778 174.2268656730652 L 62.5 174.1 L 62.566011905670166 174.01379623413087 L 57.8 166.6 L 56.7 156.8 L 59.9 147.4 L 66.5 138.7 L 76.0 130.2 L 87.86230087280273 122.06858406066894 L 86.7 121.1 L 83.4 119.2 L 79.8 117.9 L 75.8 117.1 L 71.2 116.9 L 70.7 103.0 L 71.9057692527771 103.0365385055542 L 78.8 98.9 L 85.6 94.6 L 91.6 90.5 L 96.9 86.6 L 101.4 83.0 L 102.60842847824097 81.88955221176147 L 93.4 84.9 L 83.3 87.9 L 73.5 90.6 L 63.9 92.9 L 54.7 94.9 L 45.7 96.6 L 37.0 97.9 L 28.6 98.9 L 27.342395877838136 85.45330963134765 L 27.2 84.9 L 35.2 82.2 L 43.1 78.3 L 50.8 73.3 L 58.0 67.3 L 64.6 60.4 L 68.02425231933594 55.854009819030765 L 66.2 55.6 L 58.3 53.7 L 50.5 51.1 L 42.8 47.7 L 48.9 35.1 L 55.6 38.0 L 62.2 40.3 L 68.8 41.8 L 75.4 42.8 L 75.93702430725098 42.8247857093811 L 79.1 35.5 L 81.7 26.2 L 83.0 16.6 Z " />
</g>
</svg>
