<svg xmlns="http://www.w3.org/2000/svg" xmlns:xlink="http://www.w3.org/1999/xlink" version="1.1" baseProfile="full" viewBox="0 0 200 200" width="200" height="200">
<g fill="black">
<path d="M 131.2 56.3 L 137.5 57.1 L 143.7 58.5 L 149.5 60.5 L 154.9 63.2 L 159.6 66.6 L 163.6 70.8 L 163.285480594635 71.03101863861085 L 161.1 75.7 L 157.7 79.8 L 153.4 83.2 L 148.3 86.3 L 142.4 89.1 L 135.6 91.7 L 127.9 94.2 L 119.3 96.5 L 109.7 98.7 L 107.98999996185303 99.0420000076294 L 107.9 99.6 L 107.5 103.5 L 107.2 108.1 L 106.9 113.4 L 106.8 119.3 L 106.7 125.8 L 106.71704616546631 127.02732219696045 L 116.0 127.7 L 130.4 130.9 L 145.0 136.7 L 138.9 149.2 L 126.4 144.3 L 114.0 141.6 L 107.0 141.07058820724487 L 107.0 144.2 L 107.1 150.0 L 107.2 155.3 L 107.2 160.4 L 107.1 165.1 L 106.7 169.6 L 105.9 173.8 L 104.7 178.0 L 102.8 181.9 L 100.2 185.6 L 93.025 179.2449999809265 L 91.6 178.2 L 89.7 176.8 L 87.2 174.9 L 84.1 172.7 L 80.5 170.1 L 76.4 167.0 L 71.7 163.6 L 66.5 159.8 L 65.43465127944947 159.0150062561035 L 65.4 159.1 L 58.0 153.6 L 56.7 143.8 L 61.8 137.1 L 69.1 132.7 L 78.4 129.5 L 89.6 127.4 L 92.71954374313354 127.22669200897217 L 92.7 125.8 L 92.8 119.0 L 92.9 112.9 L 93.2 107.3 L 93.6 102.3 L 94.1 97.8 L 94.7 93.9 L 95.4 90.5 L 96.5 87.4 L 96.7745517730713 87.50854368209839 L 96.7 87.1 L 106.8 85.1 L 115.9 83.0 L 123.9 80.8 L 130.9 78.5 L 136.9 76.3 L 141.7 74.0 L 143.11386013031006 73.12111396789551 L 139.9 72.0 L 135.1 70.9 L 130.0 70.3 L 124.8 70.1 L 119.6 70.3 L 116.59536123275757 70.78074216842651 L 116.6 70.8 L 106.9 73.2 L 97.9 75.6 L 89.7 78.1 L 82.2 80.7 L 75.5 83.2 L 69.6 85.9 L 64.4 88.5 L 60.0 91.1 L 56.4 93.7 L 53.836848163604735 95.98852834701538 L 54.0 96.3 L 41.9 103.6 L 39.9 99.6 L 38.6 95.5 L 37.9 91.2 L 37.8 86.8 L 38.4 82.4 L 39.7 78.1 L 41.5 73.8 L 43.8 69.6 L 46.6 65.4 L 50.0 61.2 L 60.6 70.2 L 57.9 73.7 L 55.7 76.9 L 55.30074214935303 77.64860849380493 L 57.7 76.2 L 63.6 73.2 L 70.2 70.3 L 77.5 67.5 L 85.4 64.8 L 94.0 62.2 L 103.3 59.6 L 105.7 59.0 L 111.8 57.4 L 112.6 57.275 L 113.3 57.1 L 113.31523408889771 57.16324462890625 L 118.2 56.4 L 124.7 56.1 Z M 91.3 141.3 L 82.0 143.0 L 74.9 145.5 L 72.5683380126953 146.85561742782593 L 74.8 148.5 L 80.0 152.3 L 84.7 155.7 L 88.8 158.8 L 92.4 161.4 L 93.15658416748047 161.98004789352416 L 93.2 160.2 L 93.2 155.5 L 93.1 150.2 L 93.0 144.4 L 93.0 141.2055555343628 Z M 121.0 19.7 L 118.5 24.6 L 115.5 29.3 L 112.1 33.8 L 108.2 37.9 L 103.8 41.8 L 99.0 45.5 L 93.7 48.9 L 88.0 52.0 L 81.9 54.9 L 75.4 57.5 L 70.5 44.4 L 76.3 42.0 L 81.7 39.5 L 86.6 36.8 L 91.0 34.0 L 94.9 31.0 L 98.4 27.9 L 101.5 24.7 L 104.1 21.3 L 106.3 17.8 L 108.1 14.1 Z " />
</g>
</svg>
