<svg xmlns="http://www.w3.org/2000/svg" xmlns:xlink="http://www.w3.org/1999/xlink" version="1.1" baseProfile="full" viewBox="0 0 200 200" width="200" height="200">
<g fill="black">
<path d="M 131.3 16.2 L 136.6 22.7 L 139.8 30.5 L 141.7 39.2 L 142.06743297576904 42.13946361541748 L 146.6 42.0 L 152.5 41.9 L 157.9 42.1 L 162.8 42.5 L 167.1 43.0 L 164.8 56.9 L 164.67037038803102 56.88148145675659 L 164.7 57.0 L 162.8 57.5 L 160.8 58.2 L 158.6 59.0 L 156.4 59.9 L 154.0 61.0 L 151.6 62.3 L 149.0 63.7 L 146.4 65.2 L 143.84816465377807 66.80671119689941 L 143.9 68.5 L 144.0 77.8 L 144.0 86.0 L 143.77299270629882 86.0 L 143.3 96.8 L 142.5335552215576 105.78830661773682 L 145.4 105.6 L 159.8 104.1 L 174.9 102.0 L 177.0 115.9 L 161.5 118.0 L 146.6 119.5 L 140.94612789154053 119.89815998077393 L 140.7 121.9 L 138.7 133.3 L 136.2 144.0 L 133.3 153.9 L 129.8 163.1 L 125.9 171.6 L 121.4 179.3 L 116.4 186.3 L 105.5 177.6 L 109.6 171.8 L 113.5 165.2 L 116.9 157.7 L 120.0 149.5 L 122.7 140.4 L 125.0 130.5 L 126.64585247039795 120.71632137298585 L 119.1 121.0 L 106.8 121.2 L 95.6 121.1 L 85.5 120.7 L 76.6 120.2 L 72.50666198730468 119.8681077003479 L 72.4 122.3 L 72.4 132.8 L 72.8 142.6 L 73.7 152.0 L 75.0 161.2 L 76.8 170.5 L 63.1 173.4 L 61.2 163.6 L 59.8 153.7 L 58.8 143.5 L 58.4 133.0 L 58.4 121.9 L 58.551260471343994 118.9 L 57.0 118.9 L 47.6 118.3 L 39.7 117.0 L 33.2 114.9 L 27.7 111.4 L 24.1 105.4 L 24.2 98.4 L 27.2 92.6 L 31.7 87.4 L 37.8 82.1 L 46.5 93.1 L 41.5 97.4 L 38.6 100.7 L 38.06605501174927 101.70856266021728 L 38.8 102.1 L 42.8 103.3 L 49.1 104.3 L 57.5 104.9 L 59.39699859619141 104.91841745376587 L 60.0 97.2 L 61.5 83.2 L 63.4 67.8 L 64.461252784729 60.62593145370484 L 58.7 60.4 L 53.4 60.0 L 53.41559181213379 59.801559162139895 L 51.4 59.6 L 48.5 59.0 L 45.7 58.2 L 42.8 57.1 L 40.1 55.9 L 37.3 54.5 L 34.7 52.8 L 32.1 51.0 L 29.5 49.0 L 27.0 46.8 L 36.4 36.5 L 38.4 38.2 L 40.4 39.8 L 42.3 41.1 L 44.3 42.3 L 46.2 43.3 L 48.1 44.2 L 50.0 44.8 L 51.8 45.4 L 53.7 45.7 L 55.5 46.0 L 55.49370889663696 46.079496669769284 L 59.5 46.4 L 64.5 46.6 L 66.85367650985718 46.69806985855102 L 67.6 42.5 L 68.3 38.4 L 69.1 34.6 L 69.8 31.2 L 70.4 28.2 L 71.1 25.5 L 71.7 23.1 L 72.4 21.0 L 73.1 19.1 L 86.0 24.6 L 85.6 25.6 L 85.2 27.0 L 84.6 29.0 L 84.1 31.3 L 83.4 34.1 L 82.8 37.3 L 82.1 40.9 L 81.4 44.9 L 81.02758617401123 46.948275852203366 L 83.2 46.9 L 87.6 46.8 L 92.0 46.6 L 96.2 46.3 L 99.12276525497437 46.08613910675049 L 99.1 45.9 L 108.5 44.8 L 117.3 43.9 L 125.5 43.1 L 128.08291606903077 42.93007135391235 L 127.9 41.5 L 126.3 34.4 L 124.4 29.4 L 122.7 27.3 L 122.2 27.1 L 120.0 27.8 L 113.7 15.2 L 122.8 13.1 Z M 126.6 57.1 L 118.6 57.8 L 110.0 58.7 L 101.58190393447876 59.70651149749756 L 101.6 59.9 L 97.2 60.3 L 92.7 60.6 L 88.2 60.8 L 83.5 60.9 L 78.7 61.0 L 78.55073719024658 60.99695377349853 L 77.3 69.7 L 75.4 84.8 L 73.9 98.5 L 73.30309648513794 105.90160388946533 L 77.6 106.2 L 86.1 106.7 L 95.9 107.1 L 106.8 107.2 L 118.8 107.0 L 128.4349555015564 106.62655210494995 L 129.3 95.9 L 129.9 82.7 L 130.0 82.70285711288452 L 130.0 77.8 L 129.9 68.8 L 129.6 59.3 L 129.44149618148805 56.8696084022522 Z " />
</g>
</svg>
