<svg xmlns="http://www.w3.org/2000/svg" xmlns:xlink="http://www.w3.org/1999/xlink" version="1.1" baseProfile="full" viewBox="0 0 200 200" width="200" height="200">
<g fill="black">
<path d="M 85.3 17.1 L 89.6 20.5 L 92.4 25.6 L 92.9 31.3 L 91.7 36.6 L 91.52263040542603 37.00100955963135 L 98.1 36.1 L 105.7 34.7 L 113.6 32.7 L 121.8 30.3 L 126.1 43.6 L 117.3 46.2 L 108.7 48.4 L 100.3 50.0 L 92.1 51.0 L 84.2 51.5 L 83.86000003814698 51.5 L 82.58877000808715 53.618716621398924 L 83.4 53.5 L 87.9 53.0 L 92.7 52.5 L 98.0 52.2 L 100.80432004928589 52.10160284042358 L 100.8 51.9 L 112.1 52.2 L 121.9 53.7 L 130.4 56.3 L 137.6 60.5 L 143.0 66.3 L 146.3 73.7 L 147.1 81.8 L 145.8 90.4 L 142.8 99.5 L 138.1 109.3 L 137.47997274398804 108.9622615814209 L 138.2 109.6 L 127.1 119.6 L 115.0 126.5 L 102.5 130.5 L 97.0922921180725 131.06693716049193 L 95.5 132.5 L 88.5 138.2 L 80.3 144.4 L 75.01648683547974 148.2477758407593 L 76.2 148.5 L 81.9 150.9 L 87.2 154.2 L 92.1 158.4 L 96.5 163.5 L 97.59927539825439 165.05507249832152 L 98.4 163.7 L 101.6 159.4 L 105.3 155.3 L 109.6 151.3 L 114.4 147.5 L 119.8 143.9 L 125.6 140.4 L 125.9584415435791 141.02857141494752 L 125.6 140.0 L 131.4 138.6 L 137.3 138.5 L 143.2 139.7 L 148.7 142.1 L 154.0 145.6 L 158.9 150.0 L 163.7 155.3 L 168.3 161.6 L 172.8 168.7 L 177.2 176.8 L 164.7 183.1 L 160.7 175.8 L 156.7 169.4 L 152.8 164.1 L 149.0 159.9 L 145.4 156.7 L 142.0 154.4 L 138.9 153.1 L 136.0 152.5 L 133.2 152.5 L 132.072483253479 152.76308727264404 L 127.3 155.7 L 122.7 158.8 L 118.7 162.0 L 115.2 165.2 L 112.4 168.3 L 110.1 171.4 L 108.3 174.4 L 107.1 177.4 L 106.3 180.3 L 105.9 183.3 L 92.0 182.6 L 92.08498344421386 181.90596828460693 L 91.7 182.1 L 88.7 176.6 L 85.5 172.1 L 82.2 168.4 L 78.9 165.5 L 75.5 163.3 L 71.9 161.9 L 68.2 161.0 L 64.2 160.8 L 59.7 161.2 L 55.481818199157715 162.2545454978943 L 52.8 164.4 L 49.2 167.5 L 46.1 170.4 L 43.5 173.1 L 41.3 175.6 L 39.5 177.9 L 38.3 179.9 L 37.4 181.6 L 24.5 176.3 L 26.1 173.1 L 28.0 169.9 L 30.4 166.7 L 33.2 163.6 L 36.4 160.3 L 39.9 157.0 L 43.9 153.6 L 48.2 150.1 L 52.9 146.5 L 58.1 142.8 L 58.19278564453125 142.93173274993896 L 63.0 139.6 L 72.0 133.2 L 76.43793106079102 129.78620691299437 L 68.1 126.9 L 63.29767446517944 123.53285217285156 L 56.8 125.4 L 48.5 126.7 L 40.8 126.4 L 33.4 123.4 L 29.2 114.8 L 31.78811330795288 106.8507947921753 L 31.4 106.5 L 38.9 100.0 L 47.6 94.9 L 52.9134017944336 92.83056983947753 L 54.0756157875061 90.20295562744141 L 54.1 90.1 L 54.117746353149414 90.10770387649536 L 56.2 85.4 L 62.0 77.8 L 68.9 72.7 L 76.3 70.4 L 83.6 70.8 L 90.0 73.8 L 94.7 79.1 L 97.0 86.0 L 96.71966428756714 89.0436450958252 L 103.3 91.1 L 110.1 95.6 L 114.29166669845581 102.39981479644776 L 114.7 102.3 L 114.9 107.9 L 113.68983592987061 111.26156692504883 L 118.9 108.3 L 126.28091602325439 101.59007635116578 L 129.8 94.2 L 132.2 87.0 L 133.1 81.3 L 132.7 77.1 L 131.4 74.0 L 129.0 71.5 L 124.9 69.2 L 118.9 67.3 L 111.0 66.2 L 104.19978332519531 65.99393281936645 L 104.2 66.0 L 98.7 66.2 L 93.7 66.5 L 89.2 66.9 L 85.2 67.3 L 81.6 67.9 L 78.5 68.4 L 76.0 69.1 L 74.0 69.7 L 72.7 70.3 L 72.0 70.6 L 71.98025407791138 70.57245330810547 L 71.9 70.7 L 60.0 63.2 L 65.6 54.3 L 67.86606693267822 50.75927038192749 L 61.5 49.8 L 54.3 48.1 L 47.4 45.9 L 52.3 32.7 L 58.1 34.6 L 64.1 36.1 L 70.4 37.0 L 75.82625370025634 37.41740417480469 L 76.9 35.5 L 78.5 31.9 L 79.0 29.9 L 79.0 29.722222232818602 L 78.2 29.1 L 75.4 27.9 L 80.3 14.7 Z M 88.7 108.1 L 82.0 114.3 L 79.14504947662354 116.07079210281373 L 81.5 116.9 L 90.2 117.8 L 90.99402980804443 117.71641788482665 L 91.8 117.0 L 96.0 112.7 L 99.0 109.2 L 100.6 106.6 L 100.75109891891479 106.20714282989502 L 100.4 105.7 L 97.5 103.9 L 92.3 102.3 L 92.05400066375732 102.26695528030396 Z M 47.0 111.4 L 45.54901571273804 112.65565948486328 L 47.5 112.7 L 53.32076072692871 111.77606973648071 L 52.643160343170166 108.15090770721436 Z M 69.5 102.5 L 65.69519996643066 103.47440004348755 L 66.3 106.7 L 66.6292781829834 107.16553125381469 L 67.7 106.7 L 73.7 103.0 L 74.94494142532349 101.8439829826355 Z M 75.3 85.1 L 71.9 87.6 L 71.4581109046936 88.20146017074585 L 76.8 87.5 L 83.05281896591187 87.43486642837524 L 82.7 86.2 L 81.7 85.1 L 80.1 84.4 L 78.0 84.3 Z " />
</g>
</svg>
