<svg xmlns="http://www.w3.org/2000/svg" xmlns:xlink="http://www.w3.org/1999/xlink" version="1.1" baseProfile="full" viewBox="0 0 200 200" width="200" height="200">
<g fill="black">
<path d="M 122.9 19.0 L 121.2 30.8 L 119.7 42.6 L 118.5 54.3 L 117.5 65.9 L 116.7 77.4 L 116.1 88.8 L 115.7 100.2 L 115.69981365203857 100.2208740234375 L 117.8 100.1 L 133.8 98.4 L 137.40011529922486 97.9252594947815 L 137.3 97.7 L 136.1 94.7 L 134.7 91.4 L 133.3 87.8 L 131.8 83.9 L 130.1 79.7 L 128.4 75.2 L 126.6 70.4 L 124.7 65.3 L 137.9 60.5 L 139.7 65.5 L 141.5 70.2 L 143.2 74.7 L 144.8 78.8 L 146.3 82.6 L 147.7 86.1 L 149.0 89.3 L 150.2 92.2 L 151.3 94.8 L 151.83140535354613 96.02223224639893 L 152.0 96.0 L 152.0817419052124 96.59800624847412 L 152.3 97.1 L 152.1590093612671 97.16327924728394 L 153.9 109.9 L 135.4 112.3 L 118.9 114.0 L 115.6 114.20482759475708 L 115.6 122.6 L 115.88917446136475 133.2994547843933 L 115.9 133.3 L 115.89225807189942 133.41354837417603 L 115.9 133.7 L 115.87266073226928 133.70097637176514 L 115.6 137.7 L 115.2 141.6 L 114.5 145.1 L 113.5 148.3 L 112.1 151.4 L 109.6 154.2 L 105.6 156.2 L 101.2 156.2 L 97.7 154.8 L 95.46883716583253 153.14728679656983 L 95.4 153.2 L 95.15652170181275 152.91594200134278 L 95.0 152.8 L 95.02917642593384 152.7673725128174 L 93.6 151.1 L 91.2 149.0 L 88.4 147.0 L 85.3 145.4 L 81.8 144.2 L 78.0 143.5 L 73.8 143.5 L 69.3 144.3 L 64.2 146.2 L 60.41687536239624 148.29422969818114 L 53.9 155.0 L 51.2 159.6 L 51.2 160.9 L 52.8 162.5 L 59.0 165.2 L 70.1 167.4 L 85.7 168.7 L 105.5 168.9 L 129.4 168.0 L 157.3 166.0 L 158.6 179.9 L 130.1 182.0 L 105.7 182.9 L 85.1 182.7 L 68.3 181.3 L 55.0 178.6 L 44.9 174.1 L 38.2 166.2 L 37.8 155.8 L 42.8 146.4 L 51.19944267272949 137.80966091156006 L 51.0 137.5 L 58.4 133.4 L 65.6 130.8 L 72.6 129.6 L 79.2 129.5 L 85.3 130.6 L 90.9 132.5 L 95.7 135.1 L 100.0 138.1 L 101.32829580307006 139.28070735931396 L 101.7 136.4 L 101.89342107772828 133.95 L 101.6 122.8 L 101.6 114.94479999542236 L 91.9 115.1 L 81.3 114.4 L 72.5 112.8 L 65.2 110.1 L 59.3 105.4 L 56.2 98.3 L 57.0 90.8 L 57.13268156051636 90.84189939498901 L 58.9 87.7 L 60.8 84.6 L 62.8 81.8 L 65.0 79.2 L 66.12553195953369 78.0255319595337 L 63.0 74.9 L 61.1 70.4 L 60.9 65.7 L 62.0 61.4 L 64.1 57.4 L 66.8 53.4 L 77.9 62.0 L 76.0 64.6 L 75.1 66.5 L 74.93043479919433 67.06521739959717 L 75.6 67.4 L 77.7 68.1 L 81.0 68.6 L 85.2 69.0 L 84.7 82.9 L 84.10179643630981 82.85568866729736 L 83.0 83.2 L 81.4 83.9 L 79.8 84.8 L 78.3 85.8 L 76.8 87.1 L 75.3 88.6 L 73.9 90.4 L 72.4 92.4 L 71.0 94.6 L 70.1 96.4 L 70.2 96.6 L 71.7 97.7 L 76.0 99.3 L 82.9 100.5 L 92.3 101.1 L 101.69018878936768 100.93810014724731 L 101.7 99.8 L 102.1 88.2 L 102.7 76.5 L 103.5 64.8 L 104.6 52.9 L 105.8 41.0 L 107.3 29.0 L 109.0 16.9 Z M 74.7 28.1 L 75.7 29.8 L 76.8 31.2 L 78.0 32.5 L 79.3 33.6 L 80.7 34.6 L 82.3 35.4 L 84.0 36.1 L 85.8 36.6 L 87.9 37.0 L 86.0 50.9 L 82.6 50.3 L 79.4 49.3 L 76.4 48.1 L 73.5 46.6 L 70.8 44.7 L 68.3 42.6 L 66.1 40.2 L 64.1 37.6 L 62.4 34.7 L 60.9 31.6 L 73.8 26.1 Z " />
</g>
</svg>
