<svg xmlns="http://www.w3.org/2000/svg" xmlns:xlink="http://www.w3.org/1999/xlink" version="1.1" baseProfile="full" viewBox="0 0 200 200" width="200" height="200">
<g fill="black">
<path d="M 89.8 18.3 L 92.6 19.4 L 95.3 20.5 L 97.8 21.9 L 100.1 23.4 L 102.2 25.1 L 104.0 27.0 L 105.6 29.2 L 106.9 31.7 L 107.696875 34.28984375 L 107.9 34.3 L 107.5 41.9 L 107.2 50.2 L 107.0796573638916 53.850394344329835 L 109.7 52.7 L 113.6 50.4 L 117.5 47.5 L 126.4 58.4 L 121.3 62.1 L 116.1 65.2 L 110.6 67.6 L 106.6132306098938 68.85897979736328 L 106.6 69.3 L 106.4 80.1 L 106.31267404556274 90.14248237609863 L 110.0 91.0 L 113.8 99.3 L 112.4 107.0 L 108.7 115.8 L 107.15730590820313 118.6239146232605 L 109.2 117.1 L 113.36366233825683 113.97725324630737 L 113.3 113.9 L 114.55 113.0875 L 116.0 112.0 L 116.07310924530029 112.09747896194457 L 121.3 108.7 L 130.0 105.8 L 138.9 105.0 L 147.5 106.6 L 155.5 110.4 L 162.4 116.4 L 167.5 124.5 L 170.6 134.3 L 171.4 145.7 L 169.9049195289612 157.66064405441284 L 170.4 157.8 L 165.7 168.7 L 158.7 176.7 L 150.2 181.6 L 141.1 183.6 L 132.1 183.1 L 123.7 180.4 L 116.4 175.7 L 110.8 169.1 L 107.7 160.7 L 108.2 151.2 L 121.7 154.7 L 121.5 158.5 L 122.8 161.8 L 125.5 165.0 L 129.7 167.7 L 134.7 169.3 L 140.1 169.6 L 145.2 168.5 L 149.9 165.9 L 153.9 161.3 L 156.30554389953613 155.44650993347167 L 156.1 155.4 L 157.4 145.2 L 156.9 136.9 L 154.8 130.4 L 151.7 125.5 L 147.8 122.1 L 143.3 119.9 L 138.2 119.0 L 132.9 119.5 L 127.4 121.3 L 123.6444444656372 123.7555555343628 L 117.6 128.2 L 111.4 132.9 L 106.0 137.14285717010497 L 106.0 146.0 L 94.6 146.0 L 92.1 148.0 L 91.12146339416503 148.83463411331178 L 91.0 149.0 L 90.96204080581666 148.97061223983764 L 88.7 150.9 L 85.8 153.3 L 83.6 155.3 L 81.9 156.9 L 72.0 147.0 L 72.48000001907349 146.54285717010498 L 78.25091867446899 138.29868764877318 L 75.0 134.9 L 71.5 130.2 L 69.0 125.4 L 67.6 120.2 L 67.8 114.9 L 69.6 109.8 L 72.9 105.5 L 77.1 102.1 L 77.2210262298584 102.28389701843261 L 86.0 96.0 L 92.28498792648315 92.43074760437011 L 92.3 91.5 L 92.4 79.8 L 92.64783992767335 70.87776260375976 L 87.0 70.6 L 80.8 69.6 L 74.6 68.0 L 68.3 65.8 L 73.5 52.8 L 78.7 54.7 L 83.6 55.9 L 88.4 56.7 L 92.9 56.9 L 92.96789121627808 56.89537105560303 L 93.2 49.7 L 93.5 41.2 L 93.73870964050293 36.66451616287232 L 93.7 36.6 L 93.3 36.0 L 92.7 35.4 L 91.8 34.7 L 90.7 33.9 L 89.2 33.1 L 87.5 32.4 L 85.4 31.7 L 83.1 31.0 L 86.7 17.4 Z M 37.9 24.4 L 40.8 25.5 L 43.6 26.9 L 46.1 28.5 L 48.4 30.3 L 50.5 32.5 L 52.2 34.9 L 53.5 37.5 L 54.4 40.3 L 54.9 43.3 L 53.73560209274292 43.408900547027585 L 54.5 43.6 L 50.6 60.4 L 47.4 76.5 L 45.0 91.8 L 43.3 106.3 L 42.4 120.0 L 42.2 132.9 L 42.475 139.61000003814698 L 45.4 132.2 L 48.7 123.9 L 52.6 115.1 L 65.3 120.8 L 61.6 129.4 L 58.4 137.3 L 55.6 144.7 L 53.2 151.3 L 51.4 157.4 L 50.0 162.7 L 49.0 167.4 L 48.5 171.3 L 48.4 174.5 L 48.6 176.7 L 48.574741172790525 176.7047936439514 L 48.6 176.8 L 35.3 181.1 L 32.3 170.1 L 30.1 158.5 L 28.8 146.2 L 28.2 133.1 L 28.4 119.4 L 29.4 105.0 L 31.1 89.9 L 33.6 74.0 L 36.9 57.5 L 40.378260898590085 42.45652170181275 L 40.2 42.1 L 39.7 41.4 L 39.0 40.7 L 38.0 39.9 L 36.8 39.1 L 35.2 38.4 L 33.3 37.6 L 31.1 37.0 L 34.7 23.4 Z M 85.0 113.9 L 84.04542207717896 112.65343351364136 L 84.8 113.8 L 82.8 115.4 L 81.9 116.6 L 81.5 117.5 L 81.5 118.5 L 82.0 120.2 L 83.3 122.7 L 85.7 125.8 L 86.27688837051392 126.4108229637146 L 90.8 119.4 L 92.0 117.22222223281861 L 92.0 117.1 L 92.06219110488891 108.89077138900757 Z M 154.4 36.0 L 158.6 37.3 L 162.4 39.0 L 165.9 41.2 L 169.0 43.9 L 171.6 47.1 L 173.5 50.7 L 174.9 54.5 L 175.7 58.7 L 176.0 63.0 L 162.0 63.0 L 161.8 60.3 L 161.4 58.2 L 160.8 56.4 L 159.9 54.9 L 158.9 53.6 L 157.6 52.4 L 155.9 51.4 L 153.7 50.4 L 151.1 49.6 L 148.0 49.0 L 149.9 35.2 Z " />
</g>
</svg>
