<svg xmlns="http://www.w3.org/2000/svg" xmlns:xlink="http://www.w3.org/1999/xlink" version="1.1" baseProfile="full" viewBox="0 0 200 200" width="200" height="200">
<g fill="black">
<path d="M 160.0 43.0 L 107.0 43.0 L 107.0 90.0 L 177.0 90.0 L 177.0 104.0 L 107.0 104.0 L 107.0 169.0 L 106.51553401947021 169.0 L 97.2 179.1 L 95.2 177.4 L 93.0 175.6 L 90.7 173.9 L 88.2 172.2 L 85.6 170.5 L 82.8 168.9 L 79.8 167.3 L 76.8 165.8 L 70.2 162.8 L 75.6 149.9 L 79.3 151.5 L 82.9 153.2 L 86.3 154.9 L 89.6 156.7 L 92.8 158.6 L 93.0 158.72666664123534 L 93.0 104.0 L 23.0 104.0 L 23.0 90.0 L 93.0 90.0 L 93.0 43.0 L 40.0 43.0 L 40.0 29.0 L 160.0 29.0 Z " />
</g>
</svg>
