<svg xmlns="http://www.w3.org/2000/svg" xmlns:xlink="http://www.w3.org/1999/xlink" version="1.1" baseProfile="full" viewBox="0 0 200 200" width="200" height="200">
<g fill="black">
<path d="M 52.3 21.3 L 55.8 22.6 L 59.1 24.2 L 62.2 26.1 L 65.0 28.4 L 67.4 31.0 L 69.4 33.9 L 71.0 37.1 L 72.2 40.4 L 72.9 44.0 L 73.0 44.0 L 72.8 50.4 L 72.3 58.1 L 71.6 67.1 L 70.9 77.7 L 70.55521221160889 84.71068439483642 L 72.9 83.7 L 79.4 80.3 L 86.5 76.5 L 94.1 72.6 L 102.2 68.8 L 110.9 65.5 L 120.0 63.1 L 121.7012809753418 62.90707120895386 L 121.7 62.9 L 131.0 61.8 L 139.6 62.1 L 147.5 63.8 L 154.6 67.1 L 160.7 72.0 L 165.5 78.3 L 169.1 85.7 L 171.4 94.2 L 172.7 103.6 L 172.86000003814698 112.0 L 173.0 112.0 L 172.88604650497436 113.36744184494019 L 172.9 114.1 L 172.82513465881348 114.09838418960571 L 172.3 120.4 L 170.5 128.6 L 167.5 136.5 L 163.3 143.9 L 158.0 151.0 L 151.6 157.6 L 144.2 163.9 L 135.8 169.7 L 126.3 175.2 L 115.8 180.3 L 110.1 167.6 L 119.7 162.8 L 128.3 157.9 L 135.7 152.7 L 142.1 147.4 L 147.4 141.9 L 151.6 136.3 L 154.8 130.5 L 157.1 124.6 L 158.5 118.4 L 158.95826892852784 112.5341576576233 L 158.7 104.7 L 157.7 96.9 L 155.9 90.5 L 153.6 85.5 L 150.7 81.8 L 147.3 79.0 L 143.1 77.1 L 137.9 76.0 L 131.6 75.8 L 124.2 76.7 L 124.18581562042236 76.62170209884644 L 122.7 76.8 L 115.2 78.8 L 107.8 81.6 L 100.4 85.1 L 93.1 88.9 L 86.0 92.7 L 79.0 96.3 L 72.0 99.3 L 70.01047973632812 99.88844966888428 L 69.9 103.7 L 69.9 119.3 L 70.3 136.7 L 71.2 156.0 L 72.9 177.3 L 59.0 178.6 L 57.3 156.9 L 56.3 137.2 L 55.9 119.4 L 55.9 103.4 L 55.95281686782837 101.53820419311523 L 55.0 101.3 L 51.0 99.9 L 47.3 98.1 L 43.6 96.1 L 40.1 93.7 L 36.8 90.9 L 33.7 87.9 L 30.7 84.5 L 27.9 80.9 L 39.2 72.7 L 41.5 75.6 L 43.8 78.2 L 46.2 80.5 L 48.6 82.5 L 51.1 84.2 L 53.6 85.7 L 56.3 86.9 L 56.41428575515747 86.9380952835083 L 56.9 76.9 L 57.6 66.2 L 58.3 57.1 L 58.8 49.7 L 58.94242420196533 45.640909099578856 L 58.6 44.1 L 58.1 42.5 L 57.4 41.0 L 56.5 39.8 L 55.4 38.6 L 54.1 37.5 L 52.4 36.5 L 50.4 35.6 L 48.1 34.7 L 45.4 34.0 L 48.4 20.3 Z " />
</g>
</svg>
