<svg xmlns="http://www.w3.org/2000/svg" xmlns:xlink="http://www.w3.org/1999/xlink" version="1.1" baseProfile="full" viewBox="0 0 200 200" width="200" height="200">
<g fill="black">
<path d="M 143.7 95.0 L 152.8 98.2 L 159.9 102.7 L 164.9 108.9 L 166.7 116.7 L 164.5 124.4 L 159.3 130.7 L 151.8 135.7 L 142.2 139.7 L 130.3 142.8 L 130.2787735939026 142.69229555130005 L 121.2 145.4 L 112.4 149.3 L 106.0 153.4 L 102.0 157.3 L 100.0 160.5 L 99.5 162.6 L 99.7 163.6 L 100.3 164.4 L 102.0 165.4 L 104.479660987854 165.85084743499755 L 104.5 165.8 L 104.8 165.90909090042115 L 105.3 166.0 L 105.29550418853759 166.08927421569825 L 106.7 166.6 L 109.6 167.2 L 113.2 167.6 L 117.3 167.8 L 122.0 167.8 L 127.3 167.5 L 133.1 167.0 L 139.4 166.3 L 146.3 165.3 L 153.7 164.1 L 156.2 177.8 L 148.5 179.1 L 141.3 180.2 L 134.5 181.0 L 128.2 181.5 L 122.4 181.8 L 117.0 181.8 L 112.0 181.5 L 107.4 181.0 L 103.2 180.1 L 99.975 179.025 L 97.2 178.5 L 91.0 174.9 L 86.8 169.2 L 85.5 162.1 L 87.1 155.0 L 91.2 148.4 L 97.4 142.4 L 105.7 137.0 L 116.3 132.3 L 129.3 128.4 L 129.36093683242797 128.65113372802733 L 137.8 126.5 L 145.3 123.3 L 150.1 120.1 L 152.3 117.6 L 152.7 116.2 L 152.4 115.2 L 150.8 113.3 L 146.8 110.9 L 140.2 108.6 L 131.2 107.0 L 132.7 93.1 Z M 115.7 16.8 L 120.9 17.5 L 126.2 18.8 L 131.4 20.7 L 136.4 23.2 L 140.59693880081176 25.99795913696289 L 140.7 25.9 L 140.83559322357178 26.157062149047853 L 141.2 26.4 L 141.06010103225708 26.58269157409668 L 145.5 35.0 L 143.7 44.7 L 137.8 51.9 L 129.8 57.9 L 120.2 63.6 L 109.6 69.5 L 98.5 75.6 L 87.5 82.0 L 77.4 88.8 L 70.93896865844727 94.2092354774475 L 71.0 94.3 L 69.04339618682862 95.79622640609742 L 68.8 96.0 L 68.7902283668518 95.98982534408569 L 65.9 98.2 L 61.4 102.4 L 57.6 106.9 L 54.5 111.8 L 52.2 117.0 L 50.5 122.4 L 50.05590343475342 125.61969995498657 L 51.4 123.8 L 59.1 116.0 L 67.9 109.2 L 77.5 103.5 L 87.8 98.9 L 98.7 95.5 L 109.9 93.3 L 121.3 92.4 L 132.7 93.0 L 131.2 106.9 L 121.5 106.4 L 111.8 107.2 L 102.1 109.0 L 92.8 112.0 L 84.0 115.9 L 75.8 120.8 L 68.4 126.5 L 62.0 133.0 L 56.8 140.1 L 52.8 147.7 L 52.57394285202027 147.60537147521973 L 52.6 147.7 L 39.3 152.2 L 37.0 143.7 L 35.8 135.4 L 35.8 127.3 L 36.9 119.5 L 39.0 112.1 L 42.2 105.1 L 46.3 98.7 L 51.2 92.8 L 56.9 87.4 L 60.78241968154907 84.50359172821045 L 69.1 77.6 L 80.1 70.1 L 91.6 63.4 L 102.9 57.2 L 113.3 51.5 L 122.1 46.2 L 128.4 41.4 L 131.4 38.0 L 131.7 37.2 L 131.28275861740113 36.55517244338989 L 129.4 35.3 L 125.9 33.5 L 122.2 32.2 L 118.4 31.3 L 114.5 30.8 L 110.5 30.6 L 106.7 30.8 L 103.0 31.3 L 99.5 32.1 L 97.87783603668213 32.62327871322632 L 97.9 32.7 L 91.9 34.5 L 85.9 36.5 L 79.9 38.6 L 73.8 40.5 L 67.8 42.0 L 61.6 43.0 L 55.4 43.2 L 49.1 42.2 L 42.9 39.8 L 37.1 35.9 L 46.3 25.3 L 49.4 27.4 L 52.6 28.7 L 56.1 29.2 L 60.2 29.1 L 64.8 28.3 L 69.9 27.0 L 75.5 25.3 L 81.3 23.3 L 87.5 21.2 L 94.0 19.2 L 94.00358619689942 19.212413787841797 L 95.8 18.6 L 100.5 17.5 L 105.4 16.8 L 110.5 16.6 Z " />
</g>
</svg>
