<svg xmlns="http://www.w3.org/2000/svg" xmlns:xlink="http://www.w3.org/1999/xlink" version="1.1" baseProfile="full" viewBox="0 0 200 200" width="200" height="200">
<g fill="black">
<path d="M 140.4 20.1 L 146.9 25.8 L 153.4 34.7 L 160.7 47.9 L 160.56244058609008 47.969889068603514 L 162.4 51.4 L 165.0 56.5 L 167.4 61.0 L 169.5 65.0 L 171.3 68.4 L 172.9 71.3 L 174.1 73.7 L 175.1 75.6 L 175.8 76.9 L 175.46238536834716 77.06880731582642 L 175.6 77.1 L 172.3 90.8 L 165.1 89.1 L 158.5 87.8 L 152.5 86.7 L 147.1 85.9 L 142.3 85.3 L 138.1 85.0 L 134.6195348739624 85.0 L 134.9 105.1 L 134.7 122.6 L 134.2 136.9 L 133.3 148.3 L 132.1 157.4 L 130.7 164.8 L 129.1 170.8 L 127.3 176.0 L 125.4 180.5 L 112.5 175.4 L 114.2 171.0 L 115.7 166.6 L 117.1 161.6 L 118.3 155.2 L 119.4 146.9 L 120.2 136.1 L 120.7 122.3 L 120.9 105.1 L 120.66157808303834 88.25151786804199 L 111.0 90.7 L 97.6 94.6 L 85.5 98.5 L 81.50852880477905 99.94136457443237 L 81.5 100.1 L 80.7 108.8 L 79.4 116.8 L 77.7 124.3 L 75.5 131.1 L 72.8 137.4 L 69.6 143.0 L 65.8 148.0 L 61.5 152.3 L 61.28986692428589 152.05292043685913 L 58.6 152.4 L 55.7 152.2 L 52.9 151.5 L 50.2 150.5 L 47.4 149.2 L 44.6 147.6 L 41.7 145.7 L 38.7 143.5 L 35.6 141.0 L 33.75204372406006 139.43203706741332 L 33.7 139.5 L 31.6 137.8 L 29.8 136.1 L 28.2 134.3 L 26.8 132.3 L 25.6 130.3 L 24.7 128.0 L 24.1 125.6 L 24.0 123.0 L 24.3 120.5 L 25.1 118.1 L 25.747335720062257 118.3759958267212 L 25.2 118.0 L 29.8 112.5 L 35.5 107.4 L 42.3 102.6 L 50.2 98.0 L 59.3 93.6 L 68.0 90.05242719650269 L 68.0 82.4 L 67.2 73.6 L 66.6114649772644 69.69426755905151 L 59.6 73.2 L 50.7 75.0 L 42.2 73.8 L 35.1 68.4 L 32.4 59.6 L 34.5 50.1 L 47.4 55.8 L 46.4 59.6 L 46.5 60.4 L 47.1 60.7 L 50.0 61.0 L 55.0 60.0 L 61.1 56.9 L 62.81707315444946 55.49512195587158 L 61.8 53.8 L 60.9 52.9 L 60.7 52.8 L 60.1 52.8 L 58.2 53.6 L 55.2 55.7 L 46.3 44.9 L 51.4 41.4 L 56.9 39.2 L 62.9 39.0 L 68.6 41.2 L 72.80520830154418 45.11848955154419 L 74.1 43.5 L 79.7 32.9 L 83.9 19.4 L 97.6 22.4 L 92.6 38.3 L 85.8 51.3 L 78.95451612472534 59.751214599609376 L 79.9 63.7 L 81.1 72.0 L 81.84133892059326 80.80339984893799 L 82.0 80.8 L 82.0 84.88253965377808 L 93.6 81.2 L 107.4 77.2 L 120.36637678146363 73.89313879013062 L 120.07690076828003 61.49391431808472 L 120.0 61.5 L 119.5 53.2 L 119.6 44.8 L 120.3 37.0 L 121.7 29.8 L 124.7 23.4 L 131.6 18.6 Z M 65.1 106.4 L 56.8 110.4 L 49.8 114.4 L 44.1 118.4 L 39.8 122.3 L 38.16545457839966 124.19818181991577 L 38.5 124.7 L 39.0 125.4 L 39.8 126.3 L 40.9 127.3 L 41.50263814926147 127.80992460250854 L 41.6 127.7 L 44.5 130.2 L 47.2 132.4 L 49.7 134.2 L 52.0 135.7 L 54.0 136.8 L 55.7 137.6 L 56.08222217559815 137.74700851440429 L 57.9 135.3 L 60.3 131.2 L 62.4 126.3 L 64.2 120.6 L 65.7 114.2 L 66.8 107.0 L 66.93832597732543 105.63403081893921 Z M 135.1 33.8 L 134.1 38.8 L 133.6 45.4 L 133.5 52.8 L 133.75834894180298 57.70863037109375 L 134.0 57.7 L 134.3081081390381 71.0 L 138.7 71.0 L 143.6 71.4 L 148.9 72.0 L 154.8 72.9 L 158.2098627090454 73.48607015609741 L 157.1 71.5 L 155.0 67.5 L 152.7 63.0 L 150.0 58.0 L 147.0 52.4 L 144.14042549133302 46.859574508666995 L 141.5 42.2 L 136.4 34.9 L 135.12049617767335 33.75285863876343 Z " />
</g>
</svg>
