<svg xmlns="http://www.w3.org/2000/svg" xmlns:xlink="http://www.w3.org/1999/xlink" version="1.1" baseProfile="full" viewBox="0 0 200 200" width="200" height="200">
<g fill="black">
<path d="M 54.0 141.9 L 49.7 149.5 L 48.6 154.6 L 49.6 157.7 L 53.4 161.0 L 61.4 164.5 L 73.6 167.1 L 90.0 168.7 L 110.3 169.0 L 134.4 168.1 L 162.3 166.0 L 163.6 179.9 L 135.2 182.1 L 110.5 183.0 L 89.3 182.7 L 71.6 181.0 L 57.2 177.8 L 46.0 173.0 L 38.0 165.5 L 34.6 155.2 L 36.6 144.4 L 42.7 133.7 Z M 93.1 14.5 L 95.6 15.1 L 98.0 15.9 L 100.3 17.0 L 102.6 18.2 L 104.8 19.7 L 106.9 21.3 L 109.1 23.1 L 111.1 25.1 L 113.2 27.3 L 112.7648530960083 27.685415840148927 L 112.9 27.7 L 112.1 34.8 L 111.4 42.2 L 110.7 49.8 L 110.35494661331177 54.343202877044675 L 111.0 53.8 L 117.2 48.2 L 121.7 43.4 L 123.09493675231934 41.62025318145752 L 122.6 41.3 L 120.8 40.1 L 117.0 37.7 L 115.0 36.4 L 122.6 24.6 L 124.6 25.9 L 126.5 27.1 L 128.4 28.4 L 130.3 29.6 L 132.0 30.8 L 133.8 31.9 L 137.0 34.1 L 140.0 36.3 L 139.8925058364868 36.449960994720456 L 139.0 42.4 L 136.2 47.5 L 132.2 52.6 L 126.9 58.2 L 120.3 64.3 L 112.2 71.1 L 108.94116878509521 73.70013132095337 L 108.9 74.4 L 108.3 83.2 L 108.14824666976929 85.96191053390503 L 111.4 85.1 L 119.0 82.9 L 125.8 80.7 L 131.7199999809265 78.72666664123535 L 130.6 77.7 L 128.5 75.2 L 126.4 72.4 L 124.5 69.4 L 136.5 62.2 L 137.9 64.5 L 139.4 66.4 L 140.7 68.0 L 142.0 69.2 L 143.2 70.1 L 144.2 70.6 L 145.1 71.0 L 145.9 71.2 L 146.7 71.2 L 147.6 71.1 L 147.6517825126648 71.36274824142455 L 148.1 71.1 L 155.8 82.8 L 151.9 85.1 L 147.5 87.4 L 142.4 89.6 L 136.6 91.8 L 130.1 94.0 L 123.0 96.3 L 115.2 98.6 L 107.43870468139649 100.70011520385742 L 107.4 101.6 L 107.39131870269776 101.80835161209106 L 109.9 103.3 L 113.2 105.7 L 116.0 108.5 L 118.2 111.9 L 119.5 115.7 L 119.8 119.8 L 119.72629985809326 120.21061525344848 L 125.0 120.3 L 130.2 120.6 L 134.8 121.3 L 138.9 122.4 L 142.7 124.1 L 146.1 126.8 L 148.4 130.9 L 148.9 135.6 L 147.06865797042846 135.42872343063354 L 148.7 135.9 L 145.9 142.9 L 141.8 148.9 L 136.4 153.6 L 130.0 156.9 L 122.7 158.7 L 114.8 159.2 L 106.3 158.5 L 97.0 156.7 L 87.0 153.8 L 76.3 149.8 L 81.5 136.8 L 91.4 140.5 L 100.4 143.1 L 108.3 144.6 L 115.0 145.2 L 120.7 144.9 L 125.1 143.8 L 128.6 142.0 L 131.3 139.6 L 133.5 136.4 L 133.86319570541383 135.45996408462526 L 132.1 135.0 L 128.8 134.6 L 124.5 134.3 L 119.3 134.2 L 113.3 134.4 L 106.5 134.8 L 105.4 120.9 L 105.47646732330323 120.89468975067139 L 105.3 120.8 L 105.9 119.0 L 105.7 118.2 L 105.2 117.4 L 104.1 116.3 L 102.3 115.0 L 99.8 113.5 L 96.5 112.0 L 92.7 110.6 L 93.04633445739746 109.57638921737671 L 93.26281929016113 104.32663202285767 L 92.5 104.5 L 88.09281435012818 105.36227540969848 L 87.5 105.5 L 87.49299697875976 105.46927709579468 L 83.2 106.2 L 78.4 106.8 L 73.5 107.3 L 68.5 107.7 L 63.3 107.9 L 58.0 108.0 L 58.0 94.0 L 58.07142114639282 93.9985424041748 L 57.8 93.6 L 71.4 84.1 L 83.6 75.4 L 94.2 67.4 L 95.39669733047485 66.463454246521 L 95.5 65.0 L 96.1 56.6 L 96.8 48.6 L 97.5 40.8 L 98.2 33.4 L 98.32086334228515 32.31223020553589 L 98.2 32.2 L 96.7 31.1 L 95.3 30.2 L 94.0 29.5 L 92.7 28.9 L 91.5 28.5 L 90.4 28.2 L 89.2 28.0 L 90.6 14.1 Z M 91.9 86.7 L 84.79268293380737 91.80121955871581 L 84.8731707572937 91.78780488967895 L 94.00750370025635 89.62193212509155 L 94.26168556213379 84.94498596191406 Z M 78.4 42.8 L 77.9 45.3 L 77.7 47.5 L 77.7 49.3 L 78.1 50.9 L 78.6 52.3 L 79.4 53.5 L 80.5 54.8 L 82.1 56.0 L 84.1 57.3 L 86.6 58.5 L 81.3 71.4 L 77.4 69.6 L 74.0 67.5 L 70.9 64.9 L 68.2 62.0 L 66.1 58.6 L 64.7 55.0 L 63.9 51.1 L 63.7 47.1 L 64.0 43.1 L 64.9 39.0 Z " />
</g>
</svg>
