<svg xmlns="http://www.w3.org/2000/svg" xmlns:xlink="http://www.w3.org/1999/xlink" version="1.1" baseProfile="full" viewBox="0 0 200 200" width="200" height="200">
<g fill="black">
<path d="M 121.6 14.6 L 125.3 15.3 L 128.7 16.1 L 131.9 17.2 L 134.8 18.6 L 137.5 20.3 L 139.9 22.4 L 141.8 25.0 L 143.2 28.0 L 143.76809730529786 30.59701633453369 L 143.8 30.6 L 143.79058380126952 30.69981164932251 L 143.9 31.2 L 143.74178552627563 31.21707353591919 L 142.8 41.2 L 141.5268666267395 50.7974666595459 L 145.4 50.3 L 156.7 49.7 L 168.3 50.0 L 167.6 63.9 L 156.9 63.7 L 146.6 64.3 L 139.12567167282106 65.21522388458251 L 138.5 68.5 L 136.7 76.2 L 134.7 83.2 L 132.6 89.4 L 132.56652030944824 89.47633371353149 L 140.3 87.5 L 149.8 84.6 L 159.9 81.3 L 170.5 77.4 L 175.4 90.5 L 174.45884561538696 90.84537773132324 L 169.9 94.2 L 164.0 99.2 L 157.4 105.2 L 150.0 112.3 L 142.0 120.4 L 133.4 129.6 L 129.37219533920288 134.0175922393799 L 131.9 135.9 L 134.44988298416138 140.12049598693847 L 135.4 139.1 L 138.3 136.4 L 141.2 134.1 L 144.3 132.1 L 145.77108430862427 131.34216871261597 L 145.7 131.2 L 149.9 129.4 L 154.3 128.1 L 158.9 127.4 L 163.7 127.3 L 168.4 128.2 L 173.1 130.2 L 177.1 133.7 L 180.1 138.4 L 181.7 144.0 L 181.85873012542726 149.0 L 182.0 149.0 L 181.88589744567872 149.8557692527771 L 181.9 150.3 L 181.82715578079222 150.2963315963745 L 181.4 153.5 L 179.9 157.9 L 177.6 162.0 L 174.6 165.9 L 170.9 169.6 L 166.6 173.2 L 161.7 176.7 L 156.1 180.3 L 149.9 183.7 L 143.0 187.2 L 136.9 174.7 L 143.3 171.4 L 149.0 168.2 L 153.9 165.1 L 158.1 162.1 L 161.5 159.3 L 164.1 156.6 L 166.0 154.2 L 167.2 152.1 L 167.8 150.4 L 167.97551021575927 149.1714285850525 L 167.8 146.1 L 167.3 144.0 L 166.6 142.9 L 165.7 142.2 L 164.5 141.6 L 162.6 141.3 L 160.2 141.3 L 157.5 141.8 L 154.7 142.6 L 152.6631579399109 143.5052631378174 L 151.4 144.2 L 149.4 145.5 L 147.4 147.0 L 145.4 148.9 L 143.4 151.1 L 141.4 153.6 L 139.4 156.4 L 137.85671443939208 158.99921770095824 L 137.9 159.8 L 124.0 160.1 L 123.6 153.9 L 122.8 149.2 L 121.9 146.2 L 121.52307691574097 145.55384616851808 L 121.4 145.6 L 119.1 146.9 L 115.9 149.7 L 111.8 153.9 L 111.67637720108033 153.78945264816284 L 103.5 163.2 L 92.3 176.5 L 81.6 167.4 L 92.9 154.1 L 103.6 141.8 L 113.7 130.4 L 123.1 120.1 L 132.0 110.7 L 140.2 102.4 L 140.77518243789672 101.83995389938354 L 134.6 103.4 L 125.5 105.4 L 116.9 106.8 L 108.7 107.7 L 101.0 108.0 L 93.7 107.8 L 86.8 107.0 L 89.1 93.2 L 94.7 93.8 L 100.9 94.0 L 107.7 93.7 L 115.0 92.9 L 115.40471315383911 92.83340167999268 L 115.5 92.7 L 117.5 89.0 L 119.5 84.4 L 121.4 79.0 L 123.1 72.7 L 124.11805648803711 68.44811697006226 L 118.4 70.1 L 109.9 73.5 L 101.7 77.6 L 94.0 82.4 L 91.27207698822022 84.4643741607666 L 91.3 84.5 L 83.81519432067871 90.4710247039795 L 79.5 94.3 L 79.43454265594482 94.23184337615967 L 74.92347955703735 98.2354118347168 L 76.9 102.9 L 78.9 109.2 L 80.3 115.7 L 81.1 122.4 L 81.3 129.4 L 80.9 136.6 L 80.66828289031983 136.57832860946655 L 79.7 142.3 L 78.3 148.2 L 76.4 153.8 L 74.0 158.8 L 71.0 163.4 L 67.6 167.4 L 63.6 170.8 L 59.2 173.5 L 54.4 175.5 L 49.2 176.8 L 49.16471576690674 176.60664253234864 L 46.7 177.2 L 41.4 177.5 L 36.2 176.8 L 31.3 174.8 L 27.1 171.4 L 24.1 166.8 L 22.6 161.4 L 22.3 155.6 L 23.3 149.3 L 24.589296436309816 145.1251353263855 L 24.5 145.1 L 26.8 138.1 L 30.0 131.2 L 33.9 124.2 L 38.6 117.1 L 44.1 110.0 L 50.3 102.9 L 57.19356727600098 95.7109941482544 L 56.4 94.6 L 53.0 90.6 L 49.1 86.9 L 49.33936653137207 86.62420816421509 L 45.8 82.2 L 44.9 74.6 L 46.7 67.7 L 49.8 61.2 L 53.7 54.8 L 58.0 48.6 L 61.07796831130982 44.34947233200073 L 57.5 45.8 L 53.4 47.9 L 48.8 50.7 L 43.8 54.1 L 43.513186836242674 53.69633703231811 L 43.5 53.9 L 39.9 53.5 L 36.4 52.7 L 33.1 51.5 L 30.0 49.8 L 27.2 47.8 L 24.7 45.3 L 22.6 42.5 L 20.9 39.5 L 19.5 36.1 L 18.4 32.6 L 32.0 29.2 L 32.6 31.4 L 33.4 33.3 L 34.3 34.8 L 35.3 36.1 L 36.3 37.1 L 37.5 38.0 L 38.8 38.7 L 40.4 39.3 L 40.636997890472415 39.34989433288574 L 41.3 38.9 L 46.6 35.7 L 51.7 33.1 L 56.6 31.1 L 61.4 29.7 L 66.1 29.0 L 70.7 29.1 L 75.2 30.2 L 79.3 32.1 L 82.8318962097168 34.94513854980469 L 83.3 35.1 L 80.8 40.3 L 77.5 45.5 L 73.5 51.0 L 69.4 56.8 L 65.4 62.5 L 62.0 68.0 L 59.7 72.8 L 58.8 76.1 L 58.8 76.77959184646606 L 63.2 81.0 L 67.5 86.0 L 67.54219751358032 86.06044502258301 L 73.4 80.9 L 74.9541748046875 79.63300971984863 L 77.7 77.2 L 80.6833333015442 74.9625 L 82.6 73.4 L 82.6617021560669 73.47872343063355 L 86.1 70.9 L 94.9 65.4 L 104.1 60.8 L 113.8 56.9 L 123.9 53.9 L 126.97075881958008 53.2626727104187 L 127.6 49.1 L 128.8 39.6 L 129.61004180908202 32.01506280899048 L 129.6 32.0 L 129.1 31.5 L 128.1 30.9 L 126.7 30.2 L 124.7 29.5 L 122.4 28.9 L 119.5 28.4 L 116.2 28.0 L 117.6 14.1 Z M 60.6 112.3 L 54.9 118.9 L 50.0 125.3 L 45.9 131.5 L 42.5 137.5 L 39.9 143.3 L 38.3904109954834 147.74931507110597 L 36.9 152.5 L 36.3 156.4 L 36.4 159.3 L 36.9 161.0 L 37.5 162.1 L 38.4 162.7 L 39.7 163.3 L 41.8 163.5 L 44.6 163.4 L 47.9 162.6 L 47.95022029876709 162.7590308189392 L 50.0 162.2 L 52.8 161.0 L 55.4 159.5 L 57.7 157.5 L 59.8 155.0 L 61.7 152.1 L 63.4 148.5 L 64.8 144.3 L 66.0 139.5 L 66.9 134.1 L 67.05806560516358 134.119331741333 L 67.3 129.2 L 67.1 123.4 L 66.5 117.9 L 65.4 112.7 L 64.09354009628296 108.69896640777588 Z " />
</g>
</svg>
