<svg xmlns="http://www.w3.org/2000/svg" xmlns:xlink="http://www.w3.org/1999/xlink" version="1.1" baseProfile="full" viewBox="0 0 200 200" width="200" height="200">
<g fill="black">
<path d="M 134.4 22.1 L 142.9 23.4 L 150.6 25.9 L 157.4 29.8 L 162.9 35.0 L 167.2 41.5 L 170.1 48.9 L 171.6 57.1 L 171.87328882217406 65.29866447448731 L 171.9 65.3 L 171.8789842605591 65.46952714920045 L 171.9 66.1 L 171.8010910987854 66.09786529541016 L 170.4 77.4 L 167.2 88.4 L 162.2 98.1 L 155.4 106.3 L 146.9 112.9 L 136.8 117.8 L 125.4 121.1 L 112.7 122.8 L 102.99490547180176 123.00649137496949 L 102.4 126.1 L 100.9 131.4 L 99.1 136.8 L 97.0 142.2 L 94.5 147.7 L 91.6 153.4 L 91.5810866355896 153.38985137939454 L 90.1 157.0 L 89.9 159.0 L 90.2 159.8 L 91.5 161.0 L 94.9 162.5 L 100.8 163.8 L 108.8 164.4 L 118.9 164.4 L 131.0 163.6 L 145.0 162.0 L 146.9 175.9 L 132.3 177.5 L 119.5 178.4 L 108.3 178.4 L 98.8 177.6 L 90.7 175.8 L 83.9 172.8 L 78.6 167.7 L 76.0 160.8 L 76.5 153.5 L 79.3 146.5 L 79.41662902832032 146.56207675933837 L 81.8 141.7 L 84.1 136.7 L 86.0 131.9 L 87.5 127.3 L 88.8 122.8 L 88.88412952423096 122.34780359268188 L 83.1 121.9 L 84.8 108.0 L 84.92244482040405 108.00948514938355 L 84.9 107.8 L 85.8 104.3 L 88.2 101.6 L 90.8 100.2 L 93.1 99.7 L 95.1 99.6 L 97.1 99.7 L 99.2 100.0 L 101.3 100.4 L 103.7 100.9 L 103.66703910827637 101.03184356689454 L 103.9 101.0 L 104.4 105.8 L 104.4 108.9714285850525 L 111.6 108.8 L 122.6 107.4 L 131.9 104.7 L 139.5 101.0 L 145.7 96.2 L 150.5 90.4 L 154.2 83.3 L 156.7 74.7 L 157.9 64.6 L 157.95010442733764 64.60250520706177 L 157.7 58.6 L 156.6 52.6 L 154.7 47.8 L 152.2 44.0 L 149.0 41.1 L 145.0 38.7 L 139.8 37.0 L 133.4 36.0 L 127.29585494995118 35.92072534561157 L 123.11176471710205 36.135294151306155 L 118.171875 36.584375 L 112.0 37.6 L 103.9 39.6 L 95.3 42.0 L 86.2 44.4 L 76.4 46.4 L 65.7 47.6 L 54.0 47.5 L 41.3 45.7 L 27.6 41.9 L 32.2 28.7 L 44.2 32.0 L 55.0 33.6 L 64.9 33.6 L 74.1 32.6 L 82.9 30.8 L 91.6 28.5 L 100.2 26.1 L 109.1 23.9 L 118.4 22.3 L 122.25051698684692 22.182126998901367 L 125.1 21.9 Z " />
</g>
</svg>
