<?xml version="1.0" encoding="UTF-8" standalone="no"?>
<svg
   xmlns:dc="http://purl.org/dc/elements/1.1/"
   xmlns:cc="http://creativecommons.org/ns#"
   xmlns:rdf="http://www.w3.org/1999/02/22-rdf-syntax-ns#"
   xmlns:svg="http://www.w3.org/2000/svg"
   xmlns="http://www.w3.org/2000/svg"
   xmlns:sodipodi="http://sodipodi.sourceforge.net/DTD/sodipodi-0.dtd"
   xmlns:inkscape="http://www.inkscape.org/namespaces/inkscape"
   inkscape:version="1.0 (4035a4fb49, 2020-05-01)"
   sodipodi:docname="u1b0aa.svg"
   id="svg6"
   height="200"
   width="200"
   viewBox="0 0 200 200"
   version="1.1">
  <metadata
     id="metadata12">
    <rdf:RDF>
      <cc:Work
         rdf:about="">
        <dc:format>image/svg+xml</dc:format>
        <dc:type
           rdf:resource="http://purl.org/dc/dcmitype/StillImage" />
      </cc:Work>
    </rdf:RDF>
  </metadata>
  <defs
     id="defs10" />
  <sodipodi:namedview
     inkscape:current-layer="g4"
     inkscape:window-maximized="1"
     inkscape:window-y="28"
     inkscape:window-x="0"
     inkscape:cy="109.39772"
     inkscape:cx="107.44471"
     inkscape:zoom="2.815"
     showgrid="false"
     id="namedview8"
     inkscape:window-height="846"
     inkscape:window-width="1440"
     inkscape:pageshadow="2"
     inkscape:pageopacity="0"
     guidetolerance="10"
     gridtolerance="10"
     objecttolerance="10"
     borderopacity="1"
     bordercolor="#666666"
     pagecolor="#ffffff" />
  <g
     id="g4"
     fill="black">
    <path
       sodipodi:nodetypes="ccccccccccccccccccccccccccccccccccccc"
       d="m 54.8,35.8 c 2.835225,6.772989 3.566571,13.615564 4.481279,21.224493 0.493662,9.086613 1.067115,18.425041 0.834622,27.636083 -0.430525,3.430736 -0.148613,4.249632 1.940273,1.063095 C 72.273788,73.194036 83.783794,61.817879 95.4,50.6 c 13.32882,-11.675924 32.01752,-25.429977 47.98437,-10.894535 13.84285,15.668632 13.86089,38.901877 14.00576,45.350589 2.03887,31.241996 -1.26099,46.358316 -6.13607,64.626056 -3.04254,11.57071 -16.53674,29.9224 -40.87209,23.96039 -14.186049,-5.93893 -25.303975,-15.49146 -30.460345,-29.86846 -4.265793,-12.90025 5.979082,-20.40811 8.790935,-21.57244 15.54982,-8.51716 32.58117,3.12089 36.38744,5.0984 l -8.3,11.3 c -4.67952,-3.07363 -9.93685,-5.58252 -15.65149,-5.53345 -2.957802,0.0686 -6.981363,0.6003 -8.289095,3.61901 -0.57185,4.50163 2.685253,8.18635 5.185062,11.56648 3.657633,3.6305 7.083853,7.59007 11.717393,10.03856 2.57927,1.6179 5.70023,2.65025 8.70098,3.03134 3.32971,0.41658 6.71346,-0.36131 9.5401,-2.10943 3.01097,-2.02344 5.34758,-4.66416 7.12397,-7.8177 2.38542,-3.60296 3.56836,-7.91966 5.01339,-11.95738 3.01841,-12.29046 5.73628,-36.47976 2.65857,-64.482967 -1.14993,-5.995654 -1.61059,-12.182141 -4.32111,-17.745725 -0.9101,-2.990874 -2.93347,-5.702937 -5.26706,-7.663825 -3.38512,-2.436858 -7.7526,-1.300841 -11.33828,0.08334 -3.7456,1.365836 -7.12183,3.764672 -10.372,6.054528 -5.87372,4.497551 -11.08449,9.422203 -16.306772,14.696701 -10.730373,10.691979 -21.174689,21.789576 -29.762381,34.311148 -2.501963,4.12452 -5.245196,8.21555 -6.94548,12.75245 -0.5748,12.05098 -1.078895,24.16162 0.329451,36.17349 0.358912,4.41988 1.903933,8.64795 2.784752,12.98343 -4.433333,1.56667 -8.866667,3.13333 -13.3,4.7 -1.148001,-6.82708 -6.902085,-26.33815 -3.116336,-67.23863 C 46.014588,90.17189 46.820307,76.206567 45.775321,62.315549 45.245046,56.452812 45.169012,42.755606 37,32 l 11.2,-8.4 z"
       id="path2" />
  </g>
</svg>
