<?xml version="1.0" encoding="UTF-8" standalone="no"?>
<svg
   xmlns:dc="http://purl.org/dc/elements/1.1/"
   xmlns:cc="http://creativecommons.org/ns#"
   xmlns:rdf="http://www.w3.org/1999/02/22-rdf-syntax-ns#"
   xmlns:svg="http://www.w3.org/2000/svg"
   xmlns="http://www.w3.org/2000/svg"
   xmlns:sodipodi="http://sodipodi.sourceforge.net/DTD/sodipodi-0.dtd"
   xmlns:inkscape="http://www.inkscape.org/namespaces/inkscape"
   inkscape:version="1.0 (4035a4fb49, 2020-05-01)"
   sodipodi:docname="fitzgerald_u-1b0a5.svg"
   id="svg6"
   height="200"
   width="200"
   viewBox="0 0 200 200"
   version="1.1">
  <metadata
     id="metadata12">
    <rdf:RDF>
      <cc:Work
         rdf:about="">
        <dc:format>image/svg+xml</dc:format>
        <dc:type
           rdf:resource="http://purl.org/dc/dcmitype/StillImage" />
      </cc:Work>
    </rdf:RDF>
  </metadata>
  <defs
     id="defs10" />
  <sodipodi:namedview
     inkscape:current-layer="g4"
     inkscape:window-maximized="1"
     inkscape:window-y="28"
     inkscape:window-x="0"
     inkscape:cy="89.129423"
     inkscape:cx="141.09879"
     inkscape:zoom="2.815"
     showgrid="false"
     id="namedview8"
     inkscape:window-height="846"
     inkscape:window-width="1440"
     inkscape:pageshadow="2"
     inkscape:pageopacity="0"
     guidetolerance="10"
     gridtolerance="10"
     objecttolerance="10"
     borderopacity="1"
     bordercolor="#666666"
     pagecolor="#ffffff" />
  <g
     id="g4"
     fill="black">
    <path
       sodipodi:nodetypes="ccccccccccccccccccccccccccccccsccccccccccc"
       d="m 109.84,24.607927 c 1.26048,6.143461 0.60147,9.549791 1.19078,15.792245 C 119.39775,38.688743 127.56463,36.171955 135.6,33.3 c 1.56667,4.433333 3.13333,8.866667 4.7,13.3 -9.38559,3.019572 -18.79459,6.06047 -28.48162,7.968186 0.14782,6.438637 0.0645,12.882732 -0.36387,19.309778 C 125.87871,71.334901 140.26342,68.574046 154.7,66.1 c 0.83333,4.566667 1.66667,9.133333 2.5,13.7 -3.91968,2.496983 -7.72718,6.396299 -11.69634,9.323437 -16.65344,13.337493 -33.29553,26.689603 -50.099669,39.837353 3.387531,1.72956 5.507149,5.22797 7.351199,8.41615 2.33765,4.54617 3.5614,9.49972 4.54881,14.48306 4.76639,-7.49072 10.52769,-14.29696 16.596,-20.76 3.36667,3.23333 6.73333,6.46667 10.1,9.7 -11.51388,12.17925 -21.983,26.44802 -25,43.3 -4.43269,0.0823 -9.372526,-0.30264 -14,-0.4 -0.131982,-12.58936 0.531051,-25.62628 -3.637664,-37.68442 -0.984927,-3.23879 -3.298404,-7.58805 -7.51188,-6.50244 -7.079246,2.03104 -12.129032,8.56589 -18.117853,12.6779 C 56.566861,159.30926 47.384851,166.40647 38.2,173.5 L 29.7,162.4 C 62.718931,136.91073 95.647471,111.29768 128.12218,85.116815 88.300225,89.312921 37.728792,111.37029 20.243871,85.731497 L 31.558883,77.240732 C 43.556331,90.249936 78.72575,79.54801 97.346675,76.338545 97.767218,69.771242 97.972598,63.185731 97.844694,56.605137 87.264998,57.358819 75.649264,56.427721 67.124675,49.461808 65.203529,47.962299 62.451199,45.22313 62.085161,43.441012 L 73.3,35.9 c 5.484802,7.321053 16.261117,7.111076 24.535212,6.600871 0.224124,-4.154547 -0.305274,-10.367292 -1.470404,-14.186045 -1.133315,-3.714477 -5.711857,-5.546336 -9.166944,-8.548739 3.495659,-3.447631 5.243425,-5.319137 9.238577,-8.718636 2.366409,1.866667 12.052339,8.278372 13.403559,13.560476 z M 147.8,122.8 c 12.31386,3.42471 23.7843,11.74482 28.49534,23.94102 2.32988,4.92388 2.98765,10.40239 3.60466,15.75898 L 166,163.4 C 165.52925,153.23913 160.11951,142.84819 150.40377,138.80429 146.68384,136.95224 142.62884,135.93741 138.6,135 c 0.86667,-4.56667 1.73333,-9.13333 2.6,-13.7 z"
       id="path2" />
  </g>
</svg>
