<?xml version="1.0" encoding="UTF-8" standalone="no"?>
<svg
   xmlns:dc="http://purl.org/dc/elements/1.1/"
   xmlns:cc="http://creativecommons.org/ns#"
   xmlns:rdf="http://www.w3.org/1999/02/22-rdf-syntax-ns#"
   xmlns:svg="http://www.w3.org/2000/svg"
   xmlns="http://www.w3.org/2000/svg"
   xmlns:sodipodi="http://sodipodi.sourceforge.net/DTD/sodipodi-0.dtd"
   xmlns:inkscape="http://www.inkscape.org/namespaces/inkscape"
   inkscape:version="1.0 (4035a4fb49, 2020-05-01)"
   sodipodi:docname="u1b085.svg"
   id="svg6"
   height="200"
   width="200"
   viewBox="0 0 200 200"
   version="1.1">
  <metadata
     id="metadata12">
    <rdf:RDF>
      <cc:Work
         rdf:about="">
        <dc:format>image/svg+xml</dc:format>
        <dc:type
           rdf:resource="http://purl.org/dc/dcmitype/StillImage" />
      </cc:Work>
    </rdf:RDF>
  </metadata>
  <defs
     id="defs10" />
  <sodipodi:namedview
     inkscape:current-layer="svg6"
     inkscape:window-maximized="1"
     inkscape:window-y="28"
     inkscape:window-x="0"
     inkscape:cy="117.32909"
     inkscape:cx="120.16571"
     inkscape:zoom="1.9905056"
     showgrid="false"
     id="namedview8"
     inkscape:window-height="846"
     inkscape:window-width="1440"
     inkscape:pageshadow="2"
     inkscape:pageopacity="0"
     guidetolerance="10"
     gridtolerance="10"
     objecttolerance="10"
     borderopacity="1"
     bordercolor="#666666"
     pagecolor="#ffffff" />
  <g
     id="g4"
     fill="black">
    <path
       sodipodi:nodetypes="ssssssccssscsscccssscscccsssssscsccccc"
       d="m 149.65638,41.726851 c 2.2295,6.770333 1.25635,16.754988 0.56003,22.688077 -1.73881,14.815885 -5.16034,45.144232 -5.41654,60.422212 -0.0989,5.89892 0.11323,11.8968 1.06242,17.71127 0.70683,4.32986 1.58129,8.6785 4.16263,12.32108 2.83475,4.00018 8.24837,4.55853 12.9146,4.30163 4.15687,-0.22886 8.17032,-1.34409 12.26048,-1.97112 1.16667,4.5 2.33333,9 3.5,13.5 -6.27635,1.31343 -12.53181,2.20237 -18.99177,2.51691 -17.20638,0.83778 -24.30598,-11.91693 -26.61229,-23.86831 -1.43514,-7.43696 -2.26974,-14.88693 -2.36829,-22.39202 -0.1467,-11.17187 0.80675,-22.31627 2.08907,-33.418286 C 133.92389,80.623556 136.40584,68.264946 137.5,55 138.92527,37.720851 132.69106,44.293674 124.04484,51.722645 113.83611,60.494146 105.11689,70.852388 96.403649,81.095762 97.812618,91.809328 97.378784,102.63696 96.9,113.4 c -0.666138,4.8006 -0.73016,10.44395 -1.968445,15.45933 -2.321567,12.25504 -6.384869,20.99576 -13.483402,25.96094 -13.492888,9.43781 -29.653744,1.80104 -33.234047,-12.61214 -3.740621,-15.05856 6.46671,-29.39015 14.057301,-39.8876 C 68.460323,93.761534 74.855629,85.343572 81.528946,77.155823 80.690089,73.816216 80.102778,70.067107 76.67477,68.804608 73.466153,67.622909 70.545644,69.699599 67.7,71.2 L 59.9,59.6 c 10.113669,-8.640601 24.427955,-9.067721 32.493452,4.85264 8.637358,-9.909585 19.038638,-21.577367 28.510618,-28.817832 11.00009,-8.408562 24.01882,-8.282187 28.75231,6.092043 z M 77,105.9 c -4.759143,6.67644 -9.976629,12.92925 -13.7,20.4 -2.270751,4.55614 -3.697539,11.76476 -0.176221,15.16108 12.902043,12.44407 18.667188,-15.48736 19.495674,-25.58257 0.505892,-6.16436 0.932413,-12.10637 0.727915,-18.441668 C 81.231579,100.25789 79.046852,103.02854 77,105.9 Z M 73.5,38.4 C 45.066381,71.885536 36.156448,104.43879 39.9,142 35.266667,142.63333 30.633333,143.26667 26,143.9 20.438452,108.25917 33.177076,59.240714 63.1,29 Z"
       id="path2" />
  </g>
</svg>
