<?xml version="1.0" encoding="UTF-8" standalone="no"?>
<svg
   xmlns:dc="http://purl.org/dc/elements/1.1/"
   xmlns:cc="http://creativecommons.org/ns#"
   xmlns:rdf="http://www.w3.org/1999/02/22-rdf-syntax-ns#"
   xmlns:svg="http://www.w3.org/2000/svg"
   xmlns="http://www.w3.org/2000/svg"
   xmlns:sodipodi="http://sodipodi.sourceforge.net/DTD/sodipodi-0.dtd"
   xmlns:inkscape="http://www.inkscape.org/namespaces/inkscape"
   inkscape:version="1.0 (4035a4fb49, 2020-05-01)"
   sodipodi:docname="u1b08f.svg"
   id="svg6"
   height="200"
   width="200"
   viewBox="0 0 200 200"
   version="1.1">
  <metadata
     id="metadata12">
    <rdf:RDF>
      <cc:Work
         rdf:about="">
        <dc:format>image/svg+xml</dc:format>
        <dc:type
           rdf:resource="http://purl.org/dc/dcmitype/StillImage" />
      </cc:Work>
    </rdf:RDF>
  </metadata>
  <defs
     id="defs10" />
  <sodipodi:namedview
     inkscape:current-layer="svg6"
     inkscape:window-maximized="1"
     inkscape:window-y="28"
     inkscape:window-x="0"
     inkscape:cy="96.922465"
     inkscape:cx="41.196845"
     inkscape:zoom="1.9905056"
     showgrid="false"
     id="namedview8"
     inkscape:window-height="846"
     inkscape:window-width="1440"
     inkscape:pageshadow="2"
     inkscape:pageopacity="0"
     guidetolerance="10"
     gridtolerance="10"
     objecttolerance="10"
     borderopacity="1"
     bordercolor="#666666"
     pagecolor="#ffffff" />
  <g
     id="g4"
     fill="black">
    <path
       sodipodi:nodetypes="csscccssscccscsccscccacccccsscsscccccssccccccccsccssssssccsssscscccc"
       d="m 101.8253,35.809738 c 16.98618,-4.175681 36.68848,-6.46334 51.66845,-1.728677 13.34036,4.216437 18.55628,14.513464 14.72909,27.335005 -1.46755,4.916448 -2.87992,8.331496 -6.32607,11.614949 2.96349,5.879108 4.25129,15.7854 1.08204,21.940963 -2.46046,4.825889 -6.58814,8.634582 -11.08809,11.584612 14.81035,1.28121 9.61967,27.61237 6.71429,35.85283 -2.44183,6.92572 -5.98254,13.44277 -10.26418,19.41203 -2.55682,3.56459 -5.50765,7.07879 -8.96981,9.73104 C 125.07847,182.50154 108.03308,183.39801 87.621876,159.0644 79.509466,166.0351 66.137012,176.60391 55.9,181.8 l -6.1,-12.6 c 15.649426,-7.64058 29.36525,-19.18636 39.333306,-33.47774 2.328962,-3.33907 4.434898,-6.85471 6.411646,-10.41615 -10.391242,0.34661 -32.28466,11.77336 -39.005187,3.54402 -6.290648,-7.70295 -0.840884,-17.68609 3.53631,-22.8192 3.510656,2.36061 7.613269,5.30846 11.123925,7.66907 -3.283178,3.52241 1.486555,1.62339 3.648043,1.21613 9.273865,-1.74734 18.548007,-3.48597 27.866487,-4.97198 0.88318,-1.95126 -5.47902,-2.22714 -6.909786,-2.8263 C 95.893316,102.43203 96,98.538608 96,93 c 8.99121,-0.07789 13.61068,2.235695 18.52602,6.567798 2.2511,1.983992 4.65969,6.069272 4.05004,8.039292 2.7146,-0.32241 7.97711,-0.82137 10.69287,-1.13301 -0.5006,-2.0712 -0.53289,-2.29148 -1.10281,-4.82863 C 135.22117,99.056088 145.9639,95.436932 150.4,89 c 1.17134,-2.312759 1.54895,-2.825509 1.26166,-4.632226 -11.1508,7.442 -27.87407,12.314784 -40.77731,9.677249 C 97.44387,91.297671 97.038189,75.621598 106.215,68.087997 c 12.52159,-10.279459 36.98636,-15.013121 46.93223,-6.754274 1.34964,-3.285852 3.52275,-10.6383 -0.46327,-12.520753 -7.83749,-3.701358 -16.9003,-3.807499 -25.33318,-3.033866 -8.3352,0.764672 -20.77956,1.457963 -27.787541,5.35334 -4.06224,12.066739 -10.261597,23.393913 -18.395553,33.201734 3.461298,3.163 7.631334,5.406029 12.032314,6.965822 -1.5,4.433333 -3,8.86667 -4.5,13.3 C 82.216583,102.25474 76.189506,98.762893 71.084536,94.11181 65.244762,98.849472 59.25444,104.42908 51.890351,105.8307 31.852157,109.64461 24.785397,93.048497 30.849984,76.602695 34.147948,67.659356 41.618291,59.862941 49.779197,55.168522 48.147204,49.540303 47.183557,43.768005 46.2,38 L 60,35.9 c 0.813986,4.103535 1.30895,8.277102 2.452722,12.308243 8.063155,-3.614246 16.494177,-6.333036 24.966231,-8.817599 C 88.234614,33.645692 87.876229,27.828262 87.1,22.1 l 13.7,-2.3 c 0.83295,5.440856 1.29141,10.901567 1.0253,16.009738 z M 146.5,119 c -11.32289,1.01451 -22.63749,2.0788 -33.90117,3.61704 -4.10485,9.05203 -9.22618,17.65313 -15.31509,25.51629 10.64488,11.74785 22.37116,23.48034 35.18993,10.70798 6.02394,-6.00213 10.38905,-13.5757 13.05894,-21.59096 1.86123,-5.58758 3.82203,-11.79347 2.04667,-17.61822 C 147.40929,119.07443 147.01769,118.95362 146.5,119 Z M 44.506925,80.452271 c -5.663506,11.713767 -0.04277,14.495605 8.345336,10.395548 3.124109,-1.527045 6.35145,-5.252123 9.1089,-7.369723 C 58.847166,78.956752 56.40989,73.9834 54.323282,68.909978 50.31773,72.052643 46.70541,75.905168 44.506925,80.452271 Z M 131.3,71.6 c -5.62991,1.011871 -11.17841,3.184728 -15.71837,6.69479 -1.47135,1.137569 -0.21165,1.998137 0.95829,2.069876 9.86108,0.604658 20.29118,-1.477538 27.94121,-8.03888 C 140.14309,70.876001 135.75143,70.799939 131.3,71.6 Z M 66.561825,61.787224 c 1.543719,3.89442 3.226349,7.722351 5.361407,11.333736 4.299727,-5.422351 8.123928,-11.311918 10.875561,-17.676833 -5.591892,1.886764 -11.731029,3.932232 -16.236968,6.343097 z"
       id="path2" />
  </g>
</svg>
