<?xml version="1.0" encoding="UTF-8" standalone="no"?>
<svg
   xmlns:dc="http://purl.org/dc/elements/1.1/"
   xmlns:cc="http://creativecommons.org/ns#"
   xmlns:rdf="http://www.w3.org/1999/02/22-rdf-syntax-ns#"
   xmlns:svg="http://www.w3.org/2000/svg"
   xmlns="http://www.w3.org/2000/svg"
   xmlns:sodipodi="http://sodipodi.sourceforge.net/DTD/sodipodi-0.dtd"
   xmlns:inkscape="http://www.inkscape.org/namespaces/inkscape"
   inkscape:version="1.0 (4035a4fb49, 2020-05-01)"
   sodipodi:docname="u1b082.svg"
   id="svg6"
   height="200"
   width="200"
   viewBox="0 0 200 200"
   version="1.1">
  <metadata
     id="metadata12">
    <rdf:RDF>
      <cc:Work
         rdf:about="">
        <dc:format>image/svg+xml</dc:format>
        <dc:type
           rdf:resource="http://purl.org/dc/dcmitype/StillImage" />
      </cc:Work>
    </rdf:RDF>
  </metadata>
  <defs
     id="defs10" />
  <sodipodi:namedview
     inkscape:current-layer="svg6"
     inkscape:window-maximized="1"
     inkscape:window-y="28"
     inkscape:window-x="0"
     inkscape:cy="114.48246"
     inkscape:cx="206.3866"
     inkscape:zoom="1.4075"
     showgrid="false"
     id="namedview8"
     inkscape:window-height="846"
     inkscape:window-width="1440"
     inkscape:pageshadow="2"
     inkscape:pageopacity="0"
     guidetolerance="10"
     gridtolerance="10"
     objecttolerance="10"
     borderopacity="1"
     bordercolor="#666666"
     pagecolor="#ffffff" />
  <g
     id="g4"
     fill="black">
    <path
       sodipodi:nodetypes="cccccssccssscccccccssccccccssssc"
       d="m 59.900391,15.099609 -10.59961,9.201172 C 61.155845,36.691694 70.566845,42.434953 90.623047,41.439453 73.146152,58.062128 56.692271,75.724416 40.400391,93.5 c 2.739867,3.479681 6.818234,7.22066 10.099609,10.80078 2.747346,-2.32927 5.351473,-4.839516 8.242188,-6.98828 3.884765,-2.887676 7.985103,-5.919409 12.71875,-7.169922 15.327268,-4.049088 24.532916,2.275051 25.697265,16.574222 -24.659649,9.01536 -42.613557,21.05409 -52.845703,36.27343 -6.062939,9.33655 -5.87021,24.25716 1.207031,32.26758 4.850674,5.49026 11.971317,8.31826 18.962891,7.25977 11.713026,-1.77329 23.58047,-6.94093 30.982422,-16.39258 14.508796,-18.52648 15.017986,-31.03598 16.322356,-50.34007 4.01336,-1.384 8.24213,-2.11076 12.4668,-2.53125 7.84556,-0.38655 16.61239,0.44022 22.75195,5.81445 4.38878,3.92125 4.4956,10.36262 3.39453,15.73242 -3.89453,11.79404 -14.44913,19.57867 -24.30078,26.29883 2.56667,3.9 5.1345,7.80117 7.70117,11.70117 2.81582,-1.97381 5.72581,-3.81975 8.36914,-6.02734 10.69616,-8.1611 20.87523,-19.01617 22.64453,-32.86328 2.07318,-16.22542 -8.16008,-29.32441 -22.73242,-32.91211 -9.6212,-2.368737 -21.61635,-1.805232 -31.20508,0.68945 C 109.68189,84.837736 94.744924,72.921584 77.306641,74.498047 92.49266,58.627769 108.34298,42.238286 128.19922,29.199219 c -1.85363,-4.016463 -4.4622,-8.319188 -6.5,-12.5 -20.67153,10.751336 -41.811823,17.645644 -61.798829,-1.59961 z M 97.422243,121.07851 c 0.03904,8.07824 -3.119014,19.91415 -7.129274,27.84337 -4.772561,9.43647 -13.730107,16.17593 -23.976563,18.74218 -3.408101,0.85357 -8.436168,1.91321 -10.591797,-2.14258 -3.562143,-6.70212 -0.717929,-14.70329 3.910157,-19.39648 6.866834,-6.96344 22.483449,-18.19533 37.787477,-25.04649 z"
       id="path2" />
  </g>
</svg>
