<?xml version="1.0" encoding="UTF-8" standalone="no"?>
<svg
   xmlns:dc="http://purl.org/dc/elements/1.1/"
   xmlns:cc="http://creativecommons.org/ns#"
   xmlns:rdf="http://www.w3.org/1999/02/22-rdf-syntax-ns#"
   xmlns:svg="http://www.w3.org/2000/svg"
   xmlns="http://www.w3.org/2000/svg"
   xmlns:sodipodi="http://sodipodi.sourceforge.net/DTD/sodipodi-0.dtd"
   xmlns:inkscape="http://www.inkscape.org/namespaces/inkscape"
   inkscape:version="1.0 (4035a4fb49, 2020-05-01)"
   sodipodi:docname="u1b084.svg"
   id="svg6"
   height="200"
   width="200"
   viewBox="0 0 200 200"
   version="1.1">
  <metadata
     id="metadata12">
    <rdf:RDF>
      <cc:Work
         rdf:about="">
        <dc:format>image/svg+xml</dc:format>
        <dc:type
           rdf:resource="http://purl.org/dc/dcmitype/StillImage" />
      </cc:Work>
    </rdf:RDF>
  </metadata>
  <defs
     id="defs10" />
  <sodipodi:namedview
     inkscape:current-layer="svg6"
     inkscape:window-maximized="1"
     inkscape:window-y="28"
     inkscape:window-x="0"
     inkscape:cy="100.65199"
     inkscape:cx="145.94925"
     inkscape:zoom="1.9905056"
     showgrid="false"
     id="namedview8"
     inkscape:window-height="846"
     inkscape:window-width="1440"
     inkscape:pageshadow="2"
     inkscape:pageopacity="0"
     guidetolerance="10"
     gridtolerance="10"
     objecttolerance="10"
     borderopacity="1"
     bordercolor="#666666"
     pagecolor="#ffffff" />
  <g
     id="g4"
     fill="black">
    <path
       sodipodi:nodetypes="ssscsssssssssssccsssssssssscccccsscccccsssccscccccccccsssssscs"
       d="m 50.781224,28.271599 c 13.470826,-2.295664 26.666893,-6.039857 37.970122,0.720962 5.086658,3.042491 6.064653,9.179363 5.517322,14.752593 -0.382999,3.899904 -0.570644,10.133107 -0.782109,14.046054 16.416701,-10.236906 32.180291,-21.789601 49.831671,-29.83227 4.95471,-2.257561 11.87899,-4.395026 15.95584,-2.52731 7.301,3.344786 8.20519,10.630777 3.20348,18.999622 -7.05881,11.810764 -11.36848,17.659897 -19.93172,27.986392 -2.27233,2.740223 -2.75624,3.356874 1.35417,2.382358 5.65076,-1.33971 11.35225,-2.182369 17.15282,-2.147752 6.52522,0.03894 13.87992,2.753369 16.59627,8.883639 4.16088,9.390278 3.75755,18.728503 1.27401,27.144243 -2.04198,6.91948 -8.23353,12.84295 -14.29927,17.20246 -11.55837,8.30711 -25.23877,12.99407 -38.00951,18.94595 -3.13169,1.45954 1.09577,4.73113 2.79843,5.96628 10.98154,7.96623 25.85734,11.97 38.64135,16.05867 -1.2317,4.28694 -1.9277,9.12209 -3.48892,13.70975 -14.25111,-4.51939 -28.22544,-10.01789 -41.50053,-17.13898 -18.6423,-10.0002 -13.07966,-24.35205 -2.74085,-29.90274 6.88806,-3.69806 31.90971,-12.70524 42.1595,-24.36542 4.02591,-4.57988 4.30799,-10.981386 4.34468,-16.706195 0.0213,-3.321135 -2.46514,-5.969947 -5.83827,-5.76714 -6.85892,0.412387 -11.3418,1.786139 -18.54268,2.936698 -10.68981,1.708022 -18.34131,-5.38623 -16.65496,-14.589584 1.43782,-7.846973 6.12299,-10.3898 13.0525,-19.849142 2.97022,-4.054588 5.91102,-8.119823 8.73721,-12.27402 0.9683,-1.423306 0.35888,-1.681567 -1.01404,-0.997056 -14.70449,7.331346 -28.26122,16.76292 -42.16504,25.474311 -3.89382,2.515263 -7.787645,5.030526 -11.681466,7.54579 C 91.584267,105.13892 91.43055,135.39953 92.9,165.6 c -2.317926,2.33586 -5.987053,9.47842 -7.949588,12.39613 C 74.491863,170.57419 65.404325,163.71488 55.556658,155.4956 44.726709,170.69182 22.234681,169.95227 19.295609,150.40912 17.588897,139.06046 21.680394,125.75611 27.24378,117.25276 33.303047,107.99149 41.574256,97.265427 47.797443,91.969082 44.686069,83.074982 40.538707,72.850383 34.047444,68.753463 L 41.4,56.5 c 9.37524,8.081496 13.866798,14.500124 17.54607,25.605925 6.433493,-5.237392 13.413944,-9.797125 20.061885,-14.768824 0.285358,-7.031134 0.488432,-14.070221 1.05797,-21.084145 0.189907,-2.338731 -0.635694,-5.94833 -3.180033,-6.486819 C 63.720918,36.979875 54.77829,45.026394 39.802981,40.533314 33.779285,38.726009 28.957163,33.9279 25.6,28.6 L 37.4,21 c 2.979687,4.305003 9.385918,7.952469 13.381224,7.271599 z M 69.1,91.7 62.948554,97.212335 c 1.213953,6.442935 1.772368,13.069785 1.892005,19.621935 0.02968,6.74359 -0.26702,13.45576 -1.784795,20.05038 -0.540919,5.06992 -3.033378,9.61228 -4.613936,14.40116 L 65.2,145.3 c 3.894348,4.29644 8.511797,7.88107 13.268732,11.17154 C 77.66592,132.66262 77.59844,108.82723 78.385457,85.016265 Z M 43,118.1 c -3.792142,5.58206 -7.233159,11.40237 -9.18632,17.95622 -1.307464,4.38721 -1.952411,9.1855 -0.545384,13.59794 0.881423,2.76414 3.938471,3.65697 6.335169,2.36965 2.964789,-1.59246 4.980634,-4.4475 6.412165,-7.27907 2.742495,-5.42466 3.902209,-11.41485 4.463209,-17.43124 0.554822,-5.95014 0.707449,-12.00128 -0.05182,-17.95933 C 47.951343,112.26945 45.149212,114.93635 43,118.1 Z"
       id="path2" />
  </g>
</svg>
