<?xml version="1.0" encoding="UTF-8" standalone="no"?>
<svg
   xmlns:dc="http://purl.org/dc/elements/1.1/"
   xmlns:cc="http://creativecommons.org/ns#"
   xmlns:rdf="http://www.w3.org/1999/02/22-rdf-syntax-ns#"
   xmlns:svg="http://www.w3.org/2000/svg"
   xmlns="http://www.w3.org/2000/svg"
   xmlns:sodipodi="http://sodipodi.sourceforge.net/DTD/sodipodi-0.dtd"
   xmlns:inkscape="http://www.inkscape.org/namespaces/inkscape"
   inkscape:version="1.0 (4035a4fb49, 2020-05-01)"
   sodipodi:docname="u1b087.svg"
   id="svg6"
   height="200"
   width="200"
   viewBox="0 0 200 200"
   version="1.1">
  <metadata
     id="metadata12">
    <rdf:RDF>
      <cc:Work
         rdf:about="">
        <dc:format>image/svg+xml</dc:format>
        <dc:type
           rdf:resource="http://purl.org/dc/dcmitype/StillImage" />
      </cc:Work>
    </rdf:RDF>
  </metadata>
  <defs
     id="defs10" />
  <sodipodi:namedview
     inkscape:current-layer="svg6"
     inkscape:window-maximized="1"
     inkscape:window-y="28"
     inkscape:window-x="0"
     inkscape:cy="104.36586"
     inkscape:cx="94.717819"
     inkscape:zoom="2.815"
     showgrid="false"
     id="namedview8"
     inkscape:window-height="846"
     inkscape:window-width="1440"
     inkscape:pageshadow="2"
     inkscape:pageopacity="0"
     guidetolerance="10"
     gridtolerance="10"
     objecttolerance="10"
     borderopacity="1"
     bordercolor="#666666"
     pagecolor="#ffffff" />
  <g
     id="g4"
     fill="black">
    <path
       sodipodi:nodetypes="sccccsscsssscssccssscccsssccsssccscccsccccccc"
       d="m 139.8992,45.886814 c 3.0781,21.170513 3.18695,42.631036 3.1712,63.976436 12.56071,1.82294 23.78635,6.72103 34.8296,10.73675 -1.96667,4.23333 -3.93333,8.46667 -5.9,12.7 -10.34874,-4.04466 -20.45285,-7.80006 -29.29944,-9.84446 -1.1832,22.37593 -3.69034,33.26455 -7.95413,44.05025 -5.88775,14.89365 -26.43082,11.77041 -38.295111,3.02389 -7.153834,-5.2739 -11.728112,-9.13621 -18.13672,-15.62405 -4.456405,3.46719 -9.900782,6.08222 -15.343958,7.24208 -4.934736,1.05152 -9.958837,1.22842 -15.023289,0.21098 -12.545479,-2.52035 -20.776437,-14.87587 -12.076887,-27.8629 2.685214,-4.00859 6.379698,-7.18763 10.570018,-9.65641 4.682518,-2.75876 9.362384,-5.37613 14.452022,-7.25693 -3.233875,-12.67973 1.508204,-32.209675 10.866677,-38.262041 4.892225,-3.163928 11.920217,-4.430763 16.863803,-1.046198 10.149067,6.948433 11.628135,19.002792 12.127425,29.495679 10.84859,-1.17441 18.96045,-0.2056 28.33935,-0.29234 -0.0632,-19.750484 0.22882,-39.669277 -2.97787,-59.200471 -0.59727,-3.637843 -1.01491,-7.655197 -4.56127,-9.93117 -2.12029,-1.360751 -3.99666,-1.781522 -6.60822,-1.740897 C 96.981117,36.884415 75.766202,52.359451 64.493623,47.989979 57.65747,44.231389 51.760143,36.526068 53.961606,26.247268 58.630889,27.859944 62.312023,28.405517 67.4,29.8 c -0.719138,2.587195 1.774016,4.986438 4.901445,4.190645 15.316219,-3.897305 29.586785,-11.194517 46.649405,-11.939798 13.56131,-0.592346 19.29848,12.488511 20.94835,23.835967 z M 98.816216,121.97351 c -2.606349,11.8735 -5.262844,16.13133 -9.771049,23.0439 3.216949,3.79831 6.588352,7.67553 10.519962,10.72092 3.959411,3.06693 8.146131,5.69384 13.018911,7.26393 2.40046,0.77347 5.48564,1.5373 7.33519,0.10668 5.66792,-4.38413 9.56323,-30.25445 8.75302,-41.29504 -10.19438,-0.92354 -21.06549,-1.3448 -29.856034,0.15961 z M 59.4,133.3 c -21.318945,9.71903 -13.633639,21.90168 5.255332,13.54722 2.025423,-0.79059 5.213894,-2.32616 5.916544,-3.87387 -2.163399,-3.83463 -3.814495,-7.96672 -5.77735,-11.91779 C 62.996351,131.80371 61.172137,132.49211 59.4,133.3 Z m 18.58861,-6.974 c 0.738995,2.07445 1.495112,3.33014 2.626583,6.0551 1.378067,-1.88789 3.230922,-5.65022 4.281188,-8.58395 z m -3.935768,-13.37812 c 4.34074,-1.14879 8.676236,-2.32477 13.02022,-3.45675 1.549923,-31.216919 -17.824527,-14.750666 -13.02022,3.45675 z"
       id="path2" />
  </g>
</svg>
