<?xml version="1.0" encoding="UTF-8" standalone="no"?>
<svg
   xmlns:dc="http://purl.org/dc/elements/1.1/"
   xmlns:cc="http://creativecommons.org/ns#"
   xmlns:rdf="http://www.w3.org/1999/02/22-rdf-syntax-ns#"
   xmlns:svg="http://www.w3.org/2000/svg"
   xmlns="http://www.w3.org/2000/svg"
   xmlns:sodipodi="http://sodipodi.sourceforge.net/DTD/sodipodi-0.dtd"
   xmlns:inkscape="http://www.inkscape.org/namespaces/inkscape"
   inkscape:version="1.0 (4035a4fb49, 2020-05-01)"
   sodipodi:docname="u1b081.svg"
   id="svg6"
   height="200"
   width="200"
   viewBox="0 0 200 200"
   version="1.1">
  <metadata
     id="metadata12">
    <rdf:RDF>
      <cc:Work
         rdf:about="">
        <dc:format>image/svg+xml</dc:format>
        <dc:type
           rdf:resource="http://purl.org/dc/dcmitype/StillImage" />
      </cc:Work>
    </rdf:RDF>
  </metadata>
  <defs
     id="defs10" />
  <sodipodi:namedview
     inkscape:current-layer="svg6"
     inkscape:window-maximized="1"
     inkscape:window-y="28"
     inkscape:window-x="0"
     inkscape:cy="105.81009"
     inkscape:cx="139.67201"
     inkscape:zoom="2.815"
     showgrid="false"
     id="namedview8"
     inkscape:window-height="846"
     inkscape:window-width="1440"
     inkscape:pageshadow="2"
     inkscape:pageopacity="0"
     guidetolerance="10"
     gridtolerance="10"
     objecttolerance="10"
     borderopacity="1"
     bordercolor="#666666"
     pagecolor="#ffffff" />
  <g
     id="g4"
     fill="black">
    <path
       sodipodi:nodetypes="scccccccssccssccccccccsccscssccssccccccc"
       d="m 104.63367,36.964524 c 1.3046,4.080734 0.20772,9.272953 -1.41697,12.310562 C 109.81912,49.158672 120.01211,46.340604 126.5,42.9 L 133.4,55 C 122.09623,61.453935 108.83545,63.695406 95.943718,63.167186 92.482063,70.237309 89.124672,77.38009 86.474359,84.8 c 7.490965,-0.12769 15.091551,1.459644 21.758961,4.888879 6.07702,3.037185 11.26425,7.69977 14.9014,13.437861 4.88006,7.6024 7.94314,16.47341 8.50916,25.45116 1.34389,21.31582 -7.85503,50.69514 -38.158637,49.97612 C 80.339904,178.24212 69.284234,169.79408 61.3,160.2 l 10.6,-9 c 5.804451,6.40971 16.544295,13.37989 22.3,13.4 19.72332,0.0689 25.69811,-25.81573 22.75408,-39.25598 -2.01035,-9.17779 -6.19974,-18.96776 -15.08724,-23.2727 C 93.319648,97.776543 83.314677,98.327485 74.1,99.7 L 71.810861,85.965166 C 70.997965,84.302243 73.203747,81.081291 73.681626,78.89313 75.784968,72.97575 78.475455,67.296727 81.122325,61.60896 72.158566,60.037787 63.358162,57.685713 54.7,54.9 l 4.4,-13.3 c 9.360845,3.098559 18.943419,5.686504 28.755713,6.826686 0.882813,-1.426221 3.671809,-4.729376 3.028455,-7.09696 C 89.864376,37.576826 85.367401,36.96986 82,37 V 23 c 10.791017,0.452784 19.4625,4.045238 22.63367,13.964524 z M 87.4,140.1 C 69.868461,150.33593 49.656803,168.92236 31.821792,164.04688 23.023969,161.64185 20.402149,150.3476 24.966527,141.90654 26.400138,139.25531 28.278808,136.90106 30.3,134.7 l 9.9,9.9 c -1.508849,1.69722 -3.583878,3.77081 -3.398341,6.14316 0.08482,1.08459 1.168594,0.95206 1.834654,0.75996 C 53.548342,147.20236 66.519062,138.09549 78.9,129 Z m 92.87291,4.87399 c -4.81434,2.19314 -8.53601,3.83759 -12.87291,5.52601 -4.08879,-10.59994 -11.52929,-22.41162 -22.91291,-26.33937 1.49264,-5.33924 2.12489,-8.6114 3.45524,-13.45401 17.04256,3.36051 27.33993,22.27642 32.33058,34.26737 z"
       id="path2" />
  </g>
</svg>
