<svg xmlns="http://www.w3.org/2000/svg" width="1000" height="1000" viewBox="0 0 1000 1000" version="1.1">
	<path d="M 620.661 96.523 C 605.350 98.900, 592.586 101.080, 592.298 101.368 C 592.010 101.656, 592.715 109.454, 593.864 118.696 C 598.243 153.910, 602.369 202.402, 603.614 233.279 L 604.268 249.500 596.384 253.923 C 524.756 294.110, 420.624 372.586, 329.695 454.907 C 322.653 461.283, 316.533 466.628, 316.095 466.783 C 314.351 467.405, 311.616 414.824, 311.555 379.500 C 311.520 358.999, 311.966 343.727, 312.797 337 C 320.611 273.769, 342.579 203.648, 374.542 139.916 C 377.623 133.772, 379.775 128.384, 379.322 127.942 C 378.301 126.946, 326.825 97.928, 325.638 97.680 C 324.272 97.394, 308.954 128.525, 299.157 151.500 C 268.475 223.447, 251.825 288.535, 247.803 352.249 C 246.070 379.692, 248.719 439.707, 254.506 504.129 C 255.328 513.274, 256 521.897, 256 523.289 C 256 525.167, 252.609 529.399, 242.882 539.661 C 215.775 568.258, 187.664 601.584, 171.275 624.552 C 146.772 658.890, 132.909 689.099, 126.324 722.500 C 123.604 736.300, 123.886 765.027, 126.880 779 C 130.079 793.930, 133.189 802.788, 140.049 816.500 C 148.083 832.558, 157.073 844.958, 171.396 859.735 C 190.314 879.254, 212.281 895.209, 237.870 908.015 C 257.370 917.773, 258.088 917.971, 282.860 920.399 C 297.947 921.879, 305.333 922.251, 305.568 921.546 C 305.759 920.971, 308.388 910.150, 311.411 897.500 C 319.658 862.979, 324.853 834.292, 329.430 798 C 337.377 734.974, 336.951 700.010, 326.944 594 C 325.309 576.675, 323.691 559.490, 323.348 555.811 L 322.724 549.122 336.112 536.257 C 398.428 476.374, 467.622 418.518, 535 369.954 C 559.402 352.365, 603.487 323, 605.489 323 C 606.291 323, 606.035 356.104, 605.029 382.500 L 604.114 406.500 586.770 423.500 C 559.595 450.135, 527.224 479.032, 494 506.313 C 483.275 515.120, 474.396 522.393, 474.270 522.476 C 474.078 522.602, 507.875 599.132, 508.362 599.677 C 508.449 599.774, 516.840 594.240, 527.010 587.379 C 537.179 580.518, 551.125 572.048, 558 568.556 C 574.617 560.117, 593.151 551.817, 593.840 552.507 C 594.145 552.812, 592.934 567.965, 591.148 586.181 C 589.362 604.397, 588.260 619.659, 588.700 620.097 C 589.140 620.536, 598.594 625.865, 609.708 631.941 L 629.917 642.986 643.323 634.188 C 681.018 609.450, 722.960 594, 752.421 594 C 768.546 594, 778.471 597.706, 789.037 607.674 C 831.484 647.716, 836.602 736.989, 800.090 800.442 C 794.714 809.784, 785.817 821.907, 780.780 826.753 L 777.398 830.006 760.446 813.253 C 721.187 774.456, 689.235 753.919, 653.045 744.224 C 644.777 742.008, 641.359 741.656, 627.500 741.593 C 613.661 741.529, 610.427 741.828, 603.557 743.809 C 575.723 751.836, 555.472 772.999, 549.482 800.320 C 547.388 809.872, 547.866 830.289, 550.395 839.354 C 555.236 856.702, 563.910 871.106, 577.912 885.047 C 602.042 909.072, 634.839 922.456, 678.500 926.094 C 748.582 931.934, 808.377 902.928, 848.128 843.810 C 868.772 813.108, 882.614 773.430, 887.049 732.243 C 888.854 715.477, 887.803 680.871, 885.006 665 C 879.104 631.511, 865.551 599.848, 847.436 577.227 C 839.662 567.520, 826.252 554.603, 818.463 549.319 C 781.724 524.396, 732.354 523.760, 672.521 547.438 C 664.870 550.466, 658.556 552.843, 658.490 552.722 C 658.425 552.600, 658.802 546.987, 659.328 540.249 L 660.285 527.998 670.086 524.974 C 725.979 507.726, 793.410 500.559, 852.307 505.607 C 862.652 506.493, 871.343 506.991, 871.621 506.712 C 871.900 506.434, 872.383 492.322, 872.694 475.353 L 873.261 444.500 860.898 434.500 C 841.508 418.817, 814.236 390.451, 802.668 373.937 C 801.206 371.849, 800.664 372.190, 776.144 390.653 C 762.377 401.019, 751.088 409.954, 751.057 410.509 C 751.009 411.357, 761.605 424.849, 772.318 437.579 L 775.136 440.928 772.818 441.401 C 771.543 441.661, 764.875 442.374, 758 442.985 C 734.290 445.093, 699.258 451.204, 675.033 457.457 C 669.827 458.801, 665.480 459.810, 665.374 459.700 C 665.268 459.590, 665.524 453.775, 665.942 446.778 L 666.703 434.055 675.601 424.384 C 714.559 382.042, 737.958 350.295, 752.005 320.722 C 760.728 302.357, 764.182 289.036, 764.250 273.500 C 764.304 261.010, 762.253 252.215, 756.878 241.883 C 747.369 223.604, 729.905 214, 706.177 214 C 695.750 214, 680.751 216.412, 672.015 219.495 C 669.635 220.334, 667.544 220.878, 667.369 220.702 C 667.193 220.526, 666.126 207.809, 664.997 192.441 C 662.763 162.028, 660.086 134.384, 656.985 109.688 C 655.893 100.992, 655 93.454, 655 92.938 C 655 91.438, 650.176 91.942, 620.661 96.523 M 691 280.332 C 683.115 282.671, 672.037 286.849, 670.730 287.976 C 670.306 288.341, 670.081 298.502, 670.230 310.556 L 670.500 332.473 679.170 319.486 C 689.406 304.155, 693.980 295.957, 697.452 286.727 C 700.138 279.588, 700.474 277.966, 699.250 278.054 C 698.837 278.083, 695.125 279.108, 691 280.332 M 262.495 612.392 C 261.948 613.157, 256.969 619.120, 251.431 625.642 C 213.332 670.512, 193.830 704.733, 188.960 735.261 C 187.453 744.709, 188.193 763.037, 190.424 771.500 C 192.604 779.771, 200.905 796.151, 206.976 804.160 C 214.832 814.524, 230.805 829.037, 244.155 837.941 C 250.801 842.373, 256.555 846, 256.941 846 C 257.328 846, 259.066 837.337, 260.803 826.750 C 272.319 756.580, 273.681 719.221, 267.449 644.500 C 266.624 634.600, 265.668 623.013, 265.326 618.750 C 264.693 610.870, 264.267 609.913, 262.495 612.392 M 617 806.752 C 607.087 811.704, 610.845 829.351, 624.433 841.659 C 636.019 852.153, 655 859.372, 678.072 862.059 C 689.422 863.381, 715.578 862.822, 717.176 861.224 C 718.201 860.199, 702.909 845.442, 690.500 835.480 C 673.310 821.681, 652.578 809.964, 639.356 806.575 C 631.098 804.458, 621.438 804.535, 617 806.752 " stroke="none" fill="black" fill-rule="evenodd"/>
</svg>