<svg xmlns="http://www.w3.org/2000/svg" width="1000" height="1000" viewBox="0 0 1000 1000" version="1.1">
	<path d="M 395.531 96.040 C 380.148 101.951, 366.928 107.186, 366.155 107.674 C 365.010 108.397, 366.653 113.673, 374.988 136.031 C 400 203.128, 447 337.903, 447 342.528 C 447 344.715, 410.520 352.419, 392.804 353.974 C 350.966 357.645, 301.583 340.940, 259.237 308.792 C 253.592 304.506, 248.642 301.038, 248.237 301.085 C 247.263 301.198, 206.103 345.208, 205.763 346.500 C 205.336 348.124, 227.043 364.926, 241.301 374.008 C 256.832 383.901, 278.195 394.918, 293.216 400.783 C 344.893 420.957, 391.436 423.220, 450.006 408.406 C 457.978 406.389, 465.106 404.686, 465.846 404.620 C 469.708 404.276, 506.649 537.876, 517.382 591 C 528.012 643.613, 539.316 732.071, 542.621 788.500 L 543.323 800.500 535.822 793.494 C 523.883 782.345, 512.706 773.137, 495 759.865 C 473.734 743.926, 443.492 723.578, 442.228 724.359 C 441.387 724.879, 409.041 774.966, 408.643 776.364 C 408.564 776.640, 416.825 782.586, 427 789.576 C 484.800 829.288, 508.990 852.304, 544.422 901.295 C 552.391 912.314, 557.647 918.724, 558.358 918.294 C 558.986 917.915, 569.951 909.772, 582.724 900.198 C 603.888 884.335, 606.017 882.468, 606.724 879.146 C 608.246 871.994, 607.496 796.798, 605.675 774 C 600.994 715.373, 591.830 642.148, 583.399 596 C 574.961 549.812, 553.323 466.479, 532.193 398.797 L 527.291 383.093 535.927 379.637 C 561.364 369.456, 607.283 347.876, 635 333.077 C 659.023 320.251, 681 307.717, 681 306.843 C 681 305.988, 650.398 255.027, 649.087 253.698 C 648.652 253.257, 640.242 257.438, 630.398 262.989 C 590.302 285.599, 510.196 323.750, 507.971 321.296 C 507.573 320.858, 506.007 316.675, 504.491 312 C 487.503 259.640, 426.619 88.378, 424.110 85.896 C 423.775 85.564, 410.914 90.128, 395.531 96.040 M 821.794 259.816 C 807.105 267.386, 794.810 273.857, 794.471 274.196 C 794.131 274.535, 794.979 278.376, 796.355 282.730 C 807.266 317.269, 803.943 353.438, 786.728 387.527 C 771.124 418.426, 739.612 451.651, 701.923 476.940 C 695.556 481.213, 687.343 486.388, 683.673 488.440 C 680.003 490.493, 677 492.362, 677 492.593 C 677 493.898, 705.143 549, 705.810 549 C 707.337 549, 733.307 532.969, 743.386 525.806 C 814.100 475.543, 854.837 416.678, 864.448 350.872 C 866.429 337.308, 866.446 309.924, 864.483 296 C 861.797 276.951, 852.523 245.950, 849.533 246.026 C 848.965 246.041, 836.482 252.246, 821.794 259.816 M 132.479 577.034 C 132.111 577.629, 131.569 590.578, 131.275 605.808 C 130.266 658.052, 135.225 696.287, 146.868 726.049 C 159.044 757.173, 185.516 800.491, 215.796 838.840 L 217.644 841.179 242.223 820.924 L 266.803 800.668 259.047 790.584 C 243.157 769.925, 224.441 740.767, 214.891 721.792 C 204.738 701.618, 200.681 688.632, 197.307 665.500 C 195.902 655.867, 195.551 646.454, 195.528 617.774 L 195.500 582.048 191.500 581.529 C 189.300 581.244, 177.375 580.115, 165 579.021 C 152.625 577.927, 140.396 576.789, 137.824 576.491 C 134.972 576.162, 132.887 576.373, 132.479 577.034 " stroke="none" fill="black" fill-rule="evenodd"/>
</svg>