<svg xmlns="http://www.w3.org/2000/svg" width="1000" height="1000" viewBox="0 0 1000 1000" version="1.1">
	<path d="M 592 109.093 C 545.616 119.553, 492.022 127.731, 448 131.064 C 412.990 133.716, 351.567 127.106, 290.702 114.137 C 280.914 112.052, 272.703 110.671, 272.457 111.069 C 272.211 111.467, 268.703 125.332, 264.661 141.879 C 258.309 167.879, 257.528 172.032, 258.906 172.465 C 267.755 175.244, 322.521 185.371, 348 188.940 C 386.916 194.392, 434.210 196.550, 460.530 194.075 C 467.507 193.419, 473.369 193.036, 473.557 193.224 C 473.745 193.411, 468.859 197.369, 462.699 202.019 C 432.569 224.764, 391.998 258.434, 361.537 285.973 C 314.840 328.191, 252.233 394.345, 177.439 480.500 C 146.301 516.369, 95.032 577.589, 94.228 579.864 C 93.904 580.780, 144.597 628.500, 145.895 628.500 C 146.386 628.500, 152.526 621.075, 159.539 612 C 176.550 589.985, 188.537 576.412, 211.946 552.656 C 242.778 521.367, 270.606 496.776, 302 473.076 C 320.574 459.054, 335.075 448.742, 335.550 449.217 C 335.741 449.407, 333.440 456.217, 330.438 464.350 C 323.335 483.596, 314.928 511.503, 310.534 530.425 C 304.562 556.137, 302.954 568.923, 302.094 597.500 C 301.317 623.350, 302.257 704.159, 303.588 725.858 L 304.285 737.216 313.393 736.614 C 318.402 736.283, 332.400 735.505, 344.500 734.886 C 356.600 734.266, 366.783 733.476, 367.128 733.130 C 367.474 732.783, 367.394 723.950, 366.952 713.500 C 366.509 703.050, 365.840 674.925, 365.465 651 C 364.473 587.853, 365.836 571.367, 375.036 535.181 C 379.560 517.389, 390.453 484.538, 397.957 466.055 C 400.736 459.210, 402.670 453.286, 402.255 452.890 C 401.840 452.493, 391.911 447.920, 380.191 442.727 L 358.883 433.286 373.691 424.448 C 392.620 413.151, 436.386 391.033, 454.500 383.609 C 499.356 365.226, 543.507 352.921, 585.823 347.010 C 616.244 342.760, 662.867 341.613, 687.500 344.509 C 729.941 349.497, 763.660 364.590, 789.045 389.961 C 813.217 414.119, 827.346 444.225, 834.587 487 C 836.773 499.915, 837.615 539.158, 836.060 555.696 C 829.658 623.782, 803.340 698.658, 767.237 751.500 C 749.046 778.125, 728.817 797.507, 713.832 802.670 C 709.052 804.317, 700.601 803.823, 690 801.276 C 667.315 795.827, 642.125 777.898, 622 752.878 C 613.893 742.801, 603.649 728.122, 600.621 722.245 L 598.944 718.991 572.298 732.669 C 557.643 740.192, 545.892 745.706, 546.185 744.924 C 546.478 744.141, 548.405 738.699, 550.467 732.831 L 554.216 722.161 567.037 714.439 C 592.155 699.312, 612.592 682.074, 621.983 668.094 C 634.910 648.851, 643.533 621.930, 647.638 588 C 650.003 568.459, 649.991 528.370, 647.615 507.685 C 642.787 465.646, 633.315 433.006, 620.401 413.898 C 606.098 392.735, 579.698 380.050, 549.881 380.013 C 530.959 379.990, 514.136 384.255, 494.610 394.027 C 483.496 399.590, 466.500 410.975, 466.500 412.859 C 466.500 413.516, 475.656 424.590, 486.846 437.469 L 507.191 460.885 512.846 457.058 C 531.272 444.587, 549.278 440.538, 561.902 446.028 C 566.973 448.233, 567.505 448.812, 570.579 455.465 C 585.665 488.117, 590.520 560.396, 580.510 603.335 C 578.175 613.352, 573.512 625.525, 569.774 631.362 L 566.500 636.475 565.803 631.487 C 565.419 628.744, 564.377 621.610, 563.486 615.633 C 556.708 570.139, 531.381 537.441, 496.818 529.562 C 486.026 527.102, 477.197 526.727, 468.817 528.371 C 437.022 534.608, 417.031 563.493, 408.050 616.173 C 404.465 637.206, 402.865 661.443, 402.879 694.500 L 402.893 725.500 407.940 750.410 C 410.716 764.110, 413.102 775.425, 413.243 775.554 C 413.384 775.683, 416.200 774.981, 419.500 773.994 C 427.303 771.659, 456.927 762.923, 459.453 762.211 C 462.454 761.365, 454.037 770.872, 443.500 780.230 C 418.909 802.068, 389.837 819.987, 359.500 832.005 C 352.350 834.837, 346.127 837.515, 345.672 837.956 C 345.216 838.396, 346.322 852.986, 348.129 870.378 C 351.258 900.484, 351.513 902, 353.458 901.996 C 354.581 901.993, 394.650 898.856, 442.500 895.025 C 490.350 891.193, 539.175 887.303, 551 886.380 C 562.825 885.456, 572.830 884.416, 573.232 884.068 C 573.635 883.720, 572.852 869.787, 571.492 853.106 C 570.132 836.425, 569.267 822.377, 569.569 821.889 C 570.316 820.680, 571.159 820.635, 530 824 C 509.925 825.641, 492.127 826.988, 490.448 826.992 C 487.503 827, 487.749 826.641, 497.448 816.746 C 514.829 799.016, 527.688 781.598, 537.989 761.831 L 543.549 751.163 549.170 760.331 C 574.229 801.206, 607.718 833.833, 642.500 851.259 C 662.888 861.473, 680.210 865.892, 703.035 866.701 C 720.476 867.319, 727.739 866.081, 742.348 859.999 C 760.658 852.377, 785.988 831.265, 804.738 808 C 852.016 749.336, 887.973 658.697, 898.557 571.500 C 899.425 564.350, 900.393 548.540, 900.709 536.366 C 904.156 403.488, 838.486 311.299, 722.028 285.529 C 703.905 281.518, 687.631 279.871, 660.500 279.302 C 610.998 278.264, 566.422 283.322, 518 295.470 C 480.781 304.807, 452.651 314.792, 405.500 335.400 L 399.500 338.023 406.500 331.364 C 426.375 312.458, 476.967 270.848, 511 245.417 C 548.830 217.149, 590.740 188.848, 619 172.489 C 626.425 168.191, 633.068 164.163, 633.762 163.539 C 634.764 162.638, 633.006 156.431, 625.262 133.518 C 619.893 117.631, 615.050 104.545, 614.500 104.438 C 613.950 104.332, 603.825 106.427, 592 109.093 M 478.660 597.823 C 475.254 605.412, 471.451 621.470, 469.501 636.500 C 467.869 649.078, 465.404 690.737, 466.242 691.576 C 466.834 692.167, 493.883 680.962, 497.356 678.686 C 500.670 676.515, 501.529 669.268, 501.406 644.500 C 501.326 628.357, 500.987 624.297, 499.150 617.500 C 495.215 602.939, 488.313 592, 483.060 592 C 481.848 592, 480.432 593.873, 478.660 597.823 " stroke="none" fill="black" fill-rule="evenodd"/>
</svg>