<svg xmlns="http://www.w3.org/2000/svg" width="1000" height="1000" viewBox="0 0 1000 1000" version="1.1">
	<path d="M 557 96.671 C 556.175 96.953, 548.300 99.827, 539.500 103.059 C 497.164 118.605, 451.117 131.574, 418.443 137.155 C 384.864 142.890, 334.340 137.947, 271.714 122.799 C 262.482 120.566, 254.696 118.971, 254.413 119.254 C 253.700 119.966, 236.993 179.327, 237.393 179.726 C 238.097 180.430, 274.380 189.055, 288.500 191.875 C 320.131 198.192, 346.399 201.751, 368.250 202.682 C 376.363 203.028, 383 203.519, 383 203.773 C 383 204.027, 378.107 209.325, 372.127 215.546 C 366.147 221.766, 357.551 231.276, 353.025 236.678 C 311.820 285.865, 260.342 373.679, 216.540 469.500 C 211.764 479.950, 207.026 490.300, 206.012 492.500 C 204.998 494.700, 201.021 503.925, 197.173 513 C 168.367 580.945, 147.596 640.242, 136.557 686.050 C 130.520 711.099, 117.557 794.033, 113.634 832.697 L 113.107 837.893 117.303 838.404 C 122.624 839.052, 176.118 841.227, 176.489 840.810 C 176.642 840.640, 177.740 832.625, 178.932 823 C 184.839 775.263, 194.581 716.569, 200.343 694 C 210.076 655.878, 225.716 610.981, 249.081 554.087 L 257.464 533.674 282.482 512.541 C 379.812 430.326, 451.106 373.002, 473.080 359.290 C 479.836 355.074, 508 340.652, 508 341.408 C 508 341.640, 504.364 346.931, 499.919 353.165 C 489.413 367.904, 480.007 383.564, 474.016 396.294 C 458.498 429.269, 460.231 452.965, 479.697 473.990 C 493.978 489.415, 509.757 496.665, 545 503.996 C 565.147 508.186, 572.759 510.703, 574.825 513.856 C 576.223 515.990, 576.497 519.145, 576.482 532.956 C 576.472 542.055, 576.112 551.605, 575.681 554.179 L 574.899 558.857 569.199 556.893 C 543.678 548.098, 506.699 551.801, 476.231 566.204 C 457.799 574.917, 436.896 592.170, 427.130 606.732 C 415.589 623.939, 410.809 638.280, 410.707 656 C 410.627 669.811, 412.383 677.632, 418.452 690.500 C 426.014 706.535, 436.971 718.626, 452.592 728.171 L 461.100 733.371 458.178 735.657 C 456.571 736.915, 447.697 744.339, 438.457 752.156 C 392.704 790.859, 375.656 814.538, 374.242 841.344 C 373.599 853.547, 374.889 859.906, 380.223 870.830 C 390.725 892.340, 413.324 905.579, 452 912.878 C 476.641 917.529, 492.576 918.503, 543 918.445 C 591.872 918.387, 612.497 917.430, 661.500 912.942 C 702.831 909.157, 772.657 900.585, 774.112 899.117 C 774.449 898.778, 773.671 888.825, 772.383 877 C 770.029 855.375, 767.152 823.596, 764.779 793 C 763.934 782.099, 763.525 757.298, 763.574 719.911 L 763.649 663.321 732.574 661.843 C 715.483 661.030, 701.316 660.504, 701.090 660.676 C 700.865 660.847, 700.222 677.077, 699.661 696.743 C 698.526 736.617, 699.659 778.795, 702.974 820 C 704.014 832.925, 704.558 843.785, 704.183 844.134 C 702.600 845.604, 628.690 852.068, 590.500 854.077 C 561.410 855.608, 495.933 854.754, 479.500 852.630 C 460.325 850.152, 441.032 845.479, 439.457 842.930 C 438.441 841.286, 445.200 832.758, 455.948 822.123 C 461.752 816.382, 480 800.423, 496.500 786.660 C 534.735 754.767, 547.177 743.646, 564.514 725.869 C 586.557 703.268, 597.980 687.982, 608.489 667.024 C 638.489 607.195, 649.692 521.932, 632.365 485.306 C 624.542 468.769, 609.136 456.313, 587.430 448.976 C 582.769 447.401, 570.356 444.258, 559.847 441.993 C 542.492 438.252, 532.764 435.445, 529.182 433.144 C 528.126 432.466, 528.356 431.083, 530.335 426.213 C 540.530 401.125, 579.760 350.446, 626.296 302.248 C 633.884 294.389, 639.907 287.631, 639.680 287.230 C 639.452 286.828, 632.623 274.350, 624.504 259.500 C 616.384 244.650, 609.648 232.386, 609.535 232.248 C 609.203 231.841, 560.104 250.141, 540.838 257.852 C 488.887 278.643, 454.085 295.262, 433 309.348 C 418.413 319.093, 380.842 348.259, 343.500 378.826 C 335.800 385.129, 328.858 390.784, 328.073 391.393 C 324.603 394.086, 353.216 346.008, 370.562 320 C 390.850 289.581, 407.429 269.434, 430.312 247.388 C 468.632 210.471, 519.240 178.402, 565.737 161.573 C 576.234 157.774, 580.465 155.792, 580.378 154.714 C 580.310 153.880, 576.066 140.329, 570.945 124.599 C 561.439 95.399, 561.334 95.189, 557 96.671 M 773.084 248.019 C 760.314 249.803, 734.829 256.849, 733.528 258.955 C 733.056 259.718, 756.188 315.521, 757.533 316.866 C 757.803 317.136, 760.606 316.533, 763.762 315.525 C 777.200 311.234, 793.280 309.635, 799.443 311.978 C 802.703 313.218, 808.152 321.625, 816.939 338.972 C 823.506 351.935, 835.092 378.513, 839.970 391.803 C 841.242 395.269, 842.782 397.937, 843.392 397.731 C 844.001 397.525, 857.453 392.889, 873.284 387.428 C 901.668 377.638, 902.060 377.465, 901.464 375 C 900.328 370.298, 890.691 346.515, 882.963 329.339 C 868.588 297.389, 856.305 277.173, 844.791 266.513 C 836.687 259.009, 823.880 252.146, 813 249.476 C 805.285 247.582, 782.230 246.741, 773.084 248.019 M 523.075 617.036 C 496.659 622.527, 472.280 643.138, 474.309 658.264 C 475.923 670.297, 489.852 679.044, 505.138 677.624 C 514.749 676.731, 525.074 672.638, 530.874 667.423 C 540.968 658.348, 553.605 636.224, 554.688 625.732 C 555.256 620.235, 555.231 620.170, 551.880 618.389 C 547.967 616.309, 530.516 615.489, 523.075 617.036 " stroke="none" fill="black" fill-rule="evenodd"/>
</svg>