<svg xmlns="http://www.w3.org/2000/svg" width="1000" height="1000" viewBox="0 0 1000 1000" version="1.1">
	<path d="M 400 70.047 C 388.725 70.420, 379.226 70.786, 378.892 70.862 C 378.557 70.938, 377.964 76.513, 377.574 83.250 C 375.846 113.103, 370.186 133.528, 359.127 149.813 C 334.196 186.525, 280.285 235.480, 220.250 275.922 C 213.513 280.461, 208 284.303, 208 284.461 C 208 285.223, 249.189 342.539, 249.920 342.794 C 250.383 342.955, 255.428 341.002, 261.131 338.452 C 297.266 322.299, 321.882 311.860, 357 297.797 C 396.603 281.937, 449.537 262.290, 448.656 263.778 C 448.421 264.175, 442.080 274.580, 434.565 286.900 C 427.049 299.220, 421.260 309.610, 421.700 309.988 C 422.140 310.367, 425.425 312.867, 429 315.545 C 432.575 318.222, 437.847 322.418, 440.717 324.868 L 445.933 329.324 422.217 339.719 C 373.443 361.097, 349.078 374.424, 340.081 384.646 C 337.848 387.182, 334.779 391.787, 333.261 394.879 C 330.779 399.933, 330.500 401.560, 330.500 411 C 330.500 420.623, 330.744 421.982, 333.423 427.268 C 342.560 445.300, 366.350 455.058, 409.872 458.622 L 418.244 459.308 379.872 472.008 C 263.797 510.425, 225.544 532.054, 219.925 562.445 C 218.562 569.821, 220.034 580.161, 223.392 586.786 C 238.810 617.214, 287.838 627.090, 431.388 628.684 L 486.276 629.293 485.593 639.897 C 483.634 670.326, 477.888 719.551, 472.976 747.972 C 464.113 799.260, 450.806 842.583, 432.970 878.221 L 427.104 889.941 435.302 895.273 C 481.077 925.042, 480.157 924.503, 481.693 922.436 C 482.483 921.371, 486.681 913.300, 491.020 904.500 C 516.679 852.465, 533.240 790.423, 542.939 710 C 545.198 691.272, 548.630 654.711, 549.617 638.872 L 550.279 628.245 570.389 627.586 C 627.387 625.720, 651.375 624.827, 681 623.472 C 731.585 621.157, 791.266 617.963, 793.750 617.438 C 795.664 617.033, 795.993 616.329, 795.954 612.731 C 795.863 604.523, 792.282 554.949, 791.741 554.407 C 791.438 554.105, 774.611 554.779, 754.346 555.905 C 693.849 559.267, 631.159 561.976, 576.500 563.592 L 553.500 564.271 553.715 525.427 L 553.931 486.582 562.715 484.234 C 567.547 482.942, 582.489 479.001, 595.920 475.477 C 609.351 471.952, 620.619 468.616, 620.961 468.063 C 621.787 466.727, 625.337 398.004, 624.618 397.284 C 624.310 396.977, 607.065 397.206, 586.295 397.795 C 565.525 398.383, 548.400 398.733, 548.239 398.572 C 548.078 398.411, 547.062 392.254, 545.982 384.890 C 544.902 377.525, 543.161 368.412, 542.112 364.637 L 540.206 357.775 547.853 354.269 C 644.541 309.950, 691.363 279.232, 710.174 247.778 C 720.596 230.353, 722.188 209.843, 714.398 193.375 C 706.276 176.208, 690.350 164.112, 668.271 158.342 C 660.148 156.220, 655.447 155.701, 640.397 155.265 C 614.239 154.509, 591.718 157.192, 554.500 165.501 C 514.866 174.349, 450.719 194.030, 400.196 212.843 C 390.225 216.555, 387.218 217.349, 388.196 216.009 C 388.913 215.026, 393.215 209.696, 397.757 204.164 C 422.253 174.322, 432.685 151.308, 438.409 114.490 C 439.893 104.942, 441.973 80.715, 441.991 72.750 L 442 69 431.250 69.185 C 425.337 69.287, 411.275 69.675, 400 70.047 M 620.531 219.095 C 588.553 221.625, 542.740 232.516, 481.751 252.088 L 460.003 259.067 470.251 266.747 C 475.888 270.972, 486.778 280.650, 494.451 288.253 L 508.402 302.079 524.451 294.812 C 563.099 277.313, 602.467 256.605, 624.040 242.425 C 638.027 233.231, 652.705 220.964, 650.885 219.989 C 648.455 218.686, 631.868 218.198, 620.531 219.095 M 474 386.658 C 470.975 388.024, 464.225 391.023, 459 393.321 L 449.500 397.500 466 398.006 C 475.075 398.284, 482.684 398.400, 482.909 398.264 C 483.743 397.758, 481.462 384.640, 480.500 384.411 C 479.950 384.280, 477.025 385.291, 474 386.658 M 479.500 507.640 C 475.100 509.001, 461.825 513.043, 450 516.622 C 398.895 532.092, 328.243 556.502, 324.719 559.907 C 323.790 560.805, 348.963 562.695, 379.500 564.020 C 391.600 564.544, 421.131 564.980, 445.125 564.987 L 488.750 565 489.375 561.875 C 489.719 560.156, 490 546.656, 490 531.875 C 490 510.997, 489.721 505.018, 488.750 505.083 C 488.063 505.128, 483.900 506.279, 479.500 507.640 " stroke="none" fill="black" fill-rule="evenodd"/>
</svg>