<svg xmlns="http://www.w3.org/2000/svg" width="1000" height="1000" viewBox="0 0 1000 1000" version="1.1">
	<path d="M 367 71.896 C 317.240 82.911, 279.902 127.724, 250.527 211.686 C 250.039 213.081, 233.773 209.035, 219.533 203.976 C 196.407 195.760, 168.208 181.709, 146.585 167.628 C 140.488 163.658, 134.989 160.098, 134.365 159.717 C 133.659 159.286, 125.983 168.683, 114.093 184.531 L 94.957 210.039 107.728 218.370 C 147.394 244.245, 188.468 262.930, 227.861 273.020 C 231.891 274.052, 232.178 274.341, 231.642 276.819 C 227.182 297.405, 221.800 324.920, 220.428 334.142 L 218.697 345.785 229.005 376.142 C 234.675 392.839, 239.587 406.821, 239.920 407.213 C 240.253 407.605, 249.520 403.682, 260.513 398.494 C 281.627 388.530, 299.258 382.166, 312.945 379.570 C 321.918 377.868, 335.551 377.465, 336.424 378.877 C 337.340 380.359, 334.002 390.037, 329.441 399.117 C 315.727 426.423, 285.380 463.846, 242.265 506.619 L 217.953 530.739 236.611 562.119 C 246.873 579.379, 255.738 594.092, 256.312 594.816 C 257.116 595.831, 264.010 589.526, 286.427 567.273 C 431.652 423.113, 548.134 326.731, 585.355 319.930 C 600.045 317.245, 611.388 323.773, 620.823 340.338 C 626.692 350.643, 630.632 363.491, 633.484 381.630 C 634.857 390.359, 635.984 398.063, 635.990 398.750 C 635.998 399.723, 642.976 400, 667.521 400 L 699.043 400 699.999 397.750 C 700.524 396.512, 703.458 388.300, 706.519 379.500 C 713.105 360.559, 728.771 328.230, 738.743 313 C 761.086 278.874, 783.026 263.092, 803.754 266.233 C 810.563 267.265, 818.649 270.875, 823.304 274.962 C 827.578 278.715, 827.953 281.429, 825.388 290.067 C 810.086 341.594, 697.183 441.298, 569 516.483 C 513.631 548.959, 481.574 568.927, 436 599.330 C 379.694 636.892, 322.861 677.524, 271.735 716.769 L 248.970 734.244 253.192 738.872 C 265.712 752.595, 295.306 784, 295.719 784 C 295.983 784, 302.116 779.359, 309.349 773.687 C 402.646 700.520, 516.214 632.941, 597.658 602.130 C 705.674 561.265, 773.979 571.730, 790.142 631.622 C 793.072 642.478, 793.312 666.137, 790.638 680.500 C 783.273 720.063, 759.893 762.001, 726.500 795.548 C 693.741 828.459, 650.405 853.257, 606.021 864.491 C 573.367 872.756, 539.466 874.625, 514.765 869.523 C 479.173 862.171, 454.944 840.957, 455.022 817.212 C 455.049 808.943, 457.205 803.836, 462.799 798.793 C 472.101 790.407, 481.976 787.582, 502 787.582 C 529.932 787.582, 558.925 795.737, 597 814.303 C 604.975 818.192, 611.878 821.402, 612.340 821.437 C 613.109 821.495, 621.522 806.499, 637.134 777.244 L 643.141 765.987 625.821 757.468 C 564.092 727.104, 508.932 716.711, 466.556 727.461 C 425.692 737.827, 397.974 766.066, 391.939 803.481 C 390.340 813.389, 391.262 831.127, 393.902 841.263 C 402.303 873.510, 427.580 902.300, 461.836 918.636 C 488.918 931.551, 516.366 936.668, 553.443 935.714 C 628.919 933.772, 701.679 904.169, 760.210 851.589 C 830.846 788.136, 869.026 693.248, 853.045 620.870 C 842.524 573.221, 810.690 537.796, 764.651 522.507 C 745.970 516.303, 730.249 514, 706.588 514 L 690.625 514 697.062 509.307 C 784.293 445.715, 842.952 389.399, 871.031 342.285 C 884.344 319.947, 890.201 301.792, 890.317 282.500 C 890.441 261.925, 884.635 246.928, 871.006 232.621 C 843.560 203.812, 799.281 194.237, 761.358 208.912 C 732.164 220.208, 703.212 248.135, 679.411 287.959 L 671.686 300.883 666.979 294.692 C 653.434 276.872, 636.346 264.745, 616.500 258.869 C 609.324 256.744, 606.646 256.508, 590.500 256.574 C 573.919 256.642, 571.790 256.862, 563.500 259.362 C 530.709 269.249, 482.729 302.468, 404 369.792 L 400.500 372.785 399.345 366.643 C 395.648 346.978, 382.685 330.198, 364.500 321.537 C 352.340 315.746, 345.626 314.511, 327 314.638 C 313.427 314.730, 308.489 315.191, 299.165 317.235 L 287.830 319.720 288.469 316.110 C 289.876 308.166, 296.228 281.462, 296.843 280.906 C 297.204 280.579, 306.275 279.553, 317 278.626 C 353.005 275.513, 401.598 268.774, 444 261.013 C 469.102 256.419, 506.862 248.472, 507.734 247.600 C 508.867 246.466, 502.771 201.578, 500.319 193 C 490.306 157.968, 474.430 126.736, 455.225 104.284 C 443.418 90.483, 422.511 76.836, 406.500 72.482 C 397.029 69.907, 377.309 69.614, 367 71.896 M 374.902 135.892 C 359.594 141.881, 345.044 157.910, 331.155 184.084 C 326.220 193.384, 318 211.871, 318 213.671 C 318 214.776, 318.675 214.718, 350 210.892 C 382.013 206.983, 435 198.669, 435 197.555 C 435 196.409, 427.385 178.732, 423.936 171.873 C 415.276 154.650, 403.638 140.424, 394.646 136.071 C 389.314 133.489, 381.231 133.416, 374.902 135.892 " stroke="none" fill="black" fill-rule="evenodd"/>
</svg>