<svg xmlns="http://www.w3.org/2000/svg" width="1000" height="1000" viewBox="0 0 1000 1000" version="1.1">
	<path d="M 627 79.060 C 599.557 81.639, 569.053 93.246, 532.653 114.960 C 503.918 132.102, 463.565 162.482, 438.703 185.690 L 433.906 190.168 440.414 197.334 C 443.994 201.275, 453.840 211.687, 462.293 220.471 L 477.663 236.442 485.581 229.285 C 531.272 187.994, 584.924 154.208, 619.658 144.853 C 630.914 141.822, 645.031 141.765, 650.628 144.730 C 666.738 153.262, 680.951 189.831, 688.436 242 C 692.727 271.912, 694.113 292.963, 694.708 337.226 L 695.269 378.953 680.885 378.358 C 654.729 377.278, 590.251 380.479, 557.500 384.485 C 551.450 385.225, 546.384 385.715, 546.242 385.574 C 546.100 385.432, 548.886 373.433, 552.434 358.908 C 558.542 333.902, 566.100 297.650, 567.568 286.318 L 568.240 281.136 564.870 280.543 C 562.034 280.044, 506.117 272, 505.486 272 C 505.370 272, 504.722 275.488, 504.046 279.750 C 500.734 300.653, 488.455 354.856, 481.958 377.250 C 475.509 399.482, 476.242 397.791, 472.730 398.521 C 443.787 404.537, 382.078 423.069, 344.090 437.154 C 338.365 439.277, 333.468 440.801, 333.208 440.541 C 332.189 439.523, 341.806 404.165, 351.170 374.500 C 366.107 327.180, 391.625 259.296, 415.364 203.724 L 423.812 183.948 420.656 182.585 C 418.920 181.835, 405.904 176.035, 391.731 169.697 L 365.962 158.173 364.592 160.836 C 362.218 165.454, 346.132 203.674, 337.799 224.500 C 299.164 321.050, 275.260 396.854, 263.258 460.881 L 261.500 470.262 242.500 479.094 C 192.983 502.110, 142.770 529.783, 106.261 554.175 L 93.022 563.021 105.690 580.260 C 112.657 589.742, 120.819 600.875, 123.827 605 C 126.835 609.125, 129.662 612.909, 130.108 613.410 C 130.572 613.929, 135.758 611.105, 142.210 606.820 C 156.695 597.199, 177.779 584.413, 195.347 574.597 C 208.826 567.065, 255.159 543, 256.181 543 C 256.462 543, 256.995 549.188, 257.366 556.750 C 259.772 605.884, 275.618 653.048, 300.194 684.227 L 303.132 687.955 296.316 692.350 C 282.969 700.956, 269.342 706.816, 256.517 709.465 C 247.060 711.418, 231.192 711.434, 221.992 709.498 C 206.968 706.338, 189.143 696.526, 176.632 684.531 C 171.446 679.559, 170.573 679.067, 169.132 680.303 C 168.234 681.072, 157.031 689.893, 144.237 699.905 L 120.973 718.109 124.976 722.856 C 130.251 729.112, 144.205 741.182, 153.809 747.797 C 170.027 758.967, 191.404 768.185, 211 772.458 C 222.796 775.031, 246.299 775.575, 259.765 773.589 C 287.280 769.529, 312.651 758.827, 339.721 739.862 C 345.892 735.538, 351.380 732, 351.916 732 C 352.452 732, 356.006 733.564, 359.816 735.476 C 400.571 755.930, 468.518 756.888, 540.702 738.029 C 551.104 735.311, 581 726.155, 581 725.687 C 581 723.456, 572.770 683.552, 569.411 669.500 C 559.639 628.614, 547.696 582.362, 546.636 581.303 C 545.704 580.371, 486.021 597.543, 486.011 598.746 C 486.005 599.431, 488.901 610.906, 492.446 624.246 C 500.175 653.326, 506.476 679.858, 505.811 680.523 C 504.745 681.589, 475.598 685.939, 462 687.061 C 445.095 688.456, 424.821 687.793, 411.706 685.415 C 406.643 684.497, 402.340 683.605, 402.144 683.433 C 401.948 683.262, 405.590 678.481, 410.238 672.811 C 453.393 620.156, 493.144 545.695, 520.980 465.375 L 525.182 453.250 535.841 451.652 C 576.172 445.607, 607.159 443.207, 656.411 442.313 L 691.322 441.680 690.640 452.090 C 689.646 467.276, 686.341 496.468, 682.895 520.500 C 671.650 598.933, 651.630 667.570, 622.415 727.849 C 610.969 751.465, 605.417 761.364, 593.443 779.500 C 562.450 826.444, 529.642 852.966, 496.297 858.034 C 477.513 860.889, 461.775 855.186, 445.146 839.499 C 434.825 829.763, 428.246 820.800, 416.193 800.058 C 415.513 798.887, 410.006 800.936, 386.927 810.946 C 371.292 817.728, 358.300 823.452, 358.055 823.666 C 356.614 824.930, 370.156 848.375, 379.865 861.424 C 399.585 887.926, 425.169 907.951, 450 916.321 C 475.514 924.921, 502.843 924.437, 531.500 914.878 C 590.289 895.268, 646.619 831.938, 687.494 739.500 C 724.370 656.108, 744.767 569.256, 754.623 453.669 L 755.291 445.837 760.895 446.427 C 809.549 451.547, 849.437 457.683, 880.795 464.874 C 891.566 467.343, 893.025 467.483, 893.440 466.083 C 893.698 465.212, 897.366 451.514, 901.590 435.643 C 907.454 413.607, 908.973 406.602, 908.015 406.009 C 907.324 405.582, 900.271 403.824, 892.342 402.101 C 858.688 394.790, 813.296 387.640, 780.500 384.486 C 771.150 383.587, 762.552 382.667, 761.393 382.442 C 759.301 382.037, 759.282 381.726, 758.691 339.767 C 757.727 271.313, 753.165 228.235, 742.431 186.231 C 727.611 128.235, 703.194 94.437, 668 83.203 C 655.179 79.111, 641.341 77.712, 627 79.060 M 447.500 470.514 C 446.950 470.710, 435.925 474.096, 423 478.039 C 397.340 485.866, 363.946 497.503, 337.750 507.744 L 321 514.293 320.881 525.396 C 320.398 570.667, 324.731 596.717, 337.034 622.500 C 340.590 629.953, 349.372 644.500, 350.315 644.500 C 351.058 644.500, 363.894 629.044, 371.380 619.135 C 398.508 583.225, 424.499 535.786, 446.619 481.810 C 449.029 475.931, 451 470.868, 451 470.560 C 451 469.958, 449.130 469.934, 447.500 470.514 " stroke="none" fill="black" fill-rule="evenodd"/>
</svg>