<svg xmlns="http://www.w3.org/2000/svg" width="1000" height="1000" viewBox="0 0 1000 1000" version="1.1">
	<path d="M 551 66.931 C 521.918 77.643, 493.480 100.143, 475.077 127 C 461.563 146.722, 452.773 169.315, 447.845 197 C 446.072 206.956, 446.036 249.444, 447.790 261 C 454.691 306.471, 467.891 345.502, 494.120 398 C 528.237 466.285, 569.924 528.536, 612.146 574.250 C 617.099 579.613, 620.632 584, 619.997 584 C 619.362 584, 611.115 582.887, 601.671 581.527 C 555.681 574.903, 521.267 572.057, 477.918 571.294 C 401.976 569.957, 348.258 578.950, 305.653 600.132 C 289.959 607.935, 277.531 616.536, 266.224 627.417 C 247.045 645.875, 235.733 665.067, 229.632 689.500 C 219.580 729.754, 225.562 765.763, 247.803 798.895 C 254.433 808.772, 270.095 825.491, 280.871 834.194 C 306.258 854.698, 345.292 874.553, 387.594 888.479 C 446.331 907.815, 520.420 921.598, 602.500 928.458 C 624.823 930.323, 656.190 932.143, 656.729 931.604 C 657.122 931.212, 658.612 898.431, 659.143 878.500 L 659.409 868.500 649.455 867.809 C 643.980 867.429, 632.300 866.628, 623.500 866.029 C 502.598 857.795, 395.990 832.314, 341 798.505 C 315.094 782.578, 299.389 766.094, 292.161 747.242 C 289.819 741.134, 289.572 739.136, 289.538 726 C 289.510 715.190, 289.948 709.846, 291.260 705 C 299.939 672.950, 329.176 652.428, 381 642.009 C 405.640 637.055, 419.542 635.810, 456.285 635.268 C 490.128 634.768, 510.734 635.560, 542 638.561 C 599.642 644.093, 669.068 656.325, 723.883 670.605 C 733.444 673.096, 741.620 674.766, 742.052 674.317 C 742.630 673.716, 763.690 626.046, 767.684 616.300 C 767.989 615.556, 762.352 612.190, 752.838 607.435 C 729.988 596.015, 712.386 583.263, 686.890 559.657 C 635.431 512.012, 579.101 431.186, 543.025 353.231 C 520.193 303.892, 509.884 265.122, 509.862 228.500 C 509.841 194.903, 518.501 170.822, 537.805 150.797 C 547.187 141.064, 555.222 135.264, 567.500 129.360 C 571.900 127.244, 575.643 125.443, 575.817 125.356 C 576.287 125.124, 559.889 65.612, 559.140 64.834 C 558.788 64.468, 555.125 65.412, 551 66.931 " stroke="none" fill="black" fill-rule="evenodd"/>
</svg>