<svg xmlns="http://www.w3.org/2000/svg" width="1000" height="1000" viewBox="0 0 1000 1000" version="1.1">
	<path d="M 849.224 155.077 C 797.022 156.585, 725.788 161.008, 689.500 164.994 C 659.859 168.251, 601.364 175.052, 547 181.563 C 361.714 203.754, 359.125 203.979, 310.500 202.134 C 278.017 200.902, 255.203 199.331, 221 195.971 C 201.567 194.062, 150.557 187.921, 139.250 186.130 C 136.363 185.673, 134 185.484, 134 185.710 C 134 185.936, 131.975 199.215, 129.500 215.220 C 127.025 231.224, 125 245.309, 125 246.520 C 125 248.397, 125.701 248.809, 129.750 249.312 C 132.363 249.637, 146.875 251.474, 162 253.394 C 240.734 263.388, 312.539 267.940, 360.500 265.979 C 382.339 265.087, 413.393 261.808, 512.418 249.941 C 535.473 247.179, 554.934 245.049, 555.664 245.209 C 556.395 245.369, 552.017 248.799, 545.936 252.832 C 499.962 283.318, 475.256 320.793, 473.306 363 C 471.861 394.262, 480.273 419.647, 498.446 438.867 C 507.635 448.586, 517.758 456.039, 534.722 465.575 C 557.250 478.238, 562.538 482.529, 566.567 491.414 C 576.706 513.772, 567.178 567.480, 542.691 626 C 539.124 634.525, 529.478 655.900, 521.256 673.500 C 495.212 729.250, 489 748.541, 489 773.673 C 489 798.725, 497.518 818.463, 516.164 836.616 C 542.035 861.804, 588.076 879.916, 662 893.985 C 673.825 896.236, 684.513 898.294, 685.750 898.558 C 686.987 898.822, 688.010 898.917, 688.022 898.769 C 688.035 898.621, 690.446 884.456, 693.380 867.291 L 698.715 836.083 693.608 835.098 C 690.798 834.557, 679.950 832.461, 669.500 830.441 C 611.847 819.295, 572.824 804.724, 558.669 789.056 C 553.836 783.706, 553 781.353, 553 773.095 C 553 759.160, 558.403 744.347, 581.383 695.281 C 605.640 643.487, 617.538 612.322, 625.393 580 C 631.866 553.365, 634.205 535.878, 634.141 514.582 C 634.053 485.097, 627.366 463.887, 612.130 444.763 C 602.477 432.646, 592.519 425.094, 567.520 410.927 C 542.425 396.707, 538.047 391.071, 537.216 371.923 C 536.712 360.308, 538.008 353.872, 542.727 344.543 C 558.941 312.494, 615.114 280.416, 696.026 256.999 C 747.354 242.144, 817.526 228.912, 871.737 223.866 C 879.017 223.188, 885.407 222.366, 885.936 222.040 C 886.541 221.666, 886.672 208.920, 886.290 187.723 L 885.682 154 880.591 154.159 C 877.791 154.247, 863.676 154.660, 849.224 155.077 " stroke="none" fill="black" fill-rule="evenodd"/>
</svg>