<svg xmlns="http://www.w3.org/2000/svg" width="1000" height="1000" viewBox="0 0 1000 1000" version="1.1">
	<path d="M 320.500 119.116 C 307.850 130.636, 297.372 140.432, 297.215 140.884 C 296.834 141.987, 312.667 156.979, 323.109 165.403 C 342.789 181.279, 368.641 196.193, 387.500 202.548 C 402.588 207.633, 412.072 209.105, 433.607 209.705 L 453.713 210.264 446.107 216.992 C 394.918 262.265, 377.879 309.068, 386.580 380.500 C 387.960 391.829, 392.512 419.569, 393.578 423.146 C 393.959 424.424, 390.185 426.808, 376.655 433.835 C 333.582 456.206, 294.522 481.723, 261.500 509.062 C 247.245 520.864, 215.352 553.225, 202.921 568.500 C 169.855 609.131, 149.897 646.110, 141.393 682.500 C 138.875 693.276, 138.592 696.285, 138.618 712 C 138.653 732.822, 140.135 739.741, 147.964 755.624 C 160.479 781.016, 187.035 798.812, 217.500 802.223 C 246.248 805.442, 280.535 792.307, 316.500 764.299 C 349.197 738.835, 386.528 696.972, 415.750 653 C 444.943 609.071, 457.821 579.187, 464.660 539.500 C 466.520 528.706, 467.212 485.969, 465.771 470.847 L 465.042 463.194 481.271 457.193 C 549.611 431.924, 609.772 419.557, 670.509 418.294 C 708.022 417.514, 725.452 419.870, 745.132 428.378 C 758.223 434.038, 763.960 437.963, 774.546 448.500 C 785.067 458.973, 790.508 467.511, 795.110 480.768 C 804.108 506.688, 802.251 540.072, 789.940 573.721 C 783.505 591.310, 777.158 601.102, 763.499 614.514 C 744.400 633.266, 709.071 656.440, 676.750 671.417 L 667 675.934 666.985 665.717 C 666.968 653.930, 665.190 645.279, 660.963 636.423 C 642.284 597.284, 584.138 579.429, 531.260 596.596 C 510.659 603.284, 487.865 617.273, 471.962 632.987 C 441.457 663.130, 430.844 698.882, 443.164 730 C 448.470 743.403, 459.855 756.868, 471.913 764.001 C 479.004 768.196, 493.557 773.423, 501.250 774.538 C 503.863 774.917, 506 775.410, 506 775.633 C 506 775.857, 504.823 777.904, 503.385 780.182 C 498.803 787.441, 493.278 799.263, 490.853 807 C 488.890 813.261, 488.502 816.648, 488.501 827.500 C 488.500 842.531, 490.345 850.052, 496.718 860.993 C 504.624 874.565, 522.848 889.442, 537.735 894.476 C 562.971 903.010, 604.931 901.788, 662 890.859 C 676.006 888.177, 708.130 881.093, 708.752 880.550 C 709.077 880.266, 693.260 819.926, 692.719 819.385 C 692.494 819.161, 686.728 820.309, 679.905 821.937 C 644.233 830.449, 604.675 836.181, 581 836.267 C 563.566 836.331, 558.125 835.279, 553.868 831.022 L 551.051 828.205 552.631 823.570 C 556.225 813.022, 571.699 793.671, 588.616 778.569 C 593.502 774.207, 598.625 769.620, 600 768.376 C 601.601 766.927, 608.072 764.497, 618 761.616 C 651.493 751.897, 677.600 741.699, 710.500 725.483 C 769.107 696.596, 809.629 665.209, 832.559 630.937 C 842.293 616.388, 849.948 598.344, 856.440 574.640 C 878.175 495.287, 855.597 423.375, 796.572 383.951 C 772.053 367.575, 742.051 357.791, 707.500 354.902 C 690.410 353.474, 651.885 354.258, 630 356.481 C 578.155 361.745, 517.370 375.901, 467.082 394.423 C 460.252 396.938, 454.448 398.781, 454.184 398.518 C 453.382 397.716, 450.255 378.059, 449.094 366.522 C 445.622 332.027, 450.963 308.167, 466.894 287 C 491.465 254.353, 549.445 219.282, 614 198.019 C 628.275 193.317, 634.437 190.846, 634.293 189.883 C 633.445 184.211, 619.612 125.313, 618.965 124.622 C 618.499 124.124, 608.924 125.522, 596.822 127.855 C 531.797 140.391, 483.778 146.142, 444.500 146.098 C 418.130 146.068, 411.543 144.776, 394.619 136.315 C 379.523 128.768, 362.968 116.840, 349 103.445 L 343.500 98.170 320.500 119.116 M 390.786 498.489 C 343.614 524.345, 304.252 553.381, 273.965 584.667 C 239.960 619.792, 216.247 655.675, 206.007 687.500 C 202.253 699.167, 200.882 715.238, 202.980 723 C 205.578 732.616, 217.388 739.791, 228.888 738.740 C 263.581 735.569, 325.764 677.112, 370.633 605.490 C 393.144 569.557, 401.899 543.461, 403.634 507.128 C 404.035 498.723, 403.921 493.070, 403.345 492.713 C 402.823 492.390, 397.171 494.990, 390.786 498.489 M 555.001 656.073 C 533.845 661.611, 511.285 679.106, 503.802 695.777 C 501.255 701.453, 501.728 706.728, 505.004 709.163 C 509.374 712.410, 522.914 713.573, 539.829 712.155 C 561.371 710.348, 571.826 708.098, 576.735 704.210 C 586.110 696.785, 600.849 676.989, 603.028 668.895 C 604.283 664.235, 603.613 662.542, 599.513 660.008 C 590.147 654.220, 569.167 652.365, 555.001 656.073 " stroke="none" fill="black" fill-rule="evenodd"/>
</svg>