<svg xmlns="http://www.w3.org/2000/svg" width="1000" height="1000" viewBox="0 0 1000 1000" version="1.1">
	<path d="M 319.500 103.684 C 309.600 112.789, 299.309 122.214, 296.631 124.629 L 291.763 129.019 295.673 133.259 C 319.190 158.762, 359.554 191.277, 382.297 203.038 C 385.980 204.942, 388.994 206.765, 388.996 207.089 C 388.998 207.412, 385.063 210.787, 380.250 214.589 C 366.921 225.117, 348.954 243.004, 336.643 258 C 319.967 278.314, 299.185 306.264, 286.224 325.810 L 274.647 343.268 273.269 372.246 C 272.510 388.184, 272.027 401.345, 272.195 401.493 C 273.065 402.263, 375.403 399.879, 399.500 398.527 C 454.554 395.439, 483.089 392.075, 526.820 383.518 C 542.329 380.483, 556.012 378, 557.227 378 C 559.095 378, 558.513 378.941, 553.469 384.079 C 537.970 399.864, 504.969 428.208, 471.406 454.559 C 408.290 504.114, 349.860 545.223, 289.500 582.540 C 269.004 595.211, 222.613 622.296, 219.797 623.234 C 218.991 623.503, 208.582 683.939, 209.236 684.553 C 209.381 684.690, 220.525 687.582, 234 690.980 C 402.041 733.362, 570.884 790.858, 663.409 837.205 C 711.024 861.057, 745.588 885.497, 755.412 902.260 L 758.165 906.958 761.833 905.410 C 763.850 904.558, 776.975 899.128, 791 893.342 C 805.025 887.556, 816.627 882.698, 816.782 882.546 C 817.497 881.844, 809.367 867.830, 804.310 861.047 C 771.085 816.481, 685.834 769.801, 544.060 718.547 C 476.071 693.968, 412.619 673.969, 315.201 646.414 L 309.901 644.915 333.201 630.333 C 400.838 588, 476.425 533.461, 541.408 480.102 C 575.410 452.183, 607.829 421.122, 620.316 404.500 C 628.393 393.748, 635.378 380.313, 637.031 372.351 C 638.665 364.482, 637.774 352.833, 634.978 345.500 C 631.947 337.551, 621.412 326.920, 611.500 321.808 C 599.503 315.620, 592.185 313.822, 576.668 313.249 C 560.029 312.635, 553.396 313.444, 516.844 320.549 C 476.199 328.449, 454.031 331.258, 410.500 334.021 C 389.405 335.360, 357.626 336.765, 357.130 336.381 C 355.614 335.205, 393.483 288.668, 404.639 278 C 424.191 259.301, 448.036 242.951, 475.138 229.660 L 491.776 221.500 492.379 216.500 C 492.711 213.750, 492.987 200.855, 492.991 187.844 L 493 164.188 488.250 163.622 C 485.637 163.311, 477.650 162.779, 470.500 162.440 C 449.739 161.455, 432.532 157.280, 416.890 149.432 C 399.868 140.892, 374.820 121.691, 353.406 100.770 C 345.655 93.196, 338.905 87.029, 338.406 87.065 C 337.908 87.101, 329.400 94.580, 319.500 103.684 " stroke="none" fill="black" fill-rule="evenodd"/>
</svg>