<svg xmlns="http://www.w3.org/2000/svg" width="1000" height="1000" viewBox="0 0 1000 1000" version="1.1">
	<path d="M 327.962 83.250 C 321.551 104.280, 310.521 137.131, 303.349 156.551 L 295.945 176.602 286.722 178.885 C 263.363 184.666, 255.247 186.045, 241 186.652 C 212.579 187.864, 177.042 182.108, 140.989 170.452 C 134.848 168.467, 129.666 167.001, 129.472 167.194 C 129.164 167.502, 125.114 177.694, 110.012 216.163 L 106.219 225.826 115.201 228.962 C 159.441 244.411, 213.215 253.066, 248 250.336 C 254.875 249.797, 260.613 249.426, 260.751 249.512 C 262.059 250.328, 202.640 333.066, 148.097 406.374 C 137.510 420.604, 129.219 432.580, 129.674 432.987 C 130.128 433.394, 141.466 441.936, 154.868 451.968 C 178.471 469.636, 179.292 470.151, 181.021 468.354 C 182.003 467.334, 194.828 450.300, 209.520 430.500 C 224.213 410.700, 236.331 394.387, 236.451 394.249 C 236.571 394.111, 250.130 400.471, 266.584 408.382 C 283.038 416.292, 301.450 424.860, 307.500 427.422 C 330.897 437.327, 341.695 444.957, 363.319 466.867 L 379.138 482.895 394.158 468.697 C 433.959 431.075, 464.438 387.208, 482.422 341.663 C 501.880 292.386, 505.132 238.963, 490.591 207.490 C 479.423 183.319, 461.086 168.344, 434.011 161.283 C 422.303 158.230, 396.094 157.059, 380.534 158.894 C 375.136 159.531, 370.585 159.918, 370.422 159.755 C 370.258 159.592, 371.463 155.677, 373.098 151.056 C 377.261 139.292, 392 92.262, 392 90.743 C 392 89.955, 381.136 86.431, 362.711 81.245 C 346.602 76.710, 332.896 73, 332.254 73 C 331.611 73, 329.680 77.612, 327.962 83.250 M 572.735 150.872 C 566.732 167.551, 561.586 185.340, 558.239 200.985 C 555.878 212.020, 555.558 215.746, 555.533 232.500 C 555.502 254.004, 556.808 260.749, 563.767 275 C 566.890 281.396, 569.321 284.339, 580.288 295 C 587.361 301.875, 593.700 307.810, 594.374 308.188 C 595.121 308.607, 601.632 303.623, 611.050 295.421 C 619.548 288.020, 631.450 277.648, 637.500 272.372 C 690.292 226.328, 746.456 199.350, 779.994 203.926 C 792.741 205.665, 801.461 210.136, 811.011 219.828 C 820.553 229.512, 824.547 236.996, 823.653 243.517 C 820.836 264.071, 787.403 296.650, 736.989 327.969 C 663.413 373.677, 544.973 426.818, 427 467.053 L 398.500 476.773 398.235 505.314 C 397.988 531.861, 398.093 533.892, 399.735 534.370 C 403.272 535.400, 430.775 540.186, 441 541.550 C 446.775 542.320, 461.455 543.498, 473.622 544.168 C 494.021 545.291, 500.020 545.173, 550.622 542.653 C 580.805 541.150, 611.276 539.644, 618.336 539.306 L 631.172 538.692 630.611 532.096 C 630.302 528.468, 629.802 517.175, 629.500 507 C 629.198 496.825, 628.686 485.418, 628.364 481.650 L 627.777 474.800 618.138 475.387 C 612.837 475.710, 602.200 476.237, 594.500 476.558 L 580.500 477.143 604.500 466.704 C 686.859 430.884, 754.353 395.056, 798 363.988 C 848.583 327.984, 876.075 295.548, 885.145 261.175 C 888.013 250.309, 887.986 232.449, 885.087 221.500 C 878.366 196.119, 854.223 167.263, 827.819 153.053 C 800.048 138.107, 762.493 135.845, 725.500 146.890 C 697.560 155.231, 663.224 173.043, 631.750 195.522 C 627.487 198.567, 624 200.552, 624 199.935 C 624 199.318, 626.715 190.680, 630.033 180.739 C 633.351 170.798, 635.713 162.336, 635.283 161.934 C 634.383 161.094, 579.207 138, 578.099 138 C 577.697 138, 575.283 143.793, 572.735 150.872 M 388.505 222.114 C 383.008 222.620, 370.725 224.601, 361.208 226.517 C 351.691 228.433, 343.691 230, 343.430 230 C 343.169 230, 339.670 236.874, 335.655 245.275 C 323.323 271.076, 313.689 286.621, 285.039 326.945 C 279.458 334.800, 275.059 341.393, 275.263 341.596 C 276.098 342.431, 317.848 362.322, 329.714 367.537 C 347.739 375.461, 357.047 380.305, 368.167 387.549 L 377.834 393.846 386.528 382.173 C 414.687 344.362, 431.149 306.685, 435.039 271.148 C 437.372 249.830, 434.927 233.777, 428.485 228.121 C 422.088 222.504, 407.721 220.345, 388.505 222.114 M 633 577.164 C 523.839 608.301, 420.191 628.641, 393.350 624.194 C 384.099 622.661, 374.629 617.851, 371.001 612.843 C 369.418 610.658, 367.983 608.481, 367.812 608.006 C 367.454 607.015, 306.965 615.832, 305.605 617.074 C 304.241 618.318, 306.708 626.394, 311.572 636.612 C 323.892 662.490, 348.789 680.761, 379.628 686.557 C 391.076 688.709, 414.767 688.689, 433.362 686.513 C 440.987 685.621, 447.413 685.079, 447.642 685.309 C 447.872 685.539, 441.849 689.366, 434.258 693.814 C 426.666 698.262, 413.432 706.536, 404.848 712.201 C 377.500 730.247, 172.007 876.456, 172.414 877.578 C 173.082 879.420, 213.265 936, 213.900 935.993 C 214.230 935.990, 221.250 930.300, 229.500 923.350 C 265.368 893.134, 298.862 871.139, 341 850.129 C 403.729 818.852, 459.501 804.604, 512.500 806.317 C 598.896 809.109, 694.482 852.156, 772.356 923.344 L 780.936 931.188 804.122 909.364 L 827.307 887.540 818.404 879.192 C 746.613 811.883, 656.658 764.669, 569.500 748.551 C 544.047 743.844, 530.071 742.583, 502.860 742.540 L 477.219 742.500 483.793 738.687 C 517.772 718.974, 582.648 684.071, 644 652.496 C 662.975 642.731, 678.667 634.594, 678.872 634.415 C 679.293 634.046, 655.032 572.821, 654.103 571.908 C 653.771 571.583, 644.275 573.948, 633 577.164 " stroke="none" fill="black" fill-rule="evenodd"/>
</svg>