<svg xmlns="http://www.w3.org/2000/svg" width="1000" height="1000" viewBox="0 0 1000 1000" version="1.1">
	<path d="M 330.505 127.704 L 307.707 149.407 311.603 152.793 C 328.701 167.646, 358.320 180.914, 390 187.911 C 419.507 194.428, 443.817 196.501, 481.500 195.715 C 518.930 194.933, 552.403 191.098, 593.500 182.883 C 616.045 178.376, 649.773 170.396, 651.913 169.062 C 653.084 168.331, 652.175 163.857, 646.587 142.840 C 642.881 128.903, 639.199 115.217, 638.405 112.427 L 636.961 107.353 626.269 110.151 C 620.388 111.689, 606.110 114.966, 594.539 117.432 C 539.844 129.087, 507.302 132.607, 462.370 131.726 C 427.953 131.051, 410.068 128.492, 386.046 120.808 C 376.357 117.708, 363.205 111.706, 358.034 108.024 C 356.470 106.911, 354.766 106, 354.247 106 C 353.728 106, 343.044 115.767, 330.505 127.704 M 609.500 207.557 C 608.400 207.811, 605.025 208.510, 602 209.109 C 598.975 209.709, 593.575 211.346, 590 212.748 C 571.195 220.125, 558.897 235.923, 549.716 264.500 C 544.109 281.953, 538.188 311.539, 535.437 335.851 C 534.947 340.186, 534.279 342.090, 533.124 342.448 C 530.804 343.165, 496.690 349.353, 475.500 352.900 C 452.043 356.826, 411.271 362.660, 398.144 363.968 C 371.716 366.602, 351.375 363.799, 345.402 356.701 C 342.905 353.734, 342.778 353.092, 343.284 346.022 C 343.617 341.376, 344.983 335.250, 346.858 330 C 348.528 325.325, 349.580 321.215, 349.197 320.866 C 348.814 320.518, 338.150 314.732, 325.500 308.010 C 312.850 301.288, 300.620 294.711, 298.323 293.394 L 294.146 291.001 291.513 296.751 C 283.188 314.932, 279.616 330.457, 279.606 348.500 C 279.600 358.998, 280.035 363.037, 281.861 369.487 C 293.986 412.290, 334.270 432.873, 396.500 428.061 C 419.418 426.289, 484.244 416.693, 524.309 409.142 L 529.119 408.236 528.428 421.368 C 528.049 428.591, 527.677 434.583, 527.602 434.684 C 527.527 434.785, 522.749 435.813, 516.983 436.969 C 477.175 444.953, 433.356 466.987, 394.273 498.675 C 348.700 535.625, 351.870 592.519, 403.482 664 C 432.613 704.345, 484.512 757.186, 536.310 799.238 L 552.001 811.976 573.146 798.312 L 594.292 784.647 593.656 770.073 C 593.306 762.058, 592.578 742.900, 592.039 727.500 C 591.499 712.100, 590.805 692.413, 590.498 683.750 L 589.939 668 597.719 667.995 C 622.630 667.980, 683.410 661.960, 711.500 656.725 C 718.044 655.505, 718.483 655.260, 718.234 652.960 C 717.828 649.202, 707.819 593.545, 707.483 593.177 C 707.321 593, 699.833 593.995, 690.844 595.388 C 659.797 600.200, 619.299 604, 599.063 604 L 589 604 589 590.013 L 589 576.026 598.471 564.509 C 610.726 549.608, 615.408 543.252, 621.160 533.711 C 637.615 506.413, 636.839 479.942, 619.017 460.633 C 613.387 454.534, 602.913 447.038, 595.165 443.564 L 590.847 441.627 591.390 436.064 C 591.689 433.004, 592.186 424.650, 592.495 417.500 C 592.804 410.350, 593.305 402.406, 593.609 399.846 C 594.135 395.412, 594.335 395.161, 597.831 394.529 C 621.272 390.289, 752.370 358.928, 754.129 357.140 C 754.475 356.788, 752.892 347.950, 750.610 337.500 C 746.775 319.938, 746.020 317.668, 740.630 307.500 C 728.861 285.302, 712.582 262.624, 696.584 246.142 C 672.161 220.981, 648.100 208.515, 622 207.501 C 616.225 207.277, 610.600 207.302, 609.500 207.557 M 612.647 277.410 C 608.796 287.027, 601 320.586, 601 327.541 C 601 328.452, 602.355 328.429, 606.750 327.445 C 648.023 318.207, 667.640 313.610, 668.294 313.023 C 669.599 311.854, 655.925 295.046, 646.481 286.210 C 636.258 276.645, 626.233 271, 619.472 271 L 615.213 271 612.647 277.410 M 520.500 501.493 C 496.256 508.095, 468.655 522.441, 442.168 542.207 C 425.445 554.687, 423.725 558.743, 428.013 575.590 C 435.069 603.313, 465.318 645.084, 511.941 691.487 L 527 706.475 526.888 690.487 C 526.827 681.694, 526.489 670.334, 526.138 665.243 L 525.500 655.986 518.526 650.743 C 502.182 638.455, 496.055 620.979, 500.911 600.500 C 503.487 589.636, 511.610 572.534, 519.246 561.895 L 524.704 554.290 525.224 527.145 C 525.510 512.215, 525.689 500.030, 525.622 500.066 C 525.555 500.102, 523.250 500.744, 520.500 501.493 M 174.922 675.141 C 151.671 693.591, 133.953 718.198, 127.860 740.500 C 124.944 751.172, 124.650 772.289, 127.281 782 C 129.730 791.040, 136.157 804.118, 142.067 812.091 C 158.026 833.618, 188.882 854.854, 221.500 866.758 C 295.508 893.768, 459.877 902.556, 665 890.469 C 737.339 886.207, 807.412 879.058, 841.500 872.464 C 854.922 869.867, 867 866.384, 867 865.110 C 867 864.458, 843.105 807.798, 842.616 807.290 C 842.505 807.175, 839.733 807.703, 836.457 808.464 C 811.506 814.259, 737.218 822.147, 667 826.456 C 473.819 838.310, 311.862 830.847, 243.383 806.936 C 220.859 799.071, 195.229 780.973, 190.464 769.569 C 186.152 759.249, 191.171 747.673, 206.605 732.336 L 216.833 722.173 200.292 697.836 C 191.195 684.451, 183.210 672.723, 182.547 671.773 C 181.454 670.205, 180.752 670.515, 174.922 675.141 " stroke="none" fill="black" fill-rule="evenodd"/>
</svg>