<svg xmlns="http://www.w3.org/2000/svg" width="1000" height="1000" viewBox="0 0 1000 1000" version="1.1">
	<path d="M 622.970 84.524 C 608.732 86.745, 584.503 93.177, 580.165 95.889 C 579.122 96.540, 581.393 103.063, 590.511 125.612 C 596.937 141.500, 602.333 154.645, 602.503 154.823 C 602.673 155.001, 606.399 154.013, 610.782 152.629 C 622.451 148.942, 634.834 146.869, 643.170 147.205 L 650.500 147.500 650.174 150.500 C 648.193 168.743, 628.104 224.139, 602.486 282 C 587.596 315.631, 568.581 356, 567.630 356 C 567.438 356, 563.761 354.373, 559.457 352.385 C 543.698 345.104, 515.112 340.065, 497.548 341.473 C 462.061 344.317, 433.033 356.988, 409.661 379.837 C 391.467 397.624, 378.080 418.951, 369.029 444.568 C 364.457 457.510, 363 465.677, 363 478.375 C 363 502.934, 372.853 525.086, 391.848 543.231 C 399.060 550.121, 413.127 560.305, 419.276 563.088 C 420.803 563.779, 421.928 564.682, 421.776 565.095 C 421.367 566.207, 407.825 576.719, 393.819 586.797 C 364.099 608.182, 301.187 648.793, 249.500 679.958 C 237.400 687.254, 227.408 693.303, 227.296 693.399 C 226.915 693.727, 245.135 754.495, 245.820 755.182 C 246.358 755.722, 358.840 726.817, 416.834 711.236 L 428.169 708.191 425.834 710.721 C 419.826 717.230, 389.767 744.976, 374.491 758.111 C 358.340 772, 325.991 800.646, 279.235 842.463 L 258.033 861.425 260.346 863.963 C 263.540 867.467, 299.207 907.334, 299.927 908.205 C 300.247 908.593, 310.858 899.643, 323.505 888.316 C 361.417 854.364, 405.623 815.240, 420.192 802.744 L 433.884 791 452.192 791.006 C 510.893 791.024, 571.048 803.242, 606 822.246 C 644.900 843.397, 679.267 868.738, 710.479 899.286 C 717.702 906.355, 721.922 909.802, 722.724 909.286 C 725.886 907.256, 768.894 869.390, 768.943 868.593 C 769.037 867.088, 743.375 842.193, 729.648 830.473 C 688.412 795.265, 640.444 765.217, 603.673 751.560 C 577.348 741.782, 536.266 732.749, 507.515 730.416 L 498.824 729.711 509.162 719.284 C 514.848 713.549, 527.883 700.789, 538.128 690.928 L 556.757 672.999 629.628 652.398 C 669.708 641.068, 702.879 631.443, 703.341 631.008 C 704.065 630.328, 688.629 573.636, 687.005 571.008 C 686.664 570.456, 678.244 572.370, 666.958 575.565 C 550.363 608.576, 480.993 628.065, 459 633.989 C 424.708 643.226, 426 642.892, 426 642.507 C 426 642.325, 430.837 638.654, 436.750 634.350 C 477.792 604.474, 525.019 561.934, 538.721 542.500 C 556.214 517.689, 578.836 477.083, 610.866 413 C 667.848 298.996, 705.353 206.654, 713.062 161.380 C 714.709 151.704, 713.794 135.279, 711.145 126.985 C 705.231 108.465, 689.779 93.128, 671 87.139 C 657.535 82.845, 639.895 81.884, 622.970 84.524 M 325.227 112.802 C 312.648 140.934, 310.907 172.158, 320.552 196.643 C 327.150 213.393, 342.543 230.607, 363.257 244.402 C 374.592 251.951, 401.580 265.725, 406.021 266.229 C 408.296 266.486, 408.936 265.061, 418.708 238.017 C 424.369 222.351, 429 209.070, 429 208.503 C 429 207.936, 423.712 204.945, 417.250 201.857 C 395.730 191.573, 381.439 180.016, 378.960 170.891 C 377.252 164.600, 378.309 152.788, 381.368 143.992 C 382.791 139.901, 383.627 136.241, 383.227 135.857 C 382.508 135.167, 329.094 106, 328.550 106 C 328.395 106, 326.899 109.061, 325.227 112.802 M 492.831 405.954 C 467.226 410.652, 448.091 425.823, 435.125 451.705 C 431.026 459.887, 427.415 469.585, 426.541 474.755 C 424.590 486.307, 433.761 498.856, 450 506.852 C 463.892 513.693, 479.091 515.783, 482.605 511.335 C 496.140 494.207, 538.924 418.488, 537.538 414.118 C 535.690 408.297, 507.812 403.206, 492.831 405.954 " stroke="none" fill="black" fill-rule="evenodd"/>
</svg>