<svg xmlns="http://www.w3.org/2000/svg" width="1000" height="1000" viewBox="0 0 1000 1000" version="1.1">
	<path d="M 644.500 97.045 C 606.502 99.016, 551.218 112.133, 488.116 134.149 C 466.006 141.863, 463.722 142.836, 464.291 144.300 C 481.670 188.992, 486.289 200.635, 486.886 201.256 C 487.286 201.672, 495.717 199.130, 505.622 195.607 C 567.302 173.669, 617.372 161.856, 655 160.364 C 682.899 159.258, 748.400 163.341, 793.481 168.995 C 797.321 169.477, 800.598 169.736, 800.763 169.570 C 801.446 168.888, 809.137 108.800, 808.691 107.637 C 808.362 106.780, 801.625 105.657, 787.853 104.163 C 731.488 98.046, 677.188 95.350, 644.500 97.045 M 259.631 137.147 C 259.344 139.541, 258.612 146.900, 258.004 153.500 C 257.396 160.100, 255.755 172.700, 254.359 181.500 C 241.053 265.329, 210.897 333.267, 170.282 370.919 C 158.752 381.608, 149.098 388.421, 134 396.527 C 127.125 400.218, 121.395 403.327, 121.266 403.436 C 120.736 403.885, 114.129 477.400, 114.557 478.092 C 114.813 478.507, 116.395 479.148, 118.073 479.516 C 119.751 479.884, 126.314 481.907, 132.659 484.011 C 163.176 494.130, 184.153 519.152, 191.562 554.275 C 193.904 565.373, 194.890 578.462, 196.032 613.556 C 197.564 660.646, 195.624 728.226, 190.968 789.941 C 189.913 803.934, 189.203 815.537, 189.392 815.725 C 189.581 815.914, 201.382 818.072, 215.618 820.520 C 229.853 822.968, 242.688 825.227, 244.139 825.541 C 246.742 826.102, 247.478 824.722, 296.889 726.590 C 324.450 671.854, 347 626.831, 347 626.539 C 347 626.025, 291.528 598, 290.510 598 C 290.233 598, 283.279 611.388, 275.057 627.750 L 260.108 657.500 260.052 632 C 259.917 570.712, 256.101 539.988, 245.147 511.988 C 234.865 485.706, 214.352 458.863, 193.159 443.959 L 186.818 439.500 189.554 437.500 C 248.888 394.124, 289.136 323.992, 310.933 226 C 316.730 199.940, 323 155.586, 323 140.642 L 323 135.226 308.250 134.629 C 300.137 134.300, 285.997 133.753, 276.827 133.413 L 260.153 132.794 259.631 137.147 M 745.500 282.595 C 696.299 292.914, 602.907 306.663, 569 308.579 C 538.254 310.316, 509.289 302.494, 493.980 288.321 L 487.820 282.618 459.910 296.545 C 444.560 304.204, 432 310.963, 432 311.564 C 432 313.766, 438.681 322.706, 446.188 330.551 C 478.649 364.468, 532.711 378.530, 598 370.037 C 611.428 368.291, 611.432 368.273, 595.759 378.891 C 540.697 416.198, 504.074 450.133, 486.100 480.500 C 475.511 498.391, 471.486 512.857, 472.230 530.348 C 473.013 548.744, 478.323 560.734, 492.233 575.516 C 525.222 610.574, 584.832 620.977, 669.456 606.446 C 680.294 604.585, 683.601 604.323, 684.256 605.275 C 685.729 607.414, 684.394 658.392, 682.560 670 C 670.730 744.917, 630.397 802.692, 559.208 846.695 C 542.785 856.847, 513.510 871.591, 495.250 878.908 C 487.769 881.905, 482 884.783, 482 885.516 C 482 886.596, 502.802 942.781, 503.594 943.841 C 504.047 944.447, 527.054 934.963, 543.118 927.548 C 574.618 913.009, 608.102 892.547, 632.374 873.003 C 701.912 817.011, 740.365 745.373, 748.050 657.500 C 749.212 644.207, 748.782 600.998, 747.397 592 L 746.859 588.500 757.179 585.563 C 782.104 578.469, 825.113 563.550, 854 551.978 C 867.080 546.738, 901.119 532.191, 901.759 531.568 C 901.901 531.429, 900.209 522.807, 897.999 512.408 C 893.539 491.422, 891.150 484.990, 879.027 461.330 C 850.395 405.446, 821.587 374.426, 790.948 366.487 C 782.377 364.266, 767.680 364.550, 759.355 367.099 C 713.883 381.019, 686.915 436.551, 682.208 525.958 L 681.500 539.415 677.500 540.244 C 641.594 547.685, 602.630 550.726, 579.500 547.891 C 561.416 545.675, 545.262 539.353, 538.467 531.832 C 534.423 527.356, 534.475 526.020, 539.063 516.500 C 557.579 478.078, 650.669 411.464, 768.500 352.316 C 784.450 344.309, 797.656 337.620, 797.846 337.450 C 798.366 336.986, 767.808 277.985, 767.106 278.095 C 766.773 278.148, 757.050 280.172, 745.500 282.595 M 770.618 433.134 C 762.398 442.736, 754.179 465.536, 750.118 490 C 747.926 503.202, 745.926 521.226, 746.579 521.900 C 747.873 523.235, 822.840 496.580, 823.638 494.501 C 824.228 492.963, 813.766 473.592, 805.545 461 C 793.769 442.964, 780.839 429, 775.914 429 C 774.947 429, 772.564 430.860, 770.618 433.134 " stroke="none" fill="black" fill-rule="evenodd"/>
</svg>