<svg xmlns="http://www.w3.org/2000/svg" width="1000" height="1000" viewBox="0 0 1000 1000" version="1.1">
	<path d="M 349.500 80.722 C 333.550 82.655, 320.394 84.327, 320.263 84.438 C 319.968 84.690, 329.881 162.874, 333.956 192.427 C 335.619 204.487, 336.855 214.479, 336.702 214.631 C 336.550 214.783, 330.388 217.681, 323.008 221.071 C 298.950 232.122, 283.700 236.822, 256.878 241.452 C 233.793 245.436, 196.788 248.987, 178.250 248.996 L 170 249 170.005 271.250 C 170.008 283.488, 170.305 297.951, 170.665 303.391 L 171.320 313.282 186.410 312.604 C 247.739 309.848, 296.729 301.175, 331 287.005 C 337.875 284.162, 344.175 281.625, 345 281.367 C 346.245 280.977, 347.404 286.639, 351.824 314.699 C 354.752 333.289, 357.340 349.625, 357.576 351 C 357.967 353.282, 355.763 355.023, 332.254 371 C 240.666 433.244, 206.937 465.795, 196.824 501.702 C 194.011 511.690, 193.826 525.851, 196.396 534.500 C 202.548 555.202, 217.894 569.782, 240.027 575.953 C 271.426 584.708, 326.385 576.843, 391.684 554.251 L 402.867 550.382 410.806 573.941 C 415.173 586.898, 420.320 601.840, 422.245 607.144 L 425.744 616.787 413.122 622.536 C 394.514 631.012, 357.447 649.791, 342 658.568 C 289.004 688.680, 250.457 722.356, 231.940 754.720 C 209.567 793.822, 210.131 839.701, 233.365 870.609 C 256.896 901.912, 301.262 919.782, 368.395 924.998 C 385.092 926.295, 431.080 926.285, 451.517 924.979 C 483.880 922.911, 525.434 918.126, 556.480 912.893 C 563.068 911.783, 568.533 910.790, 568.623 910.687 C 568.712 910.584, 566.022 896.550, 562.643 879.500 C 557.750 854.808, 556.195 848.541, 555 848.702 C 554.175 848.813, 546.075 850.042, 537 851.433 C 410.720 870.790, 312.232 864.063, 286.026 834.293 C 272.579 819.016, 279.022 791.799, 302.024 766.711 C 319.780 747.345, 354.538 723.436, 398 700.691 C 412.315 693.200, 446.132 677.235, 448.712 676.750 C 449.547 676.593, 452.466 681.889, 456.567 691 C 466.364 712.766, 483.083 745.738, 492.316 761.500 L 500.517 775.500 525.857 775.500 L 551.198 775.500 557.422 761.500 C 573.444 725.459, 592.146 693.996, 610.560 672.102 L 619.250 661.769 600.421 642.921 C 590.066 632.555, 581.797 623.874, 582.047 623.629 C 582.296 623.385, 601.625 616.213, 625 607.692 C 737.055 566.844, 767.888 553.891, 795 536.274 C 805.610 529.379, 817.464 517.458, 821.737 509.385 C 828.569 496.477, 831.205 473.763, 827.527 459.500 C 825.299 450.859, 818.898 438.480, 812.904 431.218 C 802.719 418.881, 784.278 407.376, 763.644 400.486 C 753.285 397.027, 730.588 392, 725.331 392 L 722.413 392 719.768 423.228 C 718.313 440.404, 717.215 454.549, 717.328 454.662 C 717.441 454.775, 722.026 455.784, 727.517 456.905 C 745.779 460.632, 760.877 467.111, 764.624 472.829 C 767.128 476.651, 765.629 479.423, 758.687 483.807 C 737.302 497.314, 706.133 510.188, 608.500 545.842 C 548.301 567.826, 522.659 577.375, 500.637 586.010 C 491.961 589.412, 484.731 592.039, 484.570 591.848 C 483.958 591.118, 469.040 547.980, 465.743 537.405 L 462.283 526.309 475.892 520.036 C 501.961 508.018, 539.599 488.029, 564.903 472.764 C 580.177 463.550, 611.978 442.675, 611.990 441.855 C 612.001 441.115, 578.504 393.142, 576.664 391.262 C 575.706 390.283, 572.739 391.837, 562.476 398.695 C 533.108 418.321, 503.149 435.540, 468.552 452.678 C 451.889 460.932, 445.416 463.697, 444.916 462.773 C 443.312 459.811, 428 388.257, 428 383.726 C 428 383.002, 431.488 379.994, 435.750 377.042 C 440.012 374.090, 452.050 365.310, 462.500 357.532 C 532.973 305.076, 564.837 265.734, 568.935 226.118 C 572.646 190.254, 551.729 157.058, 520 148.456 C 511.094 146.042, 496.804 145.582, 485.988 147.362 C 466.034 150.645, 448.449 157.047, 417.614 172.254 C 406.677 177.648, 397.522 181.856, 397.271 181.604 C 396.659 180.992, 394.788 167.361, 388.610 118.500 L 383.426 77.500 380.963 77.354 C 379.608 77.273, 365.450 78.789, 349.500 80.722 M 488 211.885 C 473.765 215.749, 458.284 222.578, 429.250 237.800 C 410.958 247.390, 407 249.840, 407 251.576 C 407 253.771, 414.522 304.419, 415.565 309.250 C 415.892 310.762, 416.461 311.997, 416.829 311.994 C 417.919 311.984, 446.594 289.710, 458.377 279.721 C 481.285 260.300, 500.846 236.993, 504.465 224.805 C 506.292 218.652, 506.344 217.284, 504.902 213.149 C 503.878 210.211, 503.492 210.004, 499.152 210.060 C 496.593 210.093, 491.575 210.914, 488 211.885 M 347.445 437.800 C 310.322 463.828, 290.157 479.935, 274.401 496.141 C 264.882 505.933, 259.191 513.532, 260.448 514.770 C 260.855 515.172, 267.109 515.423, 274.344 515.330 C 289.088 515.139, 303.499 512.925, 326 507.394 C 340.509 503.828, 382.741 490.509, 384.358 488.991 C 384.829 488.547, 383.390 480.606, 381.159 471.342 C 378.929 462.079, 375.618 447.414, 373.802 438.754 C 371.986 430.094, 370.050 423.015, 369.500 423.023 C 368.950 423.031, 359.025 429.681, 347.445 437.800 M 558.500 632.096 C 557.400 632.562, 546.011 636.958, 533.190 641.865 C 520.370 646.772, 509.635 651.032, 509.335 651.331 C 508.805 651.862, 522.474 682.729, 523.924 684.276 C 524.325 684.703, 527.725 679.978, 531.481 673.776 C 538.925 661.485, 549.715 645.884, 556.716 637.288 C 559.162 634.285, 561.013 631.698, 560.831 631.539 C 560.649 631.379, 559.600 631.630, 558.500 632.096 " stroke="none" fill="black" fill-rule="evenodd"/>
</svg>