<svg xmlns="http://www.w3.org/2000/svg" width="1000" height="1000" viewBox="0 0 1000 1000" version="1.1">
	<path d="M 382.968 77.250 C 382.483 81.021, 380.322 139.712, 380.648 140.239 C 380.906 140.658, 382.874 141, 385.021 141 C 391.429 141, 418.594 144.742, 432.226 147.503 C 479.194 157.014, 513.509 172.211, 533.571 192.384 C 541.625 200.482, 549.016 211.483, 547.369 212.920 C 546.891 213.337, 541.786 214.478, 536.025 215.455 C 491.659 222.978, 441.233 242.369, 396.500 269.109 C 341.008 302.280, 295.414 344.838, 261.093 395.500 C 237.322 430.588, 212.998 480.194, 196.974 526.261 C 195.337 530.969, 194.304 532.704, 193.576 531.976 C 192.892 531.292, 192.524 520.097, 192.515 499.715 C 192.503 474.785, 192.865 465.983, 194.312 456 C 200.716 411.825, 213.342 361.357, 231.387 307.801 C 238.534 286.589, 239.483 283.010, 238.105 282.451 C 230.329 279.292, 181.640 261, 181.008 261 C 179.363 261, 166.251 299.830, 156.358 334 C 141.350 385.833, 132.245 430.806, 128.924 469.500 C 125.902 504.719, 131.047 566.315, 143.042 638.500 C 146.569 659.729, 156.234 709.474, 156.995 710.316 C 157.654 711.046, 214.449 697.205, 219.583 695.064 C 221.395 694.308, 221.895 692.521, 223.421 681.347 C 230.979 626.010, 252.295 552.742, 276.433 499.130 C 291.273 466.172, 311.462 432.202, 330.596 408 C 340.467 395.514, 370.558 365.954, 385.500 354.065 C 427.073 320.987, 475.752 296.070, 523.152 283.606 C 537.223 279.906, 553.885 276.552, 554.607 277.273 C 554.842 277.509, 555.311 295.431, 555.649 317.101 C 556.209 352.997, 555.031 411.221, 553.351 430.724 L 552.729 437.948 530.614 437.959 C 489.322 437.979, 457.107 443.132, 426 454.694 C 364.508 477.548, 321.978 529.358, 322.004 581.381 C 322.025 622.859, 346.484 663.458, 395 702.541 C 409.829 714.487, 437.802 733.187, 450.201 739.444 L 459.902 744.339 456.022 748.920 C 450.805 755.077, 431.705 773.739, 420 784.115 C 385.860 814.380, 339.920 847.023, 299.215 869.940 L 289.929 875.167 294.332 883.334 C 296.753 887.825, 303.329 900.388, 308.943 911.250 C 314.558 922.113, 319.358 931, 319.609 931 C 321.777 931, 345.807 916.951, 368 902.708 C 426.980 864.855, 481.488 818.480, 517.417 775.582 L 527.333 763.742 533.917 764.387 C 555.761 766.527, 569.188 767.129, 582.500 766.567 C 636.538 764.284, 683.451 750.825, 726.745 725.186 C 799.376 682.174, 851.406 603.988, 863.623 519.500 C 865.986 503.157, 865.976 470.027, 863.603 453.500 C 854.475 389.923, 824.996 333.985, 775.229 285.809 C 731.037 243.030, 687.436 220.596, 632.872 212.564 C 627.026 211.704, 620.424 211, 618.201 211 C 614.453 211, 614.107 210.764, 613.451 207.750 C 610.635 194.820, 602.423 176.996, 593.524 164.500 C 561.252 119.181, 493.451 88.584, 403 78.521 C 390.441 77.124, 383.044 76.655, 382.968 77.250 M 619.358 308.666 C 619.968 339.660, 619.089 393.947, 617.392 430.033 L 616.709 444.566 630.105 446.950 C 643.451 449.325, 681.583 458.250, 682.561 459.227 C 683.029 459.695, 665.448 518.885, 664.584 519.749 C 664.380 519.953, 660.002 518.988, 654.856 517.605 C 643.730 514.613, 616.856 509, 613.657 509 C 611.467 509, 611.323 509.639, 608.653 531.250 C 600.344 598.504, 585.921 658.343, 569.052 695.545 C 567.373 699.248, 566 702.510, 566 702.795 C 566 703.080, 573.313 703.028, 582.250 702.679 C 618.591 701.262, 650.421 693.059, 681.952 676.984 C 704.155 665.664, 720.198 653.731, 738.574 634.868 C 778.271 594.119, 802 538.611, 802 486.500 C 802 416.755, 761.317 347.096, 694 301.579 C 674.656 288.500, 649.288 279.109, 623.596 275.517 L 618.692 274.831 619.358 308.666 M 515 501.678 C 457.120 504.915, 415.423 523.312, 394.978 554.632 C 379.569 578.235, 383.719 600.241, 408.985 628.914 C 427.713 650.167, 465.761 677.592, 490.900 687.959 C 494.956 689.631, 498.623 691, 499.047 691 C 500.236 691, 507.278 677.672, 512.292 665.932 C 526.704 632.192, 538.242 581.880, 545.976 519.059 C 547.577 506.047, 547.739 502.452, 546.750 501.824 C 545.576 501.079, 527.220 500.994, 515 501.678 " stroke="none" fill="black" fill-rule="evenodd"/>
</svg>