<svg xmlns="http://www.w3.org/2000/svg" width="1000" height="1000" viewBox="0 0 1000 1000" version="1.1">
	<path d="M 264.521 99.606 C 264.829 103.398, 265.711 117.536, 266.480 131.025 C 267.249 144.514, 268.356 156.806, 268.939 158.340 C 270.473 162.376, 270.215 176.464, 268.470 183.863 C 260.525 217.566, 207.323 307.928, 140.782 400.736 L 124.122 423.972 138.550 453.552 C 148.806 474.577, 153.343 482.922, 154.239 482.409 C 154.933 482.012, 166.525 474.841, 180 466.474 C 220.131 441.554, 250.792 424.869, 270.322 417.324 C 284.157 411.978, 317.778 407.076, 351.500 405.486 C 358.100 405.175, 365.863 404.681, 368.750 404.388 L 374.001 403.856 373.506 397.178 C 373.233 393.505, 372.733 379.363, 372.393 365.750 L 371.775 341 364.638 341.010 C 355.629 341.022, 332.957 342.581, 313.500 344.525 C 287.610 347.113, 268.583 350.743, 249.519 356.732 C 247.597 357.336, 247.589 357.276, 249.278 354.698 C 290.854 291.245, 322.344 231.388, 329.871 201.500 C 334.493 183.152, 335.159 159.541, 331.466 145 C 329.027 135.398, 321.820 121.325, 315.995 114.791 C 305.339 102.837, 287.964 94.382, 271.730 93.252 L 263.959 92.711 264.521 99.606 M 599.369 94.783 L 575.237 96.282 574.709 130.891 C 573.986 178.311, 572.111 190.111, 559.429 227.032 C 548.091 260.040, 534.648 288.143, 518.411 312.780 C 513.235 320.635, 509 327.312, 509 327.618 C 509 328.552, 549.298 370, 550.207 370 C 551.763 370, 573.234 359.930, 597.027 348.042 C 627.545 332.794, 652.885 318.643, 676.500 303.662 C 696.653 290.876, 714.471 281.138, 715.616 282.283 C 716.676 283.343, 714.438 297.578, 707.956 331 C 694.344 401.192, 693.635 408.547, 693.839 477.500 C 693.929 507.750, 694.221 534.750, 694.490 537.500 L 694.978 542.500 693.076 536.280 C 686.418 514.503, 670.689 494.945, 652.811 486.211 C 640.883 480.384, 631.791 478.656, 616.180 479.250 C 596.393 480.002, 580.190 485.644, 561.063 498.441 C 517.062 527.881, 487.331 579.860, 480.936 638.529 C 479.262 653.887, 480.267 679.067, 482.971 689.500 C 488.011 708.943, 496.429 725.123, 511.850 745 C 519.882 755.354, 544.056 780.223, 557 791.450 C 598.636 827.561, 652.879 864.001, 714.269 897.099 L 736.037 908.835 749.573 881.168 L 763.109 853.500 761.958 783.619 C 760.701 707.339, 760.402 712.047, 766.500 712.015 C 782.465 711.933, 880.017 695.274, 879.987 692.634 C 879.966 690.696, 866.151 632.818, 865.572 632.239 C 865.271 631.938, 855.456 633.553, 843.762 635.829 C 832.068 638.105, 817.029 640.878, 810.342 641.991 C 797.853 644.071, 760.679 648.971, 760.273 648.591 C 759.810 648.159, 757.933 517.926, 757.720 471.500 C 757.454 413.445, 758.073 407.272, 770.603 343 C 777.997 305.068, 779.993 290.911, 779.978 276.500 C 779.963 261.898, 778.184 252.853, 773.426 243.185 C 763.653 223.325, 742.588 213.205, 717.061 216.106 C 698.946 218.164, 676.226 228.268, 645 248.153 C 627.587 259.242, 614.607 267, 613.469 267 C 613.093 267, 613.111 266.212, 613.507 265.250 C 616.406 258.217, 623.726 236.421, 627.092 224.801 C 635.284 196.524, 637.907 176.337, 638.705 135.433 C 639.017 119.447, 638.950 103.359, 638.557 99.683 L 637.841 93 630.670 93.142 C 626.727 93.221, 612.641 93.959, 599.369 94.783 M 224.500 473.648 C 218.450 489.398, 213.365 502.625, 213.201 503.041 C 213.036 503.457, 215.452 505.256, 218.570 507.040 C 227.147 511.947, 235.457 520.629, 239.257 528.653 C 242.077 534.607, 242.542 536.739, 242.819 545 C 243.142 554.611, 242.136 562.356, 229.060 650.930 C 221.905 699.401, 220.815 710.836, 220.269 743.202 C 219.748 774.086, 220.529 791.080, 224.074 826 C 225.993 844.902, 231.725 887.746, 232.503 889.005 C 232.839 889.548, 286.209 883.683, 291.500 882.522 C 292.910 882.213, 294.153 880.227, 295.714 875.792 C 296.932 872.331, 304.652 849.925, 312.870 826 C 341.974 741.266, 357.455 698.005, 363.505 684.500 C 368.533 673.274, 388.774 630.586, 402.385 602.500 L 415.954 574.500 387.858 560.750 C 372.405 553.188, 359.434 547, 359.033 547 C 358.315 547, 355.147 553.434, 329.741 606.500 C 308.747 650.352, 302.119 665.319, 293.871 687.500 C 289.576 699.050, 286.049 707.825, 286.033 707 C 285.971 703.818, 290.343 671.844, 296.015 634 C 306.506 563.996, 307.294 557.197, 306.672 542 C 305.922 523.688, 302.524 511.019, 294.352 496.067 C 286.356 481.435, 273.475 467.426, 258.500 457.077 C 250.919 451.837, 238.548 444.997, 236.667 445.005 C 236.025 445.008, 230.550 457.897, 224.500 473.648 M 613.638 543.108 C 607.063 544.653, 594.734 551.724, 587.646 558.016 C 559.363 583.122, 543.959 618.755, 544.021 658.926 C 544.039 670.650, 544.368 673.423, 546.433 679.275 C 554.704 702.709, 586.972 736.688, 634.002 771.487 C 656.056 787.806, 697.439 815.063, 698.368 813.884 C 698.534 813.673, 698.331 793.925, 697.915 770 C 697.500 746.075, 697.124 723.953, 697.080 720.840 L 697 715.180 688.250 714.517 C 647.051 711.397, 619.268 700.452, 603.036 680.947 C 593.069 668.971, 588.055 655.566, 587.817 640.265 C 587.513 620.679, 594.256 606.113, 616.408 578.500 C 621.702 571.900, 627.412 563.740, 629.097 560.367 L 632.160 554.233 630.108 550.211 C 626.279 542.706, 622.425 541.044, 613.638 543.108 M 693.721 568.857 C 691.427 581.688, 682.886 597.305, 667.937 616 C 657.233 629.387, 650.807 638.878, 651.590 640.145 C 653.869 643.833, 672.274 648.973, 688.750 650.521 L 696 651.203 695.869 630.851 C 695.636 594.779, 694.573 564.092, 693.721 568.857 " stroke="none" fill="black" fill-rule="evenodd"/>
</svg>