<svg xmlns="http://www.w3.org/2000/svg" width="1000" height="1000" viewBox="0 0 1000 1000" version="1.1">
	<path d="M 335.439 58.842 C 328.863 81.396, 322.828 114.697, 317.379 158.500 C 315.327 175, 313.520 188.669, 313.365 188.875 C 313.210 189.082, 310.027 187.020, 306.291 184.295 C 287.852 170.838, 282.768 167.665, 281.938 169.094 C 281.489 169.867, 273.719 181.946, 264.671 195.937 L 248.220 221.373 256.860 227.348 C 271.247 237.296, 280.525 244.649, 283.726 248.640 L 286.766 252.429 275.485 260.052 C 258.676 271.410, 247.550 280.332, 237.391 290.600 C 218.674 309.517, 210.661 326.550, 210.856 347 C 211.032 365.498, 217.649 382.067, 230.245 395.555 C 236.554 402.311, 237.094 403.209, 235.862 404.898 C 235.113 405.926, 231.764 410.307, 228.419 414.633 C 213.235 434.278, 203.337 454.806, 200 473.578 C 198.038 484.610, 199.121 502.647, 202.338 512.500 C 211.041 539.166, 234.922 559.261, 267.827 567.608 C 273.038 568.930, 281.025 570.298, 285.575 570.647 L 293.848 571.283 293.737 598.154 L 293.625 625.024 290.063 625.978 C 271.963 630.828, 236.563 638.219, 215.500 641.546 C 203.183 643.491, 194.343 644.268, 183.409 644.365 C 165.733 644.523, 163.961 643.918, 166.675 638.649 C 168.982 634.171, 181.295 621.692, 189.291 615.729 C 193.026 612.943, 195.951 610.099, 195.791 609.408 C 195.631 608.717, 188.300 596.464, 179.500 582.178 C 165.750 559.855, 163.255 556.334, 161.756 557.133 C 151.921 562.381, 127.596 584.368, 118.756 596 C 112.959 603.628, 104.743 620.168, 102.861 628 C 100.999 635.749, 101.285 651.166, 103.427 658.500 C 110.014 681.053, 129.101 699.708, 151.500 705.484 C 176.775 712.002, 222.277 707.629, 285.983 692.558 C 293.948 690.674, 300.624 689.291, 300.819 689.485 C 301.013 689.680, 302.285 694.263, 303.645 699.669 C 313.358 738.290, 329.130 773.968, 349.481 803.361 L 355.946 812.698 365.723 812.305 C 399.620 810.941, 413.138 810.196, 413.672 809.662 C 414.006 809.327, 414.671 802.404, 415.151 794.277 C 416.186 776.713, 417.022 772.151, 421.979 756.990 C 426.226 744.002, 433.261 729.438, 444.866 709.606 L 452.782 696.078 427.391 679.950 C 413.426 671.080, 402 663.487, 402 663.078 C 402 661.344, 494.196 637.764, 523.119 632.100 C 548.633 627.103, 610.979 618, 619.686 618 L 622.312 618 621.686 634.750 C 620.663 662.129, 617.073 684.151, 609.339 710.500 C 604.911 725.585, 590.067 766.582, 584.718 778.500 C 571.412 808.145, 545.883 847.258, 518.616 879.775 C 513.877 885.426, 510 890.239, 510 890.470 C 510 890.826, 548.165 925.709, 554.766 931.386 C 557.373 933.629, 555.235 935.745, 574.345 912 C 611.793 865.471, 635.518 825.771, 652.035 782 C 676.072 718.304, 684.040 682.622, 685.669 631.387 L 686.309 611.273 695.405 610.641 C 750.468 606.813, 789.403 605.107, 847 603.996 C 873.125 603.492, 894.612 603.062, 894.750 603.040 C 894.888 603.018, 895 588.825, 895 571.500 L 895 540 865.750 540.007 C 821.029 540.018, 747.007 542.901, 700.500 546.444 C 691.150 547.157, 683.343 547.603, 683.150 547.437 C 682.958 547.270, 681.984 542.430, 680.986 536.679 C 676.794 512.532, 668.535 487.708, 656.550 463.233 L 649.246 448.319 666.373 438.495 C 691.661 423.990, 724.956 403.392, 746.500 388.926 C 816.838 341.696, 843.144 312.148, 845.580 277.635 C 847.109 255.969, 834.864 235.821, 813.481 224.821 C 804.306 220.102, 795.297 217.051, 784.337 214.954 L 778.175 213.774 779.530 209.137 C 784.583 191.839, 785.677 168.338, 782.072 154.500 C 778.705 141.575, 774.720 134.543, 765.589 125.411 C 739.754 99.576, 701.646 100.644, 636.500 129.026 C 554.219 164.873, 413.733 255.224, 304.221 342.724 L 284.943 358.128 281.656 356.096 C 273.983 351.354, 272.933 347.954, 277.168 341.560 C 283.751 331.622, 305.618 315.618, 350.226 288.091 C 371.825 274.763, 383.817 266.396, 418.500 240.454 C 448.579 217.955, 458.599 209.536, 475.500 192.561 C 495.360 172.615, 504.744 158.622, 510.080 141 C 517.081 117.880, 507.440 87.567, 486.297 66.220 C 478.563 58.412, 470.232 52.364, 468.968 53.640 C 468.499 54.113, 461.504 66.391, 453.423 80.924 C 443.799 98.233, 439.036 107.756, 439.615 108.528 C 443.216 113.324, 446.138 118.044, 447.425 121.143 C 448.922 124.749, 448.897 124.849, 444.967 130.930 C 437.199 142.948, 416.511 162.231, 388.364 183.688 C 380.011 190.056, 378.454 190.908, 378.200 189.251 C 377.765 186.417, 383.628 141.463, 387.095 121.051 C 388.725 111.455, 391.665 96.912, 393.629 88.734 C 395.593 80.557, 396.990 73.657, 396.734 73.401 C 396.478 73.145, 382.953 68.491, 366.679 63.060 L 337.088 53.184 335.439 58.842 M 142.129 86.750 C 133.779 103.305, 129.555 120.814, 129.523 139 C 129.497 154.515, 130.571 159.904, 136.055 171.755 C 144.845 190.751, 158.713 202.188, 176.346 204.984 C 198.383 208.478, 230.138 194.794, 270.811 164.279 C 280.960 156.664, 281.977 155.623, 280.708 154.146 C 279.930 153.241, 271.100 142.497, 261.087 130.272 C 251.073 118.047, 242.462 107.785, 241.950 107.469 C 241.439 107.153, 237.528 109.540, 233.260 112.774 C 217.908 124.405, 194.557 138.890, 193.255 137.589 C 192.270 136.603, 194.848 125.401, 197.700 118.276 C 199.101 114.777, 200.079 111.757, 199.874 111.565 C 199.248 110.979, 145.835 81, 145.418 81 C 145.204 81, 143.724 83.588, 142.129 86.750 M 709.235 171.480 C 654.074 181.613, 523.112 257.739, 390.250 356.900 C 375.812 367.676, 364 376.749, 364 377.063 C 364 377.377, 367.433 378.687, 371.630 379.974 C 381.706 383.066, 396.026 390.343, 403.744 396.293 C 415.357 405.247, 423.734 418.105, 427.660 433 C 430.415 443.456, 429.939 463.812, 426.643 476.500 C 418.872 506.410, 396.618 534.118, 366.005 551.997 L 359.266 555.933 358.671 561.716 C 358.344 564.897, 357.772 576.612, 357.401 587.750 C 356.870 603.678, 356.993 608, 357.980 608 C 358.670 608, 372.344 604.435, 388.367 600.078 C 474.325 576.704, 498.102 571.125, 542 564.029 C 561.020 560.955, 589.286 557.048, 608.250 554.873 C 616.406 553.938, 619 553.290, 619 552.190 C 619 548.466, 613.447 526.617, 609.840 516.152 C 605.206 502.705, 594.545 480, 592.865 480 C 592.238 480, 582.673 484.794, 571.612 490.654 C 532.323 511.467, 474.767 540.166, 473.972 539.339 C 473.015 538.343, 447 484.164, 447 483.166 C 447 482.788, 457.238 477.388, 469.750 471.165 C 508.150 452.068, 555.006 427.544, 554.726 426.690 C 554.580 426.244, 549.819 421.232, 544.146 415.551 L 533.832 405.222 553.637 381.111 C 564.529 367.850, 573.949 357, 574.570 357 C 576.020 357, 596.360 377.051, 605.654 387.642 L 612.798 395.784 635.969 382.369 C 691.318 350.323, 731.317 323.801, 757.683 301.664 C 766.580 294.193, 779 281.527, 779 279.923 C 779 278.947, 777.261 278.425, 769 276.919 C 762.361 275.710, 726.392 275.461, 720.410 276.583 C 717.834 277.066, 717.087 276.819, 716.659 275.343 C 716.365 274.329, 714.213 261.049, 711.879 245.832 L 707.634 218.164 711.755 209.293 C 716.814 198.405, 720.163 185.870, 720.355 177.102 C 720.525 169.348, 720.609 169.390, 709.235 171.480 M 295.516 434.440 C 275.946 454.484, 264.254 472.911, 262.483 486.500 C 261.928 490.752, 262.184 492.024, 264.194 495 C 266.881 498.981, 274.763 503.585, 282.350 505.605 C 285.182 506.359, 291.591 506.982, 296.590 506.988 C 315.978 507.013, 335.190 498.998, 349.816 484.782 C 360.621 474.281, 365.149 465.330, 365.360 454.055 L 365.500 446.609 360.019 443.852 C 353.286 440.465, 343.475 437.761, 322 433.376 C 312.925 431.522, 304.463 429.765, 303.195 429.470 C 301.371 429.046, 299.771 430.081, 295.516 434.440 M 740.109 649.178 C 734.944 665.305, 730.669 678.836, 730.609 679.247 C 730.549 679.658, 733.986 681.523, 738.246 683.391 C 761.066 693.398, 774.445 706.453, 794.469 738.250 C 797.153 742.513, 799.779 746, 800.304 746 C 801.185 746, 842.717 722.608, 851.237 717.314 L 854.973 714.992 850.846 708.246 C 824.575 665.303, 804.668 645.411, 771.500 628.958 C 762.700 624.593, 754.150 620.759, 752.500 620.439 L 749.500 619.857 740.109 649.178 M 379.223 668.475 C 370.821 670.810, 363.703 672.963, 363.406 673.261 C 362.786 673.881, 367.987 694.804, 370.789 702.962 L 372.665 708.424 376.464 701.462 C 385.966 684.046, 391.582 674.101, 394.652 669.250 C 397.380 664.941, 397.664 664.021, 396.238 664.115 C 395.282 664.178, 387.625 666.140, 379.223 668.475 " stroke="none" fill="black" fill-rule="evenodd"/>
</svg>