<svg xmlns="http://www.w3.org/2000/svg" width="1000" height="1000" viewBox="0 0 1000 1000" version="1.1">
	<path d="M 778 94.092 C 751.724 101.443, 698.769 110.443, 664 113.467 C 617.800 117.484, 576.887 113.066, 519.214 97.832 C 508.607 95.031, 499.752 92.914, 499.537 93.130 C 499.322 93.345, 495.001 106.341, 489.936 122.010 C 484.870 137.680, 480.524 151.036, 480.278 151.692 C 479.061 154.934, 538.688 169.216, 575.286 174.449 C 617.296 180.456, 649.507 180.327, 697.885 173.960 C 706.346 172.847, 713.399 172.066, 713.558 172.225 C 713.717 172.383, 664.630 224.935, 604.476 289.007 C 544.322 353.078, 495.082 405.782, 495.053 406.127 C 495.006 406.685, 530.979 448.143, 536.357 453.729 L 538.503 455.957 552.501 446.837 C 604.002 413.284, 659.496 389.077, 703.884 380.804 C 719.351 377.921, 745.278 377.646, 755 380.262 C 771.143 384.604, 789 397.214, 795.204 408.649 C 814.583 444.374, 766.507 512.502, 672.500 582.532 C 664.250 588.677, 643.775 603.288, 627 615 C 575.158 651.196, 560.140 661.897, 541.500 675.925 C 476.681 724.706, 447.220 758.121, 440.547 790.425 C 438.496 800.358, 438.596 807.101, 440.932 816.234 C 446.034 836.182, 458.151 850.089, 479.924 860.983 C 497.031 869.542, 517.510 874.780, 552 879.417 C 590.863 884.643, 606.945 885.475, 669 885.472 C 728.929 885.470, 748.739 884.623, 798.342 879.948 C 834.702 876.521, 882.786 870.467, 884.214 869.137 C 884.859 868.537, 875.288 808.060, 874.395 807.093 C 874.188 806.869, 870.302 807.220, 865.760 807.872 C 788.749 818.937, 700.878 824.383, 636.656 822.070 C 596.404 820.621, 565.602 817.746, 539 812.956 C 521.104 809.734, 504 803.678, 504 800.563 C 504 797.567, 514.606 783.546, 524.308 773.715 C 547.532 750.184, 577.504 727.064, 651 675.985 C 688.287 650.071, 711.384 633.388, 727 621.089 C 806.417 558.540, 851.596 499.914, 861.546 446.500 C 864.090 432.840, 863.175 410.556, 859.576 398.551 C 853.627 378.704, 842.854 362.349, 826.107 347.735 C 807.238 331.271, 785.539 320.914, 760.500 316.421 C 735.293 311.898, 692.893 315.621, 662.733 325.006 L 656.966 326.801 659.733 323.481 C 661.255 321.655, 701.650 278.471, 749.500 227.515 C 797.350 176.560, 836.500 134.470, 836.500 133.981 C 836.500 132.093, 792.477 91.062, 790.500 91.108 C 789.400 91.133, 783.775 92.476, 778 94.092 M 292.119 137.078 C 275.959 142.496, 262.616 147.058, 262.467 147.215 C 262.319 147.372, 263.032 151.325, 264.052 156 C 266.936 169.216, 268.234 188.685, 267.086 201.500 C 264.826 226.721, 259.307 242.458, 244.465 266 C 229.465 289.792, 215.406 307.910, 178.308 351.257 C 143.210 392.265, 132.790 406.518, 125.878 422.970 C 119.776 437.491, 118.327 454.137, 121.935 468.244 C 126.530 486.211, 134.988 497.271, 163.760 522.936 C 168.304 526.988, 174.464 533.498, 177.451 537.402 C 188.709 552.118, 192.183 564.371, 193.932 595.532 C 196.319 638.057, 194.576 690.386, 187.972 774.500 C 184.734 815.744, 185.518 829.342, 193.331 867.500 C 197.566 888.180, 197.668 888.495, 200.066 888.190 C 203.550 887.747, 256.194 877.996, 258.044 877.451 C 259.141 877.128, 260.245 873.587, 261.849 865.248 C 270.782 818.804, 292.610 751.353, 315.485 699.500 C 322.110 684.484, 339.852 648.749, 345.771 638.500 C 347.995 634.650, 349.519 631.202, 349.157 630.839 C 347.982 629.657, 295.860 600, 294.958 600 C 293.429 600, 269.624 645.607, 261.447 664.201 L 258.500 670.902 258.424 634.201 C 258.291 570.205, 254.953 546.870, 242.308 521.547 C 233.148 503.202, 224.571 492.521, 202.922 472.500 C 194.001 464.250, 185.809 456.300, 184.718 454.833 L 182.734 452.166 185.713 445.833 C 189.978 436.769, 200.176 423.620, 229.403 389.500 C 300.695 306.274, 322.154 269.478, 329.488 217.883 C 331.386 204.528, 331.394 175.772, 329.504 161.500 C 327.652 147.509, 324.081 130.454, 322.623 128.632 C 321.683 127.456, 316.716 128.831, 292.119 137.078 " stroke="none" fill="black" fill-rule="evenodd"/>
</svg>