<svg xmlns="http://www.w3.org/2000/svg" width="1000" height="1000" viewBox="0 0 1000 1000" version="1.1">
	<path d="M 484.711 82.634 C 481.534 99.483, 479.108 113.442, 479.320 113.653 C 479.531 113.865, 485.121 115.360, 491.741 116.977 C 545.491 130.102, 589.020 154.247, 588.994 170.921 C 588.986 176.367, 587.141 181.854, 584.919 183.043 C 583.823 183.630, 575.917 184.969, 567.352 186.018 C 534.557 190.036, 517.747 197.057, 502.435 213.133 C 478.479 238.285, 469.164 273.861, 476.103 313.714 C 479.551 333.520, 481.477 330.877, 460.500 335.122 C 425.677 342.169, 399.677 345, 369.787 345 C 345.939 345, 334.298 343.953, 318.040 340.347 C 291.899 334.549, 273.570 325.068, 260.115 310.384 C 254.503 304.259, 247 291.663, 247 288.366 C 247 287.484, 245.848 287.013, 243.750 287.036 C 239.193 287.087, 184.179 294.488, 183.530 295.137 C 182.649 296.018, 186.652 310.291, 189.959 318.063 C 206.524 356.991, 244.659 387.209, 293.495 400.105 C 320.137 407.141, 343.260 409.487, 378.392 408.717 C 411.879 407.984, 437.873 404.878, 476.923 396.944 C 484.856 395.332, 491.450 394.123, 491.576 394.257 C 493.196 395.976, 495.096 474, 493.518 474 C 493.252 474, 490.037 472.165, 486.372 469.922 C 472.134 461.207, 440.431 446.604, 427.845 442.962 L 425.190 442.194 415.595 471.492 C 410.318 487.605, 406 501.198, 406 501.698 C 406 502.198, 410.974 504.533, 417.053 506.886 C 432 512.673, 450.348 522.103, 462.750 530.372 C 468.387 534.131, 473 537.497, 473 537.853 C 472.999 538.209, 465.912 539.792, 457.250 541.371 C 383.277 554.856, 307.607 581.837, 243 617.764 C 235.575 621.893, 229.050 625.503, 228.500 625.786 C 227.950 626.069, 228.885 624.770, 230.577 622.900 C 232.269 621.030, 243.252 608.700, 254.984 595.500 C 266.715 582.300, 277.161 570.552, 278.196 569.394 C 280.075 567.292, 280.038 567.252, 256.907 546.394 C 244.162 534.902, 233.362 525.500, 232.906 525.500 C 231.180 525.500, 146.225 621.626, 137.774 633.143 C 120.904 656.130, 105.792 690.482, 94.534 731.431 C 92.040 740.501, 90 748.372, 90 748.921 C 90 749.836, 137.006 784, 138.265 784 C 138.567 784, 144.701 777.138, 151.896 768.750 C 206.036 705.639, 302.769 648.552, 405.500 619.085 C 422.349 614.252, 445.018 608.684, 445.575 609.242 C 445.796 609.463, 440.381 613.123, 433.542 617.375 C 394.484 641.658, 354.376 672.417, 331 696.016 C 305.753 721.503, 279.326 761.859, 270.434 788.500 C 266.049 801.639, 265.181 809.067, 265.764 828.474 L 266.290 846 294.576 846 L 322.862 846 328.643 837.750 C 331.822 833.212, 339.391 824.382, 345.462 818.127 C 388.531 773.752, 450.428 742.403, 520.325 729.563 C 545.843 724.876, 560.624 723.610, 590.500 723.553 C 615.881 723.505, 619.561 723.715, 629.844 725.798 C 662.202 732.354, 684.844 746.566, 694.601 766.445 C 698.450 774.288, 698.500 774.540, 698.500 785.945 C 698.500 794.571, 698.022 798.958, 696.613 803.250 C 695.575 806.413, 694.549 809, 694.333 809 C 694.117 809, 690.951 806.464, 687.298 803.365 C 662.507 782.335, 626.620 767.267, 589.745 762.405 C 574.867 760.444, 533.481 761.009, 520.500 763.350 C 481.806 770.331, 453.004 786.960, 435.846 812.227 C 419.350 836.519, 417.165 866.212, 430.051 890.982 C 455.126 939.178, 524.894 954.939, 613.921 932.520 C 661.730 920.480, 693.951 904.207, 720.880 878.500 C 737.983 862.174, 750.195 843.471, 756.984 823.207 C 775.977 766.516, 749.628 708.900, 691.297 679.574 C 665.977 666.845, 638.147 660.465, 603 659.332 C 560.013 657.947, 510.396 664.301, 466.008 676.876 C 460.237 678.511, 455.381 679.714, 455.217 679.550 C 454.841 679.175, 474.804 666.546, 490 657.545 C 496.325 653.798, 502.478 650.130, 503.673 649.394 C 505.816 648.073, 505.675 647.746, 493.307 625.408 C 484.662 609.795, 481.135 602.534, 481.951 602.030 C 483.440 601.110, 510.037 597.387, 528.500 595.514 C 579.781 590.312, 635.041 590.332, 691 595.572 C 748.843 600.988, 819.180 614.539, 879 631.793 C 888.140 634.429, 892.701 635.334, 893.123 634.594 C 894.051 632.966, 911.176 574.832, 910.813 574.546 C 910.091 573.978, 872.118 563.699, 855.500 559.573 C 799.980 545.787, 745.411 536.440, 692 531.567 C 659.902 528.638, 633.019 527.722, 593.643 528.215 L 554.787 528.701 555.383 525.101 C 558.130 508.523, 558.643 418.939, 556.115 397.500 C 555.596 393.100, 554.855 386.735, 554.468 383.355 L 553.765 377.210 559.633 375.507 C 571.158 372.161, 599.514 362.791, 600.274 362.078 C 600.873 361.516, 581.719 303.620, 580.452 302.163 C 580.291 301.978, 571.845 304.565, 561.683 307.913 C 551.521 311.261, 542.759 314, 542.210 314 C 540.715 314, 540.194 312.014, 538.382 299.416 C 536.392 285.580, 537.350 277.215, 542.095 267 C 548.043 254.197, 552.071 252.043, 575 249.400 C 598.124 246.736, 607.428 244.155, 618.846 237.239 C 640.399 224.185, 654.420 195.279, 652.674 167.500 C 649.900 123.377, 613.180 89.570, 541.500 65.145 C 526.226 59.940, 496.757 52, 492.716 52 C 490.584 52, 490.233 53.344, 484.711 82.634 M 541.825 824.979 C 519.944 827.107, 502.565 833.404, 492.743 842.761 C 489.554 845.799, 484.998 854.444, 485.004 857.446 C 485.014 863.133, 492.446 869.595, 503.656 873.664 C 526.928 882.112, 564.452 880.197, 607.479 868.366 C 623.772 863.886, 647 854.848, 647 852.988 C 647 852.582, 643.618 849.912, 639.484 847.054 C 625.138 837.137, 606.653 829.868, 587.114 826.461 C 576.599 824.627, 553.285 823.864, 541.825 824.979 " stroke="none" fill="black" fill-rule="evenodd"/>
</svg>