<svg xmlns="http://www.w3.org/2000/svg" width="1000" height="1000" viewBox="0 0 1000 1000" version="1.1">
	<path d="M 454.253 84.250 C 425.427 122.313, 396.998 152.580, 374 169.691 C 361.441 179.036, 350.017 187.025, 303.500 218.991 C 251.016 255.058, 226.342 274.512, 204.938 296.703 C 178.146 324.479, 166.558 347.773, 166.736 373.491 C 166.857 390.889, 172.043 405.075, 183.574 419.550 C 196.348 435.585, 212.791 446.039, 235.495 452.562 C 263.920 460.728, 301.219 460.334, 347.359 451.381 C 354.432 450.008, 360.378 449.045, 360.573 449.240 C 360.769 449.435, 358.953 455.649, 356.540 463.047 C 342.576 505.856, 344.834 534.963, 364.154 561.170 C 369.356 568.227, 384.121 582.831, 390.910 587.636 C 393.136 589.211, 394.966 590.725, 394.977 591 C 394.988 591.275, 392.860 592.816, 390.248 594.424 C 377.777 602.103, 323.469 638.498, 315.500 644.517 C 294.167 660.628, 269.306 682.109, 246.104 704.477 C 238.248 712.051, 235.854 713.889, 236.306 712 C 239.657 698.013, 240.461 659.662, 237.669 647.035 C 231.781 620.411, 210.438 597.473, 175.500 580.221 C 164.295 574.688, 156.208 571.459, 155.452 572.215 C 154.773 572.893, 134.875 631.222, 135.225 631.507 C 135.376 631.631, 139.348 633.521, 144.050 635.707 C 159.553 642.916, 171.913 652.211, 174.648 658.718 C 177.534 665.585, 175.488 694.526, 170.479 717.693 C 165.492 740.762, 159.344 760.526, 149.314 785.741 C 146.198 793.573, 143.840 800.167, 144.074 800.394 C 145.117 801.402, 207.429 841, 207.973 841 C 208.308 841, 213.705 834.700, 219.965 826.999 L 231.348 812.998 233.924 814.654 C 244.013 821.141, 292.167 855.010, 309 867.459 C 331.995 884.465, 340.908 890.840, 359 903.219 C 371.413 911.712, 410.339 937.041, 413.944 938.970 C 415.577 939.844, 417.746 937.802, 430.334 923.536 C 447.155 904.473, 455.304 893.373, 468.417 871.663 C 488.869 837.803, 503.896 804.375, 513.444 771.500 C 523 738.597, 526.559 710.070, 524.908 679.618 C 523.347 650.846, 516.874 627.876, 504.691 607.883 L 500.192 600.500 503.346 598.557 C 514.369 591.766, 517.109 589.836, 516.822 589.065 C 516.645 588.588, 509.300 576.455, 500.500 562.103 C 489.659 544.422, 484.061 536.172, 483.138 536.516 C 482.389 536.795, 475.520 540.889, 467.874 545.613 C 459.911 550.533, 453.342 553.962, 452.499 553.638 C 449.245 552.389, 423.187 531.953, 418.690 527.123 C 411.994 519.932, 410.615 516.202, 411.410 507.427 C 412.715 493.025, 419.112 474.014, 430.565 450.500 C 441.598 427.846, 444.267 423.660, 448.654 422.127 C 465.859 416.114, 529.334 388.999, 531.668 386.666 C 532.521 385.813, 517.377 345.945, 514.512 341.500 C 504.830 326.482, 488.175 316.984, 471.568 317.012 C 448.941 317.050, 432.053 329.182, 408.834 362.080 L 402.670 370.813 387.085 375.555 C 310.921 398.732, 253.609 400.947, 234.755 381.443 C 229.641 376.153, 229.132 372.578, 232.456 365.309 C 242.310 343.764, 272.246 317.696, 342.500 269.488 C 416.901 218.434, 424.473 212.674, 447.550 189.570 C 457.478 179.632, 471.760 164.075, 479.288 155 C 495.571 135.372, 516.102 108.790, 515.750 107.792 C 515.405 106.812, 466.101 71, 465.097 71 C 464.652 71, 459.772 76.963, 454.253 84.250 M 692.500 439.542 C 664.795 444.710, 624.668 461.880, 591.783 482.637 L 588.066 484.983 604.633 510.242 C 613.744 524.134, 621.717 536.044, 622.350 536.709 C 623.242 537.646, 624.607 537.227, 628.428 534.846 C 635.987 530.135, 656.464 519.373, 666.500 514.838 C 685.048 506.455, 708.729 500.070, 715.098 501.736 C 717.076 502.253, 717.205 502.761, 716.668 507.900 C 715.874 515.481, 712.359 527.264, 703.879 550.764 C 682.056 611.244, 676.388 635.944, 679.014 659.124 C 680.492 672.167, 681.620 676.252, 686.671 686.834 C 695.013 704.312, 710.731 716.544, 730 720.555 C 739.126 722.455, 756.461 722.789, 785 721.616 C 808.547 720.648, 817.128 721.502, 818.999 724.997 C 819.814 726.521, 819.156 727.686, 815.309 731.533 C 800.741 746.101, 770.499 765.590, 743.938 777.528 C 723.598 786.670, 676.500 802.783, 638.500 813.602 C 625.850 817.204, 614.981 820.311, 614.346 820.507 C 612.896 820.955, 628.134 881.211, 629.841 881.780 C 631.678 882.393, 674.797 869.721, 705.500 859.546 C 763.561 840.305, 788.121 829.155, 822.500 806.433 C 857.253 783.463, 877.427 762.016, 882.641 742.500 C 884.561 735.313, 884.303 722.823, 882.041 713.386 C 875.707 686.968, 858.737 669.125, 832.804 661.614 C 817.967 657.318, 806.103 656.574, 775.399 658.018 C 760.493 658.718, 747.160 659.006, 745.768 658.657 C 741.589 657.608, 740.920 650.973, 743.570 636.860 C 746.037 623.731, 749.445 612.744, 761.168 580.130 C 776.716 536.874, 781.020 520.040, 780.983 502.619 C 780.920 473.534, 764.654 450.651, 737.490 441.437 C 730.553 439.083, 727.589 438.682, 715 438.388 C 705.060 438.156, 697.984 438.519, 692.500 439.542 M 427.500 646.084 C 372.680 681.465, 352.459 695.615, 330.534 713.937 C 317.525 724.808, 293.609 746.711, 282.764 757.687 L 275.027 765.517 298.197 781.508 C 310.941 790.304, 331.747 805.182, 344.434 814.571 C 372.937 835.665, 402.204 855.992, 403.194 855.380 C 405.147 854.173, 421.333 826.640, 428.989 811.500 C 456.779 756.548, 467.326 704.638, 458.979 663.898 C 456.897 653.735, 448.694 635.690, 445.986 635.317 C 445.169 635.205, 436.850 640.050, 427.500 646.084 " stroke="none" fill="black" fill-rule="evenodd"/>
</svg>