<svg xmlns="http://www.w3.org/2000/svg" width="1000" height="1000" viewBox="0 0 1000 1000" version="1.1">
	<path d="M 597.500 144.574 C 565.533 151.787, 493.872 160.228, 452.500 161.653 C 412.286 163.039, 351.148 157.484, 284.175 146.359 C 272.446 144.411, 262.578 143.089, 262.246 143.421 C 261.692 143.975, 250.151 200.980, 250.046 203.683 C 249.983 205.309, 250.724 205.483, 274.500 209.429 C 363.362 224.178, 434.006 228.613, 492.280 223.102 C 505.358 221.865, 516.459 220.999, 516.949 221.177 C 517.438 221.354, 499.112 241.075, 476.226 265 C 387.516 357.734, 333.050 415.040, 324.567 424.567 C 298.656 453.663, 267.185 495.529, 234.036 545 C 201.600 593.406, 154.952 669.419, 156.691 671.032 C 159.198 673.358, 210.561 701.836, 211.154 701.229 C 211.545 700.828, 219.452 687.900, 228.724 672.500 C 277.004 592.316, 327.041 519.624, 362.513 478.135 C 371.026 468.178, 373.017 466.414, 378.581 463.891 C 393.931 456.930, 415.934 453.031, 422 456.196 C 425.628 458.088, 430.508 468.852, 433.020 480.500 C 434.738 488.467, 435.285 495.196, 435.712 513.602 C 436.294 538.770, 435.316 556.895, 431.434 592.849 C 426.475 638.779, 425.079 653.938, 424.053 673 C 422.267 706.177, 421.076 757.511, 420.364 832.060 L 419.681 903.621 456.591 907.655 C 476.891 909.873, 493.668 911.553, 493.873 911.388 C 494.078 911.222, 495.504 900.605, 497.042 887.793 C 501.303 852.284, 505.264 830.779, 513.671 797.500 C 529.280 735.711, 552.179 685.903, 577.066 659.612 C 596.241 639.355, 612.608 633.293, 645.500 634.265 C 663.140 634.786, 672.960 636.779, 688.862 643.065 C 726.674 658.013, 766.062 696.543, 794.697 746.596 L 801.617 758.691 822.059 749.314 C 833.301 744.157, 846.225 738.166, 850.779 736.001 L 859.058 732.065 855.548 725.096 C 836.061 686.400, 802.600 644.535, 770.500 618.690 C 731.294 587.123, 691.651 571.589, 647 570.295 C 599.658 568.924, 567.195 580.589, 536.610 609.962 C 521.036 624.920, 506.317 644.968, 494.001 668 L 487.851 679.500 488.457 666.500 C 488.791 659.350, 489.694 647.650, 490.465 640.500 C 499.519 556.534, 499.429 557.713, 499.461 522.500 C 499.484 497.452, 499.144 489.292, 497.688 480 C 492.871 449.263, 484.249 428.499, 470.128 413.627 C 464.522 407.723, 452.495 399.613, 445.842 397.250 C 442.789 396.166, 441.150 395.051, 441.453 394.263 C 441.718 393.571, 484.587 348.430, 536.718 293.948 C 588.848 239.466, 631.671 194.400, 631.881 193.802 C 632.091 193.203, 628.716 181.083, 624.381 166.867 C 617.450 144.135, 616.259 141.031, 614.500 141.105 C 613.400 141.151, 605.750 142.713, 597.500 144.574 " stroke="none" fill="black" fill-rule="evenodd"/>
</svg>