<svg xmlns="http://www.w3.org/2000/svg" width="1000" height="1000" viewBox="0 0 1000 1000" version="1.1">
	<path d="M 469.322 86.345 C 453.824 92.480, 440.880 97.768, 440.559 98.096 C 440.238 98.424, 441.579 103.124, 443.540 108.540 C 452.243 132.584, 466.039 181.619, 474.899 220 C 482.929 254.786, 495.166 320.167, 493.887 321.447 C 493.260 322.074, 472.581 324.789, 455 326.553 C 433.451 328.715, 382.294 329.577, 363.483 328.095 C 321.014 324.749, 285.264 316.292, 257.598 303.047 C 246.657 297.809, 231.086 287.885, 227.076 283.594 C 225.742 282.167, 224.271 281, 223.806 281 C 223.341 281, 211.649 289.637, 197.823 300.194 L 172.687 319.389 182.283 328.618 C 210.923 356.163, 258.556 376.895, 315.208 386.472 C 344.060 391.350, 358.698 392.391, 398.500 392.398 C 436.653 392.404, 453.091 391.407, 487.459 387.003 C 495.687 385.948, 502.529 385.196, 502.664 385.330 C 503.170 385.837, 507.063 430.409, 508.574 453 C 510.416 480.539, 511.622 576.407, 510.517 607.365 L 509.775 628.136 492.638 627.464 C 453.556 625.932, 410.689 632.159, 375.113 644.536 C 368.055 646.991, 362.020 649, 361.703 649 C 361.385 649, 365.662 641.717, 371.207 632.815 C 394.579 595.293, 405.073 565.131, 408.119 526.716 C 409.006 515.528, 409.014 508.231, 408.149 496.716 C 407.042 481.959, 403.014 458.614, 401.275 456.875 C 400.501 456.101, 343.530 474.329, 341.758 475.918 C 341.350 476.284, 341.762 480.165, 342.674 484.542 C 345.085 496.123, 345.074 526.391, 342.653 538.464 C 338.636 558.494, 332.061 574.761, 320.003 594.500 C 292.449 639.605, 256.463 687.156, 212.541 736.500 C 195.320 755.846, 152.870 798.902, 133.793 816.372 L 122.085 827.093 147.140 851.796 C 160.920 865.383, 172.537 876.629, 172.956 876.786 C 173.374 876.944, 183.905 867.173, 196.357 855.073 C 233.130 819.341, 269.171 787.168, 299.286 763.191 L 312.071 753.011 319.253 756.628 C 359.709 777.001, 424.207 842.502, 478.500 918.350 C 486.200 929.107, 492.760 937.929, 493.077 937.954 C 493.394 937.979, 502.844 930.290, 514.077 920.867 L 534.500 903.735 538.270 893.224 C 550.361 859.509, 564.673 775.613, 568.628 715.271 C 568.992 709.703, 569.585 704.671, 569.945 704.089 C 571.141 702.154, 605.023 713.193, 632.500 724.469 C 689.164 747.724, 753.856 786.719, 816.143 835.166 C 823.097 840.575, 829.063 845, 829.401 845 C 830.737 845, 869.125 795.731, 868.340 795.025 C 867.878 794.609, 860.423 788.841, 851.773 782.206 C 758.623 710.755, 674.609 665.935, 589.905 642.504 C 580.983 640.036, 573.601 637.901, 573.500 637.759 C 573.399 637.616, 573.661 627.600, 574.083 615.500 C 576.495 546.288, 574.585 470.698, 568.815 407 C 567.644 394.075, 566.644 381.300, 566.593 378.611 L 566.500 373.722 583 369.958 C 627.271 359.859, 670.231 347.679, 718.500 331.542 C 760.902 317.366, 786.001 308.103, 785.998 306.631 C 785.995 305.166, 765.063 249.727, 764.157 248.785 C 763.779 248.391, 757.444 250.308, 750.080 253.044 C 716.583 265.491, 674.191 279.460, 639.381 289.523 C 608.847 298.350, 558.515 310.848, 557.517 309.850 C 557.311 309.644, 555.497 299.806, 553.486 287.988 C 545.788 242.747, 535.403 195.542, 524.009 154 C 514.067 117.750, 500.472 75.894, 498.486 75.424 C 497.944 75.295, 484.820 80.209, 469.322 86.345 M 459 691.699 C 439.860 693.188, 417.004 697.840, 398.145 704.086 C 385.781 708.181, 372.365 713.717, 373.106 714.418 C 373.323 714.623, 377.100 717.455, 381.500 720.712 C 410.090 741.873, 444.179 774.999, 477.502 814 C 483.376 820.875, 488.513 826.624, 488.916 826.775 C 489.320 826.926, 490.842 820.401, 492.298 812.275 C 497.635 782.493, 502.453 743.951, 505.288 708.364 L 506.573 692.228 501.537 691.623 C 496.420 691.008, 467.216 691.060, 459 691.699 " stroke="none" fill="black" fill-rule="evenodd"/>
</svg>