<svg xmlns="http://www.w3.org/2000/svg" width="1000" height="1000" viewBox="0 0 1000 1000" version="1.1">
	<path d="M 459.012 86.663 C 443.344 93.527, 430.369 99.298, 430.180 99.487 C 429.991 99.676, 432.301 106.281, 435.315 114.165 C 451.311 156.018, 463.755 203.024, 468.494 239.500 C 471.229 260.555, 473.295 320.752, 471.250 319.828 C 470.837 319.641, 468.250 318.303, 465.500 316.855 C 449.463 308.406, 421.888 298.682, 403.938 295.144 C 387.103 291.827, 384 291.533, 384 293.254 C 384 294.068, 382.650 307.454, 381 323 C 377.233 358.493, 377.214 355.995, 381.250 356.022 C 389.885 356.079, 413.803 363.161, 428.954 370.145 C 442.918 376.582, 456.247 384.284, 454.798 385.078 C 453.034 386.043, 385.146 399.380, 366.500 402.425 C 336.287 407.358, 334.152 407.504, 294 407.403 C 254.660 407.304, 221.291 405.728, 178 401.925 C 165.625 400.837, 152.107 399.675, 147.960 399.342 L 140.421 398.736 137.171 428.118 C 135.383 444.278, 133.720 458.452, 133.475 459.615 C 133.056 461.605, 133.632 461.795, 143.265 462.850 C 193.976 468.403, 280.784 472.718, 317 471.484 C 351.552 470.308, 369.206 467.603, 457 450.034 C 542.909 432.842, 579.239 426.597, 619.500 422.099 C 673.602 416.054, 717.200 416.912, 746.803 424.604 C 761.007 428.294, 780.519 437.881, 778.315 440.085 C 777.853 440.547, 771.631 442.527, 764.488 444.485 C 751.399 448.073, 735.490 451.293, 680.500 461.487 C 596.896 476.985, 568.606 489.351, 550.627 518.259 C 543.606 529.548, 539.092 542.174, 534.592 563.114 L 534.030 565.729 525.765 562.429 C 512.555 557.155, 503.057 555.667, 486.598 556.295 C 470.906 556.894, 462.475 558.732, 449.036 564.485 C 395.841 587.253, 376.369 646.957, 404.106 702.248 C 412.984 719.947, 428.649 737.136, 444.995 747.115 L 450.916 750.730 434.224 762.615 C 379.187 801.803, 360.367 822.241, 356.804 846.690 C 352.710 874.777, 372.003 898.658, 408.724 910.961 C 450.881 925.085, 530.525 921.972, 641.500 901.863 C 650.850 900.168, 658.900 898.408, 659.389 897.952 C 660.071 897.315, 648.535 837.780, 647.421 836.183 C 647.300 836.009, 641.193 837.004, 633.850 838.393 C 561.629 852.062, 490.798 858.593, 453.856 854.990 C 442.869 853.918, 429.035 851.306, 427.698 850.050 C 425.626 848.103, 449.729 829.460, 499.500 794.513 C 537.249 768.006, 540.033 765.817, 552.634 752.734 C 579.085 725.272, 590.985 696.009, 590.996 658.402 C 591 644.515, 593.038 611.060, 595.071 591.500 C 596.728 575.559, 599.748 562.129, 603.280 555 C 606.149 549.208, 607.153 548.148, 612.500 545.263 C 626.186 537.880, 650.624 531.700, 706.500 521.493 C 779.097 508.231, 802.374 501.893, 822.752 489.840 C 835.161 482.501, 845.821 469.493, 849.582 457.099 C 851.350 451.277, 851.381 438.018, 849.643 431.500 C 843.887 409.912, 821.301 386.877, 792.871 373.600 C 767.199 361.611, 736.566 355.644, 693.946 354.329 L 673.393 353.694 683.946 344.001 C 716.832 313.795, 738.548 284.087, 746.813 258 C 754.132 234.894, 752.484 211.042, 742.082 189.550 C 723.929 152.047, 681.547 134.278, 627.500 141.511 C 621.450 142.321, 616.388 142.987, 616.250 142.992 C 615.419 143.019, 624.117 182.550, 629.013 201 L 629.942 204.500 648.221 204.500 C 665.077 204.500, 666.952 204.683, 672.312 206.845 C 680.538 210.164, 684.321 214.311, 686.514 222.415 C 688.067 228.152, 688.142 229.787, 687.071 234.571 C 680.859 262.331, 638.831 304.943, 575 348.198 C 551.914 363.843, 543.284 368.778, 537.608 369.579 C 534.337 370.041, 532.927 369.928, 533.353 369.238 C 534.625 367.179, 535.710 302.852, 534.908 277 C 533.556 233.402, 528.896 203.192, 516.397 157.017 C 509.586 131.855, 491.033 77.940, 488.119 74.841 C 487.779 74.479, 474.680 79.799, 459.012 86.663 M 297.999 164.396 C 262.918 184.478, 233.907 215.909, 215.022 254.294 C 207.397 269.794, 198.948 293.399, 200.515 294.829 C 201.057 295.324, 214.325 299.226, 230 303.501 C 245.675 307.776, 258.998 311.461, 259.606 311.689 C 260.251 311.931, 262.060 308.013, 263.940 302.302 C 267.847 290.438, 275.871 274.051, 282.722 263.949 C 294.179 247.055, 311.365 230.389, 326.388 221.603 C 330.025 219.476, 333 217.525, 333 217.266 C 333 215.976, 308.619 159, 308.067 159 C 307.714 159, 303.183 161.428, 297.999 164.396 M 483.176 620.016 C 471.688 622.420, 460.494 630.559, 457.303 638.829 C 454.669 645.655, 454.896 657.658, 457.820 666.173 C 460.758 674.728, 468.479 685.713, 474.831 690.376 C 482.591 696.072, 488.325 698.185, 497.418 698.699 C 512.288 699.539, 517.164 694.656, 522.583 673.500 C 524.104 667.558, 525.216 660.253, 525.322 655.500 C 525.484 648.210, 525.198 646.898, 522.095 640.714 C 514.270 625.118, 498.606 616.788, 483.176 620.016 " stroke="none" fill="black" fill-rule="evenodd"/>
</svg>