<svg xmlns="http://www.w3.org/2000/svg" width="1000" height="1000" viewBox="0 0 1000 1000" version="1.1">
	<path d="M 516.500 131.666 C 435.843 135.542, 342.951 167.170, 241.500 225.298 C 213.898 241.113, 166.372 271.868, 165.327 274.589 C 165.072 275.255, 168.806 281.132, 173.626 287.649 C 178.445 294.167, 186.788 305.447, 192.166 312.715 L 201.944 325.931 217.222 315.587 C 332.120 237.796, 456.895 191.253, 539.475 195.382 C 577.896 197.303, 616.020 208.125, 645.511 225.481 C 711.794 264.491, 748.993 337.440, 759.999 450 C 761.778 468.198, 762.399 514.113, 761.074 529.500 C 754.443 606.495, 724.014 671.964, 670.891 723.527 C 653.427 740.479, 632.012 756.566, 611.934 767.817 L 606.367 770.937 598.666 762.189 C 568.145 727.520, 521.164 698.805, 477.500 688.132 C 462.275 684.411, 454.668 683.562, 437 683.614 C 417.441 683.671, 406.393 685.448, 390.312 691.122 C 360.300 701.712, 340.939 717.607, 330.583 740.160 C 325.383 751.482, 323.637 761.086, 324.267 774.890 C 325.291 797.323, 333.729 814.941, 351.624 832.013 C 379.313 858.427, 421.623 871.350, 475 869.695 C 544.120 867.552, 613.382 845.350, 668.210 807.762 C 704.074 783.175, 739.334 747.745, 763.254 712.259 C 794.227 666.311, 814.820 611.754, 822.424 555.500 C 828.207 512.720, 826.451 452.007, 817.942 400.500 C 793.014 249.604, 710.059 157.770, 578.557 135.493 C 564.977 133.192, 536.392 130.809, 527 131.194 C 524.525 131.295, 519.800 131.508, 516.500 131.666 M 425.500 747.715 C 419.133 748.595, 410.212 751.311, 403.480 754.418 C 386.375 762.312, 382.995 771.897, 393.220 783.513 C 401.112 792.478, 414.584 799.146, 432.697 803.051 C 446.855 806.103, 475.551 806.794, 495 804.552 C 509.295 802.905, 538.153 797.573, 540.802 796.091 C 541.798 795.533, 540.739 794.043, 536.831 790.504 C 518.749 774.134, 491.485 758.371, 470.500 752.155 C 455.898 747.829, 437.674 746.031, 425.500 747.715 " stroke="none" fill="black" fill-rule="evenodd"/>
</svg>