<svg xmlns="http://www.w3.org/2000/svg" width="1000" height="1000" viewBox="0 0 1000 1000" version="1.1">
	<path d="M 683 96.025 C 637.830 102.295, 585.190 125.394, 524.295 165.666 C 514.833 171.924, 506.807 177.503, 506.461 178.063 C 505.936 178.912, 536.690 221.493, 542.058 227.349 C 543.689 229.128, 544.407 228.766, 561.127 217.717 C 617.683 180.343, 668.325 159, 700.449 159 C 721.413 159, 729.763 166.637, 736.060 191.573 C 743.521 221.114, 739.725 240.675, 723.622 255.675 C 704.051 273.905, 668.408 284, 623.614 284 L 607.149 284 601.195 299.250 C 589.322 329.657, 580.603 359.512, 575.859 386 C 572.653 403.902, 572.650 432.821, 575.852 444.500 C 580.309 460.755, 586.322 470.683, 610.902 502.376 C 619.487 513.444, 628.231 524.859, 630.334 527.742 L 634.158 532.983 631.829 535.810 C 623.915 545.415, 592.830 584.417, 590.456 587.719 L 587.598 591.696 582.243 587.334 C 575.885 582.155, 567.574 577.804, 559.626 575.494 C 554.983 574.144, 553.984 573.493, 554.508 572.158 C 556.684 566.626, 562.053 545.984, 563.523 537.500 C 565.811 524.301, 565.816 504.047, 563.535 494 C 562.598 489.875, 559.787 482.225, 557.287 477 C 544.984 451.278, 516.111 436.655, 489 442.416 C 453.781 449.900, 423.195 489.475, 397.830 560.385 C 395.688 566.371, 394.124 571.457, 394.353 571.687 C 395.544 572.878, 454.416 589.969, 455.002 589.294 C 455.381 588.857, 457.130 584.305, 458.888 579.179 C 466.028 558.358, 477.686 534.085, 487.070 520.499 C 492.612 512.475, 499.603 505.265, 500.732 506.408 C 501.154 506.836, 501.432 511.531, 501.348 516.843 C 501.055 535.535, 492.704 560.312, 475.391 593.859 C 469.612 605.056, 465.038 614.371, 465.226 614.559 C 465.414 614.747, 475.567 620.710, 487.788 627.810 L 510.009 640.720 519.755 638.362 C 525.115 637.065, 531.699 636.003, 534.386 636.002 L 539.272 636 538.683 640.250 C 537.797 646.640, 533.403 659.379, 528.523 669.702 C 523.319 680.708, 474.929 753.668, 464.652 766 C 460.757 770.675, 452.692 780.053, 446.731 786.840 C 440.770 793.627, 436.030 799.541, 436.197 799.982 C 436.650 801.180, 489.053 850.287, 489.427 849.864 C 489.605 849.664, 497.689 836.723, 507.392 821.107 C 517.095 805.491, 529.913 786.141, 535.875 778.107 C 549.252 760.084, 564.505 737.132, 572.970 722.288 C 583.099 704.528, 629.949 639.791, 658.757 603.750 C 663.922 597.288, 668.476 592, 668.877 592 C 670.085 592, 676.940 611.582, 679.516 622.390 C 683.946 640.976, 685.030 657.322, 682.939 674.026 C 677.363 718.583, 661.356 771.116, 643.944 802.004 C 632.478 822.344, 618.734 836, 609.728 836 C 602.960 836, 589.658 825.780, 578.979 812.375 L 573.303 805.251 548.402 823.196 C 534.706 833.065, 523.153 841.479, 522.728 841.892 C 520.541 844.022, 544.422 870.384, 557.500 880.277 C 566.804 887.314, 582.490 895.054, 592.500 897.548 C 601.787 899.861, 618.184 899.865, 627.500 897.557 C 667.579 887.625, 701.497 844.651, 725.022 774 C 734.469 745.627, 742.829 709.262, 746.275 681.547 L 747.513 671.594 759.081 684.547 C 798.480 728.665, 830.904 773.585, 849.074 809.224 C 852.376 815.701, 855.432 821, 855.865 821 C 856.299 821, 869.219 815.152, 884.577 808.004 C 906.997 797.570, 912.436 794.663, 912.174 793.254 C 911.686 790.635, 899.912 768.601, 891.993 755.488 C 869.930 718.957, 838.537 677.481, 804.415 639.784 C 797.587 632.240, 792 625.893, 792 625.681 C 792 625.468, 795.263 623.129, 799.250 620.484 C 855.994 582.844, 888.512 538.212, 890.692 494.977 C 893.011 448.999, 860.849 414.799, 809.819 408.979 C 776.988 405.235, 738.604 425.444, 691.225 471.420 C 679.905 482.405, 677.712 484.127, 676.582 482.920 C 673.275 479.389, 649.241 447.930, 643.704 439.886 L 637.548 430.944 637.160 420.463 C 636.581 404.797, 639.795 386.041, 647.621 359.422 L 651.248 347.085 655.874 346.490 C 690.121 342.081, 712.298 335.936, 734.954 324.577 C 766.347 308.837, 788.880 283.793, 797.887 254.631 C 806.689 226.133, 804.405 188.981, 791.835 156.203 C 779.902 125.088, 755.797 104.064, 724.500 97.476 C 715.191 95.517, 692.399 94.720, 683 96.025 M 321 114.627 C 303.477 116.839, 285.564 122.369, 248.395 137.042 C 216.475 149.643, 208.518 152.189, 195.154 154.078 C 187.913 155.102, 170.954 154.964, 152.035 153.727 L 148.571 153.500 139.428 183 C 134.399 199.225, 130.558 212.803, 130.892 213.172 C 131.824 214.203, 145.305 216.734, 157 218.072 C 170.799 219.652, 196.113 218.730, 211.178 216.098 C 226.035 213.503, 239.227 209.219, 269.913 197.022 C 306.500 182.479, 323.271 177.446, 332.708 178.175 L 336.917 178.500 334.896 182.999 C 329.283 195.494, 314.624 214.489, 280.486 253.500 C 243.362 295.924, 230.945 312.437, 221.981 331.305 C 215.672 344.586, 213.714 352.261, 213.769 363.500 C 213.857 381.465, 219.224 392.807, 247.770 435.354 C 259.525 452.873, 269.375 467.813, 269.659 468.554 C 269.948 469.308, 264.723 476.631, 257.781 485.200 C 180.367 580.757, 129.646 667.598, 107.987 741.666 C 88.228 809.238, 100.078 861.857, 141.173 889.022 C 156.539 899.179, 173.819 904.065, 194.500 904.099 C 212.056 904.127, 227.979 901.166, 243.574 894.971 C 304.620 870.720, 353.894 812.977, 378.506 736.846 C 404.647 655.983, 397.806 576.912, 357.426 493.183 L 349.074 475.867 365.445 458.183 C 374.449 448.458, 384.976 437.394, 388.837 433.597 L 395.859 426.694 373.679 403.761 L 351.500 380.828 332.779 400.109 C 322.482 410.714, 313.886 419.190, 313.677 418.945 C 311.749 416.689, 287.557 380.759, 283.795 374.564 C 277.154 363.630, 277.029 362.789, 280.950 355.450 C 287.283 343.597, 295.616 333.286, 343.543 278 C 384.558 230.687, 399.378 205.002, 400.723 178.896 C 401.336 166.992, 400.293 160.931, 396.006 151.500 C 388.520 135.031, 374.298 122.929, 355.500 117.032 C 348.542 114.849, 329.668 113.533, 321 114.627 M 794.500 473.800 C 778.597 479.318, 754.333 497.898, 726.763 525.671 L 714.026 538.502 720.848 552.125 C 724.600 559.618, 729.207 569.851, 731.085 574.865 C 732.963 579.878, 734.789 583.985, 735.142 583.990 C 736.395 584.009, 752.659 574.562, 763.500 567.518 C 793.713 547.889, 816.351 524.203, 824.373 503.829 C 827.658 495.489, 827.917 487.016, 825.032 482.285 C 822.743 478.531, 815.754 474.727, 808.201 473.124 C 801.383 471.678, 800.490 471.722, 794.500 473.800 M 291.748 544.750 C 231.331 622.248, 191.297 691.097, 172.006 750.676 C 164.874 772.704, 162.732 783.829, 162.607 799.500 C 162.479 815.646, 164.704 824.110, 170.941 831.196 C 176.916 837.984, 183.207 840.385, 195 840.378 C 235.345 840.355, 282.366 800.144, 307.399 744.258 C 321.533 712.706, 328.782 681.579, 329.726 648.392 C 330.515 620.672, 328.154 601.498, 320.524 573.659 C 316.974 560.705, 305.356 530, 304.004 530 C 303.588 530, 298.072 536.638, 291.748 544.750 " stroke="none" fill="black" fill-rule="evenodd"/>
</svg>