<svg xmlns="http://www.w3.org/2000/svg" width="1000" height="1000" viewBox="0 0 1000 1000" version="1.1">
	<path d="M 350.449 101.250 C 314.806 150.391, 286.655 198.643, 263.957 249.500 L 257.262 264.500 253.381 264.222 C 246.978 263.764, 225.244 258.074, 213.500 253.780 C 187.250 244.184, 153.365 225.554, 130.787 208.305 L 125.075 203.941 105.481 227.535 C 94.705 240.512, 85.672 251.690, 85.410 252.375 C 84.618 254.439, 107.468 270.763, 128.500 283.157 C 161.953 302.872, 191.058 315.201, 222.721 323.073 C 229.750 324.820, 235.635 326.366, 235.800 326.508 C 235.965 326.651, 234.288 333.682, 232.072 342.134 C 217.559 397.481, 205.393 463.985, 198.618 525 C 195.777 550.589, 193.538 579.113, 194.212 581.137 C 194.528 582.085, 202.363 583.744, 219.954 586.587 L 245.242 590.674 251.371 583.139 C 273.362 556.102, 288.726 539.666, 305.444 525.290 C 322.322 510.777, 340.986 499, 347.108 499 C 350.425 499, 351.263 503.374, 350.651 517.500 C 348.256 572.797, 300.373 698.529, 223.306 851.887 C 211.038 876.300, 201 896.572, 201 896.937 C 201 897.711, 260.163 929.012, 261.559 928.976 C 262.077 928.963, 266.961 918.500, 272.413 905.726 C 302.764 834.614, 354.947 729.377, 396.611 655.258 C 510.213 453.159, 615.123 335.448, 690.011 326.058 C 699.328 324.890, 716.209 325.993, 728.797 328.593 C 766.377 336.355, 788.751 359.644, 795.506 398.028 C 797.419 408.894, 797.438 433.544, 795.544 446 C 790.398 479.841, 773.858 515.554, 758.397 526.210 L 754.500 528.896 742.500 527.419 C 735.900 526.607, 718.125 523.395, 703 520.281 C 677.470 515.024, 674.497 514.614, 661.500 514.562 C 645.205 514.497, 636.802 516.400, 624.014 523.053 C 593.541 538.907, 579.974 563.820, 572.306 618 C 569.853 635.335, 569.825 689.488, 572.261 708.500 C 582.536 788.716, 610.875 841.182, 655.430 862.473 C 705.272 886.290, 775.910 882.262, 858.784 850.876 C 874.548 844.906, 899.116 833.861, 899.634 832.511 C 900.013 831.523, 877.131 786.035, 872.338 778.249 L 870.953 775.999 864.226 779.384 C 853.721 784.673, 825.961 795.394, 810 800.327 C 782.143 808.936, 760.399 812.916, 736.883 813.709 C 712.611 814.527, 695.740 811.651, 681.781 804.316 C 650.573 787.916, 630.799 722.149, 634.181 646 C 635.215 622.742, 638.863 601.761, 644.012 589.463 C 645.429 586.078, 647.414 583.557, 650.255 581.534 C 656.685 576.956, 662.607 577.012, 685.500 581.869 C 731.519 591.633, 755.371 594.080, 769.540 590.490 C 810.816 580.033, 846.523 526.823, 858.114 458.500 C 860.712 443.187, 861.719 413.219, 860.098 399.452 C 851.010 322.274, 802.707 273.419, 725.699 263.517 C 689.458 258.858, 661.054 263.628, 627.500 280.010 C 577.862 304.245, 526.597 351.335, 469.685 424.972 C 457.253 441.057, 431.951 476.334, 422.118 491.292 C 418.608 496.631, 415.345 501, 414.868 501 C 414.391 501, 414 499.497, 414 497.660 C 414 492.079, 410.339 479.592, 406.310 471.435 C 398.658 455.940, 383.885 442.581, 369.282 437.949 C 360.579 435.189, 346.065 434.314, 336.647 435.982 C 319.051 439.099, 297.354 450.069, 276.580 466.352 C 273.324 468.905, 270.537 470.870, 270.387 470.721 C 269.950 470.283, 278.549 424.053, 282.519 405.500 C 286.013 389.176, 295.862 349.553, 299.793 336.009 L 301.677 329.518 319.589 327.851 C 371.142 323.053, 427.199 311.171, 479.526 293.951 C 492.987 289.521, 504 285.676, 504 285.407 C 504 285.137, 499.856 276.047, 494.792 265.208 C 487.456 249.505, 482.141 240.114, 468.641 219 C 444.662 181.495, 427.879 156.841, 414.531 139.514 C 402.057 123.321, 366.932 81.178, 365.819 81.067 C 365.444 81.030, 358.528 90.112, 350.449 101.250 M 362.121 198.750 C 347.652 223.250, 327.334 261.668, 328.323 262.656 C 329.784 264.117, 408.492 249.649, 410.819 247.491 C 411.193 247.145, 389.211 213.272, 380.756 201.166 C 372.304 189.064, 370.714 187, 369.842 187 C 369.412 187, 365.938 192.287, 362.121 198.750 " stroke="none" fill="black" fill-rule="evenodd"/>
</svg>