<svg xmlns="http://www.w3.org/2000/svg" width="1000" height="1000" viewBox="0 0 1000 1000" version="1.1">
	<path d="M 676.500 124.606 C 630.800 127.028, 593.747 131.384, 511.500 144.003 C 410.649 159.476, 374.961 162.841, 325 161.589 C 272.761 160.281, 229.309 156.342, 185.168 148.916 C 175.085 147.220, 166.718 145.982, 166.576 146.166 C 166.101 146.777, 153.160 207.493, 153.444 207.777 C 154.141 208.475, 176.007 212.280, 194.811 214.976 C 234.471 220.663, 268.771 223.536, 315.090 225.051 C 374.077 226.979, 412.433 223.663, 518 207.505 C 618.812 192.075, 658.139 187.999, 706.211 188.001 C 746.303 188.002, 798.890 192.201, 838.870 198.594 C 844.024 199.418, 848.328 199.959, 848.434 199.796 C 848.540 199.633, 851.002 186.450, 853.904 170.500 C 856.806 154.550, 859.397 140.553, 859.662 139.396 C 860.080 137.571, 859.570 137.209, 855.822 136.667 C 853.445 136.324, 845.425 135.148, 838 134.054 C 817.450 131.028, 790.366 128.124, 767.299 126.475 C 747.034 125.026, 690.528 123.863, 676.500 124.606 M 684 264.107 C 666.604 273.273, 656.343 277.590, 635.500 284.512 C 593.932 298.318, 542.334 308.539, 501.912 310.975 C 466.241 313.125, 426.890 307.768, 395.049 296.427 C 389.301 294.379, 384.463 293.108, 384.298 293.602 C 384.133 294.096, 377.909 306.840, 370.467 321.921 C 360.315 342.496, 357.256 349.548, 358.218 350.167 C 358.923 350.620, 364.105 352.803, 369.732 355.018 C 388.644 362.461, 416.141 369.094, 443 372.692 C 463.892 375.490, 511.690 375.221, 534 372.179 C 561.444 368.437, 592.599 362.750, 609.145 358.462 C 612.487 357.596, 615.446 357.112, 615.720 357.387 C 615.995 357.661, 612.413 362.749, 607.760 368.693 C 597.194 382.191, 570.020 419.798, 550.686 447.678 L 536 468.856 536 496.428 L 536 524 555.750 524.010 C 640.194 524.053, 705.494 553.590, 724.587 600.380 C 735.592 627.349, 735.730 664.447, 724.942 695.699 C 701.166 764.577, 631.774 810.183, 535 820.535 C 519.213 822.223, 492.587 822.431, 477.856 820.980 C 461.590 819.378, 462.352 819.719, 461.563 813.697 C 460.350 804.428, 453.069 768.920, 448.986 752.359 C 439.565 714.141, 430.117 687.037, 416.965 660.500 C 407.073 640.543, 398.331 627.542, 387.327 616.425 C 361.896 590.735, 330.140 584.279, 299.258 598.523 C 283.123 605.964, 264.976 621.164, 255.003 635.589 C 208.609 702.701, 256.951 802.349, 360.500 853.046 C 394.276 869.583, 423.899 878.391, 463.500 883.670 C 481.276 886.040, 526.959 886.068, 545.500 883.720 C 613.734 875.080, 668.515 853.826, 712 819.120 C 739.291 797.339, 759.501 772.260, 774.551 741.500 C 795.587 698.506, 801.987 651.860, 792.937 607.500 C 782.322 555.470, 751.009 516.145, 700.181 491.007 C 676.142 479.118, 648.617 470.299, 620.686 465.536 C 618.588 465.178, 617.013 464.472, 617.186 463.966 C 617.359 463.461, 625.428 452.115, 635.119 438.753 C 653.009 414.084, 668.560 394.102, 711.334 340.815 C 724.440 324.488, 735.238 310.900, 735.331 310.618 C 735.580 309.863, 696.964 257.996, 696.173 258.024 C 695.803 258.036, 690.325 260.774, 684 264.107 M 324.053 657.264 C 316.598 661.013, 307.669 670.118, 304.481 677.222 C 291.545 706.046, 318.515 752.539, 366 783.277 C 375.768 789.600, 394 799.508, 394 798.494 C 394 798.118, 392.179 789.757, 389.953 779.913 C 375.942 717.948, 356.703 672.466, 338.326 657.862 C 333.940 654.376, 330.114 654.216, 324.053 657.264 " stroke="none" fill="black" fill-rule="evenodd"/>
</svg>