<svg xmlns="http://www.w3.org/2000/svg" width="1000" height="1000" viewBox="0 0 1000 1000" version="1.1">
	<path d="M 350.479 63.432 C 316.325 71.314, 317.833 70.920, 318.392 71.825 C 319.393 73.445, 326.036 116.219, 327.504 130.500 C 328.352 138.750, 329.330 153.216, 329.677 162.647 L 330.308 179.795 321.437 180.534 C 309.146 181.558, 284.187 180.490, 274.074 178.508 C 257.912 175.340, 240.754 168.727, 232.378 162.437 L 229.255 160.093 206.378 181.650 C 193.795 193.507, 183.411 203.498, 183.302 203.854 C 183.041 204.707, 192.607 212.514, 199.791 217.313 C 226.466 235.127, 271.147 246.209, 310.823 244.851 C 316.970 244.640, 322 244.650, 322 244.873 C 322 246.349, 315.438 267.469, 312.018 277 C 305.257 295.841, 298.845 309.309, 295.990 310.669 C 291.116 312.990, 270.225 318.876, 253.999 322.500 C 221.607 329.734, 172.045 337.034, 134.144 340.152 L 119 341.398 119.078 346.949 C 119.121 350.002, 119.908 364.200, 120.828 378.500 L 122.500 404.500 130 404.225 C 134.125 404.073, 146.275 403.053, 157 401.957 C 218.095 395.713, 270.875 385.897, 309.403 373.615 C 318.022 370.867, 319.907 370.518, 318.403 371.947 C 296.488 392.775, 281.306 407.685, 272.089 417.432 C 238.132 453.342, 171.272 531.269, 122.091 592.260 C 109.504 607.869, 107.935 610.217, 109.127 611.653 C 113.739 617.210, 159.259 659.119, 159.892 658.391 C 160.317 657.901, 167.019 649.352, 174.785 639.394 C 195.874 612.352, 215.520 590.331, 243.427 562.452 C 269.490 536.415, 283.170 524.140, 303.500 508.547 C 320.607 495.425, 337.268 484.140, 335.638 486.777 C 335.244 487.415, 331.530 491.888, 327.385 496.718 C 282.994 548.444, 266.160 591.255, 276.550 626 C 282.220 644.959, 298.602 663.781, 317.846 673.446 C 327.942 678.517, 337.003 680.286, 353 680.310 C 369.960 680.335, 380.853 678.378, 399.612 671.936 C 455.237 652.834, 502.081 609.479, 518.078 562.295 C 526.808 536.546, 526.033 507.287, 515.936 481.458 C 509.870 465.938, 499.092 448.742, 487.521 436.120 L 483.506 431.740 489.003 426.755 C 500.552 416.280, 550.614 373.520, 575.814 352.605 L 602.128 330.765 600.223 328.633 C 599.175 327.460, 590.113 316.481, 580.085 304.237 C 568.555 290.158, 561.420 282.231, 560.676 282.674 C 554.279 286.488, 452.699 373.074, 426.911 396.695 C 424.390 399.003, 424.058 399.042, 414.411 398.157 C 408.960 397.656, 400 397.600, 394.500 398.031 C 389 398.462, 384.406 398.724, 384.290 398.614 C 383.994 398.331, 418.156 369.123, 439 351.839 C 462.102 332.681, 493.536 307.509, 514.147 291.662 L 530.795 278.862 520.326 247.473 L 509.858 216.085 505.179 217.938 C 460.766 235.525, 423.266 251.224, 394.171 264.412 C 387.390 267.485, 381.699 270, 381.523 270 C 381.348 270, 382.104 266.512, 383.204 262.250 C 384.304 257.988, 386.170 249.810, 387.352 244.078 L 389.500 233.656 393.500 232.413 C 420.007 224.180, 432.651 219.950, 444 215.515 C 463.188 208.017, 484 198.718, 484 197.642 C 484 197.139, 478.074 184.156, 470.831 168.791 C 460.599 147.088, 457.309 140.964, 456.081 141.342 C 455.211 141.609, 447.750 144.779, 439.500 148.386 C 431.250 151.993, 417.750 157.401, 409.500 160.404 L 394.500 165.864 393.868 163.182 C 393.521 161.707, 393.183 157.322, 393.118 153.437 C 392.832 136.354, 388.020 96.751, 382.828 68.750 C 381.119 59.531, 380.310 57.021, 379.075 57.098 C 378.209 57.152, 365.341 60.003, 350.479 63.432 M 739.001 86.100 C 719.431 89.931, 689.011 105.541, 663.542 124.822 L 657.101 129.698 676.111 153.599 C 686.567 166.745, 695.505 177.888, 695.973 178.362 C 696.446 178.841, 700.525 176.607, 705.162 173.329 C 717.786 164.406, 733.306 155, 735.406 155 C 736.281 155, 732.896 165.283, 728.368 176.386 C 722.184 191.546, 710.671 213.967, 699.850 231.923 L 690.693 247.118 700.077 260.809 C 705.238 268.339, 713.069 279.786, 717.480 286.247 C 721.891 292.709, 725.975 297.996, 726.557 297.997 C 727.138 297.999, 734.330 295.293, 742.539 291.984 C 768.585 281.487, 791.527 275.996, 809.301 276.006 C 820.809 276.012, 827 277.291, 827 279.663 C 827 283.988, 805.693 306.107, 788 320.149 C 743.721 355.292, 665.052 403.319, 583 445.302 C 570.075 451.915, 559.304 457.486, 559.064 457.682 C 558.551 458.102, 551.764 527.125, 552.201 527.475 C 552.500 527.713, 584.144 526.535, 601.906 525.624 L 611.312 525.142 603.834 532.821 C 574.317 563.132, 541.967 614.412, 510.668 680.506 C 499.652 703.769, 499.369 704.534, 501.403 705.615 C 505.799 707.951, 559.073 730.257, 559.376 729.888 C 559.551 729.675, 565.304 720.950, 572.161 710.500 C 598.533 670.309, 627.836 638.768, 648.384 628.455 C 657.138 624.062, 659.994 624.023, 663.577 628.250 C 669.688 635.459, 676.132 653.289, 679.570 672.500 C 682.025 686.220, 682.062 717.026, 679.643 733 C 672.985 776.966, 656.750 819.568, 633.097 855.143 C 620.027 874.801, 608.733 887.862, 594.140 900.195 L 589.780 903.880 608.934 928.940 C 619.469 942.723, 628.358 954, 628.687 954 C 629.015 954, 631.800 951.863, 634.875 949.250 C 664.856 923.778, 692.101 886.918, 711.487 845.604 C 746.255 771.508, 754.788 691.991, 734.566 630.538 C 724.215 599.082, 708.627 577.885, 688.685 568.151 C 684.183 565.953, 677.800 563.599, 674.500 562.919 C 671.200 562.240, 668.127 561.359, 667.671 560.962 C 666.567 560.003, 684.278 547.105, 695.567 540.646 C 700.513 537.815, 710.622 533.059, 718.030 530.076 C 725.439 527.092, 731.653 524.539, 731.839 524.403 C 732.199 524.140, 721.273 460.410, 720.492 458.212 C 720.134 457.205, 717.144 457.065, 706.767 457.570 L 693.500 458.215 720 442.281 C 764.010 415.819, 788.058 399.967, 815 379.660 C 862.101 344.159, 884.934 317.190, 890.486 290.500 C 893.208 277.416, 891.427 266.037, 884.329 251.166 C 874.738 231.072, 855.933 217.963, 830.281 213.490 C 820.185 211.729, 802.609 211.557, 791.099 213.106 C 786.578 213.715, 782.671 214.004, 782.416 213.749 C 782.162 213.495, 783.571 209.510, 785.547 204.893 C 802.964 164.221, 806.365 133.512, 795.833 112 C 792.007 104.187, 782.544 94.315, 775.472 90.759 C 765.252 85.620, 750.849 83.780, 739.001 86.100 M 415.792 495.131 C 370.341 540.880, 344.270 575.234, 338.485 597 C 336.202 605.591, 336.518 607.562, 340.935 612.289 L 344.870 616.500 354.685 616.371 C 362.139 616.273, 366.665 615.599, 373.500 613.565 C 393.484 607.621, 416.312 594.267, 431.983 579.354 C 460.252 552.451, 467.448 525.798, 453.797 498.552 C 450.179 491.331, 443.385 481.618, 439.144 477.603 L 436.084 474.706 415.792 495.131 " stroke="none" fill="black" fill-rule="evenodd"/>
</svg>