<svg xmlns="http://www.w3.org/2000/svg" width="1000" height="1000" viewBox="0 0 1000 1000" version="1.1">
	<path d="M 690 93.992 C 690 94.538, 688.447 104.100, 686.550 115.242 C 680.564 150.387, 672.387 182.401, 661.100 214.887 C 657.777 224.450, 654.933 232.348, 654.779 232.439 C 654.626 232.529, 647.525 234.112, 639 235.957 C 592.520 246.017, 537.771 263.907, 493.500 283.502 C 442.744 305.968, 384.451 340.928, 353.119 367.693 L 349.739 370.581 371.020 394.288 L 392.302 417.994 396.401 414.641 C 436.721 381.658, 500.370 347.116, 562.766 324.354 C 581.313 317.588, 616.057 306.723, 616.792 307.459 C 617.424 308.090, 599.521 334.029, 585.015 353.500 C 560.892 385.880, 530.317 422.002, 503.523 449.777 L 489.750 464.053 492.812 469.777 C 508.907 499.865, 520.960 521.487, 521.789 521.763 C 522.343 521.948, 532.814 518.024, 545.058 513.043 C 557.303 508.063, 567.487 504.153, 567.689 504.355 C 567.891 504.557, 549.481 522.830, 526.778 544.962 C 504.075 567.094, 482.194 588.643, 478.154 592.851 C 451.685 620.412, 421.969 664.222, 392.249 719.500 C 383.497 735.779, 373 756.688, 373 757.843 C 373 758.643, 428.131 785, 429.804 785 C 430.206 785, 433.603 778.813, 437.353 771.250 C 456.215 733.211, 478.718 695.290, 498.697 667.876 L 507.169 656.251 515.834 652.191 C 536.065 642.712, 544.584 643.721, 551.595 656.428 C 561.110 673.675, 566.565 700.878, 567.652 736.500 C 568.359 759.692, 567.134 779.329, 563.372 805.130 C 561.932 815.006, 560.921 823.241, 561.127 823.430 C 562.335 824.543, 624.376 839.013, 625.011 838.331 C 625.436 837.874, 629.453 833, 633.938 827.500 C 656.957 799.271, 690.509 769.951, 715.987 755.797 C 744.524 739.944, 766.207 737.081, 784.425 746.763 C 790.504 749.993, 803.236 762.361, 808.333 769.987 C 813.367 777.518, 813.201 780.299, 807.250 788.156 C 792.445 807.702, 751.832 831.925, 695.701 854.688 C 677.806 861.945, 646.457 873.289, 632.500 877.559 C 627.550 879.073, 623.361 880.418, 623.191 880.548 C 622.895 880.775, 639.884 939.829, 640.624 941.143 C 641.086 941.964, 660.935 935.718, 682.077 928.100 C 787.151 890.235, 848.493 851.466, 868.150 810.500 C 874.191 797.908, 876.373 787.667, 875.709 775.015 C 875.405 769.232, 874.398 762.025, 873.471 759 C 868.788 743.720, 855.576 724.424, 839.179 708.916 C 823.107 693.714, 806.031 684.409, 785.796 679.826 C 773.573 677.057, 752.467 676.858, 739.536 679.390 C 706.946 685.770, 671.643 704.459, 637.841 733.224 L 632.183 738.040 631.561 729.270 C 629.364 698.258, 627.619 685.642, 622.926 666.839 C 614.151 631.683, 599.613 607.448, 579.500 594.450 C 576.200 592.318, 573.275 590.398, 573 590.186 C 572.725 589.973, 604.126 558.456, 642.780 520.149 L 713.059 450.500 706.581 416.635 C 703.018 398.009, 699.936 382.602, 699.731 382.398 C 699.526 382.193, 682.221 388.951, 661.275 397.415 C 640.329 405.879, 622.230 413.110, 621.055 413.483 C 619.558 413.958, 621.582 410.725, 627.808 402.693 C 655.981 366.352, 678.719 331.497, 693.514 301.973 L 699.867 289.294 705.183 288.639 C 726.805 285.975, 746.931 283.903, 761 282.892 C 781.755 281.401, 839.705 281.400, 859.407 282.891 C 867.606 283.511, 874.439 283.894, 874.591 283.742 C 874.984 283.349, 880.112 220.774, 879.777 220.464 C 879.624 220.323, 869.782 219.649, 857.906 218.967 C 824.015 217.021, 757.078 218.345, 730.898 221.479 L 726.295 222.030 731.720 203.265 C 738.995 178.102, 745.384 150.201, 749.558 125.366 C 753.556 101.579, 753.721 99.001, 751.250 98.997 C 750.288 98.995, 736.450 97.650, 720.500 96.009 C 686.723 92.532, 690 92.748, 690 93.992 M 179.522 97.250 C 179.294 97.938, 177.083 110.425, 174.610 125 C 150.670 266.061, 136.144 382.883, 129.845 485 C 128.210 511.515, 128.180 579.636, 129.796 598 C 136.076 669.363, 147.389 738.299, 164.015 806.500 C 168.729 825.840, 179.368 864.702, 180.168 865.501 C 180.383 865.716, 194.271 861.430, 211.030 855.975 L 241.500 846.057 246.305 816.778 C 252.290 780.309, 263.421 724.318, 269.445 700.378 C 275.215 677.451, 286.530 643.838, 313.963 568.128 C 319.019 554.174, 322.784 542.419, 322.328 542.007 C 321.211 540.997, 266.211 521, 264.550 521 C 263.159 521, 262.916 521.631, 243.779 575 C 223.855 630.564, 215.056 656.661, 210.431 673.901 C 208.011 682.922, 205.870 690.464, 205.673 690.661 C 204.257 692.076, 195.156 616.767, 193.024 586 C 187.223 502.263, 203.644 334.723, 236.617 141.227 C 239.736 122.927, 242.025 107.692, 241.706 107.372 C 241.072 106.739, 184.620 96.057, 181.719 96.022 C 180.739 96.010, 179.750 96.563, 179.522 97.250 M 472.574 110.250 C 464.457 128.654, 458.030 150.741, 455.957 167.351 C 454.290 180.706, 455.203 202.133, 457.869 212.233 C 460.695 222.943, 464.920 232.611, 470.295 240.667 C 475.174 247.982, 485.798 259.005, 492.772 263.991 L 497.044 267.045 500.983 260.772 C 503.149 257.323, 510.766 245.275, 517.908 234 L 530.894 213.500 527.056 209.500 C 521.925 204.153, 520.064 200.176, 519.153 192.611 C 517.527 179.102, 520.807 161.265, 528.414 142.254 C 530.734 136.455, 531.385 133.754, 530.607 133.153 C 529.024 131.931, 476.367 105, 475.561 105 C 475.192 105, 473.848 107.362, 472.574 110.250 " stroke="none" fill="black" fill-rule="evenodd"/>
</svg>