<svg xmlns="http://www.w3.org/2000/svg" width="1000" height="1000" viewBox="0 0 1000 1000" version="1.1">
	<path d="M 306 105.272 C 289.225 107.988, 275.340 110.361, 275.145 110.544 C 274.949 110.728, 276.854 124.293, 279.377 140.689 C 286.427 186.496, 292.458 228.145, 297.450 265.500 C 299.949 284.200, 302.171 300.579, 302.387 301.898 L 302.779 304.295 285.640 303.697 C 249.283 302.427, 207.339 294.567, 167.185 281.499 C 150.961 276.219, 150.865 276.202, 149.930 278.345 C 143.269 293.612, 127.298 334.669, 127.816 335.196 C 128.979 336.379, 160.770 346.614, 175 350.386 C 215.152 361.029, 252.058 366.599, 289.619 367.686 L 310.739 368.298 311.328 374.399 C 312.058 381.953, 316.775 426.733, 317.537 433.354 L 318.096 438.207 307.298 432.477 C 284.365 420.307, 282.699 419.513, 282.327 420.576 C 281.723 422.299, 258.857 463.718, 246.761 485 C 197.793 571.160, 153.776 635.168, 105.529 690.376 L 91.794 706.093 109.011 733.546 C 118.480 748.646, 126.372 761, 126.549 761 C 127.529 761, 174.702 732.320, 187 724.247 C 194.975 719.012, 202.608 714.002, 203.961 713.114 C 205.315 712.226, 206.150 711.950, 205.817 712.500 C 205.484 713.050, 200.700 721.004, 195.185 730.176 L 185.158 746.851 193.318 752.176 C 219.114 769.007, 244.868 795.270, 263.260 823.500 C 278.934 847.557, 288.254 867.596, 296.206 894.339 C 301.364 911.684, 301.527 912.045, 303.987 911.570 C 305.369 911.304, 319.637 909.407, 335.694 907.354 L 364.888 903.623 365.447 900.061 C 366.588 892.803, 373.014 826.348, 375.945 791.500 C 383.016 707.440, 388 616.882, 388 572.480 L 388 558.254 393.622 551.396 C 396.714 547.623, 406.249 535.304, 414.812 524.018 C 439.783 491.106, 456.178 470.011, 475.061 446.500 C 576.538 320.149, 664.562 244.512, 725.923 230.940 C 736.605 228.578, 753.219 228.385, 761.448 230.528 C 777.199 234.631, 793.138 247.571, 800.215 262 C 813.702 289.500, 814.311 329.627, 801.969 377.597 C 794.785 405.520, 781.016 439.743, 769.739 457.705 L 766.472 462.910 744.964 448.705 C 706.792 423.494, 689.989 417.199, 663.663 418.250 C 650.553 418.773, 642.501 420.743, 631.735 426.064 C 603.804 439.868, 579.549 471.144, 560.538 517.870 C 527.522 599.022, 523.092 708.278, 548.147 823.500 C 551.307 838.035, 561.637 875.054, 562.823 876.094 C 563.580 876.759, 617.833 871.500, 618.650 870.683 C 618.937 870.397, 620.663 863.237, 622.488 854.773 C 626.904 834.285, 630.626 823.640, 640.064 804.500 C 664.397 755.158, 698.280 731, 743.153 731 C 762.861 731, 777.387 735.106, 790.313 744.329 C 813.889 761.153, 830.273 795.951, 835.358 840 L 836.570 850.500 867.535 850.123 C 884.566 849.916, 898.894 849.516, 899.376 849.236 C 901.583 847.951, 896.911 815.152, 891.580 794.500 C 875.937 733.903, 841.595 692.022, 793.688 675.121 C 776.652 669.111, 766.798 667.616, 744 667.583 C 720.677 667.549, 710.995 668.890, 692.680 674.689 C 658.220 685.601, 629.212 706.813, 605.760 738.250 C 602.991 741.963, 600.396 745, 599.995 745 C 598.275 745, 596.502 710.919, 596.536 678.500 C 596.573 642.973, 597.554 629.798, 602.087 604 C 612.783 543.116, 641.836 486.292, 664.705 481.529 C 668.868 480.661, 678.214 483.076, 686.225 487.089 C 689.676 488.818, 701.055 495.960, 711.512 502.960 C 733.524 517.696, 742.901 523.039, 752.840 526.512 C 776.823 534.891, 794.132 529.813, 810.969 509.458 C 839.483 474.987, 865.221 406.229, 873.092 343.500 C 874.863 329.380, 874.626 297.012, 872.654 283.777 C 867.676 250.365, 855.850 224.442, 836.121 203.693 C 819.224 185.921, 799.353 174.386, 775 168.209 C 765.376 165.769, 762.872 165.549, 745 165.573 C 727.566 165.596, 724.282 165.878, 714 168.234 C 694.212 172.768, 675.333 179.905, 656.181 190.091 C 583.423 228.788, 500.988 308.897, 398.724 440.284 C 381.903 461.895, 383.886 461.988, 381.996 439.500 C 381.395 432.350, 379.362 411.886, 377.478 394.023 C 375.594 376.161, 374.379 361.261, 374.777 360.911 C 375.174 360.562, 378.650 359.526, 382.500 358.609 C 408.926 352.318, 440.685 338.171, 462 323.194 C 470.812 317.002, 483 307.057, 483 306.058 C 483 305.375, 450.581 268.506, 443.504 261.142 L 441.238 258.783 435.369 263.571 C 423.119 273.564, 407.312 282.719, 391.384 289.046 C 383.311 292.253, 366.925 297.258, 366.357 296.690 C 366.173 296.507, 364.209 282.889, 361.993 266.428 C 353.212 201.225, 338.323 101.885, 337.185 100.917 C 336.808 100.596, 322.775 102.556, 306 105.272 M 318.063 488.199 C 304.957 512.224, 269.637 572.560, 258.270 590.341 C 255.864 594.104, 254.482 596.831, 255.198 596.402 C 260.501 593.224, 288.192 568.932, 307.888 550.179 L 324.276 534.576 323.543 517.038 C 323.140 507.392, 322.515 495.540, 322.155 490.699 L 321.500 481.899 318.063 488.199 M 311.500 632.673 C 296.494 645.528, 262.964 671.583, 243.154 685.783 L 226.807 697.500 229.591 699.500 C 261.898 722.711, 285.245 745.275, 306 773.344 L 312.500 782.135 313.187 775.817 C 315.844 751.369, 323.834 624.380, 322.771 623.479 C 322.622 623.353, 317.550 627.490, 311.500 632.673 " stroke="none" fill="black" fill-rule="evenodd"/>
</svg>