<svg xmlns="http://www.w3.org/2000/svg" width="1000" height="1000" viewBox="0 0 1000 1000" version="1.1">
	<path d="M 467.500 94.400 C 452.650 98.395, 439.214 101.985, 437.643 102.378 C 434.251 103.226, 434.171 102.225, 439.322 123.500 C 448.183 160.103, 458.066 209.755, 465.969 257.369 C 468.239 271.046, 469.860 282.474, 469.570 282.763 C 468.654 283.680, 434.317 291.829, 412 296.427 C 347.794 309.654, 310.494 311.232, 267.585 302.534 C 253.487 299.676, 232.961 293.299, 222.463 288.515 L 215.097 285.158 212.670 289.329 C 205.311 301.975, 184 340.021, 184 340.514 C 184 340.831, 187.846 342.860, 192.547 345.021 C 218.605 357.003, 248.486 365.167, 282.619 369.631 C 298.506 371.708, 339.272 372.020, 356 370.193 C 383.773 367.158, 420.622 360.427, 458.389 351.488 C 469.255 348.917, 478.322 346.989, 478.538 347.204 C 479.086 347.753, 483.588 390.763, 485.424 413 C 488.380 448.796, 490.980 499.148, 490.994 520.852 L 491 530.205 458.750 529.745 C 433.844 529.391, 424.337 528.886, 417 527.531 C 394.225 523.323, 379.351 516.959, 369.676 507.284 C 366.554 504.163, 364 500.990, 364 500.235 C 364 498.171, 369.398 490.736, 373.531 487.107 L 377.179 483.904 367.280 470.202 C 361.835 462.666, 353.583 451.221, 348.940 444.769 C 344.298 438.317, 340.050 433.031, 339.500 433.023 C 337.469 432.991, 322.893 447.339, 316.879 455.291 C 305.644 470.147, 300.030 485.211, 300.030 500.500 C 300.030 519.509, 307.402 535.160, 324.330 552.088 C 341.292 569.049, 361.799 579.900, 390.158 586.919 C 410.893 592.051, 422.194 593.165, 458.312 593.641 L 491.124 594.073 491.043 620.786 C 490.923 660.273, 488.785 713.419, 485.464 759.500 C 483.558 785.950, 480.052 822.940, 479.189 825.708 C 478.542 827.780, 477.417 827.194, 460.951 816.208 C 451.300 809.769, 438.700 801.832, 432.951 798.572 C 419.017 790.668, 363.996 762.671, 363.457 763.210 C 362.739 763.927, 335.999 819.070, 336.011 819.808 C 336.017 820.189, 349.180 827.124, 365.261 835.220 C 409.197 857.340, 426.006 867.911, 471.845 902.250 C 484.143 911.463, 494.431 919, 494.708 919 C 495.131 919, 513.343 902.485, 531.225 885.886 L 535.949 881.500 538.448 865 C 547.434 805.651, 553.290 721.093, 554.670 630.750 C 555.253 592.620, 555.495 588, 556.913 588 C 557.787 588, 566.377 587.100, 576.001 586.001 C 618.235 581.175, 648.380 573.477, 669 562.251 C 697.543 546.712, 716 520.542, 716 495.611 C 716 483.248, 710.051 466.383, 700.903 452.809 C 696.101 445.685, 685.056 432, 684.107 432 C 683.764 432, 673.481 442.012, 661.256 454.250 L 639.029 476.500 643.333 482 C 645.700 485.025, 648.640 489.163, 649.866 491.195 L 652.095 494.889 648.539 498.825 C 641.336 506.798, 623.221 513.815, 598 518.402 C 584.563 520.845, 556.114 524.448, 555.456 523.789 C 555.266 523.599, 554.633 510.406, 554.049 494.472 C 552.106 441.402, 546.806 373.198, 541.936 338.601 C 541.402 334.806, 541.103 331.564, 541.271 331.396 C 542.703 329.963, 597.253 318.567, 618 315.366 C 634.216 312.864, 665.239 312.800, 673.163 315.253 C 679.094 317.088, 684 321.497, 684 324.992 C 684 331.351, 658.220 344.820, 634.250 350.984 C 631.913 351.585, 630 352.472, 630 352.955 C 630 354.797, 642.151 413.485, 642.632 413.966 C 643.439 414.772, 663.332 409.282, 673.868 405.345 C 715.429 389.817, 739.864 367.589, 746.566 339.216 C 750.152 324.035, 746.786 304.799, 737.915 289.779 C 719.217 258.122, 684.307 245.330, 629.500 250.055 C 607.479 251.953, 566.132 259.300, 540.536 265.863 C 536.156 266.986, 532.504 267.814, 532.420 267.703 C 532.337 267.591, 530.598 257.375, 528.558 245 C 521.032 199.367, 510.743 147.618, 501.916 111 C 496.631 89.077, 496.046 86.988, 495.211 87.068 C 494.820 87.105, 482.350 90.405, 467.500 94.400 M 674.769 650.061 C 666.214 651.238, 649.708 654.893, 648.834 655.805 C 648.214 656.453, 666.171 714.504, 667.359 715.693 C 667.658 715.991, 671.861 715.418, 676.701 714.420 C 689.433 711.794, 711.723 712.003, 722.300 714.847 C 736.395 718.636, 742.955 722.874, 758.078 737.957 C 777.284 757.114, 793.675 778.678, 810.938 807.500 C 814.891 814.100, 818.518 819.640, 818.999 819.812 C 819.647 820.044, 873.478 791.834, 874.717 790.613 C 874.836 790.496, 871.342 784.418, 866.953 777.108 C 845.631 741.596, 826.743 716.476, 804.201 693.652 C 780.467 669.620, 761.553 658.507, 733 651.815 C 726.257 650.234, 720.055 649.751, 703 649.479 C 691.175 649.290, 678.471 649.552, 674.769 650.061 M 323.453 665.128 C 315.779 673.140, 281.311 704.440, 266.500 716.845 C 237.996 740.719, 218.137 754.279, 202.364 760.639 C 186.242 767.140, 160.434 772.441, 134.638 774.549 L 126.776 775.192 127.150 806.524 C 127.356 823.758, 127.744 838.074, 128.012 838.338 C 128.809 839.123, 152.498 837.108, 166.513 835.063 C 201.727 829.925, 229.978 820.510, 253 806.241 C 281.296 788.702, 325.088 752.564, 362.254 716.082 L 373.009 705.525 350.763 683.263 C 338.527 671.018, 328.267 661, 327.961 661 C 327.656 661, 325.627 662.857, 323.453 665.128 " stroke="none" fill="black" fill-rule="evenodd"/>
</svg>