<svg xmlns="http://www.w3.org/2000/svg" width="1000" height="1000" viewBox="0 0 1000 1000" version="1.1">
	<path d="M 477.692 62.496 C 462.398 64.853, 449.667 67, 449.400 67.267 C 449.133 67.533, 450.751 80.745, 452.994 96.626 C 462.057 160.790, 472.670 249.996, 479.450 319 C 484.368 369.057, 490.994 450.297, 490.998 460.594 L 491 464.687 482.250 466.474 C 471.307 468.708, 447.674 476.381, 434.500 481.976 C 386.149 502.512, 330.350 539.583, 291.948 576.684 C 253.191 614.128, 235.765 647.448, 239.954 676.099 C 244.038 704.029, 261.228 733.938, 297.824 776.789 C 313.993 795.721, 367.525 849.278, 394.342 873.350 C 427.144 902.795, 485.764 952, 488.041 952 C 488.360 952, 500.057 945.493, 514.033 937.540 L 539.445 923.080 541.172 912.290 C 545.241 886.857, 549.816 837.275, 552.711 787.250 C 554.408 757.913, 554.523 757, 556.526 757 C 557.662 757, 566.446 757.691, 576.046 758.536 C 598.273 760.492, 648.263 761.841, 675.750 761.227 L 697 760.752 696.978 755.126 C 696.966 752.032, 696.301 738.025, 695.500 724 C 694.699 709.975, 694.034 698.275, 694.022 698 C 694.010 697.725, 675.437 697.460, 652.750 697.411 C 613.833 697.328, 596.528 696.596, 568.610 693.856 L 556.720 692.689 557.341 683.094 C 557.683 677.817, 558.270 653.250, 558.647 628.500 L 559.331 583.500 565.717 577.019 C 580.137 562.384, 586.963 547.661, 586.987 531.144 C 586.994 525.838, 586.321 519.167, 585.430 515.731 C 582.063 502.736, 571.934 487.053, 561.852 479.224 C 555.072 473.958, 556.162 480.110, 552.510 426.500 C 546.152 333.158, 533.251 211.999, 517.424 97 C 511.503 53.972, 512.408 57.979, 508.639 58.105 C 506.912 58.163, 492.987 60.139, 477.692 62.496 M 667.882 165.451 C 667.634 165.699, 668.434 178.636, 669.659 194.201 C 670.884 209.765, 671.912 223.963, 671.943 225.750 C 671.993 228.611, 672.329 229.002, 674.750 229.017 C 680.583 229.054, 691.819 232.131, 699 235.657 C 717.757 244.868, 729.377 265.296, 733.026 295.472 C 733.623 300.407, 734.210 304.543, 734.330 304.664 C 734.451 304.784, 748.263 304.022, 765.025 302.970 C 781.786 301.918, 795.905 301.044, 796.400 301.028 C 797.749 300.986, 796.310 284.343, 793.949 272.690 C 781.520 211.327, 741.655 172.424, 684.697 166.072 C 674.461 164.931, 668.618 164.715, 667.882 165.451 M 216.136 229.731 C 211.932 238.058, 206.535 254.017, 203.816 266.156 C 201.863 274.877, 201.500 279.324, 201.500 294.500 C 201.500 310.186, 201.796 313.584, 203.804 320.933 C 211.739 349.970, 233.301 374.692, 258 383.070 C 265.963 385.771, 281.902 386.745, 291.315 385.106 C 322.695 379.641, 358.166 356.903, 427.361 297.894 L 430.417 295.289 409.629 271.587 C 398.196 258.552, 388.463 248.024, 388 248.193 C 387.536 248.362, 380.484 254.156, 372.329 261.068 C 329.619 297.267, 298.421 318.282, 282.015 321.903 L 277.529 322.893 272.889 318.079 C 269.875 314.952, 267.612 311.378, 266.433 307.882 C 262.740 296.935, 264.956 277.949, 271.872 261.269 C 273.522 257.292, 274.562 253.866, 274.185 253.656 C 258.742 245.050, 221.675 224.812, 220.599 224.400 C 219.547 223.996, 218.248 225.547, 216.136 229.731 M 483.500 531.899 C 455.558 540.507, 426.620 555.095, 393 577.523 C 368.985 593.543, 350.756 608.192, 333.954 624.972 C 312.765 646.133, 302.025 661.969, 303.501 669.874 C 305.886 682.646, 322.154 707.395, 347.616 736.986 C 373.340 766.882, 435.049 826.069, 477.681 861.736 L 482.744 865.972 483.388 859.236 C 486.501 826.662, 489.897 776.082, 490.272 756.704 L 490.500 744.909 479 741.138 C 429.156 724.791, 404.162 696.376, 406.312 658.500 C 407.065 645.230, 409.095 637.712, 415.493 624.500 C 426.384 602.012, 446.455 582.838, 484.750 558.340 L 495 551.783 494.986 542.641 C 494.973 533.552, 494.344 528.943, 493.133 529.063 C 492.785 529.098, 488.450 530.374, 483.500 531.899 M 487.865 634.453 C 472.521 647.190, 465.982 661.372, 472.618 667.522 C 476.025 670.679, 482.452 674.419, 488.713 676.887 L 493.713 678.858 494.434 654.340 C 494.831 640.855, 494.981 629.647, 494.767 629.434 C 494.554 629.221, 491.448 631.479, 487.865 634.453 " stroke="none" fill="black" fill-rule="evenodd"/>
</svg>