<svg xmlns="http://www.w3.org/2000/svg" width="1000" height="1000" viewBox="0 0 1000 1000" version="1.1">
	<path d="M 581.624 89.250 C 577.151 120.431, 573.067 139.163, 563.475 172.500 C 557.440 193.474, 542.087 239.912, 539.565 244.816 C 538.607 246.680, 534.673 248.374, 519.437 253.484 C 493.648 262.133, 476.666 269.289, 449.351 283.018 L 426.202 294.653 426.740 281.065 C 427.158 270.510, 426.895 265.583, 425.564 258.989 C 422.248 242.564, 415.507 229.418, 405.085 219.051 C 387.066 201.126, 360.863 196.757, 331.035 206.704 C 322.302 209.617, 307.722 216.742, 308.182 217.873 C 308.453 218.538, 339.861 269.862, 340.600 270.847 C 340.743 271.037, 343.704 270.061, 347.180 268.678 C 350.656 267.294, 355.180 265.852, 357.234 265.473 C 360.685 264.836, 361.051 264.999, 362.080 267.642 C 363.927 272.389, 363.296 282.820, 360.600 292.090 C 353.944 314.976, 338.235 342.747, 315.116 372.500 C 309.560 379.650, 305.011 385.781, 305.007 386.124 C 305.003 386.468, 314.280 396.818, 325.623 409.124 C 336.965 421.431, 346.323 431.595, 346.416 431.710 C 346.510 431.826, 353.593 425.723, 362.156 418.148 C 392.544 391.264, 424.962 368.609, 464 346.975 C 475.202 340.768, 504.180 326.847, 504.738 327.405 C 505.260 327.927, 495.297 348.434, 485.015 368 C 437.063 459.257, 368.871 561.835, 256.856 711.211 C 221.389 758.507, 163.103 834.631, 137.849 866.638 L 133.006 872.776 158.104 892.344 L 183.203 911.912 185.426 909.206 C 194.427 898.251, 262.734 809.302, 296.523 764.539 C 311.867 744.211, 325.114 726.854, 325.961 725.969 C 326.807 725.083, 330.425 720.565, 334 715.929 C 342.941 704.335, 363.647 683.751, 374.500 675.670 C 383.540 668.939, 397.225 661.297, 404.295 659.031 C 433.896 649.546, 459.330 669.314, 476.305 715 C 478.247 720.225, 483.697 736.699, 488.417 751.608 C 503.042 797.801, 510.693 815.793, 524.734 837 C 534.432 851.649, 553.144 870.655, 566.943 879.872 C 591.333 896.164, 621.655 906.588, 658 911.175 C 673.833 913.173, 730.080 912.866, 750.500 910.670 C 781.566 907.329, 810.515 902.641, 845.250 895.325 C 861.282 891.948, 862.996 891.388, 862.960 889.543 C 862.873 885.043, 849.340 829.513, 848.375 829.693 C 847.806 829.799, 836.127 832.137, 822.420 834.888 C 726.554 854.129, 660.101 854.298, 617.391 835.409 C 604.345 829.640, 590.459 818.634, 581.546 807 C 570.712 792.859, 563.611 777.139, 552.928 743.648 C 541.258 707.064, 535.093 689.254, 530.358 678.441 C 508.520 628.575, 470.422 596.602, 428.944 593.330 L 421.388 592.733 441.556 562.617 C 506.410 465.770, 551.096 386.035, 581.527 312.857 L 586.368 301.215 593.434 300.132 C 612.796 297.166, 619.091 296.680, 638.500 296.654 C 660.347 296.624, 676.388 298.293, 689.682 301.980 C 703.322 305.762, 714.931 315.936, 721.951 330.260 C 727.990 342.582, 729.461 349.284, 729.466 364.500 C 729.473 386.910, 723.786 401.255, 709.028 416.051 C 701.930 423.167, 698.907 425.381, 691 429.253 C 669.373 439.843, 644.472 442.233, 611 436.930 C 596.633 434.654, 576.888 429.654, 562.675 424.692 L 552.851 421.263 551.830 423.881 C 543.145 446.178, 531.066 480.456, 531.689 481.042 C 533.220 482.486, 560.507 491.067, 574.500 494.504 C 598.966 500.515, 611.257 502.172, 635.503 502.727 C 664.473 503.389, 682.107 500.949, 703.248 493.353 C 723.236 486.170, 739.415 475.835, 754.510 460.607 C 774.211 440.731, 785.063 420.307, 791.172 391.604 C 794.059 378.043, 794.246 352.949, 791.564 339 C 786.488 312.597, 775.602 290.506, 758.764 272.438 C 731.725 243.426, 696.458 232.286, 634.451 233.171 L 611.402 233.500 615.735 220 C 631.781 170.004, 643.757 118.118, 645.164 92.500 L 645.439 87.500 630.969 86.876 C 623.011 86.532, 608.758 86.195, 599.295 86.126 L 582.091 86 581.624 89.250 M 197.547 247.172 C 171.107 302.290, 158.598 360.407, 163.039 407.500 C 164.068 418.415, 167.176 435.703, 168.946 440.359 L 169.868 442.784 193.208 436.002 C 206.045 432.271, 219.765 428.261, 223.698 427.090 L 230.849 424.960 229.892 421.730 C 227.823 414.749, 226.012 398.933, 226.006 387.801 C 225.990 356.690, 235.212 318.923, 252.110 280.890 C 256.021 272.089, 259.058 264.752, 258.860 264.587 C 258.662 264.421, 246.575 257.643, 232 249.523 C 217.425 241.403, 205.149 234.553, 204.720 234.302 C 204.291 234.051, 201.063 239.842, 197.547 247.172 " stroke="none" fill="black" fill-rule="evenodd"/>
</svg>