<svg xmlns="http://www.w3.org/2000/svg" width="1000" height="1000" viewBox="0 0 1000 1000" version="1.1">
	<path d="M 321.500 98.477 C 276.037 108.460, 236.941 160.817, 206.487 252.500 C 185.993 314.200, 173.395 382.634, 169.976 450.829 C 169.406 462.198, 169.204 476.450, 169.526 482.500 C 170.356 498.077, 174.093 526.104, 175.403 526.574 C 176.006 526.790, 187.750 527.562, 201.500 528.289 C 222.143 529.379, 227.399 529.381, 231.659 528.298 C 250.881 523.408, 286.568 520.791, 304.865 522.930 C 315.509 524.173, 329.780 527.380, 331.260 528.860 C 332.310 529.910, 272.925 609.321, 245.828 643.102 C 225.852 668.005, 186.587 715.970, 152.289 757.368 C 142.780 768.845, 135 777.678, 135 776.996 C 135 772.317, 150.443 713.328, 152.568 709.889 C 152.838 709.452, 150.908 708.452, 148.280 707.667 C 145.651 706.881, 132.099 702.533, 118.165 698.004 C 104.232 693.475, 92.487 690.158, 92.066 690.635 C 89.424 693.622, 74.873 749.546, 72.433 766.089 C 70.010 782.524, 70.965 827.993, 74.371 858.327 C 75.719 870.333, 76.999 880.332, 77.216 880.549 C 77.433 880.766, 90.167 879.832, 105.514 878.472 C 120.861 877.112, 134.123 876, 134.986 876 C 136.226 876, 152.748 857.018, 169.579 836.256 L 171.657 833.692 176.881 843.469 C 209.387 904.306, 259.355 931.697, 312.893 918.027 C 346.024 909.568, 382.382 883.907, 405.261 852.834 C 428.538 821.221, 442.237 784.672, 448.677 737 C 451.239 718.030, 451.229 665.947, 448.660 645 C 443.447 602.506, 431.566 554.277, 419.910 528.299 L 416.979 521.768 420.312 517.134 C 422.146 514.585, 433.644 498.876, 445.864 482.225 C 458.084 465.574, 468.301 451.379, 468.569 450.680 C 469.079 449.351, 419.555 412.620, 418.025 413.191 C 417.571 413.361, 406.990 427.450, 394.512 444.500 C 382.034 461.550, 371.658 475.669, 371.453 475.876 C 371.248 476.084, 366.900 474.435, 361.790 472.212 C 343.986 464.469, 327.096 460.681, 302.268 458.864 C 284.863 457.590, 262.261 458.592, 243.041 461.489 C 237.838 462.273, 233.443 462.776, 233.274 462.607 C 232.716 462.049, 234.965 429.787, 236.557 415.500 C 239.824 386.190, 248.828 332.990, 250.902 330.753 C 251.282 330.342, 255.538 331.382, 260.359 333.063 C 293.886 344.756, 334.240 345.625, 373.490 335.499 C 434.481 319.763, 463.022 296.443, 472.621 254.500 C 475.426 242.248, 475.068 224.236, 471.778 212 C 462.253 176.579, 434.743 138.975, 402.500 117.303 C 389.151 108.330, 371.574 101.034, 357 98.417 C 347.553 96.720, 329.359 96.751, 321.500 98.477 M 684.407 99.748 L 664.315 100.040 663.666 118.270 C 661.585 176.683, 655.625 201.028, 632.028 247.500 C 610.008 290.865, 579.461 338.862, 540.902 390.681 L 525.141 411.861 549.750 431.681 C 563.285 442.581, 575.170 452.083, 576.162 452.795 C 577.767 453.947, 579.648 452.639, 593.233 440.931 C 644.138 397.059, 704.401 360.239, 750 345.149 C 774.493 337.043, 798.254 334.193, 815 337.352 C 849.779 343.913, 866.424 372.606, 856.953 409.675 C 851.964 429.204, 842.230 445.131, 824.652 462.526 C 804.300 482.667, 780.179 497.102, 747.828 508.501 L 740.157 511.204 741.436 515.352 C 742.140 517.633, 746.457 531.268, 751.031 545.652 L 759.346 571.804 770.619 567.917 C 800.304 557.681, 830.712 541.094, 853.521 522.696 C 864.802 513.596, 884.262 493.122, 892.253 481.945 C 900.009 471.097, 911.579 448.780, 915.386 437.327 C 920.454 422.079, 922.124 412.394, 922.686 395 C 923.091 382.445, 922.838 376.316, 921.629 369.364 C 913.401 322.067, 881.928 288.542, 834.408 276.457 C 793.084 265.948, 744.752 274.643, 684.450 303.434 L 670.854 309.925 673.295 305.713 C 695.105 268.069, 711.608 229.913, 718.076 202.175 C 722.974 181.166, 726.423 150.651, 727.618 117.750 L 728.298 99 716.399 99.228 C 709.855 99.354, 695.458 99.588, 684.407 99.748 M 334.328 160.949 C 332.583 161.371, 328.876 163.389, 326.089 165.434 C 308.726 178.181, 290.069 209.598, 272.903 255 L 268.177 267.500 270.739 268.861 C 274.955 271.100, 286.365 274.732, 295.204 276.648 C 307.665 279.349, 334.009 279.102, 347.763 276.155 C 362.509 272.996, 380.224 267.448, 389.652 263.036 C 412.142 252.512, 416.424 237.609, 404.011 213.066 C 394.227 193.722, 378.032 176.056, 362 167.243 C 352.464 162, 340.882 159.366, 334.328 160.949 M 671.189 480.284 C 643.368 486.065, 641.904 486.481, 642.399 488.455 C 644.982 498.744, 646.381 518.849, 646.438 546.500 C 646.515 583.755, 644.217 604.342, 636.898 631.960 C 622.215 687.367, 575.882 756.242, 507.396 824.468 C 496.888 834.936, 481.728 849.125, 473.707 856 C 465.685 862.875, 459.287 869.015, 459.489 869.645 C 460.092 871.524, 501.072 927.004, 501.815 926.947 C 502.192 926.919, 509.250 918.714, 517.500 908.714 C 576.319 837.422, 647.253 792, 699.769 792 C 728.176 792, 768.829 809.123, 804.680 836.187 C 825.990 852.275, 851.211 876.323, 868.503 897.042 C 872.844 902.244, 876.869 906.455, 877.448 906.401 C 878.027 906.346, 889.635 898.089, 903.244 888.051 C 920.654 875.209, 927.767 869.410, 927.244 868.485 C 926.835 867.761, 922.476 862.294, 917.558 856.335 C 905.433 841.642, 874.307 810.648, 858.891 797.915 C 814.589 761.323, 769.387 738.380, 725.818 730.372 C 713.389 728.088, 686.128 728.045, 673.039 730.289 C 667.835 731.181, 663.418 731.751, 663.223 731.556 C 663.027 731.361, 665.198 727.066, 668.047 722.013 C 674.768 710.089, 683.656 691.224, 688.782 678 C 710.143 622.893, 716.434 550.322, 705.838 481.250 C 704.854 474.835, 704.482 474.011, 702.613 474.097 C 701.451 474.150, 687.310 476.935, 671.189 480.284 M 350.787 611.101 C 314.689 659.425, 294.856 684.499, 240.784 750.172 L 218.001 777.843 221.078 786.672 C 225.067 798.118, 233.542 815.397, 240.122 825.500 C 246.870 835.861, 260.735 849.620, 268.162 853.325 C 271.276 854.878, 276.757 856.652, 280.342 857.266 C 297.767 860.250, 323.963 847.452, 344.525 825.909 C 362.547 807.027, 374.340 783.358, 381.383 751.934 C 388.939 718.223, 389.146 672.345, 381.939 629 C 379.794 616.106, 373.340 587.576, 372.007 585.101 C 371.484 584.129, 365.002 592.071, 350.787 611.101 " stroke="none" fill="black" fill-rule="evenodd"/>
</svg>