<svg xmlns="http://www.w3.org/2000/svg" width="1000" height="1000" viewBox="0 0 1000 1000" version="1.1">
	<path d="M 398.739 73.750 C 384.837 91.302, 366 115.851, 366 116.416 C 366 117.759, 386.091 130.098, 397.500 135.761 C 432.053 152.914, 462.274 160.001, 500.856 159.999 C 518.951 159.998, 533.623 158.798, 550.354 155.951 C 564.775 153.496, 579.209 150.191, 580.309 149.091 C 580.979 148.421, 563.747 90.414, 562.511 89.178 C 562.297 88.963, 556.356 89.934, 549.310 91.335 C 528.824 95.408, 517.800 96.297, 495.113 95.705 C 479.448 95.296, 472.419 94.681, 465.829 93.144 C 447.349 88.834, 429.317 81.554, 413.593 72.056 C 408.989 69.275, 404.966 67, 404.654 67 C 404.341 67, 401.679 70.037, 398.739 73.750 M 690.500 194.611 C 636.911 197.419, 594.913 203.305, 512.862 219.505 C 439.585 233.973, 430.294 235.241, 368.500 239.214 C 342.097 240.912, 224.547 240.920, 199.083 239.226 C 188.953 238.552, 180.569 238.113, 180.450 238.251 C 179.798 239.007, 175.276 300.607, 175.833 301.148 C 178.580 303.817, 293.186 305.887, 340 304.114 C 420.023 301.082, 442.437 298.434, 523.279 282.464 C 623.999 262.567, 657.224 258.582, 722.500 258.573 C 762.026 258.568, 772.028 259.065, 804.197 262.636 C 809.619 263.238, 809.919 263.154, 810.411 260.884 C 811.454 256.069, 818.279 200.945, 817.881 200.548 C 817.349 200.016, 794.021 197.351, 778 195.992 C 765.325 194.916, 703.332 193.938, 690.500 194.611 M 414.750 356.738 C 394.057 363.418, 385 366.778, 385 367.774 C 385 368.563, 386.581 372.198, 388.513 375.854 C 399.217 396.103, 421.043 412.765, 447.500 420.885 C 457.872 424.068, 473.556 426.979, 480.500 427.010 C 482.700 427.019, 485.512 427.299, 486.750 427.630 C 488.868 428.198, 488.656 428.622, 483.135 434.867 C 466.553 453.622, 459.130 466.966, 457.030 481.795 C 454.469 499.879, 464.005 518.095, 480.500 526.627 C 491.967 532.558, 501.461 533.937, 552 537.009 C 570.425 538.129, 593.150 539.732, 602.500 540.571 C 684.331 547.914, 732.861 566.119, 736.617 590.880 C 738.129 600.846, 733.702 619.660, 726.317 634.647 C 708.061 671.697, 664.195 697.209, 598.750 708.837 L 588 710.747 588 690.118 C 588 635.533, 576.362 596.493, 553.824 575.469 C 541.630 564.094, 531.069 560.639, 508.500 560.640 C 464.547 560.642, 420.975 580.207, 375 620.584 C 357.346 636.089, 337.572 657.330, 323.877 675.500 C 321.390 678.800, 314.486 690.500, 308.536 701.500 C 302.586 712.500, 296.412 723.821, 294.815 726.658 L 291.913 731.816 308.483 740.961 C 332.187 754.042, 348.630 760.189, 378 766.950 C 409.201 774.133, 442.838 778.048, 486.750 779.607 C 497.337 779.984, 506 780.396, 506 780.525 C 506 781.609, 499.601 794.319, 495.188 802 C 478.518 831.016, 453.942 854.075, 424.900 867.947 C 419.101 870.718, 409.188 874.680, 402.872 876.753 L 391.387 880.523 399.024 911.011 L 406.661 941.500 409.576 941.174 C 414.108 940.666, 434.987 933.443, 446.252 928.485 C 484.469 911.666, 519.139 882.158, 542.629 846.458 C 554.842 827.898, 565.403 805.944, 573.622 782.036 L 575.500 776.572 589 774.833 C 696.802 760.943, 767.953 714.431, 792.026 642.112 C 798.157 623.697, 800.333 611.671, 800.370 596 C 800.433 569.620, 792.106 549.736, 773.130 530.960 C 745.144 503.268, 698.270 486.856, 623.500 478.570 C 606.623 476.700, 591.133 475.476, 560.146 473.565 C 547.301 472.773, 536.607 471.941, 536.382 471.715 C 535.188 470.521, 570.056 441.186, 588.274 428.056 C 593.099 424.578, 597.281 421.355, 597.566 420.894 C 598.251 419.785, 593.019 362.671, 592.163 361.913 C 591.798 361.589, 570.575 361.944, 545 362.701 C 519.425 363.457, 493.716 363.829, 487.869 363.528 C 470.174 362.614, 456.495 358.105, 448.475 350.542 C 446.410 348.594, 444.671 347.030, 444.610 347.068 C 444.550 347.105, 431.113 351.456, 414.750 356.738 M 493.909 625.554 C 463.666 631.030, 426.503 655.460, 393.539 691.534 C 384.849 701.044, 383.879 702.458, 385.572 703.152 C 392.347 705.929, 429.867 711.936, 453.500 714.027 C 469.955 715.483, 522.989 716.530, 523.043 715.400 C 523.067 714.905, 523.485 708.425, 523.972 701 C 525.595 676.257, 522.364 648.659, 515.873 631.827 L 512.855 624 507.177 624.090 C 504.055 624.139, 498.084 624.798, 493.909 625.554 " stroke="none" fill="black" fill-rule="evenodd"/>
</svg>