<svg xmlns="http://www.w3.org/2000/svg" width="1000" height="1000" viewBox="0 0 1000 1000" version="1.1">
	<path d="M 506 103.476 C 491.290 105.652, 476.649 108.941, 449.661 116.132 C 391.642 131.591, 378.463 134.298, 346 137.425 C 326.069 139.346, 299.840 140.994, 289 141.007 C 284.325 141.013, 278.137 141.301, 275.250 141.648 L 270 142.279 270 173.799 L 270 205.318 292.250 204.676 C 331.239 203.550, 372.515 199.590, 399 194.434 C 405.875 193.096, 421.850 189.298, 434.500 185.994 C 505.680 167.403, 512.181 166, 527.145 166 C 537.406 166, 537.279 165.559, 530.142 176.444 C 518.167 194.707, 480.285 226.565, 444.278 248.656 C 437.428 252.858, 431.576 256.940, 431.275 257.726 C 430.784 259.006, 432.025 287.138, 433.655 311.685 L 434.264 320.869 440.382 321.406 C 443.747 321.701, 453.492 322.413, 462.038 322.988 C 527.217 327.376, 585.823 351.422, 604.987 381.641 C 613.633 395.275, 617.122 417.644, 613.433 435.792 C 606.447 470.156, 570.546 493.592, 516.500 499.067 C 475.310 503.240, 413.586 488.578, 381.443 466.985 C 373.873 461.900, 367.418 455.829, 346 433.648 C 334.184 421.412, 320.869 412.334, 296.989 400.235 C 280.757 392.010, 245.121 376, 243.047 376 C 242.547 376, 237.106 388.712, 230.957 404.250 C 224.807 419.788, 219.575 433.006, 219.329 433.624 C 219.071 434.275, 223.431 436.663, 229.691 439.299 C 252.768 449.017, 255.762 450.629, 256.402 453.682 C 257.224 457.608, 262.596 506.962, 264.436 527.500 C 269.350 582.345, 271.121 635.187, 269.095 666.500 C 265.468 722.562, 253.511 793.726, 237.512 854.472 C 234.132 867.303, 233.341 871.626, 234.271 872.191 C 234.947 872.602, 247.310 879.666, 261.744 887.889 L 287.988 902.840 298.689 889.670 C 316.752 867.441, 329.489 853.434, 352.962 829.989 C 441.431 741.624, 527.919 689.052, 604.036 677.373 C 619.695 674.970, 646.894 674.995, 660.500 677.425 C 706.773 685.687, 731.591 710.437, 742.340 759.040 C 748.861 788.525, 748.503 829.769, 741.401 867.286 C 740.486 872.118, 739.984 876.317, 740.284 876.618 C 740.920 877.253, 798.672 892, 800.526 892 C 802.004 892, 804.941 877.044, 808.184 853 C 810.058 839.106, 810.408 831.919, 810.397 807.500 C 810.386 782.553, 810.073 776.473, 808.156 764 C 801.344 719.689, 786.828 686.894, 762.777 661.480 C 751.879 649.966, 743.871 643.508, 730.636 635.560 C 704.171 619.667, 671.572 611.781, 632.500 611.818 C 585.499 611.862, 539.871 623.799, 488 649.621 C 439.985 673.523, 387.283 710.681, 340.585 753.559 C 334.031 759.577, 326.869 766.062, 324.668 767.971 L 320.667 771.441 321.329 767.471 C 327.024 733.331, 331.322 695.677, 333.085 664.500 C 334.931 631.835, 333.112 580.113, 328.156 524.332 L 326.453 505.163 328.558 506.832 C 353.346 526.479, 373.172 537.108, 403.308 546.903 C 442.438 559.621, 482.497 565.407, 515.254 563.074 C 601.974 556.896, 662.113 513.804, 676.129 447.802 C 677.851 439.692, 678.320 434.096, 678.336 421.500 C 678.382 382.622, 667.382 353.278, 643.252 327.913 C 619.319 302.755, 583.213 283.196, 539.501 271.711 L 526.937 268.409 533.718 262.985 C 545.624 253.462, 560.005 239.918, 569.130 229.635 C 589.798 206.345, 600 184.835, 600 164.550 C 600 134.149, 578.101 109.734, 545.162 103.409 C 536.341 101.715, 517.690 101.747, 506 103.476 " stroke="none" fill="black" fill-rule="evenodd"/>
</svg>