<svg xmlns="http://www.w3.org/2000/svg" width="1000" height="1000" viewBox="0 0 1000 1000" version="1.1">
	<path d="M 708 71.671 C 708 72.127, 706.891 79.925, 705.536 89 C 701.012 119.306, 690.125 200.007, 684.559 244.500 C 669.924 361.478, 662.577 444.204, 663.084 486.279 C 663.189 494.958, 662.995 502.338, 662.653 502.680 C 661.918 503.416, 575.591 541.910, 575.303 541.631 C 575.194 541.525, 576.429 536.278, 578.046 529.970 C 579.663 523.661, 582.768 509.725, 584.944 499 C 594.716 450.854, 594.230 428.703, 582.925 406.972 C 570.156 382.428, 543.679 366.588, 511.622 364.312 L 502.719 363.681 503.372 380.590 C 503.731 389.891, 504.305 404.363, 504.647 412.750 L 505.268 428 507.953 428 C 513.224 428, 521.355 431.155, 524.697 434.497 C 527.909 437.709, 528 438.030, 527.989 446.150 C 527.957 471.499, 514.482 527.972, 495.381 582.809 C 491.265 594.625, 488.097 604.789, 488.340 605.396 C 488.675 606.232, 527.338 629.201, 531.111 630.805 C 531.505 630.972, 562.276 617.545, 599.492 600.967 C 636.708 584.388, 667.323 570.990, 667.526 571.192 C 667.728 571.395, 668.336 588.647, 668.877 609.530 C 671.885 725.714, 660.415 812.062, 629.863 903.222 C 628.624 906.919, 627.823 910.156, 628.082 910.415 C 629.087 911.420, 686.540 931.764, 687.218 931.355 C 688.250 930.732, 699.115 897.072, 703.800 879.984 C 717.815 828.869, 725.922 780.292, 731.082 716.500 C 732.939 693.543, 733.404 620.491, 731.916 585.500 C 731.168 567.900, 730.543 551.048, 730.528 548.052 L 730.500 542.604 810.973 506.745 C 855.233 487.023, 891.555 470.778, 891.688 470.645 C 891.822 470.512, 891.044 464.575, 889.960 457.451 C 881.096 399.182, 864.766 327.783, 853.073 296.170 C 849.479 286.455, 843.939 273, 843.532 273 C 843.074 273, 787.590 300.077, 787.154 300.513 C 786.935 300.732, 788.570 305.769, 790.789 311.706 C 796.412 326.754, 801.264 343.149, 807.006 366.500 C 811.998 386.804, 821.465 431.918, 820.841 432.433 C 820.473 432.738, 730.423 472.894, 728.102 473.788 C 726.925 474.243, 726.816 471.906, 727.410 458.914 C 730.455 392.389, 744.418 268.950, 766.580 112.632 C 769.065 95.105, 770.963 80.653, 770.799 80.517 C 770.635 80.381, 757.675 78.390, 742 76.092 C 726.325 73.795, 712.263 71.673, 710.750 71.378 C 709.237 71.083, 708 71.214, 708 71.671 M 232.750 75.544 C 232.338 75.978, 231.998 79.521, 231.995 83.417 C 231.989 91.827, 229.628 119.654, 227.491 136.500 C 222.765 173.765, 214.088 211.814, 204.428 237.636 C 192.762 268.821, 171.554 316.596, 151.808 356.175 L 138.001 383.849 149.605 405.175 C 155.987 416.904, 161.307 426.608, 161.428 426.740 C 161.720 427.060, 242.531 399.975, 266 391.692 C 276.175 388.101, 291.389 382.467, 299.810 379.172 L 315.119 373.181 314.566 375.841 C 309.581 399.826, 300 476.756, 300 492.804 C 300 496.579, 299.742 497.147, 298.250 496.646 C 297.288 496.323, 292.450 494.611, 287.500 492.842 C 279.109 489.843, 277.587 489.621, 265 489.563 C 245.955 489.474, 232.880 492.949, 212 503.647 C 166.106 527.161, 129.147 571.251, 116.859 617.145 C 113.785 628.629, 113.752 645.183, 116.781 656.587 C 122.829 679.355, 136.040 700.869, 161.071 728.711 L 172.180 741.067 164.902 752.784 C 151.991 773.571, 130.944 806.059, 119.200 823.328 C 112.880 832.622, 108.147 840.525, 108.628 840.979 C 111.761 843.936, 163.512 876.873, 164.063 876.261 C 164.439 875.842, 169.833 867.850, 176.050 858.500 C 185.294 844.596, 216.619 798.983, 222.899 790.281 C 223.779 789.061, 224.828 788.049, 225.228 788.031 C 225.628 788.014, 233.278 793.556, 242.228 800.346 C 262.455 815.692, 287.294 833.094, 305.041 844.352 L 318.582 852.942 342.819 849.110 C 356.149 847.002, 367.313 845.020, 367.628 844.705 C 367.943 844.390, 367.486 829.590, 366.613 811.816 C 363.454 747.561, 361.014 669.130, 361.005 631.617 L 361 607.734 370.750 596.132 C 393.979 568.491, 424.437 534.778, 440.367 519.075 L 447.899 511.650 425.778 488.770 L 403.657 465.891 396.238 473.195 C 392.157 477.213, 382.942 486.737, 375.759 494.360 L 362.699 508.220 363.394 497.860 C 366.616 449.810, 377.073 380.667, 386.958 342.037 C 389.284 332.945, 389.644 330.259, 388.696 329.051 C 381.610 320.028, 354.669 289.083, 354.164 289.387 C 352.343 290.478, 256.835 327.398, 246.942 330.835 C 240.649 333.021, 234.754 335.110, 233.842 335.477 C 232.698 335.937, 234.815 330.147, 240.663 316.822 C 252.589 289.647, 266.215 255.301, 270.392 241.883 C 283.585 199.510, 293.164 141.868, 295.643 89.925 L 296.308 76 277.404 75.996 C 267.007 75.994, 252.875 75.714, 246 75.374 C 239.125 75.034, 233.162 75.111, 232.750 75.544 M 252 555.354 C 221.553 566.184, 189.804 598.377, 180.007 628.357 C 177.246 636.805, 177.643 640.635, 182.279 650.297 C 187.065 660.268, 204.890 684.554, 206.282 682.999 C 207.755 681.353, 224.547 649.890, 233.486 632.028 C 249.859 599.311, 261.469 570.424, 263.599 557.109 C 264.241 553.094, 264.190 553, 261.378 553.021 C 259.795 553.033, 255.575 554.083, 252 555.354 M 288.046 700.896 C 264.336 732.507, 262.698 734.931, 264 736.500 C 265.565 738.386, 300.038 764.343, 300.336 763.860 C 300.726 763.227, 299.004 709.903, 298.238 698.896 L 297.500 688.292 288.046 700.896 " stroke="none" fill="black" fill-rule="evenodd"/>
</svg>