<svg xmlns="http://www.w3.org/2000/svg" width="1000" height="1000" viewBox="0 0 1000 1000" version="1.1">
	<path d="M 376 94.663 C 338.181 113.057, 305.531 124.083, 272.327 129.676 C 263.047 131.239, 255.712 131.494, 221 131.456 C 185.936 131.418, 177.700 131.108, 159.641 129.148 C 148.169 127.903, 138.686 127.022, 138.567 127.192 C 138.449 127.361, 136.421 140.325, 134.062 156 C 131.703 171.675, 129.559 185.655, 129.298 187.066 C 128.828 189.606, 128.917 189.643, 138.162 190.833 C 172.323 195.228, 227.609 197.192, 257.500 195.071 C 284.508 193.155, 310.239 187.989, 339.466 178.616 C 345.497 176.681, 350.563 175.229, 350.722 175.389 C 351.140 175.807, 340.873 205.797, 336.476 217 C 326.924 241.340, 309.578 272.306, 263.152 347.902 L 250.622 368.305 255.878 377.902 C 267.416 398.972, 280.734 428.784, 290.045 454.380 L 294.366 466.260 289.892 470.380 C 250.333 506.808, 236.331 520.770, 210.539 549.500 C 188.984 573.512, 175.214 593.645, 161.981 620.500 C 144.750 655.470, 134.100 690.573, 128.456 731 C 126.263 746.713, 125.400 788.347, 126.952 803.618 C 133.253 865.635, 158.605 905.423, 197.035 913.608 C 206.970 915.724, 228.130 914.974, 239.693 912.096 C 264.256 905.984, 287.353 891.881, 308.027 870.372 C 349.303 827.429, 376.346 760.027, 386.216 675.500 C 388.196 658.538, 387.860 601.357, 385.669 582.500 C 382.390 554.274, 377.336 526.275, 370.892 500.629 C 369.252 494.100, 368.042 488.652, 368.205 488.522 C 381.217 478.164, 408.546 459.316, 423.240 450.566 L 432.979 444.766 419.740 419.055 C 412.458 404.914, 405.794 392.290, 404.931 391.002 L 403.362 388.660 395.437 393.035 C 391.077 395.441, 378.536 403.398, 367.566 410.716 C 356.597 418.034, 347.305 423.679, 346.918 423.261 C 346.531 422.842, 344.327 417.775, 342.019 412 C 336.734 398.775, 329.460 381.950, 326.331 375.714 L 323.930 370.929 339.342 345.214 C 372.457 289.964, 382.773 271.218, 391.991 249.533 C 401.834 226.379, 412.415 194.372, 420.075 164.577 L 423.912 149.654 409.218 117.827 C 401.136 100.322, 394.293 86.034, 394.012 86.076 C 393.730 86.118, 385.625 89.982, 376 94.663 M 776.768 107.460 C 755.831 112.043, 735.080 127.273, 726.298 144.500 C 719.069 158.680, 713.510 176.927, 707.562 206 L 704.391 221.500 698.945 224.384 C 650.670 249.956, 560.451 304.016, 561.474 306.758 C 562.108 308.456, 595.103 359, 595.578 359 C 595.785 359, 601.477 355.488, 608.227 351.196 C 638.628 331.866, 691.714 300.381, 692.530 301.197 C 692.785 301.452, 692.542 305.224, 691.989 309.580 C 688.611 336.219, 682.440 402.327, 678.554 453.500 C 674.525 506.574, 669.490 590.824, 670.300 591.633 C 670.538 591.871, 681.255 592.467, 694.116 592.957 C 707.098 593.452, 721.503 594.570, 726.500 595.470 C 772.636 603.782, 804.192 622.569, 817.995 649.939 C 820.031 653.976, 820.128 654.851, 819.065 659.598 C 810.821 696.437, 737.094 769.148, 633.731 842.376 C 624.874 848.650, 620.214 852.553, 620.667 853.315 C 621.055 853.967, 628.957 865.884, 638.228 879.798 L 655.084 905.097 664.792 898.385 C 744.950 842.970, 818.239 777.764, 852.222 731.626 C 866.813 711.815, 876.976 691.656, 881.100 674.342 C 884.098 661.755, 883.444 642.826, 879.642 632.103 C 871.896 610.259, 853.397 586.666, 830.986 570.050 C 809.018 553.761, 776.888 540.259, 746.015 534.340 L 736.855 532.584 737.446 524.542 C 737.771 520.119, 739.172 500.300, 740.559 480.500 C 743.670 436.093, 747.099 395.632, 751.024 357 C 754.304 324.719, 760.654 272.212, 761.838 267.582 C 762.498 265.002, 763.910 264.095, 774.042 259.742 C 795.086 250.701, 822.266 239.779, 846.969 230.437 C 860.427 225.348, 871.599 220.704, 871.795 220.116 C 872.577 217.770, 861.722 172.320, 858.394 164.004 C 841.601 122.048, 810.030 100.178, 776.768 107.460 M 785.687 171.654 C 784.011 172.533, 782.117 174.893, 781.004 177.490 C 778.993 182.183, 776.932 189, 777.525 189 C 778.165 189, 795.372 181.961, 795.816 181.517 C 796.370 180.963, 791.512 172.669, 789.808 171.259 C 788.856 170.471, 787.735 170.578, 785.687 171.654 M 294.275 553.750 C 272.679 575.280, 250.159 600.128, 240.490 613.096 C 202.463 664.098, 182.487 743.066, 191.579 806.448 C 194.067 823.786, 199.407 839.422, 205.624 847.574 L 208.409 851.225 216.955 850.787 C 232.183 850.007, 244.262 843.618, 260.035 828 C 290.233 798.099, 311.477 747.377, 321.099 682.199 C 323.773 664.090, 324.767 622.385, 323.052 600.298 C 321.181 576.206, 314.853 536, 312.932 536 C 312.463 536, 304.068 543.987, 294.275 553.750 " stroke="none" fill="black" fill-rule="evenodd"/>
</svg>