<svg xmlns="http://www.w3.org/2000/svg" width="1000" height="1000" viewBox="0 0 1000 1000" version="1.1">
	<path d="M 432.502 57.225 C 431.777 59.258, 422 114.880, 422 116.969 C 422 118.406, 423.362 119.254, 427.690 120.512 C 440.109 124.123, 453.155 132.532, 456.565 139.125 C 458.261 142.406, 458.428 150.875, 456.908 156.500 C 454.091 166.918, 441.101 188.678, 426.449 207.519 C 395.924 246.775, 338.591 304.495, 284.500 350.428 C 276.800 356.966, 269.892 362.869, 269.148 363.546 C 268.032 364.561, 270.439 369.930, 282.976 394.387 C 291.325 410.674, 298.284 424, 298.442 424 C 298.600 424, 309.252 419.005, 322.114 412.901 C 389.473 380.930, 450.941 354.650, 487.500 342.192 C 506.925 335.572, 550.237 321.904, 550.609 322.276 C 550.906 322.572, 442.315 441.020, 434.508 448.916 L 430.142 453.332 419.764 449.198 C 393.921 438.905, 356.608 433.205, 329.750 435.449 L 321 436.180 321.053 439.340 C 321.082 441.078, 322.785 455.100, 324.837 470.500 L 328.569 498.500 345.534 499.108 C 360.573 499.647, 376.557 501.706, 381.819 503.782 C 383.310 504.371, 368.358 521.099, 298.688 596.786 C 251.966 647.544, 213.644 688.944, 213.527 688.786 C 213.411 688.629, 214.170 680.898, 215.214 671.606 C 216.258 662.314, 216.749 654.395, 216.306 654.008 C 215.128 652.980, 154.682 647.894, 153.972 648.764 C 153.642 649.169, 152.355 658.903, 151.112 670.395 C 147.204 706.531, 144.209 721.903, 132.424 766.315 L 126.900 787.130 135.880 796.815 C 140.819 802.142, 150.434 812.036, 157.246 818.801 L 169.632 831.103 303.056 686.077 L 436.481 541.052 438.742 544.776 C 443.895 553.261, 457.627 591.904, 463.518 614.500 C 469.690 638.169, 471.380 649.046, 471.443 665.500 C 471.474 673.750, 471.275 683.060, 471 686.189 L 470.500 691.877 495.891 708.996 L 521.282 726.115 532.891 714.724 C 558.661 689.437, 587.606 668.660, 618.790 653.065 C 667.505 628.701, 711.692 623.086, 750.500 636.326 C 783.405 647.553, 803.282 671.028, 800.531 695.414 C 797.919 718.569, 780.295 745.144, 750.651 770.625 C 708.627 806.748, 651.337 839.290, 571.250 872.528 C 559.563 877.379, 550.001 881.832, 550.002 882.424 C 550.002 883.016, 553.637 892.725, 558.079 904 C 562.520 915.275, 567.502 927.987, 569.150 932.250 C 570.797 936.512, 572.723 940, 573.429 940 C 577.795 940, 634.523 915.054, 667 898.853 C 730.616 867.117, 774.505 837.602, 808 804.031 C 832.344 779.631, 848.682 755.542, 857.371 731.234 C 863.853 713.100, 866.028 687.720, 862.544 670.863 C 856.792 643.034, 841.645 619.409, 817.656 600.849 C 778.515 570.567, 722.988 559.070, 666.500 569.553 C 628.026 576.693, 586.210 594.873, 546.686 621.643 C 539.088 626.789, 532.675 631, 532.436 631 C 532.196 631, 532 630.251, 532 629.336 C 532 625.366, 524.615 595.129, 519.951 580 C 513.339 558.557, 502.949 530.857, 497.257 519.500 C 494.776 514.550, 490.056 506.565, 486.768 501.756 L 480.789 493.011 486.038 487.256 C 488.925 484.090, 535.885 433.008, 590.394 373.740 C 644.902 314.472, 689.500 265.444, 689.500 264.787 C 689.500 263.223, 640.992 225.179, 638.869 225.078 C 637.972 225.035, 632.797 226.612, 627.369 228.583 C 609.981 234.896, 541.725 257.702, 501.500 270.638 C 480.050 277.537, 457.182 285.165, 450.681 287.590 C 444.181 290.016, 438.617 292, 438.316 292 C 438.016 292, 440.483 289.100, 443.799 285.556 C 478.671 248.277, 508.202 204.820, 516.896 177.986 C 525.974 149.965, 522.765 122.137, 508.053 101.309 C 495.051 82.901, 475.659 69.416, 450.133 61.032 C 434.998 56.061, 433.066 55.644, 432.502 57.225 " stroke="none" fill="black" fill-rule="evenodd"/>
</svg>