<svg xmlns="http://www.w3.org/2000/svg" width="1000" height="1000" viewBox="0 0 1000 1000" version="1.1">
	<path d="M 527.497 97.453 C 508.994 100.816, 492.573 115.063, 481.182 137.637 C 474.475 150.928, 466.187 178.810, 462.050 202 C 460.214 212.291, 456.056 240.123, 456.016 242.387 C 455.994 243.613, 438.863 242.264, 425.500 239.985 C 398.722 235.418, 364.180 222.722, 335.767 207.004 C 329.710 203.654, 324.580 201.087, 324.366 201.301 C 323.107 202.559, 291 253.293, 291 254.023 C 291 256.145, 323.849 273.195, 344.606 281.847 C 378.065 295.794, 418.948 305.936, 442 306.010 C 445.575 306.021, 449.017 306.361, 449.649 306.765 C 450.484 307.299, 450.798 318.583, 450.795 348 C 450.792 388.870, 451.796 414.016, 454.529 441.500 C 456.919 465.539, 458.699 476.245, 466.994 516.500 C 477.396 566.976, 481.363 587.097, 484.937 607.500 C 492.593 651.214, 498.060 701, 495.203 701 C 494.765 701, 490.268 700.097, 485.211 698.993 C 431.994 687.378, 375.330 689.290, 332.152 704.156 C 306.741 712.905, 289.097 723.557, 273 739.866 C 260.778 752.248, 254.679 761.778, 249.874 776 C 247.152 784.055, 246.600 787.325, 246.243 797.500 C 245.702 812.905, 247.423 821.398, 253.642 834 C 257.609 842.040, 259.727 844.884, 267.421 852.500 C 277.103 862.084, 283.046 866.078, 295.868 871.622 C 351.179 895.535, 453.455 879.799, 511.628 838.426 C 528.180 826.654, 543.646 808.332, 548.899 794.275 L 551.225 788.049 565.863 795.484 C 590.125 807.807, 613.748 822.657, 637.489 840.511 C 650.518 850.310, 672.395 868.352, 674.872 871.343 C 675.627 872.255, 676.826 873, 677.537 873 C 678.247 873, 686.816 864.113, 696.578 853.250 C 706.340 842.388, 715.687 832.043, 717.349 830.261 L 720.370 827.023 717.935 824.391 C 714.041 820.182, 691.674 801.694, 677 790.553 C 643.791 765.341, 605.723 742.514, 571.750 727.440 L 561 722.670 560.995 719.085 C 560.992 717.113, 560.532 706.950, 559.972 696.500 C 557.739 654.840, 551.039 609.292, 537.048 540.671 C 533.777 524.627, 528.861 500.475, 526.123 487 C 518.940 451.648, 516.921 433.710, 514.921 387.500 C 513.871 363.218, 514.368 304.658, 515.671 299.260 C 516.062 297.641, 517.361 296.728, 520.356 295.966 C 547.558 289.044, 584.040 277.669, 608.405 268.512 C 619.562 264.319, 658.658 247.617, 659.743 246.580 C 660.471 245.884, 647.562 201.917, 644.028 193.057 C 633.101 165.664, 619.713 143.365, 604.454 127.144 C 588.670 110.366, 572.097 100.771, 553.210 97.477 C 543.194 95.731, 537.007 95.725, 527.497 97.453 M 537.782 167.688 C 533.843 176.257, 532.182 181.194, 528.932 194 C 526.451 203.775, 521.980 228.305, 522.571 228.900 C 523.466 229.803, 580.532 211.566, 581.447 210.085 C 582.209 208.852, 574.566 193.674, 568.485 184.346 C 559.965 171.275, 550.573 162.186, 543.840 160.496 C 541.565 159.925, 541.094 160.483, 537.782 167.688 M 396.500 755.613 C 394.300 755.845, 387.710 756.710, 381.856 757.536 C 342.900 763.033, 309.966 782.713, 309.593 800.719 C 309.509 804.774, 309.896 805.570, 313.433 808.628 C 321.033 815.199, 338.474 819, 361.021 819 C 407.117 819, 463.625 800.341, 484.037 778.381 C 488.501 773.579, 491.844 767.511, 490.671 766.338 C 489.379 765.045, 466.711 760.123, 452.500 758.049 C 438.118 755.950, 406.392 754.570, 396.500 755.613 " stroke="none" fill="black" fill-rule="evenodd"/>
</svg>