<svg xmlns="http://www.w3.org/2000/svg" width="1000" height="1000" viewBox="0 0 1000 1000" version="1.1">
	<path d="M 472.316 101.036 C 429.987 105.440, 397.327 146.782, 384.003 212.825 C 378.657 239.322, 377.599 251.351, 377.547 286.208 L 377.500 317.916 369.500 320.079 C 346.208 326.377, 311.928 332.443, 284.500 335.120 C 267.901 336.740, 214.211 336.759, 194.500 335.151 C 174.133 333.490, 156.557 331.392, 137.666 328.369 C 128.957 326.976, 121.701 325.985, 121.542 326.168 C 121.383 326.350, 118.358 340.324, 114.819 357.219 L 108.384 387.938 113.442 388.957 C 169.968 400.344, 254.238 403.549, 310 396.433 C 334.388 393.321, 370.789 386.236, 387.133 381.421 C 388.360 381.059, 388.936 381.844, 389.449 384.578 C 390.636 390.909, 398.902 415.580, 403.562 426.703 C 408.712 438.995, 417.878 456.781, 423.561 465.510 C 439.274 489.646, 459.670 510.254, 480.500 523.040 C 495.360 532.162, 531.589 548.098, 545.277 551.533 C 546.775 551.909, 548 552.648, 548 553.176 C 548 555.125, 541.779 598.190, 538.419 619.500 C 522.613 719.752, 500.522 810.255, 479.370 861.403 C 476.415 868.550, 474.335 874.691, 474.749 875.051 C 476.521 876.594, 529.172 905.162, 529.548 904.785 C 530.909 903.425, 539.568 883.283, 544.287 870.500 C 568.374 805.264, 589.863 710.315, 606.484 595.679 C 608.862 579.278, 610.964 565.739, 611.154 565.593 C 611.344 565.447, 616.225 565.733, 622 566.230 C 635.317 567.374, 663.920 566.527, 679.500 564.529 C 751.513 555.289, 814.368 522.800, 853.671 474.500 C 871.227 452.926, 883.769 422.085, 888.488 388.883 C 890.219 376.705, 890.471 347.240, 888.949 334.974 C 881.277 273.140, 849.466 223.670, 802.203 200.073 C 783.541 190.755, 766.532 186.710, 746 186.706 C 714.488 186.700, 680 196.315, 619.771 221.895 C 610.570 225.803, 602.695 229, 602.271 229 C 601.847 229, 600.001 224.162, 598.169 218.250 C 573.442 138.463, 527.133 95.333, 472.316 101.036 M 475.115 165.654 C 467.849 169.361, 457.930 185.709, 452.140 203.523 C 445.334 224.461, 442.051 246.029, 441.296 274.750 C 440.845 291.905, 440.991 297, 441.931 297 C 444.807 297, 493.273 277.507, 525.607 263.346 L 542.713 255.854 540.285 247.177 C 528.683 205.716, 511.639 176.438, 493.861 167.429 C 487.402 164.156, 479.515 163.409, 475.115 165.654 M 731 251.431 C 707.619 255.640, 683.320 264.054, 636.137 284.281 L 614.773 293.439 615.397 298.470 C 620.445 339.187, 621.487 358.137, 621.419 408 C 621.375 440.633, 620.869 460.250, 619.632 477.370 C 618.683 490.499, 618.191 501.524, 618.537 501.870 C 619.986 503.318, 664.545 502.413, 676.058 500.702 C 725.059 493.419, 767.551 473.087, 796.033 443.294 C 807.611 431.183, 814.392 420.110, 819.328 405.251 C 824.468 389.777, 826.315 378.132, 826.346 361 C 826.395 333.444, 820.728 311.183, 808.143 289.500 C 802.372 279.557, 788.180 265.057, 779 259.724 C 764.810 251.482, 747.414 248.476, 731 251.431 M 537.500 327.655 C 518.893 335.742, 483.175 350.054, 464.250 357.007 C 456.413 359.886, 450 362.798, 450 363.478 C 450 366.030, 456.384 386.879, 460.169 396.688 C 469.250 420.223, 480.598 438.635, 494.958 453.135 C 508.304 466.611, 520.025 473.740, 546.165 484.281 L 554.750 487.743 555.352 481.621 C 558.480 449.790, 558.605 370.107, 555.576 338.500 C 554.733 329.700, 554.033 322.163, 554.022 321.750 C 553.987 320.546, 553.252 320.809, 537.500 327.655 " stroke="none" fill="black" fill-rule="evenodd"/>
</svg>