<svg xmlns="http://www.w3.org/2000/svg" width="1000" height="1000" viewBox="0 0 1000 1000" version="1.1">
	<path d="M 613 89.183 C 572.574 112.596, 515.395 132.623, 465.997 140.671 C 452.075 142.940, 446.378 143.362, 429.500 143.380 C 412.564 143.398, 407.939 143.064, 399.312 141.194 C 371.829 135.241, 351.044 124.194, 332.709 105.797 C 324.121 97.180, 322.674 96.104, 320.926 97.040 C 316.557 99.378, 272.408 127.290, 271.089 128.547 C 269.884 129.697, 270.306 130.724, 273.986 135.598 C 299.162 168.944, 341.070 194.325, 386 203.440 C 413.523 209.023, 440.843 209.058, 476.066 203.554 C 484.543 202.229, 491.536 201.225, 491.607 201.323 C 491.677 201.420, 426.094 258.399, 345.867 327.942 C 265.640 397.485, 200 454.696, 200 455.077 C 200 456.114, 255.322 500.500, 256.615 500.500 C 257.228 500.500, 263.980 494.806, 271.619 487.847 C 288.773 472.221, 295.216 466.915, 315.500 451.714 C 397.825 390.018, 489.508 348.479, 568.500 337.088 C 609.405 331.190, 647.641 332.165, 678.212 339.886 C 701.315 345.720, 716.867 355.476, 723.828 368.500 C 726.202 372.942, 726.494 374.561, 726.448 383 C 726.403 391.193, 725.973 393.559, 723.325 400.197 C 713.961 423.673, 689.047 447.547, 658.866 461.964 C 623.773 478.727, 562.067 492, 519.226 492 L 504.395 492 502.595 486.994 C 500.331 480.699, 493.123 472.594, 487.108 469.582 C 464.594 458.306, 438.747 468.687, 426.258 494.020 C 421.376 503.924, 411.161 538.864, 412.844 539.904 C 413.422 540.261, 417.969 541.648, 422.948 542.986 C 427.926 544.324, 432 545.786, 432 546.234 C 432 546.682, 429.519 555.843, 426.487 566.592 C 409.450 626.981, 381.656 715.536, 344.444 827.991 C 334.345 858.511, 326.401 883.763, 326.791 884.106 C 327.845 885.035, 386.018 904.318, 386.436 903.878 C 386.816 903.477, 423.279 792.730, 434.546 757.758 L 441.228 737.017 449.767 727.946 C 465.385 711.354, 485.576 696.793, 503.392 689.272 C 527.679 679.020, 554.049 678.944, 574.745 689.066 C 594.618 698.786, 609.627 727.955, 613.182 763.766 C 615.399 786.096, 611.892 807.251, 602.893 825.825 C 598.845 834.181, 596.518 837.539, 590.695 843.426 C 578.746 855.509, 562.202 862, 543.358 862 C 534.264 862, 524.995 859.652, 521.574 856.481 C 513.670 849.156, 517.525 831.475, 529.635 819.515 C 537.320 811.924, 550.495 806.045, 559.892 806.012 L 563.285 806 562.660 795.250 C 562.316 789.337, 561.734 775.122, 561.366 763.661 C 560.863 747.968, 560.377 742.698, 559.397 742.322 C 557.118 741.447, 537.809 744.769, 529 747.552 C 494.749 758.370, 467.764 785.481, 457.388 819.500 C 454.904 827.643, 454.636 830.023, 454.572 844.500 C 454.491 862.487, 455.608 868.317, 461.467 880.498 C 476.084 910.887, 509.935 928.022, 550.500 925.564 C 586.222 923.400, 616.003 909.956, 638.341 885.911 C 690.475 829.795, 690.660 723.058, 638.732 660.258 C 616.043 632.818, 581.744 618.016, 540.822 618.004 C 519.665 617.998, 503.855 620.871, 484.028 628.327 C 478.818 630.286, 474.441 631.775, 474.302 631.635 C 474.163 631.496, 476.955 621.509, 480.507 609.441 C 484.059 597.373, 488.864 580.472, 491.186 571.881 L 495.407 556.262 520.954 555.721 C 566.737 554.751, 607.299 547.600, 653.500 532.353 C 695.946 518.346, 727.364 498.833, 752.797 470.684 C 793.469 425.668, 802.057 371.286, 775.001 330.083 C 751.097 293.680, 703.886 273.209, 636.642 270.091 C 591.246 267.986, 543.275 273.991, 496.678 287.612 C 491.827 289.030, 487.725 290.035, 487.564 289.845 C 487.402 289.655, 529.295 253.081, 580.658 208.570 C 632.022 164.058, 673.923 127.350, 673.773 126.997 C 673.253 125.774, 625.102 83, 624.303 83.051 C 623.861 83.079, 618.775 85.839, 613 89.183 " stroke="none" fill="black" fill-rule="evenodd"/>
</svg>