<svg xmlns="http://www.w3.org/2000/svg" width="1000" height="1000" viewBox="0 0 1000 1000" version="1.1">
	<path d="M 362 86.050 C 348.525 87.023, 337.239 87.860, 336.920 87.910 C 336.601 87.959, 336.303 100.487, 336.257 115.750 C 336.047 185.120, 326.657 254.152, 308.949 316.500 C 286.847 394.322, 233.294 520.631, 183.662 612 C 178.434 621.625, 174.459 629.781, 174.828 630.125 C 176.656 631.825, 233.344 657.905, 234.141 657.413 C 234.649 657.099, 238.033 650.915, 241.661 643.671 C 272.220 582.648, 326.782 500.244, 374.532 443 C 470.972 327.383, 563.376 270.701, 645.179 276.981 C 701.273 281.287, 733.731 305.780, 743.264 350.995 C 745.639 362.262, 746.046 384.934, 744.099 397.500 C 738.120 436.081, 719.886 475.704, 690.949 513 C 682.208 524.265, 658.957 548.314, 647 558.457 C 625.327 576.842, 587.714 604.880, 559.500 623.681 C 527.203 645.204, 510.575 654.496, 486.500 664.477 C 477.700 668.125, 470.131 671.476, 469.681 671.924 C 468.678 672.921, 497.578 731, 499.078 731 C 499.667 731, 510.128 727.643, 522.324 723.541 C 583.675 702.905, 648.616 691.757, 688.997 694.930 C 720.750 697.425, 739.166 706.470, 744.680 722.280 C 747.472 730.288, 747.197 747.611, 744.155 755.236 C 732.678 784.007, 692.629 812.638, 627 838.990 C 610.224 845.726, 582.310 855.843, 563.250 862.096 C 555.962 864.486, 550 866.869, 550 867.391 C 550 868.358, 569.919 926.252, 570.426 926.760 C 570.883 927.216, 622.167 909.274, 640.353 902.295 C 701.391 878.872, 742.781 854.589, 772 825.062 C 805.747 790.959, 817.883 750.372, 806.901 708.344 C 799.170 678.760, 777.974 655.350, 747.836 643.108 C 727.587 634.883, 711.654 631.998, 681.777 631.147 L 659.055 630.500 673.777 618.811 C 740.169 566.100, 784.534 501.439, 801.952 432 C 807.683 409.149, 808.460 402.487, 808.478 376 C 808.493 354.377, 808.225 350.170, 806.202 340.172 C 803.124 324.959, 799.003 312.762, 792.397 299.309 C 768.677 251.002, 721.604 221.016, 658.500 214.015 C 646.792 212.716, 620.534 212.723, 608.211 214.029 C 561.104 219.019, 513.640 238.059, 463.500 272.077 C 436.791 290.199, 413.332 309.842, 383.582 338.999 C 372.077 350.275, 362.964 358.678, 363.330 357.674 C 365.743 351.053, 376.396 311.686, 379.477 298 C 393.074 237.613, 398.811 188.067, 399.713 123.250 L 400.259 84 393.379 84.140 C 389.596 84.218, 375.475 85.077, 362 86.050 " stroke="none" fill="black" fill-rule="evenodd"/>
</svg>