<svg xmlns="http://www.w3.org/2000/svg" width="1000" height="1000" viewBox="0 0 1000 1000" version="1.1">
	<path d="M 345 80.482 C 338.675 82.322, 325.148 86.148, 314.939 88.986 L 296.379 94.144 298.571 103.895 C 304.899 132.049, 308.009 158.057, 308.718 188.753 L 309.278 213.006 306.389 212.510 C 304.800 212.238, 299.009 211.287, 293.521 210.397 C 260.635 205.063, 226.601 192.561, 202.543 176.977 C 197.188 173.507, 192.531 171.115, 192.095 171.609 C 191.662 172.099, 182.212 182.766, 171.095 195.313 L 150.883 218.126 154.692 221.204 C 168.171 232.099, 192.958 245.837, 214.500 254.353 C 240.535 264.645, 262.509 270.301, 296.808 275.538 C 301.028 276.182, 301.102 276.260, 300.439 279.348 C 297.271 294.096, 286.771 317.130, 275.580 333.880 C 261.951 354.279, 248.731 369.081, 229.207 385.804 C 222.446 391.595, 217.123 396.877, 217.378 397.542 C 217.822 398.699, 251.813 454.144, 252.501 454.834 C 252.684 455.017, 259.709 451.070, 268.112 446.063 C 285.203 435.880, 293.107 432.918, 303.288 432.883 C 311.169 432.856, 314.651 434.470, 319.394 440.350 C 322.235 443.872, 322.482 444.759, 322.286 450.748 C 321.706 468.464, 311.427 500.502, 293.413 540.742 C 276.864 577.708, 245.048 637.509, 218.473 681.599 C 211.063 693.893, 205 704.405, 205 704.958 C 205 705.512, 213.402 718.147, 223.672 733.036 L 242.344 760.108 249.422 753.251 C 298.707 705.504, 322.560 684.899, 365.982 652.566 C 451.690 588.744, 533.581 548.343, 603.114 535.575 C 683.747 520.768, 750.439 544.864, 771.969 596.579 C 776.658 607.844, 778.309 616.704, 778.383 631 C 778.630 679.050, 745.880 729.819, 686 774.214 C 636.772 810.712, 565.468 842.962, 486.500 864.446 C 477.150 866.990, 468.983 869.249, 468.351 869.466 C 467.146 869.879, 481.281 928.644, 483.006 930.394 C 484.734 932.146, 537.947 916.484, 571 904.494 C 597.480 894.889, 618.103 886.084, 643.500 873.539 C 698.538 846.353, 736.607 819.702, 771.565 783.886 C 810.622 743.868, 833.134 702.285, 840.533 656.494 C 842.422 644.797, 842.659 620.119, 840.988 609 C 833.071 556.323, 800.970 513.882, 750.500 489.362 C 729.010 478.921, 705.301 472.183, 678.500 468.898 C 665.876 467.350, 631.791 467.351, 618 468.898 C 534.997 478.214, 445.127 517.924, 341.895 590.901 C 340.274 592.047, 340.576 590.864, 343.554 584.401 C 367.899 531.582, 379.302 499.499, 384.573 469 C 386.885 455.623, 386.121 434.097, 383.012 425 C 379.224 413.918, 373.825 405.245, 364.326 394.985 C 355.521 385.475, 345.396 378.938, 329.323 372.387 C 327.214 371.528, 327.337 371.200, 333.201 362 C 346.275 341.490, 357.761 314.131, 363.482 289.870 L 366.224 278.240 375.362 277.563 C 400.518 275.698, 428.382 271.495, 452.426 265.939 C 471.150 261.612, 476 260.070, 476 258.442 C 476 256.814, 460.094 199.760, 459.464 199.131 C 459.236 198.902, 452.400 200.340, 444.274 202.326 C 427.472 206.433, 406.178 210.305, 391.500 211.921 C 386 212.526, 379.587 213.269, 377.250 213.572 L 373 214.123 372.996 197.811 C 372.991 178.702, 371.718 159.577, 369.015 138 C 366.053 114.354, 358.766 76.902, 357.160 77.069 C 356.797 77.106, 351.325 78.642, 345 80.482 " stroke="none" fill="black" fill-rule="evenodd"/>
</svg>