<svg xmlns="http://www.w3.org/2000/svg" width="1000" height="1000" viewBox="0 0 1000 1000" version="1.1">
	<path d="M 594 89.970 C 584.375 91.491, 571.161 93.537, 564.637 94.515 L 552.773 96.294 553.297 100.397 C 553.585 102.654, 557.686 131.373, 562.410 164.217 C 567.135 197.062, 570.998 224.737, 570.996 225.717 C 570.994 227.017, 566.587 229.724, 554.746 235.702 C 524.222 251.111, 485.374 273.635, 446 298.752 C 435.275 305.594, 426.339 311.347, 426.142 311.537 C 425.571 312.088, 460.405 363.920, 461.374 363.962 C 461.855 363.983, 468.830 359.778, 476.874 354.618 C 507.302 335.099, 541.431 314.894, 568.833 300.178 L 579.782 294.297 580.383 298.899 C 583.509 322.835, 586.234 356.119, 586.357 371.870 L 586.500 390.240 581 395.185 C 538.257 433.619, 490.504 470.678, 442.250 502.861 C 433.863 508.455, 427 513.273, 427 513.567 C 427 513.861, 436.043 527.598, 447.095 544.093 L 467.191 574.085 470.845 571.901 C 489.001 561.051, 574.393 513.060, 574.808 513.474 C 575.248 513.914, 570.158 567.186, 568.298 581.600 L 567.769 585.699 586.525 600.100 C 596.841 608.020, 605.399 614.500, 605.544 614.500 C 605.689 614.500, 611.814 610.681, 619.154 606.013 C 650.516 586.070, 684.633 571.668, 714.332 565.836 C 728.519 563.050, 748.320 562.818, 758 565.324 C 783.196 571.849, 803.301 593.904, 813.509 626.217 C 820.577 648.591, 822.478 681.504, 818.176 707 C 810.211 754.199, 788.512 792.712, 757.427 814.824 C 750.023 820.090, 727.126 832.752, 726.667 831.834 C 726.575 831.650, 724.601 827.675, 722.279 823 C 691.263 760.534, 622.890 718.192, 558.088 721.320 C 508.678 723.705, 474.219 752.620, 467.345 797.463 C 462.704 827.738, 472.203 855.690, 494.248 876.631 C 503.440 885.362, 511.131 890.659, 523.795 896.979 C 592.520 931.279, 713.040 919.677, 787.356 871.607 C 811.191 856.190, 833.678 832.582, 849.074 806.814 C 864.080 781.698, 874.982 751.818, 880.751 720 C 883.184 706.578, 883.383 703.343, 883.429 676.500 C 883.474 650.336, 883.256 646.327, 881.195 635.500 C 873.357 594.334, 859.239 564.773, 835.790 540.427 C 816.390 520.286, 795.430 508.428, 768.500 502.359 C 757.580 499.898, 728.247 499.423, 713.514 501.470 C 696.904 503.777, 673.775 509.868, 656.262 516.547 C 648.143 519.644, 640.806 522.391, 639.957 522.651 C 638.597 523.069, 638.692 520.306, 640.757 499.313 C 642.045 486.217, 643.414 475.195, 643.799 474.821 C 646.106 472.582, 685.326 453.525, 694.503 450.184 C 723.185 439.742, 778.596 427.408, 829.992 420.025 C 837.963 418.881, 844.991 417.394, 845.609 416.722 C 846.228 416.050, 854.073 406.500, 863.043 395.500 C 872.013 384.500, 881.304 373.194, 883.689 370.377 L 888.027 365.253 860.763 347.751 C 829.788 327.867, 786.386 300.997, 785.255 301.006 C 784.703 301.010, 754.853 349.192, 752.304 354.195 C 752.109 354.577, 755.823 357.257, 760.558 360.150 L 769.165 365.410 753.333 368.682 C 733.105 372.863, 703.582 380.288, 689.650 384.699 C 683.683 386.588, 678.647 387.980, 678.459 387.792 C 678.271 387.604, 680.600 384.537, 683.636 380.975 C 708.996 351.218, 727.648 320.632, 735.962 295.175 C 740.963 279.859, 742.431 271.069, 742.421 256.500 C 742.411 242.795, 740.498 233.231, 735.720 223 C 732.095 215.237, 721.191 203.898, 713.325 199.711 C 696.367 190.685, 669.477 190.737, 638.750 199.856 C 634.681 201.063, 632 201.445, 632 200.816 C 632 200.017, 624.016 144.115, 616.280 90.750 C 615.628 86.247, 617.200 86.303, 594 89.970 M 287.500 141.720 C 271.550 146.954, 258.443 151.295, 258.373 151.368 C 258.303 151.440, 259.154 155.550, 260.264 160.500 C 263.089 173.103, 263.364 208.496, 260.731 220.692 C 258.308 231.915, 254.481 243.025, 249.865 252.241 C 241.806 268.327, 233.774 279.470, 198.530 323.461 C 168.694 360.701, 158.544 374.167, 149.467 388.552 C 128.896 421.156, 122.836 449.578, 131.531 472.678 C 134.969 481.811, 141.997 494.011, 158.503 519.500 C 181.363 554.797, 189.168 570.382, 194.485 591.342 C 198.303 606.394, 199 614.580, 198.996 644.322 C 198.992 674.174, 198.367 685.466, 194.505 725.500 C 190.523 766.782, 189.727 781.104, 189.694 812 C 189.659 845.569, 190.482 854.572, 195.760 878.342 L 199.500 895.184 224.986 894.454 C 239.004 894.052, 252.705 893.449, 255.433 893.112 L 260.394 892.500 264.120 870.500 C 280.066 776.373, 309.265 686.934, 338.268 643.377 L 345.674 632.255 321.587 613.171 C 308.339 602.675, 297.050 593.980, 296.500 593.849 C 294.181 593.298, 277.001 619.873, 267.729 638.351 L 263.288 647.202 262.717 626.351 C 262.085 603.296, 260.051 588.553, 255.061 570.843 C 247.431 543.765, 236.713 522.716, 208.293 479 C 202.750 470.475, 196.567 460.492, 194.552 456.815 C 191.075 450.471, 190.947 449.912, 192.040 445.852 C 192.673 443.499, 195.008 437.961, 197.229 433.545 C 204.618 418.848, 214.696 404.975, 248.473 363 C 275.591 329.301, 283.751 318.531, 294.115 302.759 C 317.888 266.579, 328.131 229.556, 326.693 185 C 325.952 162.012, 320.771 131.813, 317.618 132.103 C 317.003 132.159, 303.450 136.487, 287.500 141.720 M 670.769 257.661 C 666.517 258.384, 658.023 260.597, 651.892 262.579 L 640.746 266.182 641.350 271.341 C 641.683 274.179, 643.095 286.625, 644.489 299 C 645.882 311.375, 647.143 322.175, 647.289 323 C 647.902 326.448, 666.840 296.561, 672.408 283.358 C 676.277 274.184, 679.327 262.570, 678.836 258.876 L 678.500 256.346 670.769 257.661 M 550 786.289 C 536.264 790.195, 530.011 798.081, 530.011 811.500 C 530.011 819.915, 531.679 823.844, 537.845 829.953 C 547.532 839.551, 562.870 846.005, 585.980 850.208 C 595.348 851.911, 601.797 852.321, 620.500 852.401 C 642.604 852.496, 664 850.822, 664 848.997 C 664 846.869, 651.256 829.222, 644.844 822.473 C 630.307 807.169, 609.251 794.211, 589.500 788.415 C 578.689 785.242, 557.662 784.110, 550 786.289 " stroke="none" fill="black" fill-rule="evenodd"/>
</svg>