<svg xmlns="http://www.w3.org/2000/svg" width="1000" height="1000" viewBox="0 0 1000 1000" version="1.1">
	<path d="M 409.084 85.250 C 404.573 107.638, 402.890 134.385, 404.906 151.650 C 409.374 189.921, 427.268 215.238, 456.500 224.646 C 466.365 227.821, 484.048 228.912, 495.552 227.056 C 511.679 224.454, 529.520 216.574, 548.921 203.482 C 554.739 199.556, 567.189 191.158, 576.586 184.819 C 608.672 163.179, 630.059 154.949, 662 151.948 C 692.882 149.047, 731.215 156.488, 742.254 167.526 C 745.629 170.902, 745.686 173.258, 742.526 178.786 C 735.624 190.857, 725.168 200.057, 696.500 219.283 C 611.202 276.486, 493.423 362.724, 400 436.379 C 346.394 478.642, 290.140 528.901, 225.116 592.624 L 199.733 617.500 222.648 639.647 L 245.563 661.794 269.031 638.767 C 297.732 610.606, 329.556 580.584, 353.437 559.139 L 371.374 543.032 385.437 537.076 C 421.564 521.777, 464.072 508.189, 502.928 499.519 C 585.928 481.001, 655.072 483.704, 704.306 507.392 C 746.639 527.760, 777.722 566.738, 787.128 611.250 C 789.926 624.491, 790.142 646.092, 787.614 660 C 773.465 737.850, 695.741 810.652, 595.472 839.972 C 533.670 858.044, 442.172 859.572, 396.540 843.294 C 380.724 837.652, 368.185 829.119, 366.005 822.516 C 364.403 817.660, 367.292 811.606, 375.085 803.490 C 398.490 779.116, 454.677 759, 499.355 759 C 524.621 759, 553.433 765.199, 573.090 774.865 L 580.854 778.683 597.976 752.690 C 607.393 738.393, 614.870 726.105, 614.593 725.382 C 613.729 723.130, 590.149 712.255, 576 707.582 C 561.265 702.717, 544.096 698.855, 528.500 696.900 C 515.650 695.288, 484.378 695.286, 471.500 696.896 C 407.632 704.878, 347.094 734.043, 319.758 770 C 313.327 778.459, 305.574 794.607, 303.579 803.697 C 301.387 813.690, 301.541 827.886, 303.945 837.286 C 313.834 875.952, 353.588 902.956, 416 913.404 C 439.367 917.315, 456.668 918.311, 491.276 917.738 C 524.295 917.191, 543.240 915.644, 568.500 911.432 C 682.814 892.370, 785.502 821.966, 829.485 732.500 C 841.649 707.756, 847.999 687.778, 851.575 663 C 854.071 645.707, 853.123 614.904, 849.583 598.231 C 841.183 558.676, 821.065 522.016, 791.535 492.453 C 756.541 457.421, 713.277 436.416, 658 427.622 C 638.677 424.548, 623.560 423.752, 594.319 424.269 C 564.790 424.791, 551.376 425.978, 524.019 430.486 C 516.055 431.798, 509.460 432.788, 509.363 432.686 C 509.073 432.379, 545.271 405.170, 581.500 378.464 C 635.920 338.349, 681.002 306.481, 727.500 275.257 C 771.160 245.939, 787.173 230.762, 799.377 207.133 C 806.249 193.828, 808.486 184.874, 808.403 171 C 808.345 161.186, 807.933 158.328, 805.594 151.510 C 794.592 119.437, 764.046 98.845, 715 90.438 C 702.141 88.234, 663.311 87.344, 650.277 88.954 C 616.048 93.183, 587.330 103.194, 557.191 121.402 C 551.311 124.955, 537.725 133.942, 527 141.374 C 498.574 161.073, 486.451 166.545, 476.923 163.979 C 473.538 163.068, 472.879 162.337, 470.829 157.229 C 468.696 151.913, 468.534 150.094, 468.589 132 C 468.630 118.307, 469.134 109.980, 470.280 104.039 C 471.177 99.386, 471.735 95.402, 471.520 95.187 C 471.029 94.695, 412.927 80.064, 411.321 80.027 C 410.672 80.012, 409.666 82.362, 409.084 85.250 M 177.606 123.361 C 176.230 139.315, 176.072 149.836, 176.975 165.563 C 179.396 207.763, 187.570 236.908, 203.874 261.469 C 215.946 279.656, 247.835 305.466, 275.770 319.660 C 281.550 322.597, 286.611 325, 287.016 325 C 287.817 325, 308.516 265.129, 307.885 264.636 C 307.673 264.470, 304.125 262.539, 300 260.343 C 284.242 251.957, 262.381 234.318, 256.113 224.932 C 245.204 208.595, 238.830 174.021, 240.416 139.781 L 241.097 125.063 238.799 124.575 C 237.534 124.307, 224.125 122.699, 209 121.003 C 193.875 119.306, 180.743 117.761, 179.818 117.570 C 178.429 117.283, 178.043 118.292, 177.606 123.361 " stroke="none" fill="black" fill-rule="evenodd"/>
</svg>