<svg xmlns="http://www.w3.org/2000/svg" width="1000" height="1000" viewBox="0 0 1000 1000" version="1.1">
	<path d="M 178 102.659 C 178 103.021, 175.978 116.409, 173.506 132.409 C 154.075 258.209, 139.747 376.398, 133.431 463 C 131.229 493.193, 130.458 551.724, 131.928 577 C 135.787 643.331, 146.316 719.662, 162.538 798.911 C 169.589 833.354, 180.523 878.556, 181.743 878.301 C 182.588 878.124, 239.965 845.264, 240.858 844.445 C 241.055 844.264, 241.609 838.578, 242.089 831.808 C 244.597 796.429, 252.268 751.087, 263.121 707.500 C 275.402 658.177, 292.010 612.043, 311.702 572.545 C 317.709 560.497, 318.037 559.500, 316.390 558.296 C 313.737 556.356, 263.308 530, 262.250 530 C 261.222 530, 247.791 557.434, 240.220 575 C 230.329 597.946, 219.027 629.498, 211.024 656.500 C 208.742 664.200, 206.608 671.175, 206.282 672 C 204.344 676.894, 196.775 600.962, 195.009 558.920 C 191.880 484.388, 206.638 335.766, 236.098 145.133 C 238.849 127.332, 240.856 112.522, 240.557 112.224 C 239.916 111.583, 183.536 102.040, 180.250 102.016 C 179.012 102.007, 178 102.297, 178 102.659 M 773.500 151.085 C 725.498 165.105, 670.223 176.935, 629 182.013 C 586.434 187.257, 522.389 183.727, 446.059 171.931 C 435.367 170.279, 425.938 169.058, 425.106 169.218 C 423.948 169.441, 422.278 176.697, 417.971 200.220 L 412.349 230.931 417.424 231.934 C 435.693 235.547, 489.515 242.489, 523 245.553 C 546.759 247.727, 601.648 248.605, 619.009 247.089 C 637.991 245.432, 664.045 241.662, 688.786 236.994 C 700.427 234.797, 710.201 233, 710.506 233 C 712.208 233, 649.700 321.263, 615.795 366.736 C 583.768 409.691, 561.753 436.773, 541 458.747 C 510.901 490.616, 501.948 500.350, 485.583 519 C 459.574 548.642, 438.892 573.162, 405.874 613.500 C 384.582 639.513, 343 692.020, 343 692.894 C 343 693.769, 400.638 736, 401.832 736 C 402.302 736, 408.215 729.471, 414.973 721.492 C 446.475 684.292, 483.289 655.516, 512.500 645.261 C 517.247 643.594, 522.599 642.633, 529.131 642.274 C 537.916 641.791, 539.242 641.964, 544.239 644.252 C 559.917 651.430, 583.429 685.935, 603.008 730.500 C 606.391 738.200, 609.461 744.799, 609.829 745.164 C 610.198 745.530, 621.750 743.603, 635.500 740.882 C 663.873 735.268, 660.080 737.264, 672.480 721.419 C 682.148 709.066, 704.389 686.453, 717.184 675.968 C 745.449 652.806, 769.046 642.098, 789.279 643.252 C 796.826 643.682, 799.174 644.279, 805.311 647.325 C 813.458 651.369, 819.610 656.855, 821.768 662 C 828.530 678.118, 813.633 710.486, 783.134 745.947 C 751.595 782.617, 697.866 826.152, 646.701 856.494 C 639.361 860.847, 637.054 862.699, 637.506 863.877 C 637.838 864.742, 644.857 877.253, 653.102 891.679 L 668.095 917.908 676.797 912.774 C 726.842 883.249, 776.496 844.821, 813.007 807.359 C 855.294 763.972, 879.366 724.618, 885.631 688.632 C 887.763 676.382, 887.032 657.444, 884.023 647 C 871.528 603.625, 822.472 573.843, 773.461 579.877 C 734.744 584.643, 695.484 606.793, 654.756 646.847 C 646.648 654.821, 639.844 661.156, 639.637 660.923 C 639.430 660.690, 637.110 656.900, 634.481 652.500 C 622.395 632.269, 605.868 611.367, 593.822 601.078 C 584.019 592.707, 573.883 586.877, 562.656 583.154 C 550.471 579.114, 541.134 577.747, 528.543 578.161 L 518.239 578.500 520.735 575.500 C 529.724 564.695, 562.561 528.523, 577.473 513 C 587.247 502.825, 599.523 489.550, 604.753 483.500 C 646.340 435.391, 719.442 335.202, 799.761 216.235 L 814.793 193.969 803.987 170.235 C 798.044 157.181, 792.578 146.415, 791.840 146.310 C 791.103 146.206, 782.850 148.354, 773.500 151.085 " stroke="none" fill="black" fill-rule="evenodd"/>
</svg>