<svg xmlns="http://www.w3.org/2000/svg" width="1000" height="1000" viewBox="0 0 1000 1000" version="1.1">
	<path d="M 553.877 102.537 C 542.546 104.303, 531.540 106.895, 502.500 114.637 C 476.555 121.554, 452.226 127.143, 439.500 129.109 C 429.019 130.729, 399.031 130.734, 387 129.119 C 367.768 126.536, 346.329 121.465, 331.118 115.899 C 328.159 114.816, 325.529 114.138, 325.275 114.392 C 325.021 114.646, 319.272 127.599, 312.500 143.177 C 302.036 167.246, 300.406 171.673, 301.649 172.651 C 303.838 174.373, 325.837 181.494, 339.675 184.960 C 368.226 192.109, 389.842 194.442, 420.954 193.733 C 450.936 193.050, 466.081 190.334, 520 175.974 C 547.436 168.668, 560.849 165.516, 561.546 166.212 C 562.331 166.998, 549.354 192.178, 540.783 206.500 C 524.524 233.668, 506.272 260.415, 481.273 293.705 C 471.332 306.944, 467.107 313.331, 467.675 314.264 C 468.129 315.009, 472.827 321.891, 478.115 329.559 C 491.629 349.151, 503.577 369.921, 516.052 395.500 C 530.533 425.194, 540.338 450.474, 546.966 475.201 L 549.834 485.902 545.667 486.442 C 543.375 486.739, 532.725 488.120, 522 489.511 C 442.316 499.846, 362.843 521.612, 288.575 553.443 C 244.403 572.376, 222.086 585.628, 204.456 603.394 C 190.873 617.082, 182.908 630.878, 178.878 647.699 C 177.105 655.100, 176.848 658.568, 177.258 669.500 C 177.693 681.072, 178.151 683.713, 181.427 693.545 C 188.574 714.997, 199.692 731.654, 221.500 753.583 C 257.110 789.390, 306.738 822.346, 381.083 859.556 C 423.704 880.887, 477.146 904.106, 479.642 902.375 C 481.974 900.758, 509.208 865.607, 516.226 855.155 C 552.618 800.957, 586.680 717.629, 608.876 628.500 C 617.946 592.080, 620.720 575.415, 621.278 554 L 621.500 545.500 633 545.188 C 647.637 544.790, 686.746 546.592, 705.818 548.543 C 736.087 551.639, 768.412 558.119, 789.945 565.408 C 795.689 567.353, 800.455 568.844, 800.535 568.722 C 801.065 567.913, 822.977 512.217, 823.209 511.088 C 823.607 509.153, 806.093 503, 784.500 497.488 C 744.328 487.233, 696.809 481.973, 641.800 481.690 L 614.100 481.547 612.445 474.024 C 603.287 432.395, 580.854 377.309, 554.070 330.679 L 544.982 314.858 553.366 303.179 C 587.433 255.723, 614.317 209.579, 623.674 182.500 C 631.016 161.253, 630.877 143.570, 623.248 128.506 C 619.612 121.326, 608.848 111, 601 107.164 C 589.014 101.305, 572.310 99.665, 553.877 102.537 M 549 550.227 C 457.132 560.620, 367.211 585.984, 287.302 624.043 C 263.464 635.398, 247.273 647.493, 242.516 657.500 C 239.648 663.535, 240.096 670.471, 243.875 678.546 C 257.206 707.035, 298.189 741.036, 365 779.038 C 387.451 791.808, 428.662 812.521, 453.782 823.661 L 459.063 826.003 466.514 814.576 C 491.250 776.639, 515.797 720.235, 534.638 658.045 C 541.092 636.744, 551.368 596.997, 554.429 581.500 C 556.296 572.048, 558.153 550.743, 557.179 549.939 C 556.806 549.631, 553.125 549.760, 549 550.227 " stroke="none" fill="black" fill-rule="evenodd"/>
</svg>