<svg xmlns="http://www.w3.org/2000/svg" width="1000" height="1000" viewBox="0 0 1000 1000" version="1.1">
	<path d="M 269.006 106.693 C 253.334 109.697, 240.444 112.233, 240.360 112.327 C 240.277 112.422, 241.514 119.475, 243.109 128 C 249.776 163.636, 265.160 258.745, 272.345 308.739 L 273.673 317.979 268.086 317.399 C 226.796 313.111, 190.682 299.182, 168.777 279.096 C 163.671 274.414, 162.852 273.992, 161.184 275.174 C 160.155 275.903, 148.875 284.796, 136.117 294.935 L 112.921 313.370 119.711 320.276 C 153.096 354.230, 206.259 376.227, 266.737 381.110 L 281.973 382.340 282.486 385.420 C 283.686 392.622, 288.135 435.198, 287.730 435.603 C 287.486 435.847, 281.983 433.776, 275.500 431 C 269.017 428.224, 263.600 426.076, 263.462 426.227 C 262.927 426.809, 108.001 789.216, 108.021 789.839 C 108.049 790.735, 165.130 815.037, 165.977 814.514 C 166.347 814.286, 169.990 806.208, 174.074 796.564 C 178.158 786.920, 181.804 779.023, 182.175 779.015 C 183.556 778.985, 203.808 798.033, 212.565 807.598 C 238.793 836.246, 260.467 865.142, 281.304 899.244 L 289.092 911.989 292.296 910.603 C 297.901 908.180, 344.471 885.734, 345.199 885.104 C 346.713 883.796, 352.027 784.026, 355.565 690.500 C 357.716 633.660, 358.580 525.782, 357.091 500 C 355.438 471.376, 352.494 437.188, 348.961 405.607 C 347.306 390.816, 346.159 378.508, 346.411 378.256 C 346.663 378.004, 351.961 376.932, 358.185 375.874 C 375.433 372.943, 408.434 364.462, 428.500 357.805 C 443.405 352.859, 480.595 338.739, 481.746 337.588 C 482.110 337.224, 458.100 280.898, 457.106 279.784 C 456.755 279.390, 450.400 281.554, 442.984 284.593 C 426.596 291.309, 398.760 300.738, 382.500 305.081 C 366.905 309.246, 338.670 314.989, 337.901 314.152 C 337.572 313.794, 336.086 304.725, 334.600 294 C 328.189 247.742, 310.270 138.136, 303.906 106.250 C 302.945 101.436, 302.636 101.010, 300.179 101.116 C 298.706 101.180, 284.678 103.689, 269.006 106.693 M 639.500 205.051 C 622.994 206.418, 589.896 211.239, 588.214 212.520 C 588.057 212.640, 591.388 226.570, 595.616 243.475 L 603.303 274.213 606.901 273.599 C 634.381 268.915, 652.163 267.620, 679.500 268.312 C 692.150 268.632, 707.675 269.595, 714 270.452 C 763.631 277.177, 805.180 293.452, 840.378 319.953 C 846.361 324.458, 851.582 327.774, 851.980 327.322 C 858.669 319.730, 892 280.003, 892 279.623 C 892 279.335, 886.027 274.614, 878.726 269.133 C 832.594 234.497, 779.875 214.207, 716 206.502 C 699.992 204.571, 655.489 203.727, 639.500 205.051 M 251 617.075 C 227.625 671.603, 208.368 716.565, 208.206 716.991 C 208.044 717.417, 211.644 720.687, 216.206 724.258 C 235.456 739.326, 258.246 761.936, 278.667 786.226 L 286.835 795.940 287.430 788.720 C 288.070 780.941, 290.393 726.551, 291.988 681.942 C 293.652 635.436, 295.096 538.061, 294.276 527.717 L 293.500 517.933 251 617.075 M 530.112 659.750 C 526.641 674.903, 525.955 697.619, 528.471 714 C 537.538 773.011, 580.819 814.669, 651.500 832.415 C 675.948 838.553, 697.028 840.965, 732.500 841.683 C 776.462 842.572, 810.925 839.896, 865.237 831.374 C 881.184 828.872, 881.952 828.648, 881.497 826.624 C 881.234 825.456, 878.748 811.470, 875.972 795.545 C 873.195 779.620, 870.783 766.450, 870.611 766.278 C 870.440 766.106, 863.369 767.078, 854.900 768.438 C 813.492 775.087, 779.303 778.063, 744 778.092 C 703.201 778.126, 679.318 775.048, 652.500 766.303 C 633.605 760.142, 620.291 752.255, 609.396 740.771 C 594.827 725.413, 588.411 704.851, 591.016 681.859 C 591.585 676.832, 591.882 672.549, 591.676 672.342 C 591.018 671.684, 534.293 655, 532.713 655 C 531.727 655, 530.821 656.654, 530.112 659.750 " stroke="none" fill="black" fill-rule="evenodd"/>
</svg>