<svg xmlns="http://www.w3.org/2000/svg" width="1000" height="1000" viewBox="0 0 1000 1000" version="1.1">
	<path d="M 568.571 156.141 C 567.980 157.924, 562.735 203.155, 559.020 238.500 C 554.498 281.513, 549.157 342.126, 546.175 384.263 L 543.477 422.383 537.989 425.519 C 534.970 427.244, 525.075 432.854, 516 437.986 C 411.941 496.831, 336.199 559.936, 269.329 643.500 C 246.603 671.899, 219.626 712.048, 201.945 743.782 L 196.217 754.065 195.141 747.782 C 193.119 735.981, 190.127 711.519, 188.316 692 C 186.863 676.337, 186.513 663.153, 186.536 625 C 186.567 575.509, 187.513 557.844, 192.027 522.500 C 200.031 459.831, 224.715 359.379, 259.674 247.206 C 263.838 233.844, 267.078 222.750, 266.873 222.552 C 265.526 221.253, 207.624 202.985, 206.988 203.659 C 206.068 204.633, 199.308 225.917, 188.617 261.500 C 162.980 346.830, 143.357 425.798, 133.574 483 C 114.240 596.054, 119.406 728.048, 146.980 825.500 C 151.460 841.336, 163.284 873.261, 164.863 873.788 C 166.228 874.243, 217.304 863.129, 218.080 862.208 C 218.408 861.819, 220.379 856.550, 222.459 850.500 C 240.854 796.999, 283.075 726.103, 329.918 670.059 C 374.566 616.640, 423.987 572.346, 482.500 533.308 C 495.287 524.778, 538.359 498, 539.295 498 C 539.408 498, 539.508 526.237, 539.518 560.750 C 539.533 611.285, 539.883 628.075, 541.315 647 C 546.141 710.764, 554.808 749.819, 570.050 776.480 C 585.905 804.213, 619.335 830.527, 654.500 842.956 C 694.041 856.930, 743.219 859.308, 797.990 849.893 C 822.759 845.636, 876.271 830.725, 881.242 826.695 C 882.508 825.670, 881.063 821.496, 871.060 797.285 C 864.649 781.767, 859.124 768.790, 858.781 768.448 C 858.439 768.105, 851.260 770.102, 842.829 772.884 C 780.846 793.340, 719.813 797.488, 678.927 784.024 C 654.427 775.956, 631.516 758.116, 623.027 740.499 C 617.482 728.991, 611.685 704.787, 608.552 680.069 C 604.328 646.736, 603.582 629.465, 603.541 564 C 603.518 529.075, 603.888 492.007, 604.363 481.627 L 605.227 462.753 618.683 456.359 C 658.810 437.292, 705.772 419.579, 746.509 408.146 C 761.184 404.027, 784.155 398.668, 792.250 397.474 C 794.862 397.088, 797 396.546, 797 396.268 C 797 395.218, 789.993 339.358, 789.488 336.380 L 788.958 333.260 778.229 335.172 C 753.858 339.515, 718.592 349.089, 686.071 360.191 C 667.428 366.555, 631.749 380.424, 618.625 386.409 C 614.294 388.384, 610.517 390, 610.232 390 C 608.179 390, 623.292 228.864, 630.476 174.168 C 631.244 168.322, 631.779 163.446, 631.666 163.333 C 631.553 163.220, 618.870 161.510, 603.480 159.534 C 588.091 157.558, 574.042 155.680, 572.261 155.361 C 570.011 154.958, 568.884 155.197, 568.571 156.141 M 407.216 344.565 C 392.911 363.053, 359.617 375.444, 324.500 375.349 C 301.058 375.286, 284.785 370.593, 270.975 359.914 L 267.450 357.188 243.131 377.841 L 218.812 398.494 225.071 404.377 C 243.250 421.464, 271.526 433.999, 301 438.036 C 311.795 439.514, 336.796 439.518, 348.500 438.043 C 396.366 432.009, 435.822 412.158, 458.303 382.798 C 463.217 376.380, 471.554 362.146, 470.782 361.492 C 470.627 361.361, 457.450 356.425, 441.500 350.524 C 425.550 344.623, 412.256 339.647, 411.957 339.467 C 411.659 339.286, 409.525 341.580, 407.216 344.565 " stroke="none" fill="black" fill-rule="evenodd"/>
</svg>