<svg xmlns="http://www.w3.org/2000/svg" width="1000" height="1000" viewBox="0 0 1000 1000" version="1.1">
	<path d="M 539 113.604 C 508.905 117.139, 484.610 121.707, 446.274 131.039 C 409.923 139.888, 388.945 144.644, 376.112 146.945 C 344.377 152.635, 300.058 151.633, 273.037 144.615 C 264.704 142.450, 263.792 142.380, 263.229 143.864 C 262.887 144.764, 257.117 157.650, 250.406 172.500 C 243.695 187.350, 238.401 199.824, 238.642 200.219 C 239.396 201.458, 255.003 206.058, 267 208.578 C 288.048 212.999, 305.369 214.253, 337.500 213.683 C 375.660 213.006, 381.265 212.119, 447 196.356 C 512.213 180.719, 533.851 177, 559.634 177 C 581.351 177, 591.156 179.412, 602.642 187.580 C 620.451 200.243, 631.928 222.037, 631.983 243.292 C 632.064 275.079, 610.276 306.345, 572.667 328.411 C 560.719 335.421, 543.540 344.014, 533.521 347.993 C 524.584 351.542, 508.769 355.994, 505.086 355.997 C 503.543 355.999, 496.389 351.285, 485.256 342.930 L 467.840 329.859 446.122 352.180 C 434.178 364.456, 422.528 376.560, 420.233 379.078 L 416.062 383.656 425.464 391.392 L 434.866 399.128 433.388 403.314 C 424.872 427.435, 422.837 455.250, 428.363 472 C 434.376 490.226, 442.502 498.701, 469.050 514.434 C 503.255 534.705, 516.340 544.317, 532.149 560.788 C 541.418 570.445, 551.625 584.380, 556.554 594.107 C 567.263 615.241, 573.001 641.652, 572.999 669.801 C 572.994 723.263, 555.222 769.694, 522 803.039 C 497.944 827.184, 471.550 839.061, 442.162 838.965 C 418.879 838.889, 400.510 832.867, 377.939 817.911 C 365.998 809.998, 344.084 788.222, 335.009 775.250 C 331.450 770.162, 328.146 766, 327.668 766 C 326.123 766, 273.058 795.471, 273.028 796.345 C 272.985 797.631, 284.164 814.053, 290.656 822.240 C 298.731 832.425, 317.997 852.007, 327.500 859.688 C 352.812 880.147, 380.052 893.380, 409.942 899.737 C 421.198 902.131, 424.574 902.405, 442.500 902.384 C 459.351 902.365, 464.153 902.009, 473 900.124 C 510.766 892.077, 543.877 873.110, 571.655 843.608 C 606.463 806.642, 628.465 757.739, 635.139 702.500 C 636.812 688.661, 636.840 650.442, 635.187 638.500 C 629.179 595.104, 613.918 558.772, 589.019 528.592 C 582.125 520.236, 564.101 502.400, 555.292 495.218 C 544.908 486.752, 530.532 477.097, 509.519 464.477 L 489.500 452.454 489.555 445.425 C 489.586 441.406, 490.595 434.727, 491.912 429.827 L 494.215 421.258 502.858 420.576 C 521.928 419.073, 546.222 412.286, 569 402.098 C 633.435 373.278, 673.911 333.684, 689.346 284.374 C 693.976 269.581, 695.398 259.746, 695.329 243 C 695.257 225.839, 693.383 214.917, 687.789 199.057 C 675.571 164.414, 646.116 133.780, 613.101 121.379 C 597.599 115.556, 587.049 113.884, 563.500 113.519 C 551.950 113.340, 540.925 113.378, 539 113.604 M 720.107 621.810 C 714.539 638.140, 709.987 651.776, 709.992 652.114 C 709.996 652.452, 712.138 653.526, 714.750 654.501 C 722.904 657.545, 746.088 669.653, 755.500 675.783 C 774.528 688.176, 788.221 701.100, 797.525 715.450 C 808.628 732.573, 818.627 753.733, 823.360 770.121 L 825.780 778.500 835.140 778.186 C 840.288 778.013, 852.825 777.455, 863 776.945 C 873.175 776.435, 883.246 776.014, 885.379 776.009 L 889.258 776 888.596 770.145 C 885.949 746.745, 866.267 701.922, 846.160 673.500 C 838.691 662.942, 817.954 642.261, 805.716 633.164 C 784.304 617.247, 760.324 603.945, 735.365 594.138 L 730.231 592.120 720.107 621.810 M 286.850 605.250 C 262.150 634.226, 212.640 684.931, 191 703.413 C 167.830 723.203, 144.271 740.465, 126 751.039 C 121.875 753.427, 118.333 755.499, 118.129 755.644 C 117.696 755.953, 143.799 811.107, 144.948 812.310 C 145.814 813.218, 160.363 805.099, 175.500 795.260 C 190.206 785.701, 213.436 768.031, 230.500 753.422 C 246.663 739.585, 289.638 697.204, 310.518 674.509 C 326.024 657.654, 348.193 631.859, 347.643 631.310 C 346.063 629.729, 298.371 593.004, 297.896 593.002 C 297.564 593.001, 292.594 598.513, 286.850 605.250 " stroke="none" fill="black" fill-rule="evenodd"/>
</svg>