<svg xmlns="http://www.w3.org/2000/svg" width="1000" height="1000" viewBox="0 0 1000 1000" version="1.1">
	<path d="M 350.047 98.587 C 342.783 114.310, 336.989 127.323, 337.171 127.504 C 337.916 128.249, 366.845 140.803, 386 148.694 C 434.837 168.813, 468.843 179.878, 491.163 182.913 C 507.388 185.120, 545.696 186.202, 584.500 185.549 C 605.950 185.188, 625.030 184.629, 626.899 184.307 L 630.298 183.721 629.639 165.111 C 629.276 154.875, 628.692 140.771, 628.341 133.769 L 627.703 121.038 582.601 121.657 C 532.718 122.340, 505.668 121.254, 490.564 117.959 C 471.052 113.703, 421.715 95.382, 380.517 77.095 C 371.726 73.193, 364.245 70, 363.893 70 C 363.541 70, 357.310 82.864, 350.047 98.587 M 746 208.952 C 676.817 216.700, 599.265 237.379, 525.543 267.734 C 512.869 272.952, 500.453 278.029, 497.951 279.017 L 493.403 280.812 474.951 260.864 L 456.500 240.916 449.451 248.402 C 436.881 261.752, 422.460 283.732, 413.928 302.544 L 409.664 311.945 385.582 319.926 C 306.683 346.073, 247.653 361.562, 198.500 369.016 C 175.383 372.522, 138.442 372.775, 135.117 369.451 C 134.130 368.463, 139.316 359.799, 146.330 350.717 C 150.087 345.853, 158.465 336.614, 164.948 330.187 L 176.735 318.500 156.416 294.222 L 136.097 269.944 126.752 278.400 C 115.470 288.610, 99.765 306.062, 91.254 317.850 C 66.494 352.138, 63.043 385.571, 81.916 408.299 C 87.982 415.603, 94.589 420.654, 104.500 425.563 C 127.657 437.031, 159.384 438.968, 208.500 431.912 C 249.646 426.001, 316.060 409.487, 374.779 390.567 C 384.283 387.505, 392.443 385, 392.914 385 C 393.384 385, 393.806 391.413, 393.851 399.250 C 394.039 432.247, 400.477 458.566, 412.792 476.691 C 434.193 508.188, 475.552 525.922, 528.666 526.378 C 536.457 526.445, 543.098 526.233, 543.425 525.908 C 543.751 525.582, 542.889 512.350, 541.509 496.505 C 540.129 480.659, 539 466.707, 539 465.502 C 539 463.391, 538.513 463.285, 525.750 462.630 C 490.964 460.845, 469.123 451.611, 462.634 435.946 C 460.706 431.291, 458.202 415.711, 457.419 403.500 C 456.786 393.630, 458.097 375.308, 460.108 365.934 L 461.129 361.170 475.315 355.955 C 491.492 350.008, 527.136 335.978, 556.500 324.001 C 590.841 309.994, 636.917 295.204, 673 286.606 C 739.186 270.836, 792.769 266.479, 827.464 274.047 C 852.666 279.544, 869.403 294.282, 875.107 316 C 876.812 322.492, 876.522 337.381, 874.543 345 C 870.062 362.247, 858.895 377.089, 845.580 383.494 C 836.698 387.766, 822.929 391.495, 808 393.672 C 784.741 397.064, 742.156 395.441, 709.628 389.924 C 703.098 388.817, 697.552 388.114, 697.303 388.363 C 697.055 388.612, 693.876 402.391, 690.240 418.984 C 685.093 442.472, 683.911 449.327, 684.902 449.939 C 686.465 450.905, 707.798 454.426, 726 456.721 C 745.825 459.222, 803.028 459.223, 818.500 456.723 C 866.004 449.047, 893.715 434.383, 915.254 405.524 C 926.235 390.810, 935.168 369.538, 938.568 350 C 940.979 336.148, 940.118 312.959, 936.709 299.926 C 928.662 269.163, 911.784 246.414, 883.985 228.861 C 868.915 219.346, 852.118 213.328, 829.503 209.341 C 815.150 206.811, 767.115 206.587, 746 208.952 M 378.468 581.750 C 378.057 582.712, 377.505 590.073, 377.241 598.106 C 376.491 620.922, 380.455 635.963, 390.973 650.206 C 402.324 665.577, 426.674 679.243, 459.269 688.537 C 465.886 690.423, 471.452 692.119, 471.639 692.305 C 471.825 692.492, 470.070 693.697, 467.739 694.983 C 458.590 700.030, 434.991 716.049, 425.500 723.654 C 412.455 734.107, 397.792 748.811, 389.505 759.750 C 381.877 769.819, 372.040 789.080, 368.949 800 C 366.248 809.539, 365.217 829.320, 366.955 838.229 C 373.854 873.589, 403.648 897.257, 454.085 907.442 C 490.931 914.883, 545.393 915.964, 606 910.457 C 638.471 907.506, 706.136 898.198, 707.894 896.439 C 708.325 896.008, 697.237 834.904, 696.615 834.282 C 696.493 834.160, 689.892 835.156, 681.946 836.497 C 630.400 845.191, 576.757 850.015, 532.017 849.979 C 482.961 849.940, 450.898 844.463, 434.841 833.380 C 429.761 829.873, 428.519 826.468, 429.928 819.902 C 433.862 801.556, 451.313 782.012, 482.503 761.019 C 510.548 742.143, 549.230 723.468, 587.438 710.357 L 604.029 704.664 603.389 688.082 C 603.037 678.962, 602.468 665.200, 602.124 657.500 L 601.500 643.500 586 642.812 C 525.535 640.130, 476.890 630.840, 449.760 616.795 C 442.620 613.098, 441.933 612.466, 440.903 608.644 C 440.288 606.365, 440.063 602.138, 440.402 599.250 C 440.740 596.362, 440.875 594, 440.702 594 C 440.528 594, 426.776 590.850, 410.142 587 C 393.508 583.150, 379.744 580, 379.556 580 C 379.368 580, 378.878 580.788, 378.468 581.750 " stroke="none" fill="black" fill-rule="evenodd"/>
</svg>