<svg xmlns="http://www.w3.org/2000/svg" width="1000" height="1000" viewBox="0 0 1000 1000" version="1.1">
	<path d="M 580.125 63.911 C 571.924 84.719, 560.844 101.748, 549.511 110.962 C 531.851 125.320, 499.452 144.308, 463.001 161.662 C 453.377 166.244, 445.379 170.364, 445.228 170.816 C 444.703 172.392, 469.774 227.502, 471.132 227.757 C 472.894 228.087, 516.293 206.688, 534.500 196.511 C 590.769 165.059, 610.987 146.022, 631.288 105.378 C 637.334 93.274, 645.633 72.299, 644.732 71.399 C 644.412 71.079, 631.629 67.105, 616.325 62.567 C 601.021 58.030, 587.583 54.021, 586.463 53.659 C 584.645 53.071, 583.961 54.178, 580.125 63.911 M 235.298 87.250 C 236.712 111.418, 246.152 133.661, 262.822 152.099 C 274.575 165.098, 293.635 176.372, 316.585 183.899 C 327.702 187.546, 352.919 193.414, 353.778 192.555 C 354.474 191.859, 362.123 131.762, 361.667 130.574 C 361.421 129.934, 358.133 128.813, 354.360 128.083 C 337.221 124.767, 318.431 117.094, 310.995 110.377 C 306.595 106.401, 300.304 94.752, 299.356 88.824 C 298.902 85.986, 298.182 84.851, 296.620 84.510 C 294.438 84.033, 237.212 76.986, 235.599 76.995 C 235.085 76.998, 234.956 81.394, 235.298 87.250 M 592.500 211.149 C 584.511 213.044, 528.816 222.142, 498.530 226.501 C 440.169 234.900, 389.896 240.128, 348.500 242.102 C 296.540 244.579, 209.669 240.654, 149.500 233.109 C 145.650 232.626, 142.226 232.516, 141.891 232.865 C 141.337 233.442, 133.737 288.818, 133.571 293.490 C 133.490 295.771, 136.351 296.210, 175.538 299.924 C 245.876 306.590, 311.169 308.285, 368 304.920 C 386.611 303.818, 436.707 299.227, 439 298.414 C 442.907 297.028, 435.414 301.456, 394 325.010 C 369.525 338.930, 334.875 358.871, 317 369.322 C 274.767 394.016, 250.925 406.809, 192.500 436.126 C 160.669 452.098, 144.597 460.673, 144.789 461.583 C 145.171 463.401, 164.795 517.859, 165.449 518.917 C 165.728 519.370, 175.529 517.371, 187.229 514.477 C 198.928 511.582, 224.250 505.366, 243.500 500.663 C 262.750 495.961, 324.625 480.814, 381 467.005 C 437.375 453.196, 494.174 439.294, 507.220 436.113 L 530.941 430.329 533.647 433.154 C 535.136 434.708, 536.162 436.156, 535.927 436.372 C 535.692 436.589, 523.800 441.943, 509.500 448.270 C 427.932 484.362, 394.486 501.047, 366.477 519.622 C 337.670 538.725, 321.674 556.513, 314.338 577.601 C 310.626 588.270, 310.438 602.510, 313.892 611.285 C 318.478 622.932, 330.476 632.552, 347 637.828 C 366.241 643.972, 405.118 647.995, 445.281 647.998 C 460.651 648, 464.163 648.260, 464.612 649.431 C 465.300 651.224, 463.185 869.891, 462.469 871.051 C 462.180 871.517, 456.852 868.578, 450.628 864.520 C 433.944 853.641, 413.025 841.864, 393.645 832.438 C 373.750 822.762, 346.846 811.775, 345.735 812.874 C 344.862 813.737, 326 869.861, 326 871.594 C 326 872.218, 328.138 873.524, 330.750 874.496 C 349.211 881.368, 379.728 896.125, 399 907.501 C 421.181 920.594, 440.256 934.410, 459.235 951.128 C 464.881 956.100, 470.049 960.399, 470.719 960.680 C 471.390 960.961, 479.940 958.042, 489.719 954.194 C 499.499 950.346, 511.100 945.903, 515.500 944.321 L 523.500 941.444 524.178 931.972 C 525.883 908.152, 527.203 839.350, 527.712 747.833 L 528.266 648.167 537.383 647.611 C 542.397 647.306, 553.700 646.804, 562.500 646.495 C 583.601 645.756, 634.206 643.031, 635.584 642.560 C 636.787 642.149, 633.379 612.896, 630.392 598 C 624.667 569.448, 612.325 543.887, 597.077 529 C 589.102 521.214, 580.325 515.892, 569.500 512.278 C 562.285 509.869, 560.077 509.609, 547 509.624 C 536.268 509.637, 531.213 510.069, 527.547 511.284 C 524.822 512.188, 522.487 512.821, 522.358 512.691 C 522.109 512.442, 579.388 486.809, 584.520 484.874 C 587.427 483.778, 588.027 484.100, 600.460 493.451 C 646.881 528.361, 702.388 555.984, 789.127 587.342 C 819.091 598.174, 869.903 614.430, 870.848 613.486 C 871.069 613.265, 876.101 599.919, 882.030 583.828 L 892.810 554.572 885.627 550.478 C 864.390 538.374, 846.140 523.749, 834.492 509.500 C 830.763 504.938, 813.794 479.467, 793.520 448 C 785.902 436.175, 779.575 426.369, 779.460 426.209 C 779.200 425.846, 728.987 457.811, 727.171 459.496 C 725.932 460.646, 732.668 471.877, 753.403 503.237 L 755.213 505.975 748.357 503.095 C 716.629 489.768, 683.393 472.744, 661.638 458.674 L 651.776 452.296 666.138 444.468 C 695.612 428.404, 723.663 410.376, 742.500 395.392 C 756.116 384.562, 775.501 365.738, 786.672 352.500 C 802.044 334.283, 817.751 308.728, 823.076 293.272 L 824.877 288.044 821.189 287.050 C 819.160 286.504, 805.382 282.736, 790.572 278.677 L 763.644 271.298 759.572 279.411 C 751.577 295.341, 738.335 312.538, 721.351 329.048 C 697.678 352.059, 667.242 372.205, 615.722 398.964 C 600.284 406.982, 597.727 408.020, 596.301 406.849 C 591.899 403.234, 570.583 379.084, 563.500 369.688 C 559.100 363.852, 555.137 359.059, 554.692 359.038 C 553.973 359.004, 414.335 393.047, 401.250 396.446 C 398.363 397.196, 396 397.657, 396 397.469 C 396 396.931, 465.842 357.308, 563 302.726 C 596.275 284.033, 623.593 268.666, 623.707 268.579 C 623.821 268.491, 619.109 255.275, 613.235 239.210 L 602.556 210 599.528 210.100 C 597.863 210.156, 594.700 210.628, 592.500 211.149 M 489.500 527.068 C 459.718 540.600, 432.118 554.365, 416.790 563.332 C 403.172 571.298, 391 579.593, 391 580.907 C 391 582.179, 436.702 584.837, 460.731 584.962 C 467.816 584.999, 467.974 584.944, 468.575 582.250 C 474.647 555.039, 489.997 530.705, 507.596 520.391 C 510.018 518.971, 512 517.628, 512 517.405 C 512 516.815, 513.244 516.280, 489.500 527.068 M 541.305 574.499 C 539.293 575.908, 535 581.959, 535 583.386 C 535 584.003, 557.099 583.064, 557.864 582.415 C 558.576 581.809, 553.790 574.958, 551.976 573.987 C 549.245 572.526, 543.746 572.789, 541.305 574.499 M 634 654.420 C 634 654.651, 631.289 668.038, 627.976 684.170 C 624.662 700.301, 621.850 714.104, 621.726 714.842 C 621.567 715.788, 626.607 717.480, 638.826 720.582 C 719.506 741.061, 758.403 761.457, 804.862 807.649 L 820.223 822.922 844.112 802.782 C 857.250 791.704, 868 782.209, 868 781.681 C 868 779.952, 831.756 744.594, 821 735.830 C 800.555 719.170, 780.641 705.887, 762.146 696.574 C 734.735 682.770, 688.239 666.691, 647.804 657.032 C 634.415 653.834, 634 653.756, 634 654.420 M 321.493 677.675 C 304.430 698.387, 279.791 721.358, 261.798 733.330 C 236.404 750.227, 184.038 770.526, 131 784.032 C 113.227 788.558, 112.511 788.836, 112.773 791.121 C 113.264 795.389, 124.047 850.380, 124.478 850.811 C 125.236 851.569, 169.170 840.175, 185 835.115 C 226.877 821.729, 264.236 806.221, 287.247 792.672 C 306.930 781.082, 333.034 759.381, 352.764 738.206 C 365.198 724.861, 380 707.414, 380 706.102 C 380 705.201, 333.152 669.379, 330.787 668.472 C 330.019 668.177, 326.215 671.945, 321.493 677.675 " stroke="none" fill="black" fill-rule="evenodd"/>
</svg>