<svg xmlns="http://www.w3.org/2000/svg" width="1000" height="1000" viewBox="0 0 1000 1000" version="1.1">
	<path d="M 261.198 109.382 C 246.732 117.810, 234.500 125.108, 234.017 125.602 C 233.507 126.123, 236.100 130.907, 240.195 137 C 259.875 166.283, 282.086 188.682, 303.711 201.055 C 313.982 206.932, 335.193 215.308, 350.158 219.397 C 363.772 223.117, 383.525 226.808, 384.516 225.817 C 385.007 225.327, 390.959 163.949, 390.577 163.316 C 390.516 163.215, 385.767 162.175, 380.025 161.005 C 356.190 156.148, 335.687 147.497, 323.338 137.088 C 314.826 129.913, 302.018 114.872, 294.160 102.821 C 291.047 98.047, 288.275 94.123, 288 94.101 C 287.725 94.079, 275.664 100.955, 261.198 109.382 M 738 113.158 C 738 113.367, 736.641 121.597, 734.981 131.448 C 723.788 197.851, 702.416 263.745, 675.154 315.910 L 670.236 325.321 649.368 330.572 C 598.169 343.457, 553.917 359.522, 510.500 380.986 C 454.124 408.858, 410.247 439.619, 355.284 489.804 C 344.708 499.461, 344 499.931, 344.002 497.304 C 344.008 489.407, 355.788 399.487, 362.094 359.201 L 365.114 339.902 358.920 328.201 C 355.514 321.766, 350.539 312.412, 347.866 307.415 L 343.006 298.330 328.253 304.202 C 300.096 315.407, 279.365 322.208, 254 328.561 C 240.798 331.868, 237.882 332.241, 221.432 332.725 C 199.612 333.367, 164.216 330.403, 140.897 325.980 C 138.025 325.436, 135.478 325.189, 135.236 325.431 C 134.738 325.929, 122.937 387.280, 123.279 387.593 C 123.849 388.113, 151.408 392.133, 168 394.115 C 182.587 395.858, 192.212 396.340, 213.500 396.393 C 243.963 396.468, 247.856 395.983, 276.663 388.529 C 285.923 386.133, 293.579 384.251, 293.676 384.346 C 293.773 384.441, 292.563 393.768, 290.988 405.072 C 284.223 453.629, 277.979 510.402, 275.190 548.727 L 273.500 571.954 264.500 582.120 L 255.500 592.285 254.900 574.393 C 254.479 561.828, 253.654 553.448, 252.131 546.251 C 246.796 521.037, 236.149 497.631, 220.187 476.026 C 214.560 468.409, 205.250 458, 204.064 458 C 203.270 458, 161 502.647, 161 503.486 C 161 503.817, 163.182 506.709, 165.849 509.914 C 175.715 521.770, 184.627 539.296, 188.669 554.794 C 190.728 562.689, 191.210 566.926, 191.251 577.500 C 191.309 592.714, 189.911 599.477, 181.947 622.500 C 166.255 667.865, 144.948 713.510, 118.456 758.516 C 111.471 770.382, 105.924 780.236, 106.128 780.414 C 107.056 781.222, 170.047 803.282, 170.378 802.914 C 170.583 802.686, 176.493 794.400, 183.511 784.500 C 204.131 755.412, 228.248 724.033, 257.938 687.662 L 272.500 669.824 273.118 693.162 C 273.458 705.998, 274.049 730.387, 274.433 747.359 L 275.130 778.219 265.080 765.859 C 259.552 759.062, 253.269 751.487, 251.118 749.026 L 247.207 744.552 224.603 766.389 C 212.172 778.400, 202 788.526, 202 788.892 C 202 789.258, 205.422 793.595, 209.605 798.529 C 232.557 825.607, 254.237 858.588, 270.882 891.750 C 273.159 896.287, 275.278 900, 275.590 900 C 278.110 900, 341.629 888.706, 342.062 888.181 C 342.371 887.806, 342.075 872.200, 341.404 853.500 C 337.995 758.523, 335.453 626.263, 336.665 607 L 337.326 596.500 363.424 570.500 C 431.654 502.527, 477.928 467.866, 542.399 436.441 C 568.546 423.696, 616.105 404.772, 617.779 406.446 C 618.343 407.010, 602.432 429.301, 583.122 455 C 559.006 487.095, 528.673 524.771, 500.658 557.426 C 496.446 562.336, 493 566.637, 493 566.984 C 493 567.332, 503.619 576.279, 516.597 586.868 L 540.194 606.120 557.347 593.186 C 594.815 564.934, 633.118 540.923, 671 521.939 C 738.453 488.136, 786.477 481.283, 802.615 503.156 C 805.230 506.700, 804.891 507.960, 799.697 514 C 788.330 527.220, 769.186 540.277, 718 569.723 C 667.325 598.876, 657.510 605.442, 642.896 619.963 C 633.717 629.083, 631.714 631.693, 628 639.374 C 624.116 647.405, 623.662 649.138, 623.219 657.605 C 622.468 671.968, 626.416 682.901, 635.801 692.448 C 645.309 702.120, 655.602 707.446, 677.500 714.024 C 685.200 716.337, 691.644 718.359, 691.819 718.517 C 691.995 718.676, 691.545 719.760, 690.819 720.927 C 688.577 724.532, 678.366 732.209, 656.500 746.728 C 644.950 754.397, 631.956 763.528, 627.623 767.019 C 612.493 779.211, 601.357 795.276, 597.510 810.460 C 592.938 828.506, 598.270 850.557, 610.741 865.178 C 633.192 891.499, 677.301 903.912, 757.500 906.479 C 777.588 907.122, 831.955 905.420, 833.284 904.107 C 833.895 903.503, 829.373 842.040, 828.666 841.333 C 828.572 841.239, 815.984 841.665, 800.693 842.279 C 759.897 843.919, 718.207 841.666, 692 836.405 C 678.245 833.644, 662.243 827.820, 660.453 824.923 C 659.174 822.854, 669.765 814.414, 693.450 798.628 C 706.436 789.973, 720.985 779.589, 725.781 775.553 C 747.153 757.566, 758 737.196, 758 715.050 C 758 687.041, 741.353 667.603, 708.229 656.935 C 702.639 655.134, 701.264 654.336, 702.237 653.459 C 704.652 651.281, 721.680 641.091, 751.500 623.976 C 801.586 595.230, 823.438 580.338, 840.719 563.171 C 859.865 544.152, 868.401 526.311, 868.312 505.500 C 868.262 493.698, 865.364 483.630, 858.940 472.937 C 844.553 448.992, 821.282 433.527, 791.967 428.428 C 779.371 426.238, 754.108 426.924, 738.379 429.885 C 719.263 433.483, 689.726 443.037, 668.750 452.406 C 665.587 453.819, 663 454.708, 663 454.383 C 663 454.058, 666.533 448.776, 670.850 442.646 C 679.246 430.726, 697.250 403.696, 705.653 390.396 L 710.773 382.292 727.636 379.630 C 773.757 372.351, 828.886 368.859, 866.500 370.835 C 876.400 371.355, 884.671 371.622, 884.880 371.427 C 885.088 371.233, 886.690 357.081, 888.439 339.979 C 890.631 318.546, 891.290 308.676, 890.560 308.217 C 889.977 307.851, 872.931 307.375, 852.680 307.159 C 815.758 306.765, 794.806 307.586, 765.200 310.584 C 756.784 311.436, 749.502 311.991, 749.017 311.817 C 748.533 311.642, 750.161 306.775, 752.637 301 C 766.946 267.621, 781.902 219.222, 791.471 175.327 C 794.813 159.996, 801 125.348, 801 121.964 C 801 120.645, 796.409 119.860, 772.750 117.134 C 757.212 115.344, 743.038 113.632, 741.250 113.329 C 739.462 113.025, 738 112.949, 738 113.158 M 483.874 145.750 C 466.189 186.620, 461.924 219.571, 470.929 245.761 C 479.330 270.194, 500.351 290.385, 530.424 302.904 C 537.211 305.729, 558.754 311.597, 559.498 310.822 C 559.730 310.581, 565.765 263.208, 567.291 249.646 C 567.460 248.149, 566.055 247.372, 560 245.609 C 546.288 241.618, 535.860 234.474, 531.947 226.390 C 529.998 222.364, 529.793 220.764, 530.314 213.643 C 531.033 203.810, 533.591 193.552, 538.473 180.928 C 540.478 175.742, 542.204 170.928, 542.309 170.230 C 542.488 169.037, 489.456 141, 487.020 141 C 486.420 141, 485.004 143.137, 483.874 145.750 " stroke="none" fill="black" fill-rule="evenodd"/>
</svg>