<svg xmlns="http://www.w3.org/2000/svg" width="1000" height="1000" viewBox="0 0 1000 1000" version="1.1">
	<path d="M 427.250 104.432 C 417.762 118.394, 410 130.103, 410 130.451 C 410 130.800, 411.780 133.443, 413.955 136.325 C 422.492 147.631, 426.058 159.297, 426.089 176.023 C 426.130 197.574, 420.309 217.454, 405.014 248 C 383.184 291.599, 347.728 346.166, 307.873 397.500 C 299.760 407.950, 293.072 416.866, 293.010 417.312 C 292.802 418.834, 342.136 458.034, 343.336 457.300 C 343.976 456.908, 353.500 450.688, 364.500 443.477 C 432.798 398.710, 505.835 356.409, 544.609 339.165 C 561.824 331.509, 561.009 331.019, 554.071 344.858 C 529.682 393.511, 476.314 474.203, 409.467 563.500 C 369.088 617.439, 341.790 651.363, 319.361 675.477 C 303.477 692.553, 252.867 744.217, 252.461 743.769 C 252.328 743.621, 253.288 734.982, 254.596 724.570 C 255.904 714.159, 256.757 705.423, 256.492 705.158 C 255.878 704.544, 194.712 698.148, 193.881 698.611 C 193.541 698.800, 192.954 702.228, 192.576 706.228 C 191.418 718.480, 186.223 753.842, 180.573 787.919 L 175.199 820.337 194.660 843.419 C 205.364 856.113, 214.535 866.500, 215.041 866.500 C 218.123 866.500, 320.789 766.692, 358.113 727.411 L 371.500 713.321 385.500 708.759 C 414.472 699.316, 437.302 695.695, 468 695.671 C 517.644 695.632, 552.491 705.499, 616 737.575 C 685.441 772.647, 753.177 822.103, 810.041 879.249 L 826.500 895.791 849.966 875.499 C 862.872 864.338, 873.578 854.767, 873.757 854.230 C 874.270 852.691, 837.169 816.016, 818.460 799.569 C 760.492 748.609, 700.894 708.236, 637.500 676.981 C 587.393 652.277, 554.863 641.141, 514.013 634.707 C 502.383 632.876, 496.103 632.573, 468.952 632.539 L 437.405 632.500 459.458 603 C 555.865 474.037, 613.809 380.643, 628.523 330.500 C 631.770 319.433, 632.880 303.864, 630.989 295.901 C 626.597 277.404, 612.742 264.629, 593.913 261.715 C 580.388 259.621, 561.534 263.562, 535 274.028 C 518.954 280.357, 477.272 301.035, 453.575 314.422 C 444.266 319.680, 436.528 323.862, 436.380 323.713 C 436.232 323.565, 438.565 319.265, 441.566 314.158 C 462.358 278.771, 477.588 245.243, 484.073 220.582 C 491.106 193.835, 491.905 165.050, 486.224 143 C 481.303 123.897, 474.365 109.787, 462.858 95.484 C 457.451 88.762, 446.912 78.961, 445.158 79.023 C 444.796 79.036, 436.738 90.470, 427.250 104.432 " stroke="none" fill="black" fill-rule="evenodd"/>
</svg>