<svg xmlns="http://www.w3.org/2000/svg" width="1000" height="1000" viewBox="0 0 1000 1000" version="1.1">
	<path d="M 413.292 81.896 C 398.327 88.324, 385.790 93.876, 385.432 94.235 C 384.353 95.313, 397.548 119.635, 406.462 133 C 429.157 167.026, 455.413 190.488, 484.075 202.352 C 502.871 210.133, 543.519 218.223, 582.500 221.941 C 595.880 223.218, 623.696 225, 630.233 225 L 635 225 635 193 L 635 161 628.250 160.990 C 600.628 160.950, 550.654 154.747, 523.504 147.989 C 502.587 142.783, 489.006 134.199, 473.677 116.499 C 465.776 107.376, 453.394 89.026, 447.500 77.704 C 445.100 73.094, 442.900 70.059, 442 70.116 C 441.175 70.167, 428.256 75.469, 413.292 81.896 M 472.500 319.606 C 446.260 324.286, 418.886 334.155, 389.157 349.652 C 380.169 354.338, 370.368 359.013, 367.378 360.042 C 353.622 364.775, 336.412 364.538, 321.120 359.404 C 317.061 358.042, 313.616 357.056, 313.464 357.213 C 311.840 358.899, 284.067 411.731, 284.378 412.543 C 285.023 414.224, 298.840 419.705, 309.255 422.411 C 322.223 425.781, 332.105 427, 346.441 427 C 368.002 427, 387.572 422.216, 406.937 412.212 C 438.321 395.999, 452.613 389.913, 469.771 385.455 C 481.770 382.337, 482.423 382.325, 480.893 385.250 C 480.246 386.488, 472.539 398.439, 463.766 411.810 C 439.528 448.752, 434.827 458.922, 434.873 474.315 C 434.933 494.551, 445.970 509.364, 466.429 516.668 C 473.370 519.147, 478.924 519.951, 496.038 520.958 C 512.112 521.903, 522.510 523.398, 523.436 524.897 C 523.686 525.302, 520.076 528.078, 515.414 531.066 C 399.908 605.110, 297.985 672.639, 269.500 693.996 C 247.853 710.225, 210.435 743.240, 142.552 806 C 124.409 822.775, 107.169 838.698, 104.243 841.385 C 101.318 844.072, 99.053 846.611, 99.212 847.026 C 99.370 847.442, 109.100 857.967, 120.833 870.416 L 142.165 893.050 147.383 888.275 C 150.252 885.649, 164.277 872.683, 178.550 859.462 C 241.772 800.900, 240.745 801.770, 252.225 796.994 C 272.675 788.486, 295.212 781.826, 315 778.442 C 329.631 775.940, 360.030 775.398, 373.622 777.396 C 410.808 782.864, 439.728 797.752, 468.028 825.996 C 480.936 838.879, 487.275 847.360, 498.396 866.628 L 504.242 876.756 530.371 863.915 L 556.500 851.075 557.162 836.788 C 559.452 787.369, 588.237 749.467, 634 735.615 C 656.423 728.827, 684.821 726.783, 701.117 730.784 C 711.180 733.254, 724.478 738.815, 734.820 744.879 C 765.294 762.744, 801.163 800.193, 831.674 846 C 840.238 858.858, 853.572 881.215, 858.430 890.862 L 862.032 898.013 865.266 896.608 C 869.980 894.560, 918.414 870.863, 918.979 870.329 C 919.957 869.404, 904.956 842.522, 892.011 822 C 871.179 788.977, 849.294 761.206, 824.553 736.399 C 798.565 710.343, 780.046 696.260, 755.170 683.638 C 730.612 671.176, 712.119 666.172, 687.398 665.298 C 634.169 663.416, 583.550 680.591, 548.342 712.479 C 533.562 725.865, 519.347 745.227, 510.889 763.490 C 508.475 768.703, 506.275 772.962, 506 772.955 C 505.725 772.948, 501.450 769.540, 496.500 765.381 C 459.958 734.676, 417.933 717.320, 369.055 712.746 L 355.611 711.487 393.555 686.378 C 438.045 656.938, 472.541 634.419, 512 609.059 C 556.767 580.288, 562.370 576.448, 568.716 570.201 C 582.858 556.276, 590 540.376, 590 522.816 C 590 504.987, 582.737 489.951, 568.299 477.893 C 555.601 467.287, 540.294 461.602, 515.298 458.207 L 510.097 457.500 521.298 440.415 C 541.818 409.118, 549.590 393.668, 552.645 378.103 C 558.010 350.763, 542.479 327.156, 514.404 319.975 C 505.037 317.580, 484.859 317.402, 472.500 319.606 " stroke="none" fill="black" fill-rule="evenodd"/>
</svg>