<svg xmlns="http://www.w3.org/2000/svg" width="1000" height="1000" viewBox="0 0 1000 1000" version="1.1">
	<path d="M 687.113 109.128 C 672.414 111.569, 651.666 120.967, 635.500 132.507 C 585.201 168.411, 526.858 242.628, 495.970 310 C 471.140 364.161, 444.826 446.602, 418.733 551.982 L 416.385 561.463 415.157 539.837 C 411.849 481.574, 405.266 454.918, 389.938 437.720 C 370.228 415.605, 340.289 413.837, 311.822 433.107 C 303.511 438.733, 285.688 456.138, 276.292 467.803 C 254.445 494.928, 229.865 535.102, 204.796 584.660 C 198.033 598.029, 192.200 608.975, 191.833 608.984 C 190.978 609.005, 183.697 586.958, 181.104 576.500 C 176.854 559.359, 175.811 550.641, 175.278 527.812 C 174.431 491.565, 178.476 458, 189.115 413 C 195.676 385.245, 209.590 340.441, 218.593 318.075 C 220.458 313.442, 221.854 309.520, 221.694 309.361 C 220.238 307.905, 163.580 285.034, 162.993 285.665 C 161.883 286.857, 151.623 314.822, 145.810 332.500 C 129.037 383.503, 118.097 432.588, 112.821 480.500 C 110.807 498.793, 111.106 546.394, 113.330 561.500 C 119.492 603.356, 133.976 644.028, 153.031 672.986 C 156.884 678.841, 163.750 687.030, 170.967 694.378 L 182.661 706.284 208.123 689.505 L 233.585 672.725 238.961 660.612 C 252.269 630.632, 277.979 580.893, 293.170 555.741 C 301.565 541.840, 314.017 523.190, 321.373 513.500 C 328.308 504.364, 343.899 487.819, 344.957 488.473 C 345.734 488.953, 347.404 498.097, 348.980 510.500 C 349.539 514.900, 350.906 533.800, 352.017 552.500 C 354.388 592.409, 356.160 609.259, 359.641 625 C 362.684 638.758, 370.111 661.701, 375.988 675.500 C 380.773 686.732, 396.739 719, 397.513 719 C 398.032 719, 452.232 692.024, 452.845 691.460 C 453.035 691.285, 455.358 680.648, 458.007 667.821 C 477.527 573.288, 502.197 479.121, 525.619 409.740 C 550.359 336.453, 572.212 294.549, 611.299 245.444 C 639.604 209.885, 669.755 182.648, 689.853 174.482 C 698.807 170.843, 700.717 171.101, 702.981 176.250 C 708.214 188.156, 710.679 219.673, 709.048 253.833 C 706.923 298.330, 702.332 338.110, 689.985 419 C 679.043 490.685, 677.931 503.045, 677.272 560.352 C 676.994 584.471, 677.086 611.021, 677.476 619.352 L 678.184 634.500 698.342 633.888 C 748.255 632.372, 788.706 638.057, 811.277 649.762 C 820.203 654.391, 823.381 658.124, 822.702 663.184 C 820.189 681.924, 787.870 708.692, 734.799 735.992 C 676.038 766.218, 586.123 799.476, 490 826.540 C 480.925 829.095, 473.382 831.300, 473.237 831.439 C 473.092 831.579, 476.520 845.374, 480.854 862.096 C 488.540 891.757, 488.791 892.492, 491.117 892.160 C 495.562 891.527, 545.365 876.954, 572.500 868.347 C 709.469 824.903, 806.986 777.796, 851.563 733.543 C 882.147 703.181, 892.932 670.755, 883.041 638.903 C 876.428 617.606, 855.846 598.420, 827.425 587.059 C 808.256 579.397, 777.781 573.031, 752.324 571.372 C 746.727 571.007, 741.598 570.370, 740.927 569.955 C 739.969 569.363, 739.962 563.343, 740.896 541.851 C 742.757 499.017, 743.966 488.183, 754.932 416 C 763.703 358.271, 768.681 317.328, 771.467 280 C 773.215 256.573, 773.487 213.163, 771.981 197.856 C 769.802 175.697, 764.714 155.747, 758.056 143.257 C 744.279 117.408, 716.815 104.196, 687.113 109.128 " stroke="none" fill="black" fill-rule="evenodd"/>
</svg>