<svg xmlns="http://www.w3.org/2000/svg" width="1000" height="1000" viewBox="0 0 1000 1000" version="1.1">
	<path d="M 569 78.505 C 569 79.332, 567.425 93.055, 565.500 109 C 563.575 124.945, 562 138.668, 562 139.495 C 562 140.384, 562.921 141.007, 564.250 141.017 C 569.930 141.060, 592 148.217, 592 150.016 C 592 153.246, 568.909 169.715, 545.500 183.180 C 485.895 217.466, 370.596 271.038, 252 319.551 C 237.425 325.513, 225.402 330.438, 225.282 330.497 C 225.162 330.555, 229.437 344.860, 234.782 362.286 C 242.276 386.718, 244.870 393.973, 246.115 393.985 C 249.468 394.016, 375.413 367.105, 428.500 355.013 C 445 351.255, 459.850 347.898, 461.500 347.554 C 465.110 346.800, 468.139 344.627, 435.632 366.103 C 421.809 375.235, 405.100 386.647, 398.500 391.464 C 365.920 415.240, 337.738 440.744, 325.105 457.888 C 303.429 487.302, 302.437 515.376, 322.319 536.705 C 343.293 559.205, 378.719 568.891, 445.966 570.510 L 467.432 571.027 467.114 578.764 C 466.939 583.019, 466.504 591.388, 466.148 597.362 L 465.500 608.224 450.500 613.503 C 364.658 643.712, 270.567 695.210, 205.079 747.826 L 194.658 756.198 192.809 753.849 C 188.946 748.939, 181.888 733.198, 180.324 726 C 178.164 716.063, 178.207 686.361, 180.406 668.061 C 181.295 660.669, 181.679 654.322, 181.261 653.956 C 180.591 653.370, 134.241 645.620, 123.382 644.279 L 119.264 643.770 118.136 651.635 C 114.945 673.894, 113.976 710.053, 116.103 727.500 C 120.321 762.095, 137.782 793.341, 173.029 829.367 L 188.558 845.238 204.529 831.677 C 213.313 824.219, 225 814.211, 230.500 809.439 C 243.637 798.041, 270.760 777.716, 289.500 765.228 C 337.511 733.235, 391.122 705.135, 445.500 683.461 L 463.500 676.286 464.105 754.893 C 464.754 839.156, 465.882 894.192, 466.999 895.998 C 467.508 896.821, 475.818 896.821, 498.572 895.997 C 515.557 895.383, 529.630 894.703, 529.846 894.487 C 530.062 894.272, 529.732 873.936, 529.113 849.298 C 528.494 824.659, 527.990 771.140, 527.994 730.367 L 528 656.233 530.250 655.723 C 600.820 639.710, 654.635 637.876, 707.971 649.664 C 742.636 657.326, 783.733 676.350, 801.186 692.814 C 819.690 710.270, 820.470 731.039, 803.575 756.430 C 788.962 778.393, 760.292 800.703, 720.250 821.272 C 710.763 826.145, 703 830.262, 703 830.420 C 703 830.578, 708.002 841.686, 714.116 855.104 C 720.229 868.522, 726.061 881.406, 727.074 883.736 L 728.917 887.973 738.709 883.446 C 762.928 872.250, 793.868 853.244, 813.505 837.500 C 873.164 789.669, 894.029 729.866, 868.978 678.500 C 856.637 653.197, 835.525 634.317, 798.108 615.126 C 727.623 578.974, 642.827 569.266, 549.500 586.664 C 541.800 588.100, 534.343 589.477, 532.930 589.724 C 530.364 590.173, 530.360 590.163, 530.708 583.837 C 530.899 580.352, 531.297 575.166, 531.592 572.314 L 532.128 567.128 537.314 566.569 C 540.166 566.262, 549.250 565.286, 557.500 564.399 C 578.338 562.161, 610.802 557.531, 611.658 556.676 C 612.048 556.285, 610.867 546.186, 609.034 534.233 C 606.022 514.601, 605.339 511.775, 601.959 505 C 585.247 471.491, 552.370 452.400, 519.231 456.962 C 498.620 459.800, 485.913 471.078, 478.995 492.675 C 477.348 497.817, 476 502.870, 476 503.905 C 476 504.940, 475.288 506.059, 474.418 506.393 C 471.927 507.349, 444.121 507.094, 426.077 505.949 C 401.558 504.393, 376 499.553, 376 496.464 C 376 494.362, 391.983 478.151, 403.910 468.157 C 423.099 452.078, 440.785 439.077, 469 420.309 C 525.179 382.941, 606.362 336.494, 692.212 292.604 L 722.925 276.903 718.617 270.201 C 709.631 256.222, 686.775 221.467, 686.083 220.730 C 685.686 220.307, 651.652 229.392, 610.453 240.920 C 569.254 252.448, 535.450 261.784, 535.333 261.667 C 535.216 261.550, 541.049 258.314, 548.296 254.477 C 579.272 238.074, 605.587 221.907, 621.551 209.473 C 649.102 188.014, 662.014 161.141, 656.558 136.616 C 650.086 107.526, 624.208 88.009, 580.223 79.045 C 568.243 76.604, 569 76.641, 569 78.505 M 260.387 116.679 C 254.258 130.128, 251.842 140.042, 251.263 154.125 C 250.625 169.625, 252.315 178.382, 258.241 190.287 C 268.082 210.055, 289.362 224.124, 323.626 233.515 C 335.251 236.701, 364.819 242.564, 365.484 241.814 C 366.120 241.097, 372.871 179.601, 372.398 178.835 C 372.114 178.376, 370.791 178, 369.457 178 C 365.640 178, 343.430 173.103, 334.552 170.304 C 324.095 167.007, 315.307 162.543, 314.544 160.140 C 313.850 157.951, 315.354 150.481, 317.548 145.232 C 318.372 143.260, 318.698 141.340, 318.273 140.966 C 316.879 139.740, 265.204 109, 264.537 109 C 264.179 109, 262.312 112.455, 260.387 116.679 " stroke="none" fill="black" fill-rule="evenodd"/>
</svg>