<svg xmlns="http://www.w3.org/2000/svg" width="1000" height="1000" viewBox="0 0 1000 1000" version="1.1">
	<path d="M 468.661 93.750 C 468.301 104.063, 467.997 123.750, 467.985 137.500 C 467.945 187.257, 465.297 257.667, 462.439 285 C 458.307 324.505, 445.324 386.720, 429.605 442.338 L 425.129 458.176 440.231 484.838 C 448.537 499.502, 455.410 511.614, 455.504 511.754 C 455.598 511.894, 463.061 508.458, 472.087 504.119 C 498.712 491.320, 513.173 487.500, 535 487.500 C 547.281 487.500, 550.603 487.847, 556.710 489.767 C 573.978 495.195, 587.628 510.195, 593.325 530 C 595.540 537.704, 598 552.382, 598 557.902 L 598 562.542 578.250 564.813 C 567.388 566.063, 529.475 570.652, 494 575.012 C 425.997 583.369, 421.118 583.955, 373.500 589.486 C 299.766 598.049, 270.592 599.998, 205.500 600.705 C 159.015 601.210, 127.288 600.500, 99.980 598.344 L 92.460 597.751 89.567 628.966 C 87.282 653.631, 86.937 660.343, 87.926 660.954 C 90.758 662.705, 146.759 664.953, 188 664.971 C 272.961 665.009, 309.642 661.916, 496 638.999 C 550.416 632.307, 594.397 627, 595.434 627 C 596.063 627, 591.616 652.904, 588.481 667.500 C 570.283 752.219, 531.123 831.221, 496.110 853.850 C 477.870 865.640, 453.607 865.658, 431 853.899 C 409.945 842.948, 388.280 819.740, 368.953 787.433 C 355.366 764.722, 340.431 731.310, 330.988 702.500 C 328.644 695.350, 326.629 689.378, 326.509 689.228 C 326.165 688.801, 266.584 705.131, 265.781 705.873 C 264.846 706.738, 277.111 742.789, 284.025 759.500 C 291.253 776.966, 306.171 806.778, 315.051 821.500 C 330.005 846.292, 343.791 863.865, 362.123 881.500 C 386.707 905.150, 413.607 919.655, 442 924.571 C 454.843 926.795, 481.643 926.058, 494.194 923.136 C 512.039 918.981, 527.534 911.044, 543.370 897.945 C 594.917 855.310, 641.083 752.753, 657.543 644.313 C 658.894 635.410, 660 626.549, 660 624.622 C 660 622.695, 660.481 620.821, 661.069 620.458 C 661.656 620.094, 672.794 618.743, 685.819 617.455 C 746.447 611.459, 816.011 608.052, 879.750 607.956 L 914 607.905 914 597.114 C 914 591.179, 914.297 576.800, 914.659 565.161 L 915.318 544 882.909 544.016 C 814.958 544.049, 727.643 548.524, 669.500 554.952 C 665.650 555.377, 662.429 555.675, 662.342 555.613 C 662.256 555.551, 661.660 551, 661.018 545.500 C 658.427 523.286, 652.535 502.525, 644.502 487.302 C 626.980 454.100, 598.331 432.758, 561.287 425.312 C 550.213 423.087, 520.637 423.027, 508.250 425.206 C 503.712 426.004, 500 426.478, 500 426.260 C 500 426.041, 501.103 421.506, 502.451 416.181 C 506.965 398.356, 513.871 366.685, 517.536 347 C 519.533 336.275, 521.250 327.417, 521.351 327.316 C 521.453 327.214, 527.086 327.981, 533.869 329.020 C 564.314 333.682, 576.902 334.502, 617.500 334.463 C 657.789 334.425, 671.284 333.601, 708 328.933 C 739.359 324.946, 792.534 315.854, 794.203 314.193 C 794.778 313.621, 781.664 253.331, 780.770 252.437 C 780.621 252.288, 775.099 253.263, 768.500 254.605 C 727.727 262.892, 679.211 268.970, 637.566 271.006 C 606.309 272.535, 569.478 270.367, 538.500 265.176 L 528.500 263.500 528.788 255.500 C 528.946 251.100, 529.513 236.700, 530.047 223.500 C 530.582 210.300, 531.312 171.488, 531.670 137.250 L 532.320 75 500.818 75 L 469.316 75 468.661 93.750 " stroke="none" fill="black" fill-rule="evenodd"/>
</svg>