<svg xmlns="http://www.w3.org/2000/svg" width="1000" height="1000" viewBox="0 0 1000 1000" version="1.1">
	<path d="M 511.500 105.588 C 468.872 115.922, 400.310 127.505, 367.171 129.972 C 336.388 132.263, 292.970 126.511, 241.694 113.349 C 231.901 110.835, 223.706 108.960, 223.483 109.184 C 222.959 109.708, 205 167.549, 205 168.713 C 205 170.462, 250.246 181.653, 276.678 186.442 C 308.145 192.143, 321.622 193.406, 351.500 193.454 C 375.127 193.493, 382.311 193.138, 397.500 191.181 C 417.952 188.547, 457.337 182.097, 475.237 178.452 C 481.858 177.103, 487.403 176, 487.559 176 C 488.464 176, 438.430 322.739, 436.977 324.343 C 436.557 324.807, 427.728 328.028, 417.357 331.501 C 329.945 360.773, 255.588 410.710, 204.939 474.157 C 171.702 515.793, 147.111 563.773, 132.483 615.529 C 118.376 665.439, 115.812 716.819, 125.443 756.571 C 132.780 786.858, 147.883 810.274, 168.798 823.792 C 181.589 832.058, 193.704 835.355, 211 835.277 C 257.994 835.065, 291.071 806.603, 336.201 727.545 C 375.086 659.427, 426.515 540.614, 476.621 403.140 C 483.376 384.606, 485.978 378.596, 487.500 378.014 C 490.842 376.735, 517.723 372.053, 534.083 369.901 C 554.120 367.264, 602.714 366.189, 622.146 367.951 C 683.469 373.513, 729.360 391.946, 755.162 421.379 C 778.502 448.004, 797.040 485.405, 804.541 521 C 810.544 549.484, 810.538 585.746, 804.526 614 C 795.862 654.719, 774.460 695.895, 742.934 732.500 C 733.292 743.695, 711.437 765.356, 699.500 775.548 C 674.057 797.271, 636.426 822.496, 600.250 842.078 C 596.813 843.939, 594 845.860, 594 846.346 C 594 847.067, 621.589 900.586, 622.632 901.888 C 623.066 902.430, 647.012 889.232, 662 880.190 C 788.205 804.050, 860.965 704.928, 871.971 594.144 C 873.292 580.850, 873.291 554.143, 871.970 540.856 C 865.937 480.185, 842.502 425.222, 803.255 379.703 C 760.300 329.882, 685.007 302.985, 588.550 303.004 C 562.658 303.009, 525.184 305.728, 512.290 308.537 C 510.121 309.009, 510.144 308.841, 513.480 299.624 C 524.384 269.501, 573.581 119.028, 572.714 118.452 C 571.690 117.773, 523.771 103.019, 522.789 103.082 C 522.080 103.127, 517 104.254, 511.500 105.588 M 394.424 408.835 C 331.105 436.984, 276.923 480.414, 241.663 531.283 C 211.600 574.654, 191.376 626.524, 184.848 677 C 182.968 691.541, 183.270 720.478, 185.429 732.500 C 189.830 757.016, 199.199 772, 210.127 772 C 216.753 772, 226.326 768.180, 232.326 763.143 C 259.276 740.513, 299.538 668.924, 345.730 561.500 C 367.413 511.074, 409.990 402.980, 408.157 403.011 C 407.796 403.017, 401.616 405.638, 394.424 408.835 " stroke="none" fill="black" fill-rule="evenodd"/>
</svg>