<svg xmlns="http://www.w3.org/2000/svg" width="1000" height="1000" viewBox="0 0 1000 1000" version="1.1">
	<path d="M 478.423 74.207 L 448.346 84.036 449.744 90.268 C 451.772 99.312, 452.534 135.809, 451.035 152.148 C 449.568 168.144, 446.064 188.883, 441.914 206.132 L 438.876 218.763 426.688 222.344 C 409.851 227.290, 395.552 230.601, 382 232.691 C 365.953 235.167, 321.098 235.158, 302.500 232.675 C 268.749 228.171, 232.994 218.918, 202.527 206.804 C 197.042 204.623, 192.427 203.212, 192.272 203.669 C 192.116 204.126, 186.142 216.817, 178.995 231.870 C 171.848 246.924, 166 259.580, 166 259.996 C 166 260.997, 182.516 267.802, 197.500 272.975 C 268.564 297.510, 337.761 304.600, 401.845 293.915 C 408.635 292.783, 414.350 292.016, 414.545 292.211 C 414.739 292.406, 409.380 308.976, 402.634 329.033 C 390.696 364.528, 383.304 391.220, 380.905 407.500 C 379.128 419.557, 379.427 440.070, 381.509 448.962 C 386.498 470.267, 396.736 484.677, 415.680 497.061 C 425.680 503.598, 434.734 507.932, 459.500 518.038 C 496.421 533.104, 512.197 542.085, 526.076 555.938 C 547.390 577.212, 557.377 604.910, 561.076 653 C 562.368 669.790, 561.829 702.048, 559.992 718 C 553.759 772.105, 537.249 817.449, 513.666 845.231 C 499.190 862.285, 477.811 872.766, 459.463 871.803 C 452.716 871.449, 450.022 870.758, 443.720 867.765 C 432.495 862.434, 424.718 856.787, 413.129 845.554 C 397.829 830.723, 381.651 811.007, 361.718 782.899 L 357.037 776.299 376.779 758.820 C 406.117 732.844, 482.500 660.698, 482.500 658.963 C 482.500 657.962, 441.008 613, 440.085 613 C 439.664 613, 426.085 625.649, 409.909 641.109 C 378.811 670.831, 352.246 695.517, 332.313 713.215 L 320.245 723.930 308.989 709.853 C 282.910 677.243, 260.736 659.592, 238 653.346 C 228.188 650.650, 208.993 650.885, 198.500 653.829 C 168.483 662.252, 143.606 685.538, 126.501 721.227 C 105.479 765.086, 102.401 815.063, 118.787 846.463 C 126.447 861.141, 141.234 872.722, 157.088 876.459 C 171.410 879.835, 193.294 877.659, 212.688 870.930 C 235.677 862.955, 269.599 843.798, 298.740 822.333 C 302.723 819.400, 306.375 817, 306.858 817 C 307.340 817, 312.182 823.138, 317.617 830.640 C 335.304 855.050, 348.031 870.193, 365.420 887.513 C 389.678 911.676, 406.504 922.990, 429.273 930.448 C 442.708 934.850, 454.540 936.439, 468 935.651 C 503.492 933.573, 537.873 915.290, 563.230 885.012 C 596.214 845.625, 616.783 789.046, 624.130 717.500 C 624.808 710.900, 625.365 693.350, 625.369 678.500 C 625.388 598.001, 607.903 545.558, 568.596 508.221 C 548.395 489.033, 526.517 476.440, 481.500 458.092 C 458.450 448.698, 448.540 443.607, 445.588 439.644 C 443.767 437.200, 443.516 435.541, 443.626 426.671 C 443.834 409.932, 448.194 392.799, 464.155 346 C 469.125 331.425, 477.013 308.152, 481.683 294.283 L 490.173 269.065 529.337 256.098 C 610.790 229.127, 643.842 221.923, 679.866 223.291 C 703.181 224.177, 718.074 228.968, 731.644 239.948 C 741.458 247.889, 752.997 265.071, 752.999 271.747 C 753.001 276.939, 741.341 286.058, 728 291.297 C 693.402 304.886, 630.408 307.113, 580.135 296.524 C 576.486 295.755, 573.225 295.435, 572.889 295.813 C 571.597 297.265, 558.830 356.228, 559.643 356.991 C 560.720 358.003, 585.327 362.427, 602.500 364.695 C 612.473 366.013, 623.184 366.420, 648.500 366.446 C 677.646 366.476, 683.254 366.219, 696.520 364.241 C 741.159 357.588, 773.228 344.389, 793.479 324.337 C 817.818 300.235, 822.995 267.515, 807.534 235.500 C 799.024 217.880, 782.655 198.222, 766.538 186.269 C 740.958 167.299, 707.286 158.091, 668 159.323 C 630.784 160.490, 594.312 168.073, 535.512 186.870 C 521.769 191.263, 510.355 194.689, 510.149 194.482 C 509.943 194.276, 510.726 187.671, 511.890 179.804 C 517.480 142.023, 517.475 104.506, 511.876 76.557 C 510.780 71.089, 509.572 66.111, 509.192 65.497 C 508.720 64.734, 498.938 67.504, 478.423 74.207 M 740.993 449.479 C 726.103 452.298, 706.950 459.685, 688.888 469.575 C 679.990 474.447, 662 485.936, 662 486.746 C 662 487.819, 698.391 536.213, 699.526 536.648 C 700.199 536.907, 704.519 534.670, 709.125 531.679 C 729.538 518.421, 753.096 509.766, 763.407 511.737 C 766.621 512.352, 769.991 517.148, 769.996 521.116 C 770.002 525.181, 763.729 536.688, 756.703 545.500 C 753.194 549.900, 743.204 561.375, 734.502 571 C 708.113 600.188, 696.818 615.265, 687.639 633.555 C 679.285 650.202, 676 663.565, 676 680.904 C 676 708.134, 684.937 729.198, 704.907 749.036 C 736.797 780.716, 798.502 799.935, 877.174 802.690 L 894.847 803.309 894.343 772.405 C 894.066 755.407, 893.691 741.007, 893.510 740.404 C 893.298 739.696, 887.049 739.093, 875.841 738.700 C 808.969 736.355, 754.560 718.273, 742.099 694.254 C 739.815 689.852, 738.846 681.282, 739.955 675.287 C 742.702 660.427, 752.326 646.350, 782.865 612.520 C 807.209 585.553, 816.467 573.333, 823.956 558.282 C 838 530.058, 836.826 504.312, 820.354 479.316 C 811.091 465.259, 799.002 456.209, 782.500 450.978 C 773.466 448.115, 752.248 447.348, 740.993 449.479 M 211.148 717.019 C 198.028 722.972, 186.157 739.375, 178.595 762 C 173.673 776.726, 171.673 789.214, 172.268 801.500 C 172.919 814.921, 172.893 814.875, 179.297 813.869 C 196.999 811.086, 225.838 796.202, 258 773.250 C 263.775 769.128, 268.907 765.381, 269.405 764.923 C 271.168 763.301, 245.993 732.486, 236.132 724.195 C 225.116 714.934, 219.376 713.285, 211.148 717.019 " stroke="none" fill="black" fill-rule="evenodd"/>
</svg>