<svg xmlns="http://www.w3.org/2000/svg" width="1000" height="1000" viewBox="0 0 1000 1000" version="1.1">
	<path d="M 409.500 90.538 C 393.550 92.912, 380.456 94.887, 380.402 94.927 C 380.348 94.967, 380.041 100.513, 379.719 107.250 C 377.930 144.706, 361.988 178.876, 333.881 205.500 C 303.187 234.574, 229.409 290.458, 162.750 335.124 C 148.037 344.983, 136 353.440, 136 353.918 C 136 354.396, 139.874 365.747, 144.609 379.143 C 149.343 392.540, 153.886 405.413, 154.703 407.750 C 155.520 410.088, 156.641 412, 157.194 412 C 157.938 412, 318.896 359.398, 328 356.179 C 328.825 355.888, 320.950 364.409, 310.500 375.115 C 270.244 416.358, 241.525 452.985, 227.588 480.855 C 211.035 513.958, 210.086 538.308, 224.412 562.365 C 239.767 588.149, 273.250 601.435, 314.500 598.110 C 325.998 597.183, 346.746 594.095, 352.600 592.439 C 354.629 591.865, 354.723 592.272, 355.406 604.673 C 355.794 611.728, 356.966 628.300, 358.010 641.500 C 359.488 660.181, 359.641 665.744, 358.704 666.599 C 345.839 678.339, 287.747 724, 285.675 724 C 285.318 724, 286.181 721.413, 287.595 718.250 C 295.908 699.646, 314.240 650.809, 313.240 649.929 C 311.569 648.458, 254.571 629.038, 253.982 629.739 C 253.631 630.158, 250.268 638.825, 246.510 649 C 237.287 673.970, 225.097 702.978, 217.838 717.228 C 207.069 738.369, 184.495 765.992, 134.671 819 C 126.642 827.542, 120.485 834.883, 120.954 835.353 C 121.423 835.822, 133.871 842.474, 148.618 850.135 C 174.102 863.375, 175.580 864.006, 178.465 862.876 C 185.949 859.944, 221.851 841.237, 235 833.417 C 242.975 828.675, 250.054 824.571, 250.730 824.298 C 251.567 823.960, 251.340 825.604, 250.020 829.441 L 248.080 835.080 250.290 835.938 C 260.972 840.086, 264.466 841.703, 271 845.527 C 287.024 854.904, 301.883 869.086, 312.719 885.347 C 315.229 889.112, 319.857 897.887, 323.004 904.847 C 327.396 914.560, 329.164 917.500, 330.613 917.500 C 331.651 917.500, 342.112 916.875, 353.860 916.111 L 375.219 914.722 381.563 906.111 C 399.681 881.518, 414.421 841.375, 422.433 794.800 C 426.371 771.906, 427.339 755.161, 426.628 722.223 L 425.995 692.947 459.828 659.223 C 478.437 640.675, 500.216 618.075, 508.226 609 C 526.191 588.648, 545.336 565.972, 544.857 565.612 C 544.661 565.464, 533.925 556.797, 521 546.352 C 508.075 535.907, 497 527.067, 496.390 526.707 C 495.744 526.328, 490.470 531.805, 483.803 539.777 C 459.841 568.433, 421.333 609.750, 419.931 608.309 C 419.498 607.864, 418.827 599.625, 418.441 590 L 417.739 572.500 440.259 562.655 L 462.780 552.810 456.803 540.155 C 446.022 517.326, 442.221 510.676, 436.836 505.211 C 423.129 491.303, 402.036 489.097, 383.245 499.605 C 374.634 504.421, 364.970 513.660, 362.072 519.847 L 359.726 524.855 351.613 527.050 C 317.658 536.240, 286.229 537.436, 279.321 529.802 C 277.813 528.136, 277.757 527.351, 278.855 523.205 C 282.096 510.962, 294.477 490.709, 312.357 468.406 C 345.205 427.429, 402.607 371.427, 465.250 319.240 C 476.113 310.190, 485.007 302.272, 485.016 301.643 C 485.034 300.392, 471.906 242.684, 471.495 242.204 C 471.356 242.042, 452.850 247.975, 430.371 255.389 C 353.606 280.707, 340.595 284.928, 340.280 284.613 C 340.107 284.440, 347.963 277.539, 357.737 269.277 C 390.970 241.188, 409.495 218.696, 423.446 189.500 C 437.831 159.395, 445.894 121.048, 443.508 94.091 C 442.850 86.656, 442.618 86.009, 440.646 86.111 C 439.466 86.172, 425.450 88.164, 409.500 90.538 M 127.416 155.750 C 129.036 194.338, 135.184 221.526, 147.061 242.616 C 153.058 253.266, 165.992 266.258, 175.500 271.182 C 184.403 275.793, 192.933 278.414, 193.488 276.710 C 193.704 276.044, 196.601 262.122, 199.925 245.770 L 205.967 216.041 203.527 212.445 C 196.463 202.036, 191.004 174.709, 191.001 149.750 C 191 145.488, 190.887 141.988, 190.750 141.973 C 188.223 141.706, 134.236 139.030, 131.107 139.017 L 126.713 139 127.416 155.750 M 682 209.944 C 664.687 214.802, 646.408 224.766, 627.651 239.568 L 621.802 244.184 624.243 246.842 C 625.586 248.304, 634.904 259.063, 644.951 270.750 C 654.998 282.438, 663.428 292, 663.685 292 C 663.942 292, 666.705 290.046, 669.826 287.658 C 677.205 282.012, 683.940 277.604, 684.425 278.104 C 685 278.695, 682.481 292.325, 680.009 302 C 669.593 342.768, 640.500 406.275, 604.278 467.317 C 595.297 482.451, 593.916 485.335, 595.103 486.470 C 598.923 490.125, 636.759 515, 638.496 514.999 C 639.598 514.999, 667.703 510.739, 700.951 505.533 C 734.199 500.327, 761.592 496.259, 761.825 496.492 C 762.198 496.864, 761.465 511.928, 759.387 546.600 L 758.781 556.701 754.141 555.812 C 751.588 555.323, 744.100 554.923, 737.500 554.922 C 701.786 554.918, 671.757 573.986, 654.135 607.857 C 638.731 637.466, 638.027 666.615, 652.105 691.888 C 656.519 699.813, 669.042 713.658, 677.234 719.672 C 679.904 721.632, 681.956 723.598, 681.794 724.041 C 681.632 724.484, 675.650 729.710, 668.500 735.655 C 641.949 757.731, 621.438 780.230, 613.519 795.967 C 606.304 810.304, 603.942 825.604, 606.953 838.499 C 611.071 856.135, 626.747 872.596, 647.931 881.530 C 689.982 899.265, 747.152 904.064, 819.500 895.932 C 851.965 892.282, 884 886.563, 884 884.416 C 884 883.208, 871.621 828.859, 870.457 824.958 C 870.051 823.598, 868.650 823.683, 858.505 825.685 C 824.112 832.472, 794.689 835.355, 759 835.434 C 727.192 835.505, 716.272 834.608, 697 830.338 C 687.036 828.131, 673.535 823.869, 672.163 822.497 C 671.291 821.625, 680.224 811.070, 688.795 802.845 C 699.122 792.936, 709.299 784.304, 733.247 765.148 L 750.995 750.951 764.747 752.970 C 772.311 754.081, 779.625 754.974, 781 754.955 C 782.516 754.934, 790.583 750.083, 801.500 742.629 L 819.500 730.338 820 708.419 C 820.463 688.129, 820.658 686.277, 822.623 683.500 C 830.174 672.831, 835 658.244, 835.689 644 C 836.440 628.458, 833.150 615.194, 825.379 602.440 L 821.760 596.500 822.408 573.023 C 823.545 531.852, 826.434 486.968, 828.010 485.994 C 828.471 485.709, 837.432 484.165, 847.924 482.564 C 865.734 479.845, 867 479.512, 867 477.546 C 867 476.387, 866.080 466.496, 864.957 455.566 C 862.694 433.555, 861.442 429.535, 853.879 419.966 C 847.709 412.161, 843.094 408.275, 835.500 404.495 C 812.753 393.169, 783.977 402.275, 774.237 423.880 C 772.843 426.971, 771.632 429.601, 771.545 429.724 C 771.287 430.087, 694.959 442, 692.886 442 C 691.265 442, 692.035 439.908, 698.128 427.750 C 718.441 387.217, 734.753 345.828, 742.368 315.500 C 747.303 295.848, 748.397 287.440, 748.419 269 C 748.439 252.469, 748.289 251.067, 745.701 243.672 C 739.316 225.427, 726.927 213.317, 710.741 209.501 C 702.321 207.516, 689.976 207.706, 682 209.944 M 730.500 619.336 C 720.609 622.619, 715.564 627.386, 709.904 638.796 C 707.382 643.878, 706.479 647.155, 706.171 652.342 L 705.764 659.184 712.132 665.342 C 716.537 669.601, 721.211 672.832, 727.292 675.819 C 732.128 678.195, 736.493 679.995, 736.994 679.819 C 737.494 679.644, 741.913 676.002, 746.815 671.726 C 755.486 664.162, 755.744 663.811, 756.355 658.726 C 756.700 655.852, 756.987 646.481, 756.991 637.902 L 757 622.304 751.750 620.599 C 744.548 618.261, 735.382 617.716, 730.500 619.336 M 358 749.614 C 350.769 755.389, 320.234 778.091, 311.248 784.372 L 302.996 790.141 311.748 795.888 C 322.349 802.850, 336.925 814.949, 343.882 822.562 C 347.059 826.037, 349.161 827.657, 349.423 826.831 C 353.817 812.974, 357.054 799.180, 359.942 782 C 361.853 770.633, 363.881 745.986, 362.904 746.010 C 362.682 746.015, 360.475 747.637, 358 749.614 " stroke="none" fill="black" fill-rule="evenodd"/>
</svg>