<svg xmlns="http://www.w3.org/2000/svg" width="1000" height="1000" viewBox="0 0 1000 1000" version="1.1">
	<path d="M 447.631 97.542 C 431.203 100.491, 417.627 103.040, 417.462 103.205 C 416.981 103.686, 434.179 194.601, 436.684 204.823 C 437.326 207.442, 440.107 207.429, 411.500 204.944 C 369.238 201.274, 319.746 192.804, 270.685 180.845 C 257.037 177.519, 245.611 175.055, 245.296 175.371 C 244.980 175.687, 240.791 189.265, 235.987 205.545 L 227.252 235.145 229.730 236.088 C 231.093 236.606, 239.276 238.807, 247.913 240.978 C 311.129 256.871, 374.046 266.993, 428.605 270.047 C 440.097 270.690, 449.951 271.336, 450.501 271.481 C 451.052 271.627, 453.254 278.891, 455.394 287.623 C 461.007 310.523, 469.387 339.341, 474.020 351.675 C 481.299 371.054, 492.512 390.071, 505.451 404.979 C 509.021 409.093, 511.617 412.768, 511.221 413.147 C 510.824 413.525, 464.571 432.258, 408.435 454.776 L 306.370 495.717 304.556 488.608 C 301.025 474.772, 289.236 439.925, 287.488 438.159 C 286.858 437.521, 230 463.406, 230 464.331 C 230 464.836, 231.768 470.054, 233.929 475.926 C 238.555 488.499, 246.297 516.254, 245.827 518.585 C 245.599 519.715, 223.605 528.970, 173.500 549.021 C 112.099 573.591, 101.551 578.103, 101.844 579.666 C 102.316 582.182, 120.123 642.418, 120.519 642.834 C 120.693 643.018, 132.010 640.248, 145.668 636.678 C 179.013 627.962, 242.319 614, 248.496 614 C 250.477 614, 250.179 615.912, 244.987 636.500 C 230.779 692.838, 198.958 764.589, 157.988 832.662 L 148.261 848.825 173.791 865.505 C 187.832 874.680, 199.875 882.398, 200.552 882.658 C 201.946 883.193, 211.833 867.683, 225.196 844 C 230.006 835.475, 234.292 827.932, 234.721 827.237 C 235.255 826.370, 237.448 828.411, 241.703 833.737 C 250.916 845.266, 270.170 864.057, 281.314 872.396 C 292.966 881.114, 307.269 888.764, 319 892.554 C 331.089 896.458, 349.992 897.156, 361.927 894.138 C 415.427 880.609, 486.101 789.975, 511.541 702.270 C 514.608 691.699, 518.474 672.789, 520.073 660.542 C 521.882 646.695, 520.734 613.609, 518.102 603.680 C 514.647 590.651, 508.860 580.809, 498.530 570.399 C 477.348 549.050, 449.686 539.765, 398.342 536.769 L 378.183 535.593 492.201 489.854 C 554.911 464.697, 606.477 443.856, 606.792 443.541 C 607.107 443.226, 606.062 431.506, 604.470 417.496 L 601.575 392.023 592.038 388.901 C 586.792 387.183, 580.025 384.423, 577 382.765 C 560.445 373.696, 544.161 354.655, 535.681 334.449 C 532.303 326.399, 525.095 302.914, 520.537 285.105 C 516.442 269.108, 516.453 269.051, 523.500 269.004 C 530.242 268.959, 571.466 264.288, 594.088 261.005 C 639.163 254.465, 688.835 244.842, 735.808 233.551 C 768.251 225.753, 771.555 224.748, 771.222 222.779 C 770.852 220.598, 754.932 163.599, 754.599 163.266 C 754.457 163.123, 751.951 163.716, 749.031 164.583 C 721.514 172.755, 641.670 189.261, 595 196.425 C 566.743 200.763, 503.424 207.758, 502.329 206.662 C 501.698 206.031, 480 94.975, 480 92.377 C 480 91.757, 478.690 91.966, 447.631 97.542 M 748.564 513.077 C 696.752 518.021, 648.961 542.113, 609.385 583.237 L 599.270 593.748 596.061 588.453 C 594.296 585.541, 592.248 581.150, 591.509 578.696 C 589.776 572.939, 588 552.065, 588 537.465 C 588 526.434, 587.922 526.020, 585.750 525.523 C 580.458 524.313, 525.480 517.187, 525.013 517.651 C 522.876 519.776, 524.710 568.175, 527.546 584.500 C 531.594 607.800, 543.431 628.747, 563.193 647.580 C 574.483 658.340, 581.558 663.158, 601.004 673.326 L 615.508 680.910 627.899 662.986 C 643.945 639.775, 650.840 631.239, 662.342 620.355 C 684.942 598.966, 710.982 584.914, 739.312 578.822 C 752.788 575.923, 782.692 575.616, 793.230 578.268 C 815.261 583.813, 826.350 595.026, 829.194 614.634 C 832.068 634.452, 822.691 663.065, 804.753 689.219 C 764.716 747.590, 701.782 790.154, 610.648 820.499 C 592.719 826.469, 555.151 837.090, 546.750 838.565 C 544.688 838.926, 543 839.784, 543 840.470 C 543 841.975, 556.754 901.106, 557.192 901.483 C 557.362 901.629, 563.575 900.219, 571 898.351 C 682.820 870.216, 762.773 829.005, 820.798 769.594 C 860.915 728.519, 885.616 684.260, 891.953 642.094 C 893.562 631.390, 893.336 609.952, 891.513 600.363 C 887.245 577.914, 876.909 558.547, 861.403 543.940 C 845.621 529.074, 822.985 518.627, 797.530 514.459 C 785.916 512.557, 761.290 511.862, 748.564 513.077 M 352.500 600.651 C 332.115 602.025, 316.661 603.928, 315.880 605.160 C 315.413 605.897, 315.024 607.904, 315.015 609.620 C 314.987 615.385, 310.917 636.322, 306.397 653.955 C 296.975 690.713, 281.846 731.036, 260.095 777.358 C 254.536 789.195, 254.624 789.335, 263.770 783.209 C 266.921 781.099, 271.125 778.390, 273.110 777.191 L 276.721 775.010 284.089 784.755 C 306.777 814.761, 334.707 835.801, 346.975 832.126 C 359.271 828.442, 380.746 808.410, 400.353 782.336 C 426.588 747.448, 445.783 707.015, 453.973 669.391 C 458.917 646.676, 458.867 620.701, 453.868 615.342 C 448.824 609.933, 435.648 605.118, 418.500 602.418 C 408.689 600.873, 366.115 599.733, 352.500 600.651 " stroke="none" fill="black" fill-rule="evenodd"/>
</svg>