<svg xmlns="http://www.w3.org/2000/svg" width="1000" height="1000" viewBox="0 0 1000 1000" version="1.1">
	<path d="M 440.500 108.386 C 432.868 110.242, 425.295 114.829, 418.023 122 C 411.624 128.309, 400.013 143.747, 394.634 153.098 L 391.988 157.696 379.744 158.329 C 367.228 158.975, 344.426 157.898, 331 156.026 C 294.211 150.895, 259.664 138.435, 232.409 120.465 L 222.899 114.195 212.593 125.848 C 206.925 132.256, 197.516 142.900, 191.684 149.500 L 181.082 161.500 184.291 164.328 C 190.175 169.515, 207.141 180.208, 220.451 187.119 C 258.212 206.728, 298.129 217.786, 344.070 221.365 L 358.640 222.500 350.857 242 C 325.980 304.329, 309.241 371.028, 303.049 432.500 C 301.514 447.741, 300 473.343, 300 484.071 L 300 493.675 283.750 506.734 C 238.638 542.985, 198.139 584.455, 171.558 621.617 C 150.456 651.120, 140.339 673.420, 136.455 699 C 128.530 751.178, 155.203 803.449, 208.500 840.190 C 217.437 846.351, 236.138 857, 238.019 857 C 239.570 857, 294.683 825.598, 306 818.267 C 317.412 810.874, 339.122 794.977, 352 784.583 L 362.500 776.109 365.104 781.804 C 366.536 784.937, 370.481 793.800, 373.869 801.500 C 377.258 809.200, 380.466 816.175, 380.999 817 C 381.807 818.253, 386.466 816.208, 409.234 804.606 C 424.230 796.965, 436.899 790.356, 437.387 789.920 C 437.883 789.476, 435.594 783.239, 432.191 775.759 C 428.845 768.407, 423.185 755.006, 419.613 745.979 L 413.118 729.567 422.309 720.022 C 462.226 678.569, 501.201 630.185, 531.477 584.500 C 567.108 530.735, 588.762 478.032, 592.572 435.805 L 593.266 428.111 598.807 427.418 C 608.663 426.187, 639.628 427.697, 649 429.865 C 665.317 433.641, 677.361 438.877, 688.500 447.038 C 694.778 451.637, 704.982 462.498, 709.696 469.597 L 713.295 475.018 712.717 483.759 C 711.976 494.953, 706.687 515.495, 695.017 552.500 C 677.442 608.228, 673.214 626.195, 672.305 649.020 C 671.579 667.224, 673.217 676.733, 679.193 689 C 688.671 708.458, 709.130 721.439, 737.501 725.995 C 740.801 726.525, 754.076 727.624, 767.001 728.437 C 792.068 730.014, 799.833 731.511, 802.497 735.278 C 804.422 738, 806.625 745.748, 807.436 752.647 C 808.036 757.749, 807.997 757.842, 802.913 763.405 C 789.594 777.978, 754.531 795.589, 708 811.078 C 671.786 823.133, 624.118 835.505, 577.250 845.015 C 556.575 849.210, 551 850.668, 551 851.882 C 551 853.883, 561.017 912.351, 561.431 912.764 C 561.604 912.937, 571.141 911.224, 582.623 908.957 C 680.405 889.648, 764.238 863.071, 809.617 836.994 C 825.549 827.839, 834.302 821.541, 844.294 812.046 C 858.102 798.924, 865.074 788.044, 869.116 773.309 C 870.994 766.464, 871.193 763.771, 870.724 751.500 C 868.936 704.723, 844.455 675.058, 801.417 667.520 C 796.971 666.741, 784.596 665.620, 773.917 665.029 C 753.907 663.922, 742.949 662.692, 738.701 661.076 C 735.567 659.885, 735.013 656.864, 736.118 646.987 C 737.871 631.325, 741.170 618.611, 754.671 575.500 C 759.322 560.650, 764.915 542.200, 767.101 534.500 C 778.455 494.503, 779.851 468.198, 771.605 449.676 C 763.478 431.424, 739.632 404.401, 720.457 391.714 C 688.702 370.704, 653.333 361.951, 605.905 363.366 L 585.311 363.980 584.189 360.237 C 582.307 353.955, 574.377 338.468, 568.842 330.265 C 560.235 317.509, 538.460 296.450, 532.200 294.827 C 531.447 294.632, 524.804 305.467, 515.692 321.753 L 500.446 349.007 508.027 356.753 C 514.498 363.365, 523 375.455, 521.857 376.421 C 521.661 376.587, 516.609 378.152, 510.631 379.899 C 470.164 391.723, 417.034 416.630, 369.106 446.244 L 365.712 448.341 366.408 439.921 C 371.534 377.946, 394.626 295.542, 424.731 231.792 L 430.260 220.084 434.380 219.594 C 436.646 219.324, 445.700 218.624, 454.500 218.038 C 469.166 217.061, 505.242 210.960, 507.163 209.131 C 507.528 208.784, 506.315 195.813, 504.468 180.308 L 501.109 152.115 496.981 143.808 C 489.665 129.088, 478.853 116.953, 468.300 111.618 C 464.132 109.511, 453.451 107.010, 449 107.100 C 447.075 107.138, 443.250 107.717, 440.500 108.386 M 510.500 446.911 C 467.827 462.730, 428.605 483.119, 382.361 513.521 L 365.222 524.789 365.681 529.645 C 368.251 556.830, 373.953 591.760, 380.594 621 C 384.493 638.165, 389.951 659.225, 390.702 660 C 390.968 660.275, 392.607 658.873, 394.343 656.884 C 451.864 591.005, 486.791 542.149, 507.572 498.500 C 516.361 480.040, 524.169 458.279, 526.542 445.626 C 527.442 440.832, 526.751 440.887, 510.500 446.911 M 296 579.636 C 262.794 609.685, 235.519 640.156, 217.058 667.825 C 194.640 701.425, 193.141 727.899, 212.056 756.178 C 216.956 763.502, 236.227 783, 238.567 783 C 240.820 783, 258.467 773.114, 272 764.270 C 291.456 751.555, 328.711 722.499, 336.874 713.674 L 339.247 711.108 335.186 697.804 C 329.128 677.963, 327.547 672.264, 322.477 652 C 317.228 631.019, 309.702 594.054, 307.868 580.250 C 307.193 575.163, 306.383 571.009, 306.070 571.019 C 305.756 571.030, 301.225 574.907, 296 579.636 " stroke="none" fill="black" fill-rule="evenodd"/>
</svg>