<svg xmlns="http://www.w3.org/2000/svg" width="1000" height="1000" viewBox="0 0 1000 1000" version="1.1">
	<path d="M 442.500 97.740 C 426.550 104.107, 413.392 109.391, 413.259 109.482 C 413.127 109.574, 415.902 117.715, 419.426 127.574 C 437.456 178.018, 450.809 230.203, 456.895 274 C 461.674 308.397, 461.682 336.494, 456.925 386.772 C 454.282 414.702, 449.433 455.900, 448.702 456.631 C 448.384 456.949, 436.509 459.898, 422.312 463.185 C 408.116 466.472, 381.425 473.008, 363 477.709 C 309.575 491.341, 299.957 493.210, 268.500 496.072 C 249.925 497.762, 189.228 498.376, 165.585 497.114 C 154.082 496.499, 144.567 496.110, 144.442 496.248 C 143.723 497.040, 139.142 558.538, 139.757 559.135 C 141.321 560.653, 196.934 562.281, 226 561.658 C 282.124 560.457, 313.313 556.543, 355 545.468 C 372.960 540.697, 440.561 524.033, 442.055 524.009 C 442.360 524.004, 442.420 529.303, 442.189 535.785 C 441.436 556.912, 444.499 576.113, 450.564 588.273 C 454.901 596.968, 458.864 601.844, 467.014 608.512 C 485.365 623.525, 504.330 630.370, 540.500 635.035 C 549.850 636.241, 557.598 637.312, 557.717 637.414 C 557.837 637.517, 554.131 644.778, 549.483 653.550 C 527.103 695.788, 509.778 738.623, 501.508 772.165 C 492.203 809.906, 493.191 838.325, 504.629 861.898 C 508.456 869.787, 510.580 872.679, 517.844 879.898 C 527.097 889.094, 533.103 893.103, 545.930 898.649 C 585.775 915.876, 663.463 917.528, 770.500 903.426 C 794.937 900.206, 833.302 894.023, 834.175 893.164 C 834.836 892.513, 823.689 832.356, 822.730 831.396 C 822.461 831.128, 812.625 832.495, 800.871 834.434 C 714.856 848.627, 635.204 852.845, 591.864 845.503 C 580.163 843.520, 567.705 839.464, 564.162 836.483 C 552.642 826.789, 560.255 784.323, 583.115 730.762 C 596.376 699.690, 621.768 652.313, 640.626 623.453 C 641.855 621.572, 641.118 620.384, 631.517 608.779 C 611.621 584.729, 597.873 578.294, 554 572.496 C 531.196 569.482, 521.571 567.336, 514.283 563.643 C 506.756 559.829, 506.596 559.454, 506.195 544.627 C 505.863 532.356, 507.098 510.568, 508.188 509.479 C 509.573 508.094, 667.446 474.105, 700.500 468.076 C 706.550 466.972, 717.183 465.611, 724.130 465.050 C 745.681 463.310, 818.032 461.719, 849.250 462.299 C 871.703 462.716, 878.992 462.563, 878.965 461.676 C 878.860 458.109, 869.312 397.978, 868.763 397.430 C 868.403 397.070, 861.559 395.703, 853.555 394.393 C 790.280 384.035, 728.146 350.676, 692.838 308.106 L 685.046 298.712 693.273 289.761 C 724.213 256.098, 742.991 225.188, 748.547 198.778 C 749.346 194.978, 750 190.032, 750 187.787 L 750 183.705 739.750 184.317 C 734.112 184.654, 719.770 185.465, 707.879 186.121 L 686.258 187.313 683.294 194.406 C 667.734 231.645, 612.517 285.405, 538.750 335.135 L 524 345.079 523.997 323.289 C 523.993 299.135, 523.083 286.703, 519.474 261.500 C 514.283 225.253, 505.123 186.166, 491.352 141.500 C 485.716 123.221, 473.370 88.051, 472.162 86.832 C 471.798 86.465, 458.450 91.373, 442.500 97.740 M 232.351 210.750 C 231.112 222.453, 231.431 262.977, 232.865 276 C 235.890 303.494, 243.711 332.920, 253.384 353.206 C 255.930 358.544, 261.200 367.678, 265.095 373.504 L 272.178 384.095 276.339 380.745 C 278.627 378.903, 289.831 369.867, 301.236 360.666 L 321.973 343.937 318.100 338.219 C 301.831 314.192, 293.869 276.440, 295.330 230.250 C 295.814 214.934, 295.676 211, 294.655 211 C 293.949 211, 279.985 209.200, 263.624 207 C 247.263 204.800, 233.718 203, 233.523 203 C 233.329 203, 232.802 206.488, 232.351 210.750 M 627.463 349.286 C 602.260 369.092, 567.272 393.494, 535.005 413.772 C 515.551 425.997, 517.397 423.748, 515.637 437.357 L 515.009 442.215 517.702 441.539 C 535.399 437.097, 682.689 406.091, 696.319 403.938 L 704.137 402.703 698.881 399.102 C 681.199 386.986, 660.872 368.658, 646.064 351.479 L 637.425 341.457 627.463 349.286 " stroke="none" fill="black" fill-rule="evenodd"/>
</svg>