<svg xmlns="http://www.w3.org/2000/svg" width="1000" height="1000" viewBox="0 0 1000 1000" version="1.1">
	<path d="M 388 103.579 C 388 103.897, 385.765 113.739, 383.034 125.451 C 371.542 174.730, 359.705 239.261, 354.501 281 C 353.095 292.275, 351.699 303.300, 351.399 305.500 C 350.879 309.305, 350.361 309.814, 340.774 315.955 C 304.109 339.437, 257.913 379.114, 234.160 407.525 C 220.324 424.074, 204.444 446.324, 193.500 464.496 C 192.766 465.714, 192.568 464.736, 192.755 460.828 C 194.185 431.001, 202.734 367.909, 210.471 330.088 C 211.867 323.262, 212.855 317.521, 212.665 317.331 C 211.895 316.561, 151.752 302.914, 151.267 303.400 C 149.882 304.785, 141.305 352.069, 137.009 382 C 125.136 464.719, 125.336 530.132, 137.600 575.833 C 139.617 583.350, 141.592 589.862, 141.988 590.304 C 143.124 591.572, 203.167 602.243, 203.991 601.324 C 204.397 600.871, 206.621 594.200, 208.933 586.500 C 220.526 547.898, 237.719 511.942, 261.029 477.552 C 280.487 448.845, 297.087 430.953, 329.500 403.754 C 336.650 397.754, 343.337 392.388, 344.360 391.829 C 346.151 390.850, 346.192 391.396, 345.470 406.656 C 345.058 415.370, 344.446 446.513, 344.110 475.862 L 343.500 529.223 333.601 518.362 C 328.157 512.388, 316.583 500.209, 307.881 491.297 L 292.059 475.095 280.779 486.797 C 274.576 493.233, 264.565 503.571, 258.534 509.771 L 247.568 521.044 262.645 536.272 C 280.472 554.276, 296.960 572.525, 304.737 582.858 C 318.236 600.794, 333.210 628.356, 347.055 660.750 C 351.110 670.237, 354.842 678, 355.348 678 C 355.854 678, 368.197 671.865, 382.778 664.366 L 409.289 650.732 408.617 633.616 C 407.564 606.790, 407.830 453.102, 408.994 416.500 C 410.613 365.550, 411.687 349.737, 413.626 348.300 C 416.115 346.455, 431.451 341.075, 441.720 338.443 C 460.308 333.680, 479.834 333.366, 496.378 337.566 C 527.412 345.444, 556.988 376.763, 572.571 418.250 C 575.901 427.116, 577.838 431.003, 578.930 431.008 C 579.794 431.013, 594.197 432.128, 610.938 433.487 C 627.680 434.845, 641.460 435.854, 641.561 435.728 C 641.662 435.603, 644.317 427.400, 647.461 417.500 C 657.292 386.542, 667.756 368.158, 685.941 349.895 C 697.844 337.939, 707.674 330.938, 722.407 323.920 C 751.136 310.235, 777.916 308.829, 794.620 320.130 C 809.147 329.958, 817.227 347.792, 817.216 370 C 817.207 387.352, 813.236 400.213, 800.003 425.747 C 784.844 454.997, 765.290 480.829, 736.559 509.558 C 684.134 561.981, 622.699 602.909, 523.500 651.494 C 485.503 670.104, 472.970 676.788, 446.157 692.738 C 374.454 735.393, 299.886 795.087, 248.764 850.758 L 233.835 867.015 236.184 869.807 C 244.475 879.660, 273.597 909.986, 274.457 909.661 C 291.754 903.124, 324.174 894.085, 350.171 888.550 C 460.956 864.963, 587.451 861.548, 681.500 879.605 C 706.521 884.409, 739.088 893.857, 749.901 899.449 C 751.732 900.396, 753.588 900.794, 754.026 900.335 C 756.199 898.055, 784.098 845.968, 783.588 845.143 C 783.263 844.617, 778.160 842.156, 772.249 839.675 C 686.743 803.785, 539.129 794.321, 396 815.552 C 386.925 816.898, 379.093 818, 378.595 818 C 376.224 818, 413.141 790.300, 438 773.425 C 476.530 747.271, 497.950 735.231, 566.533 701.183 C 663.839 652.875, 731.730 606.134, 787.007 549.392 C 823.437 511.997, 850.031 473.316, 867.372 432.500 C 878.321 406.730, 881.488 390.630, 880.653 365 C 879.514 330.053, 868.535 303.115, 846.299 280.702 C 825.202 259.438, 799.099 249.005, 767 249.007 C 717.048 249.011, 663.938 275.472, 628.524 318 C 622.100 325.716, 609 344.591, 609 346.133 C 609 348.429, 606.761 346.236, 600.440 337.750 C 591.720 326.044, 575.005 309.238, 564.034 301.147 C 535.882 280.385, 506.921 271, 471 271 C 455.989 271, 440.727 272.799, 427.634 276.112 C 423.308 277.206, 419.601 277.934, 419.396 277.729 C 418.919 277.252, 424.971 239.293, 429.023 217.347 C 433.178 194.843, 439.943 162.403, 445.497 138.350 C 447.992 127.543, 449.867 118.533, 449.662 118.329 C 449.154 117.820, 390.816 103.032, 389.250 103.014 C 388.563 103.006, 388 103.260, 388 103.579 " stroke="none" fill="black" fill-rule="evenodd"/>
</svg>