<svg xmlns="http://www.w3.org/2000/svg" width="1000" height="1000" viewBox="0 0 1000 1000" version="1.1">
	<path d="M 382.847 71.540 L 360.261 93.840 364.380 97.770 C 376.902 109.716, 401.023 126.377, 424.541 139.326 C 472.610 165.790, 538.978 185.512, 597.021 190.578 L 604.541 191.234 606.839 162.867 C 608.103 147.265, 609.376 133.066, 609.668 131.314 C 610.282 127.627, 612.810 128.327, 587 125.036 C 544.457 119.611, 500.673 106.398, 463.575 87.789 C 445.009 78.475, 422.974 64.322, 410.967 53.997 L 405.433 49.239 382.847 71.540 M 692.500 187.080 C 670.757 192.927, 570.321 215.470, 513 227.371 C 457.645 238.863, 420.070 241.982, 336.863 241.994 C 288.445 242, 257.990 241.128, 214 238.477 C 200.525 237.665, 187.892 237, 185.927 237 L 182.353 237 179.796 268.250 C 178.389 285.438, 177.340 299.618, 177.465 299.762 C 177.804 300.155, 217.109 302.702, 245.500 304.172 C 279.141 305.913, 393.143 305.941, 418 304.215 C 474.274 300.308, 499.130 296.324, 581.264 278.052 C 588.811 276.374, 595.201 275, 595.465 275 C 595.729 275, 594.424 278.038, 592.566 281.750 C 587.347 292.176, 585.609 299.224, 585.726 309.500 C 585.892 324.074, 590.674 334.411, 602.697 346.182 C 610.313 353.638, 620.986 360.080, 633.971 365.057 C 654.149 372.789, 652.962 371.683, 652.986 382.792 C 653.021 398.608, 648.244 412.279, 634.889 434.583 L 633.044 437.665 649.082 456.881 C 660.734 470.842, 665.582 475.967, 666.810 475.624 C 672.335 474.077, 694.697 472.777, 706.752 473.302 C 745.965 475.010, 772.419 486.906, 782.540 507.383 C 793.336 529.228, 789.890 566.388, 773.968 599.825 C 755.500 638.606, 721.129 671.550, 672.409 697.168 C 666.309 700.376, 661.084 703, 660.797 703 C 660.510 703, 660.015 696.587, 659.696 688.750 C 659.378 680.913, 658.397 671.238, 657.517 667.252 C 648.874 628.089, 625.515 597.997, 589.884 580.124 C 583.495 576.919, 573.762 572.850, 568.255 571.082 L 558.243 567.867 557.554 561.771 C 555.454 543.210, 546.734 520.155, 535.815 504.294 C 505.655 460.484, 447.248 445.298, 395.292 467.758 C 369.731 478.807, 346.681 500.483, 333.797 525.585 C 323.400 545.843, 319.125 563.081, 318.302 588.057 L 317.724 605.614 309.275 609.941 C 298.913 615.247, 281.806 626.591, 271.324 635.107 C 225.564 672.287, 204.721 723.251, 216.435 769.322 C 221.154 787.880, 228.429 801.235, 240.974 814.371 C 257.441 831.614, 273.963 839.728, 303.395 845.027 C 355.705 854.447, 406.807 844.409, 448.500 816.527 C 454.550 812.481, 462.581 806.545, 466.347 803.335 C 478.226 793.212, 476.187 793.964, 487 795.717 C 493.866 796.830, 504.452 797.278, 525.176 797.333 C 553.323 797.408, 553.832 797.445, 552.804 799.367 C 550.828 803.058, 523.503 829.621, 513.513 837.562 C 484.192 860.868, 447.510 880.903, 411.756 893.139 C 404.747 895.538, 399.010 897.922, 399.006 898.438 C 398.998 899.619, 417.066 957.343, 417.630 957.939 C 419.252 959.655, 461.091 943.014, 483 931.938 C 552.997 896.554, 603.713 849.107, 636.194 788.618 L 641.500 778.736 653.500 774.514 C 686.016 763.073, 717.853 746.709, 744.037 727.980 C 800.481 687.606, 836.805 635.069, 848.426 577 C 857.170 533.307, 851.992 496.453, 833.092 467.856 C 815.824 441.728, 787.614 423.459, 751.500 415.016 C 741.508 412.680, 723.617 410, 718.013 410 C 714.082 410, 713.825 409.835, 714.368 407.668 C 717.330 395.869, 717.348 373.729, 714.409 359.500 C 710.453 340.355, 697.285 323.724, 679 314.779 C 673.775 312.223, 666.013 308.918, 661.750 307.436 C 657.487 305.954, 654 304.381, 654 303.941 C 654 302.159, 666.896 288.480, 676.873 279.679 C 691.010 267.207, 702.987 257.958, 723.720 243.500 C 733.184 236.900, 740.944 231.117, 740.964 230.648 C 740.984 230.180, 733.013 221.227, 723.250 210.753 C 713.487 200.278, 704.150 190.244, 702.500 188.453 L 699.500 185.198 692.500 187.080 M 432.072 522.553 C 407.938 527.787, 389.569 547.042, 383.708 573.250 C 382.877 576.962, 382.530 580, 382.936 580 C 383.342 580, 389.935 578.421, 397.587 576.492 C 425.523 569.447, 460.635 563.489, 481.114 562.317 L 492.210 561.682 491.630 558.091 C 490.594 551.676, 484.306 540.523, 478.388 534.605 C 466.796 523.013, 450.047 518.655, 432.072 522.553 M 481.583 626.068 C 460.522 627.933, 422.976 635.160, 401.469 641.488 C 394.905 643.420, 389.427 645, 389.295 645 C 389.164 645, 390.445 648.938, 392.143 653.750 C 402.442 682.944, 420.190 704.310, 445.012 717.397 C 452.210 721.193, 454.372 721.936, 455.495 721.004 C 457.640 719.224, 465.227 705.873, 471.427 692.969 C 479.747 675.652, 485.899 655.816, 491.499 628.250 C 491.862 626.462, 491.786 625.063, 491.329 625.139 C 490.873 625.216, 486.488 625.634, 481.583 626.068 M 554.437 637.755 C 548.964 669.204, 538.807 701.440, 526.876 725.228 C 524.744 729.478, 523 733.260, 523 733.633 C 523 734.470, 546.637 733.380, 557.500 732.041 C 569.022 730.621, 590.593 726.870, 591.906 726.058 C 593.972 724.781, 596.250 709.805, 596.326 697 C 596.410 682.734, 594.259 673.018, 588.713 662.613 C 583.034 651.959, 570.078 640.273, 558.649 635.498 L 555.089 634.010 554.437 637.755 M 322.327 676.517 C 292.128 697.178, 275.766 722.624, 277.257 746.609 C 278.257 762.686, 287.017 774.763, 300.759 779.007 C 323.048 785.892, 350.764 786.594, 373.940 780.863 C 382.693 778.698, 399.206 772.370, 402.955 769.744 C 405.048 768.278, 404.894 768.092, 396.958 762.531 C 368.618 742.673, 347.518 715.129, 334.080 680.451 L 330.412 670.985 322.327 676.517 " stroke="none" fill="black" fill-rule="evenodd"/>
</svg>