<svg xmlns="http://www.w3.org/2000/svg" width="1000" height="1000" viewBox="0 0 1000 1000" version="1.1">
	<path d="M 202.487 85.299 C 200.877 89.989, 186.003 143.184, 186.015 144.209 C 186.024 144.937, 191.152 147.408, 197.765 149.872 C 212.316 155.292, 230.670 164.377, 240.812 171.179 C 256.955 182.005, 272.695 200.374, 279.435 216.250 C 281.011 219.963, 282.591 223, 282.947 223 C 284.467 223, 343.464 209.869, 343.900 209.434 C 344.761 208.573, 339.879 194.706, 335.421 185.349 C 324.704 162.855, 305.455 139.787, 283.853 123.548 C 265.695 109.899, 239.016 96.354, 212.700 87.424 C 205.768 85.072, 202.779 84.450, 202.487 85.299 M 614.008 174.583 C 572.619 179.091, 530.039 192.353, 493.500 212.116 C 446.555 237.508, 408.686 272.968, 382.559 316 C 373.879 330.296, 356.818 365.687, 350.981 381.500 C 327.520 445.071, 326.483 502.896, 348.023 546.500 C 355.042 560.708, 360.968 568.838, 371.962 579.342 C 403.073 609.065, 447.584 616.695, 488.416 599.305 C 521.560 585.189, 553.699 553.349, 582.090 506.500 C 591.005 491.789, 607.804 458.779, 614.782 442.258 C 638.430 386.270, 649.887 324.828, 646.085 274.383 C 645.032 260.415, 642.746 243.106, 641.360 238.613 C 640.802 236.804, 641.417 236.748, 656.139 237.266 C 697.234 238.712, 729.382 251.235, 752.789 274.915 C 793.172 315.769, 809.921 393.734, 794.377 468.500 C 782.067 527.708, 753.803 583.604, 717.086 621.356 C 691.288 647.880, 665.347 662.791, 633 669.688 C 619.628 672.539, 587.335 672.268, 572.046 669.177 C 558.920 666.523, 545.331 662.350, 533.934 657.472 L 526.035 654.091 522.166 660.795 C 510.172 681.577, 494.846 709.174, 495.149 709.445 C 496.324 710.497, 507.277 715.525, 515.719 718.888 C 532.078 725.405, 550.148 730.275, 570.500 733.651 C 585.612 736.158, 623.008 736.160, 637.457 733.656 C 684.373 725.524, 720.795 706.568, 756.879 671.502 C 783.506 645.627, 803.630 617.670, 821.941 581.118 C 851.091 522.929, 865.444 461.715, 863.705 403 C 861.010 312.019, 823.769 238.365, 761.831 201.522 C 723.684 178.831, 668.066 168.695, 614.008 174.583 M 565 250.430 C 506.734 270.165, 461.873 305.770, 434.103 354.319 C 402.022 410.407, 389.373 466.391, 400.058 505 C 406.249 527.367, 419.554 541.048, 438.229 544.246 C 470.163 549.716, 508.332 513.741, 542.467 446 C 571.761 387.865, 584.549 336.740, 582.613 285.500 C 582.083 271.470, 579.188 247.813, 577.844 246.525 C 577.655 246.344, 571.875 248.101, 565 250.430 M 158.297 290.250 L 136.111 312.500 142.145 318.871 C 164.974 342.980, 186.973 377.917, 193.545 400.500 C 200.343 423.865, 196.945 436.498, 160.702 522.604 C 132.788 588.923, 121.331 623.137, 114.860 659.500 C 111.746 677, 111.447 714.573, 114.316 728 C 125.877 782.121, 166.508 829.057, 226.500 857.593 C 264.463 875.651, 309.255 888.053, 365 895.940 C 426.300 904.614, 514.043 907.899, 578.500 903.934 C 649.317 899.577, 746.654 883.374, 827.500 862.485 C 842.840 858.521, 856.379 854.948, 857.614 854.537 C 858.330 854.299, 855.601 843.398, 849.976 824.028 C 845.161 807.452, 841.047 793.714, 840.833 793.499 C 840.618 793.285, 835.506 794.450, 829.471 796.088 C 749.978 817.672, 655.277 834.374, 580.500 839.998 C 531.076 843.715, 447.016 841.470, 391.068 834.939 C 321.145 826.776, 267.329 810.790, 231.655 787.585 C 210.381 773.746, 194.082 756.149, 184.492 736.666 C 177.470 722.400, 175.722 714.356, 175.765 696.500 C 175.852 660.585, 185.918 626.710, 221.537 542.464 C 247.179 481.816, 255.360 458.328, 259.061 434.736 C 260.900 423.013, 259.755 401.937, 256.590 389.256 C 249.485 360.785, 231.536 327.606, 205.711 295.205 C 196.201 283.274, 182.392 268, 181.115 268 C 180.767 268, 170.500 278.012, 158.297 290.250 " stroke="none" fill="black" fill-rule="evenodd"/>
</svg>