<svg xmlns="http://www.w3.org/2000/svg" width="1000" height="1000" viewBox="0 0 1000 1000" version="1.1">
	<path d="M 421.545 81.121 C 405.070 84.396, 391.422 87.245, 391.216 87.451 C 391.010 87.657, 393.570 102.827, 396.906 121.163 C 406.852 175.840, 421.744 266.796, 420.843 267.364 C 420.654 267.482, 415.325 269.781, 409 272.472 C 380.498 284.599, 334.285 309.212, 299.701 330.687 C 259.779 355.476, 187 406.120, 187 409.111 C 187 409.625, 195.594 421.059, 206.097 434.521 C 218.156 449.976, 225.620 458.735, 226.347 458.286 C 226.981 457.894, 232.675 453.687, 239 448.936 C 275.640 421.413, 325.201 388.829, 365.500 365.769 C 383.403 355.524, 427.499 333, 429.652 333 C 430.203 333, 432.562 348.577, 434.978 368.164 L 439.314 403.327 436.907 405.278 C 435.583 406.351, 425.500 413.553, 414.500 421.283 C 317.259 489.612, 321.445 486.267, 273.666 533.821 C 255.607 551.794, 237.512 570.432, 233.454 575.238 C 204.502 609.530, 195.888 640.715, 206.976 671.096 C 216.428 696.996, 244.340 722.272, 272 729.979 C 281.401 732.599, 296.727 734.986, 304.191 734.994 C 307.321 734.997, 310.154 735.440, 310.486 735.978 C 310.819 736.516, 306.343 742.696, 300.540 749.711 C 294.736 756.725, 290.103 762.739, 290.244 763.074 C 290.385 763.409, 296.800 769.028, 304.500 775.561 C 366.124 827.842, 384.476 846.791, 422.839 897.750 C 427.912 904.487, 432.385 909.999, 432.781 909.998 C 433.176 909.997, 445.650 903.333, 460.500 895.189 L 487.500 880.382 490.674 864.734 C 496.915 833.963, 503.184 783.432, 507.018 733 C 508.168 717.875, 509.332 703.700, 509.606 701.500 L 510.103 697.500 542.801 686.711 C 586.377 672.333, 651.339 648.026, 679.303 635.634 L 685.106 633.063 684.536 627.281 C 684.223 624.102, 683.273 612.950, 682.425 602.500 C 680.440 578.030, 676.670 548.108, 673.417 531 C 670.035 513.218, 651.523 433.416, 650.501 432.212 C 650.223 431.884, 589.724 446.943, 589.195 447.472 C 589.006 447.661, 591.338 458.095, 594.378 470.658 C 602.193 502.957, 608.522 530.759, 610.847 543 C 613.519 557.066, 617.239 586.035, 616.829 589.583 C 616.533 592.148, 615.654 592.762, 608 595.759 C 585.326 604.638, 516.500 628.999, 514.088 629 C 513.764 629, 513.663 610.438, 513.863 587.750 C 514.242 544.664, 513.278 517.073, 509.904 474.500 C 508.815 460.750, 507.656 445.881, 507.328 441.458 L 506.732 433.415 518.116 424.470 C 558.550 392.700, 583.944 366.253, 595.381 344 C 600.800 333.456, 602.727 327.605, 603.943 318 C 608.545 281.662, 578.960 251.797, 532.579 245.959 C 521.865 244.610, 503.550 245.086, 491.119 247.037 C 485.712 247.885, 483.555 247.897, 483.051 247.082 C 482.673 246.471, 481.586 240.690, 480.636 234.235 C 475.903 202.074, 455.252 82.603, 453.415 76.750 C 453.112 75.787, 452.558 75.037, 452.183 75.083 C 451.807 75.128, 438.020 77.846, 421.545 81.121 M 499.500 310.192 C 496.200 310.714, 493.189 311.448, 492.809 311.821 C 492.144 312.474, 497.549 356.883, 498.397 357.730 C 498.625 357.958, 502.623 354.753, 507.282 350.608 C 523.810 335.903, 539.961 316.948, 538.720 313.713 C 537.191 309.729, 515.002 307.737, 499.500 310.192 M 712.664 337.003 C 704.049 351.773, 697 364.235, 697 364.698 C 697 365.160, 701.077 368.415, 706.061 371.933 C 742.733 397.816, 771.128 432.239, 784.616 467.163 C 788.618 477.524, 794.128 499.010, 796.887 515.010 C 801.276 540.462, 802.392 554.460, 802.447 584.749 C 802.481 603.543, 802.857 613.999, 803.500 614.002 C 804.050 614.004, 818.180 615.362, 834.900 617.020 C 851.620 618.677, 865.480 619.853, 865.701 619.633 C 865.921 619.413, 866.361 609.843, 866.679 598.366 C 868.313 539.341, 857.228 472.113, 839.411 433 C 824.514 400.297, 802.235 370.569, 772.500 343.715 C 761.245 333.551, 743.885 320.049, 733.914 313.703 L 728.328 310.148 712.664 337.003 M 432 486.835 C 398.443 510.411, 377.631 525.391, 367.015 533.609 C 353.926 543.742, 290.738 605.627, 280.336 618.500 C 268.165 633.563, 263.922 644.081, 267.346 650.701 C 269.753 655.357, 278.910 663.810, 284.494 666.532 C 302.071 675.100, 343.354 673.132, 399.522 661.050 C 416.604 657.375, 447.808 649.573, 448.498 648.804 C 448.648 648.637, 449.305 631.175, 449.957 610 C 450.828 581.728, 450.860 564.194, 450.079 544 C 448.792 510.745, 447.064 482.247, 446.163 479.425 C 445.557 477.529, 444.338 478.167, 432 486.835 M 434 718.686 C 409.220 724.562, 380.130 730.041, 359.085 732.795 L 353.669 733.503 372.585 750.084 C 397.798 772.185, 411.577 785.199, 424.103 798.740 C 433.496 808.894, 434.568 809.763, 435.201 807.740 C 436.903 802.302, 444.444 724.870, 443.817 719.268 L 443.500 716.433 434 718.686 " stroke="none" fill="black" fill-rule="evenodd"/>
</svg>