<svg xmlns="http://www.w3.org/2000/svg" width="1000" height="1000" viewBox="0 0 1000 1000" version="1.1">
	<path d="M 587.562 93.601 C 571.645 97.144, 558.519 100.148, 558.392 100.275 C 558.265 100.402, 561.235 115.849, 564.993 134.602 C 574.856 183.829, 590 271.860, 590 279.969 C 590 281.468, 588.814 282.097, 584.250 283.014 C 573.342 285.206, 538.459 294.098, 523.500 298.499 C 485.182 309.774, 440.117 326.452, 402 343.462 C 383.852 351.561, 344.996 370.783, 341.559 373.362 C 340.264 374.334, 342.317 378.446, 355.599 401.494 C 364.155 416.341, 371.292 428.625, 371.459 428.793 C 371.627 428.960, 381.154 424.393, 392.632 418.644 C 456.109 386.847, 521.960 362.764, 585.231 348.206 L 597.961 345.277 598.490 348.389 C 600.918 362.696, 603.953 424.538, 603.984 460.358 L 604 478.217 601.250 477.516 C 557.770 466.428, 511.483 470.384, 482.670 487.650 C 451.156 506.534, 434.136 537.596, 432.341 579.500 C 430.458 623.470, 449.965 665.548, 483 688.776 C 486.575 691.290, 489.850 693.641, 490.277 694 C 490.705 694.360, 488.087 698.220, 484.459 702.577 C 469.040 721.101, 454.193 747.445, 447.489 768.175 C 437.163 800.105, 438.960 828.578, 452.807 852.450 C 457.315 860.223, 469.730 872.442, 478.024 877.269 C 516.302 899.547, 598.746 903.961, 723.500 890.410 C 750.755 887.449, 804.553 879.883, 805.368 878.896 C 805.885 878.271, 800.428 837.367, 798.645 828.500 C 782.648 748.944, 777.571 724.850, 766.934 678 C 759 643.053, 755.424 628.088, 754.880 627.553 C 754.570 627.247, 693.892 641.835, 693.331 642.350 C 693.238 642.435, 694.919 649.826, 697.067 658.775 C 708.349 705.783, 733.523 823.811, 732.488 824.846 C 731.277 826.056, 676.518 831.125, 643.282 833.104 C 617.719 834.625, 561.556 833.738, 546 831.566 C 522.920 828.344, 509.444 823.672, 506.401 817.838 C 504.147 813.516, 504.168 801.806, 506.445 793.131 C 511.923 772.261, 528.675 745.810, 547.716 727.967 C 559.101 717.297, 568.162 711.726, 580.227 707.978 C 629.719 692.602, 655.951 655.080, 663.406 589 C 666.542 561.209, 667.184 536.704, 666.733 462 C 666.296 389.486, 665.648 373.093, 662.035 343.016 C 661.540 338.899, 661.232 335.435, 661.350 335.317 C 662.446 334.221, 693.692 332.658, 714.500 332.658 C 749.133 332.658, 774.876 335.387, 803.341 342.075 C 810.578 343.775, 817.116 345.242, 817.870 345.333 C 818.840 345.451, 821.676 337.037, 827.588 316.500 C 832.180 300.550, 835.951 286.777, 835.969 285.893 C 835.993 284.651, 832.993 283.573, 822.750 281.140 C 798.045 275.272, 778.374 272.115, 753.500 270.028 C 730.668 268.112, 676.514 268.951, 657.455 271.517 L 653.410 272.061 651.599 259.281 C 646.592 223.942, 634.540 156.336, 623.338 100.750 C 620.855 88.426, 620.357 87.008, 618.534 87.079 C 617.415 87.123, 603.478 90.058, 587.562 93.601 M 275 138.595 C 259.875 145.955, 247.056 152.130, 246.513 152.317 C 245.915 152.524, 246.189 154.792, 247.209 158.079 C 251.174 170.856, 252.246 180.729, 251.706 199.500 C 250.930 226.418, 245.681 247.235, 232.962 273.822 C 222.719 295.235, 212.333 309.529, 175.065 353.500 C 139.746 395.172, 130.062 407.605, 120.306 423.809 C 108.308 443.738, 104.278 459.487, 107.336 474.500 C 110.569 490.380, 116.623 498.714, 138.651 517.611 C 145.993 523.910, 154.241 531.861, 156.981 535.282 C 167.560 548.488, 176.094 569.264, 179.957 591.218 C 184.528 617.196, 184.879 633.878, 182.535 714 C 181.738 741.225, 180.620 787.575, 180.050 817 C 179.480 846.425, 178.831 877.813, 178.609 886.750 L 178.206 903 212.603 903 C 231.521 903, 247.002 902.663, 247.005 902.250 C 247.008 901.837, 248.547 894.223, 250.425 885.330 C 260.820 836.094, 290.644 773.442, 327.041 724.375 L 333.917 715.106 327.709 710.222 C 312.740 698.447, 284.085 677.001, 283.329 677.006 C 282.148 677.015, 262.961 704.198, 253.693 718.991 L 245.868 731.483 246.684 701.491 C 247.978 653.921, 247.557 613.654, 245.606 598.500 C 240.559 559.287, 231.090 531.246, 214.550 506.533 C 205.566 493.111, 196.911 483.550, 183.025 471.709 C 177.236 466.773, 172.382 462.440, 172.237 462.080 C 171.801 460.990, 178.730 450.051, 185.909 440.500 C 193.113 430.915, 202.843 419.149, 231.392 385.500 C 262.210 349.177, 276.087 329.856, 287.516 307.360 C 314.959 253.340, 322.840 197.175, 310.071 146.617 C 308.461 140.242, 306.099 132.818, 304.822 130.119 L 302.500 125.213 275 138.595 M 780.728 408.743 C 760.146 438.644, 753.323 448.601, 752.702 449.638 C 752.298 450.313, 754.354 452.524, 757.760 455.078 C 766.556 461.671, 788.276 483.334, 797.287 494.500 C 825.588 529.571, 841.810 567.942, 843.687 604.250 L 844.294 616 876.302 616 L 908.309 616 907.688 603.250 C 905.468 557.721, 888.291 511.112, 858.324 469.312 C 842.109 446.693, 815.511 419.052, 794.127 402.598 L 788.133 397.985 780.728 408.743 M 532.254 536.423 C 523.663 538.065, 513.829 542.455, 508.749 546.915 C 500.196 554.426, 495.443 570.360, 496.230 588.890 C 496.784 601.917, 499.340 611.014, 505.135 620.576 C 511.493 631.066, 523.352 640.867, 534.313 644.691 C 542.229 647.452, 560.558 647.161, 568.177 644.152 C 575.030 641.446, 583.853 632.545, 588.674 623.473 C 601.055 600.174, 603.420 565.959, 593.995 546.489 C 592.790 544.001, 590.891 541.477, 589.773 540.878 C 581.538 536.471, 546.284 533.740, 532.254 536.423 " stroke="none" fill="black" fill-rule="evenodd"/>
</svg>