<svg xmlns="http://www.w3.org/2000/svg" width="1000" height="1000" viewBox="0 0 1000 1000" version="1.1">
	<path d="M 305.408 154.236 C 270.829 190.414, 235.524 242.323, 207.628 298 C 182.874 347.408, 165.466 394.356, 152.194 447.500 C 135.816 513.077, 128.786 571.040, 128.722 641 C 128.696 669.910, 130.423 713.596, 131.644 714.938 C 132.150 715.494, 193.915 710.418, 194.566 709.768 C 194.831 709.502, 194.591 703.284, 194.033 695.948 C 190.525 649.850, 192.233 591.505, 198.478 544.168 C 211.958 441.974, 246.812 345.907, 299.762 265 C 315.551 240.876, 335.251 215.312, 350.557 199.087 C 354.101 195.330, 357 191.939, 357 191.552 C 357 191.164, 347.704 180.869, 336.341 168.673 C 324.979 156.478, 315.375 146.144, 314.999 145.708 C 314.624 145.273, 310.308 149.110, 305.408 154.236 M 668.597 157.538 C 626.465 165.512, 573.230 202.901, 505.846 271.845 C 494.656 283.295, 479.225 299.669, 471.556 308.233 L 457.612 323.804 453.891 317.436 C 427.411 272.122, 379.489 260.069, 325.232 285.076 C 317.517 288.633, 300 298.659, 300 299.519 C 300 299.730, 308.348 311.375, 318.550 325.396 L 337.101 350.888 347.300 345.504 C 369.411 333.834, 385.903 332.995, 394.450 343.108 C 398.735 348.177, 403.638 359.259, 406.578 370.521 L 409.195 380.541 388.847 406.049 C 314.442 499.325, 270.149 570.853, 250.644 629.231 C 226.695 700.909, 241.580 755.153, 293.626 785.874 C 303.877 791.925, 315.948 796.777, 328 799.690 C 337.432 801.970, 339.924 802.179, 352.500 801.739 C 363.144 801.366, 368.178 800.718, 373.500 799.034 C 425.425 782.605, 456.934 723.382, 471.412 615 C 479.334 555.699, 480.975 488.509, 476.386 411.408 L 475.725 400.317 490.847 382.743 C 559.715 302.710, 619.230 248.021, 659.533 227.737 C 667.104 223.927, 678.801 220, 682.580 220 C 687.768 220, 690.910 233.410, 690.965 255.778 C 691.008 273.264, 690.015 282.916, 679.992 362.500 C 663.523 493.260, 659.244 549.238, 660.311 620 C 661.249 682.243, 666.615 721.460, 679.602 761.002 C 701.852 828.740, 743.819 867.167, 803.072 874.057 C 816.718 875.644, 840.093 874.754, 855.500 872.061 C 867.104 870.032, 889.279 864.567, 891.535 863.179 C 892.281 862.720, 889.816 853.583, 883.932 835 C 879.143 819.875, 874.783 806.313, 874.242 804.863 L 873.259 802.225 864.879 804.665 C 840.488 811.765, 811.859 813.003, 795.500 807.663 C 779.612 802.476, 766.765 792.359, 756.916 777.276 C 732.059 739.212, 721.657 676.289, 724.137 579 C 725.554 523.425, 729.984 475.525, 743.976 364.500 C 754.858 278.147, 754.401 282.859, 754.435 256.500 C 754.468 231.209, 753.497 222.716, 748.889 208 C 740.831 182.270, 723.652 164.380, 701.328 158.473 C 692.705 156.192, 677.940 155.770, 668.597 157.538 M 411.021 480.789 C 346.851 567.671, 315.755 623.061, 305.964 667.924 C 298.582 701.744, 305.476 720.734, 329.435 732.578 C 349.083 742.291, 359.496 740.479, 371.497 725.260 C 392.210 698.991, 406.628 641.610, 413.021 560 C 414.075 546.553, 415.651 475.965, 414.897 476.039 C 414.679 476.060, 412.934 478.198, 411.021 480.789 " stroke="none" fill="black" fill-rule="evenodd"/>
</svg>