<svg xmlns="http://www.w3.org/2000/svg" width="1000" height="1000" viewBox="0 0 1000 1000" version="1.1">
	<path d="M 439 86.560 C 427.725 87.254, 416.813 87.862, 414.750 87.911 L 411 88 411 108.420 C 411 173.161, 399.979 242.892, 380.484 301.500 C 353.142 383.699, 309.353 443.630, 250.354 479.601 C 234.050 489.542, 188.766 511, 184.092 511 C 181.757 511, 199.738 483.502, 214.425 464.611 C 230.479 443.963, 242.498 430.435, 263.234 409.676 L 284.035 388.853 264.390 365.407 C 253.586 352.512, 244.368 341.728, 243.907 341.442 C 241.758 340.115, 205.050 376.519, 185.500 399.365 C 143.796 448.100, 117.381 491.424, 112.015 519.886 C 106.721 547.973, 120.800 571.540, 147.045 578.525 C 154.839 580.599, 169.389 580.366, 181.094 577.981 C 219.462 570.162, 281.233 539.319, 318.500 509.372 C 362.198 474.257, 400.416 421.698, 425.878 361.700 C 457.158 287.993, 475 194.771, 475 105.039 L 475 85 467.250 85.149 C 462.988 85.230, 450.275 85.865, 439 86.560 M 532.750 262.685 L 523 263.072 523 267.385 C 523 271.871, 525.540 310.030, 526.535 320.500 L 527.105 326.500 578.303 326.500 C 630.788 326.500, 642.800 327.083, 671 331 C 696.117 334.489, 715.431 339.438, 729.217 345.916 L 735.500 348.869 725.500 348.184 C 720 347.808, 699.075 347.523, 679 347.550 C 641.077 347.602, 631.081 348.312, 601 353.087 C 572.369 357.632, 530.297 368.656, 531.286 371.354 C 531.517 371.984, 535.878 385.100, 540.978 400.500 C 546.077 415.900, 550.629 428.913, 551.092 429.418 C 551.596 429.966, 555.470 429.255, 560.718 427.651 C 632.965 405.572, 720.882 404.830, 804.973 425.588 C 815.133 428.096, 831.009 432.848, 840.252 436.148 C 849.496 439.447, 857.456 442.002, 857.943 441.824 C 859.104 441.399, 889 403.989, 889 402.961 C 889 402.525, 885.480 396.844, 881.179 390.335 C 862.031 361.362, 835.766 336.010, 801.500 313.428 C 753.680 281.914, 719.308 270.793, 650 264.412 C 632.953 262.843, 556.939 261.723, 532.750 262.685 M 563.500 491.539 C 519.154 499.827, 475.320 531.619, 439.605 581.398 C 434.934 587.908, 434 588.780, 434 586.632 C 434 580.235, 442.853 534.019, 447.599 515.639 C 448.431 512.416, 448.964 509.630, 448.783 509.449 C 448.325 508.991, 389.595 494, 388.258 494 C 386.560 494, 379.093 526.701, 374.039 556.272 C 369.552 582.528, 368.764 595.621, 370.498 615.130 C 373.788 652.135, 377.160 671.452, 384.733 696.669 L 389.288 711.837 394.894 712.390 C 397.977 712.694, 407.025 713.194, 415 713.500 C 422.975 713.806, 432.024 714.306, 435.109 714.610 L 440.718 715.164 446.021 701.832 C 475.110 628.703, 521.403 571.710, 563.447 557.267 C 570.034 555.004, 573.230 554.500, 581 554.500 C 594.376 554.500, 601.115 557.726, 612.956 569.798 C 625.467 582.553, 634.056 598.941, 639.520 620.481 C 643.390 635.736, 644.304 645.677, 643.704 665.987 C 642.869 694.264, 638.629 711.145, 625.991 736.500 C 616.843 754.856, 608.259 766.703, 593 782.038 C 568.722 806.435, 538.665 824.539, 500.915 837.504 C 452.998 853.960, 402.300 860.774, 334.963 859.807 L 303.314 859.352 302.135 879.926 C 301.486 891.242, 300.675 905.511, 300.332 911.635 L 299.708 922.770 320.604 923.527 C 369.700 925.306, 422.156 921.603, 463.740 913.424 C 582.189 890.124, 665.563 825.876, 695.928 734.500 C 705.176 706.672, 708.578 683.231, 707.734 653.164 C 706.234 599.757, 687.916 553.569, 655.922 522.523 C 640.310 507.374, 623.215 497.515, 604.500 492.870 C 593.680 490.184, 574.145 489.550, 563.500 491.539 " stroke="none" fill="black" fill-rule="evenodd"/>
</svg>