<svg xmlns="http://www.w3.org/2000/svg" width="1000" height="1000" viewBox="0 0 1000 1000" version="1.1">
	<path d="M 384.500 111.651 C 382.300 111.824, 374.200 112.443, 366.500 113.026 C 334.854 115.425, 283.119 123.047, 250.750 130.080 C 239.154 132.600, 236.006 133.629, 236.029 134.893 C 236.044 135.777, 239.341 149.550, 243.355 165.500 C 250.434 193.634, 250.725 194.497, 253.076 194.414 C 254.409 194.367, 262.250 192.928, 270.500 191.217 C 342.358 176.311, 420.775 170.693, 468.598 177.024 C 484.166 179.085, 499.154 182.239, 499.661 183.560 C 499.938 184.282, 499.233 199.639, 498.094 217.686 C 491.477 322.542, 488.835 395.868, 488.806 475.500 C 488.786 530.554, 489.723 559.088, 492.567 590 C 493.961 605.152, 496.470 624.213, 497.583 628.103 C 497.997 629.552, 497.010 629.528, 487.271 627.851 C 472.532 625.313, 441.622 621.422, 423.500 619.823 C 399.918 617.743, 332.359 618.054, 314 620.328 C 251.073 628.122, 207.106 645.954, 176.861 675.949 C 161.254 691.426, 152.394 705.867, 146.325 725.716 C 143.859 733.782, 143.636 735.931, 143.594 752 C 143.555 767.039, 143.860 770.641, 145.761 777.613 C 151.805 799.783, 163.438 818.701, 181.590 835.880 C 228.110 879.907, 302.373 897.257, 393.500 885.389 C 507.227 870.577, 567.789 816.764, 572.650 726.202 C 573.154 716.808, 573.613 714.021, 574.592 714.397 C 575.298 714.668, 577.816 715.411, 580.187 716.049 C 586.656 717.790, 620.713 730.062, 635.500 735.981 C 697.800 760.919, 767.756 799.044, 814.740 833.665 C 818.723 836.599, 822.347 839, 822.794 839 C 823.778 839, 862 791.439, 862 790.214 C 862 788.937, 840.938 773.810, 821 760.768 C 746.186 711.828, 658.531 671.724, 572.471 647.061 L 565.442 645.047 561.711 623.773 C 555.584 588.835, 554.522 576.676, 552.862 522.500 C 550.606 448.889, 555.091 314.045, 564.038 186.500 C 565.118 171.100, 566.289 154.194, 566.639 148.931 L 567.277 139.362 552.161 133.164 C 522.906 121.170, 494.836 114.821, 458.605 112.003 C 447.049 111.104, 394.621 110.855, 384.500 111.651 M 345 682.012 C 325.727 682.978, 313.180 684.437, 296.579 687.643 C 236.483 699.250, 200.799 728.184, 207.420 759.936 C 213.226 787.783, 246.225 811.683, 291.620 820.920 C 327.691 828.259, 380.321 825.895, 422.274 815.051 C 470.363 802.621, 496.499 781.022, 505.734 746.078 C 507.903 737.870, 508.334 733.689, 508.747 716.854 C 509.202 698.319, 509.124 697.176, 507.365 696.653 C 503.690 695.561, 479.249 691.098, 466 689.101 C 425.450 682.987, 379.400 680.289, 345 682.012 " stroke="none" fill="black" fill-rule="evenodd"/>
</svg>