<svg xmlns="http://www.w3.org/2000/svg" width="1000" height="1000" viewBox="0 0 1000 1000" version="1.1">
	<path d="M 383.116 96.417 C 358.851 142.543, 331.128 177.534, 301.175 199.842 C 286.402 210.844, 263.344 224.756, 245.402 233.490 C 232.542 239.750, 232.267 239.954, 230.246 244.683 C 220.332 267.886, 209.895 293.209, 210.166 293.399 C 210.350 293.527, 216.981 297.627, 224.903 302.510 C 238.797 311.074, 257.025 324.301, 256.976 325.782 C 256.963 326.177, 253.635 328.853, 249.582 331.728 C 216.494 355.198, 184.101 384.214, 169.459 403.500 C 163.608 411.206, 154.671 429.372, 151.994 439 C 149.081 449.478, 148.362 465.430, 150.371 475 C 153.918 491.887, 166.265 508.861, 181.500 517.794 C 190.143 522.861, 203.793 527.468, 214.895 529.065 C 225.254 530.555, 246.563 529.742, 256.981 527.460 C 310.038 515.838, 351.566 478.007, 364.742 429.294 C 367.136 420.443, 367.395 417.767, 367.430 401.500 C 367.467 384.371, 367.317 382.941, 364.326 371.952 C 362.597 365.601, 359.046 355.801, 356.435 350.176 C 351.896 340.397, 351.770 339.889, 353.556 338.583 C 357.997 335.335, 397.421 312.090, 415.633 301.980 C 488.620 261.465, 562.221 231, 587.116 231 C 590.670 231, 591.250 231.353, 592.463 234.257 C 595.046 240.440, 596.237 250.550, 596.143 265.500 C 596.026 284.140, 593.576 301.172, 587.398 326.304 C 584.856 336.647, 582.980 345.313, 583.229 345.563 C 583.479 345.813, 596.467 350.334, 612.092 355.611 L 640.500 365.206 658 363.120 C 683.831 360.041, 711.260 358.621, 728.383 359.477 C 736.523 359.884, 742.804 360.565, 742.341 360.990 C 739.911 363.220, 697.856 374.739, 620.443 394.378 C 498.327 425.358, 458.487 438.674, 428.414 458.561 C 384.823 487.388, 388.954 536.938, 436.955 561 C 465.065 575.091, 509.286 584.327, 573.329 589.484 C 583.684 590.318, 595.223 591, 598.969 591 L 605.781 591 606.389 571.250 C 606.722 560.388, 607.233 546.242, 607.522 539.815 L 608.049 528.130 603.774 527.607 C 601.424 527.320, 594.325 526.816, 588 526.488 C 545.964 524.307, 495.441 516.073, 474.500 507.989 L 471.500 506.831 475.406 504.812 C 487.346 498.638, 522.150 486.614, 554.469 477.496 C 565.402 474.412, 601.832 464.909, 635.424 456.379 C 731.053 432.095, 763.081 422.818, 788.500 412.039 C 807.720 403.889, 820.857 394.922, 828.054 385.039 C 834.737 375.862, 836.331 371.093, 836.422 360 C 836.519 348.173, 834.177 341.337, 826.642 331.455 C 810.380 310.128, 780.544 298.696, 734.312 296.077 C 717.710 295.137, 685.851 296, 667.500 297.887 C 662.550 298.396, 658.358 298.675, 658.184 298.507 C 658.010 298.339, 658.348 293.899, 658.934 288.640 C 660.496 274.631, 660.253 249.459, 658.437 237.231 C 652.841 199.541, 633.480 174.445, 605.412 168.499 C 575.271 162.114, 524.971 176.478, 447 213.737 C 416.234 228.439, 364.103 257.169, 329.768 278.346 C 321.115 283.683, 313.465 288.243, 312.768 288.480 C 312.071 288.717, 308.660 286.299, 305.188 283.106 L 298.876 277.302 306.188 272.990 C 317.343 266.412, 338.507 251.916, 348 244.350 C 373.794 223.795, 403.198 188.388, 425.941 150.500 C 433.752 137.487, 448.757 108.369, 447.980 107.735 C 447.037 106.966, 391.849 83, 391.020 83 C 390.555 83, 386.998 89.038, 383.116 96.417 M 278.563 389.618 C 256.098 406.605, 245.094 415.857, 232.941 427.971 C 222.374 438.506, 217.621 444.861, 214.845 452.167 C 210.461 463.703, 212.787 465.509, 232 465.483 C 242.493 465.469, 245.624 465.086, 251.500 463.093 C 291.123 449.660, 312.120 416.500, 301.449 384.212 C 299.956 379.695, 298.232 376.012, 297.618 376.027 C 297.003 376.043, 288.429 382.158, 278.563 389.618 M 453.815 619.880 C 453.642 620.302, 439.814 623.201, 423.086 626.321 C 406.359 629.441, 392.494 632.172, 392.276 632.391 C 391.414 633.252, 397.857 647.948, 401.555 653.556 C 406.696 661.352, 417.705 672.336, 426.730 678.674 L 433.960 683.751 429.230 685.052 C 418.132 688.104, 393.473 697.682, 380.500 703.979 C 357.021 715.376, 342.252 725.864, 329.109 740.475 C 302.520 770.033, 300.298 810.791, 323.493 843.504 C 331.957 855.441, 347.548 868.281, 362.955 876.001 C 411.138 900.146, 491.823 905.968, 604.500 893.430 C 631.171 890.462, 683.847 882.437, 685.229 881.131 C 685.895 880.502, 674.625 820.292, 673.661 819.327 C 673.430 819.097, 663.625 820.491, 651.871 822.426 C 592.059 832.271, 538.273 836.669, 489.500 835.703 C 450.422 834.930, 427.438 831.855, 405 824.397 C 383.342 817.199, 371.035 806.270, 371.006 794.210 C 370.996 790.197, 374.667 784.540, 381.243 778.433 C 411.173 750.641, 501.588 726.487, 613.790 716.309 L 633.080 714.559 632.429 704.030 C 632.072 698.238, 631.267 684.050, 630.640 672.500 L 629.500 651.500 603.500 651.843 C 533.651 652.764, 483.821 643.038, 459.986 623.832 C 456.765 621.236, 453.988 619.458, 453.815 619.880 " stroke="none" fill="black" fill-rule="evenodd"/>
</svg>