<svg xmlns="http://www.w3.org/2000/svg" width="1000" height="1000" viewBox="0 0 1000 1000" version="1.1">
	<path d="M 434.591 98.145 C 430.580 147.035, 419.858 247.274, 418.473 248.825 C 417.891 249.478, 393.191 244.879, 382.002 242.034 C 358.805 236.137, 333.551 226.184, 315.820 215.950 C 310.878 213.098, 306.475 211.155, 306.035 211.632 C 303.897 213.951, 270 261.361, 270 262.033 C 270 262.458, 274.163 265.276, 279.250 268.296 C 312.878 288.256, 353.686 302.905, 395.431 310 C 401.992 311.115, 407.588 312.255, 407.866 312.533 C 408.640 313.307, 402.178 342.836, 397.916 358 C 386.293 399.357, 358.105 465.667, 332.664 511.500 L 326.558 522.500 326.820 544.500 C 326.965 556.600, 327.323 568.300, 327.617 570.500 L 328.151 574.500 337.325 574.242 C 390.825 572.734, 438.706 567.261, 491.372 556.633 L 508.243 553.228 507.580 564.864 C 504.974 610.562, 503.234 676.788, 502.183 770.280 L 501.500 831.061 487.500 821.461 C 467.876 808.005, 438.523 789.453, 420.111 778.870 C 401.712 768.295, 384.336 759.330, 383.621 760.046 C 383.102 760.565, 356 816.007, 356 816.551 C 356 816.716, 362.413 820.181, 370.250 824.251 C 405.404 842.506, 460.562 878.659, 506.303 913.425 L 522.701 925.888 544.575 912.624 L 566.449 899.361 566.168 826.930 C 565.729 713.612, 567.946 617.563, 572.634 546.834 L 573.274 537.168 577.887 536.029 C 580.424 535.402, 595.100 531.261, 610.500 526.827 C 625.900 522.393, 639.288 518.541, 640.250 518.266 C 641.846 517.811, 642 515.893, 642 496.409 L 642 475.051 633.750 467.970 C 614.083 451.090, 591.811 439.640, 568.634 434.494 C 542.866 428.773, 524.796 443.099, 517.663 474.901 C 516.359 480.717, 514.726 485.573, 513.924 486.020 C 507.782 489.446, 416.672 505.942, 410.110 504.817 C 408.500 504.541, 409.384 502.063, 417.005 485.500 C 444.319 426.138, 460.599 378.475, 469.436 332 C 470.848 324.575, 472.219 317.556, 472.482 316.403 C 472.920 314.488, 473.886 314.250, 483.635 313.653 C 530.693 310.774, 584.240 295.489, 635.008 270.444 L 654.182 260.986 651.729 256.743 C 650.380 254.409, 643.988 242.825, 637.525 231 C 631.063 219.175, 625.142 208.490, 624.368 207.255 L 622.961 205.011 614.730 209.444 C 588.042 223.819, 552.102 237.098, 521.500 243.890 C 511.022 246.215, 483.955 250.288, 483.304 249.637 C 483.059 249.393, 484.229 238.012, 485.902 224.346 C 489.873 191.921, 492.405 167.847, 495.454 133.500 C 496.822 118.100, 498.184 103.125, 498.482 100.223 C 498.868 96.462, 498.661 94.830, 497.762 94.542 C 497.068 94.319, 485.925 93.429, 473 92.562 C 460.075 91.696, 446.300 90.718, 442.388 90.389 L 435.276 89.791 434.591 98.145 M 691.941 610.750 C 691.909 612.263, 691.096 626.325, 690.136 642 C 689.096 658.976, 688.758 670.753, 689.301 671.125 C 689.803 671.468, 692.738 672.046, 695.824 672.409 C 709.116 673.971, 727.824 679.926, 742.500 687.266 C 768.168 700.103, 784.163 715.682, 796.038 739.413 C 799.317 745.965, 802 751.976, 802 752.770 C 802 753.564, 802.563 754.002, 803.250 753.742 C 803.938 753.483, 817.438 748.873, 833.250 743.499 C 855.039 736.094, 861.998 733.337, 861.992 732.114 C 861.978 729.528, 852.713 708.820, 847.992 700.825 C 822.597 657.817, 779.561 627.004, 726.078 613.536 C 714.779 610.690, 699.830 608.008, 695.250 608.003 C 692.385 608, 691.993 608.326, 691.941 610.750 M 393.885 643.861 C 388.777 647.848, 339.540 680.268, 321.955 691.224 C 281.753 716.269, 244.569 735.968, 226.032 742.039 C 217.560 744.813, 215.435 745.166, 211.787 744.400 C 207.635 743.528, 207.490 743.368, 207.195 739.310 C 206.821 734.160, 211.278 720.380, 216.998 709.004 C 219.235 704.555, 220.829 700.532, 220.540 700.065 C 219.784 698.842, 169.516 667, 168.341 667 C 165.832 667, 152.574 694.768, 148.071 709.454 C 133.344 757.487, 150.981 794.507, 193.922 805.699 C 207.521 809.243, 222.827 809.263, 236 805.754 C 269.984 796.701, 321.139 768.849, 400.269 716.317 L 434.037 693.898 429.942 688.199 C 427.689 685.065, 419.469 673.396, 411.673 662.269 C 403.878 651.142, 397.223 642.029, 396.885 642.019 C 396.547 642.008, 395.197 642.838, 393.885 643.861 " stroke="none" fill="black" fill-rule="evenodd"/>
</svg>