<svg xmlns="http://www.w3.org/2000/svg" width="1000" height="1000" viewBox="0 0 1000 1000" version="1.1">
	<path d="M 144.181 196.099 C 139.056 212.652, 135.006 226.301, 135.181 226.429 C 135.356 226.558, 138.200 227.715, 141.500 229 C 165.768 238.449, 192.081 255.849, 211 274.958 C 233.449 297.633, 247.455 323.362, 254.218 354.352 C 256.161 363.254, 256.437 367.509, 256.466 389 C 256.504 416.924, 255.138 427.201, 247.847 453.843 C 216.711 567.615, 155.063 698.437, 93.894 780.545 C 88.452 787.849, 84.022 794.202, 84.048 794.663 C 84.133 796.156, 140.300 841.102, 141.064 840.288 C 141.471 839.855, 147.301 829.600, 154.019 817.500 C 214.083 709.316, 290.910 592.665, 356.872 509.500 C 432.621 413.995, 496.689 356.830, 547.660 339.270 C 558.384 335.576, 558.666 335.536, 574 335.566 C 588.282 335.594, 590.168 335.818, 598 338.416 C 662.128 359.693, 725.307 451.579, 783.017 607.500 C 806.876 671.959, 833.122 760.982, 847.585 826.500 C 848.556 830.900, 849.682 834.887, 850.086 835.360 C 850.668 836.042, 910.522 824.464, 911.848 823.413 C 912.348 823.017, 908.755 807.319, 901.339 777.500 C 872.036 659.679, 834.836 553.351, 793.933 470.500 C 736.473 354.114, 672.391 288.243, 602.688 273.919 C 553.456 263.802, 503.461 280.267, 445.004 325.849 C 409.457 353.567, 363.208 400.639, 323.024 450 C 317.875 456.325, 313.120 462.102, 312.458 462.837 C 311.730 463.646, 312.187 460.087, 313.613 453.837 C 318.967 430.370, 320.376 417.197, 320.440 390 C 320.487 370.050, 320.107 362.018, 318.693 353.096 C 307.334 281.413, 264.629 222.951, 195.311 184.188 C 182.699 177.135, 157.711 166, 154.500 166.002 C 153.950 166.002, 149.306 179.546, 144.181 196.099 " stroke="none" fill="black" fill-rule="evenodd"/>
</svg>