<svg xmlns="http://www.w3.org/2000/svg" width="1000" height="1000" viewBox="0 0 1000 1000" version="1.1">
	<path d="M 518.539 68.043 C 496.908 71.447, 476.872 83.894, 465.508 100.989 C 452.570 120.449, 439.370 160.295, 434.032 196 C 433.415 200.125, 432.679 204.584, 432.396 205.910 L 431.882 208.320 377.691 207.678 C 297.361 206.727, 212.433 202.694, 150.688 196.899 C 144.192 196.289, 138.732 195.950, 138.555 196.145 C 138.377 196.340, 137.041 208.650, 135.585 223.500 C 134.128 238.350, 132.678 252.392, 132.362 254.704 C 131.839 258.523, 132.003 258.956, 134.143 259.429 C 137.033 260.066, 181.309 263.486, 212.500 265.479 C 268.263 269.044, 354.824 271.953, 406.154 271.986 L 427.808 272 428.473 282.750 C 430.412 314.092, 435.266 339.423, 443.432 360.822 C 460.142 404.608, 489.710 432.391, 531 443.099 L 535.500 444.266 509 451.016 C 428.976 471.402, 371.193 492.291, 333.567 514.435 C 314.346 525.747, 295.837 541.656, 287.067 554.403 C 278.153 567.358, 273.268 584.315, 274.359 598.511 C 277.125 634.488, 306.277 658.444, 357.435 666.780 L 368.371 668.561 357.817 676.708 C 335.695 693.786, 315.754 714.035, 304.891 730.451 C 299.123 739.168, 292.431 753.326, 289.978 762 C 288.765 766.292, 287.618 774.011, 287.297 780.046 C 285.272 818.122, 308.045 848.238, 359 874.872 C 415.009 904.147, 485.128 921.005, 584.500 929.088 C 616.964 931.728, 733.328 931.033, 736.182 928.181 C 736.860 927.503, 731.571 866.238, 730.764 865.431 C 730.532 865.199, 723.402 865.431, 714.921 865.947 C 663.824 869.059, 607.210 867.805, 556.500 862.438 C 471.370 853.429, 400.445 831.362, 362.743 802.154 C 350.090 792.352, 348.186 784.810, 354.969 771.366 C 368.874 743.806, 418.775 706.254, 483.738 674.464 L 504.977 664.071 504.400 658.285 C 504.083 655.103, 502.839 640.575, 501.636 626 L 499.448 599.500 495.474 599.686 C 493.288 599.788, 482.725 601.008, 472 602.397 C 424.848 608.504, 380.071 607.974, 354.237 601.003 C 346.238 598.845, 338.936 595.353, 338.286 593.376 C 337.578 591.218, 348.334 580.886, 357.880 574.555 C 383.785 557.374, 427.704 539.732, 486 523.091 C 543.322 506.728, 620.625 490.161, 691 479.159 L 714.500 475.484 715.025 443.492 C 715.313 425.896, 715.494 411.381, 715.426 411.235 C 715.358 411.089, 706.797 410.074, 696.401 408.979 C 675.458 406.774, 652.101 402.793, 608.540 394.002 C 562.599 384.731, 545.912 381.110, 539.931 379.113 C 517.954 371.775, 502.936 348.923, 496.061 312.362 C 493.966 301.219, 492.002 283.093, 492.001 274.878 L 492 270.257 505.250 269.578 C 612.258 264.095, 723.013 250.318, 827.199 229.527 C 862.117 222.559, 868 221.072, 868 219.213 C 868 217.839, 855.899 165.940, 854.343 160.645 C 853.929 159.235, 853.163 158.925, 851.149 159.351 C 729.996 185.007, 629.199 198.592, 508.183 205.574 L 496.867 206.227 497.527 202.364 C 500.927 182.468, 509.528 153.273, 515.289 142.072 C 519.984 132.944, 522.189 131.577, 532.893 131.157 C 543.284 130.750, 557.301 133.758, 572.142 139.581 C 584.945 144.603, 608.192 156.456, 621.673 164.834 L 632.846 171.777 650.472 146.844 C 660.166 133.130, 668.300 121.368, 668.549 120.705 C 669.106 119.219, 653.034 108.732, 635.499 99.141 C 609.643 84.998, 583.004 74.512, 561.500 70.014 C 550.052 67.619, 527.737 66.595, 518.539 68.043 " stroke="none" fill="black" fill-rule="evenodd"/>
</svg>