<svg xmlns="http://www.w3.org/2000/svg" width="1000" height="1000" viewBox="0 0 1000 1000" version="1.1">
	<path d="M 420 108.200 C 385.142 137.500, 350.253 157.778, 317.159 167.974 C 277.811 180.096, 244.676 173.785, 218.845 149.248 L 213.190 143.877 187.615 162.188 C 173.548 172.260, 162.031 180.871, 162.020 181.324 C 162.009 181.778, 167.062 187.199, 173.250 193.371 C 195.138 215.204, 221.171 229.165, 251.237 235.193 C 260.423 237.034, 265.820 237.452, 280.500 237.456 C 290.820 237.458, 301.700 236.904, 306 236.156 C 316.414 234.346, 338.478 228.556, 346.566 225.511 C 350.274 224.116, 353.486 223.152, 353.703 223.370 C 354.078 223.744, 311.524 294.456, 285.207 337.190 C 265.698 368.870, 255.587 384.279, 201.858 464.211 C 173.868 505.852, 150.754 540.502, 150.493 541.211 C 150.204 541.994, 153.637 544.854, 159.242 548.500 C 164.315 551.800, 175.849 560.061, 184.874 566.857 L 201.281 579.214 203.891 575.857 C 223.543 550.569, 261.989 512.237, 290.500 489.504 C 300.386 481.622, 322.603 466.304, 328.963 462.987 C 331.405 461.713, 331.412 461.722, 329.837 464.125 C 315.549 485.932, 295.580 520.434, 287.392 537.461 C 264.024 586.056, 259.556 620.608, 273.031 648.500 C 282.146 667.365, 298.669 680.941, 321 687.912 C 356.298 698.931, 395.741 687.069, 430.211 655.068 C 463.205 624.437, 484.698 580.694, 492.646 528 C 494.726 514.208, 494.968 486.289, 493.111 474.500 C 488.314 444.060, 476.453 420.350, 458.012 404.337 L 452.066 399.174 465.681 382.837 C 528.229 307.784, 604.222 237.612, 656.405 206.722 C 668.824 199.370, 683.413 192.467, 688.814 191.387 C 691.822 190.786, 692.063 190.981, 694.065 195.628 C 698.960 206.995, 703.690 230.416, 706.459 257 C 708.080 272.566, 710.360 306.033, 709.825 306.416 C 709.646 306.544, 703.425 308.826, 696 311.487 C 609.070 342.643, 549.927 384.163, 523.252 432.760 C 515.323 447.206, 508.282 468.336, 504.845 488 C 502.642 500.609, 503.166 528.367, 505.864 541.954 C 513.458 580.197, 532.653 614.387, 562.598 643.009 C 584.223 663.680, 634.141 703.773, 677.687 735.448 L 697.432 749.811 701.466 748.226 C 703.685 747.354, 716.073 742.335, 728.995 737.071 L 752.490 727.500 755.664 695.979 C 757.409 678.643, 759.995 650.518, 761.410 633.479 C 765.398 585.458, 764.977 588.864, 766.855 589.413 C 779.194 593.024, 823.280 602.075, 824.088 601.164 C 824.570 600.619, 833.114 544.684, 833.411 540.129 C 833.475 539.141, 828.888 537.840, 817 535.475 C 801.449 532.380, 785.839 528.694, 774.489 525.436 L 769.479 523.997 770.158 512.249 C 771.723 485.187, 773.075 452.291, 774.026 418.132 L 775.039 381.763 787.642 368.632 C 794.573 361.409, 805.005 349.912, 810.823 343.082 L 821.402 330.663 818.329 305.793 C 816.639 292.115, 815.065 280.732, 814.831 280.498 C 814.597 280.264, 805.202 281.987, 793.953 284.328 L 773.500 288.584 772.778 282.042 C 772.380 278.444, 771.358 267.611, 770.507 257.968 C 763.629 180.092, 746.191 140.572, 713.716 129.263 C 701.345 124.955, 684.886 125.801, 666.500 131.690 C 633.265 142.335, 588.548 172.012, 536.539 217.938 C 487.953 260.842, 428.446 324.604, 392.204 372.593 L 386.908 379.606 375.144 380.782 C 362.170 382.079, 349.397 385.100, 334.745 390.337 L 325.126 393.775 331.719 383.138 C 358.103 340.571, 414.236 247.537, 454.283 180 C 465.861 160.475, 475.946 143.548, 476.694 142.384 C 477.987 140.372, 476.903 139.304, 454.777 120.810 C 441.975 110.108, 431.050 101.096, 430.500 100.783 C 429.950 100.470, 425.225 103.808, 420 108.200 M 658.500 396.815 C 614.038 420.131, 586.945 444.120, 575.984 469.879 C 574.316 473.798, 571.738 481.391, 570.255 486.752 C 567.871 495.370, 567.555 498.297, 567.529 512 C 567.504 525.174, 567.856 528.850, 569.871 536.500 C 575.594 558.221, 586.747 576.940, 604.426 594.500 C 621.871 611.828, 692.439 669.097, 694.064 667.245 C 694.720 666.497, 696.325 648.893, 699.966 602.500 C 701.045 588.750, 702.128 575.214, 702.374 572.420 L 702.820 567.341 696.160 564.071 C 666.407 549.463, 646.828 530.819, 638.152 508.834 C 632.453 494.395, 631.501 488.934, 631.552 471 C 631.596 455.683, 631.801 453.891, 634.402 446 C 639.791 429.656, 649.663 413.732, 663.620 398.873 C 669.159 392.975, 670.757 390.929, 669.750 391.024 C 669.612 391.036, 664.550 393.643, 658.500 396.815 M 703.701 449.945 C 696.828 459.088, 694.532 464.502, 694.559 471.500 C 694.591 479.920, 697.381 487.381, 702.356 492.356 L 706.471 496.471 707.132 492.485 C 708.007 487.210, 709.419 444, 708.717 444 C 708.416 444, 706.159 446.675, 703.701 449.945 M 394.365 481.797 C 348.546 553.145, 333.462 582.589, 329.776 607.881 C 328.140 619.104, 329.088 621.777, 335.937 625.250 C 359.996 637.453, 400.321 606.447, 418.067 562.101 C 432.422 526.227, 434.849 484.296, 423.824 462.648 C 421.156 457.410, 417.316 452.335, 415.489 451.634 C 414.507 451.257, 408.129 460.365, 394.365 481.797 M 147.334 638.250 C 131.490 662.461, 123.717 692.847, 126.976 717.842 C 135.691 784.698, 200.242 826.946, 329.500 850.393 C 407.065 864.464, 513.921 870.831, 627.712 868.162 C 675.834 867.034, 716.711 865.346, 752.500 863.009 C 772.059 861.731, 831.404 856.916, 831.750 856.578 C 832.069 856.266, 826.099 798.275, 825.429 795.179 C 825.013 793.259, 824.457 792.952, 822.213 793.404 C 818.347 794.183, 773.786 797.691, 745.500 799.444 C 556.845 811.131, 402.515 804.176, 302.292 779.471 C 227.391 761.008, 189.891 736.490, 190.024 706.068 C 190.066 696.513, 193.327 685.745, 199.243 675.629 C 200.809 672.950, 201.958 670.634, 201.795 670.484 C 199.839 668.669, 152.355 632.001, 151.962 632 C 151.666 632, 149.584 634.813, 147.334 638.250 " stroke="none" fill="black" fill-rule="evenodd"/>
</svg>