<svg xmlns="http://www.w3.org/2000/svg" width="1000" height="1000" viewBox="0 0 1000 1000" version="1.1">
	<path d="M 431.492 81.250 C 430.174 84.138, 424.414 97.045, 418.693 109.933 L 408.291 133.367 416.073 138.044 C 420.353 140.616, 426.925 144.897, 430.678 147.557 C 438.411 153.038, 458.024 172.129, 456.500 172.693 C 455.950 172.896, 439.750 178.389, 420.500 184.899 C 401.250 191.408, 378.300 199.305, 369.500 202.448 C 341.372 212.493, 318.497 217.433, 285.493 220.590 C 269.661 222.105, 244.589 222.134, 199.557 220.691 L 193.614 220.500 188.995 251.354 C 185.955 271.665, 184.739 282.323, 185.438 282.546 C 193.702 285.179, 255.151 286.848, 279.500 285.100 C 315.928 282.484, 353.357 275.657, 378.257 267.085 L 384.015 265.103 369.882 293.165 C 358.710 315.346, 356.037 321.414, 357.124 322.120 C 357.881 322.611, 361.650 324.763, 365.500 326.902 C 387.306 339.018, 423.881 366.438, 460.713 398.282 C 470.180 406.467, 478.341 412.907, 478.848 412.594 C 479.356 412.280, 486.383 403.902, 494.465 393.976 C 510.128 374.737, 515.667 365.685, 520.849 350.855 C 531.008 321.780, 541.141 263.019, 541.375 231.819 C 541.494 216.001, 541.603 215.116, 543.500 214.705 C 544.600 214.467, 554.725 212.200, 566 209.668 C 607.603 200.325, 640.067 195.998, 668.499 196.004 C 696.541 196.010, 712.150 199.336, 720.443 207.072 C 724.371 210.736, 724.500 211.061, 724.500 217.270 C 724.500 222.711, 723.926 224.814, 720.718 231.135 C 707.685 256.811, 669.180 294.029, 611 337.182 C 532.418 395.468, 411.251 468.922, 286 534.202 C 268.125 543.519, 253.092 551.540, 252.593 552.027 C 251.243 553.347, 295.745 612.312, 297.564 611.614 C 298.351 611.312, 306.533 606.166, 315.747 600.178 C 377.299 560.178, 452.479 524.904, 514.211 507.060 C 552.523 495.986, 584.078 490.982, 615.356 491.020 C 645.987 491.057, 668.980 495.904, 691.260 507.022 C 731.624 527.164, 760.054 571.024, 768.705 626.500 C 771.044 641.500, 771.024 673.205, 768.665 689 C 764.815 714.785, 757.792 737.487, 746.545 760.500 C 727.095 800.297, 699.525 829.402, 665.500 846.057 C 632.847 862.040, 600.115 865.775, 561.128 857.967 C 555.974 856.935, 551.556 855.890, 551.312 855.645 C 551.067 855.400, 553.601 846.346, 556.942 835.524 C 574.113 779.917, 582.927 730.042, 582.979 688.189 L 583 671.877 587.250 672.400 C 589.587 672.688, 595.325 673.187, 600 673.510 C 612.621 674.381, 630.725 677.468, 646.444 681.430 C 654.114 683.363, 660.453 684.845, 660.531 684.722 C 660.609 684.600, 664.823 671.043, 669.897 654.596 C 676.702 632.534, 678.802 624.496, 677.905 623.941 C 677.237 623.528, 669.055 621.313, 659.723 619.019 C 639.887 614.142, 614.629 610.266, 597.573 609.480 C 590.933 609.175, 582.773 608.690, 579.440 608.403 L 573.379 607.881 571.597 600.191 C 566.702 579.064, 554.176 543.749, 543.935 522.201 L 538.090 509.902 534.795 511.592 C 531.638 513.211, 504.358 527.940, 489.328 536.141 L 482.157 540.053 487.466 551.777 C 490.386 558.225, 495.028 569.575, 497.781 577 C 502.873 590.732, 509.538 612.795, 508.813 613.520 C 508.594 613.740, 502.808 615.097, 495.957 616.537 C 471.708 621.634, 449.316 628.344, 427 637.203 C 401.612 647.281, 371.402 663, 372.404 665.611 C 372.697 666.374, 380.437 678.472, 389.605 692.496 L 406.273 717.995 409.386 716.078 C 426.206 705.726, 461.064 691.394, 487.128 684.114 C 493.503 682.333, 517.010 677, 518.483 677 C 519.405 677, 519.030 704.799, 517.973 714.789 C 515.649 736.760, 512.053 756.589, 505.875 781.500 C 500.663 802.512, 491.952 831, 490.738 831 C 490.210 831, 485.975 828.703, 481.327 825.895 C 476.679 823.088, 472.721 820.950, 472.532 821.145 C 472.343 821.340, 465.332 832.525, 456.952 846 C 448.573 859.475, 441.074 871.481, 440.289 872.680 C 438.909 874.788, 439.208 875.067, 449.181 880.991 C 462.610 888.968, 486.487 900.625, 501.063 906.320 C 559.140 929.011, 614.936 931.735, 667 914.420 C 728.663 893.914, 781.070 843.020, 810.035 775.516 C 838.325 709.586, 842.237 634.198, 820.629 571.346 C 815.501 556.431, 813.434 551.594, 806.461 538.197 C 773.364 474.613, 720.028 437.883, 647.629 428.818 C 642.058 428.120, 627.713 427.538, 615.751 427.525 C 603.789 427.511, 594.002 427.401, 594.001 427.280 C 594.001 427.160, 597.487 424.720, 601.750 421.858 C 655.860 385.535, 706.473 344.943, 737 313.388 C 757.847 291.838, 769.165 276.723, 778.099 258.500 C 787.360 239.609, 790.482 223.562, 788.086 207.174 C 784.070 179.711, 768.739 158.743, 743.483 146.171 C 721.778 135.367, 697.344 131.280, 660.542 132.298 C 625.176 133.277, 590.238 138.395, 542.642 149.572 C 532.270 152.007, 523.190 154, 522.464 154 C 521.739 154, 519.475 151.251, 517.434 147.891 C 505.410 128.098, 484.022 106.676, 460.259 90.627 C 450.591 84.097, 436.315 76, 434.470 76 C 434.150 76, 432.811 78.362, 431.492 81.250 M 451 241.940 C 420.519 251.926, 385.986 264.160, 386.029 264.956 C 386.045 265.255, 389.758 267.525, 394.279 270 C 406.466 276.671, 430.406 292.711, 448.201 306.129 C 456.837 312.640, 464.103 317.637, 464.349 317.234 C 467.200 312.558, 479.058 239.874, 477.825 234.637 C 477.579 233.595, 471.019 235.381, 451 241.940 M 252.250 617.706 C 251.012 617.944, 250 618.730, 250 619.453 C 250 620.835, 255.556 669.543, 256.519 676.605 L 257.079 680.710 264.790 681.307 C 269.030 681.636, 274.442 682.592, 276.816 683.432 C 287.663 687.267, 290.154 691.955, 290.154 708.533 C 290.154 738.506, 278.909 772.982, 255.813 813.821 C 248.946 825.963, 247.925 828.344, 249.107 829.469 C 249.873 830.198, 262.691 838.649, 277.592 848.247 L 304.684 865.699 317.592 853.025 C 332.785 838.108, 345.629 829.163, 366.500 818.962 C 397.399 803.860, 430.559 795.511, 469.500 793.027 C 478.300 792.466, 486.512 792.005, 487.750 792.004 L 490 792 490 760.347 L 490 728.694 471.250 729.324 C 429.988 730.709, 386.797 740.131, 351.750 755.394 C 349.688 756.292, 348 756.887, 348 756.717 C 348 756.546, 348.866 752.377, 349.925 747.453 C 354.842 724.578, 355.320 695.333, 351.034 679.500 C 341.571 644.544, 313.247 622.275, 272.836 618.018 C 263.386 617.023, 256.351 616.916, 252.250 617.706 " stroke="none" fill="black" fill-rule="evenodd"/>
</svg>