<svg xmlns="http://www.w3.org/2000/svg" width="1000" height="1000" viewBox="0 0 1000 1000" version="1.1">
	<path d="M 444.768 98.182 L 433.223 127.364 438.861 130.745 C 445.222 134.558, 451.806 140.507, 452.978 143.500 C 453.925 145.917, 450.491 155.598, 445.352 165 C 432.287 188.904, 408.594 219.206, 380.792 247.570 C 373.206 255.308, 367 261.981, 367 262.397 C 367 263.032, 402.646 307.609, 406.581 311.895 C 407.659 313.070, 413.411 310.259, 443.033 294.081 C 462.378 283.516, 478.364 275.030, 478.558 275.224 C 479.082 275.748, 470.569 286.175, 450.946 309.043 C 425.403 338.810, 337.908 444.081, 335.624 447.794 C 335.076 448.683, 342.107 456.502, 358.104 472.794 C 370.906 485.832, 381.766 496.657, 382.236 496.849 C 382.706 497.040, 390.386 490.065, 399.301 481.349 C 416.947 464.097, 431.354 451.727, 451.500 436.534 C 463.610 427.401, 487.664 411.098, 496.241 406.210 L 499.982 404.078 500.643 406.714 C 501.007 408.164, 503.840 421.743, 506.938 436.890 L 512.571 464.429 517.286 464.139 C 521.861 463.857, 522 463.932, 522 466.674 C 521.999 478.243, 513.501 515.558, 505.415 539.499 L 500.011 555.500 510.180 581.750 C 515.773 596.188, 520.760 608, 521.262 608 C 521.764 608, 530.123 605.574, 539.838 602.609 C 593.255 586.304, 642.821 585.104, 672.304 599.402 C 689.357 607.672, 704.626 626.337, 708.787 644 C 715.013 670.428, 704.244 700.538, 677.625 731.126 C 667.991 742.197, 659.434 748.607, 644.500 755.944 C 605.648 775.029, 547.905 782.613, 503.750 774.429 C 490.799 772.029, 490.818 772.081, 501.675 768.558 C 533.982 758.076, 555.458 737.927, 564.091 710 C 567.417 699.241, 567.439 681.647, 564.140 671 C 557.292 648.898, 543.521 633.237, 521.500 622.506 C 502.547 613.271, 481.032 609.679, 457.586 611.836 C 426.016 614.741, 402.591 624.153, 384.502 641.203 C 366.621 658.057, 358.421 676.146, 357.288 701.239 L 356.714 713.978 353.107 713.485 C 351.123 713.215, 339.825 712.106, 328 711.023 C 316.175 709.939, 300.875 708.493, 294 707.810 C 287.125 707.127, 269.575 706.560, 255 706.549 C 233.442 706.534, 226.637 706.875, 218.510 708.378 C 191.669 713.342, 172.926 724.505, 161.015 742.624 C 153.674 753.791, 151.493 761.814, 151.534 777.500 C 151.563 788.980, 151.875 791.354, 154.203 797.806 C 170.794 843.797, 239.424 884.574, 344.500 910.875 C 403.393 925.616, 459.744 932.600, 528.500 933.681 C 629.453 935.268, 744.145 925.174, 826.500 907.454 C 848.869 902.641, 850.202 902.221, 849.577 900.190 C 849.292 899.260, 845.634 885.677, 841.449 870.003 C 837.264 854.330, 833.664 841.331, 833.449 841.116 C 833.235 840.901, 825.508 842.353, 816.279 844.343 C 762.761 855.883, 701.965 863.539, 627 868.180 C 599.261 869.897, 499.420 869.931, 480 868.230 C 381.915 859.637, 295.741 836.214, 244.039 804.093 C 228.708 794.568, 215 781.946, 215 777.354 C 215 775.145, 222.483 772.304, 231.891 770.943 C 245.001 769.046, 278.244 770.322, 321 774.365 C 341.625 776.315, 364.866 778.341, 372.646 778.866 L 386.791 779.822 398.146 791.215 C 428.889 822.065, 472.216 838.624, 528 840.843 C 590.991 843.350, 652.660 828.694, 693.500 801.512 C 731.601 776.153, 764.983 725.480, 772.482 681.619 C 774.446 670.129, 774.432 648.738, 772.452 637.385 C 766.546 603.520, 744.667 570.355, 715 550.302 C 708.782 546.099, 693.911 538.760, 685.460 535.724 C 676.027 532.335, 657.865 528.382, 645.029 526.926 C 633.073 525.569, 593.672 526.217, 582.600 527.953 C 578.806 528.547, 575.624 528.914, 575.531 528.767 C 575.437 528.620, 576.456 523.837, 577.796 518.138 L 580.231 507.776 583.366 508.368 C 585.089 508.694, 591.450 509.892, 597.500 511.031 C 611.528 513.671, 638.986 514.715, 651.500 513.083 C 691.593 507.855, 718.597 488.492, 735.430 452.900 C 758.311 404.523, 746.076 356.083, 704.205 329.271 C 686.469 317.914, 660.912 308.992, 634.500 304.936 C 623.096 303.184, 597.752 303.434, 583.550 305.438 C 569.766 307.383, 549.898 312.311, 535.510 317.352 C 530.015 319.277, 525.355 320.688, 525.154 320.487 C 524.953 320.287, 526.788 317.507, 529.231 314.311 C 548.088 289.643, 572.306 247.102, 593.553 201.321 L 596.885 194.141 574.396 178.571 C 562.027 170.007, 551.365 163.022, 550.703 163.050 C 550.041 163.077, 539.825 168.431, 528 174.948 C 516.175 181.464, 506.384 186.687, 506.241 186.555 C 506.099 186.424, 507.286 183.432, 508.880 179.908 C 516.510 163.038, 518.878 145.538, 515.552 130.590 C 510.438 107.601, 491.594 85.880, 465.275 72.636 C 461.301 70.636, 457.659 69, 457.182 69 C 456.705 69, 451.119 82.132, 444.768 98.182 M 593 368.436 C 570.984 371.616, 548.789 379.089, 522 392.339 L 505.500 400.500 520.500 401.108 C 531.994 401.574, 537.136 402.237, 542.500 403.946 C 559.055 409.221, 571.913 419.856, 578.702 433.886 L 582.500 441.736 589.500 443.798 C 606.668 448.854, 627.423 451.378, 640.576 450.011 C 659.662 448.026, 668.479 443.099, 675.496 430.500 C 683.679 415.804, 685.277 400.158, 679.448 391.793 C 667.949 375.292, 625.303 363.770, 593 368.436 M 453.500 676.497 C 436.393 679.716, 425.185 686.849, 421.982 696.556 C 420.747 700.298, 421.039 712.636, 422.416 714.864 C 424.098 717.585, 453.857 714.993, 473 710.457 C 485.849 707.412, 494.622 703.267, 499.392 697.987 C 505.385 691.354, 504.103 685.489, 495.567 680.487 C 486.824 675.362, 468.678 673.642, 453.500 676.497 " stroke="none" fill="black" fill-rule="evenodd"/>
</svg>