<svg xmlns="http://www.w3.org/2000/svg" width="1000" height="1000" viewBox="0 0 1000 1000" version="1.1">
	<path d="M 427 88.003 C 427 90.662, 418.425 139.431, 413.883 162.604 L 408.766 188.708 403.133 190.469 C 382.774 196.831, 330.495 216.956, 305.656 227.993 C 298.041 231.376, 291.564 233.897, 291.261 233.595 C 289.216 231.550, 278.026 175.140, 277.985 166.672 C 277.976 164.927, 277.632 162.970, 277.220 162.322 C 276.650 161.425, 269.807 161.609, 248.486 163.095 C 233.094 164.168, 218.982 165.291, 217.128 165.591 L 213.755 166.137 214.458 173.318 C 216.398 193.126, 223.921 230.889, 230.421 253.442 L 233.694 264.801 224.597 270.609 C 156.480 314.103, 125.131 360.874, 129.156 413 C 131.942 449.061, 156.092 486.096, 196.214 515.833 C 209.260 525.502, 215.514 529.383, 231.340 537.626 L 245.181 544.835 259.840 531.710 C 280.776 512.964, 298.613 496.414, 321.223 474.754 L 340.945 455.860 353.223 467.125 C 359.975 473.320, 370 481.953, 375.500 486.309 C 392.882 500.074, 427.500 522.003, 429.077 520.247 C 430.066 519.146, 458 465.854, 458 465.068 C 458 464.700, 454.512 462.428, 450.250 460.020 C 431.269 449.296, 410.382 433.705, 393.750 417.844 L 385 409.500 392.573 401 C 415.610 375.144, 427.431 353.875, 441.482 313 C 446.945 297.109, 455.581 267.403, 459.623 250.597 C 462.360 239.220, 462.627 238.636, 465.666 237.366 C 471.378 234.979, 517.264 222.117, 538.411 216.974 C 582.471 206.259, 621.468 199.523, 657.500 196.405 C 680.468 194.417, 717.582 194.945, 734 197.493 C 771.267 203.278, 794.745 215.613, 803.369 233.938 C 806.080 239.698, 806.502 241.783, 806.822 251 C 807.109 259.232, 806.743 263.233, 805.130 269.524 C 802.822 278.527, 798.191 290.292, 794.430 296.710 L 791.928 300.979 788.161 298.601 C 771.021 287.781, 747.676 279.637, 721.500 275.344 C 706.311 272.853, 671.221 272.830, 655 275.300 C 588.949 285.359, 534.734 319.755, 511.158 366.559 C 504.925 378.933, 502.598 388.422, 502.589 401.500 C 502.577 419.564, 508.050 433.029, 520.494 445.550 C 528.831 453.938, 536.496 459.129, 547.235 463.658 C 605.539 488.248, 702.857 467.468, 771.877 415.691 C 785.442 405.516, 784.409 405.830, 783.599 412.118 C 780.593 435.449, 752.571 457.160, 709.561 469.483 C 704.645 470.892, 700.494 472.172, 700.338 472.328 C 699.955 472.712, 711.962 533.295, 712.535 533.868 C 714.020 535.353, 741.067 527.043, 757.753 519.975 C 801.912 501.268, 832.763 471.559, 842.879 438 C 846.703 425.314, 847.442 419.665, 847.393 403.500 C 847.337 385.180, 845.498 374.481, 839.804 359.362 L 836.363 350.225 842.305 340.862 C 854.409 321.793, 864.453 297.860, 868.688 278 C 870.070 271.515, 870.481 265.352, 870.418 252 C 870.346 236.555, 870.037 233.383, 867.786 224.989 C 851.605 164.630, 788.932 130.914, 693.105 131.015 C 639.279 131.072, 569.147 142.087, 496.500 161.892 C 486.600 164.591, 478.429 166.732, 478.342 166.650 C 478.255 166.567, 479.690 158.288, 481.530 148.252 C 487.050 118.141, 490.239 96.833, 489.344 96.042 C 488.548 95.339, 432.492 86.963, 428.750 86.988 C 427.788 86.995, 427 87.451, 427 88.003 M 371 269.901 C 350.892 277.762, 335.634 284.213, 321.835 290.687 L 312.171 295.221 315.539 303.091 C 322.402 319.126, 342.177 355.755, 344.869 357.419 C 346.141 358.205, 357.497 344.156, 363.030 334.951 C 368.863 325.244, 376.379 307.093, 383.383 285.795 C 389.320 267.741, 390.562 262.986, 389.329 263.029 C 388.873 263.046, 380.625 266.138, 371 269.901 M 244.826 333.816 C 213.146 356.696, 196.517 376.930, 192.940 396.949 C 189.571 415.802, 201.291 437.548, 225.914 458.131 C 231.092 462.459, 235.853 466, 236.494 466 C 237.731 466, 262.067 443.541, 286.007 420.304 L 300.428 406.307 292.320 393.904 C 282.146 378.341, 270.524 357.452, 262.426 340.173 C 258.990 332.843, 256.019 326.685, 255.822 326.489 C 255.626 326.292, 250.677 329.589, 244.826 333.816 M 666.500 338.034 C 639.841 342.130, 617.366 350.146, 599 362.109 C 589.125 368.542, 573.055 385.146, 569.191 392.910 C 567.436 396.435, 566 399.947, 566 400.715 C 566 402.817, 575.810 406.884, 585.182 408.667 C 596.211 410.765, 623.205 409.947, 637.270 407.088 C 660.610 402.345, 680.047 395.576, 701.249 384.809 C 721.970 374.286, 753.060 351.936, 749.848 349.873 C 746.409 347.664, 731.494 342.546, 722 340.317 C 713.203 338.252, 708.338 337.792, 692 337.482 C 681.275 337.279, 669.800 337.527, 666.500 338.034 M 485.609 482.096 C 485.330 483.418, 484.813 487.650, 484.460 491.500 C 483.483 502.134, 479.427 525.959, 476.118 540.500 C 472.693 555.545, 467.395 574.942, 466.458 575.866 C 465.565 576.746, 411.574 576.391, 349 575.093 C 320.125 574.495, 287.725 573.891, 277 573.752 L 257.500 573.500 256.784 604.951 C 256.390 622.248, 256.172 636.505, 256.299 636.632 C 256.426 636.759, 298.045 637.728, 348.785 638.785 C 399.525 639.842, 441.297 640.964, 441.612 641.279 C 442.474 642.141, 429.105 668.742, 419.870 684.537 C 383.113 747.407, 336.824 796.658, 278 835.487 C 263.099 845.323, 242.619 857.380, 232.832 862.078 L 228.164 864.319 242.324 892.659 C 250.112 908.247, 256.794 921, 257.173 921 C 258.375 921, 283.870 907.024, 295.912 899.763 C 317.276 886.881, 339.574 870.898, 361 853.108 C 376.108 840.565, 410.027 806.628, 422.577 791.500 C 458.020 748.774, 486.642 701.299, 507.884 650 L 513.888 635.500 517.694 634.744 C 519.787 634.328, 532.300 632.193, 545.500 629.999 C 558.700 627.806, 584.581 623.323, 603.014 620.037 C 665.021 608.981, 687.295 606.089, 716.500 605.301 C 738.436 604.709, 749.356 605.558, 758.684 608.581 L 763.869 610.261 764.542 616.545 C 765.988 630.048, 761.375 660.782, 753.970 686.984 C 738.448 741.907, 712.876 789.744, 682.241 821.170 C 636.307 868.289, 588.859 868.591, 531 822.131 C 518.593 812.169, 498.026 791.561, 485.459 776.500 C 479.951 769.900, 475.147 764.275, 474.782 764 C 474.119 763.500, 425 801.725, 425 802.741 C 425 805.284, 457.310 841.335, 471.316 854.420 C 534.536 913.481, 596.362 933.019, 656.415 912.917 C 698.749 898.746, 739.041 862.375, 770.052 810.340 C 794.080 770.020, 812.503 722.785, 821.908 677.384 C 826.249 656.429, 828.041 640.869, 828.061 623.971 C 828.095 593.652, 822.817 578.257, 807.614 564.325 C 796.375 554.027, 780.205 546.997, 759.156 543.258 C 751.544 541.906, 743.784 541.555, 722.500 541.600 C 685.670 541.679, 663.544 544.434, 579 559.471 C 559.475 562.944, 541.643 566.089, 539.373 566.460 L 535.245 567.134 537.641 557.317 C 542.542 537.236, 549 496.755, 549 486.117 L 549 482.311 534.750 481.670 C 526.913 481.318, 512.763 480.729, 503.308 480.361 L 486.115 479.692 485.609 482.096 " stroke="none" fill="black" fill-rule="evenodd"/>
</svg>