<svg xmlns="http://www.w3.org/2000/svg" width="1000" height="1000" viewBox="0 0 1000 1000" version="1.1">
	<path d="M 329.881 68.636 C 307.138 117.863, 298.134 159.331, 297.993 215.500 L 297.956 230.500 295.972 228 C 294.881 226.625, 288.555 217.757, 281.915 208.292 L 269.841 191.084 247.170 206.219 C 234.702 214.542, 222.814 222.574, 220.753 224.066 L 217.005 226.779 228.467 243.139 C 246.542 268.941, 254.919 279.076, 279.383 304.740 C 291.969 317.943, 302.108 329.140, 301.914 329.623 C 301.259 331.249, 209.764 397.904, 149.750 440.474 C 136.688 449.740, 126 457.716, 126 458.199 C 126 459.717, 161.160 509, 162.243 509 C 163.326 509, 169.723 504.507, 224 465.621 C 264.997 436.249, 308.369 404.691, 341.207 380.338 C 359.866 366.501, 367.548 361.400, 372.587 359.503 C 380.712 356.445, 397.998 351.665, 398.633 352.300 C 398.887 352.553, 395.135 355.830, 390.297 359.581 C 350.664 390.308, 315.006 422.620, 299.345 442 C 282.368 463.008, 273.028 481.265, 268.906 501.500 C 267.191 509.917, 267.421 528.020, 269.356 537 C 277.338 574.039, 316.755 595.403, 368.946 590.978 C 414.140 587.147, 456.093 569.622, 490.185 540.334 C 511.175 522.301, 531.897 491.796, 539.999 467.002 C 548.490 441.018, 548.102 413.449, 538.877 387.312 C 535.175 376.822, 527.465 361.156, 521.309 351.616 C 518.866 347.830, 517.235 344.403, 517.684 344.001 C 519.349 342.508, 541.155 326.923, 562.179 312.201 C 601.881 284.397, 642.284 258.815, 668.063 245.159 C 687.870 234.665, 710.560 226, 718.230 226 C 720.854 226, 721 226.242, 721 230.583 C 721 246.213, 706.459 279.475, 686.869 308.657 L 682.064 315.815 690.353 342.157 C 695.552 358.683, 699.087 368.405, 699.836 368.245 C 705.045 367.132, 747.307 366.895, 757.222 367.923 C 780.880 370.374, 802.064 377.199, 809.672 384.820 C 819.431 394.596, 815.634 411.088, 799.831 427.564 C 777.091 451.272, 731.421 477.048, 678.500 496.043 C 671.900 498.412, 666.362 500.447, 666.193 500.565 C 665.815 500.830, 684.661 559.994, 685.339 560.673 C 686.871 562.205, 731.410 544.248, 757.500 531.579 C 794.614 513.557, 819.938 496.852, 840.631 476.739 C 858.940 458.944, 870.014 441.965, 874.892 424.209 C 887.057 379.929, 869.318 341.308, 827.500 321.025 C 811.951 313.483, 788.483 306.988, 770.861 305.350 C 767.088 305, 764 304.301, 764 303.799 C 764 303.296, 766.423 297.398, 769.384 290.692 C 775.496 276.850, 780.012 263.345, 782.666 250.976 C 785.159 239.353, 785.142 218.021, 782.632 209.017 C 774.678 180.486, 750.732 162.077, 721.500 162.021 C 684.516 161.951, 634.278 186.095, 544.500 247.088 C 525.657 259.889, 486.626 287.439, 477.231 294.570 L 472.962 297.810 466.965 294.905 C 463.667 293.307, 460.780 292, 460.549 292 C 460.319 292, 458.943 291.549, 457.493 290.997 L 454.856 289.995 461.440 282.309 C 489.078 250.046, 506.557 209.751, 512.455 164.699 C 513.305 158.208, 514 148.871, 514 143.949 L 514 135 510.750 135.007 C 503.926 135.022, 451.696 138.070, 451.010 138.494 C 450.614 138.738, 450.043 143.565, 449.741 149.219 C 448.738 167.974, 443.082 189.651, 434.419 207.939 C 423.518 230.952, 408.845 247.897, 380 270.783 L 363.500 283.875 362.709 276.188 C 361.582 265.238, 362.576 182.148, 363.948 172.500 C 366.983 151.173, 373.968 127.290, 383.689 105 C 386.688 98.125, 389.367 91.788, 389.643 90.917 C 390.028 89.706, 385.255 86.796, 369.323 78.524 C 357.870 72.578, 345.229 65.932, 341.232 63.756 L 333.964 59.799 329.881 68.636 M 144.618 123.250 C 139.180 133.018, 132.028 151.392, 128.757 164 C 126.244 173.690, 125.697 178.018, 125.282 191.500 C 124.828 206.277, 124.997 208.417, 127.494 219.500 C 131.282 236.309, 135.964 248.552, 146.999 270.500 C 153.741 283.910, 157.028 289.464, 158.171 289.379 C 159.062 289.312, 171.493 281.947, 185.796 273.013 L 211.801 256.768 208.252 250.713 C 202.736 241.300, 196.191 226.726, 192.259 215.098 C 189.119 205.811, 188.681 203.324, 188.717 195 C 188.765 183.871, 191.629 172.946, 198.211 158.778 C 200.656 153.518, 201.955 149.572, 201.412 149.055 C 200.192 147.892, 149.337 117, 148.642 117 C 148.343 117, 146.532 119.813, 144.618 123.250 M 443.521 399.032 C 378.215 448.948, 346.297 479.541, 335.167 502.891 C 332.286 508.934, 331.631 511.486, 331.572 516.891 L 331.500 523.500 337 525.423 C 344.530 528.057, 365.780 528.169, 378.464 525.641 C 414.596 518.442, 445.175 500.308, 464.004 474.914 C 483.923 448.049, 487.416 426.518, 475.957 401.245 C 472.642 393.934, 466.181 383, 465.175 383 C 464.802 383, 455.057 390.214, 443.521 399.032 M 512.500 551.154 C 454.240 602.360, 401.297 654.267, 373.141 687.787 L 364.500 698.073 356.500 697.473 C 332.369 695.662, 308.297 690.238, 295.415 683.710 C 289.030 680.475, 287.593 678.759, 288.440 675.385 C 289.357 671.729, 294.794 663.497, 300.347 657.353 C 302.906 654.522, 305 651.911, 305 651.550 C 305 650.967, 270.581 610.552, 265.782 605.500 C 263.895 603.513, 263.834 603.550, 256.488 611.181 C 242.244 625.978, 232.766 640.769, 227.450 656.500 C 223.882 667.059, 222.959 683.360, 225.385 693 C 232.773 722.363, 258.935 742.947, 301.677 753.025 C 308.730 754.688, 315.680 756.375, 317.122 756.774 C 319.718 757.493, 319.560 757.775, 301.092 785.500 C 278.728 819.074, 269.642 833.471, 244.337 875.434 C 227.158 903.922, 225.265 907.491, 226.790 908.504 C 231.367 911.545, 280.200 939.132, 280.487 938.838 C 280.667 938.652, 285.877 929.950, 292.062 919.500 C 319.841 872.571, 357.456 814.332, 382.805 779 L 394.643 762.500 404.572 761.722 C 482.205 755.638, 557.544 738.323, 647.986 705.778 C 664.076 699.988, 711.842 681.384, 712.760 680.549 C 713.009 680.323, 689.912 627.573, 687.996 623.993 C 687.159 622.429, 684.924 623.119, 665.284 631.001 C 600.625 656.953, 532.727 677.386, 474.026 688.560 C 464.416 690.389, 456.423 691.756, 456.265 691.598 C 455.743 691.076, 496.153 651.811, 515.032 634.496 C 525.224 625.148, 540.974 611.028, 550.032 603.118 C 559.089 595.208, 567.306 587.977, 568.292 587.048 C 569.998 585.441, 569.122 584.214, 550.010 561.430 C 538.969 548.269, 529.612 537.408, 529.218 537.295 C 528.823 537.183, 521.300 543.419, 512.500 551.154 M 567 743.538 C 562.325 744.277, 554.556 746.033, 549.735 747.441 C 544.914 748.848, 540.752 750, 540.485 750 C 540.218 750, 540 750.584, 540 751.298 C 540 752.555, 562.665 807.998, 563.534 808.867 C 563.770 809.104, 567.459 808.568, 571.732 807.677 C 598.437 802.109, 618.196 807.170, 634.982 823.879 C 654.547 843.355, 690.321 891.514, 711.444 926.814 C 714.278 931.549, 715.633 932.973, 716.861 932.507 C 718.368 931.936, 768.868 903.178, 769.997 902.249 C 772.163 900.465, 730.837 839.198, 709.461 812.500 C 676.783 771.688, 658.924 757.137, 629.873 747.653 C 612.978 742.138, 586.721 740.420, 567 743.538 " stroke="none" fill="black" fill-rule="evenodd"/>
</svg>