<svg xmlns="http://www.w3.org/2000/svg" width="1000" height="1000" viewBox="0 0 1000 1000" version="1.1">
	<path d="M 452.030 82.590 C 436.372 88.924, 423.442 94.225, 423.296 94.371 C 423.150 94.517, 425.689 102.740, 428.938 112.644 C 434.542 129.732, 443.647 163.686, 442.841 164.493 C 442.320 165.013, 421.587 161.420, 410.573 158.901 C 398.786 156.205, 373.300 148.776, 364.581 145.494 C 360.819 144.078, 357.270 143.077, 356.695 143.268 C 356.120 143.460, 350.397 156.415, 343.977 172.058 C 333.578 197.394, 332.476 200.640, 333.886 201.782 C 336.192 203.649, 369.613 214.375, 385.689 218.408 C 403.950 222.989, 423.432 226.626, 439.968 228.542 C 447.376 229.401, 453.531 230.198, 453.647 230.313 C 453.762 230.429, 454.171 234.397, 454.555 239.131 L 455.254 247.738 450.377 249.524 C 381.970 274.582, 338.226 308.185, 324.931 345.890 C 314.539 375.360, 321.151 403.748, 344.868 431.500 C 353.770 441.916, 370.309 455.790, 383.045 463.527 C 386.320 465.517, 389 467.512, 389 467.961 C 389 468.710, 365.290 486.677, 348.500 498.653 C 323.832 516.248, 263.933 555.695, 223.500 580.973 C 210.850 588.882, 200.344 595.467, 200.153 595.607 C 199.726 595.919, 220.095 659.210, 220.951 660.232 C 221.287 660.634, 241.124 654.472, 265.032 646.538 C 387.027 606.054, 493.722 574.899, 552.500 562.596 C 584.230 555.954, 663.620 542.286, 664.625 543.292 C 664.799 543.465, 660.117 547.164, 654.220 551.512 C 639.200 562.587, 614.174 582.321, 603.500 591.507 L 594.500 599.252 585.435 598.619 C 580.449 598.271, 568.524 598.453, 558.935 599.025 C 509.226 601.986, 464.005 614.207, 416.500 637.516 C 397.577 646.801, 374.510 660.335, 364.017 668.309 C 360.983 670.614, 349.346 680.115, 338.155 689.423 L 317.808 706.347 362.654 750.906 C 387.319 775.413, 416.055 803.911, 426.512 814.235 L 445.523 833.004 469.512 809.805 C 482.705 797.045, 516.225 764.517, 544 737.520 C 571.775 710.524, 599.813 683.303, 606.306 677.029 L 618.112 665.623 628.253 667.910 C 657.636 674.536, 678.641 683.829, 684.061 692.599 C 694.649 709.731, 661.874 753.452, 611.384 789.548 C 590.824 804.247, 572.351 813.599, 532.567 829.452 C 493.469 845.031, 453.736 858.453, 415.500 868.999 C 407.250 871.274, 399.938 873.316, 399.250 873.536 C 398.563 873.757, 398.016 874.514, 398.037 875.219 C 398.057 875.923, 401.335 889.775, 405.321 906 C 412.488 935.171, 412.596 935.496, 415.031 935.145 C 426.966 933.426, 506.469 907.973, 539 895.456 C 595.192 873.835, 619.998 861.494, 649.500 840.486 C 700.388 804.248, 735.557 762.229, 746.579 724.500 C 750.353 711.580, 750.996 694.732, 748.167 682.903 C 744.419 667.235, 737.809 655.641, 725.987 644 C 714.476 632.665, 700.986 624.739, 678.123 615.875 C 675.921 615.021, 676.799 614.164, 690.123 604.169 C 714.075 586.203, 745.999 563.396, 775 543.533 C 790.125 533.174, 802.872 524.372, 803.326 523.973 C 804.160 523.241, 795.243 464.104, 794.101 462.792 C 792.893 461.406, 689.992 474.399, 641.500 482.061 C 610.538 486.953, 604.565 487.951, 581.500 492.087 C 533.330 500.726, 493.739 510.098, 437.250 526.234 C 421.163 530.829, 408 534.520, 408 534.437 C 408 534.171, 444.206 506.608, 451.333 501.448 C 455.648 498.324, 458.965 496.620, 460.333 496.825 C 461.525 497.003, 471.692 499.136, 482.927 501.564 C 494.162 503.993, 503.492 505.841, 503.661 505.673 C 503.829 505.504, 505.336 495.271, 507.009 482.933 C 508.681 470.595, 510.245 459.596, 510.483 458.491 C 510.722 457.386, 517.123 451.483, 524.708 445.373 C 587.367 394.899, 622.547 352.939, 633.598 315.500 C 637.038 303.847, 637.531 285.012, 634.644 275.552 C 628.710 256.106, 614.764 242.059, 594.275 234.889 C 579.059 229.564, 552.993 227.675, 531 230.304 C 524.125 231.125, 518.452 231.731, 518.394 231.649 C 518.335 231.567, 518.020 230.091, 517.692 228.368 C 517.102 225.260, 517.145 225.223, 523.299 223.519 C 538.802 219.224, 572.268 204.536, 595 192.048 C 609.790 183.923, 637.767 167.186, 638.477 166.038 C 638.913 165.331, 607.861 116.725, 605.034 113.689 C 604.619 113.244, 596.717 117.400, 587.476 122.926 C 560.562 139.018, 515.142 161.023, 508.903 160.993 C 507.909 160.989, 506.526 156.565, 504.158 145.814 C 498.304 119.231, 483.884 72.062, 481.390 71.333 C 480.901 71.190, 467.689 76.256, 452.030 82.590 M 531 294.557 C 526.325 295.304, 522.007 295.934, 521.404 295.958 C 520.655 295.987, 520.094 304.474, 519.633 322.750 C 519.262 337.462, 518.709 353.550, 518.403 358.500 L 517.847 367.500 534.188 351 C 543.175 341.925, 553.560 330.450, 557.265 325.500 C 564.765 315.480, 571.971 302.068, 572.291 297.535 C 572.471 294.987, 572.078 294.477, 569.500 293.904 C 564.241 292.734, 539.806 293.149, 531 294.557 M 439.298 323.450 C 405.323 340.278, 384 359.140, 384 372.365 C 384 385.170, 404.959 404.578, 435.856 420.382 C 450.160 427.699, 449.665 428.190, 451.509 404.845 C 454.625 365.395, 456.738 316, 455.308 316 C 454.775 316, 447.571 319.352, 439.298 323.450 M 508.500 670.959 C 489.574 675.866, 473.501 681.437, 456.128 689.111 C 443.665 694.617, 420.350 706.957, 415.500 710.614 C 413.584 712.060, 414.168 712.766, 429.500 727.517 C 438.300 735.983, 445.880 742.930, 446.343 742.955 C 446.807 742.980, 462.058 728.487, 480.235 710.750 C 498.411 693.013, 516.032 675.932, 519.392 672.794 C 522.751 669.656, 525.050 667.084, 524.500 667.079 C 523.950 667.074, 516.750 668.820, 508.500 670.959 " stroke="none" fill="black" fill-rule="evenodd"/>
</svg>