<svg xmlns="http://www.w3.org/2000/svg" width="1000" height="1000" viewBox="0 0 1000 1000" version="1.1">
	<path d="M 634.169 95.942 C 617.487 100.099, 603.841 103.950, 603.845 104.500 C 603.848 105.050, 604.160 109.623, 604.538 114.662 C 606.414 139.693, 599.060 169.963, 585.545 192.834 C 577.583 206.309, 559.163 230.274, 544.664 246.023 L 540.500 250.545 489.500 254.830 C 430.574 259.780, 396.092 262.330, 363 264.184 C 329.769 266.045, 220.649 265.737, 163.606 263.621 C 138.914 262.705, 118.525 262.142, 118.297 262.370 C 117.831 262.835, 114.802 325.162, 115.228 325.513 C 115.862 326.035, 183.763 328.086, 234.081 329.103 C 308.186 330.600, 359.505 329.075, 439.500 322.998 C 453.800 321.912, 467.300 320.799, 469.500 320.524 L 473.500 320.026 459.500 333.662 C 439.438 353.204, 406.397 383.917, 381.679 406.001 L 360.349 425.059 367.477 454.714 C 371.397 471.024, 375.097 484.532, 375.698 484.733 C 376.300 484.933, 391.801 481.270, 410.146 476.592 C 436.292 469.925, 486.422 457.805, 506 453.419 C 507.553 453.071, 508.121 453.207, 507.500 453.779 C 506.950 454.286, 495.250 464.816, 481.500 477.181 C 425.468 527.566, 400.268 552.235, 316.711 638.500 C 283.149 673.150, 254.960 702.286, 254.070 703.247 C 252.573 704.862, 252.444 703.773, 252.358 688.747 C 252.285 676.153, 251.771 670.152, 250.074 662.057 C 248.869 656.314, 247.572 651.089, 247.192 650.446 C 246.706 649.625, 237.781 652.334, 217.162 659.560 C 201.026 665.215, 187.625 670.041, 187.382 670.285 C 187.139 670.528, 187.458 674.051, 188.093 678.114 C 189.507 687.169, 188.679 700.595, 186.025 711.674 C 182.802 725.124, 170.353 756.259, 150.815 799.734 C 145.319 811.963, 140.975 822.400, 141.161 822.927 C 141.521 823.945, 190.907 858, 192.024 858 C 192.386 858, 230.891 818.524, 277.591 770.275 C 399.040 644.799, 429.195 613.862, 429.629 614.296 C 429.840 614.506, 428.680 623.890, 427.051 635.149 C 420.297 681.836, 416.658 714.927, 415.026 744.500 C 412.727 786.169, 411.161 883.363, 412.772 884.359 C 413.437 884.770, 471.917 896, 473.391 896 C 473.685 896, 478.863 888.688, 484.896 879.750 C 507.474 846.304, 532.306 816.562, 564.441 784.474 C 598.758 750.209, 627.617 727.372, 659.500 709.252 C 710.109 680.489, 765.018 672.132, 798 688.173 C 807.322 692.706, 817.917 703.513, 822.498 713.158 C 835.961 741.507, 828.659 780.505, 804.152 811.134 C 790.902 827.696, 768.815 843.219, 746.716 851.504 C 744.085 852.490, 742.060 853.601, 742.216 853.972 C 742.372 854.343, 746.993 867.776, 752.485 883.823 C 757.977 899.870, 762.965 913, 763.569 913 C 765.751 913, 784.548 904.886, 793.921 899.898 C 844.073 873.212, 879.052 827.916, 889.982 775.500 C 893.031 760.882, 893.717 738.614, 891.568 724.073 C 887.470 696.347, 875.455 671.669, 857.334 653.755 C 846.198 642.747, 839.189 637.733, 825.500 630.983 C 804.113 620.438, 786.668 616.737, 758 616.663 C 719.198 616.564, 683.639 625.628, 643.084 645.958 C 593.168 670.980, 539.838 714.161, 490.504 769.500 C 485.111 775.550, 479.841 781.400, 478.793 782.500 C 476.651 784.749, 476.630 788.022, 479.046 744 C 480.626 715.210, 485.468 674.253, 493.467 622.006 C 495.361 609.634, 496.594 599.214, 496.206 598.851 C 495.817 598.489, 486.275 596.741, 475 594.967 C 463.725 593.194, 454.166 591.444, 453.758 591.080 C 451.581 589.133, 552.826 497.625, 610.250 449.637 C 630.847 432.424, 634 429.418, 634 426.995 C 634 423.199, 629.090 361.754, 628.762 361.440 C 628.618 361.302, 619.050 363.390, 607.500 366.079 C 566.329 375.663, 495.583 391, 492.544 391 C 492.499 391, 510.169 373.263, 531.811 351.585 L 571.159 312.171 593.829 310.585 C 652.355 306.490, 675.239 305.576, 719.500 305.568 C 763.475 305.561, 776.650 306.143, 810 309.568 C 823.475 310.952, 854.633 315.177, 861.515 316.553 L 864.523 317.155 870.778 286.393 C 874.218 269.475, 876.688 255.305, 876.266 254.905 C 874.942 253.647, 839.133 248.397, 816 246.068 C 762.827 240.716, 720.344 239.939, 654.221 243.111 C 640.868 243.752, 629.706 244.039, 629.416 243.750 C 629.127 243.460, 631.675 239.011, 635.079 233.862 C 647.001 215.830, 658.500 189.040, 663.351 168 C 666.583 153.982, 668.197 139.250, 668.227 123.500 C 668.255 108.989, 666.720 92.141, 665.125 89.442 C 664.716 88.748, 654.043 90.989, 634.169 95.942 M 295.287 133.250 C 296.286 153.103, 304.365 174.971, 318.181 195.220 C 325.318 205.680, 342.771 224.230, 354 233.291 C 361.939 239.697, 379.807 251.712, 389 256.828 L 394.500 259.888 409 232.809 C 416.975 217.915, 423.627 205.213, 423.782 204.582 C 423.936 203.950, 420.663 201.500, 416.508 199.135 C 400.860 190.232, 382.898 175.123, 373.468 162.930 C 366.967 154.524, 362.233 145.229, 359.994 136.476 C 358.887 132.148, 357.535 128.331, 356.990 127.994 C 356.005 127.385, 301.679 121.923, 297.111 121.974 L 294.721 122 295.287 133.250 " stroke="none" fill="black" fill-rule="evenodd"/>
</svg>