<svg xmlns="http://www.w3.org/2000/svg" width="1000" height="1000" viewBox="0 0 1000 1000" version="1.1">
	<path d="M 820 135.583 C 779.509 147.429, 691.529 167.892, 635.500 178.496 C 537.094 197.121, 474.548 202.366, 379 200.004 C 311.195 198.328, 259.002 194.997, 181.646 187.410 C 167.427 186.015, 155.688 185.015, 155.560 185.187 C 155.085 185.827, 148.086 247.420, 148.447 247.781 C 149.619 248.952, 227.574 256.016, 271.500 258.931 C 332.359 262.970, 348.146 263.476, 413.500 263.488 C 478.320 263.500, 490.793 263.053, 526 259.457 C 578.394 254.106, 649.103 242.004, 718.917 226.437 C 727.396 224.547, 734.780 223, 735.325 223 C 735.870 223, 729.601 229.863, 721.392 238.250 C 668.854 291.936, 633.394 338.856, 621.066 371 C 614.526 388.054, 612.707 406.928, 616.392 419.500 C 621.268 436.130, 635.798 454.752, 654.956 468.922 C 665.465 476.696, 676.056 482.915, 701 495.962 C 725.313 508.678, 737.790 516.911, 746.062 525.695 C 756.856 537.158, 761.538 548.760, 764.085 570.361 C 765.795 584.862, 764.743 619.440, 762.134 634.500 C 750.808 699.859, 720.240 742.299, 673.203 757.969 C 655.756 763.781, 649.977 764.502, 621 764.478 C 592.601 764.454, 586.548 763.780, 565.500 758.299 C 516.049 745.422, 467.791 712.231, 433.466 667.487 L 428.086 660.475 432.111 650.487 C 439.585 631.941, 444.637 610.260, 447.100 586.160 C 448.807 569.458, 447.699 524.544, 445.110 505.500 C 439.932 467.407, 431.240 430.609, 418.656 393.500 C 412.176 374.394, 410.993 371.764, 409.109 372.289 C 407.218 372.817, 352.659 395.091, 352.162 395.539 C 351.976 395.706, 353.603 400.716, 355.777 406.672 C 364.542 430.672, 373.832 465.571, 378.417 491.718 C 387.426 543.095, 386.597 585.256, 375.924 618.579 C 366.075 649.326, 329.202 703.252, 284.086 752.891 C 260.948 778.348, 222.805 815.274, 198.238 836 C 192.697 840.675, 188.239 844.816, 188.332 845.202 C 188.631 846.450, 227.297 894, 228.012 894 C 230.553 894, 272.191 855.913, 299.016 829.050 C 334.229 793.788, 362.108 761.730, 385.308 729.820 L 393.073 719.140 403.106 730.067 C 428.942 758.206, 461.702 782.821, 495.500 799.487 C 536.939 819.922, 575.542 829, 621 829 C 655.466 829, 681.140 824.350, 707.110 813.403 C 728.558 804.362, 745.293 792.831, 763.500 774.550 C 797.108 740.803, 818.449 693.526, 826.494 635 C 828.738 618.681, 829.552 585.227, 828.091 569.430 C 824.258 527.989, 812.735 501.571, 788.077 477.692 C 773.302 463.384, 761.397 455.582, 726.147 437.107 C 697.831 422.266, 686.359 414.455, 680.536 406.051 L 677.731 402.004 679.968 395.752 C 693.625 357.591, 765.360 277.468, 857.258 197.735 L 871.971 184.970 859.307 167.735 C 835.131 134.832, 832.980 132.001, 832.242 132.109 C 831.834 132.169, 826.325 133.732, 820 135.583 " stroke="none" fill="black" fill-rule="evenodd"/>
</svg>