<svg xmlns="http://www.w3.org/2000/svg" width="1000" height="1000" viewBox="0 0 1000 1000" version="1.1">
	<path d="M 125.255 114.322 C 110.820 123.220, 99.008 130.879, 99.005 131.341 C 98.996 132.916, 109.701 147.029, 118.589 157.158 C 135.052 175.920, 157.252 193.193, 177.583 203.057 C 199.914 213.893, 221.583 218.388, 263.196 220.817 L 274.891 221.500 267.302 235 C 233.038 295.953, 205.890 369.534, 191.480 440.500 C 178.866 502.625, 174 563.262, 174 658.326 C 174 710.168, 176.409 785.024, 178.121 786.374 C 178.751 786.871, 240.097 782.236, 240.686 781.647 C 240.987 781.347, 240.715 771.516, 240.082 759.800 C 236.131 686.628, 236.923 596.919, 242.053 536.500 C 249.679 446.684, 271.821 367.156, 310.960 289 C 327.062 256.845, 342.691 231.718, 361.341 208 C 367.179 200.575, 371.966 194.241, 371.978 193.925 C 372.013 193.004, 332.961 152, 332.048 152 C 331.593 152, 326.783 152.916, 321.360 154.035 C 295.911 159.286, 240.130 157.550, 218.067 150.818 C 209.526 148.213, 196.063 141.121, 187.543 134.741 C 178.429 127.915, 165.600 115.062, 158.543 105.687 C 155.361 101.459, 152.475 98.032, 152.129 98.072 C 151.783 98.111, 139.690 105.424, 125.255 114.322 M 507.692 123.680 L 483.923 144.359 489.212 149.766 C 513.509 174.607, 557.135 201.842, 599 218.305 C 632.164 231.347, 681.780 244.207, 730.596 252.415 C 756.562 256.781, 806.467 262.867, 807.536 261.797 C 808.040 261.294, 811.835 199.627, 811.408 198.890 C 811.214 198.554, 807.105 197.966, 802.277 197.583 C 769.912 195.013, 724.019 187.317, 685.290 177.963 C 645.785 168.422, 625.888 161.568, 598.500 148.066 C 573.183 135.585, 553.445 122.639, 538.164 108.491 C 534.902 105.471, 532.059 103, 531.847 103 C 531.634 103, 520.765 112.306, 507.692 123.680 M 616 365.674 C 546.083 372.741, 483.952 398.242, 428 442.837 C 386.917 475.581, 356.770 523.230, 349.454 566.984 C 347.136 580.848, 347.836 605.066, 350.886 616.500 C 356.934 639.171, 371.245 659.035, 390.640 671.677 C 403.602 680.126, 414.898 684.553, 434 688.668 C 445.998 691.254, 489.193 691.255, 506 688.670 C 589.879 675.770, 648.020 633.572, 672.261 568 C 680.643 545.327, 684.433 521.485, 684.422 491.500 C 684.413 468.331, 682.692 453.909, 677.966 437.382 C 676.885 433.601, 676 430.465, 676 430.415 C 676 429.746, 697.917 433.852, 709 436.599 C 735.287 443.113, 759.470 453.427, 778.150 466.092 C 790.652 474.568, 808.801 492.754, 816.848 504.868 C 828.460 522.350, 836.027 540.747, 840.716 562.898 C 843.136 574.329, 843.387 577.545, 843.413 597.500 C 843.444 621.309, 841.964 632.889, 836.385 652.500 C 824.791 693.251, 808.315 721.707, 774.974 758.559 C 740.031 797.183, 678.345 843.500, 622.327 873.177 C 616.097 876.477, 611 879.589, 611 880.092 C 611 881.066, 636.871 934.997, 637.928 936.226 C 639.343 937.872, 682.014 913.303, 710.815 894.259 C 790.849 841.338, 848.592 781.683, 878.039 721.500 C 904.253 667.923, 913.506 610.041, 904.401 556.592 C 894.010 495.597, 859.699 442.906, 809 410.087 C 773.848 387.333, 727.009 371.738, 678 366.472 C 665.848 365.166, 626.086 364.654, 616 365.674 M 592.291 433.459 C 567.054 438.702, 546.664 445.819, 523 457.647 C 463.007 487.633, 424.894 527.242, 413.447 571.500 C 410.789 581.776, 410.985 596.771, 413.873 604.174 C 418.038 614.849, 428.395 622.282, 443.588 625.501 C 452.822 627.457, 481.415 627.456, 496.344 625.499 C 543.622 619.302, 581.423 598.433, 601.691 567.338 C 613.976 548.491, 619.655 527.622, 620.695 497.500 C 621.511 473.880, 618.221 454.702, 610.273 436.750 C 607.296 430.027, 608.103 430.174, 592.291 433.459 " stroke="none" fill="black" fill-rule="evenodd"/>
</svg>