<svg xmlns="http://www.w3.org/2000/svg" width="1000" height="1000" viewBox="0 0 1000 1000" version="1.1">
	<path d="M 359.736 70.682 C 358.758 72.397, 339.809 130.137, 340.146 130.375 C 340.784 130.826, 364.302 137.881, 378.549 141.896 C 463.536 165.846, 543.236 180.098, 616.629 184.471 L 626.758 185.075 627.350 177.787 C 627.675 173.779, 628.233 159.427, 628.589 145.893 L 629.236 121.286 617.368 120.595 C 548.723 116.595, 468.146 101.585, 385 77.308 C 372.625 73.695, 361.983 70.542, 361.351 70.301 C 360.719 70.061, 359.992 70.232, 359.736 70.682 M 290.239 238.215 C 281.453 253.610, 274.840 270.583, 271.427 286.500 C 268.834 298.595, 269.039 317.227, 271.885 327.970 C 280.848 361.815, 308.092 383.217, 352.500 391.301 C 363.068 393.225, 367.960 393.483, 393.500 393.467 C 415.043 393.453, 426.229 392.992, 437 391.675 C 487.615 385.488, 536.921 374.782, 606 354.981 C 649.090 342.629, 703 325.108, 703 323.455 C 703 321.805, 684.038 265.638, 683.197 264.797 C 682.794 264.394, 670.998 267.843, 656.982 272.460 C 577.332 298.703, 504.075 317.487, 450 325.533 C 418.786 330.177, 382.477 331.450, 364.500 328.530 C 342.296 324.924, 333 318.627, 333 307.192 C 333 298.840, 339.436 279.606, 345.383 270.185 L 347.988 266.059 322.458 248.780 C 308.417 239.276, 296.359 231.372, 295.663 231.215 C 294.966 231.058, 292.526 234.208, 290.239 238.215 M 543.500 450.056 C 525.248 455.721, 493.937 463.755, 477 467.119 C 457.781 470.937, 429.389 470.209, 393.069 464.968 C 385.681 463.902, 379.415 463.252, 379.143 463.524 C 378.510 464.157, 368.019 520.790, 368.008 523.631 C 368.001 525.574, 368.948 525.905, 378.750 527.381 C 396.745 530.092, 414.823 532.053, 428.643 532.795 L 441.786 533.500 435.332 542 C 427.728 552.016, 419.677 567.859, 417.545 577 C 415.584 585.410, 415.583 599.980, 417.543 607.505 C 422.266 625.638, 435.973 641.771, 456.683 653.573 C 463.284 657.335, 463.958 657.967, 461.884 658.450 C 460.573 658.756, 449.825 660.828, 438 663.054 C 329.112 683.560, 248.734 710.677, 205.500 741.494 C 170.373 766.531, 151.687 800.888, 155.084 834.188 C 159.130 873.840, 192.871 902.636, 254.500 919.033 C 332.404 939.760, 458.342 942.429, 628 926.949 C 658.913 924.128, 693.279 920.454, 726 916.471 C 754.634 912.986, 830.272 902.913, 830.762 902.519 C 831.178 902.186, 822.003 840.670, 821.457 840.123 C 821.186 839.853, 803.760 841.966, 782.732 844.820 C 649.073 862.959, 549.299 871.411, 454 872.668 C 373.202 873.734, 316.685 869.154, 272.999 858 C 245.647 851.016, 224.227 840.140, 219.385 830.778 C 217.377 826.895, 218.187 822.380, 222.303 814.500 C 242.962 774.960, 360.929 736.378, 538.500 711.085 C 574.540 705.952, 611.535 701.581, 640.500 699.034 C 653.150 697.922, 665.814 696.758, 668.642 696.447 L 673.784 695.883 674.358 690.692 C 674.674 687.836, 675.231 671.974, 675.595 655.442 L 676.258 625.384 638.879 624.207 C 582.030 622.417, 544.877 617.818, 514.520 608.814 C 496.668 603.519, 480 594.999, 480 591.169 C 480 588.059, 489.250 575.958, 498.114 567.471 C 515.638 550.694, 543.802 531.178, 575.143 514.094 L 593.786 503.932 588.190 493.216 C 565.746 450.239, 563.086 445.492, 561.329 445.295 C 560.323 445.183, 552.300 447.325, 543.500 450.056 " stroke="none" fill="black" fill-rule="evenodd"/>
</svg>