<svg xmlns="http://www.w3.org/2000/svg" width="1000" height="1000" viewBox="0 0 1000 1000" version="1.1">
	<path d="M 580.250 102.206 C 564.712 108.878, 552 114.791, 552 115.348 C 552 115.904, 554.657 123.141, 557.905 131.430 C 569.604 161.289, 582.627 201.986, 591.367 236 C 596.759 256.983, 602.183 283.223, 601.299 284.043 C 600.860 284.451, 594.875 287.180, 588 290.107 C 572.220 296.825, 537.611 313.924, 524.500 321.478 C 471.614 351.952, 441.741 382.932, 432.392 417 C 429.945 425.918, 429.930 445.989, 432.364 455 C 434.780 463.946, 441.905 478.175, 447.962 486.152 C 455.053 495.492, 467.267 506.677, 478.731 514.329 C 484.104 517.916, 500.200 527.932, 514.500 536.587 C 544.330 554.642, 577.334 575.526, 600.583 591.060 L 616.667 601.806 643.273 585.240 C 669.007 569.218, 669.898 568.557, 670.439 565.087 C 671.617 557.543, 673.964 525.482, 675.083 501.645 C 677.015 460.484, 675.424 354.022, 672.515 329.840 L 671.955 325.180 681.227 322.113 C 725.347 307.523, 758.480 309.393, 774.658 327.387 C 798.575 353.988, 798.288 416.277, 773.907 490.704 C 757.198 541.710, 728.230 599.575, 693.725 650.871 C 629.593 746.211, 543.153 827.814, 454.132 877.060 C 445.017 882.102, 443.186 883.493, 443.879 884.849 C 446.757 890.481, 472.392 938.588, 472.725 938.983 C 473.684 940.119, 505.110 921.634, 528 906.470 C 611.699 851.023, 687.815 774.218, 747.685 684.797 C 809.312 592.751, 847.635 496.707, 855.094 415.611 C 856.514 400.169, 855.697 366.200, 853.624 354.500 C 843.193 295.636, 809.692 259.417, 757.443 250.516 C 744.620 248.331, 721.745 248.334, 706.764 250.522 C 697.294 251.906, 669.047 258.443, 664 260.419 C 662.783 260.896, 661.856 258.032, 659.090 245.253 C 654.859 225.706, 646.694 195.191, 639.356 171.500 C 629.805 140.669, 611.513 90.966, 609.497 90.370 C 608.949 90.208, 595.788 95.534, 580.250 102.206 M 204.532 141.250 C 203.993 142.914, 195.996 203.506, 191.037 243.500 C 181.140 323.323, 174.095 389.853, 169.066 451 C 164.201 510.143, 163.600 523.446, 163.556 573 C 163.507 627.044, 163.078 622, 172.017 672.349 C 182.839 733.303, 194.617 786.355, 212.457 854.500 C 222.828 894.119, 221.960 891.143, 222.965 890.521 C 224.462 889.596, 274.011 824.074, 274.960 821.765 C 275.472 820.519, 277.292 812.075, 279.005 803 C 289.130 749.352, 307.104 679.297, 321.917 635.749 C 333.533 601.598, 346.493 573.060, 356.225 560.203 L 361.163 553.679 338.856 531.356 L 316.550 509.033 312.676 512.767 C 307.574 517.683, 294.476 537.475, 288.209 549.737 C 273.840 577.851, 256.947 624.713, 244.493 671 C 242.496 678.425, 240.598 685.175, 240.275 686 C 238.712 690.001, 228.290 625.090, 226.942 602.956 C 223.045 538.959, 238.990 357.108, 264.905 170 C 266.467 158.725, 267.614 149.349, 267.454 149.165 C 267.229 148.905, 206.839 140, 205.302 140 C 205.101 140, 204.755 140.563, 204.532 141.250 M 593.642 357.535 C 535.254 384.591, 494.148 416.877, 494.022 435.782 C 493.957 445.505, 504.462 456.211, 527.581 469.984 C 547.546 481.879, 580.571 502.190, 597.153 512.772 L 609.806 520.847 610.369 517.673 C 610.678 515.928, 611.447 497.736, 612.078 477.247 C 612.961 448.544, 612.942 430.755, 611.996 399.747 C 611.321 377.611, 610.483 357.405, 610.134 354.844 L 609.500 350.188 593.642 357.535 " stroke="none" fill="black" fill-rule="evenodd"/>
</svg>