<svg xmlns="http://www.w3.org/2000/svg" width="1000" height="1000" viewBox="0 0 1000 1000" version="1.1">
	<path d="M 480.542 84.264 C 480.330 84.944, 479.645 90.675, 479.019 97 C 476.844 118.978, 471.870 159.689, 467.412 192 C 462.644 226.561, 453.324 286.009, 452.554 286.779 C 452.300 287.033, 445.431 288.280, 437.290 289.551 C 386.455 297.486, 335.214 313.332, 294.719 333.641 C 283.863 339.085, 283.767 339.112, 282.315 337.039 C 270.799 320.597, 230.134 271.205, 207.505 246.173 C 190.611 227.484, 154.633 191, 153.098 191 C 151.901 191, 111 236.628, 111 237.963 C 111 238.456, 114.263 241.794, 118.250 245.381 C 126.334 252.653, 158.076 286.083, 171.534 301.500 C 190.856 323.634, 229 370.685, 229 372.385 C 229 372.630, 226.638 374.555, 223.751 376.665 C 220.864 378.774, 213.205 384.902, 206.732 390.282 C 139.344 446.287, 94.064 521.325, 81.087 598.500 C 74.492 637.717, 75.882 672.741, 85.538 710.639 C 98.727 762.409, 125.501 795.340, 163.500 806.530 C 175.574 810.085, 194.102 810.921, 208.500 808.561 C 248.676 801.973, 294.971 773.107, 339.358 726.970 C 356.872 708.765, 382.125 678.140, 392.052 663.067 C 393.562 660.774, 393.762 661.119, 399.314 675.605 C 402.454 683.797, 407.021 695.900, 409.463 702.500 C 412.336 710.264, 414.361 714.393, 415.201 714.196 C 417.389 713.683, 473.309 694.025, 473.704 693.629 C 473.908 693.425, 473.629 692.188, 473.084 690.879 C 472.540 689.571, 468.506 678.825, 464.121 667 C 456.100 645.368, 446.659 622.052, 438.396 603.465 L 433.935 593.430 438.461 583.746 C 460.568 536.438, 482.627 462.758, 500.957 375 L 506.701 347.500 535.600 347.543 C 565.468 347.588, 580.528 348.620, 602 352.091 C 693.177 366.833, 746.792 417.944, 757.470 500.301 C 759.461 515.655, 759.441 544.689, 757.428 561.987 C 756.565 569.405, 755.674 575.660, 755.447 575.886 C 755.221 576.112, 749.065 573.350, 741.768 569.748 C 734.471 566.146, 724.252 561.544, 719.061 559.522 C 707.926 555.185, 686.968 549.664, 675 547.915 C 664.117 546.326, 637.707 546.285, 628 547.844 C 588.035 554.260, 554.376 572.755, 523.275 605.388 C 498.292 631.602, 484.965 661.039, 483.384 693.500 C 480.384 755.134, 525.479 807.982, 589.128 817.423 C 621.385 822.208, 658.494 815.715, 688.879 799.970 C 715.963 785.935, 743.049 759.524, 765.250 725.500 C 770.430 717.562, 785.206 691.605, 787.431 686.535 C 788.436 684.244, 804.817 704.456, 818.098 724.374 C 828.821 740.456, 839.267 760.736, 843.408 773.510 C 855.473 810.727, 848.113 832.466, 818.535 846.983 C 812.985 849.707, 804.056 853.169, 798.695 854.676 C 793.312 856.189, 789.119 857.883, 789.332 858.458 C 789.544 859.031, 792.819 872.911, 796.609 889.303 L 803.500 919.105 807 918.472 C 808.925 918.124, 815.974 916.064, 822.664 913.895 C 898.758 889.219, 928.999 829.488, 903.869 753.500 C 899.188 739.344, 885.898 711.935, 876.307 696.656 C 862.504 674.667, 843.398 650.677, 823.668 630.563 L 811.836 618.500 814.380 607 C 821.147 576.409, 823.541 551.845, 822.700 521.612 C 822.099 499.995, 820.018 482.429, 816.111 466 C 791.715 363.402, 713.084 300.028, 593.500 286.583 C 573.348 284.317, 551.837 283.033, 533.731 283.015 L 517.962 283 518.470 280.750 C 523.269 259.483, 545.439 91.106, 543.673 89.340 C 543.449 89.116, 531.168 87.840, 516.383 86.505 C 501.597 85.170, 487.571 83.842, 485.213 83.553 C 482.294 83.196, 480.804 83.423, 480.542 84.264 M 431 355.175 C 389.778 363.976, 366.662 371.194, 334.834 385.202 L 321.168 391.216 330.737 405.858 C 351.858 438.178, 370.087 468.463, 387.280 499.803 L 396.773 517.105 399.959 508.303 C 405.830 492.084, 416.901 453.958, 423.975 425.599 C 430.018 401.371, 440 357.280, 440 354.814 C 440 353.800, 436.849 353.926, 431 355.175 M 255.904 432.411 C 204.104 472.381, 164.949 528.448, 149.375 584.954 C 144.057 604.251, 141.906 618.349, 141.284 638 C 140.659 657.710, 141.772 670.444, 145.646 687.921 C 151.923 716.241, 162.027 735.243, 174.784 742.719 C 181.375 746.582, 194.292 747.139, 205.566 744.046 C 221.502 739.674, 242.372 727.736, 263 711.193 C 284.364 694.060, 314.842 661.010, 335.134 632.974 C 345.937 618.048, 362 593.107, 362 591.261 C 362 587.511, 329.985 526.803, 311.236 495 C 294.520 466.645, 267.739 424.996, 266.228 425.003 C 265.827 425.005, 261.182 428.339, 255.904 432.411 M 636.500 611.041 C 615.389 614.324, 594.624 625.184, 576.080 642.640 C 565.025 653.048, 558.094 661.896, 553.463 671.515 C 539.054 701.450, 549.501 733.798, 578.137 747.914 C 588.557 753.050, 597.476 754.960, 611.140 754.983 C 623.925 755.004, 635.025 753.034, 647.744 748.488 C 670.925 740.203, 690.061 723.195, 710.177 693 C 718.483 680.531, 735.177 648.806, 736.487 643 C 736.982 640.804, 736.294 640.013, 730.830 636.500 C 714.407 625.940, 691.287 616.196, 673.590 612.374 C 664.922 610.502, 644.651 609.774, 636.500 611.041 " stroke="none" fill="black" fill-rule="evenodd"/>
</svg>