<svg xmlns="http://www.w3.org/2000/svg" width="1000" height="1000" viewBox="0 0 1000 1000" version="1.1">
	<path d="M 345 92.253 C 328.775 97.231, 315.422 101.352, 315.326 101.410 C 315.230 101.468, 316.493 106.237, 318.133 112.008 C 331.683 159.695, 344.029 221.686, 348.066 262.299 L 349.238 274.097 332.349 291.299 C 309.110 314.968, 288.509 339.240, 264.500 371.239 C 260.100 377.103, 256.224 381.924, 255.887 381.951 C 255.550 381.978, 254.719 378.512, 254.039 374.250 C 252.261 363.090, 244.495 332.613, 240.530 321.235 C 236.295 309.082, 231.549 297.899, 230.569 297.764 C 230.160 297.707, 217.312 304.109, 202.017 311.991 L 174.209 326.322 176.010 330.523 C 188.464 359.578, 198.877 417.967, 197.673 452 C 196.774 477.421, 193.338 493.260, 182.684 521.097 C 145.172 619.114, 122.988 729.581, 120.349 831.500 C 119.642 858.838, 121.785 898.188, 124.104 900.423 C 124.322 900.633, 138.225 897.996, 155 894.563 L 185.500 888.321 185.320 884.411 C 182.560 824.447, 185.275 778.504, 195.063 719.500 C 213.097 610.793, 249.840 507.125, 294.547 438.813 C 306.558 420.460, 341 375.261, 341 377.852 C 341 378.477, 339.658 387.878, 338.019 398.744 C 326.707 473.701, 327.511 504.072, 341.411 526.820 C 344.727 532.247, 348.131 536.242, 368.500 558.615 C 373.450 564.052, 379.700 571.097, 382.390 574.271 L 387.279 580.043 371.887 595.771 C 335.507 632.946, 296.503 677.158, 279.408 700.601 C 240.418 754.067, 224.705 809.339, 235.972 853.392 C 245.253 889.677, 269.430 913.555, 303.979 920.556 C 315.191 922.828, 334.989 922.103, 346.500 918.999 C 363.633 914.379, 379.501 906.559, 396.198 894.508 C 407.069 886.662, 432.534 861.157, 442.163 848.472 C 465.726 817.433, 487.424 776.664, 495.372 748.500 C 509.246 699.336, 502.782 649.356, 475.951 598.330 L 470.078 587.160 488.789 569.298 C 509.381 549.640, 531.724 528.797, 545.283 516.597 C 550.113 512.251, 553.938 508.344, 553.783 507.915 C 553.150 506.170, 512.623 460.961, 511.923 461.220 C 510.785 461.641, 473.080 496.331, 451.500 516.812 L 432.500 534.844 428.500 530.182 C 426.300 527.618, 418.200 518.603, 410.500 510.148 C 402.800 501.694, 396.050 494.040, 395.500 493.138 C 394.382 491.307, 394.170 454.027, 395.255 449.962 C 395.898 447.551, 396.696 447.287, 411.216 444.685 C 479.983 432.361, 531.239 406.006, 559.520 368.430 C 590.221 327.638, 588.894 277.761, 556.248 245.434 C 530.843 220.279, 491.607 211.559, 447 221.154 C 436.489 223.415, 418.621 229.133, 412.827 232.089 L 409.090 233.995 408.589 230.747 C 405.306 209.450, 401.050 185.651, 397.458 168.500 C 390.144 133.587, 377.265 83.826, 375.436 83.413 C 374.921 83.296, 361.225 87.275, 345 92.253 M 750.534 178.029 C 723.148 183.797, 694.586 201.002, 659.732 232.725 C 652.710 239.116, 643.373 248.275, 638.984 253.078 L 631.003 261.810 652.228 280.155 C 663.902 290.245, 674.707 299.557, 676.239 300.850 L 679.026 303.199 690.263 291.832 C 721.243 260.491, 751.718 240, 767.349 240 C 773.996 240, 778 245.224, 778 253.897 C 778 267.437, 763.607 289.378, 732.013 324 C 687.794 372.457, 677.418 385.392, 666.237 406 C 648.443 438.798, 650.568 476.667, 671.445 498.793 C 681.424 509.370, 688.912 513.208, 716.690 521.981 C 726.302 525.017, 731.413 527.245, 735.530 530.193 C 740.928 534.059, 750 544.871, 750 547.439 C 750 552.854, 732.453 570.767, 691.500 607.160 C 632.806 659.318, 605.530 690.756, 588.014 726.434 C 576.179 750.543, 572.073 766.924, 571.330 793 C 570.724 814.252, 572.224 824.471, 577.981 838.300 C 594.911 878.967, 636.509 901.231, 706.500 907.088 C 723.900 908.544, 772.484 907.693, 793.286 905.567 C 835.741 901.230, 884 893.145, 884 890.371 C 884 888.703, 870.927 830.665, 870.430 830.126 C 870.241 829.920, 862.229 831.178, 852.626 832.921 C 829.987 837.030, 804.017 840.524, 781.500 842.491 C 760.271 844.346, 720.070 844.630, 704.500 843.035 C 669.344 839.434, 644.437 829.415, 637.555 816.105 C 632.950 807.201, 633.419 787.285, 638.621 770.797 C 648.966 738.008, 672.861 708.941, 734.500 654.168 C 789.843 604.989, 804.877 587.589, 811.931 564.548 C 817.955 544.875, 814.670 529.061, 800.020 507.212 C 783.752 482.949, 764.252 469.335, 732.250 459.900 L 718 455.698 718 450.465 C 718 446.332, 718.867 443.500, 722.121 436.998 C 728.909 423.435, 740.484 409.074, 775.134 371.224 C 812.126 330.815, 828.711 307.022, 837.020 282.441 C 844.577 260.086, 843.445 237.835, 833.767 218.500 C 817.489 185.976, 785.847 170.591, 750.534 178.029 M 467.500 282.043 C 452.377 284.387, 435.282 290.877, 421.330 299.573 L 414.137 304.057 413.635 309.278 C 413.360 312.150, 412.615 320.492, 411.982 327.816 C 411.348 335.139, 409.565 349.989, 408.019 360.816 C 406.473 371.642, 405.326 380.627, 405.470 380.782 C 405.917 381.265, 424.073 377.052, 433 374.394 C 465.023 364.859, 487.562 352.627, 502.829 336.499 C 523.796 314.349, 522.793 292.505, 500.419 284.028 C 493.611 281.448, 477.578 280.482, 467.500 282.043 M 405.931 652.150 C 358.966 701.815, 331.986 734.189, 317.979 757.685 C 301.592 785.173, 293.561 814.133, 296.935 833.571 C 299.940 850.885, 307.103 858.176, 321.109 858.176 C 347.781 858.176, 380.956 829.952, 409.936 782.604 C 416.452 771.959, 428.453 747.444, 431.772 738 C 441.962 709.002, 441.022 679.934, 428.878 648.440 C 422.721 632.473, 424.866 632.126, 405.931 652.150 " stroke="none" fill="black" fill-rule="evenodd"/>
</svg>