<svg xmlns="http://www.w3.org/2000/svg" width="1000" height="1000" viewBox="0 0 1000 1000" version="1.1">
	<path d="M 496 75.665 C 480.325 81.468, 467.162 86.528, 466.749 86.909 C 466.336 87.290, 467.591 92.304, 469.538 98.051 C 479.249 126.721, 491.366 172.721, 497.577 204.500 C 499.511 214.400, 501.467 224.403, 501.921 226.728 C 502.901 231.739, 506.255 230.752, 474 234.949 C 402.142 244.300, 367.479 246.721, 344.974 243.961 C 327.312 241.795, 310.199 235.851, 300.658 228.568 L 296.264 225.215 272.882 238.677 C 260.022 246.082, 247.561 253.268, 245.190 254.647 L 240.880 257.154 243.589 260.827 C 257.302 279.419, 281.668 294.410, 310.500 301.993 C 330.566 307.270, 341.053 308.448, 368 308.449 C 396.935 308.449, 421.862 306.152, 488.772 297.320 C 502.150 295.554, 509.380 294.980, 510.034 295.634 C 511.412 297.012, 512.454 345.772, 511.540 366.175 L 510.794 382.850 496.647 390.546 C 417.833 433.422, 314.091 508.771, 227.027 586.375 L 212.555 599.275 211.158 595.887 C 207.776 587.681, 203.914 569.002, 202.789 555.403 C 200.890 532.458, 203.878 490.453, 210.569 446 C 211.935 436.925, 213.314 427.683, 213.633 425.462 L 214.214 421.425 183.412 415.719 C 161.508 411.662, 152.409 410.339, 151.914 411.140 C 150.173 413.957, 143.019 466.575, 140.445 495.500 C 138.202 520.698, 138.166 556.438, 140.367 572.745 C 143.687 597.349, 152.260 624.513, 164.433 649 C 167.850 655.875, 175.946 669.931, 182.424 680.236 L 194.202 698.971 201.351 693.068 C 205.283 689.822, 214.413 682.291, 221.640 676.333 C 228.866 670.375, 243.716 657.335, 254.640 647.355 C 307.022 599.497, 368.324 550.334, 425.500 510.330 C 454.916 489.749, 504.575 458.242, 505.749 459.416 C 506.407 460.074, 502.966 496.677, 499.366 527.318 C 497.956 539.317, 496.959 549.244, 497.151 549.376 C 497.736 549.780, 559.386 557.948, 559.674 557.660 C 560.739 556.594, 568.157 486.010, 570.462 455 C 571.341 443.175, 572.298 431.188, 572.588 428.363 L 573.116 423.225 581.308 419.479 C 602.025 410.004, 633.021 399.062, 653.475 394.003 C 703.323 381.673, 739.228 383.911, 775.500 401.608 C 792.625 409.963, 802.001 419.089, 801.999 427.400 C 801.997 436.457, 793.157 449.816, 776.636 465.729 C 738.876 502.099, 663.582 544.175, 556.652 588.662 C 542.985 594.348, 531.398 599, 530.902 599 C 530.406 599, 530 599.528, 530 600.174 C 530 601.607, 551.888 657.224, 552.830 658.183 C 554.582 659.968, 642.842 621.628, 681 602.506 C 728.115 578.896, 772.587 551.833, 799.500 530.394 C 845.689 493.601, 867.528 458.199, 865.722 423.046 C 863.793 385.473, 836.211 355.843, 785 336.329 C 763.489 328.132, 748.228 324.772, 724.447 322.996 C 686.515 320.164, 633.797 329.904, 586.445 348.494 C 581.533 350.422, 577.173 352, 576.757 352 C 576.341 352, 575.997 346.938, 575.993 340.750 C 575.990 334.563, 575.518 319.660, 574.945 307.632 C 574.371 295.605, 574.037 285.637, 574.201 285.481 C 574.365 285.326, 583.950 283.772, 595.500 282.028 C 624.891 277.592, 690.472 267.182, 728.750 260.877 C 758.766 255.932, 761 255.423, 760.996 253.532 C 760.990 250.362, 751.249 193.916, 750.596 193.262 C 750.276 192.942, 742.698 193.904, 733.757 195.400 C 665.210 206.868, 567.027 222.135, 565.982 221.489 C 565.587 221.245, 564.963 218.672, 564.594 215.772 C 563.397 206.337, 556.176 171.980, 550.997 151.077 C 542.686 117.531, 526.913 64.920, 525.209 65.057 C 524.819 65.089, 511.675 69.862, 496 75.665 M 428.500 663.732 C 418.600 677.304, 410.365 688.937, 410.200 689.582 C 409.369 692.833, 471.913 732.858, 494.939 743.811 C 509.685 750.824, 532.865 758.430, 560.500 765.323 C 584.692 771.356, 612.884 777.450, 613.546 776.788 C 613.934 776.400, 624.411 722.587, 625.168 717.092 C 625.490 714.753, 625.049 714.586, 610 711.364 C 585.980 706.221, 555.437 698.404, 542.013 693.964 C 520.383 686.810, 494.903 672.471, 458.287 646.847 C 452.119 642.531, 446.944 639.012, 446.787 639.027 C 446.629 639.042, 438.400 650.159, 428.500 663.732 M 453.841 840.078 C 442.104 852.221, 432.367 862.519, 432.205 862.962 C 431.275 865.508, 456.120 882.596, 474.209 891.851 C 512.384 911.383, 550.423 920.722, 635.500 931.449 C 662.403 934.841, 717.993 940.352, 718.638 939.690 C 718.809 939.515, 723 879.521, 723 877.247 C 723 876.691, 719.063 875.927, 714.250 875.549 C 669.874 872.065, 604.130 863.605, 569 856.859 C 534.519 850.238, 498.859 835.842, 479.856 820.871 C 477.852 819.292, 475.981 818, 475.698 818 C 475.415 818, 465.579 827.935, 453.841 840.078 " stroke="none" fill="black" fill-rule="evenodd"/>
</svg>