<svg xmlns="http://www.w3.org/2000/svg" width="1000" height="1000" viewBox="0 0 1000 1000" version="1.1">
	<path d="M 503.500 86.348 C 482.448 93.067, 474.542 96.001, 474.654 97.052 C 474.738 97.848, 478.630 111.775, 483.302 128 C 493.001 161.677, 505.380 209.953, 504.535 210.798 C 503.616 211.717, 427.183 215.764, 332.723 219.893 C 309.746 220.898, 290.802 221.895, 290.625 222.110 C 290.448 222.324, 290.885 236, 291.596 252.500 C 292.307 269, 292.914 283.130, 292.944 283.899 C 292.991 285.072, 296.033 285.187, 311.750 284.607 C 338.083 283.635, 426.723 279.449, 475.759 276.862 C 498.451 275.664, 517.234 274.900, 517.497 275.164 C 520.334 278.001, 523.100 348.043, 521.530 377.295 L 520.790 391.089 510.110 380.295 C 476.221 346.041, 438.922 327.122, 397 322.924 C 361.907 319.409, 311.216 330.613, 274.108 350.084 C 252.535 361.405, 237.220 372.831, 220.438 390.129 C 192.854 418.559, 175.635 452.865, 168.552 493.500 C 163.061 524.999, 165.203 564.747, 173.659 588.280 C 197.147 653.646, 260.069 679.675, 357.755 664.436 C 396.754 658.352, 447.415 643.902, 495.447 625.162 C 499.818 623.456, 503.570 622.236, 503.784 622.451 C 503.998 622.665, 500.839 626.364, 496.763 630.670 C 466.102 663.067, 440.634 697.295, 426.464 725.150 C 406.119 765.143, 405.125 798.071, 423.434 825.500 C 444.278 856.726, 480.863 880.890, 535 899.188 C 582.431 915.219, 647.599 926.408, 712.250 929.621 L 726 930.304 726.219 905.152 C 726.339 891.318, 726.452 876.962, 726.469 873.250 L 726.500 866.500 721 866.263 C 641.848 862.851, 564.291 846.678, 519.500 824.242 C 501.072 815.012, 484.090 801.812, 476.945 791.164 C 474.064 786.871, 473.857 786.017, 474.353 780.427 C 477.656 743.180, 538.998 669.532, 635 587.551 C 669.124 558.411, 664.568 561.337, 689.500 552.543 C 739.412 534.938, 796.337 516.402, 829.750 506.875 C 838.138 504.483, 845 502.137, 845 501.662 C 845 501.186, 842.308 490.458, 839.018 477.821 C 832.609 453.209, 830.144 447.304, 822.128 437.354 C 811.080 423.640, 795.432 415.979, 778.540 416.015 C 768.996 416.035, 760.233 418.263, 750.037 423.261 C 733.763 431.239, 687.403 463.544, 649.948 493.006 L 636.157 503.854 618.014 510.440 C 589.150 520.920, 547.719 536.557, 504 553.475 C 435.622 579.933, 411.141 587.948, 369.500 597.505 C 343.270 603.525, 307.427 606.434, 288.625 604.067 C 248.988 599.078, 233.079 582.906, 229.760 544.230 C 227.800 521.397, 231.270 495.996, 239.023 476.416 C 257.991 428.517, 302.851 396.802, 364.743 387.534 C 400.981 382.108, 431.224 392.883, 461.337 421.950 C 478.592 438.606, 492.255 457.412, 502.340 478.388 L 507.792 489.726 515.146 490.799 C 556.564 496.842, 575.027 499.306, 575.481 498.853 C 576.279 498.054, 580.692 455.616, 582.433 432 C 586.409 378.029, 586.845 318.908, 583.496 287.500 C 582.675 279.800, 582.003 272.777, 582.002 271.893 C 582 270.584, 583.708 270.159, 591.250 269.595 C 625.679 267.019, 753.999 253.189, 755.415 251.902 C 756.208 251.181, 749.619 190.286, 748.643 189.310 C 748.460 189.127, 738.889 190.093, 727.373 191.456 C 672.388 197.965, 593.090 205.858, 578.668 206.256 L 569.836 206.500 561.042 171.500 C 556.206 152.250, 548.768 124.575, 544.515 110 C 540.262 95.425, 536.360 82.037, 535.844 80.250 C 535.328 78.463, 534.365 77.020, 533.703 77.045 C 533.041 77.070, 519.450 81.256, 503.500 86.348 " stroke="none" fill="black" fill-rule="evenodd"/>
</svg>