<svg xmlns="http://www.w3.org/2000/svg" width="1000" height="1000" viewBox="0 0 1000 1000" version="1.1">
	<path d="M 524 107.660 C 441.949 111.995, 337.590 135.558, 218.500 176.641 C 197.184 183.994, 160.026 197.641, 159.275 198.391 C 158.657 199.010, 182.145 257, 183.014 257 C 183.460 257, 190.951 254.343, 199.662 251.096 C 303.281 212.472, 407.494 184.713, 485 175.093 C 555.191 166.381, 610.311 172.784, 626.856 191.572 C 635.235 201.087, 642.587 219.649, 646.631 241.500 C 649.516 257.087, 649.269 300.675, 646.195 318.403 C 631.935 400.639, 589.503 456.400, 526.719 475.409 C 508.795 480.836, 496.495 482.467, 473.500 482.469 C 456.550 482.470, 436.575 480.908, 435.137 479.470 C 434.921 479.254, 436.586 472.423, 438.837 464.289 C 446.687 435.929, 460.722 376.243, 462.179 365.027 L 462.500 362.553 431.576 356.784 C 414.567 353.612, 400.529 351.138, 400.380 351.287 C 400.231 351.436, 398.256 360.267, 395.993 370.912 C 378.640 452.516, 351.913 537.534, 326.489 592 C 315.942 614.595, 297.026 647.405, 281.579 669.896 C 278.786 673.963, 275.576 678.836, 274.447 680.723 C 270.064 688.049, 247.692 719.549, 230.938 741.983 C 204.892 776.860, 178.688 809.292, 152.706 838.808 C 146.747 845.577, 142.013 851.501, 142.186 851.971 C 142.624 853.166, 187.213 894, 188.079 894 C 189.920 894, 222.668 855.813, 248.110 824 C 273.369 792.416, 291.245 768.509, 314.285 735.500 L 326.150 718.500 338.146 709.914 C 394.932 669.273, 450.280 647.542, 479.469 654.429 C 493.567 657.755, 502.876 666.635, 515.295 688.607 C 521.241 699.127, 526.580 711.068, 541.180 746.500 C 559.999 792.171, 572.024 815.665, 586.580 835.200 C 611.857 869.125, 643.321 888.344, 690.083 898.423 C 727.072 906.396, 777.248 906.566, 828 898.890 C 844.769 896.354, 875.213 890.161, 876.331 889.058 C 877.057 888.342, 861.868 829.534, 860.639 828.306 C 860.380 828.047, 853.718 829.190, 845.834 830.847 C 830.228 834.126, 811.018 837.142, 793 839.142 C 777.661 840.845, 733.268 840.848, 721 839.146 C 682.366 833.788, 657.948 822.444, 641.665 802.290 C 627.118 784.286, 617.883 765.923, 594.492 708.500 C 567.954 643.350, 546.541 614.344, 513.619 598.951 C 483.331 584.790, 442.646 586.669, 396.645 604.354 C 392.477 605.956, 390.008 606.501, 390.346 605.745 C 393.929 597.718, 406.802 565.142, 410.560 554.588 C 414.318 544.038, 415.749 541.098, 416.951 541.465 C 417.803 541.724, 425.250 542.818, 433.500 543.895 C 489.049 551.151, 536.697 544.217, 579.781 522.610 C 654.099 485.338, 703.641 403.132, 712.076 303.091 C 713.518 285.979, 712.767 253.203, 710.595 238.500 C 704.526 197.421, 691.781 167.356, 671.386 146.008 C 656.742 130.681, 637.152 120.646, 609 114.052 C 585.743 108.604, 552.895 106.134, 524 107.660 " stroke="none" fill="black" fill-rule="evenodd"/>
</svg>