<svg xmlns="http://www.w3.org/2000/svg" width="1000" height="1000" viewBox="0 0 1000 1000" version="1.1">
	<path d="M 607.500 71.666 C 589.087 73.917, 566.750 79.837, 545.750 88.033 C 542.587 89.268, 540 90.738, 540 91.301 C 540 91.863, 545.722 105.087, 552.714 120.687 C 562.855 143.307, 565.740 148.912, 566.964 148.371 C 573.370 145.541, 595.840 138.465, 603.327 136.919 C 612.160 135.097, 628.142 134.350, 631.418 135.607 C 634.566 136.815, 633.365 151.755, 628.875 167.241 C 626.615 175.038, 628.653 174.154, 607.500 176.505 C 599.250 177.422, 571.125 181.710, 545 186.034 C 491.684 194.859, 472.144 197.746, 441 201.399 C 423.405 203.463, 393.838 206, 387.385 206 C 386.170 206, 386.030 204.462, 386.539 196.750 C 388.092 173.224, 392.191 148.265, 398.405 124.500 C 400.275 117.350, 401.961 110.881, 402.152 110.125 C 402.666 108.094, 343.094 88.229, 341.966 90.055 C 340.965 91.675, 335.585 111.915, 332.424 125.954 C 327.194 149.180, 323 180.788, 323 196.972 C 323 203.953, 322.772 204.999, 321.250 204.994 C 316.067 204.977, 281.803 201.638, 264 199.415 C 229.316 195.084, 191.361 188.321, 160.103 180.903 C 153.285 179.284, 147.590 178.082, 147.447 178.230 C 146.354 179.371, 131.047 238.445, 131.682 239.075 C 133.574 240.950, 178.391 250.572, 210.500 255.997 C 245.295 261.876, 278.497 265.784, 318.791 268.744 L 329.081 269.500 332.530 279.793 C 337.318 294.081, 341.972 303.767, 349.416 314.937 C 355.160 323.556, 369.476 339.925, 370.380 338.908 C 370.580 338.684, 380.036 327.999, 391.394 315.165 L 412.044 291.831 408.001 287.001 C 404.208 282.471, 397 271.344, 397 270.019 C 397 269.690, 404.762 268.856, 414.250 268.166 C 445.331 265.906, 494.352 259.288, 549.416 249.919 C 565.320 247.213, 578.504 245.170, 578.713 245.380 C 579.224 245.891, 558.494 265.196, 548.500 273.516 C 532.998 286.422, 509.545 302.352, 494.758 310.018 L 488.307 313.363 501.897 341.306 C 509.371 356.675, 516.036 369.460, 516.708 369.718 C 517.380 369.976, 523.646 366.954, 530.632 363.004 C 581.861 334.033, 631.164 289.271, 660.708 244.906 L 667.097 235.312 687.368 234.708 C 698.517 234.375, 713.457 234.536, 720.569 235.064 C 750.246 237.270, 781.295 245.074, 808.797 257.241 C 815.010 259.990, 820.234 262.073, 820.406 261.870 C 821.129 261.012, 851 207.164, 851 206.718 C 851 205.973, 827.730 195.691, 817 191.695 C 782.720 178.928, 749.017 172.237, 714.176 171.283 C 694.129 170.734, 693.859 170.697, 694.352 168.613 C 697.450 155.511, 697.509 131.727, 694.473 120.500 C 689.525 102.207, 677.124 86.958, 660.777 79.066 C 649.132 73.444, 637.061 70.984, 622 71.163 C 615.675 71.238, 609.150 71.465, 607.500 71.666 M 408.999 336.601 C 408.998 344.294, 411.199 394.459, 411.555 394.854 C 411.731 395.049, 415.615 395.621, 420.187 396.125 C 446.264 399.003, 465.632 410.211, 473.971 427.250 C 475.788 430.962, 477.550 434.007, 477.887 434.016 C 479.163 434.049, 535.542 414.653, 536.415 413.880 C 537.467 412.948, 533.266 402.500, 528.221 393.500 C 508.284 357.937, 467.188 334.631, 420.250 332.269 L 409 331.703 408.999 336.601 M 695.634 391.009 C 687.271 428.044, 656.324 461.751, 609.906 484.384 L 595.281 491.515 606.968 520.252 C 613.395 536.056, 618.890 549.223, 619.178 549.511 C 620.701 551.035, 652.833 534.741, 668.956 524.269 C 688.307 511.700, 708.402 493.930, 721.279 478 C 741.884 452.511, 757.350 418.603, 759.648 393.880 L 760.263 387.260 752.882 386.652 C 748.822 386.317, 736.050 385.791, 724.500 385.482 C 712.950 385.173, 702.089 384.702, 700.364 384.436 L 697.228 383.952 695.634 391.009 M 248.869 409.801 C 235.812 423.681, 224.531 442.778, 220.398 458 C 217.760 467.715, 217.919 484.464, 220.735 493.500 C 226.397 511.668, 240.053 526.401, 260.064 535.931 C 271.244 541.255, 278.337 543.032, 291.113 543.708 C 314.010 544.921, 337.595 538.694, 368.397 523.306 C 391.027 512, 420.696 492.989, 419.329 490.669 C 418.443 489.167, 384.089 443.898, 382.607 442.280 C 381.744 441.339, 380.011 442.098, 374.995 445.616 C 347.518 464.888, 316.668 478.725, 298.871 479.761 C 291.136 480.212, 289.809 480.020, 286.066 477.917 C 282.454 475.887, 281.974 475.229, 282.504 473.035 C 283.442 469.160, 288.964 460.453, 294.250 454.515 C 296.863 451.581, 299 448.873, 299 448.499 C 299 447.737, 258.079 402.664, 256.978 402.213 C 256.593 402.055, 252.944 405.470, 248.869 409.801 M 489.676 457.250 C 488.793 460.922, 481.296 505.970, 478.067 527 C 475.729 542.227, 468 599.701, 468 601.856 C 468 602.857, 420.614 600.961, 410 599.535 C 387.892 596.564, 365.960 591.354, 348 584.805 C 338.394 581.302, 321.581 573.466, 315.338 569.581 L 311.175 566.991 292.022 591.602 C 281.487 605.138, 273.089 616.790, 273.360 617.495 C 274.690 620.963, 306.810 637.632, 325.327 644.464 C 361.765 657.909, 409.625 666, 452.718 666 L 462.969 666 462.510 671.750 C 462.258 674.913, 461.805 687.822, 461.504 700.438 C 461.203 713.054, 460.854 723.472, 460.728 723.589 C 460.603 723.706, 455.100 724.559, 448.500 725.485 C 432.813 727.686, 412.789 732.058, 396.020 736.945 C 388.605 739.105, 382.393 740.727, 382.215 740.549 C 382.037 740.371, 387.003 732.187, 393.251 722.363 C 399.498 712.538, 404.924 703.977, 405.309 703.338 C 405.764 702.584, 396.524 696.333, 378.932 685.495 C 364.039 676.319, 351.708 668.967, 351.529 669.156 C 351.351 669.345, 347.271 675.800, 342.463 683.500 C 328.537 705.805, 307.290 737.515, 297.898 750.010 C 290.824 759.422, 280.105 770.435, 239.123 810.400 C 211.555 837.284, 189 859.609, 189 860.012 C 189 860.634, 224.738 893.846, 236.270 903.942 L 240.040 907.242 255.781 891.871 C 277.143 871.011, 299.809 853.678, 328.156 836.522 C 334.945 832.414, 340.629 829.426, 340.786 829.883 C 340.943 830.340, 340.201 834.716, 339.138 839.607 C 338.074 844.498, 337.388 848.803, 337.614 849.173 C 337.839 849.543, 339.480 850.137, 341.261 850.493 C 343.043 850.848, 348.775 852.522, 354 854.213 C 393.081 866.860, 432.346 894.346, 465.833 932.500 C 471.625 939.100, 476.703 944.640, 477.117 944.812 C 477.531 944.983, 487.799 939.358, 499.935 932.312 L 522 919.500 522.070 901.500 C 522.216 864.409, 523.650 788.017, 524.211 787.455 C 525.168 786.498, 548.285 789.806, 566.560 793.515 C 624.882 805.351, 688.522 832.651, 746.305 870.621 C 754.998 876.333, 765.699 883.705, 770.085 887.003 C 774.471 890.302, 778.245 893, 778.472 893 C 779.231 893, 818 845.104, 818 844.167 C 818 842.025, 783.860 818.253, 761.149 804.580 C 688.793 761.021, 610.233 732.365, 543 725.010 C 537.775 724.439, 531.533 723.717, 529.130 723.406 L 524.759 722.841 525.406 697.171 C 525.761 683.052, 526.301 668.986, 526.605 665.914 L 527.158 660.328 539.936 658.124 C 569.418 653.041, 602.285 644.528, 634.636 633.597 C 656.444 626.229, 689.674 613.337, 690.562 611.900 C 691.111 611.012, 668.651 556.664, 666.886 554.611 C 666.462 554.117, 658.169 556.868, 648.207 560.809 C 614.818 574.015, 580.548 584.576, 548.852 591.427 C 540.409 593.252, 533.415 594.680, 533.311 594.600 C 532.460 593.948, 542.342 526.992, 548.957 488.588 C 551.049 476.440, 552.675 466.397, 552.569 466.272 C 552.211 465.847, 494.048 455, 492.126 455 C 490.973 455, 490.003 455.891, 489.676 457.250 M 448 790.040 C 431.890 792.909, 399.984 801.450, 400.012 802.887 C 400.018 803.224, 405.531 806.321, 412.262 809.770 C 425.578 816.592, 439.118 824.839, 451.250 833.515 L 459 839.058 459 831.689 C 459 827.636, 459.296 816.148, 459.658 806.160 C 460.046 795.450, 459.943 788.035, 459.408 788.085 C 458.909 788.132, 453.775 789.011, 448 790.040 " stroke="none" fill="black" fill-rule="evenodd"/>
</svg>