<svg xmlns="http://www.w3.org/2000/svg" width="1000" height="1000" viewBox="0 0 1000 1000" version="1.1">
	<path d="M 336.500 79.081 C 323.300 88.998, 312.119 97.491, 311.653 97.954 C 311.186 98.416, 315.454 105.254, 321.136 113.147 C 336.953 135.122, 378.968 198.422, 378.190 199.105 C 377.810 199.437, 370.975 202.449, 363 205.798 C 334.901 217.596, 319.904 220.524, 288 220.439 C 266.025 220.381, 253.231 219.092, 235.164 215.118 C 229.331 213.835, 226.713 213.617, 226.444 214.392 C 222.781 224.951, 209.279 273.679, 209.855 274.255 C 211.184 275.584, 238.651 280.881, 253.500 282.673 C 270.319 284.702, 304.859 284.935, 319.500 283.118 C 346.468 279.771, 363.691 274.867, 393.782 261.970 C 412.268 254.047, 413.122 253.784, 414.462 255.603 C 415.231 256.646, 424.055 271.146, 434.071 287.824 C 449.415 313.376, 452.062 318.352, 450.890 319.447 C 448.706 321.487, 416.348 341.049, 383.500 360.187 C 320.701 396.774, 247.833 436.608, 179 471.979 C 160.575 481.447, 145.109 489.563, 144.632 490.015 C 144.027 490.587, 171.461 543.599, 174.529 547.786 C 174.644 547.943, 189.760 544.651, 208.119 540.470 C 303.052 518.851, 535.894 467.758, 536.642 468.381 C 537.142 468.797, 560.941 514.384, 560.744 514.548 C 560.610 514.660, 550.600 519.737, 538.500 525.829 C 479.974 555.299, 411.170 599.859, 334.925 657.673 C 325.258 665.003, 317.108 671, 316.814 671 C 316.520 671, 316.008 668.718, 315.678 665.928 C 314.084 652.471, 304.414 629.400, 293.285 612.500 C 287.378 603.532, 272.961 585.046, 269.328 581.783 C 267.485 580.128, 266.616 580.868, 245.031 602.469 L 222.646 624.870 227.145 630.185 C 238.123 643.157, 245.928 655.665, 249.952 666.739 C 254.052 678.022, 255.500 692.351, 255.500 721.633 L 255.500 746.766 278.489 756.252 L 301.477 765.739 310.489 758.289 C 390.810 691.887, 478.832 630.475, 547.246 593.104 C 565.371 583.204, 587.924 572, 589.728 572 C 590.212 572, 599.018 588.578, 609.297 608.840 L 627.988 645.679 616.244 656.222 C 530.410 733.281, 411.230 806.934, 303.114 849.736 C 286.141 856.456, 253.780 867.613, 244.135 870.070 C 241.184 870.822, 238.576 871.941, 238.340 872.557 C 237.932 873.620, 253.630 931.963, 254.579 932.912 C 255.850 934.184, 300.751 919.218, 328.500 908.274 C 386.595 885.361, 459.017 847.588, 519.500 808.655 C 527.200 803.698, 534.285 799.695, 535.244 799.759 C 538.180 799.954, 568.610 807.832, 584.786 812.585 C 644.298 830.071, 696.370 853.770, 728.365 877.931 C 741.603 887.927, 747.574 894.087, 756.305 906.750 C 760.571 912.938, 764.422 918, 764.863 918 C 765.641 918, 822.005 892.328, 822.656 891.677 C 823.265 891.068, 793.267 830.575, 749.222 743.593 L 705.215 656.686 710.703 650.217 C 713.722 646.659, 719.285 639.576, 723.067 634.478 C 744.908 605.036, 755.165 579.943, 755.155 555.982 C 755.146 534.576, 746.839 516.915, 730.871 504.352 C 704.923 483.938, 670.383 479.788, 623.865 491.496 C 621.311 492.139, 620.934 491.592, 611.676 473.830 C 606.421 463.748, 602.432 455.214, 602.811 454.865 C 603.190 454.516, 612.725 452.387, 624 450.135 C 686.812 437.585, 742.100 431.622, 807.750 430.315 C 824.938 429.973, 839.019 429.649, 839.043 429.596 C 839.263 429.101, 841.778 361.445, 841.584 361.251 C 841.442 361.108, 833.264 360.312, 823.413 359.481 C 796.814 357.238, 777.533 351.889, 751.269 339.468 C 731.469 330.105, 711.314 317.007, 693.403 301.865 L 684.305 294.174 663.153 317.186 C 651.519 329.843, 642 340.547, 642 340.973 C 642 342.635, 668.667 364.178, 679.750 371.470 C 682.087 373.007, 684 374.598, 684 375.004 C 684 375.410, 681.188 376.047, 677.750 376.420 C 664.338 377.875, 628.141 384.184, 600.145 389.947 C 584 393.270, 570.421 395.760, 569.969 395.481 C 569.517 395.202, 567.017 391.042, 564.412 386.236 C 561.808 381.431, 555.022 369.279, 549.332 359.230 C 543.642 349.182, 538.877 340.576, 538.743 340.107 C 538.610 339.637, 546.375 333.727, 556 326.972 C 591.714 301.910, 614.137 283.927, 632.594 265.545 C 646.292 251.903, 655.446 240.100, 660.434 229.648 C 666.053 217.875, 667.310 212.078, 666.788 200.347 C 666.368 190.895, 666.018 189.420, 662.504 182.310 C 657.708 172.607, 644.909 159.307, 634.443 153.152 C 596.003 130.544, 538.342 135.360, 452.500 168.347 L 438.500 173.727 434.522 167.614 C 397.990 111.477, 363.258 60.957, 361.243 61.025 C 360.834 61.039, 349.700 69.164, 336.500 79.081 M 555.500 204.592 C 541.403 206.781, 519.303 212.501, 500.097 218.930 C 477.511 226.491, 472.645 228.583, 473.694 230.285 C 474.137 231.005, 481.620 243.396, 490.321 257.822 L 506.143 284.050 515.821 277.330 C 542.556 258.768, 558.801 246.377, 576.320 231.185 C 588.281 220.813, 600.276 207.876, 599.061 206.661 C 595.552 203.152, 571.978 202.032, 555.500 204.592 M 463.500 386.573 C 452.500 393.371, 429.017 407.378, 411.315 417.698 C 393.614 428.019, 379.216 436.549, 379.320 436.653 C 379.424 436.757, 393.007 433.928, 409.505 430.365 C 426.002 426.802, 453.823 420.803, 471.328 417.032 C 488.833 413.262, 503.400 409.933, 503.698 409.635 C 504.312 409.021, 484.918 373.941, 484.056 374.107 C 483.750 374.166, 474.500 379.776, 463.500 386.573 M 655.750 549.680 C 653.688 549.923, 652 550.548, 652 551.069 C 652 551.591, 656.777 561.564, 662.616 573.232 L 673.232 594.446 675.524 591.572 C 681.830 583.664, 690.332 566.028, 691.570 558.290 C 692.222 554.208, 692.178 554.131, 687.865 551.866 C 684.090 549.883, 681.878 549.551, 671.500 549.407 C 664.900 549.315, 657.813 549.438, 655.750 549.680 M 650 711.590 C 642.632 718.098, 615.596 740.414, 607.250 746.877 C 602.921 750.229, 601.921 752, 604.356 752 C 609.682 752, 670.153 773.960, 689.408 782.887 C 694.308 785.159, 698.508 786.825, 698.743 786.590 C 699.195 786.139, 660.899 709.611, 658.755 706.681 C 657.621 705.132, 656.774 705.607, 650 711.590 " stroke="none" fill="black" fill-rule="evenodd"/>
</svg>