<svg xmlns="http://www.w3.org/2000/svg" width="1000" height="1000" viewBox="0 0 1000 1000" version="1.1">
	<path d="M 268.749 87.097 C 248.158 102.927, 244.151 106.410, 244.915 107.813 C 246.805 111.284, 264.714 130.929, 276.889 142.884 C 320.253 185.468, 365 214.643, 410.500 230 C 421.715 233.785, 431.899 236.516, 432.368 235.863 C 432.512 235.663, 435.709 222.450, 439.474 206.500 C 443.240 190.550, 446.500 176.810, 446.720 175.967 C 447.026 174.793, 444.895 173.809, 437.619 171.764 C 408.787 163.660, 376.206 145.065, 344.942 118.869 C 331.497 107.604, 310.315 86.787, 301.030 75.715 C 297.472 71.472, 294.322 68.015, 294.030 68.034 C 293.739 68.053, 282.362 76.631, 268.749 87.097 M 728.084 222.084 C 697.388 226.059, 659.520 243.820, 609.670 277.622 C 573.586 302.090, 519.416 344.255, 452.807 399.719 C 412.990 432.875, 399.835 444.296, 376.319 466.124 C 366.320 475.406, 357.995 483, 357.819 483 C 357.644 483.001, 357.636 456.589, 357.802 424.309 L 358.105 365.617 350.375 346.558 C 346.123 336.076, 342.496 327.309, 342.315 327.076 C 342.134 326.843, 334.451 328.736, 325.243 331.283 C 306.963 336.339, 285.224 340.923, 266.500 343.669 C 257.699 344.960, 248.102 345.435, 230.500 345.450 C 208.852 345.469, 205.617 345.249, 197.492 343.209 C 188.341 340.911, 178.351 336.078, 177.348 333.463 C 176.469 331.174, 181.647 323.350, 189.494 315.108 L 196.736 307.500 178.118 283.065 C 167.878 269.626, 158.955 258.457, 158.288 258.245 C 156.770 257.761, 140.414 273.441, 133.903 281.622 C 111.980 309.170, 107.280 337.711, 120.518 362.903 C 130.895 382.650, 153.362 397.933, 182.500 405.067 C 207.787 411.257, 246.715 411.417, 283.739 405.481 C 288.821 404.667, 293.208 404, 293.489 404 C 293.770 404, 294 436.621, 294 476.491 L 294 548.981 282.222 561.741 C 245.535 601.483, 196.747 659.901, 156.316 712.500 C 136.644 738.093, 107.908 778.318, 108.754 779.079 C 109.164 779.448, 120.075 783.245, 133 787.515 C 145.925 791.786, 177.650 803.035, 203.500 812.512 C 229.350 821.990, 260.850 833.141, 273.500 837.293 C 312.658 850.146, 338.160 858.173, 338.561 857.772 C 338.773 857.561, 343.036 848.752, 348.036 838.197 L 357.126 819.007 358.132 741.753 C 358.685 699.264, 358.842 644.025, 358.481 619 L 357.823 573.500 386.662 544.973 C 428.608 503.480, 440.537 492.745, 495 447.485 C 586.027 371.840, 640.141 331.273, 682.441 306.971 C 711.500 290.275, 738.126 281.577, 745.460 286.382 C 751.092 290.072, 749.039 295.797, 726.233 340 C 712.967 365.712, 708.349 376.802, 705.205 390.500 C 700.944 409.068, 701.449 423.648, 706.888 439.017 C 710.828 450.151, 715.349 457.199, 724.500 466.476 C 734.549 476.663, 744.564 483.357, 763 492.207 C 803.825 511.805, 810.477 515.992, 817.545 526.533 C 824.438 536.814, 825.514 541.740, 825.406 562.500 C 825.177 606.719, 814.703 644.201, 793.552 676.500 C 751.375 740.906, 663.984 805.030, 512.820 882.488 L 497.231 890.476 511.227 918.488 C 518.924 933.895, 525.373 946.663, 525.557 946.862 C 526.061 947.408, 575.707 921.811, 598.690 909.156 C 752.140 824.662, 834.908 751.293, 868.892 669.639 C 880.088 642.737, 886.185 614.910, 889.079 577.500 C 892.453 533.891, 883.566 503.475, 859.878 477.557 C 848.913 465.560, 835.765 457.019, 804.296 441.453 C 766.600 422.807, 764.422 420.841, 766.703 407.521 C 768.249 398.501, 772.861 387.854, 785.750 363.560 C 803.494 330.114, 808.790 316.567, 810.990 299 C 815.766 260.862, 788.811 226.926, 749.862 222.042 C 740.571 220.877, 737.360 220.883, 728.084 222.084 M 278.258 662.750 C 242.911 704.475, 209.389 746.845, 211.214 747.489 C 211.921 747.739, 223.075 751.824, 236 756.566 C 267.955 768.291, 293.224 777.109, 293.649 776.685 C 294.270 776.064, 295.351 644, 294.735 644 C 294.408 644, 286.994 652.438, 278.258 662.750 " stroke="none" fill="black" fill-rule="evenodd"/>
</svg>