<svg xmlns="http://www.w3.org/2000/svg" width="1000" height="1000" viewBox="0 0 1000 1000" version="1.1">
	<path d="M 501.086 111.723 C 497.020 128.100, 493.519 141.986, 493.305 142.579 C 493.092 143.173, 494.848 144.231, 497.209 144.930 C 515.077 150.225, 533 163.363, 533 171.167 C 533 174.894, 525.452 181.502, 509.241 191.967 C 477.245 212.622, 468.915 218.346, 459.916 225.856 C 424.535 255.388, 411.847 292.979, 423.544 333.616 C 426.654 344.419, 433.543 358.987, 446.194 381.514 C 458.833 404.019, 463.260 412.941, 469.509 428.500 C 482.507 460.863, 490.011 496.355, 493.560 542.250 L 494.237 551 491.806 551 C 490.469 551, 481.978 551.690, 472.937 552.533 C 417.154 557.737, 368.124 566.653, 324.500 579.527 C 278.745 593.030, 259.128 603.133, 243.183 621.406 C 221.561 646.185, 220.517 679.492, 240.270 714.378 C 267.608 762.661, 341.083 823.764, 450.500 889.208 C 467.328 899.273, 498.816 917, 499.866 917 C 500.205 917, 509.589 911.487, 520.720 904.750 L 540.957 892.500 541.964 887.500 C 550.810 843.539, 556.733 759.561, 558.626 651.250 L 559.312 612 574.906 612.010 C 645.603 612.053, 723.107 623.081, 749.500 636.852 C 752.250 638.287, 754.783 639.470, 755.129 639.481 C 756.353 639.518, 797.031 593.592, 796.693 592.554 C 796.011 590.460, 786.312 583.886, 777.500 579.544 C 741.740 561.927, 680.230 551.582, 595 548.850 C 574.925 548.207, 558.368 547.583, 558.206 547.463 C 558.044 547.343, 557.475 541.677, 556.942 534.872 C 553.606 492.313, 546.164 454.123, 534.753 421 C 526.395 396.742, 517.871 378.583, 500.484 348 C 485.654 321.915, 482.278 312.904, 483.262 302.044 C 484.486 288.554, 495.515 276.344, 521 260.269 C 551.001 241.345, 563.264 232.675, 572.451 223.892 C 588.463 208.585, 595.649 194.390, 596.715 175.963 C 598.571 143.903, 579.852 115.436, 544 95.795 C 536.972 91.945, 516.378 83.562, 511.490 82.562 L 508.479 81.946 501.086 111.723 M 467.500 617.115 C 414.132 622.772, 366.506 632.415, 327.096 645.544 C 307.875 651.947, 297.798 656.578, 293.145 661.148 C 290.120 664.118, 289.838 664.872, 290.281 668.798 C 292.733 690.559, 334.452 733.537, 396 777.710 C 418.311 793.723, 477.905 832.491, 483.520 834.646 C 485.469 835.394, 485.700 833.912, 487.967 806 C 491.729 759.678, 493.682 715.969, 494.651 656.399 L 495.324 615 490.412 615.103 C 487.710 615.160, 477.400 616.066, 467.500 617.115 " stroke="none" fill="black" fill-rule="evenodd"/>
</svg>