<svg xmlns="http://www.w3.org/2000/svg" width="1000" height="1000" viewBox="0 0 1000 1000" version="1.1">
	<path d="M 304.349 121.683 L 274.197 129.137 276.460 136.318 C 292.993 188.792, 331.272 235.004, 377.500 258.299 C 393.264 266.243, 418.439 275.105, 420.026 273.270 C 420.393 272.846, 423.713 259.675, 427.404 244 C 431.096 228.325, 434.327 214.769, 434.585 213.876 C 434.956 212.593, 433.213 211.683, 426.277 209.536 C 403.570 202.506, 384.148 189.702, 367.574 170.833 C 356.195 157.880, 345.182 139.100, 338.958 122.039 C 337.461 117.936, 335.845 114.500, 335.368 114.403 C 334.891 114.307, 320.932 117.583, 304.349 121.683 M 706.856 150.316 C 687.093 157.052, 675.656 173.861, 669.306 205.500 C 667.777 213.121, 667.509 219.479, 667.562 247 C 667.623 279.641, 668.532 292.826, 673.418 332 C 674.207 338.325, 674.549 343.767, 674.176 344.093 C 673.804 344.419, 665.400 347.279, 655.500 350.449 C 604.837 366.670, 564.532 387.128, 524.462 416.961 C 493.010 440.378, 463.519 469.250, 442.308 497.391 C 436.187 505.511, 435.090 507.507, 436.176 508.542 C 438.074 510.350, 486.973 542, 487.868 542 C 488.279 542, 489.966 540.087, 491.618 537.750 C 497.250 529.779, 510.241 514.900, 521.049 504.040 C 557.433 467.482, 599.306 439.903, 647.500 420.753 C 659.727 415.895, 679.930 409.035, 682.070 409.015 C 683.319 409.003, 683.883 411.095, 684.829 419.250 C 689.148 456.463, 692.398 502.578, 694.178 551.899 C 695.871 598.781, 693.689 648.665, 688.009 692.902 C 679.242 761.190, 662.913 824.829, 637.607 889.344 C 633.973 898.607, 631 906.529, 631 906.947 C 631 907.636, 684.614 930.496, 687.884 931.201 C 689.462 931.542, 693.714 921.791, 703.451 895.500 C 734.185 812.520, 751.154 731.359, 757.081 639 C 758.528 616.450, 758.529 550.122, 757.082 525 C 753.662 465.582, 751.731 442.551, 746.433 397.965 L 745.775 392.430 762.638 389.234 C 806.400 380.940, 857.210 374.461, 893.500 372.548 C 899.550 372.229, 907.987 371.704, 912.250 371.380 C 919.814 370.806, 920 370.728, 920.006 368.146 C 920.024 360.754, 914.653 320.250, 913.391 318.263 C 910.532 313.760, 883.793 280.783, 869.292 263.877 C 809.513 194.181, 765.535 156.460, 736 149.550 C 726.327 147.287, 714.859 147.589, 706.856 150.316 M 731.597 221.250 C 729.429 235.523, 730.564 267.544, 734.563 304.952 C 735.942 317.850, 737.224 328.558, 737.412 328.745 C 737.600 328.933, 743.547 327.949, 750.627 326.559 C 768.114 323.125, 796.487 318.548, 813.750 316.378 C 821.587 315.393, 828 314.313, 828 313.979 C 828 312.907, 798.825 279.969, 785.101 265.547 C 769.272 248.913, 752.541 233.173, 741.356 224.393 C 736.877 220.877, 732.960 218, 732.652 218 C 732.343 218, 731.868 219.463, 731.597 221.250 M 301.315 431.147 C 287.293 432.482, 271.840 436.874, 245.591 446.986 C 232.442 452.051, 217.592 457.232, 212.591 458.498 C 200.530 461.553, 178.859 465.154, 172 465.244 C 162.701 465.366, 152.362 459.508, 145.835 450.419 C 144.089 447.989, 142.219 446, 141.680 446 C 140.608 446, 87.999 473.682, 86.703 474.927 C 85.348 476.230, 96.008 490.998, 104.508 499.594 C 114.055 509.250, 127.943 518.677, 138.747 522.838 C 157.054 529.888, 171.691 530.637, 200.007 525.972 C 227.865 521.382, 235.552 519.186, 270.268 505.897 C 281.788 501.488, 291.388 498.055, 291.602 498.268 C 291.815 498.482, 290.452 505.372, 288.573 513.578 C 275.314 571.472, 266.206 625.823, 264.087 659.706 C 262.379 687.002, 265.673 733.140, 271.568 764.500 C 277.884 798.102, 285.969 822.434, 297.735 843.250 L 304.377 855 331.059 855 L 357.740 855 359.462 841.750 C 367.624 778.936, 392.647 711.296, 426.811 659.700 C 430.467 654.179, 432.907 649.551, 432.400 649.100 C 431.445 648.250, 384.305 614.923, 382.352 613.717 C 381.001 612.883, 366.693 634.415, 356.581 652.500 C 348.763 666.483, 337.771 688.943, 332.949 700.790 C 330.525 706.743, 329.392 708.576, 328.927 707.290 C 327.525 703.409, 326.921 672.093, 327.995 659 C 331.317 618.516, 342.836 558.275, 362.030 481.004 C 367.426 459.280, 371.685 441.352, 371.495 441.162 C 369.983 439.649, 334.524 431.822, 325.500 431.009 C 313.394 429.917, 314.276 429.912, 301.315 431.147 " stroke="none" fill="black" fill-rule="evenodd"/>
</svg>