<svg xmlns="http://www.w3.org/2000/svg" width="1000" height="1000" viewBox="0 0 1000 1000" version="1.1">
	<path d="M 485 89.170 C 476.224 90.417, 460.151 95.900, 449.309 101.345 C 413.988 119.084, 376.891 156.223, 349.158 201.607 L 342.982 211.714 330.741 209.380 C 292.864 202.158, 246.877 189.608, 208.652 176.061 C 202.136 173.751, 196.590 172.076, 196.328 172.339 C 196.066 172.601, 190.756 185.936, 184.528 201.971 C 173.552 230.233, 173.271 231.152, 175.352 231.926 C 209.299 244.557, 257.514 258.715, 295 267.061 C 305.175 269.326, 313.618 271.295, 313.763 271.436 C 314.141 271.805, 309.807 281.122, 286.520 330 C 238.737 430.293, 223.506 467.419, 215.135 504 C 210.496 524.276, 209.839 546.100, 213.466 559.500 C 219.362 581.281, 234.831 596.790, 256.710 602.852 C 269.315 606.345, 281.621 607.334, 304.406 606.685 C 337.060 605.756, 378.132 599.548, 431.731 587.440 C 440.108 585.548, 447.189 584, 447.467 584 C 447.744 584, 447.695 613.362, 447.358 649.250 C 446.989 688.560, 447.189 731.595, 447.862 757.500 C 449.566 823.126, 452.241 906.448, 452.660 906.934 C 453.173 907.528, 515.040 905.294, 515.676 904.658 C 515.956 904.378, 515.474 882.853, 514.605 856.824 C 511.321 758.471, 510.734 721.250, 511.263 645.153 C 511.555 603.163, 512.177 568.434, 512.647 567.979 C 513.116 567.524, 524.191 564.178, 537.258 560.543 C 575.999 549.768, 663.113 523.043, 664.921 521.379 C 665.720 520.644, 654.749 487.450, 648.279 471.027 C 622.516 405.633, 590.196 366.368, 554.936 357.627 C 546.656 355.575, 531.309 355.520, 523.460 357.515 C 501.080 363.204, 482.971 381.758, 472.269 409.965 C 463.318 433.557, 455.464 472.674, 452.435 508.746 L 451.742 516.992 448.121 517.964 C 414.496 526.984, 356.772 538.073, 325.345 541.549 C 310.001 543.246, 283.926 543.802, 278.240 542.553 L 275 541.841 275.009 535.171 C 275.025 523.246, 281.172 500.448, 291.501 474 C 302.017 447.074, 314.615 419.230, 348.281 348.500 C 359.015 325.950, 370.504 301.650, 373.813 294.500 L 379.829 281.500 409.664 281.451 C 441.785 281.398, 451.192 280.471, 471.491 275.359 C 528.164 261.086, 571.166 218.306, 574.783 172.598 C 576.659 148.904, 570.357 129.987, 555.234 113.910 C 536.238 93.718, 512.313 85.290, 485 89.170 M 486.591 154.480 C 467.307 161.285, 441.840 182.480, 421.770 208.430 L 414.755 217.500 421.416 217.797 C 437.405 218.508, 461.528 213.282, 476.321 205.900 C 486.664 200.738, 492.284 196.589, 499.772 188.585 C 510.831 176.763, 514.730 163.624, 509 157.488 C 503.292 151.374, 497.570 150.606, 486.591 154.480 M 675.602 292.750 C 675.309 293.712, 672.338 306.875, 669 322 C 665.662 337.125, 662.721 350.193, 662.464 351.041 C 662.094 352.264, 665.051 353.434, 676.821 356.720 C 706.666 365.054, 737.047 377.854, 754.395 389.405 C 772.486 401.451, 798.154 432.067, 814.838 461.500 C 817.644 466.450, 820.314 471.134, 820.772 471.909 C 821.436 473.035, 827.232 470.760, 849.549 460.612 C 864.919 453.624, 877.897 447.503, 878.389 447.011 C 880.190 445.210, 859.867 411.331, 845.706 392.529 C 832.379 374.833, 812.399 353.638, 799.500 343.510 C 776.391 325.368, 739.996 308.510, 697.872 296.437 C 687.436 293.447, 678.277 291, 677.517 291 C 676.757 291, 675.895 291.788, 675.602 292.750 M 537.016 422.196 C 529.473 434.535, 521.185 466.213, 518.408 493.322 L 517.740 499.838 529.620 496.474 C 553.043 489.842, 582.257 481.076, 582.823 480.510 C 583.750 479.583, 570.596 454.317, 564.107 444.559 C 556.532 433.168, 548.436 424.136, 543.166 421.196 L 539.036 418.892 537.016 422.196 " stroke="none" fill="black" fill-rule="evenodd"/>
</svg>