<svg xmlns="http://www.w3.org/2000/svg" width="1000" height="1000" viewBox="0 0 1000 1000" version="1.1">
	<path d="M 470 93.541 C 470 95.275, 464.519 132.849, 462.421 145.500 C 456.759 179.636, 447.151 227.727, 440.010 257.682 L 436.867 270.864 420.183 274.864 C 388.088 282.557, 357.468 287.678, 326.500 290.531 C 306.535 292.370, 263.850 292.638, 247 291.029 C 217.434 288.206, 189.857 282.276, 170.821 274.647 L 159.947 270.289 154.579 279.395 C 151.628 284.403, 144.440 296.536, 138.606 306.359 C 132.773 316.181, 128 324.408, 128 324.642 C 128 325.964, 148.633 334.766, 161.500 338.934 C 212.994 355.610, 277.816 360.279, 348.500 352.403 C 363.874 350.690, 391.926 346.225, 407.407 343.027 C 412.856 341.902, 417.466 341.133, 417.652 341.318 C 418.447 342.114, 398.857 402.651, 391.833 421.101 C 389.055 428.397, 388.769 428.752, 384.719 429.943 C 366.487 435.306, 325.017 454.313, 304 466.939 C 218.867 518.083, 159.660 597.467, 139.522 687.469 C 134.261 710.982, 132.834 723.730, 132.303 752 C 131.134 814.109, 141.454 855.441, 162.327 872.244 C 171.923 879.970, 180.282 883, 192 883 C 224.559 883, 253.799 851.847, 299.469 768.500 C 312.709 744.337, 353.377 662.034, 384.457 596.500 C 419.124 523.405, 418.746 524.222, 429.122 500.063 C 433.477 489.922, 437.178 481.488, 437.346 481.320 C 437.984 480.682, 461.967 476.109, 472.500 474.617 C 491.823 471.879, 505.897 471.007, 530.789 471.003 C 572.837 470.998, 593.780 474.703, 616.032 486.086 C 634.094 495.325, 646.480 507.989, 655.558 526.500 C 664.940 545.630, 668.401 563.130, 668.316 591 C 668.231 618.734, 663.671 645.240, 653.921 674.668 L 649.889 686.836 641.195 683.873 C 627.436 679.185, 607.756 674.245, 591.492 671.395 C 571.381 667.871, 536.955 666.951, 518 669.430 C 451.131 678.177, 402.300 714.182, 386.350 766.500 C 383.827 774.774, 383.603 776.871, 383.572 792.500 C 383.539 809.226, 383.593 809.657, 386.894 819.244 C 398.338 852.483, 427.789 876.074, 468.500 884.612 C 475.778 886.139, 481.614 886.489, 499 886.445 C 518.407 886.395, 521.738 886.127, 533.219 883.695 C 563.865 877.203, 592.972 864.681, 614.661 848.657 C 624.106 841.679, 647.137 818.463, 655.987 807 C 662.850 798.110, 678.404 775.199, 679.308 772.647 C 679.810 771.232, 682.588 772.738, 698 782.784 C 723.597 799.469, 746.709 818.606, 773.074 844.945 C 788.610 860.466, 808.249 882.195, 817.704 894.326 C 819.214 896.263, 820.346 896.892, 821.302 896.326 C 822.070 895.872, 833.337 886.982, 846.341 876.571 C 866.980 860.047, 869.818 857.442, 868.671 856.071 C 867.948 855.207, 863.814 850.225, 859.484 845 C 818.535 795.590, 770.307 752.411, 724.353 724.017 C 717.284 719.649, 710.735 715.496, 709.799 714.788 C 708.229 713.598, 708.511 712.280, 713.506 697.500 C 726.290 659.668, 732.016 626.193, 731.980 589.506 C 731.946 554.581, 726.729 528.264, 714.531 501.498 C 701.978 473.952, 680.214 449.834, 653.304 433.647 C 632.830 421.333, 604.935 412.552, 574.500 408.841 C 557.361 406.752, 500.766 407.041, 480.150 409.323 C 471.157 410.318, 463.641 410.974, 463.446 410.780 C 463.252 410.585, 465.581 402.793, 468.621 393.463 C 474.554 375.258, 489 325.660, 489 323.495 C 489 322.682, 496.112 319.829, 507.750 315.974 C 538.612 305.753, 577.178 290.766, 608 277.016 C 633.715 265.544, 655.997 254.671, 655.949 253.618 C 655.920 253.003, 649.733 240.019, 642.199 224.765 L 628.500 197.031 610.981 205.385 C 574.257 222.896, 510.087 249.420, 508.437 247.770 C 508.154 247.488, 510.620 233.811, 513.915 217.378 C 522.571 174.222, 532.985 111.236, 532.997 101.972 L 533 99.444 503.250 96.199 C 472.357 92.830, 470 92.642, 470 93.541 M 244 106.383 L 213.500 112.553 213.855 115.026 C 214.450 119.174, 218.872 133.738, 222.619 143.891 C 233.414 173.147, 252.549 202.901, 270.712 218.675 C 281.874 228.370, 297.167 238.442, 298.358 236.885 C 298.834 236.264, 327 181.851, 327 181.554 C 327 181.405, 324.503 179.626, 321.452 177.600 C 303.492 165.675, 286.071 137.895, 277.935 108.205 C 276.698 103.692, 275.419 100.048, 275.093 100.107 C 274.767 100.166, 260.775 102.990, 244 106.383 M 342 518.645 C 264.330 563.306, 212.925 634.050, 199.013 715.424 C 195.793 734.261, 194.639 756.186, 195.903 774.520 C 197.106 791.980, 198.960 807.019, 199.902 806.967 C 200.907 806.912, 211.416 792.133, 218.723 780.500 C 235.600 753.631, 254.985 717.617, 280.087 666.500 C 298.917 628.154, 354.281 511.969, 353.702 512.016 C 353.591 512.025, 348.325 515.008, 342 518.645 M 536 731.605 C 492.863 735.319, 463.670 750.699, 450.921 776.428 C 447.255 783.826, 446.704 785.803, 446.650 791.770 C 446.597 797.512, 447.033 799.381, 449.347 803.329 C 461.114 823.408, 498.318 829.135, 536.964 816.816 C 548.317 813.197, 564.614 805.691, 572.537 800.431 C 579.867 795.566, 593.289 782.854, 601.372 773.121 C 608.355 764.712, 621 746.770, 621 745.269 C 621 743.207, 592.962 735.920, 575.884 733.544 C 564.815 732.004, 543.439 730.965, 536 731.605 " stroke="none" fill="black" fill-rule="evenodd"/>
</svg>