<svg xmlns="http://www.w3.org/2000/svg" width="1000" height="1000" viewBox="0 0 1000 1000" version="1.1">
	<path d="M 318.618 119.964 C 309.478 134.244, 302 146.384, 302 146.941 C 302 149.348, 344.384 172.051, 366.437 181.457 C 391.836 192.290, 415.168 198.847, 438.392 201.680 C 455.560 203.775, 499.691 204.058, 517 202.186 C 531.822 200.582, 553.270 197.136, 554.163 196.215 C 554.545 195.822, 551.750 182, 547.953 165.500 C 544.155 149, 541.037 135.242, 541.024 134.926 C 541.011 134.611, 536.163 135.132, 530.250 136.085 C 498.816 141.152, 457.474 141.275, 433 136.374 C 410.014 131.771, 381.085 119.782, 349.115 101.609 C 341.753 97.424, 335.619 94, 335.483 94 C 335.348 94, 327.759 105.684, 318.618 119.964 M 468 267.088 C 446.555 269.262, 421.933 274.247, 396.281 281.610 C 372.132 288.541, 327.049 305.352, 326.260 307.720 C 325.950 308.649, 350.474 362.769, 351.869 364.234 C 352.253 364.637, 357.952 362.783, 364.534 360.114 C 434.636 331.684, 497.910 322.484, 526.685 336.536 C 536.025 341.097, 540.749 346.516, 547.578 360.500 C 554.860 375.412, 557.934 388.157, 558.699 406.607 C 560.322 445.780, 547.776 482.500, 525.080 505.008 C 510.655 519.312, 498.203 524.194, 476 524.249 C 460.652 524.287, 450.702 522.624, 420.395 514.957 C 388.334 506.846, 381.147 505.654, 364 505.600 C 348.098 505.551, 340.675 506.925, 329.363 512.012 C 305.676 522.665, 288.345 545.690, 278.493 579.597 C 255.573 658.477, 261.027 782.807, 292.029 888.180 C 295.280 899.231, 298.087 908.420, 298.266 908.599 C 298.520 908.854, 331.646 901.534, 349.636 897.247 C 352.318 896.608, 354.469 893.965, 364.482 879 C 402.177 822.662, 443.918 774.820, 485 740.866 C 512.392 718.226, 578.915 666.582, 579.689 667.355 C 579.841 667.508, 579.515 669.178, 578.963 671.066 C 576.862 678.262, 569.027 719.067, 567.359 731.500 C 564.891 749.897, 564.858 787.916, 567.299 800.737 C 572.161 826.280, 581.873 844.437, 599.307 860.577 C 630.039 889.031, 685.217 906.368, 755.414 909.627 L 770.328 910.319 769.664 890.499 C 769.299 879.597, 769 865.196, 769 858.495 L 769 846.311 754.750 845.689 C 711.832 843.814, 671.235 833.740, 650.376 819.789 C 633.350 808.401, 629.024 798.060, 629.008 768.711 C 628.985 727.039, 642.752 667.800, 668.182 600.153 C 672.595 588.412, 675.822 578.449, 675.353 578.013 C 673.995 576.752, 620.044 559.840, 618.482 560.187 C 613.652 561.259, 503.768 643.764, 457.500 681.058 C 413.719 716.348, 385.512 745.011, 350.506 789.781 C 341.019 801.914, 338.425 804.678, 337.886 803.222 C 336.820 800.339, 332.209 767.177, 330.347 749 C 327.895 725.064, 327.889 669.056, 330.336 648.500 C 335.083 608.627, 342.885 581.225, 351.966 572.531 C 357.828 566.918, 369.742 567.830, 403.500 576.474 C 442.211 586.386, 456.720 588.482, 481.267 587.707 C 503.961 586.990, 518.421 583.734, 535.500 575.494 C 552.624 567.233, 571.968 550.888, 584.550 534.050 C 612.421 496.752, 626.879 442.559, 621.952 393.856 C 617.424 349.096, 598.127 309.286, 571.116 288.986 C 558.196 279.276, 540.127 271.825, 521.500 268.528 C 510.483 266.577, 480.894 265.781, 468 267.088 " stroke="none" fill="black" fill-rule="evenodd"/>
</svg>