<svg xmlns="http://www.w3.org/2000/svg" width="1000" height="1000" viewBox="0 0 1000 1000" version="1.1">
	<path d="M 399.909 71.677 C 388.134 84.016, 378.369 94.479, 378.209 94.929 C 377.838 95.970, 389.224 106.128, 403.964 117.907 C 428.652 137.636, 462.325 157.562, 483.500 164.972 C 493.763 168.564, 510.694 172.951, 525.920 175.963 C 547.391 180.211, 597.758 186, 613.250 186 L 619.743 186 620.359 173.250 C 620.697 166.238, 621.263 152.102, 621.616 141.838 L 622.259 123.176 616.880 122.623 C 613.921 122.319, 604.975 121.577, 597 120.975 C 567 118.710, 528.774 112.407, 509.644 106.572 C 488.684 100.179, 457.508 80.630, 429.409 56.259 L 421.319 49.242 399.909 71.677 M 624 199.673 C 590.336 200.908, 545.797 204.419, 517.500 208.068 C 475.069 213.540, 441.916 220.173, 368.500 237.878 C 313.173 251.221, 288.843 255.193, 262.500 255.184 C 245.134 255.178, 232.725 253.605, 217 249.414 C 205.308 246.299, 188.986 238.535, 183.045 233.262 L 178.606 229.323 155.053 239.551 C 142.099 245.176, 128.879 250.944, 125.676 252.367 L 119.851 254.956 122.676 260.175 C 124.229 263.045, 129.289 269.382, 133.920 274.256 C 152.167 293.462, 180.402 307.448, 215.027 314.433 C 234.827 318.427, 246.249 319.312, 270 318.689 C 299.434 317.918, 321.669 314.478, 367.789 303.561 C 378.080 301.126, 399.010 296.167, 414.299 292.542 C 483.526 276.130, 525.111 269.733, 594.500 264.821 C 618.543 263.119, 691.088 263.105, 710 264.798 C 765.019 269.724, 803.031 281.557, 810.551 296.099 C 812.391 299.657, 812.370 301.376, 810.406 308.068 C 807.338 318.520, 795.765 326.889, 776.764 332.396 C 762.336 336.576, 746.864 338.316, 723.248 338.413 L 701.997 338.500 701.496 341.500 C 700.059 350.102, 695.033 400.366, 695.558 400.889 C 695.894 401.225, 709.519 401.490, 725.835 401.478 C 758.353 401.454, 768.331 400.437, 789.551 394.980 C 814.580 388.543, 832.845 379.015, 847.845 364.572 C 865.656 347.423, 875.116 325.417, 875.160 301.033 C 875.243 255.239, 838.700 223.033, 770.805 209.063 C 732.067 201.092, 678.566 197.670, 624 199.673 M 413 322.633 C 348.341 342.672, 306.268 344.002, 258.056 327.530 C 253.962 326.132, 250.320 325.328, 249.963 325.744 C 249.460 326.330, 229.457 374.404, 226.501 382.133 C 225.662 384.325, 237.819 388.743, 260.500 394.489 C 289.469 401.828, 313.865 404.162, 340 402.093 C 353.504 401.025, 373.421 398.523, 377.106 397.432 C 378.474 397.027, 378.804 398.398, 379.338 406.728 C 379.683 412.103, 380.261 421.089, 380.622 426.698 L 381.279 436.897 373.889 434.323 C 351.234 426.432, 320.873 424.936, 298.500 430.610 C 277.444 435.950, 256.279 453.303, 245.582 474 C 238.141 488.395, 236.493 495.231, 236.541 511.500 C 236.577 524.172, 236.845 526.258, 239.364 533.490 C 244.299 547.658, 253.452 560.028, 265.773 569.180 C 277.403 577.819, 298.620 586.257, 312.315 587.690 C 317.045 588.185, 317.885 588.535, 316.815 589.567 C 314.561 591.742, 284.646 607.585, 257.794 620.825 C 243.655 627.796, 232.068 633.831, 232.044 634.235 C 231.945 635.895, 257.593 690.271, 258.674 690.695 C 260.035 691.229, 310.017 666.377, 333.500 653.489 C 355.989 641.148, 378.180 627.743, 394.238 616.800 C 403.467 610.511, 441.674 579.388, 510.654 521.969 C 567.128 474.961, 613.645 436.371, 614.025 436.214 C 614.406 436.056, 615.029 439.431, 615.409 443.714 C 618.730 481.088, 638.335 506.320, 680.746 527.803 C 686.931 530.937, 691.993 533.762, 691.996 534.082 C 691.998 534.401, 690.087 535.126, 687.750 535.691 C 678.242 537.991, 590.958 560.544, 570 566.117 C 420.518 605.865, 361.293 634.874, 348.721 674.500 C 338.893 705.476, 360.903 745.226, 398.891 765.108 L 405.282 768.453 399.391 773.838 C 380.936 790.707, 341.291 817.187, 292.354 845.328 C 274.422 855.641, 227.115 881.462, 224.646 882.285 C 223.540 882.653, 251.995 939, 253.286 939 C 254.316 939, 281.209 924.666, 304.500 911.703 C 328.725 898.220, 348.087 886.843, 368.500 874.097 C 384.070 864.374, 386.299 863.293, 395 861.246 C 418.711 855.666, 442.651 853.531, 473 854.292 C 508.026 855.170, 536.580 859.742, 573.500 870.385 C 624.182 884.996, 699.002 913.987, 768 945.749 C 779.275 950.939, 789.175 955.384, 790 955.626 C 791.114 955.954, 794.906 948.913, 804.750 928.241 C 812.037 912.936, 818 899.933, 818 899.344 C 818 896.494, 716.981 853.204, 665.726 834.089 C 588.399 805.251, 539.776 793.618, 483.263 790.434 L 471.026 789.745 473.763 786.570 L 476.500 783.395 510 782.224 C 529.004 781.560, 548.043 780.369, 554 779.472 C 577.845 775.880, 609.164 766.949, 637.916 755.541 C 651.422 750.182, 689.683 732.683, 691.177 731.181 C 692.506 729.845, 675.124 693.658, 668.274 683.500 C 656.150 665.522, 637.914 649.450, 620.520 641.414 C 599.586 631.742, 575.901 630.430, 554.053 637.734 C 527.588 646.580, 494.637 670.604, 461.410 705.280 L 450.966 716.179 441.797 713.549 C 436.754 712.102, 429.983 709.509, 426.751 707.787 C 420.870 704.652, 412 696.002, 412 693.402 C 412 690.003, 431.073 679.131, 453.623 669.674 C 491.380 653.841, 539.385 639.570, 651 611.001 C 730.423 590.672, 751.957 584.233, 767.379 576.200 C 781.308 568.945, 788.809 559.251, 791.133 545.500 C 793.458 531.750, 787.843 516.977, 776.119 506 C 768.281 498.661, 758.047 492.776, 737 483.504 C 698.584 466.581, 686.987 459.450, 681.699 449.500 C 679.957 446.222, 679.504 443.325, 679.189 433.447 C 678.597 414.852, 681.659 400.744, 691.726 375.688 C 694.930 367.714, 696.901 361.512, 696.388 361.014 C 695.900 360.540, 685.406 351.805, 673.070 341.603 C 654.110 325.924, 650.397 323.244, 649.075 324.277 C 648.215 324.950, 609.046 357.450, 562.033 396.500 C 515.020 435.550, 468.892 473.864, 459.527 481.642 C 450.162 489.421, 442.349 495.644, 442.164 495.473 C 441.979 495.302, 442.325 491.188, 442.932 486.331 C 446.970 454.041, 444.429 400.177, 436.010 339.571 C 434.354 327.654, 433 317.701, 433 317.452 C 433 316.571, 430.310 317.268, 413 322.633 M 316.340 491.958 C 307.646 494.029, 300 502.717, 300 510.524 C 300 515.763, 302.983 518.697, 311.734 522.062 C 328.995 528.700, 348.345 523.849, 365.722 508.528 C 371.259 503.647, 371.266 503.633, 369.144 501.916 C 365.883 499.275, 352.547 494.012, 345.138 492.442 C 338.145 490.959, 321.690 490.683, 316.340 491.958 M 570.787 699.397 C 564.721 701.892, 552.490 709.259, 547.500 713.424 C 545.165 715.373, 544.892 715.936, 546.267 715.964 C 549.631 716.033, 570.552 711.114, 582.500 707.445 C 589.100 705.419, 595.288 703.537, 596.250 703.264 C 599.115 702.450, 598.283 701.368, 593.065 699.123 C 586.372 696.244, 578.210 696.344, 570.787 699.397 " stroke="none" fill="black" fill-rule="evenodd"/>
</svg>