<svg xmlns="http://www.w3.org/2000/svg" width="1000" height="1000" viewBox="0 0 1000 1000" version="1.1">
	<path d="M 363.311 72.088 C 354.566 79.519, 331.914 102.350, 324.242 111.465 C 302.537 137.252, 287.200 163.137, 279.019 187.789 C 273.391 204.745, 271.935 212.641, 271.303 229.631 C 270.624 247.863, 272.151 258.644, 278.110 277.697 C 283.769 295.790, 289.239 316.935, 288.655 318.457 C 288.382 319.167, 286.436 320.069, 284.330 320.461 C 278.582 321.532, 263.566 327.543, 254.199 332.522 C 230.860 344.928, 207.065 367.422, 193.149 390.233 C 175.829 418.627, 167.904 450.012, 169.348 484.500 C 170.952 522.809, 181.445 562.038, 201.714 605.500 C 205.818 614.300, 209.381 622.175, 209.632 623 C 210.486 625.807, 180.252 660.759, 146.688 695.767 C 141.274 701.414, 136.995 706.486, 137.179 707.038 C 137.364 707.591, 148.986 717.915, 163.007 729.981 L 188.500 751.919 192.500 747.231 C 200.973 737.300, 231.155 703.148, 237.714 696.070 L 244.599 688.641 247.362 693.355 C 251.434 700.304, 267.541 732.759, 271.637 742.268 C 277.488 755.853, 288.293 784.995, 297.035 810.764 C 303.943 831.128, 305.606 835.107, 307.383 835.515 C 313.195 836.852, 371.396 847.931, 371.554 847.731 C 372.090 847.057, 380.291 777.914, 382.435 756 C 387.840 700.759, 389.987 663.939, 389.995 626.397 C 390 601.841, 388.731 565.805, 387.459 554.385 L 386.890 549.269 397.695 539.825 C 485.762 462.848, 567.695 409.872, 631 388.974 C 671.939 375.459, 702.394 374.671, 729.813 386.417 C 776.367 406.360, 797.812 444.147, 795.693 502.500 C 793.116 573.478, 752.656 666.094, 693.470 736.500 C 664.374 771.112, 612.378 813.488, 535.250 865.445 C 522.462 874.059, 512 881.325, 512 881.591 C 512 881.945, 544.240 933.142, 545.477 934.752 C 545.795 935.166, 571.106 918.357, 592.500 903.524 C 631.894 876.211, 672.408 845.101, 697.347 823.014 C 744.942 780.861, 782.508 730.471, 814.027 666.500 C 839.960 613.868, 854.985 563.718, 858.967 516.500 C 863.113 467.350, 853.230 423.234, 830.312 388.577 C 820.775 374.155, 801.224 354.809, 786 344.730 C 766.664 331.929, 742.618 321.602, 722.723 317.554 C 685.190 309.917, 639.700 316.195, 590.499 335.802 C 532.178 359.043, 461.459 403.906, 389.250 463.469 C 378.833 472.062, 378.609 471.936, 382.518 459.695 C 383.889 455.402, 386.230 446.177, 387.720 439.195 C 390.181 427.660, 390.428 424.581, 390.412 405.500 C 390.396 385.877, 390.220 383.870, 387.738 374.895 C 382.557 356.160, 374.291 342.287, 362.866 333.150 C 358.856 329.943, 356.861 327.569, 356.436 325.500 C 353.937 313.316, 345.276 279.591, 341.105 265.801 C 334.562 244.166, 333.601 238.070, 334.965 226.850 C 338.527 197.554, 357.904 165.760, 392.939 131.724 L 408.102 116.993 388.957 92.497 C 378.427 79.023, 369.432 68, 368.967 68 C 368.502 68, 365.957 69.840, 363.311 72.088 M 292.297 384.911 C 271.054 393.293, 249.632 414.934, 240.239 437.503 C 231.162 459.313, 230.719 487.977, 238.940 521.558 C 241.840 533.405, 249.893 557.863, 252.706 563.365 C 254.410 566.698, 253.860 567.181, 262.224 555 C 286.070 520.271, 314.025 468.799, 313.987 459.692 C 313.970 455.655, 310.011 427.439, 305.858 401.750 C 303.263 385.699, 302.368 382.006, 301.082 382.034 C 300.212 382.053, 296.259 383.348, 292.297 384.911 M 308.326 623.238 L 291.152 640.500 296.679 650.500 C 299.720 656, 306.838 669.442, 312.498 680.370 C 319.614 694.110, 322.955 699.664, 323.327 698.370 C 324.524 694.211, 326.132 649.091, 325.827 628.238 L 325.500 605.976 308.326 623.238 " stroke="none" fill="black" fill-rule="evenodd"/>
</svg>