<svg xmlns="http://www.w3.org/2000/svg" width="1000" height="1000" viewBox="0 0 1000 1000" version="1.1">
	<path d="M 205.119 120.201 L 185.738 145.332 187.436 147.916 C 191.465 154.051, 197.166 167.460, 199.430 176.130 C 203.692 192.451, 204.472 200.107, 204.409 225 C 204.343 251.048, 203.239 261.816, 197.408 293.249 C 181.130 380.995, 175.199 433.710, 174.286 498.783 C 173.419 560.485, 177.568 602.108, 188.661 643 C 198.377 678.811, 221.824 736.516, 238.276 765.102 L 241.500 770.704 272.773 761.641 L 304.047 752.579 303.273 738.039 C 302.848 730.043, 302.538 705.500, 302.584 683.500 C 302.693 631.141, 305.615 593.685, 312.568 555.500 C 315.211 540.983, 320.809 517.603, 323.387 510.311 L 324.868 506.122 295.684 496.414 C 279.633 491.074, 265.975 486.513, 265.333 486.278 C 262.072 485.082, 250.443 534.902, 245.610 570.775 C 244.330 580.277, 242.994 588.339, 242.641 588.692 C 242.289 589.045, 241.991 588.471, 241.980 587.417 C 241.970 586.362, 241.299 579.650, 240.490 572.500 C 232.858 505.037, 239.297 415.474, 259.471 308.500 C 272.336 240.276, 271.858 191.790, 257.900 149.121 C 251.591 129.836, 240.743 110.963, 229.830 100.285 L 224.500 95.070 205.119 120.201 M 651.255 120.367 C 647.820 121.076, 644.758 121.909, 644.451 122.216 C 644.143 122.523, 647.852 136.366, 652.692 152.977 L 661.492 183.180 667.496 182.553 C 671.150 182.171, 676.700 182.490, 681.674 183.369 C 713.733 189.028, 734.718 222.089, 743.438 280.678 C 746.163 298.986, 751.890 376.839, 753.982 424 C 755.278 453.231, 755.277 510.934, 753.980 533.639 C 751.208 582.155, 745.075 623.831, 734.980 662.757 C 715.457 738.035, 678.920 806.107, 625.250 867.197 C 619.063 874.240, 614 880.206, 614 880.455 C 614 881.235, 659.141 923, 659.984 923 C 661.833 923, 685.258 895.825, 699.636 877 C 759.035 799.233, 794.457 714.903, 809.904 614.480 C 819.599 551.458, 821.410 474.371, 815.450 378.500 C 811.516 315.215, 807.765 275.374, 803.871 255.500 C 789.324 181.260, 754.406 136.282, 700.109 121.843 C 690.387 119.258, 660.928 118.368, 651.255 120.367 M 425.763 203.033 C 413.742 205.057, 398.023 212.349, 385.688 221.624 C 375.305 229.432, 358.496 246.687, 349.193 259.088 C 345.237 264.361, 342.017 269.086, 342.038 269.588 C 342.074 270.453, 391.213 302.412, 394.121 303.461 C 394.973 303.769, 396.838 301.960, 399 298.730 C 407.771 285.624, 432.053 264.655, 436.487 266.357 C 438.478 267.121, 442.802 281.568, 445.060 295 C 448.977 318.296, 450.149 336.269, 450.702 381.500 C 451.426 440.617, 449.195 495.419, 443.496 558.500 C 442.205 572.800, 441.452 584.788, 441.824 585.141 C 442.532 585.813, 508.242 591.999, 508.849 591.451 C 509.041 591.277, 510.263 582.750, 511.565 572.501 C 512.867 562.252, 515.042 549.284, 516.397 543.684 C 529.028 491.495, 555.831 433.228, 591.533 380.344 L 601.765 365.188 576.441 347.094 C 562.512 337.142, 550.678 329, 550.142 329 C 548.988 329, 529.906 357.236, 521.435 371.478 L 515.500 381.457 515.271 375.978 C 514.086 347.613, 512.728 322.769, 511.911 314.500 C 505.719 251.829, 492.812 222.369, 465.690 209.001 C 453.007 202.749, 439.466 200.725, 425.763 203.033 " stroke="none" fill="black" fill-rule="evenodd"/>
</svg>