<svg xmlns="http://www.w3.org/2000/svg" width="1000" height="1000" viewBox="0 0 1000 1000" version="1.1">
	<path d="M 354.300 92.818 C 340.989 101.993, 329.559 110.040, 328.899 110.700 C 327.966 111.634, 329.274 113.756, 334.787 120.249 C 357.660 147.190, 392.895 169.026, 428 178.014 C 435.161 179.847, 462.555 184.960, 465.383 184.990 C 465.868 184.996, 462.941 188.488, 458.878 192.750 C 424.872 228.426, 408.066 258.756, 408.017 284.540 C 407.980 304.316, 416.081 319.932, 431.778 330.341 C 446.678 340.222, 457.917 342.843, 503.286 347.016 C 540.799 350.467, 549.221 351.429, 565.500 354.123 C 619.911 363.129, 652.766 382.787, 669.749 416.500 C 687.128 450.998, 689.864 511.581, 675.930 553.334 C 661.942 595.249, 629.870 625.131, 581 641.784 C 574.675 643.940, 568.351 645.981, 566.946 646.321 L 564.393 646.940 564.333 620.720 C 564.151 541.675, 544.799 475.034, 513.014 444 C 492.655 424.122, 465.601 419.681, 436.454 431.434 C 395.737 447.853, 344.097 500.660, 285.794 585.500 C 273.813 602.934, 251.936 638.087, 252.499 638.999 C 253.107 639.982, 288.605 661.506, 301.501 668.711 C 315.890 676.749, 341.856 689.523, 356.749 695.889 C 392.441 711.147, 425.609 718.164, 469.250 719.689 C 479.012 720.030, 487 720.459, 487 720.643 C 487 720.826, 485.597 725.369, 483.882 730.738 C 474.069 761.465, 459.034 790.666, 439.555 816.829 C 428.956 831.066, 404.557 855.321, 389.500 866.591 C 377.331 875.699, 360.621 886.206, 349.250 891.900 C 345.813 893.621, 343 895.439, 343 895.941 C 343 896.691, 368.118 949.737, 369.680 952.285 C 370.259 953.229, 387.560 944.090, 401.788 935.324 C 444.725 908.872, 480.569 873.179, 508.296 829.265 C 517.233 815.110, 531.451 786.125, 538.349 768 C 543.765 753.768, 552.093 726.409, 553.424 718.475 L 554.100 714.451 564.925 712.238 C 656.622 693.497, 719.880 638.777, 740.339 560.500 C 752.937 512.299, 750.737 449.724, 734.936 406.817 C 719.608 365.194, 691.851 334.496, 651.500 314.540 C 634.678 306.221, 624.478 302.436, 605.500 297.472 C 582.280 291.397, 562.808 288.480, 519 284.511 C 503.875 283.141, 487.341 281.510, 482.257 280.887 L 473.013 279.755 476.063 274.033 C 485.433 256.454, 521.572 217.573, 551.750 192.605 C 560.047 185.740, 566 180.093, 566 179.086 C 566 176.937, 555.203 129.138, 554.438 127.900 C 554.132 127.405, 545.246 126.999, 534.691 126.999 C 509.842 126.997, 469.916 122.392, 446.500 116.827 C 423.555 111.373, 396.514 95.434, 384.203 80.105 C 382.389 77.847, 380.364 76.030, 379.703 76.068 C 379.041 76.105, 367.610 83.642, 354.300 92.818 M 455.743 492.811 C 430.386 505.933, 392.628 545.706, 352.126 601.960 L 340.994 617.421 346.747 620.693 C 355.076 625.432, 381.814 637.618, 393.822 642.149 C 417.997 651.271, 439.826 654.934, 474.680 655.717 L 498.861 656.260 499.637 652.380 C 500.925 645.936, 500.569 596.521, 499.143 584 C 494.587 543.992, 483.928 508.883, 471.318 492.350 C 467.936 487.917, 465.035 488.003, 455.743 492.811 " stroke="none" fill="black" fill-rule="evenodd"/>
</svg>