<svg xmlns="http://www.w3.org/2000/svg" width="1000" height="1000" viewBox="0 0 1000 1000" version="1.1">
	<path d="M 649.252 53.002 C 617.916 56.290, 586.344 69.367, 546 95.769 C 513.903 116.774, 487.630 138.146, 448.833 174.810 L 429.166 193.395 419.333 193.161 C 395.143 192.586, 367.993 189.050, 355.855 184.894 C 338.893 179.085, 322.109 168.383, 308.818 154.901 C 299.975 145.932, 287.721 128.702, 284.344 120.492 C 283.330 118.026, 282.053 116.006, 281.508 116.004 C 280.962 116.002, 267.341 120.571, 251.240 126.158 C 223.962 135.622, 222.010 136.458, 222.615 138.408 C 222.973 139.558, 225.674 145.316, 228.617 151.202 C 254.779 203.521, 304.262 241.389, 359.332 251.236 C 366.297 252.481, 371.885 253.789, 371.748 254.142 C 371.612 254.495, 364.651 262.623, 356.280 272.204 C 294.183 343.280, 267.074 383.992, 260.544 415.984 C 258.225 427.345, 257.849 433.590, 258.983 441.877 C 262.706 469.069, 280.712 490.612, 309.081 501.817 C 338.956 513.616, 374.232 513.779, 458.870 502.511 C 473.374 500.580, 486.086 499, 487.120 499 C 488.908 499, 489 500.184, 489 523.327 L 489 547.654 480.966 548.884 C 455.099 552.844, 412.413 566.043, 378 580.724 C 312.917 608.488, 267.193 641.430, 253.388 670.500 C 241.160 696.246, 246.437 718.670, 271.458 747.290 C 284.839 762.596, 304.044 778.947, 343.997 809.051 C 373.705 831.436, 411.427 863.599, 479.727 924.780 L 507.955 950.065 530.227 930.853 L 552.500 911.641 553.117 892.570 C 553.456 882.082, 553.794 854.783, 553.867 831.907 L 554 790.313 569.250 789.662 C 591.469 788.712, 628.605 784.391, 661.500 778.928 C 683.280 775.310, 705 770.729, 705 769.752 C 705 768.443, 690.852 709.596, 690.424 709.125 C 690.237 708.919, 682.752 710.158, 673.792 711.877 C 634.486 719.422, 582.895 726, 563.028 726 L 554 726 554.037 720.750 L 554.074 715.500 567.787 708.156 C 629.027 675.360, 655.627 649.778, 661.087 618.423 C 664.747 597.407, 655.803 572.231, 640.008 559.086 C 623.220 545.116, 604.138 539.818, 570.750 539.860 L 553 539.883 553 513.091 L 553 486.299 573.750 479.553 C 614.892 466.177, 656.541 449.170, 708.250 424.631 C 714.712 421.564, 720 418.847, 720 418.592 C 720 418.338, 715.207 409.888, 709.349 399.815 C 673.938 338.924, 638.401 298.196, 607.500 283.088 C 594.874 276.915, 589.132 275.536, 576 275.524 C 561.975 275.510, 554.614 277.695, 543.388 285.203 C 515.885 303.598, 500.785 343.775, 493.508 417.920 C 492.675 426.400, 491.826 433.507, 491.622 433.712 C 491.255 434.078, 446.714 439.908, 411.500 444.198 C 387.502 447.121, 348.853 447.428, 339.251 444.771 C 331.002 442.489, 325.409 439.554, 323.367 436.437 C 321.937 434.254, 321.867 433.172, 322.870 428.700 C 324.281 422.403, 331.679 407.559, 339.167 396 C 356.568 369.138, 399.480 317.571, 443.681 270.407 L 455.951 257.314 474.226 256.629 C 530.306 254.528, 590.365 246.396, 637.929 234.463 C 687.656 221.988, 722.083 206.264, 742.838 186.549 C 756.755 173.329, 763.602 161.034, 766.585 143.904 C 774.179 100.296, 742.860 63.597, 690.352 54.576 C 679.015 52.628, 659.821 51.893, 649.252 53.002 M 647.909 117.483 C 628.010 121.272, 597.646 136.619, 567.353 158.200 C 555.459 166.673, 530.650 186.139, 529.619 187.807 C 528.907 188.959, 530.205 188.836, 555 185.396 C 625.554 175.609, 684.222 156.886, 700.381 139.001 C 706.429 132.306, 704.847 127.024, 695.341 122.174 C 685.017 116.907, 662.585 114.689, 647.909 117.483 M 574.230 344.786 C 570.040 352.741, 566.334 364.386, 563.504 378.493 C 560.675 392.592, 557.741 413.293, 558.187 415.996 C 558.471 417.711, 560.377 417.204, 578.500 410.583 C 595.768 404.275, 624.893 392.773, 627.286 391.316 C 628.783 390.405, 613.770 371.069, 601.587 358.217 C 594.802 351.060, 585.194 343.186, 579.912 340.454 C 577.267 339.087, 577.209 339.132, 574.230 344.786 M 557.100 603.668 L 552.700 604.130 553.350 616.222 C 553.707 622.873, 554 631.655, 554 635.739 L 554 643.163 557.750 640.934 C 578.507 628.595, 598.576 612.227, 597.812 608.260 C 597.618 607.257, 595.685 606.051, 592.994 605.254 C 588.368 603.884, 564.918 602.848, 557.100 603.668 M 470.500 616.461 C 436.295 625.216, 408.668 635.542, 377.069 651.383 C 350.312 664.796, 327.144 679.986, 316.092 691.361 L 311.684 695.897 314.531 699.699 C 323.230 711.317, 343.006 728.442, 381 757.259 C 408.995 778.492, 425.556 792.145, 462.997 824.862 C 477.571 837.597, 489.571 847.675, 489.665 847.258 C 489.759 846.841, 490.053 830.908, 490.318 811.851 L 490.800 777.203 482.650 771.937 C 471.346 764.635, 460.200 753.184, 455.907 744.462 C 452.715 737.978, 452.500 736.908, 452.500 727.469 C 452.500 717.822, 452.661 717.071, 456.299 709.710 C 460.887 700.427, 469.182 691.810, 481.508 683.524 L 490 677.815 490 644.907 C 490 619.219, 489.726 612.012, 488.750 612.055 C 488.063 612.085, 479.850 614.067, 470.500 616.461 " stroke="none" fill="black" fill-rule="evenodd"/>
</svg>