<svg xmlns="http://www.w3.org/2000/svg" width="1000" height="1000" viewBox="0 0 1000 1000" version="1.1">
	<path d="M 303 126.946 C 275.737 135.945, 273.519 136.850, 273.745 138.878 C 274.130 142.336, 283.088 160.594, 289.367 170.720 C 298.380 185.255, 306.478 195.605, 318.426 207.857 C 337.109 227.016, 355.279 240.240, 378.500 251.575 C 391.741 258.038, 415.761 266.698, 421.882 267.215 L 425.265 267.500 432.585 237.500 C 436.610 221, 439.926 207.207, 439.952 206.850 C 439.978 206.492, 437.637 205.642, 434.750 204.960 C 410.161 199.157, 382.999 183.200, 363.947 163.364 C 351.692 150.604, 345.170 141.404, 337.415 125.938 C 334.951 121.022, 332.836 117.047, 332.717 117.104 C 332.598 117.161, 319.225 121.590, 303 126.946 M 302.606 257.077 C 293.077 265.786, 284.274 277.628, 278.505 289.500 C 266.869 313.444, 266.361 331.278, 276.569 357.571 C 287.738 386.340, 300.331 425.069, 309.941 460.210 C 321.074 500.915, 325.893 524.534, 334.032 578.264 C 346.187 658.515, 353.859 692.065, 368.728 730 C 401.434 813.438, 460.779 862.784, 549 879.900 C 595.237 888.871, 660.505 889.289, 717 880.978 C 739.259 877.703, 738.034 878.023, 737.515 875.621 C 737.263 874.455, 734.498 860.450, 731.371 844.500 C 728.243 828.550, 725.643 815.434, 725.592 815.353 C 725.541 815.273, 720.100 816.046, 713.500 817.073 C 684.702 821.550, 670.834 822.478, 632.500 822.489 C 592.610 822.501, 581.924 821.639, 556.500 816.362 C 484.018 801.318, 441.450 758.488, 418.103 677.115 C 410.265 649.797, 405.262 623.368, 394.986 555 C 388.261 510.252, 380.893 476.421, 367.985 431.021 C 360.556 404.889, 346.830 362.967, 338.872 342.104 C 335.643 333.636, 333 325.737, 333 324.550 C 333 321.168, 337.506 313.002, 342.540 307.262 C 345.408 303.992, 346.852 301.551, 346.384 300.762 C 345.690 299.595, 310.631 254.503, 309.009 252.693 C 308.611 252.249, 305.730 254.222, 302.606 257.077 " stroke="none" fill="black" fill-rule="evenodd"/>
</svg>