<svg xmlns="http://www.w3.org/2000/svg" width="1000" height="1000" viewBox="0 0 1000 1000" version="1.1">
	<path d="M 411.500 82.414 C 393.079 86.009, 381.616 93.768, 364.341 114.336 C 351.091 130.113, 330.942 162.242, 308.583 203.250 L 304.902 210 294.412 210 C 259.584 210, 199.400 203.694, 155.186 195.412 C 144.564 193.422, 135.731 191.953, 135.558 192.147 C 135.172 192.580, 121 251.683, 121 252.859 C 121 253.820, 145.922 258.802, 169.430 262.541 C 193.136 266.312, 222.590 269.669, 249 271.609 C 261.925 272.558, 272.641 273.438, 272.812 273.563 C 272.984 273.689, 269.448 281.601, 264.955 291.146 C 237.153 350.205, 193.181 451.687, 167.986 514.936 L 162.634 528.373 164.357 552.936 C 165.305 566.446, 166.343 580.241, 166.662 583.592 L 167.244 589.683 182.372 589.322 C 234.425 588.080, 287.514 580.886, 340.133 567.946 C 380.134 558.109, 403.719 550.070, 469.424 523.877 C 485.882 517.316, 499.681 512.297, 500.088 512.724 C 500.495 513.151, 506.092 525.650, 512.524 540.500 C 526.353 572.426, 541.568 606.596, 552.984 631.364 C 560.977 648.708, 561.163 649.280, 559.358 651.008 C 548.713 661.209, 433.857 747.152, 359.702 800.404 C 346.063 810.199, 335.067 818.700, 335.265 819.296 C 335.932 821.297, 370.491 869.907, 371.280 869.954 C 372.082 870.001, 427.066 830.480, 467 801.152 C 497.524 778.736, 548.532 740.370, 570.714 723.144 C 580.731 715.365, 589.118 709, 589.351 709 C 589.584 709, 595.207 719.310, 601.846 731.912 C 622.825 771.730, 636.795 794.393, 652.333 813.811 C 687.143 857.315, 726.389 891.400, 764.193 910.961 C 774.866 916.483, 781.530 919.060, 797.861 923.979 C 809.059 927.352, 818.457 929.876, 818.745 929.588 C 819.033 929.300, 822.305 916.407, 826.015 900.936 L 832.762 872.808 814.492 774.849 C 804.444 720.971, 795.955 676.622, 795.629 676.295 C 795.164 675.831, 733.809 686.727, 733.398 687.347 C 733.342 687.431, 739.337 719.831, 746.719 759.346 C 754.101 798.862, 759.904 831.430, 759.614 831.720 C 758.734 832.599, 741.214 816.954, 728.975 804.360 C 705.281 779.978, 691.111 761.190, 674.023 731.500 C 665.633 716.924, 640.749 668.203, 641.169 667.176 C 641.351 666.732, 646.900 661.616, 653.500 655.806 C 685.299 627.814, 700.082 608.028, 707.691 583.277 C 710.193 575.138, 710.391 573.192, 710.406 556.500 C 710.420 541.091, 710.112 537.395, 708.271 530.825 C 703.642 514.306, 694.353 496.826, 683.654 484.495 L 678.807 478.910 656.532 501.705 L 634.257 524.500 636.999 528 C 641.472 533.708, 645.822 543.303, 647.113 550.310 C 649.570 563.644, 644.313 575.587, 629.044 591.359 C 623.795 596.781, 617.810 602.558, 615.745 604.197 L 611.990 607.176 607.917 598.338 C 597.110 574.884, 563.579 498.684, 559.963 489.361 C 559.210 487.419, 559.845 486.924, 566.817 484.008 C 606.173 467.550, 610.156 465.704, 609.738 464.118 C 608.645 459.965, 585.601 406.973, 584.996 407.220 C 584.618 407.374, 573.196 412.184, 559.613 417.909 C 545.237 423.969, 534.572 427.938, 534.089 427.409 C 533.633 426.909, 528.203 414.125, 522.023 399 C 515.843 383.875, 510.415 371.103, 509.962 370.618 C 509.245 369.853, 453.847 391.118, 451.724 392.974 C 451.297 393.347, 456.366 406.864, 462.988 423.012 C 469.610 439.160, 474.684 452.678, 474.264 453.053 C 471.803 455.244, 390.278 486.590, 369.500 493.333 C 329.412 506.343, 282.748 516.487, 239.591 521.574 C 234.762 522.143, 233.786 522.017, 234.251 520.885 C 270.124 433.524, 311.471 339.980, 336.302 290 L 344.500 273.500 350.500 273.252 C 361.979 272.777, 393.598 269.912, 409 267.952 C 471.843 259.952, 533.784 245.598, 583.662 227.477 C 594.913 223.389, 604.497 219.811, 604.961 219.524 C 605.425 219.237, 599.973 206.290, 592.846 190.751 L 579.887 162.500 570.296 153.198 C 541.870 125.627, 499.621 98.199, 470.630 88.495 C 450.957 81.910, 426.810 79.426, 411.500 82.414 M 744 140.639 C 736.531 141.417, 728.190 143.206, 721 145.571 C 711.504 148.695, 697.468 156.205, 697.599 158.092 C 697.686 159.358, 732.618 209, 733.422 209 C 733.600 209, 735.715 208.145, 738.123 207.099 C 749.368 202.217, 757.641 203.528, 765.551 211.445 C 779.445 225.351, 797.173 260.557, 800.495 280.841 L 801.207 285.182 820.853 284.573 C 831.659 284.238, 846.011 283.702, 852.746 283.381 L 864.992 282.799 864.418 278.650 C 861.327 256.272, 855.577 238.282, 844.555 216.500 C 826.566 180.951, 808.928 160.232, 787.500 149.479 C 782.550 146.995, 775.125 144.129, 771 143.110 C 763.263 141.199, 750.149 139.998, 744 140.639 M 417.047 150.639 C 406.892 161.750, 378.588 204.921, 380.322 206.655 C 381.626 207.959, 435.267 200.116, 463.500 194.493 C 480.891 191.029, 506.298 184.948, 507.330 184.001 C 509.215 182.273, 481.363 163.301, 465.500 155.509 C 451.414 148.589, 439.116 145, 429.488 145 L 422.201 145 417.047 150.639 " stroke="none" fill="black" fill-rule="evenodd"/>
</svg>