<svg xmlns="http://www.w3.org/2000/svg" width="1000" height="1000" viewBox="0 0 1000 1000" version="1.1">
	<path d="M 317.500 106.228 C 301.550 111.662, 288.131 116.474, 287.681 116.923 C 287.231 117.371, 289.356 125.654, 292.404 135.329 C 303.205 169.611, 324 246.055, 324 251.477 C 324 252.345, 318.682 258.331, 312.183 264.778 C 305.684 271.225, 296.655 281, 292.119 286.500 C 287.582 292, 283.505 296.500, 283.058 296.500 C 282.611 296.500, 278.135 292.919, 273.111 288.541 C 246.021 264.941, 223.743 254.674, 199.500 254.617 C 185.575 254.584, 174.370 257.281, 160.362 264.037 C 134.643 276.441, 117.203 298.198, 109.257 327.794 C 106.900 336.572, 106.643 339.317, 106.575 356.500 C 106.490 378.014, 107.641 385.091, 113.725 400.464 C 119.269 414.475, 124.497 422.471, 135 433.009 C 151.055 449.117, 164.210 454.974, 186 455.717 C 197.030 456.094, 199.673 455.841, 208.477 453.572 C 220.659 450.432, 235.492 443.314, 247.500 434.846 C 252.450 431.356, 262.698 422.333, 270.274 414.796 L 284.048 401.092 289.339 409.296 C 299.293 424.730, 311.332 445.496, 319.747 461.751 C 325.996 473.820, 328.719 478.136, 330.331 478.523 C 349.591 483.146, 399.653 493.645, 400.104 493.156 C 400.733 492.472, 406.144 461.730, 408.228 447 C 409.859 435.466, 409.808 383.076, 408.149 366.500 C 406.346 348.492, 402.459 319.789, 399.471 302.430 C 398.093 294.420, 397.260 287.388, 397.622 286.803 C 398.499 285.384, 409.156 286.433, 419.732 288.979 C 439.008 293.620, 453.779 301.600, 464.618 313.228 C 467.983 316.837, 475.152 326.363, 480.549 334.395 L 490.362 349 517.431 348.979 L 544.500 348.958 561.750 322.729 C 571.237 308.303, 583.210 290.875, 588.357 284 C 617.751 244.732, 642.447 225.871, 673.016 219.344 C 684.945 216.797, 715.763 216.777, 728.500 219.308 C 767.265 227.011, 798.572 248.432, 810.508 275.421 C 818.959 294.531, 814.622 308.364, 797.660 316.406 C 780.984 324.312, 757.951 329.239, 668.500 344.038 C 592.580 356.598, 564.646 362.253, 532 371.671 C 482.599 385.923, 454.140 404.392, 443.173 429.317 C 440.541 435.298, 437.994 447.346, 438.017 453.708 C 438.072 468.795, 445.239 485.259, 456.879 497.038 C 480.267 520.703, 521.564 535.014, 589.500 542.996 C 609.894 545.392, 647.627 547.706, 648.706 546.627 C 649.130 546.204, 649.644 531.787, 649.849 514.590 L 650.222 483.322 634.861 482.681 C 580.773 480.424, 527.708 469.608, 507.618 456.747 L 502.736 453.622 505.618 451.265 C 513.342 444.947, 539.101 435.192, 565.500 428.587 C 593.663 421.541, 617.433 417.066, 693.500 404.488 C 802.977 386.386, 828.059 378.644, 851.840 355.609 C 864.821 343.036, 873.100 328.120, 876.543 311.098 C 879.081 298.550, 878.177 277.644, 874.571 265.500 C 867.162 240.550, 850.738 216.009, 829.552 198.231 C 802.211 175.290, 771.143 161.564, 732.500 155.355 C 718.939 153.176, 686.082 152.916, 672 154.877 C 632.739 160.344, 600.965 176.948, 569.461 208.458 C 554.839 223.082, 544.102 236.141, 527.747 259.191 L 516.614 274.882 506.527 265.191 C 494.144 253.295, 484.427 246.513, 469.753 239.527 C 455.719 232.845, 443.100 228.666, 427 225.370 C 415.976 223.112, 412.653 222.855, 398.855 223.190 L 383.211 223.570 377.948 203.035 C 369.386 169.623, 349.479 101.392, 347.135 97.425 C 346.723 96.726, 336.330 99.814, 317.500 106.228 M 191.479 319.801 C 188.718 320.756, 185.006 322.572, 183.231 323.835 C 173.355 330.868, 167.454 349.028, 169.907 364.841 C 172.117 379.085, 178.096 389.556, 185.394 391.965 C 192.143 394.192, 204.590 388.326, 218.903 376.172 C 226.252 369.931, 243 350.903, 243 348.793 C 243 346.621, 225.552 330.992, 217 325.503 C 205.072 317.847, 200.247 316.770, 191.479 319.801 M 337.478 331.455 C 336.940 332.225, 333.890 336.211, 330.699 340.313 L 324.899 347.770 334.498 362.100 C 339.777 369.981, 344.343 376.671, 344.645 376.965 C 345.241 377.547, 344.907 374.173, 341.828 348.500 C 340.706 339.150, 339.488 331.175, 339.122 330.778 C 338.755 330.380, 338.015 330.685, 337.478 331.455 M 455.503 588.415 C 431.502 592.576, 425.443 593.936, 425.197 595.216 C 424.691 597.842, 429.820 611.915, 434.495 620.732 C 436.896 625.260, 441.349 632.270, 444.390 636.311 C 449.811 643.513, 462.505 656.356, 468.813 661.020 C 470.566 662.316, 472 663.658, 472 664.003 C 472 664.348, 468.962 665.690, 465.250 666.986 C 456.238 670.131, 432.432 680.255, 423.599 684.698 C 386.042 703.592, 358.703 728.945, 347.898 754.901 C 341.183 771.030, 339.400 789.617, 342.927 806.710 C 352.766 854.388, 396.966 884.332, 471 893.476 C 528.288 900.552, 615.581 895.261, 703 879.414 C 726.276 875.195, 727 875.008, 727 873.208 C 727 871.687, 715.531 817.537, 714.435 813.884 C 713.993 812.410, 713.146 812.434, 704.748 814.157 C 646.110 826.184, 567.680 833.971, 518.500 832.650 C 493.047 831.966, 480.975 830.917, 464.388 827.949 C 425.212 820.938, 405.043 807.678, 405.010 788.910 C 404.963 762.148, 455.972 732.586, 539.500 710.967 C 572.850 702.335, 607.083 695.778, 636 692.485 C 650.913 690.787, 670.826 687.507, 671.733 686.600 C 672.176 686.157, 664.973 634.474, 663.378 626.648 C 662.800 623.816, 662.755 623.800, 657.148 624.451 C 654.042 624.812, 642.050 626.534, 630.500 628.278 C 611.639 631.126, 607.310 631.441, 588 631.370 C 556.590 631.254, 538.754 627.624, 518.555 617.236 C 506.831 611.207, 495.083 599.833, 490.166 589.750 C 488.356 586.038, 486.565 583.048, 486.187 583.107 C 485.809 583.165, 472.001 585.554, 455.503 588.415 " stroke="none" fill="black" fill-rule="evenodd"/>
</svg>