<svg xmlns="http://www.w3.org/2000/svg" width="1000" height="1000" viewBox="0 0 1000 1000" version="1.1">
	<path d="M 487.387 87.928 C 480.143 89.090, 472.389 91.734, 466 95.221 C 442.641 107.973, 412.507 141.033, 370.734 199.738 C 358.574 216.828, 357.591 217.938, 355.128 217.364 C 320.682 209.324, 286.037 197.579, 251.719 182.306 C 243.590 178.689, 236.698 175.969, 236.404 176.263 C 236.110 176.556, 229.411 189.105, 221.517 204.148 L 207.164 231.500 218.832 237.191 C 241.122 248.061, 275.107 261.016, 303.526 269.475 C 312.312 272.090, 319.638 274.353, 319.806 274.504 C 319.974 274.655, 317.094 279.441, 313.406 285.139 C 278.857 338.518, 212.784 449.102, 166.720 530.638 C 139.774 578.337, 124.946 605.337, 125.229 606.187 C 125.388 606.663, 137.853 613.762, 152.929 621.961 L 180.340 636.870 198.252 604.685 C 258.818 495.859, 328.603 378.449, 376.566 304.683 L 387.500 287.866 392 288.416 C 417.319 291.511, 453.482 291.541, 476.500 288.487 C 520.528 282.644, 614.155 256.885, 665.754 236.418 C 679.218 231.077, 720.128 212.205, 721.743 210.590 C 721.958 210.375, 716.591 200.039, 709.817 187.620 L 697.500 165.040 679.500 154.795 C 669.600 149.160, 650.700 139.123, 637.500 132.491 C 591.720 109.491, 556.770 96.070, 526.663 89.930 C 515.521 87.657, 495.455 86.635, 487.387 87.928 M 493.926 152.757 C 484.854 158.901, 470.185 174.382, 453.354 195.576 C 445.073 206.003, 432.349 222.920, 430.540 225.906 C 429.276 227.994, 460.938 226.743, 476 224.111 C 502.950 219.400, 556.400 205.911, 589.851 195.379 C 599.558 192.322, 607.686 189.639, 607.913 189.415 C 608.623 188.714, 576.205 173.545, 560.500 167.229 C 526.049 153.374, 501.041 147.938, 493.926 152.757 M 554.968 331.250 C 554.951 331.938, 552.998 345.929, 550.629 362.343 C 547.710 382.572, 546.673 392.297, 547.411 392.529 C 548.010 392.717, 553.225 393.613, 559 394.518 C 598.015 400.636, 677.168 419.504, 665.500 419.906 C 617.873 421.545, 570.578 428.840, 541.500 439.033 C 504.111 452.139, 479.605 473.630, 470.271 501.500 C 467.922 508.512, 467.588 511.105, 467.562 522.500 C 467.536 534.118, 467.816 536.280, 470.196 542.835 C 473.841 552.877, 478.258 559.921, 486.407 568.691 C 494.540 577.444, 501.847 583.235, 514.467 590.930 L 523.681 596.547 480.340 634.450 C 456.503 655.296, 437 672.427, 437 672.517 C 437 672.607, 441.542 683.441, 447.094 696.591 C 464.115 736.910, 471.895 762.819, 473.999 786.189 C 474.560 792.410, 475.440 801.475, 475.956 806.334 C 477.280 818.800, 478.446 852, 477.560 852 C 474.951 852, 413.720 814.389, 385.738 795.599 C 375.419 788.670, 366.792 783, 366.566 783 C 366.080 783, 330 833.676, 330 834.359 C 330 835.318, 375.251 865.154, 396.500 878.207 C 434.106 901.306, 497.032 937, 500.147 937 C 501.009 937, 515.105 924.522, 536.340 904.960 C 539.158 902.364, 540.974 879.818, 541.049 846.500 C 541.110 819.483, 540.760 813.096, 537.436 780.500 C 534.850 755.133, 529.085 731.410, 518.906 704.250 C 515.724 695.758, 514.106 690.117, 514.640 689.372 C 515.113 688.711, 535.663 670.554, 560.306 649.021 C 584.950 627.488, 605.284 609.337, 605.493 608.685 C 605.702 608.033, 606.036 596.587, 606.235 583.249 L 606.598 558.998 598.049 556.466 C 564.969 546.668, 543.430 536.539, 533.625 526.170 C 529.851 522.179, 530.613 518.986, 536.745 513.111 C 548.086 502.244, 576.341 493.041, 613.502 488.110 C 668.818 480.770, 715.004 483.803, 756.695 497.513 C 773.788 503.134, 783.802 507.918, 798.203 517.342 C 804.639 521.554, 810.318 525, 810.822 525 C 811.327 525, 820.832 514.622, 831.946 501.938 L 852.153 478.877 842.243 465.688 C 830.596 450.188, 820.801 439.560, 807.009 427.458 C 785.069 408.207, 755.622 387.270, 738.392 378.669 C 703.765 361.384, 651.920 346.498, 582.732 333.974 C 559.139 329.703, 555.018 329.299, 554.968 331.250 M 303.645 675.392 C 289.975 704.979, 261.170 734.556, 224.412 756.748 C 205.612 768.098, 187.784 776.203, 162.377 784.950 L 146.255 790.500 154.982 820.272 C 159.782 836.646, 163.988 850.321, 164.328 850.661 C 165.215 851.548, 188.019 843.965, 205.026 837.128 C 266.678 812.343, 317.380 773.172, 347.574 727 C 357.625 711.630, 369.300 686.763, 367.298 684.990 C 366.661 684.425, 348.122 679.124, 308.825 668.269 C 307.551 667.917, 306.312 669.620, 303.645 675.392 M 684.320 690.781 C 683.435 691.344, 684.125 698.769, 687.083 720.516 C 689.252 736.457, 691.238 750.448, 691.496 751.606 C 691.935 753.574, 692.795 753.748, 704.733 754.273 C 750.239 756.274, 792.288 784.479, 820.890 832.189 L 826.100 840.878 832.839 837.189 C 836.546 835.160, 849.100 828.325, 860.736 822 L 881.893 810.500 878.842 805 C 873.743 795.808, 861.619 777.966, 854.370 768.987 C 818.504 724.562, 770.262 697.091, 717.493 691.047 C 707.063 689.852, 686.046 689.684, 684.320 690.781 " stroke="none" fill="black" fill-rule="evenodd"/>
</svg>