<svg xmlns="http://www.w3.org/2000/svg" width="1000" height="1000" viewBox="0 0 1000 1000" version="1.1">
	<path d="M 490.500 116.479 C 439.342 123.677, 377.303 158.118, 307.084 218.304 C 290.753 232.302, 268 253.651, 268 254.976 C 268 255.389, 278.125 265.510, 290.501 277.468 L 313.002 299.209 323.751 288.946 C 359.690 254.631, 404.823 220.623, 439.255 201.915 C 469.341 185.567, 492.726 178.286, 512.138 179.221 C 524.975 179.839, 532.294 183.206, 540.544 192.289 C 548.174 200.688, 559.114 217.210, 564.421 228.349 C 568.919 237.789, 573.758 251.575, 572.882 252.451 C 572.609 252.725, 567.911 253.428, 562.443 254.015 C 478.429 263.030, 364.279 309.966, 227.319 391.812 C 194.658 411.329, 138.524 447.440, 120.378 460.607 L 116.255 463.598 133.689 488.049 C 143.278 501.497, 151.510 513.166, 151.981 513.981 C 152.669 515.170, 156.055 513.276, 169.169 504.364 C 245.515 452.482, 341.303 397.764, 409.500 367.077 C 469.798 339.945, 528.439 321.614, 568.165 317.479 L 574.831 316.785 572.894 325.478 C 565.539 358.484, 550.324 391.512, 510 462 C 500.045 479.402, 485.710 508.804, 482.095 519.235 C 477.162 533.467, 475.661 542.810, 476.279 555.448 C 477.102 572.300, 481.786 583.354, 493.338 595.702 C 518.994 623.129, 560.617 631.737, 620 621.898 C 632.993 619.745, 658.978 613.475, 660.108 612.220 C 660.587 611.688, 642.647 554.130, 641.393 552.176 C 641.279 551.998, 635.689 553.236, 628.972 554.926 C 591.407 564.381, 553.685 564.179, 542.137 554.462 L 539.183 551.976 540.522 546.238 C 543.330 534.205, 549.963 520.789, 574.551 477.419 C 611.849 411.627, 627.925 374.270, 636.130 334.315 C 637.352 328.367, 638.444 323.366, 638.557 323.202 C 638.969 322.605, 659.806 328.261, 671.106 332.037 C 755.747 360.320, 798.095 412.894, 809.689 504.086 C 812.113 523.149, 812.079 571.645, 809.629 588.500 C 801.391 645.189, 776.691 693.102, 734.878 733.500 C 713.658 754.003, 692.026 769.492, 665.603 783.105 C 633.373 799.709, 602.334 809.582, 564.722 815.192 C 547.340 817.785, 507.021 818.319, 490 816.182 C 406.815 805.738, 342.365 766.123, 300.998 700.010 C 295.258 690.837, 285.349 671.418, 282.496 663.750 C 281.524 661.138, 280.247 659, 279.658 659 C 277.666 659, 221.507 676.173, 220.572 677.068 C 217.962 679.565, 237.263 719.258, 251.421 740.508 C 304.690 820.466, 384.621 868.167, 484.500 879.604 C 502.457 881.660, 540.878 881.954, 558 880.166 C 627.866 872.871, 691.999 848.205, 745.455 808.070 C 815.451 755.517, 860.142 682.741, 872.002 602 C 877.865 562.082, 876.434 508.717, 868.409 468 C 846.953 359.148, 774.750 289.123, 655.500 261.515 C 646.700 259.478, 639.485 257.741, 639.467 257.656 C 639.449 257.570, 638.453 252.550, 637.255 246.500 C 630.380 211.805, 610.417 173.432, 585.624 147.261 C 561.603 121.904, 528.371 111.150, 490.500 116.479 " stroke="none" fill="black" fill-rule="evenodd"/>
</svg>