<svg xmlns="http://www.w3.org/2000/svg" width="1000" height="1000" viewBox="0 0 1000 1000" version="1.1">
	<path d="M 628.035 100.087 C 569.849 105.689, 487.314 150.449, 410.411 218.107 L 398.322 228.743 397.646 182.657 C 397.275 157.309, 396.640 136.255, 396.235 135.868 C 395.681 135.339, 333.500 137.344, 333.500 137.890 C 333.500 137.951, 333.636 173.887, 333.802 217.750 L 334.104 297.500 317.950 317.500 C 293.252 348.076, 270.258 378.929, 240.067 422 L 234.810 429.500 235.336 373.500 C 235.648 340.348, 236.504 307.300, 237.433 292.500 C 239.047 266.792, 241.564 234.636, 242.527 227.423 L 243.071 223.346 213.785 220.161 C 178.312 216.303, 179.004 216.321, 178.988 219.250 C 178.981 220.488, 178.322 228.925, 177.523 238 C 172.539 294.595, 170.595 348.686, 171.322 410.500 C 171.890 458.766, 172.485 472.171, 175.528 505.205 L 177.067 521.911 167.969 538.205 C 148.037 573.902, 125.623 621.104, 114.075 651.702 C 98.834 692.086, 90.887 743.288, 92.317 791.871 C 93.020 815.733, 94.796 830.195, 99.050 846.692 C 108.990 885.246, 128.189 908.832, 158.054 919.180 C 167.115 922.319, 168.112 922.451, 182.500 922.426 C 196.231 922.401, 198.219 922.160, 206 919.582 C 221.307 914.509, 232.321 907.993, 246.078 895.870 C 259.983 883.617, 278.238 859.670, 290 838.253 C 292.475 833.746, 294.758 830.045, 295.073 830.029 C 295.389 830.013, 297.799 833.150, 300.430 837 C 303.060 840.850, 305.365 844, 305.552 844 C 305.856 844, 338.442 820.580, 351.756 810.792 L 357.012 806.928 351.794 799.214 C 348.924 794.971, 342.016 784.175, 336.443 775.222 L 326.309 758.945 333.955 736.222 C 355.200 673.086, 372.887 596.289, 382.493 525.461 C 389.163 476.285, 394.193 410.373, 396.584 340.814 L 397.261 321.129 410.939 306.314 C 479.507 232.050, 580.270 168.027, 635.885 163.389 C 657.092 161.621, 663.608 169.582, 663.395 197 C 663.264 213.789, 660.258 229.225, 652.602 252.415 C 645.479 273.990, 638.791 289.647, 626.897 312.590 C 621.454 323.090, 617 332.091, 617 332.592 C 617 333.093, 623.862 336.384, 632.250 339.905 C 640.638 343.427, 652.282 348.689, 658.126 351.600 C 693.215 369.076, 732.008 398.479, 758.266 427.500 C 799.212 472.754, 822.178 522.552, 828.075 578.868 C 829.837 595.704, 828.716 643.247, 826.102 662.500 C 823.357 682.724, 818.655 705.852, 814.862 717.795 L 813.815 721.089 806.140 713.795 C 777.811 686.871, 731.922 654.563, 698.223 637.815 C 687.978 632.724, 687.849 632.616, 688.388 629.578 C 689.467 623.495, 691.981 597.190, 692.981 581.517 C 695.984 534.418, 691.478 492.978, 680.622 467.868 C 675.126 455.155, 671.094 449.101, 662 439.904 C 648.755 426.509, 634.863 420.719, 616 420.731 C 595.999 420.744, 578.498 428.415, 562.985 443.968 C 532.950 474.082, 508.833 532.627, 495.266 608.357 L 493.500 618.213 484.027 621.595 C 439.288 637.567, 401.609 670.061, 382.094 709.500 C 374.878 724.082, 372.052 731.925, 368.388 747.540 C 365.780 758.651, 365.578 761.026, 365.540 781 C 365.496 804.450, 366.201 809.273, 371.988 825.129 C 378.014 841.641, 386.701 854.607, 400.926 868.320 C 437.387 903.468, 496.390 915.300, 543.878 896.987 L 551.842 893.916 558.671 898.864 C 582.984 916.480, 609.267 922.892, 652.463 921.743 C 674.290 921.162, 688.826 919.230, 707.974 914.366 C 746.468 904.587, 780.935 884.469, 809.062 855.360 C 818.315 845.784, 823.522 839.939, 826.307 836 L 828.075 833.500 829.788 835.651 C 830.729 836.834, 837.527 845.745, 844.894 855.453 C 853.705 867.065, 858.760 872.922, 859.669 872.574 C 862.139 871.626, 909.961 837.524, 909.981 836.696 C 910.007 835.591, 888.152 806.635, 873.935 788.939 L 862.237 774.378 865.656 765.939 C 877.237 737.350, 886.355 698.560, 890.558 660 C 892.728 640.100, 893.585 594.619, 892.097 578.350 C 888.164 535.346, 877.290 497.241, 858.461 460.488 C 834.279 413.285, 796.830 369.800, 749.500 333.968 C 737.112 324.589, 718.059 311.808, 708.471 306.447 L 702.080 302.872 704.149 297.686 C 728.462 236.752, 733.892 185.544, 719.704 151 C 714.612 138.602, 710.164 131.960, 700.600 122.470 C 686.616 108.593, 672.721 102.307, 651 100.030 C 640.481 98.928, 640.070 98.929, 628.035 100.087 M 321.286 417.702 C 297.639 449.820, 270.235 490.811, 248.135 527.121 L 242.888 535.741 245.487 551.121 C 252.161 590.631, 265.855 635.541, 282.497 672.500 L 285.199 678.500 286.595 674 C 289.300 665.278, 300.917 618.300, 304.399 602 C 315.832 548.484, 323.364 494.104, 327.876 432.500 C 328.883 418.750, 329.601 407.366, 329.472 407.202 C 329.343 407.038, 325.659 411.763, 321.286 417.702 M 610.850 486.456 C 600.257 493.654, 585.705 520.221, 574.948 552 C 569.979 566.678, 562.735 593.659, 561.492 602.111 L 560.815 606.722 580.657 607.297 C 591.571 607.614, 605 608.614, 610.500 609.521 C 616 610.427, 621.850 611.243, 623.500 611.334 L 626.500 611.500 627.679 600 C 629.678 580.496, 630.418 541.980, 629.063 528 C 627.147 508.241, 623.152 492.005, 618.864 486.554 C 616.371 483.385, 615.387 483.373, 610.850 486.456 M 193.136 628.274 C 170.530 678.245, 163.611 700.339, 158.457 739 C 155.952 757.790, 155.377 797.364, 157.388 812.612 C 160.461 835.921, 166.690 851.857, 174.823 857.222 C 178.097 859.381, 185.454 859.544, 190.195 857.563 C 207.712 850.244, 230.213 819.647, 250.111 776.089 L 255.795 763.647 245.600 743.574 C 227.661 708.253, 212.361 671.965, 202.250 640.753 C 199.087 630.992, 196.275 623.015, 196 623.026 C 195.725 623.038, 194.436 625.399, 193.136 628.274 M 559.325 670.741 L 552.150 671.085 551.453 677.597 C 550.301 688.352, 551.617 737.232, 553.427 750.929 C 555.403 765.880, 558.921 782.514, 562.494 793.807 L 565.123 802.114 566.927 799.807 C 583.338 778.827, 600.987 737.223, 611.559 694.591 C 614.001 684.742, 616 676.351, 616 675.945 C 616 674.151, 577.939 669.499, 569 670.201 C 567.625 670.309, 563.271 670.552, 559.325 670.741 M 477.376 695.804 C 448.084 715.047, 431.376 742.626, 428.468 776.535 C 426.295 801.884, 438.044 822.267, 461.240 833.384 C 472.263 838.667, 480.458 840.802, 492.551 841.540 C 501.981 842.116, 511.655 841.032, 511.275 839.442 C 511.151 838.924, 508.976 833.132, 506.441 826.571 C 498.414 805.796, 491.909 776.607, 488.930 748 C 488.271 741.675, 487.455 725.995, 487.116 713.155 L 486.500 689.810 477.376 695.804 M 673.076 711.822 C 660.777 762.584, 636.393 816.159, 612.702 844.467 C 609.035 848.849, 606.364 852.764, 606.767 853.166 C 611.063 857.452, 651.444 859.553, 672 856.560 C 708.752 851.209, 736.057 837.873, 761.134 813.027 C 771.570 802.687, 785 786.180, 785 783.694 C 785 783.171, 781.063 778.693, 776.250 773.744 C 750.138 746.892, 715.915 720.677, 680.945 700.741 L 676.390 698.144 673.076 711.822 " stroke="none" fill="black" fill-rule="evenodd"/>
</svg>