<svg xmlns="http://www.w3.org/2000/svg" width="1000" height="1000" viewBox="0 0 1000 1000" version="1.1">
	<path d="M 674.500 93.062 C 621.744 111.148, 549.148 129.188, 483.500 140.526 C 455.165 145.420, 439.793 146.989, 413.500 147.674 C 363.577 148.974, 301.360 141.605, 246.808 127.931 C 240.378 126.319, 234.491 125, 233.725 125 C 232.764 125, 229.652 134.103, 223.667 154.419 C 218.900 170.600, 215 184.286, 215 184.832 C 215 185.926, 245.059 193.409, 265.500 197.403 C 298.103 203.774, 332.433 208.367, 361.319 210.222 L 380.138 211.430 379.497 224.965 C 370.051 424.255, 329.273 593.015, 266.161 694 C 239.238 737.080, 207.089 770.052, 174.774 787.727 C 169.975 790.352, 166.037 792.841, 166.024 793.257 C 166.011 793.673, 172.316 806.640, 180.036 822.073 L 194.073 850.131 200.786 846.399 C 245.140 821.738, 280.923 787.332, 313.524 738 C 368.410 654.947, 407.732 534.336, 428.937 384 C 435.448 337.839, 440.941 279.099, 442.497 239 C 442.807 231.025, 443.303 221.307, 443.601 217.405 L 444.142 210.311 455.321 209.105 C 491.137 205.241, 554.005 192.799, 609.304 178.630 C 622.947 175.135, 633.912 172.776, 633.673 173.387 C 633.433 173.999, 616.287 216.831, 595.571 268.568 L 557.905 362.636 566.235 381.068 L 574.565 399.500 599.033 399.524 C 621.941 399.546, 624.328 399.724, 636.500 402.323 C 721.980 420.576, 766.196 482.013, 768.693 586 C 769.302 611.348, 767.898 627.767, 763.405 647.869 C 749.251 711.184, 708.363 768.483, 641.500 818.704 C 627.899 828.920, 605.989 843.587, 592.261 851.667 C 587.167 854.664, 583.008 857.428, 583.017 857.808 C 583.026 858.189, 589.946 870.425, 598.393 885 C 608.684 902.756, 614.270 911.457, 615.320 911.371 C 619.268 911.044, 657.237 886.479, 678.500 870.495 C 701.936 852.877, 712.052 844.095, 732.549 823.572 C 753.449 802.647, 766.704 786.737, 780.483 766.040 C 824.643 699.709, 841.137 624.515, 829.407 543 C 820.984 484.463, 801.175 439.198, 768.781 404.461 C 738.239 371.711, 695.925 348.956, 648.500 339.778 C 642.450 338.607, 637.334 337.524, 637.130 337.371 C 636.927 337.219, 654.889 291.774, 677.047 236.383 C 699.204 180.992, 717.321 135.184, 717.305 134.586 C 717.281 133.651, 692.785 88.393, 691.844 87.544 C 691.655 87.374, 683.850 89.857, 674.500 93.062 " stroke="none" fill="black" fill-rule="evenodd"/>
</svg>