<svg xmlns="http://www.w3.org/2000/svg" width="1000" height="1000" viewBox="0 0 1000 1000" version="1.1">
	<path d="M 441.889 78.750 C 441.305 80.263, 439.795 84.200, 438.534 87.500 C 429.401 111.397, 411.055 149.504, 401.909 163.578 C 389.983 181.928, 347.734 231.957, 308.781 273.854 L 297.296 286.207 311.587 312.854 C 322.673 333.523, 326.265 339.426, 327.600 339.169 C 328.547 338.987, 367.742 324.475, 414.701 306.919 C 461.659 289.364, 500.299 275, 500.567 275 C 500.835 275, 494.180 280.957, 485.777 288.238 C 458.169 312.161, 442.095 326.748, 393.500 371.976 C 367.100 396.547, 319.625 440.625, 288 469.927 C 256.375 499.229, 230.500 523.604, 230.500 524.094 C 230.500 524.584, 240.370 536.646, 252.434 550.899 L 274.368 576.814 286.434 566.862 C 357.110 508.574, 437.813 464.122, 500.500 448.953 C 556.443 435.417, 598.281 444.829, 631.563 478.438 C 674.479 521.777, 691.623 596.673, 678.387 683 C 676.996 692.075, 675.548 699.820, 675.169 700.210 C 674.790 700.601, 667.509 698.218, 658.990 694.916 C 631.303 684.183, 597.571 674.409, 567.527 668.414 C 559.922 666.897, 554 665.231, 554 664.608 C 554 663.998, 554.691 659.900, 555.535 655.500 C 568.699 586.875, 552.702 531.327, 514.500 513.015 C 504.830 508.380, 498.256 506.920, 487.010 506.912 C 459.823 506.893, 430.452 522.453, 406.820 549.394 C 385.380 573.837, 365.822 610.885, 354.501 648.500 C 352.515 655.100, 350.577 660.774, 350.195 661.110 C 349.813 661.445, 345.450 662.259, 340.500 662.918 C 317.214 666.021, 285.029 673.656, 261.883 681.568 C 226.165 693.777, 203.457 706.583, 184.893 724.986 C 168.228 741.506, 162.034 753.990, 161.220 772.700 C 158.878 826.578, 214.626 862.215, 295.500 858.538 C 316.312 857.591, 349.152 853.143, 362.500 849.462 C 364.126 849.014, 365.692 850.603, 370.874 857.960 C 378.490 868.771, 391.845 881.766, 402.650 888.880 C 420.122 900.382, 447.735 911.542, 469.500 915.897 C 507.288 923.459, 546.432 920.356, 584 906.819 C 634.970 888.454, 680.774 848.515, 707.959 798.731 L 712.202 790.962 715.851 793.161 C 744.860 810.644, 772.893 831.916, 799.811 856.874 L 811.122 867.361 833.632 844.931 L 856.142 822.500 845.821 812.697 C 816.569 784.911, 781.832 758.435, 748.281 738.352 C 737.320 731.791, 734.063 729.378, 734.463 728.116 C 735.707 724.196, 739.132 707.227, 740.977 695.841 C 753.344 619.531, 745.365 548.929, 717.997 492.500 C 681.753 417.770, 615.669 375.996, 539 379.349 C 517.566 380.287, 493.140 384.300, 473.789 390.063 C 469.950 391.206, 466.629 391.962, 466.410 391.743 C 465.961 391.294, 487.634 371.318, 508.021 353.390 C 543.343 322.328, 594.046 279.647, 640.250 242.081 C 653.614 231.215, 664.004 222.056, 664.009 221.135 C 664.018 219.376, 651.952 159.712, 651.479 159.181 C 650.865 158.490, 561.629 186.482, 525 198.855 C 498.589 207.777, 478.709 214.861, 452.034 224.857 C 440.228 229.281, 430.394 232.728, 430.182 232.516 C 429.970 232.303, 433.363 227.713, 437.722 222.315 C 456.125 199.523, 468.854 177.810, 484.511 142.500 C 491.121 127.594, 503.192 97.842, 502.778 97.478 C 502.364 97.114, 444.049 76, 443.458 76 C 443.179 76, 442.473 77.237, 441.889 78.750 M 479.667 572.446 C 476.458 573.765, 471.969 576.078, 469.691 577.586 C 463.417 581.738, 452.252 593.550, 445.146 603.555 C 438.870 612.391, 425.020 639.244, 421.144 650.092 L 419.146 655.685 452.323 656.325 C 470.570 656.678, 486.459 657.237, 487.631 657.568 C 489.575 658.118, 489.903 657.529, 491.380 650.835 C 495.830 630.673, 497.319 605.721, 494.945 591.089 C 493.225 580.491, 488.783 569.917, 486.095 570.024 C 485.768 570.037, 482.875 571.127, 479.667 572.446 M 404.374 721.203 C 403.401 722.778, 403.333 763.679, 404.297 767.254 L 405.040 770.008 411.270 766.867 C 428.548 758.156, 444.178 744.164, 459.435 723.750 L 462.237 720 433.678 720 C 412.503 720, 404.926 720.311, 404.374 721.203 M 528 733.667 C 523.647 741.939, 510.858 761.523, 504.635 769.448 C 486.550 792.478, 464.496 810.993, 439.437 824.186 L 429.635 829.346 433.568 832.768 C 435.730 834.650, 442.900 838.832, 449.500 842.062 C 469.455 851.826, 487.723 855.989, 510.651 855.996 C 566.587 856.013, 618.944 824.463, 649.699 772.205 C 652.777 766.976, 654.840 762.443, 654.361 761.967 C 651.315 758.941, 606.200 743.404, 583 737.390 C 568.716 733.687, 536.873 727.014, 533.500 727.016 C 532.052 727.017, 530.534 728.852, 528 733.667 M 332.500 728.685 C 294.344 737.329, 276.664 742.761, 258.342 751.470 C 244.261 758.163, 234.796 764.373, 228.635 770.959 C 223.128 776.847, 223.316 778.057, 230.505 783.003 C 248.265 795.223, 285.850 798.198, 330 790.879 C 336.875 789.739, 342.601 788.711, 342.726 788.595 C 342.850 788.478, 342.296 783.459, 341.495 777.441 C 340.659 771.157, 340.031 758.306, 340.020 747.250 L 340 728 337.250 728.116 C 335.738 728.180, 333.600 728.436, 332.500 728.685 " stroke="none" fill="black" fill-rule="evenodd"/>
</svg>