<svg xmlns="http://www.w3.org/2000/svg" width="1000" height="1000" viewBox="0 0 1000 1000" version="1.1">
	<path d="M 156.442 104.439 C 156.249 105.022, 154.494 124.850, 152.541 148.500 C 137.970 325.017, 128.738 468.276, 124.993 576 C 123.694 613.360, 123.725 680.350, 125.050 700.517 C 127.744 741.510, 136.668 775.937, 153.559 810.500 C 164.410 832.703, 176.630 850.467, 190.169 863.719 L 195.500 868.938 218 866.978 C 230.375 865.899, 242.341 864.771, 244.592 864.471 L 248.684 863.925 249.320 836.712 C 249.973 808.831, 251.765 784.244, 254.530 765.238 C 257.934 741.841, 268.284 702.623, 281.068 664.679 L 288.757 641.858 286.129 640.847 C 271.186 635.101, 230.439 620, 229.874 620 C 228.934 620, 226.754 625.932, 218.666 650.500 C 209.720 677.672, 205.619 691.789, 199.519 716.412 L 194.338 737.324 192.672 728.912 C 189.767 714.245, 188.962 705.197, 188.064 677.119 C 185.599 600.012, 193.554 439.356, 210.549 223 C 213.033 191.375, 216.149 152.911, 217.474 137.525 C 218.799 122.139, 219.767 109.433, 219.624 109.291 C 219.481 109.148, 206.795 107.902, 191.432 106.522 C 176.069 105.142, 161.991 103.870, 160.146 103.695 C 158.302 103.520, 156.635 103.855, 156.442 104.439 M 450 130.893 L 420.500 135.547 420.618 140.023 C 420.682 142.486, 423.486 163.625, 426.848 187 C 432.180 224.080, 439.302 277.341, 443.066 308.288 C 443.721 313.672, 443.988 318.346, 443.659 318.674 C 442.035 320.299, 408.043 311.749, 383.500 303.542 C 373.050 300.048, 357.300 294.271, 348.500 290.704 C 339.700 287.138, 332.448 284.283, 332.384 284.360 C 331.690 285.201, 307 341.028, 307 341.757 C 307 342.741, 333.425 353.628, 352.500 360.503 C 383.627 371.722, 422.135 381.354, 444.588 383.537 L 451.676 384.227 452.876 397.363 C 458.230 455.962, 460.395 498.559, 459.854 534.647 C 459.490 558.875, 459.419 559.601, 457.052 563.500 C 445.614 582.337, 422.946 603.351, 394.783 621.226 C 373.142 634.962, 340.181 650.640, 313.250 660.008 C 306.512 662.351, 301 664.673, 301 665.167 C 301 666.560, 317.954 724.287, 318.533 724.866 C 320.214 726.547, 365.189 708.915, 388.789 697.323 C 408.141 687.817, 432.724 673.315, 446.243 663.430 C 451.174 659.825, 455.370 657.037, 455.568 657.235 C 455.970 657.636, 453.821 698.901, 451.509 735.181 C 450.679 748.205, 449.988 759.455, 449.973 760.181 C 449.958 760.906, 448.291 758.800, 446.268 755.500 C 433.316 734.375, 406.169 696.721, 404.384 697.406 C 403.393 697.786, 358.456 732.479, 355.643 735.035 C 355.172 735.464, 358.313 740.468, 362.623 746.157 C 380.014 769.108, 392.955 789.829, 404.056 812.500 C 414.807 834.458, 427.831 863.687, 438.030 888.750 C 441.104 896.304, 443.987 902, 444.737 902 C 446.442 902, 502.380 886.001, 503.848 885.094 C 505.087 884.328, 505.839 876.413, 509.466 826 C 514.500 756.012, 519.064 676.813, 520.961 626.500 C 521.521 611.650, 522.237 594.100, 522.553 587.500 L 523.127 575.500 529.654 564.071 C 543.507 539.815, 576.352 488.103, 603.376 448 C 612.915 433.845, 615.568 429.224, 614.672 428.324 C 614.027 427.677, 602.292 419.474, 588.593 410.096 L 563.686 393.044 554.285 406.772 C 549.115 414.322, 539.848 428.256, 533.692 437.735 C 527.536 447.214, 522.230 454.976, 521.900 454.985 C 521.570 454.993, 520.989 449.488, 520.608 442.750 C 520.228 436.012, 518.811 418.575, 517.460 404 C 514.548 372.570, 514.622 375, 516.579 375 C 519.699 375, 545.796 364.651, 560.500 357.583 C 575.768 350.244, 594.988 339.445, 595.014 338.192 C 595.036 337.175, 560.607 286.023, 559.893 286.011 C 559.560 286.005, 555.285 288.315, 550.393 291.145 C 534.530 300.323, 508.161 311.738, 507.525 309.703 C 507.318 309.041, 506.413 301.975, 505.513 294 C 503.145 273.004, 494.852 211.012, 488.990 170.500 C 486.205 151.250, 483.655 133.363, 483.324 130.750 C 482.877 127.223, 482.307 126.031, 481.111 126.119 C 480.225 126.185, 466.225 128.333, 450 130.893 M 794.500 148.525 C 774.392 152.965, 752.028 164.905, 726.500 184.829 C 708.434 198.930, 663.181 236.825, 647.361 251.101 L 643.222 254.836 663.660 278.168 C 674.901 291.001, 684.461 301.628, 684.904 301.785 C 685.348 301.942, 692.863 295.895, 701.605 288.348 C 727.369 266.105, 756.550 242.026, 770.675 231.356 C 782.384 222.511, 798.492 213, 801.764 213 C 803.231 213, 802.781 215.764, 798.847 230.920 C 788.640 270.239, 752.818 348.871, 718.233 407.872 L 712.739 417.244 716.872 430.372 C 724.182 453.597, 731.119 488.365, 734.455 518.500 C 735.308 526.200, 736.213 534.363, 736.468 536.639 L 736.931 540.778 731.418 541.467 C 722.602 542.568, 704.068 546.611, 692.468 549.963 C 659.972 559.353, 633.451 573.137, 609.811 592.922 C 583.571 614.884, 569.281 640.313, 567.418 668.362 C 565.871 691.642, 574.306 717.485, 593.683 748.834 C 605.253 767.552, 631.623 806.349, 641.102 818.600 C 659.060 841.810, 684.298 870.157, 706.737 892.322 L 716.680 902.144 738.090 883.963 C 749.865 873.964, 760.095 865.220, 760.823 864.533 C 764.506 861.053, 781.273 783.714, 790.421 728 C 797.531 684.706, 800.626 656.901, 801.555 628 C 801.846 618.925, 802.328 609.100, 802.625 606.167 L 803.165 600.834 811.832 601.463 C 840.323 603.531, 862.426 606.357, 882 610.432 C 888.325 611.749, 893.759 612.528, 894.075 612.163 C 894.917 611.191, 910.141 551.808, 909.669 551.336 C 909.449 551.116, 902.796 549.602, 894.885 547.971 C 875.804 544.038, 849.094 540.344, 830 538.996 C 821.475 538.395, 811.300 537.667, 807.388 537.379 L 800.276 536.855 799.600 527.900 C 797.622 501.694, 790.152 456.576, 783.867 432.866 L 781.844 425.233 791.005 408.366 C 816.314 361.771, 839.929 309.625, 853.024 271.412 C 869.004 224.781, 870.875 197.797, 859.707 175.035 C 853.693 162.775, 840.369 152.154, 826.458 148.531 C 819.299 146.666, 802.934 146.663, 794.500 148.525 M 724.059 607.656 C 691.563 614.705, 663.387 628.725, 645.269 646.859 C 630.952 661.188, 628.137 670.978, 633.696 687.104 C 637.873 699.225, 643.600 709.206, 664.160 740.196 C 688.896 777.481, 709.584 804.495, 711.196 801.615 C 712.506 799.273, 722.682 746.892, 727.439 718 C 734.098 677.562, 736.596 654.678, 738.494 616.750 C 739.181 603.008, 740.795 604.025, 724.059 607.656 " stroke="none" fill="black" fill-rule="evenodd"/>
</svg>