<svg xmlns="http://www.w3.org/2000/svg" width="1000" height="1000" viewBox="0 0 1000 1000" version="1.1">
	<path d="M 615.417 97.933 C 600.522 102.182, 587.624 105.930, 586.756 106.264 C 585.350 106.803, 585.441 107.894, 587.584 116.185 C 594.259 142.022, 601.604 184.069, 604.407 212.500 C 606.333 232.027, 607.542 263.554, 606.391 264.234 C 604.793 265.177, 584.416 263.110, 573.835 260.931 C 549.982 256.020, 519.164 243.831, 494.412 229.519 L 488.323 225.999 470.692 252.451 L 453.061 278.903 461.280 283.842 C 473.768 291.347, 495.890 302.122, 511.500 308.301 C 536.051 318.020, 558.259 323.830, 582.277 326.816 L 595.825 328.500 590.858 342 C 573.738 388.529, 542.557 452.147, 511.792 503.317 C 505.239 514.216, 500.018 523.530, 500.189 524.014 C 501.159 526.760, 541.254 574.846, 542.274 574.487 C 542.948 574.250, 580.850 564.130, 626.500 551.999 C 672.150 539.867, 710.383 529.669, 711.461 529.336 C 713.267 528.779, 713.306 528.895, 711.961 530.794 C 665.847 595.897, 641.816 648.318, 631.874 705.500 C 629.221 720.753, 628.207 754.953, 629.956 770.124 C 635.521 818.376, 657.172 854.098, 697.014 880.758 C 726.777 900.673, 772.025 914.422, 815.264 916.690 L 827.029 917.307 826.764 885.403 L 826.500 853.500 820.500 853.230 C 809.421 852.732, 791.598 850.053, 779.252 847.029 C 729.626 834.878, 700.795 809.099, 694.569 771.308 C 689.318 739.442, 693.724 706.119, 708.425 666.500 C 713.239 653.526, 729.019 621.509, 737.472 607.561 C 759.014 572.018, 782.723 541.474, 811.660 511.986 L 827.865 495.472 812.835 468.986 C 804.568 454.419, 797.453 442.128, 797.024 441.672 C 796.354 440.961, 758.558 450.812, 617.500 488.462 C 602.650 492.425, 590.375 495.580, 590.222 495.473 C 590.070 495.366, 593.411 488.803, 597.648 480.889 C 624.346 431.025, 653.249 363.197, 661.930 330.036 L 664.670 319.572 677.085 315.921 C 706.995 307.123, 741.255 293.349, 774.500 276.758 C 792.895 267.577, 810.097 257.988, 809.655 257.161 C 809.301 256.497, 777.830 203.707, 777.524 203.263 C 777.434 203.133, 772.892 205.513, 767.430 208.551 C 753.767 216.152, 729.534 227.929, 713.162 234.924 C 699.554 240.739, 672.733 251, 671.145 251 C 670.685 251, 670.031 243.012, 669.691 233.250 C 668.458 197.902, 661.449 150.830, 650.855 106.750 C 647.159 91.369, 646.653 90.009, 644.665 90.104 C 643.474 90.161, 630.313 93.684, 615.417 97.933 M 217.594 128.750 C 215.601 141.594, 204.282 238.174, 199.047 287 C 186.792 401.297, 180.515 480.075, 178.450 545.500 C 176.481 607.874, 188.566 732.362, 208.229 852.250 C 212.898 880.719, 213.629 884, 215.303 884 C 217.586 884, 276.424 877.907, 276.689 877.643 C 276.794 877.539, 278.472 868.646, 280.419 857.881 C 291.137 798.611, 306.736 740.379, 323.163 698.310 C 332.893 673.391, 356.317 627.926, 379.145 589.653 C 384.015 581.487, 388 574.512, 387.999 574.153 C 387.998 573.633, 337.328 541.168, 335.096 540.257 C 334.768 540.123, 333.771 541.248, 332.880 542.757 C 331.988 544.266, 326.894 552.879, 321.560 561.898 C 307.769 585.214, 296.406 606.106, 283.432 632 C 271.462 655.890, 265.935 668.621, 257.385 692 C 254.468 699.975, 252.063 705.973, 252.041 705.329 C 252.018 704.685, 250.897 693.210, 249.549 679.829 C 242.014 605.037, 240.643 561.315, 244.020 503.500 C 248.650 424.245, 260.290 305.002, 276.075 175.135 C 278.840 152.383, 280.889 133.556, 280.628 133.295 C 280.250 132.917, 221.306 125.005, 218.838 125.001 C 218.474 125, 217.914 126.688, 217.594 128.750 " stroke="none" fill="black" fill-rule="evenodd"/>
</svg>