<svg xmlns="http://www.w3.org/2000/svg" width="1000" height="1000" viewBox="0 0 1000 1000" version="1.1">
	<path d="M 302.580 70.157 C 302.198 71.353, 298.782 145.965, 297.437 182.500 C 297.153 190.200, 296.682 198.859, 296.389 201.743 L 295.858 206.985 290.679 208.470 C 277.767 212.171, 266.642 213.418, 246.500 213.423 C 225.170 213.428, 210.678 211.819, 193.654 207.555 C 186.237 205.697, 184.719 205.568, 184.264 206.754 C 182.037 212.557, 165.178 265.511, 165.465 265.799 C 166.458 266.791, 186.096 271.361, 198.500 273.485 C 227.455 278.445, 261.833 278.876, 286 274.581 C 290.125 273.848, 293.550 273.305, 293.610 273.374 C 293.671 273.443, 293.152 288.575, 292.458 307 C 291.764 325.425, 290.646 359.625, 289.972 383 C 289.299 406.375, 288.452 425.830, 288.090 426.234 C 287.063 427.379, 263.272 436.154, 244.385 442.354 C 215.480 451.842, 193.116 456.451, 182.718 455.063 C 176.467 454.229, 175 450.693, 175.015 436.500 C 175.025 426.546, 175.707 421.717, 179.619 403.900 C 180.188 401.309, 180.100 401.270, 150.420 391.124 C 127.722 383.364, 120.462 381.250, 119.857 382.223 C 118.563 384.304, 114.130 403.810, 112.513 414.542 C 110.665 426.798, 110.617 446.967, 112.411 457 C 115.584 474.750, 121.534 486.486, 133.500 498.597 C 139.871 505.046, 143.231 507.538, 150 510.837 C 161.589 516.486, 168.341 518.097, 183 518.714 C 204.346 519.611, 229.366 514.617, 267.871 501.774 L 286.852 495.443 287.216 544.471 L 287.580 593.500 283.521 597.500 C 281.288 599.700, 268.671 611.175, 255.483 623 C 231.603 644.411, 193.432 679.345, 172.500 698.944 C 166.450 704.609, 154.863 714.867, 146.750 721.739 C 138.638 728.611, 132 734.760, 132 735.405 C 132 740.292, 135.318 761.518, 137.061 767.783 C 141.849 784.986, 157.386 819.453, 168.082 836.597 C 184.568 863.020, 203.649 883.145, 228.720 900.554 L 240.993 909.076 259.246 893.800 C 279.961 876.464, 301.011 858.112, 308.725 850.663 C 311.599 847.888, 314.134 845.816, 314.357 846.059 C 314.581 846.301, 315.969 850.550, 317.442 855.500 C 323.266 875.080, 327.106 882.921, 337.582 896.633 C 345.571 907.088, 356.689 917.212, 372.502 928.432 C 380.201 933.894, 387.895 939.408, 389.599 940.685 L 392.698 943.007 404.742 924.754 C 411.366 914.714, 418.580 903.350, 420.773 899.500 C 434.742 874.974, 448.194 841.800, 454.963 815.180 C 462.433 785.803, 464.418 758.288, 463.756 693.321 C 463.192 637.957, 460.599 591.287, 458.049 590.575 C 457.197 590.337, 444.350 588.260, 429.500 585.959 C 414.650 583.658, 402.300 581.589, 402.056 581.360 C 401.811 581.132, 403.382 579.495, 405.545 577.722 C 426.939 560.199, 473.406 517.912, 517.779 475.586 L 545.059 449.564 522.591 427.097 L 500.124 404.629 491.107 413.065 C 486.148 417.704, 473.527 429.688, 463.062 439.695 C 429.852 471.451, 371.968 523.558, 354.750 537.197 L 351 540.168 351 505.033 L 351 469.898 354.750 468.341 C 364.743 464.192, 413.437 442.323, 428.500 435.219 C 454.744 422.842, 540.005 381.308, 540.828 380.500 C 541.130 380.203, 536.953 351.495, 533.585 330.722 C 531.413 317.320, 525.027 305.497, 506.113 279.855 L 498.999 270.210 502.473 262.855 C 509.244 248.518, 511.119 232.565, 507.618 219.072 C 503.031 201.393, 487.366 182.220, 471 174.254 C 457.651 167.756, 451.859 166.532, 434.500 166.541 C 416.161 166.551, 406.692 168.420, 379.583 177.381 L 360.896 183.559 361.474 173.529 C 362.731 151.731, 366.122 72.789, 365.815 72.482 C 365.635 72.302, 355.591 71.675, 343.494 71.089 C 331.397 70.502, 317.339 69.750, 312.254 69.418 C 304.990 68.943, 302.917 69.102, 302.580 70.157 M 727.817 151.373 C 712.591 154.193, 699.876 156.766, 699.560 157.090 C 699.244 157.415, 699.698 163.940, 700.568 171.590 C 702.669 190.058, 702.699 226.219, 700.627 243.500 C 697.740 267.593, 695.153 277.761, 679.510 326.500 C 661.268 383.341, 655.939 401.185, 649.645 426.500 C 641.880 457.730, 639.552 473.536, 639.627 494.500 C 639.678 508.605, 640.052 512.831, 641.820 519.314 C 646.945 538.105, 657.525 550.340, 674.500 557.108 C 680.435 559.474, 680.836 559.497, 711.500 559.229 C 730.752 559.061, 743.068 559.334, 744 559.949 C 746.563 561.640, 745.797 582.754, 742.593 598.716 C 739.269 615.281, 733.123 637.143, 728.392 649.235 C 725.403 656.873, 712.225 683.964, 709.139 688.814 C 708.479 689.851, 705.483 689.176, 694.901 685.602 C 664.118 675.205, 628.270 672.030, 597.765 676.997 C 536.251 687.015, 496.041 716.764, 487.368 758.675 C 485.178 769.253, 485.933 786.752, 488.998 796.500 C 504.862 846.947, 560.272 870.601, 618.722 851.878 C 650.324 841.755, 686.923 816.552, 716.027 784.874 L 725.992 774.026 736.246 782.852 C 760.304 803.559, 784.432 832.380, 804.979 864.953 C 814.978 880.805, 828.457 905.270, 834.903 919.267 C 837.875 925.720, 840.797 931, 841.395 931 C 841.994 931, 855.195 925.937, 870.730 919.750 C 890.188 912, 898.980 908.031, 898.988 906.993 C 899.008 904.435, 878.799 864.332, 869.511 848.500 C 847.959 811.762, 825.955 782.297, 800.524 756.125 C 789.882 745.172, 773.494 730.234, 765.828 724.499 L 763.156 722.500 770.078 710 C 777.803 696.052, 784.565 681.248, 789.719 667 C 802.542 631.558, 811.332 585.524, 809.572 563.033 C 806.821 527.869, 790.280 506.319, 759.500 497.797 C 752.275 495.796, 749.139 495.578, 727.115 495.541 L 702.731 495.500 703.325 486.500 C 704.872 463.036, 714.683 425.252, 737.986 353 C 761.492 280.117, 764.660 264.570, 765.693 217 C 766.250 191.358, 765.572 176.586, 762.835 154.750 L 761.738 146 758.619 146.123 C 756.904 146.190, 743.043 148.552, 727.817 151.373 M 415.488 232.961 C 405.247 235.639, 389.165 241.140, 367.500 249.376 L 358.500 252.798 357.871 266.149 C 357.525 273.492, 356.983 285.667, 356.667 293.205 L 356.092 306.909 364.796 301.799 C 392.229 285.693, 416.212 268.471, 429.664 255.220 C 438.164 246.846, 445 237.753, 445 234.820 C 445 229.243, 432.675 228.467, 415.488 232.961 M 447.500 323.617 C 438.099 330.840, 415.027 346.163, 401.500 354.166 C 387.677 362.344, 371.002 371.344, 370.561 370.864 C 370.377 370.664, 366.854 363.750, 362.731 355.500 L 355.236 340.500 354.618 358.500 C 354.278 368.400, 353.754 381.599, 353.454 387.832 L 352.909 399.164 355.141 398.455 C 366.719 394.781, 471 344.311, 471 342.382 C 471 340.941, 457.818 320.906, 455.806 319.288 C 454.830 318.503, 452.732 319.597, 447.500 323.617 M 378.411 600.343 C 368.461 608.679, 358.703 616.923, 356.725 618.663 L 353.128 621.826 354.712 650.663 C 355.582 666.523, 356.609 679.858, 356.992 680.295 C 357.641 681.034, 368.233 657.849, 377.227 636 C 383.499 620.763, 397.040 585.706, 396.758 585.434 C 396.616 585.297, 388.360 592.006, 378.411 600.343 M 287.471 679.822 C 285.255 681.845, 275.580 690.664, 265.971 699.420 C 256.362 708.176, 237.840 725.222, 224.811 737.301 L 201.121 759.262 202.698 763.381 C 205.877 771.687, 217.006 794.233, 222.047 802.578 C 227.626 811.814, 238.454 826, 239.925 826 C 241.074 826, 264.580 805.106, 284.710 786.191 L 300.258 771.582 299.624 764.541 C 299.276 760.668, 298.109 748.275, 297.032 737 C 295.955 725.725, 294.540 707.950, 293.889 697.500 C 293.237 687.050, 292.433 677.970, 292.102 677.322 C 291.710 676.555, 290.092 677.429, 287.471 679.822 M 615.352 739.025 C 585.312 742.189, 559.735 753.068, 552.230 765.872 C 546.577 775.516, 550.226 784.765, 562.068 790.810 C 575.556 797.696, 591.692 795.871, 613.500 784.996 C 620.100 781.704, 629.486 776.140, 634.357 772.631 C 643.517 766.032, 667 745.499, 667 744.089 C 667 743.035, 653.689 740.205, 643 738.985 C 633.493 737.900, 625.923 737.911, 615.352 739.025 M 396.613 745.750 C 392.133 754.940, 380.210 774.798, 373.860 783.646 L 368.014 791.792 370.436 803.684 C 373.270 817.600, 377.805 835.829, 378.936 837.850 C 379.471 838.806, 380.762 836.558, 382.940 830.880 C 390.853 810.254, 395.265 793.554, 397.441 776 C 398.979 763.597, 400.558 740, 399.850 740 C 399.612 740, 398.155 742.587, 396.613 745.750 " stroke="none" fill="black" fill-rule="evenodd"/>
</svg>