<svg xmlns="http://www.w3.org/2000/svg" width="1000" height="1000" viewBox="0 0 1000 1000" version="1.1">
	<path d="M 418.998 115.750 C 418.994 136.567, 415.908 184.428, 412.811 211.690 C 411.658 221.845, 411.645 221.879, 409.077 221.468 C 407.660 221.240, 402.450 220.573, 397.500 219.986 C 364.861 216.110, 321.238 206.783, 288 196.574 C 280.025 194.124, 273.227 192.430, 272.892 192.810 C 272.558 193.189, 267.761 205.875, 262.232 221 C 256.703 236.125, 251.898 249.204, 251.554 250.065 C 250.170 253.525, 307.026 269.175, 349 276.887 C 367.434 280.274, 392.081 283.986, 396.191 283.995 C 397.671 283.998, 399.130 284.401, 399.433 284.891 C 400.064 285.912, 392.147 309.588, 386.118 324.712 C 373.899 355.361, 355.392 392.738, 338.351 421.185 L 331.951 431.870 337.611 455.685 C 340.724 468.783, 343.364 479.616, 343.476 479.757 C 343.589 479.899, 349.940 479.258, 357.590 478.333 C 376.573 476.038, 411.896 476.089, 429.500 478.436 C 480.499 485.237, 516.194 500.223, 541.557 525.481 C 560.264 544.110, 571.732 567.012, 577.170 596.602 C 580.079 612.429, 580.330 649.772, 577.657 669 C 575.513 684.421, 570.610 708.805, 567.847 717.787 C 555.153 759.061, 510.302 799.307, 463.201 811.691 C 449.991 815.164, 428.135 816.019, 415.909 813.542 C 387.968 807.880, 362.039 788.050, 345.574 759.750 C 344.054 757.138, 342.407 754.751, 341.913 754.446 C 340.706 753.700, 287 784.053, 287 785.482 C 287 787.196, 299.853 806.494, 306.993 815.500 C 315.972 826.825, 331.076 841.352, 342.088 849.254 C 352.779 856.927, 373.680 867.639, 385.396 871.452 C 403.140 877.227, 411.767 878.438, 435 878.419 C 454.524 878.402, 457.672 878.152, 469.256 875.693 C 518.010 865.346, 563.537 837.014, 595.708 797 C 616.305 771.382, 626.998 748.398, 634.392 713.855 C 646.609 656.780, 646.806 606.059, 634.975 564 C 610.823 478.135, 539.443 425.994, 430.312 414.498 C 422.844 413.711, 416.565 412.898, 416.357 412.691 C 416.150 412.484, 420.228 403.581, 425.420 392.907 C 441.116 360.638, 454.726 326.126, 461.468 301.500 L 464.754 289.500 487.234 288.841 C 544.038 287.177, 586.440 280.178, 632.807 264.811 C 645.423 260.630, 648.003 259.454, 647.484 258.119 C 647.137 257.229, 642.581 245.274, 637.359 231.554 C 632.136 217.834, 627.250 205.142, 626.501 203.349 L 625.140 200.090 613.320 204.087 C 575.515 216.871, 526.553 225, 487.355 225 C 474.022 225, 475.267 227.408, 477.475 205.879 C 479.648 184.687, 481.849 150.466, 482.628 125.750 L 483.313 104 451.156 104 L 419 104 418.998 115.750 M 721.591 549.128 C 721.312 550.432, 719.694 563.200, 717.997 577.500 C 716.300 591.800, 714.684 604.850, 714.406 606.500 C 713.906 609.472, 713.973 609.522, 721.701 611.836 C 752.132 620.952, 784.356 646.955, 805.551 679.500 C 815.803 695.243, 825.680 714.806, 832.057 732 C 833.719 736.482, 835.384 739.459, 836.194 739.399 C 838.101 739.256, 893.321 719.862, 894.316 718.986 C 895.406 718.026, 887.420 697.846, 879.085 680.500 C 853.149 626.521, 814.439 585.097, 768.500 562.162 C 755.506 555.675, 735.496 548.533, 727.249 547.439 C 722.391 546.794, 722.071 546.890, 721.591 549.128 M 296.526 622.638 C 281.533 648.415, 253.511 675.027, 220.822 694.530 C 189.348 713.309, 153.976 725.974, 107.750 735.017 C 102.844 735.977, 102.002 736.462, 102.016 738.321 C 102.040 741.463, 111.582 797.916, 112.193 798.526 C 112.475 798.808, 119.634 797.662, 128.103 795.980 C 185.971 784.487, 239.037 762.120, 279.309 732.246 C 307.103 711.629, 329.983 688.050, 346.496 663.006 C 353.078 653.023, 360.765 638.431, 359.898 637.564 C 359.219 636.886, 303.021 613.988, 302.169 614.043 C 301.801 614.067, 299.262 617.935, 296.526 622.638 " stroke="none" fill="black" fill-rule="evenodd"/>
</svg>