<svg xmlns="http://www.w3.org/2000/svg" width="1000" height="1000" viewBox="0 0 1000 1000" version="1.1">
	<path d="M 358.629 88.558 C 342.750 93.701, 329.573 98.094, 329.346 98.321 C 329.118 98.548, 330.509 104.756, 332.436 112.117 C 334.363 119.478, 337.291 132.250, 338.943 140.500 C 344.643 168.968, 350.291 212.070, 348.405 212.698 C 347.882 212.873, 338.015 218.247, 326.477 224.641 C 305.214 236.425, 284.473 248.713, 233 280.018 C 201.715 299.045, 181.553 309.822, 171.339 312.977 C 167.685 314.106, 164.526 314.859, 164.318 314.651 C 162.812 313.145, 162.114 301.342, 163.030 292.880 C 163.913 284.723, 168.418 264.137, 170.458 258.935 C 170.956 257.667, 165.704 255.357, 142.786 246.761 C 127.229 240.926, 113.790 235.874, 112.921 235.535 C 111.649 235.037, 110.722 236.938, 108.150 245.316 C 102.369 264.143, 99.853 278.834, 99.299 297 C 98.655 318.114, 100.582 328.771, 107.610 342.960 C 118.414 364.773, 139.933 378.030, 164.460 377.983 C 188.275 377.937, 208.298 369.440, 264 335.740 C 338.114 290.900, 349.783 284, 351.503 284 C 351.949 284, 352.016 302.788, 351.652 325.750 C 351.288 348.712, 350.696 390.617, 350.337 418.871 L 349.684 470.243 341.592 475.332 C 291.375 506.917, 249.247 540.589, 210.471 580.134 C 133.985 658.135, 91.749 741.091, 97.855 801.321 C 100.521 827.618, 109.608 847.447, 127.422 865.841 C 173.400 913.316, 250.115 905.136, 344.866 842.656 C 377.498 821.138, 398.694 803.436, 416.149 783.124 L 421.628 776.749 426.725 783.124 C 434.006 792.232, 447.228 805.056, 456.477 811.983 C 469.900 822.035, 499.067 835.829, 519.949 842.002 C 526.272 843.870, 567.138 851.354, 567.537 850.716 C 567.611 850.597, 580.679 761.477, 596.576 652.671 C 612.473 543.865, 625.769 454.374, 626.122 453.802 C 626.913 452.523, 642.964 454.215, 657.500 457.111 C 679.987 461.590, 699.220 468.417, 725.051 481.090 C 792.979 514.414, 832.085 557.770, 841.724 610.442 C 844.372 624.910, 843.923 647.411, 840.674 663.058 C 827.712 725.484, 781.737 782.120, 711.500 822.186 C 642.264 861.681, 543.429 888.028, 443.750 893.563 L 431 894.271 431.014 923.885 C 431.021 940.173, 431.310 954.556, 431.656 955.848 C 432.278 958.171, 432.391 958.189, 442.392 957.557 C 478.550 955.274, 502.617 952.676, 532 947.882 C 640.364 930.206, 731.066 893.651, 797 841.082 C 808.764 831.703, 831.833 809.348, 841.460 798 C 871.853 762.170, 892.427 722.672, 901.883 682 C 908.923 651.714, 908.777 613.574, 901.513 585.662 C 887.275 530.955, 852.301 485.278, 796.500 448.516 C 747.092 415.964, 691.051 394.803, 642.636 390.416 L 634.809 389.707 635.419 386.656 C 635.754 384.978, 636.302 381.280, 636.636 378.437 L 637.244 373.268 633.872 372.658 C 628.832 371.747, 574.529 364.998, 572.368 365.015 C 570.924 365.026, 569.232 368.031, 564.911 378.265 L 559.322 391.500 554.411 392.314 C 508.463 399.928, 469.655 411.424, 427.590 429.884 L 413.679 435.989 414.374 398.244 C 414.756 377.485, 415.315 335.750, 415.616 305.500 L 416.163 250.500 431.332 243.875 C 492.128 217.322, 557.510 200.699, 630 193.364 C 653.423 190.994, 697.033 191.004, 714.500 193.384 C 749.897 198.207, 773.111 207.833, 779.698 220.419 C 781.600 224.053, 780.772 231.651, 778.250 233.704 C 774.553 236.714, 755.933 245.069, 743.367 249.355 C 726.210 255.208, 695.508 262.966, 667.742 268.465 C 648.281 272.319, 638.819 273.969, 606.693 279.111 C 600.055 280.173, 599.898 280.266, 600.422 282.850 C 600.718 284.308, 602.591 298.325, 604.585 314 C 606.579 329.675, 608.377 342.676, 608.580 342.891 C 608.977 343.312, 614.273 342.538, 643 337.856 C 702.390 328.178, 758.822 313.598, 788.983 300.139 C 813.384 289.251, 828.484 276.953, 835.849 261.970 C 841.998 249.460, 844.168 239.958, 844.178 225.500 C 844.191 208.319, 840.416 195.908, 830.912 181.883 C 797.182 132.105, 702.799 115.463, 574 136.583 C 520.158 145.412, 474.386 157.888, 427.293 176.570 C 418.379 180.107, 410.841 183, 410.543 183 C 410.244 183, 410 182.019, 410 180.819 C 410 176.837, 404.950 145.756, 401.419 128 C 396.856 105.061, 390.024 78.972, 388.613 79.104 C 388.001 79.161, 374.508 83.416, 358.629 88.558 M 516.127 465.545 C 489.997 472.945, 460.411 484.365, 433.168 497.566 L 413.835 506.934 414.495 517.217 C 415.505 532.941, 417.866 558.154, 419.579 571.500 C 422.768 596.351, 431.135 641.179, 432.975 643.279 C 434.486 645.002, 465.814 587.193, 493.822 531 C 519.292 479.898, 527.234 462.974, 525.691 463.087 C 525.036 463.135, 520.732 464.241, 516.127 465.545 M 340.067 552.996 C 293.742 585.992, 252.693 624.248, 220.916 664.039 C 178.385 717.299, 155.598 770.461, 162.125 801.201 C 164.808 813.834, 174.405 825.763, 185.106 829.767 C 215.047 840.969, 270.642 819.392, 336 771.204 C 352.534 759.013, 372.038 738.426, 385.618 718.829 L 388.355 714.880 386.040 708.690 C 371.582 670.032, 358.834 610.209, 353.876 557.750 C 353.213 550.737, 352.361 545, 351.982 545 C 351.603 545, 346.242 548.598, 340.067 552.996 M 531.277 598.223 C 511.752 635.979, 490.501 673.883, 472.361 703.307 C 466.663 712.551, 462 720.652, 462 721.309 C 462 721.967, 464.794 726.775, 468.210 731.994 C 475.428 743.025, 488.011 756.559, 496.275 762.180 C 502.934 766.709, 514.401 772.351, 514.709 771.248 C 515.458 768.564, 542.992 577.659, 542.676 577.342 C 542.458 577.125, 537.329 586.521, 531.277 598.223 " stroke="none" fill="black" fill-rule="evenodd"/>
</svg>