<svg xmlns="http://www.w3.org/2000/svg" width="1000" height="1000" viewBox="0 0 1000 1000" version="1.1">
	<path d="M 420.694 87.250 C 420.406 88.487, 418.522 100.975, 416.507 115 C 414.492 129.025, 412.478 141.424, 412.033 142.553 C 411.483 143.945, 409.660 144.977, 406.361 145.762 C 403.688 146.398, 389.350 149.825, 374.500 153.377 C 304.465 170.128, 285.077 172.988, 254.779 171.036 C 229.623 169.416, 210.862 165.385, 196.066 158.422 C 188.939 155.068, 188.560 154.998, 186.899 156.712 C 183.579 160.137, 149 203.464, 149 204.199 C 149 205.409, 159.914 212.057, 168.500 216.078 C 184.143 223.402, 204.962 229.238, 227.500 232.617 C 233 233.441, 248.151 234.377, 261.168 234.696 C 284.968 235.280, 297.661 234.512, 315.431 231.413 C 319.794 230.652, 323.533 230.199, 323.740 230.406 C 323.947 230.614, 318.690 241.628, 312.058 254.884 C 305.426 268.139, 300 279.104, 300 279.250 C 300 279.396, 322.950 290.984, 351 305 C 379.050 319.016, 402 330.777, 402 331.134 C 402 331.492, 384.563 341.129, 363.250 352.549 C 285.559 394.181, 276.827 399.056, 238.500 422.194 C 217.109 435.107, 182.988 454.251, 151 471.285 C 138.318 478.038, 129.620 483.250, 129.792 483.993 C 130.669 487.776, 157.602 545.997, 158.468 545.984 C 159.036 545.975, 169.850 540.329, 182.500 533.438 C 210.894 517.969, 264.518 490.957, 296.500 476.014 C 421.209 417.742, 517.311 384.256, 588 374.444 C 600.330 372.732, 659.442 371.166, 662.694 372.464 C 663.882 372.939, 656.453 375.344, 641 379.490 C 491.681 419.552, 409.505 454.204, 383.415 488.111 C 374.462 499.746, 370.031 512.365, 370.012 526.282 C 369.964 561.994, 401.517 583.204, 459.706 586.572 L 471.912 587.278 467.206 590.954 C 464.618 592.976, 446.300 607.182, 426.500 622.523 C 379.514 658.928, 356.751 677.257, 344.667 688.418 C 334.974 697.371, 286.962 746.886, 252.938 783.020 C 212.707 825.746, 172.521 869.307, 172.806 869.882 C 173.424 871.132, 218.221 912, 218.973 912 C 219.401 912, 236.620 893.888, 257.237 871.750 C 324.337 799.703, 333.050 790.729, 338.381 788.176 C 345.441 784.795, 356.686 782.576, 362.408 783.434 C 370.890 784.706, 378.987 794.519, 390.928 818 C 402.680 841.110, 409.969 862.879, 415.461 891.269 C 417.245 900.492, 418.995 908.328, 419.349 908.682 C 420.353 909.686, 474.358 903.864, 475.644 902.613 C 476.274 902.001, 477.786 896.775, 479.005 891 C 481.732 878.081, 485.553 868.610, 492.509 857.530 C 523.282 808.515, 585.733 768.960, 670.865 744.565 C 701.199 735.873, 723.483 732.051, 744 732.023 C 776.435 731.979, 799.061 742.047, 807.562 760.305 C 811.448 768.651, 810.996 770.681, 803.435 778.847 C 790.777 792.519, 761.497 813.684, 730.726 831.404 C 723.177 835.752, 717 839.709, 717 840.200 C 717 841.184, 744.760 894.105, 745.831 895.160 C 746.585 895.904, 768.850 883.323, 785.500 872.745 C 821.521 849.861, 848.987 826.690, 860.918 809.120 C 866.214 801.322, 871.323 790.330, 873.010 783.104 C 874.606 776.265, 873.774 758.935, 871.420 750 C 862.427 715.868, 835.691 688.810, 798.873 676.582 C 760.084 663.698, 715.078 665.583, 655.727 682.578 C 569.221 707.349, 503.958 744.686, 460.180 794.450 C 456.817 798.272, 453.939 801.197, 453.783 800.950 C 453.627 800.702, 450.800 795.124, 447.500 788.553 C 434.797 763.258, 418.361 741.964, 404.692 733.089 C 401.651 731.115, 398.472 729.050, 397.627 728.500 C 396.386 727.693, 398.633 725.461, 409.295 716.912 C 437.108 694.610, 569.849 591.980, 583.219 582.440 C 584.714 581.373, 585.951 580.017, 585.969 579.426 C 585.999 578.372, 565.203 517.869, 564.604 517.271 C 564.436 517.102, 561.194 517.398, 557.399 517.928 C 516.363 523.654, 472.577 525.026, 446.741 521.395 C 440.680 520.543, 441.327 519.680, 453.057 512.968 C 488.384 492.751, 552.278 469.901, 643.500 444.859 C 676.792 435.719, 732.102 422.005, 764 414.979 C 779.675 411.527, 792.890 408.357, 793.366 407.935 C 794.013 407.362, 804.932 349.112, 804.990 345.925 C 804.995 345.608, 798.362 342.142, 790.250 338.223 C 751.320 319.415, 705.419 309.731, 648.500 308.317 C 622.134 307.662, 595.584 308.989, 575.073 311.988 C 568.158 312.999, 562.417 313.745, 562.317 313.646 C 562.216 313.547, 565.366 311.491, 569.317 309.077 C 585.897 298.947, 623.565 273.501, 637.500 263.018 C 656.485 248.736, 667.970 238.844, 680.093 226.332 C 691.669 214.385, 697.920 206.080, 703.140 195.711 C 708.315 185.432, 710.299 177.398, 710.228 167 C 710.026 137.068, 686.279 115.364, 647.303 109.489 C 635.854 107.764, 606.754 107.519, 590.500 109.012 C 566.181 111.246, 534.009 116.542, 498.669 124.129 C 488.313 126.353, 479.634 127.967, 479.383 127.717 C 479.133 127.466, 480.043 120.126, 481.405 111.405 C 482.768 102.685, 483.772 95.439, 483.637 95.304 C 483.375 95.042, 423.292 85, 421.987 85 C 421.563 85, 420.981 86.013, 420.694 87.250 M 600.601 172.067 C 575.903 173.980, 526.294 182.686, 485.500 192.266 L 471.500 195.554 471.731 231.527 C 471.858 251.312, 472.308 273.036, 472.731 279.802 L 473.500 292.105 499.500 276.768 C 567.701 236.536, 611.852 205.477, 635 181.448 L 642.500 173.662 639.500 172.842 C 634.597 171.501, 613.371 171.078, 600.601 172.067 M 397 213.684 C 391.775 214.915, 377.375 218.226, 365 221.042 C 352.625 223.858, 341.681 226.473, 340.679 226.852 C 339.365 227.351, 348.407 232.297, 373.179 244.630 L 407.500 261.718 407.756 257.609 C 407.897 255.349, 407.672 244.038, 407.256 232.472 L 406.500 211.445 397 213.684 " stroke="none" fill="black" fill-rule="evenodd"/>
</svg>