<svg xmlns="http://www.w3.org/2000/svg" width="1000" height="1000" viewBox="0 0 1000 1000" version="1.1">
	<path d="M 483.746 67.451 C 468.482 70.324, 455.814 72.860, 455.596 73.087 C 455.378 73.314, 456.055 78.450, 457.102 84.500 C 465.034 130.362, 474.984 213.797, 474.991 234.500 L 474.992 240.500 467.811 243.500 C 450.447 250.753, 417.434 270.850, 400.500 284.476 C 365.030 313.016, 335.950 347.439, 315.157 385.500 C 308.154 398.318, 293.466 433.867, 294.674 435.073 C 295.806 436.203, 359.602 459.760, 391.794 470.934 C 414.279 478.739, 429.475 484.762, 453.250 495.293 C 455.863 496.450, 458 497.747, 458 498.174 C 458 499.500, 416.951 540.100, 407.988 547.640 C 403.320 551.566, 391.850 560.074, 382.500 566.546 C 347.424 590.823, 253.719 653.214, 233.327 665.868 C 207.321 682.006, 174.527 703.881, 151.985 720.128 L 135.028 732.348 137.329 735.424 C 138.595 737.116, 146.942 748.746, 155.878 761.270 C 166.438 776.068, 172.542 783.792, 173.313 783.331 C 173.966 782.942, 200.150 765.528, 231.500 744.634 C 292.833 703.757, 317.800 688.736, 361.500 666.419 C 442.637 624.984, 507.836 602.725, 583.500 590.631 C 620.725 584.681, 649.851 582.576, 685 583.296 C 712.091 583.851, 728.245 585.386, 746.500 589.140 C 775.696 595.144, 798.452 606.750, 801.978 617.435 C 804.689 625.648, 796.935 639.260, 783.432 649.990 C 758.212 670.032, 720.524 685.581, 630.500 713.087 C 578 729.128, 538.832 742.101, 519.500 749.853 C 467.083 770.872, 437.071 793.043, 423.867 820.500 C 418.654 831.341, 416 842.289, 416 852.950 C 416 863.340, 417.815 870.986, 422.657 881 C 427.378 890.763, 440.943 904.499, 452.018 910.730 C 473.218 922.658, 504.145 930.249, 547.500 934.163 C 561.730 935.448, 637.394 935.940, 638.578 934.755 C 638.916 934.418, 638.248 921.172, 637.094 905.321 C 635.940 889.469, 634.997 875.307, 634.998 873.850 L 635 871.199 608.750 871.725 C 571.387 872.473, 538.580 870.280, 514 865.391 C 498.669 862.342, 481.600 855.727, 480.296 852.329 C 478.599 847.907, 489.536 836.435, 503.474 828.016 C 528.079 813.154, 553.222 803.770, 641.547 776.485 C 723.078 751.299, 750.828 741.205, 782 725.396 C 838.774 696.604, 866 662.509, 866 620.202 C 866 575.712, 829.802 542.666, 764.971 527.971 C 700.839 513.434, 609.160 517.177, 520.888 537.936 L 504.877 541.701 508.769 537.601 C 556.930 486.866, 635.215 393.574, 661.572 355.507 C 681.691 326.449, 687.399 297.940, 678.446 271.233 C 664.208 228.766, 616.468 208.159, 554 217.515 C 548.775 218.298, 543.107 219.220, 541.403 219.563 L 538.307 220.189 537.105 206.344 C 533.651 166.583, 523.257 87.822, 518.418 64.750 C 517.651 61.094, 517.443 61.110, 483.746 67.451 M 564 280.471 C 559.325 281.160, 552.071 282.493, 547.881 283.433 L 540.261 285.143 539.585 301.821 C 538.050 339.670, 535.505 369.684, 531.428 398 C 530.042 407.625, 528.674 416.625, 528.388 418 L 527.867 420.500 530.184 417.874 C 531.458 416.429, 540.178 406.079, 549.563 394.874 C 584.278 353.421, 609.861 320.090, 615.047 309.555 C 619.061 301.403, 619.870 293.682, 617.160 289.387 C 611.692 280.720, 588.601 276.847, 564 280.471 M 464.011 317.628 C 443.358 330.606, 423.955 346.826, 407.945 364.500 C 400.339 372.896, 381.034 397.719, 381.011 399.133 C 381.005 399.482, 381.788 400.001, 382.750 400.287 C 390.428 402.569, 437.154 419.263, 447.671 423.481 L 460.842 428.765 461.460 426.303 C 463.293 418.999, 466.302 402.944, 467.983 391.500 C 471.582 366.985, 475.562 322.496, 474.846 314.769 L 474.500 311.037 464.011 317.628 " stroke="none" fill="black" fill-rule="evenodd"/>
</svg>