<svg xmlns="http://www.w3.org/2000/svg" width="1000" height="1000" viewBox="0 0 1000 1000" version="1.1">
	<path d="M 775.635 90.683 C 718.075 110.465, 658.200 117.094, 606.183 109.445 C 584.210 106.215, 558.404 98.754, 543.850 91.424 L 537.047 87.999 535.599 90.249 C 506.910 134.841, 502.999 141.508, 504.744 142.832 C 511.131 147.677, 536.864 158.293, 554.500 163.359 C 583.839 171.787, 607.015 175.074, 641.767 175.735 C 686.630 176.589, 723.673 171.950, 767.119 160.037 C 781.578 156.073, 812.177 146.131, 815.193 144.418 C 816.605 143.616, 815.414 139.806, 805.761 114.250 C 797.408 92.137, 794.320 85.028, 793.106 85.116 C 792.223 85.179, 784.361 87.685, 775.635 90.683 M 345.841 94.915 C 330.766 102.375, 304.102 111.692, 279.087 118.240 C 263.515 122.316, 263.479 122.320, 241 122.758 C 210.061 123.360, 181.616 120.576, 140 112.874 C 130.925 111.194, 122.178 109.748, 120.563 109.660 L 117.626 109.500 110.773 139.876 C 107.003 156.583, 104.117 170.451, 104.359 170.693 C 105.042 171.375, 139.931 177.861, 154.963 180.100 C 184.439 184.491, 202.839 186.155, 228 186.706 C 256.157 187.323, 271.192 186.053, 288.732 181.576 L 297.964 179.219 292.900 188.360 C 284.896 202.807, 270.656 232.426, 265.669 245 C 257.895 264.600, 255.848 272.896, 255.261 287.180 C 254.772 299.083, 254.908 300.370, 257.493 308.180 C 261.002 318.784, 266.997 330.719, 277.715 348.438 C 282.394 356.172, 286.438 362.861, 286.702 363.301 C 286.966 363.742, 285.566 363.405, 283.591 362.551 C 281.616 361.698, 278.313 360.266, 276.250 359.370 C 259.072 351.901, 233.712 350.394, 218.839 355.959 C 211.285 358.785, 200.243 366.697, 194.339 373.514 C 160.376 412.728, 141.463 502.066, 135.911 649.500 C 134.601 684.296, 135.230 791.061, 136.963 828 C 138.767 866.457, 140.984 907.214, 141.631 913.834 L 142.251 920.168 151.375 919.554 C 156.394 919.217, 170.327 918.281, 182.337 917.475 C 194.348 916.669, 204.484 915.819, 204.862 915.585 C 205.241 915.351, 204.997 906.237, 204.322 895.330 C 199.556 818.393, 197.510 702.249, 199.899 644.311 C 204.280 538.059, 216.926 461.076, 235.845 425.500 L 240.632 416.500 245.011 416.709 C 259.638 417.406, 279.598 436.969, 292.751 463.500 C 294.932 467.900, 299.079 477.913, 301.967 485.750 C 304.855 493.588, 307.283 500, 307.362 500 C 308.305 500, 361.319 490.003, 361.500 489.791 C 361.637 489.631, 362.706 483.101, 363.875 475.280 C 368.335 445.443, 369.092 403.672, 365.475 387 C 361.408 368.254, 353.684 351.245, 335.370 320.705 C 328.407 309.092, 321.708 297.321, 320.484 294.546 C 318.441 289.911, 318.365 289.092, 319.552 284.500 C 326.521 257.526, 356.900 200.641, 398.321 137 L 412.966 114.500 386.733 101.304 C 372.305 94.046, 360.275 88.118, 360 88.131 C 359.725 88.144, 353.354 91.197, 345.841 94.915 M 690 230.702 C 679.867 231.807, 655.650 236.531, 642 240.065 C 625.160 244.424, 585.104 257.427, 582.670 259.325 C 581.366 260.341, 582.702 264.284, 592.555 288.500 C 598.821 303.900, 604.165 317.050, 604.431 317.721 C 604.784 318.611, 606.758 318.233, 611.708 316.328 C 632.523 308.317, 665.304 299.243, 685.500 295.903 C 700.263 293.461, 720.154 292.956, 726.750 294.854 C 730.889 296.045, 730.999 296.187, 730.978 300.289 C 730.917 311.939, 716.149 329.049, 688.500 349.502 C 652.760 375.940, 588.270 410.083, 537.312 429.544 C 509.539 440.151, 472.308 455.667, 470.188 457.519 C 470.016 457.669, 475.160 470.917, 481.620 486.958 C 493.087 515.434, 493.424 516.110, 495.852 515.501 C 499.716 514.531, 543.608 497.079, 562.496 489.002 C 614.313 466.844, 686.971 445.940, 730.970 440.533 C 754.295 437.666, 779.139 438.918, 787.800 443.397 C 792.540 445.848, 803.163 457.271, 807.598 464.687 C 829.958 502.072, 822.981 551.296, 788.846 596.995 C 781.243 607.173, 765.011 624.227, 756.422 631.062 C 750.266 635.961, 733.343 647, 731.989 647 C 731.601 647, 731.026 641.038, 730.710 633.750 C 730.037 618.196, 728.320 610.769, 722.560 598.500 C 703.241 557.351, 653.117 539.456, 594.079 552.629 C 550.903 562.262, 515.769 586.174, 498.936 617.381 C 480.355 651.829, 485.652 690.224, 512.351 714.628 C 527.409 728.390, 546.280 736.304, 576.356 741.468 L 580.212 742.130 573.295 749.315 C 560.305 762.810, 551.206 778.369, 546.870 794.500 C 543.809 805.887, 543.807 827.099, 546.866 838.500 C 556.626 874.888, 588.287 894.415, 650.500 902.420 C 704.084 909.315, 791.621 905.765, 886.297 892.857 L 902.094 890.703 901.557 888.101 C 901.262 886.671, 898.984 872.705, 896.494 857.067 C 894.005 841.429, 891.789 828.456, 891.570 828.237 C 891.351 828.018, 882.471 829.003, 871.836 830.425 C 807.667 839.007, 754.505 842.593, 705 841.678 C 663.162 840.905, 638.559 837.756, 621.077 830.935 C 609.083 826.256, 608.500 825.578, 608.500 816.305 C 608.500 809.487, 608.869 807.868, 611.422 803.500 C 616.200 795.323, 626.225 785.735, 649.474 767.107 C 661.560 757.423, 675.790 745.337, 681.097 740.250 C 686.403 735.163, 691.287 731, 691.951 731 C 694.572 731, 725.158 720.460, 736 715.820 C 759.138 705.918, 781.078 693.137, 797.032 680.265 C 808.379 671.111, 829.483 648.862, 839.720 635.264 C 858.842 609.862, 871.418 584.323, 878.475 556.561 C 883.081 538.440, 884.397 525.558, 883.710 505.299 C 882.891 481.150, 878.851 464.681, 868.548 443.500 C 857.262 420.298, 837.080 397.614, 819 387.809 C 805.930 380.721, 788.518 376.330, 769.427 375.306 L 758.090 374.699 764.416 367.599 C 774.620 356.149, 780.863 347.169, 786.036 336.500 C 792.340 323.502, 794.014 317, 794.662 303 C 795.656 281.502, 789.916 265.633, 776.227 252.037 C 759.960 235.881, 741.575 229.843, 709.619 230.160 C 700.754 230.248, 691.925 230.492, 690 230.702 M 620 612.648 C 595.785 616.285, 577.535 624.043, 564.418 636.279 C 555.670 644.437, 552 651.024, 552 658.561 C 552 667.418, 557.843 671.963, 574.757 676.264 C 592.322 680.730, 649.398 678.570, 655.315 673.215 C 658.054 670.736, 663.716 658.306, 665.442 650.985 C 667.350 642.888, 667.439 630.963, 665.623 626.718 C 662.679 619.836, 654.573 614.947, 642.994 613.069 C 636.784 612.061, 625.305 611.851, 620 612.648 " stroke="none" fill="black" fill-rule="evenodd"/>
</svg>