<svg xmlns="http://www.w3.org/2000/svg" width="1000" height="1000" viewBox="0 0 1000 1000" version="1.1">
	<path d="M 635.023 97.651 C 618.811 101.759, 605.380 105.287, 605.176 105.491 C 604.972 105.695, 607.078 116.130, 609.856 128.681 C 620.434 176.474, 629.501 229.738, 633.784 269.244 L 634.623 276.989 626.062 283.302 C 605.006 298.827, 578.848 324.051, 565.874 341.340 C 549.372 363.329, 531.964 397.702, 511.998 447.723 L 504.325 466.945 503.198 456.723 C 501.755 443.645, 498.828 432.220, 494.814 424 C 491.085 416.363, 482.502 407.347, 476 404.238 C 460.844 396.990, 440.461 397.237, 423.620 404.873 C 398.776 416.138, 379.311 440.146, 356.044 488.224 C 338.720 524.021, 329.821 545.905, 314.600 590.142 L 306.465 613.783 303.626 609.833 C 294.848 597.622, 282.707 587.477, 269.840 581.602 C 261.110 577.616, 255.233 576.144, 244.281 575.201 L 236.140 574.500 240.639 563.500 C 258.375 520.132, 315.305 418.498, 398.262 282.106 C 412.837 258.143, 415.896 252.485, 414.820 251.487 C 414.094 250.813, 402.250 243.374, 388.500 234.957 C 374.750 226.539, 363.307 219.500, 363.071 219.314 C 362.835 219.128, 363.677 217.575, 364.943 215.864 C 366.208 214.153, 366.851 212.940, 366.371 213.169 C 344.545 223.610, 338.178 226.310, 312.500 236.013 C 285.905 246.063, 256.659 255.892, 246.987 258.031 C 210.783 266.038, 184.518 255.448, 169.446 226.765 C 167.491 223.044, 165.353 220.012, 164.695 220.026 C 164.038 220.040, 150.450 224.050, 134.500 228.937 C 109.339 236.646, 105.545 238.065, 105.843 239.661 C 106.558 243.501, 112.209 255.567, 116.950 263.376 C 146.694 312.377, 197.212 332.994, 258 320.941 C 263.775 319.796, 277.725 315.778, 288.999 312.012 C 300.273 308.246, 309.555 305.240, 309.626 305.332 C 309.696 305.425, 301.245 319.900, 290.846 337.500 C 240.208 423.202, 199.910 496.768, 186.221 528.500 C 163.368 581.474, 136.090 662.592, 106.047 766.918 C 97.757 795.707, 96.212 802, 97.434 802 C 97.672 802, 111.208 805.639, 127.513 810.087 C 143.818 814.535, 157.315 818.019, 157.506 817.828 C 157.696 817.637, 162.129 802.635, 167.355 784.490 C 176.165 753.905, 190.510 706.416, 198.231 682.278 C 201.089 673.343, 202.364 670.975, 208.364 663.457 C 219.477 649.532, 233.675 639.036, 241.434 639.010 C 243.641 639.002, 245.499 640.186, 248.934 643.784 C 258.585 653.895, 267.379 673.930, 274.267 701.500 C 276.466 710.300, 278.372 717.629, 278.502 717.787 C 279.077 718.480, 339.552 721.836, 340.081 721.204 C 340.405 720.817, 341.672 716.900, 342.896 712.500 C 353.531 674.267, 378.873 597.390, 390.663 567.597 C 404.504 532.618, 421.551 497.571, 433.040 480.471 C 441.337 468.122, 441 467.596, 441 492.916 C 441 505.105, 440.534 522.822, 439.964 532.289 C 436.845 584.102, 427.400 666.409, 415.959 741.476 C 413.782 755.764, 412 768.371, 412 769.493 C 412 771.363, 414.534 772.056, 442.579 777.853 C 459.398 781.330, 473.329 784.004, 473.538 783.796 C 473.746 783.588, 477.513 769.936, 481.908 753.459 C 529.072 576.665, 578.502 437.246, 611.833 387 C 618.046 377.633, 636.618 356.285, 637.654 357.320 C 637.876 357.542, 636.629 376.799, 634.884 400.112 C 631.045 451.392, 630.537 482.489, 633.310 496.500 C 639.534 527.940, 645.314 542.405, 669.475 587 C 693.640 631.601, 713.337 673.433, 715.672 685.112 L 716.269 688.094 710.384 685.457 C 647.181 657.136, 590.604 653.644, 546.500 675.343 C 518.135 689.299, 498.048 712.479, 490.906 739.500 C 487.876 750.963, 487.195 770.919, 489.453 782.066 C 493.291 801.007, 500.451 814.423, 514 828.064 C 526.499 840.648, 537.592 847.725, 555.215 854.357 C 580.817 863.992, 616.947 865.711, 650.489 858.889 C 689.241 851.007, 726.774 830.406, 752.041 803.150 L 760.017 794.547 772.598 807.023 C 794.477 828.720, 820.231 860.276, 834.076 882.350 C 837.059 887.106, 839.845 890.997, 840.267 890.998 C 841.277 891.001, 892.120 862.054, 893.794 860.523 C 896.413 858.129, 867.250 816.981, 843.458 789.500 C 831.548 775.743, 806.453 750.621, 794.132 740.120 L 786.764 733.841 786.439 720.670 C 785.449 680.562, 770.847 640.385, 729.497 564 C 710.447 528.810, 703.704 514.649, 700.450 502.996 C 698.915 497.502, 697.915 492.752, 698.227 492.440 C 698.539 492.128, 704.803 492.782, 712.147 493.894 C 772.457 503.019, 817.885 496.406, 850.809 473.708 C 854.829 470.936, 862.029 464.525, 866.809 459.461 C 880.261 445.210, 889.395 428.426, 894.644 408.313 C 898.182 394.757, 899.006 372.700, 896.528 357.869 C 891.641 328.618, 877.850 301.738, 857.058 280.937 C 840.729 264.601, 826.256 256.271, 801 248.673 C 784.310 243.652, 772.710 241.852, 753.267 241.267 C 734.046 240.689, 722.184 241.772, 706.100 245.575 C 700.380 246.927, 695.623 247.914, 695.529 247.767 C 695.435 247.620, 694.565 241.425, 693.597 234 C 687.781 189.420, 668.389 89.851, 665.569 90.091 C 664.981 90.141, 651.236 93.543, 635.023 97.651 M 735.108 305.100 C 725.845 306.116, 714.078 308.837, 706.723 311.664 L 701.946 313.500 701.573 343 C 701.356 360.080, 700.313 383.830, 699.094 399.411 C 697.936 414.212, 697.104 426.428, 697.245 426.557 C 697.957 427.212, 728.984 432.089, 738.886 433.103 C 755.014 434.754, 781.091 433.745, 791.901 431.052 C 804.339 427.952, 812.499 423.679, 819.529 416.585 C 829.581 406.440, 834.434 393.773, 834.312 378 C 834.168 359.351, 826.456 340.912, 812.679 326.278 C 806.013 319.197, 800.367 315.809, 788.241 311.612 C 770.817 305.581, 751.885 303.261, 735.108 305.100 M 592.807 726.499 C 570.390 730.765, 554.561 743.235, 552.136 758.539 C 550.424 769.341, 553.237 778.198, 560.505 784.898 C 566.310 790.249, 573.498 793.736, 584.411 796.495 C 601.020 800.694, 617.126 800.677, 637.655 796.436 C 662.021 791.403, 688.647 777.392, 704 761.523 C 709.422 755.919, 710.140 756.753, 692 747.586 C 673.083 738.026, 656.237 731.923, 637.834 727.963 C 625.237 725.252, 603.136 724.534, 592.807 726.499 " stroke="none" fill="black" fill-rule="evenodd"/>
</svg>