<svg xmlns="http://www.w3.org/2000/svg" width="1000" height="1000" viewBox="0 0 1000 1000" version="1.1">
	<path d="M 232.531 90.302 C 232.330 90.961, 231.887 97.789, 231.546 105.476 C 229.905 142.490, 223.257 188.825, 215.042 220.500 C 204.106 262.665, 193.656 280.375, 140.396 347 C 113.825 380.240, 107.865 388.060, 100.733 399.044 C 88.539 417.825, 84.491 428.979, 84.597 443.500 C 84.718 459.968, 89.902 469.973, 106.607 485.980 C 128.658 507.110, 141.753 520.866, 146.203 527.579 C 157.060 543.953, 164.150 562.343, 168.156 584.519 C 170.330 596.558, 170.495 600.004, 170.435 632 C 170.399 650.975, 169.822 676.175, 169.151 688 C 166.210 739.882, 163.504 777.535, 159.456 822.878 C 158.062 838.486, 157.052 851.356, 157.211 851.478 C 158.205 852.245, 223.412 856.964, 223.963 856.309 C 224.338 855.864, 226.589 848.075, 228.966 839 C 241.037 792.904, 265.551 733.526, 294.070 681.306 C 345.031 587.990, 408.185 511.631, 481.647 454.506 C 497.580 442.117, 510.950 432.617, 511.575 433.242 C 511.828 433.495, 515.583 442.882, 519.919 454.101 C 544.830 518.561, 569.644 571.073, 594.295 611.500 C 643.916 692.878, 736.641 799.789, 838.792 893.403 C 848.302 902.119, 856.215 909.081, 856.376 908.875 C 856.537 908.669, 866.418 897.108, 878.334 883.184 C 890.250 869.261, 900 857.211, 900 856.408 C 900 855.604, 898.668 845.621, 897.041 834.223 C 889.158 779.016, 887.615 750.518, 887.552 658.901 L 887.500 583.301 867.500 582.653 C 856.500 582.297, 842.223 582.004, 835.772 582.003 L 824.045 582 823.772 622.250 C 823.361 683.028, 824.589 753.625, 826.435 775.398 C 827.316 785.792, 827.882 794.452, 827.691 794.643 C 827.272 795.061, 783.014 748.708, 766.448 730.500 C 718.050 677.306, 674.926 621.371, 647.334 576 C 628.088 544.353, 607.062 500.592, 586.795 450 C 580.251 433.665, 567 398.615, 567 397.640 C 567 397.401, 576.012 391.953, 587.026 385.534 C 667.854 338.430, 739.928 305.605, 790.442 292.893 C 799.210 290.686, 806.676 288.700, 807.033 288.479 C 807.632 288.109, 801.506 236.981, 800.545 234.323 C 799.440 231.269, 743.339 199.652, 701.500 178.504 C 593.994 124.163, 531.857 108.790, 494 127.167 C 485.166 131.455, 472.673 144.036, 468.346 153 C 461.469 167.248, 459.188 177.751, 458.356 199 C 456.972 234.331, 466.028 287.308, 483.658 347 C 490.610 370.541, 490.520 370.129, 488.903 371.034 C 488.131 371.466, 480.525 376.650, 472 382.554 C 408.189 426.743, 349.170 485.206, 299.158 553.770 C 280.860 578.855, 254.434 620.437, 241.496 644.500 C 238.835 649.450, 236.170 654.230, 235.575 655.122 C 234.785 656.304, 234.481 648.725, 234.451 627.122 C 234.407 595.111, 233.309 583.178, 228.367 561 C 221.429 529.864, 208.532 502.849, 189.115 478.781 C 185.690 474.535, 175.654 464.102, 166.812 455.595 C 155.029 444.258, 150.905 439.690, 151.367 438.486 C 152.940 434.387, 165.616 417.340, 185.563 392.500 C 231.819 334.898, 251.112 306.723, 262.366 280.342 C 279.401 240.406, 291.999 173.665, 295.592 104.321 L 296.274 91.142 292.887 90.623 C 291.024 90.337, 276.764 89.878, 261.199 89.604 C 239.716 89.224, 232.809 89.393, 232.531 90.302 M 854.531 143.144 C 852.729 148.155, 836 200.549, 836 201.182 C 836 201.616, 838.813 203.381, 842.250 205.104 C 856.249 212.119, 866.642 221.480, 871.535 231.481 C 878.747 246.224, 875.262 279.135, 863.626 306.156 L 862.052 309.812 889.543 324.406 C 904.664 332.433, 917.417 339, 917.884 339 C 920.398 339, 931.612 307.638, 934.930 291.325 C 939.809 267.345, 940.265 239.669, 936.058 223 C 928.237 192.013, 903.427 163.870, 869.500 147.502 C 858.636 142.260, 855.208 141.262, 854.531 143.144 M 523.818 185.250 C 521.742 188.978, 521.540 215.427, 523.464 231.535 C 525.275 246.694, 529.489 269.449, 534.037 288.633 C 536.958 300.951, 545.931 334.244, 546.482 334.809 C 546.648 334.978, 556.170 329.758, 567.642 323.208 C 609.060 299.561, 656.981 275.251, 691.292 260.481 C 699.977 256.742, 706.727 253.340, 706.292 252.920 C 705.856 252.500, 697.625 248.043, 688 243.016 C 623.861 209.518, 574.843 189.932, 541.500 184.480 C 528.591 182.369, 525.343 182.510, 523.818 185.250 " stroke="none" fill="black" fill-rule="evenodd"/>
</svg>