<svg xmlns="http://www.w3.org/2000/svg" width="1000" height="1000" viewBox="0 0 1000 1000" version="1.1">
	<path d="M 348.003 121.049 C 334.529 131.463, 323.376 140.371, 323.218 140.845 C 322.716 142.351, 336.092 154.105, 344.677 159.701 C 387.178 187.404, 447.090 198.204, 540.650 195.025 C 590.420 193.335, 640.887 189.457, 641.731 187.259 C 642.160 186.141, 636.177 126.005, 635.564 125.269 C 635.458 125.142, 625.051 125.905, 612.436 126.964 C 487.206 137.475, 415.966 131.103, 379.143 106.097 C 375.825 103.844, 372.973 102.026, 372.805 102.057 C 372.637 102.089, 361.476 110.635, 348.003 121.049 M 399.490 217.250 C 397.529 222.735, 380 274.870, 380 275.219 C 380 275.466, 382.446 277.352, 385.436 279.411 C 388.425 281.470, 392.835 285.257, 395.234 287.827 C 399.959 292.887, 408.439 304.895, 407.764 305.570 C 407.176 306.158, 358.127 316.928, 329 322.865 C 251.630 338.636, 178.133 349.366, 169.750 346.116 C 167.051 345.069, 167 344.893, 167 336.590 C 167 326.036, 168.847 317.074, 174.406 300.653 L 178.755 287.806 172.627 285.012 C 169.257 283.476, 156.616 277.658, 144.536 272.084 C 132.455 266.511, 122.069 262.143, 121.455 262.379 C 120.013 262.932, 113.810 279.153, 110.004 292.325 C 94.148 347.200, 105.860 387.663, 142.313 403.946 C 150.071 407.412, 156.194 408.925, 167 410.049 C 194.042 412.860, 290.874 397.398, 401.826 372.552 C 413.005 370.048, 422.505 368, 422.938 368 C 426.920 368, 423.225 429.941, 416.437 477 C 413.515 497.252, 407.280 528.842, 403.213 544 L 400.396 554.500 412.889 582.500 C 419.761 597.900, 425.496 610.661, 425.633 610.858 C 425.770 611.055, 435.022 607.604, 446.191 603.190 C 457.361 598.775, 470.204 594.011, 474.732 592.604 C 514.022 580.387, 550.066 576.954, 569.558 583.571 C 579.949 587.099, 585.376 592.982, 590.961 606.771 C 596.243 619.814, 597.508 627.112, 597.413 644 C 597.336 657.746, 597.023 660.519, 594.649 668.500 C 591.598 678.757, 583.568 695.845, 581.410 696.673 C 580.615 696.978, 573.561 695.378, 565.733 693.117 C 509.966 677.011, 443.539 665.378, 388.289 662.040 C 263.475 654.500, 167.706 692.297, 144.773 758.149 C 141.660 767.087, 141.516 768.162, 141.508 782.500 C 141.501 795.527, 141.804 798.407, 143.809 804.393 C 146.994 813.899, 152.013 823.570, 157.123 830.046 C 195.133 878.226, 280.288 891.460, 391.870 866.527 C 452.062 853.078, 504.866 834.224, 544.542 812.016 C 563.868 801.198, 585.320 786.319, 596.235 776.161 L 600.969 771.755 606.735 774.038 C 665.681 797.373, 713.557 824.489, 755.070 858.053 C 761.356 863.135, 773.734 874.584, 782.576 883.495 L 798.652 899.696 823.565 881.383 C 837.266 871.310, 848.602 862.693, 848.755 862.234 C 848.909 861.774, 845.042 856.921, 840.163 851.449 C 797.693 803.816, 733.222 759.387, 659.454 726.920 C 650.253 722.870, 643.121 719.168, 643.370 718.572 C 643.615 717.982, 645.857 712.775, 648.351 707 C 667.348 663.018, 666.181 614.208, 645.130 572.260 C 627.926 537.976, 600.942 520.812, 558.292 517.024 C 537.503 515.177, 509.391 517.924, 482.457 524.436 L 472.775 526.777 473.311 523.638 C 473.606 521.912, 475.020 513.758, 476.453 505.517 C 479.526 487.847, 483.251 459.432, 485.695 435 C 486.962 422.338, 487.454 408.446, 487.473 384.748 L 487.500 351.997 492.500 350.593 C 495.250 349.821, 503.350 347.551, 510.500 345.550 C 517.650 343.548, 535.200 338.082, 549.500 333.404 C 620.399 310.211, 670.146 300.627, 719.500 300.653 C 750.348 300.670, 772.760 303.980, 794.665 311.755 C 805.892 315.740, 813.067 320.307, 820.582 328.252 C 837.969 346.634, 839.461 367.265, 824.594 383.712 C 816.175 393.026, 803.403 400.440, 784.617 406.918 C 754.981 417.137, 713.172 421.943, 666 420.553 C 653.075 420.172, 638.357 419.548, 633.292 419.166 L 624.085 418.472 623.528 423.486 C 622.781 430.210, 619 477.152, 619 479.705 C 619 482.305, 621.683 482.627, 655.031 484.021 C 739.077 487.536, 805.994 474.523, 848.630 446.373 C 866.526 434.558, 883.853 414.332, 891.068 396.835 C 907.869 356.091, 895.836 310.256, 859.622 277.056 C 839.250 258.379, 810.312 246.621, 768 239.828 C 754.869 237.720, 750.291 237.500, 719.500 237.505 C 693.054 237.508, 682.375 237.900, 671.436 239.270 C 626.676 244.873, 587.250 254.161, 532.500 271.998 C 505.855 280.679, 472.181 290.545, 471.554 289.855 C 471.376 289.660, 469.195 285.429, 466.707 280.453 C 453.328 253.696, 432.213 231.240, 409.772 219.904 C 401.388 215.669, 400.168 215.354, 399.490 217.250 M 325.500 726.035 C 270.683 730.888, 226.388 747.525, 210.379 769.272 C 202.809 779.554, 202.540 786.131, 209.400 793.194 C 217.369 801.399, 230.904 807.500, 250.043 811.513 C 265.561 814.767, 296.362 815.959, 316.623 814.089 C 377.688 808.455, 456.351 786.179, 505.500 760.602 C 518.063 754.065, 526.429 749.094, 525.844 748.513 C 525.655 748.325, 518.677 746.569, 510.339 744.611 C 479.749 737.427, 441.544 731.021, 408 727.450 C 390.057 725.539, 340.663 724.692, 325.500 726.035 " stroke="none" fill="black" fill-rule="evenodd"/>
</svg>