<svg xmlns="http://www.w3.org/2000/svg" width="1000" height="1000" viewBox="0 0 1000 1000" version="1.1">
	<path d="M 591 84.618 C 575.325 87.070, 561.999 89.246, 561.386 89.454 C 560.609 89.718, 560.531 91.444, 561.128 95.166 C 566.755 130.253, 585.195 264.049, 584.613 265.566 C 584.048 267.038, 564.306 272.495, 552.500 274.442 C 531.742 277.866, 518.717 278.500, 470.500 278.437 C 444.100 278.402, 414.880 277.847, 405.566 277.204 C 396.253 276.560, 388.544 276.139, 388.436 276.267 C 388.011 276.769, 383.749 339.082, 384.114 339.447 C 385.440 340.773, 435.270 342.415, 474 342.409 C 530.981 342.400, 552.547 340.589, 582.261 333.321 C 588.179 331.873, 593.174 330.871, 593.360 331.094 C 593.767 331.583, 601.033 394.212, 604.485 427 C 608.614 466.211, 612.182 507.084, 611.606 508.584 C 611.307 509.363, 610.238 510, 609.229 510 C 605.655 510, 579.334 516.934, 567.937 520.877 C 501.015 544.034, 445.762 585.918, 429.701 625.664 C 425.198 636.807, 423.693 644.696, 423.627 657.500 C 423.550 672.300, 425.003 680.787, 430.474 697.500 C 444.901 741.573, 481.961 793.512, 543.470 855.857 C 578.603 891.468, 626.633 934.739, 629.715 933.556 C 630.436 933.279, 639.965 926.752, 650.892 919.051 L 670.759 905.049 671.399 896.775 C 672.608 881.121, 674.902 839.457, 675.956 814 C 677.213 783.648, 677.650 776.016, 678.161 775.506 C 678.371 775.295, 686.184 775.760, 695.522 776.539 C 718.718 778.474, 785.497 780.475, 796.288 779.560 C 803.793 778.923, 805.007 778.572, 804.607 777.157 C 804.349 776.246, 803.849 762.900, 803.495 747.500 C 803.142 732.100, 802.631 718.712, 802.359 717.750 C 801.908 716.151, 799.949 715.999, 779.683 715.990 C 748.299 715.977, 698.510 713.586, 683.750 711.384 L 680 710.824 680 673.060 L 680 635.295 685.750 630.756 C 694.323 623.989, 706.544 611.206, 711.629 603.686 C 724.454 584.722, 726.284 564.606, 716.958 545.091 C 711.477 533.621, 700.070 522.099, 688.495 516.343 C 684.093 514.153, 679.554 512.117, 678.410 511.817 C 676.491 511.316, 676.235 510.111, 675.125 496.387 C 673.302 473.841, 669.023 428.850, 668.415 425.830 L 667.876 423.161 677.688 426.133 C 693.141 430.815, 714.340 435.801, 728.500 438.084 C 745.077 440.758, 777.789 441.769, 791.733 440.040 C 837.531 434.359, 870.603 413.113, 887.528 378.500 C 895.891 361.397, 897.449 354.151, 897.417 332.500 C 897.393 316.217, 897.139 313.567, 894.746 304.723 C 889.521 285.406, 878.879 267.010, 864.759 252.883 C 847.909 236.026, 826.241 225.241, 799.500 220.400 C 785.923 217.942, 756.090 217.927, 740 220.370 C 716.447 223.947, 683.014 232.534, 654.254 242.394 L 647.008 244.878 646.555 242.689 C 646.306 241.485, 642.442 214.175, 637.968 182 C 624.186 82.882, 623.805 80.527, 621.494 80.330 C 620.397 80.237, 606.675 82.166, 591 84.618 M 190.554 156.125 C 190.290 156.881, 187.141 184.050, 183.557 216.500 C 155.857 467.268, 147.108 606.003, 154.894 671 C 160.784 720.173, 168.708 769.324, 178.108 815 C 181.718 832.544, 194.975 889.023, 195.875 890.695 C 196.311 891.506, 206.492 886.669, 227.505 875.666 L 258.491 859.441 259.835 852.970 C 263.945 833.182, 278.606 767.363, 283.008 748.937 C 295.372 697.185, 300.733 682.105, 335.404 601.546 C 340.127 590.571, 343.656 581.284, 343.246 580.909 C 342.248 579.996, 287.422 556, 286.334 556 C 285.379 556, 261.458 611.673, 249.131 642.583 C 238.801 668.488, 234.178 682.027, 229.410 700.343 C 224.893 717.692, 225.283 718.206, 221.582 690 C 214.493 635.969, 214.090 602.474, 219.518 518.500 C 224.817 436.515, 237.290 305.433, 250.919 188.500 C 252.521 174.750, 253.533 163.218, 253.166 162.872 C 252.800 162.527, 240.350 160.810, 225.500 159.057 C 210.650 157.303, 196.820 155.617, 194.767 155.309 C 192.106 154.910, 190.895 155.145, 190.554 156.125 M 755.500 282.605 C 742.211 284.518, 731.463 286.579, 719.464 289.517 C 705.013 293.054, 656.445 308.467, 655.646 309.769 C 655.399 310.171, 656.490 321.030, 658.070 333.901 C 659.651 346.772, 661.886 365.897, 663.037 376.401 C 664.189 386.905, 665.439 396.512, 665.815 397.749 C 666.332 399.445, 668.193 395.074, 673.394 379.947 C 677.547 367.870, 680.730 360.066, 681.399 360.323 C 687.541 362.680, 705.205 367.813, 716.500 370.524 C 757.270 380.308, 788.913 379.897, 810.720 369.300 C 827.880 360.961, 836.553 345.033, 833.948 326.639 C 830.956 305.511, 816.846 290.411, 794.500 284.422 C 788.651 282.855, 762.296 281.627, 755.500 282.605 M 607 575.583 C 555.481 589.178, 501.030 623.060, 489.197 648.885 C 487.023 653.631, 486.803 655.146, 487.352 661.630 C 489.504 687.099, 513.448 727.353, 554.769 774.971 C 567.926 790.134, 610.027 833.307, 610.851 832.482 C 611.406 831.927, 613.841 783.815, 613.942 771.398 L 614 764.297 607.250 762.504 C 557.299 749.236, 530.214 722.419, 532.243 688.238 C 533.805 661.904, 549.891 643.814, 600.079 611.950 L 616 601.842 616 587.921 C 616 572.119, 616.666 573.032, 607 575.583 M 607.371 684.031 C 603.042 687.347, 599.367 690.447, 599.204 690.918 C 598.916 691.752, 612.792 698, 614.930 698 C 615.619 698, 616 694.433, 616 688 C 616 682.500, 615.830 678, 615.621 678 C 615.413 678, 611.701 680.714, 607.371 684.031 " stroke="none" fill="black" fill-rule="evenodd"/>
</svg>