<svg xmlns="http://www.w3.org/2000/svg" width="1000" height="1000" viewBox="0 0 1000 1000" version="1.1">
	<path d="M 535 85.694 C 455.637 90.366, 355.163 109.950, 250.629 141.120 C 225.947 148.480, 191 159.932, 191 160.660 C 191 161.775, 211.361 218.538, 212.046 219.332 C 212.440 219.789, 219.575 217.884, 227.900 215.098 C 316.090 185.590, 419.836 161.720, 497.500 153.069 C 538.845 148.464, 585.014 147.428, 613.500 150.467 C 663.339 155.784, 701.972 170.672, 726.353 193.956 C 735.967 203.138, 741.801 211.139, 746.915 222.156 C 752.258 233.664, 754.272 243.121, 754.230 256.500 C 754.135 286.439, 740.869 313.981, 713 342.097 C 694.496 360.765, 674.740 374.623, 653.938 383.526 C 649.475 385.437, 645.638 387, 645.411 387 C 645.185 387, 644.998 383.288, 644.996 378.750 C 644.990 366.338, 643.089 343.456, 641.367 335.061 C 637.491 316.166, 629.886 301.710, 617.088 288.910 C 607.146 278.966, 598.174 273.357, 585.351 269.071 C 573.813 265.214, 565.996 264.017, 552.285 264.008 C 505.533 263.976, 459.186 293.198, 447.545 330.046 C 438.816 357.679, 448.219 386.251, 474.610 412.283 C 498.341 435.691, 537.042 453.712, 571.887 457.580 L 578.274 458.289 577.657 466.291 C 577.318 470.692, 576.833 474.500, 576.580 474.753 C 576.328 475.006, 572.422 474.715, 567.901 474.106 C 506.042 465.781, 438.573 501.812, 420.954 552.581 C 414.220 571.988, 414.255 595.209, 421.050 615 C 425.677 628.478, 436.403 647.185, 446.257 658.968 L 450.831 664.435 433.989 673.120 C 355.114 713.793, 314.711 746.921, 299.025 783.783 C 288.422 808.699, 289.197 834.854, 301.123 854.565 C 304.903 860.813, 314.970 871.179, 322.518 876.597 C 337.442 887.309, 362.096 895.990, 391.500 900.885 C 419.763 905.591, 444.119 907.161, 488.500 907.135 C 552.226 907.098, 614.466 902.613, 699.500 891.931 C 729.550 888.156, 770.085 882.249, 770.793 881.541 C 771.316 881.018, 761.482 820.149, 760.757 819.424 C 760.555 819.221, 749.667 820.625, 736.562 822.543 C 557.407 848.765, 411.075 850.657, 364.500 827.352 C 356.589 823.394, 354.721 821.210, 355.328 816.632 C 356.303 809.281, 361.708 800.381, 371.273 790.376 C 390.621 770.138, 417.961 752.757, 480.786 720.755 L 514.072 703.800 521.786 705.866 C 544.982 712.079, 570.123 713.472, 596.500 710.006 C 605.850 708.777, 613.576 707.710, 613.668 707.635 C 613.761 707.559, 614.785 698.048, 615.944 686.499 C 617.104 674.949, 618.892 660.100, 619.918 653.501 L 621.783 641.502 627.808 636.001 C 647.737 617.804, 656.704 600.841, 657.733 579.388 C 658.761 557.979, 653.114 536.216, 641.942 518.526 L 637.728 511.854 639.431 493.232 C 640.368 482.990, 641.394 470.024, 641.711 464.418 L 642.289 454.227 650.894 451.998 C 688.361 442.293, 729.249 417.186, 761.005 384.384 C 789.511 354.940, 807.267 323.169, 815.196 287.417 C 818.195 273.896, 818.471 241.006, 815.694 228.125 C 809.521 199.493, 797.089 175.807, 777.324 155.020 C 760.296 137.111, 743.087 124.716, 719.515 113.381 C 688.833 98.626, 651.268 89.331, 609.050 86.046 C 596.947 85.105, 548.891 84.876, 535 85.694 M 545.536 328.102 C 537.749 329.250, 530.888 331.516, 523.581 335.351 C 516.787 338.918, 507.996 347.010, 508.009 349.685 C 508.042 355.930, 522.309 371.542, 534.673 378.860 C 547.352 386.366, 569.340 394, 578.278 394 L 581.299 394 580.726 373.750 C 579.958 346.636, 578.053 338.588, 570.998 332.652 C 565.992 328.440, 555.710 326.602, 545.536 328.102 M 531.624 538.638 C 515.937 542.002, 502.366 548.860, 491.945 558.691 C 484.462 565.750, 480.537 572.486, 479.463 580.113 C 478.174 589.273, 483.665 603.219, 493.694 616.252 C 498.246 622.168, 510.415 633, 512.509 633 C 513.915 633, 534.853 621.944, 549.828 613.296 C 556.228 609.599, 561.551 605.828, 562.065 604.627 C 562.803 602.899, 568.970 556.130, 570.182 543.066 C 570.492 539.714, 570.382 539.602, 565.500 538.336 C 558.895 536.622, 540.247 536.788, 531.624 538.638 " stroke="none" fill="black" fill-rule="evenodd"/>
</svg>