<svg xmlns="http://www.w3.org/2000/svg" width="1000" height="1000" viewBox="0 0 1000 1000" version="1.1">
	<path d="M 272 103.831 C 266.775 106.411, 254.297 112.457, 244.271 117.268 L 226.043 126.015 230.606 133.758 C 238.133 146.531, 245.593 155.828, 258.885 169.004 C 280.038 189.972, 302.977 203.718, 335.721 215.048 C 346.902 218.918, 369.682 225, 372.991 225 C 374.239 225, 375.438 219.260, 379.309 194.750 C 381.937 178.113, 384.068 164.029, 384.044 163.454 C 384.020 162.878, 380.512 161.611, 376.250 160.638 C 355.397 155.877, 329.282 144.549, 315.500 134.286 C 305.858 127.105, 295.260 116.067, 288.573 106.240 C 285.864 102.258, 283.164 99.032, 282.573 99.070 C 281.983 99.109, 277.225 101.251, 272 103.831 M 672.500 197.554 C 631.448 205.311, 583.419 235.207, 517 294.346 C 499.446 309.976, 431.070 378.402, 409.925 401.500 C 389.055 424.296, 371.181 444.218, 353.622 464.250 C 346.029 472.913, 339.696 480, 339.547 480 C 339.399 480, 339.431 478.988, 339.619 477.750 C 339.807 476.512, 341.343 464.700, 343.033 451.500 C 346.648 423.265, 351.898 386.797, 356.020 361.296 L 358.962 343.093 349.290 322.296 C 343.970 310.858, 339.552 301.386, 339.471 301.246 C 339.391 301.106, 331.264 303.664, 321.413 306.929 C 302.900 313.066, 290.927 316.017, 263.500 321.204 C 231.822 327.196, 201.407 326.178, 151 317.439 L 147.500 316.832 140.726 347.559 C 137.001 364.459, 134.126 378.459, 134.337 378.671 C 135.111 379.445, 155.065 382.975, 169.585 384.907 C 209.306 390.191, 238.442 390.213, 268.830 384.982 C 278.911 383.246, 287.370 382.037, 287.628 382.295 C 287.887 382.553, 286.516 393.955, 284.582 407.632 C 277.846 455.273, 272.450 500.454, 268.488 542.372 C 267.143 556.601, 265.649 568.751, 265.168 569.372 C 264.206 570.611, 249.928 588.310, 249.485 588.812 C 249.333 588.984, 249.193 583.359, 249.173 576.312 C 249.057 536.186, 232.177 493.158, 204.380 462.135 L 200.469 457.771 184.935 473.635 C 176.392 482.361, 166.430 492.650, 162.797 496.500 L 156.193 503.500 162.563 511.948 C 178.478 533.058, 187.417 561.442, 185.567 584.999 C 182.668 621.914, 155.514 687.575, 114.323 757.276 C 109.195 765.952, 105.012 773.377, 105.026 773.776 C 105.057 774.625, 156.617 810.383, 158.335 810.746 C 158.976 810.882, 161.300 808.440, 163.500 805.320 C 172.245 792.918, 219.751 729.815, 240.500 703.041 L 262.500 674.653 263.244 708.076 C 263.653 726.459, 263.878 748.560, 263.744 757.188 L 263.500 772.876 257.500 765.719 C 250.430 757.285, 232.043 738, 231.073 738 C 230.308 738, 188.685 781.809, 188.159 783.167 C 187.971 783.651, 191.662 788.086, 196.360 793.023 C 207.936 805.188, 228.568 830.074, 239.382 844.915 C 246.671 854.918, 268.871 890.414, 270.343 894.418 C 270.722 895.449, 277.536 892.137, 311.660 874.335 L 325.820 866.948 326.547 861.724 C 326.947 858.851, 327.114 816, 326.918 766.500 C 326.418 640.136, 326.465 624.437, 327.394 607.675 L 328.215 592.849 348.795 568.175 C 410.556 494.123, 456.319 443.534, 510.930 388.944 C 547.707 352.180, 569.744 331.935, 595.160 311.564 C 633.635 280.725, 666.543 262.088, 685.675 260.301 C 695.517 259.382, 699.345 261.891, 704.979 272.952 C 716.613 295.792, 719.023 341.188, 711.936 404 C 707.368 444.497, 701.975 477.534, 684.540 571.829 C 662.311 692.060, 657.018 730.958, 657.006 774.199 C 656.995 810.829, 662.733 836.107, 674.911 853.078 C 686.875 869.749, 703.727 881.505, 722.985 886.610 C 730.269 888.541, 747.565 888.521, 757.002 886.570 C 798.340 878.025, 846.107 835.126, 893.965 763.564 C 899.091 755.899, 903.465 748.924, 903.686 748.064 C 903.978 746.928, 896.886 742.190, 877.770 730.750 C 863.296 722.088, 851.012 715, 850.474 715 C 849.935 715, 847.744 717.813, 845.604 721.250 C 843.464 724.688, 837.431 733.542, 832.198 740.926 C 803.906 780.847, 774.725 810.433, 753.613 820.601 C 741.111 826.623, 735.968 826.135, 728.842 818.247 C 718.406 806.696, 717.792 765.952, 727.058 700 C 730.192 677.695, 736.004 644.238, 748.512 576.500 C 760.982 508.962, 767.517 470.668, 771.465 442 C 783.778 352.574, 782.374 295.388, 766.882 255.408 C 755.545 226.148, 735.569 205.994, 710.984 199.011 C 700.976 196.168, 683.363 195.501, 672.500 197.554 " stroke="none" fill="black" fill-rule="evenodd"/>
</svg>