<svg xmlns="http://www.w3.org/2000/svg" width="1000" height="1000" viewBox="0 0 1000 1000" version="1.1">
	<path d="M 309.651 85.544 C 293.784 87.921, 280.701 90.008, 280.577 90.183 C 280.454 90.357, 281.830 101.075, 283.636 114 C 290.268 161.483, 304 272.918, 304 279.258 L 304 281.676 294.853 280.322 C 269.352 276.547, 235.103 264.148, 218.735 252.766 C 217.215 251.708, 215.571 250.991, 215.083 251.172 C 214.595 251.352, 208.231 259.600, 200.941 269.500 C 193.650 279.400, 185.293 290.742, 182.369 294.705 L 177.052 301.911 186.276 307.631 C 218.631 327.693, 262.891 342.045, 303.250 345.560 C 310.280 346.172, 311.001 346.433, 311.007 348.367 C 311.011 349.540, 311.708 359.500, 312.555 370.500 C 313.402 381.500, 314.464 403.775, 314.915 420 L 315.734 449.500 284.117 481.500 C 266.728 499.100, 242.375 524.005, 230 536.845 L 207.500 560.189 200.190 552.345 C 182.994 533.892, 177.984 521.491, 176.214 493 L 175.500 481.500 143.750 481.236 L 112 480.972 112 488.242 C 112 498.804, 114.661 519.965, 117.440 531.500 C 124.524 560.907, 133.263 574.905, 164.500 606.876 C 178.908 621.622, 182.092 624.316, 196.500 633.942 C 205.300 639.822, 213.014 644.937, 213.642 645.309 C 214.323 645.712, 220.782 639.501, 229.642 629.922 L 244.500 613.860 250.788 620.680 C 270.288 641.831, 277.089 652.362, 306.369 706.747 C 317.623 727.651, 320.907 732.993, 322.500 732.986 C 325.816 732.972, 387.130 723.204, 387.742 722.591 C 388.054 722.279, 387.785 710.206, 387.144 695.762 C 384.501 636.213, 381.559 552.930, 380.387 504.479 L 379.709 476.459 402.105 454.885 C 498.215 362.302, 581.563 291.676, 643.500 250.336 C 681.306 225.102, 715.706 209, 731.809 209 C 735.453 209, 736.154 209.445, 739.289 213.750 C 747.134 224.521, 749.712 233.782, 747.945 244.842 C 742.969 275.992, 702.593 318.578, 645.841 352.533 L 628.182 363.099 635.125 383.799 C 643.503 408.778, 656.276 451.671, 655.780 453.159 C 655.584 453.748, 648.465 456.243, 639.962 458.702 C 585.239 474.529, 540.040 497.254, 507.386 525.359 C 478.383 550.322, 465.878 571.732, 467.294 594 C 467.979 604.756, 470.887 613.169, 477.169 622.561 C 489.309 640.711, 508.015 652.546, 564 677.496 C 577.475 683.501, 608.958 698.652, 633.962 711.164 L 679.424 733.913 700.249 721.206 L 721.075 708.500 724.518 697.500 C 733.330 669.341, 738.173 624.573, 738.364 569.500 C 738.470 538.964, 737.386 524.094, 733.891 508.117 C 733.364 505.707, 733.160 503.507, 733.439 503.228 C 734.915 501.752, 777.843 496.033, 806 493.561 C 830.061 491.449, 857.824 490.001, 874.281 490.001 C 884.415 490, 888.174 489.669, 888.483 488.750 C 888.714 488.063, 889.037 473.662, 889.202 456.750 L 889.500 425.999 877.397 426 C 842.191 426.001, 785.371 430.546, 744 436.670 C 734.375 438.095, 724.756 439.315, 722.624 439.381 L 718.748 439.500 716.336 431 C 715.009 426.325, 711.888 415.608, 709.400 407.184 C 706.913 398.760, 705.018 391.517, 705.189 391.089 C 705.360 390.661, 710.450 386.567, 716.500 381.993 C 748.200 358.021, 772.110 333.851, 788.727 308.979 C 799.693 292.566, 808.369 271.486, 811.033 254.785 C 812.967 242.659, 811.832 222.529, 808.603 211.701 C 801.934 189.329, 786.638 166.896, 770.934 156.456 C 756.607 146.932, 739.285 143.468, 719.855 146.244 C 700.647 148.987, 687.019 153.560, 662.500 165.491 C 616.293 187.976, 549.325 236.512, 475.111 301.306 C 468.297 307.255, 462.382 311.757, 461.965 311.311 C 461.549 310.865, 455.056 299.025, 447.536 285 C 440.016 270.975, 433.473 259.101, 432.995 258.613 C 432.493 258.101, 428.194 259.449, 422.813 261.805 C 411.173 266.902, 398.842 271.044, 383.652 274.961 C 371.015 278.219, 368 278.603, 368 276.952 C 368 271.259, 353.412 152.857, 346.845 105.250 L 343.500 81.001 341 81.112 C 339.625 81.173, 325.518 83.167, 309.651 85.544 M 448.500 320.178 C 430.589 328.139, 395.720 338.717, 378.181 341.511 C 375.470 341.943, 374.031 342.639, 374.316 343.381 C 374.566 344.032, 375.317 353.549, 375.986 364.532 C 376.656 375.514, 377.504 385.541, 377.873 386.813 C 378.486 388.931, 380.067 387.703, 396.555 372.306 C 410.109 359.650, 454.718 318.964, 457.917 316.342 C 458.718 315.684, 457.432 316.208, 448.500 320.178 M 667 517.198 C 657.240 519.698, 632.906 527.813, 620.500 532.705 C 585.965 546.321, 559.304 562.584, 540.654 581.410 L 532.729 589.410 536.114 592.252 C 540.488 595.922, 561.702 606.679, 584.500 616.788 C 602.701 624.858, 640.674 642.803, 658.848 651.924 L 668.743 656.889 669.398 652.195 C 675.067 611.571, 676.523 553.328, 672.516 527.500 C 671.577 521.450, 670.740 516.455, 670.655 516.401 C 670.570 516.346, 668.925 516.705, 667 517.198 M 302.629 553.490 L 288.864 567.981 298.202 578.240 C 303.337 583.883, 310.201 591.754, 313.454 595.732 C 316.707 599.710, 319.401 602.860, 319.439 602.732 C 319.866 601.302, 317.530 539, 317.049 539 C 316.688 539, 310.199 545.521, 302.629 553.490 M 186.077 729.488 C 179.331 751.326, 179.570 783.384, 186.641 805.500 C 192.977 825.313, 205.757 845.262, 221.219 859.473 C 235.561 872.655, 258.255 885.996, 280 894.030 C 298.551 900.884, 332.685 908.268, 360.949 911.541 C 391.873 915.123, 411.589 916.176, 457.588 916.706 C 527.499 917.511, 584.185 914.913, 670.500 906.947 C 721.466 902.243, 810.833 891.500, 812.451 889.883 C 813.043 889.290, 803.943 828.678, 803.136 827.840 C 802.786 827.476, 800.025 827.587, 797 828.086 C 786.473 829.823, 719.338 837.969, 695 840.463 C 607.192 849.461, 542.845 853.182, 475 853.184 C 431.308 853.185, 408.743 852.296, 380 849.442 C 297.670 841.266, 256.351 820.553, 246.539 782.540 C 244.651 775.228, 244.567 759.765, 246.368 751.167 C 247.650 745.048, 247.625 744.808, 245.598 744.059 C 244.444 743.632, 231.320 738.719, 216.434 733.141 C 201.548 727.564, 189.078 723, 188.724 723 C 188.370 723, 187.179 725.919, 186.077 729.488 " stroke="none" fill="black" fill-rule="evenodd"/>
</svg>