<svg xmlns="http://www.w3.org/2000/svg" width="1000" height="1000" viewBox="0 0 1000 1000" version="1.1">
	<path d="M 399.678 94.509 C 389.955 108.540, 382 120.366, 382 120.790 C 382 123.019, 422.786 146.612, 446.481 158.089 C 482.950 175.754, 510.252 183.882, 550 188.907 C 575.802 192.169, 629.210 195.132, 630.252 193.359 C 630.530 192.887, 630.524 178.505, 630.239 161.401 L 629.722 130.301 609.611 129.611 C 570.834 128.279, 538.833 124.102, 516 117.393 C 490.792 109.986, 458.847 94.584, 426.892 74.429 C 422.157 71.443, 418.075 69, 417.820 69 C 417.565 69, 409.401 80.479, 399.678 94.509 M 698 238.609 C 638.127 246.613, 550.598 280.090, 465.237 327.633 C 457.682 331.842, 429.225 348.659, 402 365.005 C 336.262 404.474, 324.439 411.216, 298.500 424.019 C 275.430 435.407, 259.506 441.463, 249.590 442.622 L 243.680 443.313 244.324 435.690 C 246.077 414.961, 255.603 385.558, 271.119 352.988 C 274.527 345.835, 277.132 339.837, 276.908 339.660 C 276.683 339.484, 267.725 334.705, 257 329.041 C 246.275 323.377, 233.807 316.750, 229.293 314.314 L 221.087 309.885 217.952 316.096 C 212.408 327.078, 202.082 350.939, 196.969 364.583 C 178.654 413.456, 175.802 449.281, 188.193 474.842 C 192.861 484.473, 204.372 495.851, 214.142 500.490 C 240.824 513.162, 272.791 507.847, 325.500 481.975 C 350.604 469.652, 366.351 460.698, 429.944 422.582 C 491.224 385.851, 505.357 377.835, 534.962 363.019 C 587.609 336.670, 634.763 318.142, 674.500 308.189 C 712.142 298.761, 742.560 298.042, 754.765 306.293 C 758.728 308.972, 762 315.318, 762 320.327 C 762 338.638, 725.039 368.236, 671.296 392.961 C 654.205 400.824, 623.726 413.005, 607.250 418.558 C 601.063 420.643, 595.995 422.833, 595.989 423.425 C 595.978 424.574, 613.138 482.196, 613.716 482.946 C 614.631 484.135, 654.654 469.636, 678.991 459.298 C 779.037 416.803, 829.190 367.650, 825.663 315.549 C 823.334 281.148, 799.824 252.040, 766.348 242.112 C 748.768 236.899, 721.321 235.492, 698 238.609 M 484.503 486.250 C 482.567 494.392, 472.004 543.711, 472.002 544.620 C 472.001 545.237, 475.488 546.977, 479.750 548.487 C 489.883 552.079, 498.068 556.221, 505.634 561.586 C 515.732 568.747, 520.533 575.855, 522.072 585.926 C 523.088 592.570, 525.346 704.178, 524.553 708.500 L 524.002 711.500 485.751 711.500 C 444.680 711.500, 432.476 712.335, 411 716.615 C 379.644 722.864, 359.118 733.939, 347.053 751.118 C 332.813 771.396, 332.495 794.683, 346.145 817.719 C 350.884 825.717, 368.568 843.172, 381.268 852.388 C 410.639 873.701, 460.682 899.567, 516.886 922.484 C 535.930 930.249, 584.121 948.212, 584.607 947.726 C 584.793 947.540, 585.425 919.063, 586.011 884.444 C 587.521 795.227, 587.894 785, 589.642 785 C 592.153 785, 659.545 798.655, 688.394 805.009 C 708.178 809.366, 716.491 810.823, 716.988 810.019 C 718.051 808.300, 731.339 750.005, 730.792 749.459 C 729.171 747.838, 594.582 720, 588.364 720 C 588.164 720, 587.996 698.513, 587.990 672.250 C 587.980 619.711, 586.781 585.739, 584.468 572.478 C 578.940 540.777, 555.657 513.344, 519.564 496.004 C 509.962 491.391, 489.607 484, 486.504 484 C 485.698 484, 484.797 485.012, 484.503 486.250 M 466 775.126 C 444.365 775.755, 432.996 776.881, 421 779.583 C 412.201 781.564, 402 784.985, 402 785.954 C 402 788.273, 418.530 801.273, 433.712 810.896 C 451.282 822.031, 489.476 841.574, 515.135 852.558 L 522.770 855.826 523.482 819.663 C 523.873 799.773, 524.038 781.700, 523.847 779.500 L 523.500 775.500 505.500 775 C 495.600 774.725, 477.825 774.782, 466 775.126 " stroke="none" fill="black" fill-rule="evenodd"/>
</svg>