<svg xmlns="http://www.w3.org/2000/svg" width="1000" height="1000" viewBox="0 0 1000 1000" version="1.1">
	<path d="M 366 133.226 C 350.325 139.874, 337.357 145.424, 337.181 145.559 C 337.006 145.694, 339.091 151.811, 341.814 159.152 C 358.232 203.411, 372.052 255.827, 380.398 305.500 C 382.898 320.382, 387.192 352.222, 386.737 352.508 C 386.607 352.590, 381.550 354.384, 375.500 356.495 C 292.872 385.329, 211.766 440.234, 158.695 503.263 C 155.563 506.983, 153 510.434, 153 510.931 C 153 511.428, 164.302 520.237, 178.115 530.506 L 203.230 549.177 206.365 545.343 C 212.990 537.240, 225.672 524.046, 237.344 513.115 C 269.626 482.880, 306.396 457.643, 347.500 437.510 C 365.870 428.512, 389.720 418.386, 390.561 419.228 C 391.180 419.847, 389.198 463.060, 388.027 474.500 C 384.394 509.967, 378.202 540.135, 368.371 570.267 C 339.027 660.197, 271.467 743.755, 193.404 786.664 C 186.167 790.641, 186.916 791.411, 184.497 777.500 C 181.487 760.196, 180.521 737.615, 181.851 715.653 C 182.522 704.569, 183.720 690.775, 184.514 685 C 185.307 679.225, 186.241 672.246, 186.588 669.490 L 187.219 664.480 156.359 658.359 C 139.387 654.992, 125.376 652.345, 125.225 652.477 C 124.644 652.984, 122.016 670.080, 120.532 683 C 114.312 737.164, 117.521 782.422, 130.670 826 C 134.165 837.584, 150.891 877.952, 152.208 877.983 C 154.177 878.030, 230.011 839.424, 239.500 833.545 C 324.990 780.577, 395.539 690.587, 427.899 593.230 C 445.119 541.420, 452.648 494.564, 453.877 431.552 L 454.500 399.603 477.500 393.831 C 539.671 378.228, 579.816 371.328, 614 370.372 C 637.683 369.709, 650.150 371.104, 662.176 375.762 L 669.500 378.598 669.236 385.549 C 668.538 403.898, 662.497 426.890, 638.508 502.500 C 608.293 597.733, 598.722 634.937, 593.029 679.276 C 580.140 779.654, 612.785 837.887, 693.500 858.502 C 733.366 868.685, 782.637 869.323, 842.312 860.430 C 861.783 857.528, 888.078 852.278, 889.342 851.041 C 890.095 850.303, 875.865 791.531, 874.635 790.302 C 874.358 790.025, 867.239 791.167, 858.816 792.841 C 762.125 812.048, 685.435 803.057, 665.180 770.139 C 661.490 764.141, 657.716 753.729, 655.887 744.500 C 653.870 734.323, 654.129 700.831, 656.343 685.500 C 662.012 646.244, 672.557 605.551, 696.510 530.500 C 718.100 462.854, 725.246 437.921, 730.187 413 C 732.058 403.563, 732.470 398.182, 732.484 383 C 732.498 366.247, 732.279 363.839, 730.163 357.500 C 724.625 340.916, 714.645 330.369, 695.283 320.636 C 651.451 298.603, 583.236 301.577, 467.790 330.555 C 458.050 333, 449.880 335, 449.634 335 C 449.389 335, 448.888 332.637, 448.522 329.750 C 440.569 267.026, 423.109 195.010, 402.215 138.750 C 398.589 128.988, 395.370 121.031, 395.061 121.069 C 394.753 121.108, 381.675 126.578, 366 133.226 " stroke="none" fill="black" fill-rule="evenodd"/>
</svg>