<svg xmlns="http://www.w3.org/2000/svg" width="1000" height="1000" viewBox="0 0 1000 1000" version="1.1">
	<path d="M 804.500 99.107 C 763.156 113.221, 686.865 120.433, 645.438 114.144 C 629.704 111.756, 610.187 106.678, 599.239 102.124 L 591.978 99.104 590.603 101.302 C 585.753 109.054, 561 152.870, 561 153.703 C 561 155.150, 575.506 161.613, 588.812 166.095 C 630.638 180.183, 678.008 183.694, 736.500 177.043 C 745.300 176.043, 752.644 175.356, 752.821 175.516 C 752.997 175.677, 712.242 229.289, 662.254 294.654 C 612.265 360.019, 571.052 414.030, 570.668 414.678 C 570.229 415.420, 579.104 423.669, 594.599 436.923 L 619.226 457.989 627.863 451.295 C 632.613 447.613, 638.975 442.602, 642 440.160 C 648.864 434.620, 678.796 414.848, 689.500 408.784 C 711.757 396.174, 735.089 386.114, 753.031 381.389 C 761.659 379.117, 765.698 378.621, 776 378.566 C 787.725 378.504, 788.852 378.673, 794.182 381.290 C 803.206 385.722, 808.474 393.048, 812.856 407.257 C 823.126 440.565, 810.693 477.951, 774.200 523.500 C 761.465 539.395, 720.022 580.756, 692 605.538 C 679.625 616.482, 662.975 631.320, 655 638.512 C 647.025 645.705, 632.850 658.259, 623.500 666.410 C 559.076 722.577, 535.816 750.568, 527.445 782 C 525.317 789.990, 525.017 806.386, 526.859 814 C 530.424 828.733, 541.557 844.518, 555.286 854.306 C 599.164 885.586, 699.098 896.850, 809.500 882.958 C 838.356 879.328, 895.124 869.210, 896.964 867.370 C 897.501 866.833, 883.009 808.675, 881.873 806.810 C 881.459 806.129, 878.065 806.492, 871.873 807.877 C 858.792 810.805, 832.126 815.550, 815.500 817.910 C 731.176 829.875, 652.090 826.666, 605.896 809.404 C 598.360 806.589, 590.211 801.714, 589.368 799.518 C 588.471 797.178, 594.151 786.221, 600.523 778 C 613.509 761.245, 628.705 746.369, 666.500 713.413 C 675.850 705.260, 690.025 692.705, 698 685.512 C 705.975 678.320, 722.400 663.623, 734.500 652.852 C 791.914 601.743, 820.962 570.708, 844.116 535.738 C 863.609 506.298, 875.360 477.277, 879.067 449.424 C 880.571 438.119, 879.711 412.100, 877.499 402 C 868.841 362.475, 847.655 334.353, 817 321.697 C 801.594 315.337, 784.239 313.047, 765.052 314.844 C 753.025 315.971, 733.726 320.015, 724.250 323.395 C 721.913 324.229, 720 324.694, 720 324.428 C 720 324.162, 752.897 280.933, 793.105 228.363 C 853.574 149.301, 865.975 132.562, 864.855 131.515 C 862.673 129.476, 820.530 95.439, 819.467 94.857 C 818.935 94.566, 812.200 96.479, 804.500 99.107 M 406.500 154.168 C 334.701 194.816, 273.306 211.338, 235 200.323 C 215.550 194.729, 199.894 179.986, 192.443 160.247 C 190.730 155.709, 189.105 151.772, 188.832 151.499 C 188.408 151.074, 134.520 159.096, 128.322 160.506 L 126.145 161.002 128.487 169.751 C 134.542 192.364, 145.210 211.042, 161.963 228.358 C 189.513 256.836, 226.760 269.644, 273.923 266.858 C 292.735 265.748, 313.129 261.832, 338.862 254.391 C 340.788 253.834, 339.201 256.739, 330.280 270.104 C 293.384 325.379, 267.930 369.033, 242.004 421.500 C 213.376 479.434, 184.132 544.947, 150.495 626.500 C 137.335 658.408, 109.909 727.260, 110.251 727.535 C 111.165 728.269, 169.163 750.160, 169.418 749.867 C 169.594 749.665, 178.143 728.459, 188.415 702.742 C 211.144 645.837, 211.922 644.085, 215.981 640.670 C 220.085 637.216, 220.920 637.853, 224.937 647.504 C 233.527 668.138, 240.044 708.513, 241.673 751.192 C 242.024 760.373, 242.578 768.308, 242.905 768.827 C 243.232 769.345, 255.875 770.504, 271 771.402 C 286.125 772.300, 300.146 773.251, 302.158 773.515 L 305.816 773.994 307.520 764.247 C 318.512 701.384, 335.200 644.342, 350.025 618.957 L 354.264 611.699 356.087 614.099 C 366.103 627.292, 379.387 659.045, 392.546 701.250 C 398.559 720.537, 399.563 722.996, 401.413 722.961 C 402.561 722.939, 416.291 720.553, 431.923 717.659 C 451.472 714.040, 460.590 711.945, 461.124 710.949 C 461.551 710.152, 464.672 696.900, 468.059 681.500 C 491.239 576.096, 523.810 464.187, 541.611 428.788 L 544.987 422.076 540.743 419.639 C 532.871 415.117, 495.527 394.313, 492.271 392.634 L 489.041 390.970 484.048 401.399 C 467.625 435.705, 445.182 505.854, 426.431 581.494 C 421.650 600.779, 421.804 600.498, 419.008 595 C 414.658 586.446, 405.474 573.505, 398.603 566.245 C 380.906 547.547, 361.644 541.126, 339.500 546.540 C 325.950 549.853, 310.044 563.110, 298.755 580.500 C 294.606 586.891, 285.537 604.565, 282.613 611.957 L 280.850 616.414 277.597 610.325 C 270.264 596.601, 259.875 585.810, 247.975 579.556 L 241.111 575.949 244.172 568.725 C 268.421 511.497, 308.010 429.578, 329.861 391.414 C 361.024 336.987, 406.281 269.013, 452.207 207.655 L 464.068 191.809 453.751 180.155 C 448.077 173.745, 438.766 163.213, 433.061 156.750 C 427.356 150.287, 422.646 145.025, 422.594 145.055 C 422.542 145.085, 415.300 149.186, 406.500 154.168 " stroke="none" fill="black" fill-rule="evenodd"/>
</svg>