<svg xmlns="http://www.w3.org/2000/svg" width="1000" height="1000" viewBox="0 0 1000 1000" version="1.1">
	<path d="M 595.871 75.763 C 593.355 82.205, 575 132.130, 575 132.532 C 575 132.774, 576.688 133.678, 578.750 134.539 C 591.556 139.889, 606 152.311, 606 157.977 C 606 172.451, 564.771 235.603, 509.958 305.087 L 495.295 323.673 517.212 347.087 C 529.266 359.964, 540.151 371.541, 541.401 372.814 L 543.673 375.127 563.586 358.469 C 592.403 334.363, 625.714 309.490, 647.584 295.750 L 651.668 293.185 647.835 303.577 C 635.784 336.250, 633.558 358.574, 636.379 418.500 C 638.568 465.013, 639.931 510.546, 640.240 547.500 L 640.500 578.500 633 579.266 C 595.118 583.135, 534.621 595.547, 487.720 609.073 C 471.060 613.878, 428.906 627.912, 427.600 629.089 C 427.083 629.555, 430.231 640.221, 435.011 654.200 C 443.877 680.122, 450.218 693.885, 472.236 734.986 C 508.992 803.597, 538.948 849.223, 565.105 876.432 C 581.050 893.018, 593.187 901.382, 607.237 905.467 C 614.463 907.567, 627.250 907.652, 634.136 905.645 C 649.993 901.023, 665.211 885.957, 674.403 865.780 C 691.179 828.955, 700.802 762.313, 703.823 662.022 L 704.500 639.544 713 639.840 C 756.409 641.351, 807.833 658.135, 832.859 678.962 L 838.755 683.869 863.878 665.334 C 877.695 655.139, 889 646.283, 889 645.653 C 889 643.764, 874.096 629.928, 864.947 623.323 C 828.452 596.977, 772.177 578.940, 718.346 576.336 L 705.193 575.699 704.624 561.600 C 704.312 553.845, 703.807 532.875, 703.502 515 C 702.943 482.179, 701.998 454.747, 699.887 410.049 C 698.567 382.103, 699.204 356.696, 701.481 346.500 C 707.300 320.437, 719.232 297.704, 737.111 278.615 C 753.208 261.429, 768.564 250.803, 792.284 240.436 C 800.103 237.019, 806.447 233.835, 806.383 233.362 C 806.021 230.698, 789.602 166.974, 789.045 166.073 C 787.490 163.556, 697.497 198.882, 659.469 216.937 C 652.445 220.272, 646.553 223, 646.375 223 C 646.197 223, 647.427 220.668, 649.107 217.818 C 654.226 209.137, 661.091 194.970, 664.524 186.002 C 673.114 163.568, 671.493 141.499, 659.787 121.500 C 654.327 112.173, 638.014 95.874, 627 88.743 C 619.131 83.648, 605.050 76.110, 599.359 73.947 C 597.259 73.148, 596.799 73.388, 595.871 75.763 M 208 108.941 C 208 109.459, 205.094 128.921, 201.541 152.191 C 174.208 331.247, 156.177 468.678, 149.546 548.514 C 140.091 662.354, 152.408 768.694, 183.310 840 C 187.136 848.829, 207.543 886, 208.564 886 C 208.815 886, 219.565 878.155, 232.452 868.567 C 253.373 853.002, 255.946 850.779, 256.457 847.817 C 264.391 801.901, 276.348 755.992, 290.858 715.743 C 294.078 706.809, 305.736 677.450, 316.764 650.500 C 346.028 578.986, 355 556.801, 355 555.956 C 355 555.360, 298.066 532, 296.613 532 C 296.402 532, 292.980 539.987, 289.009 549.750 C 285.038 559.513, 271.681 592.250, 259.326 622.500 C 237.625 675.634, 230.156 695.180, 222.471 718.953 C 220.476 725.126, 218.696 730.024, 218.517 729.838 C 217.918 729.217, 215.120 708.673, 213.568 693.500 C 210.090 659.490, 209.207 622.175, 211.012 585.500 C 214.585 512.911, 234.151 359.785, 268.100 138.728 C 269.855 127.304, 271.112 117.784, 270.895 117.573 C 270.334 117.027, 213.275 108, 210.389 108 C 209.075 108, 208 108.423, 208 108.941 M 617 645.576 C 584.388 650.574, 545.475 659.014, 515.212 667.654 L 509.925 669.164 520.294 689.332 C 545.579 738.511, 572.346 783.162, 593.559 811.550 C 603.302 824.589, 615.961 838.439, 617.096 837.302 C 618.607 835.789, 623.899 818.126, 626.381 806.315 C 633.342 773.179, 638.217 722.399, 639.658 668.011 L 640.320 643 636.410 643.101 C 634.260 643.156, 625.525 644.270, 617 645.576 " stroke="none" fill="black" fill-rule="evenodd"/>
</svg>