<svg xmlns="http://www.w3.org/2000/svg" width="1000" height="1000" viewBox="0 0 1000 1000" version="1.1">
	<path d="M 356.500 99.112 C 342.750 107.951, 330.918 115.739, 330.207 116.420 C 329.160 117.422, 332.310 123.066, 346.762 146.079 C 379.557 198.299, 409.194 247.420, 443.857 307 L 449.965 317.500 444.233 318.192 C 418.369 321.314, 370.812 321.024, 340 317.557 C 307.166 313.863, 267.768 305.371, 248.713 297.881 C 246.080 296.847, 243.782 296, 243.605 296 C 243.429 296, 237.759 309.098, 231.006 325.107 C 221.162 348.444, 219.003 354.391, 220.114 355.106 C 222.589 356.697, 248.184 364.781, 260.500 367.861 C 303.681 378.658, 336.852 382.895, 384.500 383.700 C 417.427 384.257, 435.947 383.441, 462.500 380.265 C 470.200 379.344, 478.243 378.570, 480.374 378.545 L 484.248 378.500 493.199 395 C 518.967 442.497, 545.361 495.265, 561.227 531 C 569.849 550.421, 580.134 576.136, 579.792 577.421 C 579.312 579.227, 551.714 605.420, 533.490 621.365 C 433.250 709.071, 301.593 810.959, 216.731 866.500 C 210.848 870.350, 206.027 873.893, 206.018 874.374 C 206.004 875.055, 232.943 918.080, 238.495 926.245 C 239.565 927.819, 241.737 926.601, 260.591 913.856 C 339.186 860.726, 428.508 792.961, 513.945 721.646 C 543.656 696.846, 577.455 667.783, 593.500 653.237 C 599 648.251, 603.810 644.471, 604.189 644.836 C 605.375 645.979, 650.815 775.813, 683.590 871.706 C 691.525 894.920, 698.435 915.015, 698.948 916.362 L 699.879 918.811 729.689 908.734 C 746.085 903.191, 759.623 898.573, 759.773 898.471 C 760.520 897.966, 691.964 700.086, 661.093 613.638 C 657.192 602.714, 654 593.418, 654 592.979 C 654 592.541, 657.793 587.664, 662.429 582.142 C 709.219 526.409, 737.529 472.032, 745.606 422.378 C 748.678 403.496, 747.418 370.968, 743.668 372.304 C 743.025 372.533, 729.396 376.496, 713.380 381.110 L 684.260 389.500 683.727 400 C 682.024 433.553, 664.860 473.232, 633.668 515.719 L 627.635 523.938 622.988 513.219 C 608.998 480.943, 585.050 431.964, 562.569 389.649 C 555.022 375.443, 548.994 363.709, 549.174 363.574 C 549.353 363.438, 553.977 362.077, 559.449 360.548 C 612.991 345.588, 674.330 317.351, 728.449 282.751 C 745.578 271.800, 772.054 253.022, 772.686 251.377 C 773.161 250.138, 737.134 201.121, 735.690 201.044 C 735.245 201.020, 730.295 204.296, 724.690 208.324 C 663.234 252.497, 598.879 283.788, 531.767 302.129 C 523.572 304.369, 516.756 306.043, 516.619 305.850 C 516.482 305.658, 509.011 292.675, 500.017 277 C 468.663 222.360, 383.847 82.952, 382 83.022 C 381.725 83.033, 370.250 90.273, 356.500 99.112 " stroke="none" fill="black" fill-rule="evenodd"/>
</svg>