<svg xmlns="http://www.w3.org/2000/svg" width="1000" height="1000" viewBox="0 0 1000 1000" version="1.1">
	<path d="M 341.736 92.442 C 325.916 96.981, 312.709 100.958, 312.386 101.280 C 312.064 101.602, 313.394 108.534, 315.342 116.683 C 322.128 145.076, 327.632 177.706, 330.070 204 C 331.427 218.642, 331.839 253.495, 330.668 254.666 C 329.046 256.287, 308.567 256.264, 300.671 254.631 C 286.457 251.691, 270.026 243.921, 260.367 235.571 L 256.508 232.236 242.710 245.368 C 235.122 252.591, 224.770 262.439, 219.706 267.253 L 210.500 276.005 216.500 281.596 C 228.907 293.156, 250.855 305.870, 268.751 311.864 C 281.261 316.054, 296.371 319.019, 308.798 319.723 C 315.922 320.127, 318.961 320.659, 318.657 321.451 C 318.416 322.080, 317.276 325.949, 316.124 330.048 C 308.607 356.802, 294.585 393.242, 280.277 423.200 C 272.915 438.616, 274.640 437.306, 259.500 438.979 C 237.817 441.376, 205.043 442.191, 176.649 441.041 C 161.167 440.414, 144.034 439.476, 138.576 438.957 C 133.118 438.439, 128.527 438.140, 128.374 438.293 C 127.952 438.714, 122.001 495.037, 122.001 498.613 L 122 501.726 131.250 502.388 C 160.545 504.485, 173.648 504.961, 202.550 504.979 C 259.880 505.016, 289.686 501.251, 326.289 489.349 C 335.583 486.326, 343.341 484.008, 343.529 484.196 C 343.718 484.384, 339.930 490.605, 335.112 498.019 C 298.644 554.139, 283.870 581.924, 253.501 651.500 C 230.856 703.379, 188.601 807.517, 189.376 809.537 C 189.637 810.218, 200.293 818.007, 213.055 826.846 L 236.260 842.915 288.644 790.053 C 383.053 694.785, 453.637 628.969, 508 585.519 C 521.702 574.568, 533.514 566.038, 587 528.471 C 673.245 467.896, 721.907 441.120, 749.145 439.253 L 756.820 438.727 758.910 442.823 C 763.428 451.681, 760.824 457.243, 741.500 480.010 C 734.900 487.785, 727.411 497.152, 724.859 500.824 C 706.106 527.798, 702.041 556.680, 713.713 580 C 716.549 585.666, 719.672 589.704, 726.484 596.514 C 737.411 607.438, 745.426 612.315, 771 623.602 C 792.858 633.250, 800.414 637.502, 805.291 642.900 C 814.548 653.147, 811.967 670.372, 799.325 682.714 C 788.675 693.111, 772.349 702.296, 733 720.027 C 684.422 741.916, 664.297 756.683, 652.532 779.072 C 642.008 799.098, 642.211 825.144, 653.051 845.982 C 673.814 885.889, 727.874 906.765, 817.907 909.643 L 839.315 910.327 838.644 893.413 C 838.274 884.111, 837.689 869.706, 837.342 861.403 L 836.711 846.305 816.106 845.697 C 766.950 844.245, 726.604 834.604, 713.076 821.076 C 706.222 814.222, 706.867 808.447, 715.234 801.741 C 724.090 794.644, 733.977 789.476, 769.062 773.607 C 808.285 755.865, 828.054 743.839, 844.032 728 C 864.417 707.792, 874.182 684.989, 874.223 657.500 C 874.260 632.564, 866.239 613.254, 848.837 596.390 C 837.292 585.202, 823.670 576.946, 799.500 566.488 C 784.480 559.989, 773.656 554.496, 772.045 552.555 C 768.873 548.733, 774.887 538.764, 793.494 517 C 811.629 495.788, 819.141 482.919, 823.142 466.209 C 828.159 445.255, 822.116 419.995, 807.561 401.080 C 801.034 392.596, 794.769 387.546, 784.500 382.489 C 749.067 365.038, 703.780 377.482, 624.500 426.453 C 599.364 441.980, 507.498 505.610, 481 525.847 C 443.246 554.681, 392.729 599.361, 330.606 658.864 C 321.314 667.763, 313.552 674.885, 313.356 674.689 C 312.953 674.286, 328.352 639.429, 336.619 622.033 C 353.923 585.615, 397.402 516.228, 443.338 451.718 C 450.302 441.938, 456 433.555, 456 433.090 C 456 432.407, 426.007 387.674, 424.618 386.285 C 424.402 386.068, 414.611 389.702, 402.862 394.360 C 379.876 403.472, 355.938 412.283, 355.484 411.799 C 355.329 411.634, 356.976 407, 359.142 401.500 C 366.896 381.813, 377.308 349.112, 382.980 326.632 L 388.750 303.764 417.125 293.522 C 451.305 281.184, 491.165 266.045, 492.382 264.939 C 493.153 264.237, 471.858 208.814, 470.007 206.704 C 469.623 206.267, 456.977 210.592, 441.904 216.317 C 406.633 229.713, 397.625 233, 396.178 233 C 395.365 233, 394.997 230.290, 394.990 224.250 C 394.952 192.573, 385.753 133.021, 373.904 87.750 C 373.365 85.688, 372.378 84.043, 371.711 84.095 C 371.045 84.147, 357.556 87.903, 341.736 92.442 " stroke="none" fill="black" fill-rule="evenodd"/>
</svg>