<svg xmlns="http://www.w3.org/2000/svg" width="1000" height="1000" viewBox="0 0 1000 1000" version="1.1">
	<path d="M 589 65.089 C 578.275 67.799, 507.666 81.585, 485 85.395 C 432.151 94.278, 405.941 96.474, 370.969 94.948 C 340.044 93.598, 312.412 90.424, 279.179 84.403 C 271.303 82.976, 264.713 81.964, 264.535 82.154 C 263.998 82.727, 250.997 140.369, 250.999 142.167 C 251 144.109, 253.438 144.714, 278.500 148.993 C 321.545 156.342, 346.399 158.478, 389 158.490 C 417.067 158.498, 427.536 158.126, 439 156.712 C 456.206 154.591, 494.982 148.661, 508.739 146.047 C 514.108 145.027, 518.640 144.327, 518.812 144.491 C 518.983 144.656, 517.101 148.550, 514.628 153.145 C 512.156 157.740, 507.149 168.245, 503.502 176.488 L 496.870 191.476 495.969 212.988 C 495.473 224.820, 495.053 235.224, 495.034 236.109 C 495.006 237.440, 497.905 238.104, 511.750 239.942 C 564.771 246.981, 609.037 263.258, 635.375 285.402 C 640.941 290.081, 647.716 298.533, 650.868 304.729 C 662.227 327.059, 656.275 369.975, 637.338 402.276 C 621.059 430.044, 594.528 452.748, 566.949 462.514 L 563.398 463.771 567.108 452.635 C 572.593 436.172, 574.381 423.745, 573.730 406.613 C 572.538 375.246, 560.360 346.789, 538.361 323.969 C 527.576 312.782, 516.727 305.018, 500.651 296.983 L 487.611 290.466 485.841 280.430 C 478.206 237.162, 453.335 205.546, 418 194.191 C 375.296 180.467, 336.292 200.506, 312.252 248.521 C 303.448 266.103, 294.585 293.890, 292.429 310.663 L 291.765 315.826 278.808 323.163 C 234.240 348.398, 207.648 382.389, 200.310 423.500 C 198.135 435.690, 198.214 458.868, 200.467 469.500 C 207.896 504.549, 238.401 531.207, 280.790 539.694 C 293.862 542.312, 319.143 542.022, 333 539.097 C 353.202 534.832, 372.350 526.931, 389.039 515.974 L 396.660 510.971 403.509 514.077 C 409.127 516.624, 416.926 519.655, 427.880 523.547 C 431.186 524.721, 392.739 548.548, 367.500 560.966 C 338.468 575.249, 321.689 581.258, 288 589.433 C 255.126 597.410, 214.512 604.298, 172.506 609.019 C 162.059 610.194, 153.310 611.356, 153.064 611.603 C 152.450 612.217, 140.041 674.981, 140.018 677.584 C 140.001 679.566, 140.973 679.759, 159.750 681.497 C 184.934 683.827, 246.242 684.659, 275.500 683.066 C 334.647 679.847, 380.221 673.952, 427.143 663.449 C 462.290 655.582, 484.137 649.815, 571 625.477 C 686.667 593.068, 711.900 587.249, 747.194 584.842 C 765.715 583.580, 784.981 584.712, 791.530 587.448 C 794.841 588.831, 794.907 588.969, 793.796 592.156 C 791.028 600.096, 768.364 619.217, 743.281 634.776 C 716.639 651.301, 673.410 673.568, 638 689.005 C 628.925 692.961, 621.329 696.363, 621.119 696.563 C 620.493 697.163, 644.267 755, 645.140 755 C 647.906 755, 693.132 734.315, 718.500 721.447 C 805.237 677.450, 848.062 641.516, 856.524 605.634 C 858.644 596.643, 858.414 580.938, 856.025 571.596 C 853.161 560.400, 848.665 552.647, 840.010 543.980 C 825.300 529.249, 807.089 522.763, 775.626 521.050 C 739.230 519.068, 706.213 523.571, 647.500 538.525 C 621.219 545.218, 613.090 547.442, 535 569.305 C 484.613 583.413, 441.434 594.995, 439.216 594.998 C 438.510 594.999, 444.585 590.531, 452.716 585.068 C 471.162 572.677, 487.152 560.190, 501.927 546.640 L 513.354 536.160 522.927 535.509 C 546.696 533.894, 562.925 530.946, 581.500 524.871 C 642.031 505.072, 689.804 456.557, 710.399 393.969 C 717.155 373.439, 719.174 361.743, 719.749 339.803 C 720.613 306.800, 715.389 286.385, 700.238 263.562 C 683.092 237.732, 653.399 216.080, 613.171 200.073 C 602.415 195.793, 580.005 188.467, 574.524 187.438 C 572.574 187.073, 570.729 186.370, 570.424 185.877 C 569.252 183.980, 577.789 170.319, 585 162.552 C 603.025 143.137, 626.447 115.605, 627.686 112.375 C 627.968 111.640, 621.318 100.455, 612.907 87.520 C 596.232 61.874, 597.398 62.967, 589 65.089 M 385.439 255.874 C 379.212 259.671, 371.457 270.782, 365.960 283.780 C 364.732 286.685, 363.946 289.279, 364.213 289.546 C 364.479 289.813, 370.053 288.867, 376.599 287.445 C 390.441 284.438, 407.250 282.047, 414.750 282.020 C 421.181 281.996, 421.374 281.069, 416.844 272.004 C 409.544 257.394, 395.106 249.979, 385.439 255.874 M 411 346.108 C 401.060 347.233, 386.234 350.386, 371.487 354.510 C 352.696 359.765, 353.655 359.187, 354.464 364.767 C 357.006 382.299, 369.781 407.131, 384.937 424 C 388.275 427.716, 389.154 428.239, 389.980 427 C 393.762 421.327, 403.218 404.082, 406.429 397 C 412.846 382.849, 421.994 353.324, 421.999 346.750 C 422 344.835, 422.167 344.844, 411 346.108 M 482.561 369.300 C 476.740 396.459, 464.644 426.743, 449.791 451.341 C 446.523 456.754, 443.996 461.327, 444.175 461.504 C 445.074 462.392, 463.599 467.138, 471.381 468.475 C 486.299 471.037, 485.816 471.187, 491.797 462.122 C 498.082 452.595, 504.055 440.784, 507.030 432 C 510.075 423.010, 510.848 405.916, 508.613 396.981 C 506.224 387.426, 500.503 376.839, 493.747 369.465 C 484.699 359.591, 484.643 359.590, 482.561 369.300 M 283.118 398.750 C 267.748 414.219, 262.617 426.002, 262.543 446 C 262.494 458.995, 263.323 461.442, 269.653 467 C 280.413 476.447, 301.631 480.366, 320.700 476.427 C 327.242 475.076, 338.631 471.486, 339.908 470.373 C 340.132 470.178, 338.072 467.426, 335.330 464.259 C 318.203 444.478, 303.915 419.251, 296.914 396.434 C 295.660 392.345, 294.222 389, 293.719 389 C 293.216 389, 288.446 393.387, 283.118 398.750 M 457.995 752.622 C 445.159 762.251, 434.563 771.657, 422.817 783.852 C 399.644 807.913, 388.899 829.203, 388.735 851.389 C 388.609 868.416, 393.491 880.969, 405.055 893.351 C 432.066 922.275, 490.185 934.027, 606 933.984 C 627.725 933.976, 646.113 933.581, 646.861 933.107 C 647.999 932.386, 648.040 928.474, 647.112 909.372 C 646.501 896.792, 645.740 882.842, 645.421 878.371 L 644.841 870.243 604.670 870.256 C 554.425 870.272, 522.111 868.285, 493 863.387 C 471.436 859.760, 453 853.565, 453 849.947 C 453 843.834, 474.057 820.690, 492.675 806.340 L 501.849 799.268 484.419 773.134 C 474.832 758.760, 466.651 747, 466.239 747 C 465.827 747, 462.117 749.530, 457.995 752.622 " stroke="none" fill="black" fill-rule="evenodd"/>
</svg>