<svg xmlns="http://www.w3.org/2000/svg" width="1000" height="1000" viewBox="0 0 1000 1000" version="1.1">
	<path d="M 393.467 67.252 C 390.234 75.852, 375.041 125.665, 375.381 126.551 C 375.633 127.206, 377.041 128.045, 378.512 128.414 C 379.982 128.783, 385.306 131.061, 390.342 133.476 C 428.057 151.561, 450.094 175.378, 454.112 202.397 C 455.630 212.603, 454.198 222.300, 443.537 274 C 417.212 401.668, 407.991 475.086, 408.005 556.926 C 408.019 642.309, 419.672 711.676, 444.724 775.500 C 451.306 792.267, 466.251 821.944, 476.305 838.208 C 498.129 873.515, 529.186 908.151, 560.590 932.206 L 566.680 936.871 584.857 912.474 C 594.854 899.056, 603.264 887.477, 603.546 886.742 C 603.853 885.940, 601.346 883.236, 597.279 879.983 C 526.098 823.047, 486.656 740.539, 474.430 623 C 472.241 601.950, 471.383 537.266, 472.934 510.104 C 476.634 445.285, 485.009 388.888, 506.435 284.500 C 517.781 229.220, 518.363 225.152, 517.734 205.505 C 517.325 192.741, 516.704 187.526, 514.668 179.751 C 503.680 137.784, 470.539 101.791, 420.500 77.478 C 401.956 68.468, 394.123 65.505, 393.467 67.252 " stroke="none" fill="black" fill-rule="evenodd"/>
</svg>