<svg xmlns="http://www.w3.org/2000/svg" width="1000" height="1000" viewBox="0 0 1000 1000" version="1.1">
	<path d="M 254.533 86.383 C 253.773 91.046, 248 142.661, 248 144.791 C 248 146.152, 249.458 147.095, 253.564 148.389 C 256.624 149.353, 260.536 151.401, 262.257 152.938 C 265.005 155.394, 265.377 156.345, 265.310 160.756 C 265.047 178.221, 246.063 207.386, 216.295 236.057 C 210.475 241.663, 197.790 252.553, 188.106 260.257 C 178.423 267.961, 170.500 274.575, 170.500 274.954 C 170.500 275.765, 215.254 323, 216.023 323 C 216.311 323, 227.257 319.423, 240.347 315.051 L 264.147 307.102 254.578 317.071 C 212.033 361.398, 183.145 402.985, 174.400 432.500 C 171.078 443.711, 170.503 461.244, 173.182 469.630 C 176.268 479.290, 180.429 486.323, 187 492.986 C 200.128 506.298, 215.659 512.133, 241.907 513.617 C 248.558 513.993, 254 514.370, 254 514.455 C 254 514.540, 251.488 520.660, 248.418 528.055 C 232.590 566.181, 205.665 634.309, 183.822 691.500 C 159.910 754.106, 114.564 877.020, 115.217 877.456 C 115.373 877.560, 128.775 882.374, 145 888.155 C 164.226 895.004, 174.724 898.288, 175.144 897.582 C 175.499 896.987, 182.419 878.275, 190.522 856 C 206.140 813.067, 242.523 715.675, 243.786 713.417 C 244.721 711.747, 280.264 684.767, 293.039 676.030 C 301.173 670.467, 302.227 669.976, 300.554 672.530 C 280.903 702.517, 267.814 732.109, 261.864 760 C 258.871 774.032, 258.566 802.175, 261.272 814.710 C 267.671 844.352, 285.830 867.665, 310.526 877.947 C 344.207 891.968, 384.956 880.750, 417.494 848.500 C 479.037 787.501, 485.193 676.953, 430.620 612.758 L 424.889 606.016 433.609 594.758 C 445.248 579.733, 467.271 552.842, 469.342 551.128 C 470.254 550.373, 471 549.175, 471 548.466 C 471 547.757, 460.627 537.722, 447.948 526.167 L 424.896 505.158 421.143 509.329 C 410.771 520.856, 386.508 551.130, 372 570.647 L 364.500 580.737 356.500 581.305 C 338.815 582.561, 321.747 587.629, 300.286 597.995 L 286.072 604.860 287.710 600.680 C 292.313 588.935, 313.702 537.055, 321.033 519.854 L 329.406 500.208 343.953 495.977 C 374.632 487.052, 422.824 469.488, 455 455.502 C 464.625 451.319, 474.750 446.946, 477.500 445.785 C 480.250 444.623, 482.878 443.346, 483.340 442.947 C 484.336 442.085, 475.909 403.133, 472.858 394.500 C 464.964 372.158, 446.067 345.518, 430.735 335.116 C 410.686 321.514, 387.608 319.123, 366.494 328.460 C 354.601 333.720, 340.017 345.836, 331.096 357.870 C 320.761 371.811, 302.878 404.664, 288.228 436.621 L 284.047 445.742 273.273 447.432 C 260.211 449.481, 239.039 450.505, 237.125 449.180 C 234.273 447.205, 247.925 423.751, 263.715 403.500 C 293.602 365.171, 350.895 308.322, 407.095 261.233 C 417.422 252.580, 425.901 245.160, 425.936 244.744 C 425.971 244.329, 416.464 233.851, 404.809 221.461 C 389.612 205.305, 383.176 199.109, 382.059 199.556 C 378.402 201.017, 310.257 224, 309.582 224 C 309.173 224, 310.846 220.287, 313.300 215.750 C 326.934 190.541, 331.973 164.913, 327.505 143.500 C 324.327 128.273, 312.544 110.443, 299.172 100.626 C 289.423 93.470, 272.815 86.517, 259.770 84.131 L 255.041 83.266 254.533 86.383 M 636.022 107.750 C 636.034 108.162, 636.699 121.775, 637.500 138 C 638.301 154.225, 638.966 168.287, 638.978 169.250 C 638.994 170.561, 639.833 171, 642.318 171 C 646.810 171, 655.295 173.609, 658.045 175.835 C 662.865 179.738, 660.110 195.479, 650.906 216.622 C 629.510 265.770, 595.348 328.058, 562.911 377.064 L 549.112 397.911 574.545 416.387 L 599.978 434.864 669.646 402.422 C 707.963 384.578, 739.379 370.097, 739.460 370.240 C 739.541 370.383, 739.245 378.825, 738.802 389 C 738.360 399.175, 737.661 423.909, 737.249 443.964 L 736.500 480.428 732.500 481.286 C 723.384 483.242, 705.737 489.579, 694.500 494.932 C 646.561 517.770, 611.226 555.211, 601.455 593.523 C 593.855 623.327, 599.641 649.772, 620.491 680.524 C 624.071 685.804, 627 690.356, 627 690.640 C 627 690.924, 620.946 697.533, 613.546 705.328 C 588.990 731.196, 574.387 750.249, 565.550 767.953 C 552.922 793.250, 551.789 814.011, 561.919 834.500 C 575.283 861.532, 605.260 876.181, 660.500 882.674 C 681.373 885.127, 747.820 885.121, 780 882.664 C 813.051 880.140, 871.549 873.784, 872.745 872.588 C 873.085 872.249, 863.926 810.710, 863.456 810.167 C 863.297 809.984, 856.042 810.759, 847.333 811.891 C 804.885 817.405, 769.872 819.998, 728.497 820.691 C 692.359 821.297, 673.368 820.450, 653.500 817.348 C 635.251 814.498, 618.999 808.790, 619.001 805.230 C 619.003 800.020, 629.693 783.229, 643.021 767.500 C 651.810 757.127, 673.928 734, 675.058 734 C 675.539 734, 678.760 735.844, 682.216 738.098 C 691.447 744.117, 716.964 756.347, 728.783 760.416 L 739.066 763.956 770.460 763.218 C 787.726 762.812, 802.180 762.154, 802.579 761.755 C 802.978 761.355, 802.778 735.260, 802.135 703.764 C 801.492 672.269, 800.973 635.594, 800.983 622.264 L 801 598.027 805.591 589.764 C 811.224 579.623, 816.162 567.786, 818.633 558.500 C 821.292 548.510, 821.287 524.807, 818.624 517 C 816.014 509.346, 810.670 500.774, 805.041 495.210 L 800.275 490.500 801.113 446 C 801.875 405.522, 802.919 376.961, 804.644 349.387 L 805.277 339.274 845.588 320.527 L 885.900 301.779 879.938 290.639 C 876.658 284.513, 871.168 274.139, 867.737 267.587 C 862.302 257.207, 860.680 254.995, 855.125 250.395 C 829.778 229.402, 795.889 228.753, 771.670 248.794 C 759.317 259.017, 752.616 269.905, 748.554 286.357 C 747.215 291.778, 745.980 296.351, 745.810 296.518 C 745.639 296.686, 738.525 300.073, 730 304.046 C 721.475 308.019, 703.475 316.429, 690 322.735 C 676.525 329.041, 664.891 334.446, 664.147 334.747 C 663.403 335.047, 665.336 330.614, 668.442 324.896 C 671.548 319.178, 679.648 303.459, 686.441 289.965 C 717.511 228.247, 724.841 206.534, 723.729 179.500 C 722.888 159.073, 716.618 144.390, 703.015 131 C 690.623 118.801, 675.892 111.775, 655.916 108.535 C 645.870 106.906, 635.986 106.516, 636.022 107.750 M 385.557 392.266 C 380.419 397.617, 366.321 420.274, 367.818 420.773 C 368.471 420.990, 389.087 413.476, 405.313 407.106 L 408.126 406.002 405.531 401.234 C 401.715 394.223, 395.219 387, 392.729 387 C 391.483 387, 388.535 389.164, 385.557 392.266 M 725 550.833 C 695.575 563.994, 670.499 586.969, 663.893 606.822 C 660.799 616.119, 661.501 623.728, 666.324 633.176 C 668.380 637.204, 670.912 641.611, 671.951 642.970 L 673.840 645.439 683.170 636.526 C 697.126 623.193, 721.213 597.706, 729.597 587.401 L 737 578.302 737 562.651 C 737 544.292, 737.819 545.099, 725 550.833 M 382.787 664.642 C 377.761 671.537, 352.061 710.188, 347.127 718.272 C 330.409 745.666, 322.399 770.454, 323.196 792.324 C 323.671 805.341, 325.985 812.024, 331.780 817.111 C 335.104 820.030, 335.692 820.187, 342.003 819.830 C 362.031 818.698, 385.256 795.538, 396.116 765.869 C 400.931 752.717, 403.015 741.840, 403.677 726.423 C 404.354 710.639, 403.249 700.534, 399.389 687.215 C 396.899 678.622, 391.433 666.442, 388.136 662.142 L 386.329 659.784 382.787 664.642 M 729.631 680.469 L 721.763 687.682 729.318 691.571 C 733.473 693.710, 737.143 695.191, 737.472 694.862 C 737.801 694.532, 737.942 689.537, 737.785 683.760 L 737.500 673.256 729.631 680.469 " stroke="none" fill="black" fill-rule="evenodd"/>
</svg>