<svg xmlns="http://www.w3.org/2000/svg" width="1000" height="1000" viewBox="0 0 1000 1000" version="1.1">
	<path d="M 444.333 68.888 C 431.041 69.774, 419.915 70.750, 419.610 71.056 C 419.305 71.361, 420.151 90.036, 421.490 112.556 C 426.037 189.008, 428.678 238.822, 432.143 313.500 C 433.558 344.005, 433.869 406.488, 432.655 416.394 L 431.810 423.288 414.799 406.394 C 405.443 397.102, 394.454 385.537, 390.378 380.693 C 360.960 345.729, 334.375 288.216, 324.861 238.955 C 323.645 232.655, 322.536 227.345, 322.397 227.156 C 321.992 226.603, 260.572 233.207, 259.806 233.885 C 259.425 234.223, 260.157 240.125, 261.434 247 C 271.183 299.495, 295.028 356.472, 326.172 401.688 C 340.374 422.307, 359.115 442.321, 399.500 479.997 C 412.150 491.798, 422.630 501.741, 422.789 502.093 C 422.948 502.445, 421.498 516.855, 419.567 534.116 C 407.422 642.689, 408.561 702.110, 423.698 749.500 C 432.758 777.866, 449.106 801.539, 468.881 814.931 C 481.485 823.467, 500.531 830.758, 520.500 834.692 C 533.880 837.328, 560.224 837.104, 573.145 834.245 C 584.359 831.763, 598.812 826.391, 607.826 821.353 C 611.305 819.409, 614.455 818.121, 614.826 818.492 C 616.118 819.784, 615.579 895.977, 614.213 905 C 613.506 909.675, 612.831 914.347, 612.713 915.382 C 612.529 917.003, 616.646 918.607, 642.500 926.987 C 677.269 938.257, 673.016 938.954, 675.999 921.503 C 679.288 902.261, 680.310 881.868, 679.681 848 C 678.628 791.324, 673.619 745.700, 665.407 718 C 644.386 647.092, 596.479 579.475, 504.431 490.797 L 490.362 477.244 491.675 466.372 C 496.371 427.496, 497.403 411.522, 497.383 378 C 497.372 359.575, 496.815 332.350, 496.145 317.500 C 492.891 245.421, 488.994 171.560, 484.959 105.500 C 483.884 87.900, 483.004 72.037, 483.002 70.250 L 483 67 475.750 67.138 C 471.762 67.213, 457.625 68.001, 444.333 68.888 M 480.592 562.633 C 480.246 565.310, 479.321 574.700, 478.537 583.500 C 469.037 690.058, 479.668 750.926, 510.303 765.372 C 524.492 772.063, 547.775 774.927, 561.026 771.610 C 570.228 769.307, 582.463 763.002, 589.746 756.810 C 596.426 751.132, 605 741.294, 605 739.309 C 605 734.257, 594.736 708.259, 585.848 690.800 C 567.159 654.088, 529.355 605.119, 489.217 565.633 L 481.220 557.766 480.592 562.633 " stroke="none" fill="black" fill-rule="evenodd"/>
</svg>