<svg xmlns="http://www.w3.org/2000/svg" width="1000" height="1000" viewBox="0 0 1000 1000" version="1.1">
	<path d="M 668.935 91.387 C 656.100 101.704, 634.877 123.270, 625.033 136 C 578.018 196.798, 560.838 266.399, 573.074 346.500 C 574.166 353.650, 578.869 381.550, 583.525 408.500 C 598.363 494.392, 603.430 529.717, 607.478 575.500 C 609.891 602.791, 611.370 643.975, 610.531 660.485 L 609.769 675.471 600.035 665.384 C 579.830 644.446, 563.871 615.399, 554.064 581.713 C 546.716 556.475, 542.324 531.128, 535.973 477.316 C 529.406 421.669, 525.702 402.335, 518.317 385.141 C 510.273 366.411, 500.654 352.663, 485.308 337.959 C 451.415 305.485, 401.982 290.034, 352.662 296.500 C 296.855 303.815, 248.451 336.711, 217.289 388.500 C 193.463 428.097, 180.775 473.942, 175.927 537.955 C 174.375 558.442, 175.252 613.797, 177.417 632 C 187.630 717.860, 214.231 787.248, 257.922 841.996 C 266.989 853.357, 285.545 872.173, 296.185 880.795 C 315.138 896.153, 339.729 910.347, 361.445 918.462 C 410.434 936.770, 468.331 936.973, 524.251 919.034 C 585.522 899.377, 631.354 852.765, 653.580 787.500 C 655.641 781.450, 657.382 776.409, 657.450 776.297 C 657.518 776.185, 660.707 777.239, 664.537 778.639 C 695.373 789.910, 745.136 799.703, 788 802.935 C 795.975 803.536, 805.691 804.278, 809.592 804.584 L 816.683 805.141 817.327 789.820 C 817.681 781.394, 818.270 767.021, 818.635 757.880 L 819.300 741.259 808.400 740.577 C 760.618 737.587, 721.770 730.637, 687.335 718.918 C 679.176 716.142, 672.131 713.508, 671.680 713.065 C 671.230 712.623, 671.599 703.765, 672.501 693.380 C 674.432 671.142, 674.687 623.397, 673.015 597 C 669.680 544.360, 663.295 495.765, 648.398 409.651 C 634.059 326.758, 633.906 325.692, 633.316 304 C 632.704 281.506, 634.158 267.280, 638.980 248.577 C 646.260 220.341, 660.378 192.993, 679.482 170.115 C 687.460 160.562, 704.394 143.978, 710.811 139.436 C 713.091 137.821, 714.967 136.132, 714.979 135.682 C 715.019 134.130, 681.498 83.017, 680.435 83.008 C 679.849 83.004, 674.674 86.774, 668.935 91.387 M 355.306 360.485 C 344.712 362.407, 335.735 365.482, 324.500 371.035 C 299.523 383.383, 279.836 404.285, 265.026 434.179 C 251.507 461.467, 244.072 491.695, 239.860 536.500 C 238.269 553.422, 238.284 598.927, 239.886 615.500 C 245.003 668.439, 256.647 712.024, 276.487 752.500 C 295.496 791.280, 320.226 821.143, 349.850 841.092 C 373.450 856.985, 397.385 865.363, 427.191 868.164 C 457.557 871.019, 499.752 863.003, 526.162 849.362 C 552.440 835.790, 571.186 815.683, 585.528 785.686 C 590.525 775.235, 599 751.876, 599 748.554 C 599 747.740, 596.314 745.251, 593.031 743.021 C 573.839 729.988, 550.316 707.531, 536.770 689.309 C 508.372 651.109, 491.181 607.124, 480.992 546.593 C 478.396 531.172, 476.749 518.664, 469.919 462.500 C 464.163 415.162, 459.875 402.958, 443.006 385.898 C 425.269 367.962, 401.717 358.862, 373.619 359.090 C 367.504 359.140, 359.263 359.768, 355.306 360.485 " stroke="none" fill="black" fill-rule="evenodd"/>
</svg>