<svg xmlns="http://www.w3.org/2000/svg" width="1000" height="1000" viewBox="0 0 1000 1000" version="1.1">
	<path d="M 609.119 62.072 C 593.510 66.943, 580.608 71.059, 580.449 71.218 C 580.289 71.377, 581.232 75.949, 582.545 81.377 C 585.706 94.455, 588.705 112.731, 590.113 127.500 C 591.422 141.244, 590.805 179.120, 589.206 183.103 C 588.239 185.512, 586.756 186.048, 569.331 190.292 C 532.466 199.268, 509.730 202.709, 494.525 201.613 C 472.352 200.015, 455.369 193.281, 439.913 179.961 L 434.326 175.147 408.753 193.306 C 385.732 209.654, 383.283 211.660, 384.221 213.413 C 386.108 216.939, 399.507 229.643, 407.913 235.875 C 427.590 250.465, 451.383 260.116, 477.500 264.101 C 489.067 265.866, 514.309 265.617, 528.500 263.599 C 540.354 261.913, 566.446 256.886, 572.750 255.074 C 575.317 254.336, 576 254.435, 576 255.543 C 576 256.315, 574.679 264.721, 573.065 274.223 C 569.099 297.570, 567.997 308.488, 568.017 324.211 C 568.038 340.250, 569.687 348.883, 574.662 359 C 581.813 373.543, 590.502 379.741, 621.628 392.506 C 637.984 399.213, 645 403.083, 645 405.397 C 645 406.401, 641.048 405.485, 630.180 401.962 C 595.347 390.669, 566.021 384.043, 534.981 380.450 C 515.448 378.190, 482.127 378.913, 467.561 381.915 C 438.755 387.850, 418.111 399.688, 405.503 417.500 C 397.521 428.776, 394.039 439.866, 394.015 454.090 C 393.923 507.590, 456.054 545.477, 534.955 540.034 C 544.055 539.407, 554.875 538.298, 559 537.571 C 563.125 536.844, 566.601 536.332, 566.725 536.433 C 566.948 536.615, 548.503 570.830, 547.808 571.526 C 547.610 571.723, 537.655 573.483, 525.684 575.436 C 491.593 580.998, 430.557 593.640, 412.160 598.948 C 409.375 599.752, 408.914 599.667, 409.386 598.436 C 410.452 595.659, 418.040 585.050, 424.470 577.346 L 430.896 569.647 409.947 547.945 C 398.425 536.009, 388.398 525.745, 387.664 525.136 C 386.623 524.272, 385.062 525.464, 380.559 530.561 C 359.752 554.114, 342.910 582.729, 334.298 609.156 L 330.500 620.811 311 627.265 C 261.859 643.530, 218.528 664.594, 187.978 687.069 C 152.405 713.239, 128.474 744.583, 120.374 775.612 C 115.142 795.653, 116.063 816.155, 123.056 835.315 C 135.852 870.378, 170.259 895.664, 213.844 902.037 C 224.767 903.635, 258.372 902.781, 270.500 900.597 C 311.796 893.163, 358.433 875.279, 401.934 850.196 L 412.368 844.179 427.365 858.590 C 435.614 866.515, 442.619 872.973, 442.932 872.939 C 443.244 872.906, 452.566 861.945, 463.648 848.582 L 483.795 824.286 473.648 814.799 L 463.500 805.312 473.185 795.127 C 500.580 766.314, 536.233 716.348, 572.457 656 L 587.163 631.500 593.331 630.847 C 624.359 627.561, 670.660 627.396, 696.436 630.478 C 744.598 636.238, 777.119 649.561, 800 672.906 C 813.439 686.618, 821.056 700.242, 827.172 721.509 C 830.561 733.294, 830.397 750.763, 826.807 760.242 C 822.549 771.487, 818.028 777.969, 806 790.072 C 788.920 807.259, 765.512 821.890, 732.500 836.011 C 679.886 858.517, 601.997 877.714, 521.564 888 C 512.800 889.121, 505.401 890.266, 505.122 890.545 C 504.842 890.824, 505.839 904.428, 507.335 920.776 C 508.832 937.124, 510.043 951.063, 510.028 951.750 C 509.987 953.561, 514.442 953.339, 535.731 950.473 C 625.252 938.422, 705.464 917.742, 765 891.364 C 861.542 848.591, 905.522 786.911, 890.933 714.749 C 883.877 679.845, 866.794 648.455, 841.801 624.464 C 807.770 591.798, 761.241 573.097, 697.298 566.384 C 686.869 565.289, 671.747 564.687, 652.800 564.613 L 624.099 564.500 629.050 555.315 C 631.772 550.263, 634 545.878, 634 545.570 C 634 545.263, 626.302 541.157, 616.893 536.446 C 607.484 531.736, 599.946 527.722, 600.143 527.528 C 600.339 527.333, 603.991 525.788, 608.258 524.094 C 626.562 516.828, 645.550 505.226, 660.853 491.959 L 669.205 484.717 674.853 487.035 C 738.598 513.197, 806.834 551.508, 841.963 580.860 L 850.427 587.932 858.463 580.254 C 862.883 576.031, 873.182 566.052, 881.348 558.078 L 896.197 543.579 889.952 538.040 C 853.035 505.292, 786.530 465.965, 717 435.765 C 710.675 433.018, 705.347 430.631, 705.160 430.461 C 704.972 430.291, 705.760 426.432, 706.910 421.886 C 710.819 406.428, 709.305 389.500, 702.873 376.740 C 693.174 357.497, 677.830 346.117, 643.138 332.436 L 630.776 327.561 631.441 318.530 C 631.807 313.564, 633.211 302.300, 634.561 293.500 C 636.982 277.718, 644.609 237.058, 645.272 236.394 C 645.991 235.676, 686.239 225.070, 701.500 221.578 C 736.167 213.645, 758.036 211.914, 771.412 216.045 C 781.687 219.219, 788 225.825, 788 233.403 C 788 239.812, 786.356 241.718, 778.095 244.890 C 761.838 251.132, 733.998 255.286, 695.750 257.176 L 671 258.400 671 290.200 C 671 319.824, 671.120 321.999, 672.750 321.987 C 680.994 321.925, 720.678 319.796, 729 318.969 C 796.586 312.256, 829.248 297.858, 843.488 268.500 C 849.312 256.493, 851.421 247.181, 851.417 233.500 C 851.411 216.551, 847.804 204.047, 839.098 190.793 C 821.611 164.172, 791.836 150.017, 753.301 150.004 C 733.254 149.997, 708.127 154.037, 672.545 162.987 C 663.770 165.194, 656.233 167, 655.795 167 C 655.358 167, 654.995 160.363, 654.990 152.250 C 654.973 127.995, 651.978 100.831, 646.520 75.414 C 642.608 57.200, 641.228 52.982, 639.222 53.108 C 638.275 53.167, 624.729 57.201, 609.119 62.072 M 224.780 107.750 C 187.100 189.886, 166.689 260.383, 158.549 336.500 C 154.472 374.625, 152.946 427.815, 154.934 462.486 C 155.596 474.028, 156.315 483.649, 156.532 483.866 C 156.930 484.263, 203.218 491.452, 212.500 492.558 L 217.500 493.154 223 482.364 C 229.873 468.880, 243.086 448.699, 253.928 435.125 C 258.486 429.419, 272.815 413.900, 285.770 400.639 C 319.132 366.491, 359.500 323.955, 359.500 322.950 C 359.500 322.024, 314.887 280.016, 313.893 280.006 C 313.559 280.003, 305.488 288.212, 295.956 298.250 C 267.364 328.360, 219.759 377.092, 219.344 376.677 C 218.739 376.073, 221.856 342.333, 224.064 325.578 C 232.061 264.892, 253.091 197.015, 284.628 130.103 C 287.583 123.835, 290 118.359, 290 117.936 C 290 117.139, 235.782 89, 234.246 89 C 233.771 89, 229.511 97.438, 224.780 107.750 M 490.889 442.999 C 479.994 444.029, 471.019 446.290, 464 449.772 C 456.930 453.279, 456.508 455.419, 461.922 460.310 C 472.849 470.183, 496.595 476.989, 520.144 476.997 C 537.834 477.004, 563.100 472.793, 578.460 467.278 C 585.838 464.629, 597.454 459.107, 596.851 458.536 C 596.042 457.767, 569.576 450.925, 558.386 448.591 C 534.625 443.635, 507.722 441.406, 490.889 442.999 M 483 648.062 C 462.800 652.313, 426.829 660.833, 404 666.773 C 387.187 671.148, 387.871 670.311, 390.500 683.313 C 393.315 697.228, 398.803 712.434, 406.366 727.274 C 413.928 742.110, 421.664 755, 423.006 755 C 424.757 755, 444.520 731.670, 458.160 713.500 C 471.228 696.093, 494.524 661.685, 504.369 645.250 C 505.442 643.460, 503.898 643.663, 483 648.062 M 316 692.933 C 247.698 717.240, 198.029 752.054, 184.259 785.275 C 182.401 789.758, 181.551 793.921, 181.222 800.153 C 180.810 807.956, 181.028 809.381, 183.440 814.653 C 188.275 825.222, 198.994 833.198, 213.675 837.150 C 223.909 839.905, 245.994 840.116, 260 837.592 C 281.926 833.640, 305.218 826.289, 329 815.815 C 341.309 810.394, 364.272 798.800, 369.717 795.256 L 371.935 793.813 367.109 786.656 C 360.115 776.284, 350.462 759.246, 345.397 748.332 C 337.379 731.058, 332.270 715.389, 327.304 692.848 L 326.500 689.197 316 692.933 " stroke="none" fill="black" fill-rule="evenodd"/>
</svg>