<svg xmlns="http://www.w3.org/2000/svg" width="1000" height="1000" viewBox="0 0 1000 1000" version="1.1">
	<path d="M 301.130 73.036 C 284.426 76.265, 270.641 79.041, 270.496 79.204 C 270.351 79.367, 271.086 84.225, 272.129 90 C 273.666 98.512, 281.197 147.050, 283.519 163.404 L 284.073 167.309 272.479 166.647 C 245.775 165.122, 217.556 158.892, 196.531 149.881 C 191.599 147.767, 187.273 146.366, 186.920 146.769 C 185.599 148.271, 155.989 201.322, 156.298 201.631 C 157.515 202.848, 175.552 210.445, 185.470 213.917 C 214.742 224.167, 254.235 231, 284.200 231 C 288.490 231, 292 231.199, 292 231.443 C 292 231.687, 292.881 240.349, 293.958 250.693 C 300.272 311.341, 304.489 372.521, 305.594 419.500 L 306.205 445.500 299.879 450.500 C 274.140 470.842, 251.173 488.115, 242.572 493.597 L 239.644 495.463 242.197 490.982 C 243.601 488.517, 247.346 481.775, 250.519 476 C 253.692 470.225, 261.908 455.870, 268.776 444.101 C 291.644 404.918, 298.079 387.845, 298.212 366 C 298.318 348.557, 292.693 334.620, 281.214 323.882 C 268.499 311.987, 254.266 307.412, 232.633 308.265 C 191.576 309.885, 152.977 332.872, 131.938 368.231 C 121.053 386.526, 113.770 410.544, 112.345 432.845 L 111.684 443.191 143.092 442.471 C 160.366 442.075, 174.770 441.597, 175.100 441.409 C 175.431 441.221, 175.985 437.789, 176.332 433.783 C 177.770 417.207, 185.415 399.548, 195.535 389.428 C 200.309 384.654, 204.107 382.033, 211.171 378.640 C 219.966 374.415, 230.383 371.280, 232.828 372.121 C 234.823 372.807, 227.621 388.145, 215.927 408.120 C 190.273 451.937, 164.348 501.280, 149.136 535.240 L 142.086 550.980 152.362 579.476 C 158.014 595.149, 162.925 608.258, 163.276 608.609 C 164.127 609.461, 198.654 594.286, 212.609 586.927 C 246.295 569.163, 289.320 540.287, 328.357 509.242 L 340.214 499.812 355.357 500.144 L 370.500 500.476 371 486.804 L 371.500 473.132 385.500 460.411 C 404.297 443.331, 447.089 400.358, 465.573 380 C 480.931 363.085, 504.178 336.113, 516.425 321 C 520.214 316.325, 523.934 311.772, 524.692 310.882 C 525.919 309.442, 523.373 307.103, 501.551 289.632 C 488.065 278.834, 476.687 270.024, 476.266 270.054 C 475.844 270.084, 471.735 274.808, 467.133 280.552 C 455.019 295.673, 434.808 319.121, 418.069 337.474 C 401.766 355.349, 370.100 388, 369.067 388 C 368.698 388, 367.834 377.538, 367.148 364.750 C 365.384 331.906, 361.880 287.829, 357.945 249 C 356.859 238.275, 355.864 228.438, 355.735 227.140 C 355.511 224.890, 356.288 224.581, 372.500 220.484 C 392.210 215.504, 405.329 211.288, 423.500 204.095 C 438.089 198.320, 473.234 181.202, 472.621 180.170 C 472.402 179.801, 465.597 167.575, 457.500 153 C 449.403 138.425, 442.581 126.171, 442.341 125.768 C 442.100 125.365, 435.288 128.339, 427.202 132.376 C 409.537 141.195, 391.576 148.553, 376 153.350 C 363.541 157.187, 347.898 161.285, 347.556 160.801 C 347.439 160.635, 346.320 153.075, 345.070 144 C 340.072 107.736, 333.218 66.945, 332.146 67.083 C 331.791 67.128, 317.833 69.807, 301.130 73.036 M 674 90.120 C 647.478 94.119, 615.715 113.501, 580.574 147.130 C 566.683 160.423, 545.765 182.886, 546.221 184.019 C 546.759 185.354, 594.163 224.112, 594.885 223.807 C 595.287 223.638, 599.461 219.225, 604.161 214 C 630.019 185.253, 660.583 160.710, 677.878 154.805 C 685.737 152.121, 686.381 152.699, 686.842 162.848 C 687.858 185.221, 669.959 227.235, 642.383 267.210 L 634.995 277.919 650.559 300.960 C 659.119 313.632, 666.258 324, 666.424 324 C 666.589 324, 672.299 322.855, 679.112 321.455 C 734.120 310.154, 786.227 310.586, 810 322.539 C 816.959 326.038, 819.259 329.076, 819.789 335.465 C 820.194 340.348, 819.889 341.498, 816.998 346.003 C 804.717 365.142, 760.927 389.003, 701 409.212 C 669.345 419.887, 619.721 433.432, 591.125 439.204 C 584.869 440.467, 579.542 442.040, 579.287 442.701 C 578.827 443.894, 589.808 503.075, 590.655 503.965 C 591.359 504.706, 606.344 501.448, 636.500 493.999 C 672.078 485.211, 690.643 479.887, 720 470.051 C 816.677 437.661, 867.155 402.552, 881.158 357.957 C 883.147 351.624, 883.492 348.465, 883.446 337 C 883.371 318.002, 879.585 305.568, 869.640 291.654 C 854.972 271.131, 827.805 256.904, 794 252.041 C 780.720 250.130, 757.071 249.077, 741.664 249.709 C 728.963 250.230, 726.753 250.108, 727.259 248.912 C 727.588 248.136, 730.311 241.875, 733.310 235 C 745.221 207.695, 750.321 186.819, 750.411 165 C 750.483 147.403, 748.854 139.529, 742.367 126.121 C 734.252 109.346, 718.449 95.957, 701.580 91.563 C 694.045 89.600, 681.723 88.956, 674 90.120 M 472.250 451.748 L 456 452.050 455.982 455.275 C 455.937 463.297, 453.897 500.528, 452.982 510 C 451.243 528.028, 448.713 547.846, 448.006 548.991 C 447.200 550.294, 437.202 551.394, 407.500 553.446 C 389.711 554.675, 343.750 556.988, 336.916 556.998 C 335.494 557, 335.377 560.214, 335.775 588.250 C 336.020 605.438, 336.507 619.761, 336.860 620.080 C 338.153 621.251, 425.662 617.036, 432.750 615.462 C 434.221 615.135, 435 615.430, 435 616.314 C 435 617.058, 433.192 624.260, 430.983 632.318 C 404.282 729.698, 357.721 809.459, 296.610 862.504 C 289.667 868.530, 284.113 873.840, 284.268 874.304 C 284.764 875.793, 322.473 922.901, 323.209 922.951 C 324.276 923.025, 337.128 912.102, 349.435 900.664 C 369.341 882.161, 390.116 858.139, 408.217 832.694 L 417.327 819.888 419.306 823.194 C 446.397 868.445, 471.194 894.520, 501.726 909.864 C 529.181 923.662, 557.500 925.774, 583 915.927 C 608.102 906.234, 628.585 882.311, 651.006 836.500 C 674.157 789.199, 695.900 724.126, 706.973 669 C 713.445 636.784, 714.444 628.048, 714.469 603.500 C 714.489 583.591, 714.277 580.758, 712.233 573.691 C 706.135 552.613, 691.156 534.428, 672.544 525.511 C 658.039 518.562, 652.472 517.494, 631 517.540 C 608.397 517.590, 605.997 518.002, 554.271 530.726 C 532.695 536.033, 514.805 540.138, 514.514 539.847 C 514.223 539.557, 514.642 533.285, 515.444 525.910 C 517.693 505.229, 519 483.369, 519 466.420 L 519 451 503.750 451.223 C 495.363 451.346, 481.188 451.582, 472.250 451.748 M 626 580.674 C 615.593 581.727, 600.786 584.852, 571.774 592.117 C 554.023 596.562, 531.219 601.879, 521.099 603.932 L 502.698 607.666 499.355 622.083 C 485.523 681.739, 463.268 740.703, 437.110 787 C 433.847 792.775, 431.314 797.639, 431.481 797.809 C 431.648 797.979, 439.982 794.015, 450 789 C 460.018 783.985, 468.313 780.021, 468.432 780.191 C 468.551 780.361, 471.701 785.900, 475.433 792.500 C 485.323 809.990, 495.038 823.161, 506.440 834.536 C 522.304 850.363, 534.157 857.030, 547.811 857.808 C 560.951 858.557, 566.153 854.943, 578.117 836.758 C 610.572 787.425, 649.559 664.970, 651.108 607.500 C 651.554 590.955, 651.301 589.294, 647.750 585.480 C 645.243 582.788, 643.268 581.763, 639.114 580.995 C 633.780 580.010, 632.803 579.986, 626 580.674 " stroke="none" fill="black" fill-rule="evenodd"/>
</svg>