<svg xmlns="http://www.w3.org/2000/svg" width="1000" height="1000" viewBox="0 0 1000 1000" version="1.1">
	<path d="M 209.724 111.668 C 202.819 122.674, 179.788 162.110, 180.118 162.365 C 180.328 162.528, 184.447 165.286, 189.270 168.495 C 208.785 181.475, 230.078 200.761, 237.743 212.398 C 243.689 221.426, 252 246.917, 252 256.128 C 252 258.258, 252.256 260, 252.570 260 C 252.883 260, 266.777 262.025, 283.446 264.500 C 300.114 266.975, 314.322 269, 315.019 269 C 316.923 269, 315.596 245.832, 312.989 233.548 C 310.569 222.148, 304.601 203.737, 300.007 193.500 C 289.023 169.023, 259.787 138.992, 222.747 114.137 C 218.483 111.276, 214.349 108.687, 213.561 108.385 C 212.650 108.035, 211.255 109.229, 209.724 111.668 M 659 267.076 C 612.775 272.154, 566.050 288.069, 525.262 312.629 C 499.361 328.226, 481.062 342.707, 457.955 365.894 C 397.300 426.759, 335.734 521.490, 264.391 663.731 C 247.121 698.162, 239.992 711.467, 239.474 710.231 C 239.075 709.279, 238.524 691.850, 238.249 671.500 C 237.595 623.054, 239.461 584.236, 245.122 528.500 C 248.244 497.765, 246.775 477.123, 239.964 456 C 236.772 446.103, 227.205 426.881, 218.764 413.408 C 209.425 398.501, 205 389.849, 205 386.495 C 205 383.426, 208.503 376.354, 213.416 369.503 C 215.387 366.755, 217 364.215, 217 363.859 C 217 363.099, 172.376 321.642, 171.083 321.201 C 169.785 320.759, 157.996 336.861, 152.711 346.295 C 141.981 365.449, 138.470 385.558, 142.839 402.837 C 145.501 413.364, 152.436 427.520, 164.388 446.824 C 183.152 477.133, 185.262 487.473, 181.061 528.543 C 174.480 592.883, 172.374 660.790, 175.474 708.710 C 177.043 732.948, 179.543 791.732, 180.484 826.500 C 180.797 838.050, 181.303 851.167, 181.608 855.649 L 182.163 863.799 209.331 870.583 C 224.274 874.314, 236.725 877.336, 237 877.299 C 237.275 877.262, 239.889 871.442, 242.809 864.366 C 285.037 762.021, 336.152 657.466, 384.110 575.338 C 429.051 498.375, 472.038 439.705, 509.699 403.933 C 551.840 363.905, 607.578 337.357, 662.921 330.955 C 679.445 329.043, 708.914 330.215, 722 333.304 C 742.826 338.220, 757.937 345.939, 768.637 357.128 C 775.288 364.083, 778.374 369.175, 781.728 378.731 C 784.246 385.904, 784.450 387.651, 784.396 401.500 C 784.344 415.041, 784.034 417.632, 781.214 428.143 C 771.628 463.871, 753.197 495.678, 722.772 529 C 705.402 548.024, 687.931 563.664, 644 599.514 C 594.864 639.613, 576.206 658.007, 561.509 680.842 C 551.499 696.396, 544 717.269, 544 729.579 C 544 741.785, 548.084 752.666, 555.851 761.154 C 565.509 771.707, 577.126 776.889, 596 779.062 C 608.071 780.452, 622.334 779.949, 659.500 776.823 C 689.766 774.278, 732.526 773.798, 747 775.841 C 771.260 779.265, 794.222 785.135, 814.815 793.175 C 820.489 795.390, 825.253 797.045, 825.402 796.851 C 825.552 796.658, 832.048 784.022, 839.839 768.771 L 854.004 741.043 849.858 738.927 C 843.954 735.915, 824.996 728.705, 815 725.670 C 765.303 710.581, 726.943 707.679, 653.102 713.424 C 634.184 714.896, 617.821 715.965, 616.741 715.800 C 615.003 715.535, 615.306 714.783, 619.369 709.273 C 629.812 695.114, 645.472 680.531, 683.500 649.553 C 743.330 600.814, 769.351 575.765, 793.708 543.460 C 830.165 495.107, 851.326 437.078, 848.575 393 C 846.534 360.295, 835.765 335.145, 814.289 312.923 C 791.796 289.649, 762.938 275.490, 724.500 268.869 C 710.718 266.495, 673.552 265.478, 659 267.076 " stroke="none" fill="black" fill-rule="evenodd"/>
</svg>