<svg xmlns="http://www.w3.org/2000/svg" width="1000" height="1000" viewBox="0 0 1000 1000" version="1.1">
	<path d="M 411.292 109.896 C 396.327 116.324, 383.844 121.823, 383.551 122.116 C 383.258 122.409, 384.845 128.015, 387.076 134.574 C 394.883 157.516, 398.884 179.628, 397.638 192.932 C 396.878 201.047, 392.264 220.126, 387.495 234.878 C 381.880 252.247, 371.575 277.525, 352.947 319.621 C 325.717 381.154, 316.013 407.064, 310.624 432.619 C 304.471 461.800, 304.418 493.622, 310.482 517.528 C 312.806 526.691, 325.558 558, 326.966 558 C 327.372 558, 335.125 555.336, 344.196 552.080 C 391.383 535.140, 428.991 526.301, 458.250 525.271 C 466.913 524.966, 474 525.048, 474 525.454 C 474 528.963, 453.410 551.580, 412.507 593 C 391.053 614.725, 369.188 637.225, 363.919 643 C 295.150 718.364, 271.431 775.170, 286.675 828 C 291.817 845.821, 302.728 863.596, 314.366 873.113 C 326.267 882.846, 346.136 890.872, 367 894.376 C 396.639 899.353, 426.326 899.172, 511 893.498 C 587.487 888.373, 601.370 888.012, 627.160 890.483 C 648.148 892.494, 679.308 897.928, 696.654 902.602 C 698.197 903.018, 698.962 902.661, 699.352 901.341 C 709.294 867.771, 716.033 843.528, 715.680 842.607 C 714.623 839.855, 666.853 830.490, 638.980 827.571 C 604.761 823.988, 590.268 824.258, 504 830.094 C 429.152 835.157, 391.667 835.116, 370.025 829.947 C 358.375 827.164, 354.736 824.877, 351.180 818.099 C 342.753 802.037, 344.770 783.100, 357.587 757.955 C 373.147 727.426, 394.402 701.927, 458 637.493 C 511.866 582.919, 525.404 567.123, 535.442 547.136 C 547.057 524.007, 545.046 501.669, 529.811 484.577 C 505.858 457.705, 459.287 454.029, 383.808 473.053 C 377.378 474.674, 371.572 476, 370.906 476 C 369.992 476, 369.855 473.361, 370.350 465.250 C 371.885 440.066, 379.930 416.153, 408.788 351 C 438.371 284.208, 446.467 263.224, 454.506 232.500 C 460.048 211.316, 461.278 202.986, 461.225 187 C 461.144 162.209, 456.169 137.770, 444.789 106.250 C 442.634 100.281, 441.353 98.029, 440.155 98.105 C 439.245 98.163, 426.256 103.469, 411.292 109.896 M 488.091 275.250 C 487.081 277.587, 481.437 290.468, 475.551 303.874 C 469.541 317.559, 465.226 328.626, 465.711 329.111 C 468.845 332.245, 507.044 344.352, 530 349.486 C 562.312 356.714, 599.730 359.271, 627 356.116 C 640.878 354.510, 664.541 349.735, 679.471 345.527 C 695.779 340.932, 724 330.439, 724 328.971 C 724 328.572, 718.001 315.703, 710.670 300.373 C 701.954 282.149, 696.848 272.554, 695.920 272.657 C 695.139 272.743, 689.756 274.631, 683.958 276.853 C 652.948 288.734, 617.664 295.034, 590 293.630 C 561.917 292.205, 528.779 285.148, 500.114 274.490 C 494.952 272.571, 490.548 271, 490.328 271 C 490.109 271, 489.102 272.913, 488.091 275.250 " stroke="none" fill="black" fill-rule="evenodd"/>
</svg>