<svg xmlns="http://www.w3.org/2000/svg" width="1000" height="1000" viewBox="0 0 1000 1000" version="1.1">
	<path d="M 262.661 96.523 C 247.350 98.900, 234.616 101.050, 234.364 101.302 C 234.113 101.554, 235.480 114.301, 237.403 129.630 C 242.436 169.754, 245.232 200.957, 247.593 243.358 C 248.221 254.639, 248.162 255.190, 246.377 254.689 C 245.344 254.400, 241.800 253.864, 238.500 253.497 C 203.914 249.654, 157.381 233.004, 132.373 215.522 L 126.135 211.161 105.632 235.280 C 94.355 248.546, 85.357 259.769, 85.637 260.221 C 85.916 260.673, 92.078 264.971, 99.329 269.772 C 128.531 289.104, 167.167 304.643, 205.403 312.433 C 219.119 315.228, 237.255 318, 241.819 318 C 243.504 318, 245.099 318.351, 245.364 318.781 C 246.150 320.051, 243.268 335.355, 239.015 352.500 C 227.512 398.877, 206.009 456.904, 176.686 520.698 L 170.160 534.895 199.389 546.448 C 215.464 552.801, 229.124 558, 229.743 558 C 230.362 558, 236.175 551.138, 242.659 542.750 C 258.536 522.214, 271.755 507.383, 289.809 489.847 C 315.887 464.518, 341.133 447.757, 355.410 446.293 L 361.321 445.687 360.704 453.594 C 358.007 488.176, 328.317 552.961, 253.187 688.200 C 223.414 741.794, 211.274 764.390, 199.440 788.245 C 180.391 826.641, 175.763 840.679, 175.620 860.500 C 175.570 867.452, 176.099 874.814, 176.876 878 C 183.083 903.432, 203.688 920.041, 228.960 919.983 C 265.676 919.898, 310.153 887.621, 356.626 827.337 C 382.106 794.283, 403.115 759.174, 440.004 688 C 466.056 637.736, 477.480 618.076, 488.143 605.154 C 495.866 595.795, 497.912 594.537, 505.431 594.516 C 512.819 594.496, 516.190 596.567, 521.296 604.259 C 528.697 615.409, 533.201 630.234, 535.649 651.500 C 536.535 659.200, 537.764 666.001, 538.380 666.613 C 538.996 667.225, 551.650 669.377, 566.500 671.394 C 581.350 673.411, 594.465 675.270, 595.644 675.523 C 597.611 675.947, 598.281 674.527, 603.793 658.242 C 626.105 592.334, 662.100 538.079, 700.690 512.191 C 723.065 497.181, 747.706 491.389, 771.946 495.442 C 809.547 501.730, 834.006 521.553, 843.582 553.500 C 845.921 561.304, 846.292 564.361, 846.377 576.500 C 846.447 586.488, 845.960 592.936, 844.676 599 C 829.853 669.022, 756.472 743.660, 637.378 809.851 L 626.255 816.033 640.987 843.542 C 649.090 858.673, 655.939 871.273, 656.209 871.542 C 657.002 872.335, 688.879 854.289, 708.966 841.675 C 811.663 777.190, 876.684 707.291, 900.468 635.809 C 915.441 590.807, 913.723 548.238, 895.464 511.822 C 872.076 465.174, 826.797 436.185, 769.115 430.928 C 747.116 428.923, 723.533 432.288, 701.243 440.610 C 661.441 455.472, 624.931 487.300, 593.539 534.500 C 588.418 542.200, 581.876 552.663, 579.001 557.750 C 576.127 562.837, 573.679 567, 573.562 567 C 573.445 567, 570.908 563.991, 567.925 560.314 C 557.211 547.108, 540.752 536.550, 524.500 532.458 C 510.381 528.904, 488.024 530.728, 473.507 536.619 C 456.769 543.411, 441.988 558.078, 423.741 586 C 413.793 601.223, 405.594 616.031, 382.217 661 C 351.350 720.376, 335.465 747.712, 315.858 775.189 C 292.108 808.472, 267.827 834.246, 247.735 847.500 C 244.564 849.592, 241.782 851.115, 241.552 850.885 C 240.739 850.073, 247.184 835.260, 256.948 815.500 C 266.570 796.027, 279.729 771.686, 316.684 705 C 367.209 613.828, 391.124 565.817, 407.862 521.956 C 430.655 462.229, 430.398 424.814, 407.038 402 C 395.766 390.991, 383.092 384.993, 366.374 382.756 C 346.550 380.104, 319.159 387.987, 296.119 402.975 C 292.030 405.635, 289.966 406.531, 290.373 405.469 C 291.551 402.400, 298.848 376.584, 301.388 366.500 C 303.777 357.015, 308.167 333.890, 309.479 323.875 L 310.085 319.250 321.293 318.065 C 343.910 315.675, 370.602 310.742, 392.500 304.905 C 409.797 300.295, 436.186 291.679, 436.641 290.494 C 437.002 289.553, 416.815 232.482, 415.741 231.408 C 415.515 231.182, 411.368 232.370, 406.525 234.048 C 390.304 239.668, 370.763 244.994, 353.560 248.483 C 336.932 251.855, 313.082 255.415, 312.307 254.640 C 312.094 254.428, 311.714 250.484, 311.462 245.877 C 309.567 211.263, 308.658 197.825, 306.936 179 C 304.929 157.064, 301.047 122.806, 298.447 104.076 C 297.651 98.343, 297 93.280, 297 92.826 C 297 91.446, 291.663 92.021, 262.661 96.523 " stroke="none" fill="black" fill-rule="evenodd"/>
</svg>