<svg xmlns="http://www.w3.org/2000/svg" width="1000" height="1000" viewBox="0 0 1000 1000" version="1.1">
	<path d="M 271.118 86.130 C 254.408 89.320, 240.590 92.077, 240.411 92.256 C 240.232 92.435, 240.723 96.838, 241.504 102.041 C 243.515 115.451, 245.771 139.521, 246.971 160.361 C 248.074 179.498, 248.176 241.011, 247.133 257.500 L 246.500 267.500 239.500 267.209 C 204.850 265.769, 160.830 256.140, 130.587 243.385 C 126.214 241.541, 122.559 240.137, 122.466 240.266 C 120.328 243.234, 94.120 295.826, 94.403 296.581 C 94.971 298.100, 123.157 309.180, 137.253 313.426 C 168.458 322.826, 199.456 328.539, 230.250 330.565 C 236.162 330.955, 240.999 331.549, 240.997 331.886 C 240.988 333.963, 233.355 384.988, 230.433 402.500 C 208.787 532.253, 171.719 681.104, 130.769 802.714 C 125.173 819.332, 120.798 833.090, 121.047 833.289 C 121.959 834.017, 186.418 851.915, 186.789 851.544 C 187 851.333, 189.394 843.587, 192.108 834.330 C 218.360 744.808, 257.536 654.972, 298.220 591 C 338.728 527.304, 382.449 487.937, 422.246 479.324 C 432.386 477.130, 446.170 477.151, 452.720 479.372 C 466.106 483.909, 475.583 499.439, 480.567 525 C 482.813 536.522, 483.599 569.047, 482.046 586.188 C 474.295 671.747, 433.955 772.460, 391.105 813.238 C 383.858 820.134, 380.008 822.894, 372.147 826.830 C 351.563 837.134, 336.420 835.899, 328.029 823.230 C 322.843 815.401, 321.504 809.295, 321.508 793.500 C 321.513 771.851, 326.798 751.800, 339.478 725.333 C 359.121 684.330, 386.737 647.538, 433.292 600.351 L 457.117 576.201 435.985 553.351 C 424.362 540.783, 414.523 530.379, 414.120 530.231 C 413.034 529.833, 364.892 578.823, 354.403 591 C 319.080 632.008, 294.523 669.058, 278.174 706.008 C 259.689 747.788, 253.207 787.139, 259.462 819.610 C 268.469 866.371, 303.124 897.042, 347.079 897.155 C 380.775 897.242, 410.359 883.793, 438.555 855.568 C 459.985 834.117, 475.438 811.319, 493.504 774.500 C 520.545 719.392, 538.507 657.860, 545.174 597.500 C 547.184 579.309, 546.894 536.378, 544.665 522 C 535.708 464.222, 510.026 429.496, 467.248 417.320 C 456.386 414.228, 433.863 413.071, 420.867 414.937 C 387.242 419.764, 356.162 434.632, 325 460.795 C 313.569 470.393, 293.267 491.024, 282.694 503.788 C 278.462 508.896, 275 512.766, 275 512.387 C 275 512.008, 277.223 500.404, 279.939 486.599 C 290.724 431.792, 305 343.456, 305 331.527 C 305 329.548, 305.610 328.997, 308.250 328.590 C 310.038 328.314, 316.225 327.366, 322 326.482 C 375.936 318.232, 432.990 296.720, 481.735 266.255 C 487.364 262.736, 492.206 259.475, 492.495 259.008 C 492.904 258.346, 462.016 210.085, 459.028 206.716 C 458.646 206.285, 452.440 209.498, 445.238 213.856 C 419.295 229.553, 395.238 240.679, 367 250.039 C 352.553 254.828, 328.841 260.830, 314.500 263.328 L 311.500 263.850 311.500 213.675 C 311.500 182.268, 311.023 157.328, 310.224 147 C 307.780 115.403, 303.757 82.223, 302.213 80.928 C 301.821 80.599, 287.828 82.940, 271.118 86.130 M 666 350.483 C 656.791 352.233, 642.688 356.283, 634.001 359.671 C 619.142 365.468, 582.472 384.809, 580.600 387.838 C 580.054 388.722, 614.426 439.267, 615.934 439.796 C 616.398 439.959, 620.136 438.053, 624.242 435.560 C 634.606 429.268, 654.932 419.616, 664.500 416.443 C 669.977 414.626, 675.541 413.625, 682.143 413.266 C 691.471 412.760, 691.836 412.821, 693.347 415.126 C 698.364 422.784, 700.549 455.311, 697.571 478 C 692.954 513.169, 681.924 548.008, 663.404 585.920 C 657.649 597.701, 653.291 607.683, 653.720 608.103 C 654.149 608.523, 665.702 614.922, 679.394 622.323 L 704.288 635.779 716.021 628.027 C 758.991 599.635, 801.971 592.297, 827.886 608.927 C 838.492 615.733, 850.932 632.300, 856.157 646.580 C 857.897 651.334, 858.332 654.765, 858.364 664 C 858.400 674.373, 858.093 676.404, 855.230 684.723 C 851.125 696.651, 847.679 703.383, 839.158 716.120 C 808.283 762.271, 739.903 816.554, 649.785 866.454 C 635.192 874.534, 632.220 876.548, 632.921 877.881 C 647.598 905.815, 661.289 931.603, 661.623 931.945 C 662.126 932.461, 670.459 928.067, 691.500 916.188 C 737.779 890.061, 784.569 858.201, 820 828.690 C 837.673 813.969, 866.526 785.241, 877.940 771 C 916.654 722.699, 930.148 676.731, 918.451 633 C 909.375 599.069, 881.923 564.654, 851.483 549.043 C 834.171 540.165, 818.383 536.674, 795.500 536.666 C 778.741 536.660, 768.792 537.825, 755.001 541.408 C 751.977 542.193, 749.404 542.738, 749.284 542.617 C 749.163 542.497, 750.809 535.446, 752.940 526.949 C 766.496 472.901, 766.284 421.820, 752.376 391.160 C 743.225 370.986, 726.985 356.913, 706.500 351.407 C 698.137 349.159, 675.664 348.647, 666 350.483 " stroke="none" fill="black" fill-rule="evenodd"/>
</svg>