<svg xmlns="http://www.w3.org/2000/svg" width="1000" height="1000" viewBox="0 0 1000 1000" version="1.1">
	<path d="M 256.925 83.250 C 254.470 92.304, 252.036 108.514, 250.980 122.835 C 248.120 161.601, 257.355 202.701, 275.232 230.772 L 278.589 236.044 304.045 218.925 C 318.045 209.510, 329.864 201.464, 330.309 201.045 C 330.754 200.625, 329.504 197.347, 327.532 193.760 C 322.707 184.981, 318.483 173.123, 316.351 162.372 C 313.181 146.380, 314.282 115.247, 318.578 99.428 C 319.101 97.500, 317.055 96.714, 289.308 88.178 C 272.901 83.130, 259.161 79, 258.777 79 C 258.392 79, 257.559 80.912, 256.925 83.250 M 571 88.460 C 561.375 91.339, 548.468 95.162, 542.318 96.957 L 531.136 100.219 531.136 112.860 C 531.137 129.374, 528.297 141.070, 520.538 156.500 C 508.596 180.249, 491.270 198.183, 460.500 218.647 C 400.741 258.390, 335.094 290.121, 281.732 305.056 C 266.381 309.352, 263.052 310.599, 263.450 311.904 C 263.717 312.782, 267.119 327.206, 271.009 343.957 C 274.899 360.709, 278.213 374.546, 278.373 374.706 C 278.801 375.135, 343.127 359.748, 400.500 345.494 C 460.088 330.690, 486.793 323.439, 529.336 310.512 C 546.845 305.191, 561.372 301.038, 561.617 301.283 C 562.667 302.334, 551.262 331.198, 542.338 350.074 L 536.867 361.648 527.553 356.977 C 511.020 348.685, 492.649 345.397, 468 346.318 C 450.972 346.955, 442.651 348.427, 427.340 353.511 C 407.773 360.008, 391.277 370.024, 375.939 384.721 C 329.130 429.574, 325.580 493.782, 368.433 520.491 C 372.412 522.971, 376.193 525, 376.834 525 C 379.814 525, 376.992 527.170, 364.250 534.678 C 347.081 544.794, 342.284 547.190, 320.785 556.389 C 285.410 571.525, 250.343 583.991, 237.679 585.931 C 234.280 586.452, 226.428 587.189, 220.229 587.569 C 214.029 587.949, 208.752 588.592, 208.502 588.997 C 207.864 590.029, 209.581 654.914, 210.264 655.598 C 212.060 657.393, 350.334 639.184, 405.500 629.888 C 460.617 620.601, 479.631 615.911, 543 595.979 C 595.696 579.403, 617.387 573.567, 643 569.073 C 675.473 563.375, 701.642 564.560, 719.701 572.547 C 730.530 577.336, 742.684 587.750, 746.981 595.922 C 748.150 598.145, 747.977 598.571, 744.877 601.107 C 724.329 617.918, 667.488 633.680, 599.668 641.375 C 592.610 642.176, 586.728 642.982, 586.598 643.166 C 586.467 643.350, 587.499 657.563, 588.892 674.750 L 591.424 706 594.182 706 C 595.699 706, 605.841 704.870, 616.720 703.490 C 711.743 691.431, 774.468 668.533, 797.792 637.388 C 812.788 617.364, 815.739 596.904, 806.986 573.655 C 801.704 559.628, 783.707 538.130, 768 527.087 C 752.937 516.498, 732.141 507.857, 713.500 504.443 C 701.530 502.251, 670.359 501.416, 655.836 502.899 C 622.386 506.315, 588.099 514.800, 517.906 537.034 C 490.097 545.843, 467.581 552.391, 454.510 555.472 L 444.500 557.831 447.122 555.665 C 448.564 554.474, 456.301 548.195, 464.316 541.711 C 483.847 525.912, 504.218 506.905, 517 492.555 C 522.775 486.072, 531.483 476.657, 536.351 471.634 C 577.057 429.628, 610.945 365.886, 631.853 292 C 635.274 279.911, 643 246.027, 643 243.114 C 643 242.506, 612.786 224.476, 604.896 220.376 C 604.563 220.203, 594.663 223.153, 582.896 226.930 C 571.128 230.707, 556.100 235.477, 549.500 237.529 C 542.900 239.582, 536.825 241.508, 536 241.810 C 535.175 242.113, 538.585 238.068, 543.577 232.823 C 567.012 208.201, 582.551 181.294, 590.017 152.409 C 594.203 136.213, 595.329 125.727, 594.735 108.506 C 594.132 91.057, 592.672 82.943, 590.167 83.113 C 589.250 83.175, 580.625 85.581, 571 88.460 M 453.662 412.071 C 437.049 416.153, 419.284 428.333, 410.382 441.744 C 405.933 448.446, 402 458.655, 402 463.500 C 402 466.643, 402.291 466.964, 405.720 467.607 C 415.347 469.413, 436.096 464.064, 453 455.418 C 473.300 445.035, 484.444 434.742, 493.042 418.433 L 496.171 412.500 491.335 411.346 C 483.378 409.447, 462.724 409.844, 453.662 412.071 M 354.500 680.589 C 337.366 683.244, 301.078 694.714, 301.747 697.263 C 301.857 697.683, 308.263 710.567, 315.982 725.894 L 330.017 753.761 335.858 751.401 C 345.078 747.677, 359.403 744.166, 370.241 742.973 C 381.178 741.770, 393.359 742.743, 403.059 745.594 C 415.562 749.268, 428.576 758.195, 437.596 769.283 C 440.183 772.464, 442.591 774.939, 442.947 774.783 C 445.196 773.799, 494 739.527, 494 738.933 C 494 737.227, 483.905 724.910, 476.433 717.500 C 456.400 697.634, 431.564 685.020, 403.530 680.473 C 392.226 678.639, 366.688 678.700, 354.500 680.589 M 387.033 799.575 C 381.899 811.908, 379.851 821.276, 379.274 835.073 C 378.048 864.345, 388.499 886.885, 411.288 904.119 C 425.342 914.747, 442.666 921.926, 465.021 926.385 C 482.665 929.904, 496.080 931, 521.528 931 C 552.309 931, 576.434 928.939, 616.500 922.888 C 636.151 919.920, 690.905 909.429, 691.891 908.442 C 692.168 908.165, 689.324 894.062, 685.571 877.101 L 678.747 846.263 667.661 848.660 C 622.210 858.490, 577.579 864.881, 539.364 867.031 C 491.361 869.732, 451.559 861.635, 444.344 847.703 C 442.203 843.567, 442.275 834.699, 444.505 827.986 C 445.460 825.110, 445.839 822.445, 445.360 821.973 C 444.464 821.091, 391.311 792, 390.595 792 C 390.370 792, 388.768 795.409, 387.033 799.575 " stroke="none" fill="black" fill-rule="evenodd"/>
</svg>