<svg xmlns="http://www.w3.org/2000/svg" width="1000" height="1000" viewBox="0 0 1000 1000" version="1.1">
	<path d="M 276.144 84.074 C 259.998 85.067, 246.628 86.038, 246.433 86.233 C 246.096 86.571, 251.532 180.056, 258.003 285.203 C 259.651 311.990, 261 334.550, 261 335.337 C 261 336.123, 260.212 337.008, 259.250 337.302 C 258.288 337.596, 253 339.484, 247.500 341.497 C 224.456 349.930, 193.470 357.570, 172.500 359.990 C 167 360.624, 161.037 361.357, 159.250 361.617 L 156 362.091 156 390.420 C 156 406.002, 156.281 420.156, 156.625 421.875 C 157.230 424.902, 157.416 425, 162.533 425 C 181.641 425, 234.111 414.104, 260.750 404.604 C 263.087 403.771, 265.030 403.181, 265.067 403.294 C 265.104 403.407, 266.885 428.700, 269.023 459.500 L 272.912 515.500 268.628 519.500 C 266.273 521.700, 261.184 526.300, 257.320 529.722 L 250.295 535.945 249.707 522.222 C 248.994 505.586, 246.428 491.097, 240.600 470.802 C 235.525 453.131, 231.768 443.395, 230.157 443.745 C 229.537 443.880, 216.254 449.202, 200.640 455.573 L 172.251 467.156 174.219 472.328 C 177.527 481.024, 182.813 500.319, 184.446 509.655 C 186.820 523.223, 186.461 532.677, 183.049 546.525 C 174.073 582.952, 157.375 617.605, 129.763 657.109 L 123.047 666.719 142.773 685.091 C 153.623 695.196, 165.029 705.846, 168.119 708.759 L 173.738 714.055 187.300 696.777 C 207.094 671.559, 228.409 647.643, 254.822 621.013 L 278.144 597.500 277.536 622 C 276.407 667.466, 271.819 723.240, 264.666 778.475 L 262.467 795.450 249.422 776.475 C 223.107 738.199, 218.624 732.068, 217.555 732.892 C 216.975 733.340, 205.475 741.495, 192 751.016 C 178.525 760.537, 167.311 768.479, 167.080 768.666 C 166.849 768.853, 169.421 772.942, 172.795 777.753 C 211.772 833.326, 224.493 853.693, 244.780 893 C 250.032 903.175, 254.435 911.642, 254.564 911.817 C 254.837 912.183, 308.343 908.894, 308.813 908.482 C 308.985 908.331, 311.347 895.224, 314.063 879.354 C 333.734 764.398, 344.381 644.256, 341.079 574.500 C 340.481 561.850, 339.728 549.661, 339.406 547.413 L 338.822 543.326 352.661 532.309 C 436.901 465.248, 522.395 419.640, 602.500 399.031 C 624.270 393.430, 640.187 390.949, 658.566 390.291 C 703.363 388.688, 729.857 401.623, 745.067 432.523 C 753.794 450.254, 757.550 470.859, 756.779 496.774 C 756.377 510.263, 756.076 512.203, 753.199 519.864 C 747.711 534.472, 738.019 549.236, 722.913 566 C 716.775 572.812, 700.135 588.056, 698.017 588.809 C 697.539 588.978, 699.587 584.253, 702.567 578.309 C 710.578 562.332, 713.380 550.893, 713.420 534 C 713.455 519.533, 711.874 511.556, 706.617 499.668 C 691.890 466.369, 652.945 445.252, 610 447.280 C 545.910 450.308, 487.038 497.794, 470.874 559.500 C 468.806 567.391, 468.521 570.719, 468.557 586.500 C 468.594 603.175, 468.797 605.147, 471.305 613.288 C 475.911 628.235, 483.778 642.125, 493.925 653.228 C 497.796 657.463, 498.693 659.010, 497.736 659.804 C 495.214 661.898, 448.960 685.114, 430.951 693.325 C 408.589 703.522, 382.020 714.205, 364.884 719.891 L 352.269 724.076 351.662 732.288 C 351.328 736.805, 350.752 752.538, 350.383 767.250 C 349.807 790.187, 349.916 794, 351.152 794 C 351.945 794, 363.822 794.903, 377.547 796.006 C 473.529 803.723, 565.614 817.598, 616.748 832.047 C 656.969 843.413, 732.403 871.950, 809.942 905.133 C 827.785 912.769, 842.728 918.672, 843.149 918.251 C 843.816 917.584, 865.781 869.124, 868.040 863.337 C 868.825 861.326, 867.911 860.746, 855.074 855.103 C 786.628 825.015, 695.026 789.396, 650.310 775.481 C 613.236 763.945, 565.415 754.131, 507 746.070 C 494.625 744.363, 483.064 742.733, 481.308 742.448 C 478.420 741.980, 480.064 740.936, 498.612 731.455 C 518.326 721.378, 546.886 705.763, 562.652 696.442 C 566.791 693.995, 570.503 692.193, 570.901 692.439 C 571.298 692.684, 577.074 693.358, 583.736 693.937 C 629.146 697.880, 682.304 680.101, 729.309 645.250 C 776.437 610.309, 809.496 564.972, 818.571 522.838 C 820.766 512.647, 821.526 486.238, 820.062 471 C 814.892 417.167, 793.678 376.490, 758.042 352.083 C 715.694 323.078, 657.298 318.436, 583 338.167 C 506.478 358.488, 424.326 399.588, 347.634 455.917 C 340.008 461.518, 333.641 465.966, 333.485 465.801 C 333.329 465.635, 331.865 445.025, 330.231 420 C 327.500 378.160, 327.391 374.394, 328.880 373.178 C 329.771 372.451, 337.104 367.650, 345.176 362.511 C 382.624 338.666, 431.636 300.592, 482.860 255.552 C 509.394 232.221, 534.579 208.596, 534.145 207.443 C 533.950 206.925, 524.126 196.498, 512.314 184.273 L 490.837 162.045 475.668 176.182 C 426.980 221.558, 373.354 265.727, 329.822 296.307 L 323.144 300.998 322.575 295.749 C 322.263 292.862, 319.521 248.200, 316.484 196.500 C 313.446 144.800, 310.678 97.888, 310.333 92.250 C 309.745 82.640, 309.574 82.008, 307.603 82.135 C 306.446 82.209, 292.290 83.082, 276.144 84.074 M 598.349 512.926 C 561.342 522.932, 531.580 555.563, 531.700 586 C 531.757 600.640, 539.506 612.378, 554.111 619.950 L 560.676 623.354 582.588 608.778 C 594.640 600.762, 608.155 591.246, 612.621 587.634 C 623.018 579.225, 637.544 563.832, 641.840 556.672 C 655.034 534.684, 652.313 521.407, 633 513.531 C 626.120 510.725, 607.679 510.403, 598.349 512.926 " stroke="none" fill="black" fill-rule="evenodd"/>
</svg>