<svg xmlns="http://www.w3.org/2000/svg" width="1000" height="1000" viewBox="0 0 1000 1000" version="1.1">
	<path d="M 414 250.553 C 389.957 255.709, 367.584 270.023, 341.919 296.671 C 328.516 310.587, 316.809 324.678, 295.119 353 C 242.779 421.343, 227.923 438.244, 205.500 454.957 C 191.153 465.650, 171.565 472.546, 148.355 475.076 C 135.734 476.452, 114.541 475.759, 102 473.561 C 97.325 472.741, 92.435 471.943, 91.133 471.785 C 88.853 471.510, 88.459 472.566, 80.414 500.500 C 72.508 527.954, 71.284 533, 72.531 533 C 72.822 533, 79.088 534.113, 86.453 535.473 C 144.452 546.185, 202.148 535.780, 241.500 507.511 C 268.610 488.036, 289.192 465.509, 336.984 403 C 366.836 363.956, 376.529 352.282, 391.411 337.453 C 407.907 321.014, 420.409 313, 429.559 313 C 432.242 313, 433.518 313.802, 436.317 317.250 C 449.373 333.330, 462.464 359.373, 492.991 430 C 519.931 492.329, 533.404 520.728, 548.487 546.977 C 577.269 597.067, 604.919 623.112, 637.123 630.467 C 649.971 633.401, 665.023 634.961, 680.500 634.962 C 708.003 634.964, 724.951 631.274, 762.841 617.032 C 775.853 612.141, 790.317 607.371, 794.982 606.432 C 810.698 603.269, 831.561 606.106, 846.520 613.440 C 858.910 619.515, 860.804 623.751, 855.747 634.081 C 845.740 654.526, 808.683 682.516, 752.476 712.085 L 739.178 719.081 745.464 732.291 C 759.973 762.776, 766.050 775.384, 766.409 775.742 C 767.570 776.904, 808.923 754.321, 830 741.015 C 862.965 720.205, 890.110 697.105, 902.914 678.967 C 915.217 661.539, 920.937 646.317, 921.733 628.890 C 922.577 610.397, 918.170 595.866, 907.517 582.022 C 888.139 556.839, 850.156 541.420, 808 541.625 C 785.267 541.735, 773.517 544.587, 734.846 559.381 C 707.423 569.872, 690.302 572.925, 669.792 570.982 C 655.514 569.629, 649.858 568.478, 644.795 565.895 C 637.880 562.368, 625.063 548.476, 615.704 534.364 C 596.523 505.446, 584.878 481.888, 550.522 402.500 C 513.014 315.829, 498.832 289.641, 478.396 269.311 C 470.575 261.531, 467.728 259.432, 459.829 255.624 C 454.698 253.150, 447.830 250.648, 444.566 250.063 C 436.524 248.622, 421.911 248.856, 414 250.553 " stroke="none" fill="black" fill-rule="evenodd"/>
</svg>