<svg xmlns="http://www.w3.org/2000/svg" width="1000" height="1000" viewBox="0 0 1000 1000" version="1.1">
	<path d="M 721 294.026 C 663.720 304.199, 599.231 344.057, 526.367 414.323 L 513.234 426.987 505.981 414.244 C 477.705 364.566, 444.069 328.153, 411.136 311.568 C 392.712 302.291, 370.544 301.383, 348.030 308.985 C 309.271 322.072, 259.243 365.225, 208.589 429.262 C 204.787 434.068, 201.412 437.994, 201.089 437.987 C 199.973 437.963, 190.562 422.696, 185.759 413.120 C 175.213 392.092, 167.293 358.444, 165.327 326.317 L 164.696 316 134.430 316 C 117.783 316, 103.452 316.273, 102.582 316.607 C 100.563 317.382, 100.553 321.262, 102.520 340.879 C 105.236 367.956, 110.209 392.463, 117.462 414.500 C 124.908 437.125, 141.097 466.022, 158.134 487.097 C 164.657 495.167, 184.907 515, 186.623 515 C 187.052 515, 199.051 510.387, 213.286 504.750 L 239.169 494.500 245.766 485.500 C 270.212 452.149, 307.613 411.280, 331 392.363 C 347.160 379.291, 363.159 370.147, 373.698 367.959 C 378.769 366.906, 379.485 367.008, 384.318 369.464 C 387.168 370.912, 393.462 375.278, 398.303 379.165 C 424.470 400.174, 454.391 445.670, 474.977 495.750 C 478.425 504.137, 481.753 510.976, 482.373 510.948 C 482.993 510.919, 494.611 508.556, 508.192 505.698 L 532.883 500.500 542.138 490 C 547.227 484.225, 558.625 472.300, 567.465 463.500 C 626.121 405.110, 683.274 367.367, 728.167 357.375 C 732.676 356.372, 740.121 355.737, 747.500 355.727 C 757.686 355.714, 760.676 356.097, 767.284 358.260 C 795.127 367.378, 818.349 400.654, 825.505 441.692 C 834.947 495.835, 815.165 557.455, 770.350 613.500 C 752.940 635.273, 721.247 665.212, 694 685.625 C 654.217 715.431, 597.578 747.234, 545.286 769.130 C 536.918 772.633, 530.055 775.848, 530.036 776.273 C 529.933 778.500, 553.537 834, 554.587 834 C 555.267 834, 562.501 831.135, 570.662 827.633 C 721.260 763.012, 823.885 675.899, 868.278 575 C 897.757 507.998, 899.152 437.037, 872.139 378.697 C 857.018 346.041, 831.163 318.048, 803.223 304.081 C 794.435 299.689, 781.069 295.371, 770.615 293.548 C 758.256 291.393, 734.542 291.621, 721 294.026 " stroke="none" fill="black" fill-rule="evenodd"/>
</svg>