<svg xmlns="http://www.w3.org/2000/svg" width="1000" height="1000" viewBox="0 0 1000 1000" version="1.1">
	<path d="M 430 90.231 C 414.875 98.462, 402.386 105.304, 402.246 105.436 C 402.106 105.567, 405.781 113.524, 410.413 123.117 C 436.261 176.650, 459.950 240.583, 476.511 301.500 C 484.126 329.513, 485.110 334.042, 483.675 334.476 C 481.075 335.262, 336.483 341.242, 266 343.478 C 238.775 344.342, 211.944 345.302, 206.376 345.612 L 196.253 346.175 196.723 366.338 C 196.982 377.427, 197.487 391.675, 197.847 398 L 198.500 409.500 237.500 408.314 C 300.819 406.389, 396.111 402.676, 450 400.033 C 460.725 399.507, 475.848 398.771, 483.607 398.397 L 497.715 397.716 498.890 405.608 C 505.127 447.495, 509.696 504.911, 510.691 553.907 C 511.292 583.480, 511.257 584.299, 509.404 583.780 C 508.357 583.487, 500.750 581.130, 492.500 578.543 C 459.922 568.326, 422.348 560.054, 387.500 555.426 C 363.286 552.210, 318.490 550.966, 297.253 552.919 C 207.289 561.192, 143.123 602.053, 107.597 673.694 C 90.260 708.653, 83.025 739.342, 84.311 772.465 C 85.801 810.855, 99.401 842.370, 125.989 869.045 C 166.781 909.970, 230.039 924.085, 288.500 905.305 C 316.038 896.459, 338.944 882.338, 360.827 860.716 C 372.617 849.067, 379.313 840.897, 389.127 826.187 C 395.123 817.199, 396.644 814.241, 395.712 813.378 C 393.979 811.774, 343.379 783, 342.291 783 C 341.793 783, 338.506 787.356, 334.985 792.680 C 327.218 804.424, 313.313 819.241, 302.524 827.271 C 260.555 858.505, 203.631 856.906, 170.469 823.564 C 155.224 808.236, 148.053 789.782, 148.017 765.785 C 147.970 733.600, 163.393 695.173, 187.308 667.895 C 229.962 619.241, 309.002 603.854, 412.520 624.053 C 458.440 633.012, 499.751 646.305, 547.113 667.358 L 552.726 669.854 561.761 649.677 C 566.730 638.580, 571.275 627.191, 571.862 624.368 C 578.107 594.319, 574.032 484.978, 563.881 410.182 C 562.737 401.758, 561.959 394.715, 562.151 394.532 C 562.343 394.349, 577.125 393.245, 595 392.079 C 639.350 389.187, 687.321 385.461, 718.500 382.486 C 751.637 379.324, 794.237 374.053, 795.379 372.974 C 796.034 372.354, 787.511 311.238, 786.645 310.351 C 786.565 310.269, 784.025 310.600, 781 311.086 C 760.884 314.320, 702.456 320.242, 654 323.958 C 620.884 326.497, 549.772 331.135, 549.524 330.771 C 549.422 330.622, 548.297 325.775, 547.022 320 C 543.560 304.306, 532.786 265.127, 525.854 243.021 C 509.709 191.533, 487.006 134.239, 465.827 91.539 C 461.473 82.760, 457.818 75.507, 457.705 75.421 C 457.592 75.336, 445.125 82, 430 90.231 M 687 637.791 C 687 639.326, 688.350 652.920, 690 668 C 691.650 683.080, 693 695.931, 693 696.558 C 693 697.306, 696.879 697.929, 704.250 698.364 C 743.483 700.684, 776.155 714.272, 802.539 739.242 C 827.516 762.880, 845.722 796.683, 856.538 839.500 C 858.066 845.550, 859.583 850.806, 859.908 851.181 C 860.234 851.556, 867.700 850.312, 876.500 848.418 C 885.300 846.523, 899.002 843.615, 906.949 841.954 C 914.896 840.294, 921.528 838.805, 921.688 838.646 C 922.251 838.082, 916.032 814.063, 912.422 802.861 C 884.693 716.820, 829.153 660.851, 752.178 641.379 C 734.666 636.950, 719.161 635, 701.449 635 L 687 635 687 637.791 " stroke="none" fill="black" fill-rule="evenodd"/>
</svg>