<svg xmlns="http://www.w3.org/2000/svg" width="1000" height="1000" viewBox="0 0 1000 1000" version="1.1">
	<path d="M 599.632 82.940 C 589.426 108.440, 572.891 143.781, 561.240 165 C 547.695 189.670, 541.833 197.427, 517.025 223.518 C 505.569 235.567, 497.387 246.275, 491.983 256.294 C 478.974 280.412, 476.495 308.711, 484.659 339.931 C 486.035 345.194, 487.237 350.101, 487.331 350.835 C 487.437 351.677, 483.624 353.563, 477 355.945 C 413.772 378.683, 346.875 421.457, 297.421 470.766 C 253.758 514.303, 242.270 569.413, 263.207 634.904 C 281.873 693.291, 326.382 758.248, 397.480 830.862 C 427.765 861.794, 472.465 901.717, 498.578 921.157 C 499.183 921.607, 509.783 918.569, 522.748 914.229 L 545.840 906.500 551.304 899 C 576.628 864.237, 607.675 798.804, 621.052 752 C 622.860 745.675, 624.661 740.125, 625.054 739.666 C 625.447 739.207, 630.604 740.218, 636.514 741.912 C 661.846 749.174, 696.396 755.490, 737.343 760.344 C 738.906 760.529, 740.350 760.190, 740.551 759.590 C 740.848 758.706, 746.026 700.091, 746.006 697.848 C 746.003 697.490, 743.188 696.891, 739.750 696.518 C 725.646 694.987, 698.485 690.655, 683 687.466 C 667.724 684.320, 639.606 676.939, 638.435 675.768 C 638.156 675.489, 638.482 671.040, 639.160 665.880 C 640.562 655.220, 640.907 609.889, 639.707 594 L 638.915 583.500 658.043 557.500 C 689.846 514.273, 704.419 491.759, 715.422 468.857 C 732.103 434.137, 734.326 409.026, 722.837 385.109 C 714.051 366.817, 692.633 350.481, 665.671 341.506 C 637.716 332.200, 598.438 329.550, 562.656 334.555 C 555.491 335.558, 550.451 335.851, 549.897 335.297 C 547.718 333.118, 544 314.588, 544 305.907 C 544 290.380, 547.358 284.161, 566.798 263.680 C 573.679 256.431, 582.179 247.151, 585.688 243.057 C 602.409 223.552, 622.173 189.318, 642.151 145.256 C 652.762 121.853, 662.885 97.047, 662.037 96.523 C 661.193 96.001, 604.051 74, 603.540 74 C 603.358 74, 601.600 78.023, 599.632 82.940 M 580.750 396.716 C 579.237 396.945, 578 397.254, 578 397.402 C 578 397.551, 581.874 406.183, 586.609 416.586 C 597.100 439.633, 608.592 467.730, 615.195 486.476 C 617.903 494.163, 620.242 500.576, 620.394 500.727 C 620.892 501.226, 641.600 470.727, 648.047 460 C 659.131 441.556, 666 425.069, 666 416.907 C 666 413.981, 665.346 412.627, 662.963 410.622 C 655.889 404.670, 640.492 399.357, 623.678 397.066 C 616.282 396.058, 586.685 395.817, 580.750 396.716 M 506 413.084 C 482.089 421.511, 449.776 436.702, 427.625 449.930 C 400.674 466.026, 375.020 485.361, 350 508.433 C 332.629 524.452, 325.011 535.458, 319.843 552 C 317.776 558.616, 317.503 561.445, 317.529 576 C 317.555 590.473, 317.884 593.790, 320.206 603 C 333.108 654.180, 373.194 714.540, 440 783.381 C 461.177 805.203, 506.411 847, 508.850 847 C 511.204 847, 532.970 804.904, 543.494 780 C 549.623 765.498, 561.648 730.115, 564.488 718.232 L 566.224 710.964 563.362 708.825 C 552.295 700.553, 541.166 685.472, 536.925 673 C 533.514 662.969, 533.135 647.944, 536.002 636.468 C 540.002 620.459, 548.670 602.719, 563.211 580.780 C 568.682 572.527, 571.293 567.661, 571.174 565.943 C 570.453 555.512, 558.061 514.451, 547.500 487.500 C 535.956 458.042, 514.470 410.953, 512.626 411.073 C 512.007 411.113, 509.025 412.018, 506 413.084 " stroke="none" fill="black" fill-rule="evenodd"/>
</svg>