<svg xmlns="http://www.w3.org/2000/svg" width="1000" height="1000" viewBox="0 0 1000 1000" version="1.1">
	<path d="M 538.689 76.701 C 537.324 77.055, 537.010 77.826, 537.411 79.835 C 537.704 81.301, 539.773 94.875, 542.009 110 C 544.245 125.125, 546.277 138.085, 546.525 138.801 C 546.861 139.771, 548.444 139.938, 552.738 139.457 C 558.651 138.794, 573.805 140.405, 575.249 141.849 C 576.949 143.549, 560.010 166.585, 541.851 187.267 C 537.393 192.345, 525.008 206.011, 514.330 217.635 L 494.916 238.769 487.708 239.859 C 483.744 240.458, 464.525 243.420, 445 246.441 C 347.881 261.468, 295.486 266.864, 260 265.495 C 221.454 264.007, 184.656 259.129, 150.183 250.936 C 145.094 249.726, 140.695 248.972, 140.408 249.259 C 139.359 250.308, 122.313 309.076, 122.945 309.466 C 124.362 310.342, 148.227 316.007, 160.547 318.392 C 176.818 321.542, 204.259 325.471, 222 327.191 C 243.178 329.244, 306.361 328.951, 327 326.703 C 356.098 323.535, 414.406 315.992, 422.432 314.358 L 425.364 313.761 421.932 317.766 C 363.641 385.785, 343.955 417.831, 340.945 449.603 C 339.427 465.617, 340.674 480.563, 347.602 529.384 C 349.544 543.070, 350.765 554.594, 350.316 554.994 C 349.867 555.393, 344.100 559.467, 337.500 564.047 C 235.746 634.653, 180.303 699.212, 153.383 778.438 C 148.731 792.127, 146.972 802.377, 146.944 815.946 C 146.910 832.946, 149.407 844.152, 156.111 857.075 C 174.778 893.059, 214.166 906.188, 259 891.369 C 282.479 883.608, 310.201 866.340, 338.500 841.849 C 399.549 789.015, 426.687 714.026, 420.955 614 C 420.278 602.175, 419.673 590.953, 419.612 589.063 C 419.503 585.705, 419.811 585.430, 433 577.138 C 487.391 542.942, 543.670 515.904, 585 504.110 C 595.987 500.975, 611.868 497.535, 612.488 498.155 C 612.687 498.354, 609.658 501.213, 605.758 504.508 C 594.487 514.032, 568.007 540.622, 559.461 551 C 544.976 568.589, 534.066 587.895, 530.604 602.064 C 528.507 610.644, 528.512 625.992, 530.612 633.068 C 539.411 662.706, 565.213 676.590, 604.837 673.008 C 611.710 672.387, 622.075 671.024, 627.872 669.978 C 633.668 668.933, 638.637 668.304, 638.913 668.580 C 639.626 669.293, 641.237 793.097, 640.543 793.791 C 640.228 794.106, 638.514 793.001, 636.735 791.335 C 631.017 785.983, 619.812 777.444, 607.554 769.098 C 598.107 762.665, 595.367 761.229, 594.454 762.232 C 592.479 764.403, 561.996 813.716, 562.063 814.633 C 562.098 815.110, 566.154 818.159, 571.076 821.409 C 598.858 839.749, 618.281 860.259, 642.188 896.500 C 648.719 906.400, 654.690 914.500, 655.457 914.500 C 656.224 914.500, 668.189 908.425, 682.045 901 L 707.238 887.500 706.612 863 C 705.200 807.741, 703.994 736.887, 703.754 695.139 L 703.500 650.779 730.500 641.546 C 760.681 631.225, 784.090 622.552, 813 610.977 C 834.486 602.375, 854.149 594.185, 854.744 593.589 C 854.955 593.378, 849.878 581.122, 843.463 566.353 C 837.048 551.584, 831.413 538.509, 830.942 537.298 C 830.097 535.125, 829.877 535.182, 814.293 541.645 C 791.801 550.972, 748.264 567.816, 729.498 574.452 C 720.699 577.564, 711.066 581.005, 708.090 582.100 L 702.681 584.091 703.285 546.296 L 703.890 508.500 706.330 506.500 C 708.285 504.897, 718.973 485.522, 732.340 459.349 L 733.949 456.197 723.349 451.849 C 717.519 449.457, 712.557 447.002, 712.322 446.392 C 710.989 442.933, 728.484 375.624, 741.054 335.850 C 743.774 327.242, 746 319.517, 746 318.683 C 746 317.585, 738.066 314.522, 717.250 307.583 C 701.437 302.312, 687.953 298, 687.286 298 C 684.546 298, 661.299 378.545, 652.902 417.131 L 649.500 432.762 628.500 433.277 C 606.328 433.821, 598.422 434.877, 577.500 440.089 C 534.917 450.696, 478.057 475.952, 423.153 508.648 C 416.315 512.721, 410.571 515.905, 410.390 515.724 C 409.128 514.461, 404 469.786, 404 460.051 C 404 438.421, 433.858 397.898, 511.409 314.280 C 524.153 300.540, 526.840 298.120, 529.909 297.618 C 531.884 297.296, 550.150 294.312, 570.500 290.988 C 667.411 275.158, 682.184 273.056, 703.500 272.067 C 731.561 270.764, 785.484 273.744, 819.483 278.478 C 824.973 279.242, 829.527 279.785, 829.603 279.684 C 829.678 279.583, 831.793 265.558, 834.303 248.518 C 837.206 228.805, 838.504 217.311, 837.871 216.920 C 835.500 215.455, 787.803 210.582, 759.569 208.920 C 747.761 208.225, 728.401 207.971, 712.069 208.296 C 682.109 208.894, 675.158 209.633, 625.362 217.513 C 609.769 219.981, 596.780 222, 596.498 222 C 596.217 222, 598.736 218.738, 602.096 214.750 C 619.232 194.416, 632.218 174.586, 636.744 161.842 C 640.202 152.106, 640.929 138.272, 638.545 127.557 C 632.710 101.332, 611.249 82.890, 580.281 77.490 C 572.249 76.089, 543.180 75.538, 538.689 76.701 M 356.250 102.733 L 335 103.040 335 133.432 C 335 166.842, 335.620 172.481, 340.872 186.833 C 345.305 198.948, 353.572 212.748, 363.388 224.417 L 365.842 227.334 380.671 213.477 C 388.827 205.855, 399.247 196.061, 403.827 191.713 L 412.154 183.807 408.208 178.153 C 399.139 165.159, 399.561 167.230, 399 133 L 398.500 102.500 388 102.463 C 382.225 102.443, 367.938 102.565, 356.250 102.733 M 632.065 566.677 C 619.236 578.285, 594.521 607.854, 596.223 609.557 C 597.213 610.547, 637.360 603.974, 638.737 602.596 C 638.904 602.429, 638.920 592.968, 638.771 581.573 L 638.500 560.854 632.065 566.677 M 342.880 638.910 C 285.669 682.314, 249.188 722.611, 227.509 766.349 C 213.655 794.299, 208.664 811.246, 210.988 822.444 C 213.073 832.484, 217.654 835.152, 229.357 833.145 C 247.697 830.001, 270.851 816.327, 298.006 792.605 C 330.914 763.857, 348.847 728.266, 355.518 678.460 C 357.081 666.795, 358.821 628, 357.782 628 C 357.495 628, 350.789 632.909, 342.880 638.910 M 771.887 660.225 C 759.236 685.515, 757.948 688.557, 759.504 689.475 C 767.991 694.485, 782.924 705.027, 789.254 710.478 C 803.438 722.694, 811.845 735.859, 822.789 763 C 827.787 775.394, 835.200 798.221, 836.531 805.312 C 837.004 807.835, 837.756 809, 838.913 809 C 841.479 809, 899.037 798.296, 899.623 797.710 C 900.397 796.936, 894.477 774.394, 889.892 760.659 C 880.986 733.982, 866.686 703.795, 855.945 689 C 847.973 678.020, 831.115 661.507, 818.170 652 C 808.406 644.828, 788.322 632.054, 786.753 632.017 C 786.343 632.008, 779.653 644.701, 771.887 660.225 " stroke="none" fill="black" fill-rule="evenodd"/>
</svg>