<svg xmlns="http://www.w3.org/2000/svg" width="1000" height="1000" viewBox="0 0 1000 1000" version="1.1">
	<path d="M 653 186.606 C 603.078 188.900, 560.844 195.859, 502.026 211.483 C 464.309 221.501, 438.870 226.217, 404.500 229.563 C 381.972 231.755, 340.089 231.795, 318.494 229.644 C 304.812 228.281, 297.880 227.265, 275.489 223.343 L 272.478 222.816 264.054 252.985 C 257.276 277.259, 255.896 283.317, 256.988 283.992 C 259.332 285.441, 284.768 290.008, 303 292.253 C 318.106 294.113, 325.836 294.414, 359.500 294.454 C 400.356 294.502, 408.941 293.972, 441 289.423 C 464.964 286.022, 488.002 281.192, 517.007 273.488 C 582.889 255.988, 634.104 248.720, 680 250.357 C 746.315 252.723, 787.279 269.764, 803.016 301.532 C 809.039 313.690, 811.327 325.855, 810.722 342.500 C 810.198 356.907, 807.734 366.632, 801.473 379 C 780.652 420.132, 723.735 458.692, 641 487.717 C 624.853 493.381, 592.685 502.900, 582.750 504.953 C 579.587 505.607, 577 506.622, 577 507.209 C 577 508.394, 588.846 565.832, 589.464 567.640 C 589.932 569.011, 599.092 567, 622.500 560.389 C 678.766 544.497, 733.506 520.853, 773.500 495.167 C 800.587 477.770, 830.334 450.810, 844.026 431.250 C 866.504 399.137, 876.362 367.219, 874.680 332 C 871.384 262.985, 829.228 215.287, 754.500 196.022 C 741.499 192.670, 722.804 189.516, 707.500 188.094 C 694.994 186.932, 664.207 186.091, 653 186.606 M 131.117 279.750 C 120.945 382.282, 123.876 487.331, 139.104 566 C 151.356 629.292, 171.726 680.122, 199.542 716.809 C 203.583 722.139, 207.807 727.554, 208.929 728.841 L 210.968 731.183 215.412 727.341 C 229.914 714.803, 257.868 689.371, 257.929 688.659 C 257.968 688.197, 256.043 685.497, 253.650 682.659 C 218.007 640.381, 195.470 558.342, 190.011 451 C 187.558 402.779, 189.868 324.157, 194.945 283 C 195.386 279.425, 195.570 276.304, 195.354 276.064 C 194.935 275.599, 137.931 268.089, 134.392 268.033 C 132.430 268.002, 132.202 268.816, 131.117 279.750 M 459.038 507.750 C 457.149 516.519, 456.561 538.569, 457.960 548.141 C 460.178 563.308, 466.089 578.690, 474.780 591.910 C 483.559 605.263, 502.520 620.782, 519.582 628.579 L 527.500 632.197 513.500 636.965 C 470.901 651.473, 442.373 667.036, 421.464 687.175 C 410.140 698.082, 402.642 708.165, 397.370 719.574 C 383.854 748.829, 387.454 784.248, 406.453 808.939 C 422.626 829.958, 448.934 843.056, 486 848.547 C 500.990 850.767, 533.258 851.496, 553.500 850.071 C 592.092 847.354, 635.204 840.326, 682.535 829.036 C 700.891 824.657, 732.346 816, 733.316 815.059 C 733.961 814.434, 719.717 766.277, 715.983 756.455 L 715.116 754.174 708.808 756.153 C 698.787 759.297, 662.051 768.473, 643.694 772.418 C 600.602 781.676, 567.716 785.953, 534 786.685 C 507.100 787.269, 491.432 785.919, 478.374 781.892 C 459.183 775.974, 452.188 768.584, 453.190 755.284 C 453.765 747.666, 456.135 742.997, 463.343 735.293 C 490.279 706.497, 570.372 680.534, 661.270 671.132 C 671.043 670.121, 679.227 669.106, 679.456 668.877 C 680.136 668.197, 689.066 606.733, 688.559 606.225 C 688.303 605.970, 679.410 604.698, 668.797 603.400 C 647.718 600.821, 634.646 598.417, 617 593.873 C 589.376 586.760, 554.257 574.883, 542.500 568.677 C 534.643 564.530, 527.530 557.366, 524.188 550.236 C 521.781 545.100, 521.477 543.204, 521.276 532.110 C 521.153 525.295, 520.923 519.590, 520.765 519.432 C 520.327 518.993, 462.262 502, 461.203 502 C 460.693 502, 459.719 504.587, 459.038 507.750 " stroke="none" fill="black" fill-rule="evenodd"/>
</svg>