<svg xmlns="http://www.w3.org/2000/svg" width="1000" height="1000" viewBox="0 0 1000 1000" version="1.1">
	<path d="M 452.500 75.478 C 443.150 77.275, 429.936 79.774, 423.136 81.032 L 410.772 83.320 411.355 87.410 C 411.676 89.660, 413.297 100.145, 414.958 110.711 C 417.454 126.588, 423.754 172.734, 426.449 194.883 L 427.104 200.265 416.802 199.573 C 381.307 197.190, 339.420 190.225, 307.623 181.420 C 300.541 179.459, 294.409 178.224, 293.998 178.677 C 293.125 179.637, 274.776 234.635, 274.611 236.784 C 274.482 238.466, 277.448 239.476, 298.500 244.917 C 336.643 254.775, 381.342 261.638, 420.129 263.592 L 433.757 264.278 434.341 269.389 C 434.662 272.200, 435.231 278.663, 435.606 283.750 C 436.243 292.397, 436.164 293.001, 434.393 293.011 C 431.292 293.030, 404.404 302.390, 391.500 307.943 C 364.590 319.523, 319.546 344.229, 320.310 346.990 C 320.927 349.223, 351.843 397.361, 353.275 398.320 C 354.050 398.838, 359.280 396.331, 367.500 391.502 C 388.430 379.206, 424.921 362.045, 439.587 357.601 C 441.627 356.983, 441.701 357.420, 442.943 377.358 C 444.104 396.013, 444.071 397.962, 442.548 400.287 C 440.261 403.777, 414.909 426.877, 399.324 439.671 C 387.927 449.028, 358.569 471.494, 355.232 473.412 C 354.433 473.870, 350.541 471.234, 344.732 466.299 C 330.971 454.611, 327.413 451.884, 317 445.043 C 267.573 412.573, 212.956 410.966, 172.417 440.788 C 133.990 469.057, 107.532 521.302, 96.853 590 C 94.931 602.362, 94.593 608.554, 94.560 632 C 94.526 656.070, 94.794 660.997, 96.708 671.500 C 103.966 711.319, 119.406 736.741, 143.500 748.541 C 152.751 753.073, 160.447 754.998, 172.099 755.698 C 207.626 757.831, 249.359 737.274, 299.500 692.944 C 320.120 674.714, 366.788 625.595, 365.830 623.130 C 365.466 622.193, 361.951 619.266, 335.363 597.753 L 317.226 583.078 308.872 592.789 C 281.924 624.114, 244.709 658.205, 219.722 674.454 C 201.946 686.014, 187.314 692, 176.833 692 C 171.229 692, 170.944 691.870, 168.572 688.250 C 156.945 670.502, 154.479 623.180, 163.036 582.022 C 169.272 552.033, 181.082 524.294, 195.067 506.791 C 215.505 481.212, 239.291 476.582, 270.778 492.056 C 280.768 496.965, 297.826 508.886, 303.111 514.651 C 304.548 516.218, 311.020 529.200, 317.495 543.500 C 323.970 557.800, 329.425 569.681, 329.619 569.902 C 329.812 570.123, 334.082 568.394, 339.107 566.059 C 346.671 562.545, 348.455 562.045, 349.477 563.157 C 350.155 563.896, 357.161 572.150, 365.044 581.500 C 386.978 607.513, 399.541 621.353, 413.234 634.587 C 424.959 645.919, 443.458 660.884, 448.683 663.266 L 451.006 664.324 450.463 697.912 C 450.165 716.385, 449.742 732.961, 449.524 734.747 C 449.194 737.445, 449.497 738.070, 451.313 738.442 C 452.516 738.689, 466.817 739.176, 483.094 739.526 L 512.688 740.161 513.339 730.330 C 513.697 724.924, 513.992 712.131, 513.995 701.901 L 514 683.303 531.250 682.695 C 561.880 681.616, 582.566 676.644, 604.663 665.050 C 658.246 636.937, 678.431 578.439, 656.926 513.587 C 647.544 485.292, 627.458 464.455, 598.500 452.973 C 579.554 445.461, 549.951 441.745, 525 443.745 C 517.575 444.340, 511.196 444.529, 510.823 444.164 C 510.451 443.799, 510.025 438.325, 509.875 432 L 509.604 420.500 514.408 414 C 534.814 386.392, 542.966 358.740, 537.384 336.064 C 533.388 319.831, 520.833 303.349, 506.921 296.074 L 500.369 292.648 499.139 277.702 C 498.463 269.482, 498.131 262.536, 498.402 262.265 C 498.672 261.995, 506.005 260.740, 514.697 259.478 C 559.817 252.924, 597.830 240.119, 634.283 219.194 C 639.663 216.106, 643.938 213.045, 643.783 212.393 C 643.345 210.556, 610.587 160.007, 609.833 160.003 C 609.466 160.001, 605.641 162.094, 601.333 164.654 C 574.472 180.612, 532.530 193.932, 497.827 197.526 L 491.155 198.216 490.580 193.858 C 490.264 191.461, 488.189 175.325, 485.968 158 C 482.197 128.574, 474.468 76.060, 473.496 73.250 C 472.926 71.605, 472.331 71.668, 452.500 75.478 M 752.868 333.435 C 728.728 337.675, 699.091 349.138, 671.469 364.920 C 658.732 372.197, 633 389.123, 633 390.224 C 633 390.638, 641.549 402.200, 651.998 415.919 L 670.996 440.862 680.248 434.579 C 707.654 415.968, 738.838 401.328, 760.500 396.902 C 769.535 395.055, 781.807 395.273, 787.314 397.376 C 795.764 400.603, 802.146 410.258, 805.180 424.402 C 806.622 431.128, 805.611 446.448, 803.075 456.275 C 794.989 487.614, 769.334 528.894, 737.391 561.964 L 725.282 574.500 727.973 584 C 729.453 589.225, 732.813 601.198, 735.440 610.607 L 740.215 627.714 756.357 627.230 C 775.277 626.662, 780.717 627.666, 793.988 634.171 C 800.711 637.467, 804.141 640.017, 810.488 646.435 C 822.345 658.425, 829.396 671.731, 834.575 691.890 C 839.039 709.263, 837.065 720.241, 826.680 735.804 C 820.600 744.915, 806.855 758.936, 795 768.119 C 751.434 801.868, 687.917 831.988, 589.500 865.570 C 566.473 873.428, 559.565 876.164, 559.780 877.341 C 560.251 879.931, 577.978 935.312, 578.503 935.837 C 578.774 936.108, 589.235 932.929, 601.748 928.773 C 726.765 887.250, 810.615 844.293, 857.006 798 C 893.443 761.641, 907.008 723.592, 898.009 682.994 C 893.075 660.735, 884.292 639.437, 872.819 621.909 C 865.375 610.534, 847.849 592.727, 837 585.513 C 830.668 581.303, 817.075 573.858, 813.612 572.704 C 813.062 572.521, 815.363 568.575, 818.725 563.935 C 844.158 528.836, 860.169 495.079, 867.074 462 C 869.982 448.073, 870.254 424.627, 867.660 411.628 C 859.757 372.025, 835.405 344.478, 799.387 334.398 C 791.422 332.170, 763.379 331.589, 752.868 333.435 M 520.234 507.920 C 516.788 508.348, 513.765 508.901, 513.518 509.149 C 513.270 509.397, 513.490 530.502, 514.007 556.050 C 514.523 581.597, 514.958 606.212, 514.973 610.750 L 515 619 526.869 619 C 568.771 619, 596.240 602.223, 601.052 573.691 C 603.850 557.103, 598.282 531.619, 589.607 521.309 C 586.171 517.226, 576.678 512.361, 567.314 509.885 C 558.641 507.591, 531.876 506.474, 520.234 507.920 M 429.597 528.973 C 419.751 532.236, 411.352 535.264, 410.934 535.703 C 410.171 536.503, 434.131 564.929, 445.222 576.381 L 451.148 582.500 450.574 570.093 C 450.258 563.269, 450 549.882, 450 540.343 C 450 527.124, 449.703 523.005, 448.750 523.020 C 448.063 523.031, 439.444 525.710, 429.597 528.973 " stroke="none" fill="black" fill-rule="evenodd"/>
</svg>