<svg xmlns="http://www.w3.org/2000/svg" width="1000" height="1000" viewBox="0 0 1000 1000" version="1.1">
	<path d="M 535.911 80.178 C 517.364 117.065, 483.290 155.465, 444.500 183.193 C 422.828 198.685, 392.530 215.024, 368.750 224.043 C 362.288 226.495, 357.001 228.824, 357 229.221 C 357 230.452, 377.187 287.463, 377.862 288.137 C 378.853 289.127, 408.199 277.094, 425.197 268.728 C 490.883 236.398, 547.683 185.355, 582.768 127.126 C 591.232 113.079, 599.512 96.090, 598.390 95.071 C 597.708 94.451, 566.266 82.036, 542.330 72.935 C 540.161 72.111, 539.712 72.617, 535.911 80.178 M 611.500 283.585 C 559.185 287.538, 522.110 294.977, 472.500 311.476 C 409.474 332.436, 342.072 365.854, 279.250 407.287 C 271.413 412.456, 265 416.278, 265 415.781 C 265 413.594, 270.455 396.220, 273.988 387.153 C 278.871 374.623, 282.580 367.275, 288.398 358.597 C 290.929 354.823, 293 351.421, 293 351.036 C 293 350.306, 251.101 305.714, 249.946 305.214 C 249.583 305.057, 246.799 307.982, 243.761 311.714 C 227.155 332.112, 212.518 363.690, 203.499 398.573 C 197.669 421.125, 195.868 433.542, 195.319 455 C 194.886 471.916, 195.097 476.018, 196.915 485.956 C 198.068 492.256, 199.346 497.716, 199.756 498.089 C 200.165 498.462, 209.884 502.202, 221.354 506.400 L 242.207 514.032 250.854 506.925 C 309.477 458.738, 390.006 411.449, 461.500 383.230 C 511.178 363.621, 560.784 351.477, 605.395 348.004 C 630.437 346.054, 666.122 347.141, 690 350.581 C 709.070 353.329, 731 360.310, 731 363.634 C 731 364.382, 727.757 368.408, 723.794 372.580 C 705.527 391.810, 673.570 406.703, 623.500 419.319 C 577.788 430.837, 540.907 436, 504.337 436 L 482.171 436 481.567 443.250 C 480.862 451.711, 476.690 534.591, 474.532 583 C 473.711 601.425, 472.753 622.424, 472.403 629.665 L 471.768 642.831 465.634 643.493 C 434.967 646.807, 394.120 655.558, 369.156 664.162 C 322.952 680.087, 298.093 707.875, 298.017 743.685 C 297.959 771.313, 312.720 798.779, 344.967 831.039 C 370.998 857.081, 403.092 881.708, 446 908.566 C 459.921 917.280, 501.701 941, 503.128 941 C 503.631 941, 509.179 930.538, 515.457 917.750 L 526.872 894.500 528.461 859.500 C 530.913 805.458, 531.868 780.587, 533.008 741.054 C 533.586 721.008, 534.158 704.515, 534.279 704.403 C 534.401 704.290, 540.575 704.612, 548 705.119 C 595.139 708.337, 638.977 719.069, 675.282 736.278 C 682.977 739.926, 688.419 741.971, 688.957 741.418 C 689.595 740.762, 717.398 696.003, 721.587 688.889 C 722.133 687.960, 701.974 677.795, 689 672.457 C 646.619 655.020, 595.089 643.551, 549.118 641.325 L 535.736 640.677 536.360 627.089 C 536.703 619.615, 538.143 588.075, 539.559 557 C 540.976 525.925, 542.279 500.033, 542.455 499.463 C 542.630 498.892, 549.462 497.622, 557.637 496.640 C 607.248 490.680, 669.906 474.955, 705.788 459.461 C 738.543 445.317, 768.389 422.750, 782.614 401.372 C 794.775 383.095, 798.552 365.297, 794.025 347.596 C 790.082 332.181, 780.625 319.535, 765.528 309.490 C 740.196 292.634, 701.412 284.471, 642.500 283.594 C 628.200 283.381, 614.250 283.377, 611.500 283.585 M 465 707.678 C 439.523 711.807, 428.530 713.944, 413.500 717.692 C 387.709 724.123, 373.979 729.690, 365.460 737.169 C 362.590 739.689, 362 740.893, 362 744.231 C 362 762.264, 401.939 802.723, 454.681 838.119 L 464.862 844.952 465.414 839.726 C 466.014 834.044, 467.475 797.129, 469.005 749 C 470.285 708.727, 470.275 706.970, 468.750 707.136 C 468.063 707.211, 466.375 707.455, 465 707.678 " stroke="none" fill="black" fill-rule="evenodd"/>
</svg>