<svg xmlns="http://www.w3.org/2000/svg" width="1000" height="1000" viewBox="0 0 1000 1000" version="1.1">
	<path d="M 542.546 90.267 C 542.339 90.945, 541.895 94.425, 541.560 98 C 541.225 101.575, 538.058 132.400, 534.523 166.500 C 516.591 339.432, 515.562 353.599, 512.991 462.944 C 512.416 487.388, 511.746 507.588, 511.501 507.832 C 511.257 508.077, 497.882 507.745, 481.778 507.095 C 414.373 504.375, 365.705 496.587, 355.356 486.865 C 353.108 484.753, 353.108 484.738, 354.912 479.991 C 361.292 463.200, 389.508 434.230, 422.250 410.855 L 435 401.753 434.962 397.627 C 434.858 386.441, 431.123 349.694, 430.021 349.013 C 429.361 348.605, 422.449 347.952, 414.661 347.562 C 406.872 347.171, 397.131 346.212, 393.014 345.429 C 383.192 343.562, 372.985 340.125, 372.351 338.471 C 371.411 336.024, 374.974 324.556, 379.601 315.136 C 383.443 307.314, 383.978 305.558, 382.850 304.471 C 382.108 303.755, 370.484 295.489, 357.021 286.101 L 332.542 269.033 329.239 274.266 C 316.152 295.008, 308.829 318.526, 308.927 339.500 C 309.005 356.394, 312.339 366.666, 321.512 378.280 C 325.403 383.208, 334.404 390.882, 339.927 393.982 C 341.204 394.698, 339.697 396.715, 331.932 404.682 C 303.624 433.731, 289.976 459.853, 290.015 484.910 C 290.032 496.322, 291.852 504.775, 296.119 513.260 C 306.642 534.186, 327.426 548.531, 359.500 557.007 C 386.884 564.243, 433.182 569.415, 483.742 570.887 C 498.175 571.307, 510.145 571.841, 510.343 572.075 C 510.616 572.398, 509.461 633.734, 508.063 693.201 L 508 695.902 500.250 691.099 C 454.359 662.662, 404.322 649.275, 357.392 652.882 C 315.144 656.128, 279.605 668.013, 249.971 688.806 C 237.737 697.390, 219.149 716.019, 211.743 727.118 C 194.061 753.616, 188.041 783.478, 194.933 810.500 C 199.455 828.229, 212.701 848.891, 227.500 861.301 C 256.975 886.018, 292.016 897.843, 361.220 906.426 C 411.408 912.650, 447.245 914.437, 522 914.443 C 606.087 914.450, 675.648 911.138, 763 902.968 C 789.817 900.460, 790.008 900.422, 789.970 897.671 C 789.909 893.306, 783.278 837.944, 782.752 837.419 C 782.455 837.121, 773.051 837.792, 761.855 838.909 C 722.244 842.863, 672.897 846.346, 616 849.204 C 581.703 850.927, 461.113 850.918, 435.500 849.191 C 362.438 844.263, 315.964 836.874, 291.405 826.282 C 274.605 819.037, 263.841 810.396, 258.755 800.076 C 256.946 796.405, 256.500 793.804, 256.500 786.923 C 256.500 778.800, 256.733 777.875, 260.890 769.488 C 268.246 754.646, 282.421 741.799, 302.500 731.775 C 331.455 717.321, 369.598 712.418, 402 718.985 C 438.327 726.348, 474.550 746.109, 506.708 776.109 C 514.293 783.186, 520.867 788.981, 521.315 788.988 C 521.763 788.994, 533.126 781.330, 546.565 771.955 L 571 754.909 571.087 741.705 C 571.135 734.442, 571.923 692.950, 572.837 649.500 L 574.500 570.500 582 569.841 C 586.125 569.478, 597.600 568.662, 607.500 568.027 C 636.251 566.182, 672.723 562.464, 706.500 557.933 C 719.791 556.151, 758.912 549.912, 766.250 548.406 L 769 547.841 769 529.477 L 769 511.114 755.922 481.807 C 727.168 417.372, 701.722 356.010, 690.384 323.768 C 687.148 314.565, 684.050 307.023, 683.500 307.007 C 681.826 306.960, 625.564 324.238, 624.604 325.093 C 622.047 327.372, 650.450 400.065, 683.012 474.582 C 687.986 485.965, 691.930 495.394, 691.778 495.536 C 691.348 495.934, 646.407 500.836, 628.500 502.438 C 603.708 504.655, 576.997 506.330, 576.374 505.707 C 575.739 505.073, 577.547 422.460, 579.016 385 C 580.503 347.047, 586.451 281.800, 601.025 143.570 C 603.746 117.758, 605.852 96.519, 605.705 96.372 C 605.558 96.224, 592.626 94.727, 576.969 93.043 C 561.311 91.359, 547.245 89.769, 545.712 89.508 C 544.012 89.220, 542.777 89.516, 542.546 90.267 M 337.035 146.591 C 321.929 154.569, 309.403 161.264, 309.198 161.468 C 308.600 162.066, 320.121 179.954, 326.992 189.095 C 336.202 201.350, 358.756 223.382, 369.655 230.772 C 380.500 238.126, 393.617 244.794, 404 248.232 C 412.374 251.005, 424.784 253.549, 425.661 252.672 C 426.479 251.855, 433.491 191.158, 432.842 190.509 C 432.546 190.212, 429.647 189.279, 426.401 188.435 C 419.453 186.629, 409.854 181.546, 402.070 175.549 C 391.360 167.299, 376.617 150.433, 368.752 137.432 C 366.963 134.476, 365.275 132.063, 365 132.071 C 364.725 132.079, 352.141 138.613, 337.035 146.591 " stroke="none" fill="black" fill-rule="evenodd"/>
</svg>