<svg xmlns="http://www.w3.org/2000/svg" width="1000" height="1000" viewBox="0 0 1000 1000" version="1.1">
	<path d="M 318.359 204.750 C 318.690 256.313, 319.081 408.699, 319.230 543.387 L 319.500 788.275 306 794.198 C 275.447 807.604, 237.077 820.342, 207.500 826.898 C 182.767 832.380, 169.267 834.308, 139.750 836.575 L 132 837.171 131.998 841.335 C 131.995 845.743, 130.418 877.847, 129.521 891.750 L 128.988 900 140.244 899.989 C 193.693 899.938, 273.770 879.174, 343.532 847.274 C 404.778 819.269, 527.028 733.890, 717.500 586.096 C 778.459 538.796, 885 454.146, 885 453.013 C 885 452.420, 849.276 407.954, 846.560 405.165 C 845.483 404.060, 836.776 410.598, 795.880 443.221 C 634.087 572.285, 496.245 676.001, 406.500 736.200 L 384.500 750.958 383.891 725.729 C 383.557 711.853, 383.219 629.362, 383.141 542.416 C 383.064 455.470, 382.701 322.832, 382.335 247.666 L 381.669 111 349.714 111 L 317.759 111 318.359 204.750 " stroke="none" fill="black" fill-rule="evenodd"/>
</svg>