<svg xmlns="http://www.w3.org/2000/svg" width="1000" height="1000" viewBox="0 0 1000 1000" version="1.1">
	<path d="M 464.500 90.201 C 448.550 92.961, 435.394 95.312, 435.265 95.428 C 435.135 95.543, 435.699 99.431, 436.517 104.069 C 441.589 132.820, 453.206 211.936, 458.908 256.560 L 462.670 286 457.555 286 C 451.374 286, 431.382 283.587, 419.873 281.451 C 409.237 279.478, 383.708 272.882, 374.248 269.664 C 370.259 268.307, 366.758 267.582, 366.468 268.052 C 365.201 270.102, 344 324.377, 344 325.570 C 344 328.087, 381.722 339.044, 407 343.869 C 423.224 346.966, 440.176 349.012, 455.212 349.688 L 468.923 350.304 469.455 354.402 C 470.599 363.210, 472.019 392.870, 472.655 421.250 L 473.322 451 467.885 451 C 450.883 451, 431.916 455.625, 414.500 464.017 C 399.850 471.076, 389.200 478.894, 377.434 491.226 C 359.846 509.663, 348.443 531.277, 342.734 557 C 339.896 569.788, 339.737 593.580, 342.406 606 C 348.425 634.005, 362.932 659.709, 386.558 684.230 L 395.123 693.120 385.657 704.310 C 380.451 710.465, 369.870 722.464, 362.145 730.976 L 348.100 746.452 374.005 771.771 C 388.253 785.697, 400.170 797.082, 400.487 797.071 C 400.803 797.060, 408.086 788.377, 416.671 777.775 C 432.243 758.545, 436.100 754.066, 447.271 742.241 L 453.184 735.981 472.342 745.432 C 482.879 750.631, 492.686 755.171, 494.135 755.521 C 496.338 756.055, 499.559 754.304, 513.802 744.830 L 530.833 733.500 531.441 724.500 C 531.776 719.550, 532.376 703.825, 532.775 689.554 L 533.500 663.609 548.021 653.554 C 591.244 623.627, 631.761 605.231, 669.500 598.400 C 682.049 596.128, 712.766 595.823, 724 597.859 C 733.821 599.639, 748.976 604.478, 756.500 608.238 C 770.557 615.262, 784.649 628.247, 793.331 642.177 C 814.234 675.715, 817.659 728.098, 802.023 775.112 C 794.616 797.384, 785.699 812.301, 772.004 825.334 C 752.334 844.053, 728.081 854.343, 700.444 855.695 C 664.875 857.437, 633.858 842.934, 618.458 817.361 C 612.448 807.380, 609.824 797.424, 609.251 782.425 L 608.751 769.350 577.633 766.250 C 560.519 764.546, 546.287 763.380, 546.008 763.660 C 544.666 765.007, 545.694 797.964, 547.337 806.270 C 555.664 848.369, 581.711 882.760, 619.742 901.872 C 666.142 925.190, 719.810 925.774, 769.500 903.502 C 792.555 893.168, 819.192 871.678, 834.578 850.997 C 854.758 823.872, 869.290 783.963, 874.085 742.500 C 875.545 729.873, 875.518 699.309, 874.037 687.500 C 868.095 640.121, 848.285 599.851, 817.872 573.327 C 765.660 527.792, 683.729 519.544, 602.198 551.616 C 588.588 556.969, 563.977 568.719, 552.542 575.322 C 548.165 577.850, 544.470 579.803, 544.330 579.664 C 544.191 579.524, 545.629 574.623, 547.525 568.774 C 557.858 536.910, 555.366 508.990, 540.208 486.765 L 537.299 482.500 536.646 438.376 C 536.288 414.108, 535.485 385.983, 534.862 375.876 C 534.240 365.769, 533.679 354.640, 533.615 351.143 L 533.500 344.787 545.500 341.491 C 566.970 335.595, 587.455 326.303, 604.928 314.535 C 614.650 307.987, 631.054 294.421, 631.716 292.381 C 631.916 291.766, 622.248 281.219, 610.232 268.942 L 588.386 246.622 581.536 252.432 C 573.377 259.354, 564.181 265.401, 554.177 270.423 C 546.010 274.522, 526.620 281.331, 526.284 280.217 C 526.165 279.823, 524.266 265.323, 522.064 247.996 C 516.583 204.869, 507.214 140.314, 500.946 102.500 C 497.944 84.387, 498.126 84.988, 495.671 85.092 C 494.477 85.143, 480.450 87.442, 464.500 90.201 M 161.530 123.301 C 160.430 129.804, 152.624 211.477, 147.557 269.500 C 141.046 344.071, 136.044 415.004, 132.820 478.500 C 131.175 510.893, 131.164 594.738, 132.801 616.500 C 138.392 690.831, 146.109 752.161, 159.064 825.218 C 165.124 859.399, 176.183 914.550, 177.162 915.478 C 177.495 915.793, 236.044 898.289, 236.637 897.697 C 236.805 897.529, 237.876 888.866, 239.018 878.446 C 250.503 773.638, 277.941 670.111, 308.042 618.011 C 311.319 612.338, 314 607.385, 314 607.002 C 314 606.270, 262.919 572, 261.828 572 C 260.042 572, 242.692 604.280, 235.068 621.789 C 226.965 640.396, 213.088 680.459, 208.411 698.750 C 207.391 702.737, 206.280 706, 205.940 706 C 204.459 706, 197.778 634.978, 195.922 599.500 C 191.857 521.784, 201.308 363.210, 222.559 152.618 C 223.940 138.933, 224.843 127.510, 224.567 127.234 C 224.290 126.957, 212.237 125.474, 197.782 123.938 C 183.327 122.402, 169.379 120.911, 166.786 120.624 C 162.123 120.108, 162.065 120.138, 161.530 123.301 M 745.926 182.250 C 745.886 184.588, 745.090 198.780, 744.158 213.789 L 742.465 241.079 744.982 241.563 C 766.567 245.717, 786.115 256.673, 798.056 271.309 C 805.129 279.978, 812.446 295.259, 815.866 308.500 C 818.289 317.884, 818.985 319.466, 820.603 319.268 C 821.646 319.140, 835.122 317.002, 850.548 314.518 C 865.975 312.033, 879.137 310, 879.798 310 C 881.645 310, 881.283 307.185, 877.581 292.793 C 863.774 239.117, 828.905 201.028, 778.393 184.449 C 768.068 181.060, 754.070 178, 748.890 178 C 746.168 178, 745.996 178.248, 745.926 182.250 M 454.512 516.614 C 443.332 519.317, 434.309 524.618, 424.982 533.964 C 415.859 543.106, 411.667 549.840, 407.370 562.255 C 403.981 572.045, 403.174 585.894, 405.433 595.500 C 408.581 608.886, 419.611 627.518, 430.788 638.329 L 434.747 642.159 447.689 622.829 C 454.807 612.198, 463.139 599, 466.205 593.500 L 471.780 583.500 472.362 549.250 L 472.944 515 466.722 515.083 C 463.300 515.129, 457.805 515.818, 454.512 516.614 " stroke="none" fill="black" fill-rule="evenodd"/>
</svg>