<svg xmlns="http://www.w3.org/2000/svg" width="1000" height="1000" viewBox="0 0 1000 1000" version="1.1">
	<path d="M 630.680 82.520 C 614.829 85.978, 601.621 89.046, 601.329 89.338 C 601.037 89.630, 602.874 101.261, 605.411 115.185 C 615.203 168.915, 620.764 211.916, 624.462 262.500 L 625.047 270.500 614.274 273.854 C 567.190 288.514, 511.128 314.298, 459.502 345.035 C 425.817 365.091, 378.361 398.788, 346.250 425.454 C 337.862 432.419, 330.581 437.859, 330.070 437.544 C 328.186 436.379, 298.098 397.222, 292.770 389 C 284.797 376.697, 284.157 374.441, 286.314 366.219 C 293.585 338.495, 331.808 284.285, 380.994 231.939 L 392.796 219.378 400.459 200.569 C 404.673 190.223, 407.889 181.152, 407.604 180.411 C 406.759 178.208, 370.404 160.697, 358.437 156.728 C 322.991 144.972, 280.522 138.995, 247.611 141.132 C 217.857 143.063, 184.207 151.245, 144.732 166.145 C 131.913 170.984, 107.401 181.373, 106.220 182.468 C 106.065 182.611, 112.215 195.602, 119.886 211.337 L 133.833 239.947 141.276 236.508 C 170.203 223.143, 205.124 211.884, 233.396 206.807 C 247.252 204.319, 272.332 203.885, 287 205.879 C 303.834 208.169, 313.978 210.227, 313.359 211.227 C 313.021 211.775, 307.061 219.035, 300.115 227.362 C 268.374 265.412, 244.407 300.994, 233.048 326.933 C 224.696 346.005, 221.571 359.040, 221.646 374.500 C 221.692 384.099, 222.096 386.675, 224.821 394.723 C 230.532 411.590, 238.590 424.695, 260.042 452 C 266.739 460.525, 274.692 470.753, 277.714 474.728 L 283.210 481.957 267.221 498.728 C 178.350 591.951, 124.569 682.975, 114.917 756.500 C 113.287 768.915, 114.336 796.594, 116.917 809.298 C 122.849 838.489, 132.345 857.825, 148.449 873.500 C 163.845 888.485, 179.996 895.472, 202 896.664 C 229.608 898.161, 261.277 886.251, 290.961 863.208 C 308.307 849.743, 330.245 826.601, 344.718 806.500 C 358.114 787.895, 375.480 755.295, 383.338 734 C 391.813 711.032, 398.250 684.719, 401.196 661 C 402.850 647.684, 402.837 608.553, 401.175 596 C 397.039 564.765, 388.284 536.253, 373.900 507.172 L 366.300 491.806 379.900 480.322 C 441.748 428.093, 513.215 383.225, 580 354.696 C 599.528 346.355, 622.965 337.631, 623.747 338.413 C 624.861 339.527, 619.617 366.118, 616.335 376 C 603.807 413.721, 583.333 455.128, 567.648 474.467 C 564.648 478.166, 561.448 478.562, 526.500 479.555 C 495.886 480.425, 468.824 478.660, 448.493 474.467 L 445.485 473.847 437.207 504.088 C 432.655 520.721, 429.283 534.681, 429.715 535.110 C 430.928 536.316, 451.749 539.829, 467.471 541.480 C 508.656 545.805, 561.886 543.805, 603 536.386 C 628.177 531.844, 660.987 523.279, 698.866 511.363 C 708.418 508.358, 716.353 506.034, 716.501 506.200 C 716.648 506.365, 707.858 514.989, 696.967 525.364 C 669.538 551.493, 616.970 603.954, 598.777 623.353 C 587.733 635.130, 424.704 824.133, 415.273 836.093 C 414.225 837.423, 417.542 840.639, 438.139 858.269 L 462.232 878.889 523.239 807.695 C 556.794 768.538, 585.204 735.949, 586.373 735.276 C 589.953 733.215, 603.285 728.284, 607.125 727.601 L 610.750 726.956 613.381 735.228 C 617.388 747.823, 619.025 759.473, 620.021 782.500 C 620.521 794.050, 620.945 804.667, 620.965 806.094 L 621 808.687 638.250 809.360 C 647.737 809.729, 660.495 810.314, 666.601 810.660 L 677.701 811.288 684.495 798.894 C 697.146 775.818, 711.895 755.743, 728.770 738.636 C 763.481 703.447, 794.032 693.537, 823.052 708.052 C 832.419 712.737, 838.434 718.179, 841.890 725.096 C 844.607 730.534, 845 732.350, 845 739.478 C 845 752.567, 839.851 765.985, 829.008 781.154 C 807.231 811.619, 770.520 839.502, 716.500 866.607 C 700.225 874.774, 691.598 879.629, 691.781 880.520 C 692.053 881.843, 715.947 936.126, 716.584 936.866 C 717.166 937.543, 743.780 924.854, 759.279 916.509 C 846.201 869.710, 897.223 815.025, 907.510 757.634 C 908.877 750.007, 909.144 744.900, 908.687 735.134 C 908.048 721.480, 906.177 712.931, 901.286 701.333 C 885.737 664.459, 842.177 638, 797.021 638 C 770.724 638, 745.760 646.067, 720.500 662.726 C 707.102 671.562, 696.933 680.085, 683.275 693.923 C 676.531 700.756, 670.892 706.156, 670.743 705.923 C 670.594 705.691, 669.201 702.800, 667.647 699.500 C 662.825 689.262, 653.563 678.536, 643.534 671.576 C 641.693 670.298, 643.785 667.979, 676.534 634.983 C 725.579 585.570, 796.774 517.602, 860.280 459.565 C 871.676 449.150, 881 440.201, 881 439.678 C 881 438.791, 853.773 393.794, 850.693 389.590 C 849.348 387.755, 848.472 388.019, 828.127 396.401 C 776.591 417.633, 711.271 441.222, 667.535 454.396 C 659.305 456.876, 652.420 458.753, 652.236 458.569 C 652.051 458.385, 654 453.569, 656.566 447.867 C 677.190 402.038, 685.188 373.517, 688.142 335.272 C 688.953 324.770, 689.709 319.942, 690.593 319.603 C 693.871 318.345, 724.138 313.851, 738.411 312.503 C 759.412 310.519, 796.693 310.553, 816.084 312.574 C 824.390 313.439, 831.482 313.859, 831.843 313.506 C 832.798 312.574, 841.778 252.628, 841.084 251.815 C 839.695 250.184, 811.473 247.807, 787.500 247.301 C 754.342 246.601, 727.663 248.453, 697.608 253.543 C 692.717 254.371, 688.545 254.879, 688.337 254.671 C 688.129 254.463, 687.282 246.464, 686.455 236.896 C 682.997 196.879, 676.385 148.597, 668.394 105 C 662.882 74.928, 663.145 75.974, 661.142 76.116 C 660.239 76.180, 646.531 79.062, 630.680 82.520 M 303.329 553.250 C 257.660 602.745, 224.874 648.165, 202.427 693.035 C 188.106 721.660, 180.698 743.963, 177.975 766.648 C 175.255 789.306, 183.407 820.653, 194.287 829.374 C 203.951 837.121, 224.130 832.290, 246.760 816.812 C 256.278 810.302, 279.450 787.430, 287.938 776.165 C 312.790 743.186, 328.832 706.312, 336.154 665.333 C 338.125 654.303, 338.447 649.128, 338.446 628.500 C 338.445 601.530, 337.062 591.219, 330.576 569.821 C 327.170 558.585, 319.006 538.010, 317.950 538.004 C 317.648 538.002, 311.068 544.862, 303.329 553.250 " stroke="none" fill="black" fill-rule="evenodd"/>
</svg>