<svg xmlns="http://www.w3.org/2000/svg" width="1000" height="1000" viewBox="0 0 1000 1000" version="1.1">
	<path d="M 286.031 112.353 C 285.036 114.634, 279.186 127.505, 273.032 140.956 C 262.982 162.921, 262.011 165.535, 263.495 166.620 C 266.333 168.695, 299.665 181.577, 318.500 187.878 C 361.505 202.264, 398.788 210.052, 432.899 211.776 L 447.232 212.500 436.027 222.500 C 406.466 248.883, 384.059 279.350, 373.411 307.639 C 366.464 326.096, 363.327 351.313, 365.902 368 C 369.218 389.488, 384.267 405.129, 407.889 411.639 C 418.841 414.657, 436.941 416.385, 448.406 415.507 L 457.312 414.825 416.406 455.712 C 361.846 510.246, 326.769 547.258, 302.405 576 C 283.936 597.788, 226.937 669.978, 109.207 820.687 C 101.393 830.689, 95.023 839.239, 95.051 839.687 C 95.079 840.134, 102.842 846.458, 112.301 853.740 C 121.760 861.022, 132.914 869.650, 137.086 872.913 L 144.672 878.846 176.875 837.568 C 208.785 796.665, 209.166 796.226, 218.789 789.294 C 292.027 736.537, 364.281 707.494, 408.797 712.919 C 420.095 714.296, 429.011 717.524, 437.973 723.482 C 453.166 733.582, 464.620 746.406, 493.239 785.357 C 518.637 819.925, 529.872 833.809, 543.500 847.470 C 567.925 871.955, 592.858 887.009, 620.686 894.074 C 685.344 910.488, 759.448 882.869, 842 811.587 C 863.540 792.988, 907.623 747.370, 906.709 744.626 C 906.507 744.022, 895.615 734.783, 882.503 724.096 L 858.664 704.664 850.179 714.082 C 828.406 738.250, 797.553 766.965, 774.500 784.517 C 743.247 808.312, 708.717 826.064, 682 832.071 C 638.242 841.909, 606.869 827.705, 569.742 781.244 C 566.113 776.703, 554.833 761.628, 544.676 747.744 C 507.020 696.273, 486.718 675.958, 459.500 662.516 C 441.745 653.747, 429.071 650.391, 409 649.142 C 382.719 647.508, 355.667 651.432, 324.534 661.393 C 318.503 663.322, 313.424 664.758, 313.249 664.582 C 312.836 664.170, 343.814 625.485, 354.938 612.522 C 375.839 588.165, 401.657 561.236, 461.447 501.426 C 496.676 466.185, 536.075 427.260, 549 414.926 C 561.925 402.592, 572.645 391.706, 572.821 390.736 C 573.108 389.163, 562.188 328.978, 561.469 328.172 C 561.309 327.991, 550.717 330.809, 537.932 334.434 C 500.170 345.140, 461.778 352.020, 440 351.983 C 435.325 351.976, 430.870 351.571, 430.101 351.083 C 427.190 349.241, 431.158 332.543, 437.487 320 C 457.570 280.197, 515.819 233.410, 592.691 195.338 L 609.881 186.824 603.340 168.162 C 599.742 157.898, 595.260 145, 593.380 139.500 C 591.500 134, 589.622 128.962, 589.206 128.305 C 588.634 127.400, 586.636 127.587, 580.975 129.075 C 567.425 132.637, 541.727 137.893, 522.965 140.941 C 489.141 146.435, 477.703 147.429, 448 147.455 C 423.860 147.477, 418.911 147.203, 407.500 145.216 C 377.523 139.998, 338.557 128.542, 304.949 115.065 L 287.841 108.205 286.031 112.353 " stroke="none" fill="black" fill-rule="evenodd"/>
</svg>