<svg xmlns="http://www.w3.org/2000/svg" width="1000" height="1000" viewBox="0 0 1000 1000" version="1.1">
	<path d="M 405.784 79.203 C 402.246 84.316, 394.216 96.078, 387.939 105.340 C 374.662 124.930, 374.177 121.868, 392 130.955 C 451.612 161.347, 527.085 172.192, 604 161.419 C 616.658 159.646, 645.207 154.016, 646.236 153.090 C 646.793 152.589, 635.254 102.243, 632.436 92.883 C 631.997 91.423, 630.909 91.493, 621.225 93.600 C 550.743 108.937, 478.627 102.378, 424 75.662 C 418.225 72.837, 413.211 70.387, 412.858 70.216 C 412.504 70.045, 409.321 74.089, 405.784 79.203 M 760 136.659 C 706.822 140.317, 635.353 156.984, 518.730 192.923 L 485.959 203.021 469.830 199.493 C 460.959 197.553, 453.566 196.100, 453.402 196.265 C 453.237 196.430, 452.221 200.521, 451.143 205.357 C 450.066 210.193, 449.030 214.302, 448.842 214.489 C 448.337 214.992, 387.276 234.014, 359 242.478 C 312.220 256.481, 276.136 265.743, 251.182 270.153 C 233.359 273.303, 214.216 273.354, 204.440 270.279 C 191.637 266.251, 185.080 259.401, 180.723 245.500 C 178.949 239.842, 178.526 236.055, 178.514 225.748 L 178.500 212.997 175 212.340 C 173.075 211.979, 159.218 209.354, 144.207 206.506 C 129.196 203.659, 116.693 201.688, 116.422 202.127 C 114.905 204.581, 114.045 226.414, 115.020 237.728 C 119.923 294.668, 154.262 329.969, 210.684 336.071 C 245.093 339.793, 303.500 327.076, 420.806 290.322 C 427.025 288.373, 432.344 287.011, 432.627 287.294 C 432.911 287.577, 431.288 296.230, 429.022 306.522 C 426.755 316.814, 425.055 325.389, 425.244 325.577 C 425.432 325.765, 442.442 330.480, 463.043 336.054 C 483.644 341.629, 500.907 346.576, 501.404 347.049 C 503.602 349.138, 489.631 363.413, 477.500 371.471 C 469.188 376.993, 454.960 384.404, 446.750 387.488 C 444.137 388.469, 442.002 389.323, 442.006 389.386 C 442.009 389.449, 447.091 402.775, 453.299 419 C 463.175 444.809, 464.832 448.456, 466.544 448.151 C 467.620 447.959, 473.963 445.343, 480.640 442.336 C 534.176 418.231, 566.736 380.710, 572.049 337 C 572.915 329.876, 572.752 326.161, 571.045 314.054 C 569.924 306.108, 568.668 299.304, 568.254 298.934 C 567.839 298.563, 552.784 294.304, 534.798 289.469 C 516.811 284.633, 501.665 280.411, 501.139 280.086 C 500.175 279.490, 502.577 266.241, 503.919 264.754 C 505.322 263.199, 599.537 234.869, 634 225.639 C 700.577 207.809, 752.525 198.733, 778.506 200.392 C 802.792 201.944, 825.021 210.982, 838.939 224.965 C 861.952 248.085, 851.098 269.433, 809.659 282.554 C 783.491 290.839, 739.826 294.672, 700.566 292.130 C 691.253 291.527, 683.517 291.150, 683.376 291.291 C 683.017 291.650, 677.989 354.322, 678.294 354.628 C 678.431 354.764, 689.558 355.374, 703.021 355.983 C 746.695 357.959, 784.410 354.927, 816.500 346.861 C 868.113 333.888, 902.111 306.338, 912.167 269.337 C 915.175 258.269, 915.174 238.789, 912.165 227.500 C 909.122 216.088, 900.346 199.016, 892.513 189.275 C 864.025 153.846, 811.770 133.097, 760 136.659 M 265.505 366.668 C 249.558 371.337, 236.355 375.311, 236.166 375.500 C 235.422 376.244, 244.881 397.028, 249.489 404.775 C 270.188 439.572, 300.824 464.367, 338.663 476.946 C 350.395 480.846, 366.677 484.656, 367.613 483.721 C 368.200 483.134, 377 426.627, 377 423.443 C 377 421.460, 376.106 421.004, 369.250 419.496 C 351.176 415.519, 335.799 407.417, 322.582 394.906 C 313.435 386.247, 304.163 373.478, 299.974 363.767 C 298.485 360.317, 296.903 358.063, 296 358.107 C 295.175 358.147, 281.452 361.999, 265.505 366.668 M 600.262 385.209 C 593.619 398.569, 584.791 415.173, 580.645 422.107 C 565.931 446.715, 546.007 471.201, 518.255 498.781 L 498.854 518.063 514.177 541.984 C 522.605 555.140, 529.988 565.926, 530.585 565.953 C 531.182 565.979, 565.545 553.826, 606.948 538.946 C 648.350 524.066, 682.353 512.029, 682.510 512.196 C 682.848 512.556, 663.850 562.543, 662.214 565.600 C 661.493 566.948, 657.938 568.882, 652.295 570.999 C 615.242 584.895, 570.588 607.857, 542.534 627.442 C 489.114 664.735, 453.313 712.499, 440.930 763 C 438.973 770.980, 438.605 775.060, 438.631 788.500 C 438.668 807.281, 440.359 815.261, 447.213 829 C 453.333 841.266, 466.116 854.078, 478 859.857 C 490.346 865.860, 497.251 867.401, 512 867.445 C 529.833 867.498, 542.811 864.052, 560.780 854.493 C 595.671 835.932, 623.878 799.908, 660.999 726.500 C 667.952 712.750, 676.932 694.300, 680.955 685.500 C 687.302 671.616, 707.577 624.608, 709.288 619.812 C 709.619 618.884, 711.377 617.696, 713.195 617.172 C 715.013 616.649, 722.722 614.330, 730.327 612.020 C 737.931 609.710, 744.335 608.002, 744.558 608.225 C 744.781 608.447, 735.985 635.554, 725.013 668.461 C 714.040 701.369, 705.346 728.789, 705.691 729.396 C 710.443 737.742, 731.500 771, 732.032 771 C 732.426 771, 739.369 768.539, 747.461 765.531 C 779.556 753.601, 807.926 749.893, 821.424 755.863 C 827.722 758.649, 829.348 762.230, 829.432 773.500 C 829.493 781.545, 829.196 783.078, 826.634 787.946 C 819.527 801.451, 799.826 816.168, 772.995 828.017 C 737.195 843.827, 695.418 855.516, 612 873.064 C 588.075 878.097, 568.391 882.313, 568.258 882.433 C 568.125 882.552, 571.163 896.098, 575.008 912.535 C 578.854 928.971, 582 942.775, 582 943.210 C 582 944.786, 578.373 945.483, 654 929.369 C 799.686 898.327, 869.858 860.723, 888.880 803.500 C 897.306 778.151, 893.932 746.430, 880.591 725.575 C 864.389 700.247, 833.441 687.088, 795.796 689.521 L 785.092 690.213 805.651 628.545 C 816.958 594.627, 826.050 566.753, 825.855 566.603 C 825.660 566.452, 816.644 558.897, 805.820 549.814 L 786.141 533.299 773.952 535.628 C 767.249 536.909, 757.025 539.100, 751.232 540.496 C 745.440 541.892, 740.486 542.819, 740.223 542.557 C 739.961 542.294, 743.223 532.499, 747.472 520.790 C 751.721 509.080, 758.053 491.067, 761.543 480.759 L 767.888 462.018 756.694 452.225 C 732.056 430.669, 728.897 428, 728.021 428 C 727.521 428, 705.832 435.650, 679.824 445 C 653.816 454.350, 632.225 462, 631.844 462 C 631.463 462, 634.111 456.938, 637.729 450.750 C 649.588 430.469, 671.174 386.767, 669.905 385.606 C 669.557 385.287, 617.319 362.827, 613.663 361.424 C 612.759 361.077, 608.531 368.580, 600.262 385.209 M 263 575.625 C 256.125 577.506, 231.825 583.803, 209 589.617 C 167.706 600.137, 167.450 600.188, 157.500 599.808 C 146.354 599.382, 140.096 597.177, 130.919 590.441 C 127.683 588.065, 125.581 587.143, 124.640 587.685 C 121.217 589.657, 76.107 624.581, 76.056 625.298 C 75.932 627.061, 90.418 640.151, 98.284 645.385 C 116.100 657.239, 133.227 662.864, 154.153 663.733 C 170.624 664.417, 176.941 663.420, 212.302 654.557 C 228.361 650.532, 241.661 647.384, 241.858 647.561 C 242.055 647.738, 240.612 654.547, 238.651 662.692 C 229.980 698.700, 227.591 717.506, 227.623 749.500 C 227.661 787.661, 232.565 819.123, 243.600 852 C 247.879 864.751, 264.442 899, 266.329 899 C 267.071 899, 278.161 894.581, 290.973 889.181 L 314.269 879.362 319.511 863.431 C 334.465 817.986, 356.794 769.907, 374.631 744.748 C 376.484 742.134, 378 739.620, 378 739.162 C 378 738.476, 332.111 703.819, 328.345 701.661 C 326.382 700.537, 311.182 724.468, 297.006 751 L 290.862 762.500 291.379 743 C 292.349 706.436, 300.863 667.142, 317.662 621.700 C 320.671 613.560, 322.991 606.497, 322.817 606.005 C 322.154 604.131, 279.029 572.005, 277.308 572.102 C 276.314 572.159, 269.875 573.744, 263 575.625 M 612.500 659.124 C 596.656 667.804, 574.464 682.352, 563 691.573 C 526.772 720.713, 500.906 762.575, 502.154 790.049 C 502.622 800.363, 504.645 803.366, 511.422 803.808 C 517.931 804.232, 527.097 800.982, 536.146 795.041 C 556.493 781.684, 577.280 751.295, 607.462 690.784 C 621.582 662.476, 626.510 651.996, 625.698 652.001 C 625.589 652.002, 619.650 655.207, 612.500 659.124 " stroke="none" fill="black" fill-rule="evenodd"/>
</svg>