<svg xmlns="http://www.w3.org/2000/svg" width="1000" height="1000" viewBox="0 0 1000 1000" version="1.1">
	<path d="M 376.264 115.250 C 360.941 145.099, 344.114 170.941, 329.924 186.416 C 326.941 189.669, 319.100 196.621, 312.500 201.864 C 295.800 215.130, 273.926 237.265, 266.120 248.796 C 253.157 267.945, 248.091 282.457, 247.272 302.785 C 246.466 322.779, 248.564 332.497, 261.062 366.670 C 263.778 374.096, 266 380.549, 266 381.011 C 266 381.473, 261.439 384.839, 255.864 388.492 C 236.413 401.236, 212.326 420.663, 187.761 443.418 C 172.265 457.771, 136.500 493.695, 136.500 494.906 C 136.500 495.407, 146.840 505.281, 159.477 516.848 L 182.453 537.878 208.477 512.166 C 239.613 481.402, 268.428 456.396, 285.235 445.554 C 287.958 443.797, 287.974 443.802, 289.042 446.611 C 289.632 448.162, 291.092 452.755, 292.288 456.818 L 294.461 464.204 286.667 479.519 C 257.936 535.974, 189.929 642.352, 127.576 728.371 C 121.703 736.474, 116.656 743.734, 116.360 744.504 C 116.033 745.355, 123.537 754.851, 135.481 768.703 C 146.294 781.241, 155.717 791.906, 156.423 792.402 C 157.324 793.036, 162.198 789.690, 172.811 781.152 C 181.119 774.468, 188.273 769.034, 188.708 769.075 C 189.144 769.117, 192.715 773.504, 196.644 778.825 C 215.889 804.885, 249.130 842.453, 300.520 896.221 L 313.634 909.942 328.567 886.864 C 336.780 874.171, 344.309 861.939, 345.298 859.682 C 348.064 853.372, 357.412 821.550, 362.390 801.500 C 376.350 745.270, 386.573 679.583, 387.719 638.746 L 388.274 618.991 412.887 602.602 C 463.123 569.151, 499.307 548.032, 524.385 537.525 C 538.746 531.508, 545.053 530, 555.845 530 C 573.626 530, 584.467 534.209, 595.508 545.398 C 605.241 555.263, 609.909 564.867, 614.511 584.500 C 616.445 592.750, 618.204 599.990, 618.420 600.590 C 618.689 601.334, 627.162 600.472, 645.157 597.871 C 659.646 595.776, 671.745 594.048, 672.044 594.031 C 672.344 594.014, 675.470 590.063, 678.991 585.250 C 687.225 573.997, 713.891 547.305, 725.500 538.696 C 736.206 530.756, 753.959 521.600, 762.969 519.372 C 772.333 517.056, 783.936 517.858, 790.623 521.282 C 804.340 528.305, 810.925 544.380, 809.730 567.926 C 808.702 588.190, 802.986 607.643, 790.903 632 C 765.930 682.338, 719.764 731.542, 656.156 775.616 C 655.887 775.803, 690.074 826.218, 691.622 827.918 C 692.085 828.427, 697.445 824.684, 714.500 811.942 C 778.772 763.925, 827.944 706.381, 853.403 649.391 C 876.915 596.761, 880.198 546.592, 862.566 509.371 C 856.706 497, 851.155 489.318, 841.220 479.830 C 814.899 454.692, 776.645 447.632, 737.233 460.640 C 714.142 468.261, 686.165 486.248, 663.651 507.947 L 654.803 516.475 651.673 512.488 C 633.599 489.462, 609.907 474.461, 582 468.375 C 569.990 465.756, 541.828 465.760, 530.500 468.383 C 501.088 475.194, 455.783 498.322, 398.630 535.701 C 389.902 541.409, 382.329 546.174, 381.802 546.290 C 381.275 546.405, 379.351 539.256, 377.526 530.401 C 374.051 513.546, 368.744 491.446, 364.691 476.954 L 362.302 468.409 365.722 459.454 C 370.763 446.259, 374.874 429.285, 375.577 418.765 C 377.270 393.453, 365.440 374.036, 343.481 366.081 C 340.170 364.881, 335.222 363.580, 332.485 363.188 L 327.510 362.477 323.741 352.488 C 317.157 335.035, 311.264 316.671, 310.539 311.341 C 309.609 304.502, 311.949 295.504, 316.714 287.603 C 321.254 280.075, 339.120 262.040, 352.500 251.478 C 374.492 234.120, 390.968 215.125, 409.732 185.500 C 424.548 162.107, 445.161 122.696, 443.419 121.091 C 442.332 120.089, 388.116 96, 386.948 96 C 386.507 96, 381.700 104.662, 376.264 115.250 M 309.514 569.255 C 302.807 580.600, 285.516 608.666, 280.178 616.870 C 278.530 619.402, 278.536 619.421, 280.536 617.974 C 315.963 592.330, 322 587.651, 322 585.832 C 322 583.632, 317.973 556.644, 317.587 556.255 C 317.453 556.120, 313.820 561.970, 309.514 569.255 M 281.272 696.870 C 259.314 713.373, 240.845 727.482, 240.231 728.222 C 239.360 729.271, 240.961 731.995, 247.465 740.534 C 264.043 762.300, 296.012 799.326, 297.218 798.159 C 298.933 796.499, 309.857 746.488, 314.421 719.404 C 317.445 701.460, 322.058 667.724, 321.556 667.223 C 321.359 667.025, 303.231 680.366, 281.272 696.870 " stroke="none" fill="black" fill-rule="evenodd"/>
</svg>