<svg xmlns="http://www.w3.org/2000/svg" width="1000" height="1000" viewBox="0 0 1000 1000" version="1.1">
	<path d="M 417.593 110.399 C 405.121 142.445, 386.237 181.569, 370.983 206.970 C 366.534 214.378, 362.723 220.610, 362.514 220.819 C 362.305 221.028, 359.298 218.905, 355.832 216.100 C 334.108 198.522, 307.515 194.608, 277.484 204.567 C 264.279 208.946, 236.947 223.936, 237.019 226.760 C 237.039 227.556, 270.975 271.271, 273.972 274.361 C 275.728 276.171, 275.969 276.108, 282.818 272.039 C 295.297 264.625, 308.698 261.162, 313.976 263.987 C 316.428 265.299, 320.327 271.706, 319.688 273.371 C 318.825 275.621, 304.353 286.714, 295.328 292.045 C 278.782 301.818, 262.814 307.154, 249.949 307.211 C 239.219 307.257, 236.520 305.682, 234.896 298.425 C 233.888 293.923, 233.892 291.061, 234.914 283.838 C 235.614 278.896, 236.032 274.731, 235.843 274.583 C 235.116 274.011, 174.852 259.817, 174.562 260.149 C 174.393 260.342, 173.480 264.767, 172.534 269.982 C 170.357 281.989, 170.287 301.911, 172.389 311.655 C 179.184 343.155, 202.298 364.964, 234.273 370.046 C 261.564 374.384, 298.131 365.268, 328.750 346.493 C 331.087 345.059, 333.001 344.250, 333.002 344.693 C 333.003 345.137, 333.658 352.025, 334.457 360 C 335.709 372.498, 337.475 397.961, 339.504 432.778 L 340.044 442.056 331.772 445.739 C 291.408 463.711, 239.985 492.546, 209.820 514.123 C 152.664 555.005, 124.108 602.285, 126.301 652.403 C 127.136 671.496, 130.750 684.998, 139.568 701.982 C 155.851 733.341, 186.825 756.356, 219.098 761.075 C 229.184 762.549, 250.085 761.784, 261.816 759.510 C 313.309 749.529, 354.276 712.090, 379.922 651.577 C 394.813 616.441, 401.826 574.347, 403.643 509.196 L 404.321 484.893 407.678 483.490 C 414.508 480.636, 450.059 468.708, 467.500 463.418 C 507.563 451.267, 568.219 437.767, 597.614 434.460 L 603.728 433.772 604.410 444.636 C 607.305 490.749, 608.190 515.757, 608.688 565.500 C 609.421 638.790, 607.593 684.065, 601.944 732.500 C 597.509 770.532, 591.268 799.727, 575.365 856.849 C 571.789 869.690, 569.087 880.420, 569.359 880.693 C 569.982 881.316, 629.320 899.013, 629.657 898.676 C 630.325 898.008, 642.744 852.720, 647.941 832 C 657.712 793.045, 661.989 769.850, 665.920 734.500 C 674.050 661.378, 675.176 566.729, 669.184 460.086 L 667.476 429.700 690.488 430.320 C 741.624 431.699, 794.633 439.311, 840.224 451.822 L 857.949 456.686 858.918 453.593 C 859.451 451.892, 863.340 439.475, 867.560 426 C 871.781 412.525, 875.234 400.600, 875.234 399.500 C 875.235 397.350, 861.382 362.293, 850.537 337 C 805.085 230.991, 761.646 155.493, 727.517 123.188 C 708.785 105.456, 692.583 97.640, 674.500 97.611 C 646.671 97.567, 625.014 116.118, 612.756 150.500 C 607.033 166.552, 602.244 193.281, 599.856 222.500 C 598.446 239.757, 598.117 310.984, 599.285 346.094 L 600.071 369.687 591.285 370.877 C 539.558 377.884, 479.792 391.978, 422.893 410.587 C 412.108 414.114, 402.996 417, 402.643 417 C 402.289 417, 401.999 414.188, 401.998 410.750 C 401.994 395.998, 398 350.550, 393.362 312.474 L 390.679 290.448 397.192 281.974 C 418.976 253.631, 441.477 214.728, 460.799 172 C 469.721 152.270, 481.711 122.697, 482.609 118.207 L 483.203 115.234 455.352 105.877 C 440.033 100.730, 426.593 96.244, 425.485 95.909 C 423.683 95.363, 422.851 96.891, 417.593 110.399 M 674.114 168.426 C 669.610 180.462, 666.375 197.271, 663.801 222 C 662.314 236.288, 661.986 337.227, 663.368 355.250 L 664.192 366 676.846 366.001 C 704.703 366.002, 748.738 369.562, 781.627 374.472 C 790.353 375.775, 797.617 376.716, 797.770 376.564 C 798.614 375.720, 774.607 322.278, 759.347 291.028 C 739.930 251.267, 727.215 228.327, 711.111 204.005 C 699.498 186.465, 685.759 169.813, 678.830 164.879 L 676.154 162.973 674.114 168.426 M 328.411 517.855 C 296.640 533.418, 252.534 560.449, 233.500 576.023 C 223.916 583.864, 209.301 599.181, 204.126 606.809 C 198.535 615.050, 193.461 625.893, 191.407 633.994 C 189.182 642.765, 189.888 658.295, 192.862 666 C 197.528 678.088, 207.499 689.161, 218.708 694.700 L 225.936 698.272 238.218 697.751 C 259.812 696.835, 275.447 689.819, 291 674.064 C 300.753 664.184, 307.073 655.132, 315.126 639.507 C 325.212 619.938, 329.956 604.931, 333.937 580 C 337.222 559.423, 340.898 513, 339.241 513 C 338.736 513, 333.863 515.185, 328.411 517.855 " stroke="none" fill="black" fill-rule="evenodd"/>
</svg>