<svg xmlns="http://www.w3.org/2000/svg" width="1000" height="1000" viewBox="0 0 1000 1000" version="1.1">
	<path d="M 579.116 73.552 C 554.899 84.006, 522.160 93.706, 497 97.883 C 446.998 106.184, 396.003 99.071, 364.942 79.464 L 361.311 77.171 341.405 101.108 C 330.457 114.274, 321.372 125.419, 321.216 125.875 C 320.938 126.687, 332.113 134.243, 341 139.249 C 348.681 143.577, 366.740 150.915, 378.376 154.436 C 393.357 158.970, 408.103 161.887, 426.008 163.859 L 440.914 165.500 437.960 170.242 C 423.721 193.101, 411.019 222.539, 402.942 251.399 L 399.612 263.299 377.556 262.703 C 346.927 261.875, 290.135 255.584, 258.286 249.490 C 254.080 248.686, 250.553 248.134, 250.447 248.264 C 249.816 249.038, 238.771 310.104, 239.186 310.520 C 239.836 311.169, 270.953 316.281, 290.609 318.968 C 316.908 322.563, 341.759 324.936, 366 326.167 L 389.500 327.360 389.500 362.430 C 389.500 384.197, 389.989 402.052, 390.790 409.500 C 393.201 431.931, 398.033 463.366, 399.257 464.590 C 399.513 464.846, 410.248 462.992, 423.111 460.468 C 435.975 457.945, 449.544 455.301, 453.265 454.592 C 456.986 453.883, 460.307 453.027, 460.644 452.689 C 460.981 452.352, 460.308 446.321, 459.148 439.288 C 453.302 403.846, 451.258 371.450, 452.964 341.288 C 453.610 329.870, 454.250 320.416, 454.388 320.279 C 454.614 320.052, 530.729 306.164, 540.750 304.521 C 545.751 303.701, 545.491 302.311, 543.506 319.286 C 539.002 357.785, 524.534 400.347, 499.581 448.500 C 487.088 472.607, 478.352 486.882, 475.720 487.487 C 470.154 488.765, 426.979 496.262, 403 500.114 C 377.812 504.160, 375.436 504.371, 355 504.389 C 328.082 504.412, 302.724 501.287, 273.686 494.371 C 267.738 492.954, 262.663 492.004, 262.408 492.259 C 261.515 493.151, 244.919 552.252, 245.420 552.754 C 246.344 553.677, 268.284 558.715, 283 561.383 C 316.660 567.485, 348.063 569.844, 372.189 568.084 C 393.863 566.502, 476.387 553.083, 516.489 544.619 C 520.333 543.808, 523.605 543.271, 523.760 543.427 C 523.916 543.582, 517.396 547.675, 509.272 552.523 C 471.956 574.786, 403.445 619.092, 372.293 641.107 L 365.086 646.200 357.588 640.725 C 353.465 637.713, 346.068 633.172, 341.152 630.633 C 329.064 624.389, 305.074 616.462, 304.955 618.671 C 304.931 619.127, 302.751 633.225, 300.113 650 C 295.843 677.146, 295.490 680.571, 296.907 681.143 C 297.783 681.497, 301.338 682.847, 304.806 684.143 L 311.112 686.500 308.722 688.500 C 307.408 689.600, 300.071 695.429, 292.416 701.454 C 272.927 716.795, 233.538 749.091, 209.658 769.309 C 173.898 799.587, 98.888 865.730, 95.363 870.093 C 94.449 871.224, 98.437 876.053, 115.701 894.719 L 137.176 917.938 151.838 904.582 C 203.919 857.138, 279.297 793.001, 330.403 752.646 C 341.400 743.963, 345.524 741.222, 346.138 742.189 C 346.595 742.910, 346.977 756.325, 346.986 772 C 347.004 802.840, 348.124 831.287, 350.528 862 C 352.245 883.924, 356.495 920.829, 357.409 921.743 C 357.901 922.235, 409.209 918.236, 409.609 917.674 C 416.225 908.382, 436.725 881.945, 445.026 872 C 466.263 846.558, 476.446 835.466, 501.708 810.261 L 527.004 785.022 506.292 761.588 C 488.364 741.304, 485.330 738.288, 483.722 739.149 C 480.835 740.694, 433.444 788.190, 422.506 800.500 C 417.130 806.550, 412.390 811.634, 411.971 811.798 C 411.553 811.962, 411.001 794.637, 410.745 773.298 C 410.248 731.905, 409.615 725.329, 404.388 707.235 C 403.075 702.689, 402 698.807, 402 698.608 C 402 698.079, 430.904 678.025, 450 665.305 C 524.537 615.655, 633.847 552.097, 711.750 513.111 L 722 507.982 722 479.444 L 722 450.907 698.750 451.537 C 662.131 452.528, 631.383 456.453, 582.502 466.373 C 570.404 468.829, 560.437 470.762, 560.353 470.669 C 560.270 470.576, 563.064 464.425, 566.561 457 C 570.059 449.575, 575.232 437.875, 578.057 431 C 580.883 424.125, 583.713 418.002, 584.347 417.394 C 584.981 416.785, 591.125 414.388, 598 412.066 C 620.652 404.415, 650.847 391.947, 670.829 381.992 C 710.386 362.286, 733.696 343.407, 744.901 322 C 749.968 312.321, 752 304.253, 752 293.816 C 752 266.453, 735.238 244.954, 706 234.814 C 696.943 231.673, 678.476 228.943, 661.996 228.307 C 648.314 227.780, 613.337 229.275, 608.882 230.578 C 607.536 230.972, 607.149 229.827, 606.583 223.776 C 604.984 206.664, 597.560 164.310, 594.944 157.370 C 594.154 155.274, 593.661 155.372, 563.965 163.559 C 547.369 168.134, 533.652 172.017, 533.483 172.189 C 533.315 172.360, 534.234 177.225, 535.525 183 C 538.497 196.292, 542.839 224.502, 543.214 232.950 L 543.500 239.400 535.500 240.723 C 531.100 241.451, 514.765 244.338, 499.199 247.139 C 483.633 249.940, 470.610 251.943, 470.258 251.591 C 469.294 250.627, 477.432 231.005, 484.170 218.048 C 487.446 211.749, 493.094 202.308, 496.723 197.067 L 503.320 187.539 491.146 176.019 L 478.972 164.499 493.694 162.697 C 528.065 158.490, 564.781 148.461, 602 133.114 C 608.875 130.279, 615.131 127.563, 615.901 127.077 C 617.025 126.369, 614.753 120.545, 604.401 97.605 C 597.306 81.880, 591.050 69.027, 590.500 69.042 C 589.950 69.057, 584.827 71.087, 579.116 73.552 M 622.500 293.113 C 616.450 293.638, 611.007 294.237, 610.405 294.443 C 609.750 294.668, 609.031 299.574, 608.616 306.659 C 608.233 313.172, 607.302 323.450, 606.547 329.500 C 605.791 335.550, 605.351 340.680, 605.569 340.900 C 607.121 342.464, 652.450 320.748, 666 311.949 C 675.868 305.541, 686 297.463, 686 296.004 C 686 294.069, 675.207 292.856, 655 292.517 C 643.175 292.319, 628.550 292.587, 622.500 293.113 M 622.966 593.491 C 610.205 596.036, 592.541 603.300, 576 612.805 C 569.750 616.396, 551.265 628.762, 550.643 629.768 C 550.216 630.459, 583.362 674.648, 587.468 678.862 C 588.583 680.006, 590.282 679.245, 598.084 674.105 C 607.667 667.792, 625.454 658.563, 630.187 657.448 C 632.666 656.864, 632.930 657.109, 633.585 660.599 C 634.376 664.819, 633.444 691.368, 631.991 706 C 630.191 724.130, 629.673 749.102, 630.903 758.500 C 633.803 780.666, 639.877 794.019, 653.034 807.156 C 660.267 814.377, 663.260 816.567, 671.102 820.373 C 686.934 828.059, 694.661 829.475, 720.500 829.428 C 743.604 829.386, 740.565 829.712, 790.500 821.940 C 807.132 819.351, 827.881 818.817, 832.707 820.853 C 834.965 821.807, 836.262 823.265, 837.095 825.787 C 838.212 829.172, 838.118 829.496, 835.388 831.717 C 830.105 836.015, 815.031 842.913, 801.182 847.369 C 755.617 862.033, 681.830 872.252, 590.250 876.583 L 576 877.256 576 892.468 C 576 900.835, 576.297 915.203, 576.659 924.397 L 577.319 941.112 587.409 940.543 C 592.959 940.230, 606.050 939.519, 616.500 938.963 C 670.552 936.088, 731.987 928.896, 771 920.876 C 840.946 906.496, 880.233 886.674, 894.624 858.500 C 900.369 847.253, 901.517 842.335, 901.395 829.500 C 901.086 796.962, 881.505 769.482, 852 760.178 C 840.534 756.562, 833.828 755.667, 818.500 755.705 C 802.315 755.745, 798.397 756.175, 763.500 761.734 C 743.240 764.962, 738.296 765.405, 722 765.449 C 701.479 765.506, 698.695 764.866, 696.043 759.491 C 693.825 754.996, 693.557 737.031, 695.347 712.734 C 698.573 668.930, 698.292 652.282, 694.048 635.687 C 688.272 613.102, 672.776 597.763, 651.022 593.098 C 644.345 591.666, 631.194 591.850, 622.966 593.491 " stroke="none" fill="black" fill-rule="evenodd"/>
</svg>