<svg xmlns="http://www.w3.org/2000/svg" width="1000" height="1000" viewBox="0 0 1000 1000" version="1.1">
	<path d="M 412.247 98.750 C 407.421 133.711, 399.343 169.513, 389.440 199.830 L 383.817 217.045 378.658 216.452 C 331.968 211.086, 295.108 201.984, 260.918 187.376 C 253.997 184.419, 248.075 182, 247.758 182 C 247.303 182, 227.738 218.641, 219.605 234.726 L 217.973 237.953 222.737 240.343 C 230.568 244.274, 256.708 254.533, 268.722 258.390 C 291.600 265.737, 315.696 271.622, 338.500 275.435 C 346.040 276.695, 351.500 278.073, 351.500 278.716 C 351.500 280.642, 333.592 303.039, 322.604 314.856 C 289.268 350.707, 250.680 379.307, 205.526 401.631 C 184.753 411.902, 172.646 416.692, 151.655 422.947 C 137.994 427.018, 135.525 428.049, 135.664 429.630 C 136.212 435.871, 145.353 493.606, 145.870 494.094 C 146.755 494.928, 197.069 487.244, 239 479.872 C 341.412 461.866, 407.005 446.285, 475 423.811 C 490.125 418.812, 503.175 414.524, 504 414.281 C 505.933 413.712, 503.080 416.248, 487.905 428.584 C 456.144 454.404, 411.443 485.386, 371.024 509.595 L 352.500 520.689 352.500 548.095 L 352.500 575.500 368.500 578.141 C 392.360 582.079, 407.061 586.521, 423.500 594.757 C 431.560 598.795, 446.029 607.880, 445.939 608.846 C 445.906 609.206, 438.144 614.566, 428.689 620.757 C 375.059 655.877, 333.466 693.246, 311.726 725.842 C 296.315 748.948, 288 774.173, 288 797.819 C 288 817.568, 292.654 833.371, 303.043 848.903 C 345.546 912.445, 467.557 929.642, 682.500 902.384 C 697.900 900.431, 710.802 898.533, 711.172 898.166 C 711.915 897.430, 703.572 837.238, 702.591 836.258 C 702.254 835.920, 690.620 837.083, 676.739 838.842 C 576.078 851.596, 501.321 854.359, 444 847.441 C 395.885 841.635, 363.286 828.232, 354.246 810.540 C 352.127 806.394, 351.682 804.169, 351.735 798 C 351.981 769.640, 379.204 735.417, 434 694.580 C 449.071 683.348, 481.386 661.978, 482.094 662.775 C 484.517 665.500, 499.338 708.109, 504.909 728.366 C 506.553 734.342, 508.088 739.421, 508.320 739.654 C 508.553 739.886, 518.813 737.800, 531.121 735.018 C 543.430 732.236, 556.875 729.215, 561 728.305 C 565.125 727.394, 568.830 726.375, 569.234 726.040 C 571.274 724.349, 554.967 672.173, 544.063 645.500 C 540.691 637.250, 537.834 630.133, 537.716 629.684 C 537.358 628.331, 575.015 608.151, 618 586.661 C 686.340 552.494, 755.688 521.449, 831.993 490.861 C 847.397 484.686, 860.007 479.154, 860.016 478.567 C 860.024 477.980, 855.187 464.577, 849.266 448.782 C 839.518 422.780, 838.311 420.119, 836.500 420.648 C 833.172 421.620, 786.948 440.211, 763.500 450.009 C 675.026 486.977, 580.224 532.114, 517.067 567.340 L 503.633 574.833 495.737 567.497 C 491.394 563.462, 483.948 557.392, 479.189 554.007 C 470.247 547.646, 452.037 537, 450.100 537 C 447.490 537, 449.817 535.006, 461.768 527 C 531.464 480.312, 595.294 423.015, 626.831 378.832 L 633.018 370.164 618.582 340.582 C 610.642 324.312, 603.674 311, 603.097 311 C 602.520 311, 588.200 316.127, 571.274 322.394 C 503.927 347.329, 446.664 366.824, 409.500 377.470 C 388.912 383.367, 341.447 395.097, 332.500 396.498 C 328.705 397.092, 328.603 397.042, 330.500 395.521 C 338.641 388.996, 359.056 369.382, 368.977 358.551 C 390.447 335.116, 406.238 314.172, 418.025 293.500 C 421.474 287.450, 424.371 282.396, 424.462 282.270 C 424.553 282.143, 432.024 281.575, 441.064 281.008 C 496.341 277.539, 548.532 264.191, 597.233 241.066 L 605.967 236.919 592.373 209.710 C 584.897 194.744, 578.374 181.998, 577.879 181.384 C 577.245 180.599, 572.423 182.296, 561.576 187.123 C 529.394 201.445, 489.287 212.451, 457.825 215.594 L 451.149 216.261 454.007 207.145 C 460.219 187.331, 467.701 155.268, 472.008 130 C 474.158 117.393, 478.082 88.727, 477.704 88.396 C 477.464 88.185, 418.074 83, 415.901 83 C 414.749 83, 413.939 86.492, 412.247 98.750 " stroke="none" fill="black" fill-rule="evenodd"/>
</svg>