<svg xmlns="http://www.w3.org/2000/svg" width="1000" height="1000" viewBox="0 0 1000 1000" version="1.1">
	<path d="M 439.644 55.814 C 433.845 126.217, 424.515 279.484, 422.009 345.500 C 421.424 360.900, 420.687 377.277, 420.371 381.893 L 419.797 390.287 400.648 389.707 C 379.409 389.065, 370.301 388.077, 352.354 384.471 C 323.180 378.609, 293.572 365.209, 277.132 350.428 C 274.423 347.993, 271.913 346, 271.556 346 C 271.198 346, 259.898 354.873, 246.445 365.717 L 221.984 385.434 228.742 392.295 C 258.615 422.625, 310.644 444.830, 367.388 451.468 C 374.462 452.295, 388.969 453.274, 399.625 453.643 L 419 454.314 419.217 481.657 C 419.336 496.696, 419.448 511.759, 419.467 515.130 L 419.500 521.261 406.500 525.629 C 368.158 538.512, 325.761 557.667, 296 575.551 C 251.505 602.290, 212.584 644.474, 188.561 692 C 155.482 757.441, 159.419 813.121, 199.027 840.019 C 207.002 845.434, 214.311 848.611, 224.903 851.264 C 236.170 854.086, 260.850 854.275, 274.500 851.644 C 320.513 842.773, 377.659 816.507, 437.279 776.826 C 444.675 771.903, 449.195 769.454, 449.427 770.243 C 449.631 770.934, 451.876 783.200, 454.417 797.500 C 456.957 811.800, 459.392 824.850, 459.827 826.500 C 460.588 829.386, 461.469 829.796, 482.932 837.270 L 505.246 845.039 531.889 818.770 C 557.572 793.446, 597.569 755.469, 603.250 751.012 C 604.763 749.826, 606 748.395, 606 747.833 C 606 746.897, 565.415 701.839, 564.031 701.238 C 563.281 700.912, 550.764 712.281, 528.322 733.669 C 518.873 742.673, 510.944 749.694, 510.701 749.270 C 510.458 748.847, 509.465 743.062, 508.495 736.415 L 506.732 724.331 512.116 719.494 C 524.848 708.057, 558.398 673.465, 568.328 661.536 C 593.551 631.236, 614.291 600.692, 629.802 571 C 633.394 564.125, 636.425 558.371, 636.537 558.213 C 636.953 557.627, 658.872 561.188, 669.848 563.625 C 694.162 569.023, 720.548 580.157, 737.448 592.150 C 772.578 617.080, 792.168 656.020, 793.720 704 C 794.684 733.813, 787.830 757.093, 771.240 780.351 C 735.432 830.551, 648.316 870.250, 541.250 885.158 C 525.268 887.384, 525 887.461, 525 889.880 C 525 893.275, 528.869 941.513, 529.561 946.752 C 530.122 950.998, 530.128 951.003, 533.812 950.513 C 584.772 943.726, 619.681 936.214, 658 923.790 C 720.613 903.489, 766.763 877.356, 801.503 842.530 C 840.675 803.262, 860.046 754.261, 857.649 700.500 C 852.936 594.766, 786.109 521.269, 674.914 499.523 C 668.265 498.223, 662.598 496.932, 662.320 496.653 C 662.042 496.375, 662.944 492.177, 664.325 487.324 C 667.911 474.717, 671.494 458.161, 670.789 457.456 C 670.130 456.796, 615.139 449.066, 610.818 449.025 C 608.282 449.001, 608.044 449.421, 606.434 456.750 C 605.498 461.012, 602.750 470.688, 600.327 478.250 C 596.098 491.452, 595.814 492, 593.211 492.001 C 585.372 492.002, 551.750 494.254, 540 495.564 C 525.626 497.167, 500.896 500.992, 489.750 503.336 L 483 504.756 483 475.923 L 483 447.091 486.750 446.450 C 488.813 446.098, 498.780 444.015, 508.899 441.822 C 552.393 432.395, 601.197 415.892, 652 393.433 C 671.444 384.837, 725 358.122, 725 357.019 C 725 355.510, 695.825 302, 695.002 302 C 694.557 302, 682.111 308.031, 667.346 315.403 C 618.525 339.776, 581.843 354.812, 538.832 368.081 C 525.610 372.160, 498.888 379.110, 487.342 381.472 L 484.183 382.119 484.698 369.809 C 484.981 363.039, 485.502 351.875, 485.856 345 L 486.500 332.500 491.900 346 C 494.871 353.425, 497.608 359.853, 497.984 360.283 C 499.887 362.466, 549.238 338.172, 572.821 323.444 C 633.505 285.545, 680.782 233.649, 705.923 177.338 C 712.992 161.506, 722.205 132.872, 720.711 131.378 C 720.456 131.123, 707.479 128.922, 691.874 126.488 C 676.268 124.054, 662.363 121.855, 660.974 121.601 C 658.548 121.158, 658.299 121.604, 654.713 132.820 C 644.512 164.728, 624.854 195.292, 596.057 224.018 C 575.426 244.598, 558.650 257.646, 533.186 272.918 C 519.573 281.082, 489.223 296.556, 488.413 295.746 C 487.310 294.644, 501.332 73.725, 503.550 57.250 C 504.076 53.349, 503.939 53, 501.891 53 C 499.621 53, 453.302 49.409, 444.888 48.581 L 440.277 48.127 439.644 55.814 M 255.001 154.750 C 255.002 163.936, 256.914 181.703, 259.009 192 C 267.870 235.549, 293.333 272.240, 329.442 293.492 C 338.038 298.550, 354.887 306.446, 355.590 305.744 C 355.756 305.577, 360.816 292.188, 366.835 275.989 L 377.777 246.538 369.779 242.778 C 342.301 229.863, 325.462 206.042, 320.452 173 C 319.660 167.775, 319.009 161.371, 319.006 158.769 C 319.001 154.673, 318.698 153.974, 316.750 153.563 C 314.395 153.066, 261.158 148.975, 257.250 148.991 C 255.178 148.999, 255 149.456, 255.001 154.750 M 549.500 558.611 C 535.279 560.129, 505.681 564.891, 494.305 567.491 L 487.110 569.135 487.595 573.818 C 494.227 637.932, 495.181 646, 496.131 646 C 497.192 646, 514.447 626.801, 525.053 613.821 C 535.634 600.871, 548.596 582.928, 556.930 569.696 C 563.560 559.168, 564.699 556.937, 563.357 557.111 C 562.886 557.172, 556.650 557.847, 549.500 558.611 M 405 593.911 C 362.471 610.469, 327.333 628.982, 306.140 645.997 C 295.428 654.596, 278.322 671.774, 269.788 682.500 C 245.535 712.982, 228.568 752.625, 230.250 774.879 C 231.169 787.028, 233.428 789.035, 247 789.762 C 276.162 791.325, 329.356 769.514, 392 730.307 C 402.802 723.546, 426.014 707.448, 436.263 699.609 C 437.937 698.328, 437.850 696.928, 434.533 671.679 C 431.450 648.215, 427.421 613.691, 425.438 593.750 C 425.039 589.732, 424.308 587.020, 423.634 587.049 C 423.010 587.075, 414.625 590.163, 405 593.911 " stroke="none" fill="black" fill-rule="evenodd"/>
</svg>