<svg xmlns="http://www.w3.org/2000/svg" width="1000" height="1000" viewBox="0 0 1000 1000" version="1.1">
	<path d="M 576.500 102.620 C 523.775 116.974, 462.925 129.038, 418.500 133.944 C 363.653 140.001, 283.356 139.224, 211.141 131.938 C 199.944 130.808, 190.603 130.064, 190.382 130.284 C 189.689 130.978, 181.817 192.150, 182.352 192.686 C 183.075 193.409, 215.765 196.694, 240 198.480 C 314.679 203.982, 388.009 202.889, 441.500 195.475 C 463.490 192.428, 502.368 185.857, 507.426 184.334 C 508.874 183.898, 508.226 185.334, 504.813 190.127 C 497.154 200.882, 455.133 264.174, 439.510 288.486 C 377.335 385.236, 319.517 484.240, 279.229 562.940 C 272.877 575.348, 266.402 587.435, 264.840 589.800 C 263.278 592.165, 262 594.522, 262 595.037 C 262 595.552, 255.873 608.692, 248.384 624.237 C 211.549 700.695, 185.781 763.488, 165.606 825.954 C 161.973 837.203, 159 846.894, 159 847.489 C 159 848.366, 216.828 866.193, 219.189 866.044 C 219.569 866.020, 221.080 862.062, 222.547 857.250 C 238.585 804.650, 263.241 742.501, 295.198 674.122 C 319.716 621.659, 320.122 621.013, 343.947 596.629 C 400.889 538.351, 476.502 492.675, 560.846 465.604 C 576.887 460.456, 578.376 460.202, 577.606 462.750 C 570.856 485.087, 562.588 525.827, 559.897 550 C 558.195 565.295, 558.437 593.519, 560.369 605.156 C 565.094 633.600, 576.377 653.513, 595.936 667.922 C 616.484 683.061, 641.103 692.717, 670.352 697.109 C 682.028 698.863, 691.663 699.369, 725.500 700.007 C 767.396 700.797, 773.074 701.336, 780.502 705.224 C 787.007 708.628, 791.355 716.787, 791.307 725.500 C 791.241 737.637, 785.726 747.258, 769.500 763.544 C 739.602 793.552, 688.129 818.916, 624.539 834.977 C 614.110 837.611, 605.443 840.172, 605.277 840.668 C 604.902 841.794, 617.474 900.808, 618.256 901.590 C 619.391 902.724, 656.996 892.711, 678.500 885.548 C 772.452 854.253, 835.480 805.405, 851.569 751.420 C 855.181 739.299, 856.060 719.904, 853.522 708.367 C 846.441 676.191, 826.228 653.074, 796.452 643.098 C 780.273 637.677, 772.390 636.872, 727 636 C 682.558 635.146, 674.510 634.368, 659.518 629.474 C 648.806 625.978, 636.474 619.425, 631.386 614.526 C 628.422 611.672, 626.738 608.917, 625.600 605.059 C 617.678 578.207, 623.921 530.142, 643.988 463.500 C 646.804 454.150, 649.646 445.994, 650.304 445.375 C 652.779 443.046, 697.606 438.396, 727.596 437.358 L 747.286 436.676 746.770 405.299 C 746.487 388.042, 745.973 373.640, 745.628 373.295 C 744.872 372.538, 699.489 374.641, 685.632 376.075 C 680.204 376.637, 675.562 376.895, 675.317 376.650 C 674.962 376.296, 682.077 358.446, 683.602 355.863 C 683.990 355.207, 628.069 330, 626.224 330 C 625.028 330, 618.170 345.925, 608.526 371.097 L 601.784 388.693 590.142 391.404 C 526.652 406.186, 466.047 430.774, 408.554 465.075 L 404.608 467.429 407.995 461.464 C 414.346 450.280, 444.315 400.555, 458.297 378 C 500.493 309.937, 554.091 229.418, 595.302 172.181 L 609.212 152.862 604.356 125.195 C 600.605 103.825, 599.159 97.487, 598 97.351 C 597.175 97.254, 587.500 99.625, 576.500 102.620 " stroke="none" fill="black" fill-rule="evenodd"/>
</svg>