<svg xmlns="http://www.w3.org/2000/svg" width="1000" height="1000" viewBox="0 0 1000 1000" version="1.1">
	<path d="M 616 121.070 C 535.376 127.612, 504.648 129.271, 455.256 129.750 C 407.956 130.208, 374.699 129.334, 330.500 126.472 C 317.850 125.652, 305.703 124.874, 303.507 124.741 L 299.514 124.500 296.757 155.917 C 295.241 173.196, 294.118 187.451, 294.261 187.595 C 294.613 187.947, 333.286 190.633, 360.500 192.195 C 373.584 192.946, 406.208 193.460, 441 193.462 C 494.097 193.466, 503.241 193.215, 540 190.746 C 562.275 189.250, 582.638 187.753, 585.250 187.419 L 590 186.812 590 197.656 C 589.999 213.456, 588.185 257.126, 586.476 282.500 C 581.578 355.199, 572.154 413.249, 558.901 452.359 C 553.560 468.120, 548.526 478.801, 540.848 490.663 L 534.500 500.470 533.899 482.485 C 533.255 463.207, 531.471 451.284, 527.318 438.500 C 516.503 405.207, 491.691 383.866, 458.086 378.952 C 452.888 378.192, 444.276 377.936, 435.133 378.269 C 419.613 378.835, 407.679 381.233, 394.018 386.530 C 351.423 403.046, 314.448 442.426, 299.582 487.107 C 293.760 504.607, 292.489 512.512, 292.603 530.500 C 292.691 544.353, 293.054 547.815, 295.306 556.297 C 300.183 574.655, 311.928 593.861, 325.229 605.224 C 351.223 627.431, 384.673 639.946, 418.750 640.211 C 426.587 640.272, 433 640.416, 433 640.530 C 433 641.926, 420.339 670.758, 411.297 689.954 C 382.258 751.604, 374.732 774.424, 374.677 801 C 374.646 815.708, 376.178 822.773, 381.942 834.500 C 394.256 859.554, 420.348 873.429, 466.536 879.484 C 505.830 884.635, 570.364 882.766, 641 874.432 C 670.256 870.981, 710.306 865.050, 711.368 864.012 C 711.857 863.534, 709.912 849.761, 706.914 832.475 L 701.592 801.786 697.546 802.304 C 695.321 802.588, 682.475 804.411, 669 806.355 C 561.985 821.789, 474.044 822.825, 444.250 809.004 C 438.073 806.139, 438 806.057, 438 802.010 C 438 787.748, 445.153 767.913, 467.214 721.001 C 484.948 683.289, 493.094 663.427, 505.055 628.734 L 510.835 611.967 518.668 606.369 C 547.740 585.590, 574.257 556.881, 596.348 522.268 C 629.449 470.405, 647.993 374.390, 652.989 229 C 654.663 180.268, 653.876 117.852, 651.591 118.135 C 650.991 118.209, 634.975 119.530, 616 121.070 M 433 441.998 C 405.707 445.652, 378.682 467.115, 364.481 496.414 C 358.948 507.830, 356.978 515.080, 356.290 526.560 C 355.101 546.411, 362.498 557.256, 384.864 568.453 C 404.018 578.042, 424.899 579.189, 447.650 571.901 C 458.266 568.501, 456.712 570.896, 461.533 550.500 C 466.654 528.839, 469.168 511.283, 469.733 493.246 C 470.674 463.188, 466.513 448.679, 455.608 443.999 C 450.677 441.883, 440.553 440.986, 433 441.998 " stroke="none" fill="black" fill-rule="evenodd"/>
</svg>