<?xml version="1.0" encoding="UTF-8"?>
<svg xmlns="http://www.w3.org/2000/svg" xmlns:xlink="http://www.w3.org/1999/xlink" width="1000pt" height="1000pt" viewBox="0 0 1000 1000" version="1.1">
<g id="surface1">
<path style="fill:none;stroke-width:19.7;stroke-linecap:butt;stroke-linejoin:miter;stroke:rgb(0%,0%,0%);stroke-opacity:1;stroke-miterlimit:4;" d="M 81.145313 13.397656 C 81.145313 13.397656 80.253125 21.257812 90.285938 24.760938 C 99.123438 27.846875 129.674219 26.423438 129.674219 26.423438 " transform="matrix(5,0,0,5,0,0)"/>
<path style="fill:none;stroke-width:19.7;stroke-linecap:butt;stroke-linejoin:miter;stroke:rgb(0%,0%,0%);stroke-opacity:1;stroke-miterlimit:4;" d="M 48.505469 49.095313 C 48.505469 49.095313 24.953125 64.15625 37.978125 71.492969 C 49.667188 78.077344 129.409375 46.296875 150.978125 49.871094 C 167.866406 52.66875 164.06875 67.610938 155.416406 71.332813 C 142.833594 76.744531 104.142969 76.382031 104.142969 76.382031 " transform="matrix(5,0,0,5,0,0)"/>
<path style="fill:none;stroke-width:19.7;stroke-linecap:butt;stroke-linejoin:miter;stroke:rgb(0%,0%,0%);stroke-opacity:1;stroke-miterlimit:4;" d="M 88.455469 82.408594 C 88.455469 82.408594 87.791406 88.144531 92.149219 93.163281 C 98.401563 100.363281 112.6375 100.979688 112.6375 100.979688 " transform="matrix(5,0,0,5,0,0)"/>
<path style="fill:none;stroke-width:19.7;stroke-linecap:butt;stroke-linejoin:miter;stroke:rgb(0%,0%,0%);stroke-opacity:1;stroke-miterlimit:4;" d="M 73.857031 118.228906 C 73.857031 118.228906 84.405469 123.107031 95.775 123.640625 C 111.427344 124.375 126.830469 121.072656 125.075781 138.878906 C 123.3875 156.016406 82.805469 184.140625 82.805469 184.140625 " transform="matrix(5,0,0,5,0,0)"/>
</g>
</svg>
