<?xml version="1.0" encoding="UTF-8"?>
<svg xmlns="http://www.w3.org/2000/svg" xmlns:xlink="http://www.w3.org/1999/xlink" width="1000pt" height="1000pt" viewBox="0 0 1000 1000" version="1.1">
<g id="surface1">
<path style="fill:none;stroke-width:19.7;stroke-linecap:butt;stroke-linejoin:miter;stroke:rgb(0%,0%,0%);stroke-opacity:1;stroke-miterlimit:4;" d="M 75.083594 23.558594 C 75.083594 23.558594 103.736719 30.525 112.534375 42.035156 " transform="matrix(5,0,0,5,0,0)"/>
<path style="fill:none;stroke-width:19.7;stroke-linecap:butt;stroke-linejoin:miter;stroke:rgb(0%,0%,0%);stroke-opacity:1;stroke-miterlimit:4;" d="M 35.585938 71.925781 C 35.585938 71.925781 59.415625 88.925 131.41875 66.553906 L 131.873437 68.339062 C 131.873437 68.339062 103.529688 83.772656 87.217969 103.227344 C 70.905469 122.682031 45.98125 151.221875 23.660156 161.892188 " transform="matrix(5,0,0,5,0,0)"/>
<path style="fill:none;stroke-width:19.7;stroke-linecap:butt;stroke-linejoin:miter;stroke:rgb(0%,0%,0%);stroke-opacity:1;stroke-miterlimit:4;" d="M 70.355469 122.510156 C 70.355469 122.510156 82.61875 114.929688 90.024219 126.603125 C 95.710156 135.566406 92.115625 141.350781 91.011719 162.939063 C 90.711719 168.810156 91.653906 173.786719 91.653906 173.786719 L 94.896875 173.090625 C 94.896875 173.090625 106.033594 130.070312 132.79375 125.590625 C 152.839063 122.235938 175.017188 151.584375 175.017188 151.584375 " transform="matrix(5,0,0,5,0,0)"/>
</g>
</svg>
