<?xml version="1.0" encoding="UTF-8"?>
<svg xmlns="http://www.w3.org/2000/svg" xmlns:xlink="http://www.w3.org/1999/xlink" width="1000pt" height="1000pt" viewBox="0 0 1000 1000" version="1.1">
<g id="surface1">
<path style="fill:none;stroke-width:19.7;stroke-linecap:butt;stroke-linejoin:miter;stroke:rgb(0%,0%,0%);stroke-opacity:1;stroke-miterlimit:4;" d="M 42.359375 24.026563 C 42.359375 24.026563 34.897656 42.085156 48.023438 44.289844 C 61.149219 46.494531 76.822656 42.629688 76.822656 42.629688 L 76.822656 44.648438 C 76.822656 44.648438 50.182813 58.573438 56.946094 73.150781 C 63.709375 87.728906 67.309375 83.792188 67.383594 101.153125 C 67.457813 118.514844 67.028125 161.810156 42.553906 152.623437 C 22.935156 145.260156 37.075 115.120313 55.447656 121.701563 C 65.579688 125.330469 63.782031 140.528125 59.271094 148.439063 C 54.759375 156.35 37.717188 174.536719 37.717188 174.536719 L 39.00625 175.433594 C 39.00625 175.433594 142.586719 30.09375 157.385938 41.332031 C 171.624219 52.142969 140.700781 65.250781 145.300781 80.475 C 149.9 95.7 168.917188 93.740625 159.022656 120.725781 C 149.127344 147.710938 136.3625 155.535156 119.360938 155.659375 C 92.744531 155.854688 101.032813 122.441406 129.58125 127.439844 C 163.182813 133.322656 171.150781 170.783594 171.150781 170.783594 " transform="matrix(5,0,0,5,0,0)"/>
</g>
</svg>
