<?xml version="1.0" encoding="UTF-8"?>
<svg xmlns="http://www.w3.org/2000/svg" xmlns:xlink="http://www.w3.org/1999/xlink" width="1000pt" height="1000pt" viewBox="0 0 1000 1000" version="1.1">
<g id="surface1">
<path style="fill:none;stroke-width:19.7;stroke-linecap:butt;stroke-linejoin:miter;stroke:rgb(0%,0%,0%);stroke-opacity:1;stroke-miterlimit:4;" d="M 50.272656 22.999219 C 50.272656 22.999219 61.374219 24.260156 59.214844 34.565625 C 57.055469 44.870313 43.378906 55.639844 43.378906 55.639844 L 44.985938 57.327344 L 74.90625 47.167188 L 76.05625 48.389063 C 76.05625 48.389063 35.623438 82.386719 41.111719 93.092969 C 46.6 103.8 89.505469 84.832031 89.505469 84.832031 L 88.755469 81.44375 C 88.755469 81.44375 82.525 63.867188 72.422656 74.046875 C 62.320312 84.226562 29.000781 177.601562 29.000781 177.601562 " transform="matrix(5,0,0,5,0,0)"/>
<path style="fill:none;stroke-width:19.7;stroke-linecap:butt;stroke-linejoin:miter;stroke:rgb(0%,0%,0%);stroke-opacity:1;stroke-miterlimit:4;" d="M 43.444531 138.432813 C 48.091406 135.892969 69.889063 114.426563 80.61875 125.907031 C 91.348438 137.3875 88.589844 159.880469 75.328906 168.153906 C 62.06875 176.428125 50.325 161.33125 64.769531 139.058594 C 79.213281 116.785156 89.657031 105.323438 89.657031 105.323438 " transform="matrix(5,0,0,5,0,0)"/>
<path style="fill:none;stroke-width:19.7;stroke-linecap:butt;stroke-linejoin:miter;stroke:rgb(0%,0%,0%);stroke-opacity:1;stroke-miterlimit:4;" d="M 127.534375 27.782813 C 127.534375 27.782813 144.291406 27.035156 136.35 45.167188 C 128.407813 63.299219 118.523438 78.0375 118.523438 78.0375 L 120.695312 79.6125 L 168.390625 57.414844 L 167.155469 55.09375 C 167.155469 55.09375 161.469531 49.933594 156.740625 56.428906 C 152.011719 62.923438 154.161719 146.252344 154.161719 146.252344 L 148.689844 146.377344 C 148.689844 146.377344 133.151563 141.805469 127.147656 128.677344 C 119.014063 110.892969 156.582813 93.632812 157.866406 106.424219 C 159.634375 124.038281 109.200781 152.034375 118.535938 164.950781 C 126.099219 175.416406 173.646094 168.251563 173.646094 168.251563 " transform="matrix(5,0,0,5,0,0)"/>
</g>
</svg>
