<?xml version="1.0" encoding="UTF-8"?>
<svg xmlns="http://www.w3.org/2000/svg" xmlns:xlink="http://www.w3.org/1999/xlink" width="1000pt" height="1000pt" viewBox="0 0 1000 1000" version="1.1">
<g id="surface1">
<path style="fill:none;stroke-width:19.7;stroke-linecap:butt;stroke-linejoin:miter;stroke:rgb(0%,0%,0%);stroke-opacity:1;stroke-miterlimit:4;" d="M 54.021094 34.707031 C 54.021094 34.707031 70.2875 34.570312 80.221094 32.303906 C 94.3875 29.071094 106.745313 23.750781 111.934375 28.865625 C 120.817969 37.622656 92.703906 54.864844 92.703906 54.864844 L 92.882031 58.175781 C 92.882031 58.175781 124.905469 59.935156 128.796875 78.828906 C 133.410938 101.228906 109.467188 108.644531 92.8125 105.782813 C 71.34375 102.094531 68.039844 94.169531 63.888281 90.297656 C 59.736719 86.425 46.146094 81.042969 46.146094 81.042969 " transform="matrix(5,0,0,5,0,0)"/>
<path style="fill:none;stroke-width:19.7;stroke-linecap:butt;stroke-linejoin:miter;stroke:rgb(0%,0%,0%);stroke-opacity:1;stroke-miterlimit:4;" d="M 57.261719 87.110156 C 57.261719 87.110156 60.841406 113.071875 60.360156 130.189063 C 59.823438 149.249219 54.013281 171.205469 54.013281 171.205469 L 56.047656 172.360938 C 56.047656 172.360938 96.027344 122.638281 133.644531 129.271094 C 164.673438 134.742969 154.096094 176.924219 154.096094 176.924219 " transform="matrix(5,0,0,5,0,0)"/>
</g>
</svg>
