<?xml version="1.0" encoding="UTF-8"?>
<svg xmlns="http://www.w3.org/2000/svg" xmlns:xlink="http://www.w3.org/1999/xlink" width="1000pt" height="1000pt" viewBox="0 0 1000 1000" version="1.1">
<g id="surface1">
<path style="fill:none;stroke-width:19.7;stroke-linecap:butt;stroke-linejoin:miter;stroke:rgb(0%,0%,0%);stroke-opacity:1;stroke-miterlimit:4;" d="M 21.128906 47.085156 C 21.128906 47.085156 44.517969 66.976562 85.317188 52.178906 " transform="matrix(5,0,0,5,0,0)"/>
<path style="fill:none;stroke-width:19.7;stroke-linecap:butt;stroke-linejoin:miter;stroke:rgb(0%,0%,0%);stroke-opacity:1;stroke-miterlimit:4;" d="M 53.035938 19.264063 C 53.035938 19.264063 57.614063 49.59375 55.433594 65.023438 C 53.253125 80.453125 42.63125 103.525781 42.63125 103.525781 L 43.928125 104.041406 C 43.928125 104.041406 65.874219 75.083594 76.8875 84.792188 C 87.9 94.5 43.059375 158.223438 41.528125 170.686719 C 39.934375 183.658594 56.666406 179.595313 74.388281 149.426563 C 83.499219 133.915625 90.648438 115.072656 97.690625 112.983594 C 111.135156 108.994531 113.294531 127.841406 113.294531 127.841406 L 115.192188 128.107031 C 115.192188 128.107031 129.660156 83.805469 160.194531 93.936719 C 181.884375 101.133594 188.666406 136.305469 128.275 168.804688 " transform="matrix(5,0,0,5,0,0)"/>
</g>
</svg>
