<?xml version="1.0" encoding="UTF-8"?>
<svg xmlns="http://www.w3.org/2000/svg" xmlns:xlink="http://www.w3.org/1999/xlink" width="1000pt" height="1000pt" viewBox="0 0 1000 1000" version="1.1">
<g id="surface1">
<path style="fill:none;stroke-width:19.7;stroke-linecap:butt;stroke-linejoin:miter;stroke:rgb(0%,0%,0%);stroke-opacity:1;stroke-miterlimit:4;" d="M 64.030469 23.91875 C 64.030469 23.91875 73.649219 34.4875 84.13125 35.492969 C 96.290625 36.658594 119.015625 32.14375 119.015625 32.14375 L 119.434375 33.967188 C 119.434375 33.967188 89.2 43.7 84.310156 61.265625 C 79.165625 79.744531 94.9 97.4 81.699219 120.865625 C 72.81875 136.65 54.221875 157.586719 42.063281 153.727344 C 28.071875 149.285156 32.78125 129.883594 51.355469 111.296094 C 69.886719 92.752344 107.8 75.9 139.634375 77.235156 C 162.192969 78.18125 172.635938 96.921094 162.967969 119.539844 C 154.982031 138.225 105.549219 155.697656 96.328125 146.353906 C 88.240625 138.160156 102.494531 123.527344 115.386719 124.382031 C 127.546094 125.188281 133.335156 134.300781 117.371094 147.546875 C 101.407813 160.792188 101.425781 168.014844 108.252344 172.267969 C 115.078906 176.521094 140.167188 169.935938 140.167188 169.935938 " transform="matrix(5,0,0,5,0,0)"/>
</g>
</svg>
