<?xml version="1.0" encoding="UTF-8"?>
<svg xmlns="http://www.w3.org/2000/svg" xmlns:xlink="http://www.w3.org/1999/xlink" width="1000pt" height="1000pt" viewBox="0 0 1000 1000" version="1.1">
<g id="surface1">
<path style="fill:none;stroke-width:19.7;stroke-linecap:butt;stroke-linejoin:miter;stroke:rgb(0%,0%,0%);stroke-opacity:1;stroke-miterlimit:4;" d="M 42.23125 44.010156 C 42.23125 44.010156 37.785156 85.04375 43.247656 113.825781 C 48.253906 140.207031 66.253125 165.102344 66.253125 165.102344 " transform="matrix(5,0,0,5,0,0)"/>
<path style="fill:none;stroke-width:19.7;stroke-linecap:butt;stroke-linejoin:miter;stroke:rgb(0%,0%,0%);stroke-opacity:1;stroke-miterlimit:4;" d="M 72.952344 27.30625 C 72.952344 27.30625 74.707813 73.235938 69.917969 106.167969 C 65.1625 138.872656 51.821875 180.069531 35.4 178.2 C 20.80625 176.539062 24.282813 145.3875 28.003906 134.707031 C 34.457031 116.182031 51.521094 87.307813 74.141406 60.692969 C 93.282813 38.171875 125.541406 19.385938 135.470313 28.692969 C 145.4 38 132.101562 63.446094 132.101562 63.446094 C 132.101562 63.446094 172.125 80.275781 172.275 120.9125 C 172.403906 155.8875 155.405469 180.855469 124.091406 177.810156 C 90.982031 174.589844 104.414062 94.150781 121.488281 90.652344 C 138.563281 87.153906 131.745313 132.060937 126.715625 146.832813 C 121.685938 161.603906 116.975781 167.085938 109.191406 172.0875 C 99.017188 178.625 79.6125 172.921094 79.278906 157.109375 C 78.995313 143.614063 88.860156 131.610938 105.375781 128.546875 C 126.385156 124.649219 141.509375 135.108594 152.008594 143.189063 C 163.415625 151.967969 176.904688 171.057813 176.904688 171.057813 " transform="matrix(5,0,0,5,0,0)"/>
</g>
</svg>
