<?xml version="1.0" encoding="UTF-8"?>
<svg xmlns="http://www.w3.org/2000/svg" xmlns:xlink="http://www.w3.org/1999/xlink" width="1000pt" height="1000pt" viewBox="0 0 1000 1000" version="1.1">
<g id="surface1">
<path style="fill:none;stroke-width:19.7;stroke-linecap:butt;stroke-linejoin:miter;stroke:rgb(0%,0%,0%);stroke-opacity:1;stroke-miterlimit:4;" d="M 88.729688 33.489844 C 88.729688 33.489844 63.890625 30.895313 55.571875 43.249219 C 48.4 53.9 78.971094 96.769531 94.3125 128.459375 C 105.040625 150.619531 113.359375 171.892969 113.359375 171.892969 " transform="matrix(5,0,0,5,0,0)"/>
<path style="fill:none;stroke-width:19.7;stroke-linecap:butt;stroke-linejoin:miter;stroke:rgb(0%,0%,0%);stroke-opacity:1;stroke-miterlimit:4;" d="M 18.080469 85.248438 C 18.080469 85.248438 35.707031 84.303906 52.241406 79.677344 C 69.035156 74.978125 134.774219 41.104688 160.111719 52.871875 C 184.559375 64.225 181.478906 88.392188 157.804688 100.270313 C 132.815625 112.808594 103.776563 90.564844 103.776563 90.564844 " transform="matrix(5,0,0,5,0,0)"/>
</g>
</svg>
