<?xml version="1.0" encoding="UTF-8"?>
<svg xmlns="http://www.w3.org/2000/svg" xmlns:xlink="http://www.w3.org/1999/xlink" width="1000pt" height="1000pt" viewBox="0 0 1000 1000" version="1.1">
<g id="surface1">
<path style="fill:none;stroke-width:19.7;stroke-linecap:butt;stroke-linejoin:miter;stroke:rgb(0%,0%,0%);stroke-opacity:1;stroke-miterlimit:4;" d="M 36.614844 67.097656 C 36.614844 67.097656 73.896094 67.45 93.894531 64.288281 C 111.333594 61.53125 136.148438 55.870313 136.148438 55.870313 " transform="matrix(5,0,0,5,0,0)"/>
<path style="fill:none;stroke-width:19.7;stroke-linecap:butt;stroke-linejoin:miter;stroke:rgb(0%,0%,0%);stroke-opacity:1;stroke-miterlimit:4;" d="M 91.476562 19.442969 C 91.476562 19.442969 96.061719 57.7375 87.603906 80.615625 C 78.166406 106.14375 54.539062 120.552344 54.539062 120.552344 C 54.539062 120.552344 74.446875 106.709375 83.383594 111.698438 C 95.744531 118.6 82.175781 159.442969 97.020313 171.097656 C 111.864063 182.752344 159.01875 175.364063 159.01875 175.364063 " transform="matrix(5,0,0,5,0,0)"/>
</g>
</svg>
