<?xml version="1.0" encoding="UTF-8"?>
<svg xmlns="http://www.w3.org/2000/svg" xmlns:xlink="http://www.w3.org/1999/xlink" width="1000pt" height="1000pt" viewBox="0 0 1000 1000" version="1.1">
<g id="surface1">
<path style="fill:none;stroke-width:19.7;stroke-linecap:butt;stroke-linejoin:miter;stroke:rgb(0%,0%,0%);stroke-opacity:1;stroke-miterlimit:4;" d="M 31.273438 78.714063 C 31.273438 78.714063 40.121094 78.625781 52.905469 73.875 C 71.8125 66.848438 102.573438 36.99375 102.573438 36.99375 " transform="matrix(5,0,0,5,0,0)"/>
<path style="fill:none;stroke-width:19.7;stroke-linecap:butt;stroke-linejoin:miter;stroke:rgb(0%,0%,0%);stroke-opacity:1;stroke-miterlimit:4;" d="M 55.585156 16.839844 C 55.585156 16.839844 60.194531 96.225781 61.495313 109.621875 C 63.871094 134.088281 56.397656 175.678906 56.397656 175.678906 L 54.70625 175.786719 C 54.70625 175.786719 51.467188 169.471875 48.342188 164.471875 C 45.588281 160.065625 38.536719 150.132031 38.536719 150.132031 " transform="matrix(5,0,0,5,0,0)"/>
<path style="fill:none;stroke-width:19.7;stroke-linecap:butt;stroke-linejoin:miter;stroke:rgb(0%,0%,0%);stroke-opacity:1;stroke-miterlimit:4;" d="M 40.372656 91.040625 C 40.372656 91.040625 44.567188 101.335156 43.451563 107.860156 C 41.266406 120.635938 33 132.45625 33 132.45625 L 34.017187 133.407813 C 34.017187 133.407813 71.233594 85.957813 118.747656 73.646094 C 152.5 64.9 158.717188 85.991406 157.729688 101.35625 C 156.8 115.816406 131.864063 137.010156 113.048438 131.714063 C 91.451563 125.635938 99.282031 102.780469 116.240625 96.940625 C 133.2 91.1 148.303906 107.892969 122.825781 125.235938 C 97.347656 142.579688 76.589844 149.496875 76.589844 149.496875 L 76.477344 152.869531 C 76.477344 152.869531 109.672656 155.352344 127.667188 161.021875 C 145.741406 166.717969 171.183594 178.05625 171.183594 178.05625 " transform="matrix(5,0,0,5,0,0)"/>
</g>
</svg>
