<?xml version="1.0" encoding="UTF-8"?>
<svg xmlns="http://www.w3.org/2000/svg" xmlns:xlink="http://www.w3.org/1999/xlink" width="1000pt" height="1000pt" viewBox="0 0 1000 1000" version="1.1">
<g id="surface1">
<path style="fill:none;stroke-width:19.7;stroke-linecap:butt;stroke-linejoin:miter;stroke:rgb(0%,0%,0%);stroke-opacity:1;stroke-miterlimit:4;" d="M 55.849219 19.740625 C 55.849219 19.740625 53.279688 32.744531 58.914844 38.644531 C 64.550781 44.545313 83.789844 31.485938 83.789844 31.485938 " transform="matrix(5,0,0,5,0,0)"/>
<path style="fill:none;stroke-width:19.7;stroke-linecap:butt;stroke-linejoin:miter;stroke:rgb(0%,0%,0%);stroke-opacity:1;stroke-miterlimit:4;" d="M 115.858594 21.829688 C 115.858594 21.829688 138.078125 15.941406 135.078906 27.346875 C 132.079688 38.753125 90.18125 50.564844 88.014844 59.694531 C 85.848438 68.824219 111.414844 73.410938 111.414844 73.410938 C 111.414844 73.410938 106.039844 97.848438 94.646875 116.866406 C 88.185938 127.653125 63.688281 151.766406 63.688281 151.766406 L 61.873438 153.188281 C 61.873438 153.188281 54.301563 145.98125 50.967188 142.36875 C 47.519531 138.632812 41.085938 130.771875 41.085938 130.771875 C 41.085938 130.771875 58.308594 108.260156 92.767188 104.1 C 132.478125 99.305469 164.65 112.14375 164.65 112.14375 " transform="matrix(5,0,0,5,0,0)"/>
<path style="fill:none;stroke-width:19.7;stroke-linecap:butt;stroke-linejoin:miter;stroke:rgb(0%,0%,0%);stroke-opacity:1;stroke-miterlimit:4;" d="M 157.078906 99.74375 C 157.078906 99.74375 149.004688 123.780469 137.200781 144.225 C 125.014063 165.332813 103.082813 183.880469 103.082813 183.880469 " transform="matrix(5,0,0,5,0,0)"/>
</g>
</svg>
