<?xml version="1.0" encoding="UTF-8"?>
<svg xmlns="http://www.w3.org/2000/svg" xmlns:xlink="http://www.w3.org/1999/xlink" width="1000pt" height="1000pt" viewBox="0 0 1000 1000" version="1.1">
<g id="surface1">
<path style="fill:none;stroke-width:19.7;stroke-linecap:butt;stroke-linejoin:miter;stroke:rgb(0%,0%,0%);stroke-opacity:1;stroke-miterlimit:4;" d="M 65.417187 22.917188 C 65.417187 22.917188 60.510938 30.649219 61.69375 38.453906 C 62.675781 44.939063 67.576563 48.5375 67.576563 48.5375 " transform="matrix(5,0,0,5,0,0)"/>
<path style="fill:none;stroke-width:19.7;stroke-linecap:butt;stroke-linejoin:miter;stroke:rgb(0%,0%,0%);stroke-opacity:1;stroke-miterlimit:4;" d="M 99.039844 31.403125 C 99.039844 31.403125 130.525 11.301563 133.420312 30.227344 C 135.748437 45.446875 58.735156 72.892188 58.735156 72.892188 " transform="matrix(5,0,0,5,0,0)"/>
<path style="fill:none;stroke-width:19.7;stroke-linecap:butt;stroke-linejoin:miter;stroke:rgb(0%,0%,0%);stroke-opacity:1;stroke-miterlimit:4;" d="M 34.408594 59.342969 C 34.408594 59.342969 43.938281 75.428906 68.469531 72.614844 C 96.373438 69.413281 161.475781 51.475 161.475781 51.475 " transform="matrix(5,0,0,5,0,0)"/>
<path style="fill:none;stroke-width:19.7;stroke-linecap:butt;stroke-linejoin:miter;stroke:rgb(0%,0%,0%);stroke-opacity:1;stroke-miterlimit:4;" d="M 74.632031 71.633594 C 74.632031 71.633594 60.709375 83.710156 58.732813 104.61875 C 56.388281 129.411719 59.357813 161.575 59.357813 161.575 L 56.808594 165.2875 C 56.808594 165.2875 51.546094 162.236719 45.222656 158.250781 C 39.496094 154.639844 32.353125 148.060937 32.353125 148.060937 C 32.353125 148.060937 42.255469 133.499219 56.255469 121.669531 C 66.785938 112.771094 88.575781 99.460156 88.575781 99.460156 " transform="matrix(5,0,0,5,0,0)"/>
<path style="fill:none;stroke-width:19.7;stroke-linecap:butt;stroke-linejoin:miter;stroke:rgb(0%,0%,0%);stroke-opacity:1;stroke-miterlimit:4;" d="M 107.56875 91.907813 C 107.56875 91.907813 131.189844 78.172656 139.410938 90.9625 C 146.611719 102.165625 142.455469 173.685156 142.455469 173.685156 L 140.211719 177.69375 C 140.211719 177.69375 105.707813 151.497656 100.507812 140.304688 C 93.436719 125.082031 151.802344 93.498438 153.410938 111.403125 C 154.442188 122.875781 127.175781 130.001563 126.855469 136.116406 C 126.345313 145.86875 143.705469 144.486719 157.058594 153.24375 C 164.803906 158.323438 170.988281 163.357031 170.988281 163.357031 " transform="matrix(5,0,0,5,0,0)"/>
</g>
</svg>
