<?xml version="1.0" encoding="UTF-8"?>
<svg xmlns="http://www.w3.org/2000/svg" xmlns:xlink="http://www.w3.org/1999/xlink" width="1000pt" height="1000pt" viewBox="0 0 1000 1000" version="1.1">
<g id="surface1">
<path style="fill:none;stroke-width:19.7;stroke-linecap:butt;stroke-linejoin:miter;stroke:rgb(0%,0%,0%);stroke-opacity:1;stroke-miterlimit:4;" d="M 68.814063 39.760156 C 68.814063 39.760156 69.919531 46.305469 83.157813 49.147656 C 96.395313 51.989844 137.464063 40.997656 137.464063 40.997656 " transform="matrix(5,0,0,5,0,0)"/>
<path style="fill:none;stroke-width:19.7;stroke-linecap:butt;stroke-linejoin:miter;stroke:rgb(0%,0%,0%);stroke-opacity:1;stroke-miterlimit:4;" d="M 100.732031 18.864062 C 100.732031 18.864062 104.01875 35.603906 104.639844 47.123438 C 105.566406 64.303906 103.973438 81.920313 103.973438 81.920313 " transform="matrix(5,0,0,5,0,0)"/>
<path style="fill:none;stroke-width:19.7;stroke-linecap:butt;stroke-linejoin:miter;stroke:rgb(0%,0%,0%);stroke-opacity:1;stroke-miterlimit:4;" d="M 25.032031 77.8125 C 25.032031 77.8125 33.654688 85.017188 68.685938 86.583594 C 103.716406 88.15 154.510938 74.246094 154.510938 74.246094 L 35.5375 167.376563 " transform="matrix(5,0,0,5,0,0)"/>
<path style="fill:none;stroke-width:19.7;stroke-linecap:butt;stroke-linejoin:miter;stroke:rgb(0%,0%,0%);stroke-opacity:1;stroke-miterlimit:4;" d="M 82.373438 130.739063 C 82.373438 130.739063 88.925781 127.614844 93.921094 134.032813 C 102.746094 145.373437 102.414062 183.073438 102.414062 183.073438 C 102.414062 183.073438 107.686719 163.373438 114.144531 154.215625 C 120.602344 145.058594 127.796875 137.265625 127.796875 137.265625 " transform="matrix(5,0,0,5,0,0)"/>
<path style="fill:none;stroke-width:19.7;stroke-linecap:butt;stroke-linejoin:miter;stroke:rgb(0%,0%,0%);stroke-opacity:1;stroke-miterlimit:4;" d="M 140.646875 127.414844 C 140.646875 127.414844 157.047656 130.336719 165.775781 140.832031 C 173.776563 150.452344 173.058594 162.167188 173.058594 162.167188 " transform="matrix(5,0,0,5,0,0)"/>
</g>
</svg>
