<?xml version="1.0" encoding="UTF-8"?>
<svg xmlns="http://www.w3.org/2000/svg" xmlns:xlink="http://www.w3.org/1999/xlink" width="1000pt" height="1000pt" viewBox="0 0 1000 1000" version="1.1">
<g id="surface1">
<path style="fill:none;stroke-width:19.7;stroke-linecap:butt;stroke-linejoin:miter;stroke:rgb(0%,0%,0%);stroke-opacity:1;stroke-miterlimit:4;" d="M 62.376563 17.083594 C 62.376563 17.083594 69.320312 65.114844 69.44375 85.807031 C 69.567969 106.499219 71.035938 139.167188 71.035938 139.167188 L 67.644531 139.696094 C 67.644531 139.696094 64.141406 133.092969 60.735156 127.239844 C 58.408594 123.241406 51.703125 116.521094 51.703125 116.521094 " transform="matrix(5,0,0,5,0,0)"/>
<path style="fill:none;stroke-width:19.7;stroke-linecap:butt;stroke-linejoin:miter;stroke:rgb(0%,0%,0%);stroke-opacity:1;stroke-miterlimit:4;" d="M 28.716406 96.201563 C 28.716406 96.201563 28.6875 104.884375 31.385938 109.647656 C 33.763281 113.844531 40.291406 119.785938 40.291406 119.785938 L 41.946094 120.885938 C 41.946094 120.885938 135.535938 19.784375 151.774219 37.502344 C 168.0125 55.220313 133.3375 75.485938 133.3375 75.485938 C 133.3375 75.485938 141.314063 98.772656 141.376563 111.202344 C 141.470313 129.903125 138.911719 137.45625 138.911719 137.45625 L 135.557813 139.503906 C 135.557813 139.503906 129.151563 136.115625 120.215625 131.871875 C 107.982031 126.061719 94.767969 122.261719 101.646094 113.917969 C 120.783594 90.7 177.795313 91.571094 177.795313 91.571094 " transform="matrix(5,0,0,5,0,0)"/>
<path style="fill:none;stroke-width:19.7;stroke-linecap:butt;stroke-linejoin:miter;stroke:rgb(0%,0%,0%);stroke-opacity:1;stroke-miterlimit:4;" d="M 39.235938 55.23125 C 39.235938 55.23125 48.93125 62.372656 63.349219 62.886719 C 77.767188 63.400781 89.533594 57.092969 89.533594 57.092969 " transform="matrix(5,0,0,5,0,0)"/>
<path style="fill:none;stroke-width:19.7;stroke-linecap:butt;stroke-linejoin:miter;stroke:rgb(0%,0%,0%);stroke-opacity:1;stroke-miterlimit:4;" d="M 43.590625 146.778906 C 43.590625 146.778906 36.966406 164.465625 57.210938 172.448438 C 84.732813 183.299219 161.622656 171.747656 161.622656 171.747656 " transform="matrix(5,0,0,5,0,0)"/>
</g>
</svg>
