<?xml version="1.0" encoding="UTF-8"?>
<svg xmlns="http://www.w3.org/2000/svg" xmlns:xlink="http://www.w3.org/1999/xlink" width="1000pt" height="1000pt" viewBox="0 0 1000 1000" version="1.1">
<g id="surface1">
<path style="fill:none;stroke-width:19.7;stroke-linecap:butt;stroke-linejoin:miter;stroke:rgb(0%,0%,0%);stroke-opacity:1;stroke-miterlimit:4;" d="M 52.54375 48.103125 C 52.54375 48.103125 71.657813 72.228125 149.965625 42.746094 " transform="matrix(5,0,0,5,0,0)"/>
<path style="fill:none;stroke-width:19.7;stroke-linecap:butt;stroke-linejoin:miter;stroke:rgb(0%,0%,0%);stroke-opacity:1;stroke-miterlimit:4;" d="M 95.767969 14.316406 C 95.767969 14.316406 94.394531 66.247656 108.414062 76.107031 C 122.433594 85.967188 137.945312 82.719531 137.945312 82.719531 L 138.003906 83.905469 C 138.003906 83.905469 98.027344 94.908594 79.127344 109.821094 " transform="matrix(5,0,0,5,0,0)"/>
<path style="fill:none;stroke-width:19.7;stroke-linecap:butt;stroke-linejoin:miter;stroke:rgb(0%,0%,0%);stroke-opacity:1;stroke-miterlimit:4;" d="M 27.240625 129.060937 C 27.240625 129.060937 17.079688 144.214063 28.850781 147.4125 C 40.621094 150.610938 71.741406 138.985938 80.695312 131.084375 C 89.649219 123.182031 75.575 106.853906 64.930469 109.605469 C 54.285156 112.357813 51.339063 145.6375 51.516406 157.683594 C 51.692969 169.729688 52.928125 180.73125 52.928125 180.73125 L 55.875 180.167969 C 55.875 180.167969 73.186719 158.815625 109.79375 138.622656 C 140.428906 121.724219 156.903125 117.028125 156.903125 117.028125 L 156.092969 114.586719 C 156.092969 114.586719 143.057031 104.153125 128.485156 106.279688 C 116.7 108 111.530469 168.233594 130.617188 173.601562 C 146.8625 178.169531 179.546094 171.9625 179.546094 171.9625 " transform="matrix(5,0,0,5,0,0)"/>
</g>
</svg>
