<?xml version="1.0" encoding="UTF-8"?>
<svg xmlns="http://www.w3.org/2000/svg" xmlns:xlink="http://www.w3.org/1999/xlink" width="1000pt" height="1000pt" viewBox="0 0 1000 1000" version="1.1">
<g id="surface1">
<path style="fill:none;stroke-width:19.7;stroke-linecap:butt;stroke-linejoin:miter;stroke:rgb(0%,0%,0%);stroke-opacity:1;stroke-miterlimit:4;" d="M 42.024219 54.378906 C 42.024219 54.378906 31.442188 82.276563 31.9625 100.338281 C 32.382031 114.896875 36.2875 134.427344 36.2875 134.427344 L 38.580469 133.839844 C 38.580469 133.839844 43.969531 95.582813 64.566406 73.688281 C 85.805469 51.110938 120.821094 40.505469 142.29375 54.969531 C 163.272656 69.101562 174.579688 94.903906 160.629688 120.180469 C 143.897656 150.499219 107.567188 151.502344 90.446875 140.815625 C 76.963281 132.4 63.511719 119.266406 75.253906 105.236719 C 92.169531 85.025781 134.764844 97.939844 134.764844 97.939844 " transform="matrix(5,0,0,5,0,0)"/>
<path style="fill:none;stroke-width:19.7;stroke-linecap:butt;stroke-linejoin:miter;stroke:rgb(0%,0%,0%);stroke-opacity:1;stroke-miterlimit:4;" d="M 76.327344 21.739844 C 76.327344 21.739844 115.58125 23.390625 116.936719 46.186719 C 118.6375 74.786719 117.135156 114.234375 108.613281 135.067188 C 97.8 161.5 60.975781 180.642969 60.975781 180.642969 " transform="matrix(5,0,0,5,0,0)"/>
</g>
</svg>
