<?xml version="1.0" encoding="UTF-8"?>
<svg xmlns="http://www.w3.org/2000/svg" xmlns:xlink="http://www.w3.org/1999/xlink" width="1000pt" height="1000pt" viewBox="0 0 1000 1000" version="1.1">
<g id="surface1">
<path style="fill:none;stroke-width:19.7;stroke-linecap:butt;stroke-linejoin:miter;stroke:rgb(0%,0%,0%);stroke-opacity:1;stroke-miterlimit:4;" d="M 66.192188 25.478125 C 66.192188 25.478125 80.573438 40.571094 129.03125 27.635938 " transform="matrix(5,0,0,5,0,0)"/>
<path style="fill:none;stroke-width:19.7;stroke-linecap:butt;stroke-linejoin:miter;stroke:rgb(0%,0%,0%);stroke-opacity:1;stroke-miterlimit:4;" d="M 64.428906 61.271875 C 64.428906 61.271875 52.949219 82.674219 82.242969 78.938281 C 111.536719 75.202344 143.453906 66.816406 143.453906 66.816406 L 143.263281 65.917969 C 143.263281 65.917969 132.390625 43.299219 119.945312 48.599219 C 107.5 53.9 112.325 153.55625 112.325 153.55625 L 110.79375 154.546094 C 110.79375 154.546094 65.701563 118.432031 82.629688 104.835938 C 96.463281 93.725781 110.669531 90.302344 118.115625 95.514844 C 126.570312 101.432813 107.445312 112.980469 106.222656 122.275781 C 105 131.571875 142.625781 124.841406 142.625781 124.841406 " transform="matrix(5,0,0,5,0,0)"/>
<path style="fill:none;stroke-width:19.7;stroke-linecap:butt;stroke-linejoin:miter;stroke:rgb(0%,0%,0%);stroke-opacity:1;stroke-miterlimit:4;" d="M 39.859375 139.317969 C 39.859375 139.317969 18.779688 153.640625 42.989844 165.920313 C 67.2 178.2 162.199219 170.998438 170.984375 167.264844 " transform="matrix(5,0,0,5,0,0)"/>
</g>
</svg>
