<?xml version="1.0" encoding="UTF-8"?>
<svg xmlns="http://www.w3.org/2000/svg" xmlns:xlink="http://www.w3.org/1999/xlink" width="1000pt" height="1000pt" viewBox="0 0 1000 1000" version="1.1">
<g id="surface1">
<path style="fill:none;stroke-width:19.7;stroke-linecap:butt;stroke-linejoin:miter;stroke:rgb(0%,0%,0%);stroke-opacity:1;stroke-miterlimit:4;" d="M 41.957813 21.360938 C 41.957813 21.360938 31.792188 83.485938 32.539844 110.05625 C 33.2875 136.626563 40.375781 166.036719 40.375781 166.036719 L 42.110156 165.035156 C 42.110156 165.035156 44.042188 135.407813 58.014844 108.864844 " transform="matrix(5,0,0,5,0,0)"/>
<path style="fill:none;stroke-width:19.7;stroke-linecap:butt;stroke-linejoin:miter;stroke:rgb(0%,0%,0%);stroke-opacity:1;stroke-miterlimit:4;" d="M 83.642188 39.953906 C 83.642188 39.953906 108.325781 44.453906 123.903906 43.017188 C 138.128125 41.704688 155.032813 36.777344 155.032813 36.777344 L 155.678906 38.195312 C 155.678906 38.195312 125.153125 83.884375 112.28125 96.74375 C 99.410156 109.603125 77.550781 137.370313 77.550781 137.370313 L 79.367188 138.700781 C 79.367188 138.700781 98.439844 116.264063 112.15 123.31875 C 119.138281 126.914062 125.732031 141.932031 125.732031 141.932031 L 128.646875 141.357031 C 128.646875 141.357031 149.241406 113.779688 165.779688 124.774219 C 182.317969 135.76875 157.313281 162.667188 130.46875 178.026563 " transform="matrix(5,0,0,5,0,0)"/>
</g>
</svg>
