<?xml version="1.0" encoding="UTF-8"?>
<svg xmlns="http://www.w3.org/2000/svg" xmlns:xlink="http://www.w3.org/1999/xlink" width="1000pt" height="1000pt" viewBox="0 0 1000 1000" version="1.1">
<g id="surface1">
<path style="fill:none;stroke-width:19.7;stroke-linecap:butt;stroke-linejoin:miter;stroke:rgb(0%,0%,0%);stroke-opacity:1;stroke-miterlimit:4;" d="M 61.0625 24.335156 C 61.0625 24.335156 65.825 43.916406 85.494531 48.622656 " transform="matrix(5,0,0,5,0,0)"/>
<path style="fill:none;stroke-width:19.7;stroke-linecap:butt;stroke-linejoin:miter;stroke:rgb(0%,0%,0%);stroke-opacity:1;stroke-miterlimit:4;" d="M 22.803125 92.057813 C 22.803125 92.057813 27.353906 100.642969 36.114063 99.358594 C 44.873438 98.074219 45.225 97.760156 54.826563 94.035938 C 61.439063 91.470313 66.665625 92.802344 66.665625 92.802344 L 65.861719 95.992188 C 65.861719 95.992188 58.844531 123.457813 59.067969 135.667188 C 59.439063 155.953125 64.561719 164.652344 64.561719 164.652344 L 65.953125 164.652344 C 65.953125 164.652344 68.698437 144.353125 81.475781 126.300781 " transform="matrix(5,0,0,5,0,0)"/>
<path style="fill:none;stroke-width:19.7;stroke-linecap:butt;stroke-linejoin:miter;stroke:rgb(0%,0%,0%);stroke-opacity:1;stroke-miterlimit:4;" d="M 92.280469 105.028906 C 92.280469 105.028906 102.957031 88.622656 124.475 79.311719 C 145.99375 70 177.008594 68.207031 177.008594 68.207031 L 176.801563 66.414062 C 176.801563 66.414062 148.558594 29.711719 142.239844 36.8125 C 135.921094 43.9125 143.314063 76.701563 144.248437 92.710156 C 145.182031 108.71875 149.289062 142.752344 131.961719 183.929688 " transform="matrix(5,0,0,5,0,0)"/>
</g>
</svg>
