<?xml version="1.0" encoding="UTF-8"?>
<svg xmlns="http://www.w3.org/2000/svg" xmlns:xlink="http://www.w3.org/1999/xlink" width="1000pt" height="1000pt" viewBox="0 0 1000 1000" version="1.1">
<g id="surface1">
<path style="fill:none;stroke-width:19.7;stroke-linecap:butt;stroke-linejoin:miter;stroke:rgb(0%,0%,0%);stroke-opacity:1;stroke-miterlimit:4;" d="M 34.145313 45.590625 C 34.145313 45.590625 102.970313 18.145312 127.074219 31.490625 C 145.249219 41.553125 139.496875 114.091406 82.070312 101.526563 " transform="matrix(5,0,0,5,0,0)"/>
<path style="fill:none;stroke-width:19.7;stroke-linecap:butt;stroke-linejoin:miter;stroke:rgb(0%,0%,0%);stroke-opacity:1;stroke-miterlimit:4;" d="M 86.289844 71.389063 C 86.289844 71.389063 79.589063 107.446875 67.182812 128.6125 C 52.95625 152.884375 32.972656 174.639844 32.972656 174.639844 " transform="matrix(5,0,0,5,0,0)"/>
<path style="fill:none;stroke-width:19.7;stroke-linecap:butt;stroke-linejoin:miter;stroke:rgb(0%,0%,0%);stroke-opacity:1;stroke-miterlimit:4;" d="M 59.027344 140.511719 C 59.027344 140.511719 82.692188 120.602344 98.117188 124.833594 C 113.541406 129.064844 113.1875 159.896094 129.19375 169.648438 C 145.2 179.4 173.790625 171.6625 173.790625 171.6625 " transform="matrix(5,0,0,5,0,0)"/>
</g>
</svg>
