<?xml version="1.0" encoding="UTF-8"?>
<svg xmlns="http://www.w3.org/2000/svg" xmlns:xlink="http://www.w3.org/1999/xlink" width="1000pt" height="1000pt" viewBox="0 0 1000 1000" version="1.1">
<g id="surface1">
<path style="fill:none;stroke-width:19.7;stroke-linecap:butt;stroke-linejoin:miter;stroke:rgb(0%,0%,0%);stroke-opacity:1;stroke-miterlimit:4;" d="M 53.2375 24.95 C 53.2375 24.95 62.134375 24.432031 60.171094 37.071875 C 58.207031 49.711719 32.228125 85.434375 32.228125 85.434375 L 33.226562 87.477344 C 33.226562 87.477344 46.753906 78.926563 53.361719 76.923438 C 59.96875 74.920313 74.514063 74.4875 74.514063 74.4875 " transform="matrix(5,0,0,5,0,0)"/>
<path style="fill:none;stroke-width:19.7;stroke-linecap:butt;stroke-linejoin:miter;stroke:rgb(0%,0%,0%);stroke-opacity:1;stroke-miterlimit:4;" d="M 44.889063 94.85 C 44.889063 94.85 56.375 99.264063 54.950781 111.385156 C 53.527344 123.507031 50.551563 138.121875 50.303125 148.057813 C 50.055469 157.99375 51.882031 170.861719 51.882031 170.861719 L 53.961719 170.613281 C 53.961719 170.613281 64.064844 141.021094 66.104687 136.095313 C 68.144531 131.170312 77.447656 112.114844 77.447656 112.114844 " transform="matrix(5,0,0,5,0,0)"/>
<path style="fill:none;stroke-width:19.7;stroke-linecap:butt;stroke-linejoin:miter;stroke:rgb(0%,0%,0%);stroke-opacity:1;stroke-miterlimit:4;" d="M 121.284375 18.925781 C 121.284375 18.925781 122.121094 32.495313 119.964844 40.816406 C 116.24375 55.178125 109.850781 64.825 109.850781 64.825 L 111.432031 66.429688 C 111.432031 66.429688 119.677344 62.664844 128.889062 57.253906 C 133.047656 54.810938 141.959375 47.833594 147.228125 49.810156 C 153.914844 52.31875 144.899219 71.047656 145.044531 89.696094 C 145.110938 98.277344 146.205469 169.290625 146.205469 169.290625 L 144.376563 173.033594 C 144.376563 173.033594 103.904688 151.445312 102.491406 134.65625 C 100.5 111 122.596094 95.049219 130.478125 105.184375 C 139.344531 116.586719 118.407031 122.375 125.259375 131.860938 C 132.8 142.3 174.589063 132.471875 174.589063 132.471875 " transform="matrix(5,0,0,5,0,0)"/>
</g>
</svg>
