<?xml version="1.0" encoding="UTF-8"?>
<svg xmlns="http://www.w3.org/2000/svg" xmlns:xlink="http://www.w3.org/1999/xlink" width="1000pt" height="1000pt" viewBox="0 0 1000 1000" version="1.1">
<g id="surface1">
<path style="fill:none;stroke-width:19.7;stroke-linecap:butt;stroke-linejoin:miter;stroke:rgb(0%,0%,0%);stroke-opacity:1;stroke-miterlimit:4;" d="M 96.971875 16.539062 C 96.971875 16.539062 126.50625 22.108594 124.083594 35.8375 C 121.660938 49.566406 107.678125 37.339063 102.149219 51.765625 C 98.645313 60.908594 104.788281 67.157813 105.171875 85.785938 C 105.549219 104.175781 104.342188 106.386719 104.342188 106.386719 L 103.347656 106.713281 C 103.347656 106.713281 96.375 98.832031 83.086719 94.482031 " transform="matrix(5,0,0,5,0,0)"/>
<path style="fill:none;stroke-width:19.7;stroke-linecap:butt;stroke-linejoin:miter;stroke:rgb(0%,0%,0%);stroke-opacity:1;stroke-miterlimit:4;" d="M 42.935156 58.139063 C 42.935156 58.139063 47.226562 90.885938 118.142188 66.373438 " transform="matrix(5,0,0,5,0,0)"/>
<path style="fill:none;stroke-width:19.7;stroke-linecap:butt;stroke-linejoin:miter;stroke:rgb(0%,0%,0%);stroke-opacity:1;stroke-miterlimit:4;" d="M 51.285156 109.216406 C 51.285156 109.216406 38.458594 123.454688 33.439062 129.386719 C 28.419531 135.31875 25.221875 147.320312 25.221875 147.320312 L 26.599219 148.302344 C 26.599219 148.302344 75.671875 89.93125 180.390625 121.040625 " transform="matrix(5,0,0,5,0,0)"/>
<path style="fill:none;stroke-width:19.7;stroke-linecap:butt;stroke-linejoin:miter;stroke:rgb(0%,0%,0%);stroke-opacity:1;stroke-miterlimit:4;" d="M 98.075 124.067188 C 98.075 124.067188 76.65625 135.928906 67.984375 146.688281 C 59.311719 157.446875 59.424219 162.889063 59.424219 162.889063 L 61.225 162.889063 C 61.225 162.889063 78.160156 138.691406 118.310156 138.171875 C 152.311719 137.732812 156.694531 170.4 123.801563 179.66875 C 84.307031 190.798438 82.132031 161.466406 106.615625 158.767188 C 131.235938 156.053125 139.528906 172.664844 139.528906 172.664844 " transform="matrix(5,0,0,5,0,0)"/>
</g>
</svg>
