<?xml version="1.0" encoding="UTF-8"?>
<svg xmlns="http://www.w3.org/2000/svg" xmlns:xlink="http://www.w3.org/1999/xlink" width="1000pt" height="1000pt" viewBox="0 0 1000 1000" version="1.1">
<g id="surface1">
<path style="fill:none;stroke-width:19.7;stroke-linecap:butt;stroke-linejoin:miter;stroke:rgb(0%,0%,0%);stroke-opacity:1;stroke-miterlimit:4;" d="M 66.496875 20.633594 C 66.496875 20.633594 92.160938 34.480469 115.702344 28.963281 " transform="matrix(5,0,0,5,0,0)"/>
<path style="fill:none;stroke-width:19.7;stroke-linecap:butt;stroke-linejoin:miter;stroke:rgb(0%,0%,0%);stroke-opacity:1;stroke-miterlimit:4;" d="M 57.425781 39.897656 C 57.425781 39.897656 55.696875 48.19375 61.496875 51.720313 C 67.296875 55.247656 88.5875 55.222656 88.5875 55.222656 L 88.792188 56.521875 C 88.792188 56.521875 73.459375 64.724219 64.910156 70.458594 C 56.360938 76.192969 34.91875 88.425 34.91875 88.425 L 35.492188 89.676563 C 35.492188 89.676563 72.598438 67.066406 128.6375 69.377344 C 171.6625 71.151562 173.878125 90.709375 144.70625 96.892188 " transform="matrix(5,0,0,5,0,0)"/>
<path style="fill:none;stroke-width:19.7;stroke-linecap:butt;stroke-linejoin:miter;stroke:rgb(0%,0%,0%);stroke-opacity:1;stroke-miterlimit:4;" d="M 65.942188 94.779688 C 65.942188 94.779688 67.276562 109.271094 85.572656 108.384375 C 105.525781 107.417969 125.48125 107.671094 129.090625 98.635156 C 132.7 89.6 112.025 80.214063 105.339844 84.535938 C 98.285156 89.096094 100.7 109.082031 99.578906 128.149219 C 98.457031 147.216406 107.882031 174.33125 93.141406 177.365625 C 78.4 180.4 45.0875 149.985156 57.789844 137.779687 C 70.492188 125.574219 103.728906 115.038281 109.914062 124.119531 C 116.1 133.2 90.625 135.539062 91.622656 145.370313 C 92.620313 155.201563 130.366406 147.453906 146.305469 168.496875 " transform="matrix(5,0,0,5,0,0)"/>
</g>
</svg>
