<?xml version="1.0" encoding="UTF-8"?>
<svg xmlns="http://www.w3.org/2000/svg" xmlns:xlink="http://www.w3.org/1999/xlink" width="1000pt" height="1000pt" viewBox="0 0 1000 1000" version="1.1">
<g id="surface1">
<path style="fill:none;stroke-width:19.7;stroke-linecap:butt;stroke-linejoin:miter;stroke:rgb(0%,0%,0%);stroke-opacity:1;stroke-miterlimit:4;" d="M 84.239063 20.920313 C 84.239063 20.920313 104.032813 29.692969 101.819531 49.182031 C 99.607031 68.671094 96.3375 71.842969 96.3375 71.842969 L 94.907813 73.596094 C 94.907813 73.596094 82.764844 63.024219 74 58.6 " transform="matrix(5,0,0,5,0,0)"/>
<path style="fill:none;stroke-width:19.7;stroke-linecap:butt;stroke-linejoin:miter;stroke:rgb(0%,0%,0%);stroke-opacity:1;stroke-miterlimit:4;" d="M 37.835156 50.192969 C 37.835156 50.192969 58.046094 53.214063 75.98125 46.555469 C 93.917188 39.897656 149.767969 21.183594 151.397656 43.014063 C 153.026563 64.845313 59.879688 112.670313 59.879688 112.670313 L 60.813281 113.913281 C 60.813281 113.913281 124.650781 71.860938 151.109375 103.657813 C 177.567188 135.454688 145.483594 203.396875 91.178906 169.582031 " transform="matrix(5,0,0,5,0,0)"/>
<path style="fill:none;stroke-width:19.7;stroke-linecap:butt;stroke-linejoin:miter;stroke:rgb(0%,0%,0%);stroke-opacity:1;stroke-miterlimit:4;" d="M 50.7 129.9 C 50.7 129.9 63.401563 128.439063 64.391406 139.573438 C 65.380469 150.708594 57.998438 163.659375 57.998438 163.659375 L 60.046875 164.982031 C 60.046875 164.982031 72.802344 151.934375 97.975 152.104688 " transform="matrix(5,0,0,5,0,0)"/>
<path style="fill:none;stroke-width:19.7;stroke-linecap:butt;stroke-linejoin:miter;stroke:rgb(0%,0%,0%);stroke-opacity:1;stroke-miterlimit:4;" d="M 77.786719 138.248437 C 77.786719 138.248437 103.364063 121.496875 133.932031 130.948438 " transform="matrix(5,0,0,5,0,0)"/>
<path style="fill:none;stroke-width:19.7;stroke-linecap:butt;stroke-linejoin:miter;stroke:rgb(0%,0%,0%);stroke-opacity:1;stroke-miterlimit:4;" d="M 102.003125 105.004688 C 102.003125 105.004688 109.923438 119.700781 110.250781 136.419531 C 110.578125 153.139062 102.70625 172.760938 102.70625 172.760938 " transform="matrix(5,0,0,5,0,0)"/>
</g>
</svg>
