<?xml version="1.0" encoding="UTF-8"?>
<svg xmlns="http://www.w3.org/2000/svg" xmlns:xlink="http://www.w3.org/1999/xlink" width="1000pt" height="1000pt" viewBox="0 0 1000 1000" version="1.1">
<g id="surface1">
<path style="fill:none;stroke-width:19.7;stroke-linecap:butt;stroke-linejoin:miter;stroke:rgb(0%,0%,0%);stroke-opacity:1;stroke-miterlimit:4;" d="M 41.204688 20.728906 C 41.204688 20.728906 34.083594 100.269531 34.86875 119.965625 C 35.7125 141.139844 40.9625 163.9875 40.9625 163.9875 L 45.392188 163.659375 C 45.392188 163.659375 52.863281 102.219531 81.592188 62.392188 C 103.99375 31.3375 139.592969 30.332813 139.592969 30.332813 C 139.592969 30.332813 141.20625 121.311719 140.349219 131.424219 C 139.300781 143.791406 140.804688 174.733594 123.885156 172.242969 C 106.965625 169.753125 81.225781 150.539062 86.852344 122.978125 C 92.2 96.782031 137.492188 85.132031 137.492188 85.132031 C 137.492188 85.132031 106.302344 113.6875 117.75 122.64375 C 132.649219 134.301563 175.750781 124.3375 175.750781 124.3375 " transform="matrix(5,0,0,5,0,0)"/>
</g>
</svg>
