<?xml version="1.0" encoding="UTF-8"?>
<svg xmlns="http://www.w3.org/2000/svg" xmlns:xlink="http://www.w3.org/1999/xlink" width="1000pt" height="1000pt" viewBox="0 0 1000 1000" version="1.1">
<g id="surface1">
<path style="fill:none;stroke-width:19.7;stroke-linecap:butt;stroke-linejoin:miter;stroke:rgb(0%,0%,0%);stroke-opacity:1;stroke-miterlimit:4;" d="M 47.2625 40.982031 C 47.2625 40.982031 74.784375 49.101562 99.417969 47.792969 C 125.211719 46.422656 152.633594 38.757031 152.633594 38.757031 " transform="matrix(5,0,0,5,0,0)"/>
<path style="fill:none;stroke-width:19.7;stroke-linecap:butt;stroke-linejoin:miter;stroke:rgb(0%,0%,0%);stroke-opacity:1;stroke-miterlimit:4;" d="M 89.696875 19.523438 C 89.696875 19.523438 96.900781 60.291406 101.715625 70.410938 C 106.530469 80.530469 114.434375 83.155469 114.434375 83.155469 L 114.60625 84.614063 L 27.9875 119.353125 L 28.442188 120.890625 C 28.442188 120.890625 94.508594 103.1875 97.589844 123.005469 C 100.671875 142.822656 81.280469 169.75625 71.125 172.602344 C 60.970313 175.449219 50.029688 158.399219 50.029688 158.399219 " transform="matrix(5,0,0,5,0,0)"/>
<path style="fill:none;stroke-width:19.7;stroke-linecap:butt;stroke-linejoin:miter;stroke:rgb(0%,0%,0%);stroke-opacity:1;stroke-miterlimit:4;" d="M 51.677344 90.166406 C 51.677344 90.166406 59.651563 107.955469 56.06875 125.2 C 51.244531 148.417969 34.974219 173.221094 34.974219 173.221094 " transform="matrix(5,0,0,5,0,0)"/>
<path style="fill:none;stroke-width:19.7;stroke-linecap:butt;stroke-linejoin:miter;stroke:rgb(0%,0%,0%);stroke-opacity:1;stroke-miterlimit:4;" d="M 111.282031 104.302344 C 111.282031 104.302344 110.88125 107.225 111.61875 114.732813 C 112.4875 123.58125 121.057031 127.950781 121.057031 127.950781 C 121.057031 127.950781 121.748438 126.95625 122.504688 125.854688 C 126.839063 119.540625 136.550781 110.142188 150.483594 108.954688 C 172.995313 107.0375 177.502344 124.302344 166.796094 140.617969 C 156.089063 156.933594 137.327344 167.760156 109.980469 174.133594 " transform="matrix(5,0,0,5,0,0)"/>
</g>
</svg>
