<?xml version="1.0" encoding="UTF-8"?>
<svg xmlns="http://www.w3.org/2000/svg" xmlns:xlink="http://www.w3.org/1999/xlink" width="1000pt" height="1000pt" viewBox="0 0 1000 1000" version="1.1">
<g id="surface1">
<path style="fill:none;stroke-width:19.7;stroke-linecap:butt;stroke-linejoin:miter;stroke:rgb(0%,0%,0%);stroke-opacity:1;stroke-miterlimit:4;" d="M 75.521875 25.038281 C 75.521875 25.038281 81.821094 30.672656 89.589063 34.239063 C 97.357031 37.805469 108.647656 38.964844 108.647656 38.964844 " transform="matrix(5,0,0,5,0,0)"/>
<path style="fill:none;stroke-width:19.7;stroke-linecap:butt;stroke-linejoin:miter;stroke:rgb(0%,0%,0%);stroke-opacity:1;stroke-miterlimit:4;" d="M 148.642188 28.63125 C 148.642188 28.63125 153.292969 45.777344 135.33125 82.096094 C 117.369531 118.414062 47.928906 175.49375 47.928906 175.49375 " transform="matrix(5,0,0,5,0,0)"/>
<path style="fill:none;stroke-width:19.7;stroke-linecap:butt;stroke-linejoin:miter;stroke:rgb(0%,0%,0%);stroke-opacity:1;stroke-miterlimit:4;" d="M 53.089063 89.671094 C 53.089063 89.671094 99.604688 64.255469 119.613281 69.871875 C 139.095313 75.339844 142.828906 102.461719 139.33125 127.120313 C 135.833594 151.778906 121.553906 171.142969 121.553906 171.142969 L 118.6875 174.672656 C 118.6875 174.672656 110.842969 169.711719 102.472656 162.322656 C 97.007031 157.497656 87.68125 146.79375 87.68125 146.79375 " transform="matrix(5,0,0,5,0,0)"/>
</g>
</svg>
