<?xml version="1.0" encoding="UTF-8"?>
<svg xmlns="http://www.w3.org/2000/svg" xmlns:xlink="http://www.w3.org/1999/xlink" width="1000pt" height="1000pt" viewBox="0 0 1000 1000" version="1.1">
<g id="surface1">
<path style="fill:none;stroke-width:19.7;stroke-linecap:butt;stroke-linejoin:miter;stroke:rgb(0%,0%,0%);stroke-opacity:1;stroke-miterlimit:4;" d="M 98.109375 17.817969 C 98.109375 17.817969 88.361719 31.248438 81.410938 36.875781 C 65.364063 49.866406 31.888281 66.296875 41.285938 79.484375 C 52.575781 95.326563 98.465625 74.003125 98.465625 74.003125 L 97.782031 72.082031 C 97.782031 72.082031 95.7 67.969531 91.702344 70.601562 C 87.705469 73.233594 73.525 95.267969 76.182812 104.966406 C 78.841406 114.664844 95.704688 116.3625 98.283594 132.639844 C 101.803906 154.864844 83.828906 177.623438 83.828906 177.623438 L 81.963281 179.732813 C 81.963281 179.732813 72.099219 173.413281 65.214062 168.109375 C 60.067969 164.146094 47.360938 155.639063 47.360938 155.639063 " transform="matrix(5,0,0,5,0,0)"/>
<path style="fill:none;stroke-width:19.7;stroke-linecap:butt;stroke-linejoin:miter;stroke:rgb(0%,0%,0%);stroke-opacity:1;stroke-miterlimit:4;" d="M 29.041406 120.335156 C 29.041406 120.335156 40.663281 124.248438 41.426563 131.457813 C 42.601562 142.560156 36.588281 157.520313 36.588281 157.520313 L 40.267969 159.874219 C 40.267969 159.874219 53.515625 143.64375 68.285156 132.995313 C 76.454688 127.104688 100.139063 112.549219 100.139063 112.549219 " transform="matrix(5,0,0,5,0,0)"/>
<path style="fill:none;stroke-width:19.7;stroke-linecap:butt;stroke-linejoin:miter;stroke:rgb(0%,0%,0%);stroke-opacity:1;stroke-miterlimit:4;" d="M 121.132812 102.308594 C 121.132812 102.308594 144.121094 87.232031 149.254688 97.486719 C 153.177344 105.321094 136.338281 127.678125 144.128906 136.271875 C 149.333594 142.0125 169.2 131.414062 170.516406 145.919531 C 170.880469 149.930469 159.036719 158.470313 148.54375 162.523438 C 136.447656 167.194531 124.238281 170.321094 124.238281 170.321094 " transform="matrix(5,0,0,5,0,0)"/>
</g>
</svg>
