<?xml version="1.0" encoding="UTF-8"?>
<svg xmlns="http://www.w3.org/2000/svg" xmlns:xlink="http://www.w3.org/1999/xlink" width="1000pt" height="1000pt" viewBox="0 0 1000 1000" version="1.1">
<g id="surface1">
<path style="fill:none;stroke-width:19.7;stroke-linecap:butt;stroke-linejoin:miter;stroke:rgb(0%,0%,0%);stroke-opacity:1;stroke-miterlimit:4;" d="M 85.433594 20.958594 C 85.433594 20.958594 97.513281 29.191406 88.0875 49.6 C 80.8 65.377344 67.329688 82.517969 67.329688 82.517969 L 68.832031 83.734375 C 68.832031 83.734375 112.250781 54.853906 119.055469 59.008594 C 127.645313 64.253125 80.126563 126.782031 70.505469 137.307813 C 58.542969 150.396094 43.557813 164.284375 43.557813 164.284375 L 41.815625 162.213281 C 41.815625 162.213281 42.739063 156.689063 43.56875 151.578906 C 44.432031 146.259375 45.04375 140.324219 45.04375 140.324219 " transform="matrix(5,0,0,5,0,0)"/>
<path style="fill:none;stroke-width:19.7;stroke-linecap:butt;stroke-linejoin:miter;stroke:rgb(0%,0%,0%);stroke-opacity:1;stroke-miterlimit:4;" d="M 70.397656 137.528906 C 70.397656 137.528906 91.00625 127.040625 115.441406 136.920312 C 148.708594 150.370313 170.041406 175.029688 170.041406 175.029688 " transform="matrix(5,0,0,5,0,0)"/>
</g>
</svg>
