<?xml version="1.0" encoding="UTF-8"?>
<svg xmlns="http://www.w3.org/2000/svg" xmlns:xlink="http://www.w3.org/1999/xlink" width="1000pt" height="1000pt" viewBox="0 0 1000 1000" version="1.1">
<g id="surface1">
<path style="fill:none;stroke-width:19.7;stroke-linecap:butt;stroke-linejoin:miter;stroke:rgb(0%,0%,0%);stroke-opacity:1;stroke-miterlimit:4;" d="M 47.429688 42.535156 C 47.429688 42.535156 34.104688 83.007031 31.717969 106.607031 C 27.897656 144.375781 36.822656 167.496094 36.822656 167.496094 L 38.757812 167.075781 C 38.757812 167.075781 51.640625 129.2875 91.439063 102.386719 C 129.501563 76.658594 158.591406 73.005469 158.591406 73.005469 " transform="matrix(5,0,0,5,0,0)"/>
<path style="fill:none;stroke-width:19.7;stroke-linecap:butt;stroke-linejoin:miter;stroke:rgb(0%,0%,0%);stroke-opacity:1;stroke-miterlimit:4;" d="M 48.65 75.571875 C 48.65 75.571875 55.314844 83.413281 70.146875 81.115625 C 84.978906 78.81875 88.201563 70.100781 88.201563 70.100781 " transform="matrix(5,0,0,5,0,0)"/>
<path style="fill:none;stroke-width:19.7;stroke-linecap:butt;stroke-linejoin:miter;stroke:rgb(0%,0%,0%);stroke-opacity:1;stroke-miterlimit:4;" d="M 120.038281 31.847656 C 120.038281 31.847656 106.592969 135.14375 120.345313 153.414844 C 136.475781 174.845313 174.142188 159.389844 174.142188 159.389844 " transform="matrix(5,0,0,5,0,0)"/>
</g>
</svg>
