<?xml version="1.0" encoding="UTF-8"?>
<svg xmlns="http://www.w3.org/2000/svg" xmlns:xlink="http://www.w3.org/1999/xlink" width="1000pt" height="1000pt" viewBox="0 0 1000 1000" version="1.1">
<g id="surface1">
<path style="fill:none;stroke-width:19.7;stroke-linecap:butt;stroke-linejoin:miter;stroke:rgb(0%,0%,0%);stroke-opacity:1;stroke-miterlimit:4;" d="M 43.585156 48.753906 C 43.585156 48.753906 59.657031 53.473438 73.48125 47.71875 C 87.305469 41.964063 117.692969 26.526563 126.55625 38.791406 C 135.41875 51.055469 37.4 100.760156 37.4 100.760156 L 38.24375 102.317969 C 38.24375 102.317969 85.257812 91.567969 124.200781 83.628906 C 143.799219 79.633594 161.700781 79.65625 161.700781 79.65625 L 161.760156 78.070312 C 161.760156 78.070312 147.144531 76.91875 132.585938 63.510156 " transform="matrix(5,0,0,5,0,0)"/>
<path style="fill:none;stroke-width:19.7;stroke-linecap:butt;stroke-linejoin:miter;stroke:rgb(0%,0%,0%);stroke-opacity:1;stroke-miterlimit:4;" d="M 67.223438 15.90625 C 67.223438 15.90625 91.848438 48.685938 122.523438 108.995313 C 153.198438 169.304688 156.053906 175.244531 156.053906 175.244531 L 155.094531 175.683594 C 155.094531 175.683594 145.092187 161.11875 102.965625 152.5 " transform="matrix(5,0,0,5,0,0)"/>
<path style="fill:none;stroke-width:19.7;stroke-linecap:butt;stroke-linejoin:miter;stroke:rgb(0%,0%,0%);stroke-opacity:1;stroke-miterlimit:4;" d="M 49.015625 120.517969 C 49.015625 120.517969 55.978125 127.494531 56.936719 134.646094 C 57.778906 140.928125 57.603906 145.140625 57.603906 145.140625 L 59.177344 145.792969 C 59.177344 145.792969 122.166406 93.108594 141.307031 105.142188 C 160.446875 117.175781 95.485938 167.804688 49.207813 180.539062 " transform="matrix(5,0,0,5,0,0)"/>
</g>
</svg>
