<?xml version="1.0" encoding="UTF-8"?>
<svg xmlns="http://www.w3.org/2000/svg" xmlns:xlink="http://www.w3.org/1999/xlink" width="1000pt" height="1000pt" viewBox="0 0 1000 1000" version="1.1">
<g id="surface1">
<path style="fill:none;stroke-width:19.7;stroke-linecap:butt;stroke-linejoin:miter;stroke:rgb(0%,0%,0%);stroke-opacity:1;stroke-miterlimit:4;" d="M 58.328906 26.830469 C 58.328906 26.830469 56.869531 70.739063 30.234375 84.716406 L 29.642188 91.073438 C 29.642188 91.073438 43.845313 95.460156 45.216406 114.160156 C 46.586719 132.859375 44.628906 157.902344 44.628906 157.902344 L 45.796094 158.103125 L 63.773438 122.409375 " transform="matrix(5,0,0,5,0,0)"/>
<path style="fill:none;stroke-width:19.7;stroke-linecap:butt;stroke-linejoin:miter;stroke:rgb(0%,0%,0%);stroke-opacity:1;stroke-miterlimit:4;" d="M 95.089063 34.513281 C 95.089063 34.513281 116.932813 26.016406 130.422656 25.692969 C 143.913281 25.369531 161.021094 27.660156 161.021094 27.660156 " transform="matrix(5,0,0,5,0,0)"/>
<path style="fill:none;stroke-width:19.7;stroke-linecap:butt;stroke-linejoin:miter;stroke:rgb(0%,0%,0%);stroke-opacity:1;stroke-miterlimit:4;" d="M 91.947656 59.338281 C 91.947656 59.338281 97.295313 70.079688 117.510156 67.835938 C 136.414844 65.738281 150.110156 62.8625 150.110156 62.8625 L 151.021875 64.628125 C 151.021875 64.628125 88.632031 95.139063 102.7875 110.539062 C 117.845313 126.921094 173.09375 102.563281 173.09375 102.563281 L 172.671875 100.554688 C 172.671875 100.554688 163.028125 76.875781 153.741406 79.48125 C 143.671094 82.30625 141.686719 104.702344 143.057813 118.360938 C 144.428125 132.019531 144.895313 165.394531 98.507812 182.857813 " transform="matrix(5,0,0,5,0,0)"/>
</g>
</svg>
