<?xml version="1.0" encoding="UTF-8"?>
<svg xmlns="http://www.w3.org/2000/svg" xmlns:xlink="http://www.w3.org/1999/xlink" width="1000pt" height="1000pt" viewBox="0 0 1000 1000" version="1.1">
<g id="surface1">
<path style="fill:none;stroke-width:19.7;stroke-linecap:butt;stroke-linejoin:miter;stroke:rgb(0%,0%,0%);stroke-opacity:1;stroke-miterlimit:4;" d="M 27.807031 61.10625 C 27.807031 61.10625 68.849219 77.650781 92.485938 56.483594 " transform="matrix(5,0,0,5,0,0)"/>
<path style="fill:none;stroke-width:19.7;stroke-linecap:butt;stroke-linejoin:miter;stroke:rgb(0%,0%,0%);stroke-opacity:1;stroke-miterlimit:4;" d="M 61.229688 21.079688 C 61.229688 21.079688 70.850781 80.466406 71.226562 107.520313 C 71.601562 134.574219 67.23125 175.030469 67.23125 175.030469 L 64.891406 175.339063 C 64.891406 175.339063 59.135156 155.171875 40.321875 143.939063 " transform="matrix(5,0,0,5,0,0)"/>
<path style="fill:none;stroke-width:19.7;stroke-linecap:butt;stroke-linejoin:miter;stroke:rgb(0%,0%,0%);stroke-opacity:1;stroke-miterlimit:4;" d="M 62.210938 86.913281 C 62.210938 86.913281 53.28125 103.802344 44.654688 117.209375 C 35.396875 131.597656 26.289062 141.875 26.289062 141.875 L 27.38125 143.614063 C 27.38125 143.614063 60.2875 124.282813 75.714844 103.847656 C 91.142188 83.411719 134.311719 24.698438 159.886719 42.710156 C 179.770313 56.713281 159.985156 99.835156 154.739063 99.746094 C 146.107031 99.599219 132.144531 75.4 119.128906 103.380469 C 106.113281 131.361719 117.114063 168.476562 117.114063 168.476562 L 118.494531 168.342188 C 118.494531 168.342188 124.273438 139.835938 148.627344 139.753906 C 172.980469 139.671875 173.657813 170.011719 173.657813 170.011719 " transform="matrix(5,0,0,5,0,0)"/>
</g>
</svg>
