<?xml version="1.0" encoding="UTF-8"?>
<svg xmlns="http://www.w3.org/2000/svg" xmlns:xlink="http://www.w3.org/1999/xlink" width="1000pt" height="1000pt" viewBox="0 0 1000 1000" version="1.1">
<g id="surface1">
<path style="fill:none;stroke-width:19.7;stroke-linecap:butt;stroke-linejoin:miter;stroke:rgb(0%,0%,0%);stroke-opacity:1;stroke-miterlimit:4;" d="M 77.017188 18.284375 C 77.017188 18.284375 84.884375 24.407031 95.685938 25.4625 C 105.68125 26.438281 114.3625 23.747656 114.3625 23.747656 " transform="matrix(5,0,0,5,0,0)"/>
<path style="fill:none;stroke-width:19.7;stroke-linecap:butt;stroke-linejoin:miter;stroke:rgb(0%,0%,0%);stroke-opacity:1;stroke-miterlimit:4;" d="M 35.569531 53.950781 C 35.569531 53.950781 57.867188 55.7625 83.654688 53.522656 C 103.141406 51.83125 127.739063 41.797656 162.828125 46.3625 " transform="matrix(5,0,0,5,0,0)"/>
<path style="fill:none;stroke-width:19.7;stroke-linecap:butt;stroke-linejoin:miter;stroke:rgb(0%,0%,0%);stroke-opacity:1;stroke-miterlimit:4;" d="M 82.9375 71.389844 C 82.9375 71.389844 85.421875 79.16875 99.125 79.16875 L 112.735938 78.807813 L 112.946875 81.150781 C 112.946875 81.150781 91.917188 96.385156 99.196875 99.802344 C 104.908594 102.484375 157.060938 98.017188 153.639844 121.246875 C 150.007031 145.9125 120.035156 150.735938 93.847656 149.403906 C 75.253125 148.457813 67.027344 143.878906 67.027344 143.878906 L 69.385937 139.553125 C 69.385937 139.553125 85.923438 116.326563 104.254688 118.59375 C 114.647656 119.879688 118.483594 172.446875 79.832031 182.224219 " transform="matrix(5,0,0,5,0,0)"/>
</g>
</svg>
