<?xml version="1.0" encoding="UTF-8"?>
<svg xmlns="http://www.w3.org/2000/svg" xmlns:xlink="http://www.w3.org/1999/xlink" width="1000pt" height="1000pt" viewBox="0 0 1000 1000" version="1.1">
<g id="surface1">
<path style="fill:none;stroke-width:19.7;stroke-linecap:butt;stroke-linejoin:miter;stroke:rgb(0%,0%,0%);stroke-opacity:1;stroke-miterlimit:4;" d="M 70.21875 15.125781 C 70.21875 15.125781 62.024219 54.172656 29.567969 89.770313 " transform="matrix(5,0,0,5,0,0)"/>
<path style="fill:none;stroke-width:19.7;stroke-linecap:butt;stroke-linejoin:miter;stroke:rgb(0%,0%,0%);stroke-opacity:1;stroke-miterlimit:4;" d="M 22.76875 38.529688 C 22.76875 38.529688 37.858594 43.760938 50.317188 42.172656 C 62.776563 40.583594 78.294531 32.363281 85.653125 36.349219 C 91.028125 39.260156 100.055469 54.178125 89.253125 71.073437 C 83.073438 80.739063 78.832031 83.585156 78.832031 83.585156 L 75.272656 87.132812 C 75.272656 87.132812 63.386719 77.970313 49.544531 71.636719 " transform="matrix(5,0,0,5,0,0)"/>
<path style="fill:none;stroke-width:19.7;stroke-linecap:butt;stroke-linejoin:miter;stroke:rgb(0%,0%,0%);stroke-opacity:1;stroke-miterlimit:4;" d="M 121.328125 29.042969 C 121.328125 29.042969 117.6 39.960156 118.046094 44.442969 C 118.492969 48.925781 120.101562 52.560938 120.101562 52.560938 L 122.620313 51.6 C 122.620313 51.6 146.74375 28.942969 163.896875 37.139063 C 186.595313 47.985938 163.726562 74.263281 126.741406 78.067188 " transform="matrix(5,0,0,5,0,0)"/>
<path style="fill:none;stroke-width:19.7;stroke-linecap:butt;stroke-linejoin:miter;stroke:rgb(0%,0%,0%);stroke-opacity:1;stroke-miterlimit:4;" d="M 104.739844 84.910156 C 104.739844 84.910156 96.232813 90.420313 97.076563 97.498438 C 98.003125 105.274219 109.385938 108.114063 115.614844 107.49375 L 115.752344 108.311719 C 96.951563 115.0125 102.789844 128.010156 108.484375 131.335156 C 119.872656 137.984375 140.598438 122.994531 150.753906 138.714063 C 160.908594 154.432813 152.838281 180.294531 104.733594 181.336719 C 56.628906 182.378125 44.605469 151.875781 66.098438 148.796875 C 87.591406 145.717187 106.096875 164.403906 109.963281 178.627344 " transform="matrix(5,0,0,5,0,0)"/>
</g>
</svg>
