<?xml version="1.0" encoding="UTF-8"?>
<svg xmlns="http://www.w3.org/2000/svg" xmlns:xlink="http://www.w3.org/1999/xlink" width="1000pt" height="1000pt" viewBox="0 0 1000 1000" version="1.1">
<g id="surface1">
<path style="fill:none;stroke-width:19.7;stroke-linecap:butt;stroke-linejoin:miter;stroke:rgb(0%,0%,0%);stroke-opacity:1;stroke-miterlimit:4;" d="M 52.672656 31.788281 C 52.672656 31.788281 58.279688 44.121875 79.420313 39.414844 C 100.560156 34.707031 117.680469 31.910156 117.680469 31.910156 L 117.822656 33.1 C 117.822656 33.1 96.264844 38.632812 96.653906 78.857031 C 97.067188 121.589844 96.859375 173.789062 96.859375 173.789062 L 95.4625 174.441406 C 95.4625 174.441406 80.678906 155.021875 63.607031 146.503906 " transform="matrix(5,0,0,5,0,0)"/>
<path style="fill:none;stroke-width:19.7;stroke-linecap:butt;stroke-linejoin:miter;stroke:rgb(0%,0%,0%);stroke-opacity:1;stroke-miterlimit:4;" d="M 32.525 103.114063 C 32.525 103.114063 20.6 122.5 32.738281 130.191406 C 41.18125 135.540625 71.675781 109.30625 71.675781 109.30625 " transform="matrix(5,0,0,5,0,0)"/>
<path style="fill:none;stroke-width:19.7;stroke-linecap:butt;stroke-linejoin:miter;stroke:rgb(0%,0%,0%);stroke-opacity:1;stroke-miterlimit:4;" d="M 112.782031 87.457813 C 112.782031 87.457813 121.220313 82.624219 127.65 89.402344 C 131.497656 93.459375 134.682031 112.010938 134.682031 112.010938 L 136.353125 111.780469 C 136.353125 111.780469 154.378125 81.832813 169.075781 98.9875 C 183.772656 116.142188 173.8 138.8 140.710938 155.560938 " transform="matrix(5,0,0,5,0,0)"/>
</g>
</svg>
