<?xml version="1.0" encoding="UTF-8"?>
<svg xmlns="http://www.w3.org/2000/svg" xmlns:xlink="http://www.w3.org/1999/xlink" width="1000pt" height="1000pt" viewBox="0 0 1000 1000" version="1.1">
<g id="surface1">
<path style="fill:none;stroke-width:19.7;stroke-linecap:butt;stroke-linejoin:miter;stroke:rgb(0%,0%,0%);stroke-opacity:1;stroke-miterlimit:4;" d="M 81.785156 38.660156 C 81.785156 38.660156 87.5125 46.73125 100.147656 46.755469 C 112.783594 46.778906 137.853125 36.557813 150.330469 36.329687 C 162.597656 36.10625 166.486719 45.467969 162.500781 51.829688 C 158.514844 58.191406 134.263281 57.950781 134.263281 57.950781 " transform="matrix(5,0,0,5,0,0)"/>
<path style="fill:none;stroke-width:19.7;stroke-linecap:butt;stroke-linejoin:miter;stroke:rgb(0%,0%,0%);stroke-opacity:1;stroke-miterlimit:4;" d="M 122.085938 12.382812 C 122.085938 12.382812 125.469531 23.369531 124.460156 35.117969 C 123.450781 46.866406 117.011719 66.686719 121.396094 70.074219 C 125.780469 73.461719 139.924219 74.196094 134.119531 85.674219 C 128.314844 97.151563 115.853906 101.667969 104.301563 101.764844 C 93.053906 101.858594 84.151563 96.578125 85.207031 89.713281 C 86.263281 82.847656 100.357813 76.9125 131.934375 89.288281 C 163.510156 101.664062 174.632031 113.191406 174.632031 113.191406 " transform="matrix(5,0,0,5,0,0)"/>
<path style="fill:none;stroke-width:19.7;stroke-linecap:butt;stroke-linejoin:miter;stroke:rgb(0%,0%,0%);stroke-opacity:1;stroke-miterlimit:4;" d="M 81.772656 109.394531 C 81.772656 109.394531 69.545313 121.207813 71.563281 136.253125 C 73.960938 154.132812 92.679688 169.714844 92.679688 169.714844 " transform="matrix(5,0,0,5,0,0)"/>
<path style="fill:none;stroke-width:19.7;stroke-linecap:butt;stroke-linejoin:miter;stroke:rgb(0%,0%,0%);stroke-opacity:1;stroke-miterlimit:4;" d="M 121.15 106.196094 C 121.15 106.196094 98.840625 150.535938 82.857813 161.054688 C 66.875781 171.574219 48.239063 177.788281 37.494531 172.264063 C 23.675 165.158594 24.932813 142.655469 69.525781 129.833594 C 114.11875 117.011719 163.835156 110.015625 171.822656 143.564063 C 179.810156 177.111719 101.514063 184.347656 101.514063 184.347656 " transform="matrix(5,0,0,5,0,0)"/>
<path style="fill:none;stroke-width:19.7;stroke-linecap:butt;stroke-linejoin:miter;stroke:rgb(0%,0%,0%);stroke-opacity:1;stroke-miterlimit:4;" d="M 52.450781 20.624219 C 52.450781 20.624219 43.852344 37.407031 40.053906 55.104688 C 35.664062 75.554688 37.599219 96.217188 37.599219 96.217188 C 37.599219 96.217188 41.630469 86.496094 51.008594 77.239063 C 57.089844 71.236719 67.391406 60.239844 67.391406 60.239844 " transform="matrix(5,0,0,5,0,0)"/>
</g>
</svg>
