<?xml version="1.0" encoding="UTF-8"?>
<svg xmlns="http://www.w3.org/2000/svg" xmlns:xlink="http://www.w3.org/1999/xlink" width="1000pt" height="1000pt" viewBox="0 0 1000 1000" version="1.1">
<g id="surface1">
<path style="fill:none;stroke-width:19.7;stroke-linecap:butt;stroke-linejoin:miter;stroke:rgb(0%,0%,0%);stroke-opacity:1;stroke-miterlimit:4;" d="M 71.725781 17.495313 C 71.725781 17.495313 69.175781 32.104688 62.228125 44.611719 C 56.382031 55.136719 34.824219 73.746094 38.213281 82.658594 C 41.603125 91.571875 56.725 97.0125 52.373438 128.465625 C 49.733594 147.544531 36.217969 169.855469 36.217969 169.855469 " transform="matrix(5,0,0,5,0,0)"/>
<path style="fill:none;stroke-width:19.7;stroke-linecap:butt;stroke-linejoin:miter;stroke:rgb(0%,0%,0%);stroke-opacity:1;stroke-miterlimit:4;" d="M 87.592188 66.974219 C 87.592188 66.974219 96.767188 84.882031 97.892188 100.771875 C 98.932813 115.478125 95.155469 141.875 95.155469 141.875 " transform="matrix(5,0,0,5,0,0)"/>
<path style="fill:none;stroke-width:19.7;stroke-linecap:butt;stroke-linejoin:miter;stroke:rgb(0%,0%,0%);stroke-opacity:1;stroke-miterlimit:4;" d="M 133.669531 43.051563 C 133.669531 43.051563 155.532031 51.174219 151.055469 77.633594 C 146.407031 105.109375 137.23125 128.973438 148.895313 151.124219 C 159.078906 170.464844 174.725 176.877344 174.725 176.877344 " transform="matrix(5,0,0,5,0,0)"/>
</g>
</svg>
