<?xml version="1.0" encoding="UTF-8"?>
<svg xmlns="http://www.w3.org/2000/svg" xmlns:xlink="http://www.w3.org/1999/xlink" width="1000pt" height="1000pt" viewBox="0 0 1000 1000" version="1.1">
<g id="surface1">
<path style="fill:none;stroke-width:19.7;stroke-linecap:butt;stroke-linejoin:miter;stroke:rgb(0%,0%,0%);stroke-opacity:1;stroke-miterlimit:4;" d="M 72.449219 14.994531 C 72.449219 14.994531 67.792187 23.908594 66.560938 33.125781 C 65.329688 42.34375 66.335156 59.574219 66.335156 59.574219 L 64.948437 61.224219 C 64.948437 61.224219 59.160938 55.174219 56.702344 52.595313 C 54.24375 50.016406 48.682813 41.767969 48.682813 41.767969 " transform="matrix(5,0,0,5,0,0)"/>
<path style="fill:none;stroke-width:19.7;stroke-linecap:butt;stroke-linejoin:miter;stroke:rgb(0%,0%,0%);stroke-opacity:1;stroke-miterlimit:4;" d="M 35.098438 26.628906 C 35.098438 26.628906 30.941406 33.470312 31.296875 39.864844 C 31.652344 46.259375 36.934375 54.717188 36.934375 54.717188 " transform="matrix(5,0,0,5,0,0)"/>
<path style="fill:none;stroke-width:19.7;stroke-linecap:butt;stroke-linejoin:miter;stroke:rgb(0%,0%,0%);stroke-opacity:1;stroke-miterlimit:4;" d="M 96.4625 27.295313 C 96.4625 27.295313 97.370313 44.630469 83.409375 56.335156 C 69.448437 68.039844 28.723438 96.766406 28.723438 96.766406 " transform="matrix(5,0,0,5,0,0)"/>
<path style="fill:none;stroke-width:19.7;stroke-linecap:butt;stroke-linejoin:miter;stroke:rgb(0%,0%,0%);stroke-opacity:1;stroke-miterlimit:4;" d="M 68.028906 67.74375 C 68.028906 67.74375 86.941406 58.045313 94.675781 67.834375 C 102.410156 77.623438 107.54375 87.2875 96.747656 100.31875 C 85.950781 113.349219 61.989063 115.678125 60.085938 106.066406 C 58.164062 96.357813 67.476562 87.522656 92.413281 69.033594 C 122.688281 46.588281 140.694531 35.667188 147.447656 39.527344 C 156.495313 44.7 143.40625 64.161719 143.40625 64.161719 L 144.298438 67.024219 C 144.298438 67.024219 172.855469 65.128906 169.017969 82.510156 C 165.960156 96.357813 135.124219 106.174219 135.124219 106.174219 " transform="matrix(5,0,0,5,0,0)"/>
<path style="fill:none;stroke-width:19.7;stroke-linecap:butt;stroke-linejoin:miter;stroke:rgb(0%,0%,0%);stroke-opacity:1;stroke-miterlimit:4;" d="M 56.982813 125.561719 C 56.982813 125.561719 37.817188 142.059375 68.774219 145.66875 C 97.639063 149.034375 140.007031 130.242969 140.007031 130.242969 " transform="matrix(5,0,0,5,0,0)"/>
<path style="fill:none;stroke-width:19.7;stroke-linecap:butt;stroke-linejoin:miter;stroke:rgb(0%,0%,0%);stroke-opacity:1;stroke-miterlimit:4;" d="M 109.939063 112.246094 C 109.939063 112.246094 88.371094 130.332813 76.865625 144.786719 C 64.495312 160.328125 50.561719 184.689063 50.561719 184.689063 " transform="matrix(5,0,0,5,0,0)"/>
<path style="fill:none;stroke-width:19.7;stroke-linecap:butt;stroke-linejoin:miter;stroke:rgb(0%,0%,0%);stroke-opacity:1;stroke-miterlimit:4;" d="M 110.316406 156.054688 C 110.316406 156.054688 122.853125 150.857812 132.013281 160.732031 C 141.173438 170.605469 148.608594 183.525781 148.608594 183.525781 " transform="matrix(5,0,0,5,0,0)"/>
</g>
</svg>
