<?xml version="1.0" encoding="UTF-8"?>
<svg xmlns="http://www.w3.org/2000/svg" xmlns:xlink="http://www.w3.org/1999/xlink" width="1000pt" height="1000pt" viewBox="0 0 1000 1000" version="1.1">
<g id="surface1">
<path style="fill:none;stroke-width:19.7;stroke-linecap:butt;stroke-linejoin:miter;stroke:rgb(0%,0%,0%);stroke-opacity:1;stroke-miterlimit:4;" d="M 22.185938 27.94375 C 22.185938 27.94375 44.690625 33.007031 55.699219 30.26875 C 66.707813 27.530469 72.057031 24.752344 72.057031 24.752344 L 73.347656 25.4 C 73.347656 25.4 55.346094 52.85625 57.442188 59.414844 C 59.538281 65.973438 67.024219 73.135156 67.173438 81.496094 C 67.302344 88.716406 66.717969 92.545313 66.717969 92.545313 L 65.578906 92.753906 C 65.578906 92.753906 59.440625 75.94375 47.166406 76.880469 C 38.35625 77.553125 29.884375 109.635156 34.753906 183.578125 " transform="matrix(5,0,0,5,0,0)"/>
<path style="fill:none;stroke-width:19.7;stroke-linecap:butt;stroke-linejoin:miter;stroke:rgb(0%,0%,0%);stroke-opacity:1;stroke-miterlimit:4;" d="M 104.003125 23.007812 C 104.003125 23.007812 125.075 36.424219 161.114844 22.825781 " transform="matrix(5,0,0,5,0,0)"/>
<path style="fill:none;stroke-width:19.7;stroke-linecap:butt;stroke-linejoin:miter;stroke:rgb(0%,0%,0%);stroke-opacity:1;stroke-miterlimit:4;" d="M 118.607031 57.854688 C 118.607031 57.854688 153.732031 43.627344 152.646094 60.678906 C 151.560156 77.729688 96.592969 97.270313 96.592969 97.270313 C 96.592969 97.270313 149.180469 73.378125 162.191406 84.115625 C 173.988281 93.850781 174.053906 113.769531 157.0625 129.666406 C 141.961719 143.79375 103.319531 148.254688 103.964844 131.49375 C 104.609375 114.732031 142.592187 108.095313 139.685156 129.623437 C 137.166406 148.274219 111.644531 150.282813 115.638281 166.5125 C 119.284375 181.328906 179.345313 171.829688 179.345313 171.829688 " transform="matrix(5,0,0,5,0,0)"/>
</g>
</svg>
