<?xml version="1.0" encoding="UTF-8"?>
<svg xmlns="http://www.w3.org/2000/svg" xmlns:xlink="http://www.w3.org/1999/xlink" width="1000pt" height="1000pt" viewBox="0 0 1000 1000" version="1.1">
<g id="surface1">
<path style="fill:none;stroke-width:19.7;stroke-linecap:butt;stroke-linejoin:miter;stroke:rgb(0%,0%,0%);stroke-opacity:1;stroke-miterlimit:4;" d="M 25.113281 22.877344 C 25.113281 22.877344 32.622656 35.110156 44.739844 36.964063 C 56.857813 38.817969 64.338281 37.297656 64.338281 37.297656 L 66.0625 39.123438 C 66.0625 39.123438 47.974219 61.873438 42.985156 98.29375 C 39.520313 123.589844 41.901563 156.842969 41.901563 156.842969 " transform="matrix(5,0,0,5,0,0)"/>
<path style="fill:none;stroke-width:19.7;stroke-linecap:butt;stroke-linejoin:miter;stroke:rgb(0%,0%,0%);stroke-opacity:1;stroke-miterlimit:4;" d="M 101.598438 24.7125 C 101.598438 24.7125 110.423438 34.836719 129.622656 40.28125 C 146.715625 45.128906 161.939063 46.048438 161.939063 46.048438 " transform="matrix(5,0,0,5,0,0)"/>
<path style="fill:none;stroke-width:19.7;stroke-linecap:butt;stroke-linejoin:miter;stroke:rgb(0%,0%,0%);stroke-opacity:1;stroke-miterlimit:4;" d="M 125.025 79.803906 C 125.025 79.803906 133.7 89.8875 129.455469 108.167969 C 126.008594 123.014063 111.474219 132.102344 92.503125 131.871875 C 69.264844 131.589844 72 106.8 90.725781 92.624219 C 117.0875 72.66875 143.986719 79.178125 156.459375 86.202344 C 173.594531 95.851562 180.451563 117.490625 170.814063 139.648438 C 159.957813 164.607813 124.861719 181.639063 124.861719 181.639063 " transform="matrix(5,0,0,5,0,0)"/>
</g>
</svg>
