<?xml version="1.0" encoding="UTF-8"?>
<svg xmlns="http://www.w3.org/2000/svg" xmlns:xlink="http://www.w3.org/1999/xlink" width="1000pt" height="1000pt" viewBox="0 0 1000 1000" version="1.1">
<g id="surface1">
<path style="fill:none;stroke-width:19.7;stroke-linecap:butt;stroke-linejoin:miter;stroke:rgb(0%,0%,0%);stroke-opacity:1;stroke-miterlimit:4;" d="M 53.634375 22.688281 C 53.634375 22.688281 74.089062 29.627344 68.533594 46.050781 C 62.978125 62.473438 47.278125 82.625 47.278125 82.625 L 48.341406 83.177344 C 48.341406 83.177344 80.746875 40.342969 122.164844 43.504688 C 148.026563 45.479688 153.792969 65.989063 150.278906 78.046875 C 144.996094 96.178125 123.899219 108.973438 100.328125 111.563281 C 76.75625 114.153906 68.233594 112.845313 65.196094 103.7375 C 61.953906 94.017969 82.803906 81.409375 94.216406 97.754688 C 102.549219 109.691406 88.242969 119.175 95.619531 128.421875 C 102.996875 137.669531 115.178906 137.621094 115.178906 137.621094 L 115.11875 138.619531 C 115.11875 138.619531 74.326563 153.780469 90.479688 170.141406 C 99.829688 179.610938 143.128125 173.828906 143.128125 173.828906 " transform="matrix(5,0,0,5,0,0)"/>
</g>
</svg>
