<?xml version="1.0" encoding="UTF-8"?>
<svg xmlns="http://www.w3.org/2000/svg" xmlns:xlink="http://www.w3.org/1999/xlink" width="1000pt" height="1000pt" viewBox="0 0 1000 1000" version="1.1">
<g id="surface1">
<path style="fill:none;stroke-width:19.7;stroke-linecap:butt;stroke-linejoin:miter;stroke:rgb(0%,0%,0%);stroke-opacity:1;stroke-miterlimit:4;" d="M 97.295313 13.4375 C 97.295313 13.4375 101.938281 38.835938 101.65 55.828906 C 101.139063 85.85625 95.896094 94.5375 95.896094 94.5375 C 95.896094 94.5375 88.689844 90.867188 81.664844 88.571875 C 76.057812 86.739063 67.041406 83.341406 67.041406 83.341406 C 67.041406 83.341406 75.588281 62.035156 99.836719 52.989844 C 126.2875 43.122656 135.329688 55.573438 127.390625 67.06875 C 120.021094 77.739844 92.890625 109.605469 82.872656 116.647656 C 72.854687 123.689844 30.933594 151.535156 30.933594 151.535156 C 30.933594 151.535156 66.842188 123.996094 101.283594 114.867188 C 135.867969 105.700781 168.492969 110.414062 166.849219 125.182813 C 164.201563 148.96875 90.038281 149.546875 89.53125 170.570312 C 89.225 183.270313 127.348438 180.540625 127.348438 180.540625 " transform="matrix(5,0,0,5,0,0)"/>
</g>
</svg>
