<?xml version="1.0" encoding="UTF-8"?>
<svg xmlns="http://www.w3.org/2000/svg" xmlns:xlink="http://www.w3.org/1999/xlink" width="1000pt" height="1000pt" viewBox="0 0 1000 1000" version="1.1">
<g id="surface1">
<path style="fill:none;stroke-width:19.7;stroke-linecap:butt;stroke-linejoin:miter;stroke:rgb(0%,0%,0%);stroke-opacity:1;stroke-miterlimit:4;" d="M 57.452344 30.267188 C 57.452344 30.267188 56.014844 48.814063 73.327344 55.236719 " transform="matrix(5,0,0,5,0,0)"/>
<path style="fill:none;stroke-width:19.7;stroke-linecap:butt;stroke-linejoin:miter;stroke:rgb(0%,0%,0%);stroke-opacity:1;stroke-miterlimit:4;" d="M 137.908594 25.248438 C 137.908594 25.248438 133.789062 51.610156 97.266406 66.3125 " transform="matrix(5,0,0,5,0,0)"/>
<path style="fill:none;stroke-width:19.7;stroke-linecap:butt;stroke-linejoin:miter;stroke:rgb(0%,0%,0%);stroke-opacity:1;stroke-miterlimit:4;" d="M 49.363281 73.111719 C 49.363281 73.111719 73.354687 102.775 142.064844 65.840625 " transform="matrix(5,0,0,5,0,0)"/>
<path style="fill:none;stroke-width:19.7;stroke-linecap:butt;stroke-linejoin:miter;stroke:rgb(0%,0%,0%);stroke-opacity:1;stroke-miterlimit:4;" d="M 94.396094 10.184375 C 94.396094 10.184375 89.303125 74.360156 90.260938 101.203906 C 91.21875 128.047656 97.628906 161.085156 97.628906 161.085156 L 99.370313 161.680469 C 99.370313 161.680469 106.910156 154.071875 117.029688 144.839063 " transform="matrix(5,0,0,5,0,0)"/>
<path style="fill:none;stroke-width:19.7;stroke-linecap:butt;stroke-linejoin:miter;stroke:rgb(0%,0%,0%);stroke-opacity:1;stroke-miterlimit:4;" d="M 127.935938 90.569531 C 127.935938 90.569531 122.596094 129.741406 73.433594 156.377344 C 24.271094 183.013281 36.145313 136.244531 62.225781 120.719531 C 96.146094 100.526563 158.326563 93.725 164.784375 136.042188 C 171.242188 178.360156 105.46875 183.800781 105.46875 183.800781 " transform="matrix(5,0,0,5,0,0)"/>
</g>
</svg>
