<?xml version="1.0" encoding="UTF-8"?>
<svg xmlns="http://www.w3.org/2000/svg" xmlns:xlink="http://www.w3.org/1999/xlink" width="1000pt" height="1000pt" viewBox="0 0 1000 1000" version="1.1">
<g id="surface1">
<path style="fill:none;stroke-width:19.7;stroke-linecap:butt;stroke-linejoin:miter;stroke:rgb(0%,0%,0%);stroke-opacity:1;stroke-miterlimit:4;" d="M 37.211719 32.271875 C 37.211719 32.271875 59.745313 35.242969 81.092188 33.475 C 96.552344 32.195312 114.791406 27.291406 114.791406 27.291406 L 115.09375 29.010156 C 115.09375 29.010156 56.365625 109.035156 37.835938 171.476562 " transform="matrix(5,0,0,5,0,0)"/>
<path style="fill:none;stroke-width:19.7;stroke-linecap:butt;stroke-linejoin:miter;stroke:rgb(0%,0%,0%);stroke-opacity:1;stroke-miterlimit:4;" d="M 57.5625 122.573438 C 57.5625 122.573438 85.627344 81.560938 149.303125 80.990625 " transform="matrix(5,0,0,5,0,0)"/>
<path style="fill:none;stroke-width:19.7;stroke-linecap:butt;stroke-linejoin:miter;stroke:rgb(0%,0%,0%);stroke-opacity:1;stroke-miterlimit:4;" d="M 130.921875 68.467969 C 130.921875 68.467969 109.117969 117.564844 122.285938 127.953125 C 137.192969 139.714844 157.1 127.2 163.467969 140.0125 C 169.997656 153.151563 149.852344 168.330469 122.280469 174.188281 " transform="matrix(5,0,0,5,0,0)"/>
</g>
</svg>
