<?xml version="1.0" encoding="UTF-8"?>
<svg xmlns="http://www.w3.org/2000/svg" xmlns:xlink="http://www.w3.org/1999/xlink" width="1000pt" height="1000pt" viewBox="0 0 1000 1000" version="1.1">
<g id="surface1">
<path style="fill:none;stroke-width:19.7;stroke-linecap:butt;stroke-linejoin:miter;stroke:rgb(0%,0%,0%);stroke-opacity:1;stroke-miterlimit:4;" d="M 21.759375 56.297656 C 21.759375 56.297656 50.540625 72.342188 83.628125 54.275781 " transform="matrix(5,0,0,5,0,0)"/>
<path style="fill:none;stroke-width:19.7;stroke-linecap:butt;stroke-linejoin:miter;stroke:rgb(0%,0%,0%);stroke-opacity:1;stroke-miterlimit:4;" d="M 54.84375 25.240625 C 54.84375 25.240625 56.973438 48.925781 54.154688 62.190625 C 51.335938 75.454688 44.197656 92.871875 44.197656 92.871875 L 46.323438 94.003125 C 46.323438 94.003125 60.388281 87.5 62.090625 100.579688 C 63.503906 111.436719 31.969531 168.176563 31.969531 168.176563 L 32.915625 168.800781 C 32.915625 168.800781 66.426563 126.958594 89.127344 102.1625 C 99.31875 91.03125 145.720313 50.396875 145.720313 50.396875 L 143.507812 48.420313 C 143.507812 48.420313 119.808594 23.486719 108.260156 33.692188 C 96.7125 43.898438 111.736719 111.174219 125.028125 133.810937 C 141.232031 161.405469 164.378906 170.885156 164.378906 170.885156 L 167.504688 169.433594 C 167.504688 169.433594 164.298438 161.289844 162.582813 154.985156 C 160.866406 148.680469 157.410156 133.5125 157.410156 133.5125 " transform="matrix(5,0,0,5,0,0)"/>
<path style="fill:none;stroke-width:19.7;stroke-linecap:butt;stroke-linejoin:miter;stroke:rgb(0%,0%,0%);stroke-opacity:1;stroke-miterlimit:4;" d="M 152.424219 106.173438 C 152.424219 106.173438 106.832813 176.660938 89.35625 169.476562 C 72.725 162.639063 90.207813 126.114844 90.207813 126.114844 " transform="matrix(5,0,0,5,0,0)"/>
<path style="fill:none;stroke-width:19.7;stroke-linecap:butt;stroke-linejoin:miter;stroke:rgb(0%,0%,0%);stroke-opacity:1;stroke-miterlimit:4;" d="M 150.765625 30.575781 C 150.765625 30.575781 165.353125 37.139844 174.067969 46.747656 " transform="matrix(5,0,0,5,0,0)"/>
</g>
</svg>
