<?xml version="1.0" encoding="UTF-8"?>
<svg xmlns="http://www.w3.org/2000/svg" xmlns:xlink="http://www.w3.org/1999/xlink" width="1000pt" height="1000pt" viewBox="0 0 1000 1000" version="1.1">
<g id="surface1">
<path style="fill:none;stroke-width:19.7;stroke-linecap:butt;stroke-linejoin:miter;stroke:rgb(0%,0%,0%);stroke-opacity:1;stroke-miterlimit:4;" d="M 67.423438 29.341406 C 67.423438 29.341406 74.578906 42.978125 85.938281 44.311719 " transform="matrix(5,0,0,5,0,0)"/>
<path style="fill:none;stroke-width:19.7;stroke-linecap:butt;stroke-linejoin:miter;stroke:rgb(0%,0%,0%);stroke-opacity:1;stroke-miterlimit:4;" d="M 71.728125 57.489844 C 71.728125 57.489844 67.182031 63.995313 68.219531 69.547656 C 69.257031 75.100781 80.322656 75.759375 80.322656 75.759375 L 80.4375 77.15625 C 80.4375 77.15625 46.432031 100.878906 77.125 106.030469 C 107.817969 111.182031 147.346094 104.238281 147.346094 104.238281 L 147.346094 103.398438 C 147.346094 103.398438 134.453906 75.104687 130.794531 63.165625 " transform="matrix(5,0,0,5,0,0)"/>
<path style="fill:none;stroke-width:19.7;stroke-linecap:butt;stroke-linejoin:miter;stroke:rgb(0%,0%,0%);stroke-opacity:1;stroke-miterlimit:4;" d="M 114.865625 18.567187 C 114.865625 18.567187 109.830469 64.898438 109.439063 75.413281 C 109.048438 85.928125 107.838281 147.644531 107.838281 147.644531 L 104.864844 149.717187 C 104.864844 149.717187 91.828125 137.092187 75.372656 136.834375 C 44.936719 136.357812 30.874219 166.854688 63.355469 173.441406 C 97.941406 180.454688 157.328906 173.7 157.328906 173.7 " transform="matrix(5,0,0,5,0,0)"/>
</g>
</svg>
