<?xml version="1.0" encoding="UTF-8"?>
<svg xmlns="http://www.w3.org/2000/svg" xmlns:xlink="http://www.w3.org/1999/xlink" width="1000pt" height="1000pt" viewBox="0 0 1000 1000" version="1.1">
<g id="surface1">
<path style="fill:none;stroke-width:19.7;stroke-linecap:butt;stroke-linejoin:miter;stroke:rgb(0%,0%,0%);stroke-opacity:1;stroke-miterlimit:4;" d="M 45.684375 32.246094 C 45.684375 32.246094 65.05 35.9875 78.728906 34.763281 C 92.270313 33.551563 106.480469 29.566406 106.480469 29.566406 L 106.953125 31.203125 C 106.953125 31.203125 55.5375 129.809375 35.747656 123.055469 C 15.957813 116.300781 55.84375 75.714062 83.885938 65.180469 C 111.928906 54.647656 134.078906 57.864844 134.078906 57.864844 L 134.669531 60.182031 C 134.669531 60.182031 122.291406 73.853125 119.046094 83.226562 C 115.8 92.6 135.794531 92.535156 135.794531 92.535156 L 136.045312 94.633594 C 136.045312 94.633594 122.24375 106.039844 119.464063 108.114844 C 116.684375 110.189844 107.10625 119.120313 107.10625 119.120313 L 107.800781 120.261719 C 107.800781 120.261719 151.092969 103.760156 163.846875 119.079688 C 176.6 134.4 175.615625 168.449219 133.157031 173.93125 C 90.698438 179.413281 71.383594 147.33125 92.891406 143.215625 C 114.4 139.1 131.177344 161.110156 131.177344 161.110156 " transform="matrix(5,0,0,5,0,0)"/>
</g>
</svg>
