<?xml version="1.0" encoding="UTF-8"?>
<svg xmlns="http://www.w3.org/2000/svg" xmlns:xlink="http://www.w3.org/1999/xlink" width="1000pt" height="1000pt" viewBox="0 0 1000 1000" version="1.1">
<g id="surface1">
<path style="fill:none;stroke-width:12.7;stroke-linecap:butt;stroke-linejoin:miter;stroke:rgb(0%,0%,0%);stroke-opacity:1;stroke-miterlimit:4;" d="M 20.959375 45.699219 C 20.959375 45.699219 38.247656 60.091406 56.364844 59.664844 C 74.482031 59.2375 92.06875 53.377344 92.06875 53.377344 L 91.40625 51.965625 C 91.40625 51.965625 86.264844 43.901563 82.767188 38.599219 C 79.458594 33.582813 74.890625 28.022656 74.890625 28.022656 L 73.495312 26.375 C 73.495312 26.375 59.56875 45.489063 53.914062 65.148438 C 47.154688 88.64375 45.503125 111.105469 45.503125 111.105469 L 46.398438 111.251563 C 46.398438 111.251563 68.467969 83.329688 75.632812 97.175 C 82.797656 111.021094 48.621094 176.759375 48.621094 176.759375 L 49.263281 177.097656 C 49.263281 177.097656 100.324219 57.6 140.384375 58.707813 C 180.444531 59.816406 164.830469 113.263281 150.383594 112.094531 C 135.935937 110.925 131.828906 106.092969 124.952344 112.217188 C 118.075781 118.340625 117.189844 159.121875 133.994531 166.860938 C 150.8 174.6 177.178906 160.871875 177.178906 160.871875 " transform="matrix(5,0,0,5,0,0)"/>
</g>
</svg>
