<?xml version="1.0" encoding="UTF-8"?>
<svg xmlns="http://www.w3.org/2000/svg" xmlns:xlink="http://www.w3.org/1999/xlink" width="1000pt" height="1000pt" viewBox="0 0 1000 1000" version="1.1">
<g id="surface1">
<path style="fill:none;stroke-width:12.7;stroke-linecap:butt;stroke-linejoin:miter;stroke:rgb(0%,0%,0%);stroke-opacity:1;stroke-miterlimit:4;" d="M 47.999219 57.642969 C 47.999219 57.642969 57.392969 64.792969 72.411719 61.121094 C 84.19375 58.240625 88.095313 54.483594 88.594531 47.399219 C 89.09375 40.314844 78.796094 24.861719 66.789844 25.745313 C 55.748438 26.557813 46.019531 50.322656 42.235938 73.19375 C 39.323438 90.798438 40.483594 99.272656 40.483594 99.272656 L 44.744531 99.496875 C 44.744531 99.496875 72.095313 92.46875 78.514063 109.082813 C 84.933594 125.696094 89.650781 160.378906 67.854687 174.332813 C 46.059375 188.2875 37.473438 157.309375 37.473438 157.309375 " transform="matrix(5,0,0,5,0,0)"/>
<path style="fill:none;stroke-width:12.7;stroke-linecap:butt;stroke-linejoin:miter;stroke:rgb(0%,0%,0%);stroke-opacity:1;stroke-miterlimit:4;" d="M 24.475781 139.894531 C 24.475781 139.894531 20.867188 151.004688 20.604688 155.617969 C 20.235938 162.096094 21.035938 169.297656 21.035938 169.297656 L 24.167188 169.026563 C 24.167188 169.026563 45.427344 143.575781 56.33125 129.878906 C 63.817969 120.474219 88.755469 86.228125 88.755469 86.228125 " transform="matrix(5,0,0,5,0,0)"/>
<path style="fill:none;stroke-width:12.7;stroke-linecap:butt;stroke-linejoin:miter;stroke:rgb(0%,0%,0%);stroke-opacity:1;stroke-miterlimit:4;" d="M 139.198438 19.944531 C 139.198438 19.944531 139.35 32.691406 136.900781 40.999219 C 132.209375 56.913281 113.821094 81.266406 113.821094 81.266406 L 115.396875 82.535156 C 115.396875 82.535156 152.80625 49.784375 172.173438 64.688281 C 184.030469 73.8125 179.823438 98.810156 149.96875 108.282031 " transform="matrix(5,0,0,5,0,0)"/>
<path style="fill:none;stroke-width:12.7;stroke-linecap:butt;stroke-linejoin:miter;stroke:rgb(0%,0%,0%);stroke-opacity:1;stroke-miterlimit:4;" d="M 134.669531 96.00625 C 134.669531 96.00625 137.848438 111.65625 133.574219 127.992188 C 127.49375 151.236719 100.345313 174.792188 100.345313 174.792188 L 100.64375 175.199219 C 100.64375 175.199219 123.271875 148.042969 144.871094 152.510156 C 164.996875 156.673438 180.504688 177.686719 180.504688 177.686719 " transform="matrix(5,0,0,5,0,0)"/>
</g>
</svg>
