<?xml version="1.0" encoding="UTF-8"?>
<svg xmlns="http://www.w3.org/2000/svg" xmlns:xlink="http://www.w3.org/1999/xlink" width="1000pt" height="1000pt" viewBox="0 0 1000 1000" version="1.1">
<g id="surface1">
<path style="fill:none;stroke-width:12.7;stroke-linecap:butt;stroke-linejoin:miter;stroke:rgb(0%,0%,0%);stroke-opacity:1;stroke-miterlimit:4;" d="M 23.602344 39.2375 C 23.602344 39.2375 39.878125 45.646875 53.159375 43.264844 C 66.441406 40.883594 92.791406 29.36875 93.544531 49.957031 C 94.298438 70.545313 76.001563 87.670313 76.001563 87.670313 L 74.171094 85.782031 C 74.171094 85.782031 69.908594 82.035938 64.910156 80.022656 C 59.910938 78.010156 47.576563 71.713281 47.576563 71.713281 " transform="matrix(5,0,0,5,0,0)"/>
<path style="fill:none;stroke-width:12.7;stroke-linecap:butt;stroke-linejoin:miter;stroke:rgb(0%,0%,0%);stroke-opacity:1;stroke-miterlimit:4;" d="M 72.357813 16.232813 C 72.357813 16.232813 65.011719 42.14375 57.253125 53.836719 C 49.495313 65.530469 30.853125 90.2625 30.853125 90.2625 " transform="matrix(5,0,0,5,0,0)"/>
<path style="fill:none;stroke-width:12.7;stroke-linecap:butt;stroke-linejoin:miter;stroke:rgb(0%,0%,0%);stroke-opacity:1;stroke-miterlimit:4;" d="M 121.438281 30.007031 C 121.438281 30.007031 118.725 36.490625 117.6625 42.690625 C 116.308594 50.59375 119.204688 53.289062 119.204688 53.289062 L 120.607031 52.080469 C 120.607031 52.080469 154.041406 19.292969 169.428906 42.746875 C 185.303906 66.942969 86.049219 99.973438 86.049219 99.973438 L 86.047656 101.564844 C 86.047656 101.564844 93.865625 103.028125 103.544531 102.482813 C 115.801563 101.791406 125.873438 101.382031 125.873438 101.382031 " transform="matrix(5,0,0,5,0,0)"/>
<path style="fill:none;stroke-width:12.7;stroke-linecap:butt;stroke-linejoin:miter;stroke:rgb(0%,0%,0%);stroke-opacity:1;stroke-miterlimit:4;" d="M 67.232031 122.402344 C 67.232031 122.402344 68.278906 129.310937 77.091406 131.071094 C 87.7375 133.196875 127.022656 121.953125 127.022656 121.953125 L 127.775 123.832813 C 127.775 123.832813 93.078125 141.517188 82.061719 149.335938 C 71.044531 157.155469 43.186719 176.901563 43.186719 176.901563 L 43.933594 177.959375 C 43.933594 177.959375 74.254688 152.291406 105.634375 155.002344 C 138.210156 157.816406 160.739063 181.919531 160.739063 181.919531 " transform="matrix(5,0,0,5,0,0)"/>
</g>
</svg>
