<?xml version="1.0" encoding="UTF-8"?>
<svg xmlns="http://www.w3.org/2000/svg" xmlns:xlink="http://www.w3.org/1999/xlink" width="1000pt" height="1000pt" viewBox="0 0 1000 1000" version="1.1">
<g id="surface1">
<path style="fill:none;stroke-width:12.7;stroke-linecap:butt;stroke-linejoin:miter;stroke:rgb(0%,0%,0%);stroke-opacity:1;stroke-miterlimit:4;" d="M 73.476562 12.692969 C 73.476562 12.692969 71.546875 18.439063 70.130469 29.767188 C 68.714062 41.096094 67.76875 48.657031 67.76875 48.657031 L 65.015625 50.285938 C 65.015625 50.285938 63.7875 48.219531 61.261719 45.175 C 59.557031 43.120313 53.104688 38.961719 53.104688 38.961719 " transform="matrix(5,0,0,5,0,0)"/>
<path style="fill:none;stroke-width:12.7;stroke-linecap:butt;stroke-linejoin:miter;stroke:rgb(0%,0%,0%);stroke-opacity:1;stroke-miterlimit:4;" d="M 34.567188 19.276563 C 34.567188 19.276563 29.058594 29.0625 34.717969 34.121875 C 38.535156 37.534375 52.334375 26.221094 52.334375 26.221094 " transform="matrix(5,0,0,5,0,0)"/>
<path style="fill:none;stroke-width:12.7;stroke-linecap:butt;stroke-linejoin:miter;stroke:rgb(0%,0%,0%);stroke-opacity:1;stroke-miterlimit:4;" d="M 90.767188 16.088281 C 90.767188 16.088281 94.775 18.315625 96.040625 23.732813 C 97.771094 31.139063 80.651563 42.35 73.004688 48.071875 C 65 54.060938 47.760156 61.564063 48.476562 69.7625 C 49.711719 83.907813 77.8 76.7 79.460938 88.739844 C 81.171094 101.129688 64.485938 111.678906 52.566406 106.528906 C 43.130469 102.453125 43.803906 92.591406 55.789844 81.217188 C 70.617188 67.147656 128.9 25.617188 144.945312 27.790625 C 153.286719 28.920313 150.457031 39.73125 148.149219 44.577344 C 148.503125 46.701563 148.803125 48.720313 148.803125 48.720313 C 148.803125 48.720313 167.435156 47.91875 161.7125 58.573438 C 154.33125 72.314844 92.06875 102.275 92.06875 102.275 " transform="matrix(5,0,0,5,0,0)"/>
<path style="fill:none;stroke-width:12.7;stroke-linecap:butt;stroke-linejoin:miter;stroke:rgb(0%,0%,0%);stroke-opacity:1;stroke-miterlimit:4;" d="M 65.507031 110.0625 C 65.507031 110.0625 64.032031 125.074219 66.480469 136.602344 C 68.929688 148.130469 74.413281 156.017188 74.413281 156.017188 L 76.792969 155.921094 C 76.792969 155.921094 76.935938 153.222656 78.703906 148.239063 C 80.471094 143.254688 85.189063 135.842187 85.189063 135.842187 " transform="matrix(5,0,0,5,0,0)"/>
<path style="fill:none;stroke-width:12.7;stroke-linecap:butt;stroke-linejoin:miter;stroke:rgb(0%,0%,0%);stroke-opacity:1;stroke-miterlimit:4;" d="M 35.998438 116.645313 C 35.998438 116.645313 20.299219 126.33125 29.529688 133.860156 C 37.469531 140.3375 82.589063 123.979688 104.251563 119.977344 C 137.251563 113.880469 178.946094 114.323438 178.946094 114.323438 " transform="matrix(5,0,0,5,0,0)"/>
<path style="fill:none;stroke-width:12.7;stroke-linecap:butt;stroke-linejoin:miter;stroke:rgb(0%,0%,0%);stroke-opacity:1;stroke-miterlimit:4;" d="M 110.797656 76.175781 C 110.797656 76.175781 128.9375 91.084375 130.447656 112.620313 C 131.957813 134.155469 129.064063 141.799219 124.021094 155.284375 C 118.978125 168.769531 106.638281 182.379688 106.638281 182.379688 " transform="matrix(5,0,0,5,0,0)"/>
<path style="fill:none;stroke-width:12.7;stroke-linecap:butt;stroke-linejoin:miter;stroke:rgb(0%,0%,0%);stroke-opacity:1;stroke-miterlimit:4;" d="M 148.002344 129.957031 C 148.002344 129.957031 153.794531 131.8375 157.819531 135.74375 C 161.588281 139.401563 165.463281 146.182031 165.463281 146.182031 " transform="matrix(5,0,0,5,0,0)"/>
</g>
</svg>
