<?xml version="1.0" encoding="UTF-8"?>
<svg xmlns="http://www.w3.org/2000/svg" xmlns:xlink="http://www.w3.org/1999/xlink" width="1000pt" height="1000pt" viewBox="0 0 1000 1000" version="1.1">
<g id="surface1">
<path style="fill:none;stroke-width:12.7;stroke-linecap:butt;stroke-linejoin:miter;stroke:rgb(0%,0%,0%);stroke-opacity:1;stroke-miterlimit:4;" d="M 48.932813 26.353125 C 48.932813 26.353125 52.861719 38.873438 61.214063 44.746875 C 69.566406 50.621094 81.132031 52.974219 81.132031 52.974219 " transform="matrix(5,0,0,5,0,0)"/>
<path style="fill:none;stroke-width:12.7;stroke-linecap:butt;stroke-linejoin:miter;stroke:rgb(0%,0%,0%);stroke-opacity:1;stroke-miterlimit:4;" d="M 28.689844 87.009375 C 28.689844 87.009375 22.770313 97.1875 32.448438 101.854688 C 42.073438 106.496094 68.13125 98.828125 72.201563 93.025 C 74.440625 89.833594 64.082813 76.207813 59.35 116.557031 C 54.814063 155.228125 60.963281 164.20625 60.963281 164.20625 L 62.403125 163.704688 C 62.403125 163.704688 68.513281 148.65 75.416406 134.447656 C 80.014844 124.985938 86.721875 114.971094 86.721875 114.971094 " transform="matrix(5,0,0,5,0,0)"/>
<path style="fill:none;stroke-width:12.7;stroke-linecap:butt;stroke-linejoin:miter;stroke:rgb(0%,0%,0%);stroke-opacity:1;stroke-miterlimit:4;" d="M 118.165625 45.833594 C 118.165625 45.833594 135.049219 27.222656 140.869531 38.259375 C 146.690625 49.296094 130.841406 77.021875 130.841406 77.021875 L 132.775781 78.582813 C 132.775781 78.582813 154.588281 65.202344 165.33125 82.446875 C 175.06875 98.077344 172.896094 120.609375 152.670312 136.346094 C 131.739063 152.63125 124.255469 159.475781 133.549219 166.060938 C 144.829688 174.053125 170.578125 168.013281 170.578125 168.013281 " transform="matrix(5,0,0,5,0,0)"/>
</g>
</svg>
