<?xml version="1.0" encoding="UTF-8"?>
<svg xmlns="http://www.w3.org/2000/svg" xmlns:xlink="http://www.w3.org/1999/xlink" width="1000pt" height="1000pt" viewBox="0 0 1000 1000" version="1.1">
<g id="surface1">
<path style="fill:none;stroke-width:12.7;stroke-linecap:butt;stroke-linejoin:miter;stroke:rgb(0%,0%,0%);stroke-opacity:1;stroke-miterlimit:4;" d="M 34.082031 56.253906 C 34.082031 56.253906 49.989844 56.060156 60.371875 52.775781 C 77.664062 47.30625 101.735938 26.202344 106.995313 40.432031 C 114.847656 61.678906 37.117188 90.132812 45.935938 106.510156 C 50.914844 115.754688 90.853125 102.786719 118.811719 83.165625 " transform="matrix(5,0,0,5,0,0)"/>
<path style="fill:none;stroke-width:12.7;stroke-linecap:butt;stroke-linejoin:miter;stroke:rgb(0%,0%,0%);stroke-opacity:1;stroke-miterlimit:4;" d="M 70.347656 16.142188 C 70.347656 16.142188 74.600781 52.305469 79.751563 80.254688 C 87.242969 120.909375 103.796094 148.834375 103.796094 148.834375 L 106.025781 148.834375 C 106.025781 148.834375 111.867188 135.415625 119.388281 127.935156 " transform="matrix(5,0,0,5,0,0)"/>
<path style="fill:none;stroke-width:12.7;stroke-linecap:butt;stroke-linejoin:miter;stroke:rgb(0%,0%,0%);stroke-opacity:1;stroke-miterlimit:4;" d="M 143.983594 84.678906 C 143.983594 84.678906 163.007031 86.316406 158.978125 98.375 C 154.948438 110.432813 56.490625 129.007031 49.885938 159.196094 C 43.282031 189.385938 112.50625 175.891406 112.50625 175.891406 " transform="matrix(5,0,0,5,0,0)"/>
</g>
</svg>
