<?xml version="1.0" encoding="UTF-8"?>
<svg xmlns="http://www.w3.org/2000/svg" xmlns:xlink="http://www.w3.org/1999/xlink" width="1000pt" height="1000pt" viewBox="0 0 1000 1000" version="1.1">
<g id="surface1">
<path style="fill:none;stroke-width:12.7;stroke-linecap:butt;stroke-linejoin:miter;stroke:rgb(0%,0%,0%);stroke-opacity:1;stroke-miterlimit:4;" d="M 77.742188 18.477344 C 77.742188 18.477344 55.778125 35.64375 61.429688 52.757031 C 67.986719 72.614063 71.946875 108.895313 71.666406 127.270313 C 71.435156 142.410938 68.874219 162.053125 68.874219 162.053125 L 65.927344 161.480469 C 65.927344 161.480469 62.457031 151.033594 59.991406 145.463281 C 53.148438 130.004688 41.651563 115.761719 40.254688 97.782813 C 38.384375 73.714844 65.4 62.851562 70.525781 74.128125 C 80.135156 95.267188 36.490625 140.932031 36.490625 140.932031 L 37.028906 141.39375 C 37.028906 141.39375 109.777344 56.682031 147.055469 70.832813 C 181.055469 83.739063 161.876563 132.251563 140.653906 154.701563 C 129.583594 166.4125 105.723438 181.603906 105.723438 181.603906 " transform="matrix(5,0,0,5,0,0)"/>
</g>
</svg>
