<?xml version="1.0" encoding="UTF-8"?>
<svg xmlns="http://www.w3.org/2000/svg" xmlns:xlink="http://www.w3.org/1999/xlink" width="1000pt" height="1000pt" viewBox="0 0 1000 1000" version="1.1">
<g id="surface1">
<path style="fill:none;stroke-width:12.7;stroke-linecap:butt;stroke-linejoin:miter;stroke:rgb(0%,0%,0%);stroke-opacity:1;stroke-miterlimit:4;" d="M 54.008594 19.590625 C 54.008594 19.590625 63.164062 94.811719 37.935156 146.830469 " transform="matrix(5,0,0,5,0,0)"/>
<path style="fill:none;stroke-width:12.7;stroke-linecap:butt;stroke-linejoin:miter;stroke:rgb(0%,0%,0%);stroke-opacity:1;stroke-miterlimit:4;" d="M 22.372656 67.260937 C 22.372656 67.260937 31.19375 75.5125 48.922656 71.16875 C 66.284375 66.914844 75.158594 57.734375 86.653125 65.553125 C 97.842969 73.163281 94.2625 115.549219 84.277344 139.35 C 78.470313 153.190625 62.845313 176.417969 62.845313 176.417969 L 60.810938 175.324219 C 60.810938 175.324219 52.178906 169.038281 54.958594 144.141406 " transform="matrix(5,0,0,5,0,0)"/>
<path style="fill:none;stroke-width:12.7;stroke-linecap:butt;stroke-linejoin:miter;stroke:rgb(0%,0%,0%);stroke-opacity:1;stroke-miterlimit:4;" d="M 105.98125 64.032031 C 105.98125 64.032031 118.896875 68.546875 122.899219 83.061719 C 126.902344 97.576563 125.407031 104.979688 125.407031 104.979688 L 126.196094 105.0125 C 126.196094 105.0125 124.022656 64.796094 158.926563 63.1375 C 193.830469 61.478125 168.644531 135.691406 135.309375 150.653125 " transform="matrix(5,0,0,5,0,0)"/>
</g>
</svg>
