<?xml version="1.0" encoding="UTF-8"?>
<svg xmlns="http://www.w3.org/2000/svg" xmlns:xlink="http://www.w3.org/1999/xlink" width="1000pt" height="1000pt" viewBox="0 0 1000 1000" version="1.1">
<g id="surface1">
<path style="fill:none;stroke-width:12.7;stroke-linecap:butt;stroke-linejoin:miter;stroke:rgb(0%,0%,0%);stroke-opacity:1;stroke-miterlimit:4;" d="M 53.796094 17.410156 C 53.796094 17.410156 68.367969 36.448438 87.911719 41.089063 " transform="matrix(5,0,0,5,0,0)"/>
<path style="fill:none;stroke-width:12.7;stroke-linecap:butt;stroke-linejoin:miter;stroke:rgb(0%,0%,0%);stroke-opacity:1;stroke-miterlimit:4;" d="M 35.536719 56.534375 C 35.536719 56.534375 22.935938 66.096875 32.63125 72.635937 C 42.325781 79.175 64.675 72.985156 64.675 72.985156 L 65.28125 74.473438 C 65.28125 74.473438 64.927344 102.719531 65.25 117.969531 C 65.573437 133.220313 65.071875 162.335156 65.071875 162.335156 L 64.325781 163.90625 C 64.325781 163.90625 54.144531 160.690625 48.842188 158.707031 C 44.263281 156.994531 33.952344 153.239063 33.952344 153.239063 L 31.733594 152.494531 C 31.733594 152.494531 58.652344 114.996094 88.727344 89.770313 C 118.802344 64.545313 143.892188 44.377344 153.296094 52.438281 C 162.7 60.5 143.940625 74.377344 147.220313 85.289062 C 150.5 96.2 172.715625 92.075 171.565625 113.365625 C 170.514844 132.815625 165.282031 152.371094 102.30625 183.747656 " transform="matrix(5,0,0,5,0,0)"/>
</g>
</svg>
