<?xml version="1.0" encoding="UTF-8"?>
<svg xmlns="http://www.w3.org/2000/svg" xmlns:xlink="http://www.w3.org/1999/xlink" width="1000pt" height="1000pt" viewBox="0 0 1000 1000" version="1.1">
<g id="surface1">
<path style="fill:none;stroke-width:12.7;stroke-linecap:butt;stroke-linejoin:miter;stroke:rgb(0%,0%,0%);stroke-opacity:1;stroke-miterlimit:4;" d="M 70.551563 22.572656 C 70.551563 22.572656 55.139844 49.989844 55.801563 76.674219 C 56.463281 103.358594 61.576563 133.152344 60.547656 148.822656 C 59.51875 164.492188 56.211719 177.645313 56.211719 177.645313 L 53.5875 177.385938 C 53.5875 177.385938 15.633594 163.142188 38.490625 129.955469 C 61.347656 96.767969 137.89375 37.189062 145.727344 51.195312 C 153.560937 65.201563 102.616406 106.411719 102.616406 106.411719 L 104.403125 110.428906 C 104.403125 110.428906 113.03125 104.546875 133.248437 98.570312 C 151.653906 93.128125 168.176563 94.523438 168.176563 94.523438 L 168.220313 91.921094 C 161.929688 86.840625 157.744531 81.676563 155.145313 78.245313 " transform="matrix(5,0,0,5,0,0)"/>
<path style="fill:none;stroke-width:12.7;stroke-linecap:butt;stroke-linejoin:miter;stroke:rgb(0%,0%,0%);stroke-opacity:1;stroke-miterlimit:4;" d="M 124.622656 19.276563 C 124.622656 19.276563 127.530469 38.415625 127.600781 63.663281 C 127.672656 89.248438 124.342969 120.44375 124.342969 120.44375 L 125.635938 121.15 C 125.635938 121.15 149.077344 105.43125 161.355469 116.086719 C 180.564844 132.75625 171.328906 179.183594 139.214063 179.003906 C 99.405469 178.78125 114.942188 128.5125 152.835938 172.770313 " transform="matrix(5,0,0,5,0,0)"/>
</g>
</svg>
