<?xml version="1.0" encoding="UTF-8"?>
<svg xmlns="http://www.w3.org/2000/svg" xmlns:xlink="http://www.w3.org/1999/xlink" width="1000pt" height="1000pt" viewBox="0 0 1000 1000" version="1.1">
<g id="surface1">
<path style="fill:none;stroke-width:12.7;stroke-linecap:butt;stroke-linejoin:miter;stroke:rgb(0%,0%,0%);stroke-opacity:1;stroke-miterlimit:4;" d="M 47.657031 26.385938 C 47.657031 26.385938 55.896875 39.578125 69.608594 40.663281 C 91.047656 42.360156 133.350781 26.504688 133.350781 26.504688 L 135.352344 28.805469 C 135.352344 28.805469 126.775 38.425 110.961719 50.7 " transform="matrix(5,0,0,5,0,0)"/>
<path style="fill:none;stroke-width:12.7;stroke-linecap:butt;stroke-linejoin:miter;stroke:rgb(0%,0%,0%);stroke-opacity:1;stroke-miterlimit:4;" d="M 52.419531 63.94375 C 52.419531 63.94375 19.999219 79.291406 50.052344 89.446094 C 73.739844 97.45 114.853906 89.511719 154.3625 75.622656 " transform="matrix(5,0,0,5,0,0)"/>
<path style="fill:none;stroke-width:12.7;stroke-linecap:butt;stroke-linejoin:miter;stroke:rgb(0%,0%,0%);stroke-opacity:1;stroke-miterlimit:4;" d="M 94.139063 52.498438 C 94.139063 52.498438 89.357031 133.980469 28.890625 172.861719 " transform="matrix(5,0,0,5,0,0)"/>
<path style="fill:none;stroke-width:12.7;stroke-linecap:butt;stroke-linejoin:miter;stroke:rgb(0%,0%,0%);stroke-opacity:1;stroke-miterlimit:4;" d="M 63.921875 138.853906 C 63.921875 138.853906 99.3 82.4 168.382031 173.963281 " transform="matrix(5,0,0,5,0,0)"/>
</g>
</svg>
