<?xml version="1.0" encoding="UTF-8"?>
<svg xmlns="http://www.w3.org/2000/svg" xmlns:xlink="http://www.w3.org/1999/xlink" width="1000pt" height="1000pt" viewBox="0 0 1000 1000" version="1.1">
<g id="surface1">
<path style="fill:none;stroke-width:12.7;stroke-linecap:butt;stroke-linejoin:miter;stroke:rgb(0%,0%,0%);stroke-opacity:1;stroke-miterlimit:4;" d="M 31.989063 35.36875 C 31.989063 35.36875 47.626563 38.753125 68.882031 38.75 C 88.994531 38.747656 110.928906 32.705469 133.414062 31.421875 C 152.33125 30.341406 170.814063 33.758594 170.814063 33.758594 " transform="matrix(5,0,0,5,0,0)"/>
<path style="fill:none;stroke-width:12.7;stroke-linecap:butt;stroke-linejoin:miter;stroke:rgb(0%,0%,0%);stroke-opacity:1;stroke-miterlimit:4;" d="M 74.200781 64.229687 C 74.200781 64.229687 86.699219 70.353906 104.711719 68.253906 C 125.86875 65.786719 137.434375 59.683594 137.434375 59.683594 L 139.095313 61.928125 C 139.095313 61.928125 127.242969 76.61875 124.577344 80.259375 C 117.3 90.199219 113.484375 95.901563 113.484375 95.901563 L 113.484375 98.417188 C 113.484375 98.417188 141.7 98.4 150.271094 116.371875 C 157.517188 131.564844 151.852344 160.936719 116.233594 169.053906 C 69.177344 179.776563 38.735156 138.970313 61.578906 125.95 C 80.121094 115.38125 86.7375 168.403906 86.7375 168.403906 " transform="matrix(5,0,0,5,0,0)"/>
</g>
</svg>
