<?xml version="1.0" encoding="UTF-8"?>
<svg xmlns="http://www.w3.org/2000/svg" xmlns:xlink="http://www.w3.org/1999/xlink" width="1000pt" height="1000pt" viewBox="0 0 1000 1000" version="1.1">
<g id="surface1">
<path style="fill:none;stroke-width:12.7;stroke-linecap:butt;stroke-linejoin:miter;stroke:rgb(0%,0%,0%);stroke-opacity:1;stroke-miterlimit:4;" d="M 54.549219 19.870313 C 54.549219 19.870313 66.582813 34.177344 84.571875 34.986719 C 100.9 34.990625 118.584375 25.853125 118.584375 25.853125 L 118.764063 26.160156 C 118.764063 26.160156 93.116406 49.966406 78.470313 63.003125 C 63.825 76.039844 48.960156 94.903906 48.960156 94.903906 L 49.580469 95.342188 C 49.580469 95.342188 75.249219 74.401562 89.621094 83.315625 C 103.992188 92.229688 111.241406 116.828125 98.970313 145.414062 C 86.7 174 71.882031 174.860156 58.290625 174.580469 C 44.7 174.3 36.016406 150.940625 69.947656 129.525 C 103.879688 108.110156 141.303906 100.35625 153.152344 114.478125 C 165 128.6 156.154688 149.528125 131.06875 167.807813 " transform="matrix(5,0,0,5,0,0)"/>
</g>
</svg>
