<?xml version="1.0" encoding="UTF-8"?>
<svg xmlns="http://www.w3.org/2000/svg" xmlns:xlink="http://www.w3.org/1999/xlink" width="1000pt" height="1000pt" viewBox="0 0 1000 1000" version="1.1">
<g id="surface1">
<path style="fill:none;stroke-width:12.7;stroke-linecap:butt;stroke-linejoin:miter;stroke:rgb(0%,0%,0%);stroke-opacity:1;stroke-miterlimit:4;" d="M 52.122656 21.978906 C 52.122656 21.978906 57.71875 31.617969 64.451563 34.989063 C 71.184375 38.360156 77.544531 38.921875 77.544531 38.921875 " transform="matrix(5,0,0,5,0,0)"/>
<path style="fill:none;stroke-width:12.7;stroke-linecap:butt;stroke-linejoin:miter;stroke:rgb(0%,0%,0%);stroke-opacity:1;stroke-miterlimit:4;" d="M 102.960938 30.971094 C 102.960938 30.971094 97.2125 42.273438 100.824219 48.536719 C 104.435938 54.800781 112.716406 55.849219 112.716406 55.849219 " transform="matrix(5,0,0,5,0,0)"/>
<path style="fill:none;stroke-width:12.7;stroke-linecap:butt;stroke-linejoin:miter;stroke:rgb(0%,0%,0%);stroke-opacity:1;stroke-miterlimit:4;" d="M 25.825 71.258594 C 25.825 71.258594 41.45 74.2375 49.821875 72.475781 C 58.192969 70.714062 65.667187 67.708594 65.667187 67.708594 L 66.382812 69.051563 C 66.382812 69.051563 61.305469 100.796094 60.9625 118.844531 C 60.619531 136.892969 61.941406 172.372656 61.941406 172.372656 L 58.563281 172.949219 C 58.563281 172.949219 55.25625 166.603906 51.088281 161.022656 C 47.234375 155.860938 44.844531 153.374219 44.844531 153.374219 " transform="matrix(5,0,0,5,0,0)"/>
<path style="fill:none;stroke-width:12.7;stroke-linecap:butt;stroke-linejoin:miter;stroke:rgb(0%,0%,0%);stroke-opacity:1;stroke-miterlimit:4;" d="M 36.471094 96.09375 C 36.471094 96.09375 48.546875 107.4875 43.464063 123.5 C 38.38125 139.511719 30.544531 152.665625 30.544531 152.665625 L 31.599219 153.041406 C 31.599219 153.041406 64.564063 106.075 95.285938 87.182031 C 133.764062 63.517969 177.655469 68.030469 177.655469 68.030469 " transform="matrix(5,0,0,5,0,0)"/>
<path style="fill:none;stroke-width:12.7;stroke-linecap:butt;stroke-linejoin:miter;stroke:rgb(0%,0%,0%);stroke-opacity:1;stroke-miterlimit:4;" d="M 153.902344 23.377344 C 153.902344 23.377344 151.410156 44.74375 141.803906 63.967188 C 131.396094 84.795313 107.554688 112.607031 107.554688 112.607031 L 108.1625 113.103125 C 108.1625 113.103125 154.38125 77.692188 166.435156 97.995313 C 174.640625 111.817188 126.335156 124.590625 131.232031 133.460156 C 133.629688 137.803125 146.371094 136.082031 145.247656 143.899219 C 143.842969 153.671094 122.0875 157.032813 125.991406 167.298438 C 129.895313 177.564063 166.261719 174.539844 166.261719 174.539844 " transform="matrix(5,0,0,5,0,0)"/>
</g>
</svg>
