<?xml version="1.0" encoding="UTF-8"?>
<svg xmlns="http://www.w3.org/2000/svg" xmlns:xlink="http://www.w3.org/1999/xlink" width="1000pt" height="1000pt" viewBox="0 0 1000 1000" version="1.1">
<g id="surface1">
<path style="fill:none;stroke-width:12.7;stroke-linecap:butt;stroke-linejoin:miter;stroke:rgb(0%,0%,0%);stroke-opacity:1;stroke-miterlimit:4;" d="M 93.766406 14.544531 C 93.766406 14.544531 102.246875 38.729688 102.954688 51.825 C 103.663281 64.919531 100.696875 94.888281 100.696875 94.888281 L 98.517188 95.930469 C 98.517188 95.930469 70.8 88.6 71.292187 72.328906 C 71.852344 53.798438 112.425781 47.964063 112.425781 47.964063 L 113.269531 49.826563 C 113.269531 49.826563 94.367969 67.471875 95.529688 73.176563 C 96.690625 78.880469 118.03125 73.785938 118.03125 73.785938 " transform="matrix(5,0,0,5,0,0)"/>
<path style="fill:none;stroke-width:12.7;stroke-linecap:butt;stroke-linejoin:miter;stroke:rgb(0%,0%,0%);stroke-opacity:1;stroke-miterlimit:4;" d="M 49.280469 56.310938 C 49.280469 56.310938 35.514063 72.857813 35.348438 87.809375 C 34.874219 130.674219 85.908594 102.896875 107.485156 94.499219 C 123.022656 88.451563 156.444531 65.599219 163.792969 82.467969 C 170.304688 97.416406 95.992969 116.707813 90.779688 127.938281 C 86.954688 136.178906 113.914062 137.461719 113.914062 137.461719 " transform="matrix(5,0,0,5,0,0)"/>
<path style="fill:none;stroke-width:12.7;stroke-linecap:butt;stroke-linejoin:miter;stroke:rgb(0%,0%,0%);stroke-opacity:1;stroke-miterlimit:4;" d="M 87.59375 144.8 C 87.59375 144.8 90.136719 149.183594 96.961719 152.753125 C 101.302344 155.023438 111.828125 154.195312 111.828125 154.195312 L 111.992969 155.591406 C 111.992969 155.591406 77.390625 157.739844 79.600781 171.675 C 82.071875 187.253906 124.501563 178.344531 124.501563 178.344531 " transform="matrix(5,0,0,5,0,0)"/>
</g>
</svg>
