<?xml version="1.0" encoding="UTF-8"?>
<svg xmlns="http://www.w3.org/2000/svg" xmlns:xlink="http://www.w3.org/1999/xlink" width="1000pt" height="1000pt" viewBox="0 0 1000 1000" version="1.1">
<g id="surface1">
<path style="fill:none;stroke-width:12.7;stroke-linecap:butt;stroke-linejoin:miter;stroke:rgb(0%,0%,0%);stroke-opacity:1;stroke-miterlimit:4;" d="M 41.932031 24.245313 C 41.932031 24.245313 39.680469 43.354688 48.103125 51.158594 C 54.751563 57.31875 59.582813 58.975781 59.582813 58.975781 " transform="matrix(5,0,0,5,0,0)"/>
<path style="fill:none;stroke-width:12.7;stroke-linecap:butt;stroke-linejoin:miter;stroke:rgb(0%,0%,0%);stroke-opacity:1;stroke-miterlimit:4;" d="M 88.245313 17.489062 C 88.245313 17.489062 83.163281 38.05 94.985156 39.235156 C 106.807031 40.420313 113.114844 23.738281 135.425 23.895313 C 155.710156 24.0375 163.457031 35.569531 144.790625 47.860938 C 122.825781 62.325 97.392969 81.746875 84.902344 91.502344 C 63.95625 107.8625 44.619531 127.985938 44.619531 127.985938 " transform="matrix(5,0,0,5,0,0)"/>
<path style="fill:none;stroke-width:12.7;stroke-linecap:butt;stroke-linejoin:miter;stroke:rgb(0%,0%,0%);stroke-opacity:1;stroke-miterlimit:4;" d="M 71.454688 102.910938 C 71.454688 102.910938 131.584375 74.236719 156.680469 106.173438 C 179.202344 134.835156 148.639062 172.421875 108.035156 176.653125 C 63.067969 181.338281 55.704688 159.889844 81.460938 149.261719 C 103.859375 140.01875 119.639063 150.426563 119.639063 150.426563 " transform="matrix(5,0,0,5,0,0)"/>
</g>
</svg>
