<?xml version="1.0" encoding="UTF-8"?>
<svg xmlns="http://www.w3.org/2000/svg" xmlns:xlink="http://www.w3.org/1999/xlink" width="1000pt" height="1000pt" viewBox="0 0 1000 1000" version="1.1">
<g id="surface1">
<path style="fill:none;stroke-width:12.7;stroke-linecap:butt;stroke-linejoin:miter;stroke:rgb(0%,0%,0%);stroke-opacity:1;stroke-miterlimit:4;" d="M 37.628125 21.269531 C 37.628125 21.269531 28.507031 123.747656 31.844531 144.60625 C 34.296094 159.934375 41.510156 167.157031 41.510156 167.157031 L 43.46875 166.983594 C 43.46875 166.983594 43.580469 157.172656 44.9875 149.732812 C 47.028125 138.946875 51.813281 126.175781 51.813281 126.175781 " transform="matrix(5,0,0,5,0,0)"/>
<path style="fill:none;stroke-width:12.7;stroke-linecap:butt;stroke-linejoin:miter;stroke:rgb(0%,0%,0%);stroke-opacity:1;stroke-miterlimit:4;" d="M 63.90625 62.645313 C 63.90625 62.645313 85.525781 72.385156 96.260156 70.2625 C 106.994531 68.139844 115.542969 62.376563 115.542969 62.376563 " transform="matrix(5,0,0,5,0,0)"/>
<path style="fill:none;stroke-width:12.7;stroke-linecap:butt;stroke-linejoin:miter;stroke:rgb(0%,0%,0%);stroke-opacity:1;stroke-miterlimit:4;" d="M 90.205469 26.189844 C 90.205469 26.189844 97.642188 74.367188 98.278906 98.660156 C 98.903125 122.479688 95.001563 172.090625 95.001563 172.090625 L 92.469531 172.815625 C 92.469531 172.815625 88.691406 163.686719 85.124219 156.751563 C 82.421875 151.499219 75.9875 143.236719 75.9875 143.236719 " transform="matrix(5,0,0,5,0,0)"/>
<path style="fill:none;stroke-width:12.7;stroke-linecap:butt;stroke-linejoin:miter;stroke:rgb(0%,0%,0%);stroke-opacity:1;stroke-miterlimit:4;" d="M 117.965625 82.229688 C 117.965625 82.229688 103.09375 103.947656 98.016406 113.978125 C 89.4 131 61.914062 138.982812 61.914062 138.982812 " transform="matrix(5,0,0,5,0,0)"/>
<path style="fill:none;stroke-width:12.7;stroke-linecap:butt;stroke-linejoin:miter;stroke:rgb(0%,0%,0%);stroke-opacity:1;stroke-miterlimit:4;" d="M 132.8375 55.723438 C 132.8375 55.723438 146.679688 43.574219 152.1 39.820312 C 159.999219 34.350781 170.390625 32.016406 165.960156 47.874219 C 161.536719 63.708594 149.489063 84.217969 149.489063 84.217969 C 149.489063 84.217969 157.25625 106.911719 152.736719 138.607812 C 150.292188 155.753906 146.759375 169.135938 146.759375 169.135938 L 143.679688 171.760938 C 143.679688 171.760938 134.995313 163.150781 129.115625 153.990625 C 123.046094 144.534375 114.546094 135.010156 124.107813 125.253906 C 142.442969 106.546094 180.400781 116.429688 180.400781 116.429688 " transform="matrix(5,0,0,5,0,0)"/>
</g>
</svg>
