<?xml version="1.0" encoding="UTF-8"?>
<svg xmlns="http://www.w3.org/2000/svg" xmlns:xlink="http://www.w3.org/1999/xlink" width="1000pt" height="1000pt" viewBox="0 0 1000 1000" version="1.1">
<g id="surface1">
<path style="fill:none;stroke-width:12.7;stroke-linecap:butt;stroke-linejoin:miter;stroke:rgb(0%,0%,0%);stroke-opacity:1;stroke-miterlimit:4;" d="M 51.435156 24.291406 C 51.435156 24.291406 68.936719 30.025781 86.15625 27.514063 C 103.375781 25.001563 108.382812 22.572656 108.382812 22.572656 L 110.432031 22.864063 C 110.432031 22.864063 106.452344 40.258594 105.0375 52.251563 C 103.814063 62.614063 103.646875 67.111719 103.646875 67.111719 L 106.829688 64.782031 C 106.829688 64.782031 113.975781 43.914062 129.961719 36.919531 C 144.885938 30.389844 150.857812 42.930469 148.820312 49.844531 C 144.111719 65.821875 112.554688 69.926563 103.197656 72.344531 C 92.935938 74.996094 61.189844 79.85 57.007031 92.350781 C 52.824219 104.850781 66.007031 121.303906 67.291406 142.504688 C 68.514844 162.714063 65.845313 174.171094 55.016406 175.210156 C 42.704688 176.391406 33.578906 171.052344 35.227344 153.596094 C 36.120313 144.139844 42.891406 131.779687 55.542188 121.341406 C 73.574219 106.463281 99.007031 90.740625 110.158594 96.7625 C 124.3875 104.446094 103.589844 160.746094 116.589844 170.503125 C 130.240625 180.748438 154.923438 171.695312 157.929688 164.357813 C 164.389844 148.590625 141.809375 123.089844 139.825 116.986719 C 137.083594 108.557031 144.7125 98.357813 152.91875 97.857813 C 163.194531 97.23125 169.519531 108.521094 160.858594 121.203125 C 151.307813 135.188281 128.739063 144.840625 128.739063 144.840625 " transform="matrix(5,0,0,5,0,0)"/>
</g>
</svg>
