<?xml version="1.0" encoding="UTF-8"?>
<svg xmlns="http://www.w3.org/2000/svg" xmlns:xlink="http://www.w3.org/1999/xlink" width="1000pt" height="1000pt" viewBox="0 0 1000 1000" version="1.1">
<g id="surface1">
<path style="fill:none;stroke-width:12.7;stroke-linecap:butt;stroke-linejoin:miter;stroke:rgb(0%,0%,0%);stroke-opacity:1;stroke-miterlimit:4;" d="M 70.775781 18.669531 C 70.775781 18.669531 77.101562 27.905469 90.041406 30.064844 C 101.164844 31.920313 105.855469 31.896875 105.855469 31.896875 L 106.242188 33.633594 C 106.242188 33.633594 74.653125 59.4625 94.357813 62.347656 C 110.898438 64.769531 144.497656 61.283594 143.315625 100.50625 C 142.134375 139.728906 97.9625 140.045312 81.430469 135.977344 C 72.067188 133.673438 59.113281 125.711719 59.113281 125.711719 C 59.113281 125.711719 85.921875 82.628125 97.760938 92.914062 C 109.6 103.2 116.421875 163.0625 71.236719 184.817969 " transform="matrix(5,0,0,5,0,0)"/>
</g>
</svg>
