<?xml version="1.0" encoding="UTF-8"?>
<svg xmlns="http://www.w3.org/2000/svg" xmlns:xlink="http://www.w3.org/1999/xlink" width="1000pt" height="1000pt" viewBox="0 0 1000 1000" version="1.1">
<g id="surface1">
<path style="fill:none;stroke-width:12.7;stroke-linecap:butt;stroke-linejoin:miter;stroke:rgb(0%,0%,0%);stroke-opacity:1;stroke-miterlimit:4;" d="M 42.232031 20.282813 C 42.232031 20.282813 29.949219 86.730469 32.290625 118.524219 C 34.084375 142.882812 40.342969 165.08125 40.342969 165.08125 L 42.617188 164.338281 C 42.617188 164.338281 46.1375 142.10625 49.460938 132.245313 C 52.783594 122.384375 58.684375 106.249219 58.684375 106.249219 " transform="matrix(5,0,0,5,0,0)"/>
<path style="fill:none;stroke-width:12.7;stroke-linecap:butt;stroke-linejoin:miter;stroke:rgb(0%,0%,0%);stroke-opacity:1;stroke-miterlimit:4;" d="M 100.725 23.853125 C 100.725 23.853125 91.821094 41.044531 102.805469 47.9875 " transform="matrix(5,0,0,5,0,0)"/>
<path style="fill:none;stroke-width:12.7;stroke-linecap:butt;stroke-linejoin:miter;stroke:rgb(0%,0%,0%);stroke-opacity:1;stroke-miterlimit:4;" d="M 74.217969 78.842188 C 74.217969 78.842188 111.642188 45.213281 175.463281 50.444531 " transform="matrix(5,0,0,5,0,0)"/>
<path style="fill:none;stroke-width:12.7;stroke-linecap:butt;stroke-linejoin:miter;stroke:rgb(0%,0%,0%);stroke-opacity:1;stroke-miterlimit:4;" d="M 144.330469 19.260156 C 144.330469 19.260156 141.696875 45.323438 128.435156 65.548438 C 118.026563 81.424219 105.771875 93.889063 105.771875 93.889063 L 107.171875 96.470313 L 135.165625 85.178125 L 135.697656 88.003906 C 135.697656 88.003906 108.585938 114.921875 101.345313 121.836719 C 90.796094 131.910156 80.261719 154.373438 80.261719 154.373438 " transform="matrix(5,0,0,5,0,0)"/>
<path style="fill:none;stroke-width:12.7;stroke-linecap:butt;stroke-linejoin:miter;stroke:rgb(0%,0%,0%);stroke-opacity:1;stroke-miterlimit:4;" d="M 96.33125 127.049219 C 96.33125 127.049219 109.985156 116.584375 116.089844 128.495313 C 122.195312 140.407031 119.298438 159.907031 119.298438 159.907031 L 122.473438 160.682031 C 122.473438 160.682031 151.122656 125.399219 167.564844 151.372656 C 177.63125 167.275 126.373438 182.225 126.373438 182.225 " transform="matrix(5,0,0,5,0,0)"/>
</g>
</svg>
