<?xml version="1.0" encoding="UTF-8"?>
<svg xmlns="http://www.w3.org/2000/svg" xmlns:xlink="http://www.w3.org/1999/xlink" width="1000pt" height="1000pt" viewBox="0 0 1000 1000" version="1.1">
<g id="surface1">
<path style="fill:none;stroke-width:12.7;stroke-linecap:butt;stroke-linejoin:miter;stroke:rgb(0%,0%,0%);stroke-opacity:1;stroke-miterlimit:4;" d="M 101.030469 20.333594 C 101.030469 20.333594 101.705469 32.569531 95.379688 39.807031 C 85.844531 50.716406 67.65625 62.971875 67.65625 62.971875 L 68.121094 64.80625 L 144.183594 50.742969 " transform="matrix(5,0,0,5,0,0)"/>
<path style="fill:none;stroke-width:12.7;stroke-linecap:butt;stroke-linejoin:miter;stroke:rgb(0%,0%,0%);stroke-opacity:1;stroke-miterlimit:4;" d="M 127.378125 54.158594 C 127.378125 54.158594 116.51875 61.739844 110.923438 68.103906 C 101.372656 78.967188 108.139063 176.639844 108.139063 176.639844 L 105.902344 177.06875 C 105.902344 177.06875 50.99375 141.25 50.808594 126.459375 C 50.582031 108.355469 108.811719 82.707813 115.227344 87.553906 C 121.642969 92.4 87.252344 114.505469 91.535938 126.628906 C 95.819531 138.752344 152.714844 130.035156 152.714844 130.035156 " transform="matrix(5,0,0,5,0,0)"/>
</g>
</svg>
