<?xml version="1.0" encoding="UTF-8"?>
<svg xmlns="http://www.w3.org/2000/svg" xmlns:xlink="http://www.w3.org/1999/xlink" width="1000pt" height="1000pt" viewBox="0 0 1000 1000" version="1.1">
<g id="surface1">
<path style="fill:none;stroke-width:12.7;stroke-linecap:butt;stroke-linejoin:miter;stroke:rgb(0%,0%,0%);stroke-opacity:1;stroke-miterlimit:4;" d="M 79.93125 18.95 C 79.93125 18.95 90.761719 26.450781 101.108594 29.542188 C 111.45625 32.634375 126.00625 32.353125 126.00625 32.353125 " transform="matrix(5,0,0,5,0,0)"/>
<path style="fill:none;stroke-width:12.7;stroke-linecap:butt;stroke-linejoin:miter;stroke:rgb(0%,0%,0%);stroke-opacity:1;stroke-miterlimit:4;" d="M 49.848438 65.01875 C 49.848438 65.01875 36.616406 89.860938 45.557813 94.380469 C 54.5 98.9 80.053906 79.59375 99.724219 69.135156 C 118.475 59.166406 153.066406 44.692188 158.367969 61.182031 C 163.66875 77.671875 120.939063 90.591406 120.939063 90.591406 " transform="matrix(5,0,0,5,0,0)"/>
<path style="fill:none;stroke-width:12.7;stroke-linecap:butt;stroke-linejoin:miter;stroke:rgb(0%,0%,0%);stroke-opacity:1;stroke-miterlimit:4;" d="M 95.684375 102.967188 C 95.684375 102.967188 109.567969 105.995313 110.749219 116.310156 C 111.930469 126.625 110.8 180.5875 110.8 180.5875 C 110.8 180.5875 74.248438 167.071094 73.604687 157.424219 C 72.961719 147.778125 93.95 148.296094 104.326563 148.692188 C 114.702344 149.089063 144.823438 156.064063 144.823438 156.064063 " transform="matrix(5,0,0,5,0,0)"/>
</g>
</svg>
