<?xml version="1.0" encoding="UTF-8"?>
<svg xmlns="http://www.w3.org/2000/svg" xmlns:xlink="http://www.w3.org/1999/xlink" width="1000pt" height="1000pt" viewBox="0 0 1000 1000" version="1.1">
<g id="surface1">
<path style="fill:none;stroke-width:12.7;stroke-linecap:butt;stroke-linejoin:miter;stroke:rgb(0%,0%,0%);stroke-opacity:1;stroke-miterlimit:4;" d="M 69.999219 20.017969 C 69.999219 20.017969 99.14375 29.723438 125.626563 30.597656 " transform="matrix(5,0,0,5,0,0)"/>
<path style="fill:none;stroke-width:12.7;stroke-linecap:butt;stroke-linejoin:miter;stroke:rgb(0%,0%,0%);stroke-opacity:1;stroke-miterlimit:4;" d="M 64.277344 49.644531 C 64.277344 49.644531 34.117969 94.211719 138.667969 58.814063 " transform="matrix(5,0,0,5,0,0)"/>
<path style="fill:none;stroke-width:12.7;stroke-linecap:butt;stroke-linejoin:miter;stroke:rgb(0%,0%,0%);stroke-opacity:1;stroke-miterlimit:4;" d="M 74.646875 98.838281 C 74.646875 98.838281 87.639844 101.215625 94.921875 99.978125 C 101.846875 98.801563 109.326563 96.510156 109.326563 96.510156 L 110.198438 98.175781 C 110.198438 98.175781 83.939844 112.405469 90.565625 121.867969 C 97.191406 131.329688 128.722656 131.291406 128.722656 131.291406 L 128.660938 133.310937 C 128.660938 133.310937 51.965625 139.73125 39.671875 158.464063 C 27.378125 177.196875 61.028125 189.304688 165.254688 174.198438 " transform="matrix(5,0,0,5,0,0)"/>
</g>
</svg>
