<?xml version="1.0" encoding="UTF-8"?>
<svg xmlns="http://www.w3.org/2000/svg" xmlns:xlink="http://www.w3.org/1999/xlink" width="1000pt" height="1000pt" viewBox="0 0 1000 1000" version="1.1">
<g id="surface1">
<path style="fill:none;stroke-width:12.7;stroke-linecap:butt;stroke-linejoin:miter;stroke:rgb(0%,0%,0%);stroke-opacity:1;stroke-miterlimit:4;" d="M 73.220313 26.682031 C 73.220313 26.682031 97.610156 84.314063 74.64375 128.246875 C 60.226562 155.825781 38.340625 164.59375 38.340625 164.59375 L 33.507812 166.997656 C 33.507812 166.997656 30.725781 160.660156 30.042188 151.979688 C 29.246875 141.884375 31.251563 131.707031 31.251563 131.707031 " transform="matrix(5,0,0,5,0,0)"/>
<path style="fill:none;stroke-width:12.7;stroke-linecap:butt;stroke-linejoin:miter;stroke:rgb(0%,0%,0%);stroke-opacity:1;stroke-miterlimit:4;" d="M 35.557031 106.028125 C 35.557031 106.028125 51.891406 84.038281 83.546094 75.314844 C 113.135938 67.159375 129.827344 64.904688 138.503125 71.178906 C 148.710938 78.560938 111.81875 139.865625 129.089844 159.382031 C 141.185937 173.048438 176.498438 164.074219 176.498438 164.074219 " transform="matrix(5,0,0,5,0,0)"/>
</g>
</svg>
