<?xml version="1.0" encoding="UTF-8"?>
<svg xmlns="http://www.w3.org/2000/svg" xmlns:xlink="http://www.w3.org/1999/xlink" width="1000pt" height="1000pt" viewBox="0 0 1000 1000" version="1.1">
<g id="surface1">
<path style="fill:none;stroke-width:12.7;stroke-linecap:butt;stroke-linejoin:miter;stroke:rgb(0%,0%,0%);stroke-opacity:1;stroke-miterlimit:4;" d="M 85.414062 17.496094 C 85.414062 17.496094 101.399219 20.335938 97.45 33.265625 C 92.967188 47.942188 61.534375 74.541406 61.534375 74.541406 L 62.502344 76.419531 C 62.502344 76.419531 85.792969 65.266406 98.308594 61.432813 C 111.578906 57.367969 126.66875 52.048438 126.66875 52.048438 L 128.786719 53.696875 L 33.760938 156.988281 L 32.460156 155.664844 C 32.460156 155.664844 34.289062 149.007031 35.088281 145.049219 C 36.261719 139.242188 37.073438 130.182031 37.073438 130.182031 " transform="matrix(5,0,0,5,0,0)"/>
<path style="fill:none;stroke-width:12.7;stroke-linecap:butt;stroke-linejoin:miter;stroke:rgb(0%,0%,0%);stroke-opacity:1;stroke-miterlimit:4;" d="M 64.936719 93.566406 C 64.936719 93.566406 87.325781 90.624219 94.569531 108.483594 C 101.813281 126.342969 100.810156 135.227344 100.810156 135.227344 L 103.503906 137.039062 C 103.503906 137.039062 125.164844 115.574219 148.054688 120.102344 C 170.929688 124.627344 185.153906 153.573438 112.19375 182.216406 " transform="matrix(5,0,0,5,0,0)"/>
</g>
</svg>
