<?xml version="1.0" encoding="UTF-8"?>
<svg xmlns="http://www.w3.org/2000/svg" xmlns:xlink="http://www.w3.org/1999/xlink" width="1000pt" height="1000pt" viewBox="0 0 1000 1000" version="1.1">
<g id="surface1">
<path style="fill:none;stroke-width:12.7;stroke-linecap:butt;stroke-linejoin:miter;stroke:rgb(0%,0%,0%);stroke-opacity:1;stroke-miterlimit:4;" d="M 57.641406 47.264844 C 57.641406 47.264844 87.372656 68.751563 127.689063 46.586719 " transform="matrix(5,0,0,5,0,0)"/>
<path style="fill:none;stroke-width:12.7;stroke-linecap:butt;stroke-linejoin:miter;stroke:rgb(0%,0%,0%);stroke-opacity:1;stroke-miterlimit:4;" d="M 93.401563 18.471875 C 93.401563 18.471875 90.513281 58.5125 85.165625 75.274219 C 79.817969 92.035156 71.685938 106.192969 71.685938 106.192969 L 71.739063 108.334375 C 71.739063 108.334375 82.703906 107.983594 96.989844 105.094531 C 108.802344 102.705469 121.970313 98.797656 121.970313 98.797656 L 121.960156 97.833594 C 121.960156 97.833594 117.557031 94.003125 111.603906 92.970313 C 105.853125 91.972656 106.916406 176.275781 106.916406 176.275781 L 104.961719 177.454688 C 104.961719 177.454688 87.586719 164.2125 73.973438 157.615625 " transform="matrix(5,0,0,5,0,0)"/>
<path style="fill:none;stroke-width:12.7;stroke-linecap:butt;stroke-linejoin:miter;stroke:rgb(0%,0%,0%);stroke-opacity:1;stroke-miterlimit:4;" d="M 38.953125 136.670312 C 38.953125 136.670312 27.728906 154.34375 42.808594 155.360938 C 51.327344 155.935156 83.06875 133.546875 83.06875 133.546875 " transform="matrix(5,0,0,5,0,0)"/>
<path style="fill:none;stroke-width:12.7;stroke-linecap:butt;stroke-linejoin:miter;stroke:rgb(0%,0%,0%);stroke-opacity:1;stroke-miterlimit:4;" d="M 138.072656 127.892188 C 138.072656 127.892188 159.878125 129.175781 166.513281 148.705469 " transform="matrix(5,0,0,5,0,0)"/>
</g>
</svg>
