<?xml version="1.0" encoding="UTF-8"?>
<svg xmlns="http://www.w3.org/2000/svg" xmlns:xlink="http://www.w3.org/1999/xlink" width="1000pt" height="1000pt" viewBox="0 0 1000 1000" version="1.1">
<g id="surface1">
<path style="fill:none;stroke-width:12.7;stroke-linecap:butt;stroke-linejoin:miter;stroke:rgb(0%,0%,0%);stroke-opacity:1;stroke-miterlimit:4;" d="M 27.925781 36.573438 C 27.925781 36.573438 34.259375 38.519531 42.821094 36.622656 C 51.382812 34.726562 68.508594 23.533594 73.371875 32.792969 C 78.235156 42.051563 47.632812 64.048438 49.111719 73.340625 C 50.590625 82.632812 81.446094 107.739844 69.814844 144.8875 C 58.183594 182.035938 18.522656 184.323438 27.323438 151.45625 C 36.123438 118.589063 74.684375 80.735938 74.684375 80.735938 " transform="matrix(5,0,0,5,0,0)"/>
<path style="fill:none;stroke-width:12.7;stroke-linecap:butt;stroke-linejoin:miter;stroke:rgb(0%,0%,0%);stroke-opacity:1;stroke-miterlimit:4;" d="M 104.925781 40.81875 C 104.925781 40.81875 145.296875 10.667969 152.84375 34.664062 C 162.053125 63.946875 125.753125 63.204688 125.753125 63.204688 C 125.753125 63.204688 118.73125 80.724219 121.6875 88.460156 C 124.64375 96.196094 146.222656 113.133594 142.809375 136.539844 C 139.395313 159.946875 126.397656 188.190625 109.522656 164.770313 " transform="matrix(5,0,0,5,0,0)"/>
<path style="fill:none;stroke-width:12.7;stroke-linecap:butt;stroke-linejoin:miter;stroke:rgb(0%,0%,0%);stroke-opacity:1;stroke-miterlimit:4;" d="M 84.908594 116.19375 C 84.908594 116.19375 92.641406 90.634375 102.607031 95.101562 C 112.572656 99.56875 101.446875 120.454688 101.446875 120.454688 L 102.929688 121.317188 C 102.929688 121.317188 115.692969 117.952344 114.121094 128.639844 C 112.316406 140.915625 95.939844 159.534375 95.939844 159.534375 L 96.517969 160.077344 C 96.517969 160.077344 142.227344 85.863281 161.234375 88.089063 C 177.326563 89.974219 176.83125 109.3625 147.901563 123.557031 C 147.901563 123.557031 168.117969 142.825781 176.827344 161.614063 " transform="matrix(5,0,0,5,0,0)"/>
</g>
</svg>
