<?xml version="1.0" encoding="UTF-8"?>
<svg xmlns="http://www.w3.org/2000/svg" xmlns:xlink="http://www.w3.org/1999/xlink" width="1000pt" height="1000pt" viewBox="0 0 1000 1000" version="1.1">
<g id="surface1">
<path style="fill:none;stroke-width:12.7;stroke-linecap:butt;stroke-linejoin:miter;stroke:rgb(0%,0%,0%);stroke-opacity:1;stroke-miterlimit:4;" d="M 114.679688 19.004687 C 114.679688 19.004687 99.075 62.579688 65.053125 71.80625 C 28.00625 81.853125 29.689844 63.857031 33.791406 56.766406 C 42.770313 41.248438 59.203906 45.441406 62.842969 51.669531 C 69.403906 62.896875 68.039062 101.834375 67.844531 111.955469 C 67.65 122.075781 67.221875 135.296875 66.6625 152.421875 C 66.425 159.678125 65.797656 174.409375 65.797656 174.409375 L 65.2375 175.714063 C 65.2375 175.714063 46.575781 158.785938 37.30625 156.6375 " transform="matrix(5,0,0,5,0,0)"/>
<path style="fill:none;stroke-width:12.7;stroke-linecap:butt;stroke-linejoin:miter;stroke:rgb(0%,0%,0%);stroke-opacity:1;stroke-miterlimit:4;" d="M 30.803906 105.275781 C 30.803906 105.275781 39.3125 118.153906 36.59375 135.538281 C 34.132031 151.28125 28.810938 161.609375 28.810938 161.609375 L 29.485938 162.149219 C 29.485938 162.149219 90.828906 95.592969 133.863281 96.81875 C 172.529688 97.920313 170.146094 165.139063 131.501563 172.877344 C 92.857813 180.614844 90.451563 140.499219 121.049219 141.189063 C 155.1125 141.957813 175.861719 179.964063 175.861719 179.964063 " transform="matrix(5,0,0,5,0,0)"/>
<path style="fill:none;stroke-width:12.7;stroke-linecap:butt;stroke-linejoin:miter;stroke:rgb(0%,0%,0%);stroke-opacity:1;stroke-miterlimit:4;" d="M 139 57.360156 C 139 57.360156 165.178125 66.948437 173.470313 89.435938 " transform="matrix(5,0,0,5,0,0)"/>
</g>
</svg>
