<?xml version="1.0" encoding="UTF-8"?>
<svg xmlns="http://www.w3.org/2000/svg" xmlns:xlink="http://www.w3.org/1999/xlink" width="1000pt" height="1000pt" viewBox="0 0 1000 1000" version="1.1">
<g id="surface1">
<path style="fill:none;stroke-width:12.7;stroke-linecap:butt;stroke-linejoin:miter;stroke:rgb(0%,0%,0%);stroke-opacity:1;stroke-miterlimit:4;" d="M 100.674219 13.892188 C 100.674219 13.892188 100.003906 45.7625 89.125 60.7375 C 78.557031 75.285156 69.871875 81.24375 57.573438 77.94375 C 46.097656 74.864063 45.492969 61.767188 62.408594 51.823438 C 79.323438 41.880469 103.146094 40.972656 105.817969 57.559375 C 108.375 73.432812 76.783594 98.567188 69.152344 104.908594 C 61.023438 111.664062 48.316406 123.567969 48.316406 123.567969 L 48.823438 124.192969 C 48.823438 124.192969 79.43125 95.475 111.910938 93.628125 C 144.505469 91.774219 158.303906 107.508594 155.873438 125.110938 C 153.171875 144.675781 126.905469 150.34375 108.223438 145.0125 " transform="matrix(5,0,0,5,0,0)"/>
<path style="fill:none;stroke-width:12.7;stroke-linecap:butt;stroke-linejoin:miter;stroke:rgb(0%,0%,0%);stroke-opacity:1;stroke-miterlimit:4;" d="M 108.921875 79.598438 C 108.921875 79.598438 109.41875 128.335938 107.911719 143.089844 C 106.404688 157.84375 100.303125 182.092188 100.303125 182.092188 " transform="matrix(5,0,0,5,0,0)"/>
</g>
</svg>
