<?xml version="1.0" encoding="UTF-8"?>
<svg xmlns="http://www.w3.org/2000/svg" xmlns:xlink="http://www.w3.org/1999/xlink" width="1000pt" height="1000pt" viewBox="0 0 1000 1000" version="1.1">
<g id="surface1">
<path style="fill:none;stroke-width:12.7;stroke-linecap:butt;stroke-linejoin:miter;stroke:rgb(0%,0%,0%);stroke-opacity:1;stroke-miterlimit:4;" d="M 50.226562 34.234375 C 50.226562 34.234375 57.06875 37.321875 71.357813 36.323438 C 85.646875 35.325 111.066406 23.944531 123.0625 31.51875 C 136.371875 39.922656 137.110938 59.567969 118.369531 70.834375 C 99.367188 82.257812 92.442969 76.266406 92.442969 76.266406 L 98.125781 70.4125 C 98.125781 70.4125 87.570312 88.849219 92.838281 94.548438 C 97.120313 99.18125 124.310938 106.265625 120.676563 139.885938 C 118.399219 160.953906 101.4125 177.926563 82.439844 173.55625 C 67.892188 170.205469 60.095313 156.121875 60.095313 156.121875 " transform="matrix(5,0,0,5,0,0)"/>
<path style="fill:none;stroke-width:12.7;stroke-linecap:butt;stroke-linejoin:miter;stroke:rgb(0%,0%,0%);stroke-opacity:1;stroke-miterlimit:4;" d="M 64.547656 122.402344 C 64.547656 122.402344 59.610938 128.741406 48.891406 139.422656 C 36.024219 152.245313 26.291406 156.878125 26.291406 156.878125 " transform="matrix(5,0,0,5,0,0)"/>
<path style="fill:none;stroke-width:12.7;stroke-linecap:butt;stroke-linejoin:miter;stroke:rgb(0%,0%,0%);stroke-opacity:1;stroke-miterlimit:4;" d="M 144.007812 124.486719 C 144.007812 124.486719 158.853906 129.553906 165.300781 140.265625 C 171.253125 150.157031 171.489063 155.421875 171.489063 155.421875 " transform="matrix(5,0,0,5,0,0)"/>
</g>
</svg>
