<?xml version="1.0" encoding="UTF-8"?>
<svg xmlns="http://www.w3.org/2000/svg" xmlns:xlink="http://www.w3.org/1999/xlink" width="1000pt" height="1000pt" viewBox="0 0 1000 1000" version="1.1">
<g id="surface1">
<path style="fill:none;stroke-width:12.7;stroke-linecap:butt;stroke-linejoin:miter;stroke:rgb(0%,0%,0%);stroke-opacity:1;stroke-miterlimit:4;" d="M 83.855469 19.045313 C 83.855469 19.045313 77.65625 33.18125 67.314063 42.455469 C 60.801563 48.294531 51.374219 52.704688 51.374219 52.704688 L 49.966406 56.055469 C 49.966406 56.055469 73.845313 70.710156 65.522656 87.655469 C 57.2 104.6 28.907031 103.160156 37.900781 86.202344 C 45.332031 72.190625 112 33.3 121.675781 40.683594 C 128.916406 46.207813 124.148438 64.966406 124.148438 64.966406 L 128.864063 66.565625 C 128.864063 66.565625 156.328906 62.125781 160.885938 71.058594 C 165.6 80.3 89.436719 88.757812 86.132812 100.410938 C 83.182031 110.819531 121.346875 111.907813 121.346875 111.907813 " transform="matrix(5,0,0,5,0,0)"/>
<path style="fill:none;stroke-width:12.7;stroke-linecap:butt;stroke-linejoin:miter;stroke:rgb(0%,0%,0%);stroke-opacity:1;stroke-miterlimit:4;" d="M 84.7 125.271094 C 84.7 125.271094 87.189063 138.571875 126.196875 136.578125 C 126.196875 136.578125 62.901563 140.307031 68.151562 161.34375 C 73.400781 182.380469 135.971875 170.000781 135.971875 170.000781 " transform="matrix(5,0,0,5,0,0)"/>
</g>
</svg>
