<?xml version="1.0" encoding="UTF-8"?>
<svg xmlns="http://www.w3.org/2000/svg" xmlns:xlink="http://www.w3.org/1999/xlink" width="1000pt" height="1000pt" viewBox="0 0 1000 1000" version="1.1">
<g id="surface1">
<path style="fill:none;stroke-width:12.7;stroke-linecap:butt;stroke-linejoin:miter;stroke:rgb(0%,0%,0%);stroke-opacity:1;stroke-miterlimit:4;" d="M 48.907031 21.300781 C 48.907031 21.300781 51.866406 36.348438 62.496094 41.883594 " transform="matrix(5,0,0,5,0,0)"/>
<path style="fill:none;stroke-width:12.7;stroke-linecap:butt;stroke-linejoin:miter;stroke:rgb(0%,0%,0%);stroke-opacity:1;stroke-miterlimit:4;" d="M 28.796094 59.502344 C 28.796094 59.502344 60.84375 78.50625 128.502344 45.135156 " transform="matrix(5,0,0,5,0,0)"/>
<path style="fill:none;stroke-width:12.7;stroke-linecap:butt;stroke-linejoin:miter;stroke:rgb(0%,0%,0%);stroke-opacity:1;stroke-miterlimit:4;" d="M 100.346875 19.24375 C 100.346875 19.24375 95.201563 66.19375 76.516406 105.210156 C 57.832031 144.226562 35.771875 195.544531 32.853906 156.202344 C 29.936719 116.860938 65.726562 84.824219 112.23125 87.941406 C 158.735156 91.058594 137.946094 155.5625 115.507031 166.917188 C 93.06875 178.271875 75.360156 164.450781 86.130469 149.625 C 96.9 134.8 134.588281 132.334375 168.996094 175.5 " transform="matrix(5,0,0,5,0,0)"/>
</g>
</svg>
