<?xml version="1.0" encoding="UTF-8"?>
<svg xmlns="http://www.w3.org/2000/svg" xmlns:xlink="http://www.w3.org/1999/xlink" width="1000pt" height="1000pt" viewBox="0 0 1000 1000" version="1.1">
<g id="surface1">
<path style="fill:none;stroke-width:12.7;stroke-linecap:butt;stroke-linejoin:miter;stroke:rgb(0%,0%,0%);stroke-opacity:1;stroke-miterlimit:4;" d="M 100.103125 14.959375 C 100.103125 14.959375 100.09375 42.684375 99.060938 55.536719 C 97.895313 70.030469 91.903125 90.825781 91.903125 90.825781 L 93.728906 94.042969 C 93.728906 94.042969 114.08125 84.117969 123.083594 100.039844 C 133.019531 117.611719 117.589063 173.055469 98.353906 178.173438 C 71.622656 185.285156 59.175781 139.476562 59.175781 139.476562 " transform="matrix(5,0,0,5,0,0)"/>
<path style="fill:none;stroke-width:12.7;stroke-linecap:butt;stroke-linejoin:miter;stroke:rgb(0%,0%,0%);stroke-opacity:1;stroke-miterlimit:4;" d="M 17.933594 125.90625 C 17.933594 125.90625 41.1 128.11875 69.458594 124.920313 C 99.811719 121.497656 111.574219 119.550781 137.386719 117.038281 C 159.7875 114.858594 182.860938 115.132031 182.860938 115.132031 " transform="matrix(5,0,0,5,0,0)"/>
<path style="fill:none;stroke-width:12.7;stroke-linecap:butt;stroke-linejoin:miter;stroke:rgb(0%,0%,0%);stroke-opacity:1;stroke-miterlimit:4;" d="M 98.692969 57.728906 C 98.692969 57.728906 111.511719 61.25625 127.083594 60.632031 C 142.785156 60.002344 157.570312 56.646875 157.570312 56.646875 " transform="matrix(5,0,0,5,0,0)"/>
</g>
</svg>
