<?xml version="1.0" encoding="UTF-8"?>
<svg xmlns="http://www.w3.org/2000/svg" xmlns:xlink="http://www.w3.org/1999/xlink" width="1000pt" height="1000pt" viewBox="0 0 1000 1000" version="1.1">
<g id="surface1">
<path style="fill:none;stroke-width:12.7;stroke-linecap:butt;stroke-linejoin:miter;stroke:rgb(0%,0%,0%);stroke-opacity:1;stroke-miterlimit:4;" d="M 69.123438 18.460938 C 69.123438 18.460938 77.854688 47.25 76.153906 64.373438 C 74.621875 79.796094 69.950781 97.140625 73.995312 102.496094 C 78.039844 107.851562 102.484375 128.213281 91.200781 152.669531 C 81.183594 174.380469 66.490625 182.159375 57.727344 176.100781 C 52.099219 172.209375 48.374219 158.907031 63.789062 140.308594 C 80.791406 119.796094 106.669531 96.900781 106.669531 96.900781 " transform="matrix(5,0,0,5,0,0)"/>
<path style="fill:none;stroke-width:12.7;stroke-linecap:butt;stroke-linejoin:miter;stroke:rgb(0%,0%,0%);stroke-opacity:1;stroke-miterlimit:4;" d="M 40.515625 62.359375 C 40.515625 62.359375 44.478906 70.057031 45.858594 85.621094 C 46.689844 95.000781 43.714063 103.400781 43.714063 103.400781 " transform="matrix(5,0,0,5,0,0)"/>
<path style="fill:none;stroke-width:12.7;stroke-linecap:butt;stroke-linejoin:miter;stroke:rgb(0%,0%,0%);stroke-opacity:1;stroke-miterlimit:4;" d="M 31.010156 178.8875 C 31.010156 178.8875 29.629688 172.046094 31.010156 156.148438 C 33.017969 133.014844 41.294531 100.40625 56.532813 79.989844 C 71.882031 59.425 81.998438 50.552344 95.304688 49.848438 C 116.207031 48.741406 118.914844 78.553125 75.898438 83.432031 " transform="matrix(5,0,0,5,0,0)"/>
<path style="fill:none;stroke-width:12.7;stroke-linecap:butt;stroke-linejoin:miter;stroke:rgb(0%,0%,0%);stroke-opacity:1;stroke-miterlimit:4;" d="M 131.033594 56.510156 C 131.033594 56.510156 151.630469 32.673437 160.313281 45.208594 C 169.917188 59.074219 136.867969 76.816406 137.188281 90.079688 C 137.475781 101.986719 149.010156 93.407031 156.082813 107.239063 C 161.840625 118.499219 117.698438 135.573438 120.620313 161.938281 C 123.058594 183.9375 175.486719 172.110156 175.486719 172.110156 " transform="matrix(5,0,0,5,0,0)"/>
</g>
</svg>
