<?xml version="1.0" encoding="UTF-8"?>
<svg xmlns="http://www.w3.org/2000/svg" xmlns:xlink="http://www.w3.org/1999/xlink" width="1000pt" height="1000pt" viewBox="0 0 1000 1000" version="1.1">
<g id="surface1">
<path style="fill:none;stroke-width:12.7;stroke-linecap:butt;stroke-linejoin:miter;stroke:rgb(0%,0%,0%);stroke-opacity:1;stroke-miterlimit:4;" d="M 43.14375 24.583594 C 43.14375 24.583594 30.66875 103.394531 33.621094 131.509375 C 36.049219 154.63125 40.228906 163.526563 40.228906 163.526563 L 42.501563 161.963281 C 42.501563 161.963281 46.924219 144.438281 51.564063 129.760938 C 54.926563 119.123438 60.473438 107.521094 60.473438 107.521094 " transform="matrix(5,0,0,5,0,0)"/>
<path style="fill:none;stroke-width:12.7;stroke-linecap:butt;stroke-linejoin:miter;stroke:rgb(0%,0%,0%);stroke-opacity:1;stroke-miterlimit:4;" d="M 75.999219 47.349219 C 75.999219 47.349219 101.103906 56.833594 120.147656 55.397656 C 138.264844 54.032031 150.153125 49.427344 150.153125 49.427344 L 148.991406 46.578125 C 148.991406 46.578125 132.651563 19.114062 118.798438 32.476562 C 104.946094 45.839063 100.200781 93.436719 100.200781 93.436719 L 102.302344 93.491406 C 102.302344 93.491406 130.402344 93.277344 134.895313 114.623438 C 140.173438 139.703906 129.554688 171.509375 111.905469 170.304688 C 100.621094 169.534375 89.035156 158.873438 89.035156 158.873438 " transform="matrix(5,0,0,5,0,0)"/>
<path style="fill:none;stroke-width:12.7;stroke-linecap:butt;stroke-linejoin:miter;stroke:rgb(0%,0%,0%);stroke-opacity:1;stroke-miterlimit:4;" d="M 97.234375 124.914062 C 97.234375 124.914062 92.178125 134.619531 86.021094 141.482031 C 77.46875 151.013281 68.066406 157.342969 68.066406 157.342969 " transform="matrix(5,0,0,5,0,0)"/>
<path style="fill:none;stroke-width:12.7;stroke-linecap:butt;stroke-linejoin:miter;stroke:rgb(0%,0%,0%);stroke-opacity:1;stroke-miterlimit:4;" d="M 152.957031 127.760156 C 152.957031 127.760156 162.728906 133.703125 167.045313 141.897656 C 171.177344 149.742188 173.016406 157.925 173.016406 157.925 " transform="matrix(5,0,0,5,0,0)"/>
</g>
</svg>
