<?xml version="1.0" encoding="UTF-8"?>
<svg xmlns="http://www.w3.org/2000/svg" xmlns:xlink="http://www.w3.org/1999/xlink" width="1000pt" height="1000pt" viewBox="0 0 1000 1000" version="1.1">
<g id="surface1">
<path style="fill:none;stroke-width:12.7;stroke-linecap:butt;stroke-linejoin:miter;stroke:rgb(0%,0%,0%);stroke-opacity:1;stroke-miterlimit:4;" d="M 91.758594 17.378125 C 91.758594 17.378125 99.732031 35.600781 100.557813 52.853906 C 101.061719 63.375781 100.335156 73.701563 100.335156 73.701563 L 98.264844 74.085156 C 98.264844 74.085156 88.367188 66.015625 76.214844 64.741406 " transform="matrix(5,0,0,5,0,0)"/>
<path style="fill:none;stroke-width:12.7;stroke-linecap:butt;stroke-linejoin:miter;stroke:rgb(0%,0%,0%);stroke-opacity:1;stroke-miterlimit:4;" d="M 64.180469 37.676563 C 64.180469 37.676563 50.821875 43.292188 46.038281 60.686719 " transform="matrix(5,0,0,5,0,0)"/>
<path style="fill:none;stroke-width:12.7;stroke-linecap:butt;stroke-linejoin:miter;stroke:rgb(0%,0%,0%);stroke-opacity:1;stroke-miterlimit:4;" d="M 124.572656 34.903906 C 124.572656 34.903906 141.910938 30.842969 143.853125 44.50625 C 146.025 59.779688 110.407031 80.099219 110.407031 80.099219 " transform="matrix(5,0,0,5,0,0)"/>
<path style="fill:none;stroke-width:12.7;stroke-linecap:butt;stroke-linejoin:miter;stroke:rgb(0%,0%,0%);stroke-opacity:1;stroke-miterlimit:4;" d="M 27.403125 86.033594 C 27.403125 86.033594 48.341406 88.403125 65.125 87.875 C 85.250781 87.241406 147.542188 65.614063 162.691406 85.802344 C 171.975 98.174219 126.0375 96.374219 116.980469 105.140625 C 107.922656 113.907031 117.517969 144.025781 101.709375 146.063281 C 85.9 148.1 77.141406 124.319531 93.101562 118.420313 C 109.061719 112.521094 121.349219 135.914844 101.7875 149.789844 C 82.225781 163.664844 70.3375 170.377344 82.451563 175.690625 C 94.565625 181.004688 130.765625 173.408594 130.765625 173.408594 " transform="matrix(5,0,0,5,0,0)"/>
</g>
</svg>
