<?xml version="1.0" encoding="UTF-8"?>
<svg xmlns="http://www.w3.org/2000/svg" xmlns:xlink="http://www.w3.org/1999/xlink" width="1000pt" height="1000pt" viewBox="0 0 1000 1000" version="1.1">
<g id="surface1">
<path style="fill:none;stroke-width:12.7;stroke-linecap:butt;stroke-linejoin:miter;stroke:rgb(0%,0%,0%);stroke-opacity:1;stroke-miterlimit:4;" d="M 27.820312 41.705469 C 27.820312 41.705469 58.328125 50.047656 86.33125 46.930469 C 113.139063 43.946094 116.435938 40.926563 139.847656 40.503906 C 155.146094 40.227344 167.110156 46.921875 167.110156 46.921875 " transform="matrix(5,0,0,5,0,0)"/>
<path style="fill:none;stroke-width:12.7;stroke-linecap:butt;stroke-linejoin:miter;stroke:rgb(0%,0%,0%);stroke-opacity:1;stroke-miterlimit:4;" d="M 74.498438 19.754688 C 74.498438 19.754688 64.210156 50.630469 78.242188 63.03125 " transform="matrix(5,0,0,5,0,0)"/>
<path style="fill:none;stroke-width:12.7;stroke-linecap:butt;stroke-linejoin:miter;stroke:rgb(0%,0%,0%);stroke-opacity:1;stroke-miterlimit:4;" d="M 110.494531 23.967188 C 110.494531 23.967188 133.851562 13.486719 133.028125 29.203906 C 132.204688 44.921094 114.164844 61.636719 100.476562 68.399219 " transform="matrix(5,0,0,5,0,0)"/>
<path style="fill:none;stroke-width:12.7;stroke-linecap:butt;stroke-linejoin:miter;stroke:rgb(0%,0%,0%);stroke-opacity:1;stroke-miterlimit:4;" d="M 55.624219 85.022656 C 55.624219 85.022656 43.396875 96.185938 54.988281 101.617969 C 63.796875 105.746094 80.164844 93.255469 80.164844 93.255469 " transform="matrix(5,0,0,5,0,0)"/>
<path style="fill:none;stroke-width:12.7;stroke-linecap:butt;stroke-linejoin:miter;stroke:rgb(0%,0%,0%);stroke-opacity:1;stroke-miterlimit:4;" d="M 82.021094 72.71875 C 82.021094 72.71875 97.133594 72.117188 101.453906 84.808594 " transform="matrix(5,0,0,5,0,0)"/>
<path style="fill:none;stroke-width:12.7;stroke-linecap:butt;stroke-linejoin:miter;stroke:rgb(0%,0%,0%);stroke-opacity:1;stroke-miterlimit:4;" d="M 145.735938 77.147656 C 145.735938 77.147656 145.069531 94.507031 121.45 104.121094 " transform="matrix(5,0,0,5,0,0)"/>
<path style="fill:none;stroke-width:12.7;stroke-linecap:butt;stroke-linejoin:miter;stroke:rgb(0%,0%,0%);stroke-opacity:1;stroke-miterlimit:4;" d="M 104.296094 92.078125 C 104.296094 92.078125 99.228906 118.948438 98.782031 136.596094 C 98.279688 156.392188 98.038281 180.210938 98.038281 180.210938 L 96.80625 180.925781 C 96.80625 180.925781 84.810938 167.014063 68.74375 163.664062 " transform="matrix(5,0,0,5,0,0)"/>
<path style="fill:none;stroke-width:12.7;stroke-linecap:butt;stroke-linejoin:miter;stroke:rgb(0%,0%,0%);stroke-opacity:1;stroke-miterlimit:4;" d="M 75.754688 137.111719 C 75.754688 137.111719 65.832031 153.240625 62.204688 156.884375 C 58.578125 160.528125 46.917969 171.870313 46.917969 171.870313 L 47.796875 172.675 C 47.796875 172.675 67.264063 153.527344 93.217969 151.089844 C 127.965625 147.827344 159.724219 173.725781 159.724219 173.725781 " transform="matrix(5,0,0,5,0,0)"/>
<path style="fill:none;stroke-width:12.7;stroke-linecap:butt;stroke-linejoin:miter;stroke:rgb(0%,0%,0%);stroke-opacity:1;stroke-miterlimit:4;" d="M 58.355469 118.409375 C 58.355469 118.409375 84.180469 138.50625 135.795312 116.539062 " transform="matrix(5,0,0,5,0,0)"/>
</g>
</svg>
