<?xml version="1.0" encoding="UTF-8"?>
<svg xmlns="http://www.w3.org/2000/svg" xmlns:xlink="http://www.w3.org/1999/xlink" width="1000pt" height="1000pt" viewBox="0 0 1000 1000" version="1.1">
<g id="surface1">
<path style="fill:none;stroke-width:12.7;stroke-linecap:butt;stroke-linejoin:miter;stroke:rgb(0%,0%,0%);stroke-opacity:1;stroke-miterlimit:4;" d="M 63.278125 33.934375 C 63.278125 33.934375 73.265625 47.43125 99.273438 43.979688 C 122.176563 40.939844 134.7 35.128906 134.7 35.128906 " transform="matrix(5,0,0,5,0,0)"/>
<path style="fill:none;stroke-width:12.7;stroke-linecap:butt;stroke-linejoin:miter;stroke:rgb(0%,0%,0%);stroke-opacity:1;stroke-miterlimit:4;" d="M 94.874219 11.43125 C 94.874219 11.43125 100.725 44.792969 102.224219 65.591406 C 103.647656 85.346094 103.507812 103.339063 103.507812 103.339063 L 100.566406 105.567969 C 100.566406 105.567969 68.920313 95.309375 73.726562 81.942969 C 78.997656 67.28125 131.467969 51.060938 121.370313 74.249219 C 111.272656 97.4375 31.175 132.70625 31.175 132.70625 L 31.423438 134.09375 C 31.423438 134.09375 107.947656 115.146094 127.296094 115.548438 C 146.644531 115.950781 169.122656 120.075781 169.122656 120.075781 L 169.364063 118.575781 C 169.364063 118.575781 159.011719 94.314063 146.902344 94.765625 C 134.792188 95.217188 82.407813 152.898438 82.407813 152.898438 L 83.607031 155.208594 C 83.607031 155.208594 122.222656 138.689063 134.425 147.421875 C 149.302344 158.069531 147.123437 177.238281 108.285156 184.521094 " transform="matrix(5,0,0,5,0,0)"/>
</g>
</svg>
