<?xml version="1.0" encoding="UTF-8"?>
<svg xmlns="http://www.w3.org/2000/svg" xmlns:xlink="http://www.w3.org/1999/xlink" width="1000pt" height="1000pt" viewBox="0 0 1000 1000" version="1.1">
<g id="surface1">
<path style="fill:none;stroke-width:12.7;stroke-linecap:butt;stroke-linejoin:miter;stroke:rgb(0%,0%,0%);stroke-opacity:1;stroke-miterlimit:4;" d="M 82.825 16.35 C 82.825 16.35 89.473438 32.015625 101.170313 35.283594 C 112.866406 38.551563 126.971094 38.617188 126.971094 38.617188 " transform="matrix(5,0,0,5,0,0)"/>
<path style="fill:none;stroke-width:12.7;stroke-linecap:butt;stroke-linejoin:miter;stroke:rgb(0%,0%,0%);stroke-opacity:1;stroke-miterlimit:4;" d="M 59.709375 76.953125 C 59.709375 76.953125 69.230469 82.111719 79.160156 76.440625 C 92.308594 68.93125 109.375781 66.023438 103.016406 77.896094 C 96.273438 90.486719 86.523438 97.791406 100.032813 97.88125 C 113.410938 97.969531 114.558594 106.553125 107.18125 111.172656 C 100.614844 115.284375 64.530469 138.620313 57.089063 144.310937 C 49.647656 150.001563 24.090625 173.979688 24.090625 173.979688 " transform="matrix(5,0,0,5,0,0)"/>
<path style="fill:none;stroke-width:12.7;stroke-linecap:butt;stroke-linejoin:miter;stroke:rgb(0%,0%,0%);stroke-opacity:1;stroke-miterlimit:4;" d="M 43.839063 155.478906 C 43.839063 155.478906 60.188281 146.197656 77.528125 149.446875 C 94.86875 152.696094 103.35625 167.025781 103.35625 167.025781 L 105.057031 166.185156 C 105.057031 166.185156 105.642188 140.68125 135.242188 139.321094 C 159.415625 138.210938 178.175781 176.804688 178.175781 176.804688 " transform="matrix(5,0,0,5,0,0)"/>
</g>
</svg>
