<?xml version="1.0" encoding="UTF-8"?>
<svg xmlns="http://www.w3.org/2000/svg" xmlns:xlink="http://www.w3.org/1999/xlink" width="1000pt" height="1000pt" viewBox="0 0 1000 1000" version="1.1">
<g id="surface1">
<path style="fill:none;stroke-width:12.7;stroke-linecap:butt;stroke-linejoin:miter;stroke:rgb(0%,0%,0%);stroke-opacity:1;stroke-miterlimit:4;" d="M 64.092969 21.292188 C 64.092969 21.292188 93.215625 39.324219 124.364844 28.335938 " transform="matrix(5,0,0,5,0,0)"/>
<path style="fill:none;stroke-width:12.7;stroke-linecap:butt;stroke-linejoin:miter;stroke:rgb(0%,0%,0%);stroke-opacity:1;stroke-miterlimit:4;" d="M 39.371094 67.217969 C 39.371094 67.217969 43.9 82.4 66.979687 78.478125 C 87.195312 75.042187 124.664062 54.510938 139.395313 64.914062 C 148.4375 71.3 148.314063 85.286719 114.394531 81.775781 " transform="matrix(5,0,0,5,0,0)"/>
<path style="fill:none;stroke-width:12.7;stroke-linecap:butt;stroke-linejoin:miter;stroke:rgb(0%,0%,0%);stroke-opacity:1;stroke-miterlimit:4;" d="M 76.055469 48.184375 C 76.055469 48.184375 81.741406 65.158594 81.240625 81.171094 C 80.766406 96.335156 81.007812 136.576562 92.447656 149.101562 C 100.172656 157.558594 111.9875 158.579688 111.9875 158.579688 L 117.966406 158.809375 L 113.54375 93.115625 C 113.54375 93.115625 95.478906 157.564063 56.441406 168.210938 C 31.950781 174.890625 18.169531 152.432031 46.883594 130.670312 C 69.489844 113.536719 111.378125 86.140625 156.053125 114.185156 C 196.189844 139.380469 136.742969 175.865625 100.215625 181.132812 " transform="matrix(5,0,0,5,0,0)"/>
</g>
</svg>
