<?xml version="1.0" encoding="UTF-8"?>
<svg xmlns="http://www.w3.org/2000/svg" xmlns:xlink="http://www.w3.org/1999/xlink" width="1000pt" height="1000pt" viewBox="0 0 1000 1000" version="1.1">
<g id="surface1">
<path style="fill:none;stroke-width:12.7;stroke-linecap:butt;stroke-linejoin:miter;stroke:rgb(0%,0%,0%);stroke-opacity:1;stroke-miterlimit:4;" d="M 42.625 21.307031 C 42.625 21.307031 33.573438 75.371094 32.920313 104.00625 C 32.188281 136.098438 41.130469 164.830469 41.130469 164.830469 L 43.672656 163.792969 C 43.672656 163.792969 47.307813 143.689063 51.534375 132.416406 C 54.815625 123.664844 62.53125 106.301563 62.53125 106.301563 " transform="matrix(5,0,0,5,0,0)"/>
<path style="fill:none;stroke-width:12.7;stroke-linecap:butt;stroke-linejoin:miter;stroke:rgb(0%,0%,0%);stroke-opacity:1;stroke-miterlimit:4;" d="M 75.403906 55.721094 C 75.403906 55.721094 85.623438 62.223438 108.860156 62.361719 C 136.340625 62.525781 163.196875 50.192188 163.196875 50.192188 " transform="matrix(5,0,0,5,0,0)"/>
<path style="fill:none;stroke-width:12.7;stroke-linecap:butt;stroke-linejoin:miter;stroke:rgb(0%,0%,0%);stroke-opacity:1;stroke-miterlimit:4;" d="M 109.245313 17.528125 C 109.245313 17.528125 114.407031 57.939063 111.845313 87.479688 C 110.501563 102.980469 107.855469 126.052344 107.855469 126.052344 L 109.425 126.597656 C 109.425 126.597656 121.896875 103.76875 146.408594 103.028125 C 167.235156 102.398438 178.261719 128.898438 166.815625 146.472656 C 152.6 168.3 104.138281 180.050781 104.138281 180.050781 " transform="matrix(5,0,0,5,0,0)"/>
</g>
</svg>
