<?xml version="1.0" encoding="UTF-8"?>
<svg xmlns="http://www.w3.org/2000/svg" xmlns:xlink="http://www.w3.org/1999/xlink" width="1000pt" height="1000pt" viewBox="0 0 1000 1000" version="1.1">
<g id="surface1">
<path style="fill:none;stroke-width:12.7;stroke-linecap:butt;stroke-linejoin:miter;stroke:rgb(0%,0%,0%);stroke-opacity:1;stroke-miterlimit:4;" d="M 42.338281 34.171094 C 42.338281 34.171094 47.96875 49.771094 73.289062 56.534375 " transform="matrix(5,0,0,5,0,0)"/>
<path style="fill:none;stroke-width:12.7;stroke-linecap:butt;stroke-linejoin:miter;stroke:rgb(0%,0%,0%);stroke-opacity:1;stroke-miterlimit:4;" d="M 47.289062 63.767188 C 47.289062 63.767188 38.528125 74.797656 48.250781 78.550781 C 57.973438 82.303125 67.882031 79.289844 67.882031 79.289844 L 68.28125 80.073438 C 68.28125 80.073438 56.70625 99.839063 50.465625 109.304688 C 39.421094 126.05625 33.494531 136.0875 33.494531 136.0875 L 34.108594 136.450781 C 34.108594 136.450781 103.103906 77.257812 141.139844 77.051563 C 179.176563 76.846094 170.997656 110.898438 149.5 118.396875 C 128.002344 125.895313 113.652344 113.235938 101.034375 101.672656 " transform="matrix(5,0,0,5,0,0)"/>
<path style="fill:none;stroke-width:12.7;stroke-linecap:butt;stroke-linejoin:miter;stroke:rgb(0%,0%,0%);stroke-opacity:1;stroke-miterlimit:4;" d="M 88.239063 13.917188 C 88.239063 13.917188 97.428125 23.184375 95.802344 70.207813 C 93.939063 124.090625 89.8375 178.2375 89.8375 178.2375 L 87.428125 180.235938 C 87.428125 180.235938 76.413281 170.4 59.711719 162.680469 " transform="matrix(5,0,0,5,0,0)"/>
<path style="fill:none;stroke-width:12.7;stroke-linecap:butt;stroke-linejoin:miter;stroke:rgb(0%,0%,0%);stroke-opacity:1;stroke-miterlimit:4;" d="M 25.382812 165.888281 C 25.382812 165.888281 59.327344 156.057031 70.813281 136.2125 " transform="matrix(5,0,0,5,0,0)"/>
<path style="fill:none;stroke-width:12.7;stroke-linecap:butt;stroke-linejoin:miter;stroke:rgb(0%,0%,0%);stroke-opacity:1;stroke-miterlimit:4;" d="M 106.532813 138.123437 C 106.532813 138.123437 115.446875 135.755469 121.774219 140.777344 C 128.101562 145.799219 128.258594 153.75 128.258594 153.75 L 129.949219 153.842188 C 129.949219 153.842188 139.763281 136.332031 155.969531 138.154687 C 176.428125 140.45625 175.407813 162.342969 162.683594 170.163281 C 146.196094 180.296094 119.8 184.9 119.8 184.9 " transform="matrix(5,0,0,5,0,0)"/>
</g>
</svg>
