<?xml version="1.0" encoding="UTF-8"?>
<svg xmlns="http://www.w3.org/2000/svg" xmlns:xlink="http://www.w3.org/1999/xlink" width="1000pt" height="1000pt" viewBox="0 0 1000 1000" version="1.1">
<g id="surface1">
<path style="fill:none;stroke-width:12.7;stroke-linecap:butt;stroke-linejoin:miter;stroke:rgb(0%,0%,0%);stroke-opacity:1;stroke-miterlimit:4;" d="M 22.875781 66.888281 C 22.875781 66.888281 38.242969 72.028125 47.982813 73.207031 C 57.721875 74.385937 72.3 72.566406 72.3 72.566406 " transform="matrix(5,0,0,5,0,0)"/>
<path style="fill:none;stroke-width:12.7;stroke-linecap:butt;stroke-linejoin:miter;stroke:rgb(0%,0%,0%);stroke-opacity:1;stroke-miterlimit:4;" d="M 50.664844 18.30625 C 50.664844 18.30625 52.041406 40.66875 51.60625 59.322656 C 51.092969 81.346875 48.802344 129.829688 48.802344 143.761719 C 48.802344 157.694531 50.994531 181.991406 50.994531 181.991406 " transform="matrix(5,0,0,5,0,0)"/>
<path style="fill:none;stroke-width:12.7;stroke-linecap:butt;stroke-linejoin:miter;stroke:rgb(0%,0%,0%);stroke-opacity:1;stroke-miterlimit:4;" d="M 48.651563 75.795313 C 48.651563 75.795313 30.251563 110.60625 27.632031 125.455469 C 24.358594 144.010156 27.136719 151.898438 27.136719 151.898438 C 27.136719 151.898438 38.995313 147.698438 49.795313 133.050781 C 60.595313 118.403125 72.526562 92.178125 72.526562 92.178125 " transform="matrix(5,0,0,5,0,0)"/>
<path style="fill:none;stroke-width:12.7;stroke-linecap:butt;stroke-linejoin:miter;stroke:rgb(0%,0%,0%);stroke-opacity:1;stroke-miterlimit:4;" d="M 89.526563 30.195312 C 89.526563 30.195312 87.360156 38.560156 90.664062 45.824219 C 93.96875 53.089063 101.1875 57.030469 101.1875 57.030469 " transform="matrix(5,0,0,5,0,0)"/>
<path style="fill:none;stroke-width:12.7;stroke-linecap:butt;stroke-linejoin:miter;stroke:rgb(0%,0%,0%);stroke-opacity:1;stroke-miterlimit:4;" d="M 152.41875 25.997656 C 152.41875 25.997656 152.967187 41.10625 144.246094 50.699219 C 135.524219 60.291406 123.88125 65.150781 123.88125 65.150781 " transform="matrix(5,0,0,5,0,0)"/>
<path style="fill:none;stroke-width:12.7;stroke-linecap:butt;stroke-linejoin:miter;stroke:rgb(0%,0%,0%);stroke-opacity:1;stroke-miterlimit:4;" d="M 122.216406 12.18125 C 122.216406 12.18125 113.79375 71.947656 113.407031 91.228906 C 112.223438 150.255469 117.766406 164.586719 117.766406 164.586719 C 117.766406 164.586719 119.594531 165.296875 121.289844 165.875781 C 128.052344 156.903906 137.940625 147.542969 137.940625 147.542969 " transform="matrix(5,0,0,5,0,0)"/>
<path style="fill:none;stroke-width:12.7;stroke-linecap:butt;stroke-linejoin:miter;stroke:rgb(0%,0%,0%);stroke-opacity:1;stroke-miterlimit:4;" d="M 82.44375 73.775 C 82.44375 73.775 89.135156 85.557813 108.333594 84.835156 C 130.399219 84.003906 155.9125 66.1375 155.9125 66.1375 " transform="matrix(5,0,0,5,0,0)"/>
<path style="fill:none;stroke-width:12.7;stroke-linecap:butt;stroke-linejoin:miter;stroke:rgb(0%,0%,0%);stroke-opacity:1;stroke-miterlimit:4;" d="M 144.492969 90.776563 C 144.492969 90.776563 152.011719 105.575781 124.288281 137.616406 C 111.739844 152.119531 96.217188 164.639844 86.184375 164.944531 C 71.2 165.4 64.3 155.8 72.098438 141.346875 C 79.470313 127.684375 104.166406 106.029688 136.078125 108.947656 C 158.434375 110.991406 174.126563 126.18125 173.759375 143.675781 C 173.025 178.635156 129.599219 185.44375 129.599219 185.44375 " transform="matrix(5,0,0,5,0,0)"/>
</g>
</svg>
