<?xml version="1.0" encoding="UTF-8"?>
<svg xmlns="http://www.w3.org/2000/svg" xmlns:xlink="http://www.w3.org/1999/xlink" width="1000pt" height="1000pt" viewBox="0 0 1000 1000" version="1.1">
<g id="surface1">
<path style="fill:none;stroke-width:12.7;stroke-linecap:butt;stroke-linejoin:miter;stroke:rgb(0%,0%,0%);stroke-opacity:1;stroke-miterlimit:4;" d="M 46.549219 41.953125 C 46.549219 41.953125 81.309375 60.250781 118.280469 41.6875 " transform="matrix(5,0,0,5,0,0)"/>
<path style="fill:none;stroke-width:12.7;stroke-linecap:butt;stroke-linejoin:miter;stroke:rgb(0%,0%,0%);stroke-opacity:1;stroke-miterlimit:4;" d="M 89.196875 17.136719 C 89.196875 17.136719 86.900781 43.89375 75.266406 59.95625 C 58.570312 83.005469 34.197656 90.115625 34.197656 90.115625 L 34.442969 91.7125 C 34.442969 91.7125 60.66875 87.848438 81.15625 82.348438 C 94.178125 78.853125 117.571094 70.063281 117.571094 70.063281 L 119.213281 73.410156 C 119.213281 73.410156 113.592969 81.232031 100.299219 91.732031 C 88.757031 100.849219 76.863281 107.783594 76.863281 107.783594 L 76.863281 109.660938 C 76.863281 109.660938 93.407813 112.190625 99.766406 124.561719 C 105.234375 135.198438 107.800781 146.605469 107.800781 146.605469 " transform="matrix(5,0,0,5,0,0)"/>
<path style="fill:none;stroke-width:12.7;stroke-linecap:butt;stroke-linejoin:miter;stroke:rgb(0%,0%,0%);stroke-opacity:1;stroke-miterlimit:4;" d="M 169.883594 89.935156 C 169.883594 89.935156 77.760938 124.783594 65.669531 152.216406 C 58.322656 168.886719 72.110938 183.26875 141.459375 173.392188 " transform="matrix(5,0,0,5,0,0)"/>
</g>
</svg>
