<?xml version="1.0" encoding="UTF-8"?>
<svg xmlns="http://www.w3.org/2000/svg" xmlns:xlink="http://www.w3.org/1999/xlink" width="1000pt" height="1000pt" viewBox="0 0 1000 1000" version="1.1">
<g id="surface1">
<path style="fill:none;stroke-width:12.7;stroke-linecap:butt;stroke-linejoin:miter;stroke:rgb(0%,0%,0%);stroke-opacity:1;stroke-miterlimit:4;" d="M 41.005469 31.128125 C 41.005469 31.128125 49.967969 39.794531 63.539844 35.685156 C 77.1125 31.575781 105.380469 17.754687 122.774219 24.599219 C 140.16875 31.442969 146.385938 43.495313 108.613281 62.653125 C 70.840625 81.810156 49.845313 97.83125 45.742969 113.64375 C 41.641406 129.45625 45.203906 146.301563 45.203906 146.301563 L 46.7 146.301563 C 46.7 146.301563 64.651562 106.735938 113.6875 100.303125 C 162.723438 93.869531 170.382812 128.0125 133.891406 135.20625 C 97.4 142.4 87.179688 155.485156 95.189844 167.792969 C 103.2 180.1 154.464844 171.5375 154.464844 171.5375 " transform="matrix(5,0,0,5,0,0)"/>
</g>
</svg>
