<?xml version="1.0" encoding="UTF-8"?>
<svg xmlns="http://www.w3.org/2000/svg" xmlns:xlink="http://www.w3.org/1999/xlink" width="1000pt" height="1000pt" viewBox="0 0 1000 1000" version="1.1">
<g id="surface1">
<path style="fill:none;stroke-width:12.7;stroke-linecap:butt;stroke-linejoin:miter;stroke:rgb(0%,0%,0%);stroke-opacity:1;stroke-miterlimit:4;" d="M 54.977344 27.421875 C 54.977344 27.421875 73.275 35.796875 87.892969 36.025 C 102.511719 36.253906 119.467188 31.567188 119.467188 31.567188 C 119.467188 31.567188 76.794531 49.922656 79.472656 72.7 C 80.482813 81.288281 107.348438 73.598438 107.348438 73.598438 L 107.814844 76.071094 C 107.814844 76.071094 76.067188 106.216406 64.390625 120.43125 C 55.425 131.346094 23.91875 171.839844 23.91875 171.839844 " transform="matrix(5,0,0,5,0,0)"/>
<path style="fill:none;stroke-width:12.7;stroke-linecap:butt;stroke-linejoin:miter;stroke:rgb(0%,0%,0%);stroke-opacity:1;stroke-miterlimit:4;" d="M 37.165625 154.8375 C 37.165625 154.8375 64.56875 132.810156 84.216406 136.485938 C 103 140 107.339063 172.702344 130.775781 173.36875 C 153 174 176.603906 144.932813 176.603906 144.932813 " transform="matrix(5,0,0,5,0,0)"/>
</g>
</svg>
