<?xml version="1.0" encoding="UTF-8"?>
<svg xmlns="http://www.w3.org/2000/svg" xmlns:xlink="http://www.w3.org/1999/xlink" width="1000pt" height="1000pt" viewBox="0 0 1000 1000" version="1.1">
<g id="surface1">
<path style="fill:none;stroke-width:12.7;stroke-linecap:butt;stroke-linejoin:miter;stroke:rgb(0%,0%,0%);stroke-opacity:1;stroke-miterlimit:4;" d="M 88.375781 15.535156 C 88.375781 15.535156 98.458594 69.786719 96.2625 147.846094 " transform="matrix(5,0,0,5,0,0)"/>
<path style="fill:none;stroke-width:12.7;stroke-linecap:butt;stroke-linejoin:miter;stroke:rgb(0%,0%,0%);stroke-opacity:1;stroke-miterlimit:4;" d="M 56.796875 41.566406 C 56.796875 41.566406 97.711719 55.144531 125.446875 37.242188 " transform="matrix(5,0,0,5,0,0)"/>
<path style="fill:none;stroke-width:12.7;stroke-linecap:butt;stroke-linejoin:miter;stroke:rgb(0%,0%,0%);stroke-opacity:1;stroke-miterlimit:4;" d="M 67.303125 74.574219 C 67.303125 74.574219 96.586719 55.839844 101.10625 68.035938 C 105.625781 80.23125 68.470313 104.245313 68.470313 104.245313 L 69.064844 105.549219 C 69.064844 105.549219 118.5375 82.105469 125.525781 105.176563 C 131.219531 123.973438 116.080469 132.639062 98.989844 129.619531 C 81.9 126.6 68.789062 89.31875 46.628125 90.26875 C 24.466406 91.21875 18.990625 139.948438 32.279688 144.373437 C 45.56875 148.798438 68.367188 120.6375 68.367188 120.6375 " transform="matrix(5,0,0,5,0,0)"/>
<path style="fill:none;stroke-width:12.7;stroke-linecap:butt;stroke-linejoin:miter;stroke:rgb(0%,0%,0%);stroke-opacity:1;stroke-miterlimit:4;" d="M 130.359375 83.096094 C 130.359375 83.096094 156.83125 62.953125 165.550781 78.735156 C 174.270313 94.517188 152.199219 116.740625 152.199219 116.740625 L 152.811719 118.929688 C 152.811719 118.929688 169.3125 118.063281 173.508594 138.508594 C 177.704688 158.953906 135.9875 174.115625 113.764063 181.196875 " transform="matrix(5,0,0,5,0,0)"/>
</g>
</svg>
