<svg xmlns="http://www.w3.org/2000/svg" width="1000" height="1000" viewBox="0 0 1000 1000" version="1.1">
	<path d="M 578.432 157.408 C 577.855 159.047, 571.447 215.457, 568.026 249 C 562.219 305.950, 556.321 376.077, 554.528 409.500 C 554.203 415.550, 553.704 422.378, 553.419 424.674 L 552.900 428.847 532.888 439.963 C 467.737 476.153, 411.985 514.459, 370 551.879 C 298.209 615.865, 242.497 687.108, 198.565 771.106 C 194.805 778.294, 191.896 782.833, 191.598 781.974 C 189.590 776.191, 183.475 739.363, 181.058 718.500 C 177.633 688.937, 176.880 676.429, 176.304 639.500 C 174.960 553.294, 182.458 495.011, 208.016 393 C 219.415 347.507, 239.409 277.380, 253.912 232.033 C 256.105 225.176, 257.809 219.500, 257.699 219.420 C 256.763 218.734, 216.784 205.882, 216.493 206.173 C 215.900 206.766, 204.908 241.853, 196.654 269.500 C 171.791 352.782, 152.336 431.555, 143.061 486.500 C 122.482 608.414, 131.397 757.052, 164.714 847.500 C 167.753 855.750, 170.307 862.583, 170.389 862.685 C 170.617 862.970, 210.054 854.284, 210.432 853.867 C 210.614 853.665, 212.446 848.775, 214.503 843 C 232.847 791.504, 275.489 719.923, 319.314 667.061 C 342.027 639.664, 374.657 605.848, 398.740 584.748 C 438.914 549.550, 489.892 514.182, 545.403 482.994 L 551.307 479.678 550.655 484.089 C 549.294 493.297, 548.730 593.305, 549.897 618.500 C 553.915 705.222, 564.417 753.830, 585.053 781.222 C 592.448 791.037, 606.751 804.873, 617.025 812.149 C 649.502 835.149, 685.718 845.341, 735 845.352 C 767.113 845.358, 793.351 841.901, 828.771 832.994 C 845.622 828.757, 875.019 819.472, 877.420 817.629 C 878.673 816.666, 877.719 813.643, 870.930 797.069 C 866.552 786.381, 862.807 777.473, 862.607 777.273 C 862.406 777.073, 857.036 778.704, 850.673 780.898 C 785.210 803.471, 717.626 808.071, 674.312 792.901 C 648.269 783.781, 625.007 765.787, 615.223 747.195 C 604.225 726.295, 597.067 685.062, 594.011 625 C 592.083 587.109, 593.427 466.217, 595.866 458.128 C 596.433 456.249, 600.099 454.100, 613.493 447.797 C 673.410 419.603, 734.565 398.482, 784.277 388.813 C 795.864 386.560, 796.046 386.482, 795.566 384.011 C 795.298 382.630, 794.125 373.400, 792.961 363.500 C 791.797 353.600, 790.688 344.988, 790.497 344.363 C 789.739 341.880, 750.462 350.674, 716.109 361.018 C 683.863 370.728, 646.129 384.914, 613.508 399.591 L 599.500 405.893 599.194 402.525 C 598.218 391.773, 611.159 250.857, 619.400 182.500 C 620.726 171.500, 621.662 162.346, 621.481 162.159 C 621.299 161.971, 611.625 160.580, 599.983 159.067 C 585.315 157.161, 578.698 156.652, 578.432 157.408 M 418.516 346.250 C 410.850 359.256, 389.802 373.039, 368 379.328 C 328.540 390.712, 288.235 386.272, 265.113 367.995 C 262.273 365.750, 259.570 364.148, 259.107 364.434 C 257.017 365.725, 227.468 391.188, 227.210 391.920 C 226.732 393.273, 236.920 401.940, 245.899 407.820 C 267.908 422.233, 293.497 429.184, 324.500 429.173 C 376.774 429.153, 423.741 409.895, 449.241 378.024 C 456.390 369.088, 461.800 359.387, 460.396 358.019 C 459.640 357.281, 422.021 343, 420.835 343 C 420.613 343, 419.569 344.462, 418.516 346.250 " stroke="none" fill="black" fill-rule="evenodd"/>
</svg>