<svg xmlns="http://www.w3.org/2000/svg" width="1000" height="1000" viewBox="0 0 1000 1000" version="1.1">
	<path d="M 621.500 100.358 C 595.403 108.817, 564.824 136.347, 531.094 181.750 C 526.497 187.938, 522.435 193, 522.067 193 C 521.699 193, 520.367 190.863, 519.106 188.250 C 515.373 180.516, 503.653 161.104, 497.522 152.500 C 486.177 136.580, 473.479 126.084, 459.676 121.219 C 442.269 115.083, 417.984 118.159, 402.333 128.483 L 399.166 130.571 411.073 146.976 C 417.622 155.998, 423.422 163.822, 423.963 164.363 C 424.607 165.007, 425.879 164.921, 427.651 164.113 C 429.139 163.435, 432.500 162.474, 435.120 161.977 C 446.228 159.871, 454.144 165.721, 466.949 185.500 C 480.765 206.841, 488.255 223.602, 492.382 242.415 C 493.819 248.967, 495.190 254.523, 495.428 254.761 C 496.031 255.364, 538.365 248.014, 539.094 247.180 C 539.421 246.806, 543.629 240.487, 548.447 233.139 C 565.544 207.057, 590.872 175.599, 606.073 161.567 C 617.474 151.043, 629.101 143.344, 636.151 141.649 C 638.336 141.124, 639.344 141.627, 641.875 144.510 C 647.009 150.358, 648.504 157.260, 648.475 175 C 648.449 191.975, 647.589 198.294, 642.351 220 C 638.842 234.543, 629.481 264.753, 627.988 266.354 C 627.550 266.824, 615.561 269.147, 601.346 271.515 C 563.663 277.795, 539.237 282.397, 429 303.987 C 301.630 328.933, 277.990 332.860, 242.500 334.970 C 211.556 336.810, 150.703 335.935, 111 333.080 C 104.675 332.626, 99.290 332.444, 99.033 332.677 C 98.602 333.068, 94.988 375.284, 95.353 375.674 C 95.951 376.316, 131.386 378.161, 162.753 379.185 C 203.740 380.522, 247.464 379.443, 273 376.463 C 300.083 373.302, 342.989 365.527, 460.500 342.485 C 561.142 322.750, 606.678 314.345, 607.654 315.321 C 608.348 316.014, 586.924 359.908, 577.338 377.435 C 571.804 387.552, 551.443 422.659, 550.403 423.876 C 550.226 424.083, 547.195 421.608, 543.668 418.376 C 524.215 400.554, 492.049 391.745, 463.543 396.433 C 414.923 404.428, 362.178 447.884, 334.715 502.573 C 325.497 520.929, 321 537.649, 321 553.563 C 321 581.640, 335.468 599.892, 365.718 609.975 C 393.975 619.393, 422.058 613.248, 454.385 590.572 C 472.628 577.776, 503.763 551.326, 523.608 531.764 L 534.717 520.815 533.362 530.602 C 529.210 560.602, 521.621 575.586, 494.417 607.500 C 467.869 638.644, 461.169 651.144, 462.222 667.563 C 463.258 683.694, 474.323 693.846, 494.226 696.924 C 497.677 697.458, 507.700 698.379, 516.500 698.971 C 533.994 700.147, 544.724 701.481, 549.745 703.103 C 552.627 704.034, 552.866 704.383, 551.882 706.220 C 550.086 709.576, 543.088 716.758, 536.524 721.981 C 526.959 729.592, 511.032 739.313, 477.949 757.731 C 427.479 785.830, 414.321 794.562, 398.374 810.534 C 389.662 819.260, 387.602 821.990, 383.619 830.088 C 374.678 848.270, 375.703 866.226, 386.522 880.922 C 407.997 910.094, 471.529 919.082, 588 909.425 C 621.861 906.618, 673.790 900.380, 675.390 898.927 C 676.094 898.289, 670.492 857.291, 669.559 856.251 C 669.436 856.114, 664.873 856.658, 659.418 857.459 C 631.725 861.525, 589.760 865.735, 554.517 867.981 C 533.737 869.306, 484.684 869.284, 470 867.943 C 447.279 865.869, 423.209 859.313, 421.446 854.719 C 419.207 848.886, 434.815 833.909, 458.280 819.372 C 463.351 816.230, 482.301 805.394, 500.390 795.290 C 554.035 765.329, 571.567 752.916, 584.650 735.631 C 600.984 714.050, 600.481 689.148, 583.383 672.978 C 571.842 662.062, 559.818 658.680, 520.259 655.221 L 512.019 654.500 520.759 644.115 C 525.567 638.404, 532.783 629.854, 536.795 625.115 C 545.635 614.674, 556.841 598.251, 561.678 588.647 C 573.697 564.780, 580.789 525.189, 578.214 496.337 C 577.583 489.276, 576.359 480.084, 575.494 475.910 L 573.920 468.319 584.963 450.737 C 608.574 413.148, 638.054 357.509, 652.909 322.500 L 658.849 308.500 662.966 307.795 C 669.689 306.644, 716.683 305, 742.500 305.013 C 777.590 305.030, 874.241 308.073, 885.103 309.503 L 888.707 309.977 889.328 301.738 C 889.669 297.207, 890.251 287.365, 890.621 279.867 L 891.293 266.234 883.396 265.604 C 848.944 262.854, 745.993 260.666, 707 261.854 C 690.225 262.365, 676.369 262.664, 676.209 262.517 C 676.048 262.370, 677.464 257.132, 679.356 250.875 C 688.818 219.569, 692.344 198.845, 692.349 174.500 C 692.353 155.187, 691.318 148.205, 686.592 135.647 C 683.184 126.594, 679.631 120.796, 673.305 113.962 C 662.894 102.718, 652.108 97.968, 637.161 98.045 C 630.980 98.077, 626.496 98.739, 621.500 100.358 M 301.980 109.750 C 285.465 144.861, 275 180.489, 275 201.604 C 275 223.008, 282.443 248.575, 294.836 269.738 L 299.075 276.977 317.037 264.975 C 326.917 258.374, 335 252.747, 335 252.471 C 335 252.195, 333.671 249.614, 332.046 246.735 C 323.962 232.409, 319.017 215.443, 319.008 202 C 318.998 186.344, 326.931 160.409, 341.431 128.695 C 343.394 124.402, 345 120.691, 345 120.450 C 345 120.009, 307.428 101, 306.558 101 C 306.304 101, 304.244 104.938, 301.980 109.750 M 464.500 440.910 C 451.638 444.150, 438.759 450.650, 425.389 460.649 C 392.795 485.027, 365.168 526.892, 364.690 552.631 C 364.537 560.897, 365.209 562.059, 372.203 565.603 C 394.153 576.726, 412.219 570.275, 452 537.108 C 486.168 508.620, 499.721 495.250, 515.733 474.231 C 525.602 461.275, 525.580 461.721, 516.780 452.891 C 505.119 441.191, 483.266 436.184, 464.500 440.910 " stroke="none" fill="black" fill-rule="evenodd"/>
</svg>