<svg xmlns="http://www.w3.org/2000/svg" width="1000" height="1000" viewBox="0 0 1000 1000" version="1.1">
	<path d="M 460.066 116.022 C 457.671 127.585, 455.889 137.178, 456.106 137.342 C 456.323 137.505, 459.425 138.420, 463 139.376 C 471.290 141.592, 490.165 149.086, 500.500 154.263 C 534.604 171.348, 563.670 196.654, 583.609 226.621 C 586.676 231.230, 589.442 235, 589.758 235 C 590.073 235, 598.568 230.221, 608.637 224.381 C 625.880 214.378, 626.877 213.637, 625.815 211.631 C 623.442 207.148, 612.973 192.097, 606.995 184.575 C 581.895 152.988, 544.873 125.262, 504.973 108.169 C 492.927 103.008, 469.381 95, 466.253 95 C 464.673 95, 463.822 97.894, 460.066 116.022 M 534 293.635 C 488.855 303.381, 411.618 318.845, 400 320.464 C 362.386 325.706, 312.462 322.121, 259.500 310.373 C 250.700 308.421, 243.080 306.751, 242.567 306.662 C 241.538 306.483, 229.882 344.637, 230.264 346.935 C 230.536 348.575, 234.097 349.595, 256.500 354.452 C 311.739 366.427, 366.363 369.648, 408.843 363.434 C 414.704 362.576, 437.818 358.153, 460.207 353.603 C 482.595 349.054, 500.612 345.819, 500.244 346.416 C 499.876 347.012, 485.355 365.275, 467.976 387 C 368.955 510.780, 321.314 574.148, 289.417 624.500 C 265.426 662.373, 171.036 802.932, 133.848 856.163 L 131.988 858.826 149.456 870.913 C 159.063 877.561, 167.279 882.983, 167.712 882.962 C 168.145 882.941, 169.650 881.254, 171.055 879.212 C 221.355 806.136, 303.570 683.991, 321.412 655.831 C 330.818 640.986, 359.803 612.736, 385.500 593.367 C 422.708 565.322, 467.491 541.558, 512.500 525.975 C 522.997 522.340, 543.570 516.002, 544.880 515.998 C 545.221 515.997, 545.357 522.410, 545.182 530.248 C 544.748 549.677, 547.260 561.838, 554.631 576 C 562.276 590.688, 580.204 609.664, 599 622.962 C 618.390 636.680, 625.656 645.974, 630.188 662.856 C 633.197 674.064, 633.817 701.658, 631.519 722.151 C 630.573 730.593, 629.621 737.791, 629.405 738.146 C 629.188 738.502, 624.845 737.717, 619.755 736.403 C 598.460 730.904, 569.820 725.547, 544.500 722.327 C 526.698 720.062, 473.291 719.749, 460 721.832 C 419.351 728.200, 392.987 739.319, 373.838 758.172 C 347.039 784.555, 342.546 822.671, 361.985 858.711 C 370.070 873.699, 378.940 882.949, 393.786 891.872 C 409.806 901.500, 429.341 906.001, 455 905.978 C 478.483 905.956, 498.765 902.556, 524.123 894.391 C 567.710 880.356, 602.309 859.874, 631.066 831.082 C 643.295 818.839, 648.325 812.461, 658.567 796.208 C 658.669 796.047, 665.220 798.872, 673.126 802.487 C 715.890 822.040, 776.379 859.003, 823.209 894.200 C 829.649 899.040, 835.129 903, 835.387 903 C 836.032 903, 862 870.191, 862 869.376 C 862 868.546, 861.937 868.497, 841 853.148 C 789.213 815.183, 730.519 780.098, 684.412 759.545 L 671.323 753.711 672.618 745.606 C 678.410 709.358, 678.378 675.573, 672.530 652.519 C 665.712 625.642, 654.208 609.434, 628.500 590.484 C 612.490 578.683, 606.873 573.765, 600.437 565.911 C 590.096 553.293, 586.858 541.557, 588.861 523.944 C 589.492 518.393, 590.496 511.918, 591.090 509.556 L 592.172 505.261 607.836 503.141 C 616.451 501.976, 628.900 500.476, 635.500 499.809 C 652.047 498.136, 713.671 498.149, 732 499.829 C 746.749 501.181, 778.615 505.232, 787.263 506.853 C 791.663 507.679, 792.062 507.585, 792.507 505.623 C 793.165 502.727, 798.814 470.109, 799.194 467.013 C 799.492 464.593, 799.217 464.480, 789 462.811 C 767.854 459.357, 733.905 455.977, 708.692 454.815 C 680.955 453.536, 645.614 454.605, 620.037 457.497 C 613.182 458.272, 607.452 458.785, 607.304 458.638 C 606.726 458.059, 614.217 443.514, 618.518 436.866 C 626.684 424.243, 638.238 415, 645.852 415 C 648.753 415, 648.817 414.869, 655.886 394.414 C 659.799 383.091, 663 373.679, 663 373.497 C 663 372.674, 652.346 371.002, 647.201 371.017 C 618.211 371.106, 590.289 393.195, 571.895 430.594 C 569.165 436.146, 564.737 446.721, 562.056 454.094 L 557.182 467.500 546.341 470.255 C 505.668 480.589, 471.403 493.299, 434.659 511.680 C 426.496 515.763, 420.168 518.518, 420.596 517.802 C 423.506 512.929, 511.203 402.504, 555.345 348.129 C 568.905 331.425, 580 317.364, 580 316.882 C 580 315.855, 560.565 289.431, 559.335 288.785 C 558.876 288.544, 547.475 290.727, 534 293.635 M 479.310 763.992 C 435.229 767.171, 403.645 781.499, 395.994 801.788 C 391.018 814.983, 395.968 835.416, 407.055 847.443 C 428.281 870.471, 487.734 866.842, 544.500 839.054 C 571.977 825.604, 595.663 807.986, 609.041 791.049 C 612.594 786.551, 615.635 782.282, 615.799 781.562 C 615.964 780.841, 615.064 780.033, 613.799 779.766 C 612.535 779.498, 604.241 777.637, 595.370 775.630 C 553.179 766.084, 510.143 761.768, 479.310 763.992 " stroke="none" fill="black" fill-rule="evenodd"/>
</svg>