<svg xmlns="http://www.w3.org/2000/svg" width="1000" height="1000" viewBox="0 0 1000 1000" version="1.1">
	<path d="M 334.656 83.250 C 332.763 86.688, 328.204 95.060, 324.526 101.856 L 317.838 114.212 323.296 119.076 C 345.455 138.826, 342.114 164.253, 312.500 201.228 C 277.984 244.324, 243.772 282.687, 226.509 297.654 L 219.518 303.714 226.318 324.948 C 230.059 336.627, 233.519 347.234, 234.008 348.520 L 234.896 350.858 250.698 343.530 C 276.334 331.643, 297.847 324.258, 321 319.399 C 329.483 317.618, 354.074 316.749, 355.510 318.180 C 357.502 320.163, 341.270 343.635, 324.194 363.463 C 311.448 378.263, 260.328 429.099, 238.656 448.525 C 219.977 465.268, 219.816 465.448, 220.331 468.958 C 220.617 470.906, 221.860 481.163, 223.094 491.750 C 224.579 504.490, 225.733 511, 226.506 511 C 230.019 511, 295.097 487.771, 324.500 476.022 C 359.320 462.109, 396.432 445.085, 416.042 434.031 C 428.419 427.053, 442 418.054, 442 416.830 C 442 415.718, 417.211 383, 416.368 383 C 416.070 383, 411.477 385.729, 406.163 389.065 C 390.621 398.820, 361.041 413.419, 332.090 425.622 L 321.681 430.010 331.590 419.750 C 382.153 367.402, 404.030 333.002, 401.629 309.621 C 400.803 301.570, 396.152 292.142, 390.708 287.482 C 374.963 274.003, 345.078 269.778, 313.011 276.496 C 309.442 277.244, 306.430 277.763, 306.316 277.649 C 306.202 277.536, 310.848 271.831, 316.640 264.971 C 354.820 219.755, 366.391 203.402, 374.286 183.500 C 382.252 163.419, 383.427 141.266, 377.470 123.500 C 374.672 115.157, 368.255 103.698, 362.415 96.618 C 356.918 89.954, 341.672 77, 339.326 77 C 338.650 77, 336.549 79.813, 334.656 83.250 M 667 85.502 C 637.257 92.196, 593.409 115.823, 546.541 150.412 L 533.996 159.670 540.623 168.085 C 544.267 172.713, 550.344 180.427, 554.128 185.226 L 561.007 193.952 572.754 185.364 C 598.325 166.669, 623.838 150.681, 644.500 140.404 C 664.173 130.619, 683 125.237, 683 129.398 C 683 130.167, 680.994 134.780, 678.542 139.648 C 668.949 158.694, 642.044 188.416, 609.500 215.922 C 600.150 223.824, 592.376 230.596, 592.225 230.969 C 591.883 231.814, 629.552 257, 631.158 257 C 631.800 257, 637.949 255.170, 644.823 252.934 C 677.338 242.355, 714.211 236.312, 730.242 238.933 C 739.768 240.491, 741.680 241.595, 743.611 246.651 C 750.825 265.541, 730.728 292.711, 689 320.479 C 645.963 349.119, 578.390 379.426, 497.500 406.370 C 488.150 409.484, 479.939 412.388, 479.253 412.823 C 477.525 413.919, 490.410 454, 492.490 454 C 494.272 454, 536.932 439.251, 559 431.006 C 641.323 400.247, 703.443 367.909, 741.157 336.182 C 784.484 299.732, 798.853 260.730, 781.966 225.411 C 775.406 211.690, 763.190 202.045, 746.500 197.411 C 739.151 195.370, 709.802 194.358, 699.500 195.789 C 695.650 196.324, 692.408 196.686, 692.295 196.593 C 692.182 196.500, 694.599 193.291, 697.664 189.462 C 718.031 164.024, 727.967 141.651, 726.724 124.027 C 725.490 106.529, 715.719 92.879, 700.145 86.897 C 692.806 84.077, 676.396 83.387, 667 85.502 M 576 465.875 C 565.649 469.201, 558.353 475.370, 553.635 484.787 C 550.267 491.508, 549.147 495.414, 547.687 505.526 L 546.399 514.445 538.950 516.733 C 524.473 521.177, 491.198 529.158, 467 533.990 C 402.103 546.948, 335.493 554.671, 260 557.990 C 233.535 559.154, 148.048 559.207, 126.500 558.073 C 118.250 557.638, 111.331 557.426, 111.125 557.600 C 110.570 558.069, 107.711 600.044, 108.201 600.534 C 109.261 601.594, 156.196 602.981, 191 602.981 C 242.713 602.981, 293.905 600.791, 338.250 596.682 C 353.949 595.228, 353.147 594.740, 350.401 604.068 C 348.254 611.363, 341.031 625.139, 335.508 632.475 C 327.444 643.183, 311.174 660.594, 298.888 671.662 C 278.766 689.790, 267.051 697.999, 240.729 712.414 C 236.282 714.849, 234.209 716.530, 234.691 717.311 C 235.698 718.942, 265.065 757, 265.317 757 C 265.428 757, 277.439 751.011, 292.009 743.690 C 336.841 721.165, 368.173 709.366, 390.853 706.468 L 396.206 705.784 395.527 709.142 C 393.587 718.734, 382.601 736.766, 368.157 754.064 C 345.520 781.175, 303.784 819.822, 266.174 848.500 C 258.961 854, 253.046 858.862, 253.029 859.304 C 253.013 859.746, 259.119 869.075, 266.599 880.036 C 279.380 898.766, 280.327 899.896, 282.349 898.815 C 286.261 896.725, 354.988 854.583, 384.487 836.186 L 413.474 818.109 416.487 820.547 C 441.927 841.133, 480.674 867.750, 520.473 891.981 C 543.532 906.020, 576.244 924.155, 577.024 923.331 C 577.456 922.874, 580.623 914.625, 584.062 905 L 590.314 887.500 591.077 866.500 C 592.615 824.143, 593.291 677.524, 592.134 637 C 591.514 615.275, 590.711 586.016, 590.350 571.980 L 589.693 546.459 599.597 542.610 C 609.271 538.850, 634.609 526.706, 636.401 524.970 C 636.936 524.452, 636.819 519.298, 636.113 512.299 C 635.007 501.330, 634.627 499.973, 630.712 493.009 C 625.396 483.554, 614.483 472.459, 606.885 468.785 C 596.364 463.699, 585.854 462.708, 576 465.875 M 522.500 566.260 C 493.898 573.534, 458.719 580.586, 423.379 586.130 L 396.258 590.384 395.714 598.442 C 394.560 615.523, 384.299 640.231, 371.058 657.810 C 366.973 663.233, 364.766 666.908, 365.772 666.610 C 377.739 663.076, 400.461 661.949, 409.770 664.427 C 421.950 667.669, 431.703 676.244, 435.865 687.370 C 443.343 707.355, 439.088 727.616, 421.588 755.358 C 418.515 760.230, 416 764.367, 416 764.551 C 416 765.070, 444.557 746.683, 475.500 726.241 C 505.930 706.138, 525.724 692.374, 539 682.087 C 543.675 678.464, 547.837 675.613, 548.250 675.750 C 548.663 675.888, 548.988 670.937, 548.974 664.750 C 548.939 649.880, 546.251 560.883, 545.829 560.618 C 545.648 560.504, 535.150 563.043, 522.500 566.260 M 709 631.839 C 709 632.301, 707.875 640.739, 706.501 650.589 C 703.066 675.205, 702.828 673.425, 709.750 674.943 C 721.025 677.415, 737.690 683.296, 749.934 689.122 C 781.092 703.948, 805.604 726.659, 819.851 753.902 C 827.664 768.844, 835.951 796.468, 836.015 807.785 C 836.048 813.541, 835.832 813.506, 859.025 811.498 L 880.225 809.662 879.542 802.581 C 878.519 791.985, 874.269 772.840, 870.312 761 C 848.786 696.595, 793.939 649.936, 718.807 632.113 C 713.235 630.791, 709 630.673, 709 631.839 M 543 733.302 C 537.289 737.651, 474.102 779.807, 460.424 788.395 L 452.627 793.291 455.563 795.692 C 460.416 799.659, 487.765 819.154, 499 826.654 C 514.478 836.987, 547.088 857.245, 547.531 856.803 C 547.741 856.592, 548.166 831.913, 548.474 801.960 C 548.782 772.007, 549.260 743.337, 549.537 738.250 C 549.814 733.163, 549.694 729.026, 549.270 729.057 C 548.847 729.089, 546.025 730.999, 543 733.302 " stroke="none" fill="black" fill-rule="evenodd"/>
</svg>