<svg xmlns="http://www.w3.org/2000/svg" width="1000" height="1000" viewBox="0 0 1000 1000" version="1.1">
	<path d="M 272.170 84.280 L 255.840 85.240 256.454 93.370 C 257.160 102.735, 269.718 312.383, 270.668 330.674 L 271.301 342.847 267.400 344.524 C 241.240 355.765, 200.590 366.823, 174 369.931 C 168.775 370.542, 162.588 371.285, 160.250 371.582 L 156 372.123 156 393.561 L 156 415 161.280 415 C 181.736 415, 222.578 406.510, 256.853 395.133 C 267.115 391.727, 274.321 389.808, 274.486 390.437 C 274.705 391.266, 279.112 457.810, 282.637 513.500 L 283.080 520.500 273.858 528.500 C 268.785 532.900, 257.686 542.994, 249.192 550.932 C 240.699 558.869, 234.027 564.490, 234.366 563.423 C 236.717 556.014, 239.148 541.790, 239.668 532.394 C 240.719 513.416, 237.072 492.101, 227.924 463.761 C 225.129 455.104, 222.529 447.827, 222.145 447.589 C 221.498 447.190, 183.435 462.232, 182.352 463.315 C 182.085 463.581, 183.447 468.457, 185.377 474.150 C 193.198 497.208, 196.518 515.218, 195.714 530.220 C 194.070 560.860, 170.477 616.912, 142.870 655.761 C 139.642 660.305, 137 664.419, 137 664.903 C 137 665.633, 161.060 688.797, 170.106 696.778 L 172.689 699.056 183.811 685.061 C 203.424 660.381, 222.633 639.259, 254.800 607 C 285.009 576.706, 286.249 575.596, 287.216 578 C 288.601 581.446, 287.492 640.519, 285.508 669 C 282.482 712.443, 277.442 760.372, 271.211 804.971 L 268.490 824.442 264.053 816.971 C 253.193 798.685, 211.353 738.350, 209.829 738.776 C 209.287 738.928, 201.221 744.472, 191.906 751.096 C 181.061 758.807, 175.218 763.564, 175.662 764.320 C 176.044 764.969, 180.188 770.900, 184.870 777.500 C 214.333 819.024, 234.177 850.903, 252.247 885.738 C 256.595 894.119, 260.455 901.143, 260.826 901.348 C 261.313 901.618, 299.755 899.395, 300.618 899.048 C 300.683 899.021, 300.981 897.312, 301.279 895.250 C 301.578 893.188, 302.959 884.975, 304.348 877 C 315.912 810.633, 325.689 728.385, 329.431 666 C 332.370 616.993, 332.359 584.198, 329.394 546.500 L 328.764 538.500 344.632 525.899 C 429.649 458.385, 509.639 414.746, 590.011 392.032 C 617.902 384.149, 635.920 381.121, 659.500 380.355 C 720.148 378.384, 753.231 403.634, 764.670 460.626 C 766.042 467.459, 766.457 474.445, 766.476 491 C 766.500 512.058, 766.442 512.665, 763.679 520.500 C 751.325 555.540, 715.502 593.885, 672.250 618.369 C 664.775 622.601, 646.837 631, 645.275 631 C 644.926 631, 646.634 629.330, 649.070 627.289 C 676.706 604.142, 694.573 578.876, 701.605 553 C 703.821 544.847, 704.108 524.941, 702.124 517 C 700.390 510.059, 695.165 498.554, 690.994 492.491 C 680.363 477.040, 662.001 465.200, 640.274 459.789 C 628.396 456.830, 603.671 456.627, 591 459.384 C 535.431 471.474, 489.062 516.486, 479.430 567.688 C 477.200 579.540, 477.907 600.517, 480.868 610.380 C 486.346 628.628, 497.307 644.656, 512.854 657.152 L 517.207 660.652 503.354 668.216 C 458.876 692.501, 397.680 720.187, 367.762 729.560 C 360.785 731.746, 361.297 729.538, 360.463 761.034 L 359.839 784.569 381.873 786.332 C 469.123 793.316, 560.654 806.905, 613 820.646 C 652.040 830.895, 733.326 861.398, 815.489 896.633 C 832.533 903.942, 846.817 909.583, 847.233 909.167 C 847.902 908.498, 861.849 877.929, 864.044 872.320 C 864.854 870.251, 863.270 869.446, 833.199 856.633 C 736.671 815.507, 663.840 788.421, 619.500 777.161 C 579.834 767.088, 526.440 757.948, 464.095 750.559 C 452.321 749.164, 442.538 747.872, 442.354 747.687 C 442.169 747.503, 446.402 745.391, 451.759 742.994 C 478.586 730.990, 532.655 702.760, 558.367 687.333 L 567.485 681.862 575.993 683.125 C 594.026 685.801, 617.290 684.252, 638.500 678.963 C 692.344 665.536, 752.409 622.544, 784.845 574.214 C 796.396 557.004, 803.004 542.844, 807.773 525.085 C 810.166 516.172, 810.351 513.921, 810.405 493 C 810.468 468.672, 809.174 456.774, 804.517 438.858 C 792.144 391.250, 762.769 358.603, 719.173 344.007 C 702.507 338.427, 689.008 336.583, 665 336.607 C 635.503 336.636, 614.814 339.774, 579.100 349.634 C 502.491 370.785, 422.308 412.313, 342.781 472.026 C 328.324 482.881, 325.388 484.716, 324.813 483.251 C 324.130 481.512, 316.691 368.976, 317.223 368.443 C 317.376 368.290, 325.097 363.393, 334.380 357.560 C 383.608 326.631, 453.942 270.340, 514.749 213.204 L 527.998 200.755 513.771 185.758 C 505.946 177.511, 498.992 170.551, 498.318 170.292 C 497.644 170.033, 489.984 176.466, 481.296 184.586 C 432.087 230.581, 371.489 280.023, 328.352 309.375 L 314.203 319.002 313.580 312.251 C 313.237 308.538, 310.498 263.875, 307.492 213 C 304.487 162.125, 301.572 113.300, 301.016 104.500 C 300.459 95.700, 300.003 87.263, 300.002 85.750 C 300 83.050, 299.895 83.003, 294.250 83.160 C 291.087 83.249, 281.152 83.753, 272.170 84.280 M 598.516 502.659 C 566.471 509.525, 535.500 535.858, 525.437 564.794 C 515.534 593.269, 524.592 615.959, 551.301 629.581 L 560.913 634.483 564.206 632.590 C 573.031 627.517, 611.448 601.436, 618.513 595.721 C 630.007 586.422, 644.914 570.514, 650.439 561.651 C 657.346 550.568, 660.298 541.403, 659.808 532.562 C 659.574 528.349, 658.635 523.886, 657.479 521.500 C 653.263 512.796, 643.360 505.822, 630.540 502.530 C 623.050 500.607, 607.808 500.669, 598.516 502.659 " stroke="none" fill="black" fill-rule="evenodd"/>
</svg>