<svg xmlns="http://www.w3.org/2000/svg" width="1000" height="1000" viewBox="0 0 1000 1000" version="1.1">
	<path d="M 661 111.207 C 616.565 128.144, 541.925 151.084, 493 162.842 C 438.330 175.980, 401.718 181.385, 367 181.443 C 346.883 181.476, 343.560 181.242, 335.625 179.229 C 308.383 172.320, 280.776 152.708, 261.241 126.389 L 256.705 120.277 239.103 131.257 C 229.421 137.296, 221.087 142.619, 220.582 143.087 C 219.140 144.421, 233.273 162.252, 245.500 174.527 C 272.117 201.246, 302.006 217.723, 334.500 223.590 C 347.852 226.001, 382.303 226.019, 403.500 223.626 C 459.141 217.346, 539.754 198.332, 612 174.448 L 616.500 172.960 609.579 179.230 C 596.399 191.169, 570.438 213.131, 556.313 224.291 C 548.510 230.456, 542.097 235.880, 542.063 236.344 C 542.028 236.808, 547.894 244.776, 555.097 254.050 L 568.194 270.911 583.033 258.974 C 626.808 223.758, 666.226 187.763, 692.231 159.258 L 705.916 144.258 689.960 125.879 C 681.184 115.771, 673.440 107.434, 672.752 107.353 C 672.063 107.272, 666.775 109.006, 661 111.207 M 448.999 261.634 C 448.999 262.110, 448.082 270.600, 446.962 280.500 C 442.673 318.412, 434.331 363.007, 423.955 403.500 C 414.659 439.775, 414.923 438.973, 412.028 439.766 C 410.638 440.146, 391.500 440.467, 369.500 440.479 C 327.297 440.501, 314.961 439.632, 290 434.876 C 252.190 427.672, 215.541 411.088, 209.555 398.475 C 208.060 395.325, 207.954 394.097, 208.902 390.932 C 212.534 378.810, 234.859 359.343, 262.250 344.412 C 267.063 341.788, 271 339.322, 271 338.930 C 271 338.539, 267.803 331.532, 263.894 323.359 C 259.986 315.187, 255.935 306.548, 254.892 304.162 L 252.996 299.824 243.248 305.013 C 213.867 320.654, 188.614 341.276, 176.419 359.586 C 168.621 371.294, 165.843 379.246, 165.244 391.571 C 164.695 402.848, 166.047 409.255, 171.019 418.948 C 186.837 449.783, 239.443 473.596, 310.754 482.202 C 325.648 483.999, 334.248 484.356, 364.261 484.422 C 395.629 484.490, 399.947 484.684, 399.418 486 C 399.087 486.825, 397.103 492.246, 395.011 498.046 C 371.322 563.703, 335.129 633.787, 298.206 685.500 C 274.616 718.539, 257.331 738.870, 227.594 768.552 C 197.901 798.191, 169.900 821.461, 142.224 839.500 C 135.988 843.565, 133.189 845.962, 133.548 846.933 C 134.814 850.357, 155.607 881.938, 156.615 881.967 C 157.885 882.005, 180.269 866.682, 193 857.060 C 241.591 820.336, 286.384 774.919, 323.738 724.500 C 347.238 692.780, 361.249 677.384, 378 664.875 C 410.754 640.417, 448.507 628.514, 487.509 630.350 C 547.653 633.180, 611.314 664.371, 682.476 725.878 C 696.704 738.175, 730.789 771.821, 747.435 790 C 770.393 815.073, 791.709 840.490, 814.947 870.500 C 820.057 877.100, 824.697 882.367, 825.257 882.204 C 825.818 882.041, 833.647 876.278, 842.655 869.396 C 854.363 860.453, 858.816 856.498, 858.267 855.531 C 856.373 852.190, 830.538 819.496, 816.636 802.848 C 725.854 694.132, 640.919 627.223, 559.220 600.063 C 530.780 590.609, 508.107 586.789, 480 586.716 C 452.597 586.644, 429.614 590.801, 404.750 600.325 C 401.037 601.747, 398 602.774, 398 602.607 C 398 602.440, 400.917 596.194, 404.481 588.728 C 417.626 561.196, 436.034 515.315, 444.593 488.750 C 446.144 483.938, 447.963 480, 448.637 480 C 449.310 480, 456.980 479.083, 465.681 477.963 C 534.285 469.127, 618.601 449.866, 704 423.520 C 726.366 416.620, 777.794 399.539, 778.585 398.748 C 779.044 398.289, 765.583 359.249, 764.641 358.308 C 764.361 358.028, 750.490 362.317, 733.816 367.840 C 692.782 381.429, 685.920 383.564, 653.196 392.920 C 591.998 410.416, 534.245 423.410, 481.931 431.453 C 464.199 434.179, 460.585 434.480, 461.397 433.167 C 462.738 430.997, 473.553 385.448, 477.982 363.316 C 485.088 327.808, 491.995 280.971, 491.999 268.269 C 492 263.167, 492.499 263.330, 474.500 262.535 C 467.350 262.220, 458.688 261.693, 455.250 261.364 C 451.813 261.036, 449 261.157, 448.999 261.634 " stroke="none" fill="black" fill-rule="evenodd"/>
</svg>