<svg xmlns="http://www.w3.org/2000/svg" width="1000" height="1000" viewBox="0 0 1000 1000" version="1.1">
	<path d="M 375.273 117.750 C 372.466 129.162, 370.276 138.607, 370.407 138.739 C 370.537 138.870, 377.137 140.809, 385.072 143.048 C 452.948 162.198, 510.242 189.199, 536.968 214.632 L 545.919 223.151 562.417 210.548 C 571.491 203.617, 579.182 197.514, 579.508 196.987 C 580.408 195.531, 560.676 176.271, 550.612 168.782 C 524.664 149.472, 482.791 129.184, 435.500 113.011 C 420.122 107.751, 383.971 97, 381.665 97 C 380.821 97, 378.621 104.140, 375.273 117.750 M 656 310.147 C 557.909 341.385, 463.946 360.741, 379.500 367.103 C 359.181 368.634, 310.618 368.635, 293 367.104 C 253.462 363.670, 218.684 355.790, 198.048 345.592 C 193.985 343.583, 190.339 342.291, 189.947 342.720 C 189.554 343.149, 183.976 350.861, 177.551 359.858 C 170.652 369.519, 166.096 376.808, 166.424 377.662 C 167.174 379.616, 187.128 389.046, 199.643 393.361 C 221.534 400.909, 251.213 406.905, 283 410.203 C 299.875 411.954, 372.615 411.952, 391.500 410.200 C 441.628 405.550, 484.692 398.959, 530.847 388.870 C 540.937 386.664, 549.372 385.039, 549.591 385.258 C 549.810 385.477, 544.487 389.671, 537.762 394.578 C 507.176 416.897, 473.914 445.159, 449.599 469.491 C 434.827 484.272, 430.073 489.613, 393.512 532.500 C 348.460 585.346, 321.736 614.444, 279.586 656.547 C 238.920 697.167, 213.624 719.743, 181.906 743.727 C 158.262 761.605, 135.890 776.031, 117.671 785.145 C 113.177 787.393, 109.344 789.374, 109.153 789.547 C 108.855 789.817, 126.665 827.946, 127.495 828.814 C 127.952 829.292, 141.244 822.468, 153 815.719 C 208.355 783.942, 271.384 730.350, 344.854 652.590 C 362.567 633.842, 367.408 629.280, 371.500 627.482 C 388.761 619.897, 407.098 621.100, 419.315 630.618 C 428.168 637.515, 438.106 653.669, 441.698 667 C 444.465 677.269, 443.947 699.752, 440.154 734 C 433.601 793.170, 431.783 827.095, 433.921 850.302 C 434.987 861.871, 440.160 893.494, 441.149 894.482 C 441.786 895.120, 491.076 884.334, 491.938 883.368 C 492.365 882.891, 494.159 877.163, 495.927 870.640 C 508.445 824.437, 533.086 769.857, 558.069 733 C 587.717 689.259, 618.962 663.361, 655.500 652.241 C 665.262 649.270, 684.971 648.119, 695.607 649.898 C 737.840 656.963, 793.850 696.408, 843.500 754.051 C 848.450 759.798, 853.681 766.019, 855.124 767.876 L 857.748 771.252 874.817 758.376 C 884.205 751.294, 891.911 745.108, 891.943 744.629 C 892.033 743.262, 874.470 722.682, 860.172 707.400 C 809.816 653.579, 756.442 618.446, 708.915 607.839 C 695.163 604.769, 668.145 604.498, 655.157 607.299 C 620.125 614.854, 589.760 632.228, 560.460 661.481 C 530.740 691.153, 505.320 729.560, 483.342 778 C 480.408 784.468, 479.027 786.664, 479.016 784.879 C 479.001 782.403, 482.065 752.070, 485.570 720 C 487.739 700.154, 487.777 674.925, 485.656 663.929 C 481.108 640.353, 469.229 618.175, 452.595 602.207 C 441.156 591.224, 429.451 584.580, 415.204 580.983 L 410.907 579.898 412.704 577.536 C 416.739 572.231, 460.028 521.796, 468.442 512.598 C 512.040 464.935, 600.927 398.372, 674.119 358.576 L 684.738 352.802 678.708 328.901 C 675.392 315.755, 672.413 305.048, 672.089 305.106 C 671.765 305.164, 664.525 307.432, 656 310.147 " stroke="none" fill="black" fill-rule="evenodd"/>
</svg>