<svg xmlns="http://www.w3.org/2000/svg" width="1000" height="1000" viewBox="0 0 1000 1000" version="1.1">
	<path d="M 463.500 95.460 C 453.050 98.338, 444.571 101.099, 444.657 101.596 C 444.743 102.093, 447.296 113.300, 450.329 126.500 C 460.477 170.658, 467.303 205.033, 474.458 248 C 480.542 284.541, 481.354 289.979, 480.805 290.529 C 479.913 291.420, 425.611 303.988, 405.500 307.958 C 357.216 317.489, 324.975 319.939, 292.800 316.525 C 263.967 313.465, 239.886 307.099, 213.821 295.649 L 210.143 294.033 208.196 297.266 C 203.998 304.238, 189 331.036, 189 331.566 C 189 332.949, 209.461 341.608, 224.248 346.483 C 241.375 352.128, 262.187 356.784, 283 359.625 C 300.592 362.027, 340.331 362.054, 360 359.678 C 391.739 355.843, 438.515 346.625, 479.466 336.134 L 487.012 334.201 487.499 336.351 C 488.609 341.252, 494.084 395.391, 495.959 420 C 498.840 457.811, 499.873 477.721, 500.640 510.167 L 501.313 538.680 493.506 539.340 C 481.415 540.362, 439.037 540.119, 428.211 538.965 C 393.724 535.291, 370.364 525.526, 358.134 509.673 C 354.886 505.464, 354 503.466, 354 500.353 C 354 495.443, 358.044 488.688, 365.618 480.945 L 371.052 475.390 358.776 458.241 C 352.024 448.810, 346.111 441.072, 345.636 441.046 C 343.799 440.948, 332.329 451.874, 326.265 459.500 C 305.845 485.179, 304.531 511.694, 322.525 535 C 338.696 555.946, 363.371 570.626, 394.500 577.821 C 415.680 582.716, 425.263 583.490, 464.743 583.495 L 501.986 583.500 501.503 599 C 501.238 607.525, 500.790 628.900, 500.508 646.500 C 499.821 689.391, 497.893 729.655, 494.451 773 C 492.751 794.408, 488.216 837.996, 487.196 842.728 L 486.500 845.956 475 837.848 C 456.665 824.920, 438.571 813.275, 425.563 806.030 C 410.983 797.909, 370.359 776.926, 363.746 774.099 L 358.991 772.067 355.354 779.284 C 353.353 783.253, 349.119 791.994, 345.943 798.708 L 340.170 810.917 368.335 825.339 C 416.512 850.009, 428.189 857.319, 475.304 892.306 L 494.109 906.270 496.804 903.808 C 498.287 902.453, 505.350 896.023, 512.500 889.519 C 519.650 883.014, 525.786 877.199, 526.137 876.596 C 527.572 874.125, 533.123 831.621, 535.949 801.460 C 540.989 747.661, 543.815 691.007, 544.682 626.330 L 545.315 579.160 550.908 578.588 C 588.556 574.736, 605.554 572.255, 623.500 567.995 C 657.879 559.834, 680.829 546.710, 694.688 527.289 C 712.672 502.086, 709.205 477.641, 683.122 445.750 C 680.085 442.038, 677.359 439, 677.062 439 C 676.766 439, 669.688 445.825, 661.334 454.166 L 646.145 469.331 651.672 476.395 C 657.965 484.437, 662 491.830, 662 495.317 C 662 496.627, 660.727 499.455, 659.172 501.600 C 648.924 515.730, 626.698 524.550, 586.500 530.438 C 574.803 532.151, 545.869 535.229, 545.523 534.797 C 545.392 534.634, 544.758 518.552, 544.114 499.060 C 542.383 446.652, 539.534 406.788, 533.924 356.500 C 532.267 341.650, 530.819 328.172, 530.706 326.548 L 530.500 323.597 546 319.828 C 589.753 309.188, 619.828 304.144, 644.516 303.303 C 663.957 302.642, 674.873 304.184, 683.352 308.792 C 689.516 312.142, 693.977 319.339, 693.991 325.957 C 693.999 330.114, 693.579 330.823, 687.750 336.491 C 678.441 345.542, 656.416 356.115, 638.649 360.063 C 635.431 360.778, 632.612 361.847, 632.386 362.437 C 631.957 363.555, 639.543 402.452, 640.488 403.981 C 640.785 404.461, 645.117 403.732, 650.116 402.362 C 705.211 387.265, 736.017 361.305, 737.765 328.500 C 738.355 317.438, 736.648 309.906, 730.852 298 C 727.551 291.218, 725.075 287.882, 718.607 281.496 C 713.917 276.865, 707.971 272.155, 704.500 270.321 C 673.334 253.856, 628.470 255.401, 541.533 275.933 C 532.220 278.133, 524.451 279.785, 524.270 279.604 C 524.089 279.423, 522.371 269.425, 520.452 257.387 C 512.913 210.096, 502.636 157.542, 492.901 116.500 C 490.161 104.950, 487.657 94.263, 487.335 92.750 C 486.908 90.742, 486.177 90.031, 484.625 90.114 C 483.456 90.176, 473.950 92.582, 463.500 95.460 M 673.383 660.459 C 660.455 662.467, 650.818 665.084, 651.341 666.446 C 651.595 667.107, 654.542 676.347, 657.891 686.980 C 661.239 697.613, 664.116 706.449, 664.283 706.616 C 664.449 706.783, 667.267 706.296, 670.543 705.534 C 692.839 700.347, 719.600 701.741, 736.425 708.964 C 752.724 715.962, 775.881 738.755, 798.025 769.596 C 805.080 779.421, 819.945 802.602, 825.500 812.439 L 827.500 815.980 846.500 805.852 C 856.950 800.282, 865.641 795.608, 865.813 795.466 C 866.343 795.029, 850.634 769.132, 842.624 757.238 C 820.720 724.712, 795.357 695.995, 775.534 681.274 C 762.093 671.292, 743.806 663.802, 725.074 660.608 C 713.692 658.666, 685.446 658.585, 673.383 660.459 M 322.289 680.107 C 279.810 720.912, 237.958 754.411, 214.940 766.030 C 205.861 770.613, 187.246 776.555, 173 779.417 C 162.237 781.579, 135.283 785, 129.009 785 C 127 785, 126.966 785.409, 127.230 806.750 L 127.500 828.500 135 828.187 C 169.628 826.740, 208.659 817.772, 233.500 805.554 C 261.225 791.919, 309.234 753.905, 354.800 709.510 L 366.100 698.500 350.645 683.107 L 335.190 667.714 322.289 680.107 " stroke="none" fill="black" fill-rule="evenodd"/>
</svg>