<svg xmlns="http://www.w3.org/2000/svg" width="1000" height="1000" viewBox="0 0 1000 1000" version="1.1">
	<path d="M 259.115 156.936 C 254.935 176.595, 251.921 194.316, 252.639 195.013 C 253.702 196.042, 295.809 203.041, 321.500 206.458 C 367.812 212.618, 402.907 215.233, 440 215.287 C 468.592 215.328, 476.683 214.806, 522.849 209.939 C 533.492 208.817, 542.620 208.040, 543.134 208.211 C 543.648 208.383, 521.891 231.710, 494.784 260.050 C 409.285 349.440, 343.805 418.248, 334.918 428.042 C 301.807 464.531, 258.861 523.452, 214.223 593.632 C 194.494 624.648, 164.861 674.084, 165.267 675.302 C 165.636 676.408, 201.909 697.454, 202.426 696.861 C 202.599 696.663, 207.824 687.950, 214.037 677.500 C 260.943 598.607, 312.061 523.414, 349.663 478 C 366.732 457.385, 365.571 458.438, 376 454.100 C 401.545 443.475, 423.163 442.174, 431.231 450.777 C 435.140 454.945, 438.954 463.364, 441.526 473.504 C 448.260 500.050, 447.729 536.579, 439.518 611.742 C 435.238 650.927, 434.335 662.562, 433.021 695.500 C 431.758 727.137, 430.034 824.507, 430.014 865.250 L 430 895 432.250 895.049 C 433.488 895.076, 445.910 896.340, 459.855 897.857 C 476.929 899.715, 485.306 900.270, 485.503 899.558 C 485.664 898.976, 486.769 890.175, 487.958 880 C 492.140 844.222, 502.738 794.963, 513.561 761 C 528.604 713.794, 548.827 674.895, 569.761 652.896 C 583.471 638.490, 595.809 630.763, 611.253 626.912 C 623.455 623.869, 649.239 623.151, 663.108 625.468 C 709.858 633.279, 753.595 666.053, 790.542 720.959 C 795.572 728.433, 802.046 738.925, 804.930 744.274 C 807.813 749.623, 810.471 754.007, 810.836 754.015 C 811.996 754.042, 850 736.550, 850 735.990 C 850 734.563, 835.786 710.080, 828.524 699 C 816.413 680.520, 804.209 665.322, 788.500 649.155 C 753.315 612.946, 717.753 592.109, 676.058 583.272 C 664.751 580.876, 661.359 580.606, 642 580.562 C 617.968 580.508, 607.402 581.885, 591.500 587.142 C 546.100 602.150, 509.882 646.020, 481.403 720.500 L 476.050 734.500 476.035 724 C 475.995 695.396, 478.379 658.723, 483.023 616.500 C 489.655 556.203, 491.457 519.877, 489.080 494.447 C 484.351 443.866, 468.424 415.598, 438.860 405.316 C 434.917 403.945, 429.286 402.575, 426.346 402.272 C 423.406 401.968, 421.002 401.446, 421.004 401.110 C 421.006 400.775, 428.543 392.620, 437.754 382.990 C 505.878 311.759, 606.939 206.046, 613.436 199.223 L 621.317 190.946 615.330 171.723 C 612.038 161.150, 608.912 152.581, 608.383 152.680 C 607.855 152.778, 599.565 154.449, 589.961 156.391 C 559.564 162.541, 487.195 170.582, 452.500 171.665 C 409.141 173.020, 335.671 165.981, 270.293 154.209 L 260.086 152.371 259.115 156.936 " stroke="none" fill="black" fill-rule="evenodd"/>
</svg>