<svg xmlns="http://www.w3.org/2000/svg" width="1000" height="1000" viewBox="0 0 1000 1000" version="1.1">
	<path d="M 502.500 94.347 C 482.665 98.466, 482.503 98.521, 482.831 101 C 483.013 102.375, 484.714 112.275, 486.612 123 C 492.571 156.682, 501.155 220.216, 499.908 221.407 C 499.684 221.621, 492.750 222.604, 484.500 223.591 C 474.355 224.805, 462.055 225.405, 446.500 225.443 C 425.412 225.495, 422.796 225.307, 415.031 223.173 C 392.795 217.062, 381.383 211.449, 371.720 201.869 L 364.940 195.147 344.720 198.560 C 333.599 200.438, 324.163 201.980, 323.750 201.987 C 321.960 202.018, 323.300 207.032, 327.216 214.963 C 330.532 221.677, 333.254 225.343, 339.966 232.130 C 353.104 245.417, 368.268 254.240, 390.453 261.508 C 411.052 268.255, 418.833 269.393, 444.500 269.411 C 460.021 269.422, 472.987 268.835, 484.374 267.605 C 498.515 266.078, 501.387 266.003, 502.108 267.141 C 503.934 270.023, 502.397 344.386, 499.672 384.958 L 498.500 402.416 495 403.138 C 493.075 403.535, 482.275 404.786, 471 405.917 C 396.871 413.356, 346.614 413.362, 276.500 405.941 C 219.472 399.905, 169.772 388.388, 145.296 375.537 L 139.093 372.280 125.085 388.890 L 111.077 405.500 113.789 407.776 C 118.148 411.435, 137.531 420.541, 150.198 424.880 C 190.142 438.564, 236.654 446.890, 305.500 452.681 C 335.283 455.186, 411.656 455.189, 441.500 452.686 C 507.133 447.182, 572.756 437.569, 647.500 422.511 C 664.550 419.076, 678.616 416.360, 678.758 416.475 C 678.901 416.590, 615.226 466.626, 537.258 527.667 C 459.291 588.708, 343.638 679.252, 280.250 728.876 C 216.862 778.500, 165 819.494, 165 819.974 C 165 821.281, 190.380 853.391, 191.359 853.322 C 191.825 853.289, 243.282 813.266, 305.710 764.381 C 368.137 715.497, 420.621 674.712, 422.342 673.750 C 427.149 671.060, 435.477 671.437, 441.895 674.635 C 463.620 685.461, 479.999 743.009, 486.967 833 C 488.646 854.687, 489.980 884.344, 489.990 900.231 C 490 914.693, 490.041 914.971, 492.250 915.450 C 499.721 917.070, 532.412 920.965, 532.965 920.301 C 533.331 919.860, 535.356 913.650, 537.464 906.500 C 550.475 862.373, 568.070 817.846, 581.750 794.427 C 590.358 779.691, 621.069 739.810, 643.834 713.807 L 654.946 701.114 648.723 695.206 C 637.928 684.958, 623.525 672, 622.927 672 C 621.431 672, 590.653 708.495, 574.435 729.500 C 552.238 758.249, 542.406 773.380, 533.066 793.161 L 528.349 803.154 526.601 788.827 C 522.148 752.307, 514.638 716.953, 506.777 695.500 C 497.593 670.436, 487.336 654.427, 473.185 643.070 L 467.051 638.147 625.206 514.324 C 712.191 446.221, 784 390.023, 784.781 389.440 C 785.954 388.564, 784.529 385.041, 776.551 369.102 C 768.613 353.243, 766.600 349.940, 765.201 350.480 C 762.053 351.695, 716.700 362.766, 693.635 367.950 C 647.630 378.289, 607.833 386.085, 566 392.953 C 555.825 394.623, 546.433 396.165, 545.129 396.379 L 542.759 396.769 543.399 387.134 C 545.242 359.415, 546.075 331.667, 546.099 297.195 C 546.119 268.499, 546.423 258.806, 547.313 258.560 C 547.966 258.378, 559.525 256.109, 573 253.516 C 610.241 246.350, 690.153 227.983, 692.217 226.116 C 692.842 225.549, 682.709 185.375, 681.681 184.347 C 681.465 184.131, 673.461 185.952, 663.894 188.394 C 629.236 197.241, 551.853 214, 545.662 214 C 543.493 214, 543.344 213.462, 542.147 201.250 C 539.939 178.735, 527.832 99.523, 525.410 91.750 C 524.734 89.579, 526.327 89.399, 502.500 94.347 M 706.520 618.250 C 706.042 620.329, 700.121 653.795, 699.691 656.854 C 699.561 657.777, 703.313 659.262, 711.500 661.527 C 729.682 666.557, 743.101 671.494, 757.988 678.629 C 798.906 698.242, 823.116 724.081, 835.493 761.349 C 839.991 774.893, 842.036 785.238, 842.836 798.500 L 843.500 809.500 860 810.657 C 869.075 811.293, 878.930 811.855, 881.900 811.907 L 887.300 812 886.696 798.750 C 884.428 748.928, 862.630 702.281, 827.206 671.440 C 800.805 648.455, 761.492 629.018, 720.272 618.569 C 707.916 615.437, 707.172 615.420, 706.520 618.250 " stroke="none" fill="black" fill-rule="evenodd"/>
</svg>