<svg xmlns="http://www.w3.org/2000/svg" width="1000" height="1000" viewBox="0 0 1000 1000" version="1.1">
	<path d="M 591.644 84.614 C 580.173 86.410, 570.660 88.019, 570.505 88.190 C 570.350 88.360, 570.838 92.550, 571.591 97.500 C 581.898 165.292, 596.318 272.082, 595.303 273.097 C 594.843 273.557, 587.499 275.930, 578.984 278.370 C 552.388 285.991, 536.622 287.826, 490.342 288.686 C 470.099 289.062, 446.571 288.799, 426.842 287.975 C 409.604 287.256, 393.700 286.629, 391.500 286.583 L 387.500 286.500 386 307.878 C 385.015 321.912, 384.844 329.369, 385.500 329.587 C 388.048 330.432, 426.709 332.081, 457 332.635 C 519.692 333.783, 558.861 330.179, 592.250 320.192 C 597.612 318.588, 602 317.588, 602 317.970 C 602 318.352, 603.107 327.628, 604.461 338.582 C 610.479 387.300, 617.539 453.719, 620.448 489 C 621.287 499.175, 622.229 509.797, 622.541 512.604 L 623.107 517.708 615.339 518.961 C 575.029 525.464, 526.509 545.781, 491.500 570.817 C 466.397 588.770, 450.714 605.581, 441.422 624.500 C 435.194 637.182, 433.618 644.080, 433.655 658.500 C 433.705 677.914, 438.519 695.606, 450.110 718.977 C 470.437 759.958, 506.996 806.198, 561.640 860.039 C 590.774 888.746, 626.351 920.715, 629.500 921.019 C 630.050 921.072, 637.341 916.325, 645.702 910.471 C 660.598 900.041, 660.914 899.744, 661.437 895.664 C 662.084 890.610, 664.608 845.677, 665.939 815.500 C 666.473 803.400, 667.202 786.863, 667.559 778.750 C 667.916 770.638, 668.499 764.001, 668.854 764.002 C 669.209 764.003, 676.025 764.651, 684 765.441 C 691.975 766.231, 707.433 767.400, 718.351 768.039 C 740.392 769.329, 802.429 769.891, 803.518 768.811 C 803.900 768.432, 803.884 758.715, 803.484 747.218 L 802.756 726.314 765.628 725.676 C 745.208 725.326, 721.750 724.569, 713.500 723.994 C 699.285 723.003, 669.570 720.095, 669.522 719.689 C 669.510 719.585, 669.642 699.394, 669.815 674.821 L 670.130 630.142 675.815 625.890 C 683.507 620.136, 696.405 607.624, 700.999 601.459 C 717.590 579.191, 716.814 555.746, 698.851 536.540 C 692.098 529.321, 684.724 524.687, 674.625 521.319 L 667.164 518.831 666.596 514.166 C 666.284 511.600, 665.553 503.200, 664.973 495.500 C 662.442 461.904, 653.754 380.029, 646.616 322.500 C 645.319 312.050, 644.538 303.214, 644.879 302.863 C 645.816 301.903, 688.807 287.561, 702.500 283.641 C 776.063 262.581, 820.940 270.414, 838.407 307.361 C 851.721 335.525, 842.329 364.894, 815.846 377.910 C 787.206 391.986, 746.776 390.690, 691.112 373.911 C 683.749 371.692, 677.399 370.241, 677.001 370.688 C 676.325 371.447, 663 409.237, 663 410.396 C 663 411.299, 687.592 418.842, 702.411 422.484 C 730.012 429.267, 739.641 430.434, 768 430.432 C 790.427 430.430, 794.654 430.171, 803.073 428.285 C 846.793 418.490, 874.425 394.643, 885.213 357.395 C 887.214 350.489, 887.491 347.371, 887.431 332.500 C 887.374 318.403, 887 314.189, 885.241 307.825 C 881.977 296.012, 877.210 285.443, 870.913 276.054 C 854.554 251.664, 830.677 236.588, 798.500 230.334 C 786.040 227.912, 756.769 227.920, 741 230.350 C 716.210 234.170, 695.506 239.497, 660.172 251.146 C 648.442 255.014, 638.719 258.025, 638.566 257.839 C 638.413 257.653, 637.294 249.850, 636.079 240.500 C 631.250 203.323, 613.784 82.465, 613.162 81.925 C 612.798 81.608, 603.115 82.819, 591.644 84.614 M 200.553 157.170 C 199.765 159.519, 188.989 256.812, 183.072 315 C 163.353 508.904, 158.106 615.609, 165.393 674.500 C 171.077 720.432, 177.247 759.134, 185.527 800.800 C 190.213 824.382, 201.757 875.795, 202.606 876.864 C 202.764 877.064, 213.405 871.736, 226.252 865.024 L 249.609 852.820 255.450 825.660 C 263.953 786.121, 276.088 734.037, 281.427 714.164 C 288.396 688.223, 297.124 665.416, 324.352 602 C 330.137 588.525, 334.562 577.218, 334.185 576.874 C 332.160 575.023, 295.671 559.930, 294.960 560.649 C 291.853 563.787, 251.784 661.254, 244.952 682.295 C 242.119 691.019, 230.840 734.888, 225.874 756.500 L 223.576 766.500 222.335 760 C 217.878 736.655, 210.316 683.520, 207.471 655.566 C 202.621 607.909, 208.647 499.589, 225.553 330.500 C 229.859 287.434, 242.368 172.807, 243.606 165.060 L 244.199 161.354 225.350 159.117 C 214.982 157.887, 205.262 156.646, 203.749 156.360 C 201.971 156.024, 200.841 156.311, 200.553 157.170 M 610.318 564.497 C 577.818 572.020, 539.070 589.732, 513.213 608.884 C 500.059 618.627, 486.306 632.989, 481.500 642 C 477.576 649.358, 477.501 649.690, 477.573 659.500 C 477.636 668.304, 478.091 670.816, 481.376 680.500 C 488.339 701.032, 503.951 727.625, 524.528 754 C 542.644 777.222, 557.285 793.385, 588.389 824.500 L 619.378 855.500 620.136 850 C 621.016 843.619, 624.021 777.596, 624.008 764.933 L 624 756.366 616.250 754.540 C 581.500 746.356, 556.205 731.047, 547.196 712.746 C 537.373 692.793, 541.432 672.721, 558.856 655.085 C 568.490 645.333, 581.960 635.367, 607.291 619.249 C 621.038 610.501, 626.917 606.225, 626.541 605.246 C 626.243 604.471, 626 594.423, 626 582.918 L 626 562 623.250 562.070 C 621.737 562.108, 615.918 563.200, 610.318 564.497 M 614.692 666.507 C 595.105 679.942, 586 688.028, 586 691.988 C 586 696.210, 597.906 703.087, 614.794 708.619 C 620.561 710.508, 625.399 711.929, 625.544 711.777 C 626.047 711.251, 626.499 658.999, 626 659.046 C 625.725 659.071, 620.636 662.429, 614.692 666.507 " stroke="none" fill="black" fill-rule="evenodd"/>
</svg>