<svg xmlns="http://www.w3.org/2000/svg" width="1000" height="1000" viewBox="0 0 1000 1000" version="1.1">
	<path d="M 780.500 99.625 C 742.592 112.568, 707.426 119.606, 668.390 122.063 C 623.109 124.914, 574.919 116.958, 540.137 100.888 C 535.462 98.729, 531.328 97.308, 530.948 97.731 C 529.297 99.572, 509 132.147, 509 132.956 C 509 134.397, 518.633 139.493, 530.500 144.330 C 552.155 153.156, 573.631 158.892, 601 163.158 C 613.943 165.175, 619.205 165.421, 650 165.445 C 688.623 165.475, 700.253 164.380, 734.496 157.487 C 760.231 152.307, 813 136.571, 813 134.077 C 813 132.259, 798.186 94.572, 797.396 94.380 C 796.903 94.260, 789.300 96.621, 780.500 99.625 M 349.500 104.555 C 335.460 111.240, 315.327 118.415, 292.500 124.869 C 267.228 132.014, 260.447 133, 236.556 133 C 206.626 133, 179.282 130.095, 136.237 122.343 C 125.092 120.336, 115.819 118.875, 115.630 119.097 C 114.976 119.865, 106.107 160.440, 106.506 160.839 C 107.846 162.179, 152.852 170.002, 176 172.918 C 202.227 176.222, 221.562 177.301, 244.214 176.723 C 269.902 176.067, 282.763 173.827, 311.855 164.941 C 315.351 163.874, 318.394 163, 318.618 163 C 318.842 163, 317.970 164.688, 316.680 166.750 C 306.316 183.322, 283.683 227.333, 276.593 244.702 C 267.916 265.957, 265 277.447, 265 290.384 C 265 304.678, 269.008 314.333, 288.503 347 C 301.835 369.341, 308.657 382.723, 311.361 391.839 L 312.945 397.178 306.290 390.953 C 292.352 377.914, 277.071 369.039, 261.500 364.939 C 249.690 361.829, 231.724 361.849, 223.500 364.981 C 207.378 371.121, 194.750 385.270, 183.766 409.500 C 151.274 481.175, 138.257 641.671, 148.040 850 C 149.585 882.899, 151.866 918.199, 152.488 918.821 C 153.024 919.357, 194.015 917.101, 195.030 916.479 C 195.321 916.300, 195.017 907.232, 194.355 896.327 C 190.105 826.372, 189.531 805.820, 189.515 723 C 189.500 640.456, 189.906 626.316, 193.575 581.500 C 200.649 495.098, 215.969 430.189, 234.185 409.442 C 237.571 405.586, 240.070 405.198, 249.201 407.110 C 271.728 411.827, 295.779 439.811, 309.482 477.250 C 312.727 486.116, 313.775 488.001, 315.458 488.005 C 318.506 488.011, 351.391 481.854, 352.189 481.127 C 353.527 479.908, 356.019 460.772, 357.121 443.247 C 358.574 420.156, 357.743 397.145, 355.062 386.254 C 350.656 368.356, 345.196 356.653, 327.210 326.560 C 320.326 315.042, 313.135 302.246, 311.230 298.123 L 307.767 290.627 309.787 282.443 C 316.521 255.167, 347.408 196.775, 388.120 134.352 C 393.554 126.020, 398 118.935, 398 118.607 C 398 118.279, 389.563 113.804, 379.250 108.664 L 360.500 99.317 349.500 104.555 M 684.500 241.565 C 669.465 243.609, 651.594 247.604, 631 253.525 C 613.334 258.604, 587.331 267.439, 585.757 268.898 C 585.046 269.556, 599.333 306.630, 600.945 308.311 C 601.373 308.758, 610.223 306.226, 620.611 302.687 C 657.018 290.282, 687.655 283.810, 710.500 283.699 C 726.211 283.622, 734.627 285.579, 738.529 290.217 C 742.212 294.593, 742.048 304.285, 738.154 312.500 C 728.349 333.181, 696.766 359.479, 648.259 387.351 C 617.292 405.145, 571.721 427.193, 545 437.311 C 520.127 446.729, 475.610 465.057, 474.211 466.455 C 474.022 466.645, 477.562 475.868, 482.079 486.951 C 488.734 503.282, 490.595 506.985, 491.895 506.484 C 492.778 506.144, 500.925 503.015, 510 499.531 C 527.146 492.948, 547.037 484.816, 567.350 476.084 C 592.652 465.208, 652.086 446.440, 686 438.617 C 715.894 431.722, 736.270 429, 758.003 429 C 782.146 429, 792.404 432.277, 803.492 443.530 C 841.885 482.494, 839.108 546.387, 796.539 603.502 C 786.729 616.663, 764.054 638.679, 752.407 646.349 C 741.695 653.405, 719.136 665.469, 718.271 664.605 C 717.988 664.322, 718.374 661.032, 719.128 657.295 C 719.906 653.444, 720.496 644.435, 720.490 636.500 C 720.482 624.901, 720.087 621.136, 718.187 614.545 C 714.439 601.543, 709.703 593.647, 699.492 583.370 C 691.520 575.347, 689.153 573.626, 679.960 569.168 C 667.359 563.057, 657.363 560.344, 641.860 558.825 C 610.111 555.715, 570.613 566.178, 542.015 585.274 C 531.858 592.057, 515.429 608.711, 510.209 617.516 C 495.784 641.850, 494.080 668.136, 505.518 689.903 C 518.902 715.372, 549.279 730.195, 593.423 732.797 L 605.346 733.500 598.351 739.217 C 588.086 747.609, 574.168 762.413, 568.377 771.102 C 555.325 790.684, 551.237 812.961, 556.517 835.729 C 566.562 879.044, 621.347 897.859, 731 895.655 C 771.532 894.840, 806.852 892.326, 853.500 886.937 C 872.361 884.758, 899.313 881.008, 899.839 880.489 C 900.025 880.306, 898.682 870.620, 896.853 858.966 L 893.528 837.777 889.014 838.329 C 886.531 838.632, 875.725 840.008, 865 841.386 C 841.154 844.450, 812.535 847.370, 784 849.650 C 756.436 851.852, 684.785 852.168, 666 850.170 C 631.956 846.549, 607.396 838.927, 600.768 829.926 C 598.017 826.190, 597.259 814.054, 599.333 806.950 C 603.104 794.033, 612.161 784.220, 643.480 759.117 C 655.569 749.428, 669.969 737.205, 675.480 731.957 L 685.500 722.413 695.500 719.593 C 717.734 713.322, 742.388 703.034, 761.656 691.985 C 780.445 681.211, 791.476 672.702, 807.547 656.588 C 841.458 622.583, 862.381 585.881, 871.161 545 C 874.218 530.764, 874.516 496.212, 871.694 483.125 C 867.590 464.091, 860.901 447.794, 850.916 432.500 C 843.340 420.897, 823.550 401.490, 814.500 396.790 C 796.645 387.515, 779.350 384.459, 749.500 385.301 C 732.587 385.779, 729.782 385.658, 731.324 384.519 C 738.026 379.568, 753.206 365.317, 759.139 358.406 C 777.400 337.134, 785 319.837, 785 299.550 C 785 269.657, 766.837 248.349, 735.920 241.970 C 724.585 239.631, 700.144 239.439, 684.500 241.565 M 615.520 603.115 C 582.265 607.957, 552.971 625.937, 544.407 646.761 C 541.828 653.034, 541.203 662.755, 543.061 667.685 C 546.462 676.706, 560.867 684.342, 580.500 687.530 C 591.054 689.244, 619.538 689.488, 632.026 687.970 C 650.390 685.739, 659.459 683.847, 661.696 681.781 C 665.230 678.517, 672.870 662.207, 675.133 653.096 C 676.739 646.628, 677.131 642.476, 676.834 635.071 C 676.492 626.564, 676.091 624.819, 673.369 620.002 C 665.442 605.971, 642.300 599.215, 615.520 603.115 " stroke="none" fill="black" fill-rule="evenodd"/>
</svg>