<svg xmlns="http://www.w3.org/2000/svg" width="1000" height="1000" viewBox="0 0 1000 1000" version="1.1">
	<path d="M 457.002 98.250 C 457.004 149.392, 460.735 204.549, 467.116 247.804 C 468.276 255.671, 469.046 262.287, 468.826 262.507 C 467.922 263.412, 438.297 264.981, 421.950 264.990 C 383.321 265.012, 350.732 260.345, 323.152 250.840 C 310.048 246.325, 294.930 238.840, 287.606 233.241 C 284.914 231.184, 281.987 228.956, 281.101 228.291 C 279.739 227.268, 276.949 229.095, 262.996 240.139 C 253.923 247.321, 246.372 253.536, 246.216 253.952 C 245.786 255.092, 258.186 266.373, 264.822 270.879 C 292.013 289.344, 330.543 301.724, 375.739 306.517 C 403.390 309.450, 446.538 309.384, 473.500 306.368 L 478.500 305.808 480.879 314.654 C 489.018 344.914, 502.237 371.341, 517.460 387.783 C 529.459 400.744, 559.524 417.919, 584.366 426.005 L 591.232 428.240 569.366 436.471 C 488.962 466.736, 425.915 498.408, 387.738 527.712 L 381.977 532.135 385.609 536.567 C 387.606 539.005, 388.968 541, 388.635 541 C 388.302 541, 385.871 539.672, 383.232 538.048 C 369.932 529.864, 352.890 525.010, 337.500 525.022 C 318.247 525.037, 306.199 529.812, 293.431 542.489 C 288.993 546.895, 283.453 553.425, 281.119 557 C 264.144 583.002, 250.443 629.191, 243.002 685.501 C 240.076 707.646, 240.804 705.713, 234.737 707.456 C 204.331 716.192, 163.952 720.089, 149.602 715.673 C 146.149 714.611, 142.465 712.619, 140.715 710.869 C 137.766 707.920, 137.733 707.768, 138.284 699.690 C 138.944 690.022, 141.811 681.215, 148.600 668 C 151.284 662.775, 153.627 658.188, 153.805 657.807 C 153.983 657.425, 146.026 651.699, 136.122 645.081 L 118.115 633.050 114.669 638.775 C 89.146 681.178, 87.418 719.487, 110.007 742.076 C 125.171 757.240, 149.198 763.597, 181.667 761.036 C 198.463 759.712, 225.901 755.317, 235 752.493 C 236.314 752.086, 236.506 756.639, 236.545 789.264 C 236.598 833.414, 238.333 862.717, 244.121 917.250 C 245.234 927.731, 245.576 929, 247.286 929 C 248.341 929, 258.720 927.146, 270.352 924.879 L 291.500 920.758 298.500 912.318 C 302.350 907.676, 312.029 897.268, 320.008 889.189 C 380.870 827.568, 459.888 768.568, 548.817 718.345 C 558.891 712.655, 567.329 708, 567.567 708 C 567.805 708, 568.002 711.487, 568.004 715.750 C 568.006 720.013, 568.471 729.800, 569.036 737.500 C 574.928 817.746, 599.430 869.481, 639.500 886.284 C 647.119 889.479, 664.914 893.459, 681 895.566 C 709.053 899.240, 763.436 898.545, 810.394 893.912 C 842.259 890.768, 899.504 882.709, 901.168 881.132 C 901.535 880.785, 900.073 871.275, 897.919 860 C 895.764 848.725, 894.001 839.227, 894.001 838.894 C 894 838.561, 890.513 838.898, 886.250 839.642 C 860.647 844.114, 818.482 849.470, 787.500 852.185 C 767.139 853.970, 699.992 853.963, 686.500 852.175 C 672.931 850.376, 659.912 847.497, 654.473 845.091 C 648.455 842.429, 640.294 834.083, 635.316 825.500 C 620.170 799.387, 612.068 757.887, 612.021 706.176 L 612 683.852 644.250 668.044 C 708.617 636.495, 761.454 614.462, 796.592 604.518 C 803.793 602.480, 810.260 600.457, 810.964 600.022 C 811.946 599.415, 810.690 594.611, 805.562 579.366 C 798.162 557.362, 799.564 559.412, 785.095 549.445 C 747.968 523.870, 700.839 507.968, 662.289 508.008 C 651.194 508.020, 637.718 509.730, 631.500 511.916 C 606.660 520.646, 588.168 553.783, 577.043 609.500 C 574.802 620.725, 570 652.743, 570 656.460 C 570 656.671, 563.138 660.553, 554.750 665.086 C 453.667 719.717, 366.786 781.932, 300.383 847.238 L 283.266 864.072 282.640 857.286 C 280.100 829.720, 278.947 774.611, 280.426 751.472 L 281.194 739.444 292.347 735.657 C 311.793 729.054, 335.850 719.080, 356.739 708.960 C 419.613 678.499, 439.331 658.050, 439.142 623.500 C 439.045 605.799, 432.565 588.027, 420.058 571.159 C 416.726 566.665, 414 562.798, 414 562.566 C 414 561.619, 443.408 542.696, 456 535.540 C 513.330 502.959, 606.801 466.033, 696.386 440.575 C 705.124 438.092, 712.384 435.935, 712.521 435.780 C 712.931 435.318, 710.385 388.051, 709.925 387.595 C 709.691 387.363, 703.200 388.500, 695.500 390.122 C 672.143 395.043, 643.696 395.168, 620.205 390.452 C 594.973 385.387, 563.742 371.322, 550.756 359.175 C 540.367 349.458, 531.997 332.332, 522.483 301.330 C 522.253 300.579, 524.702 299.741, 529.312 298.994 C 569.067 292.544, 623.997 278.808, 677.628 261.907 C 714.794 250.194, 757 235.007, 757 233.345 C 757 232.411, 751.227 216.786, 743.140 195.829 L 742.109 193.158 730.305 197.638 C 698.321 209.779, 644.425 227.010, 607.500 236.902 C 574.592 245.718, 514.927 258.260, 513.359 256.692 C 512.410 255.744, 511.119 247.948, 508.522 227.500 C 503.621 188.895, 501.024 145.316, 501.010 101.405 L 501 72.310 487.342 71.655 C 479.830 71.295, 469.930 71, 465.342 71 L 457 71 457.002 98.250 M 647.784 552.713 C 639.455 553.980, 627.039 582.985, 620.061 617.475 C 618.501 625.189, 617.334 631.623, 617.469 631.774 C 617.605 631.925, 628.917 626.695, 642.608 620.151 C 677.501 603.474, 717.518 585.932, 737 578.774 C 740.025 577.662, 742.860 576.426, 743.300 576.027 C 745.229 574.274, 714.600 560.983, 699.500 557.020 C 683.358 552.784, 660.065 550.844, 647.784 552.713 M 331.525 568.965 C 318.981 571.468, 304.089 601.996, 294.546 644.775 C 290.434 663.208, 285.985 690.358, 287.007 690.781 C 288.058 691.216, 316.900 679.480, 332.500 672.269 C 349.733 664.304, 363.531 656.766, 376.060 648.473 C 394.705 636.131, 398.242 630.009, 394.610 616.368 C 387.547 589.842, 353.840 564.514, 331.525 568.965 " stroke="none" fill="black" fill-rule="evenodd"/>
</svg>