<svg xmlns="http://www.w3.org/2000/svg" width="1000" height="1000" viewBox="0 0 1000 1000" version="1.1">
	<path d="M 346.500 113.579 C 337.700 119.915, 329.859 125.476, 329.076 125.937 C 327.260 127.005, 332.186 132.969, 341.796 141.337 C 367.308 163.549, 403.597 177.523, 445 181.079 C 460.005 182.368, 489.906 181.682, 509.500 179.601 C 516.100 178.899, 521.611 178.401, 521.747 178.493 C 521.883 178.586, 515.588 182.900, 507.758 188.081 C 441.121 232.169, 374.300 285.290, 326.120 332.478 C 295.283 362.679, 276.413 384.152, 250.084 419 C 196.513 489.906, 152.571 561.195, 129.273 615 C 124.399 626.256, 117.446 645.870, 118.146 646.387 C 118.490 646.640, 155.346 675.365, 157.652 677.177 C 158.458 677.810, 161.599 673.189, 168.110 661.791 C 210.598 587.411, 283.541 501.216, 353.697 442.485 C 418.303 388.399, 488.860 349.267, 542.432 337.811 C 556.718 334.755, 581.143 334.729, 592.136 337.756 C 612.336 343.321, 626.909 355.031, 637.411 374.136 C 642.493 383.382, 644.869 390.724, 647.400 405 L 649.616 417.500 652.558 417.257 C 654.176 417.123, 661.011 416.561, 667.746 416.006 C 709.218 412.595, 756.765 424.729, 785.063 445.946 C 828.267 478.341, 843.579 536.347, 825.507 599.163 C 814.940 635.893, 789.636 671.933, 763.070 688.090 C 732.080 706.938, 669.244 702.993, 602.775 678.027 C 595.498 675.294, 589.249 673.382, 588.889 673.779 C 586.883 675.992, 571.797 712.186, 572.582 712.903 C 573.871 714.082, 592.397 721.081, 605.500 725.338 C 628.573 732.836, 651.669 738.291, 674.500 741.637 C 691.282 744.097, 726.749 744.130, 740 741.699 C 775.257 735.229, 799.634 720.577, 825.535 690.289 C 861.233 648.543, 881.451 584.210, 875.952 529.856 C 867.852 449.778, 815.628 394.140, 732.464 376.988 C 720.205 374.459, 699.744 372, 690.966 372 L 684.420 372 680.690 363.189 C 676.344 352.927, 667.554 339.075, 659.888 330.408 C 621.510 287.019, 561.706 279.674, 486.851 309.154 C 470.348 315.653, 437.161 332.110, 418.500 343.049 C 379.103 366.141, 338.628 396.338, 299.517 431.816 C 285.882 444.185, 285.657 444.339, 290.464 438 C 321.377 397.239, 362.740 355.058, 412.891 313.154 C 475.490 260.848, 561.079 202.004, 632.750 161.998 C 640.038 157.930, 646 154.136, 646 153.566 C 646 152.564, 631.901 105.860, 631.383 105.146 C 631.242 104.952, 625.360 107.054, 618.313 109.817 C 572.815 127.659, 517.033 138.010, 466.500 137.989 C 424.725 137.972, 391.332 127.303, 368.353 106.630 C 365.522 104.084, 363.047 102.014, 362.853 102.030 C 362.659 102.047, 355.300 107.244, 346.500 113.579 M 556.324 396.361 C 546.328 398.087, 537.940 399.725, 537.686 400 C 537.431 400.275, 537.831 404.550, 538.574 409.500 C 542.282 434.188, 545.709 470.974, 546.650 496.176 L 547.310 513.851 543.905 514.388 C 542.032 514.684, 534.200 515.880, 526.500 517.046 C 501.746 520.796, 465.070 528.771, 436.902 536.530 C 429.973 538.438, 423.744 540, 423.059 540 C 422.104 540, 421.970 537.722, 422.483 530.250 C 423.801 511.052, 427.390 494.075, 432.078 484.857 C 435.849 477.445, 446.585 471, 455.162 471 C 457.260 471, 458.079 470.436, 458.430 468.750 C 458.963 466.186, 463.007 430.234, 463.003 428.099 C 463.001 426.954, 461.311 426.812, 453.750 427.322 C 441.605 428.141, 434.435 430.062, 423.500 435.429 C 399.270 447.321, 386.306 469.564, 380.547 509.128 C 379.632 515.418, 379 526.653, 379 536.648 L 379 553.539 359.750 559.904 C 341.587 565.909, 292.070 583.597, 291.319 584.348 C 291.128 584.539, 294.534 593.651, 298.888 604.597 C 303.978 617.394, 307.285 624.446, 308.152 624.349 C 308.893 624.267, 318.275 620.972, 329 617.028 C 357.198 606.658, 386.251 596.881, 387.458 597.354 C 388.031 597.579, 389.805 601.469, 391.401 605.997 C 397.990 624.701, 409.107 643.085, 420.098 653.454 C 434.746 667.272, 454.251 672.179, 474.226 667.070 C 480.825 665.382, 496 658.742, 496 657.542 C 496 657.101, 473.325 624.137, 472.052 622.727 C 471.668 622.302, 469.714 622.639, 467.709 623.477 C 462.829 625.516, 455.511 625.412, 451.823 623.250 C 448.837 621.499, 442.090 612.170, 438.145 604.338 C 434.235 596.574, 429.897 584.702, 430.701 583.963 C 431.631 583.106, 460.028 575.566, 481 570.607 C 506.175 564.654, 545.719 557.385, 546.838 558.505 C 547.645 559.312, 545.095 588.702, 542.931 603.529 C 537.969 637.535, 528.949 664.014, 516.638 680.714 C 510.891 688.510, 495.580 703.779, 484.757 712.507 C 455.068 736.449, 417.849 753.628, 385.500 758.320 L 376.500 759.625 376.728 766.563 C 376.854 770.378, 377.241 780.197, 377.589 788.383 L 378.221 803.267 385.361 802.605 C 394.867 801.723, 413.003 797.622, 426.268 793.353 C 465.659 780.678, 499.633 759.941, 530.865 729.509 C 548.541 712.285, 556.146 702.313, 564.427 685.500 C 579.169 655.568, 587.205 619.015, 590.559 566.630 L 591.255 555.759 602.378 556.459 C 636.920 558.632, 670.476 565.277, 698.500 575.495 C 704 577.500, 709.374 579.222, 710.442 579.320 C 712.029 579.467, 713.980 576.123, 721.132 561 C 725.944 550.825, 729.908 542.025, 729.941 541.445 C 730.022 540.007, 705.426 530.986, 689.500 526.612 C 663.259 519.406, 636.255 514.924, 607.486 512.999 C 598.751 512.415, 591.544 511.838, 591.472 511.718 C 591.400 511.598, 590.819 501.600, 590.181 489.500 C 589.543 477.400, 588.327 460.075, 587.478 451 C 585.752 432.526, 581.068 394.919, 580.349 393.756 C 579.622 392.579, 575.860 392.987, 556.324 396.361 M 271.017 776.685 C 262.834 798.554, 265.089 822.310, 277.064 840.401 C 290.941 861.366, 315.283 876.341, 350.337 885.480 C 381.473 893.597, 409.407 896.093, 469 896.082 C 524.969 896.071, 586.211 892.686, 662 885.414 C 692.853 882.453, 737.936 877.415, 738.421 876.874 C 738.923 876.312, 733.441 835.108, 732.776 834.442 C 732.459 834.126, 717.867 835.458, 700.350 837.403 C 580.608 850.698, 474.962 855.651, 412 850.923 C 356.048 846.721, 317.654 831.663, 310.929 811.284 C 309.791 807.838, 310.085 796.202, 311.390 793 C 311.834 791.909, 310.160 790.540, 305.250 787.980 C 301.538 786.044, 292.800 781.418, 285.833 777.699 L 273.167 770.938 271.017 776.685 " stroke="none" fill="black" fill-rule="evenodd"/>
</svg>