<svg xmlns="http://www.w3.org/2000/svg" width="1000" height="1000" viewBox="0 0 1000 1000" version="1.1">
	<path d="M 455 81.391 C 446.475 84.858, 437.863 88.393, 435.863 89.248 L 432.226 90.803 437.563 106.652 C 443.195 123.375, 449.708 147.311, 453.509 165.250 C 456.174 177.828, 457.694 176.733, 440.664 174.501 C 418.556 171.602, 394.174 165.793, 369.090 157.447 C 360.064 154.444, 352.525 152.141, 352.337 152.329 C 351.086 153.580, 336.262 191.637, 336.812 192.186 C 338.842 194.209, 370.507 204.341, 390.500 209.364 C 411.572 214.658, 445.597 220, 458.244 220 C 461.748 220, 463 220.384, 463 221.461 C 463 222.264, 463.427 227.327, 463.948 232.711 C 464.470 238.095, 465.134 245.280, 465.425 248.677 L 465.954 254.855 460.727 256.548 C 447.878 260.709, 426.209 269.858, 411.609 277.285 C 366.702 300.128, 340.177 326.139, 332.355 355 C 329.657 364.954, 329.877 381.447, 332.835 391 C 341.045 417.516, 363.718 441.390, 400.801 462.569 L 408.102 466.739 382.801 485.738 C 346.964 512.649, 291.814 549.905, 234 586.259 C 223.825 592.657, 214.667 598.506, 213.649 599.257 C 211.882 600.559, 212.146 601.689, 219.443 624.022 C 223.648 636.892, 227.255 647.588, 227.457 647.791 C 227.660 647.993, 244.178 642.758, 264.163 636.156 C 331.868 613.791, 413.146 588.738, 465.500 574.095 C 515.918 559.994, 552.931 551.562, 601.500 543.114 C 634.357 537.399, 703.041 526.846, 703.710 527.410 C 703.826 527.507, 700.226 530.242, 695.710 533.486 C 661.645 557.964, 625.751 585.517, 608.715 600.267 L 598.931 608.738 577.715 608.742 C 555.276 608.746, 542.078 609.777, 522.500 613.059 C 473.441 621.281, 421.428 642.038, 378.500 670.527 C 369.016 676.821, 333.983 704.965, 333.240 706.886 C 333.097 707.256, 358.347 732.608, 389.351 763.224 L 445.721 818.891 498.110 768.142 C 526.925 740.231, 564.893 703.355, 582.484 686.196 C 614.150 655.308, 614.504 655.003, 617.984 655.582 C 626.876 657.061, 648.444 662.599, 657.500 665.728 C 677.001 672.465, 690.905 681.742, 694.540 690.442 C 696.567 695.294, 696.376 705.594, 694.138 712.098 C 682.799 745.057, 635.335 791.029, 585.991 816.846 C 550.094 835.627, 461.919 867.704, 409.500 881.050 C 404.550 882.310, 400.375 883.427, 400.222 883.532 C 399.892 883.758, 409.871 925.204, 410.377 925.711 C 411.341 926.674, 461.923 911.781, 491.500 901.824 C 539.139 885.788, 592.714 863.807, 614.103 851.522 C 642.547 835.185, 672.729 811.636, 694.446 788.835 C 730.805 750.663, 745.873 714.282, 738.028 683.609 C 731.020 656.210, 708.429 636.461, 669.495 623.699 C 662.348 621.356, 656.432 619.003, 656.348 618.470 C 656.158 617.251, 678.194 600.281, 710 577.152 C 731.491 561.524, 747.994 549.916, 783.750 525.276 C 788.837 521.771, 792.997 518.362, 792.994 517.701 C 792.983 515.708, 786.146 473.812, 785.770 473.436 C 784.514 472.181, 684.793 485.351, 630 494.009 C 540.812 508.102, 483.630 521.788, 375.553 554.907 C 362.932 558.775, 352.486 561.819, 352.339 561.672 C 352.192 561.526, 358.693 556.845, 366.786 551.272 C 383.368 539.852, 400.675 527.177, 433.042 502.750 C 445.248 493.538, 455.982 486, 456.895 486 C 457.807 486, 466.834 487.795, 476.954 489.990 C 487.074 492.184, 495.435 493.872, 495.535 493.740 C 495.635 493.608, 496.980 484.001, 498.524 472.391 L 501.332 451.281 513.916 441.251 C 543.712 417.502, 572.156 390.968, 589.759 370.500 C 623.572 331.184, 634.661 295.580, 621.369 269.012 C 615.250 256.779, 601.523 246.682, 585.500 242.627 C 568.711 238.378, 542.472 238.061, 519.853 241.832 L 509.206 243.607 508.639 239.054 C 508.327 236.549, 507.783 230.675, 507.430 226 L 506.788 217.500 517.230 214.695 C 543.342 207.681, 590.517 184.902, 627.685 161.361 L 633.870 157.444 621.897 139.132 L 609.924 120.820 607.212 122.607 C 590.488 133.626, 556.677 152.071, 537.969 160.383 C 523.027 167.021, 501.387 174.721, 500.413 173.746 C 500.111 173.444, 498.776 167.955, 497.448 161.549 C 492.501 137.698, 485.024 110.136, 477.633 88.500 C 473.147 75.370, 472.979 74.992, 471.643 75.045 C 471.014 75.069, 463.525 77.925, 455 81.391 M 536.500 283.666 C 531.314 284.300, 520.710 286.013, 515.250 287.098 L 510 288.142 509.983 303.821 C 509.967 318.613, 508.913 348.424, 507.381 377.442 L 506.697 390.383 509.599 388.107 C 511.194 386.855, 519.025 379.827, 527 372.489 C 560.553 341.614, 581.352 312.943, 582.740 295.649 C 583.235 289.481, 583.143 289.140, 580.507 287.413 C 576.043 284.488, 566.433 283.032, 552.500 283.171 C 545.350 283.242, 538.150 283.465, 536.500 283.666 M 455.500 305.084 C 428.407 315.957, 401.993 331.871, 388.499 345.449 C 378.673 355.337, 374.937 361.911, 374.245 370.536 C 373.802 376.058, 374.110 377.633, 376.717 383.172 C 382.357 395.155, 393.556 406.281, 412 418.223 C 421.477 424.360, 437.277 432.979, 443.707 435.520 L 447.914 437.183 453.809 432.647 L 459.703 428.112 460.348 420.306 C 463.819 378.269, 466.424 325.718, 465.827 309.785 L 465.500 301.070 455.500 305.084 M 536.500 655.134 C 501.692 660.370, 469.456 670.804, 436.500 687.501 C 421.450 695.126, 405.026 704.705, 400.126 708.716 C 397.948 710.499, 397.955 710.509, 421.836 734.355 L 445.725 758.209 480.112 724.855 C 540.295 666.480, 553.660 653.049, 551.500 653.116 C 550.400 653.150, 543.650 654.058, 536.500 655.134 " stroke="none" fill="black" fill-rule="evenodd"/>
</svg>