<svg xmlns="http://www.w3.org/2000/svg" width="1000" height="1000" viewBox="0 0 1000 1000" version="1.1">
	<path d="M 412.128 109.611 C 401.474 114.176, 392.597 118.070, 392.401 118.266 C 392.205 118.462, 393.605 122.988, 395.512 128.324 C 403.853 151.660, 408.701 177.104, 407.645 192 C 407.313 196.675, 405.486 206.800, 403.584 214.500 C 396.740 242.202, 387.679 266.032, 361.810 324.358 C 336.294 381.885, 327.421 405.014, 321.662 429 C 317.262 447.327, 316.525 454.339, 316.564 477.500 C 316.614 507.048, 318.044 513.901, 329.863 541.224 L 331.906 545.948 341.703 542.371 C 377.574 529.276, 415.946 519.383, 444.201 515.946 C 457.523 514.325, 479.197 515.125, 484.750 517.443 C 487.087 518.419, 489 519.532, 489 519.917 C 489 521.113, 482.061 532.224, 477.708 538 C 470.033 548.181, 457.706 561.319, 419.997 599.500 C 380.775 639.214, 366.865 654.038, 351.537 672.458 C 293.856 741.773, 278.927 795.044, 303.685 843.212 C 319.441 873.865, 347.650 885.950, 407.500 887.687 C 429.250 888.318, 456.274 887.224, 510.500 883.518 C 605.581 877.018, 627.078 877.615, 677.258 888.147 C 687.841 890.368, 697.667 892.409, 699.094 892.683 C 701.621 893.168, 701.773 892.888, 704.985 881.841 C 706.798 875.603, 709.524 866.337, 711.043 861.248 C 712.561 856.160, 713.437 851.770, 712.990 851.494 C 710.150 849.739, 673.978 842.313, 655 839.589 C 615.181 833.874, 595.555 833.861, 512.500 839.495 C 453.969 843.466, 433.833 844.287, 409.500 843.694 C 378.947 842.951, 366.736 841.006, 354.173 834.883 C 347.122 831.446, 343.310 826.598, 338.931 815.500 C 336.873 810.284, 336.571 807.867, 336.617 797 C 336.662 786.362, 337.075 783.159, 339.392 775.500 C 344.984 757.013, 359.237 732.537, 378.250 708.772 C 393.884 689.231, 407.751 674.270, 448.016 633.500 C 499.952 580.913, 511.935 567.410, 522.996 549.007 C 530.205 537.012, 532.499 529.527, 532.500 518 C 532.500 509.373, 532.204 507.875, 529.278 501.698 C 522.967 488.374, 510.081 478.868, 491.500 473.829 C 480.630 470.881, 449.381 470.616, 432 473.323 C 411.164 476.569, 371.108 485.817, 361.604 489.576 C 359.771 490.301, 359.727 489.708, 360.290 471.913 C 361.337 438.855, 367.314 420.007, 400.540 345 C 431.255 275.662, 441.916 246.781, 448.526 215 C 454.713 185.259, 451 154.082, 436.318 112.500 C 434.376 107, 432.498 102.233, 432.144 101.907 C 431.790 101.580, 422.783 105.047, 412.128 109.611 M 484.120 284.221 C 483.076 286.656, 479.209 295.530, 475.526 303.940 C 471.844 312.350, 469.208 319.608, 469.670 320.070 C 470.716 321.116, 487.522 327.288, 499.500 331.026 C 529.172 340.284, 553.108 344.881, 582.919 347.045 C 620.636 349.782, 665.340 342.003, 708 325.278 C 714.325 322.798, 719.635 320.649, 719.800 320.502 C 720.054 320.274, 702.265 282.003, 701.546 281.231 C 701.408 281.083, 696.038 282.994, 689.613 285.477 C 669.640 293.197, 649.584 298.411, 625.500 302.145 C 614.950 303.781, 581.980 303.776, 570 302.137 C 543.817 298.554, 508.546 289.286, 487.759 280.527 C 486.373 279.942, 485.631 280.695, 484.120 284.221 " stroke="none" fill="black" fill-rule="evenodd"/>
</svg>