<svg xmlns="http://www.w3.org/2000/svg" width="1000" height="1000" viewBox="0 0 1000 1000" version="1.1">
	<path d="M 207.364 140.751 C 200.289 148.315, 193.650 155.506, 192.612 156.733 C 190.727 158.959, 190.733 158.975, 196.166 165.232 C 218.289 190.713, 233.806 220.468, 240.372 250 C 244.715 269.533, 245.157 279.327, 243.511 319.461 C 242.206 351.288, 240.756 390.095, 234.469 561.500 C 231.039 655.001, 231.274 679.434, 236.054 727 C 239.867 764.931, 250.649 842.982, 252.305 844.639 C 252.626 844.959, 294.266 838.067, 294.714 837.619 C 294.867 837.466, 293.665 828.827, 292.043 818.421 C 284.045 767.116, 277.790 711.932, 276.034 677.199 C 275.317 663.008, 275.441 646.890, 276.500 616.326 L 277.941 574.755 286.666 559.128 C 325.947 488.764, 373.324 417.943, 416.529 365 C 434.543 342.927, 448.962 326.941, 467.952 307.990 C 515.670 260.369, 556.513 234.164, 596.659 225.409 C 608.948 222.729, 627.998 223.111, 640.070 226.281 C 657.445 230.843, 671.102 239.098, 684.500 253.136 C 714.355 284.418, 731.436 337.371, 738.164 419.500 C 739.737 438.701, 739.729 505.080, 738.151 528 C 732.266 613.491, 721.678 672.659, 702.296 728.372 C 681.857 787.124, 654.711 823.692, 625.068 832.404 C 618.238 834.411, 603.446 834.488, 594.315 832.563 C 535.142 820.090, 459.786 748.050, 449.373 694 C 447.540 684.487, 448.352 677.711, 452.114 671.124 C 457.705 661.335, 469.798 657, 491.516 657 C 513.490 657, 541.690 662.551, 570.500 672.547 C 577.650 675.028, 583.861 677.157, 584.301 677.279 C 585.410 677.585, 601.265 639.133, 600.670 637.581 C 600.041 635.943, 567.043 625.028, 550.820 621.092 C 525.478 614.944, 514.508 613.559, 491.500 613.603 C 471.999 613.641, 469.786 613.834, 460.500 616.307 C 444.574 620.548, 435.138 625.754, 424.986 635.900 C 410.761 650.118, 405 664.297, 405 685.095 C 405 702.594, 409.057 717.990, 419.115 738.661 C 443.963 789.729, 500.046 842.514, 553.398 865.046 C 576.785 874.923, 594.717 878.615, 614.910 877.710 C 630.404 877.016, 639.975 874.613, 653.642 867.987 C 699.027 845.983, 734.269 787.400, 758.008 694.500 C 767.051 659.109, 772.427 628.461, 776.953 586.500 C 790.396 461.861, 782.888 355.665, 755.817 287.509 C 731.691 226.772, 691.685 190.253, 639.606 181.431 C 626.424 179.198, 599.641 179.906, 586.500 182.834 C 525.710 196.380, 462.732 242.583, 393.257 324.602 C 360.714 363.021, 319.897 419.699, 289.063 469.284 C 285.033 475.766, 281.600 480.934, 281.435 480.768 C 281.269 480.603, 281.558 469.675, 282.075 456.484 C 288.356 296.486, 288.839 277.235, 286.953 261.974 C 281.578 218.497, 261.282 173.978, 230.547 138.250 C 225.224 132.063, 220.725 127, 220.549 127 C 220.373 127, 214.440 133.188, 207.364 140.751 " stroke="none" fill="black" fill-rule="evenodd"/>
</svg>