<svg xmlns="http://www.w3.org/2000/svg" width="1000" height="1000" viewBox="0 0 1000 1000" version="1.1">
	<path d="M 459 86.630 C 448.275 91.336, 439.385 95.297, 439.244 95.432 C 439.104 95.567, 441.637 102.613, 444.873 111.089 C 461.056 153.467, 473.750 201.707, 478.525 238.971 C 481.383 261.272, 482.886 308.964, 481.352 328.673 L 480.715 336.845 477.014 334.509 C 462.141 325.120, 432.510 312.687, 412.843 307.584 C 400.539 304.391, 384.259 301.385, 383.515 302.169 C 383.138 302.566, 378.995 340.585, 378.998 343.621 C 379 345.475, 379.769 345.829, 385.122 346.434 C 409.847 349.232, 446.440 364.951, 473.250 384.291 C 476.962 386.969, 480 389.478, 480 389.866 C 480 390.607, 391.495 408.461, 370 412.056 C 363.125 413.206, 352.550 414.799, 346.500 415.596 C 314.821 419.772, 244.237 417.936, 164.749 410.868 C 151.137 409.658, 139.819 408.855, 139.599 409.084 C 138.837 409.878, 134.565 450.898, 135.181 451.514 C 137.141 453.474, 221.069 459.543, 267 461.046 C 333.416 463.219, 348.087 461.601, 454 440.427 C 520.275 427.177, 545.398 422.534, 577.500 417.601 C 691.924 400.017, 764.294 406.911, 792.451 438.078 L 796.300 442.338 794.145 444.084 C 787.924 449.121, 758.463 457.222, 721.750 463.990 C 709.788 466.196, 690.212 469.815, 678.250 472.033 C 622.911 482.294, 595.117 491.178, 576.261 504.634 C 558.631 517.213, 547.229 541.746, 542.509 577.250 C 541.907 581.780, 540.825 583.144, 539.515 581.024 C 538.426 579.263, 526.380 573.011, 519.324 570.546 C 508.490 566.761, 500.116 565.685, 486.107 566.280 C 445.006 568.027, 411.662 594.591, 403.392 632.176 C 401.288 641.740, 401.292 661.099, 403.401 670.786 C 408.380 693.653, 420.815 714.636, 438.399 729.841 C 446.419 736.776, 453.146 740.968, 463.426 745.437 L 471.060 748.755 447.395 765.542 C 405.380 795.347, 386.634 811.303, 375.934 826.367 C 365.249 841.409, 363.228 857.472, 370.261 871.455 C 373.223 877.345, 382.489 886.540, 390.486 891.524 C 411.689 904.739, 434.828 909.374, 479.500 909.353 C 522.462 909.334, 571.742 904.173, 631.709 893.415 C 642.594 891.462, 652.962 889.611, 654.750 889.301 C 656.538 888.992, 658.006 888.235, 658.014 887.619 C 658.032 886.248, 649.816 846.642, 649.411 846.144 C 649.251 845.948, 640.206 847.413, 629.310 849.401 C 601.687 854.439, 581.195 857.548, 556.606 860.430 C 520.286 864.688, 508.331 865.464, 479.500 865.434 C 450.556 865.403, 438.628 864.256, 426.500 860.339 C 420.527 858.409, 412.389 854.438, 411.517 853.027 C 411.173 852.472, 412.356 850.196, 414.144 847.970 C 421.742 838.516, 444.108 821.194, 493.500 786.513 C 530.586 760.472, 534.024 757.794, 545.064 746.340 C 555.275 735.747, 562.644 725.562, 568.464 714 C 577.538 695.971, 581.104 680.256, 580.944 659 C 580.848 646.293, 582.776 614.506, 585.068 591 C 586.328 578.082, 589.351 562.835, 592.162 555.221 C 596.720 542.879, 601.621 538.319, 616.500 532.578 C 635.983 525.060, 651.782 521.318, 705.377 511.531 C 725.109 507.927, 748.693 503.379, 757.786 501.424 C 805.388 491.187, 828.295 479.353, 837.739 460.121 C 840.224 455.062, 840.500 453.445, 840.500 443.948 C 840.500 433.797, 840.360 433.114, 836.809 425.948 C 827.738 407.643, 808.267 390.896, 783.930 380.465 C 768.133 373.695, 746.611 368.538, 723 365.864 C 710.639 364.465, 660.059 364.069, 649 365.286 L 642.500 366.001 645.958 363.250 C 669.600 344.447, 696.349 319.160, 708.637 304 C 736.675 269.407, 746.509 238.797, 738.947 209.652 C 730.582 177.409, 707.319 157.524, 670.825 151.422 C 662.729 150.068, 657.311 149.846, 644.562 150.342 C 630.366 150.895, 619.499 152.167, 618.244 153.423 C 618.013 153.654, 620.043 163.216, 622.755 174.671 C 627.154 193.252, 627.892 195.465, 629.593 195.177 C 630.642 194.999, 638.250 194.618, 646.500 194.329 C 662.837 193.758, 670.519 194.885, 679.711 199.203 C 695.322 206.536, 701.773 226.119, 694.629 244.488 C 681.551 278.110, 628.758 327.090, 557.862 371.376 C 547.852 377.628, 546.582 378.137, 536.362 379.995 C 530.388 381.081, 524.870 381.976, 524.100 381.985 C 522.944 381.997, 522.824 380.213, 523.412 371.750 C 526.150 332.366, 525.677 264.165, 522.484 238 C 516.927 192.468, 502.991 139.318, 483.899 90.838 C 481.118 83.777, 478.765 78.016, 478.671 78.037 C 478.577 78.057, 469.725 81.924, 459 86.630 M 302.748 173.249 C 269.563 191.448, 237.858 226.981, 220.882 265 C 216.495 274.825, 208.572 296.915, 209.212 297.537 C 209.826 298.133, 251.062 309.262, 251.285 308.892 C 251.415 308.677, 253.019 303.958, 254.851 298.406 C 266.800 262.181, 292.445 229.612, 322.750 212.171 C 326.188 210.193, 329 208.282, 329 207.925 C 329 205.722, 312.883 169.453, 311.813 169.249 C 311.091 169.111, 307.012 170.911, 302.748 173.249 M 482 610.136 C 469.207 612.233, 454.617 622.059, 449.534 632 C 435.360 659.725, 457.348 701.319, 489.737 708.051 C 502.228 710.647, 515.868 707.491, 521.636 700.672 C 530.089 690.679, 538.164 658.808, 535.183 647.211 C 530.378 628.524, 515.127 613.248, 498.040 610.008 C 491.974 608.857, 489.686 608.875, 482 610.136 " stroke="none" fill="black" fill-rule="evenodd"/>
</svg>