<svg xmlns="http://www.w3.org/2000/svg" width="1000" height="1000" viewBox="0 0 1000 1000" version="1.1">
	<path d="M 384.293 73.911 C 385.898 101.067, 402.989 124.943, 430.500 138.462 C 452.943 149.490, 476.344 153.108, 537.846 155.059 C 569.272 156.055, 647.323 155.011, 648.760 153.574 C 649.038 153.295, 648.869 143.489, 648.383 131.783 L 647.500 110.500 626.500 111 C 590.901 111.848, 524.363 111.333, 507 110.077 C 488.076 108.707, 471.870 106.622, 463.380 104.464 C 455.211 102.388, 444.231 96.835, 438.743 92.005 C 433.662 87.532, 428 77.416, 428 72.809 C 428 71.229, 427.438 69.737, 426.750 69.492 C 426.063 69.247, 416.101 67.984, 404.613 66.684 L 383.727 64.321 384.293 73.911 M 717 226.606 C 663.133 231.395, 601.288 245.548, 443 289.311 C 299.590 328.960, 242.797 341.335, 211.179 339.823 C 201.668 339.368, 196.493 337.208, 193.323 332.371 C 191.202 329.132, 192.904 323.025, 198.258 314.669 C 204.086 305.572, 225.463 284.880, 240.750 273.539 C 248.038 268.132, 254 263.571, 254 263.403 C 254 263.235, 248.776 254.973, 242.390 245.042 L 230.781 226.987 222.640 232.666 C 187.710 257.031, 162.105 284.531, 152.962 307.500 C 142.640 333.431, 150.846 358.310, 174.834 373.815 C 190.947 384.229, 211.982 386.217, 249.945 380.914 C 291.313 375.136, 336.975 364.031, 467.500 328.003 C 605.294 289.968, 661.618 276.830, 709.884 271.463 C 745.966 267.451, 771.375 272.208, 784.534 285.439 C 792.201 293.147, 793.687 300.385, 790.017 312.145 C 787.667 319.673, 782.350 327.015, 775.476 332.221 C 755.519 347.337, 674.252 357.633, 558.902 359.659 L 521.304 360.320 520.701 381.334 C 520.369 392.892, 520.369 402.789, 520.702 403.327 C 521.373 404.413, 571.557 403.648, 611.500 401.943 C 687.984 398.679, 749.613 390.409, 778.508 379.533 C 800.808 371.140, 816.229 357.736, 826.556 337.774 C 832.765 325.770, 835.219 316.052, 835.336 303 C 835.450 290.211, 834.101 284.199, 828.492 272.500 C 817.932 250.477, 797.176 236.361, 764.500 228.980 C 755.627 226.976, 728.239 225.607, 717 226.606 M 420.449 409.885 C 418.610 411.723, 421.288 433.636, 424.658 444.328 C 436.643 482.355, 465.838 506.333, 516 519.345 C 525.517 521.813, 545.531 525.339, 556.171 526.422 C 561.742 526.989, 561.850 526.951, 562.363 524.249 C 562.649 522.737, 563.179 512.878, 563.540 502.340 L 564.196 483.180 557.348 482.505 C 553.582 482.133, 544.980 480.739, 538.233 479.406 C 491.161 470.104, 467.175 451.099, 464.352 420.866 L 463.745 414.365 442.321 411.900 C 430.538 410.545, 420.695 409.638, 420.449 409.885 M 375.070 578.250 C 373.505 581.688, 370.874 587.425, 369.224 591 C 367.574 594.575, 364.847 600.527, 363.165 604.226 L 360.105 610.953 364.691 612.982 C 381.357 620.353, 410.724 629.440, 432.483 633.958 C 455.663 638.771, 470.859 640.040, 517.500 641.058 C 541.150 641.574, 563.146 642.416, 566.379 642.929 C 581.865 645.387, 590.800 648.834, 596.258 654.453 C 601.406 659.755, 603.153 665.503, 603.736 679.070 C 604.144 688.564, 603.870 692.078, 602.204 698.663 C 592.933 735.326, 544.322 790.329, 463 856.172 C 449.120 867.410, 410.323 896.957, 403.975 901.125 L 401.500 902.750 407.967 912.125 C 422.320 932.931, 425.548 937.359, 426.614 937.710 C 427.970 938.156, 464.977 910.642, 489 891.328 C 573.991 822.997, 627.305 762.698, 642.248 718 C 646.665 704.785, 647.418 699.419, 647.368 681.500 C 647.313 661.718, 645.749 654.095, 638.853 640 C 635.550 633.249, 633.028 629.853, 626.597 623.500 C 616.934 613.953, 610.204 609.814, 597.205 605.423 C 579.165 599.331, 556.874 597.064, 514.500 597.012 C 475.249 596.964, 455.285 594.880, 427.908 587.974 C 415.422 584.825, 398.898 579.507, 387.224 574.883 C 383.222 573.297, 379.491 572, 378.932 572 C 378.373 572, 376.636 574.813, 375.070 578.250 " stroke="none" fill="black" fill-rule="evenodd"/>
</svg>