<svg xmlns="http://www.w3.org/2000/svg" width="1000" height="1000" viewBox="0 0 1000 1000" version="1.1">
	<path d="M 494.376 76.263 L 475.252 83.371 478.151 91.935 C 486.101 115.417, 495.683 149.858, 502.374 179 C 506.223 195.765, 514 235.697, 514 238.698 C 514 239.701, 507.920 240.626, 465.541 246.069 C 369.155 258.448, 336.252 257.919, 306.432 243.513 C 301.444 241.104, 295.139 237.132, 292.420 234.688 L 287.477 230.244 269.585 240.575 C 259.744 246.258, 251.279 251.321, 250.773 251.827 C 249.320 253.280, 257.655 262.753, 266.998 270.267 C 290.203 288.928, 325.809 299.013, 368.424 298.994 C 389.621 298.985, 432.193 294.793, 490.281 286.996 C 506.306 284.845, 519.502 283.178, 519.605 283.292 C 519.707 283.407, 520.289 291.825, 520.898 302 C 522.152 322.949, 522.309 347.856, 521.340 372.404 L 520.681 389.128 515.590 391.698 C 486.231 406.519, 432.914 439.469, 392.951 467.488 C 337.585 506.307, 266.620 563.221, 219.383 606.690 C 213.819 611.811, 209.037 616, 208.756 616 C 207.986 616, 204.383 607.258, 201.066 597.342 C 193.865 575.818, 191.443 556.567, 192.411 528.567 C 193.399 500.009, 197.488 461.645, 202.860 430.526 C 204.156 423.020, 204.378 419.726, 203.604 419.494 C 201.862 418.971, 163.429 412, 162.288 412 C 161.724 412, 161.014 413.688, 160.710 415.750 C 152.712 469.926, 150.603 488.446, 148.990 518.632 C 147.232 551.520, 149.554 576.735, 156.604 601.317 C 163.566 625.595, 173.253 646.945, 187.765 670 C 192.439 677.425, 196.345 683.603, 196.444 683.729 C 196.888 684.291, 228.250 658.009, 238.331 648.627 C 322.860 569.962, 424.258 493.995, 513.265 442.647 L 518.029 439.898 517.497 445.199 C 517.204 448.115, 516.072 460.625, 514.982 473 C 513.891 485.375, 511.612 507.800, 509.917 522.834 C 508.222 537.868, 506.986 550.320, 507.171 550.504 C 507.356 550.689, 517.043 552.139, 528.698 553.727 L 549.889 556.614 550.446 553.057 C 553.582 533.035, 562.993 433.050, 562.999 419.692 C 563 417.117, 563.807 416.510, 572.736 412.365 C 586.425 406.011, 612.240 395.931, 627 391.176 C 670.659 377.109, 709.093 372.962, 740.095 378.971 C 764.334 383.669, 791.334 396.281, 803.765 408.713 C 815.035 419.983, 814.784 433.478, 802.976 451.130 C 791.866 467.739, 760.195 494.808, 729.289 514.113 C 679.980 544.911, 629.134 569.682, 540.272 606.198 L 533.044 609.168 534.356 612.334 C 535.077 614.075, 538.711 623.219, 542.432 632.653 L 549.196 649.807 566.256 642.838 C 667.894 601.321, 743.436 561.415, 791.927 523.626 C 810.511 509.143, 829.945 489.338, 839.814 474.824 C 844.459 467.994, 850.463 455.522, 852.969 447.500 C 857.416 433.265, 856.559 414.468, 850.857 401.167 C 845.777 389.316, 831.514 373.070, 818.500 364.311 C 804.612 354.964, 782.561 345.007, 763.736 339.582 C 714.299 325.336, 651.709 332.927, 579.517 361.926 L 565.500 367.557 565.401 336.028 C 565.347 318.688, 564.763 298.465, 564.104 291.088 C 563.187 280.821, 563.182 277.506, 564.081 276.950 C 564.727 276.550, 567.561 275.929, 570.378 275.569 C 573.195 275.209, 595.975 271.769, 621 267.924 C 660.031 261.927, 681.993 258.407, 749 247.409 C 754.775 246.462, 759.603 245.616, 759.730 245.530 C 760.097 245.281, 752.862 203.549, 752.363 203.039 C 752.115 202.786, 737.644 204.924, 720.206 207.791 C 657.201 218.148, 562.016 233, 558.639 233 C 557.892 233, 556.773 228.952, 555.667 222.250 C 548.787 180.533, 537.154 133.100, 522.804 88.250 C 518.184 73.813, 516.251 69.020, 515.072 69.078 C 514.207 69.121, 504.894 72.354, 494.376 76.263 M 428.174 664.133 C 421.395 673.499, 416.067 681.732, 416.335 682.430 C 416.957 684.051, 454.519 709.323, 471.357 719.449 C 487.335 729.059, 504.575 737.694, 517 742.312 C 533.670 748.507, 592.656 763.633, 611.612 766.574 L 615.723 767.211 619.765 746.356 C 621.989 734.885, 623.514 725.212, 623.154 724.860 C 622.794 724.509, 615.750 722.786, 607.500 721.033 C 583.669 715.969, 553.836 708.314, 538.878 703.425 C 516.367 696.068, 490.188 681.386, 452.352 654.896 C 446.148 650.553, 440.944 647.024, 440.787 647.052 C 440.629 647.081, 434.953 654.768, 428.174 664.133 M 453.831 840.061 C 445.949 848.345, 439.369 855.487, 439.209 855.934 C 438.804 857.065, 446.914 863.680, 457 870.444 C 467.261 877.325, 493.805 890.535, 507.327 895.490 C 535.684 905.880, 569.754 912.916, 628.160 920.442 C 662.816 924.908, 717.629 930.347, 719.061 929.462 C 719.746 929.039, 722.503 887.159, 721.884 886.569 C 721.673 886.367, 713.175 885.468, 703 884.572 C 649.282 879.840, 586.799 871.256, 556.174 864.401 C 526.604 857.782, 493.632 843.724, 475.515 830.012 C 471.874 827.255, 468.729 825, 468.528 825 C 468.326 825, 461.712 831.777, 453.831 840.061 " stroke="none" fill="black" fill-rule="evenodd"/>
</svg>