<svg xmlns="http://www.w3.org/2000/svg" width="1000" height="1000" viewBox="0 0 1000 1000" version="1.1">
	<path d="M 340.500 92.705 C 330.050 95.748, 321.412 98.310, 321.304 98.398 C 321.196 98.487, 322.405 103.721, 323.992 110.030 C 330.648 136.502, 336.401 169.195, 339.560 198.500 C 341.521 216.689, 341.920 260.186, 340.146 262.324 C 337.028 266.082, 311.977 267.104, 297.290 264.073 C 282.518 261.025, 264.035 252.065, 253.635 242.910 L 249.203 239.009 233.851 253.703 C 225.408 261.784, 218.369 268.699, 218.210 269.069 C 217.267 271.254, 240.401 288.166, 252.939 294.458 C 263.063 299.538, 277.438 304.589, 289 307.128 C 297.514 308.997, 302.574 309.439, 315.749 309.467 C 324.686 309.485, 331.999 309.774, 331.999 310.110 C 332.001 311.697, 320.719 349.711, 317.489 359 C 309.279 382.608, 295.024 416.488, 282.492 442.180 C 280.414 446.438, 280.463 446.422, 264.009 448.459 C 233.247 452.267, 176.775 452.487, 138.615 448.947 C 132.628 448.392, 127.556 448.111, 127.343 448.323 C 126.737 448.929, 122.556 490.892, 123.055 491.362 C 124.713 492.923, 164.887 494.500, 203 494.500 C 270.426 494.500, 287.513 491.998, 339.471 474.519 C 354.855 469.344, 367.587 465.253, 367.763 465.430 C 367.939 465.606, 362.069 474.919, 354.719 486.125 C 311.374 552.208, 294.570 582.696, 267.626 644.148 C 245.316 695.029, 200.004 805.411, 201.050 806.328 C 201.298 806.544, 209.037 811.942, 218.249 818.322 L 234.997 829.922 283.249 781.331 C 384.260 679.608, 458.518 610.836, 511 570.404 C 530.153 555.648, 613.391 497.530, 640.500 479.984 C 692.376 446.408, 730.408 429.022, 752 429.011 C 760.855 429.006, 764.210 431.150, 768.049 439.266 C 774.546 452.999, 771.788 459.938, 749.473 486 C 724.780 514.839, 717.593 529.579, 717.537 551.500 C 717.495 568.108, 721.961 578.784, 733.690 590.112 C 743.295 599.389, 750.962 603.791, 779.677 616.519 C 787.830 620.133, 797.441 624.832, 801.036 626.962 C 808.423 631.339, 816.406 639.333, 818.576 644.527 C 822.191 653.180, 821.213 666.632, 816.252 676.500 C 812.554 683.856, 808.484 688.591, 800.205 695.170 C 788.773 704.255, 775.902 711.336, 745.649 725.185 C 696.866 747.516, 681.936 756.644, 669.460 771.769 C 659.426 783.934, 654.923 796.397, 654.923 812 C 654.923 845.805, 677.998 870.919, 722.500 885.547 C 749.505 894.424, 790.329 900, 828.310 900 L 839.153 900 838.552 887.250 C 838.221 880.237, 837.700 870.407, 837.393 865.404 L 836.837 856.309 816.168 855.684 C 756.339 853.875, 712.328 841.201, 701.580 822.688 C 692.557 807.145, 701.247 795.338, 733.623 779.147 C 740.291 775.813, 751.766 770.413, 759.123 767.146 C 801.925 748.145, 820.738 736.974, 837.031 720.885 C 853.095 705.021, 861.550 688.020, 863.913 666.827 C 866.464 643.951, 859.846 622.718, 845.252 606.955 C 833.918 594.713, 823.558 588.245, 794.384 575.196 C 765.045 562.074, 760.999 559.154, 761.001 551.104 C 761.002 542.186, 766.269 533.620, 785.964 510.500 C 802.916 490.601, 809.241 480.012, 813.089 465.090 C 817.828 446.715, 813.294 426.377, 800.446 408.371 C 786.980 389.501, 763.798 381.607, 736.143 386.473 C 704.426 392.055, 666.266 410.740, 607.500 449.462 C 580.625 467.170, 513.137 514.316, 491.457 530.527 C 448.438 562.695, 392.345 612.765, 314.750 688.262 C 297.837 704.717, 284 717.874, 284 717.500 C 284 716.674, 300.857 677.100, 311.475 653 C 322.787 627.322, 336.503 599.487, 345.967 583 C 364.845 550.114, 402.258 492.387, 430.481 452.599 C 437.465 442.753, 443.374 434.189, 443.613 433.566 C 443.936 432.726, 423.244 400.911, 420.758 398.425 C 420.538 398.204, 415.889 399.859, 410.429 402.101 C 395.180 408.363, 339.131 429, 337.373 429 C 337.153 429, 337.694 427.312, 338.575 425.250 C 355.654 385.269, 368.727 345.890, 376.430 311.220 L 379.701 296.500 397.100 290.207 C 418.345 282.524, 463.608 265.657, 478.250 259.969 C 484.163 257.671, 489 255.265, 489 254.620 C 489 253.605, 474.233 215.946, 473.557 215.236 C 473.419 215.091, 465.024 218.176, 454.903 222.091 C 444.781 226.006, 425.025 233.405, 411 238.534 L 385.500 247.859 384.881 226.180 C 384.541 214.256, 383.738 199.550, 383.098 193.500 C 380.116 165.334, 372.902 124.559, 366.291 98.500 C 363.948 89.265, 363.179 87.474, 361.500 87.336 C 360.400 87.246, 350.950 89.662, 340.500 92.705 " stroke="none" fill="black" fill-rule="evenodd"/>
</svg>