<svg xmlns="http://www.w3.org/2000/svg" width="1000" height="1000" viewBox="0 0 1000 1000" version="1.1">
	<path d="M 622 96.272 C 611.275 97.928, 602.325 99.433, 602.111 99.614 C 601.897 99.796, 602.917 110.195, 604.379 122.722 C 608.060 154.278, 610.622 183.020, 612.425 213 C 613.269 227.025, 614.194 242.176, 614.479 246.669 L 614.999 254.838 599.750 263.565 C 525.469 306.073, 425.924 381.098, 339.691 459.565 C 328.247 469.979, 316.268 480.869, 313.072 483.764 L 307.261 489.029 306.635 482.264 C 301.063 422.068, 299.756 361.926, 303.380 332.500 C 310.948 271.045, 332.738 201.505, 364.023 138.969 L 371.792 123.438 353.146 112.870 C 342.891 107.058, 334.118 102.513, 333.652 102.771 C 332.172 103.588, 315.418 138.431, 307.668 156.810 C 276.148 231.557, 259.612 299.007, 257.363 362 C 256.717 380.085, 258.004 416.922, 260.559 453.500 C 262.381 479.580, 265.846 521.449, 266.527 525.600 C 266.996 528.466, 265.926 529.868, 252.424 544.100 C 190.809 609.042, 156.890 656.872, 143.233 698.076 C 136.120 719.535, 134.584 728.771, 134.598 750 C 134.609 766.459, 134.902 769.741, 137.250 779.747 C 148.447 827.464, 184.339 868.906, 239.196 897.460 C 258.259 907.382, 260.333 908.024, 279.973 910.068 C 289.584 911.068, 297.515 911.799, 297.598 911.693 C 297.681 911.587, 299.812 902.950, 302.334 892.500 C 307.671 870.379, 312.840 843.529, 316.385 819.500 C 327.889 741.534, 327.839 707.202, 316.040 585.948 L 312.104 545.500 323.302 534.662 C 399.899 460.528, 489.411 387.382, 566.500 335.932 C 584.888 323.659, 614.602 305, 615.757 305 C 616.481 305, 615.091 391.669, 614.183 403.108 L 613.500 411.715 596.500 428.175 C 565.931 457.772, 539.976 481.077, 506.750 508.759 C 495.887 517.809, 487 525.674, 487 526.236 C 487 528.275, 512.262 584, 513.186 584 C 513.709 584, 519.393 580.456, 525.818 576.124 C 540.909 565.950, 550.975 560.322, 568.929 552.021 C 585.970 544.142, 604.765 536.429, 605.385 537.059 C 605.808 537.489, 602.195 578.686, 599.658 602.354 C 598.417 613.930, 598.436 614.238, 600.444 615.476 C 604.613 618.047, 628.793 631, 629.424 631 C 629.783 631, 633.997 628.387, 638.788 625.194 C 650.097 617.657, 654.315 615.256, 670.050 607.400 C 716.689 584.115, 756.986 577.895, 781.908 590.134 C 794.660 596.396, 810.607 614.827, 819.515 633.599 C 844.608 686.478, 837.578 762.948, 802.838 814.996 C 799.352 820.219, 792 829.079, 786.500 834.685 L 776.500 844.878 765.206 832.452 C 724.923 788.134, 680.207 758.918, 642.632 752.367 C 604.868 745.783, 571.290 763.697, 560.845 796 C 557.857 805.242, 557.184 823.234, 559.446 833.401 C 566.811 866.504, 593.170 893.067, 632.388 906.905 C 653.765 914.448, 686.271 918.304, 710.667 916.190 C 733.488 914.213, 750.067 909.801, 769.709 900.478 C 818.195 877.465, 855.145 828.940, 870.529 768.076 C 875.567 748.144, 877.193 735.594, 877.734 712.473 C 878.447 681.993, 875.604 660.907, 867.356 635.500 C 863.548 623.771, 853.878 604.009, 846.590 593.061 C 839.110 581.825, 825.622 567.153, 816.186 559.985 C 791.999 541.614, 757.856 535.867, 719 543.628 C 700.700 547.283, 672.972 556.996, 654.750 566.135 C 649.913 568.561, 647.003 569.548, 647.007 568.761 C 647.020 566.286, 651.052 520.615, 651.274 520.426 C 651.742 520.025, 678.882 512.017, 688 509.589 C 734.723 497.147, 799.659 491.250, 847.258 495.126 C 854.861 495.745, 861.401 495.932, 861.791 495.542 C 862.181 495.153, 862.659 484.624, 862.853 472.145 L 863.207 449.456 852.353 440.518 C 833.918 425.334, 805.734 395.736, 794.667 379.935 C 793.200 377.841, 792.857 378.043, 775.837 391.009 C 766.301 398.273, 758.611 404.505, 758.747 404.858 C 759.395 406.544, 777.905 428.714, 786.826 438.489 C 792.342 444.533, 796.720 449.613, 796.555 449.778 C 796.390 449.943, 789.560 450.513, 781.377 451.044 C 742.147 453.589, 704.424 459.775, 668.192 469.606 C 660.872 471.592, 654.763 473.056, 654.615 472.858 C 654.468 472.661, 654.934 462.909, 655.651 451.187 L 656.954 429.874 670.368 415.187 C 726.037 354.232, 750.726 313.795, 754.430 277.500 C 755.320 268.787, 752.826 256.056, 748.526 247.356 C 744.772 239.759, 737.819 232.479, 730.992 228.996 C 716.580 221.643, 693.845 222.459, 668.166 231.251 L 658.038 234.719 657.569 231.610 C 657.312 229.899, 656.843 223.100, 656.527 216.500 C 655.242 189.637, 651.001 142.412, 646.972 110.117 C 645.900 101.528, 645.018 94.162, 645.012 93.750 C 644.996 92.745, 644.430 92.807, 622 96.272 M 697.500 268.464 C 689.884 269.860, 678.688 273.524, 667.150 278.396 L 659.801 281.500 659.650 321.250 C 659.568 343.112, 659.725 360.983, 660 360.963 C 661.041 360.887, 679.842 336.346, 687.801 324.674 C 704.355 300.398, 714.908 273.308, 709.800 268.200 C 708.355 266.755, 706.617 266.792, 697.500 268.464 M 599 486.098 L 588.500 495.968 597 492.863 C 601.675 491.155, 606.292 489.534, 607.261 489.259 C 609.396 488.655, 610.238 485.700, 609.816 480.284 L 609.500 476.227 599 486.098 M 266.869 592.756 C 248.662 611.767, 221.093 646.182, 207.282 667.139 C 186.529 698.634, 177.161 726.713, 178.303 754 C 179.099 773.025, 183.596 786.843, 194.450 803.621 C 202.781 816.498, 221.932 835.122, 237.785 845.764 C 249.217 853.438, 263.748 861.586, 264.557 860.776 C 265.223 860.110, 271.929 821.485, 274.414 804 C 281.593 753.498, 282.935 712.857, 279.061 663.293 C 276.514 630.717, 272.633 589.428, 272.054 588.756 C 271.701 588.347, 269.368 590.147, 266.869 592.756 M 614.018 797.013 C 608.408 799.638, 606.266 801.562, 603.989 806.023 C 601.111 811.662, 600.605 817.908, 602.444 825.088 C 610.217 855.428, 651.043 874.841, 702.500 872.665 C 715.793 872.103, 731.740 869.420, 735.768 867.068 C 737.254 866.201, 735.296 863.883, 722 850.765 C 693.666 822.812, 670.575 806.703, 646.926 798.390 C 636.329 794.666, 620.453 794.001, 614.018 797.013 " stroke="none" fill="black" fill-rule="evenodd"/>
</svg>