<svg xmlns="http://www.w3.org/2000/svg" width="1000" height="1000" viewBox="0 0 1000 1000" version="1.1">
	<path d="M 633 81.828 C 615.563 87.661, 605.252 97.466, 594.993 117.972 C 585.279 137.387, 577.316 169.883, 574.034 203.500 C 573.443 209.550, 572.724 216.364, 572.435 218.642 L 571.910 222.785 552.705 223.499 C 509.995 225.087, 441.095 220.017, 388.834 211.440 C 380.655 210.098, 373.362 209, 372.627 209 C 371.687 209, 370.039 215.261, 367.075 230.096 C 364.756 241.699, 363.003 251.308, 363.180 251.450 C 363.912 252.037, 403.729 258.110, 419 259.964 C 462.251 265.215, 492.546 267.034, 536.665 267.028 L 571 267.023 571.010 276.762 C 571.032 298.574, 574.193 330.047, 578.533 351.657 C 584.767 382.703, 592.591 397.930, 611.515 415.842 C 625.321 428.911, 643.346 440.222, 663.664 448.568 C 668.524 450.564, 672.846 452.521, 673.269 452.918 C 673.692 453.314, 667.392 456.031, 659.269 458.956 C 601.826 479.641, 547.243 504.987, 516 525.485 C 499.289 536.449, 494.038 540.530, 484.109 550.269 C 470.363 563.753, 462.978 576.707, 460.790 591.174 C 457.126 615.403, 477.356 644.057, 506.932 656.530 C 515.705 660.231, 526.344 663.333, 536 665.009 C 539.575 665.629, 543.502 666.337, 544.727 666.581 C 546.667 666.969, 545.831 668.034, 538.227 674.862 C 484.734 722.894, 461.491 772.914, 473.574 814 C 479.313 833.518, 493.820 852.249, 514.850 867.296 C 559.632 899.339, 630.773 921.375, 707.500 926.971 C 722.662 928.077, 777.231 928.211, 780.512 927.150 L 782.523 926.500 780.587 905.130 L 778.650 883.759 762.075 884.435 C 743.750 885.182, 710.860 883.799, 690.015 881.404 C 643.081 876.013, 603.403 865.083, 568.500 847.933 C 549.939 838.813, 537.052 830.337, 528.416 821.569 C 511.561 804.457, 509.847 787.458, 522.461 762.500 C 530.147 747.295, 538.802 736.114, 556.957 717.941 C 575.878 699.001, 591.336 686.630, 618.769 668.474 C 619.090 668.261, 603.176 622.843, 602.568 622.234 C 602.336 622.003, 597.156 622.365, 591.057 623.038 C 578.445 624.431, 551.514 623.872, 543 622.041 C 525.366 618.249, 512.546 611.559, 507.071 603.293 C 503.429 597.796, 503.374 597.147, 506.090 591.823 C 510.409 583.357, 526.251 570.032, 546.927 557.473 C 587.237 532.990, 667.491 499.904, 739.500 478.084 L 758.500 472.327 759.326 450.084 C 759.781 437.850, 759.935 427.274, 759.670 426.582 C 759.351 425.752, 754.824 424.922, 746.393 424.146 C 712.446 421.023, 677.319 409.712, 654.581 394.582 C 644.050 387.576, 631.615 374.639, 628.381 367.326 C 621.011 350.662, 615 309.856, 615 276.491 L 615 263.091 618.250 262.553 C 620.038 262.258, 628.700 261.094, 637.500 259.968 C 672.169 255.530, 729.793 246.160, 788 235.496 C 829.722 227.852, 874.378 218.983, 875.182 218.180 C 875.913 217.452, 867.806 177.473, 866.705 176.371 C 866.343 176.010, 863.449 176.255, 860.274 176.916 C 824.983 184.259, 755.115 197.156, 708.470 204.937 C 675.716 210.401, 624.135 217.994, 619.750 217.998 C 617.179 218, 617.001 217.724, 617.016 213.750 C 617.040 207.238, 620.627 183.405, 623.534 170.442 C 628.352 148.961, 635.035 132.215, 641.114 126.390 C 644.805 122.855, 649.729 122.739, 658 125.995 C 668.714 130.211, 689.193 145.707, 700.825 158.398 C 703.203 160.994, 705.536 162.978, 706.009 162.808 C 706.482 162.639, 714.041 156.434, 722.806 149.020 L 738.743 135.541 732.789 128.842 C 720.669 115.205, 698.946 97.859, 684.679 90.428 C 670.036 82.800, 663.198 80.818, 650 80.374 C 640.743 80.063, 637.427 80.347, 633 81.828 M 291.691 142.289 L 272.881 147.376 273.691 153.938 C 274.136 157.547, 274.458 169.275, 274.407 180 C 274.327 196.995, 273.975 201.125, 271.672 212.150 C 262.744 254.883, 247.636 280.673, 189.280 352.794 C 151.396 399.614, 139.771 417.660, 134.781 437.395 C 131.048 452.156, 133.662 466.399, 142.983 482.088 C 146.797 488.508, 151.746 494.898, 173.765 521.836 C 191.227 543.199, 200.605 562.325, 204.461 584.436 C 205.317 589.346, 206.476 604.167, 207.036 617.372 C 208.480 651.417, 206.692 696.726, 200.872 773.500 C 199.640 789.751, 200.243 826.113, 201.967 839.500 C 206.296 873.116, 207.329 879, 208.909 879.010 C 211.484 879.026, 249.414 869.774, 250.413 868.886 C 250.914 868.440, 252.118 860.296, 253.087 850.787 C 256.250 819.753, 262.578 787.363, 269.553 766.500 C 279.174 737.722, 307.520 684.096, 334.125 644.340 L 340.924 634.180 324.050 622.593 C 314.770 616.219, 306.523 610.754, 305.725 610.448 C 304.708 610.058, 301.846 613.626, 296.171 622.358 C 284.575 640.200, 268.024 668.038, 258.482 685.748 L 250.267 700.995 250.767 657.748 C 251.303 611.437, 250.391 591.282, 246.958 573.550 C 242.915 552.668, 234.343 532.062, 222.139 513.893 C 215.580 504.128, 210.507 497.591, 191.819 474.828 C 182.028 462.902, 177 454.592, 177 450.337 C 177 445.914, 180.756 437.715, 187.574 427.256 C 195.063 415.766, 200.943 408.088, 229.505 372.500 C 268.114 324.395, 281.379 305.159, 295.016 277.500 C 312.203 242.642, 319.972 207.339, 318.673 170 C 318.172 155.598, 317.384 148.065, 315.454 139.250 C 314.785 136.193, 313.736 136.327, 291.691 142.289 " stroke="none" fill="black" fill-rule="evenodd"/>
</svg>