<svg xmlns="http://www.w3.org/2000/svg" width="1000" height="1000" viewBox="0 0 1000 1000" version="1.1">
	<path d="M 675.500 112.657 C 636.167 114.090, 591.656 120.809, 523.500 135.603 C 439.623 153.808, 429.619 155.703, 403 158.428 C 373.436 161.455, 346.594 162.281, 297.005 161.692 C 241.697 161.035, 220.423 159.941, 164.673 154.889 C 152.118 153.751, 141.696 152.973, 141.513 153.160 C 141.330 153.347, 140.224 161.825, 139.055 172 C 137.885 182.175, 136.696 191.683, 136.412 193.129 C 135.766 196.408, 135.208 196.295, 165 198.938 C 271.666 208.400, 367.808 208.389, 432.500 198.906 C 448.575 196.550, 456.031 195.046, 509.500 183.371 C 592.051 165.348, 626.832 159.489, 666.500 156.924 C 719.709 153.485, 756.353 163.253, 770.565 184.664 C 779.481 198.096, 781.308 212.615, 775.516 223.994 C 762.129 250.292, 705.779 275.012, 631 287.391 C 618.909 289.392, 617.521 289.828, 617.703 291.563 C 619.022 304.151, 622.285 332.553, 622.433 332.729 C 622.783 333.147, 642.323 330.028, 655.500 327.450 C 750.910 308.784, 808.055 274.383, 820.705 228 C 823.531 217.638, 823.035 198.991, 819.633 187.704 C 810.017 155.801, 787.416 133.142, 754.063 121.968 C 733.756 115.164, 703.877 111.623, 675.500 112.657 M 563.500 342.139 C 551.950 342.491, 537.100 343.318, 530.500 343.977 C 519.370 345.088, 490.564 350.103, 489.563 351.104 C 489.321 351.346, 489.962 367.509, 490.987 387.022 C 493.843 441.358, 495.384 476.949, 494.902 477.432 C 491.894 480.439, 379.616 481.746, 343 479.199 C 301.273 476.297, 268.825 473.039, 234.717 468.327 C 224.386 466.900, 215.702 465.965, 215.419 466.248 C 215.002 466.665, 208.058 505.932, 208.013 508.128 C 207.975 509.993, 279.642 518.408, 321.500 521.453 C 375.025 525.346, 440.281 525.961, 480.296 522.948 C 488.984 522.294, 496.363 522.029, 496.693 522.360 C 497.410 523.076, 498.407 545.607, 500.060 598.411 C 501.455 642.959, 500.849 696.995, 498.559 732.500 C 496.607 762.747, 492.179 821.952, 491.393 828.299 L 490.799 833.099 477.649 820.256 C 445.480 788.837, 414.649 769.272, 330.258 726.723 C 316.925 720, 306.026 714.275, 306.037 714 C 306.049 713.725, 308.856 711.475, 312.275 709 C 332.915 694.060, 404 636.607, 404 634.865 C 404 634.249, 398.174 627.377, 378.876 605.231 L 376.028 601.962 355.764 618.803 C 280.850 681.062, 215.123 727.184, 181.165 741.325 C 175.299 743.768, 169.262 746.053, 167.750 746.402 C 165.172 746.998, 165 746.830, 165 743.694 C 165 733.769, 177.248 708.567, 193.625 684.794 C 197.681 678.906, 201 673.919, 201 673.712 C 201 673.180, 168.710 648.210, 167.518 647.821 C 166.283 647.417, 157.097 660.079, 148.030 674.681 C 117.114 724.471, 112.697 759.291, 134.662 780.065 C 152.934 797.345, 178.457 794.189, 223.500 769.079 C 235.561 762.356, 277.372 734.992, 291.764 724.403 C 299.065 719.032, 299.071 718.915, 291.191 734.621 C 288.465 740.055, 285.538 746.167, 284.687 748.205 L 283.140 751.910 317.320 769.303 C 371.083 796.661, 401.736 814.228, 421.753 829.151 C 433.796 838.130, 466.390 870.605, 474.447 881.655 L 480.394 889.809 486.447 890.390 C 497.966 891.496, 529.040 893.293, 529.456 892.877 C 530.512 891.821, 539.985 772.412, 543.011 722 C 545.656 677.951, 545.338 627.113, 541.894 543.176 C 541.300 528.698, 540.968 516.701, 541.157 516.516 C 541.346 516.330, 549.375 514.570, 559 512.604 C 600.795 504.066, 684.732 480.239, 725.500 465.340 C 739.286 460.302, 765.864 447.969, 770.416 444.498 C 772.278 443.078, 772.170 442.474, 766.492 422.769 C 763.281 411.621, 760.032 401.239, 759.274 399.697 C 757.174 395.433, 744.572 382.608, 736.541 376.563 C 715.631 360.826, 687.973 349.976, 657.513 345.560 C 636.019 342.445, 598.414 341.076, 563.500 342.139 M 553.557 386.176 C 543.688 386.659, 535.441 387.225, 535.232 387.435 C 534.867 387.800, 537.294 441.743, 538.601 462.305 L 539.224 472.110 542.362 471.473 C 566.045 466.670, 609.800 455.486, 644.500 445.366 C 685.642 433.368, 720.164 421.512, 719.370 419.652 C 718.578 417.797, 708.436 409.815, 701.707 405.751 C 693.177 400.599, 680.314 395.340, 669.111 392.427 C 645.373 386.253, 601.048 383.855, 553.557 386.176 M 623.669 602.250 C 622.350 607.661, 615.907 642.226, 616.188 642.375 C 616.360 642.466, 622.575 644.045, 630 645.885 C 677.307 657.605, 722.933 677.777, 752.637 700.103 C 777.807 719.021, 809.660 754.768, 836.096 793.765 C 843.616 804.857, 847.513 809.787, 848.350 809.265 C 849.025 808.844, 857.323 803.827, 866.789 798.115 C 876.255 792.403, 884 787.422, 884 787.044 C 884 785.897, 864.987 758.215, 855.775 745.952 C 804.227 677.323, 759.752 643.583, 686 617.157 C 666.534 610.183, 630.845 600, 625.865 600 C 624.959 600, 623.970 601.013, 623.669 602.250 " stroke="none" fill="black" fill-rule="evenodd"/>
</svg>