<svg xmlns="http://www.w3.org/2000/svg" width="1000" height="1000" viewBox="0 0 1000 1000" version="1.1">
	<path d="M 627.500 89.064 C 587.109 93.153, 535.255 119.762, 477 166.293 C 459.268 180.456, 441.500 196.145, 441.500 197.639 C 441.500 198.197, 448.060 205.530, 456.078 213.933 L 470.656 229.213 476.578 223.790 C 493.603 208.199, 522.286 185.808, 542.500 172.330 C 591.034 139.968, 629.541 126.722, 652.286 134.562 C 665.919 139.263, 679.181 160.011, 687.909 190.296 C 699.758 231.415, 705 281.375, 705 353.201 L 705 389.179 684.250 388.497 C 648.707 387.328, 589.835 390.377, 550.018 395.448 C 540.383 396.676, 532.396 397.610, 532.268 397.524 C 532.140 397.439, 532.944 394.248, 534.055 390.434 C 541.197 365.909, 555.837 300.308, 557.590 284.979 L 558.222 279.458 538.361 276.702 C 527.437 275.186, 517.753 273.958, 516.840 273.973 C 515.561 273.994, 514.908 275.662, 513.990 281.250 C 509.710 307.301, 499.116 353.310, 490.014 385.372 C 484.357 405.296, 483.666 406.996, 481.215 407.009 C 478.177 407.025, 443.070 415.902, 423.500 421.603 C 399.884 428.483, 360.097 441.744, 337.070 450.412 C 327.483 454.020, 319.441 456.774, 319.197 456.531 C 318.597 455.930, 324.196 432.161, 329.688 412 C 345.479 354.023, 376.175 269.239, 408.413 194.556 C 411.486 187.437, 413.998 181.137, 413.995 180.556 C 413.992 179.975, 405.210 175.605, 394.479 170.845 C 377.400 163.269, 374.860 162.396, 374.093 163.845 C 372.094 167.625, 355.113 208.224, 345.980 231.061 C 308.847 323.914, 282.720 406.974, 273.468 461.590 C 272.084 469.762, 270.624 476.751, 270.225 477.120 C 269.826 477.489, 261.850 481.261, 252.500 485.501 C 231.131 495.193, 193.552 514.152, 172 526.114 C 135.967 546.114, 98.180 570.264, 99.764 572.281 C 100.291 572.951, 106.020 580.700, 112.495 589.500 C 118.970 598.300, 124.412 605.667, 124.589 605.872 C 124.766 606.077, 128.643 603.772, 133.205 600.751 C 166.274 578.850, 197.374 561.157, 239.141 540.482 L 266.500 526.940 267.154 547.720 C 267.514 559.149, 268.546 573.675, 269.447 580 C 275.071 619.470, 289.264 654.465, 310.293 680.713 C 315.882 687.689, 316.871 689.451, 315.870 690.657 C 313.379 693.658, 295.149 705.023, 285 709.902 C 279.225 712.678, 270.450 716.176, 265.500 717.674 C 257.188 720.190, 255.163 720.399, 239 720.410 C 222.442 720.422, 221.043 720.270, 213 717.592 C 196.584 712.127, 181.419 702.995, 169.240 691.242 L 162.981 685.201 146.034 698.351 C 136.713 705.583, 129.068 711.757, 129.044 712.072 C 129.020 712.386, 132.938 716.558, 137.750 721.342 C 183.416 766.739, 245.218 777.467, 302.795 749.992 C 316.341 743.529, 327.644 736.633, 340.255 727.138 L 350.557 719.382 357.529 723.187 C 380.602 735.779, 406.236 741.273, 442 741.291 C 478.825 741.310, 514.777 735.717, 554 723.869 C 561.425 721.627, 567.918 719.398, 568.429 718.916 C 569.770 717.654, 566.043 698.582, 557.403 662.500 C 546.926 618.743, 537.863 584.885, 536.486 584.356 C 535.468 583.966, 496.334 594.332, 495.436 595.230 C 495.253 595.414, 497.368 603.875, 500.138 614.032 C 507.343 640.460, 518.199 686.038, 517.638 687.501 C 517.108 688.883, 495.987 693.165, 478 695.538 C 444.713 699.928, 410.410 697.784, 389.768 690.024 L 384.035 687.869 393.039 677.616 C 439.623 624.568, 480.419 550.325, 511.520 462 C 514.715 452.925, 517.598 445.180, 517.927 444.788 C 519.497 442.916, 573.891 436.325, 607 433.995 C 627.520 432.551, 682.812 431.563, 693.371 432.453 L 702.242 433.200 701.574 442.350 C 699.468 471.187, 694.283 514.529, 689.413 544 C 669.398 665.124, 621.301 775.791, 564.867 830.572 C 551.279 843.762, 540.296 851.795, 526.635 858.537 C 511.739 865.888, 502.598 868.216, 488 868.375 C 474.137 868.526, 466.708 866.530, 454.500 859.374 C 439.515 850.590, 419.593 828.003, 409.909 808.821 C 408.293 805.619, 406.640 802.993, 406.236 802.984 C 405.518 802.969, 367.932 819.002, 367.061 819.695 C 366.447 820.183, 370.317 828.049, 375.822 837.500 C 392.366 865.906, 419.399 892.145, 443.276 902.971 C 480.260 919.741, 523.730 914.116, 564.500 887.287 C 620.503 850.432, 670.453 771.587, 704.922 665.634 C 725.679 601.828, 737.864 534.943, 745.529 442.727 L 746.175 434.954 750.837 435.489 C 753.402 435.783, 762.700 436.721, 771.500 437.574 C 810.131 441.316, 870.059 451.134, 893.559 457.570 C 895.475 458.094, 895.993 456.709, 900.947 437.817 C 903.877 426.643, 906.325 417.101, 906.387 416.614 C 906.634 414.673, 856.532 404.613, 821.500 399.570 C 803.546 396.986, 772.516 393.414, 757.598 392.215 L 748.696 391.500 748.896 358 C 749.795 207.248, 723.282 117.229, 671.425 94.964 C 659.802 89.974, 642.059 87.591, 627.500 89.064 M 464.500 455.502 C 463.950 455.691, 455.175 458.168, 445 461.007 C 411.677 470.305, 365.136 486.164, 327.354 501.095 C 312.489 506.969, 312.196 507.143, 311.570 510.481 C 310.534 516.002, 310.821 556.693, 311.969 567 C 314.394 588.783, 319.806 609.142, 327.632 625.926 C 331.692 634.633, 341.720 650.613, 347.339 657.334 L 349.709 660.168 357.838 651.334 C 395.774 610.108, 434.324 542.944, 462.124 469.642 C 467.892 454.433, 467.909 454.330, 464.500 455.502 " stroke="none" fill="black" fill-rule="evenodd"/>
</svg>