<svg xmlns="http://www.w3.org/2000/svg" width="1000" height="1000" viewBox="0 0 1000 1000" version="1.1">
	<path d="M 343.158 68.750 C 336.625 93.522, 332.483 118.027, 326.045 170 C 323.831 187.875, 321.766 203.980, 321.457 205.788 L 320.895 209.077 314.697 203.717 C 307.192 197.225, 299.557 191.468, 287.151 182.948 L 277.801 176.527 276.088 178.643 C 273.283 182.107, 253.703 213.044, 254.118 213.357 C 254.328 213.515, 260.125 217.536, 267 222.293 C 273.875 227.050, 281.799 232.959, 284.609 235.425 C 289.512 239.728, 301.730 254.679, 300.901 255.361 C 300.680 255.543, 294.440 259.635, 287.032 264.454 C 240.048 295.026, 220.453 319.354, 220.772 346.717 C 220.967 363.495, 226.879 377.833, 238.340 389.323 C 242.278 393.270, 247.066 397.667, 248.981 399.093 L 252.461 401.685 245.881 409.093 C 221.497 436.539, 208.978 463.463, 209.015 488.378 C 209.032 500.180, 210.811 508.716, 215.023 517.206 C 221 529.252, 228.542 537.517, 240.748 545.397 C 255.698 555.048, 271.763 559.868, 291.824 560.722 L 305.148 561.289 304.459 566.301 C 304.079 569.058, 303.769 585.168, 303.769 602.101 L 303.769 632.889 282.975 637.936 C 236.894 649.120, 205.972 654.207, 183 654.382 C 164.864 654.520, 161.176 653.624, 157.479 648.183 C 154.385 643.630, 154.368 641.180, 157.392 635.212 C 162.045 626.031, 169.693 618.264, 188.898 603.220 L 191.297 601.341 181.195 584.921 C 175.640 575.889, 170.454 567.627, 169.672 566.561 C 168.306 564.698, 167.923 564.855, 159.936 570.561 C 150.116 577.576, 133.528 593.168, 127.365 601.176 C 114.889 617.387, 109.464 634.714, 112.003 650.239 C 113.912 661.912, 118.878 671.087, 128.523 680.758 C 142.045 694.317, 154.089 698.349, 181 698.327 C 207.412 698.306, 237.292 693.645, 289.358 681.426 C 299.730 678.992, 308.361 677, 308.537 677 C 308.714 677, 309.378 679.588, 310.014 682.750 C 317.620 720.597, 334.821 763.382, 354.192 792.636 L 360.500 802.163 381.993 801.490 C 393.814 801.120, 403.765 800.645, 404.106 800.435 C 404.446 800.224, 405.050 794.753, 405.447 788.276 C 406.206 775.916, 409.657 760.335, 414.423 747.757 C 418.025 738.251, 427.907 718.739, 436.734 703.707 C 440.866 696.670, 444.079 690.760, 443.873 690.573 C 442.835 689.628, 409.757 668.844, 408.559 668.384 C 406.116 667.447, 384.098 706.546, 375.909 726.363 L 372.246 735.226 367.204 722.363 C 360.171 704.424, 351.972 674.954, 352.013 667.761 C 352.025 665.626, 354.694 664.779, 399.763 652.602 C 455.957 637.418, 491.756 628.346, 512.500 624.032 C 539.732 618.368, 585.401 611.419, 620 607.674 L 631.500 606.429 631.820 620.465 C 632.581 653.916, 626.951 689.711, 615.456 724.500 C 608.222 746.391, 596.641 776.760, 590.956 788.745 C 577.729 816.629, 554.852 851.361, 528.543 883.500 C 523.140 890.100, 518.359 895.964, 517.919 896.532 C 517.071 897.623, 547.303 925.500, 549.334 925.500 C 551.930 925.500, 583.567 885.062, 598.777 862.304 C 613.720 839.945, 627.631 815.034, 635.436 796.658 C 642.608 779.771, 656.392 741.110, 661.341 724 C 671.517 688.819, 675.986 656.455, 675.996 617.867 L 676 602.235 683.250 601.601 C 725.749 597.886, 810.352 594.010, 849.093 594.004 C 860.969 594.002, 876.157 593.706, 882.843 593.346 L 895 592.693 895 571.346 L 895 550 866.737 550 C 820.469 550, 756.292 552.538, 698.666 556.648 C 672.364 558.523, 673.046 558.637, 673.015 552.371 C 672.994 548.030, 669.615 529.141, 667.124 519.440 C 662.053 499.689, 651.617 473.790, 641.156 454.990 C 638.320 449.895, 636 445.392, 636 444.983 C 636 444.575, 643.763 439.827, 653.250 434.433 C 728.601 391.587, 786.995 351.102, 811.574 324.668 C 829.827 305.038, 838.328 284.621, 835.217 267.889 C 830.703 243.619, 810.660 228.833, 775.211 223.621 C 770.102 222.870, 765.729 222.062, 765.493 221.826 C 765.257 221.590, 766.175 218.113, 767.534 214.099 C 773.892 195.303, 775.977 172.003, 772.588 157.613 C 770.282 147.825, 764.868 138.133, 758.102 131.678 C 731.166 105.986, 685.307 113.538, 600 157.715 C 519.033 199.645, 396.493 281.307, 310.380 350.720 C 299.614 359.399, 289.721 367.175, 288.397 368 C 286.157 369.396, 285.543 369.269, 279.528 366.158 C 268.176 360.287, 262.410 351.185, 264.885 343.040 C 267.521 334.361, 282.051 320.554, 304.500 305.394 C 311.100 300.937, 327.836 290.244, 341.690 281.632 C 365.391 266.900, 390.894 249.053, 422 225.432 C 442.207 210.087, 454.177 199.881, 467.622 186.534 C 499.031 155.353, 508.075 132.258, 499.133 106.062 C 494.951 93.808, 488.130 82.425, 479.926 74.007 C 472.398 66.283, 465.362 61.234, 464.017 62.590 C 463.521 63.091, 458.609 71.600, 453.101 81.500 L 443.087 99.500 446.182 101.931 C 450.261 105.134, 456.375 114.695, 457.956 120.342 C 459.117 124.488, 459.021 125.270, 456.754 130.173 C 449.432 146.007, 426.488 167.796, 383.500 199.740 C 371.807 208.429, 365.396 212.619, 365.203 211.697 C 364.730 209.433, 373.843 139.224, 377.106 120 C 379.539 105.658, 385.308 79.088, 387.560 71.845 C 387.984 70.480, 384.621 69.040, 368.286 63.595 C 357.403 59.968, 347.994 57, 347.378 57 C 346.761 57, 344.862 62.287, 343.158 68.750 M 150.086 93.116 C 133.871 129.380, 135.652 161.657, 155.008 182.350 C 162.009 189.833, 168.249 193.430, 176.960 195 C 195.886 198.411, 225.428 185.560, 263.044 157.551 C 270.818 151.763, 274.876 148.119, 274.535 147.232 C 274.246 146.478, 268.126 138.722, 260.935 129.996 L 247.861 114.132 239.681 120.407 C 221.092 134.667, 193.220 151, 187.474 151 C 180.626 151, 182.194 126.302, 190.016 110.969 L 191.998 107.083 187.749 104.653 C 170.314 94.679, 154.610 86, 153.998 86 C 153.596 86, 151.836 89.202, 150.086 93.116 M 710.635 161.090 C 662.271 168.239, 555.762 226.805, 431 314.853 C 396.352 339.305, 342 380.201, 342 381.819 C 342 382.197, 347.383 383.794, 353.963 385.367 C 384.786 392.736, 404.611 405.383, 413.244 423.182 C 418.260 433.523, 419.483 439.599, 419.346 453.500 C 419.091 479.432, 409.391 500.724, 388.081 522.129 C 376.775 533.485, 366.089 541.127, 351.964 547.958 C 345.449 551.109, 344.233 552, 346.451 552 L 349.296 552 348.655 560.250 C 347.221 578.694, 346.665 619.675, 347.839 620.400 C 348.472 620.791, 368.904 615.708, 393.245 609.103 C 437.317 597.143, 476.925 586.972, 495 582.972 C 525.260 576.275, 573.910 568.663, 613.868 564.373 L 630.237 562.615 629.565 556.060 C 628.476 545.424, 624.425 527.897, 620.021 514.760 C 616.091 503.033, 600.275 469.303, 597.708 467.173 C 596.827 466.441, 589.870 469.661, 572.991 478.612 C 546.323 492.753, 469.940 531.311, 469.561 530.822 C 468.618 529.605, 450.889 491.792, 451.159 491.574 C 451.347 491.423, 467.700 483.195, 487.500 473.289 C 521.494 456.281, 554.009 439.466, 565.771 432.811 L 571.043 429.829 566.771 424.698 C 564.422 421.877, 557.503 414.561, 551.396 408.441 L 540.293 397.314 554.168 380.510 L 568.043 363.706 581.772 377.319 C 589.322 384.805, 598.650 394.751, 602.500 399.421 C 606.350 404.090, 609.933 407.930, 610.462 407.955 C 612.778 408.063, 668.230 375.465, 698.402 356.258 C 734.240 333.444, 758.597 315.257, 775.085 299 C 785.423 288.807, 790.144 282.422, 791.541 276.745 C 792.173 274.177, 791.856 273.824, 786.860 271.540 C 777.814 267.406, 765.779 265.808, 744.250 265.882 C 732.784 265.922, 725 265.567, 725 265.004 C 725 264.484, 723.425 254.135, 721.501 242.006 L 718.002 219.952 721.002 213.336 C 727.654 198.666, 731.911 179.560, 730.550 170.486 C 729.246 161.792, 723.674 159.163, 710.635 161.090 M 287.465 428.466 C 273.826 442.405, 265.004 454.198, 259.014 466.500 C 249.675 485.677, 249.962 496.312, 260.065 505.440 C 268.425 512.993, 281.084 517, 296.582 517 C 336.893 517, 376.008 485.005, 375.998 452.040 C 375.994 437.347, 366.967 432.431, 323.500 423.449 C 311.400 420.948, 300.684 418.660, 299.688 418.364 C 298.355 417.968, 295.120 420.641, 287.465 428.466 M 746.625 629.817 C 746.399 630.193, 743.405 639.050, 739.972 649.500 C 736.538 659.950, 733.517 669.063, 733.258 669.750 C 732.998 670.438, 733.397 671.006, 734.143 671.014 C 736.467 671.039, 755.490 680.581, 762.154 685.065 C 774.461 693.344, 788.895 710.348, 803.525 733.800 L 808.550 741.855 827.025 731.299 C 837.186 725.493, 845.667 720.596, 845.871 720.416 C 846.393 719.958, 841.723 712.081, 834.657 701.500 C 818.193 676.846, 804.506 661.539, 789.147 650.602 C 776.578 641.651, 747.929 627.647, 746.625 629.817 " stroke="none" fill="black" fill-rule="evenodd"/>
</svg>