<svg xmlns="http://www.w3.org/2000/svg" width="1000" height="1000" viewBox="0 0 1000 1000" version="1.1">
	<path d="M 445.402 110.666 L 436.330 130.333 443.504 135.131 C 468.464 151.825, 482.016 176.428, 482.264 205.500 C 482.391 220.297, 480.522 230.406, 474.009 250.168 C 458.392 297.549, 427.865 355.716, 395.832 399.127 C 390.437 406.439, 386.355 412.702, 386.761 413.043 C 387.167 413.385, 394.830 420.553, 403.788 428.973 L 420.076 444.280 429.231 434.390 C 455.446 406.073, 495.419 367.283, 525.500 340.974 C 587.180 287.026, 640.569 252.590, 676.764 243.408 C 703.443 236.640, 743.597 243.812, 771.765 260.376 C 799.182 276.498, 817.434 299.875, 825.156 328.758 C 828.111 339.812, 828.794 361.487, 826.594 374.396 C 821.251 405.740, 804.587 437.087, 779.562 462.866 C 753.542 489.670, 720.387 509.700, 678 524.221 C 668.039 527.634, 637.555 536, 635.082 536 C 634.608 536, 634.017 527.788, 633.770 517.750 C 633.237 496.056, 631.738 488.475, 625.355 475.171 C 619.437 462.837, 611.709 454.926, 599.883 449.095 C 587.515 442.997, 579.891 441.699, 560 442.304 C 545.939 442.731, 541.766 443.252, 531.773 445.828 C 510.584 451.290, 491.363 462.590, 480.082 476.218 C 474.078 483.472, 466.658 498.107, 465.084 505.799 C 462.451 518.667, 464.344 533.796, 469.986 544.972 C 484.088 572.908, 515.061 585.968, 567.609 586.137 L 585.719 586.195 586.311 603.848 C 586.968 623.435, 588.554 632.608, 593.236 643.889 C 600.317 660.951, 622.749 683.933, 643.830 695.722 L 650.298 699.339 646.418 702.420 C 621.300 722.357, 591.662 753.069, 578.298 773.008 C 551.519 812.962, 553.476 849.125, 583.655 871.971 C 601.644 885.589, 628.780 895.136, 661 899.181 C 678.482 901.377, 726.504 900.800, 749 898.124 C 776.591 894.842, 820.256 887.113, 822.162 885.174 C 822.527 884.803, 820.448 875.275, 817.543 864 C 812.455 844.251, 812.174 843.510, 809.881 843.774 C 808.571 843.925, 802.325 845.131, 796 846.455 C 764.283 853.092, 728.255 857, 698.773 857 C 663.084 857, 639.890 852.937, 620.029 843.204 C 611.480 839.015, 604.504 832.855, 603.420 828.537 C 601.650 821.484, 607.361 807.180, 617.662 792.865 C 633.429 770.954, 671.542 735.906, 701.828 715.469 L 712.155 708.500 711.548 686.554 C 711.215 674.484, 710.842 664.531, 710.721 664.436 C 710.599 664.341, 705.550 664.567, 699.500 664.939 C 686.524 665.735, 678.939 664.505, 669.725 660.107 C 655.747 653.437, 636.948 635.635, 632.902 625.239 C 630.885 620.057, 630.660 617.663, 630.584 600.569 L 630.500 581.639 633.500 580.927 C 635.150 580.536, 642.125 579.014, 649 577.545 C 738.930 558.333, 810.775 510.477, 846.413 446.050 C 870.855 401.861, 877.842 358.025, 867.061 316.500 C 852.118 258.947, 801.887 214.378, 737 201.101 C 715.894 196.782, 693.308 195.834, 676.926 198.580 C 636.193 205.406, 580.540 237.640, 515.323 292.179 L 500.047 304.955 501.921 300.227 C 502.952 297.627, 505.586 291, 507.775 285.500 C 513.594 270.879, 520.555 248.954, 523.014 237.500 C 527.734 215.514, 526.643 186.416, 520.379 167.225 C 510.793 137.860, 489.377 111.534, 461.369 94.688 C 457.997 92.659, 455.066 91, 454.856 91 C 454.646 91, 450.392 99.850, 445.402 110.666 M 291.128 131.617 C 280.474 136.178, 271.618 140.049, 271.447 140.219 C 271.277 140.389, 271.971 143.533, 272.989 147.205 C 277.721 164.269, 278.146 191.360, 274.011 212.401 C 266.544 250.407, 245.592 289.259, 211.132 329 C 207.078 333.675, 194.192 347.625, 182.497 360 C 170.802 372.375, 158.177 386.100, 154.442 390.500 C 131.090 418.010, 124.944 441.388, 134.860 464.989 C 140.429 478.243, 148.018 487.176, 168.013 504.011 C 194.275 526.122, 202.394 539.521, 207.694 569.500 C 210.992 588.157, 209.308 669.622, 204.406 728.500 C 201.199 767.029, 200.379 798.174, 201.945 822 C 203.336 843.159, 207.133 871.560, 208.547 871.376 C 209.071 871.308, 219.684 868.880, 232.131 865.980 L 254.762 860.708 255.443 849.604 C 258.516 799.526, 269.669 745.689, 282.748 717.805 C 290.579 701.109, 306.899 674.846, 324.652 650.370 C 328.694 644.799, 332 640.007, 332 639.722 C 332 639.330, 312.626 623.947, 299.335 613.786 C 298.538 613.177, 296.293 615.363, 292.237 620.698 C 283.647 631.996, 266.333 657.710, 258.508 670.793 C 254.793 677.005, 251.681 681.955, 251.593 681.793 C 251.505 681.632, 251.754 672.725, 252.145 662 C 253.419 627.120, 253.386 582.156, 252.079 571.500 C 249.386 549.551, 244.374 532.289, 236.098 516.458 C 227.327 499.682, 218.538 489.595, 196.161 470.627 C 181.556 458.246, 178.798 455.378, 175.655 449.300 C 173.281 444.708, 173.596 441.126, 176.964 434.410 C 181.207 425.951, 188.314 417.429, 211.917 392.500 C 252.682 349.443, 271.415 325.893, 288.335 296.427 C 312.773 253.870, 324.513 204.008, 319.937 162.211 C 318.264 146.934, 313.166 124.675, 311.100 123.629 C 310.770 123.462, 301.783 127.056, 291.128 131.617 M 556 486.035 C 545.203 486.947, 539.332 488.440, 530.193 492.598 C 517.943 498.172, 510.542 505.558, 508.092 514.658 C 505.014 526.089, 514.166 535.227, 532.908 539.433 C 542.980 541.694, 570.528 543.492, 581.135 542.581 L 589.770 541.840 590.446 530.670 C 591.554 512.343, 588.808 495.618, 583.819 490.307 C 579.973 486.214, 570.717 484.792, 556 486.035 " stroke="none" fill="black" fill-rule="evenodd"/>
</svg>