<svg xmlns="http://www.w3.org/2000/svg" width="1000" height="1000" viewBox="0 0 1000 1000" version="1.1">
	<path d="M 282 95.897 C 271.825 99.028, 262.772 101.871, 261.882 102.213 C 260.463 102.759, 260.931 105.223, 265.675 122.168 C 276.732 161.668, 296.579 244.353, 298.677 259.662 L 299.313 264.301 273.407 263.717 C 238.440 262.930, 211.804 260.068, 178.063 253.472 C 171.223 252.135, 165.516 251.151, 165.381 251.285 C 164.382 252.284, 155.079 292.478, 155.703 293.099 C 156.932 294.322, 191.617 300.657, 209.504 302.926 C 237.262 306.446, 249.718 307.262, 279 307.478 L 307.500 307.689 309.232 318.594 C 313.651 346.409, 316.428 377.564, 317.559 412 L 318.199 431.500 310.350 435.629 C 306.032 437.900, 270.550 456.527, 231.500 477.022 C 192.450 497.517, 160.187 514.559, 159.805 514.893 C 158.859 515.719, 144.460 565.820, 145.039 566.268 C 145.293 566.464, 163.725 575.682, 186 586.752 C 208.275 597.822, 232.036 610.059, 238.801 613.946 C 262.491 627.554, 290.450 647.491, 313.569 667.259 L 324.638 676.725 346.881 670.467 C 359.114 667.026, 369.293 664.040, 369.500 663.833 C 369.854 663.479, 366.312 548.807, 364.010 486.099 C 363.437 470.479, 363.088 457.582, 363.234 457.440 C 363.647 457.040, 395.294 440.485, 442.500 415.976 C 466.150 403.697, 493.150 390.091, 502.500 385.742 C 521.340 376.977, 570.154 355.769, 570.459 356.216 C 570.565 356.372, 572.373 361.450, 574.476 367.500 C 579.114 380.843, 591.776 412.831, 599.325 430.274 L 604.853 443.047 597.359 447.274 C 519.808 491.011, 476.294 522.577, 458.929 547.696 C 441.678 572.651, 443.588 596.422, 464.533 617.442 C 477.526 630.482, 500.090 643.328, 529.500 654.429 C 537.750 657.543, 545.331 660.423, 546.346 660.828 C 547.849 661.428, 545.988 663.234, 536.348 670.533 C 457.050 730.566, 417.740 786.566, 423.914 830.700 C 429.058 867.474, 457.773 889.788, 509.500 897.209 C 523.568 899.227, 572.705 898.888, 592.500 896.635 C 611.473 894.477, 649.026 888.376, 650.121 887.274 C 650.544 886.848, 648.807 877.117, 646.260 865.649 L 641.629 844.798 638.565 845.341 C 596.384 852.814, 584.242 854.144, 553 854.717 C 522.717 855.272, 509.143 853.960, 493.577 848.974 C 483.307 845.684, 476.969 842.028, 472.305 836.703 C 452.288 813.852, 490.386 759.429, 566 702.857 C 576.362 695.104, 605.279 675.407, 607.276 674.741 C 608.236 674.421, 595.142 631.008, 593.583 629.342 C 592.988 628.705, 587.303 626.811, 580.952 625.133 C 555.609 618.435, 525.880 606.795, 509.728 597.244 C 500.323 591.682, 491 583.302, 491 580.409 C 491 572.343, 512.229 552.307, 542.745 531.573 C 563.277 517.623, 621.137 483, 623.918 483 C 624.357 483, 626.437 485.813, 628.540 489.250 C 648.364 521.645, 685.641 571.015, 737.267 633.250 C 747.647 645.763, 756.671 655.984, 757.320 655.964 C 757.969 655.945, 768.175 653.801, 780 651.201 L 801.500 646.474 802.241 635.987 C 806.497 575.789, 812.662 531.808, 822.073 494.500 C 832.592 452.801, 841.592 423.396, 850.608 401.266 C 853.574 393.987, 856 387.644, 856 387.169 C 856 386.694, 846.936 380.365, 835.858 373.105 C 817.794 361.266, 815.395 359.973, 812.608 360.579 C 807.541 361.681, 763.206 376.588, 739.500 385.161 C 712.960 394.759, 679.827 407.868, 659.683 416.740 C 651.018 420.557, 644.497 422.897, 643.976 422.376 C 641.782 420.182, 615.303 353.982, 611.560 341.336 C 610.960 339.309, 613.162 338.281, 646.210 325.173 C 688.531 308.385, 724.717 294.441, 762.477 280.371 C 777.864 274.638, 790.756 269.621, 791.126 269.223 C 791.496 268.825, 790.607 261.190, 789.149 252.256 L 786.500 236.013 779 229.390 C 745.411 199.729, 703.603 170.649, 673.500 156.008 C 655.431 147.221, 648.071 144.390, 634 140.814 C 603.249 133.001, 578.693 137.944, 561.500 155.409 C 557.650 159.320, 553.238 164.871, 551.695 167.746 C 536.565 195.938, 537.601 239.827, 554.959 305.988 C 556.039 310.107, 556.603 313.768, 556.212 314.124 C 555.820 314.480, 547.850 318.024, 538.500 321.999 C 491.828 341.842, 464.769 354.909, 395 391.299 L 361.500 408.771 360.305 387.136 C 358.929 362.203, 356.937 342.390, 353.456 319 C 352.105 309.925, 351 302.163, 351 301.750 C 351 301.337, 351.924 301, 353.054 301 C 360.235 301, 398.859 289.595, 418.740 281.604 C 432.671 276.004, 455.104 264.892, 455.721 263.286 C 455.985 262.598, 451.354 254.040, 445.431 244.268 C 439.508 234.495, 434.620 226.420, 434.569 226.322 C 434.518 226.224, 428.632 228.988, 421.488 232.466 C 405.624 240.188, 385.220 247.898, 368.568 252.462 C 354.998 256.181, 344.179 258.513, 343.525 257.859 C 343.298 257.631, 341.058 247.697, 338.548 235.783 C 327.163 181.737, 303.588 89.761, 301.208 90.101 C 300.818 90.157, 292.175 92.765, 282 95.897 M 598.352 182.092 C 594.057 183.337, 589.428 188.898, 587.410 195.236 C 585.195 202.197, 584.423 224.762, 585.941 238.195 C 587.153 248.927, 592.641 277.396, 595.831 289.500 C 597.066 294.189, 598.141 296.451, 599.088 296.353 C 599.864 296.272, 617.764 289.395, 638.864 281.071 C 659.964 272.746, 688.979 261.423, 703.341 255.907 C 717.704 250.391, 729.607 245.726, 729.793 245.540 C 730.306 245.028, 703.484 225.037, 691.793 217.218 C 650.765 189.776, 616.409 176.861, 598.352 182.092 M 778 417.919 C 756.577 425.408, 729.825 435.287, 712 442.292 C 700.388 446.856, 665.690 461.611, 664.142 462.644 C 663.552 463.037, 670.797 474.689, 679.908 488 C 692.258 506.043, 715.306 536.513, 740 567.442 L 761.500 594.370 762.773 582.935 C 765.046 562.527, 769.010 534.875, 772.082 518 C 776.336 494.630, 787.670 450.710, 797.052 421.238 C 798.673 416.144, 800 411.756, 800 411.488 C 800 410.417, 796.725 411.374, 778 417.919 M 262.493 510.158 C 231.147 526.661, 203.974 540.957, 202.108 541.927 L 198.716 543.689 224.108 556.699 C 265.195 577.750, 287.931 591.640, 314.284 611.786 C 319.665 615.900, 324.205 619.094, 324.372 618.883 C 324.540 618.672, 324.305 607.250, 323.851 593.500 C 321.596 525.232, 319.977 480.643, 319.744 480.410 C 319.602 480.268, 293.839 493.655, 262.493 510.158 " stroke="none" fill="black" fill-rule="evenodd"/>
</svg>