<svg xmlns="http://www.w3.org/2000/svg" width="1000" height="1000" viewBox="0 0 1000 1000" version="1.1">
	<path d="M 379.274 123.318 C 372.249 131.145, 365.719 138.466, 364.765 139.587 C 363.074 141.573, 363.203 141.767, 369.765 147.114 C 393.989 166.854, 424.716 185.580, 448 194.792 C 471.387 204.044, 499.453 210.727, 538.668 216.379 C 540.407 216.629, 540.938 216.080, 541.357 213.596 C 542.454 207.080, 545.377 174.043, 544.898 173.564 C 544.621 173.288, 539.809 172.372, 534.204 171.531 C 507.441 167.511, 483.006 161.507, 464.797 154.475 C 446.943 147.582, 422.422 132.887, 401.774 116.707 L 392.049 109.087 379.274 123.318 M 741.500 143.448 C 725 148.035, 722.533 148.978, 722.754 150.615 C 722.894 151.652, 723.293 158.800, 723.642 166.500 C 725.601 209.706, 712.068 270.610, 685.981 336 C 680.333 350.157, 672.199 369.122, 671.450 369.879 C 671.244 370.088, 666.912 366.340, 661.825 361.551 C 642.730 343.576, 619.977 331.381, 596.475 326.527 C 539.352 314.728, 443.659 339.128, 319 397.278 C 299.651 406.305, 257.174 427.524, 255.766 428.867 C 255.208 429.400, 273.693 464.828, 275.621 466.921 C 275.835 467.153, 284.445 463.027, 294.755 457.753 C 412.773 397.376, 522.810 362.234, 576.363 367.816 C 604.932 370.794, 628.959 385.235, 645.464 409.347 L 649.428 415.139 646.555 420.319 C 641.713 429.051, 628.133 450.131, 618.309 464.167 C 557.160 551.532, 440.658 672.921, 294 802.080 C 275.194 818.642, 245.182 844.442, 233.738 853.885 C 229.482 857.396, 226 860.441, 226 860.650 C 226 861.305, 253.087 894, 253.630 894 C 255.066 894, 320.375 837.414, 357.353 804.130 C 495.795 679.521, 604.502 563.166, 661.678 478.395 C 668.554 468.201, 670.989 465.421, 671.005 467.750 C 671.008 468.163, 672.098 473.675, 673.427 480 C 685.094 535.508, 682.088 613.843, 665.852 677.418 C 652.531 729.577, 624.694 791.688, 594.796 835.963 C 591.996 840.108, 589.571 843.664, 589.405 843.864 C 588.940 844.428, 566.080 827.437, 550.308 814.804 C 523 792.930, 501.500 771.822, 465.458 731.500 C 460.050 725.450, 455.345 720.378, 455.003 720.230 C 454.660 720.081, 447.064 726.326, 438.124 734.107 L 421.869 748.254 424.242 750.877 C 425.548 752.320, 432.658 760.250, 440.044 768.500 C 482.212 815.602, 521.640 850.771, 567.500 882.183 C 581.204 891.570, 598.074 902.266, 598.486 901.829 C 604.150 895.818, 628.545 864.133, 634.540 855 C 669.954 801.052, 699.503 731.143, 712.399 670.800 C 719.805 636.142, 722.974 607.043, 723.702 567 C 724.793 507.029, 718.464 464.639, 702.295 423.641 L 698.802 414.783 705.445 400.820 C 751.750 303.500, 774.558 207.215, 765.866 145.750 C 764.883 138.801, 764.549 138.009, 762.635 138.083 C 761.461 138.128, 751.950 140.542, 741.500 143.448 " stroke="none" fill="black" fill-rule="evenodd"/>
</svg>