<svg xmlns="http://www.w3.org/2000/svg" width="1000" height="1000" viewBox="0 0 1000 1000" version="1.1">
	<path d="M 320.500 106.015 C 314.450 115.883, 309.510 124.304, 309.522 124.728 C 309.562 126.088, 328.004 135.753, 344.398 143.006 C 401.819 168.411, 458.656 180.993, 516 180.993 C 545.647 180.993, 570.560 178.165, 596.409 171.866 C 607.514 169.160, 628.040 163.214, 628.837 162.472 C 629.143 162.188, 615.218 121.884, 614.600 121.267 C 614.456 121.122, 611.006 122.137, 606.934 123.522 C 596.161 127.187, 577.239 131.681, 562.425 134.095 C 545.884 136.790, 505.365 137.818, 485.745 136.040 C 440.461 131.937, 392.782 118.278, 350 97.152 C 340.375 92.399, 332.275 88.412, 332 88.292 C 331.725 88.172, 326.550 96.147, 320.500 106.015 M 380 240.720 C 369.275 244.325, 360.330 247.420, 360.121 247.599 C 359.913 247.778, 361.596 254.579, 363.862 262.712 C 371.565 290.369, 376.947 315.845, 380.488 341.424 C 382.875 358.666, 383.218 357.550, 374.750 360.089 C 338.484 370.962, 308.795 375.328, 286.383 373.084 C 262.707 370.713, 246.703 364.152, 232.622 351.042 C 227.589 346.355, 220.714 337.008, 219.016 332.542 C 218.484 331.144, 217.701 330.005, 217.275 330.012 C 216.025 330.031, 176.711 341.955, 176.194 342.472 C 175.338 343.329, 183.999 360.244, 188.582 366.668 C 205.877 390.904, 231.554 407.065, 264.043 414.162 C 273.377 416.201, 277.186 416.447, 299.500 416.448 C 320.783 416.450, 326.379 416.123, 337.136 414.247 C 348.213 412.316, 377.618 405.309, 382.115 403.529 C 383.587 402.946, 383.788 408.080, 384.378 461.195 C 384.734 493.263, 385.294 522.731, 385.622 526.680 L 386.218 533.860 372.859 540.239 C 325.017 563.083, 255.516 607.742, 210.303 644.692 C 168.606 678.769, 142.930 715.432, 134.339 753.162 C 131.701 764.745, 131.953 787.167, 134.843 798 C 149.287 852.155, 206.554 879.222, 276.323 864.870 C 329.028 854.028, 384.010 819.881, 430.151 769.335 L 442.340 755.982 447.182 761.415 C 463.043 779.211, 491.101 796.472, 519.500 805.904 C 542.069 813.401, 546.616 813.992, 600.750 816.471 L 613 817.032 612.971 813.766 C 612.954 811.970, 608.725 748.175, 603.571 672 C 598.418 595.825, 594.386 533.307, 594.612 533.072 C 595.207 532.452, 620.944 534.932, 631.500 536.627 C 679.781 544.378, 727.994 563.271, 771.500 591.488 C 800.873 610.538, 817.799 630.396, 823.468 652.460 C 825.607 660.783, 825.420 673.995, 823.027 683.590 C 820.440 693.965, 810.708 713.180, 802.307 724.500 C 793.771 736.001, 768.711 761.082, 754.500 772.346 C 741.471 782.674, 716.089 799.978, 700 809.501 C 643.715 842.816, 571.042 870.723, 512.561 881.481 C 504.894 882.891, 498.443 884.224, 498.224 884.443 C 497.721 884.945, 503.833 926.166, 504.511 926.844 C 505.185 927.518, 522.501 924.474, 538.500 920.870 C 618.816 902.773, 707.526 862.294, 770.500 815.005 C 818.055 779.295, 848.927 742.421, 861.764 706 C 867.291 690.316, 868.508 682.999, 868.414 666 C 868.340 652.648, 867.968 649.155, 865.733 640.794 C 856.863 607.622, 831.407 577.372, 790.946 551.922 C 733.269 515.643, 671.856 494.917, 607.139 489.888 L 591.270 488.654 590.641 480.577 C 590.295 476.135, 590.009 470.587, 590.006 468.250 C 590.003 465.913, 589.888 463.999, 589.750 463.997 C 589.612 463.996, 581.175 463.103, 571 462.013 C 543.570 459.075, 547.368 457.333, 541.556 475.524 C 538.836 484.036, 536.361 491.002, 536.056 491.005 C 535.750 491.008, 529.200 491.930, 521.500 493.054 C 495.019 496.920, 463.646 504.539, 438.689 513.166 C 433.843 514.841, 429.641 515.975, 429.351 515.685 C 428.264 514.597, 427.223 447.367, 427.849 418.640 L 428.500 388.780 445.500 382.844 C 554.466 344.799, 596.084 333.702, 635 332.315 C 659.502 331.441, 673.680 334.656, 685.913 343.858 C 698.895 353.624, 703.374 365.088, 697.030 372.313 C 691.248 378.898, 676.487 384.420, 656.074 387.636 C 643.368 389.637, 601.401 389.933, 585.089 388.136 C 579.363 387.505, 574.534 387.132, 574.359 387.308 C 573.819 387.847, 569.643 429.976, 570.085 430.413 C 571.532 431.840, 604.978 433.176, 628.535 432.747 C 650.385 432.349, 657.871 431.835, 668 430.035 C 704.517 423.546, 728.476 409.419, 738.446 388.500 C 743.059 378.820, 744.357 372.376, 743.762 362.119 C 742.846 346.319, 736.863 333.453, 724.079 319.789 C 686.330 279.442, 625.194 277.912, 511 314.454 C 501.375 317.534, 478.269 325.285, 459.653 331.678 C 423.524 344.086, 424.051 343.995, 424.015 337.816 C 423.989 333.152, 418.255 300.832, 414.461 283.964 C 409.865 263.528, 401.726 234.715, 400.460 234.403 C 399.932 234.273, 390.725 237.116, 380 240.720 M 504 540.484 C 498.225 541.755, 488.775 543.995, 483 545.462 C 471.434 548.401, 433.966 560.644, 432.707 561.896 C 431.262 563.335, 437.588 613.442, 442.126 636.500 C 444.727 649.717, 449.061 668.160, 449.961 669.838 C 450.675 671.171, 463.669 650.540, 475.051 630 C 486.839 608.727, 504.039 572.979, 515.828 545.250 C 519.496 536.623, 520.216 536.913, 504 540.484 M 546.533 584.285 C 527.858 626.330, 500.738 675.624, 478.355 708.206 C 474.310 714.094, 471 719.434, 471 720.072 C 471 722.194, 478.037 730.857, 484.783 737.038 C 501.203 752.084, 524.914 763.668, 550.230 769.012 C 555.328 770.088, 560.962 770.976, 562.750 770.984 C 565.614 770.998, 566 770.681, 566 768.314 C 566 764.300, 552.945 571.612, 552.654 571.320 C 552.516 571.182, 549.761 577.016, 546.533 584.285 M 375 588.121 C 337.800 607.657, 300.905 631.255, 259.500 661.993 C 236.968 678.721, 226.463 687.656, 213.918 700.762 C 190.212 725.530, 177.353 749.861, 176.233 772.065 C 175.446 787.657, 179.736 798.837, 190.236 808.558 C 208.275 825.259, 239.601 829.455, 275.556 819.988 C 323.786 807.288, 371.617 773.166, 414.358 720.967 L 418.888 715.433 413.942 701.132 C 404.700 674.409, 396.821 637.662, 392.012 598.848 C 390.905 589.920, 390 582.251, 390 581.807 C 390 580.377, 388.724 580.914, 375 588.121 " stroke="none" fill="black" fill-rule="evenodd"/>
</svg>