<svg xmlns="http://www.w3.org/2000/svg" width="1000" height="1000" viewBox="0 0 1000 1000" version="1.1">
	<path d="M 445 93.073 C 445 106.374, 430.430 242.208, 427.385 257.298 C 426.746 260.462, 428.050 260.456, 407.500 257.382 C 372.608 252.162, 335.898 239.420, 307.717 222.746 C 303.986 220.539, 300.777 218.905, 300.585 219.116 C 298.601 221.300, 276 253.143, 276 253.755 C 276 254.205, 280.162 257.097, 285.250 260.182 C 319.335 280.851, 366.458 296.632, 410.250 302.042 C 415.613 302.705, 420 303.619, 420 304.073 C 420 306.252, 413.556 337.080, 410.502 349.513 C 404.366 374.487, 389.532 415.374, 373.501 451.500 C 366.167 468.026, 346.660 507.510, 340.399 518.500 L 336.412 525.500 336.799 544.750 L 337.187 564 343.983 564 C 382.229 564, 448.871 555.664, 501.266 544.326 C 510.487 542.330, 518.277 540.944, 518.577 541.244 C 518.878 541.544, 518.649 548.925, 518.068 557.645 C 515.003 603.697, 513.253 669.140, 512.367 770.750 C 511.987 814.338, 511.504 850, 511.294 850 C 511.084 850, 504.105 845.207, 495.785 839.348 C 475.293 824.920, 449.307 807.969, 428.635 795.546 C 409.506 784.050, 382.004 769, 380.125 769 C 379.451 769, 374.734 777.656, 369.642 788.236 L 360.383 807.471 375.814 815.779 C 414.343 836.523, 473.465 875.372, 513.371 906.167 L 523.242 913.784 538.371 904.751 C 546.692 899.782, 554.044 895.218, 554.708 894.609 C 555.632 893.761, 556.029 868.317, 556.396 786.500 C 556.851 685.018, 557.597 645.185, 560.027 592.500 C 561.059 570.127, 563.758 529.867, 564.254 529.454 C 564.389 529.341, 575.300 526.284, 588.500 522.660 C 601.700 519.036, 616.775 514.790, 622 513.226 L 631.500 510.382 631.775 494.849 L 632.049 479.317 622.775 471.900 C 606.438 458.835, 588.422 449.740, 569.477 444.994 C 558.758 442.309, 552.511 442.698, 545.806 446.469 C 535.308 452.372, 530.241 461.860, 526.062 483.436 C 525.018 488.826, 523.790 493.593, 523.332 494.029 C 522.283 495.030, 486.657 502.943, 465.500 506.875 C 439.820 511.647, 392.639 517.973, 391.467 516.800 C 391.202 516.536, 395.672 506.685, 401.400 494.910 C 423.848 448.757, 443.600 397.423, 452.388 362.392 C 456.072 347.708, 461.010 324.362, 462.993 312.250 C 463.928 306.540, 464.544 305, 465.890 305 C 472.679 305, 497.254 302.487, 510.746 300.413 C 539.317 296.021, 569.461 287.658, 598.500 276.067 C 611.593 270.841, 644.065 255.350, 647.173 252.847 C 648.696 251.621, 647.979 249.929, 639.173 233.982 C 633.853 224.347, 629.141 215.917, 628.702 215.249 C 628.122 214.368, 624.121 215.930, 614.102 220.949 C 571.959 242.061, 524.785 256.308, 486.500 259.487 C 482.650 259.807, 477.544 260.312, 475.154 260.610 C 470.821 261.150, 470.810 261.143, 471.406 258.326 C 474.652 242.979, 489.975 95.642, 488.480 94.146 C 487.988 93.655, 456.183 91.109, 449.750 91.046 C 445.596 91.006, 445 91.260, 445 93.073 M 690.630 632.250 C 690.263 640.087, 689.686 649.739, 689.348 653.698 C 688.751 660.697, 688.799 660.908, 691.117 661.371 C 692.428 661.633, 697.775 662.610, 703 663.541 C 714.741 665.634, 733.132 671.560, 744.681 676.972 C 765.375 686.669, 785.790 703.824, 797.361 721.237 C 802.763 729.365, 810.949 745.899, 810.985 748.750 C 810.993 749.438, 811.694 750, 812.541 750 C 814.118 750, 852.036 737.297, 852.831 736.503 C 853.734 735.600, 846.494 718.939, 840.458 708.029 C 815.473 662.872, 767.030 630.528, 708.575 619.973 C 702.566 618.888, 696.221 618, 694.474 618 L 691.298 618 690.630 632.250 M 390 658.695 C 328.441 701.083, 264.022 738.653, 232.500 750.553 C 220.615 755.040, 211.611 755.700, 203.739 752.663 C 197.887 750.405, 197 748.843, 197 740.796 C 197 731.950, 200.099 721.576, 207.065 707.099 C 210.347 700.279, 212.912 694.623, 212.766 694.530 C 212.620 694.437, 204.452 689.251, 194.615 683.005 C 173.861 669.826, 176.876 669.469, 168.482 686.101 C 145.193 732.251, 148.439 769.315, 177.422 788.169 C 189.115 795.776, 210.090 800.224, 224.060 798.060 C 247.793 794.384, 289.190 774.502, 346.426 739.291 C 376.866 720.564, 428.104 685.978, 427.317 684.689 C 425.680 682.005, 404.699 652.408, 403.643 651.294 C 402.763 650.365, 399.628 652.065, 390 658.695 " stroke="none" fill="black" fill-rule="evenodd"/>
</svg>