<svg xmlns="http://www.w3.org/2000/svg" width="1000" height="1000" viewBox="0 0 1000 1000" version="1.1">
	<path d="M 311 85.373 C 290.516 88.523, 290.500 88.528, 290.727 91.013 C 290.851 92.381, 292.556 105.200, 294.515 119.500 C 302.512 177.872, 315 281.202, 315 288.998 C 315 291.901, 314.848 292, 310.378 292 C 297.476 292, 268.421 285.797, 251.101 279.344 C 238.650 274.706, 222.971 267.322, 215.712 262.679 C 212.549 260.655, 209.632 259.015, 209.231 259.034 C 208.829 259.052, 202.794 266.815, 195.821 276.284 L 183.142 293.500 185.321 295.211 C 190.104 298.966, 209.938 309.593, 221.379 314.531 C 250.431 327.070, 288.632 336, 313.220 336 C 316.949 336, 320 336.395, 320 336.877 C 320 337.360, 320.908 349.172, 322.019 363.127 C 323.129 377.082, 324.445 403.087, 324.942 420.917 L 325.847 453.333 281.098 498.917 C 256.486 523.987, 230.130 551.025, 222.529 559 C 214.928 566.975, 208.210 573.500, 207.600 573.500 C 205.804 573.500, 185.464 551.310, 179.953 543.339 C 171.777 531.511, 167.517 515.824, 166.146 492.500 L 165.500 481.500 143.595 481.230 L 121.689 480.960 122.326 493.730 C 123.856 524.400, 130.800 549.035, 142.968 566.952 C 149.179 576.099, 157.622 585.801, 172.896 601.343 C 183.753 612.389, 189.161 616.978, 199.677 624.061 L 212.854 632.938 219.735 625.719 C 223.519 621.748, 230.415 614.450, 235.058 609.500 C 239.701 604.550, 243.770 600.373, 244.100 600.217 C 245.784 599.421, 274.176 631.443, 281.780 642.713 C 285.596 648.370, 304.827 682.581, 318.761 708.500 C 324.464 719.109, 326.186 721.546, 328.125 721.749 C 329.431 721.885, 341.075 720.305, 354 718.236 L 377.500 714.475 377.280 705.988 C 377.159 701.319, 376.366 679.725, 375.517 658 C 372.617 583.733, 372.104 568.452, 370.900 520.500 L 369.694 472.500 384.597 457.926 C 439.941 403.806, 502.957 346.904, 553 305.864 C 633.740 239.649, 696.177 201.852, 728.993 199.321 C 738.406 198.595, 741.378 199.916, 746.868 207.265 C 755.381 218.660, 759.738 232.109, 758.421 242.926 C 754.917 271.703, 729.416 304.922, 685.340 338.124 C 673.584 346.979, 667.139 351.258, 646.172 364.124 L 640.267 367.747 644.690 380.624 C 649.981 396.027, 660.482 430.539, 665.271 448.263 L 668.719 461.026 663.110 462.559 C 607.341 477.804, 571.604 492.680, 538.500 514.430 C 524.366 523.717, 513.742 532.309, 502.870 543.246 C 483.295 562.937, 475.992 577.528, 477.272 594.391 C 477.925 602.995, 479.909 608.359, 485.716 617.225 C 495.897 632.770, 514.023 644.181, 564 666.510 C 595.563 680.613, 658.082 711.164, 674.500 720.508 L 678.500 722.785 695.500 712.386 L 712.500 701.986 715.249 693.470 C 723.316 668.473, 728.173 622.606, 728.374 569.500 C 728.479 541.875, 728.241 536.815, 726.184 523.029 C 724.915 514.520, 723.278 504.700, 722.545 501.207 C 721.561 496.511, 721.512 494.757, 722.357 494.478 C 724.636 493.728, 755.890 489.069, 772 487.080 C 804.936 483.012, 848.624 480.002, 874.750 480.001 L 889 480 889 457.840 L 889 435.680 865.750 436.327 C 816.306 437.702, 766.899 442.430, 723.060 449.982 C 716.767 451.066, 711.558 451.851, 711.484 451.726 C 711.410 451.602, 709.877 445.875, 708.079 439 C 706.281 432.125, 702.123 417.567, 698.840 406.648 C 695.556 395.730, 693.012 386.682, 693.185 386.540 C 693.358 386.399, 697.775 383.220, 703 379.476 C 759.963 338.655, 794.473 294.396, 801.023 253.761 C 802.748 243.060, 801.791 223.581, 799.094 214.536 C 792.667 192.971, 776.158 170.049, 761.500 162.335 C 751.333 156.984, 744.934 155.549, 731.500 155.607 C 714.036 155.682, 698.896 159.723, 674 170.956 C 611.072 199.347, 509.001 279.106, 386.333 395.739 L 369.166 412.061 368.637 405.781 C 368.347 402.326, 367.375 388.025, 366.478 374 C 365.581 359.975, 364.597 345.246, 364.291 341.270 C 363.855 335.611, 364.035 333.958, 365.117 333.664 C 365.878 333.457, 372.901 332.059, 380.725 330.556 C 404.580 325.974, 429.880 317.909, 451.311 308.056 L 458.122 304.925 451.117 291.712 C 447.265 284.446, 442.625 275.757, 440.806 272.404 L 437.500 266.308 427.500 270.656 C 409.751 278.375, 381.663 286.625, 363.398 289.484 L 359.296 290.126 358.076 277.813 C 352.398 220.486, 334.379 82.843, 332.500 82.437 C 331.950 82.318, 322.275 83.639, 311 85.373 M 661 508.534 C 602.870 525.114, 560.513 547.017, 533.500 574.463 C 524.125 583.988, 520.262 589.635, 521.290 592.313 C 522.267 594.859, 532.488 602.368, 542.346 607.782 C 547.381 610.547, 566.429 619.584, 584.676 627.865 C 602.923 636.145, 630.906 649.449, 646.861 657.431 L 675.870 671.942 676.900 666.721 C 683.737 632.043, 687.096 565.651, 683.530 535.666 C 681.430 518.010, 678.790 503.993, 677.576 504.056 C 676.984 504.087, 669.525 506.102, 661 508.534 M 310.496 531.233 C 301.694 540.180, 290.022 552.092, 284.560 557.705 L 274.628 567.910 283.094 576.705 C 302.297 596.654, 317.269 615.668, 326.025 631.229 C 328.417 635.481, 330.506 638.827, 330.667 638.666 C 330.929 638.405, 329.233 586.859, 327.233 534.233 L 326.500 514.966 310.496 531.233 M 196.397 729.593 C 195.607 731.483, 194.070 738.242, 192.981 744.614 C 184.649 793.348, 203.513 837.502, 244.324 864.790 C 277.926 887.258, 318.735 898.250, 392 904.568 C 417.364 906.755, 495.759 907.594, 534.500 906.094 C 613.142 903.048, 701.524 895.180, 790.750 883.283 C 809.604 880.769, 810.999 880.442, 810.982 878.541 C 810.958 875.851, 805.218 837.885, 804.767 837.434 C 804.575 837.242, 799.973 837.753, 794.540 838.569 C 789.107 839.385, 772.025 841.605, 756.581 843.501 C 634.184 858.530, 524.024 865.341, 441.500 862.982 C 393.244 861.602, 359.705 858.279, 329 851.836 C 276.080 840.730, 245.473 818.628, 236.968 785.377 C 234.529 775.840, 234.351 760.056, 236.562 749.353 C 237.421 745.194, 237.958 741.624, 237.754 741.421 C 237.550 741.217, 228.485 737.699, 217.608 733.603 L 197.833 726.156 196.397 729.593 " stroke="none" fill="black" fill-rule="evenodd"/>
</svg>