<svg xmlns="http://www.w3.org/2000/svg" width="1000" height="1000" viewBox="0 0 1000 1000" version="1.1">
	<path d="M 269.205 102.235 C 253.197 107.038, 249.030 108.636, 249.477 109.800 C 249.788 110.612, 252.029 118.752, 254.456 127.888 C 267.988 178.839, 281.581 246.217, 289.882 303.500 C 293.502 328.475, 297.556 362.789, 296.953 363.344 C 295.676 364.520, 268.198 366, 247.642 366 C 209.226 366, 172.387 361.442, 138.161 352.453 C 133.024 351.104, 128.427 350, 127.944 350 C 126.742 350, 113.855 390.258, 114.769 391.155 C 116.610 392.962, 153.652 401.258, 174 404.421 C 201.051 408.626, 213.070 409.433, 248.500 409.425 C 270.403 409.419, 286.660 408.965, 291.943 408.212 C 297.885 407.364, 300.582 407.323, 301.045 408.073 C 303.013 411.257, 305.307 482.876, 304.645 520.474 L 304.047 554.448 229.774 628.726 C 188.924 669.579, 155.361 702.582, 155.189 702.067 C 154.522 700.065, 162.441 670.794, 169.448 649.360 C 174.321 634.453, 176.414 626.723, 175.651 626.450 C 160.559 621.050, 136.894 613, 136.111 613 C 133.864 613, 116.804 669.612, 112.568 691.125 C 107.618 716.263, 101.931 763.435, 103.665 764.969 C 104.124 765.375, 113.725 766.466, 125 767.393 C 136.275 768.321, 146.568 769.309, 147.872 769.589 C 149.860 770.017, 152.609 767.781, 164.822 755.800 C 172.840 747.935, 178.818 742.272, 178.106 743.216 C 177.394 744.160, 176.966 745.339, 177.155 745.835 C 177.345 746.331, 181.100 749.597, 185.500 753.094 C 209.780 772.388, 255.611 823.627, 290.962 871 C 296.092 877.875, 300.650 883.903, 301.091 884.396 C 301.540 884.899, 308.608 881.214, 317.196 876 C 325.613 870.890, 335.538 864.884, 339.250 862.654 L 346 858.599 346.039 803.049 C 346.060 772.497, 346.469 708.125, 346.947 660 L 347.817 572.500 384.659 536.307 L 421.500 500.113 406.010 484.555 L 390.521 468.997 369.877 489.623 L 349.233 510.249 348.589 484.375 C 347.924 457.667, 346.460 423.018, 345.355 407.826 L 344.724 399.151 349.112 397.989 C 367.369 393.151, 392.923 383.557, 409.149 375.448 C 417.841 371.105, 437.068 359.941, 441.387 356.729 C 443.172 355.402, 442.665 354.437, 432.026 338.913 C 425.840 329.886, 420.196 321.884, 419.484 321.131 C 418.399 319.982, 416.744 320.656, 409.230 325.304 C 391.827 336.069, 369.233 346.245, 349.194 352.344 C 343.289 354.142, 340.793 354.529, 340.557 353.686 C 340.375 353.034, 338.823 341.025, 337.108 327 C 329.188 262.230, 316.192 193.109, 299.973 129.500 C 291.564 96.517, 291.613 96.687, 290.445 96.388 C 289.925 96.255, 280.367 98.886, 269.205 102.235 M 633 98.879 L 615.500 100.500 614.879 117 C 613.481 154.139, 605.632 181.048, 587.413 211.165 C 579.259 224.644, 562.484 249.116, 549.139 267 C 530.016 292.626, 492.172 339.150, 473.802 359.617 C 471.907 361.728, 471.931 361.766, 483.085 374.117 C 489.236 380.928, 496.421 388.787, 499.053 391.581 L 503.838 396.662 518.810 394.895 C 560.390 389.985, 637.068 383.061, 672.361 381.029 C 695.216 379.712, 737.446 379.708, 757.170 381.019 C 796.461 383.632, 836.957 389.749, 870.371 398.118 C 876.900 399.753, 882.429 400.904, 882.658 400.676 C 883.295 400.038, 895 362.008, 895 360.575 C 895 357.673, 846.656 347.163, 812 342.531 C 742.272 333.212, 686.302 333.910, 569 345.560 C 555.525 346.898, 543.741 347.995, 542.813 347.997 C 541.703 347.999, 545.992 341.929, 555.353 330.250 C 594.232 281.742, 624.790 237.348, 637.094 211.500 C 650.524 183.285, 657.680 151.917, 658.711 116.750 L 659.289 97 654.895 97.129 C 652.478 97.201, 642.625 97.988, 633 98.879 M 572.610 474.226 C 565.631 486.144, 562.689 496.417, 562.649 509 C 562.615 519.923, 564.169 526.370, 569.520 537.500 C 578.176 555.504, 593.364 569.693, 618.083 582.867 C 630.279 589.366, 643.806 595.123, 644.447 594.086 C 646.192 591.262, 659.848 554.564, 659.415 553.863 C 659.122 553.388, 658.346 552.996, 657.691 552.991 C 655.195 552.972, 633.613 541.852, 626.420 536.879 C 609.686 525.312, 603.527 513.962, 607.497 502.009 C 608.955 497.618, 609.013 496.599, 607.864 495.527 C 605.992 493.781, 577.788 471.569, 576.306 470.673 C 575.550 470.216, 574.196 471.517, 572.610 474.226 M 254.540 665.960 C 228.166 692.338, 206.793 714.103, 207.044 714.327 C 207.295 714.550, 211.659 718.175, 216.743 722.383 C 235.102 737.578, 261.118 764.751, 287.622 796.414 L 301.500 812.994 302.208 767.247 C 303.158 705.922, 303.622 617.999, 302.996 618 C 302.719 618, 280.914 639.582, 254.540 665.960 M 552.274 646.250 C 535.533 671.099, 535.875 702.901, 553.156 728.387 C 562.907 742.766, 573.974 753.071, 596.500 768.741 C 660.176 813.039, 696.033 853.162, 719.548 906.427 C 723.329 914.992, 726.942 922, 727.576 922 C 728.210 922, 737.228 918.474, 747.615 914.166 C 762.613 907.944, 766.437 905.978, 766.195 904.616 C 765.509 900.762, 751.475 870.751, 745.338 860.015 C 729.900 833.007, 715.765 814.652, 692.552 791.469 C 670.357 769.304, 648.399 751.320, 618 730.410 C 588.394 710.046, 578.295 692.141, 586.413 674.409 C 587.863 671.241, 588.701 668.324, 588.275 667.925 C 579.726 659.930, 557.422 640, 557.024 640 C 556.727 640, 554.589 642.813, 552.274 646.250 " stroke="none" fill="black" fill-rule="evenodd"/>
</svg>