<svg xmlns="http://www.w3.org/2000/svg" width="1000" height="1000" viewBox="0 0 1000 1000" version="1.1">
	<path d="M 616.500 84.096 C 584.383 94.476, 505.787 110.965, 473.500 114.097 C 457.866 115.613, 406.459 114.690, 387 112.544 C 371.054 110.785, 342.362 106.667, 331.665 104.601 C 325.823 103.473, 324.750 103.488, 324.285 104.700 C 323.529 106.670, 315.238 145.436, 315.500 145.773 C 316.579 147.158, 364.049 154.198, 388 156.525 C 411.531 158.812, 452.275 159.560, 471.632 158.061 C 494.318 156.304, 528.082 150.586, 567.356 141.850 C 577.177 139.666, 585.373 138.040, 585.570 138.237 C 585.767 138.434, 538.192 192.124, 479.848 257.547 C 370.132 380.577, 351.346 400.595, 312.308 436.074 C 291.129 455.321, 277.991 467.859, 278.032 468.783 C 278.050 469.178, 284.689 476.418, 292.787 484.874 L 307.509 500.248 323.505 485.450 C 390.273 423.680, 454.356 384.829, 511.712 371.346 C 522.393 368.836, 525.284 368.573, 542.500 368.554 C 559.265 368.536, 562.551 368.809, 570.433 370.877 C 589.958 376.001, 604.929 384.273, 619.123 397.780 C 631.441 409.501, 639.694 420.875, 648.337 438.037 C 663.486 468.117, 670.535 498.148, 671.688 537.522 C 672.349 560.055, 671.413 572.150, 666.944 598.866 C 659.707 642.128, 648.594 672.268, 629.007 701.763 C 618.587 717.451, 608.247 729.565, 590.371 747.025 C 549.509 786.937, 490.622 825.952, 402.500 871.502 C 392.050 876.903, 383.361 881.426, 383.191 881.553 C 382.576 882.014, 402.033 920, 402.884 920 C 404.053 920, 445.949 898.254, 463.500 888.537 C 518.278 858.209, 563.390 828.361, 597.500 799.876 C 612.143 787.648, 634.845 765.173, 645.872 751.988 C 685.031 705.166, 703.808 658.390, 713.506 583.500 C 720.582 528.855, 711.581 468.194, 689.618 422.500 C 661.880 364.793, 616.572 330.826, 559.500 324.953 C 533.389 322.265, 500.797 326.796, 472.840 336.999 L 464.630 339.995 467.171 337.248 C 485.946 316.938, 662.297 118.399, 662.383 117.474 C 662.560 115.559, 629.094 80.986, 627.168 81.093 C 626.251 81.145, 621.450 82.496, 616.500 84.096 " stroke="none" fill="black" fill-rule="evenodd"/>
</svg>