<svg xmlns="http://www.w3.org/2000/svg" width="1000" height="1000" viewBox="0 0 1000 1000" version="1.1">
	<path d="M 636 97.414 C 626.925 99.742, 618.334 101.942, 616.909 102.303 L 614.318 102.958 617.157 115.229 C 628.675 165.005, 640.881 236.788, 644.496 276 L 645.095 282.500 638.798 286.591 C 620.239 298.647, 587.332 329.339, 574.233 346.809 C 554.158 373.585, 529.407 426.269, 505.552 493 C 501.915 503.175, 497.940 514.264, 496.719 517.641 L 494.500 523.782 494.479 494.141 C 494.452 454.964, 492.495 441.214, 484.926 427.013 C 481.107 419.847, 476.663 415.674, 469.046 412.101 C 463.989 409.729, 462.399 409.502, 451 409.521 C 439.429 409.540, 437.942 409.766, 430.990 412.571 C 407.121 422.198, 388.826 444.033, 366.530 489.500 C 347.910 527.470, 337.127 554.401, 319.785 606.249 C 314.128 623.162, 309.275 636.986, 309 636.970 C 308.725 636.954, 306.552 633.411, 304.172 629.095 C 292.649 608.206, 276.113 593.230, 258.500 587.731 C 249.908 585.048, 232.388 584.810, 224.750 587.273 C 222.137 588.115, 220 588.607, 220 588.365 C 220 585.868, 237.895 544.550, 246.578 527 C 271.642 476.338, 335.636 364.880, 398.281 262.779 L 407.927 247.058 390.214 236.049 C 380.471 229.994, 372.050 224.879, 371.500 224.683 C 370.905 224.470, 371.050 223.659, 371.857 222.681 C 372.603 221.777, 368.103 223.465, 361.857 226.432 C 333.175 240.058, 266.807 264.207, 246 268.588 C 234.575 270.994, 214.897 271.025, 206 268.650 C 185.978 263.307, 170.596 250.610, 160.722 231.276 C 158.233 226.403, 155.884 223.020, 155 223.036 C 151.769 223.094, 115.564 234.807, 115.195 235.914 C 114.498 238.007, 125.663 259.372, 131.733 267.559 C 154.667 298.489, 185.811 314.162, 224.498 314.240 C 238.860 314.269, 248.689 313.051, 263.020 309.464 C 272.482 307.096, 300.503 297.815, 321.456 290.109 C 327.482 287.893, 332.497 286.174, 332.600 286.290 C 332.703 286.405, 326.475 297.075, 318.759 310 C 257.092 413.306, 211.806 495.018, 195.446 532.500 C 180.384 567.009, 161.278 620.429, 141.619 683 C 126.758 730.299, 105.691 803.020, 106.587 803.927 C 106.898 804.242, 116.350 807.022, 127.590 810.106 L 148.028 815.711 149.477 810.606 C 163.718 760.425, 178.198 711.883, 187.867 681.914 C 192.782 666.678, 193.664 665.134, 204.854 652.163 C 216.087 639.144, 231.821 629.002, 240.790 629.001 C 250.550 628.999, 259.912 637.940, 268.957 655.899 C 275.444 668.782, 282.283 689.520, 286.495 709.087 L 288.128 716.673 309.175 717.893 C 320.750 718.563, 330.331 718.974, 330.464 718.806 C 330.598 718.638, 333.289 709.725, 336.443 699 C 344.924 670.165, 360.214 622.271, 368.208 599.500 C 391.314 533.680, 417.417 479.977, 435.116 461.849 C 440.936 455.889, 446.680 452.280, 448.095 453.695 C 451.489 457.089, 451.750 515.058, 448.548 554 C 443.802 611.715, 435.410 680.399, 423.656 757.708 L 421.344 772.917 423.922 773.476 C 442.630 777.538, 463.567 781.756, 463.813 781.515 C 463.985 781.346, 467.710 767.773, 472.091 751.354 C 519.938 572.024, 569.740 432.175, 604.288 380.130 C 609.707 371.966, 615.344 365.498, 628.583 352.250 C 638.064 342.762, 646.312 335, 646.911 335 C 648.785 335, 648.161 356.168, 644.993 400 C 639.888 470.648, 639.942 481.913, 645.500 505.500 C 651.037 528.997, 657.527 544.148, 678.696 583 C 708.979 638.579, 724.264 673.069, 729.584 697.827 C 731.347 706.029, 731.140 708.181, 728.774 706.239 C 728.073 705.664, 721.940 702.417, 715.145 699.023 C 667.318 675.138, 621.038 666.431, 582 673.975 C 546.903 680.758, 518.790 700.801, 505.438 728.562 C 498.607 742.764, 496.122 764.993, 499.524 781.463 C 507.078 818.033, 537.820 843.502, 583.926 851.388 C 596.126 853.474, 620.796 853.503, 634.872 851.448 C 681.497 844.639, 723.414 822.448, 749.648 790.687 C 753.822 785.634, 757.571 781.135, 757.979 780.690 C 759.017 779.555, 789.103 808.945, 802.314 824 C 814.854 838.290, 833.980 863.475, 842.509 876.929 C 845.702 881.965, 848.831 885.954, 849.463 885.793 C 852.072 885.127, 885.952 865.425, 885.975 864.560 C 886.022 862.806, 865.317 832.568, 854.780 819 C 834.238 792.552, 803.742 760.528, 783.843 744.512 L 776.403 738.524 776.384 723.512 C 776.330 683.461, 762.353 645.695, 715.510 559.036 C 698.832 528.181, 694.525 518.805, 690.576 504.763 C 688.124 496.043, 684.807 479.859, 685.359 479.307 C 685.477 479.190, 691.532 480.194, 698.815 481.540 C 724.777 486.337, 735.403 487.366, 759.500 487.417 C 783.673 487.468, 791.212 486.690, 807.500 482.466 C 828.551 477.006, 844.313 468.079, 858.500 453.584 C 871.666 440.132, 879.906 425.215, 885.173 405.299 C 888.309 393.441, 888.550 365.984, 885.627 353.500 C 879.880 328.954, 868.766 307.590, 852.915 290.616 C 836.624 273.172, 818.692 263.326, 789.760 255.939 C 759.694 248.262, 723.950 249.463, 694.186 259.151 C 690.713 260.281, 687.668 261.002, 687.419 260.753 C 687.170 260.504, 686.050 253.145, 684.929 244.400 C 679.520 202.196, 669.289 145.841, 659.484 104.250 C 657.096 94.119, 656.617 93.009, 654.666 93.091 C 653.475 93.141, 645.075 95.086, 636 97.414 M 734 295.088 C 723.969 296.163, 708.894 299.870, 698.823 303.738 L 691.626 306.503 691.472 339.001 C 691.366 361.542, 690.672 379.773, 689.210 398.500 C 688.051 413.350, 686.974 427.525, 686.818 430 L 686.535 434.500 697.017 436.690 C 729.071 443.385, 762.778 445.673, 783.793 442.580 C 804.029 439.602, 817.640 433.360, 828.023 422.296 C 838.890 410.716, 844.349 395.801, 844.235 378 C 844.090 355.312, 833.812 332.344, 816.601 316.244 C 800.354 301.045, 764.379 291.831, 734 295.088 M 592.342 716.410 C 570.198 720.642, 552.513 731.860, 545.692 746 C 540.519 756.724, 540.412 771.191, 545.430 781.447 C 554.736 800.466, 586.729 812.395, 619.750 809.156 C 654.224 805.775, 684.183 793.228, 706.408 772.863 C 712.612 767.178, 723.648 754.259, 722.872 753.590 C 721.752 752.624, 713.153 747.527, 705.109 743.060 C 684.881 731.829, 661.535 722.902, 640.740 718.448 C 625.646 715.215, 603.479 714.282, 592.342 716.410 " stroke="none" fill="black" fill-rule="evenodd"/>
</svg>