<svg xmlns="http://www.w3.org/2000/svg" width="1000" height="1000" viewBox="0 0 1000 1000" version="1.1">
	<path d="M 573.366 100.904 C 548.986 112.437, 507.432 124.380, 469 130.900 C 443.765 135.181, 435.190 136.021, 410 136.677 C 367.164 137.794, 309.609 132.688, 252.151 122.676 C 243.107 121.100, 238.682 120.697, 238.427 121.425 C 238.220 122.016, 236.231 131.468, 234.006 142.429 C 231.086 156.818, 230.279 162.555, 231.106 163.065 C 232.744 164.078, 273.749 170.622, 296.336 173.476 C 345.233 179.654, 389.254 181.994, 422.268 180.168 C 453.020 178.468, 489.852 172.726, 519.897 164.950 C 526.165 163.327, 531.747 162, 532.301 162 C 532.856 162, 510.402 184.590, 482.405 212.200 C 413.563 280.088, 300.268 392.851, 270.105 423.503 C 245.659 448.346, 231.342 464.682, 210.514 491.500 C 204.533 499.200, 197.302 508.200, 194.445 511.500 C 186.212 521.006, 170.965 541.718, 163.837 553.080 C 156.775 564.334, 145.539 584.882, 146.134 585.453 C 147.003 586.288, 183.380 605, 184.134 605 C 184.593 605, 186.867 601.962, 189.186 598.250 C 194.736 589.367, 217.235 555.979, 222.325 549.073 L 226.324 543.646 230.672 556.073 C 237.134 574.541, 235.875 572.863, 242.389 571.683 C 246.424 570.951, 249.461 571.009, 253.406 571.892 C 266.216 574.758, 272.253 584.025, 277.003 608.109 C 284.833 647.805, 286.668 689.136, 282.365 728.855 C 281.510 736.750, 281.190 743.535, 281.655 743.931 C 282.435 744.597, 322.104 751.236, 326.394 751.419 C 327.978 751.487, 329.291 748.480, 334.439 733 C 342.967 707.354, 352.438 684.070, 364.079 660.133 C 375.796 636.040, 381.474 625.836, 392.532 609 C 403.234 592.705, 411.526 582.560, 423.182 571.500 C 433.215 561.981, 440.038 557.368, 450.093 553.306 C 457.820 550.185, 469.272 549.817, 475.766 552.480 C 484.288 555.976, 490.814 566.621, 494.511 583.057 C 497.053 594.356, 497.637 630.273, 495.595 649.596 C 490.343 699.270, 474.458 760.943, 452.862 815.500 C 445.477 834.156, 430.907 863.924, 424.041 874.383 C 421.195 878.719, 419.234 882.593, 419.683 882.993 C 420.132 883.392, 427.841 889.214, 436.813 895.930 C 450.150 905.914, 453.388 907.922, 454.569 906.942 C 457.675 904.365, 468.573 885.604, 477.480 867.500 C 505.778 809.987, 529.066 731.649, 538.125 663.500 C 539.976 649.576, 540.396 641.615, 540.443 619.500 C 540.502 591.635, 539.860 584.521, 535.845 568.500 C 529.393 542.762, 515.415 523.255, 497 514.290 C 484.956 508.426, 475.663 506.622, 460.617 507.228 C 450.451 507.638, 446.970 508.232, 439 510.915 C 421.410 516.838, 407.825 525.466, 391.645 540.991 C 371.183 560.624, 352.040 587.715, 333.475 623.313 C 325.301 638.987, 325.919 638.975, 323.954 623.500 C 319.574 589.024, 312.553 567.298, 301.232 553.191 C 287.994 536.696, 273.220 529.311, 251 528.081 L 238.500 527.389 250.306 515.703 C 311.888 454.750, 389.961 419.170, 486 408.292 C 505.774 406.053, 577.846 405.752, 599 407.820 C 650.476 412.854, 686.926 421.750, 718.552 436.996 C 764.383 459.091, 791.728 493.613, 800.539 540.500 C 803.172 554.511, 803.700 587.404, 801.491 599.765 C 793.792 642.832, 764.926 683.050, 721.500 711.211 C 668.905 745.317, 605.568 753.021, 556.073 731.332 C 553.088 730.024, 550.347 729.302, 549.980 729.727 C 549.614 730.152, 545.207 738.963, 540.188 749.306 L 531.062 768.112 537.368 770.941 C 574.369 787.542, 620.448 791.562, 664.272 782.011 C 743.851 764.669, 814.431 704.296, 837.892 633.500 C 844.653 613.099, 847.001 597.896, 846.999 574.526 C 846.992 486.050, 802.493 421.954, 718.352 389.221 C 668.083 369.665, 605.452 360.745, 529.500 362.324 C 489.975 363.145, 466.918 365.572, 432.398 372.541 C 413.427 376.372, 393.615 381.761, 375.629 387.984 C 369.100 390.243, 363.646 391.958, 363.510 391.795 C 363.374 391.633, 400.891 354.295, 446.881 308.822 C 492.871 263.349, 551.328 205.524, 576.785 180.322 L 623.070 134.500 601.843 116.500 C 590.168 106.600, 580.365 98.388, 580.058 98.251 C 579.751 98.114, 576.740 99.308, 573.366 100.904 " stroke="none" fill="black" fill-rule="evenodd"/>
</svg>