<svg xmlns="http://www.w3.org/2000/svg" width="1000" height="1000" viewBox="0 0 1000 1000" version="1.1">
	<path d="M 440.848 118.571 C 429.437 122.084, 418.378 134.086, 400.749 162.090 L 397.230 167.680 382.286 168.293 C 324.677 170.658, 267.592 156.041, 226.082 128.295 C 220.903 124.833, 216.403 122.031, 216.082 122.070 C 215.762 122.108, 209.224 129.370, 201.554 138.207 L 187.607 154.275 190.554 156.700 C 204.387 168.086, 236.476 185.247, 259.205 193.414 C 291.501 205.018, 329.915 212, 361.472 212 C 368.362 212, 374 212.271, 374 212.603 C 374 212.934, 371.785 218.222, 369.079 224.353 C 332.198 307.890, 310 406.398, 310 486.520 L 310 498.574 294.250 511.148 C 241.834 552.996, 201.591 594.678, 173.930 635.771 C 146.595 676.381, 138.963 711.904, 149.628 748.888 C 160.020 784.923, 190.637 820.258, 230.259 841.944 L 238.018 846.191 258.759 834.422 C 270.167 827.949, 283.325 820.418, 288 817.686 C 305.458 807.485, 332.959 787.558, 354.637 769.402 L 366.773 759.237 373.040 774.369 C 378.667 787.954, 389.760 812.990, 390.524 813.828 C 390.771 814.099, 427.630 795.401, 428.902 794.359 C 429.122 794.178, 426.159 786.936, 422.315 778.265 C 410.820 752.331, 401.524 727.955, 402.572 726.497 C 403.082 725.786, 411.105 717.172, 420.400 707.353 C 465.404 659.811, 509.994 602.417, 536.587 557.800 C 563.999 511.810, 579.177 470.392, 583.053 431 C 583.675 424.675, 584.342 419.338, 584.535 419.140 C 585.498 418.153, 601.242 417.083, 615.372 417.044 C 646.261 416.958, 670.622 423.058, 689.692 435.652 C 698.568 441.513, 711.545 454.508, 717.578 463.574 C 722.970 471.678, 723 471.765, 723 479.454 C 723 493.276, 718.770 510.415, 702.995 560.500 C 687.160 610.779, 682 633.865, 682 654.439 C 682 673.768, 686.568 686.671, 697.067 697 C 706.659 706.437, 718.352 712.038, 735.500 715.412 C 739.900 716.278, 754.300 717.665, 767.500 718.494 C 797.942 720.408, 805.096 722.205, 810.297 729.249 C 813.840 734.046, 815.760 739.754, 817.023 749.245 C 818.428 759.803, 817.445 762.585, 809.286 771.140 C 781.370 800.409, 688.315 833.587, 568.536 856.977 C 559.756 858.692, 552.486 860.186, 552.380 860.297 C 552.122 860.570, 559.237 902.396, 559.624 902.881 C 561.048 904.664, 649.016 884.640, 686 874.115 C 742.865 857.931, 790.638 838.417, 818.158 820.130 C 839.393 806.020, 853.535 789.634, 858.678 773.182 C 861.096 765.445, 861.239 763.941, 860.721 751.682 C 859.072 712.726, 840.597 687.459, 807.593 679.025 C 799.597 676.982, 784.711 675.371, 765.500 674.472 C 749.448 673.720, 741.567 672.558, 734.444 669.893 C 726.800 667.033, 725.753 665.070, 725.831 653.748 C 725.942 637.682, 730.490 618.673, 745.990 569.500 C 761.469 520.392, 765.578 503.485, 766.651 484.500 C 767.405 471.144, 765.970 461.559, 761.941 453.039 C 753.442 435.068, 732.736 411.821, 714.439 399.707 C 685.400 380.480, 650.455 371.825, 608 373.344 C 598.375 373.688, 587.800 374.249, 584.500 374.591 L 578.500 375.212 576.672 368.856 C 572.090 352.927, 560.751 333.905, 547.772 320.376 C 538.760 310.982, 527.370 302.199, 526.035 303.615 C 525.577 304.102, 520.830 312.375, 515.486 322 C 510.142 331.625, 505.621 339.754, 505.441 340.064 C 505.260 340.374, 507.349 342.399, 510.083 344.564 C 512.817 346.729, 517.388 351.376, 520.240 354.891 C 525.423 361.276, 535 378.889, 535 382.034 C 535 383.312, 532.504 384.340, 524.250 386.462 C 480.041 397.826, 422.054 424.633, 368.617 458.408 C 361.140 463.134, 354.814 467, 354.559 467 C 354.303 467, 354.290 464.863, 354.530 462.250 C 354.769 459.637, 355.457 451.425, 356.057 444 C 361.685 374.428, 384.058 294.324, 417.821 222.865 L 423.790 210.231 434.145 209.564 C 459.162 207.953, 470.329 206.756, 482.500 204.383 C 489.650 202.988, 495.800 201.544, 496.166 201.174 C 496.532 200.803, 495.590 190.127, 494.071 177.450 C 491.324 154.522, 491.287 154.357, 487.071 146.253 C 482.557 137.576, 473.025 126.303, 466.971 122.481 C 462.384 119.586, 453.757 116.978, 449.068 117.070 C 447.106 117.108, 443.407 117.784, 440.848 118.571 M 523.665 432.097 C 479.252 445.741, 428.857 470.882, 376.206 505.661 C 365.044 513.034, 355.667 519.703, 355.369 520.481 C 353.939 524.206, 360.518 572.571, 366.568 602.810 C 372.168 630.803, 383.817 676.706, 385.966 679.250 C 387.059 680.543, 418.101 645.662, 439.687 618.884 C 492.077 553.894, 523.841 498.532, 535.030 452.713 C 538.756 437.456, 539.856 427.968, 537.888 428.077 C 537.125 428.119, 530.724 429.928, 523.665 432.097 M 299.500 563.283 C 283.459 577.111, 252.718 607.168, 241.232 620.253 C 215.775 649.254, 198.471 675.550, 192.375 694.500 C 189.216 704.322, 188.100 720.709, 189.945 730.203 C 193.876 750.439, 208.914 772.540, 230.323 789.548 L 238.147 795.763 252.323 787.755 C 283.567 770.106, 318.354 744.640, 345.761 719.354 L 351.022 714.500 347.471 703.500 C 334.197 662.378, 322.623 612.781, 316.551 571 C 315.153 561.375, 314.006 553.163, 314.004 552.750 C 313.995 551.067, 311.931 552.566, 299.500 563.283 " stroke="none" fill="black" fill-rule="evenodd"/>
</svg>