<svg xmlns="http://www.w3.org/2000/svg" width="1000" height="1000" viewBox="0 0 1000 1000" version="1.1">
	<path d="M 699.611 97.146 C 691.174 151.682, 680.740 192.497, 664.050 236.250 C 662.405 240.560, 661.363 242, 659.887 242 C 656.875 242, 627.504 248.661, 608.725 253.602 C 523.399 276.055, 437.591 316.317, 375.500 363.033 C 368.350 368.413, 361.152 373.936, 359.505 375.308 L 356.511 377.802 358.505 380.122 C 364.780 387.418, 385.317 410, 385.678 410 C 385.914 410, 389.120 407.603, 392.803 404.672 C 438.470 368.341, 505.586 333.108, 572.359 310.413 C 599.300 301.256, 638 290.321, 638 291.866 C 638 293.248, 624.805 314.492, 615.340 328.349 C 587.553 369.028, 550.856 414.399, 516.403 450.672 L 501.992 465.843 513.575 487.172 C 519.945 498.902, 525.459 508.799, 525.829 509.163 C 526.198 509.528, 544.725 502.440, 567 493.412 C 589.275 484.384, 608.341 476.725, 609.369 476.393 C 611.050 475.850, 565.594 521.194, 508.009 577.500 C 496.197 589.050, 483.013 602.325, 478.711 607 C 459.173 628.233, 432.347 667.764, 408.816 710 C 396.735 731.685, 381.804 760.913, 382.201 762.103 C 382.469 762.906, 419.257 781, 420.621 781 C 420.737 781, 425.554 771.873, 431.327 760.718 C 453.009 718.821, 472.814 686.042, 492.549 659.394 C 500.770 648.293, 500.777 648.287, 510.186 643.680 C 524.193 636.820, 536.163 634.529, 545.065 637.002 C 556.495 640.177, 567.067 659.945, 572.874 689 C 579.138 720.346, 579.547 763.695, 573.939 801.902 C 572.857 809.274, 572.195 815.529, 572.469 815.802 C 573.503 816.837, 620.528 827.839, 621.119 827.185 C 621.459 826.808, 624.356 823.350, 627.556 819.500 C 649.979 792.521, 677.903 767.460, 702.495 752.248 C 730.399 734.986, 755.689 728.002, 774.356 732.404 C 786.549 735.279, 793.427 739.412, 804.500 750.515 C 816.473 762.522, 822 771.212, 822 778.031 C 822 805.719, 750.035 848.943, 646.560 883.405 C 635.593 887.058, 626.440 890.226, 626.221 890.446 C 625.715 890.952, 637.047 930.213, 638.017 931.318 C 638.968 932.400, 675.085 920.375, 701.869 910.059 C 788.419 876.722, 841.637 841.653, 858.965 806.539 C 871.114 781.920, 867.944 759.941, 848.526 734.164 C 829.699 709.172, 807.793 694.586, 780.500 688.872 C 771.820 687.055, 751.204 687.297, 740.798 689.339 C 706.815 696.007, 666.527 719.202, 631.407 752.319 L 622.313 760.893 621.682 739.197 C 620.336 692.921, 613.807 660.496, 600.499 634 C 590.891 614.872, 578.843 603.330, 561.352 596.498 L 554.204 593.707 601.852 546.649 C 628.058 520.767, 661.341 487.848, 675.814 473.496 L 702.129 447.402 697.409 421.951 C 694.814 407.953, 692.553 396.331, 692.386 396.125 C 692.219 395.918, 669.001 405.076, 640.791 416.475 C 612.581 427.874, 588.837 437.468, 588.026 437.793 C 586.241 438.511, 585.850 439.028, 606.127 413.880 C 642.559 368.697, 668.496 329.967, 686.156 294.375 L 693.164 280.251 705.332 278.631 C 723.217 276.251, 742.408 274.260, 760.500 272.909 C 781.072 271.372, 838.871 271.360, 859.381 272.888 C 868.116 273.538, 875.376 273.942, 875.515 273.785 C 875.946 273.299, 879.210 230.877, 878.845 230.518 C 878.655 230.332, 868.939 229.633, 857.253 228.964 C 818.270 226.734, 750.892 228.617, 718.250 232.848 C 714.813 233.294, 712 233.453, 712 233.203 C 712 232.953, 714.280 225.717, 717.066 217.124 C 723.085 198.562, 731.704 165.384, 735.932 144.500 C 739.219 128.261, 742.972 105.078, 742.989 100.907 L 743 98.314 725.750 96.606 C 716.263 95.667, 706.617 94.649, 704.315 94.345 C 700.196 93.801, 700.121 93.846, 699.611 97.146 M 189.464 98.392 C 188.844 100.273, 178.285 163.085, 174.063 190 C 147.026 362.385, 134.493 502.927, 139.018 583 C 143.142 655.987, 159.510 753.038, 181.182 833 C 183.939 843.175, 186.536 851.861, 186.951 852.303 C 187.367 852.745, 197.785 849.799, 210.103 845.756 L 232.500 838.406 237.219 810.281 C 243.334 773.829, 253.602 722.416, 259.441 699 C 265.328 675.399, 281.517 627.620, 310.371 548.690 L 313.957 538.880 310.353 537.374 C 299.195 532.712, 273.567 524.040, 272.933 524.712 C 272.212 525.476, 257.161 566.756, 243.476 605.500 C 223.970 660.725, 218.151 680.446, 209.983 719 C 207.712 729.725, 205.592 739.175, 205.273 740 C 204.550 741.871, 201.269 725.671, 196.058 694.500 C 181.570 607.826, 178.931 548.378, 185.559 458 C 191.986 370.356, 207.123 254.153, 228.118 131.296 C 230.487 117.434, 232.175 105.842, 231.869 105.536 C 231.564 105.230, 221.979 103.248, 210.571 101.132 C 196.433 98.509, 189.712 97.636, 189.464 98.392 M 480.748 116.762 C 476.359 126.413, 470.502 144.485, 467.711 156.988 C 464.788 170.084, 464.580 198.989, 467.334 209.500 C 470.604 221.982, 477.981 235.706, 486.084 244.383 C 493.372 252.187, 501.621 258.713, 502.758 257.575 C 503.098 257.235, 508.420 248.993, 514.584 239.258 L 525.791 221.559 522.646 219.254 C 520.916 217.986, 518.040 215.048, 516.255 212.724 C 505.123 198.235, 506.623 167.433, 519.979 136.238 C 521.566 132.532, 522.558 129.227, 522.182 128.893 C 521.807 128.559, 513.123 123.951, 502.884 118.654 L 484.268 109.023 480.748 116.762 " stroke="none" fill="black" fill-rule="evenodd"/>
</svg>