<svg xmlns="http://www.w3.org/2000/svg" width="1000" height="1000" viewBox="0 0 1000 1000" version="1.1">
	<path d="M 355.771 108.440 L 346.066 127.880 356.783 133.613 C 399.861 156.657, 438.808 182.939, 466.534 207.673 C 488.431 227.208, 513.607 260.160, 534.016 296 C 538.558 303.975, 542.604 310.869, 543.007 311.320 C 543.656 312.046, 582 293.614, 582 292.575 C 582 291.520, 566.915 265.261, 560.211 254.645 C 524.739 198.480, 491.133 165.269, 430.091 126.059 C 412.849 114.983, 367.797 89, 365.834 89 C 365.637 89, 361.109 97.748, 355.771 108.440 M 748 350.031 C 703.563 353.694, 616.813 359.355, 549.500 362.984 C 444.960 368.622, 385.886 370.305, 288.814 370.411 L 208.129 370.500 207.618 373.500 C 207.338 375.150, 206.975 384.825, 206.811 395 L 206.514 413.500 302.507 413.464 C 359.901 413.443, 411.970 412.927, 432 412.181 C 508.710 409.325, 609.281 403.803, 701.887 397.364 C 715.160 396.441, 726.230 395.896, 726.487 396.154 C 726.744 396.411, 725.417 402.444, 723.536 409.561 C 696.174 513.134, 640.526 609.410, 570.500 674.330 C 501.669 738.142, 408.407 793.168, 296.500 835.995 C 277.449 843.286, 226.094 860.611, 216.250 863.068 C 212.958 863.889, 211 864.914, 211 865.816 C 211 866.607, 213.318 876.188, 216.151 887.108 L 221.303 906.962 223.901 906.324 C 241.499 901.999, 290.405 885.305, 323 872.495 C 462.607 817.631, 574.244 743.705, 644.035 659.906 C 705.198 586.466, 750.625 492.883, 771.410 397.500 C 773.686 387.059, 779 353.384, 779 349.407 C 779 347.646, 776.269 347.701, 748 350.031 " stroke="none" fill="black" fill-rule="evenodd"/>
</svg>