<svg xmlns="http://www.w3.org/2000/svg" width="1000" height="1000" viewBox="0 0 1000 1000" version="1.1">
	<path d="M 703 133.589 C 700.525 133.793, 692.200 134.445, 684.500 135.039 C 663.771 136.637, 627.062 141.413, 596.500 146.488 C 571.633 150.618, 555.512 153.580, 479.500 167.981 C 428.813 177.585, 413.857 179.403, 376 180.562 C 331.252 181.932, 277.815 177.169, 239.628 168.405 C 233.648 167.033, 228.625 166.043, 228.464 166.205 C 228.047 166.627, 216 206.094, 216 207.039 C 216 207.839, 230.987 211.593, 245.500 214.429 C 284.832 222.115, 339.649 225.842, 385.888 223.975 C 426.271 222.345, 436.307 220.920, 519.443 205.010 C 637.772 182.366, 686.123 176.159, 735.457 177.279 C 759.928 177.835, 770.502 179.205, 783.025 183.441 C 798.221 188.583, 804.514 195.403, 804.413 206.624 C 804.330 215.852, 800.674 222.501, 789.587 233.587 C 765.176 257.997, 715.086 280.980, 641.747 301.419 C 613.313 309.343, 563.848 320.474, 539.250 324.483 C 534.015 325.336, 534.073 324.216, 538 348.500 C 539.650 358.704, 541 367.323, 541 367.655 C 541 369.479, 590.981 359.473, 627.500 350.336 C 755.206 318.387, 827.066 278.241, 844.339 229.194 C 848.213 218.193, 849.205 201.332, 846.590 190.916 C 840.226 165.564, 820.251 147.796, 788.844 139.549 C 772.028 135.134, 760.247 133.864, 733 133.531 C 718.975 133.359, 705.475 133.386, 703 133.589 M 336.529 382.663 C 301.781 408.405, 278.864 443.525, 273.337 479.500 C 270.851 495.684, 272.767 521.241, 279.627 563.401 L 283.191 585.302 273.846 593.900 C 250.101 615.745, 220.192 645.151, 200.670 665.847 C 167.377 701.141, 138.571 734.212, 139.276 736.329 C 139.554 737.163, 246.148 821.118, 300.097 862.994 L 307.695 868.891 320.197 850.696 C 333.939 830.696, 333.952 830.664, 337.883 807.962 C 342.478 781.432, 343.441 768.139, 343.424 731.500 C 343.404 688.791, 341.610 669.557, 332.338 612.653 L 330.571 601.805 335.535 597.531 C 400.364 541.712, 462.161 498.991, 521.500 468.970 C 561.834 448.563, 594.457 436.251, 629.869 428.068 C 643.009 425.031, 667.901 421.015, 673.644 421.005 L 676.787 421 675.838 425.250 C 670.709 448.209, 643.889 492.319, 604.440 542.677 L 598.818 549.854 611.035 567.177 C 617.755 576.705, 623.418 584.685, 623.621 584.911 C 624.065 585.407, 627.969 584.925, 695.786 576.007 C 725.094 572.153, 749.738 569, 750.552 569 C 751.829 569, 751.995 572.773, 751.766 596.512 L 751.500 624.023 737 624.424 C 682.472 625.933, 639.273 646.700, 627.947 676.848 C 618.113 703.027, 629.988 726.360, 665.172 749.985 L 673.843 755.807 659.852 764.654 C 620.581 789.483, 605.794 806.381, 604.263 828.175 C 603.333 841.419, 607.666 852.698, 617.005 861.345 C 628.811 872.275, 648.020 878.430, 681.500 882.011 C 698.130 883.790, 748.379 884.356, 776.500 883.081 C 810.208 881.553, 865.618 877.484, 866.837 876.447 C 867.369 875.993, 862.766 834.577, 862.099 833.818 C 861.770 833.443, 854.975 833.758, 847 834.517 C 797.400 839.239, 725.413 841.414, 695.338 839.099 C 671.365 837.253, 648 832.759, 648 829.993 C 648 828.087, 659.084 818.032, 668.668 811.245 C 679.879 803.304, 718.094 780, 719.904 780 C 720.563 780, 725.242 781.754, 730.301 783.898 C 742.731 789.166, 772.954 800.398, 773.359 799.900 C 773.539 799.680, 778.481 790.576, 784.343 779.669 L 795 759.838 795 739.579 L 795 719.319 799.823 711.295 C 815.466 685.266, 815.236 654.491, 799.297 641.168 L 795 637.576 795 600.288 C 795 579.780, 795.112 562.998, 795.250 562.995 C 796.755 562.963, 832.357 557.977, 832.565 557.769 C 832.720 557.614, 831.629 548.043, 830.141 536.501 C 828.060 520.355, 827.097 515.452, 825.968 515.241 C 825.161 515.090, 818.200 515.812, 810.500 516.846 C 802.800 517.879, 796.163 518.535, 795.750 518.303 C 795.337 518.072, 795 509.134, 795 498.441 L 795 479 773.519 479 L 752.038 479 751.769 501.750 L 751.500 524.500 708.516 530.183 C 684.875 533.308, 665.394 535.727, 665.225 535.558 C 665.056 535.389, 669.151 529.007, 674.325 521.375 C 698.064 486.361, 713.087 457.153, 718.203 436.068 C 726.178 403.191, 711.287 379.622, 681.097 377.339 C 661.602 375.865, 616.074 384.632, 579 396.998 C 503.346 422.234, 415.966 473.968, 332.536 542.920 C 325.530 548.709, 322.431 550.721, 321.933 549.801 C 320.808 547.720, 316.949 514.975, 316.322 502.190 C 315.344 482.256, 319.633 467.120, 331.095 450.054 C 339.355 437.756, 354.647 422.891, 368.887 413.320 C 369.638 412.815, 347.612 376, 346.564 376.008 C 345.979 376.013, 341.463 379.007, 336.529 382.663 M 269.413 658.352 C 251.098 676.203, 223.944 704.428, 205.138 725.161 L 200.910 729.821 246.996 765.911 C 272.343 785.760, 293.462 802, 293.926 802 C 294.964 802, 296.612 791.001, 298.516 771.372 C 300.419 751.761, 300.390 712.087, 298.457 690 C 297.024 673.621, 292.452 638.119, 291.676 637.342 C 291.483 637.150, 281.465 646.604, 269.413 658.352 M 726.500 668.644 C 698.144 672.190, 674.363 681.595, 669.378 691.236 C 667.960 693.977, 668.020 694.338, 670.414 697.476 C 673.542 701.577, 681.526 708.368, 689.523 713.729 C 697.859 719.317, 715.195 729, 716.864 729 C 718.848 729, 738.171 714.707, 745.669 707.693 L 752.047 701.727 751.774 685.113 L 751.500 668.500 740.500 668.385 C 734.450 668.321, 728.150 668.438, 726.500 668.644 " stroke="none" fill="black" fill-rule="evenodd"/>
</svg>