<svg xmlns="http://www.w3.org/2000/svg" width="1000" height="1000" viewBox="0 0 1000 1000" version="1.1">
	<path d="M 574.456 101.250 C 553.463 157.241, 535.757 188.691, 505.642 223.485 C 500.889 228.977, 497 233.772, 497 234.141 C 497 234.510, 504.087 240.051, 512.750 246.454 C 522.443 253.619, 530.534 260.481, 533.789 264.298 L 539.078 270.500 527.789 271.185 C 423.067 277.544, 343.634 304.773, 283.997 354.756 C 229.291 400.606, 193.448 470.836, 182.308 554 C 179.749 573.105, 179.753 621.743, 182.316 641 C 188.196 685.192, 199.210 722.313, 217.475 759.500 C 237.061 799.377, 263.240 832.382, 290.880 852.042 C 319.416 872.340, 359.966 888.215, 399.500 894.565 C 413.016 896.736, 447.830 897.575, 461.113 896.050 C 534.586 887.613, 593.152 845.474, 632.984 772.388 C 636.721 765.530, 641.916 755.100, 644.527 749.210 C 647.138 743.319, 649.394 738.357, 649.539 738.182 C 649.684 738.007, 655.428 739.661, 662.302 741.859 C 687.302 749.852, 713.930 755.308, 744.200 758.641 C 759.686 760.346, 817.065 761.266, 818.500 759.832 C 818.868 759.465, 818.231 749.706, 817.085 738.146 C 815.938 726.586, 815 716.987, 815.001 716.814 C 815.001 716.641, 806.156 716.655, 795.345 716.844 C 753.156 717.584, 713.172 712.042, 676.156 700.324 C 665.138 696.836, 664.826 696.658, 665.297 694.117 C 665.564 692.678, 667.803 683.625, 670.273 674 C 689.583 598.737, 689.974 522.594, 671.445 446 C 662.274 408.090, 649.190 372.453, 631.284 336.607 C 626.149 326.328, 624.205 321.491, 625.008 320.995 C 625.656 320.594, 627.614 310.496, 629.423 298.223 L 632.673 276.171 630.087 275.663 C 628.664 275.384, 619.919 274.334, 610.654 273.330 L 593.808 271.504 589.271 265.002 C 584.093 257.582, 567.792 236.447, 562.696 230.546 L 559.281 226.593 565.506 217.546 C 579.717 196.892, 591.821 174.283, 603.296 146.961 C 613.385 122.941, 618.437 109.029, 617.416 108.085 C 616.499 107.238, 579.405 94, 577.947 94 C 577.523 94, 575.952 97.263, 574.456 101.250 M 505.500 316.663 C 503.850 316.863, 496.650 317.729, 489.500 318.588 C 411.516 327.953, 345.169 355.878, 302.104 397.462 C 282.182 416.698, 268.803 434.836, 256.167 459.739 C 241.337 488.966, 232.043 517.979, 226.772 551.500 C 224.840 563.780, 224.570 569.431, 224.569 597.500 C 224.569 625.281, 224.850 631.282, 226.702 643.013 C 232.644 680.646, 241.323 708.599, 256.970 740.500 C 270.097 767.264, 283.991 787.096, 301.132 803.538 C 315.120 816.956, 326.534 824.443, 346.714 833.439 C 405.787 859.773, 466.619 860.228, 515.210 834.700 C 552.262 815.234, 581.532 781.368, 604.566 731.311 L 609.912 719.694 599.815 713.529 C 549.428 682.761, 515.695 637.926, 504.993 587.500 C 502.254 574.596, 501.236 548.188, 502.943 534.346 C 504.476 521.925, 507.198 509.494, 510.922 497.912 C 512.933 491.661, 513.470 488.761, 512.665 488.514 C 512.024 488.317, 509.062 487.608, 506.083 486.938 C 492.084 483.791, 479.758 476.871, 469.253 466.261 C 463.372 460.321, 461.078 457.015, 457.076 448.721 C 450.295 434.667, 448.490 426.057, 448.540 408 C 448.586 390.992, 450.033 384.125, 456.439 370.500 C 464.288 353.809, 478.295 338.099, 497 325.007 C 507.137 317.913, 509.668 316.054, 509 316.194 C 508.725 316.252, 507.150 316.463, 505.500 316.663 M 568.430 336.897 C 532.119 350.727, 505.726 369.635, 496.402 388.501 C 492.519 396.359, 492.500 396.454, 492.500 408.448 C 492.500 417.693, 492.941 421.767, 494.394 425.942 C 496.913 433.180, 503.678 439.938, 511.559 443.089 C 516.873 445.213, 519.112 445.470, 532.776 445.524 L 548.053 445.584 560.026 457.526 C 566.612 464.095, 572 470.104, 572 470.880 C 572 471.657, 569.320 476.629, 566.044 481.929 C 547.677 511.648, 541.123 550.571, 548.943 583.496 C 555.171 609.720, 571.762 635.605, 595.827 656.644 C 604.129 663.902, 623.618 677.749, 624.372 676.926 C 625.219 676, 632.053 646.731, 634.394 634 C 639.504 606.208, 640.489 593.925, 640.489 558 C 640.489 522.104, 639.511 509.891, 634.404 482 C 628.799 451.394, 617.692 414.058, 605.547 385 C 598.222 367.476, 581 332.991, 579.593 333.031 C 578.992 333.048, 573.969 334.788, 568.430 336.897 " stroke="none" fill="black" fill-rule="evenodd"/>
</svg>