<svg xmlns="http://www.w3.org/2000/svg" width="1000" height="1000" viewBox="0 0 1000 1000" version="1.1">
	<path d="M 399.618 72.047 C 391.578 80.323, 385 87.510, 385 88.017 C 385 89.114, 402.015 103.825, 414 113.089 C 449.438 140.484, 479.052 155.373, 513.500 163.117 C 541.500 169.410, 592.593 175.978, 613.689 175.995 L 619.877 176 620.393 171.750 C 620.676 169.412, 621.133 159.767, 621.407 150.316 L 621.905 133.132 616.702 132.618 C 613.841 132.336, 604.975 131.604, 597 130.991 C 562.596 128.349, 524.404 121.895, 505.257 115.488 C 481.523 107.546, 452.001 89.056, 423.269 64.138 C 418.742 60.212, 414.858 57, 414.638 57 C 414.417 57, 407.658 63.771, 399.618 72.047 M 624.500 209.671 C 593.486 210.713, 546.827 214.390, 518 218.065 C 482.177 222.632, 443.199 230.235, 390 243.032 C 322.894 259.175, 301.112 263.359, 275.993 264.932 C 234.335 267.540, 192.531 256.691, 173.966 238.454 C 171.472 236.004, 169.071 234, 168.631 234 C 167.508 234, 130.666 249.992, 129.748 250.878 C 128.584 252.002, 134.539 260.691, 141.347 267.802 C 159.015 286.256, 186.952 299.162, 224.500 306.218 C 234.951 308.181, 239.792 308.474, 262 308.486 C 298.849 308.506, 315.445 305.855, 390 288.039 C 481.809 266.100, 518.097 260.191, 594 254.822 C 617.905 253.131, 692.498 253.125, 710.500 254.813 C 765.348 259.955, 798.304 269.427, 813.665 284.465 C 820.749 291.399, 822.592 296.104, 821.536 304.556 C 819.356 322.003, 803.776 335.566, 778 342.456 C 761.749 346.799, 747.651 348.334, 723.206 348.421 C 701.750 348.497, 700.897 348.575, 700.499 350.500 C 699.420 355.717, 696.050 390.384, 696.571 390.906 C 697.720 392.059, 742.655 392.128, 754 390.994 C 820.212 384.375, 859.724 355.112, 864.898 308.863 C 869.278 269.714, 842.164 239.200, 789.524 224.040 C 749.116 212.403, 691.788 207.411, 624.500 209.671 M 411.500 333.619 C 395.006 338.780, 374.240 343.636, 358 346.130 C 338.813 349.077, 306.401 349.332, 292.092 346.648 C 279.694 344.323, 262.205 339.776, 253.537 336.625 C 249.707 335.233, 246.472 334.195, 246.348 334.319 C 245.891 334.776, 230 373.432, 230 374.087 C 230 375.169, 253.386 382.648, 267.020 385.926 C 287.867 390.937, 300.367 392.409, 322 392.398 C 343.550 392.388, 357.948 390.891, 386.396 385.701 C 387.101 385.573, 387.911 389.832, 388.638 397.500 C 389.952 411.355, 391.562 452, 390.797 452 C 390.514 452, 386.911 450.443, 382.791 448.539 C 361.383 438.648, 334.577 434.890, 310.896 438.460 C 286.517 442.134, 267.266 455.470, 255.128 477.090 C 243.900 497.089, 243.028 520.650, 252.821 539.428 C 269.204 570.840, 317.194 587.076, 356.636 574.551 C 360.686 573.265, 364 572.353, 364 572.524 C 364 572.944, 340.578 587.579, 330 593.768 C 313.112 603.649, 289.459 616.263, 262.989 629.506 C 248.145 636.931, 236 643.181, 236 643.393 C 236 644.304, 253.205 680.587, 254.034 681.425 C 255.826 683.235, 325.863 647.223, 358.500 627.711 C 387.442 610.408, 401.151 600.200, 449 560.324 C 474.575 539.011, 524.750 497.242, 560.500 467.504 L 625.500 413.434 625.523 431.467 C 625.541 445.756, 625.930 450.953, 627.394 456.500 C 635.858 488.568, 656.053 506.942, 707.205 529.116 C 715.292 532.622, 721.592 535.803, 721.205 536.184 C 720.042 537.328, 691.211 545.189, 643 557.506 C 553.416 580.395, 509.698 592.672, 472 605.530 C 397.749 630.854, 364.683 652.654, 357.399 681.087 C 352.958 698.425, 363.004 723.549, 381.175 740.547 C 390.896 749.641, 402.814 756.922, 415.500 761.519 C 418.250 762.515, 420.889 763.668, 421.365 764.080 C 422.774 765.302, 405.606 782.308, 393.100 792.078 C 362.218 816.205, 299.317 854.566, 238.250 886.515 C 233.162 889.177, 229 891.793, 229 892.328 C 229 893.495, 246.744 928.120, 247.986 929.376 C 250.037 931.451, 330.955 886.359, 369.426 861.703 C 378.206 856.076, 382.077 854.251, 389.131 852.413 C 430.394 841.663, 489.015 841.301, 539 851.487 C 592.633 862.416, 675.315 892.625, 772.904 936.945 C 789.723 944.584, 795.505 946.801, 796.099 945.840 C 798.155 942.513, 814.291 907.970, 813.921 907.687 C 810.912 905.388, 746.612 877.119, 714.500 863.977 C 602.986 818.338, 541.600 802.201, 471.669 800.143 L 449.837 799.500 461.385 785.825 L 472.934 772.149 480.217 772.684 C 492.832 773.609, 542.328 771.208, 555.500 769.031 C 588.314 763.609, 627.899 750.542, 664.619 733.010 L 678.943 726.172 672.963 712.919 C 649.444 660.793, 606.730 634.509, 563.402 645.500 C 547.232 649.602, 527.267 660.513, 508.500 675.504 C 496.568 685.035, 476.434 703.754, 465.472 715.507 L 454.995 726.741 450.247 725.858 C 426.110 721.370, 409.868 711.603, 402.856 697.359 C 399.885 691.323, 399.818 690.926, 401.383 688.538 C 405.786 681.818, 430.688 667.920, 457 657.497 C 495.022 642.435, 542.915 628.328, 642 603.006 C 740.485 577.838, 760.429 571.416, 772.144 561.104 C 778.554 555.462, 781.389 548.656, 781.352 539 C 781.276 519.598, 768.687 507.734, 731.436 491.959 C 714.819 484.922, 697.905 476.474, 690 471.262 C 673.493 460.378, 669 451.877, 669 431.526 C 669 413.325, 672.500 396.830, 680.744 376.181 C 683.325 369.717, 684.885 364.498, 684.381 364.011 C 683.897 363.543, 676.102 357.065, 667.059 349.615 C 653.255 338.243, 650.371 336.266, 649.070 337.286 C 646.225 339.516, 536.207 430.851, 478.704 478.720 C 447.466 504.724, 421.727 526, 421.505 526 C 421.283 526, 422.410 523.364, 424.008 520.143 C 431.794 504.449, 434.448 485.766, 434.397 447 C 434.349 410.840, 432.846 391.733, 425.883 338.750 C 425.199 333.540, 424.282 330.036, 423.617 330.089 C 423.003 330.138, 417.550 331.726, 411.500 333.619 M 314.147 482.014 C 301.216 484.737, 290.033 498.074, 290.010 510.800 C 289.994 519.277, 293.800 524.436, 303.733 529.401 C 323.078 539.070, 344.811 536.300, 365.514 521.527 C 374.803 514.899, 386.514 501.633, 384.373 500.165 C 383.840 499.799, 381.285 498.014, 378.696 496.198 C 372.443 491.812, 361.054 486.469, 352.464 483.892 C 344.589 481.529, 321.761 480.411, 314.147 482.014 M 570.163 688.934 C 556.122 694.139, 539.321 705.647, 520 723.296 L 514.500 728.320 529 727.675 C 551.336 726.681, 576.712 720.923, 605.948 710.213 L 618.397 705.653 612.051 699.817 C 608.561 696.607, 602.791 692.546, 599.230 690.792 C 590.736 686.611, 578.534 685.831, 570.163 688.934 " stroke="none" fill="black" fill-rule="evenodd"/>
</svg>