<svg xmlns="http://www.w3.org/2000/svg" width="1000" height="1000" viewBox="0 0 1000 1000" version="1.1">
	<path d="M 568 77.778 C 568 78.911, 563.373 111.586, 562.500 116.616 L 561.960 119.732 568.230 120.923 C 606.876 128.263, 639.901 143.313, 649.062 157.759 C 656.142 168.923, 651.942 179.691, 619.514 233.500 C 599.613 266.523, 588.082 288.474, 583.765 301.553 C 575.286 327.241, 578.355 346.749, 593.154 361.230 C 602.494 370.369, 618.053 377.007, 650 385.481 C 695.011 397.420, 702.411 403.716, 699.560 427.640 C 698.878 433.361, 698.666 433.690, 690.655 441.500 C 675.899 455.884, 642.642 477.604, 598 502.014 C 579.149 512.321, 512.437 545.947, 490.250 556.324 C 483.512 559.476, 478 562.427, 478 562.883 C 478 563.640, 494.820 601.145, 495.441 601.771 C 495.993 602.330, 533.697 584.219, 568 566.918 C 650.076 525.523, 698.685 495.454, 723 471.037 C 739.336 454.632, 743.247 444.810, 743.325 420 C 743.366 406.892, 743.113 404.724, 740.696 397.422 C 735.160 380.699, 722.488 366.852, 704.729 358.122 C 692.631 352.174, 688.736 350.844, 660.207 342.923 C 648.268 339.608, 635.125 335.453, 631 333.691 C 623.696 330.571, 623.492 330.388, 623.186 326.690 C 622.405 317.229, 631.208 298.941, 657.937 254.500 C 686.323 207.304, 694.577 189.068, 695.672 171.137 C 698.174 130.127, 661.754 98.454, 592.654 81.548 C 576.181 77.517, 568 76.266, 568 77.778 M 307.508 200.300 C 306.554 203.232, 297.963 241.287, 298.217 241.460 C 298.373 241.566, 303.660 243.342, 309.967 245.406 C 349.545 258.362, 375.970 279.611, 379.948 301.677 C 382.377 315.154, 375.650 340.387, 343.941 436.735 C 306.215 551.367, 289.431 609.592, 278.061 665.279 C 265.633 726.148, 262.198 762.939, 266.464 789.500 C 273.440 832.932, 300.859 861.666, 348.503 875.473 C 370.113 881.735, 389.562 884.351, 430.500 886.503 C 514.527 890.918, 614.929 890.348, 700.500 884.968 C 719.128 883.797, 739.102 882.160, 743.750 881.424 L 747 880.909 747 858.664 L 747 836.418 736.896 813.959 C 711.432 757.361, 705.554 742.714, 672.496 653.500 C 659.453 618.300, 648.675 589.382, 648.546 589.239 C 648.250 588.910, 609.003 603.663, 608.298 604.369 C 607.814 604.852, 649.767 718.936, 661.484 749 C 666.974 763.086, 683.177 801.107, 694.299 826 L 700.778 840.500 695.639 841.192 C 686.065 842.480, 649.696 843.998, 599.752 845.194 C 527.503 846.924, 424.829 844.115, 390 839.455 C 375.540 837.521, 357.263 833, 347.538 828.952 C 326.094 820.024, 314.040 805.959, 309.873 785 C 308.073 775.950, 308.362 749.225, 310.423 734.070 C 314.422 704.658, 322.322 664.835, 331.131 629.684 C 341.720 587.429, 354.829 543.996, 381.031 464.351 C 407.963 382.486, 416.690 353.504, 422.055 328.106 C 423.885 319.447, 424.173 315.525, 423.785 304.606 C 423.386 293.386, 422.889 290.263, 420.332 282.904 C 410.674 255.113, 388.622 233.039, 353.500 216.003 C 333.824 206.460, 308.336 197.757, 307.508 200.300 " stroke="none" fill="black" fill-rule="evenodd"/>
</svg>