<svg xmlns="http://www.w3.org/2000/svg" width="1000" height="1000" viewBox="0 0 1000 1000" version="1.1">
	<path d="M 476.614 109.750 C 476.328 110.713, 475.380 114.650, 474.508 118.500 C 473.637 122.350, 469.305 139.225, 464.882 156 C 444.053 234.999, 428.055 283.460, 415.034 307 C 402.006 330.554, 384.373 354.702, 369.750 369.015 C 364.387 374.264, 360 378.858, 360 379.224 C 360 380.066, 382.819 419.182, 384.027 420.411 C 384.561 420.955, 411.604 406.048, 451.146 383.411 C 487.570 362.560, 517.721 345.355, 518.150 345.179 C 518.578 345.002, 516.751 349.502, 514.090 355.179 C 499.351 386.623, 491.565 413.600, 488.905 442.437 C 487.403 458.714, 488.163 497.943, 490.902 545.500 C 494.909 615.102, 495.425 632.005, 495.462 695 C 495.497 753.372, 494.359 793.385, 492.164 810.926 L 491.500 816.234 475 797.380 C 455.896 775.550, 423.515 742.243, 407.552 728.003 C 395.501 717.254, 376.939 702, 375.908 702 C 375.358 702, 352.886 731.972, 350.764 735.537 C 350.277 736.354, 354.176 740.122, 362.247 746.637 C 393.546 771.899, 449.631 831.851, 484 876.784 C 488.675 882.896, 492.881 887.920, 493.348 887.948 C 493.814 887.977, 502.390 883.076, 512.406 877.057 L 530.616 866.113 532.332 851.807 C 537.415 809.444, 539.418 765.257, 539.396 696 C 539.376 636.321, 538.633 612.467, 534.787 548 C 531.935 500.206, 531.661 444.921, 534.208 431.500 C 539.267 404.852, 552.027 373.096, 565.814 352.844 C 578.150 334.722, 596.762 314.288, 617.196 296.430 L 622.891 291.453 616.696 281.975 C 613.288 276.763, 607.244 267.453, 603.264 261.287 L 596.029 250.075 523.779 291.468 C 484.041 314.235, 451.426 332.759, 451.301 332.634 C 451.176 332.509, 453.161 328.385, 455.713 323.469 C 471.714 292.646, 489.443 237.214, 513.531 142.690 C 517.940 125.386, 519.497 117.754, 518.676 117.460 C 516.236 116.588, 479.731 108, 478.462 108 C 477.732 108, 476.900 108.787, 476.614 109.750 M 737.500 511.608 C 730.434 512.554, 722.951 514.344, 723.215 515.025 C 723.372 515.429, 726.598 524.702, 730.384 535.630 L 737.267 555.500 743.884 555.500 C 769.731 555.500, 786.700 583.473, 794.537 639 C 795.563 646.277, 796.361 661.059, 796.707 679.250 L 797.254 708 805.469 708 C 809.987 708, 819.830 708.295, 827.342 708.655 L 841 709.310 840.998 689.405 C 840.989 617.135, 827.534 566.031, 801.079 537.781 C 788.944 524.823, 776.562 517.190, 762 513.690 C 755.056 512.021, 742.433 510.948, 737.500 511.608 M 311.583 575.577 C 268.924 629.233, 209.204 673.650, 156.784 690.711 C 147.140 693.849, 142.056 695.986, 142.034 696.911 C 142.004 698.141, 151.951 737.106, 152.457 737.741 C 152.995 738.417, 172.193 732.158, 184.500 727.294 C 226.483 710.703, 267.544 683.223, 307.134 645.224 C 320.781 632.125, 342.301 607.901, 353.224 593.342 C 353.819 592.548, 348.799 588.430, 337.296 580.274 C 328.058 573.724, 320.012 568.077, 319.416 567.726 C 318.811 567.369, 315.358 570.830, 311.583 575.577 " stroke="none" fill="black" fill-rule="evenodd"/>
</svg>