<svg xmlns="http://www.w3.org/2000/svg" width="1000" height="1000" viewBox="0 0 1000 1000" version="1.1">
	<path d="M 633.136 96.056 C 622.485 98.717, 613.635 101.031, 613.469 101.198 C 613.302 101.364, 613.617 105.325, 614.168 110 C 617.051 134.459, 610.637 166.240, 597.746 191.382 C 590.048 206.396, 571.498 231.199, 550.289 254.837 L 545.500 260.175 493.500 264.534 C 435.248 269.416, 393.971 272.456, 365 273.998 C 314.977 276.660, 230.406 276.241, 145.163 272.910 C 130.127 272.322, 117.680 271.990, 117.501 272.171 C 117.323 272.352, 116.852 282.218, 116.453 294.096 L 115.729 315.691 134.115 316.355 C 199.386 318.713, 223.857 319.219, 276.500 319.298 C 346.694 319.404, 382.946 317.757, 469.473 310.531 C 485.407 309.201, 498.566 308.232, 498.713 308.380 C 499.143 308.809, 453.963 353.201, 436.985 369.033 C 428.451 376.990, 412.492 391.600, 401.519 401.500 C 390.547 411.400, 379.317 421.596, 376.565 424.158 L 371.561 428.817 376.791 450.586 C 379.667 462.558, 382.194 472.527, 382.405 472.738 C 382.616 472.949, 397.124 469.517, 414.644 465.112 C 458.464 454.093, 497.684 444.925, 521.734 440.078 C 532.862 437.835, 542.216 436, 542.520 436 C 542.825 436, 531.933 445.788, 518.318 457.750 C 444.786 522.355, 411.335 554.825, 305 664.812 C 266.775 704.350, 235.396 736.625, 235.268 736.534 C 235.140 736.443, 235.894 733.366, 236.944 729.696 C 242.779 709.293, 244.112 682.201, 240.196 663.641 C 239.051 658.218, 237.874 653.541, 237.579 653.246 C 237.164 652.830, 211.844 661.113, 198.423 666.054 C 196.412 666.795, 196.386 667.054, 197.633 674.160 C 200.060 687.994, 198.978 702.952, 194.409 718.718 C 190.040 733.793, 177.646 764.341, 159.085 805.783 C 154.088 816.939, 150 826.419, 150 826.850 C 150 827.702, 183.580 851, 184.808 851 C 185.221 851, 235.336 799.587, 296.175 736.750 C 435.434 592.917, 461.915 566.679, 523.518 511.496 C 553.251 484.862, 617.109 430.067, 623.783 425.462 C 624.220 425.161, 620.024 374.691, 619.520 374.187 C 619.275 373.942, 611.746 375.412, 602.788 377.453 C 557.978 387.662, 540.736 391.446, 515.950 396.510 C 501.093 399.546, 482.357 403.603, 474.315 405.528 C 466.273 407.452, 459.534 408.867, 459.339 408.672 C 459.145 408.478, 469.078 398.773, 481.413 387.105 C 493.748 375.437, 518.041 351.515, 535.399 333.945 C 561.724 307.298, 567.418 302, 569.729 302 C 571.253 302, 585.775 301.118, 602 300.041 C 661.398 296.099, 676.360 295.529, 720 295.548 C 777.429 295.573, 810.384 298.114, 862.546 306.537 L 866.593 307.190 870.880 286.012 C 873.238 274.364, 875.016 264.683, 874.832 264.498 C 874.314 263.981, 842.986 259.231, 829 257.550 C 806.639 254.861, 782.072 253.027, 752.105 251.809 C 721.457 250.563, 680.188 251.448, 629.500 254.437 C 617.400 255.150, 607.421 255.677, 607.324 255.607 C 607.227 255.538, 609.870 251.885, 613.196 247.491 C 637.015 216.025, 649.336 189.514, 655.436 156.605 C 657.970 142.933, 659.048 124.259, 658.049 111.332 C 656.745 94.449, 656.072 90.978, 654.122 91.108 C 653.230 91.167, 643.786 93.394, 633.136 96.056 M 305.280 132.946 C 306.215 151.066, 312.801 168.954, 325.715 188.444 C 334.041 201.010, 355.453 222.697, 368.739 232.018 C 380.487 240.261, 398.196 250.997, 399.111 250.431 C 400.037 249.859, 419 214.309, 419 213.146 C 419 212.651, 414.837 209.752, 409.750 206.704 C 391.639 195.853, 375.104 181.629, 364.756 168 C 357.913 158.986, 351.253 144.893, 349.337 135.373 C 348.465 131.043, 347.562 127.291, 347.329 127.036 C 347.096 126.781, 337.417 125.632, 325.820 124.482 L 304.735 122.392 305.280 132.946 M 443.577 592.750 C 441.475 602.689, 431.893 671.569, 429.074 697 C 424.831 735.290, 423.105 773.011, 422.740 835.424 L 422.500 876.348 445 880.618 C 457.375 882.966, 467.950 884.906, 468.500 884.928 C 469.050 884.950, 472.200 880.819, 475.500 875.747 C 496.127 844.044, 529.357 804.518, 563.140 771.500 C 624.698 711.338, 684.984 677.144, 740.211 671.068 C 764.966 668.345, 785.251 670.957, 801.500 678.960 C 818.948 687.554, 829.878 700.809, 836.165 721 C 838.215 727.586, 838.500 730.511, 838.496 745 C 838.492 759.970, 838.235 762.422, 835.719 771.442 C 824.822 810.504, 794.233 843.424, 754.214 859.158 C 749.696 860.934, 746 862.939, 746 863.613 C 746 864.758, 758.899 903.126, 759.516 903.816 C 759.671 903.990, 764.903 902.041, 771.143 899.486 C 827.879 876.248, 868.263 829.772, 880.042 774.159 C 882.681 761.698, 883.678 739.150, 882.087 727.923 C 876.246 686.725, 853.338 654.426, 818.660 638.498 C 800.067 629.958, 783.154 626.687, 757.500 626.666 C 736.915 626.650, 723.756 628.318, 703.357 633.530 C 629.789 652.324, 550.488 711.086, 475.664 802.250 C 470.811 808.163, 466.764 813, 466.670 813.001 C 466.577 813.002, 466.803 801.639, 467.173 787.751 C 468.696 730.619, 471.737 699.276, 483.049 624.095 C 485.234 609.572, 486.846 597.512, 486.630 597.296 C 486.290 596.956, 446.640 590.048, 444.829 590.013 C 444.461 590.006, 443.897 591.237, 443.577 592.750 " stroke="none" fill="black" fill-rule="evenodd"/>
</svg>