<svg xmlns="http://www.w3.org/2000/svg" width="1000" height="1000" viewBox="0 0 1000 1000" version="1.1">
	<path d="M 533 92.714 C 517.460 99.685, 462.383 111.527, 422 116.582 C 381.048 121.707, 329.227 117.563, 281.500 105.345 C 273.800 103.374, 266.647 101.702, 265.604 101.631 C 264.003 101.520, 262.656 104.646, 256.935 121.741 C 253.209 132.873, 250.462 142.167, 250.830 142.394 C 252.708 143.550, 280.640 150.368, 296 153.419 C 345.034 163.161, 392.766 165.054, 435.500 158.951 C 457.527 155.805, 487.961 150.224, 506.487 145.934 C 515.830 143.770, 523.521 142, 523.578 142 C 523.635 142, 521.511 152.912, 518.858 166.250 C 507.407 223.822, 500.332 275.502, 496.920 326.500 C 496.295 335.850, 495.643 343.652, 495.471 343.837 C 495.300 344.022, 484.436 346.573, 471.330 349.506 C 398.232 365.861, 359.288 378.089, 325.526 395.287 C 296.408 410.121, 275.883 428.692, 267.097 448.154 C 261.429 460.710, 259.559 470.760, 259.589 488.500 C 259.628 511.062, 262.944 527.680, 273.957 560.500 C 276.725 568.750, 278.992 575.970, 278.995 576.545 C 278.998 577.120, 273.712 581.826, 267.250 587.003 C 252.862 598.530, 221.066 630.096, 210.845 643 C 187.623 672.319, 172.422 699.197, 162.810 727.934 C 157.773 742.993, 155.333 755.264, 153.948 772.500 C 150.275 818.202, 162.972 855.781, 189.258 877.002 C 208.793 892.773, 240.063 900.801, 271.580 898.136 C 290.989 896.495, 301.940 893.149, 314.207 885.109 C 348.689 862.510, 362.628 814.449, 359.087 730.367 C 357.122 683.706, 352.640 658.804, 337.895 612.639 C 334.582 602.266, 332.098 593.188, 332.375 592.466 C 332.944 590.982, 352.810 576.706, 373 563.272 C 411.918 537.377, 450.953 517.015, 480.547 507.172 C 497.675 501.475, 507.570 499.611, 521 499.551 C 531.632 499.504, 532.931 499.712, 538.215 502.306 C 543.323 504.815, 544.257 505.776, 547.004 511.357 C 548.695 514.791, 551.051 522.078, 552.240 527.550 C 554.147 536.328, 554.404 540.621, 554.421 564 C 554.442 593.465, 553.984 599.743, 547.006 665.500 C 544.322 690.800, 541.535 717.800, 540.813 725.500 C 539.025 744.567, 539.042 801.932, 540.838 812 C 545.257 836.761, 551.658 851.690, 562.850 863.340 C 576.006 877.032, 599.279 888.424, 625.500 894.007 C 639.821 897.057, 669.880 897.822, 687 895.572 C 733.939 889.405, 774.934 871.646, 797.801 847.573 C 810.275 834.441, 815.799 819.234, 816.716 795.500 C 817.356 778.916, 816.173 768.664, 811.527 750.537 C 806.211 729.793, 792.945 698.446, 779.623 675.144 L 775.989 668.788 790.036 655.255 C 821.510 624.931, 838.352 597.640, 844.590 566.851 C 846.630 556.784, 846.101 533.581, 843.624 524.500 C 839.619 509.812, 829.444 493.902, 818 484.432 C 811.223 478.824, 796.848 471.760, 787.500 469.443 C 778.957 467.326, 761 467.048, 752.500 468.901 C 715.653 476.932, 684.031 510.621, 675.906 550.500 C 673.982 559.944, 674.459 577.138, 676.903 586.383 C 680.137 598.620, 686.068 608.957, 716.353 655.137 L 718.082 657.774 704.791 666.250 C 687.167 677.489, 671.597 686.256, 651.800 696.088 C 642.835 700.541, 635.629 704.705, 635.787 705.342 C 636.334 707.549, 651.327 742.504, 652.110 743.399 C 653.039 744.459, 678.142 732.375, 697.782 721.412 C 709.204 715.036, 725.302 705.163, 738.160 696.649 L 740.820 694.888 748.833 710.731 C 766.075 744.821, 773.293 768.620, 773.177 791 C 773.076 810.432, 769.262 817.618, 753.663 827.763 C 720.553 849.297, 666.772 858.897, 629.193 849.981 C 613.439 846.244, 597.738 838.100, 592.439 830.917 C 585.743 821.841, 582.585 802.546, 582.716 771.500 C 582.820 746.638, 584.170 729.155, 590.528 670.315 C 597.066 609.813, 598.274 593.546, 598.345 565 C 598.436 528.280, 595.639 511.308, 586.313 492 C 577.858 474.498, 563.611 463.154, 543.500 457.914 C 533.274 455.249, 512.868 454.984, 498.918 457.335 C 455.727 464.613, 396.195 493.544, 331 538.940 L 316.500 549.036 315.179 545.850 C 313.189 541.053, 307.393 520.488, 305.488 511.465 C 303.272 500.972, 302.490 484.009, 303.879 476.606 C 307.249 458.654, 320.139 446.393, 351.275 431.527 C 380.982 417.342, 414.447 407.204, 481.500 392.075 C 498.550 388.228, 517.225 383.965, 523 382.602 C 528.775 381.239, 543.175 378.038, 555 375.489 C 620.214 361.428, 656.784 349.862, 690.921 332.502 C 744.222 305.396, 772.313 265.946, 767.191 225.393 C 764.648 205.253, 757.498 190.498, 743.500 176.500 C 733.218 166.218, 726.623 161.989, 714.230 157.734 C 706.696 155.147, 703.651 154.673, 692 154.273 C 680.804 153.888, 676.719 154.176, 668.066 155.961 C 645.440 160.627, 621.115 172.875, 598.921 190.775 C 587.804 199.741, 569.776 218.881, 559.578 232.545 C 548.553 247.317, 549.173 246.614, 549.626 243.826 C 558.138 191.437, 565.328 154.475, 575.853 109 C 577.444 102.125, 578.633 96.367, 578.494 96.205 C 578.356 96.042, 570.426 94.821, 560.871 93.491 C 551.317 92.161, 542.375 90.887, 541 90.660 C 539.625 90.433, 536.025 91.358, 533 92.714 M 678.500 198.453 C 657.836 202.506, 637.117 214.312, 617.393 233.273 C 599.534 250.442, 585.652 268.918, 572.046 293.625 C 566.357 303.957, 554.513 329.881, 555.198 330.504 C 555.364 330.655, 563.825 328.804, 574 326.391 C 643.705 309.857, 686.353 290.830, 709.262 266.046 C 725.596 248.375, 728.315 229.608, 717.059 212.221 C 709.198 200.079, 695.375 195.143, 678.500 198.453 M 759.618 512.054 C 746.635 515.298, 732.035 528.162, 724.694 542.827 C 715.818 560.556, 715.923 572.510, 725.086 587.742 C 733.557 601.824, 752.142 630, 752.960 630 C 754.615 630, 778.864 603.927, 784.144 596.470 C 804.725 567.408, 808.416 539.305, 793.957 521.764 C 789.299 516.113, 779.559 511.764, 770.720 511.390 C 766.749 511.221, 761.753 511.520, 759.618 512.054 M 288.500 626.226 C 264.747 646.158, 240.545 673.530, 225.481 697.500 C 213.293 716.893, 203.449 740.430, 199.340 760 C 196.593 773.083, 196.843 801.473, 199.810 813.374 C 204.220 831.070, 212.455 842.011, 226.270 848.529 C 242.525 856.198, 272.145 857.201, 286.624 850.572 C 300.609 844.169, 309.302 826.320, 313.689 795 C 315.060 785.210, 315.435 775.671, 315.418 751 C 315.389 708.912, 313.240 688.788, 305.487 658 C 302.370 645.623, 295.499 622.149, 294.796 621.475 C 294.633 621.319, 291.800 623.457, 288.500 626.226 " stroke="none" fill="black" fill-rule="evenodd"/>
</svg>