<svg xmlns="http://www.w3.org/2000/svg" width="1000" height="1000" viewBox="0 0 1000 1000" version="1.1">
	<path d="M 396.551 111.723 C 383.314 164.307, 367.680 249.770, 362.342 298.718 L 360.574 314.936 348.856 322.511 C 319.785 341.303, 287.666 367.123, 262.644 391.814 C 234.029 420.050, 212.888 449.105, 190.033 491.601 L 182.020 506.500 182.026 488.500 C 182.038 446.908, 188.815 387.926, 200.104 331.160 C 201.781 322.724, 202.869 315.535, 202.520 315.186 C 201.431 314.097, 161.533 305.135, 160.894 305.836 C 160.081 306.728, 154.733 334.280, 151.061 356.500 C 140.531 420.205, 136.656 469.368, 138.835 511.567 C 139.487 524.180, 140.683 539.447, 141.492 545.492 C 143.529 560.697, 148.941 581.859, 150.941 582.435 C 152.784 582.966, 191.446 589.830, 194.828 590.227 C 196.989 590.480, 197.444 589.565, 201.162 577.500 C 211.676 543.387, 230.783 504.369, 253.070 471.500 C 273.027 442.069, 290.274 423.564, 324.500 394.862 C 334.966 386.085, 356.220 369.886, 356.673 370.340 C 356.844 370.511, 356.492 381.192, 355.889 394.075 C 355.287 406.959, 354.503 449.190, 354.147 487.923 L 353.500 558.346 347.604 550.511 C 334.051 532.499, 286.476 481.970, 284.323 483.300 C 283.753 483.653, 276.969 490.600, 269.248 498.739 L 255.209 513.537 273.729 533.019 C 308.240 569.320, 318.621 582.721, 334.934 612.029 C 339.382 620.020, 346.737 635.028, 351.278 645.381 C 355.819 655.734, 359.889 664.207, 360.323 664.211 C 360.756 664.215, 369.699 659.835, 380.195 654.479 L 399.278 644.740 398.620 633.620 C 398.258 627.504, 397.957 583.575, 397.951 536 C 397.941 453.888, 398.847 403.860, 401.012 367 C 401.545 357.925, 401.985 348.630, 401.990 346.344 L 402 342.188 412.750 337.677 C 434.439 328.577, 451.758 324.732, 471 324.746 C 489.773 324.759, 501.863 327.469, 517.110 335.082 C 542.714 347.866, 567.482 377.370, 580.239 410.283 C 583.419 418.488, 584.907 421.166, 586.459 421.479 C 589.873 422.169, 634.024 425.312, 634.400 424.892 C 634.593 424.676, 636.651 418.425, 638.973 411 C 655.808 357.158, 691.047 320.797, 740.124 306.628 C 782.947 294.264, 814.810 310.350, 825.046 349.500 C 827.656 359.483, 827.939 378.047, 825.639 388.500 C 820.070 413.819, 799.631 451.342, 773.658 483.930 C 761.119 499.662, 725.698 535.104, 708.500 549.126 C 658.246 590.098, 609.117 620.475, 531.303 658.687 C 511.739 668.295, 488.739 679.994, 480.192 684.685 C 412.516 721.831, 347.186 769.523, 288.087 824.926 C 273.861 838.262, 248 865.617, 248 867.329 C 248 867.890, 251.244 871.758, 255.210 875.924 C 259.175 880.091, 265.568 886.811, 269.417 890.858 L 276.415 898.215 290.958 893.597 C 359.645 871.784, 459.233 857.998, 548 858.015 C 628.424 858.031, 703.952 869.548, 750.908 888.955 C 754.983 890.639, 758.583 891.751, 758.908 891.426 C 759.234 891.101, 764.053 882.660, 769.617 872.668 C 777.935 857.731, 779.489 854.300, 778.349 853.376 C 777.587 852.758, 771.234 849.972, 764.232 847.185 C 679.055 813.280, 535.884 804.878, 396.500 825.605 C 381.855 827.783, 356.479 832.221, 345 834.611 C 341.722 835.293, 342.039 834.873, 350 827.991 C 363.146 816.625, 391.109 794.471, 405.500 784.020 C 452.498 749.889, 485.776 730.146, 550.500 697.993 C 609.445 668.711, 637.869 652.764, 674.710 628.304 C 757.885 573.083, 816.015 512.885, 849.113 447.700 C 866.674 413.112, 871.757 393.573, 870.717 364.643 C 869.609 333.827, 859.764 309.184, 840.564 289.172 C 827.522 275.577, 812.871 266.979, 793.932 261.804 C 786.412 259.749, 783.390 259.508, 766 259.573 C 746.913 259.645, 746.214 259.722, 733 263.232 C 716.716 267.557, 707.214 271.237, 692 279.110 C 659.525 295.914, 631.801 323.939, 613.309 358.656 L 608.432 367.812 604.045 360.656 C 582.463 325.453, 550.797 298.727, 517.924 287.971 C 486.908 277.823, 448.470 278.726, 414.250 290.406 C 410.262 291.767, 407 292.741, 407 292.569 C 407 292.398, 408.139 284.212, 409.531 274.379 C 414.962 236.013, 424.182 187.018, 434.609 141.123 C 437.655 127.716, 439.776 116.383, 439.323 115.938 C 438.871 115.494, 430.175 113.056, 420 110.522 C 409.825 107.988, 400.770 105.696, 399.878 105.430 C 398.596 105.048, 397.899 106.366, 396.551 111.723 " stroke="none" fill="black" fill-rule="evenodd"/>
</svg>