<svg xmlns="http://www.w3.org/2000/svg" width="1000" height="1000" viewBox="0 0 1000 1000" version="1.1">
	<path d="M 273.581 149.043 C 264.825 155.586, 257.232 161.368, 256.706 161.894 C 256.100 162.500, 257.779 166.811, 261.308 173.711 C 287.059 224.054, 306.756 307.630, 316.962 409.851 C 318.079 421.043, 318.760 430.580, 318.474 431.042 C 318.188 431.505, 315.152 433.568, 311.727 435.629 C 254.399 470.111, 203.530 517.234, 177.991 559.515 C 153.929 599.351, 142.660 648.762, 146.013 699.731 C 151.159 777.964, 185.147 842.686, 231.102 861.761 C 254.957 871.663, 288.581 869.353, 310.958 856.274 C 323.885 848.719, 336.822 834.379, 344.441 819.160 C 362.433 783.222, 368.208 727.779, 368.312 590 C 368.356 532.745, 367.768 508.131, 365.362 466.374 L 364.721 455.248 384.111 445.688 C 439.972 418.147, 500.704 396.238, 553.681 384.516 C 560.181 383.078, 566.288 381.668, 567.250 381.383 C 568.889 380.898, 569 382.733, 569.007 410.183 C 569.032 506.458, 576.961 655.987, 583.575 684.892 C 585.443 693.056, 591.704 706.430, 597.387 714.393 C 625.046 753.154, 690.497 790.638, 788.967 824.111 C 816.237 833.381, 840.068 840.354, 840.975 839.329 C 841.941 838.237, 852.279 798.945, 851.741 798.408 C 851.513 798.180, 841.099 794.831, 828.598 790.965 C 722.860 758.266, 646.225 716.581, 629.487 682.659 C 625.381 674.339, 624.376 667.410, 621.051 624.500 C 616.006 559.409, 613.755 500.256, 613.613 429.020 L 613.500 372.540 633 369.256 C 682.906 360.849, 756.452 351.334, 808.934 346.495 C 824.022 345.104, 836.542 343.792, 836.754 343.579 C 836.967 343.366, 836.192 333.811, 835.031 322.346 L 832.920 301.500 827.210 296.136 C 824.070 293.185, 812.500 282.971, 801.500 273.437 C 729.430 210.974, 674.518 172.049, 643.431 161.387 C 631.860 157.419, 619.713 157.399, 612 161.336 C 605.070 164.873, 601.723 167.980, 596.896 175.356 C 584.124 194.872, 575.421 239.510, 572.011 303 C 570.496 331.206, 570.009 336.076, 568.663 336.471 C 568.024 336.659, 559.850 338.465, 550.500 340.485 C 497.154 352.007, 438.124 372.133, 383.274 397.499 L 361.049 407.777 360.565 404.639 C 360.299 402.912, 359.351 394.750, 358.459 386.500 C 348.444 293.887, 327.322 207.654, 302.452 157.851 C 296.927 146.787, 291.128 136.970, 290.178 137.074 C 289.805 137.115, 282.336 142.501, 273.581 149.043 M 630.014 206.464 C 623.127 224.578, 617.412 267.536, 614.738 321.285 L 614.401 328.071 616.950 327.534 C 631.353 324.499, 699.488 314.720, 742.400 309.529 C 758.295 307.606, 771.441 305.893, 771.612 305.721 C 772.018 305.315, 747.737 284.789, 728 268.853 C 689.635 237.877, 654.882 213.792, 637.382 206.051 C 631.518 203.457, 631.149 203.478, 630.014 206.464 M 308.989 489.640 C 289.017 503.523, 268.577 520.403, 253.471 535.489 C 211.326 577.580, 193.931 613.581, 189.809 667.250 C 187.369 699.015, 192.740 736.530, 203.733 764.500 C 214.663 792.309, 229.726 812.306, 245.659 820.156 C 251.573 823.069, 253.628 823.544, 261.618 823.843 C 283.901 824.676, 296.325 817.518, 305.567 798.520 C 318.614 771.700, 323.190 728.257, 324.633 617.500 C 325.256 569.698, 323.768 489.519, 322.146 483.452 C 321.489 480.998, 321.281 481.096, 308.989 489.640 " stroke="none" fill="black" fill-rule="evenodd"/>
</svg>