<svg xmlns="http://www.w3.org/2000/svg" width="1000" height="1000" viewBox="0 0 1000 1000" version="1.1">
	<path d="M 544 87.721 C 533.825 89.089, 525.313 90.386, 525.085 90.603 C 524.856 90.820, 525.870 102.136, 527.338 115.749 C 532.149 160.375, 535.906 206.754, 537.969 247 C 538.519 257.725, 539.244 271.844, 539.580 278.376 L 540.190 290.251 526.345 289.570 C 472.455 286.919, 430.063 278.663, 397.959 264.568 L 388.418 260.379 376.796 278.646 L 365.175 296.912 369.337 299.328 C 392.399 312.714, 440.124 325.457, 486 330.479 C 496.163 331.592, 531.123 333.845, 540.412 333.986 C 541.506 334.003, 540.485 390.301, 538.970 413.500 C 536.958 444.306, 528.877 526.053, 519.954 605.871 C 517.779 625.326, 516.005 642.201, 516.010 643.371 C 516.019 645.241, 518.421 646.321, 535.760 652.251 C 546.617 655.963, 556.014 659.001, 556.641 659.001 C 557.269 659, 560.765 653.712, 564.411 647.250 C 589.588 602.620, 631.217 565.742, 675.903 548.484 C 703.669 537.761, 737.066 534.303, 758.500 539.931 C 795.172 549.561, 822.490 581.618, 832.698 627 C 835.157 637.933, 835.139 667.505, 832.666 678.796 C 826.556 706.699, 814.317 727.183, 789.866 750.432 C 739.325 798.488, 645.823 842.750, 521.250 877.588 C 518.362 878.395, 515.996 879.606, 515.991 880.278 C 515.986 880.950, 518.123 890.385, 520.741 901.244 C 524.509 916.875, 525.840 920.989, 527.131 920.994 C 530.084 921.005, 574.091 908.053, 595.500 900.872 C 668.851 876.269, 727.020 849.324, 773.500 818.421 C 795.663 803.685, 809.625 792.484, 825.061 777.055 C 841.715 760.409, 852.267 746.161, 861.022 728.500 C 868.992 712.423, 872.081 703.451, 875.559 686.291 C 886.449 632.560, 870.011 574.193, 833.184 535.824 C 797.128 498.259, 752.718 485.930, 695.261 497.535 C 652.416 506.189, 610.504 528.854, 576.642 561.683 L 567.724 570.329 568.343 565.915 C 569.441 558.093, 576.891 484.356, 579.448 456 C 582.678 420.190, 583.785 400.219, 584.611 362.901 L 585.288 332.302 597.894 331.109 C 653.648 325.837, 716.753 311.201, 778.500 289.221 C 797.386 282.499, 825 271.431, 825 270.585 C 825 270.371, 821.802 263.290, 817.893 254.848 C 813.985 246.407, 809.969 237.631, 808.970 235.347 L 807.154 231.194 790.327 237.967 C 748.572 254.774, 697.905 269.874, 654.500 278.448 C 627.328 283.816, 585.955 289.288, 584.388 287.722 C 584.020 287.354, 583.340 278.378, 582.876 267.776 C 580.549 214.583, 572.461 114.465, 568.414 88.750 C 567.705 84.243, 569.341 84.312, 544 87.721 M 189.687 113.750 C 188.776 119.662, 185.800 138.900, 183.075 156.500 C 162.571 288.911, 149.088 403.011, 144.020 486.997 C 142.698 508.914, 142.676 569.269, 143.983 590.500 C 149.211 675.426, 164.137 761.912, 186.178 835 C 188.915 844.075, 191.506 851.864, 191.937 852.310 C 192.367 852.755, 202.881 848.963, 215.302 843.883 L 237.884 834.647 238.535 830.573 C 240.259 819.796, 249.451 775.124, 253.983 755.500 C 264.382 710.476, 272.613 683.317, 285.958 650 C 292.619 633.372, 316.214 577.807, 329.602 547.225 C 331.271 543.413, 331.986 540.599, 331.425 540.056 C 330.395 539.062, 294.393 523, 293.194 523 C 292.365 523, 291.433 525.078, 270.537 573.500 C 237.072 651.050, 225.450 684.277, 213.433 736.750 C 211.891 743.488, 210.348 749, 210.005 749 C 209.368 749, 203.667 720.073, 200.052 698.500 C 194.827 667.319, 190.261 627.420, 187.863 592 C 186.307 569.019, 186.297 509.358, 187.845 486 C 194.099 391.608, 210.716 257.402, 233.372 118.297 L 234.708 110.095 232.104 109.565 C 227.843 108.697, 193.271 103, 192.269 103 C 191.761 103, 190.599 107.838, 189.687 113.750 " stroke="none" fill="black" fill-rule="evenodd"/>
</svg>