<svg xmlns="http://www.w3.org/2000/svg" width="1000" height="1000" viewBox="0 0 1000 1000" version="1.1">
	<path d="M 454.499 78.174 C 446.032 95.481, 431.913 113.958, 419.326 124.206 C 410.730 131.204, 402.545 136.453, 383 147.502 C 361.660 159.565, 351.443 166.767, 342.722 175.895 C 327.228 192.113, 322.933 209.864, 329.110 232.156 C 331.051 239.160, 335.934 250.295, 349.248 278.079 L 355.756 291.658 334.628 305.065 C 249.054 359.363, 219.636 384.893, 203.869 418.538 C 197.720 431.659, 196.506 437.481, 196.574 453.500 C 196.628 465.965, 196.921 468.304, 199.247 474.835 C 202.827 484.890, 207.388 492.185, 214.601 499.399 C 228.553 513.351, 246.451 520, 270.053 520 C 308.154 520, 349.024 499.513, 385.053 462.353 C 403.961 442.852, 414.260 424.214, 419.597 399.838 C 422.097 388.419, 422.563 365.712, 420.579 352 C 419.059 341.500, 413.602 318.343, 411.089 311.735 C 409.923 308.668, 409.839 308.733, 433 294.712 C 490.964 259.622, 531.271 241.984, 554.050 241.737 C 563.717 241.633, 565.920 242.918, 570.030 251.059 C 579.235 269.295, 583.755 310.168, 581.192 352 C 580.636 361.075, 580.253 368.573, 580.340 368.662 C 580.428 368.751, 587.475 367.532, 596 365.954 C 618.793 361.735, 636.430 360.412, 650.940 361.831 C 670.682 363.763, 682.235 368.733, 685.765 376.812 C 688.312 382.641, 688.053 396.289, 685.280 402.302 C 680.311 413.080, 665.561 425.074, 639.500 439.529 C 555.290 486.236, 416.959 539.649, 233 596.489 C 202.869 605.799, 145.032 623.049, 134.336 625.915 L 130.171 627.031 135.518 647.614 C 138.458 658.935, 141.074 668.407, 141.330 668.663 C 141.586 668.920, 160.179 665.075, 182.648 660.121 C 290.946 636.239, 402.220 616, 485.500 605.037 C 507.665 602.119, 542.436 597.984, 544.500 598.021 C 545.050 598.030, 540.100 600.406, 533.500 603.300 C 474.433 629.196, 439.253 662.239, 427.864 702.518 C 425.133 712.180, 424.631 731.393, 426.899 739.500 C 430.540 752.520, 435.841 762.117, 445.750 773.629 L 451.724 780.570 445.612 782.365 C 434.480 785.633, 415.003 794.190, 406.397 799.593 C 381.436 815.263, 370 832.930, 370 855.816 C 370 890.671, 397.519 915.539, 447.500 925.850 C 474.969 931.517, 511.641 933.764, 549.270 932.085 C 572.260 931.060, 606.944 928.301, 607.884 927.423 C 608.347 926.991, 602.998 885.822, 602.339 884.746 C 602.085 884.332, 600.893 884.219, 599.689 884.496 C 594.628 885.661, 559.491 888.025, 538.322 888.624 C 491.829 889.941, 452.590 884.973, 431.483 875.099 C 421.557 870.455, 416.634 866.228, 414.429 860.453 C 412.826 856.257, 412.827 855.741, 414.444 851.508 C 420.195 836.450, 456.666 821.212, 503.836 814.159 L 515.500 812.416 517.713 792.958 C 518.930 782.256, 519.830 772.697, 519.713 771.715 C 519.570 770.520, 516.875 768.792, 511.555 766.485 C 493.088 758.476, 476.883 745.797, 471.951 735.500 C 461.675 714.046, 479.486 684.433, 516.629 661.219 C 563.957 631.638, 646.768 608.272, 751 595.090 C 788.661 590.326, 836.816 586.029, 853 585.986 C 856.575 585.977, 859.960 585.639, 860.522 585.235 C 861.447 584.570, 860.452 543.134, 859.488 542.159 C 859.303 541.971, 840.104 542.531, 816.825 543.402 C 775.442 544.952, 736.863 546.007, 649 547.993 C 607.177 548.938, 582.221 550.322, 549 553.539 C 533.141 555.075, 476.505 561.732, 472 562.590 C 470.625 562.852, 474.675 561.016, 481 558.511 C 487.325 556.005, 501.725 550.307, 513 545.848 C 595.946 513.047, 669.794 476.376, 696.882 454.540 C 722.970 433.508, 734.376 408.776, 731.005 380.544 C 728.917 363.057, 723.889 351.785, 713.557 341.429 C 698.013 325.848, 673.857 317.981, 640.810 317.737 L 626.119 317.628 625.594 311.564 C 625.305 308.229, 624.804 301.450, 624.480 296.500 C 621.729 254.475, 609.645 222.675, 591.137 208.763 C 579.879 200.299, 568.876 197.500, 550 198.296 C 518.190 199.639, 476.146 217.395, 410.732 257.113 L 392.963 267.902 385.385 252.201 C 369.637 219.573, 368.144 214.739, 371.928 208.616 C 374.992 203.659, 383.428 197.614, 402.250 186.890 C 433.729 168.954, 442.423 162.895, 456.336 149.198 C 466.831 138.866, 473.744 130.543, 481.418 119 C 487.524 109.816, 499 88.071, 499 85.686 C 499 84.696, 492.754 81.911, 479.750 77.102 C 469.163 73.187, 460.050 69.987, 459.499 69.992 C 458.949 69.996, 456.699 73.678, 454.499 78.174 M 344.881 350.412 C 314.983 369.606, 307.274 374.829, 291.500 386.579 C 267.581 404.397, 252.354 420.026, 244.810 434.498 C 241.242 441.343, 240.577 443.595, 240.199 450.117 C 239.499 462.216, 242.343 468.113, 250.995 472.497 C 267.978 481.103, 295.519 475.479, 323.143 457.763 C 332.320 451.877, 343.115 442.645, 354.028 431.350 C 365.417 419.562, 370.781 410.906, 375.007 397.500 C 377.816 388.588, 378.780 369.626, 377.062 357.058 C 375.973 349.085, 372.655 334.201, 371.827 333.571 C 371.647 333.435, 359.522 341.013, 344.881 350.412 " stroke="none" fill="black" fill-rule="evenodd"/>
</svg>