<svg xmlns="http://www.w3.org/2000/svg" width="1000" height="1000" viewBox="0 0 1000 1000" version="1.1">
	<path d="M 303.500 133.733 C 294.150 139.436, 285.927 144.441, 285.226 144.855 C 284.246 145.433, 284.659 147.324, 287.012 153.029 C 296.046 174.937, 298.103 199.712, 292.887 223.787 C 286.030 255.437, 273.545 274.761, 212.956 347.500 C 178.496 388.871, 163.983 409.040, 153.954 429.500 C 141.083 455.757, 140.003 472.940, 149.678 497.500 C 154.404 509.498, 158.916 517.617, 174.404 542 C 199.518 581.535, 207.866 602.677, 211.024 634.740 C 212.164 646.322, 211.285 686.824, 209.010 727.500 C 205.644 787.665, 205.627 788.829, 207.439 833 C 208.398 856.375, 209.479 881.125, 209.842 888 L 210.500 900.500 213.500 900.150 C 223.661 898.964, 254.477 892.847, 255.062 891.899 C 255.449 891.273, 257.444 884.177, 259.495 876.130 C 267.785 843.608, 282.978 795.854, 295.964 761.500 C 313.451 715.240, 329.729 681.598, 347.491 655.013 C 351.660 648.774, 354.717 643.324, 354.285 642.901 C 353.853 642.477, 346.315 636.503, 337.533 629.623 C 324.831 619.672, 321.284 617.349, 320.185 618.262 C 317.528 620.466, 300.134 647.612, 293.071 660.576 C 283.132 678.819, 271.380 704.542, 261.389 729.922 C 250.882 756.612, 250.993 756.358, 251.526 752.500 C 252.119 748.215, 253.948 707.081, 254.929 675.966 C 256.294 632.684, 253.895 610.711, 244.865 583.756 C 238.318 564.215, 230.220 548.425, 212.237 520.138 C 197.926 497.626, 191.511 485.792, 188.936 477.151 C 185.993 467.280, 186.671 462.452, 192.795 449.666 C 201.139 432.245, 215.069 413.188, 251.029 370 C 305.091 305.072, 319.330 283.953, 330.306 252.420 C 342.091 218.561, 342.393 179.826, 331.132 146.241 C 328.239 137.612, 322.297 124.221, 321.111 123.654 C 320.775 123.494, 312.850 128.029, 303.500 133.733 M 669 307.082 C 621.348 309.479, 589.578 317.778, 552 337.642 C 527.586 350.548, 497.295 372.852, 479.302 391.171 L 472.103 398.500 487.629 412.500 C 496.168 420.200, 503.521 426.500, 503.967 426.500 C 504.413 426.500, 509.666 422.127, 515.639 416.782 C 555.905 380.752, 598.210 359.345, 640.500 353.601 C 666.633 350.051, 705.986 349.228, 723.891 351.856 L 728.283 352.500 697.641 381.363 C 680.789 397.238, 667 410.445, 667 410.713 C 667 411.683, 696.356 442.047, 697.033 441.777 C 698.998 440.995, 786.541 357.375, 786.781 356.052 C 787.038 354.627, 779.390 319.056, 778.671 318.338 C 778.498 318.165, 773.214 316.668, 766.928 315.011 C 751.600 310.971, 732.283 308.240, 710.500 307.035 C 690.900 305.950, 691.510 305.949, 669 307.082 M 465.250 639.748 L 448 640.047 448 642.936 C 448 644.524, 448.674 649.345, 449.497 653.648 C 456.269 689.042, 480.105 722.723, 514.990 746.192 C 527.275 754.457, 551.123 766.282, 565.917 771.444 C 588.255 779.238, 616.897 785.374, 645.801 788.558 C 689.934 793.421, 755.202 791.426, 813.493 783.434 C 833.847 780.643, 853.915 777.427, 854.444 776.872 C 854.957 776.332, 847.876 735.632, 847.124 734.795 C 846.775 734.408, 839.968 735.154, 831.995 736.453 C 735.945 752.108, 652.586 751.288, 592.813 734.100 C 566.848 726.634, 542.561 714.045, 525.061 698.983 C 510.349 686.321, 496.948 665.168, 493.395 649 C 492.489 644.875, 491.593 640.938, 491.405 640.250 C 491.186 639.450, 489.520 639.081, 486.781 639.225 C 484.427 639.348, 474.738 639.584, 465.250 639.748 " stroke="none" fill="black" fill-rule="evenodd"/>
</svg>