<svg xmlns="http://www.w3.org/2000/svg" width="1000" height="1000" viewBox="0 0 1000 1000" version="1.1">
	<path d="M 618 97.622 C 596.954 101.668, 580.498 108.111, 527 133.255 C 463.789 162.963, 444.205 170.215, 415.787 174.434 C 382.969 179.307, 338.704 177.923, 302.141 170.881 C 296.443 169.783, 291.673 169.024, 291.542 169.193 C 290.594 170.408, 281.258 210.638, 281.805 211.148 C 282.807 212.083, 309.347 216.736, 324 218.546 C 341.678 220.731, 385.344 221.574, 402.072 220.054 C 447.609 215.916, 469.757 208.596, 547.500 171.988 C 588.431 152.714, 615 141.641, 615 143.856 C 615 147.059, 598.902 181.506, 585.819 206.299 C 565.830 244.181, 544.351 280.373, 519.232 318.500 C 506.770 337.416, 487.339 365.678, 484.965 368.343 C 484.552 368.807, 480.221 367.589, 475.342 365.637 C 451.498 356.097, 434.193 353.508, 394.500 353.540 C 361.889 353.567, 343.227 354.904, 330.006 358.160 C 283.022 369.731, 232.695 411.411, 211.460 456.336 C 195.221 490.694, 199.346 523.622, 222.544 544.797 C 237.225 558.198, 259.922 567.367, 285.232 570.121 C 319.930 573.897, 359.540 558.115, 403.500 522.999 C 419.163 510.488, 457.899 471.962, 474.004 452.878 L 485.500 439.257 486.176 443.378 C 487.439 451.083, 487.029 481.676, 485.508 493.199 C 482.451 516.356, 476.312 535.484, 467.628 548.908 C 465.083 552.843, 463 556.454, 463 556.934 C 463 557.560, 484.547 594.894, 486.609 597.840 C 486.740 598.028, 494.419 595.484, 503.674 592.189 C 578.580 565.513, 647.257 555.649, 685.208 566.115 C 705.526 571.718, 726.426 588.129, 738.338 607.834 C 759.504 642.846, 750.354 677.096, 713.180 702.010 C 698.501 711.849, 669.861 724.651, 640.927 734.308 C 615.326 742.853, 593.362 748.660, 549.500 758.483 C 501.420 769.251, 483.115 774.659, 468.374 782.452 C 449.042 792.672, 438.567 804.372, 433.375 821.543 C 430.824 829.981, 431.002 847.387, 433.719 855.206 C 447.513 894.895, 499.009 908.343, 592 896.539 C 612.406 893.949, 635.162 890.136, 637.001 888.999 C 637.877 888.458, 637.100 883.232, 634.013 868.884 C 631.719 858.223, 629.644 848.782, 629.402 847.904 C 629.003 846.454, 628.068 846.478, 619.231 848.164 C 613.879 849.184, 601.400 851.114, 591.500 852.451 C 534.318 860.174, 490.295 857.449, 478.250 845.440 C 475.555 842.754, 475 841.439, 475 837.748 C 475 829.286, 481.664 823.358, 498.331 816.994 C 509.078 812.890, 521.899 809.586, 564.231 800.012 C 632.290 784.620, 673.050 771.604, 711.500 752.982 C 757.365 730.770, 783.868 700.962, 791.576 662.920 C 793.875 651.577, 793.117 629.780, 790.032 618.505 C 779.858 581.323, 753.018 549.300, 717.500 531.964 C 706.351 526.522, 694.255 522.750, 680.012 520.272 C 665.600 517.765, 629.400 518.060, 608.790 520.852 C 588.026 523.665, 562.534 528.890, 539.485 535.057 C 529.175 537.815, 520.589 539.923, 520.406 539.740 C 520.223 539.557, 520.753 537.178, 521.584 534.453 C 527.038 516.577, 529.911 497.457, 530.670 474 C 531.675 442.925, 528.864 423.774, 520.852 407.126 L 516.823 398.752 519.890 394.626 C 537.516 370.917, 567.074 326.207, 586.745 293.500 C 622.781 233.582, 654.716 169.426, 660.517 145.294 C 663.013 134.911, 662.258 122.260, 658.732 115.392 C 655.419 108.938, 647.401 101.672, 641.244 99.546 C 636.441 97.887, 622.587 96.740, 618 97.622 M 360 398.075 C 340.585 399.536, 327.886 403.297, 312.367 412.180 C 293.004 423.264, 270.418 443.671, 259.682 459.783 C 251.059 472.724, 244.987 488.037, 245.006 496.799 C 245.031 509.315, 255.638 518.640, 276.175 524.202 C 287.643 527.308, 303.265 527.292, 314.500 524.164 C 337.191 517.845, 366.689 498.800, 395.603 471.801 C 419.088 449.871, 457.397 406.997, 455.343 404.943 C 453.687 403.287, 435.956 399.265, 425.211 398.108 C 413.756 396.875, 376.201 396.856, 360 398.075 " stroke="none" fill="black" fill-rule="evenodd"/>
</svg>