<svg xmlns="http://www.w3.org/2000/svg" width="1000" height="1000" viewBox="0 0 1000 1000" version="1.1">
	<path d="M 428.658 87.750 C 425.783 93.424, 413 122.819, 413 123.755 C 413 124.291, 416.712 126.884, 421.250 129.518 C 439.035 139.838, 455.465 154.135, 466.616 168.993 C 470.127 173.672, 473 177.778, 473 178.118 C 473 178.458, 470.188 179.525, 466.752 180.490 C 454.619 183.894, 408.189 199.345, 383.659 208.142 C 348.129 220.884, 325.532 226.355, 292.500 230.215 C 279.264 231.761, 209.953 231.862, 199.702 230.349 C 195.963 229.797, 192.712 229.657, 192.477 230.038 C 191.887 230.991, 185.789 272.128, 186.183 272.493 C 187.434 273.650, 211.019 275.208, 234.500 275.683 C 273.695 276.476, 302.722 274.216, 334.500 267.898 C 358.861 263.055, 366.937 260.606, 416.500 243.032 C 436.221 236.040, 485.597 220, 487.400 220 C 488.815 220, 487.811 240.091, 485.521 257.643 C 481.646 287.334, 476.001 315.812, 471.177 330.005 L 469.405 335.218 461.953 329.310 C 447.324 317.714, 426.309 302.222, 414.500 294.330 C 401.601 285.709, 381.975 274, 380.425 274 C 379.903 274, 375.154 282.663, 369.872 293.250 L 360.267 312.500 368.368 317 C 391.474 329.835, 428.482 357.240, 463.387 387.361 C 474.936 397.326, 477.462 399.095, 478.387 397.865 C 478.999 397.051, 484.305 390.523, 490.178 383.358 C 496.051 376.193, 502.430 367.444, 504.352 363.915 C 513.752 346.669, 522.302 312.183, 528.452 266.717 C 531.724 242.526, 532.443 229.496, 531.136 218.055 C 530.543 212.860, 530.252 208.415, 530.490 208.177 C 531.981 206.685, 580.560 195.921, 603 192.110 C 631.226 187.316, 640.727 186.499, 668 186.525 C 688.907 186.545, 695.977 186.895, 701.500 188.182 C 717.438 191.896, 727.367 197.366, 731.771 204.858 C 734.136 208.881, 734.500 210.580, 734.500 217.594 C 734.500 225.240, 734.239 226.209, 729.795 235.094 C 708.494 277.677, 628.128 343.948, 503.500 421.699 C 438.523 462.237, 359.647 507.261, 291.732 542.582 C 276 550.764, 267.137 555.914, 267.438 556.698 C 267.772 557.570, 294.671 593.971, 298.587 598.851 C 298.742 599.044, 305.086 595.162, 312.684 590.224 C 389.370 540.393, 482.347 500.885, 556.580 486.588 C 588.644 480.413, 628.198 479.319, 652.810 483.928 C 692.785 491.414, 724.031 510.848, 746.238 542.036 C 758.375 559.082, 770.722 586.983, 775.429 608 C 790.767 676.483, 771.848 755.841, 727.550 808.838 C 699.724 842.128, 665.915 862.304, 625.500 869.739 C 614.380 871.784, 583.203 872.037, 571.500 870.176 C 560.123 868.367, 538 862.862, 538 861.839 C 538 861.366, 539.816 855.712, 542.036 849.275 C 550.473 824.804, 559.420 791.712, 564.413 766.500 C 570.810 734.198, 573.407 707.750, 572.828 680.803 L 572.418 661.752 585.959 662.443 C 609.416 663.639, 624.183 665.834, 648.266 671.703 C 656.387 673.683, 663.190 675.122, 663.384 674.901 C 664.602 673.513, 675.878 634.478, 675.243 633.843 C 674.076 632.676, 648.623 626.317, 636.081 624.058 C 620.582 621.268, 599.049 619.128, 581.137 618.600 L 565.773 618.146 561.487 601.323 C 559.129 592.070, 555.354 578.993, 553.098 572.262 C 544.981 548.042, 530.638 514.657, 528.587 515.208 C 524.697 516.253, 490.959 535.427, 491.364 536.363 C 491.634 536.988, 494.316 542.900, 497.324 549.500 C 500.332 556.100, 504.910 567.350, 507.498 574.500 C 512.592 588.579, 521 616.938, 521 620.043 C 521 622.177, 521.561 622.003, 505 625.008 C 472.989 630.816, 438.108 642.135, 406.500 656.973 C 395.399 662.183, 378.420 671.512, 377.589 672.855 C 377.097 673.652, 399.621 708.319, 400.938 708.792 C 401.385 708.952, 404.591 707.419, 408.063 705.384 C 435.579 689.257, 480.048 673.688, 517.325 667.130 C 526.639 665.491, 528.227 665.427, 528.704 666.670 C 529.009 667.465, 529.011 679.226, 528.708 692.807 C 528.043 722.657, 525.220 743.610, 517.365 777 C 512.794 796.430, 499.799 839.963, 497.164 844.671 C 496.533 845.799, 491.249 843.176, 472.667 832.510 C 468.583 830.166, 467.634 829.951, 466.541 831.118 C 464.684 833.102, 445 865.033, 445 866.062 C 445 868.164, 480.681 887.139, 498.729 894.635 C 519.522 903.271, 544.653 910.288, 566.500 913.557 C 582.640 915.973, 613.166 915.983, 628.466 913.578 C 689.388 904.001, 740.537 870.131, 777.080 815.169 C 820.481 749.891, 835.328 665.932, 816.480 592.357 C 804.070 543.915, 777.610 502.422, 742.041 475.629 C 697.408 442.007, 637.739 430.303, 564.772 440.859 C 558.322 441.792, 553.372 442.264, 553.772 441.907 C 554.173 441.551, 565.335 434.071, 578.579 425.285 C 718.034 332.767, 782.580 264.575, 778.671 213.890 C 777.211 194.955, 771.570 182.501, 758.539 169.441 C 750.683 161.567, 748.126 159.707, 739 155.222 C 721.131 146.442, 705.223 143.100, 677.436 142.289 C 636.877 141.105, 589.720 147.814, 527.217 163.660 C 521.561 165.094, 516.774 166.094, 516.578 165.884 C 516.382 165.673, 513.922 161.592, 511.111 156.816 C 498.683 135.697, 479.596 115.942, 456 99.773 C 447.271 93.792, 432.209 85, 430.690 85 C 430.339 85, 429.424 86.237, 428.658 87.750 M 252.750 627.689 C 251.787 627.941, 251 628.400, 251 628.710 C 251 629.987, 255.052 664.751, 255.551 667.750 C 256.070 670.878, 256.267 671, 260.795 671.008 C 274.436 671.029, 288.347 675.969, 293.993 682.795 C 295.679 684.833, 297.739 688.750, 298.571 691.500 C 300.582 698.145, 300.545 718.715, 298.501 730.500 C 294.010 756.382, 282.891 786.305, 267.941 812.743 C 264.060 819.605, 261.074 825.407, 261.304 825.637 C 261.534 825.867, 271.102 832.098, 282.568 839.484 L 303.414 852.913 313.957 842.647 C 326.109 830.814, 341.352 820.308, 359.500 811.258 C 394.973 793.569, 430.393 784.969, 478.250 782.427 L 490 781.803 490 760.401 L 490 739 477.972 739 C 433.610 739, 380.786 751.518, 341.154 771.423 L 332.106 775.967 333.565 771.234 C 341.140 746.660, 343.437 732.349, 343.471 709.500 C 343.497 691.651, 343.257 688.662, 341.242 681.709 C 333.804 656.047, 316.742 639.133, 290.673 631.578 C 278.796 628.136, 258.861 626.092, 252.750 627.689 " stroke="none" fill="black" fill-rule="evenodd"/>
</svg>