<svg xmlns="http://www.w3.org/2000/svg" width="1000" height="1000" viewBox="0 0 1000 1000" version="1.1">
	<path d="M 304.575 105.400 C 294.037 107.155, 285.482 109.055, 285.271 109.686 C 285.064 110.309, 287.181 125.723, 289.976 143.940 C 297.522 193.124, 314 309.600, 314 313.761 C 314 315.047, 266.511 312.976, 252.347 311.072 C 222.157 307.014, 189.184 299.442, 161.594 290.232 L 147.107 285.395 138.983 305.345 C 132.639 320.922, 131.148 325.483, 132.179 326.152 C 134.506 327.664, 166.042 337.685, 180 341.349 C 219.822 351.802, 254.609 356.816, 294.500 357.851 L 319.500 358.500 321.169 373 C 324.469 401.673, 328.329 442.004, 327.822 442.511 C 327.538 442.796, 319.652 438.972, 310.299 434.014 C 300.946 429.056, 292.860 425, 292.330 425 C 291.800 425, 287.402 432.313, 282.558 441.250 C 221.810 553.325, 168.825 633.390, 113.737 696.352 L 104.243 707.204 116.762 727.102 C 123.647 738.046, 129.655 747, 130.112 747 C 130.569 747, 137.594 743.023, 145.722 738.162 C 207.418 701.265, 271.604 654.806, 320.500 611.654 C 327.650 605.343, 333.554 600.253, 333.620 600.340 C 333.853 600.650, 332.052 644.760, 331 664.500 C 328.493 711.553, 321.625 803.895, 320.224 809.392 C 319.512 812.185, 319.303 811.976, 314.107 803.271 C 308.209 793.391, 300.022 781.683, 290.021 768.828 C 280.828 757.010, 252.321 728.819, 240.500 719.857 C 229.995 711.891, 213.070 700.543, 212.597 701.146 C 211.243 702.872, 191 737.303, 191 737.880 C 191 738.296, 195.548 741.713, 201.106 745.473 C 214.790 754.730, 222.440 761.079, 235.843 774.306 C 255.753 793.953, 272.911 817.299, 286.329 843 C 294.784 859.195, 299.395 870.359, 304.501 887 C 308.388 899.669, 308.792 900.488, 311.071 900.311 C 312.407 900.207, 323.023 898.893, 334.662 897.391 L 355.824 894.659 356.402 890.580 C 357.702 881.401, 363.106 825.190, 365.928 791.500 C 372.896 708.300, 376.488 645.573, 377.639 587 L 378.277 554.500 385.946 545 C 390.164 539.775, 400.089 526.950, 408.002 516.500 C 490.391 407.691, 547.525 342.556, 604.508 292.476 C 649.991 252.502, 692.469 227.543, 727.005 220.499 C 739.620 217.926, 758.945 218.735, 768.835 222.251 C 779.786 226.144, 786.560 230.566, 796.110 240.055 C 803.260 247.160, 805.510 250.212, 809.379 258.055 C 823.375 286.427, 824.465 327.711, 812.512 376.808 C 807.020 399.369, 795.796 429.820, 785.787 449.315 C 779.696 461.178, 771.549 473.852, 769.512 474.634 C 767.632 475.355, 763.129 472.708, 739.127 456.771 C 706.521 435.122, 688.771 427.984, 667.622 428.015 C 662.055 428.023, 654.691 428.692, 651.258 429.501 C 622.636 436.250, 597.724 461.658, 577.103 505.132 C 555.032 551.662, 543.886 603.735, 542.348 667.500 C 541.206 714.830, 545.930 764.069, 556.456 814.554 C 559.942 831.274, 568.551 863.830, 569.850 865.210 C 570.406 865.799, 610.038 862.402, 610.563 861.720 C 610.656 861.599, 611.970 855.879, 613.484 849.008 C 625.233 795.669, 656.680 749.633, 693.388 732.034 C 711.454 723.373, 725.548 720.568, 747.500 721.265 C 759.900 721.659, 764.027 722.199, 771.307 724.383 C 797.334 732.189, 814.890 748.594, 829.036 778.327 C 837.189 795.463, 843.820 820.941, 845.794 842.715 L 846.500 850.500 868 850.144 C 879.825 849.948, 889.693 849.605, 889.928 849.382 C 890.755 848.599, 887.827 824.376, 885.469 812.500 C 873.195 750.673, 842.759 706.744, 799.201 687.985 C 782.213 680.669, 763.839 677.016, 743.974 677.006 C 687.786 676.977, 640.610 703.519, 606.700 754.238 C 603.290 759.339, 599.150 766.096, 597.500 769.254 C 595.850 772.412, 594.250 774.996, 593.944 774.998 C 593.289 775, 590.643 755.897, 588.264 734 C 586.996 722.331, 586.574 709.231, 586.558 681 C 586.536 641.715, 587.309 630.872, 592.113 603.010 C 600.411 554.891, 620.087 507.847, 641.336 485.321 C 648.353 477.883, 654.634 473.872, 662.275 471.951 C 673.156 469.215, 689.389 475.867, 716.500 494.172 C 736.619 507.756, 745.194 512.813, 754.026 516.304 C 770.156 522.681, 783.601 521.342, 794.477 512.275 C 815.527 494.728, 841.834 440.294, 854.917 387.213 C 867.635 335.616, 867.806 290.492, 855.419 254.905 C 851.125 242.569, 848.478 237.157, 841.425 226.289 C 830.841 209.982, 814.464 195.550, 796.393 186.606 C 746.071 161.699, 683.539 176.669, 611.294 230.919 C 546.615 279.487, 480.792 349.769, 393.226 463.760 L 376.126 486.021 375.586 481.760 C 375.290 479.417, 374.557 470.975, 373.958 463 C 372.497 443.552, 368.510 402.482, 365.472 375.585 C 364.111 363.532, 363.153 353.513, 363.345 353.322 C 363.536 353.131, 370.624 351.222, 379.096 349.081 C 398.928 344.069, 411.158 339.614, 428.500 331.084 C 443.553 323.680, 457.520 314.790, 469.583 304.933 C 477.116 298.777, 477.126 298.762, 475.237 296.633 C 474.196 295.460, 467.592 288.094, 460.560 280.264 L 447.775 266.028 443.138 270.114 C 424.495 286.540, 387.138 304.004, 360.956 308.532 L 357.413 309.145 356.148 298.823 C 351.953 264.567, 336.810 158.819, 329.934 115.750 C 327.900 103.008, 327.583 102.009, 325.619 102.124 C 324.454 102.192, 314.984 103.666, 304.575 105.400 M 323.605 457.338 C 289.570 521.048, 246.899 591.664, 213.012 640.361 C 211.694 642.255, 211.694 642.373, 213.012 641.392 C 213.830 640.783, 220.795 635.608, 228.489 629.892 C 261.325 605.500, 292.419 579.220, 318.679 553.666 L 334 538.758 333.990 529.629 C 333.976 515.819, 329.645 449.294, 328.701 448.373 C 328.591 448.265, 326.297 452.299, 323.605 457.338 " stroke="none" fill="black" fill-rule="evenodd"/>
</svg>