<svg xmlns="http://www.w3.org/2000/svg" width="1000" height="1000" viewBox="0 0 1000 1000" version="1.1">
	<path d="M 220.349 98.810 C 206.174 110.824, 204.322 112.734, 205.222 114.414 C 207.523 118.713, 249.408 159.329, 261.500 168.987 C 296.850 197.222, 322.216 208.617, 357.384 212.064 C 369.501 213.252, 381.692 212.573, 396.316 209.895 C 406.933 207.951, 423.455 202.691, 424.559 200.904 C 424.868 200.405, 420.705 191.451, 415.310 181.007 C 407.782 166.435, 405.151 162.170, 404 162.673 C 403.175 163.034, 398.520 164.374, 393.656 165.651 C 377.071 170.005, 359.001 169.755, 341.105 164.923 C 317.748 158.617, 292.347 140.635, 257.690 105.873 C 246.245 94.393, 236.795 85.027, 236.690 85.060 C 236.586 85.093, 229.232 91.281, 220.349 98.810 M 720 182.564 C 687.575 187.166, 651.778 198.741, 616.500 216.031 C 600.360 223.941, 578.552 236.011, 576.307 238.275 C 575.353 239.238, 577.528 243.210, 586.479 256.849 C 592.742 266.391, 598.087 274.421, 598.359 274.692 C 598.630 274.963, 604.958 271.739, 612.420 267.527 C 651.146 245.668, 689.818 231.344, 723.500 226.383 C 740.236 223.918, 764.472 224.857, 776.451 228.435 C 798.722 235.085, 813.695 246.921, 826.375 267.895 C 840.110 290.616, 841.738 315.868, 830.952 338.915 C 820.484 361.285, 795.877 386.817, 768.848 403.351 L 758.500 409.681 757.862 419.091 C 757.511 424.266, 757.173 432.832, 757.112 438.127 L 757 447.755 766.250 451.041 C 784.575 457.553, 798.515 466.218, 811.114 478.929 C 829.650 497.629, 836.951 518.160, 834.788 545.500 C 831.565 586.239, 806.730 621.308, 767.471 640.557 C 758.963 644.728, 739.157 652, 736.304 652 C 735.253 652, 734.999 643.894, 734.994 610.250 C 734.990 587.288, 734.531 559.725, 733.974 549 C 727.834 430.741, 707.366 352.951, 673.582 319.471 C 660.041 306.051, 645.707 299.761, 628.500 299.688 C 598.636 299.560, 574.506 317.061, 558.502 350.457 C 547.058 374.337, 538.978 406.151, 534.365 445.500 C 531.903 466.493, 531.903 514.503, 534.364 535.500 C 544.439 621.460, 576.176 676.025, 625.935 692.938 C 640.601 697.923, 665.525 702, 681.332 702 L 688.176 702 687.637 705.750 C 687.341 707.813, 686.831 712.650, 686.502 716.500 C 682.968 757.961, 665.876 847.388, 654.993 881.363 C 653.263 886.763, 651.995 891.302, 652.174 891.450 C 652.353 891.597, 660.718 896.699, 670.762 902.786 L 689.024 913.853 690.628 910.752 C 697.733 897.013, 708.362 854.355, 718.474 799 C 725.185 762.263, 727.397 747.249, 730.116 720 C 731.296 708.175, 732.333 698.407, 732.421 698.293 C 732.509 698.179, 738.752 696.504, 746.294 694.571 C 776.964 686.710, 803.927 672.987, 825.500 654.257 C 857.405 626.558, 877.207 584.998, 878.749 542.500 C 879.799 513.548, 873.713 490.994, 858.724 468.285 C 850.242 455.435, 835.575 440.372, 822.763 431.351 L 814.029 425.203 820.932 419.555 C 830.511 411.719, 846.212 395.206, 854.177 384.592 C 880.704 349.245, 888.358 310.763, 876.401 272.864 C 870.724 254.872, 858.748 234.917, 845.030 220.594 C 826.576 201.325, 805.472 189.570, 779.244 183.951 C 766.105 181.136, 735.166 180.412, 720 182.564 M 138.606 234.974 C 131.673 244.343, 126 252.295, 126 252.644 C 126 253.637, 128.085 255.116, 151 270.379 C 195.052 299.721, 241.497 325.476, 271.939 337.444 C 288.181 343.829, 327.869 354, 336.544 354 C 337.895 354, 339 354.187, 339 354.415 C 339 354.643, 335.362 359.931, 330.916 366.165 C 309.850 395.702, 296.835 421.533, 289.833 447.702 C 286.904 458.651, 286.671 460.724, 286.595 476.500 C 286.522 491.491, 286.790 494.473, 288.861 501.733 L 291.210 509.966 277.249 524.733 C 235.388 569.010, 198.125 612.742, 179.558 639.384 C 160.523 666.696, 146.815 701.498, 142.968 732.279 C 141.398 744.837, 142.241 772.766, 144.498 783 C 149.580 806.041, 159.588 824.717, 174.359 838.725 C 187.035 850.746, 199.750 857.619, 218.830 862.763 C 227.689 865.151, 230.178 865.374, 248.500 865.420 C 266.250 865.465, 269.569 865.206, 278 863.117 C 316.147 853.664, 346.719 830.535, 368.510 794.642 C 381.523 773.209, 386.984 750.710, 386.993 718.500 C 387.005 675.277, 377.544 631.898, 349.834 548.116 L 340.777 520.731 388.888 472.612 C 415.350 446.146, 437 424.063, 437 423.539 C 437 422.575, 409.240 393.837, 407.629 393.133 C 407.149 392.924, 389.499 410.006, 368.406 431.094 C 325.096 474.393, 327.609 472.927, 334.665 450.782 C 342.792 425.272, 364.134 391.201, 390.527 361.599 L 399.354 351.699 397.037 334.599 C 395.762 325.195, 394.277 316.938, 393.737 316.250 C 393.097 315.435, 389.929 314.997, 384.628 314.990 C 359.114 314.960, 314.113 306.591, 289.500 297.299 C 263.473 287.474, 212.424 259.111, 173.028 232.589 C 163.969 226.490, 155.354 220.699, 153.885 219.719 L 151.213 217.938 138.606 234.974 M 619.085 345.129 C 609.697 348.828, 602.328 358.336, 594.939 376.282 C 587.584 394.143, 581.931 417.729, 578.348 445.500 C 575.820 465.089, 575.808 516.689, 578.327 535.500 C 584.886 584.492, 598.551 619.070, 618.962 638.325 C 626.893 645.807, 634.471 650.039, 645.201 652.979 C 655.754 655.870, 671.123 657.987, 681.609 657.994 L 690.718 658 691.410 630.250 C 692.456 588.310, 689.967 529.865, 685.435 490 C 676.905 414.953, 659.301 361.403, 638.308 346.649 C 632.759 342.749, 626.400 342.246, 619.085 345.129 M 303.878 559.911 C 302.570 561.512, 294.341 570.624, 285.591 580.161 C 243.329 626.222, 213.719 663.708, 203.379 684.240 C 189.812 711.180, 183.446 740.207, 185.968 763.627 C 190.151 802.479, 211.279 822.292, 248.500 822.268 C 273.539 822.251, 295.195 813.031, 313.531 794.581 C 321.970 786.089, 331.220 773.130, 335.474 763.838 C 348.569 735.235, 345.506 686.431, 326.440 619.870 C 321.089 601.192, 307.096 557, 306.532 557 C 306.380 557, 305.186 558.310, 303.878 559.911 " stroke="none" fill="black" fill-rule="evenodd"/>
</svg>