<svg xmlns="http://www.w3.org/2000/svg" width="1000" height="1000" viewBox="0 0 1000 1000" version="1.1">
	<path d="M 604.917 116.391 C 604.688 116.606, 595.725 118.664, 585 120.964 C 550.786 128.302, 506.663 135.248, 466.500 139.617 C 420.847 144.583, 355.963 138.676, 284.559 123.052 C 275.942 121.167, 270.386 120.375, 270.012 120.980 C 269.183 122.322, 259.730 162.079, 260.157 162.427 C 260.923 163.052, 296.338 170.262, 314.375 173.465 C 357.999 181.214, 384.401 184.006, 420.500 184.691 C 449.995 185.251, 465.338 184.288, 501.250 179.623 C 506.613 178.926, 511 178.471, 511 178.610 C 511 178.750, 507.063 181.681, 502.250 185.123 C 486.552 196.353, 452.881 222.038, 435 236.422 C 356.183 299.827, 296.695 359.225, 191.821 479.232 C 157.098 518.965, 108 577.490, 108 579.146 C 108 580.303, 144.072 614.145, 144.950 613.812 C 145.402 613.640, 150.478 607.425, 156.229 600 C 176.206 574.210, 208.820 539.699, 239.013 512.402 C 324.971 434.688, 417.626 380.366, 510.601 353.176 C 563.710 337.645, 613.834 331.242, 667.500 333.135 C 722.436 335.072, 764.466 351.360, 796.045 382.951 C 821.481 408.395, 836.703 440.115, 844.072 483.031 C 846.756 498.664, 847.836 537.501, 846.089 555.582 C 839.130 627.602, 812.986 702.089, 775.219 757.500 C 758.208 782.457, 735.821 804.581, 721.538 810.548 C 711.478 814.752, 697.435 814.309, 681.500 809.286 C 652.434 800.122, 622.167 774.019, 598.845 738 C 595.106 732.225, 591.471 726.675, 590.768 725.666 C 589.571 723.950, 588.257 724.467, 570.299 733.718 L 551.110 743.602 554.621 749.939 C 564.446 767.665, 581.217 789.404, 597.939 806.089 C 631.631 839.705, 668.646 856.994, 706.936 856.999 C 721.067 857, 728.294 855.334, 741.500 849.031 C 754.638 842.759, 763.767 836.148, 777.219 823.164 C 824.682 777.347, 865.875 692.896, 882.902 606.500 C 888.932 575.904, 890.403 560.463, 890.428 527.500 C 890.449 501.346, 890.159 495.518, 888.166 482.044 C 872.178 373.921, 804.802 306.398, 698 291.466 C 682.212 289.258, 638.030 288.424, 616.473 289.926 C 528.083 296.084, 441.742 323.522, 355.500 372.859 L 339.500 382.012 361.514 360.256 C 395.472 326.697, 425.300 300.261, 465.500 268.097 C 514.444 228.936, 565.078 193.118, 607 168.003 C 615.525 162.896, 622.620 158.624, 622.766 158.509 C 622.912 158.395, 619.827 148.784, 615.910 137.151 C 610.313 120.528, 608.418 116, 607.061 116 C 606.111 116, 605.146 116.176, 604.917 116.391 M 531 391.563 C 513.861 395.265, 494.978 403.740, 479.709 414.582 L 471.919 420.115 474.209 422.834 C 481.719 431.750, 500.350 453, 500.657 453 C 500.858 453, 503.605 451.241, 506.761 449.091 C 530.917 432.637, 556.633 429.057, 572.013 440.009 C 577.916 444.213, 585.551 463.601, 589.926 485.500 C 601.534 543.602, 595.837 611.122, 577.018 638.474 C 574.240 642.512, 558.505 657, 556.898 657 C 556.567 657, 556.033 649.688, 555.711 640.750 C 555.014 621.423, 553.053 609.181, 548.399 595.110 C 537.200 561.255, 516.448 542.049, 486.629 537.944 C 470.225 535.685, 456.231 540.761, 444.336 553.284 C 424.978 573.662, 415.264 610.714, 413.081 672.500 C 411.891 706.169, 412.889 724.835, 416.959 745 C 418.790 754.075, 420.590 761.844, 420.958 762.264 C 421.866 763.300, 456.067 753.125, 473.739 746.562 L 488.044 741.249 485.398 745.875 C 480.431 754.559, 468.512 769.488, 458.500 779.565 C 434.239 803.985, 399.800 826.619, 366.619 839.953 L 355.737 844.326 356.309 851.151 C 356.624 854.906, 357.656 865.407, 358.603 874.489 L 360.325 891 362.912 891.032 C 366.294 891.073, 572.394 874.753, 572.845 874.408 C 573.225 874.117, 569.934 831.686, 569.494 831.193 C 569.343 831.024, 543.876 832.918, 512.902 835.402 C 481.927 837.885, 456.464 839.797, 456.317 839.650 C 456.170 839.504, 460.847 835.585, 466.709 830.942 C 479.099 821.129, 496.894 803.660, 505.890 792.477 C 522.800 771.456, 533.857 751.250, 541.994 726.500 C 543.803 721, 545.781 715.977, 546.391 715.339 C 547.001 714.700, 552 711.602, 557.500 708.455 C 578.418 696.485, 599.896 679.960, 608.738 669.032 C 631.292 641.158, 642.625 589.216, 639.152 529.636 C 635.797 472.073, 622.538 426.896, 603.851 409.355 C 595.713 401.717, 580.495 394.339, 567.038 391.508 C 558.149 389.638, 539.782 389.666, 531 391.563 M 351.184 438.369 C 334.173 478.895, 319.940 526.833, 314.479 562 C 313.549 567.988, 312.519 583.458, 312.082 598 C 311.315 623.573, 312.271 704.978, 313.578 725.391 L 314.276 736.282 331.388 735.606 C 340.800 735.234, 350.687 734.656, 353.360 734.322 L 358.220 733.713 357.644 729.107 C 357.328 726.573, 356.543 704.250, 355.900 679.500 C 354.476 624.699, 355.176 586.932, 357.963 568.123 C 362.026 540.704, 374.180 498.580, 387.861 464.500 C 391.173 456.250, 393.572 449.199, 393.192 448.832 C 392.811 448.464, 384.175 444.482, 374 439.983 C 363.825 435.485, 355.221 431.632, 354.880 431.423 C 354.539 431.214, 352.875 434.340, 351.184 438.369 M 476.905 582.180 C 469.766 588.088, 462.940 609.077, 459.528 635.612 C 456.805 656.788, 454.884 706, 456.781 706 C 459.399 706, 502.156 688.438, 506.554 685.557 C 509.996 683.301, 512.451 662.048, 511.731 640.739 C 510.928 617.010, 506.524 601.598, 497.295 590.226 C 491.791 583.443, 480.678 579.058, 476.905 582.180 " stroke="none" fill="black" fill-rule="evenodd"/>
</svg>