<svg xmlns="http://www.w3.org/2000/svg" width="1000" height="1000" viewBox="0 0 1000 1000" version="1.1">
	<path d="M 592.500 136.674 C 538.704 145.720, 480.937 156.776, 423.332 169.050 C 375.902 179.157, 369.677 180.129, 352.529 180.107 C 330.442 180.079, 314.035 175.967, 300.414 167.044 C 294.543 163.199, 286.480 155.467, 284.326 151.619 C 283.359 149.890, 281.907 150.382, 263.650 158.630 C 252.850 163.508, 244.011 168.011, 244.007 168.636 C 243.992 171.058, 252.806 182.859, 260.115 190.201 C 277.066 207.229, 300.429 218.315, 328.500 222.648 C 336.040 223.812, 343.175 224.064, 357.500 223.671 C 378.471 223.095, 384.796 222.201, 415.530 215.470 C 433.327 211.572, 501.591 197.508, 511.742 195.647 L 514.984 195.053 510.135 201.777 C 484.818 236.880, 468.961 284.790, 463.501 342.676 C 461.382 365.135, 461.344 374.669, 462.396 615.952 L 463.291 821.404 443.396 801.433 C 414.068 771.994, 389.643 751.461, 362.645 733.552 C 348.496 724.166, 328.270 712.372, 327.587 713.109 C 327.387 713.324, 322.919 722.117, 317.658 732.649 L 308.091 751.797 318.296 757.509 C 340.754 770.079, 362.426 786.043, 387.882 808.768 C 413.172 831.346, 442.363 862.670, 462.418 888.750 C 466.753 894.388, 470.626 899, 471.025 899 C 471.424 899, 479.344 895.466, 488.625 891.146 L 505.500 883.293 505.597 620.396 C 505.704 332.328, 505.409 347.548, 511.530 314.500 C 524.423 244.881, 558.871 195.620, 602.331 184.653 C 607.737 183.288, 612.360 181.973, 612.603 181.730 C 613.202 181.131, 607.858 135.654, 607.101 134.910 C 606.770 134.585, 600.200 135.379, 592.500 136.674 M 584.500 407.925 C 576.134 409.273, 564.191 412.871, 558.457 415.771 L 553.026 418.517 563.573 436.985 C 569.374 447.143, 574.244 455.577, 574.396 455.729 C 574.548 455.881, 577.333 455.031, 580.586 453.841 C 585.080 452.197, 588.902 451.656, 596.500 451.588 C 605.196 451.512, 607.149 451.819, 611.474 453.948 C 619.341 457.819, 624.103 463.337, 628.376 473.533 C 636.172 492.135, 645.875 530.131, 652.563 568.250 C 655.294 583.812, 655.358 584, 657.914 583.999 C 663.495 583.996, 695.477 579.069, 695.778 578.165 C 695.954 577.637, 699.595 571.872, 703.869 565.353 C 723.333 535.664, 746.658 511.409, 767.510 499.171 C 777.927 493.058, 785.120 490.786, 794.500 490.647 C 801.564 490.542, 803.297 490.904, 809.312 493.740 C 826.332 501.767, 846.503 529.206, 852.998 553.170 C 869.942 615.679, 820.994 686.019, 720.354 743.786 C 712.734 748.160, 703.688 753.154, 700.250 754.884 C 696.813 756.613, 694 758.252, 694 758.524 C 694 759.523, 713.027 797, 713.534 797 C 714.668 797, 726.853 790.487, 742.441 781.549 C 769.445 766.065, 796.077 747.510, 816.500 729.951 C 827.917 720.136, 848.637 698.901, 856.946 688.500 C 876.718 663.750, 890.410 636.623, 896.821 609.500 C 899.146 599.664, 899.425 596.436, 899.457 579 C 899.498 557.164, 898.416 550.133, 892.317 532.611 C 885.497 513.018, 873.396 493.107, 858.903 477.631 C 844.363 462.106, 830.020 453.109, 813.043 448.866 C 800.960 445.847, 782.229 446.551, 770 450.485 C 751.846 456.325, 735.228 466.422, 716.338 483.090 C 707.729 490.687, 689.821 509.800, 687.590 513.774 C 686.930 514.949, 685.521 510.948, 682.472 499.240 C 674.536 468.763, 666.217 447.809, 657.397 436.075 C 648.861 424.719, 631.584 413.473, 616.500 409.453 C 609.552 407.601, 591.776 406.752, 584.500 407.925 M 142.752 506.256 C 139.761 510.820, 131.924 527.150, 128.013 536.967 C 118.042 561.995, 114.507 579.986, 115.269 601.818 C 115.844 618.272, 117.702 626.486, 123.410 637.821 C 132.702 656.273, 149.839 671.276, 165.890 675.012 C 174.072 676.917, 191.509 675.754, 202.113 672.596 C 224.899 665.811, 254.081 650.525, 287.987 627.613 C 313.822 610.156, 372 565.354, 372 562.916 C 372 562.272, 361.390 549.656, 344.467 530.176 C 344.312 529.998, 339.974 533.373, 334.826 537.676 C 273.302 589.105, 209.844 628.204, 180.939 632.494 C 176.793 633.109, 175.978 632.865, 171.968 629.806 C 162.396 622.506, 158.574 613.085, 158.657 597 C 158.745 579.894, 164.532 559.853, 175.954 537.092 C 178.797 531.426, 180.983 526.693, 180.812 526.575 C 180.640 526.456, 173.300 521.934, 164.500 516.526 C 155.700 511.117, 147.547 506.074, 146.383 505.318 C 144.485 504.087, 144.110 504.184, 142.752 506.256 " stroke="none" fill="black" fill-rule="evenodd"/>
</svg>