<svg xmlns="http://www.w3.org/2000/svg" width="1000" height="1000" viewBox="0 0 1000 1000" version="1.1">
	<path d="M 414.128 81.556 C 403.474 86.150, 394.561 90.106, 394.321 90.346 C 393.672 90.995, 403.797 110.141, 410.510 120.960 C 429.318 151.267, 454.989 176.859, 478.500 188.740 C 487.999 193.540, 496.005 196.464, 507.678 199.395 C 540.133 207.545, 576.764 212.468, 620.750 214.593 L 635 215.281 635 193.140 L 635 171 627.750 170.996 C 610.485 170.986, 573.312 167.411, 549.500 163.471 C 517.103 158.109, 500.017 152.438, 487 142.727 C 469.898 129.968, 452.574 108.420, 439.389 83.508 C 436.330 77.729, 433.753 73.045, 433.663 73.101 C 433.574 73.156, 424.783 76.961, 414.128 81.556 M 479 328.668 C 453.841 332.646, 424.921 342.531, 398.431 356.207 C 390.769 360.163, 381.944 364.669, 378.820 366.222 C 360.979 375.092, 336.128 375.725, 314.717 367.857 C 311.537 366.688, 308.789 365.905, 308.611 366.116 C 307.774 367.109, 288.900 402.348, 288.713 403.267 C 288.426 404.677, 302.987 410.571, 312.676 412.966 C 325.232 416.070, 332.710 416.984, 345.619 416.992 C 368.395 417.007, 383.536 412.958, 407.845 400.353 C 442.977 382.135, 467.686 373.584, 491.358 371.453 L 499.216 370.745 498.493 373.122 C 497.051 377.862, 487.437 393.991, 472.039 417.500 C 463.394 430.700, 454.707 444.425, 452.736 448 C 439.129 472.678, 443.311 494.387, 463.631 504.552 C 471.918 508.697, 478.480 509.986, 496.500 511.008 C 515.934 512.109, 522.348 513.204, 529.755 516.682 C 536.936 520.055, 537.800 521.959, 534.613 527.397 C 531.594 532.549, 529.905 533.858, 510 546.483 C 427.685 598.692, 303.219 681.238, 275.500 702.004 C 253.836 718.233, 220.583 747.559, 152.593 810.392 C 132.295 829.151, 113.398 846.577, 110.601 849.116 L 105.515 853.732 112.232 861.116 C 115.927 865.177, 122.673 872.419, 127.225 877.208 L 135.500 885.916 162.500 860.770 C 177.350 846.940, 199.913 826.103, 212.641 814.467 C 235.759 793.331, 235.792 793.306, 246.641 788.545 C 266.376 779.886, 289.346 772.979, 312.400 768.770 C 322.659 766.897, 328.153 766.556, 348.500 766.531 C 369.608 766.504, 373.856 766.775, 383.755 768.781 C 399.648 772.002, 411.500 776.061, 426.500 783.419 C 442.787 791.408, 458.039 802.176, 471.681 815.314 C 484.663 827.816, 492.541 837.551, 500.921 851.447 C 504.453 857.302, 507.784 862.366, 508.323 862.700 C 508.863 863.033, 517.786 859.084, 528.152 853.924 L 547 844.542 547.003 837.021 C 547.010 822.112, 552.673 799.518, 560.085 784.829 C 579.966 745.432, 616.219 723.697, 669.795 719.056 C 690.761 717.239, 707.652 720.421, 727.673 729.958 C 746.880 739.107, 762.486 750.558, 782.863 770.453 C 812.812 799.695, 842.338 839.935, 866.361 884.250 C 868.970 889.063, 871.468 893, 871.912 893 C 873.452 893, 910 874.867, 910 874.103 C 910 873.681, 907.263 868.239, 903.918 862.010 C 881.248 819.800, 850.944 777.611, 821.241 746.909 C 784.717 709.156, 749.036 686.805, 711 677.854 C 699.991 675.263, 674.328 674.297, 659.919 675.931 C 601.490 682.556, 558.432 706.748, 530.760 748.500 C 523.957 758.765, 516.330 774.171, 512.864 784.647 L 510.500 791.795 502.459 784.075 C 471.770 754.615, 434.042 734.429, 395 726.582 C 376.421 722.848, 361.082 721.646, 340.250 722.292 C 330.212 722.603, 322 722.675, 322 722.451 C 322 721.264, 470.243 623.711, 532.500 583.930 C 562.329 564.870, 571.874 555.186, 577.713 538.058 C 579.293 533.421, 579.956 529.109, 579.974 523.339 C 580.021 508.613, 575.076 497.829, 563.353 487.087 C 550.773 475.559, 533.479 469.632, 507.596 467.978 C 499.399 467.454, 492.563 466.896, 492.405 466.738 C 492.247 466.580, 498.124 457.405, 505.465 446.348 C 537.338 398.340, 545.212 381.240, 543.475 363.800 C 541.764 346.627, 528.649 332.952, 510.201 329.105 C 505.251 328.073, 484.593 327.783, 479 328.668 " stroke="none" fill="black" fill-rule="evenodd"/>
</svg>