<svg xmlns="http://www.w3.org/2000/svg" width="1000" height="1000" viewBox="0 0 1000 1000" version="1.1">
	<path d="M 688.047 119.072 C 651.261 125.618, 604.842 164.009, 558.182 226.474 C 519.139 278.743, 498.004 321.637, 471.201 403 C 452.922 458.487, 433.238 531.313, 416.392 605.781 C 414.864 612.535, 413.298 617.485, 412.911 616.781 C 410.612 612.594, 407.735 586.628, 406.011 554.500 C 402.606 491.070, 398.153 467.122, 386.498 449.563 C 377.432 435.904, 366.034 429.791, 349.831 429.897 C 333.173 430.006, 319.127 437.685, 299.487 457.423 C 285.386 471.593, 274.575 485.353, 259.747 508 C 241.883 535.285, 215.556 583.221, 200 616.789 C 195.875 625.690, 192.230 632.979, 191.901 632.987 C 190.852 633.010, 182.298 613.876, 178.655 603.357 C 173.364 588.081, 168.383 567.102, 166.460 552 C 164.168 533.996, 164.893 494.766, 167.938 472 C 173.931 427.185, 188.224 370.992, 205.072 326 C 208.470 316.925, 211.307 308.473, 211.375 307.217 C 211.487 305.173, 209.516 304.099, 192.575 296.967 C 182.167 292.585, 173.312 289, 172.898 289 C 171.350 289, 158.006 326.131, 149.538 354 C 136.451 397.070, 127.705 438.455, 122.803 480.500 C 120.919 496.660, 121.192 546.421, 123.242 560.534 C 128.901 599.491, 143.232 639.933, 160.886 666.764 C 167.824 677.309, 182.637 693.353, 184.703 692.561 C 185.446 692.275, 194.959 686.186, 205.842 679.029 L 225.631 666.017 228.961 658.258 C 235.483 643.063, 261.002 592.184, 271.724 573 C 299.354 523.563, 324.624 489.387, 342.400 477.417 C 349.411 472.695, 350.450 472.915, 352.971 479.653 C 357.146 490.811, 359.913 512.940, 362.016 552 C 364.773 603.202, 367.387 620.824, 376.164 647.385 C 381.480 663.470, 385.497 673.024, 394.532 691.064 L 402.061 706.096 423.280 695.117 C 437.672 687.670, 444.607 683.552, 444.831 682.319 C 446.419 673.605, 456.972 624.600, 461.482 605 C 482.061 515.566, 505.041 434.936, 526.036 378.500 C 543.284 332.138, 554.728 309.131, 577.520 275 C 614.159 220.131, 656.025 177.826, 686.221 165.156 C 694.201 161.808, 704.616 161.438, 707.874 164.386 C 715.525 171.310, 720.958 209.233, 719.496 245.500 C 717.606 292.381, 712.575 337.295, 700.005 419.500 C 691.502 475.115, 690.199 486.085, 688.015 520.483 C 686.920 537.732, 686.629 614.121, 687.635 620.208 L 688.248 623.916 712.874 623.821 C 762.017 623.632, 800.434 630.615, 820.334 643.353 C 833.658 651.881, 836.183 661.312, 828.993 675.697 C 806.003 721.696, 678.046 783.221, 499.040 834.346 C 486.687 837.875, 476.422 841.234, 476.229 841.812 C 476.037 842.389, 478.228 851.924, 481.099 862.999 L 486.318 883.137 488.909 882.524 C 518.909 875.427, 604.230 848.219, 649.500 831.312 C 779.357 782.815, 853.021 735.361, 871.124 688.543 C 877.607 671.779, 878.330 656.819, 873.374 642.038 C 861.568 606.829, 818.797 586.246, 746.260 580.863 L 729.704 579.634 730.386 555.567 C 731.690 509.531, 733.754 488.687, 743.059 427.603 C 759.232 321.431, 763.657 275.778, 762.724 224.717 C 762.193 195.637, 761.043 184.456, 756.956 168.629 C 750.233 142.595, 736.970 126.927, 716.099 120.368 C 710.210 118.517, 695.089 117.818, 688.047 119.072 " stroke="none" fill="black" fill-rule="evenodd"/>
</svg>