<svg xmlns="http://www.w3.org/2000/svg" width="1000" height="1000" viewBox="0 0 1000 1000" version="1.1">
	<path d="M 242.602 90.117 C 242.362 90.878, 241.889 97.800, 241.552 105.500 C 239.753 146.569, 231.681 199.913, 222.466 231.631 C 211.565 269.154, 199.679 288.817, 151.536 348.976 C 106.640 405.076, 98.261 418, 94.877 436.362 C 93.935 441.475, 93.917 444.453, 94.799 449.197 C 97.101 461.573, 99.274 464.499, 125.476 490.500 C 151.248 516.074, 155.987 522.020, 164.527 539.500 C 172.851 556.539, 177.683 575.346, 180.069 600 C 182.819 628.413, 177.942 731.329, 169.477 823.500 C 168.669 832.300, 168.006 840.183, 168.004 841.019 C 168.001 842.279, 171.788 842.838, 190.250 844.302 C 202.488 845.273, 213.442 846.052, 214.593 846.034 C 216.422 846.004, 217.095 844.452, 219.919 833.750 C 238.178 764.543, 282.882 671.443, 331.882 600.580 C 358.372 562.270, 382.420 533.473, 415.941 499.917 C 447.423 468.404, 473.956 446.081, 504.704 425.242 C 516.305 417.379, 516.897 417.103, 517.564 419.250 C 520.155 427.596, 539.004 475.591, 547.509 495.500 C 572.692 554.453, 590.139 587.727, 617.509 629 C 654.332 684.530, 704.650 745.081, 770.500 813.104 C 799.849 843.422, 852.731 894, 855.080 894 C 855.501 894, 863.517 885.056, 872.894 874.123 L 889.943 854.247 888.494 845.287 C 879.689 790.850, 876.270 725.823, 877.352 633.403 L 877.938 583.306 865.219 582.657 C 858.224 582.300, 848.348 582.006, 843.272 582.004 L 834.045 582 833.772 622.250 C 833.162 712.408, 834.781 764.925, 839.480 807.461 C 840.268 814.589, 840.729 820.604, 840.506 820.828 C 839.339 821.995, 783.369 764.224, 753.479 731 C 734.101 709.461, 708.427 678.809, 691.776 657.335 C 647.747 600.552, 621.678 556.494, 592.473 489.500 C 577.027 454.070, 554.330 394.893, 555.475 393.040 C 556.224 391.828, 588.291 372.987, 612.500 359.535 C 638.337 345.179, 691.793 318.652, 714 309.167 C 744.173 296.280, 764.631 289.109, 790.042 282.514 L 796.584 280.816 794.041 260.266 L 791.498 239.716 787.733 237.333 C 779.266 231.975, 743.276 211.588, 725.500 202.080 C 651.144 162.311, 592.757 138.669, 551.289 131.536 C 539.311 129.476, 520.248 129.435, 511.557 131.450 C 492.384 135.897, 478.406 149.355, 472.555 169 C 462.134 203.985, 470.237 267.765, 495.992 353.499 C 499.297 364.499, 501.888 373.767, 501.750 374.095 C 501.613 374.424, 494.300 379.542, 485.500 385.469 C 450.257 409.207, 421.656 432.607, 390.151 463.479 C 326.721 525.636, 273.443 600.373, 229.740 688.500 L 221.806 704.500 222.385 697 C 223.764 679.167, 225.181 623.349, 224.575 610.764 C 222.394 565.486, 212.575 531.279, 193.208 501.500 C 182.530 485.080, 172.713 474.283, 145.717 449.265 L 137.933 442.052 140.101 437.776 C 144.472 429.159, 156.365 412.873, 177.549 386.500 C 234.930 315.062, 249.864 291.168, 262.408 250.729 C 274.041 213.231, 283.003 156.572, 285.579 104.250 L 286.281 90 269.280 90 C 259.929 90, 250.200 89.715, 247.659 89.367 C 244.182 88.890, 242.931 89.076, 242.602 90.117 M 845.562 170.886 C 841.953 181.824, 839 191.214, 839 191.753 C 839 192.292, 841.316 193.696, 844.147 194.872 C 852.178 198.210, 865.192 207.360, 871.316 213.974 C 879.352 222.654, 883.980 232.562, 884.931 243.120 C 886.569 261.307, 882.492 286.086, 874.646 305.625 C 872.699 310.473, 871.195 314.526, 871.303 314.631 C 871.411 314.736, 880.050 319.366, 890.500 324.921 L 909.500 335.020 912.367 328.760 C 919.432 313.333, 925.752 290.337, 928.053 271.684 C 929.798 257.536, 928.795 233.656, 926.050 224 C 919.552 201.140, 902.976 179.647, 880.755 165.273 C 874.598 161.290, 854.531 151.050, 852.812 151.014 C 852.434 151.006, 849.171 159.949, 845.562 170.886 M 523.500 173.491 C 522.950 173.675, 521.353 174.075, 519.950 174.381 C 513.982 175.683, 511.489 188.253, 512.302 212.951 C 513.116 237.663, 518.020 266.925, 527.564 304 C 531.628 319.790, 539.933 348.937, 540.634 349.873 C 540.787 350.078, 551.395 344.164, 564.206 336.730 C 617.625 305.733, 669.561 279.746, 712.728 262.416 C 722.204 258.612, 729.845 255.136, 729.709 254.691 C 729.299 253.354, 692.212 233.586, 665.500 220.466 C 625.341 200.741, 593.488 187.669, 567.210 180.130 C 549.280 174.986, 528.488 171.828, 523.500 173.491 " stroke="none" fill="black" fill-rule="evenodd"/>
</svg>