<svg xmlns="http://www.w3.org/2000/svg" width="1000" height="1000" viewBox="0 0 1000 1000" version="1.1">
	<path d="M 628.500 93.712 C 613.284 95.801, 583 104.045, 583 106.098 C 583 107.021, 597.533 143.435, 598.573 145.118 C 598.802 145.488, 602.339 144.727, 606.434 143.427 C 625.483 137.378, 646.632 135.268, 654.932 138.589 C 660.560 140.841, 661.460 144.099, 659.524 155.204 C 653.891 187.504, 622.880 265.118, 578.987 356.771 L 571.674 372.042 569.587 370.130 C 565.700 366.569, 557.161 361.919, 549.116 358.983 C 522.256 349.180, 488.479 349.048, 461.766 358.641 C 430.139 369.998, 403.718 394.511, 387.056 427.958 C 371.010 460.166, 368.648 485.100, 379.352 509.269 C 385.203 522.480, 398.360 537.737, 411.734 546.819 C 418.462 551.388, 434.166 559.508, 438.250 560.529 C 439.763 560.907, 441 561.578, 441 562.019 C 441 564.505, 403.546 592.782, 374 612.602 C 337.028 637.403, 268.742 680.648, 244.750 694.456 C 242.138 695.959, 239.788 697.534, 239.528 697.954 C 239.175 698.525, 251.594 742.600, 252.418 743.701 C 252.609 743.957, 331.810 723.349, 405.121 703.969 C 436.263 695.736, 462.024 689, 462.368 689 C 464.196 689, 403.678 746.197, 384 763.068 C 369.631 775.387, 319.147 820.118, 281.520 853.870 C 272.709 861.773, 265.500 868.568, 265.500 868.969 C 265.500 869.825, 293.263 901.003, 294 900.974 C 294.275 900.964, 300.575 895.503, 308 888.839 C 343.623 856.868, 394.391 811.811, 411.378 797.091 L 430.256 780.731 457.878 781.282 C 505.463 782.231, 545.992 788.488, 579.584 800.071 C 620.424 814.153, 673.978 849.796, 716.393 891.124 L 729.349 903.748 745.544 889.630 L 761.738 875.512 757.128 870.116 C 754.593 867.149, 746.889 859.526, 740.009 853.176 C 710.233 825.696, 683.247 805.430, 649.500 785.205 C 604.752 758.387, 559.732 745.027, 494.334 739.159 L 475.849 737.500 513.519 700.871 L 551.189 664.241 572.344 658.212 C 583.980 654.895, 617.688 645.331, 647.250 636.958 C 685.566 626.105, 701 621.330, 701 620.327 C 701 618.602, 690.246 580.912, 689.557 580.224 C 689 579.667, 690.305 579.307, 589.500 607.857 C 491.341 635.659, 476.761 639.694, 421 654.487 C 394.875 661.417, 372.600 667.339, 371.500 667.645 C 370.400 667.951, 380.525 660.833, 394 651.827 C 428.414 628.826, 454.300 609.357, 479.500 587.523 C 496.878 572.466, 519.086 551.440, 523.884 545.500 C 555.020 506.960, 629.753 360.370, 672.492 254 C 708.838 163.544, 712.326 134.526, 689.754 110.396 C 678.844 98.734, 662.478 92.849, 641.792 93.150 C 636.131 93.232, 630.150 93.485, 628.500 93.712 M 334.569 116.250 C 331.353 123.524, 329.203 130.059, 326.757 140 C 324.041 151.035, 323.811 172.176, 326.298 182.230 C 332.081 205.615, 347.857 223.887, 377.575 241.622 C 386.040 246.674, 410.853 258.527, 411.478 257.818 C 412.025 257.199, 426 217.853, 426 216.934 C 426 216.420, 425.438 215.996, 424.750 215.991 C 422.554 215.975, 401.328 205.309, 393.802 200.440 C 383.666 193.884, 373.705 184.007, 370.840 177.673 C 368.823 173.215, 368.509 170.980, 368.566 161.500 C 368.624 151.855, 369.025 149.354, 371.816 141.193 C 373.567 136.074, 375 131.728, 375 131.535 C 375 131.100, 338.264 111, 337.468 111 C 337.150 111, 335.845 113.362, 334.569 116.250 M 489.500 396.484 C 461.110 401.769, 439.096 419.886, 425.081 449.500 C 412.440 476.210, 413.683 490.187, 430.048 505.338 C 440.882 515.369, 455.957 521.990, 471.672 523.618 C 479.309 524.410, 485.577 522.665, 489.261 518.721 C 496.842 510.605, 516.075 478.786, 536.637 440.343 C 549.179 416.893, 549.240 416.745, 548.080 412.873 C 545.561 404.466, 536.977 399.401, 520.324 396.497 C 510.069 394.709, 499.059 394.704, 489.500 396.484 " stroke="none" fill="black" fill-rule="evenodd"/>
</svg>