<svg xmlns="http://www.w3.org/2000/svg" width="1000" height="1000" viewBox="0 0 1000 1000" version="1.1">
	<path d="M 270 86.098 C 261.475 92.689, 253.904 98.675, 253.176 99.400 C 251.646 100.925, 255.709 106.193, 271.189 122.753 C 312.791 167.258, 362.890 202.296, 408.500 218.785 C 420.512 223.128, 433.611 226.722, 434.432 225.901 C 434.717 225.616, 437.138 216.184, 439.810 204.941 L 444.670 184.500 437.085 182.199 C 406.984 173.066, 374.466 155.500, 347 133.535 C 326.422 117.078, 302.529 93.882, 290.056 78.250 C 288.191 75.912, 286.403 74.026, 286.083 74.057 C 285.762 74.088, 278.525 79.507, 270 86.098 M 728.303 231.996 C 676.451 239.282, 605.830 285.353, 458.374 408.088 C 410.774 447.708, 391.783 464.550, 362.909 492.750 C 354.884 500.587, 348.087 507, 347.806 507 C 347.524 507, 347.517 475.726, 347.789 437.503 L 348.285 368.005 342.480 353.753 C 339.287 345.914, 336.548 339.338, 336.394 339.139 C 336.239 338.941, 329.224 340.602, 320.806 342.830 C 289.408 351.142, 264.939 354.896, 237 355.688 C 208.527 356.495, 194.721 354.495, 180.348 347.479 C 171.545 343.182, 167 338.373, 167 333.355 C 167 327.700, 172.627 318.466, 182.107 308.564 L 190.713 299.574 178.192 283.037 C 171.306 273.942, 165.370 266.147, 165.002 265.716 C 163.926 264.457, 146.582 281.425, 139.957 290.217 C 122.279 313.678, 118.491 335.780, 128.596 356.500 C 134.903 369.433, 145.876 379.481, 162.500 387.544 C 172.258 392.277, 181.190 394.980, 196 397.681 C 207.853 399.844, 247.139 400.147, 263 398.198 C 273.481 396.910, 296.044 393.498, 301.250 392.414 L 304 391.841 304 472.323 L 304 552.804 291.173 566.773 C 240.961 621.457, 179.201 696.826, 139.036 752.434 C 132.309 761.748, 126.152 770.365, 125.353 771.584 C 123.912 773.784, 124.021 773.841, 139.700 779.040 C 148.390 781.922, 175.075 791.468, 199 800.253 C 245.494 817.325, 269.719 825.722, 306.732 837.596 C 319.510 841.695, 330.656 845.314, 331.500 845.638 C 332.678 846.090, 334.680 842.799, 340.098 831.507 L 347.160 816.786 348.140 741.643 C 348.679 700.314, 348.825 644.675, 348.464 618 L 347.809 569.500 380.155 537.442 C 419.332 498.613, 433.263 486.029, 483 444.541 C 563.365 377.504, 616.643 336.489, 656 311.358 C 692.747 287.895, 722.369 275.085, 740.038 275.017 C 749.519 274.981, 758 282.173, 758 290.250 C 758 297.590, 752.075 312.156, 738.983 337.006 C 717.824 377.167, 712.865 391.334, 712.731 412 C 712.614 429.975, 717.099 442.871, 727.951 455.764 C 738.107 467.831, 747.265 473.679, 781.827 490.173 C 801.138 499.388, 814.056 507.300, 820.187 513.670 C 825.314 518.995, 830.697 528.298, 833.107 536 C 838.041 551.764, 835.862 591.440, 828.432 621.143 C 814.502 676.826, 776.702 725.099, 704.804 779.022 C 658.013 814.116, 588.535 855.664, 515.250 892.377 C 507.962 896.027, 502 899.241, 502 899.517 C 502 900.510, 521.021 938, 521.525 938 C 523.867 938, 586.921 904.534, 620.870 885.273 C 670.089 857.348, 726.377 819.419, 758.500 792.532 C 822.053 739.339, 857.665 687.870, 871.650 629 C 877.710 603.491, 881.194 564.921, 879.183 545.624 C 876.481 519.706, 867.102 499.065, 850.469 482.432 C 838.422 470.385, 826.045 462.603, 798.053 449.476 C 767.860 435.317, 759.771 429.399, 756.979 419.426 C 753.974 408.691, 757.860 395.848, 772.843 367 C 778.699 355.725, 785.807 341.775, 788.638 336 C 807.206 298.124, 805.771 270.647, 784.099 249.055 C 776.740 241.722, 766.981 236.068, 757.432 233.605 C 749.716 231.615, 736.295 230.873, 728.303 231.996 M 293.422 629.793 C 260.399 667.674, 218.012 719.507, 196.676 748.103 L 193.987 751.705 228.744 764.511 C 247.860 771.554, 272.559 780.344, 283.632 784.044 L 303.763 790.772 304.450 731.636 C 304.828 699.111, 304.994 660.032, 304.819 644.793 L 304.500 617.086 293.422 629.793 " stroke="none" fill="black" fill-rule="evenodd"/>
</svg>