<svg xmlns="http://www.w3.org/2000/svg" width="1000" height="1000" viewBox="0 0 1000 1000" version="1.1">
	<path d="M 420 121.150 C 388.243 147.700, 345.366 171.242, 313.981 179.361 C 299.247 183.172, 289.149 184.322, 275.642 183.726 C 251.057 182.642, 230.358 173.795, 212.268 156.639 L 205.033 149.777 188.077 161.887 C 178.750 168.548, 170.841 174.448, 170.501 174.998 C 170.161 175.549, 174.522 180.628, 180.191 186.285 C 196.086 202.145, 214.488 213.559, 235.349 220.498 C 253.025 226.378, 260.349 227.490, 281 227.430 C 297.184 227.382, 301.128 227.033, 312.500 224.643 C 329.114 221.150, 348.474 214.690, 365.199 207.059 C 372.447 203.751, 378.513 201.179, 378.677 201.344 C 379.144 201.811, 310.372 315.698, 283.474 359 C 273.585 374.921, 222.113 452.311, 176.116 520.418 C 166.118 535.224, 158.289 547.635, 158.718 547.999 C 159.148 548.363, 163.325 551.283, 168 554.487 C 172.675 557.691, 180.263 563.232, 184.863 566.799 L 193.226 573.285 195.863 569.893 C 208.252 553.952, 240.693 519.693, 259.763 502.412 C 290.538 474.523, 322.385 453.016, 348.376 442.568 C 353.257 440.606, 357.422 439, 357.632 439 C 357.841 439, 355.470 442.938, 352.362 447.750 C 338.611 469.048, 325.544 489.782, 318.691 501.174 C 274.595 574.490, 264.864 620.086, 286.506 651.992 C 292.767 661.221, 300.698 667.788, 312.500 673.514 C 326.147 680.135, 332.087 681.431, 348.500 681.371 C 360.745 681.327, 363.628 680.981, 371.500 678.613 C 401.538 669.579, 430.484 646.311, 451.259 614.500 C 466.357 591.381, 478.013 559.025, 482.618 527.450 C 484.914 511.706, 484.946 484.927, 482.684 472.364 C 477.334 442.649, 463.204 418.622, 443.313 405.420 C 440.391 403.480, 438 401.698, 438 401.460 C 438 400.556, 462.358 370.897, 474.514 357 C 529.855 293.731, 592.882 235.859, 639.737 205.287 C 661.309 191.212, 682.857 181.239, 692.785 180.736 C 697.402 180.502, 697.452 180.534, 700.210 185.500 C 710.044 203.208, 717.038 244.185, 719.594 299.071 L 720.272 313.642 706.386 318.425 C 661.316 333.953, 615.679 356.554, 587.675 377.216 C 566.874 392.563, 550.328 409.225, 538.852 426.382 C 531.525 437.336, 528.340 443.576, 523.610 456.243 C 501.260 516.103, 515.806 580.203, 562.895 629.350 C 574.162 641.109, 609.196 670.668, 642.509 696.521 C 663.459 712.779, 694.664 735.828, 697.561 737.184 C 699.195 737.949, 704.106 736.355, 721.262 729.492 L 742.902 720.834 743.469 716.667 C 744.823 706.713, 749.164 660.603, 751.958 626.500 C 756.377 572.561, 756.013 575.791, 757.603 576.401 C 764.797 579.162, 824.682 592.657, 825.606 591.725 C 825.899 591.430, 832 551.364, 831.999 549.744 C 831.999 548.941, 827.474 547.657, 819.249 546.126 C 799.069 542.368, 761.837 532.938, 759.733 531.053 C 759.311 530.675, 759.418 522.971, 759.970 513.933 C 761.747 484.887, 762.939 456.425, 764.050 416.569 L 765.136 377.638 777.738 364.569 C 797.399 344.180, 811.014 327.964, 810.502 325.546 C 810.264 324.421, 809.363 317.425, 808.500 310 C 806.377 291.737, 806.413 291.870, 803.728 292.474 C 801.949 292.873, 775.485 298.567, 765.250 300.753 C 763.078 301.217, 763 300.979, 762.987 293.867 C 762.951 274.384, 758.495 233.723, 753.858 210.567 C 745.640 169.530, 732.156 146.920, 711.119 138.905 C 703.414 135.969, 689.760 135.965, 677.584 138.895 C 649.095 145.752, 610.004 169.369, 564.317 207.326 C 508.807 253.443, 447.491 317.286, 402.085 376.243 L 391.500 389.987 385.500 389.999 C 377.896 390.015, 362.848 392.305, 352.500 395.020 C 337.740 398.894, 310.185 410.972, 298.077 418.875 C 296.425 419.954, 298.198 416.651, 303.658 408.478 C 321.436 381.873, 420.343 218.819, 462.326 146.904 L 465.009 142.308 448.346 128.404 C 439.181 120.757, 431.191 114.209, 430.591 113.854 C 429.991 113.498, 425.225 116.782, 420 121.150 M 713.500 362.218 C 689.676 370.637, 652.313 387.913, 634.088 398.937 C 600.251 419.407, 578.144 440.967, 567.957 463.434 C 555.360 491.216, 553.665 520.297, 563.016 548.207 C 572.024 575.096, 588.450 595.991, 623.500 625.150 C 654.734 651.134, 702.256 687.859, 702.672 686.333 C 703.381 683.727, 712.993 569.206, 712.998 563.293 C 713 561.497, 711.274 560.250, 703.750 556.610 C 667.850 539.239, 650.822 521.116, 643.396 492.372 C 641.107 483.511, 640.893 481.117, 641.305 469 C 641.845 453.094, 644.239 444.450, 651.691 431.500 C 660.831 415.616, 671.759 403.462, 701.248 376.381 C 710.460 367.921, 717.660 361.036, 717.248 361.079 C 716.837 361.122, 715.150 361.635, 713.500 362.218 M 709.641 428.435 C 688.919 449.292, 682.353 462.426, 684.945 477.833 C 686.577 487.532, 691.039 496.029, 697.292 501.344 C 703.015 506.209, 715.175 514.158, 715.855 513.479 C 717.012 512.321, 720.762 419, 719.651 419 C 719.301 419, 714.797 423.246, 709.641 428.435 M 406.179 445.250 C 385.853 475.437, 355.160 524.666, 343.675 545.500 C 323.214 582.620, 314.816 613.075, 321.486 625.973 C 326.508 635.685, 345.263 640.755, 360.068 636.404 C 378.318 631.040, 398.954 613.924, 413.483 592.100 C 429.423 568.155, 439.210 536.571, 440.628 504.500 C 442.053 472.261, 432.812 448.595, 415.300 439.637 C 413.539 438.737, 411.866 438, 411.580 438 C 411.295 438, 408.864 441.262, 406.179 445.250 M 156.029 643.250 C 141.047 666.126, 133.758 694.582, 136.999 717.548 C 144.475 770.521, 190.675 806.281, 282.243 829.970 C 380.115 855.290, 530.371 864.299, 707.500 855.468 C 750.391 853.330, 829.696 847.638, 830.708 846.625 C 831.173 846.161, 826.670 804.501, 826.084 803.844 C 825.763 803.483, 818.975 803.803, 811 804.556 C 746.320 810.655, 650.472 814.981, 580 814.980 C 419.345 814.980, 298.660 798.026, 231.316 765.996 C 190.564 746.613, 174.192 722.028, 181.919 691.817 C 184.017 683.614, 188.647 672.710, 192.076 667.894 C 193.915 665.310, 194.041 664.632, 192.879 663.572 C 190.565 661.464, 160.261 638, 159.851 638 C 159.641 638, 157.921 640.362, 156.029 643.250 " stroke="none" fill="black" fill-rule="evenodd"/>
</svg>