<svg xmlns="http://www.w3.org/2000/svg" width="1000" height="1000" viewBox="0 0 1000 1000" version="1.1">
	<path d="M 244.639 131.539 C 233.715 135.031, 224.589 138.078, 224.358 138.308 C 223.411 139.256, 230.871 157.500, 238.136 171.999 C 265.174 225.961, 297.323 252.651, 362.500 275.245 C 375.416 279.722, 400.746 286.674, 401.336 285.903 C 401.845 285.237, 410.134 243.793, 409.805 243.559 C 409.637 243.439, 405.450 242.305, 400.500 241.038 C 380.725 235.977, 357.789 227.426, 340 218.483 C 311.335 204.072, 293.489 185.223, 277.037 151.983 C 273.358 144.548, 269.261 135.436, 267.932 131.733 C 266.604 128.030, 265.289 125.042, 265.009 125.094 C 264.729 125.146, 255.562 128.046, 244.639 131.539 M 663.897 153.504 C 652.163 155.842, 635.184 163.877, 621 173.803 C 607.689 183.119, 581.123 206.209, 576.912 212.124 L 575.001 214.808 590.769 229.258 L 606.538 243.708 616.019 234.684 C 641.543 210.390, 665.540 195.330, 677.339 196.198 C 680.721 196.447, 681.833 197.093, 683.719 199.901 C 687.483 205.503, 688.476 210.651, 688.372 224 C 688.243 240.334, 684.958 256.319, 676.554 281.500 C 666.669 311.118, 651.586 344.900, 635.217 374.089 C 630.771 382.015, 626.991 389.012, 626.817 389.637 C 626.528 390.676, 658.849 417.621, 661.693 418.712 C 662.367 418.971, 666.755 416.866, 671.443 414.034 C 696.787 398.726, 723.142 390.587, 747.500 390.547 C 768.817 390.512, 782.658 395.656, 795.477 408.380 C 803.787 416.628, 806.895 420.977, 813.799 434.023 C 839.063 481.760, 838.946 538.238, 813.479 589 C 797.593 620.664, 778.556 641.974, 736.923 674.696 C 661.433 734.028, 638.223 757.691, 628.878 784.853 C 622.722 802.746, 627.621 821.593, 642.390 836.840 C 673.279 868.729, 730.343 879.415, 813.500 868.883 C 831.439 866.611, 856.144 862.265, 857.178 861.199 C 857.839 860.517, 848.793 820.459, 847.740 819.406 C 847.448 819.115, 843.900 819.554, 839.855 820.383 C 803.922 827.745, 757.112 830.847, 730 827.662 C 703.980 824.605, 685.481 817.956, 674.974 807.882 C 670.113 803.222, 669.798 802.631, 670.351 799.222 C 670.678 797.210, 672.970 792.600, 675.445 788.978 C 686.957 772.129, 709.321 751.989, 766.500 706.976 C 789.397 688.951, 800.784 678.779, 813.354 665.120 C 847.628 627.882, 869.150 582.645, 875.022 535.500 C 876.460 523.949, 876.464 497.092, 875.028 485.500 C 870.007 444.963, 851.021 402.127, 827.650 378.605 C 809.268 360.105, 787.567 350.019, 759.500 346.931 C 744.088 345.235, 719.048 347.907, 702.896 352.969 C 699.378 354.072, 695.974 354.980, 695.332 354.987 C 694.674 354.994, 696.368 350.083, 699.208 343.750 C 718.266 301.250, 729.405 263.921, 731.984 233.911 C 736.684 179.219, 707.544 144.806, 663.897 153.504 M 341.176 420.070 C 323.431 423.561, 309.208 439.526, 298.476 468 C 296.921 472.125, 295.166 476.033, 294.575 476.685 C 291.754 479.795, 251.395 489.751, 230.500 492.490 C 215.069 494.513, 191.661 494.581, 182.305 492.631 C 170.766 490.225, 162.137 484.804, 158.221 477.500 C 155.669 472.742, 156.217 461.983, 159.459 453.162 C 160.943 449.126, 162.009 445.706, 161.828 445.563 C 160.156 444.238, 124.605 424.062, 124.365 424.302 C 124.190 424.477, 122.698 427.596, 121.048 431.233 C 116.070 442.212, 113.884 451.470, 113.286 464.110 C 112.272 485.545, 117.417 499.542, 131.434 513.479 C 142.350 524.334, 153.179 530.467, 168.449 534.445 C 190.835 540.276, 230.375 538.691, 266.081 530.532 C 284.854 526.243, 283.188 526.386, 282.536 529.114 C 280.935 535.814, 276.650 566.512, 274.037 590 C 268.377 640.888, 267.534 655.767, 267.516 705 C 267.499 753.542, 268.157 764.322, 272.645 789 C 277.093 813.459, 280.656 823.333, 290.432 838.289 C 295.405 845.898, 296.468 846.989, 298.339 846.409 C 299.527 846.041, 306.830 843.528, 314.568 840.824 L 328.635 835.910 332.967 825.205 C 347.358 789.646, 376.719 723.433, 394.253 687 C 406.852 660.822, 428.066 623.486, 446.343 595.325 C 448.904 591.379, 451 587.737, 451 587.233 C 451 586.451, 416.746 563, 415.603 563 C 414.034 563, 383.787 612.979, 370.489 637.546 C 358.060 660.509, 330.856 718.202, 315.941 753.233 C 314.598 756.386, 313.208 758.974, 312.851 758.983 C 310.469 759.046, 309.807 688.869, 311.893 657.500 C 314.402 619.769, 318.888 578.013, 323.517 549.312 C 325.684 535.874, 330.665 510.916, 331.274 510.444 C 331.398 510.347, 337.042 507.457, 343.816 504.021 C 363.106 494.236, 375.636 484.044, 381.337 473.500 C 383.168 470.114, 383.497 467.888, 383.480 459 C 383.462 449.729, 383.145 447.824, 380.771 442.719 C 373.408 426.887, 356.293 417.097, 341.176 420.070 " stroke="none" fill="black" fill-rule="evenodd"/>
</svg>