<svg xmlns="http://www.w3.org/2000/svg" width="1000" height="1000" viewBox="0 0 1000 1000" version="1.1">
	<path d="M 348.500 63.891 C 333.431 67.418, 328.533 68.933, 328.634 70.036 C 328.707 70.841, 330.165 79.825, 331.874 90 C 337.297 122.290, 339.989 150.501, 339.996 175.120 L 340 188.740 335.250 189.387 C 324.254 190.884, 295.928 191.251, 284.860 190.040 C 262.771 187.622, 242.775 181.202, 228.918 172.079 L 221.540 167.221 206.270 181.734 C 197.872 189.717, 191 196.607, 191 197.046 C 191 197.485, 192.912 199.483, 195.250 201.487 C 223.236 225.473, 275.471 238.533, 325.500 234.052 C 330.450 233.608, 334.606 233.334, 334.736 233.443 C 335.307 233.918, 327.690 262.206, 324.105 272.928 C 319.951 285.351, 313.726 300.594, 308.845 310.290 C 307.243 313.474, 306.174 316.472, 306.470 316.952 C 307.204 318.139, 281.779 326.210, 264 330.433 C 227.832 339.025, 180.022 346.303, 135 350.070 C 127.025 350.737, 120.206 351.557, 119.847 351.892 C 119.178 352.515, 121.623 393.956, 122.373 394.706 C 123.782 396.115, 190.098 388.555, 221.090 383.451 C 279.690 373.802, 311.657 364.493, 347.456 346.655 C 376.174 332.345, 381.709 329.682, 380.500 330.757 C 379.950 331.246, 374.550 335.872, 368.500 341.035 C 324.684 378.433, 286.146 415.762, 253.943 452 C 217.478 493.033, 182.686 533.905, 144.559 580.500 L 120.829 609.500 127.825 616 C 131.673 619.575, 140.082 627.436, 146.513 633.469 L 158.205 644.438 160.353 641.490 C 177.254 618.287, 205.242 586.605, 235.925 555.944 C 280.342 511.558, 312.576 486.130, 347.500 467.923 C 357.532 462.693, 377.752 454.418, 378.549 455.216 C 378.731 455.398, 372.045 462.750, 363.690 471.555 C 337.684 498.960, 321.024 519.004, 308.651 537.773 C 278.028 584.226, 275.414 620.682, 300.745 648.042 C 317.199 665.814, 337.239 672.927, 362.983 670.135 C 402.403 665.859, 445.513 643.384, 476.203 611.107 C 492.860 593.589, 505.012 573.018, 510.528 553 C 513.787 541.169, 514.957 520.239, 513.028 508.264 C 509.040 483.514, 496.514 459.883, 476.241 438.864 L 468.876 431.228 485.188 416.798 C 509.217 395.540, 534.948 373.567, 566.750 347.145 C 582.288 334.236, 595 323.365, 595 322.987 C 595 322.065, 569.141 290.580, 568.077 290.207 C 566.449 289.636, 488.784 355.078, 448.747 390.756 L 426.995 410.141 421.247 408.939 C 405.374 405.621, 378.244 408.726, 356.510 416.349 C 351.015 418.276, 346.406 419.740, 346.269 419.602 C 345.910 419.243, 377.315 391.136, 398.579 372.785 C 427.966 347.425, 508.166 282.485, 518.276 275.865 C 519.379 275.143, 504.217 230, 502.871 230 C 499.580 230, 428.237 259.959, 389.671 277.537 C 372.888 285.186, 365.052 288.310, 365.490 287.176 C 369.226 277.501, 376.440 249.182, 379.288 233.013 L 380.607 225.526 398.054 220.399 C 418.032 214.528, 431.212 209.963, 449 202.753 C 462.721 197.192, 480 189.357, 480 188.697 C 480 187.876, 462.782 151.485, 461.999 150.651 C 461.561 150.185, 456.995 151.698, 451.851 154.015 C 435.279 161.479, 416.617 168.718, 400.473 173.946 C 391.806 176.752, 384.619 178.925, 384.502 178.774 C 384.385 178.623, 383.763 168.321, 383.121 155.881 C 381.959 133.376, 379.338 107.666, 376.456 90.500 C 372.680 68.014, 370.724 59.005, 369.642 59.105 C 369.014 59.162, 359.500 61.316, 348.500 63.891 M 738.500 96.416 C 724.065 99.744, 704.731 109.092, 684.500 122.523 C 666.755 134.304, 663.186 137.283, 664.611 139.122 C 672.820 149.716, 690.206 171, 690.650 171 C 690.970 171, 693.317 169.480, 695.866 167.622 C 713.190 154.996, 735.196 142.463, 743.938 140.244 L 748.278 139.142 747.716 145.853 C 746.233 163.531, 729.569 202.254, 708.466 237.056 C 705.397 242.118, 703.082 246.763, 703.322 247.380 C 703.766 248.517, 727.662 283.778, 729.063 285.363 C 729.483 285.838, 735.603 283.953, 742.663 281.176 C 756.992 275.539, 767.614 272.295, 783.067 268.835 C 791.623 266.920, 796.379 266.500, 809.500 266.500 C 824.261 266.500, 825.832 266.677, 829.789 268.790 C 834.256 271.175, 837.996 276.061, 837.988 279.500 C 837.982 282.417, 833.353 289.919, 826.500 298.120 C 798.346 331.811, 701.695 395.340, 594.500 450.615 C 581.300 457.421, 569.954 463.346, 569.286 463.782 C 568.086 464.565, 562.426 515.759, 563.429 516.762 C 563.893 517.226, 615.112 515.482, 630.500 514.479 L 638.500 513.957 632.500 519.209 C 598.264 549.178, 571.454 585.412, 539.575 644.799 C 530.194 662.274, 512.639 698.972, 513.329 699.663 C 513.560 699.893, 523.055 704.070, 534.430 708.946 L 555.113 717.812 565.569 702.082 C 580.475 679.657, 595.036 661.692, 611.871 644.957 C 632.560 624.390, 647.352 615, 659.059 615 C 663.495 615, 664.528 615.446, 668.436 619.047 C 680.279 629.964, 689.889 660.916, 691.576 693.583 C 693.467 730.183, 683.388 777.248, 664.825 818.500 C 648.586 854.586, 623.371 889.469, 599.630 908.689 L 595.761 911.821 608.652 928.585 C 615.743 937.804, 621.984 945.495, 622.522 945.674 C 624.309 946.270, 644.534 927.390, 654.459 915.861 C 725.284 833.585, 754.477 708.760, 722.366 625.503 C 709.201 591.369, 689.168 573.092, 662.916 571.265 C 656.174 570.796, 645.176 571.961, 640.260 573.665 C 637.602 574.587, 653.398 558.731, 662.500 551.341 C 678.263 538.543, 695.899 528.017, 712.500 521.498 C 716.350 519.987, 719.804 518.469, 720.175 518.125 C 720.787 517.558, 712.632 468.149, 711.839 467.617 C 711.652 467.492, 704.075 467.710, 695 468.102 C 685.925 468.494, 672.425 469.075, 665 469.392 L 651.500 469.969 662.500 463.844 C 722.127 430.645, 772.634 398.955, 806.666 373.390 C 828.621 356.897, 839.168 347.744, 853.631 332.628 C 873.141 312.238, 881.332 296.687, 881.351 280 C 881.383 252.079, 861.925 230.166, 831.500 223.860 C 818.052 221.073, 795.449 221.732, 777.063 225.447 C 770.223 226.829, 764.458 227.791, 764.251 227.585 C 764.045 227.379, 766.098 222.775, 768.813 217.355 C 776.103 202.802, 784.489 181.126, 788.101 167.500 C 790.844 157.152, 791.297 153.710, 791.391 142.500 C 791.475 132.487, 791.077 128.116, 789.661 123.478 C 786.065 111.706, 776.466 101.137, 766 97.425 C 759.786 95.222, 745.891 94.712, 738.500 96.416 M 412.698 484.237 C 387.874 508.927, 375.333 522.520, 361.412 539.824 C 339.924 566.535, 326.936 591.135, 327.022 604.960 C 327.071 612.885, 335.648 623.698, 343.645 625.919 C 362.463 631.144, 402.169 616.885, 429.500 595.088 C 442.852 584.439, 456.194 568.744, 462.303 556.500 C 471.729 537.607, 473.005 521.354, 466.525 502.694 C 462.248 490.379, 450.219 472.768, 440.596 464.737 L 436.088 460.974 412.698 484.237 " stroke="none" fill="black" fill-rule="evenodd"/>
</svg>