<svg xmlns="http://www.w3.org/2000/svg" width="1000" height="1000" viewBox="0 0 1000 1000" version="1.1">
	<path d="M 126 113.998 C 116.375 120.004, 108.073 125.080, 107.552 125.276 C 107.030 125.472, 109.066 129.047, 112.076 133.221 C 137.842 168.949, 173.840 195.309, 208.724 203.991 C 222.177 207.339, 247.278 210.111, 270.598 210.824 L 292.696 211.500 285.804 223 C 238.859 301.336, 206.719 393.216, 193.590 486.618 C 190.934 505.509, 187.755 538.512, 185.943 566 C 184.179 592.752, 183.580 691.025, 184.953 728.417 C 186.289 764.816, 187.384 784.717, 188.088 785.421 C 188.598 785.931, 230.261 783.073, 230.846 782.488 C 231.049 782.285, 230.703 772.304, 230.077 760.309 C 225.282 668.396, 227.446 566.941, 235.575 502.500 C 246.529 415.666, 275.605 328.255, 318.198 254.105 C 327.315 238.235, 341.875 216.349, 350.923 204.913 C 358.796 194.964, 358.922 194.717, 357.229 192.564 C 356.278 191.356, 349.650 184.176, 342.500 176.607 C 329.763 163.125, 329.429 162.858, 326 163.444 C 301.137 167.689, 272.850 168.414, 245.500 165.506 C 219.384 162.729, 208.470 159.567, 192.684 150.202 C 177.422 141.149, 157.841 122.719, 147.875 108.028 C 146.019 105.291, 144.275 103.057, 144 103.064 C 143.725 103.071, 135.625 107.991, 126 113.998 M 508.489 122.978 C 499.730 130.584, 492.420 137.239, 492.245 137.765 C 491.825 139.024, 506.154 152.459, 516.399 160.414 C 541.164 179.642, 571.296 196.550, 603.549 209.315 C 650.930 228.069, 733.316 245.682, 801.095 251.549 L 808.690 252.206 809.362 238.853 C 809.731 231.509, 810.315 221.563, 810.660 216.750 L 811.287 208 807.378 208 C 801.603 208, 763.787 203.360, 746.277 200.503 C 704.843 193.743, 658.867 182.768, 632 173.225 C 591.995 159.015, 554.532 137.560, 531.058 115.415 L 524.414 109.149 508.489 122.978 M 616 375.658 C 560.744 380.879, 507.686 400.114, 458.979 432.583 C 407.204 467.096, 373.291 510.788, 361.388 558.311 C 358.234 570.902, 357.051 593.820, 358.948 605.580 C 365.567 646.608, 397.182 674.095, 444.621 680.066 C 456.660 681.582, 491.296 680.735, 505.804 678.571 C 592.840 665.587, 652.072 616.723, 668.927 544 C 677.968 504.992, 676.624 464.767, 665.123 430.166 L 661.356 418.833 668.428 419.498 C 711.277 423.530, 752.063 436.896, 781.965 456.705 C 796.783 466.522, 815.796 485.227, 824.908 498.953 C 845.594 530.112, 855.112 565, 853.704 604.500 C 851.911 654.785, 833.313 703.042, 799.364 745.500 C 761.135 793.310, 701.477 840.943, 631.500 879.529 C 622.700 884.381, 615.330 888.479, 615.123 888.636 C 614.916 888.792, 619.067 897.743, 624.349 908.526 L 633.951 928.132 642.725 923.399 C 741.432 870.168, 819.405 802.761, 858.568 736.808 C 877.795 704.428, 890.333 668.528, 895.697 630.500 C 898.066 613.705, 898.040 580.509, 895.647 565 C 891.959 541.108, 886.037 521.382, 876.585 501.500 C 844.562 434.141, 781.421 392.410, 689.500 377.851 C 679.121 376.208, 670.855 375.736, 648.500 375.512 C 633.100 375.358, 618.475 375.424, 616 375.658 M 601.197 421.631 C 587.625 423.725, 563.416 430.067, 548.500 435.436 C 533.320 440.900, 506.900 453.849, 492.164 463.048 C 447.582 490.879, 418.757 523.610, 406.495 560.329 C 393.691 598.671, 404.851 625.377, 437.500 634.521 C 445.554 636.777, 477.930 637.679, 492.155 636.044 C 558.077 628.469, 605.009 596.894, 622.278 548.500 C 630.902 524.334, 633.426 484.999, 627.990 459.500 C 624.475 443.011, 614.899 419.839, 611.708 420.098 C 611.044 420.152, 606.314 420.842, 601.197 421.631 " stroke="none" fill="black" fill-rule="evenodd"/>
</svg>