<svg xmlns="http://www.w3.org/2000/svg" width="1000" height="1000" viewBox="0 0 1000 1000" version="1.1">
	<path d="M 260.260 109.836 C 250.229 115.701, 242.016 120.777, 242.010 121.117 C 241.992 122.227, 255.122 141.341, 260.821 148.500 C 276.009 167.576, 291.816 182.405, 305.636 190.542 C 321.578 199.928, 346.677 209.131, 368.126 213.455 C 382.266 216.305, 385.980 216.574, 386.043 214.750 C 386.067 214.063, 386.914 204.500, 387.925 193.500 C 388.936 182.500, 389.672 173.393, 389.561 173.263 C 389.450 173.133, 385.566 172.316, 380.930 171.447 C 359.660 167.463, 337.177 159.230, 325 150.966 C 312.602 142.552, 296.731 125.205, 284.653 106.869 C 281.819 102.566, 279.275 99.074, 279 99.109 C 278.725 99.144, 270.292 103.971, 260.260 109.836 M 747.554 116.237 C 747.284 117.481, 746.565 122.100, 745.955 126.500 C 744.268 138.679, 738.348 167.624, 733.887 185.500 C 722.338 231.786, 708.644 270.375, 690.949 306.500 C 680.078 328.691, 676.412 335, 674.388 335 C 673.524 335, 665.499 336.794, 656.555 338.987 C 570.608 360.055, 494.666 394.098, 431.500 439.871 C 407.440 457.305, 376.256 483.638, 347.523 510.784 C 338.735 519.086, 331.394 525.727, 331.209 525.542 C 329.705 524.038, 345.586 398.213, 353.364 350.007 L 354.734 341.514 346.714 326.507 C 342.303 318.253, 338.610 311.385, 338.508 311.244 C 338.405 311.103, 331.601 313.639, 323.387 316.880 C 294.704 328.196, 255.596 339.612, 236.829 342.147 C 219.453 344.493, 179.596 342.171, 146.665 336.894 C 139.606 335.762, 133.626 335.041, 133.377 335.290 C 132.780 335.887, 124.879 377.212, 125.284 377.618 C 125.800 378.133, 149.613 381.794, 163 383.416 C 196.324 387.454, 230.671 387.912, 249.246 384.566 C 259.458 382.727, 284.862 376.283, 296.844 372.493 C 301.433 371.042, 305.370 370.037, 305.594 370.260 C 305.817 370.484, 304.671 379.854, 303.046 391.083 C 294.059 453.207, 284.067 546.597, 283.975 569.329 L 283.950 575.500 271.375 589.500 C 264.458 597.200, 254.053 609.022, 248.253 615.770 C 242.453 622.519, 237.562 627.895, 237.385 627.718 C 237.208 627.541, 237.942 624.495, 239.016 620.948 C 243.640 605.681, 244.473 599.222, 244.486 578.500 C 244.495 565.423, 244.020 556.077, 243.113 551.500 C 239.465 533.092, 231.703 512.751, 222.507 497.500 C 216.636 487.764, 205.447 472.714, 200.676 468.136 L 197.170 464.772 187.791 474.636 C 172.409 490.813, 168 495.656, 168 496.377 C 168 496.753, 170.374 499.859, 173.275 503.280 C 193.323 526.921, 204.099 559.841, 201.002 587.984 C 199.624 600.500, 197.392 609.078, 190.375 628.806 C 174.970 672.122, 152.673 720.168, 130.479 757.871 C 125.179 766.875, 121.215 774.592, 121.671 775.020 C 122.504 775.802, 164.551 791, 165.882 791 C 166.273 791, 170.157 785.938, 174.513 779.750 C 196.024 749.198, 237.006 696.646, 267.500 660.511 L 282.500 642.736 282.705 659.118 C 283.057 687.302, 284.980 775.701, 285.628 793.500 L 286.247 810.500 277.978 799 C 270.482 788.574, 252.252 765.541, 243.588 755.549 L 240.163 751.598 224.581 766.407 C 216.012 774.552, 209.008 781.505, 209.019 781.858 C 209.029 782.211, 212.673 786.775, 217.117 792 C 238.783 817.475, 258.639 846.833, 273.750 875.736 C 277.268 882.466, 280.494 888.187, 280.919 888.450 C 282.494 889.424, 331.357 880.430, 331.806 879.083 C 332.047 878.359, 331.731 863.306, 331.102 845.633 C 327.873 754.803, 325.520 626.946, 326.674 605.013 L 327.330 592.525 355.415 564.459 C 435.565 484.363, 495.892 442.263, 576.064 410.478 C 599.407 401.223, 641.447 387.114, 642.510 388.177 C 642.921 388.587, 630.885 406.317, 616.310 426.768 C 588.796 465.380, 546.854 518.875, 514.654 556.426 C 510.444 561.336, 507.024 565.611, 507.054 565.926 C 507.101 566.433, 536.021 590.130, 539.333 592.377 C 540.227 592.983, 545.229 589.778, 555.563 581.974 C 570.992 570.323, 602.976 548.813, 620.500 538.303 C 717.008 480.422, 787.103 465.127, 810.402 496.866 C 815.206 503.411, 815.808 506.836, 813.077 512.077 C 809.619 518.711, 805.130 523.726, 795.258 531.983 C 779.991 544.752, 765.990 553.677, 718 581.233 C 677.845 604.290, 661.922 614.977, 649.894 626.943 C 637.363 639.411, 633.789 646.250, 633.206 658.873 C 632.684 670.188, 635.034 676.764, 642.465 684.785 C 650.332 693.275, 657.622 697.044, 680.589 704.493 C 691.739 708.109, 701.855 711.871, 703.068 712.854 C 705.059 714.466, 705.161 714.982, 704.114 718.154 C 701.042 727.461, 693.233 734.279, 661 755.790 C 636.553 772.104, 627.526 779.289, 619.878 788.515 C 604.868 806.625, 601.904 828.516, 611.688 849 C 613.373 852.528, 617.216 857.383, 622.408 862.542 C 629.178 869.271, 632.215 871.427, 641 875.745 C 662.405 886.266, 688.196 892.032, 727.500 895.083 C 745.636 896.491, 793.175 896.777, 816.387 895.618 L 833.274 894.775 832.690 887.637 C 832.369 883.712, 831.558 873.803, 830.889 865.617 L 829.672 850.734 822.086 851.377 C 792.541 853.878, 739.168 852.947, 710.782 849.433 C 683.501 846.057, 662.803 839.887, 653.251 832.283 C 649.582 829.363, 648.829 824.853, 651.206 820.048 C 654.296 813.804, 662.222 807.419, 689.309 789.357 C 733.435 759.934, 746.346 744.026, 747.726 717.381 C 748.176 708.708, 747.935 706.315, 746.043 700.630 C 740.058 682.645, 725.848 672.303, 694.235 662.922 C 680.177 658.751, 679.997 658.661, 681.735 656.697 C 687.190 650.537, 706.893 637.907, 744.500 616.462 C 795.491 587.385, 815.397 573.931, 832.869 556.736 C 858.468 531.544, 864.921 507.182, 852.531 482.500 C 841.722 460.968, 821.948 445.675, 796.871 439.452 C 788.004 437.252, 764.449 436.452, 752.340 437.939 C 722.902 441.555, 689.024 452.993, 649.003 472.828 C 639.379 477.598, 631.137 481.660, 630.688 481.855 C 630.238 482.050, 634.316 476.200, 639.750 468.855 C 659.502 442.157, 685.898 403.408, 700.032 380.363 L 704.409 373.226 711.455 372.040 C 764.759 363.069, 823.422 358.781, 865 360.815 C 876.275 361.366, 885.670 361.652, 885.877 361.448 C 886.084 361.245, 887.237 351.565, 888.438 339.936 C 890.401 320.926, 890.464 318.727, 889.061 318.146 C 888.202 317.791, 867.025 317.503, 842 317.507 C 795.034 317.513, 779.696 318.355, 744.852 322.840 L 731.203 324.597 733.721 319.048 C 755.072 271.999, 770.110 226.435, 781.440 174.467 C 784.928 158.468, 791 124.582, 791 121.118 C 791 119.486, 788.930 119.053, 771.750 117.091 C 761.163 115.882, 751.498 114.686, 750.272 114.433 C 748.577 114.083, 747.928 114.514, 747.554 116.237 M 491.200 154.250 C 481.639 176.262, 476.706 197.393, 476.667 216.500 C 476.637 231.743, 478.112 238.639, 483.942 250.500 C 495.264 273.534, 520.600 291.717, 551.647 299.091 C 556.356 300.210, 560.397 300.937, 560.626 300.707 C 561.114 300.220, 565.990 262.574, 565.996 259.250 C 565.999 257.737, 565.402 257, 564.175 257 C 561.189 257, 548.469 252.364, 541.755 248.829 C 534.490 245.003, 525.274 236.250, 522.459 230.500 C 520.842 227.198, 520.523 224.580, 520.634 215.500 C 520.790 202.691, 523.456 191.069, 529.954 174.873 C 532.199 169.279, 533.915 164.616, 533.768 164.512 C 532.791 163.819, 496.062 145, 495.687 145 C 495.429 145, 493.410 149.162, 491.200 154.250 " stroke="none" fill="black" fill-rule="evenodd"/>
</svg>