<svg xmlns="http://www.w3.org/2000/svg" width="1000" height="1000" viewBox="0 0 1000 1000" version="1.1">
	<path d="M 529 96.096 C 442.847 102.170, 338.404 123.826, 228.500 158.405 C 199.465 167.540, 194.407 169.458, 194.795 171.186 C 195.163 172.830, 208.088 209.253, 208.632 210.179 C 208.851 210.552, 213.636 209.297, 219.265 207.390 C 301.643 179.477, 403.299 155.175, 480 145.059 C 532.069 138.191, 587.318 136.818, 623.281 141.496 C 659.784 146.245, 692.495 157.339, 716.500 173.113 C 727.794 180.533, 745.209 198.321, 751.380 208.738 C 765.916 233.277, 768.399 263.051, 758.282 291.500 C 742.363 336.261, 694.766 380.814, 645 397.539 L 635.500 400.732 634.863 378.616 C 633.819 342.400, 632.073 332.393, 623.775 315.057 C 619.418 305.956, 617.665 303.507, 610.138 296.006 C 602.962 288.856, 599.892 286.613, 592 282.753 C 579.038 276.414, 572.876 274.927, 557 274.303 C 546.757 273.900, 541.328 274.177, 534.500 275.451 C 482.553 285.140, 447.370 323.191, 455.401 361 C 457.266 369.783, 463.284 382.845, 469.419 391.428 C 475.737 400.269, 490.513 414.058, 501.201 421.090 C 523.812 435.964, 546.724 444.234, 575 447.725 C 582.425 448.642, 588.632 449.474, 588.794 449.574 C 589.110 449.768, 586.069 487.264, 585.708 487.625 C 585.589 487.744, 581.893 486.912, 577.496 485.775 C 570.839 484.054, 566.319 483.697, 550.500 483.645 C 529.929 483.577, 521.142 484.886, 504.317 490.526 C 471.725 501.451, 444.514 523.946, 432.896 549.568 C 425.592 565.677, 423.898 586.457, 428.431 604.328 C 433.076 622.637, 445.120 643.632, 459.757 658.932 L 467.544 667.072 444.522 678.876 C 386.807 708.469, 355.545 729.201, 332.397 753.234 C 311.240 775.200, 301.860 795.512, 301.792 819.506 C 301.742 837.358, 306.743 848.855, 319.994 861.355 C 332.056 872.735, 348.285 880.635, 371.721 886.538 C 396.810 892.857, 421.134 895.681, 461 896.905 C 533.700 899.136, 631.540 891.946, 739.500 876.440 C 771.104 871.901, 770.154 872.100, 769.603 870.133 C 769.351 869.235, 767.711 859.725, 765.959 849 C 764.206 838.275, 762.662 829.375, 762.526 829.223 C 762.391 829.071, 748.154 830.966, 730.890 833.435 C 577.519 855.367, 448.511 859.692, 385.561 845.014 C 365.590 840.358, 349.886 832.494, 346.560 825.484 C 341.680 815.202, 349.470 797.600, 366.297 780.887 C 386.435 760.883, 417.121 741.738, 479.089 710.514 L 513.678 693.086 520.089 695.041 C 540.834 701.369, 568.710 703.530, 591.472 700.574 C 598.607 699.647, 604.507 698.802, 604.583 698.695 C 604.660 698.588, 605.243 692.875, 605.879 686 C 606.514 679.125, 608.209 665.287, 609.646 655.249 L 612.257 636.998 624.469 624.749 C 635.208 613.979, 637.235 611.391, 641.256 603.318 C 643.772 598.268, 646.376 591.518, 647.044 588.318 C 648.681 580.475, 647.665 561.816, 645.013 551.044 C 642.600 541.239, 635.875 526.521, 630.789 519.910 L 627.257 515.319 628.560 501.910 C 629.277 494.534, 630.605 479.052, 631.511 467.504 C 632.417 455.956, 633.258 446.409, 633.378 446.288 C 633.499 446.168, 638.976 444.684, 645.549 442.991 C 713.696 425.442, 779.244 366.607, 799.913 304.434 C 806.472 284.704, 807.500 278.142, 807.500 256 C 807.500 240.455, 807.120 234.878, 805.627 228.500 C 796.486 189.456, 774.188 158.666, 737.911 134.994 C 705.189 113.640, 660.516 100.179, 608.605 96.031 C 593.857 94.852, 546.092 94.891, 529 96.096 M 545.318 318.146 C 525.467 320.321, 502.461 334.055, 498.931 345.837 C 494.054 362.114, 521.838 388.294, 555.241 398.895 C 565.965 402.299, 579.855 405, 586.631 405 L 591 405 590.999 386.250 C 590.998 363.599, 589.670 348.380, 586.917 339.465 C 585.290 334.198, 583.786 331.718, 579.681 327.535 C 571.564 319.262, 561.135 316.413, 545.318 318.146 M 531.105 528.487 C 490.402 537.695, 465.248 563.019, 469.963 590.040 C 471.427 598.430, 479.412 614.550, 486.277 622.974 C 492.036 630.042, 502.466 639.232, 508.662 642.699 L 512.592 644.899 529.546 635.889 C 538.871 630.933, 552.162 623.502, 559.081 619.374 L 571.663 611.869 574.798 587.684 C 579.457 551.752, 581.389 534.056, 580.726 533.392 C 580.400 533.067, 577.066 531.656, 573.317 530.257 C 567.407 528.051, 564.571 527.668, 552 527.377 C 541.863 527.141, 535.576 527.475, 531.105 528.487 " stroke="none" fill="black" fill-rule="evenodd"/>
</svg>