<svg xmlns="http://www.w3.org/2000/svg" width="1000" height="1000" viewBox="0 0 1000 1000" version="1.1">
	<path d="M 818 146.560 C 801.089 151.441, 733.837 167.982, 705 174.352 C 622.535 192.568, 555.463 203.446, 497.500 208.004 C 424.003 213.784, 283.691 208.812, 171.500 196.452 C 164.350 195.664, 157.560 195.015, 156.411 195.010 C 154.438 195.001, 154.181 196.174, 151.764 216.250 C 150.356 227.938, 149.334 237.637, 149.491 237.805 C 150.166 238.525, 198.899 243.331, 237 246.435 C 258.976 248.225, 292.581 250.426, 325 252.198 C 356.694 253.930, 473.898 253.952, 495 252.229 C 571.402 245.993, 656.093 231.523, 755.591 207.704 L 769.682 204.331 748.842 224.797 C 679.954 292.448, 638.373 346.796, 627.419 383.500 C 623.682 396.020, 623.577 410.511, 627.153 420.053 C 630.521 429.041, 638.032 439.903, 647.120 448.931 C 660.099 461.823, 671.726 469.364, 707.366 488.010 C 747.622 509.070, 762.506 523.198, 769.907 547.374 C 776.647 569.390, 776.649 616.418, 769.910 647.500 C 754.713 717.594, 716.898 760.118, 659.036 772.181 C 644.893 775.130, 610.014 775.830, 591.910 773.528 C 527.604 765.354, 468.148 729.136, 423.496 670.939 C 419.934 666.297, 417.016 662.015, 417.010 661.422 C 417.005 660.830, 418.818 656.154, 421.039 651.032 C 426.811 637.724, 431.738 620.737, 434.680 604 C 436.810 591.879, 437.312 585.299, 437.739 563.892 C 438.430 529.249, 435.803 502.025, 428.342 466.507 C 421.332 433.134, 403.922 376, 400.762 376 C 399.830 376, 377.061 385.028, 365.915 389.817 L 361.330 391.787 368.221 412.447 C 385.614 464.601, 394.219 511.797, 394.304 555.500 C 394.375 592.757, 389.329 617.524, 376.460 643.079 C 360.408 674.954, 328.948 718.167, 292.147 758.891 C 269.914 783.492, 228.211 823.819, 201.312 846.728 L 194.123 852.850 207.806 869.838 L 221.489 886.825 226.994 882.192 C 288.430 830.488, 354.027 759.817, 387.435 709.339 L 392.175 702.179 397.774 708.839 C 440.148 759.244, 491.956 793.798, 548.500 809.371 C 587.239 820.040, 632.660 822.130, 668.458 814.891 C 705.834 807.333, 739.181 788.155, 763.688 760.123 C 791.726 728.052, 809.915 683.806, 817.181 630 C 818.931 617.044, 818.908 572.365, 817.146 560 C 812.456 527.095, 801.133 503.665, 780.411 483.988 C 766.947 471.203, 757.771 465.252, 723 446.756 C 710.625 440.173, 696.675 432.298, 692 429.256 C 682.704 423.206, 672.617 413.549, 669.538 407.751 C 667.770 404.423, 667.695 403.486, 668.779 398.320 C 671.292 386.337, 684.599 363.365, 702.037 340.906 C 732.253 301.991, 788.126 244.927, 842.822 197.123 C 851.170 189.827, 858 183.625, 858 183.341 C 858 181.721, 829.509 144.466, 828.145 144.303 C 827.240 144.195, 822.675 145.210, 818 146.560 " stroke="none" fill="black" fill-rule="evenodd"/>
</svg>