<svg xmlns="http://www.w3.org/2000/svg" width="1000" height="1000" viewBox="0 0 1000 1000" version="1.1">
	<path d="M 311.674 84.750 C 307.915 171.555, 305.820 213.578, 305.220 214.168 C 303.962 215.406, 287.868 219.714, 277.500 221.588 C 269.949 222.954, 262.358 223.400, 246.500 223.409 C 223.927 223.423, 211.501 222.060, 192.100 217.442 C 186.380 216.080, 181.594 215.086, 181.464 215.233 C 180.421 216.413, 168.404 256.132, 168.982 256.489 C 170.830 257.631, 190.630 262.119, 201.911 263.953 C 234.484 269.248, 271.529 268.605, 296.786 262.306 C 300.243 261.444, 303.315 260.982, 303.612 261.279 C 303.910 261.576, 303.455 280.648, 302.602 303.660 C 301.749 326.672, 300.575 362.150, 299.992 382.500 C 299.410 402.850, 298.836 422.582, 298.716 426.348 L 298.500 433.196 290 436.622 C 263.308 447.383, 226.917 458.941, 206.858 463.029 C 195.624 465.318, 181.142 465.790, 176.500 464.018 C 171.775 462.214, 168.080 458.008, 166.476 452.609 C 163.585 442.873, 165.102 418.590, 169.539 403.580 C 170.339 400.874, 170.853 398.520, 170.681 398.348 C 170.510 398.176, 161.269 394.893, 150.147 391.051 L 129.925 384.066 128.872 386.783 C 127.017 391.570, 123.176 409.752, 121.931 419.640 C 120.259 432.922, 121.231 453.324, 123.995 462.984 C 129.057 480.673, 140.805 495.556, 155 502.263 C 179.738 513.950, 209.161 510.968, 268.500 490.761 C 282.800 485.891, 295.175 481.680, 296 481.403 C 297.323 480.959, 297.492 487.883, 297.434 539.933 L 297.369 598.967 276.934 617.168 C 249.941 641.210, 218.661 669.691, 191.023 695.389 C 178.661 706.884, 162.553 721.431, 155.228 727.715 C 145.725 735.867, 142.048 739.622, 142.394 740.820 C 142.660 741.744, 143.188 745.650, 143.567 749.500 C 144.989 763.923, 153.519 787.466, 166.585 813.030 C 179.191 837.691, 190.849 853.709, 209.218 871.605 C 218.903 881.042, 235.268 894.015, 239.567 895.664 C 241.476 896.397, 280.045 863.802, 308.618 837.308 C 314.732 831.639, 320.020 827, 320.368 827 C 320.715 827, 321 827.825, 321 828.833 C 321 831.984, 329.011 860.132, 332.142 867.984 C 339.115 885.467, 355.225 904.044, 376.667 919.328 C 383.359 924.098, 389.268 928, 389.799 928 C 391.091 928, 407.378 903.050, 414.397 890.318 C 432.953 856.657, 446.715 816.047, 450.936 782.500 C 453.558 761.655, 454.243 739.123, 453.702 691.514 C 453.244 651.281, 451.064 600.491, 449.751 599.474 C 449.613 599.367, 440.275 597.851, 429 596.104 C 417.725 594.357, 407.763 592.775, 406.862 592.587 C 405.583 592.321, 403.854 595.784, 398.980 608.373 C 385.428 643.373, 370.270 678.369, 357.378 704.419 L 349.500 720.337 348.350 705.919 C 347.718 697.988, 346.204 674.858, 344.986 654.518 L 342.772 617.536 346.636 614.154 C 348.761 612.294, 362.650 600.595, 377.500 588.157 C 429.018 545.005, 469.242 508.698, 521.180 458.467 L 537.860 442.336 522.508 427.008 L 507.157 411.681 497.718 420.591 C 492.526 425.491, 479.316 438.050, 468.361 448.500 C 431.668 483.503, 393.394 517.835, 358 547.493 L 341.500 561.319 341.198 519.410 C 341.031 496.359, 341.186 474.193, 341.542 470.152 L 342.189 462.804 346.345 461.011 C 400.573 437.617, 416.804 430.035, 513.844 382.773 L 530.188 374.813 529.620 371.657 C 529.309 369.921, 527.659 358.825, 525.955 347 C 523.428 329.464, 522.327 324.394, 519.987 319.500 C 516.584 312.384, 504.921 294.760, 494.563 281.084 L 487.143 271.285 491.859 261.882 C 497.285 251.062, 499.292 243.411, 499.303 233.500 C 499.318 220.518, 493.911 207.733, 483.593 196.354 C 476.408 188.429, 468.699 183.369, 458.044 179.585 C 450.040 176.742, 448.583 176.549, 435 176.533 C 415.063 176.511, 397.956 180.525, 365.024 192.954 C 357.670 195.729, 351.506 198, 351.326 198 C 350.578 198, 351.137 180.495, 353.558 128.142 C 354.965 97.695, 355.839 72.505, 355.499 72.166 C 354.804 71.471, 333.972 70.219, 320.906 70.087 L 312.312 70 311.674 84.750 M 730.262 150.922 C 719.131 152.968, 709.733 154.934, 709.377 155.289 C 709.021 155.645, 709.259 160.058, 709.905 165.095 C 713.241 191.106, 713.071 229.225, 709.514 252.908 C 706.242 274.692, 703.575 284.498, 686.504 337.500 C 673.314 378.451, 666.432 401.444, 660.614 424 C 644.661 485.846, 645.351 519.880, 662.922 537.920 C 667.533 542.654, 674.338 546.786, 680.500 548.594 C 682.150 549.078, 697.675 549.480, 715 549.487 C 749.651 549.501, 751.070 549.720, 753.991 555.509 C 756.762 561.001, 755.879 583.704, 752.202 601.500 C 744.737 637.630, 732.860 669.108, 717.049 694.671 L 711.995 702.841 703.747 699.516 C 664.442 683.668, 624.533 680.556, 583 690.099 C 528.916 702.525, 496 734.458, 496 774.500 C 496 802.190, 511.634 825.923, 538.500 839.017 C 568.722 853.746, 600.838 851.632, 639.247 832.387 C 663.895 820.036, 694.776 794.824, 716.947 768.948 C 720.457 764.851, 723.705 761.350, 724.164 761.167 C 725.990 760.438, 743.354 775.215, 758.552 790.430 C 790.617 822.532, 815.858 858.710, 839.674 906.703 L 850.196 927.905 854.348 926.254 C 888.494 912.675, 889.507 912.201, 889.234 909.912 C 889.087 908.685, 884.743 899.090, 879.580 888.590 C 844.893 818.046, 799.666 761.017, 750.168 725.408 C 749.985 725.276, 752.305 720.968, 755.323 715.834 C 776.288 680.175, 789.342 643.777, 797.100 599.341 C 800.186 581.671, 800.212 558.976, 797.161 547.686 C 791.396 526.356, 777.652 512.720, 756.435 507.279 C 750.530 505.764, 745.414 505.521, 722 505.643 C 702.335 505.745, 694.291 505.460, 693.765 504.643 C 692.548 502.749, 692.943 486.158, 694.460 475.500 C 698.405 447.773, 706.638 417.752, 731.481 340.500 C 746.372 294.192, 750.190 279.211, 753.625 253.590 C 755.686 238.218, 756.527 194.889, 755.102 177.500 C 753.723 160.661, 751.919 146.963, 751.098 147.100 C 750.769 147.156, 741.393 148.875, 730.262 150.922 M 414.500 222.968 C 391.411 229.008, 350.160 244.424, 348.955 247.464 C 347.958 249.977, 342.439 406.676, 343.155 412.117 L 343.500 414.735 369.500 403.039 C 400.315 389.178, 420.256 379.802, 455.799 362.464 L 482.098 349.636 481.446 344.068 C 480.979 340.088, 479.652 336.646, 476.794 332 C 471.457 323.325, 457.682 304.059, 456.792 304.026 C 456.403 304.012, 452.128 307.183, 447.292 311.073 C 437.551 318.910, 418.095 332.285, 402 342.210 C 391.178 348.883, 367.737 362, 366.633 362 C 366.290 362, 361.680 353.349, 356.388 342.775 C 348.877 327.769, 347.065 323.372, 348.133 322.736 C 348.885 322.289, 356.025 318.203, 364 313.657 C 412.380 286.078, 443.591 260.764, 453.148 241.352 C 455.295 236.990, 456.044 234.309, 455.604 232.557 C 454.715 229.018, 449.141 222.957, 445.298 221.351 C 439.799 219.053, 426.871 219.732, 414.500 222.968 M 289.318 664.625 C 260.793 690.520, 232.094 716.802, 218.482 729.496 C 210.221 737.198, 200.345 746.334, 196.534 749.798 L 189.606 756.096 192.053 763.292 C 195.584 773.675, 211.954 806.186, 218.182 815.183 C 224.218 823.903, 237.794 840, 239.113 840 C 240.897 840, 292.224 793.634, 305.756 779.799 L 311.011 774.426 309.034 756.463 C 306.700 735.262, 304.526 709.039, 302.539 678.134 C 301.749 665.833, 300.885 655.551, 300.619 655.286 C 300.354 655.021, 295.269 659.223, 289.318 664.625 M 397.368 721.902 C 383.323 750.351, 373.292 767.813, 363.866 780.223 C 360.503 784.651, 358 788.966, 358 790.336 C 358 793.444, 362.139 813.721, 365.491 827.038 C 369.860 844.390, 372.860 853.242, 376.137 858.449 L 379.252 863.399 381.283 859.449 C 384.954 852.310, 392.881 833.257, 396.539 822.784 C 401.671 808.085, 405.814 790.449, 407.528 776 C 409.286 761.179, 411.258 718.501, 410.814 704.902 L 410.500 695.304 397.368 721.902 M 614 729.038 C 577.241 733.548, 550.117 746.513, 541.999 763.453 C 535.381 777.262, 542.377 792.829, 558.662 800.533 C 581.480 811.328, 615.173 801.205, 650.500 772.941 C 660.879 764.637, 685.414 740.003, 684.334 738.971 C 682.945 737.643, 664.051 732.190, 655.128 730.542 C 644.579 728.593, 623.813 727.834, 614 729.038 " stroke="none" fill="black" fill-rule="evenodd"/>
</svg>