<svg xmlns="http://www.w3.org/2000/svg" width="1000" height="1000" viewBox="0 0 1000 1000" version="1.1">
	<path d="M 490.043 121.685 C 486.549 132.583, 483.515 141.987, 483.302 142.582 C 482.670 144.348, 520.930 154.414, 549 159.867 C 565.701 163.111, 579.111 165.175, 596.500 167.179 C 610.680 168.813, 652.901 168.819, 669 167.189 C 688.200 165.245, 718.286 161.266, 730.456 159.062 C 736.481 157.971, 741.486 157.173, 741.578 157.289 C 741.670 157.405, 689.191 213.505, 624.958 281.957 L 508.170 406.413 510.335 408.979 C 511.526 410.390, 518.711 418.602, 526.302 427.227 L 540.103 442.909 545.802 439.293 C 548.936 437.303, 553.975 434.018, 557 431.992 C 572.347 421.714, 609.637 402.323, 632.522 392.720 C 693.082 367.308, 742.058 361.471, 772.563 376.030 C 781.442 380.268, 793.855 389.831, 798.805 396.248 C 807.669 407.737, 810.910 419.576, 809.038 433.637 C 804.214 469.892, 769.497 516.224, 710 565.811 C 691.062 581.595, 667.883 598.691, 620 632.193 C 555.433 677.368, 539.995 688.717, 517 707.914 C 483.761 735.663, 466.359 755.065, 456.381 775.500 C 447.631 793.420, 446.840 808.622, 453.885 823.496 C 464.717 846.362, 492.523 860.495, 541.328 867.937 C 582.910 874.278, 622.335 876.422, 683.889 875.691 C 748.793 874.920, 800.577 871.082, 863.750 862.363 C 878.676 860.303, 883 859.381, 883 858.257 C 883 856.742, 877.358 822.141, 876.483 818.285 C 876.206 817.067, 875.422 816.272, 874.740 816.518 C 868.842 818.647, 792.288 826.963, 755.500 829.470 C 646.765 836.882, 540.386 830.103, 505.257 813.524 C 492.380 807.446, 490.746 803.995, 495.918 793.798 C 501.876 782.051, 514.913 767.417, 534.870 750.075 C 559.566 728.615, 583.094 711.147, 653.500 662.001 C 691.758 635.295, 707.476 623.877, 723.500 611.152 C 790.389 558.033, 832.831 506.726, 847.293 461.500 C 852.167 446.259, 853.359 437.605, 852.763 421.785 C 852.336 410.459, 851.803 407.099, 849.149 399 C 844.200 383.898, 838.146 374.195, 826 361.901 C 810.846 346.562, 794.735 336.442, 776.171 330.603 C 738.763 318.835, 692.377 323.531, 634.162 344.979 C 627.926 347.277, 622.702 349.009, 622.554 348.828 C 622.406 348.648, 667.451 300.376, 722.653 241.558 L 823.021 134.617 819.761 131.218 C 817.967 129.349, 810.319 121.965, 802.765 114.810 L 789.030 101.799 772.265 105.875 C 751.440 110.937, 724.067 116.098, 700.500 119.406 C 642.617 127.530, 605.512 126.674, 553 116.004 C 537.640 112.883, 510.220 106.079, 497.949 102.343 C 496.715 101.967, 495.094 105.934, 490.043 121.685 M 292.500 136.994 C 273.743 143.279, 272.508 143.845, 272.621 146.098 C 272.687 147.419, 273.739 153.900, 274.957 160.500 C 277.857 176.215, 278.137 200.837, 275.583 215.500 C 271.962 236.283, 264.727 253.275, 249.692 276.314 C 234.151 300.126, 222.163 315.395, 183.982 360 C 140.981 410.237, 131.627 425.508, 130.274 447.684 C 129.580 459.067, 131.061 467.221, 135.510 476.500 C 140.138 486.153, 147.155 494.262, 164.680 510.209 C 186.603 530.157, 195.179 542.556, 199.917 561.149 C 207.295 590.101, 206.411 670.062, 197.487 780.990 C 195.605 804.390, 195.612 816.195, 197.518 832.490 C 198.760 843.108, 204.648 875.696, 205.523 876.796 C 205.653 876.959, 215.541 875.272, 227.497 873.046 C 239.453 870.821, 249.601 869, 250.047 869 C 250.493 869, 251.376 866.412, 252.009 863.250 C 266.332 791.701, 298.843 703.121, 334.849 637.545 C 338.157 631.519, 340.676 626.285, 340.446 625.913 C 340.217 625.541, 331.871 620.605, 321.901 614.944 L 303.773 604.650 302.025 606.967 C 298.834 611.197, 280.295 647.237, 272.172 665 C 264.079 682.697, 252.115 711.259, 247.972 722.774 C 246.730 726.225, 245.581 728.914, 245.417 728.751 C 245.254 728.587, 245.516 722.839, 246 715.977 C 249.066 672.486, 249.441 616.268, 246.896 581.500 C 243.643 537.057, 230.709 510.852, 197.114 480.644 C 175.107 460.855, 172.163 456.671, 174.120 447.962 C 176.543 437.177, 183.954 427.172, 224.815 379.522 C 286.277 307.848, 308.512 271.691, 317.585 228.662 C 320.762 213.598, 321.981 182.705, 320.060 165.964 C 318.782 154.822, 314.690 134.004, 313.322 131.686 C 312.655 130.556, 308.726 131.557, 292.500 136.994 " stroke="none" fill="black" fill-rule="evenodd"/>
</svg>