<svg xmlns="http://www.w3.org/2000/svg" width="1000" height="1000" viewBox="0 0 1000 1000" version="1.1">
	<path d="M 376.500 122.063 C 354.043 123.732, 324.298 127.296, 297 131.587 C 275.846 134.913, 238 142.623, 238 143.606 C 238 143.841, 240.306 153.251, 243.124 164.517 C 246.325 177.311, 248.712 185, 249.481 185 C 250.159 185, 260.791 183.004, 273.107 180.564 C 328.681 169.554, 373.310 164.741, 420 164.722 C 455.596 164.707, 481.686 167.450, 504.802 173.638 L 511.103 175.325 510.544 180.412 C 509.784 187.336, 506.376 243.035, 504.543 278.500 C 500.219 362.165, 498.823 410.029, 498.797 475.500 C 498.767 553.528, 501.131 592.887, 508.098 630.358 C 509.208 636.330, 509.915 641.419, 509.668 641.665 C 509.421 641.912, 504.452 641.194, 498.625 640.070 C 452.873 631.241, 408.159 627.470, 358.695 628.271 C 318.737 628.918, 299.265 631.167, 269.790 638.538 C 208.168 653.950, 167.391 686.736, 155.415 730.500 C 152.473 741.252, 152.688 765.612, 155.821 776.482 C 161.207 795.170, 170.541 810.508, 186 826.070 C 212.014 852.257, 249.883 869.461, 297.196 876.586 C 311.297 878.709, 350.201 879.553, 367.046 878.101 C 458.244 870.238, 514.358 843.872, 543.160 795.350 C 556.045 773.642, 561.703 751.529, 562.864 718.336 L 563.500 700.172 590 708.945 C 652.490 729.635, 709.636 755.863, 765.751 789.609 C 783.330 800.180, 809.709 817.508, 822.378 826.806 L 829.257 831.854 842.628 815.323 C 849.983 806.231, 856 798.468, 856 798.072 C 856 797.676, 850.712 793.512, 844.250 788.817 C 787.170 747.353, 712.399 707.522, 640.500 680.276 C 619.480 672.310, 586.580 661.372, 570.127 656.879 C 560.642 654.289, 557.556 653.033, 556.906 651.500 C 555.651 648.538, 549.255 612.330, 547.545 598.500 C 540.048 537.882, 540.570 422.648, 549.046 267 C 551.219 227.088, 554.503 176.044, 556.054 158.070 C 556.596 151.783, 556.693 146.304, 556.270 145.895 C 555.846 145.485, 551.900 143.712, 547.500 141.956 C 522.883 132.128, 503.249 127.180, 474 123.430 C 459.236 121.537, 395.578 120.645, 376.500 122.063 M 344.500 672.027 C 283.028 675.057, 236.694 690.501, 212.669 715.968 C 201.546 727.759, 196.647 739.149, 196.703 753.092 C 196.776 771.238, 208.288 790.293, 228.036 804.958 C 247.436 819.365, 275.109 829.433, 306.500 833.508 C 337.453 837.525, 388.369 833.978, 422.154 825.451 C 481.434 810.488, 511.211 782.529, 517.956 735.500 C 519.077 727.685, 519.221 699.956, 518.176 693 L 517.500 688.500 502 685.326 C 450.693 674.818, 390.688 669.751, 344.500 672.027 " stroke="none" fill="black" fill-rule="evenodd"/>
</svg>