<svg xmlns="http://www.w3.org/2000/svg" width="1000" height="1000" viewBox="0 0 1000 1000" version="1.1">
	<path d="M 319.901 119.683 L 303.715 134.464 312.608 142.857 C 343.209 171.739, 375.851 190.639, 407 197.510 C 416.539 199.615, 455.180 200.586, 473.500 199.181 C 480.650 198.633, 486.622 198.302, 486.770 198.446 C 486.919 198.590, 485.119 199.964, 482.770 201.500 C 463.055 214.391, 440.162 234.758, 427.010 251.109 C 403.870 279.876, 394.551 308.109, 394.697 349 C 394.766 368.557, 396.330 382.797, 401.515 411.082 C 403.432 421.539, 405 430.274, 405 430.494 C 405 430.714, 396.563 435.131, 386.250 440.309 C 358.030 454.480, 332.592 469.495, 306.809 487.203 C 226.376 542.440, 164.520 621.822, 150.342 688 C 149.024 694.154, 148.522 700.779, 148.524 712 C 148.526 730.413, 149.890 736.841, 156.794 751 C 167.360 772.669, 190.739 788.665, 216.939 792.154 C 264.186 798.444, 328.219 754.282, 388.979 673.500 C 438.626 607.493, 456.998 561.163, 456.987 502 C 456.984 484.670, 456.209 472.157, 454.440 460.900 C 453.889 457.387, 453.991 457.250, 458.687 455.230 C 476.500 447.567, 514.813 434.587, 539.255 427.934 C 566.795 420.437, 601.668 413.739, 631 410.311 C 643 408.909, 653.838 408.507, 679 408.531 C 709.043 408.561, 712.294 408.736, 722 410.846 C 735.572 413.798, 745.525 417.165, 755.487 422.175 C 802.832 445.988, 821.343 496.948, 805.063 558.654 C 801.339 572.773, 794.905 589.904, 790.728 596.824 C 772.136 627.624, 726.999 660.318, 665.639 687.428 C 658.565 690.554, 652.556 692.889, 652.286 692.619 C 652.016 692.349, 652.853 689.062, 654.147 685.314 C 656.148 679.521, 656.500 676.552, 656.500 665.500 C 656.500 654.277, 656.174 651.611, 654.112 646 C 643.759 617.819, 611.784 600.018, 571.500 600.010 C 517.026 599.999, 459.421 642.622, 449.591 690.215 C 445.262 711.169, 450.679 730.287, 465.308 745.687 C 471.170 751.858, 473.958 753.897, 481.447 757.485 C 491.232 762.173, 499.764 764.566, 510 765.494 C 513.575 765.817, 518.390 766.313, 520.701 766.595 L 524.902 767.108 518.450 775.804 C 500.432 800.089, 494.079 824.485, 500.489 844.776 C 506.636 864.234, 525.611 881.258, 547.700 887.130 C 563.500 891.330, 597.202 890.832, 631.500 885.892 C 653.956 882.657, 703.938 872.395, 705.669 870.664 C 706.692 869.641, 695.705 829, 694.405 829 C 693.751 829, 687.654 830.323, 680.858 831.939 C 626.989 844.752, 575.968 849.676, 555.877 844 C 550.874 842.586, 543.282 835.682, 542.126 831.494 C 540.269 824.767, 545.043 813.136, 555.257 799.501 C 560.923 791.938, 580.434 771.912, 591.110 762.703 C 597.424 757.257, 598.344 756.824, 611.610 753.058 C 704.588 726.665, 788.891 676.573, 822.920 627.500 C 843.819 597.361, 857.787 541.608, 854.119 502.969 C 850.562 465.510, 837.780 436.166, 814.551 412.137 C 793.034 389.879, 765.145 375.043, 732.558 368.520 C 690.574 360.117, 626.842 363.462, 561.596 377.494 C 529.857 384.320, 481.932 398.757, 455.107 409.574 C 450.456 411.450, 446.517 412.851, 446.354 412.688 C 445.650 411.983, 440.052 376.529, 439.074 366.576 C 436.575 341.149, 439.229 317.846, 446.495 301.415 C 453.031 286.636, 469.784 266.581, 487.500 252.330 C 517.367 228.303, 563.268 204.262, 606.500 190.004 C 615.300 187.101, 622.610 184.640, 622.745 184.535 C 622.962 184.365, 611.957 135.793, 611.591 135.306 C 611.511 135.200, 609.658 135.512, 607.473 136 C 590.170 139.866, 543.592 147.553, 517 150.931 C 474.747 156.299, 431.646 157.803, 415.521 154.473 C 394.132 150.055, 367.862 134.672, 344.794 113.059 L 336.087 104.901 319.901 119.683 M 395.496 484.651 C 339.936 514.361, 300.355 543.125, 265.453 579.153 C 227.793 618.030, 200.164 662.872, 193.492 695.947 C 191.129 707.659, 191.760 722.543, 194.924 729.727 C 199.343 739.760, 211.372 747.796, 223.361 748.723 C 254.712 751.147, 307.556 709.650, 356.050 644.525 C 374.699 619.479, 391.562 591.712, 399.370 573.190 C 404.898 560.076, 409.383 544.356, 411.637 530.192 C 413.477 518.625, 413.982 482.414, 412.360 478.299 C 411.518 476.162, 411.017 476.351, 395.496 484.651 M 553.500 646.088 C 536.472 650.226, 514.652 663.989, 503.701 677.500 C 492.933 690.786, 489.361 703.532, 494.061 711.895 C 496.829 716.820, 498.912 718.303, 506.039 720.419 C 518.127 724.009, 539.035 723.439, 565.917 718.788 L 578.335 716.640 587.956 707.070 C 609.648 685.492, 618.225 666.549, 610.745 656.735 C 602.629 646.086, 574.806 640.912, 553.500 646.088 " stroke="none" fill="black" fill-rule="evenodd"/>
</svg>