<svg xmlns="http://www.w3.org/2000/svg" width="1000" height="1000" viewBox="0 0 1000 1000" version="1.1">
	<path d="M 150.474 176.252 C 149.589 178.644, 138 215.865, 138 216.315 C 138 216.564, 140.588 217.796, 143.750 219.053 C 170.906 229.844, 197.990 247.671, 218 267.926 C 242.011 292.230, 256.992 319.752, 264.036 352.500 C 267.088 366.689, 267.864 399.434, 265.566 417 C 261.871 445.231, 249.592 487.909, 229.348 542.881 C 197.709 628.793, 148.418 723.906, 105.888 781.110 C 101.550 786.945, 98 792.172, 98 792.725 C 98 793.278, 106.213 800.385, 116.250 808.519 C 126.288 816.652, 135.238 823.938, 136.140 824.709 C 137.617 825.972, 138.703 824.443, 147.083 809.305 C 188.487 734.509, 248.413 640.067, 299.880 568.500 C 364.779 478.255, 425.554 409.795, 477 368.984 C 506.229 345.796, 536.780 329.835, 559.402 325.932 C 569.160 324.249, 588.556 325.265, 597.863 327.948 C 648.660 342.587, 697.286 397.106, 745.076 493 C 785.686 574.488, 826.547 693.113, 853.139 806.722 C 856.586 821.450, 859.533 833.681, 859.688 833.901 C 859.843 834.122, 869.426 832.357, 880.985 829.980 C 894.996 827.097, 902 825.235, 902 824.390 C 902 820.745, 888.917 767.634, 879.857 734.500 C 851.489 630.757, 817.981 540.195, 780.756 466.667 C 723.854 354.268, 660.722 292.320, 593 282.430 C 579.424 280.448, 560.901 280.889, 548.500 283.490 C 498.654 293.944, 442.440 333.109, 377.685 402.500 C 353.051 428.897, 322.255 465.756, 295.569 500.784 C 291.260 506.440, 287.584 510.917, 287.400 510.733 C 287.216 510.550, 289.336 502.997, 292.110 493.950 C 305.138 451.462, 309.899 426.539, 310.737 396.441 C 311.566 366.673, 308.430 343.983, 300.002 318.756 C 281.040 261.995, 237.575 215.253, 176.500 185.941 C 158.627 177.363, 151.100 174.561, 150.474 176.252 " stroke="none" fill="black" fill-rule="evenodd"/>
</svg>