<svg xmlns="http://www.w3.org/2000/svg" width="1000" height="1000" viewBox="0 0 1000 1000" version="1.1">
	<path d="M 403.750 69.748 L 388 70.051 387.999 75.275 C 387.997 91.708, 383.896 118.016, 379.148 132.063 C 375.702 142.257, 374.184 145.304, 367.928 154.593 C 343.285 191.181, 286.181 243.849, 232 279.963 C 226.775 283.445, 222.332 286.434, 222.127 286.604 C 221.922 286.773, 228.820 296.823, 237.455 308.937 L 253.156 330.962 256.328 329.594 C 258.073 328.841, 269.400 323.869, 281.500 318.545 C 393.474 269.271, 509.784 228.964, 580 215.100 C 620.943 207.017, 652.594 206.446, 663.506 213.596 C 664.878 214.495, 666 215.804, 666 216.505 C 666 219.303, 656.755 230.083, 648.571 236.827 C 631.588 250.824, 607.792 265.106, 570.101 283.925 C 543.064 297.424, 506.381 314.323, 505.178 313.832 C 504.731 313.649, 501.201 309.900, 497.334 305.500 C 488.836 295.829, 478.545 286.047, 468.334 277.932 C 459.795 271.147, 449.009 263.646, 448.529 264.160 C 448.355 264.347, 443.239 272.676, 437.159 282.668 L 426.106 300.836 435.799 308.122 C 446.847 316.426, 463.446 332.017, 462.279 332.994 C 461.851 333.353, 450.250 338.524, 436.500 344.484 C 361.722 376.899, 345.455 386.947, 340.401 403.847 C 338.507 410.179, 339.054 415.370, 342.368 422.507 C 350.558 440.146, 375.291 447.191, 442.361 450.989 C 452.184 451.545, 463.884 452.043, 468.361 452.095 L 476.500 452.190 467 455.155 C 461.775 456.786, 445.125 461.904, 430 466.527 C 340.853 493.776, 281.270 516.791, 253.706 534.622 C 244.016 540.890, 235.515 549.643, 232.259 556.704 C 228.722 564.376, 228.565 574.164, 231.862 581.500 C 236.423 591.651, 249.163 600.297, 267.059 605.389 C 298.559 614.352, 361.637 618.959, 453.250 618.987 C 494.245 618.999, 497 619.110, 497 620.750 C 496.999 624.961, 493.819 663.223, 491.953 681.467 C 483.067 768.352, 468.139 828.931, 442.825 880.834 C 438.980 888.718, 436.133 895.468, 436.497 895.834 C 436.862 896.200, 444.886 901.507, 454.330 907.627 C 465.740 915.022, 471.884 918.448, 472.646 917.841 C 474.553 916.321, 488.556 887.363, 494.088 873.500 C 519.454 809.930, 531.719 744.758, 540.526 626.750 L 541.180 618 549.852 618 C 586.473 618, 792.157 608.832, 794.808 607.082 C 795.615 606.549, 793.407 565.073, 792.524 564.191 C 792.318 563.985, 775.128 564.756, 754.325 565.906 C 685.461 569.711, 620.198 572.474, 571.963 573.626 L 543.426 574.307 543.463 526.738 L 543.500 479.168 547 478.149 C 550.045 477.263, 597.906 464.558, 608.250 461.890 C 611.724 460.994, 612.003 460.649, 612.043 457.211 C 612.067 455.170, 612.687 443.150, 613.422 430.500 C 614.157 417.850, 614.640 407.365, 614.497 407.201 C 614.353 407.036, 598.995 407.373, 580.368 407.948 C 534.402 409.368, 539.184 409.620, 538.602 405.750 C 538.333 403.962, 537.181 395.624, 536.043 387.221 C 534.815 378.152, 532.729 368.056, 530.911 362.380 C 529.226 357.121, 528.033 352.633, 528.260 352.407 C 528.486 352.180, 538.019 347.707, 549.444 342.466 C 605.235 316.872, 646.974 293.616, 671.744 274.322 C 699.486 252.713, 712.155 230.682, 708.913 209.684 C 707.901 203.136, 702.561 191.234, 698.697 186.919 C 690.832 178.134, 679.798 171.805, 665.329 167.781 C 658.326 165.833, 655.019 165.600, 634 165.574 C 608.584 165.542, 599.575 166.481, 571.500 172.085 C 516.525 183.060, 447.341 204.961, 355.574 240.438 L 348.649 243.115 360.795 230.550 C 400.575 189.395, 416.451 165.151, 424.344 133.500 C 428.582 116.508, 431.978 89.549, 431.996 72.750 L 432 69 425.750 69.223 C 422.313 69.345, 412.413 69.582, 403.750 69.748 M 460.500 381.578 C 430.590 394.710, 409.856 404.192, 410.237 404.565 C 411.394 405.698, 493.556 409.777, 494.581 408.752 C 494.768 408.566, 494.098 402.583, 493.092 395.456 C 491.272 382.565, 488.297 369.927, 487.118 370.081 C 486.778 370.125, 474.800 375.299, 460.500 381.578 M 490.500 493.959 C 487.200 494.975, 470.775 499.953, 454 505.022 C 396.687 522.338, 352.296 537.446, 320.940 550.308 C 304.977 556.856, 287.530 564.874, 288.097 565.403 C 288.854 566.110, 309.474 568.977, 324.500 570.464 C 354.589 573.442, 373.715 574.172, 435.590 574.704 L 498.680 575.246 499.336 563.873 C 499.696 557.618, 499.993 538.888, 499.995 522.250 C 500.001 487.802, 500.984 490.732, 490.500 493.959 " stroke="none" fill="black" fill-rule="evenodd"/>
</svg>