<svg xmlns="http://www.w3.org/2000/svg" width="1000" height="1000" viewBox="0 0 1000 1000" version="1.1">
	<path d="M 493 126.018 C 441.847 133.134, 377.878 169.474, 306.608 231.904 C 292.675 244.109, 275 260.927, 275 261.980 C 275 262.383, 281.996 269.366, 290.548 277.497 L 306.095 292.281 315.798 282.826 C 356.319 243.338, 411.336 203.322, 450.195 185.074 C 471.158 175.229, 488.612 170.167, 504.500 169.324 C 529.906 167.977, 543.009 175.733, 561.146 202.857 C 568.833 214.352, 573.430 222.995, 578.070 234.675 C 581.295 242.796, 586.077 260.971, 585.324 262.250 C 585.081 262.663, 581.854 263, 578.153 263 C 563.561 263, 534.006 267.745, 509 274.102 C 424.762 295.518, 314.875 347.894, 192.579 424.920 C 175.713 435.542, 133.960 463.124, 125.778 469.047 L 122.056 471.742 134.639 489.399 L 147.221 507.056 149.896 505.278 C 151.366 504.300, 163.804 496.024, 177.535 486.888 C 299.599 405.663, 418.275 345.386, 505.162 320.480 C 532.271 312.710, 554.493 308.508, 578.750 306.566 L 586 305.986 586 308.617 C 586 314.123, 580.876 336.215, 576.612 349.088 C 567.410 376.875, 553.858 405.138, 527.508 451.500 C 494.932 508.817, 487.492 526.289, 486.269 548.344 C 485.360 564.745, 489.361 576.533, 499.725 587.985 C 513.095 602.760, 531.216 611.283, 556.347 614.617 C 581.355 617.934, 623.953 613.352, 652.151 604.312 L 657.801 602.500 651.605 583.500 C 648.197 573.050, 645.131 563.779, 644.793 562.898 C 644.244 561.472, 642.991 561.607, 633.338 564.134 C 611.834 569.763, 599.264 571.425, 578 571.450 C 562.166 571.468, 557.291 571.132, 552.071 569.663 C 543.482 567.244, 537.226 563.935, 533.079 559.615 C 530.106 556.518, 529.672 555.426, 529.766 551.275 C 530.029 539.752, 540.347 517.080, 564.935 474 C 605.513 402.904, 622.038 362.809, 629.011 318.529 C 629.615 314.695, 630.268 311.398, 630.463 311.203 C 630.658 311.009, 638.193 312.671, 647.209 314.898 C 712.924 331.132, 758.185 359.813, 786.241 403 C 811.368 441.678, 823.497 494.409, 821.663 557 C 820.378 600.843, 813.132 631.839, 796.063 666.500 C 782.777 693.481, 768.824 713.091, 747.066 735.363 C 660.616 823.859, 521.862 852.598, 409.116 805.362 C 374.068 790.678, 342.087 767.435, 317.061 738.459 C 299.843 718.523, 284.796 694.741, 275.524 672.812 L 270.657 661.299 266.578 662.535 C 264.335 663.215, 255.525 665.870, 247 668.434 C 238.475 670.999, 230.938 673.286, 230.252 673.516 C 229.316 673.831, 229.538 675.379, 231.145 679.718 C 245.771 719.214, 274.847 761.684, 307.500 791.248 C 350.714 830.374, 399.747 854.367, 460 865.872 C 496.352 872.813, 540.621 873.369, 579 867.368 C 630.082 859.380, 680.437 839.900, 723 811.660 C 800.458 760.268, 849.752 685.041, 862.437 598.865 C 867.546 564.151, 866.285 511.397, 859.452 474 C 851.846 432.376, 835.638 394.465, 812.788 364.849 C 776.731 318.118, 719.896 285.516, 647.500 270.036 C 639.250 268.272, 632.050 266.698, 631.500 266.537 C 630.950 266.376, 629.688 261.186, 628.697 255.004 C 623.123 220.267, 604.042 181.686, 579.118 154.760 C 567.419 142.120, 550.741 132.238, 534 128.027 C 524.263 125.577, 503.487 124.559, 493 126.018 " stroke="none" fill="black" fill-rule="evenodd"/>
</svg>