<svg xmlns="http://www.w3.org/2000/svg" width="1000" height="1000" viewBox="0 0 1000 1000" version="1.1">
	<path d="M 443.500 97.349 C 433.600 101.341, 424.760 104.888, 423.857 105.231 C 422.427 105.774, 422.985 107.982, 428.136 122.178 C 448.828 179.199, 464.046 242.081, 469.113 291.500 C 470.664 306.629, 470.647 341.607, 469.078 362.500 C 466.469 397.254, 459.055 463.125, 457.589 464.581 C 456.990 465.176, 449.975 467.136, 442 468.937 C 412.349 475.632, 368.756 486.211, 345 492.477 C 309.299 501.893, 290.765 504.792, 251.500 507.101 C 231.795 508.260, 164.482 507.787, 149.939 506.388 L 143.378 505.757 141.607 527.463 C 140.632 539.401, 139.985 549.312, 140.168 549.487 C 140.936 550.222, 190.154 551.999, 209.508 551.990 C 234.221 551.979, 263.728 550.592, 284 548.488 C 311.456 545.639, 324.745 543.112, 357.500 534.511 C 370.700 531.045, 395 525.004, 411.500 521.088 C 428 517.172, 444.030 513.365, 447.123 512.627 L 452.746 511.287 452.665 536.394 C 452.573 564.679, 453.489 571.111, 459.374 583.500 C 465.697 596.814, 481.842 609.597, 500.989 616.449 C 512.340 620.512, 523.249 622.778, 544.808 625.552 C 563.959 628.017, 573 629.692, 573 630.775 C 573 631.071, 570.287 636.181, 566.972 642.131 C 563.656 648.080, 556.270 662.297, 550.559 673.724 C 492.683 789.512, 490.354 859.794, 543.500 886.747 C 555.710 892.940, 578.585 898.627, 601.500 901.169 C 616.901 902.877, 677.027 902.873, 697.500 901.162 C 721.951 899.120, 749.734 896.165, 769.744 893.479 C 788.519 890.960, 832.230 884.049, 832.806 883.509 C 833.219 883.121, 825.199 841.866, 824.592 841.258 C 824.327 840.994, 814.298 842.382, 802.305 844.344 C 737.333 854.970, 682.920 859.649, 635.154 858.716 C 581.780 857.674, 556.523 850.369, 550.856 834.336 C 548.607 827.975, 549.118 805.569, 551.797 793 C 560.644 751.504, 588.693 688.201, 622.090 634.359 C 625.890 628.232, 629 622.760, 629 622.201 C 629 620.662, 614.640 603.884, 610.670 600.784 C 599.715 592.229, 584.920 586.991, 563.256 583.998 C 522.278 578.336, 514.773 576.487, 504.612 569.552 C 498.881 565.640, 498.428 565.041, 497.346 559.940 C 495.829 552.782, 495.730 534.341, 497.113 516.146 C 497.725 508.091, 498.372 501.341, 498.549 501.147 C 498.902 500.762, 504.514 499.509, 568.500 485.528 C 672.659 462.768, 704.142 456.585, 723.498 455.088 C 743.395 453.549, 815.164 451.808, 843.251 452.183 C 863.831 452.458, 867.004 452.300, 867.019 451 C 867.069 446.725, 860.497 406.405, 859.659 405.842 C 859.119 405.479, 855.038 404.669, 850.589 404.040 C 817.681 399.389, 772.226 382.101, 740.712 362.249 C 718.036 347.965, 696.247 328.836, 682.500 311.146 C 678.650 306.191, 675.120 302.107, 674.656 302.069 C 674.191 302.031, 669.916 304.778, 665.156 308.174 C 646.618 321.397, 646.039 321.669, 656 312.481 C 694.569 276.906, 720.065 244.861, 732.256 216.635 C 736.443 206.941, 739.982 193.690, 739.993 187.662 L 740 183.824 736.250 184.367 C 734.188 184.665, 726.200 185.176, 718.500 185.501 C 710.800 185.827, 702.657 186.338, 700.404 186.637 C 696.427 187.165, 696.257 187.345, 694.533 192.840 C 684.335 225.344, 642.142 271.234, 578.531 319.003 C 564.542 329.509, 522.377 358.626, 514.417 363.279 C 513.645 363.730, 513.468 355.733, 513.802 335.491 C 514.611 286.327, 509.845 249.806, 495.012 191.500 C 485.052 152.350, 464.831 89.869, 462.177 90.045 C 461.805 90.070, 453.400 93.356, 443.500 97.349 M 242.643 209.302 C 241.180 221.502, 240.815 248.310, 241.920 262.500 C 244.793 299.431, 251.411 326.754, 263.234 350.500 C 267.783 359.637, 278.947 377, 280.272 377 C 280.946 377, 308.454 355.337, 313.384 350.924 C 313.872 350.486, 312.688 347.978, 310.736 345.316 C 302.395 333.943, 294.428 314.053, 290.181 294 C 286.260 275.490, 285.500 266.317, 285.522 237.750 C 285.533 222.488, 285.497 210, 285.443 210 C 284.934 210, 247.864 204.898, 245.883 204.556 C 243.397 204.126, 243.235 204.364, 242.643 209.302 M 634.500 330.641 C 615.245 347.766, 566.120 382.578, 526 407.528 C 516.375 413.513, 508.338 418.517, 508.141 418.648 C 507.603 419.003, 503.661 453.999, 504.112 454.419 C 504.325 454.618, 512.375 453.019, 522 450.867 C 553.384 443.847, 625.782 428.278, 658.500 421.513 C 693.942 414.185, 705.235 412.383, 721.500 411.460 C 727.550 411.117, 733.113 410.643, 733.862 410.406 C 734.612 410.170, 729.887 406.768, 723.362 402.846 C 702.780 390.473, 687.578 379.031, 671.321 363.677 C 662.168 355.033, 646.803 337.682, 642.374 330.989 C 640.922 328.795, 639.457 327.019, 639.117 327.042 C 638.778 327.065, 636.700 328.684, 634.500 330.641 " stroke="none" fill="black" fill-rule="evenodd"/>
</svg>