<svg xmlns="http://www.w3.org/2000/svg" width="1000" height="1000" viewBox="0 0 1000 1000" version="1.1">
	<path d="M 410.887 90.255 L 390.273 93.277 389.716 106.388 C 388.739 129.375, 383.885 148.428, 373.988 168.121 C 361.900 192.172, 349.554 206.306, 316.722 233.675 C 277.030 266.764, 219.994 308.937, 167.662 343.891 C 156.848 351.115, 147.993 357.357, 147.984 357.762 C 147.969 358.443, 162.063 399.130, 162.544 399.795 C 162.661 399.958, 182.500 393.578, 206.629 385.618 C 295.283 356.371, 366.624 333, 367.245 333 C 367.596 333, 360.083 340.423, 350.548 349.496 C 292.317 404.910, 252.247 452.979, 235.509 487.500 C 221.648 516.087, 220.773 536.890, 232.601 556.625 C 241.739 571.872, 257.160 581.918, 278.562 586.565 C 295.292 590.198, 324.042 588.543, 351.828 582.348 C 358.058 580.959, 363.324 579.991, 363.531 580.198 C 363.737 580.404, 364.389 588.432, 364.980 598.037 C 365.570 607.641, 366.941 627.106, 368.026 641.292 C 369.112 655.477, 370 667.726, 370 668.512 C 370 671.113, 331.406 702.905, 300 726.174 C 281.922 739.569, 258.527 755.747, 259.155 754.419 C 259.395 753.914, 263.461 745.625, 268.192 736 C 272.922 726.375, 279.386 712.200, 282.554 704.500 C 290.072 686.230, 304 649.276, 304 647.598 C 304 646.563, 284.451 639.131, 264.474 632.572 C 263.910 632.386, 260.153 641.070, 256.125 651.867 C 238.979 697.832, 225.726 726.621, 214.713 741.826 C 201.613 759.912, 181.012 783.976, 152.588 814.391 L 135.869 832.282 155.988 842.714 L 176.107 853.147 188.624 847.096 C 203.194 840.053, 225.140 827.929, 243.250 816.919 C 250.262 812.656, 256 809.468, 256 809.834 C 256 810.200, 254.940 813.935, 253.645 818.133 L 251.289 825.766 259.395 828.852 C 290.872 840.835, 318.592 868.510, 332.913 902.250 C 335.270 907.804, 334.257 907.641, 356.050 905.966 L 369.500 904.932 372.704 901.223 C 391.748 879.176, 411.701 817.491, 415.958 767.500 C 417.157 753.413, 417.207 723.517, 416.065 703 L 415.258 688.500 425.879 678.616 C 457.181 649.487, 500.491 603.814, 526.865 572.120 C 535.295 561.989, 536.925 559.515, 535.834 558.505 C 535.100 557.826, 528.200 552.184, 520.500 545.968 C 512.800 539.752, 505.787 534.064, 504.916 533.329 C 503.529 532.157, 501.906 533.697, 491.835 545.745 C 473.185 568.056, 455.875 587.065, 433.099 610.248 C 421.328 622.228, 411.567 631.900, 411.407 631.741 C 410.750 631.083, 408 586.133, 408 576.044 C 408 565.603, 408.097 565.105, 410.250 564.441 C 414.015 563.280, 447.444 548.897, 448.302 548.069 C 448.744 547.644, 445.748 540.337, 441.644 531.832 C 435.133 518.336, 433.466 515.712, 428.536 511.206 C 422.117 505.341, 415.968 503, 406.975 503 C 392.237 503, 375.901 513.617, 369.316 527.474 L 366.477 533.448 349.989 537.643 C 320.995 545.020, 296.402 546.754, 282.028 542.435 C 275.808 540.566, 269.560 535.079, 268.403 530.470 C 265.734 519.836, 280.080 492.690, 304.407 462.343 C 337.328 421.276, 398.341 361.698, 459.250 311.143 C 467.363 304.410, 474 298.441, 474 297.879 C 474 295.849, 464.755 256.482, 464.113 255.778 C 463.561 255.171, 400.273 275.590, 308.500 305.985 C 291.842 311.501, 288.037 312.481, 290.096 310.720 C 291.524 309.499, 300.130 302.763, 309.221 295.751 C 329.420 280.171, 359.572 255.079, 370.843 244.470 C 394.595 222.113, 413.692 192.322, 423.779 161.888 C 428.931 146.346, 431.591 133.254, 433.105 116 C 434.220 103.285, 433.685 86.850, 432.165 87.116 C 431.799 87.180, 422.224 88.593, 410.887 90.255 M 137.322 140.603 C 136.947 141.581, 137.164 151.231, 137.806 162.047 C 141.096 217.537, 155.656 250.587, 182.500 263.502 C 186.350 265.355, 190.813 267.012, 192.417 267.185 L 195.334 267.500 199.702 246.512 C 202.706 232.078, 203.716 225.405, 202.938 225.146 C 202.316 224.939, 200.363 223.502, 198.599 221.953 C 189.099 213.611, 182.661 189.029, 181.301 155.900 L 180.697 141.202 163.099 140.557 C 153.419 140.202, 143.813 139.667, 141.752 139.368 C 138.767 138.936, 137.866 139.187, 137.322 140.603 M 682.714 220.022 C 673.917 222.603, 665.438 226.489, 655.500 232.498 C 644.922 238.893, 628.783 250.858, 629.183 252.009 C 629.357 252.512, 635.748 260.166, 643.385 269.019 L 657.270 285.116 659.885 282.662 C 666.143 276.791, 685.969 264.666, 692.750 262.563 C 694.959 261.878, 695 262.017, 694.999 270.183 C 694.994 297.927, 678.707 345.965, 648.938 406.036 C 637.305 429.512, 623.407 455.063, 612.553 472.930 L 606.825 482.359 609.162 484.137 C 610.448 485.115, 617.822 490.214, 625.549 495.468 L 639.598 505.022 706.049 494.606 C 742.597 488.878, 772.672 484.357, 772.883 484.561 C 773.093 484.765, 772.754 491.715, 772.130 500.005 C 771.506 508.296, 770.454 527.246, 769.793 542.117 C 768.619 568.547, 768.546 569.145, 766.546 568.690 C 752.176 565.427, 748.240 564.906, 738 564.913 C 704.925 564.935, 677.911 582.604, 661.983 614.635 C 646.220 646.335, 649.216 677.038, 670.275 699.587 C 678.220 708.095, 685.750 714.167, 694.395 719.035 L 700.289 722.354 697.812 724.427 C 696.449 725.567, 687.946 732.626, 678.917 740.113 C 629.625 780.987, 612.357 806.225, 616.008 832.054 C 620.160 861.428, 653.321 880.242, 714 887.648 C 731.502 889.785, 777.126 890.077, 798 888.187 C 826.398 885.615, 879.699 877.634, 881.675 875.659 C 882.129 875.204, 873.306 835.434, 872.407 833.886 C 872.211 833.549, 866.567 834.322, 859.865 835.605 C 802.960 846.498, 743.358 848.909, 703.551 841.927 C 680.773 837.932, 657.784 828.680, 659.467 824.184 C 664.504 810.723, 686.059 789.805, 734.699 751.175 L 748.898 739.898 756.199 741.386 C 760.215 742.205, 767.216 743.375, 771.757 743.986 L 780.014 745.097 795.007 734.929 L 810 724.762 810 703.940 C 810 691.351, 810.389 682.877, 810.985 682.509 C 811.526 682.175, 813.771 678.869, 815.972 675.165 C 829.501 652.392, 829.210 626.849, 815.168 604.557 L 811.353 598.500 812.109 577 C 813.608 534.390, 817.058 478.609, 818.269 477.398 C 818.474 477.193, 826.817 475.750, 836.809 474.191 C 846.801 472.633, 855.274 471.059, 855.639 470.694 C 856.004 470.330, 855.576 462.844, 854.689 454.058 C 852.813 435.468, 851.166 431.170, 842.391 421.971 C 833.029 412.156, 820.841 407.881, 808.500 410.084 C 793.586 412.746, 785.321 420.146, 780.954 434.750 C 780.255 437.087, 779.365 439, 778.976 439 C 778.586 439, 755.281 442.600, 727.186 447 C 699.091 451.400, 675.462 455, 674.678 455 C 673.735 455, 676.915 447.781, 684.037 433.750 C 733.526 336.248, 750.011 267.900, 731.591 236.580 C 727.829 230.182, 722.066 224.995, 715 221.644 C 709.376 218.978, 707.219 218.527, 699 218.297 C 691.842 218.098, 687.827 218.523, 682.714 220.022 M 730.132 609.017 C 717.933 611.583, 707.729 620.480, 700.970 634.443 C 697.442 641.733, 696.596 644.614, 696.208 650.663 C 695.597 660.183, 697.560 665.464, 704.160 672.065 C 712.889 680.794, 735.585 692.430, 739.933 690.406 C 741.002 689.908, 747.234 684.706, 753.782 678.846 L 765.687 668.192 766.343 658.943 C 766.705 653.855, 767 642.330, 767 633.332 L 767 616.971 763.750 614.969 C 755.740 610.034, 739.209 607.108, 730.132 609.017 M 362 733.635 C 346.971 745.749, 315.961 768.921, 298.706 780.931 L 283.912 791.228 293.206 796.366 C 315.544 808.716, 333.731 824.369, 350.767 845.904 L 352.668 848.309 357.292 834.404 C 367.462 803.823, 372.010 778.812, 372.731 749.500 C 373.016 737.950, 373.080 727.751, 372.874 726.836 C 372.589 725.567, 370.006 727.182, 362 733.635 " stroke="none" fill="black" fill-rule="evenodd"/>
</svg>