<svg xmlns="http://www.w3.org/2000/svg" width="1000" height="1000" viewBox="0 0 1000 1000" version="1.1">
	<path d="M 468.500 86.637 C 458.050 90.780, 449.421 94.249, 449.324 94.345 C 449.227 94.441, 450.716 99.015, 452.634 104.510 C 466.864 145.290, 481.140 198.595, 492.001 251.500 C 498.245 281.916, 506.063 329.343, 504.946 330.033 C 503.703 330.801, 475.192 334.534, 454 336.704 C 432.765 338.877, 368.547 339.169, 350.500 337.173 C 311.666 332.880, 280.216 324.797, 254.073 312.393 C 241.372 306.366, 225.332 296.086, 220.054 290.589 C 218.158 288.615, 216.262 287, 215.840 287 C 215.417 287, 207.330 292.935, 197.867 300.189 L 180.663 313.377 189.291 321.608 C 216.391 347.458, 261.571 367.010, 316 376.443 C 344.089 381.311, 358.746 382.389, 397.500 382.438 C 436.183 382.487, 447.718 381.775, 486.867 376.922 C 500.269 375.261, 511.353 374.036, 511.498 374.201 C 512.015 374.788, 515.977 416.869, 517.457 437.500 C 520.894 485.407, 522.032 555.836, 520.337 615.785 L 519.679 639.069 509.589 638.285 C 492.558 636.960, 458.788 637.528, 443 639.405 C 407.104 643.673, 375.216 652.974, 344.333 668.186 C 338.399 671.109, 333.196 673.650, 332.770 673.834 C 332.345 674.018, 338.419 664.568, 346.268 652.834 C 372.101 614.216, 380.748 598.222, 388.454 574.804 C 398.843 543.230, 401.380 510.324, 395.911 478.070 C 394.318 468.677, 392.112 459, 391.563 459 C 391.400 459, 352.783 471.893, 351.424 472.401 C 350.690 472.676, 350.934 475.614, 352.191 481.652 C 357.662 507.929, 354.638 541.857, 344.476 568.217 C 330.198 605.252, 276.508 680.335, 216.634 747 C 203.650 761.456, 158.135 807.544, 144.118 820.429 L 136.735 827.215 154.607 845.107 C 164.437 854.948, 172.709 862.997, 172.990 862.993 C 173.270 862.989, 183.175 853.701, 195 842.353 C 220.421 817.957, 241.191 799.044, 264.500 779.069 C 286.193 760.478, 309.504 742, 311.266 742 C 313.618 742, 331.122 751.272, 340 757.222 C 380.432 784.317, 436.147 842.803, 482.925 907.257 C 489.210 915.916, 494.755 923, 495.248 923 C 495.741 923, 502.995 917.200, 511.368 910.111 L 526.592 897.223 530.797 883.861 C 542.439 846.877, 552.607 785.816, 558.468 717.700 C 559.311 707.910, 560 697.897, 560 695.450 C 560 691.685, 560.304 691, 561.976 691 C 565.095 691, 600.267 701.446, 613.500 706.302 C 646.129 718.277, 686.463 737.586, 719.500 757.046 C 752.507 776.489, 792.267 803.746, 824.625 829.113 L 835.749 837.834 848.866 821.442 C 856.081 812.427, 862.100 804.631, 862.242 804.119 C 862.384 803.607, 855.108 797.487, 846.073 790.520 C 752.713 718.526, 664.097 671.793, 580.500 650.466 L 563.500 646.129 563.605 638.814 C 565.105 534.403, 565.164 516.860, 564.104 490 C 562.650 453.140, 560.715 424.694, 557.456 392.221 C 556.060 378.317, 555.151 366.564, 555.437 366.102 C 555.722 365.641, 557.878 364.964, 560.228 364.600 C 577.728 361.884, 636.867 346.675, 673.500 335.469 C 710.967 324.007, 780.079 300.295, 782.229 298.164 C 782.630 297.767, 779.531 288.377, 775.342 277.298 L 767.725 257.154 765.113 258.172 C 741.027 267.558, 685.221 286.390, 653.500 295.837 C 620.870 305.555, 572.319 317.940, 552.795 321.525 C 548.401 322.332, 549.381 325.453, 544.468 295 C 534.216 231.450, 515.166 152.927, 496.679 98.009 C 492.590 85.862, 489.947 79.447, 488.977 79.311 C 488.165 79.197, 478.950 82.493, 468.500 86.637 M 458.500 681.696 C 429.814 684.273, 401.570 691.033, 377.313 701.128 C 366.160 705.770, 354.384 711.570, 353.627 712.794 C 353.340 713.258, 357.694 716.617, 363.303 720.259 C 397.611 742.535, 444.094 787.890, 487.329 841.276 C 493.544 848.950, 494.532 849.795, 495.194 848.004 C 496.839 843.557, 504.020 804.327, 506.910 784 C 511.639 750.738, 518.117 684.783, 516.786 683.452 C 515.012 681.679, 472.834 680.408, 458.500 681.696 " stroke="none" fill="black" fill-rule="evenodd"/>
</svg>