<svg xmlns="http://www.w3.org/2000/svg" width="1000" height="1000" viewBox="0 0 1000 1000" version="1.1">
	<path d="M 539.431 87.320 C 538.946 88.583, 542.636 117.120, 544.562 127 L 545.049 129.500 557.275 129.551 C 570.514 129.606, 578.581 131.310, 583.342 135.055 C 585.467 136.726, 586 137.989, 586 141.351 C 586 150.754, 564.731 178.013, 518.344 228.061 C 503.406 244.179, 499.331 248.026, 496.719 248.476 C 475.342 252.160, 401.658 263.176, 373.500 266.896 C 312.968 274.894, 284.639 276.769, 250.500 275.037 C 215.962 273.285, 182.316 268.695, 152 261.600 C 144.025 259.733, 137.447 258.272, 137.382 258.353 C 136.845 259.018, 125.216 299.550, 125.485 299.818 C 126.255 300.589, 145.384 305.147, 159.950 308.030 C 196.799 315.325, 222.525 318.017, 262 318.706 C 305.900 319.472, 332.279 317.180, 413 305.589 C 433.625 302.627, 450.594 300.289, 450.709 300.394 C 450.824 300.499, 445.263 306.865, 438.352 314.542 C 410.826 345.119, 388.112 373.545, 374.158 394.881 C 353.667 426.214, 348.593 443.495, 350.972 473.859 C 352.170 489.152, 353.451 499.587, 358.472 534.945 C 360.381 548.390, 361.843 559.445, 361.721 559.512 C 358.874 561.072, 327.077 583.661, 314.500 593.058 C 259.121 634.436, 218.828 675.855, 192.467 718.500 C 179.530 739.429, 164.162 773.951, 159.525 792.500 C 155.691 807.834, 156.085 827.858, 160.493 841.756 C 170.383 872.939, 198.778 890.763, 232.486 886.945 C 263.099 883.479, 294.004 867.047, 332.592 833.720 C 367.571 803.511, 390.315 766.424, 402.036 720.480 C 411.667 682.731, 413.772 644.635, 409.356 588 L 408.772 580.500 426.636 569.404 C 501.075 523.167, 564.718 495.031, 610.505 488.116 C 614.358 487.534, 623.358 486.789, 630.505 486.460 L 643.500 485.861 639.545 489.181 C 637.370 491.006, 631.070 496.249, 625.545 500.832 C 581.369 537.470, 553.459 569.696, 542.810 596.358 C 539.733 604.062, 539.557 605.199, 539.529 617.518 C 539.500 630.353, 539.548 630.633, 542.935 637.518 C 549.133 650.114, 559.404 658.170, 573.741 661.679 C 587.361 665.012, 613.637 663.326, 640.804 657.375 C 644.822 656.495, 648.331 655.998, 648.604 656.271 C 648.876 656.543, 649.504 685.281, 649.999 720.133 C 650.494 754.985, 651.176 791.806, 651.514 801.958 L 652.128 820.415 642.314 810.374 C 636.916 804.851, 627.998 796.770, 622.496 792.416 C 611.774 783.932, 591.730 770, 590.247 770 C 589.752 770, 584.254 778.158, 578.029 788.130 C 568.627 803.191, 566.976 806.407, 568.271 807.132 C 572.347 809.413, 593.375 824.956, 600.544 830.987 C 615.177 843.296, 633.477 865.030, 648.098 887.463 C 653.269 895.398, 657.825 901.914, 658.222 901.945 C 658.618 901.975, 667.556 897.387, 678.083 891.750 L 697.223 881.500 696.580 859.500 C 695.602 825.993, 694.162 751.320, 693.400 694.499 L 692.716 643.497 706.608 639.103 C 736.687 629.590, 788.731 610.258, 830.763 592.986 C 848.333 585.766, 850.948 584.411, 850.435 582.795 C 850.110 581.770, 846.241 572.663, 841.839 562.557 L 833.834 544.183 828.167 546.701 C 799.465 559.453, 699.113 597, 693.732 597 C 693.009 597, 692.867 582.547, 693.274 550.264 L 693.863 503.528 697.847 500.014 C 700.780 497.426, 704.231 491.852, 710.939 478.866 L 720.048 461.232 713.774 458.695 C 710.323 457.300, 705.857 455.460, 703.849 454.607 L 700.198 453.056 703.103 439.278 C 709.483 409.024, 720.433 368.009, 731.929 331.308 C 734.718 322.403, 737 314.899, 737 314.633 C 737 313.931, 696.169 300.480, 695.724 301.034 C 695.073 301.845, 682.266 343.836, 677.587 360.500 C 671.773 381.210, 662.803 417.451, 659.980 431.640 L 657.763 442.780 633.132 443.270 C 601.496 443.899, 585.728 446.758, 553 457.801 C 513.779 471.035, 457.542 498.634, 411.500 527.245 L 402.500 532.838 399.338 511.169 C 394.966 481.206, 393.250 458.640, 394.778 451.219 C 398.844 431.472, 424.760 395.154, 473.429 341 C 504.179 306.784, 521.157 289.124, 523.839 288.564 C 536.889 285.837, 666.213 265.422, 683 263.438 C 712.953 259.899, 769.991 262.010, 819.981 268.509 C 825.745 269.259, 830.636 269.697, 830.850 269.483 C 831.326 269.008, 836.954 231.322, 836.981 228.435 C 836.999 226.524, 835.944 226.244, 822.750 224.664 C 801.662 222.139, 780.886 220.264, 759.201 218.930 C 734.771 217.427, 688.874 218.238, 673 220.455 C 656.775 222.720, 626.702 227.370, 597.710 232.098 C 584.076 234.321, 572.492 235.996, 571.967 235.820 C 571.443 235.644, 575.350 230.550, 580.649 224.500 C 601.959 200.170, 616.846 180.212, 623.414 167.171 C 628.187 157.694, 630 150.771, 630 142.029 C 630 120.727, 619.083 103.339, 600 94.247 C 586.767 87.942, 581.158 86.844, 559.264 86.269 C 542.471 85.828, 539.952 85.961, 539.431 87.320 M 361.178 102.727 L 344.857 103.050 345.246 136.275 C 345.607 166.990, 345.802 170.052, 347.838 176.810 C 351.620 189.364, 360.963 206.078, 370.305 217.004 L 373.111 220.285 376.305 217.329 C 378.062 215.704, 385.203 209.081, 392.172 202.612 L 404.845 190.849 399.282 182.680 C 389.156 167.808, 389.596 169.898, 389.012 134 L 388.500 102.500 383 102.452 C 379.975 102.426, 370.155 102.550, 361.178 102.727 M 634.423 550.926 C 605.856 576.820, 585.349 602.416, 582.545 615.679 C 581.879 618.825, 581.921 618.866, 586.502 619.553 C 594.971 620.823, 609.359 619.102, 634.250 613.843 L 649 610.727 649 574.863 C 649 555.138, 648.663 539.016, 648.250 539.036 C 647.837 539.056, 641.615 544.407, 634.423 550.926 M 353.834 618.274 C 320.621 642.466, 301.088 658.835, 278.437 681.457 C 241.299 718.548, 219.254 752.364, 204.741 794.500 C 201.034 805.266, 200.608 807.477, 200.602 816 C 200.597 823.723, 201.018 826.435, 202.852 830.500 C 205.903 837.265, 209.366 840.629, 215.310 842.603 C 232.552 848.330, 263.714 834.417, 298.177 805.606 C 320.947 786.570, 334.363 769.971, 345.946 746.500 C 356.120 725.883, 361.882 706.264, 365.490 679.954 C 367.306 666.710, 368.494 624.432, 367.307 615.274 L 366.500 609.048 353.834 618.274 M 771.793 660.397 L 762.110 679.794 769.805 684.270 C 786.482 693.971, 803.188 708.113, 811.980 719.973 C 821.939 733.407, 836.419 767.028, 843.682 793.583 L 847.533 807.665 868.416 803.850 C 879.902 801.751, 889.525 799.808, 889.802 799.531 C 890.635 798.698, 884.062 774.396, 879.245 760.500 C 870.566 735.464, 860.224 713.446, 849.879 697.980 C 838.354 680.751, 816.762 661.452, 793.120 647.250 C 787.397 643.813, 782.437 641, 782.096 641 C 781.755 641, 777.119 649.729, 771.793 660.397 " stroke="none" fill="black" fill-rule="evenodd"/>
</svg>