<svg xmlns="http://www.w3.org/2000/svg" width="1000" height="1000" viewBox="0 0 1000 1000" version="1.1">
	<path d="M 385.403 90.789 C 378.306 99.908, 372.354 107.722, 372.177 108.155 C 371.600 109.556, 390.156 121.040, 403.500 127.540 C 434.648 142.712, 458.980 148.735, 493.101 149.717 C 514.120 150.322, 530.423 149.235, 550 145.922 C 560.738 144.105, 576.986 140.348, 577.852 139.482 C 578.164 139.170, 566.192 99.060, 565.549 98.262 C 565.444 98.131, 560.478 99.127, 554.514 100.474 C 535.135 104.853, 518.924 106.280, 495 105.713 C 471.894 105.165, 462.506 103.637, 444.452 97.487 C 433.939 93.906, 414.258 84.476, 405.403 78.777 L 398.306 74.210 385.403 90.789 M 683.024 205.029 C 635.346 207.727, 593.756 213.719, 516 229.095 C 437.362 244.646, 419.634 246.864, 349 249.985 C 307.090 251.837, 223.446 251.037, 187.950 248.444 L 179.399 247.819 177.690 269.566 C 176.750 281.527, 176.097 291.417, 176.240 291.544 C 177.261 292.448, 226.138 294.214, 263.500 294.697 C 309.683 295.294, 352.122 294.232, 393 291.456 C 436.342 288.513, 454.429 285.861, 521.847 272.562 C 591.744 258.774, 620.217 254.289, 663 250.325 C 690.019 247.822, 756.806 247.796, 781.500 250.278 C 790.850 251.218, 801.443 252.271, 805.041 252.619 L 811.582 253.250 814.294 231.961 C 815.785 220.252, 816.867 210.533, 816.697 210.364 C 816.254 209.920, 791.640 207.195, 777 205.969 C 759.912 204.538, 701.951 203.958, 683.024 205.029 M 414.500 356.726 C 403.500 360.311, 394.327 363.399, 394.116 363.589 C 393.201 364.412, 399.651 375.678, 404.498 381.722 C 416.143 396.243, 434.953 407.600, 456.285 412.988 C 470.548 416.590, 490.612 418.450, 505 417.504 L 515.500 416.814 502.396 429.657 C 477.212 454.339, 466.779 471.225, 466.727 487.389 C 466.688 499.329, 471.431 508.618, 480.951 515.246 C 490.693 522.030, 501.166 523.892, 544 526.454 C 617.138 530.829, 650.748 534.971, 682.271 543.494 C 724.356 554.872, 745.189 570.785, 746.745 592.741 C 747.641 605.385, 742.131 626.418, 733.840 642 C 714.257 678.805, 672.115 704.162, 609.365 716.897 C 594.622 719.889, 577.147 722.530, 576.572 721.852 C 576.408 721.659, 576.696 717.900, 577.211 713.500 C 578.825 699.738, 577.538 660.412, 575.003 646.025 C 568.327 608.138, 554.956 583.947, 535.723 574.963 C 520.963 568.068, 493.303 568.930, 466.599 577.117 C 425.896 589.595, 383.437 620.569, 344.071 666.500 C 331.589 681.064, 329.366 684.386, 317.046 706.905 C 307.908 723.608, 306.120 727.540, 307.191 728.575 C 310.310 731.588, 336.514 744.212, 347.500 747.993 C 387.680 761.824, 446.317 769.951, 506.205 769.990 L 520.910 770 518.378 776.750 C 502.972 817.806, 473.701 852.763, 438 872.740 C 429.892 877.277, 412.205 884.609, 403.294 887.127 C 399.007 888.338, 395.143 889.635, 394.707 890.008 C 393.413 891.115, 404.021 932, 405.602 932 C 409.343 932, 436.236 922.151, 447.588 916.624 C 470.195 905.616, 486.135 894.639, 502.900 878.531 C 530.717 851.806, 551.045 818.634, 563.628 779.437 L 567.500 767.374 581.916 765.644 C 698.645 751.637, 769.530 702.012, 787.433 621.764 C 791.009 605.739, 791.654 593.918, 789.595 582.132 C 782.027 538.790, 743.249 510.407, 671.951 496.023 C 642.180 490.016, 611.631 486.745, 550 482.964 C 531.575 481.833, 516.133 480.807, 515.685 480.683 C 515.237 480.558, 517.745 477.089, 521.257 472.972 C 532.006 460.374, 553.938 441.080, 576.841 424.073 C 586.022 417.256, 587.909 415.418, 587.542 413.648 C 587.296 412.467, 586.346 402.725, 585.429 392 C 584.512 381.275, 583.590 372.312, 583.379 372.081 C 583.168 371.851, 561.725 372.224, 535.727 372.910 C 485.316 374.241, 478.269 373.940, 464.525 369.871 C 451.987 366.159, 441.126 359.408, 437.317 352.960 C 436.356 351.332, 435.328 350.047, 435.034 350.104 C 434.740 350.161, 425.500 353.141, 414.500 356.726 M 492.655 615.597 C 470.401 619.617, 445.228 632.450, 420 652.635 C 404.690 664.885, 367 704.192, 367 707.910 C 367 708.917, 386.495 714.083, 401 716.920 C 430.407 722.671, 456.198 725.006, 498.103 725.711 L 531.706 726.276 532.431 720.888 C 535.031 701.573, 534.794 669.657, 531.931 653.500 C 529.003 636.978, 523.441 621.227, 518.784 616.270 C 516.891 614.255, 515.743 614.010, 508.576 614.090 C 504.134 614.139, 496.970 614.817, 492.655 615.597 " stroke="none" fill="black" fill-rule="evenodd"/>
</svg>