<svg xmlns="http://www.w3.org/2000/svg" width="1000" height="1000" viewBox="0 0 1000 1000" version="1.1">
	<path d="M 420.750 81.257 C 407.627 83.902, 401 85.662, 401 86.500 C 401 87.193, 403.485 101.381, 406.521 118.027 C 414.866 163.771, 432 267.629, 432 272.470 C 432 273.131, 426.262 276.062, 419.250 278.983 C 389.304 291.456, 350.163 311.833, 313.114 334.237 C 269.547 360.582, 192.173 414.402, 193.372 417.526 C 193.964 419.069, 217.816 449.768, 218.983 450.490 C 219.441 450.772, 222.219 449.099, 225.158 446.771 C 235.224 438.796, 272.978 412.161, 293.240 398.740 C 330.214 374.249, 363.314 354.621, 393.500 339.284 C 413.912 328.914, 438.424 317.798, 438.697 318.787 C 440.292 324.557, 449.975 408.386, 449.116 408.991 C 448.718 409.271, 442.342 413.819, 434.946 419.099 C 427.551 424.378, 410.025 436.718, 396 446.521 C 352.801 476.716, 334.104 490.548, 320.500 502.376 C 305.509 515.410, 241.263 580.607, 234.746 589.400 C 208.516 624.791, 205.319 655.055, 224.788 683.678 C 229.254 690.244, 243.076 703.895, 250.265 708.839 C 265.344 719.211, 278.237 722.769, 311.616 725.770 L 319.732 726.500 307.817 740.901 C 301.264 748.822, 296.262 755.609, 296.701 755.984 C 297.141 756.359, 306.305 764.127, 317.068 773.245 C 356.876 806.973, 376.022 824.921, 392.577 844.025 C 403.378 856.489, 420.152 877.376, 428.500 888.755 C 431.800 893.254, 434.916 896.949, 435.425 896.967 C 435.934 896.985, 445.907 891.767, 457.587 885.372 L 478.824 873.743 481.419 860.122 C 488.242 824.303, 494.187 773.781, 498.494 715 C 499.321 703.725, 499.997 693.553, 499.998 692.396 C 500 690.526, 503.137 689.265, 528.250 681.041 C 573.452 666.237, 625.937 647.041, 660.500 632.670 L 673.500 627.264 673.251 616.882 C 672.739 595.522, 667.223 550.457, 661.985 524.840 C 658.092 505.799, 641.895 437.448, 640.891 435.824 C 640.275 434.826, 635.667 435.638, 619.925 439.519 C 608.828 442.254, 599.556 444.992, 599.322 445.604 C 599.087 446.216, 601.646 458.143, 605.008 472.108 C 613.903 509.058, 619.624 534.853, 621.948 548.500 C 623.939 560.187, 627.986 592.386, 627.995 596.606 C 628.001 598.965, 622.960 601.099, 580.500 616.709 C 559.286 624.508, 505.544 643, 504.091 643 C 503.745 643, 503.470 615.887, 503.481 582.750 C 503.493 543.420, 503.050 516.077, 502.205 504 C 500.976 486.452, 497.532 444.272, 496.448 433.500 L 495.944 428.500 506.222 420.848 C 543.711 392.937, 576.306 360.011, 586.732 339.522 C 592.964 327.273, 595.573 314.409, 593.951 303.922 C 590.151 279.353, 565.837 260.402, 532.365 255.917 C 521.970 254.525, 501.427 255.284, 489.500 257.501 C 485.100 258.319, 479.902 259.259, 477.949 259.590 L 474.397 260.192 472.142 244.846 C 466.597 207.120, 445.260 82.891, 443.529 78.250 C 442.947 76.690, 444.255 76.518, 420.750 81.257 M 503 299.650 C 495.099 300.845, 483.149 303.290, 482.131 303.919 C 481.239 304.471, 481.938 312.184, 484.957 335.076 C 487.163 351.809, 489.313 368.308, 489.734 371.740 L 490.500 377.980 501 369.302 C 515.119 357.634, 538.613 333.957, 543.697 326.273 C 549.054 318.176, 551.702 311.346, 550.337 309.142 C 548.785 306.636, 537.164 301.103, 531.114 299.991 C 526.004 299.051, 508.374 298.838, 503 299.650 M 712.243 337.716 L 701.284 356.447 708.574 361.473 C 722.181 370.854, 732.458 379.467, 745.597 392.500 C 786.032 432.609, 801.994 468.814, 810.629 540.010 C 811.930 550.738, 812.401 562.353, 812.443 584.749 C 812.493 611.213, 812.692 614.998, 814.030 614.999 C 814.872 615, 824.492 615.918, 835.407 617.041 C 846.322 618.163, 855.533 618.800, 855.876 618.457 C 857.296 617.036, 856.344 556.422, 854.651 540.500 C 851.335 509.306, 844.755 476.747, 837.373 455 C 824.882 418.203, 799.249 381.052, 765.560 350.921 C 753.803 340.405, 733.731 324.903, 726.903 321.066 L 723.203 318.986 712.243 337.716 M 419.926 483.150 C 382.172 509.614, 363.468 523.313, 352 532.900 C 338.963 543.800, 278.571 604.343, 271.120 613.984 C 262.251 625.459, 256.813 636.206, 256.213 643.445 C 255.565 651.254, 259.125 658.451, 267.684 666.640 C 280.287 678.696, 289.768 681.417, 319 681.366 C 340.013 681.329, 352.850 679.992, 381 674.910 C 403.381 670.869, 455.982 658.351, 457.669 656.665 C 457.898 656.435, 458.571 646.854, 459.163 635.374 C 460.616 607.219, 460.613 542.999, 459.157 519 C 457.803 496.670, 454.982 459.648, 454.605 459.272 C 454.466 459.132, 438.860 469.878, 419.926 483.150 M 438.500 707.068 C 401.708 716.600, 364.679 722.924, 332.036 725.253 C 328.640 725.495, 328.971 725.841, 349.036 742.991 C 390.734 778.632, 412.499 799.577, 431.919 822.754 C 437.100 828.936, 441.448 833.884, 441.581 833.747 C 441.714 833.611, 442.762 826.975, 443.909 819 C 449.724 778.554, 456.573 702.870, 454.397 703.091 C 453.904 703.141, 446.750 704.930, 438.500 707.068 " stroke="none" fill="black" fill-rule="evenodd"/>
</svg>