<svg xmlns="http://www.w3.org/2000/svg" width="1000" height="1000" viewBox="0 0 1000 1000" version="1.1">
	<path d="M 331.258 111.285 C 324.241 120.712, 318.512 128.667, 318.527 128.962 C 318.578 129.969, 334.465 139.957, 345.871 146.153 C 377.566 163.373, 414.670 176.300, 450.815 182.716 C 465.381 185.301, 468.355 185.496, 492.500 185.450 C 514.691 185.407, 520.396 185.074, 531.441 183.172 C 549.777 180.016, 574.676 173.412, 577.324 171.002 C 578.055 170.337, 563.769 133.742, 561.972 131.679 C 561.579 131.227, 557.487 131.995, 552.879 133.386 C 515.139 144.775, 477.902 145.298, 437 135.012 C 407.849 127.681, 376.344 114.442, 352.648 99.565 L 344.017 94.146 331.258 111.285 M 273.576 276.633 C 263.909 283.030, 256 288.626, 256 289.067 C 256 290.703, 268.643 305.828, 278.412 315.879 C 307.755 346.069, 340.560 365.616, 374 372.833 C 382.389 374.644, 404.171 377.479, 415.500 378.233 C 419.321 378.488, 419.009 378.697, 408.500 382.920 C 299.616 426.666, 233.822 470.599, 211.904 514.190 C 198.174 541.499, 199.812 570.166, 216.433 593.458 C 236.443 621.499, 274.056 637.451, 337.320 644.727 C 349.596 646.139, 361.252 646.475, 398.250 646.486 C 423.413 646.494, 444 646.626, 444 646.781 C 444 646.935, 442.881 653.118, 441.514 660.521 C 437.424 682.669, 435.876 697.356, 435.285 719.634 C 434.646 743.742, 435.842 760.214, 439.596 779 C 446.214 812.116, 459.543 839.164, 479.466 859.904 C 498.152 879.355, 517.031 890.491, 542 896.788 C 551.373 899.152, 554.378 899.436, 570 899.434 C 589.057 899.431, 597.044 898.286, 614.801 893.011 C 650.565 882.386, 692.591 856.795, 733.500 820.730 C 756.815 800.176, 791.864 763.486, 812.843 737.674 L 820.016 728.847 802.962 715.856 C 793.582 708.710, 785.537 703.007, 785.083 703.182 C 784.629 703.357, 780.969 707.550, 776.949 712.500 C 747.697 748.527, 709.847 785.628, 677.166 810.311 C 644.971 834.626, 610.551 851.356, 585.122 855.050 C 573.519 856.736, 556.411 855.795, 547.500 852.982 C 516.634 843.238, 493.911 816.700, 484.430 779.321 C 480.678 764.534, 479 748.861, 479 728.622 C 479 707.927, 480.097 694.804, 483.546 674.258 C 487.272 652.062, 489.856 642.002, 491.833 641.991 C 494.743 641.976, 527.924 638.139, 543.500 636.017 C 574.733 631.762, 609.161 626.017, 638.500 620.165 L 647.500 618.369 647.500 597.935 L 647.500 577.500 642.372 562.500 C 619.437 495.410, 589.791 462, 553.195 462 C 539.363 462, 529.918 466.177, 518.950 477.145 C 500.038 496.057, 475.916 542.034, 460.018 589.472 L 456.341 600.443 452.421 601.400 C 450.218 601.938, 427.026 602.389, 399.500 602.429 C 357.793 602.489, 348.416 602.231, 336.500 600.694 C 278.537 593.215, 248.857 577.390, 246.298 552.598 C 245.617 546.003, 249.052 535.758, 254.766 527.345 C 276.524 495.304, 335.291 459.385, 423.275 424.349 C 461.384 409.174, 502.072 395.241, 539.393 384.585 C 548.134 382.089, 555.479 379.855, 555.713 379.620 C 556.125 379.208, 547.013 331.904, 546.369 331.109 C 546.195 330.895, 539.403 331.473, 531.276 332.395 C 478.849 338.341, 408.433 336.777, 378.770 329.008 C 363.438 324.992, 346.718 316.417, 330.537 304.274 C 320.651 296.854, 303.401 279.826, 297 271.167 C 294.525 267.820, 292.197 265.062, 291.826 265.040 C 291.456 265.018, 283.243 270.235, 273.576 276.633 M 548.945 508.937 C 539.069 519.319, 521.408 551.477, 510.742 578.500 C 502.931 598.288, 503.139 597.239, 507.163 596.563 C 508.998 596.255, 516.125 595.317, 523 594.480 C 551.681 590.986, 600.971 583.318, 602.198 582.159 C 603.049 581.355, 593.878 556.781, 588.239 544.760 C 583.760 535.211, 575.263 521.647, 570.020 515.676 C 565.982 511.077, 559.521 506.552, 555.640 505.605 C 553.172 505.002, 552.253 505.460, 548.945 508.937 " stroke="none" fill="black" fill-rule="evenodd"/>
</svg>