<svg xmlns="http://www.w3.org/2000/svg" width="1000" height="1000" viewBox="0 0 1000 1000" version="1.1">
	<path d="M 315.009 107.870 L 298.806 122.500 315.429 138.719 C 342.987 165.608, 370.455 186.246, 394.457 198.096 C 401.034 201.343, 407.034 204, 407.791 204 C 410.373 204, 408.500 205.824, 397.521 213.998 C 382.221 225.390, 372.074 234.170, 360.947 245.647 C 344.697 262.408, 315.059 300.589, 295.136 330.429 L 284.500 346.358 283.500 368.776 C 282.950 381.106, 282.725 391.295, 283 391.419 C 284.249 391.981, 371.672 390.061, 390 389.069 C 454.860 385.560, 478.571 382.809, 528.532 372.994 C 556.998 367.401, 571.659 365.508, 577.281 366.699 L 581.061 367.500 574.659 375.500 C 553.353 402.123, 488.093 456.683, 405.500 516.922 C 357.528 551.910, 290.712 595.024, 242.778 621.920 C 229.448 629.400, 228.001 630.479, 227.468 633.340 C 227.145 635.078, 225.407 645.615, 223.608 656.757 L 220.336 677.013 223.918 677.944 C 225.888 678.457, 239.875 682.081, 255 685.999 C 270.125 689.916, 296 696.903, 312.500 701.525 C 559.877 770.816, 730.036 844.368, 763.568 896.500 C 765.691 899.800, 767.488 902.619, 767.561 902.764 C 767.723 903.085, 806.207 887.126, 806.870 886.463 C 807.841 885.492, 802.285 875.263, 796.627 867.606 C 760.444 818.635, 656.604 765.864, 481.500 707.459 C 426.420 689.088, 343.768 664.252, 289.500 649.766 L 284.500 648.431 296 641.523 C 349.488 609.391, 407.661 570.291, 456.500 533.646 C 564.953 452.272, 617.004 403.301, 626.032 374.145 C 632.010 354.840, 624.365 339.023, 604.422 329.430 C 594.756 324.781, 585.931 323.037, 572 323.023 C 558.481 323.010, 549.492 324.271, 515.638 330.928 C 487.217 336.518, 469.140 339.190, 444.500 341.444 C 422.824 343.427, 384.439 345.702, 357.538 346.598 L 336.575 347.297 338.455 344.399 C 342.898 337.548, 357.478 318.165, 371.100 301 C 401.008 263.312, 427.936 241.869, 475 218.262 L 482.500 214.500 482.770 193.929 L 483.039 173.359 466.770 172.216 C 435.407 170.014, 415.617 162.706, 387.973 143.117 C 375.148 134.028, 356.402 118.075, 342.856 104.720 L 331.212 93.240 315.009 107.870 " stroke="none" fill="black" fill-rule="evenodd"/>
</svg>