<svg xmlns="http://www.w3.org/2000/svg" width="1000" height="1000" viewBox="0 0 1000 1000" version="1.1">
	<path d="M 615.500 97.942 C 598.277 102.900, 595.520 103.964, 595.646 105.600 C 595.727 106.645, 597.837 116.393, 600.337 127.262 C 605.615 150.216, 610.104 175.646, 612.999 199 C 615.454 218.801, 617.622 260.274, 616.612 268.122 L 615.888 273.743 611.595 274.332 C 606.863 274.981, 586.909 273.583, 577.500 271.943 C 552.620 267.609, 517.650 254.355, 491.893 239.499 C 487.603 237.025, 483.694 235, 483.205 235 C 482.415 235, 459 269.300, 459 270.457 C 459 271.268, 475.789 280.877, 487.229 286.615 C 525.019 305.567, 569.528 317.980, 599.750 317.995 C 607.139 317.999, 609 318.290, 609 319.442 C 609 321.423, 600.374 345.715, 594.065 361.500 C 575.940 406.847, 549.403 459.942, 522.092 505.500 C 516.816 514.300, 512.500 522.017, 512.500 522.648 C 512.500 523.280, 519.677 532.656, 528.448 543.484 C 543.614 562.203, 544.539 563.142, 547.289 562.592 C 548.879 562.274, 592.396 550.761, 643.994 537.007 C 695.591 523.253, 738.056 512, 738.360 512 C 738.664 512, 733.392 519.313, 726.645 528.250 C 676.404 594.803, 648.425 656.069, 640.446 717 C 638.398 732.639, 638.880 766.953, 641.330 780.013 C 648.825 819.955, 668.370 849.495, 702.500 872.464 C 730.023 890.986, 774.989 904.639, 815.270 906.704 L 827.040 907.307 826.770 885.404 L 826.500 863.500 821 863.265 C 802.384 862.470, 777.549 857.837, 760.635 852.004 C 739.910 844.858, 724.363 836.024, 712.018 824.378 C 703.103 815.968, 697.145 807.740, 692.079 796.844 C 676.617 763.583, 679.873 711.429, 700.684 659 C 720.705 608.563, 757.954 552.785, 801.250 508.406 C 808.813 500.655, 815 494.034, 815 493.695 C 815 493.355, 809.807 483.910, 803.460 472.706 L 791.920 452.335 766.710 459.057 C 624.853 496.880, 570.814 511.146, 570.525 510.851 C 570.337 510.658, 573.778 503.975, 578.171 496 C 589.167 476.041, 614.157 425.766, 622.410 407 C 636.987 373.855, 649.938 338.534, 653.973 320.921 L 656.167 311.342 663.334 309.518 C 686.088 303.725, 723.851 289.592, 753.772 275.670 C 768.572 268.784, 800.811 252.077, 803.676 249.809 C 804.528 249.135, 801.934 243.994, 794.280 231.189 C 788.465 221.460, 783.373 213.122, 782.964 212.660 C 782.555 212.198, 776.749 214.829, 770.063 218.506 C 742.698 233.556, 708.181 248.792, 678.267 259.024 C 668.658 262.311, 660.719 265, 660.627 265 C 660.534 265, 660.347 257.462, 660.212 248.250 C 659.553 203.403, 651.282 146.861, 637.904 95.750 C 637.365 93.688, 636.603 92.042, 636.211 92.092 C 635.820 92.143, 626.500 94.776, 615.500 97.942 M 227.538 129.183 C 226.551 134.843, 217.204 214.055, 211.995 260.894 C 198.112 385.729, 190.562 477.113, 188.479 545.500 C 186.589 607.568, 199.426 739.448, 218.361 852.500 L 221.710 872.500 230.105 872.180 C 234.722 872.004, 245.247 871.104, 253.494 870.180 L 268.488 868.500 269.322 863 C 269.781 859.975, 271.947 848.500, 274.134 837.500 C 285.620 779.742, 302.463 720.760, 317.567 685.396 C 327.696 661.683, 351.008 617.382, 370.866 584.109 C 375.919 575.645, 379.928 568.599, 379.776 568.452 C 378.406 567.125, 344.259 546.016, 343.500 546.026 C 341.195 546.055, 310.266 600.753, 292.585 636.070 C 275.562 670.073, 264.005 700.109, 252.650 739.863 C 247.573 757.636, 248.501 759.226, 244.556 726 C 234.387 640.368, 230.802 580.642, 232.832 530.674 C 236.108 450.007, 247.006 332.868, 265.587 178.607 C 268.627 153.366, 270.751 132.402, 270.307 132.020 C 269.863 131.638, 261.400 130.333, 251.500 129.120 C 241.600 127.908, 232.289 126.680, 230.808 126.391 C 228.397 125.921, 228.055 126.213, 227.538 129.183 " stroke="none" fill="black" fill-rule="evenodd"/>
</svg>