<svg xmlns="http://www.w3.org/2000/svg" width="1000" height="1000" viewBox="0 0 1000 1000" version="1.1">
	<path d="M 467.500 73.008 C 457.050 76.756, 448.567 80.200, 448.649 80.661 C 448.731 81.123, 451.798 90.725, 455.465 102 C 463.568 126.919, 473.475 161.007, 478.871 182.537 C 482.796 198.198, 488.510 224.730, 489.167 230.346 L 489.500 233.191 470.500 239.455 C 380.141 269.244, 335 310.589, 335 363.563 C 335 393.853, 348.009 419.692, 375.560 444.123 C 390.368 457.254, 421.516 476.228, 441.898 484.534 L 447.296 486.734 424.332 495.826 C 314.737 539.214, 248.950 545.071, 219.682 514.045 C 205.655 499.176, 199.019 476.658, 199.006 443.881 C 198.999 428.021, 200.483 417.185, 204.666 402.548 C 212.965 373.511, 233.118 335.386, 256.760 304 L 263.163 295.500 259.331 292.170 C 257.224 290.339, 249.728 284.086, 242.672 278.276 C 227.670 265.921, 230.670 265.318, 217.611 283.310 C 187.413 324.917, 165.592 371.118, 157.975 409.582 C 155.237 423.406, 154.308 448.059, 155.905 464.500 C 161.914 526.354, 191.777 563.284, 245 574.680 C 252.010 576.181, 257.881 576.486, 278.500 576.419 C 300.894 576.346, 305.035 576.062, 318.228 573.702 C 365.383 565.267, 406.891 551.223, 495.500 513.723 C 516.950 504.645, 540.350 494.870, 547.500 491.999 C 554.650 489.129, 584.575 474.947, 614 460.483 C 684.390 425.883, 706.912 416.249, 734.049 409.130 C 750.141 404.909, 759.457 403.658, 770.733 404.204 C 782.126 404.757, 787.792 406.825, 793.219 412.414 C 801.172 420.602, 800.535 424.564, 789.511 435.500 C 767.299 457.535, 720.963 482.197, 619.500 525.985 C 517.466 570.019, 491.449 582.441, 465 599.748 C 434.300 619.837, 423.580 641.975, 434.064 663.632 C 438.859 673.538, 451.878 684.238, 466.572 690.350 C 486.284 698.549, 524.553 706.067, 559.138 708.534 L 568.776 709.221 569.497 691.361 C 569.893 681.537, 570.281 671.709, 570.359 669.520 L 570.500 665.539 556.500 664.284 C 526.290 661.575, 498.089 656.009, 483.224 649.821 L 475.613 646.652 480.424 642.419 C 487.490 636.200, 504.721 626.203, 528.500 614.523 C 551.262 603.343, 563.105 598.038, 624.286 571.610 C 680.689 547.247, 698.173 539.390, 724.581 526.542 C 796.554 491.525, 830.576 465.236, 840.147 437.243 C 843.447 427.591, 843.286 415.015, 839.744 405.865 C 833.706 390.266, 820.622 375.510, 806.748 368.655 C 776.236 353.579, 735.086 358.410, 672.802 384.381 C 652.204 392.970, 631.524 402.732, 592.500 422.288 C 548.581 444.296, 528.603 453.303, 528.153 451.298 C 527.797 449.712, 530.692 408.990, 531.560 403.377 L 532.043 400.255 540.271 399.541 C 555.134 398.252, 592.450 391.662, 594.316 389.997 C 595.157 389.246, 586.350 350.143, 585.010 348.679 C 584.596 348.228, 578.688 348.981, 571.879 350.354 C 556.622 353.430, 536.098 356.431, 535.361 355.695 C 535.061 355.394, 535.267 345.215, 535.819 333.074 C 536.815 311.164, 536.843 310.976, 539.545 307.750 C 543.823 302.642, 568.383 277.622, 581.124 265.391 L 592.696 254.282 584.098 235.116 L 575.500 215.950 570.500 216.585 C 563.786 217.437, 537.951 221.723, 534.877 222.495 C 532.484 223.095, 532.380 222.875, 530.635 213.533 C 524.510 180.734, 513.134 138.424, 496.414 86.250 C 491.237 70.093, 489.579 66.019, 488.213 66.096 C 487.271 66.149, 477.950 69.259, 467.500 73.008 M 478.500 282.944 C 452.046 291.974, 431.973 301.310, 414.500 312.709 C 401.397 321.258, 387.667 335.028, 383.299 344 C 367.626 376.192, 390.211 410.138, 445.779 437.906 C 458.056 444.041, 479.649 453, 482.160 453 C 483.352 453, 483.948 448.772, 485.366 430.250 C 486.324 417.738, 487.359 405.593, 487.666 403.262 C 488.132 399.719, 487.918 398.926, 486.362 398.430 C 473.167 394.229, 464.478 387.903, 459.462 378.848 C 456.680 373.826, 456.501 372.830, 456.510 362.500 C 456.520 352.036, 456.698 351.096, 460.168 343.208 C 464.968 332.297, 472.398 320.568, 483.790 305.920 L 493.080 293.974 492.790 286.070 L 492.500 278.166 478.500 282.944 M 438.503 723.567 C 428.727 729.235, 420.344 734.256, 419.874 734.726 C 417.663 736.937, 438.052 758.729, 451.754 768.796 C 455.194 771.324, 457.669 773.683, 457.254 774.038 C 456.839 774.394, 452.900 775.933, 448.500 777.459 C 418.719 787.787, 395.262 803.686, 385.145 820.400 C 378.740 830.982, 376.712 837.492, 376.236 849 C 375.417 868.769, 380.638 881.952, 394.869 896.050 C 402.342 903.453, 405.044 905.367, 415 910.312 C 435.750 920.616, 457.793 924.858, 495 925.705 C 527.219 926.439, 554.095 924.592, 592.846 918.981 C 608.307 916.743, 625.798 913.535, 626.529 912.804 C 626.907 912.426, 621.537 885.307, 618.527 872.401 C 618.048 870.346, 617.884 870.331, 610.769 871.685 C 558.415 881.650, 494.618 885.031, 462.500 879.542 C 443.873 876.359, 426.967 869.178, 422.672 862.623 C 420.066 858.645, 418.817 852.321, 419.879 848.478 C 426.161 825.724, 493.763 803.509, 569.151 799.426 C 576.109 799.049, 582.345 798.405, 583.009 797.994 C 583.937 797.421, 583.557 791.514, 581.370 772.516 L 578.523 747.784 565.012 748.642 C 544.419 749.950, 515.876 749.435, 506.500 747.588 C 493.120 744.951, 479.288 736.498, 465.389 722.463 L 456.278 713.263 438.503 723.567 " stroke="none" fill="black" fill-rule="evenodd"/>
</svg>