<svg xmlns="http://www.w3.org/2000/svg" width="1000" height="1000" viewBox="0 0 1000 1000" version="1.1">
	<path d="M 369 85.527 C 359.925 86.228, 351.110 86.847, 349.410 86.901 L 346.320 87 346.250 115.250 C 346.058 191.409, 334.613 268.863, 313.599 336.203 C 298.688 383.985, 270.778 454.582, 241.923 517.500 C 232.386 538.295, 204.218 594.984, 195.009 611.914 C 191.051 619.191, 187.967 625.291, 188.156 625.469 C 188.345 625.648, 197.685 630.137, 208.911 635.445 C 224.610 642.869, 229.526 644.798, 230.205 643.799 C 230.691 643.084, 233.492 637.775, 236.429 632 C 262.851 580.059, 310.734 506.857, 353.846 452.500 C 390.593 406.167, 437.654 358.531, 475 329.864 C 534.087 284.510, 592.446 263.075, 645.995 267.058 C 712.194 271.982, 749.612 305.151, 755.064 363.741 C 758.496 400.619, 744.546 449.564, 718.937 490.500 C 704.225 514.015, 682.307 540.227, 662 558.589 C 642.152 576.536, 596.539 611.030, 563.637 632.972 C 533.676 652.953, 515.534 663.139, 493.288 672.469 L 482.077 677.171 492.543 698.086 C 498.299 709.589, 503.368 719, 503.807 719 C 504.246 719, 512.570 716.292, 522.305 712.983 C 580.098 693.335, 648.906 681.804, 689.492 684.966 C 711.977 686.717, 725.901 690.632, 738 698.603 C 747.736 705.018, 752.664 712.235, 755.489 724.219 C 763.835 759.617, 740.208 792.313, 683.500 823.838 C 658.516 837.727, 628.820 850.018, 576.570 868.094 C 563.959 872.457, 553.485 876.182, 553.295 876.372 C 552.831 876.836, 566.036 915.268, 567.036 916.362 C 568.279 917.722, 617.862 900.712, 647.500 888.758 C 731.300 854.959, 778.880 817.124, 795.385 771.162 C 803.935 747.354, 802.281 716.752, 791.242 694.500 C 785.559 683.045, 773.754 669.653, 762.678 662.095 C 750.715 653.932, 732.224 647.005, 713 643.485 C 699.212 640.960, 660.249 640.352, 640.521 642.355 C 632.282 643.191, 625.434 643.768, 625.303 643.637 C 625.172 643.506, 631.665 638.471, 639.732 632.449 C 669.978 609.870, 684.588 597.537, 703.566 578.562 C 723.085 559.047, 732.507 548.009, 745.705 529.197 C 766.835 499.078, 783.169 464.647, 791.411 432.846 C 797.625 408.875, 798.459 402.075, 798.450 375.500 C 798.440 349.066, 797.256 340.622, 790.878 321.500 C 775.941 276.721, 740.607 244.167, 692.157 230.544 C 668.942 224.017, 635.045 221.289, 609.886 223.924 C 548.960 230.303, 486.960 260.943, 422.016 316.769 C 398.938 336.606, 368.393 367.468, 345.868 393.707 C 340.798 399.613, 336.931 403.558, 337.273 402.473 C 337.616 401.388, 342.553 386.775, 348.245 370 C 366.415 316.447, 376.492 272.844, 383.488 217.500 C 388.096 181.053, 389.349 160.789, 389.427 121.500 C 389.499 85.182, 389.463 84.498, 387.500 84.376 C 386.400 84.308, 378.075 84.826, 369 85.527 " stroke="none" fill="black" fill-rule="evenodd"/>
</svg>