<svg xmlns="http://www.w3.org/2000/svg" width="1000" height="1000" viewBox="0 0 1000 1000" version="1.1">
	<path d="M 318.750 127.244 C 306.224 131.733, 299 134.820, 299 135.683 C 299 138.042, 306.584 152.248, 312.812 161.553 C 326.013 181.279, 343.662 196.721, 365.330 207.504 C 391.968 220.760, 417.346 226.710, 443.288 225.781 C 450.322 225.530, 456.454 224.913, 456.917 224.412 C 457.379 223.910, 455.705 214.162, 453.198 202.750 L 448.639 182 438.226 182 C 416.095 182, 389.692 173.519, 371.574 160.590 C 360.223 152.490, 348.864 138.922, 342.401 125.746 C 340.851 122.586, 339.340 120.037, 339.042 120.083 C 338.744 120.129, 329.613 123.351, 318.750 127.244 M 224.738 332.750 C 213.376 352.208, 206.755 364.081, 207.102 364.375 C 208.999 365.988, 233.247 378.712, 249 386.362 C 278.947 400.903, 288.496 403.698, 331.490 410.506 C 344.135 412.508, 354.646 414.313, 354.849 414.516 C 355.553 415.220, 296.449 486.404, 270.172 516.500 C 250.814 538.670, 248.405 540.998, 138.274 643.943 C 130.953 650.787, 125.120 656.861, 125.314 657.441 C 125.910 659.229, 153.446 692.903, 154.353 692.953 C 154.822 692.979, 172.147 684.504, 192.853 674.120 C 343.315 598.662, 390 575.362, 390 575.726 C 390 575.956, 385.782 584.099, 380.626 593.822 C 348.919 653.617, 328.497 708.426, 322.450 749.957 C 320.148 765.771, 320.835 792.103, 323.848 803.500 C 328.707 821.880, 339.287 837.272, 355.157 849.051 C 394.828 878.494, 480.420 895.678, 569.231 892.030 C 638.292 889.193, 688.807 876.686, 713.514 856.306 C 731.399 841.553, 737.645 822.878, 738.729 780.907 C 739.789 739.832, 733.493 704.923, 714.666 647.500 C 704.662 616.987, 697.461 593.050, 685.487 550.500 C 680.689 533.450, 676.622 519.344, 676.451 519.153 C 676.212 518.887, 647.715 526.400, 636.750 529.621 C 635.788 529.903, 635 530.706, 635 531.405 C 635 535.417, 662.125 628.147, 672.366 659.143 C 689.439 710.819, 695.222 739.854, 695.243 774 C 695.254 791.377, 694.455 799.304, 691.388 812.239 C 689.438 820.462, 686.321 823.577, 674.517 829.097 C 629.625 850.091, 528.236 855.048, 452 839.976 C 405.710 830.824, 376.436 816.505, 368.679 799.220 C 358.280 776.046, 367.106 728.736, 392.973 669 C 409.898 629.914, 434.359 584.195, 458.021 547.418 L 467.886 532.086 450.899 518.061 L 433.912 504.037 346.622 548.018 C 298.613 572.208, 259.145 592.004, 258.916 592.010 C 258.687 592.015, 266.382 584.028, 276.016 574.260 C 300.691 549.241, 352.889 487.955, 400.161 428.500 L 409.702 416.500 407.101 396.833 C 405.670 386.016, 404.226 376.892, 403.890 376.557 C 403.555 376.221, 395.680 375.039, 386.390 373.929 C 331.477 367.369, 300.205 361.428, 283.867 354.452 C 274.516 350.460, 245.908 336.166, 236.154 330.613 C 232.664 328.626, 229.423 327, 228.952 327 C 228.481 327, 226.585 329.587, 224.738 332.750 M 749.988 357.131 C 743.656 357.528, 732.795 359.004, 725.853 360.409 C 713.665 362.877, 691.617 369.049, 690.306 370.361 C 689.789 370.878, 703.317 409.650, 704.388 410.721 C 704.557 410.890, 710.460 409.449, 717.506 407.518 C 749.685 398.698, 770.578 397.963, 782.849 405.218 C 790.784 409.910, 803.590 423.161, 811.525 434.891 L 818.348 444.977 824.424 441.617 C 827.766 439.768, 836.018 435.222, 842.762 431.513 C 849.506 427.805, 855.289 424.342, 855.613 423.817 C 856.743 421.990, 842.113 401.450, 831.527 390 C 806.428 362.853, 786.540 354.836, 749.988 357.131 " stroke="none" fill="black" fill-rule="evenodd"/>
</svg>