<svg xmlns="http://www.w3.org/2000/svg" width="1000" height="1000" viewBox="0 0 1000 1000" version="1.1">
	<path d="M 280.361 99.250 C 280.684 101.588, 281.650 110.475, 282.507 119 C 284.494 138.759, 284.550 139, 287.181 139 C 291.318 139, 297.483 143.633, 300.346 148.895 C 306.351 159.927, 307.398 176.477, 303.958 206 C 292.384 305.346, 282.011 415.873, 274.146 523.664 L 273.331 534.827 269.024 539.972 C 266.655 542.801, 264.415 544.753, 264.046 544.308 C 263.677 543.864, 261.887 539.450, 260.067 534.500 C 246.302 497.060, 226.601 473.166, 204.068 466.586 C 197.371 464.630, 185.260 464.555, 178.232 466.426 C 166.359 469.587, 148.174 480.231, 136.804 490.676 C 110.233 515.084, 95.193 546.977, 88.312 593.500 C 85.785 610.587, 85.815 660.247, 88.366 681.500 C 91.607 708.517, 96.491 734.490, 102.705 757.754 L 105.443 768.008 129.472 782.866 C 142.687 791.038, 154.025 798.014, 154.666 798.369 C 155.425 798.789, 160.693 789.508, 169.771 771.757 C 186.408 739.222, 201.140 712.473, 217.001 686 C 234.904 656.119, 242.609 644.538, 243.332 646.422 C 244.298 648.940, 250.684 692.312, 253.429 715 C 260.207 771.022, 264.279 824.240, 267.604 900.265 L 268.206 914.030 275.853 913.445 C 280.059 913.124, 291.478 912.301, 301.229 911.618 C 310.980 910.935, 319.274 910.060, 319.659 909.674 C 320.744 908.589, 317.037 787.287, 313.388 704.500 C 311.379 658.896, 312.063 614.846, 315.605 561.778 L 316.254 552.056 332.266 533.778 C 351.109 512.269, 368.259 493.217, 390.805 468.744 C 399.802 458.979, 407.014 450.588, 406.831 450.099 C 406.454 449.087, 377.221 421.652, 376.055 421.216 C 375.374 420.961, 348.089 450.227, 328.957 471.733 C 324.929 476.261, 321.541 479.861, 321.428 479.733 C 321.194 479.466, 321.760 472.595, 326.553 417.500 C 332.393 350.368, 340.917 265.806, 346.562 219 C 352.156 172.623, 350.581 152.103, 339.733 130 C 334.563 119.466, 322.895 107.179, 313.314 102.179 C 305.571 98.138, 293.511 95, 285.726 95 L 279.773 95 280.361 99.250 M 664.922 214.494 C 627.230 221.607, 580.873 249.476, 527.500 297.109 C 520.900 302.999, 513.261 310.115, 510.525 312.922 L 505.550 318.025 520.513 333.013 C 528.742 341.256, 535.760 348, 536.108 348 C 536.456 348, 541.861 343.226, 548.120 337.391 C 589.537 298.780, 631.632 270.234, 661.661 260.396 C 669.172 257.935, 672.102 257.500, 681.164 257.500 C 691.422 257.500, 691.992 257.615, 696.140 260.531 C 698.512 262.198, 701.784 265.716, 703.412 268.349 C 705.892 272.360, 706.362 274.146, 706.313 279.374 C 706.189 292.598, 700.989 304.210, 678.495 341.500 C 656.230 378.411, 650.477 391.127, 647.872 409.180 C 644.926 429.600, 652.303 448.233, 668.485 461.244 C 679.704 470.264, 694.277 476.779, 735 490.981 C 775.948 505.261, 795.612 514.003, 813.545 525.904 C 833.258 538.985, 845.415 552.086, 854 569.500 C 868.401 598.710, 868.586 635.063, 854.580 683.721 C 849.305 702.049, 844.712 713.791, 835.500 732.500 C 789.764 825.387, 706.287 871.887, 617.559 853.900 C 594.864 849.299, 578.579 837.155, 562.143 812.575 L 555.058 801.980 567.845 789.240 C 592.536 764.639, 612.189 736.663, 628.077 703.500 C 634.218 690.682, 645 663.654, 645 661.079 C 645 659.187, 647.247 659.896, 658.500 665.336 C 682.981 677.172, 711.113 695.266, 736.276 715.361 C 740.783 718.960, 738.760 720.574, 755.407 700.097 L 767.928 684.695 759.214 677.849 C 728.945 654.072, 694.591 632.929, 667.656 621.500 L 655.872 616.500 656.473 611.734 C 661.989 567.954, 655.902 532.823, 638.604 508.597 C 615.818 476.687, 570.697 468.678, 536.826 490.532 C 523.560 499.091, 509.711 515.426, 501.244 532.500 C 492.496 550.141, 484.601 577.154, 481.515 600 C 480.587 606.875, 479.656 613.400, 479.447 614.500 C 479.211 615.740, 476.868 617.639, 473.283 619.495 C 470.102 621.143, 463.675 625.006, 459 628.079 C 415.724 656.535, 384.067 701.974, 373.362 751 C 370.714 763.129, 370.725 791.559, 373.382 801.500 C 377.188 815.744, 382.308 824.799, 392.164 834.716 C 403.748 846.372, 418.756 852, 438.253 852 C 457.855 852, 483.252 845.129, 506.893 833.432 C 513.827 830.001, 519.538 827.262, 519.583 827.347 C 519.629 827.431, 522.135 831.325, 525.152 836 C 544.788 866.428, 571.833 887.573, 600.500 894.910 C 644.538 906.182, 693.950 902.965, 736.570 886.050 C 768.008 873.573, 793.902 855.982, 820.084 829.317 C 838.244 810.822, 851.265 793.867, 864.487 771.500 C 894.464 720.789, 912.541 651.576, 908.076 604.606 C 904.569 567.724, 891.968 539.404, 868.036 514.626 C 843.178 488.888, 814.001 472.414, 759 453.060 C 710.227 435.898, 699.936 431.514, 694.250 425.479 C 690.160 421.138, 689.994 416.851, 693.507 406.383 C 696.956 396.110, 699.654 391.030, 716.020 364 C 736.782 329.709, 743.869 315.011, 748.049 297.578 C 750.415 287.713, 750.585 273.109, 748.442 264.015 C 743.040 241.094, 724.321 221.782, 701.314 215.394 C 693.302 213.169, 674.417 212.702, 664.922 214.494 M 179.864 513.324 C 161.780 523.630, 149.175 539.356, 140.476 562.468 C 128.699 593.756, 126.579 646.433, 134.989 698.827 C 137.075 711.824, 139.725 726.087, 140.655 729.318 C 141.010 730.551, 145.689 722.999, 155.215 705.818 C 179.358 662.274, 206.503 618.873, 224.798 594.565 L 230.770 586.629 228.883 579.822 C 217.409 538.416, 201.559 509, 190.723 509 C 188.702 509, 184.551 510.653, 179.864 513.324 M 567.205 523.894 C 553.519 528.621, 540.901 546.091, 532.637 571.755 C 529.288 582.155, 525.309 599.642, 526.109 600.442 C 526.325 600.658, 528.751 600.414, 531.501 599.900 C 549.885 596.464, 580.113 596.916, 602.419 600.962 C 608.493 602.063, 612.883 602.429, 613.463 601.882 C 614.013 601.363, 614.418 593.158, 614.407 582.737 C 614.386 562.273, 612.634 552.305, 606.975 540.447 C 599.640 525.078, 583.376 518.309, 567.205 523.894 M 546 642.045 C 537.235 643.124, 523.772 645.905, 521.995 647.003 C 519.544 648.518, 523.160 696.018, 527.551 720 C 529.488 730.577, 535.953 756.222, 536.954 757.298 C 537.781 758.187, 545.413 750.233, 555.066 738.420 C 565.798 725.286, 577.736 706.328, 586.500 688.500 C 595.601 669.987, 604.611 647.188, 603.314 645.953 C 600.142 642.933, 560.659 640.240, 546 642.045 M 468 675.755 C 433.762 704.207, 410.463 752.319, 415 785.198 C 416.983 799.565, 423.061 806.995, 434.069 808.509 C 440.270 809.362, 454.147 806.897, 467.187 802.625 C 479.233 798.680, 500 788.593, 500 786.688 C 500 785.976, 498.466 780.838, 496.591 775.271 C 487.291 747.654, 481.608 717.043, 478.195 676.180 L 477.500 667.861 468 675.755 " stroke="none" fill="black" fill-rule="evenodd"/>
</svg>