<svg xmlns="http://www.w3.org/2000/svg" width="1000" height="1000" viewBox="0 0 1000 1000" version="1.1">
	<path d="M 220 107.804 C 220 108.247, 218.670 117.134, 217.045 127.554 C 183.316 343.809, 161.799 600.717, 170.021 689 C 175.399 746.746, 189.805 803.138, 209.938 845.250 C 213.817 853.362, 217.451 860, 218.014 860 C 218.778 860, 251.596 842.605, 252.698 841.616 C 252.806 841.518, 253.627 835.377, 254.521 827.969 C 257.529 803.042, 265.207 766.345, 273.135 739 C 286.551 692.729, 305.796 650.353, 326.453 621.600 C 331.137 615.079, 331.899 613.471, 330.814 612.390 C 328.615 610.200, 298.545 587.042, 297.871 587.020 C 297.525 587.009, 294.375 591.054, 290.871 596.008 C 265.441 631.964, 243.777 680.534, 228.661 735.479 L 224.265 751.459 222.683 744.479 C 219.835 731.906, 217.064 715.107, 214.795 696.647 C 212.808 680.484, 212.565 673.908, 212.576 636.500 C 212.588 596.293, 213.149 580.676, 216.548 526 C 223.338 416.779, 238.753 276.359, 257.604 152 C 260.063 135.775, 262.338 120.635, 262.659 118.356 C 263.344 113.494, 266.017 114.450, 239.347 110.017 C 218.762 106.596, 220 106.738, 220 107.804 M 707 155.488 C 663.178 163.786, 611.019 194.062, 549.448 246.940 C 521.408 271.022, 485.628 305.875, 459.673 334.390 C 450.735 344.208, 449.081 346.505, 450.175 347.577 C 450.904 348.291, 458.250 354.739, 466.500 361.906 L 481.500 374.936 491.449 364.218 C 560.388 289.946, 626.749 235.427, 677.349 211.492 C 699.855 200.847, 721.342 195.760, 735.446 197.739 C 752.776 200.171, 764.733 209.678, 774.333 228.661 C 793.822 267.195, 774.556 324.603, 720.190 390 C 710.638 401.489, 676.035 436.809, 664.278 447.070 L 658.055 452.500 656.365 472.754 C 655.435 483.893, 654.885 493.218, 655.142 493.475 C 655.399 493.732, 661.659 494.904, 669.054 496.079 C 698.249 500.720, 719.360 512.420, 726.260 527.783 C 730.886 538.081, 727.514 559.650, 717.425 584.298 C 703.737 617.736, 683.465 644.062, 636.358 689.573 C 611.923 713.180, 598.836 727.138, 589.470 739.583 C 572.073 762.698, 563.756 784.581, 563.845 807 C 563.919 825.506, 568.421 836.371, 581.496 849.596 C 590.156 858.355, 598.734 863.964, 612.076 869.591 C 647.364 884.474, 709.702 890.742, 784.546 886.934 C 807.423 885.770, 835.845 883.489, 836.575 882.758 C 837.171 882.162, 832.379 841.046, 831.625 840.292 C 831.311 839.977, 824.854 840.248, 817.277 840.894 C 791.180 843.118, 770.426 843.982, 743 843.987 C 695.893 843.995, 665.242 840.700, 639.500 832.860 C 620.907 827.197, 609.008 818.890, 607.428 810.469 C 606.344 804.691, 609.325 791.935, 613.924 782.671 C 621.149 768.114, 629.580 758.268, 666.302 721.500 C 685.528 702.250, 705.305 681.817, 710.251 676.092 C 739.956 641.714, 757.706 609.307, 767.812 571 C 771.183 558.225, 771.377 556.614, 771.437 541 C 771.497 525.406, 771.347 524.066, 768.707 516.601 C 764.555 504.857, 758.665 495.577, 749.580 486.466 C 740.780 477.640, 732.628 471.889, 721 466.304 C 716.875 464.322, 713.316 462.547, 713.092 462.359 C 712.867 462.171, 718.729 455.825, 726.118 448.258 C 775.185 398.010, 808.170 346.520, 819.893 301.875 C 823.954 286.411, 825.286 276.688, 825.286 262.500 C 825.286 247.483, 823.734 237.377, 819.393 224.112 C 810.458 196.813, 792.340 174.331, 770.500 163.443 C 755.856 156.142, 750.036 154.812, 731 154.414 C 719.600 154.175, 712.182 154.507, 707 155.488 " stroke="none" fill="black" fill-rule="evenodd"/>
</svg>