<svg xmlns="http://www.w3.org/2000/svg" width="1000" height="1000" viewBox="0 0 1000 1000" version="1.1">
	<path d="M 208 106.251 C 208 106.389, 206.647 116.176, 204.992 128.001 C 181.644 294.905, 166.411 438.519, 159.807 554 C 158.147 583.035, 158.134 659.235, 159.787 678.500 C 165.193 741.536, 175.384 794.466, 188.620 828.256 C 193.838 841.574, 207.116 866.169, 208.751 865.542 C 209.475 865.264, 218.795 857.716, 229.462 848.768 C 247.753 833.426, 248.888 832.272, 249.403 828.500 C 249.704 826.300, 250.900 815.275, 252.062 804 C 254.618 779.195, 259.066 748.127, 262.586 730.500 C 267.068 708.055, 276.584 682.381, 293.267 647.722 C 298.069 637.745, 300.969 630.596, 300.422 630.088 C 299.003 628.771, 264.458 611, 263.317 611 C 262.125 611, 249.246 637.501, 240.474 658.004 C 228.111 686.900, 221.353 709.424, 217.072 736 C 215.876 743.425, 214.545 750.384, 214.113 751.464 C 212.839 754.658, 207.535 718.844, 204.419 686 C 202.273 663.383, 201.492 605.262, 202.898 572.887 C 207.367 470.023, 222.699 319.696, 245.648 153.726 C 248.749 131.301, 251.088 112.755, 250.847 112.513 C 250.453 112.120, 211.024 106, 208.881 106 C 208.396 106, 208 106.113, 208 106.251 M 489.037 120.402 C 485.104 130.748, 478.902 155.044, 475.867 172 C 474.148 181.606, 473.620 188.436, 473.587 201.500 C 473.539 220.680, 474.993 230.763, 480.649 250.500 C 486.034 269.288, 498.484 299, 500.973 299 C 501.873 299, 535.650 279.506, 537.270 278.052 C 537.693 277.672, 536.257 273.558, 534.079 268.910 C 526.233 252.167, 520.691 234.244, 517.935 216.702 C 515.358 200.297, 518.617 174.662, 526.924 146 C 529.076 138.575, 530.536 132.216, 530.168 131.869 C 529.358 131.104, 492.263 118, 490.908 118 C 490.381 118, 489.540 119.081, 489.037 120.402 M 749 140.475 L 728.500 145.615 728.342 159.058 C 727.851 200.972, 712.690 243.081, 676.092 304.176 C 673.546 308.426, 675.141 308.153, 642.237 309.966 C 619.407 311.224, 604.053 313.079, 583 317.123 C 532.087 326.904, 467.763 349.164, 416.500 374.741 C 409.350 378.308, 403.349 381.365, 403.164 381.533 C 402.892 381.781, 422.553 418.849, 423.447 419.772 C 423.591 419.921, 428.838 417.501, 435.105 414.393 C 486.609 388.856, 545.703 368.506, 594.500 359.504 C 611.489 356.370, 633.295 353.762, 638.959 354.188 L 643.117 354.500 630.924 371.500 C 609.409 401.497, 577.081 443.198, 552.649 472.466 C 548.992 476.847, 546 480.830, 546 481.316 C 546 482.885, 571.421 531, 572.250 531 C 572.691 531, 580.128 527.679, 588.776 523.620 C 626.852 505.749, 658.499 495.975, 679.329 495.652 C 691.080 495.470, 692.386 496.336, 690.827 503.273 C 687.644 517.442, 675.360 534.469, 638.071 576.403 C 594.615 625.271, 581.879 640.872, 566.562 664 C 539.797 704.414, 507.543 766.188, 498.163 795 C 496.165 801.136, 493 830.385, 493 842.709 L 493 847.297 507.750 846.621 C 547.770 844.787, 632.352 853.817, 676.352 864.621 C 704.891 871.628, 736.438 883.539, 765.482 898.271 C 773.721 902.451, 780.522 905.787, 780.594 905.685 C 780.666 905.583, 785.595 897.230, 791.547 887.121 C 801.965 869.429, 802.297 868.687, 800.434 867.248 C 796.731 864.386, 760.399 847.167, 745.500 841.213 C 730.614 835.265, 709.402 828.085, 695 824.120 C 664.607 815.752, 607.387 807.356, 558.077 804.028 C 549.594 803.455, 542.469 802.802, 542.243 802.576 C 541.134 801.467, 557.974 766.018, 570.781 742.500 C 600.585 687.772, 613.159 670.332, 664.511 612.500 C 701.998 570.282, 711.392 558.578, 721.497 541.500 C 730.903 525.603, 735 512.908, 735 499.661 C 735 476.532, 721.435 459.367, 698.540 453.522 C 690.752 451.533, 670.976 451.534, 659.381 453.524 C 648.398 455.408, 637.309 458.181, 625.307 462.042 C 620.252 463.669, 615.890 465, 615.615 465 C 615.340 465, 621.644 456.596, 629.624 446.324 C 651.725 417.874, 691.188 362.991, 695.977 354.043 L 697.229 351.704 728.364 352.309 C 767.611 353.072, 809.877 356.604, 837.743 361.450 C 843.156 362.391, 845.266 362.437, 845.546 361.620 C 845.915 360.545, 852.895 324.032, 853.302 321.049 C 853.540 319.305, 851.296 318.858, 825.500 315.516 C 797.654 311.908, 747.886 308.040, 728.873 308.006 L 725.245 308 736.932 284.750 C 756.841 245.141, 767.256 213.191, 771.056 180.069 C 772.363 168.679, 771.937 139.436, 770.427 136.896 C 769.612 135.523, 767.035 135.953, 749 140.475 " stroke="none" fill="black" fill-rule="evenodd"/>
</svg>