<svg xmlns="http://www.w3.org/2000/svg" width="1000" height="1000" viewBox="0 0 1000 1000" version="1.1">
	<path d="M 382.977 71.523 L 367.611 86.913 369.556 89.065 C 375.343 95.470, 397.932 111.934, 415.213 122.343 C 466.520 153.246, 534.221 174.894, 597.203 180.536 C 606.328 181.354, 605.354 183.154, 606.964 162.500 C 607.564 154.800, 608.316 146.167, 608.634 143.315 L 609.214 138.131 605.857 137.616 C 604.011 137.332, 596.425 136.364, 589 135.464 C 559.327 131.868, 524.105 123.297, 496 112.835 C 462.991 100.547, 424.541 78.964, 404.422 61.430 L 398.344 56.132 382.977 71.523 M 691.917 197.398 C 690.621 198.636, 584.758 222.528, 523 235.521 C 455.829 249.652, 418.230 252.623, 318.030 251.714 C 262.354 251.209, 244.523 250.598, 199.708 247.654 C 182.225 246.506, 181.909 246.521, 181.516 248.493 C 180.824 251.961, 177.992 289.326, 178.391 289.724 C 178.867 290.201, 214.621 292.573, 243 294.011 C 277.974 295.783, 365.178 296.407, 395.500 295.103 C 446.419 292.911, 476.826 289.542, 514.500 281.918 C 539.989 276.759, 615.984 260.420, 619.363 259.371 C 620.522 259.012, 619.181 261.205, 615.818 265.168 C 596.306 288.170, 590.742 308.717, 599.400 325.802 C 603.042 332.990, 612.047 342.271, 620.349 347.394 C 624.282 349.821, 632.900 353.877, 639.500 356.408 C 662.758 365.325, 662.515 365.039, 662.472 383.500 C 662.431 400.777, 658.427 414.239, 648.177 431.552 L 645.186 436.603 656.843 450.789 L 668.500 464.974 676 464.237 C 689.597 462.901, 719.695 463.553, 730 465.408 C 778.537 474.143, 800.898 499.531, 798.623 543.320 C 795.974 594.330, 768.301 642.231, 720.430 678.672 C 702.554 692.280, 678.182 706.463, 657.485 715.301 L 649.470 718.723 649.846 701.443 C 650.130 688.458, 649.809 681.719, 648.555 674.331 C 640.669 627.872, 609.604 594.024, 561.536 579.516 C 554.956 577.530, 549.506 575.814, 549.424 575.703 C 549.343 575.591, 548.532 570.238, 547.622 563.807 C 544.635 542.692, 538.312 525.511, 528.081 510.711 C 498.722 468.241, 442.547 455.186, 394 479.549 C 361.899 495.659, 340.173 523.878, 331.288 561 C 329.162 569.886, 328.711 574.565, 328.354 591.437 L 327.933 611.374 316.905 617.181 C 294.387 629.037, 276.923 642.025, 260.425 659.185 C 219.706 701.538, 211.589 758.037, 240.419 798.439 C 245.926 806.157, 257.872 817.380, 265.342 821.855 C 292.959 838.398, 346.213 843.222, 387.494 832.920 C 416.211 825.754, 445.780 809.598, 466.788 789.597 L 473.076 783.610 481.342 784.805 C 506.557 788.451, 536.931 788.687, 563.150 785.441 C 569.818 784.616, 575.506 784.173, 575.791 784.457 C 576.075 784.742, 572.315 790.268, 567.435 796.737 C 557.190 810.320, 533.789 834.207, 520 845.157 C 488.813 869.924, 452.545 889.663, 412.750 903.527 C 406.837 905.587, 402 907.683, 402 908.186 C 402 908.949, 414.036 948.012, 414.496 948.741 C 414.795 949.214, 437.717 941.165, 449.500 936.448 C 465.819 929.917, 494.700 915.166, 510.644 905.218 C 562.483 872.877, 604.475 828.961, 627.929 782.558 L 633.838 770.867 646.169 766.564 C 665.749 759.731, 676.308 755.245, 694.500 746.034 C 754.444 715.683, 797.510 674.388, 821.962 623.815 C 848.702 568.512, 849.472 509.772, 823.955 471.881 C 821.592 468.372, 816.023 461.864, 811.579 457.421 C 788.946 434.788, 756.966 422.623, 711.750 419.447 C 706.388 419.070, 702 418.549, 702 418.288 C 702 418.027, 702.978 413.243, 704.172 407.657 C 705.873 399.709, 706.336 394.238, 706.302 382.500 C 706.234 358.893, 702.155 346.913, 690.110 334.945 C 682.034 326.921, 676.277 323.611, 659.626 317.420 C 647.069 312.751, 641.021 309.619, 640.297 307.409 C 639.543 305.108, 648.895 293.026, 659.964 282 C 673.318 268.698, 689.266 255.608, 710.500 240.518 C 718.750 234.655, 725.617 229.538, 725.760 229.148 C 725.904 228.757, 719.457 221.364, 711.434 212.719 C 700.910 201.377, 696.220 197, 694.591 197 C 693.349 197, 692.146 197.179, 691.917 197.398 M 431 512.535 C 416.847 515.532, 404.559 522.263, 394.500 532.527 C 384.398 542.834, 378.283 553.927, 374.447 568.902 C 372.752 575.516, 371.037 592.905, 372.019 593.512 C 372.346 593.714, 376.413 592.767, 381.057 591.407 C 416.527 581.020, 455.605 573.856, 487.119 571.964 C 496.628 571.393, 504.485 570.830, 504.581 570.713 C 504.676 570.596, 503.943 566.540, 502.952 561.700 C 495.589 525.749, 465.545 505.220, 431 512.535 M 480.500 616.135 C 452.827 618.515, 397.049 630.559, 379.313 637.984 L 377.126 638.900 379.161 646.091 C 387.637 676.042, 403.193 700.200, 424.192 716.024 C 432.259 722.102, 452.601 732.829, 456.880 733.260 C 458.839 733.458, 460.223 732.084, 464.697 725.500 C 483.404 697.970, 498.289 656.779, 502.550 620.750 L 503.230 615 496.865 615.137 C 493.364 615.213, 486 615.662, 480.500 616.135 M 546.602 623.153 C 546.334 624.444, 545.402 630, 544.529 635.500 C 539.424 667.666, 528.181 702.014, 514.252 728 C 511.746 732.675, 508.864 737.694, 507.848 739.154 C 504.235 744.344, 504.188 744.333, 528.750 743.693 C 541.263 743.367, 556.675 742.387, 563 741.514 C 577.530 739.510, 599.227 735.163, 600.368 734.028 C 601.864 732.539, 604.930 717.959, 606.114 706.704 C 607.994 688.834, 605.267 673.275, 597.678 658.564 C 590.389 644.435, 576.403 632.097, 559.898 625.233 C 548.680 620.569, 547.184 620.335, 546.602 623.153 M 328.094 660.944 C 295.080 680.786, 274.531 704.683, 268.505 730.244 C 264.371 747.777, 269.010 766.643, 280.268 778.080 C 287.966 785.901, 296.711 789.392, 318 793.146 C 330.171 795.291, 357.387 794.769, 369.688 792.153 C 387.938 788.273, 404.587 781.355, 419.509 771.451 L 425.117 767.728 417.883 763.803 C 381.400 744.006, 354.561 710.844, 340.165 667.772 L 336.245 656.045 328.094 660.944 " stroke="none" fill="black" fill-rule="evenodd"/>
</svg>