<svg xmlns="http://www.w3.org/2000/svg" width="1000" height="1000" viewBox="0 0 1000 1000" version="1.1">
	<path d="M 196.047 134.511 C 189.971 144.725, 185 153.210, 185 153.366 C 185 153.523, 189.193 156.430, 194.317 159.827 C 214.991 173.531, 237.800 194.322, 246.283 207.197 C 253.118 217.570, 260.518 240.031, 261.855 254.460 L 262.500 261.420 281 264.154 C 291.175 265.658, 301.029 267.171, 302.899 267.517 L 306.297 268.146 305.699 255.823 C 304.447 230.030, 294.148 199.196, 280.172 179.401 C 268.086 162.282, 243.186 139.796, 217 122.350 C 212.875 119.602, 208.959 117.036, 208.297 116.647 C 207.493 116.175, 203.422 122.112, 196.047 134.511 M 656 277.598 C 598.333 284.534, 544.399 307.311, 495.002 345.590 C 480.096 357.141, 451.784 385.390, 435.588 404.873 C 392.643 456.530, 348.572 525.039, 301.059 614 C 285.647 642.856, 255.619 703.163, 241.430 733.754 C 233.658 750.511, 232.413 752.652, 231.826 750.254 C 230.590 745.207, 228.711 701.914, 228.256 668 C 227.654 623.188, 229.687 581.563, 235.033 529.241 C 237.271 507.326, 237.464 497.347, 235.896 484.500 C 233.336 463.527, 227.072 446.618, 213.694 424.564 C 195.310 394.257, 193.653 390.602, 195.153 383.649 C 196.309 378.289, 201.011 369.224, 206.203 362.347 C 208.513 359.288, 209.913 356.564, 209.404 356.121 C 208.907 355.688, 201.866 349.145, 193.757 341.581 C 185.649 334.017, 178.559 327.980, 178.001 328.166 C 175.553 328.982, 164.423 345.445, 159.521 355.500 C 153.263 368.337, 151 376.732, 151 387.104 C 151 400.923, 155.375 412.537, 168.854 434.500 C 180.452 453.399, 188.168 468.960, 190.423 478.002 C 193.284 489.471, 193.517 505.458, 191.157 528.500 C 184.546 593.043, 182.347 661.186, 185.381 707.500 C 187.180 734.965, 189.558 790.390, 190.628 829.788 C 191.034 844.718, 191.723 855.329, 192.310 855.692 C 193.354 856.337, 231.373 866.024, 231.557 865.691 C 231.615 865.586, 235.165 856.950, 239.446 846.500 C 288.265 727.323, 360.216 588.567, 418.322 501.543 C 483.708 403.617, 536.452 356.977, 608.983 332.947 C 636.790 323.735, 658.788 320.050, 686.151 320.020 C 712.215 319.991, 731.816 323.681, 749.619 331.968 C 793.015 352.169, 805.298 390.491, 786.169 446 C 776.008 475.488, 759.690 502.325, 734.641 530.747 C 716.404 551.440, 695.952 570.044, 652.500 605.466 C 619.343 632.495, 611.729 639.141, 596.969 653.936 C 572.959 678.005, 560.595 697.553, 555.413 719.637 C 550.051 742.487, 562.479 761.864, 586.093 767.471 C 599.991 770.772, 620.718 770.381, 672 765.854 C 691.011 764.175, 736.146 764.168, 748 765.841 C 772.684 769.325, 797.742 775.708, 817.662 783.586 C 823.801 786.014, 829.053 788, 829.332 788 C 829.995 788, 849 751.454, 849 750.178 C 849 747.671, 816.190 735.883, 793.014 730.065 C 752.598 719.917, 721.097 718.266, 660 723.090 C 631.659 725.328, 602.956 726.581, 600.616 725.683 C 596.772 724.208, 608.449 705.230, 622.339 690.377 C 633.890 678.027, 646.680 666.704, 677.548 641.500 C 735.472 594.206, 758.309 572.474, 782.192 541.920 C 810.284 505.983, 829.860 464.320, 836.658 426 C 838.758 414.164, 839.006 389.440, 837.130 379 C 832.923 355.593, 823.340 336.642, 807.228 319.864 C 784.479 296.175, 751.567 281.597, 710.500 277.020 C 698.073 275.634, 669.832 275.934, 656 277.598 " stroke="none" fill="black" fill-rule="evenodd"/>
</svg>