<svg xmlns="http://www.w3.org/2000/svg" width="1000" height="1000" viewBox="0 0 1000 1000" version="1.1">
	<path d="M 434.629 111.101 C 434.333 113.520, 433.832 122.799, 433.516 131.720 C 432.973 147.040, 430.374 180.960, 429.690 181.643 C 429.517 181.817, 419.728 186.834, 407.937 192.792 C 372.892 210.502, 342.803 229.322, 308.248 255.145 C 298.205 262.650, 289.814 268.500, 289.602 268.145 C 289.389 267.790, 287.347 261.650, 285.065 254.500 C 275.991 226.076, 267.007 184.165, 263.897 155.750 C 262.628 144.156, 262.577 144, 260.055 143.989 C 258.650 143.984, 248.801 144.521, 238.168 145.183 L 218.836 146.388 219.520 153.444 C 223.528 194.769, 234.963 245.003, 249.923 287 L 254.019 298.500 244.271 307.500 C 210.683 338.512, 180.639 369.278, 158.339 395.500 C 153.481 401.212, 134 430.459, 134 432.040 C 134 433.542, 140.344 447.688, 144.296 455 C 166.830 496.682, 196.658 523.841, 229.500 532.577 C 239.849 535.330, 261.416 535.136, 273.340 532.184 C 303.982 524.596, 332.049 504.883, 362.415 469.622 L 373.214 457.082 378.357 460.089 C 390.414 467.139, 413.516 478, 416.457 478 C 417.486 478, 432.096 440.341, 432.019 437.886 C 432.009 437.548, 429.863 436.475, 427.250 435.500 C 424.637 434.526, 417.253 431.075, 410.839 427.831 L 399.179 421.932 410.383 405.216 C 422.708 386.828, 431.391 370.580, 438.286 353 C 451.005 320.575, 461.086 279.392, 467.834 232.290 C 469.348 221.724, 470.849 212.817, 471.170 212.497 C 472.501 211.165, 502.520 201.684, 515.500 198.495 C 564.143 186.545, 606.837 186.226, 652.451 197.471 C 695.469 208.076, 726.886 224.766, 745.809 247.065 C 753.116 255.676, 761.952 272.809, 764.464 283.237 C 772.696 317.409, 764.203 358.999, 739.701 404.500 C 736.443 410.550, 733.236 416.075, 732.575 416.778 C 731.615 417.798, 730.615 416.958, 727.636 412.634 C 716.963 397.136, 697.412 384.460, 673.479 377.520 C 656.112 372.484, 648.179 371.513, 624.500 371.522 C 605.602 371.529, 600.903 371.852, 591.172 373.810 C 563.846 379.310, 544.055 388.871, 530.347 403.195 C 522.272 411.634, 518.470 417.792, 515.465 427.302 C 512.550 436.528, 512.114 451.077, 514.485 460 C 519.940 480.525, 536.326 497.378, 561 507.839 C 580.131 515.951, 597.097 519.100, 626 519.903 L 647.500 520.500 639.500 526.179 C 607.869 548.634, 567.511 568.499, 524 583.031 C 498.223 591.641, 465.686 599.023, 446.217 600.679 C 442.211 601.020, 438.744 601.606, 438.512 601.980 C 438.281 602.355, 438.839 612.231, 439.752 623.929 L 441.413 645.196 448.957 644.516 C 470.903 642.535, 505.984 634.826, 533.762 625.879 C 577.838 611.682, 624.596 589.321, 658.500 566.225 C 690.709 544.284, 716.756 518.385, 728.624 496.500 C 730.711 492.650, 736.886 484.325, 742.344 478 C 769.657 446.353, 795.252 397.375, 805.040 358.029 C 809.296 340.920, 811 327.140, 810.996 309.872 C 810.989 285.038, 807.130 267.122, 797.561 247.500 C 785.895 223.577, 766.144 202.033, 741.902 186.787 C 710.836 167.249, 664.340 152.234, 618.500 146.936 C 598.685 144.646, 562.488 145.629, 539.500 149.082 C 523.100 151.545, 493.183 158.512, 482.124 162.444 C 475.254 164.887, 475.385 165.056, 476.168 154.750 C 476.554 149.662, 477.194 137.063, 477.591 126.750 L 478.312 108 468.813 108 C 463.588 108, 453.881 107.708, 447.241 107.351 L 435.167 106.702 434.629 111.101 M 408.488 241.835 C 377.043 259.447, 351.238 276.704, 319.760 301.172 L 307.019 311.075 312.142 321.288 C 324.636 346.192, 341.445 370.537, 357.687 387.250 C 361.295 390.962, 364.529 393.994, 364.874 393.987 C 366.103 393.963, 384.866 364.333, 389.392 355.270 C 398.577 336.873, 405.369 317.395, 412.443 289.157 C 417.533 268.835, 424.117 234, 422.867 234 C 422.652 234, 416.182 237.526, 408.488 241.835 M 253.400 358.874 C 224.202 386.486, 186.554 427.528, 184.507 433.979 C 183.179 438.162, 198.300 460.207, 210.671 472.126 C 232.312 492.975, 253.371 496.449, 279.500 483.478 C 294.304 476.130, 309.367 463.560, 326.808 444 C 340.072 429.125, 339.914 431.651, 328.327 419.726 C 310.213 401.083, 292.728 377.172, 278.985 352.250 C 275.573 346.063, 272.674 341, 272.541 341 C 272.409 341, 263.796 349.043, 253.400 358.874 M 601.235 416.441 C 558.001 424.615, 543.132 446.202, 569.152 463.020 C 590.992 477.136, 639.653 480.663, 674 470.619 C 683.953 467.709, 693.017 463.840, 695.349 461.508 C 697.928 458.929, 697.549 448.722, 694.643 442.480 C 689.819 432.122, 676.205 423.314, 657.304 418.323 C 648.694 416.050, 645.125 415.694, 628 415.401 C 614.374 415.168, 606.312 415.481, 601.235 416.441 M 255.500 637.390 C 232.758 657.017, 207.184 684.729, 190.790 707.509 C 178.982 723.917, 107.967 835.644, 108.019 837.731 C 108.039 838.542, 144.604 862.335, 146.435 862.729 C 147.021 862.855, 150.875 857.912, 155 851.744 C 169.474 830.103, 196.461 800.937, 218 783.658 C 229.746 774.235, 249.461 761.228, 262 754.630 C 308.230 730.302, 358.982 725.613, 398.413 742.028 C 437.277 758.207, 467.767 802.249, 476.547 854.890 C 477.867 862.805, 479.078 869.412, 479.239 869.572 C 479.399 869.732, 489.754 869.599, 502.250 869.277 L 524.971 868.692 529.049 858.096 C 539.816 830.123, 559.218 800.047, 580.958 777.631 C 592.984 765.231, 601.847 757.714, 614.012 749.596 C 665.959 714.934, 733.705 714.455, 784.318 748.392 C 803.071 760.967, 821.753 780.383, 836.786 802.924 C 849.043 821.301, 863.197 850.334, 869.487 870 C 870.454 873.025, 871.542 875.829, 871.905 876.232 C 872.528 876.924, 912.385 866.948, 913.516 865.818 C 914.240 865.094, 905.651 840.590, 900.786 829.500 C 889.850 804.569, 872.960 776.376, 857.459 757.174 C 848.825 746.478, 833.663 731.263, 823.485 723.079 C 784.078 691.392, 739.411 677.263, 687.706 680.129 C 661.877 681.561, 636.674 688.370, 612.119 700.548 C 574.995 718.960, 542.505 748.980, 515.736 789.600 L 507.634 801.895 500.476 787.198 C 470.900 726.474, 421.996 692.474, 359.500 689.184 C 320.909 687.153, 287.661 694.053, 249.222 712.070 C 239.432 716.659, 239.037 716.759, 240.892 714.194 C 248.405 703.802, 284.504 668.460, 293.892 662.307 C 294.259 662.066, 268.258 626.980, 267.740 627.017 C 267.608 627.026, 262.100 631.694, 255.500 637.390 " stroke="none" fill="black" fill-rule="evenodd"/>
</svg>