<svg xmlns="http://www.w3.org/2000/svg" width="1000" height="1000" viewBox="0 0 1000 1000" version="1.1">
	<path d="M 454.328 97.366 C 444.884 98.540, 436.859 99.799, 436.496 100.165 C 436.133 100.531, 436.537 108.856, 437.395 118.665 C 442.531 177.427, 442.803 251.020, 438.047 295.313 C 437.585 299.610, 437.049 303.275, 436.854 303.459 C 435.580 304.659, 371.038 309.324, 332.500 311.001 C 308.847 312.030, 222.077 313.924, 196.250 313.974 L 183 314 183 335.500 L 183 357 224.750 356.982 C 294.848 356.952, 374.173 353.808, 422.250 349.155 C 428.209 348.579, 430 348.696, 430 349.664 C 430 351.793, 426.070 367.940, 422.860 379 C 412.199 415.731, 389.729 457.182, 361.112 492.911 C 335.716 524.619, 297.358 560.213, 266.750 580.477 C 263.587 582.570, 261 584.733, 261 585.283 C 261 586.642, 283.315 620.944, 284.219 620.975 C 284.615 620.989, 288.440 618.712, 292.719 615.915 C 329.075 592.156, 371.099 574.984, 392.838 575.006 C 404.846 575.017, 409.968 578.214, 414.771 588.692 C 421.282 602.900, 423.981 625.945, 424.034 667.804 C 424.086 708.103, 425.743 758.912, 427.479 773.436 C 432.925 818.995, 444.253 846.685, 465.810 867.127 C 483.648 884.042, 507.305 894.458, 545 901.992 C 602.279 913.440, 692.992 912.652, 788.750 899.874 C 797.360 898.725, 798 898.482, 798 896.353 C 798 894.119, 792.078 855.683, 791.694 855.424 C 791.587 855.352, 783.625 856.318, 774 857.571 C 730.717 863.203, 687.656 866, 644.239 866 C 584.451 866, 545.829 860.718, 517.135 848.616 C 496.126 839.756, 486.165 828.733, 478.625 806 C 470.887 782.672, 469.116 762.639, 467.972 685.500 C 467.076 625.044, 466.630 617.197, 463.003 597.947 C 456.234 562.019, 439.263 540.381, 412.500 533.554 C 409.200 532.713, 402.125 531.681, 396.777 531.262 L 387.054 530.500 396.071 519.125 C 426.803 480.354, 449.775 438.627, 462.839 397.843 C 467.345 383.776, 476 347.439, 476 342.587 C 476 342.416, 478.363 341.997, 481.250 341.658 C 496.602 339.851, 577.561 324.130, 634 311.996 C 687.295 300.537, 685 301.120, 685 299.050 C 685 296.984, 676.445 259.112, 675.843 258.509 C 675.622 258.289, 666.635 260.075, 655.872 262.479 C 608.424 273.078, 512.493 292.315, 486.122 296.521 L 481.744 297.219 482.386 290.860 C 485.098 264.016, 485.931 194.193, 483.979 157.500 C 482.828 135.873, 480.217 101.854, 479.393 97.750 C 478.717 94.380, 478.399 94.375, 454.328 97.366 " stroke="none" fill="black" fill-rule="evenodd"/>
</svg>