<svg xmlns="http://www.w3.org/2000/svg" width="1000" height="1000" viewBox="0 0 1000 1000" version="1.1">
	<path d="M 572.500 117.524 C 562.050 119.367, 553.339 120.903, 553.142 120.938 C 552.944 120.972, 553.039 122.018, 553.351 123.261 C 554.550 128.039, 563.053 189.714, 565.929 214.500 C 575.859 300.062, 580.477 383.656, 578.219 436.968 L 577.309 458.437 572.905 462.100 C 570.482 464.115, 561.750 471.360, 553.500 478.201 C 491.496 529.613, 416.179 608.811, 346.374 696 C 321.868 726.609, 278.335 783.710, 270.930 794.958 C 269.449 797.209, 269.294 796.479, 268.160 781.921 C 262.015 702.985, 262.144 599.490, 268.521 491.500 C 270.540 457.311, 271.154 450, 272.007 450 C 277.873 450, 315.053 441.120, 335.358 434.869 C 369.253 424.434, 402.563 409.148, 424 394.191 C 430.993 389.311, 448.645 371.975, 450.836 367.835 C 452.068 365.507, 451.726 364.420, 446.453 353.905 C 432.526 326.133, 402.954 283.930, 377.574 255.606 C 364.886 241.447, 346.509 226.364, 334.493 220.247 C 317.846 211.773, 299.594 211.198, 285.787 218.712 C 278.730 222.553, 269.191 233.135, 264.318 242.528 C 251.017 268.166, 239.966 319.850, 232.463 391.500 C 231.542 400.300, 230.651 407.647, 230.483 407.828 C 229.887 408.468, 210.353 405.821, 201 403.832 C 178.799 399.113, 149.137 386.687, 131.140 374.568 C 124.613 370.173, 122.480 369.187, 121.415 370.071 C 119.661 371.526, 95.601 400.794, 95.190 401.971 C 94.628 403.584, 119.245 419.025, 133.500 426.001 C 161.206 439.559, 192.333 448.707, 217.287 450.625 C 222.116 450.997, 226.295 451.668, 226.573 452.118 C 226.851 452.568, 226.400 463.638, 225.570 476.718 C 221.085 547.454, 219.622 601.781, 220.311 671.977 C 220.877 729.713, 221.514 746.677, 224.549 785 C 227.025 816.253, 230.314 841.996, 234.164 860.250 L 235.166 865 255.388 865 L 275.609 865 285.390 850.536 C 322.177 796.135, 384.828 715.598, 435.556 657.500 C 478.413 608.418, 530.790 555.209, 566.964 524.007 L 573.333 518.514 572.672 530.007 C 572.308 536.328, 571.350 552.300, 570.543 565.500 C 566.668 628.841, 566.092 686.843, 569.009 720 C 572.420 758.783, 579.869 791.697, 590.385 814.457 C 601.412 838.324, 619.925 857.724, 640.683 867.166 C 691.775 890.404, 762.358 891.889, 845.032 871.463 C 859.904 867.789, 880.978 861.672, 883.124 860.406 C 883.640 860.102, 877.445 841.967, 870.453 823.315 L 868.884 819.130 864.692 820.610 C 862.386 821.425, 853.975 823.882, 846 826.071 C 784.099 843.060, 723.739 846.552, 682.355 835.537 C 653.016 827.728, 641.943 819.526, 631.009 797.500 C 618.960 773.228, 612.513 736.162, 611.307 684.217 L 610.697 657.934 624.598 658.514 C 632.244 658.833, 639.742 659.288, 641.260 659.524 C 646.134 660.283, 679.075 658.063, 692.664 656.058 C 760.230 646.095, 823.016 611.336, 862.185 562.212 C 894.583 521.580, 906.720 475.353, 894.797 438 C 885.942 410.260, 863.143 388.721, 831.176 377.896 C 787.282 363.031, 737.955 368.216, 681.501 393.628 C 667.557 399.905, 647.818 410.564, 633.341 419.635 C 627.754 423.136, 622.981 426, 622.734 426 C 622.487 426, 622.011 406.988, 621.675 383.750 C 621.340 360.512, 620.606 334.750, 620.044 326.500 C 615.057 253.181, 609.120 199.359, 597.155 119 C 596.577 115.114, 596.145 114.478, 593.993 114.336 C 592.622 114.246, 582.950 115.681, 572.500 117.524 M 302.764 263.659 C 295.294 277.940, 287.945 307.815, 282.038 347.917 C 279.144 367.571, 274.941 404.274, 275.519 404.852 C 276.486 405.820, 311.180 396.635, 329.500 390.562 C 339.950 387.097, 354.339 381.727, 361.476 378.628 C 372.904 373.665, 392.083 363.447, 397.343 359.520 C 399.071 358.229, 398.527 357.147, 388.567 342.056 C 357.411 294.846, 325.363 260.623, 309.302 257.410 C 306.485 256.847, 306.171 257.147, 302.764 263.659 M 768 413.634 C 739.709 416.298, 704.106 429.127, 668.400 449.523 C 659.412 454.657, 627.814 475.345, 622.189 479.779 C 619.925 481.564, 619.818 482.492, 617.009 524.551 C 613.595 575.658, 611.578 612.911, 612.190 613.523 C 612.433 613.767, 620.319 614.500, 629.714 615.154 C 698.049 619.904, 765.918 596.694, 811.377 553.027 C 842.268 523.355, 859.504 486.650, 855.127 459.862 C 851.375 436.901, 834.889 422.470, 804.941 415.934 C 796.130 414.011, 776.783 412.806, 768 413.634 " stroke="none" fill="black" fill-rule="evenodd"/>
</svg>