<svg xmlns="http://www.w3.org/2000/svg" width="1000" height="1000" viewBox="0 0 1000 1000" version="1.1">
	<path d="M 198.103 100.742 C 197.011 104.459, 194.455 113.350, 192.423 120.500 C 190.391 127.650, 188.535 134.016, 188.297 134.646 C 188.042 135.323, 190.656 136.717, 194.683 138.051 C 242.378 153.851, 275.952 180.706, 289.011 213.500 C 290.325 216.800, 291.682 219.850, 292.028 220.278 C 292.517 220.884, 314.560 216.565, 331.750 212.495 C 334.649 211.808, 334.605 209.844, 331.501 201.599 C 320.615 172.677, 298.066 144.850, 270.500 126.318 C 255.985 116.560, 236.337 106.805, 215.500 99.013 C 199.292 92.951, 200.426 92.838, 198.103 100.742 M 622.500 183.682 C 593.505 186.189, 562 193.605, 533.799 204.562 C 473.825 227.864, 424.539 267.630, 393.157 318.038 C 368.183 358.154, 349.904 406.617, 344.343 447.466 C 342.092 463.996, 342.357 489.741, 344.929 504.398 C 349.979 533.177, 361.163 555.534, 378.859 572.229 C 390.788 583.482, 402.143 590.022, 417.457 594.460 C 441.695 601.483, 464.798 599.406, 488.630 588.060 C 523.601 571.411, 555.032 536.438, 585.298 480.500 C 630.228 397.457, 646.314 311.929, 631.001 237.503 C 629.900 232.155, 629 227.604, 629 227.390 C 629 226.534, 663.096 227.067, 671.026 228.047 C 709.312 232.780, 737.536 245.392, 759.659 267.652 C 783.896 292.040, 800.657 328.921, 807.533 373 C 809.757 387.253, 810.593 423.413, 809.050 438.617 C 802.180 506.313, 771.210 577.733, 728.861 623.545 C 700.459 654.269, 672.258 671.228, 636.259 679.233 C 622.749 682.237, 588.603 682.454, 573.500 679.631 C 559.684 677.049, 541.877 671.771, 530.854 666.990 C 523.503 663.802, 521.363 663.235, 520.460 664.237 C 517.384 667.656, 499.931 700.331, 500.746 701.146 C 502.286 702.686, 520.956 710.491, 531 713.794 C 578.031 729.261, 624.465 729.993, 667.500 715.946 C 736.469 693.433, 795.913 628.244, 830.221 537.500 C 852.231 479.285, 859.076 418.067, 849.889 361.597 C 840.943 306.609, 817.272 259.972, 782.695 229.209 C 754.040 203.716, 716.410 188.471, 671.144 184.019 C 661.590 183.079, 631.857 182.873, 622.500 183.682 M 581.500 234.739 C 580.400 235.011, 573.216 237.254, 565.536 239.724 C 504.707 259.288, 455.653 297.230, 426.718 347.096 C 407.271 380.611, 393.819 416.191, 388.380 448.500 C 386.014 462.559, 386.003 487.670, 388.358 499.475 C 393.820 526.851, 407.464 544.965, 428 552.104 C 437.951 555.563, 452.876 555.323, 462.983 551.540 C 489.752 541.521, 515.080 515.221, 540.549 471 C 566.075 426.680, 583.418 378.722, 590.092 334 C 591.991 321.276, 592.411 314.291, 592.441 295 C 592.478 270.876, 591.387 259.794, 587.230 242.082 C 585.449 234.491, 584.973 233.880, 581.500 234.739 M 158.737 289.762 C 150.632 297.881, 144 304.990, 144 305.559 C 144 306.128, 145.844 308.373, 148.099 310.547 C 154.782 316.992, 171.744 338.566, 180.279 351.477 C 194.813 373.463, 203.721 394.009, 205.984 410.768 C 208.471 429.186, 202.272 449.598, 173.287 518.438 C 144.480 586.852, 134.486 614.991, 127.560 647.178 C 121.879 673.585, 120.343 702.225, 123.548 722 C 130.087 762.351, 158.820 803.476, 199.500 830.711 C 249.077 863.902, 318.376 883.338, 416 891.432 C 463.421 895.364, 542.470 896.684, 578 894.138 C 640.289 889.675, 705.932 879.806, 776 864.370 C 794.444 860.307, 854.982 845.351, 855.637 844.697 C 855.986 844.347, 844.255 803.922, 843.620 803.287 C 843.351 803.017, 833.538 805.299, 821.815 808.358 C 715.553 836.082, 606.801 851.985, 523.500 851.981 C 425.222 851.977, 342.236 841.992, 285.500 823.346 C 238.473 807.891, 207.195 787.448, 185.614 758.062 C 179.689 749.996, 170.485 731.423, 168.485 723.500 C 164.533 707.840, 164.406 690.282, 168.088 668.245 C 173.422 636.314, 184.721 603.668, 216.321 528.889 C 247.784 454.433, 253.809 430.150, 248.454 399.381 C 243.549 371.196, 224.924 335.148, 197.860 301.458 C 187.868 289.019, 175.302 275, 174.144 275 C 173.776 275, 166.843 281.643, 158.737 289.762 " stroke="none" fill="black" fill-rule="evenodd"/>
</svg>