<svg xmlns="http://www.w3.org/2000/svg" width="1000" height="1000" viewBox="0 0 1000 1000" version="1.1">
	<path d="M 340 96.605 C 330.375 102.854, 322.351 108.667, 322.169 109.522 C 321.666 111.889, 340.227 129.636, 350.500 136.610 C 386.420 160.995, 434.080 177.490, 484.500 182.988 C 516.719 186.501, 572.344 186.082, 621 181.960 C 645.585 179.877, 683.957 175.377, 684.864 174.470 C 685.453 173.881, 679.437 133.104, 678.644 132.311 C 678.367 132.034, 668.097 132.986, 655.820 134.426 C 574.012 144.022, 504.595 144.206, 460 134.945 C 421.655 126.983, 382.790 109.260, 363.500 90.940 L 357.500 85.242 340 96.605 M 359.158 363.769 C 354.569 374.071, 350.744 382.950, 350.658 383.500 C 350.435 384.912, 382.840 397.733, 406 405.396 C 431.043 413.682, 450.933 419.082, 473.744 423.788 L 491.989 427.552 484.244 430.404 C 438.903 447.106, 395.821 473.907, 370.931 500.896 C 343.894 530.214, 330.682 561.070, 329.356 598 C 328.459 622.971, 332.002 640.071, 342.413 661.021 C 369.444 715.420, 439.340 776.550, 549.584 842.209 C 596.092 869.908, 677.107 912.518, 679.004 910.277 C 680.047 909.045, 697.110 871.777, 696.782 871.449 C 696.619 871.286, 691.314 868.719, 684.993 865.744 C 656.575 852.371, 604.640 824.175, 568 802.229 C 452.066 732.787, 382.102 666.954, 373.937 619.626 C 372.223 609.691, 373.243 587.559, 375.878 577.500 C 384.789 543.481, 415.193 511.905, 462 488.059 C 501.453 467.959, 553.309 451.908, 602.364 444.613 C 611.640 443.233, 619.419 441.914, 619.652 441.681 C 619.885 441.448, 619.041 429.837, 617.776 415.879 L 615.478 390.500 589.989 390.849 C 536.688 391.580, 488.432 384.818, 437.343 369.461 C 421.199 364.608, 392.720 354.595, 380.102 349.335 C 374.384 346.951, 369.209 345.009, 368.602 345.019 C 367.996 345.030, 363.746 353.467, 359.158 363.769 " stroke="none" fill="black" fill-rule="evenodd"/>
</svg>