<svg xmlns="http://www.w3.org/2000/svg" width="1000" height="1000" viewBox="0 0 1000 1000" version="1.1">
	<path d="M 564 80.541 C 520.714 89.674, 471.532 98.263, 438.208 102.510 C 392.989 108.273, 330.961 104.788, 271.250 93.129 C 266.163 92.136, 262 91.495, 262 91.706 C 262 91.917, 259.918 101.312, 257.373 112.584 C 254.828 123.856, 253.007 133.340, 253.326 133.659 C 255.164 135.497, 301.768 143.023, 330 146.041 C 357.991 149.034, 404.722 149.783, 427.500 147.604 C 453.146 145.150, 522.906 134.325, 538.842 130.325 L 541.424 129.677 538.341 133.588 C 531.589 142.156, 520.077 163.407, 510.785 184.457 L 506.793 193.500 506.112 211 C 505.738 220.625, 505.469 228.597, 505.514 228.715 C 505.560 228.834, 513.373 230.091, 522.877 231.510 C 580.692 240.142, 632.628 263.150, 652.414 288.895 C 662.627 302.184, 666.229 314.026, 666.288 334.500 C 666.353 357.135, 661.820 375.449, 650.449 398.500 C 630.832 438.268, 595.322 467.053, 553.556 477.044 C 549.186 478.089, 545.513 478.845, 545.392 478.722 C 545.271 478.600, 547.165 474.450, 549.600 469.500 C 558.746 450.908, 564 429.936, 564 412.021 C 564 363.017, 534.756 320.923, 487.504 301.912 L 478.507 298.292 477.376 290.330 C 470.534 242.197, 446.284 210.991, 408.726 201.986 C 384.498 196.178, 362.560 202.732, 343.407 221.500 C 329.554 235.075, 318.907 253.771, 310.552 279.196 C 306.425 291.754, 301 315.244, 301 320.556 C 301 322.610, 299.601 323.683, 291.823 327.589 C 246.256 350.474, 218.914 382.695, 210.434 423.500 C 208.236 434.077, 208.151 457.827, 210.276 467.571 C 220.297 513.523, 274.195 540.780, 331.820 529.037 C 350.941 525.140, 369.582 517.145, 386.618 505.535 L 395.736 499.321 399.618 501.313 C 410.585 506.940, 432.855 514.973, 445.946 518.024 L 451.392 519.294 447.446 522.646 C 434.525 533.623, 404.517 553.015, 382.665 564.508 C 347.618 582.941, 319.810 592.867, 276.500 602.403 C 247.551 608.777, 202.382 616.050, 172.867 619.091 L 161.234 620.289 156.559 643.894 C 153.988 656.877, 151.798 668.173, 151.692 668.995 C 151.297 672.069, 172.612 673.301, 227.500 673.375 C 280.801 673.447, 297.364 672.643, 339 667.961 C 400.922 660.999, 434.888 653.292, 566.500 616.347 C 666.369 588.312, 699.273 580.172, 727.183 576.596 C 761.412 572.210, 793.366 574.250, 801.617 581.347 C 803.924 583.332, 804.260 584.365, 804.215 589.348 C 804.149 596.658, 800.881 601.984, 790.201 612.182 C 776.750 625.026, 760.133 636.772, 732.500 652.968 C 714.892 663.288, 664.973 688.221, 642.251 698.043 C 632.764 702.144, 625.002 705.931, 625.001 706.458 C 625 707.319, 639.938 744.938, 640.663 745.898 C 641.742 747.328, 711.231 714.599, 738 700.052 C 794.450 669.377, 829.166 641.492, 841.569 616.864 C 846.293 607.483, 848 600.219, 848 589.500 C 848 573.037, 843.495 561.516, 832.889 550.854 C 817.064 534.947, 788.939 528.617, 745.187 531.115 C 705.951 533.356, 678.122 539.618, 559 573.014 C 463.908 599.673, 434.398 607.292, 398.500 614.450 C 365.893 620.952, 366.590 621.007, 383 613.239 C 426.792 592.511, 467.971 565.104, 496.777 537.512 L 508.500 526.284 521 525.572 C 552.464 523.780, 576.495 517.949, 601.759 505.976 C 651.083 482.601, 690.340 434.149, 704.496 379.176 C 711.759 350.969, 711.944 319.373, 704.983 296 C 691.421 250.468, 641.387 214.313, 565.850 195.461 L 555.200 192.803 557.249 188.152 C 560.068 181.753, 568.727 166.147, 571.482 162.500 C 572.728 160.850, 577.001 156.125, 580.977 152 C 588.660 144.030, 606.415 123.658, 612.567 115.754 L 616.261 111.009 604.699 93.254 C 597.239 81.798, 592.492 75.440, 591.318 75.331 C 590.318 75.238, 578.025 77.583, 564 80.541 M 382.237 246.058 C 375.123 249.669, 366.718 259.861, 360.533 272.379 C 355.440 282.688, 349 300.174, 349 303.697 C 349 304.747, 349.539 304.994, 350.750 304.500 C 354.506 302.969, 383.001 296.117, 392 294.582 C 397.225 293.690, 408.475 292.466, 417 291.862 C 425.525 291.258, 432.666 290.614, 432.869 290.430 C 433.887 289.507, 429.203 274.640, 425.673 267.586 C 418.291 252.838, 407.344 244.891, 393.500 244.229 C 387.853 243.959, 385.676 244.313, 382.237 246.058 M 408 336.507 C 394.925 338.112, 378.415 341.811, 361.500 346.924 C 340.993 353.122, 342.617 352.059, 343.384 358.776 C 346.516 386.223, 363.267 418.420, 384.521 437.845 L 390.357 443.179 392.210 440.839 C 406.859 422.348, 421.687 390.987, 428.418 364.262 C 430.507 355.964, 433.986 338.185, 433.997 335.750 C 434.002 334.631, 419.934 335.041, 408 336.507 M 476.595 347.207 C 476.339 348.468, 475.360 353.775, 474.419 359 C 468.410 392.360, 453.211 429.461, 434.363 456.777 L 427.962 466.055 432.679 468.077 C 444.266 473.043, 467.610 478.590, 485 480.508 L 490.500 481.115 496 473.616 C 504.146 462.508, 512.323 447.257, 516.039 436.241 C 518.836 427.950, 519.390 424.714, 519.759 414.500 C 520.296 399.654, 518.743 392.231, 512.338 379.032 C 508.417 370.953, 506.405 368.235, 498.622 360.510 C 492.815 354.747, 487.240 350.268, 483.280 348.186 L 477.060 344.914 476.595 347.207 M 290.647 379.123 C 274.155 390.854, 260.910 407.152, 256.094 421.642 C 251.312 436.024, 250.866 454.169, 255.055 463.906 C 261.568 479.045, 284.382 489.016, 309.480 487.694 C 324.855 486.884, 337.566 483.211, 352.798 475.177 L 357.096 472.910 348.940 464.205 C 327.485 441.306, 311.052 412.741, 304.527 387 C 301.248 374.066, 300.910 373, 300.089 373 C 299.631 373, 295.382 375.756, 290.647 379.123 M 463.995 760.622 C 437.651 780.383, 415.918 803.502, 406.771 821.496 C 396.824 841.063, 395.912 858.171, 403.942 874.536 C 418.462 904.128, 461.547 918.388, 550.500 923.043 C 570.483 924.089, 646.368 924.055, 647.257 923 C 647.488 922.725, 647.231 912.991, 646.684 901.370 L 645.690 880.240 604.595 880.251 C 564.178 880.263, 541.701 879.306, 515 876.437 C 471.075 871.718, 441.998 862.036, 442.001 852.131 C 442.002 848.664, 447.014 838.181, 451.513 832.238 C 459.398 821.823, 480.606 802.094, 494.008 792.707 L 496.343 791.072 484.421 773.058 C 477.865 763.151, 472.273 755.035, 471.995 755.023 C 471.717 755.010, 468.117 757.530, 463.995 760.622 " stroke="none" fill="black" fill-rule="evenodd"/>
</svg>