<svg xmlns="http://www.w3.org/2000/svg" width="1000" height="1000" viewBox="0 0 1000 1000" version="1.1">
	<path d="M 312.855 111.478 C 312.499 111.834, 316.541 154.500, 316.931 154.500 C 344.675 154.500, 355.988 155.809, 366.242 160.206 C 374.768 163.862, 387.906 179.783, 396.397 196.750 C 398.392 200.738, 400.349 204, 400.744 204 C 401.774 204, 439.358 189.783, 440.212 189.070 C 441.449 188.038, 431.607 168.941, 423.977 157.568 C 415.414 144.804, 400.283 129.109, 391.705 124.091 C 383.443 119.258, 368.235 114.362, 355.872 112.554 C 346.097 111.125, 314.011 110.322, 312.855 111.478 M 673.834 198.505 C 635.314 205.785, 585.879 233.720, 524.501 282.892 C 500.406 302.195, 485.044 315.458, 452.502 345.053 C 443.701 353.058, 426.375 368.622, 414 379.641 C 401.625 390.660, 382.737 407.853, 372.027 417.847 C 361.317 427.841, 352.238 435.902, 351.851 435.759 C 350.297 435.187, 305.873 393.572, 296.983 384.361 C 284.637 371.568, 280.977 365.833, 280.284 358.195 C 279.411 348.563, 283.633 337.043, 291.194 328.431 C 293.942 325.302, 294.107 324.765, 292.789 323.221 C 291.981 322.275, 285.554 314.841, 278.506 306.703 L 265.692 291.906 262.270 295.203 C 252.803 304.326, 242.503 322.130, 238.830 335.725 C 236.071 345.938, 235.875 363.586, 238.417 373 C 243.807 392.957, 255.163 406.606, 302.803 450.382 L 321.106 467.200 307.798 480.850 C 223.036 567.796, 174.101 639.352, 165.418 689.046 C 158.697 727.516, 177.839 759.342, 214.500 770.649 C 223.780 773.512, 250.456 773.240, 261.827 770.168 C 314.499 755.936, 368.401 707.535, 397.879 648 C 410.373 622.768, 416.904 600.500, 419.106 575.626 C 422.142 541.343, 411.930 509.842, 386.680 475.605 L 381.595 468.710 387.579 463.105 C 413.166 439.139, 425.475 427.869, 445.507 410.064 C 458.153 398.825, 473.450 385.063, 479.500 379.482 C 558.503 306.612, 623.669 260.070, 667.030 245.548 C 676.385 242.414, 680.364 241.618, 688.607 241.228 C 700.686 240.657, 704.663 241.726, 710.511 247.116 C 715.965 252.144, 720.295 261.709, 723.133 275 C 726.089 288.847, 726.360 314.035, 723.694 327.270 C 716.345 363.766, 694.850 397.969, 662.552 424.562 L 657.618 428.625 661.059 448.908 C 662.952 460.063, 664.725 469.543, 665 469.973 C 665.275 470.404, 670.450 470.320, 676.500 469.787 C 692.851 468.346, 724.155 469.396, 738.020 471.849 C 761.055 475.925, 778.249 483.182, 788.044 492.964 C 796.191 501.099, 798.286 506.176, 798.788 519 C 799.822 545.414, 787.189 571.675, 759.376 600.925 C 746.511 614.456, 733.799 625.466, 701 651.488 C 662.495 682.037, 650.052 694.967, 643.868 710.854 C 641.040 718.121, 640.834 732.431, 643.421 742 C 647.163 755.844, 656.962 771.121, 669.814 783.146 C 673.491 786.587, 684.150 795.467, 693.500 802.880 C 713.600 818.817, 724.198 828.827, 735.646 842.689 C 745.725 854.896, 762.544 878.248, 769.931 890.293 C 772.867 895.082, 775.462 899, 775.696 899 C 776.291 899, 811.301 878.888, 812.377 877.929 C 812.862 877.496, 812.219 875.437, 810.940 873.323 C 805.572 864.451, 790.152 841.773, 783.183 832.500 C 760.653 802.521, 749.442 791.159, 719.001 767.455 C 698.307 751.341, 689.087 741.345, 686.019 731.697 C 685.354 729.605, 685.086 726.792, 685.424 725.445 C 686.642 720.595, 700.049 708.251, 731 683.485 C 748.325 669.622, 768 653.259, 774.722 647.123 C 821.436 604.481, 844.656 559.919, 842.718 516.630 C 841.884 498.015, 837.114 484.331, 826.566 470.300 C 808.732 446.576, 774.958 431.358, 729.305 426.479 L 723.111 425.816 727.931 419.658 C 740.004 404.237, 753.306 379.753, 759.844 360.921 C 771.358 327.759, 772.761 292.097, 763.910 257.522 C 756.442 228.348, 739.276 208.031, 715.631 200.381 C 705.423 197.079, 685.994 196.207, 673.834 198.505 M 336.893 513.750 C 271.933 580.120, 225.355 643.211, 211.907 683.047 C 207.469 696.191, 206.773 709.426, 210.174 715.986 C 212.892 721.228, 219.329 726.426, 225.292 728.193 C 232.363 730.288, 245.333 729.532, 255 726.462 C 307.784 709.695, 362.236 645.580, 373.460 586.981 C 378.157 562.455, 376.032 545.233, 365.751 524.500 C 362.540 518.026, 351.359 500, 350.554 500 C 350.442 500, 344.294 506.188, 336.893 513.750 " stroke="none" fill="black" fill-rule="evenodd"/>
</svg>