<svg xmlns="http://www.w3.org/2000/svg" width="1000" height="1000" viewBox="0 0 1000 1000" version="1.1">
	<path d="M 272.458 99.480 L 255.760 113.466 268.684 126.027 C 318.659 174.603, 382.218 200.460, 440.847 196.069 C 456.724 194.880, 477.942 191.658, 492.750 188.188 C 497.288 187.125, 501 186.376, 501 186.524 C 501 186.950, 426.628 254.779, 392.500 285.479 C 344.692 328.484, 308.541 365.507, 265.540 415.500 C 244.511 439.948, 213.814 477.964, 214.210 479.068 C 214.369 479.513, 222.244 485.322, 231.708 491.977 L 248.916 504.078 261.208 494.284 C 307.212 457.631, 360.063 431.838, 396.910 428.057 C 421.503 425.533, 436.671 431.569, 457.002 451.967 C 476.777 471.808, 491.087 499.540, 498.420 532.237 C 501.189 544.584, 501.600 549, 499.980 549 C 498.378 549, 467.861 561.146, 453.500 567.500 C 403.077 589.809, 343.751 623.286, 309 649.042 C 271.159 677.087, 241.626 709.871, 225.792 741.410 C 219.546 753.851, 216.679 761.377, 213.225 774.401 C 210.765 783.674, 210.548 786.053, 210.559 803.500 C 210.574 825.923, 211.903 832.255, 220.004 848.500 C 230.965 870.482, 248.721 885.346, 272 892.028 C 277.893 893.719, 283.272 894.296, 297.102 894.721 C 344.604 896.180, 381.891 888.030, 412.500 869.500 C 442.112 851.573, 469.718 821.289, 491.806 782.503 C 497.989 771.646, 509.707 747.706, 515.308 734.486 C 535.287 687.337, 545.941 641.652, 547.683 595.664 L 548.321 578.828 550.911 577.830 C 552.335 577.282, 562.050 574.637, 572.500 571.953 C 608.411 562.730, 634.851 558.993, 664 559.020 C 718.240 559.070, 745.925 572.681, 761.911 607.156 C 767.911 620.098, 769.406 627.311, 769.337 643 C 769.298 651.726, 768.690 659.122, 767.618 663.915 C 756.929 711.670, 717.904 763.061, 655.649 811.364 C 648.692 816.762, 643 821.407, 643 821.685 C 643 822.920, 667.597 856, 668.516 856 C 669.787 856, 692.052 838.654, 705.500 827.187 C 720.341 814.531, 748.187 786.165, 759.184 772.500 C 797.959 724.316, 816.984 674.546, 812.986 631.750 C 810.773 608.053, 804.489 590.162, 791.453 570.439 C 777.965 550.034, 759.737 535.537, 736.217 526.509 C 692.787 509.839, 629.459 511.315, 557.206 530.682 C 549.894 532.642, 543.796 534.078, 543.654 533.873 C 543.511 533.668, 542.364 528.775, 541.104 523 C 535.108 495.511, 523.603 468.141, 508.865 446.300 C 488.843 416.629, 459.917 393.836, 433.500 386.915 C 423.091 384.188, 400.588 383.231, 387.726 384.969 C 376.705 386.459, 357.463 391.163, 348.328 394.601 C 344.707 395.964, 341.536 396.869, 341.280 396.613 C 340.093 395.427, 397.134 339.980, 428.972 311.373 C 469.078 275.335, 519.493 229.240, 575.895 177.036 C 597.012 157.491, 615.800 140.230, 617.645 138.677 C 619.490 137.125, 621 135.430, 621 134.910 C 621 133.043, 601.745 101, 600.636 101.021 C 600.011 101.033, 594.775 103.534, 589 106.578 C 535.597 134.727, 461.507 155.008, 420.500 152.702 C 379.147 150.377, 333.707 128.493, 297.327 93.382 L 289.155 85.494 272.458 99.480 M 486.500 600.923 C 427.418 625.874, 369.693 658.037, 329.500 688.399 C 315.493 698.980, 288.929 724.958, 280.314 736.500 C 259.244 764.729, 250.215 791.833, 254.315 814.548 C 257.073 829.833, 265.092 841.461, 276.864 847.250 L 283.472 850.500 308.486 850.439 C 335.546 850.373, 344.687 849.344, 361.506 844.470 C 405.291 831.782, 441.155 793.231, 470.848 726.938 C 488.656 687.181, 498.535 652.094, 502.468 614.641 C 504.182 598.328, 504.348 593.962, 503.250 594.083 C 502.837 594.128, 495.300 597.206, 486.500 600.923 " stroke="none" fill="black" fill-rule="evenodd"/>
</svg>