<svg xmlns="http://www.w3.org/2000/svg" width="1000" height="1000" viewBox="0 0 1000 1000" version="1.1">
	<path d="M 437.153 94.146 C 435.247 132.254, 432.342 163.968, 427.915 195 C 426.777 202.975, 425.543 209.772, 425.173 210.104 C 424.217 210.961, 408.524 208.511, 395 205.393 C 365.275 198.539, 325.926 182.455, 298.361 165.891 C 293.885 163.201, 289.817 161, 289.322 161 C 288.507 161, 265 195.235, 265 196.423 C 265 197.395, 287.160 210.067, 300.882 216.941 C 335.392 234.229, 372.905 246.910, 403.750 251.714 C 411.925 252.987, 415 253.851, 415 254.874 C 415 260.394, 377.871 346.862, 355.100 394.372 L 347.014 411.244 351.936 416.872 C 354.643 419.967, 361.830 427.432, 367.906 433.460 L 378.954 444.420 388.727 434.891 C 415.452 408.834, 449.593 388.565, 489.862 374.848 C 520.806 364.308, 549.027 359.830, 584 359.912 C 617.794 359.990, 655.389 366.084, 676.950 374.978 C 714.014 390.268, 744.024 425.055, 763.403 475.193 C 789.040 541.528, 791.452 626.283, 769.515 690 C 756.863 726.746, 723.510 774.026, 691.104 801.148 C 667.697 820.740, 641.509 834.205, 616.500 839.507 C 564.119 850.613, 505.079 832.055, 443.697 785.189 L 433.893 777.704 434.561 772.102 C 434.928 769.021, 435.547 766.153, 435.936 765.728 C 436.326 765.303, 445.498 762.963, 456.320 760.528 C 493.809 752.092, 535.559 740.684, 581.475 726.331 C 594.667 722.207, 605.771 718.642, 606.150 718.407 C 606.827 717.989, 594.779 680.790, 593.112 678.150 C 592.426 677.066, 589.236 677.787, 576.879 681.819 C 543.327 692.768, 510.487 702.159, 474.690 711.040 C 443.304 718.827, 442.644 718.977, 442.117 718.451 C 441.871 718.205, 442.199 712.490, 442.846 705.752 C 443.493 699.013, 444.670 685.444, 445.462 675.599 C 446.254 665.753, 447.262 657.342, 447.701 656.907 C 448.141 656.472, 452.550 654.570, 457.500 652.681 C 508.657 633.152, 536.772 613.221, 546.064 589.894 C 548.780 583.078, 549.712 570.210, 548.021 562.886 C 546.535 556.450, 539.435 540.946, 535.063 534.592 C 519.171 511.494, 494.190 498.744, 460.393 496.481 L 450.286 495.805 449.643 486.749 C 449.289 481.768, 448.993 474.049, 448.985 469.596 C 448.976 465.143, 448.565 460.860, 448.070 460.079 C 447.300 458.863, 444.372 458.828, 427.835 459.841 C 417.201 460.492, 407.679 461.019, 406.676 461.012 C 404.946 461.001, 404.889 462.074, 405.564 481.812 L 406.276 502.624 397.388 504.950 C 367.434 512.790, 324.167 531.084, 288.500 550.990 C 275.576 558.203, 256.241 569.540, 255.148 570.546 C 254.824 570.845, 276.284 604.410, 278.049 606.365 C 278.479 606.841, 283.706 604.311, 289.665 600.743 C 316.958 584.402, 345.746 570.048, 372 559.689 C 389.486 552.790, 405.742 547.408, 406.576 548.243 C 407.044 548.711, 405.209 625.217, 404.722 625.533 C 404.600 625.613, 394.825 629.173, 383 633.445 C 350.292 645.262, 334.962 651.459, 318.293 659.602 C 287.056 674.861, 270.137 689.581, 262.785 707.895 C 260.910 712.565, 260.532 715.427, 260.518 725.053 C 260.500 736.369, 260.576 736.760, 264.187 744.065 C 276.487 768.948, 306.615 779.379, 356.654 776.078 C 366.469 775.431, 377.807 774.443, 381.850 773.884 C 385.892 773.324, 389.431 773.098, 389.714 773.381 C 389.997 773.664, 389.020 780.781, 387.542 789.198 C 380.288 830.506, 370.474 870.579, 360.125 901.143 L 357.199 909.787 377.654 917.006 C 388.904 920.976, 398.368 923.965, 398.686 923.647 C 400.978 921.356, 418.258 858.930, 423.547 833.837 L 425.162 826.174 437.331 834.443 C 479.253 862.930, 520.775 879.844, 561.500 885.025 C 572.103 886.374, 598.413 886.371, 609.572 885.019 C 676.349 876.931, 738.441 831.379, 786.118 755.500 C 808.891 719.257, 821.303 680.767, 826.591 630 C 828.559 611.105, 828.006 564.143, 825.604 546.225 C 812.857 451.143, 773.457 379.990, 713.951 344.594 C 692.664 331.931, 664.326 323.556, 625 318.303 C 606.098 315.779, 557.941 315.792, 540.182 318.326 C 499.667 324.108, 457.990 337.228, 428.130 353.601 C 424.627 355.522, 421.571 356.905, 421.340 356.673 C 421.109 356.442, 424.124 348.883, 428.040 339.876 C 439.601 313.288, 451.843 282.690, 456.546 268.626 L 460.935 255.500 467.218 254.718 C 524.457 247.596, 589.068 230.304, 648.916 206.091 C 655.746 203.328, 661.781 200.619, 662.328 200.072 C 662.987 199.413, 660.352 192.513, 654.503 179.591 L 645.684 160.105 642.092 161.651 C 618.279 171.895, 574.575 186.861, 546.500 194.385 C 519.091 201.731, 471.936 211.269, 470.437 209.771 C 470.170 209.503, 470.621 205.058, 471.440 199.892 C 473.567 186.481, 476.664 157.694, 478.421 135 C 480.188 112.191, 482.385 71.037, 481.862 70.560 C 481.663 70.378, 471.807 69.907, 459.961 69.511 L 438.422 68.793 437.153 94.146 M 449.822 574.107 C 449.645 593.023, 449.518 608.593, 449.541 608.707 C 449.669 609.362, 476.708 596.698, 483 593.036 C 497.731 584.463, 505 577.754, 505 572.732 C 505 569.026, 500.211 560.393, 494.983 554.672 C 486.990 545.926, 476.132 541.572, 459.322 540.371 L 450.144 539.715 449.822 574.107 M 394.500 675.706 C 342.571 694.228, 310.390 710.800, 304.488 722.059 C 302.713 725.444, 303.653 726.680, 309.765 729.003 C 317.657 732.001, 331.641 733.329, 348 732.633 C 361.852 732.043, 385.567 729.674, 393 728.137 L 396.500 727.413 398.209 711.456 C 399.916 695.519, 401.883 673.630, 401.632 673.354 C 401.560 673.274, 398.350 674.332, 394.500 675.706 " stroke="none" fill="black" fill-rule="evenodd"/>
</svg>