<svg xmlns="http://www.w3.org/2000/svg" width="1000" height="1000" viewBox="0 0 1000 1000" version="1.1">
	<path d="M 470.856 98.218 L 451.211 104.249 452.136 107.375 C 465.004 150.832, 492.533 250.867, 491.797 251.491 C 491.391 251.836, 427.691 270.704, 405.500 277.052 C 368.848 287.538, 336.251 295.081, 310 299.153 C 297.993 301.015, 291.287 301.409, 271 301.444 C 246.935 301.486, 241.561 301.030, 223 297.372 C 205.856 293.993, 182.051 286.114, 168.991 279.496 C 166.137 278.049, 163.584 277.083, 163.318 277.349 C 163.052 277.615, 157.939 285.857, 151.955 295.666 C 139.402 316.244, 139.233 313.754, 153.649 320.536 C 194.538 339.773, 245.844 348.844, 292.441 345.075 C 333.874 341.724, 380.663 330.726, 477.455 301.588 C 491.180 297.457, 502.496 294.172, 502.602 294.288 C 504.111 295.953, 519.129 368.805, 521.920 388 C 529.959 443.300, 533.593 520.773, 530.973 581 C 529.456 615.858, 524.226 669.398, 521.983 673.028 C 521.492 673.823, 516.901 673.409, 505.898 671.580 C 412.868 656.114, 314.266 665.403, 259 694.840 C 241.477 704.174, 224.942 718.322, 216.090 731.557 C 199.472 756.403, 197.530 788.091, 210.752 818.635 C 220.844 841.947, 240.692 862.310, 265.500 874.803 C 310.440 897.434, 367.268 900.920, 423.156 884.472 C 454.150 875.351, 479.235 861.019, 499.056 841.108 C 521.386 818.678, 537.042 789.910, 550.422 746.726 C 552.940 738.600, 555 731.287, 555 730.476 C 555 729.664, 555.146 729, 555.324 729 C 555.502 729, 563.040 731.862, 572.074 735.360 C 635.171 759.790, 718.431 804.521, 797.810 856.636 C 807.330 862.886, 815.290 868, 815.498 868 C 815.707 868, 821.373 860.066, 828.091 850.369 L 840.304 832.738 837.902 830.892 C 836.581 829.877, 826.725 823.329, 816 816.341 C 729.500 759.983, 637.755 711.795, 574.500 689.497 C 570.100 687.945, 566.110 686.336, 565.633 685.921 C 565.149 685.500, 565.687 678.819, 566.847 670.833 C 571.807 636.685, 573.660 612.916, 575.162 564.215 C 576.148 532.219, 576.621 525.024, 577.708 525.442 C 588.601 529.621, 617.287 536.208, 635.087 538.616 C 650.283 540.672, 682.503 540.935, 696 539.114 C 743.676 532.679, 782.753 514.249, 812.849 484.005 C 833.575 463.178, 847.571 437.937, 853.608 410.500 C 855.968 399.775, 855.974 372.579, 853.621 358.500 C 842.630 292.748, 797.180 244.988, 726.144 224.541 C 679.764 211.192, 635.290 213.578, 556.683 233.633 C 544.684 236.695, 534.648 238.981, 534.382 238.715 C 534.115 238.448, 531.708 229.947, 529.033 219.824 C 521.890 192.794, 508.049 142.883, 500.243 116.006 C 495.523 99.752, 492.970 92.462, 491.960 92.350 C 491.157 92.260, 481.660 94.901, 470.856 98.218 M 640 261.545 C 624.514 263.489, 603.959 267.322, 584 271.987 C 566.378 276.106, 546.223 281.444, 545.477 282.190 C 545.227 282.439, 547.228 292.286, 549.923 304.072 C 564.382 367.300, 569.183 400.505, 573.579 467.653 L 574.244 477.807 589.372 482.894 C 619.589 493.056, 639.353 496.445, 668 496.378 C 691.108 496.324, 704 494.535, 721.611 488.939 C 775.872 471.699, 812 430.571, 812 386.040 C 812 323.928, 771.938 279.472, 701.500 263.423 C 691.122 261.058, 686.931 260.649, 670.500 260.395 C 658.173 260.204, 647.461 260.608, 640 261.545 M 381.500 709.099 C 328.579 713.030, 287.488 725.128, 263.770 743.762 C 244.645 758.787, 240.721 780.472, 252.690 805 C 257.710 815.289, 270.137 827.654, 282 834.165 C 317.354 853.568, 369.510 856.208, 415.436 840.918 C 442.170 832.018, 461.422 819.857, 474.672 803.500 C 485.934 789.598, 494.865 773.026, 502.897 751.125 C 507.098 739.671, 513.457 718.124, 512.824 717.491 C 512.060 716.727, 490.250 713.136, 477 711.592 C 446.638 708.053, 408.852 707.067, 381.500 709.099 " stroke="none" fill="black" fill-rule="evenodd"/>
</svg>