<svg xmlns="http://www.w3.org/2000/svg" width="1000" height="1000" viewBox="0 0 1000 1000" version="1.1">
	<path d="M 366.631 78.250 C 366.329 82.787, 365.592 100.675, 364.994 118 C 361.718 212.863, 354.106 305.850, 345.429 357 C 335.275 416.860, 315.370 487.152, 293.048 541.980 L 288.311 553.617 305.470 571.997 C 314.908 582.106, 323.074 590.525, 323.618 590.706 C 324.161 590.887, 329.307 587.360, 335.053 582.869 C 376.927 550.137, 432.116 523.373, 480.112 512.522 C 530.848 501.052, 573.586 505.336, 614.642 526.008 C 661.087 549.394, 693.619 589.972, 702.676 635.818 C 705.032 647.741, 705.018 669.668, 702.647 681 C 696.451 710.615, 683.084 734.017, 658.055 759.069 C 643.047 774.091, 631.261 783.562, 614.288 794.242 C 542.881 839.172, 425.568 868.807, 293.750 875.214 L 269 876.417 269 898.348 L 269 920.279 284.250 919.601 C 398.886 914.500, 498.128 895.119, 576.306 862.565 C 621.213 843.865, 656.800 821.490, 685.303 794.034 C 742.351 739.081, 761.793 670.932, 739.465 604.186 C 723.405 556.179, 685.925 513.803, 636.683 487.978 C 616.379 477.330, 593.074 469.450, 570 465.432 C 558.145 463.368, 531.341 462.274, 515.500 463.207 C 468.195 465.995, 410.585 484.746, 360.250 513.739 C 353.512 517.619, 348 520.704, 348 520.594 C 348 520.483, 349.595 515.692, 351.544 509.946 C 366.871 464.765, 380.776 410.037, 388.496 364.500 C 398.282 306.782, 407.012 196.151, 409.645 96.501 L 410.311 71.314 407.905 70.671 C 406.582 70.317, 396.878 70.021, 386.340 70.014 L 367.180 70 366.631 78.250 " stroke="none" fill="black" fill-rule="evenodd"/>
</svg>