<svg xmlns="http://www.w3.org/2000/svg" width="1000" height="1000" viewBox="0 0 1000 1000" version="1.1">
	<path d="M 705.405 118.085 C 635.175 122.343, 561.394 155.576, 491.530 214.419 C 475.313 228.078, 443.632 259.389, 444.220 261.177 C 444.625 262.410, 474.901 288.859, 476 288.940 C 476.275 288.961, 484.150 281.438, 493.500 272.223 C 522.691 243.453, 547.550 224.074, 580.872 204.110 C 652.644 161.110, 732.835 149.214, 783.500 174.051 C 834.907 199.252, 846.350 263.261, 812.006 333.500 C 808.241 341.200, 802.830 350.976, 799.982 355.225 C 793.847 364.376, 780.813 378.474, 771.306 386.242 C 749.516 404.044, 718.371 420.127, 687.690 429.422 L 676.500 432.812 676.220 420.404 L 675.940 407.996 663.526 390.957 C 656.699 381.586, 650.750 373.966, 650.306 374.024 C 649.863 374.083, 644.782 378.039, 639.016 382.815 C 618.013 400.213, 604.705 415.547, 598.058 430.006 C 591.454 444.370, 592.950 458.981, 602.086 469.360 C 606.953 474.890, 616.053 479.590, 624.898 481.143 L 631.295 482.266 630.652 494.883 C 630.298 501.822, 630.006 510.425, 630.003 514 L 629.998 520.500 614.493 520.700 C 566.871 521.314, 530.572 533.681, 506.480 557.500 C 493.334 570.496, 486 582.873, 481.298 600 C 478.798 609.107, 478.773 634.810, 481.256 643.827 C 489.607 674.152, 504.628 690.978, 541.749 711.586 C 544.636 713.189, 546.998 714.773, 546.999 715.108 C 547 715.442, 542.003 721.292, 535.896 728.108 C 487.860 781.715, 470.695 815.081, 477.542 841.540 C 483.969 866.374, 510.856 881.553, 561.500 888.938 C 585.679 892.464, 597.259 893.138, 643.314 893.696 C 697.879 894.358, 738.581 892.755, 802 887.445 C 826.340 885.408, 859.276 882.058, 859.763 881.570 C 860.128 881.205, 856.495 847.934, 855.387 841.495 L 854.869 838.490 832.899 840.686 C 768.728 847.100, 712.581 850.194, 658.500 850.296 C 616.804 850.375, 597.866 849.513, 573.500 846.423 C 549.689 843.405, 530.377 838.253, 522.893 832.924 C 520.136 830.961, 519.834 830.274, 520.276 826.981 C 522.083 813.510, 543.817 783.660, 581.962 742.263 L 588.784 734.860 602.142 739.858 C 618.588 746.011, 638.934 751.554, 640.695 750.362 C 641.395 749.888, 648.204 742.191, 655.826 733.257 L 669.684 717.014 670.371 680.257 L 671.059 643.500 674.019 639.500 C 702.890 600.490, 710.515 573.517, 699.028 551.045 C 695.968 545.059, 686.726 535.991, 679.569 531.952 L 673.731 528.658 674.209 503.818 C 674.472 490.157, 674.930 478.737, 675.226 478.440 C 675.523 478.144, 680.881 476.597, 687.133 475.002 C 747.856 459.515, 801.300 426.497, 831.998 385.502 C 849.079 362.693, 864.958 326.340, 871.529 295 C 875.003 278.430, 876.048 247.676, 873.635 232.988 C 868.102 199.296, 853.191 172.059, 829.371 152.136 C 798.690 126.473, 756.808 114.969, 705.405 118.085 M 283.500 174.695 C 264.008 182.593, 226.450 195.216, 212.641 198.510 C 197.589 202.101, 186.666 203.142, 165 203.054 C 154.275 203.010, 144.603 202.867, 143.508 202.737 C 141.646 202.515, 141.337 203.901, 138.780 223.939 C 137.275 235.730, 136.265 245.599, 136.536 245.869 C 136.806 246.139, 146.861 246.562, 158.880 246.808 C 198.685 247.623, 215.828 244.683, 262.500 229.036 C 272.400 225.717, 280.837 223.001, 281.250 223.001 C 281.663 223, 282 261.714, 282 309.031 C 282 377.002, 281.738 395.137, 280.750 395.414 C 280.063 395.608, 276.350 396.333, 272.500 397.026 C 253.418 400.461, 220.735 414.395, 200.449 427.746 C 154.594 457.922, 140.768 499.153, 161.946 542.566 C 175.304 569.951, 198.563 592.119, 238.500 615.530 C 244 618.754, 248.687 621.529, 248.916 621.695 C 249.645 622.227, 217.561 685.547, 203.413 711.500 C 195.917 725.250, 184.607 745.418, 178.278 756.319 L 166.771 776.137 181.388 798.069 C 189.427 810.131, 196.417 820, 196.921 820 C 198.019 820, 254.387 762.293, 272.623 742.500 C 316.567 694.801, 330.262 676.582, 369.356 613.807 C 390.096 580.504, 443.142 492.191, 443.678 490.072 C 443.966 488.934, 439.032 485.551, 425.788 477.807 C 415.730 471.926, 407.190 467.426, 406.810 467.807 C 406.431 468.188, 392.891 490.550, 376.722 517.500 C 360.553 544.450, 342.414 574.375, 336.412 584 L 325.500 601.500 325.231 578.222 L 324.963 554.943 330.052 539.845 C 335.825 522.719, 341.976 499.271, 344.571 484.500 C 347.181 469.640, 346.991 446.003, 344.179 435.686 C 341.360 425.344, 336.672 416.717, 330.250 410.050 L 325 404.601 325 300.381 L 325 196.161 312.997 182.330 C 306.395 174.724, 300.658 168.435, 300.247 168.356 C 299.836 168.276, 292.300 171.129, 283.500 174.695 M 268.500 443.418 C 233.604 455.226, 207.751 472.605, 199.203 490 C 196.873 494.740, 196.500 496.743, 196.500 504.500 C 196.500 512.993, 196.731 513.979, 200.607 522 C 210.177 541.806, 227.012 557.839, 257.139 575.839 C 261.890 578.677, 266.179 581, 266.670 581 C 267.160 581, 268.056 579.763, 268.661 578.250 C 269.266 576.737, 272.515 568.627, 275.880 560.226 L 282 544.953 282 492.476 C 282 443.159, 281.895 440.001, 280.250 440.017 C 279.288 440.027, 274 441.557, 268.500 443.418 M 598 565.166 C 554.845 569.227, 527.376 587.576, 523.023 615.250 C 520.650 630.338, 526.527 647.183, 537.508 656.766 C 542.303 660.951, 557.113 670.298, 570.110 677.342 L 578.719 682.009 596.751 662.254 C 606.669 651.389, 617.696 639.125, 621.256 635 L 627.729 627.500 628.441 595.750 L 629.153 564 618.326 564.136 C 612.372 564.211, 603.225 564.674, 598 565.166 M 300.940 629.750 L 289.634 638.500 279.874 658.750 C 274.505 669.888, 270.272 679, 270.467 679 C 271.008 679, 282.844 664.481, 289.625 655.500 C 297.709 644.793, 313.611 621, 312.682 621 C 312.443 621, 307.159 624.938, 300.940 629.750 M 623.655 697.829 C 621.483 700.229, 621.567 701, 624 701 C 625.467 701, 626 700.333, 626 698.500 C 626 695.513, 625.802 695.457, 623.655 697.829 " stroke="none" fill="black" fill-rule="evenodd"/>
</svg>