<svg xmlns="http://www.w3.org/2000/svg" width="1000" height="1000" viewBox="0 0 1000 1000" version="1.1">
	<path d="M 503.500 86.233 C 493.050 89.555, 484.329 92.421, 484.119 92.601 C 483.644 93.009, 484.053 94.512, 493.463 127 C 501.372 154.304, 515.349 208.478, 516.549 216.479 L 517.227 221 513.364 221.004 C 511.239 221.005, 502.525 221.443, 494 221.975 C 472.859 223.295, 383.543 227.682, 333.251 229.870 C 310.564 230.857, 291.742 231.925, 291.424 232.243 C 291.106 232.561, 291.171 242.311, 291.567 253.910 L 292.289 275 298.394 274.998 C 313.487 274.993, 496.420 266.198, 518.118 264.434 C 527.172 263.698, 525.989 261.493, 529.230 285.159 C 531.305 300.308, 531.459 304.929, 531.334 348.500 C 531.260 374.350, 530.817 400.628, 530.349 406.896 L 529.500 418.291 520.389 406.896 C 509.500 393.274, 488.510 372.743, 477.249 364.696 C 442.965 340.199, 406.227 329.364, 369.352 332.874 C 332.406 336.391, 296.650 347.726, 267.927 365.026 C 252.046 374.591, 243.719 381.174, 229.448 395.447 C 197.172 427.726, 179.544 467.665, 175.984 516.580 C 174.770 533.260, 175.845 554.415, 178.591 567.888 C 187.233 610.282, 212.545 638.713, 252.980 651.443 C 269.593 656.673, 282.327 658.318, 306.500 658.356 C 361.415 658.441, 417.070 644.881, 510 608.771 C 528.425 601.612, 544.020 595.553, 544.655 595.307 C 545.290 595.060, 536.515 604.228, 525.155 615.679 C 463.436 677.893, 429.565 727.374, 421.914 766.500 C 420.190 775.318, 420.201 790.812, 421.938 798 C 428.673 825.877, 456.991 853.658, 499.500 874.092 C 550.957 898.828, 628.672 915.488, 711.750 919.594 L 726 920.298 726.150 899.649 C 726.232 888.292, 726.345 878.438, 726.400 877.750 C 726.473 876.834, 722.754 876.316, 712.500 875.814 C 630.989 871.818, 552.665 854.001, 507.500 829.181 C 490.243 819.697, 471.071 802.952, 466.487 793.358 C 457.164 773.846, 477.352 733.942, 523.075 681.500 C 546.394 654.754, 589.763 612.982, 628.500 579.955 C 664.178 549.536, 659.502 552.604, 682.868 544.284 C 725.613 529.063, 787.420 508.738, 816.177 500.444 C 825.155 497.855, 832.629 495.629, 832.787 495.498 C 833.451 494.945, 824.502 461.083, 822.481 456.500 C 814.932 439.379, 799.019 427.427, 782.249 426.281 C 771.982 425.579, 764.813 427.194, 753.865 432.675 C 737.390 440.922, 698.790 467.721, 660.391 497.572 C 643.667 510.573, 639.671 513.210, 633.146 515.547 C 611.227 523.401, 546.073 547.905, 507.392 562.844 C 460.165 581.083, 444.387 586.835, 424.938 592.901 C 380.631 606.720, 345.914 613.601, 315 614.691 C 278.669 615.973, 254.465 609.431, 239.134 594.187 C 227.315 582.437, 221.922 568.789, 219.796 545.255 C 217.111 515.530, 223.116 483.826, 236.149 458.902 C 248.922 434.479, 270.891 412.736, 297 398.679 C 320.957 385.780, 358.002 376, 382.903 376 C 399.143 376, 419.688 381.342, 434.481 389.410 C 464.451 405.756, 492.552 436.264, 510.432 471.864 C 512.955 476.889, 515.578 480.999, 516.260 480.998 C 516.942 480.997, 528.450 482.610, 541.834 484.581 C 555.218 486.553, 566.414 487.919, 566.715 487.618 C 567.478 486.856, 570.608 455.621, 572.439 430.500 C 577.593 359.794, 576.848 298.907, 570.405 264.363 L 569.820 261.227 579.160 260.546 C 591.607 259.639, 637.996 255.354, 655.500 253.495 C 710.637 247.639, 753.626 242.645, 754.315 242.014 C 755.069 241.326, 750.707 200.374, 749.782 199.449 C 749.556 199.222, 735.675 200.589, 718.935 202.486 C 653.347 209.918, 586.687 216.462, 569.111 217.193 L 561.722 217.500 557.977 201 C 552.473 176.753, 543.965 144.212, 534.856 112.571 C 525.537 80.206, 525.456 79.969, 523.775 80.096 C 523.074 80.149, 513.950 82.911, 503.500 86.233 " stroke="none" fill="black" fill-rule="evenodd"/>
</svg>