<svg xmlns="http://www.w3.org/2000/svg" width="1000" height="1000" viewBox="0 0 1000 1000" version="1.1">
	<path d="M 427.106 104.674 L 415.084 122.351 418.591 126.232 C 430.573 139.495, 436.124 155.247, 436.094 175.895 C 436.059 199.711, 430.409 218.869, 413.357 252.997 C 391.292 297.155, 353.164 356.214, 317.372 401.674 C 311.667 408.919, 307 415.270, 307 415.786 C 307 416.920, 341.526 445, 342.920 445 C 343.460 445, 351.686 439.910, 361.201 433.689 C 421.635 394.176, 480.587 359.523, 523.356 338.372 C 543.385 328.468, 565.763 319.042, 572.886 317.510 C 576.216 316.793, 576.260 316.828, 575.561 319.641 C 571.396 336.386, 543.871 386.783, 513.840 432.651 C 456.405 520.371, 371.966 633.215, 328.379 680.500 C 312.298 697.945, 238.856 772.190, 238.266 771.599 C 238.046 771.379, 239.015 763.617, 240.421 754.349 C 243.907 731.359, 247.108 704.775, 246.467 704.134 C 245.836 703.502, 204.767 699.145, 203.891 699.616 C 203.556 699.796, 202.983 702.994, 202.618 706.722 C 201.266 720.507, 196.752 751.411, 191.413 783.428 C 188.393 801.538, 186.109 816.838, 186.337 817.428 C 186.566 818.017, 193.311 826.270, 201.327 835.767 L 215.902 853.034 239.201 831.191 C 271.899 800.537, 316.540 756.405, 342.770 728.803 L 365.040 705.369 376.770 701.169 C 410.642 689.042, 449.964 683.472, 484.626 685.890 C 524.203 688.651, 552.480 696.521, 598 717.444 C 675.222 752.939, 755.517 809.746, 818.240 873.257 L 833.980 889.195 836.752 886.847 C 854.918 871.467, 866 861.493, 866 860.524 C 866 858.658, 821.032 814.766, 805.260 801.238 C 749.739 753.615, 696.137 717.559, 636.234 687.543 C 580.275 659.503, 543.215 647.581, 497.629 642.952 C 482 641.365, 439.145 642.232, 425.584 644.409 C 420.130 645.285, 415.467 645.800, 415.222 645.555 C 414.976 645.310, 419.937 638.447, 426.244 630.305 C 489.821 548.236, 554.064 454.939, 587.240 396.500 C 623.920 331.889, 630.758 299.269, 611.540 280.591 C 604.700 273.943, 597.882 271.597, 585.500 271.632 C 573.005 271.667, 562.911 274.050, 543.156 281.631 C 513.652 292.953, 471.841 314.597, 421 344.867 C 413.025 349.615, 406.170 353.647, 405.767 353.828 C 405.364 354.008, 409.091 347.800, 414.048 340.033 C 448.068 286.736, 470.135 240.285, 477.009 207.500 C 479.679 194.765, 480.702 170.790, 479.090 158.719 C 476.762 141.283, 470.079 123.394, 460.548 109.084 C 456.147 102.476, 444.404 89.822, 440.965 87.981 C 439.359 87.122, 437.610 89.229, 427.106 104.674 " stroke="none" fill="black" fill-rule="evenodd"/>
</svg>