<svg xmlns="http://www.w3.org/2000/svg" width="1000" height="1000" viewBox="0 0 1000 1000" version="1.1">
	<path d="M 428.999 115.750 C 428.999 128.222, 427.662 155.670, 425.967 178 C 424.759 193.913, 421.133 228.818, 420.454 231.068 C 420.029 232.476, 418.684 232.500, 407.240 231.302 C 368.989 227.299, 310.769 214.969, 278.682 204.075 L 269.864 201.081 268.540 204.290 C 266.078 210.258, 255 240.975, 255 241.833 C 255 243.519, 297.267 255.594, 325 261.831 C 347.104 266.801, 382.658 272.796, 400 274.476 C 412.435 275.680, 412.316 275.619, 411.563 280.354 C 410.531 286.848, 399.793 317.940, 392.506 335.533 C 383.665 356.877, 363.489 397.748, 352.043 417.500 L 342.771 433.500 346.880 450.912 C 349.141 460.488, 351.180 468.513, 351.412 468.746 C 351.644 468.978, 355.843 468.680, 360.743 468.085 C 402.846 462.965, 453.258 468.625, 491 482.708 C 559.357 508.215, 592.386 561.021, 589.696 640.500 C 588.314 681.314, 579.654 721.902, 567.824 743 C 557.977 760.563, 536.836 783.630, 519 796.274 C 508.126 803.983, 487.192 814.681, 475.604 818.452 C 459.204 823.789, 449.021 825.229, 431.500 824.689 C 413.201 824.124, 404.755 822.299, 391.257 815.989 C 369.960 806.035, 350.910 788.076, 336.933 764.778 C 335.045 761.631, 333.158 759.044, 332.740 759.028 C 331.749 758.991, 297.884 777.922, 296.243 779.430 C 295.252 780.341, 296.431 782.796, 301.818 791.042 C 329.358 833.197, 363.781 858.022, 406.730 866.700 C 420.546 869.492, 450.878 869.218, 466 866.166 C 526.257 854.002, 582.555 811.249, 609.544 757.158 C 616.681 742.855, 620.251 732.199, 624.414 712.776 C 642.199 629.794, 634.489 563.445, 601.288 513.758 C 574.643 473.883, 532.302 446.400, 475.500 432.109 C 456.628 427.361, 424.632 423.032, 408.250 423.011 C 403.712 423.005, 400 422.726, 400 422.390 C 400 422.055, 404.005 413.842, 408.900 404.140 C 429.734 362.848, 445.844 322.526, 453.503 292.500 L 456.819 279.500 482.659 278.880 C 533.271 277.667, 571.991 272.314, 611 261.136 C 626.442 256.712, 641.982 251.418, 643.250 250.150 C 643.735 249.665, 640.773 240.527, 636.503 229.330 L 628.892 209.374 617.696 213.251 C 579.788 226.377, 536.252 233.648, 489.178 234.715 L 463.855 235.289 464.440 231.894 C 467.698 212.979, 472.964 140.209, 472.990 113.750 L 473 104 451 104 L 429 104 428.999 115.750 M 718.101 577.140 C 716.783 588.338, 715.546 597.950, 715.351 598.500 C 715.156 599.050, 718.710 600.533, 723.248 601.794 C 740.417 606.569, 763.318 619.624, 779.237 633.714 C 787.423 640.959, 798.317 652.714, 805.663 662.230 C 817.419 677.458, 832.191 704.546, 840.576 726.250 C 842.659 731.642, 844.923 736, 845.641 736 C 846.709 736, 873.323 726.870, 883.193 723.117 L 885.885 722.093 882.064 712.297 C 865.138 668.904, 844.071 635.855, 815.868 608.455 C 798.611 591.689, 783.300 580.695, 763.032 570.516 C 752.433 565.193, 732.318 558.180, 725.246 557.343 L 720.497 556.780 718.101 577.140 M 306.218 625.822 C 293.089 649.627, 266.939 676.305, 237.747 695.675 C 203.984 718.079, 164.937 733.587, 118.517 743.030 C 110.314 744.699, 103.483 746.184, 103.336 746.330 C 102.995 746.672, 109.983 788.316, 110.462 788.795 C 111.116 789.449, 128.233 785.982, 146.612 781.474 C 230.196 760.968, 298.283 717.118, 337.414 658.591 C 343.985 648.763, 351.812 634.418, 350.980 633.730 C 349.989 632.909, 312.457 617.968, 311.500 618.012 C 310.950 618.038, 308.573 621.552, 306.218 625.822 " stroke="none" fill="black" fill-rule="evenodd"/>
</svg>