<svg xmlns="http://www.w3.org/2000/svg" width="1000" height="1000" viewBox="0 0 1000 1000" version="1.1">
	<path d="M 559.500 111.614 C 550.106 112.997, 529.511 117.763, 508 123.533 C 465.368 134.968, 448.648 138.423, 427.687 140.130 C 399.036 142.463, 360.581 136.940, 329.912 126.086 C 325.308 124.457, 321.418 123.248, 321.267 123.400 C 319.897 124.770, 304.336 162.688, 304.903 163.275 C 306.155 164.574, 328.791 171.912, 341 174.978 C 367.018 181.510, 387.077 184, 413.693 184 C 444.133 184, 461.586 181.064, 514.500 167.042 C 548.316 158.080, 562.489 155, 569.907 155 C 574.281 155, 575 155.274, 575 156.940 C 575 163.002, 562.314 190.033, 548.926 212.500 C 534.739 236.308, 505.479 278.935, 486.210 303.868 L 479.035 313.151 488.386 326.826 C 512.879 362.642, 535.374 407.891, 549.869 450.500 C 553.677 461.692, 562.399 493.950, 561.778 494.542 C 561.625 494.689, 552.950 495.772, 542.500 496.951 C 454.144 506.914, 367.883 529.725, 290.039 563.711 C 235.323 587.599, 211.619 604.176, 197.153 628.665 C 190.439 640.031, 187.740 649.539, 187.264 663.500 C 186.908 673.928, 187.185 676.783, 189.381 685.297 C 194.649 705.716, 206.713 724.621, 228.500 746.598 C 262.042 780.433, 315.082 815.548, 386.850 851.435 C 418.985 867.503, 473.689 891.670, 475.973 890.806 C 477.759 890.131, 501.814 858.715, 509.514 847 C 545.725 791.915, 577.867 712.376, 599.864 623.423 C 609.124 585.975, 611 573.624, 611 550.111 L 611 536.144 616.750 535.422 C 624.905 534.397, 674.222 535.740, 695 537.553 C 735.437 541.080, 772.339 548.207, 797.313 557.313 L 804.126 559.798 804.956 557.649 C 805.412 556.467, 809.007 547.447, 812.946 537.604 C 816.885 527.761, 819.746 519.369, 819.304 518.956 C 817.724 517.481, 794.242 510.105, 779.837 506.560 C 739.239 496.569, 694.318 491.876, 638.286 491.772 L 606.072 491.712 604.452 484.106 C 593.867 434.423, 570.356 376.896, 539.881 326.115 C 536.123 319.854, 533.353 314.229, 533.724 313.615 C 534.096 313.002, 538.361 306.983, 543.201 300.241 C 583.319 244.359, 610.062 197.079, 617.124 169.551 C 620.078 158.037, 619.483 143.769, 615.723 135.963 C 610.620 125.368, 602.818 118.303, 591.500 114.029 C 586.804 112.255, 583.002 111.698, 574 111.467 C 567.675 111.305, 561.150 111.371, 559.500 111.614 M 558.500 539.230 C 464.096 548.063, 357.756 577.692, 278.500 617.246 C 242.290 635.317, 227.574 652.235, 231.106 671.728 C 236.990 704.204, 288.506 748.857, 373.768 795.384 C 389.800 804.133, 431.921 824.939, 448.843 832.469 L 462.186 838.405 464.091 835.953 C 482.577 812.156, 508.305 761.899, 525.754 715.500 C 542.472 671.045, 561.188 605.010, 565.424 575.536 C 567.329 562.277, 568.379 543.010, 567.334 540.491 C 566.558 538.622, 565.942 538.534, 558.500 539.230 " stroke="none" fill="black" fill-rule="evenodd"/>
</svg>