<svg xmlns="http://www.w3.org/2000/svg" width="1000" height="1000" viewBox="0 0 1000 1000" version="1.1">
	<path d="M 535.059 128.512 C 514.386 130.874, 492.484 135.421, 448.961 146.385 C 393.476 160.363, 382.188 161.979, 340 161.987 C 315.938 161.992, 298.040 161.020, 276.037 158.512 C 269.183 157.731, 263.368 157.299, 263.116 157.551 C 261.924 158.743, 256.182 199.495, 257.124 200.077 C 258.572 200.971, 286.363 203.779, 307 205.116 C 328.335 206.498, 372.787 205.699, 389.500 203.633 C 412.837 200.749, 418.561 199.504, 470.500 186.017 C 488.942 181.227, 511.098 176.382, 526 173.878 C 537.142 172.006, 543.430 171.600, 562 171.555 C 582.268 171.505, 585.393 171.727, 593.500 173.789 C 615.769 179.452, 632.264 193.374, 640.020 213.050 C 653.094 246.219, 664.527 324.801, 670.056 419.500 C 671.463 443.601, 672.393 554.109, 671.203 555.830 C 670.442 556.930, 666.417 556.804, 647.891 555.098 C 602.251 550.895, 548.271 550.066, 507.500 552.942 C 499.787 553.486, 495.281 553.437, 494.886 552.806 C 494.549 552.265, 493.976 548.259, 493.612 543.902 C 492.132 526.148, 486.344 499.639, 479.989 481.500 C 473.358 462.571, 461.916 441.806, 451.105 429.078 C 440.975 417.151, 422.287 405.361, 408 401.883 C 399.209 399.743, 384.804 400.196, 376 402.889 C 338.221 414.446, 312.040 454.698, 303.404 514.500 C 301.527 527.497, 300.884 564.472, 302.230 582 L 302.959 591.500 289.730 596.358 C 211.200 625.198, 153.786 670.672, 134.361 719.419 C 123.044 747.817, 126.840 776.919, 144.740 799 C 164.276 823.099, 196.953 836.934, 240.500 839.545 C 279.952 841.910, 328.920 829.497, 369.355 806.882 C 375.326 803.543, 380.533 801.191, 380.927 801.655 C 381.322 802.120, 385.489 807.225, 390.188 813 C 411.085 838.681, 435.811 858.921, 462.819 872.453 C 501.663 891.916, 549.151 896.869, 593 886.030 C 618.650 879.690, 637.573 865.422, 655.106 839.204 C 683.297 797.044, 702.579 724.937, 710.512 632 C 712.797 605.237, 711.672 607.976, 719.740 609.533 C 765.387 618.343, 813.397 634.110, 848.938 651.963 C 858.607 656.821, 859.470 657.078, 860.652 655.461 C 862.700 652.660, 880 620.295, 880 619.265 C 880 617.993, 851.424 604.304, 836 598.187 C 802.438 584.876, 767.887 574.638, 732.500 567.518 C 725.350 566.079, 718.600 564.719, 717.500 564.495 C 715.528 564.093, 715.500 563.274, 715.473 505.794 C 715.446 449.276, 714.781 428.925, 711.459 383 C 706.070 308.486, 695.690 241.194, 684.323 207.083 C 669.804 163.509, 640.842 138.339, 595 129.457 C 583.176 127.166, 551.250 126.663, 535.059 128.512 M 384.360 446.356 C 364.877 455.641, 350.458 486.144, 346.002 527.500 C 344.844 538.252, 344.913 576.253, 346.094 577.429 C 346.420 577.754, 353.170 576.459, 361.094 574.549 C 387.384 568.215, 437.480 559.039, 446.069 558.985 C 451.232 558.952, 451.375 558.360, 449.585 544.370 C 441.118 478.203, 411.362 433.488, 384.360 446.356 M 517.500 596.050 C 497.518 597.172, 495 597.592, 495 599.801 C 495 603.419, 491.892 627.899, 490.404 636 C 484.291 669.288, 472.901 700.016, 457.361 725.137 C 448.466 739.517, 440.368 749.777, 427.708 762.703 L 415.757 774.906 418.763 778.992 C 429.770 793.960, 447.630 811.324, 462.809 821.816 C 497.607 845.869, 537 853.316, 580.155 843.999 C 591.517 841.546, 597.488 838.391, 606.044 830.320 C 636.079 801.986, 657.387 731.289, 667.003 628.065 C 669.818 597.850, 670.892 601.487, 658.750 600.122 C 621.333 595.918, 554.280 593.985, 517.500 596.050 M 447.500 602.778 C 439.101 603.679, 405.572 609.525, 391.500 612.541 C 375.916 615.881, 353.120 621.515, 352.526 622.172 C 352.363 622.353, 353.752 629.025, 355.613 637 C 362.582 666.875, 373.618 698.628, 386.198 725 L 392.162 737.500 398.623 730.500 C 422.658 704.461, 437.917 673.584, 446.065 634.500 C 447.866 625.860, 451.222 602.617, 450.686 602.498 C 450.584 602.475, 449.150 602.601, 447.500 602.778 M 294 641.581 C 237.786 664.531, 196.803 694.819, 179.589 726.136 C 165.625 751.541, 170.259 770.668, 193.484 783.483 C 231.818 804.637, 296.476 798.163, 349.627 767.849 L 356.753 763.785 350.566 751.642 C 336.334 723.710, 322.067 684.537, 314.371 652.262 C 311.489 640.172, 310.117 636.030, 309 636.047 C 308.175 636.060, 301.425 638.550, 294 641.581 " stroke="none" fill="black" fill-rule="evenodd"/>
</svg>