<svg xmlns="http://www.w3.org/2000/svg" width="1000" height="1000" viewBox="0 0 1000 1000" version="1.1">
	<path d="M 334.519 95.750 C 326.235 132.123, 314.625 166.207, 300.448 195.767 C 288.594 220.487, 281.779 229.867, 236.612 283.635 C 184.400 345.789, 167.918 374.370, 167.773 403 C 167.685 420.314, 173.226 431.441, 196.776 461.244 C 213.216 482.048, 218.252 489.367, 224.984 502.242 C 237.876 526.897, 243.360 552.690, 243.429 589 C 243.504 628.563, 238.552 659.467, 225.808 698.947 C 213.607 736.743, 192.208 784.875, 169.932 824.621 C 166.120 831.424, 163.003 837.330, 163.006 837.745 C 163.010 838.160, 171.133 843.410, 181.059 849.412 C 196.429 858.705, 199.302 860.114, 200.434 858.912 C 202.547 856.665, 215.943 832.106, 225.748 812.500 C 258.799 746.413, 278.178 688.691, 284.472 637.580 C 289.665 595.418, 287.951 555.073, 279.607 523 C 271.668 492.484, 258.650 468.696, 230.630 433.500 C 223.186 424.150, 215.661 413.695, 213.907 410.266 C 210.828 404.249, 210.757 403.834, 211.862 398.332 C 215.399 380.723, 232.473 356.194, 282.399 297 C 304.880 270.346, 320.768 249.677, 327.534 238.283 C 343.300 211.732, 360.608 168.582, 371.367 129 C 375.683 113.124, 380.381 92.047, 379.745 91.412 C 379.206 90.872, 341.475 84.053, 338.848 84.021 C 337.553 84.004, 336.616 86.544, 334.519 95.750 M 674.570 198.250 C 671.157 206.603, 660.864 235.197, 661.163 235.493 C 661.348 235.677, 664.650 237.495, 668.500 239.533 C 692.643 252.315, 713.856 274.167, 724.399 297.117 C 733.311 316.517, 736.460 333.656, 735.737 358.822 C 735.115 380.441, 734.704 382.809, 713.026 489.500 C 701.356 546.932, 696.932 576.878, 694.857 612.469 C 692.511 652.732, 697.065 691.792, 707.977 725 C 728.435 787.256, 776.388 849.163, 833.155 886.604 C 843.541 893.454, 862.527 903.938, 864.619 903.979 C 865.235 903.990, 869.285 895.373, 873.619 884.828 C 877.954 874.284, 881.636 865.326, 881.802 864.923 C 881.968 864.519, 878.818 862.522, 874.802 860.485 C 841.613 843.652, 803.836 808.520, 779.848 772.183 C 741.208 713.650, 731.017 659.245, 742.575 573.208 C 745.671 550.163, 749.759 527.863, 760.027 478 C 778.120 390.143, 780.535 374.118, 779.697 347.500 C 778.963 324.179, 775.320 305.967, 767.521 286.621 C 755.068 255.732, 732.680 228.808, 703.339 209.436 C 696.108 204.662, 678.155 195, 676.515 195 C 676.176 195, 675.300 196.463, 674.570 198.250 M 438.500 334.492 C 428.600 339.688, 420.076 344.094, 419.558 344.284 C 419.039 344.473, 421.386 350.718, 424.773 358.160 C 447.039 407.094, 461.952 455.957, 466.534 494.994 C 470.804 531.376, 465.835 621.821, 455.518 695.500 C 454.748 701, 454.429 705.769, 454.809 706.099 C 455.530 706.723, 491.970 712.003, 495.548 712.001 C 497.939 712, 497.926 712.077, 503.450 662.500 C 511.253 592.461, 513.959 533.139, 510.930 498.500 C 507.008 453.634, 490.033 395.844, 464.008 338.750 C 460.560 331.188, 457.461 325.010, 457.120 325.023 C 456.779 325.035, 448.400 329.296, 438.500 334.492 " stroke="none" fill="black" fill-rule="evenodd"/>
</svg>