<svg xmlns="http://www.w3.org/2000/svg" width="1000" height="1000" viewBox="0 0 1000 1000" version="1.1">
	<path d="M 729 302.681 C 704.793 306.634, 686.796 312.634, 661.829 325.076 C 633.786 339.051, 600.922 361.532, 570.216 387.745 C 555.888 399.976, 526.542 427.634, 518.913 436.097 C 514.994 440.444, 511.482 444, 511.109 444 C 510.735 444, 508.935 440.962, 507.109 437.250 C 497.628 417.975, 478.839 388.501, 464.945 371.106 C 444.438 345.434, 419.079 324.644, 399.206 317.212 C 393.816 315.196, 390.146 314.621, 380.500 314.279 C 369.993 313.907, 367.256 314.175, 358.500 316.431 C 352.709 317.923, 343.870 321.279, 337.500 324.403 C 314.198 335.832, 295.986 349.907, 266.926 378.943 C 245.877 399.975, 235.299 411.805, 217.757 433.932 C 204.065 451.201, 204.372 450.868, 201.479 451.595 C 198.446 452.356, 198.618 452.540, 188.802 438 C 180.568 425.804, 172.396 409.396, 168.027 396.287 C 161.891 377.878, 156.722 349.717, 155.390 327.440 L 154.706 316 132.853 316 L 111 316 111.003 320.250 C 111.014 333.479, 115.279 365.560, 119.590 384.845 C 129.322 428.376, 152.423 470.485, 181.012 496.811 L 188.523 503.728 210.512 495.057 L 232.500 486.386 237.334 479.943 C 272.844 432.619, 311.266 392.589, 339.336 373.672 C 355.458 362.807, 372.905 356.031, 380.963 357.504 C 389.603 359.083, 407.607 372.254, 420.740 386.603 C 442.412 410.281, 467.274 450.789, 481.492 485.588 C 484.169 492.140, 486.716 497.981, 487.151 498.568 C 487.695 499.302, 494.052 498.365, 507.495 495.568 L 527.048 491.500 542.849 474.500 C 590.626 423.099, 646.379 379.569, 688.944 360.434 C 729.144 342.362, 759.538 340.533, 784 354.716 C 792.520 359.655, 807.411 374.456, 813.920 384.454 C 831.668 411.715, 840.120 447.250, 837.212 482.386 C 834.741 512.254, 827.507 537.261, 812.971 566.190 C 791.492 608.932, 756.219 649.683, 708 687.462 C 666.130 720.266, 609.403 752.759, 549.500 778.251 C 541.800 781.527, 535.098 784.585, 534.608 785.046 C 533.496 786.091, 549.064 824.956, 550.605 824.981 C 551.212 824.992, 560.212 821.304, 570.605 816.786 C 737.245 744.342, 844.058 643.103, 873.433 529.764 C 892.338 456.820, 877.092 385.054, 832.780 338.405 C 815.219 319.918, 792.814 307.594, 769.317 303.496 C 761.411 302.117, 735.642 301.596, 729 302.681 " stroke="none" fill="black" fill-rule="evenodd"/>
</svg>