<svg xmlns="http://www.w3.org/2000/svg" width="1000" height="1000" viewBox="0 0 1000 1000" version="1.1">
	<path d="M 611.033 81.066 C 593.632 83.217, 574 87.406, 574 88.967 C 574 90.634, 584.266 128.504, 584.917 129.235 C 585.276 129.640, 591.180 128.877, 598.035 127.541 C 626.051 122.079, 655 122.424, 655 128.219 C 655 134.556, 642.179 147.720, 624.732 159.297 C 606.720 171.249, 596.606 176.761, 539 206.012 C 509.025 221.233, 480 236.299, 474.500 239.492 C 445.992 256.042, 429.362 270.398, 422.425 284.448 C 418.544 292.308, 418.500 292.525, 418.500 303.948 C 418.500 315.269, 418.576 315.660, 422.317 323.500 C 425.484 330.138, 427.713 333.032, 435.408 340.500 C 445.815 350.599, 455.089 356.582, 472.173 364.216 C 483.739 369.385, 509.718 378.320, 522.750 381.612 C 526.737 382.619, 530 383.976, 530 384.628 C 530 386.753, 519.076 423.066, 512.891 441.500 C 509.570 451.400, 503.698 467.654, 499.844 477.619 L 492.836 495.738 484.168 496.425 C 387.651 504.076, 300.905 538.977, 229.500 598.889 C 208.672 616.364, 176.596 651.891, 178.631 655.230 C 182.014 660.777, 228.173 715.191, 242.845 730.927 C 255.373 744.362, 306.709 794, 308.076 794 C 308.594 794, 314.976 789.335, 322.259 783.634 C 332.213 775.841, 342.327 766.214, 363 744.855 C 422.478 683.403, 452.725 649.537, 476.715 617.533 C 489.740 600.156, 497.382 587.431, 511.266 560 C 522.047 538.701, 522.183 538.494, 525.824 537.808 C 531.369 536.763, 571.003 536.880, 592.500 538.004 C 625.157 539.711, 658.839 543.383, 689 548.522 C 711.444 552.347, 739 558.312, 739 559.346 C 739 560.617, 720.923 602.809, 711.943 622.500 C 702.077 644.132, 681.298 685.049, 670.554 704 C 654.643 732.067, 631.832 764.778, 609.188 792 C 582.983 823.502, 545.203 863.033, 515.750 889.768 C 508.188 896.633, 502 902.568, 502 902.956 C 502 903.566, 524.872 931.132, 528.450 934.833 C 529.514 935.935, 531.890 934.215, 542.119 924.936 C 591.720 879.944, 640.904 825.591, 674.753 778.364 C 708.219 731.670, 744.395 662.440, 776.055 584.500 C 778.959 577.350, 781.632 571.150, 781.995 570.723 C 782.357 570.295, 789.943 572.382, 798.852 575.360 C 813.195 580.153, 815.145 580.586, 815.870 579.137 C 818.781 573.322, 831.132 540.799, 830.623 540.289 C 830.279 539.946, 822.971 537.288, 814.382 534.382 C 805.794 531.477, 798.610 528.943, 798.418 528.752 C 798.227 528.560, 799.868 523.301, 802.065 517.065 C 804.261 510.828, 805.933 505.624, 805.779 505.499 C 804.999 504.868, 764.835 491.843, 764.603 492.146 C 764.453 492.341, 762.387 498.053, 760.010 504.841 C 755.846 516.734, 755.595 517.165, 753.095 516.739 C 751.668 516.496, 742.998 514.655, 733.829 512.649 C 678.742 500.593, 609.402 493.057, 553.143 493.010 C 541.776 493.001, 540.842 492.860, 541.487 491.250 C 555.825 455.447, 576.512 385.688, 582.497 352.956 L 583.145 349.411 567.323 346.580 C 526.187 339.219, 488.452 326.347, 470.542 313.567 C 467.113 311.120, 463.519 307.915, 462.555 306.444 L 460.803 303.769 465.651 298.835 C 476.482 287.815, 495.338 276.917, 558.500 245.178 C 618.900 214.827, 642.760 201.286, 662.286 186.275 C 679.385 173.131, 691.033 158.871, 695.402 145.735 C 701.705 126.780, 698.592 109.763, 686.502 97.087 C 680.071 90.346, 672.636 86.059, 661.993 82.959 C 655.790 81.151, 651.402 80.721, 636.500 80.459 C 626.600 80.285, 615.140 80.558, 611.033 81.066 M 257.542 96.387 C 253.785 114.978, 253.773 146.301, 257.516 164.423 C 262.125 186.739, 273.323 206.114, 286.472 214.525 C 308.641 228.706, 340.395 224.305, 387.500 200.522 C 407.926 190.208, 431.328 176.406, 430.796 174.986 C 429.987 172.828, 407.388 140.078, 406.683 140.042 C 406.233 140.019, 400.625 143.208, 394.220 147.129 C 370.699 161.528, 342.599 174.219, 326.950 177.510 C 316.613 179.685, 311.797 179.478, 309.232 176.747 C 306.116 173.430, 302.153 164.171, 300.279 155.828 C 298.381 147.380, 298.021 118.324, 299.696 108.732 C 300.647 103.283, 300.587 102.936, 298.601 102.466 C 297.446 102.192, 287.831 100.236, 277.235 98.121 C 258.045 94.289, 257.968 94.282, 257.542 96.387 M 455.597 543.615 C 373.856 556.358, 299.680 591.753, 244.234 644.473 L 234.020 654.184 241.711 663.342 C 259.992 685.110, 270.550 696.715, 289.392 715.750 C 300.416 726.888, 309.756 736, 310.147 736 C 311.126 736, 361.771 683.449, 382.531 660.892 C 412.722 628.088, 435.969 600.384, 448.053 582.810 C 453.781 574.478, 471 544.455, 471 542.798 C 471 541.709, 466.184 541.965, 455.597 543.615 " stroke="none" fill="black" fill-rule="evenodd"/>
</svg>