<svg xmlns="http://www.w3.org/2000/svg" width="1000" height="1000" viewBox="0 0 1000 1000" version="1.1">
	<path d="M 482.500 85.174 C 470.950 86.095, 461.456 86.882, 461.402 86.924 C 461.347 86.966, 461.024 97.688, 460.683 110.750 C 459.410 159.520, 451.524 197.409, 434.490 236.593 C 417.368 275.981, 388.017 324.435, 357.431 363.806 C 352.173 370.575, 348.012 376.517, 348.185 377.011 C 348.874 378.979, 374.557 413.896, 375.352 413.946 C 375.821 413.976, 382.796 410.016, 390.852 405.147 C 428.958 382.116, 481.427 355.266, 507.044 345.690 C 516.986 341.973, 543.169 333.836, 543.647 334.314 C 544.077 334.744, 516.356 382.834, 499.730 410.500 C 431.207 524.525, 371.128 607.486, 306.213 677.720 L 294.918 689.941 291.959 712.649 C 290.332 725.138, 289 735.878, 289 736.515 C 289 737.201, 294.607 738.816, 302.750 740.475 C 369.908 754.156, 457 779.848, 519 804.269 C 573.803 825.854, 638.768 860.469, 701.726 901.629 L 718.953 912.891 730.976 895.534 C 737.589 885.988, 743 877.720, 743 877.162 C 743 875.984, 704.093 850.868, 680 836.494 C 639.750 812.480, 591.211 787.205, 557.500 772.707 C 508.456 751.614, 427.578 725.334, 363 709.507 C 352.275 706.879, 343.201 704.452, 342.835 704.114 C 342.470 703.776, 347.118 697.875, 353.165 691 C 415.384 620.255, 466.911 548.585, 529.668 445.500 C 551.854 409.057, 590.485 341.804, 599.860 323.302 L 601.988 319.104 597.959 302.302 C 595.743 293.061, 593.500 283.893, 592.974 281.928 L 592.019 278.356 571.503 282.630 C 546.288 287.882, 528.656 292.518, 506.517 299.716 C 486.684 306.164, 475.746 310.713, 451.964 322.403 C 442.416 327.097, 434.449 330.782, 434.261 330.594 C 434.072 330.405, 436.350 326.257, 439.323 321.376 C 484.394 247.368, 502.329 189.458, 504.634 110.500 C 504.971 98.950, 504.853 88.150, 504.373 86.500 L 503.500 83.500 482.500 85.174 " stroke="none" fill="black" fill-rule="evenodd"/>
</svg>