<svg xmlns="http://www.w3.org/2000/svg" width="1000" height="1000" viewBox="0 0 1000 1000" version="1.1">
	<path d="M 479.476 98.750 C 474.241 137.180, 466.614 181.612, 459.005 218 C 453.221 245.665, 445.857 277.353, 444.985 278.327 C 443.259 280.257, 399.891 290.158, 374.500 294.418 C 340.878 300.060, 316.358 302.127, 283 302.132 C 249.182 302.137, 226.932 299.910, 200.049 293.828 C 186.261 290.709, 166.744 284.441, 159.820 280.908 C 157.681 279.817, 155.545 279.163, 155.072 279.455 C 153.854 280.208, 132.731 316.064, 133.218 316.552 C 133.440 316.773, 137.442 318.719, 142.112 320.877 C 165.717 331.782, 199.665 340.081, 237.500 344.195 C 256.185 346.227, 316.306 345.910, 337 343.671 C 361.674 341.001, 385.269 337.340, 406.500 332.886 C 430.823 327.784, 432 327.583, 432 328.523 C 432 332.005, 411.677 395.528, 401.594 423.561 L 396.896 436.622 388.198 439.436 C 327.410 459.105, 267.310 497.620, 226.239 543.227 C 179.165 595.499, 151.006 657.052, 143.523 724.038 C 140.489 751.196, 142.028 792.499, 147.042 818.479 C 152.742 848.016, 163.217 864.790, 179.888 871.076 C 184.462 872.801, 187.101 873.118, 194.161 872.792 C 201.666 872.446, 203.800 871.907, 210.161 868.747 C 225.425 861.167, 239.035 846.737, 258.499 817.500 C 285.265 777.295, 312.543 724.727, 375.517 592 C 407.144 525.340, 416.013 506.033, 424.090 486.251 C 430.369 470.875, 427.542 472.751, 451.500 468.066 C 480.539 462.387, 491.145 461.500, 530 461.500 C 559.542 461.500, 567.288 461.802, 576.156 463.297 C 607.881 468.647, 628.129 478.029, 645.550 495.450 C 659.536 509.435, 668.068 524.989, 673.500 546.400 C 677.279 561.299, 678.372 571.270, 678.334 590.500 C 678.270 622.581, 672.275 654.224, 659.744 688.616 L 655.689 699.747 647.595 696.737 C 635.001 692.055, 615.047 686.291, 602.197 683.624 C 580.546 679.130, 573.668 678.499, 546.500 678.518 C 523.933 678.533, 518.982 678.826, 509 680.732 C 455.476 690.953, 417.013 718.249, 400.035 758.062 C 390.698 779.956, 390.534 804.080, 399.590 823.840 C 412.523 852.065, 440.793 870.681, 478.927 876.087 C 491.735 877.903, 517.699 876.706, 532 873.641 C 552.841 869.174, 577.569 860.012, 592.810 851.111 C 620.480 834.951, 648.059 805.491, 670.002 768.654 L 676.338 758.017 682.919 761.665 C 693.109 767.314, 713.878 781.084, 726.432 790.513 C 757.192 813.617, 792.038 847.496, 820.015 881.500 C 824.088 886.450, 827.535 890.672, 827.676 890.882 C 827.816 891.093, 835.616 885.107, 845.009 877.580 L 862.085 863.896 859.107 860.135 C 839.844 835.813, 800.731 795.103, 779 776.755 C 753.603 755.312, 726.364 735.852, 704.945 723.848 L 695.389 718.493 700.122 705.476 C 709.474 679.750, 714.938 658.981, 719.096 633.359 C 721.746 617.025, 722.813 579.274, 721.060 563.901 C 713.239 495.340, 676.650 447.831, 616.499 428.135 C 590.308 419.559, 573.722 417.528, 530 417.543 C 495.199 417.555, 482.577 418.413, 457.523 422.469 C 452.606 423.265, 448.493 423.822, 448.384 423.708 C 448.275 423.594, 451.316 414.050, 455.143 402.500 C 462.586 380.036, 473.158 344.879, 478.197 325.839 L 481.283 314.178 501.392 307.573 C 541.184 294.503, 589.347 275.139, 631.500 255.263 C 642.500 250.076, 651.649 245.683, 651.832 245.501 C 652.014 245.319, 647.892 236.373, 642.672 225.621 L 633.181 206.072 613.335 215.416 C 587.376 227.638, 567.262 236.343, 541.500 246.505 C 520.493 254.792, 494 264.299, 494 263.550 C 494 263.332, 495.992 254.006, 498.427 242.826 C 504.171 216.449, 509.052 191.491, 513.449 166 C 517.569 142.121, 523 105.254, 523 101.173 L 523 98.349 502.750 96.149 C 491.613 94.940, 481.965 93.961, 481.311 93.975 C 480.657 93.989, 479.832 96.135, 479.476 98.750 M 244.324 106.353 C 233.227 108.634, 223.895 110.757, 223.586 111.072 C 222.748 111.923, 229.387 134.176, 233.558 144.500 C 244.063 170.502, 257.745 191.999, 273.913 207.905 C 280.073 213.965, 293.514 224.201, 298.960 226.980 L 302.541 228.806 312.270 210.039 C 317.622 199.717, 321.991 190.873, 321.980 190.386 C 321.969 189.899, 319.639 188.150, 316.802 186.500 C 304.567 179.383, 288.824 159.998, 279.534 140.608 C 275.346 131.867, 269.259 115.183, 266.998 106.250 C 266.407 103.912, 265.603 102.046, 265.211 102.103 C 264.820 102.159, 255.421 104.072, 244.324 106.353 M 356.355 499.862 C 305.801 524.930, 264.849 559.368, 235.451 601.534 C 194.178 660.732, 177.850 730.388, 188.546 801.639 C 190.223 812.813, 193.839 827, 195.009 827 C 196.182 827, 205.392 816.687, 211.921 808.062 C 237.313 774.519, 270.273 712.037, 338.031 569 C 375.015 490.927, 374.526 492, 373.080 492 C 372.601 492, 365.075 495.538, 356.355 499.862 M 531.313 722.039 C 514.117 723.451, 496.658 727.880, 482.443 734.436 C 455.224 746.991, 436.668 770.517, 436.583 792.577 C 436.482 818.831, 468.140 836.638, 508.250 832.887 C 531.736 830.692, 559.269 821.288, 577.291 809.307 C 591.483 799.872, 609.277 780.961, 623.214 760.500 C 634.389 744.095, 636.608 739.998, 634.902 738.919 C 629.961 735.793, 599.581 727.310, 583.470 724.557 C 565.048 721.410, 548.629 720.618, 531.313 722.039 " stroke="none" fill="black" fill-rule="evenodd"/>
</svg>