<svg xmlns="http://www.w3.org/2000/svg" width="1000" height="1000" viewBox="0 0 1000 1000" version="1.1">
	<path d="M 524 117.585 C 448.128 122.633, 373.792 137.948, 272.243 169.451 C 239.142 179.720, 165.201 205.567, 163.070 207.613 C 162.718 207.952, 177.664 246.696, 178.595 247.858 C 178.753 248.055, 187.553 244.978, 198.151 241.021 C 283.966 208.980, 376.735 182.833, 448.307 170.515 C 525.535 157.224, 581.249 158.090, 617.785 173.151 C 639.383 182.055, 653.390 209.824, 658.110 253.096 C 659.586 266.632, 658.690 303.159, 656.542 317 C 645.045 391.062, 608.526 447.984, 555.500 474.490 C 527.874 488.299, 499.308 494.032, 465 492.651 C 451.623 492.113, 423.488 488.822, 422.325 487.659 C 422.110 487.443, 424.220 479.219, 427.015 469.383 C 433.375 447.003, 443.780 404.855, 448.464 382.500 C 450.423 373.150, 452.246 364.518, 452.515 363.318 C 452.850 361.823, 452.452 360.972, 451.252 360.616 C 447.089 359.380, 410.734 352.933, 410.311 353.356 C 410.054 353.613, 408.126 361.850, 406.027 371.661 C 385.177 469.113, 355.979 558.347, 326.568 614.500 C 314.716 637.127, 287.880 680.376, 283.604 683.739 C 282.355 684.722, 281.333 686.222, 281.333 687.072 C 281.333 688.808, 277.561 694.535, 261.617 717 C 231.164 759.910, 196.187 804.209, 160.157 845.500 L 148.813 858.500 154.763 864 C 158.035 867.025, 165.243 873.680, 170.779 878.789 L 180.845 888.077 189.173 878.715 C 228.974 833.970, 274.520 775.660, 311.192 722.500 C 318.017 712.606, 319.772 710.786, 328.640 704.404 C 399.097 653.697, 460.190 632.655, 492 648.139 C 501.289 652.660, 512.704 664.531, 520.752 678.039 C 528.407 690.887, 535.190 705.686, 550.988 744 C 574.292 800.520, 588.191 824.889, 609.500 846.582 C 632.721 870.224, 665.033 884.993, 707.703 891.471 C 749.211 897.772, 806.457 894.531, 859.500 882.876 C 867.200 881.184, 873.769 879.635, 874.098 879.435 C 874.427 879.234, 872.149 869.717, 869.036 858.285 C 865.219 844.268, 862.966 837.589, 862.116 837.774 C 770.318 857.736, 700.903 854.952, 657.545 829.571 C 653.577 827.249, 646.674 821.635, 641.472 816.500 C 624.134 799.388, 611.756 776.988, 588.977 721.500 C 569.488 674.030, 560.401 656.265, 546.500 638.464 C 528.049 614.834, 507.247 603.049, 478.533 599.957 C 451.260 597.021, 412.306 606.249, 376.965 624.018 L 369.072 627.986 373.622 618.243 C 384.493 594.964, 397.079 563.732, 404.682 541.170 L 408.500 529.840 412 530.439 C 455.789 537.931, 485.344 538.635, 517.155 532.941 C 555.768 526.029, 589.953 509.587, 618.634 484.133 C 665.475 442.560, 695.504 377.376, 702.078 303 C 703.515 286.742, 702.753 253.865, 700.604 239.455 C 694.937 201.440, 683.116 173.025, 664.843 153.491 C 657.153 145.271, 651.768 141.337, 640.500 135.708 C 624.235 127.583, 602.328 121.650, 579 119.051 C 568.892 117.926, 533.187 116.974, 524 117.585 " stroke="none" fill="black" fill-rule="evenodd"/>
</svg>