<svg xmlns="http://www.w3.org/2000/svg" width="1000" height="1000" viewBox="0 0 1000 1000" version="1.1">
	<path d="M 480.994 76.750 C 480.976 101.522, 473.094 162.718, 465.820 194.566 L 463.749 203.631 458.124 202.762 C 455.031 202.284, 444.850 201.861, 435.500 201.822 C 404.197 201.692, 374.579 207.643, 341.500 220.708 C 282.300 244.092, 240.592 280.749, 227.959 320.500 C 224.900 330.127, 224.114 348.934, 226.392 358.033 C 235.005 392.450, 267.347 413.607, 314.500 415.669 C 364.203 417.844, 405.803 391.830, 454.698 328 C 469.630 308.508, 480.412 290.030, 487.960 271 C 489.814 266.325, 491.526 262.275, 491.765 262 C 492.601 261.037, 499.976 270.252, 502.451 275.352 C 506.574 283.849, 508.332 292.500, 507.629 300.836 C 504.865 333.638, 468.755 384.586, 408 441.407 C 386.131 461.860, 371.112 475.022, 340 501.001 C 304.740 530.443, 247.636 581.491, 214.120 613.530 L 211.741 615.805 226.475 633.902 C 234.579 643.856, 241.652 652, 242.192 652 C 242.733 652, 248.423 647.086, 254.837 641.081 C 304.871 594.238, 377.350 546.946, 439.500 520.593 C 464.354 510.054, 501.422 498.336, 518.915 495.487 L 523.330 494.768 522.670 561.634 C 521.317 698.861, 519.173 724.077, 501.475 811 C 496.398 835.932, 483.425 893.653, 481.066 901.802 C 480.371 904.200, 480.437 905.218, 481.305 905.520 C 481.962 905.748, 490.825 907.994, 501 910.510 C 511.175 913.027, 520.238 915.306, 521.139 915.575 C 522.972 916.122, 523.220 915.190, 534.481 865.500 C 542 832.323, 548.734 799.178, 552.985 774.428 C 554.678 764.568, 556.290 755.353, 556.567 753.952 L 557.070 751.403 568.285 753.239 C 585.042 755.982, 624.290 756.718, 642.282 754.627 C 720.039 745.589, 775.555 708.960, 794.792 654 C 803.125 630.193, 804.746 599.915, 799.068 574.153 C 784.650 508.741, 728.080 463.477, 644 450.079 C 625.025 447.055, 610.564 446.007, 587.750 446.003 L 567 446 567 422 L 567 398 545 398 L 523 398 523 423.981 L 523 449.962 520.750 450.473 C 519.513 450.754, 514.900 451.687, 510.500 452.546 C 495.916 455.394, 472.730 461.791, 455.220 467.797 L 437.940 473.724 459.747 451.612 C 513.121 397.492, 540.966 355.736, 549.624 316.838 C 552.125 305.602, 551.884 287.651, 549.084 276.500 C 546.020 264.297, 538.643 249.144, 531.254 239.876 C 525.578 232.755, 513.962 222.583, 507.970 219.484 L 505.349 218.129 508.668 203.314 C 512.776 184.977, 517.352 157.751, 519.981 136 C 522.281 116.979, 525 84.509, 525 76.072 L 525 70.302 515.250 69.656 C 509.887 69.301, 499.988 69.008, 493.250 69.005 L 481 69 480.994 76.750 M 423 245.671 C 394.570 248.523, 367.831 255.841, 343.349 267.470 C 300.718 287.720, 273.361 313.571, 268.852 337.865 C 266.729 349.302, 272.311 359.074, 284.353 365.002 C 299.635 372.525, 325.995 374.145, 342.500 368.575 C 367.746 360.055, 392.045 338.678, 421.877 298.742 C 433.573 283.085, 439.184 273.595, 445.968 258 L 450.970 246.500 447.235 245.808 C 443.453 245.107, 429.417 245.027, 423 245.671 M 570.405 489.639 L 567.310 490.104 566.633 552.802 C 565.928 618.128, 564.545 672.298, 563.015 694.477 C 562.523 701.614, 562.255 707.589, 562.420 707.754 C 562.586 707.919, 568.971 708.997, 576.610 710.148 C 592.739 712.580, 624.488 713.054, 639.500 711.087 C 695.128 703.800, 734.745 680.805, 750.530 646.642 C 756.328 634.093, 758.326 623.837, 758.351 606.500 C 758.369 594.391, 757.952 589.803, 756.192 582.693 C 743.394 531.018, 696.821 499.522, 620.688 491.056 C 610.661 489.941, 575.079 488.938, 570.405 489.639 " stroke="none" fill="black" fill-rule="evenodd"/>
</svg>