<svg xmlns="http://www.w3.org/2000/svg" width="1000" height="1000" viewBox="0 0 1000 1000" version="1.1">
	<path d="M 549.116 96.772 C 543.951 110.094, 527.429 143.676, 517.517 161 C 493.840 202.381, 469.630 234.603, 440.093 264.042 C 422.686 281.391, 408.266 293.359, 390.674 305.055 C 375.944 314.850, 355.147 325.642, 354.561 323.796 C 354.334 323.083, 353.864 320.250, 353.514 317.500 C 352.094 306.316, 346.781 282.284, 343.450 271.981 C 334.218 243.424, 322.955 229.932, 298.852 218.556 C 266.536 203.304, 228.029 205.570, 196.025 224.608 C 170.596 239.734, 147.505 269.764, 139.978 297.500 C 136.632 309.826, 136.141 328.136, 138.863 339.037 C 142.170 352.277, 147.144 361.173, 156.510 370.601 C 163.293 377.427, 166.206 379.515, 175.029 383.873 C 203.665 398.017, 241.074 399.427, 295.728 388.423 C 305.203 386.515, 313.585 384.713, 314.355 384.417 C 316.453 383.612, 316.911 389.713, 317.978 432.685 C 318.863 468.280, 318.328 524.951, 316.398 600.072 L 315.715 626.644 298.851 640.417 C 268.044 665.576, 235.059 694.468, 207.750 720.211 C 200.187 727.341, 194 732.958, 194 732.694 C 194 732.431, 195.325 726.654, 196.945 719.858 C 204.201 689.406, 207.121 667.084, 207.071 642.436 C 207.003 608.535, 201.150 578.476, 188.474 546.936 C 183.265 533.975, 174.113 515.981, 172.394 515.321 C 171.128 514.835, 135.739 537.888, 136.220 538.884 C 136.384 539.223, 138.485 543.319, 140.889 547.987 C 157.750 580.723, 166.273 623.128, 163.065 658.322 C 158.974 703.200, 142.137 762.845, 122.515 801.970 C 119.423 808.135, 117.030 813.546, 117.197 813.994 C 117.696 815.335, 149.050 840.157, 149.812 839.815 C 150.199 839.642, 156.872 832.750, 164.640 824.500 C 184.553 803.353, 182.862 804.687, 187.620 806.366 C 213.082 815.349, 266.114 853.725, 318.303 900.933 C 326.995 908.795, 334.231 915.064, 334.384 914.864 C 334.536 914.664, 338.284 905.950, 342.712 895.500 L 350.762 876.500 351.397 860.500 C 354.140 791.360, 355.122 764.178, 356.457 720.500 C 357.297 693, 358.257 665.446, 358.590 659.269 L 359.195 648.039 375.847 635.671 C 463.016 570.931, 538.954 530.395, 603.597 514.098 C 639.364 505.080, 671.979 503.673, 697.177 510.060 C 740.483 521.036, 771.568 558.360, 782.493 612.500 C 785.999 629.879, 787.325 650.827, 786.022 668.268 C 784.079 694.284, 780.030 712.344, 770.009 739.706 L 768.835 742.913 758.667 736.083 C 743.462 725.868, 736.167 721.583, 721.130 714.030 C 692.192 699.496, 665.197 690.874, 634.500 686.363 C 617.592 683.878, 586.145 683.890, 572.500 686.386 C 525.906 694.911, 493.265 721.976, 481.787 761.605 C 479.816 768.410, 479.500 771.779, 479.500 786 C 479.500 800.161, 479.820 803.604, 481.758 810.289 C 493.422 850.532, 527.130 878.342, 576.172 888.183 C 585.961 890.147, 590.626 890.459, 610.500 890.478 C 646.840 890.513, 674.109 885.267, 702.500 872.779 C 728.572 861.312, 755.953 840.144, 774.485 817.130 L 780.420 809.759 793.470 823.130 C 814.866 845.052, 830.971 865.151, 847.850 891 C 853.417 899.525, 858.559 907.345, 859.276 908.377 C 860.505 910.148, 861.643 909.674, 879.289 900.035 C 889.580 894.414, 898 889.481, 898 889.073 C 898 887.858, 888.336 872.299, 880.252 860.500 C 862.233 834.197, 844.034 812.147, 820.689 788.329 L 803.859 771.157 806.939 764.138 C 822.644 728.357, 830 693.056, 830 653.476 C 830 564.596, 788.056 495.128, 719.943 471.199 C 661.276 450.588, 577.543 465.905, 485.110 514.157 C 448.694 533.167, 409.876 557.247, 371.697 584.512 C 365.755 588.755, 360.768 592.063, 360.614 591.864 C 360.459 591.664, 360.673 578.450, 361.088 562.500 C 362.749 498.676, 361.896 402.249, 359.449 377.229 L 358.836 370.957 364.168 368.780 C 374.188 364.690, 396.488 353.155, 406.500 346.884 C 430.683 331.737, 449.959 316.192, 472 294.062 C 510.642 255.265, 542.420 210.151, 571.009 153.500 C 581.439 132.834, 594.565 103.231, 593.688 102.354 C 593.127 101.794, 554.326 87.998, 553.377 88.022 C 552.895 88.035, 550.977 91.972, 549.116 96.772 M 242.363 253.025 C 228.106 255.595, 215.954 262.161, 204.467 273.500 C 189.169 288.601, 180.897 305.232, 180.802 321.080 C 180.707 336.848, 188.233 344.791, 208 349.787 C 217.238 352.122, 248.370 352.049, 264 349.657 C 282.408 346.839, 310.464 340.869, 311.861 339.473 C 312.842 338.491, 307.917 308.852, 304.552 295.492 C 298.969 273.329, 294.696 265.952, 283.790 259.653 C 273.730 253.843, 254.707 250.799, 242.363 253.025 M 700.586 271.250 C 691.782 294.937, 688 305.525, 688 306.487 C 688 307.117, 690.587 308.687, 693.750 309.975 C 702.126 313.389, 719.205 322.006, 730.591 328.564 C 770.076 351.304, 805.064 382.900, 826.307 415 C 832.811 424.829, 843.258 444.564, 845.768 451.765 L 846.880 454.955 853.190 452.601 C 856.661 451.306, 865.872 447.901, 873.659 445.035 L 887.819 439.825 886.305 435.382 C 880.957 419.686, 862.259 388.004, 847.950 370.395 C 820.783 336.959, 780.719 305.116, 737 282.209 C 722.459 274.591, 705.759 267, 703.538 267 C 702.783 267, 701.455 268.913, 700.586 271.250 M 298.397 697.702 C 277.611 715.478, 257.673 733.333, 235.768 753.784 L 217.036 771.273 227.666 777.184 C 245.959 787.357, 271.139 804.873, 296.792 825.270 C 303.003 830.208, 308.229 834.080, 308.406 833.874 C 309.014 833.165, 314.184 685.851, 313.620 685.287 C 313.441 685.108, 306.591 690.695, 298.397 697.702 M 579.740 729.583 C 562.162 732.761, 548.892 739.159, 538.283 749.571 C 512.338 775.036, 518.902 813.907, 552.500 833.761 C 567.628 842.701, 586.663 847.011, 610.881 846.980 C 639.777 846.944, 664.899 841.958, 686.742 831.923 C 707.542 822.367, 730.222 803.847, 744.335 784.892 L 747.021 781.283 736.261 773.759 C 700.695 748.889, 661.080 733.288, 622.789 729.070 C 609.680 727.626, 589.215 727.869, 579.740 729.583 " stroke="none" fill="black" fill-rule="evenodd"/>
</svg>