<svg xmlns="http://www.w3.org/2000/svg" width="1000" height="1000" viewBox="0 0 1000 1000" version="1.1">
	<path d="M 628.500 110.063 C 567.479 116.706, 480.807 166.069, 402.500 238.780 L 388.500 251.779 387.892 205.140 C 387.558 179.488, 387.221 153.438, 387.142 147.250 L 387 136 379.250 136.004 C 374.988 136.006, 365.198 136.296, 357.496 136.648 L 343.493 137.289 343.857 218.980 L 344.221 300.671 325.850 323.585 C 294.421 362.788, 265.960 401.433, 239.492 440.846 L 226.500 460.192 225.849 451.846 C 224.799 438.371, 224.911 348.533, 226.011 322.986 C 227.229 294.689, 229.538 259.090, 231.519 238.070 C 232.318 229.583, 232.866 222.537, 232.736 222.411 C 232.204 221.897, 190.045 217.624, 189.654 218.044 C 189.052 218.691, 186.257 251.454, 184.540 278 C 181.667 322.409, 180.737 360.716, 181.322 410.500 C 181.892 459.031, 182.384 470.036, 185.593 506.089 L 187.247 524.678 181.269 535.089 C 152.243 585.640, 124.778 645.664, 115.648 678.500 C 107.306 708.502, 102.030 748.543, 102.011 782 C 101.983 830.997, 111.279 866.359, 130 888.474 C 149.971 912.065, 181.775 919.414, 210.913 907.172 C 237.717 895.910, 264.733 865.891, 287.031 822.594 C 290.589 815.686, 293.781 810.025, 294.124 810.016 C 294.467 810.007, 298.174 815.288, 302.361 821.750 C 306.549 828.212, 310.822 834.582, 311.858 835.905 L 313.742 838.310 331.323 825.614 L 348.904 812.918 340.422 800.054 C 335.757 792.978, 328.193 781.020, 323.613 773.480 L 315.285 759.771 322.717 738.136 C 347.577 665.764, 366.613 579.201, 375.984 495.912 C 380.899 452.236, 384.945 392.445, 386.604 339 L 387.271 317.500 394.883 309 C 443.946 254.211, 508.600 203.920, 566.500 175.506 C 596.498 160.785, 620.337 153.671, 640 153.573 C 652.424 153.512, 656.694 154.755, 662.530 160.135 C 683.484 179.449, 674.558 239.086, 640.399 308 C 635.356 318.175, 631.065 326.894, 630.865 327.375 C 630.664 327.857, 637.475 331.251, 646 334.919 C 684.063 351.292, 723.545 378.468, 755.031 409.964 C 780.459 435.400, 797.158 458.410, 812.027 488.500 C 824.839 514.426, 832.305 537.876, 836.702 566 C 838.973 580.524, 839.267 635.561, 837.174 654.500 C 835.390 670.653, 831.679 691.910, 828.096 706.505 C 825.308 717.862, 819.270 737.974, 818.355 738.950 C 818.123 739.198, 812.885 734.427, 806.716 728.349 C 791.233 713.093, 780.594 703.929, 763.837 691.413 C 736.797 671.217, 714.568 657.186, 691.754 645.913 C 683.954 642.059, 677.476 638.810, 677.359 638.692 C 677.241 638.574, 677.969 631.958, 678.977 623.989 C 682.417 596.790, 683.436 580.505, 683.417 553 C 683.397 523.307, 682.066 509.159, 677.581 491 C 666.197 444.901, 637.861 423.465, 600.500 432.689 C 570.380 440.125, 543.578 476.242, 523.462 536.500 C 515.515 560.304, 507.685 592.817, 503.921 617.643 L 502.687 625.786 494.593 628.449 C 476.079 634.540, 458.063 643.594, 441.774 654.994 C 430.133 663.141, 411.422 681.770, 403.322 693.277 C 391.320 710.328, 381.702 732.411, 377.312 753 C 375.891 759.665, 375.506 765.924, 375.526 782 C 375.554 804.430, 376.561 810.436, 382.822 825.524 C 400.089 867.140, 445.473 895.117, 496 895.292 C 515.260 895.359, 530.214 892.307, 546.553 884.976 L 553.081 882.048 561.554 888.513 C 578.378 901.350, 597.582 908.579, 621.372 911.030 C 636.433 912.582, 667.714 911.809, 682.500 909.519 C 738.487 900.851, 786.269 872.313, 820.187 827.286 L 827.802 817.177 836.273 827.839 C 840.932 833.702, 849.715 845.120, 855.791 853.210 L 866.838 867.920 883.169 856.399 C 892.151 850.063, 900.114 844.275, 900.865 843.538 C 902.014 842.411, 900.283 839.607, 889.946 825.849 C 883.190 816.857, 872.044 802.525, 865.178 794 C 858.312 785.475, 852.268 777.950, 851.748 777.278 C 851.112 776.457, 852.294 772.356, 855.350 764.778 C 867.834 733.822, 876.122 699.147, 880.691 658.757 C 881.990 647.269, 882.418 635.100, 882.424 609.500 C 882.430 579.177, 882.187 573.932, 880.180 561 C 876.255 535.714, 870.869 515.396, 862.287 493.500 C 834.639 422.957, 780.025 361.275, 705.389 316.296 C 697.902 311.784, 691.267 307.922, 690.646 307.715 C 689.924 307.475, 691.224 303.033, 694.245 295.419 C 707.668 261.595, 714.877 233.638, 716.994 207.201 C 718.856 183.927, 715.751 164.954, 707.304 148 C 701 135.346, 689.251 123.187, 678 117.674 C 664.239 110.930, 646.122 108.145, 628.500 110.063 M 328 391.840 C 295.110 435.645, 262.256 484.153, 236.527 526.897 L 232.676 533.295 234.382 544.897 C 241.324 592.117, 258.025 645.130, 281.585 694.731 L 287.175 706.500 290.611 695.500 C 307.340 641.959, 322.622 570.260, 330.469 508.500 C 335.144 471.701, 341.668 390.311, 340.821 379.346 L 340.500 375.192 328 391.840 M 611.505 474.688 C 607.986 475.663, 601.366 480.785, 597.255 485.712 C 578.498 508.193, 560.811 553.248, 551.016 603.500 C 549.837 609.550, 548.681 615.175, 548.447 616 C 548.077 617.304, 550.531 617.456, 567.261 617.162 C 588.716 616.786, 602.319 617.905, 621.359 621.611 C 628.432 622.988, 634.408 623.925, 634.640 623.693 C 634.872 623.461, 635.686 617.923, 636.448 611.386 C 643.982 546.799, 638.932 491.649, 624.205 477.670 C 621.193 474.811, 615.708 473.523, 611.505 474.688 M 188.749 614.750 C 157.150 679.882, 147.704 715.225, 146.307 773.548 C 145.639 801.385, 146.793 815.968, 150.971 832.535 C 155.587 850.838, 162.218 861.937, 171.218 866.421 C 189.191 875.378, 210.881 861.700, 233.966 826.853 C 241.822 814.994, 255.635 788.883, 262.801 772.346 L 266.767 763.193 253.064 735.846 C 229.521 688.862, 211.922 643.867, 202.373 606.250 C 200.803 600.063, 199.251 595, 198.924 595 C 198.598 595, 194.019 603.888, 188.749 614.750 M 555.087 661.060 C 548.810 661.536, 543.185 662.415, 542.587 663.013 C 541.843 663.757, 541.503 675.833, 541.511 701.300 C 541.520 731.763, 541.851 740.854, 543.338 751.500 C 546.889 776.919, 552.573 799.118, 559.467 814.500 L 562.156 820.500 566.738 815.500 C 577.457 803.803, 586.086 790.425, 594.940 771.779 C 608.463 743.301, 618.767 711.785, 625.845 677.254 L 627.740 668.007 624.120 667.037 C 604.484 661.778, 576.991 659.397, 555.087 661.060 M 486.996 678.763 C 472.230 686.123, 463.431 692.507, 451.500 704.519 C 429.024 727.148, 418.693 751.544, 418.689 782 C 418.687 793.874, 419.003 796.464, 421.311 803.500 C 424.572 813.444, 428.945 820.461, 436.833 828.409 C 455.799 847.519, 489.419 856.368, 516.477 849.373 C 526.737 846.720, 526.500 847.324, 521.454 836.671 C 504.810 801.536, 496.207 751.676, 497.138 695.750 C 497.337 683.787, 497.275 674.005, 497 674.013 C 496.725 674.021, 492.223 676.158, 486.996 678.763 M 667.530 691.750 C 657.155 739.886, 637.938 789.897, 618.250 820 C 611.534 830.268, 599.284 845.581, 593.101 851.437 C 591.396 853.052, 590 854.690, 590 855.076 C 590 856.515, 605.997 864.033, 612.624 865.709 C 621.513 867.956, 665.221 868.264, 677 866.162 C 703.817 861.376, 724.181 853.452, 744.706 839.816 C 762.196 828.196, 784.562 804.589, 795.855 785.830 L 798.064 782.161 783.423 767.090 C 775.371 758.801, 764.444 748.266, 759.141 743.679 C 742.398 729.195, 715.338 709.580, 696.500 698.271 C 687.675 692.973, 670.775 684, 669.623 684 C 669.391 684, 668.449 687.487, 667.530 691.750 " stroke="none" fill="black" fill-rule="evenodd"/>
</svg>