<svg xmlns="http://www.w3.org/2000/svg" width="1000" height="1000" viewBox="0 0 1000 1000" version="1.1">
	<path d="M 479 62.257 C 468.275 63.911, 459.350 65.393, 459.166 65.549 C 458.983 65.706, 461.115 82.409, 463.905 102.667 C 480.711 224.704, 494.355 354.872, 500.523 452 C 500.820 456.675, 501.313 463.471, 501.618 467.103 L 502.173 473.706 495.837 474.361 C 475.559 476.458, 444.230 487.355, 413.500 503 C 369.827 525.234, 326.899 555.948, 295.473 587.444 C 270.409 612.565, 256.637 632.759, 251.409 652.058 C 248.945 661.152, 249.139 675.308, 251.866 685.413 C 258.340 709.404, 279.444 741.475, 314.438 780.500 C 353.485 824.046, 437.633 901.144, 487.733 939.278 C 488.581 939.924, 494.658 937.015, 507.233 929.944 C 531.309 916.405, 530.622 916.923, 531.285 911.777 C 537.617 862.652, 539.994 834.777, 544.595 755.718 C 545.139 746.369, 545.441 745, 546.861 745.417 C 549.636 746.231, 578.562 748.912, 597 750.063 C 613.078 751.067, 695.651 751.682, 696.529 750.804 C 696.739 750.595, 696.408 740.766, 695.795 728.962 L 694.681 707.500 654.090 707.451 C 613.646 707.402, 591.119 706.348, 562.500 703.167 L 547.500 701.500 547.528 690.500 C 547.543 684.450, 547.947 657, 548.425 629.500 L 549.294 579.500 558.573 569.802 C 565.799 562.250, 568.787 558.217, 572.077 551.577 C 575.979 543.701, 576.338 542.299, 576.776 533.210 C 577.135 525.757, 576.834 521.941, 575.537 517.478 C 571.805 504.643, 563.300 492.414, 553.149 485.291 C 549.492 482.725, 546.431 480.597, 546.347 480.562 C 546.263 480.528, 545.682 472.175, 545.056 462 C 538.719 358.911, 525.824 233.573, 507.968 101.500 C 501.998 57.338, 502.298 58.966, 500.171 59.124 C 499.252 59.193, 489.725 60.602, 479 62.257 M 668.742 175.624 C 668.449 176.106, 668.950 185.927, 669.855 197.448 L 671.500 218.396 680.092 219.634 C 696.497 221.998, 707.810 227.140, 718.358 237.027 C 730.568 248.472, 739.346 268.254, 742.532 291.500 C 743.436 298.100, 744.342 303.668, 744.545 303.873 C 744.950 304.284, 784.854 302.065, 786.558 301.537 C 789.130 300.741, 784.193 270.427, 778.917 254.624 C 765.085 213.193, 734.257 185.187, 694.110 177.582 C 683.942 175.656, 669.404 174.534, 668.742 175.624 M 224.251 235.750 C 212.778 261.419, 208.092 292.414, 212.497 313.500 C 217.629 338.071, 233.493 360.077, 253.206 369.972 C 263.297 375.037, 270.090 376.376, 282.500 375.746 C 310.609 374.320, 346.766 352.976, 406.337 302.643 L 423.921 287.786 409.775 271.643 C 401.995 262.764, 395.509 255.333, 395.361 255.129 C 395.213 254.925, 389.334 259.685, 382.296 265.705 C 328.752 311.511, 290.766 335.163, 275.446 332.235 C 274.036 331.965, 270.444 329.516, 267.465 326.794 C 257.232 317.441, 252.901 303.395, 255.012 286.407 C 256.195 276.882, 259.745 263.894, 263.463 255.487 C 264.858 252.332, 266 249.628, 266 249.476 C 266 248.924, 229.333 229, 228.317 229 C 227.740 229, 225.910 232.037, 224.251 235.750 M 495.500 518.703 C 485.925 520.317, 464.832 527.321, 450.716 533.573 C 390.673 560.167, 321.108 614.088, 299.527 650.764 C 291.369 664.627, 291.352 670.169, 299.415 686.694 C 319.121 727.080, 384.446 795.783, 480.772 877.430 C 485.872 881.753, 490.218 885.112, 490.430 884.895 C 491.825 883.468, 498.027 806.912, 499.981 767 C 500.560 755.175, 501.192 743.618, 501.386 741.318 L 501.739 737.137 496.619 735.925 C 488.884 734.094, 470.357 727.685, 462.749 724.209 C 447.050 717.036, 431.643 704.472, 424.337 692.885 C 418.406 683.478, 416.503 676.074, 416.528 662.500 C 416.554 648.387, 418.156 641.284, 424.003 629.352 C 434.166 608.612, 451.296 592.323, 489.160 567.395 L 505 556.966 504.894 545.733 C 504.836 539.555, 504.498 530.642, 504.144 525.927 L 503.500 517.354 495.500 518.703 M 496.906 614.797 C 471.862 632.725, 461.256 645.845, 460.223 660.173 C 459.639 668.283, 461.526 672.013, 468.979 677.485 C 476.859 683.269, 501.013 693.320, 502.783 691.550 C 504.215 690.118, 505.658 609.966, 504.250 610.039 C 503.837 610.060, 500.533 612.201, 496.906 614.797 " stroke="none" fill="black" fill-rule="evenodd"/>
</svg>