<svg xmlns="http://www.w3.org/2000/svg" width="1000" height="1000" viewBox="0 0 1000 1000" version="1.1">
	<path d="M 399.331 94.797 C 387.441 112.092, 387.208 112.536, 389.184 114.082 C 394.912 118.563, 427.167 137.261, 443.211 145.401 C 484.693 166.447, 515.397 175.396, 563.659 180.507 C 581.923 182.441, 628.980 184.473, 629.842 183.366 C 630.212 182.890, 630.367 172.938, 630.185 161.250 L 629.855 140 620.678 139.990 C 587.865 139.956, 543.314 134.922, 518.302 128.423 C 491.896 121.562, 456.541 104.951, 422.420 83.374 C 416.876 79.868, 412.151 77.021, 411.920 77.047 C 411.689 77.073, 406.024 85.060, 399.331 94.797 M 707 247.529 C 706.175 247.692, 701.450 248.355, 696.500 249.003 C 640.960 256.272, 550.851 291.080, 470 336.498 C 460.375 341.904, 429.100 360.368, 400.500 377.527 C 341.747 412.777, 322.041 423.995, 300.500 434.451 C 274.672 446.988, 256.476 453, 244.363 453 C 236.801 453, 235.442 451.610, 234.408 442.816 C 232.401 425.734, 242.354 391.403, 261.153 350.564 C 264.935 342.350, 267.685 335.292, 267.264 334.880 C 266.520 334.152, 230.933 315, 230.323 315 C 230.155 315, 227.517 319.985, 224.461 326.077 C 212.111 350.702, 198.718 386.918, 194.145 408.053 C 189.952 427.429, 189.528 447.009, 193.017 460.112 C 195.146 468.110, 200.968 477.755, 207.083 483.417 C 226.278 501.187, 254.377 501.514, 296.188 484.451 C 323.468 473.319, 349.446 459.175, 416 419.220 C 495.816 371.303, 519.028 358.518, 560.696 339.523 C 648.664 299.420, 715.845 283.140, 750.657 293.489 C 767.374 298.459, 775.959 314.560, 770.106 329.964 C 764.410 344.955, 745.386 362.910, 716.738 380.335 C 692.300 395.200, 648.630 414.910, 613.356 426.997 L 598.212 432.186 600.583 439.843 C 601.887 444.054, 604.612 453.125, 606.639 460 C 608.666 466.875, 610.592 472.818, 610.918 473.206 C 611.244 473.594, 617.809 471.742, 625.506 469.090 C 713.788 438.674, 776.554 401.012, 801.560 363.449 C 822.777 331.578, 820.292 296.417, 795.018 270.899 C 777.806 253.521, 758.125 246.884, 724.500 247.120 C 715.700 247.182, 707.825 247.366, 707 247.529 M 482.538 495.250 C 480.941 500.252, 473.994 535.182, 474.450 535.919 C 474.765 536.429, 476.474 537.165, 478.248 537.555 C 484.727 538.977, 499.780 545.788, 507.758 550.905 C 522.530 560.381, 530.122 571.058, 532.005 585.003 C 533.314 594.699, 535.245 694.976, 534.411 710 L 533.773 721.500 490.137 721.500 C 443.787 721.500, 434.416 722.106, 412.398 726.523 C 377.612 733.503, 357.253 746.973, 348.953 768.500 C 345.981 776.208, 345.635 790.697, 348.223 799 C 354.082 817.790, 375.263 838.377, 410.951 859.971 C 445.866 881.096, 496.891 904.747, 552.500 925.580 L 574.500 933.822 575.172 924.661 C 575.541 919.622, 576.335 883.580, 576.937 844.568 C 577.539 805.555, 578.211 773.456, 578.430 773.236 C 579.380 772.286, 644.782 785.159, 691.999 795.588 C 705.474 798.565, 717.187 801, 718.028 801 C 719.199 801, 720.666 796.154, 724.284 780.339 C 726.884 768.975, 728.781 759.448, 728.501 759.168 C 727.153 757.820, 635.338 738.578, 599.008 732.030 L 578.500 728.334 577.858 661.917 C 577.105 584.045, 576.473 575.271, 570.458 559.291 C 560.505 532.850, 532.609 509.514, 496.518 497.437 C 485.334 493.695, 483.144 493.352, 482.538 495.250 M 465.500 765.147 C 429.031 766.219, 405.476 770.802, 394.105 779.039 C 389.118 782.651, 388.862 785.129, 392.899 790.702 C 406.411 809.354, 457.271 838.956, 525.500 867.880 L 532.500 870.847 533.111 842.174 C 533.447 826.403, 533.785 802.813, 533.861 789.750 L 534 766 531.250 765.888 C 506.656 764.887, 483.304 764.623, 465.500 765.147 " stroke="none" fill="black" fill-rule="evenodd"/>
</svg>