<svg xmlns="http://www.w3.org/2000/svg" width="1000" height="1000" viewBox="0 0 1000 1000" version="1.1">
	<path d="M 266.150 87.250 C 255.571 134.787, 259.966 180.278, 278.585 215.940 C 287.241 232.521, 284.385 232.105, 303.245 219.528 C 312.185 213.565, 320.211 208.082, 321.080 207.342 C 322.496 206.138, 322.054 204.770, 316.850 194.249 C 309.815 180.025, 306.352 167.285, 304.757 149.750 C 303.474 135.655, 304.521 118.379, 307.578 103.208 C 308.497 98.647, 309.053 94.719, 308.813 94.480 C 308.247 93.913, 269.559 82, 268.286 82 C 267.754 82, 266.793 84.362, 266.150 87.250 M 559.236 91.851 L 539.972 97.500 540.594 100.377 C 541.751 105.736, 541.134 125.460, 539.581 132.725 C 531.854 168.899, 508.963 198.327, 466.500 226.679 C 405.897 267.142, 335.520 301.066, 283.220 315.025 C 276.582 316.797, 275.036 317.559, 275.426 318.868 C 275.694 319.765, 278.009 329.725, 280.570 341 C 283.132 352.275, 285.514 361.810, 285.864 362.189 C 286.846 363.254, 390.704 338.224, 450.277 322.567 C 481.159 314.450, 520.248 303.066, 559.986 290.617 C 569.603 287.604, 577.598 285.265, 577.752 285.419 C 578.356 286.022, 565.749 321.443, 560.459 334.009 C 555.547 345.675, 542.782 371.999, 540.146 375.895 C 539.390 377.014, 538.242 376.494, 534.351 373.275 C 520.483 361.796, 500.262 356.012, 474 356.012 C 446.667 356.012, 422.586 363.081, 401.029 377.432 C 376.554 393.726, 358.833 416.953, 351.387 442.500 C 348.009 454.090, 347.549 471.172, 350.365 480.448 C 357.009 502.331, 372.661 516.046, 395.958 520.396 L 402.416 521.602 395.737 526.368 C 366.947 546.912, 334.312 563.093, 282.472 582.524 C 259.504 591.134, 243.349 595.681, 232.978 596.456 C 228.315 596.804, 223.137 597.296, 221.471 597.549 L 218.443 598.008 218.831 621.254 C 219.044 634.039, 219.332 644.626, 219.472 644.779 C 220.215 645.598, 308.527 634.459, 353 627.937 C 440.963 615.037, 469.304 608.812, 535.500 587.848 C 605.783 565.589, 634.342 558.673, 667.033 555.994 C 689.261 554.173, 712.108 557.502, 726.307 564.632 C 742.528 572.776, 758.010 589.111, 757.996 598.066 C 757.987 604.147, 750.980 610.617, 736 618.377 C 709.232 632.242, 660.312 644.311, 604.177 650.898 C 595.199 651.951, 587.707 652.968, 587.528 653.157 C 586.920 653.798, 590.588 694.921, 591.318 695.652 C 592.198 696.531, 615.470 693.930, 638 690.432 C 715.719 678.369, 766.860 658.914, 788.206 633.292 C 807.733 609.853, 806.455 583.740, 784.434 556.217 C 767.376 534.897, 742.481 520.424, 712.339 514.303 C 705.210 512.855, 698.663 512.512, 678.500 512.530 C 655.713 512.550, 652.084 512.798, 637.500 515.334 C 607.754 520.508, 584.584 526.656, 527 544.653 C 482.874 558.444, 469.192 562.366, 450.810 566.493 C 432.862 570.523, 401.951 576.284, 401.374 575.707 C 401.153 575.487, 405.978 572.011, 412.094 567.983 C 446.647 545.228, 486.365 511.804, 508.724 486.665 C 514.651 480.001, 524.467 469.363, 530.538 463.024 C 565.083 426.957, 594.121 375.571, 614.467 314.500 C 624.532 284.288, 633.187 248.384, 630.779 246.826 C 630.076 246.371, 623.581 242.592, 616.347 238.430 L 603.193 230.862 579.847 238.353 C 547.547 248.718, 527.723 254.908, 505.500 261.565 C 495.050 264.696, 485.825 267.486, 485 267.766 C 484.175 268.045, 488.395 264.882, 494.377 260.737 C 544.156 226.246, 571.827 189.102, 582.176 142.881 C 584.168 133.981, 584.497 129.789, 584.479 113.500 C 584.457 93.067, 583.343 85.916, 580.211 86.101 C 579.270 86.157, 569.831 88.744, 559.236 91.851 M 454.346 401.551 C 437.361 405.277, 421.807 414.111, 409.848 426.823 C 394.737 442.886, 387.523 465.541, 394.988 473.487 C 403.761 482.826, 438.023 476.424, 464.930 460.419 C 477.964 452.666, 488.272 443.953, 494.067 435.791 C 500.642 426.531, 505.937 415.570, 506.254 410.563 C 506.470 407.147, 506.118 406.448, 503.356 404.807 C 501.627 403.780, 497.127 402.286, 493.356 401.487 C 484.779 399.670, 462.756 399.706, 454.346 401.551 M 355.928 690.530 C 340.861 692.879, 319.502 699.170, 309.754 704.130 L 306.008 706.036 315.509 725.018 C 320.735 735.458, 325.535 744, 326.177 744 C 326.818 744, 330.099 742.897, 333.468 741.550 C 362.426 729.965, 394.867 729.586, 417.704 740.567 C 427.119 745.094, 438.260 754.030, 444.912 762.390 C 447.843 766.073, 450.706 768.931, 451.275 768.742 C 453.096 768.135, 485.918 745.525, 485.960 744.849 C 486.048 743.416, 476.725 732, 469.722 724.965 C 451.383 706.542, 428.260 694.646, 402.752 690.509 C 391.428 688.672, 367.777 688.683, 355.928 690.530 M 396.890 801.750 C 389.675 818.560, 387.072 840.236, 390.447 855.404 C 397.440 886.839, 424.951 908.613, 468.089 916.855 C 486.960 920.460, 500.556 921.301, 530.428 920.707 C 565.410 920.011, 590.485 917.391, 634 909.882 C 652.891 906.623, 689.064 899.269, 689.793 898.540 C 690.199 898.134, 681.375 857.015, 680.761 856.448 C 680.617 856.315, 671.050 858.137, 659.500 860.497 C 566.584 879.476, 498.132 882.632, 460.267 869.684 C 447.135 865.193, 439.326 859.550, 435.329 851.663 C 431.987 845.068, 431.865 834.702, 435.010 824.628 C 436.190 820.848, 436.783 817.413, 436.328 816.993 C 435.174 815.930, 400.379 797, 399.580 797 C 399.222 797, 398.011 799.138, 396.890 801.750 " stroke="none" fill="black" fill-rule="evenodd"/>
</svg>