<svg xmlns="http://www.w3.org/2000/svg" width="1000" height="1000" viewBox="0 0 1000 1000" version="1.1">
	<path d="M 345.955 127.545 C 328.091 145.437, 328.316 142.450, 343.939 154.370 C 398.023 195.633, 478.347 226.808, 569.500 241.915 C 599.420 246.873, 639.534 251.305, 662 252.134 L 668.500 252.373 669.166 240.937 C 669.532 234.647, 670.088 224.925, 670.401 219.334 L 670.971 209.168 663.235 208.552 C 580.629 201.974, 528.594 192.080, 472.500 172.284 C 432.506 158.169, 389.221 135.514, 367.400 117.275 L 361.300 112.176 345.955 127.545 M 450.500 359.033 C 396.008 365.058, 349.188 381.443, 306.500 409.427 C 254.820 443.307, 219.068 491.868, 210.368 540 C 208.071 552.714, 208.065 574.561, 210.357 586.275 C 218.495 627.872, 250.517 668.349, 284.144 679.548 C 310.288 688.255, 337.499 682.400, 366.860 661.751 C 378.316 653.695, 404.070 627.720, 416.023 612.169 C 451.750 565.684, 486.830 502.500, 520.217 424.500 C 525.161 412.950, 529.281 403.416, 529.373 403.314 C 529.782 402.855, 553.556 406.157, 563.500 408.053 C 635.360 421.756, 682.277 456.327, 704.657 512.065 C 717.042 542.908, 722.871 585.147, 720.209 624.752 C 718.295 653.236, 713.154 672.191, 700.343 698 C 688.050 722.768, 672.478 744.098, 649 768.331 C 608.705 809.921, 555.085 847.926, 491.321 880.093 C 478.572 886.524, 467.636 891.955, 467.019 892.160 C 465.520 892.660, 481.989 932, 483.697 932 C 485.626 932, 511.574 919.420, 528 910.521 C 572.037 886.664, 612.521 859.442, 646 831.174 C 663.369 816.508, 691.609 787.954, 703.716 772.816 C 737.261 730.872, 756.667 688.373, 762.597 643.866 C 764.569 629.064, 764.864 588.060, 763.113 572 C 757.928 524.419, 745.897 488.381, 724.723 457 C 716.804 445.263, 709.139 436.310, 697.302 424.970 C 659.740 388.986, 607.492 367.721, 537.500 359.930 C 524.809 358.518, 461.102 357.861, 450.500 359.033 M 462.182 402.119 C 374.440 408.047, 292.707 456.464, 262.385 520.475 C 255.333 535.361, 252.713 546.775, 252.623 563 C 252.561 574.134, 252.939 577.864, 254.780 584.285 C 261.046 606.132, 278.799 629.432, 294.747 636.740 C 305.340 641.594, 316.961 640.480, 329.992 633.363 C 339.474 628.184, 346.203 622.925, 357.859 611.581 C 381.697 588.384, 406.144 553.744, 432.783 505.418 C 446.727 480.124, 482 406.029, 482 402.034 C 482 400.894, 480.202 400.902, 462.182 402.119 " stroke="none" fill="black" fill-rule="evenodd"/>
</svg>