<svg xmlns="http://www.w3.org/2000/svg" width="1000" height="1000" viewBox="0 0 1000 1000" version="1.1">
	<path d="M 303.500 121.896 C 281.427 127.333, 282.920 125.405, 288.713 141 C 299.866 171.019, 316.354 196.426, 338.722 218.062 C 353.442 232.300, 365.758 241.143, 382.500 249.493 C 394.232 255.344, 417.120 263.948, 421.054 263.985 C 422.251 263.997, 423.760 259.197, 427.642 243.028 L 432.678 222.055 423.089 219.065 C 385.693 207.405, 355.190 180.082, 336.496 141.500 C 333.564 135.450, 330.117 127.463, 328.836 123.750 C 326.967 118.335, 326.110 117.021, 324.503 117.108 C 323.401 117.168, 313.950 119.322, 303.500 121.896 M 709.070 160.025 C 695.449 164.924, 685.218 179.539, 680.518 200.815 C 674.723 227.043, 675.927 273.272, 684.048 336.433 C 685.104 344.646, 685.862 351.440, 685.734 351.531 C 685.605 351.622, 678.300 353.835, 669.500 356.448 C 590.380 379.945, 528.306 417.842, 473.540 476.087 C 463.112 487.177, 448.937 504.345, 444.713 511 L 443.126 513.500 461.313 525.273 L 479.500 537.045 481.500 534.361 C 502.643 505.978, 534.184 475.483, 564.199 454.404 C 597.279 431.171, 629.591 415.318, 671.795 401.615 C 688.970 396.039, 691.999 395.310, 692.001 396.750 C 692.002 397.163, 692.886 404.361, 693.966 412.747 C 698.473 447.735, 701.884 493.102, 704.096 547.500 C 708.998 668.024, 689.810 783.843, 646.803 893.318 C 642.953 903.118, 639.960 911.258, 640.152 911.407 C 642.211 913.005, 679.536 927.845, 680.054 927.272 C 680.437 926.847, 683.344 919.975, 686.515 912 C 731.661 798.431, 752.079 679.111, 747.990 552.750 C 746.295 500.386, 742.351 446.057, 737.459 407.711 C 736.111 397.145, 735.006 387.575, 735.004 386.445 C 735 384.563, 736.830 384.037, 756.750 380.195 C 804.087 371.063, 855.543 364.484, 895.750 362.423 L 909 361.743 908.980 359.122 C 908.969 357.680, 908.080 349.132, 907.005 340.127 C 904.770 321.418, 906.858 325.567, 887.564 301.500 C 860.853 268.184, 833.554 237.702, 807.356 211.942 C 776.303 181.408, 756.641 166.882, 737.824 160.574 C 728.148 157.330, 717.148 157.120, 709.070 160.025 M 724.083 206.750 C 720.618 219.818, 719.653 251.793, 721.917 278.500 C 723.769 300.356, 728.205 339.455, 728.922 340.249 C 729.294 340.661, 736.113 339.673, 744.075 338.053 C 769.733 332.834, 815.561 325.693, 837.500 323.496 C 849.368 322.307, 849.542 323.697, 835.423 306.948 C 792.502 256.031, 756.761 220.875, 733.480 206.672 C 730.169 204.653, 726.924 203, 726.269 203 C 725.613 203, 724.630 204.688, 724.083 206.750 M 303.009 441.069 C 286.919 442.656, 278.238 445.165, 246 457.547 C 223.657 466.129, 213.204 469.130, 194 472.478 C 168.624 476.901, 160.673 476.015, 149.061 467.466 C 143.904 463.670, 136.724 455.903, 134.197 451.388 C 133.562 450.254, 129.453 452.039, 114.199 460.076 C 103.640 465.640, 95 470.528, 95 470.939 C 95 472.852, 105.750 486.674, 112.219 493.079 C 134.071 514.716, 158.026 522.246, 190 517.528 C 219.372 513.195, 231.349 509.948, 264.500 497.330 C 287.804 488.460, 303.166 483.833, 304.589 485.256 C 304.921 485.588, 302.693 496.804, 299.637 510.180 C 281.593 589.155, 273.624 640.868, 273.776 678 C 274.038 742.113, 286.546 804.020, 306.087 837.913 L 310.173 845 329.586 845 C 340.264 845, 349 844.853, 349 844.674 C 349 844.495, 349.679 839.432, 350.510 833.424 C 358.710 774.080, 385.100 704.637, 418.801 653.720 C 422.361 648.341, 425.100 643.811, 424.887 643.653 C 420.594 640.466, 389.873 619, 389.604 619 C 389.397 619, 385.630 624.513, 381.234 631.250 C 360.512 663.008, 344.458 695.747, 330.577 734.557 C 325.648 748.337, 324.130 751.655, 323.643 749.715 C 320.378 736.704, 316.339 681.379, 317.460 665 C 320.321 623.167, 332.194 559.313, 351.581 481.500 C 355.692 465, 359.284 450.759, 359.563 449.852 C 359.987 448.473, 357.666 447.632, 345.285 444.682 C 328.917 440.782, 316.594 439.729, 303.009 441.069 " stroke="none" fill="black" fill-rule="evenodd"/>
</svg>