<svg xmlns="http://www.w3.org/2000/svg" width="1000" height="1000" viewBox="0 0 1000 1000" version="1.1">
	<path d="M 450.092 85.239 C 437.729 117.409, 421.007 152.538, 410.219 169 C 397.401 188.561, 353.638 240.591, 318.695 277.814 C 313.853 282.973, 310.028 287.761, 310.195 288.454 C 310.860 291.205, 330.540 327, 331.387 327 C 331.886 327, 349.890 320.431, 371.397 312.403 C 392.904 304.374, 432.775 289.495, 460 279.338 C 506.955 261.820, 546.960 247.627, 547.595 248.262 C 547.755 248.421, 537.449 257.369, 524.693 268.146 C 478.079 307.528, 459.693 323.962, 399.470 380.069 C 378.554 399.556, 335.016 439.989, 302.720 469.920 C 270.424 499.851, 244.002 524.601, 244.005 524.920 C 244.007 525.239, 247.070 529.100, 250.810 533.500 C 254.550 537.900, 261.665 546.271, 266.620 552.102 L 275.630 562.704 290.866 550.447 C 328.907 519.843, 379.617 487.510, 419.500 468.430 C 487.471 435.912, 540.737 426.059, 584 438.001 C 594.467 440.891, 613.970 450.668, 623.566 457.836 C 678.558 498.917, 703.579 585.943, 688.447 683.500 C 685.103 705.061, 682.767 714.593, 680.930 714.172 C 680.144 713.992, 671.773 710.756, 662.329 706.982 C 630.179 694.133, 590.728 682.761, 556.500 676.477 C 548.250 674.962, 541.423 673.671, 541.329 673.608 C 541.236 673.544, 542.191 669.219, 543.453 663.996 C 548.070 644.881, 549.503 631.880, 549.458 609.500 C 549.412 586.382, 548.228 577.707, 543.037 562.446 C 537.429 545.957, 527.769 532.721, 515.572 524.814 C 490.580 508.611, 453.187 517.613, 422.927 547.116 C 412.715 557.074, 406.118 565.235, 396.857 579.366 C 381.912 602.172, 368.275 633.844, 360.399 664.042 L 358.692 670.585 345.247 672.369 C 337.853 673.351, 324.112 675.725, 314.713 677.645 C 236.940 693.532, 184.268 724.546, 172.872 761.165 C 170.086 770.114, 170.334 782.788, 173.489 792.777 C 189.162 842.391, 263.466 861.280, 359.135 839.970 C 364.171 838.848, 368.627 838.059, 369.038 838.215 C 369.448 838.372, 372.609 842.775, 376.061 848 C 383.598 859.407, 397.610 873.655, 407.953 880.429 C 418.419 887.283, 437.529 896.295, 450.500 900.493 C 487.972 912.621, 528.098 913.017, 567.500 901.646 C 611.677 888.897, 652.193 860.486, 681.078 822 C 688.643 811.921, 699.939 793.464, 704.641 783.500 C 706.198 780.200, 707.563 777.341, 707.673 777.146 C 708.031 776.516, 730.135 790.053, 743.931 799.351 C 765.369 813.799, 789.477 833.218, 809.473 852.146 L 818.141 860.351 833.669 844.823 L 849.197 829.295 834.348 815.714 C 801.340 785.523, 769.425 761.883, 735.500 742.497 C 728.900 738.726, 723.308 735.491, 723.074 735.310 C 722.839 735.129, 723.833 729.922, 725.282 723.740 C 746.528 633.113, 737.841 545.907, 701.199 482 C 687.840 458.699, 666.434 434.522, 647 420.784 C 601.864 388.878, 549.203 381.310, 485 397.504 C 470.634 401.128, 451.324 407.303, 439 412.214 C 434.875 413.857, 429.392 416.038, 426.816 417.061 L 422.131 418.919 430.316 411.127 C 485.087 358.981, 547.301 304.918, 631.750 236.082 C 644.203 225.931, 653 218.061, 653 217.071 C 653 214.687, 644.299 172.966, 643.671 172.338 C 642.513 171.180, 539.317 204.008, 498.483 218.524 C 486.918 222.635, 409.147 251.497, 398.540 255.614 C 397.463 256.033, 401.101 251.003, 406.626 244.437 C 436.845 208.525, 446.651 195.003, 458.794 172.500 C 471.742 148.507, 494.313 95.855, 492.417 94.071 C 491.912 93.597, 483.400 90.274, 473.500 86.687 C 463.600 83.100, 454.825 79.898, 453.999 79.571 C 452.883 79.130, 451.882 80.582, 450.092 85.239 M 477.977 562.345 C 451.604 571.656, 425.627 606.401, 409.012 654.588 C 406.805 660.987, 405 666.285, 405 666.361 C 404.999 666.438, 419.062 666.500, 436.250 666.500 C 453.437 666.500, 474.204 666.725, 482.399 667 L 497.297 667.500 499.163 661 C 503.935 644.378, 505.435 632.366, 505.468 610.500 C 505.497 591.481, 505.282 588.748, 503.193 581.530 C 499.057 567.243, 493.587 559.979, 487 560.025 C 485.625 560.034, 481.565 561.079, 477.977 562.345 M 400.500 710.907 L 395.500 711.500 394.660 718 C 393.364 728.037, 393.496 762.510, 394.868 772 C 396.687 784.588, 396.423 784.116, 400.798 782.567 C 415.211 777.464, 432.650 766.665, 445.135 755.111 C 454.544 746.403, 465.996 732.420, 473.481 720.500 L 479.132 711.500 474.816 710.824 C 469.584 710.005, 407.525 710.074, 400.500 710.907 M 333.500 718.472 C 277.344 729.175, 233.290 747.914, 218.233 767.500 C 213.935 773.091, 213.436 775.937, 215.812 781.307 C 219.798 790.320, 233.321 797.885, 253.025 802.124 C 262.068 804.070, 266.508 804.382, 285.500 804.407 C 301.474 804.427, 310.787 803.950, 319.500 802.667 C 330.528 801.042, 349.355 797.556, 353.044 796.456 C 354.417 796.047, 354.369 794.812, 352.608 785.248 C 350.937 776.181, 350.618 769.925, 350.564 745.250 L 350.500 716.001 348 716.093 C 346.625 716.143, 340.100 717.214, 333.500 718.472 M 520.646 725.672 C 499.562 768.358, 463.780 803.362, 424 820.216 C 418.775 822.429, 414.146 824.563, 413.712 824.958 C 412.438 826.118, 425.976 840.016, 432.500 844.244 C 445.247 852.506, 463.585 859.701, 482.024 863.674 C 495.065 866.484, 527.777 866.216, 541.749 863.186 C 594.761 851.687, 637.841 817.831, 663.822 767.251 L 668.980 757.209 659.740 753.158 C 637.899 743.581, 610.933 734.350, 585 727.572 C 570.806 723.863, 540.342 717.617, 531 716.501 L 525.500 715.844 520.646 725.672 " stroke="none" fill="black" fill-rule="evenodd"/>
</svg>