<svg xmlns="http://www.w3.org/2000/svg" width="1000" height="1000" viewBox="0 0 1000 1000" version="1.1">
	<path d="M 510 142 C 434.945 146.878, 343.512 178.543, 250.046 232.025 C 218.156 250.273, 172.455 279.650, 171.308 282.639 C 171.043 283.331, 173.929 288.083, 177.723 293.199 C 181.517 298.314, 187.179 305.961, 190.306 310.191 L 195.991 317.881 212.745 306.594 C 290.256 254.378, 374.100 214.807, 445 196.979 C 478.896 188.456, 500.125 185.617, 530 185.609 C 554.249 185.603, 566.633 187.061, 589 192.555 C 654.743 208.703, 701.990 246.004, 732.288 305.676 C 752.458 345.402, 763.666 387.505, 769.645 446 C 772.110 470.121, 772.162 527.788, 769.734 545 C 763.975 585.829, 754.208 617.239, 736.568 651.653 C 723.373 677.396, 709.099 697.783, 689.765 718.500 C 665.956 744.013, 640.045 764.147, 611.161 779.579 L 603.823 783.500 599.698 778.500 C 591.925 769.076, 573.499 750.819, 564.119 743.247 C 542.696 725.953, 514.365 710.024, 491.756 702.561 C 472.145 696.087, 457.832 693.683, 438.500 693.615 C 413.597 693.529, 396.316 697.562, 375.739 708.263 C 347.204 723.103, 333.042 745.725, 334.274 774.500 C 334.825 787.364, 337.399 795.975, 344.082 807.307 C 349.150 815.902, 362.792 829.855, 372 835.863 C 398.595 853.215, 432.992 861.086, 476 859.660 C 526.442 857.988, 577.964 845.027, 622.242 822.871 C 658.754 804.601, 683.572 786.610, 713.010 757.070 C 747.627 722.334, 772.173 684.990, 790.288 639.500 C 810.604 588.481, 818.436 535.289, 815.097 471 C 811.740 406.371, 801.699 356.848, 782.365 309.579 C 761.004 257.350, 726.901 214.677, 683.358 185.689 C 636.597 154.559, 571.025 138.034, 510 142 M 422.660 738.048 C 409.355 740.281, 393.098 747.206, 385.903 753.707 C 373.569 764.850, 374.948 780.238, 389.500 793.851 C 412.010 814.908, 459.009 821.444, 516.524 811.515 C 530.555 809.093, 556.745 802.802, 559.712 801.141 C 560.993 800.424, 559.694 798.666, 552.772 791.744 C 519.126 758.098, 473.736 736.667, 437.074 737.118 C 431.808 737.182, 425.322 737.601, 422.660 738.048 " stroke="none" fill="black" fill-rule="evenodd"/>
</svg>