<svg xmlns="http://www.w3.org/2000/svg" width="1000" height="1000" viewBox="0 0 1000 1000" version="1.1">
	<path d="M 528.251 107.516 C 510.407 111.393, 495.789 126.843, 485.627 152.567 C 478.150 171.495, 470.871 203.629, 467.519 232.500 C 466.626 240.200, 465.558 247.850, 465.147 249.500 L 464.399 252.500 450.949 252.329 C 419.895 251.933, 384.593 242.191, 346.500 223.506 C 337.150 218.920, 327.183 213.797, 324.351 212.121 L 319.202 209.075 308.254 226.288 C 302.233 235.754, 296.996 244.046, 296.616 244.714 C 295.742 246.252, 300.357 249.179, 318.444 258.561 C 363.961 282.169, 410.268 295.469, 449.693 296.256 L 461.887 296.500 461.457 307.500 C 460.235 338.777, 460.150 353.314, 461.028 381.086 C 462.836 438.269, 465.343 459.100, 477.501 517.979 C 492.660 591.395, 498.035 621.341, 502.455 657 C 504.953 677.152, 507.589 712.744, 506.653 713.680 C 506.361 713.972, 500.357 712.829, 493.311 711.139 C 440.703 698.522, 388.971 698.170, 346.500 710.139 C 290.163 726.016, 256 760.296, 256 800.950 C 256 819.279, 261.578 832.763, 274.428 845.499 C 284.083 855.069, 293.306 860.529, 308 865.374 C 321.911 869.960, 334.214 871.956, 353 872.675 C 422.017 875.316, 502.973 845.128, 530.564 806.462 C 536.032 798.800, 541.567 787.292, 543.118 780.365 C 543.778 777.414, 544.859 775, 545.520 775 C 547.380 775, 566.757 784.277, 580.297 791.651 C 612.478 809.176, 642.977 830.519, 674.974 857.908 C 680.185 862.368, 684.714 865.901, 685.038 865.759 C 685.362 865.616, 692.002 858.450, 699.795 849.834 L 713.963 834.167 708.232 828.922 C 684.827 807.502, 644.509 778.130, 615 761.002 C 599.911 752.243, 576.399 740.314, 561.754 733.985 L 551.009 729.342 550.491 710.421 C 549.145 661.173, 542.602 616.914, 521.525 514.500 C 509.908 458.055, 508.682 449.841, 505.847 409.500 C 504.475 389.967, 504.160 318.151, 505.371 300.835 L 506.187 289.170 513.343 287.448 C 537.427 281.656, 582.948 267.483, 608 257.977 C 620.785 253.126, 645.899 242.316, 647.252 241.081 C 648.151 240.262, 640.482 212.135, 635.973 199.710 C 631.287 186.802, 620.197 165.041, 611.997 152.668 C 603.345 139.612, 589.347 125.048, 579.160 118.503 C 562.454 107.769, 544.713 103.940, 528.251 107.516 M 535.385 152.147 C 527.029 161.446, 518.202 189.662, 513.062 223.500 C 511.893 231.200, 510.735 238.744, 510.490 240.263 C 510.076 242.829, 510.240 242.981, 512.772 242.385 C 527.266 238.972, 580.435 222.152, 591.306 217.541 C 595.920 215.584, 596.012 216.075, 587.849 199 C 573.792 169.598, 557.316 151.798, 542.797 150.329 C 538.131 149.857, 537.248 150.074, 535.385 152.147 M 397 745.574 C 374.002 748.213, 364.613 750.046, 350.500 754.655 C 320.357 764.500, 299.655 783.356, 299.672 800.954 C 299.683 813.164, 308.102 820.541, 327.895 825.685 C 339.913 828.809, 363.843 829.885, 381.100 828.078 C 427.683 823.200, 471.496 806.058, 491.455 784.900 C 497.071 778.947, 498.211 777.055, 500.443 769.990 C 501.850 765.539, 503 761.264, 503 760.491 C 503 757.948, 478.156 751.690, 453.500 748.021 C 440.215 746.044, 405.868 744.556, 397 745.574 " stroke="none" fill="black" fill-rule="evenodd"/>
</svg>