<svg xmlns="http://www.w3.org/2000/svg" width="1000" height="1000" viewBox="0 0 1000 1000" version="1.1">
	<path d="M 365.500 80.331 C 341.698 92.912, 324.351 105.485, 307.433 122.421 C 284.390 145.488, 274.385 165.576, 273.279 191 C 272.715 203.962, 273.657 210.333, 280.079 236.965 C 282.263 246.021, 283.827 254.008, 283.556 254.715 C 283.285 255.422, 282.394 256, 281.577 256 C 278.590 256, 248.367 265.220, 232.472 270.980 C 205.998 280.575, 151.397 303.407, 148.594 306.056 C 147.620 306.977, 148.980 310.266, 159.384 332.150 L 165.874 345.800 182.187 338.542 C 217.263 322.936, 252.925 309.331, 276.500 302.564 C 298.885 296.138, 296.334 296.098, 298.157 302.902 L 299.721 308.739 264.791 354.620 C 209.341 427.455, 192.904 447.425, 168.892 471.130 L 154.073 485.759 168.528 505.038 C 176.479 515.641, 183.206 524.539, 183.477 524.811 C 183.749 525.082, 194.100 515.336, 206.480 503.152 C 218.859 490.969, 229.479 481, 230.079 481 C 231.969 481, 244.959 493.101, 254.155 503.428 C 266.601 517.405, 270.973 524.113, 287.853 555.141 L 302.737 582.500 325.619 591.206 C 338.203 595.994, 348.911 599.795, 349.413 599.652 C 350.322 599.393, 352.694 591.515, 357.588 572.500 C 360.775 560.118, 365.354 533.086, 367.413 514.500 C 372.713 466.647, 372.252 428.527, 365.958 394.271 C 364.896 388.493, 364.242 383.417, 364.505 382.992 C 364.767 382.568, 375.898 375.801, 389.241 367.955 C 402.583 360.109, 414.014 353.295, 414.642 352.812 C 415.443 352.196, 412.607 346.423, 405.142 333.475 C 399.289 323.322, 394.129 315.012, 393.676 315.008 C 393.222 315.003, 384.057 320.197, 373.309 326.550 C 362.560 332.902, 353.644 337.965, 353.494 337.800 C 353.344 337.635, 352.021 333.072, 350.555 327.661 L 347.889 317.822 356.311 306.661 C 360.943 300.522, 368.417 290.684, 372.919 284.799 L 381.106 274.097 376.443 257.299 C 373.879 248.059, 371.718 240.428, 371.640 240.339 C 371.391 240.053, 340.676 243.967, 335.066 245 C 332.078 245.550, 329.100 246, 328.450 246 C 327.155 246, 320.075 218.442, 317.494 203.355 C 316.106 195.241, 316.094 193.421, 317.388 187.216 C 319.795 175.671, 324.925 167.117, 336.932 154.628 C 349.498 141.557, 365.845 129.550, 385.096 119.252 C 389.982 116.639, 393.975 114.050, 393.968 113.500 C 393.946 111.596, 377.485 75.662, 376.495 75.354 C 375.948 75.184, 371 77.424, 365.500 80.331 M 727 224.017 C 693.085 228.732, 663.964 246.520, 639.386 277.535 C 632.940 285.668, 632.497 286.027, 631.611 283.830 C 623.697 264.202, 611.600 252.249, 595 247.655 C 586.817 245.391, 578.409 244.805, 569.966 245.910 C 561.253 247.050, 546 251.619, 546 253.087 C 546 254.306, 562.719 290.128, 563.760 291.140 C 564.167 291.535, 566.961 291.216, 569.968 290.429 C 579.897 287.834, 585.314 288.876, 588.317 293.960 C 593.429 302.613, 595.084 324.729, 592.495 349.771 C 591.512 359.270, 590.888 367.221, 591.107 367.440 C 592.073 368.406, 639.330 375.061, 639.990 374.323 C 640.394 373.870, 642.571 367.632, 644.826 360.461 C 657.213 321.074, 681.525 288.347, 708.500 274.748 C 730.916 263.448, 761.614 264.883, 782.731 278.220 C 802.798 290.894, 812.535 318.177, 807.576 347.834 C 803.477 372.352, 793.625 390.473, 774.229 409.170 C 747.932 434.521, 710.264 454.972, 657.500 472.548 C 638.571 478.853, 607.055 487.399, 594.750 489.563 C 592.067 490.035, 591 490.729, 591 492.004 C 591 494.087, 596.834 528.628, 597.646 531.349 C 598.356 533.730, 601.487 533.286, 624.977 527.473 C 690.303 511.306, 744.323 487.874, 783.559 458.688 C 796.872 448.785, 817.436 428.411, 825.261 417.372 C 845.066 389.433, 855.194 353.100, 852.004 321.434 C 847.415 275.868, 822.301 243.130, 781.545 229.583 C 766.098 224.448, 741.759 221.965, 727 224.017 M 313.894 414.118 C 303.171 421.155, 290.314 430.551, 274.686 442.773 L 263.872 451.231 275.792 463.078 C 294.118 481.292, 305.138 495.559, 315.431 514.397 C 320.031 522.815, 321.518 524.830, 322.056 523.376 C 323.308 519.987, 325.990 489.909, 326.977 468.202 C 327.613 454.211, 327.602 442.373, 326.947 433.702 C 325.975 420.842, 324.465 409.132, 323.678 408.345 C 323.464 408.130, 319.061 410.728, 313.894 414.118 M 500.270 504.904 C 490.244 506.401, 481.836 507.830, 481.587 508.080 C 481.337 508.329, 482.012 514.826, 483.085 522.517 C 485.788 541.883, 493 598.152, 493 599.874 C 493 604.109, 437.915 595.516, 407 586.458 C 400.125 584.444, 393.856 582.729, 393.069 582.648 C 392.093 582.547, 389.160 588.845, 383.849 602.447 C 379.565 613.417, 376.159 622.485, 376.280 622.596 C 376.873 623.144, 403.491 631.149, 410.500 632.887 C 433.605 638.617, 465.247 643.544, 486.177 644.671 L 497.854 645.299 498.454 649.900 C 502.690 682.349, 504.404 736.822, 503.058 796.211 C 502.476 821.902, 502 845.468, 502 848.580 L 502 854.238 490.250 842.307 C 477.914 829.781, 465.543 819.105, 450.500 808.007 C 440.397 800.554, 420.661 787.191, 418.570 786.388 C 417.641 786.032, 414.064 791.101, 407.425 802.182 C 402.047 811.157, 397.042 819.448, 396.303 820.606 C 395.027 822.605, 395.603 823.145, 407.730 831.313 C 427.618 844.710, 443.370 857.386, 457.044 871 C 471.338 885.232, 480.005 896.010, 489.006 910.750 C 492.449 916.388, 495.553 921, 495.904 921 C 496.256 921, 507.108 913.913, 520.022 905.250 L 543.500 889.500 544.134 880.500 C 547.686 830.073, 547.699 705.837, 544.157 667.521 C 543.039 655.432, 542.222 645.445, 542.340 645.327 C 542.458 645.208, 546.593 644.629, 551.528 644.039 C 579.614 640.681, 608.629 633.064, 634 622.387 C 647.047 616.897, 664.288 607.786, 664.106 606.478 C 664.031 605.940, 658.821 597.607, 652.529 587.959 L 641.087 570.419 627.582 577.102 C 604.636 588.457, 568.906 598.671, 545.390 600.599 L 537.280 601.264 536.094 591.382 C 534.745 580.146, 526.302 515.094, 525.207 507.500 C 524.533 502.825, 524.292 502.490, 521.493 502.341 C 519.847 502.253, 510.297 503.407, 500.270 504.904 M 353.362 712.750 C 319.076 764.587, 287.752 795.306, 240.783 823.156 C 227.628 830.955, 205.820 841.627, 196 845.069 C 192.425 846.322, 189.324 847.482, 189.110 847.647 C 188.895 847.812, 191.345 857.184, 194.553 868.473 C 198.444 882.165, 200.836 889, 201.737 889 C 207.459 889, 244.608 871.875, 263.056 860.733 C 317.228 828.015, 352.232 793.671, 390.502 735.689 C 395.915 727.487, 399.881 720.523, 399.389 720.082 C 397.992 718.831, 363.886 699, 363.131 699 C 362.760 699, 358.364 705.188, 353.362 712.750 M 658.514 705.250 C 658.281 705.938, 656.017 714.600, 653.483 724.500 C 650.948 734.400, 648.671 743.214, 648.422 744.087 C 648.092 745.243, 649.127 746.016, 652.234 746.934 C 659.919 749.204, 678.330 757.047, 686.884 761.696 C 719.525 779.431, 747.891 806.734, 773.696 845.254 L 782.240 858.008 789.370 854.139 C 793.292 852.011, 801.788 847.479, 808.250 844.068 C 814.712 840.657, 820 837.513, 820 837.083 C 820 835.630, 808.555 818.119, 800.515 807.273 C 777.693 776.481, 751.152 750.398, 726 734.041 C 713.215 725.727, 687.994 713.271, 673.611 708.166 C 660.955 703.675, 659.164 703.329, 658.514 705.250 " stroke="none" fill="black" fill-rule="evenodd"/>
</svg>