<svg xmlns="http://www.w3.org/2000/svg" width="1000" height="1000" viewBox="0 0 1000 1000" version="1.1">
	<path d="M 474.277 56.925 C 463.154 58.953, 453.807 60.859, 453.506 61.161 C 453.205 61.462, 455.410 76.511, 458.405 94.604 C 461.401 112.697, 465.717 140.100, 467.998 155.500 C 470.278 170.900, 472.704 187.182, 473.388 191.682 L 474.632 199.864 467.066 200.574 C 443.511 202.785, 406.683 197.478, 382.899 188.445 C 366.210 182.108, 348.891 171.591, 339.500 162.091 C 336.750 159.310, 333.955 157.230, 333.288 157.471 C 332.622 157.711, 324.657 163.401, 315.589 170.114 C 301.806 180.318, 299.252 182.602, 300.020 184.038 C 300.526 184.982, 305.110 189.681, 310.207 194.479 C 335.644 218.425, 372.290 235.035, 413.895 241.478 C 428.737 243.776, 452.367 245.028, 467.542 244.319 L 480.584 243.710 483.910 273.937 C 485.767 290.817, 486.853 304.501, 486.368 304.928 C 485.891 305.348, 481.225 307.149, 476 308.929 C 437.723 321.974, 399.714 343.091, 374.878 365.108 C 367.621 371.542, 357.384 384.001, 352.892 391.866 C 342.012 410.916, 341.703 433.601, 352.044 454.086 C 360.445 470.729, 380.215 490.438, 402.889 504.774 C 407.551 507.722, 408.761 508.938, 407.790 509.696 C 405.557 511.439, 365.397 534.263, 343.500 546.233 C 284.766 578.340, 200.614 619.905, 144.500 644.525 C 138.450 647.179, 133.021 649.708, 132.436 650.144 C 131.704 650.689, 132.640 657.944, 135.436 673.395 C 137.671 685.748, 139.776 696.125, 140.112 696.456 C 140.449 696.787, 152.824 694.097, 167.612 690.478 C 260.457 667.758, 363.260 644.598, 441 628.886 C 473.203 622.378, 522.905 613, 525.195 613 C 525.753 613, 512.099 627.514, 494.854 645.254 C 459.349 681.778, 436.567 705.768, 410.563 734.015 C 400.697 744.732, 391.042 755.189, 389.107 757.253 L 385.589 761.005 393.443 776.253 C 397.763 784.639, 402.834 794.295, 404.713 797.710 L 408.128 803.920 412.814 801.999 C 458.869 783.117, 494.612 770.438, 525.428 762.055 C 570.910 749.681, 609.033 744.319, 632.745 746.959 C 651.448 749.041, 658.853 752.706, 673.085 766.924 C 680.933 774.764, 683.435 778.045, 686.886 785.022 C 697.520 806.522, 693.796 824.254, 674.580 843.617 C 651.926 866.444, 611.272 884.972, 558.500 896.521 C 549.700 898.446, 541.335 900.355, 539.910 900.761 L 537.320 901.500 541.256 922.500 C 543.421 934.050, 545.319 943.632, 545.473 943.794 C 545.981 944.324, 566.184 939.979, 582.264 935.882 C 667.793 914.089, 720.450 876.729, 733.614 828.500 C 743.827 791.083, 726.431 750.529, 687.782 721.656 C 669.396 707.921, 651.291 703.011, 618.994 703.004 C 583.888 702.996, 544.166 710.257, 492.552 726.116 C 482.131 729.318, 473.403 731.736, 473.157 731.490 C 471.733 730.066, 596.943 603.752, 601.581 601.936 C 606.018 600.197, 645.821 599.574, 667.500 600.903 C 710.601 603.546, 758.600 608.805, 806 616.080 C 818.814 618.046, 855.530 624.349, 861.107 625.540 L 863.715 626.096 866.503 608.394 C 869.763 587.693, 870.325 590.719, 858.979 567.940 C 840.652 531.149, 821.597 503.519, 800.349 482.923 C 785.742 468.766, 771.344 459.599, 756.500 455.009 C 746.673 451.970, 732.384 451.287, 724 453.456 C 697.910 460.206, 655.561 491, 594.429 547.674 L 581.297 559.848 566.399 561.982 C 512.886 569.649, 397.001 592.073, 328.211 608.072 C 314.060 611.364, 312.751 612.288, 352 591.272 C 381.063 575.710, 409.505 559.660, 434.290 544.836 C 445.175 538.326, 454.411 533, 454.814 533 C 455.217 533, 462.061 535.627, 470.023 538.838 C 477.986 542.048, 489.538 546.352, 495.695 548.402 L 506.891 552.129 522.945 540.041 L 539 527.953 539 501.585 L 539 475.217 547.811 468.258 C 572.100 449.072, 597.996 423.903, 610.118 407.699 C 647.358 357.919, 642.128 310.901, 597.712 296.173 C 581.074 290.656, 561.166 289.862, 534.362 293.649 L 530.223 294.233 529.547 287.867 C 529.175 284.365, 527.751 271.886, 526.383 260.136 C 525.014 248.386, 524.056 238.610, 524.254 238.413 C 524.451 238.215, 533.363 236.453, 544.056 234.497 C 569.876 229.774, 591.320 224.919, 615 218.434 C 645.796 210, 682 197.207, 682 194.759 C 682 193.897, 665.330 157.090, 664.558 156.246 C 664.430 156.106, 658.514 158.206, 651.412 160.913 C 634 167.550, 612.646 174.091, 589.070 180.010 C 569.083 185.028, 533.108 192.500, 523.487 193.630 L 518.139 194.259 517.555 190.880 C 517.234 189.021, 514.977 174, 512.538 157.500 C 508.180 128.005, 501.927 88.637, 498.006 66 C 496.910 59.675, 496.010 54.163, 496.007 53.750 C 496.003 53.337, 495.663 53.053, 495.250 53.118 C 494.837 53.184, 485.400 54.897, 474.277 56.925 M 550.500 335.672 C 548.850 335.876, 544.399 336.535, 540.608 337.136 L 533.717 338.228 534.311 346.864 C 534.639 351.614, 535.399 366.975, 536.001 381 C 537.561 417.351, 537.756 419.201, 539.900 418.054 C 543.343 416.211, 566.653 392.323, 573.206 383.922 C 584.694 369.195, 591.394 354.501, 590.808 345.319 C 590.526 340.911, 590.197 340.352, 586.946 338.761 C 584.991 337.805, 580.992 336.567, 578.060 336.011 C 573.022 335.056, 557.052 334.859, 550.500 335.672 M 476.500 355.352 C 436.832 371.493, 401.370 395.218, 391.610 412.148 C 384.763 424.022, 388.021 434.436, 403.299 449.515 C 408.878 455.021, 417.027 461.597, 424 466.218 C 436.398 474.435, 449.685 481.963, 451.831 481.986 C 452.906 481.997, 486.363 459.887, 493.341 454.553 C 495.105 453.206, 495.134 451.815, 494.037 421.823 C 493.406 404.595, 492.471 383.075, 491.959 374 C 491.447 364.925, 491.022 355.813, 491.014 353.750 C 491.006 351.688, 490.663 350.014, 490.250 350.031 C 489.837 350.049, 483.650 352.443, 476.500 355.352 M 725.712 499.425 C 716.360 504.136, 701.597 514.103, 686.758 525.724 C 671.421 537.735, 650.843 555.176, 651.377 555.711 C 651.594 555.927, 658.910 556.531, 667.636 557.052 C 705.717 559.327, 748.488 563.676, 789.250 569.418 C 801.763 571.181, 811.991 572.370, 811.979 572.062 C 811.937 570.942, 797.349 547.794, 791.290 539.232 C 778.401 521.018, 763.042 506.178, 750.634 499.949 C 740.245 494.733, 735.236 494.628, 725.712 499.425 " stroke="none" fill="black" fill-rule="evenodd"/>
</svg>