<svg xmlns="http://www.w3.org/2000/svg" width="1000" height="1000" viewBox="0 0 1000 1000" version="1.1">
	<path d="M 519.465 78.078 C 493.377 82.450, 475.281 97.967, 463.370 126.176 C 454.001 148.365, 445.904 180.648, 441.491 213.407 L 440.830 218.315 381.665 217.673 C 297.145 216.756, 233.505 213.857, 156.659 207.425 C 146.297 206.557, 137.689 205.995, 137.529 206.174 C 137.370 206.353, 136.290 215.926, 135.131 227.448 C 133.744 241.220, 133.366 248.608, 134.027 249.017 C 136.248 250.389, 216.807 256.092, 267.500 258.464 C 308.960 260.405, 391.913 262.269, 417.605 261.838 L 437.710 261.500 438.330 276.571 C 441.049 342.564, 459.371 388.524, 493.235 414.294 C 509.149 426.404, 521.913 431.183, 558.245 438.632 C 571.305 441.309, 581.992 443.727, 581.995 444.004 C 581.998 444.281, 574.688 446.036, 565.750 447.904 C 556.813 449.772, 536.225 454.586, 520 458.602 C 389.968 490.783, 315.841 525.197, 292.967 564 C 279.130 587.473, 281.949 613.635, 300.266 631.757 C 317.540 648.847, 347.848 658.124, 393.412 660.269 L 398.323 660.500 387.912 667.406 C 319.891 712.523, 288.488 759.397, 298.930 800.226 C 304.141 820.601, 317.382 837.067, 341 852.546 C 399.715 891.024, 487.609 913.736, 602 919.988 C 626.619 921.333, 688.346 921.280, 714.500 919.891 C 726.050 919.277, 735.621 918.667, 735.770 918.534 C 736.157 918.189, 732.133 875.799, 731.669 875.336 C 731.457 875.123, 723.907 875.467, 714.891 876.100 C 693.486 877.603, 623.578 877.610, 600 876.112 C 499.539 869.728, 423.878 851.394, 373.097 821.129 C 345.243 804.528, 337.120 792.209, 342.419 774.604 C 351.061 745.887, 403.606 703.262, 472.894 668.761 C 484.227 663.117, 493.671 658.404, 493.880 658.287 C 494.433 657.976, 490.719 612.157, 490.058 611.133 C 489.751 610.658, 485 610.870, 479.500 611.603 C 452.326 615.226, 437.526 616.263, 412 616.332 C 384.296 616.408, 372.368 615.438, 356.500 611.821 C 345.813 609.384, 334.034 604.219, 330.522 600.429 C 321.506 590.701, 337.205 573.147, 371 555.167 C 430.682 523.414, 562.382 488.411, 701.250 467.392 L 705 466.824 705 443.500 L 705 420.176 701.250 419.619 C 699.188 419.313, 694.350 418.789, 690.500 418.455 C 675.969 417.196, 641.745 411.061, 589.500 400.351 C 543.515 390.924, 537.068 389.322, 529.239 385.375 C 500.700 370.989, 484.294 332.914, 482.286 276.410 L 481.715 260.319 500.607 259.623 C 586.806 256.448, 703.777 242.735, 801 224.406 C 827.432 219.423, 863.686 211.812, 865.073 210.955 C 865.939 210.419, 864.948 204.810, 861.345 189.863 L 856.436 169.500 853.468 169.591 C 851.836 169.641, 835.875 172.667, 818 176.316 C 737.535 192.739, 648.224 205.198, 562.500 211.958 C 529.942 214.526, 497.944 216.259, 490.898 215.836 L 485.297 215.500 487.529 202.500 C 491.757 177.878, 498.114 155.268, 504.960 140.500 C 511.851 125.635, 517.005 121.888, 531.500 121.207 C 555.153 120.096, 590.170 133.215, 629.565 157.946 L 638.630 163.637 650.815 146.359 C 657.517 136.857, 662.998 128.726, 662.995 128.291 C 662.988 127.160, 647.691 117.463, 632.500 108.959 C 588.536 84.348, 548.049 73.287, 519.465 78.078 " stroke="none" fill="black" fill-rule="evenodd"/>
</svg>