<svg xmlns="http://www.w3.org/2000/svg" width="1000" height="1000" viewBox="0 0 1000 1000" version="1.1">
	<path d="M 356.500 99.165 C 347.150 105.204, 338.924 110.476, 338.220 110.879 C 337.305 111.404, 343.874 122.697, 361.299 150.556 C 388.201 193.566, 419.538 245.389, 443.200 286 C 464.947 323.323, 466.393 325.997, 464.836 326.020 C 464.101 326.031, 457.950 326.697, 451.168 327.500 C 387.620 335.027, 309.669 328.144, 253.972 310.088 L 239.270 305.322 230.978 325.171 C 226.418 336.088, 222.926 345.260, 223.219 345.552 C 224.296 346.630, 247.888 354.212, 260.500 357.534 C 300.728 368.130, 337.036 372.885, 384.006 373.708 C 417.769 374.299, 438.337 373.331, 465 369.894 C 473.525 368.795, 482.525 367.657, 485 367.365 L 489.500 366.833 504.999 395.667 C 525.549 433.898, 555.244 493.268, 567.297 520.222 C 575.944 539.559, 589.722 572.913, 591.423 578.626 C 591.951 580.401, 589.360 583.313, 575.778 596.213 C 494.257 673.636, 331.418 802.281, 228 870.961 C 219.475 876.622, 212.122 881.598, 211.661 882.017 C 210.903 882.705, 232.116 917.336, 234.014 918.508 C 237.028 920.371, 345.209 842.998, 409.500 792.997 C 479.859 738.277, 568.775 663.776, 599.719 633.616 C 604.240 629.210, 608.113 625.807, 608.326 626.053 C 609.414 627.307, 662.131 778.080, 691.511 863.962 C 701.005 891.716, 709.197 914.566, 709.716 914.739 C 711.270 915.257, 750 901.865, 750 900.810 C 750 898.034, 674.276 679.705, 646.179 601.471 L 642.218 590.442 651.169 579.971 C 704.703 517.346, 733.517 458.759, 737.469 404.500 C 738.113 395.658, 736.646 377.246, 735.181 375.781 C 734.770 375.370, 727.699 376.992, 719.467 379.385 C 711.235 381.778, 702.025 384.451, 699 385.325 L 693.500 386.915 693.393 399.208 C 693.073 435.869, 672.435 481.983, 634 531.915 C 629.325 537.988, 625.253 542.967, 624.951 542.979 C 624.649 542.990, 623.802 541.313, 623.069 539.250 C 620.245 531.303, 604.228 495.398, 592.847 471.500 C 581.684 448.060, 557.022 399.945, 541.078 370.500 L 534.038 357.500 537.769 356.331 C 539.821 355.688, 546.509 353.771, 552.632 352.070 C 618.842 333.681, 689.686 299.138, 751.362 255.172 C 759.537 249.345, 766.433 244.036, 766.687 243.374 C 767.164 242.130, 743.130 209.120, 741.690 209.043 C 741.245 209.019, 736.070 212.466, 730.190 216.701 C 678.256 254.114, 622.549 283.073, 566 302.056 C 547.118 308.395, 516.618 316.983, 512.949 316.995 C 512.054 316.998, 509.548 313.720, 507.027 309.250 C 485.341 270.801, 444.956 202.626, 416.541 156.500 C 400.094 129.802, 375.043 89.860, 374.106 88.842 C 373.773 88.480, 365.850 93.125, 356.500 99.165 " stroke="none" fill="black" fill-rule="evenodd"/>
</svg>