<svg xmlns="http://www.w3.org/2000/svg" width="1000" height="1000" viewBox="0 0 1000 1000" version="1.1">
	<path d="M 591.520 90.750 C 588.559 114.094, 581.592 146.177, 572.969 176.185 C 568.805 190.672, 554.389 234.312, 549.281 247.893 L 546.500 255.285 531.500 259.945 C 497.053 270.647, 458.829 287.648, 425 307.315 C 417.025 311.951, 410.372 315.636, 410.216 315.505 C 410.060 315.373, 411.037 311.450, 412.389 306.788 C 424.328 265.586, 411.739 227.506, 382.212 215.508 C 368.387 209.890, 352.608 210.088, 334.518 216.106 C 325.189 219.210, 313.627 224.887, 313.731 226.314 C 313.791 227.131, 330.694 255.099, 334.232 260.237 L 336.118 262.974 340.880 260.561 C 346.400 257.763, 356.379 255, 360.960 255 C 365.491 255, 367.680 256.481, 370.247 261.283 C 372.209 264.956, 372.500 266.983, 372.500 277 C 372.500 287.390, 372.169 289.514, 369.071 299 C 362.528 319.034, 346.817 347.124, 329 370.643 C 323.775 377.540, 319.087 383.762, 318.582 384.470 C 317.924 385.392, 321.871 390.315, 332.539 401.874 L 347.413 417.992 350.457 415.156 C 394.056 374.531, 458.610 334.101, 515.187 311.986 C 526.501 307.564, 526.324 305.813, 516.666 326.657 C 460.618 447.622, 364.798 589.947, 170.388 841 C 154.842 861.075, 142.009 877.948, 141.869 878.496 C 141.730 879.044, 149.199 885.406, 158.467 892.634 L 175.317 905.776 177.476 903.138 C 186.359 892.281, 248.979 810.851, 288.319 759 C 330.995 702.752, 334.757 698.177, 351.174 682.556 C 387.968 647.547, 421.661 637.840, 446.556 655.076 C 468.939 670.572, 479.378 689.276, 497.022 745.500 C 511.954 793.079, 519.539 811.178, 533.079 831.539 C 542.432 845.605, 559.717 863.112, 572.892 871.863 C 597.251 888.044, 626.558 897.584, 664.186 901.579 C 682.905 903.567, 728.474 903.033, 751 900.562 C 791.337 896.137, 860.999 883.500, 861 880.607 C 861.001 879.278, 851.943 839.622, 851.547 839.218 C 851.394 839.063, 845.247 840.267, 837.885 841.894 C 763.093 858.416, 698.017 863.409, 653.500 856.041 C 621.593 850.760, 598.782 839.929, 581.453 821.829 C 563.981 803.581, 556.018 787.179, 540.024 736.500 C 529.040 701.695, 523.920 687.746, 517.026 673.850 C 502.298 644.161, 482.654 623.379, 458.500 611.934 C 443.298 604.731, 437.423 603.500, 418.250 603.500 C 409.312 603.500, 401.999 603.369, 402 603.209 C 402 603.048, 407.346 595.173, 413.879 585.709 C 484.903 482.823, 537.007 392.256, 569.619 315 C 579.800 290.881, 578.517 292.788, 585.515 291.381 C 621.030 284.244, 669.905 285.005, 694.625 293.079 C 723.098 302.380, 741.514 333.215, 739.669 368.500 C 738.932 382.599, 737.021 390.013, 730.785 402.975 C 726.284 412.330, 724.715 414.475, 716.122 423.023 C 707.761 431.340, 705.123 433.281, 696 437.829 C 662.738 454.410, 617.855 453.433, 561.839 434.906 C 555.194 432.709, 549.540 431.127, 549.275 431.392 C 549.010 431.656, 545.730 440.114, 541.986 450.187 C 538.242 460.259, 534.885 469.235, 534.527 470.134 C 533.287 473.242, 573.903 485.229, 602.500 490.197 C 613.746 492.150, 619.009 492.455, 641.500 492.453 C 664.610 492.451, 668.612 492.206, 677.500 490.246 C 707.118 483.717, 728.837 472.443, 747.091 454.125 C 765.127 436.025, 775.657 416.433, 781.160 390.734 C 784.265 376.234, 784.265 352.766, 781.160 338.266 C 773.339 301.743, 753.584 274.055, 724 258.153 C 710.788 251.051, 693.795 246.716, 668.589 244.017 C 655.723 242.639, 621.375 242.640, 608.132 244.019 C 602.430 244.613, 597.598 244.931, 597.393 244.726 C 597.188 244.522, 599.062 238.312, 601.556 230.927 C 619.818 176.862, 632.088 126.296, 635.293 91.893 L 635.722 87.287 625.205 86.643 C 619.421 86.290, 609.611 86, 603.406 86 L 592.123 86 591.520 90.750 M 206.283 251.750 C 190.353 285.511, 179.367 321.227, 174.370 355.500 C 171.947 372.124, 171.910 403.677, 174.297 418 C 175.969 428.035, 178.437 438.771, 179.261 439.594 C 179.672 440.005, 219.856 428.477, 220.599 427.735 C 220.839 427.495, 220.368 424.644, 219.553 421.399 C 210.001 383.390, 219.926 325.315, 245.036 272.292 L 250.818 260.083 246.659 257.688 C 237.575 252.457, 213.147 239, 212.736 239 C 212.495 239, 209.591 244.738, 206.283 251.750 " stroke="none" fill="black" fill-rule="evenodd"/>
</svg>