<svg xmlns="http://www.w3.org/2000/svg" width="1000" height="1000" viewBox="0 0 1000 1000" version="1.1">
	<path d="M 318.524 120.133 C 312.186 130.008, 307.004 138.405, 307.008 138.793 C 307.018 139.695, 324.829 149.960, 341 158.385 C 377.263 177.276, 408.718 187.944, 439.069 191.645 C 456.540 193.776, 499.766 194.070, 516.500 192.172 C 527.046 190.976, 552.166 187.183, 552.597 186.722 C 552.886 186.412, 543.350 145.017, 542.881 144.547 C 542.670 144.337, 540.249 144.586, 537.499 145.101 C 519.991 148.378, 506.408 149.389, 479.500 149.420 C 442.687 149.461, 428.782 147.441, 403.500 138.379 C 386.443 132.265, 360.606 119.944, 341.274 108.705 L 330.048 102.179 318.524 120.133 M 473 276.626 C 443.622 279.389, 409.351 287.146, 375.500 298.695 C 362.020 303.294, 333.576 314.327, 331.066 315.929 C 329.894 316.678, 331.278 320.372, 338.645 336.172 C 344.529 348.791, 348.151 355.441, 349.079 355.331 C 349.860 355.238, 356.125 352.857, 363 350.040 C 389.423 339.213, 428.767 327.520, 452.123 323.554 C 486.096 317.785, 514.607 319.263, 532 327.696 C 539.358 331.263, 548.493 340.711, 553.945 350.393 C 577.303 391.873, 572.851 456.544, 543.730 498.777 C 536.510 509.249, 523.948 520.764, 514.227 525.821 C 502.596 531.872, 491.497 534.301, 475.500 534.295 C 459.803 534.290, 449.841 532.661, 421 525.384 C 409.175 522.401, 395 519.054, 389.500 517.947 C 330.301 506.029, 297.350 532.516, 283.067 603.500 C 269.021 673.303, 272.028 759.573, 291.536 846.500 C 295.473 864.043, 304.049 895.382, 305.238 896.572 C 305.472 896.805, 314.851 894.909, 326.081 892.358 L 346.500 887.720 357 872.118 C 394.892 815.813, 437.653 766.998, 479 732.844 C 510.996 706.414, 595.673 641.340, 596.714 642.381 C 596.949 642.616, 596.234 645.889, 595.124 649.654 C 591.707 661.250, 585.273 687.834, 582.577 701.500 C 576.676 731.411, 574.527 753.661, 575.335 776.500 C 576.427 807.406, 582.593 826.319, 597.403 844.192 C 624.006 876.297, 680.408 896.136, 754.912 899.596 L 770.324 900.312 769.662 887.999 C 769.298 881.227, 769 871.327, 769 865.999 L 769 856.311 754.750 855.678 C 707.523 853.578, 665.128 842.560, 642.486 826.501 C 631.139 818.453, 625.022 809.988, 621.491 797.446 C 618.912 788.287, 618.372 760.111, 620.427 742 C 624.713 704.228, 638.129 652.315, 656.176 603.665 C 660.019 593.306, 662.945 584.611, 662.678 584.344 C 662.019 583.686, 621.952 570.997, 620.585 571.013 C 618.494 571.039, 541.784 627.745, 501 659.413 C 457.106 693.496, 435.422 711.668, 415.630 730.957 C 394.111 751.929, 366.396 784.418, 343.082 816 C 338.007 822.875, 333.523 828.622, 333.117 828.770 C 331.361 829.413, 323.275 778.979, 320.487 750 C 312.768 669.755, 324.229 584.713, 345.392 565.206 C 355.124 556.235, 365.284 556.602, 409 567.501 C 442.448 575.840, 450.208 577.141, 470.009 577.733 C 489.741 578.323, 501.690 576.947, 516.106 572.425 C 558.333 559.180, 592.272 518.744, 606.067 465.241 C 618.505 417.001, 613.344 366.218, 592.273 329.500 C 575.308 299.939, 555.404 285.604, 522 278.892 C 512.625 277.008, 483.338 275.654, 473 276.626 " stroke="none" fill="black" fill-rule="evenodd"/>
</svg>