<svg xmlns="http://www.w3.org/2000/svg" width="1000" height="1000" viewBox="0 0 1000 1000" version="1.1">
	<path d="M 271.013 86.154 C 259.746 88.346, 250.398 90.269, 250.241 90.426 C 250.083 90.583, 250.613 95.164, 251.417 100.606 C 253.554 115.067, 255.796 139.637, 257.110 163 C 258.236 183.032, 257.685 263.934, 256.354 273.854 L 255.770 278.207 243.635 277.538 C 227.755 276.662, 207.427 274.371, 193.597 271.898 C 171.095 267.875, 140.945 259.076, 125.194 251.934 C 121.588 250.299, 118.319 249.308, 117.930 249.731 C 117.540 250.154, 112.895 258.865, 107.609 269.089 L 97.996 287.677 100.748 288.965 C 137.881 306.346, 191.730 318.948, 236.330 320.695 L 252.160 321.315 251.499 327.407 C 251.136 330.758, 249.293 344.487, 247.404 357.915 C 228.684 490.984, 188.977 658.577, 143.791 795.231 C 138.202 812.134, 133.826 826.159, 134.066 826.399 C 134.306 826.639, 144.745 829.731, 157.264 833.270 L 180.026 839.705 182.568 831.102 C 213.773 725.529, 262.111 620.949, 309.226 557.072 C 327.565 532.208, 353.498 505.242, 371.045 492.790 C 396.828 474.491, 425.243 465.087, 446.219 467.910 C 456.307 469.268, 463.463 472.482, 469.993 478.590 C 479.598 487.574, 485.986 501.342, 490.198 522.137 C 492.280 532.413, 492.495 536.132, 492.449 561 C 492.395 589.916, 491.583 598.822, 486.478 626.504 C 478.477 669.888, 461.600 719.725, 442.116 757.500 C 427.589 785.663, 414.496 804.446, 398.852 819.565 C 382.696 835.179, 365.566 843.294, 348.480 843.429 C 340.222 843.494, 338.894 843.221, 332.756 840.200 C 318.637 833.251, 311.054 817.132, 311.021 794 C 310.939 736.474, 357.873 658.178, 439.281 580.035 C 445.211 574.343, 449.936 569.332, 449.781 568.899 C 449.155 567.145, 421.742 538, 420.719 538 C 418.983 538, 381.237 575.948, 367.006 592 C 307.749 658.840, 274.482 721.198, 268.045 777.500 C 262.598 825.151, 280.762 864.725, 315.349 880.559 C 325.130 885.037, 335.473 887.117, 348 887.125 C 369.840 887.139, 389.019 880.867, 410.259 866.765 C 421.558 859.263, 440.649 840.463, 450.811 826.831 C 492.444 770.982, 526.030 679.285, 535.174 596.500 C 537.188 578.271, 536.891 536.245, 534.652 522.500 C 527.268 477.171, 509.169 447.276, 480.500 433.056 C 466.358 426.041, 459.097 424.548, 439 424.522 C 425.811 424.505, 419.406 424.947, 413 426.316 C 376.624 434.087, 342.823 454.706, 308.795 489.884 C 291.327 507.942, 277.056 526.029, 255.811 557.035 L 254.123 559.500 255.015 556 C 257.497 546.258, 269.547 488.208, 274.008 464.500 C 282.712 418.248, 291.855 360.480, 295.096 331.263 L 296.342 320.026 299.421 319.551 C 301.114 319.290, 306.550 318.564, 311.500 317.938 C 343.444 313.901, 381.846 303.421, 414.275 289.893 C 435.197 281.164, 468.721 263.431, 484.178 252.916 L 487.856 250.413 475.914 232.282 L 463.972 214.151 450.216 222.474 C 407.128 248.543, 360.822 265.879, 314.950 273.113 C 307.268 274.325, 300.789 275.122, 300.552 274.885 C 300.315 274.648, 300.530 266.364, 301.031 256.477 C 303.609 205.543, 301.152 140.869, 294.953 96.527 C 293.879 88.842, 293 82.430, 293 82.277 C 293 81.871, 293.240 81.829, 271.013 86.154 M 667.500 360.460 C 651.538 363.378, 636.436 368.700, 617.816 377.970 C 605.408 384.147, 587.388 394.564, 586.431 396.112 C 585.919 396.940, 608.182 430.376, 609.989 431.493 C 610.409 431.753, 614.520 429.695, 619.126 426.922 C 631.657 419.375, 648.154 411.570, 660.500 407.347 C 670.698 403.859, 672.351 403.582, 683.171 403.542 C 693.488 403.505, 695.170 403.743, 697.671 405.594 C 701.748 408.612, 704.488 414.044, 706.626 423.348 C 709.484 435.783, 709.259 471.809, 706.217 488.839 C 700.203 522.501, 689.315 555.909, 673.994 587.704 L 666.186 603.908 685.016 613.982 L 703.845 624.056 713.894 617.472 C 730.925 606.313, 753.911 596.496, 772.500 592.442 C 783.616 590.018, 802.122 589.508, 811 591.380 C 832.752 595.968, 851.411 612.292, 862.611 636.535 C 871.931 656.705, 870.819 676.932, 859.029 701.695 C 835.192 751.763, 766.242 811.549, 667 868.204 C 656.825 874.012, 646.169 879.934, 643.321 881.363 C 640.472 882.793, 637.902 884.349, 637.610 884.822 C 637.207 885.475, 654.848 920.752, 656.667 922.929 C 658.254 924.829, 710.787 894.172, 746.500 870.504 C 798.380 836.122, 840.810 800.123, 867.906 767.500 C 900.257 728.549, 915.859 688.070, 912.008 653.074 C 907.671 613.654, 880.129 574.029, 845.500 557.384 C 816.706 543.544, 784.730 542.628, 745.509 554.519 C 739.464 556.351, 734.383 557.716, 734.218 557.551 C 734.053 557.386, 735.914 550.557, 738.354 542.375 C 743.767 524.225, 747.485 507.885, 750.270 490.013 C 751.945 479.255, 752.381 471.810, 752.408 453.500 C 752.445 427.950, 751.102 417.142, 746.038 402.239 C 738.473 379.978, 722.740 365.330, 701.303 360.591 C 692.775 358.706, 677.421 358.647, 667.500 360.460 " stroke="none" fill="black" fill-rule="evenodd"/>
</svg>