<svg xmlns="http://www.w3.org/2000/svg" width="1000" height="1000" viewBox="0 0 1000 1000" version="1.1">
	<path d="M 700.315 137.008 C 675.854 140.584, 650.691 156.038, 618.104 187.498 C 554.391 249.008, 459.075 375.397, 344.528 550.263 L 323.721 582.026 318.605 577.188 C 315.791 574.527, 310.705 570.808, 307.303 568.925 L 301.116 565.500 301.599 555.500 C 303.609 513.853, 305.932 492.248, 312.026 458.500 C 320.857 409.599, 338.153 343.179, 357.174 285.128 L 364.177 263.756 359.428 245.378 C 356.790 235.167, 354.177 227, 353.548 227 C 352.926 227, 346.411 229.014, 339.072 231.476 C 316.644 238.998, 307.636 240.501, 285 240.495 C 264.248 240.490, 259.701 239.786, 246.842 234.592 C 228.699 227.264, 211.017 210.410, 198.585 188.594 L 194.382 181.219 175.010 189.124 C 164.355 193.472, 155.383 197.283, 155.073 197.594 C 154.025 198.642, 164.988 218.436, 171.466 227.193 C 196.632 261.210, 227.811 279.842, 266.660 284.078 C 277.077 285.215, 304.805 284.796, 309.640 283.429 C 311.694 282.849, 311.621 283.338, 307.829 295.662 C 289.277 355.961, 274.561 416.370, 266.577 465 C 261.859 493.738, 260.197 509.023, 258.775 536.750 L 257.583 560 254.541 560.022 C 250.079 560.053, 235.406 563.460, 226.370 566.562 C 195.181 577.271, 167.026 600.659, 154.098 626.598 C 136.803 661.299, 140.045 697.559, 163.744 734.500 C 170.596 745.180, 178.176 754.307, 191.296 767.673 L 203.246 779.846 191.931 796.173 C 181.427 811.329, 157.767 844.456, 152.333 851.615 L 149.969 854.730 167.454 867.853 L 184.940 880.975 190.640 873.268 C 200.779 859.557, 218.364 834.830, 227.453 821.500 C 232.329 814.350, 236.669 808.100, 237.097 807.612 C 237.525 807.124, 243.641 810.313, 250.688 814.700 C 257.735 819.087, 268.296 825.237, 274.157 828.366 L 284.814 834.055 295.556 821.278 C 301.464 814.250, 306.907 807.789, 307.651 806.919 C 308.750 805.635, 308.818 803.005, 308.013 792.919 C 306.962 779.754, 304.560 738.908, 303.456 715.435 L 302.794 701.370 307.530 691.935 C 313.395 680.252, 319.642 669.882, 341.530 635.500 C 440.503 480.029, 535.655 346.259, 604.071 266.406 C 622.369 245.049, 659.045 208.014, 671.157 198.662 C 686.196 187.052, 700.518 180, 709.058 180 C 711.481 180, 712.075 180.560, 713.038 183.750 C 714.871 189.822, 715.337 206.721, 714.068 221.108 C 713.419 228.474, 710.920 248.675, 708.517 266 C 702.383 310.209, 701.615 318.234, 701.678 337.500 C 701.781 368.650, 708.234 386.534, 723.415 397.738 C 726.762 400.208, 743.450 409.115, 760.500 417.531 C 778.868 426.598, 793.246 434.338, 795.784 436.524 C 800.717 440.773, 803.546 445.784, 805.099 453.024 C 806.125 457.812, 806.027 458.363, 803.441 462.307 C 799.800 467.861, 785.799 482.191, 774 492.438 C 743.948 518.540, 705.793 546.260, 611.500 610.498 C 508.949 680.362, 470.158 709.152, 445.655 733.587 C 426.900 752.290, 420.346 766.206, 423.089 781.500 C 425.406 794.415, 433.435 804.456, 446.349 810.589 C 463.233 818.607, 477.958 819.539, 553 817.342 C 631.926 815.030, 671.689 816.501, 721 823.554 C 765.475 829.916, 807.742 841.105, 845.914 856.620 C 853.291 859.619, 859.691 861.709, 860.136 861.264 C 861.106 860.294, 877 824.288, 877 823.061 C 877 821.207, 843.369 808.244, 818.442 800.490 C 772.973 786.345, 724.480 777.939, 665 773.890 C 642.462 772.356, 583.199 772.392, 538.500 773.968 C 504.610 775.163, 482.345 774.960, 472.794 773.370 L 469.087 772.752 471.794 769.197 C 475.394 764.468, 494.395 747.871, 510.500 735.388 C 535.386 716.099, 564.270 695.711, 640 643.981 C 720.577 588.939, 765.554 556.519, 794 532.974 C 810.712 519.141, 833.331 496.290, 839.455 487.053 C 846.954 475.739, 849.391 468.414, 849.284 457.500 C 849.104 439.130, 841.741 420.766, 829.632 408.490 C 819.877 398.599, 813.144 394.522, 778.943 377.798 C 746.387 361.878, 748.065 363.187, 746.003 352.114 C 743.806 340.313, 745.007 321.810, 750.623 281 C 756.100 241.189, 757.788 226.525, 758.507 212.500 C 760.747 168.840, 747.689 143.281, 720.164 137.447 C 712.972 135.923, 708.423 135.822, 700.315 137.008 M 247 605.924 C 216.073 614.506, 192.814 636.126, 187.958 660.807 C 183.538 683.273, 194.047 707.440, 220.425 735.472 C 226.123 741.527, 227.167 742.250, 228.366 740.972 C 230.099 739.125, 246.966 711.505, 253.693 699.500 L 258.736 690.500 257.956 666.500 C 257.526 653.300, 257.136 633.837, 257.087 623.250 C 256.988 601.256, 257.938 602.889, 247 605.924 " stroke="none" fill="black" fill-rule="evenodd"/>
</svg>