<svg xmlns="http://www.w3.org/2000/svg" width="1000" height="1000" viewBox="0 0 1000 1000" version="1.1">
	<path d="M 488.147 105.705 C 481.478 169.295, 463.598 292.887, 460.676 295.587 C 460.029 296.185, 453.425 297.472, 446 298.446 C 396.114 304.995, 342.390 321.253, 297.412 343.412 L 280.813 351.589 269.748 337.045 C 246.593 306.606, 222.434 277.547, 196.966 249.500 C 182.074 233.100, 146.997 197.812, 145.992 198.219 C 145.610 198.374, 138.999 205.599, 131.299 214.275 L 117.300 230.050 136.400 249.309 C 167.352 280.519, 198.853 316.696, 228.577 355.168 C 236.510 365.436, 243 374.076, 243 374.369 C 243 374.662, 238.612 378.140, 233.250 382.098 C 202.471 404.817, 173.957 432.808, 152.362 461.500 C 98.162 533.515, 76.630 616.640, 92.066 694.274 C 103.337 750.959, 128.597 785.855, 166.500 797.103 C 176.309 800.013, 195.518 800.740, 207.500 798.653 C 263.709 788.863, 332.251 732.747, 388.741 650.269 L 395.749 640.038 400.914 652.578 C 405.214 663.016, 414.977 688.565, 421.614 706.750 C 422.467 709.087, 423.524 711, 423.962 711 C 425.544 711, 462.522 697.867, 463.402 696.993 C 463.936 696.462, 463.166 692.924, 461.509 688.298 C 454.990 670.107, 441.067 634.973, 432.393 614.824 L 423.061 593.148 428.055 582.480 C 444.392 547.582, 460.439 500.088, 474.864 443.939 C 480.280 422.855, 491.147 374.399, 495.677 351.128 L 498.475 336.756 533.988 337.294 C 568.997 337.823, 579.315 338.501, 600 341.626 C 651.052 349.341, 690.352 367.293, 719 395.983 C 733.035 410.039, 741.217 421.429, 749.542 438.500 C 762.932 465.956, 767.768 487.587, 768.656 524 C 769.256 548.610, 768.091 564.385, 764.208 584.232 L 762.500 592.964 754 587.818 C 749.325 584.988, 739.650 579.848, 732.500 576.396 C 658.468 540.650, 586.908 553.137, 531.156 611.532 C 504.615 639.330, 491.756 670.785, 493.353 704 C 494.990 738.032, 512.979 769.872, 541.152 788.601 C 574.054 810.474, 617.046 814.863, 660.894 800.825 C 707.665 785.850, 747.632 745.370, 777.500 682.722 C 781.350 674.647, 784.811 668.031, 785.192 668.020 C 786.019 667.996, 802.609 686.634, 810.542 696.500 C 819.692 707.878, 835.364 732.061, 841.792 744.720 C 873.234 806.644, 861.516 845.049, 805.738 862.879 C 800.369 864.596, 795.292 866, 794.457 866 C 793.621 866, 792.687 866.653, 792.381 867.451 C 791.880 868.756, 800.586 907.888, 801.611 908.934 C 802.900 910.253, 827.637 902.153, 839.900 896.397 C 876.603 879.169, 898.003 851.098, 902.019 814.915 C 906.294 776.396, 888.241 727.551, 851.671 678.691 C 838.079 660.532, 829.787 650.961, 814.162 635.399 L 800.728 622.019 804.296 605.760 C 811.428 573.263, 813.542 552.040, 812.688 521.500 C 812.018 497.527, 809.849 481.646, 804.428 461.027 C 782.281 376.792, 718.993 320.701, 624.500 301.557 C 597.187 296.023, 562.927 293, 527.529 293 L 506.369 293 509.677 272.750 C 514.863 241.007, 521.534 194.437, 525.899 159.500 C 530.287 124.377, 534.188 88.854, 533.708 88.375 C 533.540 88.207, 525.999 87.388, 516.951 86.557 C 507.903 85.725, 498.235 84.789, 495.466 84.477 L 490.432 83.910 488.147 105.705 M 433.500 344.598 C 403.679 350.185, 373.151 358.852, 347.156 369.114 C 333.403 374.544, 307 386.947, 307 387.979 C 307 388.345, 309.241 391.898, 311.981 395.874 C 327.333 418.160, 350.532 455.312, 366.698 483.500 C 373.898 496.055, 377.554 502.729, 393.756 532.898 L 398.266 541.296 400.671 535.398 C 414.580 501.290, 433.853 432.618, 446.951 370.500 C 449.734 357.300, 452.242 345.488, 452.525 344.250 C 452.979 342.260, 452.660 342.009, 449.769 342.082 C 447.971 342.127, 440.650 343.259, 433.500 344.598 M 255.344 420.263 C 200.772 461.731, 162.606 512.891, 143.637 570 C 134.743 596.780, 130.993 618.962, 131.008 644.711 C 131.039 695.944, 147.921 740.458, 171.779 752.215 C 177.765 755.165, 179.493 755.535, 188.733 755.841 C 197.483 756.132, 200.403 755.791, 208.261 753.563 C 245.697 742.948, 291.817 705.311, 334.550 650.500 C 343.433 639.106, 365.347 606.742, 370.871 596.857 L 374.025 591.214 362.557 568.357 C 343.314 530.004, 321.928 492.051, 299.527 456.500 C 288.222 438.560, 269.452 411.002, 268.546 411.013 C 267.971 411.021, 262.030 415.183, 255.344 420.263 M 635.585 601.107 C 619.914 603.392, 600.874 611.148, 586.294 621.185 C 576.813 627.712, 560.411 643.255, 553.780 651.996 C 534.177 677.841, 531.652 709.081, 547.181 733.669 C 554.989 746.032, 567.905 755.641, 584.054 761.100 C 592.121 763.827, 595.348 764.364, 606.153 764.776 C 654.184 766.608, 690.447 743.952, 722.929 691.819 C 732.662 676.196, 749.018 642.303, 748.993 637.807 C 748.989 637.088, 744.376 633.510, 738.743 629.857 C 703.117 606.750, 666.625 596.579, 635.585 601.107 " stroke="none" fill="black" fill-rule="evenodd"/>
</svg>