<svg xmlns="http://www.w3.org/2000/svg" width="1000" height="1000" viewBox="0 0 1000 1000" version="1.1">
	<path d="M 269 97.876 L 248.500 100.500 248.745 103.500 C 248.879 105.150, 249.437 111.225, 249.985 117 C 251.834 136.517, 253.928 170.352, 255.092 199.500 C 256.410 232.510, 255.901 328.499, 254.401 329.999 C 252.900 331.500, 230.614 336.754, 218 338.581 C 204.360 340.556, 177.637 340.027, 166.782 337.567 C 154.905 334.875, 144.109 330.824, 135.207 325.719 L 126.522 320.740 112.739 335.120 C 105.158 343.029, 98.533 350.226, 98.016 351.112 C 95.998 354.577, 118.921 368.153, 138.057 374.824 C 168.429 385.413, 207.550 386.722, 244.239 378.377 C 248.035 377.514, 251.375 377.042, 251.661 377.327 C 253.004 378.671, 246.159 443.184, 240.872 479 C 227.929 566.688, 204.645 649.963, 175.585 712.500 L 170.009 724.500 188.754 733.746 C 199.064 738.831, 207.997 742.993, 208.605 742.996 C 210.465 743.003, 223.519 713.668, 233.823 686.326 C 266.101 600.676, 286.559 500.146, 295.544 383.026 C 296.408 371.765, 297.202 362.499, 297.307 362.434 C 299.597 361.035, 352.885 341.162, 360.065 339.029 C 380.118 333.071, 394.114 333.066, 408.342 339.009 C 425.250 346.072, 432.110 355.508, 438.505 380.500 C 453.204 437.948, 445.164 545.052, 419.361 635.500 C 405.755 683.194, 389.366 718.439, 350.539 783.500 C 335.022 809.500, 310.802 848, 309.961 848 C 309.012 848, 305.971 841.159, 302.860 832.024 C 295.053 809.099, 292.349 776.664, 295.101 738.955 C 295.706 730.657, 295.977 723.643, 295.702 723.369 C 295.218 722.885, 253.693 717.976, 253.310 718.357 C 252.650 719.015, 250.873 742.276, 250.359 757 C 248.887 799.098, 255.910 839.070, 269.521 866.068 C 273.883 874.720, 281.864 885.680, 287.523 890.788 C 292.011 894.839, 318.343 910, 320.890 910 C 321.372 910, 329.856 897.738, 339.744 882.750 C 389.871 806.773, 428.593 738.259, 444.726 697 C 467.192 639.544, 482.329 569.417, 488.111 496 C 489.904 473.242, 489.654 427.837, 487.634 409.300 C 480.470 343.567, 462.249 312.489, 422 297.352 C 407.861 292.035, 398.795 290.659, 382.057 291.288 C 362.811 292.012, 345.602 296.407, 316.377 308.061 C 312.045 309.789, 306.453 312.014, 303.952 313.007 L 299.403 314.812 299.819 276.656 C 300.402 223.276, 297.890 158.361, 293.470 112.500 C 292.674 104.250, 292.018 96.938, 292.012 96.250 C 292.005 95.563, 291.438 95.057, 290.750 95.126 C 290.063 95.195, 280.275 96.432, 269 97.876 M 774.500 295.493 C 719.670 303.201, 678.322 328.346, 649.519 371.500 C 645.480 377.550, 640.236 386.438, 637.865 391.250 C 635.494 396.063, 633.317 399.989, 633.027 399.976 C 632.737 399.963, 630.715 395.365, 628.533 389.758 C 614.951 354.849, 584.999 322.925, 548.852 304.829 C 543.364 302.082, 538.340 300.041, 537.687 300.294 C 536.753 300.656, 523 337.920, 523 340.090 C 523 340.387, 526.820 342.594, 531.490 344.995 C 554.679 356.916, 575.636 378.781, 586.581 402.469 C 590.928 411.878, 595.993 429.416, 599.900 448.589 C 606.830 482.604, 607.993 508.993, 603.527 530.888 C 602.137 537.701, 601 543.828, 601 544.504 C 601 545.406, 605.733 545.908, 618.750 546.390 C 628.513 546.751, 640.408 547.317, 645.185 547.647 L 653.871 548.248 653.311 526.374 C 652.875 509.365, 653.126 501.275, 654.436 490 C 660.675 436.326, 679.743 394.154, 709.060 369.188 C 733.059 348.751, 764.403 337.899, 799.500 337.876 C 818.010 337.864, 828.481 341.415, 838.075 350.956 C 859.148 371.913, 862.451 419.776, 847.013 480.500 C 839.305 510.822, 829.563 536.696, 813.504 569.500 C 791.685 614.070, 766.042 651.495, 736.504 681.875 C 715.598 703.377, 694.854 719.520, 675.852 729.075 C 671.533 731.246, 668 733.393, 668 733.845 C 668 734.701, 684.749 772.083, 685.444 772.777 C 686.206 773.539, 706.522 762.530, 716.455 755.972 C 732.931 745.095, 746.544 733.684, 764.004 716.111 C 788.251 691.706, 808.865 665.339, 827.487 634.907 C 889.283 533.921, 914.955 423.300, 891.910 357.312 C 881.119 326.412, 859.218 305.421, 829.421 297.418 C 820.836 295.112, 817.143 294.708, 802 294.420 C 790.602 294.203, 781.013 294.577, 774.500 295.493 " stroke="none" fill="black" fill-rule="evenodd"/>
</svg>