<svg xmlns="http://www.w3.org/2000/svg" width="1000" height="1000" viewBox="0 0 1000 1000" version="1.1">
	<path d="M 806.974 108.965 C 788.055 116.102, 745.821 123.052, 703 126.076 C 666.396 128.661, 627.420 123.598, 599 112.567 C 593.775 110.539, 588.825 108.681, 588 108.437 C 586.930 108.122, 583.631 113.033, 576.500 125.555 C 571 135.213, 566.355 143.761, 566.178 144.550 C 565.780 146.326, 577 151.574, 591.879 156.570 C 637.252 171.806, 688.486 174.223, 757.329 164.375 C 767.135 162.973, 775.319 161.986, 775.516 162.183 C 775.713 162.380, 732.703 218.971, 679.937 287.941 C 627.172 356.912, 584 413.656, 584 414.039 C 584 414.575, 603.038 431.133, 618.034 443.640 C 619.335 444.725, 621.237 443.622, 630.534 436.391 C 683.053 395.542, 741.869 368, 776.582 368 C 786.242 368, 793.236 369.551, 800.252 373.249 C 807.915 377.288, 813.323 383.384, 818.048 393.308 C 832.195 423.023, 828.431 456.802, 806.826 494 C 786.420 529.136, 756.276 562.002, 693.500 617.561 C 683.050 626.810, 668.200 640.054, 660.500 646.991 C 652.800 653.929, 637.327 667.642, 626.116 677.464 C 575.935 721.431, 555.937 743.292, 543.754 767.500 C 523.999 806.753, 539.419 840.645, 585.402 859.039 C 649.341 884.615, 766.969 885.372, 880.450 860.937 C 888.122 859.285, 894.565 857.768, 894.767 857.566 C 894.969 857.365, 892.686 847.817, 889.694 836.350 C 886.055 822.404, 883.845 815.595, 883.018 815.786 C 882.338 815.944, 872.944 817.834, 862.141 819.987 C 787.607 834.842, 713.574 838.963, 657 831.406 C 620.166 826.485, 591.739 817.095, 582.407 806.765 C 578.981 802.973, 578.790 802.418, 579.335 797.817 C 580.959 784.107, 598.399 761.533, 629.106 733.394 C 637.573 725.636, 654.435 710.561, 666.577 699.894 C 786.637 594.425, 818.241 561.709, 845.189 515 C 861.398 486.903, 868.748 463.034, 869.667 435.500 C 870.284 416.983, 868.871 405.903, 863.894 390.263 C 849.117 343.821, 813.454 320.086, 765.584 324.835 C 753.026 326.080, 739.336 329.026, 726 333.351 C 717.080 336.245, 699.392 343.249, 693.793 346.106 C 691.600 347.224, 689.692 347.996, 689.552 347.820 C 689.412 347.644, 725.906 299.664, 770.649 241.198 C 815.392 182.731, 851.974 134.581, 851.942 134.198 C 851.832 132.874, 818.143 106.500, 816.324 106.313 C 815.321 106.210, 811.114 107.403, 806.974 108.965 M 154.500 156.208 C 144.600 157.845, 136.382 159.299, 136.238 159.438 C 136.093 159.577, 137.131 163.698, 138.545 168.596 C 149.232 205.638, 174.918 234.678, 208.651 247.856 C 226.094 254.670, 239.971 257.097, 261.500 257.097 C 290.802 257.098, 318.266 251.495, 354.625 238.099 C 360.744 235.845, 366.020 234, 366.349 234 C 366.678 234, 364.190 237.938, 360.822 242.750 C 333.268 282.110, 300.028 334.750, 278.177 373.626 C 248.883 425.744, 204.237 522.447, 160.453 628.614 C 145.331 665.280, 119.997 729.029, 120.014 730.371 C 120.025 731.208, 155.530 745.588, 159.532 746.376 C 159.877 746.444, 167.253 728.725, 175.923 707 C 200.593 645.183, 202.895 639.820, 206.347 636.120 C 210.743 631.408, 217.877 627, 221.107 627 C 229.088 627, 239.223 651.250, 244.931 684 C 248.489 704.416, 251.971 741.302, 252.011 759 C 252.022 763.675, 252.361 767.981, 252.765 768.569 C 253.816 770.096, 295.127 772.413, 296.004 770.993 C 296.368 770.405, 297.221 766.228, 297.899 761.711 C 300.178 746.526, 309.167 705.663, 314.565 685.942 C 326.232 643.321, 338.714 613.743, 350.072 601.804 L 354.040 597.633 358.147 601.566 C 370.356 613.258, 384.221 642.897, 399.051 689 C 403.031 701.375, 406.391 711.630, 406.517 711.789 C 406.715 712.040, 452.195 703.979, 452.683 703.607 C 452.784 703.530, 454.284 696.950, 456.018 688.984 C 479.977 578.903, 513.005 464.510, 532.044 425.666 C 534.219 421.229, 535.662 417.272, 535.249 416.873 C 534.506 416.153, 507.256 400.735, 501.110 397.557 L 497.910 395.902 492.069 408.201 C 484.031 425.129, 480.146 435.272, 469.930 466 C 457.063 504.704, 440.418 564.286, 428.458 614.448 C 425.256 627.881, 424.503 630.010, 423.685 627.948 C 420.361 619.576, 407.325 594.232, 402.878 587.500 C 387.385 564.046, 366.959 552.044, 347.750 555.108 C 322.911 559.070, 302.260 584.667, 285.511 632.250 C 283.430 638.163, 281.427 643, 281.061 643 C 280.694 643, 279.369 639.819, 278.117 635.931 C 269.667 609.694, 253.112 590.282, 234.523 584.813 L 227.240 582.670 228.728 579.085 C 229.546 577.113, 236.276 561.817, 243.683 545.093 C 282.905 456.529, 309.912 403.345, 342.496 350.500 C 370.830 304.548, 408.970 248.733, 444.193 201.674 L 456.039 185.847 452.770 181.985 C 443.636 171.194, 428.428 154.116, 427.904 154.062 C 427.577 154.028, 421.727 157.168, 414.904 161.040 C 348.120 198.942, 289.521 217.410, 249.700 213.104 C 219.695 209.860, 198.668 196.011, 186.529 171.500 C 184.077 166.550, 181.512 160.363, 180.828 157.750 C 179.631 153.174, 179.455 153.004, 176.043 153.116 C 174.094 153.179, 164.400 154.571, 154.500 156.208 " stroke="none" fill="black" fill-rule="evenodd"/>
</svg>