<svg xmlns="http://www.w3.org/2000/svg" width="1000" height="1000" viewBox="0 0 1000 1000" version="1.1">
	<path d="M 188 103.865 C 188 104.313, 186.448 114.539, 184.552 126.590 C 165.417 248.192, 150.329 371.650, 143.315 464 C 140.863 496.295, 140.852 570.638, 143.295 599 C 148.746 662.262, 158.245 727.627, 171.418 792.500 C 176.735 818.689, 186.669 862.002, 187.562 862.896 C 188.114 863.447, 188.380 863.303, 212 849.659 L 231.500 838.395 232.221 828.947 C 234.172 803.400, 239.561 767.604, 246.138 736.500 C 259.001 675.675, 277.540 620.041, 301.591 570.089 C 305.672 561.613, 308.763 554.430, 308.459 554.126 C 308.155 553.822, 299.715 549.220, 289.703 543.900 L 271.500 534.227 269.785 536.364 C 267.279 539.487, 251.721 573.043, 244.455 591 C 228.992 629.213, 213.936 677.976, 205.458 717.304 C 204.532 721.597, 203.631 724.964, 203.455 724.788 C 202.802 724.135, 195.941 677.696, 193.062 654.436 C 184.276 583.466, 182.573 530.969, 187.015 468 C 192.796 386.029, 207.644 263.360, 226.631 140.705 C 229.167 124.317, 231.062 110.729, 230.841 110.508 C 230.621 110.287, 222.128 108.736, 211.970 107.061 C 201.811 105.386, 192.262 103.799, 190.750 103.533 C 189.238 103.267, 188 103.417, 188 103.865 M 771 162.155 C 712.542 179.177, 648.042 191.525, 604.500 194.031 C 567.306 196.172, 500.195 190.894, 440 181.094 C 430.375 179.527, 422.364 178.363, 422.199 178.507 C 421.413 179.191, 414.276 220.581, 414.847 221.145 C 416.530 222.806, 482.174 231.630, 518.500 235.077 C 550.242 238.089, 601.791 238.821, 624 236.575 C 652.205 233.723, 690.994 227.064, 725.741 219.108 C 731.094 217.882, 733.740 217.620, 733.293 218.360 C 728.420 226.430, 672.823 305.628, 648.604 339 C 600.605 405.139, 569.055 444.568, 540.982 473.500 C 509.454 505.993, 476.209 543.899, 427.417 602.987 C 402.176 633.556, 356.953 690.372, 357.245 691.150 C 357.385 691.524, 367.128 698.874, 378.896 707.484 C 396.160 720.114, 400.520 722.882, 401.476 721.818 C 402.127 721.093, 406.732 715.775, 411.709 710 C 445.087 671.270, 485.949 641.480, 516.182 633.835 C 527.896 630.872, 541.207 631.519, 549.388 635.448 C 566.602 643.716, 592.612 681.432, 612.008 726.250 C 614.050 730.969, 615.947 734, 616.858 734 C 617.680 734, 626.768 732.350, 637.052 730.334 L 655.749 726.668 662.325 718.084 C 675.005 701.531, 697.397 678.748, 714.016 665.487 C 734.972 648.767, 756.682 637.502, 774.784 633.957 C 783.089 632.331, 796.847 633.242, 804.500 635.927 C 811.824 638.496, 822.906 645.877, 826.485 650.569 C 835.375 662.225, 835.547 677.273, 827.026 697.938 C 807.436 745.444, 735.933 814.438, 657.500 861.515 C 650.350 865.807, 643.885 869.878, 643.132 870.562 C 641.995 871.597, 643.392 874.664, 651.436 888.785 C 656.755 898.124, 661.647 906.503, 662.307 907.406 C 663.377 908.868, 664.954 908.177, 676.774 901.062 C 773.815 842.647, 851.071 764.642, 871.104 704.850 C 882.436 671.024, 877.600 641.560, 857.147 619.818 C 847.958 610.051, 840.079 604.332, 827.791 598.511 C 813.848 591.906, 803.418 589.615, 787 589.552 C 766.461 589.473, 751.588 593.183, 729.500 603.895 C 705.168 615.696, 684.014 631.743, 656.625 659.178 C 646.245 669.576, 637.649 677.953, 637.524 677.792 C 637.399 677.631, 634.471 672.550, 631.019 666.500 C 605.309 621.453, 582.545 598.855, 554.961 590.999 C 538.898 586.424, 517.573 587.349, 498.345 593.455 C 494.305 594.738, 491 595.558, 491 595.278 C 491 594.720, 519.935 561.018, 535.453 543.500 C 540.813 537.450, 555.455 521.700, 567.992 508.500 C 602.082 472.608, 617.563 453.930, 657.509 400.500 C 696.697 348.085, 766.240 249.271, 799.497 198.751 L 803.281 193.003 795.391 175.507 C 790.071 163.713, 787.011 158.046, 786 158.118 C 785.175 158.177, 778.425 159.993, 771 162.155 " stroke="none" fill="black" fill-rule="evenodd"/>
</svg>