<svg xmlns="http://www.w3.org/2000/svg" width="1000" height="1000" viewBox="0 0 1000 1000" version="1.1">
	<path d="M 166.469 105.304 C 165.954 106.748, 159.393 186.048, 154.539 249.500 C 145.978 361.404, 140.912 442.654, 135.958 547.500 C 134.192 584.887, 133.564 677.125, 134.934 697.913 C 136.925 728.116, 140.642 747.938, 149.014 773 C 159.947 805.732, 174.190 831.511, 192.357 851.451 L 198.690 858.402 215.095 857.129 C 224.118 856.428, 233.188 855.605, 235.250 855.300 L 239 854.744 239.001 843.622 C 239.002 819.327, 242.175 777.832, 245.587 757.500 C 249.354 735.046, 258.454 701.446, 271.132 663.178 C 275.563 649.801, 278.959 638.626, 278.678 638.345 C 278.397 638.064, 269.467 634.549, 258.833 630.536 C 243.084 624.591, 239.299 623.487, 238.417 624.582 C 236.693 626.721, 222.669 669.506, 216.121 692.604 C 206.887 725.177, 199.144 763.270, 198.965 777 L 198.920 780.500 197.580 778 C 195.123 773.417, 189.011 755.338, 186.035 743.850 C 179.168 717.343, 177.795 700.718, 177.831 644.500 C 177.895 543.352, 188.267 364.933, 206.953 143.536 C 208.577 124.305, 209.808 108.475, 209.690 108.356 C 209.572 108.238, 201.381 107.429, 191.487 106.558 C 181.594 105.687, 172.014 104.780, 170.198 104.542 C 168.187 104.278, 166.729 104.577, 166.469 105.304 M 448.581 131.117 C 438.726 132.705, 430.416 134.250, 430.116 134.550 C 429.816 134.850, 431.509 148.462, 433.878 164.798 C 440.532 210.687, 445.565 247.891, 450.461 287.371 C 452.925 307.242, 455.178 325.144, 455.467 327.154 L 455.993 330.809 451.747 330.324 C 424.022 327.160, 386.945 316.733, 346.689 300.780 C 336.587 296.776, 328.527 294.106, 328.066 294.611 C 327.075 295.695, 311 331.646, 311 332.778 C 311 334.058, 348.428 348.639, 369.380 355.521 C 400.936 365.886, 427.790 372.024, 450.033 373.956 C 455.608 374.440, 460.320 374.986, 460.503 375.170 C 461.021 375.688, 465.785 428.835, 467.658 455 C 468.805 471.016, 469.366 491.875, 469.420 520.500 L 469.500 562.500 465.732 568.500 C 452.117 590.182, 429.020 611.618, 399 630.433 C 377.640 643.820, 342.004 660.663, 315.424 669.935 L 303.347 674.148 309.354 694.824 C 312.657 706.196, 315.425 715.608, 315.504 715.741 C 315.777 716.196, 338.516 708.266, 350.500 703.535 C 368.319 696.502, 404.603 678.376, 420.208 668.711 C 434.624 659.784, 452.856 646.534, 461.828 638.466 L 467.156 633.675 466.550 644.087 C 466.217 649.814, 465.278 667.550, 464.464 683.500 C 462.975 712.689, 458.180 792.778, 457.700 796.500 C 457.546 797.690, 453.711 791.161, 448.235 780.389 C 438.861 761.946, 424.408 739.274, 407.190 716 C 402.103 709.125, 397.521 703.500, 397.008 703.500 C 396.101 703.500, 363 728.943, 363 729.640 C 363 729.831, 367.115 735.503, 372.144 742.244 C 383.207 757.074, 400.203 782.732, 405.763 793 C 411.895 804.322, 428.578 840.654, 439.514 866.500 C 444.867 879.150, 449.422 889.694, 449.638 889.931 C 450.334 890.698, 495.219 877.599, 495.555 876.532 C 495.894 875.456, 499.942 820.486, 502.479 782.500 C 506.408 723.688, 509.966 656.033, 512.020 601.110 L 513.082 572.720 521.247 558.610 C 536.809 531.716, 565.715 486.183, 593.371 445 C 600.943 433.725, 607.219 424.191, 607.319 423.814 C 607.484 423.188, 574.862 400.293, 572.477 399.360 C 571.538 398.993, 540.098 445.495, 521.431 474.860 C 517.109 481.658, 513.477 486.833, 513.359 486.360 C 513.241 485.887, 512.642 476.500, 512.028 465.500 C 510.718 442.013, 508.697 416.289, 505.984 388.566 C 504.911 377.603, 504.139 368.581, 504.267 368.517 C 504.395 368.453, 510.422 366.476, 517.661 364.123 C 539.691 356.964, 567.939 343.901, 585.871 332.581 L 590.036 329.952 577.956 311.976 C 571.313 302.089, 565.717 294, 565.521 294 C 565.325 294, 561.730 296.031, 557.532 298.513 C 547.637 304.363, 538.751 308.817, 526.709 313.961 C 516.149 318.473, 499.954 324.287, 499.423 323.757 C 499.242 323.575, 497.490 310.393, 495.530 294.463 C 490.939 257.156, 482.004 190.891, 476.956 156.721 C 474.780 141.993, 473 129.506, 473 128.971 C 473 127.523, 468.354 127.931, 448.581 131.117 M 794.500 158.927 C 769.898 165.181, 751.318 176.749, 707 213.409 C 689.227 228.111, 651.353 260.619, 650.625 261.798 C 650.202 262.482, 669.250 285.301, 676.889 293.262 C 678.492 294.933, 679.425 294.294, 695.040 280.828 C 765.452 220.102, 790.540 202.438, 808.644 200.840 L 812.500 200.500 812.388 210 C 812.260 220.983, 809.793 231.570, 802.136 254 C 787.908 295.682, 762.299 350.464, 732.365 403.252 C 727.764 411.366, 724 418.594, 724 419.315 C 724 420.035, 725.283 424.422, 726.850 429.062 C 734.980 453.127, 744.412 505.915, 746.630 539.761 L 747.272 549.561 737.423 550.805 C 667.476 559.639, 606.454 594.863, 585.500 638.500 C 570.906 668.890, 575.266 698.950, 600.291 740.500 C 610.241 757.020, 639.223 799.832, 649.083 812.576 C 665.815 834.201, 694.524 866.608, 711.829 883.404 C 717.885 889.282, 715.284 890.510, 737.455 871.314 L 753.410 857.500 755.688 848.500 C 763.581 817.311, 773.513 768.936, 779.915 730.500 C 787.735 683.551, 790.422 658.685, 792.070 618.012 C 792.660 603.443, 793.351 591.316, 793.604 591.062 C 794.503 590.163, 834.735 592.984, 849.839 595.005 C 862.644 596.718, 883.191 600.250, 894.081 602.609 L 896.663 603.169 902.138 582.334 C 905.150 570.875, 907.509 561.346, 907.382 561.158 C 906.993 560.585, 891.204 557.238, 878.500 555.035 C 858.502 551.568, 836.504 549.154, 813.308 547.882 L 791.271 546.674 790.102 533.587 C 786.870 497.405, 780.084 456.676, 772.952 430.659 L 771.077 423.817 779.681 408.159 C 790.783 387.955, 813.796 341.591, 821.950 323 C 844.704 271.121, 857 230.729, 857 207.858 C 857 176.330, 839.213 156.844, 810.645 157.074 C 805.415 157.116, 798.503 157.909, 794.500 158.927 M 739.500 594.667 C 697.757 600.646, 661.269 616.929, 638.065 639.935 C 618.201 659.630, 616.171 675.707, 630.006 703.766 C 636.609 717.158, 672.462 771.656, 686.208 789.195 C 695.773 801.399, 715.177 824, 716.090 824 C 716.861 824, 725.800 783.400, 730.401 759 C 737.531 721.190, 742.818 686.775, 745.456 661 C 747.120 644.748, 749.353 602.415, 748.836 596.939 L 748.500 593.378 739.500 594.667 " stroke="none" fill="black" fill-rule="evenodd"/>
</svg>