<svg xmlns="http://www.w3.org/2000/svg" width="1000" height="1000" viewBox="0 0 1000 1000" version="1.1">
	<path d="M 430.500 89.998 C 420.600 95.463, 412.050 100.099, 411.500 100.301 C 410.950 100.502, 414.413 108.730, 419.195 118.584 C 446.258 174.348, 470.846 241.136, 487.824 305 C 493.321 325.678, 497.375 342.962, 496.848 343.479 C 495.712 344.595, 334.802 351.473, 251 353.988 C 231.475 354.574, 211.338 355.308, 206.250 355.620 L 197 356.187 197.074 373.843 C 197.115 383.554, 197.452 393.300, 197.824 395.500 L 198.500 399.500 237.500 398.314 C 280.157 397.018, 348.363 394.536, 384.500 392.966 C 424.525 391.227, 473.946 388.919, 490 388.038 C 498.525 387.570, 505.630 387.313, 505.788 387.465 C 506.448 388.101, 511.075 419.821, 512.939 436.500 C 515.243 457.109, 518.497 498.689, 519.981 526.500 C 521.229 549.876, 521.322 598, 520.119 598 C 519.635 598, 516.304 596.895, 512.717 595.545 C 502.196 591.586, 474.241 583.331, 455.178 578.556 C 423.854 570.709, 392.407 565.359, 363.349 562.934 C 342.353 561.182, 297.204 562.217, 280.336 564.838 C 211.933 575.464, 162.475 605.367, 128.729 656.500 C 116.973 674.313, 105.417 700.376, 99.990 721.316 C 95.204 739.785, 93.668 753.245, 94.320 771 C 94.949 788.136, 96.940 799.091, 102.042 813.500 C 117.436 856.974, 155.648 889.526, 203.530 899.955 C 248.439 909.736, 296.045 899.082, 334.353 870.678 C 344.339 863.274, 360.233 847.965, 368.280 838 C 374.209 830.658, 388.014 810.449, 387.985 809.155 C 387.977 808.795, 381.790 804.999, 374.235 800.720 C 366.681 796.442, 358.193 791.599, 355.374 789.959 L 350.247 786.978 346.615 793.074 C 333.910 814.403, 313.669 834.041, 292.690 845.392 C 238.338 874.802, 171.012 857.295, 146.966 807.500 C 139.919 792.907, 138.500 785.946, 138.503 766 C 138.507 741.083, 142.122 726.210, 154.427 700.467 C 171.396 664.966, 194.242 641.776, 228.314 625.465 C 252.253 614.005, 276.012 608.361, 310.500 605.940 C 370.640 601.718, 458.686 619.065, 530.290 649.243 C 540.140 653.394, 547.429 655.943, 547.925 655.410 C 550.505 652.629, 561.429 625.560, 562.820 618.500 C 564.824 608.325, 565.056 539.874, 563.181 512 C 559.810 461.900, 556.710 429.746, 552.528 401.504 C 551.225 392.706, 550.311 385.356, 550.496 385.171 C 550.681 384.986, 567.857 383.757, 588.666 382.439 C 670.349 377.267, 731.939 371.854, 777.500 365.843 C 786.300 364.682, 793.796 363.455, 794.158 363.116 C 794.809 362.506, 788.792 321.413, 787.941 320.658 C 787.699 320.443, 779.850 321.306, 770.500 322.577 C 745.984 325.908, 698.415 330.540, 653.500 333.969 C 611.039 337.210, 553.037 341, 545.886 341 L 541.400 341 540.135 334.750 C 537.923 323.823, 529.060 289.114, 523.897 271.156 C 510.122 223.253, 491.381 171.911, 470.730 125.500 C 463.134 108.430, 449.363 79.951, 448.743 80.031 C 448.609 80.048, 440.400 84.534, 430.500 89.998 M 688 647.354 C 688 650.307, 692.028 687.362, 692.389 687.722 C 692.534 687.868, 698.019 688.208, 704.577 688.479 C 760.599 690.790, 808.988 719.469, 838.053 767.588 C 849.859 787.134, 861.289 815.734, 867.081 840.221 C 869.157 849.001, 869.579 849.898, 871.440 849.477 C 872.573 849.221, 882.019 847.202, 892.432 844.990 C 902.845 842.779, 911.552 840.781, 911.783 840.551 C 912.494 839.840, 906.062 815.391, 901.848 802.786 C 882.414 744.662, 850.066 701.273, 806.313 674.642 C 774.680 655.388, 738.110 645, 701.966 645 L 688 645 688 647.354 " stroke="none" fill="black" fill-rule="evenodd"/>
</svg>