<svg xmlns="http://www.w3.org/2000/svg" width="1000" height="1000" viewBox="0 0 1000 1000" version="1.1">
	<path d="M 370 81.485 C 355.047 84.469, 336.039 94.322, 322.934 105.882 C 300.243 125.900, 279.239 161.476, 262.053 209 C 259.169 216.975, 256.663 223.652, 256.484 223.837 C 255.944 224.397, 245.171 222.048, 233.500 218.825 C 204.419 210.795, 166.436 192.991, 138 174.061 C 133.325 170.949, 128.989 168.092, 128.364 167.713 C 127.664 167.287, 122.211 173.710, 114.122 184.488 L 101.015 201.952 113.758 210.353 C 152.089 235.624, 197.847 256.128, 233.750 264.120 C 239.986 265.509, 244 266.886, 244 267.637 C 244 268.317, 242.691 274.414, 241.092 281.186 C 237.535 296.248, 232.573 321.091, 230.474 334.349 L 228.914 344.198 237.207 369.150 C 243.670 388.594, 245.831 394, 247 393.640 C 247.825 393.386, 255.250 390.025, 263.500 386.171 C 290.621 373.499, 312.788 367.528, 330.223 368.196 C 338.111 368.498, 340.468 368.959, 342.714 370.636 C 346.825 373.705, 347.600 377.733, 345.623 385.747 C 339.138 412.022, 304.230 458.858, 252.795 510.295 C 240.808 522.282, 231 532.316, 231 532.593 C 231 533.049, 254.090 572.217, 257.674 577.841 C 259.152 580.161, 259.444 579.907, 289.333 550.325 C 419.699 421.297, 529.494 329.714, 574.606 312.368 C 580.233 310.205, 583.247 309.703, 591 309.640 C 599.264 309.573, 601.243 309.907, 606.213 312.209 C 613.877 315.759, 618.240 319.329, 623.673 326.493 C 633.497 339.450, 640.114 356.951, 642.957 377.500 C 643.565 381.900, 644.285 386.521, 644.555 387.768 L 645.047 390.036 668.718 389.768 L 692.389 389.500 697.528 375 C 718.827 314.905, 754.004 267.183, 783.783 257.985 C 798.537 253.428, 816.821 256.908, 829.700 266.722 C 833.687 269.761, 837 276.432, 837 281.421 C 837 311.843, 789.117 368.952, 712.004 430.500 C 664.991 468.024, 621.825 497.305, 561.954 532.284 C 485.550 576.922, 412.363 625.381, 327 687.853 C 302.793 705.569, 264 735.007, 264 735.661 C 264 735.881, 270.819 743.359, 279.153 752.280 C 287.487 761.201, 294.801 769.048, 295.407 769.718 C 296.248 770.649, 299.684 768.469, 310.004 760.455 C 336.974 739.512, 371.200 715.282, 403.910 693.975 C 503.659 629, 594.345 586.146, 659.901 573.007 C 680.384 568.901, 690.264 567.824, 707.500 567.815 C 736.336 567.801, 756.124 573.650, 773.662 587.373 C 786.319 597.276, 795.673 612.523, 800.195 630.623 C 803.398 643.442, 803.382 667.766, 800.159 683.900 C 793.642 716.530, 776.373 751.984, 752.377 782 C 742.412 794.464, 721.169 815.216, 707.988 825.360 C 668.675 855.616, 625.501 873.600, 575.500 880.548 C 561.258 882.526, 534.045 882.785, 522.500 881.051 C 483.587 875.207, 455.667 856.701, 446.991 831 C 443.920 821.904, 444.466 808.770, 448.217 801.480 C 453.398 791.413, 464.954 783.358, 480 779.326 C 488.894 776.942, 513.975 776.900, 526.500 779.248 C 550.179 783.686, 573.007 791.618, 600.926 805.110 C 609.961 809.475, 617.658 812.699, 618.031 812.274 C 620.132 809.879, 637.874 775.605, 637.405 774.847 C 636.630 773.593, 617.913 764.300, 603.855 758.189 C 565.187 741.380, 533.332 733.713, 502 733.673 C 469.291 733.632, 445.252 741.836, 426.086 759.581 C 394.009 789.278, 392.612 838.345, 422.770 876.038 C 433.049 888.884, 445.586 898.898, 462 907.372 C 477.556 915.403, 493.135 920.432, 514 924.160 C 525.664 926.244, 569.390 925.928, 584 923.654 C 655.156 912.579, 715.431 882.558, 764.001 834 C 811.785 786.227, 840.915 727.897, 846.109 669.587 C 848.953 637.657, 841.280 604.245, 825.535 580 C 818.725 569.514, 800.591 551.870, 789.715 545.149 C 757.394 525.176, 714.281 519.068, 665 527.481 C 648.468 530.303, 649.295 530.224, 651.350 528.790 C 652.367 528.081, 661.367 521.864, 671.350 514.976 C 726.340 477.032, 767.124 443.957, 804.896 406.672 C 867.081 345.287, 890.321 298.161, 877.041 260.376 C 870.661 242.224, 853.012 226.281, 830.073 217.946 C 804.693 208.725, 779.742 210.177, 756.137 222.249 C 727.926 236.676, 700.393 267.892, 677.681 311.198 L 672.092 321.856 668.402 315.178 C 656.814 294.205, 639.725 278.281, 621.092 271.096 C 609.910 266.783, 601.744 265.643, 586.566 266.273 C 572.625 266.851, 565.930 268.413, 552.500 274.219 C 521.653 287.554, 467.244 327.638, 401 385.830 C 394.125 391.870, 388.413 396.729, 388.306 396.628 C 388.200 396.528, 388.573 394.433, 389.136 391.973 C 390.641 385.400, 390.606 372.300, 389.068 366 C 384.899 348.934, 371.785 334.418, 354.928 328.213 C 337.851 321.926, 312.751 323.055, 283.916 331.407 C 279.292 332.746, 275.360 333.693, 275.177 333.511 C 274.694 333.027, 280.614 303.894, 284.692 286.687 C 287.659 274.165, 288.534 271.751, 290.351 271.081 C 291.533 270.645, 297.675 269.987, 304 269.619 C 341.279 267.449, 411.006 257.583, 464.500 246.910 C 495.356 240.754, 497 240.323, 497 238.387 C 497 232.798, 492.575 202.169, 490.877 196 C 487.120 182.355, 478.904 161.706, 471.382 147 C 452.337 109.770, 427.974 87.341, 400.183 81.451 C 392.033 79.724, 378.752 79.739, 370 81.485 M 374.447 125.403 C 365.469 128.215, 357.502 133.455, 348.485 142.479 C 337.948 153.024, 330.699 163.512, 321.114 182.083 C 314.711 194.488, 303 222.126, 303 224.830 C 303 226.320, 301.151 226.418, 328.780 223.465 C 363.491 219.756, 401.582 214.176, 441.743 206.917 C 449.075 205.592, 449.007 206.730, 442.767 190 C 431.035 158.544, 414.620 134.963, 399.033 127.175 C 393.619 124.469, 391.633 124.010, 385.590 124.067 C 381.691 124.104, 376.676 124.705, 374.447 125.403 " stroke="none" fill="black" fill-rule="evenodd"/>
</svg>