<svg xmlns="http://www.w3.org/2000/svg" width="1000" height="1000" viewBox="0 0 1000 1000" version="1.1">
	<path d="M 300.574 73.119 C 289.615 75.263, 280.530 77.136, 280.385 77.281 C 280.240 77.427, 281.649 86.535, 283.515 97.523 C 287.183 119.108, 295 171.884, 295 175.055 C 295 176.862, 294.231 177, 284.174 177 C 254.697 177, 218.817 170.038, 193.008 159.310 C 188.329 157.365, 183.981 155.568, 183.346 155.317 C 182.431 154.954, 169.145 177.104, 162.081 190.771 C 160.966 192.928, 161.250 193.196, 167.704 196.097 C 202.145 211.580, 238.234 219.401, 281.250 220.703 C 292.113 221.032, 301.003 221.571, 301.006 221.901 C 301.009 222.230, 302.133 232.939, 303.504 245.698 C 309.975 305.936, 315.346 386.256, 316.162 434.992 L 316.404 449.484 309.452 455.351 C 284.297 476.577, 241.203 507.849, 217.561 522.033 L 213.623 524.396 223.946 504.448 C 235.487 482.147, 248.733 458.297, 262.662 434.742 C 273.405 416.573, 276.833 409.991, 280.954 399.615 C 294.988 364.287, 288.500 335.753, 263.689 323.680 C 254.599 319.257, 248.451 318, 235.909 318 C 219.179 318, 202.283 322.616, 183.771 332.245 C 148.420 350.633, 125.386 388.550, 122.353 433.345 L 121.687 443.190 143.093 442.471 C 154.867 442.075, 164.770 441.598, 165.099 441.410 C 165.429 441.222, 165.971 437.566, 166.304 433.284 C 166.637 429.003, 168.079 421.450, 169.508 416.500 C 176.661 391.730, 190.693 375.549, 212.500 366.921 C 226.513 361.377, 243.175 359.686, 244.697 363.653 C 245.495 365.732, 243.391 375.409, 240.492 383 C 237.813 390.013, 232.347 400.115, 218.735 423.213 C 199.295 456.200, 174.811 502.934, 160.994 533.427 L 152.871 551.355 160.586 572.927 C 164.829 584.792, 168.570 594.813, 168.900 595.195 C 169.608 596.016, 192.247 586.175, 206.500 578.850 C 234.761 564.327, 278.709 535.328, 312.574 508.858 L 323.905 500 342.453 500 L 361 500 361.074 484.250 L 361.149 468.500 369.741 461 C 411.207 424.804, 467.251 365.722, 509.904 313.239 L 518.243 302.979 515.871 301.100 C 514.567 300.067, 506.975 293.998, 499 287.613 C 491.025 281.229, 484.275 276.028, 484 276.055 C 483.725 276.083, 480.800 279.513, 477.500 283.678 C 453.443 314.040, 420.738 350.330, 387.088 384 L 359.604 411.500 358.348 386.500 C 356.796 355.622, 353.569 309.523, 350.962 281 C 348.566 254.789, 345.098 221.256, 344.488 218.407 C 344.084 216.518, 344.748 216.187, 351.270 215.028 C 371.031 211.515, 398.548 203.337, 420.980 194.311 C 433.477 189.282, 466.618 173.428, 467.452 172.078 C 467.802 171.512, 448.603 136.355, 447.026 134.676 C 446.601 134.224, 442.484 135.889, 437.876 138.377 C 420.329 147.855, 394.035 158.533, 373.577 164.490 C 361.470 168.015, 339.845 173.178, 339.333 172.666 C 339.182 172.516, 337.461 161.167, 335.506 147.446 C 331.816 121.539, 325.775 83.363, 323.925 74.250 C 323.335 71.348, 322.331 69.049, 321.679 69.110 C 321.031 69.171, 311.534 70.975, 300.574 73.119 M 675.572 100.056 C 651.261 103.814, 622.746 121.128, 589.590 152.264 C 577.417 163.696, 554 188.562, 554 190.056 C 554 190.513, 561.441 197.032, 570.535 204.544 L 587.070 218.202 591.192 213.351 C 599.862 203.147, 628.963 174.972, 639.150 166.919 C 656.937 152.859, 672.315 144.579, 682.991 143.315 C 687.628 142.766, 688.140 142.940, 691.362 146.162 C 695.449 150.249, 696.987 155.157, 696.994 164.140 C 697.014 188.011, 679.892 229.463, 654.162 267.831 L 647.234 278.162 658.781 295.331 C 665.131 304.774, 670.402 312.611, 670.493 312.746 C 670.584 312.881, 676.389 311.871, 683.394 310.501 C 745.892 298.282, 803.300 301.753, 822.319 318.900 C 830.335 326.126, 832.334 337.444, 827.448 347.941 C 820.888 362.033, 794.730 381.035, 760 396.936 C 720.980 414.802, 659.281 434.403, 604 446.496 C 592.175 449.082, 582.003 451.340, 581.396 451.512 C 580.654 451.722, 581.565 458.475, 584.183 472.162 C 586.323 483.348, 588.248 493.012, 588.462 493.638 C 588.926 494.994, 600.832 492.588, 633.934 484.451 C 698.563 468.563, 749.783 450.975, 790 430.859 C 850.013 400.841, 876.031 370.291, 873.715 332.561 C 871.446 295.581, 843.829 270.730, 795.969 262.601 C 775.064 259.050, 741.532 258.644, 714.768 261.617 L 709.037 262.254 716.428 247.377 C 738.328 203.296, 745.406 168.649, 737.954 142.007 C 729.837 112.989, 704.059 95.654, 675.572 100.056 M 477.250 451.747 L 466 452.066 465.978 455.283 C 465.903 466.261, 463.772 502.916, 462.447 516 C 460.520 535.041, 457.393 557.940, 456.614 558.720 C 455.088 560.245, 402.494 564.254, 360.530 566.043 C 346.796 566.628, 335.546 567.196, 335.530 567.304 C 335.513 567.412, 335.725 577.168, 336 588.983 L 336.500 610.467 348.500 610.191 C 374.092 609.601, 434.144 605.973, 444.250 604.406 C 446.728 604.021, 448 604.210, 448 604.963 C 448 605.589, 446.405 612.491, 444.456 620.301 C 423.959 702.419, 390.055 772.782, 344.727 827.269 C 328.783 846.435, 313.737 861.428, 292.587 879.226 L 289.674 881.678 301.982 897.089 C 318.081 917.247, 316.402 915.622, 319.221 913.775 C 320.509 912.931, 327.921 906.568, 335.691 899.635 C 397.874 844.157, 446.371 764.804, 475.921 670.185 C 481.324 652.886, 488.379 626.300, 492.119 609.146 C 493.361 603.452, 494.855 598.656, 495.438 598.489 C 496.022 598.321, 503.475 596.969, 512 595.483 C 520.525 593.997, 543.475 588.811, 563 583.959 C 615.258 570.972, 626.974 568.999, 639.727 571.036 C 647.442 572.269, 650.390 573.673, 654.699 578.165 C 660.216 583.916, 661.231 587.818, 661.155 602.984 C 660.800 674.351, 607.923 827.451, 572.427 859.893 C 569.374 862.683, 565.044 865.478, 562.357 866.394 C 556.304 868.457, 543.967 868.468, 536.932 866.417 C 513.262 859.517, 488.206 834.992, 467.104 798.070 C 463.197 791.234, 460 785.273, 460 784.824 C 460 784.374, 451.225 788.387, 440.500 793.741 C 429.775 799.096, 421 803.963, 421 804.559 C 421 806.180, 434.378 829.229, 441.281 839.500 C 450.432 853.116, 457.286 861.437, 468.926 873.059 C 496.322 900.415, 524.187 913.090, 553.942 911.731 C 576.888 910.683, 594.359 902.033, 609.658 884.146 C 631.428 858.695, 653.418 813.726, 673.545 753.500 C 701.078 671.116, 711.597 601.410, 701.032 571.352 C 696.015 557.077, 682.143 541.238, 669 534.777 C 657.891 529.317, 651.341 527.854, 635.398 527.272 C 616.548 526.584, 603.004 528.794, 560.395 539.513 C 530.611 547.006, 502.961 553.301, 502.390 552.719 C 502.272 552.599, 502.822 547.550, 503.611 541.500 C 506.494 519.410, 508.130 497.973, 508.705 474.750 L 509.293 451 498.897 451.214 C 493.178 451.331, 483.438 451.571, 477.250 451.747 " stroke="none" fill="black" fill-rule="evenodd"/>
</svg>