<svg xmlns="http://www.w3.org/2000/svg" width="1000" height="1000" viewBox="0 0 1000 1000" version="1.1">
	<path d="M 205.934 119.119 C 199.095 128.015, 193.119 135.940, 192.654 136.730 C 192.097 137.675, 192.483 138.908, 193.780 140.333 C 199.515 146.633, 205.450 159.715, 209.280 174.500 C 213.660 191.409, 214.452 198.990, 214.452 224 C 214.451 250.605, 213.194 262.756, 206.938 296.660 C 195.856 356.714, 190.769 393.585, 185.782 450 C 183.750 472.985, 184.078 553.358, 186.284 573 C 190.273 608.520, 195.914 634.798, 205.819 664 C 217.191 697.525, 226.139 719.454, 238.125 743.173 L 246.045 758.846 252.773 756.919 C 256.473 755.860, 266.743 752.926, 275.595 750.401 C 284.448 747.876, 292.117 745.515, 292.638 745.155 C 293.229 744.747, 293.261 738.851, 292.724 729.500 C 291.694 711.585, 292.506 645.029, 293.986 626 C 297.531 580.432, 303.368 543.471, 311.436 515.500 C 313.340 508.900, 314.583 503.220, 314.199 502.877 C 313.814 502.534, 304.591 499.299, 293.702 495.688 L 273.904 489.122 272.868 491.811 C 272.299 493.290, 270.284 500.125, 268.392 507 C 258.967 541.237, 252.728 583.600, 249.855 632.885 L 248.608 654.270 246.246 647.385 C 229.948 599.874, 224.224 538.119, 229.064 462 C 232.135 413.696, 238.400 366.802, 250.439 302 C 259.338 254.098, 260.968 219.390, 255.948 184.753 C 251.291 152.619, 238.442 122.632, 222.729 107.222 L 218.367 102.944 205.934 119.119 M 652.750 130.242 C 649.587 130.784, 647.001 131.738, 647.001 132.364 C 647.002 132.989, 649.632 142.495, 652.846 153.488 L 658.690 173.477 662.595 172.988 C 671.581 171.865, 683.537 172.886, 691.745 175.479 C 723.841 185.618, 744.851 221.312, 753.482 280.362 C 755.245 292.426, 759.949 351.121, 762.669 395 C 765.212 436.030, 765.220 527.214, 762.683 555.500 C 755.207 638.850, 738.593 701.904, 708.019 762.963 C 687.502 803.936, 659.353 844.743, 626.973 880.453 L 620.669 887.405 625.715 891.953 C 628.490 894.454, 635.725 901.126, 641.793 906.780 L 652.825 917.060 662.056 906.780 C 724.404 837.346, 767.359 756.804, 788.874 668.996 C 808.161 590.277, 813.186 502.416, 805.459 379 C 803.165 342.358, 799.108 291.668, 797.456 279 C 786.286 193.340, 750.370 142.409, 692.792 130.583 C 684.141 128.806, 662.220 128.619, 652.750 130.242 M 428 212.620 C 409.853 216.108, 391.526 227.373, 373.578 246.072 C 364.582 255.444, 349.246 274.616, 350.109 275.412 C 350.974 276.209, 385.217 298.070, 385.925 298.277 C 386.344 298.400, 389.428 294.871, 392.779 290.434 C 402.085 278.115, 417.364 263.957, 426.037 259.618 C 439.400 252.933, 444.501 255.106, 449.226 269.500 C 457.483 294.653, 460.990 332.502, 460.992 396.500 C 460.994 448.218, 458.718 499.171, 453.960 553.922 C 452.888 566.254, 452.121 576.413, 452.255 576.496 C 453.311 577.152, 499.636 580.735, 500.101 580.196 C 500.431 579.813, 501.445 573.317, 502.355 565.760 C 506.248 533.419, 520.377 490.634, 541.439 447.411 C 554.067 421.495, 564.504 403.197, 580.642 378.679 C 587.456 368.328, 592.800 359.485, 592.518 359.029 C 592.235 358.572, 585.816 353.797, 578.252 348.418 C 570.689 343.038, 563.076 337.570, 561.336 336.265 L 558.172 333.894 551.689 343.197 C 538.055 362.764, 522.553 388.307, 511.022 410.206 L 505.293 421.087 504.696 380.794 C 503.584 305.818, 497.901 266.635, 484.418 240.976 C 475.032 223.115, 459.480 213.250, 439.500 212.485 C 434.550 212.295, 429.375 212.356, 428 212.620 " stroke="none" fill="black" fill-rule="evenodd"/>
</svg>