<svg xmlns="http://www.w3.org/2000/svg" width="1000" height="1000" viewBox="0 0 1000 1000" version="1.1">
	<path d="M 456.779 64.449 C 448.682 65.087, 441.736 65.931, 441.342 66.325 C 440.948 66.718, 442.065 87.619, 443.824 112.770 C 445.582 137.922, 448.570 182.575, 450.464 212 C 452.357 241.425, 454.150 268.479, 454.448 272.121 L 454.990 278.741 444.745 280.842 C 424.364 285.019, 407.369 286.121, 395.886 284.009 C 385.637 282.124, 376.011 277.977, 371.214 273.381 C 366.773 269.126, 366.721 269, 367.319 263.957 C 367.652 261.146, 369.077 256.327, 370.487 253.248 C 371.896 250.169, 372.701 247.334, 372.275 246.949 C 368.072 243.149, 338.487 222.199, 337.866 222.583 C 335.963 223.759, 329.883 236.199, 326.911 245 C 324.119 253.267, 323.699 255.863, 323.676 265 C 323.645 277.251, 326.125 285.830, 332.452 295.362 C 343.952 312.687, 368.712 325.169, 397.541 328.174 C 410.574 329.533, 430.818 328.269, 447 325.087 C 452.829 323.941, 456.732 323.588, 457.099 324.175 C 457.429 324.700, 457.994 330.838, 458.355 337.815 C 458.717 344.792, 459.910 367.600, 461.007 388.500 C 462.104 409.400, 463.288 438.200, 463.638 452.500 L 464.275 478.500 454.888 482.783 C 413.919 501.476, 375.448 553.405, 364.326 605.024 C 362.952 611.404, 362.508 617.705, 362.531 630.500 C 362.559 645.754, 362.842 648.558, 365.284 657.801 C 370.155 676.237, 380.072 699.503, 390.810 717.686 L 393.872 722.871 386.643 733.186 C 376.783 747.254, 364.282 764.330, 354.283 777.385 C 346.556 787.475, 346.048 788.425, 347.334 790.385 C 353.036 799.081, 373.247 827.555, 373.874 827.776 C 374.701 828.068, 407.065 800.569, 422.786 786.217 C 427.894 781.554, 432.221 777.910, 432.403 778.120 C 432.585 778.329, 436.704 783.225, 441.556 789 C 446.409 794.775, 453.782 803.272, 457.940 807.883 L 465.500 816.266 486.366 815.683 C 497.843 815.363, 507.518 814.816, 507.866 814.467 C 508.215 814.119, 508.656 789.223, 508.847 759.144 L 509.195 704.453 522.211 690.477 C 557.046 653.072, 606.899 588.244, 657.322 514.781 L 666.053 502.062 647.934 489.956 C 637.969 483.298, 629.674 477.997, 629.500 478.175 C 629.327 478.354, 622.480 488.175, 614.286 500 C 577.908 552.498, 531.829 613.925, 512.641 635.500 L 509.083 639.500 509.042 628.896 C 509 618.382, 509.038 618.211, 513.510 608.641 C 527.543 578.611, 535 552.821, 535 534.316 C 535 514.682, 524.928 493.020, 511.567 483.920 L 508.014 481.500 508.007 470.211 C 507.998 456.059, 506.528 420.494, 503.947 372 C 502.849 351.375, 501.678 329.100, 501.345 322.500 L 500.741 310.500 507.620 308.122 C 528.420 300.934, 577.189 279.562, 590.727 271.703 L 593.954 269.830 592.078 266.165 C 589.221 260.585, 573.982 232.649, 573.570 232.236 C 573.370 232.037, 569.603 233.685, 565.199 235.900 C 544.738 246.187, 499.279 265.612, 498.196 264.530 C 497.940 264.273, 496.675 247.511, 495.385 227.282 C 491.459 165.710, 485.033 71.757, 484.438 67.250 L 483.877 63 477.689 63.144 C 474.285 63.224, 464.875 63.811, 456.779 64.449 M 159.664 138.651 C 159.302 147.368, 159.005 157.313, 159.003 160.750 C 159 166.998, 159.001 167, 161.935 167 C 163.549 167, 167.936 167.653, 171.685 168.450 C 192.247 172.825, 206.493 181.452, 215.479 194.969 C 222.826 206.020, 230.752 223.579, 233.769 235.488 L 236.500 246.266 248.407 245.633 C 254.956 245.285, 264.181 244.993, 268.907 244.985 C 273.633 244.976, 278.067 244.610, 278.759 244.170 C 279.766 243.531, 279.714 241.622, 278.503 234.676 C 273.831 207.886, 256.086 171.880, 239.502 155.539 C 221.865 138.160, 195.335 126.446, 166.911 123.487 L 160.321 122.801 159.664 138.651 M 728 223.447 C 710.123 227.290, 694.572 236.510, 679.241 252.357 C 669.283 262.651, 666.259 266.696, 667.601 267.925 C 669.592 269.747, 702.011 290.996, 702.728 290.950 C 703.153 290.923, 705.300 288.668, 707.500 285.940 C 720.490 269.833, 738.817 262.424, 751.828 268.021 C 754.716 269.264, 757.512 271.088, 758.040 272.075 C 759.724 275.222, 759.057 287.168, 756.593 298 C 755.279 303.775, 749.443 322.943, 743.625 340.596 C 737.806 358.249, 731.712 378.155, 730.082 384.830 C 719.464 428.309, 726 458.509, 749.815 476.022 C 753.492 478.725, 763.025 483.959, 771 487.652 C 791.135 496.977, 798.126 501.369, 805.986 509.632 C 817.615 521.857, 824.813 537.990, 828.992 561.195 C 834.404 591.249, 833.938 642.770, 827.991 672 C 813.401 743.704, 751.005 809.439, 649.121 860.438 C 623.495 873.266, 586.283 888.737, 568.250 894.062 C 565.913 894.752, 564 895.687, 564 896.141 C 564 897.929, 575.277 935.557, 576.067 936.405 C 578.490 939.006, 631.958 917.811, 667 900.360 C 756.310 855.884, 818.723 800.677, 850.328 738.198 C 870.091 699.128, 876.342 668.241, 876.273 610 C 876.199 547.498, 864.655 507.795, 838.500 480.088 C 827.555 468.493, 817.740 461.845, 795.462 450.937 C 784.441 445.541, 774.611 440.228, 773.617 439.129 C 767.331 432.183, 767.534 413.227, 774.155 389 C 775.282 384.875, 780.841 367.325, 786.508 350 C 798.239 314.137, 801.941 299.034, 802.684 284.014 C 804.177 253.810, 790.278 233.907, 761.500 225.041 C 752.486 222.263, 736.945 221.524, 728 223.447 M 179 354.343 C 179 354.606, 175.868 366.822, 172.040 381.490 C 151.034 461.975, 136.192 536.838, 131.393 586.515 C 127.525 626.552, 133.610 731.989, 146.093 841.250 L 148.350 861 152.425 860.919 C 154.666 860.875, 164.113 859.862, 173.417 858.669 L 190.334 856.500 207.644 807.500 C 217.164 780.550, 229.962 743.875, 236.082 726 C 248.194 690.629, 257.604 666.311, 276.002 622.828 C 282.569 607.308, 287.803 594.470, 287.633 594.299 C 286.269 592.935, 248.422 577.188, 247.882 577.760 C 246.821 578.884, 223.905 633.543, 214.486 657.413 C 209.910 669.011, 201.363 692.450, 195.492 709.500 C 189.622 726.550, 184.027 742.750, 183.060 745.500 L 181.301 750.500 180.645 745 C 179.464 735.104, 176.104 685.042, 174.911 659.573 C 173.524 629.949, 174.231 591.012, 176.448 575 C 183.334 525.275, 193.931 473.673, 211.553 404.065 C 216.765 383.475, 220.685 366.306, 220.265 365.911 C 219.844 365.515, 211.175 362.881, 201 360.057 C 190.825 357.232, 181.713 354.684, 180.750 354.393 C 179.787 354.103, 179 354.080, 179 354.343 M 456.725 532.944 C 441.814 544.946, 428.833 561.652, 418.997 581.500 C 401.538 616.729, 401.301 638.515, 417.975 675.481 L 421.124 682.462 427.079 673.207 C 436.612 658.391, 450.135 635.620, 458.373 620.514 L 466 606.527 465.871 589.014 C 465.800 579.381, 465.462 561.417, 465.121 549.093 L 464.500 526.687 456.725 532.944 " stroke="none" fill="black" fill-rule="evenodd"/>
</svg>