<svg xmlns="http://www.w3.org/2000/svg" width="1000" height="1000" viewBox="0 0 1000 1000" version="1.1">
	<path d="M 454.324 104.361 C 444.328 106.087, 435.925 107.727, 435.652 108.005 C 435.379 108.283, 436.002 115.033, 437.035 123.005 C 444.914 183.776, 444.630 246.260, 436.274 290.250 L 434.612 299 431.056 298.999 C 424.886 298.997, 401.013 295.964, 387.500 293.466 C 355.640 287.576, 323.674 275.989, 305.770 263.841 C 302.618 261.702, 299.444 259.724, 298.716 259.444 C 297.928 259.142, 291.355 265.279, 282.510 274.574 L 267.628 290.211 270.064 292.150 C 300.676 316.514, 353.068 334.846, 409.775 341.034 C 420.554 342.210, 421.022 342.358, 420.399 344.382 C 417.938 352.376, 402.812 385.476, 392.241 406 C 364.600 459.664, 362.344 464.779, 359.906 479.286 C 358.867 485.473, 358.846 488.475, 359.805 494.066 C 363.660 516.549, 380.658 529.059, 415.389 534.974 C 431.558 537.727, 500.514 542.986, 520.583 542.996 C 525.029 542.998, 528.951 543.284, 529.299 543.632 C 529.646 543.979, 517.234 550.647, 501.715 558.449 C 452.182 583.352, 411.266 608.338, 371.500 637.967 C 351.528 652.848, 339.654 662.838, 283.500 712.005 C 226.489 761.921, 177.435 804.127, 152.250 824.928 C 143.313 832.310, 136 838.655, 136 839.028 C 136 839.400, 140.647 847.984, 146.327 858.103 C 152.006 868.221, 157.090 877.293, 157.623 878.262 C 158.480 879.819, 160.006 878.983, 170.710 871.092 C 194.660 853.438, 220.086 837.477, 248.500 822.259 C 307.324 790.755, 362.585 775.131, 398.290 779.909 C 415.514 782.214, 435.053 790.462, 452.372 802.739 C 464.038 811.008, 483.102 830.493, 491.500 842.732 C 495.350 848.342, 498.892 852.948, 499.372 852.966 C 499.851 852.985, 507.341 847.834, 516.015 841.520 C 527.748 832.980, 532.430 828.946, 534.300 825.770 C 535.682 823.421, 540.526 816.550, 545.066 810.500 C 580.552 763.206, 617.139 732.462, 651 721.482 C 663.307 717.492, 679.867 716.853, 690.139 719.973 C 717.409 728.257, 749.212 755.869, 782.640 800.285 C 799.045 822.082, 819.311 853.148, 830.868 874.214 L 835.100 881.927 847.800 875.269 C 854.785 871.607, 863.526 866.980, 867.225 864.987 L 873.950 861.363 865.626 846.932 C 816.715 762.128, 762.880 703.105, 716.010 682.898 C 699.759 675.892, 692.751 674.496, 674 674.529 C 659.521 674.555, 656.207 674.884, 646.940 677.214 C 622.095 683.462, 599.053 695.727, 573.813 716.140 C 554.593 731.685, 529.368 758.473, 511.562 782.250 C 508.369 786.513, 505.544 790, 505.282 790 C 505.021 790, 501.813 787.246, 498.153 783.880 C 471.190 759.077, 440.593 742.926, 410 737.348 C 397.140 735.003, 372.517 735.047, 356.500 737.444 C 345.281 739.122, 323.577 744.037, 312.751 747.350 L 308.002 748.804 312.751 744.553 C 366.370 696.567, 394.582 673.878, 430 650.261 C 489.785 610.396, 567.705 572.031, 624.500 554.497 C 631.100 552.459, 636.916 550.400, 637.425 549.921 C 638.228 549.165, 636.114 517.692, 634.375 504.500 L 633.847 500.500 585.674 500.467 C 537.297 500.434, 514.521 499.586, 464.500 495.958 C 433.787 493.730, 418.859 491.818, 409.422 488.903 C 402.922 486.896, 402.873 486.853, 403.539 483.821 C 404.875 477.739, 410.209 466.360, 425.392 437.199 C 444.790 399.945, 457.717 371.078, 466.274 345.909 C 466.732 344.562, 469.765 344.212, 486.090 343.626 C 535.269 341.861, 587.247 334.335, 643 320.909 C 676.413 312.863, 686.003 310.013, 685.983 308.136 C 685.961 306.093, 675.484 269.151, 674.705 268.372 C 674.392 268.059, 666.342 269.870, 656.818 272.398 C 599.225 287.682, 542.643 297.036, 492.102 299.628 L 478.704 300.315 479.285 297.907 C 484.689 275.521, 487.688 225.570, 486.013 185.852 C 484.773 156.435, 480.899 114.013, 478.470 103.250 C 477.822 100.380, 477.206 100.409, 454.324 104.361 " stroke="none" fill="black" fill-rule="evenodd"/>
</svg>