<svg xmlns="http://www.w3.org/2000/svg" width="1000" height="1000" viewBox="0 0 1000 1000" version="1.1">
	<path d="M 432 100.097 C 432 102.382, 416.671 139.638, 408.627 156.903 C 395.542 184.987, 373.474 224.349, 364.511 235.589 L 362.413 238.220 358.187 232.742 C 347.098 218.369, 327.968 209.070, 309.381 209.017 C 300.366 208.992, 286.932 211.611, 277.065 215.317 C 267.457 218.926, 250.933 227.741, 245.901 231.942 L 242.660 234.647 256.027 251.736 L 269.395 268.825 273.774 265.811 C 279.482 261.884, 293.238 255.562, 299.193 254.129 C 314.499 250.446, 322.831 254.653, 329.625 269.493 L 332.330 275.401 324.915 282.348 C 294.388 310.951, 249.796 325.460, 231.624 312.703 C 225.286 308.254, 222.687 295.001, 225.309 280.500 C 226.105 276.100, 226.698 272.434, 226.628 272.353 C 226.558 272.273, 217.725 270.106, 207 267.539 C 196.275 264.972, 186.786 262.669, 185.913 262.420 C 183.934 261.857, 182.386 268.208, 181.060 282.325 C 174.813 348.828, 231.496 380.026, 302.111 348.951 C 313.131 344.102, 327.040 336.281, 334.786 330.579 L 340.772 326.172 341.341 329.836 C 343.975 346.777, 349.954 426.766, 349.994 445.580 C 350 448.590, 349.657 448.812, 334.750 455.429 C 292.039 474.388, 240.533 503.716, 209.211 526.913 C 193.803 538.323, 170.163 561.703, 161.317 574.277 C 153.513 585.372, 144.979 602.055, 141.597 612.829 C 129.286 652.048, 137.786 691.312, 164.814 720.086 C 184.667 741.221, 204.357 750.693, 230.500 751.687 C 270.919 753.224, 307.986 736.791, 335.779 705.014 C 353.857 684.346, 371.298 651.816, 379.483 623.500 C 387.806 594.710, 392.468 555.592, 393.841 503.049 L 394.500 477.800 403.500 474.375 C 463.421 451.574, 538.700 432.264, 599.181 424.180 L 612.862 422.351 613.450 429.426 C 614.662 444.014, 616.972 488.576, 618.094 519 C 619.407 554.596, 618.778 648.720, 617.052 675 C 612.122 750.072, 605.141 789.193, 582.613 868 C 580.176 876.525, 578.254 883.568, 578.341 883.652 C 579.316 884.585, 619.615 895.760, 620.079 895.226 C 622.100 892.899, 641.870 817.194, 646.924 792.427 C 662.882 714.228, 667.072 597.686, 658.977 457.200 C 657.889 438.335, 657 422.247, 657 421.450 C 657 420.235, 660.040 420, 675.767 420 C 726.645 420, 785.499 427.354, 833.281 439.683 C 843.061 442.206, 851.190 444.097, 851.346 443.885 C 851.501 443.673, 854.681 433.659, 858.412 421.631 L 865.194 399.762 861.903 391.131 C 841.300 337.094, 800.958 250.363, 776.956 208.500 C 765.104 187.828, 747.477 161.316, 736.680 147.920 C 712.635 118.087, 689.017 104.392, 667.690 107.914 C 648.307 111.115, 633.177 125.471, 623.860 149.500 C 613.915 175.150, 609.324 209.846, 608.311 267 C 607.776 297.145, 609.156 362.194, 610.581 374.023 L 611.125 378.546 596.813 380.338 C 542.526 387.134, 482.322 401.395, 420.624 422.074 C 405.843 427.029, 393.636 430.951, 393.498 430.791 C 393.360 430.631, 392.721 421.050, 392.077 409.500 C 390.052 373.179, 385.968 330.285, 381.484 298.249 L 380.049 287.999 389.715 275.249 C 418.559 237.205, 446.613 184.687, 468.621 127.531 C 471.580 119.849, 474 113.249, 474 112.865 C 474 112.130, 435.407 99, 433.249 99 C 432.562 99, 432 99.494, 432 100.097 M 671.285 153.250 C 663.665 161.556, 657.059 187.382, 653.826 221.500 C 652.286 237.762, 651.991 322.224, 653.360 355.250 L 654.220 376 671.999 376 C 711.482 376, 759.619 380.374, 799.374 387.574 C 807.004 388.956, 813.448 389.885, 813.695 389.639 C 814.247 389.087, 804.857 366.416, 792.513 338.500 C 752.621 248.277, 716.352 185.983, 688.938 160.603 C 683.455 155.526, 676.514 151, 674.214 151 C 673.738 151, 672.420 152.012, 671.285 153.250 M 329.500 506.346 C 298.361 521.652, 271.123 537.304, 247.009 553.748 C 203.648 583.316, 181.722 612.868, 180.232 643.746 C 179.636 656.119, 181.011 663.973, 185.442 673.500 C 191.911 687.409, 202.874 698.671, 216 704.893 C 221.163 707.340, 222.387 707.497, 236 707.445 C 252.852 707.380, 258.738 706.111, 272.500 699.577 C 292.131 690.256, 308.031 673.761, 322.218 648 C 331.767 630.661, 338.483 611.245, 342.455 589.500 C 347.520 561.771, 352.279 496.990, 349.250 497.003 C 348.837 497.005, 339.950 501.209, 329.500 506.346 " stroke="none" fill="black" fill-rule="evenodd"/>
</svg>