<svg xmlns="http://www.w3.org/2000/svg" width="1000" height="1000" viewBox="0 0 1000 1000" version="1.1">
	<path d="M 329.500 119.715 C 295.206 124.457, 276 150.483, 276 192.211 C 276 198.232, 276.503 207.421, 277.117 212.629 C 277.731 217.838, 277.934 222.400, 277.567 222.766 C 276.516 223.817, 257.722 220.291, 249.214 217.446 C 232.217 211.764, 214.829 202.002, 197 188.134 C 188.243 181.322, 167.156 160.891, 158.437 150.769 L 153.500 145.039 136.733 157.370 C 127.511 164.152, 119.685 169.982, 119.341 170.325 C 117.928 171.739, 139.544 195.776, 153.938 208.797 C 194.616 245.596, 235.299 264.585, 278.359 266.870 L 290.219 267.500 293.455 276.500 C 298.553 290.681, 304.488 304.034, 314.567 324 C 346.498 387.252, 387.826 440.657, 468.244 522.582 L 488.988 543.714 482.749 548.607 C 450.022 574.272, 411.886 608.178, 386 634.624 C 345.114 676.396, 323.733 709.435, 316.334 742.275 C 314.096 752.210, 314.091 771.500, 316.324 779.879 C 327.236 820.816, 361.671 846.794, 420.500 858.468 C 446.329 863.594, 458.370 864.471, 503 864.480 C 535.240 864.486, 548.851 864.084, 564 862.679 C 596.403 859.672, 642.466 853.566, 645.122 851.924 C 646.102 851.319, 645.533 846.563, 642.538 830.324 C 640.427 818.871, 638.611 809.382, 638.503 809.237 C 638.396 809.093, 632.951 809.864, 626.404 810.951 C 570.126 820.295, 505.812 823.773, 461 819.894 C 386.186 813.419, 350.109 788.110, 359.862 748.945 C 369.323 710.955, 415.411 659.319, 503.375 588.158 L 521.085 573.830 527.293 579.336 C 530.707 582.363, 537.550 588.462, 542.500 592.889 C 547.450 597.316, 552.095 600.952, 552.821 600.969 C 554.768 601.015, 588.392 591.928, 589.127 591.158 C 589.472 590.796, 589.188 582.175, 588.495 572 C 587.803 561.825, 586.937 546.660, 586.570 538.300 L 585.904 523.100 604.620 508.300 C 685.778 444.121, 738.085 398.991, 781.082 356.048 C 841.241 295.966, 865.965 257.569, 865.993 224.176 C 866.006 208.964, 858.442 192.863, 846.198 182.036 C 839.723 176.311, 825.398 168.850, 816.500 166.570 C 798.706 162.009, 775.387 162.326, 751 167.460 C 729.515 171.983, 706.307 179.640, 706.796 182.044 C 707.044 183.260, 721.928 219.997, 722.477 220.745 C 722.575 220.879, 726.671 219.632, 731.578 217.972 C 773.556 203.776, 808.903 203.517, 819.438 217.330 C 834.149 236.616, 782.372 301.340, 684.469 386.048 C 660.900 406.441, 641.906 422.282, 612 446.490 C 586.337 467.262, 586.280 467.292, 587.207 459.353 C 587.535 456.542, 587.243 455.865, 585.553 455.518 C 581.282 454.640, 544.880 451.787, 544.377 452.289 C 543.694 452.972, 542.075 480.840, 542.033 492.641 L 542 501.783 532.811 509.041 L 523.621 516.300 498.042 490.400 C 422.484 413.896, 380.522 359.408, 351.025 299.500 C 344.292 285.826, 334.555 263.087, 335.184 262.508 C 335.358 262.348, 340.900 260.786, 347.500 259.036 C 374.615 251.848, 408.175 236.920, 431.167 221.819 L 443.833 213.500 435.898 194.544 C 427.043 173.392, 423.161 167.452, 408.740 152.983 C 383.904 128.064, 355.464 116.124, 329.500 119.715 M 330 164.408 C 325.683 165.956, 322.489 170.493, 321.075 177.086 C 319.670 183.637, 319.700 202.898, 321.129 212.510 L 322.258 220.102 325.379 219.490 C 332.534 218.085, 348.192 213.415, 358 209.759 C 370.359 205.153, 388 197.025, 388 195.937 C 388 194.489, 378.087 183.317, 372.802 178.809 C 357.203 165.500, 341.596 160.248, 330 164.408 " stroke="none" fill="black" fill-rule="evenodd"/>
</svg>