<svg xmlns="http://www.w3.org/2000/svg" width="1000" height="1000" viewBox="0 0 1000 1000" version="1.1">
	<path d="M 441.094 69.406 L 425.821 84.703 428.965 90.930 C 442.267 117.283, 451.614 164.496, 456.199 228.500 C 458.805 264.877, 457.297 379.639, 453.368 444 L 452.728 454.500 440.114 461.899 C 390.385 491.069, 319.234 538.931, 265.750 579.191 C 257.087 585.712, 250 590.825, 250 590.553 C 250 590.282, 256.826 579.584, 265.169 566.780 C 289.804 528.973, 337.105 451.655, 360.895 410.304 L 366.186 401.109 358.463 385.804 C 354.215 377.387, 350.686 370.445, 350.620 370.377 C 350.554 370.310, 345.403 371.759, 339.174 373.598 C 312.968 381.332, 284.834 382.169, 260.581 375.934 C 250.771 373.413, 242.340 369.505, 240.899 366.811 C 238.569 362.459, 241.929 351.249, 249.189 339.148 C 251.285 335.654, 252.983 332.504, 252.962 332.148 C 252.941 331.792, 247.654 327.388, 241.212 322.362 C 234.770 317.336, 227.197 311.383, 224.383 309.133 L 219.266 305.042 214.703 311.903 C 195.462 340.839, 191.377 369.458, 203.651 389.329 C 207.273 395.193, 214.608 402.654, 220.552 406.521 C 235.233 416.073, 260.253 422.481, 288.151 423.835 L 301.849 424.500 295.247 435.500 C 264.404 486.887, 250.481 509.075, 208.343 574 C 182.368 614.022, 137.965 685.910, 138.017 687.856 C 138.027 688.210, 145.892 693.127, 155.496 698.782 L 172.957 709.064 188.728 695.732 C 234.434 657.099, 293.126 612.125, 348.723 573.135 C 382.055 549.759, 449.504 505.951, 450.355 507.125 C 450.653 507.536, 450.260 515.561, 446.487 586 C 440.945 689.466, 429.848 864.486, 428.760 865.573 C 428.588 865.746, 422.158 861.388, 414.473 855.889 C 387.271 836.426, 357.821 818.605, 327.803 803.443 C 317.520 798.250, 308.711 794, 308.228 794 C 307.372 794, 289.997 830.800, 290.003 832.598 C 290.005 833.094, 298.218 837.635, 308.253 842.690 C 354.290 865.877, 394.484 892.871, 432.102 925.866 L 436.704 929.903 453.102 916.377 C 467.469 904.526, 469.593 902.396, 470.252 899.175 C 472.130 890.001, 485.145 685.201, 491.107 571 C 492.328 547.625, 493.467 528.323, 493.640 528.106 C 493.813 527.890, 497.747 531.156, 502.383 535.365 C 539.219 568.807, 567.290 589.130, 596.500 603.506 C 628.740 619.373, 658.330 625.965, 691.500 624.672 C 715.055 623.754, 736.345 619.441, 758.457 611.108 C 829.891 584.189, 874.957 506.211, 855.310 443.524 C 842.732 403.391, 806.242 376.123, 753.018 367.084 C 725.314 362.378, 694.177 362.374, 666.159 367.072 C 623.086 374.295, 571.940 392.493, 515.990 420.505 C 506.528 425.242, 498.585 428.918, 498.340 428.673 C 498.095 428.428, 498.680 410.064, 499.641 387.864 C 502.784 315.280, 501.961 243.991, 497.439 197 C 492.441 145.054, 481.843 98.631, 469.247 73.500 C 466.289 67.597, 458.588 55.481, 457.281 54.674 C 456.778 54.363, 449.494 60.992, 441.094 69.406 M 210.604 171.045 C 200.212 174.847, 191.557 178.110, 191.372 178.295 C 190.648 179.019, 198.049 192.962, 203.690 201.500 C 232.958 245.799, 284.294 280.713, 349.013 300.335 C 355.331 302.250, 360.629 303.692, 360.787 303.539 C 361.116 303.218, 371.965 262.835, 371.986 261.850 C 371.994 261.492, 369.637 260.643, 366.750 259.964 C 352.111 256.518, 323.381 244.915, 306.500 235.632 C 274.763 218.178, 247.650 193.019, 235.500 169.750 C 233.812 166.517, 231.844 164.033, 231 164.068 C 230.175 164.103, 220.997 167.243, 210.604 171.045 M 688 408.125 C 641.123 412.863, 579.466 435.487, 505.286 475.169 C 494.478 480.950, 495.375 478.605, 494.457 503.500 L 493.830 520.500 501.146 512.500 C 505.171 508.100, 511.007 501.828, 514.117 498.561 L 519.771 492.622 523.298 495.561 C 525.237 497.178, 532.601 503.636, 539.662 509.912 C 585.460 550.625, 620.153 570.967, 657 578.713 C 670.483 581.547, 700.979 581.253, 715.500 578.148 C 745.061 571.827, 764.227 562.358, 782.186 545.200 C 802.809 525.497, 814.707 501.857, 815.757 478.500 C 816.365 464.963, 815.114 458.457, 809.896 448.032 C 802.833 433.922, 787.557 422.204, 767.604 415.594 C 745.854 408.389, 714.498 405.447, 688 408.125 M 536.603 667.577 C 531.710 668.338, 527.538 669.128, 527.333 669.334 C 527.127 669.540, 529.443 679.050, 532.479 690.468 C 535.516 701.886, 538 711.330, 538 711.455 C 538 711.580, 540.138 711.331, 542.750 710.901 C 550.957 709.550, 566.716 709.912, 574.303 711.626 C 593.735 716.014, 608.168 729.795, 615.577 751.036 C 617.615 756.878, 618.421 761.896, 619.285 774.125 L 620.389 789.750 636.945 790.414 C 646.050 790.779, 655.361 791.328, 657.635 791.635 L 661.770 792.193 667.369 782.679 C 680.167 760.934, 698.294 741.162, 716.393 729.209 C 735.682 716.470, 752.699 711.313, 772 712.360 C 803.611 714.074, 825.074 726.990, 834.154 749.764 C 836.148 754.767, 836.444 757.290, 836.466 769.500 C 836.489 782.685, 836.308 784.010, 833.361 792.261 C 828.925 804.675, 824.727 811.263, 815 821.070 C 805.445 830.703, 797.565 835.715, 773.500 847.467 C 732.559 867.460, 675.851 885.831, 614.044 899.124 C 603.883 901.310, 595.486 903.189, 595.386 903.299 C 594.955 903.772, 602.309 944.573, 602.952 945.281 C 603.793 946.207, 630.066 940.784, 655.436 934.449 C 729.696 915.906, 797.092 889.247, 831.391 864.849 C 872.701 835.465, 891.224 780.514, 875.139 735.061 C 866.894 711.761, 847.086 690.582, 823.745 680.110 C 803.278 670.927, 777.215 666.635, 756.127 668.976 C 721.740 672.793, 691.174 688.607, 662.878 717.222 L 653.081 727.129 651.570 723.513 C 646.685 711.822, 631.982 693.862, 620.165 685.150 C 598.499 669.178, 567.813 662.725, 536.603 667.577 M 332.905 673.744 C 322.792 690.508, 299.179 715.065, 277.826 731.026 C 239.932 759.351, 188.947 785.337, 135.500 803.565 C 127.800 806.192, 121.345 808.456, 121.156 808.598 C 120.631 808.990, 132.123 848.372, 133.058 849.388 C 134.854 851.338, 181.947 833.835, 211.920 820.078 C 249.879 802.656, 288.197 779.452, 314.761 757.804 C 325.458 749.085, 343.661 731.322, 352.178 721.291 C 362.727 708.864, 373.226 692.785, 371.709 691.377 C 370.821 690.552, 347.075 676.639, 335.835 670.359 C 335.470 670.155, 334.151 671.678, 332.905 673.744 " stroke="none" fill="black" fill-rule="evenodd"/>
</svg>