<svg xmlns="http://www.w3.org/2000/svg" width="1000" height="1000" viewBox="0 0 1000 1000" version="1.1">
	<path d="M 552.481 91.410 C 552.298 92.009, 551.656 97.450, 551.054 103.500 C 550.453 109.550, 547.065 142.400, 543.526 176.500 C 530.585 301.197, 526.372 349.908, 525.008 390.607 C 523.942 422.440, 522 500.409, 522 511.406 L 522 518 510.750 517.987 C 493.712 517.966, 456.634 516.198, 437 514.470 C 379.701 509.425, 347.981 500.563, 343.995 488.486 C 339.106 473.671, 370.905 435.590, 414.500 404.053 C 420 400.074, 424.632 396.690, 424.793 396.533 C 425.073 396.260, 421.989 358.661, 421.660 358.347 C 421.572 358.263, 415.132 357.698, 407.349 357.090 C 385.920 355.417, 365.973 349.555, 363.036 344.067 C 360.373 339.091, 363.439 325.692, 370.574 311.131 C 373.641 304.872, 375.779 299.417, 375.325 299.010 C 374.871 298.603, 366.936 292.985, 357.690 286.525 C 338.297 272.977, 341.105 272.797, 333.063 288.108 C 323.120 307.041, 318.801 322.414, 318.876 338.608 C 318.902 344.219, 319.457 350.990, 320.109 353.655 C 323.729 368.445, 334.869 380.813, 351.589 388.607 L 358.678 391.912 343.535 407.206 C 321.758 429.200, 310.124 445.598, 303.674 463.390 C 299.564 474.730, 298.783 490.635, 301.843 500.708 C 307.180 518.281, 323.239 533.519, 345.500 542.134 C 372.512 552.588, 419.812 558.844, 488.448 561.040 C 506.019 561.602, 520.514 562.181, 520.659 562.326 C 520.804 562.471, 520.275 592.494, 519.484 629.045 C 518.693 665.595, 518.035 699.845, 518.023 705.156 L 518 714.811 503.857 705.370 C 486.077 693.500, 458.096 679.587, 439.902 673.570 C 399 660.043, 358.486 658.721, 316.288 669.536 C 269.121 681.625, 230.475 710.048, 212.496 745.872 C 194.230 782.268, 200.369 820.576, 229.013 848.953 C 249.630 869.377, 279.257 882.585, 322 890.407 C 405.433 905.676, 524.829 908.949, 671 899.974 C 720.707 896.922, 787.162 891.171, 788.529 889.804 C 789.263 889.071, 784.906 848.743, 783.979 847.682 C 783.586 847.233, 773.868 847.790, 762.382 848.922 C 721.887 852.912, 672.567 856.378, 616 859.209 C 581.675 860.927, 461.059 860.914, 435.500 859.191 C 388.575 856.026, 360.934 852.917, 330.500 847.382 C 285.632 839.221, 259.474 824.959, 249.099 803 C 246.831 798.201, 246.504 796.225, 246.528 787.500 C 246.550 779.783, 247.045 776.190, 248.698 771.763 C 255.980 752.256, 276.440 732.518, 301.258 721.057 C 326.487 709.407, 361.120 703.848, 389.332 706.922 C 430.552 711.413, 475.850 733.618, 511.589 766.853 L 522.230 776.748 540.865 763.779 C 551.114 756.646, 559.804 750.515, 560.175 750.155 C 560.546 749.795, 561.567 711.925, 562.444 666 C 563.321 620.075, 564.299 577.438, 564.618 571.250 L 565.197 560 571.926 560 C 605.509 560, 714.478 548.308, 752.500 540.625 L 758.500 539.413 758.778 526.371 L 759.056 513.330 747.446 487.415 C 719 423.920, 689.943 353.685, 679.995 324.381 L 674.863 309.262 662.197 313.171 C 655.230 315.320, 645.811 318.213, 641.265 319.600 C 636.719 320.987, 633 322.305, 633 322.530 C 633 322.755, 635.744 330.715, 639.098 340.219 C 649.868 370.739, 669.410 418.578, 694.909 476.843 C 701.009 490.782, 706 502.543, 706 502.980 C 706 503.416, 704.087 504.051, 701.750 504.391 C 690.014 506.099, 653.609 510.159, 634.287 511.915 C 615.563 513.616, 605.479 514.326, 571.250 516.354 L 566 516.665 566 506.171 C 566 490.611, 567.876 415.263, 568.992 386 C 570.517 346.013, 577.454 270.222, 592.551 128.612 C 594.480 110.524, 595.903 95.570, 595.714 95.381 C 595.525 95.192, 587.075 94.128, 576.936 93.017 C 566.796 91.905, 557.221 90.843, 555.657 90.657 C 554.094 90.471, 552.665 90.810, 552.481 91.410 M 337 146.561 C 327.375 151.732, 319.064 156.116, 318.531 156.304 C 317.184 156.779, 324.548 168.897, 333.656 181.194 C 343.731 194.796, 363.984 214.817, 375.790 222.847 C 387.929 231.102, 401.614 237.510, 413.601 240.551 C 425.558 243.584, 426.829 243.602, 427.458 240.750 C 428.438 236.309, 432.225 200.892, 431.769 200.436 C 431.512 200.179, 428.647 199.297, 425.401 198.475 C 417.343 196.434, 404.825 190.156, 396.996 184.229 C 387.204 176.817, 371.811 160.045, 363.855 148.121 C 359.957 142.279, 356.257 137.424, 355.634 137.330 C 355.010 137.237, 346.625 141.391, 337 146.561 " stroke="none" fill="black" fill-rule="evenodd"/>
</svg>