<svg xmlns="http://www.w3.org/2000/svg" width="1000" height="1000" viewBox="0 0 1000 1000" version="1.1">
	<path d="M 574.500 113.600 C 540.507 122.774, 486.083 134.338, 453 139.415 C 412.770 145.590, 394.375 147.014, 345.985 147.701 C 295.824 148.413, 251.878 146.456, 204.672 141.408 C 196.517 140.536, 189.563 140.104, 189.219 140.448 C 188.582 141.085, 182.927 182.260, 183.410 182.744 C 184.371 183.704, 233.366 188.263, 261.500 190.010 C 290.613 191.817, 350.437 192.385, 376 191.097 C 423.228 188.716, 467.308 182.804, 517.349 172.139 C 524.857 170.539, 531 169.366, 531 169.533 C 531 169.699, 525.758 177.410, 519.351 186.668 C 434.999 308.549, 348.883 450.177, 289.917 564 C 282.367 578.575, 274.926 592.525, 273.383 595 C 271.840 597.475, 270.511 600.175, 270.430 601 C 270.349 601.825, 267.122 608.800, 263.260 616.500 C 232.936 676.953, 200.929 752.692, 181.487 810 C 170.944 841.076, 168.018 851.072, 169.324 851.553 C 169.971 851.791, 179.374 854.618, 190.220 857.834 L 209.940 863.683 216.072 844.591 C 236.239 781.804, 263.841 714.805, 298.507 644.500 C 312.704 615.706, 312.873 615.425, 322.254 605 C 386.488 533.615, 474.257 479.947, 573.411 451.428 C 583.812 448.436, 592.444 446.110, 592.593 446.260 C 592.742 446.409, 591.525 451.024, 589.887 456.515 C 585.614 470.848, 578.585 499.368, 575.597 514.500 C 564.172 572.340, 566.651 614.583, 582.949 639.799 C 588.460 648.326, 593.377 653.510, 602.125 660.015 C 615.825 670.204, 634.772 678.931, 652.973 683.436 C 672.928 688.375, 680.855 689.082, 726.500 689.987 C 770.364 690.856, 774.837 691.350, 784.859 696.429 C 796.493 702.324, 803.326 717.039, 801.035 731.262 C 794.214 773.621, 720.108 821.555, 625 845.127 C 615.375 847.512, 607.341 849.557, 607.146 849.669 C 606.563 850.007, 615.254 890.424, 616.122 891.411 C 617.083 892.505, 640.519 886.898, 662.174 880.392 C 703.377 868.013, 741.841 850.577, 771.490 830.838 C 788.835 819.291, 798.388 811.441, 811.053 798.327 C 834.014 774.553, 844.976 751.164, 844.993 725.910 C 845.002 712.670, 842.643 702.772, 836.555 690.500 C 826.835 670.909, 813.094 659.084, 791.972 652.133 C 778.017 647.540, 770.587 646.847, 726.500 646.017 C 683.853 645.215, 675.821 644.530, 661 640.425 C 647.146 636.588, 632.190 628.982, 624.422 621.821 C 615.809 613.882, 612.569 601.393, 612.664 576.500 C 612.742 556.368, 614.700 540.681, 620.529 513.487 C 626.357 486.296, 640.515 437.536, 643.033 435.980 C 643.706 435.564, 646.561 434.915, 649.378 434.537 C 670.773 431.669, 678.262 430.791, 692.386 429.495 C 701.221 428.684, 717.124 427.721, 727.725 427.353 L 747 426.686 746.989 408.593 C 746.983 398.642, 746.689 388.753, 746.337 386.618 L 745.695 382.736 728.598 383.427 C 708.843 384.225, 678.562 386.525, 667.457 388.069 C 663.246 388.655, 659.678 388.991, 659.527 388.817 C 659.377 388.643, 662.393 380.850, 666.230 371.500 C 670.066 362.150, 673.272 353.628, 673.353 352.561 C 673.473 350.973, 670.162 349.127, 655 342.333 C 644.825 337.774, 635.987 334.034, 635.359 334.022 C 634.001 333.996, 618.194 372.307, 609.685 396.250 C 609.343 397.213, 608.241 398, 607.236 398 C 602.576 398, 558.247 409.899, 538.500 416.451 C 509.377 426.113, 490.142 433.928, 463.383 446.967 C 436.329 460.151, 417.926 470.617, 395 485.858 C 373.553 500.116, 374.618 499.442, 375.224 498.376 C 438.752 386.563, 518.045 262.269, 585.994 167.994 L 598.611 150.489 595.055 130.319 C 593.100 119.226, 591.275 109.955, 591 109.716 C 590.725 109.477, 583.300 111.225, 574.500 113.600 " stroke="none" fill="black" fill-rule="evenodd"/>
</svg>