<svg xmlns="http://www.w3.org/2000/svg" width="1000" height="1000" viewBox="0 0 1000 1000" version="1.1">
	<path d="M 601 82.647 C 595.419 83.297, 587.924 84.899, 582.228 86.659 C 578.120 87.928, 577.074 88.656, 577.487 89.959 C 577.779 90.878, 581.592 99.701, 585.960 109.565 C 593.663 126.958, 593.988 127.493, 596.702 127.255 C 610.242 126.069, 615.525 126.512, 621.224 129.311 C 634.393 135.778, 642.315 152.112, 648.486 185.525 C 651.749 203.185, 654.532 223.802, 653.758 224.575 C 652.941 225.393, 644.700 226.291, 604.500 229.943 C 538.529 235.936, 477.251 239.563, 423.398 240.662 L 390.848 241.326 391.442 237.913 C 393.572 225.680, 405.747 161.206, 409.922 140.055 C 412.683 126.060, 414.723 114.390, 414.455 114.121 C 413.884 113.551, 372.763 104.903, 372.391 105.275 C 371.922 105.744, 357.213 181.369, 351.853 210.870 L 346.516 240.241 336.008 239.575 C 330.229 239.210, 319.425 238.227, 312 237.391 C 270.658 232.738, 224.988 219.119, 183.235 198.993 L 168.970 192.117 167.592 194.308 C 166.834 195.514, 161.896 204.072, 156.619 213.327 L 147.025 230.153 163.262 237.957 C 204.683 257.864, 246.362 271.329, 288.739 278.495 C 300.465 280.478, 323.823 282.971, 331 283.005 C 334.025 283.019, 337.010 283.361, 337.634 283.765 C 338.454 284.297, 337.704 290.994, 334.918 308 C 321.343 390.865, 310.585 473.122, 306.824 522.808 L 305.590 539.115 299.045 538.485 C 238.497 532.650, 199.829 526.285, 187.755 520.164 L 182.500 517.500 182.518 511.913 C 182.551 501.232, 193.223 484.157, 212.158 464.487 L 221.817 454.453 207.756 438.477 C 200.022 429.690, 193.393 422.377, 193.025 422.226 C 192.076 421.837, 173.625 441.061, 166.369 450 C 133.368 490.652, 129.041 525.816, 154.127 549.481 C 162.711 557.578, 173.321 562.839, 189.287 566.914 C 208.706 571.870, 242.308 576.942, 279 580.457 C 288.075 581.326, 297.348 582.272, 299.608 582.559 L 303.715 583.080 304.309 625.290 C 305.049 677.955, 307.556 717.603, 313.586 772 C 317.648 808.642, 324.981 860.314, 326.307 861.640 C 326.552 861.886, 336.146 860.374, 347.627 858.282 C 368.309 854.512, 368.499 854.454, 368.338 851.989 C 368.249 850.620, 366.585 838.700, 364.640 825.500 C 358.287 782.379, 353.603 738.381, 350.535 693 C 348.930 669.267, 346.327 587.340, 347.151 586.515 C 347.417 586.250, 359.304 586.684, 373.567 587.480 C 436.217 590.979, 458.853 591.483, 553.851 591.491 L 650.202 591.500 649.556 597.500 C 644.568 643.874, 630.908 701.719, 613.844 748.734 C 596.937 795.315, 568.420 853.505, 546.211 886.740 C 542.992 891.558, 540.054 896.017, 539.682 896.649 C 539.264 897.361, 545.340 902.438, 555.640 909.983 C 564.789 916.685, 572.826 922.380, 573.500 922.638 C 576.132 923.649, 601.750 881.104, 618.562 847.801 C 658.067 769.548, 679.974 698.313, 692.414 607.652 C 693.761 597.835, 695.006 589.678, 695.182 589.525 C 695.357 589.373, 704.950 588.726, 716.500 588.089 C 771.523 585.053, 824.456 579.782, 864.822 573.320 C 880.298 570.842, 881.118 570.598, 880.664 568.603 C 880.400 567.447, 878.719 558.175, 876.929 548 C 875.139 537.825, 873.323 529.098, 872.893 528.606 C 872.441 528.088, 865.246 528.811, 855.806 530.322 C 827.569 534.843, 796.807 538.315, 757 541.474 C 727.972 543.778, 700.946 545.279, 700.292 544.625 C 699.963 544.297, 700.442 534.009, 701.356 521.764 C 707.232 443.007, 708.085 353.112, 703.606 284.500 C 702.888 273.500, 702.345 264.426, 702.400 264.335 C 702.455 264.245, 713.975 263.689, 728 263.100 C 742.025 262.512, 759.350 261.779, 766.500 261.472 C 779.344 260.922, 779.476 260.938, 777.500 262.837 C 776.400 263.894, 762.779 276.278, 747.231 290.358 C 731.682 304.437, 718.950 316.304, 718.936 316.729 C 718.923 317.153, 725.313 324.590, 733.136 333.255 C 747.237 348.872, 747.379 348.993, 749.431 347.163 C 785.799 314.718, 838.027 266.494, 837.723 265.641 C 837.498 265.014, 833.358 253.589, 828.521 240.253 L 819.728 216.007 808.614 216.507 C 802.501 216.782, 781.075 217.495, 761 218.093 C 740.925 218.690, 718.650 219.503, 711.500 219.901 C 704.350 220.298, 698.429 220.595, 698.343 220.561 C 698.257 220.528, 697.226 213.525, 696.051 205 C 693.148 183.930, 687.762 157.500, 684.027 146 C 673.429 113.372, 653.307 91.573, 627.800 85.088 C 620.175 83.149, 606.995 81.949, 601 82.647 M 644.500 270.097 C 631.463 271.652, 582.642 275.966, 555.500 277.963 C 502.798 281.840, 464.828 283.666, 416.750 284.637 C 398.188 285.011, 383 285.505, 383 285.733 C 383 285.961, 381.220 296.802, 379.045 309.824 C 364.510 396.838, 355.531 466.001, 349.592 536.700 L 349.155 541.901 353.327 542.444 C 359.378 543.232, 414.198 545.790, 452.500 547.071 C 490.649 548.347, 611.132 548.638, 637.262 547.518 C 654.269 546.788, 655.043 546.666, 655.480 544.628 C 656.027 542.087, 658.582 508.103, 659.964 485 C 663.732 422.013, 663.507 339.335, 659.403 278.750 L 658.742 269 655.121 269.131 C 653.130 269.204, 648.350 269.638, 644.500 270.097 " stroke="none" fill="black" fill-rule="evenodd"/>
</svg>