<svg xmlns="http://www.w3.org/2000/svg" width="1000" height="1000" viewBox="0 0 1000 1000" version="1.1">
	<path d="M 273.084 126.122 C 262.405 127.155, 253.461 128.206, 253.207 128.459 C 252.954 128.712, 253.367 138.725, 254.124 150.710 C 256.759 192.425, 255.754 269.329, 252.318 288.900 L 251.721 292.299 236.611 291.674 C 201.766 290.233, 161.599 281.115, 131.659 267.850 C 126.622 265.618, 121.653 263.726, 120.618 263.646 C 119.165 263.533, 116.386 267.711, 108.411 282 L 98.086 300.500 102.793 302.907 C 135.752 319.760, 185.450 332.292, 232.279 335.560 C 240.659 336.145, 241.990 336.475, 241.582 337.871 C 229.561 379.030, 215.770 418.751, 200.065 457.443 C 196.729 465.662, 194 472.935, 194 473.605 C 194 474.650, 229.073 494, 230.967 494 C 231.341 494, 235.345 492.398, 239.864 490.439 C 253.762 484.417, 269.877 482.251, 277.400 485.394 C 282.141 487.375, 285.743 492.639, 287.653 500.375 C 289.189 506.603, 289.187 507.649, 287.613 515.778 C 281.517 547.279, 250.312 619.870, 202.955 712.717 C 180.658 756.431, 150.615 812.898, 133.780 842.734 L 130.827 847.969 150.028 860.570 C 160.588 867.501, 169.558 872.795, 169.960 872.336 C 170.362 871.876, 180.086 859.800, 191.568 845.500 C 301.403 708.714, 434.156 552.667, 476.986 510 C 495.496 491.561, 526.759 461.999, 527.746 462.002 C 528.161 462.003, 530.470 469.766, 532.877 479.252 C 550.653 549.295, 574.579 618.203, 595.995 661.037 C 598.322 665.692, 603.592 675.234, 607.706 682.242 L 615.186 694.984 608.343 703.232 C 578.096 739.688, 537.857 781.142, 515.342 799.040 C 493.157 816.677, 475.011 826.645, 463.128 827.722 C 450.878 828.833, 440.685 819.705, 435.520 803 C 432.857 794.386, 432.358 772.260, 434.473 756.557 C 438.536 726.386, 450.795 685.296, 465.991 650.922 L 470.874 639.876 456.187 632.828 C 448.109 628.951, 439.189 624.733, 436.365 623.453 L 431.230 621.127 427.090 630.530 C 403.754 683.530, 389 740.903, 389 778.645 C 389 825.639, 409.362 858.987, 444.552 869.628 C 453.897 872.453, 470.042 872.001, 481.500 868.593 C 516.680 858.131, 560.115 823.651, 614.191 763.262 C 620.969 755.693, 629.621 745.788, 633.417 741.250 C 637.213 736.713, 640.634 733, 641.019 733 C 641.404 733, 646.233 738.552, 651.750 745.338 C 681.770 782.261, 716.365 814.239, 756.500 842.166 C 773.651 854.101, 801.312 869.532, 817.025 875.931 L 822.550 878.181 843.525 868.488 C 855.061 863.157, 864.683 858.621, 864.906 858.408 C 865.129 858.195, 862.799 851.604, 859.728 843.761 C 840.198 793.880, 833.193 769.882, 814.405 688.500 C 811.230 674.750, 808.508 663.330, 808.356 663.123 C 808.059 662.719, 766.787 671.879, 766.184 672.483 C 764.898 673.769, 791.524 781.169, 798.409 802.470 C 801.425 811.803, 803.737 819.596, 803.546 819.788 C 802.975 820.358, 785.835 809.472, 774.272 801.195 C 738.051 775.267, 706.396 744.631, 677.595 707.631 C 673.370 702.203, 670.045 697.388, 670.206 696.931 C 670.368 696.474, 676.627 688.090, 684.116 678.300 C 703.131 653.442, 723.449 625.676, 742.440 598.596 C 759.649 574.058, 778.775 545.751, 779.603 543.592 C 779.922 542.761, 773.551 538.064, 761.952 530.578 C 751.969 524.136, 743.689 519.008, 743.553 519.183 C 743.416 519.357, 737.824 527.725, 731.126 537.777 C 709.849 569.711, 678.551 613.585, 655.120 644.325 C 645.407 657.069, 644.472 658.007, 643.167 656.325 C 639.989 652.229, 623.673 617.244, 616.535 599.221 C 607.318 575.948, 594.307 537.152, 586.034 508.269 C 579.358 484.966, 566.025 431.758, 566.010 428.362 C 566.003 426.815, 575.334 417.815, 599.750 395.817 C 639.356 360.135, 695.413 310.258, 733.762 276.579 C 748.743 263.422, 761 252.380, 761 252.040 C 761 251.700, 756.643 247.615, 751.317 242.961 C 745.992 238.307, 735.304 228.471, 727.567 221.103 C 675.175 171.207, 632.583 144.337, 592.500 135.893 C 582.713 133.831, 564.849 134.293, 555.701 136.845 C 526.201 145.074, 509.907 165.202, 503.002 201.947 C 495.198 243.468, 498.941 310.576, 513.486 389.925 C 515.419 400.468, 517 409.706, 517 410.453 C 517 411.201, 507.663 420.496, 496.250 431.110 C 464.833 460.327, 435.740 489.336, 416.128 511 C 383.223 547.348, 341.465 595.565, 297.048 648.500 C 283.665 664.450, 270.962 679.525, 268.819 682 L 264.923 686.500 269.334 677.500 C 284.524 646.501, 301.285 608.929, 311.491 583 C 332.136 530.549, 335.992 508.987, 328.923 485.500 C 322.583 464.435, 309.680 450.531, 290.044 443.607 C 282.172 440.831, 280.419 440.590, 267.750 440.547 C 260.188 440.521, 254 440.224, 254 439.886 C 254 439.548, 255.752 434.598, 257.892 428.886 C 264.691 410.747, 276.632 374.142, 281.996 355 C 284.847 344.825, 287.325 336.003, 287.503 335.396 C 287.680 334.789, 291.352 333.973, 295.663 333.584 C 322.784 331.137, 363.610 320.249, 393.407 307.518 C 408.037 301.267, 428 291.202, 428 290.077 C 428 289.577, 423.471 280.847, 417.936 270.675 L 407.871 252.182 395.186 258.534 C 379.012 266.633, 360.895 273.838, 343.699 279.012 C 330.106 283.102, 303.722 288.988, 298.948 288.996 L 296.396 289 297.125 282.250 C 300.209 253.678, 300.615 195.854, 298.032 153 C 296.437 126.533, 296.096 123.981, 294.170 124.123 C 293.252 124.190, 283.763 125.090, 273.084 126.122 M 754 152.083 C 749.325 162.557, 745.374 171.478, 745.219 171.906 C 745.065 172.334, 750.915 175.744, 758.219 179.483 C 794.434 198.023, 833.706 225.712, 850.096 244.260 C 853.388 247.986, 853.858 248.210, 855.669 246.915 C 859.108 244.454, 886 219.697, 886 218.991 C 886 217.558, 863.965 196.947, 853.500 188.591 C 840.363 178.102, 812.959 159.743, 797 150.739 C 787.078 145.141, 763.550 132.963, 762.767 133.019 C 762.620 133.030, 758.675 141.608, 754 152.083 M 565.340 179.435 C 555.757 182.432, 551.309 188.367, 547.576 203.137 C 543.622 218.780, 542.672 232.119, 543.291 263.295 C 543.820 289.907, 544.987 305.147, 548.552 332 C 551.111 351.276, 555.234 376.001, 555.885 375.982 C 556.223 375.972, 563.025 370.071, 571 362.869 C 585.905 349.407, 677.210 268.089, 689.217 257.581 C 692.912 254.348, 695.695 251.315, 695.402 250.841 C 694.247 248.972, 673.327 230.592, 662.074 221.560 C 621.498 188.989, 585.255 173.207, 565.340 179.435 " stroke="none" fill="black" fill-rule="evenodd"/>
</svg>