<svg xmlns="http://www.w3.org/2000/svg" width="1000" height="1000" viewBox="0 0 1000 1000" version="1.1">
	<path d="M 602.478 98.386 C 602.207 99.549, 599.945 110.625, 597.452 123 C 589.364 163.138, 580.887 195.508, 574.800 209.500 C 565.616 230.612, 535.624 275.368, 505.021 313.628 L 500.920 318.755 510.478 337.063 C 515.735 347.132, 520.245 355.578, 520.499 355.833 C 521.141 356.474, 521.006 356.537, 658.250 291.965 C 679.013 282.197, 696 274.378, 696 274.592 C 696 274.805, 693.716 284.308, 690.925 295.709 C 685.187 319.147, 675.348 353.976, 668.847 373.865 C 664.628 386.774, 664.359 387.276, 660.989 388.547 C 617.780 404.846, 571.077 425.399, 551.521 436.723 C 515.064 457.831, 483.807 486.594, 462.109 519 C 432.828 562.732, 429.055 602.895, 452.066 625.906 C 463.589 637.429, 477.406 642.239, 499 642.244 C 556.744 642.258, 607.438 603.628, 652.013 525.642 C 665.165 502.633, 683.078 463.711, 693.604 435.273 L 698.500 422.046 707.500 419.084 C 725.154 413.274, 755 404.742, 755 405.506 C 755 405.707, 746.430 451.416, 735.955 507.082 L 716.910 608.294 722.149 616.897 C 725.030 621.629, 729.732 629.161, 732.597 633.635 L 737.807 641.770 748.153 638.988 C 763.757 634.793, 772.158 633.652, 787 633.709 C 819.216 633.834, 834.233 643.845, 838.639 668.135 C 840.280 677.181, 839.911 692.378, 837.843 700.854 C 832.202 723.981, 809.320 749.530, 773 773.256 C 726.360 803.723, 655.805 833.797, 579.137 855.889 C 569.587 858.641, 561.507 861.159, 561.182 861.485 C 560.221 862.446, 570.376 902.207, 571.714 902.720 C 575.305 904.099, 648.029 880.567, 683.500 866.549 C 798.662 821.037, 864.648 769.586, 879.521 713.707 C 880.940 708.376, 882.424 699.106, 882.918 692.496 C 887.185 635.316, 859.371 598.478, 806.236 590.939 C 801.434 590.257, 791.066 589.933, 781.486 590.164 C 772.419 590.383, 764.998 590.323, 764.995 590.031 C 764.992 589.739, 773.596 543.735, 784.117 487.801 L 803.244 386.101 795.171 372.301 C 783.652 352.610, 785.559 354.327, 776.852 355.812 C 765.350 357.775, 747.852 361.801, 731.700 366.202 C 723.561 368.420, 716.721 370.055, 716.502 369.835 C 716.282 369.615, 717.909 363.375, 720.117 355.968 C 726.549 334.389, 737.607 289.784, 742.490 265.720 C 744.970 253.499, 747 242.976, 747 242.335 C 747 241.694, 739.975 235.698, 731.390 229.009 L 715.779 216.849 711.140 218.862 C 708.588 219.969, 679.731 233.471, 647.013 248.867 C 614.295 264.262, 587.383 276.716, 587.208 276.542 C 587.034 276.367, 590.525 270.437, 594.967 263.362 C 612.219 235.883, 619.867 217.803, 628.342 184.465 C 637.296 149.239, 646.367 104.845, 644.807 103.881 C 644.237 103.529, 641.910 102.973, 639.636 102.645 C 637.361 102.318, 628.181 100.750, 619.235 99.161 L 602.970 96.271 602.478 98.386 M 298 101.623 C 286.725 103.996, 277.337 105.951, 277.139 105.968 C 276.252 106.046, 278.466 114.293, 281.711 123 C 296.537 162.779, 324.599 197.727, 361.732 222.657 C 375.767 232.080, 412.614 249.719, 414.443 247.891 C 414.711 247.622, 418.064 238.360, 421.893 227.309 L 428.855 207.215 422.678 205.004 C 413.611 201.759, 396.225 192.925, 386.764 186.756 C 357.196 167.475, 333.251 137.591, 322.461 106.500 C 320.934 102.100, 319.418 98.232, 319.092 97.905 C 318.767 97.577, 309.275 99.251, 298 101.623 M 299.500 427.536 C 272.691 436.488, 231.717 448.352, 213 452.580 C 174.009 461.389, 162.283 461.128, 147 451.111 C 140.857 447.085, 130.026 436.545, 127.315 431.956 C 126.163 430.005, 125.014 429.162, 124.023 429.537 C 120.378 430.917, 88 450.515, 88 451.341 C 88 453.384, 98.381 466.029, 106.668 474.081 C 131.235 497.949, 156.066 506.189, 189.500 501.569 C 209.698 498.778, 253.172 488.272, 280.703 479.530 C 284.944 478.183, 288.509 477.175, 288.624 477.290 C 288.739 477.406, 287.756 482, 286.440 487.500 C 280.248 513.368, 274.580 545.920, 271.551 573 C 262.900 650.360, 271.138 738.984, 292.539 798.789 C 296.539 809.967, 308.942 835.006, 310.470 834.989 C 311.037 834.982, 319.118 832.620, 328.428 829.739 L 345.357 824.500 350.077 801.369 C 366.594 720.424, 389.161 654.123, 408.402 630.010 L 412.730 624.586 398.115 608.777 L 383.500 592.969 377.994 598.752 C 360.035 617.613, 340.823 661.217, 324.414 720.363 L 320.567 734.227 319.306 727.390 C 317.128 715.594, 314.099 689.183, 312.896 671.500 C 311.432 649.998, 312.246 603.748, 314.453 583 C 319.045 539.826, 328.246 495.045, 339.415 461.502 L 343.744 448.504 335.225 433.752 C 330.541 425.638, 326.211 419.042, 325.604 419.094 C 324.997 419.145, 313.250 422.944, 299.500 427.536 M 629 448.398 C 569.217 474.375, 548.444 487.272, 521.493 515.145 C 500.951 536.389, 487.416 557.611, 482.362 576.500 C 480.957 581.750, 480.566 590.705, 481.621 593.455 C 484.302 600.440, 509.147 600.444, 527.697 593.462 C 564.154 579.740, 599.196 537.888, 631.909 468.997 C 637.646 456.916, 644.204 441.920, 643.693 442.049 C 643.587 442.075, 636.975 444.932, 629 448.398 " stroke="none" fill="black" fill-rule="evenodd"/>
</svg>