<svg xmlns="http://www.w3.org/2000/svg" width="1000" height="1000" viewBox="0 0 1000 1000" version="1.1">
	<path d="M 531 93.131 C 516.446 94.612, 493.260 98.862, 474.413 103.503 C 442.358 111.397, 419.248 118.886, 357 141.551 C 305.491 160.305, 295.475 162.795, 276.075 161.666 C 257.724 160.599, 241.449 154.974, 226.353 144.483 L 220.206 140.211 204.956 155.576 C 192.924 167.699, 189.943 171.226, 190.826 172.290 C 193.140 175.078, 207.893 185.061, 216.041 189.353 C 246.510 205.401, 280.256 209.732, 314 201.924 C 325.447 199.275, 332.217 197.007, 376.500 180.985 C 443.230 156.842, 472.155 147.937, 504.500 141.577 C 525.009 137.544, 539.791 136, 557.875 136 C 583.922 136, 597.566 138.968, 619.550 149.419 C 646.852 162.396, 660.286 175.299, 660.286 188.544 C 660.286 209.868, 625.487 242.381, 567.500 275.235 C 559.250 279.909, 539.225 290.608, 523 299.009 C 453.482 335.008, 411.205 359.260, 366.743 388.646 C 324.604 416.497, 295.715 439.281, 269.949 464.986 C 231.886 502.959, 213.160 534.702, 204.549 575.850 C 193.773 627.344, 194.717 689.860, 207.154 748.250 L 208.166 753 227.944 753 L 247.722 753 251.476 744.750 C 267.600 709.317, 302.218 663.852, 337.944 631.187 C 404.949 569.923, 484.749 533.653, 577 522.534 C 654.879 513.146, 720.068 525.912, 748.565 556.129 C 766.770 575.433, 765.873 596.750, 746 617.087 C 728.993 634.491, 702.725 646.588, 664.500 654.621 C 563.734 675.797, 503.105 701.645, 468.374 738.238 C 438.778 769.418, 433.438 805.220, 452.821 842.500 C 458.461 853.348, 470.810 866.400, 481 872.285 C 498.145 882.185, 521.241 888.155, 558 892.190 C 573.263 893.865, 639.124 893.851, 662 892.167 C 700.257 889.352, 771.644 881.074, 774.872 879.079 C 775.594 878.633, 774.807 871.721, 772.415 857.494 C 770.481 845.982, 768.808 836.480, 768.699 836.377 C 768.589 836.274, 761.300 837.233, 752.500 838.508 C 732.698 841.377, 695.543 845.510, 671 847.574 C 645.346 849.732, 588.365 850.583, 569.466 849.091 C 534.546 846.333, 510.085 840.268, 498.621 831.524 C 494.537 828.409, 487.822 815.968, 485.995 808.132 C 484.119 800.084, 485.217 792.182, 489.447 783.273 C 495.858 769.773, 514.038 753.729, 537 741.306 C 566.045 725.592, 612.773 710.230, 664 699.554 C 698.998 692.260, 714.076 687.549, 734.500 677.528 C 765.118 662.505, 784.480 644.886, 796.070 621.500 C 802.596 608.333, 805 598.584, 805 585.287 C 805 549.263, 783.139 519.087, 742.500 499.016 C 721.891 488.838, 702.943 483.161, 675.500 478.942 C 655.564 475.878, 612.456 475.138, 588 477.440 C 558.025 480.263, 531.692 484.772, 505 491.655 C 403.373 517.860, 313.192 578.772, 249.973 663.911 C 243.740 672.304, 241.401 674.816, 241.125 673.411 C 240.214 668.766, 241.984 617.600, 243.403 607.565 C 245.556 592.339, 248.753 577.025, 251.645 568.080 C 270.286 510.436, 343.598 447.159, 478.500 372.277 C 496.094 362.511, 512.922 353.572, 559.500 329.248 C 612.219 301.718, 644.617 280.058, 669.062 256 C 685.342 239.978, 694.997 225.876, 700.622 209.904 C 704.102 200.022, 705.007 183.510, 702.590 173.981 C 695.350 145.436, 669.131 121.744, 625.162 104.017 C 603.925 95.455, 583.392 91.916, 556.199 92.133 C 547.014 92.206, 535.675 92.655, 531 93.131 " stroke="none" fill="black" fill-rule="evenodd"/>
</svg>