<svg xmlns="http://www.w3.org/2000/svg" width="1000" height="1000" viewBox="0 0 1000 1000" version="1.1">
	<path d="M 281.550 122.264 C 280.270 125.144, 276.235 133.990, 272.583 141.922 C 268.931 149.854, 266.294 156.690, 266.722 157.114 C 268.474 158.849, 301.808 171.672, 322.430 178.545 C 358.965 190.720, 392.898 198.358, 422.500 201.069 C 430.803 201.829, 443.235 202.034, 456.909 201.637 C 468.684 201.295, 478.134 201.178, 477.909 201.376 C 477.684 201.575, 473.450 204.792, 468.500 208.526 C 427.489 239.460, 396.407 276.177, 383.872 308.500 C 377.220 325.653, 375.686 333.842, 375.630 352.500 C 375.584 367.846, 375.798 370.050, 377.825 375.153 C 383.743 390.049, 396.833 399.607, 416.937 403.712 C 429.772 406.333, 455.487 405.800, 480.115 402.402 L 484.729 401.765 423.560 463.133 C 343.346 543.606, 326.443 561.869, 288.096 609.500 C 238.070 671.638, 102.717 844.691, 103.175 845.926 C 103.613 847.106, 135.675 872.010, 136.695 871.962 C 137.138 871.942, 151.900 853.417, 169.500 830.797 C 205.580 784.425, 202.420 787.540, 235.500 765.738 C 309.060 717.256, 377.128 694.637, 419.730 704.517 C 434.367 707.912, 449.836 717.800, 464.514 733.144 C 474.772 743.867, 481.569 752.434, 503.021 781.680 C 512.630 794.781, 523.988 809.891, 528.260 815.258 C 559.192 854.115, 588.936 875.757, 623.435 884.509 C 660.202 893.835, 700.774 887.531, 745.500 865.542 C 783.582 846.820, 819.416 820.464, 860.038 781.300 C 870.633 771.085, 892.636 747.587, 897.904 740.860 L 899.972 738.221 883.236 724.623 L 866.500 711.025 859.091 719.262 C 855.016 723.793, 843.316 735.838, 833.091 746.029 C 780.271 798.672, 729.943 831.113, 684.500 841.811 C 675.022 844.042, 671.286 844.396, 657.500 844.369 C 638.400 844.331, 631.026 842.692, 615.500 835.030 C 602.894 828.808, 594.162 822.263, 581.500 809.545 C 569.235 797.225, 561.508 787.625, 537.998 755.500 C 510.799 718.335, 497.780 702.951, 482.797 690.278 C 461.812 672.528, 442.043 663.155, 418.906 659.987 C 407.091 658.369, 384.300 658.624, 371.470 660.517 C 345.783 664.307, 316.659 673.370, 286.668 686.906 L 279.836 689.990 285.145 683.245 C 301.547 662.407, 339.115 615.572, 343.896 610 C 375.797 572.825, 430.461 516.312, 498.380 450.291 C 524.290 425.106, 549.382 400.675, 554.139 396 L 562.789 387.500 558.434 364.622 C 556.038 352.040, 553.835 341.502, 553.539 341.206 C 553.243 340.909, 545.463 342.768, 536.250 345.336 C 506.299 353.685, 480.450 358.815, 457 361.061 C 444.668 362.243, 428.346 361.836, 422.500 360.201 C 419.531 359.371, 419.497 359.281, 419.206 351.574 C 418.252 326.294, 438.048 292.720, 471.768 262.431 C 500.273 236.826, 536.448 212.941, 582 189.649 C 594.925 183.040, 605.447 177.152, 605.382 176.566 C 605.317 175.980, 602.211 166.803, 598.480 156.173 C 592.245 138.413, 591.525 136.893, 589.598 137.423 C 588.444 137.740, 578.403 140.039, 567.285 142.533 C 500.873 157.426, 443.874 161.628, 403.567 154.602 C 370.614 148.857, 320.899 133.639, 290.439 119.973 L 283.877 117.029 281.550 122.264 " stroke="none" fill="black" fill-rule="evenodd"/>
</svg>