<svg xmlns="http://www.w3.org/2000/svg" width="1000" height="1000" viewBox="0 0 1000 1000" version="1.1">
	<path d="M 544.450 85.681 C 538.809 96.714, 527.112 114.869, 518.341 126.206 C 482.700 172.277, 432.389 209.469, 374.569 232.490 C 366.333 235.769, 360.088 238.802, 360.316 239.413 C 360.539 240.011, 363.772 249.162, 367.502 259.750 C 371.231 270.337, 374.685 279, 375.176 279 C 376.698 279, 398.903 270.005, 410.486 264.696 C 486.581 229.820, 551.155 169.797, 584.781 102.684 C 587.762 96.735, 590.043 91.722, 589.850 91.545 C 589.396 91.126, 550.495 76, 549.873 76 C 549.613 76, 547.173 80.356, 544.450 85.681 M 610.500 293.684 C 588.446 294.808, 555.235 299.674, 529.863 305.499 C 445.797 324.799, 347.631 370.746, 263.123 430.349 C 256.315 435.150, 250.569 438.902, 250.354 438.687 C 249.676 438.009, 253.889 417.741, 257.046 406.501 C 263.267 384.343, 272.293 363.891, 281.756 350.507 L 286.701 343.513 271.635 327.715 L 256.570 311.917 253.276 315.708 C 231.173 341.150, 211.192 393.137, 205.954 438.834 C 204.600 450.642, 205.216 478.970, 206.982 486.168 L 208.127 490.837 223.314 496.432 C 231.666 499.509, 239.111 502.021, 239.858 502.013 C 240.606 502.006, 244.656 499.155, 248.858 495.678 C 292.967 459.188, 365.172 414.861, 423.500 388.465 C 495.874 355.712, 561.031 339.015, 623 337.342 C 668.776 336.106, 708.750 341.121, 729.185 350.665 C 739.223 355.353, 742.478 358.669, 741.706 363.422 C 739.495 377.046, 711.474 399.058, 679.500 412.287 C 664.778 418.378, 632.859 427.856, 610 432.926 C 571.850 441.386, 544.902 445.039, 514.500 445.871 L 491.500 446.500 490.767 458 C 489.500 477.874, 485.159 566.730, 483.336 610.116 L 481.588 651.732 467.044 653.427 C 425.389 658.282, 382.521 668.381, 359 678.879 C 323.822 694.581, 306.839 717.201, 308.237 746.494 C 309.416 771.199, 323.325 795.624, 352.944 825 C 375.440 847.312, 406.286 871.240, 442.802 894.702 C 459.261 905.278, 496.729 926.995, 498.522 926.998 C 499.084 926.999, 503.460 919.012, 508.246 909.250 L 516.947 891.500 518.466 859 C 521.214 800.234, 523.981 720.947, 523.995 700.615 L 524 693.730 537.750 694.422 C 576.919 696.394, 611.380 702.547, 645.249 713.616 C 659.698 718.338, 677.243 725.476, 687 730.600 C 690.025 732.189, 692.788 733.625, 693.139 733.791 C 693.797 734.102, 716.005 698.593, 715.993 697.250 C 715.975 695.244, 693.247 684.560, 672 676.570 C 636.871 663.360, 589.244 653.418, 552 651.521 C 545.675 651.199, 537.237 650.686, 533.250 650.382 L 526 649.829 526 642.073 C 526 630.895, 531.220 515.858, 532.565 497.399 L 533.155 489.297 544.827 488.077 C 606.298 481.650, 675.050 464.044, 712.950 445.025 C 739.200 431.852, 762.631 413.270, 773.918 396.675 C 796.221 363.881, 786.836 330.441, 750.171 312.064 C 741.541 307.738, 725.558 302.526, 713.500 300.106 C 685.731 294.531, 644.420 291.955, 610.500 293.684 M 473 696.667 C 471.625 696.883, 465.550 697.740, 459.500 698.571 C 423.712 703.484, 387.631 712.903, 370.679 721.759 C 362.627 725.966, 354.768 732.733, 353.012 736.972 C 347.003 751.478, 364.651 778.733, 399.500 808.769 C 421.447 827.685, 472.020 863.480, 473.893 861.425 C 475.105 860.095, 479.954 737.412, 479.988 707.250 C 480.001 694.783, 480.468 695.489, 473 696.667 " stroke="none" fill="black" fill-rule="evenodd"/>
</svg>