<svg xmlns="http://www.w3.org/2000/svg" width="1000" height="1000" viewBox="0 0 1000 1000" version="1.1">
	<path d="M 611 131.522 C 525.131 138.554, 504.524 139.503, 438.500 139.460 C 378.560 139.422, 348.422 138.381, 309.516 135.004 C 303.492 134.482, 299.307 134.503, 298.963 135.059 C 298.335 136.075, 294.715 177.048, 295.210 177.543 C 295.627 177.960, 333.404 180.653, 360.500 182.198 C 373.321 182.928, 406.700 183.462, 440.500 183.476 C 500.576 183.501, 501.615 183.458, 583.250 177.639 L 600 176.445 600 192.472 C 599.998 253.515, 593.660 334.810, 584.874 386.500 C 575.839 439.653, 564.845 472.589, 547.323 499 C 540.182 509.762, 526.016 527.928, 521.978 531.500 L 519.717 533.500 520.345 530 C 522.819 516.214, 523.422 507.919, 523.433 487.500 C 523.447 461.959, 521.934 451.544, 515.960 436.053 C 507.416 413.896, 489.586 397.491, 466.973 390.978 C 456.360 387.922, 434 387.165, 421.039 389.424 C 366.862 398.865, 319.206 445.890, 304.926 504 C 301.675 517.228, 301.633 541.510, 304.840 553.500 C 309.170 569.688, 320.971 588.924, 332.160 598.033 C 364.777 624.588, 401.820 634.744, 443.250 628.490 C 445.863 628.096, 448 628.045, 448 628.377 C 448 629.383, 440.254 649.426, 435.068 661.836 C 432.388 668.251, 425.383 683.625, 419.503 696 C 392.599 752.621, 384.770 776.235, 384.693 801 C 384.595 832.349, 399.775 851.467, 433.500 862.470 C 467.027 873.409, 527.251 875.314, 607 867.958 C 641.304 864.793, 708.647 855.791, 710.109 854.174 C 710.536 853.703, 703.694 812.234, 703.057 811.427 C 703.026 811.387, 696.813 812.363, 689.250 813.595 C 658.630 818.584, 607.963 824.343, 570 827.151 C 544.380 829.046, 494.534 828.786, 477.221 826.667 C 452.352 823.624, 435.418 818.177, 430.597 811.669 C 428.825 809.278, 428.514 807.494, 428.590 800.169 C 428.759 783.888, 435.275 765.514, 458.278 716.459 C 474.040 682.843, 486.246 653.009, 496.122 623.950 L 502.427 605.401 509.964 600.253 C 538.905 580.487, 569.310 547.576, 589.865 513.767 C 612.874 475.920, 628.216 414.725, 636.953 325.949 C 642.394 270.674, 645.493 181.081, 643.346 141.157 C 642.726 129.629, 642.584 129.007, 640.596 129.135 C 639.443 129.209, 626.125 130.284, 611 131.522 M 431.755 432.048 C 402.956 435.403, 372.708 458.619, 356.790 489.585 C 344.941 512.636, 342.779 535.324, 350.846 551.980 C 361.127 573.209, 399.353 589.858, 429.349 586.172 C 439.718 584.897, 453.286 581.261, 460.674 577.776 L 465.500 575.500 469.665 558.963 C 476.407 532.197, 479.103 514.367, 479.713 492.500 C 480.290 471.844, 479.262 463.029, 474.938 451.531 C 471.831 443.273, 464.473 435.993, 457 433.783 C 449.986 431.709, 440.348 431.047, 431.755 432.048 " stroke="none" fill="black" fill-rule="evenodd"/>
</svg>