<svg xmlns="http://www.w3.org/2000/svg" width="1000" height="1000" viewBox="0 0 1000 1000" version="1.1">
	<path d="M 611.411 124.454 C 565.758 128.800, 525.682 137.171, 429 162.556 C 370.456 177.928, 340.856 182.967, 309 182.987 C 268.056 183.013, 213.343 173.963, 167.831 159.636 L 157.162 156.277 150.081 175.912 C 146.186 186.712, 143 196.023, 143 196.605 C 143 197.186, 148.963 199.524, 156.250 201.799 C 215.100 220.172, 281.654 229.473, 330 226.082 C 364.063 223.693, 383.301 219.701, 472.500 196.513 C 538.759 179.288, 578.873 171.398, 617.812 167.933 C 637.004 166.224, 679.093 167.284, 693.500 169.838 C 715.521 173.742, 732.945 179.342, 749.481 187.831 C 774.519 200.684, 790.506 229.181, 798.687 275.543 C 800.099 283.546, 800.443 291.289, 800.440 315 C 800.436 340.713, 800.145 346.348, 798.174 358.893 C 786.799 431.293, 752.932 489.401, 706.626 515.970 C 677.784 532.519, 619.776 549.753, 572 555.968 C 556.229 558.020, 511.485 560.818, 510.482 559.815 C 510.179 559.513, 509.469 556.395, 508.905 552.888 C 506.280 536.589, 497.448 527.368, 483.382 526.238 C 475.450 525.602, 465.599 528.542, 458 533.816 C 450.782 538.825, 442.716 549.580, 439.026 559.117 C 436.166 566.507, 430.727 592.736, 431.912 593.424 C 432.235 593.611, 438.575 595.018, 446 596.549 C 453.425 598.080, 459.610 599.406, 459.745 599.495 C 460.428 599.946, 449.078 639.828, 442.933 658.566 C 434.105 685.483, 429.930 695.515, 419.353 715.215 C 394.591 761.335, 388.887 781.271, 393.474 805.662 C 397.967 829.556, 418.148 850.478, 447.938 862.125 C 465.880 869.140, 482.470 872.648, 512 875.670 C 532.533 877.771, 603.371 878.069, 633.500 876.181 C 673.241 873.691, 728.619 868.714, 729.807 867.527 C 730.432 866.902, 725.763 827.234, 724.900 825.838 C 724.396 825.023, 718.128 825.305, 701.854 826.874 C 610.742 835.661, 531.354 836.250, 489 828.452 C 469.408 824.846, 453.834 818.357, 444.673 809.984 C 437.428 803.363, 435.517 798.531, 436.268 788.731 C 437.038 778.690, 441.033 768.457, 453.672 744.155 C 468.875 714.922, 471.214 709.936, 476.974 694.473 C 483.310 677.463, 493.570 644.280, 498.456 625 C 500.476 617.025, 502.568 608.813, 503.103 606.750 L 504.077 603 523.378 603 C 579.296 603, 642.393 590.406, 698.284 568.090 C 722.397 558.463, 738.441 549.127, 755.563 534.759 C 804.224 493.928, 837.352 421.846, 844.068 342.185 C 845.703 322.783, 844.769 288.556, 842.134 271.344 C 834.019 218.345, 813.422 178.553, 783 157.104 C 762.217 142.450, 731.319 131.408, 695.500 125.832 C 678.579 123.199, 632.528 122.444, 611.411 124.454 " stroke="none" fill="black" fill-rule="evenodd"/>
</svg>