<svg xmlns="http://www.w3.org/2000/svg" width="1000" height="1000" viewBox="0 0 1000 1000" version="1.1">
	<path d="M 199 180 L 199 202 337 202 L 475 202 475 333 L 475 464 295 464 L 115 464 115 486 L 115 508 295 508 L 475 508 475 663 C 475 748.250, 474.804 818, 474.563 818 C 474.323 818, 467.911 814.029, 460.313 809.176 C 426.734 787.727, 389.977 767.046, 352.500 748.516 C 339.850 742.261, 328.938 736.999, 328.252 736.822 C 327.487 736.625, 323.517 744.034, 318.002 755.951 C 313.051 766.648, 309 775.500, 309 775.621 C 309 775.742, 320.813 781.704, 335.250 788.871 C 387.304 814.712, 442.648 847.787, 478.796 874.660 L 490.093 883.057 504.546 870.408 L 519 857.760 519 682.883 L 519 508.005 701.750 507.753 L 884.500 507.500 884.770 485.750 L 885.039 464 702.020 464 L 519 464 519 333.004 L 519 202.007 657.750 201.754 L 796.500 201.500 796.770 179.750 L 797.039 158 498.020 158 L 199 158 199 180 " stroke="none" fill="black" fill-rule="evenodd"/>
</svg>