<svg xmlns="http://www.w3.org/2000/svg" width="1000" height="1000" viewBox="0 0 1000 1000" version="1.1">
	<path d="M 372.763 102.844 C 363.008 108.705, 355.020 113.819, 355.013 114.210 C 355.006 114.600, 357.926 118.799, 361.503 123.541 C 390.326 161.758, 431.807 190.090, 480 204.477 C 500.756 210.673, 517.560 213.075, 544.500 213.698 C 562.360 214.111, 570.740 213.855, 582 212.553 C 605.568 209.828, 638.726 202.878, 639.650 200.469 C 639.981 199.608, 629.483 160.440, 628.623 159.329 C 628.551 159.235, 623.203 160.448, 616.740 162.024 C 574.425 172.347, 535.062 173.151, 499.857 164.413 C 465.077 155.780, 436.021 139.309, 411 114.040 C 405.225 108.208, 398.738 100.863, 396.584 97.718 C 394.430 94.573, 392.180 92.042, 391.584 92.094 C 390.988 92.146, 382.518 96.983, 372.763 102.844 M 339.897 223.750 C 334.836 236.968, 333.975 255.766, 337.810 269.299 C 344.320 292.266, 357.926 304.999, 386.630 314.990 L 395.761 318.167 379.130 330.749 C 333.266 365.449, 301.041 392.891, 276.500 418.147 C 247.217 448.283, 236.439 466.451, 236.544 485.500 C 236.645 503.859, 248.118 516.479, 269.598 521.859 C 285.161 525.757, 295.051 526.502, 330.500 526.447 C 364.475 526.393, 376.609 525.742, 414.839 521.921 C 426.026 520.803, 435.810 520.026, 436.581 520.194 C 437.497 520.394, 432.837 527.798, 423.173 541.500 C 415.027 553.050, 394.699 582.075, 378 606 C 328.860 676.401, 311.986 699.240, 295.620 717.500 C 268.469 747.791, 233.851 785.213, 181.075 841.320 C 161.509 862.121, 145.588 879.360, 145.694 879.629 C 146.216 880.937, 176.451 909.012, 177.083 908.774 C 178.699 908.166, 274.431 805.916, 307.478 769.500 C 323.871 751.436, 331.143 744.188, 336.879 740.197 C 357.518 725.835, 394.339 705.851, 414.421 698.113 C 432.651 691.088, 442.907 688.713, 455.500 688.599 C 465.931 688.505, 466.783 688.655, 471.974 691.500 C 479.631 695.696, 487.840 704.241, 492.152 712.503 C 497.590 722.922, 501.178 734.071, 506.955 758.500 C 516.354 798.246, 520.375 810.843, 529.378 828.747 C 537.436 844.773, 550.532 860.982, 562.907 870.247 C 583.851 885.927, 622.326 896.313, 677.500 901.177 C 697.685 902.957, 788.498 902.965, 815 901.189 C 839.074 899.576, 868.239 897.094, 868.714 896.619 C 869.061 896.273, 865.115 856.487, 864.536 854.483 C 864.341 853.809, 857.438 854.031, 844.063 855.139 C 794.709 859.230, 723.519 860.569, 689 858.055 C 633.408 854.008, 598.073 844.915, 584.260 831.102 C 568.875 815.718, 561.307 798.266, 551.037 754.500 C 542.488 718.065, 537.490 703.219, 528.947 688.889 C 509.708 656.616, 480.115 640.985, 445.803 644.974 C 433.404 646.416, 416.754 650.528, 404.250 655.238 C 399.162 657.154, 395 658.559, 395 658.360 C 395 657.543, 495.017 515.092, 497.924 511.767 C 498.277 511.365, 508.448 509.207, 520.528 506.972 C 635.796 485.649, 711.198 456.666, 738.185 423.309 C 760.527 395.694, 769.915 366.592, 765.614 338.280 C 761.112 308.643, 743.583 287.335, 716.167 278.172 C 709.341 275.891, 706.854 275.605, 693.500 275.559 C 680.089 275.513, 677.441 275.801, 668.500 278.277 C 656.560 281.585, 639.939 289.534, 627.321 297.972 C 595.059 319.546, 553.162 365.321, 494.513 443.075 C 483.136 458.159, 473.303 470.608, 472.663 470.740 C 460.532 473.243, 394.820 480.291, 368 481.966 C 338.262 483.824, 292.270 482.968, 283.767 480.400 C 282.135 479.907, 282.133 479.721, 283.728 477.188 C 295.715 458.153, 326.465 428.315, 371.625 391.900 C 388.447 378.334, 429.155 347.746, 445.313 336.529 C 452.359 331.637, 458.484 326.930, 458.922 326.067 C 459.773 324.394, 462.591 285.240, 461.907 284.599 C 461.683 284.390, 454.603 283.477, 446.173 282.571 C 414.810 279.199, 388.831 271.686, 383.028 264.309 C 380.004 260.463, 378.702 254.315, 379.323 246.798 L 379.876 240.096 361.516 230.548 C 351.418 225.297, 342.660 221, 342.053 221 C 341.447 221, 340.477 222.238, 339.897 223.750 M 677.500 321.381 C 659.995 327.110, 644.793 337.497, 623.171 358.500 C 602.986 378.108, 585.938 397.275, 561.358 428 C 542.842 451.145, 536.971 459, 538.192 459 C 541.292 459, 585.448 448.253, 602 443.469 C 645.925 430.776, 676.578 417.994, 694.181 405.031 C 710.217 393.222, 723 369.233, 723 350.945 C 723 337.790, 716.427 325.970, 706.556 321.374 C 699.593 318.132, 687.417 318.135, 677.500 321.381 " stroke="none" fill="black" fill-rule="evenodd"/>
</svg>