<svg xmlns="http://www.w3.org/2000/svg" width="1000" height="1000" viewBox="0 0 1000 1000" version="1.1">
	<path d="M 678.920 150.309 C 633.941 209.932, 593.277 256.842, 543.056 307.043 C 496.335 353.746, 461.989 383.857, 414 420.189 C 336.049 479.204, 249.025 528.083, 153.500 566.504 C 144.150 570.265, 136.114 573.674, 135.641 574.080 C 134.483 575.075, 149.894 614, 151.447 614 C 152.121 614, 161.408 610.463, 172.086 606.140 C 297.634 555.311, 405.266 489.420, 506.750 401.262 L 521 388.883 521 549.778 C 521 638.270, 520.702 728.295, 520.338 749.834 L 519.675 788.995 319.588 789.248 L 119.500 789.500 119.230 811.250 L 118.961 833 420.730 832.999 C 586.704 832.999, 758.612 832.700, 802.750 832.335 L 883 831.671 883 810.335 L 883 789 723.395 789 L 563.790 789 564.535 568.250 L 565.280 347.500 584.805 327.500 C 610.238 301.449, 637.438 271.276, 662.076 241.784 C 688.590 210.047, 730.028 156.581, 728.875 155.596 C 728.669 155.420, 720.772 149.616, 711.326 142.697 L 694.152 130.119 678.920 150.309 " stroke="none" fill="black" fill-rule="evenodd"/>
</svg>