<svg xmlns="http://www.w3.org/2000/svg" width="1000" height="1000" viewBox="0 0 1000 1000" version="1.1">
	<path d="M 177.598 89.750 C 170.436 150.552, 161.817 247.147, 157.544 314.500 C 153.537 377.650, 152.639 405.009, 152.570 466 C 152.500 527.092, 152.884 538.044, 156.577 580.500 C 164.709 673.981, 184.905 761.959, 209.480 810.960 L 214.974 821.914 224.237 818.041 C 229.332 815.912, 238.225 812.141, 244 809.663 L 254.500 805.156 255.154 781.328 C 255.513 768.223, 256.532 752.100, 257.417 745.500 C 266.506 677.751, 287.219 617.318, 320.776 560.639 C 326.138 551.582, 326.981 549.563, 325.853 548.486 C 324.039 546.755, 290.828 525.831, 290.489 526.205 C 289.096 527.745, 277.183 548.381, 271.270 559.500 C 251.589 596.505, 234.860 640.204, 225.522 679 C 218.757 707.109, 220.128 707.045, 214.679 679.500 C 194.489 577.434, 191.024 474.357, 202.088 305 C 205.869 247.137, 212.461 172.487, 218.866 115 C 220.429 100.975, 221.661 89.429, 221.604 89.343 C 221.516 89.210, 179.599 84, 178.617 84 C 178.429 84, 177.971 86.588, 177.598 89.750 M 451 101.247 C 440.275 105.143, 431.358 108.436, 431.185 108.565 C 430.563 109.024, 437.313 121.598, 440.813 126.500 C 466.048 161.844, 509.485 186.053, 568.210 197.504 C 582.063 200.205, 583.880 200.917, 594.168 207.686 C 621.461 225.642, 639.506 259.670, 643.918 301.500 C 645.591 317.373, 647.938 363.410, 649.558 412.143 L 650.211 431.786 637.355 432.643 C 630.285 433.114, 604.700 433.486, 580.500 433.469 C 533.216 433.435, 513.887 432.266, 481.531 427.484 C 452.069 423.130, 426.124 416.570, 418.734 411.607 C 413.938 408.385, 413.803 403.045, 418.281 393.648 C 422.087 385.660, 431.461 372.809, 438.417 366.042 C 440.938 363.590, 443 361.189, 443 360.707 C 443 360.225, 436.587 352.632, 428.750 343.834 L 414.500 327.838 406.406 336.300 C 379.743 364.176, 367.260 392.778, 371.946 415.263 C 374.732 428.629, 384.767 442.331, 397.238 449.794 C 419.594 463.173, 474.918 473.532, 543 477.087 C 564.801 478.225, 619.664 477.818, 640.750 476.362 L 650 475.723 649.994 501.611 C 649.980 567.823, 643.927 637.192, 634.485 679.349 C 631.425 693.010, 625.841 711.124, 621.800 720.500 C 611.706 743.920, 584.399 772.720, 545.500 800.973 C 513.972 823.872, 468.346 850.762, 426.292 871.227 C 409.227 879.532, 408.137 880.227, 408.946 882.294 C 411.194 888.040, 425.099 918.494, 425.756 919.109 C 426.739 920.031, 455.471 906.073, 480.500 892.514 C 563.252 847.686, 620.424 803.281, 648.538 762 C 674.693 723.595, 688.482 655.977, 692.994 544 C 693.537 530.525, 693.985 508.608, 693.991 495.295 L 694 471.091 697.250 470.587 C 765.246 460.048, 804.641 450.096, 852 431.495 C 869.808 424.501, 877.188 421.142, 876.731 420.239 C 876.525 419.833, 872.423 410.908, 867.615 400.406 L 858.872 381.312 845.074 387.073 C 813.115 400.415, 777.813 411.092, 739.500 419.002 C 722.827 422.444, 694.729 427.024, 694.086 426.405 C 693.858 426.185, 693.524 421.392, 693.342 415.753 C 691.287 351.893, 688.656 303.258, 686.433 288.014 C 682.207 259.041, 671.661 230.740, 657.498 210.372 L 653.237 204.244 666.369 203.564 C 698.515 201.899, 732.400 197.932, 765.961 191.904 C 785.989 188.307, 828.190 179.072, 829.297 178.045 C 829.959 177.431, 820.578 137.245, 819.528 136.195 C 819.344 136.010, 810.937 137.731, 800.846 140.020 C 735.490 154.841, 684.500 160.831, 633.500 159.679 C 585.602 158.597, 552.676 152.006, 522.500 137.457 C 501.873 127.513, 485.481 114.510, 476.453 100.929 C 473.919 97.118, 471.543 94.036, 471.173 94.081 C 470.803 94.126, 461.725 97.350, 451 101.247 " stroke="none" fill="black" fill-rule="evenodd"/>
</svg>