<svg xmlns="http://www.w3.org/2000/svg" width="1000" height="1000" viewBox="0 0 1000 1000" version="1.1">
	<path d="M 302.725 142.750 C 302.445 143.713, 298.824 152.720, 294.679 162.766 L 287.141 181.032 290.821 182.603 C 299.826 186.447, 339.828 199.191, 353 202.412 C 384.214 210.046, 404.710 212.142, 427.966 210.081 C 443.167 208.734, 473.313 204.959, 491.982 202.066 C 498.847 201.002, 504.598 200.265, 504.762 200.429 C 505.315 200.981, 442.414 307.659, 399.177 379.500 C 283.002 572.528, 189.120 717.893, 127.424 800.274 L 111.117 822.047 119.809 828.899 C 124.589 832.668, 132.315 838.755, 136.977 842.426 C 143.698 847.719, 145.665 848.821, 146.477 847.749 C 183.261 799.163, 206.595 765.948, 249.301 701.388 C 326.123 585.252, 424.982 424.302, 533.003 239.500 L 559.307 194.500 555.993 170.682 C 552.806 147.773, 552.600 146.884, 550.590 147.386 C 544.640 148.874, 501.550 156.313, 481 159.400 C 424.286 167.920, 404.170 168.736, 379.207 163.531 C 358.249 159.161, 333.376 151.890, 313.664 144.370 C 303.400 140.455, 303.392 140.454, 302.725 142.750 M 563.518 333.250 C 539.282 357.582, 525.977 372.588, 510.990 392.500 C 476.977 437.687, 463.255 474.733, 469.504 504.500 C 473.551 523.775, 487.877 540.496, 508.687 550.234 L 515.228 553.295 502.364 557.999 C 426.460 585.752, 392.157 617.013, 394.280 656.500 C 396.083 690.051, 424.091 711.169, 476.500 718.493 C 490.200 720.407, 524.626 722.022, 536.092 721.288 L 544.684 720.738 545.289 741.119 C 546.425 779.420, 551.603 805.103, 562.684 827.397 C 568.654 839.407, 572.015 844.144, 580.931 853.114 C 612.974 885.347, 683.029 902.043, 749.960 893.397 C 811.472 885.451, 860.688 858.132, 888.494 816.500 C 917.708 772.761, 922.844 714.794, 903.423 648 C 901.424 641.125, 899.552 634.687, 899.263 633.693 C 898.916 632.502, 898.186 632.108, 897.119 632.538 C 895.456 633.206, 857.753 646, 857.445 646 C 857.351 646, 858.784 651.063, 860.630 657.250 C 871.688 694.328, 874.092 730.044, 867.378 757.500 C 856.089 803.660, 817.444 835.928, 759.646 847.452 C 729.408 853.481, 699.623 853.487, 669.441 847.470 C 635.745 840.752, 613.537 828.717, 603.623 811.801 C 594.427 796.108, 589 767.390, 589 734.413 C 589 719.266, 589.033 719.032, 591.250 718.597 C 592.487 718.354, 600.925 717.413, 610 716.505 C 645.857 712.919, 692.791 705.766, 732.750 697.797 L 754 693.559 754 675.954 L 754 658.349 746.490 653.592 C 733.315 645.246, 709.093 625.590, 683.475 602.456 L 671.544 591.682 662.704 601.091 C 657.843 606.266, 651.188 613.494, 647.915 617.153 L 641.965 623.807 655.233 635.812 C 662.530 642.415, 672.174 650.896, 676.665 654.659 C 681.629 658.818, 684.374 661.757, 683.665 662.155 C 680.639 663.858, 593.748 675.115, 592.637 673.949 C 590.836 672.059, 607.239 576.203, 609.755 573.911 C 610.462 573.267, 627.628 569.924, 649.500 566.170 C 658.338 564.653, 659.480 564.224, 659.332 562.477 C 659.239 561.390, 657.442 550.263, 655.337 537.750 C 652.319 519.805, 651.193 515.005, 650.005 515.026 C 649.177 515.040, 642.875 515.888, 636 516.911 C 629.125 517.933, 623.338 518.622, 623.139 518.441 C 622.941 518.260, 625.190 509.649, 628.137 499.306 C 631.085 488.963, 633.497 480.105, 633.498 479.622 C 633.500 478.714, 593.065 465.601, 592.379 466.287 C 591.744 466.923, 586.210 485.882, 581.592 503.243 L 577.268 519.500 573.384 519.834 C 563.129 520.714, 536.625 515.371, 526.911 510.463 C 515.458 504.678, 512.013 499.943, 512.005 489.980 C 511.988 468.298, 531.440 433.749, 566.197 393.726 C 570.126 389.202, 582.773 375.978, 594.300 364.340 L 615.259 343.181 601.018 327.090 C 593.186 318.241, 586.531 311, 586.229 311 C 585.928 311, 575.708 321.012, 563.518 333.250 M 554.500 587.157 C 543.040 590.280, 517.404 598.887, 503.648 604.229 C 473.120 616.086, 448.710 631.517, 440.822 643.946 C 437.577 649.057, 437.007 656.137, 439.546 659.762 C 443.380 665.235, 457.928 670.992, 475.500 673.988 C 494.095 677.158, 535.730 679.204, 544.789 677.392 C 547.682 676.814, 547.861 676.488, 548.494 670.642 C 550.073 656.071, 555.384 621.080, 558.591 604.117 C 560.503 594.006, 561.940 585.625, 561.784 585.492 C 561.628 585.359, 558.350 586.108, 554.500 587.157 " stroke="none" fill="black" fill-rule="evenodd"/>
</svg>