<svg xmlns="http://www.w3.org/2000/svg" width="1000" height="1000" viewBox="0 0 1000 1000" version="1.1">
	<path d="M 297 114.778 C 286.275 116.181, 277.335 117.457, 277.133 117.615 C 276.931 117.772, 278.158 129.736, 279.861 144.201 C 291.329 241.635, 299.686 345.290, 300.283 397.494 L 300.500 416.487 294 417.369 C 283.548 418.788, 235.869 418.670, 224 417.196 C 208.250 415.240, 185.909 410.529, 173.150 406.474 C 166.908 404.489, 161.695 403.009, 161.566 403.183 C 161.334 403.498, 145.205 439.483, 144.344 441.608 C 143.788 442.980, 157.449 447.939, 173 452.012 C 186.847 455.639, 208.341 459.463, 224.010 461.087 C 237.614 462.497, 270.411 462.819, 288 461.716 L 300.500 460.931 300.510 597.216 C 300.521 746.008, 301.501 792.972, 306.155 867.850 C 307.052 882.286, 307.700 887.331, 308.705 887.717 C 310.100 888.252, 350.106 885.227, 350.800 884.534 C 351.015 884.318, 350.703 877.023, 350.106 868.321 C 345.510 801.298, 344.522 753.740, 344.511 598.833 C 344.505 519.267, 344.780 453.887, 345.122 453.545 C 345.464 453.202, 351.764 451.348, 359.122 449.423 C 366.480 447.498, 390.500 439.905, 412.500 432.549 C 532.585 392.400, 585.243 378.432, 638.634 372.568 C 682.076 367.797, 725.424 370.789, 744.500 379.874 C 782.307 397.881, 813.217 454.299, 819.079 516 C 821.154 537.841, 819.269 567.300, 814.383 589.419 C 803.026 640.821, 774.513 691.621, 733.011 734.395 C 690.999 777.695, 644.271 810.789, 578.806 843.607 L 558.113 853.981 566.152 871.241 C 570.573 880.733, 574.670 889.513, 575.256 890.750 C 575.842 891.987, 576.703 893, 577.171 893 C 578.592 893, 615.628 874.231, 630 866.228 C 711.081 821.074, 773.355 765.643, 813.598 702.804 C 823.098 687.970, 838.989 656.545, 844.345 642 C 863.025 591.275, 868.295 540.342, 859.946 491.245 C 846.448 411.868, 799.236 347.263, 744.706 333.547 C 696.211 321.349, 629.846 324.973, 553 344.014 C 512.189 354.127, 487.123 361.699, 407.500 387.967 C 376.150 398.309, 349.301 407.047, 347.835 407.383 C 345.171 407.995, 345.170 407.993, 344.640 400.748 C 344.348 396.761, 343.619 381.575, 343.020 367 C 340.643 309.169, 333.639 227.798, 323.481 140 C 320.213 111.746, 320.256 111.977, 318.205 112.114 C 317.267 112.177, 307.725 113.376, 297 114.778 " stroke="none" fill="black" fill-rule="evenodd"/>
</svg>