<svg xmlns="http://www.w3.org/2000/svg" width="1000" height="1000" viewBox="0 0 1000 1000" version="1.1">
	<path d="M 539 123.151 C 502.274 134.023, 449.874 144.936, 409.791 150.059 C 366.573 155.583, 310.344 152.784, 245.183 141.864 C 238.409 140.729, 232.734 139.958, 232.573 140.150 C 232.411 140.343, 230.606 149.275, 228.560 160 C 226.515 170.725, 224.645 180.213, 224.406 181.085 C 223.890 182.959, 230.465 184.267, 264 188.960 C 347.754 200.682, 395.680 199.452, 475.331 183.536 C 486.974 181.210, 496.664 179.439, 496.865 179.601 C 497.518 180.129, 451.995 261.063, 434.376 290.701 L 429.500 298.902 414 304.643 C 396.708 311.048, 363.792 327.097, 345.500 338.042 C 297.070 367.019, 252.044 402.733, 210.491 445.126 C 161.745 494.859, 135.423 536.898, 131 572.085 C 127.684 598.460, 139.288 620.496, 162.570 632.033 C 187.973 644.622, 214.194 639.236, 246.858 614.721 C 298.034 576.311, 367.397 485.636, 451.544 347.140 C 455.853 340.049, 459.313 335.451, 460.755 334.903 C 465.763 332.999, 493.185 325.810, 507.928 322.536 C 537.039 316.071, 564.927 312.060, 594.830 310.037 C 610.722 308.962, 637 308.626, 637 309.498 C 637 309.772, 633.154 314.835, 628.453 320.748 C 603.886 351.652, 582.478 386.488, 574.834 408 C 572.925 413.371, 572.527 416.498, 572.542 426 C 572.559 436.836, 572.746 437.897, 575.774 444.374 C 583.367 460.618, 604.285 474.021, 629.913 479.063 C 633.261 479.721, 635.981 480.539, 635.959 480.880 C 635.914 481.547, 633.960 483.151, 597.479 512.460 C 571.332 533.467, 562.625 541.025, 529.705 571.287 C 515.966 583.916, 508.104 591.829, 508.436 592.695 C 508.879 593.849, 528.681 626.758, 529.603 627.872 C 529.773 628.077, 534.994 626.331, 541.206 623.992 C 605.798 599.668, 674.036 585.037, 723 585.014 C 756.416 584.998, 779.338 590.465, 794.800 602.138 C 804.957 609.807, 817.997 630.680, 824.888 650.301 C 834.766 678.422, 835.496 711.705, 826.832 738.927 C 820.220 759.703, 809.981 776.216, 793.587 792.540 C 763.610 822.390, 720.623 840.409, 661.180 848.041 C 592.929 856.804, 528.787 844.645, 483.133 814.288 C 472.602 807.286, 454.682 789.670, 449.778 781.500 C 445.459 774.305, 442 764.454, 442 759.347 C 442 744.218, 460.484 735.574, 492.500 735.731 C 526.966 735.900, 562.173 750.270, 598 778.790 C 607.493 786.347, 630.079 808.211, 635.613 815.201 L 638.543 818.902 655.522 805.983 C 664.860 798.878, 672.500 792.603, 672.500 792.038 C 672.500 790.102, 653.908 770.023, 642.304 759.427 C 592.982 714.390, 542.905 692, 491.500 692 C 457.786 692, 433.119 699.930, 416.904 715.981 C 405.846 726.928, 401.286 735.831, 398.917 751.099 C 397.525 760.070, 398.888 772.380, 402.425 782.779 C 419.197 832.092, 478.092 873.404, 553 888.401 C 609.060 899.624, 677.077 895.304, 733.613 876.928 C 762.165 867.648, 784.529 856.219, 806.500 839.678 C 817.623 831.304, 836.195 812.263, 844.257 800.967 C 852.343 789.637, 863.865 766.970, 867.887 754.477 C 885.346 700.254, 877.019 641.523, 845.107 593.798 C 830.206 571.515, 812.676 558.272, 786.604 549.604 C 749.461 537.254, 693.310 538.428, 627.500 552.929 C 620.350 554.505, 614.408 555.711, 614.296 555.609 C 614.183 555.508, 623.183 548.046, 634.296 539.028 C 693.226 491.203, 703.002 482.813, 702.949 480.107 C 702.922 478.673, 701.909 469.400, 700.699 459.500 L 698.500 441.500 680.500 440.851 C 649.171 439.721, 627.758 435.416, 618.272 428.339 L 615.043 425.931 617.530 419.323 C 626.082 396.604, 653.224 357.307, 687.454 318.085 L 697.417 306.669 692.964 289.248 C 690.515 279.667, 688.214 271.346, 687.850 270.757 C 686.806 269.068, 672.311 267.234, 649.253 265.872 C 608.028 263.437, 556.867 267.710, 508.624 277.617 C 499.343 279.523, 491.569 280.903, 491.350 280.683 C 491.131 280.464, 495.058 273.133, 500.077 264.393 C 512.662 242.473, 533.588 204.613, 546.998 179.500 L 558.212 158.500 552.856 139.756 C 549.910 129.446, 547.050 121.060, 546.500 121.119 C 545.950 121.178, 542.575 122.093, 539 123.151 M 374.251 371.991 C 291.515 420.050, 209.519 497.616, 182.375 553.500 C 173.362 572.057, 171.811 584.760, 177.894 590.197 C 185.067 596.606, 194.032 596.144, 207.110 588.691 C 237.107 571.597, 277.774 527.413, 326.481 459 C 347.858 428.974, 391.635 362.633, 389.785 363.067 C 389.628 363.104, 382.638 367.120, 374.251 371.991 " stroke="none" fill="black" fill-rule="evenodd"/>
</svg>