<svg xmlns="http://www.w3.org/2000/svg" width="1000" height="1000" viewBox="0 0 1000 1000" version="1.1">
	<path d="M 625.427 81.810 C 615.957 96.430, 602.259 115.493, 592.599 127.500 C 579.441 143.854, 570.838 151.837, 558.490 159.151 C 544.740 167.296, 515.356 183.662, 499.339 192.096 L 487.179 198.500 486.532 212 C 486.176 219.425, 485.802 226.197, 485.700 227.049 C 485.599 227.900, 492.488 235.393, 501.008 243.700 C 509.529 252.006, 516.251 259.058, 515.947 259.370 C 515.643 259.683, 506.868 262.443, 496.447 265.503 C 443.273 281.118, 395.216 299.899, 370.696 314.648 C 332.386 337.691, 315.608 367.981, 322.547 401.575 C 326.716 421.757, 340.825 443.678, 361.167 461.580 C 365.161 465.095, 368.725 467.640, 369.086 467.235 C 370.072 466.132, 392.472 435.689, 393.332 434.283 C 393.805 433.511, 391.036 430.040, 385.752 424.783 C 362.130 401.282, 358.762 382.108, 375.343 365.527 C 393.354 347.516, 442.940 326.369, 516 305.542 C 530.025 301.544, 542.698 297.988, 544.161 297.640 C 546.643 297.049, 547.272 297.697, 553.475 307.253 C 561.178 319.119, 573.861 344.067, 577.026 353.579 C 578.225 357.181, 579.047 360.247, 578.853 360.392 C 578.659 360.538, 569.500 365.400, 558.500 371.196 C 482.461 411.266, 452.810 435.441, 448.126 461.188 C 446.262 471.429, 449.447 483.164, 456.653 492.612 C 463.420 501.484, 479.318 509.611, 495.636 512.542 C 507.315 514.639, 533.612 515.457, 547.989 514.172 C 554.307 513.606, 559.638 513.305, 559.835 513.502 C 560.032 513.698, 555.907 527.278, 550.669 543.680 C 545.431 560.081, 539.710 578.262, 537.954 584.083 L 534.763 594.665 526.131 597.439 C 511.602 602.108, 485.293 612.822, 469.500 620.501 C 436.855 636.375, 413.033 652.829, 391.423 674.429 C 367.272 698.568, 354.875 721.086, 350.947 747.947 C 349.103 760.562, 350.225 782.066, 353.362 794.224 C 360.162 820.576, 377.363 838.686, 401.700 845.117 C 416.048 848.909, 438.372 847.809, 458 842.344 C 483.445 835.259, 516.183 819.312, 545.115 799.908 L 553.730 794.130 559.615 803.664 C 568.107 817.420, 582.423 836.081, 592.643 846.717 L 601.500 855.935 619.547 856.587 L 637.593 857.239 644 848.369 C 656.709 830.774, 674.690 807.165, 688.336 790.153 C 701.808 773.359, 702.191 772.751, 700.375 771.060 C 694.748 765.820, 670.019 745, 669.422 745 C 669.036 745, 668.221 745.615, 667.610 746.366 C 652.675 764.740, 636.371 785.360, 628.552 795.764 C 623.081 803.044, 618.269 809, 617.860 809 C 615.885 809, 596.032 780.952, 591.048 771.121 L 588.828 766.743 594.164 762.179 C 604.641 753.217, 628.369 729.283, 639.450 716.500 C 664.194 687.958, 686.296 655.723, 704.432 621.727 L 710.180 610.955 714.840 611.447 C 717.403 611.717, 724 612.204, 729.500 612.527 C 750.929 613.788, 777.226 619.210, 791.871 625.386 C 802.364 629.812, 813.169 636.974, 820.499 644.363 C 851.674 675.790, 851.591 726.926, 820.286 774.500 C 787.169 824.829, 725.425 863.401, 644.508 884.312 L 628.301 888.500 632.760 909 C 635.213 920.275, 637.521 929.828, 637.888 930.229 C 638.685 931.096, 667.774 923.689, 684.012 918.483 C 782.622 886.871, 855 825.596, 878.892 753.500 C 888.721 723.841, 890.234 696.946, 883.554 670.614 C 872.605 627.453, 841.512 595.222, 796.644 580.524 C 779.828 575.016, 747.310 569, 734.351 569 C 732.023 569, 729.908 568.660, 729.652 568.245 C 729.395 567.830, 731.164 561.714, 733.582 554.653 C 736 547.592, 739.072 537.825, 740.408 532.949 C 742.622 524.870, 742.689 524.040, 741.169 523.600 C 738.320 522.777, 702.018 515, 701.020 515 C 700.501 515, 699.567 516.913, 698.944 519.250 C 696.493 528.439, 691.529 543.090, 686.781 555.152 L 681.801 567.803 672.651 568.452 C 646.932 570.275, 617.739 574.198, 595.004 578.884 C 589.782 579.961, 585.367 580.700, 585.194 580.527 C 585.020 580.354, 589.372 566.102, 594.863 548.856 C 600.355 531.610, 605.625 514.958, 606.575 511.850 L 608.302 506.201 614.401 505.032 C 646.430 498.894, 715.268 482.051, 724.628 478.061 C 726.732 477.164, 726.685 476.920, 720.628 457.152 C 717.258 446.151, 714.222 436.876, 713.883 436.541 C 713.543 436.206, 706.118 437.945, 697.383 440.406 C 669.441 448.278, 622.241 459.574, 621.285 458.618 C 621.023 458.356, 621.959 451.697, 623.365 443.821 C 626.841 424.353, 628.172 411.832, 628.350 396.932 L 628.500 384.365 650.945 372.932 C 723.751 335.850, 755.966 316.167, 775.100 297.078 C 787.654 284.554, 792.153 276.056, 792.779 263.688 C 793.115 257.062, 792.788 254.423, 791.064 249.853 C 786.825 238.617, 777.057 231.068, 761.314 226.864 C 751.306 224.191, 720.963 223.222, 700.500 224.921 C 665.140 227.858, 619.564 235.312, 572.812 245.805 L 564.124 247.755 555.312 237.689 C 550.466 232.153, 545.025 225.935, 543.223 223.871 L 539.946 220.120 546.723 216.234 C 550.450 214.097, 560.475 208.388, 569 203.547 C 577.525 198.707, 587.606 192.597, 591.401 189.969 C 605.818 179.989, 625.631 157.924, 646.212 128.926 C 656.986 113.746, 669 95.464, 669 94.248 C 669 93.585, 642.307 76.606, 634.511 72.310 C 632.487 71.195, 631.921 71.786, 625.427 81.810 M 288.745 114.332 C 272.385 122.330, 270.060 123.755, 270.534 125.500 C 270.832 126.600, 272.044 130.875, 273.225 135 C 275.098 141.535, 275.377 145.073, 275.395 162.500 C 275.413 179.468, 275.084 183.988, 273.228 192.314 C 265.208 228.283, 247.308 260.987, 212.097 304 C 199.482 319.409, 195.939 323.255, 171.558 348 C 159.365 360.375, 147.073 373.310, 144.243 376.744 C 131.795 391.847, 126.042 406.013, 125.243 423.531 C 124.162 447.244, 130.590 460.548, 155.428 486 C 181.106 512.314, 186.352 518.706, 192.864 531.621 C 199.601 544.981, 202.683 561.751, 201.566 578.963 C 201.226 584.208, 200.282 615.950, 199.468 649.500 C 198.056 707.759, 197.088 728.771, 194.971 747.188 C 192.782 766.221, 194.051 804.382, 198.048 839.789 C 199.122 849.298, 200 857.285, 200 857.539 C 200 857.793, 209.606 858, 221.346 858 L 242.692 858 248.465 835.250 C 265.222 769.219, 288.784 695.830, 306.465 654.593 C 312.221 641.169, 321.870 621.824, 327.119 613.184 L 331.046 606.720 328.796 605.110 C 327.559 604.225, 319.478 598.659, 310.839 592.741 L 295.132 581.983 289.389 591.241 C 277.686 610.109, 264.234 640.221, 248.844 682 L 242.029 700.500 242.554 679 C 242.843 667.175, 243.510 641.975, 244.036 623 C 245.381 574.489, 245.256 558.129, 243.456 547.027 C 240.479 528.673, 232.322 509.565, 220.261 492.698 C 217.093 488.267, 205.950 475.803, 195.500 465.002 C 169.366 437.991, 167.215 434.567, 169.083 422.967 C 170.920 411.562, 172.310 409.746, 203.509 378 C 235.788 345.157, 257.449 319.174, 277.706 289 C 314.397 234.348, 327.989 174.921, 315.409 124.152 C 312.709 113.255, 309.604 104.944, 308.286 105.082 C 307.853 105.127, 299.060 109.290, 288.745 114.332 M 711 268.021 C 685.080 269.630, 646.282 275.231, 610.006 282.600 C 600.385 284.555, 592.444 286.232, 592.360 286.327 C 592.276 286.422, 594.216 289.875, 596.671 294 C 602.882 304.435, 611.073 320.907, 615.072 331 C 616.924 335.675, 618.518 339.640, 618.615 339.812 C 619.057 340.597, 676.369 310.747, 696.500 299.246 C 711.814 290.497, 732.842 276.677, 738.500 271.643 L 742.500 268.083 739.397 268.042 C 737.690 268.019, 733.640 267.816, 730.397 267.591 C 727.154 267.366, 718.425 267.560, 711 268.021 M 565 417.220 C 542.045 429.774, 521.464 442.301, 510.781 450.222 C 502.264 456.537, 493 464.756, 493 465.997 C 493 466.396, 495.587 467.506, 498.750 468.465 C 507.576 471.142, 535.259 471.664, 556 469.544 C 565.075 468.617, 572.855 467.513, 573.288 467.091 C 575.423 465.014, 584.651 414.081, 583.813 409 C 583.543 407.363, 580.954 408.495, 565 417.220 M 636 616.079 C 610.439 619.888, 572.220 628.179, 570.906 630.200 C 570.579 630.703, 569.229 636.826, 567.906 643.807 C 563.603 666.512, 564.844 704.694, 570.408 720.765 L 571.544 724.047 584.936 710.773 C 605.997 689.898, 624.597 667.197, 641.695 641.500 C 650.051 628.943, 658 615.872, 658 614.692 C 658 613.551, 649.266 614.102, 636 616.079 M 505.970 651.854 C 444.405 678.572, 405.310 712.176, 395.949 746.425 C 394.073 753.287, 393.845 756.172, 394.247 767.925 C 394.779 783.486, 396.455 789.836, 401.628 795.878 C 416.707 813.495, 464.011 800.836, 519.147 764.429 L 534.795 754.096 531.409 743.427 C 527.107 729.870, 523.458 712.571, 521.934 698.500 C 520.798 688.015, 521.226 657.986, 522.643 648.750 C 522.960 646.688, 522.832 645.026, 522.359 645.057 C 521.887 645.089, 514.511 648.148, 505.970 651.854 " stroke="none" fill="black" fill-rule="evenodd"/>
</svg>