<svg xmlns="http://www.w3.org/2000/svg" width="1000" height="1000" viewBox="0 0 1000 1000" version="1.1">
	<path d="M 387.479 106.670 C 384.867 117.577, 382.519 127.056, 382.263 127.736 C 382.005 128.421, 383.059 129.452, 384.627 130.048 C 394.780 133.908, 402.651 139.599, 405.585 145.200 C 407.636 149.115, 407.321 157.066, 404.854 163.660 C 403.674 166.814, 399.099 176.559, 394.687 185.316 L 386.666 201.237 374.583 200.539 C 358.047 199.583, 331.853 196.549, 313.650 193.480 C 298.031 190.848, 269.842 184.330, 262.124 181.567 C 259.718 180.705, 257.180 180, 256.485 180 C 255.328 180, 240.972 216.803, 240.992 219.718 C 241.001 221.058, 251.071 224.310, 269.500 228.922 C 294.278 235.123, 323.200 240.005, 348 242.173 C 355.425 242.822, 361.645 243.456, 361.823 243.583 C 362.334 243.947, 339.097 281.277, 322.754 306.347 C 314.562 318.912, 308.084 329.417, 308.357 329.690 C 309.211 330.544, 347.162 346, 348.405 346 C 349.053 346, 353.931 344.224, 359.245 342.054 C 389.308 329.775, 433.013 318.740, 473 313.333 C 491.068 310.890, 531.410 310.870, 547 313.297 C 598.111 321.253, 632.706 343.636, 653.962 382.500 C 667.823 407.844, 669.730 437.094, 659.515 467.651 C 643.475 515.632, 600.454 557.465, 542.309 581.620 C 534.028 585.060, 511.418 593, 509.902 593 C 509.521 593, 510.043 590.324, 511.061 587.053 C 516.830 568.516, 515.729 548.385, 508.014 531.370 C 500.578 514.970, 484.546 498.696, 464.682 487.383 C 458.585 483.911, 457.923 483.236, 458.419 481 C 461.097 468.934, 462.148 457.420, 461.659 445.500 C 460.970 428.705, 458.455 418.583, 451.353 404.031 C 446.269 393.611, 444.875 391.685, 436.128 382.996 C 429.269 376.181, 424.487 372.387, 419.500 369.802 C 389.918 354.467, 362.054 358.158, 333.401 381.209 C 318.787 392.965, 301.670 415.377, 291.363 436.250 C 286.561 445.975, 286.539 446, 282.826 446 C 268.274 446, 237.183 452.557, 220.570 459.130 C 183.817 473.671, 157.575 499.883, 149.959 529.661 C 147.749 538.300, 147.349 552.722, 149.084 561.201 C 152.079 575.837, 163.674 592.671, 177.612 602.617 C 203.412 621.028, 246.125 625.962, 294.106 616.074 L 303.500 614.138 308 617.903 C 331.793 637.810, 363.107 648.311, 404.500 650.264 L 409.500 650.500 397 660.514 C 376.284 677.109, 355.614 691.514, 326 709.994 C 275.232 741.674, 239.402 769.157, 195.161 810.354 C 185.625 819.234, 172.320 832.350, 165.596 839.500 C 150.948 855.075, 133.784 874.949, 134.200 875.851 C 134.841 877.239, 167.072 908, 167.886 908 C 168.360 908, 172.292 903.841, 176.624 898.758 C 213.024 856.046, 253.692 821.272, 289 802.669 C 310.217 791.490, 326.119 786.726, 342.500 786.639 C 356.008 786.567, 364.013 789.170, 376.851 797.808 C 424.171 829.647, 461.700 869.227, 473.511 899.750 L 476.316 907 494.491 907 L 512.667 907 517.397 893.750 C 523.242 877.379, 540.340 842.400, 550.025 827 C 576.786 784.445, 605.456 758.441, 635.549 749.426 C 656.921 743.024, 683.727 747.262, 712.037 761.519 C 755.841 783.578, 799.697 831.434, 829.065 889.218 C 835.879 902.626, 836.094 902.915, 838.585 901.968 C 845.423 899.368, 874.604 886.696, 875.340 886.007 C 876.350 885.061, 864.605 861.693, 855.642 846.817 C 819.800 787.327, 776.959 744.752, 729.485 721.444 C 676.906 695.631, 629.058 696.675, 586.260 724.571 C 552.370 746.661, 518.159 788.464, 494.857 836.260 C 493.044 839.978, 491.256 842.903, 490.884 842.760 C 490.512 842.617, 487.143 838.675, 483.396 834 C 461.808 807.060, 412.780 765.986, 386.288 752.645 C 378.483 748.715, 363.540 744, 358.888 744 C 357.300 744, 356 743.550, 356 743 C 356 742.450, 356.361 742, 356.802 742 C 358.290 742, 392.384 718.850, 407.514 707.566 C 429.979 690.812, 445.801 677.249, 462.684 660.273 L 477.867 645.006 488.684 642.936 C 553.991 630.441, 608.897 602.973, 649.470 562.500 C 707.341 504.772, 725.431 428.880, 695.787 368.184 C 677.217 330.162, 646.476 301.193, 607.065 284.577 C 554.790 262.538, 483.976 261.652, 404.071 282.039 C 395.586 284.205, 388.509 285.843, 388.346 285.679 C 388.183 285.516, 393.433 276.368, 400.013 265.349 L 411.976 245.315 432.238 244.681 C 482.138 243.119, 535.047 234.824, 584 220.886 C 593.226 218.259, 625.069 208.069, 625.758 207.522 C 626.029 207.307, 611.949 167.803, 611.341 167.077 C 611.147 166.844, 603.003 169.190, 593.244 172.290 C 541.923 188.591, 503.170 195.943, 444.215 200.565 L 435.930 201.214 438.615 195.357 C 448.972 172.765, 451.452 163.245, 450.691 149 C 450.144 138.746, 447.606 130.169, 442.517 121.380 C 438.827 115.007, 425.921 102.389, 418.776 98.169 C 412.702 94.582, 399.151 88.525, 394.865 87.482 L 392.230 86.841 387.479 106.670 M 376.426 405.762 C 369.507 408.232, 359.471 415.588, 352.214 423.508 C 346.492 429.752, 334.332 446.748, 335.128 447.389 C 335.332 447.554, 341.800 448.710, 349.500 449.959 C 364.796 452.439, 392.057 459.034, 406.956 463.859 C 412.157 465.543, 416.637 466.696, 416.912 466.421 C 417.187 466.146, 417.595 460.412, 417.819 453.678 C 418.270 440.156, 416.927 432.576, 412.445 423.340 C 405.494 409.015, 389.364 401.144, 376.426 405.762 M 315.387 499.185 C 313.990 506.079, 313.500 512.789, 313.500 525 C 313.500 541.873, 314.241 547.005, 318.245 557.853 C 320.138 562.982, 320.346 563.181, 323.232 562.604 C 328.150 561.620, 352.004 549.730, 360.560 543.998 C 375.419 534.043, 386.956 523.357, 396.326 510.875 L 399.047 507.250 390.273 504.504 C 370.384 498.278, 342.426 492.395, 323.887 490.534 L 317.273 489.870 315.387 499.185 M 259.346 493.065 C 230.176 499.194, 206.689 513.198, 196.416 530.587 C 195.088 532.835, 193.276 537.611, 192.390 541.201 C 190.912 547.192, 190.911 548.183, 192.380 553.234 C 195.164 562.811, 203.019 569.059, 218.500 574.011 C 227.389 576.855, 254.777 577.948, 268.458 576.006 C 276.607 574.849, 277.153 574.625, 276.655 572.633 C 276.362 571.460, 275.014 566.450, 273.661 561.500 C 268.904 544.100, 267.800 523.761, 270.511 503.500 C 271.321 497.450, 271.987 492.163, 271.992 491.750 C 272.004 490.660, 269.605 490.910, 259.346 493.065 M 434.430 532.750 C 431.169 537.563, 423.550 546.622, 417.500 552.881 C 401.340 569.602, 386.577 580.623, 365.673 591.574 L 355.846 596.721 360.173 598.461 C 362.553 599.419, 369.225 601.328, 375 602.705 C 384.001 604.851, 388.641 605.281, 407.500 605.717 C 419.942 606.005, 434.713 605.754, 441.500 605.139 C 455.596 603.862, 455.055 604.270, 462.926 589 C 474.365 566.808, 473.554 551.915, 460.158 538.162 C 456.189 534.088, 442.369 524, 440.755 524 C 440.538 524, 437.692 527.938, 434.430 532.750 " stroke="none" fill="black" fill-rule="evenodd"/>
</svg>