<svg xmlns="http://www.w3.org/2000/svg" width="1000" height="1000" viewBox="0 0 1000 1000" version="1.1">
	<path d="M 394.339 95.986 L 382.210 113.983 388.054 117.533 C 391.267 119.485, 398.537 123.254, 404.208 125.909 C 465.224 154.473, 542.269 162.761, 618.500 148.961 C 634.175 146.123, 644.522 143.511, 644.363 142.430 C 644.147 140.959, 634.695 101.530, 634.488 101.235 C 634.386 101.089, 629.172 102.076, 622.901 103.429 C 560.214 116.954, 494.354 113.664, 442.341 94.407 C 434.908 91.655, 411.611 81.039, 406.984 78.295 C 406.699 78.127, 401.009 86.088, 394.339 95.986 M 754.782 147.059 C 709.537 150.307, 636.960 167.253, 535.688 198.217 L 505.875 207.332 484.698 202.739 C 473.051 200.213, 463.370 198.296, 463.186 198.480 C 463.002 198.664, 461.645 204.141, 460.170 210.650 L 457.489 222.486 429.494 231.273 C 338.651 259.787, 287.968 273.745, 252 280.152 C 235.621 283.070, 213.610 283.289, 204 280.630 C 185.777 275.588, 175.645 265.145, 170.401 246 C 169.100 241.252, 168.604 235.659, 168.560 225.250 C 168.527 217.412, 168.275 210.997, 168 210.992 C 167.725 210.988, 158.282 209.218, 147.016 207.060 C 135.750 204.901, 126.408 203.259, 126.255 203.411 C 126.103 203.563, 125.517 208.560, 124.953 214.514 C 124.233 222.110, 124.254 228.890, 125.022 237.238 C 127.494 264.112, 135.774 283.571, 151.500 299.466 C 167.818 315.960, 189.012 324.679, 217.331 326.549 C 249.366 328.664, 308.436 315.021, 423.843 278.854 C 436.131 275.003, 446.305 271.998, 446.452 272.176 C 446.599 272.354, 444.560 282.175, 441.920 294 C 439.281 305.825, 437.094 316.213, 437.061 317.085 C 437.013 318.335, 445.414 320.951, 476.750 329.446 C 498.613 335.373, 516.617 340.327, 516.761 340.455 C 517.567 341.176, 509.334 355.410, 505.095 360.622 C 495.435 372.500, 476.435 385.594, 456.417 394.167 C 450.963 396.503, 446.318 398.541, 446.095 398.695 C 445.567 399.062, 459.983 437.211, 461.113 438.439 C 462.180 439.597, 469.403 436.726, 485.459 428.762 C 529.972 406.683, 557.397 373.740, 561.959 336.870 C 562.794 330.117, 562.715 326.015, 561.595 318.003 C 560.808 312.372, 559.790 307.422, 559.332 307.003 C 558.874 306.584, 543.200 302.119, 524.500 297.082 C 505.800 292.045, 489.995 287.752, 489.378 287.542 C 488.608 287.281, 489.310 282.374, 491.612 271.930 C 493.458 263.553, 495.088 256.603, 495.234 256.485 C 495.744 256.076, 574.630 232.042, 592 227.003 C 685.859 199.778, 752.109 187.276, 783.830 190.803 C 804.074 193.054, 819.438 198.368, 834.139 208.200 C 844.824 215.348, 851.933 223.108, 856.809 232.948 C 860.150 239.689, 860.498 241.161, 860.483 248.448 C 860.464 256.933, 858.915 261.292, 853.293 268.677 C 847.471 276.323, 831.615 285.842, 816.014 291.057 C 787.622 300.546, 743.159 304.806, 700.591 302.116 C 690.741 301.494, 682.581 301.101, 682.457 301.242 C 682.064 301.693, 678.882 344.216, 679.217 344.550 C 679.393 344.727, 690.555 345.378, 704.022 345.998 C 769.197 348.999, 823.508 339.911, 857.500 320.317 C 896.899 297.606, 913.147 261.183, 900.485 223.956 C 888.190 187.809, 850.703 158.775, 804.500 149.616 C 788.045 146.354, 774.387 145.652, 754.782 147.059 M 265.191 366.761 C 242.657 373.330, 244.061 371.054, 252.108 387.972 C 265.305 415.716, 287.776 440.216, 313.551 454.964 C 328.396 463.457, 350.748 471.557, 364.545 473.442 L 369.589 474.131 372.402 455.316 C 373.949 444.967, 375.440 435.304, 375.714 433.843 C 376.190 431.306, 375.948 431.134, 370.356 430.041 C 335.395 423.208, 306.310 400.677, 291.239 368.750 C 288.942 363.883, 287.007 361.024, 286.040 361.065 C 285.193 361.102, 275.811 363.664, 265.191 366.761 M 617.338 373.250 C 612.576 383.875, 599.600 409.299, 593.428 420.094 C 577.263 448.368, 558.026 472.830, 527.743 503.619 L 511.890 519.737 522.055 535.619 C 527.646 544.353, 532.804 552.117, 533.517 552.871 C 534.607 554.024, 538.364 552.962, 557.156 546.189 C 569.445 541.760, 599.750 530.875, 624.500 522 C 649.250 513.124, 676.176 503.458, 684.336 500.520 L 699.172 495.178 698.505 497.839 C 697.733 500.920, 677.697 554.480, 672.692 566.842 L 669.315 575.185 654.408 580.970 C 566.032 615.265, 506.937 658.185, 473.200 712.580 C 458.117 736.900, 449.576 761.115, 448.316 783.132 C 446.140 821.175, 465.981 849.938, 498.975 856.569 C 526.596 862.120, 559.633 849.404, 586.077 823.043 C 597.276 811.880, 604.303 803.089, 615.689 786 C 639.373 750.453, 668.699 692.004, 695.595 626.744 C 701.933 611.365, 702.747 609.916, 705.500 609.108 C 707.150 608.624, 715.250 606.186, 723.500 603.691 C 744.251 597.414, 758.928 593.595, 759.624 594.291 C 759.946 594.613, 750.274 624.680, 738.130 661.107 L 716.050 727.338 725.775 743.191 C 732.592 754.304, 735.949 758.912, 737 758.602 C 737.825 758.359, 745.025 755.892, 753 753.119 C 773.659 745.938, 785.343 743.687, 802.500 743.584 C 819.699 743.481, 826.259 745.203, 832.508 751.462 C 841.513 760.480, 842.359 781.121, 834.291 794.975 C 827.153 807.234, 808.093 822.115, 785.552 833.028 C 747.994 851.211, 706.174 863.445, 618.203 881.981 C 570.954 891.937, 571 891.926, 571 893.668 C 571 894.497, 573.025 903.945, 575.500 914.663 C 577.975 925.382, 580 934.390, 580 934.683 C 580 934.975, 580.615 934.978, 581.367 934.689 C 582.119 934.401, 600.232 930.498, 621.617 926.016 C 700.757 909.431, 739.825 898.992, 777 884.498 C 853.252 854.769, 888.220 815.397, 883.057 765.084 C 880.297 738.190, 868.001 718.978, 846.933 708.640 C 836.101 703.325, 830.121 701.631, 816.338 699.970 C 804.550 698.549, 784.719 699.697, 772.284 702.518 C 770.263 702.977, 772.003 697.257, 792.034 637.580 C 804.115 601.587, 813.980 571.545, 813.956 570.819 C 813.933 570.094, 806.962 563.721, 798.467 556.658 L 783.022 543.817 770.261 546.458 C 759.683 548.648, 731.301 555.596, 724.750 557.599 C 723.244 558.060, 723.433 556.977, 726.105 549.817 C 740.935 510.080, 756.275 466.207, 755.774 464.963 C 755.623 464.589, 748.909 458.589, 740.853 451.628 L 726.206 438.973 667.353 460.125 C 634.984 471.759, 607.684 481.500, 606.688 481.772 C 605.477 482.102, 606.986 479.316, 611.232 473.383 C 623.790 455.835, 633.260 439.564, 647.369 411.294 C 657.294 391.407, 661.521 382.133, 660.886 381.639 C 660.192 381.099, 622.179 365, 621.600 365 C 621.289 365, 619.372 368.712, 617.338 373.250 M 267 584.979 C 263.425 585.968, 239.800 592.048, 214.500 598.490 L 168.500 610.202 157 609.755 C 143.039 609.213, 136.199 606.790, 125.143 598.472 C 120.928 595.302, 117.347 593.284, 116.671 593.699 C 115.692 594.300, 85.413 617.479, 84.057 618.665 C 83.245 619.376, 95.420 631.116, 101.500 635.484 C 120.084 648.835, 140.665 654.814, 164.291 653.725 C 175.445 653.210, 179.955 652.297, 216.489 643.153 C 238.483 637.648, 256.577 633.243, 256.698 633.365 C 256.820 633.486, 256.015 636.492, 254.909 640.043 C 249.013 658.987, 242.267 690.663, 239.479 712.500 C 234.812 749.051, 237.514 790.419, 246.991 827.500 C 251.916 846.772, 256.192 858.432, 264.117 874.204 L 270.500 886.907 287.520 879.704 C 296.882 875.742, 305.032 872.174, 305.633 871.776 C 306.234 871.377, 307.309 868.902, 308.022 866.276 C 310.113 858.569, 322.307 825.628, 328.484 811 C 339.801 784.195, 356.015 753.462, 366.641 738.671 C 368.550 736.013, 369.975 733.451, 369.806 732.978 C 369.513 732.156, 336.445 707, 335.658 707 C 334.982 707, 321.995 726.851, 316.812 735.807 C 310.043 747.503, 296.088 775.449, 290.939 787.621 C 288.640 793.054, 286.420 797.871, 286.006 798.324 C 284.271 800.220, 281.002 767.332, 281.002 748 C 281.003 714.384, 291.319 663.780, 306.466 623.085 C 309.008 616.257, 310.878 610.126, 310.623 609.459 C 309.822 607.374, 277.143 582.995, 275.275 583.090 C 274.299 583.140, 270.575 583.990, 267 584.979 M 627.500 640.334 C 590.744 658.314, 562.700 676.924, 540.623 697.985 C 513.914 723.467, 493.486 760.228, 492.233 785.065 C 491.181 805.919, 498.324 814.969, 514.891 813.771 C 536.569 812.203, 558.830 793.743, 581.542 758.500 C 596.723 734.944, 618.419 693.555, 635.535 655.500 C 645.070 634.301, 646.019 631.999, 645.214 632.009 C 644.822 632.014, 636.850 635.760, 627.500 640.334 " stroke="none" fill="black" fill-rule="evenodd"/>
</svg>