<svg xmlns="http://www.w3.org/2000/svg" width="1000" height="1000" viewBox="0 0 1000 1000" version="1.1">
	<path d="M 328.442 227.750 C 328.747 291.962, 329.246 445.750, 329.550 569.500 L 330.102 794.500 317.230 800.222 C 257.396 826.823, 199.828 842.316, 147.070 846.014 C 139.134 846.571, 132.463 847.204, 132.246 847.421 C 131.768 847.898, 130.079 876.131, 130.033 884.402 L 130 890.305 146.750 889.692 C 205.749 887.532, 287.981 864.296, 353.158 831.368 C 420.390 797.402, 567.203 692, 773.500 529.590 C 807.741 502.633, 875.472 448.686, 877.873 446.457 C 879.017 445.395, 877.017 442.425, 865.873 428.637 C 858.518 419.537, 852.171 412.071, 851.769 412.046 C 851.367 412.021, 828.867 429.691, 801.769 451.313 C 665.587 559.976, 540.618 654.976, 453 716.442 C 432.539 730.796, 386.718 761.533, 377.913 766.811 L 374.326 768.962 373.664 721.731 C 373.300 695.754, 373.002 609.212, 373.001 529.416 C 373.001 449.620, 372.701 322.832, 372.335 247.666 L 371.669 111 349.778 111 L 327.887 111 328.442 227.750 " stroke="none" fill="black" fill-rule="evenodd"/>
</svg>