<svg xmlns="http://www.w3.org/2000/svg" width="1000" height="1000" viewBox="0 0 1000 1000" version="1.1">
	<path d="M 589 59.327 C 589 60.056, 586.771 77.044, 584.047 97.077 C 568.979 207.872, 553.933 334.431, 549.996 383.500 C 549.378 391.200, 548.668 398.512, 548.417 399.750 C 547.969 401.965, 547.727 402, 532.731 401.994 C 492.731 401.979, 462.700 390.969, 439.942 367.976 L 430.384 358.320 412.442 368.597 C 402.574 374.249, 394.376 379.467, 394.224 380.192 C 394.072 380.917, 396.868 385.160, 400.437 389.621 C 428.842 425.123, 477.408 446, 531.592 446 L 545 446 544.998 463.250 C 544.997 472.738, 544.700 493.638, 544.338 509.696 L 543.680 538.892 535.590 541.567 C 523.495 545.567, 501.162 555.282, 486.500 562.921 C 452.362 580.708, 421.328 603.029, 394.639 628.990 C 355.546 667.017, 332.584 703.533, 324.835 740 C 322.059 753.062, 322.102 771.462, 324.935 782.500 C 335.223 822.587, 371.888 846.092, 424.500 846.329 C 446.126 846.427, 460.333 842.994, 483.500 832.073 C 503.575 822.611, 530.888 804.511, 552.653 786.247 L 557.806 781.923 558.998 789.211 C 561.511 804.586, 565.255 820.871, 568.374 830 L 571.620 839.500 578.079 842.104 C 592.061 847.742, 614.288 855.106, 614.966 854.325 C 615.359 853.871, 620.899 846.750, 627.276 838.500 C 643.490 817.525, 659.065 799.981, 683.666 774.983 L 704.841 753.465 689.670 737.661 L 674.500 721.857 656.428 740.179 C 637.941 758.920, 622.197 775.834, 611.174 788.793 C 607.550 793.053, 604.786 795.548, 604.527 794.793 C 603.738 792.491, 601.870 780.885, 599.491 763.500 L 597.165 746.500 602.885 740.500 C 657.711 682.994, 693.105 636.098, 718.550 587.247 C 721.772 581.061, 724.988 576, 725.695 576 C 732.759 576, 769.959 593.710, 783.947 603.732 C 804.959 618.786, 823.074 639.290, 833.287 659.581 C 844.375 681.609, 848.776 706.369, 846.069 731.500 C 843.819 752.398, 839.380 768.342, 831.007 785.605 C 813.127 822.470, 781.023 852.070, 733.500 875.505 C 706.468 888.835, 682.189 897.453, 655.464 903.204 L 644.797 905.500 645.373 910.434 C 645.690 913.147, 647.146 922.911, 648.608 932.132 L 651.266 948.897 654.383 948.352 C 673.397 945.030, 709.686 933.994, 731.037 925.041 C 788.163 901.087, 830.346 868.253, 858.278 826 C 885.706 784.511, 896.844 728.400, 887.006 681.286 C 875.881 628.011, 837.804 580.868, 782.500 551.895 C 771.457 546.110, 753.183 538.282, 745.250 535.939 C 742.913 535.248, 741 534.274, 741 533.773 C 741 533.272, 742.085 528.506, 743.410 523.181 C 747.519 506.677, 748.468 499.059, 748.481 482.500 C 748.494 466.341, 747.002 456.035, 743.402 447.420 L 741.980 444.017 722.444 453.758 C 705.206 462.354, 702.982 463.735, 703.545 465.500 C 703.896 466.600, 704.415 472.675, 704.697 479 C 705.245 491.272, 703.832 502.440, 699.851 517.280 C 698.193 523.464, 697.430 524.965, 696.132 524.598 C 695.235 524.344, 688.795 523.598, 681.823 522.941 C 662.916 521.159, 620.224 522.224, 603.160 524.905 C 595.823 526.057, 589.348 527, 588.771 527 C 587.596 527, 588.658 442.038, 589.848 440.787 C 590.221 440.394, 596.709 438.516, 604.266 436.613 C 657.910 423.101, 722.619 393.527, 781.285 355.709 L 792.071 348.757 790.369 346.128 C 788.966 343.963, 768.302 314.271, 767.425 313.163 C 767.278 312.977, 762.285 315.952, 756.329 319.774 C 716.842 345.110, 670.893 368.201, 631.669 382.419 C 616.074 388.072, 594.213 394.547, 593.416 393.749 C 591.340 391.673, 610.931 224.312, 627.392 103.500 C 630.314 82.050, 632.559 64.325, 632.380 64.110 C 632.026 63.687, 593.617 58.076, 590.750 58.029 C 589.788 58.013, 589 58.597, 589 59.327 M 250.500 91.547 C 240.600 92.233, 232.318 92.841, 232.096 92.897 C 231.705 92.997, 231.900 98.212, 234.081 146 C 235.907 185.992, 236.720 259.451, 235.802 301.463 C 235.310 323.993, 234.743 342.590, 234.543 342.790 C 234.033 343.301, 218.905 340.434, 203.500 336.908 C 186.792 333.083, 169.486 328.359, 144.500 320.801 C 133.500 317.474, 123.763 314.543, 122.862 314.289 C 121.527 313.911, 120.003 317.489, 114.612 333.663 C 110.976 344.574, 108.001 353.951, 108.002 354.501 C 108.004 355.556, 108.826 355.832, 138 364.575 C 159.224 370.937, 194.453 380.097, 207.166 382.561 L 215.831 384.240 200.127 415.870 C 158.747 499.214, 131.066 565.488, 120.505 606.500 C 114.694 629.064, 109.899 665.433, 108.440 698 C 107.737 713.682, 109.148 737.822, 111.588 751.890 C 112.858 759.205, 121.006 785.339, 122.475 786.809 C 123.157 787.491, 144.991 779.488, 154.500 775.070 C 173.433 766.275, 208.394 742.228, 218.405 731.115 C 219.453 729.952, 220.643 729, 221.050 729 C 221.457 729, 222.084 736.087, 222.444 744.750 C 223.777 776.799, 225.068 802.114, 226.539 825 C 228.296 852.347, 232.965 911.298, 233.409 911.743 C 233.800 912.133, 276.025 908.315, 276.463 907.850 C 276.643 907.657, 276.399 903.225, 275.920 898 C 274.310 880.458, 270.090 821.761, 268.372 793 C 267.276 774.661, 266.639 749.170, 266.584 721.500 L 266.500 678.500 277.103 663 C 303.858 623.886, 333.584 570.966, 365.013 506.500 C 380.057 475.641, 382.548 470.191, 381.885 469.584 C 380.937 468.715, 342.876 451.799, 342.613 452.129 C 342.452 452.333, 339.711 458.125, 336.523 465 C 328.441 482.430, 303.809 531.325, 293.450 550.500 C 282.716 570.367, 269.809 593.160, 269.505 592.783 C 269.379 592.627, 270.996 547.950, 273.098 493.500 C 275.200 439.050, 276.938 393.488, 276.960 392.250 C 276.998 390.103, 277.377 389.999, 285.250 389.985 C 301.656 389.957, 362.593 385.651, 363.883 384.430 C 364.254 384.079, 359.162 341.829, 358.692 341.359 C 358.564 341.231, 352.393 341.750, 344.979 342.513 C 327.855 344.276, 299.730 346, 288.107 346 L 279.137 346 279.706 281.750 C 280.061 241.699, 279.842 204.130, 279.124 182 C 277.789 140.852, 276.248 105.194, 275.420 96.250 L 274.841 90 271.670 90.150 C 269.927 90.232, 260.400 90.861, 250.500 91.547 M 756.500 130.045 C 747.700 130.421, 740.388 130.790, 740.250 130.865 C 740.112 130.939, 740 134.127, 740 137.949 C 740 161.792, 731.250 196.809, 720.248 217 C 707.902 239.656, 682.838 263.387, 647.826 285.569 C 637.924 291.842, 616.013 303.829, 612.004 305.165 C 611.194 305.435, 613.498 312.020, 618.957 325.035 C 623.447 335.741, 627.432 344.806, 627.811 345.181 C 628.689 346.049, 649.045 335.830, 664 327.014 C 698.640 306.592, 733.232 276.403, 749.936 252.014 C 769.453 223.518, 781.513 184.234, 783.639 142.225 L 784.308 129 778.404 129.181 C 775.157 129.280, 765.300 129.669, 756.500 130.045 M 425.128 151.755 C 421.689 169.233, 421.476 190.842, 424.566 208.671 C 429.565 237.512, 445.142 264.063, 469.619 285.462 C 477.404 292.268, 491.153 302.354, 494.283 303.555 C 495.361 303.969, 498.439 299.196, 505.875 285.582 C 511.444 275.387, 515.981 266.698, 515.957 266.273 C 515.933 265.848, 513.120 263.709, 509.707 261.521 C 500.719 255.759, 484.315 238.999, 478.555 229.694 C 467.598 211.993, 463.685 189.268, 467.416 165 C 468.134 160.325, 468.672 156.434, 468.611 156.353 C 468.313 155.957, 428.982 146, 427.718 146 C 426.741 146, 425.887 147.897, 425.128 151.755 M 224.515 465.238 C 191.171 535.815, 170.360 587.306, 162.572 618.500 C 159.778 629.688, 156.737 648.363, 154.470 668.243 C 152.533 685.224, 151.356 722.026, 152.673 724.381 C 153.536 725.922, 154.968 725.181, 164.986 718.010 C 183.846 704.509, 203.970 685.962, 218.354 668.823 L 223.118 663.147 224.602 620.323 C 225.418 596.770, 227.150 549.600, 228.451 515.500 C 229.752 481.400, 230.702 453.382, 230.562 453.238 C 230.423 453.093, 227.701 458.493, 224.515 465.238 M 629 566.044 C 618.305 566.881, 589.400 571.267, 588.472 572.194 C 587.433 573.234, 591.449 685.741, 592.566 686.889 C 593.547 687.897, 620.996 655.154, 636.483 634.500 C 652.473 613.176, 664.864 594.259, 676.859 572.861 C 679.382 568.360, 679.730 567.110, 678.581 566.670 C 675.799 565.602, 640.369 565.155, 629 566.044 M 536 588.072 C 507.284 599.620, 473.954 619.221, 448.039 639.799 C 434.155 650.823, 404.796 680.615, 395.383 693.230 C 382.285 710.784, 372.675 729.228, 368.410 745 C 367.323 749.020, 366.624 755.323, 366.576 761.521 C 366.505 770.906, 366.709 771.966, 369.787 778.218 C 377.132 793.138, 393.439 801.160, 419.446 802.645 C 432.993 803.419, 443.196 801.617, 456.696 796.066 C 480.566 786.250, 511.836 764.949, 541.547 738.266 L 551.594 729.243 550.853 720.871 C 548.377 692.884, 545 621.896, 545 597.823 C 545 590.770, 544.663 585.013, 544.250 585.028 C 543.837 585.043, 540.125 586.413, 536 588.072 " stroke="none" fill="black" fill-rule="evenodd"/>
</svg>