<?xml version="1.0" encoding="UTF-8" standalone="no"?>
<svg
   xmlns:dc="http://purl.org/dc/elements/1.1/"
   xmlns:cc="http://creativecommons.org/ns#"
   xmlns:rdf="http://www.w3.org/1999/02/22-rdf-syntax-ns#"
   xmlns:svg="http://www.w3.org/2000/svg"
   xmlns="http://www.w3.org/2000/svg"
   xmlns:sodipodi="http://sodipodi.sourceforge.net/DTD/sodipodi-0.dtd"
   xmlns:inkscape="http://www.inkscape.org/namespaces/inkscape"
   inkscape:version="1.0 (4035a4fb49, 2020-05-01)"
   sodipodi:docname="u1b05f.svg"
   id="svg6"
   height="200"
   width="200"
   viewBox="0 0 200 200"
   version="1.1">
  <metadata
     id="metadata12">
    <rdf:RDF>
      <cc:Work
         rdf:about="">
        <dc:format>image/svg+xml</dc:format>
        <dc:type
           rdf:resource="http://purl.org/dc/dcmitype/StillImage" />
      </cc:Work>
    </rdf:RDF>
  </metadata>
  <defs
     id="defs10" />
  <sodipodi:namedview
     inkscape:current-layer="svg6"
     inkscape:window-maximized="1"
     inkscape:window-y="28"
     inkscape:window-x="0"
     inkscape:cy="129.33293"
     inkscape:cx="102.80216"
     inkscape:zoom="3.9810112"
     showgrid="false"
     id="namedview8"
     inkscape:window-height="846"
     inkscape:window-width="1440"
     inkscape:pageshadow="2"
     inkscape:pageopacity="0"
     guidetolerance="10"
     gridtolerance="10"
     objecttolerance="10"
     borderopacity="1"
     bordercolor="#666666"
     pagecolor="#ffffff" />
  <g
     id="g4"
     fill="black">
    <path
       sodipodi:nodetypes="acccccssccccsscsscccssccccccssccacscccssccsccccccc"
       d="m 100.7068,33.833687 c 0.12778,3.417622 -1.957615,6.551175 -4.722162,9.108755 C 107.22715,38.867484 118.63874,35.258857 130.2,32.2 c 1.16667,4.5 2.33333,9 3.5,13.5 -4.37603,2.944914 -9.3482,7.057815 -13.66129,10.839297 -7.8472,6.81756 -15.21285,13.583479 -22.869908,20.721524 6.423158,-1.309581 12.930978,-2.089111 19.498128,-1.593159 23.26685,1.757116 31.58609,22.465082 32.33254,42.317308 0.32275,8.58377 -0.28769,18.70639 -2.35414,26.1552 7.81609,4.9645 18.88505,13.05308 26.25467,19.85983 l -9.9,9.9 c -6.53984,-6.17843 -13.50247,-12.01215 -21.45126,-16.29698 -2.01368,4.3559 -4.94918,8.32062 -7.87536,12.10027 -13.02013,16.81764 -39.361509,19.04203 -53.293999,7.53633 -2.628946,-2.17103 -5.37984,-4.10869 -7.183164,-6.89988 -6.199906,1.68466 -12.794954,2.59396 -19.073268,1.6008 -28.320862,-4.48003 -26.357824,-29.83174 -3.549683,-36.66562 6.599035,-1.97723 13.579005,-3.18163 20.46825,-3.64099 7.36531,-38.993699 50.218554,-42.758934 41.492914,1.03716 7.15477,1.03819 14.11224,3.20344 20.88113,5.68357 2.11974,-7.93793 2.50169,-15.25407 1.66931,-24.30532 C 133.7519,99.554703 127.39675,89.597153 112.49007,89.490139 99.00814,89.393353 86.677255,95.669045 75.386656,102.34174 68.766098,106.31018 62.103813,110.33239 55.9,114.9 L 46,105 C 62.501266,88.532285 80.057457,73.172387 97.576047,57.806456 87.452515,61.459527 77.275208,64.2371 67.6,69 65.003067,65.080814 63.067951,60.667543 60,57.1 68.326221,49.460752 76.742011,44.417953 84.102985,36.315083 84.917125,35.418886 86.349554,33.043956 85.800317,31.078391 84.993058,28.189439 82.532493,25.999055 80,24.4 l 7.6,-11.8 c 7.055134,4.911735 12.79603,12.921791 13.1068,21.233687 z M 87.875307,165.39126 c 10.475938,8.76947 24.404563,5.68129 33.334803,-3.14069 3.11941,-3.08159 5.54069,-6.86744 7.72921,-10.60945 -6.62064,-2.55212 -13.53014,-4.39767 -20.54851,-5.47611 -4.40436,8.32224 -11.699431,16.8234 -20.515503,19.22625 z M 54.961853,148.68312 c -13.42003,3.81472 -7.676564,9.19583 2.720155,9.36177 3.537333,0.0565 7.145777,0.17714 10.573109,-0.85761 -0.580461,-3.69573 -0.463852,-7.48262 -0.01805,-11.18942 -4.814793,0.56787 -9.5061,1.61387 -13.275214,2.68526 z m 27.451994,-3.9156 c -0.358674,2.65381 -0.592553,5.33527 -0.513847,8.01702 5.868369,-1.65909 8.767091,-4.48871 11.489097,-8.13999 -3.653793,-0.0685 -7.318525,0.10096 -10.97525,0.12297 z m 3.517449,-14.06141 c 4.228636,-0.10651 8.456191,-0.17764 12.666913,0.30285 5.728521,-24.38073 -6.644666,-16.49238 -12.666913,-0.30285 z"
       id="path2" />
  </g>
</svg>
