<?xml version="1.0" encoding="UTF-8" standalone="no"?>
<svg
   xmlns:dc="http://purl.org/dc/elements/1.1/"
   xmlns:cc="http://creativecommons.org/ns#"
   xmlns:rdf="http://www.w3.org/1999/02/22-rdf-syntax-ns#"
   xmlns:svg="http://www.w3.org/2000/svg"
   xmlns="http://www.w3.org/2000/svg"
   xmlns:sodipodi="http://sodipodi.sourceforge.net/DTD/sodipodi-0.dtd"
   xmlns:inkscape="http://www.inkscape.org/namespaces/inkscape"
   inkscape:version="1.0 (4035a4fb49, 2020-05-01)"
   sodipodi:docname="u1b057.svg"
   id="svg6"
   height="200"
   width="200"
   viewBox="0 0 200 200"
   version="1.1">
  <metadata
     id="metadata12">
    <rdf:RDF>
      <cc:Work
         rdf:about="">
        <dc:format>image/svg+xml</dc:format>
        <dc:type
           rdf:resource="http://purl.org/dc/dcmitype/StillImage" />
      </cc:Work>
    </rdf:RDF>
  </metadata>
  <defs
     id="defs10" />
  <sodipodi:namedview
     inkscape:current-layer="svg6"
     inkscape:window-maximized="1"
     inkscape:window-y="28"
     inkscape:window-x="0"
     inkscape:cy="95.296057"
     inkscape:cx="105.40691"
     inkscape:zoom="2.815"
     showgrid="false"
     id="namedview8"
     inkscape:window-height="846"
     inkscape:window-width="1440"
     inkscape:pageshadow="2"
     inkscape:pageopacity="0"
     guidetolerance="10"
     gridtolerance="10"
     objecttolerance="10"
     borderopacity="1"
     bordercolor="#666666"
     pagecolor="#ffffff" />
  <g
     id="g4"
     fill="black">
    <path
       sodipodi:nodetypes="cssccccccscsccsccscsssccsssccsccscssccssscc"
       d="m 124.8,36.7 c -3.5501,1.071379 -6.11902,4.268272 -8.75309,6.794865 C 108.80352,50.442698 104,60.063286 104,70.545764 V 180 H 90 c -0.222876,-4.29107 -3.903188,-7.54451 -6.4,-10.8 -6.93046,-6.91273 -15.373854,-12.08083 -24,-16.6 2.166667,-4.13333 4.333333,-8.26667 6.5,-12.4 8.48396,4.42221 16.653252,9.54326 23.9,15.8175 0.07016,-30.80786 -1.605422,-82.918675 0.104939,-92.462127 1.305655,-7.285275 3.963772,-14.286651 8.007299,-20.433477 C 85.431951,45.577325 74.201554,47.891942 61.449197,44.881501 54.45491,43.230364 48.364269,37.470509 46.364132,34.001903 L 60.17281,27.841165 c 3.873029,3.16121 9.255175,4.656159 13.975197,4.462549 C 90.139925,31.647743 105.68036,27.233232 121.1,23.2 c 1.23333,4.5 2.46667,9 3.7,13.5 z m 10.74556,52.561037 c 1.14116,2.540566 2.13713,5.203932 2.77837,7.919797 8.33,-7.54968 14.60546,-11.31916 24.97607,-9.780834 8.93392,1.325215 15.15861,9.418873 17.56652,17.90983 3.69186,13.0185 -3.24836,29.98577 -11.20041,38.25313 -7.54704,7.84629 -17.01498,13.52433 -26.76611,18.23704 -2.03333,-4.2 -4.06667,-8.4 -6.1,-12.6 11.95666,-5.92325 24.96465,-13.35003 29.999,-26.38116 2.45122,-6.34485 2.18326,-13.77919 -2.11754,-19.23738 -3.12159,-3.961642 -8.66393,-2.86445 -12.31609,-0.14729 -4.84204,3.60241 -8.37862,8.99918 -11.35475,14.15412 -6.08949,0.0259 -9.22065,-0.035 -13.88481,0.0164 -0.84476,-7.91574 -1.13409,-18.402143 -5.82852,-24.974399 -0.87921,-1.230909 -3.62387,-1.092971 -5.6208,0.704714 C 113.66277,89.978842 111.21372,84.756194 109.2,81.4 c 10.91467,-6.727596 20.85812,-4.35566 26.34556,7.861037 z M 39.9,104.8 c -1.941313,4.5268 -4.148252,9.1269 -4.976532,14.008 -0.359195,2.11675 0.824188,2.96324 2.444328,2.64258 C 48.713201,119.20508 58.030491,111.20567 66.4,103.6 c 3.233333,3.36667 6.466667,6.73333 9.7,10.1 C 64.635491,124.2868 51.169236,134.70926 35,135.85714 31.462129,136.1083 26.752933,134.48193 24.036919,131.3719 18.906213,125.49687 20.565215,116.91372 22.702602,110.09849 23.90708,106.25791 25.577559,102.58101 27.2,98.9 c 4.233333,1.96667 8.466667,3.93333 12.7,5.9 z"
       id="path2" />
  </g>
</svg>
