<?xml version="1.0" encoding="UTF-8" standalone="no"?>
<svg
   xmlns:dc="http://purl.org/dc/elements/1.1/"
   xmlns:cc="http://creativecommons.org/ns#"
   xmlns:rdf="http://www.w3.org/1999/02/22-rdf-syntax-ns#"
   xmlns:svg="http://www.w3.org/2000/svg"
   xmlns="http://www.w3.org/2000/svg"
   xmlns:sodipodi="http://sodipodi.sourceforge.net/DTD/sodipodi-0.dtd"
   xmlns:inkscape="http://www.inkscape.org/namespaces/inkscape"
   inkscape:version="1.0 (4035a4fb49, 2020-05-01)"
   sodipodi:docname="u1b053.svg"
   id="svg6"
   height="200"
   width="200"
   viewBox="0 0 200 200"
   version="1.1">
  <metadata
     id="metadata12">
    <rdf:RDF>
      <cc:Work
         rdf:about="">
        <dc:format>image/svg+xml</dc:format>
        <dc:type
           rdf:resource="http://purl.org/dc/dcmitype/StillImage" />
      </cc:Work>
    </rdf:RDF>
  </metadata>
  <defs
     id="defs10" />
  <sodipodi:namedview
     inkscape:current-layer="svg6"
     inkscape:window-maximized="1"
     inkscape:window-y="28"
     inkscape:window-x="0"
     inkscape:cy="84.036819"
     inkscape:cx="110.42798"
     inkscape:zoom="2.815"
     showgrid="false"
     id="namedview8"
     inkscape:window-height="846"
     inkscape:window-width="1440"
     inkscape:pageshadow="2"
     inkscape:pageopacity="0"
     guidetolerance="10"
     gridtolerance="10"
     objecttolerance="10"
     borderopacity="1"
     bordercolor="#666666"
     pagecolor="#ffffff" />
  <g
     id="g4"
     fill="black">
    <path
       sodipodi:nodetypes="ccccccccccccccccccccccccccccccccc"
       d="m 98.533941,30.643161 c 1.873669,4.9519 3.738119,10.736769 5.664539,16.031381 1.45354,4.169107 2.94457,8.324922 4.43412,12.481257 C 123.89811,54.074156 135.84064,47.08931 147.9,39.2 l 8.1,11.5 c -10.39989,7.017111 -21.26103,13.392749 -32.88208,18.176194 -3.14898,1.43231 -6.51905,2.300975 -9.76478,3.486653 3.73353,10.607079 7.51534,21.196889 11.35916,31.764513 3.61683,-3.33303 6.96682,-6.44693 10.34183,-10.213537 2.45071,-2.600773 7.16783,-6.238757 6.87143,-8.624429 C 141.28626,82.068445 138.81358,79.920988 135.4,80 c 0.33333,-4.666667 0.66667,-9.333333 1,-14 8.61694,0.411196 16.46104,6.542076 18.78062,14.876463 C 156.94643,87.728657 155.04845,92.308637 151.8,96 c -6.79895,8.1036 -14.16164,15.70686 -21.74456,23.07524 7.41021,20.13455 14.60941,40.34917 22.44456,60.32476 -4.36667,1.7 -8.73333,3.4 -13.1,5.1 -6.95106,-18.29294 -13.83959,-36.61093 -20.40786,-55.04541 C 102.83261,144.24035 86.127716,158.15038 68.7,171.3 c -6.936274,4.94839 -13.979997,9.77224 -21.5,13.8 l -6.5,-12.3 c 19.095699,-10.7716 35.824069,-25.14778 52.329759,-39.44773 6.962345,-6.12517 13.880781,-12.30161 20.600921,-18.6929 -4.69372,-12.87911 -9.32631,-25.780255 -13.872422,-38.712228 -10.463848,1.829366 -21.20254,2.477779 -31.761424,1.039932 -8.249014,-0.897508 -16.614889,-3.292015 -24.40295,-6.112651 1.812396,-4.379205 3.29036,-8.509792 4.966785,-13.032343 10.877946,4.043805 23.115505,6.383487 34.733658,5.889937 3.936935,0.133618 7.801358,-0.750944 11.698796,-1.171921 C 91.677173,53.678648 87.048571,38.283033 85.34009,35.780111 81.460882,29.827879 73.881941,28.568221 67.3,28.9 l -0.7,-14 c 12.759553,-0.496768 27.904143,5.175156 31.933941,15.743161 z"
       id="path2" />
  </g>
</svg>
