<?xml version="1.0" encoding="UTF-8" standalone="no"?>
<svg
   xmlns:dc="http://purl.org/dc/elements/1.1/"
   xmlns:cc="http://creativecommons.org/ns#"
   xmlns:rdf="http://www.w3.org/1999/02/22-rdf-syntax-ns#"
   xmlns:svg="http://www.w3.org/2000/svg"
   xmlns="http://www.w3.org/2000/svg"
   xmlns:sodipodi="http://sodipodi.sourceforge.net/DTD/sodipodi-0.dtd"
   xmlns:inkscape="http://www.inkscape.org/namespaces/inkscape"
   inkscape:version="1.0 (4035a4fb49, 2020-05-01)"
   sodipodi:docname="u1b054.svg"
   id="svg6"
   height="200"
   width="200"
   viewBox="0 0 200 200"
   version="1.1">
  <metadata
     id="metadata12">
    <rdf:RDF>
      <cc:Work
         rdf:about="">
        <dc:format>image/svg+xml</dc:format>
        <dc:type
           rdf:resource="http://purl.org/dc/dcmitype/StillImage" />
      </cc:Work>
    </rdf:RDF>
  </metadata>
  <defs
     id="defs10" />
  <sodipodi:namedview
     inkscape:current-layer="svg6"
     inkscape:window-maximized="1"
     inkscape:window-y="28"
     inkscape:window-x="0"
     inkscape:cy="106.83174"
     inkscape:cx="149.20163"
     inkscape:zoom="2.815"
     showgrid="false"
     id="namedview8"
     inkscape:window-height="846"
     inkscape:window-width="1440"
     inkscape:pageshadow="2"
     inkscape:pageopacity="0"
     guidetolerance="10"
     gridtolerance="10"
     objecttolerance="10"
     borderopacity="1"
     bordercolor="#666666"
     pagecolor="#ffffff" />
  <g
     id="g4"
     fill="black">
    <path
       sodipodi:nodetypes="sssccsccssccccsssssccsssscccccccccssccccssccssccssccs"
       d="m 81.2,17.7 c 8.911555,1.572627 15.909705,5.514489 21.09186,13.078229 1.83308,2.675518 2.64877,6.363274 3.1091,8.915488 C 107.58273,51.790244 108.5059,64.496834 109.2,76.5 121.65802,75.002442 134.15125,73.745301 146.7,73.374725 146.706,65.207824 145.53152,55.52539 142.48276,49.348276 140.39066,45.10947 132.96647,43.236373 127.5,42 c 0.96667,-4.566667 1.93333,-9.133333 2.9,-13.7 9.433,1.998337 17.7771,4.840014 22.91931,13.060665 1.72948,2.764846 4.0504,7.845779 4.76972,11.339973 1.40685,6.834005 2.68221,13.751725 2.61097,20.736399 6.4561,0.195165 12.90627,0.624702 19.3,1.562963 l -2.1,13.9 c -5.97457,-0.762518 -11.97234,-1.468847 -18.00211,-1.518477 -1.16477,8.153509 -3.48802,16.226687 -7.18529,23.588497 -6.08864,12.1234 -15.50286,20.14913 -26.61136,26.79045 -10.96052,6.55285 -22.39642,12.15991 -33.331994,18.74203 -3.074114,1.85031 -1.848726,3.77472 0.555661,4.64827 9.969123,3.62192 20.916723,2.71771 31.318183,1.96349 8.64016,-0.62651 17.2195,-2.04384 25.65691,-4.01426 l 3.3,13.7 c -16.18961,3.53392 -32.88195,5.75057 -49.44403,4.58482 -6.608479,-0.46515 -13.309167,-1.99995 -19.258953,-5.218 -12.44173,-6.72933 -9.831959,-21.87891 2.525769,-29.02528 18.934774,-10.94983 43.689304,-19.71872 52.633734,-38.00771 2.74204,-5.606749 4.4357,-11.647051 5.69762,-17.731067 -12.27078,0.246471 -24.2795,1.890143 -36.38716,3.649172 C 109.18462,103.033 108.45907,115.01604 106.9,126.9 102.26667,126.26667 97.633333,125.63333 93,125 c 1.333815,-10.65556 2.234641,-21.36596 2.323801,-32.109143 -9.409987,1.197103 -18.888258,2.134211 -28.376702,3.112904 0.380419,6.555649 0.672591,13.208369 2.480468,19.553499 C 71.223501,113.75903 72.733141,111.71167 74.4,109.8 l 11.2,8.4 c -7.81752,9.0597 -18.157979,19.26001 -26.246425,8.9519 C 55.187179,121.84215 54.5697,114.7205 53.76211,107.85073 53.347353,104.32259 53.089512,100.7752 52.967775,97.223276 42.699437,98.114997 32.399688,98.56415 22.1,98.9 l -0.3,-14 C 32.007428,84.748518 42.275578,83.984162 52.4,83.2 52.153443,79.977585 51.791721,76.754858 51.592429,73.525532 51.223786,67.55204 50.132109,66.109783 45.514553,63.291622 40.221334,60.061094 34.549312,57.449942 28.5,56 l 2.9,-13.7 c 9.285533,2.132213 17.503162,7.012181 25.713531,11.766694 5.279403,3.057231 6.832543,8.107425 7.531807,13.308991 0.867188,6.450696 1.359148,9.019576 1.627751,14.672216 9.622615,-1.106012 19.308042,-1.785963 28.844002,-3.534083 C 94.684765,65.94636 93.423375,53.408585 91.358609,41.005311 91.06957,39.269027 90.781942,37.678998 89.424145,36.407488 85.867496,33.076859 80.879874,31.610833 76.1,31 l 1.7,-13.9 z"
       id="path2" />
  </g>
</svg>
