<?xml version="1.0" encoding="UTF-8" standalone="no"?>
<svg
   xmlns:dc="http://purl.org/dc/elements/1.1/"
   xmlns:cc="http://creativecommons.org/ns#"
   xmlns:rdf="http://www.w3.org/1999/02/22-rdf-syntax-ns#"
   xmlns:svg="http://www.w3.org/2000/svg"
   xmlns="http://www.w3.org/2000/svg"
   xmlns:sodipodi="http://sodipodi.sourceforge.net/DTD/sodipodi-0.dtd"
   xmlns:inkscape="http://www.inkscape.org/namespaces/inkscape"
   inkscape:version="1.0 (4035a4fb49, 2020-05-01)"
   sodipodi:docname="u1b05c.svg"
   id="svg6"
   height="200"
   width="200"
   viewBox="0 0 200 200"
   version="1.1">
  <metadata
     id="metadata12">
    <rdf:RDF>
      <cc:Work
         rdf:about="">
        <dc:format>image/svg+xml</dc:format>
        <dc:type
           rdf:resource="http://purl.org/dc/dcmitype/StillImage" />
      </cc:Work>
    </rdf:RDF>
  </metadata>
  <defs
     id="defs10" />
  <sodipodi:namedview
     inkscape:current-layer="svg6"
     inkscape:window-maximized="1"
     inkscape:window-y="28"
     inkscape:window-x="0"
     inkscape:cy="92.399377"
     inkscape:cx="142.41073"
     inkscape:zoom="2.815"
     showgrid="false"
     id="namedview8"
     inkscape:window-height="846"
     inkscape:window-width="1440"
     inkscape:pageshadow="2"
     inkscape:pageopacity="0"
     guidetolerance="10"
     gridtolerance="10"
     objecttolerance="10"
     borderopacity="1"
     bordercolor="#666666"
     pagecolor="#ffffff" />
  <g
     id="g4"
     fill="black">
    <path
       sodipodi:nodetypes="sscccccccsssscsccssscccssscccccccscccsssccscsscccccccccccccccccccc"
       d="m 132.4,79.8 c 4.47564,0.598122 8.79484,2.758961 11.84384,6.188115 3.49332,3.928873 5.59426,8.926073 6.13795,14.131555 18.73264,0.95539 20.74147,26.87718 0.94178,32.02797 0.0614,4.18918 0.19627,6.62555 0.11687,10.81476 9.21203,4.09942 18.01428,9.17974 25.8596,15.5376 -2.9,3.63333 -5.8,7.26667 -8.7,10.9 -5.46519,-4.27024 -11.34819,-8.02941 -17.54219,-11.15147 -0.82304,10.03665 -1.34987,20.52179 -6.25781,29.55147 -5.75542,-3.80431 -11.00723,-7.00032 -16.29845,-11.35435 -11.26527,-9.26994 -23.85978,-17.70619 -32.018247,-29.96361 -3.576548,-5.37347 -0.951838,-13.67067 2.358168,-18.03571 3.802799,-5.01491 8.270959,-9.4424 13.192999,-13.25611 7.39262,-5.72797 15.62368,-10.41789 24.49404,-13.44157 -0.23897,-3.992087 -2.73881,-8.424408 -7.40549,-8.14865 -6.39623,0.377959 -12.42503,2.70738 -18.22302,5.2 l -6,-12.6 c 9.62949,-4.376905 18.7032,-7.575594 27.49996,-6.4 z m -5.3,-63.2 c 14.87085,3.03295 18.45376,19.428142 5.96856,29.543908 -5.3632,4.345377 -11.3852,7.743534 -17.37462,11.110637 C 130.84356,53.164146 145.99806,49.092877 161.2,45.2 c 1.16667,4.5 2.33333,9 3.5,13.5 -25.44939,6.325616 -50.55642,13.185612 -76.155462,18.898266 -5.14204,1.147492 -11.269968,2.026109 -14.701306,6.950083 -2.744699,3.938645 -4.66036,8.361441 -5.767584,12.910228 -0.738147,3.032513 -1.017035,6.158713 -1.525553,9.238063 C 73.003209,102.15428 79.875758,98.250453 86.7,94.3 l 6.8,12.3 c -9.546654,5.44697 -19.054631,11.05298 -27.658363,17.92951 -0.05095,18.13137 1.499474,37.84368 -1.220152,51.5226 C 50.201252,169.01717 38.358718,162.94775 25.2,150.2 29.53948,137.32613 42.981644,125.46947 51.869106,117.83383 52.167682,109.08675 52.622209,100.77285 55.11667,91.838364 56.151113,88.133266 59.09766,81.006367 59.09766,81.006367 43.866897,80.425425 34.180408,68.987714 29.563426,63.419161 L 41.3,55.8 c 4.740093,5.57302 13.268679,13.133399 20.412008,9.909016 19.028452,-8.589136 38.732162,-15.843643 56.881682,-26.286949 11.47081,-6.600352 7.05015,-10.848126 -3.71692,-6.951 -4.03243,1.459534 -7.71534,3.713085 -11.37677,5.928933 -2.46667,-3.966667 -4.933333,-7.933333 -7.4,-11.9 9.32287,-5.530071 21.36962,-11.864141 31,-9.9 z m 11.02775,97.94548 c -7.96758,2.95491 -20.6206,12.69353 -26.90052,20.44447 -1.64216,2.02683 -3.66766,3.90387 -1.02288,6.57326 8.27086,8.34782 17.11528,16.06209 26.30388,23.31588 0.22523,-4.16562 1.00439,-8.73945 0.59177,-12.67909 -23.78937,-6.51344 -13.74471,-29.32213 1.05222,-30.16766 -0.006,-2.49977 0.12578,-5.20706 -0.0245,-7.48686 z m -95.643191,33.2764 c 3.138287,2.71728 6.627701,4.97353 10.176138,7.1108 -0.147104,-6.09391 -0.33002,-12.18664 -0.594447,-18.27669 -3.458265,3.57863 -7.003542,7.35785 -9.581691,11.16589 z m 95.256531,-9.40371 c 0.0624,-0.94704 0.0784,-1.94493 0.10485,-2.92678 -3.30358,1.2235 -2.62203,2.64245 -0.10485,2.92678 z m 13.5887,-19.46049 c 3.67388,-0.96782 3.16642,-6.38948 0.0235,-6.32506 0.0204,1.79574 0.01,4.73911 -0.0235,6.32506 z M 72.8,26.9 c -2.142946,4.955266 -4.043025,12.980414 0.154358,17.647012 -3.469585,4.420065 -5.568721,7.228992 -8.232061,10.889594 C 54.099133,44.400588 54.735826,32.949773 60.2,20.9 Z"
       id="path2" />
  </g>
</svg>
