<?xml version="1.0" encoding="UTF-8" standalone="no"?>
<svg
   xmlns:dc="http://purl.org/dc/elements/1.1/"
   xmlns:cc="http://creativecommons.org/ns#"
   xmlns:rdf="http://www.w3.org/1999/02/22-rdf-syntax-ns#"
   xmlns:svg="http://www.w3.org/2000/svg"
   xmlns="http://www.w3.org/2000/svg"
   xmlns:sodipodi="http://sodipodi.sourceforge.net/DTD/sodipodi-0.dtd"
   xmlns:inkscape="http://www.inkscape.org/namespaces/inkscape"
   inkscape:version="1.0 (4035a4fb49, 2020-05-01)"
   sodipodi:docname="u1b059.svg"
   id="svg6"
   height="200"
   width="200"
   viewBox="0 0 200 200"
   version="1.1">
  <metadata
     id="metadata12">
    <rdf:RDF>
      <cc:Work
         rdf:about="">
        <dc:format>image/svg+xml</dc:format>
        <dc:type
           rdf:resource="http://purl.org/dc/dcmitype/StillImage" />
      </cc:Work>
    </rdf:RDF>
  </metadata>
  <defs
     id="defs10" />
  <sodipodi:namedview
     inkscape:current-layer="svg6"
     inkscape:window-maximized="1"
     inkscape:window-y="28"
     inkscape:window-x="0"
     inkscape:cy="121.33317"
     inkscape:cx="63.239368"
     inkscape:zoom="1.9905056"
     showgrid="false"
     id="namedview8"
     inkscape:window-height="846"
     inkscape:window-width="1440"
     inkscape:pageshadow="2"
     inkscape:pageopacity="0"
     guidetolerance="10"
     gridtolerance="10"
     objecttolerance="10"
     borderopacity="1"
     bordercolor="#666666"
     pagecolor="#ffffff" />
  <g
     id="g4"
     fill="black">
    <path
       sodipodi:nodetypes="csscccssscccsssscccscscccccccsssccccccscc"
       d="m 72.1,22.4 c -1.088231,3.991825 -3.434193,9.13544 -0.28008,11.586278 1.790831,1.391529 5.898156,0.04815 7.917334,-0.641314 C 94.190918,28.409618 107.22018,23.152442 121.7,18.3 c 3.52508,2.83979 7.43032,5.881458 11.1,8.8 -9.63341,11.363611 -21.03756,21.036983 -32.1041,30.95359 11.73254,-2.705442 24.2041,-3.180642 35.88097,-0.0401 4.77816,1.285104 10.07291,4.047885 13.08672,6.608081 10.9711,9.319815 11.20853,25.010519 -2.65207,35.790879 -10.17531,7.91405 -23.29051,10.72908 -35.76028,13.24079 -4.47995,0.73464 -8.9314,1.6623 -13.45124,2.12676 -1.300535,3.93456 -2.522156,7.89423 -3.753734,11.85073 11.395924,-3.99788 22.782764,-3.90762 31.124334,3.68497 11.87837,10.81183 15.66111,39.73051 -0.44023,50.82608 -4.42334,3.04816 -10.31708,5.29121 -15.16728,5.44686 -11.32787,0.36353 -17.65518,-4.0628 -19.764454,-13.01404 -3.002599,-12.74229 8.676207,-23.76783 21.785144,-24.65694 0.12173,5.39045 0.43513,8.4006 0.71622,13.98234 -4.02917,0.22439 -9.48227,2.3706 -9.03094,7.22872 0.43005,3.05902 4.1123,3.15958 6.2234,2.70344 4.54968,-0.98302 9.76744,-3.03964 11.09153,-8.18946 2.65771,-10.43864 -1.9617,-26.56446 -12.24661,-26.68645 -7.50628,-0.089 -14.4996,3.56416 -20.255804,8.09606 C 84.38691,159.2339 81.060147,171.52318 77.7,183.8 c -4.5,-1.23333 -9,-2.46667 -13.5,-3.7 6.464145,-23.93945 13.459076,-47.74107 21.173004,-71.30885 C 83.019477,106.92813 81.741668,104.41217 80.1,101.8 c 3.641094,-4.802382 9.757878,-9.012729 15.979254,-6.993361 3.200476,0.849154 5.658156,3.53552 7.620746,5.893361 10.72216,-1.697846 21.96505,-3.869975 31.51215,-9.378669 7.1827,-4.144431 11.77507,-13.15175 3.67281,-17.195328 C 131.5905,70.485571 123.25382,69.652634 115.2668,70.05925 106.90684,70.484852 95.477793,73.081339 87.907382,76.577144 73.583626,82.677163 62.246526,90.779427 50.381604,100.85578 43.967947,99.07039 43.172588,98.995315 37.343744,96.909838 43.751985,87.495705 49.014459,82.961573 55.954016,77.294743 69.680069,66.922037 82.33665,55.223853 95.437134,44.088373 c 1.879048,-1.701029 2.874429,-2.654508 3.636471,-3.795547 -10.83775,5.3455 -26.593164,12.938482 -36.263775,5.450687 -9.14989,-7.084609 -7.625242,-21.046618 -3.465409,-28.076837 z"
       id="path2" />
  </g>
</svg>
