<?xml version="1.0" encoding="UTF-8" standalone="no"?>
<svg
   xmlns:dc="http://purl.org/dc/elements/1.1/"
   xmlns:cc="http://creativecommons.org/ns#"
   xmlns:rdf="http://www.w3.org/1999/02/22-rdf-syntax-ns#"
   xmlns:svg="http://www.w3.org/2000/svg"
   xmlns="http://www.w3.org/2000/svg"
   xmlns:sodipodi="http://sodipodi.sourceforge.net/DTD/sodipodi-0.dtd"
   xmlns:inkscape="http://www.inkscape.org/namespaces/inkscape"
   inkscape:version="1.0 (4035a4fb49, 2020-05-01)"
   sodipodi:docname="u1b052.svg"
   id="svg6"
   height="200"
   width="200"
   viewBox="0 0 200 200"
   version="1.1">
  <metadata
     id="metadata12">
    <rdf:RDF>
      <cc:Work
         rdf:about="">
        <dc:format>image/svg+xml</dc:format>
        <dc:type
           rdf:resource="http://purl.org/dc/dcmitype/StillImage" />
      </cc:Work>
    </rdf:RDF>
  </metadata>
  <defs
     id="defs10" />
  <sodipodi:namedview
     inkscape:current-layer="svg6"
     inkscape:window-maximized="1"
     inkscape:window-y="28"
     inkscape:window-x="0"
     inkscape:cy="86.845115"
     inkscape:cx="124.63538"
     inkscape:zoom="3.9810112"
     showgrid="false"
     id="namedview8"
     inkscape:window-height="846"
     inkscape:window-width="1440"
     inkscape:pageshadow="2"
     inkscape:pageopacity="0"
     guidetolerance="10"
     gridtolerance="10"
     objecttolerance="10"
     borderopacity="1"
     bordercolor="#666666"
     pagecolor="#ffffff" />
  <g
     id="g4"
     fill="black">
    <path
       sodipodi:nodetypes="sssccccccccccccccssssccssscccccsssccss"
       d="m 85.355004,25.914695 c 5.233187,1.434795 12.536664,4.788162 18.678516,7.221917 9.49891,3.764013 17.2444,6.86794 26.01083,12.118402 7.29916,4.371674 10.79822,7.185107 11.79406,9.28272 -15.55792,9.417528 -36.67809,19.025381 -54.526914,22.411092 5.176613,9.492295 10.774475,18.727838 16.852354,27.670814 11.65663,-8.052812 24.21196,-14.738252 36.87284,-21.063591 6.39222,-2.805949 12.62594,-5.987927 19.17048,-8.432494 C 158.06165,73.168988 155.41943,71.858141 152.7,70.9 c 1.46667,-4.433333 2.93333,-8.866667 4.4,-13.3 11.63171,3.714572 20.37537,13.581913 24.4,24.9 -7.33626,2.603463 -12.6765,4.203518 -20.50944,7.385406 -15.02455,6.498016 -29.65115,13.916394 -43.5012,22.658754 -1.50632,1.48794 -6.65258,2.63561 -4.18449,4.94977 3.70228,5.16951 7.95177,9.92081 11.89513,14.90607 -3.5,3.03333 -7,6.06667 -10.5,9.1 -4.60283,-5.74786 -9.56827,-11.21528 -13.79086,-17.25722 -6.444461,5.22216 -12.821799,10.71217 -17.802074,17.35599 -2.741489,3.65722 -5.167386,7.5103 -6.078678,12.06915 -0.647606,3.23973 -0.02023,7.26608 3.32419,9.03186 8.266187,4.36436 17.885415,4.83641 26.996852,5.09549 C 117.99047,168.09785 128.61519,167.06244 139.2,166 l 1.5,13.9 c -17.48079,1.71002 -35.22721,2.7232 -52.716271,0.1075 -22.844358,-3.41665 -32.674861,-21.01172 -18.721728,-42.71489 3.994584,-6.21331 8.926066,-11.63693 14.229044,-16.66751 2.917058,-2.76722 6.181958,-5.14298 9.272936,-7.71446 C 85.602794,101.94557 78.589909,90.842202 72.716148,79.127637 55.503151,80.758502 38.13246,80.266503 21,78 l 1.9,-13.9 c 14.421298,1.830298 29.020076,2.604982 43.529302,1.459701 C 64.071407,59.398239 61.960512,53.212193 60.964255,46.638139 58.050869,27.413413 70.329548,21.79513 85.355004,25.914695 Z m -8.987385,26.050003 c 1.207942,4.066895 2.785349,8.032596 4.543107,11.893215 C 93.153423,61.754148 105.24579,58.381338 116.55435,53.200571 104.68049,48.509974 93.109784,42.859226 80.910488,39.152312 70.393011,35.95644 74.338106,45.131739 76.367619,51.964698 Z"
       id="path2" />
  </g>
</svg>
