<?xml version="1.0" encoding="UTF-8" standalone="no"?>
<svg
   xmlns:dc="http://purl.org/dc/elements/1.1/"
   xmlns:cc="http://creativecommons.org/ns#"
   xmlns:rdf="http://www.w3.org/1999/02/22-rdf-syntax-ns#"
   xmlns:svg="http://www.w3.org/2000/svg"
   xmlns="http://www.w3.org/2000/svg"
   xmlns:sodipodi="http://sodipodi.sourceforge.net/DTD/sodipodi-0.dtd"
   xmlns:inkscape="http://www.inkscape.org/namespaces/inkscape"
   inkscape:version="1.0 (4035a4fb49, 2020-05-01)"
   sodipodi:docname="u1b055.svg"
   id="svg6"
   height="200"
   width="200"
   viewBox="0 0 200 200"
   version="1.1">
  <metadata
     id="metadata12">
    <rdf:RDF>
      <cc:Work
         rdf:about="">
        <dc:format>image/svg+xml</dc:format>
        <dc:type
           rdf:resource="http://purl.org/dc/dcmitype/StillImage" />
      </cc:Work>
    </rdf:RDF>
  </metadata>
  <defs
     id="defs10" />
  <sodipodi:namedview
     inkscape:current-layer="svg6"
     inkscape:window-maximized="1"
     inkscape:window-y="28"
     inkscape:window-x="0"
     inkscape:cy="137.12951"
     inkscape:cx="51.993901"
     inkscape:zoom="1.9905056"
     showgrid="false"
     id="namedview8"
     inkscape:window-height="846"
     inkscape:window-width="1440"
     inkscape:pageshadow="2"
     inkscape:pageopacity="0"
     guidetolerance="10"
     gridtolerance="10"
     objecttolerance="10"
     borderopacity="1"
     bordercolor="#666666"
     pagecolor="#ffffff" />
  <g
     id="g4"
     fill="black">
    <path
       sodipodi:nodetypes="csscsssccccssccccccccccsscccccccccccccccccsccccccccsscsscccsssccssccscccc"
       d="m 111.77497,105.62332 c 3.35678,-0.8873 10.9525,-2.40513 14.47353,-2.46617 10.47651,-0.18162 13.34818,8.04819 13.98319,14.37199 0.88645,8.82776 -1.14633,17.62814 -3.35527,26.09216 -1.90772,6.55126 -3.68041,13.82294 -6.32822,19.66039 -3.2983,7.27155 -8.32306,14.51935 -16.08302,17.54769 -8.2183,3.2072 -15.141609,1.31164 -22.596312,-6.60202 -2.766164,-2.93647 -5.450137,-5.99513 -7.756456,-9.29345 C 78.627831,171.21916 72.566529,176.98079 65.9,182 c -2.766667,-3.76667 -5.533333,-7.53333 -8.3,-11.3 15.106739,-11.13829 27.340486,-28.31408 34.626482,-45.50733 -6.388436,1.96241 -9.874469,3.95115 -15.897579,2.86982 C 70.106656,126.94541 66.980091,119.4303 71.77009,112.32535 73.200257,110.204 74.770739,107.66581 79.9,104 c 2.161806,2.79024 4.323612,5.58048 6.485419,8.37071 3.624872,-1.21796 7.347835,-2.10663 11.031347,-3.1252 C 100.86173,102.67652 92.209887,101.76355 87.2,100 l 3.4,-13.6 c 9.971,3.535942 20.76708,7.543937 21.17497,19.22332 z m -3.22735,15.32511 c -3.87374,10.81836 -9.032897,22.50967 -15.53512,32.02657 4.000986,5.78268 7.79126,12.93743 14.8875,15.225 4.4967,-0.728 6.92675,-5.50866 9.04637,-9.12082 4.24402,-10.60542 7.69323,-21.66643 9.45363,-32.97918 0.76275,-4.90163 2.14193,-9.56575 -3.28055,-8.60472 -3.69754,0.65532 -9.67127,1.95325 -14.57183,3.45315 z M 67.2,27.3 c 0.544198,3.898248 1.126918,7.791373 1.587591,11.70073 C 75.014196,37.318832 80.971792,34.748864 86.7,31.8 l 6.5,12.3 C 85.888863,47.861902 78.283367,51.191467 70.228596,52.978906 70.901406,62.035942 71.345956,71.117782 71.4,80.2 78.606398,73.15793 85.254296,65.577177 92,58.1 l 10.6,9.2 c -9.982026,11.352754 -20.060321,22.179364 -31.229916,32.378029 0.01121,1.659081 0.005,1.925781 0.04103,3.407261 -1.628716,0.19962 -2.955583,0.28689 -4.581799,0.62068 C 57.02669,112.13929 46.42473,120.07382 34.2,124.6 c -1.477959,-4.4321 -3.135228,-9.13669 -4.5,-13.4 6.119726,-9.17691 11.726715,-18.84156 15.202827,-29.355288 -1.487968,1.161589 -5.367791,2.618875 -4.151045,4.808259 -5.521787,4.842937 -7.388272,5.703876 -11.115725,8.624263 C 23.519375,86.805984 26.410568,79.331248 31.021116,74.957273 38.058302,68.281174 48.084384,64.940677 56.523906,62.382999 56.393158,60.273183 56.212001,57.697108 56.118743,54.683885 48.086416,54.543846 39.422853,52.405455 32.4,48.5 l 6.9,-12.2 c 4.740229,2.738527 10.165922,4.234749 15.635143,4.374545 C 54.250181,34.513097 53.076122,28.419505 52.1,22.3 l 13.7,-2.7 z m 68.54411,-5.169158 c 6.00418,0.234722 11.40183,7.48726 11.2261,13.629266 -0.19703,6.886399 -1.46753,10.051366 -4.16106,16.408444 9.32533,-0.249015 20.69181,0.32636 26.59258,8.299107 4.21711,5.697891 3.73378,13.764059 0.0357,17.977001 -8.28795,9.441763 -19.86274,14.97022 -31.33764,19.272308 C 130.7318,100.39352 123.16901,102.47905 115.6,104.5 c -1.13333,-4.533333 -2.26667,-9.066667 -3.4,-13.6 18.04509,-3.730852 31.96649,-8.218548 43.65151,-18.231444 2.50341,-2.145178 3.50962,-3.359327 0.50706,-4.732643 -5.50929,-2.519849 -12.07761,-2.129355 -17.96897,-1.602652 -1.72918,0.154593 -2.31243,0.393903 -3.62064,0.884257 C 132.04277,64.970932 125.92619,59.946586 123.2,57.7 c 4.51603,-5.343402 7.74845,-11.885964 8.88709,-18.814397 0.33896,-2.062507 -0.60261,-2.370444 -1.97355,-1.439335 -4.94071,3.35559 -8.34916,8.58576 -11.71354,13.453732 -3.93333,-2.533333 -7.86667,-5.066667 -11.8,-7.6 10.37109,-11.778459 17.06558,-21.641347 29.14411,-21.169158 z M 57.120427,93.642087 c 0.281183,-2.234573 0.24743,-3.41914 0.225619,-5.133998 l -2.830191,7.856162 c 1.038403,-1.173077 1.077216,-1.161712 2.604572,-2.722164 z"
       id="path2" />
  </g>
</svg>
