<?xml version="1.0" encoding="UTF-8" standalone="no"?>
<svg
   xmlns:dc="http://purl.org/dc/elements/1.1/"
   xmlns:cc="http://creativecommons.org/ns#"
   xmlns:rdf="http://www.w3.org/1999/02/22-rdf-syntax-ns#"
   xmlns:svg="http://www.w3.org/2000/svg"
   xmlns="http://www.w3.org/2000/svg"
   xmlns:sodipodi="http://sodipodi.sourceforge.net/DTD/sodipodi-0.dtd"
   xmlns:inkscape="http://www.inkscape.org/namespaces/inkscape"
   inkscape:version="1.0 (4035a4fb49, 2020-05-01)"
   sodipodi:docname="u1b05d.svg"
   id="svg6"
   height="200"
   width="200"
   viewBox="0 0 200 200"
   version="1.1">
  <metadata
     id="metadata12">
    <rdf:RDF>
      <cc:Work
         rdf:about="">
        <dc:format>image/svg+xml</dc:format>
        <dc:type
           rdf:resource="http://purl.org/dc/dcmitype/StillImage" />
      </cc:Work>
    </rdf:RDF>
  </metadata>
  <defs
     id="defs10" />
  <sodipodi:namedview
     inkscape:current-layer="svg6"
     inkscape:window-maximized="1"
     inkscape:window-y="28"
     inkscape:window-x="0"
     inkscape:cy="157.90651"
     inkscape:cx="127.44838"
     inkscape:zoom="1.4075"
     showgrid="false"
     id="namedview8"
     inkscape:window-height="846"
     inkscape:window-width="1440"
     inkscape:pageshadow="2"
     inkscape:pageopacity="0"
     guidetolerance="10"
     gridtolerance="10"
     objecttolerance="10"
     borderopacity="1"
     bordercolor="#666666"
     pagecolor="#ffffff" />
  <g
     id="g4"
     fill="black">
    <path
       sodipodi:nodetypes="cssssccsscccccccccccsssccccccsssccssccccssscsccccc"
       d="M 94.654604,56.500902 C 105.83113,53.605852 116.81481,49.936528 128.1,47.5 c 18.14884,-3.918424 33.41922,-1.5792 43.46165,7.16867 10.13019,8.824315 13.14571,28.840741 -0.95345,37.417703 -9.67396,5.884972 -22.89384,4.69685 -33.93199,4.160894 C 132.13831,96.02693 127.6268,95.394929 123.1,95 c 0.56667,-4.633333 1.13333,-9.266667 1.7,-13.9 11.86502,1.202103 24.49335,3.839894 35.84891,-0.32121 9.09993,-3.334556 4.89549,-13.388514 0.2536,-16.786765 -6.66204,-4.877177 -15.79426,-3.754553 -23.57726,-3.311008 -10.48711,0.737677 -20.3521,4.762207 -30.51865,7.162638 -2.95552,0.825118 -5.9372,1.551316 -8.907167,2.32178 1.166285,11.463809 -0.514633,22.99791 -2.55125,34.272485 6.962257,-1.84112 14.345437,-2.67626 21.423107,-1.01884 14.10452,3.61873 16.71532,16.7803 15.32901,28.91456 -0.69753,3.93449 -1.26917,7.89897 -2.61965,11.67793 C 146.16856,150.4448 157.21726,159.61188 170.9,171 l -9.9,9.9 c -12.86414,-11.0636 -24.75395,-19.6178 -39.64697,-25.18587 -2.26039,0.46011 -4.49832,2.95829 -6.76814,4.15323 -19.915016,12.50983 -44.530729,18.42991 -67.256623,14.77984 -23.058351,-3.70347 -26.704473,-24.76384 -9.924066,-34.61989 19.155786,-11.25124 45.189245,-8.45611 63.772009,-5.1905 5.16201,0.90714 10.11915,2.73491 15.17873,4.10236 3.11612,-15.32718 5.46924,-23.61318 -13.09705,-21.93673 C 97.161182,118.18455 91.272233,120.11228 85.4,122.1 l -4.805929,-12.49542 c -0.902527,-1.74564 0.881663,-5.2716 0.976525,-7.67815 1.759423,-9.321945 3.056307,-18.815219 2.619977,-28.317673 C 70.499435,76.808259 56.743991,79.866268 42.774579,81.69215 38.22836,82.286367 32.576758,82.476028 28.0042,80.677966 23.830484,79.03674 20.671798,75.26368 19.933993,70.785547 18.791654,63.852081 22.140568,57.214311 25.4,51.3 l 12.1,7 c -1.211388,2.257403 -2.312386,4.643565 -3.325826,7.011708 -1.648593,3.852331 7.494035,2.451975 10.028588,2.157342 12.385057,-1.439722 24.482843,-4.631498 36.611524,-7.447621 -0.534334,-2.616384 -2.897224,-3.459834 -5.173007,-4.645886 L 80,42.6 c 6.577744,2.475796 12.326364,7.502801 14.654604,13.900902 z M 54.7,148.52252 c -28.279201,7.67469 -1.055231,15.64443 14.115421,13.19903 11.093005,-1.78812 22.057345,-6.00348 32.528029,-10.22 2.05894,-0.82913 2.40057,-0.94486 4.05845,-1.50702 C 90.407686,146.64018 68.036442,144.90315 54.7,148.52252 Z M 127.3,24 c 0.43333,4.633333 0.86667,9.266667 1.3,13.9 -20.12493,2.248419 -52.572548,5.480105 -64.8,-10.1 l 11.5,-8 c 15.335832,8.728973 35.81695,6.098854 52,4.2 z"
       id="path2" />
  </g>
</svg>
