<?xml version="1.0" encoding="UTF-8" standalone="no"?>
<svg
   xmlns:dc="http://purl.org/dc/elements/1.1/"
   xmlns:cc="http://creativecommons.org/ns#"
   xmlns:rdf="http://www.w3.org/1999/02/22-rdf-syntax-ns#"
   xmlns:svg="http://www.w3.org/2000/svg"
   xmlns="http://www.w3.org/2000/svg"
   xmlns:sodipodi="http://sodipodi.sourceforge.net/DTD/sodipodi-0.dtd"
   xmlns:inkscape="http://www.inkscape.org/namespaces/inkscape"
   inkscape:version="1.0 (4035a4fb49, 2020-05-01)"
   sodipodi:docname="u1b05e.svg"
   id="svg6"
   height="200"
   width="200"
   viewBox="0 0 200 200"
   version="1.1">
  <metadata
     id="metadata12">
    <rdf:RDF>
      <cc:Work
         rdf:about="">
        <dc:format>image/svg+xml</dc:format>
        <dc:type
           rdf:resource="http://purl.org/dc/dcmitype/StillImage" />
      </cc:Work>
    </rdf:RDF>
  </metadata>
  <defs
     id="defs10" />
  <sodipodi:namedview
     inkscape:current-layer="svg6"
     inkscape:window-maximized="1"
     inkscape:window-y="28"
     inkscape:window-x="0"
     inkscape:cy="109.00483"
     inkscape:cx="73.47426"
     inkscape:zoom="1.9905056"
     showgrid="false"
     id="namedview8"
     inkscape:window-height="846"
     inkscape:window-width="1440"
     inkscape:pageshadow="2"
     inkscape:pageopacity="0"
     guidetolerance="10"
     gridtolerance="10"
     objecttolerance="10"
     borderopacity="1"
     bordercolor="#666666"
     pagecolor="#ffffff" />
  <g
     id="g4"
     fill="black">
    <path
       sodipodi:nodetypes="scssccaaccasccsssccsscssccccssssccccccccccccsccccccccscc"
       d="m 107,33.17716 v 34.888357 c 10.84442,-4.550922 22.24194,-10.319525 28.48383,-20.775829 1.07517,-1.801101 2.96081,-5.532186 0.95972,-6.771063 C 133.11917,38.460497 128.9241,39.147643 125.2,39.6 c -0.86667,-4.566667 -1.73333,-9.133333 -2.6,-13.7 9.52236,-1.919696 18.63782,0.216036 25.08867,5.888534 2.84643,2.50298 4.28364,6.867977 3.99263,10.647179 -0.65872,8.554401 -5.5854,16.068656 -12.62073,22.432619 -0.61739,1.539802 -7.08895,4.458406 -2.97746,3.946356 10.89104,-0.224446 23.99712,0.725492 31.05593,8.852201 3.24345,3.734127 5.62227,8.912932 2.03033,14.698652 C 164.73929,99.50128 151.85082,102.00529 140.8,103.4 c -3.83906,0.27097 -7.09102,0.82214 -10.96985,1.31746 -4.96429,0.87274 -11.17364,3.92693 -12.23799,9.0992 -8.11487,39.4348 -9.48964,37.03037 -28.923227,51.26442 -3.370051,2.46837 2.151283,2.30767 4.020936,2.31892 12.473201,0.0751 24.869261,-1.74097 37.210131,-3.4 l 2.1,13.9 c -16.49766,1.9697 -33.42776,4.97674 -49.831629,1.6012 -12.618858,-2.59667 -12.89551,-17.56195 -1.718587,-23.99677 3.223652,-1.85594 6.815884,-5.03082 9.350216,-7.20443 -7.726648,-4.43482 -11.465247,-9.8219 -12.032017,-18.16535 -0.366002,-5.38794 1.692295,-12.35024 5.677432,-16.07382 5.557315,-5.19257 13.322982,-5.18075 20.390465,-4.14716 2.52312,-6.52069 7.20298,-12.305206 13.48913,-15.472008 4.97879,-2.656469 10.58826,-3.898463 16.19528,-4.226014 1.99753,-0.930366 5.45935,-0.526727 8.00591,-1.077554 4.31074,-0.514025 8.65853,-1.333876 12.7387,-2.857245 1.45243,-0.542278 1.21836,-1.313277 0.0757,-1.637838 C 143.0939,81.448457 131.06473,83.083812 119.57205,84.244765 90.324271,87.19928 63.633745,96.697297 38.15235,100.45917 24.758536,102.43653 22.52896,88.377058 29.2,76.7 L 41.8,83 c -2.780245,3.687878 1.895013,1.189541 3.914773,0.968848 C 60.70482,80.317626 75.90493,77.637755 91.078116,74.880702 89.177861,72.694846 85.559182,72.18938 82.815501,71.101363 80.123033,70.233985 77.346093,69.668055 74.6,69 l 2.7,-13.7 c 5.362701,1.000869 10.616965,2.579154 15.7,4.545161 V 35.307171 C 92.9321,32.810427 93.149635,31.660036 90.843826,30.752931 88.326896,29.847654 85.62902,29.441375 83,29 L 84.9,15.1 C 99.383808,18.054177 107,20.948582 107,33.17716 Z M 92.000917,130.7422 c 0.794723,1.91502 2.277301,6.61479 5.391393,6.41619 3.22903,-4.8048 3.73502,-10.3458 3.85455,-13.54882 -5.557247,-0.10667 -10.189299,1.0048 -9.245943,7.13263 z M 60.8,41.1 c -2.470851,2.71656 -2.950745,4.114521 0.890005,2.200321 C 65.61627,41.861229 69.560571,40.461618 73.4,38.8 l 5.2,13 C 69.088334,55.636025 59.078943,58.621915 51.364419,56.872714 43.849897,55.168863 40.96753,43.300724 49.9,32.4 Z"
       id="path2" />
  </g>
</svg>
