<?xml version="1.0" encoding="UTF-8" standalone="no"?>
<svg
   xmlns:dc="http://purl.org/dc/elements/1.1/"
   xmlns:cc="http://creativecommons.org/ns#"
   xmlns:rdf="http://www.w3.org/1999/02/22-rdf-syntax-ns#"
   xmlns:svg="http://www.w3.org/2000/svg"
   xmlns="http://www.w3.org/2000/svg"
   xmlns:sodipodi="http://sodipodi.sourceforge.net/DTD/sodipodi-0.dtd"
   xmlns:inkscape="http://www.inkscape.org/namespaces/inkscape"
   inkscape:version="1.0 (4035a4fb49, 2020-05-01)"
   sodipodi:docname="u1b0e3.svg"
   id="svg6"
   height="200"
   width="200"
   viewBox="0 0 200 200"
   version="1.1">
  <metadata
     id="metadata12">
    <rdf:RDF>
      <cc:Work
         rdf:about="">
        <dc:format>image/svg+xml</dc:format>
        <dc:type
           rdf:resource="http://purl.org/dc/dcmitype/StillImage" />
      </cc:Work>
    </rdf:RDF>
  </metadata>
  <defs
     id="defs10" />
  <sodipodi:namedview
     inkscape:current-layer="svg6"
     inkscape:window-maximized="1"
     inkscape:window-y="28"
     inkscape:window-x="0"
     inkscape:cy="94.25179"
     inkscape:cx="76.014065"
     inkscape:zoom="1.9905056"
     showgrid="false"
     id="namedview8"
     inkscape:window-height="846"
     inkscape:window-width="1440"
     inkscape:pageshadow="2"
     inkscape:pageopacity="0"
     guidetolerance="10"
     gridtolerance="10"
     objecttolerance="10"
     borderopacity="1"
     bordercolor="#666666"
     pagecolor="#ffffff" />
  <g
     id="g4"
     fill="black">
    <path
       sodipodi:nodetypes="cccccccccccccccccccccccccccccccccccccccccccccccccccccccc"
       d="m 175.56881,32.808948 c 2.24095,21.6291 -12.96382,39.260642 -18.80806,52.068297 2.21611,7.18978 3.659,14.609476 4.13016,22.122755 7.23001,-0.22019 14.42725,0.70866 21.50909,2.1 -0.96667,4.56667 -1.93333,9.13333 -2.9,13.7 -6.0406,-1.14573 -12.16711,-1.98675 -18.32887,-1.8 -0.64983,17.14321 -3.80061,35.88887 -8.33196,52.40466 -4.48395,2.27406 -8.14483,4.11138 -12.47598,6.32624 C 126.48973,160.61016 112.43428,148.36545 111,126.5 c 10.00393,-9.26284 24.5111,-15.86052 35.94859,-18.06548 -0.57907,-8.490709 -2.28704,-16.961283 -5.62786,-24.811783 8.44133,-11.496852 15.74999,-26.677035 18.37308,-39.582531 C 152.23196,45.2913 147.32971,51.886775 143.4,57.8 139.43333,55.333333 135.46667,52.866667 131.5,50.4 145.4514,30.426216 158.78297,26.588439 175.56881,32.808948 Z M 102.42269,61.11329 C 105.79587,60.091655 108.9189,58.412069 111.8,56.4 l 8.4,11.2 c -5.07492,3.420408 -10.55887,6.358328 -16.56234,7.723651 0.47163,5.360835 0.61888,10.74159 0.895,16.114431 2.82163,-4.22362 5.27032,-8.67643 7.86734,-13.038082 4.06667,2.266667 8.13333,4.533333 12.2,6.8 -5.96527,10.35977 -12.19133,20.60437 -19.63112,29.98602 0.0174,20.17467 -1.30083,40.3247 -3.06888,60.41398 -4.607471,0.75684 -8.378995,1.82571 -14.096022,3.01293 C 84.05056,167.05424 77.343534,156.77249 70.7,146.7 c 3.866667,-2.63333 7.733333,-5.26667 11.6,-7.9 2.625725,3.81209 5.117036,7.71414 7.501018,11.68167 0.399549,-6.44996 0.671524,-12.9059 0.893254,-19.36418 -7.411295,6.90436 -17.750019,14.38032 -24.013359,12.42144 -9.363569,-3.78223 -5.870728,-19.79753 -3.280754,-29.80539 4.478969,1.47909 7.833393,2.3127 12.260292,3.66646 -0.70371,3.22081 -4.023355,8.67414 -2.060451,9.796 C 76.283126,128.73022 85.894304,116.52331 91,110.3 90.931773,99.087316 90.646619,87.871816 89.769277,76.690796 79.854675,76.422427 70.229026,73.514313 61.1,69.8 l 5.5,-12.9 c 6.992284,2.965125 14.353794,5.129881 21.937592,5.807502 C 87.359322,50.828122 85.520024,39.026709 83.3,27.3 L 97,24.6 c 2.319199,12.130417 4.4194,25.593177 5.42269,36.51329 z M 47.509163,58.284678 C 41.190035,89.647213 31.724648,124.99199 39.248355,149.89174 40.539562,140.62128 43.076812,131.5751 46,122.7 c 4.433333,1.46667 8.866667,2.93333 13.3,4.4 -4.415888,13.56413 -8.210801,27.90746 -6.622817,42.27397 -3.293776,1.84176 -9.285326,2.48659 -14.285261,3.47415 C 17.775775,156.62486 22.696272,120.48565 25.427994,98.648039 27.267684,84.637994 30.261868,70.815375 33.6,57.1 35.754264,49.20211 30.470006,38.502849 23.585665,32.940793 27.17906,28.86719 29.663901,25.779484 32.573091,22.398001 43.397247,31.662196 50.43685,45.278957 47.509163,58.284678 Z M 125.668,132.37087 c 3.10746,9.82844 9.65099,18.08911 15.96923,26.06726 2.68326,-11.77692 5.03264,-23.70804 5.466,-35.80927 -7.97733,1.10272 -15.45137,5.85105 -21.43523,9.74201 z"
       id="path2" />
  </g>
</svg>
