<?xml version="1.0" encoding="UTF-8"?>
<svg xmlns="http://www.w3.org/2000/svg" xmlns:xlink="http://www.w3.org/1999/xlink" width="1000pt" height="1000pt" viewBox="0 0 1000 1000" version="1.1">
<g id="surface1">
<path style="fill:none;stroke-width:8.7;stroke-linecap:butt;stroke-linejoin:miter;stroke:rgb(0%,0%,0%);stroke-opacity:1;stroke-miterlimit:4;" d="M 53.757031 48.235156 C 53.757031 48.235156 58.557813 56.589063 77.385156 55.303125 C 97.371875 53.938281 151.232812 44.802344 151.232812 44.802344 " transform="matrix(5,0,0,5,0,0)"/>
<path style="fill:none;stroke-width:8.7;stroke-linecap:butt;stroke-linejoin:miter;stroke:rgb(0%,0%,0%);stroke-opacity:1;stroke-miterlimit:4;" d="M 99.139844 15.196875 C 99.139844 15.196875 108.369531 40.267969 108.739844 64.908594 C 109.054688 85.817188 105.667188 110.717969 105.667188 110.717969 " transform="matrix(5,0,0,5,0,0)"/>
<path style="fill:none;stroke-width:8.7;stroke-linecap:butt;stroke-linejoin:miter;stroke:rgb(0%,0%,0%);stroke-opacity:1;stroke-miterlimit:4;" d="M 36.621875 83.171094 C 36.621875 83.171094 33.134375 102.017969 34.280469 112.910156 C 35.26875 122.3 40.364063 130.290625 40.364063 130.290625 L 42.565625 128.488281 C 42.565625 128.488281 113.910938 59.760938 152.503906 72.409375 C 177.686719 80.6625 173.711719 99.835938 108.245313 125.882031 " transform="matrix(5,0,0,5,0,0)"/>
<path style="fill:none;stroke-width:8.7;stroke-linecap:butt;stroke-linejoin:miter;stroke:rgb(0%,0%,0%);stroke-opacity:1;stroke-miterlimit:4;" d="M 85.621094 132.914062 C 85.621094 132.914062 97.002344 141.246875 103.757031 143.932813 C 110.511719 146.617969 123.935938 149.190625 123.935938 149.190625 " transform="matrix(5,0,0,5,0,0)"/>
<path style="fill:none;stroke-width:8.7;stroke-linecap:butt;stroke-linejoin:miter;stroke:rgb(0%,0%,0%);stroke-opacity:1;stroke-miterlimit:4;" d="M 90.716406 168.101562 C 90.716406 168.101562 97.7125 174.924219 113.015625 177.732813 C 128.31875 180.540625 144.166406 181.599219 144.166406 181.599219 " transform="matrix(5,0,0,5,0,0)"/>
</g>
</svg>
