<?xml version="1.0" encoding="UTF-8"?>
<svg xmlns="http://www.w3.org/2000/svg" xmlns:xlink="http://www.w3.org/1999/xlink" width="1000pt" height="1000pt" viewBox="0 0 1000 1000" version="1.1">
<g id="surface1">
<path style="fill:none;stroke-width:8.7;stroke-linecap:butt;stroke-linejoin:miter;stroke:rgb(0%,0%,0%);stroke-opacity:1;stroke-miterlimit:4;" d="M 66.85625 14.147656 C 66.85625 14.147656 62.792188 96.98125 63.985938 119.619531 C 65.382031 146.097656 66.196094 158.390625 70.13125 171.089844 C 71.645313 175.978906 76.879688 179.633594 76.879688 179.633594 C 76.879688 179.633594 82.8625 170.789844 85.260156 159.596875 C 87.657813 148.403906 85.89375 123.664844 85.89375 123.664844 L 83.860938 123.342188 C 83.860938 123.342188 74.952344 146.750781 68.605469 154.322656 C 62.258594 161.895313 47.844531 173.827344 47.844531 173.827344 C 47.844531 173.827344 42.29375 169.984375 38.2375 162.601562 C 33.460156 153.907813 33.033594 149.578906 33.033594 149.578906 L 36.364844 146.757812 C 36.364844 146.757812 58.692188 125.711719 73.266406 113.794531 C 87.796875 101.9125 104.485156 85.363281 104.485156 85.363281 " transform="matrix(5,0,0,5,0,0)"/>
<path style="fill:none;stroke-width:8.7;stroke-linecap:butt;stroke-linejoin:miter;stroke:rgb(0%,0%,0%);stroke-opacity:1;stroke-miterlimit:4;" d="M 34.989063 47.116406 C 34.989063 47.116406 47.765625 51.292969 60.211719 47.735938 C 75.544531 43.354688 89.235938 34.000781 94.833594 44.028906 C 100.4 54 71.299219 68.544531 71.299219 68.544531 " transform="matrix(5,0,0,5,0,0)"/>
<path style="fill:none;stroke-width:8.7;stroke-linecap:butt;stroke-linejoin:miter;stroke:rgb(0%,0%,0%);stroke-opacity:1;stroke-miterlimit:4;" d="M 30.060156 78.254688 C 30.060156 78.254688 23.114063 98.710156 38.801563 97.424219 C 54.489063 96.1375 96.4875 74.71875 96.4875 74.71875 L 101.194531 72.432031 C 101.194531 72.432031 100.598438 68.68125 100.46875 66.869531 C 100.339063 65.057812 93.714844 56.577344 93.714844 56.577344 " transform="matrix(5,0,0,5,0,0)"/>
<path style="fill:none;stroke-width:8.7;stroke-linecap:butt;stroke-linejoin:miter;stroke:rgb(0%,0%,0%);stroke-opacity:1;stroke-miterlimit:4;" d="M 146.019531 30.23125 C 146.019531 30.23125 148.511719 44.046875 145.058594 57.227344 C 141.60625 70.407813 127.102344 105.721875 138.435156 105.621094 C 149.767969 105.521094 160.651563 101.521094 153.064844 127.928125 C 147.846875 146.089063 129.514844 166.048438 115.115625 165.339844 C 100.716406 164.632031 96.498438 144.978125 121.297656 141.591406 C 155.110156 136.974219 174.005469 183.961719 174.005469 183.961719 " transform="matrix(5,0,0,5,0,0)"/>
</g>
</svg>
