<?xml version="1.0" encoding="UTF-8"?>
<svg xmlns="http://www.w3.org/2000/svg" xmlns:xlink="http://www.w3.org/1999/xlink" width="1000pt" height="1000pt" viewBox="0 0 1000 1000" version="1.1">
<g id="surface1">
<path style="fill:none;stroke-width:8.7;stroke-linecap:butt;stroke-linejoin:miter;stroke:rgb(0%,0%,0%);stroke-opacity:1;stroke-miterlimit:4;" d="M 27.775781 44.800781 C 27.775781 44.800781 36.998438 45.944531 44.897656 43.6375 C 52.797656 41.330469 58.857031 38.827344 58.857031 38.827344 L 60.701563 40.948438 L 60.682031 120.053125 L 56.727344 123.082813 C 56.727344 123.082813 47.525781 118.517969 42.826563 114.567969 C 33.391406 106.638281 28.257031 93.674219 50.821875 85.029688 C 88.766406 70.49375 38.510156 155.091406 38.510156 155.091406 L 39.975781 157.295313 C 39.975781 157.295313 56.214063 141.278125 62.741406 131.953125 C 69.340625 122.525781 85.157031 95.596875 85.157031 95.596875 " transform="matrix(5,0,0,5,0,0)"/>
<path style="fill:none;stroke-width:8.7;stroke-linecap:butt;stroke-linejoin:miter;stroke:rgb(0%,0%,0%);stroke-opacity:1;stroke-miterlimit:4;" d="M 91.985938 55.072656 C 91.985938 55.072656 113.609375 29.535156 141.652344 27.944531 C 169.695312 26.353906 177.563281 49.414062 164.769531 71.684375 C 154.959375 88.759375 127.653125 94.222656 124.00625 91.332813 C 120.359375 88.44375 129.321875 80.984375 129.321875 80.984375 L 130.845313 83.078125 L 129.560937 141.807813 L 126.504688 145.365625 C 126.504688 145.365625 116.999219 143.030469 105.896875 135.692188 C 96.377344 129.4 96.078125 108.182031 124.353906 108.466406 C 163.258594 108.858594 95.946094 152.676563 99.707031 167.232813 C 103.027344 180.083594 171.503906 172.021875 171.503906 172.021875 " transform="matrix(5,0,0,5,0,0)"/>
</g>
</svg>
