<?xml version="1.0" encoding="UTF-8"?>
<svg xmlns="http://www.w3.org/2000/svg" xmlns:xlink="http://www.w3.org/1999/xlink" width="1000pt" height="1000pt" viewBox="0 0 1000 1000" version="1.1">
<g id="surface1">
<path style="fill:none;stroke-width:8.7;stroke-linecap:butt;stroke-linejoin:miter;stroke:rgb(0%,0%,0%);stroke-opacity:1;stroke-miterlimit:4;" d="M 30.4625 59.073438 C 30.4625 59.073438 41.025781 65.457031 56.496094 64.774219 C 79.80625 63.746094 118.725 44.64375 138.914062 47.953906 C 155.596094 50.689844 167.101562 61.478906 166.773438 77.9375 C 166.441406 94.523438 143.747656 112.570312 111.857031 99.001563 " transform="matrix(5,0,0,5,0,0)"/>
<path style="fill:none;stroke-width:8.7;stroke-linecap:butt;stroke-linejoin:miter;stroke:rgb(0%,0%,0%);stroke-opacity:1;stroke-miterlimit:4;" d="M 94.444531 19.611719 C 94.444531 19.611719 106.673438 60.510156 108.950781 78.551563 C 112.597656 107.454688 112.070312 154.052344 94.414844 167.301563 C 78.589844 179.177344 48.057813 176.79375 44.947656 157.939063 C 41.313281 135.903906 87.908594 133.482812 110.95625 141.152344 C 135.689844 149.382031 165.580469 170.091406 165.580469 170.091406 " transform="matrix(5,0,0,5,0,0)"/>
</g>
</svg>
