<?xml version="1.0" encoding="UTF-8"?>
<svg xmlns="http://www.w3.org/2000/svg" xmlns:xlink="http://www.w3.org/1999/xlink" width="1000pt" height="1000pt" viewBox="0 0 1000 1000" version="1.1">
<g id="surface1">
<path style="fill:none;stroke-width:8.7;stroke-linecap:butt;stroke-linejoin:miter;stroke:rgb(0%,0%,0%);stroke-opacity:1;stroke-miterlimit:4;" d="M 126.610156 17.071094 C 126.610156 17.071094 119.797656 34.741406 113.316406 43.24375 C 106.835938 51.746875 96.614063 54.802344 106.321094 74.940625 C 116.027344 95.078906 124.796094 113.386719 120.942969 136.557031 C 117.090625 159.727344 105.21875 175.928906 105.21875 175.928906 L 101.14375 177.28125 C 101.14375 177.28125 35.757812 125.941406 64.069531 98.511719 C 92.38125 71.082031 127.961719 67.719531 137.880469 78.360156 C 147.8 89 112.760156 119.069531 113.114844 130.910938 C 113.46875 142.752344 148.653125 145.776563 148.653125 145.776563 " transform="matrix(5,0,0,5,0,0)"/>
</g>
</svg>
