<?xml version="1.0" encoding="UTF-8"?>
<svg xmlns="http://www.w3.org/2000/svg" xmlns:xlink="http://www.w3.org/1999/xlink" width="1000pt" height="1000pt" viewBox="0 0 1000 1000" version="1.1">
<g id="surface1">
<path style="fill:none;stroke-width:8.7;stroke-linecap:butt;stroke-linejoin:miter;stroke:rgb(0%,0%,0%);stroke-opacity:1;stroke-miterlimit:4;" d="M 54.584375 29.95625 C 54.584375 29.95625 70.463281 51.485156 69.314844 124.608594 C 68.84375 154.586719 67.788281 169.385156 52.1625 169.246875 C 36.535938 169.108594 26.714844 135.3375 38.95625 114.78125 C 52.105469 92.701563 87.242188 77.310156 112.151563 72.096875 C 136.361719 67.030469 162.623438 64.8 162.623438 64.8 L 162.364844 62.303906 C 162.364844 62.303906 128.364063 31.45625 123.646875 36.596094 C 115.357031 45.628906 118.36875 115.740625 120.7375 134.840625 C 122.8 151.477344 169.325 163.833594 169.325 163.833594 " transform="matrix(5,0,0,5,0,0)"/>
</g>
</svg>
