<?xml version="1.0" encoding="UTF-8"?>
<svg xmlns="http://www.w3.org/2000/svg" xmlns:xlink="http://www.w3.org/1999/xlink" width="1000pt" height="1000pt" viewBox="0 0 1000 1000" version="1.1">
<g id="surface1">
<path style="fill:none;stroke-width:8.7;stroke-linecap:butt;stroke-linejoin:miter;stroke:rgb(0%,0%,0%);stroke-opacity:1;stroke-miterlimit:4;" d="M 49.924219 25.8125 C 49.924219 25.8125 41.439844 91.676563 42.067969 115.164062 C 42.696875 138.651563 47.992969 169.905469 47.992969 169.905469 L 49.927344 169.707031 C 49.927344 169.707031 53.864063 147.258594 60.505469 133.054688 C 65.773438 121.7875 72.33125 111.414062 72.33125 111.414062 " transform="matrix(5,0,0,5,0,0)"/>
<path style="fill:none;stroke-width:8.7;stroke-linecap:butt;stroke-linejoin:miter;stroke:rgb(0%,0%,0%);stroke-opacity:1;stroke-miterlimit:4;" d="M 94.188281 50.492969 C 94.188281 50.492969 111.364063 61.934375 127.152344 58.727344 C 142.939844 55.521094 158.714844 46.083594 158.714844 46.083594 " transform="matrix(5,0,0,5,0,0)"/>
<path style="fill:none;stroke-width:8.7;stroke-linecap:butt;stroke-linejoin:miter;stroke:rgb(0%,0%,0%);stroke-opacity:1;stroke-miterlimit:4;" d="M 123.172656 19.604688 C 123.172656 19.604688 131.460938 49.011719 125.684375 66.335156 C 119.3125 85.444531 107.689844 104.221094 107.689844 104.221094 L 110.536719 107.732813 L 156.235938 95.561719 L 157.628906 98.019531 C 157.628906 98.019531 128.200781 126.76875 132.522656 154.8875 C 135.982031 177.395313 165.355469 177.074219 165.355469 177.074219 " transform="matrix(5,0,0,5,0,0)"/>
</g>
</svg>
