<?xml version="1.0" encoding="UTF-8"?>
<svg xmlns="http://www.w3.org/2000/svg" xmlns:xlink="http://www.w3.org/1999/xlink" width="1000pt" height="1000pt" viewBox="0 0 1000 1000" version="1.1">
<g id="surface1">
<path style="fill:none;stroke-width:8.7;stroke-linecap:butt;stroke-linejoin:miter;stroke:rgb(0%,0%,0%);stroke-opacity:1;stroke-miterlimit:4;" d="M 54.840625 27.821875 C 54.840625 27.821875 61.403906 41.360156 50.926563 60.333594 C 45.121875 70.846094 26.808594 87.033594 27.634375 93.483594 C 28.459375 99.934375 44.167969 98.996094 43.195312 131.541406 C 42.3375 160.217969 42.139063 174.320312 42.139063 174.320312 L 44.113281 174.320312 C 44.113281 174.320312 47.400781 157.939844 61.717188 139.14375 " transform="matrix(5,0,0,5,0,0)"/>
<path style="fill:none;stroke-width:8.7;stroke-linecap:butt;stroke-linejoin:miter;stroke:rgb(0%,0%,0%);stroke-opacity:1;stroke-miterlimit:4;" d="M 71.183594 80.354688 C 71.183594 80.354688 122.626563 50.778906 165.546094 63.06875 " transform="matrix(5,0,0,5,0,0)"/>
<path style="fill:none;stroke-width:8.7;stroke-linecap:butt;stroke-linejoin:miter;stroke:rgb(0%,0%,0%);stroke-opacity:1;stroke-miterlimit:4;" d="M 117.833594 18.690625 C 117.833594 18.690625 127.082031 60.655469 127.082031 86.750781 C 127.082031 112.846094 128.160156 130.332031 116.039844 134.745313 C 103.396094 139.348438 90.9 128.6 92.996094 113.902344 C 95.520313 96.203906 116.321875 100.854688 119.860938 102.034375 C 130.076562 105.440625 128.458594 132.0875 113.769531 135.628125 C 103.685156 138.058594 88.639844 158.789844 96.873438 168.375 C 105.107031 177.960156 154.028125 170.479688 154.028125 170.479688 L 153.757031 168.371875 C 153.757031 168.371875 149.410938 145.685937 144.828906 126.963281 " transform="matrix(5,0,0,5,0,0)"/>
<path style="fill:none;stroke-width:8.7;stroke-linecap:butt;stroke-linejoin:miter;stroke:rgb(0%,0%,0%);stroke-opacity:1;stroke-miterlimit:4;" d="M 154.013281 84.885156 C 154.013281 84.885156 175.3 99.488281 175.271094 123.191406 " transform="matrix(5,0,0,5,0,0)"/>
</g>
</svg>
