<?xml version="1.0" encoding="UTF-8"?>
<svg xmlns="http://www.w3.org/2000/svg" xmlns:xlink="http://www.w3.org/1999/xlink" width="1000pt" height="1000pt" viewBox="0 0 1000 1000" version="1.1">
<g id="surface1">
<path style="fill:none;stroke-width:8.7;stroke-linecap:butt;stroke-linejoin:miter;stroke:rgb(0%,0%,0%);stroke-opacity:1;stroke-miterlimit:4;" d="M 31.56875 31.180469 C 31.56875 31.180469 36.817969 64.760937 87.766406 34.480469 C 87.766406 34.480469 67.771875 60.321094 56.258594 82.775781 C 42.824219 108.977344 27.9625 147.773438 27.9625 147.773438 " transform="matrix(5,0,0,5,0,0)"/>
<path style="fill:none;stroke-width:8.7;stroke-linecap:butt;stroke-linejoin:miter;stroke:rgb(0%,0%,0%);stroke-opacity:1;stroke-miterlimit:4;" d="M 37.173437 125.144531 C 37.173437 125.144531 53.389844 104.725 54.889844 153.747656 C 54.889844 153.747656 66.308594 79.31875 84.313281 137.41875 L 86.907813 136.942969 C 86.907813 136.942969 96.154688 94.365625 103.426563 81.315625 " transform="matrix(5,0,0,5,0,0)"/>
<path style="fill:none;stroke-width:8.7;stroke-linecap:butt;stroke-linejoin:miter;stroke:rgb(0%,0%,0%);stroke-opacity:1;stroke-miterlimit:4;" d="M 115.239844 25.310156 C 115.239844 25.310156 124.621875 30.707031 140.964063 29.586719 C 155.772656 28.571094 162.571094 26.060156 162.571094 26.060156 L 164.440625 27.576563 L 122.660156 82.205469 L 124.001563 83.35 C 124.001563 83.35 161.436719 53.801563 168.865625 80.125 C 174.7 100.8 148.246094 120.459375 135.103906 132.578906 C 121.9625 144.699219 95.98125 162.660938 123.747656 169.335156 C 147.425 175.027344 177.925781 167.302344 177.925781 167.302344 " transform="matrix(5,0,0,5,0,0)"/>
</g>
</svg>
