<?xml version="1.0" encoding="UTF-8"?>
<svg xmlns="http://www.w3.org/2000/svg" xmlns:xlink="http://www.w3.org/1999/xlink" width="1000pt" height="1000pt" viewBox="0 0 1000 1000" version="1.1">
<g id="surface1">
<path style="fill:none;stroke-width:8.7;stroke-linecap:butt;stroke-linejoin:miter;stroke:rgb(0%,0%,0%);stroke-opacity:1;stroke-miterlimit:4;" d="M 103.217188 117.873438 C 103.217188 117.873438 105.276563 125.271875 106.2125 129.257031 C 107.478906 134.650781 108.560156 139.039844 108.560156 139.039844 L 108.892188 140.803906 C 108.892188 140.803906 83.130469 148.935156 71.039062 139.111719 C 58.948438 129.288281 55.988281 114.752344 58.596094 95.616406 C 61.707031 72.794531 78.941406 34.235937 78.941406 34.235937 " transform="matrix(5,0,0,5,0,0)"/>
<path style="fill:none;stroke-width:8.7;stroke-linecap:butt;stroke-linejoin:miter;stroke:rgb(0%,0%,0%);stroke-opacity:1;stroke-miterlimit:4;" d="M 22.410938 117.747656 C 22.410938 117.747656 46.651563 99.925781 86.920313 88.215625 C 132.977344 74.823437 180.219531 87.385156 180.219531 87.385156 " transform="matrix(5,0,0,5,0,0)"/>
<path style="fill:none;stroke-width:8.7;stroke-linecap:butt;stroke-linejoin:miter;stroke:rgb(0%,0%,0%);stroke-opacity:1;stroke-miterlimit:4;" d="M 107.382812 55.327344 C 107.382812 55.327344 98.576563 116.15 66.021094 141.503125 C 44.044531 158.61875 29.20625 139.713281 29.20625 139.713281 " transform="matrix(5,0,0,5,0,0)"/>
<path style="fill:none;stroke-width:8.7;stroke-linecap:butt;stroke-linejoin:miter;stroke:rgb(0%,0%,0%);stroke-opacity:1;stroke-miterlimit:4;" d="M 91.126563 42.65625 C 91.126563 42.65625 122.675 12.66875 135.634375 25.069531 C 149.070312 37.926563 146.722656 91.521875 140.291406 119.317969 C 133.59375 148.264844 118.033594 177.404688 97.944531 178.146094 C 84.423438 178.644531 77.321875 162.25 77.321875 162.25 " transform="matrix(5,0,0,5,0,0)"/>
</g>
</svg>
