<?xml version="1.0" encoding="UTF-8"?>
<svg xmlns="http://www.w3.org/2000/svg" xmlns:xlink="http://www.w3.org/1999/xlink" width="1000pt" height="1000pt" viewBox="0 0 1000 1000" version="1.1">
<g id="surface1">
<path style="fill:none;stroke-width:8.7;stroke-linecap:butt;stroke-linejoin:miter;stroke:rgb(0%,0%,0%);stroke-opacity:1;stroke-miterlimit:4;" d="M 72.097656 18.029688 C 72.097656 18.029688 62.592969 69.764844 53.711719 87.171875 C 44.83125 104.578125 29.588281 129.983594 29.588281 129.983594 C 29.588281 129.983594 68.06875 68.717188 97.341406 58.103125 C 122.234375 49.076563 155.233594 50.525 150.5625 96.989063 C 145.51875 147.153125 117.285938 182.592969 89.210938 179.8625 C 57.190625 176.747656 65.175781 131.603906 74.8875 110.692969 C 80.203125 99.246094 92.360156 83.101562 105.438281 86.445312 C 120.942969 90.410156 112.551563 118.25625 106.8875 127.428125 C 97.372656 142.835938 69.707813 171.357813 50.213281 158.441406 C 37.032031 149.707813 46.6 131.922656 67.425781 123.680469 C 86.517969 116.125 119.200781 118.232031 138.29375 133.033594 C 158.567188 148.75 173.299219 163.529688 173.299219 163.529688 " transform="matrix(5,0,0,5,0,0)"/>
</g>
</svg>
