<?xml version="1.0" encoding="UTF-8"?>
<svg xmlns="http://www.w3.org/2000/svg" xmlns:xlink="http://www.w3.org/1999/xlink" width="1000pt" height="1000pt" viewBox="0 0 1000 1000" version="1.1">
<g id="surface1">
<path style="fill:none;stroke-width:8.7;stroke-linecap:butt;stroke-linejoin:miter;stroke:rgb(0%,0%,0%);stroke-opacity:1;stroke-miterlimit:4;" d="M 95.839844 15.411719 C 95.839844 15.411719 92.584375 24.141406 84.989063 29.513281 C 77.39375 34.885156 67.86875 37.053906 69.910938 44.901563 C 71.953125 52.748438 88.571094 74.058594 74.385156 88.978906 C 60.2 103.9 44.894531 101.677344 43.614844 91.927344 C 42.084375 80.26875 60.228906 70.627344 75.7125 60.61875 C 90.282813 51.201563 106.153906 41.755469 114.028125 44.346875 C 121.903125 46.939063 120.724219 68.452344 120.724219 68.452344 C 120.724219 68.452344 139.316406 64.983594 141.596875 74.891406 C 143.850781 84.683594 135.296875 88.941406 126.566406 93.595313 C 93.797656 111.0625 27.244531 129.622656 27.244531 129.622656 C 27.244531 129.622656 90.700781 114.528906 128.059375 113.972656 C 155.346094 113.567188 172.072656 112.714063 172.072656 112.714063 C 172.072656 112.714063 96.842188 115.119531 89.753125 141.732031 C 86.705469 153.175 102.699219 158.159375 102.699219 158.159375 C 102.699219 158.159375 76.871875 160.559375 78.357031 172.085156 C 80.222656 186.565625 121.06875 181.178906 121.06875 181.178906 " transform="matrix(5,0,0,5,0,0)"/>
</g>
</svg>
