<?xml version="1.0" encoding="UTF-8"?>
<svg xmlns="http://www.w3.org/2000/svg" xmlns:xlink="http://www.w3.org/1999/xlink" width="1000pt" height="1000pt" viewBox="0 0 1000 1000" version="1.1">
<g id="surface1">
<path style="fill:none;stroke-width:8.7;stroke-linecap:butt;stroke-linejoin:miter;stroke:rgb(0%,0%,0%);stroke-opacity:1;stroke-miterlimit:4;" d="M 57.264844 37.99375 C 57.264844 37.99375 76.889063 42.925781 92.974219 36.903125 C 109.059375 30.880469 130.385938 16.877344 127.91875 27.892969 C 125.451563 38.908594 84.298438 114.277344 56.442188 109.561719 C 30.491406 105.167969 53.125 76.846094 69.70625 75.416406 C 85.427344 74.060156 100.441406 74.883594 101.628906 88.445312 C 102.955469 103.583594 97.639844 111.496094 97.639844 111.496094 L 99.278906 114.264844 C 99.278906 114.264844 123.820312 105.010938 138.264844 108.998438 C 152.369531 112.892188 165.114063 135.192969 139.960938 146.903125 C 113.769531 159.096875 89.875781 155.203906 90.633594 168.198438 C 91.392188 181.19375 126.708594 173.534375 126.708594 173.534375 " transform="matrix(5,0,0,5,0,0)"/>
</g>
</svg>
