<?xml version="1.0" encoding="UTF-8"?>
<svg xmlns="http://www.w3.org/2000/svg" xmlns:xlink="http://www.w3.org/1999/xlink" width="1000pt" height="1000pt" viewBox="0 0 1000 1000" version="1.1">
<g id="surface1">
<path style="fill:none;stroke-width:8.7;stroke-linecap:butt;stroke-linejoin:miter;stroke:rgb(0%,0%,0%);stroke-opacity:1;stroke-miterlimit:4;" d="M 57.499219 25.442969 C 57.499219 25.442969 61.789062 37.089844 58.378125 45.000781 C 54.967188 52.911719 33.428125 73.449219 32.707813 87.360938 C 31.828125 104.354688 45.205469 105.703906 46.076563 123.557031 C 46.971094 141.889062 46.324219 140.978906 45.1375 150.549219 C 43.946875 160.153125 43.989063 168.385156 43.989063 168.385156 L 46.033594 168.449219 C 46.033594 168.449219 47.624219 151.378125 52.560938 141.189063 C 55.001563 136.150781 63.199219 122.391406 63.199219 122.391406 " transform="matrix(5,0,0,5,0,0)"/>
<path style="fill:none;stroke-width:8.7;stroke-linecap:butt;stroke-linejoin:miter;stroke:rgb(0%,0%,0%);stroke-opacity:1;stroke-miterlimit:4;" d="M 93.442188 34.254688 C 93.442188 34.254688 90.98125 44.135156 94.507812 48.389063 C 98.035156 52.642969 105.692188 56.717969 105.692188 56.717969 " transform="matrix(5,0,0,5,0,0)"/>
<path style="fill:none;stroke-width:8.7;stroke-linecap:butt;stroke-linejoin:miter;stroke:rgb(0%,0%,0%);stroke-opacity:1;stroke-miterlimit:4;" d="M 156.941406 28.2375 C 156.941406 28.2375 157.744531 51.110938 123.500781 73.841406 C 102.757812 87.609375 87.985156 95.953125 89.754688 103.597656 C 91.441406 110.882812 111.11875 109.48125 122.95625 107.80625 C 134.794531 106.13125 164.471875 100.797656 164.471875 100.797656 " transform="matrix(5,0,0,5,0,0)"/>
<path style="fill:none;stroke-width:8.7;stroke-linecap:butt;stroke-linejoin:miter;stroke:rgb(0%,0%,0%);stroke-opacity:1;stroke-miterlimit:4;" d="M 123.965625 87.135156 C 123.965625 87.135156 126.932031 111.715625 127.055469 134.278906 C 127.185156 158.085156 124.021094 176.417188 124.021094 176.417188 L 121.432031 176.513281 C 121.432031 176.513281 115.949219 171.138281 111.822656 167.907813 C 106.035156 163.377344 97.860938 157.561719 97.860938 157.561719 " transform="matrix(5,0,0,5,0,0)"/>
<path style="fill:none;stroke-width:8.7;stroke-linecap:butt;stroke-linejoin:miter;stroke:rgb(0%,0%,0%);stroke-opacity:1;stroke-miterlimit:4;" d="M 104.938281 131.971094 C 104.938281 131.971094 98.842969 141.81875 93.758594 146.166406 C 82.1375 156.103906 72.132812 157.067188 72.132812 157.067188 " transform="matrix(5,0,0,5,0,0)"/>
<path style="fill:none;stroke-width:8.7;stroke-linecap:butt;stroke-linejoin:miter;stroke:rgb(0%,0%,0%);stroke-opacity:1;stroke-miterlimit:4;" d="M 140.028125 131.891406 C 140.028125 131.891406 154.185156 131.542969 161.721094 139.617188 C 169.227344 147.658594 172.725781 155.015625 172.974219 155.484375 " transform="matrix(5,0,0,5,0,0)"/>
</g>
</svg>
