<?xml version="1.0" encoding="UTF-8"?>
<svg xmlns="http://www.w3.org/2000/svg" xmlns:xlink="http://www.w3.org/1999/xlink" width="1000pt" height="1000pt" viewBox="0 0 1000 1000" version="1.1">
<g id="surface1">
<path style="fill:none;stroke-width:8.7;stroke-linecap:butt;stroke-linejoin:miter;stroke:rgb(0%,0%,0%);stroke-opacity:1;stroke-miterlimit:4;" d="M 27.107031 45.751563 C 27.107031 45.751563 32.725781 64.2 54.586719 56.788281 C 76.447656 49.376563 77.84375 47.130469 77.84375 47.130469 C 77.84375 47.130469 52.319531 88.6125 44.158594 105.885156 C 35.997656 123.157813 25.396875 161.975 25.396875 161.975 " transform="matrix(5,0,0,5,0,0)"/>
<path style="fill:none;stroke-width:8.7;stroke-linecap:butt;stroke-linejoin:miter;stroke:rgb(0%,0%,0%);stroke-opacity:1;stroke-miterlimit:4;" d="M 35.0625 130.875781 C 35.0625 130.875781 41.995313 120.103906 49.674219 121.538281 C 58.884375 123.259375 61.897656 142.616406 61.897656 142.616406 C 61.897656 142.616406 68.738281 118.522656 74.107031 106.515625 C 79.278906 94.948438 84.302344 84.528906 91.936719 86.329688 C 99.570312 88.130469 88.576563 155.282813 88.576563 155.282813 C 88.576563 155.282813 106.059375 85.810938 119.426563 70.628125 C 137.346875 50.274219 153.907031 53.639844 162.030469 57.14375 C 170.483594 60.790625 177.715625 75.170313 170.067188 85.998438 C 164.916406 93.291406 153.775781 95.276563 135.559375 90.980469 " transform="matrix(5,0,0,5,0,0)"/>
<path style="fill:none;stroke-width:8.7;stroke-linecap:butt;stroke-linejoin:miter;stroke:rgb(0%,0%,0%);stroke-opacity:1;stroke-miterlimit:4;" d="M 127.098438 19.534375 C 127.098438 19.534375 135.269531 52.228906 133.859375 73.398438 C 132.449219 94.567188 131.673438 95.214063 134.49375 104.141406 C 137.314063 113.06875 156.784375 138.859375 149.247656 151.627344 C 141.710156 164.395313 126.20625 167.222656 118.227344 166.096094 C 106.824219 164.486719 102.621094 157.359375 104.261719 149.797656 C 105.866406 142.405469 117.044531 133.778125 137.125 141.889844 C 159.771875 151.038281 173.492969 175.140625 173.492969 175.140625 " transform="matrix(5,0,0,5,0,0)"/>
</g>
</svg>
