<?xml version="1.0" encoding="UTF-8"?>
<svg xmlns="http://www.w3.org/2000/svg" xmlns:xlink="http://www.w3.org/1999/xlink" width="1000pt" height="1000pt" viewBox="0 0 1000 1000" version="1.1">
<g id="surface1">
<path style="fill:none;stroke-width:8.7;stroke-linecap:butt;stroke-linejoin:miter;stroke:rgb(0%,0%,0%);stroke-opacity:1;stroke-miterlimit:4;" d="M 84.3875 16.250781 C 84.3875 16.250781 97.423438 82.842969 96.469531 119.058594 C 95.515625 155.273438 91.88125 171.880469 91.88125 171.880469 L 88.261719 173.86875 C 88.261719 173.86875 82.421094 166.153125 77.948438 161.738281 C 72.954688 156.809375 61.983594 147.703125 61.983594 147.703125 " transform="matrix(5,0,0,5,0,0)"/>
<path style="fill:none;stroke-width:8.7;stroke-linecap:butt;stroke-linejoin:miter;stroke:rgb(0%,0%,0%);stroke-opacity:1;stroke-miterlimit:4;" d="M 41.1625 86.800781 C 41.1625 86.800781 95.660938 44.261719 112.540625 58.159375 C 125.161719 68.550781 74.810156 95.007031 64.419531 106.129688 C 54.792188 116.435156 37.947656 127.375781 52.479688 138.160938 C 67.011719 148.946094 130.285938 122.558594 130.285938 122.558594 C 130.285938 122.558594 129.607812 113.510156 128.446875 107.41875 C 127.403906 101.95 123.940625 87.94375 123.940625 87.94375 " transform="matrix(5,0,0,5,0,0)"/>
<path style="fill:none;stroke-width:8.7;stroke-linecap:butt;stroke-linejoin:miter;stroke:rgb(0%,0%,0%);stroke-opacity:1;stroke-miterlimit:4;" d="M 142.467187 67.557812 C 142.467187 67.557812 158.83125 77.085156 163.761719 93.696875 C 168.21875 108.713281 166.794531 123.357813 166.794531 123.357813 " transform="matrix(5,0,0,5,0,0)"/>
</g>
</svg>
