<?xml version="1.0" encoding="UTF-8"?>
<svg xmlns="http://www.w3.org/2000/svg" xmlns:xlink="http://www.w3.org/1999/xlink" width="1000pt" height="1000pt" viewBox="0 0 1000 1000" version="1.1">
<g id="surface1">
<path style="fill:none;stroke-width:8.7;stroke-linecap:butt;stroke-linejoin:miter;stroke:rgb(0%,0%,0%);stroke-opacity:1;stroke-miterlimit:4;" d="M 34.429688 38.882031 C 34.429688 38.882031 54.489063 56.701563 93.607813 45.823438 " transform="matrix(5,0,0,5,0,0)"/>
<path style="fill:none;stroke-width:8.7;stroke-linecap:butt;stroke-linejoin:miter;stroke:rgb(0%,0%,0%);stroke-opacity:1;stroke-miterlimit:4;" d="M 65.396875 17.142188 C 65.396875 17.142188 71.446875 38.850781 66.009375 58.448438 C 62.409375 71.423438 51.596875 80.633594 51.596875 80.633594 L 52.657813 82.355469 C 52.657813 82.355469 64.123438 75.505469 70.061719 85.803125 C 76 96.1 48.467969 140.790625 48.467969 140.790625 L 49.424219 142.179688 C 49.424219 142.179688 99.335156 92.670313 138.832031 100.727344 C 175.03125 108.1125 175.1875 159.766406 95.00625 180.10625 " transform="matrix(5,0,0,5,0,0)"/>
</g>
</svg>
