<?xml version="1.0" encoding="UTF-8"?>
<svg xmlns="http://www.w3.org/2000/svg" xmlns:xlink="http://www.w3.org/1999/xlink" width="1000pt" height="1000pt" viewBox="0 0 1000 1000" version="1.1">
<g id="surface1">
<path style="fill:none;stroke-width:8.7;stroke-linecap:butt;stroke-linejoin:miter;stroke:rgb(0%,0%,0%);stroke-opacity:1;stroke-miterlimit:4;" d="M 59.041406 20.698438 C 59.041406 20.698438 72.14375 40.052344 92.532031 44.030469 " transform="matrix(5,0,0,5,0,0)"/>
<path style="fill:none;stroke-width:8.7;stroke-linecap:butt;stroke-linejoin:miter;stroke:rgb(0%,0%,0%);stroke-opacity:1;stroke-miterlimit:4;" d="M 39.072656 58.328906 C 39.072656 58.328906 28.282813 71.753906 39.604688 77.519531 C 50.926563 83.284375 67.427344 73.889844 67.427344 73.889844 L 68.694531 75.066406 C 68.694531 75.066406 68.483594 119.889844 68.802344 126.321875 C 69.121094 132.753125 67.95 161.384375 67.95 161.384375 L 67.271875 162.896094 C 67.271875 162.896094 20.323438 150.667188 38.9 132.717187 C 57.477344 114.767188 160.645313 66.20625 160.645313 66.20625 L 162.957813 63.164062 C 162.957813 63.164062 141.645313 23.917969 132.279687 33.922656 C 122.914062 43.927344 121.014063 116.891406 121.014063 116.891406 L 122.6 117.875781 C 122.6 117.875781 165.525 101.310156 168.4625 121.055469 C 171.4 140.8 144.426563 170.079688 118.634375 181.479688 " transform="matrix(5,0,0,5,0,0)"/>
</g>
</svg>
