<?xml version="1.0" encoding="UTF-8"?>
<svg xmlns="http://www.w3.org/2000/svg" xmlns:xlink="http://www.w3.org/1999/xlink" width="1000pt" height="1000pt" viewBox="0 0 1000 1000" version="1.1">
<g id="surface1">
<path style="fill:none;stroke-width:8.7;stroke-linecap:butt;stroke-linejoin:miter;stroke:rgb(0%,0%,0%);stroke-opacity:1;stroke-miterlimit:4;" d="M 27.769531 34.884375 C 27.769531 34.884375 66.350781 39.348438 89.566406 34.833594 C 112.782813 30.317969 152.105469 18.014063 159.386719 37.635938 C 166.667969 57.257031 123.992969 62.235938 123.992969 62.235938 " transform="matrix(5,0,0,5,0,0)"/>
<path style="fill:none;stroke-width:8.7;stroke-linecap:butt;stroke-linejoin:miter;stroke:rgb(0%,0%,0%);stroke-opacity:1;stroke-miterlimit:4;" d="M 42.332813 97.430469 C 42.332813 97.430469 85.725 104.692969 114.832813 97.385938 C 142.475 90.447656 149.317188 86.570312 149.317188 86.570312 L 147.977344 81.954688 C 147.977344 81.954688 142.733594 74.440625 128.858594 73.185156 C 114.983594 71.928906 104.20625 73.392969 104.20625 73.392969 L 102.400781 73.736719 C 102.400781 73.736719 104.880469 120.328125 104.614063 134.528125 C 104.361719 147.972656 101.975781 174.019531 101.975781 174.019531 L 98.440625 173.782813 C 98.440625 173.782813 92.753906 166.036719 84.270313 160.403125 C 75.991406 154.905469 58.478125 146.478125 58.478125 146.478125 " transform="matrix(5,0,0,5,0,0)"/>
<path style="fill:none;stroke-width:8.7;stroke-linecap:butt;stroke-linejoin:miter;stroke:rgb(0%,0%,0%);stroke-opacity:1;stroke-miterlimit:4;" d="M 36.836719 132.096094 C 36.836719 132.096094 23.6375 149.028906 30.502344 153.372656 C 38.154688 158.215625 78.042188 123.6875 78.042188 123.6875 " transform="matrix(5,0,0,5,0,0)"/>
<path style="fill:none;stroke-width:8.7;stroke-linecap:butt;stroke-linejoin:miter;stroke:rgb(0%,0%,0%);stroke-opacity:1;stroke-miterlimit:4;" d="M 124.027344 124.191406 C 124.027344 124.191406 142.940625 127.885156 154.696094 137.724219 C 165.146094 146.471094 173.110156 159.732031 173.110156 159.732031 " transform="matrix(5,0,0,5,0,0)"/>
</g>
</svg>
