<?xml version="1.0" encoding="UTF-8"?>
<svg xmlns="http://www.w3.org/2000/svg" xmlns:xlink="http://www.w3.org/1999/xlink" width="1000pt" height="1000pt" viewBox="0 0 1000 1000" version="1.1">
<g id="surface1">
<path style="fill:none;stroke-width:8.7;stroke-linecap:butt;stroke-linejoin:miter;stroke:rgb(0%,0%,0%);stroke-opacity:1;stroke-miterlimit:4;" d="M 79.898438 14.453906 C 79.898438 14.453906 90.571875 24.707031 100.552344 27.575 C 110.532031 30.442969 124.192969 30.929688 124.192969 30.929688 " transform="matrix(5,0,0,5,0,0)"/>
<path style="fill:none;stroke-width:8.7;stroke-linecap:butt;stroke-linejoin:miter;stroke:rgb(0%,0%,0%);stroke-opacity:1;stroke-miterlimit:4;" d="M 29.810156 48.457031 C 29.810156 48.457031 32.504688 54.65625 45.696094 56.934375 C 62.710156 59.871875 79.792969 50.346875 108.575781 47.433594 C 137.935156 44.4625 170.638281 46.092188 168.65 61.474219 C 166.661719 76.85625 139.7 73.9 139.7 73.9 " transform="matrix(5,0,0,5,0,0)"/>
<path style="fill:none;stroke-width:8.7;stroke-linecap:butt;stroke-linejoin:miter;stroke:rgb(0%,0%,0%);stroke-opacity:1;stroke-miterlimit:4;" d="M 47.622656 70.850781 C 47.622656 70.850781 55.171875 73.976562 63.153906 74.174219 C 72.198437 74.397656 81.2875 71.624219 81.2875 71.624219 C 81.2875 71.624219 84.801563 96.830469 80.333594 103.142188 C 75.865625 109.454688 67.096094 114.157031 58.345313 109.604688 C 49.257031 104.875781 54.45625 93.377344 62.157031 92.092188 C 73.560938 90.188281 80.610938 97.536719 80.610938 97.536719 " transform="matrix(5,0,0,5,0,0)"/>
<path style="fill:none;stroke-width:8.7;stroke-linecap:butt;stroke-linejoin:miter;stroke:rgb(0%,0%,0%);stroke-opacity:1;stroke-miterlimit:4;" d="M 48.992188 132.546094 C 48.992188 132.546094 70.375 122.621875 79.489844 114.974219 C 88.604688 107.326563 130.096094 72.858594 130.096094 72.858594 L 131.79375 74.267188 C 131.79375 74.267188 125.716406 88.940625 132.6375 95.609375 C 139.559375 102.278125 153.214844 103.692969 151.895313 108.509375 C 150.575781 113.326563 72.21875 125.132812 75.697656 138.933594 C 79.177344 152.734375 100.528125 149.934375 105.040625 149.963281 C 115.720313 150.03125 130.061719 143.128125 130.061719 143.128125 C 130.061719 143.128125 125.628125 133.11875 116.586719 132.928125 C 107.545313 132.738281 95.0875 146.885156 87.029688 156.604688 C 78.971875 166.325 47.671875 182.216406 47.671875 182.216406 " transform="matrix(5,0,0,5,0,0)"/>
<path style="fill:none;stroke-width:8.7;stroke-linecap:butt;stroke-linejoin:miter;stroke:rgb(0%,0%,0%);stroke-opacity:1;stroke-miterlimit:4;" d="M 75.154688 166.664844 C 75.154688 166.664844 88.954688 161.995313 108.773438 166.011719 C 128.592187 170.027344 160.971094 185.513281 160.971094 185.513281 " transform="matrix(5,0,0,5,0,0)"/>
</g>
</svg>
