<?xml version="1.0" encoding="UTF-8"?>
<svg xmlns="http://www.w3.org/2000/svg" xmlns:xlink="http://www.w3.org/1999/xlink" width="1000pt" height="1000pt" viewBox="0 0 1000 1000" version="1.1">
<g id="surface1">
<path style="fill:none;stroke-width:8.7;stroke-linecap:butt;stroke-linejoin:miter;stroke:rgb(0%,0%,0%);stroke-opacity:1;stroke-miterlimit:4;" d="M 70.035938 19.715625 C 70.035938 19.715625 90.913281 29.335156 99.229688 30.292188 C 107.545313 31.249219 125.798438 30.5 125.798438 30.5 " transform="matrix(5,0,0,5,0,0)"/>
<path style="fill:none;stroke-width:8.7;stroke-linecap:butt;stroke-linejoin:miter;stroke:rgb(0%,0%,0%);stroke-opacity:1;stroke-miterlimit:4;" d="M 31.297656 58.905469 C 31.297656 58.905469 12.157813 74.86875 24.342969 79.754688 C 38.916406 85.598438 91.149219 66.43125 107.521094 59.435938 C 123.892969 52.440625 157.986719 42.888281 172.278125 50.463281 C 186.56875 58.0375 182.930469 76.739063 172.451563 82.178906 C 160.067188 88.607031 138.079688 83.776563 138.079688 83.776563 " transform="matrix(5,0,0,5,0,0)"/>
<path style="fill:none;stroke-width:8.7;stroke-linecap:butt;stroke-linejoin:miter;stroke:rgb(0%,0%,0%);stroke-opacity:1;stroke-miterlimit:4;" d="M 95.583594 52.860938 C 95.583594 52.860938 81.546094 65.934375 85.910938 87.235938 C 88.639844 100.555469 108.239844 98.875781 108.239844 98.875781 " transform="matrix(5,0,0,5,0,0)"/>
<path style="fill:none;stroke-width:8.7;stroke-linecap:butt;stroke-linejoin:miter;stroke:rgb(0%,0%,0%);stroke-opacity:1;stroke-miterlimit:4;" d="M 81.984375 117.429688 C 81.984375 117.429688 80.367969 124.436719 84.575781 127.550781 C 93.204688 133.936719 114.184375 134.810937 114.184375 134.810937 L 114.242188 136.417188 C 114.242188 136.417188 80.467969 147.910156 79.508594 164.338281 C 78.308594 184.883594 140.504688 173.074219 140.504688 173.074219 " transform="matrix(5,0,0,5,0,0)"/>
</g>
</svg>
