<?xml version="1.0" encoding="UTF-8"?>
<svg xmlns="http://www.w3.org/2000/svg" xmlns:xlink="http://www.w3.org/1999/xlink" width="1000pt" height="1000pt" viewBox="0 0 1000 1000" version="1.1">
<g id="surface1">
<path style="fill:none;stroke-width:8.7;stroke-linecap:butt;stroke-linejoin:miter;stroke:rgb(0%,0%,0%);stroke-opacity:1;stroke-miterlimit:4;" d="M 52.434375 44.35 C 52.434375 44.35 92.717969 59.159375 127.305469 45.950781 " transform="matrix(5,0,0,5,0,0)"/>
<path style="fill:none;stroke-width:8.7;stroke-linecap:butt;stroke-linejoin:miter;stroke:rgb(0%,0%,0%);stroke-opacity:1;stroke-miterlimit:4;" d="M 90.272656 20.853906 C 90.272656 20.853906 90.021875 46.567188 85.691406 60.261719 C 81.361719 73.957031 73.207031 87.459375 73.207031 87.459375 L 73.589844 89.059375 C 73.589844 89.059375 134.819531 82.630469 120.11875 143.850781 C 115.057813 164.925 79.772656 183.952344 62.810938 153.846875 " transform="matrix(5,0,0,5,0,0)"/>
<path style="fill:none;stroke-width:8.7;stroke-linecap:butt;stroke-linejoin:miter;stroke:rgb(0%,0%,0%);stroke-opacity:1;stroke-miterlimit:4;" d="M 66.229687 125.139063 C 66.229687 125.139063 57.053906 147.641406 21.349219 153.507031 " transform="matrix(5,0,0,5,0,0)"/>
<path style="fill:none;stroke-width:8.7;stroke-linecap:butt;stroke-linejoin:miter;stroke:rgb(0%,0%,0%);stroke-opacity:1;stroke-miterlimit:4;" d="M 143.621094 115.619531 C 143.621094 115.619531 163.2375 118.023438 173.023438 145.880469 " transform="matrix(5,0,0,5,0,0)"/>
</g>
</svg>
