<?xml version="1.0" encoding="UTF-8"?>
<svg xmlns="http://www.w3.org/2000/svg" xmlns:xlink="http://www.w3.org/1999/xlink" width="1000pt" height="1000pt" viewBox="0 0 1000 1000" version="1.1">
<g id="surface1">
<path style="fill:none;stroke-width:8.7;stroke-linecap:butt;stroke-linejoin:miter;stroke:rgb(0%,0%,0%);stroke-opacity:1;stroke-miterlimit:4;" d="M 56.217969 19.285938 C 56.217969 19.285938 66.753906 54.5125 67.723438 77.992188 C 68.41875 94.825 69.4875 129.51875 69.4875 129.51875 L 66.007031 130.496875 C 66.007031 130.496875 60.003906 125.224219 53.052344 120.840625 C 46.85625 116.933594 34.127344 110.916406 34.127344 110.916406 L 35.535938 106.007812 C 35.535938 106.007812 73.475 85.978906 93.391406 75.735156 C 110.607813 66.879688 153.490625 51.010938 153.490625 51.010938 L 153.239844 49.451563 C 153.239844 49.451563 126.335156 24.975781 115.83125 33.641406 C 105.326563 42.307813 122.951563 84.344531 128.971094 94.792969 C 134.989844 105.240625 152.922656 126.407813 152.922656 126.407813 L 156.161719 125.714063 C 156.161719 125.714063 156.945312 112.046094 159.467969 100.575 C 163.164844 85.328906 165.867188 79.003125 165.867188 79.003125 L 162.396875 76.711719 C 162.396875 76.711719 137.702344 84.352344 122.659375 92.7 C 103.971094 103.070312 93.582813 110.669531 93.785156 116.300781 C 94.060938 123.9625 115.333594 129.360938 115.333594 129.360938 L 116.440625 132.953906 C 116.440625 132.953906 84.68125 153.242188 89.525781 167.454688 C 94.173438 181.089844 129.240625 173.204688 129.240625 173.204688 " transform="matrix(5,0,0,5,0,0)"/>
<path style="fill:none;stroke-width:8.7;stroke-linecap:butt;stroke-linejoin:miter;stroke:rgb(0%,0%,0%);stroke-opacity:1;stroke-miterlimit:4;" d="M 32.039844 54.414844 C 32.039844 54.414844 48.835156 58.602344 65.079688 56.689063 C 78.982813 55.051563 89.094531 48.927344 89.094531 48.927344 " transform="matrix(5,0,0,5,0,0)"/>
</g>
</svg>
