<?xml version="1.0" encoding="UTF-8"?>
<svg xmlns="http://www.w3.org/2000/svg" xmlns:xlink="http://www.w3.org/1999/xlink" width="1000pt" height="1000pt" viewBox="0 0 1000 1000" version="1.1">
<g id="surface1">
<path style="fill:none;stroke-width:8.7;stroke-linecap:butt;stroke-linejoin:miter;stroke:rgb(0%,0%,0%);stroke-opacity:1;stroke-miterlimit:4;" d="M 33.986719 31.816406 C 33.986719 31.816406 55.957813 30.517969 67.25625 31.35625 C 78.554688 32.194531 88.022656 35.759375 88.022656 35.759375 C 88.022656 35.759375 85.063281 80.714063 84.717188 103.675781 C 84.371875 126.6375 85.592969 164.078906 85.592969 164.078906 L 81.729688 167.4125 C 81.729688 167.4125 76.646094 162.453906 62.510156 153.855469 " transform="matrix(5,0,0,5,0,0)"/>
<path style="fill:none;stroke-width:8.7;stroke-linecap:butt;stroke-linejoin:miter;stroke:rgb(0%,0%,0%);stroke-opacity:1;stroke-miterlimit:4;" d="M 36.953906 63.192969 C 36.953906 63.192969 59.257812 73.652344 58.246875 118.425 C 57.50625 151.278125 45.175781 159.609375 37.015625 160.19375 C 28.85625 160.778125 4.723438 139.25625 63.817969 86.952344 C 122.911719 34.649219 154.0375 30.842188 158.290625 34.447656 C 162.542969 38.053906 146.542969 51.663281 135.04375 70.613281 C 126.747656 84.284375 129.192188 94.335156 129.192188 94.335156 L 132.354688 94.242969 C 132.354688 94.242969 150.019531 68.307031 170.925 81.347656 C 186.201563 90.877344 175.825 119.032813 151.140625 126.580469 C 132.197656 132.373437 112.049219 138.492969 123.089844 154.408594 C 133.079688 168.810156 166.436719 174.930469 166.436719 174.930469 " transform="matrix(5,0,0,5,0,0)"/>
</g>
</svg>
