<?xml version="1.0" encoding="UTF-8"?>
<svg xmlns="http://www.w3.org/2000/svg" xmlns:xlink="http://www.w3.org/1999/xlink" width="1000pt" height="1000pt" viewBox="0 0 1000 1000" version="1.1">
<g id="surface1">
<path style="fill:none;stroke-width:8.7;stroke-linecap:butt;stroke-linejoin:miter;stroke:rgb(0%,0%,0%);stroke-opacity:1;stroke-miterlimit:4;" d="M 46.874219 28.335938 C 46.874219 28.335938 72.317188 33.472656 89.910156 31.211719 C 105.396094 29.221875 115.252344 24.715625 115.252344 24.715625 L 118.165625 27.19375 C 118.165625 27.19375 68.680469 75.908594 55.589844 89.23125 C 44.271875 100.75 33.197656 118.819531 33.197656 118.819531 C 33.197656 118.819531 50.815625 77.864063 105.434375 76.794531 C 146 76 165.914062 89.846875 165.042188 116.727344 C 164.247656 141.215625 132.163281 161.401563 108.160156 149.688281 " transform="matrix(5,0,0,5,0,0)"/>
<path style="fill:none;stroke-width:8.7;stroke-linecap:butt;stroke-linejoin:miter;stroke:rgb(0%,0%,0%);stroke-opacity:1;stroke-miterlimit:4;" d="M 45.892969 110.415625 C 45.892969 110.415625 56.517188 106.682031 59.311719 118.861719 C 62.432031 132.465625 60.96875 145.199219 60.96875 145.199219 L 62.614063 145.465625 C 62.614063 145.465625 76.335156 102.213281 95.199219 105.939063 C 114.063281 109.665625 97.81875 165.064063 87.249219 179.074219 " transform="matrix(5,0,0,5,0,0)"/>
</g>
</svg>
