<?xml version="1.0" encoding="UTF-8"?>
<svg xmlns="http://www.w3.org/2000/svg" xmlns:xlink="http://www.w3.org/1999/xlink" width="1000pt" height="1000pt" viewBox="0 0 1000 1000" version="1.1">
<g id="surface1">
<path style="fill:none;stroke-width:8.7;stroke-linecap:butt;stroke-linejoin:miter;stroke:rgb(0%,0%,0%);stroke-opacity:1;stroke-miterlimit:4;" d="M 44.403125 40.714844 C 44.403125 40.714844 73.604687 55.9625 98.314063 50.744531 C 123.022656 45.526563 135.66875 39.298438 135.66875 39.298438 L 134.760156 37.635938 C 134.760156 37.635938 107.3375 21.326563 97.485938 24.097656 C 82.9 28.2 30.4875 124.319531 30.4875 124.319531 " transform="matrix(5,0,0,5,0,0)"/>
<path style="fill:none;stroke-width:8.7;stroke-linecap:butt;stroke-linejoin:miter;stroke:rgb(0%,0%,0%);stroke-opacity:1;stroke-miterlimit:4;" d="M 110.178125 72.189844 C 110.178125 72.189844 136.669531 75.954688 147.327344 82.834375 C 157.985156 89.713281 162.242969 95.455469 162.242969 95.455469 L 161.070312 96.796875 C 161.070312 96.796875 149.021875 88.947656 127.444531 90.694531 C 111.353906 91.996875 101.334375 95.808594 99.817969 103.3625 C 98.144531 111.696875 114.864844 116.545313 114.864844 116.545313 L 114.820312 118.94375 L 95.042969 136.257812 L 95.607031 137.600781 C 95.607031 137.600781 100.996875 149.232031 101.202344 157.546094 C 102.607031 168.014063 101.552344 177.563281 101.552344 177.563281 L 99.107813 179.789844 C 99.107813 179.789844 82.809375 171.060938 69.633594 161.698438 " transform="matrix(5,0,0,5,0,0)"/>
<path style="fill:none;stroke-width:8.7;stroke-linecap:butt;stroke-linejoin:miter;stroke:rgb(0%,0%,0%);stroke-opacity:1;stroke-miterlimit:4;" d="M 67.510156 135.292188 C 67.510156 135.292188 62 155.078125 31.052344 164.163281 " transform="matrix(5,0,0,5,0,0)"/>
<path style="fill:none;stroke-width:8.7;stroke-linecap:butt;stroke-linejoin:miter;stroke:rgb(0%,0%,0%);stroke-opacity:1;stroke-miterlimit:4;" d="M 137.500781 144.445312 C 137.500781 144.445312 158.029688 141.633594 170.778125 165.110938 " transform="matrix(5,0,0,5,0,0)"/>
</g>
</svg>
