<?xml version="1.0" encoding="UTF-8"?>
<svg xmlns="http://www.w3.org/2000/svg" xmlns:xlink="http://www.w3.org/1999/xlink" width="1000pt" height="1000pt" viewBox="0 0 1000 1000" version="1.1">
<g id="surface1">
<path style="fill:none;stroke-width:8.7;stroke-linecap:butt;stroke-linejoin:miter;stroke:rgb(0%,0%,0%);stroke-opacity:1;stroke-miterlimit:4;" d="M 39.446875 75.530469 C 39.446875 75.530469 126.69375 73.209375 158.2875 68.357031 " transform="matrix(5,0,0,5,0,0)"/>
<path style="fill:none;stroke-width:8.7;stroke-linecap:butt;stroke-linejoin:miter;stroke:rgb(0%,0%,0%);stroke-opacity:1;stroke-miterlimit:4;" d="M 85.95 18.103906 C 85.95 18.103906 103.958594 51.3 107.39375 91.111719 C 109.73125 118.196094 108.082813 123.910938 108.082813 123.910938 L 107.321094 125.603125 C 107.321094 125.603125 42.507812 97.375 25.521875 141.325781 C 12.532813 174.933594 56.099219 190.705469 73.85 159.617188 " transform="matrix(5,0,0,5,0,0)"/>
<path style="fill:none;stroke-width:8.7;stroke-linecap:butt;stroke-linejoin:miter;stroke:rgb(0%,0%,0%);stroke-opacity:1;stroke-miterlimit:4;" d="M 138.002344 133.364063 C 138.002344 133.364063 169.820312 129.875 178.145313 169.042188 " transform="matrix(5,0,0,5,0,0)"/>
</g>
</svg>
