<?xml version="1.0" encoding="UTF-8"?>
<svg xmlns="http://www.w3.org/2000/svg" xmlns:xlink="http://www.w3.org/1999/xlink" width="1000pt" height="1000pt" viewBox="0 0 1000 1000" version="1.1">
<g id="surface1">
<path style="fill:none;stroke-width:8.7;stroke-linecap:butt;stroke-linejoin:miter;stroke:rgb(0%,0%,0%);stroke-opacity:1;stroke-miterlimit:4;" d="M 96.495313 17.042188 C 96.495313 17.042188 97.349219 28.177344 94.041406 40.35625 C 89.480469 57.148438 74.985156 75.420313 74.985156 75.420313 L 76.202344 77.083594 C 76.202344 77.083594 85.538281 71.414844 96.3375 66.473438 C 103.98125 62.976562 115.164062 60.774219 115.164062 60.774219 L 115.769531 63.266406 C 115.769531 63.266406 102.107813 88.903906 85.8 112.028125 C 74.334375 128.2875 63.128125 139.963281 63.128125 139.963281 L 62.60625 144.058594 C 62.60625 144.058594 84.424219 148.489844 105.941406 156.973438 C 125.836719 164.81875 146.25 178.991406 146.25 178.991406 " transform="matrix(5,0,0,5,0,0)"/>
</g>
</svg>
