<?xml version="1.0" encoding="UTF-8"?>
<svg xmlns="http://www.w3.org/2000/svg" xmlns:xlink="http://www.w3.org/1999/xlink" width="1000pt" height="1000pt" viewBox="0 0 1000 1000" version="1.1">
<g id="surface1">
<path style="fill:none;stroke-width:8.7;stroke-linecap:butt;stroke-linejoin:miter;stroke:rgb(0%,0%,0%);stroke-opacity:1;stroke-miterlimit:4;" d="M 48.417188 24.432813 C 48.417188 24.432813 51.740625 42.505469 72.402344 40.541406 " transform="matrix(5,0,0,5,0,0)"/>
<path style="fill:none;stroke-width:8.7;stroke-linecap:butt;stroke-linejoin:miter;stroke:rgb(0%,0%,0%);stroke-opacity:1;stroke-miterlimit:4;" d="M 26.260156 77.439844 C 26.260156 77.439844 40.85625 80.157813 49.276563 79.733594 C 57.697656 79.308594 63.445312 76.577344 63.445312 76.577344 L 64.029688 78.628906 L 62.322656 169.125 L 60.882031 169.849219 C 60.882031 169.849219 50.357031 148.435156 37.760156 140.247656 " transform="matrix(5,0,0,5,0,0)"/>
<path style="fill:none;stroke-width:8.7;stroke-linecap:butt;stroke-linejoin:miter;stroke:rgb(0%,0%,0%);stroke-opacity:1;stroke-miterlimit:4;" d="M 50.142188 95 C 50.142188 95 43.60625 115.850781 40.482031 121.30625 C 37.357813 126.761719 26.033594 144.451562 26.033594 144.451562 L 26.728125 144.932031 C 26.728125 144.932031 74.822656 97.810156 88.825781 80.752344 " transform="matrix(5,0,0,5,0,0)"/>
<path style="fill:none;stroke-width:8.7;stroke-linecap:butt;stroke-linejoin:miter;stroke:rgb(0%,0%,0%);stroke-opacity:1;stroke-miterlimit:4;" d="M 126.305469 21.348438 C 126.305469 21.348438 122.985156 45.208594 119.774219 54.684375 C 116.5625 64.160938 109.661719 72.817969 109.661719 72.817969 L 109.661719 74.721875 C 109.661719 74.721875 115.186719 74.007031 120.95 71.757812 C 126.714063 69.508594 132.671094 64.963281 132.671094 64.963281 L 134.25625 67.355469 C 134.25625 67.355469 129.282813 76.197656 128.8625 95.753125 C 128.442188 115.308594 128.799219 171.126563 128.799219 171.126563 L 126.59375 172.130469 C 126.59375 172.130469 116.941406 154.61875 108.970313 146.009375 " transform="matrix(5,0,0,5,0,0)"/>
<path style="fill:none;stroke-width:8.7;stroke-linecap:butt;stroke-linejoin:miter;stroke:rgb(0%,0%,0%);stroke-opacity:1;stroke-miterlimit:4;" d="M 107.807031 116.08125 C 107.807031 116.08125 99.072656 135.810156 80.538281 144.647656 " transform="matrix(5,0,0,5,0,0)"/>
<path style="fill:none;stroke-width:8.7;stroke-linecap:butt;stroke-linejoin:miter;stroke:rgb(0%,0%,0%);stroke-opacity:1;stroke-miterlimit:4;" d="M 147.919531 115.314844 C 147.919531 115.314844 167.405469 109.082813 174.007812 140.100781 " transform="matrix(5,0,0,5,0,0)"/>
</g>
</svg>
