<?xml version="1.0" encoding="UTF-8"?>
<svg xmlns="http://www.w3.org/2000/svg" xmlns:xlink="http://www.w3.org/1999/xlink" width="1000pt" height="1000pt" viewBox="0 0 1000 1000" version="1.1">
<g id="surface1">
<path style="fill:none;stroke-width:8.7;stroke-linecap:butt;stroke-linejoin:miter;stroke:rgb(0%,0%,0%);stroke-opacity:1;stroke-miterlimit:4;" d="M 56.590625 54.857813 C 56.590625 54.857813 77.276563 74.365625 136.138281 57.713281 " transform="matrix(5,0,0,5,0,0)"/>
<path style="fill:none;stroke-width:8.7;stroke-linecap:butt;stroke-linejoin:miter;stroke:rgb(0%,0%,0%);stroke-opacity:1;stroke-miterlimit:4;" d="M 91.308594 20.845313 C 91.308594 20.845313 95.567188 46.125 90.4 63.750781 C 82.103906 92.053906 64.441406 101.235938 87.933594 103.20625 C 109.649219 105.027344 122.814063 104.565625 122.814063 104.565625 L 123.016406 106.86875 C 123.016406 106.86875 93.152344 116.092969 67.875781 138.407813 C 42.6 160.722656 32.70625 168.814063 32.70625 168.814063 L 33.110156 169.534375 C 33.110156 169.534375 57.977344 151.186719 77.420313 151.423438 C 91.607813 151.596875 100.861719 164.601562 100.861719 164.601562 L 103.013281 163.032031 C 103.013281 163.032031 118.560938 138.329688 135.746094 139.146875 C 152.93125 139.964063 170.878906 174.323438 170.878906 174.323438 " transform="matrix(5,0,0,5,0,0)"/>
</g>
</svg>
