<?xml version="1.0" encoding="UTF-8"?>
<svg xmlns="http://www.w3.org/2000/svg" xmlns:xlink="http://www.w3.org/1999/xlink" width="1000pt" height="1000pt" viewBox="0 0 1000 1000" version="1.1">
<g id="surface1">
<path style="fill:none;stroke-width:8.7;stroke-linecap:butt;stroke-linejoin:miter;stroke:rgb(0%,0%,0%);stroke-opacity:1;stroke-miterlimit:4;" d="M 49.099219 32.707031 C 49.099219 32.707031 52.492188 79.510156 88.719531 98.567969 " transform="matrix(5,0,0,5,0,0)"/>
<path style="fill:none;stroke-width:8.7;stroke-linecap:butt;stroke-linejoin:miter;stroke:rgb(0%,0%,0%);stroke-opacity:1;stroke-miterlimit:4;" d="M 91.75 18.25 C 91.75 18.25 85.516406 61.317969 76.453125 72.754688 C 67.389844 84.191406 48.057031 101.30625 48.057031 101.30625 C 48.057031 101.30625 -4.897656 74.033594 81.958594 44.361719 C 163.48125 16.511719 179.979688 43.577344 160.415625 68.542187 C 139.220313 95.589063 95.833594 92.796094 109.365625 73.717188 C 122.897656 54.638281 165.207813 56.491406 163.126563 82.610156 C 162.0125 96.596875 141.253906 100.660938 141.253906 100.660938 " transform="matrix(5,0,0,5,0,0)"/>
<path style="fill:none;stroke-width:8.7;stroke-linecap:butt;stroke-linejoin:miter;stroke:rgb(0%,0%,0%);stroke-opacity:1;stroke-miterlimit:4;" d="M 103.50625 96.21875 C 103.50625 96.21875 101.066406 152.324219 48.507031 178.578906 " transform="matrix(5,0,0,5,0,0)"/>
<path style="fill:none;stroke-width:8.7;stroke-linecap:butt;stroke-linejoin:miter;stroke:rgb(0%,0%,0%);stroke-opacity:1;stroke-miterlimit:4;" d="M 51.377344 121.003125 C 51.377344 121.003125 77.241406 121.526563 88.957813 121.775781 C 108.276563 122.1875 147.791406 108.439063 157.639844 117.846094 C 166.7 126.5 138.547656 218.2 89.90625 156.603906 " transform="matrix(5,0,0,5,0,0)"/>
</g>
</svg>
