<?xml version="1.0" encoding="UTF-8"?>
<svg xmlns="http://www.w3.org/2000/svg" xmlns:xlink="http://www.w3.org/1999/xlink" width="1000pt" height="1000pt" viewBox="0 0 1000 1000" version="1.1">
<g id="surface1">
<path style="fill:none;stroke-width:8.7;stroke-linecap:butt;stroke-linejoin:miter;stroke:rgb(0%,0%,0%);stroke-opacity:1;stroke-miterlimit:4;" d="M 26.771875 31.628125 C 26.771875 31.628125 38.803125 33.479688 51.909375 32.622656 C 63.219531 31.882812 75.824219 25.736719 75.824219 25.736719 L 78.05 30.542188 C 78.05 30.542188 74.764844 44.346094 69.699219 53.33125 C 64.633594 62.317188 57.497656 73.849219 57.497656 73.849219 C 57.497656 73.849219 74.784375 105.003125 70.621875 136.672656 C 67.214062 162.597656 54.125 177.845313 41.333594 176.597656 C 28.542969 175.35 26.6 137.5 45.2125 116.007031 C 65.2875 92.826563 83.671875 83.332031 83.671875 83.332031 " transform="matrix(5,0,0,5,0,0)"/>
<path style="fill:none;stroke-width:8.7;stroke-linecap:butt;stroke-linejoin:miter;stroke:rgb(0%,0%,0%);stroke-opacity:1;stroke-miterlimit:4;" d="M 115.61875 66.515625 C 115.61875 66.515625 129.14375 57.70625 142.269531 50.777344 C 151.282813 46.019531 167.085156 40.121094 167.085156 40.121094 L 166.370313 36.88125 C 166.370313 36.88125 162.189844 21.721875 152.109375 30.135938 C 144.564063 36.434375 140.689063 112.194531 140.689063 112.194531 C 140.689063 112.194531 162.7875 112.576563 169.685156 127.902344 C 176.44375 142.91875 127.508594 175.707031 127.508594 175.707031 " transform="matrix(5,0,0,5,0,0)"/>
</g>
</svg>
