<?xml version="1.0" encoding="UTF-8"?>
<svg xmlns="http://www.w3.org/2000/svg" xmlns:xlink="http://www.w3.org/1999/xlink" width="1000pt" height="1000pt" viewBox="0 0 1000 1000" version="1.1">
<g id="surface1">
<path style="fill:none;stroke-width:8.7;stroke-linecap:butt;stroke-linejoin:miter;stroke:rgb(0%,0%,0%);stroke-opacity:1;stroke-miterlimit:4;" d="M 58.451563 27.442188 C 58.451563 27.442188 63.048438 41.425781 55.908594 53.914062 C 46.842188 69.771094 32.171094 81.311719 30.532813 88.573438 C 28.317969 98.389844 43.449219 98.321094 44.91875 115.060156 C 46.470313 132.734375 43.540625 157.575781 43.540625 161.638281 C 43.540625 165.701563 44.509375 170.342188 44.509375 170.342188 L 46.479688 169.974219 C 46.479688 169.974219 51.198438 146.196094 64.44375 123.064063 " transform="matrix(5,0,0,5,0,0)"/>
<path style="fill:none;stroke-width:8.7;stroke-linecap:butt;stroke-linejoin:miter;stroke:rgb(0%,0%,0%);stroke-opacity:1;stroke-miterlimit:4;" d="M 97.964844 24.538281 C 97.964844 24.538281 115.105469 30.090625 129.0875 29.365625 C 143.6 28.6125 156.5625 25.18125 156.5625 25.18125 L 158.503906 27.038281 L 107.516406 81.395313 L 108.797656 82.852344 C 108.797656 82.852344 140.899219 61.835156 157.808594 71.995312 C 174.717969 82.155469 165.207031 101.1 139.895313 120.444531 C 118.703906 136.639062 70.567969 163.149219 108.059375 169.132031 C 137.879688 173.889844 175.940625 167.596875 175.940625 167.596875 " transform="matrix(5,0,0,5,0,0)"/>
</g>
</svg>
