<?xml version="1.0" encoding="UTF-8"?>
<svg xmlns="http://www.w3.org/2000/svg" xmlns:xlink="http://www.w3.org/1999/xlink" width="1000pt" height="1000pt" viewBox="0 0 1000 1000" version="1.1">
<g id="surface1">
<path style="fill:none;stroke-width:8.7;stroke-linecap:butt;stroke-linejoin:miter;stroke:rgb(0%,0%,0%);stroke-opacity:1;stroke-miterlimit:4;" d="M 73.332813 20.542188 C 73.332813 20.542188 73.378906 26.769531 73.378906 31.551563 C 73.378906 36.333594 77.810938 41.083594 77.810938 41.083594 " transform="matrix(5,0,0,5,0,0)"/>
<path style="fill:none;stroke-width:8.7;stroke-linecap:butt;stroke-linejoin:miter;stroke:rgb(0%,0%,0%);stroke-opacity:1;stroke-miterlimit:4;" d="M 108.38125 21.674219 C 108.38125 21.674219 122.121094 19.609375 121.669531 28.879688 C 121.217188 38.15 75.552344 76.132812 74.503906 90.423438 C 73.465625 104.575781 87.915625 141.594531 64.529688 162.688281 C 42.171094 182.85625 32.6 169.688281 36.535156 158.196094 C 39.527344 149.457813 45.110156 136.621094 68.441406 119.932813 C 97.030469 99.484375 114.682813 93.732031 123.696875 93.021094 C 132.710938 92.310938 137.921094 94.471094 137.921094 94.471094 L 136.796875 96.630469 C 136.796875 96.630469 104.960938 118.946094 113.5375 127.057031 C 120.535156 133.675781 168.496875 112.873438 168.496875 112.873438 " transform="matrix(5,0,0,5,0,0)"/>
<path style="fill:none;stroke-width:8.7;stroke-linecap:butt;stroke-linejoin:miter;stroke:rgb(0%,0%,0%);stroke-opacity:1;stroke-miterlimit:4;" d="M 143.303906 61.520313 C 143.303906 61.520313 136.285156 82.466406 134.8 96.223438 C 133.30625 110.059375 134.965625 173.721094 134.965625 173.721094 L 133.104688 174.722656 C 133.104688 174.722656 129.9125 169.75 125.077344 164.805469 C 121.674219 161.325 115.671094 157.567969 115.671094 157.567969 " transform="matrix(5,0,0,5,0,0)"/>
<path style="fill:none;stroke-width:8.7;stroke-linecap:butt;stroke-linejoin:miter;stroke:rgb(0%,0%,0%);stroke-opacity:1;stroke-miterlimit:4;" d="M 26.271875 55.795313 C 26.271875 55.795313 42.353125 60.564063 60.925781 59.300781 C 79.499219 58.0375 124.13125 49.728125 136.180469 48.317969 C 148.229688 46.908594 166.835156 49.646875 166.835156 49.646875 " transform="matrix(5,0,0,5,0,0)"/>
<path style="fill:none;stroke-width:8.7;stroke-linecap:butt;stroke-linejoin:miter;stroke:rgb(0%,0%,0%);stroke-opacity:1;stroke-miterlimit:4;" d="M 154.379688 132.04375 C 154.379688 132.04375 163.603906 136.684375 167.379688 143.602344 C 172.230469 152.489844 173.746094 160.724219 173.746094 160.724219 " transform="matrix(5,0,0,5,0,0)"/>
</g>
</svg>
