<?xml version="1.0" encoding="UTF-8"?>
<svg xmlns="http://www.w3.org/2000/svg" xmlns:xlink="http://www.w3.org/1999/xlink" width="1000pt" height="1000pt" viewBox="0 0 1000 1000" version="1.1">
<g id="surface1">
<path style="fill:none;stroke-width:8.7;stroke-linecap:butt;stroke-linejoin:miter;stroke:rgb(0%,0%,0%);stroke-opacity:1;stroke-miterlimit:4;" d="M 78.859375 19.33125 C 78.859375 19.33125 105.492188 88.858594 111.03125 123.917969 C 116.444531 158.184375 115.146875 173.135938 115.146875 173.135938 L 112.865625 174.839063 C 112.865625 174.839063 107.485156 167.332031 100.749219 161.476562 C 94.607813 156.138281 85.063281 150.03125 85.063281 150.03125 " transform="matrix(5,0,0,5,0,0)"/>
<path style="fill:none;stroke-width:8.7;stroke-linecap:butt;stroke-linejoin:miter;stroke:rgb(0%,0%,0%);stroke-opacity:1;stroke-miterlimit:4;" d="M 32.850781 115.817188 C 32.850781 115.817188 31.259375 133.230469 35.421875 143.246875 C 39.725 153.601562 48.428906 164.165625 48.428906 164.165625 " transform="matrix(5,0,0,5,0,0)"/>
<path style="fill:none;stroke-width:8.7;stroke-linecap:butt;stroke-linejoin:miter;stroke:rgb(0%,0%,0%);stroke-opacity:1;stroke-miterlimit:4;" d="M 164.333594 51.999219 C 164.333594 51.999219 169.838281 62.749219 164.804688 76.385937 C 158.25625 94.127344 138.175 104.175781 138.175 104.175781 " transform="matrix(5,0,0,5,0,0)"/>
<path style="fill:none;stroke-width:8.7;stroke-linecap:butt;stroke-linejoin:miter;stroke:rgb(0%,0%,0%);stroke-opacity:1;stroke-miterlimit:4;" d="M 45.363281 64.711719 C 45.363281 64.711719 61.109375 79.559375 80.883594 76.994531 C 102.867969 74.142969 133.011719 55.98125 133.011719 55.98125 " transform="matrix(5,0,0,5,0,0)"/>
</g>
</svg>
