<?xml version="1.0" encoding="UTF-8"?>
<svg xmlns="http://www.w3.org/2000/svg" xmlns:xlink="http://www.w3.org/1999/xlink" width="1000pt" height="1000pt" viewBox="0 0 1000 1000" version="1.1">
<g id="surface1">
<path style="fill:none;stroke-width:8.7;stroke-linecap:butt;stroke-linejoin:miter;stroke:rgb(0%,0%,0%);stroke-opacity:1;stroke-miterlimit:4;" d="M 65.292187 24.941406 C 65.292187 24.941406 64.121094 36.814062 81.876563 46.350781 " transform="matrix(5,0,0,5,0,0)"/>
<path style="fill:none;stroke-width:8.7;stroke-linecap:butt;stroke-linejoin:miter;stroke:rgb(0%,0%,0%);stroke-opacity:1;stroke-miterlimit:4;" d="M 23.3125 58.750781 C 23.3125 58.750781 45.335938 59.729688 61.099219 59.542969 C 86.280469 59.244531 105.414062 55.917188 137.467969 54.717188 C 158.255469 53.939063 174.145313 57.188281 174.145313 57.188281 " transform="matrix(5,0,0,5,0,0)"/>
<path style="fill:none;stroke-width:8.7;stroke-linecap:butt;stroke-linejoin:miter;stroke:rgb(0%,0%,0%);stroke-opacity:1;stroke-miterlimit:4;" d="M 126.842969 19.199219 C 126.842969 19.199219 129.39375 29.646094 122.988281 41.189063 C 114.889844 55.783594 79.164844 87.230469 79.164844 87.230469 L 79.667969 89.322656 C 79.667969 89.322656 96.440625 85.04375 102.400781 83.93125 C 108.361719 82.819531 120.022656 80.110938 120.022656 80.110938 L 120.257031 83.096875 C 120.257031 83.096875 96.324219 102.732031 77.38125 122.323438 C 58.438281 141.914062 33.861719 167.26875 33.861719 167.26875 C 33.861719 167.26875 40.601562 152.695312 42.828906 145.94375 C 45.460156 137.964844 43.372656 131.9625 43.372656 131.9625 " transform="matrix(5,0,0,5,0,0)"/>
<path style="fill:none;stroke-width:8.7;stroke-linecap:butt;stroke-linejoin:miter;stroke:rgb(0%,0%,0%);stroke-opacity:1;stroke-miterlimit:4;" d="M 93.11875 118.716406 C 93.11875 118.716406 90.089063 137.202344 89.492188 147.025 C 88.8 158.429688 88.825 171.630469 88.825 171.630469 L 91.784375 172.185156 C 91.784375 172.185156 121.614063 126.885938 154.535156 129.757812 C 179.448438 131.93125 178.078125 167.221094 150.496875 176.659375 " transform="matrix(5,0,0,5,0,0)"/>
</g>
</svg>
