<?xml version="1.0" encoding="UTF-8"?>
<svg xmlns="http://www.w3.org/2000/svg" xmlns:xlink="http://www.w3.org/1999/xlink" width="1000pt" height="1000pt" viewBox="0 0 1000 1000" version="1.1">
<g id="surface1">
<path style="fill:none;stroke-width:8.7;stroke-linecap:butt;stroke-linejoin:miter;stroke:rgb(0%,0%,0%);stroke-opacity:1;stroke-miterlimit:4;" d="M 65.157813 22.128125 C 65.157813 22.128125 59.948438 32.49375 59.384375 39.251563 C 58.820312 46.009375 63.452344 52.961719 63.452344 52.961719 " transform="matrix(5,0,0,5,0,0)"/>
<path style="fill:none;stroke-width:8.7;stroke-linecap:butt;stroke-linejoin:miter;stroke:rgb(0%,0%,0%);stroke-opacity:1;stroke-miterlimit:4;" d="M 82.400781 29.621875 C 82.400781 29.621875 89.71875 24.291406 95.514063 32.422656 C 101.308594 40.553125 102.447656 46.027344 102.447656 46.027344 L 105.129688 45.564844 C 105.129688 45.564844 122.227344 18.271094 130.642188 24.941406 C 144.607031 36.010938 113.969531 92.564063 100.483594 104.45625 C 88.127344 115.353125 80.967188 122.274219 71.289062 116.361719 C 61.288281 110.251563 80.11875 82.396094 96.727344 83.427344 C 113.336719 84.458594 113.182813 103.957031 109.072656 114.335156 C 105.863281 122.438281 96.3 128.624219 96.751563 133.486719 C 97.089844 137.135938 113.896094 133.234375 114.917188 139.886719 C 116.7 151.5 75.217188 160.582031 80.292188 172.722656 C 84.703125 183.274219 134.586719 175.535156 134.586719 175.535156 " transform="matrix(5,0,0,5,0,0)"/>
<path style="fill:none;stroke-width:8.7;stroke-linecap:butt;stroke-linejoin:miter;stroke:rgb(0%,0%,0%);stroke-opacity:1;stroke-miterlimit:4;" d="M 19.413281 70.825781 C 19.413281 70.825781 41.738281 72.575 55.357031 70.803125 C 68.975781 69.03125 110.265625 59.971094 126.748438 57.697656 C 143.23125 55.424219 178.008594 57.561719 178.008594 57.561719 " transform="matrix(5,0,0,5,0,0)"/>
</g>
</svg>
