<?xml version="1.0" encoding="UTF-8"?>
<svg xmlns="http://www.w3.org/2000/svg" xmlns:xlink="http://www.w3.org/1999/xlink" width="1000pt" height="1000pt" viewBox="0 0 1000 1000" version="1.1">
<g id="surface1">
<path style="fill:none;stroke-width:8.7;stroke-linecap:butt;stroke-linejoin:miter;stroke:rgb(0%,0%,0%);stroke-opacity:1;stroke-miterlimit:4;" d="M 119.574219 20.188281 C 119.574219 20.188281 116.365625 29.301563 113.21875 35.005469 C 109.503906 41.739063 105.660156 46.160938 105.660156 46.160938 L 108.84375 48.541406 C 108.84375 48.541406 142.567188 84.901563 129.744531 134.178125 C 116.921875 183.454688 80.439063 178.833594 62.676563 168.182031 C 44.914062 157.53125 30.749219 119.28125 48.5 87.692969 C 68.36875 52.335156 121.5625 58.978125 121.5625 58.978125 L 121.342188 60.482031 C 121.342188 60.482031 94.583594 66.021094 93.991406 80.760156 C 93.4 95.5 107.915625 93.577344 107.915625 93.577344 L 109.045313 94.746875 C 109.045313 94.746875 96.428125 114.767188 114.251563 132.73125 C 132.075 150.695312 163.3875 147.610156 163.3875 147.610156 " transform="matrix(5,0,0,5,0,0)"/>
</g>
</svg>
