<?xml version="1.0" encoding="UTF-8"?>
<svg xmlns="http://www.w3.org/2000/svg" xmlns:xlink="http://www.w3.org/1999/xlink" width="1000pt" height="1000pt" viewBox="0 0 1000 1000" version="1.1">
<g id="surface1">
<path style="fill:none;stroke-width:8.7;stroke-linecap:butt;stroke-linejoin:miter;stroke:rgb(0%,0%,0%);stroke-opacity:1;stroke-miterlimit:4;" d="M 26.305469 42.823438 C 26.305469 42.823438 67.291406 79.274219 88.775781 140.840625 " transform="matrix(5,0,0,5,0,0)"/>
<path style="fill:none;stroke-width:8.7;stroke-linecap:butt;stroke-linejoin:miter;stroke:rgb(0%,0%,0%);stroke-opacity:1;stroke-miterlimit:4;" d="M 102.442188 17.238281 C 102.442188 17.238281 96.022656 87.121094 80.452344 117.067969 C 64.88125 147.014844 30.550781 174.572656 22.792969 138.651563 C 15.035156 102.730469 52.216406 57.61875 116.25625 63.45 C 180.295313 69.282031 158.660938 145.276563 132.826562 155.319531 C 108.996875 164.582813 93.889063 141.692188 109.096875 125.578125 C 128.432813 105.091406 152.510156 120.033594 165.523438 136.578906 C 178.6625 153.283594 182.858594 172.127344 159.30625 177.651563 " transform="matrix(5,0,0,5,0,0)"/>
</g>
</svg>
