<?xml version="1.0" encoding="UTF-8"?>
<svg xmlns="http://www.w3.org/2000/svg" xmlns:xlink="http://www.w3.org/1999/xlink" width="1000pt" height="1000pt" viewBox="0 0 1000 1000" version="1.1">
<g id="surface1">
<path style="fill:none;stroke-width:8.7;stroke-linecap:butt;stroke-linejoin:miter;stroke:rgb(0%,0%,0%);stroke-opacity:1;stroke-miterlimit:4;" d="M 66.222656 22.316406 C 66.222656 22.316406 76.892188 30.26875 92.495313 32.482813 C 104.296875 34.157812 113.992188 30.140625 113.992188 30.140625 " transform="matrix(5,0,0,5,0,0)"/>
<path style="fill:none;stroke-width:8.7;stroke-linecap:butt;stroke-linejoin:miter;stroke:rgb(0%,0%,0%);stroke-opacity:1;stroke-miterlimit:4;" d="M 54.748438 55.340625 C 54.748438 55.340625 63.653906 68.792187 77.926563 70.7125 C 92.2 72.632031 105.791406 70.953906 105.791406 70.953906 L 106.163281 72.821094 C 106.163281 72.821094 38.057813 91.910938 45.407031 113.4375 C 52.75625 134.964063 125.282031 120.05625 125.282031 120.05625 L 125.282031 117.053125 C 125.282031 117.053125 119.513281 94.533594 109.25625 96.86875 C 101.364063 98.665625 77.9625 153.2625 101.686719 171.427344 C 125.410156 189.591406 160.49375 143.126563 160.49375 143.126563 " transform="matrix(5,0,0,5,0,0)"/>
</g>
</svg>
