<?xml version="1.0" encoding="UTF-8"?>
<svg xmlns="http://www.w3.org/2000/svg" xmlns:xlink="http://www.w3.org/1999/xlink" width="1000pt" height="1000pt" viewBox="0 0 1000 1000" version="1.1">
<g id="surface1">
<path style="fill:none;stroke-width:8.7;stroke-linecap:butt;stroke-linejoin:miter;stroke:rgb(0%,0%,0%);stroke-opacity:1;stroke-miterlimit:4;" d="M 44.452344 31.76875 C 44.452344 31.76875 34.972656 110.261719 37.027344 130.624219 C 39.082031 150.986719 43.460938 169.000781 43.460938 169.000781 L 46.073438 167.63125 C 46.073438 167.63125 51.105469 143.636719 53.439844 136.896094 C 55.774219 130.15625 62.996875 113.678906 62.996875 113.678906 " transform="matrix(5,0,0,5,0,0)"/>
<path style="fill:none;stroke-width:8.7;stroke-linecap:butt;stroke-linejoin:miter;stroke:rgb(0%,0%,0%);stroke-opacity:1;stroke-miterlimit:4;" d="M 77.228125 61.588281 C 77.228125 61.588281 100.661719 63.299219 112.440625 61.042188 C 126.758594 58.297656 151.296094 43.950781 165.74375 52.897656 C 180.190625 61.844531 176.107813 92.659375 133.999219 78.028125 " transform="matrix(5,0,0,5,0,0)"/>
<path style="fill:none;stroke-width:8.7;stroke-linecap:butt;stroke-linejoin:miter;stroke:rgb(0%,0%,0%);stroke-opacity:1;stroke-miterlimit:4;" d="M 118.363281 16.954688 C 118.363281 16.954688 129.057813 86.682813 129.61875 116.435938 C 130.178906 146.189844 128.027344 177.527344 128.027344 177.527344 L 126.13125 178.860938 C 126.13125 178.860938 89.288281 147.958594 91.091406 130.320312 C 92.514844 116.389844 129.626563 101.001563 137.063281 110.750781 C 144.5 120.5 113.739063 129.526563 112.774219 137.653906 C 111.169531 151.172656 160.670313 149.492969 160.670313 149.492969 " transform="matrix(5,0,0,5,0,0)"/>
</g>
</svg>
