<?xml version="1.0" encoding="UTF-8"?>
<svg xmlns="http://www.w3.org/2000/svg" xmlns:xlink="http://www.w3.org/1999/xlink" width="1000pt" height="1000pt" viewBox="0 0 1000 1000" version="1.1">
<g id="surface1">
<path style="fill:none;stroke-width:8.7;stroke-linecap:butt;stroke-linejoin:miter;stroke:rgb(0%,0%,0%);stroke-opacity:1;stroke-miterlimit:4;" d="M 63.678125 24.110156 C 63.678125 24.110156 76.551563 32.35625 86.76875 33.79375 C 98.946094 35.507812 109.559375 33.075 109.559375 33.075 " transform="matrix(5,0,0,5,0,0)"/>
<path style="fill:none;stroke-width:8.7;stroke-linecap:butt;stroke-linejoin:miter;stroke:rgb(0%,0%,0%);stroke-opacity:1;stroke-miterlimit:4;" d="M 67.765625 67.264844 C 67.765625 67.264844 102.2 51.415625 112.84375 65.261719 C 123.4875 79.108594 117.407031 104.911719 102.588281 110.1 C 84.527344 116.423438 67.035156 94.660156 61.225781 119.98125 C 55.415625 145.301563 64.035156 174.247656 64.035156 174.247656 L 66.639063 173.653125 C 66.639063 173.653125 77.366406 156.963281 89.055469 146.574219 C 100.341406 136.544531 124.820312 118.947656 124.820312 118.947656 L 126.948438 119.621094 C 126.948438 119.621094 114.892188 151.190625 121.155469 163.571094 C 127.41875 175.950781 153.857031 175.617969 153.857031 175.617969 " transform="matrix(5,0,0,5,0,0)"/>
</g>
</svg>
