<?xml version="1.0" encoding="UTF-8"?>
<svg xmlns="http://www.w3.org/2000/svg" xmlns:xlink="http://www.w3.org/1999/xlink" width="1000pt" height="1000pt" viewBox="0 0 1000 1000" version="1.1">
<g id="surface1">
<path style="fill:none;stroke-width:8.7;stroke-linecap:butt;stroke-linejoin:miter;stroke:rgb(0%,0%,0%);stroke-opacity:1;stroke-miterlimit:4;" d="M 69.65625 15.934375 C 69.65625 15.934375 68.627344 25.097656 63.888281 34.805469 C 58.621094 45.595313 44.653125 59.042969 44.653125 59.042969 L 45.798438 60.614063 L 92.898438 37.775781 L 94.075781 39.4375 L 44.389063 96.467969 L 46.09375 98.257031 C 46.09375 98.257031 89.603906 64.869531 123.480469 64.76875 C 154.647656 64.676563 157.063281 88.239063 152.666406 100.990625 C 147.551563 115.825781 127.014844 118.463281 105.900781 104.357813 " transform="matrix(5,0,0,5,0,0)"/>
<path style="fill:none;stroke-width:8.7;stroke-linecap:butt;stroke-linejoin:miter;stroke:rgb(0%,0%,0%);stroke-opacity:1;stroke-miterlimit:4;" d="M 126.096094 40.525 C 126.096094 40.525 109.646094 123.946875 55.511719 165.685938 C 43.279688 175.117188 27.495313 176.517188 27.495313 176.517188 " transform="matrix(5,0,0,5,0,0)"/>
<path style="fill:none;stroke-width:8.7;stroke-linecap:butt;stroke-linejoin:miter;stroke:rgb(0%,0%,0%);stroke-opacity:1;stroke-miterlimit:4;" d="M 86.105469 149.721875 C 86.105469 149.721875 98.417969 138.607812 105.972656 143.2 C 115.559375 149.028125 107.0875 167.866406 118.367969 175.396875 C 132.639062 184.924219 172.26875 175.696875 172.26875 175.696875 " transform="matrix(5,0,0,5,0,0)"/>
</g>
</svg>
