<?xml version="1.0" encoding="UTF-8"?>
<svg xmlns="http://www.w3.org/2000/svg" xmlns:xlink="http://www.w3.org/1999/xlink" width="1000pt" height="1000pt" viewBox="0 0 1000 1000" version="1.1">
<g id="surface1">
<path style="fill:none;stroke-width:8.7;stroke-linecap:butt;stroke-linejoin:miter;stroke:rgb(0%,0%,0%);stroke-opacity:1;stroke-miterlimit:4;" d="M 59.595313 20.358594 C 59.595313 20.358594 63.309375 38.2875 84.304688 45.59375 " transform="matrix(5,0,0,5,0,0)"/>
<path style="fill:none;stroke-width:8.7;stroke-linecap:butt;stroke-linejoin:miter;stroke:rgb(0%,0%,0%);stroke-opacity:1;stroke-miterlimit:4;" d="M 21.25 87.964063 C 21.25 87.964063 26.407813 96.701563 34.985156 96.235156 C 43.5625 95.767969 63.314063 89.042188 63.314063 89.042188 L 63.958594 90.164062 C 63.958594 90.164062 57.173438 108.908594 58.046094 131.570312 C 58.830469 151.940625 64.117969 161.842188 64.117969 161.842188 L 65.285938 161.489063 C 65.285938 161.489063 71.175 129.616406 79.602344 121.788281 " transform="matrix(5,0,0,5,0,0)"/>
<path style="fill:none;stroke-width:8.7;stroke-linecap:butt;stroke-linejoin:miter;stroke:rgb(0%,0%,0%);stroke-opacity:1;stroke-miterlimit:4;" d="M 124.853125 20.039844 C 124.853125 20.039844 122.298438 34.478906 119.559375 42.214844 C 116.819531 49.950781 105.382812 64.241406 105.382812 64.241406 L 106.074219 65.571875 L 142.542188 48.435156 L 144.675 50.09375 C 144.675 50.09375 132.117188 119.113281 103.195312 123.846875 C 81.820312 127.346094 93.076563 100.435156 115.321094 89.630469 C 137.566406 78.825 154.699219 75.721094 154.699219 75.721094 L 156.047656 78.021094 L 147.991406 120.825781 L 149.508594 123.26875 C 149.508594 123.26875 174.689844 116.354688 172.157031 139.323438 C 169.624219 162.292969 113.158594 176.450781 113.158594 176.450781 " transform="matrix(5,0,0,5,0,0)"/>
</g>
</svg>
