<?xml version="1.0" encoding="UTF-8"?>
<svg xmlns="http://www.w3.org/2000/svg" xmlns:xlink="http://www.w3.org/1999/xlink" width="1000pt" height="1000pt" viewBox="0 0 1000 1000" version="1.1">
<g id="surface1">
<path style="fill:none;stroke-width:8.7;stroke-linecap:butt;stroke-linejoin:miter;stroke:rgb(0%,0%,0%);stroke-opacity:1;stroke-miterlimit:4;" d="M 68.219531 20.335938 C 68.219531 20.335938 86.054688 35.196094 120.836719 19.497656 " transform="matrix(5,0,0,5,0,0)"/>
<path style="fill:none;stroke-width:8.7;stroke-linecap:butt;stroke-linejoin:miter;stroke:rgb(0%,0%,0%);stroke-opacity:1;stroke-miterlimit:4;" d="M 96.1 33.2 C 96.1 33.2 78.267188 51.811719 86.044531 91.779688 " transform="matrix(5,0,0,5,0,0)"/>
<path style="fill:none;stroke-width:8.7;stroke-linecap:butt;stroke-linejoin:miter;stroke:rgb(0%,0%,0%);stroke-opacity:1;stroke-miterlimit:4;" d="M 48.916406 55.889844 C 48.916406 55.889844 70.884375 60.03125 82.810938 58.752344 C 97.407031 57.186719 137.0875 46.496094 143.132031 55.658594 C 150.008594 66.082031 118.8875 76.14375 111.000781 78.509375 " transform="matrix(5,0,0,5,0,0)"/>
<path style="fill:none;stroke-width:8.7;stroke-linecap:butt;stroke-linejoin:miter;stroke:rgb(0%,0%,0%);stroke-opacity:1;stroke-miterlimit:4;" d="M 112.760156 32.742969 C 112.760156 32.742969 117.160938 48.710938 114.907031 65.845313 C 112.682031 82.753906 100.935156 100.821875 100.935156 100.821875 " transform="matrix(5,0,0,5,0,0)"/>
<path style="fill:none;stroke-width:8.7;stroke-linecap:butt;stroke-linejoin:miter;stroke:rgb(0%,0%,0%);stroke-opacity:1;stroke-miterlimit:4;" d="M 50.725 104.464063 C 50.725 104.464063 65.45 108.639063 77.130469 106.976562 C 93.867188 104.59375 111.105469 100.783594 120.7875 98.904688 C 132.021094 96.723438 138.075 96.678906 138.075 96.678906 L 138.075 97.645313 C 138.075 97.645313 101.264844 116.10625 72.176563 137.774219 C 48.953906 155.074219 23.114844 178.878906 23.114844 178.878906 " transform="matrix(5,0,0,5,0,0)"/>
<path style="fill:none;stroke-width:8.7;stroke-linecap:butt;stroke-linejoin:miter;stroke:rgb(0%,0%,0%);stroke-opacity:1;stroke-miterlimit:4;" d="M 60.0625 129.897656 C 60.0625 129.897656 75.992188 132.361719 75.759375 150.85 C 75.567969 165.961719 76.971875 177.590625 76.971875 177.590625 L 78.477344 177.457813 C 78.477344 177.457813 88.521875 163.6125 101.254688 152.357031 " transform="matrix(5,0,0,5,0,0)"/>
<path style="fill:none;stroke-width:8.7;stroke-linecap:butt;stroke-linejoin:miter;stroke:rgb(0%,0%,0%);stroke-opacity:1;stroke-miterlimit:4;" d="M 113.85625 131.06875 C 113.85625 131.06875 131.371094 117.572656 132.914844 130.010156 C 134.458594 142.448438 127.646094 156.897656 139.803906 159.326563 C 151.9625 161.755469 171.76875 150.344531 173.974219 165.390625 C 176.180469 180.436719 115.282813 181.78125 115.282813 181.78125 " transform="matrix(5,0,0,5,0,0)"/>
</g>
</svg>
