<?xml version="1.0" encoding="UTF-8"?>
<svg xmlns="http://www.w3.org/2000/svg" xmlns:xlink="http://www.w3.org/1999/xlink" width="1000pt" height="1000pt" viewBox="0 0 1000 1000" version="1.1">
<g id="surface1">
<path style="fill:none;stroke-width:8.7;stroke-linecap:butt;stroke-linejoin:miter;stroke:rgb(0%,0%,0%);stroke-opacity:1;stroke-miterlimit:4;" d="M 74.683594 20.542188 C 74.683594 20.542188 90.042188 46.447656 126.895313 36.01875 " transform="matrix(5,0,0,5,0,0)"/>
<path style="fill:none;stroke-width:8.7;stroke-linecap:butt;stroke-linejoin:miter;stroke:rgb(0%,0%,0%);stroke-opacity:1;stroke-miterlimit:4;" d="M 72.185938 46.076563 C 72.185938 46.076563 70.1625 50.079688 72.585156 54.821875 C 75.007031 59.564063 87.821875 60.792969 87.821875 60.792969 L 87.661719 62.939063 C 87.661719 62.939063 44.317969 92.905469 52.664844 99.210156 C 60.286719 104.967188 131.642969 96.567969 144.020313 82.205469 C 156.397656 67.842969 143.922656 49.766406 125.094531 65.300781 C 106.265625 80.835156 73.9125 133.432031 63.280469 145.414062 C 52.648438 157.396875 32.202344 178.876563 32.202344 178.876563 " transform="matrix(5,0,0,5,0,0)"/>
<path style="fill:none;stroke-width:8.7;stroke-linecap:butt;stroke-linejoin:miter;stroke:rgb(0%,0%,0%);stroke-opacity:1;stroke-miterlimit:4;" d="M 63.057031 145.707813 C 63.057031 145.707813 85.7375 129.220313 95.866406 134.14375 C 108.565625 140.317969 102.949219 158.925781 113.983594 169.578125 C 125.017188 180.230469 173.327344 175.025781 173.327344 175.025781 " transform="matrix(5,0,0,5,0,0)"/>
</g>
</svg>
