<?xml version="1.0" encoding="UTF-8"?>
<svg xmlns="http://www.w3.org/2000/svg" xmlns:xlink="http://www.w3.org/1999/xlink" width="1000pt" height="1000pt" viewBox="0 0 1000 1000" version="1.1">
<g id="surface1">
<path style="fill:none;stroke-width:8.7;stroke-linecap:butt;stroke-linejoin:miter;stroke:rgb(0%,0%,0%);stroke-opacity:1;stroke-miterlimit:4;" d="M 49.585156 40.002344 C 49.585156 40.002344 82.489063 52.123438 123.703906 37.385938 " transform="matrix(5,0,0,5,0,0)"/>
<path style="fill:none;stroke-width:8.7;stroke-linecap:butt;stroke-linejoin:miter;stroke:rgb(0%,0%,0%);stroke-opacity:1;stroke-miterlimit:4;" d="M 77.449219 21.624219 C 77.449219 21.624219 89.2625 24.438281 84.88125 34.746875 C 80.5 45.055469 68.078125 63.907031 68.078125 63.907031 L 69.65625 64.557031 C 69.65625 64.557031 118.849219 43.842188 135.0125 75.073437 C 145.019531 94.408594 125.722656 124.922656 83.261719 125.660938 C 40.8 126.4 61.507812 73.977344 78.103906 76.539062 C 94.7 79.1 92.751563 113.886719 55.132031 119.428125 C 17.5125 124.96875 31.10625 77.56875 86.233594 99.122656 C 109.358594 108.163281 98.435938 126.820312 66.715625 146.2 C 46.371094 158.629688 32.695312 174.827344 32.695312 174.827344 L 33.280469 175.391406 C 33.280469 175.391406 59.847656 143.954688 77.047656 155.404688 C 94.246875 166.854688 98.275781 177.1125 98.275781 177.1125 L 99.392969 177.1125 C 99.392969 177.1125 112.220313 140.579688 135.560156 145.289844 C 158.9 150 171.225 178.883594 171.225 178.883594 " transform="matrix(5,0,0,5,0,0)"/>
</g>
</svg>
