<?xml version="1.0" encoding="UTF-8"?>
<svg xmlns="http://www.w3.org/2000/svg" xmlns:xlink="http://www.w3.org/1999/xlink" width="1000pt" height="1000pt" viewBox="0 0 1000 1000" version="1.1">
<g id="surface1">
<path style="fill:none;stroke-width:8.7;stroke-linecap:butt;stroke-linejoin:miter;stroke:rgb(0%,0%,0%);stroke-opacity:1;stroke-miterlimit:4;" d="M 78.741406 21.922656 C 78.741406 21.922656 65.592188 85.2375 65.114063 116.502344 C 64.678906 144.9125 69.503906 171.625781 69.503906 171.625781 " transform="matrix(5,0,0,5,0,0)"/>
<path style="fill:none;stroke-width:8.7;stroke-linecap:butt;stroke-linejoin:miter;stroke:rgb(0%,0%,0%);stroke-opacity:1;stroke-miterlimit:4;" d="M 31.6375 42.186719 C 31.6375 42.186719 45.5375 50.110938 62.23125 51.899219 C 84.592188 54.29375 128.085156 49.913281 136.46875 48.771094 C 140.660938 48.2 160.927344 47.714844 160.927344 47.714844 L 162.516406 52.099219 L 146.577344 66.564844 " transform="matrix(5,0,0,5,0,0)"/>
<path style="fill:none;stroke-width:8.7;stroke-linecap:butt;stroke-linejoin:miter;stroke:rgb(0%,0%,0%);stroke-opacity:1;stroke-miterlimit:4;" d="M 117.134375 21.714844 C 117.134375 21.714844 129.115625 16.428906 133.109375 32.114844 C 137.49375 49.335938 138.835156 92.482813 133.247656 127.046875 C 128.067188 159.100781 111.321094 182.107813 111.321094 182.107813 " transform="matrix(5,0,0,5,0,0)"/>
<path style="fill:none;stroke-width:8.7;stroke-linecap:butt;stroke-linejoin:miter;stroke:rgb(0%,0%,0%);stroke-opacity:1;stroke-miterlimit:4;" d="M 41.488281 87.667969 C 41.488281 87.667969 24.915625 102.257031 35.441406 107.953125 C 45.967188 113.649219 133.571094 117.435156 175.388281 109.815625 " transform="matrix(5,0,0,5,0,0)"/>
</g>
</svg>
