<?xml version="1.0" encoding="UTF-8"?>
<svg xmlns="http://www.w3.org/2000/svg" xmlns:xlink="http://www.w3.org/1999/xlink" width="1000pt" height="1000pt" viewBox="0 0 1000 1000" version="1.1">
<g id="surface1">
<path style="fill:none;stroke-width:8.7;stroke-linecap:butt;stroke-linejoin:miter;stroke:rgb(0%,0%,0%);stroke-opacity:1;stroke-miterlimit:4;" d="M 59.107813 32.176563 C 59.107813 32.176563 74.384375 38.450781 83.71875 37.789844 C 93.053125 37.128125 106.842969 34.557031 106.842969 34.557031 L 107.333594 37.944531 C 107.333594 37.944531 53.315625 131.785938 25.646094 167.090625 " transform="matrix(5,0,0,5,0,0)"/>
<path style="fill:none;stroke-width:8.7;stroke-linecap:butt;stroke-linejoin:miter;stroke:rgb(0%,0%,0%);stroke-opacity:1;stroke-miterlimit:4;" d="M 120.194531 65.445312 C 120.194531 65.445312 96.782031 86.0875 98.0125 99.003906 C 99.242969 111.921094 126.684375 107.900781 126.684375 107.900781 L 126.923438 109.292969 C 126.923438 109.292969 79.619531 117.027344 83.355469 132.326562 C 87.092188 147.625781 146.484375 135.133594 146.484375 135.133594 L 146.484375 134.128125 C 146.484375 134.128125 141.633594 131.059375 131.341406 121.541406 " transform="matrix(5,0,0,5,0,0)"/>
<path style="fill:none;stroke-width:8.7;stroke-linecap:butt;stroke-linejoin:miter;stroke:rgb(0%,0%,0%);stroke-opacity:1;stroke-miterlimit:4;" d="M 122.617188 94.494531 C 122.617188 94.494531 103.619531 154.916406 120.09375 168.371094 C 135.973438 181.339844 192.327344 177.783594 175.579688 127.827344 " transform="matrix(5,0,0,5,0,0)"/>
</g>
</svg>
