<?xml version="1.0" encoding="UTF-8" standalone="no"?>
<svg
   xmlns:dc="http://purl.org/dc/elements/1.1/"
   xmlns:cc="http://creativecommons.org/ns#"
   xmlns:rdf="http://www.w3.org/1999/02/22-rdf-syntax-ns#"
   xmlns:svg="http://www.w3.org/2000/svg"
   xmlns="http://www.w3.org/2000/svg"
   xmlns:sodipodi="http://sodipodi.sourceforge.net/DTD/sodipodi-0.dtd"
   xmlns:inkscape="http://www.inkscape.org/namespaces/inkscape"
   inkscape:version="1.0 (4035a4fb49, 2020-05-01)"
   sodipodi:docname="u1b04c.svg"
   id="svg6"
   height="200"
   width="200"
   viewBox="0 0 200 200"
   version="1.1">
  <metadata
     id="metadata12">
    <rdf:RDF>
      <cc:Work
         rdf:about="">
        <dc:format>image/svg+xml</dc:format>
        <dc:type
           rdf:resource="http://purl.org/dc/dcmitype/StillImage" />
      </cc:Work>
    </rdf:RDF>
  </metadata>
  <defs
     id="defs10" />
  <sodipodi:namedview
     inkscape:current-layer="svg6"
     inkscape:window-maximized="1"
     inkscape:window-y="28"
     inkscape:window-x="0"
     inkscape:cy="86.468977"
     inkscape:cx="74.974999"
     inkscape:zoom="1.9905056"
     showgrid="false"
     id="namedview8"
     inkscape:window-height="846"
     inkscape:window-width="1440"
     inkscape:pageshadow="2"
     inkscape:pageopacity="0"
     guidetolerance="10"
     gridtolerance="10"
     objecttolerance="10"
     borderopacity="1"
     bordercolor="#666666"
     pagecolor="#ffffff" />
  <g
     id="g4"
     fill="black">
    <path
       sodipodi:nodetypes="scsccccccccccssccscccccsccsssssssccccsssscsssscssccsccccccccssscscccccccccccccccsccss"
       d="m 75.439214,25.49331 c 1.194806,3.159461 0.550065,5.949127 0.387162,9.994368 11.95998,-4.02034 16.907475,-4.511 22.803567,1.205986 5.539747,5.371469 5.856317,11.058269 1.077409,18.454544 2.175738,4.134337 6.502668,12.815304 7.518758,17.382334 1.60154,-1.557645 2.29045,-2.515407 3.53736,-3.883529 2.7695,2.235924 8.26703,6.217063 11.03653,8.452987 -12.11954,14.591792 -25.630485,27.97612 -40.115909,40.21376 3.593819,0.2876 7.39504,0.58603 10.462778,0.70386 1.965309,24.03325 -2.69251,54.29758 -13.98832,70.72363 -8.475329,-4.37494 -13.154096,-11.53051 -16.274164,-20.27828 -27.349718,25.5549 -54.824538,-14.02571 -4.646176,-50.97643 -0.03466,-6.51374 0.351173,-11.44056 0.379473,-17.954402 -7.368783,2.091952 -14.940569,3.826402 -22.650807,3.781232 -6.722541,-0.0394 -13.797718,-4.524194 -14.760197,-11.609749 -0.837088,-6.162457 2.353564,-12.870982 5.29439,-16.604399 L 37.100014,82.8 c -0.606617,1.906648 -4.857958,6.373299 -1.689935,6.623226 7.756698,0.61193 15.352387,-2.437117 22.60753,-5.008299 0.411729,-10.116953 0.996878,-20.232769 1.855193,-30.32294 C 51.027983,56.225256 41.551159,56.715477 32.8,53.9 L 37,40.6 c 8.010857,2.46617 16.506992,0.973365 24.325846,-1.464527 0.576995,-4.786169 1.501859,-9.5614 -1.548097,-10.793231 C 57.228128,27.312489 54.321795,27.214187 51.6,27 l 0.7,-14 c 10.561798,1.096431 20.202131,4.726694 23.139214,12.49331 z m 81.424496,9.263516 c 1.65529,2.972032 2.27536,7.771709 0.27343,13.831879 C 151.62252,65.282433 144.36175,77.773092 140.4,95 c -0.96804,4.209343 1.11856,3.557438 4.24771,2.913844 6.0496,-1.244264 13.05797,1.547265 15.40617,7.550916 2.69662,6.89447 1.85227,16.88024 -0.4704,25.23898 -1.37746,4.95715 -2.99451,9.88539 -6.00274,14.14311 13.17536,9.50889 19.95394,23.03459 26.81926,36.45315 -4.3,1.76667 -8.6,3.53333 -12.9,5.3 -6.73574,-12.76404 -11.26968,-22.2288 -22.1234,-30.44641 -3.24844,3.85936 -7.33356,7.08703 -11.53528,9.81966 -8.47298,5.51049 -17.37955,7.11521 -25.64337,5.17229 -13.587508,-3.19458 -17.899767,-19.71703 -3.56608,-30.76622 8.12923,-6.26646 20.41529,-6.6792 29.30669,-4.70633 2.57644,0.57168 5.78239,1.79085 7.77083,1.84102 2.807,-4.34216 4.57849,-9.43543 5.31963,-14.50342 0.80664,-5.51593 1.74614,-11.30762 -2.38662,-10.7679 -6.35577,0.83004 -12.64271,-0.0289 -16.54823,-6.68111 -1.86879,-3.18305 -2.13446,-6.799868 -1.68216,-10.491188 1.44935,-11.828534 6.49532,-22.865769 10.89905,-33.83694 2.06907,-5.207878 4.34606,-10.347537 6.33221,-15.587624 0.94365,-2.489659 1.87132,-4.259221 -0.37771,-5.825726 -3.12519,-2.176774 -8.8685,-2.689384 -11.87444,-3.549199 0.4877,-3.780236 1.05656,-8.760293 1.97701,-14.085788 10.48836,2.148888 19.42478,5.262732 23.49558,12.571711 z M 78.7,147.2 c -1.552436,2.58597 -3.894786,5.01666 -4.98461,7.67642 0.354658,3.55376 0.886466,7.077 1.783729,10.53729 2.335266,-6.28835 3.756594,-12.91795 4.085927,-19.62071 z M 57.761578,135.80577 C 37.649362,150.10368 40.439992,175.91042 59.1,150.3 c -0.452405,-4.17987 -0.777671,-9.86531 -1.338422,-14.49423 z m 62.093112,12.60808 c -3.65174,0.3985 -9.66145,2.31332 -9.71518,6.46032 -0.0594,4.58564 6.38442,3.56565 9.63117,2.41819 4.69666,-1.65988 8.85053,-4.55129 12.60148,-7.78281 -4.27078,-1.23918 -8.18709,-1.56826 -12.51747,-1.0957 z M 71.779274,125.59507 c 0.213297,2.29948 -0.517578,8.39694 1.537595,3.28738 1.273736,-2.44512 2.421506,-4.95995 3.566989,-7.46828 -1.701528,1.39364 -3.403056,2.78727 -5.104584,4.1809 z M 88.1,86.7 71.76774,94.193625 C 71.603282,98.641013 71.574497,103.09023 71.6,107.54019 81.728234,98.944405 91.353017,89.774772 100.53329,80.175601 Z m 0.6,-21.9 c -4.617071,3.243131 -9.325334,6.356134 -14.2,9.2 -1.039562,-1.081398 -1.853359,-1.713073 -1.853359,-1.713073 0,0 -0.08147,4.331805 -0.133414,6.680267 C 78.810079,75.97097 85.174699,72.84834 91.359958,69.205911 90.449106,67.592571 90.01729,66.540867 88.7,64.8 Z M 86.5,47 c -4.437613,0.700731 -8.74305,2.913365 -12.659332,5.035171 -0.12363,2.823349 -0.33939,4.037142 -0.353723,5.739841 C 77.06449,55.443717 82.420193,52.263749 85.98531,48.901109 87.211923,47.744159 88.05647,46.754222 86.5,47 Z"
       id="path2" />
  </g>
</svg>
