<?xml version="1.0" encoding="UTF-8" standalone="no"?>
<svg
   xmlns:dc="http://purl.org/dc/elements/1.1/"
   xmlns:cc="http://creativecommons.org/ns#"
   xmlns:rdf="http://www.w3.org/1999/02/22-rdf-syntax-ns#"
   xmlns:svg="http://www.w3.org/2000/svg"
   xmlns="http://www.w3.org/2000/svg"
   xmlns:sodipodi="http://sodipodi.sourceforge.net/DTD/sodipodi-0.dtd"
   xmlns:inkscape="http://www.inkscape.org/namespaces/inkscape"
   inkscape:version="1.0 (4035a4fb49, 2020-05-01)"
   sodipodi:docname="u1b04d.svg"
   id="svg6"
   height="200"
   width="200"
   viewBox="0 0 200 200"
   version="1.1">
  <metadata
     id="metadata12">
    <rdf:RDF>
      <cc:Work
         rdf:about="">
        <dc:format>image/svg+xml</dc:format>
        <dc:type
           rdf:resource="http://purl.org/dc/dcmitype/StillImage" />
      </cc:Work>
    </rdf:RDF>
  </metadata>
  <defs
     id="defs10" />
  <sodipodi:namedview
     inkscape:current-layer="svg6"
     inkscape:window-maximized="1"
     inkscape:window-y="28"
     inkscape:window-x="0"
     inkscape:cy="111.369"
     inkscape:cx="113.19639"
     inkscape:zoom="1.9905056"
     showgrid="false"
     id="namedview8"
     inkscape:window-height="846"
     inkscape:window-width="1440"
     inkscape:pageshadow="2"
     inkscape:pageopacity="0"
     guidetolerance="10"
     gridtolerance="10"
     objecttolerance="10"
     borderopacity="1"
     bordercolor="#666666"
     pagecolor="#ffffff" />
  <g
     id="g4"
     fill="black">
    <path
       sodipodi:nodetypes="cccccccsssssscccsssssscsccccsccccccccscccccccc"
       d="m 102.11553,42.155964 c -3.083373,0.61911 -11.397608,1.435064 -14.520095,1.773447 -8.079142,13.393706 -12.433284,28.863546 -13.395292,44.435131 8.282975,-6.370892 17.444172,-9.334946 26.555287,-13.186825 -0.881832,-0.952083 -0.836631,-0.925371 -2.371184,-2.119443 2.949174,-3.593916 5.568874,-7.120543 8.276484,-10.612284 3.96199,1.787067 7.59986,5.493575 9.82411,9.154957 11.97166,-0.260207 23.68876,1.781153 32.50278,10.205997 5.71618,5.463794 7.49686,13.644206 6.34113,20.129476 -1.76294,9.89259 -5.46082,17.18517 -7.11039,26.77767 -0.51652,3.00366 0.73251,2.36916 3.00787,2.33159 6.60116,-0.10898 14.01124,-0.0609 19.0681,4.51267 7.57993,6.85555 7.29769,19.76186 0.26027,27.66954 -6.45133,7.24911 -16.56028,9.57993 -25.54619,12.41295 -10.8069,2.93899 -21.78223,5.21584 -32.80841,7.15916 -0.83333,-4.56667 -1.66667,-9.13333 -2.5,-13.7 15.7493,-3.13832 31.87354,-5.76041 46.6,-12.5 5.08959,-2.32926 5.98195,-10.46898 1.4,-10.8 -4.04329,-0.29211 -8.07708,0.28966 -12.1,0 -7.0121,-0.50489 -10.70988,-4.34311 -11.53528,-11.1194 -0.92078,-7.55929 1.92479,-14.87575 3.59736,-22.10622 2.31861,-10.0233 6.08171,-18.223338 -0.88071,-22.270482 -6.14837,-3.573949 -14.39835,-4.408415 -17.51098,-4.566293 -2.73054,15.893925 -8.76611,26.560515 -15.39827,36.416935 -5.933459,8.81804 -13.052595,16.82014 -20.90753,23.9712 1.54337,3.98109 3.369285,7.83661 5.23541,11.67426 l -12.5,6.3 c -1.326647,-2.87075 -2.747548,-5.69881 -3.997521,-8.6043 C 52.724324,172.25373 21.919543,169.3929 25.150538,142.2742 27.657648,121.23129 49.023464,106.41542 59.84014,98.094259 59.731769,79.741939 63.161396,61.113547 71.35,44.6 58.718621,44.445979 45.454541,41.448573 35.9,32.7 l 9.6,-10.2 c 9.107144,7.947395 22.027396,8.452263 33.520845,8.043602 C 82.528248,25.818444 85.854876,22.609319 89.9,18.1 c 11.85651,9.98543 10.90759,20.859349 12.21553,24.055964 z M 60.3,115.7 c -8.122671,7.18827 -19.021346,14.09804 -21.100123,24.73387 -3.838643,19.63999 17.65275,10.32911 27.229903,1.44351 -2.776301,-8.63355 -4.897206,-17.5286 -5.636267,-26.58116 l -0.344619,0.28196 z m 14.2,-10.88684 c -0.1648,9.0299 0.921794,18.11089 3.47367,26.7835 11.080675,-11.38891 22.61188,-25.62882 26.42626,-43.278388 C 96.487722,90.545283 84.622255,96.388209 74.5,104.81316 Z"
       id="path2" />
  </g>
</svg>
