<?xml version="1.0" encoding="UTF-8" standalone="no"?>
<svg
   xmlns:dc="http://purl.org/dc/elements/1.1/"
   xmlns:cc="http://creativecommons.org/ns#"
   xmlns:rdf="http://www.w3.org/1999/02/22-rdf-syntax-ns#"
   xmlns:svg="http://www.w3.org/2000/svg"
   xmlns="http://www.w3.org/2000/svg"
   xmlns:sodipodi="http://sodipodi.sourceforge.net/DTD/sodipodi-0.dtd"
   xmlns:inkscape="http://www.inkscape.org/namespaces/inkscape"
   inkscape:version="1.0 (4035a4fb49, 2020-05-01)"
   sodipodi:docname="u1b047.svg"
   id="svg6"
   height="200"
   width="200"
   viewBox="0 0 200 200"
   version="1.1">
  <metadata
     id="metadata12">
    <rdf:RDF>
      <cc:Work
         rdf:about="">
        <dc:format>image/svg+xml</dc:format>
        <dc:type
           rdf:resource="http://purl.org/dc/dcmitype/StillImage" />
      </cc:Work>
    </rdf:RDF>
  </metadata>
  <defs
     id="defs10" />
  <sodipodi:namedview
     inkscape:current-layer="svg6"
     inkscape:window-maximized="1"
     inkscape:window-y="28"
     inkscape:window-x="0"
     inkscape:cy="99.974475"
     inkscape:cx="127.6708"
     inkscape:zoom="1.9905056"
     showgrid="false"
     id="namedview8"
     inkscape:window-height="846"
     inkscape:window-width="1440"
     inkscape:pageshadow="2"
     inkscape:pageopacity="0"
     guidetolerance="10"
     gridtolerance="10"
     objecttolerance="10"
     borderopacity="1"
     bordercolor="#666666"
     pagecolor="#ffffff" />
  <g
     id="g4"
     fill="black">
    <path
       sodipodi:nodetypes="ssccccssssscccssscsccccssssssccsssssccccccc"
       d="m 162.39647,54.13001 c 18.1071,12.88484 12.10049,37.427914 -0.065,47.81217 -10.41003,8.88584 -23.93644,12.8409 -36.87537,16.61879 -3.89116,0.48128 -2.29829,1.16187 0.60997,1.70559 3.78169,0.76975 7.60284,1.28381 11.43392,1.73344 -0.4287,4.62579 -0.63291,9.57023 -1.2,14 -10.73167,0.7272 -22.03249,1.81522 -31.41185,7.52359 -1.82952,1.11346 -3.30054,2.7835 -4.66187,4.46199 -2.079109,2.56349 -0.11018,5.43713 3.3018,6.27864 2.32995,0.57465 4.86555,0.86245 7.17192,0.93578 6.65189,0.21148 13.2322,-0.84744 19.75315,-2.11534 5.23938,-1.01872 10.35748,-2.6238 15.54686,-3.88466 l 3.9,13.5 c -8.37555,2.14175 -16.71466,4.46061 -25.32144,5.47841 -9.71903,1.0537 -20.32453,1.66176 -28.721688,-1.99144 -12.213385,-5.31345 -13.160438,-18.1967 -7.815589,-25.57021 2.681811,-3.69971 5.603687,-6.54115 9.520568,-8.97154 C 100.413,129.87611 103.91414,128.29256 106.7,127.1 102.77992,123.98954 99.727105,119.86297 98.31396,115.02621 97.240651,111.3526 97.389833,107.46588 97.9,103.7 c 4.6,0.83333 9.2,1.66667 13.8,2.5 -0.95091,3.6863 0.35082,7.80394 3.71207,9.79204 L 113.4,107.1 c 13.19384,-3.14766 26.88009,-6.47001 38.07612,-14.391675 10.39666,-7.356074 11.51753,-22.917273 1.33467,-28.097825 -7.20666,-3.666407 -15.95569,-3.488738 -23.75453,-2.6428 -13.08621,1.419459 -25.76519,5.66011 -36.404472,13.466049 -4.139401,3.037038 -8.582234,6.248759 -13.36189,7.167035 C 72.07366,83.987179 65.625604,79.203851 62.50777,72.638598 60.937725,69.332539 59.966867,65.769664 59.2,62.2 L 73,59.7 c 0.634247,2.634247 1.191237,5.553476 2.709312,7.841292 1.493925,2.251421 3.366479,0.254706 5.087897,-0.966202 7.437741,-5.275185 15.995024,-10.218739 24.603201,-13.396573 8.30478,-3.065831 16.21449,-4.243888 25.01473,-5.085795 10.69592,-1.023264 23.93078,0.308596 31.98133,6.037288 z M 49.7,66.2 c -2.884243,16.199759 -3.639016,32.988384 -0.06846,49.14302 2.28304,9.07619 5.945975,17.81052 11.068461,25.65698 -3.833333,2.63333 -7.666667,5.26667 -11.5,7.9 C 41.773743,137.8177 36.898632,125.11422 34.777201,111.95531 32.091491,95.97272 33.229828,79.607841 35.9,63.7 Z"
       id="path2" />
  </g>
</svg>
