<?xml version="1.0" encoding="UTF-8" standalone="no"?>
<svg
   xmlns:dc="http://purl.org/dc/elements/1.1/"
   xmlns:cc="http://creativecommons.org/ns#"
   xmlns:rdf="http://www.w3.org/1999/02/22-rdf-syntax-ns#"
   xmlns:svg="http://www.w3.org/2000/svg"
   xmlns="http://www.w3.org/2000/svg"
   xmlns:sodipodi="http://sodipodi.sourceforge.net/DTD/sodipodi-0.dtd"
   xmlns:inkscape="http://www.inkscape.org/namespaces/inkscape"
   inkscape:version="1.0 (4035a4fb49, 2020-05-01)"
   sodipodi:docname="u1b04f.svg"
   id="svg6"
   height="200"
   width="200"
   viewBox="0 0 200 200"
   version="1.1">
  <metadata
     id="metadata12">
    <rdf:RDF>
      <cc:Work
         rdf:about="">
        <dc:format>image/svg+xml</dc:format>
        <dc:type
           rdf:resource="http://purl.org/dc/dcmitype/StillImage" />
      </cc:Work>
    </rdf:RDF>
  </metadata>
  <defs
     id="defs10" />
  <sodipodi:namedview
     inkscape:current-layer="svg6"
     inkscape:window-maximized="1"
     inkscape:window-y="28"
     inkscape:window-x="0"
     inkscape:cy="86.092413"
     inkscape:cx="107.97335"
     inkscape:zoom="2.815"
     showgrid="false"
     id="namedview8"
     inkscape:window-height="846"
     inkscape:window-width="1440"
     inkscape:pageshadow="2"
     inkscape:pageopacity="0"
     guidetolerance="10"
     gridtolerance="10"
     objecttolerance="10"
     borderopacity="1"
     bordercolor="#666666"
     pagecolor="#ffffff" />
  <g
     id="g4"
     fill="black">
    <path
       sodipodi:nodetypes="cccsssccssscssccsscccsccccccccccccccssccss"
       d="m 164.99297,87.22964 c 1.42678,4.171867 2.50585,9.042442 3.80703,13.47036 -11.2437,3.16678 -22.55169,6.45258 -33.48534,10.44358 -12.60587,10.64615 -25.82253,20.96207 -35.601803,34.23142 -2.900254,3.93531 -6.048087,10.06467 -2.110938,14.47366 5.563991,6.2308 14.744681,7.90996 22.798081,9.45134 8.53545,1.63364 17.23882,2.12018 25.9,2.7 -0.23333,4.63333 -0.46667,9.26667 -0.7,13.9 -16.12111,-0.93882 -32.83966,-1.9038 -47.682702,-8.71721 -6.47745,-2.97335 -12.240775,-7.90606 -14.796421,-14.91477 -3.352381,-9.19371 0.695979,-19.05948 6.227198,-26.45663 3.458506,-4.62522 7.481768,-8.77041 11.527715,-12.87919 -15.906898,3.19075 -30.449844,15.62215 -45.507678,12.59326 C 47.797394,134.00261 40.440455,130.15567 36.653951,123.3138 32.625418,116.0346 32.257333,107.43353 32.9,99.3 c 4.633333,0.433333 9.266667,0.86667 13.9,1.3 -0.267978,6.56678 -0.971659,15.15622 5.189807,19.20418 4.327772,2.84326 9.946438,2.48277 14.814903,0.54411 20.331604,-8.09619 41.15243,-14.90935 61.88127,-21.927729 C 137.85753,90.871266 147.27021,83.622177 156.7,76.4 c 2.76432,3.60988 5.52864,7.21976 8.29297,10.82964 z M 114.60785,31.171588 c 0.38981,3.149721 0.69637,6.364752 0.84753,9.503676 C 127.04466,39.525861 138.62324,38.269386 150.2,37 l 1.5,13.9 c -11.85125,1.300255 -23.70522,2.581871 -35.57219,3.729899 C 116.33871,69.260734 116.14771,83.913938 114.9,98.5 L 101,97.4 C 99.141646,89.297643 93.095017,81.825182 84.803559,79.578292 77.417509,77.214633 69.559773,77.847213 62,78.9 L 59.9,65 c 15.428739,-2.027317 31.062377,-1.477202 42.11755,8.22503 0.0466,-4.392207 0.20034,-12.999311 0.12204,-17.391184 C 87.451708,56.966077 72.736138,57.904056 58,58 V 44 c 14.536774,-0.07673 29.042461,-1.126187 43.53598,-2.156335 -0.0835,-1.521132 -0.17058,-2.906083 -0.34192,-4.556841 -0.40257,-3.87857 -0.51159,-5.539495 -3.827865,-6.980005 C 92.911855,28.37196 88.009745,27.532841 83.2,27 l 1.5,-13.9 c 8.622903,1.313003 17.42696,3.02198 24.09728,7.595413 3.79718,2.603496 5.34803,6.738785 5.81057,10.476175 z"
       id="path2" />
  </g>
</svg>
