<?xml version="1.0" encoding="UTF-8" standalone="no"?>
<svg
   xmlns:dc="http://purl.org/dc/elements/1.1/"
   xmlns:cc="http://creativecommons.org/ns#"
   xmlns:rdf="http://www.w3.org/1999/02/22-rdf-syntax-ns#"
   xmlns:svg="http://www.w3.org/2000/svg"
   xmlns="http://www.w3.org/2000/svg"
   xmlns:sodipodi="http://sodipodi.sourceforge.net/DTD/sodipodi-0.dtd"
   xmlns:inkscape="http://www.inkscape.org/namespaces/inkscape"
   inkscape:version="1.0 (4035a4fb49, 2020-05-01)"
   sodipodi:docname="u1b043.svg"
   id="svg6"
   height="200"
   width="200"
   viewBox="0 0 200 200"
   version="1.1">
  <metadata
     id="metadata12">
    <rdf:RDF>
      <cc:Work
         rdf:about="">
        <dc:format>image/svg+xml</dc:format>
        <dc:type
           rdf:resource="http://purl.org/dc/dcmitype/StillImage" />
      </cc:Work>
    </rdf:RDF>
  </metadata>
  <defs
     id="defs10" />
  <sodipodi:namedview
     inkscape:current-layer="svg6"
     inkscape:window-maximized="1"
     inkscape:window-y="28"
     inkscape:window-x="0"
     inkscape:cy="101.10599"
     inkscape:cx="97.230572"
     inkscape:zoom="1.4075"
     showgrid="false"
     id="namedview8"
     inkscape:window-height="846"
     inkscape:window-width="1440"
     inkscape:pageshadow="2"
     inkscape:pageopacity="0"
     guidetolerance="10"
     gridtolerance="10"
     objecttolerance="10"
     borderopacity="1"
     bordercolor="#666666"
     pagecolor="#ffffff" />
  <g
     id="g4"
     fill="black">
    <path
       sodipodi:nodetypes="scsscsccscssccccscssccasssccccccscssccscccc"
       d="m 133.93153,41.457389 c 0.0434,4.072946 -0.0924,5.689089 -0.26009,10.455831 5.00205,-1.015977 11.98373,-1.143946 17.07019,-0.125966 14.91691,2.985402 21.545,16.323982 21.18181,30.862459 -0.41959,16.796297 -7.38561,33.135597 -15.79288,46.764517 -7.14681,11.4857 -16.01436,21.84328 -25.89717,31.04406 C 119.28752,170.64876 107.0818,179.3496 94.5,187.4 c -2.466667,-3.96667 -4.933333,-7.93333 -7.4,-11.9 13.01854,-8.28313 25.59517,-17.38448 36.64032,-28.1911 10.31226,-10.08955 19.31971,-21.66138 25.64209,-34.67507 5.27375,-10.57218 9.9187,-22.160663 9.46331,-33.938064 -0.38989,-10.083239 -7.79451,-14.791536 -19.88062,-13.511929 -2.50696,0.265422 -5.57854,1.367441 -5.57854,1.367441 C 133.24547,82.251452 132.9094,100.29848 133,116 h -14 c -8.83491,-9.08442 -31.305172,-17.146677 -40.7,-20.4 3.637118,-9.936643 9.476881,-19.03298 17.297759,-26.197759 6.881221,-6.303952 15.314501,-10.653893 24.038231,-13.82552 0.18265,-3.926104 0.38661,-5.784448 0.384,-8.843745 -0.003,-3.430731 -0.0178,-5.540671 -1.83236,-8.099364 C 114.96421,34.088421 111.04368,29.819269 105.7,27.9 c 1.46667,-4.433333 2.93333,-8.866667 4.4,-13.3 8.92162,3.625802 15.47225,9.485441 20.47204,16.747133 2.01391,2.925005 3.31621,6.047665 3.35949,10.110256 z m -75.853846,0.879827 c -0.03973,3.617606 -0.573303,7.144983 -1.111724,10.153468 -4.587899,25.635394 -8.745946,51.558976 -8.478974,77.680536 -0.11143,3.34198 1.646168,-3.34453 2.413423,-4.4953 C 54.133159,117.96269 57.505853,110.30483 61.2,102.8 c 4.2,2.03333 8.4,4.06667 12.6,6.1 -9.274105,18.79004 -18.440222,40.62012 -18.822226,54.47853 -3.116811,2.65075 -7.260963,5.47072 -10.377774,8.12147 -2.91625,-4.03384 -5.269704,-8.34955 -6.64205,-13.15248 -4.430031,-15.5042 -3.750868,-31.8849 -2.882955,-47.83016 1.511063,-21.681924 4.907317,-43.169701 8.845654,-64.528471 0.345683,-1.874741 0.589193,-3.443662 -0.133063,-4.641038 C 42.534736,39.270841 39.690871,38.613562 37.4,38 l 3.1,-13.6 c 9.501691,2.348545 17.669614,9.56635 17.577684,17.937216 z m 39.596032,45.711866 c 7.316394,2.992419 14.459194,6.401947 21.370404,10.238991 0.14011,-9.175516 0.24516,-18.351528 0.34327,-27.527578 -9.32417,3.565848 -17.0382,10.730923 -21.713674,17.288587 z"
       id="path2" />
  </g>
</svg>
