<?xml version="1.0" encoding="UTF-8" standalone="no"?>
<svg
   xmlns:dc="http://purl.org/dc/elements/1.1/"
   xmlns:cc="http://creativecommons.org/ns#"
   xmlns:rdf="http://www.w3.org/1999/02/22-rdf-syntax-ns#"
   xmlns:svg="http://www.w3.org/2000/svg"
   xmlns="http://www.w3.org/2000/svg"
   xmlns:sodipodi="http://sodipodi.sourceforge.net/DTD/sodipodi-0.dtd"
   xmlns:inkscape="http://www.inkscape.org/namespaces/inkscape"
   inkscape:version="1.0 (4035a4fb49, 2020-05-01)"
   sodipodi:docname="u1b046.svg"
   id="svg6"
   height="200"
   width="200"
   viewBox="0 0 200 200"
   version="1.1">
  <metadata
     id="metadata12">
    <rdf:RDF>
      <cc:Work
         rdf:about="">
        <dc:format>image/svg+xml</dc:format>
        <dc:type
           rdf:resource="http://purl.org/dc/dcmitype/StillImage" />
      </cc:Work>
    </rdf:RDF>
  </metadata>
  <defs
     id="defs10" />
  <sodipodi:namedview
     inkscape:current-layer="svg6"
     inkscape:window-maximized="1"
     inkscape:window-y="28"
     inkscape:window-x="0"
     inkscape:cy="82.881059"
     inkscape:cx="199.566"
     inkscape:zoom="1.4075"
     showgrid="false"
     id="namedview8"
     inkscape:window-height="846"
     inkscape:window-width="1440"
     inkscape:pageshadow="2"
     inkscape:pageopacity="0"
     guidetolerance="10"
     gridtolerance="10"
     objecttolerance="10"
     borderopacity="1"
     bordercolor="#666666"
     pagecolor="#ffffff" />
  <g
     id="g4"
     fill="black">
    <path
       sodipodi:nodetypes="sccssssscssccscsssscsssscccssscss"
       d="M 94.669312,23.257209 C 100.08052,23.420481 105.01218,23.355917 110.4,23 c 0.34233,4.571929 0.79289,9.679062 1.1,13.9 -5.1524,5.115372 -9.82389,11.231386 -13.768825,16.666468 -1.087873,1.4988 -0.717473,2.006714 1.102446,2.002809 9.656589,-0.02072 19.384539,1.082581 28.514739,4.299431 5.69409,2.006201 11.14952,4.874809 15.58491,9.011732 9.8791,9.214311 11.11874,21.392655 8.17678,34.09903 -4.74674,20.50123 -21.81371,35.164 -41.47253,38.03303 -0.2398,4.37963 -0.79971,8.1908 -1.50263,12.37039 -2.00814,11.94053 -9.543494,22.55502 -19.781926,29.0162 -4.755219,3.00088 -9.918507,5.22545 -15.152944,7.20091 -1.5,-4.43333 -3,-8.86667 -4.5,-13.3 10.197938,-3.33801 20.49516,-9.75427 24.269733,-20.40616 1.625211,-4.58637 2.208459,-7.46927 2.38984,-12.83159 -6.04317,0.11921 -16.347154,-0.0357 -21.048698,-1.45351 -37.13666,-11.19942 -7.147101,-56.776737 17.311683,-59.180495 5.205252,-0.511561 10.577202,0.393798 13.832942,5.520476 3.73071,5.874597 3.81767,12.012535 4.33078,19.287779 0.43141,6.11684 0.44656,13.01582 0.48519,19.43257 13.96924,-4.30518 21.71639,-9.99334 26.25101,-22.97252 3.81022,-10.905772 2.9793,-21.637361 -7.16786,-27.539824 C 119.15064,70.221197 105.39224,70.013249 95.2611,69.62364 86.808918,69.298598 79.413076,65.766692 80.965836,56.775803 81.944622,51.108375 87.731744,43.027088 92.573347,37.470883 81.403106,35.690859 68.583564,30.326695 66.711035,20.21843 L 80,17.6 c 2.134197,4.930345 10.679278,5.536817 14.669312,5.657209 z m -3.333846,74.334934 c -6.738182,0.723673 -30.751562,26.191387 -11.624546,30.538327 5.32657,1.21055 11.054398,0.89391 16.504374,0.55778 0.104665,-9.40888 -0.119981,-20.90301 -1.196924,-28.00806 -0.355237,-2.343649 -0.855349,-3.391723 -3.682904,-3.088047 z"
       id="path2" />
  </g>
</svg>
