<?xml version="1.0" encoding="UTF-8" standalone="no"?>
<svg
   xmlns:dc="http://purl.org/dc/elements/1.1/"
   xmlns:cc="http://creativecommons.org/ns#"
   xmlns:rdf="http://www.w3.org/1999/02/22-rdf-syntax-ns#"
   xmlns:svg="http://www.w3.org/2000/svg"
   xmlns="http://www.w3.org/2000/svg"
   xmlns:sodipodi="http://sodipodi.sourceforge.net/DTD/sodipodi-0.dtd"
   xmlns:inkscape="http://www.inkscape.org/namespaces/inkscape"
   inkscape:version="1.0 (4035a4fb49, 2020-05-01)"
   sodipodi:docname="u1b048.svg"
   id="svg6"
   height="200"
   width="200"
   viewBox="0 0 200 200"
   version="1.1">
  <metadata
     id="metadata12">
    <rdf:RDF>
      <cc:Work
         rdf:about="">
        <dc:format>image/svg+xml</dc:format>
        <dc:type
           rdf:resource="http://purl.org/dc/dcmitype/StillImage" />
      </cc:Work>
    </rdf:RDF>
  </metadata>
  <defs
     id="defs10" />
  <sodipodi:namedview
     inkscape:current-layer="svg6"
     inkscape:window-maximized="1"
     inkscape:window-y="28"
     inkscape:window-x="0"
     inkscape:cy="135.18872"
     inkscape:cx="58.794711"
     inkscape:zoom="1.4075"
     showgrid="false"
     id="namedview8"
     inkscape:window-height="846"
     inkscape:window-width="1440"
     inkscape:pageshadow="2"
     inkscape:pageopacity="0"
     guidetolerance="10"
     gridtolerance="10"
     objecttolerance="10"
     borderopacity="1"
     bordercolor="#666666"
     pagecolor="#ffffff" />
  <g
     id="g4"
     fill="black">
    <path
       sodipodi:nodetypes="sccccsscccccssccssccsccccssccccssccss"
       d="m 106.72674,43.082228 c -0.90442,4.797553 -2.05426,8.498408 -3.51329,13.766091 C 113.55857,55.762413 123.72693,53.216871 133.4,49.4 l 5.1,13.1 c -13.10369,4.905902 -26.89492,8.237272 -40.916714,8.709632 -3.394851,7.493412 -7.143772,14.887652 -11.878756,21.614559 -2.201799,3.128057 0.457111,2.675008 2.815749,2.659577 13.202071,-0.08637 26.610131,-1.586535 39.469091,1.751226 1.25115,5.516646 2.14331,10.276176 2.7761,13.491256 -15.62488,3.73414 -30.33111,12.45672 -43.544748,21.34211 -5.770075,4.00618 -11.388371,8.2167 -16.901141,12.56928 10.465832,-1.99815 21.999637,1.55802 30.143019,8.65117 8.07139,-9.26962 17.68755,-18.71453 30.20898,-20.95337 6.86478,-1.22743 13.97605,0.98974 19.50326,5.09735 11.56134,8.59194 19.69317,20.78253 26.82516,33.06721 -4.03333,2.3 -8.06667,4.6 -12.1,6.9 -6.6262,-10.94561 -13.6044,-22.4815 -24.6,-29.6 -2.78537,-1.80323 -6.16788,-2.2941 -9.48077,-1.11978 -8.55293,3.03176 -15.05391,11.58736 -20.89924,18.186 -4.63438,3.15713 -6.54147,4.89605 -10.010722,7.72122 C 94.056343,165.26008 83.207822,156.47258 73.366667,158.36667 58.170566,161.2914 44.431775,169.34313 32.2,178.6 c -2.734874,-3.78515 -5.967159,-7.68235 -8.4,-11.4 20.507006,-19.47993 41.741617,-38.48108 65.876363,-53.4016 2.469396,-1.62861 5.117145,-2.95927 7.675739,-4.43887 -7.364989,-0.0208 -11.112703,1.20457 -18.823003,-0.4377 C 72.33696,107.60292 67.325926,101.005 69.521466,94.576809 72.616224,85.515854 80.128693,78.798327 82.258528,70.781561 72.637624,69.336118 60.319839,65.45601 52,60.4 l 7.6,-11.8 c 8.678988,5.185109 18.614092,8.105296 28.708022,8.533761 1.637025,-4.277573 2.911429,-8.68381 3.934532,-13.146752 0.719102,-3.136839 1.697903,-4.957055 -1.219286,-6.249911 C 88.688278,36.702264 85.919466,36.735331 83.4,36.9 l -0.9,-14 c 7.950021,-0.488976 17.062575,0.818014 22.15403,6.535531 3.10882,3.491087 2.99359,8.761831 2.07271,13.646697 z"
       id="path2" />
  </g>
</svg>
