<?xml version="1.0" encoding="UTF-8" standalone="no"?>
<svg
   xmlns:dc="http://purl.org/dc/elements/1.1/"
   xmlns:cc="http://creativecommons.org/ns#"
   xmlns:rdf="http://www.w3.org/1999/02/22-rdf-syntax-ns#"
   xmlns:svg="http://www.w3.org/2000/svg"
   xmlns="http://www.w3.org/2000/svg"
   xmlns:sodipodi="http://sodipodi.sourceforge.net/DTD/sodipodi-0.dtd"
   xmlns:inkscape="http://www.inkscape.org/namespaces/inkscape"
   inkscape:version="1.0 (4035a4fb49, 2020-05-01)"
   sodipodi:docname="u1b041.svg"
   id="svg6"
   height="200"
   width="200"
   viewBox="0 0 200 200"
   version="1.1">
  <metadata
     id="metadata12">
    <rdf:RDF>
      <cc:Work
         rdf:about="">
        <dc:format>image/svg+xml</dc:format>
        <dc:type
           rdf:resource="http://purl.org/dc/dcmitype/StillImage" />
      </cc:Work>
    </rdf:RDF>
  </metadata>
  <defs
     id="defs10" />
  <sodipodi:namedview
     inkscape:current-layer="svg6"
     inkscape:window-maximized="1"
     inkscape:window-y="28"
     inkscape:window-x="0"
     inkscape:cy="132.59622"
     inkscape:cx="88.769031"
     inkscape:zoom="3.9810112"
     showgrid="false"
     id="namedview8"
     inkscape:window-height="846"
     inkscape:window-width="1440"
     inkscape:pageshadow="2"
     inkscape:pageopacity="0"
     guidetolerance="10"
     gridtolerance="10"
     objecttolerance="10"
     borderopacity="1"
     bordercolor="#666666"
     pagecolor="#ffffff" />
  <g
     id="g4"
     fill="black">
    <path
       sodipodi:nodetypes="ccccccsscccccsscscssssccccccccssscssssscsccccc"
       d="m 109.9,24.2 c -0.4989,9.224525 -1.67096,18.415743 -3.89045,27.389632 C 113.1978,49.223434 120.20433,46.376086 127.2,43.5 c 1.83333,4.3 3.66667,8.6 5.5,12.9 -10.18856,4.275436 -20.54515,8.160485 -31.1546,11.264444 -1.52162,5.112313 -3.363843,10.113812 -5.2654,15.094801 21.15482,-4.443919 34.76951,-0.853374 45.26209,10.543368 6.03919,6.559592 7.24188,18.794447 7.03581,26.618047 -0.22492,8.5392 -1.17738,14.79529 -3.62233,21.86997 12.1948,6.47189 20.9802,16.50917 29.54443,25.80937 l -11.1,8.7 c -8.56748,-8.29167 -15.01171,-17.74928 -25.10585,-22.28679 -3.13739,4.35182 -6.8613,8.12984 -11.13467,11.37035 -11.11361,8.47893 -24.17479,11.0614 -36.520011,7.09531 -14.429145,-4.63559 -18.277163,-20.75564 -5.982774,-31.87619 11.128708,-10.06617 34.768695,-10.09903 47.597465,-5.22311 2.7868,-7.5346 3.39344,-18.77393 1.29727,-26.69957 C 128.95506,91.301048 103.69694,93.205172 89.938838,98.453915 79.691907,121.22277 66.966781,145.70326 52.062521,165.72521 c -7.709972,10.35736 -19.89637,8.49361 -22.947676,-4.60152 -2.161431,-9.2761 -0.868961,-19.13439 1.772376,-28.23614 5.122019,-17.64989 16.982504,-32.68089 33.296225,-40.699672 5.027126,-2.471013 10.26521,-4.592212 15.699541,-5.980896 C 81.933057,81.520349 83.698117,76.46675 85.4,71.8 70.383384,74.579736 54.761827,75.80749 39.787463,72.114647 36.123701,71.499146 32.730847,69.898727 29.2,68.8 l 5.4,-12.9 c 18.024058,6.055263 40.692481,5.362791 56.068514,0.113967 C 93.404044,46.220433 95.35355,33.841347 96,23.7 Z m -8,122.7 c -4.295293,0.97002 -10.535205,3.0397 -10.683096,7.9226 -0.124853,4.12226 5.834621,5.88332 9.504886,5.64616 10.86804,-0.70225 18.69316,-5.6826 24.54051,-12.28283 C 118.17014,146.28214 108.87423,145.32498 101.9,146.9 Z M 66,107.1 c -7.066048,4.38059 -12.82461,10.6247 -16.8,18 -4.721386,8.75931 -7.614705,18.97146 -6.944022,28.98456 0.202421,3.02209 1.143686,1.92113 2.717109,-0.70212 C 54.624088,137.29208 63.847238,120.91776 71.893761,103.963 69.929174,105.00867 67.891536,105.92735 66,107.1 Z M 69.1,40.7 62.8,53.2 C 52.591646,48.425082 46.282717,37.7825 45.1,26.8 L 59,25.1 c 1.097969,6.594177 5.17762,13.133517 10.1,15.6 z"
       id="path2" />
  </g>
</svg>
