<?xml version="1.0" encoding="UTF-8" standalone="no"?>
<svg
   xmlns:dc="http://purl.org/dc/elements/1.1/"
   xmlns:cc="http://creativecommons.org/ns#"
   xmlns:rdf="http://www.w3.org/1999/02/22-rdf-syntax-ns#"
   xmlns:svg="http://www.w3.org/2000/svg"
   xmlns="http://www.w3.org/2000/svg"
   xmlns:sodipodi="http://sodipodi.sourceforge.net/DTD/sodipodi-0.dtd"
   xmlns:inkscape="http://www.inkscape.org/namespaces/inkscape"
   inkscape:version="1.0 (4035a4fb49, 2020-05-01)"
   sodipodi:docname="u1b04b.svg"
   id="svg6"
   height="200"
   width="200"
   viewBox="0 0 200 200"
   version="1.1">
  <metadata
     id="metadata12">
    <rdf:RDF>
      <cc:Work
         rdf:about="">
        <dc:format>image/svg+xml</dc:format>
        <dc:type
           rdf:resource="http://purl.org/dc/dcmitype/StillImage" />
      </cc:Work>
    </rdf:RDF>
  </metadata>
  <defs
     id="defs10" />
  <sodipodi:namedview
     inkscape:current-layer="svg6"
     inkscape:window-maximized="1"
     inkscape:window-y="28"
     inkscape:window-x="0"
     inkscape:cy="70.825599"
     inkscape:cx="77.263631"
     inkscape:zoom="1.9905056"
     showgrid="false"
     id="namedview8"
     inkscape:window-height="846"
     inkscape:window-width="1440"
     inkscape:pageshadow="2"
     inkscape:pageopacity="0"
     guidetolerance="10"
     gridtolerance="10"
     objecttolerance="10"
     borderopacity="1"
     bordercolor="#666666"
     pagecolor="#ffffff" />
  <g
     id="g4"
     fill="black">
    <path
       sodipodi:nodetypes="cccccsscccccccccasccsacssscccccssccccccccsscscccscccccc"
       d="M 104,33.815217 C 109.69154,32.105431 114.92134,29.133624 119.6,25.5 l 8.7,10.9 c -7.14556,5.615377 -15.39157,9.905316 -24.3,11.851613 -0.0134,0.294746 0.002,0.976987 0.0186,1.335807 6.24548,-1.179368 15.56192,-0.179958 19.54362,2.690488 6.58557,4.747599 6.63427,11.84049 3.13778,18.722092 -4.59877,9.051044 -15.10239,15.246658 -22.7,20.796117 0.0626,2.400627 0.0478,3.167451 0.0441,5.421629 C 100.47916,99.36852 95.464977,102.44923 91.9,104.6 c -1.214332,-1.36017 -2.016168,-2.12011 -3.013844,-3.19375 l -9.081261,7.21753 C 105.28482,101.42533 133.96386,96.338989 159,95 c -0.048,4.639197 -0.0148,9.27577 0.4,13.9 -6.27674,0.0411 -11.37516,4.68625 -16.13604,8.38318 -2.21847,1.78853 -4.40241,3.64275 -6.49442,5.56436 7.96264,2.87738 14.26896,11.60016 13.41744,19.42284 -1.6642,15.2886 -23.68868,26.88497 -33.77608,31.42886 C 105.57027,178.58242 94.053517,181.77574 82.5,184.5 l -3.1,-13.6 c 16.15873,-4.00725 31.25798,-8.62002 46.10984,-17.73135 4.27124,-2.62032 10.3883,-6.69061 9.52856,-11.62726 -0.77565,-4.45384 -7.82362,-6.72477 -11.63677,-6.96637 -10.76043,10.27813 -16.78987,16.54655 -29.676032,22.48099 -24.637512,11.34626 -36.461342,-11.24416 -17.313719,-25.1595 10.499759,-7.63059 23.533324,-10.63148 36.278111,-11.32375 2.66526,-0.14477 3.19159,-0.10314 5.036,-0.012 2.41593,-2.1612 7.41004,-6.08429 9.83953,-8.23025 C 99.252993,117.34365 70.987857,123.86082 44.6,131.8 43.346609,127.08612 42.458282,121.96613 41,117.5 53.25509,109.41503 65.506598,101.32466 77.723492,93.182032 72.172413,88.407737 64.428693,84.689552 63.856886,76.863446 c -0.511458,-7.000143 4.426869,-12.66241 10.992882,-16.691747 3.418719,-2.097951 9.071348,-4.649614 15.295207,-7.166344 0.01615,-1.176481 0.08149,-1.843809 0.05689,-3.391509 C 82.127997,49.504527 73.976788,47.603281 66.4,44.9 l 4.9,-13.2 c 5.999722,2.187422 12.274759,3.9097 18.7,3.95 V 17 h 14 z M 82.542803,142.97515 c -2.925144,2.4946 -0.794733,5.22664 7.057916,1.6048 6.561639,-3.02639 9.498912,-7.08079 13.204881,-10.32369 -6.303702,1.19956 -15.712938,4.83873 -20.262797,8.71889 z m -3.20045,-66.014388 c 0.917545,2.370433 9.605587,8.209173 11.002094,5.833289 l -0.04344,-14.700825 c -5.926599,2.55145 -12.212218,5.629006 -10.958651,8.867536 z M 103.81499,63.408678 c -0.0374,2.894505 0.14094,5.940677 0.0727,10.632182 3.92241,-1.81964 14.21105,-9.325323 7.86281,-11.258122 -2.5625,-0.643176 -4.86574,-0.283414 -7.9355,0.62594 z"
       id="path2" />
  </g>
</svg>
