<?xml version="1.0" encoding="UTF-8" standalone="no"?>
<svg
   xmlns:dc="http://purl.org/dc/elements/1.1/"
   xmlns:cc="http://creativecommons.org/ns#"
   xmlns:rdf="http://www.w3.org/1999/02/22-rdf-syntax-ns#"
   xmlns:svg="http://www.w3.org/2000/svg"
   xmlns="http://www.w3.org/2000/svg"
   xmlns:sodipodi="http://sodipodi.sourceforge.net/DTD/sodipodi-0.dtd"
   xmlns:inkscape="http://www.inkscape.org/namespaces/inkscape"
   inkscape:version="1.0 (4035a4fb49, 2020-05-01)"
   sodipodi:docname="u1b044.svg"
   id="svg6"
   height="200"
   width="200"
   viewBox="0 0 200 200"
   version="1.1">
  <metadata
     id="metadata12">
    <rdf:RDF>
      <cc:Work
         rdf:about="">
        <dc:format>image/svg+xml</dc:format>
        <dc:type
           rdf:resource="http://purl.org/dc/dcmitype/StillImage" />
      </cc:Work>
    </rdf:RDF>
  </metadata>
  <defs
     id="defs10" />
  <sodipodi:namedview
     inkscape:current-layer="svg6"
     inkscape:window-maximized="1"
     inkscape:window-y="28"
     inkscape:window-x="0"
     inkscape:cy="111.23073"
     inkscape:cx="124.05321"
     inkscape:zoom="1.4075"
     showgrid="false"
     id="namedview8"
     inkscape:window-height="846"
     inkscape:window-width="1440"
     inkscape:pageshadow="2"
     inkscape:pageopacity="0"
     guidetolerance="10"
     gridtolerance="10"
     objecttolerance="10"
     borderopacity="1"
     bordercolor="#666666"
     pagecolor="#ffffff" />
  <g
     id="g4"
     fill="black">
    <path
       sodipodi:nodetypes="cccsscccccccccccc"
       d="M 97.072093,31.974404 C 97.655388,36.513153 98.257708,41.135048 98.9,45.9 86.580373,47.37016 76.450195,56.10676 70.181395,66.4 c 14.565062,0.02764 33.121885,-2.555848 47.013255,-4.775495 9.81006,-1.56751 14.12314,5.991077 11.8452,11.305352 C 123.50619,85.839507 81.54277,118.12893 62.794385,129.36337 96.353705,140.5845 140.49864,149.27964 163.2,173.4 c -3.5,3.03333 -7,6.06667 -10.5,9.1 C 120.57287,156.78483 76.125024,147.10208 40.2,138 c 1.055856,-4.56103 2.459723,-9.16647 3.3,-13.7 24.593195,-13.40002 47.525945,-30.005189 68,-49 -20.388831,3.83828 -38.876619,6.093521 -58,4.6 L 54.4,66 C 59.279196,55.97973 67.675399,45.988603 75.451957,40.498577 68.853809,36.814502 63.042939,31.912013 57.7,26.6 l 9.9,-9.9 c 7.822356,7.395095 20.377572,14.82559 29.472093,15.274404 z"
       id="path2" />
  </g>
</svg>
