<?xml version="1.0" encoding="UTF-8" standalone="no"?>
<svg
   xmlns:dc="http://purl.org/dc/elements/1.1/"
   xmlns:cc="http://creativecommons.org/ns#"
   xmlns:rdf="http://www.w3.org/1999/02/22-rdf-syntax-ns#"
   xmlns:svg="http://www.w3.org/2000/svg"
   xmlns="http://www.w3.org/2000/svg"
   xmlns:sodipodi="http://sodipodi.sourceforge.net/DTD/sodipodi-0.dtd"
   xmlns:inkscape="http://www.inkscape.org/namespaces/inkscape"
   inkscape:version="1.0 (4035a4fb49, 2020-05-01)"
   sodipodi:docname="u1b04e.svg"
   id="svg6"
   height="200"
   width="200"
   viewBox="0 0 200 200"
   version="1.1">
  <metadata
     id="metadata12">
    <rdf:RDF>
      <cc:Work
         rdf:about="">
        <dc:format>image/svg+xml</dc:format>
        <dc:type
           rdf:resource="http://purl.org/dc/dcmitype/StillImage" />
      </cc:Work>
    </rdf:RDF>
  </metadata>
  <defs
     id="defs10" />
  <sodipodi:namedview
     inkscape:current-layer="svg6"
     inkscape:window-maximized="1"
     inkscape:window-y="28"
     inkscape:window-x="0"
     inkscape:cy="101.71172"
     inkscape:cx="95.180461"
     inkscape:zoom="1.9905056"
     showgrid="false"
     id="namedview8"
     inkscape:window-height="846"
     inkscape:window-width="1440"
     inkscape:pageshadow="2"
     inkscape:pageopacity="0"
     guidetolerance="10"
     gridtolerance="10"
     objecttolerance="10"
     borderopacity="1"
     bordercolor="#666666"
     pagecolor="#ffffff" />
  <g
     id="g4"
     fill="black">
    <path
       sodipodi:nodetypes="scccccsscsccssscccssccsscccccccsscccccscccscccccsccssscccsccscc"
       d="m 109.68824,26.192437 c 0.38279,3.358686 -0.21001,7.789339 -0.0597,11.538011 C 117.43599,36.028355 124.95096,33.252166 132.4,30.4 l 5.1,13.1 c -9.17685,3.518034 -19.01442,7.017082 -28.67565,8.91226 -0.19539,2.543046 -0.14111,3.372265 -0.18448,6.246543 2.60069,-0.77194 7.44894,-0.798957 10.157,-0.06207 14.28534,3.887171 12.51925,17.362764 3.91543,27.29237 -3.9351,4.541468 -8.8534,8.115986 -13.7123,11.648242 -0.0116,3.078705 0.13366,5.288905 0.0639,8.591095 -0.0751,3.55636 -0.85529,4.95931 -1.20416,7.01029 2.42879,-0.42134 4.23055,-0.69043 6.91382,-1.17383 6.88199,-6.13029 15.60079,-15.668181 23.57278,-20.231182 4.32824,-2.477395 9.84197,-2.484772 14.23372,-0.0417 8.72118,4.851474 11.96425,11.694272 17.77261,19.543582 4.08565,5.52128 3.9141,15.23659 2.0764,17.59321 -16.85154,-2.41619 -33.94351,-4.95866 -50.98968,-3.60276 -6.16737,5.52547 -11.95221,11.65234 -17.82016,17.56192 15.31169,-7.16134 36.44526,-4.83068 43.95196,11.0857 6.33403,13.42997 -0.67927,27.11814 -14.9272,32.13091 -7.71894,2.71571 -15.44249,5.27739 -23.44398,6.79542 -0.83333,-4.56667 -1.66667,-9.13333 -2.5,-13.7 9.01989,-2.01092 18.66028,-3.79178 26.17358,-9.57358 5.19214,-3.99557 2.9031,-12.16101 -2.27488,-14.64154 C 117.75554,148.73232 98.412495,154.27336 81.9,165.7 79.103715,161.95565 76.873705,157.7107 73.7,154.3 81.410658,145.64156 89.337067,137.18029 97.545476,128.99121 74.07705,133.16766 50.745099,138.10103 27.6,143.8 l -3.3,-13.7 c 3.667095,-1.74744 8.474519,-3.82265 12.617042,-5.8255 13.127201,-6.1552 25.572587,-13.81257 37.673404,-21.75345 -3.419875,-1.92312 -7.339592,-6.960715 -8.349217,-9.432667 -3.039642,-7.442222 1.803214,-15.958778 6.711896,-20.168851 5.84766,-5.015415 15.22807,-8.852837 22.319497,-11.508621 0.03258,-3.18307 0.138031,-4.450065 0.07233,-7.545026 -15.005074,0.936911 -29.462296,-4.49106 -37.809568,-13.266372 4.447064,-3.828733 6.627874,-5.988749 10.578328,-9.072833 6.747333,6.718117 18.407911,8.999457 27.470559,8.423783 0.134799,-2.663479 0.139527,-4.694549 0.170179,-7.039856 0.04516,-3.45556 0.0445,-4.824811 -2.252636,-6.484121 C 90.113375,24.162216 85.985008,23.125344 82.1,22 L 85.7,8.4 c 10.377166,3.472522 22.82368,7.574336 23.98824,17.792437 z M 85.3,112.1 c -3.472396,1.94281 -7.188683,4.84223 -10.841604,7.02133 9.127964,-1.91154 18.331839,-3.40894 27.510514,-5.04914 -4.58409,-0.86776 -9.083806,-2.13074 -13.43491,-3.81637 -1.078,0.61473 -2.156,1.22945 -3.234,1.84418 z m 57.64566,-6.73952 c -2.31553,1.66525 -4.24822,3.82588 -6.43326,5.56654 5.92582,0.19854 11.84359,0.63815 17.72873,1.36234 -1.96807,-2.19241 -3.83128,-4.74108 -6.04372,-6.75011 -2.06371,-1.87396 -3.26573,-1.60706 -5.25175,-0.17877 z M 79.3,87.376293 c -0.141235,2.912782 4.631455,5.884535 7.792055,6.93747 3.25942,-2.115943 5.102257,-3.30751 8.085565,-5.736377 C 95.178579,84.012481 94.9981,80.95527 95.0014,76.39038 89.296582,78.511582 79.506569,83.116091 79.3,87.376293 Z m 29.74707,-14.834855 c -0.0635,2.582213 -0.10984,4.586424 -0.099,7.53863 2.01919,-1.244067 6.84895,-5.00653 6.27148,-7.889824 -0.4047,-2.020679 -6.17244,0.351194 -6.17244,0.351194 z"
       id="path2" />
  </g>
</svg>
