<svg xmlns="http://www.w3.org/2000/svg" width="1000" height="1000" viewBox="0 0 1000 1000" version="1.1">
	<path d="M 217.362 129.827 C 205.800 142.297, 190.832 158.450, 184.099 165.723 L 171.857 178.945 177.988 186.223 C 195.951 207.544, 208.809 233.428, 214.636 260 C 217.190 271.648, 216.972 298.420, 213.633 383 C 211.331 441.336, 209.482 492.130, 204.917 622.500 C 203.706 657.080, 204.107 677.835, 206.548 707 C 210.626 755.729, 223.097 847.716, 225.763 848.739 C 227.170 849.279, 319.294 834.054, 320.999 833 C 321.716 832.558, 321.091 826.118, 319.050 812.924 C 311.415 763.560, 305.934 716.257, 303.824 681.507 C 302.892 666.160, 302.898 653.101, 303.855 622.165 L 305.081 582.500 313.205 568 C 339.375 521.291, 371.928 470.419, 402.537 428.402 C 464.398 343.484, 521.722 287.497, 571.500 263.382 C 591.299 253.791, 599.403 251.665, 616.500 251.579 C 629.281 251.515, 631.138 251.742, 637.835 254.184 C 657.839 261.479, 672.228 276.348, 684.540 302.446 C 697.558 330.042, 705.357 363.690, 710.048 412.500 C 711.768 430.404, 712.400 493.071, 711.102 517.034 C 708.908 557.521, 704.292 600.192, 698.448 634 C 695.263 652.430, 686.428 688.229, 680.432 707 C 664.341 757.380, 642.478 794.228, 623 803.798 C 601.068 814.573, 554.482 792.181, 515.877 752.309 C 495.403 731.163, 477.499 702.356, 476.721 689.309 C 476.504 685.666, 476.575 685.590, 481 684.737 C 486.801 683.619, 505.001 684.558, 516.446 686.566 C 529.305 688.823, 546.532 693.386, 561.457 698.489 C 568.584 700.926, 574.496 702.825, 574.596 702.710 C 574.697 702.594, 583.174 682.259, 593.435 657.520 C 609.440 618.932, 611.877 612.383, 610.579 611.434 C 607.893 609.470, 575.950 599.158, 560 595.106 C 497.427 579.211, 449.603 583.005, 416.496 606.491 C 407.990 612.525, 397.143 624.309, 391.187 633.987 C 371.181 666.497, 372.726 708.063, 395.617 753.140 C 421.532 804.172, 472.158 854.445, 525.552 882.172 C 556.753 898.374, 582.950 905.426, 611.500 905.309 C 675.418 905.046, 726.750 859.681, 761.776 772.500 C 774.875 739.894, 789.406 687.824, 795.960 650 C 810.194 567.859, 814.670 468.602, 807.461 395 C 794.279 260.423, 742.449 178.640, 656.626 156.994 C 571.801 135.600, 476.970 184.660, 376.340 302 C 361.257 319.587, 351.524 331.842, 333.243 356.261 C 324.034 368.561, 315.504 379.947, 314.288 381.563 L 312.075 384.500 312.542 377.500 C 314.019 355.375, 316.136 283.831, 315.591 274.500 C 312.947 229.263, 298.280 186.607, 271.766 147.046 C 261.798 132.174, 245.248 111.964, 240.056 108.327 C 238.613 107.316, 235.496 110.268, 217.362 129.827 " stroke="none" fill="black" fill-rule="evenodd"/>
</svg>