<svg xmlns="http://www.w3.org/2000/svg" width="1000" height="1000" viewBox="0 0 1000 1000" version="1.1">
	<path d="M 163.631 108.275 C 155.045 132.565, 151.413 154.426, 152.294 176.500 C 154.454 230.591, 188.748 266.594, 242.907 271.628 C 246.843 271.994, 250.303 272.682, 250.597 273.157 C 250.891 273.633, 249.547 276.630, 247.610 279.818 C 229.977 308.845, 225.300 345.112, 235.378 374.661 C 240.960 391.029, 254.139 415.644, 269.710 438.784 C 281.761 456.694, 283.358 459.654, 284.933 467 C 286.820 475.800, 287.989 509.484, 287.313 535.575 L 286.689 559.651 279.095 557.812 C 256.410 552.318, 229.298 554.288, 206.419 563.092 C 169.126 577.444, 136.894 612.543, 123.523 653.360 C 103.848 713.423, 124.496 770.833, 176.416 800.421 L 183.802 804.630 176.242 813.065 C 172.085 817.704, 156.942 834.100, 142.591 849.500 C 128.241 864.900, 115.919 878.243, 115.209 879.151 C 114.064 880.618, 119.092 884.403, 160.045 912.901 C 185.414 930.556, 206.470 944.990, 206.835 944.978 C 207.201 944.966, 216.050 932.935, 226.500 918.243 C 263.351 866.434, 277.205 847.678, 287.872 835.154 C 311.429 807.496, 328.786 784.213, 339.054 766.500 C 347.308 752.262, 371.040 720.223, 432.385 640.500 C 528.453 515.652, 626.192 397.571, 677.392 344.500 C 686.173 335.398, 686.891 334.859, 685.385 338.500 C 670.929 373.454, 671.499 403.086, 687.283 437.239 C 691.215 445.747, 699.998 459.713, 706.314 467.500 C 708.545 470.250, 720.172 482.427, 732.153 494.561 C 758.895 521.642, 759.572 522.760, 759.362 539.500 C 759.157 555.879, 754.995 570.851, 739.972 609.250 C 738.735 612.413, 737.391 615, 736.986 615 C 736.581 615, 731.886 612.974, 726.551 610.499 C 687.759 592.494, 641.035 582.955, 605.997 585.888 C 575.451 588.445, 550.686 596.539, 528.072 611.355 C 495.700 632.566, 475.141 662.615, 468.452 698.500 C 466.208 710.538, 466.907 731.907, 469.940 743.956 C 478.553 778.178, 505.198 806.221, 541.057 818.805 C 578.485 831.939, 632.733 830.208, 678.052 814.434 C 704.663 805.171, 730.499 789.524, 751.144 770.167 C 755.349 766.225, 759.047 763, 759.364 763 C 759.680 763, 763.600 768.513, 768.076 775.250 C 782.178 796.481, 799.542 834.403, 805.622 857.250 C 806.610 860.962, 807.759 864, 808.176 864 C 808.592 864, 830.113 859.500, 856 854 C 881.887 848.500, 903.312 844, 903.613 844 C 904.478 844, 903.111 838.576, 898.317 823 C 882.580 771.863, 855.182 721.373, 823.247 684.662 L 817.299 677.824 823.545 664.130 C 831.291 647.144, 841.742 620.748, 845.963 607.505 C 859.833 563.992, 861.952 527.112, 852.332 496.658 C 844.358 471.416, 831.497 453.009, 802.828 425.803 C 787.123 410.901, 780.261 402.783, 776.369 394.500 C 773.178 387.710, 773.388 383.712, 777.366 375.472 C 781.724 366.445, 787.842 358.058, 808.352 333 C 838.585 296.061, 849.112 277.817, 853.480 254.790 C 858.672 227.423, 850.852 201.604, 831.046 180.723 C 813.118 161.821, 798.299 154.664, 777 154.621 C 756 154.579, 738.457 161.159, 712.500 178.816 C 671.860 206.461, 613.585 264.440, 537.430 353 C 498.712 398.025, 438.731 471.608, 393.682 529.346 L 386 539.192 385.990 511.846 C 385.978 481.562, 384.957 465.817, 381.967 449.835 C 377.720 427.130, 371.827 413.997, 353.687 386.805 C 339.578 365.656, 328.995 345.937, 329.010 340.826 C 329.032 333.308, 337.513 320.535, 351.182 307.434 C 368.589 290.751, 389.370 276.294, 415.817 262.472 L 432.982 253.500 432.991 201.907 L 433 150.315 398.750 158.680 C 342.762 172.356, 319.687 175.464, 279.500 174.743 C 265.750 174.496, 253.653 173.932, 252.618 173.490 C 250.936 172.770, 250.795 171.878, 251.296 165.092 C 251.604 160.917, 253.072 153.320, 254.557 148.212 C 256.042 143.104, 257.087 138.793, 256.879 138.633 C 256.670 138.472, 237.825 130.645, 215 121.238 C 192.175 111.831, 171.854 103.440, 169.842 102.592 L 166.185 101.050 163.631 108.275 M 244.500 654.392 C 238.660 656.230, 236.186 657.746, 230.787 662.796 C 218.081 674.681, 211.652 695.029, 216.930 706.654 C 219.117 711.470, 224.675 715.175, 234.125 718.116 C 241.122 720.294, 246.947 720.539, 249.172 718.750 C 250.027 718.063, 252.576 715.001, 254.835 711.947 C 260.960 703.668, 264.363 690.401, 264.441 674.500 C 264.519 658.727, 263.458 655.605, 257.515 654.108 C 252.062 652.735, 249.596 652.789, 244.500 654.392 M 608.500 684.626 C 607.400 684.842, 604.025 685.514, 601 686.118 C 587.574 688.798, 573.331 698.392, 568.543 707.980 C 563.605 717.869, 564.323 721.602, 571.780 724.810 C 579.434 728.103, 589.877 729.338, 604.097 728.633 C 626.583 727.517, 643.345 723.481, 659 715.411 C 667.373 711.096, 681.073 701.476, 681.697 699.475 C 682.458 697.035, 653.413 688.066, 636.500 685.518 C 627.281 684.129, 613.286 683.683, 608.500 684.626 " stroke="none" fill="black" fill-rule="evenodd"/>
</svg>