<svg xmlns="http://www.w3.org/2000/svg" width="1000" height="1000" viewBox="0 0 1000 1000" version="1.1">
	<path d="M 544 82.647 C 498.296 99.713, 458.154 111.620, 423 118.539 C 387.467 125.533, 337.051 121.071, 274.379 105.385 C 266.418 103.393, 259.636 102.030, 259.309 102.358 C 258.279 103.387, 232.262 196.045, 232.896 196.421 C 234.249 197.223, 249.529 201.151, 266 204.931 C 286.410 209.614, 317.798 215.262, 333.500 217.076 C 339.550 217.775, 344.668 218.474, 344.873 218.630 C 345.078 218.785, 342.769 221.745, 339.741 225.206 C 319.125 248.777, 286.779 297.534, 259.273 346.500 C 197.172 457.053, 138.408 599.264, 118.127 688.082 C 111.512 717.052, 94.001 835.563, 96.072 837.345 C 96.455 837.675, 171.827 840.954, 187.990 841.343 L 194.481 841.500 195.222 834 C 197.298 813, 209.446 733.521, 213.597 713.778 C 221.261 677.332, 242.421 614.957, 266.708 557.223 L 272.293 543.946 302.397 518.652 C 363.585 467.238, 415.022 425.024, 449.167 398.198 L 455.834 392.959 452.483 402.337 C 442.193 431.126, 444.044 453.531, 458.527 475.500 C 474.204 499.282, 496.679 511.731, 540.644 520.987 C 548.815 522.708, 556.288 524.345, 557.250 524.625 C 558.626 525.026, 559 526.243, 559 530.317 L 559 535.500 537.250 535.500 C 514.298 535.500, 511.686 535.829, 493.441 541.017 C 459.608 550.638, 429.541 571.817, 411.747 598.562 C 399.833 616.468, 394.238 632.237, 393.292 650.578 C 391.768 680.103, 402.128 706.372, 423.770 727.859 C 427.846 731.907, 430.803 735.557, 430.341 735.972 C 429.878 736.386, 424.100 741.441, 417.500 747.204 C 382.904 777.412, 364.228 802.488, 358.361 826.607 C 355.781 837.211, 356.006 854.486, 358.854 864.500 C 363.471 880.737, 374.802 896.881, 388.880 907.281 C 424.713 933.752, 499.330 942.037, 624.500 933.445 C 649.122 931.754, 680.746 928.883, 707 925.953 C 731.541 923.215, 792.357 914.866, 793.198 914.119 C 793.583 913.779, 792.375 899.325, 790.514 882 C 781.820 801.047, 779.586 757.647, 781.043 698.014 C 781.493 679.597, 781.780 664.454, 781.681 664.363 C 780.952 663.700, 683.890 659.777, 683.280 660.386 C 682.851 660.815, 682.501 689.141, 682.502 723.333 C 682.504 774.277, 682.826 789.360, 684.286 806.883 C 685.266 818.643, 685.916 828.418, 685.730 828.604 C 685.174 829.160, 646.026 832.856, 623.500 834.480 C 574.911 837.981, 532.776 838.868, 503.500 837.004 C 485.231 835.841, 470 834.019, 470 832.996 C 470 831.986, 485.246 818.762, 515 793.964 C 557.696 758.380, 577.224 739.905, 596.348 717 C 611.153 699.269, 620.656 683.859, 630.267 662 C 648.718 620.033, 659.156 568.119, 657.692 525.603 C 656.577 493.209, 650.162 474.749, 634.104 457.727 C 618.643 441.338, 601.034 432.897, 567.532 425.818 C 559.265 424.071, 552.339 422.524, 552.142 422.380 C 551.521 421.924, 558.952 410.242, 567.137 398.808 C 585.408 373.285, 610.103 344.383, 642.793 310.263 C 656.843 295.598, 661.064 290.609, 660.551 289.273 C 658.796 284.699, 617.693 211, 616.897 211 C 615.117 211, 556.069 232.927, 533.974 241.793 C 501.690 254.747, 483.113 262.881, 461.500 273.526 C 435.329 286.416, 423.124 293.990, 398.050 312.898 L 394.599 315.500 398.986 309.500 C 414.014 288.942, 437.466 263.497, 456.551 247.041 C 491.593 216.827, 532.424 192.394, 572 177.957 C 579.975 175.048, 586.712 172.493, 586.970 172.280 C 587.229 172.067, 580.484 150.992, 571.982 125.447 C 560.569 91.152, 556.129 79.013, 555.012 79.050 C 554.180 79.077, 549.225 80.696, 544 82.647 M 777.500 230.013 C 773.100 230.412, 765.450 231.505, 760.500 232.442 C 751.006 234.241, 727.421 241.510, 726.559 242.904 C 726.094 243.657, 763.076 331.409, 764.429 332.762 C 764.756 333.090, 767.381 332.620, 770.262 331.718 C 778.865 329.026, 789.734 327.534, 791.296 328.831 C 794.819 331.755, 813.992 372.692, 823.223 397 C 824.819 401.204, 826.187 403.403, 827.095 403.226 C 828.703 402.912, 918.330 371.870, 918.825 371.455 C 919.425 370.953, 903.897 332.780, 896.956 317.693 C 884.469 290.550, 871.121 268.183, 861.168 257.723 C 846.143 241.931, 825.296 232.301, 801.188 230.015 C 789.688 228.925, 789.501 228.925, 777.500 230.013 M 525.500 634.649 C 516.178 636.627, 505.458 641.883, 499.115 647.587 C 492.028 653.958, 491.107 655.858, 493.978 658.183 C 498.880 662.153, 513.551 659.585, 519.851 653.654 C 524.989 648.817, 535.403 632.858, 533.276 633.082 C 532.849 633.126, 529.350 633.832, 525.500 634.649 " stroke="none" fill="black" fill-rule="evenodd"/>
</svg>