<svg xmlns="http://www.w3.org/2000/svg" width="1000" height="1000" viewBox="0 0 1000 1000" version="1.1">
	<path d="M 409 69.668 C 383.425 70.425, 361.938 71.245, 361.250 71.491 C 360.396 71.796, 359.999 74.400, 359.997 79.719 C 359.991 97.407, 355.559 119.375, 349.552 131.500 C 344.061 142.581, 329.035 160.951, 309 181.077 C 276.814 213.408, 252.146 233.262, 201.806 267.355 L 183.112 280.016 213.178 322.258 C 229.715 345.491, 243.412 364.685, 243.617 364.912 C 243.822 365.138, 258.730 358.766, 276.745 350.752 C 313.553 334.379, 335.502 325.127, 370.500 311.234 C 398.846 299.982, 433.344 287.011, 433.776 287.443 C 433.944 287.610, 428.911 296.246, 422.593 306.634 L 411.105 325.520 397.803 331.416 C 362.626 347.009, 339.713 360.200, 329.119 370.960 C 301.329 399.185, 308.549 442.440, 344.182 461.204 L 348.864 463.670 328.682 470.981 C 288.460 485.551, 255.885 500.331, 238.092 512.084 C 211.166 529.869, 199.546 551.327, 202.710 577.423 C 205.228 598.184, 219.763 615.801, 242.669 625.855 C 272.627 639.003, 323.865 644.677, 430.030 646.601 L 467.560 647.281 466.777 656.390 C 463.925 689.550, 458.068 734.276, 453.429 758.301 C 445.595 798.880, 432.231 840.642, 418.011 868.978 C 415.196 874.588, 413.043 879.630, 413.228 880.183 C 413.879 882.138, 494.482 933.722, 495.571 932.881 C 497.351 931.504, 511.491 903.309, 516.825 890.500 C 542.384 829.123, 557.020 760.448, 565.379 662.674 C 566.171 653.420, 566.971 645.713, 567.159 645.547 C 567.347 645.381, 588.875 644.499, 615 643.588 C 687.717 641.050, 795.717 635.616, 796.898 634.435 C 797.422 633.912, 791.410 537.042, 790.822 536.529 C 790.645 536.375, 780.825 536.835, 769 537.552 C 723.322 540.323, 643.326 543.969, 592.250 545.607 L 571 546.289 571 523.212 C 571 502.101, 571.149 500.090, 572.750 499.607 C 573.712 499.317, 588.675 495.415, 606 490.936 C 623.325 486.457, 637.648 482.654, 637.828 482.485 C 638.518 481.838, 643.789 379.471, 643.161 378.923 C 642.798 378.605, 627.425 378.910, 609 379.600 C 590.575 380.290, 572.765 380.887, 569.423 380.927 L 563.346 381 562.126 374.380 C 561.455 370.739, 561.040 367.650, 561.203 367.515 C 561.366 367.380, 568.925 363.799, 578 359.557 C 625.023 337.577, 666.650 313.568, 690 294.957 C 699.693 287.232, 714.888 271.894, 720.174 264.500 C 743.677 231.621, 742.317 193.459, 716.670 166.220 C 677.691 124.821, 600.895 127.743, 451.803 176.296 L 435.106 181.734 438.171 175.661 C 449.958 152.311, 457.366 119.471, 458.679 84.750 C 459.286 68.687, 459.234 68.006, 457.406 68.145 C 456.358 68.225, 434.575 68.910, 409 69.668 M 586.500 241.691 C 585.400 241.944, 578.650 243.438, 571.500 245.011 C 549.970 249.749, 496.859 264.675, 497.127 265.913 C 497.196 266.236, 500.729 269.778, 504.976 273.784 L 512.699 281.068 533.100 271.484 C 552.950 262.158, 581.936 247.464, 589 243.147 C 592.481 241.019, 591.617 240.516, 586.500 241.691 M 469 529.013 C 467.625 529.483, 454.479 533.567, 439.786 538.089 C 425.094 542.610, 413.308 546.689, 413.595 547.154 C 413.883 547.620, 427.141 548, 443.059 548 L 472 548 472 538 C 472 532.500, 471.887 528.036, 471.750 528.079 C 471.613 528.122, 470.375 528.543, 469 529.013 " stroke="none" fill="black" fill-rule="evenodd"/>
</svg>