<svg xmlns="http://www.w3.org/2000/svg" width="1000" height="1000" viewBox="0 0 1000 1000" version="1.1">
	<path d="M 472 57.292 C 446.975 61.721, 426.352 65.453, 426.171 65.585 C 425.990 65.717, 428.115 79.702, 430.894 96.663 C 433.673 113.623, 437.302 136.500, 438.959 147.500 C 440.616 158.500, 442.201 168.783, 442.481 170.351 L 442.990 173.202 435.745 172.508 C 405.826 169.643, 378.350 159.333, 360.533 144.287 C 358.351 142.444, 356.044 141.064, 355.405 141.218 C 353.797 141.608, 277.065 198.342, 277.029 199.167 C 276.968 200.572, 292.576 216.302, 299.863 222.179 C 337.014 252.141, 386.041 269.255, 441.688 271.686 L 455.876 272.306 456.409 275.903 C 456.703 277.881, 457.066 280.991, 457.217 282.813 L 457.492 286.127 445.996 290.917 C 421.467 301.136, 404.906 309.790, 385.500 322.529 C 349.717 346.018, 328.051 371.729, 319.795 400.500 C 317.825 407.367, 317.509 410.696, 317.567 424 C 317.626 437.807, 317.922 440.443, 320.280 448.139 C 321.736 452.890, 324.086 459.399, 325.503 462.604 C 329.605 471.879, 340.065 486.707, 349.763 496.996 L 358.714 506.493 342.607 515.382 C 279.450 550.237, 199.931 589.717, 131.500 620.194 C 115.550 627.297, 102.075 633.531, 101.557 634.048 C 100.684 634.917, 116.571 727.688, 117.984 729.974 C 118.300 730.485, 138.352 726.023, 163.026 719.953 C 232.536 702.851, 332.031 679.844, 386 668.392 C 408.120 663.698, 445.243 656, 445.758 656 C 445.985 656, 438.371 664.214, 428.836 674.254 C 390.919 714.179, 353 755.571, 353 757.036 C 353 758.111, 393.771 836.968, 395.055 838.378 C 395.499 838.864, 407.030 834.502, 420.949 828.581 C 451.854 815.435, 463.789 810.804, 488.283 802.455 C 532.646 787.333, 569.429 778.257, 599.670 774.972 C 612.227 773.608, 634.456 774.154, 640.376 775.973 C 645.453 777.533, 660.159 791.925, 662.940 798.056 C 667.069 807.157, 665.233 813.806, 655.912 823.514 C 642.367 837.618, 620.008 849.724, 588.716 859.895 C 576.769 863.778, 550.906 870.435, 537.708 873.023 C 533.042 873.938, 532.012 874.484, 532.410 875.830 C 532.682 876.748, 536.807 898.425, 541.577 924 C 546.347 949.575, 550.398 970.667, 550.580 970.872 C 551.052 971.403, 578.428 965.428, 591.930 961.846 C 675.106 939.779, 728.191 905.067, 751.924 857.227 C 778.792 803.068, 760.223 742.022, 703.892 699.319 C 674.173 676.789, 632.190 670.061, 574.551 678.590 C 569.079 679.399, 563.454 680.323, 562.051 680.643 C 560.271 681.049, 567.581 673.111, 586.253 654.363 L 613.006 627.500 636.753 627.600 C 689.777 627.822, 764.991 636.250, 849.684 651.457 C 869.357 654.989, 885.689 657.647, 885.977 657.363 C 886.265 657.079, 889.049 641.080, 892.163 621.810 L 897.827 586.773 893.053 575.637 C 883.697 553.809, 869.235 527.208, 856.104 507.674 C 835.451 476.952, 812.340 453.401, 789.500 439.802 C 766.690 426.221, 738.921 421.257, 717.085 426.856 C 686.372 434.731, 644.592 464.267, 578.500 524.825 C 573 529.865, 568.163 533.991, 567.750 533.994 C 567.337 533.997, 567 523.714, 567 511.142 L 567 488.285 577.731 479.392 C 592.149 467.446, 614.478 445.641, 624.152 434.064 C 649.836 403.325, 662.313 374.310, 662.238 345.500 C 662.158 315.025, 647.287 289.996, 621.069 276.214 C 605.977 268.280, 592.167 265.010, 570 264.121 C 557.561 263.623, 554.500 263.219, 554.500 262.079 C 554.500 261.041, 559.360 259.649, 572.500 256.924 C 603.111 250.574, 633.542 242.441, 659.500 233.673 C 675.909 228.130, 694 221.055, 694 220.180 C 694 219.331, 653.935 132.746, 653.099 131.789 C 652.758 131.399, 647.309 133.049, 640.989 135.456 C 634.670 137.864, 622.975 141.856, 615 144.327 C 590.280 151.989, 541 163.649, 541 161.837 C 541 159.150, 525.871 63.823, 523.925 54.250 C 522.947 49.439, 522.634 49.010, 520.179 49.120 C 518.706 49.186, 497.025 52.863, 472 57.292 M 454.726 395.926 C 441.482 403.355, 430.218 411.126, 422.994 417.819 L 416.500 423.835 422 429.456 C 427.664 435.244, 442.012 446.024, 447.736 448.792 C 450.967 450.355, 450.986 450.349, 459.064 444.929 L 467.156 439.500 466.546 419.500 C 465.898 398.221, 465.301 390.999, 464.189 391.002 C 463.810 391.004, 459.552 393.219, 454.726 395.926 M 730.789 528.037 C 723.498 532.412, 721.882 533.995, 724.691 534.010 C 725.686 534.015, 732.534 534.693, 739.909 535.517 C 747.284 536.341, 753.483 536.851, 753.683 536.650 C 754.355 535.978, 739.512 523.990, 738.027 524.005 C 737.737 524.008, 734.480 525.823, 730.789 528.037 " stroke="none" fill="black" fill-rule="evenodd"/>
</svg>