<svg xmlns="http://www.w3.org/2000/svg" width="1000" height="1000" viewBox="0 0 1000 1000" version="1.1">
	<path d="M 226 107.132 C 195.424 108.159, 168.050 109.617, 167.416 110.251 C 166.726 110.940, 172.484 206.817, 173.262 207.595 C 173.617 207.951, 186.191 207.631, 201.204 206.886 C 216.794 206.111, 251.014 205.526, 281 205.522 C 325.586 205.516, 335.426 205.780, 346.277 207.272 C 361.455 209.358, 385.120 213.838, 386.956 214.973 C 388.016 215.628, 387.769 224.069, 385.619 260.638 C 384.168 285.312, 382.986 307.863, 382.991 310.750 C 382.997 314.520, 382.489 316.493, 381.186 317.750 C 380.188 318.712, 370.175 327, 358.936 336.166 C 347.696 345.332, 330.625 359.549, 321 367.759 L 303.500 382.687 296.694 369.593 C 278.936 335.430, 253.814 304.706, 227.572 285.054 C 219.176 278.766, 208.204 272, 206.405 272 C 205.778 272, 195.933 291.905, 184.526 316.233 L 163.788 360.466 167.144 362.910 C 175.296 368.847, 190.853 385.906, 198.244 397.012 C 206.811 409.885, 217.093 430.602, 222.104 445.086 L 225.420 454.672 207.788 473.586 C 155.010 530.199, 122.304 575.938, 99.873 624.500 C 90.828 644.083, 85.001 661.746, 80.242 684 C 77.794 695.450, 77.567 698.431, 77.535 719.500 C 77.504 740.016, 77.752 743.634, 79.836 753 C 90.065 798.992, 119.771 833.899, 159.500 846.615 C 170.253 850.057, 188.687 850.951, 201 848.628 C 252.639 838.885, 293.518 799.401, 316.975 736.611 C 339.118 677.337, 346.569 585.652, 336.042 502 L 334.217 487.500 340.271 482.019 C 352.677 470.787, 375.462 451.129, 375.746 451.412 C 375.907 451.574, 375.523 467.860, 374.892 487.603 C 373.740 523.646, 374.316 658.195, 375.893 721.500 C 376.290 737.450, 376.541 750.624, 376.450 750.775 C 376.359 750.926, 367.786 745.658, 357.399 739.068 C 347.012 732.478, 338.212 727.404, 337.844 727.793 C 336.559 729.148, 286.896 811.229, 287.197 811.501 C 287.364 811.651, 293.800 815.707, 301.500 820.515 C 339.651 844.333, 362.121 861.300, 387.116 885.162 L 406.731 903.890 442.440 873.195 L 478.149 842.500 477.549 824.500 C 474.062 719.858, 472.685 629.009, 473.307 544.741 C 473.613 503.359, 474.327 460.050, 474.894 448.500 C 475.460 436.950, 476.406 415.800, 476.996 401.500 C 478.563 363.501, 476.515 369.018, 493.804 356.220 C 550.126 314.530, 604.299 280.382, 651.999 256.500 C 669.845 247.566, 695.283 236, 697.088 236 C 697.652 236, 695.541 239.263, 692.395 243.250 C 669.051 272.845, 641.827 311.969, 629.009 334.344 C 608.068 370.898, 596.677 408.630, 595.299 446 C 594.597 465.049, 595.451 471.750, 602.215 500.242 L 607.443 522.266 629.972 521.619 C 642.362 521.264, 660.607 520.694, 670.516 520.353 L 688.531 519.734 696.016 508.680 C 719.152 474.509, 747.202 450.459, 775 440.959 C 783.949 437.900, 798.317 437.203, 807.001 439.405 C 815.965 441.679, 826.924 447.035, 832.039 451.643 C 837.526 456.586, 840.027 462.312, 840.724 471.530 C 842.501 495.030, 827.439 526.015, 802.794 549.557 C 785.008 566.548, 765.282 577.881, 739 586.210 C 680.238 604.832, 657.397 613.047, 635.349 623.487 C 583.331 648.118, 555.490 680.197, 551.041 720.629 C 548.881 740.255, 552.738 758.814, 563.482 780.500 C 581.729 817.329, 615.611 847.188, 668.500 873.050 C 697.989 887.469, 737.045 901.658, 775.762 912.017 C 794.967 917.156, 822.883 923.521, 823.367 922.872 C 824.021 921.992, 841.040 826.707, 840.618 826.285 C 840.362 826.028, 835.109 824.751, 828.946 823.445 C 789.639 815.120, 744.583 800.058, 712.500 784.517 C 679.419 768.492, 660.310 753.463, 651.942 736.886 L 649.053 731.161 652.707 727.953 C 661.121 720.565, 675.191 713.107, 696.500 704.741 C 710.004 699.439, 722.345 695.272, 769.500 680.092 C 812.527 666.241, 845.739 646.394, 875.010 617.040 C 923.645 568.267, 947.177 505.150, 937.472 449.500 C 930.194 407.762, 904.560 375.177, 863.532 355.507 C 824.806 336.941, 784.948 334.081, 744.740 346.984 L 735.980 349.795 739.682 344.647 C 750.317 329.860, 769.367 304.965, 787.889 281.647 C 826.328 233.256, 834.238 221.231, 840.945 201 C 844.088 191.522, 844.788 176.393, 842.524 166.892 C 839.621 154.713, 835.575 147.497, 826.543 138.394 C 813.435 125.184, 798.438 119.335, 774.993 118.290 C 713.852 115.565, 615.940 155.335, 505.626 227.703 C 495.245 234.513, 486.529 239.863, 486.257 239.591 C 485.985 239.319, 487.114 218.262, 488.766 192.798 C 490.418 167.334, 491.439 146.140, 491.034 145.699 C 489.490 144.018, 443.774 127.753, 428.529 123.461 C 397.283 114.664, 363.251 108.958, 330.500 107.023 C 311.040 105.874, 261.904 105.925, 226 107.132 M 229.178 600.954 C 196.634 644.427, 178.145 683.697, 175.484 715 C 174.358 728.248, 177.983 742.736, 183.825 748.333 L 186.506 750.901 190.735 749.007 C 200.251 744.747, 210.870 731.880, 218.914 714.862 C 231.595 688.035, 238.228 656.322, 241.064 608.965 C 242.737 581.042, 243.632 581.646, 229.178 600.954 " stroke="none" fill="black" fill-rule="evenodd"/>
</svg>