<svg xmlns="http://www.w3.org/2000/svg" width="1000" height="1000" viewBox="0 0 1000 1000" version="1.1">
	<path d="M 239.114 82.750 C 234.645 101.803, 233.553 112.462, 233.554 137 C 233.556 157.163, 233.885 162.346, 235.873 173.500 C 238.694 189.321, 243.566 205.735, 249.326 218.823 C 254.061 229.581, 262.866 245, 264.274 245 C 264.765 245, 283.284 232.828, 305.428 217.950 L 345.688 190.901 341.465 182.485 C 339.142 177.856, 336.174 169.891, 334.870 164.785 C 332.764 156.535, 332.505 153.326, 332.544 136 C 332.575 122.101, 333.034 114.535, 334.142 109.659 C 335.670 102.936, 335.661 102.804, 333.598 101.932 C 330.423 100.591, 243.436 74, 242.222 74 C 241.642 74, 240.243 77.938, 239.114 82.750 M 564 90.577 C 540.625 97.431, 519.876 103.480, 517.892 104.020 L 514.283 105.001 513.695 115.750 C 512.978 128.873, 511.205 135.744, 505.459 147.660 C 494.430 170.536, 476.500 187.852, 439.232 211.620 C 392.958 241.131, 339.268 267.849, 298.500 281.655 C 293 283.517, 278.600 287.779, 266.500 291.125 C 254.400 294.471, 244.021 297.499, 243.436 297.854 C 242.733 298.281, 246.203 314.905, 253.675 346.906 C 259.892 373.529, 265.145 395.478, 265.348 395.681 C 265.674 396.007, 355.466 374.926, 360.447 373.355 C 361.610 372.988, 359.883 375.510, 356.157 379.620 C 338.411 399.196, 325.338 425.665, 321.955 448.869 C 320.293 460.269, 321.231 478.384, 323.980 488 C 327.085 498.858, 332.184 508.843, 339.015 517.439 C 342.307 521.581, 345 525.196, 345 525.472 C 345 527.086, 308.641 543.061, 279.500 554.250 C 245.391 567.347, 239.416 568.743, 207.500 571.072 C 198.700 571.715, 191.207 572.523, 190.849 572.870 C 190.139 573.558, 192.307 674.665, 193.046 675.339 C 193.615 675.858, 268.441 667.209, 304.500 662.456 C 361.806 654.903, 413.228 646.874, 446 640.361 C 478.767 633.849, 495.591 629.264, 553 611.198 C 617.150 591.011, 646.035 584.354, 674 583.309 C 694.679 582.536, 711.370 585.859, 719.450 592.358 L 722.399 594.730 717.450 596.929 C 702.235 603.688, 676.912 610.864, 650.438 615.918 C 633.877 619.080, 604.805 623.408, 592.250 624.581 C 588.263 624.954, 585 625.548, 585 625.902 C 585 627.475, 592.026 713.098, 592.576 718.218 L 593.189 723.936 597.344 723.460 C 676.935 714.341, 728.585 701.872, 767.158 682.465 C 808.030 661.901, 829.067 633.475, 829.069 598.807 C 829.071 572.876, 818.572 550.559, 795.666 527.807 C 765.135 497.482, 722.320 482.376, 672.500 484.352 C 635.554 485.817, 600.710 493.028, 540.500 511.668 C 530.600 514.733, 521.237 517.613, 519.693 518.067 L 516.887 518.893 520.120 515.196 C 527.719 506.507, 540.231 492.864, 550.045 482.565 C 592.573 437.936, 625.507 376.299, 648.091 299.067 C 651.515 287.356, 663.457 233.964, 662.754 233.511 C 662.614 233.421, 649.972 226.062, 634.660 217.159 L 606.819 200.970 597.049 203.985 C 591.675 205.643, 587.010 207, 586.683 207 C 586.355 207, 588.725 201.937, 591.949 195.750 C 601.374 177.664, 607.795 158.176, 611.141 137.500 C 613.990 119.901, 611.518 77.864, 607.646 78.057 C 607.016 78.088, 587.375 83.722, 564 90.577 M 524.500 330.113 C 521.200 331.165, 517.825 332.285, 517 332.601 C 516.088 332.950, 518.035 334.103, 521.965 335.540 C 525.520 336.840, 528.503 337.813, 528.592 337.702 C 529.126 337.038, 533 328.985, 533 328.540 C 533 327.680, 530.924 328.064, 524.500 330.113 M 454.972 429.877 C 446.518 432.583, 437.770 437.636, 432.900 442.628 L 428.500 447.138 433.748 445.084 C 441.870 441.906, 450.935 437.140, 457.250 432.728 C 460.413 430.518, 463 428.550, 463 428.355 C 463 427.648, 460.391 428.142, 454.972 429.877 M 361 662.103 C 350.743 663.256, 335.309 666.396, 324.500 669.528 C 312.266 673.073, 294.966 679.926, 294.377 681.460 C 293.962 682.541, 335.895 766.166, 337.908 768.273 C 338.314 768.698, 340.318 768.347, 342.362 767.493 C 357.612 761.121, 381.394 758.342, 394.397 761.411 C 406.309 764.223, 418.072 772.062, 425.786 782.329 L 427.911 785.157 432.706 781.891 C 441.429 775.947, 508.493 729.741, 508.870 729.414 C 509.073 729.238, 506.322 725.360, 502.757 720.797 C 489.090 703.304, 468.791 686.447, 450.053 677.028 C 424.539 664.203, 391.529 658.670, 361 662.103 M 373.132 787.750 C 369.846 794.209, 365.146 808.588, 363.334 817.725 C 360.629 831.373, 361.049 851.803, 364.289 864.120 C 374.147 901.604, 403.659 928.486, 448.156 940.514 C 498.193 954.040, 568.560 951.133, 667.916 931.437 C 682.994 928.448, 695.533 925.801, 695.779 925.555 C 696.198 925.136, 675.431 830.065, 674.794 829.489 C 674.632 829.342, 669.550 830.291, 663.500 831.598 C 613.252 842.447, 567.450 848.676, 530.482 849.687 C 499.450 850.535, 479.208 848.204, 465.649 842.219 C 460.069 839.756, 459.821 839.493, 460.314 836.568 C 460.598 834.881, 461.086 832.825, 461.399 832 C 461.830 830.865, 451.547 824.846, 419.114 807.250 C 395.544 794.462, 375.985 784, 375.650 784 C 375.315 784, 374.182 785.688, 373.132 787.750 " stroke="none" fill="black" fill-rule="evenodd"/>
</svg>