<svg xmlns="http://www.w3.org/2000/svg" width="1000" height="1000" viewBox="0 0 1000 1000" version="1.1">
	<path d="M 324.500 80.030 C 288.913 85.527, 256.769 111.361, 229.797 156.145 C 194.396 214.922, 166.857 307.673, 156.056 404.500 C 150.862 451.066, 150.829 485.185, 155.943 521.435 C 157.645 533.500, 159.141 543.444, 159.269 543.534 C 159.396 543.624, 175.025 544.475, 194 545.426 C 228.265 547.141, 228.562 547.139, 237.569 545.115 C 252.327 541.797, 269.486 539.939, 285.836 539.888 C 294.271 539.861, 301.371 540.038, 301.613 540.280 C 302.052 540.719, 267.500 587.157, 248.936 611.080 C 239.879 622.751, 214.177 654.561, 180.500 695.780 C 172.800 705.204, 166.061 712.934, 165.524 712.957 C 164.723 712.992, 81.373 686.232, 76.713 684.444 C 75.635 684.030, 74.091 687.996, 70.194 701.201 C 54.324 754.976, 51.609 774.684, 53.910 819.438 C 54.619 833.222, 56.617 856.875, 58.349 872 L 61.500 899.500 65.500 899.275 C 74.285 898.782, 143.578 892.846, 144.685 892.492 C 145.337 892.283, 150.962 885.987, 157.185 878.499 L 168.500 864.886 170.205 867.193 C 171.143 868.462, 174.518 873.176, 177.705 877.668 C 214.124 929.001, 267.165 949.507, 322.241 933.547 C 365.298 921.069, 409.042 884.818, 433.906 841.008 C 463.775 788.379, 474.844 717.501, 465.453 639 C 461.201 603.457, 451.406 561.698, 440.564 532.890 L 437.135 523.777 460.144 492.368 C 472.799 475.093, 483.006 460.556, 482.826 460.063 C 482.496 459.157, 405.026 402.500, 404.117 402.500 C 403.847 402.500, 395.443 413.669, 385.442 427.320 C 375.442 440.972, 366.802 452.598, 366.243 453.157 C 365.554 453.846, 361.722 453.041, 354.363 450.662 C 330.844 443.061, 309.698 440.474, 277.510 441.260 C 265.404 441.555, 254.645 442.142, 253.601 442.563 C 251.785 443.295, 251.733 442.896, 252.409 433.414 C 253.859 413.080, 262.164 355.616, 263.926 353.727 C 264.322 353.301, 268.439 353.848, 273.073 354.942 C 300.883 361.505, 333.465 361.699, 364.515 355.487 C 441.871 340.012, 483.090 305.686, 491.069 250.097 C 494.512 226.110, 489.125 200.015, 475.361 174 C 449.838 125.762, 405.806 89.950, 361.582 81.462 C 351.538 79.534, 332.475 78.798, 324.500 80.030 M 675.750 99.749 C 649.247 100.009, 646.999 100.166, 646.986 101.765 C 646.979 102.719, 646.523 112.500, 645.973 123.500 C 644.298 157.041, 641.080 179.122, 635.334 196.500 C 624.187 230.213, 593.147 285.888, 553.656 343 C 544.550 356.169, 510.360 402.773, 501.833 413.639 C 501.222 414.418, 513.174 424.631, 539.616 445.926 C 578.017 476.851, 578.308 477.060, 580.397 475.220 C 626.023 435.015, 649.954 416.863, 686.500 394.739 C 702.346 385.147, 733.919 369.496, 747.475 364.515 C 768.016 356.966, 793.612 352.049, 804.793 353.502 C 818.939 355.342, 828.796 359.607, 834.616 366.407 C 842.789 375.955, 844.241 393.959, 838.239 411.320 C 826.908 444.095, 793.805 472.652, 747 490.028 C 740.675 492.376, 735.365 494.403, 735.200 494.532 C 735.035 494.661, 741.557 515.745, 749.693 541.384 C 759.477 572.213, 764.939 588, 765.822 588 C 769.244 588, 796.298 577.004, 812.566 569 C 854.267 548.485, 886.588 521.347, 909.393 487.699 C 958.785 414.823, 948.833 325.669, 886.328 281.089 C 871.018 270.170, 853.232 262.494, 832.500 257.858 C 819.136 254.870, 790.517 254.196, 773.437 256.467 C 758.651 258.433, 735.035 264.195, 720.750 269.321 C 715.388 271.246, 711 272.605, 711 272.342 C 711 272.079, 713.689 265.801, 716.976 258.392 C 735.656 216.280, 743.074 179.574, 744.692 121.250 L 745.309 99 724.904 99.234 C 713.682 99.363, 691.563 99.595, 675.750 99.749 M 330.998 184.750 C 322.636 193.331, 314.605 205.447, 306.075 222.352 C 299.007 236.357, 290.410 256.744, 291.227 257.561 C 292.748 259.082, 308.914 261, 320.212 261 C 330.106 261, 336.172 260.407, 345.374 258.541 C 367.009 254.153, 389.578 245.525, 392.191 240.642 C 395.102 235.203, 391.242 223.648, 381.892 209.809 C 373.084 196.773, 358.467 183.885, 347.964 179.894 C 339.765 176.779, 338.380 177.175, 330.998 184.750 M 673.321 479.857 C 647.373 485.174, 625.915 489.752, 625.637 490.029 C 625.360 490.307, 625.765 495.026, 626.537 500.517 C 631.526 535.982, 630.166 579.746, 622.977 615.063 C 611.470 671.593, 567.467 739.619, 496.536 810.531 C 485.516 821.549, 467.180 838.619, 455.789 848.466 L 435.078 866.369 438.362 870.935 C 441.383 875.134, 499.979 955.148, 500.494 955.777 C 500.618 955.929, 510.997 943.779, 523.559 928.777 C 549.660 897.603, 553.947 892.934, 570.532 877.614 C 609.750 841.387, 647.803 818.602, 681.014 811.462 C 691.985 809.104, 707.575 809.262, 718.233 811.841 C 744.708 818.247, 773.443 833.515, 802.500 856.614 C 814.902 866.473, 847.662 898.744, 856.442 909.750 C 859.623 913.738, 862.628 917, 863.121 917 C 864.127 917, 941.359 860.185, 941.750 859.157 C 942.314 857.674, 918.423 830.392, 903.013 814.923 C 850.245 761.951, 795.788 728.757, 740 715.558 C 726.840 712.445, 715.200 711, 703.276 711 C 698.174 711, 694 710.867, 694 710.705 C 694 710.542, 696.173 705.480, 698.829 699.455 C 712.499 668.448, 720.784 637.313, 725.560 599 C 726.449 591.871, 727.364 573.995, 727.690 557.396 C 728.296 526.533, 727.416 509.400, 723.948 484.527 C 722.877 476.842, 722 470.430, 722 470.277 C 722 469.866, 723.984 469.476, 673.321 479.857 M 345.906 646.750 C 327.193 671.575, 299.959 705.710, 263.179 750.443 L 237.738 781.386 238.992 784.943 C 241.260 791.379, 249.871 808.378, 254.217 815 C 260.146 824.036, 270.940 835.116, 276.534 837.910 C 296.619 847.941, 335.912 819.620, 352.876 782.886 C 359.943 767.583, 364.890 749.379, 368.199 726.500 C 369.846 715.108, 369.836 670.239, 368.182 656.500 C 366.138 639.512, 363.757 625, 363.012 625 C 362.622 625, 354.924 634.788, 345.906 646.750 " stroke="none" fill="black" fill-rule="evenodd"/>
</svg>