<svg xmlns="http://www.w3.org/2000/svg" width="1000" height="1000" viewBox="0 0 1000 1000" version="1.1">
	<path d="M 615.500 94.623 C 586.125 102.215, 547.930 109.126, 516 112.628 C 496.482 114.769, 450.469 115.089, 434.500 113.196 C 410.337 110.331, 388.279 104.411, 374.111 96.986 L 366.657 93.081 347.579 111.375 C 337.085 121.437, 320.944 136.831, 311.708 145.585 L 294.917 161.500 299.208 165.274 C 319.249 182.898, 354.983 198.785, 390.737 205.966 C 441.309 216.124, 493.124 216.231, 561.983 206.319 L 566.466 205.674 560.212 211.465 C 540.730 229.501, 527.619 264.719, 519.941 319.631 L 518.805 327.763 515.152 328.304 C 513.144 328.602, 498.225 331.120, 482 333.900 C 431.742 342.512, 405.131 346.096, 386.888 346.710 C 367.503 347.362, 361 346.715, 361 344.133 C 361 343.173, 361.954 339.565, 363.119 336.113 C 364.293 332.637, 364.851 329.491, 364.369 329.060 C 362.934 327.776, 278.771 282.895, 278.433 283.234 C 277.260 284.407, 271.564 298.671, 268.669 307.684 C 262.462 327.011, 260.375 348.374, 263.068 365 C 267.824 394.352, 286.009 419.009, 312.789 432.415 C 322.342 437.198, 335.327 441.475, 346.500 443.519 C 358.820 445.772, 387.800 446.554, 403.684 445.061 C 415.297 443.970, 447.066 439.838, 454.500 438.452 C 456.150 438.145, 451.650 440.991, 444.500 444.778 C 429.047 452.961, 421.242 457.684, 406.500 467.770 C 369.329 493.201, 354.739 511.179, 347.263 540.763 C 344.534 551.558, 344.894 578.616, 347.930 591 C 357.636 630.590, 382.687 671.356, 428.346 721.866 C 450.188 746.029, 491.450 785.219, 516.741 805.823 C 521.823 809.964, 525.823 813.511, 525.628 813.705 C 524.822 814.511, 438.401 813.953, 416.370 812.999 C 336.949 809.561, 276.422 801.092, 245.378 789.074 C 231.959 783.879, 213.119 771.710, 208.204 765.062 L 205.952 762.015 208.113 757.758 C 209.302 755.416, 214 749.768, 218.553 745.206 L 226.831 736.912 199.344 696.442 L 171.857 655.972 168.881 657.729 C 162.530 661.481, 144.201 679.001, 136.052 689.109 C 116.898 712.869, 107.831 736.196, 107.720 762 C 107.647 778.846, 110.598 791.127, 118.532 807 C 136.655 843.260, 181.145 874.574, 235.860 889.582 C 273.835 899.999, 320.319 906.416, 388 910.586 C 422.956 912.740, 525.029 913.571, 573 912.092 C 669.690 909.113, 766.863 901.735, 826 892.884 C 847.053 889.733, 868.813 884.742, 872.831 882.143 C 873.866 881.473, 869.935 871.334, 855.153 836.547 C 844.699 811.942, 835.925 791.592, 835.656 791.323 C 835.387 791.054, 831.642 791.543, 827.334 792.410 C 788.037 800.315, 704.148 807.633, 596.500 812.547 L 582.500 813.186 597 803.762 L 611.500 794.339 611.457 783.919 C 611.417 774.364, 609.839 730.157, 608.407 698.454 L 607.817 685.409 626.845 684.166 C 654.293 682.374, 690.365 678.190, 715.829 673.847 C 721.554 672.870, 722.110 672.563, 721.653 670.634 C 721.375 669.460, 717.461 647.800, 712.956 622.500 C 708.451 597.200, 704.621 576.341, 704.445 576.146 C 704.270 575.952, 696.110 576.969, 686.313 578.406 C 662.955 581.833, 635.844 584.776, 619.852 585.621 C 607.029 586.298, 607 586.294, 607 584.073 C 607 582.747, 611.118 576.723, 617.185 569.174 C 643.424 536.522, 652.410 514.626, 650.014 489.178 C 647.989 467.678, 636.819 449.536, 617.544 436.443 L 609.201 430.776 609.734 420.638 C 610.028 415.062, 610.387 410.358, 610.534 410.184 C 610.680 410.009, 624.457 406.789, 641.150 403.026 C 692.043 391.556, 772.998 371.336, 774.651 369.682 C 774.953 369.381, 772.621 356.841, 769.470 341.817 L 763.740 314.500 757.036 301.440 C 749.531 286.821, 736.879 267.078, 726.267 253.430 C 702.058 222.293, 673.459 200.897, 646.329 193.624 L 637.500 191.258 641.500 190.191 C 643.700 189.605, 648.131 188.453, 651.347 187.632 C 654.563 186.811, 657.358 185.975, 657.558 185.775 C 657.758 185.575, 652.521 165.181, 645.919 140.456 C 639.318 115.730, 633.662 94.487, 633.350 93.250 C 632.626 90.375, 631.650 90.450, 615.500 94.623 M 625.062 295.770 C 622.739 304.397, 622.576 306.377, 624.240 305.738 C 625.097 305.409, 628.570 304.595, 631.958 303.929 L 638.118 302.717 634.809 299.271 C 632.989 297.376, 630.284 294.950, 628.798 293.879 L 626.095 291.932 625.062 295.770 M 493.500 530.897 C 478.810 538.210, 466.092 546.044, 452.187 556.343 L 443.875 562.500 444.351 567.612 C 444.994 574.517, 449.887 585.902, 457.875 599.084 C 467.432 614.854, 487.302 641.042, 485.505 635.500 C 480.386 619.707, 480.854 603.157, 486.914 585.697 C 489.774 577.460, 496.003 565.336, 502.490 555.385 L 508.062 546.836 507.781 535.382 L 507.500 523.927 493.500 530.897 " stroke="none" fill="black" fill-rule="evenodd"/>
</svg>