<svg xmlns="http://www.w3.org/2000/svg" width="1000" height="1000" viewBox="0 0 1000 1000" version="1.1">
	<path d="M 694.500 110.075 C 671.142 114.003, 645.677 127.110, 620.521 148.153 C 560.107 198.687, 469.032 314.350, 352 489.168 C 340.725 506.010, 331.399 519.698, 331.275 519.587 C 330.809 519.166, 334.134 492.913, 336.500 478.338 C 345.427 423.335, 364.984 347.479, 386.898 282.858 L 392.881 265.215 383.509 228.509 C 378.354 208.321, 373.907 191.574, 373.626 191.293 C 373.345 191.012, 360.377 195.090, 344.808 200.356 C 311.588 211.592, 303.525 213.354, 285 213.427 C 262.086 213.518, 252.806 209.886, 238 195.031 C 230.121 187.127, 222.390 176.669, 220.719 171.658 C 220.546 171.138, 201.751 178.251, 178.952 187.464 C 129.572 207.420, 128.995 207.665, 129.019 208.694 C 129.030 209.137, 131.286 213.734, 134.033 218.909 C 162.365 272.285, 208.381 305.399, 262.214 311.153 C 268.421 311.816, 273.621 312.437, 273.770 312.533 C 273.918 312.628, 271.993 319.860, 269.493 328.603 C 261.761 355.639, 251.194 399.238, 245.491 427.630 C 237.956 465.149, 233.988 493.601, 231.459 528.250 C 230.994 534.625, 230.453 537, 229.467 537 C 227 537, 209.718 543.147, 201.546 546.931 C 170.042 561.519, 142.919 587.058, 128.725 615.500 C 124.034 624.900, 119.308 639.295, 117.490 649.718 C 115.573 660.710, 115.581 681.337, 117.507 692.378 C 122.165 719.092, 135.551 745.764, 157.161 771.389 C 161.747 776.827, 165.906 781.823, 166.401 782.490 C 167.346 783.762, 163.339 789.734, 140.787 820.667 C 134.304 829.559, 129 837.287, 129 837.841 C 129 838.851, 204.599 896.300, 206.491 896.728 C 207.629 896.986, 208.515 895.819, 229.826 866 C 238.278 854.175, 245.363 844.323, 245.572 844.107 C 245.781 843.892, 246.525 844.182, 247.226 844.752 C 248.437 845.738, 289.823 867.969, 291.116 868.329 C 292.266 868.648, 337 814.848, 336.981 813.168 C 336.971 812.251, 336.102 799.575, 335.051 785 C 333.999 770.425, 332.585 746.988, 331.909 732.919 L 330.679 707.338 336.142 696.919 C 339.147 691.188, 351.080 671.650, 362.660 653.500 C 450.385 516, 530.096 401.662, 592.891 323.255 C 626.144 281.735, 648.532 256.721, 673.500 233.191 C 685.001 222.353, 685.512 222, 685.789 224.691 C 685.947 226.236, 684.232 240.775, 681.976 257 C 679.720 273.225, 677.205 291.900, 676.387 298.500 C 674.222 315.971, 673.488 345.469, 674.915 357.708 C 678.407 387.673, 690.575 409.246, 711.823 423.139 C 718.837 427.726, 739.351 438.189, 762.250 448.860 C 768.163 451.615, 773 454.305, 773 454.837 C 773 456.375, 754.972 473.021, 742.194 483.282 C 710.146 509.015, 680.987 529.748, 574.500 602.513 C 490.307 660.045, 454.487 686.901, 429.156 711.485 C 415.251 724.981, 408.774 733.071, 403.125 744 C 396.689 756.453, 395.600 760.917, 395.566 775 C 395.541 785.377, 395.928 788.721, 397.847 794.691 C 401.836 807.100, 408.710 817.228, 418.842 825.627 C 431.920 836.467, 449.121 842.629, 473 845.028 C 482.480 845.981, 494.923 846.069, 524.500 845.392 C 590.261 843.888, 657.424 844.300, 679.500 846.345 C 738.205 851.780, 785.978 862.541, 831.881 880.669 C 840.891 884.227, 848.635 886.765, 849.091 886.309 C 850.749 884.651, 888.105 798.715, 887.665 797.570 C 886.555 794.677, 834.768 776.005, 807.500 768.667 C 740.863 750.733, 678.207 744.102, 587.066 745.337 C 549.328 745.848, 542.848 745.732, 544.066 744.563 C 548.216 740.579, 591.250 710.563, 667.500 658.468 C 805.835 563.956, 851.764 525.712, 868.993 490.686 C 875.317 477.831, 877.395 467.906, 876.674 454 C 874.945 420.637, 858.987 392.564, 831.454 374.451 C 826.478 371.178, 811.234 363.100, 797.577 356.500 L 772.747 344.500 773.335 328.500 C 773.659 319.700, 775.064 304.400, 776.457 294.500 C 784.831 234.994, 786 223.719, 785.995 202.500 C 785.988 170.070, 778.907 148.382, 762.780 131.405 C 752.022 120.080, 740.553 113.624, 725.792 110.586 C 717.647 108.910, 702.862 108.668, 694.500 110.075 M 224.740 649.250 C 222.151 651.862, 218.821 656.362, 217.339 659.250 C 212.644 668.396, 214.104 680.472, 221.345 692.376 L 223.702 696.251 227.386 690.187 L 231.070 684.123 230.258 664.311 L 229.446 644.500 224.740 649.250 " stroke="none" fill="black" fill-rule="evenodd"/>
</svg>