<svg xmlns="http://www.w3.org/2000/svg" width="1000" height="1000" viewBox="0 0 1000 1000" version="1.1">
	<path d="M 582.547 101.250 C 582.332 101.938, 581.409 107.675, 580.496 114 C 572.375 170.271, 559.911 233.340, 552.336 256.500 C 544.644 280.016, 526.268 312.342, 506.227 337.612 L 499 346.725 499 388.337 L 499 429.950 501.750 429.476 C 503.262 429.215, 516.875 427.404, 532 425.452 C 562.401 421.528, 569.917 420.227, 587.371 415.872 C 593.900 414.242, 599.368 413.042, 599.521 413.205 C 599.674 413.367, 599.206 418.675, 598.480 425 C 595.205 453.530, 594.712 472.216, 594.110 590.685 L 593.500 710.871 587.586 703.935 C 584.334 700.121, 581.397 697, 581.059 697 C 580.444 697, 521.413 751.275, 513.089 759.493 L 508.678 763.848 513.468 769.174 C 525.936 783.036, 552.627 821.703, 571.678 853.500 C 576.621 861.750, 587.603 880.987, 596.082 896.249 C 604.562 911.512, 611.950 923.971, 612.500 923.936 C 613.050 923.901, 631.421 915.689, 653.324 905.686 L 693.149 887.500 693.061 695.500 C 693.010 584.145, 693.393 492.159, 693.974 476.500 C 695.405 437.897, 698.452 414.308, 705.470 387.500 C 709.795 370.979, 712.849 363.543, 721.847 347.632 L 729.096 334.814 702.420 294.407 C 687.749 272.183, 675.559 254, 675.332 254 C 675.104 254, 669.467 258.117, 662.804 263.148 C 653.081 270.490, 650.823 271.823, 651.368 269.898 C 657.731 247.419, 668.249 193.048, 676.497 140 C 680.380 115.025, 680.548 113.002, 678.750 112.994 C 678.063 112.991, 656.575 110.069, 631 106.500 C 605.425 102.931, 584.148 100.009, 583.719 100.006 C 583.289 100.003, 582.761 100.563, 582.547 101.250 M 242 122.046 C 215.875 126.930, 194.337 130.942, 194.139 130.963 C 193.477 131.031, 195.146 138.358, 197.673 146.476 C 200.815 156.568, 210.365 176.323, 216.538 185.500 C 227.985 202.516, 241.071 215.852, 256.447 226.171 C 283.979 244.649, 310.327 252.273, 347.167 252.424 C 357.433 252.466, 366.044 252.275, 366.302 252 C 366.560 251.725, 364.703 229.563, 362.176 202.750 L 357.582 154 348.379 154 C 322.119 154, 305.539 144.839, 295.498 124.782 C 293.024 119.840, 291 115.167, 291 114.398 C 291 113.629, 290.663 113.038, 290.250 113.084 C 289.837 113.129, 268.125 117.163, 242 122.046 M 321.500 326.144 C 282.272 344.954, 271.791 347.873, 240.500 348.703 C 215.867 349.356, 186.676 346.540, 143.818 339.376 C 140.261 338.781, 140.115 338.875, 139.524 342.130 C 139.188 343.984, 135.145 365.750, 130.540 390.500 C 125.935 415.250, 122.242 435.569, 122.333 435.653 C 123.282 436.527, 169.121 443.149, 191.500 445.645 C 208.474 447.539, 253.143 448.206, 264.320 446.733 L 270.139 445.966 269.439 462.733 C 269.054 471.955, 268.589 479.671, 268.406 479.881 C 268.222 480.090, 253.994 475.878, 236.786 470.522 C 219.579 465.166, 205.125 460.719, 204.666 460.642 C 204.207 460.564, 197.874 478.050, 190.592 499.500 C 167.183 568.450, 164.446 574.765, 142.921 609.500 C 132.284 626.665, 77.120 713.762, 64.316 733.608 C 63.012 735.630, 64.408 736.723, 98.143 760.108 C 117.497 773.524, 134.613 785.335, 136.179 786.357 L 139.026 788.213 157.105 770.562 L 175.184 752.910 179.342 756.705 C 186.813 763.523, 201.830 780.290, 209.611 790.500 C 230.617 818.063, 250.124 850.567, 269.500 890.288 C 276.100 903.818, 281.950 914.916, 282.500 914.950 C 283.360 915.002, 358.670 877.427, 359.976 876.294 C 360.460 875.875, 365.823 606.949, 365.937 577.373 L 366 561.246 381.750 544.857 C 431.064 493.545, 482.562 436.911, 481.752 434.882 C 481.352 433.878, 406.905 373, 406.079 373 C 405.670 373, 403.807 374.913, 401.940 377.250 C 398.091 382.070, 375.014 408.196, 371.245 412 L 368.769 414.500 369.321 401.040 L 369.873 387.580 360.910 356.040 C 355.980 338.693, 351.271 322.137, 350.445 319.250 C 349.620 316.363, 348.394 314.035, 347.722 314.078 C 347.050 314.121, 335.250 319.551, 321.500 326.144 M 740 526.111 C 730.365 527.649, 725 529.166, 725.006 530.350 C 725.009 530.982, 731.647 552.146, 739.756 577.381 L 754.500 623.261 761 623.545 C 778.926 624.329, 793.219 636.543, 805.416 661.500 C 811.035 672.997, 816.640 688.911, 819.855 702.500 C 821.264 708.457, 822.149 710.467, 823.322 710.370 C 825.489 710.191, 917.404 690.734, 917.896 690.351 C 918.680 689.739, 912.661 666.217, 908.454 653.457 C 896.077 615.914, 880.900 589.873, 858.029 566.933 C 835.570 544.406, 810.640 531.194, 781.752 526.509 C 771.726 524.883, 749.053 524.667, 740 526.111 M 489 569.687 C 486.525 574.451, 480.609 584.234, 475.853 591.425 C 451.291 628.563, 421.325 657.352, 389.267 674.607 C 385.289 676.748, 382.026 678.855, 382.017 679.289 C 382.003 679.959, 418.477 757.137, 422.667 765.302 L 424.105 768.105 432.803 763.383 C 437.586 760.787, 446.225 755.751, 452 752.194 C 495.840 725.187, 537.705 681.233, 568.025 630.378 C 576.686 615.852, 584.383 601.050, 583.655 600.322 C 582.803 599.469, 495.580 561, 494.528 561.012 C 493.962 561.018, 491.475 564.922, 489 569.687 M 255.468 673.032 L 245.539 682.999 255.019 692.524 L 264.500 702.049 265.142 682.774 C 265.496 672.173, 265.698 663.402, 265.591 663.282 C 265.485 663.163, 260.930 667.550, 255.468 673.032 " stroke="none" fill="black" fill-rule="evenodd"/>
</svg>