<svg xmlns="http://www.w3.org/2000/svg" width="1000" height="1000" viewBox="0 0 1000 1000" version="1.1">
	<path d="M 382.504 71.664 L 347.507 106.230 352.417 110.675 C 396.965 151.007, 470.610 185.627, 542.722 200.137 C 546.145 200.825, 548.801 201.532, 548.627 201.707 C 548.040 202.294, 491.949 213.962, 480.157 215.950 C 421.090 225.909, 314.986 227.665, 206.572 220.477 C 194.511 219.677, 184.465 219.202, 184.246 219.421 C 183.602 220.064, 175.885 315.258, 176.373 316.530 C 176.651 317.253, 181.078 317.950, 188.159 318.386 C 296.205 325.032, 380.251 325.379, 447 319.456 C 480.448 316.488, 496.026 314.012, 541.373 304.454 C 555.604 301.454, 567.529 298.999, 567.873 298.998 C 568.218 298.996, 568.353 302.870, 568.173 307.605 C 567.002 338.503, 588.651 365.993, 625.708 380.660 L 635.239 384.432 634.726 389.966 C 633.900 398.888, 630.408 407.444, 620.914 423.812 C 615.973 432.331, 612.311 439.701, 612.702 440.343 C 613.090 440.979, 623.257 453.313, 635.295 467.750 C 648.078 483.081, 657.885 494, 658.871 494 C 659.800 494, 666.171 493.255, 673.030 492.343 C 710.868 487.317, 745.803 493.382, 761.025 507.620 C 768.324 514.448, 770.277 519.925, 770.785 535 C 772.164 575.868, 750.904 617.639, 712.223 650.061 C 702.432 658.269, 679.680 674.003, 677.613 673.997 C 677.001 673.995, 675.694 669.845, 674.710 664.774 C 671.070 646.030, 663.501 627.940, 652.297 611.205 C 645.009 600.320, 629.223 584.417, 617.543 576.194 C 607.836 569.360, 591.399 560.741, 580.934 556.998 L 574.368 554.650 571.673 543.075 C 562.463 503.512, 538.187 471.504, 504.303 454.247 C 486.047 444.950, 470.514 441.034, 449 440.304 C 419.201 439.294, 392.531 446.726, 367.842 462.921 C 326.906 489.774, 304.011 531.118, 300.408 584.691 L 299.722 594.882 289.387 601.115 C 229.995 636.937, 196 688.785, 196 743.545 C 196 777.109, 207.667 805.969, 230.377 828.584 C 247.919 846.052, 264.907 854.780, 293.305 860.914 C 331.680 869.202, 372.642 867.244, 408.674 855.399 C 430.446 848.241, 457.712 833.209, 475.500 818.556 C 482.392 812.878, 482.577 812.798, 487.500 813.365 C 490.250 813.682, 496.903 814.247, 502.283 814.621 L 512.067 815.300 509.783 817.733 C 506.181 821.571, 489.436 834.130, 478.492 841.202 C 454.771 856.529, 431.912 867.633, 403.771 877.497 C 397.870 879.566, 393.203 881.537, 393.400 881.879 C 393.597 882.221, 400.155 902.975, 407.974 928 C 415.792 953.025, 422.507 973.837, 422.894 974.249 C 423.793 975.205, 442.520 968.902, 460.162 961.705 C 542.752 928.017, 611.572 869.998, 648.013 803.341 L 653.425 793.442 664.962 789.105 C 755.930 754.905, 824.152 694.160, 853.367 621.349 C 870.148 579.527, 874.519 532.610, 864.988 496.611 C 858.844 473.402, 847.882 454.588, 830.489 437.397 C 809.787 416.936, 781.763 403.083, 747.250 396.251 L 734 393.628 733.996 382.064 C 733.986 352.119, 725.485 329.897, 707.760 313.483 C 701.864 308.022, 689.773 299.749, 684.549 297.601 C 681.992 296.550, 709.844 274.425, 741.799 252.122 C 767.929 233.885, 768.087 233.753, 766.299 231.669 C 764.024 229.016, 712.821 173.623, 708.598 169.246 L 705.459 165.992 676.479 172.966 C 660.541 176.801, 637.938 182.130, 626.250 184.807 L 605 189.675 605.001 187.088 C 605.001 185.664, 606.351 168.819, 608.001 149.654 C 609.650 130.488, 611 113.813, 611 112.598 C 611 110.518, 610.316 110.315, 599.250 109.107 C 533.394 101.917, 467.555 76.933, 425.724 43.259 C 421.448 39.817, 417.848 37.022, 417.724 37.049 C 417.601 37.076, 401.752 52.653, 382.504 71.664 M 432.500 540.402 C 430.300 541.100, 426.700 542.598, 424.500 543.733 C 420.197 545.951, 410.619 553.952, 411.368 554.702 C 411.619 554.952, 417.601 553.998, 424.662 552.581 C 431.723 551.165, 443.559 549.083, 450.964 547.955 C 458.370 546.827, 464.571 545.762, 464.746 545.588 C 465.328 545.005, 459.906 541.878, 455.804 540.431 C 450.855 538.685, 437.966 538.669, 432.500 540.402 M 453.157 647.595 C 439.143 650.123, 414.403 655.633, 412.900 656.562 C 410.911 657.791, 421.912 675.746, 429.951 684.391 C 434.637 689.430, 446.596 699, 448.206 699 C 450.707 699, 466.119 661.722, 469.394 647.750 C 470.178 644.403, 470.824 644.409, 453.157 647.595 M 563.793 676.265 C 561.822 683.544, 558.168 695.118, 555.673 701.985 C 553.177 708.851, 551.310 714.643, 551.522 714.856 C 551.735 715.068, 557.648 714.400, 564.663 713.371 C 579.542 711.188, 578.748 712.074, 578.886 697.500 C 578.984 687.034, 577.028 677.660, 573.327 670.859 C 568.087 661.233, 567.822 661.383, 563.793 676.265 M 313.818 706.046 C 301.266 718.824, 294.912 731.157, 294.713 743.127 C 294.574 751.532, 297.754 758.415, 303.012 761.093 C 312.232 765.788, 342.282 768.444, 359.129 766.053 C 370.374 764.456, 371.085 763.929, 366.605 760.512 C 356.700 752.957, 336.187 725.640, 326.993 707.762 C 324.522 702.956, 322.104 699.018, 321.620 699.012 C 321.136 699.005, 317.625 702.171, 313.818 706.046 " stroke="none" fill="black" fill-rule="evenodd"/>
</svg>