<svg xmlns="http://www.w3.org/2000/svg" width="1000" height="1000" viewBox="0 0 1000 1000" version="1.1">
	<path d="M 307 121.058 C 282.525 127.046, 261.488 132.192, 260.250 132.492 C 258.886 132.823, 258 133.795, 258 134.962 C 258 138.774, 265.337 157.800, 272.475 172.500 C 299.167 227.465, 343.009 267.200, 397 285.362 C 404.425 287.859, 411.787 290.037, 413.360 290.201 L 416.219 290.500 427.610 243.030 C 433.874 216.922, 439 195.478, 439 195.378 C 439 195.277, 435.738 194.204, 431.750 192.993 C 409.350 186.192, 389.207 171.599, 374.302 151.375 C 367.931 142.730, 359.409 126.991, 355.569 116.776 C 354.288 113.368, 352.848 110.487, 352.370 110.375 C 351.891 110.262, 331.475 115.069, 307 121.058 M 711.452 130.955 C 694.081 134.694, 682.746 141.332, 672.370 153.842 C 654.039 175.941, 646.639 213.559, 649.914 268 C 651.032 286.592, 654.527 325.213, 655.483 329.543 C 655.886 331.368, 654.413 332.101, 641.717 336.396 C 570.755 360.404, 513.070 396.547, 460.964 449.648 C 446.015 464.883, 426.112 488.282, 421.840 495.644 L 420.180 498.505 460.202 524.502 C 482.214 538.801, 500.786 550.825, 501.472 551.222 C 502.288 551.693, 504.802 549.258, 508.729 544.191 C 530.371 516.272, 564.346 485.907, 596.163 466.048 C 610.830 456.894, 636.109 444.146, 652.580 437.598 C 667.069 431.837, 669 431.295, 669 432.985 C 669 433.527, 669.661 441.065, 670.469 449.735 C 675.008 498.437, 676.452 530.683, 676.438 583 C 676.424 638.112, 675.772 649.920, 670.396 692.500 C 662.467 755.296, 645.221 822.421, 621.603 882.415 C 617.940 891.719, 615.079 899.736, 615.244 900.231 C 615.499 900.998, 701.772 937.845, 704.444 938.329 C 705.564 938.532, 716.357 912.052, 724.347 889.500 C 763.865 777.963, 780.546 661.503, 774.982 536 C 772.926 489.640, 767.908 423.326, 765.406 409.466 L 764.858 406.431 772.179 405.134 C 821.868 396.327, 856.719 392.277, 909.730 389.150 C 925.776 388.204, 939.154 387.180, 939.459 386.874 C 939.764 386.569, 938.103 369.799, 935.768 349.607 L 931.521 312.896 922.062 300.698 C 909.663 284.707, 887.036 257.466, 869.568 237.500 C 852.204 217.652, 811.890 177.132, 798.500 166.068 C 778.217 149.309, 758.001 137.499, 742 133.062 C 733.598 130.733, 717.609 129.630, 711.452 130.955 M 748.432 263.098 C 749.513 278.293, 752.181 307.471, 752.523 307.835 C 752.696 308.020, 761.148 306.782, 771.306 305.085 C 781.464 303.388, 790.726 302, 791.887 302 C 793.049 302, 794 301.715, 794 301.367 C 794 299.825, 755.203 258.993, 750.674 255.768 L 747.764 253.695 748.432 263.098 M 295.500 414.143 C 279.804 416.140, 268.117 419.660, 234.500 432.516 C 226.250 435.671, 215.962 439.312, 211.639 440.607 C 200.922 443.816, 172.819 448.421, 169.302 447.544 C 167.761 447.160, 164.416 444.687, 161.870 442.050 L 157.239 437.255 114.870 459.712 C 91.566 472.063, 72.124 482.529, 71.665 482.970 C 70.510 484.077, 72.849 488.284, 79.786 497.578 C 94.523 517.323, 114.228 532.479, 135.038 540.073 C 148.466 544.974, 156.082 546.281, 171.500 546.330 C 194.028 546.402, 229.036 539.688, 254.854 530.345 C 261.648 527.886, 267.343 526.015, 267.508 526.187 C 267.673 526.359, 266.514 532.422, 264.933 539.660 C 258.780 567.822, 251.795 608.711, 248.305 637 C 245.944 656.138, 245.980 700.242, 248.377 724 C 252.606 765.924, 260.134 800.588, 271.094 828.623 C 274.376 837.016, 290.552 867.156, 294.241 871.750 C 295.013 872.711, 304.222 873, 334.122 873 C 355.505 873, 373 872.651, 373 872.224 C 373 869.577, 380.167 821.163, 381.472 815 C 392.158 764.503, 415.160 708.566, 441.223 669.693 C 444.471 664.849, 446.987 660.478, 446.814 659.979 C 446.555 659.229, 414.239 636.056, 375.258 608.665 L 367.015 602.873 358.008 616.598 C 353.053 624.147, 349 629.913, 349 629.412 C 349.001 627.350, 353.278 602.287, 356.580 585 C 362.270 555.212, 370.368 519.556, 382.103 472.620 C 388.137 448.486, 392.945 428.618, 392.787 428.469 C 391.820 427.556, 340.102 414.965, 333.678 414.079 C 324.600 412.827, 305.596 412.859, 295.500 414.143 " stroke="none" fill="black" fill-rule="evenodd"/>
</svg>