<svg xmlns="http://www.w3.org/2000/svg" width="1000" height="1000" viewBox="0 0 1000 1000" version="1.1">
	<path d="M 573.165 117.326 L 525.830 125.398 526.413 128.316 C 526.734 129.922, 528.559 142.095, 530.469 155.368 C 539.167 215.830, 545.215 273.769, 549.063 333.500 C 550.432 354.742, 551.405 437.534, 550.339 442.081 C 549.644 445.047, 547.352 447.447, 537 456.052 C 464.706 516.146, 375.576 611.864, 298.446 712.238 L 292.500 719.976 291.868 706.738 C 289.723 661.800, 292.284 541.066, 296.639 481.814 L 297.277 473.129 301.389 472.445 C 308.454 471.270, 339.859 462.428, 354.500 457.491 C 392.007 444.845, 421.714 430.194, 444 413.352 C 455.494 404.665, 459.651 400.445, 473.791 383.107 L 484.714 369.714 475.781 351.267 C 462.961 324.794, 447.795 300.516, 425.646 271.014 C 396.145 231.718, 370.635 207.667, 345.500 195.451 C 331.667 188.728, 325.321 187.027, 311.397 186.308 C 297.381 185.584, 288.032 187.458, 275.412 193.521 C 240.343 210.369, 222.175 254.715, 209.121 355.327 L 206.374 376.500 203.442 376.174 C 192.955 375.007, 160.835 361.269, 146.804 351.949 C 142.694 349.219, 140.107 348.087, 139.259 348.647 C 138.549 349.116, 124.282 366.093, 107.555 386.374 L 77.141 423.247 79.820 425.500 C 85.821 430.543, 105.331 442.515, 118.241 449.077 C 140.590 460.434, 165.227 469.258, 187.347 473.827 C 192.763 474.946, 197.364 476.030, 197.571 476.238 C 197.778 476.445, 197.303 488.514, 196.515 503.057 C 192.658 574.282, 191.261 651.894, 192.899 704 C 195.346 781.835, 199.451 826.402, 208.278 871 L 212.534 892.500 251.243 892.762 L 289.952 893.023 300.144 877.762 C 359.562 788.781, 449.341 678.216, 520.799 606.019 L 542.097 584.500 541.507 591.500 C 540.035 608.976, 539.184 665.814, 540.029 690.222 C 541.728 739.291, 546.601 772.412, 556.617 802.969 C 570.782 846.179, 593.815 874.809, 627.425 890.981 C 658.922 906.137, 693.297 912.976, 738 912.981 C 776.714 912.985, 813.856 907.972, 856.603 896.973 C 872.651 892.843, 891.019 887.249, 892.228 886.122 C 892.879 885.516, 860.958 795.625, 859.615 794.282 C 859.313 793.980, 851.739 795.795, 842.783 798.316 C 816.401 805.743, 793.196 810.318, 768 813.058 C 752.231 814.774, 721.598 814.551, 707.959 812.621 C 687.467 809.722, 669.905 803.816, 663.806 797.772 C 656.952 790.980, 650.293 775.334, 646.026 756 C 642.395 739.546, 639.033 709.953, 639.010 694.250 L 639 687 650.250 686.990 C 689.887 686.953, 736.125 677.568, 771.925 662.291 C 851.954 628.141, 908.878 566.093, 924.194 496.314 C 927.152 482.838, 927.375 455.554, 924.630 443 C 914.913 398.562, 884.006 365.939, 837.519 351.055 C 785.505 334.402, 727.939 341.102, 665.089 371.126 C 657.162 374.912, 650.469 377.802, 650.214 377.547 C 649.960 377.293, 649.367 367.503, 648.897 355.792 C 646.613 298.838, 640.567 232.651, 631.423 164.500 C 625.434 119.866, 623.668 109.541, 621.993 109.390 C 621.172 109.315, 599.199 112.887, 573.165 117.326 M 319 299.278 C 319 299.430, 317.452 306.968, 315.561 316.028 C 312.047 332.859, 306.506 367.839, 307.238 368.571 C 308.264 369.598, 348.083 355.111, 357.217 350.388 L 360.029 348.933 356.126 343.217 C 342.203 322.826, 319 295.364, 319 299.278 M 760.500 442.459 C 730.539 447.931, 698.230 462.255, 660.436 486.821 L 646.371 495.963 644.155 530.231 C 642.936 549.079, 641.658 569.788, 641.316 576.250 L 640.694 588 651.386 588 C 682.587 588, 716.554 579.989, 744.821 565.964 C 766.998 554.960, 782.007 544.081, 797.705 527.630 C 816.879 507.536, 828.003 485.655, 827.998 468.040 C 827.997 459.989, 826.012 455.699, 820.282 451.361 C 808.619 442.531, 781.894 438.552, 760.500 442.459 " stroke="none" fill="black" fill-rule="evenodd"/>
</svg>