<svg xmlns="http://www.w3.org/2000/svg" width="1000" height="1000" viewBox="0 0 1000 1000" version="1.1">
	<path d="M 456.624 97.087 C 430.292 100.294, 408.649 103.049, 408.528 103.209 C 408.407 103.369, 408.882 109.290, 409.584 116.366 C 412.581 146.610, 413.489 169.158, 413.494 213.500 C 413.497 238.800, 413.125 263.823, 412.667 269.106 L 411.835 278.712 402.667 279.375 C 349.995 283.181, 303.022 285.006, 236.325 285.840 L 183.500 286.500 183 335 C 182.725 361.675, 182.684 383.910, 182.909 384.411 C 183.809 386.418, 314.395 383.667, 368.952 380.493 C 382.400 379.710, 393.548 379.214, 393.724 379.391 C 394.353 380.019, 386.847 398.521, 381.031 410.678 C 355.684 463.668, 307.984 518.230, 254.250 555.699 C 249.162 559.247, 245 562.383, 245 562.668 C 245 562.953, 256.995 581.601, 271.655 604.107 L 298.309 645.027 300.905 643.311 C 332.207 622.605, 372.382 603.968, 386.457 603.622 L 391.414 603.500 392.630 608.889 C 395.406 621.188, 396.191 636.423, 396.988 693.500 C 398.018 767.239, 399.393 783.763, 407.082 814.842 C 425.301 888.476, 474.468 923.393, 575.500 934.445 C 630.667 940.480, 711.329 937.805, 790.818 927.305 C 802.427 925.772, 803.108 925.558, 802.651 923.589 C 802.385 922.440, 798.884 900.430, 794.872 874.678 L 787.577 827.857 784.538 828.421 C 782.867 828.732, 772.050 830.104, 760.500 831.471 C 669.337 842.259, 587.186 841.096, 542.500 828.385 C 532.321 825.490, 520.239 820.182, 515.369 816.468 C 511 813.136, 505.578 801.874, 502.542 789.826 C 497.771 770.898, 496.878 757.852, 495.977 694 C 495.105 632.235, 494.404 618.974, 490.906 598.059 C 484.251 558.275, 467.875 530.773, 442.250 516.347 C 438.813 514.411, 436 512.617, 436 512.359 C 436 512.101, 437.867 509.140, 440.150 505.780 C 449.014 492.726, 460.483 472.769, 468.470 456.500 C 481.486 429.987, 489.226 408.742, 496.316 380.068 L 499.637 366.636 525.068 361.941 C 569.508 353.737, 674.546 332.018, 688.500 328.148 C 690.194 327.678, 691.417 326.703, 691.310 325.908 C 691.141 324.649, 671.715 238.825, 670.331 233.219 C 669.947 231.666, 669.242 231.106, 668.118 231.463 C 661.736 233.488, 573.579 252.056, 537.500 258.974 C 525.950 261.188, 515.518 263.226, 514.317 263.502 L 512.135 264.004 512.704 231.252 C 513.296 197.226, 512.155 160.359, 509.383 124 C 507.321 96.951, 506.695 91.703, 505.500 91.459 C 504.950 91.347, 482.956 93.879, 456.624 97.087 " stroke="none" fill="black" fill-rule="evenodd"/>
</svg>