<svg xmlns="http://www.w3.org/2000/svg" width="1000" height="1000" viewBox="0 0 1000 1000" version="1.1">
	<path d="M 414 81.625 C 390.075 91.819, 370.109 100.538, 369.631 101 C 368.482 102.108, 381.133 126.378, 389.599 139.305 C 419.471 184.921, 453.160 212.368, 493.665 224.089 C 526.464 233.581, 587.844 242, 624.240 242 L 635 242 635 193.104 L 635 144.208 627.250 143.632 C 622.987 143.314, 614.550 142.789, 608.500 142.465 C 570.608 140.433, 523.247 131.922, 509.500 124.673 C 496.051 117.582, 474.806 92.493, 463.925 70.852 C 461.754 66.533, 459.420 63.020, 458.739 63.045 C 458.057 63.069, 437.925 71.430, 414 81.625 M 478.939 300.960 C 448.516 304.845, 416.274 315.825, 380.247 334.570 C 371.309 339.221, 361.426 343.696, 358.287 344.513 C 348.511 347.060, 336.235 346.150, 323.222 341.916 C 321.951 341.502, 274.817 426.812, 275.593 428.123 C 276.315 429.344, 292.734 435.932, 301.046 438.335 C 316.250 442.733, 328.224 444.339, 346 444.366 C 373.981 444.408, 391.503 439.778, 421.465 424.425 C 431.659 419.201, 440 415.133, 440 415.385 C 440 415.636, 437.672 419.590, 434.826 424.171 C 428.231 434.786, 421.608 448.803, 419.550 456.500 C 411.467 486.726, 424.585 516.087, 452.089 529.330 C 457.265 531.822, 464.087 534.445, 467.250 535.158 C 470.413 535.871, 472.996 536.690, 472.992 536.977 C 472.988 537.265, 458.925 546.601, 441.742 557.725 C 356.988 612.591, 280.707 663.580, 259.059 679.838 C 235.928 697.209, 201.695 727.492, 126.626 796.991 C 109.095 813.221, 92.895 828.138, 90.626 830.140 L 86.500 833.779 92.018 839.640 C 95.053 842.863, 110.276 859.097, 125.846 875.716 L 154.156 905.932 186.756 875.716 C 241.953 824.555, 250.229 817.206, 255.500 814.671 C 263.887 810.638, 279.569 805.063, 292.488 801.522 C 360.289 782.940, 414.694 795.665, 457.534 840.124 C 468.558 851.564, 472.666 857.334, 486.456 880.750 C 492.368 890.788, 497.543 899, 497.957 899 C 498.371 899, 515.649 890.692, 536.354 880.538 L 574 862.077 574.001 852.288 C 574.002 837.010, 575.788 821.775, 578.638 812.732 C 590.804 774.134, 619.135 752.572, 664.974 747.025 C 683.031 744.840, 694.560 746.106, 709.667 751.932 C 740.164 763.693, 776.844 797.981, 810.832 846.500 C 819.889 859.430, 838.432 889.730, 843.420 899.750 C 844.858 902.637, 846.482 905, 847.031 905 C 848.002 905, 933.864 863.469, 934.774 862.559 C 936.129 861.204, 911.440 818.933, 896.191 796.500 C 826.813 694.433, 750.172 643.439, 672.158 647.436 C 599.496 651.158, 542.885 680.706, 508.229 733 C 504.037 739.325, 500.465 744.693, 500.291 744.929 C 500.118 745.165, 498.682 744.402, 497.102 743.233 C 483.284 733.018, 466.115 722.937, 449.738 715.426 C 438.803 710.410, 416.262 702.668, 409.250 701.520 C 406.913 701.137, 405.010 700.526, 405.022 700.162 C 405.047 699.394, 445.779 672.635, 508.500 632.183 C 572.236 591.076, 571.780 591.388, 580.343 583.095 C 624.289 540.537, 613.877 476.937, 558.808 451.555 C 554.789 449.702, 548.913 447.438, 545.750 446.522 C 542.587 445.607, 540 444.752, 540 444.622 C 540 444.493, 543.639 438.337, 548.086 430.943 C 566.575 400.205, 571.886 384.331, 570.699 363.366 C 569.005 333.450, 549.617 311.014, 518.500 302.961 C 509.418 300.611, 489.547 299.606, 478.939 300.960 " stroke="none" fill="black" fill-rule="evenodd"/>
</svg>