<svg xmlns="http://www.w3.org/2000/svg" width="1000" height="1000" viewBox="0 0 1000 1000" version="1.1">
	<path d="M 455.500 104.208 C 429.650 108.621, 408.365 112.353, 408.199 112.500 C 408.034 112.648, 408.596 117.883, 409.448 124.134 C 415.444 168.114, 416.835 236.669, 412.314 265.377 L 411.704 269.254 405.751 268.632 C 380.191 265.960, 342.886 254.243, 324.630 243.152 C 320.871 240.868, 317.421 239, 316.963 239 C 316.505 239, 301.025 255.009, 282.561 274.576 L 248.992 310.151 253.246 313.734 C 272.855 330.249, 308.926 347.165, 345.500 356.998 C 353.958 359.271, 379.778 365, 381.569 365 C 382.245 365, 372.219 385.297, 358.677 411.344 C 335.760 455.422, 331.397 468.517, 332.306 490.500 C 332.877 504.297, 334.923 511.718, 341.016 522.078 C 354.794 545.505, 381.604 559.422, 421 563.595 C 431.761 564.736, 431.823 564.979, 422.710 570.391 C 407.857 579.214, 371.794 603.511, 355.500 615.674 C 333.429 632.150, 321.615 642.016, 275.500 682.476 C 203.731 745.444, 153.462 788.562, 118.838 816.854 L 100.175 832.103 107.886 845.801 C 112.127 853.336, 123.225 873.114, 132.549 889.754 C 142.505 907.523, 149.982 919.826, 150.669 919.567 C 151.311 919.324, 162.786 911.077, 176.169 901.241 C 214.327 873.192, 234.511 860.415, 267.500 843.421 C 314.879 819.015, 353.299 807.015, 384.090 807.004 C 402.453 806.998, 415.592 811.221, 432.772 822.652 C 448.067 832.829, 458.816 844.302, 476.591 869.424 C 485.341 881.790, 492.885 891.800, 493.356 891.669 C 493.827 891.537, 507.160 882, 522.986 870.476 C 549.034 851.507, 552.122 848.953, 555.587 843.511 C 573.161 815.909, 602.574 783.380, 625.500 766.191 C 642.886 753.157, 661.614 745, 674.157 745 C 698.367 745, 740.289 784.361, 780.664 845 C 789.638 858.478, 802.106 878.822, 807.478 888.750 C 809.040 891.638, 810.686 894, 811.135 894 C 811.844 894, 846.225 876.190, 885.741 855.353 L 897.982 848.898 895.360 843.699 C 890.405 833.873, 871.738 803.479, 860.231 786.500 C 792.158 686.056, 727.427 640.484, 662 646.941 C 626.417 650.452, 591.847 666.074, 557.121 694.336 C 539.171 708.944, 526.761 721.300, 504.318 746.905 L 501.334 750.310 492.110 743.687 C 475.329 731.637, 456.777 722.226, 437.857 716.165 C 427.418 712.821, 410.173 709.042, 404.843 708.930 C 396.303 708.750, 396.792 707.972, 413.066 695.832 C 462.382 659.044, 519.226 626.546, 578.785 601.088 C 601.316 591.457, 617.278 585.600, 643.309 577.412 C 656.614 573.226, 667.562 569.734, 667.639 569.651 C 668.035 569.220, 659.160 472.827, 658.680 472.347 C 658.369 472.036, 642.676 472.310, 623.807 472.956 C 578.341 474.514, 520.465 472.752, 456.445 467.862 L 441.390 466.712 457.990 433.606 C 467.120 415.398, 477.220 393.926, 480.435 385.892 L 486.279 371.284 499.390 370.596 C 540.929 368.416, 588.904 361.428, 638 350.406 C 656.788 346.188, 692.198 336.974, 693.285 336.020 C 693.901 335.479, 668.846 244.304, 667.419 241.895 C 667.222 241.562, 659.510 243.264, 650.280 245.677 C 608.024 256.723, 565.557 264.916, 529.574 268.964 C 519.714 270.073, 511.521 270.854, 511.366 270.700 C 511.212 270.545, 511.614 265.937, 512.260 260.459 C 512.981 254.344, 513.423 234.869, 513.406 210 C 513.378 167.948, 512.393 150.916, 507.940 115.500 C 505.674 97.471, 505.343 95.963, 503.683 96.092 C 503.032 96.142, 481.350 99.794, 455.500 104.208 " stroke="none" fill="black" fill-rule="evenodd"/>
</svg>