<svg xmlns="http://www.w3.org/2000/svg" width="1000" height="1000" viewBox="0 0 1000 1000" version="1.1">
	<path d="M 674.994 79.464 C 655.271 82.672, 626.792 91.356, 605 100.809 C 574.410 114.078, 528.405 140.393, 501.286 160.133 L 495.071 164.657 524.111 203.578 C 540.083 224.985, 553.484 242.622, 553.891 242.772 C 554.298 242.921, 561.580 238.406, 570.072 232.739 C 611.623 205.006, 651.301 185.817, 681.500 178.848 C 691.961 176.434, 707.349 175.882, 710.747 177.799 C 715.812 180.657, 720.965 197.403, 721.755 213.571 C 722.598 230.856, 718.726 239.026, 705.493 247.876 C 693.529 255.878, 677.888 261.107, 655.500 264.590 C 647.076 265.900, 638.762 266.266, 620 266.153 L 595.500 266.006 587.147 287.134 C 568.299 334.806, 558.634 371.763, 556.022 406.152 C 555.074 418.631, 555.927 435.795, 557.916 444.277 L 558.801 448.053 555.112 444.720 C 535.780 427.255, 506.809 419.801, 482.410 426.014 C 448.910 434.545, 418.845 466.610, 395.947 518.232 C 393.573 523.584, 391.534 527.859, 391.417 527.732 C 391.300 527.604, 389.077 522.100, 386.478 515.500 C 383.880 508.900, 379.111 497.925, 375.883 491.112 L 370.012 478.724 381.756 466.318 C 388.215 459.496, 396.700 450.445, 400.612 446.207 L 407.723 438.500 373.400 403.500 L 339.076 368.500 327.572 379.950 C 321.244 386.248, 315.883 391.198, 315.657 390.950 C 315.432 390.703, 311.106 384.298, 306.044 376.718 L 296.840 362.936 298.925 359.402 C 302.658 353.075, 313.153 339.844, 328.475 322.145 C 366.960 277.693, 372.723 270.925, 379.260 262.500 C 402.830 232.122, 415.012 208.085, 418.028 186 C 423.110 148.794, 400.634 113.928, 363.346 101.174 C 354.488 98.144, 345.155 96.880, 331.987 96.927 C 308.127 97.011, 285.946 102.921, 240.273 121.362 C 204.039 135.992, 197.865 137.517, 176 137.237 C 167.475 137.127, 158.991 136.917, 157.146 136.769 L 153.793 136.500 140.066 181 C 132.515 205.475, 126.015 226.485, 125.621 227.690 C 124.998 229.590, 125.405 230.021, 128.702 230.954 C 144.137 235.319, 170.632 237.483, 190.492 236.001 C 219.866 233.807, 232.882 230.475, 270.822 215.435 C 285.299 209.696, 297.592 205, 298.140 205 C 299.267 205, 291.298 214.544, 266 243.493 C 227.449 287.608, 216.273 302.631, 206.111 324 C 191.524 354.671, 192.742 378.569, 210.494 410 C 213.445 415.225, 223.274 430.468, 232.336 443.872 L 248.813 468.245 236.844 483.236 C 150.686 591.155, 96.184 693.156, 83.351 770.500 C 80.613 787.003, 80.849 816.917, 83.826 830.734 C 101.430 912.436, 183.257 945.442, 265.872 904.164 C 327.723 873.262, 375.540 810.723, 398.641 730.519 C 407.064 701.275, 411.084 672.338, 411.060 641.125 C 411.043 618.916, 410.065 606.295, 406.914 587.628 C 405.813 581.098, 405.043 575.649, 405.205 575.520 C 405.367 575.390, 416.975 578.795, 431 583.087 C 445.025 587.378, 456.640 590.915, 456.810 590.945 C 456.981 590.975, 453.606 597.713, 449.311 605.918 C 445.016 614.122, 441.726 621.037, 442.001 621.283 C 442.275 621.529, 456.900 630.136, 474.500 640.409 C 503.526 657.353, 506.848 659.047, 510.250 658.640 C 512.313 658.392, 514 658.612, 514 659.128 C 514 661.721, 506.525 673.796, 483.749 708 C 456.596 748.776, 455.010 750.874, 428.816 780.698 L 411.077 800.897 451.589 838.948 C 473.870 859.877, 492.415 876.997, 492.800 876.994 C 493.185 876.991, 496.648 871.815, 500.496 865.493 C 504.343 859.170, 507.774 854.110, 508.120 854.249 C 508.465 854.387, 511.568 858.100, 515.014 862.500 C 523.481 873.309, 539.836 889.254, 549.543 896.163 C 570.600 911.151, 592.206 917.923, 615 916.680 C 651.932 914.666, 683.740 892.174, 710.241 849.332 C 729.636 817.977, 747.134 770.451, 757.081 722.105 C 758.153 716.898, 759.197 712.469, 759.402 712.264 C 760.394 711.272, 791.469 750.809, 805.175 770.500 C 814.458 783.838, 825.514 802.002, 832.747 815.802 L 839.602 828.878 883.551 808.460 C 907.723 797.229, 927.921 787.892, 928.435 787.709 C 930.620 786.932, 906.935 745.016, 890.348 720.307 C 874.427 696.589, 844.723 658.533, 823.453 634.606 L 818.214 628.713 825.931 622.991 C 838.355 613.779, 853.987 599.952, 862.887 590.302 C 906.916 542.559, 919.752 491.118, 898.520 447.500 C 887.198 424.240, 866.245 406.686, 838.963 397.604 C 807.696 387.196, 782.150 389.076, 751.500 404.040 C 734.780 412.204, 711.294 428.902, 692.887 445.715 C 688.274 449.928, 683.335 454.431, 681.911 455.721 L 679.321 458.066 671.065 447.523 C 666.524 441.724, 660.770 433.946, 658.278 430.240 L 653.747 423.500 654.339 414.500 C 654.664 409.550, 655.645 401.675, 656.519 397 C 658.548 386.148, 663.907 364.706, 664.810 363.830 C 665.189 363.461, 670.900 362.209, 677.500 361.047 C 710.666 355.209, 739.534 344.243, 762.194 328.875 C 773.614 321.130, 791.730 303.232, 798.507 293 C 808.354 278.132, 814.851 262.361, 818.695 244 C 821.194 232.064, 821.142 202.444, 818.598 188.508 C 812.099 152.906, 800.695 128.061, 782.414 109.674 C 768.616 95.796, 752.374 86.630, 732.074 81.265 C 723.719 79.057, 720.017 78.693, 703 78.408 C 689.696 78.185, 680.797 78.520, 674.994 79.464 M 791.951 494.274 C 778.391 502.002, 760.196 516.918, 743.071 534.347 L 735.641 541.908 739.485 550.204 C 741.599 554.767, 743.462 558.670, 743.625 558.878 C 743.789 559.086, 747.202 557.209, 751.211 554.707 C 779.911 536.799, 804.246 511.577, 809.077 494.732 C 809.781 492.278, 809.558 491.782, 807.378 490.954 C 802.850 489.232, 799.554 489.942, 791.951 494.274 M 581.759 495.500 C 582.167 497.150, 582.467 506.375, 582.427 516 C 582.365 530.990, 581.971 535.293, 579.686 546 C 578.218 552.875, 576.744 559.481, 576.411 560.680 C 575.908 562.485, 576.523 563.226, 579.999 564.999 C 582.306 566.176, 584.296 566.996, 584.421 566.820 C 585.078 565.894, 609.508 535.256, 610.684 533.883 C 612.108 532.221, 612.538 532.825, 583.259 495.367 L 581.018 492.500 581.759 495.500 M 288.172 578.250 C 237.930 646.164, 204.520 705.961, 188.077 757.398 C 181.907 776.699, 180.684 783.414, 180.589 798.517 C 180.457 819.367, 182.618 823, 195.153 823 C 215.267 823, 240.646 808.184, 261.634 784.188 C 286.055 756.269, 304.429 713.858, 310.673 671 C 312.925 655.536, 312.923 626.431, 310.667 611 C 308.051 593.106, 300.818 565, 298.829 565 C 298.359 565, 293.563 570.962, 288.172 578.250 M 655.457 636.286 C 621.307 681.570, 596.468 716.657, 586.886 733.147 C 577.731 748.902, 562.665 771.493, 548.971 790 C 540.384 801.604, 510 848.744, 510 850.461 C 510 850.692, 527.438 838.296, 548.750 822.915 L 587.500 794.949 589.997 798.225 C 593.735 803.129, 604.123 813.938, 607.233 816.160 L 609.966 818.112 614.433 813.516 C 633.899 793.486, 654.215 740.613, 663.440 685.972 C 666.398 668.451, 666.829 648.545, 664.531 635.649 C 663.761 631.331, 662.968 627.635, 662.769 627.435 C 662.569 627.236, 659.279 631.219, 655.457 636.286 " stroke="none" fill="black" fill-rule="evenodd"/>
</svg>