<svg xmlns="http://www.w3.org/2000/svg" width="1000" height="1000" viewBox="0 0 1000 1000" version="1.1">
	<path d="M 620.500 95.717 C 602.320 98.246, 582.116 107.836, 565.056 122.033 C 545.482 138.323, 521.867 174.924, 508.452 209.765 C 504.503 220.022, 504.497 220.030, 501.500 219.434 C 474.903 214.141, 445.193 206.306, 417.660 197.322 C 406.747 193.761, 397.605 191.061, 397.344 191.322 C 396.187 192.480, 362.997 281.549, 363.365 282.509 C 363.830 283.722, 397.328 294.908, 418.500 300.921 C 433.295 305.122, 455.320 310.676, 468.250 313.465 C 472.512 314.384, 476 315.391, 476 315.702 C 476 316.014, 473.780 327.121, 471.067 340.384 C 465.378 368.201, 459.090 405.381, 455.573 432 C 452.320 456.628, 446.533 513.866, 447.227 514.560 C 447.529 514.863, 463.465 515.533, 482.639 516.049 C 521.817 517.104, 532.499 518.006, 548.921 521.646 C 584.584 529.550, 609.823 545.421, 620.250 566.500 C 623.934 573.947, 625.756 580.239, 627.925 593 C 638.717 656.493, 626.035 733.246, 597.734 775.712 C 590.135 787.114, 580.098 797.184, 573.364 800.163 C 560.274 805.954, 533.598 797.047, 503.707 776.905 C 496.443 772.010, 487.771 765.779, 484.436 763.057 L 478.371 758.109 445.086 794.304 L 411.802 830.500 416.651 834.830 C 437.879 853.787, 473.594 875.992, 501.247 887.427 C 539.866 903.397, 577.172 905.008, 609.411 892.099 C 670.095 867.800, 715.006 791.145, 727.524 690.500 C 735.146 629.226, 727.633 560.007, 709.440 523.881 C 688.025 481.357, 651.212 451.024, 599.500 433.294 C 588.604 429.558, 562.995 423, 559.303 423 C 557.772 423, 557 422.410, 557 421.242 C 557 415.894, 567.940 357.781, 573.021 336.138 L 575.094 327.308 592.297 326.674 C 639.884 324.921, 704.649 313.731, 750 299.427 C 762.659 295.435, 813.007 276.361, 814.331 275.056 C 815.659 273.749, 790.312 212.627, 784.687 203.571 C 775.283 188.432, 762.815 172.066, 748.444 156 C 718.897 122.968, 685.618 101.954, 654.164 96.469 C 646.447 95.124, 627.766 94.706, 620.500 95.717 M 166.619 117.666 C 163.950 130.778, 148.659 240.431, 141.542 297.500 C 118.955 478.610, 111.980 599.297, 119.956 671 C 126.462 729.489, 137.114 783.338, 149.332 819.500 C 152.974 830.280, 178.630 887.744, 180.923 890.257 C 181.467 890.852, 252.402 843.042, 255.172 840.213 C 255.556 839.821, 259.077 827.125, 262.997 812 C 278.856 750.809, 296.114 690.390, 307.502 656.196 C 314.904 633.969, 327.833 601.192, 339.078 576.144 L 346.869 558.789 330.685 551 C 321.783 546.717, 301.781 537.124, 286.236 529.683 L 257.972 516.154 256.603 518.827 C 249.914 531.890, 229.653 580.470, 221.291 603.494 C 218.296 611.741, 215.594 618.716, 215.287 618.994 C 214.405 619.793, 215.920 564.107, 217.545 536 C 222.972 442.112, 238.391 305.401, 259.543 163.625 C 261.994 147.194, 264 132.994, 264 132.070 C 264 130.625, 257.511 129.367, 217.750 123.104 C 192.313 119.096, 170.532 115.596, 169.348 115.325 C 167.618 114.929, 167.083 115.388, 166.619 117.666 M 633.500 194.035 C 628.700 195.901, 617.323 210.481, 611.144 222.685 L 609.026 226.870 612.263 226.432 C 614.043 226.191, 621.125 225.309, 628 224.471 C 640.875 222.903, 670.142 218.191, 670.743 217.590 C 670.929 217.404, 668.038 214.463, 664.319 211.055 C 651.662 199.457, 638.398 192.132, 633.500 194.035 M 782.648 609.250 C 778.522 615.987, 767.043 634.775, 757.139 651 L 739.131 680.500 741.738 682.500 C 743.172 683.600, 747.925 687.165, 752.301 690.422 C 763.447 698.717, 777.003 711.875, 784.081 721.268 C 793.768 734.124, 805.632 761.005, 813.311 787.500 C 815.359 794.566, 817.346 799.612, 818.144 799.772 C 819.656 800.076, 911.757 779.576, 912.580 778.753 C 913.879 777.454, 903.859 744.396, 896.288 725 C 890.501 710.176, 878.182 684.573, 872.266 675.076 C 861.007 657.003, 839.870 634.031, 819.395 617.619 C 809.336 609.556, 791.835 597, 790.655 597 C 790.377 597, 786.774 602.513, 782.648 609.250 M 439.877 606.250 C 433.083 619.595, 412.483 651.019, 401.364 665 C 385.835 684.525, 348.478 719.392, 322.827 738.301 C 317.456 742.261, 313.221 745.950, 313.415 746.500 C 314.195 748.709, 367.070 826.523, 368.002 826.834 C 369.214 827.238, 391.312 810.713, 406.500 798.044 C 438.940 770.985, 466.598 742.684, 486.188 716.500 C 499.032 699.333, 520.670 665.483, 527.840 651.339 L 529.950 647.178 486.550 624.589 C 462.680 612.165, 442.900 602, 442.595 602 C 442.290 602, 441.067 603.913, 439.877 606.250 " stroke="none" fill="black" fill-rule="evenodd"/>
</svg>