<svg xmlns="http://www.w3.org/2000/svg" width="1000" height="1000" viewBox="0 0 1000 1000" version="1.1">
	<path d="M 359.908 85.053 C 336.584 97.637, 317.050 108.109, 316.500 108.324 C 315.921 108.552, 316.341 110.341, 317.500 112.579 C 319.951 117.314, 342.150 154.271, 347.424 162.399 L 351.253 168.299 343.512 167.597 C 320.671 165.528, 287.809 157.218, 268.792 148.703 L 263.083 146.147 254.694 161.823 C 230.306 207.398, 216.806 233.135, 217.133 233.430 C 220.706 236.643, 253.608 249.118, 271.158 253.914 C 318.499 266.851, 361.073 270.444, 406.892 265.368 C 414.258 264.552, 420.592 264.248, 420.969 264.692 C 421.345 265.136, 425.214 269.775, 429.567 275 C 433.919 280.225, 441.198 288.636, 445.740 293.691 C 450.283 298.747, 454 303.313, 454 303.838 C 454 304.363, 452.313 306.248, 450.250 308.027 C 438.495 318.163, 391.921 363.390, 374.654 381.435 C 299.928 459.531, 261.127 510.844, 217.176 589.694 C 199.244 621.864, 183.270 655.114, 174.559 678.398 C 170.089 690.348, 157.861 735.227, 158.819 736.171 C 159.851 737.187, 241.059 772.284, 241.409 771.865 C 241.577 771.664, 247.414 762.426, 254.380 751.335 C 268.278 729.207, 275.401 719.324, 289.894 702.055 C 328.531 656.021, 376.688 617.143, 424.867 593.091 C 436.561 587.253, 461.907 576.574, 462.548 577.215 C 462.737 577.404, 463.456 585.420, 464.146 595.029 C 465.832 618.514, 465.854 700.145, 464.180 723.500 C 459.329 791.186, 450.305 846.730, 435.375 900.802 C 432.292 911.967, 429.934 921.237, 430.135 921.401 C 430.765 921.914, 521.427 949.269, 522.891 949.387 C 525.571 949.604, 539.813 894.398, 547.112 855.500 C 548.866 846.150, 550.430 838.341, 550.587 838.147 C 550.744 837.954, 555.738 838.939, 561.686 840.338 C 583.131 845.381, 592.936 846.464, 617 846.449 C 641.784 846.434, 653.859 845.052, 673.500 839.982 C 748.410 820.645, 809.347 766.018, 830.792 698.977 C 849.284 641.171, 835.454 583.888, 792.587 540.731 C 766.225 514.190, 730.516 494.772, 680.238 479.637 C 641.772 468.057, 604.439 462.182, 566.381 461.720 L 548.262 461.500 543.625 438.299 C 541.075 425.539, 538.561 413.975, 538.038 412.601 L 537.089 410.103 530.294 411.963 C 526.557 412.986, 511.800 416.809, 497.500 420.459 C 483.200 424.109, 470.600 427.346, 469.500 427.653 C 468.288 427.991, 470.061 425.578, 474 421.530 C 480.519 414.830, 516.252 381.096, 523.209 375.075 L 526.918 371.865 536.931 379.448 C 577.388 410.086, 647.592 445.511, 689.500 456.434 C 697.085 458.411, 704.692 459.397, 721 460.517 C 732.825 461.330, 743.856 461.996, 745.513 461.997 L 748.526 462 756.332 433.250 L 764.139 404.500 747.069 333.145 C 737.681 293.900, 730 261.613, 730 261.395 C 730 261.178, 729.212 261.003, 728.250 261.006 C 726.161 261.012, 634.862 282.805, 634.216 283.451 C 633.969 283.697, 636.270 294.372, 639.328 307.172 C 642.385 319.973, 644.800 330.521, 644.694 330.613 C 644.587 330.704, 639.325 327.886, 633 324.349 C 617.804 315.852, 603.958 306.746, 604.342 305.500 C 604.723 304.262, 631.978 282.116, 653.750 265.353 C 662.688 258.472, 670 252.421, 670 251.906 C 670 251.177, 616.154 177.340, 612.913 173.625 C 611.898 172.462, 573.165 202.369, 540.388 229.626 L 529.275 238.866 525.561 235.062 L 521.846 231.258 525.173 229.280 C 527.003 228.193, 531.650 225.600, 535.500 223.519 C 554.773 213.100, 588.589 188.349, 606.806 171.327 L 614.112 164.500 580.636 129.527 C 562.224 110.291, 546.705 94.402, 546.150 94.217 C 545.594 94.031, 541.845 96.904, 537.820 100.599 C 520.131 116.838, 497.045 132.695, 475.074 143.698 C 467.058 147.713, 460.033 150.998, 459.462 150.999 C 457.594 151.001, 426.038 102.747, 410.261 75.762 L 402.317 62.174 359.908 85.053 M 428.775 467.750 C 420.267 476.962, 411.589 486.434, 409.492 488.799 L 405.680 493.097 411.090 490.888 C 414.065 489.672, 423.784 486.154, 432.687 483.069 C 441.590 479.984, 449.187 477.146, 449.570 476.763 C 450.418 475.915, 445.957 451, 444.957 451 C 444.566 451, 437.284 458.538, 428.775 467.750 M 561.355 569.599 C 564.797 621.129, 565.562 658.746, 563.977 698.500 C 563.275 716.100, 562.656 732.035, 562.601 733.912 C 562.500 737.311, 562.534 737.336, 570.847 740.228 C 588.225 746.272, 595.707 747.442, 617 747.442 C 634.902 747.442, 637.387 747.219, 647.329 744.721 C 671.348 738.686, 690.647 728.380, 707.842 712.405 C 737.412 684.935, 747.514 650.647, 733.719 624.581 C 729.927 617.417, 718.085 605.063, 709.442 599.257 C 679.543 579.168, 624.060 563.363, 573.097 560.416 L 560.693 559.699 561.355 569.599 " stroke="none" fill="black" fill-rule="evenodd"/>
</svg>