<svg xmlns="http://www.w3.org/2000/svg" width="1000" height="1000" viewBox="0 0 1000 1000" version="1.1">
	<path d="M 309.574 81.250 C 302.095 117.550, 288.212 158.721, 273.501 188.235 C 263.865 207.567, 258.069 215.338, 215.398 266.139 C 180.440 307.758, 164.767 329.623, 153.493 352.500 C 143.298 373.189, 139.312 389.840, 140.329 407.500 C 141.623 429.986, 149.417 445.834, 174.998 478 C 199.828 509.220, 207.526 524.203, 213.263 552.476 C 215.262 562.327, 215.498 566.427, 215.478 591 C 215.453 622.262, 213.786 637.257, 207.487 662.912 C 196.876 706.128, 171.340 767.139, 143.632 815.479 C 141.116 819.868, 139.383 823.770, 139.779 824.151 C 141.260 825.575, 220.566 873.325, 222.142 873.742 C 226.237 874.826, 260.584 807.026, 278.497 762.500 C 305.295 695.886, 316.441 639.640, 314.660 580 C 312.726 515.248, 296.702 472.378, 254.773 419.779 C 237.919 398.635, 239.051 401.517, 243.969 392.288 C 251.633 377.905, 266.165 358.891, 301.508 317 C 336.742 275.238, 348.048 259.523, 360.369 235.188 C 377.685 200.984, 390.355 166.239, 400.914 124 C 407.352 98.250, 407.650 96.332, 405.323 95.633 C 403.595 95.115, 311.846 79, 310.619 79 C 310.300 79, 309.829 80.013, 309.574 81.250 M 668.751 213.750 C 659.618 238.363, 651.876 259.192, 651.547 260.038 C 651.116 261.146, 652.284 262.223, 655.724 263.889 C 661.912 266.884, 671.297 273.591, 678.448 280.126 C 692.721 293.171, 702.971 311.909, 707.097 332.500 C 707.995 336.979, 708.454 345.263, 708.373 355.500 C 708.224 374.256, 706.784 382.944, 691.639 456.500 C 671.069 556.400, 667.496 582.381, 667.507 632 C 667.515 670.644, 669.321 686.677, 677.055 716.761 C 695.323 787.814, 744.993 857.693, 810.500 904.500 C 826.086 915.637, 853.591 930.902, 855.082 929.243 C 855.884 928.352, 892 840.205, 892 839.140 C 892 838.732, 889.862 837.360, 887.250 836.091 C 879.300 832.230, 861.073 819.669, 850.500 810.766 C 818.298 783.652, 789.601 742.979, 777.164 706.827 C 768.930 682.893, 765.872 663.081, 765.847 633.500 C 765.813 593.936, 769.874 565.728, 788.585 475.552 C 797.238 433.852, 804.316 395.830, 806.093 381.500 C 807.846 367.364, 807.601 336.940, 805.627 323.629 C 802.323 301.346, 797.182 284.631, 787.442 264.500 C 768.747 225.859, 738.069 195.039, 698.127 174.771 C 691.871 171.597, 686.439 169, 686.054 169 C 685.670 169, 677.883 189.137, 668.751 213.750 M 439.500 333.947 C 416.400 345.804, 396.754 355.954, 395.841 356.503 C 394.363 357.391, 394.783 358.807, 399.700 369.500 C 419.037 411.556, 433.326 456.685, 438.550 492.196 C 443.526 526.028, 440.090 597.861, 429.453 682.391 C 428.076 693.332, 427.073 702.370, 427.225 702.478 C 427.952 702.993, 524.050 716.283, 524.413 715.919 C 525.033 715.296, 530.632 669.508, 532.962 646 C 543.953 535.129, 541.916 484.889, 523.840 421 C 515.207 390.488, 499.591 348.973, 487.709 324.944 L 481.500 312.387 439.500 333.947 " stroke="none" fill="black" fill-rule="evenodd"/>
</svg>