<svg xmlns="http://www.w3.org/2000/svg" width="1000" height="1000" viewBox="0 0 1000 1000" version="1.1">
	<path d="M 479 62.254 C 453.425 66.125, 432.323 69.440, 432.108 69.621 C 431.892 69.803, 434.037 86.950, 436.875 107.726 C 452.020 218.593, 463.521 324.957, 471.006 423.391 C 472.131 438.181, 472.927 450.350, 472.775 450.433 C 472.624 450.516, 467.550 452.050, 461.500 453.842 C 400.855 471.806, 327.192 517.136, 275.989 568 C 254.800 589.048, 242.078 605.854, 232.458 625.500 C 224.139 642.490, 222.490 649.478, 222.548 667.500 C 222.603 684.306, 224.211 692.327, 230.667 708 C 251.154 757.734, 316.451 830.451, 421.500 920.521 C 439.059 935.576, 485.316 973, 486.365 973 C 486.969 973, 553.946 935.258, 554.931 934.363 C 555.663 933.698, 559.843 906.399, 561.954 888.500 C 564.395 867.795, 567.408 832.681, 569.501 800.553 C 570.359 787.382, 571.235 776.431, 571.449 776.218 C 571.662 776.005, 579.636 776.417, 589.168 777.133 C 607.711 778.528, 696.283 779.048, 697.562 777.770 C 698.219 777.114, 694.825 702.005, 693.416 686 L 692.843 679.500 647.672 679.429 C 610.094 679.370, 576.786 678.119, 575.381 676.714 C 575.220 676.553, 575.551 657.118, 576.116 633.523 L 577.143 590.624 582.139 585.157 C 592.063 574.299, 598.658 562.613, 602.545 549 C 605.349 539.180, 605.182 520.975, 602.193 510.585 C 597.985 495.959, 589.669 481.850, 579.110 471.425 C 573.063 465.454, 572.949 465.239, 572.449 458.925 C 572.169 455.391, 571.035 439.450, 569.930 423.500 C 563.590 332.060, 550.032 205.366, 534.455 92 C 529.183 53.631, 529.445 54.970, 527.231 55.109 C 526.279 55.169, 504.575 58.384, 479 62.254 M 666.405 153.750 C 666.736 156.912, 668.366 177.725, 670.028 200 C 671.690 222.275, 673.273 241.901, 673.545 243.613 C 674.009 246.534, 674.361 246.764, 679.261 247.344 C 686.459 248.197, 695.908 253.092, 700.982 258.597 C 708.439 266.686, 713.856 281.459, 715.797 299 L 716.517 305.500 724.508 305.222 C 739.247 304.709, 814.390 299.944, 814.840 299.493 C 815.876 298.457, 811.591 270.562, 808.550 258.546 C 803.161 237.255, 794.373 218.152, 782.766 202.500 C 771.262 186.986, 752.506 171.316, 734.721 162.360 C 718.463 154.172, 692.708 148, 674.802 148 L 665.804 148 666.405 153.750 M 199.569 224.164 C 179.067 267.801, 177.919 314.702, 196.495 349.732 C 216.881 388.175, 253.430 408.454, 291.793 402.608 C 326.328 397.346, 365.351 373.798, 427.798 320.539 L 441.822 308.578 439.477 305.791 C 438.188 304.258, 423.552 287.483, 406.954 268.513 L 376.775 234.022 369.637 240.335 C 340.410 266.187, 305.791 291.924, 288.113 300.942 C 282.379 303.868, 281.767 302.925, 282.304 291.987 C 282.616 285.629, 283.628 280.828, 286.304 273.013 C 288.274 267.260, 289.799 262.474, 289.693 262.378 C 289.587 262.283, 272.625 252.892, 252 241.510 C 231.375 230.128, 212.127 219.468, 209.227 217.821 L 203.955 214.827 199.569 224.164 M 422.500 579.309 C 391.119 598.359, 368.656 615.415, 346.663 636.894 C 336.699 646.625, 325.583 659.934, 322.687 665.603 C 321.171 668.568, 321.225 668.967, 323.893 674.603 C 335.912 699.983, 379.948 749.820, 435.276 800.658 C 463.500 826.593, 467.934 830.363, 468.425 828.848 C 468.994 827.091, 471.966 779.281, 472.267 767.028 L 472.500 757.556 466 755.227 C 433.035 743.416, 408.019 723.133, 396.543 698.911 C 390.974 687.156, 388.913 677.513, 388.870 663 C 388.777 632.182, 399.877 607.698, 425.704 581.750 C 431.042 576.388, 435.204 572.006, 434.954 572.012 C 434.704 572.019, 429.100 575.303, 422.500 579.309 " stroke="none" fill="black" fill-rule="evenodd"/>
</svg>