<svg xmlns="http://www.w3.org/2000/svg" width="1000" height="1000" viewBox="0 0 1000 1000" version="1.1">
	<path d="M 545.753 87.463 C 519.491 90.872, 497.840 93.850, 497.638 94.081 C 497.436 94.311, 498.100 101.700, 499.114 110.500 C 504.592 158.053, 512.380 258.954, 510.702 260.631 C 509.822 261.512, 487.285 259.136, 471 256.446 C 446.749 252.440, 419.474 244.854, 407.666 238.830 C 405.519 237.734, 403.424 237.212, 403.011 237.669 C 401.412 239.440, 351 319.231, 351 319.992 C 351 321.266, 367.400 329.351, 380 334.289 C 412.863 347.167, 458.998 356.680, 502.750 359.602 L 513 360.286 513 373.032 C 513 406.576, 507.203 471.688, 492.403 604.368 C 488.791 636.746, 486.211 663.558, 486.668 663.951 C 487.920 665.027, 570.021 693.312, 570.501 692.833 C 570.729 692.604, 575.724 683.661, 581.600 672.959 C 594.245 649.930, 599.216 642.500, 611.685 627.990 C 646.078 587.972, 690.647 564.986, 734 564.909 C 741.340 564.896, 747.608 565.454, 751.328 566.452 C 770.962 571.719, 786.425 585.573, 796.989 607.362 C 810.145 634.497, 811.157 664.545, 799.831 691.752 C 781.701 735.301, 709.075 783.702, 603.932 822.306 C 578.880 831.504, 548.825 841.289, 526.382 847.552 C 517.097 850.143, 509.383 852.358, 509.241 852.474 C 508.893 852.758, 531.884 947.218, 532.435 947.769 C 533.057 948.390, 560.108 940.885, 584 933.462 C 633.996 917.930, 679.964 899.845, 722.500 878.975 C 749.665 865.647, 766.509 856.091, 788.500 841.535 C 869.020 788.235, 905.888 729.218, 905.980 653.474 C 906.020 620.791, 899.680 592.440, 886.100 564.573 C 861.416 513.921, 819.624 480.124, 767.648 468.782 C 753.891 465.780, 718.441 465.537, 701.500 468.329 C 667.032 474.009, 638.057 484.795, 605.756 503.968 L 602.012 506.191 602.512 503.345 C 603.062 500.217, 607.348 454.802, 608.962 435 C 610.346 418.030, 611.988 381.969, 611.994 368.412 L 612 357.323 622.250 356.045 C 660.731 351.245, 715.164 338.905, 757 325.497 C 786.307 316.105, 832.741 298.659, 835.333 296.067 C 836.018 295.382, 833.182 288.154, 826.589 273.777 C 821.223 262.075, 812.037 242.031, 806.177 229.235 C 800.317 216.439, 795.067 206.176, 794.511 206.429 C 767.466 218.722, 711.607 237.234, 676.500 245.538 C 657.354 250.067, 615.579 258, 610.878 258 C 610.498 258, 609.918 253.838, 609.590 248.750 C 609.261 243.662, 608.295 228.475, 607.442 215 C 605.600 185.892, 601.892 142.543, 598.461 110 C 595.813 84.889, 595.224 80.925, 594.171 81.132 C 593.802 81.205, 572.014 84.054, 545.753 87.463 M 164.425 99.400 C 162.558 104.570, 144.222 228.672, 136.042 291.500 C 114.079 460.186, 110.397 547.450, 121.062 646.500 C 126.933 701.021, 139.157 767.762, 152.015 815.500 C 155.668 829.062, 173.825 889.066, 174.500 889.806 C 174.748 890.079, 261.047 855.172, 261.811 854.489 C 261.982 854.336, 264.304 842.576, 266.971 828.355 C 279.011 764.161, 292.264 710.998, 304.204 679 C 312.558 656.613, 326.766 622.681, 354.479 558.931 L 357.769 551.362 314.391 532.089 C 290.533 521.489, 270.190 512.601, 269.186 512.338 C 267.724 511.956, 266.709 513.321, 264.098 519.180 C 258.188 532.447, 225.391 609.329, 222.034 617.789 C 220.224 622.347, 218.586 625.920, 218.394 625.727 C 217.153 624.486, 214.806 582.959, 214.312 553.500 C 213.237 489.308, 219.395 414.380, 236.093 288.500 C 242.820 237.789, 257.442 138.846, 260.951 120.291 C 261.450 117.656, 261.552 115.208, 261.179 114.851 C 259.716 113.452, 164.823 98.298, 164.425 99.400 " stroke="none" fill="black" fill-rule="evenodd"/>
</svg>