<svg xmlns="http://www.w3.org/2000/svg" width="1000" height="1000" viewBox="0 0 1000 1000" version="1.1">
	<path d="M 194.224 114.204 C 186.951 139.693, 181 160.993, 181 161.537 C 181 162.081, 184.880 163.844, 189.622 165.454 C 201.056 169.336, 220.125 178.652, 230.558 185.453 C 244.520 194.553, 256.425 207.949, 262.666 221.582 C 264.030 224.562, 265.242 227, 265.358 227 C 265.474 227, 272.753 225.412, 281.534 223.471 C 290.315 221.531, 311 217.007, 327.500 213.419 C 344 209.830, 358.329 206.649, 359.343 206.350 C 361.816 205.620, 361.025 201.565, 355.863 188.504 C 347.798 168.101, 335.061 148.537, 318.629 131.314 C 300.791 112.617, 282.962 99.958, 255.500 86.490 C 238.966 78.381, 217.539 69.755, 210.784 68.487 L 207.447 67.861 194.224 114.204 M 630.500 155.669 C 547.977 160.760, 471.411 193.503, 414.666 247.968 C 386.736 274.775, 366.679 304.100, 345.906 348.500 C 318.550 406.970, 308.966 466.735, 319.071 515.844 C 333.131 584.180, 385.809 628.406, 449.934 625.712 C 513.344 623.048, 569.721 573.593, 616.883 479.261 C 640.585 431.855, 655.339 384.989, 661.668 337 C 663.584 322.475, 664.236 276.561, 662.731 262.119 L 661.962 254.737 668.231 255.426 C 684.063 257.163, 702.619 262.313, 714.500 268.267 C 740.506 281.299, 760.132 306.390, 771.839 341.574 C 779.449 364.442, 782.387 384.409, 782.349 413 C 782.317 437.656, 780.376 453.343, 774.432 476.993 C 754.370 556.819, 706.998 623.080, 654.310 645.015 C 621.399 658.716, 579.189 657.680, 543.121 642.286 C 536.298 639.374, 534.590 638.969, 533.924 640.105 C 533.474 640.872, 522.534 660.175, 509.613 683 L 486.120 724.500 491.810 727.398 C 540.515 752.201, 604.268 759.867, 657.500 747.320 C 736.039 728.809, 803.007 666.596, 845.292 572.861 C 863.948 531.506, 875.269 489.915, 880.096 445 C 881.796 429.173, 881.514 393.075, 879.553 375.526 C 875.409 338.457, 866.803 307.801, 852.034 277.500 C 826.440 224.990, 788.429 189.729, 736.791 170.596 C 706.814 159.488, 664.627 153.564, 630.500 155.669 M 158.734 289.708 L 123.969 324.542 129.734 331.040 C 159.245 364.301, 179 399.211, 179 418.102 C 179 429.132, 171.428 451.645, 152.799 496 C 122.752 567.538, 111.674 597.385, 103.951 627.598 C 92.096 673.975, 90.996 711.554, 100.526 744.513 C 108.615 772.486, 124.396 798.923, 147 822.365 C 166.133 842.208, 185.737 856.401, 213.500 870.511 C 269.586 899.015, 340.474 914.586, 443.500 921.031 C 471.660 922.793, 543.983 923.420, 568 922.111 C 640.674 918.149, 720.531 905.900, 807.500 885.375 C 837.886 878.204, 862.216 871.600, 862.677 870.398 C 862.984 869.599, 840.064 788.054, 836.531 777.374 C 836.283 776.626, 828.508 778.222, 813.329 782.138 C 729.626 803.730, 644.709 818.109, 572.170 822.972 C 552.626 824.283, 489.824 824.298, 462.500 822.998 C 386.392 819.380, 328.506 809.956, 284.292 793.986 C 272.260 789.640, 249.092 778.226, 240 772.165 C 216.683 756.622, 200.207 735.861, 194.986 715.445 C 192.574 706.016, 192.360 690.819, 194.444 677 C 199.141 645.855, 209.414 616.271, 244.794 532 C 262.881 488.921, 270.185 467.911, 275.205 444.533 C 278.254 430.333, 278.222 406.764, 275.134 392.227 C 270.986 372.695, 263.740 353.528, 253.312 334.500 C 241.314 312.609, 218.547 281.433, 200.868 262.687 L 193.500 254.873 158.734 289.708 M 554.454 272.910 C 533.701 281.610, 512.024 294.489, 495.824 307.742 C 485.493 316.194, 468.595 333.974, 461.363 344 C 449.651 360.237, 435.154 388.305, 426.528 411.445 C 412.604 448.800, 410.032 487.157, 420.005 508.744 C 424.098 517.604, 427.415 521.530, 433.278 524.451 C 442.804 529.198, 454.303 527.323, 466.524 519.030 C 473.473 514.316, 488.418 499.119, 496.059 489 C 521.251 455.638, 546.392 402.272, 556.954 359.743 C 562.824 336.107, 564.199 325.449, 564.726 299.500 C 564.994 286.300, 564.827 274.064, 564.356 272.309 L 563.500 269.118 554.454 272.910 " stroke="none" fill="black" fill-rule="evenodd"/>
</svg>