<svg xmlns="http://www.w3.org/2000/svg" width="1000" height="1000" viewBox="0 0 1000 1000" version="1.1">
	<path d="M 299.675 108.250 C 269.474 169.435, 246.540 238.046, 236.563 297.058 C 231.097 329.388, 230.496 337.727, 230.554 380.500 C 230.608 421.025, 231.526 439.819, 236.107 494.208 L 238.187 518.916 225.344 532.723 C 173.240 588.737, 141.135 632.334, 125.014 668.968 C 92.048 743.880, 103.729 814.891, 158.390 871.869 C 177.932 892.240, 210.268 915.028, 237 927.268 C 253.911 935.012, 253.891 935.007, 283.500 938.050 C 298.900 939.632, 313.136 940.943, 315.136 940.963 L 318.772 941 325.884 911.750 C 336.999 866.036, 342.612 835.580, 347.399 795 C 355.094 729.762, 354.694 702.661, 344.416 593.077 L 340.906 555.654 353.703 543.508 C 407.721 492.237, 466.100 442.970, 524 399.792 C 546.032 383.363, 575.564 362.461, 584.413 357.035 L 588.326 354.635 587.634 377 L 586.943 399.365 573.221 412.476 C 539.619 444.583, 512.020 469.002, 476.633 497.934 C 460.164 511.399, 453.004 517.849, 453.321 518.934 C 454.103 521.610, 500.067 624.460, 500.804 625.183 C 501.187 625.559, 513.230 617.909, 527.566 608.183 C 556.233 588.735, 574.014 578.584, 573.981 581.684 C 573.970 582.683, 572.869 593.836, 571.534 606.469 C 570.198 619.103, 569.216 629.549, 569.350 629.683 C 569.799 630.132, 628.480 662.234, 629.767 662.734 C 630.464 663.005, 638.564 658.262, 647.767 652.193 C 687.125 626.238, 723.611 611.892, 751 611.601 C 765.549 611.446, 768.958 612.788, 778.500 622.422 C 787.092 631.097, 791.216 637.337, 796.520 649.681 C 810.283 681.715, 810.459 727.218, 796.967 765.500 C 793.393 775.640, 784.475 793.664, 779.920 799.952 L 776.899 804.122 768.352 796.032 C 712.818 743.464, 662.020 719.370, 616.491 724.001 C 544.256 731.349, 507.951 805.211, 544.473 870.519 C 565.191 907.565, 606.319 933.110, 658.902 941.592 C 672.188 943.735, 706.897 944.568, 720.046 943.059 C 778.774 936.322, 828.583 904.865, 863.439 852.500 C 867.100 847, 873.654 835.300, 878.004 826.500 C 913.196 755.296, 915.147 667.580, 883.008 601.536 C 865.923 566.429, 841.635 540.332, 812.500 525.778 L 802.500 520.782 821 521.369 C 831.175 521.692, 849.625 522.858, 862 523.960 C 874.375 525.063, 885.474 525.973, 886.665 525.982 C 888.637 525.998, 888.878 525.355, 889.378 518.750 C 889.680 514.763, 890.154 494.594, 890.431 473.930 L 890.934 436.360 876.723 424.930 C 859.362 410.967, 837.495 389.421, 825.033 374 C 819.922 367.675, 815.404 362.368, 814.993 362.207 C 814.399 361.975, 741.159 416.735, 737.557 420.104 C 736.977 420.647, 737.457 422.126, 738.804 423.948 L 740.994 426.911 737.747 427.449 C 735.961 427.746, 728.875 428.874, 722 429.957 C 715.125 431.041, 705.042 432.848, 699.593 433.973 C 694.144 435.099, 689.577 435.902, 689.445 435.760 C 689.312 435.617, 693.254 431.014, 698.205 425.532 C 729.635 390.726, 751.923 360.011, 765.404 332.925 C 777.787 308.046, 782.663 288.895, 781.678 269 C 779.913 233.343, 759.765 207.139, 727.665 198.757 C 721.192 197.067, 716.703 196.637, 706 196.685 C 698.575 196.718, 690.362 197.195, 687.750 197.744 C 683.992 198.533, 683 198.468, 683 197.431 C 683 185.808, 673.062 90.729, 671.705 89.372 C 671.344 89.011, 578.135 102.682, 575.393 103.498 C 574.591 103.737, 574.639 106.407, 575.566 113.164 C 579.256 140.050, 584.386 196.985, 585.598 224.500 L 586.258 239.500 570.533 248.883 C 518.677 279.824, 451.432 328.645, 386 382.856 C 368.576 397.292, 365.134 400.239, 342.716 419.919 C 336.234 425.609, 330.771 430.093, 330.575 429.882 C 330.379 429.672, 329.703 416.675, 329.073 401 C 327.118 352.402, 330.662 319.596, 342.953 272.500 C 353.802 230.935, 373.374 179.681, 391.902 144.324 L 395.767 136.948 391.633 134.561 C 374.551 124.695, 310.546 89, 309.938 89 C 309.519 89, 304.900 97.662, 299.675 108.250 M 242.874 664.272 C 220.380 694.440, 208.926 718.089, 205.940 740.529 C 202.853 763.720, 211.093 784.971, 230.802 804.651 C 238.237 812.075, 245 817.547, 245 816.139 C 245 815.573, 245.880 809.123, 246.954 801.805 C 250.276 779.196, 253.064 750.304, 253.691 732 C 254.233 716.192, 252.821 676.401, 251.147 660.272 L 250.500 654.045 242.874 664.272 M 634.547 827.082 C 639.121 831.806, 644.315 835.059, 652.611 838.396 C 658.375 840.715, 672 844.216, 672 843.379 C 672 842.642, 655.735 832.364, 650.022 829.491 C 643.901 826.412, 634.502 823, 632.141 823 C 631.138 823, 631.985 824.437, 634.547 827.082 " stroke="none" fill="black" fill-rule="evenodd"/>
</svg>