<svg xmlns="http://www.w3.org/2000/svg" width="1000" height="1000" viewBox="0 0 1000 1000" version="1.1">
	<path d="M 669.504 76.119 C 609.804 96.254, 543.035 112.786, 476.500 123.906 C 451.261 128.125, 443.159 129.011, 421.500 129.921 C 372.115 131.996, 314.389 125.834, 257.167 112.379 C 246.534 109.879, 237.676 107.991, 237.482 108.184 C 237.038 108.629, 210 200.739, 210 201.809 C 210 202.793, 238.908 209.872, 261.548 214.432 C 290.214 220.206, 316.350 223.857, 355.290 227.528 L 362.080 228.168 361.566 233.834 C 361.283 236.950, 360.792 244.900, 360.475 251.500 C 360.158 258.100, 359.010 274.075, 357.925 287 C 344.446 447.508, 309.316 584.261, 259.093 671.725 C 232.463 718.100, 200.968 752.450, 167.214 771.931 C 162.146 774.856, 158 777.416, 158 777.621 C 158 779.231, 201.731 865, 202.552 865 C 204.298 865, 228.491 850.565, 236.936 844.485 C 264.734 824.470, 290.470 799.135, 312.142 770.449 C 368.933 695.279, 411.002 585.761, 436.388 447 C 447.983 383.622, 456.991 306.661, 459.506 249.500 C 459.820 242.350, 460.311 234.185, 460.597 231.356 L 461.117 226.213 469.309 225.048 C 499.919 220.694, 545.881 211.854, 583.500 203.085 C 595.050 200.393, 604.569 198.260, 604.652 198.345 C 604.736 198.430, 589.939 235.511, 571.770 280.747 L 538.735 362.994 551.495 390.988 L 564.254 418.983 567.877 418.506 C 569.870 418.244, 578.750 417.534, 587.611 416.929 C 619.486 414.752, 647.947 420.275, 674.412 433.772 C 712.665 453.281, 735.841 487.008, 745.979 537.924 C 750.386 560.060, 751.411 570.563, 751.401 593.500 C 751.389 622.318, 748.071 643.132, 739.526 668 C 731.424 691.579, 713.275 723.260, 695.988 744 C 669.344 775.966, 629.776 808.628, 585.207 835.447 C 578.996 839.184, 574.046 842.570, 574.207 842.970 C 574.368 843.370, 585.434 862.631, 598.798 885.772 L 623.096 927.846 630.298 923.576 C 676.210 896.361, 712.037 869.074, 744.554 836.555 C 777.850 803.257, 800.843 771.515, 818.866 733.966 C 851.043 666.929, 858.935 589.321, 841.490 511.500 C 826.413 444.243, 792.953 392.973, 741.890 358.888 C 722.092 345.673, 696.468 334.056, 673.316 327.798 C 666.817 326.042, 661.325 324.481, 661.111 324.330 C 660.897 324.179, 677.925 281.180, 698.951 228.778 L 737.179 133.500 718.840 100.076 C 708.753 81.693, 700.050 66.582, 699.500 66.496 C 698.950 66.410, 685.452 70.740, 669.504 76.119 " stroke="none" fill="black" fill-rule="evenodd"/>
</svg>