<svg xmlns="http://www.w3.org/2000/svg" width="1000" height="1000" viewBox="0 0 1000 1000" version="1.1">
	<path d="M 439.037 64.175 C 437.983 66.554, 429.027 86.704, 419.136 108.952 L 401.152 149.405 406.668 152.728 C 416.353 158.562, 424.174 164.160, 423.534 164.800 C 423.192 165.141, 412.020 169.195, 398.706 173.808 C 385.393 178.422, 367.525 184.624, 359 187.592 C 332.832 196.701, 306.450 201.735, 272.500 204.098 C 255.134 205.307, 220.182 204.779, 204.500 203.071 C 200.100 202.592, 196.443 202.267, 196.374 202.350 C 195.886 202.931, 181.937 299.270, 182.289 299.622 C 182.535 299.869, 189.433 300.699, 197.618 301.468 C 241.834 305.620, 289.476 303.844, 331.500 296.476 C 344.634 294.173, 367.130 289.058, 371.421 287.398 C 372.811 286.860, 369.829 293.479, 360.627 311.351 C 353.634 324.935, 348.159 336.448, 348.461 336.936 C 348.763 337.425, 352.270 339.617, 356.255 341.808 C 370.332 349.548, 396.623 368.198, 420.500 387.382 C 435.003 399.034, 456 417.167, 456 418.041 C 456 419.106, 406.939 448.044, 367.500 470.243 C 333.865 489.174, 310.804 501.580, 269 523.230 C 245.625 535.336, 226.188 545.525, 225.808 545.871 C 225.427 546.217, 234.062 558.425, 244.998 573 L 264.880 599.500 256.440 599.789 C 249.695 600.020, 248 600.382, 248 601.592 C 248 602.426, 250.475 624.495, 253.500 650.635 C 256.525 676.776, 259 698.351, 259 698.582 C 259 698.812, 260.996 699, 263.435 699 C 265.874 699, 269.090 699.464, 270.582 700.031 L 273.294 701.062 272.724 712.281 C 272.035 725.837, 269.427 738.034, 263.376 756 C 257.613 773.112, 250.389 788.197, 235.650 813.893 C 229.217 825.110, 224.077 834.401, 224.227 834.541 C 224.377 834.681, 243.120 846.805, 265.878 861.483 L 307.257 888.172 324.878 870.685 C 344.485 851.228, 352.838 845.097, 373.500 834.999 C 401.911 821.114, 433.887 812.920, 469.353 810.437 C 478.880 809.770, 479.172 809.811, 478.173 811.677 C 477.605 812.738, 466.534 830.622, 453.570 851.419 C 440.607 872.216, 430 889.392, 430 889.588 C 430 890.541, 452.293 903.008, 466.500 910 C 499.651 926.316, 530.130 936.004, 564.500 941.152 C 578.335 943.224, 619.595 942.939, 633.500 940.675 C 703.722 929.243, 763.085 888.891, 803.675 825 C 836.582 773.203, 853.577 710.543, 851.682 648 C 849.628 580.193, 825.406 519.378, 783.029 475.631 C 765.680 457.721, 749.021 445.273, 728.242 434.694 C 707.186 423.973, 678.824 415.145, 657 412.517 C 653.975 412.153, 650.717 411.634, 649.761 411.364 C 648.526 411.015, 653.170 407.015, 665.761 397.582 C 751.855 333.080, 794.943 282.900, 804.504 236 C 806.846 224.511, 806.150 203.945, 803.031 192.500 C 800.527 183.311, 794.671 170.289, 789.971 163.458 C 779.114 147.678, 761.143 133.772, 741.608 126.034 C 699.319 109.283, 635.449 110.750, 547.306 130.496 C 538.704 132.423, 531.179 134, 530.583 133.999 C 529.987 133.999, 526.353 129.837, 522.506 124.749 C 505.714 102.542, 479.555 80.248, 453.153 65.644 C 441.251 59.061, 441.301 59.066, 439.037 64.175 M 646.500 214.025 C 626.250 215.825, 593.025 221.367, 567.899 227.136 L 559.299 229.110 558.695 241.305 C 557.571 264.019, 551.261 304.337, 544.569 331.566 C 541.732 343.108, 536.115 360.662, 532.451 369.437 C 530.685 373.667, 602.547 322.786, 632.500 298.598 C 667.088 270.669, 695.961 240.862, 704.970 223.788 C 706.328 221.213, 707.133 218.800, 706.758 218.425 C 706.383 218.050, 702.572 216.883, 698.288 215.831 C 689.063 213.566, 662.203 212.630, 646.500 214.025 M 441.750 263.208 C 433.637 265.998, 427.019 268.555, 427.042 268.891 C 427.131 270.179, 452.329 287.067, 453.024 286.305 C 453.427 285.862, 454.503 280.325, 455.414 274 C 456.325 267.675, 457.288 261.488, 457.554 260.250 C 457.820 259.012, 457.692 258.030, 457.269 258.068 C 456.846 258.105, 449.863 260.418, 441.750 263.208 M 594.500 508.993 C 582.533 510.139, 562.410 513.128, 561.063 513.961 C 560.360 514.396, 561.406 517.892, 564.086 524.063 C 571.891 542.030, 580.317 565.571, 585.003 582.500 C 586.221 586.900, 587.302 590.596, 587.405 590.713 C 587.508 590.830, 593.871 591.412, 601.546 592.007 C 622.018 593.593, 646.151 597.554, 665.911 602.570 C 675.488 605.001, 683.533 607.199, 683.789 607.456 C 684.171 607.838, 656.494 699.139, 655.403 701.098 C 655.219 701.428, 649.316 700.233, 642.285 698.444 C 630.762 695.513, 619.027 693.285, 605.835 691.525 L 601.170 690.903 600.643 697.201 C 600.353 700.666, 599.616 710.161, 599.005 718.303 C 596.687 749.203, 588.591 790.511, 577.461 828.227 C 575.557 834.677, 574 840.581, 574 841.348 C 574 843.282, 581.151 844.088, 598.103 844.064 C 620.158 844.034, 640.114 839.507, 658.079 830.460 C 682.274 818.276, 705.086 796.715, 721.188 770.812 C 737.206 745.046, 748.358 712.259, 752.055 680.068 C 753.563 666.938, 752.758 635.580, 750.619 624.146 C 745.980 599.341, 738.255 579.671, 725.824 561.005 C 718.534 550.059, 705.308 536.263, 696.220 530.126 C 682.182 520.646, 663.689 513.606, 644.530 510.450 C 633.397 508.615, 606.596 507.835, 594.500 508.993 M 481.500 536.360 C 433.597 554.069, 371.093 584.974, 332.662 609.954 L 323.824 615.699 330.662 620.576 C 359.724 641.306, 374.004 675.095, 371.517 717.250 C 371.100 724.334, 371.194 729, 371.756 729 C 372.268 729, 375.120 728.166, 378.093 727.146 C 381.067 726.126, 388.675 724.030, 395 722.489 C 401.325 720.948, 406.638 719.582, 406.807 719.453 C 407.051 719.268, 391.676 695.546, 363.610 652.802 L 361.838 650.104 366.669 647.037 C 375.294 641.562, 406.156 626.540, 420 621.079 C 437.350 614.235, 455.997 608.199, 473 603.923 C 480.425 602.055, 486.677 600.420, 486.893 600.288 C 487.678 599.808, 478.609 575.167, 472.836 562.092 C 469.580 554.718, 467.272 548.360, 467.708 547.965 C 468.144 547.569, 475.700 543.372, 484.500 538.638 C 493.300 533.904, 500.050 530.041, 499.500 530.053 C 498.950 530.066, 490.850 532.904, 481.500 536.360 M 493 700.632 C 485.272 702.671, 460 711.075, 460 711.606 C 460 711.848, 466.750 711.742, 475 711.369 L 490 710.692 490 741.013 C 490 757.689, 490.196 771.138, 490.435 770.898 C 490.674 770.659, 492.444 762.596, 494.367 752.982 C 497.547 737.081, 500.274 717.938, 501.309 704.250 C 501.763 698.253, 501.860 698.295, 493 700.632 " stroke="none" fill="black" fill-rule="evenodd"/>
</svg>