<svg xmlns="http://www.w3.org/2000/svg" width="1000" height="1000" viewBox="0 0 1000 1000" version="1.1">
	<path d="M 867 137.090 C 812.021 138.540, 761.486 141.204, 715.500 145.077 C 682.817 147.830, 651.447 151.442, 423.386 178.713 L 375.500 184.439 334.500 184.451 C 293.629 184.462, 280.812 183.867, 237.500 179.942 C 213.953 177.809, 163.909 172.046, 147.541 169.584 C 142.063 168.759, 137.364 168.303, 137.098 168.569 C 136.658 169.009, 122.058 262.001, 122.017 264.622 C 121.996 265.995, 122.485 266.074, 161.234 270.965 C 244.213 281.439, 325.831 286.148, 371.859 283.116 C 386.342 282.162, 486.438 271.162, 495.217 269.559 C 497.667 269.112, 497.175 269.969, 490.206 278.282 C 466.536 306.514, 455.754 334.745, 455.750 368.500 C 455.745 405.811, 467.175 434.097, 491.348 456.596 C 500.913 465.500, 511.495 472.763, 529.679 482.907 C 547.203 492.682, 549.573 494.722, 551.630 501.800 C 555.277 514.346, 551.504 544.696, 542.515 575.112 C 535.198 599.872, 527.434 618.847, 504.599 667.778 C 484.694 710.428, 478.164 727.526, 474.064 747.727 C 463.154 801.479, 485.289 845.109, 538 873.745 C 564.179 887.967, 603.970 900.446, 654.792 910.374 C 686.837 916.634, 684.759 916.368, 685.351 914.281 C 686.754 909.335, 701.153 820.841, 700.733 819.746 C 700.432 818.961, 693.166 817.178, 681.872 815.116 C 646.545 808.667, 609.166 798.250, 590.755 789.722 C 580.552 784.996, 571.119 778.323, 570.358 775.292 C 569.488 771.822, 571.677 761.922, 575.726 751.017 C 577.670 745.782, 586.642 725.617, 595.664 706.204 C 604.686 686.791, 614.989 663.895, 618.558 655.323 C 639.446 605.161, 651.920 553.244, 651.983 516.211 C 652.048 477.125, 640.528 447.311, 616.352 424 C 605.166 413.214, 597.086 407.454, 578.500 397.018 C 555.325 384.006, 554.533 383.080, 554.512 369 C 554.494 356.502, 557.911 349.778, 570.780 336.984 C 589.543 318.331, 619.330 301.862, 662.732 286.145 C 719.429 265.613, 801.949 248.159, 876 241.037 C 887.825 239.900, 898.962 238.731, 900.750 238.439 L 904 237.909 903.997 202.705 C 903.995 183.342, 903.699 160.412, 903.340 151.750 L 902.687 136 899.593 136.156 C 897.892 136.242, 883.225 136.663, 867 137.090 " stroke="none" fill="black" fill-rule="evenodd"/>
</svg>