<svg xmlns="http://www.w3.org/2000/svg" width="1000" height="1000" viewBox="0 0 1000 1000" version="1.1">
	<path d="M 356.431 64.515 C 356.067 66.456, 356.071 71.522, 356.439 75.772 C 360.442 121.927, 393.209 158.599, 443 172.649 C 467.536 179.572, 509.329 182.975, 570 182.988 C 606.298 182.996, 648.393 181.996, 649.842 181.092 C 650.433 180.723, 649.909 162.211, 648.454 132 C 647.169 105.325, 646.091 83.500, 646.059 83.500 C 646.027 83.500, 616.188 83.500, 579.750 83.500 C 523.245 83.500, 510.966 83.237, 496.269 81.714 C 475.839 79.596, 465.047 77.069, 459.312 73.058 C 456.787 71.292, 454.975 70.575, 454.749 71.254 C 454.483 72.050, 440.780 70.850, 407.937 67.155 C 382.397 64.282, 360.509 61.719, 359.297 61.459 C 357.434 61.059, 356.991 61.531, 356.431 64.515 M 705.559 200.052 C 656.770 205.505, 595.175 219.131, 494 246.854 C 473.925 252.354, 434.325 263.206, 406 270.970 C 326.592 292.733, 265.973 307.250, 245 309.524 L 239.500 310.120 243 306.946 C 247.350 303, 265.995 288.939, 267.792 288.250 C 268.520 287.970, 268.909 287.204, 268.657 286.548 C 268.158 285.247, 218.390 207.280, 216.775 205.268 C 214.580 202.536, 183.106 226.869, 163.464 246.483 C 134.383 275.523, 121.016 301.675, 121.031 329.500 C 121.049 365.460, 147.425 397.650, 185.500 408.181 C 192.665 410.163, 195.900 410.397, 216.500 410.425 C 235.459 410.452, 242.048 410.063, 254 408.216 C 302.114 400.779, 344.480 390.481, 473.275 354.916 C 499.002 347.812, 520.326 342, 520.663 342 C 521.001 342, 520.945 362.025, 520.539 386.500 L 519.802 431 546.651 430.987 C 623.508 430.950, 706.749 424.465, 752.591 414.944 C 790.723 407.024, 812.164 396.997, 830.566 378.479 C 844.791 364.164, 855.396 345.470, 860.271 326.117 C 863.243 314.317, 863.407 291.071, 860.595 280 C 854.522 256.084, 839.851 235.565, 819 221.824 C 808.043 214.603, 802.697 211.968, 790.148 207.600 C 771.588 201.139, 762.396 199.740, 736.500 199.435 C 723.850 199.286, 709.927 199.563, 705.559 200.052 M 718.500 298.152 C 697.046 300.032, 662.772 306.247, 623 315.468 C 605.853 319.444, 561.073 330.771, 559.500 331.531 C 558.071 332.222, 604.248 331.119, 625 329.966 C 699.078 325.853, 752.987 317.167, 761.250 308.015 C 762.763 306.339, 764 304.558, 764 304.056 C 764 302.531, 753.801 299.218, 745.594 298.076 C 736.942 296.873, 732.959 296.884, 718.500 298.152 M 393.265 420.751 C 393.672 431.911, 394.407 437.811, 396.286 445 C 405.526 480.343, 425.290 506.531, 456.901 525.314 C 480.847 539.541, 518.184 550.546, 552.653 553.534 L 560.807 554.241 561.393 546.871 C 562.138 537.505, 565.011 469.514, 565.005 461.394 L 565 455.288 557.250 454.633 C 547.217 453.787, 530.714 450.003, 520.136 446.124 C 502.242 439.562, 494.579 432.751, 492.198 421.293 L 491.422 417.554 446.461 412.362 C 421.732 409.507, 399.526 406.908, 397.114 406.586 L 392.728 406.001 393.265 420.751 M 369.142 591.098 C 357.830 615.594, 349.165 635.563, 349.642 636.038 C 352.558 638.943, 386.742 650.849, 408.340 656.483 C 441.929 665.245, 456.338 666.899, 508.603 667.996 C 549.899 668.863, 563.555 669.726, 572.015 672.004 C 575.593 672.967, 575.934 673.374, 576.538 677.407 C 577.494 683.780, 575.550 694.226, 571.992 701.840 C 567.733 710.953, 555.894 728.364, 545.363 741 C 533.221 755.570, 499.844 788.745, 479.500 806.464 C 458.156 825.054, 429.047 848.391, 404.744 866.396 L 385.989 880.292 387.744 882.962 C 389.356 885.414, 440.939 959.990, 441.651 960.899 C 442.123 961.500, 448.436 957.024, 470.923 940.147 C 542.765 886.229, 600.374 832.547, 633.663 788.500 C 653.236 762.602, 665.480 739.112, 671.505 715.905 C 675.188 701.719, 676.156 674.591, 673.538 658.936 C 665.732 612.256, 634.413 582.620, 583.262 573.511 C 571.566 571.429, 550.161 570.207, 505 569.044 C 464.532 568.002, 457.548 567.222, 433.845 561.096 C 421.983 558.030, 404 552.184, 396.167 548.846 C 393.784 547.831, 391.309 547.003, 390.667 547.006 C 390.025 547.010, 380.339 566.851, 369.142 591.098 " stroke="none" fill="black" fill-rule="evenodd"/>
</svg>