<svg xmlns="http://www.w3.org/2000/svg" width="1000" height="1000" viewBox="0 0 1000 1000" version="1.1">
	<path d="M 815.500 76.690 C 794.651 85.040, 774.859 89.991, 746.300 93.999 C 688.367 102.131, 644.925 100.200, 612 88.032 C 607.325 86.304, 602.825 84.676, 602 84.414 C 600.902 84.065, 594.157 94.987, 576.804 125.219 C 563.772 147.923, 552.841 167.211, 552.513 168.080 C 551.339 171.191, 579.207 182.458, 603 188.492 C 629.515 195.215, 650.374 197.500, 685.250 197.500 C 701.063 197.500, 714 197.638, 714 197.808 C 714 197.977, 676.118 247.654, 629.819 308.202 C 548.369 414.715, 545.701 418.340, 547.619 419.894 C 554.085 425.134, 558.186 429.084, 556 427.968 C 554.625 427.266, 535.829 416.839, 514.232 404.798 C 492.634 392.757, 474.460 383.216, 473.844 383.596 C 472.349 384.521, 464.177 401.959, 457.846 417.737 C 447.489 443.548, 428.047 505.453, 417.467 546.307 L 414.669 557.114 408.584 551.200 C 400.398 543.244, 394.484 538.965, 385.785 534.705 C 359.155 521.665, 329.201 525.722, 306.222 545.483 C 297.046 553.374, 285.175 567.931, 279.180 578.643 C 278.402 580.033, 277.241 579.412, 271.383 574.467 C 267.597 571.272, 264.364 568.328, 264.199 567.925 C 263.843 567.060, 280.288 530.029, 295.474 497.500 C 310.851 464.561, 332.245 422.469, 344.519 401.007 C 374.480 348.621, 419.243 281.251, 464.781 220.010 L 477.786 202.521 474.734 199.010 C 473.055 197.080, 458.638 180.758, 442.695 162.741 L 413.708 129.981 409.603 132.387 C 322.250 183.579, 253.237 199.179, 222.696 174.636 C 217.900 170.781, 210.821 160.198, 208.362 153.205 C 206.819 148.817, 206.157 147.990, 204.500 148.382 C 203.400 148.642, 181.575 152.099, 156 156.065 C 130.425 160.031, 109.365 163.387, 109.199 163.522 C 109.034 163.658, 109.831 167.420, 110.970 171.882 C 117.921 199.107, 130.893 222.008, 150.440 241.566 C 175.221 266.360, 204.724 279.981, 242.500 284.067 C 254.579 285.374, 278.280 284.835, 291.810 282.947 C 296.381 282.310, 300.311 281.978, 300.544 282.211 C 300.777 282.444, 296.985 288.942, 292.117 296.650 C 266.858 336.650, 249.010 368.172, 229.636 407 C 194.151 478.121, 156.293 564.297, 113 672.500 C 97.207 711.973, 93.705 721.059, 94.151 721.410 C 96.271 723.079, 185.310 756.063, 185.896 755.397 C 186.331 754.904, 193.092 738.300, 200.920 718.500 C 208.749 698.700, 215.509 682.133, 215.942 681.686 C 217.715 679.851, 222.325 717.880, 224.101 749 C 224.827 761.712, 225.695 769.779, 226.386 770.235 C 226.999 770.639, 229.525 770.970, 232 770.971 C 234.475 770.972, 255.524 772.148, 278.776 773.583 C 302.028 775.019, 321.652 775.964, 322.386 775.682 C 323.129 775.397, 324.027 772.806, 324.414 769.835 C 325.707 759.891, 333.142 724.597, 338.173 704.520 C 343.379 683.742, 353.402 651.487, 354.950 650.531 C 356.668 649.469, 365.560 673.928, 378.528 715.386 C 383.153 730.173, 387.197 742.530, 387.513 742.846 C 388.184 743.517, 474.132 728.049, 475.257 727.055 C 475.673 726.687, 478.062 716.962, 480.565 705.443 C 506.275 587.134, 539.021 472.467, 557.525 435.950 C 559.817 431.428, 560.302 430.998, 561.788 432.174 C 562.711 432.903, 575.752 443.962, 590.769 456.750 C 605.785 469.537, 618.395 480, 618.790 480 C 619.186 480, 628.507 472.953, 639.505 464.341 C 685.662 428.193, 728.063 404.945, 761.500 397.452 C 772.756 394.929, 784.199 395.018, 787.765 397.654 C 791.675 400.546, 794.735 406.573, 797.158 416.151 C 799.721 426.287, 799.289 439.339, 796.005 451 C 791.147 468.250, 776.145 493.807, 758.435 515 C 738.217 539.195, 719.910 557.277, 677.828 594.619 C 665.547 605.516, 650.775 618.733, 645 623.990 C 639.225 629.247, 625.500 641.403, 614.500 651.004 C 587.833 674.277, 584.064 677.739, 566.179 695.384 C 535.246 725.903, 518.683 749.838, 511.429 774.500 C 507.577 787.598, 506.966 805.096, 509.928 817.500 C 521.969 867.935, 573.757 895.956, 670.738 904.511 C 690.261 906.234, 742.082 906.493, 764 904.978 C 792.691 902.995, 831.651 898.209, 858 893.430 C 872.819 890.742, 900.115 885.028, 901.158 884.395 C 901.725 884.051, 878.368 790.072, 877.491 789.168 C 877.314 788.985, 870.718 790.195, 862.834 791.857 C 823.715 800.103, 783.897 805.128, 741.930 807.114 C 695.656 809.305, 648.728 804.831, 618.795 795.376 L 610.865 792.870 614.622 788.185 C 627.548 772.066, 641.771 758.246, 677.517 727.073 C 688.507 717.487, 702 705.541, 707.500 700.525 C 713 695.508, 729.871 680.401, 744.991 666.952 C 775.656 639.678, 807.229 609.144, 821.978 592.500 C 882.025 524.737, 905.780 463.714, 895.449 403.764 C 887.215 355.984, 860.567 319.895, 822.591 305.094 C 808.320 299.532, 799.124 297.818, 779.777 297.111 L 763.055 296.500 826.526 213.500 C 861.435 167.850, 889.997 130.220, 889.998 129.878 C 890 129.285, 824.869 76.154, 822.595 74.893 C 821.993 74.560, 818.800 75.368, 815.500 76.690 " stroke="none" fill="black" fill-rule="evenodd"/>
</svg>