<svg xmlns="http://www.w3.org/2000/svg" width="1000" height="1000" viewBox="0 0 1000 1000" version="1.1">
	<path d="M 427.561 105.538 C 408.345 122.814, 392.005 137.567, 391.250 138.322 C 390.085 139.486, 390.806 141.126, 395.989 149.098 C 406.853 165.808, 419.894 194.154, 428.839 220.500 C 442.703 261.339, 454.912 321.960, 458.572 368.140 L 459.257 376.781 454.879 377.494 C 452.470 377.886, 438.125 380.422, 423 383.130 C 398.608 387.498, 343.109 395.992, 338.923 395.998 C 337.679 396, 337.084 393.939, 336.105 386.250 C 329.495 334.306, 312.070 299.019, 270.799 254 C 256.533 238.439, 227.346 212.371, 225.066 213.155 C 224.516 213.345, 210.999 231.037, 195.029 252.472 L 165.993 291.444 169.245 293.972 C 197.610 316.020, 225.126 350.091, 232.489 372.282 C 234.886 379.507, 239.741 404.658, 238.881 405.399 C 238.286 405.913, 187.167 408.905, 160 410.017 C 146.525 410.569, 129.571 411.285, 122.325 411.608 L 109.150 412.197 109.599 440.348 C 109.846 455.832, 110.311 478.047, 110.633 489.716 L 111.219 510.932 115.360 510.498 C 117.637 510.260, 129.400 509.814, 141.500 509.508 C 170.173 508.782, 227.215 505.867, 240.103 504.469 L 244.706 503.970 245.396 516.735 C 247.790 561.035, 252.608 583.619, 266.532 615.798 C 278.246 642.871, 286.945 656.086, 314.421 688.553 L 335.341 713.274 339.941 708.387 C 357.574 689.650, 431.147 609.975, 431.305 609.445 C 431.412 609.084, 415.300 593.753, 395.500 575.377 L 359.500 541.966 354.325 547.725 C 351.479 550.892, 348.907 553.241, 348.611 552.944 C 347.279 551.612, 342.219 496.448, 343.327 495.340 C 343.502 495.165, 353.963 493.659, 366.573 491.993 C 389.181 489.007, 425.593 483.156, 450 478.587 C 456.875 477.300, 462.641 476.370, 462.814 476.521 C 463.385 477.018, 460.935 532.143, 459.460 552 C 458.663 562.725, 457.083 580.653, 455.949 591.839 C 454.816 603.026, 454.028 612.907, 454.199 613.797 C 454.463 615.167, 461.931 616.273, 502.825 621 C 529.397 624.072, 551.292 626.337, 551.479 626.033 C 552.025 625.151, 555.814 587.248, 557.431 566.500 C 558.957 546.925, 560.552 514.594, 561.612 481.742 C 562.197 463.623, 562.290 462.967, 564.359 462.510 C 567.506 461.815, 606.444 458.255, 629.500 456.554 C 649.133 455.106, 674.995 453.688, 704.269 452.453 L 719.038 451.831 716.959 457.165 C 705.713 486.023, 684.262 523.813, 666.102 546.764 C 642.415 576.698, 611.070 602.572, 569.546 626.467 C 555.575 634.506, 524.972 649.699, 495 663.475 C 449.839 684.232, 432.610 693.373, 417.009 704.857 C 395.556 720.648, 383.493 737.585, 377.289 760.628 C 374.864 769.632, 374.630 772.126, 374.625 789 C 374.619 806.311, 374.795 808.078, 377.356 816.500 C 382.948 834.886, 390.834 847.764, 404.580 860.962 C 418.606 874.427, 434.876 883.775, 456.835 890.986 C 512.567 909.287, 598.018 909.093, 716 890.396 C 742.722 886.162, 763.887 882.446, 764.441 881.892 C 764.813 881.521, 747.219 785.886, 746.681 785.347 C 746.546 785.212, 736.100 786.880, 723.468 789.052 C 613.149 808.027, 530.052 810.994, 488.396 797.443 C 479.897 794.679, 472 790.555, 472 788.881 C 472 786.736, 477.831 782.190, 487.500 776.796 C 497.466 771.237, 511.341 764.585, 545.500 748.991 C 667.315 693.379, 729.471 641.576, 779.460 554 C 797.573 522.269, 810.695 491.800, 821.617 456.115 C 821.960 454.994, 823.899 454.863, 831.771 455.433 C 842.881 456.236, 858.823 458.198, 873.788 460.604 C 879.446 461.514, 884.270 462.063, 884.508 461.825 C 885.026 461.308, 903 368.897, 903 366.755 C 903 364.907, 878.781 360.813, 852.685 358.251 L 835.175 356.531 834.533 347.516 C 829.874 282.071, 808.173 226.834, 766.462 174.250 C 752.761 156.977, 719.814 125.242, 716.655 126.274 C 716.020 126.482, 702.832 144.375, 687.349 166.037 L 659.198 205.422 663.849 209.373 C 670.480 215.006, 682.323 227.324, 688.969 235.500 C 715.833 268.549, 731.366 305.679, 735.460 346.632 L 736.073 352.764 713.786 353.428 C 683.640 354.325, 654.736 355.731, 629.500 357.526 C 605.944 359.201, 565.109 362.741, 560.449 363.511 L 557.399 364.016 556.151 351.258 C 545.398 241.263, 512.113 138.303, 468.700 80.750 C 465.899 77.037, 463.359 74.028, 463.054 74.063 C 462.749 74.098, 446.778 88.262, 427.561 105.538 " stroke="none" fill="black" fill-rule="evenodd"/>
</svg>