<svg xmlns="http://www.w3.org/2000/svg" width="1000" height="1000" viewBox="0 0 1000 1000" version="1.1">
	<path d="M 504 101.537 C 482.825 102.805, 463.459 103.878, 460.964 103.921 L 456.429 104 455.261 117.250 C 453.920 132.464, 450.478 147.117, 446.083 156.325 C 436.175 177.087, 372.049 232.205, 304.500 278.021 C 292.950 285.855, 283.149 292.579, 282.719 292.963 C 282.058 293.555, 303.198 379.531, 304.268 380.601 C 304.472 380.805, 348.033 372.933, 401.070 363.107 C 454.106 353.281, 497.558 345.300, 497.629 345.371 C 497.700 345.442, 496.505 350.450, 494.975 356.500 C 492.529 366.169, 489.397 383.204, 487.529 397 L 486.920 401.500 472.210 406.868 C 448.211 415.627, 421.222 427.525, 392.500 442.007 C 343.855 466.535, 306.466 490.297, 272.987 517.961 C 259.635 528.995, 238.023 551.524, 229.716 563.071 C 221.490 574.505, 212.030 593.297, 208.358 605.500 C 205.894 613.690, 205.647 615.986, 205.624 631 C 205.601 646.186, 205.818 648.217, 208.346 656.500 C 219.530 693.136, 253.515 734.317, 318.413 789.872 C 366.784 831.279, 444.463 888.861, 505 928.184 L 519.500 937.603 555.500 930.725 C 575.300 926.942, 591.839 923.520, 592.252 923.121 C 592.666 922.722, 592.122 909.819, 591.044 894.448 C 587.526 844.306, 583.742 774.688, 582.391 735.250 L 581.698 715 584.599 714.991 C 604.918 714.924, 661.032 711.529, 693 708.433 C 722.057 705.618, 769.701 699.633, 770.656 698.677 C 771.036 698.297, 757.785 609.172, 756.473 603.285 C 756.202 602.067, 755.422 601.266, 754.740 601.505 C 753.086 602.086, 708.237 607.595, 690 609.458 C 657.212 612.809, 608.047 615.970, 588.410 615.990 L 579.320 616 578.650 589.141 C 578.282 574.369, 578.274 555.581, 578.633 547.391 L 579.287 532.500 585.893 525.121 C 612.006 495.955, 621.998 480.834, 626.929 463.020 C 629.438 453.957, 629.685 440.125, 627.491 431.460 C 623.298 414.896, 611.784 400.489, 597.035 393.354 C 592.653 391.234, 589.053 388.856, 589.034 388.068 C 589.015 387.281, 589.951 383.112, 591.113 378.804 L 593.226 370.973 604.363 360.353 C 614.548 350.641, 640.514 329.178, 654.001 319.324 L 659.502 315.305 694.001 309.016 C 712.975 305.556, 728.814 302.450, 729.197 302.113 C 729.823 301.563, 712.732 206.366, 711.861 205.551 C 711.541 205.252, 510.984 242.079, 505.196 243.500 C 503.449 243.928, 504.780 241.925, 510.696 235.219 C 514.988 230.353, 520.866 222.948, 523.757 218.762 C 542.163 192.119, 553.419 153.049, 554.228 113 L 554.500 99.500 548.500 99.366 C 545.200 99.292, 525.175 100.269, 504 101.537 M 431.500 532.837 C 372.706 563.064, 323.951 598.821, 308.060 623.364 L 303.621 630.221 305.833 634.391 C 313.343 648.548, 348.845 686.201, 379 711.992 C 405.461 734.624, 460.344 777.443, 481.911 792.282 L 486.321 795.317 485.702 785.409 C 485.362 779.959, 484.589 761.550, 483.985 744.500 C 483.382 727.450, 482.668 711.634, 482.398 709.354 L 481.909 705.207 473.204 702.505 C 450.509 695.460, 432.029 683.307, 421.433 668.458 C 405.851 646.622, 402.511 618.687, 412.027 589.775 C 417.176 574.130, 430.537 551.391, 445.827 532.250 C 450.331 526.612, 453.674 522.009, 453.258 522.020 C 452.841 522.031, 443.050 526.899, 431.500 532.837 " stroke="none" fill="black" fill-rule="evenodd"/>
</svg>