<svg xmlns="http://www.w3.org/2000/svg" width="1000" height="1000" viewBox="0 0 1000 1000" version="1.1">
	<path d="M 283.126 69.183 C 282.644 70.457, 276.595 88.150, 269.684 108.500 C 262.773 128.850, 256.004 148.730, 254.643 152.679 L 252.168 159.858 259.579 163.377 C 282.678 174.347, 298.024 189.942, 297.988 202.410 C 297.962 211.516, 290.364 231.429, 276.336 259.161 C 253.568 304.172, 222.658 350.713, 175.176 411.480 C 167.449 421.369, 161.211 429.533, 161.314 429.622 C 161.416 429.711, 177.250 437.977, 196.500 447.991 C 215.750 458.006, 236.998 469.084, 243.719 472.610 L 255.937 479.021 268.131 462.761 C 287.459 436.985, 297.841 425.056, 321.947 400.921 C 358.101 364.725, 387.007 341.361, 424 318.433 C 499.987 271.339, 582.182 254.590, 643.500 273.707 C 682.965 286.010, 706.264 316.532, 706.320 356 C 706.339 369.928, 704.190 378.675, 697.082 393.593 C 678.378 432.849, 638.644 465.625, 583.500 487.287 C 563.296 495.223, 532.500 504.036, 531.023 502.304 C 530.646 501.862, 529.770 499.475, 529.077 497 C 525.022 482.521, 515.855 465.452, 504.576 451.381 C 477.020 417.001, 437.667 398.507, 396 400.353 C 360.934 401.907, 329.223 415.791, 305.204 440.108 C 277.629 468.025, 268.484 503.448, 280.195 536.983 C 293.992 576.492, 325.734 601.850, 371 609.524 C 382.305 611.441, 399.604 612.998, 409.606 612.999 L 417.712 613 418.376 620.956 C 420.354 644.671, 432.463 667.644, 453.939 688.424 C 460.799 695.062, 461.860 696.499, 460.474 697.274 C 451.227 702.450, 426.440 723.887, 415.249 736.389 C 387.402 767.497, 377.792 804.707, 388.655 839.365 C 396.898 865.662, 418.841 891.693, 443.212 904.086 C 463.167 914.233, 492.659 921.530, 528 925.066 C 545.261 926.793, 602.187 927.376, 628 926.091 C 663.189 924.339, 720.083 919.251, 721.616 917.718 C 722.188 917.145, 709.644 821.262, 708.915 820.646 C 708.687 820.453, 701.300 821.087, 692.500 822.055 C 650.797 826.643, 634.799 827.464, 587 827.469 C 536.240 827.474, 525.462 826.682, 504 821.374 C 492.324 818.486, 486.881 816.096, 484.618 812.864 C 482.654 810.061, 483.960 807.393, 491.140 799.537 C 509.517 779.430, 551.814 755.156, 601 736.490 C 612.275 732.211, 621.821 728.432, 622.214 728.091 C 622.831 727.556, 628 650.789, 628 642.153 L 628 639 601.750 638.996 C 573.309 638.992, 562.932 637.914, 550.500 633.675 C 541.088 630.466, 534.698 627.127, 527.252 621.530 C 519.723 615.871, 516.756 611.962, 517.183 608.267 C 517.489 605.627, 517.811 605.486, 526.331 604.274 C 558.973 599.630, 596.994 588.938, 629.429 575.282 C 690.553 549.548, 740.586 509.788, 771.981 462 C 785.617 441.245, 798.429 410.110, 802.638 387.500 C 805.229 373.583, 805.261 337.780, 802.694 324 C 795.639 286.125, 779.709 255.039, 753.572 228.146 C 737.840 211.958, 721.827 200.599, 699.972 190.123 C 676.564 178.903, 653.042 172.531, 621.500 168.867 C 608.176 167.319, 569.351 167.343, 555 168.908 C 506.829 174.160, 462.920 187.248, 416 210.339 C 405.825 215.346, 397.152 219.609, 396.727 219.813 C 396.301 220.016, 396.240 215.304, 396.591 209.341 C 398.215 181.726, 388.915 152.043, 371.273 128.536 C 354.574 106.286, 327.871 85.732, 299 72.906 C 284.482 66.455, 284.183 66.385, 283.126 69.183 M 389.314 500.857 C 386.462 501.843, 382.227 503.907, 379.904 505.445 C 376.037 508.004, 375.841 508.331, 377.589 509.310 C 382.280 511.935, 391.471 513.180, 409.500 513.632 L 428.500 514.109 422.365 508.188 C 415.255 501.325, 409.682 498.984, 400.572 499.033 C 397.232 499.051, 392.166 499.872, 389.314 500.857 " stroke="none" fill="black" fill-rule="evenodd"/>
</svg>