<svg xmlns="http://www.w3.org/2000/svg" width="1000" height="1000" viewBox="0 0 1000 1000" version="1.1">
	<path d="M 505.500 114.619 C 462.595 119.063, 438.694 123.764, 401 135.175 C 329.412 156.846, 245.989 198.039, 171 248.745 C 162.475 254.509, 155.107 259.591, 154.626 260.037 C 153.991 260.626, 194.452 316.571, 211.500 338.676 C 212.275 339.681, 215.319 338.045, 225 331.421 C 275.229 297.054, 334.930 265.108, 387.517 244.457 C 424.167 230.065, 455.394 221.270, 489 215.876 C 505.247 213.268, 539.806 212.235, 553.637 213.943 C 664.475 227.630, 725.853 301.829, 741.462 441 C 743.606 460.111, 745.206 499.158, 744.476 514.500 C 743.202 541.236, 739.619 563.689, 732.874 587.197 C 714.753 650.355, 675.198 705.230, 622.019 740.987 C 617.037 744.337, 612.286 747.337, 611.460 747.654 C 610.470 748.034, 606.120 744.510, 598.672 737.295 C 559.439 699.288, 509.414 673.796, 461.500 667.392 C 445.305 665.228, 418.650 665.972, 404.500 668.985 C 376.982 674.843, 351.402 687.713, 335.011 703.948 C 284.815 753.666, 302.608 832.871, 371.729 867.393 C 412.882 887.948, 468.077 892.795, 531 881.381 C 634.797 862.552, 721.427 806.252, 778.900 720.271 C 811.207 671.939, 831.670 616.861, 840.117 555.500 C 844.301 525.102, 843.795 467.137, 838.976 425 C 823.502 289.677, 765.031 193.577, 669.511 146.477 C 638.650 131.260, 610.294 122.544, 573.500 116.965 C 562.792 115.342, 553.621 114.768, 534.500 114.524 C 520.750 114.348, 507.700 114.391, 505.500 114.619 M 428.978 764.952 C 420.426 766.092, 407 770.881, 407 772.792 C 407 774.270, 416.670 779.799, 423.650 782.311 C 439.366 787.968, 460.592 789.986, 483.978 788.045 C 491.941 787.384, 499.042 786.517, 499.756 786.116 C 500.609 785.639, 498.520 783.938, 493.681 781.169 C 472.868 769.261, 446.409 762.629, 428.978 764.952 " stroke="none" fill="black" fill-rule="evenodd"/>
</svg>