<svg xmlns="http://www.w3.org/2000/svg" width="1000" height="1000" viewBox="0 0 1000 1000" version="1.1">
	<path d="M 383.500 95.714 C 373.663 97.074, 351.568 104.222, 347.849 107.248 C 346.508 108.339, 349.313 114.037, 369.712 151.664 L 393.112 194.828 396.042 193.988 C 398.515 193.279, 399.273 193.532, 400.911 195.615 C 405.253 201.134, 405.894 211.844, 403.434 237.727 C 402.573 246.788, 402.010 254.308, 402.184 254.439 C 402.358 254.570, 418.065 259.957, 437.088 266.411 L 471.676 278.145 488.588 267.191 C 542.880 232.027, 600.095 205.434, 636.404 198.487 C 640.751 197.655, 644.527 197.194, 644.794 197.461 C 645.798 198.464, 602.813 240.219, 585.748 254.819 C 503.193 325.444, 364.865 423.356, 206.241 523.443 C 181.467 539.074, 178.137 541.471, 179.241 542.878 C 179.933 543.760, 195.542 562.036, 213.926 583.491 C 232.311 604.946, 247.449 622.639, 247.568 622.808 C 247.686 622.977, 257.561 615.839, 269.512 606.945 C 288.458 592.846, 307.244 579.948, 320.417 571.995 L 324.334 569.631 321.596 574.065 C 316.549 582.240, 305.990 604.407, 302.619 613.902 L 299.282 623.305 286.891 626.988 C 247.392 638.728, 205.946 658.812, 177.146 680.169 C 164.266 689.721, 143.984 710.278, 136.749 721.113 C 117.745 749.577, 112.509 780.187, 121.655 809.365 C 137.731 860.651, 194.120 895.570, 269.811 901.109 C 304.668 903.660, 349.587 897.398, 385.454 884.988 C 392.029 882.713, 398.246 880.404, 399.269 879.856 C 400.714 879.083, 403.630 879.967, 412.315 883.814 C 433.086 893.012, 457.333 899.785, 483.500 903.697 C 500.431 906.229, 548.985 906.225, 567 903.691 C 602.585 898.686, 627.550 891.302, 654.444 877.825 C 683.661 863.185, 713.207 839.953, 735.217 814.315 L 742.311 806.051 750.405 811.672 C 766.623 822.934, 793.085 843.173, 807.950 855.686 C 816.323 862.734, 824.511 869.591, 826.146 870.924 L 829.119 873.348 832.432 869.924 C 834.255 868.041, 849.375 851.894, 866.033 834.042 L 896.320 801.584 890.910 796.691 C 870.478 778.212, 836.223 751.306, 808.730 732.141 C 798.979 725.344, 791 719.536, 791 719.236 C 791 718.936, 792.534 713.922, 794.409 708.095 C 798.435 695.583, 802.217 678.955, 804.667 663 C 807.155 646.792, 807.158 608.954, 804.672 593.289 C 798.629 555.216, 785.633 523.441, 763.915 493.645 C 754.766 481.093, 731.716 457.864, 718.912 448.292 C 678.949 418.417, 632.963 400.840, 581.876 395.912 L 569.252 394.695 585.376 382.193 C 677.117 311.060, 726.884 261.617, 745.109 223.500 C 752.231 208.604, 754.397 199.874, 754.413 186 C 754.428 172.743, 752.873 165.858, 747.045 153.381 C 734.709 126.971, 713.092 109.260, 683.500 101.318 C 674.168 98.813, 672.098 98.632, 652.500 98.613 C 633.420 98.595, 630.311 98.843, 618.500 101.324 C 583.417 108.694, 553.189 119.822, 510.884 140.940 L 489.267 151.730 487.262 147.615 C 483.887 140.689, 473.756 127.864, 465.983 120.680 C 452.708 108.409, 436.837 100.319, 418.681 96.569 C 411.592 95.105, 391.451 94.615, 383.500 95.714 M 164.494 118.267 C 164.257 118.945, 163.169 124, 162.077 129.500 C 154.956 165.365, 156.020 199.885, 165.115 228 C 175.880 261.280, 204.400 293.455, 239 311.352 C 249.078 316.566, 261.693 321.715, 262.373 320.893 C 262.936 320.211, 289.104 226.767, 288.795 226.542 C 288.633 226.423, 285.800 224.818, 282.500 222.975 C 274.555 218.536, 264.042 207.932, 260.713 201 C 255.953 191.086, 254.827 176.009, 257.461 157.480 C 258.245 151.969, 259.168 146.727, 259.511 145.831 C 259.855 144.935, 259.756 143.967, 259.291 143.680 C 258.826 143.392, 237.983 137.482, 212.973 130.545 C 187.963 123.609, 166.920 117.731, 166.212 117.483 C 165.504 117.236, 164.730 117.589, 164.494 118.267 M 535 493.633 C 519.372 494.799, 485.587 500.367, 478.717 502.909 C 476.955 503.561, 477.797 504.098, 483.542 505.990 C 528.647 520.847, 560.755 565.231, 563.670 616.753 L 564.306 628.005 567.903 628.930 C 612.211 640.321, 666.197 656.916, 690.810 666.712 C 697.031 669.188, 702.287 671.046, 702.492 670.842 C 702.696 670.638, 703.826 665.977, 705.003 660.485 C 708.039 646.326, 708.805 619.212, 706.556 605.502 C 700.257 567.091, 678.416 536.565, 642.348 515.761 C 617.759 501.578, 589.784 494.309, 557.006 493.586 C 547.928 493.386, 538.025 493.407, 535 493.633 M 436 599.818 C 430.487 601.646, 422.730 606.009, 421.525 607.959 C 421.102 608.644, 423.384 609.001, 428.191 609.002 C 432.211 609.004, 441.527 609.465, 448.893 610.026 C 456.259 610.588, 462.449 610.884, 462.650 610.684 C 463.501 609.832, 456.782 601.938, 453.966 600.482 C 449.172 598.004, 442.244 597.748, 436 599.818 M 387.325 709.595 C 386.493 711.763, 388.757 723.936, 391.481 731.944 C 394.565 741.009, 400.970 753.184, 405.680 758.935 C 407.015 760.564, 423.802 740.315, 431.778 727.455 C 436.503 719.837, 442 709.661, 442 708.533 C 442 708.240, 429.836 708, 414.969 708 C 391.151 708, 387.864 708.190, 387.325 709.595 M 541.650 728.250 C 540.893 730.038, 539.035 734.425, 537.520 738 C 529.158 757.745, 511.509 787.936, 500.313 801.648 L 496.927 805.795 502.713 806.369 C 525.087 808.587, 544.687 807.692, 568 803.390 C 591.262 799.097, 609.043 791.958, 626.700 779.823 C 637.387 772.478, 653.148 759.049, 652.435 757.895 C 651.018 755.602, 550.486 725, 544.368 725 C 543.631 725, 542.407 726.462, 541.650 728.250 M 276 736.434 C 247.247 749.630, 223.276 766.826, 217.150 778.650 C 216.175 780.534, 216.527 781.244, 219.993 784.375 C 227.592 791.240, 244.615 798.187, 261 801.108 C 269.399 802.606, 297.856 802.948, 308.197 801.676 L 314.895 800.852 310.015 791.676 C 301.741 776.115, 295.442 758.542, 291.627 740.369 L 289.500 730.239 276 736.434 " stroke="none" fill="black" fill-rule="evenodd"/>
</svg>