<svg xmlns="http://www.w3.org/2000/svg" width="1000" height="1000" viewBox="0 0 1000 1000" version="1.1">
	<path d="M 548.492 92.157 C 533.087 133.227, 520.881 157.445, 502.700 183.015 C 498.600 188.782, 486.473 203.615, 475.751 215.978 L 456.258 238.456 463.189 243.641 C 470.682 249.248, 470.680 249.264, 462 250.489 C 431.744 254.758, 390.790 265.834, 360.500 277.940 C 296.610 303.474, 244.375 344.744, 210.441 396.500 C 180.328 442.429, 161.229 496.959, 154.402 556.500 C 152.326 574.604, 152.043 615.615, 153.871 633.500 C 160.624 699.586, 181.217 759.532, 214.160 808.996 C 226.513 827.544, 234.771 837.786, 248.486 851.566 C 266.279 869.443, 281.766 880.661, 304.735 892.311 C 382.818 931.914, 469.970 935.488, 539.836 901.952 C 589.440 878.141, 628.095 839.477, 658.259 783.500 C 661.519 777.450, 664.362 772.320, 664.578 772.099 C 664.793 771.878, 671.613 773.337, 679.734 775.340 C 696.771 779.542, 717.293 783.185, 738 785.682 C 749.101 787.021, 760.508 787.439, 786.664 787.465 C 805.455 787.484, 821.059 787.271, 821.340 786.992 C 821.821 786.513, 813.634 699.324, 812.436 692.166 L 811.878 688.832 800.189 689.504 C 787.201 690.251, 757.527 688.731, 740.549 686.449 C 727.699 684.722, 699.856 679.155, 698.729 678.088 C 698.305 677.686, 699.053 672.665, 700.392 666.929 C 716.593 597.540, 716.441 519.436, 699.964 446.837 C 691.053 407.575, 674.488 360.876, 657.385 326.795 L 654.020 320.089 658.966 286.334 C 661.686 267.768, 663.791 252.458, 663.644 252.311 C 663.497 252.163, 651.132 250.523, 636.166 248.666 C 621.200 246.808, 608.835 245.111, 608.688 244.894 C 608.541 244.677, 605.152 240.092, 601.157 234.704 L 593.893 224.908 602.551 210.385 C 612.449 193.784, 621.809 174.568, 631.233 151.500 C 641.098 127.353, 644.408 117.996, 643.401 117.106 C 642.467 116.280, 557.135 86.119, 553.373 85.285 C 551.522 84.875, 550.888 85.767, 548.492 92.157 M 415.500 362.883 C 337.969 389.193, 291.462 433.560, 266.529 505 C 246.066 563.631, 246.043 629.693, 266.465 691.500 C 278.677 728.459, 295.272 757.730, 316.627 779.979 C 328.136 791.970, 337.103 798.277, 354.285 806.468 C 380.370 818.903, 403.541 824.710, 431 825.694 C 457.158 826.631, 476.805 822.665, 498.540 812.058 C 528.180 797.594, 550.235 774.832, 571.289 736.979 L 574.915 730.459 565.208 723.315 C 502.915 677.471, 469.333 609.582, 474.855 540.660 C 475.523 532.322, 476.887 521.310, 477.885 516.189 L 479.701 506.878 473.979 503.989 C 460.526 497.198, 446.010 483.811, 437.125 470 C 432.172 462.302, 426.661 449.110, 423.965 438.500 C 422.173 431.447, 421.582 425.822, 421.232 412.500 C 420.713 392.791, 422.020 383.621, 427.551 368.146 C 429.448 362.841, 431 358.387, 431 358.250 C 431 357.705, 428.975 358.310, 415.500 362.883 M 555.295 372.903 C 531.880 385.142, 519 397.541, 519 407.843 C 519 418.986, 521.749 420.095, 543.024 417.530 L 557.548 415.780 572.561 431.140 C 580.818 439.588, 590.811 449.875, 594.767 454 L 601.961 461.500 599.024 450.500 C 594.716 434.369, 586.069 409.522, 579.060 393.139 C 573.383 379.867, 567.295 366.968, 566.736 367.024 C 566.606 367.036, 561.458 369.682, 555.295 372.903 M 601.859 476.500 C 584.520 503.742, 581.635 509.344, 577.613 523.583 C 572.273 542.489, 571.700 562.197, 576.017 578.500 C 579.993 593.515, 589.592 610.591, 601.453 623.750 C 604.056 626.638, 606.516 629, 606.920 629 C 608.747 629, 612.841 592.414, 613.632 569 C 614.543 542.079, 610.895 500.292, 605.689 478 L 604.405 472.500 601.859 476.500 " stroke="none" fill="black" fill-rule="evenodd"/>
</svg>