<svg xmlns="http://www.w3.org/2000/svg" width="1000" height="1000" viewBox="0 0 1000 1000" version="1.1">
	<path d="M 435.124 91.578 C 426.173 93.985, 416.322 99.854, 407.845 107.828 C 400.455 114.780, 387.754 130.441, 383.395 137.977 L 381.500 141.252 362 140.671 C 337.096 139.929, 320.309 137.445, 298.500 131.275 C 279.109 125.788, 258.001 116.369, 243.044 106.529 C 234.990 101.230, 234.508 101.050, 232.882 102.733 C 228.010 107.774, 170 174.492, 170 175.054 C 170 176.155, 184.888 186.792, 195.291 193.125 C 233.514 216.391, 278.256 231.393, 327.750 237.536 C 330.637 237.894, 333 238.406, 333 238.673 C 333 238.940, 330.781 245.085, 328.069 252.329 C 301.603 323.024, 285.538 399.659, 283.331 465.736 L 282.689 484.971 270.095 495.211 C 211.310 543.002, 161.716 598.012, 137.727 642.034 C 116.500 680.987, 112.049 723.306, 125.066 762.415 C 135.464 793.659, 157.673 823.372, 188.500 847.283 C 199.924 856.145, 202.035 857.491, 221.867 868.561 L 238.233 877.698 272.367 858.273 C 308.078 837.949, 323.953 827.912, 343.837 813.081 L 355.759 804.189 360.537 814.633 C 363.165 820.377, 365.688 825.307, 366.143 825.589 C 366.851 826.026, 454 782.354, 454 781.562 C 454 781.406, 451.818 776.603, 449.150 770.889 C 443.695 759.201, 434 735.653, 434 734.088 C 434 733.525, 438.766 728.020, 444.592 721.856 C 488.880 674.993, 539.928 607.907, 565.471 563 C 588.016 523.364, 604.320 480.128, 608.659 448.470 L 609.311 443.711 622.406 444.375 C 656.180 446.088, 679.448 456.723, 693.367 476.809 L 696.018 480.634 694.539 489.067 C 692.575 500.271, 687.944 516.850, 677.660 549.500 C 658.653 609.842, 654.583 628.512, 654.658 655 C 654.728 679.742, 660.141 696.101, 673.771 712.760 C 681.220 721.863, 697.711 732.575, 711.919 737.539 C 726.669 742.692, 737.877 744.419, 766.681 745.974 C 787.194 747.082, 788.517 747.300, 789.451 749.733 C 791.437 754.908, 764.270 771.028, 731.969 783.841 C 691.597 799.857, 633.773 815.816, 568.620 828.926 C 557.686 831.126, 548.506 833.161, 548.219 833.448 C 547.646 834.021, 563.642 928.976, 564.448 929.781 C 565.515 930.848, 623.628 918.616, 656.142 910.482 C 742.610 888.848, 805.163 864.110, 842.012 836.974 C 846.681 833.536, 854.573 826.623, 859.552 821.612 C 873.312 807.761, 880.572 795.995, 885.664 779.297 C 888.044 771.491, 888.347 768.866, 888.353 756 C 888.376 702.853, 860.870 664.238, 814.634 652.509 C 803.790 649.758, 791.398 648.269, 770.282 647.181 C 761.911 646.749, 754.748 646.081, 754.362 645.695 C 752.693 644.027, 759.332 618.735, 771.999 578.500 C 790.267 520.475, 794.193 502.759, 794.173 478.435 C 794.154 454.205, 788.729 439.521, 771.113 416.010 C 745.770 382.188, 707.623 358.721, 664 350.119 C 647.006 346.767, 636.652 345.822, 616.375 345.769 L 597.251 345.719 593.875 338.616 C 587.446 325.087, 577.341 311.188, 565.075 299 C 555.389 289.377, 542.423 279, 540.084 279 C 539.014 279, 492.501 363.337, 492.476 365.321 C 492.457 366.843, 490.303 367.999, 481.976 370.956 C 463.786 377.415, 429.868 392.126, 418.500 398.487 C 416.300 399.718, 408.270 403.966, 400.657 407.927 C 386.861 415.102, 386.815 415.118, 387.363 412.314 C 387.665 410.766, 389.106 402.750, 390.565 394.500 C 396.457 361.193, 412.202 306.825, 425.462 274 C 435.790 248.432, 441.299 236.958, 443.440 236.551 C 444.573 236.336, 452.261 235.647, 460.524 235.019 C 471.391 234.194, 482.543 232.405, 500.823 228.557 C 514.724 225.630, 526.313 223.021, 526.575 222.758 C 526.838 222.495, 525.057 205.404, 522.618 184.777 L 518.183 147.273 513.129 137.066 C 506.696 124.074, 501.025 116.152, 492.191 107.819 C 479.427 95.778, 465.232 89.941, 449.020 90.066 C 444.334 90.102, 438.081 90.782, 435.124 91.578 M 484.149 476.565 C 457.691 488.429, 425.459 506.281, 396.250 525.248 C 386.733 531.428, 384 533.691, 384 535.393 C 384 545.747, 395.601 613.341, 398.916 622.303 C 399.505 623.893, 400.743 622.860, 406.651 615.848 C 431.054 586.888, 458.689 549.057, 474.648 522.766 C 484.943 505.806, 502.188 470.757, 500.838 469.538 C 500.652 469.370, 493.142 472.532, 484.149 476.565 M 288.361 610.793 C 265.523 631.712, 233.125 671.943, 223.058 691.885 C 213.524 710.773, 214.168 727.119, 225.114 744.055 C 229.545 750.911, 239.634 762, 241.441 762 C 243.155 762, 261.028 750.892, 274 741.763 C 283.366 735.172, 302.480 720.282, 316.837 708.392 L 319.382 706.283 315.714 693.892 C 308.026 667.921, 299.231 632.041, 295.947 613.250 C 295.250 609.263, 294.414 606.019, 294.090 606.043 C 293.765 606.067, 291.188 608.205, 288.361 610.793 " stroke="none" fill="black" fill-rule="evenodd"/>
</svg>