<svg xmlns="http://www.w3.org/2000/svg" width="1000" height="1000" viewBox="0 0 1000 1000" version="1.1">
	<path d="M 160.607 101.750 C 159.421 107.654, 151.769 158.525, 146.053 198.500 C 120.940 374.146, 110.432 494.466, 113.915 566.500 C 117.757 645.966, 132.322 747.973, 151.967 833 C 160.567 870.221, 169.390 905.879, 169.927 905.584 C 175.842 902.334, 256.721 855.548, 257.256 855.067 C 257.672 854.693, 258.673 845.638, 259.480 834.944 C 265.829 750.789, 290.679 656.091, 324.986 585.314 L 333.801 567.128 290.902 544.564 C 267.307 532.154, 247.519 522, 246.928 522 C 245.525 522, 229.019 556.205, 220.876 575.987 L 214.500 591.475 213.848 584.987 C 212.318 569.758, 211.768 519.756, 212.891 498 C 217.415 410.380, 231.729 288.046, 255.628 132.762 C 257.129 123.006, 258.165 114.875, 257.929 114.694 C 257.509 114.370, 163.150 98.941, 161.829 98.980 C 161.461 98.991, 160.910 100.237, 160.607 101.750 M 776 132.073 C 713.052 150.481, 656.439 162.229, 612 166.104 C 595.565 167.537, 555.210 166.759, 529.500 164.512 C 501.547 162.070, 440.272 154.121, 429.321 151.516 C 427.381 151.055, 427.026 151.574, 426.085 156.249 C 424.523 164.006, 410.179 243.090, 409.813 245.959 C 409.451 248.803, 408.876 248.673, 445.423 254.012 C 500.330 262.033, 540.341 265.324, 583.500 265.368 C 616.560 265.402, 627.906 264.582, 658.414 259.954 C 665.517 258.876, 671.513 258.179, 671.739 258.405 C 672.297 258.964, 626.150 323.513, 602.682 355 C 566.442 403.623, 545.568 429.108, 522 453.503 C 486.321 490.433, 450.152 531.905, 396.414 597.500 C 373.016 626.061, 318.737 694.356, 318.208 695.901 C 318.047 696.371, 336.272 710.228, 358.708 726.695 C 401.387 758.021, 404.890 760.514, 405.336 759.885 C 409.784 753.626, 443.022 716.332, 451.636 707.937 C 477.008 683.208, 503.727 665.322, 522.460 660.526 C 534.180 657.525, 538.236 658.898, 546.695 668.725 C 560.658 684.949, 574.522 709.129, 589.523 743.426 C 594.966 755.871, 599.888 765.881, 600.460 765.672 C 601.032 765.462, 617.179 762.219, 636.341 758.464 L 671.182 751.638 679.675 740.569 C 712.070 698.346, 751.081 667.064, 778.483 661.336 C 787.422 659.467, 793.405 660.295, 800.187 664.338 C 806.415 668.051, 807.137 670.577, 804.532 679.537 C 795.367 711.064, 751.069 760.735, 693.593 803.930 C 677.960 815.679, 653.263 832.282, 637.750 841.471 C 632.388 844.647, 628 847.363, 628 847.505 C 628 847.731, 675.976 932.022, 676.550 932.803 C 676.672 932.969, 682.561 929.648, 689.636 925.422 C 742.589 893.793, 798.050 849.807, 833.642 811.211 C 872.574 768.992, 894.335 732.305, 902.166 695.688 C 905.436 680.397, 905.220 659.155, 901.655 645.500 C 898.569 633.676, 891.125 618.091, 884.200 608.952 C 868.885 588.741, 844.365 572.767, 817.191 565.300 C 808.252 562.843, 805.948 562.631, 787.500 562.568 C 765.053 562.492, 758.233 563.508, 740 569.649 C 710.949 579.435, 676.107 601.726, 648.392 628.261 L 643.284 633.152 638.470 626.326 C 624.095 605.945, 606.572 587.458, 593.308 578.682 C 584.108 572.595, 573.465 567.689, 563.251 564.827 L 555.181 562.565 563.340 553.582 C 567.828 548.642, 580.725 534.901, 592 523.047 C 622.512 490.969, 640.236 469.502, 679.407 417.180 C 718.596 364.834, 778.760 279.302, 822.683 213.493 L 834.702 195.487 818.645 160.243 C 807.314 135.375, 802.133 125.030, 801.044 125.100 C 800.195 125.156, 788.925 128.293, 776 132.073 " stroke="none" fill="black" fill-rule="evenodd"/>
</svg>