<svg xmlns="http://www.w3.org/2000/svg" width="1000" height="1000" viewBox="0 0 1000 1000" version="1.1">
	<path d="M 349.671 100.484 L 334.172 146.967 343.836 149.947 C 404.172 168.554, 473.838 184.566, 533 193.427 C 562.477 197.842, 604.913 201.986, 620.750 201.996 L 627 202 627.019 194.750 C 627.029 190.762, 627.692 168.850, 628.491 146.056 C 629.291 123.261, 629.718 104.385, 629.441 104.108 C 629.164 103.831, 622.764 103.262, 615.219 102.844 C 550.594 99.261, 457.298 81.389, 381.117 57.999 C 373.954 55.799, 367.436 54, 366.632 54 C 365.592 54, 360.692 67.429, 349.671 100.484 M 276.552 226.914 C 267.421 241.946, 258.449 264.291, 254.270 282.410 C 251.702 293.542, 251.981 322.086, 254.756 332.146 C 267.004 376.551, 302.645 402.829, 360.500 410.110 C 373.318 411.724, 410.701 411.740, 427.500 410.140 C 482.894 404.865, 550.074 390.242, 631 365.847 C 660.735 356.883, 709 341.148, 709 340.417 C 709 339.368, 678.104 248.771, 677.561 248.228 C 677.241 247.907, 664.946 251.544, 650.239 256.309 C 538.912 292.381, 458.822 310.485, 401 312.650 C 377.386 313.534, 352.850 310.380, 351.268 306.257 C 350.268 303.651, 353.059 294.233, 357.591 284.921 C 360.052 279.867, 361.937 275.606, 361.782 275.453 C 360.898 274.584, 282.316 221.675, 281.368 221.311 C 280.738 221.069, 278.571 223.591, 276.552 226.914 M 546 431.034 C 519.739 439.118, 493.912 445.836, 475.243 449.441 C 454.974 453.354, 433.246 452.925, 397.674 447.909 C 389.520 446.759, 382.601 446.065, 382.299 446.368 C 381.760 446.907, 364.035 542.300, 364.398 542.708 C 364.581 542.914, 394.679 547.253, 404.648 548.510 L 409.796 549.160 406.344 556.631 C 400.585 569.095, 398.727 577.718, 398.612 592.500 C 398.527 603.474, 398.873 606.669, 400.835 613 C 404.188 623.823, 409.135 633.493, 415.414 641.500 L 420.904 648.500 416.702 649.323 C 400.658 652.465, 360.420 661.773, 345 665.910 C 243.777 693.064, 186.601 722.881, 158.743 763.044 C 131.112 802.879, 129.962 847.071, 155.661 881.500 C 187.733 924.468, 256.512 946.766, 376.500 953.094 C 402.055 954.442, 497.039 953.776, 526 952.046 C 601.177 947.555, 666.396 941.529, 742.701 932.021 C 783.977 926.877, 832.144 920.189, 832.827 919.506 C 833.456 918.877, 819.946 823.826, 819.084 822.816 C 818.763 822.440, 807.700 823.668, 794.500 825.544 C 641.934 847.237, 494.798 858.294, 401.244 855.097 C 337.308 852.913, 295.124 847.356, 263.867 837.001 C 252.791 833.331, 242.753 828.854, 238.582 825.721 C 236.699 824.308, 236.704 824.214, 238.854 820.737 C 243.739 812.832, 258.760 802.284, 278.298 793.037 C 349.734 759.229, 495.327 729.281, 657.319 715.073 C 675.370 713.490, 690.411 711.923, 690.744 711.590 C 691.403 710.930, 693.864 640.386, 693.948 619.750 L 694 607 661.733 607 C 595.616 607, 542.011 600.592, 509.758 588.831 L 503.877 586.687 509.189 581.222 C 524.269 565.705, 553.725 545.628, 591 525.458 C 605.025 517.868, 616.665 511.533, 616.868 511.379 C 617.070 511.224, 607.008 491.501, 594.508 467.549 C 578.351 436.588, 571.308 424.016, 570.141 424.054 C 569.238 424.084, 558.375 427.225, 546 431.034 " stroke="none" fill="black" fill-rule="evenodd"/>
</svg>