<svg xmlns="http://www.w3.org/2000/svg" width="1000" height="1000" viewBox="0 0 1000 1000" version="1.1">
	<path d="M 271 106.269 C 244.875 111.227, 223.410 115.348, 223.300 115.426 C 223.190 115.504, 224.660 124.327, 226.566 135.034 C 236.459 190.580, 253.612 296.797, 252.802 297.486 C 252.636 297.627, 248.580 296.922, 243.788 295.919 C 220.663 291.076, 196.147 279.720, 181.636 267.128 C 177.356 263.414, 176.547 263.063, 174.900 264.204 C 167.882 269.064, 100.069 323.704, 100.038 324.523 C 100.017 325.086, 103.487 328.960, 107.750 333.131 C 143.608 368.223, 194.160 390.554, 253.406 397.472 C 260.505 398.301, 266.399 399.097, 266.505 399.240 C 266.906 399.783, 269.677 427.519, 269.368 427.895 C 269.189 428.113, 264.233 426.200, 258.355 423.645 C 252.476 421.090, 247.568 419.112, 247.448 419.250 C 246.872 419.906, 92 782.035, 92 782.725 C 92 783.323, 173.116 818.639, 181 821.473 C 182.102 821.869, 183.269 820.134, 185.398 814.936 L 188.296 807.861 193.750 813.180 C 202.227 821.449, 222.944 845.822, 233.842 860.347 C 246.485 877.198, 254.976 889.888, 269.409 913.500 C 275.796 923.950, 281.606 932.893, 282.319 933.374 C 283.186 933.958, 296.510 928.063, 322.558 915.571 C 343.976 905.299, 361.796 896.580, 362.157 896.197 C 363.355 894.926, 368.583 801.514, 371.458 730 C 376.930 593.927, 377.178 527.285, 372.436 467 C 370.734 445.366, 366.303 400.243, 365.403 395.377 C 364.833 392.299, 364.895 392.243, 369.662 391.537 C 379.533 390.076, 415.034 380.630, 433.467 374.560 C 458.125 366.440, 489.245 354.066, 488.662 352.613 C 485.378 344.427, 450.645 264.314, 450.162 263.808 C 449.798 263.428, 442.750 265.823, 434.500 269.129 C 414.143 277.289, 390.416 285.064, 370.983 289.943 C 362.096 292.174, 354.247 294, 353.541 294 C 352.745 294, 352.001 292.006, 351.583 288.750 C 348.669 266.090, 332.767 167.782, 324.447 121 C 320.263 97.474, 320.153 96.967, 319.231 97.127 C 318.829 97.197, 297.125 101.311, 271 106.269 M 651 187.159 C 632.365 187.883, 608.355 190.550, 592.873 193.617 C 588.268 194.530, 584.350 195.401, 584.167 195.555 C 583.984 195.708, 589.153 217.286, 595.654 243.506 L 607.474 291.180 611.487 290.533 C 658.587 282.942, 698.152 283.609, 739 292.683 C 771.897 299.991, 805.310 315.179, 829.984 334.041 C 835.060 337.921, 839.562 340.962, 839.989 340.798 C 840.937 340.435, 902.356 268.163, 902.854 266.824 C 903.261 265.735, 903.883 266.267, 888.743 254.763 C 835.483 214.291, 763.453 189.572, 692.500 187.418 C 683.700 187.151, 674.925 186.822, 673 186.687 C 671.075 186.552, 661.175 186.764, 651 187.159 M 275.073 605.250 C 274.590 606.487, 264.251 630.669, 252.097 658.986 C 239.944 687.304, 230 710.984, 230 711.610 C 230 712.236, 234.162 716.292, 239.250 720.624 C 244.338 724.956, 253.722 733.704, 260.105 740.064 L 271.710 751.628 272.336 738.064 C 274.005 701.950, 276.854 602.998, 276.225 602.999 C 276.074 603, 275.555 604.013, 275.073 605.250 M 514.054 651.357 C 510.439 660.865, 508.153 691.164, 509.870 706.795 C 514.096 745.258, 527.394 773.573, 553.427 799.544 C 601.620 847.621, 681.114 866.597, 796 857.446 C 821.921 855.382, 883.127 847.304, 884.554 845.760 C 884.893 845.393, 868.057 749.723, 867.567 749.234 C 867.346 749.013, 858.241 750.204, 847.333 751.881 C 760.047 765.300, 694.087 763.807, 651.742 747.454 C 620.303 735.312, 606.954 717.009, 608.270 687.846 L 608.750 677.193 572.625 666.457 C 552.756 660.552, 531.634 654.255, 525.686 652.464 L 514.871 649.208 514.054 651.357 " stroke="none" fill="black" fill-rule="evenodd"/>
</svg>