<svg xmlns="http://www.w3.org/2000/svg" width="1000" height="1000" viewBox="0 0 1000 1000" version="1.1">
	<path d="M 442.309 97.822 C 418.004 107.572, 397.850 115.817, 397.523 116.144 C 397.195 116.471, 399.368 123.460, 402.350 131.675 C 423.144 188.957, 437.938 251.230, 442.101 299 C 443.511 315.183, 442.793 349.829, 440.525 375 C 438.711 395.144, 434.170 437.483, 433.487 440.624 C 433.099 442.409, 431.469 443.101, 423.263 444.967 C 404.360 449.263, 352.289 462.108, 334 466.986 C 302.630 475.354, 282.188 478.138, 237.519 480.127 C 217.661 481.011, 203.894 481.003, 179.108 480.092 C 157.559 479.301, 146.472 479.236, 146.062 479.900 C 145.246 481.220, 137.491 575.825, 138.145 576.479 C 139.384 577.718, 174.574 578.983, 208.017 578.991 C 272.456 579.007, 310.396 575.163, 351.270 564.476 C 364.855 560.924, 410.539 549.437, 422.750 546.503 C 424.901 545.986, 425 546.237, 425.006 552.231 C 425.021 567.948, 429.847 587.536, 436.741 599.865 C 446.801 617.853, 469.741 634.970, 495.127 643.430 C 505.061 646.740, 523.506 651, 527.907 651 C 529.058 651, 530 651.382, 530 651.848 C 530 652.314, 526.012 660.977, 521.138 671.098 C 497.607 719.959, 484.662 758.111, 479.439 794 C 476.981 810.887, 477.832 835.946, 481.314 849.206 C 491.737 888.901, 519.243 912.688, 567.079 923.374 C 621.020 935.424, 711.120 931.890, 822 913.375 C 830.525 911.951, 837.664 910.633, 837.864 910.446 C 838.286 910.051, 820.075 814.742, 819.460 814.127 C 819.234 813.901, 810.376 815.132, 799.775 816.862 C 737.146 827.082, 691.735 831.356, 646 831.334 C 614.766 831.318, 603.305 830.390, 586.239 826.493 C 576.245 824.211, 575.639 823.441, 576.467 814.077 C 579.873 775.560, 608.168 709.156, 649.896 641.750 C 656.534 631.027, 662.202 621.633, 662.491 620.876 C 663.172 619.091, 636.674 586.921, 629.738 581.114 C 611.862 566.146, 594.336 560.033, 554.820 554.983 C 545.844 553.836, 535.435 552.203, 531.690 551.355 C 523.103 549.410, 522.672 548.483, 523.593 533.934 L 524.271 523.222 529.385 522.166 C 532.198 521.586, 554.075 516.838, 578 511.616 C 670.351 491.457, 704.721 484.541, 720 483.043 C 740.518 481.031, 780.304 480.019, 839.250 480.009 C 894.509 480.001, 899 479.874, 899 478.322 C 899 474.813, 884.779 382.473, 884.155 381.930 C 883.795 381.617, 875.400 380.103, 865.500 378.567 C 830.979 373.209, 805.361 365.232, 777.053 351.026 C 753.618 339.267, 735.783 326.768, 718.771 310.183 L 708.041 299.724 713.271 293.765 C 731.066 273.489, 744.362 254.254, 753.547 235.500 C 762.453 217.315, 765.789 206.355, 767.474 189.750 L 768.159 183 764.830 183.007 C 762.998 183.011, 742.150 184.134, 718.500 185.503 C 665.288 188.582, 669.013 188.564, 668.948 185.750 C 668.910 184.077, 668.478 184.525, 667.261 187.500 C 659.220 207.164, 634.679 236.325, 602.229 264.774 C 585.620 279.336, 543.430 311.763, 542.414 310.747 C 542.173 310.506, 541.524 304.277, 540.971 296.905 C 537.268 247.489, 525.851 192.437, 506.874 132.500 C 499.303 108.589, 488.777 79.994, 487.567 80.047 C 486.980 80.073, 466.614 88.072, 442.309 97.822 M 215.579 203.750 C 214.174 209.660, 213.733 255.954, 214.946 270.194 C 218.942 317.093, 230.815 354.368, 251.306 384.349 C 254.633 389.217, 257.894 393.406, 258.553 393.659 C 259.634 394.074, 332.331 336.540, 334.347 333.673 C 334.883 332.912, 333.871 330.461, 331.594 327.002 C 324.815 316.709, 318.651 298.966, 315.613 281 C 313.359 267.668, 312.128 242.858, 312.959 227.500 C 313.346 220.350, 313.504 214.303, 313.309 214.061 C 312.931 213.591, 221.947 201.117, 218.367 201.044 C 216.847 201.013, 216.045 201.792, 215.579 203.750 M 626.500 372.118 C 614.788 380.998, 589.823 398.825, 579.740 405.508 C 574.922 408.701, 571.097 411.422, 571.240 411.554 C 571.383 411.687, 591.759 407.499, 616.520 402.248 L 661.540 392.700 648.112 379.350 C 640.727 372.008, 634.643 366.012, 634.592 366.026 C 634.542 366.040, 630.900 368.782, 626.500 372.118 " stroke="none" fill="black" fill-rule="evenodd"/>
</svg>