<svg xmlns="http://www.w3.org/2000/svg" width="1000" height="1000" viewBox="0 0 1000 1000" version="1.1">
	<path d="M 303.592 105.600 C 278.892 109.661, 258.444 113.223, 258.151 113.516 C 257.858 113.809, 259.975 129.450, 262.856 148.274 C 266.965 175.127, 280.486 268.967, 282.304 283.250 C 282.636 285.858, 282.443 286, 278.571 286 C 271.962 286, 249.584 283.185, 234.500 280.456 C 214.960 276.922, 191.015 270.915, 172.968 265.022 C 164.542 262.270, 157.502 260.165, 157.323 260.344 C 156.689 260.977, 121 349.910, 121 350.856 C 121 352.222, 155.164 363.317, 175.414 368.528 C 211.994 377.941, 243.782 382.966, 278.763 384.864 C 287.157 385.320, 294.244 385.910, 294.510 386.177 C 295.187 386.853, 299.172 423.872, 298.802 426.042 C 298.549 427.526, 296.092 426.538, 283.551 419.906 C 275.329 415.558, 268.277 412, 267.878 412 C 267.480 412, 263.686 418.413, 259.446 426.250 C 196.246 543.086, 147.126 616.670, 85.963 686.135 C 76.798 696.544, 70.315 704.716, 70.705 705.367 C 71.524 706.736, 120.202 784.411, 120.428 784.710 C 120.603 784.941, 172.854 754.089, 179.844 749.628 C 182.234 748.103, 184.332 747.001, 184.508 747.178 C 184.683 747.355, 183.083 750.425, 180.951 754 C 178.820 757.575, 177.059 760.950, 177.040 761.500 C 177.020 762.050, 179.140 763.850, 181.752 765.500 C 214.899 786.442, 244.163 820.184, 264.501 860.914 C 272.356 876.645, 276.276 887.354, 283.109 911.747 C 287.061 925.856, 288.900 930.988, 290 930.970 C 293.300 930.917, 380.164 919.169, 380.619 918.714 C 381.296 918.038, 387.371 860.322, 390.958 820.500 C 398.955 731.718, 403.313 661.864, 404.889 597.211 L 405.700 563.922 408.230 561.211 C 409.621 559.720, 419.440 547.025, 430.051 533 C 504.294 434.862, 556.967 373.661, 606.951 327.458 C 643.163 293.986, 671.402 273.232, 699.500 259.442 C 728.316 245.300, 748.494 242.492, 764.488 250.396 C 777.459 256.807, 785.424 267.414, 790.213 284.658 C 792.147 291.623, 792.394 295.017, 792.424 315 C 792.459 339.440, 791.372 347.941, 785.002 373 C 778.391 399.008, 762.570 439.076, 759.624 437.275 C 759.006 436.897, 752.612 432.727, 745.415 428.008 C 714.357 407.645, 688.538 398.983, 663 400.362 C 618.893 402.744, 584.075 430.626, 556.061 486 C 533.304 530.983, 520.692 579.109, 515.967 639 C 514.572 656.675, 514.585 703.386, 515.989 723 C 518.655 760.225, 525.579 806.170, 533.094 836.500 C 538.139 856.859, 549.492 894.252, 550.779 894.745 C 552.042 895.230, 626.647 888.529, 631.574 887.488 C 633.413 887.100, 634.134 884.702, 637.947 866.275 C 642.790 842.875, 646.696 830.610, 654.520 814.227 C 668.216 785.551, 685.544 766.285, 706.500 756.437 C 720.094 750.048, 727.022 748.588, 743.500 748.639 C 755.746 748.677, 758.470 749.002, 765.244 751.233 C 775.149 754.495, 781.420 758.556, 788.894 766.546 C 804.182 782.888, 814.540 810.465, 818.509 845.387 L 819.178 851.274 853.339 850.624 C 872.128 850.267, 894.334 849.696, 902.687 849.356 L 917.875 848.738 917.399 843.619 C 913.342 799.988, 903.722 765.388, 887.477 736 C 869.372 703.250, 847.230 681.259, 817.500 666.502 C 802.617 659.115, 793.750 655.993, 779.308 653.058 C 741.318 645.335, 698.746 650.459, 664.514 666.873 C 647.834 674.871, 631.439 685.898, 619.388 697.225 L 614.276 702.029 613.638 697.375 C 612.136 686.415, 613.728 647.282, 616.562 625.500 C 621.946 584.124, 633.236 548.092, 649.444 520.551 C 655.929 509.532, 665.182 499, 668.377 499 C 672.195 499, 684.993 506.220, 705.500 519.944 C 737.691 541.487, 752.470 547.505, 773 547.429 C 792.069 547.358, 802.117 542.873, 817.602 527.517 C 829.912 515.310, 838.805 502.145, 850.403 478.960 C 885.358 409.082, 899.726 328.799, 887.888 269.500 C 884.164 250.845, 875.114 227.513, 866.203 213.598 C 848.517 185.979, 821.580 164.896, 790.923 154.678 C 746.856 139.991, 697.944 147.405, 643.634 177.004 C 600.542 200.490, 554.128 238.458, 499.268 295.100 L 486.096 308.700 459.018 278.448 C 444.125 261.809, 431.338 247.695, 430.601 247.084 C 429.569 246.227, 428.032 246.985, 423.881 250.400 C 412.295 259.931, 383.843 275.257, 380.999 273.499 C 380.449 273.160, 380 271.751, 380 270.369 C 380 265.652, 357.858 113.024, 355.393 100.750 C 354.924 98.412, 354.366 98.016, 351.671 98.109 C 349.927 98.169, 328.291 101.540, 303.592 105.600 M 434.035 359.014 C 427.180 362.206, 415.255 366.939, 407.535 369.530 C 399.816 372.122, 393.387 374.338, 393.250 374.455 C 392.978 374.685, 396.862 410.932, 397.313 412.382 C 397.464 412.867, 401.836 407.917, 407.029 401.382 C 412.221 394.847, 423.320 381.288, 431.693 371.250 C 440.065 361.212, 446.822 353.047, 446.708 353.105 C 446.594 353.163, 440.891 355.822, 434.035 359.014 M 294.500 669.117 C 289.550 673.015, 279.425 680.719, 272 686.239 C 264.575 691.758, 258.146 696.589, 257.714 696.973 C 257.282 697.357, 260.432 700.543, 264.714 704.052 C 268.996 707.561, 278.407 716.209, 285.628 723.269 L 298.755 736.105 299.382 728.802 C 299.727 724.786, 300.680 710.475, 301.500 697 C 302.320 683.525, 303.142 670.138, 303.327 667.250 C 303.513 664.362, 303.628 662.007, 303.582 662.016 C 303.537 662.024, 299.450 665.220, 294.500 669.117 " stroke="none" fill="black" fill-rule="evenodd"/>
</svg>