<svg xmlns="http://www.w3.org/2000/svg" width="1000" height="1000" viewBox="0 0 1000 1000" version="1.1">
	<path d="M 412 90.200 C 385.875 93.936, 363.938 97.205, 363.250 97.465 C 362.383 97.792, 362 100.581, 362 106.562 C 362 133.581, 349.149 163.857, 328.250 186.072 C 303.064 212.845, 224.861 272.538, 144.750 326.139 C 128.387 337.087, 115 346.447, 115 346.940 C 115 348.042, 145.037 433.318, 145.653 433.964 C 146.104 434.438, 153.493 432.062, 225.345 408.341 C 247.809 400.924, 266.432 395.098, 266.728 395.394 C 267.024 395.690, 264.578 398.985, 261.293 402.716 C 241.163 425.577, 220.963 454.740, 210.878 475.500 C 200.163 497.559, 196.398 513.287, 197.235 532.501 C 198.251 555.827, 209.888 578.229, 229 593.650 C 242.288 604.373, 259.969 611.625, 280 614.568 C 289.077 615.902, 295.187 616.125, 309 615.626 C 318.625 615.279, 328.956 614.558, 331.958 614.025 C 335.550 613.386, 337.626 613.394, 338.030 614.048 C 338.368 614.595, 339.211 623.920, 339.904 634.771 C 340.597 645.622, 341.363 655.229, 341.608 656.120 C 341.907 657.210, 339.199 660.143, 333.340 665.077 C 328.548 669.113, 324.867 671.759, 325.160 670.957 C 328.778 661.060, 330.360 656.031, 329.971 655.663 C 329.318 655.045, 237.706 622.948, 237.467 623.253 C 237.361 623.389, 235.135 629.350, 232.521 636.500 C 218.403 675.112, 203.046 710.113, 194.963 722.098 C 181.705 741.758, 159.675 766.816, 98.639 831.663 L 90.955 839.827 122.228 856.101 C 139.427 865.052, 158.388 874.941, 164.363 878.077 L 175.225 883.780 184.863 879.336 C 198.940 872.847, 222.039 861.081, 233.378 854.624 C 238.811 851.531, 243.374 849, 243.517 849 C 243.660 849, 243.715 849.693, 243.639 850.541 C 243.548 851.552, 245.770 853.013, 250.104 854.791 C 265.074 860.932, 278.452 870.749, 289.558 883.742 C 298.163 893.809, 302.385 901.082, 310.606 920 C 314.310 928.525, 317.451 935.649, 317.585 935.832 C 317.899 936.257, 380.836 932.072, 383.500 931.449 C 386.741 930.691, 402.821 906.990, 410.557 891.568 C 424.998 862.781, 435.630 826.701, 441.488 786.604 C 443.783 770.890, 444.965 741.443, 444.180 719.500 L 443.500 700.500 472.574 671.500 C 498.409 645.732, 514.812 628.278, 534.602 605.500 C 544.617 593.974, 558 577.665, 558 576.987 C 558 576.146, 483.117 515.500, 482.078 515.500 C 481.635 515.500, 478.885 518.356, 475.969 521.846 L 470.666 528.193 463.653 514.382 C 457.612 502.485, 455.590 499.510, 449.070 492.922 C 443.313 487.106, 439.662 484.395, 433.825 481.603 C 426.151 477.933, 414.226 475, 406.977 475 C 397.286 475, 381.904 479.812, 371.354 486.145 C 364.194 490.443, 353.218 500.585, 350 505.877 C 348.214 508.813, 346.500 510.266, 344 510.965 C 334.288 513.677, 319.406 516.212, 310.189 516.722 L 299.879 517.293 303.042 511.897 C 316.460 489.005, 337.605 463.523, 372.961 427.637 C 407.938 392.136, 444.102 359.207, 484.500 326.077 C 495.500 317.056, 504.639 309.571, 504.809 309.445 C 505.076 309.246, 485.549 223.573, 484.493 220.309 C 484.234 219.508, 474.359 222.377, 454.304 229.082 C 437.912 234.562, 420.997 240.128, 416.716 241.452 L 408.932 243.859 412.989 239.013 C 420.328 230.247, 432.005 211.723, 438.527 198.500 C 449.112 177.041, 456.230 153.282, 459.462 128.630 C 460.979 117.060, 461.419 89.446, 460.150 85.454 C 459.509 83.435, 458.851 83.500, 412 90.200 M 110 151.528 C 110 168.265, 112.271 190.516, 115.578 206.179 C 124.085 246.469, 142.417 274.151, 169.500 287.601 C 176.984 291.318, 188.856 295.518, 189.606 294.713 C 189.715 294.596, 194.199 273.125, 199.570 247 C 204.940 220.875, 209.490 199.307, 209.680 199.071 C 209.870 198.835, 211.594 199.390, 213.513 200.305 C 215.431 201.219, 217 201.805, 217 201.606 C 217 201.407, 216.269 199.502, 215.376 197.372 C 212.152 189.684, 209.919 175.674, 209.310 159.304 L 208.708 143.107 203.604 142.559 C 199.472 142.115, 115.681 137.974, 111.250 137.994 C 110.312 137.999, 110 141.375, 110 151.528 M 686.614 191.037 C 671.088 193.477, 650.934 202.201, 632.780 214.338 C 623.406 220.605, 611.765 229.542, 611.247 230.869 C 611.108 231.225, 622.976 245.391, 637.621 262.349 L 664.248 293.182 662.476 299.841 C 656.520 322.229, 642.587 356.765, 625.498 391.500 C 612.734 417.443, 603.932 433.521, 585.261 465 C 577.268 478.475, 570.560 489.803, 570.353 490.174 C 570.146 490.544, 584.168 500.528, 601.513 512.360 L 633.050 533.872 686.775 525.453 C 716.324 520.823, 741.063 517.027, 741.750 517.017 C 742.652 517.005, 743 519.341, 743 525.418 C 743 537.005, 743.003 537, 735.569 537 C 721.955 537, 701.471 542.178, 688 549.024 C 658.298 564.118, 634.028 597.216, 626.422 633 C 623.816 645.260, 624.010 663.732, 626.868 675.500 C 630.651 691.072, 639.872 707.767, 651.266 719.668 L 655.256 723.836 651.415 727.168 C 615.342 758.456, 597.881 781.057, 590.784 805.648 C 588.933 812.058, 588.524 815.887, 588.556 826.500 C 588.590 838.036, 588.905 840.401, 591.355 847.500 C 592.873 851.900, 595.956 858.650, 598.205 862.500 C 603.502 871.567, 616.342 884.119, 626.577 890.234 C 645.760 901.697, 673.281 909.955, 708 914.668 C 727.230 917.278, 785.994 917.271, 810.492 914.656 C 847.040 910.754, 888 903.784, 888 901.466 C 888 900.264, 867.571 811.579, 866.441 807.878 C 865.992 806.407, 865.319 806.387, 859.223 807.669 C 821.602 815.582, 770.893 819.938, 738.777 818.017 C 722.921 817.068, 704.459 814.792, 703.311 813.644 C 702.708 813.041, 721.189 797.205, 740.379 781.881 C 751.001 773.399, 756.007 770.009, 757.879 770.030 C 759.320 770.047, 766.474 770.857, 773.777 771.831 L 787.053 773.601 812.027 756.626 L 837 739.652 837 716.970 L 837 694.288 841.909 684.894 C 856.764 656.467, 857.451 628.182, 843.964 600.324 L 839.037 590.149 839.995 566.824 C 840.522 553.996, 841.485 533.968, 842.136 522.318 C 843.264 502.131, 843.418 501.114, 845.410 500.661 C 846.559 500.399, 855.988 498.923, 866.363 497.380 C 877.726 495.690, 885.408 494.099, 885.685 493.379 C 885.937 492.721, 884.791 478.529, 883.138 461.841 C 880.473 434.943, 879.830 430.819, 877.472 425.500 C 863.545 394.087, 831.474 376.487, 801 383.532 C 783.021 387.689, 770.789 395.885, 762.242 409.500 C 760.861 411.700, 759.611 413.643, 759.464 413.819 C 759.060 414.300, 722.661 419.995, 722.300 419.633 C 722.128 419.461, 725.164 412.185, 729.048 403.464 C 747.891 361.148, 760.089 323.681, 764.522 294.500 C 766.742 279.887, 766.789 256.955, 764.620 246.898 C 758.795 219.889, 740.824 199.698, 716.599 192.944 C 708.181 190.597, 694.819 189.747, 686.614 191.037 M 731.279 638.419 C 729.698 639.749, 727.144 643.410, 725.605 646.554 L 722.806 652.270 725.653 654.585 C 730.645 658.645, 733.629 659.473, 736.494 657.596 C 738.891 656.025, 739 655.522, 739 645.977 C 739 636.086, 738.979 636, 736.577 636 C 735.244 636, 732.860 637.089, 731.279 638.419 M 339.498 785.663 C 338.399 786.488, 336.654 787.772, 335.619 788.517 C 333.819 789.813, 333.862 789.978, 336.619 792.367 L 339.500 794.862 340.692 789.707 C 341.348 786.871, 341.797 784.464, 341.691 784.357 C 341.584 784.251, 340.598 784.838, 339.498 785.663 " stroke="none" fill="black" fill-rule="evenodd"/>
</svg>