<svg xmlns="http://www.w3.org/2000/svg" width="1000" height="1000" viewBox="0 0 1000 1000" version="1.1">
	<path d="M 588.500 76.033 C 561.394 90.084, 541.637 98.688, 517.602 106.909 C 471.272 122.757, 431.669 128.456, 405.312 123.069 C 374.970 116.869, 345.370 100.628, 317.771 75.038 L 310.041 67.871 273.048 98.987 C 252.702 116.100, 235.823 130.477, 235.541 130.934 C 235.258 131.392, 241.239 137.810, 248.832 145.196 C 293.977 189.109, 350.839 217.030, 407.820 223.262 L 419.139 224.500 385.835 254.500 C 339.747 296.015, 321.796 313.175, 297.871 338.588 C 260.387 378.404, 234.142 408.863, 197.040 455.606 C 179.465 477.747, 174.385 484.768, 175.303 485.646 C 177.555 487.801, 249.137 538, 249.959 538 C 250.410 538, 259.041 531.348, 269.139 523.217 C 297.852 500.100, 321.368 484.637, 345.500 473.006 C 371.225 460.607, 387.999 455.694, 405 455.578 C 415.856 455.504, 416.789 455.660, 421.660 458.360 C 434.082 465.245, 448.672 481.935, 457.797 499.699 C 462.020 507.921, 470.483 529.897, 469.702 530.615 C 469.591 530.717, 461.400 534.248, 451.500 538.462 C 404.847 558.318, 346.875 589.663, 308.500 615.779 C 239.354 662.838, 197.151 717.190, 184.871 775 C 183.060 783.526, 182.634 788.790, 182.609 803 C 182.575 821.259, 183.305 826.929, 187.596 841.735 C 199.608 883.186, 235.510 915.114, 276.784 921.049 C 288.437 922.724, 338.102 921.736, 351.500 919.562 C 380.722 914.820, 405.524 905.950, 428.231 892.121 C 472.237 865.321, 509.542 817.206, 538.813 749.500 C 559.564 701.500, 571.455 654.884, 574.548 609.415 L 575.234 599.330 582.367 597.602 C 641.330 583.317, 689.436 582.440, 715.552 595.174 C 727.383 600.943, 737.800 615.230, 741.041 630.134 C 742.926 638.801, 741.788 655.612, 738.579 666.500 C 733.019 685.363, 718.337 710.547, 700.685 731.500 C 684.645 750.541, 652.096 780.515, 631.314 795.385 L 626.128 799.095 655.197 839.014 L 684.266 878.933 688.764 875.717 C 691.239 873.948, 699.391 867.602, 706.881 861.616 C 811.155 778.284, 857.755 683.910, 835.498 601.143 C 826.412 567.356, 803.578 534.596, 776.623 516.672 C 746.296 496.506, 711.833 487.693, 663.500 487.744 C 634.140 487.775, 610.741 490.436, 576.615 497.627 C 570.079 499.004, 564.397 499.764, 563.990 499.315 C 563.582 498.867, 562.006 494.675, 560.487 490 C 544.627 441.188, 513.125 399.057, 474.514 375.020 C 460.618 366.369, 446.886 361.215, 429.617 358.168 L 420.092 356.487 441.793 336.994 C 475.378 306.824, 538.207 249.341, 595.898 196 C 624.749 169.325, 650.074 146.002, 652.177 144.172 C 654.280 142.342, 656 140.498, 656 140.075 C 656 139.286, 613.348 66.058, 612.159 64.805 C 611.797 64.423, 601.150 69.476, 588.500 76.033 M 443.500 651.349 C 366.935 690.495, 322.465 723.457, 297.865 759.296 C 280.918 783.985, 276.015 809.169, 285.986 820.303 L 288.849 823.500 307.675 823.401 C 336.311 823.251, 352.917 820.161, 369.402 811.916 C 390.061 801.583, 409.749 781.134, 426.984 752.109 C 443.296 724.637, 457.501 691.284, 465.788 660.997 C 470.239 644.734, 471.575 637.987, 470.338 638.028 C 469.877 638.044, 457.800 644.038, 443.500 651.349 " stroke="none" fill="black" fill-rule="evenodd"/>
</svg>