<svg xmlns="http://www.w3.org/2000/svg" width="1000" height="1000" viewBox="0 0 1000 1000" version="1.1">
	<path d="M 470 68.181 C 470 68.403, 465.749 88.882, 460.554 113.691 C 455.358 138.499, 450.971 159.976, 450.804 161.417 C 450.516 163.902, 451.011 164.209, 460.500 167.418 C 480.683 174.245, 499.986 184.137, 516.977 196.364 C 532.996 207.891, 552.721 228.671, 561.956 243.750 C 563.725 246.638, 565.410 249, 565.701 249 C 565.992 249, 585.279 237.941, 608.560 224.424 L 650.889 199.849 647.723 194.674 C 617.209 144.796, 568.270 104.200, 510.130 80.537 C 494.066 73.999, 470 66.589, 470 68.181 M 533.500 265.549 C 475.297 278.189, 401.019 292.876, 389.109 294.099 C 372.913 295.763, 332.681 294.693, 313.500 292.088 C 293.637 289.391, 278.284 286.603, 262.689 282.862 C 255.643 281.172, 249.668 279.999, 249.412 280.255 C 249.021 280.646, 224.099 365.775, 222.436 372.398 C 221.935 374.393, 222.531 374.744, 229.194 376.371 C 301.620 394.065, 365.325 398.523, 418.750 389.638 C 426.038 388.425, 432 387.557, 432 387.708 C 432 387.860, 425.114 396.650, 416.697 407.242 C 376.447 457.895, 332.941 514.299, 310.826 544.500 C 291.991 570.223, 281.771 585.191, 265.424 611 C 241.683 648.483, 127.426 818.450, 112.369 838.683 C 111.066 840.434, 110 842.270, 110 842.764 C 110 843.497, 187.587 897.820, 190.023 898.793 C 191.270 899.291, 288.440 756.499, 328.023 696 C 340.726 676.585, 351.886 660.682, 355.741 656.500 C 384.261 625.565, 430.029 592.773, 474.500 571.411 C 487.138 565.340, 516.590 553, 518.441 553 C 518.748 553, 519 554.075, 519 555.388 C 519 565.290, 530.848 592.139, 541.337 606.009 C 549.977 617.434, 567.058 633.752, 580.500 643.422 C 600.195 657.591, 602.855 661.369, 604.960 678.155 C 606.053 686.874, 606.374 703.292, 605.469 704.198 C 605.177 704.490, 600.790 703.873, 595.719 702.828 C 512.456 685.660, 439.808 689.469, 390.358 713.593 C 324.443 745.749, 303.634 814.155, 340.687 876.876 C 357.916 906.040, 386.874 924.831, 424.987 931.580 C 483.051 941.860, 565.072 918.026, 624.500 873.603 C 635.877 865.099, 659.190 843.011, 665.643 834.623 L 668.626 830.745 683.563 838.324 C 718.673 856.138, 769.649 888.344, 806.443 915.957 C 812.407 920.433, 817.639 924.187, 818.069 924.298 C 818.886 924.509, 878.980 849.035, 878.993 847.781 C 879.011 846.022, 835.544 814.812, 809 797.523 C 777.682 777.126, 736.535 753.632, 712.630 742.500 L 701.894 737.500 702.456 731 C 706.230 687.356, 704.824 663.549, 696.955 637.842 C 692.829 624.361, 688.924 616.091, 681.217 604.507 C 673.110 592.322, 660.948 580.025, 647.088 570 C 632.149 559.194, 624.732 552.765, 620.407 546.873 C 617.277 542.609, 616.531 540.671, 616.186 535.896 C 615.696 529.119, 614.741 529.647, 630.500 527.987 C 672.553 523.560, 730.191 525.512, 776.295 532.926 C 782.233 533.881, 787.241 534.401, 787.425 534.081 C 788.113 532.884, 804.355 438.023, 803.937 437.646 C 803.131 436.919, 769.654 432.078, 755 430.570 C 727.620 427.751, 705.451 426.806, 674.882 427.153 L 644.264 427.500 645.706 423.500 C 649.345 413.407, 672 348.008, 672 347.598 C 672 347.344, 668.572 346.374, 664.383 345.442 C 654.227 343.182, 633.655 343.888, 623.500 346.845 C 587.925 357.202, 557.398 389.564, 539.477 435.919 L 536.220 444.344 521.610 448.485 C 513.574 450.763, 507 452.514, 507 452.375 C 507 451.913, 563.284 381.906, 588.905 350.500 C 602.814 333.450, 614.427 318.931, 614.710 318.235 C 615.486 316.331, 571.382 257.981, 569.244 258.083 C 568.285 258.128, 552.200 261.488, 533.500 265.549 M 477 791.614 C 449.977 794.939, 429.992 801.467, 423.609 809.052 C 420.462 812.793, 420.395 814.307, 423.056 821.421 C 425.741 828.597, 429.274 831.447, 437.922 833.414 C 466.638 839.945, 516.981 826.423, 554.898 801.995 C 560.752 798.224, 561.900 797.108, 560.398 796.649 C 559.354 796.330, 551.300 795.115, 542.500 793.949 C 527.216 791.925, 486.321 790.467, 477 791.614 " stroke="none" fill="black" fill-rule="evenodd"/>
</svg>