<svg xmlns="http://www.w3.org/2000/svg" width="1000" height="1000" viewBox="0 0 1000 1000" version="1.1">
	<path d="M 302.477 127.788 C 297.515 131.480, 279.943 144.473, 263.428 156.662 L 233.402 178.824 239.115 190.662 C 261.848 237.769, 279.036 312.773, 289.500 410.532 L 290.146 416.564 277.361 425.032 C 203.976 473.638, 153.594 531.396, 133.025 590.500 C 116.618 637.644, 113.528 695.110, 124.608 747 C 138.474 811.935, 170.905 862.208, 212.576 883.366 C 230.117 892.272, 243.180 895.319, 263.532 895.250 C 304.508 895.112, 337.405 878.857, 359.259 847.949 C 370.448 832.126, 379.759 808.291, 384.964 782.149 C 392.443 744.585, 394.779 707.914, 395.675 614 C 396.231 555.673, 395.131 491.191, 393.332 476.741 L 392.740 471.982 408.120 464.599 C 435.979 451.225, 464.709 439.692, 496 429.322 C 510.872 424.393, 539.209 416, 540.977 416 C 541.363 416, 541.968 435.238, 542.321 458.750 C 543.794 556.829, 550.953 667.789, 557.463 693.454 C 572.650 753.321, 647.902 805.717, 784.500 851.534 C 818.101 862.805, 833.319 867.133, 834.141 865.654 C 834.836 864.401, 859 773.564, 859 772.202 C 859 771.746, 855.287 770.324, 850.750 769.042 C 846.212 767.760, 830.468 762.723, 815.762 757.848 C 745.807 734.658, 689.755 706.859, 664.414 682.788 C 653.795 672.701, 653.118 671.314, 651.477 656.278 C 646.536 610.990, 642.537 535.251, 641.008 458 C 639.676 390.699, 639.564 396.323, 642.250 395.666 C 646.845 394.542, 691.362 387.942, 717 384.584 C 756.068 379.467, 783.900 376.424, 827.411 372.511 C 848.812 370.586, 866.547 368.786, 866.823 368.511 C 867.098 368.235, 865.450 349.895, 863.161 327.755 L 858.999 287.500 855.563 284.500 C 853.674 282.850, 843.212 273.611, 832.314 263.969 C 756.188 196.614, 694.692 151.808, 659.500 138.057 C 628.883 126.094, 602.727 129.505, 584.071 147.892 C 574.187 157.633, 567.553 169.206, 561.525 187.220 C 553.447 211.360, 547.073 253.967, 544.408 301.634 L 543.730 313.769 535.615 315.506 C 500.078 323.115, 440.745 342.596, 399.273 360.272 L 384.046 366.762 383.537 363.631 C 383.257 361.909, 382.096 353.750, 380.959 345.500 C 371.030 273.510, 353.834 206.137, 333.421 159.253 C 325.450 140.946, 314.332 120.923, 312.202 121.038 C 311.816 121.059, 307.440 124.096, 302.477 127.788 M 648.105 252.654 C 646.415 264.013, 643.634 293.967, 644.215 294.548 C 644.866 295.199, 704.983 286.682, 704.993 285.938 C 705.011 284.584, 651.823 245.108, 649.872 245.026 C 649.526 245.012, 648.731 248.444, 648.105 252.654 M 285.500 542.876 C 272.240 554.693, 262.927 564.429, 252.810 577.051 C 234.823 599.494, 226.004 617.821, 220.408 644.388 C 217.242 659.417, 216.038 689.454, 217.937 706.026 C 222.605 746.765, 238.432 782.983, 256.973 795.351 C 259.853 797.272, 263.886 797.432, 270.998 795.907 C 275.266 794.992, 276.513 794.182, 278.669 790.923 C 286.819 778.608, 292.002 749.743, 295.086 699.500 C 296.079 683.317, 297.633 539.932, 296.866 535.286 C 296.544 533.336, 295.190 534.240, 285.500 542.876 " stroke="none" fill="black" fill-rule="evenodd"/>
</svg>