<svg xmlns="http://www.w3.org/2000/svg" width="1000" height="1000" viewBox="0 0 1000 1000" version="1.1">
	<path d="M 572.561 49.901 C 572.335 50.268, 569.181 71.027, 565.552 96.034 C 561.924 121.040, 558.712 142.700, 558.416 144.166 C 557.901 146.719, 558.126 146.882, 563.689 147.984 C 575.024 150.230, 592.375 155.142, 601.375 158.654 C 611.332 162.539, 623 168.858, 623 170.364 C 623 172.795, 611.425 193.660, 593.973 222.690 C 560.438 278.473, 552 299.503, 552 327.298 C 552 346.209, 557.325 361.730, 568.431 375.195 C 581.365 390.876, 600.973 400.790, 639.328 411.042 C 656.438 415.616, 670.084 419.869, 671.348 421.022 C 673.486 422.973, 643.918 443.879, 615.500 460.508 C 582.627 479.744, 531.934 505.970, 474.282 533.566 L 466.064 537.500 486.079 581.497 C 497.087 605.695, 506.429 625.829, 506.837 626.237 C 508.273 627.673, 590.581 587.258, 629.500 566.008 C 717.346 518.043, 754.973 487.550, 766.054 455.343 C 771.589 439.256, 772.557 408.774, 768.033 393.067 C 763.629 377.780, 757.056 366.168, 746.557 355.133 C 729.492 337.194, 710.527 327.797, 669.500 316.951 C 662.900 315.206, 657.143 313.565, 656.706 313.303 C 655.581 312.629, 662.197 300.745, 681.929 268 C 714.903 213.277, 723 193.301, 723 166.670 C 723 115.144, 680.243 75.539, 603.500 55.978 C 585.743 51.452, 573.133 48.975, 572.561 49.901 M 313.159 176.333 C 310.160 188.391, 292 266.821, 292 267.715 C 292 268.291, 294.136 269.301, 296.748 269.958 C 303.933 271.767, 322.433 279.581, 330.012 284.007 C 344.870 292.684, 353 301.216, 353 308.129 C 353 317.474, 342.802 352.086, 315.575 435.153 C 280.111 543.348, 266.569 589.626, 254.608 643.500 C 232.407 743.493, 231.598 791.847, 251.444 832.500 C 273.168 876.999, 317.586 902.707, 387 910.956 C 420.016 914.880, 504.761 917.448, 576 916.683 C 646.878 915.923, 684.894 914.190, 747.750 908.852 L 774 906.623 774 867.861 L 774 829.099 768.140 816.299 C 739.169 753.015, 732.515 736.448, 690.399 622.750 C 681.690 599.237, 674.144 580, 673.630 580 C 672.234 580, 583.623 613.045, 582.735 613.897 C 582.314 614.300, 584.494 621.351, 587.580 629.565 C 590.666 637.779, 601.508 667, 611.673 694.500 C 631.616 748.453, 641.091 772.739, 652.435 798.981 L 659.682 815.748 649.591 816.381 C 627.867 817.744, 508.259 818.249, 476.500 817.112 C 403.065 814.481, 379.066 811.843, 360.057 804.311 C 339.692 796.241, 335.197 787.437, 336.259 757.692 C 337.461 724.013, 351.024 657.337, 370.369 590 C 379.720 557.453, 387.748 531.918, 409.514 465.500 C 436.745 382.401, 443.584 359.600, 449.106 333.500 C 452.508 317.419, 452.329 295.532, 448.683 281.723 C 445.747 270.604, 439.145 255.996, 432.619 246.179 C 411.474 214.372, 370.928 188.407, 319.348 173.641 L 314.196 172.166 313.159 176.333 " stroke="none" fill="black" fill-rule="evenodd"/>
</svg>