<svg xmlns="http://www.w3.org/2000/svg" width="1000" height="1000" viewBox="0 0 1000 1000" version="1.1">
	<path d="M 429.175 74.751 C 425.696 94.413, 421.830 116.224, 420.582 123.221 L 418.314 135.941 424.407 137.980 C 427.758 139.101, 432.911 141.401, 435.859 143.091 C 440.929 145.999, 441.183 146.335, 440.591 149.332 C 440.247 151.075, 438.368 155.875, 436.414 160 C 417.674 199.571, 348.590 273.500, 261.750 346.914 C 253.088 354.237, 246 360.378, 246 360.560 C 246 360.970, 290.073 446.364, 290.537 446.852 C 290.721 447.046, 297.218 444.177, 304.976 440.476 C 312.734 436.776, 319.330 433.997, 319.635 434.302 C 320.013 434.680, 330.963 514.022, 330.998 516.639 C 330.999 516.716, 334.885 516.536, 339.633 516.240 C 345.619 515.867, 348.149 516.034, 347.883 516.787 C 347.672 517.384, 320.500 547.183, 287.500 583.008 C 254.500 618.832, 226.370 649.481, 224.989 651.117 L 222.478 654.090 179.627 650.255 C 151.132 647.704, 136.664 646.768, 136.441 647.460 C 136.257 648.032, 134.945 658.483, 133.525 670.684 C 129.216 707.719, 124.946 728.088, 110.619 779.957 L 107.178 792.414 138.248 824.238 C 155.336 841.741, 169.688 855.935, 170.142 855.781 C 170.596 855.626, 227.060 794.525, 295.616 720 C 364.173 645.475, 422.722 581.841, 425.726 578.592 C 429.951 574.022, 431.387 573.003, 432.072 574.092 C 433.912 577.019, 445.243 612.806, 448.002 624.403 C 454.675 652.461, 455.727 663.997, 453.469 684.353 C 452.454 693.502, 452.093 700.452, 452.610 700.911 C 453.099 701.346, 469.288 712.311, 488.585 725.278 L 523.671 748.854 538.585 733.845 C 546.788 725.589, 557.775 715.230, 563 710.824 C 599.424 680.108, 641.052 658.217, 679 649.823 C 687.996 647.833, 692.150 647.510, 708 647.571 C 724.762 647.635, 727.433 647.892, 736.429 650.309 C 755.967 655.556, 773.027 666.364, 779.672 677.703 C 783.654 684.499, 784.036 694.220, 780.697 703.821 C 764.322 750.907, 683.500 807.552, 560.703 858.003 C 548.676 862.944, 543.065 865.728, 543.396 866.589 C 551.868 888.667, 578.395 955.694, 578.857 956.191 C 579.601 956.991, 609.585 944.903, 635 933.557 C 656.476 923.969, 699.236 902.531, 715.674 893.110 C 812.242 837.765, 865.174 781.028, 879.149 717.881 C 882.182 704.176, 882.432 679.915, 879.674 667 C 870.521 624.138, 842.618 590.284, 798.500 568.513 C 749.389 544.277, 689.169 541.647, 629.261 561.120 C 601.901 570.013, 571.414 584.567, 546.432 600.659 C 544.430 601.949, 544.257 601.598, 541.023 589.746 C 531.432 554.585, 515.085 512.611, 505.095 497.488 L 503.105 494.475 609.716 378.577 L 716.328 262.679 713.874 260.568 C 710.520 257.683, 644.804 206.559, 643.276 205.645 C 642.602 205.243, 624.602 210.962, 603.276 218.354 C 561.880 232.703, 493.866 255.200, 493.373 254.707 C 493.210 254.543, 496.568 249.480, 500.837 243.455 C 520.906 215.128, 532.197 192.388, 537.061 170.500 C 540.307 155.893, 540.169 136.119, 536.728 122.989 C 527.775 88.817, 502.396 62.353, 464.192 47.350 C 456.243 44.229, 438.900 39.001, 436.500 39.002 C 435.950 39.002, 432.654 55.090, 429.175 74.751 M 473.500 365.855 C 446.710 375.992, 394.853 398.149, 360.127 414.295 L 352.755 417.723 362.127 418.407 C 380.422 419.744, 401.642 424.094, 417.859 429.832 L 425.881 432.671 456.690 399.204 C 489.982 363.042, 493.576 358.989, 492.323 359.022 C 491.870 359.034, 483.400 362.109, 473.500 365.855 " stroke="none" fill="black" fill-rule="evenodd"/>
</svg>