<svg xmlns="http://www.w3.org/2000/svg" width="1000" height="1000" viewBox="0 0 1000 1000" version="1.1">
	<path d="M 295.267 103.272 C 273.140 118.247, 255.027 130.910, 255.017 131.411 C 254.952 134.800, 280.730 164.608, 299.632 183 C 342.756 224.960, 390.237 252.886, 439.835 265.458 C 445.350 266.856, 450.681 267.999, 451.681 267.998 C 453.284 267.997, 454.601 262.347, 462.770 220.436 C 467.869 194.277, 471.812 172.504, 471.531 172.051 C 471.251 171.598, 469.330 170.911, 467.261 170.525 C 454.244 168.097, 431.383 158.595, 415.120 148.853 C 389.436 133.467, 359.364 106.445, 341.430 82.636 C 338.718 79.036, 336.275 76.080, 336 76.067 C 335.725 76.054, 317.395 88.296, 295.267 103.272 M 668 113.002 C 640.515 117.683, 619.355 136.086, 605.969 166.949 C 589.618 204.647, 575.989 280.655, 567.228 383 L 566.500 391.500 557 396.346 C 516.217 417.151, 437.229 458.038, 417.842 468.380 C 404.830 475.321, 393.918 481, 393.592 481 C 393.266 481, 393 452.464, 393 417.586 L 393 354.171 371.250 333.910 C 359.288 322.766, 348.289 312.543, 346.808 311.193 L 344.116 308.737 326.029 318.956 C 299.700 333.831, 282.636 340.752, 261.500 345.128 C 245.204 348.503, 223 347.589, 223 343.544 C 223 341.329, 226.631 333.480, 230.335 327.691 L 233.760 322.336 197.199 292.918 C 152.451 256.912, 157.211 260.361, 155.419 262.648 C 146.356 274.214, 134.932 295.484, 129.712 310.509 C 107.899 373.302, 140.828 428.516, 208.756 443.046 C 221.217 445.711, 247.624 446.737, 261.564 445.097 C 271.135 443.972, 289.187 440.633, 292.431 439.388 C 293.843 438.846, 294 443.687, 294 487.849 L 294 536.912 286.750 541.122 C 240.358 568.065, 194.323 598.797, 171.405 618.126 C 129.080 653.822, 114.079 695.828, 129.047 736.739 C 143.836 777.160, 185.740 810.765, 257.555 839.797 C 280.301 848.992, 305.483 857.156, 336.297 865.324 C 360.766 871.811, 364.196 872.502, 364.944 871.097 C 365.411 870.219, 370.959 857.984, 377.272 843.909 L 388.751 818.319 390.407 772.409 C 393.048 699.210, 393.932 653.335, 393.289 622.775 L 392.691 594.330 409.096 585.298 C 434.902 571.089, 478.821 547.704, 511 531.038 C 527.225 522.634, 544.694 513.552, 549.821 510.855 L 559.142 505.951 558.567 513.725 C 557.961 521.912, 556.479 559.159, 555.452 592 L 554.842 611.500 579.053 626.500 C 592.369 634.750, 604.359 642.093, 605.698 642.817 C 607.900 644.008, 609.922 643.464, 626.817 637.138 C 665.923 622.494, 704.854 612.265, 738 607.924 C 751.177 606.198, 774.915 606.180, 783.390 607.890 C 793.798 609.989, 794.417 610.951, 793.683 623.892 C 792.014 653.288, 774.016 690.161, 741.402 731 C 728.394 747.289, 694.216 781.806, 677 796.040 C 646.562 821.207, 622.724 837.096, 590.850 853.461 L 573.200 862.523 592.645 906.506 C 603.339 930.697, 612.537 950.937, 613.085 951.485 C 614.378 952.778, 645.377 937.233, 665 925.452 C 762.375 866.990, 845.359 776.865, 877.498 694.665 C 898.725 640.378, 897.779 590.215, 874.883 555.986 C 860.757 534.868, 838.669 520.113, 810.500 512.980 C 795.237 509.115, 783.672 507.912, 762.073 507.942 C 734.837 507.980, 705.760 511.866, 672.741 519.879 L 657 523.700 656.999 521.100 C 656.998 515.832, 660.037 463.357, 660.588 459.136 L 661.157 454.771 701.506 434.948 C 723.698 424.046, 744.250 414.018, 747.177 412.664 C 750.105 411.311, 762.175 405.514, 774 399.783 C 785.825 394.051, 804.428 385.148, 815.339 379.997 L 835.178 370.632 853.406 346.566 C 863.431 333.330, 871.974 321.926, 872.391 321.224 C 872.856 320.443, 869.052 312.440, 862.576 300.569 C 820.020 222.572, 774.184 161.287, 738.500 134.673 C 714.931 117.095, 689.631 109.317, 668 113.002 M 687.675 234.655 C 684.267 249.182, 681.535 263.325, 678.529 282 C 675.990 297.777, 671 334.944, 671 338.081 C 671 339.424, 679.487 335.710, 709.250 321.345 C 730.288 311.191, 747.844 302.543, 748.265 302.127 C 749.125 301.276, 735.632 280.332, 723.035 262.967 C 713.309 249.560, 699.896 233.126, 694.214 227.655 L 690.220 223.809 687.675 234.655 M 282.919 659.355 C 257.161 675.935, 238.707 689.579, 228.653 699.477 L 222.805 705.234 227.653 710.208 C 234.101 716.825, 250.465 727.578, 265.933 735.362 C 279.498 742.188, 291.801 747.556, 292.390 746.905 C 292.922 746.317, 295.267 652.934, 294.762 652.429 C 294.529 652.195, 289.199 655.312, 282.919 659.355 " stroke="none" fill="black" fill-rule="evenodd"/>
</svg>