<svg xmlns="http://www.w3.org/2000/svg" width="1000" height="1000" viewBox="0 0 1000 1000" version="1.1">
	<path d="M 594.701 90.526 C 517.876 108.089, 447.691 116.341, 402.911 113.075 C 368.026 110.532, 318.949 102.963, 283.083 94.596 C 278.421 93.509, 276.773 93.441, 276.449 94.325 C 276.212 94.971, 270.885 116.425, 264.613 142 C 256.589 174.716, 253.548 188.695, 254.354 189.157 C 255.794 189.984, 289.911 197.056, 308.500 200.382 C 344.184 206.766, 371.493 210.033, 410.205 212.549 L 419.909 213.180 408.705 222.288 C 333.287 283.592, 262.652 355.058, 159.919 474 C 125.585 513.752, 69.887 580.695, 70.076 581.982 C 70.218 582.948, 147.059 654.500, 147.954 654.500 C 148.444 654.500, 157.003 643.925, 166.976 631 C 176.948 618.075, 190.596 601.212, 197.304 593.526 C 211.821 576.893, 241.472 547.050, 259.529 530.898 C 274.568 517.446, 300.255 495.921, 300.717 496.384 C 300.891 496.557, 298.810 505.430, 296.093 516.100 C 290.077 539.723, 286.511 560.430, 284.918 581 C 283.179 603.453, 285.007 735.356, 287.085 737.422 C 287.407 737.742, 308.322 736.878, 333.562 735.502 C 358.802 734.126, 380.701 733, 382.226 733 C 384.966 733, 385.002 732.918, 385.180 726.250 C 385.338 720.358, 385.406 720.136, 385.718 724.500 C 385.914 727.250, 388.758 743.056, 392.037 759.625 C 395.317 776.193, 398 790.463, 398 791.336 C 398 794.781, 372.332 808.178, 345 818.999 C 334.825 823.027, 326.364 826.423, 326.198 826.547 C 325.770 826.864, 335.752 920.085, 336.269 920.602 C 336.824 921.157, 574.161 902.172, 574.812 901.521 C 575.085 901.248, 573.884 883.132, 572.143 861.262 C 570.403 839.393, 568.983 820.375, 568.987 819 C 568.995 816.812, 570.214 817.691, 578.768 826.059 C 614.152 860.674, 651.449 879.529, 693.500 884.063 C 731.191 888.127, 763.246 875.257, 796.844 842.572 C 843.255 797.423, 883.602 720.108, 904.385 636.500 C 930.562 531.190, 920.300 436.277, 875.333 367.789 C 865.947 353.492, 858.022 343.830, 845.570 331.500 C 812.586 298.838, 771.239 277.626, 721 267.593 C 661.008 255.612, 578.246 260.839, 502.539 281.392 C 495.410 283.327, 489.429 284.763, 489.249 284.582 C 488.755 284.088, 523.042 258.012, 543.500 243.323 C 578.922 217.889, 606.023 200.217, 641.250 179.581 C 649.362 174.828, 655.993 170.616, 655.985 170.220 C 655.976 169.824, 649.506 150.375, 641.606 127 C 628.234 87.435, 627.078 84.489, 624.871 84.335 C 623.567 84.245, 609.991 87.031, 594.701 90.526 M 619.500 361.013 C 613.450 361.488, 602.802 362.580, 595.837 363.439 C 588.872 364.297, 582.685 365, 582.087 365 C 579.442 365, 581.376 366.794, 585.250 367.935 C 596.325 371.197, 613.345 380.800, 622.151 388.756 C 627.090 393.217, 635.672 404.694, 640.281 413 C 650.985 432.289, 660.310 466.286, 664.692 502 C 667.217 522.572, 667.219 576.113, 664.696 593.913 C 658.207 639.697, 644.511 672.623, 623.081 693.959 C 611.449 705.540, 596.213 717.150, 578.375 728.026 C 572.986 731.312, 568.813 734, 569.102 734 C 569.391 734, 579.683 728.871, 591.974 722.602 L 614.320 711.204 619.732 719.852 C 636.073 745.962, 659.016 768.834, 678.558 778.494 C 686.570 782.455, 699.296 786, 705.505 786 C 714.041 786, 730.422 771.963, 745.726 751.535 C 793.912 687.215, 825.508 581.669, 819.078 506.500 C 811.884 422.391, 769.420 374.649, 691 362.500 C 678.589 360.577, 636.241 359.696, 619.500 361.013 M 443 407.816 C 427.341 415.024, 400.452 428.950, 388.105 436.247 L 378.711 441.799 381.605 443.267 C 383.197 444.074, 391.925 448.006, 401 452.005 C 410.075 456.004, 417.829 459.566, 418.231 459.919 C 418.633 460.273, 416.467 466.848, 413.417 474.531 C 401.468 504.637, 391.652 537.251, 386.339 564.500 C 383.642 578.336, 383.606 579.050, 383.287 625.500 C 383.109 651.350, 383.353 682.175, 383.828 694 L 384.693 715.500 384.846 694.483 C 385.353 625.106, 394.193 578.820, 412.567 549.340 C 421.897 534.370, 436.873 521.162, 451.044 515.404 C 476.533 505.047, 510.447 510.231, 534.775 528.203 C 546.032 536.519, 558.235 550.996, 565.363 564.492 L 568 569.484 568.057 559.992 C 568.302 519.033, 565.381 493.980, 557.683 471 L 554.500 461.500 550.720 461.188 C 544.038 460.636, 532.041 465.026, 522.604 471.475 C 519.415 473.654, 518.490 473.898, 517.503 472.819 C 516.840 472.093, 502.710 455.863, 486.104 436.750 C 469.498 417.637, 455.819 402.014, 455.706 402.031 C 455.593 402.048, 449.875 404.652, 443 407.816 M 541.024 791.113 C 539.202 793.925, 536.170 798.244, 534.287 800.711 C 532.404 803.178, 531.112 805.446, 531.417 805.750 C 532.066 806.400, 556.858 804.475, 557.617 803.716 C 558.051 803.282, 545.348 786, 544.595 786 C 544.453 786, 542.846 788.301, 541.024 791.113 " stroke="none" fill="black" fill-rule="evenodd"/>
</svg>