<svg xmlns="http://www.w3.org/2000/svg" width="1000" height="1000" viewBox="0 0 1000 1000" version="1.1">
	<path d="M 452.038 68.186 C 450.382 70.559, 437.842 88.910, 424.172 108.966 L 399.318 145.431 402.127 149.861 C 407.269 157.969, 408.505 163.272, 408.453 177 C 408.413 187.424, 407.951 191.153, 405.673 199.449 C 400.452 218.463, 390.865 239.271, 373.043 270.267 C 349.240 311.665, 319.963 354.180, 283.112 400.863 C 274.705 411.513, 268.203 420.581, 268.663 421.014 C 269.123 421.448, 285.668 434.871, 305.428 450.843 L 341.356 479.883 343.928 478.076 C 349.061 474.471, 388.901 448.450, 405 438.188 C 445.886 412.127, 517.124 370.790, 518.602 372.269 C 519.318 372.984, 499.396 404.672, 478.535 436 C 441.032 492.320, 390.089 562.013, 346.593 616.500 C 323.377 645.584, 310.582 659.978, 280.655 690.682 C 267.601 704.074, 265.490 705.856, 263.155 705.445 C 259.970 704.884, 193.562 698.103, 183.250 697.286 C 178.300 696.894, 176 697.060, 176 697.810 C 176 702.782, 169.605 747.007, 163.929 781.289 C 160.118 804.304, 157 823.735, 157 824.470 C 157 825.862, 212.716 892.630, 213.626 892.328 C 214.798 891.938, 273.348 836.904, 297.918 813.097 C 312.448 799.019, 336.901 774.450, 352.258 758.500 C 372.639 737.333, 381.305 729.006, 384.341 727.669 C 386.628 726.662, 393.900 724.272, 400.500 722.358 C 438.061 711.464, 482.774 710.060, 520.763 718.580 C 561.747 727.772, 625.185 758.460, 682.500 796.820 C 724.389 824.855, 774 866.028, 803.102 896.909 C 811.966 906.315, 813.079 907.183, 814.645 905.909 C 823.404 898.791, 886.582 843.663, 886.847 842.907 C 887.353 841.464, 853.117 807.168, 834.500 790.468 C 760.267 723.877, 674.129 669.573, 591.500 637.273 C 558.472 624.362, 523.546 616.860, 485.250 614.451 C 479.063 614.061, 474 613.574, 474 613.367 C 474 613.160, 479.258 605.905, 485.685 597.245 C 522.242 547.987, 569.534 479.078, 592.325 441.861 C 613.679 406.993, 629.453 377.388, 638.448 355.298 C 650.969 324.551, 652.814 300.571, 644.204 280.500 C 637.330 264.478, 624.821 253.122, 607.048 246.771 C 598.206 243.611, 579.296 243.228, 566.143 245.943 C 547.332 249.827, 524.665 258.362, 495.849 272.412 C 487.430 276.517, 480.441 279.774, 480.318 279.651 C 480.194 279.528, 482.539 274.175, 485.527 267.756 C 496.843 243.451, 504.680 215.419, 507.079 190.663 C 510.450 155.867, 501.042 118.433, 482.338 92.220 C 477.086 84.860, 464.737 71.543, 458.809 66.849 L 455.050 63.871 452.038 68.186 " stroke="none" fill="black" fill-rule="evenodd"/>
</svg>