<svg xmlns="http://www.w3.org/2000/svg" width="1000" height="1000" viewBox="0 0 1000 1000" version="1.1">
	<path d="M 342.318 92.326 C 316.918 99.572, 295.875 105.767, 295.557 106.094 C 295.240 106.420, 296.542 113.171, 298.453 121.096 C 307.125 157.068, 313.958 205.299, 313.990 230.762 L 314 239.024 309.750 238.408 C 296.493 236.487, 283.736 231.332, 274.259 224.064 L 269.019 220.045 233.345 254.233 L 197.671 288.421 204.085 294.256 C 217.308 306.285, 242.133 321.044, 259.788 327.372 C 268.063 330.338, 284.162 334.516, 291.280 335.545 C 295.570 336.165, 295.993 336.454, 295.411 338.368 C 290.558 354.314, 275.825 391.707, 266.714 411.204 C 261.496 422.371, 263.817 421.380, 238.893 423.076 C 219.100 424.423, 167.813 423.805, 145.197 421.948 C 137.330 421.302, 130.652 421.015, 130.356 421.310 C 129.615 422.052, 119.562 517.895, 120.163 518.496 C 121.617 519.950, 177.170 522.985, 202.500 522.993 C 235.678 523.004, 275.610 519.819, 296.250 515.515 C 300.163 514.699, 303.472 514.138, 303.602 514.269 C 303.733 514.399, 300.437 520.130, 296.279 527.003 C 284.674 546.184, 272.561 568.095, 265.321 583 C 250.838 612.818, 222.120 679.203, 198.702 737 C 171.507 804.119, 167.208 815.422, 168.390 816.713 C 169 817.380, 185.025 828.708, 204 841.886 L 238.500 865.846 279.487 824.173 C 390.018 711.792, 474.052 633.362, 529 591.300 C 543.528 580.179, 610.570 533.086, 639 514.031 C 677.491 488.234, 710.954 469.132, 730.926 461.554 L 735.353 459.875 732.926 462.855 C 731.592 464.495, 726.623 470.485, 721.884 476.168 C 706.606 494.488, 698.707 508.229, 693.236 526 C 690.859 533.720, 690.615 536.060, 690.580 551.500 C 690.544 567.393, 690.717 569.021, 693.246 576.500 C 696.829 587.101, 703.601 598.431, 711.222 606.578 C 722.885 619.046, 734.777 626.665, 760 637.830 C 776.282 645.038, 788.309 651.004, 791.250 653.334 C 794.130 655.616, 793.534 661.962, 789.979 666.871 C 783.309 676.078, 767.814 685.049, 725.172 704.393 C 681.573 724.170, 662.280 736.827, 647.419 755.402 C 639.549 765.237, 633.971 775.762, 630.382 787.549 C 627.930 795.600, 627.657 798.009, 627.665 811.500 C 627.676 828.930, 629.393 837.004, 636.050 850.928 C 655.651 891.929, 701.094 915.829, 776 924.534 C 783.425 925.397, 800.862 926.369, 814.750 926.694 C 835.949 927.191, 839.999 927.062, 839.993 925.893 C 839.961 919.266, 835.928 829.595, 835.650 829.317 C 835.450 829.117, 828.585 828.726, 820.393 828.448 C 783.094 827.181, 753.432 822.404, 735.818 814.826 C 732.291 813.309, 731.240 812.416, 731.961 811.547 C 733.569 809.610, 751.037 800.858, 772.869 791.051 C 813.681 772.717, 830.833 762.838, 849 747.201 C 869.349 729.686, 882.208 709.614, 888.740 685.170 C 891.046 676.542, 891.327 673.613, 891.347 658 C 891.368 642.259, 891.109 639.533, 888.776 630.880 C 882.146 606.299, 866.799 585.195, 844.837 570.460 C 835.981 564.518, 819.469 555.969, 804.295 549.470 L 793.090 544.670 797.295 539.724 C 821.526 511.220, 828.391 501.557, 834.546 487.292 C 845.031 462.991, 845.057 437.611, 834.623 413.312 C 818.880 376.652, 790.592 357.799, 751.505 357.918 C 718.097 358.019, 681.591 371.644, 627 404.385 C 599.513 420.871, 501.623 487.997, 471 511.359 C 449.076 528.085, 413.457 558.231, 383.493 585.420 C 377.989 590.414, 372.393 595.400, 371.057 596.500 L 368.628 598.500 370.706 595 C 397.450 549.952, 423.673 509.817, 458.500 460.627 C 468.950 445.867, 477.376 433.354, 477.225 432.820 C 477.074 432.286, 466.580 416.632, 453.906 398.034 L 430.862 364.218 408.411 373.255 C 396.062 378.226, 385.767 382.101, 385.533 381.866 C 385.298 381.632, 387.268 374.703, 389.909 366.470 C 392.550 358.236, 396.686 343.765, 399.100 334.312 L 403.488 317.124 427.494 308.384 C 474.378 291.315, 499.515 281.322, 499.207 279.875 C 499.045 279.119, 490.957 258.554, 481.234 234.176 C 465.307 194.246, 463.353 189.898, 461.527 190.313 C 460.412 190.566, 448.928 194.840, 436.007 199.810 C 423.086 204.781, 412.432 208.765, 412.331 208.665 C 412.231 208.564, 411.435 201.511, 410.562 192.991 C 408.309 171.004, 405.410 151.281, 401.375 130.500 C 397.147 108.725, 390.082 78.971, 389.165 79.076 C 388.799 79.117, 367.718 85.080, 342.318 92.326 " stroke="none" fill="black" fill-rule="evenodd"/>
</svg>