<svg xmlns="http://www.w3.org/2000/svg" width="1000" height="1000" viewBox="0 0 1000 1000" version="1.1">
	<path d="M 312.250 83.635 C 311.012 83.912, 309.981 84.670, 309.959 85.320 C 309.936 85.969, 312.060 107.929, 314.678 134.120 L 319.439 181.739 333.470 182.289 C 349.294 182.908, 353.079 183.772, 357.310 187.730 C 360.728 190.928, 370.949 206.049, 372.937 210.848 C 373.679 212.639, 374.784 213.937, 375.393 213.732 C 376.002 213.527, 396.635 205.741, 421.245 196.429 C 449.099 185.891, 465.993 179.001, 465.995 178.178 C 466.003 175.888, 455.277 155.232, 449.379 146.179 C 425.100 108.910, 401.914 92.671, 363.356 85.929 C 351.861 83.919, 317.805 82.391, 312.250 83.635 M 679.485 170.051 C 621.030 175.732, 543.573 224.638, 432.500 325.996 C 423.700 334.027, 406.375 349.621, 394 360.651 C 381.625 371.681, 367.344 384.596, 362.265 389.352 C 357.185 394.109, 352.587 398, 352.046 398 C 350.827 398, 327.394 376.232, 316.250 364.747 C 311.713 360.070, 308.002 355.402, 308.004 354.372 C 308.006 353.342, 308.914 351.013, 310.023 349.195 C 311.175 347.304, 311.709 345.347, 311.269 344.622 C 310.846 343.925, 296.351 327.070, 279.058 307.167 L 247.616 270.980 244.233 274.240 C 222.852 294.843, 209 326.505, 209 354.776 C 209 391.758, 223.408 415.529, 272.750 459.954 C 277.288 464.039, 281 467.765, 281 468.232 C 281 468.700, 276.613 473.700, 271.250 479.342 C 209.943 543.852, 165.738 605.270, 148.025 650.547 C 127.269 703.605, 135.504 749.337, 171 778.133 C 206.365 806.822, 254.180 808.391, 305.287 782.539 C 369.484 750.066, 426.421 676.972, 442.023 607 C 452.935 558.062, 446.204 517.998, 419.905 475.352 L 417.963 472.205 434.732 456.818 C 443.954 448.356, 457.575 436.061, 465 429.496 C 472.425 422.931, 485.700 411.003, 494.500 402.989 C 553.714 349.068, 592.606 317.890, 629.456 294.803 C 651.295 281.120, 675.365 270.329, 688.192 268.470 L 692.883 267.790 694.395 273.145 C 698.436 287.457, 699.370 307.931, 696.628 322.088 C 690.516 353.649, 671.086 382.829, 640.015 407.111 C 633.408 412.275, 628.001 417.003, 628.001 417.619 C 627.999 419.959, 641.831 499.165, 642.328 499.661 C 642.615 499.948, 655.146 499.191, 670.175 497.979 C 699.380 495.622, 711.133 495.747, 730.967 498.627 C 749.287 501.287, 765.979 507.849, 770.370 514.118 C 775.816 521.894, 767.900 546.173, 753.653 565.387 C 740.751 582.788, 725.062 597.261, 682 631.490 C 666.640 643.698, 649.851 658.017, 643.969 663.924 C 632.607 675.334, 623.468 688.043, 619.366 698.138 C 608.600 724.632, 614.314 757.608, 634.357 784.661 C 641.742 794.629, 655.554 807.985, 671.428 820.510 C 693.401 837.847, 701.626 845.170, 709.781 854.659 C 720.046 866.601, 735.514 887.479, 744.433 901.427 L 751.761 912.890 793.631 888.877 C 816.659 875.670, 835.842 864.530, 836.260 864.122 C 837.231 863.174, 826.051 845.149, 813.784 827.882 C 789.100 793.139, 770.512 773.118, 742 750.568 C 723.711 736.102, 718 731.159, 718 729.792 C 718 729.343, 730.076 719.362, 744.836 707.612 C 780.185 679.472, 790.999 670.181, 806 655.065 C 827.483 633.417, 842.422 613.244, 853.071 591.500 C 869.956 557.021, 874.835 521.726, 866.911 491.376 C 856.921 453.111, 826.729 424.027, 781.828 409.414 L 770.299 405.662 775.540 394.581 C 789.725 364.582, 795.765 340.167, 796.721 308.955 C 797.299 290.107, 796.270 277.320, 792.825 260.500 C 781.940 207.360, 750.300 175.269, 703.666 170.069 C 693.184 168.900, 691.344 168.899, 679.485 170.051 M 329.823 561.343 C 280.074 616.111, 245.957 664.797, 237.611 692.932 C 235.358 700.526, 235.495 702, 238.448 702 C 242.964 702, 256.426 697.093, 264.381 692.548 C 303.804 670.023, 337.973 623.699, 346.537 581.165 C 348.525 571.296, 348.192 553.342, 345.929 548.343 L 344.500 545.185 329.823 561.343 " stroke="none" fill="black" fill-rule="evenodd"/>
</svg>