<svg xmlns="http://www.w3.org/2000/svg" width="1000" height="1000" viewBox="0 0 1000 1000" version="1.1">
	<path d="M 410.500 93.252 C 372.427 125.287, 336.643 145.449, 303.217 153.700 C 289.942 156.977, 273.249 157.396, 263 154.709 C 253.480 152.214, 240.990 145.587, 234.164 139.410 C 230.876 136.435, 227.905 134, 227.563 134 C 227.093 134, 150.052 188.883, 148.109 190.603 C 147.202 191.405, 157.083 202.857, 164.684 209.813 C 190.368 233.320, 221.554 248.489, 254.500 253.500 C 266.951 255.394, 293.159 255.453, 306 253.616 C 311.225 252.869, 315.641 252.378, 315.813 252.525 C 316.183 252.842, 285.256 303.936, 263.168 339.500 C 248.459 363.182, 226.400 396.468, 163.100 490.499 C 147.920 513.048, 135.521 531.723, 135.546 531.999 C 135.572 532.275, 144.861 538.800, 156.190 546.500 C 174.798 559.148, 186.166 567.510, 207.653 584.355 L 214.806 589.962 222.962 580.231 C 232.248 569.152, 255.232 544.608, 265.193 535.133 L 271.887 528.767 266.382 541.083 C 259.567 556.332, 253.818 573.364, 250.862 587.061 C 247.646 601.964, 247.639 627.813, 250.849 639.500 C 257.823 664.898, 275.197 686.037, 298.497 697.476 C 315.884 706.012, 328.996 709.091, 348 709.098 C 362.328 709.104, 373.103 707.319, 385.814 702.833 C 432.470 686.368, 473.414 643.791, 494.504 589.810 L 498.290 580.119 505.012 593.810 C 523.979 632.443, 546.944 656.597, 616.500 711.073 C 648.329 736.001, 693.298 769, 695.438 769 C 696.623 769, 767.719 740.639, 768.423 739.885 C 768.982 739.287, 775.700 672.787, 778.451 640.623 C 779.809 624.741, 781.056 611.610, 781.222 611.445 C 781.387 611.280, 784.667 611.811, 788.511 612.627 C 800.373 615.143, 821.309 619.024, 821.572 618.755 C 821.894 618.424, 836 524.474, 836 522.657 C 836 521.687, 832.491 520.624, 824.162 519.071 C 810.437 516.513, 789.217 511.551, 788.367 510.700 C 788.046 510.380, 788.284 500.528, 788.894 488.809 C 789.505 477.089, 790.530 449.950, 791.173 428.500 L 792.341 389.500 802.920 378.127 C 808.739 371.872, 819.506 359.748, 826.847 351.184 C 839.551 336.362, 840.168 335.441, 839.658 332.056 C 839.363 330.100, 837.219 312.975, 834.893 294 C 832.568 275.025, 830.583 259.380, 830.482 259.233 C 830.381 259.086, 821.229 260.845, 810.143 263.143 C 799.057 265.440, 789.821 267.136, 789.619 266.910 C 789.417 266.685, 788.293 257.885, 787.122 247.355 C 783.174 211.850, 777.815 186.594, 770.101 167.133 C 755.646 130.668, 731.807 110.870, 700.402 109.249 C 672.331 107.801, 640.469 119.614, 599 146.845 C 537.738 187.073, 453.873 267.387, 390.519 346.500 C 378.470 361.546, 377.461 362.540, 373.603 363.176 C 362.943 364.932, 362.938 365.795, 373.683 348.250 C 413.254 283.640, 500.283 137.313, 499.840 136.135 C 499.569 135.413, 436.694 82.677, 430.985 78.383 C 429.783 77.479, 425.875 80.316, 410.500 93.252 M 671.622 217.984 C 622.685 245.434, 549.127 311.850, 486.716 384.939 L 476.094 397.379 480.122 401.748 C 485.583 407.673, 495.288 422.855, 498.609 430.669 L 501.327 437.063 506.483 427.214 C 525.949 390.035, 558.948 359.194, 609.500 330.933 C 629.516 319.743, 654.757 308.229, 679.903 298.817 C 685.731 296.635, 690.842 294.520, 691.259 294.116 C 693.781 291.676, 683.922 212.991, 681.096 213.002 C 680.768 213.004, 676.505 215.245, 671.622 217.984 M 608.795 452.767 C 584.256 478.186, 577.856 513.921, 591.923 546.978 C 601.149 568.660, 615.298 583.472, 665.380 623.876 C 673.014 630.035, 679.393 634.940, 679.556 634.777 C 679.951 634.383, 684 585.304, 684 580.918 C 684 577.864, 683.498 577.230, 679.319 575.013 C 661.218 565.411, 641.024 547.855, 631.340 533.303 C 622.867 520.569, 616.533 503.074, 614.035 485.500 C 612.653 475.781, 612.772 467.116, 614.438 456.015 C 615.222 450.798, 615.743 446.410, 615.597 446.263 C 615.450 446.117, 612.390 449.044, 608.795 452.767 M 399.836 505.646 C 375.013 544.563, 362.144 567.526, 353.660 588.037 C 349.840 597.273, 346.370 609.703, 347.341 610.674 C 348.657 611.990, 357.768 608.375, 364.530 603.852 C 384.711 590.354, 400.095 566.539, 407.975 536.599 C 411.948 521.502, 413.168 511.666, 412.806 497.646 L 412.500 485.793 399.836 505.646 M 134.096 626.606 C 123.809 640.971, 113.558 666.491, 110.438 685.500 C 108.060 699.990, 108.922 722.074, 112.374 735.107 C 127.960 793.944, 180.450 832.556, 278.500 857.312 C 339.508 872.715, 411.915 881.497, 507.500 885.086 C 546.617 886.554, 653.621 885.705, 697 883.582 C 747.401 881.114, 811.937 876.642, 829.307 874.413 C 833.857 873.830, 834.087 873.655, 833.611 871.148 C 833.334 869.692, 830.986 847.800, 828.393 822.500 C 825.799 797.200, 823.570 776.357, 823.438 776.182 C 823.306 776.007, 812.466 776.785, 799.349 777.911 C 714.496 785.192, 621.052 788.367, 536.500 786.842 C 488.854 785.982, 462.784 784.568, 418.500 780.443 C 300.037 769.407, 213.552 740.204, 207.668 709.252 C 206.761 704.479, 208.579 696.453, 212.389 688.412 L 215.748 681.324 178.698 652.412 C 158.321 636.510, 140.856 622.932, 139.888 622.238 C 138.336 621.125, 137.651 621.641, 134.096 626.606 " stroke="none" fill="black" fill-rule="evenodd"/>
</svg>