<svg xmlns="http://www.w3.org/2000/svg" width="1000" height="1000" viewBox="0 0 1000 1000" version="1.1">
	<path d="M 512.507 66.225 C 511.488 69.122, 488.950 160.274, 489.213 160.437 C 489.371 160.535, 492.650 161.825, 496.500 163.306 C 500.350 164.786, 505.056 166.948, 506.958 168.110 C 511.117 170.652, 512.679 169.214, 490.500 183.249 C 461.508 201.595, 449.487 210.654, 436.258 224.125 C 403.848 257.130, 393.887 299.983, 408.479 343.634 C 412.397 355.354, 418.427 367.649, 433.783 395.230 C 450.350 424.986, 458.252 444.384, 465.339 472.689 C 469.872 490.796, 475 522.023, 475 531.524 L 475 534.675 458.621 536.383 C 370.670 545.553, 286.290 567.704, 251.692 590.705 C 243.210 596.344, 232.364 606.375, 226.516 613.991 C 220.299 622.086, 216.498 629.326, 212.862 640 C 209.702 649.274, 209.625 649.917, 209.608 667 C 209.591 683.297, 209.780 685.119, 212.352 693.500 C 217.864 711.462, 226.837 728.415, 239.737 745.239 C 275.779 792.246, 349.643 850.009, 447.500 907.716 C 467.754 919.659, 499.263 937.019, 500.571 936.954 C 501.082 936.929, 513.875 929.383, 529 920.184 L 556.500 903.461 559.205 889.980 C 567.836 846.966, 574.073 763.125, 575.672 668.628 L 576.330 629.696 599.415 630.299 C 658.866 631.852, 715.483 640.614, 742.044 652.372 C 743.186 652.878, 752.042 643.656, 776.044 616.965 C 793.895 597.115, 808.632 580.505, 808.794 580.055 C 809.216 578.881, 802.152 573.501, 792.842 567.905 C 758.918 547.516, 685.662 533.776, 597.913 531.343 L 574.325 530.689 572.597 514.594 C 568.924 480.390, 561.814 446.735, 552.190 418 C 543.406 391.775, 534.014 371.598, 514.947 338 C 503.542 317.901, 501.055 312.079, 501.024 305.400 C 500.976 295.218, 508.226 288.745, 546.830 264.500 C 592.475 235.833, 610.611 213.073, 613.894 180.340 C 616.712 152.245, 607.323 127.472, 585.500 105.422 C 569.554 89.309, 550.124 77.295, 527 69.247 C 515.228 65.150, 513.046 64.695, 512.507 66.225 M 459 635.578 C 426.559 639.424, 389.334 646.222, 363 653.109 C 346.715 657.368, 321.848 665.323, 313.682 668.885 L 308.865 670.987 311.033 674.845 C 315.664 683.085, 323.983 693.061, 337.461 706.536 C 353.822 722.892, 369.613 736.272, 394.017 754.454 C 417.254 771.766, 469.549 806.902, 470.466 805.818 C 470.890 805.318, 473.905 756.898, 475.094 731.500 C 475.687 718.850, 476.470 691.737, 476.836 671.249 L 477.500 633.998 474 634.106 C 472.075 634.166, 465.325 634.828, 459 635.578 " stroke="none" fill="black" fill-rule="evenodd"/>
</svg>