<svg xmlns="http://www.w3.org/2000/svg" width="1000" height="1000" viewBox="0 0 1000 1000" version="1.1">
	<path d="M 540.250 58.667 C 535.694 59.047, 535 59.387, 535 61.238 C 535 62.411, 537.989 83.301, 541.641 107.660 L 548.282 151.949 544.182 157.225 C 531.103 174.054, 487.452 221.862, 484.541 222.547 C 480.517 223.493, 403.992 235.003, 379 238.422 C 319.816 246.518, 295.260 248.469, 262.500 247.680 C 223.772 246.747, 193.231 242.961, 158.689 234.811 C 151.643 233.149, 145.673 231.994, 145.422 232.245 C 144.957 232.709, 118.184 322.340, 117.742 324.909 C 117.167 328.254, 167.822 338.650, 205.650 342.949 C 260.082 349.136, 308.156 347.850, 377.461 338.350 L 382.395 337.674 376.346 345.087 C 361.506 363.274, 345.007 388.027, 336.746 404.500 C 321.004 435.889, 319.605 455.435, 328.551 519 C 330.447 532.475, 331.999 544.208, 332 545.073 C 332 545.939, 328.742 548.864, 324.760 551.573 C 312.775 559.730, 279.236 585.138, 267.534 594.927 C 211.143 642.101, 172.354 689.993, 149.630 740.503 C 142.458 756.444, 135.740 774.560, 133.127 785.004 C 118.075 845.177, 146.641 898.884, 201 912.607 C 212.028 915.391, 235.969 915.224, 249.148 912.271 C 281.843 904.945, 316.258 884.966, 354 851.401 C 401.760 808.926, 428.849 753.409, 437.146 681 C 438.410 669.966, 438.998 621.902, 438.098 603.099 L 437.696 594.698 451.098 586.562 C 485.308 565.795, 527.895 543.471, 547.691 535.929 C 549.228 535.344, 547.903 537.546, 543.258 543.297 C 529.515 560.313, 517.995 581.144, 513.835 596.500 C 510.961 607.109, 510.730 627.342, 513.373 636.925 C 520.374 662.306, 539.678 681.175, 565.797 688.168 C 571.958 689.818, 576.802 690.258, 590 690.365 C 599.075 690.439, 609.935 690.148, 614.134 689.719 L 621.769 688.938 622.478 719.219 C 622.868 735.873, 623.032 751.394, 622.843 753.708 L 622.500 757.916 613.567 751.941 C 608.653 748.655, 604.334 746.312, 603.969 746.733 C 603.604 747.155, 592.369 765.050, 579.002 786.500 C 565.636 807.950, 554.099 826.422, 553.366 827.549 C 552.128 829.453, 552.474 829.888, 558.267 833.710 C 588.491 853.649, 605.618 872.182, 633.163 914.750 C 641.437 927.538, 648.616 938, 649.115 938 C 649.615 938, 666.937 928.920, 687.610 917.822 L 725.195 897.644 724.559 877.072 C 723.326 837.233, 722.030 772.910, 721.364 718.500 L 720.692 663.500 732.096 659.631 C 738.368 657.503, 751.537 652.865, 761.360 649.324 C 771.182 645.783, 779.429 643.096, 779.686 643.353 C 779.943 643.610, 773.295 657.448, 764.914 674.106 C 755.950 691.920, 750.141 704.547, 750.807 704.769 C 755.288 706.263, 775 720.979, 782.590 728.496 C 791.073 736.898, 792.120 738.402, 798.249 751 C 806.066 767.066, 813.753 787.468, 817.512 802.125 C 819.698 810.651, 820.559 812.678, 821.868 812.380 C 822.766 812.176, 839.700 809.065, 859.500 805.466 C 906.435 796.934, 916.289 795.045, 916.866 794.467 C 917.544 793.789, 912.665 774.443, 908.410 760.933 C 900.163 734.750, 884.330 699.552, 873.808 684.010 C 862.257 666.948, 845.298 650.053, 824.698 635.087 L 815.930 628.716 838.500 619.489 C 850.914 614.414, 861.300 610.033, 861.581 609.753 C 862.054 609.280, 824.419 521.328, 823.097 519.818 C 822.769 519.442, 819.350 520.494, 815.500 522.154 C 801.025 528.396, 767.687 541.608, 745 550.095 L 721.500 558.885 721.229 538.320 C 721.080 526.951, 721.367 517.251, 721.871 516.627 C 723.493 514.624, 758.130 447.796, 757.745 447.412 C 757.541 447.207, 751.777 444.731, 744.937 441.909 C 738.097 439.087, 732.340 436.631, 732.144 436.450 C 731.043 435.434, 746.655 376.856, 756.626 344.594 C 760.180 333.095, 762.730 323.364, 762.294 322.969 C 761.857 322.573, 741.475 315.571, 717 307.407 L 672.500 292.564 681 291.323 C 708.519 287.306, 774.933 289.601, 818.886 296.088 C 823.800 296.813, 826.477 296.843, 826.886 296.176 C 827.712 294.827, 841.484 200.150, 840.933 199.605 C 840.695 199.369, 832.850 198.251, 823.500 197.119 C 765.244 190.071, 712.108 188.414, 676.174 192.525 C 663.761 193.945, 645.259 196.534, 639.698 197.630 L 636.897 198.182 641.616 190.841 C 647.741 181.315, 652.377 171.235, 655.158 161.395 C 658.195 150.650, 658.180 133.071, 655.124 121.500 C 646.647 89.401, 621.498 67.620, 584.637 60.452 C 576.545 58.878, 550.354 57.825, 540.250 58.667 M 347.250 102.749 L 317 103.029 317 126.869 C 317 170.240, 319.135 183.450, 329.545 204.500 C 334.507 214.535, 343.133 227.623, 350.315 236.018 L 353.130 239.308 358.815 233.817 C 363.990 228.819, 424.035 172.955, 424.846 172.384 C 425.037 172.250, 423.863 170.196, 422.237 167.820 C 415.816 158.434, 416 159.566, 416 129.550 L 416 102 396.750 102.235 C 386.163 102.364, 363.887 102.596, 347.250 102.749 M 637 297.929 C 620.775 300.549, 591.204 305.342, 571.286 308.581 L 535.073 314.470 520.708 329.985 C 472.272 382.299, 444.675 415.603, 430.621 438.701 C 421.811 453.181, 421.593 454.001, 422.347 469.855 C 423.296 489.811, 422.352 488.790, 433.835 482.273 C 490.903 449.882, 549.158 426.644, 592.494 418.984 C 604.448 416.871, 622.398 415.002, 630.750 415.001 C 634.951 415, 636 414.672, 636 413.358 C 636 407.753, 655.735 335.069, 664.902 306.912 C 667.156 299.989, 669 294.027, 669 293.662 C 669 292.741, 669.796 292.635, 637 297.929 M 326 674.697 C 299.263 697.407, 272.649 726.312, 257.204 749.413 C 245.202 767.366, 228 805.105, 228 813.484 C 228 815.721, 228.187 815.787, 231.750 814.811 C 253.511 808.849, 295.976 775.104, 311.837 751.170 C 325.469 730.598, 334.254 705.877, 338.017 677.500 C 340.012 662.455, 340.326 662.529, 326 674.697 " stroke="none" fill="black" fill-rule="evenodd"/>
</svg>