<svg xmlns="http://www.w3.org/2000/svg" width="1000" height="1000" viewBox="0 0 1000 1000" version="1.1">
	<path d="M 302.476 134.464 C 279.389 148.470, 260.591 160.282, 260.702 160.714 C 260.813 161.147, 261.869 164.198, 263.047 167.496 C 270.254 187.657, 269.513 213.398, 261.125 234.347 C 253.798 252.644, 240.414 271.390, 199.968 320 C 152.385 377.188, 135.505 401.097, 125.095 426.043 C 118.877 440.945, 116.822 449.806, 116.264 464.132 C 115.265 489.725, 123.231 512.659, 145.047 547 C 170.146 586.510, 176.205 598.762, 181.145 620 C 184.902 636.152, 184.675 673.264, 180.367 747 C 178.399 780.686, 178.835 815.531, 182.084 884.250 C 184.092 926.714, 184.589 932.999, 185.944 932.990 C 189.264 932.968, 276.424 916.975, 277.126 916.259 C 277.535 915.842, 279.951 907.175, 282.494 897 C 306.349 801.552, 344.473 704.525, 373.192 666.173 C 375.385 663.244, 377.027 660.695, 376.840 660.509 C 376.653 660.323, 359.179 646.603, 338.009 630.019 L 299.519 599.866 297.249 602.683 C 296.001 604.232, 292.195 609.634, 288.791 614.686 C 285.387 619.738, 282.307 623.690, 281.947 623.467 C 281.586 623.244, 281.006 620.332, 280.657 616.995 C 278.006 591.627, 265.868 556.629, 250.337 529.573 C 247.788 525.133, 240.345 513.047, 233.796 502.716 C 221.552 483.400, 215 471.120, 215 467.486 C 215 465.072, 223.213 450.370, 229.797 441 C 237.321 430.290, 250.363 413.847, 271.039 389 C 317.501 333.168, 332.723 312.279, 345.732 286.500 C 369.119 240.158, 373.347 186.808, 357.473 138.349 C 354.445 129.103, 345.756 109, 344.789 109 C 344.603 109, 325.562 120.459, 302.476 134.464 M 658.500 280.040 C 629.106 282.435, 608.480 286.112, 587.773 292.649 C 544.489 306.313, 498.925 334.110, 462.787 368.900 L 451.665 379.607 456.583 384.188 C 459.287 386.707, 475.630 401.601, 492.900 417.285 L 524.301 445.800 534.400 436.818 C 564.104 410.401, 596.385 391.861, 625.566 384.458 C 632.877 382.604, 655.023 379, 659.109 379 C 659.489 379, 657.084 381.626, 653.764 384.835 L 647.727 390.670 681.441 426.341 C 704.042 450.254, 715.569 461.763, 716.411 461.256 C 717.101 460.840, 740.247 439.161, 767.847 413.081 C 802.626 380.216, 817.876 365.177, 817.533 364.081 C 817.262 363.211, 813.699 347.731, 809.617 329.680 C 805.534 311.630, 802.038 296.725, 801.847 296.559 C 801.656 296.392, 794.300 294.171, 785.500 291.622 C 754.680 282.694, 735.493 280.073, 697 279.531 C 681.875 279.318, 664.550 279.547, 658.500 280.040 M 454 640.051 C 438.325 640.422, 424.220 640.787, 422.656 640.863 C 419.821 641, 419.814 641.016, 420.464 646.250 C 422.774 664.873, 427.046 679.155, 435.494 696.500 C 467.392 761.990, 536.443 802.930, 635.324 814.980 C 677.806 820.157, 719.997 820.298, 775 815.445 C 807.931 812.539, 857.932 805.340, 858.678 803.397 C 859.097 802.305, 843.344 708.010, 842.622 707.288 C 842.466 707.132, 835.378 708.094, 826.871 709.426 C 783.658 716.192, 753.073 719.002, 715 719.702 C 682.229 720.305, 663.431 719.359, 639.500 715.905 C 574.650 706.543, 530.846 680.236, 520.425 644.392 L 518.858 639 500.679 639.189 C 490.681 639.293, 469.675 639.681, 454 640.051 " stroke="none" fill="black" fill-rule="evenodd"/>
</svg>