<svg xmlns="http://www.w3.org/2000/svg" width="1000" height="1000" viewBox="0 0 1000 1000" version="1.1">
	<path d="M 547 67.667 C 466.997 71.136, 372.211 88.196, 267.896 117.902 C 232.637 127.943, 187.681 142.175, 185.768 143.903 C 185.207 144.410, 206.267 205.151, 216.544 232.663 L 218.099 236.827 231.300 232.379 C 260.960 222.386, 308.174 208.683, 342.500 200.107 C 429.147 178.458, 497.357 167.841, 559.500 166.331 C 600.862 165.326, 631.950 168.673, 659.500 177.098 C 725.759 197.358, 751.954 240.942, 728.449 291.816 C 718.473 313.408, 696.552 337.271, 671 354.355 L 662.500 360.038 661.822 356.269 C 661.449 354.196, 660.632 347.838, 660.007 342.140 C 657.144 316.035, 646.747 293.593, 629.570 276.442 C 603.924 250.835, 567.649 241.135, 526.894 248.985 C 499.829 254.198, 475.918 266.362, 457.152 284.465 C 419.873 320.428, 416.836 367.155, 449.004 409.845 C 461.512 426.444, 483.425 444.188, 504.866 455.079 L 513.232 459.328 503.866 461.963 C 462.169 473.695, 428.264 499.372, 410.942 532.337 C 391.208 569.893, 394.533 612.572, 420.340 652.963 L 423.831 658.426 409.165 666.341 C 336.772 705.410, 296.725 740.973, 281.934 779.327 C 275.744 795.378, 274.681 801.055, 274.596 818.500 C 274.530 832.264, 274.833 835.589, 276.768 842.291 C 286.730 876.806, 316.012 900.613, 363.500 912.807 C 398.603 921.821, 427.877 924.502, 490.500 924.440 C 539.705 924.390, 567.046 923.044, 622.500 917.937 C 676.391 912.974, 771.500 900.833, 773.697 898.636 C 774.280 898.054, 758.778 804.263, 757.851 802.761 C 757.409 802.044, 752.793 802.394, 743.351 803.860 C 690.378 812.084, 618.476 819.883, 556 824.180 C 530.983 825.901, 447.626 825.924, 431 824.215 C 407.815 821.831, 378.648 815.991, 375.766 813.154 C 374.357 811.768, 385.011 800.132, 395.216 791.912 C 416.143 775.056, 446.204 757.436, 499.978 730.510 L 515.456 722.759 528.978 725.409 C 547.777 729.092, 568.216 730.469, 582.908 729.041 C 597.183 727.653, 628.957 723.377, 629.573 722.760 C 629.822 722.512, 631.155 710.651, 632.535 696.404 C 633.915 682.157, 635.757 666.007, 636.629 660.515 L 638.213 650.530 646.937 641.404 C 660.841 626.860, 668.826 613.389, 673.200 597.093 C 677.014 582.884, 675.775 558.082, 670.296 539 C 668.061 531.215, 662.777 518.983, 658.988 512.826 L 655.760 507.580 657.386 489.040 C 658.281 478.843, 659.010 469.999, 659.006 469.386 C 659.003 468.774, 664.435 466.356, 671.078 464.013 C 695.647 455.350, 725.191 438.586, 748 420.367 C 761.343 409.708, 783.662 386.756, 793.575 373.500 C 824.557 332.066, 839.139 286.231, 835.195 242.678 C 828.979 174.037, 783.761 119.227, 709 89.712 C 665.900 72.696, 609.140 64.973, 547 67.667 M 543.870 346.060 C 541.874 346.532, 537.599 348.098, 534.370 349.540 L 528.500 352.161 533 356.122 C 538.997 361.400, 547.283 366.406, 555.920 369.967 L 563 372.887 562.994 366.193 C 562.986 356.627, 561.349 347.736, 559.322 346.250 C 557.414 344.851, 549.396 344.752, 543.870 346.060 M 538.729 555.038 C 525.499 557.263, 510.789 564.158, 503.305 571.642 C 495.751 579.196, 495.177 584.250, 500.662 594.914 C 502.676 598.830, 506.614 604.518, 509.412 607.555 L 514.500 613.077 530 604.451 C 538.525 599.706, 545.634 595.693, 545.797 595.532 C 546.170 595.165, 551 558.301, 551 555.824 C 551 553.786, 547.502 553.562, 538.729 555.038 " stroke="none" fill="black" fill-rule="evenodd"/>
</svg>