<svg xmlns="http://www.w3.org/2000/svg" width="1000" height="1000" viewBox="0 0 1000 1000" version="1.1">
	<path d="M 302.317 127.217 L 256.134 142.311 258.520 148.649 C 262.074 158.091, 270.060 173.166, 277.777 185 C 304.289 225.655, 341.632 256.299, 386.709 274.389 C 398.923 279.291, 419.768 285.565, 420.710 284.623 C 421.195 284.139, 443.930 191.671, 443.983 189.966 C 443.992 189.672, 439.760 188.158, 434.577 186.601 C 399.344 176.016, 369.715 151.370, 353.610 119.250 C 351.611 115.263, 349.643 112.028, 349.237 112.061 C 348.832 112.095, 327.718 118.915, 302.317 127.217 M 288.399 246.691 C 276.520 258.431, 270.201 267.080, 262.966 281.500 C 254.352 298.669, 252.647 305.828, 252.605 325 C 252.566 342.920, 253.040 345.124, 261.896 368.240 C 268.805 386.274, 281.962 425.978, 288.494 448.500 C 300.306 489.230, 308.435 526.002, 314.468 566 C 320.864 608.407, 326.113 640.259, 329.135 655 C 345.021 732.484, 369.532 785.448, 408 825.408 C 452.063 871.181, 506.012 894.711, 585 902.608 C 605.138 904.622, 652.500 904.894, 675 903.125 C 700.267 901.139, 739.242 896.091, 740.721 894.612 C 741.253 894.080, 722.896 799.796, 722.063 798.787 C 721.740 798.395, 717.617 798.699, 712.901 799.463 C 678.666 805.005, 635.718 807.177, 604 804.972 C 512.471 798.608, 466.881 766.176, 439.954 688.273 C 429.923 659.252, 424.446 632.744, 413.507 560.258 C 407.844 522.737, 405.147 507.933, 399.350 482.557 C 388.639 435.667, 368.460 368.902, 353.993 332.482 C 350.693 324.175, 350.643 324.554, 355.809 318.831 C 357.360 317.114, 357.926 315.688, 357.397 314.831 C 356.419 313.248, 300.238 241.087, 298.507 239.191 C 297.545 238.139, 295.567 239.607, 288.399 246.691 " stroke="none" fill="black" fill-rule="evenodd"/>
</svg>