<svg xmlns="http://www.w3.org/2000/svg" width="1000" height="1000" viewBox="0 0 1000 1000" version="1.1">
	<path d="M 526 65.642 C 509.327 73.447, 457.904 84.637, 416.392 89.493 C 380.729 93.665, 331.290 89.545, 288.648 78.847 C 279.929 76.660, 272.627 75.040, 272.421 75.246 C 271.960 75.707, 242 167.105, 242 168.050 C 242 168.922, 269.845 176.198, 285.920 179.526 C 315.835 185.719, 343.419 188.900, 374 189.683 C 406.850 190.524, 430.362 188.388, 474.066 180.591 C 481.455 179.273, 487.679 178.367, 487.898 178.578 C 488.116 178.789, 486.653 188.308, 484.645 199.731 C 478.557 234.369, 472.453 282.492, 470.397 312.052 L 469.733 321.604 446.616 326.911 C 354.106 348.153, 300.487 370.692, 267.473 402.212 C 248.035 420.770, 237.953 439.653, 233.413 466 C 232.142 473.381, 231.890 479.515, 232.286 493.500 C 232.912 515.638, 236.008 532.391, 244.191 557.939 L 247.245 567.471 239.872 573.966 C 174.903 631.201, 134.904 697.408, 127.482 759.994 C 120.410 819.625, 136.390 869.627, 171.562 897.921 C 196.697 918.141, 227.202 927.068, 266.388 925.672 C 290.180 924.824, 302.897 921.987, 319.324 913.863 C 329.654 908.755, 334.834 905.102, 343.726 896.655 C 366.055 875.445, 378.488 846.848, 384.661 802.500 C 387.194 784.301, 387.195 718.900, 384.662 696.195 C 381.688 669.526, 376.417 644.419, 367.854 616.119 C 365.627 608.760, 364.194 602.460, 364.669 602.119 C 371.324 597.352, 409.093 572.695, 417 567.956 C 432.721 558.533, 463.921 542.813, 477.500 537.473 C 500.008 528.623, 523.057 524.336, 524.396 528.750 C 526.175 534.613, 527.102 546.914, 527.091 564.527 C 527.075 590.358, 526.110 603.008, 519.503 664 C 512.338 730.140, 510.432 758.704, 511.393 785.500 C 513.120 833.639, 522.558 861.683, 544.412 883.617 C 576.357 915.679, 634.459 930.811, 693.692 922.496 C 729.762 917.433, 768.456 903.490, 794.632 886.124 C 805.283 879.058, 817.989 867.428, 824.629 858.668 C 839.448 839.115, 846.959 807.984, 844.134 777.822 C 841.395 748.580, 834.512 725.422, 817.802 689.231 L 810.752 673.962 819.136 665.231 C 849.307 633.810, 867.454 600.233, 872.494 566.500 C 881.213 508.143, 848.505 456.293, 794.500 442.864 C 782.530 439.887, 762.758 439.270, 750.359 441.487 C 690.937 452.112, 644.129 511.513, 647.289 572.285 C 648.426 594.133, 654.090 609.331, 670.848 635.500 L 679.814 649.500 669.157 655.745 C 663.296 659.179, 650.795 665.843, 641.378 670.553 L 624.256 679.117 643.355 723.677 C 653.859 748.185, 662.999 768.446, 663.666 768.702 C 665.157 769.274, 699.985 751.918, 716.930 742.159 C 723.766 738.221, 729.531 735, 729.742 735 C 730.495 735, 735.869 747.708, 739.265 757.518 C 746.514 778.458, 748.081 797.603, 742.902 801.948 C 738.493 805.648, 721.302 813.955, 710.840 817.441 C 691.760 823.800, 681.796 825.382, 661 825.358 C 640.106 825.334, 632.160 823.840, 620.697 817.777 L 614.500 814.500 612.572 807.500 C 610.894 801.405, 610.637 796.945, 610.584 773 C 610.519 743.663, 610.925 737.889, 617.057 681 C 624.091 615.742, 625.074 603.473, 625.667 573.500 C 626.307 541.164, 625.068 525.063, 620.484 506.131 C 605.694 445.050, 556.600 417.645, 487 431.620 C 461.700 436.699, 430.942 448.508, 397 466.173 C 381.027 474.486, 351.978 491.584, 339.310 500.130 L 332.120 504.980 331.365 500.240 C 330.102 492.300, 330.450 480.769, 332.052 477.500 C 337.179 467.038, 372.235 449.807, 413.304 437.565 C 426.664 433.582, 463.119 424.003, 464.932 423.999 C 465.244 423.998, 465.346 426.473, 465.157 429.499 C 464.969 432.524, 465.079 435, 465.402 435 C 465.724 435, 470.948 431.357, 477.009 426.904 L 488.030 418.809 507.265 414.394 C 517.844 411.966, 538.875 407.274, 554 403.968 C 605.170 392.784, 634.193 385.016, 660.669 375.419 C 713.247 356.360, 749.605 332.389, 771.944 302.052 C 779.389 291.942, 787.896 274.880, 791.666 262.500 C 794.231 254.075, 794.406 252.319, 794.400 235 C 794.395 218.133, 794.161 215.637, 791.748 206.723 C 777.485 154.032, 730.682 121.360, 677.244 126.791 C 651.820 129.376, 624.889 139.428, 601.231 155.165 C 597.233 157.824, 593.709 160, 593.401 160 C 592.689 160, 592.510 160.853, 603.115 113.618 C 608.041 91.683, 611.865 73.532, 611.615 73.281 C 611.148 72.815, 536.497 61.947, 534.568 62.065 C 533.981 62.101, 530.125 63.710, 526 65.642 M 676.317 227.416 C 659.574 232.839, 642.329 245.208, 626.173 263.382 C 619.206 271.219, 606.743 288.076, 607.417 288.751 C 608.018 289.352, 630.638 281.565, 642 276.845 C 654.057 271.837, 668.777 264.014, 676.500 258.511 C 684.285 252.962, 693.062 243.594, 695.372 238.368 C 697.159 234.322, 697.155 234.138, 695.155 229.618 C 693.130 225.039, 693.072 225, 688.306 225.045 C 685.663 225.069, 680.268 226.136, 676.317 227.416 M 760.336 541.872 C 752.425 547.603, 746.063 558.107, 746.022 565.504 C 746.005 568.594, 747.162 571.391, 751.088 577.754 C 753.886 582.289, 756.548 586, 757.003 586 C 759.553 586, 770.911 566.674, 773.418 558.068 C 775.227 551.859, 775.485 543.774, 773.965 540.934 C 772.299 537.822, 765.257 538.307, 760.336 541.872 M 274.259 678.459 C 249.877 705.068, 229.964 741.936, 225.942 767.917 C 224.341 778.261, 225.215 803.940, 227.400 810.764 C 229.500 817.321, 233.748 822.261, 239.263 824.558 C 243.838 826.463, 265.870 827.810, 272.408 826.583 C 276.498 825.816, 278.824 822.547, 281.818 813.362 C 286.807 798.053, 287.504 790.066, 287.437 749 C 287.381 714.394, 287.151 709.084, 285.168 696.500 C 283.955 688.800, 282.406 680.061, 281.726 677.080 L 280.489 671.660 274.259 678.459 " stroke="none" fill="black" fill-rule="evenodd"/>
</svg>