<svg xmlns="http://www.w3.org/2000/svg" width="1000" height="1000" viewBox="0 0 1000 1000" version="1.1">
	<path d="M 659 108.102 C 622.240 110.498, 584.466 115.142, 513.500 125.989 C 411.682 141.553, 388.111 143.976, 338.500 143.985 C 287.524 143.994, 231.936 139.303, 183.207 130.879 C 176.445 129.710, 170.719 128.947, 170.482 129.185 C 170.245 129.422, 165.395 151.073, 159.705 177.298 C 150.835 218.177, 149.584 225.046, 150.930 225.449 C 154.406 226.489, 196.545 233.042, 212 234.946 C 258.798 240.712, 288.174 242.439, 339 242.413 C 377.576 242.392, 386.495 242.092, 406 240.153 C 438.366 236.936, 461.191 233.899, 516 225.518 C 588.845 214.378, 607.788 211.838, 643 208.490 C 698.808 203.184, 767.437 205.609, 830.882 215.128 C 838.242 216.232, 844.582 216.768, 844.970 216.318 C 845.821 215.330, 863.265 120.931, 862.700 120.366 C 861.411 119.077, 807.367 112.152, 782 110.026 C 746.078 107.014, 689.309 106.126, 659 108.102 M 682.499 245.095 C 659.110 257.401, 649.015 261.786, 628.500 268.550 C 593.710 280.021, 548.619 289.273, 509 293.071 C 494.072 294.501, 464.195 293.738, 449.196 291.542 C 434.214 289.349, 417.133 285.359, 404.005 280.986 C 397.682 278.880, 392.437 277.234, 392.349 277.329 C 391.573 278.156, 350 364.005, 350 364.779 C 350 366.059, 363.847 371.896, 376.497 375.948 C 407.592 385.909, 439.644 391.310, 475.500 392.630 C 499.776 393.524, 527.704 391.258, 563.370 385.501 C 568.799 384.624, 573.397 384.063, 573.588 384.254 C 573.778 384.445, 567.414 393.708, 559.445 404.838 C 551.475 415.968, 538.885 433.896, 531.466 444.678 L 517.977 464.281 518.238 502.891 L 518.500 541.500 554.500 542.098 C 584.860 542.602, 592.388 543.028, 602.555 544.815 C 640.640 551.510, 669.278 563.136, 688.852 579.848 C 708.437 596.569, 718.276 626.098, 715.038 658.435 C 710.372 705.024, 684.706 743.587, 640.885 769.848 C 602.649 792.761, 542.292 806.947, 493.403 804.510 C 485.650 804.124, 478.886 803.513, 478.373 803.154 C 477.859 802.794, 476.150 795.750, 474.575 787.500 C 461.424 718.627, 441.746 662.582, 418.222 627 C 409.683 614.084, 392.455 595.929, 382.765 589.637 C 356.001 572.258, 326.813 568.936, 298.147 580.008 C 269.734 590.982, 243.732 615.089, 230.998 642.263 C 195.465 718.088, 247.574 816.189, 350.961 868.107 C 387.878 886.646, 426.261 897.475, 470.991 901.973 C 486.245 903.507, 526.078 903.263, 542.195 901.538 C 673.410 887.490, 768.937 820.811, 802.416 719.902 C 810.673 695.013, 813.990 673.805, 813.973 646 C 813.932 573.813, 782.547 518.516, 721 482.190 C 703.901 472.098, 676.503 460.932, 655.500 455.496 C 651.650 454.499, 648.128 453.361, 647.674 452.966 C 646.031 451.538, 667.959 422.841, 724.292 352.700 L 757.862 310.900 730.338 273.700 C 715.200 253.240, 702.518 236.185, 702.156 235.799 C 701.795 235.414, 692.949 239.597, 682.499 245.095 M 326.328 676.777 C 320.933 681.407, 319.008 685.690, 319.004 693.068 C 318.995 708.280, 328.067 725.723, 345.434 743.891 C 352.179 750.946, 366.872 763.461, 367.580 762.754 C 368.150 762.184, 359.147 732.306, 355.339 722.131 C 350.771 709.924, 344.668 696.026, 341.272 690.096 C 337.688 683.838, 330.848 673.994, 330.105 674.027 C 329.772 674.042, 328.072 675.279, 326.328 676.777 " stroke="none" fill="black" fill-rule="evenodd"/>
</svg>