<svg xmlns="http://www.w3.org/2000/svg" width="1000" height="1000" viewBox="0 0 1000 1000" version="1.1">
	<path d="M 320.018 119.499 C 300.503 137.315, 284.395 152.314, 284.223 152.831 C 283.823 154.030, 301.763 170.724, 313.500 180.075 C 342.468 203.154, 374.696 219.237, 402.754 224.615 L 411.693 226.329 405.163 234.414 C 369.712 278.310, 359.609 329.762, 372.095 402.817 C 373.253 409.591, 374.042 415.248, 373.850 415.388 C 373.657 415.528, 366.525 419.396, 358 423.983 C 295.664 457.525, 246.382 494.411, 207.694 536.483 C 163.476 584.569, 135.250 632.519, 124.685 677.500 C 109.028 744.155, 137.968 798.665, 198.500 816.533 C 210.671 820.126, 230.217 821.011, 244.314 818.608 C 296.604 809.695, 356.915 762.816, 412.437 687.928 C 417.972 680.463, 423.480 673.038, 424.678 671.428 L 426.856 668.500 425.381 673.500 C 418.788 695.842, 419.512 718.533, 427.440 738.043 C 435.319 757.434, 454.486 776.652, 473.945 784.671 C 477 785.930, 479.394 787.307, 479.265 787.730 C 479.135 788.154, 477.644 792.325, 475.951 797 C 461.658 836.473, 475.609 877.191, 511.427 900.538 C 522.096 907.493, 529.069 910.601, 540.586 913.536 C 569.070 920.796, 612.473 918.593, 671 906.916 C 694.951 902.138, 713 897.719, 713 896.634 C 713 895.727, 688.909 802.846, 688.524 802.268 C 688.439 802.141, 680.454 803.829, 670.778 806.021 C 637.581 813.540, 600.723 818.965, 582.666 818.989 L 574.832 819 578.091 814.750 C 579.884 812.413, 587.811 804.115, 595.706 796.312 C 608.964 783.210, 610.500 782.002, 615.781 780.534 C 683.413 761.734, 747.977 730.534, 797 692.962 C 810.124 682.904, 835.990 656.651, 844.256 645 C 858.817 624.476, 871.014 593.830, 877.488 561.500 C 890.506 496.493, 875.304 436.068, 835.366 394.064 C 811.759 369.236, 784.306 353.403, 748.635 344.044 C 732.931 339.923, 719.207 337.992, 699 337.059 C 634.468 334.081, 557.653 345.917, 484.162 370.164 C 473.568 373.659, 468.504 374.904, 467.787 374.187 C 467.189 373.589, 466.532 365.543, 466.235 355.196 C 465.227 320.051, 470.524 306.282, 493.633 283.976 C 523.102 255.530, 565.307 232.692, 624.736 213.032 C 640.816 207.713, 654.254 203.080, 654.597 202.736 C 655.070 202.264, 633.364 104.429, 632.529 103.263 C 632.435 103.132, 620.015 105.469, 604.929 108.457 C 534.745 122.355, 486.958 128.362, 446 128.433 C 422.914 128.473, 421.131 128.343, 415.111 126.180 C 398.303 120.142, 379.778 108.245, 363.979 93.341 C 360.282 89.854, 356.862 87.024, 356.378 87.053 C 355.895 87.082, 339.533 101.683, 320.018 119.499 M 652.500 436.140 C 605.365 439.233, 550.132 451.161, 499.464 469.191 L 484.543 474.500 484.435 500 C 484.375 514.025, 483.783 529.325, 483.119 534 C 479.082 562.418, 471.310 588.350, 459.533 612.694 L 452.182 627.888 459.325 620.816 C 493.039 587.435, 539.987 569.273, 582.851 573.031 C 603.282 574.822, 620.355 579.442, 635.326 587.230 C 658.718 599.400, 676.353 620.546, 682.046 643.250 C 682.701 645.862, 683.532 648, 683.892 648 C 684.252 648, 689.486 645.267, 695.523 641.928 C 719.261 628.796, 744.698 609.899, 756.740 596.451 C 767.426 584.517, 772.821 573.159, 779.280 549 C 782.182 538.147, 782.359 536.431, 782.427 518.500 C 782.510 496.863, 781.608 491.956, 775.073 478.500 C 767.756 463.435, 757.394 453.424, 741.206 445.779 C 721.063 436.267, 694.524 433.383, 652.500 436.140 M 370.524 530.611 C 336.489 551.932, 314.829 568.908, 290.439 593.379 C 270.321 613.564, 259.154 626.978, 245.797 647 C 230.267 670.281, 220.604 693.082, 219.310 709.500 C 218.836 715.524, 219.038 716.844, 220.764 718.967 C 222.358 720.928, 223.606 721.401, 226.846 721.272 C 236.655 720.880, 256.008 709.518, 275.689 692.595 C 316.866 657.189, 365.765 589.693, 378.380 550.848 C 381.711 540.591, 385.593 523.259, 384.748 522.415 C 384.507 522.173, 378.106 525.862, 370.524 530.611 M 561 672.507 C 549.597 675.287, 536.293 682.877, 528.500 691.050 L 524.500 695.245 536.500 694.675 C 551.299 693.972, 564.629 691.633, 567.298 689.271 C 568.398 688.297, 572.196 684.125, 575.738 680 L 582.177 672.500 579.338 671.868 C 574.617 670.818, 566.817 671.089, 561 672.507 " stroke="none" fill="black" fill-rule="evenodd"/>
</svg>