<svg xmlns="http://www.w3.org/2000/svg" width="1000" height="1000" viewBox="0 0 1000 1000" version="1.1">
	<path d="M 591.053 84.646 C 564.958 88.724, 543.481 92.185, 543.329 92.338 C 543.176 92.491, 545.272 107.665, 547.988 126.058 C 550.704 144.451, 555.627 179.075, 558.929 203 C 562.231 226.925, 565.171 248.143, 565.462 250.151 L 565.992 253.801 558.705 255.422 C 534.601 260.785, 493.083 262.690, 440.500 260.846 C 420.150 260.133, 400.350 259.538, 396.500 259.524 L 389.500 259.500 385.984 308 L 382.468 356.500 385.484 357.156 C 396.906 359.642, 497.826 360.940, 526 358.963 C 543.151 357.760, 562.989 355.445, 571.839 353.614 C 576.366 352.677, 578.285 352.616, 578.549 353.401 C 579.937 357.522, 593.337 488.341, 592.812 492.646 C 592.525 495.001, 591.564 495.480, 581 498.530 C 508.181 519.552, 446.657 560.486, 420.218 605.500 C 395.749 647.163, 402.546 697.236, 441.053 758.976 C 473.744 811.389, 535.211 878.098, 605.767 937.733 C 616.330 946.661, 625.778 954.469, 626.763 955.084 C 628.285 956.034, 632.991 953.083, 658.027 935.477 C 674.237 924.078, 687.570 914.695, 687.656 914.626 C 688.065 914.296, 692.095 846.323, 693.166 821.691 L 694.375 793.881 700.438 794.458 C 714.970 795.841, 749.491 797, 776.147 797 L 805 797 804.981 792.250 C 804.971 789.638, 804.303 769.500, 803.497 747.500 C 802.691 725.500, 802.024 705.362, 802.016 702.750 L 802 698 772.176 698 C 745.110 698, 711.801 696.806, 701.466 695.465 L 697.432 694.942 697.839 669.247 L 698.247 643.552 707.621 634.681 C 730.023 613.480, 740 593.395, 740 569.500 C 740 557.303, 737.674 547.173, 732.511 536.886 C 725.755 523.423, 714.040 510.767, 702.021 503.946 C 698.681 502.051, 695.280 500.050, 694.462 499.500 C 693.327 498.737, 692.428 492.587, 690.661 473.500 C 689.388 459.750, 688.494 448.312, 688.675 448.081 C 688.856 447.851, 694.291 448.882, 700.752 450.373 C 731.633 457.497, 759.713 460.131, 784.252 458.207 C 810.251 456.169, 828.658 451.302, 848.343 441.264 C 883.047 423.565, 905.609 394.110, 913.653 356 C 916.280 343.556, 916.045 320.857, 913.149 307.266 C 907.729 281.830, 896.572 260.773, 878.755 242.355 C 859.543 222.494, 836.176 210.077, 806.123 203.758 C 796.841 201.806, 792.470 201.522, 771.500 201.512 C 756.425 201.504, 744.153 202.001, 738.500 202.848 C 718.865 205.789, 691.515 212.215, 670.373 218.855 L 661.246 221.721 660.033 212.611 C 658.954 204.516, 644.728 104.629, 641.821 84.750 C 641.176 80.333, 640.218 77.050, 639.594 77.116 C 638.992 77.180, 617.149 80.568, 591.053 84.646 M 172.643 157.685 C 169.236 183.633, 156.417 303.546, 151.067 359.500 C 139.807 477.277, 134.780 554.549, 134.673 611.500 C 134.602 649.469, 135.046 655.460, 141.527 704 C 148.979 759.812, 159.468 815.065, 174.452 877.440 C 179.729 899.407, 184.165 917.498, 184.310 917.643 C 184.455 917.788, 204.582 907.432, 229.036 894.631 L 273.500 871.355 275.165 864.427 C 276.081 860.617, 279.826 843.550, 283.488 826.500 C 297.044 763.372, 307.829 719.160, 314.467 699.500 C 318.942 686.249, 335.898 644.477, 351.389 608.546 C 356.120 597.571, 359.656 588.284, 359.246 587.908 C 358.236 586.983, 271.413 549, 270.308 549 C 269.544 549, 248.169 598.231, 237.332 624.949 L 233.500 634.399 233.184 619.949 C 231.891 560.923, 243.994 407.672, 264.099 228.500 C 267.432 198.800, 270.235 172.260, 270.329 169.523 L 270.500 164.546 228 159.371 C 204.625 156.524, 182.749 153.897, 179.387 153.533 L 173.275 152.870 172.643 157.685 M 758.331 300.050 C 741.031 301.674, 722.162 306.156, 690.238 316.223 L 673.975 321.352 674.500 324.426 C 674.788 326.117, 675.933 335.128, 677.045 344.450 C 678.157 353.773, 679.200 361.533, 679.362 361.696 C 679.524 361.858, 680.925 358.280, 682.474 353.745 C 684.023 349.210, 685.606 345.142, 685.991 344.705 C 686.376 344.267, 692.723 345.731, 700.095 347.958 C 748.796 362.665, 787.237 363.976, 806.846 351.597 C 818.844 344.023, 820.338 326.843, 810.159 313.496 C 801.689 302.389, 783.550 297.683, 758.331 300.050 M 565.488 609.832 C 538.391 623.068, 517.978 637.961, 507.163 652.385 C 503.403 657.399, 505.074 668.477, 511.773 682.957 L 514.337 688.500 515.067 682 C 517.897 656.812, 535.012 634.792, 570.914 610.148 C 576.642 606.217, 580.911 603, 580.401 603 C 579.892 603, 573.181 606.075, 565.488 609.832 M 579.849 776.793 C 583.691 781.032, 588.896 786.506, 591.417 788.958 L 596 793.416 596 785.391 L 596 777.365 590.250 775.570 C 587.087 774.583, 581.882 772.720, 578.682 771.430 L 572.865 769.085 579.849 776.793 " stroke="none" fill="black" fill-rule="evenodd"/>
</svg>