<svg xmlns="http://www.w3.org/2000/svg" width="1000" height="1000" viewBox="0 0 1000 1000" version="1.1">
	<path d="M 381 121.070 C 365.325 138.638, 350.775 155.024, 348.666 157.482 L 344.833 161.952 347.666 164.508 C 349.225 165.913, 356.412 171.550, 363.638 177.034 C 400.562 205.055, 435.781 222.443, 476 232.509 C 500.134 238.549, 536.893 244.792, 537.979 243.034 C 538.948 241.466, 548.264 147.235, 547.561 146.099 C 547.188 145.495, 545.617 145, 544.071 145 C 534.857 145, 497.501 136.802, 481.500 131.269 C 463.106 124.908, 436.506 109.521, 417.863 94.458 C 414.147 91.456, 410.745 89.029, 410.303 89.064 C 409.862 89.098, 396.675 103.501, 381 121.070 M 743 142.968 L 696.500 155.699 695.895 177.600 C 695.552 190.041, 694.555 204.251, 693.587 210.500 C 688.794 241.435, 677.971 280.642, 664.813 314.737 L 660.862 324.973 655.407 321.484 C 641.221 312.409, 622.844 304.636, 605.811 300.505 C 548.428 286.590, 460.987 305.230, 342 356.741 C 312.708 369.422, 249.315 400.033, 243.700 404.208 C 242.028 405.451, 243.549 408.565, 265.100 448.023 C 277.859 471.385, 288.464 490.695, 288.665 490.932 C 288.867 491.170, 303.762 484.100, 321.766 475.222 C 392.643 440.269, 450.821 417.375, 501.500 404.492 C 526.205 398.212, 540.971 395.870, 559.500 395.294 C 578.087 394.716, 585.099 395.909, 596.665 401.617 C 603.604 405.043, 616 415.059, 616 417.241 C 616 419.299, 595.211 449.719, 580.260 469.535 C 509.103 563.857, 380.042 693.379, 229.740 821.308 C 218.323 831.026, 208.950 839.236, 208.913 839.553 C 208.815 840.374, 270.248 915, 271.022 915 C 273.395 915, 356.424 842.609, 399.375 803.092 L 418.296 785.683 427.848 796.092 C 442.627 812.193, 467.392 837.218, 479 847.778 C 492.500 860.059, 520.686 882.553, 539.644 896.175 C 556.209 908.077, 602.930 938.192, 604.177 937.771 C 606.342 937.039, 648.447 883.728, 656.518 871.500 C 701.524 803.307, 734.803 717.776, 745.422 643 C 756.986 561.581, 752.516 484.220, 732.974 427.546 L 728.959 415.901 735.380 401.701 C 768.894 327.589, 788.690 259.979, 794 201.500 C 795.270 187.506, 795.275 160.031, 794.010 149 C 792.799 138.453, 791.077 129.962, 790.179 130.118 C 789.806 130.183, 768.575 135.965, 743 142.968 M 645.877 546.250 C 618.029 582.301, 574.305 631.159, 519.361 687.619 L 490.051 717.737 497.203 725.619 C 514.212 744.363, 532.228 762.953, 541.701 771.535 C 553.717 782.421, 580.274 804, 581.656 804 C 583.710 804, 601.422 771.113, 611.816 748 C 639.263 686.964, 651.133 633.753, 652.695 564.750 C 653.028 550.038, 653.064 538, 652.775 538 C 652.486 538, 649.382 541.712, 645.877 546.250 " stroke="none" fill="black" fill-rule="evenodd"/>
</svg>