<svg xmlns="http://www.w3.org/2000/svg" width="1000" height="1000" viewBox="0 0 1000 1000" version="1.1">
	<path d="M 329.461 92.697 C 317.382 114.995, 306.871 134.503, 306.102 136.049 C 304.800 138.665, 304.895 139.086, 307.469 142.146 C 309.944 145.086, 310.178 145.989, 309.690 150.711 C 308.852 158.837, 302.384 169.719, 286.997 188.897 C 251.757 232.817, 223.912 263.503, 203.250 281.190 C 194.863 288.369, 188 294.557, 188 294.939 C 188 295.322, 194.719 316.529, 202.930 342.067 C 214.038 376.612, 218.229 388.432, 219.299 388.236 C 220.091 388.091, 233.059 382.190, 248.119 375.123 C 276.091 361.997, 291.777 355.443, 292.792 356.459 C 294.269 357.936, 235.694 414.665, 204.500 441.966 C 197.350 448.224, 191.377 453.829, 191.227 454.422 C 191.076 455.015, 192.989 472.295, 195.477 492.823 C 197.965 513.350, 200 530.563, 200 531.073 C 200 532.294, 171.176 532.240, 139.111 530.959 C 125.147 530.401, 113.464 530.203, 113.149 530.518 C 112.687 530.980, 106.196 617.868, 106.042 625.643 C 106.019 626.822, 106.643 628.033, 107.430 628.335 C 108.216 628.636, 127.485 629.410, 150.250 630.053 C 192.258 631.240, 249.806 630.365, 287.545 627.966 C 296.209 627.415, 303.445 627.111, 303.624 627.291 C 304.328 627.994, 287.704 645.035, 278.026 653.531 C 257.992 671.118, 251.810 675.211, 217.765 693.426 L 192.047 707.186 200.640 718.343 C 205.365 724.479, 220.046 743.563, 233.263 760.750 C 246.480 777.938, 257.742 792, 258.289 792 C 258.836 792, 270.583 785.945, 284.392 778.544 C 298.201 771.143, 314 763.039, 319.500 760.535 L 329.500 755.982 316.968 768.241 C 293.817 790.888, 272.154 809.284, 236.193 836.835 C 221.348 848.208, 215.161 853.514, 215.790 854.329 C 216.287 854.973, 229.173 873.834, 244.427 896.243 C 270.608 934.705, 272.279 936.921, 274.300 935.840 C 278.430 933.629, 350.813 889.477, 381 870.755 C 400.210 858.841, 411.927 852.146, 412.653 852.669 C 413.287 853.126, 420.037 858.062, 427.653 863.638 C 449.917 879.938, 476.865 897.689, 507.998 916.561 C 523.546 925.985, 590.684 964.002, 591.772 963.997 C 592.173 963.995, 598.222 947.458, 605.215 927.247 L 617.930 890.500 618.949 850.500 C 621.477 751.274, 621.345 694.137, 618.344 588.307 L 617.687 565.113 623.593 562.511 C 633.576 558.113, 665.199 540.644, 665.743 539.227 C 666.025 538.492, 665.285 527.979, 664.099 515.865 C 661.943 493.859, 661.938 493.832, 657.840 485.670 C 647.759 465.591, 635.322 452.451, 618.310 443.905 L 611.052 440.258 626.776 433.478 C 646.135 425.131, 680.743 408.277, 695.500 400.011 C 780.824 352.214, 820.958 300.859, 815.892 245.962 C 814.897 235.177, 813.909 231.043, 809.819 220.566 C 801.802 200.030, 789.130 186.247, 769.694 176.923 C 765.187 174.762, 757.544 172.017, 752.709 170.824 C 747.423 169.520, 744.112 168.225, 744.403 167.577 C 751.185 152.488, 753.140 144.684, 753.733 130.330 C 754.363 115.094, 752.608 106.415, 746.382 93.979 C 737.378 75.992, 720.306 62.875, 699.455 57.924 C 692.098 56.176, 670.905 56.459, 662 58.422 C 627.564 66.016, 580.381 91.068, 529.228 128.919 L 516.955 138 527.780 151.750 C 560.183 192.911, 572.213 208.391, 572.622 209.456 C 572.872 210.109, 566.953 215.732, 559.469 221.952 C 551.985 228.173, 546.231 233.591, 546.681 233.994 C 547.511 234.735, 623.600 286.122, 625.569 287.271 C 626.157 287.614, 636.057 284.810, 647.569 281.040 C 659.081 277.269, 673.786 273.005, 680.248 271.564 C 691.497 269.054, 710.215 265.908, 710.760 266.435 C 710.903 266.574, 706.853 270.711, 701.760 275.631 C 676.603 299.929, 629.422 326.241, 563.215 352.895 C 537.923 363.077, 530.176 365.939, 496.500 377.544 C 481.650 382.662, 469.566 387.220, 469.647 387.674 C 469.776 388.396, 498.349 476.569, 499.468 479.696 C 499.765 480.528, 504.361 479.397, 514.539 475.987 C 526.271 472.057, 529.037 471.421, 528.448 472.791 C 528.044 473.731, 526.336 478.550, 524.653 483.500 C 522.969 488.450, 521.470 492.676, 521.321 492.891 C 520.753 493.714, 489.579 501.187, 468.928 505.451 C 409.201 517.786, 349.511 525.481, 286.500 528.969 C 276.050 529.547, 265.137 530.166, 262.250 530.343 C 259.363 530.520, 257 530.550, 257 530.410 C 257 530.270, 258.688 529.614, 260.750 528.953 C 282.222 522.071, 342.229 498.960, 371 486.492 C 389.996 478.261, 419.387 463.915, 431.500 456.963 C 442.198 450.822, 458.991 439.765, 458.996 438.858 C 458.998 438.505, 451.507 428.380, 442.350 416.358 C 433.192 404.336, 421.778 389.312, 416.985 382.970 L 408.271 371.440 412.715 363.970 C 418.357 354.489, 423.400 343.625, 426.102 335.136 C 429.099 325.717, 429.831 306.840, 427.539 298.085 C 421.327 274.357, 403.300 257.641, 375.500 249.833 C 371.100 248.598, 367.360 247.502, 367.188 247.398 C 367.017 247.295, 369.185 244.314, 372.007 240.773 C 406.267 197.788, 416.979 152.801, 402.561 112.459 C 394.798 90.741, 380.066 71.592, 360.500 57.789 C 350.756 50.915, 354.178 47.067, 329.461 92.697 M 512.500 597.105 C 507.177 598.760, 456.028 608.776, 438.250 611.644 C 426.396 613.557, 421 614.826, 421 615.702 C 421 616.403, 419.631 621.250, 417.957 626.474 C 416.284 631.698, 414.907 636.309, 414.898 636.720 C 414.889 637.130, 416.866 637.973, 419.291 638.592 C 434.341 642.431, 449.090 654.170, 457.740 669.194 C 460.601 674.163, 464.598 685.465, 465.452 691 C 466.818 699.857, 465.690 700.027, 482.794 688.379 C 496.036 679.361, 503.991 673.764, 518.719 663.106 C 520.775 661.618, 520.939 660.695, 520.966 650.500 C 520.982 644.450, 520.700 629.712, 520.338 617.750 C 519.605 593.483, 520.085 594.746, 512.500 597.105 M 712.562 606.753 C 711.470 613.425, 700 698.210, 700 699.608 C 700 700.353, 701.237 701.220, 702.750 701.536 C 709.755 702.997, 728.724 709.425, 736.208 712.875 C 770.055 728.473, 793.350 753.704, 803.328 785.574 C 806.086 794.382, 809 808.530, 809 813.110 C 809 814.700, 809.337 815.990, 809.750 815.978 C 813.572 815.864, 907.208 807.119, 907.454 806.853 C 908.409 805.821, 904.331 781.520, 901.019 768.500 C 885.116 705.979, 844.995 657.009, 785 626.893 C 765.881 617.295, 740.759 608.382, 723.500 605.072 C 720.200 604.439, 716.527 603.715, 715.337 603.464 C 713.497 603.074, 713.084 603.564, 712.562 606.753 M 511.502 787.995 C 506.553 791.291, 502.393 794.327, 502.258 794.743 C 502.044 795.397, 509.218 800.655, 518.193 806.425 L 520.887 808.156 521.193 795.076 C 521.362 787.882, 521.275 781.998, 521 782 C 520.725 782.002, 516.451 784.700, 511.502 787.995 " stroke="none" fill="black" fill-rule="evenodd"/>
</svg>