<svg xmlns="http://www.w3.org/2000/svg" width="1000" height="1000" viewBox="0 0 1000 1000" version="1.1">
	<path d="M 463.834 84.567 C 439.020 89.057, 416.392 104.549, 398.797 129.095 C 391.340 139.498, 380.332 161.881, 375.484 176.500 C 365.127 207.728, 359.979 242.311, 359.761 282.115 L 359.638 304.731 345.069 307.900 C 309.662 315.601, 288.897 317.985, 251 318.698 C 211.773 319.435, 180.814 317.360, 142.143 311.401 C 133.147 310.015, 125.566 309.100, 125.298 309.369 C 124.218 310.449, 104.995 404.389, 105.719 405.044 C 107.236 406.414, 145.669 412.084, 169.500 414.453 C 216.969 419.172, 264.928 419.156, 307 414.406 C 322.447 412.662, 350.571 408.006, 363.031 405.128 C 377.342 401.824, 375.606 400.962, 379.902 413.500 C 399.023 469.297, 430.573 512.674, 469.599 536.823 C 480.817 543.764, 501.202 553.832, 515.500 559.491 C 522.100 562.103, 527.796 564.524, 528.157 564.870 C 528.519 565.217, 527.087 577.200, 524.976 591.500 C 508.709 701.671, 487.333 793.700, 464.714 850.936 C 461.359 859.425, 459.039 866.540, 459.557 866.745 C 460.076 866.950, 479.400 877.608, 502.500 890.429 L 544.500 913.739 547.895 907.119 C 553.262 896.658, 561.212 876.121, 568.481 853.942 C 588.631 792.462, 606.467 712.302, 620.478 620.257 C 622.970 603.891, 625.252 589.038, 625.549 587.250 L 626.091 584 643.574 584 C 712.596 584, 780.155 561.432, 831.454 521.239 C 842.316 512.728, 864.741 489.504, 872.266 478.971 C 879.707 468.556, 892.374 443.800, 896.348 431.907 C 911.821 385.601, 911.674 334.376, 895.933 287.668 C 874.175 223.104, 826.841 180.367, 766.012 170.362 C 753.618 168.324, 729.871 169.031, 714.500 171.895 C 692.001 176.088, 667.883 183.609, 635.362 196.573 C 623.736 201.208, 613.796 205, 613.273 205 C 612.750 205, 610.562 200.164, 608.411 194.254 C 606.260 188.344, 601.305 176.981, 597.401 169.004 C 576.960 127.244, 549.595 100.208, 516.366 88.947 C 499.494 83.229, 480.145 81.615, 463.834 84.567 M 478.458 187.498 C 471.567 198.270, 465.538 216.517, 462.082 237.059 C 459.841 250.381, 458.017 272, 459.134 272 C 459.891 272, 495.828 257.230, 509 251.505 C 513.675 249.473, 518.501 247.419, 519.724 246.940 L 521.947 246.070 517.985 234.577 C 511.092 214.588, 502.305 198.191, 493.653 189.170 C 489.632 184.978, 485.224 182, 483.037 182 C 482.453 182, 480.392 184.474, 478.458 187.498 M 725.500 270.465 C 711.473 273.727, 692.539 280.041, 671.500 288.472 C 646.059 298.668, 634 304.110, 634.002 305.393 C 634.003 306.002, 634.654 312.800, 635.448 320.500 C 639.268 357.518, 640.332 418.405, 637.943 463.220 C 637.302 475.259, 637.012 485.345, 637.299 485.632 C 638.299 486.632, 670.737 483.984, 681.727 482.005 C 738.896 471.711, 787.953 439.587, 801.512 403.565 C 806.136 391.281, 808.070 381.283, 808.684 366.500 C 810.060 333.348, 801.069 304.771, 783.355 285.994 C 767.415 269.096, 750.691 264.607, 725.500 270.465 M 523.500 352.565 C 516.350 355.574, 501.725 361.442, 491 365.605 C 480.275 369.768, 471.328 373.345, 471.117 373.553 C 470.249 374.413, 478.561 396.264, 483.612 406.398 C 492.482 424.196, 501.022 435.860, 512.646 446.054 C 518.461 451.153, 528.998 457.848, 535.454 460.545 L 538.824 461.953 539.584 453.227 C 540.638 441.110, 540.682 377.432, 539.648 360.750 C 539.075 351.517, 538.418 347.015, 537.648 347.047 C 537.016 347.072, 530.650 349.555, 523.500 352.565 " stroke="none" fill="black" fill-rule="evenodd"/>
</svg>