<svg xmlns="http://www.w3.org/2000/svg" width="1000" height="1000" viewBox="0 0 1000 1000" version="1.1">
	<path d="M 652.500 71.063 C 623.471 73.780, 594.730 82.092, 568.002 95.498 C 552.729 103.159, 542.479 109.479, 518.343 126.115 C 507.257 133.757, 495.567 141.387, 492.366 143.071 L 486.546 146.132 485.710 143.316 C 484.612 139.615, 485.601 119.851, 487.451 108.541 C 488.257 103.614, 488.791 99.457, 488.637 99.304 C 487.907 98.574, 394.007 75.660, 393.563 76.104 C 392.624 77.043, 390.027 90.955, 388.397 103.785 C 386.229 120.843, 386.269 147.348, 388.484 161 C 395.490 204.182, 420.719 234.130, 457.699 243.163 C 469.144 245.959, 491.725 246.209, 502.858 243.664 C 521.249 239.460, 539.272 231.087, 559.872 217.178 C 566.817 212.488, 579.304 204.068, 587.621 198.466 C 612.202 181.908, 631.158 173.840, 653.162 170.573 C 674.878 167.349, 705.580 169.463, 720.306 175.197 L 723.112 176.289 719.806 179.748 C 714.115 185.702, 701.445 195.017, 673 214.156 C 604.772 260.066, 519.667 321.965, 430.500 390.534 C 349.115 453.119, 296.391 498.661, 229.500 564.154 C 190.910 601.938, 187.331 605.768, 189.054 607.438 C 189.849 608.208, 205.776 623.477, 224.448 641.368 L 258.395 673.897 281.956 650.698 C 332.338 601.093, 377.651 559.644, 385.330 556.142 C 419.148 540.716, 475.563 522.813, 516.500 514.515 C 553.257 507.065, 579.640 504.493, 611 505.303 C 648.352 506.268, 674.187 511.907, 699.387 524.595 C 728.140 539.072, 751.366 564.155, 763.812 594.172 C 774.014 618.777, 774.615 647.728, 765.501 675.563 C 747.809 729.595, 694.339 781.657, 627.500 809.930 C 595.565 823.439, 567.170 830.667, 530.298 834.675 C 507.518 837.151, 454.233 837.155, 437.500 834.682 C 416.578 831.589, 401.669 827.467, 390.809 821.770 C 385.646 819.061, 385.228 818.601, 386.309 816.808 C 388.660 812.909, 403.489 802.784, 415.382 796.958 C 429.576 790.005, 449.996 783.076, 465.500 779.952 C 482.170 776.593, 510.369 776.081, 526.583 778.843 C 540.007 781.129, 555.016 785.617, 564.689 790.238 C 568.190 791.911, 571.214 793.104, 571.409 792.889 C 572.716 791.452, 625 711.568, 625 711.008 C 625 709.723, 603.550 699.136, 591.436 694.443 C 577.232 688.939, 554.116 682.906, 537.500 680.367 C 519.103 677.555, 478.486 677.786, 459.517 680.811 C 382.270 693.125, 318.294 730.647, 294.630 777.518 C 274.092 818.195, 284.651 864.026, 321.374 893.602 C 365.906 929.469, 443.331 942.987, 543.847 932.445 C 698.758 916.198, 831.596 815.803, 863.979 690.500 C 868.869 671.576, 870.416 658.623, 870.426 636.500 C 870.443 599.890, 863.593 571.465, 847.004 539.313 C 812.522 472.481, 752.714 428.549, 675.046 412.999 C 649.462 407.877, 634.596 406.555, 602.256 406.526 C 574.337 406.501, 573.113 406.422, 575.256 404.771 C 602.329 383.916, 685.896 324.482, 729.953 294.749 C 747.801 282.703, 764.226 271.441, 766.453 269.723 C 796.815 246.284, 815.193 222.137, 823.107 195.286 C 825.687 186.529, 826.705 166.867, 825.064 157.448 C 817.207 112.326, 775.832 81.208, 712 72.412 C 698.743 70.586, 665.624 69.835, 652.500 71.063 M 160.241 117.886 C 159.840 119.324, 159.525 133.325, 159.542 149 C 159.574 179.783, 160.713 191.958, 165.615 213.883 C 170.560 236.003, 180.313 258.940, 191.013 273.617 C 201.800 288.414, 221.631 306.213, 244 321.176 C 258.005 330.545, 279.028 341.589, 281.234 340.738 C 281.930 340.469, 289.421 320.056, 297.880 295.375 C 306.339 270.694, 313.453 249.993, 313.689 249.374 C 313.925 248.755, 311.054 246.565, 307.309 244.506 C 298.496 239.662, 283.160 228.120, 275.413 220.500 C 270.380 215.549, 268.776 213.101, 266.245 206.500 C 260.127 190.549, 257.718 172.408, 258.177 145.747 L 258.500 126.994 255.500 126.502 C 253.850 126.231, 232.925 123.756, 209 121.002 C 185.075 118.248, 164.481 115.832, 163.235 115.633 C 161.496 115.356, 160.801 115.879, 160.241 117.886 " stroke="none" fill="black" fill-rule="evenodd"/>
</svg>