<svg xmlns="http://www.w3.org/2000/svg" width="1000" height="1000" viewBox="0 0 1000 1000" version="1.1">
	<path d="M 394.066 96.574 C 369.078 106.177, 348.551 114.139, 348.450 114.267 C 348.350 114.395, 351.140 122.150, 354.651 131.500 C 379.481 197.628, 425.765 329.568, 424.556 330.777 C 423.745 331.589, 406.845 334.777, 396.585 336.054 C 384.396 337.572, 366.166 336.754, 352.913 334.096 C 325.412 328.581, 291.101 312.150, 267.642 293.261 L 260.783 287.739 255.475 293.119 C 252.556 296.079, 237.268 312.222, 221.503 328.994 L 192.839 359.487 196.669 362.804 C 224.351 386.769, 262.959 409.034, 297.558 420.985 C 346.943 438.043, 392.181 440.098, 444.865 427.675 C 450.467 426.353, 455.221 425.549, 455.429 425.886 C 457.179 428.719, 480.753 512.185, 488.478 542.894 C 503.716 603.474, 512.989 660.981, 522.493 753.849 L 523.041 759.198 514.770 752.789 C 497.824 739.656, 453.970 708.991, 452.155 709.005 C 451.795 709.008, 439.632 727.554, 425.128 750.220 C 400.472 788.747, 398.877 791.515, 400.628 792.757 C 401.657 793.487, 409.475 798.851, 418 804.677 C 474.650 843.392, 495.931 864.064, 535.340 918.657 C 546.141 933.619, 553.905 943.498, 554.500 943.034 C 555.050 942.606, 570.622 931.006, 589.104 917.255 L 622.708 892.255 623.321 887.378 C 629.529 837.961, 623.218 739.547, 606.911 631.500 C 597.358 568.206, 582.775 506.542, 557.045 420.644 C 552.620 405.873, 549 393.662, 549 393.510 C 549 393.357, 554.363 390.930, 560.918 388.117 C 581.462 379.300, 604.533 368.391, 627.687 356.547 C 653.737 343.221, 690 323.031, 690 321.852 C 690 321.001, 641.423 240.100, 640.070 238.698 C 639.645 238.257, 631.242 242.449, 621.398 248.013 C 600.767 259.674, 552.945 283.749, 532.539 292.748 L 518.577 298.904 505.943 261.702 C 483.378 195.256, 441.371 78.908, 440 79.059 C 439.725 79.089, 419.055 86.971, 394.066 96.574 M 821 260.079 C 787.611 277.255, 778.546 282.324, 778.713 283.721 C 778.829 284.700, 780.106 289.775, 781.550 295 C 786.758 313.850, 785.874 339.870, 779.347 359.876 C 771.445 384.095, 755.147 408.195, 731.170 431.113 C 713.994 447.532, 696.174 460.610, 669.193 476.599 C 669.024 476.699, 678.827 496.660, 690.978 520.957 L 713.071 565.133 719.785 561.409 C 759.141 539.585, 801.576 504.487, 827.454 472.356 C 857.395 435.180, 875.054 396.936, 881.685 354.904 C 884.420 337.565, 884.139 305.774, 881.097 288.500 C 877.255 266.688, 868.182 238.715, 864.832 238.358 C 864.100 238.280, 844.375 248.054, 821 260.079 M 114.608 583.250 C 111.011 635.178, 115.520 686.901, 126.647 721.317 C 135.698 749.315, 156.067 786.547, 182.787 823.936 C 188.512 831.946, 195.652 841.545, 198.655 845.267 C 203.471 851.237, 204.320 851.885, 205.868 850.767 C 208.865 848.603, 280 789.818, 280 789.505 C 280 789.343, 275.742 783.548, 270.538 776.628 C 245.573 743.432, 225.674 708.707, 219.595 687.731 C 214.124 668.852, 211.451 638.044, 212.437 605.250 C 213.098 583.285, 213.080 583, 211.062 583 C 209.937 583, 189.378 581.200, 165.376 579 C 141.374 576.800, 120.260 575, 118.457 575 L 115.180 575 114.608 583.250 " stroke="none" fill="black" fill-rule="evenodd"/>
</svg>