<svg xmlns="http://www.w3.org/2000/svg" width="1000" height="1000" viewBox="0 0 1000 1000" version="1.1">
	<path d="M 218.722 96.668 C 210.892 109.132, 170.786 177.105, 171.110 177.361 C 171.324 177.530, 175.550 180.422, 180.500 183.787 C 194.167 193.079, 204.623 201.807, 214.646 212.291 C 222.172 220.163, 224.263 223.079, 226.866 229.334 C 229.609 235.923, 232.677 246.364, 234.480 255.250 C 234.923 257.432, 235.602 258.006, 237.769 258.028 C 239.271 258.044, 261.198 261.158, 286.496 264.949 C 311.795 268.739, 332.720 271.613, 332.996 271.336 C 333.981 270.350, 333.303 247.378, 332.072 240 C 329.200 222.789, 322.320 200.111, 315.448 185.200 C 302.902 157.977, 274.814 128.599, 235.942 102.043 C 229.472 97.622, 223.492 93.742, 222.654 93.421 C 221.627 93.027, 220.343 94.087, 218.722 96.668 M 670.500 248.622 C 617.480 252.037, 563.546 269.155, 516.455 297.513 C 489.428 313.788, 469.169 329.759, 445.475 353.465 C 389.552 409.419, 330.029 498.508, 264.557 624.250 C 259.760 633.462, 255.710 641, 255.557 641 C 255.221 641, 255.687 628.588, 257.078 600.500 C 258.204 577.755, 260.034 554.406, 262.601 530.021 C 264.788 509.253, 264.135 481.607, 261.129 467.660 C 256.540 446.369, 249.153 429.122, 234.641 405.817 C 221.800 385.195, 222.466 387.266, 226.664 381.032 L 230.220 375.753 226.860 372.470 C 218.153 363.963, 158.557 309.003, 158.062 309.024 C 157 309.068, 146.494 323.118, 140.861 332.027 C 134.136 342.664, 128.956 354.652, 126.131 366.114 C 119.172 394.351, 124.572 415.938, 147.994 453.500 C 165.934 482.271, 167.428 488.629, 164.087 522 C 161.456 548.279, 159.396 574.922, 157.901 602 C 156.385 629.447, 156.329 690.453, 157.803 708 C 159.150 724.027, 161.603 780.772, 163.369 836.736 C 164.067 858.866, 164.833 877.124, 165.069 877.310 C 166.701 878.590, 247.259 898.125, 247.916 897.400 C 248.365 896.905, 254.260 883, 261.017 866.500 C 299.845 771.676, 352.682 663.732, 399.298 584 C 449.442 498.235, 497.469 435.211, 537 403.301 C 568.358 377.989, 607.906 359.074, 645.203 351.550 C 687.782 342.961, 726.989 347.399, 749.324 363.337 C 756.499 368.457, 760.061 372.708, 763.534 380.294 C 774.578 404.416, 760.915 450.873, 730.682 492 C 710.774 519.082, 688.185 540.930, 636.500 583.090 C 604.921 608.850, 598.709 614.143, 584.822 627.118 C 547.059 662.401, 526.924 698.410, 526.912 730.680 C 526.901 761.571, 547.002 785.936, 579.257 794.127 C 592.202 797.414, 619.686 797.732, 652.500 794.974 C 684.725 792.266, 726.685 791.299, 741.097 792.933 C 762.965 795.412, 789.220 801.844, 808.438 809.429 C 813.354 811.369, 817.450 812.854, 817.539 812.728 C 817.628 812.603, 827.699 792.809, 839.918 768.743 L 862.134 724.986 857.317 722.903 C 824.776 708.832, 795.633 700.739, 758 695.325 C 747.761 693.853, 739.258 693.543, 711 693.616 C 692.025 693.664, 672 694.150, 666.500 694.694 C 661 695.238, 656.394 695.612, 656.265 695.523 C 655.820 695.220, 673.535 680.284, 701 657.804 C 736.482 628.763, 751.047 615.940, 769.497 597.500 C 820.374 546.650, 851.396 492.448, 863.196 433.787 C 865.131 424.166, 865.469 419.327, 865.483 401 C 865.502 377.262, 864.120 368.074, 857.833 350.119 C 839.293 297.172, 789.714 260.797, 722.667 250.952 C 710.062 249.101, 682.309 247.862, 670.500 248.622 " stroke="none" fill="black" fill-rule="evenodd"/>
</svg>