<svg xmlns="http://www.w3.org/2000/svg" width="1000" height="1000" viewBox="0 0 1000 1000" version="1.1">
	<path d="M 205 120.477 C 188.775 141.634, 175.002 158.771, 174.393 158.559 C 173.784 158.346, 174.533 160.496, 176.058 163.336 C 184.754 179.535, 188.485 205.267, 186.879 237.971 C 185.993 256.006, 184.549 266.566, 178.463 299.500 C 153.387 435.204, 149.475 541.510, 166.487 625 C 169.944 641.965, 172.795 652.138, 180.357 674.500 C 193.351 712.925, 203.181 736.069, 220.213 768.341 C 230.780 788.363, 232.529 791.130, 234.384 790.761 C 235.548 790.529, 255.799 784.762, 279.387 777.944 L 322.275 765.549 321.631 754.024 C 319.450 714.994, 319.002 690.298, 319.969 662.437 C 322.166 599.108, 328.157 555.672, 340.512 513.500 C 341.050 511.663, 337.609 510.339, 298.295 497.253 L 255.493 483.006 256.227 468.753 C 258.385 426.874, 265.143 374.092, 275.586 317.572 C 284.417 269.773, 286.506 248.848, 285.749 215.776 C 285.180 190.933, 283.501 177.392, 278.521 157.469 C 273.081 135.707, 263.937 115.367, 252.732 100.101 C 247.643 93.168, 237.063 81.998, 235.591 82.004 C 234.991 82.007, 221.225 99.320, 205 120.477 M 655.500 102.041 C 642 104.146, 638.791 105.094, 639.252 106.840 C 639.493 107.753, 645.689 129.034, 653.019 154.132 L 666.348 199.763 674.110 200.212 C 696.128 201.487, 711.367 220.138, 721.039 257.652 C 725.171 273.678, 727.562 291.820, 730.440 329 C 741.178 467.689, 740.117 545.213, 726.458 620.130 C 710.345 708.505, 673.962 784.278, 615 852.258 C 609.775 858.282, 604.465 864.467, 603.201 866.003 L 600.902 868.795 636.510 901.897 C 656.094 920.104, 672.506 935, 672.980 935 C 675.350 935, 710.078 893.036, 725.412 871.643 C 773.453 804.620, 805.606 729.775, 821.918 647 C 838.489 562.912, 840.600 473.761, 829.470 328 C 825.339 273.904, 822.609 254.404, 815.589 228.860 C 796.339 158.815, 754.773 114.592, 697.727 103.463 C 687.883 101.543, 663.880 100.735, 655.500 102.041 M 418.610 186.580 C 396.560 191.501, 374.124 205.570, 352.935 227.763 C 343.256 237.901, 326.728 258.752, 327.246 260.172 C 327.501 260.873, 407.769 312.973, 409.123 313.317 C 409.519 313.418, 411.566 311.212, 413.672 308.416 C 415.777 305.620, 419.600 301, 422.167 298.150 L 426.834 292.968 427.424 295.734 C 434.763 330.161, 435.595 420.884, 429.429 514.500 C 428.596 527.150, 426.614 551.675, 425.024 569 C 423.435 586.325, 422.442 600.766, 422.817 601.091 C 423.349 601.551, 511.102 609.759, 521.954 610.363 L 524.408 610.500 527.597 585.110 C 531.345 555.268, 531.924 552.216, 537.580 532.500 C 550.897 486.080, 576.006 434.080, 607.355 388 C 612.032 381.125, 615.553 375.204, 615.180 374.842 C 614.806 374.479, 596.765 361.544, 575.089 346.096 L 535.679 318.009 533.121 321.754 L 530.563 325.500 528.806 308.500 C 521.211 235.011, 502.105 201.304, 460.500 187.991 C 451.216 185.020, 428.958 184.271, 418.610 186.580 " stroke="none" fill="black" fill-rule="evenodd"/>
</svg>