<svg xmlns="http://www.w3.org/2000/svg" width="1000" height="1000" viewBox="0 0 1000 1000" version="1.1">
	<path d="M 377 74.747 C 330.306 97.482, 296.829 108.865, 264 113.167 C 242.683 115.960, 172.492 114.119, 147.062 110.099 C 144.244 109.653, 141.739 109.614, 141.493 110.011 C 141.248 110.407, 137.887 131.380, 134.025 156.616 C 130.163 181.852, 126.781 203.461, 126.511 204.636 C 126.056 206.610, 126.608 206.857, 133.759 207.876 C 148.138 209.925, 173.373 211.949, 198 213.029 C 243.955 215.044, 282.489 212.022, 314.366 203.902 C 318.692 202.800, 322.462 202.129, 322.744 202.410 C 323.354 203.021, 318.269 215.959, 312.489 228.500 C 306.110 242.343, 279.484 287.931, 245.838 342.618 C 237.677 355.882, 231 367.306, 231 368.004 C 231 368.701, 235.235 376.974, 240.410 386.386 C 250.454 404.652, 259.292 423.706, 268.413 446.759 L 274.054 461.018 267.277 467.214 C 240.332 491.850, 198.324 535.649, 181.642 556.500 C 149.698 596.426, 125.939 649.460, 115.113 705 C 101.564 774.517, 108.335 843.891, 132.607 884.236 C 153.915 919.654, 185.914 936.181, 225.218 932.066 C 259.702 928.455, 289.387 913.562, 317.037 886 C 330.336 872.743, 338.872 862.091, 349.439 845.562 C 387.946 785.335, 409.400 694.969, 405.085 611.181 C 403.296 576.446, 399.778 550.205, 392.323 516 C 390.346 506.925, 388.529 498.581, 388.287 497.457 C 387.927 495.791, 390.212 493.754, 400.673 486.410 C 412.808 477.892, 427.630 468.207, 436.500 463.001 C 438.700 461.709, 440.625 460.568, 440.778 460.465 C 441.110 460.241, 397.073 374.847, 396.039 373.710 C 395.174 372.760, 385.031 378.415, 368.210 389.225 C 361.385 393.612, 355.449 396.818, 355.019 396.350 C 354.590 395.883, 351.922 390.148, 349.090 383.608 L 343.942 371.715 361.849 341.608 C 393.406 288.551, 400.458 275.362, 410.417 250.780 C 420.797 225.156, 432.588 187.960, 439.509 159 L 442.257 147.500 423.067 106.052 C 412.513 83.255, 403.568 64.092, 403.189 63.467 C 402.729 62.708, 394.029 66.455, 377 74.747 M 772.500 90.479 C 752.407 94.900, 730.043 108.880, 718.451 124.266 C 706.386 140.278, 698.250 163.156, 690.018 204.216 L 688.872 209.933 679.186 215.135 C 650.097 230.759, 613.155 252.402, 575.768 275.724 L 551.036 291.152 554.362 296.326 C 564.320 311.815, 603.376 371.674, 604.175 372.671 C 604.852 373.515, 609.898 370.835, 622.307 363.040 C 643.236 349.891, 671.278 332.919, 671.519 333.255 C 671.615 333.390, 670.666 343.850, 669.409 356.500 C 664.630 404.602, 660.266 459.201, 656.542 517.500 C 653.982 557.568, 651.670 606.697, 652.269 608.260 C 652.761 609.540, 657.408 609.847, 683.174 610.296 C 707.766 610.725, 715.580 611.210, 724.500 612.864 C 745.985 616.846, 767.368 624.688, 779.678 633.100 C 786.659 637.870, 795.489 646.528, 799.082 652.127 L 802.197 656.982 799.146 663.502 C 786.616 690.278, 744.478 734.182, 687 780.350 C 667.874 795.712, 636.223 819.483, 620.237 830.490 L 610.085 837.481 611.708 839.990 C 623.804 858.699, 664.612 919, 665.177 919 C 667.525 919, 720.730 879.730, 748.500 857.501 C 788.910 825.152, 830.378 786.132, 852.117 760 C 901.140 701.069, 912.760 653.773, 888.918 610.212 C 865.241 566.951, 823.741 536.613, 767.761 521.641 L 756.017 518.500 756.008 513.282 C 755.975 492.562, 767.386 362.688, 774.046 308 C 778.050 275.118, 777.545 277.224, 781.868 275.373 C 800.915 267.215, 835.095 253.609, 860.832 243.940 C 878.065 237.466, 892.321 232.013, 892.511 231.822 C 893.434 230.899, 878.488 167.600, 875.554 160 C 861.003 122.325, 837.690 98.660, 807.590 91.010 C 798.302 88.650, 781.939 88.402, 772.500 90.479 M 289.826 583.192 C 262.180 612.702, 251.938 625.489, 241.380 643.671 C 225.970 670.207, 214.858 703.247, 209.318 739 C 206.794 755.289, 206.792 794.689, 209.314 807.500 C 211.347 817.824, 212.343 821.425, 215.187 828.741 C 217.057 833.549, 217.442 833.935, 219.862 833.412 C 221.313 833.098, 225.875 831.223, 230 829.245 C 236.020 826.359, 239.492 823.661, 247.591 815.575 C 276.413 786.799, 295.751 738.626, 304.623 673.500 C 307.126 655.126, 307.124 611.605, 304.619 589.500 C 303.622 580.700, 302.480 572.911, 302.081 572.192 C 301.582 571.293, 297.753 574.730, 289.826 583.192 " stroke="none" fill="black" fill-rule="evenodd"/>
</svg>