<svg xmlns="http://www.w3.org/2000/svg" width="1000" height="1000" viewBox="0 0 1000 1000" version="1.1">
	<path d="M 509.500 88.106 C 479.413 95.383, 425.239 105.416, 390.374 110.168 C 365.515 113.556, 335.302 113.360, 310.712 109.650 C 288.671 106.324, 268.712 102.243, 246.099 96.437 C 236.528 93.979, 228.609 92.088, 228.501 92.234 C 228.393 92.380, 221.865 113.331, 213.994 138.792 C 205.188 167.276, 200.041 185.441, 200.612 186.012 C 203.420 188.820, 266.681 203.049, 293.500 206.905 C 345.116 214.326, 375.523 213.323, 443.153 201.965 C 452.863 200.334, 461.062 199, 461.373 199 C 461.884 199, 444.222 251.543, 429.343 294.284 L 423.500 311.067 417.500 312.930 C 373.603 326.562, 318.703 353.478, 281 379.852 C 181.662 449.340, 118.549 552.702, 103.835 670 C 101.833 685.959, 102.107 725.726, 104.317 740 C 111.515 786.491, 129.917 819.543, 158.982 838.189 C 192.755 859.854, 237.851 857.707, 275 832.665 C 322.647 800.546, 378.893 700.273, 451.506 518 C 466.626 480.046, 498 397.143, 498 395.144 C 498 393.432, 499.334 393.052, 514.186 390.542 C 588.075 378.054, 658.405 383.900, 705.640 406.456 C 723.957 415.203, 734.474 423.349, 746.167 437.849 C 776.919 475.979, 793.564 525.965, 791.672 574.500 C 788.411 658.141, 736.486 734.474, 639.432 798.305 C 625.982 807.151, 616.422 812.838, 588.327 828.708 L 585.155 830.500 607.530 873 C 619.837 896.375, 630.097 915.950, 630.331 916.500 C 630.918 917.880, 644.903 910.592, 667.094 897.343 C 714.832 868.841, 751.635 840.490, 784.540 806.868 C 817.501 773.189, 838.211 744.501, 856.997 706.500 C 874.610 670.872, 883.346 642.391, 888.591 603.500 C 890.951 586.002, 890.963 549.647, 888.616 531.500 C 880.623 469.706, 856.089 414.068, 816.740 368.500 C 773.510 318.438, 704.774 290.895, 610.585 285.890 C 590.001 284.796, 551.335 285.752, 539.799 287.640 L 536.098 288.246 553 237.373 C 569.415 187.963, 594.977 107.792, 594.499 107.214 C 593.856 106.439, 524.895 85.014, 523.322 85.102 C 522.320 85.157, 516.100 86.509, 509.500 88.106 M 366.757 442.482 C 305.599 476.935, 260.777 523.661, 231.484 583.500 C 210.205 626.968, 200.005 669.732, 201.234 710.324 C 201.927 733.190, 207.064 753.009, 212.500 753.786 C 219.670 754.810, 237.811 733.886, 256.530 703 C 284.214 657.323, 319.308 582.662, 355.108 493.278 C 367.963 461.183, 377.024 437.691, 376.681 437.348 C 376.520 437.187, 372.054 439.497, 366.757 442.482 " stroke="none" fill="black" fill-rule="evenodd"/>
</svg>