<svg xmlns="http://www.w3.org/2000/svg" width="1000" height="1000" viewBox="0 0 1000 1000" version="1.1">
	<path d="M 660.500 75.671 C 647.986 85.262, 623.913 109.226, 613.174 122.784 C 580.050 164.602, 560.016 212.180, 553.432 264.666 C 551.516 279.943, 551.263 312.718, 552.943 328 C 554.374 341.016, 558.969 369.567, 567.990 421.500 C 583.093 508.449, 589.048 554.121, 592.085 606.298 C 592.719 617.187, 593.012 626.321, 592.737 626.596 C 591.972 627.362, 585.408 614.943, 580.598 603.628 C 567.170 572.039, 561.313 543.820, 552.450 468 C 545.707 410.312, 541.594 392.190, 529.912 368.698 C 485.807 279.996, 365.207 250.410, 274.144 305.951 C 216.803 340.924, 178.587 403.580, 164.631 485.500 C 144.759 602.142, 164.594 725.868, 217.293 814 C 283.340 924.455, 390.070 970.713, 510.500 941.077 C 553.210 930.567, 587.037 911.907, 615.247 883.295 C 621.100 877.358, 628.213 869.575, 631.053 866 C 643.387 850.475, 656.644 827.598, 664.520 808.250 C 666.591 803.162, 668.664 799, 669.127 799 C 669.590 799, 676.343 800.801, 684.133 803.003 C 717.229 812.356, 761.964 819.339, 803.250 821.595 C 813.828 822.174, 816 822.054, 815.999 820.896 C 815.998 820.128, 816.926 798.169, 818.060 772.097 C 819.757 733.121, 819.890 724.546, 818.812 723.862 C 818.090 723.405, 815.025 723.021, 812 723.010 C 803.061 722.977, 774.237 720.211, 759.337 717.956 C 740.792 715.149, 721.183 710.924, 706 706.464 C 699.125 704.444, 692.653 702.545, 691.618 702.245 C 689.899 701.745, 689.791 700.956, 690.365 693.099 C 691.830 673.058, 692.198 630.360, 691.095 608.500 C 687.842 544.026, 682.473 503.917, 658.570 365.500 C 650.673 319.771, 649.056 302.208, 650.929 282.500 C 653.303 257.514, 658.233 240.292, 669.535 217.500 C 677.528 201.381, 684.957 190.334, 697.437 176.009 C 704.088 168.375, 716.555 156.689, 723.296 151.770 C 724.949 150.564, 722.996 147.221, 698.588 109.494 C 684.011 86.963, 671.728 68.411, 671.292 68.268 C 670.856 68.124, 666 71.456, 660.500 75.671 M 361.521 377.082 C 352.100 378.377, 336.809 383.739, 327.741 388.928 C 292.630 409.017, 268.729 452.285, 260.586 510.500 C 256.981 536.270, 256.501 544.100, 256.539 576.500 C 256.568 601.578, 257.003 613.101, 258.350 624.500 C 271.629 736.882, 323.418 820.625, 394 843.848 C 413.088 850.129, 439.761 852.619, 460.644 850.071 C 480.977 847.589, 503.026 841.541, 516.481 834.754 C 533.254 826.295, 549.094 812.289, 559.279 796.914 C 565.468 787.571, 573.534 771.221, 576.936 761.124 L 579.085 754.748 576.956 753.257 C 564.168 744.300, 542.570 724.078, 530.756 710 C 507.362 682.124, 486.999 642.564, 475.653 602.952 C 468.089 576.545, 462.940 549.275, 458.101 510 C 456.441 496.525, 453.904 475.928, 452.465 464.229 C 449.288 438.416, 446.046 421.940, 442.744 414.827 C 434.859 397.840, 417.762 384.583, 396.660 379.092 C 387.343 376.667, 371.236 375.746, 361.521 377.082 " stroke="none" fill="black" fill-rule="evenodd"/>
</svg>