<svg xmlns="http://www.w3.org/2000/svg" width="1000" height="1000" viewBox="0 0 1000 1000" version="1.1">
	<path d="M 125.295 114.292 C 102.632 128.156, 84.071 139.950, 84.048 140.500 C 83.949 142.861, 101.303 164.491, 112.417 175.859 C 131.810 195.696, 148.761 208.351, 169.500 218.475 C 189.527 228.252, 204.912 232.489, 231.914 235.665 L 245.781 237.295 236.005 257.089 C 196.213 337.653, 171.777 423.127, 162.558 514 C 157.194 566.874, 155.090 635.908, 156.810 702.669 C 157.807 741.400, 159.717 786.919, 160.376 787.684 C 160.556 787.893, 258.424 780.890, 258.639 780.653 C 258.716 780.569, 258.402 774.200, 257.941 766.500 C 252.955 683.170, 254.446 580.743, 261.572 517 C 270.155 440.230, 290.267 371.001, 323.889 302.500 C 342.469 264.646, 356.324 242.459, 380.390 212.021 C 388.425 201.858, 395 193.241, 395 192.873 C 395 192.228, 364.749 159.865, 347.140 141.672 L 338.596 132.845 322.048 136.163 C 305.890 139.402, 304.911 139.479, 280.500 139.434 C 254.757 139.386, 235.912 137.693, 224 134.358 C 207.149 129.641, 185.182 112.600, 170.876 93.146 C 169.199 90.866, 167.528 89.019, 167.163 89.042 C 166.799 89.065, 147.958 100.427, 125.295 114.292 M 508.856 122.612 C 488.860 140.016, 472.071 154.649, 471.546 155.131 C 470.374 156.208, 476.251 162.379, 488.500 172.933 C 522.679 202.380, 567.157 226.829, 616 243.017 C 633.909 248.952, 676.510 259.916, 699.166 264.421 C 733.374 271.222, 788.551 279, 802.595 279 C 806.486 279, 807.004 278.738, 807.034 276.750 C 807.053 275.512, 808.357 253.575, 809.932 228 C 811.507 202.425, 812.719 181.415, 812.625 181.311 C 812.531 181.206, 805.715 180.414, 797.477 179.550 C 737.207 173.227, 672.217 159.292, 633 144.284 C 601.360 132.176, 569.321 113.521, 551.448 96.802 L 545.213 90.970 508.856 122.612 M 617.500 348.048 C 569.363 352.041, 523.055 365.560, 480.018 388.186 C 397.362 431.639, 346.105 492.153, 332.367 562.500 C 329.890 575.185, 329.882 602.401, 332.352 613.796 C 335.701 629.247, 341.460 643.189, 349.747 655.910 C 354.698 663.510, 372.041 680.685, 380 685.870 C 407.274 703.637, 440.396 710.815, 482.831 708.157 C 513.896 706.210, 533.342 702.604, 559.280 693.981 C 628.842 670.855, 677.896 620.552, 694.392 555.431 C 699.613 534.823, 701.208 522.030, 701.681 497 C 701.999 480.099, 701.726 470.552, 700.706 463 C 699.927 457.225, 699.364 452.397, 699.456 452.272 C 699.793 451.811, 717.760 456.944, 726.500 459.998 C 787.082 481.165, 820.808 523.621, 826.062 585.330 C 828.438 613.234, 822.410 646.286, 809.345 677 C 791.565 718.795, 751.917 763.665, 695.519 805.817 C 671.327 823.898, 638.644 844.745, 614.297 857.624 C 608.358 860.765, 603.320 863.477, 603.100 863.651 C 602.342 864.249, 645.422 952, 646.474 952 C 647.053 952, 653.821 948.580, 661.514 944.400 C 744.879 899.098, 817.552 839.888, 861.581 781.396 C 897.184 734.099, 917.487 682.999, 924.083 624.088 C 925.833 608.456, 924.746 571.702, 922.070 556.069 C 908.695 477.913, 863.938 416.595, 795.023 382.012 C 761.932 365.406, 723.601 354.214, 683.500 349.449 C 667.590 347.559, 632.404 346.812, 617.500 348.048 M 583.500 453.483 C 561.708 459.095, 546.973 464.776, 526.081 475.622 C 473.663 502.835, 440.409 537.618, 430.523 575.573 C 428.430 583.607, 428.538 594.569, 430.752 598.995 C 435.377 608.240, 456.798 612.022, 487.144 608.952 C 523.897 605.235, 553.513 593.149, 573.845 573.572 C 591.415 556.654, 599.751 537.208, 603.026 505.500 C 604.778 488.536, 602.321 463.678, 597.868 453.318 L 596.500 450.135 583.500 453.483 " stroke="none" fill="black" fill-rule="evenodd"/>
</svg>