<svg xmlns="http://www.w3.org/2000/svg" width="1000" height="1000" viewBox="0 0 1000 1000" version="1.1">
	<path d="M 598.500 65.071 C 570.146 72.422, 529.886 79.926, 496.500 84.082 C 474.860 86.776, 432.056 87.773, 411.678 86.058 C 390.801 84.301, 370.822 81.472, 350.229 77.359 C 340.180 75.351, 331.747 73.919, 331.490 74.177 C 331.128 74.539, 309.687 153.446, 306.498 166.152 C 305.844 168.758, 305.957 168.823, 314.667 170.840 C 337.715 176.178, 370.741 181.495, 397.500 184.175 C 405.398 184.967, 423.845 185.475, 444.500 185.472 C 477.469 185.466, 491.141 184.622, 516.962 180.998 C 520.516 180.499, 523.535 180.201, 523.669 180.336 C 523.880 180.547, 486.763 242.941, 396.381 394.308 C 384.622 414.003, 375 430.492, 375 430.951 C 375 431.410, 393.113 442.256, 415.250 455.052 C 437.387 467.849, 456.462 478.941, 457.638 479.701 C 459.680 481.021, 459.993 480.708, 464.542 472.792 C 471.574 460.553, 491.541 431.229, 502.190 417.500 C 518.998 395.829, 547.896 368.595, 552.292 370.282 C 554.001 370.938, 560.488 384.154, 563.664 393.450 C 568.781 408.429, 572.822 427.344, 575.532 449 C 577.692 466.262, 578.553 515.007, 577.086 537 C 569.049 657.524, 528.160 774.390, 464.909 857.619 C 460.559 863.343, 457 868.232, 457 868.483 C 457 869.051, 531.149 929.666, 532.434 930.149 C 533.833 930.675, 549.500 909.903, 563.471 889 C 632.478 785.748, 673.639 649.774, 676.684 515 C 678.624 429.099, 663.771 358.898, 634.281 314.598 C 622.633 297.100, 605.393 282.032, 590.049 275.937 C 586.048 274.348, 584.141 273.074, 584.472 272.212 C 584.749 271.491, 606.864 234.231, 633.616 189.413 C 660.369 144.594, 682.087 107.771, 681.879 107.583 C 677.726 103.840, 616.231 61.027, 615.100 61.091 C 614.220 61.141, 606.750 62.932, 598.500 65.071 " stroke="none" fill="black" fill-rule="evenodd"/>
</svg>