<svg xmlns="http://www.w3.org/2000/svg" width="1000" height="1000" viewBox="0 0 1000 1000" version="1.1">
	<path d="M 516.500 82.136 C 499.450 87.592, 479.132 94.070, 471.348 96.533 L 457.197 101.009 460.607 112.255 C 469.373 141.156, 483.496 193.837, 482.693 194.641 C 481.974 195.359, 426.996 198.126, 304.750 203.596 L 290 204.256 290.075 212.378 C 290.217 227.619, 293.498 301.833, 294.055 302.389 C 294.661 302.995, 354.163 300.491, 435 296.458 C 463.325 295.045, 490.100 293.801, 494.500 293.694 L 502.500 293.500 503.114 300.500 C 503.451 304.350, 504.053 317.360, 504.452 329.411 L 505.177 351.323 500.339 347.604 C 473.050 326.633, 444.791 313.500, 414 307.479 C 402.572 305.244, 375.201 304.425, 361.976 305.922 C 293.133 313.715, 233.419 344.551, 195.288 392 C 171.544 421.547, 156.634 456.043, 150.323 496.036 C 147.605 513.260, 147.862 553.069, 150.795 569.111 C 161.364 626.907, 197.232 665.751, 253.252 680.066 C 268.925 684.071, 278.271 685.183, 300.706 685.713 C 341.569 686.678, 380.062 680.586, 434.432 664.549 C 440.994 662.614, 446.478 661.145, 446.619 661.285 C 446.759 661.426, 444.501 664.681, 441.600 668.520 C 417.196 700.818, 402.015 730.489, 395.307 759 C 392.752 769.862, 392.804 794.761, 395.405 805 C 400.548 825.251, 412.136 843.573, 431.068 861.382 C 472.028 899.914, 540.888 926.302, 636 939.915 C 654.526 942.566, 686.062 945.722, 701.500 946.470 C 708.100 946.790, 716.043 947.282, 719.151 947.564 L 724.802 948.077 725.372 937.788 C 725.685 932.130, 726.203 909.893, 726.523 888.373 L 727.104 849.246 716.302 848.575 C 624.504 842.870, 552.489 825.800, 512.706 800.314 C 503.115 794.170, 492 783.428, 492 780.304 C 492 776.099, 497.790 762.778, 504.397 751.782 C 529.654 709.745, 585.460 651.547, 661.266 588.188 L 675.996 575.877 693.748 569.573 C 743.532 551.896, 799.940 533.635, 842.250 521.497 C 855.313 517.750, 866 514.238, 866 513.692 C 866 509.664, 850.158 451.185, 847.479 445.325 C 841.474 432.189, 833.060 421.477, 822.526 413.558 C 813.650 406.886, 807.469 403.769, 798 401.191 C 777.290 395.551, 758.438 398.443, 736.613 410.605 C 717.282 421.378, 678.334 448.648, 643.877 475.535 L 627.536 488.285 611.212 494.254 C 602.234 497.536, 594.612 499.945, 594.273 499.606 C 593.934 499.268, 594.876 486.730, 596.365 471.745 C 602.041 414.632, 603.422 384.064, 602.663 332.328 C 602.342 310.423, 601.802 291.150, 601.463 289.500 L 600.847 286.500 634.674 283.187 C 677.023 279.039, 757.266 270.068, 757.927 269.406 C 758.463 268.870, 747.225 172.892, 746.547 172.214 C 746.321 171.987, 723.268 174.323, 695.318 177.403 C 647.633 182.659, 599.846 187.484, 588.500 188.189 L 583.500 188.500 579.231 171.500 C 572.768 145.761, 564.624 115.833, 557.802 92.750 C 552.312 74.173, 551.451 72.011, 549.585 72.108 C 548.438 72.168, 533.550 76.680, 516.500 82.136 M 373.500 404.164 C 353.991 405.837, 330.481 412.623, 312.657 421.728 C 282.556 437.103, 262.579 459.873, 252.980 489.748 C 248.788 502.797, 247.009 515.274, 247.004 531.662 C 246.996 559.968, 252.314 573.423, 266.196 580.219 C 289.247 591.505, 331.351 589.709, 387.500 575.044 C 418.431 566.965, 436.790 560.639, 498.500 536.793 C 522.700 527.442, 545.623 518.629, 549.441 517.209 C 553.258 515.789, 555.958 514.509, 555.441 514.364 C 554.086 513.985, 498.320 506, 497.030 506 C 496.436 506, 495.563 504.980, 495.089 503.733 C 494.615 502.486, 491.057 495.091, 487.183 487.299 C 465.607 443.899, 434.018 413.953, 401.500 406.073 C 391.953 403.760, 384.298 403.238, 373.500 404.164 " stroke="none" fill="black" fill-rule="evenodd"/>
</svg>