<svg xmlns="http://www.w3.org/2000/svg" width="1000" height="1000" viewBox="0 0 1000 1000" version="1.1">
	<path d="M 525 49.743 C 510.642 50.747, 492.453 56.266, 480.621 63.209 C 471.790 68.391, 462.068 76.921, 455.371 85.364 C 442.179 101.994, 429.172 134.166, 421.559 169 C 419.575 178.075, 417.713 186.578, 417.421 187.895 L 416.889 190.291 362.694 189.703 C 294.354 188.961, 234.280 186.156, 162.269 180.342 C 150.592 179.399, 140.791 178.875, 140.489 179.178 C 139.635 180.032, 130.187 275.416, 130.883 276.163 C 132.005 277.368, 188.414 281.750, 238 284.484 C 285.927 287.127, 312.188 288.013, 362.175 288.673 C 410.453 289.311, 410.854 289.333, 411.411 291.408 C 411.720 292.559, 411.979 295.017, 411.986 296.870 C 412.015 303.886, 416.328 330.013, 419.542 342.643 C 430.243 384.687, 450.569 417.459, 478.466 437.644 L 481.429 439.788 473.964 441.945 C 432.956 453.798, 413.930 459.975, 389 469.530 C 320.864 495.645, 282.317 522.894, 265.973 556.500 C 258.756 571.340, 257.551 576.759, 257.523 594.500 C 257.502 608.323, 257.724 610.182, 260.348 618.188 C 264.651 631.314, 270.803 641.052, 281.395 651.500 C 291.879 661.841, 301.574 667.965, 317.396 674.238 L 327.894 678.401 317.036 689.230 C 299.179 707.040, 289.538 719.941, 280.966 737.500 C 255.763 789.120, 272.175 839.868, 325.500 875.197 C 390.999 918.592, 486.934 942.665, 616 948.093 C 653.204 949.658, 735.436 947.897, 737.849 945.484 C 738.134 945.199, 736.396 923.092, 733.987 896.357 L 729.607 847.748 720.053 848.374 C 714.799 848.719, 693.850 849.285, 673.500 849.632 C 559.079 851.586, 462.458 835.762, 400.968 805 C 389.623 799.325, 375.116 790.312, 370.800 786.258 L 368.101 783.723 370.183 779.611 C 377.478 765.207, 397.956 746.524, 429.500 725.493 C 455.566 708.115, 473.075 698.533, 512.750 679.935 C 522.759 675.243, 522.999 675.053, 522.949 671.815 C 522.854 665.588, 515.434 580.100, 514.946 579.613 C 514.679 579.346, 501.419 580.871, 485.480 583.003 C 445.793 588.312, 430.159 589.371, 402 588.659 C 389.075 588.332, 376.714 587.707, 374.531 587.270 L 370.561 586.476 384.531 579.331 C 402.402 570.189, 419.907 562.864, 442.405 555.113 C 511.378 531.351, 610.626 508.736, 713.093 493.433 L 731.686 490.656 732.343 462.166 C 733.226 423.853, 733.172 395, 732.216 395 C 726.504 395, 678.243 389.203, 665 386.926 C 617.854 378.819, 547.828 363.960, 541.387 360.696 C 526.723 353.265, 515.690 330.336, 511.544 298.674 C 510.745 292.570, 510.243 287.423, 510.430 287.237 C 510.616 287.051, 521.283 286.248, 534.134 285.453 C 632.219 279.386, 751.269 263.529, 841.500 244.513 C 870.802 238.337, 872 238.006, 872 236.082 C 872 233.972, 850.283 142.950, 849.622 142.289 C 849.369 142.035, 840.687 143.644, 830.331 145.863 C 794.115 153.622, 743.354 162.601, 700 168.915 C 673.540 172.769, 629.870 178.203, 629.370 177.704 C 629.157 177.491, 640.227 161.383, 653.970 141.908 C 667.713 122.434, 678.967 106.165, 678.978 105.756 C 679.006 104.818, 665.420 96.032, 651.867 88.222 C 613.455 66.088, 574.273 51.965, 547 50.423 C 542.325 50.159, 536.475 49.827, 534 49.685 C 531.525 49.544, 527.475 49.570, 525 49.743 M 529 154.250 C 526.059 160.598, 519 182.803, 519 185.704 C 519 187.108, 520.478 187.212, 531.750 186.599 C 554.828 185.344, 610.952 180.381, 611.814 179.519 C 612.376 178.957, 593.030 168.350, 581 162.625 C 567.395 156.150, 555.024 151.706, 544.626 149.558 C 532.406 147.034, 532.332 147.056, 529 154.250 " stroke="none" fill="black" fill-rule="evenodd"/>
</svg>