<svg xmlns="http://www.w3.org/2000/svg" width="1000" height="1000" viewBox="0 0 1000 1000" version="1.1">
	<path d="M 450.557 101.908 C 450.312 102.304, 447.808 111.825, 444.993 123.064 C 424.522 204.802, 404.693 267.831, 391.847 292 C 378.514 317.083, 363.951 336.295, 341.815 358 L 324.988 374.500 349.410 416.333 C 362.843 439.341, 374.007 458.340, 374.220 458.553 C 374.433 458.766, 395.031 447.264, 419.993 432.993 C 444.955 418.722, 465.551 407.218, 465.761 407.428 C 465.971 407.638, 465.215 413.365, 464.081 420.155 C 459.614 446.904, 459.314 467.823, 462.532 528 C 463.311 542.575, 464.642 567.654, 465.489 583.731 C 467.492 621.764, 468.872 691.880, 468.235 723.356 L 467.733 748.213 450.117 730.757 C 440.427 721.157, 428.225 709.500, 423 704.854 C 410.456 693.699, 392.991 679.831, 391.956 680.203 C 390.663 680.669, 333.864 758.111, 334.200 758.951 C 334.365 759.363, 339 763.331, 344.500 767.768 C 379.390 795.914, 425.548 845.872, 469.908 903.500 C 478.375 914.500, 485.572 923.813, 485.901 924.195 C 486.231 924.577, 502.025 915.508, 521 904.042 L 555.500 883.194 556.656 876.347 C 558.650 864.533, 560.955 845.142, 562.462 827.500 C 565.948 786.680, 566.486 769.031, 566.481 695.500 C 566.476 620.940, 566.296 614.878, 561.816 538 C 559.048 490.502, 558.863 449.248, 561.358 436.005 C 565.278 415.196, 576.266 387.124, 586.842 370.896 C 599.290 351.797, 617.077 332.814, 645.728 308.051 L 658.955 296.619 657.228 293.946 C 610.544 221.722, 605.373 213.991, 603.974 214.328 C 603.134 214.530, 581.132 226.924, 555.079 241.870 C 529.027 256.816, 507.518 268.852, 507.283 268.616 C 507.047 268.381, 508.653 262.408, 510.850 255.344 C 523.798 213.718, 547.143 125.810, 545.647 124.314 C 545.306 123.973, 524.659 118.822, 499.764 112.866 C 474.869 106.910, 453.713 101.846, 452.751 101.613 C 451.789 101.379, 450.802 101.512, 450.557 101.908 M 731 484.666 C 721.297 486.194, 713.899 488.294, 714.323 489.398 C 717.868 498.637, 746.005 581.021, 745.828 581.645 C 745.695 582.115, 747.033 584.015, 748.802 585.866 C 750.571 587.717, 753.539 592.442, 755.398 596.366 C 764.340 615.243, 768.648 641.270, 769.696 682.750 L 770.309 707 773.405 707.054 C 775.107 707.084, 796.975 707.699, 822 708.419 C 847.025 709.140, 867.837 709.539, 868.250 709.306 C 869.304 708.710, 869.166 687.029, 867.962 664.063 C 865.868 624.149, 859.805 591.240, 849.966 566.387 C 829.078 513.627, 789.907 483.474, 743.119 484.136 C 737.829 484.211, 732.375 484.450, 731 484.666 M 287.343 561.730 C 258.972 596.259, 221.289 628.408, 186.589 647.687 C 174.765 654.257, 159.065 661.160, 146.250 665.423 C 139.660 667.615, 135 669.700, 135 670.456 C 135 672.117, 159.025 763.352, 159.619 763.950 C 160.405 764.740, 173.076 761.002, 187 755.871 C 205.023 749.231, 237.371 733.113, 253.862 722.557 C 281.267 705.015, 306.544 684.468, 332.033 659.012 C 351.113 639.959, 377.475 609.057, 375.899 607.594 C 375.679 607.390, 359.750 596.095, 340.500 582.492 C 321.250 568.890, 303.405 556.232, 300.843 554.364 L 296.187 550.967 287.343 561.730 " stroke="none" fill="black" fill-rule="evenodd"/>
</svg>