<svg xmlns="http://www.w3.org/2000/svg" width="1000" height="1000" viewBox="0 0 1000 1000" version="1.1">
	<path d="M 660.500 82.145 C 633.534 92.312, 583.769 108.979, 555 117.478 C 471.590 142.122, 408.958 154.254, 365.500 154.185 C 345.714 154.154, 338.242 152.658, 325.261 146.131 C 311.029 138.976, 292.548 123.108, 283.487 110.266 C 281.844 107.937, 279.993 106.214, 279.374 106.437 C 278.352 106.805, 198.063 156.751, 197.082 157.629 C 195.477 159.065, 212.809 180.843, 225.944 193.896 C 244.169 212.006, 262.169 225.097, 282.500 235.024 C 308.409 247.676, 326.341 251.898, 357.620 252.710 C 380.293 253.299, 398.917 252.213, 423 248.899 C 450.464 245.119, 483.653 238.579, 514.256 230.918 C 522.922 228.749, 530.844 226.867, 531.860 226.737 C 533.216 226.563, 540.414 235.142, 558.932 259 C 572.805 276.875, 584.519 291.632, 584.961 291.794 C 585.404 291.956, 591.781 287.265, 599.133 281.370 C 648.169 242.050, 685.748 207.269, 719.575 169.896 C 731.991 156.177, 742.004 144.567, 741.825 144.096 C 741.646 143.625, 728.450 128.252, 712.500 109.932 C 696.550 91.613, 683.050 76.086, 682.500 75.426 C 681.745 74.521, 676.351 76.169, 660.500 82.145 M 419.692 276.527 C 415.999 310.546, 407.608 356.281, 398.229 393.500 L 393.442 412.500 386.971 413.310 C 383.412 413.756, 369.925 413.871, 357 413.565 C 314.076 412.549, 284.227 407.617, 256.732 396.997 C 241.112 390.964, 241.357 391.604, 251.698 383.856 C 260.101 377.560, 271.475 370.339, 279 366.521 C 280.925 365.545, 282.666 364.600, 282.868 364.422 C 283.070 364.243, 276.134 349.113, 267.453 330.799 C 258.773 312.484, 249.270 292.401, 246.335 286.169 L 240.999 274.838 232.250 279.588 C 205.977 293.850, 187.946 306.829, 171.400 323.390 C 149.327 345.483, 138.957 365.624, 137.337 389.549 C 135.089 422.755, 153.926 452.874, 190.500 474.552 C 207.372 484.552, 234.318 494.933, 259.135 500.993 C 285.413 507.410, 322.261 511.985, 347.750 511.995 C 354.488 511.998, 360 512.216, 360 512.480 C 360 512.744, 356.329 521.584, 351.843 532.125 C 308.367 634.274, 246.669 720.355, 172.500 782.345 C 158.664 793.909, 140.456 807.644, 127.500 816.289 C 122.550 819.592, 118.328 822.438, 118.119 822.612 C 117.909 822.786, 129.759 841.624, 144.453 864.473 L 171.168 906.017 183.834 897.375 C 247.784 853.741, 303.787 799.010, 351.007 734 C 380.172 693.848, 406.789 673.033, 442 662.843 C 458.955 657.936, 485.315 656.530, 504 659.536 C 588.211 673.085, 686.057 749.463, 789.017 882.022 C 796.270 891.360, 802.479 899, 802.814 899 C 803.329 899, 877.766 843.265, 880.397 840.909 C 881.384 840.025, 872.938 828.633, 851.919 802.500 C 738.691 661.719, 628.529 580.932, 525.357 563.017 C 505.935 559.645, 491.866 558.684, 472 559.374 C 461.825 559.728, 452.023 560.292, 450.218 560.627 L 446.936 561.236 449.111 555.868 C 450.307 552.916, 455.107 540.332, 459.777 527.905 L 468.269 505.311 477.884 504.066 C 537.287 496.379, 621.509 477.141, 701.648 452.955 C 727.501 445.153, 786.597 425.736, 787.628 424.705 C 788.095 424.239, 756.491 333.157, 755.528 332.195 C 755.298 331.964, 744.397 335.384, 731.304 339.795 C 656.219 365.090, 588.367 383.464, 522.099 396.447 C 509.229 398.969, 498.588 400.912, 498.452 400.766 C 498.317 400.620, 499.512 394.650, 501.108 387.500 C 505.490 367.867, 511.536 334.667, 514.400 314.500 C 517.219 294.658, 520.405 266.054, 519.852 265.549 C 519.413 265.148, 432.158 259.982, 425.993 259.992 L 421.486 260 419.692 276.527 " stroke="none" fill="black" fill-rule="evenodd"/>
</svg>