<svg xmlns="http://www.w3.org/2000/svg" width="1000" height="1000" viewBox="0 0 1000 1000" version="1.1">
	<path d="M 480.500 71.445 C 458.834 76.523, 446.342 84.520, 421.940 108.933 C 403.939 126.943, 385.999 148.707, 363.989 179.240 C 350.864 197.448, 350.419 197.937, 347.500 197.366 C 330.838 194.108, 290.298 180.058, 262.546 167.924 C 252.671 163.607, 244.527 160.170, 244.446 160.287 C 244.366 160.404, 234.134 180.008, 221.709 203.850 L 199.116 247.200 212.687 253.679 C 229.327 261.624, 255.261 272.017, 276.244 279.149 C 284.903 282.092, 291.990 284.830, 291.994 285.234 C 291.997 285.638, 284.208 298.463, 274.684 313.734 C 240.473 368.592, 188.624 456.339, 149.257 526 C 119.363 578.901, 109.210 597.497, 109.856 598.170 C 111.804 600.196, 195.422 644.963, 196.015 644.297 C 196.405 643.859, 204.731 629.100, 214.516 611.500 C 272.022 508.075, 342.008 390.179, 388.574 318.291 C 395.118 308.189, 396.829 306.170, 398.491 306.585 C 403.053 307.726, 433.781 308.456, 451.500 307.844 C 473.436 307.087, 488.782 304.909, 518 298.408 C 574.163 285.911, 631.262 268.890, 674.118 251.871 C 693.521 244.166, 746.395 218.575, 745.833 217.161 C 745.650 216.699, 737.679 202.042, 728.119 184.590 C 713.312 157.559, 710.194 152.516, 707.062 150.539 C 698.660 145.235, 673.312 131.140, 656.500 122.424 C 606.751 96.630, 565.043 80.120, 531.328 72.875 C 518.558 70.130, 489.586 69.315, 480.500 71.445 M 496.667 173.021 C 491.133 178.079, 477.518 193.256, 469.935 202.822 L 465.715 208.144 469.608 207.477 C 492.926 203.479, 559 187.516, 559 185.880 C 559 184.290, 525.020 172.559, 513.500 170.173 C 501.843 167.758, 502.559 167.637, 496.667 173.021 M 557.554 314.179 C 556.460 319.069, 543.904 409.237, 544.267 409.601 C 544.478 409.811, 549.542 410.740, 555.520 411.665 C 567.730 413.553, 567.904 413.331, 550.500 418.079 C 505.085 430.469, 474.264 452.507, 459.007 483.500 C 452.052 497.629, 449.665 507.564, 449.638 522.500 C 449.614 536.039, 451.585 544.931, 457.373 557.395 C 463.231 570.010, 477.612 586.927, 489.836 595.584 C 492.101 597.188, 493.852 598.775, 493.727 599.110 C 493.602 599.446, 476.625 614.455, 456 632.464 C 435.375 650.473, 417.924 665.753, 417.221 666.419 C 416.191 667.394, 418.359 673.378, 428.323 697.065 C 449.476 747.351, 453.851 762.009, 456.957 793 C 459.472 818.086, 459.679 821, 458.948 821 C 457.077 821, 402.068 785.813, 378.462 769.517 C 377.468 768.831, 376.614 768.982, 375.634 770.017 C 374.862 770.833, 361.962 788.792, 346.967 809.926 L 319.703 848.351 322.601 850.680 C 324.196 851.960, 334.500 859.007, 345.500 866.338 C 382.325 890.882, 432.465 920.890, 473.500 942.944 C 485.050 949.151, 496.400 955.315, 498.722 956.641 L 502.944 959.052 526.222 937.886 C 539.025 926.245, 550.705 915.546, 552.178 914.110 C 556.423 909.973, 558.442 887.877, 558.447 845.500 C 558.451 813.456, 557.836 803.156, 553.940 770 C 551.762 751.467, 545.744 727.323, 537.694 704.822 L 534.232 695.145 578.508 656.432 L 622.784 617.718 623.466 593.609 C 623.842 580.349, 624.003 564.127, 623.824 557.560 L 623.500 545.620 612 542.266 C 586.536 534.838, 575.037 530.864, 565.500 526.198 L 555.500 521.305 559.502 519.259 C 565.098 516.397, 581.616 511.449, 593.568 509.054 C 625.754 502.604, 672.565 500.160, 701 503.446 C 726.920 506.441, 752.313 512.979, 770.103 521.237 C 774.171 523.126, 785.510 529.920, 795.299 536.336 C 805.089 542.751, 813.499 548, 813.989 548 C 814.901 548, 873.247 481.729, 873.814 480.049 C 874.518 477.958, 843.644 438.666, 832.693 427.717 C 806.450 401.479, 769.385 374.298, 741.756 361.027 C 704.714 343.236, 649.269 327.667, 581.500 316.027 C 571.600 314.327, 562.279 312.693, 560.787 312.397 C 558.548 311.952, 557.983 312.263, 557.554 314.179 M 287.570 668.628 C 284.300 675.770, 275.715 688.858, 268.958 697 C 243.016 728.261, 201.269 754.248, 150.750 770.583 C 144.706 772.537, 142.008 773.890, 142.027 774.956 C 142.060 776.826, 168.522 866.856, 169.254 867.587 C 169.537 867.871, 175.559 866.226, 182.635 863.932 C 271.445 835.142, 341.659 780.781, 374.355 715.500 C 379.478 705.271, 385.580 690.159, 384.828 689.563 C 384.525 689.323, 323.716 672.347, 300.283 665.962 L 290.065 663.177 287.570 668.628 M 686.250 672.737 C 682.667 672.988, 681 673.537, 681 674.466 C 681 675.774, 692.372 759.705, 693.552 767.105 L 694.127 770.710 702.886 771.331 C 741.835 774.096, 775.399 795.261, 800.681 833 C 803.445 837.125, 806.430 841.850, 807.316 843.500 C 808.202 845.150, 809.332 847.102, 809.826 847.837 C 810.522 848.872, 820.432 843.912, 853.613 825.922 C 877.201 813.133, 896.664 802.542, 896.865 802.386 C 897.464 801.922, 890.534 790, 883.207 778.890 C 842.169 716.655, 780.690 678.509, 712.605 673.036 C 699.994 672.023, 696.954 671.988, 686.250 672.737 " stroke="none" fill="black" fill-rule="evenodd"/>
</svg>