<svg xmlns="http://www.w3.org/2000/svg" width="1000" height="1000" viewBox="0 0 1000 1000" version="1.1">
	<path d="M 465.500 94.994 C 419.405 107.313, 418.501 107.602, 418.575 110.027 C 418.616 111.387, 420.990 122.312, 423.851 134.304 C 433.211 173.540, 451.238 268.095, 449.659 269.674 C 447.958 271.375, 388.300 283.740, 366.500 286.910 C 358.800 288.029, 345.370 289.419, 336.655 289.998 C 301.706 292.319, 263.189 286.376, 233.229 274.040 C 227.930 271.858, 223.518 270.169, 223.424 270.286 C 223.331 270.404, 213.466 287.825, 201.503 309 C 189.540 330.175, 178.635 349.421, 177.270 351.769 L 174.788 356.037 184.144 360.396 C 222.248 378.147, 264.783 387.587, 311.682 388.701 C 345.556 389.505, 373.635 386.829, 414.923 378.860 C 429.005 376.141, 458.122 369.729, 462.083 368.473 C 463.454 368.038, 463.958 371.020, 465.845 390.736 C 469.679 430.789, 473 483.527, 473 504.358 L 473 513.308 452.750 512.689 C 424.273 511.817, 407.339 508.989, 393.918 502.863 C 389.611 500.897, 387.019 499.052, 386.418 497.524 C 385.913 496.240, 372.926 477.853, 357.559 456.663 L 329.617 418.135 325.559 421.259 C 318.445 426.734, 305.674 440.335, 300.235 448.229 C 287.999 465.987, 282.757 481.664, 282.757 500.500 C 282.757 525.865, 292.341 545.803, 314.770 567.099 C 342.891 593.800, 380.525 607.477, 435.500 610.975 C 444.300 611.535, 456.610 611.995, 462.857 611.996 L 474.213 612 473.562 636.250 C 472.517 675.224, 471.062 710.747, 469.456 736.500 C 467.837 762.478, 465.093 796.240, 464.558 796.775 C 464.376 796.958, 459.563 794.227, 453.863 790.707 C 441.439 783.034, 418.806 770.892, 391.204 757.092 L 370.908 746.944 364.576 760.222 C 361.094 767.525, 352.964 784.300, 346.510 797.500 C 340.056 810.700, 333.261 824.766, 331.410 828.757 L 328.044 836.014 352.272 848.133 C 401.179 872.595, 420.019 884.587, 473 924.971 C 484.275 933.566, 494.040 940.926, 494.701 941.327 C 495.690 941.929, 533.329 908.690, 548.704 893.637 C 551.710 890.694, 552.065 889.563, 554.462 875.314 C 563.377 822.320, 569.704 739.597, 571.993 646.080 C 572.551 623.298, 573.149 604.517, 573.323 604.344 C 573.496 604.171, 580.807 603.105, 589.569 601.975 C 664.153 592.359, 706.556 569.234, 726.108 527.511 C 728.228 522.987, 730.712 516.183, 731.628 512.392 C 734.023 502.480, 733.793 487.613, 731.080 477 C 728.138 465.492, 719.651 448.442, 711.348 437.359 C 703.906 427.424, 697.447 420, 696.247 420 C 695.830 420, 680.191 435.306, 661.494 454.013 C 638.112 477.409, 627.500 488.691, 627.500 490.157 C 627.500 491.845, 626.252 492.756, 621.494 494.539 C 613.878 497.394, 595.492 501.500, 582.343 503.283 L 572.187 504.660 571.566 491.080 C 569.067 436.400, 565.251 385.507, 560.728 346.534 C 560.464 344.254, 560.823 344.154, 591 338.096 C 611.807 333.919, 634.645 330.558, 637.664 331.228 C 638.675 331.452, 636.953 332.230, 633.831 332.959 C 630.713 333.687, 627.718 334.556, 627.176 334.891 C 626.426 335.354, 640.861 410.072, 645.486 429.671 L 645.999 431.843 656.749 429.002 C 706.324 415.904, 741.520 392.459, 756.841 362.326 C 760.445 355.237, 763.817 343.900, 765.018 334.829 C 768.126 311.365, 758.491 283.544, 740.595 264.304 C 724.972 247.507, 704.629 237.529, 677.500 233.358 C 669.754 232.167, 662.203 231.935, 644 232.327 C 616.437 232.921, 600.618 235.001, 562.473 243.043 C 545.917 246.533, 546 246.528, 546 244.137 C 546 240.960, 538.207 197.857, 532.415 169 C 525.707 135.576, 515.256 89.344, 513.302 84.443 C 512.531 82.511, 510.676 82.921, 465.500 94.994 M 678 632.103 C 669.475 633.061, 651.156 636.535, 646.161 638.141 C 643.796 638.901, 642.955 639.693, 643.277 640.857 C 643.527 641.761, 650.204 662.896, 658.116 687.824 L 672.500 733.149 675.500 732.515 C 689.369 729.586, 705.437 729.174, 716.270 731.469 C 727.004 733.744, 734 738.131, 745.906 750.054 C 762.249 766.422, 780.228 790.296, 795.426 815.812 C 801.828 826.560, 803.540 828.783, 804.872 828.075 C 829.674 814.897, 889.612 782.718, 889.913 782.418 C 890.140 782.192, 885.415 773.879, 879.413 763.944 C 867.917 744.916, 852.002 721.999, 839.200 706.041 C 828.040 692.129, 801.081 665.616, 790.500 658.146 C 774.947 647.166, 754.893 638.537, 735.726 634.578 C 719.172 631.159, 695.444 630.141, 678 632.103 M 303.810 659.784 C 264.725 697.050, 229.508 725.934, 207.500 738.774 C 191.666 748.012, 160.503 755.549, 131.119 757.247 L 126.739 757.500 126.871 784 C 126.944 798.575, 127.295 820.737, 127.651 833.250 L 128.299 856 132.399 855.997 C 148.018 855.984, 183.399 850.746, 203.885 845.415 C 243.084 835.214, 269.523 820.029, 317 780.448 C 334.212 766.098, 358.046 744.692, 374 729.253 L 385.500 718.125 351.005 683.562 C 332.033 664.553, 316.198 649, 315.815 649 C 315.433 649, 310.030 653.853, 303.810 659.784 " stroke="none" fill="black" fill-rule="evenodd"/>
</svg>