<svg xmlns="http://www.w3.org/2000/svg" width="1000" height="1000" viewBox="0 0 1000 1000" version="1.1">
	<path d="M 565.544 53.246 C 562.339 62.326, 555.288 76.402, 549.936 84.404 C 542.309 95.807, 529.688 105.571, 501.859 121.598 C 489.640 128.636, 446.468 150.731, 440.513 152.995 C 439.131 153.521, 438 154.408, 438 154.966 C 438 155.525, 443.625 168.644, 450.500 184.119 C 457.375 199.594, 463 212.587, 463 212.992 C 463 213.898, 460.214 214.285, 427 217.998 C 371.861 224.161, 365.793 224.490, 307 224.492 C 255.352 224.494, 242.084 224.033, 204 220.912 C 189.377 219.714, 154.347 216.237, 148.351 215.390 C 144.407 214.832, 144.174 214.944, 143.641 217.652 C 142.518 223.353, 130.829 312.162, 131.160 312.478 C 131.630 312.927, 155.221 315.634, 174.500 317.451 C 226.603 322.361, 274.008 324.387, 323.216 323.805 C 351.816 323.467, 360.518 323.637, 359.216 324.507 C 358.272 325.139, 350.975 329.401, 343 333.978 C 335.025 338.555, 316.800 349.151, 302.500 357.524 C 266.647 378.518, 246.483 389.300, 188 418.747 C 160.225 432.732, 137.374 444.513, 137.220 444.927 C 136.889 445.817, 168.885 535.228, 169.843 536.091 C 170.204 536.416, 189.400 532.024, 212.500 526.330 C 235.600 520.637, 266.650 513.006, 281.500 509.372 C 370.848 487.511, 393.710 481.901, 395.500 481.397 C 396.600 481.088, 391.200 484.396, 383.500 488.749 C 348.199 508.706, 326.217 526.071, 311.810 545.385 C 291.888 572.091, 288.132 604.193, 302.318 626.500 C 315.848 647.776, 338.687 657.742, 384.800 662.491 C 396.063 663.651, 435.116 665.885, 445.915 665.987 C 447.129 665.998, 447.235 678.307, 446.663 752.669 C 446.296 800.336, 445.805 839.528, 445.572 839.761 C 445.339 839.995, 439.045 836.741, 431.586 832.531 C 405.486 817.798, 355.137 794.957, 351.700 796.290 C 350.685 796.684, 321.770 881.949, 320.823 887.341 C 320.562 888.830, 322.409 889.939, 330.500 893.148 C 346.295 899.413, 376.129 914.297, 392.500 924.078 C 412.576 936.074, 429.981 948.886, 450.593 966.841 L 467.685 981.731 485.593 974.557 C 495.442 970.611, 511.897 964.310, 522.160 960.556 L 540.820 953.731 541.422 942.615 C 543.038 912.796, 544.067 864.536, 545.114 769.500 C 545.744 712.300, 546.404 665.335, 546.580 665.133 C 546.756 664.931, 556.711 664.338, 568.700 663.814 C 580.690 663.291, 599.950 662.296, 611.500 661.605 C 623.050 660.913, 632.582 660.389, 632.683 660.440 C 632.784 660.491, 629.521 676.668, 625.433 696.388 C 621.345 716.108, 618 732.567, 618 732.963 C 618 733.358, 620.587 734.234, 623.750 734.909 C 635.235 737.360, 659.878 744.273, 676.314 749.655 C 727.956 766.564, 753.908 782.184, 791.192 818.797 L 806.883 834.206 844.444 802.487 L 882.005 770.769 873.753 761.725 C 858.324 744.818, 836.079 724.778, 816 709.696 C 779.583 682.343, 734.300 662.068, 672.500 645.444 C 662.600 642.781, 654.399 640.554, 654.276 640.494 C 654.153 640.434, 652.888 631.411, 651.465 620.443 C 650.042 609.474, 647.961 596.225, 646.840 591 C 642.702 571.713, 634.430 550.698, 625.605 537.056 C 623.072 533.141, 621 529.784, 621 529.596 C 621 529.409, 626.962 532.818, 634.250 537.172 C 676.441 562.379, 741.797 590.429, 814.500 614.534 C 848.235 625.719, 865.873 631.028, 866.384 630.151 C 867.395 628.414, 900.113 538.784, 899.828 538.530 C 899.648 538.368, 894.885 535.506, 889.245 532.170 C 875.901 524.278, 865.399 516.327, 855.790 506.844 C 849.600 500.735, 844.128 493.257, 828.718 469.844 C 818.095 453.705, 806.050 435.228, 801.952 428.785 C 797.853 422.342, 794.212 417.054, 793.859 417.035 C 793.507 417.016, 775.300 428.462, 753.399 442.471 L 713.579 467.942 701.040 461.406 C 694.143 457.811, 688.124 454.501, 687.665 454.050 C 687.206 453.599, 693.368 449.317, 701.358 444.534 C 734.215 424.867, 758.310 406.652, 780.108 385.002 C 803.180 362.088, 820.513 339.144, 831.885 316.461 C 837.572 305.118, 842.226 293.230, 841.196 292.678 C 840.813 292.472, 819.382 286.514, 793.571 279.438 C 761.253 270.577, 746.519 266.943, 746.246 267.763 C 745.518 269.947, 735.561 285.926, 731 292.230 C 724.351 301.419, 703.916 322.179, 692.623 331.217 C 679.960 341.350, 658.559 355.468, 639.500 366.261 C 623.681 375.219, 602.693 386, 601.073 386 C 599.522 386, 584.546 368.594, 573.393 353.830 C 567.714 346.311, 562.709 339.938, 562.272 339.668 C 561.835 339.398, 550.762 341.779, 537.667 344.959 C 524.572 348.140, 514.227 350.420, 514.679 350.026 C 515.131 349.632, 538.675 336.346, 567 320.501 C 629.775 285.386, 632 284.107, 632 283.137 C 632 282.235, 599.340 192.996, 598.837 192.525 C 598.652 192.351, 593.100 193.230, 586.500 194.479 C 564.219 198.696, 565.233 199.042, 577.021 191.240 C 612.790 167.561, 629.736 148.422, 647.576 111.555 C 654.634 96.968, 662.554 77.221, 661.691 76.358 C 661.458 76.125, 640.845 69.869, 615.884 62.455 C 590.923 55.041, 569.802 48.754, 568.949 48.483 C 567.813 48.123, 566.902 49.398, 565.544 53.246 M 218.301 88.750 C 219.385 114.434, 227.485 135.746, 244.391 157.397 C 259.490 176.734, 280.410 190.227, 311.143 200.451 C 323.628 204.604, 350.445 210.889, 351.439 209.894 C 351.767 209.567, 362.396 130.571, 364.270 114.536 C 364.468 112.844, 363.256 112.280, 355.500 110.461 C 343.869 107.734, 336.819 105.384, 330 101.961 C 323.586 98.742, 320.817 96.028, 318.309 90.500 C 316.741 87.047, 316.015 86.467, 312.997 86.260 C 311.073 86.127, 289.547 83.540, 265.160 80.510 C 240.773 77.479, 220.122 75, 219.270 75 C 217.917 75, 217.794 76.749, 218.301 88.750 M 451 564.550 L 446.500 566.910 450.633 566.955 C 454.074 566.992, 454.863 566.630, 455.344 564.794 C 455.661 563.580, 455.826 562.498, 455.710 562.389 C 455.595 562.279, 453.475 563.252, 451 564.550 M 309 665.168 C 293.976 683.721, 272.675 704.158, 255.500 716.497 C 233.929 731.994, 177.298 754.319, 128.500 766.562 C 118.050 769.184, 109.353 771.440, 109.173 771.575 C 108.819 771.841, 127.075 867.256, 127.598 867.874 C 128.110 868.479, 150.196 863.279, 168 858.361 C 202.308 848.883, 237.750 836.014, 268.494 821.870 C 306.073 804.581, 331.605 785.621, 366.163 749.337 C 377.999 736.909, 394.011 717.981, 393.940 716.500 C 393.896 715.591, 317.927 657.740, 316.227 657.321 C 315.827 657.222, 312.575 660.754, 309 665.168 " stroke="none" fill="black" fill-rule="evenodd"/>
</svg>