<svg xmlns="http://www.w3.org/2000/svg" width="1000" height="1000" viewBox="0 0 1000 1000" version="1.1">
	<path d="M 376.500 52.655 C 345.025 55.861, 313.537 73.147, 290.161 100.053 C 274.327 118.277, 254.224 152.980, 243.160 181.187 C 238.431 193.243, 239.949 192.805, 223.637 186.814 C 199.968 178.122, 177.298 166.699, 155.129 152.296 C 148.875 148.232, 143.653 145.041, 143.525 145.204 C 131.774 160.073, 85.215 223.538, 85.600 224.162 C 85.905 224.655, 90.732 228.127, 96.327 231.878 C 127.320 252.652, 167.123 272.278, 199.717 282.859 C 207.355 285.338, 210.942 286.979, 210.959 288 C 210.972 288.825, 209.664 296.025, 208.053 304 C 206.442 311.975, 204.166 325.025, 202.994 333 L 200.865 347.500 214.995 389.479 C 222.767 412.568, 229.315 431.648, 229.546 431.879 C 229.777 432.110, 242.927 426.170, 258.768 418.678 C 283.691 406.892, 308.374 397.041, 309.688 398.355 C 310.435 399.101, 294.328 422.318, 284.960 434 C 265.818 457.870, 245.351 479.824, 217.223 506.663 C 205.825 517.538, 196.360 526.756, 196.190 527.149 C 195.889 527.839, 251.247 621.530, 253.091 623.452 C 253.656 624.041, 270.683 607.818, 297.752 580.902 C 405.977 473.287, 494.824 394.887, 552.227 356.348 C 571.044 343.714, 584.585 337, 591.245 337 C 595.806 337, 596.668 337.377, 599.913 340.788 C 603.915 344.995, 608.751 354.235, 611.933 363.753 C 613.414 368.185, 621 412.494, 621 416.716 C 621 416.872, 635.288 417.012, 652.750 417.027 L 684.500 417.054 681 420.006 C 674.894 425.157, 640.141 450.230, 622.500 462.213 C 600.881 476.897, 579.775 490.049, 549.500 507.700 C 454.081 563.330, 353.705 631.610, 250.193 711.300 L 222.886 732.322 227.782 737.411 C 230.475 740.210, 245.638 756.450, 261.478 773.500 C 277.318 790.550, 291.049 805.321, 291.991 806.325 C 293.635 808.075, 294.669 807.394, 317.183 789.759 C 427.542 703.313, 554.243 631.124, 638.500 606.686 C 697.521 589.568, 739.378 591.449, 760.137 612.152 C 770.617 622.604, 774.953 635.657, 774.983 656.843 C 775.061 712.778, 732.068 779.263, 670.895 817.802 C 621.817 848.722, 557.070 862.262, 512.280 850.973 C 501.698 848.306, 489.254 841.999, 482.633 835.947 C 476.630 830.461, 472 822.402, 472 817.440 C 472 809.634, 483.129 804.998, 501.855 805.003 C 526.829 805.010, 554.791 813.029, 589.820 830.229 C 597.807 834.151, 604.497 836.871, 604.948 836.380 C 605.888 835.357, 649.617 754.270, 650.489 751.933 C 650.945 750.710, 646.732 748.264, 631.287 740.785 C 579.011 715.473, 536.486 704.753, 494.548 706.315 C 451.194 707.930, 416.970 724.080, 394.814 753.378 C 379.095 774.165, 371.266 801.925, 373.908 827.506 C 380.642 892.709, 437.082 942.161, 515.927 951.943 C 570.982 958.773, 638.903 945.674, 695.301 917.349 C 779.719 874.952, 845.751 795.572, 866.953 711 C 872.540 688.716, 873.420 681.344, 873.460 656.500 C 873.492 636.382, 873.209 632.080, 871.202 622.166 C 864.554 589.328, 851.824 564.852, 830.003 542.958 C 808.194 521.073, 783.836 508.005, 751.223 500.691 L 741.106 498.422 757.235 485.530 C 800.645 450.830, 838.781 414.201, 863.512 383.453 C 881.077 361.614, 895.564 336.734, 901.938 317.461 C 912.811 284.583, 908.730 252.463, 890.618 228.369 C 875.410 208.137, 849.283 192.654, 819.768 186.382 C 803.053 182.830, 779.576 184.340, 761.863 190.106 C 731.704 199.923, 700.609 225.408, 676.581 260 C 673.334 264.675, 670.325 268.902, 669.895 269.393 C 669.465 269.885, 666.725 268.139, 663.807 265.513 C 650.312 253.374, 633.327 244.718, 614.500 240.387 C 604.887 238.175, 580.125 237.898, 570.044 239.888 C 559.885 241.894, 548.373 245.809, 537.250 251.040 C 531.612 253.692, 527 255.614, 527 255.312 C 527 249.365, 519.260 195.964, 517.388 189 C 511.194 165.950, 496.991 133.554, 484.984 115.089 C 473.720 97.765, 458.597 81.391, 444.944 71.737 C 435.527 65.078, 420.981 58.364, 410 55.607 C 400.682 53.268, 384.489 51.841, 376.500 52.655 M 379.268 152.965 C 374.215 155.259, 366.333 162.424, 360.530 170 C 355.695 176.313, 345.566 192.899, 346.175 193.508 C 347.246 194.579, 410 185.016, 410 183.782 C 410 179.900, 396.522 159.459, 390.646 154.429 C 386.031 150.479, 385.029 150.350, 379.268 152.965 M 488 270.046 C 441.010 280.389, 380.047 289.981, 327 295.380 L 313.500 296.754 327.500 296.837 C 348.581 296.962, 362.935 300.301, 377.476 308.462 C 388.480 314.638, 400.423 326.428, 407.124 337.728 L 409.631 341.956 420.566 332.853 C 448.003 310.010, 474.850 289.468, 495.500 275.517 C 502.650 270.686, 508.688 266.569, 508.917 266.367 C 509.938 265.468, 504.288 266.462, 488 270.046 M 788.290 286.013 C 776.407 291.951, 761.062 309.113, 748.402 330.622 C 737.156 349.732, 720.822 386.318, 724.442 384.293 C 725.230 383.852, 732.674 377.246, 740.985 369.613 C 764.224 348.270, 783.839 326.627, 795.917 309 C 801.994 300.132, 808 289.040, 808 286.687 C 808 285.139, 801.787 283, 797.294 283 C 795.658 283, 791.606 284.356, 788.290 286.013 " stroke="none" fill="black" fill-rule="evenodd"/>
</svg>