<svg xmlns="http://www.w3.org/2000/svg" width="1000" height="1000" viewBox="0 0 1000 1000" version="1.1">
	<path d="M 316 106.694 C 290.975 115.265, 270.399 122.354, 270.275 122.447 C 270.151 122.540, 272.325 129.790, 275.105 138.558 C 281.922 160.061, 293.537 200.949, 299.972 226.096 L 305.242 246.693 299.313 252.596 C 296.051 255.843, 290.621 261.576, 287.245 265.336 L 281.107 272.173 274.303 266.704 C 255.855 251.875, 235.834 242.111, 216.312 238.423 C 203.969 236.092, 185.921 236.942, 173 240.463 C 136.854 250.315, 108.610 276.668, 95.709 312.581 C 90.358 327.475, 88.519 339.033, 88.561 357.500 C 88.614 380.824, 92.301 397.574, 101.455 416.084 C 115.642 444.770, 138.710 464.301, 166.500 471.155 C 177.285 473.816, 195.679 474.254, 206.500 472.109 C 228.730 467.702, 252.383 455, 274.204 435.750 C 277.789 432.587, 280.965 430, 281.263 430 C 282.282 430, 297.422 456.483, 306.965 474.958 L 316.500 493.415 365 504.116 C 391.675 510.001, 413.786 514.520, 414.135 514.158 C 414.656 513.618, 421.896 473.612, 422.045 470.451 C 422.069 469.928, 423.120 472.650, 424.380 476.500 C 427.712 486.686, 432.115 494.781, 438.929 503.251 C 467.784 539.121, 532.182 558.896, 638.092 564.410 L 648.683 564.962 649.342 543.820 C 649.704 532.191, 650 509.925, 650 494.339 L 650 466 647.250 465.985 C 645.737 465.976, 637.750 465.524, 629.500 464.980 C 600.707 463.082, 572.397 459.292, 553.503 454.806 L 544.500 452.668 550.500 450.810 C 575.376 443.108, 609.819 436.185, 688.500 423.074 C 767.765 409.866, 788.007 405.704, 813.369 397.400 C 834.457 390.495, 849.732 381.877, 862.900 369.455 C 877.211 355.955, 887.604 338.492, 892.645 319.477 C 894.926 310.870, 895.303 307.371, 895.391 294 C 895.501 277.277, 894.246 268.998, 889.372 254.308 C 885.791 243.514, 878.223 228.630, 870.769 217.718 C 863.782 207.489, 848.173 190.735, 837.500 182.006 C 807.323 157.327, 767.307 141.266, 725.142 136.911 C 710.359 135.383, 675.597 136.242, 663.500 138.433 C 608.855 148.332, 566.977 177.131, 524.169 234.250 C 518.914 241.262, 514.292 247, 513.899 247 C 513.505 247, 510.764 245.029, 507.806 242.620 C 499.918 236.194, 488.433 228.910, 478.665 224.138 C 455.986 213.058, 424.216 205.016, 403.026 204.993 L 396.500 204.985 391.078 184.243 C 380.637 144.294, 364.329 90.966, 362.581 91.055 C 361.986 91.085, 341.025 98.122, 316 106.694 M 687.311 235.050 C 675.123 236.196, 667.213 238.309, 657.316 243.062 C 634.576 253.984, 613.308 276.745, 582.242 323.404 C 574.950 334.356, 569.124 343.458, 569.296 343.630 C 569.468 343.802, 578.711 342.161, 589.836 339.983 C 600.960 337.806, 636.936 331.543, 669.781 326.066 C 758.831 311.217, 787.500 304.773, 794.814 297.959 C 799.144 293.924, 796.711 283.954, 788.633 272.634 C 769.956 246.461, 728.701 231.158, 687.311 235.050 M 418.320 309.141 C 419.579 314.161, 423.977 349.336, 425.428 366 C 426.267 375.625, 427.076 391.667, 427.226 401.650 C 427.377 411.632, 427.565 419.732, 427.643 419.650 C 427.722 419.567, 430.536 415.378, 433.897 410.341 C 444.292 394.756, 459.242 382.686, 481.898 371.585 L 493.296 366 486.898 365.978 L 480.500 365.956 469.500 349.267 C 457.761 331.457, 448.843 321.033, 441.088 316.056 C 435.807 312.667, 426.381 308.632, 421.114 307.506 C 417.922 306.823, 417.762 306.917, 418.320 309.141 M 192.506 339.425 C 188.782 343.374, 187 349.308, 187 357.761 C 187 363.602, 189.429 374.009, 190.789 373.991 C 191.180 373.985, 193.924 372.591, 196.887 370.892 C 201.741 368.109, 220.068 351.594, 219.953 350.107 C 219.874 349.101, 209.750 341.311, 204.969 338.578 C 198.934 335.129, 196.395 335.301, 192.506 339.425 M 455.500 588.414 L 407.500 596.631 407.850 599.066 C 408.043 600.405, 409.334 605.100, 410.719 609.500 C 415.129 623.509, 423.977 639.352, 434.449 651.993 C 436.952 655.014, 439 657.796, 439 658.176 C 439 658.555, 437.988 659.177, 436.750 659.558 C 431.581 661.149, 407.741 673.094, 398 678.973 C 375.175 692.748, 358.795 706.808, 346.397 723.267 C 321.054 756.909, 316.603 798.738, 334.454 835.500 C 353.955 875.661, 396.718 900.513, 462.500 909.914 C 504.798 915.959, 564.943 915.253, 629 907.959 C 664.059 903.967, 728.810 893.524, 730.792 891.541 C 731.183 891.151, 711.167 797.109, 710.438 795.910 C 710.241 795.586, 703.454 796.598, 695.356 798.160 C 661.363 804.717, 615.054 810.759, 577.016 813.602 C 550.325 815.596, 495.576 815.076, 479 812.670 C 443.107 807.460, 419.987 797.158, 422.421 787.459 C 424.088 780.818, 440.942 767.078, 457.863 758.565 C 499.911 737.412, 570.250 718.158, 633.500 710.487 C 651.542 708.298, 674.839 704.590, 675.466 703.806 C 675.601 703.638, 672.502 681.900, 668.579 655.500 L 661.447 607.500 654.440 607.686 C 650.586 607.788, 637.985 609.251, 626.439 610.936 C 585.478 616.914, 552.704 614.283, 529.472 603.152 C 520.569 598.886, 510.377 590.222, 506.823 583.899 C 505.618 581.755, 504.377 580.044, 504.066 580.098 C 503.755 580.152, 481.900 583.894, 455.500 588.414 " stroke="none" fill="black" fill-rule="evenodd"/>
</svg>