<svg xmlns="http://www.w3.org/2000/svg" width="1000" height="1000" viewBox="0 0 1000 1000" version="1.1">
	<path d="M 312.061 75.250 C 308.064 88.832, 291.946 137.462, 287.405 149.644 L 282.877 161.788 276.375 163.421 C 254.228 168.984, 239.366 170.471, 220.628 168.999 C 197.086 167.148, 168.638 161.280, 146.067 153.618 C 136.950 150.524, 135.812 150.335, 135.268 151.830 C 134.933 152.748, 126.870 173.286, 117.349 197.469 C 107.829 221.653, 100.368 241.735, 100.769 242.096 C 102.163 243.349, 113.585 247.197, 130.492 252.108 C 158.542 260.256, 189.806 265.965, 216.248 267.767 L 226.997 268.500 208.382 294.500 C 186.328 325.305, 170.716 346.616, 139.510 388.513 C 126.806 405.569, 116.097 420.034, 115.712 420.657 C 115.276 421.363, 129.386 432.601, 153.256 450.556 C 174.290 466.379, 192.012 479.714, 192.638 480.191 C 193.409 480.779, 201.107 471.150, 216.551 450.279 C 229.077 433.351, 240.041 418.751, 240.913 417.836 C 242.385 416.293, 244.242 417.010, 266.500 427.704 C 279.700 434.047, 295.610 441.429, 301.854 444.109 C 324.121 453.665, 331.534 459.243, 357.531 486 C 370.550 499.401, 378.063 506.418, 379.224 506.262 C 380.878 506.040, 381 507.504, 381 527.512 C 381 539.330, 381.297 549, 381.660 549 C 382.023 549, 393.338 551.037, 406.803 553.526 C 440.578 559.770, 453.229 561.091, 485 561.692 C 505.649 562.082, 522.465 561.684, 552.500 560.093 C 574.500 558.927, 600.952 557.590, 611.282 557.121 C 621.612 556.653, 630.350 555.983, 630.699 555.635 C 631.332 555.002, 629.411 492.891, 628.406 481.500 L 627.877 475.500 647.688 466.530 C 716.149 435.532, 776.792 401.577, 817 371.727 C 874.401 329.115, 902.641 288.620, 904.682 246 C 905.850 221.607, 899.138 200.846, 883.082 179.192 C 863.067 152.197, 837.095 134.155, 807.171 126.458 C 764.328 115.438, 714.674 125.686, 659.928 156.849 L 644.608 165.569 604.554 148.774 C 582.524 139.537, 563.768 131.746, 562.874 131.462 C 561.879 131.145, 561.035 131.634, 560.699 132.722 C 560.398 133.700, 557.604 141.700, 554.491 150.500 C 548.342 167.883, 542.113 191.050, 539.606 205.863 C 534.001 238.984, 538.682 269.617, 552.539 290.493 C 555.974 295.668, 592.880 332, 594.702 332 C 595.572 332, 629.685 302.865, 643.634 290.209 C 681.560 255.796, 727.409 228.638, 758.064 222.427 C 768.870 220.237, 780.605 220.841, 787.742 223.953 C 793.524 226.475, 806 238.689, 806 241.828 C 806 242.812, 804.410 246.259, 802.466 249.487 C 779.781 287.159, 690.138 341.964, 562 396.502 C 523.881 412.726, 444.277 443.610, 443.243 442.577 C 443.050 442.383, 446.442 437.562, 450.782 431.862 C 484.715 387.304, 507.373 337.042, 514.509 290.500 C 516.797 275.577, 517.586 247.691, 516.062 235.584 C 510.106 188.265, 482.300 155.579, 438.574 144.495 C 429.032 142.077, 411.895 140, 401.479 140 L 395.304 140 401.572 120.002 C 405.020 109.003, 408.118 98.741, 408.457 97.198 L 409.073 94.392 362.286 81.171 C 336.554 73.900, 315.206 67.962, 314.847 67.975 C 314.488 67.989, 313.235 71.263, 312.061 75.250 M 385.183 240.016 C 372.455 241.784, 355.825 245.275, 354.907 246.373 C 354.389 246.993, 351.231 253.125, 347.890 260 C 338.218 279.902, 328.333 295.849, 305.593 328.237 L 300.863 334.975 311.682 340.083 C 317.632 342.892, 330.825 348.912, 341 353.461 C 351.175 358.009, 362.630 363.561, 366.455 365.798 C 370.280 368.035, 373.778 369.637, 374.229 369.359 C 375.609 368.506, 386.383 352.063, 392.439 341.568 C 403.163 322.980, 411.574 301.727, 415.617 283 C 417.869 272.565, 418.318 242.926, 416.255 240.858 C 414.709 239.308, 394.266 238.755, 385.183 240.016 M 646.500 555.098 C 540.737 585.920, 442.227 607, 403.949 607 C 394.813 607, 392.698 606.675, 388.724 604.664 C 386.186 603.379, 384.197 602.801, 384.305 603.380 C 384.475 604.299, 359.594 608.438, 299.750 617.448 C 288.692 619.113, 288 619.352, 288 621.503 C 288 625.644, 292.125 637.351, 296.759 646.360 C 311.721 675.450, 339.531 696.031, 373.361 703.051 C 378.235 704.062, 382.387 705.053, 382.587 705.253 C 382.787 705.453, 374.974 711.270, 365.225 718.180 C 355.476 725.090, 321.625 749.089, 290 771.512 C 258.375 793.935, 213.488 825.746, 190.250 842.204 C 167.012 858.662, 148 872.514, 148 872.987 C 148 873.747, 207.992 959.316, 209.903 961.282 C 210.322 961.712, 221.202 953.195, 234.082 942.355 C 259.977 920.561, 269.039 913.627, 289 900.330 C 356.887 855.105, 427.794 828.129, 489.664 823.989 C 574.236 818.330, 678.551 861.346, 759.280 935.170 L 768.059 943.198 775.298 936.349 C 779.279 932.582, 795.241 917.636, 810.768 903.136 C 826.296 888.636, 839 876.433, 839 876.017 C 839 874.805, 818.381 855.256, 807.489 846.141 C 735.500 785.896, 651.922 745.370, 570.130 731.049 C 560.983 729.447, 550.800 727.768, 547.500 727.317 L 541.500 726.496 563 714.867 C 591.372 699.521, 636.657 675.774, 672.250 657.578 C 688.063 649.495, 701 642.572, 701 642.195 C 701 640.895, 664.499 550.026, 664 550.085 C 663.725 550.117, 655.850 552.373, 646.500 555.098 " stroke="none" fill="black" fill-rule="evenodd"/>
</svg>