<svg xmlns="http://www.w3.org/2000/svg" width="1000" height="1000" viewBox="0 0 1000 1000" version="1.1">
	<path d="M 522.442 80.466 C 509.760 83.388, 497.373 90.006, 487.428 99.173 C 466.550 118.418, 451.418 156.158, 442.842 210.377 L 440.647 224.254 433.848 223.623 C 412.983 221.683, 374.037 207.987, 346.685 192.969 C 339.983 189.289, 334.187 186.553, 333.805 186.889 C 332.674 187.884, 281.921 267.197, 281.702 268.314 C 281.412 269.782, 292.128 276.132, 310 285.084 C 347.601 303.919, 382.840 315.646, 418.369 321.150 L 433 323.416 433.002 350.458 C 433.004 393.618, 435.646 437.687, 440.065 468.289 C 441.161 475.873, 446.535 503.840, 452.008 530.439 C 466.264 599.722, 473.885 643.589, 476.583 671.906 L 477.289 679.311 472.395 678.637 C 469.703 678.266, 462.100 677.201, 455.500 676.269 C 446.433 674.990, 436.412 674.579, 414.500 674.588 C 389.451 674.598, 383.544 674.904, 371.144 676.838 C 323.697 684.236, 287.462 700.639, 261.436 726.500 C 245.449 742.386, 235.749 758.888, 230.794 778.625 C 227.713 790.898, 227.751 811.800, 230.875 823.500 C 241.890 864.756, 276.736 891.111, 330 898.472 C 343.490 900.336, 373.389 900.587, 389 898.967 C 428.178 894.901, 469.779 882.646, 499.884 866.301 C 523.075 853.710, 544.125 835.895, 554.897 819.743 L 560.071 811.985 563.285 813.629 C 587.598 826.063, 625.123 851.716, 650.339 873.141 C 655.750 877.738, 661.600 882.679, 663.339 884.121 L 666.500 886.742 699.437 850.202 L 732.375 813.663 727.572 809.315 C 690.294 775.564, 641.651 742.317, 597.396 720.339 L 578.291 710.851 577.616 697.676 C 575.167 649.889, 568.078 603.803, 549.009 511.702 C 544.021 487.614, 539.087 462.189, 538.044 455.202 C 533.814 426.874, 532.034 395.009, 532.015 347.289 L 532 311.077 536.250 309.936 C 558.225 304.036, 590.540 293.712, 613.500 285.256 C 627.767 280.002, 678.706 257.797, 680.070 256.238 C 680.701 255.517, 668.521 210.172, 664.006 196.432 C 657.753 177.401, 643.470 149.366, 631.200 132.037 C 622.854 120.251, 606.972 104.187, 596.727 97.172 C 587.336 90.740, 575.137 84.901, 565 81.984 C 555.297 79.193, 531.634 78.349, 522.442 80.466 M 548.116 190.250 C 546.614 194.298, 544.763 203.096, 545.299 203.633 C 546.166 204.499, 557 200.722, 557 199.554 C 557 198.352, 550.235 188, 549.449 188 C 549.175 188, 548.575 189.012, 548.116 190.250 M 392 773.651 C 371.563 776.750, 356.386 780.785, 346.500 785.748 C 340.440 788.790, 330 795.977, 330 797.106 C 330 798.357, 336.464 799.822, 347.500 801.071 C 376.254 804.325, 421.549 795.331, 450.937 780.532 C 454.934 778.519, 458.046 776.716, 457.852 776.526 C 457.659 776.336, 451.632 775.465, 444.460 774.590 C 432.662 773.152, 399.240 772.554, 392 773.651 " stroke="none" fill="black" fill-rule="evenodd"/>
</svg>