<svg xmlns="http://www.w3.org/2000/svg" width="1000" height="1000" viewBox="0 0 1000 1000" version="1.1">
	<path d="M 269.633 102.064 C 244.407 109.674, 223.593 116.074, 223.381 116.286 C 223.168 116.498, 224.983 124.122, 227.413 133.228 C 241.374 185.548, 254.220 249.310, 262.998 309.859 C 265.199 325.041, 267 337.808, 267 338.231 C 267 339.350, 236.630 339.172, 220.950 337.961 C 195.102 335.963, 169.741 331.990, 146.739 326.334 C 140.821 324.879, 135.807 323.871, 135.597 324.094 C 134.970 324.761, 106 415.262, 106 416.553 C 106 418.621, 139.932 426.740, 166.392 431.004 C 196.625 435.876, 236.136 438.636, 260.594 437.583 L 275.688 436.933 276.340 449.717 C 276.699 456.747, 276.963 480.725, 276.928 503 L 276.864 543.500 232.586 587.219 L 188.307 630.939 149.913 617.469 C 128.796 610.061, 110.971 604, 110.302 604 C 109.611 604, 106.663 611.448, 103.475 621.250 C 87.071 671.677, 82.070 695.824, 76.600 751 C 72.295 794.436, 72.463 789.840, 75.153 790.415 C 76.444 790.691, 96.125 792.551, 118.888 794.549 L 160.276 798.181 168.675 789.840 L 177.074 781.500 192.787 797.522 C 219.610 824.873, 242.116 851.682, 273.905 894.149 L 294.601 921.798 332.551 898.843 C 353.423 886.217, 371.044 875.567, 371.708 875.177 C 372.636 874.632, 373.165 840.798, 373.984 729.484 L 375.052 584.500 407.526 552.032 C 425.387 534.174, 440 519.356, 440 519.102 C 440 518.849, 425.375 503.918, 407.500 485.924 L 375 453.207 375 448.260 C 375 445.540, 374.709 437.902, 374.353 431.288 L 373.707 419.262 382.103 416.491 C 401.365 410.135, 427.099 398.061, 445.326 386.827 L 453.151 382.004 457.903 387.252 C 489.161 421.778, 493.045 425.804, 494.721 425.423 C 497.768 424.730, 558.186 418.184, 586 415.534 C 621.071 412.192, 658.456 409.326, 685.500 407.906 C 741.234 404.980, 806.957 411.074, 861.270 424.205 C 868.294 425.903, 874.246 427.087, 874.497 426.836 C 874.748 426.585, 881.279 405.932, 889.010 380.940 C 896.741 355.948, 903.246 334.979, 903.466 334.342 C 904.547 331.217, 846.932 319.216, 806 314.040 C 751.268 307.118, 693.296 306.933, 618.500 313.440 C 610.250 314.158, 603.352 314.617, 603.170 314.460 C 602.989 314.303, 606.783 308.847, 611.601 302.337 C 622.725 287.306, 638.794 263.685, 647.544 249.500 C 667.466 217.209, 679.691 182.155, 684.571 143.334 C 686.073 131.390, 687.122 95.707, 686 94.747 C 685.648 94.446, 589.311 102.551, 588.405 102.957 C 588.353 102.981, 588.018 108.963, 587.661 116.250 C 586.192 146.232, 579.707 169.785, 566.806 192 C 545.201 229.201, 493.166 297.032, 445.855 349.669 L 442.108 353.838 422.908 325.669 C 412.348 310.176, 403.590 297.354, 403.445 297.175 C 403.301 296.996, 398.529 299.663, 392.841 303.103 C 387.154 306.542, 378.450 311.256, 373.500 313.576 C 363.269 318.374, 363.752 318.598, 362.570 308.500 C 359.573 282.898, 348.337 218.456, 340.439 181.570 C 331.425 139.478, 318.247 87.929, 316.547 88.114 C 315.971 88.176, 294.860 94.454, 269.633 102.064 M 549.856 458.759 C 544.763 466.784, 543.139 470.213, 539.913 479.756 C 532.504 501.675, 533.763 525.578, 543.482 547.555 C 552.802 568.629, 574.633 590.270, 601.774 605.341 C 611.127 610.535, 628.313 618.538, 632.216 619.518 C 634.521 620.097, 635.130 618.732, 651.751 575.808 C 661.187 551.438, 669.167 530.800, 669.485 529.945 C 669.927 528.760, 668.165 527.607, 662.057 525.085 C 652.796 521.261, 640.906 514.200, 636.328 509.804 L 633.156 506.759 632.828 509.629 C 632.607 511.567, 631.962 512.460, 630.846 512.377 C 629.936 512.310, 612.314 498.922, 591.686 482.627 C 571.058 466.332, 554.027 453.004, 553.840 453.009 C 553.653 453.014, 551.860 455.601, 549.856 458.759 M 532.247 626.824 C 522.475 639.946, 515.058 658.481, 512.968 674.999 C 508.595 709.548, 525.146 746.653, 556.777 773.219 C 561.025 776.787, 572.600 785.470, 582.500 792.516 C 607.688 810.441, 622.214 822.290, 638.794 838.433 C 666.133 865.052, 681.312 887.095, 696.571 922.336 C 698.992 927.926, 701.541 932.452, 702.236 932.394 C 703.950 932.251, 790.262 896.918, 791.415 895.888 C 792.570 894.856, 789.076 886.394, 778.458 864.500 C 750.081 805.987, 711.100 762.915, 642.010 713.728 C 622.348 699.731, 614.729 693.310, 612.370 688.749 C 611.570 687.201, 610.514 686.183, 610.023 686.486 C 609.533 686.789, 593.446 672.741, 574.275 655.268 C 555.104 637.796, 538.756 622.971, 537.946 622.324 C 536.734 621.356, 535.726 622.152, 532.247 626.824 M 260.896 698.750 L 247.319 712.500 261.159 726.341 L 275 740.182 275 712.591 C 275 697.416, 274.881 685, 274.737 685 C 274.592 685, 268.363 691.188, 260.896 698.750 " stroke="none" fill="black" fill-rule="evenodd"/>
</svg>