<svg xmlns="http://www.w3.org/2000/svg" width="1000" height="1000" viewBox="0 0 1000 1000" version="1.1">
	<path d="M 517.500 84.613 C 495.616 86.816, 480.244 89.921, 445.584 99.141 C 409.699 108.687, 390.025 113.562, 380 115.392 C 359.954 119.051, 322.723 122.438, 289.750 123.601 L 270 124.297 270 173.782 L 270 223.267 286.750 222.595 C 331.288 220.809, 366.411 217.755, 391.877 213.456 C 408.277 210.687, 428.215 205.955, 467.830 195.430 C 481.398 191.825, 493.400 188.640, 494.500 188.351 C 497.009 187.692, 490.941 193.229, 477.500 203.863 C 462.194 215.972, 447.017 226.514, 429.202 237.409 C 413.928 246.751, 412.999 247.495, 412.980 250.409 C 412.928 258.382, 417.355 336.579, 417.891 337.159 C 418.226 337.521, 430.729 338.534, 445.677 339.410 C 492.759 342.168, 528.130 350.093, 556.500 364.240 C 573.098 372.517, 586.923 384.048, 591.867 393.739 C 597.100 403.997, 598.739 425.250, 595.177 436.661 C 589.531 454.750, 572.081 468.248, 543.811 476.396 C 524.694 481.905, 495.483 483.644, 474.689 480.509 C 442.478 475.654, 409.405 464.671, 391.896 453.015 C 388.288 450.613, 377.001 440.152, 366 429.013 C 345.679 408.439, 339.750 403.757, 319.267 392.117 C 303.327 383.057, 253.374 359.991, 249.725 360.005 C 248.655 360.009, 212.964 448.063, 213.022 450.556 C 213.034 451.075, 218.896 453.926, 226.050 456.890 C 233.203 459.855, 239.296 462.670, 239.590 463.145 C 240.270 464.246, 243.276 490.259, 245.930 518 C 252.891 590.776, 254.203 645.831, 249.981 688 C 244.635 741.406, 234.413 796.927, 219.281 854.753 C 215.646 868.642, 212.859 880.169, 213.086 880.368 C 213.916 881.094, 289.806 923.988, 291.223 924.532 C 292.223 924.916, 297.055 919.653, 306.586 907.796 C 325.865 883.815, 338.552 869.508, 359.500 848.128 C 435.228 770.838, 512.631 719.001, 579.886 700.537 C 598.444 695.442, 608.546 693.905, 627.500 693.294 C 673.910 691.798, 700.987 704.705, 716.048 735.500 C 725.603 755.037, 729.306 775.143, 729.310 807.500 C 729.312 829.665, 727.909 845.554, 724.338 863.775 C 723.446 868.326, 722.893 872.225, 723.108 872.438 C 723.504 872.831, 812.840 895.535, 816.454 896.161 C 818.840 896.575, 819.790 892.939, 823.427 869.500 C 827.074 845.994, 828.110 832.134, 828.100 807 C 828.087 776.641, 826.075 758.527, 819.993 734 C 802.747 664.459, 757.441 617.559, 691.500 600.984 C 671.103 595.858, 658.912 594.548, 632 594.593 C 605.707 594.638, 592.273 596.099, 568.554 601.494 C 502.310 616.562, 428.860 656.258, 357.695 715.451 C 345.223 725.825, 344.905 726.016, 345.445 722.801 C 346.424 716.973, 348.945 690.944, 349.978 676 C 351.953 647.426, 351.050 590.287, 348.043 553.511 C 347.548 547.468, 347.289 542.377, 347.467 542.199 C 347.645 542.022, 351.550 543.908, 356.145 546.391 C 384.838 561.895, 434.379 575.871, 475.478 580.055 C 490.373 581.572, 523.355 580.758, 538 578.513 C 635.360 563.586, 696.051 503.072, 695.976 421 C 695.922 362.485, 670.843 318.495, 619 285.979 C 608.559 279.430, 587.892 269.454, 574.500 264.499 C 569 262.464, 564.399 260.706, 564.277 260.593 C 564.154 260.479, 568.576 255.687, 574.103 249.943 C 596.965 226.187, 609.228 206.540, 615.154 184.175 C 617.892 173.841, 618.078 156.282, 615.554 146.500 C 607.673 115.958, 583.154 93.246, 550.970 86.673 C 543.120 85.070, 524.405 83.918, 517.500 84.613 " stroke="none" fill="black" fill-rule="evenodd"/>
</svg>