<svg xmlns="http://www.w3.org/2000/svg" width="1000" height="1000" viewBox="0 0 1000 1000" version="1.1">
	<path d="M 670.500 65.590 C 638.819 70.167, 618.084 76.941, 584.852 93.568 C 555.915 108.046, 527.101 126.205, 494.768 150.341 C 485.341 157.379, 480.333 161.728, 480.860 162.419 C 481.313 163.014, 495.322 180.263, 511.989 200.750 C 531.828 225.136, 542.675 237.710, 543.397 237.158 C 585.640 204.892, 624.257 181.697, 654.234 170.587 C 664.637 166.731, 675.970 164, 681.565 164 C 684.890 164, 685 164.125, 685 167.891 C 685 170.030, 683.904 175.993, 682.565 181.141 C 666.263 243.792, 576.914 380.175, 448.316 538.702 C 439.483 549.591, 432.161 558.882, 432.046 559.348 C 431.930 559.814, 448.635 574.335, 469.168 591.616 L 506.500 623.036 509.872 619.268 C 516.520 611.839, 568.870 545.984, 587.500 521.614 L 606.500 496.759 607.385 511.630 C 608.463 529.745, 606.881 562.431, 603.953 582.500 C 597.939 623.729, 584.867 660.301, 566.244 688 C 544.917 719.720, 506.110 763.252, 444.870 824.152 L 406.002 862.804 440.203 900.652 C 459.014 921.468, 474.921 938.500, 475.552 938.500 C 476.183 938.500, 487.039 927.475, 499.677 914 C 546.196 864.400, 588.291 830.143, 629.323 808.495 C 659.089 792.790, 680.741 788.378, 698.500 794.398 C 710.148 798.347, 727.761 807.038, 738.839 814.303 C 769.745 834.571, 804.088 869.858, 825.859 903.717 C 828.412 907.686, 830.791 910.949, 831.148 910.967 C 831.687 910.994, 866.698 890.795, 906.763 867.341 C 917.531 861.038, 917.538 863.212, 906.695 847 C 869.182 790.911, 817.173 742.358, 766.963 716.551 C 736.906 701.103, 709.176 693, 686.369 693 C 680.666 693, 676 692.787, 676 692.526 C 676 692.265, 677.288 688.778, 678.863 684.776 C 680.438 680.774, 682.462 675.250, 683.362 672.500 C 684.809 668.081, 685.346 667.476, 687.983 667.292 C 693.074 666.936, 715.869 661.025, 729.500 656.526 C 768.727 643.578, 798.759 625.656, 824 600.129 C 852.197 571.613, 868.626 539.280, 876.150 497.500 C 878.228 485.960, 878.489 481.469, 878.481 457.500 C 878.470 428.090, 877.190 416.347, 870.994 388.829 C 860.635 342.816, 847.818 318.073, 824.698 299.457 C 807.751 285.810, 786.898 278.267, 763.384 277.278 L 750.269 276.727 757.007 262.113 C 766.152 242.279, 772.432 226.135, 776.499 212.004 C 782.263 191.978, 783.432 184.233, 783.366 166.500 C 783.315 152.648, 782.966 149.225, 780.768 141 C 770.659 103.175, 744.393 76.872, 707.863 67.990 C 699.745 66.017, 677.457 64.585, 670.500 65.590 M 206.515 102.137 C 206.235 102.886, 202.668 117.675, 198.588 135 C 166.234 272.390, 142.207 408.356, 133.560 503 C 129.847 543.644, 129.520 551.465, 129.552 599 C 129.614 693.195, 137.772 784.537, 152.639 857.500 C 155.517 871.625, 170.478 929.715, 171.527 930.838 C 171.700 931.024, 192.592 925.736, 217.953 919.088 C 243.313 912.440, 264.219 907, 264.409 907 C 264.599 907, 264.992 891.813, 265.282 873.250 C 265.932 831.603, 268.568 805.924, 276.087 768 C 287.414 710.872, 307.050 656.772, 331.398 615.615 C 333.963 611.278, 335.936 607.604, 335.781 607.451 C 335.089 606.768, 253.010 556, 252.597 556 C 251.799 556, 242.220 572.342, 234.892 586.206 L 227.865 599.500 228.393 573 C 229.190 533.068, 233.068 491.611, 241.584 432 C 253.078 351.538, 272.487 251.621, 295.651 153.666 C 299.271 138.358, 301.843 125.495, 301.366 125.081 C 300.890 124.668, 280.250 119.232, 255.500 113 C 230.750 106.769, 209.718 101.469, 208.762 101.222 C 207.806 100.975, 206.795 101.387, 206.515 102.137 M 751.315 375.998 C 734.421 378.498, 710.356 389.490, 684.036 406.729 C 661.669 421.378, 659.841 423.052, 648.232 439.497 C 642.407 447.748, 633.227 460.462, 627.833 467.750 C 622.439 475.038, 618.386 481, 618.826 481 C 619.266 481, 627.697 479.685, 637.563 478.079 C 678.841 471.357, 702.150 467.817, 702.544 468.211 C 704.104 469.771, 706.094 504.134, 706.140 530.287 L 706.191 560.074 708.346 559.408 C 714.087 557.633, 730.138 549.427, 737.668 544.417 C 778.882 516.994, 790.119 470.721, 772.433 401.257 C 769.023 387.863, 765.726 378.822, 763.640 377.147 C 761.768 375.643, 756.829 375.183, 751.315 375.998 " stroke="none" fill="black" fill-rule="evenodd"/>
</svg>