<svg xmlns="http://www.w3.org/2000/svg" width="1000" height="1000" viewBox="0 0 1000 1000" version="1.1">
	<path d="M 332.226 103.272 L 308.953 146.500 321.726 152.711 C 368.709 175.557, 429.076 192.917, 481.500 198.656 C 501.249 200.818, 537.839 200.823, 555.518 198.665 C 567.179 197.242, 588.852 193.492, 589.549 192.778 C 589.698 192.625, 584.798 170.983, 578.660 144.685 L 567.500 96.869 564.500 97.479 C 542.676 101.916, 507.224 102.863, 484.088 99.628 C 444.285 94.061, 398.461 80.340, 364.596 63.849 C 360.249 61.732, 356.424 60.010, 356.096 60.022 C 355.768 60.034, 345.027 79.497, 332.226 103.272 M 238.246 191.843 C 237.836 193.304, 237.506 203.275, 237.513 214 C 237.524 232.141, 237.715 234.182, 240.248 243.283 C 248.407 272.603, 264.635 292.650, 290.178 304.962 L 299.856 309.627 286.678 318.028 C 257.299 336.758, 199.701 370.904, 140 404.984 C 124.325 413.932, 111.377 421.356, 111.227 421.482 C 110.787 421.853, 155.413 519, 156.023 519 C 156.329 519, 168.036 512.005, 182.040 503.456 C 196.043 494.907, 214.025 484.610, 222 480.572 C 289.183 446.560, 378.829 418.958, 463.750 406.139 C 470.488 405.121, 476 404.442, 476 404.630 C 476 404.817, 474.602 407.243, 472.892 410.020 C 463.328 425.565, 455.468 454.505, 453.411 481.753 C 452.741 490.632, 452.641 490.920, 450.045 491.490 C 448.574 491.813, 438.174 492.139, 426.935 492.214 C 408.356 492.337, 405.891 492.150, 399.792 490.148 C 390.410 487.068, 385.160 482.790, 381.500 475.242 C 378.678 469.423, 378.322 469.082, 375.500 469.507 C 373.850 469.756, 352.025 471.815, 327 474.083 C 301.975 476.352, 281.298 478.400, 281.052 478.635 C 280.247 479.404, 282.889 492.543, 285.572 501.115 C 287.016 505.727, 290.368 513.901, 293.021 519.281 C 306.824 547.265, 332.720 570.860, 360.781 581.017 C 364.235 582.267, 367.241 583.581, 367.461 583.936 C 367.680 584.292, 363.279 586.548, 357.680 588.951 C 333.792 599.202, 307.088 613.708, 288 626.802 C 242.812 657.799, 225.828 684.073, 225.813 723 C 225.803 750.339, 235.497 778.061, 255.578 808.116 C 292.438 863.286, 359.975 915.133, 416.102 931.349 C 459.034 943.753, 497.476 935.826, 524.036 909.092 C 544.300 888.696, 554.013 862.931, 556.585 822.750 C 556.963 816.837, 557.359 812, 557.463 812 C 557.568 812, 564.819 813.371, 573.577 815.046 C 604.660 820.991, 628.307 828.175, 647.500 837.504 C 662.921 845, 672.986 852.025, 683.633 862.725 L 692.812 871.950 731.886 842.344 L 770.961 812.738 767.799 808.619 C 761.843 800.858, 739.503 779.416, 730 772.339 C 692.146 744.148, 644.076 726.379, 575 715.042 C 564.825 713.372, 555.038 711.759, 553.250 711.457 C 551.462 711.156, 550.013 710.367, 550.028 709.705 C 550.044 709.042, 554.656 705.595, 560.278 702.045 C 578.920 690.274, 594.662 672.125, 599.906 656.358 C 607.149 634.579, 604.055 613.858, 590.520 593.495 C 587.594 589.092, 584.254 584.635, 583.100 583.590 C 580.424 581.169, 580.434 580, 583.130 580 C 587.334 580, 608.730 574.778, 620.479 570.885 C 648.817 561.495, 669.791 546.805, 682.425 527.500 C 692.706 511.792, 696.366 500.175, 696.446 483 C 696.510 469.410, 694.587 460.464, 689.004 448.381 C 681.317 431.744, 668.516 416.725, 650.548 403.262 L 640.596 395.806 646.048 396.370 C 649.047 396.680, 655.775 397.200, 661 397.524 C 698.551 399.857, 740.668 408.641, 758.842 417.930 L 762.184 419.638 754.342 423.206 C 745.488 427.236, 730.659 432.144, 720.048 434.557 C 714.268 435.872, 713.016 436.492, 713.422 437.839 C 713.697 438.753, 718.230 459.975, 723.495 485 C 728.760 510.025, 733.245 531.013, 733.460 531.640 C 734.231 533.879, 763.997 525.773, 784 517.876 C 822.618 502.631, 849.064 480.933, 861.939 453.928 C 868.247 440.699, 869.495 434.738, 869.462 418 C 869.435 404.281, 869.258 402.988, 866.175 394 C 861.174 379.421, 855.216 370.223, 842.500 357.452 C 836.450 351.376, 828.248 344.267, 824.274 341.655 C 789.613 318.873, 742.060 305.464, 674 299.280 C 658.243 297.849, 644.423 297.514, 602 297.538 C 551.396 297.567, 535.776 298.213, 503.358 301.617 L 497.217 302.262 496.643 299.381 C 496.327 297.797, 493.799 281.875, 491.026 264 C 488.252 246.125, 485.753 230.488, 485.472 229.250 L 484.962 227 460.731 226.987 C 409.432 226.958, 358.832 223.193, 338.750 217.910 C 335.214 216.979, 335 216.697, 335 212.961 C 335 210.783, 334.663 208.999, 334.250 208.998 C 333.585 208.996, 245.150 190.653, 240.746 189.603 C 239.521 189.311, 238.766 189.987, 238.246 191.843 M 554.053 473.759 C 553.409 477.467, 552.670 481.536, 552.409 482.801 C 551.870 485.422, 550.661 485.483, 570.239 481.906 C 586.540 478.928, 586.644 478.853, 579.494 475.278 C 573.880 472.470, 563.874 468.917, 557.862 467.597 C 555.293 467.033, 555.192 467.198, 554.053 473.759 M 423 669.410 C 386.187 682.285, 348.776 702.291, 327.552 720.454 L 323.604 723.833 326.118 731.222 C 334.872 756.944, 367.701 793.086, 404 816.962 C 427.068 832.135, 453.624 842.101, 455.395 836.250 C 457.003 830.933, 457.986 819.809, 457.992 806.832 L 458 792.164 449.401 787.589 C 429.753 777.137, 418.301 764.001, 411.398 744 C 409.860 739.542, 409.502 735.657, 409.513 723.500 C 409.524 709.670, 409.743 707.876, 412.320 700.500 C 415.741 690.709, 421.485 680.813, 428.648 672.369 C 431.620 668.866, 433.702 666.020, 433.276 666.044 C 432.849 666.068, 428.225 667.583, 423 669.410 " stroke="none" fill="black" fill-rule="evenodd"/>
</svg>