<svg xmlns="http://www.w3.org/2000/svg" width="1000" height="1000" viewBox="0 0 1000 1000" version="1.1">
	<path d="M 315.795 107.129 C 296.383 124.799, 280.067 139.655, 279.537 140.141 C 276.691 142.755, 326.453 187.432, 350.573 203.918 L 358.500 209.336 344.900 222.918 C 322.092 245.696, 284.598 294.573, 262.307 330.585 L 257.303 338.670 255.636 375.085 C 254.720 395.113, 253.977 413.256, 253.985 415.402 L 254 419.305 307.250 418.689 C 387.505 417.761, 447.870 414.200, 489.396 407.943 C 496.489 406.874, 502.564 406.002, 502.896 406.005 C 503.739 406.012, 501.485 407.882, 473.363 430.500 C 389.051 498.312, 301.208 558.103, 218.500 603.974 C 210.250 608.550, 203.369 612.395, 203.209 612.521 C 202.846 612.805, 189.025 697.362, 189.299 697.624 C 189.410 697.730, 207.275 702.310, 229 707.803 C 276.506 719.815, 321.780 732.361, 370.401 746.988 C 545.677 799.716, 671.054 851.938, 723.322 893.985 C 730.934 900.109, 741 910.413, 741 912.081 C 741 912.586, 741.543 913, 742.208 913 C 743.600 913, 831.098 877.082, 832.291 876.021 C 833.560 874.893, 825.475 860.133, 818.492 850.829 C 780.435 800.119, 689.469 751.088, 527.849 694.169 C 478.286 676.713, 426.327 660.242, 359.593 640.831 L 352.686 638.822 357.593 635.704 C 395.014 611.927, 431.362 586.591, 475.500 553.515 C 581.532 474.058, 630.275 428.744, 647.542 393.576 C 653.512 381.417, 655.378 373.770, 655.369 361.500 C 655.350 335.951, 641.694 316.631, 614.721 303.990 C 601.008 297.564, 591.292 295.634, 572.500 295.603 C 554.759 295.574, 551.550 295.994, 515.042 303.121 C 486.207 308.751, 469.930 311.286, 449 313.408 C 429.086 315.427, 401.211 317.277, 397.119 316.851 L 393.738 316.500 400.236 308.500 C 422.838 280.670, 455.328 257.263, 498.102 237.991 L 509.703 232.764 510.251 190.132 C 510.553 166.684, 510.727 147.420, 510.638 147.322 C 510.549 147.224, 500.132 146.641, 487.488 146.026 C 446.683 144.044, 433.649 140.531, 410.500 125.274 C 405.550 122.012, 396.967 115.725, 391.426 111.304 C 379.993 102.181, 353 77.329, 353 75.926 C 353 75.417, 352.570 75, 352.045 75 C 351.520 75, 335.208 89.458, 315.795 107.129 " stroke="none" fill="black" fill-rule="evenodd"/>
</svg>