<svg xmlns="http://www.w3.org/2000/svg" width="1000" height="1000" viewBox="0 0 1000 1000" version="1.1">
	<path d="M 345.281 66.250 C 342.003 70.500, 295.737 146.393, 295.631 147.695 C 295.541 148.790, 300.219 151.752, 310.500 157.110 C 350.784 178.105, 400.834 194.979, 444.878 202.414 C 497.728 211.337, 546.565 210.678, 595.348 200.385 C 608.613 197.586, 635.643 189.757, 637.111 188.289 C 637.716 187.684, 632.153 170.557, 621.886 141.418 C 612.988 116.163, 605.641 95.405, 605.560 95.289 C 605.479 95.174, 601.196 96.435, 596.042 98.092 C 558.939 110.024, 513.855 112.992, 469.500 106.423 C 433.480 101.088, 393.420 88.241, 358.711 70.893 C 352.227 67.652, 346.769 65, 346.583 65 C 346.397 65, 345.811 65.563, 345.281 66.250 M 380.621 240.587 C 355.387 249.023, 334.523 256.144, 334.255 256.412 C 333.987 256.680, 335.833 264.459, 338.357 273.700 C 345.359 299.330, 353.010 336.324, 351.601 337.733 C 350.507 338.826, 331.057 343.058, 320 344.608 C 306.043 346.564, 283.690 346.009, 274.500 343.478 C 262.519 340.177, 249.720 331.470, 245.336 323.636 C 244.371 321.912, 241.356 322.675, 198.199 335.560 C 172.840 343.131, 151.537 349.668, 150.859 350.087 C 149.136 351.152, 153.642 362.356, 160.248 373.438 C 194.043 430.129, 261.666 455.155, 342.703 440.962 C 348.865 439.883, 354.308 439, 354.798 439 C 355.291 439, 356.003 454.781, 356.390 474.250 C 356.775 493.637, 357.345 511.146, 357.658 513.158 L 358.226 516.817 344.363 523.873 C 301.658 545.611, 247.947 580.442, 201.500 616.517 C 149.175 657.158, 117.584 701.281, 107.360 748 C 105.882 754.755, 105.514 760.504, 105.570 776 C 105.635 793.962, 105.855 796.289, 108.354 805.500 C 111.808 818.226, 120.204 835.493, 127.915 845.726 C 147.428 871.622, 178.938 889.246, 215.277 894.589 C 230.449 896.820, 259.730 896.101, 275.650 893.108 C 330.571 882.782, 384.088 853.224, 431.719 806.909 C 437.890 800.909, 443.347 796, 443.847 796 C 444.346 796, 445.341 796.706, 446.057 797.569 C 448.736 800.796, 470.911 814.755, 482 820.194 C 502.421 830.211, 527.086 838.011, 547.969 841.058 C 555.054 842.092, 556.034 842.447, 553.969 843.229 C 548.677 845.233, 520.283 852.123, 507.895 854.408 C 500.721 855.732, 494.653 857.014, 494.410 857.256 C 493.818 857.848, 507.676 953.009, 508.469 953.802 C 509.274 954.607, 526.848 951.643, 543.898 947.827 C 616.328 931.613, 695.785 897.853, 759.443 856.245 C 807.512 824.826, 842.513 792.314, 865.947 757.315 C 886.325 726.880, 896.096 697.717, 896.165 667.123 C 896.296 608.816, 861.663 560.415, 790.560 519.536 C 739.581 490.227, 686.974 472.156, 630.281 464.479 C 609.967 461.728, 609.065 461.243, 624 461.106 C 686.637 460.533, 730.600 445.092, 753.719 415.545 C 767.462 397.981, 773.321 377.771, 770.919 356.225 C 768.437 333.969, 757.328 312.900, 738.877 295.455 C 713.986 271.921, 682.915 260.998, 640.872 261.001 C 598.653 261.004, 554.223 270.748, 475.288 297.315 L 447.232 306.758 445.042 295.629 C 440.743 273.788, 428.889 227.631, 427.128 225.874 C 426.782 225.530, 405.854 232.150, 380.621 240.587 M 627 360.115 C 613.248 361.331, 613.008 361.754, 626 361.877 C 640.369 362.013, 652.935 360.917, 648.500 359.915 C 644.581 359.029, 638.660 359.084, 627 360.115 M 555 375.482 C 529.476 382.930, 456.846 407.639, 455.847 409.213 C 455.398 409.921, 455.024 425.965, 455.015 444.867 L 455 479.233 457.250 478.593 C 466.911 475.843, 489.173 470.705, 498.805 469.002 C 505.237 467.864, 511.711 466.693, 513.191 466.400 C 515.487 465.945, 516.203 464.888, 518.076 459.184 C 519.284 455.508, 520.337 452.411, 520.416 452.303 C 520.496 452.194, 530.879 453.187, 543.490 454.510 C 556.101 455.832, 566.524 456.809, 566.653 456.681 C 566.781 456.552, 568.703 438.684, 570.923 416.974 C 573.143 395.263, 575.199 375.813, 575.492 373.750 C 575.867 371.106, 575.651 370.012, 574.762 370.041 C 574.068 370.064, 565.175 372.512, 555 375.482 M 624 564.876 C 624.001 566.638, 639.807 802.665, 640.238 807.349 L 640.500 810.198 655.411 802.536 C 684.649 787.513, 711.703 770.602, 734 753.411 C 757.452 735.330, 782.740 707.531, 791.231 690.500 C 798.173 676.574, 799.468 663.065, 794.824 653 C 787.073 636.202, 769.013 620.624, 735.847 602.129 C 702.808 583.705, 668.748 571.255, 634.750 565.175 C 624.953 563.423, 624 563.397, 624 564.876 M 465.250 579.247 C 462.254 580.208, 462.008 580.610, 462.100 584.395 C 462.322 593.545, 463.194 593.743, 467.242 585.561 C 471.114 577.736, 471.008 577.400, 465.250 579.247 M 354.927 630.789 C 323.644 649.376, 280.532 679.329, 254.500 700.564 C 242.190 710.605, 225.847 727.457, 218.968 737.202 C 207.101 754.015, 201.511 770.201, 204.067 780.350 C 207.156 792.620, 225.883 799.611, 248.940 797.103 C 291.449 792.478, 338.631 764.521, 378.572 720.291 L 387.790 710.083 384.369 699.302 C 378.502 680.814, 371.574 650.081, 368.465 628.750 C 368.084 626.138, 367.453 624, 367.063 624 C 366.673 624, 361.211 627.055, 354.927 630.789 M 527.548 681.704 C 525.391 685.442, 519.410 695.229, 514.256 703.453 L 504.886 718.405 507.193 720.211 C 515.879 727.010, 534.338 736.995, 535.701 735.632 C 536.439 734.894, 533.132 680.558, 532.145 677.204 C 531.546 675.167, 531.027 675.674, 527.548 681.704 " stroke="none" fill="black" fill-rule="evenodd"/>
</svg>