<svg xmlns="http://www.w3.org/2000/svg" width="1000" height="1000" viewBox="0 0 1000 1000" version="1.1">
	<path d="M 462.553 87.250 C 453.863 164.500, 449.540 197.001, 439.440 261.046 L 437.777 271.591 421.639 274.399 C 381.150 281.443, 333.040 296.316, 298.272 312.538 L 289.044 316.843 282.316 308.172 C 251.211 268.075, 217.323 229.592, 183.304 195.735 L 164.450 176.970 134.475 210.635 C 117.989 229.151, 103.285 245.741, 101.800 247.501 L 99.101 250.701 116.826 268.601 C 135.542 287.500, 154.564 308.288, 172.094 329 C 186.079 345.522, 204 367.928, 204 368.890 C 204 369.312, 198.948 373.897, 192.773 379.079 C 177.596 391.815, 155.726 413.788, 142.985 429.102 C 121.990 454.336, 108.219 475.520, 93.970 504.500 C 77.100 538.813, 68.051 567.243, 62.299 604 C 59.678 620.752, 59.720 668.472, 62.371 685.500 C 71.165 741.992, 91.925 782.529, 124.500 806.817 C 132.372 812.687, 150.450 821.248, 160.500 823.865 C 199.164 833.935, 242.612 823.564, 288.200 793.381 C 317.917 773.706, 352.008 741.961, 378.816 709 C 383.513 703.225, 387.661 698.137, 388.035 697.693 C 388.408 697.249, 389.751 699.724, 391.018 703.193 C 392.286 706.662, 394.183 711.862, 395.233 714.750 C 396.284 717.638, 397.590 720, 398.134 720 C 398.679 720, 413.977 714.825, 432.129 708.500 C 450.281 702.175, 465.262 697, 465.419 697 C 465.577 697, 465.965 702.288, 466.281 708.750 C 468.267 749.319, 491.380 788.709, 527 812.228 C 566.923 838.588, 618.411 843.694, 670.723 826.481 C 706.275 814.782, 734.595 793.918, 763.283 758.290 C 769.491 750.581, 785.274 727.322, 789.330 719.906 L 791.160 716.560 793.117 719.030 C 797.794 724.930, 812.186 747.212, 816.351 755 C 821.836 765.255, 827.472 779.600, 829.567 788.634 C 831.674 797.716, 831.637 809.401, 829.486 814.758 C 825.931 823.612, 813.081 831.961, 794.233 837.664 C 789.136 839.206, 785.134 840.925, 785.340 841.484 C 785.546 842.043, 790.616 863.534, 796.607 889.242 C 802.973 916.559, 807.966 935.988, 808.621 935.992 C 810.899 936.008, 830.656 929.953, 839.468 926.538 C 876.209 912.302, 904.840 887.398, 918.399 857.883 C 935.984 819.603, 933.548 773.236, 911.413 724.922 C 895.979 691.234, 869.606 653.086, 842.254 624.887 L 830.989 613.273 832.967 603.661 C 845.062 544.880, 842.740 487.429, 826.274 438.021 C 807.785 382.543, 772.608 338.863, 722.500 309.167 C 678.645 283.175, 623.857 268.821, 559.500 266.460 C 537.851 265.666, 538.601 265.882, 539.441 260.701 C 546.742 215.653, 561 104.862, 561 93.174 L 561 90.451 514.250 86.198 C 488.538 83.860, 466.520 81.958, 465.322 81.973 C 463.441 81.996, 463.063 82.716, 462.553 87.250 M 521 364.446 C 521 366.402, 510.293 414.849, 505.518 434.500 C 491.273 493.120, 474.066 546.943, 458.148 582.668 L 453.297 593.556 458.455 605.528 C 461.292 612.113, 466.223 624.055, 469.413 632.066 L 475.213 646.633 481.619 634.066 C 490.577 616.494, 499.310 604.695, 515 588.966 C 536.460 567.453, 558.693 552.174, 582.618 542.499 C 604.288 533.737, 621.323 530.105, 644.648 529.277 C 674.012 528.233, 701.128 533.272, 730.315 545.194 C 735.714 547.399, 740.439 548.895, 740.815 548.518 C 742.088 547.246, 742.229 523.739, 741.040 511.095 C 738.195 480.837, 729.994 455.903, 715.846 434.500 C 708.617 423.565, 691.741 406.874, 680.061 399.110 C 652.743 380.949, 620.098 370.698, 576.169 366.485 C 557.878 364.731, 521 363.368, 521 364.446 M 403.482 379.413 C 385.337 384.346, 352.646 395.629, 347.774 398.639 C 347.356 398.898, 349.185 402.348, 351.839 406.305 C 357.983 415.466, 378.827 449.364, 386.536 462.735 C 390.050 468.828, 392.705 472.470, 393.100 471.735 C 396.926 464.596, 418.724 375.936, 416.618 376.073 C 416.003 376.113, 410.092 377.616, 403.482 379.413 M 254.500 456.117 C 198.447 504.806, 164.581 566.434, 158.933 630.025 C 155.774 665.589, 165.858 710.704, 180.063 724.556 C 184.046 728.441, 184.216 728.498, 191.304 728.387 C 204.879 728.173, 224.196 718.857, 247.006 701.526 C 252.778 697.140, 266.061 684.990, 276.525 674.526 C 297.964 653.085, 314.264 633.199, 331.673 607.247 L 342.845 590.591 332.978 571.045 C 321.180 547.677, 305.298 519.017, 290.702 494.757 C 278.353 474.233, 263.215 450.605, 262.199 450.269 C 261.815 450.141, 258.350 452.773, 254.500 456.117 M 633.410 629.484 C 624.609 631.399, 613.505 636.281, 604.418 642.231 C 594.505 648.723, 578.389 664.229, 573.069 672.394 C 561.061 690.825, 561.503 709.827, 574.264 723.670 C 579.034 728.845, 584.247 732.112, 592.580 735.147 C 601.808 738.508, 620.149 738.299, 633.380 734.680 C 646.266 731.156, 654.338 727.221, 663.247 720.119 C 679.888 706.854, 695.244 686.932, 708.962 660.814 C 712.283 654.491, 715 648.803, 715 648.174 C 715 646.673, 694.585 636.768, 685 633.617 C 668.024 628.038, 647.584 626.400, 633.410 629.484 " stroke="none" fill="black" fill-rule="evenodd"/>
</svg>