<svg xmlns="http://www.w3.org/2000/svg" width="1000" height="1000" viewBox="0 0 1000 1000" version="1.1">
	<path d="M 613 106.518 C 573.184 117.155, 515.921 127.008, 476.551 129.996 C 454.207 131.692, 416.211 128.638, 382 122.396 C 370.618 120.319, 333.070 112.241, 326.500 110.456 C 324.644 109.951, 323.555 113.322, 311.394 157.206 C 302.563 189.071, 298.649 204.706, 299.394 205.130 C 303.429 207.429, 356.438 218.520, 382 222.412 C 414.619 227.380, 426.899 228.350, 458.193 228.427 L 487.886 228.500 485.535 231 C 391.859 330.619, 289.701 439.798, 289.327 440.693 C 288.727 442.132, 347.921 512.633, 349.357 512.189 C 349.911 512.018, 358.270 506.572, 367.932 500.087 C 396.639 480.819, 415.044 469.981, 441.744 456.621 C 497.839 428.553, 547.282 415.539, 575.280 421.471 C 587.858 424.137, 594.606 429.286, 600.287 440.555 C 605.530 450.954, 604.865 457.635, 597.008 473.500 C 589.219 489.229, 578.293 502.854, 554.072 527.046 C 519.235 561.841, 492.558 583.183, 394.500 654.710 C 332.856 699.675, 310.145 717.818, 289 738.988 C 261.128 766.893, 250.533 787.162, 250.576 812.500 C 250.606 830.962, 256.489 845.045, 270.235 859.567 C 287.115 877.399, 308.809 889.522, 339.804 898.444 C 402.336 916.442, 503.399 920.512, 613 909.444 C 653.127 905.392, 710 895.761, 710 893.017 C 710 891.864, 687.878 798.603, 687.510 798.201 C 687.359 798.036, 684.145 798.619, 680.368 799.496 C 622.543 812.923, 507.972 820.268, 439 814.972 C 412.173 812.911, 376.596 807.289, 367.879 803.732 L 364.756 802.458 371.128 796.924 C 387.807 782.439, 413.629 762.895, 485.618 710.270 C 556.988 658.099, 598.368 624.003, 630.517 590.881 C 705.969 513.143, 721.839 444.540, 679.265 380.156 C 667.992 363.107, 648.763 345.973, 630.651 336.837 C 621.537 332.240, 605.741 326.810, 595 324.581 C 582.169 321.918, 560.856 320.623, 547.500 321.694 C 540.900 322.224, 535.416 322.612, 535.312 322.557 C 535.209 322.503, 567.998 287.434, 608.176 244.627 C 674.610 173.847, 681.132 166.601, 680.173 164.648 C 679.593 163.466, 668.830 149, 656.255 132.500 C 641.314 112.895, 632.718 102.433, 631.446 102.305 C 630.376 102.198, 622.075 104.094, 613 106.518 " stroke="none" fill="black" fill-rule="evenodd"/>
</svg>