<svg xmlns="http://www.w3.org/2000/svg" width="1000" height="1000" viewBox="0 0 1000 1000" version="1.1">
	<path d="M 484.500 74.559 C 421.284 90.910, 427.756 88.905, 428.530 91.899 C 433.575 111.413, 450 188.801, 450 193.054 C 450 194.999, 419.686 190.249, 413.057 187.264 C 411.101 186.384, 408.535 185.544, 407.355 185.399 C 400.718 184.584, 378.670 172.916, 369.196 165.205 L 363.891 160.888 360.196 164.118 C 358.163 165.894, 341.713 180.873, 323.640 197.406 L 290.780 227.464 296.779 233.102 C 309.004 244.593, 326.512 256.657, 343.830 265.521 C 353.792 270.620, 354 270.957, 354 281.972 C 354 287.571, 353.856 287.866, 347.343 295.597 C 323.929 323.393, 250.981 390.363, 170.500 457.952 C 157.850 468.576, 147.352 477.650, 147.172 478.117 C 146.826 479.014, 215.949 564, 217.024 564 C 217.369 564, 226.281 554.165, 236.828 542.144 C 247.376 530.124, 260.167 516.265, 265.253 511.346 C 285.792 491.484, 323.014 464.543, 347.352 451.925 L 353.739 448.613 388.862 469.517 L 423.984 490.421 421.135 493.461 C 412.146 503.050, 404.038 517.622, 400.930 529.774 C 398.273 540.163, 398.313 555.993, 401.023 566.590 C 408.094 594.240, 427.165 614.115, 455.500 623.363 L 460.500 624.995 460.153 636.747 C 459.961 643.211, 460.298 651.164, 460.900 654.419 C 461.502 657.675, 461.808 660.525, 461.581 660.753 C 461.353 660.980, 453.592 662.037, 444.333 663.101 C 412.604 666.746, 371.352 673.905, 347 679.992 C 294.112 693.211, 259.397 719.021, 247.514 753.958 C 240.763 773.808, 242.216 795.499, 251.547 814.136 C 265.054 841.115, 286.221 857.136, 353 890.922 C 393.697 911.512, 440.549 933.185, 499.150 958.530 L 506.801 961.839 525.786 940.669 C 536.228 929.026, 546.950 916.818, 549.612 913.539 C 559.383 901.509, 571.365 882.130, 580.520 863.552 C 590.841 842.609, 597.034 825.567, 599.619 811 C 601.465 800.596, 601.988 778.714, 600.716 765.118 L 599.931 756.737 609.216 757.427 C 661.101 761.287, 713.668 770.752, 745 781.876 C 749.675 783.536, 753.773 784.580, 754.107 784.197 C 755.033 783.135, 793 696.172, 793 695.114 C 793 693.412, 766.065 684.382, 744 678.686 C 699.146 667.107, 641.050 659.285, 585.649 657.366 L 566.202 656.693 562.527 648.232 C 559.167 640.495, 558.961 639.503, 560.124 636.635 C 560.823 634.911, 566.931 627.841, 573.697 620.923 C 580.464 614.006, 586 607.784, 586 607.097 C 586 606.046, 568.968 550.948, 563.066 532.905 L 561.236 527.309 574.368 522.012 C 623.183 502.322, 713.789 462.114, 798 422.772 L 824.500 410.392 834.172 371.446 C 839.491 350.026, 843.541 332.211, 843.172 331.858 C 841.480 330.241, 793.169 313.714, 782.055 310.951 C 758.304 305.045, 723.747 300.141, 682.500 296.822 C 672.222 295.995, 647.680 295.529, 613.875 295.517 L 561.251 295.500 560.580 286.628 C 560.211 281.749, 560.043 277.685, 560.205 277.598 C 560.367 277.510, 565.225 275.942, 571 274.113 C 599.662 265.035, 631.722 251.336, 657.159 237.296 C 668.398 231.092, 672.978 228.058, 672.696 227 C 672.385 225.833, 621.783 146.507, 620.506 145.184 C 620.338 145.010, 616.078 147.191, 611.039 150.032 C 595.263 158.925, 556.978 175.835, 549.618 177.161 C 547.922 177.466, 547.316 175.322, 543.497 155.500 C 538.717 130.698, 532.713 102.835, 527.280 80.250 C 524.447 68.471, 523.258 65.028, 522.056 65.124 C 521.200 65.192, 504.300 69.438, 484.500 74.559 M 452.649 294.750 C 451.812 297.769, 450.831 308, 451.379 308 C 451.666 308, 454.174 307.513, 456.951 306.917 L 462 305.834 462 299.417 L 462 293 457.567 293 C 454.197 293, 453.018 293.420, 452.649 294.750 M 577.299 393.935 C 565.859 394.255, 556.710 394.934, 556.203 395.500 C 555.426 396.369, 552.723 423.056, 553.349 423.682 C 553.529 423.862, 592.720 407.163, 619.750 395.389 C 621.538 394.610, 623 393.754, 623 393.487 C 623 392.941, 607.360 393.095, 577.299 393.935 M 492 757.646 C 490.075 757.826, 482.875 758.464, 476 759.065 C 439.397 762.261, 379.131 772.480, 360.616 778.628 L 355.731 780.250 361.116 783.607 C 372.878 790.939, 451.741 829.808, 475.741 840.102 L 479.981 841.921 485.544 832.468 C 492.120 821.295, 499.502 805.009, 501.544 797.171 C 503.249 790.626, 503.410 780.159, 501.947 771 C 500.224 760.212, 499.118 756.982, 497.211 757.160 C 496.270 757.248, 493.925 757.467, 492 757.646 " stroke="none" fill="black" fill-rule="evenodd"/>
</svg>