<svg xmlns="http://www.w3.org/2000/svg" width="1000" height="1000" viewBox="0 0 1000 1000" version="1.1">
	<path d="M 452.500 96.597 C 436.550 116.647, 422.883 133.939, 422.129 135.024 C 420.896 136.799, 421.182 137.559, 424.964 142.569 C 441.110 163.954, 441.935 190.232, 427.423 220.916 C 408.328 261.289, 345.871 358.997, 281.835 448.674 C 275.876 457.019, 271 464.277, 271 464.802 C 271 465.806, 350.882 521.484, 351.427 520.861 C 351.601 520.662, 355.793 515.100, 360.744 508.500 C 385.946 474.901, 418.207 443.485, 447.014 424.491 C 459.681 416.139, 478.862 406.850, 490.124 403.615 C 515.660 396.280, 549.411 397.795, 578.940 407.604 C 621.875 421.865, 656.372 456.869, 670.887 500.903 C 694.290 571.896, 665.674 652.412, 595 714.426 C 540.797 761.988, 466.582 808.404, 399 837.008 C 385.429 842.752, 357.650 853.046, 351.667 854.548 C 350.119 854.936, 349.008 855.906, 349.019 856.858 C 349.045 859.083, 372.535 949.869, 373.277 950.610 C 374.909 952.242, 425.054 933.682, 453.500 920.918 C 539.905 882.147, 638.805 814.768, 689.379 760.217 C 739.354 706.311, 767.929 647.105, 776.117 580.500 C 777.690 567.707, 777.676 534.455, 776.092 521.500 C 765.938 438.421, 718.517 367.947, 646.987 329.635 C 607.441 308.453, 555.863 297.611, 510 300.841 C 502.575 301.364, 496.446 301.726, 496.380 301.646 C 496.314 301.566, 499.782 295.200, 504.086 287.500 C 536.938 228.729, 544.563 180.435, 528.793 131 C 521.780 109.015, 508.534 86.858, 492.278 69.922 C 487.040 64.465, 482.472 60.032, 482.127 60.071 C 481.782 60.111, 468.450 76.547, 452.500 96.597 " stroke="none" fill="black" fill-rule="evenodd"/>
</svg>