<svg xmlns="http://www.w3.org/2000/svg" width="1000" height="1000" viewBox="0 0 1000 1000" version="1.1">
	<path d="M 421.500 86.595 C 403.350 99.488, 385.460 112.202, 381.745 114.848 L 374.990 119.659 382.858 129.086 C 403.833 154.215, 431.561 175.764, 462.500 190.979 C 481.210 200.181, 494.553 205.162, 520 212.444 C 536.118 217.057, 545.996 219.420, 569.894 224.380 L 575.287 225.500 512.394 241.232 C 428.995 262.092, 389.090 270.968, 357.500 275.683 C 327.186 280.207, 243.769 276.450, 176.081 267.512 C 169.801 266.683, 164.433 266.234, 164.153 266.514 C 163.711 266.956, 150.057 363.250, 150.379 363.650 C 150.687 364.034, 185.560 368.189, 203.500 369.980 C 239.834 373.607, 260.108 374.992, 294.650 376.205 L 328.801 377.405 321.052 385.952 C 271.260 440.880, 222.884 508.195, 192.661 564.606 C 165.748 614.841, 126.619 714.742, 107.121 783 C 99.661 809.116, 90.374 847.707, 91.320 848.654 C 91.526 848.860, 181.699 863.652, 186.423 864.255 C 188.123 864.472, 188.785 862.606, 192.130 848.174 C 205.214 791.723, 230.768 718.767, 262.944 646 C 276.707 614.874, 291.791 587.693, 312.319 557.024 C 321.072 543.948, 321.396 543.599, 322.094 546.500 C 322.491 548.150, 325.403 565.700, 328.565 585.500 C 331.727 605.300, 334.444 621.664, 334.604 621.864 C 335.004 622.364, 360.886 617.784, 387.893 612.435 C 400.209 609.996, 410.447 608, 410.643 608 C 410.839 608, 411 619.893, 411 634.429 C 411 655.384, 410.719 661.131, 409.641 662.179 C 408.894 662.905, 370.410 687.575, 324.122 717 C 276.125 747.510, 240.076 771.045, 240.230 771.768 C 240.379 772.465, 252.200 793.037, 266.500 817.482 C 284.793 848.754, 292.918 861.781, 293.911 861.434 C 294.687 861.162, 307.062 854.260, 321.411 846.095 C 352.043 828.666, 383.476 812.767, 405.453 803.584 L 409.048 802.082 408.365 834.982 L 407.682 867.882 410.091 868.377 C 411.416 868.650, 433.762 869.119, 459.750 869.420 L 507 869.967 507 843.400 C 507 826.719, 507.360 816.957, 507.968 817.167 C 508.500 817.350, 542.510 848.100, 583.546 885.500 C 624.583 922.900, 659.869 954.956, 661.961 956.735 L 665.764 959.970 687.161 937.235 C 698.929 924.731, 710.748 912.132, 713.427 909.238 L 718.296 903.976 719.106 889.738 C 720.354 867.812, 722.867 809.968, 723.625 785.750 C 723.999 773.788, 724.489 764, 724.713 764 C 726.060 764, 748.867 773.882, 760.150 779.355 C 789.869 793.770, 819.580 812.856, 845.859 834.413 L 853.219 840.450 860.859 832.461 C 865.062 828.067, 880.186 811.921, 894.469 796.581 L 920.439 768.689 914.469 763.262 C 898.606 748.838, 860.022 721.672, 834.506 706.962 C 804.325 689.563, 767.510 673.368, 736.804 663.985 L 726.108 660.716 725.596 655.608 C 725.315 652.799, 724.837 638.716, 724.536 624.313 C 724.234 609.910, 723.703 594.125, 723.356 589.236 L 722.725 580.347 783.613 541.565 C 817.101 520.235, 844.658 502.636, 844.852 502.456 C 845.639 501.726, 808.468 454.594, 802.249 448.436 C 782.742 429.119, 755.892 415.231, 728.857 410.473 C 724.261 409.665, 718.900 409.002, 716.945 409.001 L 713.390 409 710.862 368 C 709.472 345.451, 708.126 326.792, 707.871 326.538 C 707.616 326.283, 685.491 327.505, 658.704 329.253 L 610 332.432 610.009 335.466 C 610.014 337.135, 611.349 359.627, 612.977 385.448 C 614.605 411.269, 615.839 432.460, 615.719 432.538 C 615.598 432.616, 610.100 434.818, 603.500 437.431 C 593.698 441.311, 551.845 458.705, 517.645 473.112 C 513.875 474.701, 510.645 476, 510.467 476 C 510.289 476, 509.856 473.413, 509.505 470.250 C 505.979 438.533, 493.522 411.738, 470.468 386.283 L 463.735 378.849 475.618 367.639 C 482.153 361.473, 489.834 354.272, 492.688 351.636 L 497.875 346.843 562.989 330.396 C 598.802 321.350, 633.203 313.076, 639.436 312.011 C 657.507 308.922, 709.902 304.530, 765.750 301.424 L 778 300.743 778.019 297.122 C 778.045 292.297, 773.804 202.571, 773.535 202.246 C 773.419 202.106, 761.889 202.671, 747.912 203.501 C 672.509 207.982, 629.710 212.334, 605.608 217.969 C 600.717 219.113, 596.626 219.925, 596.518 219.774 C 596.410 219.623, 598.028 200.600, 600.114 177.500 C 602.200 154.400, 603.928 134.102, 603.954 132.392 C 603.999 129.339, 603.899 129.274, 598.250 128.678 C 577.450 126.480, 533.240 114.603, 512.079 105.527 C 495.315 98.337, 478.644 86.545, 464.131 71.612 C 459.528 66.875, 455.478 63.034, 455.131 63.077 C 454.784 63.119, 439.650 73.702, 421.500 86.595 M 386.416 461.099 C 360.627 490.944, 337.431 520.369, 339.358 520.794 C 340.358 521.014, 389.656 511.395, 408.750 507.255 C 410.971 506.773, 411 506.557, 411 490.518 L 411 474.269 407.454 467.180 C 405.503 463.281, 401.994 457.978, 399.655 455.395 L 395.403 450.698 386.416 461.099 M 559 562.750 C 550.475 566.346, 536.075 572.112, 527 575.564 L 510.500 581.839 510.210 589.920 C 510.050 594.364, 510.183 598, 510.505 598 C 511.124 598, 573.824 558.255, 575.450 556.832 C 577.303 555.209, 574.404 556.252, 559 562.750 M 622.250 644.115 C 620.462 645.260, 619 646.377, 619 646.598 C 619 646.819, 620.800 647, 623 647 C 626.600 647, 627 646.750, 627 644.500 C 627 641.477, 626.440 641.432, 622.250 644.115 M 594.123 747.572 C 587.315 748.314, 581.576 749.091, 581.368 749.299 C 581.160 749.507, 590.743 758.524, 602.663 769.337 C 614.583 780.151, 624.424 788.886, 624.531 788.749 C 624.639 788.612, 625.030 778.938, 625.401 767.250 L 626.075 746 616.288 746.111 C 610.904 746.172, 600.930 746.830, 594.123 747.572 " stroke="none" fill="black" fill-rule="evenodd"/>
</svg>