<svg xmlns="http://www.w3.org/2000/svg" width="1000" height="1000" viewBox="0 0 1000 1000" version="1.1">
	<path d="M 561.500 84.150 C 548.802 85.057, 533.182 88.362, 500.496 97.059 C 451.751 110.028, 435.595 113, 413.834 113 C 391.319 113, 365.897 108.877, 343.367 101.571 C 337.440 99.649, 332.378 98.288, 332.120 98.547 C 331.861 98.806, 323.010 118.926, 312.451 143.259 C 295.793 181.647, 293.454 187.661, 294.769 188.715 C 296.752 190.303, 320.759 198.232, 333.500 201.507 C 357.933 207.787, 390.054 212.003, 413.411 211.997 C 439.743 211.989, 463.139 208.437, 502.915 198.406 C 516.893 194.881, 528.452 192.119, 528.601 192.267 C 529.036 192.702, 515.645 214.298, 505.515 229.499 C 492.626 248.839, 477.362 270.064, 460.206 292.500 C 452.216 302.950, 445.675 311.951, 445.672 312.502 C 445.669 313.053, 451.762 322.278, 459.213 333.002 C 475.585 356.568, 485.981 374.129, 498.876 400 C 511.393 425.113, 528.665 468.669, 526.832 470.501 C 526.532 470.802, 518.549 472.171, 509.093 473.544 C 434.101 484.432, 358.352 505.223, 291.308 533.320 C 238.783 555.332, 213.626 569.782, 193.538 589.481 C 148.245 633.893, 147.801 692.909, 192.345 748 C 200.181 757.692, 219.037 776.522, 230.500 786.104 C 275.524 823.737, 345.630 864.656, 426.500 900.503 C 442.895 907.770, 482.988 924.011, 484.422 923.966 C 485.870 923.921, 520.630 879.695, 529.804 866.225 C 559.520 822.595, 589.024 757.473, 610.325 688.500 C 625.935 637.951, 637.979 585.328, 637.995 567.591 L 638 562.683 661.250 563.329 C 707.400 564.613, 749.425 570.808, 781.363 581.036 C 788.029 583.171, 793.766 584.599, 794.112 584.209 C 795.375 582.788, 830.276 493.942, 829.770 493.437 C 828.592 492.258, 804.487 484.616, 790.500 480.986 C 751.716 470.922, 707.708 465.476, 655.747 464.311 L 627.993 463.688 626.922 459.594 C 616.102 418.249, 597.077 371.800, 574.084 330.590 L 565.914 315.947 577.815 298.723 C 615.281 244.499, 636.352 205.193, 644.137 175 C 647.359 162.505, 647.368 144.280, 644.158 134 C 639.034 117.588, 629.459 104.523, 616.223 95.883 C 600.797 85.813, 585.165 82.461, 561.500 84.150 M 533.500 569.691 C 521.840 571.210, 485.541 577.525, 471.476 580.481 C 409.225 593.564, 339.380 617.309, 288.714 642.614 C 273.341 650.292, 258 662.244, 258 666.543 C 258 668.805, 261.658 675.674, 266.498 682.500 C 272.010 690.275, 290.739 708.298, 304.037 718.625 C 323.469 733.716, 354.298 753.340, 385.500 770.482 C 397.764 777.220, 451.197 804, 452.376 804 C 453.933 804, 474.308 766.174, 482.540 748 C 504.139 700.314, 525.771 633.524, 536.467 581.500 C 537.371 577.100, 538.320 572.487, 538.575 571.250 C 538.870 569.815, 538.579 569.054, 537.769 569.150 C 537.071 569.232, 535.150 569.476, 533.500 569.691 " stroke="none" fill="black" fill-rule="evenodd"/>
</svg>