<svg xmlns="http://www.w3.org/2000/svg" width="1000" height="1000" viewBox="0 0 1000 1000" version="1.1">
	<path d="M 282 99.096 C 272.925 103.498, 253.238 112.990, 238.250 120.190 C 223.262 127.389, 211 133.679, 211 134.167 C 211 134.655, 213.372 138.988, 216.271 143.797 C 242.836 187.863, 284.042 217.884, 342.167 235.520 C 353.434 238.938, 370.616 242.726, 371.365 241.956 C 371.788 241.522, 387 148.485, 387 146.332 C 387 145.765, 382.256 144.068, 376.458 142.559 C 365.354 139.670, 349.806 133.945, 340.841 129.445 C 326.429 122.210, 312.190 109.897, 303.753 97.375 C 301.414 93.904, 299.275 91.070, 299 91.078 C 298.725 91.087, 291.075 94.695, 282 99.096 M 668.295 180.478 C 624.188 188.889, 572.652 220.976, 503.312 283.199 C 473.417 310.026, 416.817 367.681, 373.665 415.263 C 364.861 424.971, 363.959 425.707, 364.466 422.763 C 364.775 420.968, 366.391 410.050, 368.057 398.500 C 369.723 386.950, 372.428 369.185, 374.069 359.023 L 377.051 340.545 362.870 310.023 C 355.071 293.235, 348.638 279.416, 348.575 279.314 C 348.513 279.212, 340.145 282.047, 329.981 285.615 C 301.635 295.563, 287.700 299.168, 255.327 304.923 C 229.867 309.449, 198.740 308.281, 160.697 301.372 C 155.855 300.492, 151.722 299.944, 151.513 300.154 C 151.303 300.364, 146.417 321.901, 140.655 348.014 C 133.896 378.645, 130.545 395.719, 131.212 396.131 C 132.468 396.907, 159.834 401.346, 176.949 403.550 C 201.870 406.759, 242.412 407.024, 260.866 404.098 C 263.965 403.607, 266.671 403.367, 266.880 403.566 C 267.089 403.764, 265.421 418.005, 263.174 435.213 C 260.927 452.421, 258.157 474.600, 257.019 484.500 C 253.785 512.621, 254.789 511.170, 248.100 497.378 C 239.284 479.202, 230.235 465.317, 218.043 451.263 C 215.544 448.382, 212.978 446.020, 212.340 446.013 C 211.702 446.006, 207.652 449.767, 203.340 454.370 C 199.028 458.974, 183.880 474.700, 169.677 489.317 L 143.855 515.893 147.834 521.197 C 165.480 544.716, 171.572 570.660, 165.939 598.301 C 158.547 634.572, 132.927 691.420, 95.212 755.233 L 81.186 778.966 85.843 782.333 C 98.685 791.617, 162.052 835, 162.771 835 C 163.227 835, 168.302 828.465, 174.050 820.477 L 184.500 805.954 188.910 810.727 C 196.236 818.656, 216.306 842.960, 222.797 851.763 C 231.995 864.235, 238.566 874.539, 251.012 896 C 257.231 906.725, 262.887 916.123, 263.580 916.885 C 264.637 918.045, 271.056 915.067, 303.171 898.517 C 324.252 887.652, 342.175 878.125, 343 877.345 C 344.318 876.100, 344.508 860.214, 344.567 746.714 C 344.605 675.646, 344.717 613.557, 344.817 608.738 L 345 599.976 363.192 578.238 C 504.991 408.800, 616.059 303.191, 676.273 280.547 C 685.716 276.996, 687.531 277.160, 689.888 281.780 C 695.595 292.968, 698.185 311.439, 698.190 341 C 698.199 389.493, 692.229 434.129, 668.902 560 C 644.879 689.628, 639.655 727.702, 639.607 773.500 C 639.578 800.653, 640.796 812.266, 645.520 829.893 C 655.145 865.804, 682.896 894.177, 717.268 903.250 C 728.959 906.336, 750.733 906.314, 763.277 903.202 C 803.973 893.107, 845.993 858.749, 889.978 799.604 C 901.134 784.603, 919 758.061, 919 756.488 C 919 755.459, 837.014 705.991, 835.338 706.009 C 834.877 706.014, 832.726 708.826, 830.558 712.259 C 805.022 752.692, 768.842 792.811, 747.802 804.025 L 741.996 807.119 741.042 804.610 C 737.315 794.808, 737.259 760.856, 740.917 729.500 C 745.020 694.340, 749.300 668.415, 765.022 583.500 C 785.967 470.376, 792.589 426.040, 796.083 375.527 C 797.543 354.425, 796.736 309.617, 794.632 295 C 788.972 255.654, 777.377 228.683, 757.080 207.643 C 744.483 194.585, 732.768 187.326, 716.297 182.373 C 708.680 180.082, 705.354 179.686, 691.500 179.415 C 680.849 179.208, 673.091 179.563, 668.295 180.478 " stroke="none" fill="black" fill-rule="evenodd"/>
</svg>