<svg xmlns="http://www.w3.org/2000/svg" width="1000" height="1000" viewBox="0 0 1000 1000" version="1.1">
	<path d="M 610.092 91.981 C 586.704 98.323, 569.704 115.935, 556.454 147.552 C 551.628 159.067, 544.461 181.338, 541.505 194 C 540.542 198.125, 539.247 201.984, 538.627 202.575 C 538.007 203.166, 530.750 204.654, 522.500 205.882 C 450.106 216.656, 394.243 241.772, 332.915 291.119 C 320.586 301.039, 298.835 321.021, 299.211 322.082 C 299.370 322.532, 314.350 336.695, 332.500 353.556 C 350.650 370.417, 366.731 385.367, 368.235 386.779 L 370.970 389.346 377.235 383.406 C 406.636 355.534, 443.284 331.828, 477.968 318.247 C 488.749 314.026, 513.814 307, 518.091 307 C 520.381 307, 520.386 306.056, 517.996 324 C 516.064 338.512, 512.318 398.651, 513.286 399.619 C 513.569 399.902, 526.065 401.918, 541.055 404.099 C 577.330 409.377, 594.475 413.242, 623.267 422.632 C 688.100 443.776, 732.742 475.733, 746.925 511.153 C 758.649 540.433, 760.839 590.919, 752.384 637 C 751.526 641.675, 750.484 645.857, 750.069 646.294 C 749.653 646.730, 745.980 645.119, 741.906 642.713 C 701.862 619.065, 658.287 600.421, 621 590.983 C 616.325 589.799, 612.399 588.730, 612.274 588.607 C 612.150 588.483, 612.704 583.459, 613.505 577.441 C 615.379 563.355, 615.387 534.438, 613.520 521.500 C 607.557 480.187, 587.563 450.173, 555.928 435.050 C 541.010 427.918, 534.292 426.611, 512.500 426.600 C 494.597 426.591, 492.986 426.748, 484.600 429.334 C 436.029 444.310, 402.715 487.336, 381.495 562.500 C 377.802 575.580, 372.871 597.312, 371.011 608.705 L 369.834 615.910 362.452 619.962 C 340.491 632.015, 315.670 651.580, 299.989 669.200 C 259.676 714.497, 247.592 766.415, 268.127 806.089 C 276.071 821.435, 287.910 832.918, 305 841.850 C 341.284 860.814, 379.293 860.539, 417.933 841.034 L 423.790 838.077 434.145 848.627 C 487.623 903.114, 560.414 922.057, 640.822 902.412 C 696.503 888.808, 743.387 859.127, 778.899 815 C 783.104 809.775, 786.903 805.362, 787.341 805.192 C 788.902 804.590, 816.009 838.749, 830.437 859.500 C 833.114 863.350, 835.636 866.878, 836.041 867.339 C 836.566 867.937, 915.684 817.410, 918.859 814.450 C 919.867 813.510, 886.854 769.048, 871.747 751 C 865.993 744.125, 855.429 732.187, 848.273 724.470 L 835.262 710.441 838.626 699.470 C 846.442 673.988, 852.834 640.183, 855.065 612.533 C 856.826 590.705, 855.782 548.305, 853.045 530.500 C 844.776 476.716, 826.770 440.197, 791.861 406.407 C 753.971 369.732, 698.648 340.550, 631.927 322.047 C 625.642 320.304, 620.008 318.722, 619.407 318.531 C 618.623 318.281, 618.659 315.964, 619.534 310.342 C 620.205 306.029, 621.052 300.428, 621.416 297.894 L 622.079 293.289 630.290 292.662 C 684.258 288.538, 721.372 286.427, 766 284.942 C 784.425 284.329, 799.571 283.754, 799.659 283.664 C 800.140 283.166, 809.057 206.469, 808.804 205.003 C 808.168 201.323, 763.270 162.421, 735.500 141.488 C 700.018 114.741, 674.746 100.295, 651.500 93.472 C 638.850 89.758, 620.699 89.105, 610.092 91.981 M 138.521 108.250 C 137.925 110.044, 127.793 185.233, 122.519 227 C 99.533 409.059, 88.468 549.452, 91.813 616.590 C 93.770 655.869, 105.316 744.466, 115.521 798.500 C 119.284 818.431, 131.923 873.004, 133.090 874.366 C 133.999 875.427, 220.035 857.233, 221.658 855.638 C 222.294 855.012, 225.364 844.825, 228.479 833 C 238.251 795.905, 259.626 717.484, 266.498 693.516 C 273.857 667.850, 278.041 656.878, 303.493 596.500 C 313.231 573.400, 321.412 553.788, 321.672 552.917 C 322.018 551.761, 320.708 550.768, 316.823 549.241 C 313.895 548.090, 293.516 539.487, 271.535 530.122 C 249.555 520.758, 231.484 513.187, 231.378 513.298 C 231.272 513.409, 223.539 531.725, 214.194 554 C 204.848 576.275, 195.564 598.325, 193.563 603 L 189.925 611.500 190.436 577.500 C 191.152 529.864, 194.540 478.686, 202.053 402 C 209.452 326.474, 222.457 219.179, 234.081 137.748 C 235.318 129.085, 236.112 121.779, 235.846 121.513 C 235.477 121.143, 141.472 107, 139.387 107 C 139.139 107, 138.750 107.563, 138.521 108.250 M 508.239 526.250 C 503.078 529.875, 496.171 539.689, 490.470 551.500 C 484.713 563.428, 478.352 580.685, 479.346 581.679 C 479.685 582.019, 485.060 581.780, 491.290 581.148 C 497.520 580.517, 504.923 580, 507.741 580 C 511.750 580, 512.982 579.619, 513.402 578.250 C 516.678 567.571, 517.421 538.981, 514.662 529.750 C 513.717 526.587, 512.607 524, 512.194 524 C 511.781 524, 510.002 525.013, 508.239 526.250 M 576.589 690.257 C 561.065 719.008, 542.282 742.711, 516.540 766.033 L 502.779 778.500 508.640 783.889 C 527.236 800.991, 548.374 809.645, 574.149 810.709 C 609.404 812.165, 646.155 801.072, 673.560 780.702 C 682.939 773.732, 698.311 758.302, 705.833 748.310 L 711.998 740.120 702.749 734.392 C 665.275 711.186, 626.755 694.098, 593.525 685.940 C 586.939 684.323, 581.314 683.003, 581.025 683.007 C 580.736 683.010, 578.740 686.273, 576.589 690.257 M 366.327 744.250 C 364.040 747.688, 361.410 752.029, 360.483 753.897 L 358.796 757.295 362.267 756.731 C 364.176 756.422, 367.987 755.201, 370.735 754.019 L 375.732 751.869 373.709 744.935 C 372.596 741.121, 371.416 738, 371.085 738 C 370.755 738, 368.613 740.813, 366.327 744.250 " stroke="none" fill="black" fill-rule="evenodd"/>
</svg>