<svg xmlns="http://www.w3.org/2000/svg" width="1000" height="1000" viewBox="0 0 1000 1000" version="1.1">
	<path d="M 725.969 275.437 C 681.390 281.856, 636.566 302.611, 585.500 340.477 C 565.747 355.124, 533.385 382.664, 521.610 394.846 L 517.720 398.871 507.813 383.815 C 478.528 339.308, 449.298 310.644, 417.684 295.430 C 377.376 276.033, 332.959 287.005, 279.500 329.565 C 265.993 340.318, 227.073 379.361, 213.500 395.774 C 208 402.424, 203.216 407.896, 202.869 407.933 C 201.698 408.057, 195.130 391.484, 192.165 380.924 C 187.353 363.787, 184.175 344.926, 182.451 323.279 L 181.797 315.058 152.648 315.555 C 136.617 315.829, 114.418 316.315, 103.317 316.634 L 83.134 317.215 83.639 324.358 C 88.503 393.231, 102.278 438.064, 131.769 481 C 143.383 497.910, 149.680 505.049, 168.502 522.647 L 182.504 535.739 216.682 522.119 L 250.859 508.500 259.450 496.665 C 296.445 445.694, 341.880 400.778, 369.537 387.836 C 377.061 384.315, 377.510 384.453, 388.443 393.656 C 414.159 415.303, 440.438 457.108, 462.520 511.500 C 466.763 521.950, 470.389 530.670, 470.578 530.878 C 470.767 531.086, 486.965 527.936, 506.572 523.878 L 542.221 516.500 550.802 506.500 C 570.376 483.687, 610.192 446.029, 636 425.919 C 661.978 405.677, 696.830 385.334, 717 378.640 C 734.984 372.672, 751.268 371.385, 762.199 375.067 C 770.191 377.759, 775.293 381.357, 783.115 389.815 C 812.780 421.893, 818.538 480.250, 797.343 534 C 772.091 598.036, 714.461 657.269, 627.500 708.567 C 607.809 720.183, 563.008 742.662, 541 751.969 C 531.375 756.039, 523.371 759.453, 523.213 759.555 C 522.932 759.737, 559.769 850.103, 560.370 850.703 C 560.539 850.872, 567.387 848.127, 575.589 844.603 C 671.107 803.555, 744.375 756.567, 801.048 700.012 C 861.198 639.986, 895.485 576.681, 906.670 505 C 909.201 488.773, 909.184 450.196, 906.637 434 C 901.834 403.461, 891.933 375.624, 877.359 351.687 C 852.517 310.884, 818.295 285.467, 776.688 276.920 C 763.530 274.217, 739.352 273.510, 725.969 275.437 " stroke="none" fill="black" fill-rule="evenodd"/>
</svg>