<svg xmlns="http://www.w3.org/2000/svg" width="1000" height="1000" viewBox="0 0 1000 1000" version="1.1">
	<path d="M 588.204 93.463 C 562.741 99.126, 541.726 103.941, 541.503 104.163 C 541.281 104.386, 542.885 113.290, 545.067 123.951 C 553.520 165.249, 565.489 231.997, 569.778 261.755 L 570.679 268.009 567.090 268.950 C 565.115 269.468, 560.501 270.575, 556.835 271.411 C 545.990 273.885, 518.077 281.710, 500.691 287.149 C 448.148 303.589, 378.314 332.871, 337.363 355.634 L 331.227 359.045 355.188 400.773 C 368.367 423.723, 379.496 442.858, 379.920 443.295 C 380.344 443.733, 391.448 438.760, 404.595 432.244 C 458.459 405.552, 515.921 383.976, 571.808 369.460 C 577.478 367.988, 582.264 366.944, 582.445 367.142 C 583.428 368.216, 585.189 400.380, 585.702 426.648 L 586.291 456.796 581.396 455.730 C 578.703 455.143, 565.250 454.635, 551.500 454.599 C 528.990 454.541, 525.454 454.764, 516 456.832 C 474.995 465.804, 446.271 486.689, 429.358 519.833 C 418.348 541.408, 413.304 568.308, 415.102 595.872 C 416.469 616.830, 421.096 634.257, 430.093 652.326 C 436.902 666.002, 443.854 675.726, 455.448 687.794 C 462.683 695.324, 465.138 698.502, 464.448 699.445 C 451.161 717.613, 436.665 744.670, 431.069 761.751 C 425.477 778.816, 423.682 789.837, 423.699 807 C 423.715 823.979, 424.881 831.138, 429.847 844.744 C 436.607 863.266, 448.620 878.627, 465 889.694 C 504.920 916.664, 591.784 922.512, 728.500 907.433 C 756.755 904.317, 823.618 894.715, 824.717 893.616 C 824.973 893.360, 823.536 880.180, 821.523 864.326 C 817.712 834.303, 810.546 796.377, 795.008 724 C 784.799 676.451, 772.825 624.492, 771.852 623.518 C 771.438 623.105, 678.354 645.663, 676.986 646.508 C 676.580 646.760, 677.795 653.386, 679.687 661.233 C 689.254 700.917, 712.483 808.850, 711.638 809.696 C 711.093 810.240, 675.320 813.533, 652.500 815.139 C 628.477 816.830, 570.898 816.836, 556 815.150 C 544.213 813.816, 532.399 811.718, 525.750 809.778 C 522.415 808.804, 522 808.326, 522 805.447 C 522 801.099, 525.477 790.071, 529.550 781.500 C 534.994 770.044, 544.569 756.500, 554.649 745.998 C 566.589 733.558, 575.089 727.653, 585.002 724.915 C 595.538 722.003, 614.902 712.419, 625.275 704.982 C 655.493 683.315, 674.153 645.767, 680.426 594 C 683.898 565.358, 684.457 548.917, 684.479 475 C 684.497 412.385, 684.222 397.829, 682.620 376.713 C 681.587 363.080, 681.062 351.605, 681.454 351.213 C 682.736 349.931, 745.794 350.418, 757 351.796 C 772.035 353.645, 793.989 357.578, 804.771 360.354 C 809.870 361.667, 814.204 362.461, 814.401 362.120 C 815.981 359.388, 841.001 268.608, 840.347 267.979 C 839.881 267.531, 833.875 265.802, 827 264.137 C 786.334 254.287, 746.783 250.247, 702 251.367 C 687.975 251.718, 674.700 252.273, 672.500 252.600 L 668.500 253.196 664.174 226.348 C 658.273 189.725, 653.270 162.062, 644.807 119.250 C 638.981 89.781, 637.347 83.016, 636.070 83.084 C 635.207 83.130, 613.667 87.801, 588.204 93.463 M 274 139.028 C 250.625 150.485, 231.146 160.010, 230.712 160.193 C 230.279 160.375, 230.938 164.569, 232.176 169.513 C 235.384 182.316, 235.361 207.757, 232.127 223 C 228.874 238.329, 223.784 252.648, 215.953 268.500 C 206.234 288.174, 197.427 300.058, 158.872 345.525 C 124.625 385.914, 113.023 401.090, 103.089 418.498 C 90.056 441.335, 86.078 462.084, 90.993 481.590 C 95.125 497.993, 103.658 510.558, 120.277 524.711 C 138.368 540.118, 146.021 548.491, 151.175 558.518 C 159.706 575.113, 163.942 593.284, 166.051 622.328 C 166.945 634.649, 166.848 649.808, 165.592 694.220 C 163.068 783.469, 162.118 824.163, 161.386 874.250 L 160.703 921 210.784 921 C 257.621 921, 260.898 920.887, 261.372 919.250 C 261.650 918.288, 263.735 908.144, 266.004 896.709 C 270.449 874.315, 274.446 860.506, 282.043 841.308 C 296.877 803.817, 316.911 767.969, 343.431 731.457 L 347.820 725.414 308.674 695.635 L 269.527 665.855 267.347 668.590 L 265.166 671.325 265.159 644.412 C 265.145 590.862, 258.218 553.353, 242.089 519.500 C 232.490 499.350, 222.709 485.665, 206.155 469.220 L 194.801 457.941 201.769 448.720 C 205.602 443.649, 214.084 433.159, 220.619 425.409 C 278.661 356.572, 287.154 345.425, 300.481 320.578 C 332.565 260.765, 342.046 192.220, 325.805 137.500 C 322.142 125.161, 319.111 117.969, 317.627 118.097 C 317.007 118.151, 297.375 127.570, 274 139.028 M 776.829 414.277 C 765.460 430.900, 753.004 449.078, 749.148 454.673 L 742.139 464.846 749.819 471.159 C 760.707 480.109, 775.732 495.425, 784.768 506.786 C 810.145 538.689, 824.148 571.998, 826.581 606.250 L 827.274 616 876.637 616 L 926 616 925.990 612.750 C 925.967 605.534, 923.834 584.822, 921.999 574 C 911.351 511.190, 873.802 447.960, 819 400.558 C 809.921 392.705, 798.777 383.970, 797.909 384.027 C 797.684 384.041, 788.198 397.654, 776.829 414.277 M 540.500 552.958 C 522.262 555.264, 516.442 560.509, 513.932 576.901 C 509.143 608.181, 530.675 634.099, 557.126 628.895 C 562.229 627.891, 563.996 626.976, 567.198 623.677 C 576.685 613.901, 582.428 594.178, 581.809 573.500 C 581.319 557.147, 580.621 555.851, 571.491 554.351 C 561.478 552.706, 547.472 552.077, 540.500 552.958 " stroke="none" fill="black" fill-rule="evenodd"/>
</svg>