<svg xmlns="http://www.w3.org/2000/svg" width="1000" height="1000" viewBox="0 0 1000 1000" version="1.1">
	<path d="M 438.500 86.560 C 417.050 87.814, 398.262 88.876, 396.750 88.920 L 394 89 393.999 102.250 C 393.999 109.537, 393.542 123.825, 392.983 134 C 384.918 280.796, 337.731 393.864, 260.500 451.446 C 248.885 460.106, 234.845 469.178, 234.143 468.476 C 233.114 467.447, 255.265 442.640, 274.298 423.506 C 288.519 409.210, 294.914 402.122, 294.341 401.290 C 293.878 400.617, 279.775 383.680, 263 363.651 L 232.500 327.235 227.540 331.367 C 218.733 338.706, 197.194 360.016, 185.466 372.996 C 136.319 427.386, 104.284 477.020, 95.792 511.932 C 93.121 522.915, 92.956 539.633, 95.427 549 C 101.296 571.250, 117.718 587.965, 140.487 594.866 C 151.393 598.171, 170.788 598.294, 185.356 595.150 C 224.442 586.713, 289.218 554.917, 325 526.604 C 345.826 510.124, 366.360 489.641, 383.247 468.500 C 441.496 395.575, 478.118 292.569, 489.516 169.593 C 491.512 148.060, 493.110 104.146, 492.313 92.750 L 491.701 84 484.600 84.140 C 480.695 84.218, 459.950 85.307, 438.500 86.560 M 539.685 245.055 C 529.886 245.463, 521.731 245.956, 521.561 246.149 C 521.392 246.342, 522.750 267.425, 524.579 293 C 526.408 318.575, 527.926 340.583, 527.953 341.907 L 528 344.313 544.250 343.737 L 560.500 343.160 553.500 345.092 C 537.571 349.488, 526 353.399, 526 354.387 C 526 355.463, 555.992 446.214, 556.559 446.853 C 556.731 447.047, 559.713 446.273, 563.186 445.132 C 580.968 439.294, 613.223 432.808, 639.500 429.786 C 656.319 427.852, 711.684 428.167, 731 430.307 C 758.771 433.384, 791.219 439.446, 813 445.626 C 817.675 446.953, 831.066 451.476, 842.757 455.679 C 854.448 459.881, 864.146 463.135, 864.307 462.910 C 864.468 462.684, 875.057 449.371, 887.837 433.323 L 911.074 404.147 898.679 385.323 C 891.861 374.971, 882.682 362.225, 878.280 357 C 842.960 315.079, 782.026 274.858, 732.257 260.614 C 686.954 247.648, 615.664 241.888, 539.685 245.055 M 555.500 475.399 C 525.224 481.974, 498.429 496.239, 470.346 520.731 C 466.306 524.255, 463.005 526.769, 463.012 526.319 C 463.018 525.869, 463.680 523.034, 464.482 520.020 C 465.284 517.006, 465.616 514.230, 465.220 513.851 C 464.824 513.472, 448.525 509.089, 429 504.111 C 409.475 499.134, 388.350 493.710, 382.056 492.058 C 375.761 490.407, 370.520 489.156, 370.409 489.278 C 370.297 489.400, 368.380 497.402, 366.147 507.061 C 357.132 546.066, 352.004 579.135, 352.001 598.278 C 351.999 614.488, 356.467 652.570, 361.046 675.375 C 362.658 683.401, 375.428 727.668, 376.448 728.763 C 376.749 729.086, 452.353 733.011, 452.542 732.713 C 452.617 732.596, 455.976 724.175, 460.006 714 C 471.827 684.161, 482.633 662.982, 497.601 640.315 C 517.311 610.466, 540.833 586.927, 560.314 577.557 C 569.647 573.068, 579.155 570.619, 583.836 571.497 C 600.872 574.693, 617.218 598.898, 624.153 631.198 C 627.084 644.848, 627.344 672.582, 624.677 687 C 620.027 712.136, 608.139 737.773, 591.986 757.500 C 544.096 815.986, 451.308 845.929, 328.750 842.449 L 304 841.746 304.015 844.623 C 304.024 846.205, 302.839 868.102, 301.382 893.283 C 299.924 918.463, 299.055 939.388, 299.450 939.783 C 299.845 940.177, 321.618 940.484, 347.834 940.464 C 390.010 940.433, 397.813 940.176, 415.583 938.231 C 473.818 931.860, 521.772 919.325, 565.146 899.137 C 596.529 884.530, 632.087 859.398, 654.067 836.289 C 710.823 776.617, 735.715 696.564, 722.011 617.781 C 709.561 546.211, 667.039 492.073, 611 476.443 C 602.794 474.154, 599.116 473.740, 584 473.402 C 568.383 473.052, 565.316 473.267, 555.500 475.399 " stroke="none" fill="black" fill-rule="evenodd"/>
</svg>