<svg xmlns="http://www.w3.org/2000/svg" width="1000" height="1000" viewBox="0 0 1000 1000" version="1.1">
	<path d="M 158.512 150.181 C 154.166 162.165, 130.084 242.458, 130.678 242.984 C 131.130 243.384, 136.225 245.805, 142 248.363 C 172.450 261.854, 200.506 284.809, 216.992 309.718 C 233.519 334.691, 240.937 362.609, 239.650 395 C 238.665 419.809, 235.469 435.479, 223.336 475 C 205.902 531.789, 184.733 584.713, 157.537 639.500 C 128.453 698.091, 107.918 732.220, 75.319 776.139 C 66.894 787.491, 60.018 797.166, 60.039 797.639 C 60.085 798.656, 144.056 866.959, 145.460 867.122 C 145.989 867.183, 155.126 851.544, 165.767 832.367 C 243.598 692.093, 340.573 550.188, 416.598 465.321 C 431.127 449.101, 461.199 418.835, 474.500 407.045 C 504.168 380.746, 530.672 363.472, 553 355.883 C 561.364 353.040, 563.816 352.647, 573.500 352.599 C 589.578 352.520, 601.760 356.693, 618.500 368.013 C 679.133 409.015, 743.783 530.101, 795.485 699.500 C 808.066 740.720, 824.494 802.118, 830.536 830.500 C 831.473 834.900, 832.523 838.807, 832.870 839.181 C 833.503 839.866, 927.695 820.638, 928.717 819.616 C 929.391 818.943, 926.827 807.566, 917.927 771.735 C 883.495 633.106, 836.031 505.534, 787.249 420.500 C 761.016 374.774, 737.829 343.711, 708.867 315.497 C 669.738 277.378, 630.379 257.674, 586.219 254.098 C 531.986 249.706, 476.967 273.954, 411 331.321 C 398.059 342.574, 354.674 385.933, 345.500 396.780 C 342.200 400.682, 339.212 403.903, 338.861 403.937 C 338.509 403.972, 338.450 400.288, 338.729 395.750 C 339.882 377.044, 335.488 341.256, 329.504 320.609 C 310.928 256.515, 267.337 204.195, 202.500 168.175 C 192.817 162.796, 167.501 151.349, 161.245 149.521 C 159.789 149.096, 158.821 149.330, 158.512 150.181 " stroke="none" fill="black" fill-rule="evenodd"/>
</svg>