<svg xmlns="http://www.w3.org/2000/svg" width="1000" height="1000" viewBox="0 0 1000 1000" version="1.1">
	<path d="M 448 75.971 C 437.825 78.046, 417.013 82.164, 401.752 85.122 C 383.040 88.748, 374.003 90.908, 374.002 91.754 C 374.001 92.443, 376.714 107.968, 380.031 126.254 C 386.281 160.702, 394.029 206.390, 398.472 235 C 399.882 244.075, 401.265 252.632, 401.545 254.015 C 402.012 256.312, 401.468 256.782, 395.278 259.421 C 386.115 263.329, 349.750 281.453, 338 287.968 C 289.191 315.032, 236.592 349.503, 180.785 391 C 178.196 392.925, 176.060 394.826, 176.039 395.225 C 176.018 395.624, 189.525 413.285, 206.055 434.471 L 236.109 472.990 245.805 465.679 C 270.354 447.165, 310.901 419.445, 340 401.282 C 368.204 383.678, 414.461 358.127, 415.766 359.433 C 416.309 359.976, 421.046 395.211, 420.634 395.639 C 420.560 395.715, 402.725 408.261, 381 423.519 C 336.328 454.893, 322.809 464.773, 308.500 476.510 C 295.435 487.225, 225.037 557.198, 217.026 567.430 C 199.140 590.276, 189.539 609.759, 185.918 630.552 C 184.228 640.257, 185.274 660.622, 187.935 669.836 C 192.886 686.974, 201.296 700.471, 216.418 715.550 C 237.913 736.983, 258.028 746.894, 288.851 751.242 L 298.202 752.561 288.619 764.030 C 283.348 770.339, 279.028 775.807, 279.018 776.182 C 279.008 776.558, 287.886 784.433, 298.746 793.682 C 358.073 844.211, 369.006 855.685, 411.960 912.500 C 419.860 922.950, 426.646 931.872, 427.039 932.327 C 427.432 932.781, 444.652 923.869, 465.306 912.521 L 502.858 891.888 503.997 886.694 C 513.640 842.714, 520.164 792.882, 525.739 720.634 L 526.500 710.769 559.500 699.529 C 609.259 682.580, 634.651 673.059, 678.374 654.952 L 703.248 644.651 702.578 635.075 C 699.416 589.935, 694.948 550.036, 690.474 527 C 686.704 507.587, 668.479 429.227, 667.489 428.175 C 667.180 427.847, 572.803 451.002, 572.149 451.565 C 571.957 451.732, 574.295 462.135, 577.347 474.684 C 587.578 516.761, 593.047 541.910, 595.522 558.263 C 599.176 582.408, 599.057 580.743, 597.172 581.310 C 596.252 581.587, 582 586.747, 565.500 592.779 C 549 598.810, 534.600 604.020, 533.500 604.357 C 531.527 604.961, 531.499 604.482, 531.393 568.234 C 531.274 527.327, 529.924 500.262, 525.423 448.500 L 524.814 441.500 539.157 429.882 C 584.403 393.232, 608.889 364.010, 617.825 336 C 630.497 296.273, 613.758 259.920, 573.500 239.745 C 556.684 231.317, 539.757 227.891, 514.990 227.903 L 497.479 227.911 490.779 187.206 C 487.094 164.818, 481.035 129.738, 477.313 109.250 C 471.016 74.589, 470.406 72.007, 468.523 72.099 C 467.410 72.154, 458.175 73.896, 448 75.971 M 734.607 299.276 C 733.262 301.599, 722.224 320.547, 710.080 341.381 C 697.936 362.216, 688 379.590, 688 379.990 C 688 380.390, 690.362 382.287, 693.250 384.207 C 721.809 403.192, 751.309 436.112, 763.872 463.015 C 777.245 491.654, 785.213 537.773, 785.335 587.250 C 785.369 600.862, 785.420 612.016, 785.448 612.035 C 786.014 612.418, 882.652 621.558, 883 621.262 C 884.077 620.346, 884.097 564.657, 883.026 550.500 C 879.323 501.555, 869.507 457.481, 855.167 425.414 C 840.589 392.813, 816.580 360.355, 787 333.258 C 774.477 321.786, 752.074 304.250, 742.277 298.250 L 737.054 295.052 734.607 299.276 M 408.450 524.848 C 375.736 548.208, 369.267 553.682, 337 585.313 C 303.601 618.054, 294.678 627.559, 288.125 637.379 L 283.535 644.259 287.445 647.638 C 293.558 652.923, 296.959 653.509, 321 653.423 C 337.824 653.362, 345.654 652.865, 357 651.138 C 374.450 648.482, 400.747 643.184, 418.500 638.748 L 431.500 635.500 432.307 617 C 433.164 597.353, 432.358 523.048, 431.193 514.302 L 430.500 509.104 408.450 524.848 M 413.500 741.027 C 409.100 742.010, 402.817 743.358, 399.537 744.022 L 393.574 745.230 397.037 748.253 C 398.942 749.916, 405.309 755.723, 411.186 761.157 L 421.872 771.038 422.442 766.769 C 423.132 761.607, 425 742.344, 425 740.394 C 425 738.685, 423.656 738.759, 413.500 741.027 " stroke="none" fill="black" fill-rule="evenodd"/>
</svg>