<svg xmlns="http://www.w3.org/2000/svg" width="1000" height="1000" viewBox="0 0 1000 1000" version="1.1">
	<path d="M 260.078 108.094 L 223.041 140.187 225.447 143.344 C 229.391 148.516, 235.838 162.944, 237.990 171.410 C 240.865 182.722, 240.707 196.073, 237.556 208.141 C 223.598 261.595, 187.872 328.555, 137.859 395 C 118.681 420.479, 106.814 434.573, 81.089 462.429 C 60.866 484.327, 59.994 485.436, 61.707 487.081 C 63.105 488.424, 123.421 535.085, 142.187 549.341 L 145.875 552.142 162.300 537.821 C 171.333 529.944, 180.138 522.686, 181.865 521.692 L 185.005 519.884 186.099 522.692 C 188.496 528.844, 192.112 544.998, 193.760 556.917 C 195.293 568, 195.476 577.667, 195.300 638 C 195.049 724.036, 193.254 812.981, 190.719 864.986 L 190.500 869.471 235 875.146 C 259.475 878.267, 281.394 881.075, 283.709 881.386 C 287.825 881.938, 287.931 881.879, 288.452 878.725 C 291.615 859.581, 296.094 613.223, 293.987 574.251 C 290.802 515.313, 279.712 478.323, 257.097 451.200 C 252.528 445.720, 240.802 435.536, 235.555 432.490 C 234.019 431.599, 235.273 429.318, 246.277 412.990 C 278.172 365.667, 303.429 318.007, 319.965 273.939 C 326.823 255.662, 333.955 231.959, 336.494 219 C 338.783 207.316, 339.559 182.988, 338.055 170.053 C 335.152 145.086, 325.664 117.970, 311.875 95.233 C 307.140 87.426, 298.817 76.061, 297.808 76.025 C 297.427 76.011, 280.448 90.442, 260.078 108.094 M 547.800 104.332 C 525.965 118.724, 507.607 130.993, 507.005 131.595 C 506.211 132.389, 507.251 135.301, 510.779 142.168 C 519.622 159.381, 526.352 178.755, 528.514 193.229 L 529.221 197.958 523.860 196.379 C 500.442 189.483, 472.930 177.243, 450.784 163.868 C 445.440 160.641, 440.715 158.014, 440.284 158.030 C 439.592 158.057, 384.954 235.947, 384.204 237.975 C 383.750 239.204, 405.647 252.378, 423.500 261.617 C 451.882 276.305, 479.096 286.904, 505.500 293.556 C 513.750 295.634, 520.592 297.388, 520.704 297.454 C 521.227 297.762, 513.293 349.305, 505.880 393.750 C 501.363 420.837, 498.004 443.337, 498.415 443.750 C 498.827 444.162, 517.765 444.725, 540.500 445 C 563.235 445.275, 582.096 445.761, 582.414 446.079 C 582.731 446.398, 576.679 448.134, 568.963 449.938 C 557.266 452.673, 555.016 453.491, 555.427 454.859 C 556.349 457.934, 573 535.223, 573 536.430 C 573 537.858, 552.894 545.234, 532.052 551.452 C 502.160 560.370, 480.255 563.199, 451.500 561.854 C 425.166 560.623, 398.925 556.384, 375.011 549.500 C 368.680 547.677, 363.450 546.256, 363.389 546.343 C 362.987 546.913, 329.025 635.775, 328.792 636.867 C 328.422 638.598, 337.561 641.819, 357.500 646.984 C 385.739 654.299, 410.094 658.212, 439.645 660.179 L 457.790 661.387 447.337 672.560 C 415.491 706.597, 399.886 735.336, 390.626 777 C 384.188 805.967, 383.187 831.017, 386.928 869.500 C 388.212 882.700, 389.372 893.631, 389.506 893.792 C 389.640 893.952, 407.242 893.401, 428.621 892.566 C 458.561 891.397, 467.723 890.740, 468.496 889.707 C 469.048 888.970, 474.085 883.221, 479.689 876.933 C 496.372 858.213, 518.336 839.367, 535.679 828.892 C 549.370 820.622, 581.607 805.802, 615 792.425 C 623.525 789.010, 630.424 785.830, 630.332 785.358 C 630.090 784.121, 596.753 694.580, 596.353 694.093 C 595.966 693.621, 570.966 703.499, 552.309 711.495 C 545.264 714.514, 538.991 716.988, 538.368 716.992 C 537.746 716.996, 527.675 704.350, 515.988 688.890 C 493.925 659.703, 493.580 659.053, 500.151 659.015 C 504.983 658.987, 526.288 655.010, 541 651.390 C 562.231 646.166, 594.534 635.178, 637 618.737 C 657.625 610.752, 675.560 603.899, 676.856 603.508 L 679.211 602.798 678.856 646.046 L 678.500 689.294 698.451 688.608 C 755.874 686.633, 799.774 680.280, 834.292 668.948 C 886.706 651.742, 913.992 622.757, 915.734 582.434 C 917.560 540.184, 892.516 506.160, 848.834 491.543 C 829.867 485.196, 817.281 483.550, 787.500 483.524 C 764.407 483.503, 744.188 484.793, 737.514 486.713 C 736.421 487.028, 738.896 484.572, 743.014 481.256 C 760.536 467.147, 775.858 448.339, 783.510 431.547 C 789.555 418.282, 791.162 411.127, 791.716 395 C 792.144 382.543, 791.916 379.249, 790.096 371.623 C 784.560 348.427, 769.630 327.475, 748.847 313.739 C 738.261 306.743, 732.725 303.998, 721.500 300.183 C 705.544 294.759, 697.337 293.499, 678 293.507 C 663.498 293.513, 658.768 293.901, 650.389 295.774 C 641.852 297.681, 628.471 301.759, 621.750 304.500 C 620.282 305.099, 620 304.653, 620 301.729 C 620 297.350, 621.061 296.509, 628.500 294.996 C 638.404 292.981, 669.583 283.518, 684.515 277.995 C 708.049 269.290, 740.314 255.149, 765 242.722 C 777.925 236.215, 788.820 230.573, 789.211 230.185 C 789.715 229.684, 743.462 146.214, 741.615 144.290 C 741.504 144.175, 731.758 148.927, 719.957 154.850 C 694.065 167.845, 666.174 179.821, 644.313 187.331 L 628.130 192.891 627.462 187.195 C 625.295 168.708, 619.133 144.908, 611.448 125.337 C 606.799 113.499, 592.430 84.420, 589.208 80.332 C 587.500 78.164, 587.496 78.167, 547.800 104.332 M 672.927 392.160 C 659.462 393.909, 633.717 406.923, 613.100 422.405 C 602.778 430.156, 586.646 444.382, 587.759 444.753 C 588.267 444.922, 593.999 443.450, 600.497 441.480 C 639.566 429.637, 669.421 415.214, 686 400.171 C 689.726 396.791, 691.177 394.846, 690.500 394.143 C 688.907 392.488, 679.004 391.371, 672.927 392.160 M 766 582.633 C 764.625 582.832, 757.660 583.749, 750.522 584.671 C 743.384 585.593, 738.109 586.536, 738.800 586.767 C 740.093 587.198, 763.098 584.479, 770.397 583.032 C 773.650 582.388, 773.878 582.225, 771.500 582.246 C 769.850 582.260, 767.375 582.435, 766 582.633 M 733.813 587.683 C 734.534 587.972, 735.397 587.936, 735.729 587.604 C 736.061 587.272, 735.471 587.036, 734.417 587.079 C 733.252 587.127, 733.015 587.364, 733.813 587.683 M 803.035 690.383 L 757.570 701.541 757.456 717.520 C 757.309 738.271, 755.015 748.883, 747.195 765 C 736.864 786.292, 704.794 806.340, 655.500 822.323 C 641.708 826.795, 619.237 832.721, 607.500 834.982 C 604.200 835.618, 600.801 836.334, 599.947 836.574 C 598.601 836.952, 599.411 843.435, 606.032 885.255 L 613.670 933.500 617.585 933.335 C 626.607 932.956, 666.190 922.941, 690 915.014 C 754.162 893.653, 799.043 864.577, 824.770 827.706 C 830.232 819.879, 839.073 802.601, 843.555 790.996 C 855.739 759.446, 859.751 718.917, 853.971 685.750 C 852.937 679.814, 852.536 679.014, 850.647 679.113 C 849.466 679.175, 828.041 684.246, 803.035 690.383 " stroke="none" fill="black" fill-rule="evenodd"/>
</svg>