<svg xmlns="http://www.w3.org/2000/svg" width="1000" height="1000" viewBox="0 0 1000 1000" version="1.1">
	<path d="M 526.325 79.761 C 523.680 87.386, 514.064 108.594, 506.484 123.524 C 473.668 188.157, 432.064 240.446, 386.178 274.731 C 380.855 278.708, 376.088 281.833, 375.584 281.675 C 375.080 281.518, 373.653 277.589, 372.414 272.945 C 361.703 232.799, 343.889 209.456, 312.500 194.434 C 292.430 184.830, 277.400 181.546, 253.500 181.546 C 228.859 181.546, 211.998 185.450, 191 196.014 C 154.837 214.209, 123.976 251.724, 113.605 290.096 C 98.464 346.118, 124.027 396.246, 177.237 414.876 C 194.889 421.056, 205.628 422.504, 233.500 422.464 C 256.944 422.430, 266.551 421.686, 286.144 418.386 L 289.788 417.773 290.541 429.636 C 291.292 441.494, 290.570 535.731, 289.341 586.276 L 288.689 613.051 272.595 626.421 C 263.743 633.775, 251.775 643.852, 246 648.815 L 235.500 657.839 234.854 638.170 C 233.666 602.019, 227.786 572.231, 215.631 540.785 C 211.241 529.429, 201.877 509.934, 197.424 502.879 L 195.025 499.080 154.763 525.665 C 132.618 540.287, 114.117 552.599, 113.650 553.026 C 113.182 553.452, 113.935 555.758, 115.323 558.150 C 121.537 568.860, 128.850 589.775, 132.577 607.500 C 135.703 622.369, 136.862 647.529, 135.110 662.513 C 132.487 684.955, 124.223 720.283, 115.348 747 C 109.129 765.720, 103.264 779.313, 91.687 801.838 C 83.352 818.054, 81.969 821.382, 83.124 822.453 C 84.199 823.451, 146.988 873.604, 151.582 877.135 C 152.270 877.663, 159.346 870.691, 171.016 857.983 C 181.109 846.992, 189.739 838, 190.194 838 C 191.301 838, 210.856 850.110, 219 855.839 C 245.872 874.742, 274.521 898.364, 314.399 934.500 C 330.180 948.800, 343.409 960.611, 343.796 960.748 C 344.183 960.884, 352 943.535, 361.167 922.195 L 377.834 883.395 378.914 858.947 C 380.454 824.120, 382.774 761.112, 383.957 722 C 384.515 703.575, 385.244 682.613, 385.579 675.418 L 386.187 662.337 392.843 657.297 C 435.132 625.281, 484.209 594.305, 525 573.886 C 579.071 546.818, 623.506 533.852, 662.500 533.764 C 679.540 533.725, 689.070 535.329, 700.850 540.219 C 736.622 555.067, 758.923 598.340, 758.972 653 C 758.978 659.875, 758.532 669.550, 757.979 674.500 C 757.065 682.692, 754.175 699.083, 753.520 699.792 C 753.371 699.952, 750.393 698.409, 746.900 696.362 C 738.033 691.165, 716.495 681.049, 704 676.213 C 681.344 667.444, 656.157 661.257, 631.500 658.404 C 610.555 655.980, 578.789 656.888, 562.388 660.380 C 522.979 668.771, 492.039 688.491, 472.011 717.984 C 439.152 766.371, 445.809 831.009, 487.975 873 C 524.711 909.583, 578.757 924.569, 644.412 916.378 C 696.167 909.921, 736.630 891.821, 772.443 859.109 C 777.325 854.649, 781.642 851, 782.037 851 C 782.990 851, 799.785 871.171, 809.379 883.841 C 817.475 894.531, 835 920.743, 835 922.162 C 835 922.623, 835.486 923, 836.080 923 C 838.069 923, 922 876.646, 922 875.547 C 922 874.235, 907.641 851.573, 898.518 838.488 C 884.772 818.773, 864.823 794.425, 847.541 776.271 L 836.852 765.042 841.349 751.771 C 857.621 703.756, 861.848 654.973, 853.893 607 C 839.859 522.367, 789.410 461.502, 716.801 441.602 C 677.739 430.896, 627.543 433.128, 575.500 447.884 C 543.700 456.901, 515.915 468.100, 478.500 486.982 C 446.893 502.934, 421.437 517.726, 391.959 537.272 L 389.417 538.957 389.459 483.228 C 389.481 452.578, 389.146 418.725, 388.712 408 L 387.925 388.500 396.697 384.041 C 463.126 350.274, 524.048 289.174, 573.223 207 C 588.840 180.903, 603.749 151.229, 615.083 123.687 L 619.944 111.875 616.722 110.539 C 614.950 109.805, 595.275 102.668, 573 94.680 C 550.725 86.691, 531.246 79.676, 529.714 79.089 C 527.375 78.193, 526.832 78.301, 526.325 79.761 M 695 286.265 C 685.925 311.144, 678.500 331.881, 678.500 332.347 C 678.500 332.813, 683.675 335.551, 690 338.432 C 747.958 364.826, 796.418 408.965, 816.574 453.720 C 818.997 459.099, 821.546 463.500, 822.239 463.500 C 822.933 463.500, 843.638 456.092, 868.250 447.039 C 899.125 435.681, 913 430.127, 913 429.126 C 913 426.939, 903.385 405.710, 897.770 395.500 C 866.807 339.199, 811.867 289.023, 743.828 254.907 C 728.407 247.175, 714.534 240.991, 712.661 241.015 C 712.023 241.023, 704.075 261.385, 695 286.265 M 240.287 281.943 C 230.350 285.584, 221.479 293.363, 214.091 304.914 C 209.930 311.420, 207.459 318.147, 208.364 320.507 C 210.264 325.457, 244.176 325.377, 272.250 320.357 C 280.050 318.962, 280.999 318.559, 280.993 316.646 C 280.983 313.729, 277.425 298.934, 274.859 291.142 C 272.910 285.225, 272.443 284.639, 268.132 282.703 C 261.491 279.721, 247.400 279.336, 240.287 281.943 M 273.333 756.310 C 267.741 761.365, 263.137 765.725, 263.103 766 C 263.068 766.275, 267.490 769.536, 272.930 773.247 L 282.821 779.993 283.481 771.747 C 283.845 767.211, 283.997 759.815, 283.821 755.310 L 283.500 747.121 273.333 756.310 M 587.723 756.059 C 569.983 758.514, 555.876 766.873, 551.403 777.578 C 546.350 789.672, 554.597 804.705, 570.320 812.063 C 582.877 817.938, 590.585 819.312, 611 819.311 C 639.132 819.309, 659.260 815.048, 679 804.913 C 689.084 799.736, 704.500 788.803, 704.500 786.830 C 704.500 785.212, 684.921 775.015, 671.335 769.557 C 644.537 758.792, 609.196 753.086, 587.723 756.059 " stroke="none" fill="black" fill-rule="evenodd"/>
</svg>