<svg xmlns="http://www.w3.org/2000/svg" width="1000" height="1000" viewBox="0 0 1000 1000" version="1.1">
	<path d="M 570.984 61.656 C 570.949 65.638, 560.213 152.846, 559.644 153.766 C 558.740 155.230, 532.714 170.607, 514.500 180.439 C 496.463 190.175, 452.339 212.142, 429 223.004 C 392.865 239.820, 365.646 251.979, 365.179 251.512 C 364.758 251.092, 372.997 175.788, 374.647 164.968 L 375.186 161.437 362.843 159.145 C 347.719 156.336, 335.766 152.909, 333.623 150.766 C 332.067 149.210, 253.104 101.361, 250.345 100.302 C 249.402 99.940, 247.766 102.392, 245.107 108.148 C 230.310 140.174, 229.383 171.099, 242.427 197.500 C 252.646 218.183, 269.600 232.399, 296.732 243.034 C 308.841 247.781, 328.827 253.410, 341.750 255.713 C 346.837 256.620, 351 257.646, 351 257.992 C 351 258.794, 270.606 293.185, 232.704 308.598 C 204.292 320.152, 203.917 320.342, 204.505 322.904 C 204.833 324.332, 211.303 345.525, 218.882 370 C 232.298 413.326, 232.726 414.492, 235.081 414.190 C 239.439 413.631, 361.943 387.939, 376.901 384.447 C 378.638 384.041, 377.946 384.915, 374.401 387.605 C 348.054 407.595, 323.999 430.201, 311.728 446.504 C 303.467 457.479, 295.715 472.769, 292.972 483.500 C 287.891 503.376, 291.814 525.192, 303.378 541.371 C 319.495 563.920, 347.968 577.922, 390 583.967 C 404.478 586.049, 429.455 588, 441.640 588 L 449.121 588 448.810 591.678 L 448.500 595.356 429.500 602.531 C 353.819 631.114, 273.996 674.256, 214.151 718.922 C 207.358 723.991, 201.202 728.369, 200.470 728.650 C 195.672 730.491, 194.707 695.172, 198.636 661.482 L 199.221 656.463 182.360 653.732 C 173.087 652.229, 151.405 648.708, 134.177 645.906 C 116.950 643.105, 102.609 641.057, 102.310 641.356 C 101.418 642.249, 99.296 660.394, 97.964 678.526 C 95.179 716.436, 98.949 745.644, 109.883 770.854 C 120.211 794.665, 134.752 814.482, 164.864 845.786 C 184.761 866.469, 187.445 868.916, 188.882 867.683 C 189.772 866.919, 200.175 858.123, 212 848.135 C 223.825 838.148, 238 826.101, 243.500 821.364 C 270.760 797.886, 313.644 768.878, 356.156 745.158 C 374.512 734.916, 413.274 715.842, 431.500 708.081 L 445.500 702.120 446.184 755.310 C 446.840 806.412, 448.815 897.216, 449.277 897.548 C 449.719 897.866, 533.679 894.989, 540.798 894.412 L 548.096 893.820 547.516 883.160 C 546.417 862.979, 545 771.611, 545 720.965 L 545 670.226 558.750 667.617 C 589.511 661.782, 608.304 659.949, 637.380 659.945 C 658.780 659.942, 670.811 660.800, 688 663.554 C 723.386 669.222, 761.048 684.180, 785.713 702.362 C 800.774 713.463, 801.919 727.243, 789.362 746.254 C 776.084 766.357, 743.300 791.151, 707.718 808 C 701.330 811.025, 696.080 813.864, 696.051 814.308 C 696.005 815.036, 732.595 896.384, 735.361 901.703 C 736.499 903.890, 736.609 903.857, 750.503 897.110 C 776.192 884.637, 801.436 869.107, 822 853.126 C 833.491 844.197, 852.532 825.577, 861.459 814.542 C 910.077 754.441, 908.650 683.262, 857.849 634.502 C 833.951 611.564, 787.683 587.375, 744.216 575.095 C 712.595 566.161, 675.855 561, 643.874 561 C 631.374 561, 631.025 560.941, 630.549 558.750 C 630.280 557.513, 628.437 545.700, 626.452 532.500 C 623.027 509.722, 622.621 508.031, 618.479 499.280 C 612.802 487.286, 607.417 479.461, 598.201 469.815 C 585.027 456.026, 571.644 447.645, 554.288 442.314 C 546.334 439.871, 543.982 439.611, 529.500 439.576 C 517.338 439.547, 511.941 439.956, 507 441.282 C 487.043 446.637, 471.425 461.686, 463.792 482.917 L 461.500 489.291 438 488.687 C 425.075 488.356, 413.266 487.726, 411.757 487.289 C 409.062 486.507, 409.173 486.361, 418.092 478.997 C 472.990 433.663, 580.190 369.111, 709.500 303.520 C 729.850 293.198, 746.863 284.423, 747.306 284.021 C 747.943 283.441, 697.214 204.184, 693.890 200.566 C 693.218 199.835, 655.013 209.633, 646 212.847 C 645.175 213.142, 647.425 210.210, 651 206.332 C 658.945 197.714, 667.180 183.543, 671.238 171.503 C 675.472 158.945, 676.207 143.255, 673.138 130.975 C 664.893 97.983, 638.673 75.829, 594.500 64.530 C 587.350 62.701, 579.138 60.891, 576.250 60.508 C 571.566 59.887, 570.998 60.011, 570.984 61.656 " stroke="none" fill="black" fill-rule="evenodd"/>
</svg>