<svg xmlns="http://www.w3.org/2000/svg" width="1000" height="1000" viewBox="0 0 1000 1000" version="1.1">
	<path d="M 355 54.577 C 327.223 69.512, 305.908 84.894, 288 102.926 C 281.125 109.849, 272.935 119.129, 269.801 123.548 C 247.813 154.547, 240.996 185.650, 248.332 221.500 C 249.795 228.650, 250.994 234.784, 250.996 235.132 C 250.998 235.480, 247.063 236.986, 242.250 238.480 C 216.562 246.452, 136 279.428, 136 281.971 C 136 282.814, 176.733 369.067, 177.488 369.821 C 178.057 370.391, 179.854 369.670, 202 359.983 C 223.714 350.485, 235.206 345.872, 235.763 346.429 C 236.317 346.983, 211.654 379.275, 192.782 402.706 C 171.568 429.044, 156.146 445.845, 135.762 464.822 L 117.156 482.144 149.281 525.222 L 181.406 568.300 205.953 543.053 L 230.500 517.806 235.225 523.307 C 244.490 534.094, 250.720 544.077, 266.973 574.182 L 283.447 604.694 324.973 620.358 C 347.813 628.974, 366.965 636.017, 367.532 636.011 C 368.843 635.997, 384.075 581.619, 387.439 564.943 C 395.884 523.083, 400.539 464.534, 398.111 430.733 C 397.430 421.255, 396.312 409.744, 395.626 405.153 L 394.379 396.805 411.701 386.653 C 423.716 379.611, 428.908 376.040, 428.648 375 C 428.441 374.175, 419.702 358.676, 409.229 340.557 L 390.187 307.614 400.683 293.853 L 411.178 280.092 401.707 245.497 C 396.497 226.469, 392.052 210.718, 391.828 210.495 C 391.604 210.271, 381.866 211.258, 370.187 212.688 C 358.509 214.117, 348.667 215.001, 348.317 214.651 C 347.405 213.739, 344.052 198.053, 344.024 194.566 C 343.925 182.400, 368.003 159.610, 397.677 143.783 L 405.854 139.422 386.095 94.961 C 374.669 69.249, 365.738 50.396, 364.918 50.253 C 364.138 50.117, 359.675 52.063, 355 54.577 M 716 198.020 C 689.709 202.672, 658.856 218.237, 640.369 236.175 L 636.238 240.183 629.984 235.144 C 617.285 224.911, 601.710 219.280, 583.422 218.308 C 569.595 217.574, 559.118 219.038, 544.759 223.711 C 536.076 226.537, 533.933 227.597, 534.309 228.883 C 534.569 229.772, 543.645 249.324, 554.477 272.331 C 565.309 295.338, 573.908 314.426, 573.585 314.748 C 573.263 315.070, 571.293 313.963, 569.208 312.287 L 565.417 309.241 565.808 324.370 C 566.133 336.930, 565.668 343.812, 563.069 364.886 C 561.347 378.848, 560.122 390.455, 560.347 390.680 C 560.817 391.150, 659.266 406.090, 659.553 405.735 C 659.657 405.606, 662.978 394.925, 666.933 382 C 674.909 355.933, 679.818 344.581, 689.342 330.188 C 705.797 305.320, 721.769 294.693, 742.482 294.829 C 760.221 294.946, 770.959 300.435, 777 312.476 L 780.500 319.453 780.495 333.476 C 780.491 346.649, 780.301 348.032, 777.361 356.261 C 772.688 369.340, 768.679 375.313, 756 388.083 C 738.814 405.392, 715.277 420.057, 681.500 434.500 C 659.892 443.740, 614.753 457.671, 592.250 462.045 C 588.813 462.713, 586 463.592, 586 463.996 C 586 464.401, 589.600 485.605, 593.999 511.116 C 598.399 536.627, 601.999 557.820, 601.999 558.211 C 602.001 559.837, 562.818 571.152, 561.557 569.890 C 561.340 569.673, 559.557 557.347, 557.595 542.498 C 551.213 494.200, 551.898 497.995, 549.568 498.040 C 545.924 498.110, 455.029 511.637, 454.475 512.192 C 454.181 512.486, 455.520 524.375, 457.450 538.613 C 459.380 552.851, 461.115 565.737, 461.306 567.250 C 461.588 569.481, 461.261 569.998, 459.577 569.991 C 455.588 569.975, 428.403 564.073, 416.500 560.640 C 409.900 558.736, 403.862 557.026, 403.082 556.839 C 402.053 556.593, 396.808 569.043, 383.926 602.310 C 366.452 647.440, 366.222 648.134, 368.452 648.982 C 388.500 656.604, 425.996 665.302, 455.644 669.208 L 472.788 671.467 473.405 677.983 C 475.147 696.354, 475.983 721.163, 475.991 754.750 C 475.996 775.237, 475.748 792, 475.441 792 C 475.133 792, 471.421 789.371, 467.191 786.158 C 459.559 780.361, 437.383 765.285, 433.450 763.220 C 431.539 762.217, 429.722 764.946, 406.750 803.322 C 393.192 825.970, 381.965 845.029, 381.800 845.677 C 381.635 846.324, 386.675 850.316, 393 854.549 C 416.969 870.590, 436.812 887.746, 450.854 904.569 C 455.113 909.672, 465.026 924.227, 472.882 936.914 C 484.926 956.364, 487.428 959.835, 488.833 959.047 C 489.750 958.533, 508.500 946.050, 530.500 931.306 L 570.500 904.500 571.145 893.500 C 574.467 836.888, 575.643 716.867, 573.178 686.150 C 572.456 677.158, 572.065 669.602, 572.309 669.358 C 572.552 669.115, 578.095 667.811, 584.626 666.461 C 614.617 660.260, 647.167 648.381, 671.035 634.926 L 679.948 629.902 674.629 621.701 C 671.703 617.190, 660.661 600.291, 650.091 584.147 C 639.521 568.002, 631.014 554.701, 631.187 554.587 C 631.359 554.474, 638.700 552.442, 647.500 550.072 C 707.139 534.010, 762.646 508.790, 799.802 480.873 C 854.791 439.557, 882.135 386.543, 879.684 326 C 876.548 248.562, 819.874 195.662, 740.500 196.087 C 731.613 196.134, 722.666 196.840, 716 198.020 M 665.556 678.144 C 664.851 680.209, 642.171 768.241, 641.813 770.301 C 641.562 771.746, 643.475 772.853, 651.500 775.903 C 676.065 785.239, 695.873 797.804, 713.068 814.959 C 727.544 829.401, 739.838 844.121, 749.959 859.130 L 757.802 870.761 801.036 847.912 C 824.814 835.346, 844.416 824.917, 844.595 824.738 C 845.168 824.166, 831.763 803.331, 824.018 792.755 C 806.610 768.982, 777.326 737.932, 758.890 723.700 C 738.022 707.590, 708.809 691.584, 683.973 682.654 C 667.846 676.855, 666.138 676.437, 665.556 678.144 M 331.243 696.279 C 315.716 720.290, 292.621 748.910, 278.627 761.484 C 250.805 786.484, 220.426 805.328, 183.321 820.603 C 181.165 821.490, 181.289 822.018, 194.526 868.373 C 201.888 894.153, 208.092 915.425, 208.312 915.645 C 208.532 915.865, 212.638 914.660, 217.437 912.966 C 254.587 899.853, 299.427 873.206, 335.500 842.804 C 353.166 827.914, 375.240 803.847, 393.322 779.759 C 401.974 768.233, 420.027 741.783, 422.483 737.032 L 423.853 734.384 381.984 709.692 C 358.956 696.111, 339.752 685.013, 339.308 685.029 C 338.863 685.045, 335.235 690.108, 331.243 696.279 " stroke="none" fill="black" fill-rule="evenodd"/>
</svg>