<svg xmlns="http://www.w3.org/2000/svg" width="1000" height="1000" viewBox="0 0 1000 1000" version="1.1">
	<path d="M 602.627 57.794 C 601.834 59.078, 569 148.176, 569 149.046 C 569 149.451, 570.033 150.042, 571.295 150.359 C 574.576 151.183, 585.951 158.710, 586.645 160.517 C 587.791 163.504, 567.273 197.500, 546.349 227.279 C 532.033 247.656, 507.611 280.042, 488.119 304.500 L 472.180 324.500 475.916 328.500 C 477.970 330.700, 493.720 347.471, 510.914 365.769 L 542.177 399.038 544.504 397.269 C 545.784 396.296, 557.332 386.680, 570.166 375.899 C 593.716 356.117, 619.824 335.476, 620.456 336.140 C 620.644 336.338, 620.399 338.975, 619.910 342 C 617.215 358.682, 616.866 374.395, 618.432 408.403 C 620.963 463.342, 621.914 490.290, 622.635 527.519 L 623.313 562.539 604.406 565.387 C 549.351 573.682, 494.215 587.475, 435.355 607.676 L 404.209 618.366 413.703 645.933 C 418.925 661.095, 424.269 676.589, 425.578 680.365 C 428.405 688.516, 452.240 735.499, 467.500 763 C 515.827 850.092, 553.708 898.820, 585.991 915.422 C 601.929 923.618, 616.238 926.378, 630.917 924.087 C 645.585 921.799, 658.057 915.176, 669.514 903.592 C 687.070 885.841, 698.399 860.096, 706.518 819.500 C 714.001 782.085, 718.908 733.332, 720.637 679.250 C 721.423 654.632, 719.558 657.116, 735.458 659.513 C 767.415 664.329, 800.821 676.619, 818.662 690.123 C 822.122 692.742, 825.174 694.527, 825.444 694.091 C 825.714 693.654, 843.488 680.357, 864.943 664.542 L 903.952 635.787 899.040 630.139 C 890.162 619.933, 873.520 606.881, 858.210 598.120 C 823.730 578.389, 781.864 565.222, 738.147 560.362 L 722.243 558.594 721.582 530.547 C 720.627 490.071, 719.204 449.390, 717.384 410.500 C 715.392 367.951, 715.989 357.960, 721.655 339 C 727.147 320.622, 736.786 304.340, 750.751 289.852 C 767.578 272.396, 777.988 265.609, 807.267 253.007 C 818.120 248.335, 827 244.086, 827 243.564 C 827 241.685, 801.743 143.482, 801.068 142.739 C 799.970 141.528, 713.096 174.005, 689.596 184.412 C 686.349 185.849, 683.579 186.908, 683.441 186.763 C 683.303 186.618, 684.077 183.125, 685.160 179 C 687.895 168.593, 688.110 150.295, 685.624 139.575 C 681.367 121.222, 672.952 106.781, 657.578 91.450 C 646.359 80.261, 633.213 70.998, 617.500 63.209 C 606.061 57.538, 603.387 56.564, 602.627 57.794 M 190.627 108.250 C 185.657 135.361, 158.146 325.495, 149.064 395.500 C 128.444 554.446, 124.846 620.793, 132.553 700 C 137.771 753.633, 150.353 807.686, 166.306 845 C 170.391 854.557, 201.803 911.853, 203.014 911.956 C 203.586 912.005, 268.712 863.589, 270.867 861.512 C 271.636 860.771, 273.462 852.827, 275.043 843.348 C 281.286 805.918, 293.948 758.643, 308.484 718.500 C 311.073 711.350, 321.663 684.800, 332.019 659.500 C 360.499 589.919, 371.001 563.802, 370.986 562.595 C 370.979 561.993, 350.524 553.340, 325.531 543.367 L 280.089 525.233 277.160 532.367 C 275.548 536.290, 265.340 561.325, 254.474 588 C 243.608 614.675, 233.195 640.100, 231.332 644.500 L 227.946 652.500 228.381 612.500 C 228.811 572.964, 229.379 563.413, 234.037 517.500 C 241.557 443.361, 260.842 301.268, 282.354 161.500 C 285.825 138.950, 288.594 120.391, 288.507 120.258 C 288.303 119.945, 194.312 105, 192.551 105 C 191.820 105, 190.954 106.463, 190.627 108.250 M 602.500 665.600 C 588.966 667.968, 540.659 678.451, 536.939 679.827 C 535.323 680.425, 536.302 682.712, 545.360 699.502 C 558.165 723.236, 569.077 742.276, 580.916 761.541 C 591.152 778.197, 606.980 801.160, 608.596 801.699 C 612.373 802.958, 622 709.729, 622 671.889 L 622 663 619.250 663.075 C 617.737 663.117, 610.200 664.253, 602.500 665.600 " stroke="none" fill="black" fill-rule="evenodd"/>
</svg>