<svg xmlns="http://www.w3.org/2000/svg" width="1000" height="1000" viewBox="0 0 1000 1000" version="1.1">
	<path d="M 256.526 69.250 C 254.749 79.487, 246.042 161.917, 246.512 164.056 C 246.909 165.861, 245.846 169.075, 242.916 174.927 C 232.041 196.657, 204.920 225.173, 167.238 254.500 C 154.518 264.400, 144.198 272.793, 144.305 273.151 C 144.412 273.509, 156.658 286.559, 171.517 302.151 C 186.376 317.743, 200.938 333.071, 203.876 336.212 L 209.219 341.925 204.776 347.212 C 178.202 378.842, 158.965 414.393, 154.969 439.261 C 153.410 448.963, 154.211 467.474, 156.516 475 C 165.062 502.910, 187.649 522.261, 219.016 528.543 C 223.682 529.478, 227.658 530.383, 227.851 530.555 C 228.043 530.727, 219.868 551.710, 209.683 577.184 C 188.138 631.069, 167.920 683.477, 144.122 747.126 C 124.805 798.791, 99 869.546, 99 870.846 C 99 871.680, 188.339 904.028, 190.590 904.009 C 191.190 904.004, 197.204 888.813, 203.955 870.250 C 221.707 821.440, 242.366 766.033, 242.692 766.359 C 242.847 766.513, 242.488 771.783, 241.895 778.070 C 237.934 820.044, 254.352 861.021, 283.909 882.933 C 291.674 888.689, 306.376 895.828, 315.741 898.391 C 324.498 900.787, 339.503 901.865, 350.271 900.871 C 410.685 895.296, 466.144 837.378, 480.891 764.458 C 484.078 748.698, 485.001 738.786, 484.982 720.526 C 484.938 680.183, 474.887 645.531, 454.509 615.476 C 450.929 610.196, 448 605.628, 448 605.326 C 448 604.495, 462.598 586.032, 473.942 572.515 C 479.474 565.924, 484 560.203, 484 559.802 C 484 558.853, 412.945 494, 411.906 494 C 410.385 494, 384.133 525.786, 364.732 551.117 L 355.069 563.735 348.284 564.434 C 344.553 564.819, 336.550 566.398, 330.500 567.944 C 324.450 569.490, 319.356 570.628, 319.180 570.474 C 318.840 570.176, 339.127 521.588, 341.540 516.922 C 342.476 515.113, 344.087 513.929, 346.233 513.476 C 356.373 511.331, 411.328 492.220, 439.500 481.041 C 457.840 473.763, 503.234 453.554, 503.644 452.485 C 504.411 450.485, 491.236 392.817, 488.468 386.061 C 480.407 366.384, 467.531 345.883, 455.650 333.812 C 436.597 314.454, 417.393 305.629, 394.137 305.542 L 382.775 305.500 388.637 300.183 C 391.862 297.258, 407.438 283.891, 423.250 270.477 L 452 246.089 420.401 212.545 C 403.022 194.095, 388.664 179, 388.494 179 C 388.188 179, 344.950 193.698, 342.575 194.610 C 341.673 194.956, 341.844 193.089, 343.199 187.793 C 355.918 138.095, 333.273 92.665, 286.430 73.908 C 279.215 71.019, 261.436 66, 258.417 66 C 257.688 66, 256.837 67.463, 256.526 69.250 M 635.745 98.250 C 635.957 102.787, 636.937 124.703, 637.922 146.952 C 639.163 174.995, 640.063 187.521, 640.856 187.785 C 641.485 187.995, 642 188.802, 642 189.579 C 642 194.604, 626.129 230.376, 610.312 261 C 589.062 302.143, 570.792 333.257, 544.356 373.318 C 534.260 388.617, 526 401.519, 526 401.988 C 526 402.457, 542.221 414.609, 562.047 428.993 L 598.094 455.145 617.297 446.159 C 650.686 430.535, 710.294 402.812, 715.676 400.405 L 720.852 398.091 720.390 426.295 C 720.135 441.808, 719.694 457.212, 719.408 460.527 L 718.889 466.553 708.874 469.944 C 688.631 476.796, 659.400 492.954, 642 506.909 C 633.402 513.805, 617.009 530, 611.035 537.500 C 596.456 555.805, 585.922 578.037, 582.483 597.760 C 580.652 608.257, 580.621 626.999, 582.417 637 C 584.925 650.965, 592.545 669.549, 601.526 683.602 L 604.786 688.705 594.305 700.102 C 554.233 743.676, 538 774.355, 538 806.516 C 538 820.583, 539.155 826.152, 544.838 839.500 C 556.964 867.978, 586.639 887.297, 631.582 895.970 C 676.195 904.580, 744.584 904.578, 827.694 895.965 C 847.788 893.883, 874.998 890.384, 875.439 889.826 C 875.883 889.262, 861.245 793.911, 860.617 793.284 C 860.289 792.955, 850.003 793.880, 837.760 795.338 C 759.515 804.655, 694.636 806.311, 656.203 799.972 C 649.766 798.910, 644.163 798.032, 643.750 798.021 C 641.690 797.964, 643.748 794.439, 651.392 784.935 C 656.008 779.196, 663.771 770.313, 668.642 765.195 L 677.500 755.889 691.023 762.889 C 704.933 770.090, 723.669 777.823, 732.511 780.014 C 736.353 780.966, 747.295 781.081, 779.419 780.507 L 821.316 779.759 820.661 751.130 C 820.301 735.383, 819.529 695.976, 818.945 663.557 L 817.884 604.615 823.903 592.557 C 837.013 566.294, 841.362 543.740, 837.531 521.881 C 835.145 508.260, 828.749 494.713, 820.716 486.267 L 817.641 483.035 818.853 433.767 C 820.113 382.566, 821.562 352.018, 822.787 350.841 C 823.179 350.464, 842.850 341.131, 866.500 330.101 C 890.413 318.949, 909.372 309.540, 909.211 308.906 C 909.052 308.279, 901.491 293.756, 892.409 276.633 C 878.737 250.854, 875.089 244.755, 871.198 241.170 C 843.680 215.808, 806.979 209.430, 776.522 224.718 C 764.165 230.921, 749.982 243.771, 742.194 255.821 C 738.100 262.155, 733.963 271.867, 731.964 279.839 L 730.875 284.178 717.296 290.614 C 709.828 294.155, 703.592 296.926, 703.439 296.772 C 703.286 296.619, 707.351 287.720, 712.472 276.997 C 733.990 231.947, 739.763 214.457, 741.522 189 C 743.497 160.408, 731.438 131.142, 710.588 113.927 C 692.574 99.054, 667.206 90, 643.548 90 L 635.359 90 635.745 98.250 M 273.653 419.250 C 269.444 424.887, 266 429.846, 266 430.269 C 266 431.096, 271.071 430.150, 272.154 429.121 C 272.909 428.403, 282.004 409, 281.584 409 C 281.431 409, 277.862 413.613, 273.653 419.250 M 709.382 579.868 C 699.606 586.733, 691.610 594.287, 686.422 601.558 C 682.077 607.645, 679.266 613.599, 680.264 614.598 C 680.537 614.870, 687.001 608.420, 694.630 600.264 C 708.215 585.739, 717.618 575, 716.750 575 C 716.510 575, 713.194 577.191, 709.382 579.868 M 372.213 711.721 C 349.323 746.401, 340.698 767.462, 340.565 789 C 340.529 794.775, 340.969 800.289, 341.542 801.253 C 342.512 802.887, 342.945 802.821, 347.858 800.289 C 372.919 787.376, 390.288 746.464, 386.079 710.261 C 384.008 692.446, 385.005 692.341, 372.213 711.721 " stroke="none" fill="black" fill-rule="evenodd"/>
</svg>