<svg xmlns="http://www.w3.org/2000/svg" width="1000" height="1000" viewBox="0 0 1000 1000" version="1.1">
	<path d="M 343.164 81.810 C 339.715 86.726, 292.906 160.082, 292.439 161.302 C 291.624 163.431, 335.015 187.063, 357.441 196.704 C 385.195 208.636, 405.924 214.701, 432.500 218.668 C 447.665 220.932, 506.238 221.276, 523 219.199 C 538.275 217.307, 557.342 214.065, 558.131 213.225 C 558.679 212.643, 537.566 118.128, 536.735 117.443 C 536.606 117.336, 533.125 117.840, 529 118.563 C 507.346 122.359, 470.423 123.519, 449 121.076 C 422.462 118.050, 391.630 106.102, 353.775 84.174 L 345.051 79.120 343.164 81.810 M 467.500 249.642 C 423.442 254.664, 383.059 265.233, 335.973 284.066 C 319.232 290.761, 318.179 291.337, 318.968 293.352 C 320.214 296.536, 358.882 380.215, 359.300 380.633 C 359.497 380.830, 365.247 378.720, 372.079 375.945 C 441.877 347.592, 509.527 339.030, 524.951 356.597 C 532.620 365.331, 539.179 383.764, 541.080 401.923 C 544.477 434.366, 532.482 473.360, 513.164 492.676 C 503.008 502.830, 492.277 506.961, 476 506.981 C 464.352 506.996, 453.271 505.043, 424.816 497.961 C 392.143 489.828, 380.976 487.997, 364.151 488.013 C 341.959 488.034, 325.649 492.506, 309.710 502.939 C 275.616 525.255, 257.716 566.486, 249.330 642.020 C 247.070 662.371, 246.740 728.515, 248.793 749.500 C 253.161 794.140, 259.969 835.410, 268.506 868.998 C 270.994 878.787, 285.758 929.160, 286.234 929.480 C 286.856 929.901, 363.381 912.013, 364.039 911.293 C 364.438 910.857, 368.699 904.425, 373.509 897 C 390.444 870.857, 415.700 837.028, 435.849 813.500 C 448.065 799.235, 471.643 775.377, 484.500 764.271 C 503.231 748.090, 551.771 709.434, 552.470 710.140 C 552.666 710.338, 551.975 716.322, 550.935 723.437 C 545.319 761.849, 546.647 796.897, 554.686 822.426 C 566.594 860.244, 595.540 887.836, 642.753 906.374 C 672.435 918.029, 722.325 926.917, 758.412 926.979 L 770.323 927 769.663 894.750 C 769.300 877.013, 769.003 855.004, 769.002 845.843 L 769 829.187 759.250 828.567 C 707.175 825.256, 669.366 815.187, 654.500 800.672 C 647.506 793.844, 646.459 789.367, 646.622 767 C 646.808 741.631, 652.403 709.100, 663.125 671.044 C 670.170 646.038, 674.723 632.531, 687.622 598.361 C 693.880 581.785, 698.996 567.835, 698.992 567.361 C 698.985 566.697, 651.074 551.090, 619.453 541.452 L 615.407 540.218 600.953 550.678 C 593.004 556.431, 585.150 562.099, 583.500 563.273 C 581.789 564.491, 583.194 562.503, 586.769 558.647 C 608.860 534.822, 624.575 504.603, 633.389 469 C 638.195 449.584, 640 434.435, 640 413.500 C 640 371.425, 629.864 335.563, 609.245 304.690 C 588.702 273.929, 559.230 256.246, 518.970 250.525 C 509.520 249.182, 476.505 248.615, 467.500 249.642 M 360.416 591.593 C 350.140 614.829, 344.152 666.991, 346.070 716.556 C 346.795 735.309, 348.781 761.028, 349.569 761.876 C 349.761 762.082, 351.174 760.738, 352.709 758.889 C 391.345 712.349, 428.791 678.999, 516.500 613.014 C 531.350 601.842, 544.172 592.081, 544.994 591.322 C 545.815 590.563, 542.890 591.500, 538.494 593.404 C 521.792 600.638, 503.773 604.613, 483.097 605.623 C 461.294 606.688, 439.081 603.576, 403.465 594.466 C 385.677 589.916, 367.337 586, 363.814 586 C 363.306 586, 361.777 588.517, 360.416 591.593 " stroke="none" fill="black" fill-rule="evenodd"/>
</svg>