<svg xmlns="http://www.w3.org/2000/svg" width="1000" height="1000" viewBox="0 0 1000 1000" version="1.1">
	<path d="M 313.160 63.288 C 295.285 103.007, 284.648 141.128, 282.361 173.668 L 281.713 182.884 249.606 204.560 C 231.948 216.482, 217.038 226.418, 216.472 226.640 C 215.345 227.083, 208.722 211.102, 207.080 203.975 C 204.713 193.703, 206.813 181.767, 213.554 167.176 C 215.449 163.074, 217 159.373, 217 158.951 C 217 158.529, 198.261 146.818, 175.358 132.926 C 135.713 108.878, 133.647 107.759, 132.277 109.584 C 128.324 114.848, 118.708 136.719, 114.628 149.727 C 109.240 166.904, 107.642 177.259, 107.642 195 C 107.642 213.894, 109.242 223.116, 116.048 243.470 C 120.336 256.292, 140.264 297.780, 142.558 298.661 C 143.304 298.947, 159.922 289.178, 179.486 276.953 C 199.050 264.727, 215.203 254.898, 215.381 255.112 C 215.559 255.325, 219.778 261.125, 224.757 268 C 236.601 284.354, 243.462 292.468, 261 310.864 C 268.975 319.229, 275.627 326.438, 275.783 326.884 C 276.136 327.899, 205.689 379.267, 141.225 425 C 118.043 441.446, 115.279 443.696, 116.324 445.265 C 122.126 453.972, 171.617 523.912, 172 523.945 C 172.275 523.969, 193.591 508.910, 219.369 490.480 C 245.146 472.050, 266.560 456.772, 266.955 456.528 C 267.349 456.284, 265.580 460.257, 263.022 465.356 C 253.353 484.636, 249.467 502.094, 250.304 522.500 C 250.913 537.349, 253.245 547.756, 258.372 558.500 C 281.210 606.363, 350.230 622.413, 424.449 597.119 C 432.177 594.486, 439.387 591.945, 440.470 591.474 C 441.554 591.003, 430.264 602.741, 415.383 617.559 C 390.787 642.049, 375.471 658.168, 361.391 674.384 L 356.281 680.269 344.391 678.582 C 337.851 677.654, 327.622 675.745, 321.659 674.339 L 310.819 671.782 314.015 668.485 L 317.211 665.187 285.522 628.343 C 268.094 608.080, 253.392 591.340, 252.853 591.145 C 251.394 590.618, 237.205 605.572, 229.789 615.454 C 184.292 676.075, 207.022 742.070, 281.500 765.588 C 286.450 767.151, 290.632 768.502, 290.793 768.591 C 290.954 768.680, 285.055 777.921, 277.683 789.126 C 252.332 827.664, 209.562 897.982, 210.769 899.139 C 211.491 899.832, 288.093 943.939, 293.075 946.531 L 295.650 947.870 303.983 933.685 C 331.130 887.470, 368.099 829.849, 393.700 793.852 L 404.117 779.203 413.309 778.536 C 447.826 776.029, 489.442 769.331, 528.905 759.932 C 535.728 758.307, 541.499 757.166, 541.730 757.396 C 541.960 757.627, 548.456 773.045, 556.165 791.658 C 563.873 810.271, 570.255 825.578, 570.346 825.673 C 570.437 825.767, 573.434 825.160, 577.006 824.322 C 581.414 823.289, 586.588 822.941, 593.112 823.241 C 609.996 824.016, 616.763 828.418, 636.050 851.168 C 654.154 872.524, 675.036 901.454, 691.508 928 C 695.774 934.875, 699.601 940.873, 700.012 941.330 C 700.633 942.019, 733.297 923.720, 776.740 898.344 L 785.980 892.946 780.321 883.723 C 752.696 838.700, 715.515 789.229, 691.467 765.500 C 676.804 751.031, 657.876 738.820, 641 732.941 C 637.425 731.695, 634.161 730.388, 633.748 730.036 C 633.334 729.683, 636.259 728.349, 640.248 727.069 C 654.745 722.420, 717.582 698.258, 719.794 696.482 C 720.046 696.279, 681.609 608.794, 680.429 606.885 C 680.193 606.503, 672.912 609.100, 664.250 612.655 C 633.249 625.380, 584.101 642.465, 551.500 651.852 C 528.394 658.504, 510.931 662.920, 511.524 661.961 C 512.910 659.719, 562.486 614.958, 576.250 603.523 C 578.862 601.352, 581 599.306, 581 598.976 C 581 598.646, 568.192 583.109, 552.537 564.448 C 528.201 535.438, 524.251 530.284, 525.287 528.890 C 560.886 481.026, 571.075 440.074, 558.974 393.500 C 555.688 380.853, 552.897 373.626, 545.750 359.256 C 542.947 353.622, 540.845 348.848, 541.077 348.648 C 542.420 347.492, 562.046 333.588, 578 322.490 C 618.665 294.202, 656.294 270.793, 681.813 257.905 C 690.373 253.581, 697.549 250.215, 697.758 250.425 C 698.509 251.175, 691.897 265.731, 685.942 276.440 C 682.605 282.440, 676.038 293.067, 671.350 300.054 L 662.824 312.759 674.084 349.129 C 680.277 369.133, 685.622 385.833, 685.962 386.240 C 686.302 386.647, 696.912 386.277, 709.540 385.417 C 747.163 382.855, 772.648 385.444, 791.250 393.716 C 796.502 396.052, 797 396.548, 797 399.441 C 797 406.226, 785.177 419.795, 769.325 431.201 C 746.384 447.708, 709.885 466.001, 673 479.479 C 667.225 481.589, 662.128 483.639, 661.674 484.034 C 661.220 484.429, 667.512 505.730, 675.657 531.369 C 689.384 574.582, 690.612 577.943, 692.483 577.377 C 699.744 575.182, 731.644 562.745, 743.402 557.525 C 811.859 527.134, 855.449 495.172, 878.491 458.470 C 884.910 448.245, 889.323 437.930, 892.777 425.074 C 895.062 416.569, 895.355 413.545, 895.403 398 C 895.463 379.010, 894.821 375.283, 888.800 359.648 C 880.692 338.594, 860.541 317.858, 836.352 305.677 C 827.680 301.310, 809.390 294.923, 798.500 292.459 C 794.100 291.464, 790.180 290.385, 789.788 290.062 C 789.396 289.740, 790.218 286.331, 791.613 282.488 C 798.938 262.319, 802.025 246.714, 802.094 229.500 C 802.202 202.656, 794.031 182.644, 776.059 165.737 C 759.193 149.871, 738.672 143.289, 711.929 145.167 C 670.833 148.053, 612.052 178.252, 513.500 247.110 C 507.450 251.337, 502.352 254.655, 502.170 254.484 C 501.989 254.313, 502.526 253.122, 503.364 251.837 C 504.202 250.552, 507.146 244.426, 509.906 238.224 C 522.596 209.710, 529.864 179.072, 531.605 146.750 L 532.292 134 529.896 134.003 C 528.578 134.005, 506.350 135.127, 480.500 136.497 C 454.650 137.868, 433.449 138.991, 433.388 138.994 C 433.326 138.997, 432.964 142.938, 432.585 147.750 C 430.488 174.334, 421.018 200.750, 406.214 221.311 C 400.523 229.216, 381.945 248, 379.819 248 C 378.436 248, 379.373 194.003, 381.024 178.500 C 383.227 157.820, 390.645 131.912, 401.019 108.663 C 403.730 102.587, 405.848 97.550, 405.724 97.469 C 404.994 96.995, 329.416 57.694, 324.353 55.156 L 318.206 52.075 313.160 63.288 M 440.300 423.640 C 395.637 458.421, 367.493 484.516, 355.793 501.996 L 350.770 509.500 358.787 509.789 C 379.837 510.547, 410.112 499.692, 430.859 483.946 C 449.919 469.480, 464.917 445.550, 464.982 429.500 C 465.006 423.490, 461.417 409, 459.904 409 C 459.461 409, 450.640 415.588, 440.300 423.640 " stroke="none" fill="black" fill-rule="evenodd"/>
</svg>