<svg xmlns="http://www.w3.org/2000/svg" width="1000" height="1000" viewBox="0 0 1000 1000" version="1.1">
	<path d="M 642.506 36.149 C 586.865 43.275, 516.363 86.265, 438.204 160.724 L 421.908 176.249 406.204 175.089 C 368.376 172.295, 351.918 167.343, 332.907 153.037 C 320.734 143.877, 306.666 126.866, 300.416 113.750 C 299.434 111.688, 298.375 110.011, 298.065 110.024 C 297.754 110.037, 277.025 117.191, 252 125.922 C 198.997 144.415, 203.678 140.626, 212.368 158 C 236.549 206.345, 278.364 243.728, 327.500 260.930 C 333.550 263.048, 338.500 265.018, 338.500 265.307 C 338.500 265.597, 333.755 271.384, 327.956 278.167 C 265.014 351.791, 240.972 394.710, 241.008 433.381 C 241.045 474.090, 269.432 509.074, 312.500 521.489 C 331.119 526.856, 337.196 527.501, 369 527.485 C 399.395 527.470, 401.418 527.320, 445.751 521.809 C 459.639 520.082, 471.281 518.948, 471.623 519.289 C 471.964 519.630, 471.932 522.812, 471.552 526.359 L 470.861 532.809 457.181 536.017 C 390.303 551.700, 315.950 585.995, 273.355 620.805 C 243.643 645.086, 230 668.457, 230 695.070 C 230 717.815, 238.701 737.056, 259.301 759.869 C 274.237 776.410, 291.873 791.518, 329.500 820.008 C 366.007 847.650, 399.978 876.649, 480.016 948.494 C 493.500 960.597, 505.288 971.098, 506.212 971.828 C 507.697 973.001, 511.494 970.056, 538.801 946.543 L 569.709 919.930 570.348 911.715 C 570.700 907.197, 570.991 889.284, 570.994 871.910 C 570.997 854.535, 571.294 832.875, 571.652 823.777 L 572.305 807.234 581.402 806.556 C 622.894 803.461, 708.989 790.002, 709.005 786.608 C 709.012 785.299, 686.843 692.673, 686.392 692.125 C 686.222 691.919, 678.752 693.159, 669.792 694.882 C 654.730 697.776, 629.089 701.901, 616 703.536 L 610.500 704.222 621.675 696.361 C 660.702 668.907, 678.890 641.405, 679.118 609.500 C 679.204 597.509, 677.832 589.337, 673.945 578.687 C 664.201 551.986, 641.732 533.275, 610.707 526.024 C 601.182 523.798, 585.916 522, 576.539 522 L 570 522 570.074 514.750 C 570.115 510.762, 570.452 505.531, 570.824 503.124 L 571.500 498.748 583 495.023 C 607.236 487.174, 646.446 471.945, 674.265 459.577 C 686.476 454.148, 744.082 427.180, 744.723 426.592 C 745.057 426.286, 713.095 371.592, 707.771 363.359 C 692.493 339.734, 673.069 315.111, 657 299 C 637.840 279.789, 622.059 269.144, 601.500 261.559 C 600.141 261.058, 604.625 259.767, 615.500 257.530 C 730.282 233.918, 785 193.394, 785 132 C 785 81.653, 745.256 43.346, 685.500 36.097 C 675.043 34.829, 652.602 34.856, 642.506 36.149 M 647 135.526 C 636.764 138.057, 613.111 149.127, 600 157.523 C 593.673 161.575, 593.044 161.633, 616.099 156.049 C 634.888 151.498, 652.737 145.812, 665.096 140.440 C 678.567 134.585, 678.507 133.986, 664.464 134.083 C 657.884 134.129, 650.025 134.778, 647 135.526 M 514.500 271.597 C 506.800 272.329, 492.211 273.299, 482.079 273.753 L 463.658 274.579 456.196 282.540 C 431.334 309.062, 394.748 351.302, 376.219 374.876 C 357.697 398.441, 340.658 425.058, 342.753 427.153 C 343.186 427.586, 348.031 428.449, 353.520 429.072 C 364.309 430.296, 379.537 429.796, 402.500 427.466 C 422.911 425.394, 474.387 418.740, 475.174 418.072 C 475.545 417.757, 476.563 411.200, 477.435 403.500 C 485.072 336.102, 501.334 295.411, 529.500 273.219 C 534.220 269.500, 535.326 269.619, 514.500 271.597 M 582.147 374.651 C 581.011 379.518, 579.784 385.391, 579.421 387.701 L 578.760 391.903 588.997 388.001 C 594.627 385.855, 599.463 383.870, 599.744 383.590 C 600.350 382.983, 593.786 375.063, 588.192 369.651 L 584.213 365.802 582.147 374.651 M 456.500 638.347 C 424.009 648.199, 388.186 663.818, 360.753 680.093 C 349.696 686.653, 336.043 696.081, 336.016 697.175 C 335.992 698.173, 351.405 712.019, 361.608 720.165 C 366.499 724.070, 380.210 734.597, 392.077 743.559 C 416.002 761.625, 449.349 789.078, 470.750 808.325 L 473 810.349 472.974 798.424 L 472.948 786.500 467.842 783.035 C 460.593 778.115, 448.517 765.867, 443.951 758.803 C 433.464 742.577, 431.600 723.923, 438.684 706.083 C 440.122 702.462, 442.668 697.475, 444.342 695 C 448.829 688.366, 458.539 678.531, 466.235 672.826 L 473 667.811 472.991 656.155 C 472.982 643.887, 472.138 633.965, 471.111 634.051 C 470.775 634.079, 464.200 636.012, 456.500 638.347 " stroke="none" fill="black" fill-rule="evenodd"/>
</svg>