<svg xmlns="http://www.w3.org/2000/svg" width="1000" height="1000" viewBox="0 0 1000 1000" version="1.1">
	<path d="M 351.569 95.260 C 341.157 117.942, 331.964 137.957, 331.140 139.737 C 330.316 141.518, 329.892 143.226, 330.199 143.532 C 330.505 143.839, 340.432 148.292, 352.259 153.429 C 410.283 178.633, 456.037 194.683, 483.500 199.469 C 499.665 202.286, 528.216 203.271, 579.756 202.790 C 607.397 202.533, 630.275 202.058, 630.597 201.737 C 631.144 201.189, 628.735 133.896, 627.419 113 L 626.821 103.500 575.246 103.836 C 518.620 104.206, 503.962 103.471, 488.753 99.501 C 468.792 94.291, 423.944 77.278, 387.517 61.099 C 378.726 57.195, 371.301 54.005, 371.017 54.010 C 370.733 54.016, 361.981 72.578, 351.569 95.260 M 759.500 190.038 C 706.648 194.354, 644.792 207.655, 582.102 228.186 C 556.226 236.660, 543.455 241.454, 507.885 256.047 L 480.611 267.236 474.556 260.628 C 471.225 256.993, 463.100 248.157, 456.500 240.992 L 444.500 227.964 438.308 234.430 C 426.034 247.247, 411.570 268.298, 401.736 287.657 L 396.500 297.965 369 306.935 C 296.587 330.557, 240.664 345.035, 197 351.465 C 184.615 353.289, 166.688 354.971, 166.056 354.368 C 165.812 354.135, 170.638 349.037, 176.780 343.039 L 187.949 332.132 156.865 294.816 C 139.769 274.292, 125.353 257.341, 124.830 257.146 C 124.307 256.952, 115.885 264.827, 106.114 274.646 C 70.092 310.850, 54.356 338.548, 52.335 369.304 C 50.447 398.043, 65.667 424.400, 93 439.726 C 136.522 464.129, 220.078 455.895, 360.355 413.380 C 368.526 410.903, 375.442 409.109, 375.725 409.391 C 376.008 409.674, 376.637 413.864, 377.123 418.703 C 381.056 457.830, 391.055 482.008, 411.861 502.704 C 438.007 528.711, 475.571 542.300, 525.250 543.724 L 545 544.289 544.994 540.395 C 544.988 536.546, 538.621 460.267, 537.482 450.396 L 536.893 445.293 523.196 444.711 C 508.367 444.081, 497.174 441.761, 488.445 437.507 C 481.228 433.990, 479.197 431.388, 477.447 423.417 C 475.578 414.901, 474.474 392.109, 475.434 381.858 L 476.147 374.253 486.323 370.508 C 498.169 366.150, 541.805 348.906, 563.500 340.009 C 638.176 309.387, 730.438 288.017, 788.026 288.003 C 826.522 287.994, 846.625 295.336, 855.069 312.488 C 860.562 323.647, 860.123 337.560, 853.861 350.757 C 848.343 362.385, 839.532 368.770, 823.162 373.003 C 797.920 379.530, 754.117 379.505, 713.876 372.940 C 707.154 371.843, 701.353 371.295, 700.986 371.723 C 699.970 372.904, 679.789 466.123, 680.414 466.748 C 681.348 467.681, 699.223 470.795, 715.718 472.897 C 771.718 480.036, 822.231 477.377, 858.986 465.358 C 896.795 452.994, 923.847 430.403, 941.008 396.862 C 965.269 349.447, 963.225 297.027, 935.450 254.260 C 928.763 243.963, 910.937 225.740, 900.500 218.531 C 879.345 203.918, 855.093 195.140, 824.500 191.022 C 813.578 189.552, 772.977 188.937, 759.500 190.038 M 361.645 576.765 C 360.284 578.967, 358.795 599.692, 359.329 609 C 361.615 648.855, 381.061 675.263, 421.554 693.500 L 430.780 697.654 419.640 706.012 C 405.398 716.698, 381.462 740.668, 372.986 752.732 C 343.714 794.397, 340.224 840.203, 363.659 875.133 C 369.807 884.297, 383.594 897.180, 394.514 903.966 C 441.961 933.451, 531.612 939.282, 663.500 921.461 C 682.515 918.892, 710.988 914.358, 711.495 913.819 C 711.660 913.644, 707.679 891.754, 702.648 865.176 L 693.500 816.853 691 817.348 C 683.998 818.735, 653.207 823.264, 636 825.438 C 576.430 832.965, 524.007 834.729, 487.174 830.446 C 467.351 828.141, 448 822.856, 448 819.747 C 448 817.820, 453.482 809.426, 458.825 803.171 C 464.859 796.108, 478.677 784.603, 491.289 776.141 C 520.854 756.305, 556.130 739.551, 599 724.984 C 610.825 720.966, 620.819 717.410, 621.208 717.081 C 621.924 716.477, 619.066 627.902, 618.303 627.029 C 618.076 626.769, 609.478 626.224, 599.195 625.816 C 558.755 624.214, 539.313 622.334, 512 617.384 C 484.774 612.450, 458 603.843, 458 600.025 C 458 597.894, 461.179 598.749, 407.500 586.432 C 384.950 581.258, 365.515 576.793, 364.311 576.509 C 363.107 576.225, 361.908 576.340, 361.645 576.765 " stroke="none" fill="black" fill-rule="evenodd"/>
</svg>