<svg xmlns="http://www.w3.org/2000/svg" width="1000" height="1000" viewBox="0 0 1000 1000" version="1.1">
	<path d="M 589.500 47.094 C 544.669 57.042, 478.214 69.372, 445 73.904 C 395.159 80.705, 346.142 78.723, 283.194 67.362 C 275.325 65.942, 268.712 64.955, 268.497 65.170 C 267.971 65.696, 247 157.597, 247 159.377 C 247 161.013, 247.252 161.084, 265 164.406 C 292.361 169.527, 327.979 174.018, 353.739 175.595 L 364.978 176.283 357.127 179.449 C 338.206 187.078, 321.721 201.046, 308.006 221.071 C 295.594 239.192, 283.399 268.747, 277.832 294.196 L 275.506 304.832 265.591 310.589 C 236.780 327.321, 212.035 351.617, 198.482 376.480 C 187.524 396.583, 182.194 416.651, 181.346 441 C 180.244 472.640, 186.972 494.664, 204.270 516.042 C 219.013 534.263, 244.543 549.239, 271.761 555.632 C 284.779 558.690, 312.749 559.985, 324.886 558.092 C 328.949 557.458, 332.447 557.113, 332.659 557.326 C 333.308 557.974, 313.258 564.729, 299.613 568.459 C 263.305 578.383, 216.067 586.666, 162.532 592.494 C 149.349 593.929, 138.419 595.248, 138.242 595.425 C 137.474 596.192, 118.890 693.270, 119.304 694.349 C 119.616 695.163, 130.772 696.500, 154.132 698.523 C 185.324 701.225, 192.197 701.495, 228.500 701.443 C 275.929 701.376, 307.632 699.471, 353 693.960 C 410.378 686.991, 446.133 678.694, 577 641.984 C 693.103 609.415, 725.987 602, 754.328 602 L 760.445 602 753.473 607.061 C 744.398 613.648, 724.608 625.962, 709.500 634.424 C 693.542 643.361, 651.575 663.961, 630.830 673.039 L 614.161 680.334 616.159 685.417 C 617.258 688.213, 625.589 708.802, 634.672 731.172 L 651.188 771.844 658.844 768.553 C 722.679 741.113, 776.949 712.003, 812 686.401 C 851.912 657.249, 871.356 630.608, 875.061 600 C 879.402 564.146, 862.760 532.117, 831.654 516.459 C 814.510 507.829, 797.869 504.223, 771 503.318 C 742.222 502.348, 715.334 505.114, 680.500 512.626 C 666.603 515.624, 627.635 525.191, 623.086 526.722 C 622.214 527.016, 625.446 524.865, 630.268 521.942 C 667.113 499.607, 695.423 468.398, 715.033 428.500 C 740.336 377.018, 744.937 320.674, 727.399 277.063 C 710.682 235.494, 669.344 201.487, 609.265 179.881 C 602.794 177.554, 597.324 175.515, 597.108 175.350 C 596.893 175.185, 600.718 170.860, 605.608 165.739 C 614.174 156.769, 624.309 144.919, 641.905 123.294 L 650.210 113.089 646.855 107.744 C 629.133 79.513, 605.240 44.038, 604 44.115 C 603.175 44.167, 596.650 45.508, 589.500 47.094 M 480 168.618 C 472.754 169.802, 437.642 174.280, 425.623 175.553 L 419.746 176.176 426.169 178.420 C 442.143 184.002, 453.330 191.244, 467.190 204.977 C 479.557 217.230, 478.965 217.460, 478.986 200.398 C 479 189.503, 479.085 189.094, 483.522 178.503 C 486.009 172.567, 487.921 167.639, 487.772 167.552 C 487.622 167.465, 484.125 167.945, 480 168.618 M 498.491 257.750 C 498.878 258.712, 500.157 263.820, 501.333 269.099 L 503.470 278.698 510.432 282.099 C 545.364 299.165, 571.992 329.783, 584.458 367.218 C 589.607 382.680, 591.324 393.947, 591.383 412.669 C 591.428 427.214, 591.595 428.752, 593.044 427.977 C 596.488 426.133, 613.055 407.744, 617.959 400.321 C 632.409 378.448, 639.872 353.456, 638.758 330.666 C 638.066 316.508, 635.706 310.702, 627.130 302.064 C 619.136 294.011, 611.134 288.640, 596.500 281.507 C 575.144 271.098, 546.324 262.701, 517.500 258.491 C 497.037 255.502, 497.594 255.524, 498.491 257.750 M 386 368.597 C 380.775 369.941, 375.971 371.229, 375.323 371.461 C 373.810 372.001, 376.638 379.641, 382.292 390.291 L 386.429 398.081 389.091 392.791 C 391.935 387.139, 399 368.781, 399 367.044 C 399 365.561, 396.773 365.827, 386 368.597 M 490.092 406.146 C 488.070 412.990, 480.568 430.910, 475.498 441.003 C 472.956 446.066, 471.016 450.345, 471.188 450.512 C 471.359 450.678, 473.018 450.969, 474.874 451.157 C 478.187 451.494, 478.337 451.337, 483.105 442.500 C 485.777 437.550, 488.901 430.800, 490.049 427.500 C 492.404 420.728, 493.651 407.698, 492.284 404.146 C 491.440 401.951, 491.292 402.086, 490.092 406.146 M 283.473 427.240 C 281.226 432.247, 280.581 435.375, 280.211 443.069 C 279.753 452.584, 279.770 452.674, 282.512 454.831 C 284.032 456.026, 287.448 457.650, 290.104 458.438 C 296.486 460.333, 309 461.558, 309 460.288 C 309 459.754, 306.515 455.533, 303.477 450.909 C 300.439 446.284, 295.601 437.685, 292.727 431.800 C 289.852 425.915, 287.224 421.077, 286.887 421.050 C 286.549 421.022, 285.013 423.808, 283.473 427.240 M 519 554.500 C 517.495 556.314, 517.412 556.313, 523 554.552 L 527.500 553.134 523.872 553.067 C 521.796 553.029, 519.713 553.641, 519 554.500 M 446.981 739.112 C 432.283 750.138, 422.054 759.137, 410.299 771.383 C 391.993 790.454, 380.321 809.014, 374.380 828.500 C 371.956 836.452, 371.634 839.130, 371.612 851.500 C 371.579 870.991, 375.244 883.180, 385.433 897.458 C 407.822 928.834, 451.925 943.965, 539 950.144 C 556.815 951.408, 647.313 952.020, 648.449 950.884 C 649.026 950.307, 645.603 871.584, 644.432 858.500 L 643.895 852.500 612.198 852.852 C 565.298 853.372, 523.081 850.860, 494.500 845.850 C 476.750 842.738, 477.358 843.369, 485 835.998 C 491.846 829.394, 503.611 819.553, 508.250 816.550 C 509.762 815.571, 511 814.368, 511 813.876 C 511 813.032, 457.285 732, 456.725 732 C 456.581 732, 452.196 735.201, 446.981 739.112 " stroke="none" fill="black" fill-rule="evenodd"/>
</svg>