<svg xmlns="http://www.w3.org/2000/svg" width="1000" height="1000" viewBox="0 0 1000 1000" version="1.1">
	<path d="M 630.564 66.027 C 614.067 67.566, 592.652 72.417, 577.763 77.987 L 572.162 80.083 590.172 124.791 C 600.077 149.381, 608.529 169.866, 608.954 170.314 C 609.380 170.761, 613.707 169.974, 618.570 168.564 C 623.434 167.154, 627.748 166, 628.156 166 C 628.564 166, 626.264 173.780, 623.044 183.289 C 613.187 212.395, 597.068 251.846, 577.195 295.500 C 561.124 330.803, 560.083 333, 559.420 333 C 559.073 333, 555.124 331.897, 550.645 330.548 C 534.149 325.583, 525.895 324.511, 504.500 324.554 C 487.591 324.589, 482.877 324.945, 474 326.857 C 452.541 331.481, 434.273 339.252, 416.698 351.231 C 406.006 358.518, 387.771 376.211, 379.833 387 C 364.811 407.418, 351.999 434.812, 347.467 456.204 C 339.011 496.122, 354.043 535.666, 388.290 563.599 L 392.081 566.691 376.290 577.750 C 344.466 600.040, 283.419 639.111, 232.250 669.937 C 218.363 678.303, 207 685.646, 207 686.255 C 207 687.314, 233.063 776.153, 233.571 776.825 C 233.768 777.086, 328.779 752.655, 357.500 744.959 L 364.500 743.083 357.500 749.376 C 349.304 756.743, 274.628 823.157, 258.304 837.597 C 252.146 843.043, 247.196 848.004, 247.304 848.620 C 247.412 849.236, 262.109 865.995, 279.965 885.863 L 312.430 921.986 315.965 918.647 C 325.277 909.851, 412.772 832.136, 430.686 816.749 L 440.873 808 449.686 808.015 C 490.432 808.087, 540.890 815.720, 571.844 826.494 C 607.864 839.032, 657.028 872.003, 696.287 909.952 L 708.577 921.832 743.539 891.365 C 762.767 874.608, 779.350 860.059, 780.388 859.033 C 782.237 857.207, 782.145 857.021, 776.043 850.205 C 757.852 829.887, 719.179 797.782, 687 776.285 C 640.038 744.911, 602.363 729.116, 550.673 719.129 L 536.846 716.457 551.173 702.479 L 565.500 688.500 578 685.077 C 607.217 677.075, 708.070 648.264, 708.553 647.781 C 708.842 647.491, 703.041 626.159, 695.660 600.377 C 686.133 567.099, 681.842 553.535, 680.870 553.620 C 679.751 553.717, 531.095 595.610, 509.193 602 L 502.885 603.840 509.677 597.670 C 535.827 573.915, 542.813 566.637, 552.801 552.738 C 592.511 497.483, 677.909 323.307, 712.019 228 C 730.966 175.059, 735.090 150.315, 728.962 126.352 C 718.373 84.944, 679.994 61.416, 630.564 66.027 M 309.542 105.250 C 296.107 134.519, 293.194 170.447, 302.076 197.347 C 313.164 230.932, 344.527 259.325, 393.866 280.443 L 402.067 283.953 403.112 281.226 C 408.409 267.398, 435 192.505, 435 191.416 C 435 190.637, 434.438 189.999, 433.750 189.998 C 431.190 189.994, 410.860 179.085, 404.170 174.126 C 394.328 166.830, 393.594 164.084, 397.782 150.237 C 398.764 146.988, 399.015 144.638, 398.437 144.097 C 397.301 143.035, 314.273 98, 313.450 98 C 313.131 98, 311.372 101.263, 309.542 105.250 M 490 424.427 C 473.872 428.899, 462.064 438.894, 452.639 456.049 C 448.434 463.704, 444 475.131, 444 478.315 C 444 483.420, 458.994 493.727, 469 495.499 L 472.500 496.119 480.187 483.810 C 492.020 464.863, 514 425.760, 514 423.656 C 514 422.508, 494.682 423.128, 490 424.427 " stroke="none" fill="black" fill-rule="evenodd"/>
</svg>