<svg xmlns="http://www.w3.org/2000/svg" width="1000" height="1000" viewBox="0 0 1000 1000" version="1.1">
	<path d="M 493.515 36.237 C 490.939 47.251, 476.026 129.626, 476.422 130.658 C 476.706 131.396, 477.776 132, 478.802 132 C 482.492 132, 510.778 140.259, 524 145.197 C 531.425 147.969, 541.041 152.016, 545.368 154.190 C 553.599 158.323, 567 166.835, 567 167.930 C 567 168.280, 562.388 169.115, 556.750 169.786 C 529.058 173.081, 507.854 182.880, 490.484 200.410 C 465.287 225.838, 452.534 265.195, 456.915 304 C 457.568 309.775, 458.318 315.237, 458.582 316.138 C 458.986 317.513, 457.170 318.117, 447.282 319.897 C 413.993 325.889, 398.049 327.435, 369.500 327.440 C 334.671 327.446, 314.500 323.841, 294.500 314.036 C 280.297 307.072, 270.606 298.404, 265.665 288.243 C 263.773 284.354, 263.331 284.031, 260.547 284.509 C 258.871 284.796, 237.086 287.701, 212.135 290.964 C 187.185 294.227, 166.495 297.171, 166.159 297.508 C 165.823 297.844, 166.520 301.883, 167.709 306.482 C 178.352 347.650, 209.226 383.063, 252.287 403.494 C 303.730 427.903, 370.133 433.025, 453.509 419.017 C 462.863 417.445, 471.686 415.866, 473.115 415.507 L 475.712 414.855 476.431 429.019 C 476.826 436.810, 476.951 443.383, 476.707 443.627 C 476.463 443.870, 472.717 442.439, 468.382 440.445 C 457.505 435.443, 436.497 427.049, 433.208 426.392 L 430.493 425.849 415.583 471.674 C 407.383 496.878, 400.634 517.901, 400.587 518.392 C 400.539 518.882, 404.775 520.955, 410 522.998 C 415.225 525.041, 420.993 527.380, 422.818 528.195 L 426.136 529.676 407.318 534.448 C 369.356 544.073, 334.636 555.702, 300.811 570.121 L 288.831 575.228 285.665 572.272 C 264.487 552.494, 219.605 513.016, 219.031 513.661 C 218.619 514.122, 206.851 527.325, 192.878 543 C 159.907 579.987, 133.949 609.664, 126.638 618.729 C 112.463 636.307, 97.657 665.759, 86.034 699.500 C 81.946 711.370, 69.964 753.894, 70.039 756.270 C 70.069 757.213, 134.446 803.797, 140.445 807.216 C 141.280 807.692, 147.464 801.088, 158.834 787.582 C 180.235 762.160, 196.979 746.518, 225 725.772 C 258.815 700.737, 299.619 677.752, 342 659.868 L 346.500 657.969 341 662.685 C 330.182 671.962, 308.698 693.660, 301.470 702.608 C 273.805 736.859, 255.477 770.577, 249.893 797.500 C 247.880 807.204, 247.396 828.449, 248.654 851.843 L 249.307 864 290.494 864 L 331.680 864 340.590 851.294 C 360.199 823.330, 391.831 797.398, 429.862 778.108 C 441.293 772.309, 464.916 762, 466.770 762 C 467.064 762, 463.299 764.514, 458.403 767.587 C 447.276 774.570, 442.273 778.576, 433.829 787.267 C 392.794 829.501, 394.564 891.418, 437.861 928.304 C 472.843 958.106, 527.005 967.145, 595.139 954.551 C 656.525 943.204, 702.575 921.559, 735.543 888.554 C 762.108 861.960, 776.830 831.992, 780.124 797.802 C 783.393 763.872, 771.905 728.979, 748.500 701.750 C 721.280 670.081, 679.709 649.879, 628.500 643.432 C 603.081 640.233, 555.610 641.811, 521.901 646.978 C 514.645 648.090, 508.175 649, 507.523 649 C 506.269 649, 489.416 619.250, 490.217 618.450 C 490.474 618.192, 496.943 617.103, 504.593 616.029 C 565.418 607.487, 631.494 606.818, 699.500 614.057 C 754.704 619.933, 813.536 631.485, 870.797 647.693 C 880.286 650.379, 887.435 651.929, 887.911 651.403 C 888.781 650.441, 915.135 562.076, 915.364 559.351 C 915.466 558.138, 913.030 557.025, 905.500 554.847 C 831.617 533.470, 759.153 519.782, 687 513.573 C 659.535 511.210, 616.415 509.686, 594.250 510.297 L 574 510.854 574.470 505.677 C 575.701 492.143, 575.903 453.605, 574.882 427 C 574.259 410.775, 573.694 395.737, 573.625 393.583 L 573.500 389.665 590.267 384.099 C 599.489 381.037, 606.861 378.075, 606.648 377.516 C 606.436 376.957, 599.176 355.960, 590.515 330.855 L 574.768 285.211 564.751 288.584 L 554.734 291.957 555.217 285.229 C 555.776 277.441, 558.921 270.361, 562.409 269.035 C 563.689 268.548, 570.832 267.443, 578.281 266.579 C 604.398 263.552, 617.835 259.320, 632 249.663 C 655.509 233.636, 670 203.787, 670 171.392 C 670 142.549, 659.723 120.312, 635.844 97.483 C 607.269 70.165, 562.004 49.699, 496.772 34.604 C 494.502 34.079, 493.956 34.352, 493.515 36.237 M 569.500 741.040 C 552.401 742.218, 550.431 742.698, 562 742.865 C 603.155 743.458, 643.563 754.280, 674.913 773.103 L 680.327 776.354 677.951 772.126 C 674.659 766.269, 665.745 758.054, 658 753.740 C 649.629 749.077, 636.014 744.599, 624 742.556 C 612.244 740.558, 586.771 739.849, 569.500 741.040 M 537.472 843.042 C 524.728 844.708, 513.203 848.776, 507.005 853.795 L 504.529 855.799 512.015 858.150 C 518.889 860.308, 521.213 860.498, 540.500 860.479 C 556.204 860.463, 563.896 860.014, 571 858.698 C 584.906 856.122, 607 850.736, 607 849.922 C 607 848.856, 591.649 844.916, 581.500 843.378 C 571.905 841.924, 547.448 841.737, 537.472 843.042 " stroke="none" fill="black" fill-rule="evenodd"/>
</svg>