<svg xmlns="http://www.w3.org/2000/svg" width="1000" height="1000" viewBox="0 0 1000 1000" version="1.1">
	<path d="M 454 70.966 C 454 88.904, 446.522 154.351, 442.484 171.750 C 441.989 173.885, 441.485 174, 432.655 174 C 376.314 174, 305.423 199.303, 258.233 236.256 C 213.578 271.224, 191.259 316.817, 198.492 358.295 C 203.776 388.594, 222.940 413.885, 251.500 428.249 C 273.715 439.423, 303.261 444.764, 331.936 442.791 C 343.348 442.005, 361.604 437.855, 371.848 433.717 C 376.215 431.953, 377.701 431.655, 376.818 432.720 C 374.617 435.371, 346.275 459.952, 324 478.529 C 298.236 500.015, 275.626 519.759, 248.029 544.872 C 220.485 569.938, 176.717 610.732, 175.590 612.391 C 174.931 613.361, 183.425 624.504, 206.447 652.872 C 223.919 674.400, 238.522 692.205, 238.899 692.438 C 239.276 692.671, 249.015 684.056, 260.542 673.295 C 284.994 650.467, 293.769 642.848, 311.500 629.054 C 367.058 585.830, 431.904 549.820, 484.262 533.115 C 489.631 531.402, 494.356 530, 494.762 529.999 C 495.168 529.999, 495.206 555.086, 494.847 585.749 C 494.194 641.477, 492.834 682.341, 490.912 704 C 487.655 740.690, 477.632 795.335, 460.861 867.838 C 457.001 884.524, 453.991 898.317, 454.171 898.490 C 454.711 899.005, 546.705 922, 548.225 922 C 549.198 922, 550.633 917.801, 552.924 908.250 C 559.723 879.899, 568.931 837.613, 573.991 811.500 C 576.869 796.650, 579.347 784.034, 579.498 783.464 C 579.684 782.763, 583.278 782.709, 590.636 783.297 C 604.579 784.412, 634.006 783.526, 649.859 781.515 C 739.293 770.169, 803.692 723.066, 823.474 654.530 C 833.042 621.378, 831.872 581.809, 820.343 548.688 C 796.704 480.775, 732.324 434.943, 642.500 422.082 C 629.592 420.234, 604.955 418.014, 597.250 418.004 L 594 418 594 407.572 L 594 397.143 567.780 397.732 L 541.560 398.321 543.467 395.411 C 550.165 385.190, 557.182 372.772, 562.627 361.500 C 573.488 339.018, 577.791 323.053, 578.667 302 C 579.334 285.955, 577.733 274.936, 572.438 259.110 C 566.318 240.818, 556.566 225.245, 543.079 212.225 L 536.372 205.751 539.147 191.626 C 542.745 173.308, 547.496 139.870, 549.465 119 C 551.389 98.614, 553.058 71.902, 552.467 70.946 C 552.225 70.555, 534.583 69.951, 513.263 69.604 C 491.944 69.257, 469.887 68.711, 464.250 68.391 L 454 67.808 454 70.966 M 393.500 278.482 C 362.182 286.789, 330.624 302.807, 311.824 319.941 C 305.316 325.872, 297 336.882, 297 339.567 C 297 341.149, 301.735 342.612, 311.830 344.150 C 337.558 348.070, 362.105 331.331, 397.308 285.856 C 400.989 281.102, 404 276.940, 404 276.606 C 404 275.741, 403.494 275.831, 393.500 278.482 M 593.635 579.618 C 593.255 614.203, 592.550 651.725, 592.068 663 C 591.586 674.275, 591.410 683.725, 591.677 684 C 592.736 685.089, 622.054 685.130, 632.298 684.057 C 686.655 678.366, 722.644 655.698, 729.651 622.740 C 732.068 611.370, 731.068 592.879, 727.453 582.099 C 721.021 562.922, 705.760 546.913, 683.037 535.507 C 664.068 525.985, 635.299 519.283, 605.413 517.425 L 594.327 516.736 593.635 579.618 " stroke="none" fill="black" fill-rule="evenodd"/>
</svg>