<svg xmlns="http://www.w3.org/2000/svg" width="1000" height="1000" viewBox="0 0 1000 1000" version="1.1">
	<path d="M 417.590 92.250 C 417.315 94.037, 415.912 109.225, 414.474 126 C 413.036 142.775, 410.312 170.225, 408.421 187 C 406.530 203.775, 404.700 220.064, 404.354 223.198 L 403.726 228.895 400.613 228.353 C 398.901 228.054, 391.536 226.278, 384.246 224.405 C 362.977 218.942, 340.483 210.033, 324.707 200.826 C 320.971 198.646, 317.514 197.005, 317.025 197.181 C 315.267 197.811, 259.898 275.291, 260.354 276.481 C 260.998 278.158, 276.969 287.539, 291.872 294.994 C 317.839 307.985, 352.314 319.650, 380.750 325.069 C 385.915 326.053, 387 326.605, 387 328.243 C 387 332.369, 379.888 358.178, 374.077 375.139 C 359.832 416.718, 336.884 468.266, 316.060 505.465 L 308.802 518.430 309.440 552.465 C 309.790 571.184, 310.290 587.882, 310.550 589.570 L 311.023 592.640 319.262 592.322 C 323.793 592.146, 339.640 591.543, 354.477 590.980 C 392.889 589.525, 434.074 584.958, 475 577.616 C 482.425 576.285, 488.669 575.358, 488.876 575.557 C 489.083 575.756, 488.730 589.775, 488.092 606.709 C 486.313 653.948, 485.038 717.438, 485.018 759.750 C 485.008 780.788, 484.833 798, 484.630 798 C 484.426 798, 475.539 792.445, 464.880 785.656 C 431.672 764.504, 392.688 742.839, 391.046 744.624 C 389.898 745.872, 349 830.751, 349 831.887 C 349 832.404, 354.962 835.949, 362.250 839.763 C 398.597 858.788, 452.596 894.487, 502.998 932.813 L 521.496 946.879 526.100 944.189 C 528.632 942.710, 542.636 934.300, 557.220 925.500 L 583.737 909.500 584.294 783 C 584.601 713.425, 585.314 645.025, 585.879 631 C 587.489 591.033, 589.169 558.854, 589.864 554.678 L 590.500 550.856 619.764 542.415 C 635.859 537.773, 651.384 533.193, 654.264 532.237 L 659.500 530.500 659.464 524.750 C 659.445 521.587, 659.332 507.187, 659.214 492.749 L 659 466.499 647.250 456.500 C 627.824 439.969, 611.297 430.053, 591.500 423.049 C 560.279 412.003, 539.818 413.786, 522.732 429.042 C 513.211 437.543, 506.930 448.235, 502.591 463.327 L 500.242 471.500 485.871 474.727 C 473.395 477.529, 437.703 484.104, 437.388 483.658 C 437.327 483.571, 440.386 476.300, 444.186 467.500 C 464.024 421.565, 478.979 375.738, 485.524 340.829 L 487.337 331.157 493.419 330.505 C 535.477 325.996, 577.291 315.048, 617.533 298.008 C 626.022 294.413, 660.744 277.524, 661.879 276.438 C 662.259 276.075, 616.473 192.147, 615.144 190.769 C 614.756 190.367, 608.623 192.951, 601.516 196.511 C 579.924 207.326, 560.064 215.186, 538.063 221.622 C 526.910 224.885, 503 229.987, 503 229.104 C 503 228.726, 503.670 223.261, 504.489 216.958 C 507.246 195.745, 516 105.663, 516 98.511 C 516 96.457, 515.405 96.043, 511.750 95.553 C 506.819 94.891, 425.166 89, 420.932 89 C 418.496 89, 418.019 89.463, 417.590 92.250 M 692.997 591.716 C 692.996 592.697, 691.882 612.400, 690.523 635.500 C 689.164 658.600, 687.928 679.950, 687.776 682.945 L 687.500 688.391 697 690.248 C 730.932 696.884, 759.430 713.862, 774.342 736.328 C 778.369 742.396, 785 755.705, 785 757.722 C 785 758.425, 785.619 759, 786.375 759 C 787.132 759, 805.019 753.134, 826.125 745.964 C 874.090 729.670, 879 727.908, 879 726.992 C 879 725.580, 872.108 709.164, 868.542 702.083 C 840.167 645.738, 783.483 605.647, 714.500 593.133 C 696.322 589.835, 693.001 589.616, 692.997 591.716 M 356.320 647.863 C 308.182 680.258, 260.818 708.374, 235.740 719.442 L 229.979 721.984 233.112 715.779 C 236.114 709.830, 236.167 709.523, 234.372 708.341 C 233.342 707.663, 214.729 695.830, 193.009 682.047 L 153.519 656.987 151.770 659.243 C 148.488 663.480, 137.156 687.480, 133.663 697.592 C 127.803 714.560, 125.769 725.691, 125.731 741 C 125.704 751.509, 126.160 756.302, 127.785 762.632 C 136.396 796.172, 161.463 818.130, 198.381 824.474 C 208.594 826.229, 220.774 826.427, 229.668 824.984 C 257.141 820.525, 297.747 801.389, 357.500 764.743 C 375.821 753.506, 418.044 725.957, 434.684 714.382 L 443.868 707.994 415.860 668.247 C 400.456 646.386, 387.323 628.438, 386.676 628.363 C 386.029 628.287, 372.369 637.062, 356.320 647.863 " stroke="none" fill="black" fill-rule="evenodd"/>
</svg>