<svg xmlns="http://www.w3.org/2000/svg" width="1000" height="1000" viewBox="0 0 1000 1000" version="1.1">
	<path d="M 220.599 98.741 L 183.046 130.256 184.915 132.878 C 185.943 134.320, 193.326 142.286, 201.322 150.580 C 243.319 194.142, 282.712 221.744, 318 232.335 C 354.956 243.427, 394.543 242.369, 428.469 229.384 C 436.088 226.467, 437.973 225.364, 437.499 224.099 C 436.024 220.161, 392.736 138.004, 392.153 138.036 C 391.794 138.055, 388.800 138.723, 385.500 139.520 C 376.788 141.624, 361.194 141.392, 351.265 139.012 C 330.705 134.083, 307.513 117.498, 275.303 84.694 L 258.152 67.226 220.599 98.741 M 728.033 154.115 C 697.248 156.847, 660.903 166.525, 626.759 181.084 C 601.548 191.834, 559.588 214.238, 560.397 216.518 C 560.596 217.077, 569.363 230.676, 579.879 246.738 C 590.396 262.799, 599 276.144, 599 276.393 C 599 276.641, 597.313 277.392, 595.250 278.061 C 582.692 282.132, 568.814 291.278, 557.979 302.624 C 532.308 329.507, 515.225 375.492, 507.319 439 C 504.734 459.762, 504.733 521.051, 507.318 542 C 517.455 624.171, 547.361 681.178, 594.894 708.938 C 608.360 716.803, 627.758 723.209, 647.891 726.441 C 653.056 727.270, 657.395 728.073, 657.534 728.224 C 657.942 728.671, 653.487 758.059, 650.108 777.204 C 643.530 814.480, 633.763 858.688, 629.147 872.083 C 627.864 875.804, 627.602 877.670, 628.361 877.676 C 628.988 877.681, 647.289 888.488, 669.032 901.691 C 690.774 914.894, 709.530 926.213, 710.711 926.845 C 712.697 927.908, 713.062 927.564, 715.587 922.247 C 722.923 906.802, 732.060 872.962, 740.900 828.500 C 747.079 797.419, 753.354 759.927, 755.461 741.500 C 758.182 717.696, 757.067 720.362, 765.335 717.905 C 769.276 716.734, 777 713.986, 782.500 711.798 C 839.066 689.302, 879.366 647.937, 896.911 594.361 C 913.732 542.998, 908.705 494.850, 882.256 454 C 876.805 445.582, 865.968 432.159, 860.166 426.639 L 857.159 423.778 865.176 414.536 C 886.153 390.353, 899.829 365.002, 905.925 339 C 915.091 299.905, 906.826 259.840, 881.877 222.425 C 872.376 208.175, 853.338 188.895, 840.108 180.124 C 808.569 159.215, 770.396 150.356, 728.033 154.115 M 138.249 235.469 L 109.104 274.939 117.302 280.850 C 138.462 296.109, 179.217 321.455, 205.500 335.701 C 241.202 355.054, 266.867 366.230, 288.802 371.978 L 293.104 373.105 290.016 378.303 C 284.486 387.612, 275.068 406.786, 271.132 416.753 C 260.869 442.740, 256.798 466.814, 258.946 488.811 C 259.563 495.131, 260.275 500.635, 260.527 501.044 C 260.780 501.453, 257.043 505.998, 252.222 511.144 C 203.774 562.860, 165.967 608.510, 149.236 635.493 C 140.913 648.915, 130.714 670.755, 125.603 686.098 C 108.953 736.080, 110.535 785.436, 130.028 824.197 C 148.420 860.766, 179.317 883.307, 222.500 891.659 C 234.946 894.066, 261.829 894.036, 275.500 891.599 C 328.577 882.138, 373.414 847.319, 399.248 795.500 C 414.580 764.748, 418.606 722.305, 410.981 671.818 C 405.830 637.714, 396.412 601.446, 379.215 549.500 L 372.263 528.500 414.558 486 L 456.852 443.500 430.426 416.137 C 415.892 401.087, 404 388.473, 404 388.106 C 404 387.739, 409.542 381.480, 416.315 374.199 L 428.631 360.959 423.540 325.230 L 418.449 289.500 407.974 288.823 C 402.213 288.450, 389.625 287.662, 380 287.071 C 352.338 285.374, 328.604 281.135, 305.500 273.765 C 283.116 266.626, 226.424 235.546, 186.203 208.365 C 176.140 201.564, 167.792 196, 167.651 196 C 167.510 196, 154.280 213.761, 138.249 235.469 M 730.500 253.033 C 707.325 256.598, 685.253 263.198, 660.524 273.958 L 655.548 276.122 661.287 278.455 C 693.319 291.474, 717.380 322.811, 734.233 373.462 C 736.985 381.733, 739.296 388.569, 739.368 388.654 C 739.899 389.275, 762.959 374.633, 769.439 369.561 C 780.191 361.145, 794.879 345.795, 800.513 337.086 C 807.812 325.803, 810.366 318.159, 810.397 307.500 C 810.419 300.035, 809.979 297.429, 807.816 292.221 C 799.290 271.688, 786.183 259.408, 767.500 254.451 C 760.335 252.550, 738.962 251.731, 730.500 253.033 M 622.670 381.780 C 599.252 431.765, 596.851 528.819, 617.655 584.500 C 623.050 598.939, 629.008 609.117, 636.473 616.641 C 642.596 622.815, 644.434 624.050, 650.029 625.757 C 653.588 626.842, 658.188 628.037, 660.250 628.411 L 664 629.091 663.998 603.295 C 663.994 520.237, 653.984 439.998, 638.431 398.357 C 634.546 387.952, 628.651 375.520, 627.169 374.604 C 626.684 374.305, 624.660 377.534, 622.670 381.780 M 756.369 482.750 C 759.651 512.814, 761.793 547.129, 762.823 586.152 L 763.500 611.805 768.976 608.152 C 791.440 593.170, 805.860 568.140, 807.664 541 C 808.379 530.247, 806.934 522.511, 802.443 513.047 C 796.294 500.091, 780.177 486.228, 763.150 479.250 C 760.131 478.012, 757.229 477, 756.701 477 C 756.127 477, 755.994 479.310, 756.369 482.750 M 280.444 627.096 C 241.213 672.414, 227.553 692.630, 219.084 717.907 C 208.643 749.073, 212.167 781.748, 226.845 789.855 C 245.353 800.078, 273.198 794.702, 292.025 777.271 C 300.019 769.869, 309.157 756.764, 311.917 748.742 C 319.047 728.018, 316.809 693.375, 305.376 647.500 C 301.209 630.779, 296.027 612.795, 295.074 611.744 C 294.697 611.329, 288.114 618.237, 280.444 627.096 " stroke="none" fill="black" fill-rule="evenodd"/>
</svg>