<svg xmlns="http://www.w3.org/2000/svg" width="1000" height="1000" viewBox="0 0 1000 1000" version="1.1">
	<path d="M 624 61.639 C 622.625 61.841, 618.125 62.502, 614 63.107 C 584.659 67.415, 543.528 85.934, 502.696 113.223 C 480.091 128.330, 445.953 155.094, 428 171.785 L 421.500 177.827 426 182.534 C 428.475 185.122, 429.584 186.772, 428.463 186.199 C 423.180 183.499, 349.735 150.938, 349.519 151.201 C 348.701 152.194, 330.022 197.058, 320.042 222 C 285.380 308.627, 260.504 385.906, 249.074 442.466 C 247.422 450.641, 245.717 457.665, 245.285 458.075 C 244.853 458.484, 235.275 463.174, 224 468.498 C 188.881 485.079, 146.451 508.078, 116.409 526.816 C 98.247 538.144, 83.577 548.323, 83.715 549.500 C 83.885 550.947, 140.350 627.897, 141.283 627.953 C 141.714 627.979, 146.664 624.916, 152.283 621.147 C 170.898 608.660, 201.228 590.954, 230.125 575.703 L 240.751 570.096 241.447 577.298 C 244.688 610.805, 258.445 652.443, 274.654 677.803 L 278.043 683.106 271.771 685.942 C 241.692 699.546, 214.204 695.152, 189.500 672.792 L 184.500 668.266 147 697.645 C 126.375 713.803, 109.055 727.689, 108.511 728.503 C 107.174 730.502, 123.002 746.504, 136.247 756.544 C 164.303 777.808, 192.068 788.782, 226 792.020 C 264.349 795.678, 308.067 782.979, 345.384 757.342 L 353.268 751.925 360.384 754.870 C 395.328 769.333, 442.315 772.823, 495.978 764.941 C 523.246 760.936, 543.856 756.007, 576.750 745.623 C 587.888 742.107, 597 739.424, 597 739.662 C 597 740.708, 586.948 757.567, 579.508 769 C 559.079 800.392, 533.636 825.489, 512.547 835.052 C 497.218 842.002, 482.402 842.880, 471.598 837.478 C 460.427 831.892, 444.741 814.957, 435.604 798.620 C 433.568 794.979, 431.657 792, 431.358 792 C 430.721 792, 342.667 830.030, 342.150 830.529 C 340.451 832.168, 355.448 858.181, 366.651 873.025 C 406.605 925.967, 459.006 948.393, 516.265 937.054 C 589.165 922.617, 654.459 856.204, 703.417 746.694 C 738.109 669.095, 759.940 580.859, 770.085 477.235 L 771.286 464.969 776.393 465.584 C 813.075 469.999, 843.787 474.906, 870.747 480.659 C 880.232 482.684, 888.181 484.151, 888.411 483.920 C 888.641 483.689, 894.277 463.025, 900.936 438 C 907.595 412.975, 913.276 391.754, 913.560 390.843 C 913.989 389.466, 912.252 388.758, 903.288 386.659 C 874.849 379.999, 835.703 373.297, 802.553 369.413 C 772.387 365.879, 775.617 367.076, 776.353 359.698 C 777.226 350.956, 775.357 292.926, 773.511 271.462 C 765.847 182.331, 746.983 125.055, 714.538 92.405 C 696.943 74.698, 678.538 65.546, 653.533 62.068 C 646.324 61.065, 629.568 60.822, 624 61.639 M 625 161.518 C 596 168.644, 547.090 198.857, 504.615 235.883 C 499.179 240.622, 493.514 245.489, 492.026 246.697 L 489.321 248.894 463.910 222.110 C 439.741 196.634, 438.440 195.435, 437.277 197.551 C 433.772 203.925, 410.354 261.224, 398.430 292.597 C 387.266 321.973, 374.730 357.926, 367.082 382.500 C 358.160 411.166, 357.662 413, 358.793 413 C 359.251 413, 363.647 411.635, 368.562 409.966 C 385.637 404.170, 422.600 393.080, 440 388.534 C 463.779 382.320, 462.235 382.921, 463.223 379.500 C 470.269 355.097, 483.130 298.956, 487.448 273.750 C 487.967 270.720, 488.522 270, 490.337 270 C 491.573 270, 511.240 272.707, 534.042 276.015 C 556.844 279.324, 577.525 282.306, 580 282.643 C 582.475 282.979, 584.772 283.408, 585.104 283.596 C 585.859 284.023, 584.813 290.671, 580.398 313.500 C 577.462 328.679, 570.956 358.665, 569.428 364.060 C 569.043 365.419, 569.925 365.524, 576.243 364.877 C 594.190 363.039, 617.876 361.836, 646.905 361.288 L 678.310 360.695 677.630 333.097 C 676.208 275.408, 671.834 236.582, 663.030 203.500 C 658.094 184.952, 651.179 168.908, 645.464 162.745 C 643.193 160.296, 642.250 160.009, 636.710 160.083 C 633.294 160.129, 628.025 160.775, 625 161.518 M 621 460.666 C 597.936 461.909, 557.916 465.800, 544.357 468.118 L 538.214 469.168 534.958 478.334 C 524.030 509.101, 506.339 549.900, 490.956 579.814 C 484.060 593.224, 481.556 598.960, 482.762 598.580 C 488.509 596.771, 563.432 576.102, 563.594 576.282 C 563.702 576.402, 566.514 586.625, 569.842 599 C 579.341 634.322, 590.410 681.426, 595.469 708.055 C 598.017 721.464, 600.232 732.565, 600.392 732.725 C 601.064 733.397, 616.318 700.181, 622.538 684.500 C 646.080 625.154, 660.632 564.225, 669.500 487.875 C 670.865 476.119, 671.987 465.038, 671.991 463.250 L 672 460 649.250 460.185 C 636.737 460.287, 624.025 460.503, 621 460.666 M 394 505.887 C 379.975 510.715, 361.798 517.216, 353.607 520.333 C 345.415 523.450, 338.484 526, 338.204 526 C 336.898 526, 339.038 564.370, 340.964 575.500 C 343.809 591.929, 350.693 614, 352.973 614 C 355.038 614, 378.777 578.499, 391.069 557.031 C 398.295 544.411, 421 499.347, 421 497.626 C 421 496.609, 420.584 496.736, 394 505.887 M 469.096 619.305 C 465.219 626.124, 448.921 650.760, 441.580 660.897 L 434.776 670.293 452.638 669.701 C 467.649 669.204, 483.610 667.615, 484.812 666.499 C 485.196 666.143, 473.018 617.974, 472.123 616.305 C 471.733 615.577, 470.547 616.753, 469.096 619.305 " stroke="none" fill="black" fill-rule="evenodd"/>
</svg>