<svg xmlns="http://www.w3.org/2000/svg" width="1000" height="1000" viewBox="0 0 1000 1000" version="1.1">
	<path d="M 400.069 93.877 C 384.982 115.717, 372.472 134.083, 372.270 134.690 C 371.552 136.843, 407.218 158.125, 433.894 171.461 C 470.958 189.990, 500.382 199.430, 538.412 204.992 C 563.756 208.698, 594.041 210.987, 617.854 210.995 L 631.208 211 630.589 176.750 C 630.249 157.912, 629.705 135.637, 629.380 127.250 L 628.789 112 614.645 111.998 C 580.915 111.992, 542.147 107.098, 518.500 99.861 C 494.899 92.638, 460.113 75.316, 430 55.790 L 427.500 54.169 400.069 93.877 M 706.072 220.042 C 650.028 225.436, 572.080 252.375, 489.500 294.889 C 461.148 309.485, 447.528 317.272, 390.500 351.495 C 333.825 385.506, 313.143 397.404, 294 407.007 C 278.778 414.644, 265.900 420.233, 265.181 419.514 C 263.495 417.828, 276.366 382.750, 286.539 361.312 L 292.797 348.123 249.320 324.973 C 225.408 312.240, 205.661 302.006, 205.436 302.230 C 204.169 303.498, 190.389 333.714, 185.248 346.500 C 159.615 410.247, 156.261 455.575, 174.861 486.883 C 189.024 510.723, 213.287 524.112, 242.500 524.210 C 270.550 524.303, 296.453 516.374, 339.500 494.519 C 364.899 481.624, 381.164 472.353, 429 443.504 C 494.616 403.932, 514.623 392.569, 546 377.058 C 606.517 347.142, 659.402 327.684, 699.642 320.530 C 716.077 317.609, 738.632 317.301, 742.903 319.940 C 747.719 322.916, 725.576 342.982, 701.500 357.458 C 676.178 372.683, 628.212 393.802, 596.750 403.579 C 593.370 404.629, 591 405.937, 591 406.753 C 591 408.730, 618.093 498.331, 618.988 499.314 C 620.301 500.758, 660.271 486.368, 688.500 474.288 C 775.981 436.853, 827.026 393.345, 840.186 345 C 842.197 337.614, 842.492 334.271, 842.441 319.500 C 842.386 303.883, 842.157 301.768, 839.625 293.500 C 827.782 254.831, 797.682 229.075, 755.500 221.515 C 744.603 219.562, 718.987 218.799, 706.072 220.042 M 488.514 468.250 C 487.076 472.495, 468.063 562.293, 468.465 562.943 C 468.736 563.382, 470.430 564.036, 472.229 564.395 C 477.417 565.430, 493.090 573.481, 497.776 577.517 C 500.128 579.543, 502.716 582.484, 503.527 584.053 C 505.375 587.625, 506.960 624.971, 506.984 665.500 L 507.001 693.500 492.570 693.158 C 474.969 692.740, 441.587 694.414, 425.426 696.525 C 376.015 702.978, 345.422 719.005, 328.685 747.205 C 322.532 757.571, 319.793 767.568, 319.241 781.670 C 318.649 796.766, 320.343 805.260, 326.421 817.681 C 341.234 847.953, 374.617 874.260, 439.386 906.700 C 461.583 917.817, 488.199 929.770, 513 939.758 C 532.631 947.665, 601.129 973.206, 601.553 972.777 C 601.703 972.625, 602.310 948.875, 602.900 920 C 605.253 804.928, 605.220 806, 606.427 806 C 608.310 806, 663.560 817.408, 688.850 823.019 C 701.693 825.868, 712.532 827.817, 712.938 827.350 C 713.934 826.201, 735.359 733.025, 734.764 732.430 C 733.673 731.339, 661.791 715.959, 621.500 708.196 L 606.500 705.305 605.806 659.403 C 604.982 604.958, 603.658 578.758, 601.110 566.500 C 592.074 523.034, 556.671 488.255, 503.779 470.887 C 490.920 466.665, 489.154 466.360, 488.514 468.250 M 458 792.654 C 456.075 792.838, 451.213 793.257, 447.197 793.584 L 439.893 794.181 444.482 797.091 C 455.182 803.876, 503.192 829, 505.459 829 C 505.756 829, 506 820.675, 506 810.500 L 506 792 483.750 792.160 C 471.512 792.248, 459.925 792.470, 458 792.654 " stroke="none" fill="black" fill-rule="evenodd"/>
</svg>