<svg xmlns="http://www.w3.org/2000/svg" width="1000" height="1000" viewBox="0 0 1000 1000" version="1.1">
	<path d="M 625 77.600 C 596.136 89.145, 585.036 92.958, 567.291 97.426 C 518.019 109.831, 463.694 113.846, 432.143 107.415 C 416.109 104.147, 400.840 97.489, 390.384 89.207 L 385.601 85.418 360.519 103.459 C 346.724 113.382, 328.824 126.225, 320.742 132 C 312.660 137.775, 306.037 142.932, 306.024 143.459 C 306.011 143.987, 311.288 149.614, 317.750 155.964 C 338.650 176.500, 364.015 190.909, 395 199.848 C 403.897 202.415, 421.662 206.178, 429.762 207.211 C 431.584 207.444, 429.836 209.151, 420.765 216 C 361.784 260.532, 310.336 306.390, 273.236 347.500 C 211.398 416.023, 134.723 532.228, 104.179 603.718 C 101.308 610.438, 95.982 624.764, 92.343 635.554 C 85.872 654.741, 85.769 655.212, 87.614 657.004 C 88.651 658.011, 106.797 672.384, 127.938 688.944 C 158.357 712.770, 166.620 718.785, 167.544 717.776 C 168.186 717.074, 175.590 704.350, 183.997 689.500 C 220.756 624.571, 265.787 565.408, 319.500 511.471 C 338.111 492.783, 358.813 473.479, 359.504 474.170 C 359.695 474.362, 358.765 478.789, 357.437 484.009 C 354.548 495.368, 352.366 509.791, 351.433 523.709 L 350.748 533.919 341.124 537.098 C 326.194 542.030, 282.649 557.951, 281.819 558.781 C 281.099 559.501, 315.334 647.615, 317.021 649.381 C 317.499 649.882, 329.328 646.104, 344.422 640.631 C 359.030 635.334, 371.171 631, 371.402 631 C 371.633 631, 374.160 635.388, 377.018 640.750 C 395.130 674.737, 417.428 691.589, 450.500 696.282 L 459.500 697.559 453.500 701.632 C 432.933 715.592, 407.535 726.263, 384.500 730.624 C 379.550 731.561, 375.434 732.366, 375.352 732.414 C 375.271 732.461, 375.999 751.850, 376.969 775.500 C 377.940 799.150, 378.635 818.621, 378.514 818.770 C 378.103 819.273, 365.531 816.072, 358.481 813.669 C 351.505 811.291, 344.642 808.111, 340.154 805.178 C 338.864 804.334, 336.839 803.583, 335.654 803.507 C 334.469 803.432, 314.600 793.182, 291.500 780.730 L 249.500 758.091 246.767 763.818 C 238.805 780.504, 236.446 805.332, 240.931 825.221 C 248.596 859.210, 276.645 887.887, 317.914 903.929 C 352.560 917.396, 387.224 922.539, 451 923.674 C 497.076 924.494, 548.789 922.410, 617.500 916.966 C 663.317 913.336, 739.890 905.326, 741.319 904.014 C 742.090 903.306, 730.354 808.023, 729.376 807.043 C 729.125 806.792, 719.955 807.595, 708.999 808.827 C 642.125 816.350, 580.011 821.402, 522.500 823.995 C 497.643 825.116, 437.532 825.339, 428.028 824.345 L 421.763 823.690 434.631 819.491 C 451.999 813.824, 460.957 810.112, 476.968 801.947 C 506.350 786.965, 531.829 768.248, 554.836 744.745 L 561.172 738.273 572.144 742.600 C 606.690 756.224, 647.739 766.510, 681.757 770.065 C 697.052 771.664, 733.465 770.782, 746 768.509 C 769.311 764.283, 792.453 754.920, 809.427 742.849 C 820.294 735.120, 837.695 718.661, 847.857 706.500 C 874.615 674.477, 894.544 629.589, 901.577 585.500 C 903.715 572.094, 904.573 537.112, 903.079 524.258 C 896.053 463.828, 866.895 414.882, 818.744 382.688 C 790.208 363.610, 755.914 351.561, 715.500 346.415 C 708.350 345.505, 702.357 344.385, 702.182 343.927 C 701.086 341.053, 691.008 325.345, 686.401 319.329 C 679.099 309.795, 663.209 294.696, 653.961 288.505 C 638.445 278.119, 619.170 270.256, 600 266.493 C 588.472 264.230, 562.143 263.427, 548.986 264.938 C 539.574 266.018, 524.594 268.598, 516.500 270.532 C 513.830 271.170, 513.665 271.083, 515 269.742 C 517.344 267.388, 543.355 249.662, 567 234.306 C 597.870 214.257, 625.890 197.322, 654.250 181.573 C 667.862 174.013, 679 167.449, 679 166.986 C 679 166.162, 649.029 68.679, 648.678 68.362 C 648.580 68.274, 637.925 72.431, 625 77.600 M 547.500 365.020 C 527.194 369.197, 509.036 376.041, 481.500 389.897 C 470.940 395.210, 463.277 399.610, 464.250 399.802 C 465.212 399.991, 466 400.901, 465.999 401.823 C 465.999 402.745, 463.766 422.850, 461.037 446.500 C 455.306 496.163, 454.695 503, 455.986 503 C 456.501 503, 460.877 502.065, 465.711 500.922 C 470.545 499.779, 484.337 496.880, 496.360 494.479 C 508.383 492.078, 518.430 489.904, 518.686 489.647 C 519.709 488.624, 514.612 435.082, 511.489 414.041 C 510.717 408.838, 510.178 404.500, 510.293 404.400 C 510.788 403.966, 607.176 387.849, 607.429 388.157 C 608.568 389.546, 614.399 440.817, 615.998 463.500 C 617.705 487.710, 617.041 485.748, 623.783 486.512 C 662.847 490.941, 696.598 498.558, 725.942 509.566 C 733.884 512.545, 740.728 515.328, 741.149 515.749 C 741.718 516.318, 702.156 602.949, 700.470 604.829 C 700.308 605.010, 694.372 603.139, 687.279 600.672 C 667.683 593.855, 647.108 589.146, 621.312 585.576 L 617.123 584.996 616.553 589.248 C 616.240 591.587, 615.521 597.550, 614.956 602.500 C 613.644 613.987, 611.517 626.866, 608.871 639.342 C 607.703 644.854, 607.164 649.564, 607.646 650.046 C 609.081 651.481, 627.633 657.902, 642.500 662.110 C 668.770 669.545, 699.120 673.811, 716.500 672.511 C 739.078 670.823, 749.517 666.401, 763.346 652.667 C 797.589 618.658, 813.531 562.128, 801.525 517.288 C 790.392 475.708, 755.065 450.030, 700.789 444.067 C 686.736 442.523, 677.373 442.722, 651.179 445.121 C 637.876 446.340, 627.522 446.880, 627.076 446.379 C 626.647 445.895, 624.850 436.500, 623.084 425.500 C 621.318 414.500, 619.186 403.025, 618.347 400 C 614.686 386.808, 604.589 372.892, 595.205 368.105 C 584.552 362.670, 565.055 361.409, 547.500 365.020 M 495.500 595.450 C 473.693 600.414, 461.054 603.613, 460.311 604.356 C 459.481 605.186, 497.151 659.025, 498.135 658.416 C 501.499 656.338, 509.355 633.324, 512.957 615 C 516.745 595.731, 517.295 590.983, 515.731 591.062 C 515.054 591.096, 505.950 593.071, 495.500 595.450 " stroke="none" fill="black" fill-rule="evenodd"/>
</svg>