<svg xmlns="http://www.w3.org/2000/svg" width="1000" height="1000" viewBox="0 0 1000 1000" version="1.1">
	<path d="M 490.500 98.631 C 442.604 105.767, 393.702 129.310, 334.500 173.735 C 310.198 191.971, 272.255 224.549, 258.209 239.238 L 254.919 242.679 289.836 276.839 C 309.040 295.628, 325.011 311, 325.326 311 C 325.641 311, 331.434 305.773, 338.199 299.385 C 360.744 278.096, 393.595 251.643, 416.682 236.187 C 458.566 208.147, 496.522 193.115, 515.625 197.002 C 520.772 198.049, 522.190 198.901, 527.069 203.876 C 532.999 209.923, 540.322 220.273, 546.368 231.154 L 550.065 237.808 542.782 238.932 C 441.678 254.535, 293.690 323.744, 135 429.638 C 121.525 438.630, 109.518 446.777, 108.317 447.743 L 106.135 449.500 134.317 489.201 C 149.818 511.037, 162.862 528.924, 163.305 528.951 C 163.748 528.978, 170.948 524.335, 179.305 518.634 C 271.366 455.832, 378.291 397.184, 458.500 365.498 C 488.194 353.767, 528.107 341.574, 546.886 338.497 L 551.272 337.778 550.591 340.494 C 546.743 355.824, 527.025 396.614, 502.973 439 C 470.998 495.347, 461.912 516.642, 458.918 542.250 C 455.955 567.590, 464.220 591.255, 482.426 609.562 C 499.635 626.865, 521.594 637.333, 549.317 641.450 C 562.833 643.457, 590.773 643.465, 607.030 641.467 C 626.743 639.045, 663.210 631.123, 665.585 628.748 C 666.036 628.298, 636.655 536.314, 635.788 535.459 C 635.630 535.303, 631.554 536.230, 626.730 537.519 C 608.531 542.383, 583.132 545.536, 570.439 544.506 C 566.006 544.146, 561.803 543.496, 561.099 543.061 C 559.233 541.908, 567.336 525.760, 589.480 486.500 C 610.566 449.116, 622.950 425.078, 631.984 404 C 638.206 389.483, 647.650 362.335, 650.075 352 C 650.784 348.975, 651.719 346.087, 652.151 345.582 C 653.812 343.640, 681.402 353.577, 699.429 362.609 C 717.319 371.573, 729.017 379.990, 743.037 393.985 C 749.932 400.868, 757.867 409.875, 760.670 414 C 776.197 436.850, 785.893 463.332, 791.137 497.208 C 794.096 516.319, 794.886 562.760, 792.591 582.608 C 786.820 632.509, 765.065 677.449, 728.565 714.870 C 684.675 759.868, 630.040 787.367, 564 797.701 C 554.826 799.136, 546.532 799.497, 523 799.485 C 495.143 799.471, 492.613 799.314, 477.565 796.659 C 408.823 784.530, 356.501 751.358, 319.581 696.497 C 313.099 686.864, 298 658.063, 298 655.330 C 298 654.599, 297.306 654, 296.458 654 C 295.610 654, 282.223 657.847, 266.708 662.549 C 251.194 667.251, 230.850 673.384, 221.500 676.180 C 212.150 678.975, 204.117 681.608, 203.649 682.032 C 202.605 682.977, 210.479 702.937, 217.247 716.500 C 241.334 764.767, 278.552 807.945, 322.295 838.367 C 370.556 871.931, 425.848 891.479, 489.955 897.639 C 511.800 899.739, 550.862 899.003, 572.571 896.083 C 692.937 879.895, 796.956 811.907, 852.110 713.374 C 872.566 676.827, 884.799 639.433, 890.670 595.500 C 892.869 579.042, 893.213 518.701, 891.205 501.500 C 887.689 471.378, 881.862 444.236, 874.139 422 C 843.207 332.939, 774.350 274.033, 669.628 247.042 L 654.756 243.208 651.902 232.124 C 644.787 204.494, 631.144 176.830, 612.409 152.040 C 590.682 123.292, 570.929 109.332, 540.833 101.456 C 531.710 99.068, 528.334 98.718, 512 98.468 C 501.825 98.312, 492.150 98.385, 490.500 98.631 " stroke="none" fill="black" fill-rule="evenodd"/>
</svg>