<svg xmlns="http://www.w3.org/2000/svg" width="1000" height="1000" viewBox="0 0 1000 1000" version="1.1">
	<path d="M 482.500 85.081 C 456.650 87.170, 435.050 88.907, 434.500 88.941 C 433.881 88.979, 433.434 95.582, 433.328 106.251 C 432.861 153.114, 424.357 192.912, 406.461 231.985 C 387.595 273.179, 360.616 315.692, 324.146 361.699 L 312.891 375.897 340.125 413.199 C 355.104 433.714, 367.472 450.656, 367.610 450.847 C 367.747 451.037, 378.804 444.556, 392.180 436.443 C 405.556 428.331, 424.405 417.306, 434.068 411.945 C 453.485 401.170, 480.002 387.669, 480.591 388.257 C 480.964 388.631, 479.687 390.782, 461.154 421 C 440.784 454.210, 412.648 497.346, 392.664 526 C 362.263 569.592, 313.639 630.076, 282.924 662.506 C 277.191 668.559, 271.631 674.534, 270.569 675.784 C 268.960 677.679, 267.779 684.810, 263.479 718.621 C 259.943 746.418, 258.662 759.313, 259.409 759.590 C 260.009 759.813, 269.275 761.769, 280 763.938 C 367.102 781.550, 450.426 805.945, 519.664 834.105 C 566.892 853.313, 628.815 886.902, 687.809 925.314 C 696.315 930.853, 703.472 934.886, 703.915 934.391 C 705.559 932.555, 759 855.163, 759 854.619 C 759 852.346, 692.654 811.327, 656.500 791.247 C 595.360 757.290, 539.355 733.363, 467.579 710.535 C 449.087 704.654, 398.605 689.862, 393.644 688.871 C 392.162 688.575, 394.458 685.276, 405.041 672.500 C 454.658 612.600, 502.476 543.566, 558.467 451 C 581.539 412.857, 622.608 340.564, 629.487 325.987 C 631.128 322.509, 631.055 322.107, 622.052 285.051 C 617.052 264.468, 612.722 247.389, 612.430 247.097 C 611.626 246.293, 559.922 256.667, 539.500 261.729 C 523.705 265.645, 503.072 271.484, 497.681 273.565 C 495.939 274.237, 495.933 274.102, 497.545 270.384 C 515.789 228.301, 525.251 192.608, 530.122 147.500 C 531.682 133.049, 531.976 81.768, 530.500 81.478 C 529.950 81.370, 508.350 82.991, 482.500 85.081 " stroke="none" fill="black" fill-rule="evenodd"/>
</svg>