<svg xmlns="http://www.w3.org/2000/svg" width="1000" height="1000" viewBox="0 0 1000 1000" version="1.1">
	<path d="M 604.500 72.472 C 584.594 77.115, 566.670 84.314, 516 108.017 C 435.143 145.841, 422.106 149.553, 370.500 149.446 C 344.169 149.391, 324.750 147.647, 305.511 143.611 C 301.667 142.804, 298.438 142.228, 298.335 142.331 C 298.233 142.434, 292.935 163.304, 286.563 188.708 C 280.190 214.112, 274.726 235.551, 274.419 236.351 C 273.774 238.032, 276.799 238.803, 298.653 242.528 C 358.724 252.766, 418.818 250.332, 467.500 235.690 C 482.878 231.064, 509.204 220.186, 542.500 204.699 C 551.300 200.606, 558.663 197.399, 558.861 197.573 C 559.682 198.292, 533.537 244.347, 517.835 269.841 C 512.869 277.903, 501.105 296.099, 491.692 310.276 C 478.817 329.665, 474.196 335.898, 473.038 335.432 C 468.914 333.771, 452.042 329.940, 442.831 328.573 C 417.208 324.772, 375.965 324.561, 343 328.062 C 268.131 336.015, 186.966 409.388, 175.433 479.543 C 173.377 492.048, 173.999 509.115, 176.924 520.500 C 179.505 530.543, 186.321 544.491, 192.879 553.150 C 213.060 579.796, 254.382 597.905, 295.178 597.980 C 341.117 598.065, 387.712 575.243, 441.746 526.191 C 447.385 521.071, 452 517.346, 452 517.912 C 452 520.747, 446 531.818, 438.334 543.128 L 429.775 555.756 451.551 592.628 C 463.528 612.908, 473.824 630.055, 474.433 630.734 C 475.296 631.696, 480.215 630.222, 496.777 624.037 C 541.427 607.362, 571.574 598.981, 608.500 592.975 C 636.412 588.436, 664.598 588.470, 679.463 593.061 C 693.998 597.551, 709.739 611.617, 717.301 626.872 C 721.248 634.837, 721.500 635.859, 721.500 643.923 C 721.500 650.912, 721.064 653.386, 719.143 657.286 C 710.386 675.071, 681.508 691.822, 630.051 708.963 C 608.915 716.004, 583.966 722.535, 542 732.011 C 476.552 746.789, 460.189 752.693, 437.179 769.831 C 423.322 780.152, 411.857 797.040, 406.809 814.568 C 403.739 825.230, 403.501 848.728, 406.355 859.500 C 415.567 894.272, 444.907 916.873, 491.500 925.089 C 508.708 928.124, 543.911 928.802, 569.500 926.592 C 594.354 924.445, 641.814 917.519, 643.547 915.786 C 644.164 915.169, 623.970 821.742, 622.987 820.662 C 622.567 820.201, 613.736 821.185, 603.362 822.849 C 592.988 824.513, 581.575 826.110, 578 826.398 C 570.235 827.024, 568.920 827.406, 603.624 818.938 C 681.887 799.842, 740.084 774.751, 772.340 746.198 C 815.658 707.853, 830.967 654.989, 813.901 602.684 C 798.492 555.454, 758.558 515.512, 710.755 499.516 C 691.447 493.056, 679.367 491.514, 648 491.506 C 617.966 491.499, 607.335 492.511, 577.500 498.213 C 554.548 502.599, 555.902 502.429, 556.471 500.865 C 557.882 496.990, 558.841 464.712, 557.988 449.820 C 556.953 431.743, 555.195 420.916, 551.412 409.327 L 548.892 401.607 552.132 397.054 C 589.729 344.216, 632.945 272.289, 660.013 217.500 C 689.106 158.612, 694.591 136.676, 686.558 111.343 C 680.270 91.513, 662.873 75.782, 642.500 71.504 C 631.971 69.294, 616.430 69.690, 604.500 72.472 M 366.500 425.179 C 358.800 425.668, 349.800 426.726, 346.500 427.531 C 338.226 429.551, 322.002 437.728, 313 444.417 C 302.881 451.936, 289.009 465.910, 282.908 474.731 C 276.852 483.487, 272.492 492.892, 273.856 494.256 C 275.727 496.127, 288.545 499, 295.018 499 C 315.709 499, 342.797 483.184, 378.500 450.259 C 385.100 444.172, 393.569 435.774, 397.320 431.596 L 404.141 424 392.320 424.146 C 385.819 424.226, 374.200 424.691, 366.500 425.179 " stroke="none" fill="black" fill-rule="evenodd"/>
</svg>