<svg xmlns="http://www.w3.org/2000/svg" width="1000" height="1000" viewBox="0 0 1000 1000" version="1.1">
	<path d="M 244.250 131.744 C 218.813 139.767, 198 146.726, 198 147.209 C 198 149.445, 205.863 168.776, 211.541 180.500 C 232.301 223.362, 257.327 252.359, 291.240 272.843 C 312.755 285.839, 343.977 298.987, 373.288 307.395 C 395.173 313.672, 395.780 313.763, 396.458 310.853 C 398.361 302.678, 414.997 219.368, 414.983 218.081 C 414.970 216.902, 411.217 215.446, 400.233 212.358 C 366.646 202.915, 338.140 188.684, 324.786 174.694 C 314.423 163.837, 302.484 144.070, 294.922 125.250 C 293.098 120.713, 291.358 117.035, 291.053 117.079 C 290.749 117.122, 269.688 123.722, 244.250 131.744 M 671 125.123 C 660.655 125.801, 654.730 126.971, 645.500 130.156 C 620.199 138.887, 592.765 157.803, 563.250 186.868 C 558.712 191.336, 555 195.390, 555 195.876 C 555 196.363, 571.214 211.475, 591.031 229.459 L 627.063 262.158 635.521 254.152 C 646.457 243.800, 658.943 233.610, 659.728 234.395 C 661.419 236.086, 653.840 265.160, 646.860 283.761 C 636.093 312.453, 622.418 340.924, 602.914 375.258 C 595.336 388.598, 591.154 396.940, 591.673 397.682 C 592.128 398.331, 606.900 410.429, 624.500 424.566 C 642.100 438.703, 657.269 450.936, 658.208 451.752 C 659.754 453.093, 661.595 452.214, 677.545 442.515 C 695.851 431.384, 707.198 426.054, 722.508 421.395 C 730.451 418.978, 733.193 418.650, 746.015 418.580 C 760.476 418.500, 760.554 418.512, 767.222 421.791 C 776.032 426.124, 782.207 433.136, 789.389 446.958 C 801.061 469.423, 805.639 490.079, 804.691 516 C 803.407 551.136, 790.980 581.502, 765.419 611.968 C 754.988 624.400, 746.319 632.174, 717.422 655.009 C 638.236 717.582, 614.390 742.700, 603.181 775.342 C 600.159 784.142, 599.632 787.104, 599.239 797.500 C 598.868 807.339, 599.154 810.964, 600.829 817.632 C 604.854 833.648, 612.024 845.840, 624.665 858.162 C 646.702 879.643, 675.363 891.996, 717.519 898.182 C 731.704 900.264, 785.475 899.949, 805.500 897.668 C 831.160 894.744, 864 888.962, 864 887.368 C 864 886.536, 841.903 792.570, 841.647 792.314 C 841.526 792.192, 835.593 793.162, 828.463 794.469 C 797.383 800.164, 765.279 802.610, 742.370 801.030 C 728.083 800.044, 710.990 797.213, 707.487 795.253 C 704.314 793.477, 732.778 768.480, 780.998 730.696 C 817.093 702.412, 841.988 677.137, 859.986 650.500 C 910.479 575.775, 917.851 483.775, 879.540 406.500 C 864.591 376.348, 848.645 356.943, 826.582 342.055 C 805.404 327.765, 781.942 320.362, 754.475 319.306 L 739.450 318.728 744.232 304.403 C 757.670 264.153, 762.677 228.627, 758.629 202.264 C 753.587 169.434, 736.893 144.728, 711.500 132.520 C 697.893 125.978, 687.344 124.051, 671 125.123 M 338 392.637 C 328.698 393.836, 314.888 400.176, 305.778 407.429 C 295.349 415.733, 284.270 431.244, 277.228 447.398 C 275.575 451.192, 273.544 454.676, 272.715 455.139 C 270.011 456.653, 247.787 461.873, 235 463.998 C 220.832 466.353, 196.734 467.567, 190 466.265 C 185.812 465.456, 185.514 465.191, 185.700 462.448 C 185.895 459.573, 184.861 458.897, 144.119 435.250 C 121.139 421.913, 101.845 411, 101.241 411 C 99.771 411, 94.460 422.413, 90.993 433.021 C 70.465 495.839, 106.097 552.035, 173.844 563.688 C 186.870 565.928, 218.874 565.910, 236.163 563.653 C 243.128 562.744, 249.011 562, 249.238 562 C 249.464 562, 249.085 566.388, 248.395 571.750 C 246.345 587.687, 243.183 619.989, 241.371 643.500 C 239.226 671.335, 238.888 739.248, 240.798 758.500 C 243.901 789.774, 248.558 813.111, 255.166 830.500 C 257.624 836.968, 262.186 844.985, 271.385 859 C 278.425 869.725, 284.506 878.840, 284.898 879.255 C 285.527 879.922, 343.541 860.386, 347.967 858.017 C 348.925 857.505, 352.293 850.689, 355.489 842.795 C 358.672 834.933, 367.235 814.550, 374.518 797.500 C 410.092 714.216, 433.372 667.652, 462.760 621 C 473.917 603.290, 474.547 602.205, 473.981 601.700 C 472.386 600.278, 394.295 548.445, 393.380 548.202 C 391.489 547.698, 366.012 588.604, 349.452 618.732 C 345.150 626.559, 341.555 632.859, 341.463 632.732 C 341.087 632.209, 344.174 602.134, 346.568 583 C 349.031 563.312, 351.842 545.091, 354.049 534.500 L 355.092 529.500 365.512 523.600 C 389.806 509.846, 404.046 494.319, 409.629 475.500 C 412.320 466.425, 412.091 450.621, 409.127 441 C 405.316 428.631, 400.399 420.376, 391.515 411.431 C 378.923 398.753, 367.090 393.316, 350.500 392.584 C 345.550 392.365, 339.925 392.389, 338 392.637 " stroke="none" fill="black" fill-rule="evenodd"/>
</svg>