<svg xmlns="http://www.w3.org/2000/svg" width="1000" height="1000" viewBox="0 0 1000 1000" version="1.1">
	<path d="M 625.660 70.979 C 594.554 76.642, 563.644 98.882, 527.792 141.399 L 525.347 144.297 519.436 135.899 C 496.006 102.610, 463.913 86.748, 428.568 90.987 C 413.621 92.779, 394.260 99.837, 385.244 106.780 L 382.988 108.518 411.951 148.226 C 427.880 170.066, 440.524 188.176, 440.047 188.471 C 439.570 188.765, 438.465 188.732, 437.590 188.396 C 436.716 188.061, 436 188.023, 436 188.313 C 436 188.603, 438.421 192.364, 441.379 196.670 C 448.609 207.194, 457.077 222.736, 460.901 232.500 C 462.624 236.900, 465.306 246.657, 466.859 254.181 L 469.684 267.862 467.592 268.358 C 464.171 269.168, 391.128 283.407, 354.500 290.405 C 282.122 304.232, 264.683 306.615, 225.608 308.015 C 198.905 308.972, 150.235 308.041, 118.135 305.959 C 109.134 305.375, 101.533 305.133, 101.245 305.422 C 100.087 306.580, 93.113 402.452, 94.141 403.087 C 95.182 403.730, 103.478 404.254, 140.500 406.014 C 166.991 407.273, 229.481 407.257, 249.517 405.986 C 283.325 403.843, 309.128 399.820, 394.019 383.460 C 412.454 379.907, 427.979 377.002, 428.519 377.005 C 429.059 377.008, 425.187 378.955, 419.915 381.332 C 376.236 401.030, 332.585 444.392, 310.018 490.500 C 288.935 533.577, 287.626 571.256, 306.223 599.743 C 315.079 613.310, 325.929 622.310, 343.377 630.562 C 374.724 645.387, 406.191 645.577, 439.259 631.141 L 444.019 629.063 442.385 632.223 C 436.507 643.589, 433.262 661.458, 434.916 673.345 C 436.763 686.621, 440.415 694.222, 449.647 704.009 C 457.332 712.155, 464.604 716.866, 474.793 720.297 C 478.804 721.647, 482.266 722.932, 482.485 723.152 C 482.705 723.372, 471.562 729.840, 457.723 737.526 C 416.276 760.543, 397.376 773.119, 381.188 788.448 C 367.353 801.550, 356.958 817.995, 352.396 834 C 349.593 843.832, 349.799 862.934, 352.821 873.455 C 361.764 904.586, 388.161 925.282, 429.979 933.947 C 478.114 943.922, 552.776 942.733, 650.842 930.430 C 665.880 928.544, 678.593 927, 679.092 927 C 679.591 927, 680.003 925.987, 680.007 924.750 C 680.013 922.523, 665.891 829.779, 665.457 829.199 C 665.333 829.034, 658.767 829.800, 650.866 830.901 C 592.103 839.095, 516.335 843.843, 484.232 841.344 L 475.963 840.701 479.003 838.852 C 480.675 837.835, 495.776 829.351, 512.561 819.998 C 570.424 787.757, 590.644 773.218, 606.042 752.783 C 617.639 737.394, 622.854 723.861, 623.725 706.903 C 624.851 684.972, 617.491 666.874, 601.482 652.205 C 594.546 645.849, 581.817 638.632, 572 635.491 C 568.975 634.522, 566.362 633.615, 566.192 633.474 C 566.023 633.333, 569.237 628.332, 573.335 622.359 C 590.902 596.752, 600.992 568.034, 605.077 532.016 C 606.400 520.344, 605.754 486.698, 604.052 478.661 L 603.027 473.822 611.898 459.661 C 630.760 429.550, 655.394 383.604, 670.691 350 L 677.747 334.500 686.124 333.849 C 710.341 331.968, 813.408 333.234, 866.355 336.063 C 877.275 336.646, 886.427 336.906, 886.692 336.641 C 887.269 336.064, 893.368 239.012, 892.855 238.575 C 892.399 238.186, 846.593 236.184, 810.500 234.976 C 795.100 234.460, 766.862 234.029, 747.750 234.019 C 724.619 234.006, 713 233.656, 713 232.971 C 713 232.406, 714.100 226.443, 715.445 219.721 C 716.791 213, 718.366 203.130, 718.945 197.789 C 720.460 183.840, 720.244 160.053, 718.504 149.328 C 712.270 110.887, 690.287 82.941, 658.500 73.049 C 650.610 70.594, 633.649 69.525, 625.660 70.979 M 275.672 101.336 C 258.298 139.902, 249.905 167.904, 247.536 195.203 C 246.209 210.487, 250.408 235.390, 257.570 254.728 C 261.130 264.338, 272.957 288.315, 275.332 290.737 C 276.290 291.714, 284.931 286.391, 316.522 265.367 C 338.510 250.733, 356.847 238.444, 357.271 238.059 C 357.695 237.673, 355.992 233.029, 353.486 227.738 C 347.229 214.529, 345.241 205.054, 346.809 195.910 C 348.914 183.634, 359.748 153.297, 367.469 138.061 C 369.362 134.326, 369.653 132.962, 368.718 132.205 C 366.990 130.805, 283.197 89, 282.119 89 C 281.630 89, 278.728 94.551, 275.672 101.336 M 611.460 195.685 C 599.601 208.998, 576.983 238.534, 571.725 247.574 C 571.355 248.209, 578.516 247.387, 589.260 245.562 L 607.421 242.477 609.779 234.989 C 615.019 218.352, 621.864 187.531, 620.600 186.266 C 620.381 186.048, 616.268 190.286, 611.460 195.685 M 524.500 357.954 C 505.250 361.694, 486.350 365.401, 482.500 366.191 L 475.500 367.628 487 368.236 C 504.801 369.178, 520.944 373.145, 535.427 380.138 C 538.687 381.712, 541.685 383, 542.090 383 C 542.494 383, 545.510 378.163, 548.792 372.250 C 554.906 361.236, 560.242 350.940, 559.767 351.077 C 559.620 351.119, 543.750 354.214, 524.500 357.954 M 472.513 467.175 C 454.905 470.533, 429.234 489.879, 412.062 512.733 C 404.333 523.018, 394.256 540.590, 395.420 541.753 C 396.953 543.286, 413.807 532.858, 427 522.213 C 442.638 509.596, 474.621 480.949, 480.082 474.669 L 486.315 467.500 483.408 466.868 C 479.530 466.026, 478.366 466.059, 472.513 467.175 " stroke="none" fill="black" fill-rule="evenodd"/>
</svg>