<svg xmlns="http://www.w3.org/2000/svg" width="1000" height="1000" viewBox="0 0 1000 1000" version="1.1">
	<path d="M 347.430 62.846 C 296.942 107.820, 264.297 159.495, 255.415 208.500 C 253.197 220.738, 252.922 246.921, 254.896 258 C 255.630 262.125, 258.667 273.600, 261.644 283.500 C 264.620 293.400, 267.156 302.731, 267.278 304.236 C 267.485 306.783, 266.831 307.276, 257.862 311.338 C 238.064 320.304, 223.491 330.028, 208.194 344.478 C 168.308 382.158, 148.281 434.174, 152.054 490.290 C 154.590 528.009, 165.344 568.046, 183.906 608.874 L 189.721 621.667 178.769 634.584 C 165.078 650.729, 154.715 662.062, 130.101 687.808 C 113.734 704.927, 110.907 708.320, 112.093 709.418 C 117.082 714.040, 189.919 776, 190.364 776 C 190.666 776, 200.496 764.919, 212.207 751.376 C 223.918 737.832, 235.130 724.900, 237.123 722.637 L 240.747 718.523 247.284 731.570 C 257.482 751.920, 275.330 798.965, 288.989 841.500 C 290.226 845.350, 291.746 849.005, 292.369 849.621 C 292.991 850.238, 307.900 853.518, 325.500 856.910 C 343.100 860.302, 363.952 864.345, 371.837 865.894 C 381.651 867.822, 386.287 868.362, 386.534 867.605 C 387.281 865.310, 396.050 794.508, 398.436 771.500 C 407.573 683.400, 409.595 629.415, 405.947 571 L 405.041 556.500 407.912 554 C 417.639 545.529, 453.392 515.927, 463.414 508.046 C 542.900 445.543, 615.717 406.172, 667.861 397.505 C 682.265 395.112, 703.618 395.783, 713.500 398.940 C 730.878 404.492, 747.473 415.090, 757.825 427.247 C 764.470 435.051, 772.188 450.751, 774.908 462 C 786.350 509.312, 770.094 579.312, 731.206 650.185 C 711.288 686.487, 685.720 721.463, 661.530 745.500 C 633.363 773.488, 585.896 810.224, 524.029 851.914 L 502.185 866.633 528.343 907.803 C 542.729 930.447, 554.987 948.980, 555.582 948.987 C 557.047 949.005, 596.564 922.285, 623 903.401 C 686.699 857.899, 727.742 822.242, 757.360 786.671 C 811.412 721.755, 853.451 638.137, 869.508 563.605 C 874.471 540.566, 876.130 526.567, 876.713 502.798 C 877.508 470.379, 874.628 448.147, 866.376 423 C 861.749 408.899, 850.537 386.623, 842.257 375.080 C 814.073 335.788, 768.383 307.750, 718 298.828 C 706.768 296.839, 668.296 297.164, 655.500 299.356 C 586.046 311.254, 511.142 348.363, 423.711 414.190 L 407.922 426.078 408.597 413.289 C 410.498 377.221, 399.972 345.083, 379.632 324.855 L 372.951 318.210 367.425 295.967 C 364.386 283.733, 359.839 267.148, 357.321 259.112 C 350.141 236.192, 350.479 225.556, 359.019 205.722 C 368.030 184.793, 389.607 157.152, 413.297 136.191 L 419.095 131.061 388.985 92.530 C 372.425 71.339, 358.535 54, 358.118 54 C 357.701 54, 352.892 57.981, 347.430 62.846 M 283.500 409.738 C 277.251 414.267, 269.097 422.545, 264.958 428.561 C 260.315 435.310, 254.509 448.438, 252.381 457 C 250.155 465.955, 249.906 486.353, 251.880 498 C 254.135 511.305, 258.170 527.110, 259.222 526.759 C 263.156 525.448, 296 463.570, 296 457.469 C 296 453.762, 290.332 413.254, 289.191 408.807 L 288.500 406.113 283.500 409.738 " stroke="none" fill="black" fill-rule="evenodd"/>
</svg>