<svg xmlns="http://www.w3.org/2000/svg" width="1000" height="1000" viewBox="0 0 1000 1000" version="1.1">
	<path d="M 340.270 96.365 C 318.144 110.772, 299.601 122.999, 299.065 123.535 C 298.431 124.169, 300.167 127.028, 304.021 131.698 C 320.821 152.055, 352.526 173.105, 387.095 186.852 C 420.501 200.137, 449.471 206.992, 490 211.202 C 506.216 212.886, 578.448 212.877, 601.500 211.187 C 631.694 208.975, 688.584 202.889, 689.518 201.771 C 689.810 201.422, 675.245 107.080, 674.666 105.571 C 674.348 104.743, 669.500 105.021, 656.864 106.594 C 610.970 112.305, 574.801 114.380, 532.500 113.725 C 487.515 113.030, 468.341 110.336, 438.386 100.505 C 417.378 93.610, 391.156 80.117, 384.037 72.539 C 382.725 71.143, 381.392 70.038, 381.076 70.085 C 380.759 70.131, 362.397 81.957, 340.270 96.365 M 359.019 364.180 C 347.860 388.866, 338.904 409.224, 339.115 409.420 C 340.264 410.484, 375.995 424.238, 391.297 429.506 L 409.095 435.633 397.970 442.930 C 354.272 471.592, 324.673 507.129, 310.579 547.852 C 299.026 581.234, 298.474 620.105, 309.093 652.500 C 331.445 720.688, 415.727 797.454, 557.500 878.755 C 591.295 898.136, 666.299 937.212, 667.283 935.951 C 668.087 934.921, 708 847.988, 708 847.266 C 708 846.833, 698.212 841.599, 686.250 835.636 C 599.766 792.523, 521.550 743.768, 469.267 700.381 C 452.967 686.854, 427.919 661.513, 418.771 649.294 C 403.125 628.395, 398.353 613.836, 400.799 594.466 C 403.022 576.867, 409.969 563.276, 424.481 548.133 C 437.969 534.058, 453.862 523.013, 478 510.938 C 518.455 490.702, 564.538 477.524, 623 469.474 C 637.575 467.467, 649.594 465.733, 649.709 465.621 C 649.984 465.351, 641.021 365.095, 640.487 362.474 L 640.074 360.447 611.287 362.262 C 578.713 364.315, 554.841 363.692, 525.345 360.021 C 480.731 354.469, 434.153 341.917, 388.903 323.253 L 379.306 319.295 359.019 364.180 " stroke="none" fill="black" fill-rule="evenodd"/>
</svg>