<svg xmlns="http://www.w3.org/2000/svg" width="1000" height="1000" viewBox="0 0 1000 1000" version="1.1">
	<path d="M 454.948 78.250 C 442.680 100.388, 430.726 121.017, 428.383 124.094 C 424.311 129.441, 401.059 152.392, 400.391 151.724 C 399.302 150.635, 407.855 102.863, 411.976 87.012 C 413.047 82.893, 413.603 79.237, 413.212 78.887 C 412.192 77.975, 320.947 47.719, 320.516 48.150 C 319.857 48.810, 314.078 71.363, 311.511 83.294 C 308.565 96.989, 303.838 125.724, 301.404 144.742 L 299.709 157.983 296.486 155.992 C 292.162 153.319, 291.619 153.435, 289.430 157.500 C 288.393 159.425, 287.265 161, 286.922 161 C 286.580 161, 273.767 145.705, 258.450 127.011 C 233.932 97.087, 230.400 93.169, 228.919 94.261 C 222.301 99.139, 207.051 110.011, 204.992 111.319 C 202.543 112.875, 202.014 112.648, 182.492 101.656 C 171.496 95.466, 155.181 86.284, 146.236 81.254 L 129.971 72.107 126.635 78.803 C 115.531 101.094, 110.097 127.291, 112.094 148.903 C 116.020 191.385, 146.427 223, 183.359 223 C 192.350 223, 202.905 221.084, 213.588 217.514 C 223.987 214.038, 245.401 202.878, 259.652 193.507 L 271.057 186.006 267.641 191.347 C 265.762 194.284, 258.492 205.551, 251.486 216.384 C 244.480 227.218, 238.917 236.218, 239.124 236.385 C 239.331 236.551, 243.662 239.548, 248.750 243.044 C 253.837 246.540, 258 249.686, 258 250.035 C 258 250.384, 254.063 253.616, 249.250 257.217 C 212.641 284.608, 195.085 311.379, 193.322 342.500 C 192.190 362.494, 199.813 386.929, 211.528 400.851 L 214.060 403.860 207.074 414.251 C 195.143 431.999, 187.402 449.260, 183.347 467.162 C 180.767 478.554, 180.979 500.125, 183.781 511.301 C 190.861 539.546, 210.744 562.674, 239.479 576.089 C 248.714 580.401, 260.743 584.369, 269.750 586.076 L 276 587.260 276 599.433 L 276 611.605 257.250 615.749 C 234.260 620.831, 208.505 625.408, 206.732 624.728 C 206.009 624.450, 194.005 605.723, 180.057 583.112 C 166.108 560.500, 154.289 542, 153.793 542 C 152.243 542, 141.307 549.807, 132.213 557.405 C 98.505 585.569, 82.744 614.843, 84.273 646.448 C 85.252 666.671, 92.558 683.205, 107.443 698.879 C 115.449 707.309, 122.491 712.432, 132.373 717.012 C 159.573 729.621, 196.325 729.140, 263.500 715.295 C 275.600 712.801, 286.096 710.702, 286.824 710.630 C 287.676 710.547, 289.366 714.497, 291.564 721.711 C 302.143 756.424, 316.868 786.971, 337.312 816.617 L 346.500 829.940 355.500 829.948 C 365.725 829.957, 430.091 827.243, 430.550 826.783 C 430.716 826.618, 431.340 817.261, 431.938 805.991 C 433.291 780.491, 433.493 778.968, 437.148 766.664 C 440.816 754.317, 447.014 741.042, 458.331 721.295 C 463.099 712.975, 467 705.955, 467 705.695 C 467 705.435, 457.212 699.028, 445.250 691.458 C 433.288 683.888, 422.914 677.160, 422.197 676.508 C 421.175 675.578, 427.540 673.570, 451.697 667.202 C 507.667 652.447, 533.257 647.083, 576.500 641.041 C 588.600 639.350, 599.802 637.748, 601.394 637.480 L 604.288 636.992 603.607 646.246 C 601.406 676.162, 595.480 700.256, 579.812 743 C 568.144 774.829, 557.750 795.425, 539.809 822.260 C 530.773 835.776, 514.426 857.630, 504.099 870 C 500.196 874.675, 497.115 878.772, 497.251 879.104 C 497.388 879.436, 513.700 894.407, 533.500 912.373 L 569.500 945.039 573.386 940.770 C 575.523 938.421, 581.634 931.100, 586.965 924.500 C 620.588 882.875, 647.625 839.425, 662.491 803.130 C 675.759 770.735, 688.574 731.808, 694.139 707 C 699.136 684.725, 702.989 653.963, 702.997 636.295 L 703 628.091 706.250 627.564 C 710.604 626.858, 747.074 624.733, 747.467 625.162 C 747.637 625.348, 742.659 641.250, 736.405 660.500 C 730.151 679.750, 725.026 695.770, 725.017 696.101 C 725.008 696.432, 728.190 698.111, 732.088 699.833 C 742.295 704.341, 752.091 711.181, 758.539 718.303 C 761.626 721.711, 768.697 731.250, 774.254 739.500 C 779.810 747.750, 784.909 754.445, 785.584 754.377 C 786.747 754.260, 867.586 708.503, 869.319 706.981 C 870.188 706.218, 865.572 698.263, 855.693 683.501 C 838.189 657.345, 822.402 640.247, 803.742 627.236 C 798.582 623.638, 798.219 623.162, 800.242 622.656 C 801.484 622.346, 823.022 621.776, 848.105 621.389 L 893.709 620.687 894.355 608.686 C 894.710 602.086, 895 579.882, 895 559.343 L 895 522 879.750 522.007 C 842.652 522.025, 768.332 524.626, 721.599 527.541 C 708.454 528.361, 697.621 528.912, 697.526 528.766 C 697.431 528.620, 696.345 524.015, 695.112 518.534 C 691.307 501.605, 682.011 474.850, 675.407 461.817 C 674.008 459.056, 673.074 456.250, 673.330 455.582 C 673.587 454.913, 678.005 451.956, 683.148 449.011 C 716.390 429.975, 765.127 398.383, 789 380.395 C 834.717 345.950, 855.095 320.649, 861.510 290.369 C 867.398 262.577, 856.956 234.276, 834.626 217.511 C 826.651 211.523, 814.438 205.149, 805.709 202.420 L 799.917 200.609 800.709 193.554 C 802.251 179.801, 801.496 159.264, 799.115 150.204 C 791.130 119.828, 770.455 99.319, 740.209 91.769 C 733.182 90.015, 728.699 89.608, 717 89.658 C 701.324 89.725, 690.799 91.463, 671.689 97.140 C 637.621 107.261, 582.876 133.586, 530.388 165.087 C 513.143 175.438, 513.217 175.416, 517.029 168.950 C 520.933 162.330, 526.320 149.249, 528.128 142 C 528.967 138.636, 529.468 131.451, 529.419 123.500 C 529.349 112.372, 528.947 109.218, 526.630 101.600 C 520.968 82.992, 512.471 68.380, 499.616 55.145 C 491.935 47.238, 480.423 38, 478.249 38 C 477.701 38, 467.215 56.112, 454.948 78.250 M 686.500 196.357 C 652.796 209.484, 619.951 226.378, 571.406 255.560 C 521.902 285.317, 460.808 326.307, 410.117 363.772 L 398.735 372.184 403.117 374.773 C 420.154 384.837, 431.696 397.404, 439.584 414.476 C 444.480 425.072, 446.053 432.637, 446.700 448.686 L 447.271 462.873 470.386 451.325 C 483.099 444.974, 500.837 435.952, 509.805 431.278 C 525.495 423.099, 526.046 422.708, 524.417 420.908 C 523.245 419.613, 523.028 418.647, 523.713 417.769 C 529.346 410.539, 584.399 343.871, 585.088 343.446 C 585.592 343.134, 592.942 349.692, 601.421 358.018 C 615.955 372.291, 616.971 373.087, 619.169 371.940 C 623.744 369.551, 660.712 347.538, 672.500 340.185 C 698.287 324.098, 740.895 294.539, 739.812 293.488 C 739.640 293.322, 731.189 293.573, 721.031 294.048 C 709.252 294.597, 702.346 294.559, 701.965 293.943 C 701.286 292.845, 689.957 219.592, 689.983 216.472 C 689.992 215.356, 691.624 211.081, 693.608 206.972 C 698.708 196.410, 700.216 191.991, 698.706 192.036 C 698.043 192.056, 692.550 194, 686.500 196.357 M 299.557 455.750 C 291.631 464.907, 284.869 474.806, 282.051 481.381 L 280.023 486.112 283.762 487.692 C 300.256 494.663, 329.784 484.166, 342.583 466.780 C 348.094 459.294, 348.209 457.433, 343.250 456.041 C 339.732 455.054, 307.679 448, 306.711 448 C 306.466 448, 303.247 451.488, 299.557 455.750 M 441.539 487.713 C 437.990 499.181, 429.453 515.565, 421.517 526.139 C 413.071 537.392, 397.636 552.047, 385.836 560.017 L 376.236 566.500 375.627 571.500 C 374.705 579.062, 374.879 585, 376.022 585 C 376.585 585, 391.322 581.139, 408.772 576.421 C 442.118 567.404, 476.345 558.855, 496.500 554.507 C 518.740 549.711, 587.129 539, 595.519 539 C 597.018 539, 598 538.427, 598 537.552 C 598 535.074, 592.970 519.895, 589.290 511.269 L 585.779 503.038 564.639 514.059 C 525.707 534.357, 483.812 555.111, 482.389 554.804 C 481.614 554.637, 472.852 537.630, 462.918 517.011 C 452.983 496.392, 444.721 479.388, 444.557 479.224 C 444.393 479.060, 443.035 482.880, 441.539 487.713 " stroke="none" fill="black" fill-rule="evenodd"/>
</svg>