<svg xmlns="http://www.w3.org/2000/svg" width="1000" height="1000" viewBox="0 0 1000 1000" version="1.1">
	<path d="M 406.159 130.270 C 405.479 143.243, 404.653 156.135, 404.323 158.920 L 403.723 163.983 387.612 172.321 C 367.126 182.923, 343.584 196.986, 321.834 211.612 C 312.443 217.927, 304.645 222.960, 304.505 222.797 C 303.960 222.162, 298.979 199.853, 296.624 187.500 C 294.391 175.780, 292.260 161.871, 290.459 147.250 C 289.903 142.736, 289.509 142, 287.652 142 C 286.463 142, 265.693 143.348, 241.496 144.994 C 217.298 146.641, 196.196 147.991, 194.602 147.994 L 191.705 148 192.375 156.750 C 194.737 187.617, 205.673 240.219, 217.036 275.367 L 221.842 290.234 197.265 314.367 C 173.121 338.075, 150.392 362.203, 136.383 379 C 129.866 386.814, 103 427.730, 103 429.841 C 103 431.525, 115.981 460.299, 120.645 468.955 C 136.120 497.672, 157.600 523.106, 179.751 538.940 C 201.973 554.825, 224.167 562, 251.080 562 C 272.618 562, 291.929 557.208, 312.188 546.838 C 331.665 536.867, 346.754 525.402, 366.604 505.491 L 379.708 492.347 387.604 495.974 C 400.965 502.111, 407.069 504.333, 407.986 503.390 C 409.658 501.672, 441.686 412.086, 440.910 411.297 C 440.479 410.859, 442.865 405.775, 446.213 400 C 466.539 364.945, 481.706 316.662, 492.496 252.663 C 494.336 241.753, 495.989 232.722, 496.170 232.594 C 496.972 232.029, 515.403 226.805, 524.500 224.564 C 548.399 218.676, 568.619 216.576, 594.810 217.265 C 615.950 217.820, 628.632 219.611, 649.274 224.952 C 683.864 233.904, 712.361 249.144, 725.513 265.726 C 740.919 285.149, 744.054 311.745, 734.859 345 C 732.106 354.956, 725.953 371, 724.887 371 C 724.421 371, 721.668 369.486, 718.769 367.635 C 672.410 338.033, 595.417 335.109, 542.941 360.958 C 508.043 378.148, 487.740 405.817, 485.379 439.405 C 482.537 479.843, 508.404 516.549, 551.919 533.826 C 556.638 535.700, 560.871 537.574, 561.324 537.990 C 562.313 538.899, 543.378 547.011, 524.224 553.885 C 499.250 562.846, 468.568 570.399, 446.250 573.079 C 440.258 573.798, 435.994 574.764, 435.986 575.405 C 435.956 577.801, 443.083 666.702, 443.534 669.555 L 444.017 672.609 452.259 671.781 C 490.150 667.976, 542.241 654.098, 584.095 636.657 C 664.145 603.301, 723.717 558.927, 751.446 512.002 C 754.337 507.109, 759.098 500.494, 762.026 497.303 C 779.178 478.606, 801.250 443.660, 814.008 415 C 858.554 314.932, 842.587 227.539, 769.743 172.716 C 731.764 144.131, 672.856 123.974, 612.500 118.909 C 585.830 116.670, 545.336 119.257, 517.640 124.967 C 512.217 126.085, 507.166 127, 506.417 127 C 505.318 127, 505.175 125.159, 505.678 117.500 L 506.302 108 489.814 108 C 480.746 108, 458.492 107.704, 440.361 107.342 L 407.396 106.684 406.159 130.270 M 371.406 297.277 C 364.858 301.841, 355.922 308.258, 351.548 311.538 C 347.175 314.817, 343.186 317.783, 342.685 318.129 C 342.184 318.475, 343.038 320.950, 344.582 323.629 C 348.316 330.105, 360.921 349, 361.508 349 C 362.355 349, 367.689 337.647, 372.313 326 C 376.963 314.289, 384.490 290.157, 383.731 289.398 C 383.501 289.167, 377.955 292.713, 371.406 297.277 M 254.421 396.250 C 241.020 409.899, 228.177 423.621, 221.658 431.259 L 216.815 436.932 219.115 440.216 C 222.706 445.345, 233.082 455.935, 237.523 459.004 C 239.736 460.533, 243.348 462.324, 245.551 462.984 C 256.972 466.406, 276.071 456.691, 294.395 438.138 L 301.291 431.157 295.278 424.328 C 288.517 416.651, 276.527 400.644, 270.500 391.251 C 268.300 387.823, 266.268 385.014, 265.984 385.009 C 265.700 385.004, 260.497 390.063, 254.421 396.250 M 608.300 443.137 C 604.889 443.627, 601.064 444.411, 599.800 444.880 C 592.616 447.542, 638.056 449.963, 651.500 447.634 C 655.944 446.864, 656.235 446.667, 654.116 445.866 C 645.438 442.586, 621.901 441.184, 608.300 443.137 M 241.442 613.156 C 235.974 617.666, 223.152 629.714, 212.949 639.928 C 186.525 666.382, 173.152 683.182, 149.898 719.139 C 123.553 759.875, 69.676 846.028, 70.226 846.540 C 70.687 846.969, 154.238 901, 154.440 901 C 154.544 901, 161.567 890.829, 170.047 878.398 C 188.072 851.975, 193.774 844.850, 210.283 828.119 C 247.070 790.838, 285.358 768.623, 324.500 761.848 C 340.007 759.165, 362.092 759.637, 374.500 762.917 C 406.963 771.499, 430.913 797.007, 444.029 836.972 C 446.898 845.712, 448.699 854.423, 451.480 872.990 C 453.497 886.460, 455.271 897.604, 455.423 897.756 C 455.981 898.314, 543.522 895.708, 544.123 895.115 C 544.466 894.777, 547.523 887.075, 550.917 878 C 563.569 844.166, 579.231 818.718, 601.312 796.120 C 630.516 766.231, 659.012 752.683, 695.591 751.296 C 719.108 750.404, 735.272 753.604, 754.566 762.970 C 788.024 779.211, 818.341 815.747, 837.434 862.838 C 839.811 868.702, 842.523 875.862, 843.459 878.750 C 844.395 881.638, 845.372 884, 845.631 884 C 847.411 884, 938.698 859.529, 939.455 858.849 C 941.377 857.121, 930.076 826.410, 919.456 804.500 C 902.513 769.546, 882.614 741.566, 856.863 716.485 C 820.874 681.433, 783.207 662.305, 734.500 654.347 C 726.319 653.011, 717.862 652.546, 701.500 652.534 C 677.112 652.516, 665.327 653.873, 644.601 659.086 C 598.384 670.710, 554.607 698.689, 519.420 739.092 L 510.822 748.965 507.246 743.732 C 479.229 702.733, 436.343 674.254, 388.849 665.109 C 360.460 659.642, 334.230 659.783, 300.942 665.580 L 297.383 666.200 275.505 636.850 C 263.472 620.707, 253.122 606.927, 252.505 606.227 C 251.625 605.229, 249.241 606.722, 241.442 613.156 " stroke="none" fill="black" fill-rule="evenodd"/>
</svg>