<svg xmlns="http://www.w3.org/2000/svg" width="1000" height="1000" viewBox="0 0 1000 1000" version="1.1">
	<path d="M 412 109.640 C 388.075 119.845, 368.159 128.514, 367.742 128.905 C 367.326 129.295, 368.975 135.664, 371.408 143.058 C 380.318 170.134, 381.836 186.070, 377.394 205.880 C 372.018 229.857, 363.274 252.893, 336.735 313 C 310.617 372.156, 301.790 395.029, 295.635 419.500 C 286.496 455.840, 286.075 494.242, 294.469 526 C 296.478 533.603, 316.266 579.962, 317.511 579.983 C 318.067 579.992, 329.700 575.954, 343.362 571.010 C 378.265 558.378, 402.836 551.292, 432 545.449 C 435.104 544.827, 431.258 549.033, 398 582.629 C 344.380 636.794, 322.637 661.728, 301.941 692.787 C 284.454 719.029, 273.301 743.662, 267.816 768.156 C 265.807 777.130, 265.510 781.083, 265.573 798 C 265.640 815.650, 265.890 818.401, 268.208 827 C 274.118 848.919, 282.717 865.398, 295 878.346 C 312.911 897.226, 334.504 907.115, 370 912.693 C 379.776 914.229, 387.723 914.493, 423 914.453 C 459.091 914.412, 470.495 913.989, 510.500 911.210 C 593.281 905.458, 607.489 905.276, 640.407 909.542 C 653.098 911.187, 678.671 915.988, 687.953 918.469 C 690.953 919.271, 693.560 919.774, 693.746 919.587 C 694.643 918.691, 721.234 825.901, 720.737 825.404 C 719.772 824.439, 702.294 820.185, 686.500 817.071 C 634.918 806.902, 599.541 805.864, 511.500 811.940 C 424.151 817.969, 392.210 818.076, 372.179 812.408 C 367.573 811.105, 366.642 810.405, 365.256 807.201 C 360.033 795.127, 366.734 773.665, 383.740 748 C 400.333 722.959, 415.935 705.277, 468.876 651.517 C 526.317 593.186, 539.422 577.778, 550.541 555.500 C 557.534 541.491, 560.102 531.616, 560.163 518.500 C 560.275 494.603, 549.146 474.209, 528.497 460.469 C 503.180 443.624, 468.877 439.511, 420.251 447.491 C 412.095 448.830, 402.515 450.610, 398.961 451.448 C 388.642 453.880, 388.937 454.046, 390.613 446.750 C 394.773 428.636, 404.053 404.800, 427.571 351.822 C 459.916 278.957, 472.387 243.015, 477.612 207.609 C 481.559 180.858, 476.725 145.480, 464.132 108.939 C 458.196 91.716, 457.895 90.997, 456.652 91.043 C 456.018 91.066, 435.925 99.435, 412 109.640 M 495.138 259.146 C 494.104 261.541, 485.325 281.582, 475.629 303.681 C 465.933 325.781, 458 344.144, 458 344.486 C 458 346.530, 491.601 357.981, 515 363.913 C 576.209 379.428, 630.378 378.511, 688.815 360.968 C 703.261 356.632, 727.995 347.509, 730.340 345.653 C 731.570 344.679, 728.539 337.670, 710.814 300.500 C 699.273 276.300, 689.741 256.409, 689.631 256.299 C 689.521 256.188, 684.078 258.138, 677.536 260.633 C 662.665 266.303, 639.173 272.348, 623.486 274.541 C 607.553 276.767, 579.616 276.109, 562.500 273.102 C 542.171 269.532, 516.641 262.471, 498.759 255.474 C 497.393 254.940, 496.613 255.731, 495.138 259.146 " stroke="none" fill="black" fill-rule="evenodd"/>
</svg>