<svg xmlns="http://www.w3.org/2000/svg" width="1000" height="1000" viewBox="0 0 1000 1000" version="1.1">
	<path d="M 311.500 85.241 C 285.100 89.108, 263.398 92.351, 263.273 92.447 C 263.147 92.543, 264.840 105.644, 267.033 121.561 C 271.291 152.452, 282.394 240.599, 283.575 252.888 L 284.286 260.276 280.393 259.566 C 271.702 257.981, 253.673 251.194, 240.038 244.376 C 232.084 240.398, 225.255 237.342, 224.862 237.585 C 224.470 237.828, 211.664 255.008, 196.404 275.763 C 181.144 296.518, 168.242 314.050, 167.731 314.721 C 165.927 317.095, 193.373 332.767, 215.232 341.846 C 235.073 350.087, 258.491 356.687, 281 360.382 L 294.500 362.599 295.635 379.049 C 296.259 388.097, 297.074 406.075, 297.446 419 L 298.122 442.500 253.414 488 C 228.824 513.025, 208.217 533.500, 207.620 533.500 C 207.022 533.500, 204.788 530.961, 202.655 527.857 C 197.887 520.920, 195.432 511.482, 193.782 493.750 L 192.596 481 143.179 481 L 93.761 481 94.457 491.750 C 96.439 522.351, 101.436 545.772, 110.025 564.715 C 117.040 580.187, 134.353 602.184, 157.648 625.221 C 167.924 635.384, 172.675 639.066, 193.375 652.906 L 217.250 668.868 225.372 660.184 C 229.838 655.408, 236.003 648.856, 239.071 645.624 L 244.650 639.747 251.793 648.624 C 259.756 658.520, 271.122 677.974, 294.954 722.500 C 310.442 751.435, 311.109 752.488, 313.756 752.171 C 323.070 751.052, 405.403 737.931, 405.838 737.495 C 406.131 737.202, 405.822 724.033, 405.152 708.231 C 402.503 645.810, 400.036 578.635, 399.029 541.500 C 398.448 520.050, 397.843 498.291, 397.685 493.146 L 397.398 483.793 419.449 462.542 C 548.798 337.889, 660.832 250.180, 715.500 230.770 C 727.685 226.444, 727.559 226.441, 729.394 231.028 C 734.845 244.651, 724.545 264.698, 699.084 290.021 C 679.083 309.912, 660.707 323.565, 628.500 342.462 C 617.500 348.917, 608.148 354.528, 607.718 354.931 C 607.287 355.335, 610.128 364.853, 614.030 376.082 C 621.009 396.168, 635.233 441.122, 634.748 441.563 C 634.612 441.687, 625.725 444.719, 615 448.301 C 558.984 467.012, 518.239 490.143, 486.149 521.450 C 471.247 535.989, 463.108 546.480, 457.368 558.546 C 451.890 570.064, 449.816 579.008, 449.843 591 C 449.915 623.457, 468.281 648.321, 508.500 670.406 C 515.100 674.030, 533.100 682.676, 548.500 689.620 C 576.732 702.348, 640.958 733.722, 666.083 747.058 L 679.666 754.267 707.542 737.243 L 735.418 720.219 739.668 707.510 C 749.635 677.709, 754.621 638.290, 755.675 580.956 C 756.238 550.346, 755.389 527.668, 753.370 519.396 C 752.884 517.405, 753.520 517.204, 765.178 515.661 C 797.326 511.406, 831.239 508.685, 867.654 507.441 L 887.807 506.752 888.369 498.126 C 888.678 493.382, 889.059 471.275, 889.216 449 L 889.500 408.500 870.500 408.809 C 829.453 409.478, 781.456 413.383, 740.151 419.415 C 734.289 420.271, 731.682 420.316, 731.411 419.567 C 731.199 418.980, 729.638 413.793, 727.941 408.040 L 724.856 397.580 727.678 395.543 C 747.406 381.299, 772.036 358.226, 788.574 338.500 C 837.729 279.867, 843.089 215.453, 803.134 163.523 C 788.629 144.672, 771.734 133.819, 750.090 129.451 C 739.050 127.223, 718.352 127.861, 705.500 130.825 C 650.316 143.552, 576.993 190.721, 471.500 281.358 C 462.150 289.391, 454.270 295.972, 453.988 295.982 C 453.706 295.992, 447.181 284.264, 439.488 269.921 C 431.795 255.578, 425.243 243.419, 424.929 242.902 C 424.612 242.380, 421.450 243.282, 417.805 244.934 C 411.457 247.813, 391.200 255.049, 385.887 256.336 C 383.280 256.968, 383.271 256.950, 382.584 249.235 C 380.291 223.518, 361.163 77.920, 360.102 78.105 C 359.771 78.162, 337.900 81.374, 311.500 85.241 M 639 544.389 C 611.907 554.306, 594.198 562.915, 576.384 574.829 C 558.481 586.803, 558.726 585.632, 572.736 592.213 C 579.206 595.252, 591.250 600.736, 599.500 604.399 C 607.750 608.063, 623.275 615.272, 634 620.418 C 644.725 625.565, 653.784 629.489, 654.132 629.138 C 656.158 627.093, 658.243 545.404, 656.393 540.582 C 656.059 539.712, 655.272 539.018, 654.643 539.041 C 654.014 539.063, 646.975 541.470, 639 544.389 M 169.661 722.750 C 154.594 776.795, 167.444 830.224, 204.490 867.566 C 249.351 912.786, 320.078 931.910, 452.500 934.624 C 539.542 936.408, 671.527 927.085, 794.671 910.454 C 804.666 909.104, 813.328 908, 813.921 908 C 814.515 908, 815 906.987, 815 905.750 C 814.999 903.142, 801.184 810.850, 800.725 810.392 C 800.557 810.223, 788.737 811.619, 774.460 813.494 C 654.690 829.218, 543.030 837.006, 456.500 835.669 C 375.183 834.413, 326.623 827.268, 295.213 811.937 C 285.050 806.977, 281.723 804.759, 275.971 799.108 C 264.646 787.984, 260.499 775.481, 262.775 759.334 C 263.383 755.025, 263.569 751.234, 263.190 750.909 C 262.214 750.072, 173.572 717, 172.306 717 C 171.733 717, 170.542 719.587, 169.661 722.750 " stroke="none" fill="black" fill-rule="evenodd"/>
</svg>