<svg xmlns="http://www.w3.org/2000/svg" width="1000" height="1000" viewBox="0 0 1000 1000" version="1.1">
	<path d="M 345.500 92.171 C 320.200 99.883, 299.296 106.391, 299.047 106.632 C 298.798 106.874, 299.367 109.868, 300.311 113.286 C 314.339 164.062, 324.036 210.145, 329.035 249.791 L 331.215 267.082 318.341 280.291 C 303.856 295.153, 289.037 311.918, 275.045 329.273 C 269.845 335.723, 265.282 341, 264.906 341 C 264.530 341, 263.914 339.312, 263.536 337.250 C 262.533 331.771, 252.636 302.526, 249.334 295.284 L 246.500 289.069 203.305 311.313 C 179.548 323.547, 159.863 333.804, 159.562 334.105 C 159.260 334.407, 160.375 338.384, 162.038 342.943 C 170.273 365.506, 177.142 399.794, 179.987 432.537 C 182.043 456.200, 177.913 485.090, 169.369 506.827 C 135.791 592.243, 114.342 684.381, 105.310 782 C 102.081 816.907, 103.202 899.467, 106.959 903.335 C 107.634 904.030, 201.694 885.639, 202.722 884.611 C 202.907 884.426, 202.560 876.001, 201.951 865.888 C 200.452 841.004, 201.979 804.589, 206.076 767.500 C 217.669 662.545, 250.892 551.049, 293.298 474.785 C 300.939 461.043, 315.779 437.742, 314.496 441.500 C 313.127 445.510, 312.675 489.341, 313.912 498.056 C 315.511 509.318, 318.504 519.980, 322.458 528.500 C 327.464 539.285, 330.290 542.799, 360.828 576.217 L 363.310 578.933 350.405 592.568 C 301.189 644.567, 269.161 682.681, 252.429 709.160 C 243.898 722.661, 231.377 747.811, 226.701 760.840 C 211.999 801.799, 211.214 842.417, 224.503 874.596 C 238.338 908.099, 264.014 929.726, 299.407 937.689 C 309.364 939.930, 331.875 939.919, 343.241 937.669 C 389.548 928.502, 434.057 893.839, 470.422 838.623 C 493.711 803.259, 510.074 767.201, 515.908 738.386 C 525.230 692.343, 517.948 642.680, 495.253 597.524 L 491.747 590.548 500.654 582.024 C 512.170 571.003, 549.388 536.403, 558.817 527.951 L 566.124 521.402 533.903 484.951 C 516.181 464.903, 501.325 448.357, 500.890 448.183 C 500.041 447.843, 488.887 457.895, 455.341 489.233 C 443.703 500.105, 433.984 509, 433.742 509 C 433.500 509, 428.535 503.812, 422.708 497.471 C 410.746 484.453, 410.194 483.091, 411.452 469.665 L 412.137 462.362 421.318 460.624 C 477.735 449.944, 525.097 428.014, 556.183 398.177 C 589.501 366.198, 604.285 326.571, 597.473 287.508 C 591.142 251.203, 563.807 220.053, 527 207.201 C 510.836 201.557, 503.532 200.497, 481 200.528 C 459.351 200.557, 452.850 201.376, 433.100 206.564 C 427.929 207.922, 423.557 208.890, 423.383 208.716 C 423.209 208.542, 421.459 199.872, 419.495 189.450 C 413.507 157.666, 405.532 123.222, 397.396 94 C 392.790 77.459, 392.964 77.989, 392.183 78.075 C 391.807 78.116, 370.800 84.460, 345.500 92.171 M 762.500 158.676 C 736.947 160.621, 710.429 171.476, 682.500 191.421 C 667.561 202.089, 654.769 213.146, 636.502 231.178 C 619.752 247.713, 617.681 250.104, 619.002 251.383 C 619.826 252.180, 636.695 266.798, 656.489 283.865 L 692.478 314.898 698.947 307.809 C 706.925 299.069, 723.736 283.813, 734.007 275.995 C 743.137 269.045, 756.879 260.546, 757.685 261.352 C 758.603 262.269, 749.284 276.543, 740.991 286.924 C 736.782 292.191, 728.426 301.925, 722.420 308.557 C 716.414 315.188, 705.006 327.788, 697.068 336.557 C 652.201 386.122, 637 414.819, 637 449.955 C 637 477.072, 645.608 499.163, 662.137 514.467 C 673.033 524.554, 683.715 530.126, 703.574 536.079 C 717.867 540.365, 725.644 543.662, 727.917 546.400 C 729.021 547.730, 728.284 548.924, 722.854 554.612 C 719.359 558.272, 702.550 573.656, 685.500 588.798 C 622.240 644.979, 592.552 678.714, 573.587 715.966 C 549.899 762.498, 546.471 815.038, 564.745 851.500 C 570.162 862.309, 574.758 868.749, 583.699 878.060 C 601.864 896.977, 626.210 909.911, 657.783 917.419 C 702.669 928.092, 761.565 928.432, 832.500 918.427 C 852.244 915.643, 886.836 909.497, 887.715 908.618 C 888.280 908.053, 867.384 814.051, 866.496 813.163 C 866.228 812.895, 858.245 814.083, 848.755 815.803 C 828.707 819.437, 800.464 823.315, 780.500 825.175 C 762.171 826.883, 713.501 826.880, 701 825.170 C 679.686 822.254, 659.656 815.705, 654.464 809.956 C 652.746 808.053, 652.502 806.322, 652.520 796.140 C 652.536 786.813, 653.001 783.020, 654.860 777.049 C 664.132 747.267, 689.156 717.314, 748.500 664.960 C 802.862 617.001, 819.579 597.242, 828.607 570.274 C 832.061 559.954, 832.996 541.854, 830.599 531.671 C 825.760 511.109, 808.655 485.172, 789.415 469.219 C 777.532 459.368, 761.686 450.810, 746.250 445.909 C 742.263 444.642, 739 443.202, 739 442.709 C 739 441.152, 747.713 428.829, 754.897 420.226 C 758.697 415.675, 771.700 401.050, 783.792 387.726 C 822.227 345.374, 834.144 329.731, 845.949 306.134 C 866.491 265.071, 863.626 225.058, 837.799 192.304 C 825.632 176.874, 809.275 166.200, 790.682 161.558 C 781.519 159.270, 770.069 158.099, 762.500 158.676 M 473.678 299.120 C 463.252 300.184, 452.285 303.288, 442.518 307.940 C 430.429 313.698, 431.249 312.314, 429.459 330 C 428.597 338.525, 427.477 348.174, 426.970 351.441 C 426.464 354.709, 426.235 357.568, 426.462 357.795 C 427.414 358.747, 450.077 350.335, 460.847 345.031 C 482.126 334.553, 496.587 321.397, 499.861 309.542 C 501.243 304.537, 500.108 302.560, 494.761 300.658 C 488.991 298.605, 483.001 298.168, 473.678 299.120 M 403.324 680.337 C 345.198 743.177, 323.567 774.444, 315.887 806.723 C 313.226 817.909, 313.470 834.016, 316.369 838.440 C 318.044 840.996, 318.611 841.196, 323.006 840.773 C 325.649 840.520, 331.116 838.731, 335.156 836.799 C 358.720 825.530, 384.281 795.587, 404.794 755.222 C 418.623 728.008, 421.587 716.501, 420.693 693.500 C 420.393 685.800, 419.709 677.925, 419.171 676 C 418.634 674.075, 417.917 671.263, 417.578 669.750 C 417.239 668.237, 416.633 667.039, 416.231 667.087 C 415.829 667.135, 410.021 673.097, 403.324 680.337 " stroke="none" fill="black" fill-rule="evenodd"/>
</svg>