<svg xmlns="http://www.w3.org/2000/svg" width="1000" height="1000" viewBox="0 0 1000 1000" version="1.1">
	<path d="M 469.182 86.440 C 444.807 95.990, 424.638 104.029, 424.361 104.306 C 424.084 104.582, 427.284 115.293, 431.471 128.108 C 443.737 165.649, 454.217 205.388, 463.403 249.192 C 468.848 275.155, 474.426 305.908, 473.803 306.530 C 472.816 307.517, 444.278 310.027, 421.286 311.149 C 374.157 313.449, 329.085 308.962, 294.744 298.553 C 273.847 292.219, 251.776 281.622, 241.905 273.183 C 239.498 271.125, 237.547 270.160, 236.763 270.640 C 231.714 273.732, 160 329.311, 160 330.131 C 160 331.910, 172.105 343.933, 180.500 350.494 C 235.037 393.113, 319.284 413.937, 421 409.940 C 442.560 409.093, 467.855 407.200, 482.182 405.361 L 486.864 404.760 487.428 408.130 C 488.265 413.140, 490.853 448.812, 491.953 470.500 C 493.599 502.947, 494.308 553.264, 493.527 582.123 L 492.779 609.746 470.640 610.275 C 447.281 610.833, 431.625 612.479, 412.262 616.412 C 405.793 617.725, 400.382 618.690, 400.238 618.555 C 400.093 618.419, 402.211 613.627, 404.944 607.904 C 414.667 587.547, 422.322 559.947, 424.945 535.789 C 427.797 509.528, 425.193 476.167, 418.432 452.360 C 417.847 450.298, 416.113 450.789, 371.162 465.748 C 345.498 474.288, 324.443 481.326, 324.374 481.388 C 324.305 481.449, 324.870 484.875, 325.630 489 C 327.510 499.207, 327.467 523.328, 325.550 534.171 C 323.683 544.732, 319.928 556.858, 315.577 566.381 C 309.017 580.736, 285.462 617.053, 263.915 646.034 C 221.512 703.066, 175.634 753.712, 119.750 805.183 C 107.238 816.708, 97.071 826.444, 97.158 826.819 C 97.246 827.193, 114.326 844.349, 135.115 864.942 L 172.914 902.384 194.707 880.940 C 221.042 855.026, 248.369 829.561, 272.242 808.690 C 292.460 791.014, 313.247 774, 314.625 774 C 316.216 774, 332.051 784.873, 341.558 792.494 C 365.470 811.662, 391.364 837.868, 421.129 873.025 C 436.792 891.526, 449.225 907.666, 471 937.767 C 481.175 951.832, 489.747 963.376, 490.048 963.420 C 490.720 963.518, 545.850 917.468, 548.135 914.900 C 550.683 912.036, 557.735 891.228, 562.568 872.311 C 571.364 837.887, 579.641 786.681, 584.078 739.250 C 584.759 731.962, 585.689 726, 586.143 726 C 586.597 726, 593.256 728.256, 600.940 731.013 C 667.094 754.752, 740.544 797.521, 810.898 853.269 C 816.996 858.101, 818.525 858.900, 819.594 857.816 C 820.307 857.092, 834.149 839.850, 850.353 819.500 C 870.828 793.787, 879.524 782.146, 878.859 781.339 C 876.873 778.929, 841.713 752.479, 822.267 738.767 C 747.488 686.037, 669.537 646.658, 603 627.999 C 596.675 626.226, 591.480 624.713, 591.456 624.637 C 591.432 624.562, 591.696 608.075, 592.042 588 C 593.147 524.048, 591.035 455.244, 586.480 406.735 C 584.641 387.150, 584.642 387, 586.579 387 C 591.154 387, 648.109 371.900, 681 361.966 C 715.469 351.556, 785.885 327.505, 791.539 324.210 C 792.417 323.698, 788.067 311.068, 775.973 279.012 C 766.742 254.544, 758.802 233.909, 758.328 233.158 C 757.639 232.065, 752.172 233.690, 730.983 241.284 C 690.305 255.863, 653.622 267.625, 620 276.871 C 603.985 281.274, 573.570 289, 572.248 289 C 571.784 289, 570.597 284.163, 569.610 278.250 C 564.275 246.313, 553.413 196.537, 544.002 160.899 C 532.972 119.129, 516.933 68.960, 514.635 69.039 C 514.011 69.060, 493.557 76.891, 469.182 86.440 M 468.500 708.660 C 451.397 709.577, 426.341 713.587, 413.279 717.497 L 408.058 719.060 419.779 729.358 C 433.059 741.025, 453.704 761.380, 468.500 777.395 L 478.500 788.219 479.743 780.360 C 481.245 770.864, 486.764 721.706, 487.194 714 L 487.500 708.500 481 708.419 C 477.425 708.375, 471.800 708.483, 468.500 708.660 " stroke="none" fill="black" fill-rule="evenodd"/>
</svg>