<svg xmlns="http://www.w3.org/2000/svg" width="1000" height="1000" viewBox="0 0 1000 1000" version="1.1">
	<path d="M 263.500 96.410 C 225.882 102.175, 216.542 103.901, 216.709 105.057 C 220.644 132.278, 226.557 188.275, 228.317 215 C 229.324 230.293, 229.305 233.558, 228.210 233.834 C 225.836 234.434, 203.809 228.858, 190.500 224.288 C 175.591 219.169, 154.687 209.280, 144.557 202.552 C 137.939 198.157, 137.536 198.025, 135.939 199.721 C 135.017 200.699, 121.304 216.800, 105.464 235.500 C 89.625 254.200, 76.004 270.278, 75.196 271.229 C 73.405 273.338, 74.067 273.962, 88.107 283.419 C 112.924 300.134, 143.047 313.741, 176.589 323.385 C 189.621 327.132, 216.940 333, 221.354 333 C 222.860 333, 224.323 333.678, 224.649 334.527 C 225.942 337.897, 213.760 380.552, 202.667 411.500 C 189.685 447.714, 178.731 474.254, 159.589 515.871 C 152.665 530.925, 147.001 543.525, 147.002 543.871 C 147.003 544.326, 230.829 578.140, 235.839 579.707 C 236.203 579.820, 242.125 572.448, 249 563.324 C 270.334 535.011, 288.758 514.094, 307.626 496.765 C 317.922 487.309, 337.897 471.563, 338.646 472.312 C 339.893 473.559, 328.620 502.918, 317.281 527.955 C 301.447 562.919, 281.842 600.325, 235.414 684.159 C 175.992 791.458, 162.829 819.303, 158.949 845.911 C 157.288 857.301, 158.248 876.302, 160.965 885.839 C 168.089 910.840, 186.923 929.353, 211.500 935.512 C 219.594 937.540, 235.174 937.788, 244.787 936.041 C 295.433 926.838, 356.204 869.159, 410.247 779 C 422.619 758.359, 434.300 736.978, 454.498 698 C 472.884 662.519, 480.578 648.394, 488.815 635 C 495.087 624.801, 503.080 613.687, 504.991 612.505 C 506.794 611.391, 514.492 629.529, 516.449 639.500 C 516.773 641.150, 518.098 651.406, 519.394 662.292 C 520.690 673.177, 521.926 682.259, 522.140 682.474 C 523.072 683.406, 609.383 695.012, 610.053 694.295 C 610.462 693.858, 613.356 685.400, 616.486 675.500 C 624.309 650.750, 630.833 634.476, 640.942 614.500 C 656.248 584.252, 671.137 562.771, 689.464 544.496 C 712.327 521.698, 732.492 512, 757.032 512 C 775.063 512, 792.376 517.432, 805.577 527.230 C 828.947 544.577, 835.385 576.128, 822.840 611.834 C 801.971 671.232, 733.931 735.812, 632.500 792.496 C 624.800 796.799, 618.381 800.404, 618.236 800.507 C 617.711 800.880, 664.369 887, 665.095 887 C 665.504 887, 671.613 883.777, 678.670 879.837 C 778.933 823.861, 852.963 759.410, 892.705 693.500 C 917.522 652.341, 929.004 612.269, 927.661 571.500 C 926.590 538.977, 918.263 512.550, 900.810 486.288 C 891 471.526, 872.441 452.978, 857.632 443.137 C 829.771 424.620, 797.889 414.568, 762.995 413.297 C 727.510 412.004, 696.660 420.062, 664.609 438.992 C 633.720 457.237, 602.447 488.767, 577.565 526.750 C 573.872 532.388, 570.643 537, 570.389 537 C 570.135 537, 566.981 534.742, 563.380 531.981 C 555.063 525.607, 540.928 518.754, 530 515.799 C 522.719 513.830, 519.205 513.510, 505.500 513.570 C 491.486 513.631, 488.280 513.967, 479.673 516.282 C 461.830 521.079, 449.917 528.086, 435.961 541.992 C 416.640 561.244, 403.549 582.153, 367.711 651 C 341.927 700.532, 316.380 746, 314.335 746 C 314.061 746, 314.723 744.537, 315.806 742.750 C 319.623 736.449, 356.221 669.582, 368.594 646.304 C 412.002 564.635, 433.783 511.608, 440.521 471.192 C 442.634 458.521, 442.153 433.923, 439.609 424.500 C 437.055 415.044, 429.699 401.153, 423.319 393.737 C 410.775 379.159, 392.533 369.167, 372.584 365.949 C 358.063 363.607, 332.855 366.277, 319.635 371.557 C 318.023 372.201, 317.874 371.975, 318.540 369.901 C 318.963 368.581, 320.760 360.303, 322.531 351.507 L 325.752 335.514 343.626 332.783 C 362.264 329.936, 378.868 326.583, 395 322.410 C 409.817 318.577, 443 307.729, 443 306.718 C 443 305.322, 410.822 216.616, 409.968 215.659 C 409.556 215.197, 402.952 216.866, 395.294 219.369 C 379.592 224.501, 358.742 229.881, 342.699 232.940 C 327.130 235.909, 328 236.157, 327.999 228.750 C 327.996 213.764, 322.971 158.670, 317.943 118.500 C 314.234 88.868, 314.255 88.974, 312.171 89.104 C 311.252 89.160, 289.350 92.448, 263.500 96.410 " stroke="none" fill="black" fill-rule="evenodd"/>
</svg>