<svg xmlns="http://www.w3.org/2000/svg" width="1000" height="1000" viewBox="0 0 1000 1000" version="1.1">
	<path d="M 215 90.703 C 215 91.796, 214.526 99.847, 213.947 108.595 C 211.545 144.906, 205.934 184.673, 199.554 210.617 C 188.684 254.819, 179.678 270.044, 121.534 342.500 C 79.224 395.225, 68.443 414.398, 67.272 439 C 66.712 450.773, 67.800 458.225, 71.366 467.055 C 76.962 480.908, 81.585 486.385, 114.001 517.559 C 132.213 535.073, 142.376 552.038, 147.977 574.273 C 152.217 591.106, 153.157 601.682, 153.078 631.665 C 152.959 676.561, 149.167 740.402, 141.423 827.885 C 139.506 849.547, 138.063 867.359, 138.218 867.468 C 138.593 867.732, 228.396 875.177, 233.393 875.358 L 237.286 875.500 243.666 851.500 C 250.862 824.428, 257.131 805.238, 266.620 781.235 C 304.289 685.945, 360.969 595.737, 424.426 530.076 C 448.176 505.502, 472.535 483.427, 493.882 467.133 L 503.265 459.971 511.995 481.736 C 530.172 527.053, 554.893 579.237, 572.047 608.500 C 604.480 663.828, 651.739 725.358, 714.908 794.500 C 738.897 820.757, 804.048 885.579, 829.500 908.512 C 841.600 919.415, 852.882 929.620, 854.570 931.190 L 857.640 934.044 887.070 899.847 C 903.257 881.039, 917.068 864.858, 917.763 863.888 C 918.793 862.450, 918.651 859.792, 916.994 849.461 C 912.852 823.644, 910.034 800.165, 907.395 769.500 C 906.110 754.564, 905.658 732.622, 905.282 666.909 L 904.804 583.319 874.152 582.661 C 857.293 582.299, 835.315 582.003, 825.311 582.002 L 807.123 582 806.440 586.550 C 806.065 589.052, 805.940 626.402, 806.162 669.550 C 806.384 712.697, 806.514 748, 806.451 748 C 806.192 748, 776.657 715.731, 767.552 705.500 C 720.220 652.317, 678.686 596.463, 653.777 552.500 C 636.186 521.453, 608.973 460.815, 590.639 411.812 L 588.137 405.125 601.818 397.204 C 650.484 369.032, 698.043 345.285, 739.313 328.550 C 765.588 317.896, 775.617 314.614, 802.483 307.880 C 815.673 304.573, 826.577 301.756, 826.714 301.619 C 827.146 301.188, 817.232 224.185, 816.617 223.190 C 815.793 221.856, 779.343 200.288, 755.500 187.026 C 729.155 172.371, 671.988 143.996, 650 134.661 C 570.902 101.077, 522.460 94.047, 487.292 111.049 C 464.409 122.111, 449.271 143.562, 443.119 173.642 C 435.818 209.341, 443.947 272.588, 465.400 347 C 467.858 355.525, 469.561 362.758, 469.184 363.073 C 468.808 363.388, 463.775 366.955, 458 370.999 C 385.205 421.972, 319.302 490.772, 264.756 572.736 L 251.290 592.972 249.547 579.786 C 242.510 526.531, 220.959 483.361, 183.097 446.678 L 172.959 436.855 181.196 426.178 C 185.726 420.305, 197.614 405.327, 207.614 392.893 C 263.712 323.141, 280.230 293.941, 293.815 240.500 C 304.216 199.585, 309.603 161.007, 313.449 99.888 L 313.990 91.277 297.245 90.650 C 288.035 90.306, 265.762 89.730, 247.750 89.370 C 215.520 88.727, 215 88.748, 215 90.703 M 845.655 170.546 C 837.540 195.597, 830.697 216.635, 830.446 217.296 C 830.182 217.995, 832.825 219.951, 836.745 221.957 C 845.382 226.378, 855.380 236.103, 856.894 241.557 C 859.587 251.256, 857.175 271.743, 851.368 288.500 C 849.463 294, 847.813 299.298, 847.702 300.273 C 847.545 301.651, 857.086 307.149, 890.500 324.936 L 933.500 347.826 937.202 340.163 C 942.534 329.125, 949.510 307.474, 952.398 293 C 963.619 236.749, 953.381 195.362, 919.992 162 C 909.717 151.733, 897.267 142.431, 884.450 135.444 C 877.104 131.440, 862.686 125, 861.066 125 C 860.704 125, 853.769 145.496, 845.655 170.546 M 539.400 213.250 C 540.324 228.456, 543.373 249.127, 547.597 268.831 C 550.636 283.008, 556.823 308.289, 557.327 308.592 C 557.422 308.649, 566.275 303.780, 577 297.772 C 587.725 291.764, 612.112 279.120, 631.193 269.674 C 650.274 260.229, 665.912 252.242, 665.943 251.926 C 666.011 251.246, 630.618 233.913, 617 227.958 C 592.788 217.369, 569.094 208.794, 552.057 204.453 C 537.550 200.757, 538.596 200.030, 539.400 213.250 " stroke="none" fill="black" fill-rule="evenodd"/>
</svg>