<svg xmlns="http://www.w3.org/2000/svg" width="1000" height="1000" viewBox="0 0 1000 1000" version="1.1">
	<path d="M 395 104.541 C 368.875 109.128, 347.491 112.907, 347.479 112.940 C 347.468 112.973, 348.666 121.438, 350.140 131.750 C 362.083 215.261, 365.558 299.392, 359.539 359.278 C 353.544 418.918, 341.657 487.380, 326.076 552 C 322.826 565.475, 320.468 576.788, 320.834 577.139 C 321.200 577.491, 335.749 585.705, 353.165 595.393 L 384.830 613.007 401.165 602.464 C 440.572 577.031, 485.157 559.205, 526.500 552.353 C 542.694 549.669, 571.976 549.862, 585.290 552.740 C 596.602 555.186, 602.098 558.074, 610.309 565.888 C 628.065 582.787, 637.988 612.941, 637.988 650 C 637.988 679.209, 633.034 700.956, 620.554 726.531 C 611.363 745.368, 597.987 762.595, 584.434 773.051 L 579.190 777.096 566.803 767.710 C 527.737 738.108, 489.737 717.721, 453 706.655 C 420.849 696.971, 385.451 696.247, 358.510 704.725 C 327.788 714.391, 299.549 736.762, 282.655 764.815 C 271.776 782.880, 267.539 805.171, 271.451 823.765 C 281.159 869.916, 325.987 900.146, 400.121 910.533 C 415.630 912.706, 457.857 913.585, 475.026 912.093 C 534.680 906.907, 587.908 889.818, 629 862.659 C 695.984 818.388, 736.992 737.800, 736.999 650.424 C 737.003 598.106, 723.660 552.845, 697.266 515.641 C 685.460 499, 664.705 480.652, 646 470.322 C 623.444 457.864, 593.808 451.684, 556.500 451.656 C 522.023 451.631, 491.519 456.707, 453.250 468.837 C 448.163 470.450, 444 471.422, 444 470.998 C 444 470.574, 445.582 460.310, 447.515 448.189 C 451.457 423.464, 455.963 388.471, 458.676 361.500 C 461.247 335.933, 461.245 250.977, 458.671 217.500 C 454.553 163.928, 446.110 95.874, 443.611 96.101 C 443 96.157, 421.125 99.955, 395 104.541 M 512.648 243.250 C 511.889 245.037, 503.506 263.825, 494.019 285 C 484.532 306.175, 476.161 324.914, 475.417 326.643 L 474.063 329.785 487.281 334.794 C 521.542 347.775, 556.921 356.060, 591 359.082 C 615.832 361.284, 651.232 358.983, 683.029 353.100 C 706.168 348.819, 747.048 338.316, 749.323 336.067 C 749.920 335.478, 719.947 245.372, 718.429 243.190 C 718.310 243.019, 713.535 244.242, 707.818 245.907 C 663.580 258.794, 620.678 263.697, 588.765 259.514 C 568.564 256.866, 543.785 250.620, 524.664 243.356 C 519.805 241.510, 515.423 240, 514.928 240 C 514.432 240, 513.406 241.463, 512.648 243.250 M 391 798.387 C 385.516 799.603, 379.609 802.206, 378.590 803.855 C 377.855 805.043, 390.629 808.723, 403.708 811.091 C 415.903 813.299, 442.954 815.048, 450.500 814.117 L 455.500 813.500 447.239 809.727 C 435.684 804.450, 423.028 800.364, 412.615 798.548 C 402.282 796.746, 398.527 796.718, 391 798.387 " stroke="none" fill="black" fill-rule="evenodd"/>
</svg>