<svg xmlns="http://www.w3.org/2000/svg" width="1000" height="1000" viewBox="0 0 1000 1000" version="1.1">
	<path d="M 338.616 91.139 C 335.989 176.213, 330.071 262.541, 322.928 320 C 313.940 392.294, 293.251 469.618, 264.086 539.919 L 256.029 559.338 260.781 564.419 C 263.395 567.214, 278.031 582.870, 293.307 599.210 L 321.081 628.920 341.791 612.633 C 370.656 589.931, 385.853 580.074, 413 566.450 C 498.542 523.517, 569.946 523.069, 625.637 565.113 C 652.772 585.599, 671.382 614.472, 676.032 643.301 C 677.920 654.999, 676.824 673.428, 673.594 684.299 C 653.472 752.038, 567.787 804.126, 432.382 830.932 C 388.123 839.694, 337.482 845.845, 296 847.496 C 288.025 847.813, 278.688 848.317, 275.250 848.616 L 269 849.159 269 898.080 L 269 947 280.250 946.995 C 322.405 946.978, 398.161 938.526, 451.500 927.889 C 568.887 904.480, 655.980 864.128, 710.554 807.865 C 759.981 756.910, 782.400 695.808, 774.408 633.842 C 762.050 538.021, 679.070 456.440, 575.785 438.566 C 545.356 433.300, 506.381 434.254, 473.078 441.079 C 450.465 445.713, 422.162 454.359, 402.610 462.605 C 398.224 464.455, 394.532 465.863, 394.405 465.734 C 394.278 465.605, 396.792 455.150, 399.991 442.500 C 415.406 381.537, 422.505 334.700, 428.938 251.500 C 432.433 206.304, 435.183 154.591, 437.559 89.376 L 438.220 71.251 409.360 70.619 C 393.487 70.272, 371.232 69.715, 359.903 69.382 L 339.307 68.778 338.616 91.139 " stroke="none" fill="black" fill-rule="evenodd"/>
</svg>