<svg xmlns="http://www.w3.org/2000/svg" width="1000" height="1000" viewBox="0 0 1000 1000" version="1.1">
	<path d="M 581 88.640 C 531.889 104.924, 493.368 113.297, 455 116.030 C 418.491 118.630, 370.358 112.271, 331.785 99.751 C 326.441 98.016, 321.891 96.800, 321.672 97.049 C 320.928 97.894, 285.991 186.496, 285.996 187.525 C 285.998 188.089, 289.712 189.837, 294.250 191.410 C 330.253 203.892, 380.191 213.312, 417.750 214.704 C 426.688 215.036, 434 215.454, 434 215.634 C 434 215.814, 432.345 218.549, 430.321 221.712 C 424.813 230.322, 417.367 246.703, 414.564 256.376 C 409.688 273.201, 409.309 292.217, 413.524 308.500 C 415.875 317.581, 423.181 331.698, 429.431 339.233 C 442.201 354.628, 457.694 364.591, 486.416 375.875 C 487.963 376.482, 485.747 378.241, 474.916 385.006 C 435.905 409.370, 392.424 439.020, 363 461.323 C 280.098 524.159, 246.180 570.821, 251.984 614.050 C 254.625 633.715, 261.064 646.084, 276.209 660.583 C 295.081 678.650, 311.170 686.898, 400.525 724.312 C 440.219 740.933, 454.782 747.516, 482 761.145 C 518.378 779.361, 541.191 792.739, 568.232 811.713 C 602.494 835.754, 638.878 870.469, 659 898.317 C 662.025 902.504, 664.854 905.945, 665.287 905.964 C 665.719 905.984, 684.047 893.379, 706.015 877.952 L 745.956 849.905 739.728 841.327 C 706.454 795.497, 657.069 750.574, 600 714.223 C 557.014 686.842, 513.332 664.734, 447 636.787 C 386.035 611.100, 373.231 605.595, 365.691 601.824 L 357.882 597.918 361.931 593.082 C 370.860 582.417, 393.841 562.046, 418 543.380 C 471.121 502.337, 564.132 443.690, 652.500 395.517 C 667.350 387.421, 679.809 380.506, 680.187 380.149 C 680.740 379.627, 672.282 294.031, 671.604 293.289 C 671.498 293.173, 658.831 293.470, 643.455 293.949 C 590.938 295.587, 547.862 291.713, 520.250 282.869 C 515.163 281.239, 511 279.650, 511 279.338 C 511 277.205, 522.094 262.853, 530.468 254.151 C 553.058 230.677, 581.504 209.719, 623 185.977 C 634.825 179.211, 645.031 173.186, 645.681 172.588 C 647.229 171.162, 610.195 80.599, 607.962 80.349 C 607.158 80.259, 595.025 83.990, 581 88.640 " stroke="none" fill="black" fill-rule="evenodd"/>
</svg>