<svg xmlns="http://www.w3.org/2000/svg" width="1000" height="1000" viewBox="0 0 1000 1000" version="1.1">
	<path d="M 386.072 73.750 C 384.143 80.946, 364 164.194, 364 164.969 C 364 165.399, 369.288 167.200, 375.750 168.971 C 436.143 185.524, 495.239 212.561, 517.050 233.619 L 523.737 240.074 562.747 210.287 L 601.757 180.500 599.655 177.532 C 592.596 167.564, 573.790 150.962, 556.033 139.022 C 529.208 120.985, 488.827 102.172, 444.167 86.906 C 430.625 82.276, 389.758 70, 387.890 70 C 387.443 70, 386.625 71.688, 386.072 73.750 M 669.500 277.223 C 556.050 312.550, 487.171 328.271, 408 336.907 C 355.204 342.665, 299.482 342.123, 260.739 335.472 C 246.555 333.037, 228.943 328.407, 218.732 324.429 C 213.654 322.451, 208.663 320.758, 207.640 320.667 C 206.263 320.543, 198.440 330.745, 177.478 360 C 144.603 405.882, 146.199 399.370, 165.500 408.879 C 195.891 423.852, 236.459 433.656, 286 438 C 326.422 441.544, 386.597 439.590, 435.790 433.136 L 449.079 431.393 430.103 450.446 C 419.666 460.926, 405.562 476.025, 398.761 484 C 344.457 547.672, 330.645 563.396, 300.608 595.735 C 276.302 621.903, 229.489 668.047, 209.356 685.682 C 171.042 719.241, 137.773 743.425, 108.301 759.141 L 97.102 765.112 100.428 772.306 C 105.749 783.815, 139.146 853.464, 139.533 853.859 C 140.053 854.390, 159.690 843.767, 174 835.214 C 230.856 801.229, 294.868 746.022, 369.905 666.255 C 384.086 651.180, 385.853 650.017, 394.602 650.006 C 397.224 650.002, 399.889 650.812, 401.987 652.250 C 405.903 654.934, 412.478 665.502, 414.530 672.412 C 416.710 679.753, 416.362 696.675, 413.480 723.593 C 405.598 797.185, 404.018 829.466, 406.951 857 C 407.944 866.322, 418.540 926.939, 419.292 927.600 C 419.667 927.930, 513.832 907.513, 514.349 906.991 C 514.625 906.711, 517.136 897.880, 519.928 887.367 C 533.605 835.869, 553.526 790.051, 579.433 750.500 C 594.252 727.877, 614.893 705.462, 631.297 694.179 C 646.929 683.427, 666.890 676.023, 680.292 676.007 C 717.189 675.962, 774.908 715.516, 825.883 775.776 C 831.536 782.460, 835.952 786.849, 836.724 786.552 C 838.782 785.763, 914 728.771, 914 728.001 C 914 726.668, 895.724 705.340, 881.277 689.813 C 844.168 649.928, 804.790 619.025, 767 600.129 C 706.940 570.097, 654.464 569.798, 598.048 599.164 C 571.580 612.941, 544.430 635.502, 522.010 662.347 L 514.621 671.194 512.821 660.506 C 508.231 633.247, 494.617 606.040, 475.694 586.309 C 469.563 579.917, 460.793 572.309, 456.146 569.351 C 455.174 568.732, 487.218 532.614, 500.413 519.456 C 549.617 470.391, 622.864 417.571, 698.654 376.500 C 708.638 371.089, 716.644 366.176, 716.443 365.581 C 716.243 364.986, 710.885 344.025, 704.536 319 C 698.188 293.975, 692.658 272.796, 692.247 271.936 C 691.604 270.591, 688.430 271.328, 669.500 277.223 " stroke="none" fill="black" fill-rule="evenodd"/>
</svg>