<svg xmlns="http://www.w3.org/2000/svg" width="1000" height="1000" viewBox="0 0 1000 1000" version="1.1">
	<path d="M 281 96.255 C 255.425 103.925, 234.379 110.313, 234.231 110.452 C 234.083 110.591, 236.916 121.458, 240.527 134.602 C 247.420 159.698, 256.058 193.589, 260.508 213 C 261.958 219.325, 263.762 227.154, 264.518 230.397 L 265.891 236.294 253.696 235.623 C 231.595 234.407, 203.735 230.717, 181.500 226.060 C 176.550 225.024, 172.340 224.334, 172.144 224.527 C 171.898 224.770, 148.395 317.493, 148.028 319.668 C 147.940 320.189, 168.926 324.425, 184 326.928 C 213.855 331.887, 247.250 334.993, 270.750 334.998 C 278.038 334.999, 284 335.113, 284 335.251 C 284 335.390, 284.900 343.376, 286 353 C 288.173 372.014, 290.621 411.939, 289.752 414.203 C 289.456 414.976, 254.745 433.739, 212.617 455.899 L 136.021 496.191 134.644 500.845 C 127.329 525.585, 111.792 581.121, 112.103 581.418 C 112.321 581.626, 125.015 587.703, 140.311 594.922 C 225.595 635.173, 257.013 654.423, 303.425 694.866 C 311.084 701.540, 317.633 707, 317.979 707 C 318.981 707, 397.370 684.961, 397.764 684.569 C 398.029 684.305, 393.812 549.030, 392.029 500.593 C 391.505 486.344, 391.288 474.343, 391.547 473.924 C 392.230 472.819, 485.822 424.379, 506.218 414.575 C 526.945 404.612, 553.943 392.574, 554.354 393.113 C 555.148 394.153, 569 429.652, 569 430.646 C 569 431.277, 562.362 435.663, 554.250 440.393 C 505.235 468.974, 471.556 493.201, 451 514.668 C 434.805 531.581, 426.210 545.840, 421.885 562.969 C 420.071 570.155, 419.830 573.260, 420.296 583.469 C 420.918 597.104, 422.669 603.773, 428.582 615.024 C 438.314 633.543, 456.345 649.674, 483.416 664.079 L 493.331 669.355 486.416 675.349 C 473.950 686.152, 443.508 717.288, 435.339 727.589 C 414.004 754.493, 402.254 778.050, 397.458 803.536 C 395.248 815.275, 395.892 835.125, 398.841 846.198 C 409.717 887.033, 444.154 913.880, 497.316 922.969 C 529.429 928.459, 570.963 927.761, 618.500 920.934 C 636.626 918.331, 655.296 914.939, 656.252 914.075 C 656.841 913.543, 636.432 819.426, 635.461 818.193 C 635.328 818.024, 630.498 818.797, 624.728 819.910 C 596.141 825.427, 560.579 828.558, 537 827.634 C 514.108 826.737, 495 822.772, 495 818.917 C 495 817.922, 496.809 813.612, 499.020 809.340 C 514.437 779.547, 559.967 737.977, 618.272 700.461 C 630.205 692.782, 639.976 686.106, 639.984 685.624 C 640.013 684.015, 615.941 606.540, 615.215 605.904 C 614.822 605.560, 607.750 603.610, 599.500 601.571 C 575.500 595.640, 548.631 586.396, 534.246 579.122 L 528.641 576.289 537.071 569.588 C 552.463 557.352, 610.751 519.984, 614.409 520.007 C 615.009 520.011, 618.650 524.619, 622.500 530.248 C 648.271 567.925, 741.856 684.973, 746.841 685.763 C 748.403 686.010, 826.836 669.498, 827.566 668.768 C 827.753 668.580, 828.613 656.969, 829.477 642.964 C 831.478 610.528, 834.317 581.910, 838.083 556.219 C 841.780 530.998, 843.890 520.312, 849.676 497.500 C 860.882 453.324, 868.819 428.748, 881.630 398.554 C 886.751 386.484, 890.842 376.519, 890.721 376.409 C 888.888 374.758, 821.030 330.566, 819.849 330.254 C 815.355 329.068, 724.288 360.527, 677.599 379.393 C 667.203 383.594, 658.553 386.886, 658.376 386.709 C 657.954 386.287, 647.489 360.164, 646.566 357.230 C 645.723 354.548, 643.177 355.763, 679 341.763 C 715.389 327.541, 738.372 318.769, 780.500 303.021 C 800.850 295.414, 818.660 288.738, 820.078 288.185 L 822.656 287.180 817.445 254.840 L 812.233 222.500 805.366 216.183 C 786.842 199.142, 757.022 175.560, 734 159.747 C 713.038 145.348, 686.871 130.876, 667 122.691 C 632.171 108.344, 598.098 106, 571.791 116.142 C 557.271 121.740, 542.129 133.347, 533.496 145.500 C 511.900 175.900, 508.081 218.106, 521.111 282.386 C 522.771 290.573, 523.762 297.618, 523.314 298.042 C 522.866 298.466, 513.050 302.962, 501.500 308.033 C 474.298 319.976, 449.036 332.216, 415.277 349.811 C 400.304 357.615, 387.656 364, 387.170 364 C 386.685 364, 385.988 360.288, 385.622 355.750 C 385.256 351.212, 384.274 342.197, 383.440 335.715 C 381.902 323.750, 382.036 322, 384.495 322 C 387.578 322, 422.677 309.834, 436.109 304.110 C 453.736 296.597, 470.599 287.649, 470.216 286.011 C 469.978 284.994, 421.499 204.321, 420.387 203.092 C 420.184 202.868, 414.276 205.411, 407.259 208.744 C 395.922 214.128, 373.818 222.753, 366.919 224.484 C 364.397 225.117, 364.385 225.087, 361.071 209.809 C 353.459 174.723, 330.100 84.626, 328.168 82.906 C 327.800 82.579, 306.575 88.586, 281 96.255 M 612.324 210.598 C 611.020 213.997, 614.294 248.193, 616.787 257.207 L 617.500 259.785 644.683 249.143 C 659.634 243.289, 672.106 238.253, 672.399 237.951 C 673.201 237.125, 651.919 224.513, 640.272 218.913 C 631.258 214.578, 616.385 209, 613.841 209 C 613.344 209, 612.661 209.719, 612.324 210.598 M 753.500 455.763 C 751.300 456.626, 739.825 461.108, 728 465.724 C 716.175 470.339, 706.097 474.515, 705.605 475.003 C 704.694 475.905, 715.011 490.581, 732.919 513.857 L 742.426 526.213 745.615 509.857 C 748.442 495.358, 756.877 460.089, 758.577 455.660 C 759.334 453.688, 758.761 453.700, 753.500 455.763 M 276.307 533.842 C 267.400 538.633, 259.846 542.821, 259.519 543.148 C 259.192 543.475, 264.454 546.792, 271.212 550.519 C 277.971 554.246, 285.871 558.804, 288.769 560.648 C 291.668 562.491, 294.255 564, 294.519 564 C 295.209 564, 295.102 546.202, 294.344 534.750 C 293.989 529.388, 293.429 525.030, 293.099 525.066 C 292.770 525.102, 285.213 529.051, 276.307 533.842 " stroke="none" fill="black" fill-rule="evenodd"/>
</svg>