<svg xmlns="http://www.w3.org/2000/svg" width="1000" height="1000" viewBox="0 0 1000 1000" version="1.1">
	<path d="M 467.500 73.013 C 442.750 81.746, 422.565 89.253, 422.644 89.695 C 422.723 90.138, 425.798 99.725, 429.477 111 C 440.845 145.840, 459.379 213.238, 457.895 214.336 C 457.678 214.496, 452.100 216.585, 445.500 218.977 C 363.265 248.787, 316.757 292.233, 308.452 347 C 303.969 376.569, 310.985 405.755, 329.169 433.170 C 336.899 444.824, 359.816 467.967, 372.282 476.707 L 381.065 482.864 365.782 487.861 C 300.895 509.077, 255.971 511.904, 239.853 495.786 C 226.930 482.864, 222.256 444.533, 229.960 414.656 C 236.925 387.643, 253.766 354.694, 276.722 323.172 C 280.858 317.491, 283.851 312.487, 283.372 312.052 C 282.230 311.017, 211.980 252.888, 209.852 251.218 C 208.420 250.094, 207.019 251.556, 198.452 263.116 C 161.058 313.574, 136.784 366.428, 129.387 413.500 C 125.678 437.101, 127.730 475.156, 134.024 499.500 C 153.555 575.045, 214.267 612.744, 301.500 603.494 C 354.543 597.869, 404.208 582.288, 504.051 539.948 C 522.448 532.147, 544.925 522.718, 554 518.995 C 574.656 510.521, 578.070 508.914, 630 483.239 C 674.997 460.990, 699.500 449.784, 717.500 443.219 C 730.303 438.550, 743.013 434.679, 743.603 435.270 C 744.402 436.069, 720.212 449.290, 697.500 460.468 C 672.731 472.657, 648.156 483.737, 597 505.778 C 505.960 545.004, 474.282 560.341, 448.138 577.852 C 417.850 598.136, 403 620.937, 403 647.154 C 403 673.417, 417.962 695.935, 445.016 710.391 C 450.976 713.575, 452.738 714.954, 451.786 715.691 C 451.079 716.238, 438.238 723.779, 423.250 732.449 C 408.262 741.118, 396 748.729, 396 749.363 C 396 749.996, 398.525 753.828, 401.611 757.879 C 407.609 765.752, 407.608 765.393, 401.659 768.609 C 388.357 775.802, 370.760 792.159, 362.195 805.291 C 353.520 818.593, 348 836.756, 348 852 C 348 859.736, 350.564 873.944, 353.464 882.285 C 360.339 902.054, 377.151 921.106, 398 932.757 C 435.743 953.847, 499.165 959.034, 584 947.969 C 602.297 945.583, 628.826 941.211, 631.106 940.207 C 632.520 939.584, 631.523 933.836, 622.741 892 C 617.256 865.875, 612.601 844.317, 612.395 844.094 C 612.190 843.871, 604.704 844.868, 595.761 846.310 C 538.541 855.536, 489.099 857.523, 462.941 851.648 L 457.500 850.426 465 847.292 C 489.907 836.887, 530.180 829.412, 577 826.504 C 590.475 825.667, 604.579 824.699, 608.343 824.353 L 615.186 823.723 614.618 819.612 C 614.306 817.350, 611.502 793.675, 608.386 767 C 605.271 740.325, 602.629 718.381, 602.514 718.236 C 602.400 718.091, 594.700 718.582, 585.403 719.327 C 576.106 720.072, 568.409 720.624, 568.297 720.554 C 568.185 720.484, 568.962 702.893, 570.024 681.463 C 571.086 660.034, 571.965 641.526, 571.978 640.335 C 571.998 638.356, 571.335 638.113, 564.250 637.505 C 559.987 637.139, 554.496 636.531, 552.047 636.154 L 547.594 635.469 556.047 631.625 C 570.075 625.245, 620.688 603.064, 651 590.011 C 726.127 557.661, 771.909 535.085, 802 515.551 C 831.746 496.241, 851.694 476.524, 861.778 456.465 C 867.804 444.478, 869.500 436.908, 869.500 422 C 869.500 410.629, 869.130 407.323, 867.156 401.035 C 857.599 370.600, 832.875 346.330, 802.445 337.512 C 789.941 333.889, 782.236 332.883, 767.005 332.887 C 729.026 332.897, 684.396 346.742, 618.091 379.085 C 605.766 385.097, 595.573 389.900, 595.439 389.758 C 595.305 389.616, 591.553 374.239, 587.102 355.587 C 582.650 336.935, 578.841 321.507, 578.637 321.303 C 578.313 320.980, 574.224 321.714, 566.250 323.527 C 564.829 323.850, 564.001 323.570, 564.003 322.769 C 564.008 321.182, 589.402 295.136, 610.190 275.398 L 625.879 260.500 609.061 223.540 C 599.811 203.213, 591.785 186.428, 591.225 186.242 C 590.665 186.055, 582.524 187.049, 573.135 188.451 C 563.746 189.853, 555.636 191, 555.114 191 C 554.592 191, 553.167 186.613, 551.949 181.250 C 546.040 155.243, 534.761 115.570, 522.381 77.250 C 517.274 61.439, 515.473 57.015, 514.170 57.068 C 513.251 57.105, 492.250 64.281, 467.500 73.013 M 427.416 337.096 C 413.854 346.488, 406 356.354, 406 363.999 C 406 375.626, 420.372 391.780, 442.500 405.026 L 446.500 407.420 443.416 403.865 C 428.571 386.749, 424.315 362.812, 432.040 339.880 C 433.173 336.518, 433.927 333.594, 433.716 333.383 C 433.505 333.172, 430.670 334.843, 427.416 337.096 " stroke="none" fill="black" fill-rule="evenodd"/>
</svg>