<svg xmlns="http://www.w3.org/2000/svg" width="1000" height="1000" viewBox="0 0 1000 1000" version="1.1">
	<path d="M 345.616 127.884 L 310.743 162.767 320.622 170.958 C 366.486 208.986, 438.551 241.264, 519 259.811 C 563.698 270.117, 602.074 275.578, 657.666 279.545 L 666.831 280.199 667.394 274.849 C 667.948 269.581, 672.024 189.105, 672.008 183.750 C 672 181.102, 671.806 181, 666.750 180.987 C 651.751 180.951, 612.581 176.694, 583 171.886 C 504.639 159.149, 432.950 132.299, 389.200 99.302 C 384.604 95.836, 380.764 93, 380.667 93 C 380.569 93, 364.796 108.698, 345.616 127.884 M 455.500 331.039 C 395.924 335.965, 338.611 355.234, 292.500 385.842 C 273.285 398.596, 261.430 408.139, 246.627 422.767 C 225.619 443.527, 211.576 462.636, 200 486.215 C 187.520 511.635, 182.217 531.865, 181.315 557.500 C 179.762 601.628, 194.797 639.817, 226.885 673.248 C 238.003 684.831, 248.376 692.911, 259.500 698.652 C 292.823 715.850, 327.060 715.084, 363.147 696.334 C 412.667 670.605, 465.313 602.677, 516.474 498.500 C 527.184 476.693, 541.306 446.034, 544.485 437.689 L 546.318 432.878 550.409 433.518 C 581.039 438.311, 612.302 449.878, 633.069 464.102 C 667.269 487.525, 686.745 525.222, 692.054 578.268 C 693.862 596.329, 692.778 633.879, 690.093 646.199 C 684.238 673.068, 670.444 700.317, 649.189 727 C 633.127 747.163, 604.411 774.381, 578.139 794.344 C 546.590 818.317, 502.404 845.006, 466 862.080 C 459.760 865.006, 455.635 867.510, 455.832 868.252 C 456.263 869.870, 493.089 957.388, 493.534 957.853 C 493.720 958.047, 502.789 953.864, 513.686 948.557 C 547.179 932.246, 571.982 918.069, 603 897.507 C 710.020 826.564, 773.743 744.073, 788.404 657.500 C 794.170 623.445, 792.758 570.694, 785.077 533.299 C 764.729 434.222, 698.985 367.620, 596.708 342.468 C 580.123 338.390, 557.705 334.580, 538 332.491 C 520.592 330.645, 470.851 329.770, 455.500 331.039 M 420.500 436.428 C 399.955 441.710, 386.535 446.705, 368.314 455.850 C 326.810 476.681, 295.157 508.428, 283.637 540.778 C 280.748 548.888, 280.530 550.447, 280.523 563 C 280.516 574.791, 280.807 577.226, 282.824 582.236 C 285.967 590.043, 292.283 599.341, 299.136 606.250 C 305.852 613.021, 308.771 613.549, 316.601 609.411 C 339.110 597.518, 369.982 559.691, 400.591 506.500 C 410.097 489.981, 438 435.869, 438 433.953 C 438 432.375, 434.143 432.921, 420.500 436.428 " stroke="none" fill="black" fill-rule="evenodd"/>
</svg>