<svg xmlns="http://www.w3.org/2000/svg" width="1000" height="1000" viewBox="0 0 1000 1000" version="1.1">
	<path d="M 261.500 109.157 C 238.950 122.335, 219.895 133.470, 219.156 133.901 C 217.509 134.862, 223.218 144.127, 235.547 160.500 C 264.653 199.153, 289.951 217.926, 331.860 231.971 C 351.397 238.518, 381.311 245.040, 383.116 243.146 C 383.769 242.461, 392.391 145.968, 391.829 145.623 C 391.648 145.512, 387.450 144.624, 382.500 143.651 C 370.714 141.333, 354.499 135.888, 345.610 131.263 C 334.509 125.487, 314.619 104.328, 305.655 88.758 C 304.470 86.699, 303.275 85.056, 303 85.106 C 302.725 85.155, 284.050 95.978, 261.500 109.157 M 717.697 128.121 C 708.162 186.626, 688.370 250.268, 665.440 296.158 C 661.773 303.496, 658.653 309.634, 658.505 309.798 C 658.358 309.962, 650.558 312.083, 641.171 314.513 C 552.632 337.429, 475.206 373.179, 411 420.787 C 398.502 430.054, 375.448 448.472, 370.265 453.331 C 368.486 454.999, 366.843 456.169, 366.615 455.932 C 366.054 455.348, 372.913 404.548, 378.622 367 L 383.259 336.500 368.021 308 C 359.640 292.325, 352.385 278.750, 351.900 277.833 C 351.123 276.363, 348.085 277.343, 326.259 286.102 C 285.117 302.614, 250.222 313.016, 228.588 315.218 C 212.239 316.883, 169.747 313.651, 144.719 308.839 C 141.540 308.228, 138.750 307.916, 138.520 308.147 C 137.855 308.812, 119.816 404.149, 120.269 404.602 C 120.933 405.266, 151.328 409.793, 167 411.563 C 200.758 415.375, 237.560 414.962, 259.472 410.525 C 266.510 409.100, 272.413 408.080, 272.591 408.258 C 272.769 408.436, 272.288 413.063, 271.522 418.541 C 269.483 433.126, 263.274 485.536, 261.894 499.820 L 260.703 512.140 253.959 498.320 C 244.654 479.250, 229.735 457.553, 219.015 447.500 L 215.816 444.500 212.158 448.583 C 210.146 450.828, 195.225 466.740, 179 483.943 C 162.775 501.146, 149.544 515.733, 149.599 516.360 C 149.653 516.987, 152.026 520.575, 154.872 524.333 C 160.958 532.372, 169.154 548.803, 171.665 558 C 172.949 562.704, 173.444 568.230, 173.457 578 C 173.478 593.672, 172.763 596.726, 162.353 625.411 C 146.448 669.237, 125.579 712.424, 97.635 759.346 C 87.858 775.762, 80.051 789.385, 80.286 789.619 C 81.445 790.778, 176.205 823.991, 176.982 823.511 C 177.477 823.205, 180.898 818.629, 184.585 813.342 C 191.065 804.047, 191.340 803.795, 192.893 805.743 C 193.777 806.850, 198.907 813.198, 204.292 819.849 C 223.295 843.314, 236.731 864.327, 255.065 899.250 C 263.395 915.119, 265.832 918.995, 267.466 918.975 C 270.395 918.940, 359.838 903.509, 360.302 902.960 C 360.515 902.707, 360.120 886.975, 359.424 868 C 356.147 778.718, 354.029 689.042, 354.012 638.897 L 354 604.293 378.750 579.897 C 429.786 529.589, 466.858 499.453, 509.139 473.901 C 522.636 465.744, 568.638 442.304, 569.485 443.152 C 570.680 444.346, 519.937 507.924, 488.598 544.500 C 477.287 557.700, 468.026 568.793, 468.017 569.150 C 468.004 569.634, 530.868 621.310, 538.753 627.298 C 539.646 627.977, 546.866 623.068, 563.863 610.227 C 635.321 556.243, 709.019 517.431, 754.926 509.607 C 764.434 507.986, 778.116 507.449, 779.316 508.649 C 780.471 509.804, 761.876 523.349, 744.499 534.011 C 740.649 536.373, 724.311 545.894, 708.190 555.168 C 663.477 580.892, 648.974 590.348, 634.871 602.975 C 614.114 621.559, 603.805 643.128, 605.466 664.498 C 606.798 681.624, 612.355 693.480, 624.941 706.045 C 632.328 713.420, 635.047 715.361, 644.797 720.229 L 656.094 725.868 638.297 737.882 C 611.565 755.928, 600.021 766.780, 590.231 783.068 C 581.935 796.869, 578.558 809.112, 578.662 825 C 578.804 846.561, 585.866 864.344, 600.452 879.874 C 622.420 903.263, 658.353 916.149, 718 922.028 C 743.236 924.515, 832.246 924.087, 834.868 921.466 C 835.177 921.156, 833.646 899.212, 831.465 872.701 L 827.500 824.500 787.500 824.853 C 763.042 825.068, 741.866 824.759, 733 824.056 C 718.544 822.911, 699.259 820.420, 696.425 819.333 C 695.454 818.960, 700.462 815.046, 710.761 808.130 C 730.829 794.652, 737.440 789.369, 748.011 778.362 C 761.158 764.672, 768.759 751.698, 773.124 735.500 C 776.321 723.633, 776.332 705.219, 773.147 695.035 C 767.536 677.095, 757.943 664.099, 742.783 653.898 L 738.916 651.297 759.708 639.467 C 813.591 608.811, 836.651 592.676, 856.586 571.682 C 889.884 536.613, 895.256 496.451, 871.524 460 C 864.664 449.463, 848.476 433.595, 838.075 427.212 C 806.326 407.726, 765.117 404.052, 718.161 416.520 C 713.024 417.884, 708.644 419, 708.427 419 C 708.138 419, 720.206 399.755, 721.412 398.292 C 721.933 397.659, 759.726 392.688, 778.093 390.837 C 795.743 389.058, 806.869 388.643, 841.493 388.471 L 883.486 388.264 888.409 340.131 C 891.116 313.658, 893.107 291.773, 892.832 291.498 C 891.826 290.493, 862.986 289.029, 844 289.020 C 825.110 289.011, 792.525 290.333, 780.725 291.588 L 774.949 292.202 777.071 286.851 C 788.969 256.836, 804.063 203.137, 811.882 163 C 815.340 145.253, 818.652 123.298, 817.965 122.673 C 817.709 122.441, 797.250 119.936, 772.500 117.108 C 747.750 114.280, 725.925 111.731, 724 111.445 L 720.500 110.924 717.697 128.121 M 465.736 143.750 C 459.649 158.133, 454.654 174.026, 451.826 188 C 448.837 202.780, 448.549 230.397, 451.273 241.237 C 454.198 252.881, 459.011 263.885, 465.272 273.246 C 482.125 298.442, 509.380 316.668, 542.857 325.129 C 549.103 326.708, 554.975 328, 555.907 328 C 557.390 328, 558.318 322.262, 563.388 281.750 C 566.572 256.313, 569.399 234.359, 569.671 232.964 C 570.129 230.609, 569.722 230.295, 563.994 228.579 C 560.600 227.563, 555.726 225.329, 553.162 223.616 C 548.693 220.629, 548.487 220.280, 548.195 215.184 C 547.830 208.802, 550.626 197.150, 555.342 185.405 L 558.759 176.896 547.629 171.337 C 541.508 168.279, 522.056 158.403, 504.401 149.389 C 486.747 140.375, 471.849 133, 471.294 133 C 470.739 133, 468.238 137.838, 465.736 143.750 M 244.500 732.266 C 232.372 747.771, 209.846 777.513, 206.074 783 C 204.750 784.925, 208.580 781.761, 214.584 775.970 C 220.588 770.178, 232.556 758.677, 241.181 750.412 L 256.862 735.385 256.181 726.794 L 255.500 718.202 244.500 732.266 " stroke="none" fill="black" fill-rule="evenodd"/>
</svg>