<svg xmlns="http://www.w3.org/2000/svg" width="1000" height="1000" viewBox="0 0 1000 1000" version="1.1">
	<path d="M 672.550 92.234 C 672.330 92.930, 671.636 97.325, 671.007 102 C 666.978 131.971, 652.755 189.168, 643.670 211.938 L 641.500 217.376 623.500 221.584 C 587.835 229.922, 550.129 241.658, 518.054 254.406 C 509.009 258.001, 501.503 260.836, 501.374 260.707 C 501.245 260.578, 509.863 246.696, 520.524 229.858 L 539.908 199.243 537.954 195.410 C 534.175 187.998, 536.373 170.518, 543.456 151.659 C 545.489 146.247, 547.005 141.695, 546.826 141.544 C 545.655 140.558, 460.870 97, 460.122 97 C 458.852 97, 450.988 116.006, 446.656 129.542 C 429.268 183.880, 436.381 231.740, 466.622 263.871 L 474.743 272.500 451.122 284.535 C 424.955 297.868, 404.383 309.751, 384 323.307 C 371.598 331.555, 349.119 348.070, 341.224 354.735 L 337.948 357.500 371.094 394.322 L 404.240 431.145 406.870 428.725 C 411.182 424.758, 424.702 414.867, 437.500 406.318 C 471.875 383.353, 517.992 359.893, 559.999 344.001 C 567.315 341.233, 573.442 339.108, 573.613 339.280 C 573.991 339.658, 554.034 365.461, 542.119 380 C 525.422 400.374, 505.348 422.714, 486.755 441.617 L 467.950 460.733 488.475 498.539 C 499.764 519.333, 509 536.692, 509 537.116 C 509 537.540, 497.924 548.825, 484.387 562.193 C 452.137 594.041, 439.123 609.664, 417.491 642.500 C 394.760 677.004, 355.279 748.679, 357.682 751.082 C 358.370 751.770, 413.750 778.049, 438.738 789.545 L 445.977 792.876 455.965 773.188 C 472.199 741.191, 490.792 709.580, 507.248 686 C 517.717 670.999, 518.435 670.246, 525.500 666.869 C 534.373 662.628, 535.623 662.898, 538.634 669.706 C 551.307 698.363, 553.719 750.691, 545.076 809.472 C 542.894 824.306, 541.228 836.561, 541.373 836.706 C 541.517 836.851, 561.180 841.714, 585.068 847.514 C 608.955 853.313, 629.032 858.245, 629.683 858.472 C 630.334 858.700, 636.614 851.824, 643.639 843.193 C 691.907 783.889, 748.647 748.555, 774.734 761.555 C 777.757 763.061, 782.596 767.009, 786.526 771.174 L 793.190 778.239 788.409 783.092 C 767.113 804.714, 710.358 832.811, 640 856.566 C 625.889 861.330, 618.537 864.285, 618.607 865.163 C 618.666 865.898, 624.719 887.087, 632.059 912.250 C 640.308 940.526, 645.874 958, 646.634 958 C 648.987 958, 679.639 947.744, 700.568 939.954 C 788.893 907.080, 845.617 872.851, 873.021 835.890 C 892.311 809.874, 898.254 780.712, 889.867 753.223 C 882.325 728.502, 858.561 698.523, 832.970 681.446 C 783.355 648.338, 722.103 653.482, 658.111 696.132 C 652.398 699.940, 647.607 702.931, 647.466 702.778 C 647.325 702.625, 646.461 697.325, 645.547 691 C 639.407 648.507, 625.983 615.680, 605.612 593.339 L 599.994 587.179 665.962 521.839 L 731.931 456.500 722.715 407.829 C 717.647 381.060, 713.244 358.904, 712.932 358.594 C 712.619 358.284, 704.969 360.997, 695.932 364.624 C 686.894 368.250, 677.388 372.051, 674.808 373.071 L 670.115 374.925 680.439 359.213 C 690.647 343.676, 700.134 327.554, 707.635 313 L 711.500 305.500 721 304.303 C 755.962 299.899, 804.898 298.356, 857.500 300 L 873.500 300.500 877.429 252.262 C 879.590 225.732, 881.115 203.781, 880.817 203.484 C 878.460 201.127, 805.661 199.342, 774.590 200.880 C 761.990 201.504, 751.483 201.816, 751.240 201.573 C 750.998 201.331, 752.858 192.890, 755.375 182.816 C 757.891 172.742, 761.504 156.625, 763.402 147 C 766.701 130.279, 771.234 101.900, 770.692 101.359 C 770.551 101.217, 750.200 99.065, 725.468 96.576 C 700.735 94.086, 678.801 91.806, 676.725 91.509 C 674.160 91.142, 672.821 91.374, 672.550 92.234 M 162.511 93.267 C 161.753 95.528, 153.059 147.064, 147.542 182 C 130.666 288.866, 119.441 382.530, 113.326 467.500 C 111.125 498.077, 110.802 584.017, 112.806 605.500 C 120.932 692.593, 136.180 774.928, 159.448 857.354 C 164.083 873.774, 168.094 887.427, 168.361 887.694 C 168.943 888.276, 255.125 860.177, 256.355 859.005 C 256.825 858.557, 260.049 841.129, 263.519 820.277 C 275.710 747.011, 286.089 700.555, 298.166 665.192 C 304.505 646.632, 327.162 582.877, 336.320 557.829 C 339.486 549.170, 339.681 548.090, 338.178 547.502 C 336.391 546.803, 257.026 517.694, 250.830 515.466 L 247.161 514.145 242.507 526.823 C 239.947 533.795, 232.148 555.475, 225.176 575 L 212.500 610.500 211.851 603 C 206.280 538.659, 210.523 457.859, 226.079 332 C 233.807 269.474, 244.618 196.959, 255.447 135 C 257.802 121.525, 259.673 110.421, 259.605 110.323 C 259.536 110.226, 238.335 106.267, 212.490 101.525 C 186.646 96.783, 164.920 92.708, 164.212 92.468 C 163.504 92.229, 162.738 92.589, 162.511 93.267 " stroke="none" fill="black" fill-rule="evenodd"/>
</svg>