<svg xmlns="http://www.w3.org/2000/svg" width="1000" height="1000" viewBox="0 0 1000 1000" version="1.1">
	<path d="M 430.500 90.016 C 407.400 102.609, 388.055 113.081, 387.511 113.286 C 386.968 113.491, 389.566 120.010, 393.285 127.772 C 420.841 185.282, 444.413 248.842, 460.359 308.639 L 462.796 317.777 453.648 318.406 C 427.837 320.179, 223.908 327.985, 203.094 327.996 L 195.688 328 196.340 350.250 C 196.698 362.488, 197.291 384.814, 197.657 399.865 L 198.322 427.231 216.411 426.586 C 226.360 426.232, 254.075 425.279, 278 424.468 C 333.538 422.586, 412.871 419.395, 451.905 417.473 C 468.627 416.650, 482.425 416.094, 482.567 416.238 C 483.128 416.810, 487.029 451.543, 488.436 468.500 C 491.372 503.880, 494.410 558.924, 493.477 559.856 C 493.270 560.063, 485.541 558.156, 476.300 555.618 C 391.161 532.232, 311.478 527.784, 249.376 542.948 C 202.538 554.386, 167.477 573.367, 136.153 604.244 C 112.789 627.274, 95.271 654.341, 82.220 687.575 C 63.959 734.075, 61.500 778.863, 74.992 819.219 C 97.498 886.532, 161.817 931, 236.673 931 C 304.630 931, 366.719 894.583, 406.909 831.150 C 409.819 826.557, 411.817 822.475, 411.350 822.079 C 410.027 820.957, 327.436 774, 326.786 774 C 326.468 774, 324.720 776.362, 322.901 779.250 C 301.536 813.163, 270.822 832, 236.892 832 C 192.825 832, 163.085 802.675, 165.391 761.495 C 167.065 731.595, 183.131 696.703, 205.469 674.455 C 235.155 644.888, 278.012 631.668, 338.911 633.292 C 399.429 634.906, 465.002 650.852, 533.836 680.692 C 548.322 686.971, 560.631 691.956, 561.190 691.770 C 562.775 691.242, 585.868 639.347, 588.010 631.500 C 592.030 616.776, 593.476 585.982, 592.026 546 C 590.519 504.454, 586.926 453.740, 583.477 425.337 C 582.665 418.647, 582 412.543, 582 411.772 C 582 410.658, 586.143 410.116, 602.250 409.126 C 648.134 406.304, 713.451 400.896, 749 396.974 C 774.814 394.127, 799.002 390.805, 798.984 390.109 C 798.925 387.916, 784.111 293.777, 783.771 293.438 C 783.538 293.205, 777.082 293.894, 769.424 294.971 C 731.820 300.256, 620.427 309.811, 569 312.162 L 563.500 312.414 559.742 297.957 C 540.169 222.651, 514.322 151.537, 482.648 85.846 C 478.578 77.406, 474.630 69.739, 473.874 68.809 C 472.619 67.264, 468.858 69.103, 430.500 90.016 M 686.070 617.936 C 684.847 618.710, 685.395 625.793, 689.840 666.671 C 692.700 692.977, 695.031 714.771, 695.020 715.101 C 695.009 715.432, 700.063 715.960, 706.250 716.274 C 730.730 717.516, 753.671 725.081, 774.487 738.775 C 784.591 745.423, 803.280 764.539, 810.881 776 C 823.013 794.294, 834.932 822.899, 840.571 847.250 C 842.105 853.873, 842.666 854.993, 844.433 854.953 C 847.251 854.889, 937.824 835.510, 938.510 834.824 C 939.247 834.087, 931.953 805.835, 927.971 794 C 906.570 730.404, 870.447 682, 821.910 651.882 C 793.062 633.981, 755.766 621.538, 720.576 618.075 C 707.326 616.771, 688.033 616.693, 686.070 617.936 " stroke="none" fill="black" fill-rule="evenodd"/>
</svg>