<svg xmlns="http://www.w3.org/2000/svg" width="1000" height="1000" viewBox="0 0 1000 1000" version="1.1">
	<path d="M 331.964 110.194 C 316.309 131.173, 303.122 148.970, 302.659 149.742 C 301.622 151.475, 302.248 151.973, 317 161.157 C 330.308 169.443, 356.822 182.706, 372.005 188.672 C 436.505 214.018, 494.021 219.873, 552.500 207.047 C 565.624 204.168, 587.591 197.525, 588.330 196.211 C 588.549 195.820, 580.301 175.250, 570 150.500 C 556.739 118.640, 550.866 105.605, 549.885 105.858 C 508.659 116.517, 487.902 117.636, 454.967 110.978 C 424.147 104.747, 387.129 89.761, 362.964 73.733 L 360.428 72.051 331.964 110.194 M 273.259 276.814 C 251.126 291.491, 233.013 303.793, 233.009 304.152 C 232.986 305.881, 248.614 324.749, 258.450 334.869 C 277.933 354.913, 299.617 371.402, 321.052 382.473 L 330.246 387.221 313.049 396.089 C 233.496 437.112, 190.969 478.179, 177.842 526.656 C 174.628 538.527, 174.633 562.088, 177.853 574.500 C 180.565 584.958, 186.953 599.095, 192.964 607.947 C 210.279 633.445, 242.131 652.946, 283.500 663.375 C 312.646 670.724, 354.659 674.994, 397.864 674.998 L 411.227 675 410.632 679.250 C 402.538 737.016, 409.144 792.895, 429.016 834.759 C 450.792 880.635, 493.306 915.122, 539.500 924.384 C 601.265 936.768, 668.634 911.451, 745 847.159 C 769.767 826.308, 816.677 777.536, 837.213 751.287 L 841.926 745.263 802.713 715.613 L 763.500 685.963 759.500 690.676 C 737.164 716.998, 728.970 726.049, 713.008 742.036 C 657.277 797.854, 607.611 828.057, 571 828.394 C 557.872 828.515, 550.168 826.114, 539.781 818.666 C 523.719 807.148, 513.211 787.608, 508.502 760.500 C 504.897 739.743, 505.608 708.457, 510.321 680.524 L 512.511 667.547 523.505 666.281 C 559.983 662.078, 606.492 654.546, 647.500 646.199 L 675.500 640.500 675.764 609.880 L 676.029 579.259 672.516 567.054 C 661.405 528.453, 642.846 491.040, 624.142 469.539 C 601.963 444.044, 572.100 431.097, 544.078 434.828 C 526.909 437.114, 515.846 442.617, 501.897 455.812 C 480.709 475.852, 459.090 513.344, 440.578 562.152 L 435.779 574.803 421.140 575.540 C 403.612 576.423, 361.838 575.561, 346.500 574 C 315.287 570.824, 290.544 564.286, 278.578 556.054 C 273.059 552.257, 272.809 550.269, 277.016 543.636 C 302.633 503.241, 419.022 447.129, 559.500 407.447 C 574.350 403.252, 586.835 399.503, 587.244 399.116 C 587.994 398.406, 569.220 302.045, 568.102 300.865 C 567.771 300.516, 557.262 301.497, 544.748 303.045 C 515.888 306.615, 501.367 307.805, 477 308.595 C 446.779 309.576, 401.760 306.558, 385.887 302.488 C 377.491 300.335, 363.159 293.518, 353.914 287.279 C 343.668 280.365, 328.675 266.665, 321.500 257.660 C 318.200 253.519, 315.050 250.130, 314.500 250.129 C 313.950 250.128, 295.391 262.136, 273.259 276.814 M 554.799 549.118 C 550.482 556.549, 547.836 562.169, 548.391 562.724 C 548.926 563.260, 564.056 561.277, 564.752 560.581 C 564.959 560.374, 563.376 556.725, 561.236 552.471 L 557.344 544.737 554.799 549.118 " stroke="none" fill="black" fill-rule="evenodd"/>
</svg>