<svg xmlns="http://www.w3.org/2000/svg" width="1000" height="1000" viewBox="0 0 1000 1000" version="1.1">
	<path d="M 349.500 80.743 C 324.200 83.767, 303.327 86.398, 303.116 86.588 C 302.543 87.105, 315.951 193.373, 317.575 201.195 C 318.068 203.570, 317.639 204.144, 313.958 206.021 C 292.755 216.839, 261.751 224.474, 223 228.421 C 208.507 229.897, 178.993 232, 172.767 232 L 170 232 170.002 258.250 C 170.004 272.688, 170.299 294.929, 170.660 307.675 L 171.315 330.850 180.408 330.393 C 245.046 327.146, 285.795 321.062, 321.313 309.356 C 327.260 307.396, 332.266 305.952, 332.437 306.146 C 332.608 306.341, 333.963 314.150, 335.448 323.500 C 336.933 332.850, 338.377 341.465, 338.656 342.644 C 339.081 344.439, 337.563 345.892, 329.332 351.569 C 282.169 384.098, 255.520 403.736, 237.500 419.245 C 212.014 441.178, 192.700 464.698, 184.738 483.500 C 178.538 498.138, 177.552 503.015, 177.558 519 C 177.564 532.819, 177.721 533.957, 180.901 543.227 C 192.822 577.981, 224.342 596.971, 270.144 596.994 C 298.985 597.009, 336.126 590.173, 378.442 577.061 C 385.561 574.856, 391.499 573.166, 391.639 573.306 C 391.779 573.445, 394.580 581.269, 397.864 590.692 L 403.835 607.825 398.667 610.025 C 395.825 611.235, 383.600 617.176, 371.500 623.227 C 249.165 684.406, 195.198 745.870, 198.291 820.500 C 199.731 855.251, 215.065 883.507, 244.598 905.830 C 253.027 912.202, 276.281 923.909, 288.500 927.933 C 322.438 939.111, 354.678 943.294, 407.500 943.373 C 441.917 943.425, 458.706 942.563, 494 938.932 C 521.172 936.137, 570.302 929.032, 571.628 927.705 C 572.089 927.245, 553.615 832.282, 552.932 831.599 C 552.652 831.319, 546.141 832.151, 538.462 833.447 C 462.223 846.315, 381.526 848.488, 337.127 838.869 C 319.175 834.979, 305.450 829.211, 299.587 823.091 C 296.844 820.228, 296.754 819.820, 297.204 812.308 C 297.896 800.778, 303.164 791.150, 316.417 777.198 C 336.943 755.587, 377.374 729.468, 426.721 705.939 L 440.941 699.159 446.157 710.329 C 455.506 730.355, 469.520 757.132, 480.262 775.500 L 490.789 793.500 526.608 793.500 L 562.427 793.500 571.051 773.893 C 588.414 734.415, 606.618 703.488, 625.148 681.988 L 631.795 674.275 613.434 655.934 C 603.336 645.847, 595.190 637.477, 595.333 637.334 C 595.475 637.191, 615.822 629.685, 640.546 620.653 C 717.999 592.360, 746.135 581.260, 772.667 568.532 C 815.125 548.162, 835.283 529.480, 842.839 503.500 C 852.814 469.200, 844.304 436.881, 818.859 412.428 C 803.142 397.324, 782.053 386.611, 754.072 379.518 C 744.918 377.198, 724.923 373.744, 724.293 374.374 C 723.906 374.760, 716.015 465.598, 716.006 469.750 C 716.001 472.611, 716.329 473.010, 718.750 473.082 C 720.263 473.126, 724.650 473.939, 728.500 474.888 L 735.500 476.613 730.500 479.190 C 713.100 488.159, 679.716 501.203, 594.158 532.460 C 563.511 543.656, 528.810 556.471, 517.045 560.936 C 505.281 565.401, 495.337 568.705, 494.949 568.277 C 494.137 567.384, 484 537.933, 484 536.470 C 484 535.936, 490.182 532.575, 497.737 529 C 514.581 521.030, 549.648 502.198, 568.500 490.999 C 589.908 478.281, 622.123 456.868, 621.710 455.631 C 621.029 453.587, 566.508 376.080, 565.724 376.040 C 565.297 376.018, 558.997 379.976, 551.724 384.835 C 526.908 401.415, 495.390 419.771, 469.167 432.916 C 458.792 438.117, 457.052 438.715, 456.626 437.228 C 454.889 431.157, 446.820 390.826, 447.263 390.427 C 447.393 390.310, 455.210 384.604, 464.634 377.749 C 537 325.103, 572.450 285.094, 583.728 243.337 C 586.090 234.593, 586.383 231.722, 586.365 217.500 C 586.347 203, 586.090 200.656, 583.627 192.500 C 575.848 166.736, 560.521 147.622, 539.500 137.471 C 526.459 131.173, 520.779 129.886, 503.500 129.312 C 490.814 128.891, 486.880 129.142, 478 130.938 C 460.984 134.380, 442.905 140.692, 422.743 150.231 C 416.827 153.029, 411.703 155.036, 411.356 154.690 C 410.795 154.128, 401.120 81.073, 401.035 76.750 C 400.990 74.474, 403.670 74.267, 349.500 80.743 M 472 236.226 C 463.789 239.687, 428.047 257.645, 426.598 259.037 C 425.700 259.900, 427.649 277.277, 428.919 279.728 C 430.162 282.128, 464.182 251.901, 476.164 237.750 C 478.376 235.137, 480.032 233.014, 479.843 233.032 C 479.654 233.049, 476.125 234.487, 472 236.226 M 341.992 463.103 C 328.834 472.577, 310.136 486.924, 302.626 493.308 C 300.517 495.101, 300.527 495.110, 304 494.474 C 321.856 491.202, 363.991 478.732, 364.014 476.713 C 364.041 474.301, 358.649 452, 358.039 452 C 357.694 452, 350.474 456.996, 341.992 463.103 " stroke="none" fill="black" fill-rule="evenodd"/>
</svg>