<svg xmlns="http://www.w3.org/2000/svg" width="1000" height="1000" viewBox="0 0 1000 1000" version="1.1">
	<path d="M 776 72.202 C 747.595 81.976, 718.654 88.943, 691 92.664 C 674.382 94.899, 629.630 95.229, 615.500 93.220 C 592.070 89.889, 569.287 83.909, 554.811 77.292 C 548.037 74.196, 546.706 73.878, 545.569 75.087 C 544.839 75.864, 532.852 94.444, 518.932 116.375 C 490.163 161.700, 491.897 156.315, 504.081 162.509 C 533.085 177.255, 570.384 187.503, 612 192.160 C 626.890 193.826, 674.901 193.814, 690 192.140 C 721.207 188.681, 749.485 183.202, 778.238 175.044 C 795.739 170.079, 820.781 161.640, 822.118 160.257 C 822.816 159.535, 789.647 70.178, 788.197 68.872 C 787.814 68.527, 782.325 70.026, 776 72.202 M 345.500 75.686 C 324.903 86.114, 299.853 95.015, 269.412 102.724 C 258.931 105.378, 257.553 105.483, 234.500 105.403 C 203.947 105.297, 177.560 102.288, 133.228 93.855 C 127.028 92.675, 121.813 91.888, 121.639 92.105 C 121.464 92.322, 116.738 112.975, 111.135 138 C 105.532 163.025, 100.694 184.467, 100.384 185.648 C 99.724 188.162, 99.590 188.126, 129.500 193.531 C 172.333 201.270, 203.358 204.365, 238.575 204.413 L 264.650 204.448 259.240 215.918 C 237.884 261.193, 232.620 289.552, 241.018 314.079 C 242.792 319.261, 245.545 326.087, 247.136 329.250 L 250.029 335 240.264 335.017 C 223.805 335.047, 211.438 338.618, 198.464 347.087 C 165.504 368.604, 143.800 419.105, 130.600 505 C 118.675 582.598, 114.655 690.003, 119.054 813.500 C 119.921 837.847, 121.047 861.213, 123.667 909.250 L 124.307 921 127.167 921 C 131.708 921, 222.442 914.891, 222.770 914.564 C 222.932 914.401, 222.387 903.070, 221.559 889.384 C 210.096 700.072, 216.854 544.602, 240.083 463.184 C 243.764 450.280, 248.842 437, 250.095 437 C 251.922 437, 260.381 445.566, 265.980 453.085 C 273.980 463.830, 279.648 475.528, 287.984 498.500 C 291.976 509.500, 295.525 518.794, 295.871 519.153 C 296.515 519.822, 375.710 505.623, 376.666 504.667 C 377.555 503.779, 382.837 467.006, 384.056 453.220 C 384.728 445.617, 385.020 429.741, 384.761 414.873 C 384.338 390.553, 384.194 389.023, 381.292 378 C 376.054 358.110, 368.591 341.897, 352.118 314.628 C 346.760 305.758, 341.069 296.091, 339.472 293.146 L 336.569 287.791 339.364 279.646 C 348.417 253.267, 379.236 198.168, 418.654 137.891 C 429.434 121.407, 438.084 107.763, 437.877 107.571 C 436.618 106.403, 360.778 69.010, 359.755 69.052 C 359.065 69.081, 352.650 72.066, 345.500 75.686 M 691 213.066 C 668.503 215.555, 643.830 220.884, 615.500 229.373 C 596.603 235.035, 575 242.920, 575 244.155 C 575 244.916, 610.810 334.070, 611.360 334.677 C 611.448 334.774, 619.840 332.017, 630.010 328.551 C 656.356 319.571, 692.776 311, 704.587 311 C 709.289 311, 685.307 331.200, 663.469 345.634 C 630.298 367.558, 570.760 398.303, 537.500 410.683 C 508.403 421.513, 463 440.628, 463 442.048 C 463 442.807, 498.896 532.171, 499.432 532.748 C 499.832 533.178, 544.749 515.545, 562.500 507.988 C 594.095 494.539, 625.797 483.422, 660.668 473.564 C 713.487 458.631, 758.394 452.636, 777.195 458.008 C 785.794 460.465, 798.407 480.582, 801.609 496.948 C 807.029 524.653, 796.555 558.451, 773.221 588.546 C 765.561 598.426, 748.823 615.527, 747.403 614.924 C 746.906 614.713, 745.683 611.382, 744.685 607.520 C 737.503 579.749, 716.260 555.119, 688.624 542.525 C 639.307 520.050, 566.608 531.162, 518.470 568.531 C 476.547 601.077, 460.267 650.454, 477.084 694.062 C 486.568 718.654, 508.146 738.622, 537.077 749.579 L 547.008 753.339 545.452 755.714 C 538.308 766.617, 533.099 778.130, 529.767 790.387 C 527.890 797.287, 527.557 801.116, 527.540 816 C 527.523 831.110, 527.837 834.729, 529.845 842.500 C 541.217 886.523, 579.376 911.317, 649 919.922 C 685.474 924.430, 746.906 924.236, 805 919.430 C 840.092 916.527, 902.285 909.048, 903.781 907.552 C 904.302 907.031, 891.038 819.538, 889.360 812.422 C 888.880 810.390, 888.681 810.373, 880.185 811.646 C 817.677 821.012, 733.859 826.480, 689.500 824.085 C 659.822 822.482, 630.398 817.798, 626.685 814.085 C 625.137 812.537, 632.237 803.858, 641.265 796.262 C 645.794 792.451, 657.150 783.227, 666.500 775.765 C 675.850 768.302, 687.127 758.818, 691.560 754.688 C 699.067 747.695, 700.231 746.994, 708.560 744.458 C 724.734 739.532, 741.244 732.937, 758.500 724.510 C 787.983 710.110, 805.173 698.009, 826.574 676.588 C 849.795 653.345, 865.576 631.849, 878.394 606 C 907.234 547.838, 909.563 488.779, 885.044 437.327 C 876.274 418.922, 866.441 405.436, 850.885 390.474 C 835.500 375.677, 821.008 367.409, 802.243 362.725 C 797.434 361.525, 793.355 360.463, 793.178 360.366 C 793.001 360.269, 793.966 358.429, 795.324 356.279 C 799.559 349.570, 805.627 336.783, 807.795 330 C 811.503 318.396, 812.450 311.810, 812.327 298.500 C 812.177 282.288, 810.062 273.531, 802.794 259.013 C 798.389 250.214, 796.171 247.142, 789.022 239.939 C 775.867 226.685, 761.824 219.327, 741.466 215.022 C 729.839 212.564, 704.440 211.579, 691 213.066 M 609.500 632.387 C 598.443 635.294, 588.885 639.550, 581.013 645.072 C 575.440 648.981, 569.247 655.581, 570.230 656.563 C 570.468 656.801, 574.226 657.971, 578.581 659.164 C 585.535 661.067, 588.999 661.327, 607 661.295 C 619.470 661.273, 630.828 660.718, 635.996 659.879 L 644.492 658.500 646.769 652.100 C 648.022 648.580, 649.149 642.973, 649.273 639.639 C 649.491 633.820, 649.380 633.517, 646.500 632.039 C 644.366 630.944, 639.893 630.431, 631 630.261 C 620.539 630.061, 617.032 630.408, 609.500 632.387 " stroke="none" fill="black" fill-rule="evenodd"/>
</svg>