<svg xmlns="http://www.w3.org/2000/svg" width="1000" height="1000" viewBox="0 0 1000 1000" version="1.1">
	<path d="M 479.450 72.461 C 455.777 76.762, 429.880 89.565, 406 108.773 C 382.794 127.440, 354.725 159.289, 338.950 184.853 C 336.524 188.784, 333.910 192, 333.141 192 C 332.371 192, 323.587 190.177, 313.621 187.950 C 281.919 180.864, 259.024 174.438, 225.752 163.287 C 213.240 159.094, 202.815 155.851, 202.585 156.082 C 201.933 156.734, 166.924 247.264, 167.229 247.510 C 167.836 247.997, 194.430 257.149, 207.500 261.368 C 227.856 267.938, 243.778 272.490, 267.500 278.522 C 282.515 282.340, 288.405 284.238, 288.167 285.180 C 287.984 285.905, 279.510 303.991, 269.336 325.370 C 223.920 420.813, 208.816 457.248, 199.604 493.589 C 191.818 524.304, 191.600 550.226, 198.948 571.400 C 207.424 595.822, 227.782 613.590, 255.170 620.466 C 286.519 628.338, 334.460 625.192, 407.941 610.443 C 417.534 608.517, 426.421 606.681, 427.691 606.363 L 430 605.783 430.002 676.142 C 430.003 714.839, 430.459 762.925, 431.016 783 C 432.560 838.662, 434.968 907.301, 435.391 907.724 C 435.881 908.214, 526.485 905.069, 530.734 904.414 L 533.967 903.915 533.466 896.708 C 532.731 886.158, 530.105 797.215, 529.061 747.500 C 528.121 702.765, 528.769 585.927, 529.976 582.583 C 530.517 581.084, 534.788 579.495, 549.584 575.289 C 593.966 562.674, 685.061 534.273, 686.835 532.498 C 687.565 531.769, 670.847 480.193, 665.281 466 C 651.761 431.527, 634.154 400.159, 616.556 379.192 C 584.474 340.969, 542.112 328.406, 504.500 345.962 C 477.201 358.704, 458.973 385.794, 447.376 430.857 C 443.476 446.014, 438.815 472.418, 436.937 490 C 436.262 496.325, 435.212 502.026, 434.605 502.668 C 432.742 504.638, 378.013 516.183, 348 520.937 C 332.246 523.432, 307.915 526, 300.028 526 C 292.760 526, 292.854 526.428, 296.934 511.898 C 304.771 483.989, 318.973 450.907, 361.505 361.491 C 375.107 332.896, 387.260 307.189, 388.512 304.365 L 390.789 299.229 418.644 298.732 C 438.117 298.384, 449.355 297.735, 455.986 296.575 C 498.995 289.050, 532.416 272.264, 558.009 245.333 C 573.395 229.142, 584.469 209.923, 589.697 190.337 C 591.950 181.894, 592.333 178.374, 592.397 165.500 C 592.484 148.201, 590.672 139.504, 584.022 125.309 C 571.603 98.797, 545.804 78.566, 516.792 72.588 C 507.588 70.692, 489.529 70.630, 479.450 72.461 M 481.050 176.537 C 473.331 181.296, 462.844 189.292, 459.575 192.913 L 457.650 195.044 461.575 193.408 C 473.731 188.341, 483.737 181.656, 488.488 175.427 C 492.084 170.712, 489.991 171.024, 481.050 176.537 M 679.690 274.750 C 678.785 276.335, 658.623 368.956, 659.083 369.416 C 659.350 369.683, 666.528 371.924, 675.034 374.395 C 701.204 381.999, 724.962 391.781, 741.355 401.701 C 758.123 411.849, 785.771 444.674, 801.197 472.750 C 803.388 476.738, 805.581 480, 806.071 480 C 807.195 480, 893.187 440.963, 894.385 439.909 C 895.648 438.798, 884.190 418.082, 872.779 400.843 C 856.158 375.733, 835.508 351.410, 817.239 335.421 C 791.339 312.755, 747.451 291.763, 697.094 277.956 C 682.007 273.819, 680.391 273.521, 679.690 274.750 M 543.668 452.747 C 541.420 460.315, 538.758 474.092, 539.416 474.750 C 539.736 475.070, 544.222 474.084, 549.385 472.560 L 558.772 469.788 555.581 464.144 C 553.826 461.040, 550.762 456.082, 548.771 453.126 L 545.151 447.751 543.668 452.747 " stroke="none" fill="black" fill-rule="evenodd"/>
</svg>