<svg xmlns="http://www.w3.org/2000/svg" width="1000" height="1000" viewBox="0 0 1000 1000" version="1.1">
	<path d="M 418.500 232.072 C 392.248 235.559, 365.989 249.599, 339.560 274.279 C 321.944 290.729, 306.124 309.534, 269.547 357.500 C 241.538 394.231, 230.447 407.561, 215.008 423.055 C 193.586 444.552, 179.965 452.206, 155.553 456.463 C 140.639 459.064, 114.012 458.283, 94.609 454.676 C 93.538 454.477, 66.763 546.902, 67.402 548.591 C 67.839 549.744, 83.409 553.061, 98.500 555.215 C 112.594 557.227, 153.892 556.894, 167.500 554.659 C 214.960 546.863, 247.706 529.928, 283.006 494.926 C 301.565 476.524, 315.012 460.493, 347.535 418 C 359.533 402.325, 373.636 384.100, 378.877 377.500 C 390.077 363.394, 415.705 337.477, 421.652 334.241 L 425.805 331.982 430.486 339.241 C 437.270 349.763, 452.936 381.709, 465.430 410.500 C 471.397 424.250, 481.656 447.875, 488.228 463 C 525.790 549.447, 554.571 596.837, 585.053 622.431 C 605.076 639.243, 621.363 646.371, 649 650.415 C 687.605 656.064, 720.012 651.991, 761 636.337 C 795.759 623.062, 802.646 621.413, 816.427 623.072 C 826.937 624.337, 838 627.619, 838 629.472 C 838 631.684, 827.765 642.189, 817.677 650.333 C 800.064 664.551, 778.804 678.097, 748.750 694.250 C 739.538 699.202, 732 703.387, 732 703.551 C 732 704.289, 773.197 790.585, 773.875 791.269 C 775.249 792.654, 815.504 770.858, 838.989 756.013 C 897.165 719.241, 926.497 686.737, 937.193 647.187 C 940.208 636.039, 940.187 614.693, 937.150 603.500 C 932.689 587.057, 922.187 569.710, 910.164 558.926 C 886.689 537.870, 852.691 525.556, 814.500 524.276 C 787.664 523.377, 772.532 526.485, 735.422 540.519 C 704.410 552.246, 699.337 553.429, 680 553.444 C 659.244 553.460, 654.667 552.372, 647.325 545.680 C 629.496 529.429, 608.046 490.986, 577.198 420 C 572.776 409.825, 563.676 388.900, 556.975 373.500 C 530.921 313.625, 515.178 284.712, 496.940 263.240 C 484.918 249.087, 468.057 237.979, 452.592 234.023 C 443.706 231.751, 427.781 230.839, 418.500 232.072 " stroke="none" fill="black" fill-rule="evenodd"/>
</svg>