<svg xmlns="http://www.w3.org/2000/svg" width="1000" height="1000" viewBox="0 0 1000 1000" version="1.1">
	<path d="M 302.500 121.557 C 285.450 127.848, 264.711 135.499, 256.414 138.558 L 241.328 144.121 244.079 154.810 C 248.825 173.257, 250.277 190.737, 247.916 201 C 246.495 207.176, 237.897 219.628, 213.393 251 C 165.127 312.794, 148.184 337.719, 133.013 369.249 C 120.523 395.206, 115.271 414.342, 114.278 437.504 C 112.610 476.451, 122.297 508.346, 146.705 544.271 C 152.023 552.097, 159.285 562.775, 162.845 568 C 179.786 592.871, 182.168 605.682, 182.369 673 C 182.467 705.685, 182.330 708.447, 179.767 725.500 C 173.179 769.331, 171.922 786.680, 171.303 842.250 L 170.771 890 175.815 890 C 178.589 890, 201.864 890.702, 227.536 891.560 C 253.209 892.418, 274.403 892.930, 274.635 892.698 C 274.867 892.467, 276.179 880.402, 277.551 865.888 C 283.690 800.969, 294.113 753.738, 308.755 724.500 C 313.749 714.528, 328.491 688.299, 344.356 661.161 C 351.860 648.324, 358 637.460, 358 637.018 C 358 636.576, 357.325 635.955, 356.499 635.638 C 355.674 635.321, 337.308 624.506, 315.686 611.604 L 276.373 588.147 275.142 581.468 C 273.165 570.736, 266.525 551.834, 260.314 539.254 C 254.838 528.162, 249.862 520.278, 229.543 490.500 C 216.267 471.044, 213.042 462.256, 213.015 445.460 C 212.998 435.053, 214.461 428.596, 219.367 417.440 C 229.985 393.290, 244.312 372.082, 287.554 316.500 C 332.584 258.620, 339.695 246.257, 345.644 215.500 C 348.052 203.052, 348.026 174.799, 345.592 158.500 C 343.768 146.291, 337.296 119.056, 334.848 113.291 L 333.500 110.118 302.500 121.557 M 783.500 141.059 C 758.200 142.031, 736.995 142.865, 736.379 142.913 C 735.762 142.961, 734.955 145.363, 734.585 148.250 C 732.763 162.478, 724.249 185.766, 714.394 203.479 C 694.212 239.752, 659.863 276.918, 616.500 309.398 C 603.247 319.325, 595.205 324.774, 534 365.292 C 507.875 382.586, 480.875 400.917, 474 406.027 C 431.287 437.770, 411.394 460.542, 402.389 488 C 399.841 495.771, 399.601 497.787, 399.601 511.500 C 399.601 525.098, 399.851 527.247, 402.275 534.500 C 405.963 545.535, 411.254 554.163, 419.500 562.589 C 443.420 587.031, 479.634 596.385, 543 594.488 C 557.575 594.051, 572.650 593.651, 576.500 593.597 L 583.500 593.500 584.119 606.500 C 586.708 660.858, 586.082 723.735, 582.462 773 C 581.673 783.725, 581.022 792.827, 581.014 793.227 C 581.006 793.627, 571.437 786.857, 559.750 778.183 C 548.063 769.509, 534.563 759.589, 529.750 756.138 C 524.938 752.687, 521 749.507, 521 749.072 C 521 748.637, 523.968 744.730, 527.595 740.390 C 538.808 726.975, 566 688.555, 566 686.128 C 566 685.164, 483.107 633.510, 482.582 634.147 C 482.422 634.341, 478.998 639.450, 474.973 645.500 C 458.234 670.663, 444.065 687.601, 431.277 697.735 C 408.549 715.747, 384.872 728.595, 364.219 734.122 C 359.699 735.332, 356.002 736.812, 356.004 737.411 C 356.007 738.010, 358.030 759.425, 360.500 785 C 362.970 810.575, 364.993 832.121, 364.996 832.879 C 365.002 834.809, 373.597 833.735, 387.636 830.052 C 424.286 820.436, 463.353 799.382, 498 770.573 L 506.500 763.506 502.913 768.503 C 481.628 798.154, 461.889 826.154, 461.532 827.201 C 461.268 827.974, 465.626 831.721, 472.294 836.456 C 494.110 851.945, 529.879 879.120, 540.617 888.362 C 546.603 893.514, 559.749 905.634, 569.831 915.295 L 588.161 932.860 596.831 932.417 C 601.599 932.174, 618.077 931.516, 633.449 930.955 C 648.821 930.394, 661.560 929.773, 661.758 929.576 C 662.699 928.634, 672.108 868.963, 674.383 849.500 C 684.438 763.495, 686.852 685.566, 682.361 591.988 L 681.713 578.475 707.106 574.210 C 745.044 567.838, 830.452 552.842, 830.827 552.488 C 831.083 552.247, 816.838 471.442, 814.322 458.861 C 813.955 457.027, 813.125 456, 812.008 456 C 811.050 456, 789.844 459.581, 764.883 463.959 C 688.785 477.303, 674 479.720, 674 478.813 C 674 476.104, 668.860 430.527, 668.516 430.183 C 668.289 429.955, 654.467 431.401, 637.801 433.396 C 621.136 435.390, 606.825 437.017, 606 437.010 C 605.175 437.003, 616.875 428.774, 632 418.722 C 674.375 390.561, 695.948 373.932, 724 347.810 C 775.873 299.504, 813.356 240.757, 827.490 185.608 C 831.120 171.446, 834 153.243, 834 144.466 C 834 139.421, 833.827 139.011, 831.750 139.146 C 830.513 139.226, 808.800 140.087, 783.500 141.059 M 417.575 167.883 C 414.484 184.707, 413.760 194.376, 414.310 211.500 C 415.087 235.663, 419.397 251.213, 429.561 266.525 C 437.901 279.090, 455.641 295.374, 476.112 309.254 C 486.792 316.497, 504.960 327.390, 505.456 326.848 C 505.631 326.657, 516.117 307.058, 528.758 283.296 L 551.740 240.091 542.496 234.575 C 537.412 231.541, 529.708 226.376, 525.376 223.096 C 511.102 212.291, 512.475 214.338, 512.680 204.164 C 512.778 199.241, 513.340 192.615, 513.927 189.438 C 514.514 186.261, 514.799 183.465, 514.559 183.226 C 514.176 182.842, 439.674 164.005, 424.834 160.540 L 419.168 159.217 417.575 167.883 M 555.917 469.140 C 546.888 475.266, 534.955 483.704, 529.401 487.890 L 519.301 495.500 532.901 495.810 C 545.357 496.093, 574.803 494.531, 575.800 493.533 C 576.193 493.140, 573.032 458.798, 572.552 458.250 C 572.432 458.113, 564.946 463.013, 555.917 469.140 M 699.359 635.091 C 699.724 649.066, 700.311 671.413, 700.663 684.750 L 701.302 709 706.401 709.006 C 713.369 709.014, 729.830 711.578, 738.963 714.078 C 743.108 715.213, 751.015 718.320, 756.533 720.982 C 765.160 725.145, 767.613 726.922, 774.033 733.662 C 788.430 748.774, 804.822 771.090, 816.004 790.797 C 818.905 795.910, 821.793 799.960, 822.423 799.797 C 825.304 799.050, 908 754.669, 908 753.869 C 908 750.662, 885.897 715.369, 873.636 699 C 862.141 683.652, 843.458 662.502, 834.664 654.882 C 804.263 628.538, 761.764 613.233, 711.097 610.381 L 698.695 609.683 699.359 635.091 " stroke="none" fill="black" fill-rule="evenodd"/>
</svg>