<svg xmlns="http://www.w3.org/2000/svg" width="1000" height="1000" viewBox="0 0 1000 1000" version="1.1">
	<path d="M 429.932 66.196 C 421.315 83.433, 407.035 100.278, 393.500 109.170 C 389.650 111.700, 378.850 118.165, 369.500 123.536 C 347.071 136.423, 336.187 143.903, 326.629 153 C 309.079 169.703, 300.553 187.393, 299.293 209.720 C 298.280 227.659, 301.849 241.972, 313.616 267.169 C 317.127 274.688, 320 281.051, 320 281.311 C 320 281.571, 315.163 284.845, 309.250 288.587 C 237.085 334.263, 204.174 362.666, 184.212 396.500 C 165.904 427.530, 163.388 464.123, 177.518 493.875 C 191.518 523.356, 220.409 542.908, 256.108 547.062 C 304.312 552.671, 360.317 527.843, 405.515 480.827 C 432.434 452.826, 445.836 423.560, 449.055 385.750 C 450.381 370.176, 449.101 352.350, 445.319 333.721 C 443.892 326.693, 442.899 320.795, 443.112 320.616 C 444.620 319.346, 473.450 302.673, 484.924 296.436 C 511.106 282.204, 545.523 268.077, 547.942 270.570 C 548.439 271.081, 549.527 274.875, 550.362 279 C 554.535 299.633, 555.131 325.558, 552.506 372.360 C 551.616 388.233, 551.099 401.432, 551.357 401.690 C 551.616 401.949, 566.829 399.318, 585.164 395.844 L 618.500 389.528 637.500 389.514 C 649.596 389.505, 657.178 389.901, 658.366 390.604 C 662.685 393.162, 646.029 404.964, 614 422.043 C 521.549 471.342, 352.397 533.696, 155.500 591.061 C 137.900 596.189, 123.357 600.479, 123.181 600.594 C 122.896 600.782, 147 695.111, 147.501 695.770 C 147.614 695.918, 158.685 693.585, 172.103 690.585 C 252.710 672.562, 321.444 659.028, 396.366 646.426 C 414.442 643.386, 429.387 641.054, 429.578 641.244 C 429.768 641.434, 427.267 645.137, 424.021 649.472 C 412.215 665.238, 402.806 685.821, 399.557 702.990 C 397.462 714.062, 397.446 732.371, 399.521 742.554 C 400.412 746.924, 402.660 754.311, 404.517 758.970 C 406.374 763.628, 407.805 767.513, 407.697 767.601 C 407.589 767.690, 404.768 769.132, 401.429 770.805 C 383.650 779.716, 365.935 794.904, 356.199 809.586 C 344.829 826.731, 339.954 848.364, 343.035 868 C 346.511 890.147, 357.926 909.734, 375.683 924.018 C 398.015 941.983, 427.366 952.196, 472 957.532 C 490.583 959.754, 536.623 960.546, 562 959.081 C 580.320 958.024, 611.033 955.301, 611.655 954.678 C 611.992 954.342, 599.194 857.860, 598.754 857.421 C 598.555 857.222, 591.667 857.754, 583.446 858.602 C 563.478 860.663, 507.248 861.578, 491 860.106 C 478.099 858.937, 461.155 856.365, 457.551 855.027 C 453.207 853.415, 484.379 844.898, 507.126 841.481 C 512.774 840.633, 517.587 839.747, 517.821 839.512 C 518.242 839.091, 527.931 749.379, 527.975 745.500 C 527.992 743.994, 526.578 742.926, 522.249 741.176 C 508.327 735.547, 495.236 725.092, 496.572 720.668 C 498.289 714.980, 503.170 707.829, 510 700.996 C 553.075 657.901, 684.172 623.666, 843.500 613.906 C 853.950 613.266, 862.628 612.635, 862.784 612.504 C 863.086 612.250, 859.017 514.675, 858.692 514.371 C 858.586 514.272, 843.650 514.798, 825.500 515.540 C 777.284 517.511, 726.978 518.922, 681 519.594 C 634.153 520.278, 636.537 521.585, 661.185 508.725 C 709.030 483.761, 732.886 464.053, 746.938 437.887 C 765.660 403.023, 762.376 357.877, 738.980 328.475 C 724.056 309.720, 698.936 296.623, 670 292.510 C 663.675 291.611, 656.942 290.566, 655.038 290.188 L 651.576 289.500 650.295 279 C 641.021 203.016, 603.322 164.808, 543.600 170.863 C 512.493 174.016, 472.752 189.469, 423.533 217.549 C 414.202 222.873, 406.066 227.421, 405.454 227.656 C 403.992 228.217, 400.365 220.206, 401.583 219.105 C 402.087 218.650, 410.600 213.667, 420.500 208.032 C 451.995 190.105, 462.489 182.436, 479.567 164.860 C 490.693 153.410, 500.959 140.100, 509.651 125.855 C 516.107 115.274, 525.296 96.388, 524.764 94.793 C 524.498 93.994, 445.842 63.941, 435.060 60.519 C 433.411 59.996, 432.561 60.936, 429.932 66.196 M 334.977 389.629 C 302.708 411.092, 276.262 433.591, 270.186 444.750 L 267.872 449 271.226 449 C 293.266 449, 336.304 418.370, 346.575 395.375 C 348.918 390.130, 351.234 380, 350.090 380 C 349.740 380, 342.939 384.333, 334.977 389.629 " stroke="none" fill="black" fill-rule="evenodd"/>
</svg>