<svg xmlns="http://www.w3.org/2000/svg" width="1000" height="1000" viewBox="0 0 1000 1000" version="1.1">
	<path d="M 345.500 78.248 C 321.195 111.677, 314.033 122.061, 302.562 140.500 C 283.993 170.348, 267.627 200.296, 253.481 230.312 L 246.500 245.125 243 244.479 C 236.783 243.331, 217.841 236.879, 206.017 231.882 C 186.460 223.617, 159.383 207.993, 142.739 195.370 C 139.570 192.966, 136.645 191.023, 136.239 191.052 C 135.832 191.081, 121.482 208.052, 104.350 228.765 L 73.200 266.427 78.850 270.827 C 116.667 300.278, 174.061 329.436, 212.095 338.519 L 214.691 339.139 210.820 354.820 C 198.809 403.482, 187.584 466.700, 181.579 519.500 C 179.033 541.885, 174.665 595.998, 175.348 596.682 C 175.679 597.012, 243.340 608.292, 250.131 609.149 C 252.471 609.444, 254.396 607.444, 267.606 590.990 C 283.573 571.102, 311.147 542.487, 324.316 532.141 C 328.614 528.763, 332.258 526, 332.414 526 C 332.892 526, 331.003 537.005, 328.897 546.496 C 313.768 614.657, 259.923 744.135, 193.586 871.863 C 184.351 889.646, 177.179 904.527, 177.647 904.933 C 178.340 905.533, 256.499 946.714, 267.630 952.344 L 270.760 953.927 284.320 922.214 C 317.334 845.001, 365.712 746.532, 406.758 673 C 490.116 523.670, 566.116 422.061, 631.160 372.982 C 668.956 344.463, 694.448 337.779, 730.379 346.969 C 764.710 355.750, 781.800 383.659, 779.690 427.500 C 778.397 454.360, 770.026 482.158, 757.604 500.843 C 750.469 511.577, 751.569 511.142, 737 508.976 C 730.125 507.954, 714.600 505.021, 702.500 502.459 C 656.620 492.744, 631.947 495.725, 604.577 514.291 C 596.622 519.688, 583.837 532.030, 579.645 538.359 C 564.132 561.783, 555.634 594.831, 552.853 642.551 C 549.442 701.069, 560.074 762.961, 581.076 806.854 C 606.283 859.536, 644.466 886.597, 703.974 893.953 C 714.900 895.303, 746.298 895.301, 758.789 893.949 C 801.175 889.361, 848.731 875.652, 894.750 854.756 C 902.038 851.447, 908 848.259, 908 847.671 C 908 846.788, 864.486 762.325, 863.407 761.115 C 863.218 760.904, 857.987 763.014, 851.782 765.805 C 814.361 782.637, 777.202 793.112, 744.500 796.049 C 725.251 797.778, 708.395 796.054, 694.420 790.927 C 675.253 783.896, 659.925 750.783, 653.487 702.500 C 650.051 676.732, 650.499 641.569, 654.565 617.763 C 656.224 608.051, 659.573 596.382, 660.946 595.533 C 661.832 594.986, 668.198 596.142, 696 601.901 C 712.337 605.285, 734.285 608.586, 747.046 609.578 C 794.914 613.299, 838.779 575.247, 862.983 509.006 C 878.740 465.883, 882.804 416.351, 873.915 375.765 C 867.659 347.202, 854.854 320.995, 837.519 301.278 C 806.677 266.199, 763.959 247.448, 708 244.427 C 657.605 241.707, 605.746 263.762, 550 311.623 C 513.636 342.844, 464.902 398.977, 427.039 453.250 C 424.066 457.512, 421.377 461, 421.065 461 C 420.752 461, 419.476 459.087, 418.229 456.750 C 415.243 451.156, 406.859 441.404, 400 435.548 C 383.827 421.741, 361.748 415.292, 339.654 417.923 C 328.276 419.278, 312.966 423.978, 302.090 429.455 C 298.190 431.418, 295 432.564, 295 432 C 295 430.515, 302.322 396.719, 305.941 381.500 C 310.253 363.365, 315.107 346, 315.864 345.999 C 316.214 345.999, 324.600 345.077, 334.500 343.950 C 367.403 340.205, 400.337 334.012, 438 324.485 C 458.080 319.406, 528 297.095, 528 295.766 C 528 295.279, 521.848 281.745, 514.328 265.690 C 501.984 239.333, 499.007 233.928, 483.663 210 C 444.948 149.629, 431.564 131.278, 392.501 85 C 378.341 68.225, 366.248 53.963, 365.628 53.307 C 364.774 52.404, 359.883 58.465, 345.500 78.248 M 364.602 229.529 C 361.376 235.327, 358.909 240.216, 359.118 240.394 C 359.328 240.571, 363.775 239.895, 369 238.889 C 384.797 235.850, 383.751 237.204, 377.590 227.776 C 374.643 223.267, 371.835 219.445, 371.349 219.283 C 370.863 219.121, 367.827 223.732, 364.602 229.529 " stroke="none" fill="black" fill-rule="evenodd"/>
</svg>