<svg xmlns="http://www.w3.org/2000/svg" width="1000" height="1000" viewBox="0 0 1000 1000" version="1.1">
	<path d="M 456.763 64.443 C 433.258 66.201, 413.805 67.861, 413.535 68.132 C 413.264 68.403, 413.713 77.597, 414.533 88.562 C 419.269 151.871, 425.763 255.625, 425.037 256.357 C 423.426 257.980, 399.889 257.409, 395.124 255.632 C 389.610 253.575, 389.679 253.564, 391.373 256.250 C 396.427 264.264, 393.036 262.211, 355.475 234.514 C 334.208 218.831, 316.480 206, 316.082 206 C 315.358 206, 307.683 218.938, 306.442 222.250 C 305.303 225.288, 304.358 224.178, 303.035 218.250 C 296.857 190.574, 276.873 153.916, 257.857 135.379 C 234.658 112.764, 200.566 98.162, 165.334 95.748 L 161.167 95.463 160.607 102.982 C 160.300 107.117, 159.804 125.350, 159.506 143.500 C 159.208 161.650, 158.702 180.409, 158.381 185.186 L 157.798 193.871 161.649 194.506 C 176.164 196.900, 187.696 202.823, 192.791 210.503 C 198.064 218.451, 204.792 232.826, 206.693 240.208 C 208.273 246.339, 208.689 247.001, 210.971 247.011 C 212.362 247.017, 232.305 246.285, 255.289 245.383 C 278.272 244.481, 297.298 243.965, 297.569 244.235 C 297.839 244.506, 297.542 248.051, 296.907 252.114 C 295.367 261.980, 296.321 278.623, 298.954 287.829 C 307.183 316.594, 330.216 338.190, 364.500 349.283 C 381.370 354.742, 386.934 355.500, 410.118 355.500 L 431.736 355.500 432.367 366.500 C 433.194 380.913, 435.870 439.957, 436.224 451.603 L 436.500 460.707 428.106 466.017 C 390.706 489.677, 357.375 533.830, 342.940 578.833 C 328.587 623.582, 332.042 660.274, 355.210 709.142 L 361.204 721.784 351.453 735.142 C 346.090 742.489, 335.334 756.825, 327.549 767 C 319.765 777.175, 313.075 786.031, 312.683 786.680 C 312.260 787.379, 323.261 804.115, 339.633 827.680 C 354.849 849.581, 367.629 867.875, 368.033 868.334 C 368.437 868.792, 382.397 857.496, 399.056 843.231 L 429.345 817.296 435.413 823.898 C 438.750 827.529, 444.455 833.603, 448.090 837.396 L 454.699 844.293 494.600 843.047 C 516.545 842.361, 534.793 841.508, 535.151 841.150 C 535.509 840.793, 535.975 812.302, 536.185 777.837 L 536.568 715.174 544.041 707.337 C 562.232 688.259, 589.485 654.919, 617.476 617.500 C 647.503 577.358, 688.594 518.950, 687.935 517.348 C 687.387 516.015, 607.934 462.852, 607.002 463.194 C 606.544 463.362, 598.329 474.769, 588.747 488.542 C 579.165 502.315, 569.311 516.353, 566.849 519.737 L 562.371 525.890 561.087 518.244 C 558.356 501.991, 551.061 485.814, 541.246 474.244 L 535.734 467.747 535.363 459.124 C 535.159 454.381, 534.533 438.800, 533.972 424.500 C 532.740 393.080, 530.240 343.779, 529.457 335.471 L 528.888 329.442 532.694 328.076 C 547.264 322.846, 604.295 297.038, 606.784 294.549 C 607.127 294.206, 564.206 213.937, 561.070 209.055 C 560.308 207.870, 556.892 209.184, 541.992 216.394 C 532.010 221.224, 523.613 224.946, 523.331 224.664 C 523.049 224.382, 521.947 211.180, 520.883 195.326 C 519.819 179.472, 517.385 143.884, 515.474 116.243 C 513.563 88.601, 512 64.864, 512 63.493 C 512 61.088, 511.778 61.004, 505.750 61.123 C 502.313 61.191, 480.269 62.685, 456.763 64.443 M 726 195.693 C 702.117 199.707, 678.151 213.444, 657.991 234.674 C 649.854 243.243, 643.259 251.651, 644.101 252.383 C 644.321 252.573, 662.809 264.924, 685.186 279.828 L 725.873 306.927 717.898 330.714 C 704.073 371.945, 699.508 390.443, 698.078 411.019 C 695.787 443.995, 704.330 470.367, 723.521 489.558 C 732.274 498.311, 739.527 502.895, 761.492 513.559 C 783.468 524.228, 788.204 527.987, 793.689 539.113 C 801.163 554.276, 804.054 571.045, 804.724 603.116 C 805.735 651.488, 801.956 674.762, 788.588 702.500 C 762.411 756.818, 700.759 807.793, 614.258 846.642 C 599.442 853.296, 575.377 862.778, 562.712 866.951 C 557.402 868.701, 556.031 869.548, 556.413 870.844 C 556.681 871.755, 562.813 892.750, 570.039 917.500 C 577.264 942.250, 583.474 962.805, 583.838 963.177 C 584.202 963.550, 590.125 961.921, 597 959.557 C 659.679 938.012, 720.347 906.669, 768.468 870.972 C 842.024 816.408, 886.848 750.341, 899.392 678 C 902.504 660.048, 903.496 643.418, 903.447 610 C 903.409 583.716, 903.021 573.807, 901.646 564 C 897.887 537.180, 892.426 517.226, 883.868 499.046 C 867.894 465.112, 845.163 443.379, 807.437 425.971 L 795.831 420.615 796.471 416.058 C 797.913 405.786, 802.405 389.759, 812.332 359.464 C 828.116 311.293, 830.595 299.355, 829.729 275.688 C 829.128 259.270, 827.113 250.868, 820.925 238.972 C 809.650 217.301, 788.318 202.278, 760.731 196.580 C 753.621 195.111, 732.647 194.575, 726 195.693 M 152.553 347.915 C 151.626 349.415, 134.489 417.735, 128.953 442 C 114.286 506.295, 105.400 559.486, 103.058 597 C 101.088 628.578, 104.882 703.705, 112.528 784.500 C 115.054 811.185, 124.006 891.240, 124.530 891.828 C 124.826 892.160, 210.263 882.119, 210.560 881.717 C 211.002 881.119, 257.003 750.080, 264.521 728 C 274.357 699.115, 282.802 677.424, 300.680 635.131 C 307.508 618.978, 312.822 605.488, 312.487 605.154 C 311.350 604.017, 223.531 566.172, 222.914 566.553 C 222.576 566.762, 217.620 578.003, 211.900 591.534 C 199.933 619.843, 199.843 619.849, 202.457 592.151 C 206.399 550.379, 218.892 486.847, 237.981 411.500 C 242.858 392.250, 247.140 375.753, 247.496 374.840 C 247.928 373.735, 247.536 372.997, 246.322 372.630 C 242.702 371.536, 153.813 347, 153.470 347 C 153.276 347, 152.864 347.412, 152.553 347.915 " stroke="none" fill="black" fill-rule="evenodd"/>
</svg>