<svg xmlns="http://www.w3.org/2000/svg" width="1000" height="1000" viewBox="0 0 1000 1000" version="1.1">
	<path d="M 823 116.633 C 800.841 123.007, 742.056 137.818, 710.789 144.905 C 623.944 164.589, 551.783 176.355, 488 181.231 C 466.377 182.884, 364.673 182.849, 332.500 181.177 C 276.201 178.251, 201.873 172.469, 159.528 167.721 C 157.659 167.512, 157.256 170.010, 151.819 215.500 C 148.664 241.900, 146.250 263.996, 146.454 264.603 C 146.657 265.210, 149.676 265.994, 153.162 266.346 C 232.987 274.410, 295.946 278.816, 362.500 280.997 C 453.169 283.968, 518.492 280.217, 598.944 267.417 C 618.775 264.262, 675.255 253.978, 681.868 252.318 C 683.751 251.846, 681.553 254.859, 672.631 264.979 C 603.246 343.688, 583.194 396.087, 605.849 439.497 C 610.912 449.199, 619.239 460.095, 628.599 469.264 C 643.380 483.744, 656.728 492.528, 691.964 510.968 C 732.798 532.336, 740.279 539.590, 745.231 562.618 C 748.098 575.951, 748.332 609.725, 745.676 626.790 C 736.504 685.727, 710.996 724.869, 671.923 739.964 C 649.094 748.784, 612.477 750.362, 580.500 743.905 C 534.524 734.620, 487.157 704.966, 453.304 664.272 L 448.123 658.045 451.040 650.052 C 469.780 598.703, 470.744 531.962, 453.862 454.582 C 446.225 419.580, 429.119 365.303, 425.827 365.633 C 424.163 365.800, 337.790 401.038, 336.703 401.994 C 336.264 402.379, 337.978 408.726, 340.512 416.097 C 351.231 447.279, 360.641 486.408, 364.537 516 C 366.787 533.085, 367.564 564.895, 366.080 579.119 C 362.866 609.909, 356.089 627.010, 333.237 662 C 301.845 710.066, 249.945 767.742, 194.742 815.911 C 185.028 824.386, 177.355 831.765, 177.690 832.307 C 178.268 833.243, 236.396 905.509, 238.086 907.394 C 239.309 908.757, 263.926 887.267, 296.517 856.386 C 327.194 827.319, 371.070 778.572, 392.569 749.672 L 394.500 747.076 406.598 758.333 C 452.833 801.350, 503.803 828.672, 559.618 840.358 C 581.542 844.948, 595.703 846.325, 621 846.325 C 647.315 846.325, 662.378 844.757, 681.841 839.991 C 772.043 817.906, 831.081 742.265, 844.569 631.500 C 846.890 612.439, 846.917 576.019, 844.624 559.112 C 838.953 517.312, 827.268 492.027, 802.056 467 C 784.940 450.009, 772.714 441.781, 736 422.541 C 714.653 411.354, 699.267 401.859, 698.267 399.254 C 697.200 396.474, 707.723 378.992, 721.057 361.391 C 739.280 337.336, 763.586 310.561, 798.143 276.475 C 826.758 248.249, 839.587 236.392, 871.156 208.991 C 883.995 197.848, 894.603 188.228, 894.729 187.615 C 894.995 186.316, 840.988 112.784, 839.500 112.420 C 838.950 112.285, 831.525 114.181, 823 116.633 " stroke="none" fill="black" fill-rule="evenodd"/>
</svg>