<svg xmlns="http://www.w3.org/2000/svg" width="1000" height="1000" viewBox="0 0 1000 1000" version="1.1">
	<path d="M 138.589 106.750 C 137.193 117.815, 126.590 251.931, 122.046 316 C 108.065 513.126, 103.165 650.894, 108.050 709.500 C 111.195 747.224, 121.482 784.696, 137.975 818.500 C 149.116 841.334, 159.264 856.101, 175.272 872.774 C 182.521 880.323, 188.912 886.612, 189.476 886.749 C 190.996 887.119, 264.917 880.416, 265.476 879.858 C 265.739 879.595, 266.210 866.582, 266.524 850.940 C 267.683 793.119, 270.367 767.904, 279.134 732.500 C 284.221 711.956, 298.404 665.487, 299.862 664.585 C 300.238 664.353, 305.485 681.260, 311.523 702.155 C 317.560 723.051, 322.785 740.619, 323.134 741.195 C 323.825 742.336, 336.392 738.464, 353.424 731.862 C 358.882 729.746, 363.482 728.149, 363.646 728.313 C 363.810 728.476, 358.781 732.592, 352.470 737.458 L 340.996 746.306 343.350 749.403 C 376.154 792.565, 388.231 814.926, 420.504 892.256 C 429.738 914.381, 433.778 922.992, 434.917 922.971 C 435.788 922.955, 455.625 917.443, 479 910.721 L 521.500 898.500 523.186 877 C 530.383 785.202, 536.427 684.328, 539.063 612 C 540.350 576.672, 538.665 582.570, 555.348 555 C 570.096 530.627, 583.746 509.327, 607.895 473 C 619.778 455.125, 629.500 439.971, 629.500 439.324 C 629.500 438.678, 616.225 429.061, 600 417.954 C 583.775 406.847, 565.723 394.466, 559.883 390.441 L 549.267 383.123 542.395 393.153 L 535.524 403.183 534.721 399.341 C 534.279 397.229, 534.049 393.756, 534.209 391.623 L 534.500 387.747 548.500 382.052 C 568.531 373.903, 602.433 356.345, 604.455 353.072 C 604.845 352.441, 555.351 277.396, 550.443 271.178 C 550.303 271.001, 548.422 271.971, 546.262 273.335 C 537.544 278.838, 522 286.035, 522 284.568 C 522 279.961, 500.399 123.908, 499.695 123.421 C 499.382 123.205, 404.613 137.963, 403.386 138.419 C 402.603 138.710, 403.130 144.587, 405.156 158.167 C 412.783 209.294, 424.290 296.044, 423.543 296.790 C 422.119 298.214, 380.355 284.609, 354.953 274.446 C 347.466 271.451, 340.882 269, 340.322 269 C 339.408 269, 299.324 356.600, 299.625 357.942 C 299.827 358.846, 333.492 372.317, 349.625 377.950 C 372.112 385.802, 399.535 393.432, 418.586 397.137 L 435.671 400.459 436.905 414.980 C 437.584 422.966, 438.810 437.600, 439.629 447.500 C 440.470 457.657, 441.366 484.792, 441.685 509.774 L 442.252 554.047 438.504 559.774 C 433.157 567.944, 414.303 586.221, 402 595.159 C 377.226 613.158, 344.798 630.017, 311.955 641.974 L 300.409 646.177 257.549 630.088 C 233.976 621.240, 214.196 614, 213.594 614 C 212.993 614, 210.925 618.587, 209 624.194 C 205.696 633.816, 205.481 634.166, 205.160 630.444 C 204.972 628.275, 205.323 610.075, 205.939 590 C 209.243 482.364, 218.481 337.141, 233.600 155.151 C 235.580 131.308, 236.818 111.458, 236.351 111.040 C 235.721 110.477, 143.773 101.842, 139.844 101.977 C 139.483 101.990, 138.918 104.138, 138.589 106.750 M 798.583 130.038 C 772.149 134.200, 745.091 147.734, 714 172.348 C 688.683 192.390, 631.939 240.511, 632.062 241.833 C 632.193 243.224, 695.654 314.500, 696.761 314.500 C 697.401 314.500, 707.761 306.084, 719.784 295.798 C 746.999 272.514, 773.242 250.909, 773.724 251.391 C 773.925 251.591, 771.645 257.998, 768.658 265.628 C 753.370 304.682, 730.051 352.171, 703.857 397.592 C 698.436 406.992, 694 415.283, 694 416.016 C 694 416.750, 696.248 424.204, 698.995 432.581 C 704.727 450.059, 708.823 467.061, 712.468 488.500 C 715.037 503.609, 718.058 525.275, 717.653 525.680 C 717.533 525.800, 712.975 526.864, 707.525 528.045 C 657.288 538.930, 616.463 560.286, 585.921 591.660 C 569.985 608.030, 561.433 621.377, 555.588 639 C 551.210 652.199, 550.017 659.601, 550.008 673.619 C 549.998 687.158, 551.996 699.225, 556.457 712.568 C 563.171 732.653, 572.142 748.765, 599.085 789.128 C 617.876 817.278, 631.220 835.183, 648.548 855.500 C 663.863 873.455, 714.924 925.243, 716.657 924.578 C 717.330 924.320, 731.367 912.612, 747.851 898.560 L 777.823 873.012 784.375 846.256 C 801.440 776.567, 814.925 696.448, 818.043 646.228 C 818.648 636.477, 819.373 626.526, 819.654 624.113 L 820.164 619.725 829.332 620.397 C 841.272 621.272, 862.690 624.387, 877.622 627.421 C 884.155 628.748, 889.567 629.759, 889.649 629.667 C 890.046 629.225, 914 536.513, 914 535.419 C 914 532.425, 860.002 523.301, 831.500 521.479 C 815.226 520.438, 816.386 521.077, 815.622 512.731 C 813.931 494.248, 808.342 461.211, 802.449 434.863 L 800.741 427.225 811.004 407.992 C 849.760 335.364, 877.946 263.901, 883.094 225.219 C 884.587 213.997, 883.734 191.350, 881.503 183 C 877.594 168.367, 868.851 154.443, 857.859 145.345 C 851.412 140.008, 838.733 133.588, 830.500 131.492 C 822.956 129.571, 806.354 128.815, 798.583 130.038 M 706.651 630.538 C 686.684 637.403, 669.814 647.259, 657.756 659.103 C 646.294 670.362, 645.953 674.728, 655.128 692.754 C 659.985 702.297, 699.697 763, 701.083 763 C 701.470 763, 702.253 760.413, 702.824 757.250 C 709.040 722.793, 711.417 708.664, 713.953 691.106 C 717.109 669.255, 720 641.142, 720 632.313 C 720 625.868, 720.169 625.890, 706.651 630.538 M 431.735 693.863 L 427.025 696.613 431.263 702.398 L 435.500 708.182 436.033 699.841 C 436.326 695.253, 436.539 691.413, 436.506 691.306 C 436.472 691.199, 434.326 692.350, 431.735 693.863 " stroke="none" fill="black" fill-rule="evenodd"/>
</svg>