<svg xmlns="http://www.w3.org/2000/svg" width="1000" height="1000" viewBox="0 0 1000 1000" version="1.1">
	<path d="M 562 54.736 C 562 55.284, 560.661 65.356, 559.023 77.117 C 551.398 131.896, 540.053 220.662, 533.539 276.500 C 530.921 298.939, 523 372.508, 523 374.379 C 523 374.511, 519.578 374.252, 515.396 373.804 C 493.611 371.470, 472.308 362.143, 460.042 349.570 C 457.590 347.057, 455.234 345, 454.807 345 C 454.380 345, 434.916 355.850, 411.553 369.110 L 369.075 393.221 372.925 398.860 C 399.814 438.249, 450.354 466.117, 505.768 472.111 L 517.036 473.330 516.768 496.227 L 516.500 519.125 505 523.903 C 466.976 539.702, 429.268 562.761, 395.500 590.864 C 382.435 601.737, 354.847 629.753, 344.653 642.500 C 314.654 680.014, 298.391 716.523, 295.212 753.500 C 294.512 761.634, 294.370 760.272, 293.733 739.346 C 293.346 726.611, 293.301 709.736, 293.634 701.846 L 294.239 687.500 305.972 669.500 C 331.834 629.828, 352.407 592.975, 383.688 530.292 C 396.645 504.327, 407.019 482.502, 406.742 481.792 C 406.280 480.608, 320.487 440.994, 318.408 441.005 C 317.909 441.007, 313.798 448.544, 309.274 457.755 C 302.725 471.087, 301.138 473.685, 301.491 470.500 C 301.735 468.300, 302.233 455.398, 302.597 441.829 L 303.258 417.158 311.879 416.555 C 329.948 415.290, 359.677 412.852, 363.773 412.299 C 367.067 411.854, 367.946 411.353, 367.608 410.111 C 367.366 409.225, 364.580 387.350, 361.417 361.500 C 358.254 335.650, 355.569 314.365, 355.450 314.201 C 355.332 314.037, 347.420 314.596, 337.868 315.444 C 328.315 316.292, 317.575 317.230, 314 317.529 L 307.500 318.072 307.428 255.786 C 307.389 221.529, 306.825 180.450, 306.176 164.500 C 304.181 115.458, 302.794 89.526, 302.133 88.921 C 301.615 88.448, 205.026 93.916, 204.270 94.462 C 204.143 94.553, 204.692 107.874, 205.490 124.064 C 208.546 186.080, 210.123 284.465, 208.359 303.137 L 207.732 309.773 190.616 305.346 C 181.202 302.911, 164.500 298.171, 153.500 294.814 C 142.500 291.457, 132.646 288.663, 131.603 288.605 C 129.971 288.515, 127.552 294.950, 114.353 334.492 C 105.909 359.787, 99 380.732, 99 381.035 C 99 381.339, 100.688 382.072, 102.750 382.665 C 104.813 383.257, 116.175 386.659, 128 390.225 C 139.825 393.790, 155.125 398.201, 162 400.028 C 168.875 401.854, 174.623 403.431, 174.774 403.532 C 174.925 403.633, 169.584 415.142, 162.906 429.108 C 118.817 521.304, 96.779 578.779, 89.135 621.500 C 79.966 672.744, 78.414 726.056, 85.118 759.500 C 87.337 770.569, 104.732 822, 106.257 822 C 106.787 822, 118.083 818.149, 131.360 813.442 C 155.656 804.829, 178.074 794.711, 189.864 787.038 C 193.365 784.760, 196.329 783.032, 196.451 783.198 C 196.573 783.364, 197.217 793.625, 197.883 806 C 200.164 848.408, 205.241 912.575, 206.408 913.741 C 207.023 914.356, 303 906.231, 303.810 905.495 C 303.980 905.340, 303.201 894.028, 302.077 880.357 C 299.804 852.694, 296.383 801.680, 295.617 784 C 295.212 774.656, 295.292 773.609, 296.044 778.415 C 303.700 827.342, 340.041 861.742, 394.500 871.613 C 401.994 872.972, 409.637 873.432, 425 873.450 C 443.719 873.472, 446.456 873.246, 456.500 870.847 C 480.182 865.193, 508.015 852.186, 534.284 834.495 L 539.411 831.042 544.872 845.771 C 547.876 853.872, 550.429 860.633, 550.546 860.796 C 551.489 862.110, 620.883 887, 623.603 887 C 624.298 887, 631.024 878.853, 638.552 868.896 C 660.892 839.342, 679.954 817.447, 708.418 788.647 C 716.492 780.478, 722.963 773.429, 722.799 772.982 C 722.635 772.535, 712.141 761.219, 699.479 747.835 C 686.818 734.451, 674.067 720.941, 671.144 717.813 L 665.829 712.126 676.257 699.313 C 689.494 683.047, 703.058 664.826, 713.339 649.500 C 722.106 636.430, 737 612.065, 737 610.793 C 737 609.022, 740.943 610.271, 749 614.594 C 784.114 633.433, 808.008 660.844, 816.473 692 C 818.767 700.439, 819.622 723.231, 818.060 734.259 C 815.052 755.492, 806.231 777.367, 793.953 794.040 C 765.932 832.092, 710.369 863.208, 644.500 877.736 C 641.943 878.300, 640.561 879.138, 640.668 880.059 C 640.761 880.852, 644.133 902.784, 648.162 928.797 L 655.487 976.093 659.494 975.429 C 667.557 974.092, 694.846 967.004, 707.500 962.961 C 753.423 948.287, 798.115 924.765, 829.332 898.841 C 840.079 889.916, 858.255 871.656, 866.502 861.500 C 888.801 834.039, 904.767 801.127, 912.410 766.869 C 920.091 732.438, 919.741 696.194, 911.427 665.263 C 895.144 604.682, 847.476 550.989, 784.185 521.938 C 778.512 519.334, 773.705 517.039, 773.504 516.837 C 773.302 516.636, 773.778 512.202, 774.562 506.985 C 777.296 488.773, 776.031 459.816, 771.898 446 C 770 439.657, 766.781 432, 766.013 432 C 765.598 432, 745.773 441.915, 721.958 454.033 C 689.169 470.717, 678.443 475.754, 677.769 474.783 C 677.218 473.989, 677.124 474.746, 677.523 476.769 C 677.877 478.567, 677.862 483.292, 677.489 487.269 L 676.811 494.500 649.155 494.530 C 633.945 494.546, 620.263 494.892, 618.750 495.299 L 616 496.038 616 479.090 L 616 462.142 621.750 460.522 C 676.417 445.126, 746.695 411.983, 799.210 376.832 L 807.920 371.002 781.150 332.751 C 766.426 311.713, 754.035 293.925, 753.614 293.223 C 753.124 292.405, 754.618 290.011, 757.766 286.565 C 785.861 255.825, 804.186 211.207, 809.953 159.500 C 810.967 150.403, 811.543 129.209, 810.795 128.462 C 810.263 127.929, 714.172 131.487, 713.634 132.059 C 713.406 132.302, 712.695 138.125, 712.054 145 C 709.208 175.541, 700.621 200.279, 686.852 217.606 C 681.190 224.730, 666.825 238.171, 655.824 246.636 C 645.700 254.425, 635.536 261.108, 635.226 260.177 C 634.750 258.750, 651.353 129.184, 658.441 79.011 C 659.256 73.243, 659.603 68.244, 659.211 67.903 C 658.820 67.563, 638.250 64.469, 613.500 61.029 C 588.750 57.589, 567.038 54.542, 565.250 54.257 C 563.409 53.963, 562 54.171, 562 54.736 M 399.665 139.750 C 399.416 140.162, 398.389 145, 397.383 150.500 C 395.976 158.189, 395.547 165.583, 395.527 182.500 C 395.497 207.376, 397.161 218.544, 403.712 237.434 C 412.273 262.120, 428.550 285.741, 450.399 305.187 C 459.425 313.221, 479.837 328, 481.906 328 C 482.763 328, 529 243.826, 529 242.265 C 529 241.752, 526.511 239.618, 523.470 237.524 C 515.827 232.260, 504.080 219.504, 500.239 212.297 C 495.070 202.598, 493.720 194.825, 494.241 177.747 L 494.691 162.994 491.096 162.055 C 456.354 152.978, 401.762 139, 401.051 139 C 400.538 139, 399.914 139.338, 399.665 139.750 M 624.760 349.250 C 624.496 352.688, 624.329 355.553, 624.390 355.617 C 624.450 355.681, 625.906 355.231, 627.624 354.617 L 630.748 353.500 628.740 348.250 C 627.636 345.363, 626.397 343, 625.986 343 C 625.576 343, 625.024 345.813, 624.760 349.250 M 618.750 594.716 C 616.033 595.128, 616.001 595.218, 616.100 602.316 C 616.282 615.460, 616.638 615.586, 624.022 605.131 C 627.585 600.086, 630.650 595.518, 630.833 594.979 C 631.161 594.018, 624.342 593.869, 618.750 594.716 M 193.709 609.748 C 188.685 626.060, 187.449 631.442, 185.038 647.500 C 183.882 655.200, 182.733 662.850, 182.484 664.500 C 182.066 667.281, 182.543 666.971, 189.016 660.256 C 195.110 653.936, 196.003 652.534, 196.025 649.256 C 196.038 647.190, 196.475 634.949, 196.995 622.053 C 197.515 609.158, 197.803 598.469, 197.634 598.301 C 197.466 598.133, 195.700 603.284, 193.709 609.748 M 509.967 631.138 C 491.639 641.049, 466.438 659.348, 448.742 675.595 C 416.678 705.033, 394 740.352, 394 760.854 C 394 766.099, 394.322 767.108, 396.557 768.866 C 401.952 773.110, 408.600 774.500, 423.500 774.500 C 437.408 774.500, 437.557 774.476, 446.095 770.819 C 466.714 761.989, 498.101 740.767, 518.022 722.188 L 523.049 717.500 521.549 695 C 520.724 682.625, 519.582 662.407, 519.013 650.071 C 518.443 637.736, 517.854 627.521, 517.705 627.372 C 517.556 627.223, 514.074 628.917, 509.967 631.138 " stroke="none" fill="black" fill-rule="evenodd"/>
</svg>