<svg xmlns="http://www.w3.org/2000/svg" width="1000" height="1000" viewBox="0 0 1000 1000" version="1.1">
	<path d="M 631 82.464 C 595.019 90.234, 583.553 93.059, 583.718 94.111 C 583.838 94.875, 585.749 105.175, 587.964 117 C 595.540 157.447, 602.503 207.791, 605.342 242.648 L 606.590 257.972 597.045 261.124 C 573.110 269.027, 534.425 285.268, 507.817 298.582 C 452.510 326.258, 393.418 364.464, 345.081 403.800 C 339.351 408.463, 334.115 412.328, 333.447 412.389 C 332.044 412.517, 314.992 391.023, 307.802 380.063 C 302.063 371.315, 302.072 371.018, 308.426 357.500 C 321.488 329.709, 352.949 287.864, 394.259 243.338 L 408.326 228.175 419.567 200.095 L 430.807 172.016 412.154 162.378 C 401.894 157.078, 392.494 152.118, 391.265 151.357 C 387.204 148.843, 367.694 141.251, 355.779 137.549 C 320.690 126.646, 272.521 120.886, 241.500 123.885 C 202.395 127.665, 150.025 142.894, 105.785 163.350 L 98.070 166.917 118.634 208.709 C 129.944 231.694, 139.689 251.543, 140.290 252.817 C 141.585 255.564, 140.505 255.844, 159 247.966 C 175.476 240.948, 200.705 232.287, 215.548 228.553 C 235.153 223.622, 248.932 221.827, 264.497 222.177 C 272.385 222.355, 279.121 222.783, 279.465 223.129 C 279.809 223.475, 274.876 230.450, 268.501 238.629 C 254.878 256.110, 237.816 281.062, 228.998 296.400 C 213.001 324.228, 205.385 346.487, 204.312 368.553 C 202.866 398.293, 212.160 419.305, 245.690 462.100 C 252.843 471.229, 258.981 479.160, 259.329 479.723 C 259.677 480.286, 254.871 486.170, 248.649 492.798 C 167.537 579.212, 114.940 666.086, 100.472 737.542 C 93.257 773.175, 95.428 806.537, 107.118 839.680 C 127.263 896.797, 178.589 925.061, 235.870 910.581 C 300.705 894.191, 365.647 827.356, 398.422 743.288 C 418.885 690.804, 425.223 633.196, 416.388 580 C 412.605 557.226, 403.605 528.885, 392.980 506.294 L 388.181 496.088 400.840 485.709 C 448.726 446.448, 498.604 413.817, 550 388.125 C 573.505 376.376, 599.934 364.600, 600.817 365.483 C 601.075 365.741, 599.359 371.476, 597.004 378.226 C 587.543 405.348, 574.096 433.892, 562.616 451.221 L 556.469 460.500 548.985 461.262 C 544.868 461.681, 530.025 462.085, 516 462.160 C 490.945 462.293, 474.490 461.223, 458.569 458.424 C 454.206 457.657, 450.473 457.193, 450.273 457.393 C 450.073 457.594, 444.132 478.849, 437.070 504.629 C 428.199 537.014, 424.582 551.699, 425.365 552.145 C 429.026 554.226, 457.844 558.494, 479 560.089 C 498.557 561.563, 549.744 560.712, 571 558.559 C 595.152 556.113, 629.097 549.848, 647.432 544.451 C 650.144 543.653, 652.592 543, 652.872 543 C 653.152 543, 638.546 557.962, 620.413 576.250 C 602.280 594.538, 583.338 614, 578.318 619.500 C 562.849 636.451, 400.974 825.423, 401.245 826.215 C 401.721 827.604, 475.196 889.997, 475.850 889.567 C 476.208 889.332, 503.275 857.862, 536 819.635 C 568.725 781.407, 596.139 749.861, 596.920 749.531 C 597.701 749.202, 598.651 749.435, 599.030 750.049 C 600.812 752.931, 602.316 770.945, 602.880 796.167 C 603.221 811.385, 603.842 824.177, 604.260 824.594 C 605.078 825.411, 685.640 829.352, 687.436 828.663 C 688.030 828.435, 692.520 820.880, 697.413 811.874 C 712.182 784.695, 725.830 765.965, 743.775 748.252 C 761.984 730.278, 782.100 719.047, 796.145 719.013 C 807.207 718.987, 821.887 725.486, 825.998 732.229 C 833.076 743.838, 819.601 769.973, 793.983 794.324 C 772.675 814.579, 746.009 832.287, 708.500 851.095 C 695.300 857.713, 684.500 863.453, 684.500 863.850 C 684.500 865.456, 723.557 952.988, 724.276 952.994 C 724.703 952.997, 733.780 948.776, 744.449 943.613 C 817.147 908.430, 868.781 867.937, 899.329 822.151 C 943.734 755.597, 933.104 682.723, 873.242 643.301 C 858.284 633.451, 838.971 625.736, 820.758 622.336 C 807.165 619.798, 783.651 620.033, 770.396 622.839 C 738.953 629.496, 708.067 646.297, 681.386 671.255 L 674.895 677.328 671.697 673.449 C 669.939 671.316, 668.500 669.264, 668.500 668.889 C 668.500 664.018, 826.275 512.906, 903.371 443.937 C 904.118 443.269, 860.833 370.860, 857.483 367.175 C 856.498 366.091, 851.662 367.759, 830.889 376.347 C 802.108 388.247, 778.948 397.284, 748.500 408.496 C 725.136 417.100, 683.837 431.170, 683.357 430.690 C 683.187 430.520, 683.988 427.933, 685.138 424.940 C 696.804 394.577, 702.224 372.759, 704.977 345.076 C 705.547 339.343, 706.123 334.553, 706.257 334.431 C 706.967 333.784, 738.361 329.895, 749.950 329.018 C 773.299 327.251, 804.752 328.110, 823.441 331.024 C 826.709 331.534, 829.486 331.847, 829.613 331.721 C 830.156 331.177, 844.128 234.795, 843.722 234.389 C 842.809 233.476, 819.933 231.084, 801.500 229.973 C 775.683 228.418, 732.834 230.265, 710 233.918 C 706.975 234.402, 704.393 234.700, 704.263 234.579 C 704.133 234.458, 703.107 225.616, 701.983 214.930 C 697.981 176.865, 691.121 130.382, 683.916 92.500 C 680.243 73.186, 679.959 71.972, 679.142 72.103 C 678.789 72.159, 657.125 76.822, 631 82.464 M 302.344 580.250 C 238.600 652.773, 197.571 726.266, 195.296 772 C 194.511 787.773, 198.533 807.497, 203.881 814.101 C 205.561 816.176, 205.915 816.221, 211.074 815.003 C 239.292 808.341, 276.348 770.612, 297.999 726.500 C 319.269 683.164, 326.751 634.229, 318.404 593.049 C 316.248 582.414, 312.810 570, 312.020 570 C 311.653 570, 307.299 574.612, 302.344 580.250 " stroke="none" fill="black" fill-rule="evenodd"/>
</svg>