<svg xmlns="http://www.w3.org/2000/svg" width="1000" height="1000" viewBox="0 0 1000 1000" version="1.1">
	<path d="M 590 56.462 C 582.474 57.708, 567.636 62.030, 566.302 63.365 C 566.030 63.637, 574.738 84.139, 585.654 108.925 C 602.886 148.055, 605.781 153.991, 607.635 153.995 C 610.496 154.002, 612.467 157.270, 615.923 167.738 C 618.758 176.321, 623.741 199.600, 622.917 200.408 C 622.037 201.271, 553.090 206.892, 511.907 209.459 C 481.840 211.333, 425.199 213.533, 424.519 212.853 C 424.035 212.369, 428.360 188.903, 437.935 140.055 C 440.139 128.810, 441.843 119.536, 441.721 119.447 C 441.173 119.046, 348.226 100, 346.817 100 C 345.527 100, 343.730 107.671, 337.151 141.250 C 332.706 163.938, 327.879 188.912, 326.424 196.750 C 324.583 206.667, 323.372 211, 322.441 211 C 321.705 211, 315.792 210.306, 309.301 209.457 C 274.402 204.894, 231.687 191.725, 194.439 174.047 L 182.378 168.322 158.439 210.212 C 145.273 233.251, 134.364 252.486, 134.198 252.956 C 133.546 254.804, 162.839 268.853, 187.500 278.519 C 223.757 292.730, 268.932 304.581, 298.322 307.592 C 301.882 307.957, 305.228 308.535, 305.757 308.878 C 306.346 309.259, 304.682 322.678, 301.462 343.500 C 292.434 401.892, 281.038 490.625, 280.985 502.948 C 280.958 509.129, 280.881 509.152, 265.946 507.450 C 250.607 505.701, 219.956 501.091, 218.761 500.352 C 217.557 499.608, 221.367 494.738, 231.190 484.463 L 240.057 475.188 207.851 438.594 C 190.138 418.467, 175.236 402, 174.736 402 C 173.147 402, 161.087 414.104, 150.823 426 C 126.830 453.809, 113.833 479.260, 111.008 503.969 C 109.144 520.273, 113.006 538.943, 121.077 552.642 C 125.934 560.886, 140.993 575.739, 149.576 580.751 C 168.086 591.559, 193.327 597.818, 243.473 604.038 C 256.688 605.676, 269.325 607.253, 271.556 607.541 L 275.612 608.064 276.815 642.782 C 278.529 692.270, 281.232 729.721, 286.574 778 C 289.022 800.128, 297.525 861.744, 298.626 865.335 C 299.017 866.610, 299.847 867.018, 301.344 866.673 C 302.530 866.399, 324.200 862.475, 349.500 857.952 C 374.800 853.428, 395.610 849.641, 395.745 849.535 C 395.880 849.429, 394.655 840.603, 393.022 829.921 C 387.057 790.908, 381.659 742.248, 378.498 699 C 376.822 676.069, 374.364 616.303, 375.068 615.598 C 375.318 615.348, 382.943 615.532, 392.011 616.007 C 435.868 618.302, 483.660 619.346, 548.206 619.420 C 618.367 619.499, 618.908 619.515, 618.482 621.500 C 618.245 622.600, 617.124 628.900, 615.990 635.500 C 607.141 686.992, 589.010 743.565, 564.488 796.201 C 551.720 823.608, 533.519 856.565, 520.839 875.237 C 517.458 880.216, 517.009 881.422, 518.141 882.476 C 520.409 884.589, 594.215 938.145, 595.580 938.669 C 598.064 939.622, 619.126 905.810, 636.891 872.348 C 677.630 795.611, 704.771 712.967, 717.499 626.899 L 719.215 615.297 731.956 614.652 C 773.800 612.535, 830.320 606.661, 869.822 600.325 C 885.316 597.840, 886.118 597.600, 885.638 595.603 C 885.360 594.447, 881.443 573.025, 876.933 548 C 872.423 522.975, 868.362 502.091, 867.908 501.592 C 867.419 501.052, 861.685 501.557, 853.792 502.835 C 826.143 507.311, 788.715 511.516, 750 514.498 C 739.275 515.324, 730.268 516, 729.984 516 C 729.700 516, 729.762 511.613, 730.122 506.250 C 732.583 469.587, 733.451 439.430, 733.474 389.836 C 733.494 346.547, 733.768 334.394, 734.704 335.171 C 735.367 335.720, 742.556 343.556, 750.682 352.585 C 758.807 361.613, 765.690 368.998, 765.977 368.995 C 766.383 368.990, 843.619 299.220, 865.859 278.767 L 870.217 274.759 858.983 243.629 C 852.804 226.508, 845.746 207.026, 843.299 200.336 L 838.849 188.172 827.675 188.586 C 821.529 188.813, 798.725 189.453, 777 190.008 C 755.275 190.563, 734.041 191.283, 729.814 191.607 L 722.128 192.197 721.463 188.348 C 718.527 171.354, 714.302 151.726, 711.401 141.600 C 707.302 127.297, 697.421 106.626, 689.985 96.799 C 675.374 77.491, 656.562 64.396, 634.934 58.479 C 623.018 55.218, 602.947 54.318, 590 56.462 M 620.500 300.108 C 569.243 305.506, 460.730 311.978, 421.219 311.994 C 410.712 311.998, 406.815 312.330, 406.474 313.250 C 406.220 313.938, 404.188 325.975, 401.960 340 C 389.848 416.246, 377.464 513.995, 379.665 515.985 C 380.697 516.917, 421.100 518.646, 476 520.106 C 517.814 521.218, 628.289 521.044, 629.468 519.865 C 630.428 518.905, 632.727 483.311, 634.078 448.500 C 635.268 417.807, 634.774 315.816, 633.379 304.250 C 632.663 298.319, 633.855 298.702, 620.500 300.108 " stroke="none" fill="black" fill-rule="evenodd"/>
</svg>