<svg xmlns="http://www.w3.org/2000/svg" width="1000" height="1000" viewBox="0 0 1000 1000" version="1.1">
	<path d="M 575.500 56.126 C 548.367 67.948, 516.301 77.348, 489 81.481 C 474.072 83.741, 447.793 84.507, 434.500 83.070 C 413.184 80.765, 394.391 75.514, 380.079 67.864 C 372.962 64.061, 372.588 63.972, 370.961 65.699 C 370.028 66.690, 355.836 83.652, 339.423 103.394 L 309.582 139.288 313.041 142.189 C 329.072 155.634, 365.815 170.936, 396.519 176.954 C 402.559 178.137, 408.515 179.316, 409.756 179.574 L 412.013 180.041 409.628 184.771 C 404.104 195.728, 396.456 214.554, 391.457 229.500 L 386.105 245.500 375.303 245.199 C 351.413 244.533, 317.340 240.981, 281.713 235.443 C 268.946 233.458, 257.385 231.759, 256.023 231.667 L 253.546 231.500 244.431 279.500 C 239.417 305.900, 235.426 327.644, 235.562 327.821 C 236.052 328.459, 272.017 334.105, 294 336.994 C 316.736 339.982, 340.560 342.356, 360.250 343.596 L 371 344.273 371 359.904 C 371 388.182, 373.653 419.625, 378.671 450.839 C 380.276 460.820, 381.783 467.363, 382.544 467.655 C 383.673 468.089, 476.475 450.442, 477.990 449.506 C 478.344 449.287, 477.637 443.346, 476.417 436.304 C 471.816 409.729, 470.604 394.968, 470.551 364.836 C 470.523 349.071, 470.836 335.836, 471.246 335.424 C 472.162 334.504, 524.251 324.918, 524.885 325.552 C 525.135 325.802, 524.107 331.967, 522.601 339.253 C 519.281 355.309, 510.510 382.195, 501.969 402.500 C 492.488 425.037, 470.325 467.951, 466.718 470.755 C 465.525 471.682, 446.058 475.235, 401 482.748 C 379.161 486.390, 377.766 486.500, 353.500 486.483 C 325.563 486.465, 311.300 484.842, 282.647 478.421 C 274.349 476.561, 267.285 475.368, 266.949 475.770 C 266.613 476.171, 260.576 496.975, 253.533 522 C 246.490 547.025, 240.533 568.017, 240.295 568.650 C 239.763 570.065, 263.366 575.862, 284 579.384 C 314.568 584.600, 324.796 585.471, 355 585.427 C 382.894 585.387, 384.010 585.306, 407.500 581.638 C 420.700 579.577, 432.625 577.636, 434 577.325 C 435.375 577.014, 424.350 584.853, 409.500 594.744 C 394.650 604.635, 378.659 615.424, 373.964 618.718 L 365.428 624.708 361.964 622.326 C 356.255 618.400, 339.794 610.240, 331.379 607.167 C 320.960 603.360, 309.046 600.525, 308.092 601.624 C 307.675 602.106, 304.972 618.025, 302.086 637 C 299.200 655.975, 296.537 672.682, 296.169 674.126 C 295.704 675.951, 290.930 680.354, 280.500 688.576 C 230.962 727.628, 158.341 789.308, 101.260 840.813 L 82.020 858.174 99.260 876.841 C 108.742 887.108, 123.655 903.269, 132.401 912.754 C 141.146 922.239, 148.621 930, 149.011 930 C 149.401 930, 157.545 922.944, 167.110 914.320 C 210.001 875.646, 262.584 830.404, 306.459 794.425 L 328.500 776.351 329.133 782.425 C 329.481 785.766, 329.820 794.125, 329.885 801 C 330.015 814.619, 331.504 844.497, 333 863.500 C 334.042 876.730, 341.157 940.255, 341.671 940.914 C 341.849 941.141, 359.323 939.812, 380.502 937.961 L 419.011 934.595 430.411 919.047 C 454.697 885.927, 479.098 857.786, 512.515 824.362 L 538.647 798.224 506.244 761.586 L 473.841 724.947 469.128 728.892 C 466.537 731.062, 456.285 740.733, 446.346 750.383 L 428.275 767.929 427.713 748.714 C 427.202 731.242, 425.666 718.242, 423.031 709.092 C 421.851 704.998, 418.675 707.649, 450.500 686.159 C 485.868 662.276, 543.242 626, 545.648 626 C 546.169 626, 558.188 641.065, 572.356 659.477 C 586.524 677.889, 598.513 693.199, 598.997 693.498 C 599.482 693.798, 603.296 691.723, 607.473 688.889 C 611.651 686.055, 615.307 683.973, 615.597 684.264 C 615.888 684.554, 615.422 693.521, 614.563 704.191 C 612.498 729.816, 612.521 755.857, 614.618 768.074 C 621.265 806.802, 646.096 834.010, 683.500 843.548 C 689 844.951, 697.228 846.369, 701.784 846.700 C 706.341 847.031, 710.264 847.618, 710.503 848.004 C 711.865 850.208, 625.061 857.825, 582 859.280 L 575.500 859.500 575.628 869.346 C 575.699 874.761, 576.090 896.990, 576.498 918.744 L 577.240 958.296 594.370 957.616 C 641.548 955.742, 698.062 950.545, 738 944.409 C 825.408 930.980, 876.693 910.705, 901.413 879.809 C 913.437 864.781, 919.032 849.315, 919.071 831 C 919.127 804.620, 908.880 780.418, 890.255 762.941 C 870.808 744.691, 847.325 737.215, 813 738.344 C 797.588 738.851, 790.274 739.737, 750 745.971 C 742.575 747.120, 730.999 748.340, 724.276 748.681 C 713.076 749.250, 711.995 749.150, 711.358 747.492 C 710.977 746.497, 711.651 731.691, 712.858 714.591 C 716.943 656.682, 715.213 636.079, 704.422 614.160 C 696.286 597.635, 681.159 584.360, 663.880 578.585 C 656.314 576.056, 638.067 573.376, 635.395 574.402 C 631.201 576.011, 635.961 573.167, 653.250 563.734 C 676.261 551.179, 711.978 532.430, 728.250 524.365 L 740 518.540 740 476.158 L 740 433.776 704.750 434.267 C 664.319 434.829, 644.223 436.882, 601.250 444.837 C 595.612 445.880, 591 446.444, 591 446.088 C 591 444.127, 597.037 431.559, 598.325 430.838 C 599.163 430.369, 604.495 428.374, 610.174 426.404 C 676.796 403.297, 726.013 375.082, 749.558 346.500 C 756.941 337.537, 765.058 322.108, 767.709 312 C 770.059 303.034, 770.010 283.780, 767.615 275.058 C 760.701 249.884, 743.130 230.790, 717.407 220.500 C 699.326 213.266, 680.496 210.761, 647.399 211.186 L 622.995 211.500 622.518 208.500 C 617.950 179.737, 612.673 152.405, 611.440 151.122 C 611.240 150.914, 608.980 151.271, 606.417 151.917 C 603.854 152.562, 601.606 152.940, 601.422 152.756 C 601.239 152.572, 606.243 150.266, 612.544 147.632 C 618.845 144.998, 623.973 142.315, 623.940 141.671 C 623.829 139.512, 584.513 53.662, 583.500 53.367 C 582.950 53.207, 579.350 54.448, 575.500 56.126 M 505.026 178.786 L 495.553 180.296 505.821 190.116 L 516.090 199.935 510.689 207.718 C 502.357 219.721, 497.462 229, 499.461 229 C 501.513 229, 524.380 224.934, 524.837 224.488 C 525.238 224.096, 519.543 190.844, 517.745 183.082 C 517.054 180.101, 516.042 177.576, 515.495 177.470 C 514.948 177.363, 510.237 177.956, 505.026 178.786 M 626.459 311.067 C 625.234 313.049, 627.002 313.362, 630.260 311.741 L 633.500 310.128 630.309 310.064 C 628.554 310.029, 626.821 310.480, 626.459 311.067 " stroke="none" fill="black" fill-rule="evenodd"/>
</svg>