<svg xmlns="http://www.w3.org/2000/svg" width="1000" height="1000" viewBox="0 0 1000 1000" version="1.1">
	<path d="M 490.500 91.596 C 464.650 97.294, 443.329 101.966, 443.119 101.978 C 442.664 102.004, 442.454 100.782, 449.477 139 C 462.221 208.348, 468.983 269.387, 468.995 315.167 L 469 332.834 446.233 349.762 C 391.234 390.655, 332.576 431.280, 276.637 467.221 L 263.064 475.942 272.636 503.721 C 277.900 518.999, 283.535 535.388, 285.157 540.141 L 288.106 548.782 309.803 549.529 C 351.843 550.976, 388.310 549.105, 429.929 543.366 C 440.693 541.881, 450.604 540.629, 451.952 540.583 C 454.314 540.503, 454.704 541.528, 462.452 568.184 C 466.879 583.409, 470.729 596.088, 471.009 596.359 C 471.289 596.630, 481.189 594.870, 493.009 592.450 C 504.829 590.029, 514.591 588.038, 514.703 588.024 C 515.644 587.912, 516.990 597.038, 516.994 603.564 C 516.999 609.739, 516.184 614.543, 513.517 624.064 L 510.034 636.500 512.847 640.500 C 514.395 642.700, 523.600 656.032, 533.303 670.127 L 550.945 695.754 569.723 690.351 C 600.901 681.380, 621.055 678, 643.373 678 C 659.724 678, 674.476 681.219, 677.235 685.390 C 677.639 686, 677.976 688.805, 677.985 691.623 C 677.999 696.379, 677.696 697.025, 673.750 700.648 C 668.126 705.812, 664.043 708.242, 654.722 711.975 C 627.804 722.753, 588.256 727.775, 539 726.669 C 500.538 725.805, 463.437 721.912, 422.969 714.494 C 412.484 712.572, 403.140 711.001, 402.203 711.001 C 400.760 711.003, 399.005 718.275, 390.712 758.630 C 385.329 784.826, 381.141 806.475, 381.406 806.739 C 382.926 808.259, 428.346 815.992, 456 819.439 C 546.949 830.775, 624.392 826.761, 680.500 807.803 C 693.692 803.346, 714.561 793.095, 724.998 785.947 C 756.626 764.285, 774.772 733.553, 776.685 698.414 C 779.156 653.018, 757.326 614.287, 718.160 594.578 C 707.789 589.359, 692.285 584.384, 678.398 581.819 C 668.112 579.919, 662.964 579.619, 640.393 579.606 L 614.286 579.591 613.005 573.046 C 608.826 551.692, 597.334 530.221, 582.586 516.212 L 575.388 509.374 602.944 500.138 C 647.488 485.208, 698.906 465.802, 730 452.185 C 748.866 443.923, 791.399 423.304, 791.750 422.250 C 791.929 421.712, 786.035 405.593, 778.652 386.431 L 765.228 351.591 753.405 346.186 C 732.535 336.644, 713.267 323.942, 699.666 310.760 C 694.670 305.918, 691.272 303.331, 690.590 303.850 C 689.991 304.306, 672.480 317.855, 651.678 333.960 L 613.857 363.241 616.657 366.370 C 618.197 368.092, 622.592 372.749, 626.424 376.721 C 630.257 380.692, 633.146 384.187, 632.846 384.487 C 631.221 386.113, 564.184 409.517, 563.400 408.733 C 563.094 408.428, 563.260 402.653, 563.769 395.900 L 564.693 383.623 571.597 377.588 C 627.932 328.334, 673.383 260.528, 702.698 182 C 707.851 168.196, 715.241 144.908, 714.655 144.322 C 714.045 143.712, 620.550 120.983, 619.749 121.250 C 619.275 121.408, 616.732 128.054, 614.098 136.019 C 603.680 167.529, 589.374 197.819, 571.211 226.823 C 567.656 232.501, 564.418 236.776, 564.016 236.323 C 563.615 235.871, 562.751 230.325, 562.096 224 C 558.963 193.715, 552.237 150.029, 544.391 109 C 539.203 81.871, 538.999 80.960, 538.142 81.118 C 537.789 81.182, 516.350 85.897, 490.500 91.596 M 307.615 194.750 C 301.939 218.686, 302.472 248.154, 309.012 272 C 318.255 305.701, 339.381 335.979, 368.954 357.906 C 378.536 365.010, 390.636 372.288, 392.070 371.810 C 392.612 371.629, 403.539 352.361, 416.352 328.992 L 439.649 286.502 432.081 281.534 C 422.410 275.185, 413.311 265.944, 409.314 258.412 C 404.018 248.430, 402.549 241.919, 402.631 228.779 L 402.703 217.057 399.602 216.091 C 392.386 213.844, 316.249 189.814, 313.601 188.948 C 312.006 188.427, 310.367 188, 309.958 188 C 309.550 188, 308.495 191.037, 307.615 194.750 M 183.574 664.250 C 180.387 669.124, 171.630 691.123, 168.352 702.496 C 162.603 722.437, 160.764 735.085, 160.717 755 C 160.653 781.929, 164.458 799.091, 175.497 821.664 C 196.917 865.464, 239.377 897.069, 300.149 914.448 C 355.917 930.396, 437.382 937.161, 546.500 934.904 C 624.156 933.298, 712.084 927.155, 795.954 917.476 C 807.754 916.114, 817.766 915, 818.204 915 C 818.642 915, 819 913.893, 819 912.540 C 819 909.440, 807.059 817.726, 806.595 817.262 C 806.407 817.074, 794.159 818.274, 779.377 819.930 C 579.466 842.320, 403.842 842.124, 327 819.425 C 265.334 801.210, 247.271 771.742, 266.456 720.659 C 268.489 715.247, 270.005 710.685, 269.826 710.521 C 269.223 709.971, 185.751 662, 185.396 662 C 185.204 662, 184.384 663.013, 183.574 664.250 " stroke="none" fill="black" fill-rule="evenodd"/>
</svg>