<svg xmlns="http://www.w3.org/2000/svg" width="1000" height="1000" viewBox="0 0 1000 1000" version="1.1">
	<path d="M 277.547 89.924 C 276.498 91.621, 249.988 183.322, 250.421 183.755 C 251.073 184.406, 271.224 189.330, 286 192.447 C 314.990 198.564, 350.601 203.675, 384.193 206.538 C 408.717 208.629, 462.890 209.485, 485.954 208.146 C 496.103 207.556, 504.572 207.239, 504.773 207.440 C 504.975 207.641, 423.771 308.214, 324.320 430.935 C 224.869 553.656, 143.410 654.612, 143.300 655.282 C 143.121 656.367, 206.918 710.408, 212.509 713.908 C 214.652 715.250, 215.809 714.446, 237.151 696.778 C 327.126 622.291, 428.355 554.493, 508.500 515.044 C 556.016 491.656, 592.248 478.601, 626.500 472.528 C 637.161 470.638, 658.131 469.427, 663.327 470.402 C 666.683 471.031, 667 471.377, 667 474.417 C 667 479.354, 662.824 494.834, 657.658 509.045 C 650.666 528.281, 642.943 545.145, 616.002 600 C 602.361 627.775, 587.778 658.063, 583.594 667.308 C 554.865 730.790, 545.212 771.294, 550.482 806.252 C 556.552 846.524, 583.261 876.511, 627.239 892.431 C 667.175 906.887, 726.518 908.739, 805 897.978 C 821.289 895.745, 834.865 893.475, 835.431 892.890 C 835.762 892.548, 820.009 796.902, 819.514 796.244 C 819.408 796.103, 810.361 797.315, 799.411 798.937 C 762.288 804.437, 748.956 805.489, 716.500 805.482 C 692.032 805.477, 684.758 805.149, 677.053 803.704 C 666.146 801.658, 654.637 797.874, 651.012 795.141 C 648.638 793.352, 648.508 792.758, 648.639 784.374 C 648.983 762.342, 660.026 734.485, 703.496 646 C 744.527 562.479, 755.794 534.807, 763.108 499.581 C 766.041 485.459, 766.745 462.498, 764.621 450.305 C 757.420 408.974, 726.976 380.462, 682.656 373.544 C 626.869 364.835, 552.457 382.791, 466.632 425.670 C 457.355 430.306, 449.647 433.963, 449.504 433.799 C 449.360 433.635, 498.505 372.750, 558.715 298.500 C 618.925 224.250, 669.315 162.049, 670.693 160.275 L 673.199 157.051 652.938 128.275 C 641.794 112.449, 631.421 97.888, 629.887 95.918 L 627.098 92.336 604.299 96.097 C 567.057 102.241, 529.649 106.511, 491.517 108.969 C 470.901 110.299, 423.482 110.293, 403.830 108.960 C 367.571 106.499, 324.710 100.313, 294.213 93.141 C 285.255 91.034, 277.756 89.587, 277.547 89.924 " stroke="none" fill="black" fill-rule="evenodd"/>
</svg>