<svg xmlns="http://www.w3.org/2000/svg" width="1000" height="1000" viewBox="0 0 1000 1000" version="1.1">
	<path d="M 394.515 95.740 L 366.944 136.449 369.222 138.231 C 373.001 141.187, 397.840 153.555, 408.509 157.792 C 434.239 168.013, 469.636 176.978, 497 180.205 C 498.453 180.377, 489.658 183.600, 476 187.903 L 452.500 195.306 445.913 194.184 C 442.290 193.567, 438.590 192.780, 437.690 192.435 C 436.393 191.937, 435.920 192.651, 435.402 195.885 C 435.044 198.127, 434.244 200.358, 433.625 200.842 C 431.395 202.586, 334.759 231.789, 304.500 239.864 C 252.175 253.826, 224.274 257.891, 209.837 253.656 C 199.799 250.711, 196 243.120, 196 226.009 L 196 216.381 147.820 207.204 C 121.321 202.157, 99.527 198.140, 99.388 198.278 C 99.250 198.416, 98.596 202.573, 97.935 207.515 C 96.295 219.765, 97.314 244.615, 99.972 257.199 C 107.599 293.314, 126.328 320.270, 155.425 337.013 C 175.316 348.459, 197.828 354, 224.439 354 C 256.886 354, 305.714 343.476, 386.483 319.075 C 399.123 315.256, 409.540 312.215, 409.631 312.316 C 409.723 312.417, 408.556 318.125, 407.040 325 C 405.524 331.875, 404.557 337.771, 404.891 338.102 C 405.226 338.433, 419.225 342.388, 436 346.891 C 452.775 351.393, 467.175 355.316, 468 355.607 C 469.058 355.981, 468.323 356.875, 465.500 358.643 C 460.457 361.802, 443.326 370.342, 439.023 371.842 C 437.104 372.511, 435.971 373.490, 436.252 374.237 C 452.245 416.656, 470.384 463.711, 470.990 464.348 C 471.828 465.230, 486.270 459.406, 498.466 453.267 C 534.524 435.120, 562.864 408.403, 577.774 378.500 C 584.858 364.292, 589.988 344.438, 590.012 331.140 C 590.025 323.513, 585.048 285.751, 583.931 285 C 583.522 284.725, 573.254 281.813, 561.115 278.529 C 548.975 275.245, 539.370 272.233, 539.771 271.836 C 540.172 271.439, 554.675 266.858, 572 261.657 C 689.627 226.339, 758.920 213.009, 790.730 219.579 C 810.669 223.698, 829.136 235.345, 832.915 246.185 C 833.909 249.037, 833.725 249.523, 830.512 252.553 C 822.935 259.699, 810.246 265.082, 790.960 269.330 C 769.887 273.972, 762.886 274.500, 722.448 274.500 L 684.395 274.500 680.593 322.813 C 678.503 349.385, 676.989 371.322, 677.230 371.564 C 678.203 372.536, 707.746 373.971, 727 373.981 C 782.754 374.010, 826.390 366.012, 860.929 349.432 C 898.805 331.251, 923.007 302.947, 930.112 268.522 C 943.250 204.865, 891.973 140.945, 813.883 123.637 C 796.430 119.769, 783.700 118.659, 764 119.288 C 735.808 120.188, 701.166 125.572, 659.067 135.597 C 651.129 137.487, 644.321 138.689, 643.940 138.267 C 643.558 137.845, 640.005 124, 636.043 107.500 C 632.082 91, 628.640 76.772, 628.395 75.883 C 627.993 74.424, 626.907 74.491, 617.225 76.577 C 594.982 81.369, 579.437 83.147, 554.805 83.716 C 528.469 84.325, 513.163 83.281, 492.418 79.460 C 469.424 75.225, 441.883 66.129, 427.293 57.950 L 422.086 55.031 394.515 95.740 M 265.318 366.742 L 219.136 380.288 221.159 385.894 C 236.841 429.335, 273.387 468.182, 316.500 487.237 C 331.600 493.911, 351.466 499.769, 360.624 500.249 L 365.425 500.500 372.799 452.670 C 376.854 426.363, 379.963 404.630, 379.708 404.375 C 379.452 404.119, 375.476 403.012, 370.872 401.915 C 347.355 396.310, 327.953 380.695, 316.618 358.250 C 315.159 355.363, 313.411 353.044, 312.733 353.098 C 312.055 353.152, 290.718 359.292, 265.318 366.742 M 584.740 377.211 C 578.399 390.020, 569.515 406.644, 564.996 414.153 C 550.019 439.043, 528.747 464.418, 497.686 494.448 L 476.226 515.195 499.353 551.097 C 512.073 570.844, 523.009 587, 523.655 587 C 524.301 587, 553.550 576.682, 588.652 564.070 C 623.754 551.459, 652.614 541.281, 652.785 541.451 C 652.956 541.622, 652.035 544.399, 650.740 547.621 L 648.384 553.481 634.442 559.240 C 542.242 597.326, 482.811 642.626, 447.829 701.481 C 417.266 752.901, 412.289 803.439, 434.044 841.462 C 439.289 850.629, 449.967 862.448, 458.514 868.547 C 465.831 873.769, 478.703 879.908, 488 882.610 C 497.806 885.461, 527.297 885.211, 538.344 882.184 C 544.600 880.469, 557.767 875.566, 564.559 872.423 C 565.406 872.031, 577.949 923.176, 585.239 956.750 C 585.844 959.534, 586.699 961, 587.718 961 C 589.280 961, 610.538 956.563, 658 946.331 C 750.488 926.393, 807.053 906.459, 847.500 879.551 C 880.117 857.852, 899.861 832.099, 908.105 800.500 C 910.150 792.665, 910.448 789.234, 910.410 774 C 910.378 761.544, 909.897 754.472, 908.742 749.466 C 898.511 705.140, 867.331 678.113, 820.250 672.760 C 814.612 672.119, 810 671.273, 810 670.880 C 810 670.486, 818.132 646.045, 828.070 616.567 C 838.009 587.088, 845.997 562.356, 845.820 561.607 C 845.499 560.240, 793.650 516.260, 791.193 515.269 C 790.474 514.979, 784.918 515.732, 778.847 516.942 C 772.775 518.151, 767.652 518.985, 767.462 518.795 C 767.271 518.605, 771.530 505.410, 776.926 489.474 C 782.322 473.538, 787.037 459.531, 787.405 458.347 C 788.057 456.247, 781.775 450.492, 733.764 409.208 C 732.196 407.860, 729.082 408.767, 701.764 418.527 C 685.119 424.473, 670.949 429.531, 670.276 429.767 C 669.602 430.002, 672.628 422.737, 677 413.623 C 681.372 404.509, 685.212 396.003, 685.534 394.721 C 686.092 392.496, 684.098 391.522, 641.945 373.445 C 617.649 363.025, 597.433 354.370, 597.019 354.211 C 596.606 354.053, 591.080 364.403, 584.740 377.211 M 261 558.106 C 250.825 560.830, 224.500 567.593, 202.500 573.134 C 157.032 584.585, 155.520 584.742, 145.416 579.039 L 139.834 575.889 136.167 578.649 C 131.370 582.259, 62.650 635.137, 62.004 635.715 C 61.731 635.959, 65.781 640.309, 71.004 645.381 C 101.399 674.900, 141.791 687.097, 183.500 679.351 C 190.209 678.105, 211.583 673.070, 217.091 671.438 C 218.491 671.023, 218.405 672.384, 216.380 682.733 C 211.453 707.921, 210.499 718.787, 210.520 749.500 C 210.535 771.444, 210.975 781.840, 212.325 792.226 C 215.859 819.406, 222.703 847.172, 231.095 868.379 C 234.102 875.977, 255.845 920, 257.470 921.779 C 257.610 921.933, 273.595 915.408, 292.991 907.279 C 318.829 896.451, 328.471 891.965, 329.060 890.500 C 329.502 889.400, 332.390 880.642, 335.477 871.039 C 349.419 827.671, 372.803 777.064, 389.591 753.929 L 392.907 749.358 355.295 721.429 C 334.609 706.068, 317.085 693.050, 316.354 692.500 C 315.272 691.686, 315.745 688.712, 318.898 676.500 C 324.520 654.728, 327.302 645.997, 336.192 622.224 C 340.568 610.522, 344.003 600.522, 343.825 600.002 C 343.190 598.154, 282.989 553.001, 281.260 553.077 C 280.292 553.119, 271.175 555.382, 261 558.106 M 694.057 698.760 C 671.836 747.251, 643.986 796.049, 623.173 822.966 C 615.221 833.248, 596.352 852.374, 589.680 856.913 C 587.029 858.717, 585.018 860.351, 585.212 860.545 C 585.406 860.739, 587.350 860.472, 589.532 859.951 C 591.715 859.431, 603.400 856.955, 615.500 854.450 C 695.022 837.987, 741.170 824.425, 774.853 807.617 C 788.130 800.992, 796.507 795.489, 803.847 788.568 C 810.114 782.659, 812 779.416, 812 774.550 L 812 771 802.608 771 C 787.658 771, 773.659 774.320, 748.250 783.892 C 743.712 785.601, 736.448 788.321, 732.106 789.936 L 724.211 792.872 705.049 761.847 L 685.888 730.822 693.427 708.227 C 697.574 695.800, 700.829 685.495, 700.660 685.327 C 700.492 685.158, 697.521 691.203, 694.057 698.760 M 575.973 703.633 C 558.060 717.655, 540.972 737.179, 530.446 755.650 C 524.210 766.593, 518.133 784, 520.548 784 C 522.173 784, 532.761 776.296, 536.739 772.220 C 542.586 766.228, 553.173 752.005, 560.800 739.895 C 569.006 726.866, 585.677 697, 584.744 697 C 584.580 697, 580.634 699.985, 575.973 703.633 " stroke="none" fill="black" fill-rule="evenodd"/>
</svg>