<svg xmlns="http://www.w3.org/2000/svg" width="1000" height="1000" viewBox="0 0 1000 1000" version="1.1">
	<path d="M 361.214 106.397 C 346.761 134.762, 330.464 159.817, 317.006 174.365 C 313.978 177.638, 306.016 184.740, 299.313 190.147 C 256.980 224.295, 235.844 255.176, 230.489 290.697 C 227.340 311.591, 229.256 326.786, 238.599 355 L 245.056 374.500 242.787 376 C 234.500 381.479, 211.090 399.664, 199.255 409.817 C 170.242 434.704, 121.782 482.192, 123.583 483.972 C 124.087 484.470, 140.441 499.462, 159.925 517.287 L 195.351 549.697 215.940 529.098 C 236.613 508.416, 262.684 484.351, 263.516 485.183 C 264.038 485.705, 246.154 517.236, 233.691 537.767 C 200.843 591.878, 156.451 658.333, 111.610 720.522 L 93.047 746.267 95.273 748.907 C 111.540 768.199, 154.444 817, 155.137 817 C 155.640 817, 162.506 811.825, 170.394 805.500 C 178.282 799.175, 184.988 794, 185.296 794 C 185.605 794, 190.718 799.963, 196.659 807.250 C 209.154 822.577, 229.288 845.667, 247.015 865 C 261.707 881.023, 316.242 938.125, 316.500 937.757 C 319.658 933.253, 359.172 871.581, 360.234 869.500 C 362.327 865.395, 368.097 847.287, 374.053 826.128 C 389.057 772.830, 403.163 690.136, 405.658 640.852 L 406.312 627.925 426.406 614.595 C 479.270 579.524, 518.102 557.614, 541 549.936 C 549.556 547.067, 551.295 546.808, 558.500 547.329 C 570.474 548.194, 575.459 550.290, 582.509 557.421 C 591.538 566.555, 593.328 570.744, 599.412 596.985 C 602.360 609.701, 605.029 620.363, 605.344 620.677 C 605.847 621.180, 675.307 611.618, 680.500 610.332 C 681.600 610.059, 686.550 604.407, 691.500 597.772 C 709.085 574.200, 735.336 550.702, 754.287 541.568 C 781.044 528.674, 792.515 535.446, 792.283 564 C 792.131 582.755, 786.567 602.076, 774.430 626 C 760.878 652.713, 744.435 674.511, 717 702.133 C 696.585 722.689, 680.962 736.176, 659.385 751.875 C 652.298 757.031, 646.600 761.605, 646.722 762.040 C 647.387 764.412, 701.356 841.998, 702.334 841.989 C 703.742 841.975, 734.125 819.470, 746 809.645 C 819.140 749.128, 867.219 680.994, 884.579 613.261 C 889.748 593.094, 891.308 578.851, 890.686 557.500 C 890.268 543.147, 889.659 537.373, 887.679 529 C 877.236 484.845, 849.959 454.392, 809.476 441.693 C 797.170 437.832, 786.744 436.672, 769.643 437.259 C 757.054 437.691, 752.560 438.292, 743 440.823 C 723.023 446.110, 705.938 453.958, 687.515 466.308 C 677.939 472.727, 661.418 485.544, 659.128 488.330 C 658.373 489.249, 657.317 490, 656.781 490 C 656.245 490, 652.813 487.243, 649.153 483.874 C 621.427 458.346, 584.315 445.961, 544.626 448.990 C 521.780 450.734, 501.770 457.415, 467.870 474.618 C 450.934 483.212, 417.885 502.346, 400.088 513.861 C 396.561 516.142, 393.527 517.861, 393.346 517.679 C 393.164 517.498, 390.296 506.489, 386.972 493.216 L 380.928 469.083 384.917 457.292 C 397.879 418.972, 395.373 389.675, 377.350 368.835 C 368.723 358.859, 356.131 350.825, 344.560 347.911 C 342.052 347.279, 340 346.691, 340 346.603 C 340 346.516, 337.300 338.668, 334 329.165 C 330.570 319.286, 328 310.183, 328 307.910 C 328 305.617, 329.093 301.776, 330.583 298.836 C 334.030 292.034, 348.739 276.992, 363.500 265.176 C 391.613 242.670, 413.184 215.834, 437.397 173.243 C 449.173 152.528, 460.589 129.162, 459.431 128.143 C 458.919 127.692, 443.425 120.652, 425 112.497 C 406.575 104.343, 386.761 95.561, 380.969 92.982 L 370.438 88.294 361.214 106.397 M 280.500 719.150 C 271.150 726.324, 263.597 732.487, 263.716 732.847 C 264.466 735.118, 287.419 761.973, 288.047 761.314 C 288.939 760.377, 299 709.867, 299 706.325 C 299 705.201, 295.692 707.494, 280.500 719.150 " stroke="none" fill="black" fill-rule="evenodd"/>
</svg>