<svg xmlns="http://www.w3.org/2000/svg" width="1000" height="1000" viewBox="0 0 1000 1000" version="1.1">
	<path d="M 422.622 50.115 C 422.337 51.977, 421.859 57.100, 421.560 61.500 C 421.260 65.900, 419.901 85.025, 418.538 104 C 412.709 185.160, 406.982 282.692, 404.973 335 C 404.371 350.675, 403.653 365.413, 403.378 367.750 L 402.877 372 395.399 372 C 358.297 372, 316.118 358.763, 290.766 339.163 C 286.697 336.017, 284.663 335.012, 283.766 335.701 C 277.351 340.624, 212.915 392.827, 211.027 394.630 L 208.554 396.991 214.527 403.087 C 237.727 426.762, 273.909 447.097, 313.103 458.489 C 335.422 464.976, 363.016 469.488, 387.569 470.666 L 400.795 471.300 401.521 489.693 C 401.920 499.810, 402.079 508.209, 401.873 508.358 C 401.668 508.508, 394.380 511.218, 385.679 514.381 C 346.201 528.731, 303.183 549.576, 275.839 567.606 C 230.924 597.222, 189.624 645.834, 167.363 695.289 C 161.416 708.501, 154.698 728.731, 151.851 742 C 149.960 750.814, 149.593 755.631, 149.566 772 C 149.530 793.117, 150.604 799.682, 156.449 814.068 C 167.627 841.575, 191.763 861.519, 222.500 868.645 C 232.552 870.976, 265.469 871.280, 276.500 869.145 C 319.805 860.761, 362.505 842.684, 420.331 808.254 C 429.038 803.070, 436.301 798.979, 436.471 799.164 C 436.640 799.349, 438.624 809.133, 440.879 820.906 C 443.134 832.679, 445.140 842.474, 445.338 842.671 C 445.536 842.869, 460.206 848.013, 477.939 854.102 L 510.180 865.174 541.840 833.807 C 559.253 816.555, 583.513 793.062, 595.750 781.601 C 607.987 770.140, 618 760.587, 618 760.372 C 618 760.157, 605.175 745.929, 589.500 728.756 C 573.825 711.582, 561 697.260, 561 696.929 C 561 696.598, 565.769 690.967, 571.598 684.414 C 597.817 654.940, 623.064 619.634, 640.543 588 C 643.734 582.225, 646.472 577.333, 646.626 577.130 C 647.324 576.211, 674.019 582.354, 685.007 585.962 C 736.922 603.009, 765.667 634.635, 774.570 684.500 C 777.181 699.128, 776.996 720.743, 774.161 732.330 C 765.645 767.125, 742.990 793.319, 700.258 817.778 C 661.491 839.967, 598.938 859.540, 541.500 867.452 C 520.522 870.341, 522.859 869.387, 523.505 874.801 C 524.150 880.209, 531 964.089, 531 966.580 C 531 968.559, 535.152 968.258, 561 964.405 C 624.860 954.887, 690.629 934.660, 737 910.278 C 818.634 867.354, 864.907 807.679, 874.001 733.597 C 875.527 721.170, 875.316 693.703, 873.590 680 C 867.434 631.122, 847.595 586.648, 818.054 555.500 C 789.818 525.729, 758.560 506.326, 716.500 492.461 C 707.700 489.560, 696.788 486.361, 692.250 485.352 C 687.712 484.344, 684.012 483.064, 684.026 482.509 C 684.040 481.954, 684.928 477.675, 686 473 C 688.277 463.066, 688.495 459.004, 686.750 458.989 C 686.063 458.983, 664.364 456.082, 638.530 452.542 C 612.697 449.003, 591.368 446.299, 591.133 446.533 C 590.899 446.768, 589.215 452.892, 587.390 460.143 C 585.566 467.394, 583.720 473.645, 583.287 474.035 C 582.854 474.426, 574.405 475.276, 564.512 475.926 C 546.661 477.098, 520.455 480.013, 510.114 481.977 C 499.351 484.021, 499.891 484.545, 500.216 472.365 L 500.500 461.731 515.500 458.382 C 575.343 445.025, 638.140 421.296, 710.275 384.784 L 734.050 372.750 731.185 367.625 C 729.609 364.806, 719.164 345.400, 707.973 324.500 C 696.783 303.600, 687.547 286.374, 687.450 286.220 C 687.353 286.067, 673.825 292.592, 657.387 300.722 C 629.869 314.331, 597.197 329.269, 599.521 327.177 C 600.059 326.693, 605.811 322.341, 612.302 317.508 C 671.119 273.713, 715.053 214.304, 733.403 153.753 C 735.361 147.292, 737.084 140.114, 737.232 137.802 L 737.500 133.598 691.500 126.322 C 666.200 122.320, 644.432 119.148, 643.127 119.273 C 641.071 119.470, 640.367 120.702, 637.858 128.500 C 634.216 139.815, 623.945 160.735, 616.256 172.500 C 597.815 200.718, 567.181 230.409, 535 251.256 C 525.035 257.711, 508.952 267, 507.740 267 C 507.276 267, 507.158 263.288, 507.479 258.750 C 507.800 254.213, 509.405 228.675, 511.047 202 C 513.815 157.029, 517.528 102.786, 520.110 69.618 C 520.873 59.807, 520.878 55.543, 520.126 55.078 C 519.541 54.716, 500.035 52.942, 476.781 51.135 C 453.526 49.328, 431.944 47.598, 428.821 47.290 L 423.141 46.730 422.622 50.115 M 238 158.519 C 238 186.534, 244.772 215.004, 257.501 240.500 C 272.478 270.500, 294.742 293.983, 323.812 310.442 C 333.712 316.048, 348.678 322.656, 349.534 321.799 C 349.794 321.539, 356.994 302.466, 365.535 279.413 C 374.075 256.361, 381.696 235.872, 382.470 233.883 L 383.877 230.266 375.189 225.980 C 362.476 219.710, 351.937 208.984, 345.728 196 C 340.316 184.683, 338.133 176.570, 337.310 164.716 C 336.974 159.885, 336.315 155.695, 335.845 155.404 C 335.185 154.996, 266.661 149.408, 242.250 147.771 L 238 147.486 238 158.519 M 516.280 580.901 C 511.209 581.839, 506.855 582.812, 506.604 583.062 C 506.354 583.313, 506.639 588.570, 507.239 594.745 C 508.129 603.921, 508.572 605.770, 509.664 604.864 C 511.311 603.497, 529 580.356, 529 579.569 C 529 578.741, 526.601 578.992, 516.280 580.901 M 397.500 615.592 C 381.812 622.044, 350.337 637.678, 337.890 645.202 C 300.576 667.757, 267.953 706.449, 253.615 745.155 C 249.834 755.361, 246.577 770.940, 247.935 772.321 C 249.085 773.491, 262.848 771.412, 273.978 768.388 C 301.160 761.003, 341.543 741.334, 382.874 715.348 C 399.947 704.614, 419 691.037, 418.999 689.606 C 418.998 688.998, 417.225 674.325, 415.059 657 C 412.892 639.675, 410.809 622.237, 410.430 618.250 C 410.052 614.263, 409.462 611.015, 409.121 611.034 C 408.779 611.053, 403.550 613.104, 397.500 615.592 " stroke="none" fill="black" fill-rule="evenodd"/>
</svg>