<svg xmlns="http://www.w3.org/2000/svg" width="1000" height="1000" viewBox="0 0 1000 1000" version="1.1">
	<path d="M 464.530 90.159 C 439.246 94.530, 418.435 98.232, 418.282 98.385 C 418.128 98.538, 420.456 114.152, 423.453 133.082 C 428.810 166.908, 437.205 224.707, 440.834 252.750 C 442.440 265.158, 442.488 267, 441.200 267 C 433.552 267, 395.592 258.463, 380.664 253.386 C 376.786 252.067, 373.312 251.328, 372.944 251.744 C 372.441 252.313, 340.888 331.833, 337.470 341.145 C 336.974 342.497, 339.061 343.515, 349.183 346.862 C 379.377 356.846, 416.393 364.580, 443.624 366.593 L 452.748 367.268 453.371 372.884 C 453.713 375.973, 454.291 390.961, 454.655 406.191 L 455.317 433.882 452.909 434.360 C 451.584 434.622, 446.450 435.574, 441.500 436.475 C 383.299 447.066, 334.979 497.679, 324.598 558.926 C 322.552 570.993, 322.519 592.981, 324.529 604.507 C 325.370 609.329, 325.922 613.411, 325.755 613.578 C 325.589 613.745, 307.913 602.253, 286.476 588.042 C 265.039 573.831, 247.207 562.382, 246.848 562.600 C 244.241 564.187, 223.636 603.177, 217.902 617.373 L 215.530 623.246 214.840 619.873 C 214.461 618.018, 213.610 603.900, 212.949 588.500 C 209.848 516.190, 218.673 370.528, 238.084 173.645 C 240.299 151.174, 241.974 131.836, 241.806 130.670 C 241.511 128.628, 239.749 128.363, 193.500 123.415 C 167.100 120.590, 145.197 118.554, 144.827 118.890 C 143.168 120.396, 128.134 284.303, 122.528 362 C 110.108 534.151, 110.582 600.311, 125.071 717.316 C 130.436 760.637, 138.856 814.019, 147.420 859 C 151.903 882.547, 163.479 936.812, 164.165 937.499 C 164.984 938.317, 251.378 911.922, 252.524 910.503 C 253.087 909.806, 254.353 900.971, 255.338 890.868 C 263.175 810.448, 282.659 722.130, 305.167 665 C 310.348 651.849, 322.750 626.138, 325.832 622.160 L 327.645 619.820 330.572 628.644 C 336.441 646.331, 348.080 666.315, 362.996 684.317 L 371.131 694.134 367.431 698.650 C 365.395 701.134, 354.795 712.998, 343.874 725.015 L 324.018 746.864 362.578 785.182 C 383.786 806.257, 401.444 823.589, 401.819 823.697 C 402.194 823.805, 412.069 811.880, 423.765 797.197 C 435.461 782.514, 447.669 767.575, 450.895 764 L 456.759 757.500 463.130 760.649 C 477.530 767.769, 497.242 776.121, 498.503 775.637 C 499.244 775.353, 510.662 767.903, 523.876 759.083 C 545.940 744.354, 547.942 742.779, 548.411 739.773 C 548.692 737.973, 549.173 725.700, 549.480 712.500 C 549.788 699.300, 550.303 684.853, 550.626 680.395 L 551.212 672.291 566.356 662.282 C 584.217 650.476, 591.361 646.303, 607.500 638.244 C 658.714 612.671, 704.974 606.781, 742.117 621.106 C 770.571 632.078, 788.016 657.624, 793.089 695.744 C 794.776 708.422, 793.753 734.903, 791.056 748.379 C 786.560 770.838, 777.805 791.780, 767.346 805.092 C 757.324 817.849, 737.782 830.434, 721 834.940 C 681.668 845.499, 640.969 830.588, 630.143 801.653 C 627.566 794.766, 625.585 781.046, 626.355 775.426 C 626.915 771.343, 626.789 770.996, 624.731 770.946 C 623.504 770.917, 601.450 768.754, 575.723 766.140 C 549.996 763.526, 528.733 761.600, 528.473 761.860 C 528.213 762.120, 528 769.864, 528 779.067 C 528 823.702, 541.849 858.063, 571.921 888.038 C 591.254 907.309, 611.169 919.558, 636.908 928.010 C 657.665 934.826, 668.967 936.475, 695 936.489 C 718.456 936.500, 724.223 935.880, 742.143 931.420 C 778.303 922.419, 809.855 903.932, 835.673 876.617 C 863.503 847.175, 882.118 805.614, 890.143 755 C 893.215 735.627, 893.470 696.900, 890.644 679 C 883.659 634.763, 866.840 598.674, 840.302 570.979 C 812.997 542.484, 780.166 525.531, 737.404 517.843 C 726.051 515.802, 721.374 515.526, 698.500 515.543 C 670.827 515.564, 664.054 516.263, 640.213 521.561 C 625.329 524.869, 600.177 533.227, 583.750 540.324 L 571 545.833 571 532.874 C 571 513.217, 566.966 497.351, 558.113 482.193 L 554 475.151 554 442.657 C 554 412.424, 552.640 368.455, 551.488 361.458 C 550.989 358.424, 551.011 358.409, 559.744 355.573 C 589.055 346.053, 617.594 329.645, 639.329 309.818 L 645.158 304.500 610.485 269.242 L 575.812 233.984 570.656 238.650 C 562.794 245.765, 542.748 258.082, 541.333 256.667 C 541.076 256.409, 539.337 244.567, 537.469 230.349 C 533.290 198.536, 526.514 152.197, 520.234 112.481 C 515.505 82.576, 515.487 82.500, 512.997 82.355 C 511.623 82.276, 489.813 85.787, 464.530 90.159 M 746.997 163.216 C 746.996 165.022, 745.887 184.725, 744.532 207 C 743.177 229.275, 741.941 249.928, 741.784 252.896 L 741.500 258.291 748.154 260.116 C 762.468 264.041, 774.278 271.028, 782.959 280.707 C 789.413 287.904, 796.272 301.725, 798.921 312.872 C 800.015 317.476, 801.173 321.506, 801.494 321.827 C 801.953 322.287, 860.581 313.208, 892.250 307.773 C 899.202 306.580, 899.125 307.053, 895.072 290.475 C 884.149 245.793, 861.093 211.962, 825.151 187.875 C 803.936 173.657, 777.108 163.610, 752.250 160.573 L 747 159.931 746.997 163.216 M 448.042 537.750 C 435.809 544.025, 425.649 558.394, 422.424 573.983 C 420.704 582.300, 421.134 588.170, 424.096 596.779 C 426.088 602.569, 431.711 613.010, 432.823 612.984 C 433.617 612.966, 442.891 598.858, 449.437 587.711 L 454.012 579.923 454.665 557.461 C 455.076 543.357, 454.963 535, 454.361 535 C 453.834 535, 450.991 536.237, 448.042 537.750 " stroke="none" fill="black" fill-rule="evenodd"/>
</svg>