<svg xmlns="http://www.w3.org/2000/svg" width="1000" height="1000" viewBox="0 0 1000 1000" version="1.1">
	<path d="M 439.500 77.995 C 414.200 82.819, 393.446 86.819, 393.379 86.883 C 393.313 86.947, 393.664 89.138, 394.159 91.750 C 397.763 110.745, 407.377 179.956, 406.530 180.804 C 405.706 181.627, 372.389 177.428, 356.500 174.499 C 340.269 171.506, 320.128 166.907, 308.074 163.441 C 303.440 162.108, 299.563 161.126, 299.459 161.259 C 299.354 161.392, 292.346 182.328, 283.884 207.785 C 271.342 245.519, 268.760 254.231, 269.910 254.943 C 272.016 256.247, 303.519 264.467, 319.500 267.883 C 344.912 273.315, 391.315 279.994, 403.668 279.999 C 412.650 280.002, 411.198 281.238, 394.316 287.962 C 375.577 295.426, 342.224 311.993, 322.684 323.543 L 309.867 331.119 312.184 334.941 C 320.342 348.401, 362.620 413.953, 363.157 413.974 C 363.518 413.988, 368.468 411.230, 374.157 407.844 C 384.639 401.605, 419.621 383.749, 423.750 382.530 C 425.889 381.898, 426 382.133, 426 387.309 L 426 392.753 415.750 402.147 C 397.974 418.437, 382.901 430.987, 363.372 445.757 L 355.245 451.904 346.372 444.777 C 320.303 423.837, 291.783 409.738, 264.893 404.495 C 252.081 401.997, 230.560 401.487, 218.169 403.387 C 206.728 405.142, 190.539 410.201, 180.829 415.056 C 163.306 423.818, 142.204 441.933, 128.898 459.635 C 102.445 494.831, 84.737 542.974, 78.373 597 C 76.321 614.414, 76.066 648.920, 77.881 663.500 C 85.126 721.714, 111.120 759.432, 151.500 770.324 C 200.928 783.657, 260.182 756.296, 330.864 687.500 C 352.211 666.722, 380.418 635.486, 379.368 633.787 C 379.108 633.366, 367.444 623.754, 353.448 612.428 C 339.451 601.102, 328.006 591.535, 328.013 591.168 C 328.020 590.801, 331.525 588.891, 335.800 586.924 L 343.575 583.348 360.746 603.424 C 389.431 636.961, 406.779 654.378, 425.627 668.563 L 433.310 674.345 432.620 706.173 L 431.931 738 436.715 738.047 C 439.347 738.074, 461.300 738.695, 485.500 739.429 C 509.700 740.163, 529.837 740.565, 530.250 740.323 C 530.663 740.080, 531.005 732.596, 531.011 723.691 C 531.017 714.786, 531.290 705.878, 531.618 703.897 L 532.214 700.293 542.857 699.672 C 565.359 698.360, 590.319 691.882, 608.971 682.515 C 669.504 652.113, 695.117 591.765, 677.443 521.181 C 664.517 469.555, 629.624 438.129, 574.500 428.467 C 569 427.503, 556.313 426.441, 546.306 426.107 L 528.112 425.500 534.618 415.500 C 547.185 396.186, 553.865 379.117, 556.157 360.466 C 559.694 331.685, 545.503 300.128, 522.250 285.064 C 518.439 282.596, 517 281.036, 517 279.377 C 517 277.515, 517.695 276.973, 520.750 276.455 C 546.515 272.092, 571.080 265.863, 591.506 258.513 C 614.565 250.216, 654.963 229.435, 653.348 226.701 C 651.293 223.221, 601.694 146.382, 601.081 145.729 C 600.684 145.306, 596.341 147.274, 591.429 150.103 C 570.729 162.030, 546.421 170.836, 518.551 176.505 C 511.979 177.842, 506.532 178.837, 506.447 178.718 C 506.362 178.598, 505.295 170.625, 504.077 161 C 501.058 137.163, 496.585 105.925, 493.300 85.750 C 490.594 69.133, 490.553 69.001, 488.036 69.111 C 486.641 69.173, 464.800 73.170, 439.500 77.995 M 758 315.019 C 725.691 319.533, 690.697 332.885, 655 354.318 C 640.085 363.272, 622.473 375.290, 622.567 376.449 C 622.604 376.905, 635.879 394.700, 652.067 415.993 L 681.500 454.709 690 449.019 C 722.993 426.937, 755.656 413.029, 774.576 413.007 C 779.611 413.001, 781.018 413.390, 782.792 415.278 C 788.537 421.394, 789.901 436.906, 786.020 452 C 778.223 482.325, 754.871 518.757, 720.820 553.716 C 712.669 562.085, 706.005 569.285, 706.012 569.716 C 706.030 570.960, 726.859 645.192, 727.318 645.651 C 727.545 645.879, 736.917 645.562, 748.144 644.948 C 766.320 643.953, 769.266 644.013, 775.028 645.499 C 796.992 651.164, 812.262 670.347, 818.532 700.153 C 820.782 710.850, 819.045 716.661, 809.873 729.124 C 781.511 767.659, 693.408 813.545, 572.500 852.752 C 563.150 855.784, 555.144 858.583, 554.710 858.972 C 553.957 859.647, 582.415 950.723, 583.844 952.214 C 585.293 953.726, 655.077 929.398, 691.905 914.542 C 820.598 862.628, 890.718 808.680, 911.977 745.229 C 922.018 715.259, 919.488 681.611, 904.414 644.628 C 892.510 615.423, 873.600 590.480, 851 574.171 C 846.325 570.797, 841.717 567.466, 840.760 566.769 C 839.168 565.608, 839.663 564.520, 846.573 554 C 856.366 539.091, 871.804 507.795, 876.978 492.363 C 883.408 473.187, 886.013 459.129, 886.694 439.932 C 887.389 420.346, 885.828 408.459, 880.418 392.144 C 867.230 352.368, 838.802 325.416, 801.046 316.895 C 791.114 314.653, 767.866 313.640, 758 315.019 M 226.057 503.059 C 204.738 512.731, 184.716 552.749, 177.556 600 C 175.278 615.038, 174.521 637.555, 175.880 649.904 C 177.044 660.481, 179.503 671.825, 180.957 673.330 C 183.156 675.604, 206.125 663.422, 222 651.561 C 243.913 635.189, 280.677 599.696, 300.002 576.257 L 303.500 572.014 309.250 576.588 C 312.413 579.104, 315 580.955, 315 580.703 C 315 579.205, 290.747 527.378, 289.296 525.774 C 282.438 518.196, 260.777 505.217, 250.540 502.552 C 242.058 500.343, 231.565 500.561, 226.057 503.059 M 534.594 524.764 L 530.687 525.139 531.341 545.320 C 531.701 556.419, 531.996 573.621, 531.997 583.547 L 532 601.595 539.250 600.896 C 561.158 598.785, 577.273 589.904, 581.968 577.355 C 585.618 567.599, 584.020 547.727, 578.722 537 C 576.010 531.507, 570.966 528.483, 561.312 526.563 C 553.785 525.066, 540.646 524.181, 534.594 524.764 " stroke="none" fill="black" fill-rule="evenodd"/>
</svg>