<svg xmlns="http://www.w3.org/2000/svg" width="1000" height="1000" viewBox="0 0 1000 1000" version="1.1">
	<path d="M 373.500 102.528 C 350.950 115.972, 332.087 127.115, 331.581 127.292 C 329.118 128.152, 347.091 150.935, 361.772 165.562 C 402.708 206.350, 454.887 231.646, 514.500 239.605 C 530.407 241.729, 567.384 242.037, 583.500 240.179 C 599.980 238.280, 616.790 235.301, 633.248 231.363 C 647.143 228.038, 647.964 227.708, 647.445 225.667 C 647.143 224.475, 641.157 203.250, 634.144 178.500 C 622.846 138.626, 621.172 133.511, 619.447 133.597 C 618.376 133.651, 612.325 134.873, 606 136.314 C 588.124 140.387, 575.863 142.026, 558.500 142.666 C 513.080 144.339, 474.704 132.054, 441.812 105.312 C 434.222 99.141, 423.864 88.442, 419.466 82.231 C 417.835 79.928, 416.050 78.052, 415.500 78.063 C 414.950 78.075, 396.050 89.084, 373.500 102.528 M 315.567 210.871 C 314.730 212.489, 312.859 217.792, 311.409 222.656 C 308.166 233.537, 307.026 253.666, 308.971 265.722 C 312.421 287.104, 322.480 306.361, 336.728 318.859 C 340.410 322.088, 342.130 324.243, 341.494 324.829 C 340.947 325.334, 333.750 331.144, 325.500 337.741 C 266.838 384.644, 230.259 422.964, 216.865 451.546 C 210.580 464.960, 208.645 474.216, 209.253 487.975 C 209.955 503.868, 213.834 513.921, 223.889 525.909 C 243.330 549.087, 277.464 556.480, 352.858 553.841 C 367.906 553.314, 380.398 553.064, 380.618 553.285 C 381.083 553.749, 328.787 628.734, 309.079 655.863 C 294.280 676.233, 283.158 690.438, 274.911 699.500 C 271.908 702.800, 262.712 712.912, 254.475 721.972 C 232.648 745.981, 203.486 777.352, 162.422 821 C 142.500 842.175, 126.146 859.848, 126.079 860.273 C 125.980 860.899, 187.179 919.791, 194.733 926.339 C 196.839 928.165, 196.929 928.102, 206.756 917.839 C 234.860 888.493, 302.052 816.406, 331.509 784 C 348.604 765.192, 351.311 763.001, 374.910 748.849 C 416.328 724.013, 453.312 710.951, 462.268 717.996 C 468.531 722.923, 473.687 736.493, 480.512 766.011 C 491.831 814.963, 499.914 836.298, 516.173 860.137 C 546.025 903.906, 589.545 921.810, 684 929.181 C 704.822 930.806, 777.777 930.761, 807 929.106 C 834.497 927.548, 870.735 924.599, 871.475 923.859 C 872.126 923.207, 861.926 827.742, 861.106 826.816 C 860.773 826.440, 853.525 826.739, 845 827.481 C 809.330 830.584, 785.950 831.482, 741.500 831.456 C 691.717 831.427, 674.414 830.345, 646.500 825.514 C 620.671 821.044, 606.230 815.620, 600.220 808.130 C 591.106 796.772, 586.030 782.961, 577.019 745 C 565.157 695.026, 555.216 672.774, 535.511 652.091 C 515.710 631.308, 491.668 619.240, 466.250 617.324 C 461.712 616.983, 458 616.498, 458 616.247 C 458 615.733, 465.490 605.006, 494.290 564.272 C 513.180 537.555, 514.442 536.012, 517.874 535.441 C 519.868 535.110, 532.750 532.601, 546.500 529.866 C 642.622 510.744, 711.173 484.979, 745.333 455.135 C 774.907 429.295, 794 388.425, 794 350.955 C 794 299.245, 761.975 259.138, 712.500 248.885 C 703.746 247.071, 682.211 247.324, 671.730 249.365 C 638.690 255.797, 608.184 273.715, 573.710 306.939 C 546.544 333.120, 508.409 378.323, 469.050 431 C 463.913 437.875, 459.401 443.852, 459.022 444.283 C 457.424 446.102, 390.454 453.297, 364 454.492 C 357.125 454.803, 348.800 455.270, 345.500 455.531 L 339.500 456.005 346.500 449.400 C 370.935 426.345, 427.374 382.336, 473.250 350.564 C 480.685 345.415, 486 341.060, 486 340.117 C 486 339.228, 487.342 320.754, 488.982 299.065 C 490.622 277.376, 491.860 259.548, 491.732 259.446 C 491.604 259.345, 480.700 258.278, 467.500 257.077 C 435.193 254.135, 416.282 250.677, 403.063 245.294 C 402.195 244.940, 402.503 245.824, 403.841 247.526 C 405.227 249.288, 405.705 250.695, 405.116 251.284 C 404.526 251.874, 387.866 243.931, 360.631 230.078 L 317.088 207.930 315.567 210.871 M 683.266 348.421 C 675.284 351.386, 667.783 355.934, 658.164 363.641 C 647.036 372.556, 610.059 410.392, 611.280 411.614 C 612.003 412.336, 640.166 402.275, 651.659 397.189 C 674.542 387.063, 684.524 379.286, 690.976 366.557 C 693.686 361.211, 694.537 358.190, 694.839 352.850 L 695.226 346 692.363 346.052 C 690.788 346.081, 686.695 347.147, 683.266 348.421 " stroke="none" fill="black" fill-rule="evenodd"/>
</svg>