<svg xmlns="http://www.w3.org/2000/svg" width="1000" height="1000" viewBox="0 0 1000 1000" version="1.1">
	<path d="M 525.470 88.048 C 524.662 89.357, 508.645 245.116, 503.573 301 C 499.151 349.724, 498.072 366.801, 497.063 404 C 496.519 424.075, 495.777 451.637, 495.414 465.250 L 494.755 490 488.839 490 C 455.668 490, 377 480.836, 377 476.972 C 377 475.529, 386.932 464.060, 395.469 455.644 C 406.398 444.869, 420.540 433.413, 438.802 420.540 C 452.902 410.602, 454.065 409.547, 453.599 407.127 C 453.321 405.682, 451.852 388.622, 450.335 369.217 C 448.818 349.811, 447.319 333.517, 447.005 333.007 C 446.690 332.498, 435.873 331.403, 422.966 330.574 C 399.584 329.072, 392.984 328.312, 393.018 327.125 C 393.028 326.781, 394.384 324.054, 396.032 321.064 C 397.680 318.075, 398.685 315.327, 398.264 314.960 C 397.844 314.592, 380.175 302.237, 359 287.504 C 337.825 272.772, 320 260.328, 319.388 259.851 C 317.983 258.756, 314.396 264.095, 307.496 277.553 C 297.486 297.075, 292.428 314.636, 291.382 333.500 C 290.080 356.985, 295.566 374.573, 309.250 390.786 C 311.863 393.881, 313.999 396.658, 313.999 396.957 C 313.998 397.256, 310.811 401.325, 306.917 406 C 277.221 441.654, 266.396 475.932, 275.040 506.947 C 284.459 540.739, 313.863 564.262, 360.567 575.367 C 384.176 580.981, 427.736 586.044, 469.476 588.027 C 482.113 588.628, 492.548 589.215, 492.665 589.332 C 493.089 589.756, 491.224 664.110, 490.778 664.555 C 490.527 664.807, 485.636 662.816, 479.911 660.132 C 442.884 642.776, 409.661 635, 372.532 635 C 273.863 635, 191.009 690.830, 176.548 767.060 C 174.570 777.488, 174.552 797.419, 176.512 807.750 C 185.740 856.397, 226.003 893.785, 287.500 910.813 C 312.392 917.705, 350.071 923.624, 393.500 927.464 C 465.989 933.875, 567.316 933.868, 673 927.446 C 712.657 925.036, 790.864 918.444, 791.903 917.423 C 792.299 917.034, 782.405 827.078, 781.387 821.807 C 781.100 820.326, 780.334 819.296, 779.683 819.519 C 777.764 820.175, 724.782 824.810, 694.500 826.971 C 540.570 837.956, 409.866 835.236, 330 819.385 C 293.701 812.181, 271.004 798.454, 273.489 785.208 C 275.180 776.191, 284.698 763.885, 296.485 755.473 C 304.759 749.569, 319.559 742.613, 330.500 739.486 C 346.351 734.956, 357.434 733.706, 376.936 734.252 C 392.420 734.685, 395.862 735.105, 406 737.805 C 427.060 743.412, 447.393 752.974, 467.500 766.727 C 481.264 776.142, 485.792 779.983, 504.204 797.866 L 518.996 812.233 521.748 810.434 C 524.515 808.625, 587.260 765.008, 587.776 764.534 C 587.928 764.395, 588.862 724.622, 589.850 676.150 C 590.839 627.677, 591.946 587.721, 592.309 587.358 C 592.672 586.994, 601.414 586.087, 611.735 585.342 C 659.815 581.869, 709.033 575.922, 755.538 567.967 C 771.509 565.235, 784.897 563, 785.288 563 C 785.680 563, 786 550.189, 786 534.532 L 786 506.064 774.394 480.282 C 746.771 418.918, 717.684 348.957, 706.924 318 C 703.046 306.846, 700.753 301.583, 699.844 301.758 C 696.765 302.347, 607.777 329.890, 607.251 330.416 C 605.620 332.046, 629.390 393.754, 652.661 448.303 C 660.123 465.794, 666.002 480.331, 665.726 480.607 C 665.019 481.314, 644.055 483.555, 620.500 485.441 C 609.500 486.322, 598.979 487.175, 597.121 487.336 L 593.741 487.629 594.420 458.564 C 596.417 373.031, 597.533 354.288, 605.508 272.373 C 608.742 239.157, 617.290 155.620, 621.638 114.741 C 622.560 106.073, 623.065 98.731, 622.760 98.426 C 621.894 97.561, 525.919 87.323, 525.470 88.048 M 337.012 146.544 C 313.644 158.855, 294.381 169.358, 294.206 169.883 C 293.739 171.283, 304.264 187.937, 312.648 199.067 C 341.404 237.241, 378.726 262.570, 416.208 269.350 L 423.916 270.744 424.488 266.622 C 426.038 255.450, 435 177.418, 435 175.090 C 435 172.745, 434.416 172.259, 430.272 171.150 C 416.961 167.590, 400.191 152.784, 386.288 132.316 C 383.181 127.742, 380.383 124.036, 380.070 124.080 C 379.756 124.124, 360.380 134.233, 337.012 146.544 " stroke="none" fill="black" fill-rule="evenodd"/>
</svg>