<svg xmlns="http://www.w3.org/2000/svg" width="1000" height="1000" viewBox="0 0 1000 1000" version="1.1">
	<path d="M 199 179.494 L 199 228.992 323.250 229.246 L 447.500 229.500 447.755 332.750 L 448.009 436 281.505 436 L 115 436 115 485.500 L 115 535 281.500 535 L 448 535 448 651.500 C 448 715.575, 447.632 768, 447.182 768 C 446.732 768, 436.495 762.351, 424.432 755.448 C 402.932 743.143, 342.069 712, 339.520 712 C 338.402 712, 297.507 798.808, 297.840 800.474 C 297.907 800.807, 310.007 807.102, 324.730 814.465 C 380.947 842.576, 426.906 870.442, 471.353 903.367 C 488.538 916.097, 491.428 917.901, 492.853 916.787 C 493.759 916.079, 506.087 905.440, 520.250 893.144 L 546 870.787 546 702.894 L 546 535 715.509 535 L 885.019 535 884.759 485.750 L 884.500 436.500 715.250 436.247 L 546 435.994 546 332.497 L 546 229 671.509 229 L 797.019 229 796.759 179.750 L 796.500 130.500 497.750 130.248 L 199 129.997 199 179.494 " stroke="none" fill="black" fill-rule="evenodd"/>
</svg>