<svg xmlns="http://www.w3.org/2000/svg" width="1000" height="1000" viewBox="0 0 1000 1000" version="1.1">
	<path d="M 441.044 69.456 C 414.635 95.874, 406.298 103.662, 405.309 102.841 C 404.599 102.253, 405.390 105.085, 407.065 109.135 C 418.132 135.887, 425.702 180.040, 429.074 237.500 C 430.733 265.769, 430.506 329.556, 428.564 381 C 427.620 406.025, 426.544 429.156, 426.173 432.402 L 425.500 438.305 405 450.912 C 393.725 457.847, 376.060 469.003, 365.745 475.704 C 354.538 482.984, 347.433 487.059, 348.091 485.830 C 348.697 484.698, 352.311 478.608, 356.124 472.295 C 372.200 445.676, 397 403.065, 397 402.063 C 397 400.926, 384.323 375.397, 371.825 351.365 L 364.474 337.230 343.636 343.542 C 332.175 347.013, 319.581 350.420, 315.649 351.112 C 303.073 353.326, 272.916 352.562, 274.457 350.069 C 275.204 348.860, 199.064 288.761, 197.531 289.350 C 195.412 290.163, 186.269 304.639, 181.014 315.500 C 172.062 334.004, 168.332 350.633, 169.352 367.500 C 170.632 388.684, 178.515 405.746, 193.633 420.053 C 206.524 432.253, 223.429 440.562, 245.500 445.545 C 249.900 446.538, 253.871 447.665, 254.324 448.050 C 255.529 449.071, 230.562 489.568, 197.326 540.500 C 152.838 608.675, 99.045 696.514, 100.786 698.139 C 101.179 698.505, 118.214 708.688, 138.643 720.768 L 175.787 742.731 198.143 723.762 C 230.698 696.140, 266.727 667.476, 305.559 638.305 C 344.837 608.798, 418.281 557.947, 419.646 559.313 C 420.848 560.514, 407.582 790.709, 405.192 810.124 L 404.500 815.749 395.467 809.988 C 384.805 803.189, 362.941 790.656, 347.500 782.493 C 341.450 779.294, 336.340 776.552, 336.145 776.400 C 335.950 776.248, 337.525 774.674, 339.645 772.904 C 347.612 766.249, 371.786 741.181, 378.125 733 C 387.110 721.404, 396.294 707.383, 395.825 705.976 C 395.430 704.790, 313.602 657, 311.966 657 C 311.468 657, 308.849 660.262, 306.146 664.250 C 290.489 687.342, 262.924 710.751, 225.319 732.889 C 199.354 748.175, 154.326 768.463, 124.183 778.457 C 117.243 780.759, 113.036 782.653, 113.306 783.355 C 113.547 783.985, 119.681 804.975, 126.937 830 C 134.193 855.025, 140.438 875.803, 140.815 876.174 C 141.657 877.002, 167.572 868.272, 186.500 860.783 C 225.631 845.302, 265.542 825.163, 294.250 806.413 C 299.613 802.911, 304 800.351, 304 800.725 C 304 801.100, 298.092 814.156, 290.871 829.741 C 283.650 845.325, 277.913 858.171, 278.121 858.288 C 278.329 858.404, 284.588 861.486, 292.028 865.135 C 317.685 877.718, 349.231 896.722, 374 914.517 C 389.835 925.894, 399.889 934.075, 418.836 951 C 427.763 958.975, 435.479 965.500, 435.981 965.500 C 437.832 965.500, 497 915.669, 497 914.110 C 497 913.225, 497.661 903.950, 498.469 893.500 C 503.096 833.663, 512.542 686.195, 515.958 620.500 C 516.530 609.500, 517.266 597.057, 517.594 592.849 L 518.191 585.197 527.767 592.683 C 545.520 606.561, 573.767 624.027, 590.512 631.480 C 609.519 639.941, 630.068 646.335, 648.147 649.414 C 660.988 651.602, 683.824 653.188, 692.500 652.495 C 696.350 652.187, 702.425 651.705, 706 651.423 L 712.500 650.910 704.896 654.287 C 690.878 660.513, 677.539 668.568, 665.358 678.163 C 661.980 680.823, 659.055 682.996, 658.858 682.990 C 658.661 682.985, 654.360 678.982, 649.299 674.095 C 627.083 652.642, 602.129 641.750, 569.119 639.096 C 554.187 637.896, 525.623 640.143, 521.219 642.865 C 520.366 643.392, 523.224 655.599, 531.565 687.047 C 537.904 710.946, 543.519 732.118, 544.042 734.096 L 544.994 737.692 555.747 737.629 C 568.981 737.552, 573.857 738.906, 579.680 744.273 C 588.199 752.125, 591.998 762.963, 592.004 779.432 C 592.006 785.519, 592.297 796.159, 592.650 803.075 L 593.291 815.650 625.895 817.364 C 643.828 818.307, 662.825 819.349, 668.112 819.680 L 677.724 820.283 686.044 805.482 C 699.178 782.119, 711.248 767.237, 726.201 755.970 C 741.511 744.433, 753.187 740, 768.263 740 C 784.699 740, 799.513 745.442, 805.256 753.590 C 811.495 762.441, 811.246 776.089, 804.603 789.443 C 798.232 802.249, 790.014 808.679, 763.200 821.841 C 723.390 841.382, 664.841 860.468, 609.500 871.945 C 601.250 873.656, 593.577 875.255, 592.449 875.497 C 590.446 875.928, 590.599 877.098, 598.805 924.219 C 603.429 950.774, 607.361 972.659, 607.543 972.854 C 608.185 973.539, 643.781 965.773, 666.500 959.991 C 703.989 950.450, 737.569 939.760, 769 927.360 C 791.927 918.316, 827.063 900.760, 842.012 890.879 C 917.014 841.306, 931.248 737.689, 871.031 679.639 C 846.195 655.697, 813.478 642.770, 774 641.301 L 757.500 640.687 764.412 638.354 C 768.214 637.072, 776.436 633.564, 782.685 630.559 C 840.829 602.600, 881.703 545.925, 886.958 485.975 C 889.247 459.867, 883.212 431.695, 870.790 410.500 C 847.292 370.407, 804.502 345.738, 745 337.980 C 731.110 336.169, 699.644 335.596, 685.410 336.894 C 642.950 340.766, 595.594 354.344, 540.610 378.412 C 533.521 381.515, 527.591 383.924, 527.433 383.766 C 527.274 383.607, 527.604 372.233, 528.166 358.489 C 529.586 323.763, 528.653 240.080, 526.549 213.500 C 521.120 144.905, 510.458 95.862, 493.505 61.500 C 487.655 49.644, 478.120 35, 476.250 35 C 475.831 35, 459.989 50.505, 441.044 69.456 M 248 157.615 C 242.775 159.506, 222.188 166.947, 202.250 174.151 C 178.163 182.855, 166 187.718, 166 188.645 C 166 191.111, 175.062 208.222, 181.281 217.500 C 190 230.506, 197.955 240.076, 209.962 252 C 243.553 285.360, 287.937 310.644, 340.896 326.591 C 347.595 328.608, 353.307 330.026, 353.590 329.743 C 354.505 328.828, 378.996 236.535, 378.607 235.469 C 378.400 234.901, 375.816 233.834, 372.865 233.097 C 352.809 228.087, 323.331 214.737, 304 201.909 C 289.118 192.034, 271.091 174.705, 263.524 163 C 260.858 158.875, 258.411 155.203, 258.088 154.839 C 257.765 154.476, 253.225 155.725, 248 157.615 M 688.500 435.637 C 658.610 440.068, 634.080 446.997, 600.500 460.493 C 580.630 468.478, 551 481.879, 551 482.880 C 551 483.815, 573.317 502.998, 585.235 512.307 C 633.796 550.237, 672.991 560.978, 719.013 548.969 C 737.864 544.050, 750.792 537.081, 763.362 525.061 C 783.781 505.535, 793.333 479.370, 786.383 461.999 C 782.068 451.214, 764.822 441.630, 742 437.333 C 733.783 435.786, 695.647 434.577, 688.500 435.637 " stroke="none" fill="black" fill-rule="evenodd"/>
</svg>