<svg xmlns="http://www.w3.org/2000/svg" width="1000" height="1000" viewBox="0 0 1000 1000" version="1.1">
	<path d="M 519.287 74.255 C 505.444 101.346, 479.393 132.709, 451.500 155.862 C 440.872 164.684, 420.744 178.589, 407.464 186.283 C 396.795 192.465, 372.891 203.815, 360.691 208.492 C 355.129 210.624, 351.047 212.739, 351.263 213.376 C 360.413 240.449, 383.697 305, 384.312 305 C 386.342 305, 414.757 293.146, 428.500 286.566 C 503.551 250.631, 566.507 192.852, 603.835 125.645 C 610.487 113.668, 615.617 102.284, 614.751 101.418 C 614.153 100.820, 524.958 65.997, 524.044 66.005 C 523.745 66.007, 521.604 69.720, 519.287 74.255 M 596 267.138 C 509.114 274.254, 406.631 310.168, 310.755 367.097 C 305.237 370.374, 300.577 372.910, 300.400 372.734 C 300.224 372.557, 301.369 370.464, 302.945 368.083 L 305.812 363.753 272.264 328.376 C 253.812 308.919, 238.375 293, 237.958 293 C 236.624 293, 227.665 303.384, 222.376 311.062 C 194.781 351.118, 174.940 420.314, 177.375 468 C 177.924 478.743, 182.809 510.336, 184.071 511.304 C 184.307 511.486, 197.961 516.554, 214.413 522.567 C 230.865 528.580, 244.612 533.620, 244.961 533.766 C 245.310 533.912, 252.403 528.422, 260.724 521.565 C 329.902 464.555, 423.010 412.749, 502.500 387.038 C 556.497 369.572, 601.891 362.888, 652 365.024 C 672.985 365.918, 683.920 366.967, 694.927 369.143 L 700.353 370.215 694.927 373.682 C 678.293 384.307, 656.071 392.779, 620.500 402.054 C 575.287 413.844, 536.144 419, 491.860 419 L 465 419 464.990 423.250 C 464.985 425.587, 464.539 434.925, 464 444 C 462.644 466.797, 458.330 552.549, 456.508 592.917 C 455.678 611.296, 454.842 626.492, 454.650 626.684 C 454.457 626.876, 448.720 627.932, 441.900 629.031 C 400.455 635.706, 365.888 645.081, 344.071 655.563 C 317.685 668.240, 300.040 684.027, 290.057 703.890 C 266.824 750.116, 285.542 801.884, 344.824 855.359 C 381.337 888.295, 421.259 915.798, 480 948.482 C 494.575 956.592, 507.508 963.858, 508.739 964.630 C 510.950 966.014, 511.184 965.620, 527.359 933.266 L 543.740 900.500 545.372 869 C 547.821 821.737, 550.961 742.176, 550.992 726.633 L 551 722.765 558.750 723.437 C 595.639 726.635, 642.714 739.255, 671.128 753.564 C 675.001 755.515, 678.574 756.973, 679.069 756.805 C 679.564 756.637, 691.447 737.862, 705.475 715.083 L 730.981 673.667 727.970 671.836 C 705.698 658.291, 662.306 642.476, 624.402 634.087 C 603.960 629.564, 566.512 624.074, 555.662 624.011 C 553.948 624.001, 553.866 623.212, 554.450 612.250 C 555.480 592.886, 559 518.743, 559 516.403 C 559 514.441, 559.803 514.118, 567.250 513.074 C 607.953 507.371, 648.989 497.946, 685 486.030 C 754.494 463.035, 801.141 423.324, 811.592 378.261 C 813.607 369.573, 813.556 352.393, 811.492 344.561 C 807.352 328.851, 801.409 318.503, 789.948 307.047 C 766.668 283.778, 729.514 271.223, 671.500 267.022 C 655.104 265.835, 611.089 265.902, 596 267.138 M 437.801 730.085 C 413.535 735.040, 387.550 742.683, 382.555 746.336 C 377.305 750.175, 408.262 782.085, 442.650 808.279 L 448.801 812.964 449.390 806.232 C 450.158 797.465, 452.346 727.994, 451.867 727.594 C 451.665 727.425, 445.336 728.546, 437.801 730.085 " stroke="none" fill="black" fill-rule="evenodd"/>
</svg>