<svg xmlns="http://www.w3.org/2000/svg" width="1000" height="1000" viewBox="0 0 1000 1000" version="1.1">
	<path d="M 623 96.100 C 580.751 98.625, 532.988 107.339, 464.500 125.016 C 402.758 140.953, 369.584 148.982, 354.193 151.714 C 339.226 154.371, 337.066 154.499, 307.500 154.469 C 275.391 154.437, 268.785 153.893, 240 148.915 C 223.980 146.144, 200.028 140.516, 184.018 135.761 C 176.583 133.553, 169.573 131.542, 168.440 131.293 C 166.556 130.878, 165.001 134.666, 150.219 175.670 C 141.330 200.326, 133.932 221.132, 133.779 221.903 C 133.419 223.716, 150.860 229.490, 176.500 236.047 C 205.509 243.466, 235.874 248.975, 265.500 252.196 C 284.064 254.213, 338.229 253.896, 354 251.677 C 374.308 248.819, 399.486 243.504, 432.500 235.105 C 449.550 230.767, 478.800 223.329, 497.500 218.574 C 592.193 194.500, 648.269 188.855, 696.602 198.529 C 716.431 202.498, 737.476 210.822, 745.102 217.711 C 769.364 239.630, 780.103 301.591, 769.897 360.774 C 762.009 406.517, 743.214 446.661, 717.524 472.635 C 700.474 489.873, 686.147 497.703, 649 510.085 C 613.042 522.071, 578.030 528.970, 540.500 531.467 L 531.500 532.065 529 526.783 C 525.466 519.315, 514.816 508.934, 506.345 504.699 C 497.594 500.324, 491 498.796, 480.726 498.762 C 450.295 498.660, 422.834 520.687, 411.366 554.394 C 409.230 560.673, 399.433 613.767, 400.258 614.592 C 400.452 614.785, 406.314 616.153, 413.284 617.630 C 425.939 620.313, 425.958 620.321, 425.340 622.908 C 423.627 630.083, 409.285 672.613, 406.028 680.174 C 403.973 684.944, 397.989 696.869, 392.730 706.674 C 371.722 745.841, 364.873 766.852, 364.926 791.968 C 364.984 818.959, 373.717 839.867, 392.940 859.035 C 416 882.028, 448.752 895.624, 495 901.402 C 534.645 906.355, 598.741 906.365, 666.766 901.429 C 690.572 899.701, 732.779 895.579, 733.362 894.925 C 733.713 894.532, 722.150 797.802, 721.701 797.380 C 721.591 797.276, 715.650 797.805, 708.500 798.555 C 611.654 808.714, 523.216 809.093, 485.440 799.510 C 473.912 796.586, 464 791.731, 464 789.008 C 464 784.998, 469.410 772.896, 480.739 751.560 C 493.821 726.925, 497.531 718.731, 504.872 698.265 C 509.735 684.708, 521.314 647.315, 524.044 636.352 L 525.326 631.205 538.413 630.528 C 599.153 627.386, 656.425 614.707, 712.500 591.989 C 733.620 583.433, 745.207 577.055, 761.500 565.016 C 793.489 541.381, 818.295 510.457, 838.082 469.551 C 879.971 382.949, 884.210 270.608, 848.405 196 C 829.872 157.383, 805.924 133.968, 768.688 118.059 C 725.619 99.657, 679.584 92.719, 623 96.100 " stroke="none" fill="black" fill-rule="evenodd"/>
</svg>