<svg xmlns="http://www.w3.org/2000/svg" width="1000" height="1000" viewBox="0 0 1000 1000" version="1.1">
	<path d="M 343.655 110.730 L 300.810 111.022 301.551 443.936 L 302.292 776.851 298.396 778.513 C 244.229 801.621, 188.637 816.138, 144.750 818.636 L 133 819.305 132.941 822.902 C 132.908 824.881, 131.859 846.750, 130.610 871.500 C 129.361 896.250, 128.555 916.903, 128.818 917.395 C 129.433 918.544, 154.507 917.395, 171.500 915.439 C 229.721 908.737, 296.167 889.044, 356.249 860.685 C 414.463 833.208, 525.684 755.912, 699.500 622.134 C 768.547 568.991, 895.848 468.263, 895.949 466.692 C 895.986 466.112, 840.745 397.206, 835.086 390.774 C 834.735 390.374, 818.934 402.466, 799.974 417.644 C 648.772 538.682, 501.154 650.475, 412.250 711.272 L 401 718.965 400.853 633.733 C 400.772 586.855, 400.434 449.950, 400.103 329.500 L 399.500 110.500 393 110.469 C 389.425 110.452, 367.220 110.569, 343.655 110.730 " stroke="none" fill="black" fill-rule="evenodd"/>
</svg>