<svg xmlns="http://www.w3.org/2000/svg" width="1000" height="1000" viewBox="0 0 1000 1000" version="1.1">
	<path d="M 476.801 71.352 C 452.216 80.269, 431.854 87.812, 431.552 88.114 C 430.164 89.503, 445.580 121.619, 455.551 138.111 C 470.775 163.291, 484.499 180.761, 505.381 201.541 C 521.921 218, 536.829 229.967, 553.615 240.258 C 565.114 247.308, 582.764 256.202, 583.333 255.234 C 584.288 253.610, 622 166.345, 622 165.761 C 622 165.415, 617.612 162.832, 612.250 160.023 C 588.630 147.646, 565.582 125.734, 547.053 98.035 C 539.931 87.389, 531.150 71.765, 526.940 62.250 C 525.176 58.263, 523.230 55.031, 522.616 55.069 C 522.002 55.107, 501.385 62.435, 476.801 71.352 M 376.586 225.633 C 372.248 235.996, 367.768 250.450, 365.314 262 C 363.927 268.525, 363.528 274.683, 363.595 288.500 C 363.672 304.464, 363.971 307.580, 366.233 316.051 C 373.436 343.020, 388.820 364.577, 411.546 379.543 C 416.522 382.819, 420.572 385.945, 420.546 386.488 C 420.521 387.032, 413.063 392.219, 403.974 398.016 C 374.566 416.773, 348.982 435.058, 328 452.316 C 314.926 463.070, 292.215 486.487, 285.148 496.500 C 259.487 532.858, 258.318 568.076, 281.803 597.262 C 297.149 616.332, 323.504 627.818, 361.500 631.994 C 383.471 634.409, 433.985 632.783, 471.500 628.453 C 497.631 625.437, 555.948 616.451, 568.886 613.448 C 571.230 612.903, 571.260 612.986, 570.578 618.126 C 570.196 621.003, 568.069 632.390, 565.852 643.429 C 541.819 763.066, 501.770 842.806, 447.055 879.963 C 443.725 882.224, 441 884.451, 441 884.912 C 441 886.353, 490.767 967.422, 491.879 967.793 C 492.460 967.987, 497.562 964.977, 503.217 961.104 C 549.214 929.609, 588.100 879.632, 616.507 815.500 C 640.535 761.256, 658.232 696.165, 671.545 613.065 C 673.434 601.276, 675.391 591.376, 675.895 591.065 C 676.399 590.754, 691.254 586.910, 708.906 582.522 C 730.301 577.204, 741 574.114, 741 573.255 C 741 572.547, 737.115 557.237, 732.367 539.233 L 723.734 506.500 718.117 498.546 C 696.036 467.277, 665.151 451.023, 637.434 456.083 C 625.349 458.290, 611.569 465.408, 604.395 473.149 C 597.147 480.971, 591.400 492.168, 588.956 503.232 C 588.166 506.810, 587.090 509.145, 586.095 509.446 C 577.565 512.024, 506.213 524.384, 479.500 527.910 C 438.537 533.318, 385 536.805, 385 534.066 C 385 532.925, 404.687 517.139, 419 506.803 C 460.300 476.979, 527.499 437.749, 595.734 403.628 L 622.967 390.009 619.590 380.755 C 605.750 342.833, 591.728 305.379, 591.142 304.770 C 590.756 304.369, 581.004 306.471, 569.470 309.442 C 544.705 315.821, 538.963 316.543, 525 315.030 C 499.012 312.214, 464.059 300.068, 462.350 293.259 C 461.245 288.856, 462.763 276.680, 465.276 269.790 L 467.723 263.080 425.611 240.898 C 402.450 228.697, 382.755 218.336, 381.844 217.873 C 380.467 217.172, 379.580 218.482, 376.586 225.633 " stroke="none" fill="black" fill-rule="evenodd"/>
</svg>