<svg xmlns="http://www.w3.org/2000/svg" width="1000" height="1000" viewBox="0 0 1000 1000" version="1.1">
	<path d="M 274.814 136.893 L 254.361 181.500 257.519 183.191 C 270.529 190.158, 325.112 209.231, 351.252 215.944 C 366.452 219.849, 391.384 225.092, 401.295 226.470 L 406.090 227.136 400.362 233.318 C 375.246 260.426, 356.838 293.871, 350.531 323.855 C 346.365 343.656, 346.760 368.476, 351.464 382.487 C 359.321 405.893, 378.818 422.740, 405.500 429.179 C 410.450 430.373, 414.691 431.500, 414.924 431.683 C 415.157 431.865, 400.080 447.424, 381.419 466.257 C 338.037 510.040, 312.992 536.674, 290.917 562.500 C 274.388 581.838, 212.071 660.567, 123.902 773.500 C 77.480 832.961, 80.434 829.023, 81.652 829.830 C 82.208 830.198, 99.569 843.662, 120.232 859.750 C 140.895 875.837, 158.045 889, 158.343 889 C 158.641 889, 173.038 870.881, 190.335 848.735 L 221.784 808.470 235.392 798.985 C 298.595 754.930, 357.139 730, 397.392 730 C 409.488 730, 415.825 731.347, 424.174 735.694 C 437.800 742.787, 451.794 758.148, 480.479 797.500 C 523.888 857.052, 547.475 880.317, 582.675 898.297 C 604.657 909.526, 625.232 914.761, 651.013 915.686 C 676.530 916.601, 695.940 913.677, 722 904.991 C 771.002 888.659, 817.977 858.280, 871.500 808.310 C 893.635 787.644, 922.080 756.668, 920.421 755.036 C 918.247 752.898, 845.450 694.022, 844.967 694.011 C 844.675 694.005, 840.625 698.322, 835.967 703.605 C 817.382 724.689, 785.167 754.518, 762.337 771.784 C 732.545 794.315, 699.504 810.939, 675.316 815.567 C 665.331 817.477, 648.404 817.412, 640.644 815.433 C 631.568 813.119, 621.353 807.743, 612.359 800.547 C 598.225 789.238, 588.290 777.559, 560.007 739 C 537.213 707.925, 525.791 693.862, 512.500 680.509 C 486.386 654.274, 458.801 639.075, 427.013 633.411 C 413.273 630.962, 391.621 630.537, 375.087 632.391 C 367.160 633.280, 360.527 633.860, 360.347 633.681 C 359.753 633.086, 384.860 604.874, 406.337 582 C 433.991 552.550, 510.180 476.469, 555.521 433.030 C 575.309 414.071, 591.657 397.925, 591.849 397.149 C 592.276 395.417, 575.968 307.812, 575.014 306.716 C 574.638 306.284, 560.134 309.962, 542.783 314.888 C 525.432 319.815, 503.645 325.416, 494.367 327.336 C 475.865 331.165, 452.252 334.585, 451.248 333.581 C 449.418 331.751, 461.919 312.539, 473.378 299.572 C 498.875 270.720, 554.175 232.595, 605.524 208.468 L 616.930 203.109 615.076 197.804 C 607.971 177.471, 585.955 115.005, 585.131 112.840 L 584.118 110.180 574.809 112.577 C 525.648 125.236, 461.039 132.964, 428.500 130.075 C 396.621 127.245, 351.489 115.098, 309.383 98.013 L 295.267 92.285 274.814 136.893 " stroke="none" fill="black" fill-rule="evenodd"/>
</svg>