<?xml version="1.0" encoding="UTF-8" standalone="no"?>
<svg
   xmlns:dc="http://purl.org/dc/elements/1.1/"
   xmlns:cc="http://creativecommons.org/ns#"
   xmlns:rdf="http://www.w3.org/1999/02/22-rdf-syntax-ns#"
   xmlns:svg="http://www.w3.org/2000/svg"
   xmlns="http://www.w3.org/2000/svg"
   xmlns:sodipodi="http://sodipodi.sourceforge.net/DTD/sodipodi-0.dtd"
   xmlns:inkscape="http://www.inkscape.org/namespaces/inkscape"
   inkscape:version="1.0 (4035a4fb49, 2020-05-01)"
   sodipodi:docname="u1b079.svg"
   id="svg6"
   height="200"
   width="200"
   viewBox="0 0 200 200"
   version="1.1">
  <metadata
     id="metadata12">
    <rdf:RDF>
      <cc:Work
         rdf:about="">
        <dc:format>image/svg+xml</dc:format>
        <dc:type
           rdf:resource="http://purl.org/dc/dcmitype/StillImage" />
      </cc:Work>
    </rdf:RDF>
  </metadata>
  <defs
     id="defs10" />
  <sodipodi:namedview
     inkscape:current-layer="svg6"
     inkscape:window-maximized="1"
     inkscape:window-y="28"
     inkscape:window-x="0"
     inkscape:cy="117.92554"
     inkscape:cx="113.36045"
     inkscape:zoom="1.9905056"
     showgrid="false"
     id="namedview8"
     inkscape:window-height="846"
     inkscape:window-width="1440"
     inkscape:pageshadow="2"
     inkscape:pageopacity="0"
     guidetolerance="10"
     gridtolerance="10"
     objecttolerance="10"
     borderopacity="1"
     bordercolor="#666666"
     pagecolor="#ffffff" />
  <g
     id="g4"
     fill="black">
    <path
       sodipodi:nodetypes="ssccccccsccscsccccccccccsccscssccccccccssccsscccc"
       d="m 103.1461,27.207698 c 1.76357,2.510131 2.23911,6.930745 0.95845,10.280922 -1.36541,3.571883 -2.79446,7.118942 -4.191686,10.678417 C 108.61557,46.674498 116.89945,43.359812 124.9,39.7 c 2.03333,4.166667 4.06667,8.333333 6.1,12.5 -11.51118,5.650664 -23.92736,9.831751 -36.77592,10.768194 -4.59187,11.990623 -9.119362,24.005175 -13.436392,36.097761 7.234313,-0.73706 14.388673,-2.064021 21.481602,-3.647936 1.89518,-5.575826 5.66351,-10.284261 10.95963,-9.944508 9.05672,0.580998 11.35312,12.618061 13.16963,17.944319 -3.76549,1.17569 -7.55605,2.26609 -11.35498,3.32802 -0.7486,21.59026 -0.0314,43.20461 -0.0649,64.80517 -0.009,5.62124 -5.22724,10.07243 -9.48148,12.747 C 98.92478,177.51611 91.757873,173.73216 85.407682,170.09076 80.698787,167.39053 75.820516,164.99484 70.9,162.7 c 1.966667,-4.23333 3.933333,-8.46667 5.9,-12.7 8.226862,4.01993 16.462765,8.07879 24.13797,13.09873 0.0183,-17.65915 -0.43946,-35.32329 -0.0676,-52.97879 C 89.397293,112.49141 77.711549,113.76457 66,114 65.225087,108.90366 64.713179,106.36301 66.723274,99.635632 70.419509,89.319996 75.478422,72.936327 79.332349,62.678792 70.01344,61.578383 61.152977,58.142719 53.1,53.4 l 7.4,-11.9 c 7.295654,4.378602 15.54651,7.151826 24.059259,7.640621 2.108432,-4.363036 3.949939,-8.512504 5.675335,-13.497918 C 91.125074,33.069722 84.974398,29.939715 81.8,28.9 L 86,15.6 c 8.245606,2.816646 13.047013,5.77337 17.1461,11.607698 z M 86.9,138.4 c -12.02891,7.24699 -38.540022,26.42839 -50.08298,22.42388 -8.772672,-3.04343 -9.64168,-9.75493 -8.278976,-16.32117 C 29.516205,139.7894 32.011953,135.59498 34.7,131.7 c 3.766667,2.73333 7.533333,5.46667 11.3,8.2 -1.200118,1.98404 -2.724307,3.92718 -3.479837,6.12268 -0.940248,1.98405 1.408607,0.54144 2.357784,0.15167 6.095176,-2.50932 11.916549,-6.04981 17.653436,-9.33318 C 68.192666,133.49107 73.846251,130.1267 79.4,126.6 c 2.5,3.93333 5,7.86667 7.5,11.8 z m 63.7,-19.8 c 10.29614,1.03104 14.22683,3.14613 18.76341,8.91862 3.08997,3.93178 3.74539,12.0702 -0.97296,16.91493 -5.93321,6.09214 -14.95434,9.55221 -24.29049,12.86645 -1.46667,-4.43333 -2.93333,-8.86667 -4.4,-13.3 5.21145,-1.8295 10.49634,-3.70525 15.16625,-6.68014 1.03369,-0.6585 1.14962,-1.56097 0.31564,-2.25921 -4.17102,-3.49219 -10.47098,-3.00401 -15.48189,-1.56065 -1.16667,-4.53333 -2.33333,-9.06667 -3.5,-13.6 4.72679,-1.11072 9.5429,-1.78578 14.4,-1.3 z"
       id="path2" />
  </g>
</svg>
