<?xml version="1.0" encoding="UTF-8" standalone="no"?>
<svg
   xmlns:dc="http://purl.org/dc/elements/1.1/"
   xmlns:cc="http://creativecommons.org/ns#"
   xmlns:rdf="http://www.w3.org/1999/02/22-rdf-syntax-ns#"
   xmlns:svg="http://www.w3.org/2000/svg"
   xmlns="http://www.w3.org/2000/svg"
   xmlns:sodipodi="http://sodipodi.sourceforge.net/DTD/sodipodi-0.dtd"
   xmlns:inkscape="http://www.inkscape.org/namespaces/inkscape"
   inkscape:version="1.0 (4035a4fb49, 2020-05-01)"
   sodipodi:docname="u1b071.svg"
   id="svg6"
   height="200"
   width="200"
   viewBox="0 0 200 200"
   version="1.1">
  <metadata
     id="metadata12">
    <rdf:RDF>
      <cc:Work
         rdf:about="">
        <dc:format>image/svg+xml</dc:format>
        <dc:type
           rdf:resource="http://purl.org/dc/dcmitype/StillImage" />
      </cc:Work>
    </rdf:RDF>
  </metadata>
  <defs
     id="defs10" />
  <sodipodi:namedview
     inkscape:current-layer="svg6"
     inkscape:window-maximized="1"
     inkscape:window-y="28"
     inkscape:window-x="0"
     inkscape:cy="70.977221"
     inkscape:cx="65.783272"
     inkscape:zoom="1.9905056"
     showgrid="false"
     id="namedview8"
     inkscape:window-height="846"
     inkscape:window-width="1440"
     inkscape:pageshadow="2"
     inkscape:pageopacity="0"
     guidetolerance="10"
     gridtolerance="10"
     objecttolerance="10"
     borderopacity="1"
     bordercolor="#666666"
     pagecolor="#ffffff" />
  <g
     id="g4"
     fill="black">
    <path
       sodipodi:nodetypes="cccccsscccccccccccccccccccccccssccssscsccccccccc"
       d="m 146.4,34.3 c -8.28226,10.161375 -18.23331,18.834441 -28.2,27.3 l -9,-10.6 c 0.79699,-1.029568 6.1926,-4.603106 3.49994,-3.730808 -8.90282,2.474587 -17.869194,5.01714 -27.102409,5.841919 8.333381,1.937725 16.831539,6.349085 18.666899,15.381041 0.57831,2.845933 -0.16691,6.376194 -0.62445,9.515958 -0.37931,2.602895 -1.05705,5.740582 -1.33998,7.99189 12.31413,-2.580054 24.72322,-4.769868 36.74298,-8.559542 L 153.8,73.3 c 1.43333,4.433333 2.86667,8.866667 4.3,13.3 -13.97775,3.795661 -27.77277,8.342943 -42.06898,10.828701 -5.94217,1.196443 -11.8442,2.639679 -17.900101,3.136809 -1.720616,5.92623 -4.331039,11.50647 -6.84913,17.12261 5.668755,-1.18135 11.344181,-0.1537 17.018211,0.41188 6.14545,1.8347 12.35379,3.51052 17.93978,6.75882 6.14196,2.83965 11.60389,6.977 17.0443,10.94504 6.14032,5.10132 12.13236,10.35716 17.33939,16.431 5.65573,5.68715 10.07072,12.42672 15.07653,18.66514 -3.83333,2.7 -7.66667,5.4 -11.5,8.1 -5.52069,-7.28728 -10.86872,-14.72045 -17.43369,-21.1253 -4.64962,-4.98277 -9.92169,-9.42484 -15.36986,-13.49831 -5.69217,-4.16642 -11.83165,-7.70974 -18.40938,-10.25282 -5.47361,-1.95937 -11.238,-3.31902 -17.071997,-2.95508 -5.823244,0.1976 -11.768987,2.10067 -16.016042,6.16677 C 71.877376,149.213 62.104081,159.8394 51.413265,169.36389 47.462885,172.88075 43.253794,176.1015 39.2,179.5 l -8.5,-11.1 c 12.732316,-10.08887 24.693254,-21.28978 34.384556,-34.38308 7.258504,-9.74965 13.174611,-20.4524 17.747371,-31.71181 -7.907135,-0.0944 -15.768709,0.0937 -23.667195,-1.03823 C 53.530829,100.45947 47.980692,99.254083 43.4,96.1 29.71242,86.675276 35.80422,71.339324 55.08932,63.47864 L 61.2,75.7 c -3.404408,2.18199 -7.039492,4.083159 -9.856378,6.981835 -0.864532,0.889634 0.03046,1.83349 0.726407,2.215924 C 56.772218,87.481702 62.332269,88.078028 67.6,88.4 c 6.577312,0.402016 13.218945,0.333478 19.757791,-0.637586 1.506798,-5.414386 2.430452,-9.691106 3.034273,-15.271177 C 90.720222,69.458633 82.915567,67.000796 78.8,66 L 80.871087,53.573481 C 74.830352,53.478302 68.615016,52.924574 63.107684,50.299773 57.153258,47.625542 50.65542,41.699595 46.877662,36.415239 51.334547,32.975402 53.427733,31.118182 58.3,27.8 62.030156,33.141013 67.067849,38.117545 73.79624,39.068584 84.341488,40.563828 94.839739,37.414936 104.98692,34.84163 115.33235,32.022901 125.5125,28.63747 135.7,25.3 c 3.86497,3.422356 5.05088,4.196036 10.7,9 z"
       id="path2" />
  </g>
</svg>
