<?xml version="1.0" encoding="UTF-8" standalone="no"?>
<svg
   xmlns:dc="http://purl.org/dc/elements/1.1/"
   xmlns:cc="http://creativecommons.org/ns#"
   xmlns:rdf="http://www.w3.org/1999/02/22-rdf-syntax-ns#"
   xmlns:svg="http://www.w3.org/2000/svg"
   xmlns="http://www.w3.org/2000/svg"
   xmlns:sodipodi="http://sodipodi.sourceforge.net/DTD/sodipodi-0.dtd"
   xmlns:inkscape="http://www.inkscape.org/namespaces/inkscape"
   inkscape:version="1.0 (4035a4fb49, 2020-05-01)"
   sodipodi:docname="u1b07b.svg"
   id="svg6"
   height="200"
   width="200"
   viewBox="0 0 200 200"
   version="1.1">
  <metadata
     id="metadata12">
    <rdf:RDF>
      <cc:Work
         rdf:about="">
        <dc:format>image/svg+xml</dc:format>
        <dc:type
           rdf:resource="http://purl.org/dc/dcmitype/StillImage" />
      </cc:Work>
    </rdf:RDF>
  </metadata>
  <defs
     id="defs10" />
  <sodipodi:namedview
     inkscape:current-layer="svg6"
     inkscape:window-maximized="1"
     inkscape:window-y="28"
     inkscape:window-x="0"
     inkscape:cy="94.481564"
     inkscape:cx="120.95024"
     inkscape:zoom="2.815"
     showgrid="false"
     id="namedview8"
     inkscape:window-height="846"
     inkscape:window-width="1440"
     inkscape:pageshadow="2"
     inkscape:pageopacity="0"
     guidetolerance="10"
     gridtolerance="10"
     objecttolerance="10"
     borderopacity="1"
     bordercolor="#666666"
     pagecolor="#ffffff" />
  <g
     id="g4"
     fill="black">
    <path
       sodipodi:nodetypes="ccccssccsssscccccscsssssssccsscssssssccccsscccccsscscccc"
       d="m 131.3,124.2 3.3,13.5 c -8.83913,1.99804 -17.96285,2.38307 -26.82004,4.38445 -8.874404,1.83738 -18.757068,3.84716 -24.977244,10.96148 -1.780399,2.14549 -3.583173,5.64164 -0.602716,7.65407 5.904188,3.98656 13.309136,4.78455 20.24114,5.12019 13.16004,0.63719 26.23498,-1.4187 39.15886,-3.72019 l 2.7,13.7 c -10.09677,1.76708 -20.20082,3.47551 -30.45718,3.94353 -8.00896,0.36547 -16.082274,0.3391 -23.961379,-1.27475 C 84.515,177.36959 79.236865,175.59133 74.725837,172.3597 62.759996,163.78755 65.669382,150.66492 73.916204,142.01929 78.84433,136.85284 85.433593,133.70795 92.196747,131.59717 87.960157,128.28548 85.555024,123.30557 84.2,118.2 c 4.6,-0.83333 9.2,-1.66667 13.8,-2.5 6.75442,12.70155 20.34828,10.47256 33.3,8.5 z M 79.367192,45.259621 c 8.512362,-0.867451 15.817192,4.100107 22.887648,8.656581 1.62067,1.044419 3.07648,-4.30188 4.56503,-6.200335 C 109.70163,43.064019 113.82144,38.32801 117.6,35.8 c 8.63497,-5.777146 20.67116,-7.189296 30.08648,-5.008464 10.27706,2.380432 18.9993,9.465237 24.54648,18.477321 4.19366,6.813129 4.03677,15.792033 -2.17825,20.917497 -4.17541,3.443423 -9.10017,5.408646 -14.12536,6.927351 -16.91708,5.112655 -34.93002,5.656549 -51.74162,11.143544 -3.84335,1.254398 -3.73893,2.576145 0.2498,3.520036 C 112.76195,93.74717 121.22272,94.968156 129.7,96 l -1.5,13.9 c -11.64236,-1.4397 -23.68239,-2.50775 -34.472717,-7.35454 -15.959048,-7.168481 -8.860135,-23.346721 4.199212,-26.828661 17.370195,-4.631317 35.179655,-6.892904 52.474965,-11.629402 2.70235,-0.768708 5.50185,-1.561568 8.08065,-2.74143 2.04168,-0.934114 2.98458,-2.495044 2.24088,-4.0498 C 155.65722,46.705895 142.14673,41.159996 130.90709,45.242214 126.23906,46.937634 122.04328,49.64022 119.4,54 115.78041,59.970084 112.39283,66.622871 105.22895,68.885596 100.85255,70.267892 96.777902,67.961815 92.7,64.1 89.1581,60.745784 84.400732,58.51051 79.463405,59.176144 c -0.04084,8.931892 -0.192806,17.861938 -0.555784,26.78762 -4.295944,4.564297 -4.829159,5.514914 -9.449964,10.828379 C 65.044638,91.761391 59.073669,82.463409 54.945084,77.206976 48.248439,84.542468 39.814746,94.398108 28.604706,86.273213 21.488817,81.115706 20.775614,69.930499 24.920534,62.520727 31.83029,50.168328 43.616506,49.125891 54.088384,57.455207 57.430335,54.205837 61.269257,51.015757 65.4,48.763158 65.360835,36.7006 65.407446,33.478691 53,30 l 3.8,-13.5 c 18.514219,8.520706 22.203836,10.811992 22.567192,28.759621 z M 38.209496,66.8 c -2.369732,2.201947 -2.998318,7.562329 -0.477255,8.222116 2.107739,0.551616 4.826458,-3.571725 7.805247,-7.260391 C 42.780288,64.978934 41.101099,64.113133 38.209496,66.8 Z m 25.927111,0.06998 c 0.399211,0.383025 0.517215,0.482734 1.000655,0.920433 0.07352,-1.160192 0.176956,-1.075248 0.213477,-1.953619 -0.707208,0.441463 -0.740011,0.614548 -1.214132,1.033186 z"
       id="path2" />
  </g>
</svg>
