<?xml version="1.0" encoding="UTF-8" standalone="no"?>
<svg
   xmlns:dc="http://purl.org/dc/elements/1.1/"
   xmlns:cc="http://creativecommons.org/ns#"
   xmlns:rdf="http://www.w3.org/1999/02/22-rdf-syntax-ns#"
   xmlns:svg="http://www.w3.org/2000/svg"
   xmlns="http://www.w3.org/2000/svg"
   xmlns:sodipodi="http://sodipodi.sourceforge.net/DTD/sodipodi-0.dtd"
   xmlns:inkscape="http://www.inkscape.org/namespaces/inkscape"
   inkscape:version="1.0 (4035a4fb49, 2020-05-01)"
   sodipodi:docname="u1b07c.svg"
   id="svg6"
   height="200"
   width="200"
   viewBox="0 0 200 200"
   version="1.1">
  <metadata
     id="metadata12">
    <rdf:RDF>
      <cc:Work
         rdf:about="">
        <dc:format>image/svg+xml</dc:format>
        <dc:type
           rdf:resource="http://purl.org/dc/dcmitype/StillImage" />
      </cc:Work>
    </rdf:RDF>
  </metadata>
  <defs
     id="defs10" />
  <sodipodi:namedview
     inkscape:current-layer="svg6"
     inkscape:window-maximized="1"
     inkscape:window-y="28"
     inkscape:window-x="0"
     inkscape:cy="59.784748"
     inkscape:cx="107.83516"
     inkscape:zoom="1.4075"
     showgrid="false"
     id="namedview8"
     inkscape:window-height="846"
     inkscape:window-width="1440"
     inkscape:pageshadow="2"
     inkscape:pageopacity="0"
     guidetolerance="10"
     gridtolerance="10"
     objecttolerance="10"
     borderopacity="1"
     bordercolor="#666666"
     pagecolor="#ffffff" />
  <g
     id="g4"
     fill="black">
    <path
       sodipodi:nodetypes="cscccssssccccssssccccsccccccccscccccssccccccssccsscc"
       d="m 122.4,24.4 c 0.63859,2.844425 2.38747,6.922553 4.6,7.9 2.49883,1.103931 23.84873,-5.193212 35.7,-8.1 3.60549,3.304725 7.50918,7.012784 9.94021,8.775627 -8.18438,10.560293 -18.63429,24.49309 -26.91453,34.979237 3.98817,-0.540095 7.25764,-1.285266 11.25702,-1.131697 25.57212,0.981922 23.99865,31.143111 12.99036,44.681523 C 159.59293,124.27057 139.01501,142.48943 125.9,152.4 c -4.65844,3.52023 -7.03882,9.44874 -1.82803,10.8 12.00575,3.11332 23.63716,1.6952 35.89869,0.79498 5.74312,-0.665 11.48623,-1.32999 17.22934,-1.99498 0.63333,4.63333 1.26667,9.26667 1.9,13.9 -15.03644,1.85487 -30.17881,3.70097 -45.35149,2.74844 -5.24296,-0.16519 -10.60035,-0.9131 -15.57261,-2.48585 -17.31646,-5.4773 -14.38884,-23.61722 -3.87909,-32.61827 15.12872,-12.95696 30.74907,-25.5179 44.01671,-40.43621 C 165.51298,95.012936 163.80147,80.430883 155.5,80.7 c -6.58045,0.213325 -13.89876,1.933223 -19.97843,5.431299 -4.25681,2.27964 -8.05194,5.456193 -11.02157,9.268701 -3.61581,-2.996612 -7.31897,-5.884543 -11,-8.8 11.60491,-14.765455 23.07026,-29.638183 34.49961,-44.539494 -7.61519,1.682318 -20.50304,5.744644 -27.80445,1.676911 C 112.63503,39.525544 109.01905,31.877748 108.1,23.7 L 122,22.2 c 0.13333,0.733333 0.26667,1.466667 0.4,2.2 z m -38.521131,4.738475 c 2.974561,3.035829 7.181236,7.539865 9.541679,9.792667 -9.967653,10.964293 -18.214731,25.853003 -25.330185,38.758634 -6.217046,12.020307 -12.261012,24.133464 -17.798258,36.483904 2.510895,1.62779 6.101244,3.85131 7.443965,6.76448 6.601526,-17.34548 17.033738,-16.13299 22.84507,-8.45324 0.989022,1.30701 1.835828,3.03623 2.847845,5.31528 C 87.352253,104.99986 92.444308,91.088888 97,78.5 l 13.2,4.8 c -6.30558,17.73183 -13.455502,39.94519 -17.373203,58.38606 -3.562955,0.49346 -6.456389,1.16117 -13.626797,2.91394 -1.877519,-6.87085 -3.931701,-13.77746 -7.463979,-20.00063 -1.424943,-2.51047 -2.65242,3.14664 -3.299004,4.85219 C 65.376631,137.52419 63.757755,146.39034 61.9,154.6 57.266667,154.83333 52.633333,155.06667 48,155.3 47.434272,146.51861 47.015758,137.65747 44.846759,129.09279 40.02573,136.01273 37.18876,144.03398 33.8,151.7 29.495667,149.86248 25.14753,148.13198 20.8,146.4 36.439973,112.78259 51.260997,76.137601 67.668274,50.08034 59.864362,53.597447 47.95979,55.043076 40.304266,52.002138 36.266784,50.398364 32.666551,47.729066 30.164935,44.222156 27.623404,40.65929 26.357636,36.511191 25.3,32.3 L 39,29.6 c 0.860243,4.563256 3.45521,9.492684 8.645877,10.059445 C 56.24746,40.598638 64.642456,37.29128 72.467325,34.120978 76.309841,32.564155 79.950169,30.561205 83.7,28.8 Z"
       id="path2" />
  </g>
</svg>
