<?xml version="1.0" encoding="UTF-8" standalone="no"?>
<svg
   xmlns:dc="http://purl.org/dc/elements/1.1/"
   xmlns:cc="http://creativecommons.org/ns#"
   xmlns:rdf="http://www.w3.org/1999/02/22-rdf-syntax-ns#"
   xmlns:svg="http://www.w3.org/2000/svg"
   xmlns="http://www.w3.org/2000/svg"
   xmlns:sodipodi="http://sodipodi.sourceforge.net/DTD/sodipodi-0.dtd"
   xmlns:inkscape="http://www.inkscape.org/namespaces/inkscape"
   inkscape:version="1.0 (4035a4fb49, 2020-05-01)"
   sodipodi:docname="u1b07d.svg"
   id="svg6"
   height="200"
   width="200"
   viewBox="0 0 200 200"
   version="1.1">
  <metadata
     id="metadata12">
    <rdf:RDF>
      <cc:Work
         rdf:about="">
        <dc:format>image/svg+xml</dc:format>
        <dc:type
           rdf:resource="http://purl.org/dc/dcmitype/StillImage" />
      </cc:Work>
    </rdf:RDF>
  </metadata>
  <defs
     id="defs10" />
  <sodipodi:namedview
     inkscape:current-layer="svg6"
     inkscape:window-maximized="1"
     inkscape:window-y="28"
     inkscape:window-x="0"
     inkscape:cy="32.445753"
     inkscape:cx="130.11942"
     inkscape:zoom="1.4075"
     showgrid="false"
     id="namedview8"
     inkscape:window-height="846"
     inkscape:window-width="1440"
     inkscape:pageshadow="2"
     inkscape:pageopacity="0"
     guidetolerance="10"
     gridtolerance="10"
     objecttolerance="10"
     borderopacity="1"
     bordercolor="#666666"
     pagecolor="#ffffff" />
  <g
     id="g4"
     fill="black">
    <path
       sodipodi:nodetypes="ssccccssccccccccccccsccscssccsscccccssccc"
       d="m 93.608395,29.336764 c 1.612965,2.517762 3.378147,9.036745 4.138607,12.153428 1.797903,7.368553 2.478198,13.300698 4.256408,21.028445 C 111.2263,59.032712 119.84522,54.195577 128.2,49 l 7.5,11.9 c -9.90969,6.103266 -20.17712,11.686431 -31.11723,15.722812 4.09762,23.959268 9.81153,47.595968 14.38464,71.459878 1.50332,7.84476 2.98915,15.98859 1.79428,23.93493 -0.63602,4.22973 -3.39066,9.76758 -5.89874,13.22806 C 104.83385,173.86931 91.474427,163.21411 79.8,154.6 c 2.766667,-3.76667 5.533333,-7.53333 8.3,-11.3 6.187444,4.55511 12.37089,9.12129 18.27398,14.04236 C 102.62972,135.41595 97.146776,113.82258 93.127451,91.942544 92.395878,88.156827 91.747773,84.355259 91.049504,80.563216 82.596275,82.405731 73.849818,82.864793 65.296046,81.438658 58.360634,80.316665 51.752932,77.500585 45.77212,73.859008 L 39.1,68.9 48.3,58.3 c 7.925736,6.867934 18.466179,10.742545 28.977826,9.936887 3.813895,0.03896 7.535329,-0.856755 11.293142,-1.384723 C 87.110219,55.361183 84.493641,44.58028 82.42756,38.055275 80.443476,31.789228 73.300564,29.839592 67,30 V 16 c 11.49892,0.333569 21.510032,5.378465 26.608395,13.336764 z M 39.5,115.6 c -2.571466,9.691 -2.201615,20.17072 2.445401,29.04391 0.711073,1.35775 2.134525,1.30136 3.253938,-0.0466 5.391408,-6.49224 7.652681,-10.84871 12.485427,-20.4595 3.9,2.56667 8.215234,5.09554 12.115234,7.66221 -5.837726,8.97524 -11.670632,21.25764 -17.4,27 -3.540279,3.54831 -9.201747,7.37741 -15.724131,2.02571 C 23.779424,150.24401 21.484789,132.48592 25.9,112.2 c 4.533333,1.13333 9.066667,2.26667 13.6,3.4 z M 173.31318,69.586639 c -2.13251,7.06513 -23.10996,30.572451 -32.4949,37.942981 -2.85924,-3.10001 -5.75905,-6.62961 -8.61828,-9.72962 15.19541,-15.149418 27.27401,-26.836451 28.3525,-33.843115 0.52311,-3.398524 -1.7436,-5.373849 -3.86422,-6.446909 -2.40985,-1.219413 -2.28712,-0.567952 -3.89204,-1.259976 0.74755,-3.531544 1.85621,-10.418456 2.60376,-13.95 20.40498,3.497012 21.29618,18.957345 17.91318,27.286639 z"
       id="path2" />
  </g>
</svg>
