<?xml version="1.0" encoding="UTF-8" standalone="no"?>
<svg
   xmlns:dc="http://purl.org/dc/elements/1.1/"
   xmlns:cc="http://creativecommons.org/ns#"
   xmlns:rdf="http://www.w3.org/1999/02/22-rdf-syntax-ns#"
   xmlns:svg="http://www.w3.org/2000/svg"
   xmlns="http://www.w3.org/2000/svg"
   xmlns:sodipodi="http://sodipodi.sourceforge.net/DTD/sodipodi-0.dtd"
   xmlns:inkscape="http://www.inkscape.org/namespaces/inkscape"
   inkscape:version="1.0 (4035a4fb49, 2020-05-01)"
   sodipodi:docname="u1b07f.svg"
   id="svg6"
   height="200"
   width="200"
   viewBox="0 0 200 200"
   version="1.1">
  <metadata
     id="metadata12">
    <rdf:RDF>
      <cc:Work
         rdf:about="">
        <dc:format>image/svg+xml</dc:format>
        <dc:type
           rdf:resource="http://purl.org/dc/dcmitype/StillImage" />
      </cc:Work>
    </rdf:RDF>
  </metadata>
  <defs
     id="defs10" />
  <sodipodi:namedview
     inkscape:current-layer="svg6"
     inkscape:window-maximized="1"
     inkscape:window-y="28"
     inkscape:window-x="0"
     inkscape:cy="120.00487"
     inkscape:cx="39.873177"
     inkscape:zoom="1.9905056"
     showgrid="false"
     id="namedview8"
     inkscape:window-height="846"
     inkscape:window-width="1440"
     inkscape:pageshadow="2"
     inkscape:pageopacity="0"
     guidetolerance="10"
     gridtolerance="10"
     objecttolerance="10"
     borderopacity="1"
     bordercolor="#666666"
     pagecolor="#ffffff" />
  <g
     id="g4"
     fill="black">
    <path
       sodipodi:nodetypes="scccccssscccssccccccccccccccccssccs"
       d="M 105.9355,34.165032 C 103.8252,42.205654 96.809358,51.913303 90.390724,58.516106 102.47421,54.333316 114.73226,50.267242 126.9,46.6 c 3.49712,2.911989 7.43403,5.508959 11.1,8.3 -13.16661,16.217206 -27.77877,31.191958 -41.692815,46.76042 5.656435,7.50408 8.484515,16.70704 10.197005,25.84271 11.89268,-9.07707 27.30947,-14.30981 42.05042,-13.33282 18.62416,1.23436 25.24793,15.42532 25.22875,25.38132 -0.0118,6.12965 -0.57732,11.92056 -5.9509,17.86068 C 152.8186,174.0091 133.32879,181.98188 114.8,190.4 l -5.7,-12.9 c 15.49673,-7.10663 31.59543,-13.93818 44.52924,-25.29682 3.34642,-3.15416 5.08803,-7.35454 5.44498,-12.87927 0.44997,-6.96452 -5.61125,-10.91792 -12.82868,-11.27088 -15.43036,-0.7546 -31.54662,7.35439 -40.98357,19.79859 -4.80569,-3.82202 -7.280675,-5.26298 -11.610603,-8.00175 -0.932058,-9.10155 -2.298847,-19.7169 -7.02299,-27.68532 C 69.53508,130.75317 52.254041,149.16761 35.1,167.7 c -3.433333,-3.16667 -6.866667,-6.33333 -10.3,-9.5 4.129159,-9.28377 6.981019,-21.59465 8.522444,-28.0761 5.301272,1.30847 7.564702,1.27674 13.239954,2.3788 -0.446915,1.45966 -0.621943,2.2994 -0.766821,3.23844 C 55.77232,124.90628 66.789212,113.00062 75.695668,103.35121 72.489881,102.42438 69.102223,102.62001 65.8,102.8 L 64.1,88.9 c 7.362306,-0.679653 15.065575,-0.04414 21.63624,3.554468 7.796875,-8.453007 15.53863,-16.956246 23.22936,-25.50592 C 92.609932,72.628777 75.856233,77.676969 60.6,86 L 53.3,73.9 C 57.683256,69.595729 63.602789,65.350226 68.325357,60.766163 76.679141,53.146735 85.058419,44.995192 90.093626,34.719123 91.309201,32.238324 91.305091,29.204675 88.394421,27.87438 86.070375,26.812196 85.664436,26.958604 82.73616,26.169826 L 86.6,12.4 c 13.51378,4.567727 22.26099,10.618378 19.3355,21.765032 z"
       id="path2" />
  </g>
</svg>
