<?xml version="1.0" encoding="UTF-8" standalone="no"?>
<svg
   xmlns:dc="http://purl.org/dc/elements/1.1/"
   xmlns:cc="http://creativecommons.org/ns#"
   xmlns:rdf="http://www.w3.org/1999/02/22-rdf-syntax-ns#"
   xmlns:svg="http://www.w3.org/2000/svg"
   xmlns="http://www.w3.org/2000/svg"
   xmlns:sodipodi="http://sodipodi.sourceforge.net/DTD/sodipodi-0.dtd"
   xmlns:inkscape="http://www.inkscape.org/namespaces/inkscape"
   inkscape:version="1.0 (4035a4fb49, 2020-05-01)"
   sodipodi:docname="u1b07e.svg"
   id="svg6"
   height="200"
   width="200"
   viewBox="0 0 200 200"
   version="1.1">
  <metadata
     id="metadata12">
    <rdf:RDF>
      <cc:Work
         rdf:about="">
        <dc:format>image/svg+xml</dc:format>
        <dc:type
           rdf:resource="http://purl.org/dc/dcmitype/StillImage" />
      </cc:Work>
    </rdf:RDF>
  </metadata>
  <defs
     id="defs10" />
  <sodipodi:namedview
     inkscape:current-layer="svg6"
     inkscape:window-maximized="1"
     inkscape:window-y="28"
     inkscape:window-x="0"
     inkscape:cy="98.391827"
     inkscape:cx="64.602724"
     inkscape:zoom="1.9905056"
     showgrid="false"
     id="namedview8"
     inkscape:window-height="846"
     inkscape:window-width="1440"
     inkscape:pageshadow="2"
     inkscape:pageopacity="0"
     guidetolerance="10"
     gridtolerance="10"
     objecttolerance="10"
     borderopacity="1"
     bordercolor="#666666"
     pagecolor="#ffffff" />
  <g
     id="g4"
     fill="black">
    <path
       sodipodi:nodetypes="cccccasscsccccssccccccccsscccccscssaccccccccccccccscc"
       d="M 96.933898,37.476535 C 108.09705,36.061815 118.84271,32.545554 129.3,28.5 c 1.76667,4.3 3.53333,8.6 5.3,12.9 -13.25791,5.27776 -27.12369,9.60796 -41.448083,10.426358 C 91.549538,56.923293 89.851874,61.991734 87.8461,66.946052 101.94876,61.1575 118.30714,57.307714 132.6,61.9 c 12.47175,4.007163 23.5417,14.195745 29.17856,26.325421 4.62076,9.943178 6.68194,22.780089 6.53313,33.679279 -0.40275,29.49921 -18.26033,48.15013 -35.90896,54.24201 -10.52264,4.45545 -22.91275,4.976 -35.842183,-1.13713 -3.461311,-1.63653 -5.575657,-2.6711 -9.866085,-5.36518 C 85.240479,175.61205 83.63393,180.64077 81.5,186.4 c -4.366667,-1.63333 -8.733333,-3.26667 -13.1,-4.9 2.91292,-7.86464 5.175636,-15.97771 6.590937,-24.24562 -7.384931,0.84332 -14.214929,-0.16309 -18.85886,-3.37227 -8.223658,-5.68295 -5.944678,-17.16469 2.332356,-22.06123 6.68813,-3.95658 12.323977,-5.15974 19.43917,-8.26441 0.158788,-3.70481 0.367938,-7.40801 0.457448,-11.11537 C 70.481443,114.47658 63.555272,118.98715 57.1,123.8 c -2.9,-3.66667 -5.8,-7.33333 -8.7,-11 8.999171,-6.84196 19.065484,-12.821269 30.344884,-14.771708 0.177113,-2.78942 0.196024,-4.765876 0.24885,-7.029208 L 92.9,91.1 c -0.04657,3.169001 -0.05987,3.974026 -0.08262,6.415313 4.153189,0.634734 8.84673,1.175359 13.18262,4.084687 8.20389,5.5047 8.99153,16.38756 -0.94047,23.6895 -4.1763,3.07039 -9.19176,5.69834 -13.863601,7.91267 -0.158762,2.63311 -0.502907,5.16795 -0.457753,7.84374 9.25594,-2.142 18.751224,-5.26417 27.661824,-8.54591 l 5.1,12.9 c -11.69911,4.26318 -24.267545,8.18231 -33.973802,10.11922 2.960118,3.46994 12.607522,7.36745 16.789752,8.86397 9.31512,3.33322 17.13102,0.70535 25.37441,-3.1763 12.49844,-8.4623 21.89313,-22.60756 22.85308,-37.32616 0.45906,-7.03858 0.19446,-14.34984 -2.24411,-20.90194 C 145.44738,84.568524 135.23629,78.043197 121.77905,75.3 106.35182,72.155231 88.46601,79.630532 77.162467,90.803603 73.326541,87.327349 70.675532,84.14416 66.6,81 71.056712,71.344496 75.192905,61.520554 78.577372,51.43498 68.908084,50.411129 59.707501,46.649575 51.7,41.2 l 8.1,-11.4 c 6.719512,4.620089 14.635881,7.358269 22.749103,8.03802 C 84.30859,30.209431 85.585015,22.348825 85,14.5 l 14,-1.1 c 0.448703,8.085883 -0.556376,16.959397 -2.066102,24.076535 z M 70.022812,143.66583 c 2.121144,0.2092 4.906197,0.049 7.049227,-0.29979 0.288885,-1.69572 0.253049,-3.10604 0.504387,-4.77781 -5.230062,2.27149 -13.908604,4.40128 -7.553614,5.0776 z M 92.14136,117.90471 c 1.669597,-0.62423 5.278706,-2.60911 5.414581,-4.40499 0.07638,-1.00947 -2.878689,-2.38351 -5.108371,-2.69268 -0.302432,2.58063 -0.201105,4.2076 -0.30621,7.09767 z"
       id="path2" />
  </g>
</svg>
