<?xml version="1.0" encoding="UTF-8" standalone="no"?>
<svg
   xmlns:dc="http://purl.org/dc/elements/1.1/"
   xmlns:cc="http://creativecommons.org/ns#"
   xmlns:rdf="http://www.w3.org/1999/02/22-rdf-syntax-ns#"
   xmlns:svg="http://www.w3.org/2000/svg"
   xmlns="http://www.w3.org/2000/svg"
   xmlns:sodipodi="http://sodipodi.sourceforge.net/DTD/sodipodi-0.dtd"
   xmlns:inkscape="http://www.inkscape.org/namespaces/inkscape"
   inkscape:version="1.0 (4035a4fb49, 2020-05-01)"
   sodipodi:docname="u1b076.svg"
   id="svg6"
   height="200"
   width="200"
   viewBox="0 0 200 200"
   version="1.1">
  <metadata
     id="metadata12">
    <rdf:RDF>
      <cc:Work
         rdf:about="">
        <dc:format>image/svg+xml</dc:format>
        <dc:type
           rdf:resource="http://purl.org/dc/dcmitype/StillImage" />
      </cc:Work>
    </rdf:RDF>
  </metadata>
  <defs
     id="defs10" />
  <sodipodi:namedview
     inkscape:current-layer="svg6"
     inkscape:window-maximized="1"
     inkscape:window-y="28"
     inkscape:window-x="0"
     inkscape:cy="99.712764"
     inkscape:cx="152.3429"
     inkscape:zoom="2.8284271"
     showgrid="false"
     id="namedview8"
     inkscape:window-height="846"
     inkscape:window-width="1440"
     inkscape:pageshadow="2"
     inkscape:pageopacity="0"
     guidetolerance="10"
     gridtolerance="10"
     objecttolerance="10"
     borderopacity="1"
     bordercolor="#666666"
     pagecolor="#ffffff" />
  <g
     id="g4"
     fill="black">
    <path
       sodipodi:nodetypes="ccsccccccsssccccccccccsscssssssccccccccccscccsccssc"
       d="M 117.69922,13.400391 114.09961,27 c 4.84414,1.445818 13.59197,4.501826 13.80078,6.5 0.26621,2.547432 -1.05085,14.066096 -1.77734,21.072266 C 105.39797,65.701062 83.233427,79.538907 64.789062,94.199219 61.000072,70.653281 65.399583,48.86305 77.039062,26.921875 71.991351,23.890758 69.43441,21.977713 65.199219,19.501953 52.56133,38.965857 47.088222,62.752242 49.476562,85.796875 c 0.87294,6.483559 1.444206,13.069811 1.896485,19.835935 -6.127575,6.06138 -12.165718,12.25681 -17.380859,19.12696 -4.075041,5.36824 -9.08166,11.13018 -11.142579,17.10156 -2.876388,8.33415 2.300561,16.31928 8.050782,21.93945 7.894541,7.716 15.965182,14.01739 27.699218,22.29883 3.416311,-5.17092 5.062858,-11.19335 6.105469,-17.24219 3.009525,-18.9268 2.046912,-38.2177 1.025391,-57.27539 17.550523,-15.52199 38.286871,-28.870856 58.757631,-40.183785 -0.10472,2.666548 -0.50126,5.05682 -0.73616,7.236429 C 116.42846,87.551604 108.8937,96.640989 101.5,105.5 c 3.38243,3.21 5.65361,7.47498 8.59961,11.09961 2.15069,-1.56403 7.32296,-4.65044 9.69611,-5.85453 -0.0931,1.84917 -0.21158,3.00347 -0.39533,4.65531 2.3,4.06667 4.60039,8.13255 6.90039,12.19922 5.90848,-3.34197 12.43525,-6.29907 19.00977,-7.50195 3.82537,-0.69989 9.04788,-1.29098 12.18945,1.70312 11.84974,11.29347 7.53151,35.13002 -3.83984,42.95899 -6.50637,-6.37979 -13.69036,-12.66967 -22.51563,-15.57032 -9.58779,-3.15127 -20.30079,3.54298 -21.48437,12.62891 -1.69655,13.02381 10.51961,21.68238 21.18164,22.29492 10.98864,0.63131 24.40706,-1.36837 32.50586,-9.1914 13.22162,-12.7714 18.7362,-31.5968 13.06445,-49.2168 -3.31664,-10.30356 -6.71455,-14.31761 -14.62098,-18.57004 -8.54806,-4.59753 -20.21749,-0.74821 -27.72734,1.22142 0.093,-1.27495 0.15168,-2.22705 0.32879,-3.50294 12.6723,-3.45923 25.89569,-4.877692 39.00781,-3.95313 0.43808,-4.742853 0.70451,-10.27716 1.19922,-14.499999 C 169.10348,83.052617 164.46832,78.496838 159.90039,74 c -2.53049,2.530494 -7.56997,7.339914 -10.10046,9.870407 1.74521,1.333463 2.22173,1.947368 3.58093,3.340531 -4.55113,0.363791 -12.98254,1.622093 -17.44954,2.560172 0.0865,-1.272192 0.13279,-2.190202 0.42156,-4.385705 7.57497,-9.391381 15.48818,-26.510443 4.47541,-32.315997 0.0393,-7.674534 1.9207,-18.174668 0.65236,-24.475499 -2.02848,-10.077025 -14.7482,-12.561217 -23.78143,-15.193518 z M 52.371094,124.66992 c 0.434975,11.19341 0.590989,26.0112 -0.957032,38.03125 -5.331299,-3.52163 -15.74629,-12.26451 -15.513671,-15.20117 0.347898,-4.39198 10.640928,-16.21236 16.470703,-22.83008 z m 86.023436,44.97656 c -3.46065,0.24832 -7.15435,0.77144 -10.5,-0.46484 -2.37651,-0.87817 -5.93996,-5.16034 -3.39453,-6.58203 3.22226,-1.79972 10.52663,3.81765 13.89453,7.04687 z"
       id="path2" />
  </g>
</svg>
