<?xml version="1.0" encoding="UTF-8" standalone="no"?>
<svg
   xmlns:dc="http://purl.org/dc/elements/1.1/"
   xmlns:cc="http://creativecommons.org/ns#"
   xmlns:rdf="http://www.w3.org/1999/02/22-rdf-syntax-ns#"
   xmlns:svg="http://www.w3.org/2000/svg"
   xmlns="http://www.w3.org/2000/svg"
   xmlns:sodipodi="http://sodipodi.sourceforge.net/DTD/sodipodi-0.dtd"
   xmlns:inkscape="http://www.inkscape.org/namespaces/inkscape"
   inkscape:version="1.0 (4035a4fb49, 2020-05-01)"
   sodipodi:docname="u1b0f6.svg"
   id="svg6"
   height="200"
   width="200"
   viewBox="0 0 200 200"
   version="1.1">
  <metadata
     id="metadata12">
    <rdf:RDF>
      <cc:Work
         rdf:about="">
        <dc:format>image/svg+xml</dc:format>
        <dc:type
           rdf:resource="http://purl.org/dc/dcmitype/StillImage" />
      </cc:Work>
    </rdf:RDF>
  </metadata>
  <defs
     id="defs10" />
  <sodipodi:namedview
     inkscape:current-layer="svg6"
     inkscape:window-maximized="1"
     inkscape:window-y="28"
     inkscape:window-x="0"
     inkscape:cy="108.67991"
     inkscape:cx="95.779306"
     inkscape:zoom="1.9905056"
     showgrid="false"
     id="namedview8"
     inkscape:window-height="846"
     inkscape:window-width="1440"
     inkscape:pageshadow="2"
     inkscape:pageopacity="0"
     guidetolerance="10"
     gridtolerance="10"
     objecttolerance="10"
     borderopacity="1"
     bordercolor="#666666"
     pagecolor="#ffffff" />
  <g
     id="g4"
     fill="black">
    <path
       sodipodi:nodetypes="ccccssccccsccsscccccccccaccsccscccsccccc"
       d="m 152.6213,26.167486 c 15.71245,12.982629 11.84615,38.164903 -0.2984,50.894534 -6.4526,6.911406 -16.65546,11.732025 -25.15206,13.503659 -0.64523,1.954118 -0.76579,3.244529 -1.03219,4.326312 2.9681,1.616241 7.10016,4.080783 9.28582,7.374019 4.70917,7.09553 4.70724,15.82507 -1.14061,21.4572 -3.09932,2.98499 -6.8745,5.27425 -10.74646,7.15241 -0.49803,3.1895 -1.09804,6.36051 -1.7374,9.52438 -9.84724,1.3022 -14.40476,-0.97404 -19.74013,-1.44119 -8.039901,4.42038 -17.432558,10.74526 -24.587216,16.58238 -15.050589,10.89838 10.007221,11.45266 16.697266,11.96728 10.89135,0.83781 51.42567,-2.2072 59.03181,-4.67672 0.53275,4.35608 1.06551,9.90331 1.59827,14.25939 -21.89177,3.49722 -67.279513,7.38395 -85.054607,0.57976 -18.747768,-7.17652 -12.152371,-25.44817 1.848842,-35.40312 5.557634,-3.95151 11.101868,-7.93083 16.972654,-11.42125 -8.84716,-7.63453 -9.568361,-19.42122 -1.431486,-27.85455 6.850302,-6.651855 22.763677,-8.95352 27.007317,-10.018415 0.12874,-0.835335 0.3074,-1.437153 0.39527,-2.551315 C 103.88717,88.82241 92.472814,86.239964 88.862078,73.464586 85.569314,60.975028 94.976881,51.550735 106.51097,51.070631 c 15.17944,-1.159749 24.25441,11.712847 23.621,24.70281 13.95346,-6.166293 25.00018,-24.601019 15.6536,-36.653727 C 136.28832,28.034795 118.73782,31.57457 107.26812,34.13687 88.328115,37.054601 73.954827,49.666092 56.62126,47.540108 47.324668,46.399869 37.895666,41.667148 32,34 l 11.1,-8.5 c 4.900664,6.364896 13.857645,10.313664 21.189969,8.346798 14.270392,-3.827974 29.052551,-11.145542 44.266631,-14.300632 13.76071,-2.34741 34.23566,-3.956601 44.0647,6.62132 z M 96.591726,113.3224 c -2.339514,3.42723 2.021565,9.15351 6.358274,10.7026 2.60673,-0.96596 5.21391,-1.9307 7.81282,-2.91754 0.53101,-4.52659 0.87701,-9.0716 1.26257,-13.61219 -6.31728,0.0698 -12.629856,1.71974 -15.433664,5.82713 z M 103.8,65.6 c -3.61935,1.552382 -1.27462,6.442762 1.3229,7.828924 3.35398,1.970336 6.91384,3.726311 10.89763,4.037622 0.51616,-4.375374 0.42474,-11.075527 -4.93091,-12.279803 C 108.72381,64.642543 106.08603,64.718105 103.8,65.6 Z"
       id="path2" />
  </g>
</svg>
