<?xml version="1.0" encoding="UTF-8" standalone="no"?>
<svg
   xmlns:dc="http://purl.org/dc/elements/1.1/"
   xmlns:cc="http://creativecommons.org/ns#"
   xmlns:rdf="http://www.w3.org/1999/02/22-rdf-syntax-ns#"
   xmlns:svg="http://www.w3.org/2000/svg"
   xmlns="http://www.w3.org/2000/svg"
   xmlns:sodipodi="http://sodipodi.sourceforge.net/DTD/sodipodi-0.dtd"
   xmlns:inkscape="http://www.inkscape.org/namespaces/inkscape"
   inkscape:version="1.0 (4035a4fb49, 2020-05-01)"
   sodipodi:docname="u1b0fd.svg"
   id="svg6"
   height="200"
   width="200"
   viewBox="0 0 200 200"
   version="1.1">
  <metadata
     id="metadata12">
    <rdf:RDF>
      <cc:Work
         rdf:about="">
        <dc:format>image/svg+xml</dc:format>
        <dc:type
           rdf:resource="http://purl.org/dc/dcmitype/StillImage" />
      </cc:Work>
    </rdf:RDF>
  </metadata>
  <defs
     id="defs10" />
  <sodipodi:namedview
     inkscape:current-layer="svg6"
     inkscape:window-maximized="1"
     inkscape:window-y="28"
     inkscape:window-x="0"
     inkscape:cy="140.06651"
     inkscape:cx="112.5973"
     inkscape:zoom="1.9905056"
     showgrid="false"
     id="namedview8"
     inkscape:window-height="846"
     inkscape:window-width="1440"
     inkscape:pageshadow="2"
     inkscape:pageopacity="0"
     guidetolerance="10"
     gridtolerance="10"
     objecttolerance="10"
     borderopacity="1"
     bordercolor="#666666"
     pagecolor="#ffffff" />
  <g
     id="g4"
     fill="black">
    <path
       sodipodi:nodetypes="cccccccccccccccccccccccccccccsccccscccsscccccscccccccccc"
       d="m 80.7,19.1 c 3.80498,4.317376 5.49352,10.065683 8.4,15.1 -3.926805,1.856029 -7.906994,3.580404 -12.040364,4.927006 0.02353,1.7217 -0.107205,3.333887 0.01296,4.959047 2.847056,-0.520909 4.963884,-0.630242 7.473734,-0.394606 L 83.1,58.9 c -3.111469,2.570274 -7.008363,8.67068 -6.340925,12.203191 0.03657,3.870011 0.109985,7.97698 0.140925,11.696809 -2.142606,3.713034 -3.831586,8.120359 -5.8,12.1 -2.439152,-1.239607 -4.912945,-2.412304 -7.325636,-3.70302 -3.073387,4.889835 -5.258226,15.74606 2.324898,18.34163 C 74.556742,97.712832 83.997764,86.069487 92.8,74.5 l 11.1,8.5 c -9.533506,12.514348 -19.059386,25.03779 -28.214897,37.83295 3.568501,4.99658 5.487642,10.92842 6.640334,16.9165 1.930295,12.37963 -3.648288,28.91928 -11.332676,35.75779 -10.379042,8.71991 -25.114801,5.85556 -35.643269,1.0865 -2.70911,-1.36496 -4.324661,-2.0505 -6.113729,-3.60901 7.459446,-19.07803 17.898207,-34.18601 28.745864,-49.37894 -5.131305,-4.82433 -10.241,-10.45721 -11.235833,-17.69639 -0.600787,-9.494456 1.30962,-12.573964 4.964377,-19.911375 C 44.233607,78.607171 35.555165,70.362176 34,60.9 41.7337,55.733261 51.859048,50.267799 63.040327,46.425212 62.986394,45.362354 63.071343,43.474588 63.020407,42.360581 51.414424,43.288931 37.898227,39.772887 29.1,34.4 l 7.4,-11.9 c 8.01635,5.239854 17.99859,7.126216 27.408776,5.521016 0.3257,-3.76031 1.676726,-7.181586 4.079195,-10.096729 C 71.612736,14.140451 76.123298,14.806531 80.7,19.1 Z m 70.33214,20.269727 c 5.99634,9.258468 2.10082,23.031117 -3.02401,32.953504 -3.62798,6.783594 -8.83616,13.886123 -7.50799,22.027345 0.84507,4.950628 6.73991,5.705674 8.85037,9.804764 3.25841,4.42289 3.30926,10.50366 1.5501,15.5731 -3.58245,10.83582 -12.03508,20.5928 -18.37388,28.32877 -1.97058,2.40492 -4.65372,5.30577 -3.80195,8.51743 13.61184,7.40787 31.22326,5.62484 44.97522,5.42536 0.16667,4.63333 0.33333,9.26667 0.5,13.9 -14.85795,0.29239 -30.04597,0.17663 -44.51452,-3.29285 -18.48763,-4.43323 -21.81616,-17.61511 -7.16669,-34.3497 5.32356,-6.08129 22.4779,-22.61575 11.19088,-29.36344 -7.72862,-6.46852 -9.04894,-17.882495 -5.86754,-27.011106 2.64796,-6.903753 16.01296,-29.497233 11.49221,-34.513024 C 137.41019,45.085695 128.71901,51.608168 124.6,55.2 l -9.9,-9.9 c 8.22089,-7.540714 28.12037,-18.609414 36.33214,-5.930273 z M 47.232432,164.28452 c 5.549635,1.96388 13.07256,2.12398 16.592352,-3.45916 3.585828,-5.6633 5.791319,-12.45865 4.910909,-19.19735 -0.395407,-2.74856 -0.760428,-5.65904 -1.963783,-8.18419 -6.839804,10.56307 -14.459122,21.27833 -19.539478,30.8407 z m 4.506705,-98.501469 c 1.915682,2.114824 4.12101,3.929498 6.412277,5.620548 1.129298,-2.814533 4.28256,-7.154022 4.602179,-8.071193 0.0165,-0.815268 0.08971,-1.678576 -0.05359,-2.594906 -4.432011,0.877096 -7.620427,2.737777 -10.960866,5.045551 z"
       id="path2" />
  </g>
</svg>
