<?xml version="1.0" encoding="UTF-8" standalone="no"?>
<svg
   xmlns:dc="http://purl.org/dc/elements/1.1/"
   xmlns:cc="http://creativecommons.org/ns#"
   xmlns:rdf="http://www.w3.org/1999/02/22-rdf-syntax-ns#"
   xmlns:svg="http://www.w3.org/2000/svg"
   xmlns="http://www.w3.org/2000/svg"
   xmlns:sodipodi="http://sodipodi.sourceforge.net/DTD/sodipodi-0.dtd"
   xmlns:inkscape="http://www.inkscape.org/namespaces/inkscape"
   inkscape:version="1.0 (4035a4fb49, 2020-05-01)"
   sodipodi:docname="u1b0fc.svg"
   id="svg6"
   height="200"
   width="200"
   viewBox="0 0 200 200"
   version="1.1">
  <metadata
     id="metadata12">
    <rdf:RDF>
      <cc:Work
         rdf:about="">
        <dc:format>image/svg+xml</dc:format>
        <dc:type
           rdf:resource="http://purl.org/dc/dcmitype/StillImage" />
      </cc:Work>
    </rdf:RDF>
  </metadata>
  <defs
     id="defs10" />
  <sodipodi:namedview
     inkscape:current-layer="svg6"
     inkscape:window-maximized="1"
     inkscape:window-y="28"
     inkscape:window-x="0"
     inkscape:cy="106.7854"
     inkscape:cx="113.66106"
     inkscape:zoom="2.815"
     showgrid="false"
     id="namedview8"
     inkscape:window-height="846"
     inkscape:window-width="1440"
     inkscape:pageshadow="2"
     inkscape:pageopacity="0"
     guidetolerance="10"
     gridtolerance="10"
     objecttolerance="10"
     borderopacity="1"
     bordercolor="#666666"
     pagecolor="#ffffff" />
  <g
     id="g4"
     fill="black">
    <path
       sodipodi:nodetypes="ssccaaaccsacccccsasscccssccccscccccccc"
       d="m 136.60194,34.929009 c 3.39974,4.81941 4.17598,11.316776 4.09158,17.214048 -0.2691,18.803274 -23.88453,28.407256 -41.391328,33.514203 -0.740466,2.295406 -1.622072,4.645009 1.082618,5.959345 10.98399,4.884226 20.65999,14.137195 24.56759,25.198065 4.94266,13.99071 3.83428,31.81789 -4.15778,44.31975 -7.11953,11.13697 -21.072535,20.48587 -34.279222,19.93522 C 73.221487,180.51536 61.716021,169.95763 53.8,158.2 c 4.1,-2.16667 7.233091,-5.55147 11.333091,-7.71814 5.769573,9.22282 16.83872,18.83648 26.250173,16.1491 20.342026,-5.80853 23.383156,-25.51553 21.586346,-40.79493 -1.13393,-9.64249 -9.93349,-18.00768 -19.223456,-21.88218 C 82.875451,98.371368 83.655222,90.406153 86.3,80.1 84.516863,78.044288 83.628735,77.196142 82.391683,75.86202 85.893306,72.56762 92.054255,67.758062 95.4,64.5 c 2.195998,2.717385 4.108462,4.354573 4.495514,6.426135 8.923766,-3.122993 19.367566,-7.205701 24.515106,-14.460153 3.31869,-4.677046 2.15761,-12.925291 -1.75902,-17.114378 -4.72298,-5.051526 -13.77315,-5.30766 -20.44883,-3.502197 C 88.826772,39.466994 74.069501,54.450999 62.508692,50.883806 54.044611,48.272137 48.542744,37.439569 49,28 h 14 c -0.181653,3.498185 0.907421,7.515549 4.082353,9.421569 3.417805,1.527316 22.820366,-15.389632 38.605117,-16.276568 11.26498,-0.632972 21.73708,0.774297 30.91447,13.784008 z M 40,130.9 c -2.863309,3.91844 -6.393945,12.65173 -3.833799,13.65364 C 39.610057,145.70035 58.362638,132.43141 84.7,124.3 c 1.5,4.43333 3,8.86667 4.5,13.3 -27.746444,6.40978 -57.906547,30.21255 -64.08846,25.16779 -9.922946,-8.09764 -5.550878,-24.00691 0.954913,-35.88314 1.281377,-2.44232 2.672607,-5.82898 5.15581,-2.43201 z m 138.02382,24.3662 C 173.984,155.64402 168.03982,156.22218 164,156.6 160.73282,142.37141 152.5042,134.92811 141.44702,131.1167 L 146.4,117.8 c 17.91244,7.2394 28.23404,16.04571 31.62382,37.4662 z"
       id="path2" />
  </g>
</svg>
