<?xml version="1.0" encoding="UTF-8" standalone="no"?>
<svg
   xmlns:dc="http://purl.org/dc/elements/1.1/"
   xmlns:cc="http://creativecommons.org/ns#"
   xmlns:rdf="http://www.w3.org/1999/02/22-rdf-syntax-ns#"
   xmlns:svg="http://www.w3.org/2000/svg"
   xmlns="http://www.w3.org/2000/svg"
   xmlns:sodipodi="http://sodipodi.sourceforge.net/DTD/sodipodi-0.dtd"
   xmlns:inkscape="http://www.inkscape.org/namespaces/inkscape"
   inkscape:version="1.0 (4035a4fb49, 2020-05-01)"
   sodipodi:docname="u1b0f9.svg"
   id="svg6"
   height="200"
   width="200"
   viewBox="0 0 200 200"
   version="1.1">
  <metadata
     id="metadata12">
    <rdf:RDF>
      <cc:Work
         rdf:about="">
        <dc:format>image/svg+xml</dc:format>
        <dc:type
           rdf:resource="http://purl.org/dc/dcmitype/StillImage" />
      </cc:Work>
    </rdf:RDF>
  </metadata>
  <defs
     id="defs10" />
  <sodipodi:namedview
     inkscape:current-layer="svg6"
     inkscape:window-maximized="1"
     inkscape:window-y="28"
     inkscape:window-x="0"
     inkscape:cy="119.9086"
     inkscape:cx="95.590711"
     inkscape:zoom="2.815"
     showgrid="false"
     id="namedview8"
     inkscape:window-height="846"
     inkscape:window-width="1440"
     inkscape:pageshadow="2"
     inkscape:pageopacity="0"
     guidetolerance="10"
     gridtolerance="10"
     objecttolerance="10"
     borderopacity="1"
     bordercolor="#666666"
     pagecolor="#ffffff" />
  <g
     id="g4"
     fill="black">
    <path
       sodipodi:nodetypes="ccssccsccccsccsscccccsccccccccccccccccccccccccccccccccacc"
       d="m 83.6,22.4 c 6.043216,1.758552 10.313704,8.276323 12.281986,13.900599 8.173604,-5.361026 26.829214,-15.605124 39.951454,-14.30664 6.98272,0.69096 15.40652,5.376317 13.43291,15.55462 -2.55192,13.160745 -30.97351,31.996668 -40.06108,39.075519 C 105.63684,79.316065 102.06842,82.008033 98.5,84.7 c 11.00574,-2.173823 28.97029,-3.009187 40.01621,4.625389 16.92683,11.699271 23.33595,33.815671 15.21758,55.258491 2.42455,2.73515 15.70273,11.72042 23.677,18.14554 -3.43613,3.47094 -6.37749,6.74639 -9.41079,10.07058 -6.71746,-5.26135 -12.58525,-11.72558 -20.24982,-15.64612 -12.13908,14.30139 -25.44447,22.43254 -40.76981,22.08334 -9.407668,-0.21435 -21.025971,-2.80317 -27.247229,-7.38515 -4.852425,2.28228 -9.841588,4.11858 -15.189118,4.78605 -10.493549,2.22707 -27.029328,-0.6211 -34.041099,-11.11756 -7.57324,-11.33696 -1.157948,-22.07067 6.535422,-27.52264 6.897001,-4.88762 11.842084,-7.02366 24.226461,-10.25559 4.461849,-9.28462 10.354953,-17.46899 18.75451,-22.26397 5.843891,-2.70701 14.450787,-3.72999 19.01863,-0.20312 7.889063,3.98388 10.806803,15.03277 10.397793,22.44478 13.52812,3.02209 22.7095,5.77208 32.35237,10.10811 4.30288,-10.56777 1.82361,-22.93325 -4.22101,-30.80533 C 122.79554,87.785369 73.678424,98.417667 52.2,119.5 c -3.5,-3.03333 -7,-6.06667 -10.5,-9.1 6.357381,-7.42971 14.949673,-12.169986 22.657646,-18.065106 22.748021,-16.554806 45.635904,-33.023967 66.926864,-51.446337 1.28063,-1.323278 5.17321,-4.783493 2.0606,-6.039493 -6.35838,-1.244062 -26.52929,8.921332 -35.755996,16.23306 -5.057886,0.169299 -8.68385,0.238246 -13.381396,0.135171 C 83.590588,46.248141 82.808293,36.656624 79.9,35.9 78.443667,35.701088 77.473463,36.360489 75.692769,37.468282 L 70.7,24.2 c 4.038469,-1.93081 8.483209,-2.766131 12.9,-1.8 z m 9.8306,140.28141 c 17.55979,8.44344 35.87013,-0.6974 41.79092,-12.63753 -9.51868,-4.15265 -19.39034,-6.98981 -28.062,-8.66181 -4.2186,11.28581 -7.939861,15.9913 -13.72892,21.29934 z m -51.92249,-7.09494 c -0.490422,4.2254 4.268065,6.62727 7.865564,7.17124 5.678821,1.4858 12.178062,-0.25084 17.803701,-1.64584 -3.962219,-4.34043 -8.432947,-12.22229 -7.726336,-19.63038 -6.526787,1.18407 -18.180938,8.69117 -17.942929,14.10498 z m 31.331289,-16.53095 c -0.841967,6.16736 3.583013,12.94225 7.334667,16.29481 4.688994,-0.89395 13.591092,-13.32198 13.050665,-16.04973 -3.2903,-1.0565 -13.776428,-1.4167 -20.385332,-0.24508 z m 5.645324,-13.85361 c 5.096047,-0.24016 11.394549,-0.17429 17.061683,0.68247 0.04428,-3.35934 -0.655494,-8.63321 -4.715453,-9.13012 -5.174274,-0.56399 -10.037903,4.80742 -12.34623,8.44765 z M 48.9,31.4 c -0.163229,2.897165 -1.69243,7.717811 0.380682,8.684091 1.128448,0.466831 4.139711,-3.565694 5.370007,-5.026505 L 65.6,43.1 C 60.006406,51.102177 49.58666,60.870019 41,57 32.798507,53.303577 34.343279,39.214252 35.384508,30.602679 40.391004,30.980536 43.95041,31.046458 48.9,31.4 Z"
       id="path2" />
  </g>
</svg>
