<?xml version="1.0" encoding="UTF-8" standalone="no"?>
<svg
   xmlns:dc="http://purl.org/dc/elements/1.1/"
   xmlns:cc="http://creativecommons.org/ns#"
   xmlns:rdf="http://www.w3.org/1999/02/22-rdf-syntax-ns#"
   xmlns:svg="http://www.w3.org/2000/svg"
   xmlns="http://www.w3.org/2000/svg"
   xmlns:sodipodi="http://sodipodi.sourceforge.net/DTD/sodipodi-0.dtd"
   xmlns:inkscape="http://www.inkscape.org/namespaces/inkscape"
   inkscape:version="1.0 (4035a4fb49, 2020-05-01)"
   sodipodi:docname="u1b0fb.svg"
   id="svg6"
   height="200"
   width="200"
   viewBox="0 0 200 200"
   version="1.1">
  <metadata
     id="metadata12">
    <rdf:RDF>
      <cc:Work
         rdf:about="">
        <dc:format>image/svg+xml</dc:format>
        <dc:type
           rdf:resource="http://purl.org/dc/dcmitype/StillImage" />
      </cc:Work>
    </rdf:RDF>
  </metadata>
  <defs
     id="defs10" />
  <sodipodi:namedview
     inkscape:current-layer="svg6"
     inkscape:window-maximized="1"
     inkscape:window-y="28"
     inkscape:window-x="0"
     inkscape:cy="122.81033"
     inkscape:cx="110.24052"
     inkscape:zoom="2.815"
     showgrid="false"
     id="namedview8"
     inkscape:window-height="846"
     inkscape:window-width="1440"
     inkscape:pageshadow="2"
     inkscape:pageopacity="0"
     guidetolerance="10"
     gridtolerance="10"
     objecttolerance="10"
     borderopacity="1"
     bordercolor="#666666"
     pagecolor="#ffffff" />
  <g
     id="g4"
     fill="black">
    <path
       sodipodi:nodetypes="sasasscsacscccsssscs"
       d="m 113.6,25.4 c 17.95938,1.808433 35.44728,16.146281 43.43996,32.330429 11.49021,23.266182 9.29325,54.042631 -1.05375,77.839261 -8.70974,20.03114 -23.33429,29.59095 -40.29194,34.88909 -14.41596,4.50403 -31.012746,3.11859 -45.045543,-4.88429 C 59.411773,159.16607 57.115709,144.44422 73.4,138.2 c 17.16668,-6.58257 37.74179,3.01004 46.76909,15.44744 7.09526,-3.72702 15.33588,-10.07527 19.25659,-16.38443 11.23879,-18.08533 16.77464,-44.919378 8.55828,-65.263677 C 141.38692,55.664595 123.87548,39.43766 106.64916,39.06705 90.002731,38.871847 77.230512,53.681106 63.270031,63.816324 55.989586,69.10188 44.075612,65.968169 36.541633,60.065252 33.698577,58.129778 31.586588,55.363624 29.6,52.6 L 41.4,45 c 2.703019,4.934336 9.549982,8.595704 13.981633,6.102041 C 73.355986,40.987985 84.383887,22.458061 113.6,25.4 Z M 81.387937,149.46675 c -2.825672,0.60546 -3.546236,3.48061 -1.566,5.4189 4.713733,4.61388 17.726967,4.12894 25.653893,3.1514 -5.778858,-7.03974 -15.576519,-10.39403 -24.087893,-8.5703 z"
       id="path2" />
  </g>
</svg>
