<?xml version="1.0" encoding="UTF-8" standalone="no"?>
<svg
   xmlns:dc="http://purl.org/dc/elements/1.1/"
   xmlns:cc="http://creativecommons.org/ns#"
   xmlns:rdf="http://www.w3.org/1999/02/22-rdf-syntax-ns#"
   xmlns:svg="http://www.w3.org/2000/svg"
   xmlns="http://www.w3.org/2000/svg"
   xmlns:sodipodi="http://sodipodi.sourceforge.net/DTD/sodipodi-0.dtd"
   xmlns:inkscape="http://www.inkscape.org/namespaces/inkscape"
   inkscape:version="1.0 (4035a4fb49, 2020-05-01)"
   sodipodi:docname="u1b0f8.svg"
   id="svg6"
   height="200"
   width="200"
   viewBox="0 0 200 200"
   version="1.1">
  <metadata
     id="metadata12">
    <rdf:RDF>
      <cc:Work
         rdf:about="">
        <dc:format>image/svg+xml</dc:format>
        <dc:type
           rdf:resource="http://purl.org/dc/dcmitype/StillImage" />
      </cc:Work>
    </rdf:RDF>
  </metadata>
  <defs
     id="defs10" />
  <sodipodi:namedview
     inkscape:current-layer="svg6"
     inkscape:window-maximized="1"
     inkscape:window-y="28"
     inkscape:window-x="0"
     inkscape:cy="89.582168"
     inkscape:cx="129.46011"
     inkscape:zoom="2.815"
     showgrid="false"
     id="namedview8"
     inkscape:window-height="846"
     inkscape:window-width="1440"
     inkscape:pageshadow="2"
     inkscape:pageopacity="0"
     guidetolerance="10"
     gridtolerance="10"
     objecttolerance="10"
     borderopacity="1"
     bordercolor="#666666"
     pagecolor="#ffffff" />
  <g
     id="g4"
     fill="black">
    <path
       sodipodi:nodetypes="scccccccccccccscccccscccccsscccccccsccccccccacca"
       d="M 138.05536,26.504216 C 147.6651,31.960472 153.87387,41.163331 158.3,53.5 c -14.52156,5.137091 -29.79515,8.63414 -45.26494,8.477295 -1.86913,8.285163 -3.35651,16.649669 -4.55464,25.056726 7.0619,0.08091 14.28987,1.723102 20.24681,5.573086 14.1205,10.200593 15.39468,28.740633 14.00597,43.618953 -1.63182,12.09558 -4.93048,26.43036 -13.04825,34.3405 -5.52003,5.71718 -14.15997,7.35688 -21.05427,6.15931 -7.98884,-1.54854 -17.589609,-7.33705 -24.041277,-12.18274 1.449042,-2.27553 3.301468,-4.59517 4.817707,-7.05517 -7.917417,3.14698 -16.656316,8.54377 -24.409802,4.84575 -6.858493,-3.74429 -8.073899,-10.94661 -6.009806,-17.27955 1.187651,-4.69332 3.995616,-8.7828 6.812498,-12.65416 3.7,2.86667 7.4,5.73333 11.1,8.6 -1.979596,2.7159 -5.683267,7.89866 -4.586471,8.53939 C 74.42094,150.77052 88.016335,142.65953 95.6,138.4 c 2.333333,4.03333 4.66667,8.06667 7,12.1 -2.45293,1.43355 -4.948581,2.61804 -7.483924,4.07444 5.449894,4.21605 12.173664,8.63874 19.512104,8.64627 13.53761,-4.66512 14.71384,-28.64025 14.73053,-39.15421 -0.39397,-7.65908 -2.24953,-16.59843 -9.65809,-20.61218 C 111.70529,99.122683 102.12287,99.638083 92.740946,99.286497 94.039097,87.781252 96.327592,72.308981 98.930112,61.017871 90.051698,59.755722 81.374653,57.248302 73.1,53.8 l 5.5,-12.9 c 7.742208,3.137721 15.837943,5.600696 24.16617,6.48513 3.12531,-6.61143 7.03169,-14.83085 13.39574,-20.282979 6.57057,-5.629063 14.7644,-4.645696 21.89345,-0.597935 z M 51.9,42.3 C 46.378927,73.756727 40.95312,109.03098 41.578673,137.16301 45.429674,126.056 49.565077,115.04662 54.1,104.2 c 4.333333,1.76667 8.666667,3.53333 13,5.3 -7.840024,19.83593 -14.52547,36.08904 -19.015804,56.71153 C 45.013032,168.71918 40.571164,171.89235 37.5,174.4 27.165597,158.92921 27.119001,137.74929 27.622161,121.37922 28.55795,94.560989 34.457644,66.764046 37.563333,41.635833 37.912201,38.81313 33.158093,37.734734 30.4,37 l 3.1,-13.6 c 9.501373,2.348383 19.588778,10.18825 18.4,18.9 z m 127.88498,114.04116 c -4.41325,1.14376 -9.148,2.09079 -13.68498,3.15884 -2.20623,-10.24592 -7.29223,-20.61966 -16.7,-26 2.3,-4.06667 4.6,-8.13333 6.9,-12.2 13.70919,8.29917 21.13691,23.3856 23.48498,35.04116 z M 126.22452,36.252536 c -4.7858,0.67348 -7.90262,8.196117 -8.69508,11.602286 6.86101,-0.19373 13.67456,-1.262885 20.36116,-2.769553 -2.53877,-3.362952 -6.83612,-9.512426 -11.66608,-8.832733 z"
       id="path2" />
  </g>
</svg>
