<?xml version="1.0" encoding="UTF-8" standalone="no"?>
<svg
   xmlns:dc="http://purl.org/dc/elements/1.1/"
   xmlns:cc="http://creativecommons.org/ns#"
   xmlns:rdf="http://www.w3.org/1999/02/22-rdf-syntax-ns#"
   xmlns:svg="http://www.w3.org/2000/svg"
   xmlns="http://www.w3.org/2000/svg"
   xmlns:sodipodi="http://sodipodi.sourceforge.net/DTD/sodipodi-0.dtd"
   xmlns:inkscape="http://www.inkscape.org/namespaces/inkscape"
   inkscape:version="1.0 (4035a4fb49, 2020-05-01)"
   sodipodi:docname="u1b0f0.svg"
   id="svg6"
   height="200"
   width="200"
   viewBox="0 0 200 200"
   version="1.1">
  <metadata
     id="metadata12">
    <rdf:RDF>
      <cc:Work
         rdf:about="">
        <dc:format>image/svg+xml</dc:format>
        <dc:type
           rdf:resource="http://purl.org/dc/dcmitype/StillImage" />
      </cc:Work>
    </rdf:RDF>
  </metadata>
  <defs
     id="defs10" />
  <sodipodi:namedview
     inkscape:current-layer="svg6"
     inkscape:window-maximized="1"
     inkscape:window-y="28"
     inkscape:window-x="0"
     inkscape:cy="99.321147"
     inkscape:cx="67.72545"
     inkscape:zoom="2.815"
     showgrid="false"
     id="namedview8"
     inkscape:window-height="846"
     inkscape:window-width="1440"
     inkscape:pageshadow="2"
     inkscape:pageopacity="0"
     guidetolerance="10"
     gridtolerance="10"
     objecttolerance="10"
     borderopacity="1"
     bordercolor="#666666"
     pagecolor="#ffffff" />
  <g
     id="g4"
     fill="black">
    <path
       sodipodi:nodetypes="sccsaccsccccccs"
       d="m 88.654209,29.495123 c 0.05814,13.301425 -13.097408,48.428866 -16.633457,69.587283 13.531657,-6.490762 26.953918,-9.729966 40.754068,-8.063903 15.67543,2.449679 28.68276,11.183087 35.62501,23.626797 8.11653,14.54856 2.02499,32.80136 -7.82332,43.96129 C 120.26034,181.6285 82.137081,186.13601 52.6,185.90001 l 0.7,-13.9 c 31.343913,1.2684 89.85607,-13.48651 84.82897,-45.57561 -2.18198,-13.92807 -21.10309,-22.92007 -36.21953,-21.83836 C 86.642666,106.86144 75.996929,111.19131 65.6,121.2 l -9.9,-9.9 C 56.897459,88.162941 74.528228,54.696529 74.564815,31.557144 74.481357,29.161391 72.810492,25.422994 70,26 V 12 c 9.856845,0.230168 18.616948,8.970346 18.654209,17.495123 z"
       id="path2" />
  </g>
</svg>
