<?xml version="1.0" encoding="UTF-8" standalone="no"?>
<svg
   xmlns:dc="http://purl.org/dc/elements/1.1/"
   xmlns:cc="http://creativecommons.org/ns#"
   xmlns:rdf="http://www.w3.org/1999/02/22-rdf-syntax-ns#"
   xmlns:svg="http://www.w3.org/2000/svg"
   xmlns="http://www.w3.org/2000/svg"
   xmlns:sodipodi="http://sodipodi.sourceforge.net/DTD/sodipodi-0.dtd"
   xmlns:inkscape="http://www.inkscape.org/namespaces/inkscape"
   inkscape:version="1.0 (4035a4fb49, 2020-05-01)"
   sodipodi:docname="u1b0d2.svg"
   id="svg6"
   height="200"
   width="200"
   viewBox="0 0 200 200"
   version="1.1">
  <metadata
     id="metadata12">
    <rdf:RDF>
      <cc:Work
         rdf:about="">
        <dc:format>image/svg+xml</dc:format>
        <dc:type
           rdf:resource="http://purl.org/dc/dcmitype/StillImage" />
      </cc:Work>
    </rdf:RDF>
  </metadata>
  <defs
     id="defs10" />
  <sodipodi:namedview
     inkscape:current-layer="svg6"
     inkscape:window-maximized="1"
     inkscape:window-y="28"
     inkscape:window-x="0"
     inkscape:cy="119.15591"
     inkscape:cx="130.75052"
     inkscape:zoom="2.815"
     showgrid="false"
     id="namedview8"
     inkscape:window-height="846"
     inkscape:window-width="1440"
     inkscape:pageshadow="2"
     inkscape:pageopacity="0"
     guidetolerance="10"
     gridtolerance="10"
     objecttolerance="10"
     borderopacity="1"
     bordercolor="#666666"
     pagecolor="#ffffff" />
  <g
     id="g4"
     fill="black">
    <path
       sodipodi:nodetypes="cccccccccccccccccccccccccccccccccccccccccccccc"
       d="m 88.532837,29.052242 c 0.984147,6.4592 -3.886401,11.073626 -8.017452,15.016084 10.785093,-3.532719 21.481145,-7.328982 32.209975,-11.028335 5.81249,-1.384077 12.76252,-1.567986 18.93024,-0.408871 7.23578,1.309778 13.956,5.189085 18.6444,10.86888 -7.62959,8.130494 -17.78446,13.572411 -27.40734,19.141627 -4.48024,2.585696 -9.05489,4.998116 -13.63734,7.396227 L 109.75326,79.2 c 5.01472,-0.04236 10.03695,-0.137725 15.04674,-0.2 0.0616,4.637113 0.22862,9.270432 0.5,13.9 -5.11155,0.512916 -10.08146,1.909708 -14.97866,3.409747 0.16087,5.099693 0.0424,10.203473 0.0787,15.304993 16.40565,-0.36258 32.80433,-0.94399 49.2,-1.61474 0.23333,4.63333 0.46667,9.26667 0.7,13.9 -16.78125,0.76183 -33.56728,1.39046 -50.36282,1.73048 -2.75226,23.77615 -2.70601,42.53323 -14.83718,60.86952 l -11,-8.7 c 9.490428,-16.40667 10.910685,-34.68948 11.879516,-51.87874 -14.238827,0.01 -28.576695,0.34522 -42.719036,-1.48026 C 43.161182,123.24069 41.167045,115.0382 45.566405,109.35166 49.960802,104.81932 68.253659,96.802569 80.529308,92.32439 76.425701,91.816335 71.964781,91.327966 68.479356,89.140188 61.81598,85.736821 63.0792,77.066544 70.673799,73.22683 75.006051,71.020413 83.461914,68.333238 87.83224,65.626836 86.358704,64.982984 85.334414,64.657648 83.706837,63.971741 85.806032,60.772184 87.425171,57.46455 87.831547,56.352807 76.416629,60.279488 62.819026,64.346948 51.280761,67.711545 49.351449,64.759446 45.79788,59.976641 43.275355,56.193483 54.574445,49.027695 73.489123,35.564416 74.263291,30.294937 74.9251,27.926105 68.057456,26.822359 64.7,26 l 2.5,-13.8 c 14.18316,2.55211 19.691078,8.94067 21.332837,16.852242 z M 71.318483,111.73162 c -0.02805,1.48843 16.530741,0.31097 25.081517,0.17785 v -10.7787 c -7.071264,2.19876 -24.653054,8.11245 -25.081517,10.60085 z M 91.82353,78.988235 c 0.353259,1.512348 2.946086,0.55914 4.130091,0.498049 -0.02249,-0.736407 -0.02204,-2.217102 -0.09508,-3.381087 0,0 -4.44261,1.138057 -4.035011,2.883038 z M 122.1,45.9 c -6.89847,0.03422 -13.06923,3.630208 -19.56299,5.533252 -2.48374,0.873637 -4.992732,1.673779 -7.48701,2.516748 2.516062,1.14384 4.910458,2.521788 7.29906,3.906604 7.32851,-3.751536 14.55299,-7.70593 21.60479,-11.956604 z"
       id="path2" />
  </g>
</svg>
