<?xml version="1.0" encoding="UTF-8" standalone="no"?>
<svg
   xmlns:dc="http://purl.org/dc/elements/1.1/"
   xmlns:cc="http://creativecommons.org/ns#"
   xmlns:rdf="http://www.w3.org/1999/02/22-rdf-syntax-ns#"
   xmlns:svg="http://www.w3.org/2000/svg"
   xmlns="http://www.w3.org/2000/svg"
   xmlns:sodipodi="http://sodipodi.sourceforge.net/DTD/sodipodi-0.dtd"
   xmlns:inkscape="http://www.inkscape.org/namespaces/inkscape"
   inkscape:version="1.0 (4035a4fb49, 2020-05-01)"
   sodipodi:docname="u1b0c0.svg"
   id="svg6"
   height="200"
   width="200"
   viewBox="0 0 200 200"
   version="1.1">
  <metadata
     id="metadata12">
    <rdf:RDF>
      <cc:Work
         rdf:about="">
        <dc:format>image/svg+xml</dc:format>
        <dc:type
           rdf:resource="http://purl.org/dc/dcmitype/StillImage" />
      </cc:Work>
    </rdf:RDF>
  </metadata>
  <defs
     id="defs10" />
  <sodipodi:namedview
     inkscape:current-layer="g4"
     inkscape:window-maximized="1"
     inkscape:window-y="28"
     inkscape:window-x="0"
     inkscape:cy="42.331949"
     inkscape:cx="47.012902"
     inkscape:zoom="1.9905056"
     showgrid="false"
     id="namedview8"
     inkscape:window-height="846"
     inkscape:window-width="1440"
     inkscape:pageshadow="2"
     inkscape:pageopacity="0"
     guidetolerance="10"
     gridtolerance="10"
     objecttolerance="10"
     borderopacity="1"
     bordercolor="#666666"
     pagecolor="#ffffff" />
  <g
     id="g4"
     fill="black">
    <path
       sodipodi:nodetypes="cccccccccccccccccccccccccccccccc"
       d="m 103.6,18 c 4.57857,0.539549 7.97571,4.559828 9.32025,8.964546 3.31606,18.524131 -20.361744,26.233542 -33.726132,27.844277 -10.904331,16.070319 -24.943695,49.951597 -23.390993,52.930237 1.391833,2.86325 22.735298,-2.72304 33.814522,-5.36847 0.110644,-12.291584 5.30324,-32.048866 18.327743,-31.17059 15.42829,1.395117 22.11237,21.458193 24.60829,32.68372 -6.81111,2.42311 -13.25202,4.02431 -19.7309,6.26366 -3.17791,0.975 -6.34342,1.99164 -9.54779,2.87783 -0.73414,22.89049 -0.13401,45.79319 0.62501,68.67479 -4.633333,0.16667 -9.266667,0.33333 -13.9,0.5 -0.921772,-21.76055 -1.345497,-43.55042 -0.838761,-65.3271 -12.061919,2.81084 -24.523995,6.22405 -36.975425,4.39397 -9.226268,-2.0235 -11.952493,-8.01516 -9.6525,-18.01442 C 47.079304,86.272192 53.77742,69.821801 62.709835,54.667084 52.845359,53.603956 43.399096,50.385119 34.2,46.8 l 5.4,-12.9 c 10.163324,4.053057 20.88679,7.263701 31.911392,7.349539 C 77.802003,31.826603 87.306234,16.618625 103.6,18 Z m 0.51803,80.204931 10.74052,-3.286278 c -1.76863,-3.603231 -4.40666,-10.356395 -7.26636,-9.721778 -2.63798,0.699249 -2.93542,9.153186 -3.47416,13.008056 z m 71.55794,-9.428987 c -4.51969,2.333984 -8.04857,4.467954 -12.2743,6.736837 C 154.17406,79.886679 146.11841,75.336292 132.76356,70.349925 133.57944,66.210104 134.48412,61.439821 135.3,57.3 c 17.54266,4.104738 33.98589,18.078542 40.37597,31.475944 z M 98.735652,31.5 c -1.389574,-0.208773 -8.19993,6.323788 -9.384286,8.049028 1.3649,-0.204734 4.780063,-2.0078 6.14517,-2.991874 C 96.7211,35.823104 100.31216,31.645488 98.735652,31.5 Z"
       id="path2" />
  </g>
</svg>
