<?xml version="1.0" encoding="UTF-8" standalone="no"?>
<svg
   xmlns:dc="http://purl.org/dc/elements/1.1/"
   xmlns:cc="http://creativecommons.org/ns#"
   xmlns:rdf="http://www.w3.org/1999/02/22-rdf-syntax-ns#"
   xmlns:svg="http://www.w3.org/2000/svg"
   xmlns="http://www.w3.org/2000/svg"
   xmlns:sodipodi="http://sodipodi.sourceforge.net/DTD/sodipodi-0.dtd"
   xmlns:inkscape="http://www.inkscape.org/namespaces/inkscape"
   inkscape:version="1.0 (4035a4fb49, 2020-05-01)"
   sodipodi:docname="u1b00d.svg"
   id="svg6"
   height="200"
   width="200"
   viewBox="0 0 200 200"
   version="1.1">
  <metadata
     id="metadata12">
    <rdf:RDF>
      <cc:Work
         rdf:about="">
        <dc:format>image/svg+xml</dc:format>
        <dc:type
           rdf:resource="http://purl.org/dc/dcmitype/StillImage" />
      </cc:Work>
    </rdf:RDF>
  </metadata>
  <defs
     id="defs10" />
  <sodipodi:namedview
     inkscape:current-layer="svg6"
     inkscape:window-maximized="1"
     inkscape:window-y="28"
     inkscape:window-x="0"
     inkscape:cy="112.50825"
     inkscape:cx="102.9332"
     inkscape:zoom="2.815"
     showgrid="false"
     id="namedview8"
     inkscape:window-height="846"
     inkscape:window-width="1440"
     inkscape:pageshadow="2"
     inkscape:pageopacity="0"
     guidetolerance="10"
     gridtolerance="10"
     objecttolerance="10"
     borderopacity="1"
     bordercolor="#666666"
     pagecolor="#ffffff" />
  <g
     id="g4"
     fill="black">
    <path
       sodipodi:nodetypes="ccccccccccccccccccccccccccccccccccc"
       d="m 125.6,17.2 c 5.64584,1.177186 8.79432,6.44478 9.31428,11.182683 0.0867,3.69587 -2.29758,9.217764 -4.78589,13.763632 -7.05301,12.938954 -14.58452,25.657659 -23.42705,37.466123 2.55352,7.891606 3.1998,16.470826 1.19186,24.557462 15.63665,-3.17592 30.23652,-5.674375 42.48691,4.02159 8.32864,6.63869 13.57618,17.298 9.08889,30.66329 -6.22425,16.82834 -37.431,21.58528 -54.369,24.84522 -2.75525,0.81636 -8.026329,0.86718 -7.921372,3.53254 -0.09859,3.75278 21.445942,0.45664 29.021372,-1.03254 1.16667,4.5 2.33333,9 3.5,13.5 -12.06864,2.67025 -22.65318,4.32967 -33.960952,1.87237 -8.626889,-2.34504 -15.064468,-9.2613 -11.241754,-19.59447 3.004477,-7.35542 12.182943,-11.43802 18.876296,-12.27937 11.84797,-2.16436 24.52281,-4.43841 35.54761,-10.08502 12.76377,-7.85914 7.08603,-20.02506 -1.71633,-23.14623 -8.36238,-2.76809 -17.39446,-0.87186 -25.68824,1.24584 C 106.05519,119.1345 100.79627,121.17427 95.5,123.1 93.721797,118.76001 92.028643,114.2142 90.2,110 93.340059,105.30165 95.276858,99.7341 95.1,94.045545 87.375235,102.06449 76.631116,113.43052 66.74705,115.45586 52.931993,119.20019 36.598107,113.56834 37.638369,99.487537 38.873764,83.930524 52.446129,73.4169 65.840668,69.356235 74.624874,67.083299 88.591244,65.688691 95.891808,71.156211 103.65114,60.044098 122.18409,33.500255 119.63043,31.93913 117.638,30.719856 94.350046,48.589134 80.746445,54.180676 73.967188,57.03212 65.855727,56.597556 59.831848,52.195705 54.521547,48.305977 51.246623,42.386431 48.8,36.4 l 13,-5.1 c 2.030973,4.202696 4.161392,10.051839 9.426381,10.759027 C 88.160947,42.02366 109.4897,15.220465 125.6,17.2 Z M 51.925,97.625 c -1.110846,3.94182 6.772897,6.43874 10.73452,4.6663 C 72.737807,98.688208 80.871135,89.782192 86.957473,82.024037 73.330651,77.576129 56.125209,86.904126 51.925,97.625 Z"
       id="path2" />
  </g>
</svg>
