<?xml version="1.0" encoding="UTF-8" standalone="no"?>
<svg
   xmlns:dc="http://purl.org/dc/elements/1.1/"
   xmlns:cc="http://creativecommons.org/ns#"
   xmlns:rdf="http://www.w3.org/1999/02/22-rdf-syntax-ns#"
   xmlns:svg="http://www.w3.org/2000/svg"
   xmlns="http://www.w3.org/2000/svg"
   xmlns:sodipodi="http://sodipodi.sourceforge.net/DTD/sodipodi-0.dtd"
   xmlns:inkscape="http://www.inkscape.org/namespaces/inkscape"
   inkscape:version="1.0 (4035a4fb49, 2020-05-01)"
   sodipodi:docname="u1b00e.svg"
   id="svg6"
   height="200"
   width="200"
   viewBox="0 0 200 200"
   version="1.1">
  <metadata
     id="metadata12">
    <rdf:RDF>
      <cc:Work
         rdf:about="">
        <dc:format>image/svg+xml</dc:format>
        <dc:type
           rdf:resource="http://purl.org/dc/dcmitype/StillImage" />
      </cc:Work>
    </rdf:RDF>
  </metadata>
  <defs
     id="defs10" />
  <sodipodi:namedview
     inkscape:current-layer="svg6"
     inkscape:window-maximized="1"
     inkscape:window-y="28"
     inkscape:window-x="0"
     inkscape:cy="148.11952"
     inkscape:cx="86.77357"
     inkscape:zoom="2.815"
     showgrid="false"
     id="namedview8"
     inkscape:window-height="846"
     inkscape:window-width="1440"
     inkscape:pageshadow="2"
     inkscape:pageopacity="0"
     guidetolerance="10"
     gridtolerance="10"
     objecttolerance="10"
     borderopacity="1"
     bordercolor="#666666"
     pagecolor="#ffffff" />
  <g
     id="g4"
     fill="black">
    <path
       sodipodi:nodetypes="cccccccccccccccccccccccccccccccccccccccc"
       d="m 89.1,119.4 c -1.628442,3.38263 3.555239,4.09077 5.7,5.1 8.2269,2.08175 16.75663,2.34901 25.2,2.5 0.13431,4.92721 -0.26846,9.90303 0.2,14.8 -12.29036,2.46979 -23.763809,9.27127 -32.740611,17.68071 -1.593409,1.58386 -3.386512,4.48954 -0.130806,6.30554 12.108206,5.90337 35.941397,2.83481 52.371417,0.31375 0.83333,4.56667 1.66667,9.13333 2.5,13.7 -20.07052,2.53016 -49.300691,7.27995 -64.810771,-4.43158 C 61.001265,160.98525 81.947836,146.16416 93.334903,138.46814 85.869901,136.97321 77.934964,132.99457 75.433325,125.29708 74.43333,121.66234 74.877025,117.85137 76.1,114.3 Z m 97.21393,-62.547013 c 3.35817,11.086703 1.58535,22.84188 -7.04824,29.172748 C 166.36678,94.614872 149.92902,92.225383 136.6,90 c 0.86667,-4.566667 1.73333,-9.133333 2.6,-13.7 9.51883,1.392616 19.63959,3.343694 28.97007,0.164966 9.88206,-5.263648 6.93011,-19.865512 -3.41671,-21.390221 -14.31567,-2.1984 -28.61301,2.165713 -42.26443,6.082329 -9.59444,3.218042 -18.88034,7.706876 -28.530165,11.098733 -0.64433,5.165068 -1.430321,13.519687 -0.473206,15.577724 C 94.456871,90.133134 103.71039,90.868633 109,91 v 14 C 99.121299,104.9191 83.078132,99.829662 80.095102,94.966986 78.232918,91.3185 79.34091,83.158228 79.483963,77.491768 55.953609,83.581777 36.278616,92.595451 21,86.1 6.3546291,76.225344 18.243086,62.958074 26.2,53.8 l 10.1,9.7 c -2.869396,3.222941 -8.996759,8.831122 -7.334472,10.152063 6.35781,4.174218 38.125418,-6.524228 52.916642,-11.898894 C 83.599732,55.715714 87.040492,49.956864 92.4,46.5 l 5.678734,9.132019 c 19.257176,-8.333512 44.563586,-15.947602 63.255826,-15.025666 10.12998,0.313033 21.86351,7.24642 24.97937,16.246634 z M 126.6,23 c 0.23333,4.633333 0.46667,9.266667 0.7,13.9 -20.76291,1.25455 -42.483344,-1.088264 -60.9,-11.4 l 6.9,-12.2 c 16.656721,8.536416 37.4333,10.442748 53.3,9.7 z"
       id="path2" />
  </g>
</svg>
