<?xml version="1.0" encoding="UTF-8" standalone="no"?>
<svg
   xmlns:dc="http://purl.org/dc/elements/1.1/"
   xmlns:cc="http://creativecommons.org/ns#"
   xmlns:rdf="http://www.w3.org/1999/02/22-rdf-syntax-ns#"
   xmlns:svg="http://www.w3.org/2000/svg"
   xmlns="http://www.w3.org/2000/svg"
   xmlns:sodipodi="http://sodipodi.sourceforge.net/DTD/sodipodi-0.dtd"
   xmlns:inkscape="http://www.inkscape.org/namespaces/inkscape"
   inkscape:version="1.0 (4035a4fb49, 2020-05-01)"
   sodipodi:docname="u1b0b2.svg"
   id="svg6"
   height="200"
   width="200"
   viewBox="0 0 200 200"
   version="1.1">
  <metadata
     id="metadata12">
    <rdf:RDF>
      <cc:Work
         rdf:about="">
        <dc:format>image/svg+xml</dc:format>
        <dc:type
           rdf:resource="http://purl.org/dc/dcmitype/StillImage" />
      </cc:Work>
    </rdf:RDF>
  </metadata>
  <defs
     id="defs10" />
  <sodipodi:namedview
     inkscape:current-layer="svg6"
     inkscape:window-maximized="1"
     inkscape:window-y="28"
     inkscape:window-x="0"
     inkscape:cy="121.86327"
     inkscape:cx="127.86241"
     inkscape:zoom="2.815"
     showgrid="false"
     id="namedview8"
     inkscape:window-height="846"
     inkscape:window-width="1440"
     inkscape:pageshadow="2"
     inkscape:pageopacity="0"
     guidetolerance="10"
     gridtolerance="10"
     objecttolerance="10"
     borderopacity="1"
     bordercolor="#666666"
     pagecolor="#ffffff" />
  <g
     id="g4"
     fill="black">
    <path
       sodipodi:nodetypes="cccccccccccccccccccccccccccccccccc"
       d="m 110.27553,38.431108 c 26.13633,19.146925 -12.208055,43.039782 -22.973089,54.880848 3.961829,-1.480011 8.125853,-2.583064 13.751509,-3.825481 -0.8312,-2.604117 -1.941621,-4.536976 -2.663861,-6.257991 3.290841,-1.314101 10.084331,-3.692112 13.891491,-4.665043 1.05223,3.147 2.8333,8.737549 3.07947,8.659695 11.91599,-0.137367 27.14297,0.25265 36.22472,8.685802 11.13278,11.847382 11.50467,28.222242 6.33313,42.314562 -7.50291,18.74804 -27.69323,18.38954 -45.63418,15.51667 -1.96495,13.57498 -7.23902,23.96076 -12.843344,31.71851 C 95.998204,182.56842 92.589054,179.52422 89.2,176.7 c 12.77044,-22.24722 13.54119,-50.58893 12.9007,-73.77997 -17.728821,4.34009 -36.079238,12.28999 -48.086014,26.53808 -1.546505,3.48995 -3.857057,-0.5766 -5.858328,-1.58432 C 45.927922,126.10607 43.166581,125.18802 40.7,123.8 c 4.61697,-7.08519 10.912672,-12.93748 16.685471,-19.08547 4.573952,-4.40376 8.709086,-9.440282 13.660753,-13.00896 11.535621,-9.698842 23.392398,-19.511744 31.969236,-32.037567 2.60421,-3.491872 2.83173,-9.436375 -0.22595,-9.07991 C 95.448734,60.871364 84.465584,74.370283 73.165261,80.380844 55.229624,88.760019 42.394653,81.060595 42.181784,69.987184 42.107169,56.668177 58.34487,46.70796 71.343907,41.366841 79.363989,38.431326 91.052749,36.593031 95.126552,35.898693 99.36758,30.135628 88.269429,27.410445 87.998588,26.129149 L 91,13.2 c 13.79304,3.892554 23.52474,15.101815 19.27553,25.231108 z m 5.2913,62.054382 c 0.46405,11.6806 -0.0865,27.64488 -1.08835,39.2845 15.8418,2.51106 31.36687,3.23925 32.54928,-16.16904 1.74076,-16.46381 -13.0039,-26.184003 -31.46093,-23.11546 z M 85.07431,51.058635 C 75.927303,53.87624 57.863663,58.195083 56,68.7 c -0.353092,2.909954 5.083666,1.471516 7.300524,0.747655 7.916527,-2.511966 21.442194,-15.689818 21.773786,-18.38902 z"
       id="path2" />
  </g>
</svg>
