<?xml version="1.0" encoding="UTF-8" standalone="no"?>
<svg
   xmlns:dc="http://purl.org/dc/elements/1.1/"
   xmlns:cc="http://creativecommons.org/ns#"
   xmlns:rdf="http://www.w3.org/1999/02/22-rdf-syntax-ns#"
   xmlns:svg="http://www.w3.org/2000/svg"
   xmlns="http://www.w3.org/2000/svg"
   xmlns:sodipodi="http://sodipodi.sourceforge.net/DTD/sodipodi-0.dtd"
   xmlns:inkscape="http://www.inkscape.org/namespaces/inkscape"
   inkscape:version="1.0 (4035a4fb49, 2020-05-01)"
   sodipodi:docname="u1b00b.svg"
   id="svg6"
   height="200"
   width="200"
   viewBox="0 0 200 200"
   version="1.1">
  <metadata
     id="metadata12">
    <rdf:RDF>
      <cc:Work
         rdf:about="">
        <dc:format>image/svg+xml</dc:format>
        <dc:type
           rdf:resource="http://purl.org/dc/dcmitype/StillImage" />
      </cc:Work>
    </rdf:RDF>
  </metadata>
  <defs
     id="defs10" />
  <sodipodi:namedview
     inkscape:current-layer="svg6"
     inkscape:window-maximized="1"
     inkscape:window-y="28"
     inkscape:window-x="0"
     inkscape:cy="94.343549"
     inkscape:cx="101.29551"
     inkscape:zoom="2.815"
     showgrid="false"
     id="namedview8"
     inkscape:window-height="846"
     inkscape:window-width="1440"
     inkscape:pageshadow="2"
     inkscape:pageopacity="0"
     guidetolerance="10"
     gridtolerance="10"
     objecttolerance="10"
     borderopacity="1"
     bordercolor="#666666"
     pagecolor="#ffffff" />
  <g
     id="g4"
     fill="black">
    <path
       sodipodi:nodetypes="ccccccccccccccccccccccccccccccccccccccccc"
       d="m 99.850955,115.9 c 9.441925,0.11426 20.281085,0.77261 27.192305,8.01788 10.41798,14.04854 0.50121,31.66628 -9.45832,41.17894 C 107.88511,174.29861 96.785,181.84797 86,189.7 c -2.7,-3.83333 -5.4,-7.66667 -8.1,-11.5 12.089229,-8.96969 25.22193,-17.04013 34.98478,-28.67425 4.15923,-4.6839 6.7125,-16.87368 1.4948,-17.60384 -8.95564,-3.63747 -18.83545,-0.52962 -28.018662,-3.12106 C 81.108869,127.69955 76.041616,125.86809 71.1,123.8 l 5.6,-12.9 c 7.466875,3.00417 16.254202,5.55641 23.150955,5 z M 96.6,83.3 c -0.727307,4.482401 4.77028,6.203004 8.10815,7.369383 C 108.04101,91.827985 111.5233,92.450996 115,93 l -2.1,13.9 C 97.561598,103.08905 79.93176,98.812863 82.9,80.6 Z M 147,41.8 c 16.49837,0.606591 28.46104,18.5721 20.66582,30.12103 C 160.39903,82.609775 125.89205,81.371997 104.5,82.9 c -0.36667,-4.633333 -0.73333,-9.266667 -1.1,-13.9 16.13805,-1.41145 32.43591,-1.547422 48.4,-4.5 2.45601,-1.093779 4.28805,-0.838948 3.25093,-3.423608 -4.11272,-6.186502 -12.79352,-6.199201 -19.38473,-4.58349 -22.97471,4.579382 -46.097056,9.413942 -67.917427,18.125023 -7.882911,2.826076 -17.206381,6.36026 -25.213347,5.23107 C 34.585171,78.519432 29.238797,74.489366 29.4,67.8 30.242732,55.461159 37.263682,50.162775 46.4,43.6 l 7.4,11.8 c -3.86591,2.895023 -7.003413,5.274425 -8.855323,9.829915 C 43.338606,72.145912 68.60206,54.170854 134.17879,42.420973 138.40645,41.624177 142.71552,41.49151 147,41.8 Z M 90,15.7 c 1.250502,3.100762 5.605564,2.705345 8.4,3.3 10.7242,1.155964 21.94579,0.359837 32.9,1 -0.23333,4.633333 -0.71786,8.672285 -0.95119,13.305618 C 111.42434,32.357519 96.192526,34.405528 83.283188,28.720423 78.548018,25.915283 75.954108,20.410637 76,15 h 14 v 0.450136 z"
       id="path2" />
  </g>
</svg>
