<?xml version="1.0" encoding="UTF-8" standalone="no"?>
<svg
   xmlns:dc="http://purl.org/dc/elements/1.1/"
   xmlns:cc="http://creativecommons.org/ns#"
   xmlns:rdf="http://www.w3.org/1999/02/22-rdf-syntax-ns#"
   xmlns:svg="http://www.w3.org/2000/svg"
   xmlns="http://www.w3.org/2000/svg"
   xmlns:sodipodi="http://sodipodi.sourceforge.net/DTD/sodipodi-0.dtd"
   xmlns:inkscape="http://www.inkscape.org/namespaces/inkscape"
   inkscape:version="1.0 (4035a4fb49, 2020-05-01)"
   sodipodi:docname="u1b0a9.svg"
   id="svg6"
   height="200"
   width="200"
   viewBox="0 0 200 200"
   version="1.1">
  <metadata
     id="metadata12">
    <rdf:RDF>
      <cc:Work
         rdf:about="">
        <dc:format>image/svg+xml</dc:format>
        <dc:type
           rdf:resource="http://purl.org/dc/dcmitype/StillImage" />
      </cc:Work>
    </rdf:RDF>
  </metadata>
  <defs
     id="defs10" />
  <sodipodi:namedview
     inkscape:current-layer="svg6"
     inkscape:window-maximized="1"
     inkscape:window-y="28"
     inkscape:window-x="0"
     inkscape:cy="103.49225"
     inkscape:cx="104.90498"
     inkscape:zoom="2.815"
     showgrid="false"
     id="namedview8"
     inkscape:window-height="846"
     inkscape:window-width="1440"
     inkscape:pageshadow="2"
     inkscape:pageopacity="0"
     guidetolerance="10"
     gridtolerance="10"
     objecttolerance="10"
     borderopacity="1"
     bordercolor="#666666"
     pagecolor="#ffffff" />
  <g
     id="g4"
     fill="black">
    <path
       sodipodi:nodetypes="ccccccccccccccccccccccccccccccccccccc"
       d="m 90.3,23 c -3.174938,10.874828 -4.872559,22.121728 -5.987784,33.377844 5.044336,-1.13503 10.106091,-1.655194 15.166868,-1.02496 8.307226,1.054666 16.083336,5.464718 21.460856,11.850277 5.73096,-9.823454 16.32453,-16.471581 27.70735,-17.097304 9.59634,0.361637 20.6014,4.231152 25.35209,13.415886 4.05721,7.752143 4.71628,16.375904 0.74152,23.920109 -3.26169,7.158668 -8.76798,13.078358 -14.43765,18.440968 -17.26432,15.70616 -37.9667,25.36304 -57.56689,39.36263 -8.290689,5.94275 -16.603247,11.86379 -24.655144,18.1287 39.029094,-10.17349 77.872044,3.98474 79.696434,5.07728 -1.77979,4.02794 -3.89786,8.92062 -5.67765,12.94857 -19.17379,-8.14211 -40.61809,-7.7509 -60.970777,-5.67865 C 79.803098,176.94905 68.593947,179.03046 57.5,181.6 c -2.100093,-4.551 -3.971766,-8.42203 -6.52563,-13.64341 9.463182,-10.86728 40.593302,-32.25847 50.9881,-38.41686 17.61469,-12.07955 35.99225,-21.61773 51.14046,-36.097477 4.87298,-4.669122 14.7006,-19.27656 7.29686,-25.102486 C 155.70032,64.277822 148.41654,62.982526 142.71133,65.68325 136.00221,68.369598 132.08457,74.993784 129.5,81.4 c -4.33781,1.452533 -8.66592,3.513743 -13,5.2 -3.28332,-8.149598 -9.51684,-16.425863 -18.89596,-17.392136 -4.915323,-0.54554 -9.831653,0.581988 -14.502317,2.051027 C 81.818496,89.77689 81.890385,108.34801 81.9,126.9 c -4.638885,0.35353 -9.194373,1.59312 -13.8,2.3 -2.280931,-11.70899 -11.989071,-21.07976 -20.927923,-28.39846 l 9.68878,-7.944572 c 3.817693,3.153351 7.758223,3.697353 11.127635,7.331172 C 68.116487,93.145677 68.21616,86.099914 68.628913,79.066926 57.878241,86.82008 44.500663,99.758308 38.763862,115.03133 35.209242,115.88755 31.654621,116.74378 28.1,117.6 23.829972,99.845222 23.992737,81.201475 27.9,63.4 l 13.7,3 C 39.907368,73.849923 38.996456,81.468395 38.933148,89.108903 46.890127,77.805895 57.627661,68.639154 69.649141,61.888937 71.009699,47.380021 72.749858,32.786523 77,18.8 Z"
       id="path2" />
  </g>
</svg>
