<?xml version="1.0" encoding="UTF-8" standalone="no"?>
<svg
   xmlns:dc="http://purl.org/dc/elements/1.1/"
   xmlns:cc="http://creativecommons.org/ns#"
   xmlns:rdf="http://www.w3.org/1999/02/22-rdf-syntax-ns#"
   xmlns:svg="http://www.w3.org/2000/svg"
   xmlns="http://www.w3.org/2000/svg"
   xmlns:sodipodi="http://sodipodi.sourceforge.net/DTD/sodipodi-0.dtd"
   xmlns:inkscape="http://www.inkscape.org/namespaces/inkscape"
   inkscape:version="1.0 (4035a4fb49, 2020-05-01)"
   sodipodi:docname="fitzgerald_u-1b0a2.svg"
   id="svg6"
   height="200"
   width="200"
   viewBox="0 0 200 200"
   version="1.1">
  <metadata
     id="metadata12">
    <rdf:RDF>
      <cc:Work
         rdf:about="">
        <dc:format>image/svg+xml</dc:format>
        <dc:type
           rdf:resource="http://purl.org/dc/dcmitype/StillImage" />
      </cc:Work>
    </rdf:RDF>
  </metadata>
  <defs
     id="defs10" />
  <sodipodi:namedview
     inkscape:current-layer="svg6"
     inkscape:window-maximized="1"
     inkscape:window-y="28"
     inkscape:window-x="0"
     inkscape:cy="114.87979"
     inkscape:cx="80.437085"
     inkscape:zoom="2.815"
     showgrid="false"
     id="namedview8"
     inkscape:window-height="846"
     inkscape:window-width="1440"
     inkscape:pageshadow="2"
     inkscape:pageopacity="0"
     guidetolerance="10"
     gridtolerance="10"
     objecttolerance="10"
     borderopacity="1"
     bordercolor="#666666"
     pagecolor="#ffffff" />
  <g
     id="g4"
     fill="black">
    <path
       sodipodi:nodetypes="cccccccccccccccccsccccccccccccccccscccccccccccccccccc"
       d="m 79.8,11.9 c 10.040572,2.784156 26.27367,14.375953 15.611155,22.15518 -5.637095,3.85463 -14.925195,5.993577 -17.474195,10.657169 -0.818014,1.549786 1.715496,3.427291 3.525118,5.141871 7.096021,-3.289068 16.118023,-8.594473 23.385312,-11.436683 4.25096,-1.59698 9.08091,-2.09395 13.27249,-0.06965 9.23279,5.235787 8.72286,19.162273 7.91534,25.394593 33.64694,0.977432 36.09703,14.861576 20.29451,22.880052 -14.45165,7.8653 -44.88138,17.194528 -59.703483,24.320448 1.178181,-0.0355 19.730503,-4.53744 21.305783,-4.64503 8.34397,-1.37347 16.81515,-2.26125 25.25851,-2.58072 21.34678,-0.70626 40.44776,7.06223 41.13531,10.12941 0.49138,4.01778 0.98277,8.03557 1.47415,12.05336 -23.33981,3.43503 -46.39581,8.54656 -69.49517,13.29434 -3.69165,1.16449 -7.511267,2.38065 -10.542535,4.87615 1.933582,3.03845 5.093815,4.94142 7.937705,7.02951 -0.16065,4.53151 0.0995,6.56656 0.26704,11.18288 -2.63597,0.38872 -7.59534,0.91783 -11.984841,4.97413 -2.037027,1.8824 -0.297751,4.20755 2.940517,5.33462 C 109.91336,175.302 117.57368,173.21869 121.1,173 c 0.56667,4.63333 1.13333,9.26667 1.7,13.9 -8.27086,0.59131 -16.54168,1.21629 -24.813912,0.28891 -4.04132,-0.60352 -13.310507,-1.44975 -20.489506,-8.62267 -2.119971,-2.76053 -7.698182,-11.69179 9.147604,-23.43601 -3.266797,-3.44996 -5.431147,-8.05906 -4.744186,-12.88122 0.965422,-6.93615 7.252413,-11.52233 13.391824,-13.97866 8.491736,-3.75113 17.866396,-4.54322 27.008176,-6.67035 6.28707,-1.28424 12.57319,-2.57341 18.86583,-3.8301 -13.37349,-0.46822 -26.69709,1.34239 -39.81545,3.80355 -24.498003,4.98435 -54.524202,15.03909 -83.491133,6.85534 l 5.174869,-12.63463 c 9.51156,0.6671 18.045572,3.90461 27.316126,0.59804 26.589002,-13.85993 53.956348,-26.146457 81.481748,-38.008197 4.79732,-1.436515 0.065,-1.991538 -2.39675,-2.101878 -2.23177,-0.106842 -10.85803,0.599729 -14.86028,0.403988 -6.09097,-0.297896 -4.00297,-7.582852 -4.00297,-7.582852 1.69794,-7.207901 2.76317,-10.713837 1.51029,-18.147565 -5.29378,1.095268 -19.900061,6.87908 -24.430907,10.602005 1.830548,9.545004 -0.04386,18.129338 -2.583441,23.445364 C 80.22024,94.747446 63.56758,104.74121 49.248203,103.28956 43.482162,102.37067 37.391066,98.878429 36.202552,92.754266 34.896768,84.515485 40.432484,76.227563 48.984487,69.222082 55.17053,64.045479 62.18434,59.986119 69.19307,56.040905 66.986264,53.76436 65.608429,52.395277 64.166956,49.97538 62.579773,47.311664 58.106095,38.390078 75.701861,29.49121 79.938973,27.327535 80.645203,26.714 72.07054,24.691868 L 76.1,11.2 Z m -4.752798,56.510614 c -8.237312,4.696919 -17.932906,11.011274 -23.776057,18.194284 -2.471197,3.703734 1.273423,3.566568 3.960891,3.386864 6.618831,-0.931769 13.365299,-4.667537 16.903192,-10.51386 1.814406,-3.27941 3.386347,-7.369516 2.911974,-11.067288 z"
       id="path2" />
  </g>
</svg>
