<?xml version="1.0" encoding="UTF-8" standalone="no"?>
<svg
   xmlns:dc="http://purl.org/dc/elements/1.1/"
   xmlns:cc="http://creativecommons.org/ns#"
   xmlns:rdf="http://www.w3.org/1999/02/22-rdf-syntax-ns#"
   xmlns:svg="http://www.w3.org/2000/svg"
   xmlns="http://www.w3.org/2000/svg"
   xmlns:sodipodi="http://sodipodi.sourceforge.net/DTD/sodipodi-0.dtd"
   xmlns:inkscape="http://www.inkscape.org/namespaces/inkscape"
   inkscape:version="1.0 (4035a4fb49, 2020-05-01)"
   sodipodi:docname="u1b0b0.svg"
   id="svg6"
   height="200"
   width="200"
   viewBox="0 0 200 200"
   version="1.1">
  <metadata
     id="metadata12">
    <rdf:RDF>
      <cc:Work
         rdf:about="">
        <dc:format>image/svg+xml</dc:format>
        <dc:type
           rdf:resource="http://purl.org/dc/dcmitype/StillImage" />
      </cc:Work>
    </rdf:RDF>
  </metadata>
  <defs
     id="defs10" />
  <sodipodi:namedview
     inkscape:current-layer="svg6"
     inkscape:window-maximized="1"
     inkscape:window-y="28"
     inkscape:window-x="0"
     inkscape:cy="119.40131"
     inkscape:cx="79.717667"
     inkscape:zoom="1.9905056"
     showgrid="false"
     id="namedview8"
     inkscape:window-height="846"
     inkscape:window-width="1440"
     inkscape:pageshadow="2"
     inkscape:pageopacity="0"
     guidetolerance="10"
     gridtolerance="10"
     objecttolerance="10"
     borderopacity="1"
     bordercolor="#666666"
     pagecolor="#ffffff" />
  <g
     id="g4"
     fill="black">
    <path
       sodipodi:nodetypes="cccccccccccccccccccccc"
       d="M 125.69685,38.597367 C 111.70145,50.492 99.769323,65.222013 88.955612,78.483105 c 6.953087,2.119448 11.491268,8.966002 12.069448,16.03162 -0.21561,13.290895 -2.088091,25.869875 -2.586744,38.190005 6.578594,-12.29718 18.395204,-20.42674 31.327054,-19.1265 22.8783,2.12314 34.02797,15.88482 42.53463,32.52219 -4.23333,1.9 -8.46667,3.8 -12.7,5.7 -4.66848,-10.81949 -13.7671,-20.03361 -25.40887,-22.94828 -27.2452,-2.63553 -33.04465,28.68255 -35.29113,48.74828 -4.633333,0.23333 -9.266667,0.46667 -13.9,0.7 -1.413066,-22.64345 -1.114877,-45.40285 0.9,-68 1.037934,-7.20198 2.289712,-16.042289 -3.34708,-19.384622 -5.75039,2.067331 -8.367532,5.056593 -13.151695,10.538682 C 58.987804,113.93075 50.390776,127.78041 41.9,141.6 37.804328,139.36117 34.135947,136.22124 29.7,134.7 49.937921,102.86786 70.93196,72.964893 99.7,45.2 86.448914,48.678582 66.419676,54.166826 59.1,50.9 50.11528,47.511499 45.518903,40.019584 43.4,31.5 L 57,28.4 c 0.898225,3.020456 1.752605,7.230219 5.02987,8.346314 C 70.280942,39.928842 101.13708,31.579094 119.1,23.6 c 2.75448,5.741494 4.23922,9.840033 6.59685,14.997367 z"
       id="path2" />
  </g>
</svg>
