<?xml version="1.0" encoding="UTF-8" standalone="no"?>
<svg
   xmlns:dc="http://purl.org/dc/elements/1.1/"
   xmlns:cc="http://creativecommons.org/ns#"
   xmlns:rdf="http://www.w3.org/1999/02/22-rdf-syntax-ns#"
   xmlns:svg="http://www.w3.org/2000/svg"
   xmlns="http://www.w3.org/2000/svg"
   xmlns:sodipodi="http://sodipodi.sourceforge.net/DTD/sodipodi-0.dtd"
   xmlns:inkscape="http://www.inkscape.org/namespaces/inkscape"
   inkscape:version="1.0 (4035a4fb49, 2020-05-01)"
   sodipodi:docname="u1b0ad.svg"
   id="svg6"
   height="200"
   width="200"
   viewBox="0 0 200 200"
   version="1.1">
  <metadata
     id="metadata12">
    <rdf:RDF>
      <cc:Work
         rdf:about="">
        <dc:format>image/svg+xml</dc:format>
        <dc:type
           rdf:resource="http://purl.org/dc/dcmitype/StillImage" />
      </cc:Work>
    </rdf:RDF>
  </metadata>
  <defs
     id="defs10" />
  <sodipodi:namedview
     inkscape:current-layer="svg6"
     inkscape:window-maximized="1"
     inkscape:window-y="28"
     inkscape:window-x="0"
     inkscape:cy="84.205495"
     inkscape:cx="39.84184"
     inkscape:zoom="1.9905056"
     showgrid="false"
     id="namedview8"
     inkscape:window-height="846"
     inkscape:window-width="1440"
     inkscape:pageshadow="2"
     inkscape:pageopacity="0"
     guidetolerance="10"
     gridtolerance="10"
     objecttolerance="10"
     borderopacity="1"
     bordercolor="#666666"
     pagecolor="#ffffff" />
  <g
     id="g4"
     fill="black">
    <path
       sodipodi:nodetypes="ccccccccccccccccccccccccccccccccccccccccccc"
       d="M 82.4,21.9 C 76.72527,41.706249 74.000926,62.236948 72.777111,82.767907 77.977662,77.923752 82.737799,72.691235 88.351218,68.644906 95.283425,63.224167 102.50178,57.39252 111.16061,55.19112 c 21.18863,-4.508713 16.48694,16.18864 14.2438,29.401173 -3.9501,15.440287 -7.66273,31.181677 -7.69291,47.191727 0.37262,5.22496 0.30442,11.36122 4.10802,15.34615 9.0736,6.86176 32.90198,-7.66885 37.07261,-13.63361 4.12073,-7.10173 3.40782,-15.78206 1.45931,-23.44143 -7.55695,7.71122 -16.86328,13.43237 -26.25144,18.6449 -2.16667,-4.13333 -4.33333,-8.26667 -6.5,-12.4 11.65728,-6.49816 23.94803,-14.02405 30.2,-26.3 2.0639,-4.903556 3.87158,-12.129334 -1.39091,-15.679224 C 151.89444,71.315566 146.25777,71.052752 141,71 c -0.003,-4.627075 0.004,-9.808166 0,-14.1 5.46829,-7.167582 10.96596,-14.463135 14.60762,-22.763741 C 149.26746,33.531593 142.82633,35.222932 137.4,38.5 c -2.36667,-4.033333 -4.73333,-8.066667 -7.1,-12.1 11.37409,-6.904681 28.25899,-8.403841 40.74262,-3.830109 0.97158,12.263733 -8.10493,27.006393 -14.04966,36.30844 6.28917,2.16895 15.50838,9.805586 16.65713,19.830659 0.61855,3.130277 -0.22172,7.508838 -0.94931,11.059606 -1.11179,4.032038 -2.96323,7.792398 -5.15377,11.348354 2.89616,-0.88992 4.06298,-1.31454 5.2755,-1.666616 2.56637,8.196526 3.95455,20.626046 2.38111,29.128216 -1.03384,6.16179 -3.69159,12.09664 -7.92638,16.71774 -9.18743,10.06892 -31.63891,18.68596 -42.71077,17.19533 -15.9239,-3.53636 -20.58808,-15.62962 -20.87499,-31.06702 -0.0117,-15.81893 3.36708,-31.42221 7.15964,-46.714111 C 112.24923,79.401106 115.65951,69.38006 113.7,68.9 111.06211,67.750634 98.218343,78.664049 91.49733,84.137666 85.02457,90.521391 78.280546,96.623474 71.947846,103.14978 71.529808,128.23244 72.823994,153.30909 74.9,178.3 c -4.633333,0.43333 -9.266667,0.86667 -13.9,1.3 -1.81887,-20.73964 -2.988118,-41.54367 -3.1,-62.36545 -7.094124,7.2064 -14.121782,14.49341 -20.6,22.26545 -4.908217,-0.003 -11.578331,0.57119 -14.424584,0.73554 C 20.770156,119.24004 21.030587,96.63677 28,76.5 l 13.2,4.8 c -4.357713,12.431919 -5.608574,25.74702 -5.461424,38.85372 7.237172,-7.90503 14.861681,-15.44375 22.383299,-23.075595 C 58.776076,70.399205 61.680904,43.627982 69,17.9 Z"
       id="path2" />
  </g>
</svg>
