<?xml version="1.0" encoding="UTF-8" standalone="no"?>
<svg
   xmlns:dc="http://purl.org/dc/elements/1.1/"
   xmlns:cc="http://creativecommons.org/ns#"
   xmlns:rdf="http://www.w3.org/1999/02/22-rdf-syntax-ns#"
   xmlns:svg="http://www.w3.org/2000/svg"
   xmlns="http://www.w3.org/2000/svg"
   xmlns:sodipodi="http://sodipodi.sourceforge.net/DTD/sodipodi-0.dtd"
   xmlns:inkscape="http://www.inkscape.org/namespaces/inkscape"
   inkscape:version="1.0 (4035a4fb49, 2020-05-01)"
   sodipodi:docname="fitzgerald_u-1b000.svg"
   id="svg6"
   height="200"
   width="200"
   viewBox="0 0 200 200"
   version="1.1">
  <metadata
     id="metadata12">
    <rdf:RDF>
      <cc:Work
         rdf:about="">
        <dc:format>image/svg+xml</dc:format>
        <dc:type
           rdf:resource="http://purl.org/dc/dcmitype/StillImage" />
      </cc:Work>
    </rdf:RDF>
  </metadata>
  <defs
     id="defs10" />
  <sodipodi:namedview
     inkscape:current-layer="g4"
     inkscape:window-maximized="1"
     inkscape:window-y="28"
     inkscape:window-x="0"
     inkscape:cy="71.964137"
     inkscape:cx="133.91277"
     inkscape:zoom="1.9905056"
     showgrid="false"
     id="namedview8"
     inkscape:window-height="846"
     inkscape:window-width="1440"
     inkscape:pageshadow="2"
     inkscape:pageopacity="0"
     guidetolerance="10"
     gridtolerance="10"
     objecttolerance="10"
     borderopacity="1"
     bordercolor="#666666"
     pagecolor="#ffffff" />
  <g
     id="g4"
     fill="black">
    <path
       sodipodi:nodetypes="cccccccccccccccccccccccccccc"
       d="m 157.5,80.9 c -0.42534,0.640046 -1.35341,4.101115 -2.12924,6.110733 -3.16591,8.015797 -7.07839,15.940817 -11.23377,23.624207 -4.2219,6.72357 -8.42581,13.46011 -13.70318,19.42411 -4.52675,5.8316 -10.03154,10.84661 -15.41246,15.86598 -6.31189,5.20356 -12.70921,10.28868 -19.766378,14.45897 -6.548172,4.32531 -13.695119,7.6954 -20.747664,11.0996 -8.708769,3.78499 -20.723688,8.46167 -29.824512,11.1873 C 43.973297,181.1327 40.99678,172.65039 40,169.2 c 9.096801,-2.84006 18.191183,-5.68668 26.86285,-9.68037 6.557395,-2.82908 12.953748,-6.13054 19.095477,-9.7635 7.153509,-4.37015 13.866595,-9.35231 20.324563,-14.68896 6.08324,-5.62806 11.88002,-11.58276 16.82471,-18.25782 3.97158,-5.11208 7.44226,-10.65991 10.59875,-16.3045 3.11788,-5.989411 6.15424,-12.014648 8.2688,-18.444947 -31.80643,2.047785 -67.388801,5.095843 -101.456923,3.246965 L 41.7,71.1 c 19.056284,1.580959 38.035908,0.936028 57.108587,0.129919 C 117.96369,70.274939 137.27808,68.465979 156.4,67 c 0.36667,4.633333 0.73333,9.266667 1.1,13.9 z M 79.7,17.8 c 14.719302,7.548468 27.55682,19.116966 35.35168,33.819053 1.18206,2.107502 2.15102,4.328358 3.24832,6.480947 -4.23333,1.9 -8.46667,3.8 -12.7,5.7 C 99.37055,49.741216 88.252208,38.083748 74.642826,30.967329 72.780773,29.5302 69.61826,28.302621 68.263144,27.424186 L 73.7,14.9 Z"
       id="path2" />
  </g>
</svg>
