<?xml version="1.0" encoding="UTF-8" standalone="no"?>
<svg
   xmlns:dc="http://purl.org/dc/elements/1.1/"
   xmlns:cc="http://creativecommons.org/ns#"
   xmlns:rdf="http://www.w3.org/1999/02/22-rdf-syntax-ns#"
   xmlns:svg="http://www.w3.org/2000/svg"
   xmlns="http://www.w3.org/2000/svg"
   xmlns:sodipodi="http://sodipodi.sourceforge.net/DTD/sodipodi-0.dtd"
   xmlns:inkscape="http://www.inkscape.org/namespaces/inkscape"
   inkscape:version="1.0 (4035a4fb49, 2020-05-01)"
   sodipodi:docname="u1b0e0.svg"
   id="svg6"
   height="200"
   width="200"
   viewBox="0 0 200 200"
   version="1.1">
  <metadata
     id="metadata12">
    <rdf:RDF>
      <cc:Work
         rdf:about="">
        <dc:format>image/svg+xml</dc:format>
        <dc:type
           rdf:resource="http://purl.org/dc/dcmitype/StillImage" />
      </cc:Work>
    </rdf:RDF>
  </metadata>
  <defs
     id="defs10" />
  <sodipodi:namedview
     inkscape:current-layer="svg6"
     inkscape:window-maximized="1"
     inkscape:window-y="28"
     inkscape:window-x="0"
     inkscape:cy="101.91824"
     inkscape:cx="133.94936"
     inkscape:zoom="2.815"
     showgrid="false"
     id="namedview8"
     inkscape:window-height="846"
     inkscape:window-width="1440"
     inkscape:pageshadow="2"
     inkscape:pageopacity="0"
     guidetolerance="10"
     gridtolerance="10"
     objecttolerance="10"
     borderopacity="1"
     bordercolor="#666666"
     pagecolor="#ffffff" />
  <g
     id="g4"
     fill="black">
    <path
       sodipodi:nodetypes="sscssccccscccccccscccccsccccccsasccccccsccssccsccccc"
       d="m 156.8,33.9 c 16.00219,2.483765 25.50789,18.035331 21.57904,32.609663 -1.78709,6.629347 -5.0292,9.289761 -11.85692,17.337051 C 174.64773,89.729659 179.42683,101.04812 179,111 c -0.49334,11.50251 -6.134,16.69475 -13.08914,22.26726 -4.97219,3.98376 -11.24368,6.31994 -17.52633,7.6266 -0.94963,14.55583 -2.1198,29.49943 -8.08453,43.00614 -4.23333,-1.96667 -8.46667,-3.93333 -12.7,-5.9 4.81329,-11.28135 5.83105,-23.71083 6.67225,-35.81858 -14.70479,-1.58898 -24.58603,-7.11247 -27.88775,-17.52519 -4.32479,-13.63917 -4.06134,-28.738735 -1.57398,-42.89638 1.07865,-5.255785 2.50181,-10.680553 5.59044,-15.099417 2.37711,-2.826928 4.50453,-5.80613 8.17817,-6.930153 2.93584,-1.72458 6.71647,-2.013889 9.99091,-1.740267 3.26361,0.990257 6.60809,1.844923 8.73882,4.734629 4.63944,4.40351 6.51242,10.924972 8.06276,16.971524 3.38887,15.227173 3.54485,31.053984 3.55652,46.484174 6.40882,-2.04431 12.78212,-3.65634 15.54159,-12.53356 3.17384,-10.21027 -6.11799,-19.90715 -14.43077,-21.665171 L 150.8,78.1 C 159.5155,72.895916 169.60028,61.900922 161.90769,53.056288 150.92121,41.25138 131.8062,50.815643 122.1,57.8 l -8.7,-10.9 c 15.54258,-9.156672 28.47696,-15.316265 43.4,-13 z M 79.4,60 78.5,73.9 c -4.55859,1.428621 -5.499273,7.221544 -6.96003,11.227602 L 80.1,76.9 89.8,87 c -6.319681,6.012229 -12.576048,12.088695 -18.653132,18.34706 5.114797,8.94492 8.067467,21.59298 9.512026,29.12765 2.308482,12.04081 -1.952037,27.95528 -12.113023,34.9264 -10.311395,7.07431 -28.488389,9.84708 -37.492369,-1.28777 -10.417112,-12.88242 -3.939527,-30.94427 9.194611,-48.84378 4.73245,-6.0522 9.785962,-11.84677 15.026972,-17.46233 C 54.188239,91.398878 57.23534,80.61681 61.759941,71.610781 47.208098,68.664793 33.48276,61.375113 23.4,50.4 L 33.8,41 c 11.991038,12.165884 30.416912,18.176415 45.6,19 z m -40.3,89.2 c -0.89484,15.94437 18.658437,15.59704 24.128209,6.55028 7.460118,-11.81906 2.349017,-29.96825 -2.204302,-39.45235 C 52.830554,126.06014 39.838485,136.04158 39.1,149.2 Z m 80.6,-28.09725 c 3.39001,7.15798 10.27333,5.62711 15.20673,6.63873 C 136.35809,109.83487 132.44643,72.162465 126.5,71.6 c -10.23614,-0.805381 -12.51788,37.42949 -6.8,49.50275 z M 82.382796,29.278588 c 0.540127,4.872861 1.176825,9.029829 2.057722,13.679296 C 62.988773,44.243636 50.445569,38.971611 38.9,23.9 l 11.3,-8.3 c 6.108116,10.859219 22.061084,15.618881 32.182796,13.678588 z"
       id="path2" />
  </g>
</svg>
