<?xml version="1.0" encoding="UTF-8" standalone="no"?>
<svg
   xmlns:dc="http://purl.org/dc/elements/1.1/"
   xmlns:cc="http://creativecommons.org/ns#"
   xmlns:rdf="http://www.w3.org/1999/02/22-rdf-syntax-ns#"
   xmlns:svg="http://www.w3.org/2000/svg"
   xmlns="http://www.w3.org/2000/svg"
   xmlns:sodipodi="http://sodipodi.sourceforge.net/DTD/sodipodi-0.dtd"
   xmlns:inkscape="http://www.inkscape.org/namespaces/inkscape"
   inkscape:version="1.0 (4035a4fb49, 2020-05-01)"
   sodipodi:docname="u1b0c3.svg"
   id="svg6"
   height="200"
   width="200"
   viewBox="0 0 200 200"
   version="1.1">
  <metadata
     id="metadata12">
    <rdf:RDF>
      <cc:Work
         rdf:about="">
        <dc:format>image/svg+xml</dc:format>
        <dc:type
           rdf:resource="http://purl.org/dc/dcmitype/StillImage" />
      </cc:Work>
    </rdf:RDF>
  </metadata>
  <defs
     id="defs10" />
  <sodipodi:namedview
     inkscape:current-layer="svg6"
     inkscape:window-maximized="1"
     inkscape:window-y="28"
     inkscape:window-x="0"
     inkscape:cy="118.89504"
     inkscape:cx="88.784195"
     inkscape:zoom="2.815"
     showgrid="false"
     id="namedview8"
     inkscape:window-height="846"
     inkscape:window-width="1440"
     inkscape:pageshadow="2"
     inkscape:pageopacity="0"
     guidetolerance="10"
     gridtolerance="10"
     objecttolerance="10"
     borderopacity="1"
     bordercolor="#666666"
     pagecolor="#ffffff" />
  <g
     id="g4"
     fill="black">
    <path
       sodipodi:nodetypes="ccccccccccccccccccccccccccccccccccccccccccccccccccc"
       d="m 108.09253,28.484252 c 1.48082,4.048337 0.26463,10.567675 0.7409,23.009816 10.4615,-2.059812 21.8501,-3.983455 32.0517,0.05204 5.65727,2.500442 9.8038,8.128203 9.96743,14.379813 -0.0272,2.057739 -1.08708,4.733034 -2.54501,6.718108 C 143.48101,78.574332 135.7582,80.938382 128.6,82.7 l -3.3,-13.5 c 3.62284,-1.223479 11.67863,-2.62726 10.9,-4.4 -0.83105,-2.397825 -11.94613,-1.316539 -17.78999,-0.847033 -3.21906,0.534735 -6.43501,1.085456 -9.61001,1.845663 0.005,12.610822 -0.0242,25.221716 0.0554,37.83238 6.67866,-0.47218 18.77444,-2.789 19.71132,-6.214343 0.17308,-1.007486 -1.71934,-2.529757 -2.7527,-3.831351 L 137.20005,85.3 c 3.36355,3.794498 5.64252,8.603148 5.26569,13.759593 -0.57789,3.721127 -2.59052,7.087127 -5.48881,9.539077 -7.98872,6.12514 -18.36219,7.62107 -28.05564,9.20883 -0.0835,16.44215 0.57766,32.95206 -1.00484,49.33621 -0.7882,6.11165 -2.71533,12.18795 -7.0164,16.75629 -11.006746,-8.43491 -22.635333,-14.00272 -34.1,-19.7 l 5.024375,-9.969 c -4.8286,3.2611 -29.009405,17.22718 -37.619503,15.07642 -5.940706,-2.09075 -10.30135,-15.01008 -6.061871,-22.70468 C 30.29755,142.13383 34.385636,138.986 38.5,136.4 c 2.366667,4.03333 4.733333,8.06667 7.1,12.1 -2.233921,1.69642 -7.107691,5.22457 -5.240741,6.9963 C 42.44723,157.02337 61.153154,144.38628 71.1,138.1 l 7.7,11.7 c -2.010011,1.22294 -2.367451,1.44398 -3.923053,2.58411 5.233628,3.59558 13.362985,7.78052 19.397653,10.4043 1.025134,-14.58002 0.629892,-29.22513 0.652869,-43.83407 -9.59829,0.35751 -19.888109,-0.37719 -28.213881,-5.56337 C 54.161965,104.4157 58.941844,93.026966 69.9,86.1 l 6.3,12.6 c -3.077557,0.982148 -3.264301,2.60959 -0.259014,3.84293 5.919312,2.57501 12.564217,2.62955 18.920411,2.47835 C 94.786121,93.045762 94.798039,81.070053 94.8,69.094366 82.248526,72.345709 62.768747,79.280955 57.1,78.7 46.210456,77.622754 36.392074,67.799954 32.9,59.6 l 12.9,-5.5 c 1.912267,4.786908 5.943251,9.573205 11.218037,10.295491 3.501803,0.509452 25.234621,-6.400285 37.806092,-9.775064 l 0.253074,-20.32761 C 95.178207,31.148286 85.487719,29.337085 80.6,29 l 0.7,-14 c 8.472468,0.526136 24.48237,6.730607 26.79253,13.484252 z M 176.1,158.7 c -4.1,2.16667 -8.2,4.33333 -12.3,6.5 -7.70189,-10.85844 -15.86156,-27.66458 -30,-21.3 -1.93333,-4.23333 -3.86667,-8.46667 -5.8,-12.7 27.20695,-10.09434 38.54245,10.67657 48.1,27.5 z"
       id="path2" />
  </g>
</svg>
