<?xml version="1.0" encoding="UTF-8" standalone="no"?>
<svg
   xmlns:dc="http://purl.org/dc/elements/1.1/"
   xmlns:cc="http://creativecommons.org/ns#"
   xmlns:rdf="http://www.w3.org/1999/02/22-rdf-syntax-ns#"
   xmlns:svg="http://www.w3.org/2000/svg"
   xmlns="http://www.w3.org/2000/svg"
   xmlns:sodipodi="http://sodipodi.sourceforge.net/DTD/sodipodi-0.dtd"
   xmlns:inkscape="http://www.inkscape.org/namespaces/inkscape"
   inkscape:version="1.0 (4035a4fb49, 2020-05-01)"
   sodipodi:docname="fitzgerald_u-1b00a.svg"
   id="svg6"
   height="200"
   width="200"
   viewBox="0 0 200 200"
   version="1.1">
  <metadata
     id="metadata12">
    <rdf:RDF>
      <cc:Work
         rdf:about="">
        <dc:format>image/svg+xml</dc:format>
        <dc:type
           rdf:resource="http://purl.org/dc/dcmitype/StillImage" />
      </cc:Work>
    </rdf:RDF>
  </metadata>
  <defs
     id="defs10" />
  <sodipodi:namedview
     inkscape:current-layer="g4"
     inkscape:window-maximized="1"
     inkscape:window-y="28"
     inkscape:window-x="0"
     inkscape:cy="128.12442"
     inkscape:cx="115.32627"
     inkscape:zoom="3.9810112"
     showgrid="false"
     id="namedview8"
     inkscape:window-height="846"
     inkscape:window-width="1440"
     inkscape:pageshadow="2"
     inkscape:pageopacity="0"
     guidetolerance="10"
     gridtolerance="10"
     objecttolerance="10"
     borderopacity="1"
     bordercolor="#666666"
     pagecolor="#ffffff"
     inkscape:document-rotation="0" />
  <g
     id="g4"
     fill="black">
    <path
       sodipodi:nodetypes="cccccccccccccccccccccccccccccccccccccccscccccccccc"
       d="m 98.2,96.2 c 10.34639,1.536972 18.00608,10.4395 19.7587,20.36886 1.08852,6.29706 0.83979,20.27909 0.72861,26.88197 9.77498,1.22885 19.67203,3.3019 29.21269,5.74917 l -3.9,13.5 c -8.31786,-2.1888 -16.71206,-3.99042 -25.25446,-5.04038 -0.0887,4.75813 -0.13148,21.38596 -0.75882,25.99948 -4.14982,0.0375 -8.56569,0.0214 -12.53374,0.006 C 98.017609,176.80749 74.034921,167.21921 72.305522,166.17882 69.095027,164.32065 65.701507,161.56837 64.6,158.1 c -0.18875,-2.63059 -0.888383,-6.72313 3.884778,-9.69789 2.813389,-2.12802 7.358398,-3.38581 12.118039,-4.56741 7.995797,-1.61635 16.226148,-1.45246 24.352103,-1.34416 -0.0512,-8.01737 0.52563,-16.69469 -0.84946,-24.0973 C 103.47128,115.12323 99.671215,109.97098 95,110 V 96 c 1.066667,0.06667 2.133333,0.133333 3.2,0.2 z m -12.7,60.9 c -0.778044,0.66826 3.908292,2.09541 5.3,3.1 4.706928,2.33219 9.27001,4.94857 13.68666,7.79151 0.12472,-3.83163 0.19222,-7.66471 0.27691,-11.49735 C 98.32082,156.31633 91.914243,156.40767 85.5,157.1 Z M 144.8,48.6 c 8.26513,0.705645 16.73222,4.91472 20.17425,12.829601 0.77395,2.765806 0.69167,4.906249 -0.0956,7.175636 -2.72391,6.920717 -9.70101,12.770242 -16.34713,16.792703 C 140.13229,89.963853 131.20479,93.435775 122.2,96.6 l -4.5,-13.3 c 10.88332,-3.984414 22.32942,-7.718657 31.29709,-15.314565 2.23739,-2.173098 0.47028,-3.819514 -1.62596,-4.634095 -6.78528,-1.967088 -13.59668,-0.02675 -20.21484,1.590541 -23.17925,7.35863 -43.354115,20.465833 -65.114861,31.0253 -3.411289,1.723837 -6.481087,3.160769 -9.630848,4.083369 -2.830256,0.82215 -6.296819,1.06597 -8.982747,0.14597 C 39.972678,98.804135 38.113781,96.899418 37,94.4 c -2.760027,-8.925804 0.615864,-18.23971 4.078641,-26.476943 1.092722,-2.029869 2.370874,-4.63034 3.695883,-6.40639 L 56.5,68.3 c -3.014933,5.373894 -4.441862,8.51684 -5.88276,13.64291 -0.801519,2.717879 -0.214331,5.154929 6.014191,2.466887 9.346898,-4.033841 37.836445,-20.912685 46.671349,-24.880844 7.19057,-3.341409 13.37806,-6.040045 20.97278,-8.326731 1.86988,-0.771899 4.90612,-1.2685 7.23578,-1.760537 C 135.89966,48.683281 140.35049,48.357012 144.8,48.6 Z m -57,-33.1 c 11.379758,7.317141 25.13975,10.584346 38.6,9.5 0.36667,4.633333 0.73333,9.266667 1.1,13.9 -18.34214,1.562535 -37.112214,-3.71794 -51.9,-14.7 l 8.3,-11.3 z"
       id="path2" />
  </g>
</svg>
