<?xml version="1.0" encoding="UTF-8" standalone="no"?>
<svg
   xmlns:dc="http://purl.org/dc/elements/1.1/"
   xmlns:cc="http://creativecommons.org/ns#"
   xmlns:rdf="http://www.w3.org/1999/02/22-rdf-syntax-ns#"
   xmlns:svg="http://www.w3.org/2000/svg"
   xmlns="http://www.w3.org/2000/svg"
   xmlns:sodipodi="http://sodipodi.sourceforge.net/DTD/sodipodi-0.dtd"
   xmlns:inkscape="http://www.inkscape.org/namespaces/inkscape"
   inkscape:version="1.0 (4035a4fb49, 2020-05-01)"
   sodipodi:docname="u1b0b7.svg"
   id="svg6"
   height="200"
   width="200"
   viewBox="0 0 200 200"
   version="1.1">
  <metadata
     id="metadata12">
    <rdf:RDF>
      <cc:Work
         rdf:about="">
        <dc:format>image/svg+xml</dc:format>
        <dc:type
           rdf:resource="http://purl.org/dc/dcmitype/StillImage" />
      </cc:Work>
    </rdf:RDF>
  </metadata>
  <defs
     id="defs10" />
  <sodipodi:namedview
     inkscape:current-layer="svg6"
     inkscape:window-maximized="1"
     inkscape:window-y="28"
     inkscape:window-x="0"
     inkscape:cy="131.55414"
     inkscape:cx="78.305895"
     inkscape:zoom="2.815"
     showgrid="false"
     id="namedview8"
     inkscape:window-height="846"
     inkscape:window-width="1440"
     inkscape:pageshadow="2"
     inkscape:pageopacity="0"
     guidetolerance="10"
     gridtolerance="10"
     objecttolerance="10"
     borderopacity="1"
     bordercolor="#666666"
     pagecolor="#ffffff" />
  <g
     id="g4"
     fill="black">
    <path
       sodipodi:nodetypes="cccccccccccccccccccccccccccccccccccccccccccccccc"
       d="m 103.51736,29.191053 c 0.14248,2.535668 -1.444,6.762755 -1.444,6.762755 2.14425,-1.104271 3.75666,-1.91181 5.74659,-3.410137 3.44406,1.876036 9.83599,4.880294 13.28005,6.756329 -4.62281,8.031273 -9.89793,15.67127 -15.38923,23.129191 9.55835,-2.637661 19.85111,-3.399492 29.39637,-0.302405 8.12561,2.964494 16.13669,13.309557 14.26326,24.994819 -2.82425,15.473605 -18.14396,17.883765 -32.2314,14.322865 -1.38006,3.48329 -1.09658,4.477 2.79394,3.54247 8.47599,-0.75776 17.47662,0.49445 24.582,5.45285 5.24892,3.94074 8.77215,9.91435 10.21991,16.30194 2.46279,16.9459 -5.96085,31.09633 -24.36298,38.99894 -16.6886,5.35836 -39.429023,4.32998 -53.538568,-9.83879 -15.09941,-4.11496 -34.150509,-3.94791 -33.287907,-0.97096 C 48.839343,170.50031 120.60209,178.46061 167.8,168 c 0.76667,4.63333 1.53333,9.26667 2.3,13.9 -33.61315,2.78486 -116.903997,11.04915 -137.493857,-18.85098 -5.48918,-9.37905 0.258886,-20.42116 10.016915,-21.65923 9.951335,-1.11324 19.024773,-1.55383 28.126375,0.53939 0.952592,-6.87509 6.152196,-14.97214 11.651812,-17.58993 9.150484,-3.70655 22.410935,-3.88428 27.741805,4.32202 6.64082,10.45352 2.5456,19.74211 -16.595414,24.12696 19.551854,7.59018 44.412744,1.91613 48.005604,-17.03725 2.16796,-14.79417 -13.55455,-17.80875 -24.45862,-16.38342 -4.49973,0.54286 -8.8302,1.86591 -13.19462,3.03244 -1.34965,-4.49631 -2.84706,-9.62209 -4.128569,-13.71299 2.004099,-4.85843 4.217659,-9.840886 4.428569,-15.164788 -1.68323,0.149714 -2.13379,0.191024 -3.43089,0.515162 0.026,-2.860688 -0.61015,-11.232904 -1.261676,-13.353522 C 91.364738,85.667586 83.706668,91.735542 77.1,98.7 L 66.8,89.2 C 75.586297,78.485623 84.511046,67.533684 92.804725,56.300482 89.317571,58.244469 85.83496,60.199349 82.5,62.4 79.674909,58.679833 76.400515,55.290858 73.4,51.7 c 5.991026,-5.868807 13.015262,-11.523419 16,-19.6 1.422129,-2.947192 -1.484185,-5.274586 -3.8,-6.5 l 6.5,-12.4 c 6.052651,3.443095 11.17894,10.109382 11.41736,15.991053 z M 91.8,135.7 c -3.137102,0.79332 -7.524146,2.62363 -7.256897,6.49138 5.185385,-0.30041 10.930433,-0.22767 15.342046,-3.2795 C 99.42834,135.36373 94.458249,135.36545 91.8,135.7 Z m 23.7,-61.2 c -5.03084,1.070219 -10.09615,2.474944 -14.45909,5.281818 5.80945,-1.007348 12.65913,1.160456 15.37709,6.65562 7.20938,2.712087 19.74,5.207347 19.782,-5.337438 -1.34819,-5.691599 -8.28178,-6.845819 -13.27135,-7.006039 C 120.4506,73.86186 117.97439,74.372337 115.5,74.5 Z"
       id="path2" />
  </g>
</svg>
