<?xml version="1.0" encoding="UTF-8" standalone="no"?>
<svg
   xmlns:dc="http://purl.org/dc/elements/1.1/"
   xmlns:cc="http://creativecommons.org/ns#"
   xmlns:rdf="http://www.w3.org/1999/02/22-rdf-syntax-ns#"
   xmlns:svg="http://www.w3.org/2000/svg"
   xmlns="http://www.w3.org/2000/svg"
   xmlns:sodipodi="http://sodipodi.sourceforge.net/DTD/sodipodi-0.dtd"
   xmlns:inkscape="http://www.inkscape.org/namespaces/inkscape"
   inkscape:version="1.0 (4035a4fb49, 2020-05-01)"
   sodipodi:docname="u1b009.svg"
   id="svg6"
   height="200"
   width="200"
   viewBox="0 0 200 200"
   version="1.1">
  <metadata
     id="metadata12">
    <rdf:RDF>
      <cc:Work
         rdf:about="">
        <dc:format>image/svg+xml</dc:format>
        <dc:type
           rdf:resource="http://purl.org/dc/dcmitype/StillImage" />
      </cc:Work>
    </rdf:RDF>
  </metadata>
  <defs
     id="defs10" />
  <sodipodi:namedview
     inkscape:current-layer="svg6"
     inkscape:window-maximized="1"
     inkscape:window-y="28"
     inkscape:window-x="0"
     inkscape:cy="130.74323"
     inkscape:cx="94.64311"
     inkscape:zoom="2.815"
     showgrid="false"
     id="namedview8"
     inkscape:window-height="846"
     inkscape:window-width="1440"
     inkscape:pageshadow="2"
     inkscape:pageopacity="0"
     guidetolerance="10"
     gridtolerance="10"
     objecttolerance="10"
     borderopacity="1"
     bordercolor="#666666"
     pagecolor="#ffffff" />
  <g
     id="g4"
     fill="black">
    <path
       sodipodi:nodetypes="ssccccccscccssscsccsssssssssscscsssccccccssscsssssccassssccsccccsccssccsc"
       d="m 62.1,17.6 c 7.880659,2.626886 12.958734,11.356981 11.745917,19.57323 -2.56327,17.364918 -5.143948,34.7556 -6.576518,52.263382 L 73.8,82.2 84.1,91.7 C 77.815732,98.522602 71.619211,105.43092 65.755319,112.62057 64.630876,136.26506 64.798473,159.95794 65.9,183.6 c -4.633333,0.23333 -9.266667,0.46667 -13.9,0.7 -0.474399,-9.5005 -0.1829,-19.03485 -0.955229,-28.51666 -0.522078,-6.40949 -1.739872,-13.35159 -3.008854,-19.89718 C 42.221939,144.15356 37.099653,152.90117 32.7,162 c -4.293815,-1.85574 -8.63464,-4.28262 -12.9,-5.8 -6.734906,-14.06642 -5.944516,-30.47203 -2.1,-45.2 1.666509,-6.38424 4.611979,-12.527584 9.634986,-17.017318 6.129581,-5.478828 12.58404,-5.702361 18.998011,-0.242117 2.472014,2.104438 4.692552,4.51163 6.042057,7.528645 1.28739,-22.068171 4.04942,-44.051755 7.479094,-65.856991 C 60.31104,32.507383 57.621641,30.445295 55,30 l 3.8,-13.5 z m 89.94406,36.40594 c 0.34139,2.301905 0.57198,5.89652 -0.60899,10.06464 -2.00784,7.086495 -6.88196,11.421829 -10.19231,17.559098 -0.58297,1.080802 -0.81058,2.425158 0.34099,2.723816 10.85067,2.814103 22.60935,6.740971 30.35092,13.761877 15.05724,13.655569 13.37156,33.892879 6.60982,50.837289 -2.82476,7.07864 -6.75631,12.18887 -11.39018,17.6658 -4.32269,5.10914 -9.3069,9.56156 -15.25431,12.28154 -12.49957,5.71653 -29.94713,7.08508 -40.90648,-2.62362 -3.17101,-2.80914 -6.93097,-4.86211 -8.94306,-8.70993 -4.810838,2.53797 -8.673618,3.98538 -14.121396,3.87235 -27.414399,-0.56877 -11.72448,-37.39538 5.324413,-47.94867 0.581037,-6.34378 1.595423,-9.58927 3.430632,-14.8889 1.576725,-4.55319 5.143521,-9.16155 7.916351,-11.273776 10.25479,-7.811685 23.01018,-4.910298 27.41055,7.490296 1.49965,4.22613 2.17797,12.62037 2.33809,17.02039 6.32281,3.36417 14.65836,8.88543 21.0509,13.66186 -2.96667,3.63333 -5.93333,7.26667 -8.9,10.9 -5.00642,-3.76947 -10.02226,-7.52482 -15.53228,-10.53937 -2.04832,4.69131 -4.10245,9.98303 -7.80129,13.97918 -2.54345,3.93983 -6.24097,6.84725 -9.5584,10.09469 2.08175,3.27044 5.48839,5.74377 8.89812,7.35939 8.3918,3.97626 15.98753,2.35924 23.48514,-1.16549 4.84892,-2.27955 8.56981,-6.18484 12.12188,-10.34388 5.1149,-5.98893 8.02131,-13.30007 10.38112,-20.61712 2.24116,-8.09138 2.24622,-17.76495 -3.74979,-24.34099 -6.9883,-7.66432 -17.31299,-10.849972 -27.11736,-13.038631 -9.65747,-2.155865 -12.95007,-9.462786 -11.00223,-15.580372 2.74338,-8.616132 9.92354,-14.500962 12.25598,-22.81813 0.65802,-2.346391 -1.34581,-6.668488 -4.83276,-5.338654 C 124.40528,57.728164 116.96503,65.265645 109.6,72.2 l -9.9,-9.9 c 8.37008,-7.993006 16.89708,-17.14959 27.91352,-20.784016 4.79799,-1.582902 10.3328,-2.113976 15.15702,0.04086 5.08294,2.270402 8.64429,8.206373 9.27352,12.449096 z m -65.519242,99.65805 c -0.613551,1.81114 -1.144203,4.97773 2.088376,4.26951 2.155377,-0.47222 4.951022,-1.30857 6.705872,-2.33553 -0.932364,-3.26923 -2.365835,-8.58101 -2.675896,-13.11115 -3.698593,3.41966 -5.12398,8.24188 -6.118352,11.17717 z m 19.186622,-20.7652 c 0.42497,3.56202 0.37736,10.40221 1.59273,13.81371 4.77309,-4.18074 8.27243,-9.62852 10.55703,-15.52112 -5.46208,-0.26827 -9.85249,0.80151 -12.14976,1.70741 z M 32.286698,111.60383 c -3.219537,8.74531 -4.046167,18.28568 -3.047446,27.53075 4.453797,-7.46942 9.494984,-14.57629 14.74031,-21.50757 -1.457339,-4.55881 -3.806927,-11.44968 -6.342062,-12.98951 -2.86034,-1.73736 -4.246185,3.96583 -5.350802,6.96633 z m 75.528582,6.49677 c 5.6332,-1.2646 8.25508,-0.90148 12.81912,-0.54617 -0.16241,-3.90386 -1.20821,-10.61782 -4.7344,-10.95443 -4.32568,-0.41293 -7.33569,7.71013 -8.08472,11.5006 z"
       id="path2" />
  </g>
</svg>
