<?xml version="1.0" encoding="UTF-8" standalone="no"?>
<svg
   xmlns:dc="http://purl.org/dc/elements/1.1/"
   xmlns:cc="http://creativecommons.org/ns#"
   xmlns:rdf="http://www.w3.org/1999/02/22-rdf-syntax-ns#"
   xmlns:svg="http://www.w3.org/2000/svg"
   xmlns="http://www.w3.org/2000/svg"
   xmlns:sodipodi="http://sodipodi.sourceforge.net/DTD/sodipodi-0.dtd"
   xmlns:inkscape="http://www.inkscape.org/namespaces/inkscape"
   inkscape:version="1.0 (4035a4fb49, 2020-05-01)"
   sodipodi:docname="u1b005.svg"
   id="svg6"
   height="200"
   width="200"
   viewBox="0 0 200 200"
   version="1.1">
  <metadata
     id="metadata12">
    <rdf:RDF>
      <cc:Work
         rdf:about="">
        <dc:format>image/svg+xml</dc:format>
        <dc:type
           rdf:resource="http://purl.org/dc/dcmitype/StillImage" />
      </cc:Work>
    </rdf:RDF>
  </metadata>
  <defs
     id="defs10" />
  <sodipodi:namedview
     inkscape:current-layer="svg6"
     inkscape:window-maximized="1"
     inkscape:window-y="28"
     inkscape:window-x="0"
     inkscape:cy="114.68947"
     inkscape:cx="57.317912"
     inkscape:zoom="1.9905056"
     showgrid="false"
     id="namedview8"
     inkscape:window-height="846"
     inkscape:window-width="1440"
     inkscape:pageshadow="2"
     inkscape:pageopacity="0"
     guidetolerance="10"
     gridtolerance="10"
     objecttolerance="10"
     borderopacity="1"
     bordercolor="#666666"
     pagecolor="#ffffff" />
  <g
     id="g4"
     fill="black">
    <path
       sodipodi:nodetypes="scccsscccccccccccccccccsscscccsccccc"
       d="m 99.3,62.4 c 10.20957,0.168376 16.43309,9.982292 11.14719,19.320718 -1.68397,3.15292 -5.40033,7.81525 -7.86905,9.785153 -0.61473,0.721717 -0.64889,1.315032 0.24046,1.408994 5.81857,0.509002 9.84378,2.533075 11.57806,7.525435 3.07114,8.84071 -0.51877,13.80038 -8.07826,17.74539 -10.769131,5.62 -18.037573,10.59997 -33.225378,23.66478 10.18181,0.5969 19.964277,5.0918 27.349278,12.09549 1.67016,1.4994 2.79553,-2.42191 5.09176,-5.57413 8.98308,-12.1846 20.88197,-16.98119 33.42841,-15.6581 13.86294,0.97115 25.16072,10.84086 33.12475,21.5359 4.77581,6.02702 8.38202,12.85451 12.11278,19.55037 -4.16667,2.1 -8.33333,4.2 -12.5,6.3 -6.19775,-11.57722 -13.31562,-23.65731 -24.83383,-30.62818 -4.86716,-2.99155 -10.97321,-3.55206 -16.15417,-2.20498 -11.4706,3.40869 -18.13842,10.89371 -18.91958,21.37971 -3.49827,2.11053 -8.39415,4.84292 -11.89242,6.95345 -5.475448,-9.29826 -13.891123,-18.04489 -25.07657,-19.53531 -9.067813,-1.34086 -18.385125,1.43876 -26.496937,5.09996 C 41.657381,166.86139 35.099538,172.69167 28.9,178.9 L 19,169 c 24.200743,-23.99373 55.62401,-48.34382 81.69689,-62.7297 0.92304,-0.49995 0.9543,-1.02107 -0.13057,-1.14956 -4.098929,-0.80636 -6.504024,-1.83212 -9.117679,-4.3622 -2.467088,-2.388199 -3.907573,-6.307537 -1.667473,-12.173504 1.708713,-4.474465 7.735996,-9.496686 6.609947,-11.353168 -0.513647,-0.863955 -2.794371,0.166974 -5.765417,1.620575 C 81.013223,83.555401 67.082603,87.310438 56.56981,83.20576 58.73911,78.552272 59.770216,75.931991 61.954424,70.6 68.34098,73.294105 76.96734,69.893388 82.958274,67.523197 88.346747,65.367266 93.592117,62.305866 99.3,62.4 Z M 127,31 V 45 C 105.7729,45.864875 83.645259,39.154816 76.5,17.9 l 13.4,-4 C 96.263733,29.15327 114.08487,30.27924 127,31 Z"
       id="path2" />
  </g>
</svg>
