<?xml version="1.0" encoding="UTF-8" standalone="no"?>
<svg
   xmlns:dc="http://purl.org/dc/elements/1.1/"
   xmlns:cc="http://creativecommons.org/ns#"
   xmlns:rdf="http://www.w3.org/1999/02/22-rdf-syntax-ns#"
   xmlns:svg="http://www.w3.org/2000/svg"
   xmlns="http://www.w3.org/2000/svg"
   xmlns:sodipodi="http://sodipodi.sourceforge.net/DTD/sodipodi-0.dtd"
   xmlns:inkscape="http://www.inkscape.org/namespaces/inkscape"
   inkscape:version="1.0 (4035a4fb49, 2020-05-01)"
   sodipodi:docname="u1b006.svg"
   id="svg6"
   height="200"
   width="200"
   viewBox="0 0 200 200"
   version="1.1">
  <metadata
     id="metadata12">
    <rdf:RDF>
      <cc:Work
         rdf:about="">
        <dc:format>image/svg+xml</dc:format>
        <dc:type
           rdf:resource="http://purl.org/dc/dcmitype/StillImage" />
      </cc:Work>
    </rdf:RDF>
  </metadata>
  <defs
     id="defs10" />
  <sodipodi:namedview
     inkscape:current-layer="svg6"
     inkscape:window-maximized="1"
     inkscape:window-y="28"
     inkscape:window-x="0"
     inkscape:cy="113.68324"
     inkscape:cx="90.177871"
     inkscape:zoom="2.815"
     showgrid="false"
     id="namedview8"
     inkscape:window-height="846"
     inkscape:window-width="1440"
     inkscape:pageshadow="2"
     inkscape:pageopacity="0"
     guidetolerance="10"
     gridtolerance="10"
     objecttolerance="10"
     borderopacity="1"
     bordercolor="#666666"
     pagecolor="#ffffff" />
  <g
     id="g4"
     fill="black">
    <path
       sodipodi:nodetypes="cccccccccccccccccccccscccccccccccccccccccccccccc"
       d="m 128.20855,32.70316 c -7.28964,3.395225 -13.02301,9.344487 -17.7366,15.733324 -5.65639,7.777843 -9.70126,16.572323 -13.402057,25.406481 -4.242084,10.332567 -7.565183,21.018911 -10.407835,31.812475 -0.200912,0.95573 -0.365484,0.72098 -0.379732,-0.12257 -0.316174,-5.24456 -0.708525,-9.799579 -2.350685,-14.357089 -2.689189,-7.01948 -10.99271,-7.320844 -16.868368,-2.401929 -8.992296,8.0739 -15.851005,18.203728 -21.684367,28.710528 -0.5013,0.73298 -1.689689,1.05219 -2.273437,0.23046 -1.345143,-1.54784 -1.151509,-3.74578 -1.402872,-5.6527 -0.934097,-11.87076 1.727721,-23.710144 5.633341,-34.855109 0.890748,-2.606259 1.960624,-5.154118 2.901662,-7.735281 0.166081,-0.68924 0.0022,-1.400691 0.0085,-2.100656 -4.063505,-1.762205 -8.126493,-3.525604 -12.189453,-5.289063 -4.498409,11.388906 -8.477178,23.153154 -9.632313,35.412217 -0.79085,7.696212 -1.240853,15.652322 0.961021,23.168822 1.423711,4.64173 4.140627,9.1705 8.463458,11.61387 4.023688,2.00244 8.94958,1.00993 12.554093,-1.43154 3.841641,-2.57037 6.139034,-6.70342 8.652934,-10.45262 3.127448,-4.9296 6.796174,-10.9158 10.883602,-15.1534 1.828221,-1.85098 2.353864,-1.95271 2.961387,0.3146 1.161279,4.56463 0.653922,5.49696 2.075462,10.07438 3.2336,10.41232 16.581429,12.50087 21.525808,1.90031 5.210441,-13.87353 6.120781,-18.60441 11.585331,-33.388972 2.8748,-7.462334 6.26126,-15.565162 10.01414,-21.706104 3.55455,-6.046438 7.78629,-11.966365 13.74321,-15.854882 1.81985,-1.163323 3.48811,-2.686104 4.03023,0.222069 0.36758,4.355386 0.22944,8.75941 0.0419,13.059765 -0.53765,12.098727 -2.29725,24.183144 -3.21504,36.339387 -0.59005,8.717067 -1.58831,17.525087 -0.23535,26.223247 0.70082,2.60046 2.18228,5.82643 5.12635,5.49324 7.50167,0.0984 14.88783,-0.0467 21.64827,2.76002 1.17295,0.54436 0.96042,1.50688 0.0875,2.54511 -2.05145,2.23887 -4.74506,3.87713 -7.17483,5.53152 -2.58664,1.69448 -5.42384,2.95023 -8.17036,4.3563 -4.65662,2.28292 -9.47685,4.20954 -14.36608,5.93106 -9.56614,3.54402 -19.36488,6.19886 -29.20125,8.99323 -1.371761,0.38785 -2.743614,0.77536 -4.115813,1.16165 1.098833,4.50621 2.199989,9.01185 3.300781,13.51758 7.774482,-2.27934 15.670932,-4.1177 23.389942,-6.58588 6.73535,-2.18821 13.39403,-4.61454 19.98775,-7.19255 7.03849,-3.27905 14.26326,-6.36802 20.5124,-11.0554 4.06528,-3.06378 5.882,-5.32211 8.33045,-8.40343 5.70497,-7.58082 1.01016,-17.27225 -7.41539,-21.38347 -5.88125,-2.50675 -12.84583,-3.76364 -18.59226,-4.03943 0.0141,-3.03027 0.11007,-5.96356 0.27723,-9.01608 -0.17339,-17.854429 6.48261,-52.560003 2.42212,-65.210872 C 144.1188,28.804619 136.9635,29.438768 128.20855,32.70316 Z"
       id="path2" />
  </g>
</svg>
