<?xml version="1.0" encoding="UTF-8" standalone="no"?>
<svg
   xmlns:dc="http://purl.org/dc/elements/1.1/"
   xmlns:cc="http://creativecommons.org/ns#"
   xmlns:rdf="http://www.w3.org/1999/02/22-rdf-syntax-ns#"
   xmlns:svg="http://www.w3.org/2000/svg"
   xmlns="http://www.w3.org/2000/svg"
   xmlns:sodipodi="http://sodipodi.sourceforge.net/DTD/sodipodi-0.dtd"
   xmlns:inkscape="http://www.inkscape.org/namespaces/inkscape"
   inkscape:version="1.0 (4035a4fb49, 2020-05-01)"
   sodipodi:docname="u1b065.svg"
   id="svg6"
   height="200"
   width="200"
   viewBox="0 0 200 200"
   version="1.1">
  <metadata
     id="metadata12">
    <rdf:RDF>
      <cc:Work
         rdf:about="">
        <dc:format>image/svg+xml</dc:format>
        <dc:type
           rdf:resource="http://purl.org/dc/dcmitype/StillImage" />
      </cc:Work>
    </rdf:RDF>
  </metadata>
  <defs
     id="defs10" />
  <sodipodi:namedview
     inkscape:current-layer="svg6"
     inkscape:window-maximized="1"
     inkscape:window-y="28"
     inkscape:window-x="0"
     inkscape:cy="82.203945"
     inkscape:cx="139.0734"
     inkscape:zoom="1.9905056"
     showgrid="false"
     id="namedview8"
     inkscape:window-height="846"
     inkscape:window-width="1440"
     inkscape:pageshadow="2"
     inkscape:pageopacity="0"
     guidetolerance="10"
     gridtolerance="10"
     objecttolerance="10"
     borderopacity="1"
     bordercolor="#666666"
     pagecolor="#ffffff" />
  <g
     id="g4"
     fill="black">
    <path
       sodipodi:nodetypes="sscccccssccssssccssscccsscccsscccccccssccs"
       d="m 65.409961,26.895893 c 2.545236,3.144264 3.794613,7.927335 3.029607,12.303439 -0.682544,3.904396 -1.62362,7.759331 -2.500503,11.624875 C 71.991443,49.89677 77.877455,48.16117 83.7,46.3 l 4.5,13.3 c -8.29814,2.703307 -16.811657,4.768371 -25.475928,5.85267 -1.379862,6.319596 -2.917834,12.603271 -4.423227,18.893809 5.19184,-3.693305 11.759686,-5.601146 18.192982,-4.242191 8.88157,1.876122 13.288437,9.728351 11.727637,18.594786 -1.046705,5.946016 -2.163356,9.092176 -4.206337,14.561366 9.724821,-8.50155 24.139993,-8.00019 30.181473,1.91233 6.13654,-11.57049 17.14392,-21.890112 31.41573,-24.507609 6.4134,-1.176238 13.71285,-1.40216 19.93578,1.269595 12.27761,5.271268 18.70993,17.744314 16.05189,31.465244 -2.95352,15.24617 -13.24618,28.2886 -25.54261,37.65304 -7.81795,5.95382 -16.4022,10.82822 -25.35739,14.84696 -1.9,-4.26667 -3.8,-8.53333 -5.7,-12.8 15.65545,-6.93955 31.34386,-16.92259 39.18081,-32.65681 2.31116,-4.64011 4.86499,-9.92371 4.22575,-15.09032 -0.80417,-6.4997 -7.38229,-12.23407 -13.86951,-12.13512 -10.40176,0.15866 -20.83075,5.9801 -26.14072,15.32382 -3.10476,4.96181 -4.58041,10.7263 -5.49633,16.45843 -4.84704,-0.51567 -9.5375,-0.4854 -14.28151,-0.47092 -1.71913,-4.13171 -2.85257,-12.16198 -8.849731,-13.01064 -3.80094,-0.53787 -12.894428,3.07669 -18.276067,9.77442 -6.350964,7.9041 -17.155003,35.78141 -24.773541,51.96669 l -12.665293,-4.92354 c 11.30518,-29.85047 19.605429,-47.2334 26.311568,-68.69266 1.369301,-3.81678 2.527991,-7.80557 3.204557,-11.744561 C 74.57481,92.048647 69.423902,93.794233 66.032845,95.929845 59.664302,99.940611 54.886847,105.95397 50,111.6 c -3.6,-2.96667 -7.2,-5.93333 -10.8,-8.9 1.475894,-5.091682 2.894188,-11.322417 4.332413,-16.866588 1.6617,-6.66205 3.129503,-13.369883 4.708799,-20.051559 C 37.037604,65.083566 26.035406,61.115199 17.3,54 l 8.9,-10.8 c 7.049668,5.813604 16.183938,8.538357 25.225704,8.734334 0.940271,-4.359401 1.888138,-8.717488 2.788305,-13.085417 0.352841,-1.712112 -0.07231,-3.253843 -1.043015,-3.892819 C 51.066793,33.57099 48.523145,32.867399 46,33 V 19 c 7.192583,0.180583 14.93468,2.36734 19.409961,7.895893 z"
       id="path2" />
  </g>
</svg>
