<?xml version="1.0" encoding="UTF-8" standalone="no"?>
<svg
   xmlns:dc="http://purl.org/dc/elements/1.1/"
   xmlns:cc="http://creativecommons.org/ns#"
   xmlns:rdf="http://www.w3.org/1999/02/22-rdf-syntax-ns#"
   xmlns:svg="http://www.w3.org/2000/svg"
   xmlns="http://www.w3.org/2000/svg"
   xmlns:sodipodi="http://sodipodi.sourceforge.net/DTD/sodipodi-0.dtd"
   xmlns:inkscape="http://www.inkscape.org/namespaces/inkscape"
   inkscape:version="1.0 (4035a4fb49, 2020-05-01)"
   sodipodi:docname="u1b06b.svg"
   id="svg6"
   height="200"
   width="200"
   viewBox="0 0 200 200"
   version="1.1">
  <metadata
     id="metadata12">
    <rdf:RDF>
      <cc:Work
         rdf:about="">
        <dc:format>image/svg+xml</dc:format>
        <dc:type
           rdf:resource="http://purl.org/dc/dcmitype/StillImage" />
      </cc:Work>
    </rdf:RDF>
  </metadata>
  <defs
     id="defs10" />
  <sodipodi:namedview
     inkscape:current-layer="svg6"
     inkscape:window-maximized="1"
     inkscape:window-y="28"
     inkscape:window-x="0"
     inkscape:cy="95.977674"
     inkscape:cx="147.91954"
     inkscape:zoom="2.815"
     showgrid="false"
     id="namedview8"
     inkscape:window-height="846"
     inkscape:window-width="1440"
     inkscape:pageshadow="2"
     inkscape:pageopacity="0"
     guidetolerance="10"
     gridtolerance="10"
     objecttolerance="10"
     borderopacity="1"
     bordercolor="#666666"
     pagecolor="#ffffff" />
  <g
     id="g4"
     fill="black">
    <path
       sodipodi:nodetypes="csscsssccscccccccssccsccsccccccssccccccssccsssccccsscccsss"
       d="m 114,13.4 c 7.929,2.844005 14.9282,8.327314 19.17996,15.57033 1.21233,2.065246 1.78242,6.116086 1.79039,9.383043 0.008,3.265466 0.21643,6.858265 0.0927,9.381299 12.60863,-5.521654 26.48288,-5.819529 34.28564,0.108813 6.38239,4.849178 8.31472,13.169033 7.53276,20.363957 -0.8184,7.530182 -3.63974,12.556845 -10.06452,16.578769 C 156.67195,91.137013 144.9474,89.421514 135,85.976923 v 14.867907 c 10.43078,0.69154 13.25339,12.20246 10.04035,19.02677 -2.29002,4.86388 -5.98363,8.91759 -10.04035,12.3684 -0.0124,2.71032 -0.0313,3.65231 0.0587,5.80643 7.89348,1.70619 18.53289,2.99965 26.54129,3.95357 -0.43333,4.63333 -0.86667,9.26667 -1.3,13.9 -8.47009,-0.89686 -16.94936,-1.83523 -25.3,-3.55067 l 0.16982,27.10814 c -4.03925,3.10077 -7.49717,6.63968 -10.65745,8.8127 -13.09023,-15.95601 -26.975222,-31.23844 -38.381226,-48.43877 -8.931993,-13.46951 4.996228,-25.8554 16.877366,-30.76661 5.79986,-2.39744 11.85826,-4.17247 17.99149,-5.50557 0.0741,-12.297409 -0.18245,-24.594276 -0.0352,-36.891275 -10.84265,3.415044 -23.860628,6.33133 -32.055376,5.125177 -7.941047,-1.168812 -16.347374,-5.88779 -19.552577,-13.309165 5.709332,-2.582521 9.677167,-4.289276 12.669031,-5.804532 1.565869,3.273897 6.088629,5.728433 9.527147,5.771333 8.774975,0.10948 19.934025,-3.29 29.446975,-6.626434 -0.13358,-4.211415 0.15074,-8.549361 -0.005,-12.754099 0.12919,-2.398633 -0.49,-4.072827 -1.88428,-5.773561 C 116.0787,29.619484 111.71776,27.141908 107.1,26 l 3.6,-13.6 z M 55.332038,45.113835 c 0.279404,2.84013 -0.851619,9.331522 -1.466139,13.094403 C 49.490682,84.998946 44.941921,111.99994 45.530388,139.23213 48.979983,129.36295 53.156623,119.77628 57.1,110.1 c 4.3,1.83333 8.6,3.66667 12.9,5.5 -7.765038,18.08449 -16.1529,37.67985 -17.610864,54.77807 L 41.6,178.5 C 29.1315,160.03451 31.053005,133.75466 32.2666,114.52131 33.784993,93.234904 37.089203,72.130643 40.91966,51.152366 41.319842,48.960686 41.813108,47.54788 40.458846,45.967198 38.999718,44.264118 36.531716,43.574421 34.4,43 l 3.1,-13.6 c 9.50229,2.348849 17.07918,8.061082 17.832038,15.713835 z m 42.638321,83.576895 c -1.846753,3.54132 1.583132,7.73202 3.614121,10.40856 5.97421,7.87312 12.23218,15.62315 19.41552,23.16387 v -14.42907 c -10.69287,-5.99215 -6.52327,-18.92832 0,-22.89423 0.12914,-2.61819 0.16031,-4.35649 0.14115,-7.24391 -7.24847,1.06942 -20.29058,5.47171 -23.170791,10.99478 z M 149.9,57.4 c -5.08728,0.826128 -10.04772,2.341734 -14.9,4.083784 V 75.275 c 0.46798,-1.3326 0.55342,-1.737347 1.17132,-3.435799 5.69513,1.537644 17.19116,5.337976 22.37467,1.864238 4.38917,-2.94141 5.36691,-7.947471 3.34685,-12.339544 C 160.0736,57.408476 153.69707,56.78339 149.9,57.4 Z"
       id="path2" />
  </g>
</svg>
