<?xml version="1.0" encoding="UTF-8" standalone="no"?>
<svg
   xmlns:dc="http://purl.org/dc/elements/1.1/"
   xmlns:cc="http://creativecommons.org/ns#"
   xmlns:rdf="http://www.w3.org/1999/02/22-rdf-syntax-ns#"
   xmlns:svg="http://www.w3.org/2000/svg"
   xmlns="http://www.w3.org/2000/svg"
   xmlns:sodipodi="http://sodipodi.sourceforge.net/DTD/sodipodi-0.dtd"
   xmlns:inkscape="http://www.inkscape.org/namespaces/inkscape"
   inkscape:version="1.0 (4035a4fb49, 2020-05-01)"
   sodipodi:docname="u1b06e.svg"
   id="svg6"
   height="200"
   width="200"
   viewBox="0 0 200 200"
   version="1.1">
  <metadata
     id="metadata12">
    <rdf:RDF>
      <cc:Work
         rdf:about="">
        <dc:format>image/svg+xml</dc:format>
        <dc:type
           rdf:resource="http://purl.org/dc/dcmitype/StillImage" />
      </cc:Work>
    </rdf:RDF>
  </metadata>
  <defs
     id="defs10" />
  <sodipodi:namedview
     inkscape:current-layer="svg6"
     inkscape:window-maximized="1"
     inkscape:window-y="28"
     inkscape:window-x="0"
     inkscape:cy="121.39255"
     inkscape:cx="124.25375"
     inkscape:zoom="1.4075"
     showgrid="false"
     id="namedview8"
     inkscape:window-height="846"
     inkscape:window-width="1440"
     inkscape:pageshadow="2"
     inkscape:pageopacity="0"
     guidetolerance="10"
     gridtolerance="10"
     objecttolerance="10"
     borderopacity="1"
     bordercolor="#666666"
     pagecolor="#ffffff" />
  <g
     id="g4"
     fill="black">
    <path
       sodipodi:nodetypes="ssscssssscccsccsssscccccssccsccsccscccccc"
       d="m 84.980607,156.1143 c -28.03671,-4.4974 -19.61083,-46.81561 12.696655,-45.23645 15.353198,0.75045 20.043178,13.20698 20.462928,21.99503 0.12704,2.65979 0.16631,5.32062 0.15981,7.982 8.96635,-1.38165 18.99745,-3.72279 24.66315,-11.29249 3.58289,-4.78695 6.12606,-11.65355 -0.004,-15.16078 -8.74208,-5.00189 -19.16509,-6.06345 -29.07093,-6.68677 -5.5208,-0.34739 -10.8695,0.0927 -16.235493,-1.03792 -5.318428,-1.12063 -8.794651,-6.687974 -7.138986,-12.456007 0.9862,-3.435739 2.874575,-5.493826 5.837248,-8.446263 C 83.578041,86.040636 77.648618,79.254153 74.041012,74.375466 l 14.010242,-5.782594 c 1.686331,1.840862 3.954662,2.968114 6.466605,3.449947 C 102.68985,73.610345 110.31726,72.351154 118.6,71.9 c 0.23333,4.666667 0.46667,9.333333 0.7,14 -2.73612,0.393012 -5.85806,2.820634 -7.81256,4.332699 -2.17804,1.684992 -4.45279,3.216106 0.25086,3.439115 14.44123,0.684687 26.97227,1.155878 37.96777,8.438126 15.92082,10.54425 12.47928,32.73175 -3.1826,43.20885 -9.09961,6.08724 -20.78412,8.90803 -28.93051,9.86437 -0.84661,5.62064 -2.81658,12.63621 -7.00529,17.09076 C 103.06824,181.16114 91.417257,184.76584 80.5,187.5 c -1.033333,-4.56667 -2.066667,-9.13333 -3.1,-13.7 11.966939,-4.32143 22.91091,-5.57023 26.46636,-17.16283 -7.014023,0.47922 -12.239269,0.5433 -18.885753,-0.52287 z m -2.574182,-16.00741 c 2.503472,4.06187 15.42733,3.49015 22.028925,1.9897 1.29705,-10.09832 -3.02141,-24.09956 -16.888893,-15.09657 -3.893164,2.62042 -7.909548,8.61334 -5.140032,13.10687 z M 164.8,40 c -0.56667,4.633333 -1.13333,9.266667 -1.7,13.9 -20.6972,-2.523989 -41.92546,-1.949133 -62.22413,3.378678 C 79.249381,62.955003 56.490655,63.086398 34.3,60.9 L 35.6,47 c 23.53463,2.295698 47.361134,0.07368 70.4,-5.5 20.48425,-4.955653 39.59457,-3.701038 58.8,-1.5 z M 113.6043,17.124303 C 114.49953,22.364021 115.11625,25.16625 115.9,30.9 102.74796,33.341609 82.638168,33.828214 71.631979,23.970302 L 80.2,13.2 c 9.037767,6.08326 23.96406,6.321779 33.4043,3.924303 z"
       id="path2" />
  </g>
</svg>
