<?xml version="1.0" encoding="UTF-8" standalone="no"?>
<svg
   xmlns:dc="http://purl.org/dc/elements/1.1/"
   xmlns:cc="http://creativecommons.org/ns#"
   xmlns:rdf="http://www.w3.org/1999/02/22-rdf-syntax-ns#"
   xmlns:svg="http://www.w3.org/2000/svg"
   xmlns="http://www.w3.org/2000/svg"
   xmlns:sodipodi="http://sodipodi.sourceforge.net/DTD/sodipodi-0.dtd"
   xmlns:inkscape="http://www.inkscape.org/namespaces/inkscape"
   inkscape:version="1.0 (4035a4fb49, 2020-05-01)"
   sodipodi:docname="u1b06c.svg"
   id="svg6"
   height="200"
   width="200"
   viewBox="0 0 200 200"
   version="1.1">
  <metadata
     id="metadata12">
    <rdf:RDF>
      <cc:Work
         rdf:about="">
        <dc:format>image/svg+xml</dc:format>
        <dc:type
           rdf:resource="http://purl.org/dc/dcmitype/StillImage" />
      </cc:Work>
    </rdf:RDF>
  </metadata>
  <defs
     id="defs10" />
  <sodipodi:namedview
     inkscape:current-layer="svg6"
     inkscape:window-maximized="1"
     inkscape:window-y="28"
     inkscape:window-x="0"
     inkscape:cy="151.64008"
     inkscape:cx="116.02985"
     inkscape:zoom="2.8284271"
     showgrid="false"
     id="namedview8"
     inkscape:window-height="846"
     inkscape:window-width="1440"
     inkscape:pageshadow="2"
     inkscape:pageopacity="0"
     guidetolerance="10"
     gridtolerance="10"
     objecttolerance="10"
     borderopacity="1"
     bordercolor="#666666"
     pagecolor="#ffffff" />
  <g
     id="g4"
     fill="black">
    <path
       sodipodi:nodetypes="ssccccccccsscssscccssssssssccccccsccssccccsccs"
       d="m 80.318702,25.773397 c 2.367482,3.560651 2.79335,8.432366 2.687163,11.851508 -0.10149,3.267877 -0.275799,5.014838 -0.508579,7.800358 C 86.082822,44.145613 90.497537,42.085052 94,40.6 l 5.9,12.7 C 93.706845,56.042505 87.468861,58.739896 80.961713,60.654471 79.658394,67.376639 77.660116,74.003638 74.736152,80.199406 77.507684,79.159059 80.620958,77.327881 83.2,76.8 l 10.1,9.7 C 81.77576,99.130395 73.536433,114.28814 65.993988,129.51684 87.075485,110.02041 110.69829,93.447312 135.4,78.9 c 17.04745,-10.039571 30.63166,-4.003801 29.79201,10.318246 -0.57248,9.76485 -3.48095,13.045604 -9.4043,20.171694 6.38248,2.35321 13.24177,5.43065 16.80903,11.42163 3.51701,5.90659 4.16927,11.78161 1.90657,17.39338 -4.12448,10.2292 -14.47161,15.42919 -24.3584,18.89046 -3.70671,1.29768 -6.69511,2.97828 -7.53508,5.08172 -0.90628,3.78408 13.18998,8.128 25.1549,7.62245 L 168.2,181.9 c -12.04092,0.12964 -24.59381,0.13237 -34.10891,-7.93708 -6.07788,-5.15445 -7.77826,-12.32819 -4.09681,-18.52594 2.89977,-4.88181 7.84637,-7.23326 14.43254,-10.08761 6.1127,-2.64916 13.27617,-5.95484 16.85947,-11.8592 2.60556,-4.2933 -2.84599,-8.05739 -6.53791,-9.39758 -10.77591,-3.91173 -14.16433,-6.48146 -14.21153,-13.65371 -0.0276,-4.19317 3.98598,-9.46249 6.36315,-12.03888 2.1752,-2.357498 4.52951,-5.740651 4.12986,-8.875341 -0.35532,-2.787037 -4.49604,-0.293726 -6.2405,0.380659 C 123.87686,101.60426 103.7992,115.70501 85.260273,131.17075 71.628417,142.62795 59.0712,155.3631 48.1,169.4 44.4,166.56667 40.7,163.73333 37,160.9 41.477954,150.92015 45.304964,140.53376 50.058695,130.62547 55.100504,119.57042 60.622791,108.70689 67.049596,98.388685 59.029732,101.40183 50.818795,104.93768 42.479163,103.78909 32.98597,102.48163 26.418499,95.219973 22.9,86.6 l 12.9,-5.5 c 1.680183,3.829256 3.59322,7.902306 7.799101,8.846863 C 46.70436,90.644243 49.835726,90.286998 52.6,88.4 58.124704,84.628628 63.576711,72.973314 65.869105,63.837453 57.145734,64.543626 47.452346,62.671065 41.616699,55.616699 c 4.658058,-3.671233 7.492191,-5.95915 10.899418,-8.789782 4.445799,3.051017 11.042399,3.272112 16.090266,2.511381 C 70.080312,44.693894 70.623366,34.19013 69.5,33.1 67.24958,30.916162 63.545108,30.621088 60.4,30.9 l -1,-14 c 10.172999,-0.654719 16.724951,2.56607 20.918702,8.873397 z"
       id="path2" />
  </g>
</svg>
