<?xml version="1.0" encoding="UTF-8" standalone="no"?>
<svg
   xmlns:dc="http://purl.org/dc/elements/1.1/"
   xmlns:cc="http://creativecommons.org/ns#"
   xmlns:rdf="http://www.w3.org/1999/02/22-rdf-syntax-ns#"
   xmlns:svg="http://www.w3.org/2000/svg"
   xmlns="http://www.w3.org/2000/svg"
   xmlns:sodipodi="http://sodipodi.sourceforge.net/DTD/sodipodi-0.dtd"
   xmlns:inkscape="http://www.inkscape.org/namespaces/inkscape"
   inkscape:version="1.0 (4035a4fb49, 2020-05-01)"
   sodipodi:docname="u1b06d.svg"
   id="svg6"
   height="200"
   width="200"
   viewBox="0 0 200 200"
   version="1.1">
  <metadata
     id="metadata12">
    <rdf:RDF>
      <cc:Work
         rdf:about="">
        <dc:format>image/svg+xml</dc:format>
        <dc:type
           rdf:resource="http://purl.org/dc/dcmitype/StillImage" />
      </cc:Work>
    </rdf:RDF>
  </metadata>
  <defs
     id="defs10" />
  <sodipodi:namedview
     inkscape:current-layer="svg6"
     inkscape:window-maximized="1"
     inkscape:window-y="28"
     inkscape:window-x="0"
     inkscape:cy="126.83834"
     inkscape:cx="142.31388"
     inkscape:zoom="2"
     showgrid="false"
     id="namedview8"
     inkscape:window-height="846"
     inkscape:window-width="1440"
     inkscape:pageshadow="2"
     inkscape:pageopacity="0"
     guidetolerance="10"
     gridtolerance="10"
     objecttolerance="10"
     borderopacity="1"
     bordercolor="#666666"
     pagecolor="#ffffff" />
  <g
     id="g4"
     fill="black">
    <path
       sodipodi:nodetypes="sscccccccsccsscccccccssccssccccsccscssccss"
       d="m 117.8,16.1 c 7.98268,0.471916 16.4137,4.193335 19.86511,11.721567 2.66368,5.81004 1.34577,12.440684 -0.92732,19.420467 4.77477,-2.192657 10.97864,-5.409681 15.46202,-8.142034 l 7.5,11.7 c -8.87138,5.659674 -18.36312,10.551433 -28.61461,13.130354 -4.35577,11.173335 -9.68914,21.931517 -15.13345,32.606661 C 128.73889,93.451403 141.63434,90.834416 154.5,88.1 c 2.87242,3.160619 6.09515,7.342892 9.1,10.9 -10.3,8.53882 -20.67284,19.03217 -22.94293,32.4288 -3.70128,21.84257 -1.437,31.27103 23.24293,37.5712 -0.63333,4.63333 -1.26667,9.26667 -1.9,13.9 -21.13223,-2.26108 -32.37046,-16.36924 -35.04511,-29.64808 -1.86781,-9.27314 -1.02184,-26.17937 5.30916,-38.30122 1.62144,-3.10454 3.44915,-6.14609 5.48107,-9.00037 C 127.50773,108.30211 117.192,110.36453 107.1,113.3 103,111.06667 98.9,108.83333 94.8,106.6 101.94363,93.251702 109.09894,79.882594 115.06297,65.954439 104.80077,65.984389 94.927843,62.032425 86.6,56.2 l 8.3,-11.3 c 6.7337,4.944407 17.21712,7.822331 25.58782,7.212159 1.73094,-4.615217 4.04002,-10.544079 4.73226,-15.956292 0.13584,-1.062037 0.0795,-1.765328 -0.44445,-2.571289 C 122.61233,30.257116 117.66968,30.137868 114,30 V 16 c 1.26667,0.03333 2.5351,0.02522 3.8,0.1 z M 58.462098,44.968359 C 56.85641,52.573909 54.820851,60.118472 53.533724,67.795949 48.922979,91.667413 46.185839,116.05707 47.629806,140.38726 52.066631,129.26731 57.250221,118.45581 62.7,107.8 l 12.5,6.3 c -8.067882,16.2413 -16.487919,32.5947 -20.8,50.3 -0.743761,3.05387 -1.087971,6.28952 -0.8,9.4002 -4.433333,1.43333 -8.866667,2.86667 -13.3,4.3 -4.359446,-14.19005 -6.460522,-28.96909 -6.907363,-43.79409 -0.6777,-22.48428 1.875053,-44.967224 5.955693,-67.04776 1.590075,-8.425116 3.457781,-16.790136 5.401822,-25.139202 0.465113,-1.997519 0.556726,-3.117009 -0.868069,-4.506351 C 41.842739,35.624198 38.786785,34.762402 36.1,34 l 3.6,-13.6 c 7.609176,2.502998 15.491301,7.012782 18.579661,13.372937 1.870504,3.852107 0.963983,7.493525 0.182437,11.195422 z"
       id="path2" />
  </g>
</svg>
