<?xml version="1.0" encoding="UTF-8" standalone="no"?>
<svg
   xmlns:dc="http://purl.org/dc/elements/1.1/"
   xmlns:cc="http://creativecommons.org/ns#"
   xmlns:rdf="http://www.w3.org/1999/02/22-rdf-syntax-ns#"
   xmlns:svg="http://www.w3.org/2000/svg"
   xmlns="http://www.w3.org/2000/svg"
   xmlns:sodipodi="http://sodipodi.sourceforge.net/DTD/sodipodi-0.dtd"
   xmlns:inkscape="http://www.inkscape.org/namespaces/inkscape"
   inkscape:version="1.0 (4035a4fb49, 2020-05-01)"
   sodipodi:docname="u1b0dd.svg"
   id="svg6"
   height="200"
   width="200"
   viewBox="0 0 200 200"
   version="1.1">
  <metadata
     id="metadata12">
    <rdf:RDF>
      <cc:Work
         rdf:about="">
        <dc:format>image/svg+xml</dc:format>
        <dc:type
           rdf:resource="http://purl.org/dc/dcmitype/StillImage" />
      </cc:Work>
    </rdf:RDF>
  </metadata>
  <defs
     id="defs10" />
  <sodipodi:namedview
     inkscape:current-layer="svg6"
     inkscape:window-maximized="1"
     inkscape:window-y="28"
     inkscape:window-x="0"
     inkscape:cy="77.50502"
     inkscape:cx="113.57474"
     inkscape:zoom="1.9905056"
     showgrid="false"
     id="namedview8"
     inkscape:window-height="846"
     inkscape:window-width="1440"
     inkscape:pageshadow="2"
     inkscape:pageopacity="0"
     guidetolerance="10"
     gridtolerance="10"
     objecttolerance="10"
     borderopacity="1"
     bordercolor="#666666"
     pagecolor="#ffffff" />
  <g
     id="g4"
     fill="black">
    <path
       sodipodi:nodetypes="scccccccccccccccccsscccssccccscccc"
       d="M 96.679688,19.365234 C 92.772255,19.537082 88.744707,21.112469 85.285156,24.544922 72.628847,38.065599 75.42924,56.716917 75.824219,65.541016 65.876477,69.846897 48.584841,78.73582 45.605469,77.556641 40.609719,75.429353 34.053036,68.679393 31.900391,61.800781 L 18.599609,66 c 2.89102,10.139061 10.450966,18.439934 19.580079,23.455078 11.27683,6.263147 31.15681,-6.136852 39.921874,-9.828125 2.507798,8.229052 11.226484,26.164187 31.185128,32.146807 -4.59086,22.2773 -9.756189,43.58569 -18.822366,61.56964 4.166667,2.16667 8.902118,5.68915 13.068786,7.85582 10.36119,-20.97122 16.01861,-42.49244 19.68206,-66.99295 17.97553,1.57496 27.13181,-3.09989 33.71452,-6.41721 14.12673,-8.530876 17.88219,-17.706935 20.05859,-23.488279 2.86479,-8.281768 4.11724,-18.538751 -5.33789,-34.392578 -5.88837,-7.440732 -11.28443,-12.21721 -23.29687,-12.671875 -8.81021,-0.11022 -19.06037,3.902679 -27.00196,7.580078 -3.73587,-11.780462 -7.37023,-15.156097 -11.65234,-20.117187 -3.16992,-3.455718 -7.99569,-5.554932 -13.019532,-5.333985 z m 0.43164,13.865235 c 4.987322,0.363553 10.886202,12.040727 11.304692,17.93164 -6.28421,2.918617 -12.643391,5.669957 -18.988286,8.453125 C 87.882458,54.419694 87.972445,37.427871 95.599609,33.5 c 0.489337,-0.223463 0.995789,-0.30714 1.511719,-0.269531 z m 50.150392,17.986328 c 1.98424,0.01388 3.96397,0.283712 5.91211,0.892578 14.2033,6.917117 11.02916,25.231408 8.14844,32.580078 -3.58738,9.993491 -22.6945,18.256407 -36.86186,15.243958 1.75014,-10.825902 2.09083,-24.33366 -0.22799,-41.325989 6.83355,-3.909 17.07658,-7.432267 23.0293,-7.390625 z m -36.45508,14.179687 c 2.44812,9.18461 2.07732,22.628315 0.60149,31.857671 -5.46684,-1.361479 -17.841327,-10.063206 -20.466724,-22.967046 6.645298,-2.910925 13.251434,-5.909163 19.865234,-8.890625 z"
       id="path2" />
  </g>
</svg>
