<?xml version="1.0" encoding="UTF-8" standalone="no"?>
<svg
   xmlns:dc="http://purl.org/dc/elements/1.1/"
   xmlns:cc="http://creativecommons.org/ns#"
   xmlns:rdf="http://www.w3.org/1999/02/22-rdf-syntax-ns#"
   xmlns:svg="http://www.w3.org/2000/svg"
   xmlns="http://www.w3.org/2000/svg"
   xmlns:sodipodi="http://sodipodi.sourceforge.net/DTD/sodipodi-0.dtd"
   xmlns:inkscape="http://www.inkscape.org/namespaces/inkscape"
   inkscape:version="1.0 (4035a4fb49, 2020-05-01)"
   sodipodi:docname="u1b0db.svg"
   id="svg6"
   height="200"
   width="200"
   viewBox="0 0 200 200"
   version="1.1">
  <metadata
     id="metadata12">
    <rdf:RDF>
      <cc:Work
         rdf:about="">
        <dc:format>image/svg+xml</dc:format>
        <dc:type
           rdf:resource="http://purl.org/dc/dcmitype/StillImage" />
      </cc:Work>
    </rdf:RDF>
  </metadata>
  <defs
     id="defs10" />
  <sodipodi:namedview
     inkscape:current-layer="svg6"
     inkscape:window-maximized="1"
     inkscape:window-y="28"
     inkscape:window-x="0"
     inkscape:cy="110.17395"
     inkscape:cx="100.59459"
     inkscape:zoom="2.815"
     showgrid="false"
     id="namedview8"
     inkscape:window-height="846"
     inkscape:window-width="1440"
     inkscape:pageshadow="2"
     inkscape:pageopacity="0"
     guidetolerance="10"
     gridtolerance="10"
     objecttolerance="10"
     borderopacity="1"
     bordercolor="#666666"
     pagecolor="#ffffff" />
  <g
     id="g4"
     fill="black">
    <path
       sodipodi:nodetypes="ccccccccccccccccccccccccccccccccccccccccccccccccc"
       d="m 90.6,15.7 c 11.69021,4.680574 23.36842,13.303833 31.1,27.7 C 105.1681,50.408746 87.607073,55.22385 69.646964,56.384661 63.003187,70.543568 56.411501,84.727747 49.772348,98.889264 63.523503,94.529188 77.213741,89.973752 90.831251,85.210869 90.333796,84.079774 89.997176,83.391908 89.529885,82.277476 L 102.9,77.5 c 1.63936,1.105736 2.81502,1.651801 4.23763,2.705851 1.33376,3.827319 2.82861,8.86683 4.16237,12.694149 -0.92903,0.162274 -1.77742,0.639784 -2.35519,0.940431 3.07761,7.618889 8.69252,20.156819 12.25519,27.559569 3.16551,-3.3687 7.64112,-7.84002 7.6,-11.8 -0.11853,-1.78972 -0.92406,-2.47913 -2.9652,-4.00911 1.99747,-2.81125 5.96773,-7.979637 7.9652,-10.79089 7.41775,6.33639 11.18412,11.53807 8.32506,19.81986 -3.28753,8.47066 -8.54694,13.82346 -14.08182,19.6369 6.46796,10.71751 13.48152,21.41386 23.05906,29.62334 -1.72117,-8.87694 -3.08271,-17.82128 -4.9023,-26.6801 4.6,-0.83333 9.2,-1.66667 13.8,-2.5 2.36452,18.03373 5.95605,39.92633 7.78647,52.18739 -10.1288,-0.57978 -21.80058,-8.90122 -28.06396,-13.90438 C 130.272,164.52295 123.86253,154.40712 117.29795,143.61648 103.29091,154.63602 88.598873,164.73486 73.9,174.8 c -2.532744,-3.93857 -5.294065,-7.70917 -8.3,-11.3 2.674186,-9.09694 5.948082,-19.10466 8.150482,-26.92249 5.023846,0.98338 8.405258,1.96214 14.15376,2.70263 -1.283679,4.31747 -2.235321,7.65797 -3.01339,10.9046 8.590811,-6.02561 17.414638,-12.34102 25.518118,-19.0117 C 104.98189,120.47299 100.2471,109.43321 95.753525,98.31169 75.902016,105.16631 56.004884,111.95227 35.8,117.7 34.686719,113.09409 32.916881,108.23465 32.188216,103.78593 39.30267,87.881511 46.839499,72.170426 54.198227,56.378277 43.876529,55.866767 33.672521,53.934052 23.8,50.9 L 28,37.6 c 10.598763,3.0727 21.56969,4.974138 32.621654,5.055407 C 64.570009,33.415055 69.165688,22.741227 78.2,16.9 c 3.864315,-2.103451 8.199169,-2.569493 12.4,-1.2 z m 61.9,13.1 c 9.64076,2.802713 15.29647,12.085893 18.44614,21.030728 0.50793,2.391879 3.47478,6.067755 -0.86799,5.926696 L 159.2,58.9 c -2.03285,-5.854068 -3.81616,-12.831321 -9.42746,-16.25544 -2.26104,-1.499104 -5.8364,2.075736 -6.13681,-1.748157 C 142.15715,37.297602 140.67858,33.698801 139.2,30.1 c 4.24865,-1.774827 8.78101,-2.112497 13.3,-1.3 z M 76.571928,41.628997 C 83.98431,40.784363 91.260661,39.0175 98.414373,36.934443 95.191938,32.018633 88.155176,27.954111 85.598204,28.840719 c -3.229947,0.431269 -7.19644,8.535771 -9.026276,12.788278 z"
       id="path2" />
  </g>
</svg>
