<?xml version="1.0" encoding="UTF-8" standalone="no"?>
<svg
   xmlns:dc="http://purl.org/dc/elements/1.1/"
   xmlns:cc="http://creativecommons.org/ns#"
   xmlns:rdf="http://www.w3.org/1999/02/22-rdf-syntax-ns#"
   xmlns:svg="http://www.w3.org/2000/svg"
   xmlns="http://www.w3.org/2000/svg"
   xmlns:sodipodi="http://sodipodi.sourceforge.net/DTD/sodipodi-0.dtd"
   xmlns:inkscape="http://www.inkscape.org/namespaces/inkscape"
   inkscape:version="1.0 (4035a4fb49, 2020-05-01)"
   sodipodi:docname="u1b0d7.svg"
   id="svg6"
   height="200"
   width="200"
   viewBox="0 0 200 200"
   version="1.1">
  <metadata
     id="metadata12">
    <rdf:RDF>
      <cc:Work
         rdf:about="">
        <dc:format>image/svg+xml</dc:format>
        <dc:type
           rdf:resource="http://purl.org/dc/dcmitype/StillImage" />
      </cc:Work>
    </rdf:RDF>
  </metadata>
  <defs
     id="defs10" />
  <sodipodi:namedview
     inkscape:current-layer="svg6"
     inkscape:window-maximized="1"
     inkscape:window-y="28"
     inkscape:window-x="0"
     inkscape:cy="73.968532"
     inkscape:cx="95.120046"
     inkscape:zoom="2.815"
     showgrid="false"
     id="namedview8"
     inkscape:window-height="846"
     inkscape:window-width="1440"
     inkscape:pageshadow="2"
     inkscape:pageopacity="0"
     guidetolerance="10"
     gridtolerance="10"
     objecttolerance="10"
     borderopacity="1"
     bordercolor="#666666"
     pagecolor="#ffffff" />
  <g
     id="g4"
     fill="black">
    <path
       sodipodi:nodetypes="cccccccccccccccccccccccscccccccccccccccccccccccc"
       d="M 121.47266,15.294922 C 107.73965,19.132602 95.989674,28.82181 86.099609,37 l 9.201172,10.5 c 6.229269,-5.061121 12.330759,-10.297944 19.310549,-14.320312 7.3671,-4.517361 16.06043,-7.428277 19.49023,1.515624 1.56152,4.167122 2.74867,8.688617 3.22266,13.154297 1.17099,9.151149 1.13572,18.346648 0.8418,27.550782 -7.62191,-0.184212 -16.80042,0.210506 -24.37891,1.046875 1.31074,-3.242266 2.38991,-5.18884 2.85742,-8.244141 C 118.81878,53.018409 106.45077,50.761097 95.400391,49 L 94.5,63 c 2.870774,0.21659 7.75671,0.193692 8.40039,2.099609 0.56975,2.601143 -2.50244,10.715314 -3.794921,13.50586 -10.759901,1.831367 -22.80921,4.859486 -33.076172,8.585937 1.311168,-13.223549 6.290367,-33.110335 14.724609,-51.449218 L 68.597656,30.720703 C 57.633521,54.848365 53.041607,73.8677 51.960938,92.796875 39.915563,97.776379 28.659012,104.4296 17.800781,111.59961 c 2.666667,3.83333 5.333333,7.66667 8,11.5 7.110001,-4.60244 17.591022,-11.18853 25.4375,-14.25781 -0.326659,9.42826 2.154483,20.50818 8.048828,27.91406 -10.610441,5.37513 -15.42087,7.25214 -24.58789,-1.75586 -3.313538,2.27626 -7.926697,5.47374 -11.240235,7.75 5.358026,6.91512 14.794886,11.55698 23.638672,12.19727 8.006713,0.57968 15.784049,-4.27814 22.769532,-7.84571 13.689312,6.51472 31.520872,4.42746 45.933592,-2.80078 -1.1233,-9.5615 -3.49342,-18.94472 -6.10156,-28.20117 -4.5,1.23333 -9,2.46784 -13.500001,3.70117 1.289296,5.08015 2.809983,10.10195 3.865231,15.24024 -4.688305,2.12813 -12.309911,2.58119 -18.101559,1.37109 9.286529,-8.75414 21.116329,-28.59678 27.447269,-45.359376 9.24458,-1.044309 18.54054,-1.939514 27.85937,-1.652343 -1.54085,23.115669 -5.3068,49.110319 -21.44531,70.244139 -6.15704,6.90873 -15.895738,14.18313 -24.435548,9.79492 -3.850107,-2.37451 -5.829929,-6.33125 -7.988281,-10.13867 l -12.569708,5.31942 c 5.795703,16.10843 22.909415,24.12598 35.169317,19.07902 13.84255,-5.95754 20.46701,-13.35474 27.52539,-24.81445 12.11846,-21.47758 15.91786,-47.69564 17.6875,-68.927739 9.54058,0.386075 18.89331,2.276488 28.28711,3.84375 0.96667,-4.566667 1.93372,-9.134505 2.90039,-13.701172 -10.06525,-1.685844 -20.09279,-3.683897 -30.31445,-4.111328 -0.31053,-17.980649 2.76654,-45.484173 -10.5249,-56.213239 -7.40679,-5.111069 -11.57809,-6.305733 -20.08838,-4.48012 z M 92.919922,94.029297 C 88.224667,106.13439 77.490559,122.9604 70.105469,128.4668 c -6.098258,-8.39702 -6.050111,-19.80507 -4.892578,-26.20508 8.465005,-4.138477 18.39636,-6.635712 27.707031,-8.232423 z"
       id="path2" />
  </g>
</svg>
