<?xml version="1.0" encoding="UTF-8" standalone="no"?>
<svg
   xmlns:dc="http://purl.org/dc/elements/1.1/"
   xmlns:cc="http://creativecommons.org/ns#"
   xmlns:rdf="http://www.w3.org/1999/02/22-rdf-syntax-ns#"
   xmlns:svg="http://www.w3.org/2000/svg"
   xmlns="http://www.w3.org/2000/svg"
   xmlns:sodipodi="http://sodipodi.sourceforge.net/DTD/sodipodi-0.dtd"
   xmlns:inkscape="http://www.inkscape.org/namespaces/inkscape"
   inkscape:version="1.0 (4035a4fb49, 2020-05-01)"
   sodipodi:docname="u1b0cb.svg"
   id="svg6"
   height="200"
   width="200"
   viewBox="0 0 200 200"
   version="1.1">
  <metadata
     id="metadata12">
    <rdf:RDF>
      <cc:Work
         rdf:about="">
        <dc:format>image/svg+xml</dc:format>
        <dc:type
           rdf:resource="http://purl.org/dc/dcmitype/StillImage" />
      </cc:Work>
    </rdf:RDF>
  </metadata>
  <defs
     id="defs10" />
  <sodipodi:namedview
     inkscape:current-layer="svg6"
     inkscape:window-maximized="1"
     inkscape:window-y="28"
     inkscape:window-x="0"
     inkscape:cy="109.93155"
     inkscape:cx="95.593892"
     inkscape:zoom="2.815"
     showgrid="false"
     id="namedview8"
     inkscape:window-height="846"
     inkscape:window-width="1440"
     inkscape:pageshadow="2"
     inkscape:pageopacity="0"
     guidetolerance="10"
     gridtolerance="10"
     objecttolerance="10"
     borderopacity="1"
     bordercolor="#666666"
     pagecolor="#ffffff" />
  <g
     id="g4"
     fill="black">
    <path
       sodipodi:nodetypes="ccccccccccccccccccccccccccccccccc"
       d="m 135.2,17.2 c 6.33713,1.733816 10.88463,8.8483 8.66753,15.190911 C 128.49006,77.940642 112.35481,115.32655 83.226303,127.54647 103.03743,123.83865 119.43524,116.60484 138.5,112.1 c 0.96667,4.56667 1.93333,9.13333 2.9,13.7 -13.70827,3.00388 -27.62437,7.85953 -38.00664,17.66767 19.14278,3.7879 37.83172,15.45315 50.38847,28.29216 -2.38098,2.46787 -7.5707,7.71631 -9.98183,9.94017 C 130.34851,168.2729 109.14413,153.62061 92.326157,156.87863 79.551869,160.37781 68.730574,174.20129 59.1,181.6 56.333333,177.83333 53.566667,174.06667 50.8,170.3 62.411306,161.48045 73.006892,151.41759 83.93234,141.78099 72.091656,144.46831 60.298972,147.37578 48.4,149.8 47.309459,145.22281 46.666268,140.46724 45.3,136 57.872664,126.42307 71.984307,119.80783 81.532747,110.65151 78.014865,106.75 73.415196,102.0436 71.998872,97.129802 69.791347,86.942278 76.026856,77.735452 84.658484,73.733076 92.150467,70.069491 106.40115,66.655923 115.97113,67.733834 121.45284,55.444914 130.5635,33.781281 129.76398,30.301896 128.99202,26.641925 117.36016,32.804265 111.5,35.1 c -1.73333,-4.333333 -3.46667,-8.666667 -5.2,-13 9.11492,-3.415914 19.0519,-7.455009 28.9,-4.9 z M 85.1,92 c 0.638049,4.423139 4.551276,7.55774 8.307912,9.48281 C 101.20325,96.124252 105.06251,89.526301 110.10226,80.332594 100.41368,80.31048 84.763277,85.463579 85.1,92 Z M 77.6,26.3 c -1.460869,2.664969 -3.917885,7.158522 -2.46129,8.864516 C 77.294023,36.931646 86.544363,29.04528 91.8,25.3 l 8.3,11.3 C 91.81797,41.857723 77.166407,53.31106 67.243933,47.177376 57.154658,40.706225 63.125528,23.556497 65.353126,19.801584 Z"
       id="path2" />
  </g>
</svg>
