<?xml version="1.0" encoding="UTF-8" standalone="no"?>
<svg
   xmlns:dc="http://purl.org/dc/elements/1.1/"
   xmlns:cc="http://creativecommons.org/ns#"
   xmlns:rdf="http://www.w3.org/1999/02/22-rdf-syntax-ns#"
   xmlns:svg="http://www.w3.org/2000/svg"
   xmlns="http://www.w3.org/2000/svg"
   xmlns:sodipodi="http://sodipodi.sourceforge.net/DTD/sodipodi-0.dtd"
   xmlns:inkscape="http://www.inkscape.org/namespaces/inkscape"
   inkscape:version="1.0 (4035a4fb49, 2020-05-01)"
   sodipodi:docname="u1b0f7.svg"
   id="svg6"
   height="200"
   width="200"
   viewBox="0 0 200 200"
   version="1.1">
  <metadata
     id="metadata12">
    <rdf:RDF>
      <cc:Work
         rdf:about="">
        <dc:format>image/svg+xml</dc:format>
        <dc:type
           rdf:resource="http://purl.org/dc/dcmitype/StillImage" />
      </cc:Work>
    </rdf:RDF>
  </metadata>
  <defs
     id="defs10" />
  <sodipodi:namedview
     inkscape:current-layer="svg6"
     inkscape:window-maximized="1"
     inkscape:window-y="28"
     inkscape:window-x="0"
     inkscape:cy="175.41415"
     inkscape:cx="178.61052"
     inkscape:zoom="1.9905056"
     showgrid="false"
     id="namedview8"
     inkscape:window-height="846"
     inkscape:window-width="1440"
     inkscape:pageshadow="2"
     inkscape:pageopacity="0"
     guidetolerance="10"
     gridtolerance="10"
     objecttolerance="10"
     borderopacity="1"
     bordercolor="#666666"
     pagecolor="#ffffff" />
  <g
     id="g4"
     fill="black">
    <path
       sodipodi:nodetypes="ccscccccccccsssccccccccccccccscccsccccscsccccccccccaccscsccscccacsccs"
       d="m 51.300781,17.300781 -3.5625,13.181641 c 2.668847,0.554186 4.284157,0.159177 4.833985,1.787109 1.19208,3.529513 -11.75008,15.639124 -18.472657,22.63086 3.264154,3.420703 7.034101,7.300002 10,10.40039 3.157448,-1.019587 6.283366,-2.13922 9.417969,-3.228515 -7.35568,7.478868 -14.845502,13.859433 -21.052734,23.5 -6.158027,10.127416 6.93571,19.833024 18.011718,17.832034 -10.536748,23.9758 -19.636843,48.54624 -28.175781,73.29492 l 13.298828,4.5 c 4.310426,-12.4705 8.570819,-24.96314 13.433594,-37.23242 2.863817,-4.48877 7.298944,-8.15331 12.152344,-10.40625 -3.200042,4.62303 -5.795201,10.9627 -7.998047,16.30273 -3.677711,8.91533 -6.764983,24.30845 11.189453,26.68164 10.727907,1.418 22.633849,-7.74526 26.113281,-19.1914 3.307068,-10.87912 6.915504,-22.57385 -4.736328,-35.23243 3.215676,-4.24067 6.430809,-8.48003 9.646485,-12.7207 C 91.767058,106.43372 88.133333,103.46667 84.5,100.5 c -4.23232,5.60085 -8.464946,11.20188 -12.697266,16.80273 -4.378222,-0.52007 -8.794707,0.77585 -12.935546,2.01368 2.770686,-6.59477 5.625876,-13.15383 8.589843,-19.664066 9.726824,-3.158569 19.095,-7.230786 28.44336,-11.351563 C 94.571552,81.595415 93.651734,74.172431 88.572266,69.095703 81.63842,63.531854 76.268442,65.688298 69.15625,70.724609 63.157919,76.964347 59.949835,83.180293 55.986597,89.450602 54.501954,90.667808 46.097254,90.198992 47.605469,88.060547 58.758443,76.141926 73.713183,62.194802 84.632812,49.109375 82.124501,45.760861 79.333331,42.690504 76.699219,39.300781 71.289047,40.960179 66.650556,42.73873 61.583984,45.138672 63.86192,41.091474 67.845697,33.598169 65.869141,28.078125 63.832643,22.390679 57.644803,18.721467 51.300781,17.300781 Z m 75.298829,3.59961 c 0.15085,3.016961 -0.59013,11.135164 -0.43929,14.152125 3.15399,-0.718844 4.80342,0.704879 5.13206,2.533197 1.19607,6.654059 -17.57852,34.6411 -22.09313,41.314676 3.83333,2.7 7.66667,5.399609 11.5,8.099609 8.51,-4.118626 17.43214,-7.897893 26.04883,-11.996094 -0.19616,5.404915 -0.769,15.474539 -0.7828,20.8845 -9.14439,3.834252 -21.65511,14.910756 -25.57463,23.226826 -2.95389,6.26728 0.65318,15.11345 6.24805,19.82422 -7.41318,8.32609 -25.592,23.10104 -11.88867,32.0918 14.20962,9.32293 43.8451,5.64766 60.05078,3.86914 -0.56667,-4.63333 -1.1345,-9.26706 -1.70117,-13.90039 -15.83508,2.75579 -35.95967,5.0998 -48.53125,0.16016 -1.7267,-0.77995 8.55313,-10.25288 13.03516,-13.31641 2.75587,1.01137 5.68702,2.32421 8.64257,4.27148 4.49833,0.13518 9.8246,-0.34251 14.6543,-0.41601 -0.20608,-9.44921 -0.7845,-21.13121 -0.45369,-32.67111 5.26907,-8.20868 4.93926,-19.114372 -0.36272,-21.428503 0.0991,-9.776035 0.25773,-19.579358 1.40821,-29.296875 5.08745,-2.368284 10.2368,-4.599965 15.30859,-7.001953 -3.26861,-7.726015 -7.63545,-15.18642 -14.71484,-15.319685 -6.08147,-0.11448 -11.78391,7.613208 -13.12696,12.675154 -4.67524,2.123835 -9.3428,4.266686 -14.03125,6.361328 4.75729,-10.285862 17.36073,-25.467478 6.53907,-38.851562 -3.30553,-4.088229 -9.11768,-4.983949 -14.86722,-5.265623 z M 78.940683,80.882924 c 0,0 1.953661,0.06541 1.842577,1.572545 -1.953135,1.191141 -4.605458,2.655401 -7.315599,4.534049 1.619207,-3.815815 2.989704,-5.900812 5.473022,-6.106594 z m 66.340267,29.996626 c 0.0362,1.69035 0.10769,3.76475 0.0484,5.86953 -1.94733,4.18183 -5.23579,9.85038 -8.88945,12.14571 -1.50268,-0.97101 -2.97204,-3.77592 -2.60843,-5.89312 0.9408,-5.47794 8.31748,-10.62187 11.44948,-12.12212 z m -67.675481,22.56381 c 3.24343,3.06493 3.374686,7.93905 2.789062,12.00586 -1.166644,8.10165 -10.347553,22.88335 -15.49414,17.15039 -2.525895,-3.5187 8.397145,-25.23492 12.705078,-29.15625 z"
       id="path2" />
  </g>
</svg>
