<?xml version="1.0" encoding="UTF-8" standalone="no"?>
<svg
   xmlns:dc="http://purl.org/dc/elements/1.1/"
   xmlns:cc="http://creativecommons.org/ns#"
   xmlns:rdf="http://www.w3.org/1999/02/22-rdf-syntax-ns#"
   xmlns:svg="http://www.w3.org/2000/svg"
   xmlns="http://www.w3.org/2000/svg"
   xmlns:sodipodi="http://sodipodi.sourceforge.net/DTD/sodipodi-0.dtd"
   xmlns:inkscape="http://www.inkscape.org/namespaces/inkscape"
   inkscape:version="1.0 (4035a4fb49, 2020-05-01)"
   sodipodi:docname="u1b0e2.svg"
   id="svg6"
   height="200"
   width="200"
   viewBox="0 0 200 200"
   version="1.1">
  <metadata
     id="metadata12">
    <rdf:RDF>
      <cc:Work
         rdf:about="">
        <dc:format>image/svg+xml</dc:format>
        <dc:type
           rdf:resource="http://purl.org/dc/dcmitype/StillImage" />
      </cc:Work>
    </rdf:RDF>
  </metadata>
  <defs
     id="defs10" />
  <sodipodi:namedview
     inkscape:current-layer="svg6"
     inkscape:window-maximized="1"
     inkscape:window-y="28"
     inkscape:window-x="0"
     inkscape:cy="131.23307"
     inkscape:cx="48.20419"
     inkscape:zoom="2.815"
     showgrid="false"
     id="namedview8"
     inkscape:window-height="846"
     inkscape:window-width="1440"
     inkscape:pageshadow="2"
     inkscape:pageopacity="0"
     guidetolerance="10"
     gridtolerance="10"
     objecttolerance="10"
     borderopacity="1"
     bordercolor="#666666"
     pagecolor="#ffffff" />
  <g
     id="g4"
     fill="black">
    <path
       sodipodi:nodetypes="cccccccccccccccccccccccccccccccccccccccccccccccc"
       d="m 68.226,29.491155 c 2.875464,7.055631 0.477808,15.247211 1.323928,22.737467 C 79.779355,45.055951 89.164809,36.780389 98.5,28.5 c 3.13333,3.433333 6.26667,6.866667 9.4,10.3 C 95.763614,49.812768 83.227412,60.52223 69.310949,69.239416 69.246682,76.21519 69.184504,83.190983 69.125925,90.166807 87.227989,76.913092 107.75249,55.879221 132.93296,56.553211 154.85719,57.14637 165.42905,72.615068 164.9,92.2 c -0.98951,11.91228 -5.67223,23.44754 -14.62678,31.68159 -10.16382,8.56365 -22.85147,11.25773 -36.15417,11.12366 -4.62666,2.90905 -11.31374,7.15858 -16.148531,9.69717 26.912431,4.58294 53.673531,11.62447 78.129481,23.99758 -2.1,4.16667 -4.2,8.33333 -6.3,12.5 C 136.31616,163.72383 104.21626,159.18234 70.2,155 l 1.5,-13.9 c 9.677628,-3.65415 19.01808,-8.0992 27.396291,-12.76976 -7.382596,-6.44052 -7.138586,-12.51407 -3.874865,-20.66901 3.943479,-10.457541 13.862704,-17.464056 24.450824,-20.096309 22.53196,-4.347774 33.55543,14.256719 14.27083,31.160869 8.68036,-5.58089 15.63436,-15.7926 16.55315,-24.921691 0.83562,-6.44679 0.70068,-21.511655 -17.20765,-23.367148 C 116.50349,69.023974 82.141749,97.614401 69,107.689 V 145 c -1.274721,1.37737 -0.352077,4.97102 -0.878397,7.19176 -0.692677,7.65477 -1.096929,15.78249 -4.573559,22.68478 -2.379377,1.54875 -4.574453,4.2366 -7.069246,5.07202 C 53.747651,178.79494 50.11044,177.98091 47.90779,176.662 45.755314,166.89962 39.345389,158.81482 33.2,151.2 l 10.8,-9 c 3.347311,4.40287 6.975872,8.6249 9.765035,13.41958 1.115087,-12.06034 1.114081,-24.18191 1.224993,-36.28274 C 48.069189,125.55891 41.434058,132.07701 35,138.8 c -3.365936,-3.23271 -6.737368,-6.47044 -10.1,-9.7 10.248946,-14.11312 15.759368,-21.19012 9.8,-38.8 l 13.2,-4.8 c 1.83772,6.074715 3.575414,12.318042 3.3,18.72212 1.879163,-1.81703 3.154053,-2.96206 4.06643,-4.323869 C 55.442092,93.029292 55.154556,83.833228 55.240684,76.843373 47.403004,80.44068 38.774609,82.763993 30.1,81.9 L 31.8,68 c 8.40181,0.630936 16.355111,-3.013323 23.585793,-6.894107 0.847128,-8.733876 1.170425,-16.583178 0.749243,-23.574042 C 55.279411,33.728805 48.427259,30.690714 43.9,30 L 46,16.2 c 9.309608,1.602469 17.310278,6.195218 22.226,13.291155 z m 44.29622,90.364405 c 6.46109,-0.99459 17.10296,-11.92645 16.5259,-18.00869 -1.15175,-9.080756 -34.508235,11.19032 -16.5259,18.00869 z"
       id="path2" />
  </g>
</svg>
