<?xml version="1.0" encoding="UTF-8" standalone="no"?>
<svg
   xmlns:dc="http://purl.org/dc/elements/1.1/"
   xmlns:cc="http://creativecommons.org/ns#"
   xmlns:rdf="http://www.w3.org/1999/02/22-rdf-syntax-ns#"
   xmlns:svg="http://www.w3.org/2000/svg"
   xmlns="http://www.w3.org/2000/svg"
   xmlns:sodipodi="http://sodipodi.sourceforge.net/DTD/sodipodi-0.dtd"
   xmlns:inkscape="http://www.inkscape.org/namespaces/inkscape"
   inkscape:version="1.0 (4035a4fb49, 2020-05-01)"
   sodipodi:docname="u1b0ea.svg"
   id="svg6"
   height="200"
   width="200"
   viewBox="0 0 200 200"
   version="1.1">
  <metadata
     id="metadata12">
    <rdf:RDF>
      <cc:Work
         rdf:about="">
        <dc:format>image/svg+xml</dc:format>
        <dc:type
           rdf:resource="http://purl.org/dc/dcmitype/StillImage" />
      </cc:Work>
    </rdf:RDF>
  </metadata>
  <defs
     id="defs10" />
  <sodipodi:namedview
     inkscape:current-layer="svg6"
     inkscape:window-maximized="1"
     inkscape:window-y="28"
     inkscape:window-x="0"
     inkscape:cy="110.6231"
     inkscape:cx="99.65643"
     inkscape:zoom="3.9810112"
     showgrid="false"
     id="namedview8"
     inkscape:window-height="846"
     inkscape:window-width="1440"
     inkscape:pageshadow="2"
     inkscape:pageopacity="0"
     guidetolerance="10"
     gridtolerance="10"
     objecttolerance="10"
     borderopacity="1"
     bordercolor="#666666"
     pagecolor="#ffffff" />
  <g
     id="g4"
     fill="black">
    <path
       sodipodi:nodetypes="ccsscccccssccccscccascaccccc"
       d="m 99.378406,36.066324 c 0.24575,8.546263 -13.78215,44.12501 -16.896011,63.792195 6.35355,-3.547128 18.211825,-9.776181 35.148105,-6.427455 22.59142,4.466889 27.77347,22.527946 27.21032,40.500926 -0.5481,17.49276 -12.35689,35.70849 -31.39759,42.08166 -17.355954,5.03526 -43.035426,5.45776 -53.821324,-7.97396 -4.777519,-7.07345 -2.794845,-15.14046 4.516729,-18.36867 13.309203,-7.31052 31.605713,-4.44116 43.184655,2.72165 3.06512,2.32564 6.48988,4.25873 8.75396,7.45869 7.0007,-3.85077 12.70295,-10.93573 13.73735,-18.56393 1.89178,-13.95098 1.59489,-29.07418 -14.77022,-34.15596 -13.0575,-4.05468 -29.192978,4.63911 -34.925669,11.30089 -1.251315,1.56655 -3.987784,-1.60248 -5.836663,-1.94134 -2.394016,-1.197 -4.788032,-2.39401 -7.182048,-3.59102 -0.07194,-1.27843 0.22143,-4.168 0.41414,-6.15554 C 70.116859,82.96581 85.159238,43.018265 85.06197,37.425953 84.964616,31.828677 76.413517,30.042063 71.3,27.8 l 5.1,-13 c 9.704358,4.198181 21.808146,9.907775 22.978406,21.266324 z M 76.4,158.8 c -1.752026,0.24797 -5.980607,1.52429 -4.60617,2.63874 5.141435,4.1689 19.640145,4.92964 28.84253,3.26744 C 93.608644,159.90256 84.633154,157.63473 76.4,158.8 Z m 68.3,-107.5 4.5,13.3 c -19.94373,5.081455 -35.12219,5.108943 -52.6,-0.7 l 4.6,-13.2 c 14.1136,4.281165 31.5294,4.667925 43.5,0.6 z"
       id="path2" />
  </g>
</svg>
