<?xml version="1.0" encoding="UTF-8" standalone="no"?>
<svg
   xmlns:dc="http://purl.org/dc/elements/1.1/"
   xmlns:cc="http://creativecommons.org/ns#"
   xmlns:rdf="http://www.w3.org/1999/02/22-rdf-syntax-ns#"
   xmlns:svg="http://www.w3.org/2000/svg"
   xmlns="http://www.w3.org/2000/svg"
   xmlns:sodipodi="http://sodipodi.sourceforge.net/DTD/sodipodi-0.dtd"
   xmlns:inkscape="http://www.inkscape.org/namespaces/inkscape"
   inkscape:version="1.0 (4035a4fb49, 2020-05-01)"
   sodipodi:docname="u1b015.svg"
   id="svg6"
   height="200"
   width="200"
   viewBox="0 0 200 200"
   version="1.1">
  <metadata
     id="metadata12">
    <rdf:RDF>
      <cc:Work
         rdf:about="">
        <dc:format>image/svg+xml</dc:format>
        <dc:type
           rdf:resource="http://purl.org/dc/dcmitype/StillImage" />
      </cc:Work>
    </rdf:RDF>
  </metadata>
  <defs
     id="defs10" />
  <sodipodi:namedview
     inkscape:current-layer="svg6"
     inkscape:window-maximized="1"
     inkscape:window-y="28"
     inkscape:window-x="0"
     inkscape:cy="119.63838"
     inkscape:cx="66.94542"
     inkscape:zoom="1.9905056"
     showgrid="false"
     id="namedview8"
     inkscape:window-height="846"
     inkscape:window-width="1440"
     inkscape:pageshadow="2"
     inkscape:pageopacity="0"
     guidetolerance="10"
     gridtolerance="10"
     objecttolerance="10"
     borderopacity="1"
     bordercolor="#666666"
     pagecolor="#ffffff" />
  <g
     id="g4"
     fill="black">
    <path
       sodipodi:nodetypes="csscccccccccccccccccccccsccccccsccccccccccc"
       d="m 49.8,21.4 c 7.876417,4.039721 12.761942,6.94434 18.553444,12.333343 3.516172,3.271803 4.500609,8.278873 4.367867,13.582227 -0.151176,6.039814 -0.268203,10.151478 -0.338607,17.223305 C 79.234864,63.134972 85.856994,60.839276 92.4,58.4 l 5.1,13.1 C 89.218218,74.567972 80.789378,77.305841 72.08877,78.905908 71.609554,98.25516 71.519734,117.98206 70.861765,137.09704 70.378117,151.83806 69.900972,166.58252 68.9,181.3 64.266667,181.06667 59.633333,180.83333 55,180.6 54.479576,176.66627 51.446697,173.37276 49.248498,170.14576 45.602816,165.46285 41.374514,161.28882 37.005933,157.28739 35.798552,159.92132 34.503821,162.51287 33.2,165.1 L 20.7,158.8 C 32.706255,134.10414 43.90193,109.02483 55.2,84 c 1.270113,0.63268 1.579047,0.712188 2.681093,1.078239 0.09965,-1.378348 0.177512,-2.937793 0.174546,-4.760204 C 45.329176,80.798673 32.332447,76.572923 22.947134,67.819887 25.573313,64.447313 29.409264,61.00092 32.5,57.6 c 6.870668,6.491373 16.5638,9.08687 25.8401,8.705158 0.157469,-7.628321 0.515125,-11.939305 0.391998,-19.441779 C 58.705185,40.253895 47.1945,35.711871 40.9,32.7 L 46.8,20 Z m 69.8,115.1 c -1.18293,4.57963 -0.86055,10.06928 3.33591,13.03591 10.55724,7.46738 34.81363,5.18003 51.16409,3.46409 0.56667,4.63333 1.13333,9.26667 1.7,13.9 -21.04036,2.5557 -46.35769,5.42522 -61.87583,-6.94038 -7.66515,-6.6883 -10.53591,-16.55459 -8.22573,-26.27617 L 119.6,136.49996 Z M 54.5,119.6 c -3.719714,8.20455 -7.414385,16.42094 -11.293192,24.55191 4.633988,3.82609 8.98813,7.99318 12.943309,12.51965 C 56.663051,146.78901 56.864922,136.89394 57,127 c 0.495565,-4.24122 0.217695,-9.26869 0.424408,-13.80585 C 56.449606,115.32944 55.474803,117.46472 54.5,119.6 Z M 178.8,59.9 c -3.23333,3.366667 -6.46667,6.733333 -9.7,10.1 C 152.83119,58.037729 136.04743,57.264489 120.32602,59.903373 119.5841,55.451898 118.54191,50.351475 117.8,45.9 c 22.12096,-3.328362 45.39814,-0.314224 61,14 z"
       id="path2" />
  </g>
</svg>
