<?xml version="1.0" encoding="UTF-8" standalone="no"?>
<svg
   xmlns:dc="http://purl.org/dc/elements/1.1/"
   xmlns:cc="http://creativecommons.org/ns#"
   xmlns:rdf="http://www.w3.org/1999/02/22-rdf-syntax-ns#"
   xmlns:svg="http://www.w3.org/2000/svg"
   xmlns="http://www.w3.org/2000/svg"
   xmlns:sodipodi="http://sodipodi.sourceforge.net/DTD/sodipodi-0.dtd"
   xmlns:inkscape="http://www.inkscape.org/namespaces/inkscape"
   inkscape:version="1.0 (4035a4fb49, 2020-05-01)"
   sodipodi:docname="u1b0f2.svg"
   id="svg6"
   height="200"
   width="200"
   viewBox="0 0 200 200"
   version="1.1">
  <metadata
     id="metadata12">
    <rdf:RDF>
      <cc:Work
         rdf:about="">
        <dc:format>image/svg+xml</dc:format>
        <dc:type
           rdf:resource="http://purl.org/dc/dcmitype/StillImage" />
      </cc:Work>
    </rdf:RDF>
  </metadata>
  <defs
     id="defs10" />
  <sodipodi:namedview
     inkscape:current-layer="svg6"
     inkscape:window-maximized="1"
     inkscape:window-y="28"
     inkscape:window-x="0"
     inkscape:cy="125.30342"
     inkscape:cx="88.395489"
     inkscape:zoom="3.9810112"
     showgrid="false"
     id="namedview8"
     inkscape:window-height="846"
     inkscape:window-width="1440"
     inkscape:pageshadow="2"
     inkscape:pageopacity="0"
     guidetolerance="10"
     gridtolerance="10"
     objecttolerance="10"
     borderopacity="1"
     bordercolor="#666666"
     pagecolor="#ffffff" />
  <g
     id="g4"
     fill="black">
    <path
       sodipodi:nodetypes="sccccccsassccsasccccccccccsccscccccccccc"
       d="M 81.272683,35.643556 C 81.446082,39.637557 69.467969,44.96693 67.9,51.023529 c -0.619801,2.191036 -0.293527,3.645856 1.454506,7.150708 1.541881,-1.133387 2.077268,-1.413776 3.702062,-2.395086 1.601209,2.414913 4.721936,16.796858 3.88862,19.575245 -0.211891,2.897792 -0.93118,5.773801 -1.588354,8.496725 l 1.072247,8.510958 C 92.415136,81.332375 107.24573,69.993931 125.17584,64.807267 c 11.73724,-3.395246 30.04039,-0.701493 38.75228,9.330227 10.55407,12.152977 11.31241,29.837236 4.61276,48.067356 -4.74041,12.89893 -13.87549,26.06703 -23.84982,36.35789 C 134.04575,169.54587 121.68502,178.90222 108.6,186.9 c -2.43333,-3.96667 -4.86667,-7.93333 -7.3,-11.9 18.45328,-11.55223 36.22087,-25.86689 47.66875,-44.28888 7.8861,-12.69035 15.40612,-34.592651 5.28834,-46.44065 -8.00751,-9.376854 -24.94416,-7.011205 -36.9565,-1.620791 C 102.96104,89.084405 89.937477,99.576025 77.980439,108.67238 79.001636,129.05097 78.11579,149.612 73.8,169.6 L 60.1,166.3 C 58.806729,156.94372 52.364984,145.09003 47.912084,136.64407 44.490415,140.54926 41.864862,144.68247 38.7,148.9 34.880929,146.21039 30.979474,143.64593 27,141.2 31.342809,134.82521 35.671998,128.00401 39.807524,121.78014 34.373217,110.44146 30.576793,96.608235 36.129698,84.607599 40.696096,76.164079 49.292347,69.121476 56.840625,63.868117 55.751583,60.044069 53.315904,53.979503 54,49.239549 54.876773,41.80917 66.503826,35.605434 66.715403,32.094659 66.898023,29.064385 59.905138,26.330992 56.3,24.8 l 5.2,-13 c 10.596328,4.873656 19.324838,13.528147 19.772683,23.843556 z M 58,125.7 c -0.451596,2.16517 2.53024,4.78515 3.365829,7.15146 1.255634,1.88871 3.103315,7.11001 2.767805,2.03884 0.138515,-5.00572 0.306074,-10.02117 0.199534,-15.02869 z m 2.074541,-47.673064 c -2.508272,1.671787 -12.711464,9.430065 -12.689689,17.827498 -0.301847,3.629339 0.487699,7.237776 1.488677,10.705226 4.524167,-7.891711 8.858097,-15.984958 12.003233,-24.531988 -0.13155,-1.732748 -0.517542,-2.33062 -0.802221,-4.000736 z"
       id="path2" />
  </g>
</svg>
