<?xml version="1.0" encoding="UTF-8" standalone="no"?>
<svg
   xmlns:dc="http://purl.org/dc/elements/1.1/"
   xmlns:cc="http://creativecommons.org/ns#"
   xmlns:rdf="http://www.w3.org/1999/02/22-rdf-syntax-ns#"
   xmlns:svg="http://www.w3.org/2000/svg"
   xmlns="http://www.w3.org/2000/svg"
   xmlns:sodipodi="http://sodipodi.sourceforge.net/DTD/sodipodi-0.dtd"
   xmlns:inkscape="http://www.inkscape.org/namespaces/inkscape"
   inkscape:version="1.0 (4035a4fb49, 2020-05-01)"
   sodipodi:docname="u1b0e1.svg"
   id="svg6"
   height="200"
   width="200"
   viewBox="0 0 200 200"
   version="1.1">
  <metadata
     id="metadata12">
    <rdf:RDF>
      <cc:Work
         rdf:about="">
        <dc:format>image/svg+xml</dc:format>
        <dc:type
           rdf:resource="http://purl.org/dc/dcmitype/StillImage" />
      </cc:Work>
    </rdf:RDF>
  </metadata>
  <defs
     id="defs10" />
  <sodipodi:namedview
     inkscape:current-layer="svg6"
     inkscape:window-maximized="1"
     inkscape:window-y="28"
     inkscape:window-x="0"
     inkscape:cy="100.3731"
     inkscape:cx="63.397147"
     inkscape:zoom="1.9905056"
     showgrid="false"
     id="namedview8"
     inkscape:window-height="846"
     inkscape:window-width="1440"
     inkscape:pageshadow="2"
     inkscape:pageopacity="0"
     guidetolerance="10"
     gridtolerance="10"
     objecttolerance="10"
     borderopacity="1"
     bordercolor="#666666"
     pagecolor="#ffffff" />
  <g
     id="g4"
     fill="black">
    <path
       sodipodi:nodetypes="cccccccccccccccccccccccscccccccccccc"
       d="m 152.24955,44.932703 c 6.56388,12.087158 2.67377,27.62657 -3.74497,37.44183 16.58245,2.164389 23.43155,10.670292 23.39542,24.225467 -0.9435,17.29292 -16.15411,26.87078 -28.42727,35.25454 -1.75848,1.35705 -5.78413,2.40191 -2.41766,4.40846 9.34315,7.43792 20.05546,18.67159 24.50008,30.09481 -4.75197,1.59929 -8.40943,2.4874 -13.25515,3.84219 -3.25813,-9.5821 -11.38756,-16.0989 -19.04543,-22.16475 -9.11182,-7.1804 -13.89323,-17.23207 -0.80211,-25.78096 C 141.65751,126.2177 151.55126,119.74701 156.6,109.6 159.59376,104.75925 156.05604,98.358812 150.80928,97.103713 144.71655,95.213658 138.22994,96.028255 132,96.7 l -2.1,-13.8 c 6.87362,-6.112882 16.09538,-32.340895 8.4,-32.4 -6.75296,-0.386891 -15.47128,7.822209 -22.1448,12.764324 C 103.93973,73.390404 91.778225,83.598103 80.133524,94.380833 88.398667,107.46726 88.313169,118.64367 82.2,131.7 75.013558,146.87421 52.456152,160.91496 36.169534,153.28115 27.923407,147.5072 28.632082,139.32287 31.974031,131.04214 38.075844,116.24528 49.500753,104.51392 60.855162,93.370036 57.079614,90.009552 52.579797,86.972846 49.340994,82.718279 41.033191,71.84873 43.624415,61.092284 51.584077,56.093847 L 60.7,66.9 c -1.952193,1.374635 -2.771065,4.024524 -1.245458,5.927267 1.729723,2.157318 7.519541,7.80229 11.503924,10.983219 18.073296,-14.036973 31.088054,-30.355854 49.144654,-40.732202 10.92223,-6.757241 25.02273,-10.981862 32.14643,1.854419 z M 43.957898,139.04012 c 0.480766,6.78247 14.65398,-0.29045 19.888335,-6.23866 7.897777,-9.27129 11.36174,-17.52033 6.45857,-28.55122 -5.725222,2.46297 -25.638996,25.52841 -26.346905,34.78988 z M 90.526209,38.453983 77.1,41.5 c -1.033198,-6.113421 -9.496151,-7.586159 -14.727152,-7.473889 0.364914,-5.030076 0.752871,-9.837306 0.851269,-13.993136 10.453871,0.149574 25.424334,4.425356 27.302092,18.421008 z"
       id="path2" />
  </g>
</svg>
