<?xml version="1.0" encoding="UTF-8" standalone="no"?>
<svg
   xmlns:dc="http://purl.org/dc/elements/1.1/"
   xmlns:cc="http://creativecommons.org/ns#"
   xmlns:rdf="http://www.w3.org/1999/02/22-rdf-syntax-ns#"
   xmlns:svg="http://www.w3.org/2000/svg"
   xmlns="http://www.w3.org/2000/svg"
   xmlns:sodipodi="http://sodipodi.sourceforge.net/DTD/sodipodi-0.dtd"
   xmlns:inkscape="http://www.inkscape.org/namespaces/inkscape"
   inkscape:version="1.0 (4035a4fb49, 2020-05-01)"
   sodipodi:docname="u1b01d.svg"
   id="svg6"
   height="200"
   width="200"
   viewBox="0 0 200 200"
   version="1.1">
  <metadata
     id="metadata12">
    <rdf:RDF>
      <cc:Work
         rdf:about="">
        <dc:format>image/svg+xml</dc:format>
        <dc:type
           rdf:resource="http://purl.org/dc/dcmitype/StillImage" />
      </cc:Work>
    </rdf:RDF>
  </metadata>
  <defs
     id="defs10" />
  <sodipodi:namedview
     inkscape:current-layer="svg6"
     inkscape:window-maximized="1"
     inkscape:window-y="28"
     inkscape:window-x="0"
     inkscape:cy="153.77775"
     inkscape:cx="146.79229"
     inkscape:zoom="1.9905056"
     showgrid="false"
     id="namedview8"
     inkscape:window-height="846"
     inkscape:window-width="1440"
     inkscape:pageshadow="2"
     inkscape:pageopacity="0"
     guidetolerance="10"
     gridtolerance="10"
     objecttolerance="10"
     borderopacity="1"
     bordercolor="#666666"
     pagecolor="#ffffff" />
  <g
     id="g4"
     fill="black">
    <path
       sodipodi:nodetypes="scccccccccacscccccsssscssaccccccccssccccscccccsccsccscsas"
       d="M 75.6,20.5 C 88.39696,27.329655 96.68914,43.166843 91.951658,55.219196 84.282743,68.922157 59.82379,70.656449 48.681648,66.057607 46.752262,74.547832 45.765462,83.233839 45.169594,91.915858 54.848758,90.673426 63.19513,91.195238 71.513822,94.968779 74.816972,90.609844 78.040933,86.191826 81.3,81.8 l 11.3,8.3 c -3.480508,4.686959 -6.955311,9.378159 -10.445346,14.05804 4.766558,6.88743 7.129126,15.26916 7.632105,23.60353 0.891838,15.94331 -1.757495,30.65942 -10.320673,43.528 -7.289483,9.78076 -16.788395,13.90008 -26.565855,12.83759 -8.704219,-0.94586 -17.021232,-10.58811 -20.642983,-16.24161 -6.838435,8.41087 -14.54787,4.35453 -16.891632,1.33401 C 11.9562,164.82568 12.682238,151.25399 18.3,140.5 l 12.3,6.6 c -0.185389,1.09534 3.383596,-3.89779 4.701691,-5.31638 9.352541,-11.63508 18.570303,-23.38296 27.571036,-35.29271 C 52.600518,103.23671 42.460088,106 31,106 31.030608,77.829384 36.769443,44.548384 52.322166,25.40552 58.943658,17.255544 68.60425,16.766413 75.6,20.5 Z m 65.6,-2.2 c 7.61558,0.620548 12.66426,8.130615 10.72692,13.557971 -3.04837,8.539835 -10.63658,19.152001 -16.06801,27.353657 10.48356,-3.328915 20.95955,-6.675135 30.80902,-4.177895 8.291,2.102105 15.05265,10.434169 16.24439,19.248342 1.47929,10.94084 -1.07791,17.275165 -5.92602,23.897117 C 170.79959,106.62951 160.09158,111.07743 150.2,114.6 c -0.33261,-0.95611 -0.64141,-1.60883 -1.07539,-2.26448 -3.92761,11.45804 -9.02542,23.71896 -14.6996,32.74813 21.46835,0.12686 37.40912,14.17215 49.87499,28.31635 -3.56667,3.03333 -7.13333,6.06667 -10.7,9.1 -8.79044,-9.84355 -18.81991,-20.14219 -32.18428,-23.03252 C 120.87067,157.88368 111.53933,173.54334 98.3,184.4 c -2.9,-3.63333 -5.8,-7.26667 -8.7,-10.9 20.02963,-16.15798 37.06201,-35.68611 45.15019,-61.77941 0.53626,-1.73003 0.89273,-4.75407 -1.50689,-5.22059 -2.65796,-0.51674 -5.40768,0.71559 -7.9433,1.7 L 120.5,95 c 10.47755,-2.816697 21.93994,-5.525905 28.32469,4.900925 C 156.28762,97.78318 167.76866,88.067667 169.1,82.2 c 1.06864,-5.501763 -1.69967,-13.843834 -6.9,-14 -10.94987,-0.328825 -37.44853,9.181768 -50.7,25 L 100.4,84.7 C 104.68686,79.425114 137.56598,34.414406 136.07277,32.215904 135.23968,31.000579 126.54467,34.231456 122.3,36.6 l -6.9,-12.2 c 7.81154,-4.265191 16.99209,-6.817704 25.8,-6.1 z M 42.159236,155.47643 c 1.96721,6.16002 5.567811,12.71849 12.040764,14.92357 7.53307,1.26136 13.4181,-5.50483 16.414278,-11.46937 5.91643,-11.77793 8.092611,-30.16122 2.436226,-42.6755 -10.29166,13.61056 -21.587269,27.71893 -30.891268,39.2213 z M 64.7,33.1 c -3.111965,1.906892 -9.57633,12.288191 -12.183324,19.482296 8.014082,3.746321 20.318394,3.642024 25.418278,-2.194758 2.083585,-2.384649 0.958812,-6.76441 -0.67695,-9.475896 C 74.711503,36.690489 68.903408,30.524313 64.7,33.1 Z"
       id="path2" />
  </g>
</svg>
