<?xml version="1.0" encoding="UTF-8" standalone="no"?>
<svg
   xmlns:dc="http://purl.org/dc/elements/1.1/"
   xmlns:cc="http://creativecommons.org/ns#"
   xmlns:rdf="http://www.w3.org/1999/02/22-rdf-syntax-ns#"
   xmlns:svg="http://www.w3.org/2000/svg"
   xmlns="http://www.w3.org/2000/svg"
   xmlns:sodipodi="http://sodipodi.sourceforge.net/DTD/sodipodi-0.dtd"
   xmlns:inkscape="http://www.inkscape.org/namespaces/inkscape"
   inkscape:version="1.0 (4035a4fb49, 2020-05-01)"
   sodipodi:docname="u1b0fe.svg"
   id="svg6"
   height="200"
   width="200"
   viewBox="0 0 200 200"
   version="1.1">
  <metadata
     id="metadata12">
    <rdf:RDF>
      <cc:Work
         rdf:about="">
        <dc:format>image/svg+xml</dc:format>
        <dc:type
           rdf:resource="http://purl.org/dc/dcmitype/StillImage" />
      </cc:Work>
    </rdf:RDF>
  </metadata>
  <defs
     id="defs10" />
  <sodipodi:namedview
     inkscape:current-layer="svg6"
     inkscape:window-maximized="1"
     inkscape:window-y="28"
     inkscape:window-x="0"
     inkscape:cy="120.08392"
     inkscape:cx="51.475958"
     inkscape:zoom="2.815"
     showgrid="false"
     id="namedview8"
     inkscape:window-height="846"
     inkscape:window-width="1440"
     inkscape:pageshadow="2"
     inkscape:pageopacity="0"
     guidetolerance="10"
     gridtolerance="10"
     objecttolerance="10"
     borderopacity="1"
     bordercolor="#666666"
     pagecolor="#ffffff" />
  <g
     id="g4"
     fill="black">
    <path
       sodipodi:nodetypes="sscccccssccccccccaccccccccccccccccccccccccccccsssccccscccccccccc"
       d="m 147.1,24.1 c 7.41498,1.804485 17.39497,7.58417 14.1226,18.01929 -2.13102,6.795497 -5.19119,13.32578 -8.73339,19.498923 C 161.03617,60.833995 169.62556,60.688127 178.2,61 c -0.16667,4.633333 -0.33333,9.266667 -0.5,13.9 -11.73638,-0.292086 -23.5391,-0.0032 -35.10325,2.19049 -3.39155,4.774481 -6.74994,9.572979 -10.27088,14.253753 10.49376,-2.670361 20.97615,-6.248735 32.28804,-4.42247 5.41859,0.874812 11.58168,6.426665 10.28609,12.858227 -0.99672,4.94791 -3.7577,9.61541 -7.36333,13.23096 -7.17122,7.02413 -15.93395,12.06306 -24.70815,16.79717 4.99542,2.74199 9.30141,7.60009 9.35712,13.54855 -0.0337,7.50035 -6.28725,13.02238 -12.1521,16.81853 -2.48627,1.60281 -5.03242,3.11716 -7.68921,4.40623 9.73611,3.0888 24.63744,2.2051 34.72875,2.34254 -0.0955,3.44434 -0.14975,6.28473 0.12692,13.97602 -13.69718,0.11948 -27.87309,1.04948 -41,-3.6 -7.67489,-4.26334 -9.30322,-9.34101 -8.4,-15 1.34256,-8.4116 18.18307,-14.04191 18.80605,-17.30174 0.49679,-2.80313 -13.84786,-6.67191 -13.6542,-14.63164 0.42135,-4.86773 4.23125,-9.00398 8.57544,-10.53026 10.11186,-5.22194 29.66586,-16.14367 28.37271,-19.13636 -1.56414,-2.811347 -22.86951,1.85298 -33.26137,6.01289 -6.70054,4.39055 -11.81507,9.07836 -18.23863,15.68711 -3.84929,-3.05223 -6.92226,-5.45569 -10.892589,-8.70869 C 105.40903,103.89876 113.94468,92.733509 121.40702,82.600432 102.27476,90.896846 81.498946,101.79272 68.826292,118.32262 67.724444,138.40207 68.124007,158.517 68.9,178.6 c -4.633333,0.23333 -9.266667,0.46667 -13.9,0.7 -4.613225,-8.70593 -11.967064,-16.58759 -18.160241,-22.75211 -1.31399,2.80889 -1.545661,3.15295 -2.22625,4.69265 L 21.4,155.4 C 33.321815,138.25321 43.032058,114.94711 31.329687,99.923342 L 41.7,90.9 c 6.175909,7.534914 9.76849,15.6068 9.704921,24.84037 1.653602,-1.41019 2.562352,-2.45803 3.940752,-3.91195 0.704711,-10.11104 1.541912,-22.541463 2.958031,-32.580272 C 48.170187,83.541375 43.483626,90.54332 33.120113,87.185299 26.466166,85.302502 21.000156,78.323487 22.868219,71.278542 23.758047,67.052568 26.255478,63.367162 29,60.1 l 10.6,9.2 c -0.766275,1.200134 -4.652214,4.947849 -1.277451,4.519711 C 48.128262,68.740656 57.882089,63.557012 67.8,58.7 l 6.3,12.5 c -2.224482,8.488339 -3.132854,18.289674 -3.838269,26.282688 18.553535,-16.67502 41.571579,-28.041807 64.000169,-33.107427 4.90949,-7.910808 15.77529,-22.11424 13.20353,-24.670157 -5.67854,-5.643561 -11.84611,-1.310026 -16.86696,1.767417 -7.64858,4.688061 -13.75911,15.266149 -19.91592,18.101507 -6.43901,2.965321 -13.517221,-1.41502 -16.438273,-8.529889 C 91.354559,43.378861 93.799274,34.902568 97.2,27.8 l 12.6,6.1 c -1.44162,3.5399 -3.26994,7.234442 -2.82846,11.157692 C 116.97843,33.167814 133.00629,20.670199 147.1,24.1 Z M 52.4,135.5 c -2.519221,3.11112 -5.17265,6.1165 -7.6,9.3 3.153465,3.1848 6.394677,6.28841 9.39674,9.6186 -0.0962,-7.00235 -0.116554,-14.00437 0.07173,-21.00546 C 53.645645,134.10876 53.022822,134.80438 52.4,135.5 Z M 79.3,32.1 76.6,45.8 C 63.941046,44.166571 51.378556,36.33022 45.838924,24.930935 50.24598,23.404144 54.66508,21.507284 59.001654,19.503307 62.959875,27.004778 72.496558,30.606281 79.3,32.1 Z"
       id="path2" />
  </g>
</svg>
