<?xml version="1.0" encoding="UTF-8" standalone="no"?>
<svg
   xmlns:dc="http://purl.org/dc/elements/1.1/"
   xmlns:cc="http://creativecommons.org/ns#"
   xmlns:rdf="http://www.w3.org/1999/02/22-rdf-syntax-ns#"
   xmlns:svg="http://www.w3.org/2000/svg"
   xmlns="http://www.w3.org/2000/svg"
   xmlns:sodipodi="http://sodipodi.sourceforge.net/DTD/sodipodi-0.dtd"
   xmlns:inkscape="http://www.inkscape.org/namespaces/inkscape"
   inkscape:version="1.0 (4035a4fb49, 2020-05-01)"
   sodipodi:docname="u1b094.svg"
   id="svg6"
   height="200"
   width="200"
   viewBox="0 0 200 200"
   version="1.1">
  <metadata
     id="metadata12">
    <rdf:RDF>
      <cc:Work
         rdf:about="">
        <dc:format>image/svg+xml</dc:format>
        <dc:type
           rdf:resource="http://purl.org/dc/dcmitype/StillImage" />
      </cc:Work>
    </rdf:RDF>
  </metadata>
  <defs
     id="defs10" />
  <sodipodi:namedview
     inkscape:current-layer="svg6"
     inkscape:window-maximized="1"
     inkscape:window-y="28"
     inkscape:window-x="0"
     inkscape:cy="87.115573"
     inkscape:cx="100.19434"
     inkscape:zoom="2.815"
     showgrid="false"
     id="namedview8"
     inkscape:window-height="846"
     inkscape:window-width="1440"
     inkscape:pageshadow="2"
     inkscape:pageopacity="0"
     guidetolerance="10"
     gridtolerance="10"
     objecttolerance="10"
     borderopacity="1"
     bordercolor="#666666"
     pagecolor="#ffffff" />
  <g
     id="g4"
     fill="black">
    <path
       sodipodi:nodetypes="ccccccsasssscccccsaascscs"
       d="m 144.1,27.3 c -9.15485,5.963967 -17.10532,15.608664 -16.97844,27.040953 1.44998,29.343997 10.61026,60.523117 7.60973,87.716837 7.86668,4.07199 21.02566,4.71374 29.5198,4.41872 L 164.4,159.9 c -9.45878,0.46883 -24.06234,-1.34948 -33.25399,-3.77339 -10.89895,26.69715 -52.059993,30.02592 -70.467401,19.20205 -9.41479,-5.53606 -16.920548,-15.11728 -20.776968,-25.33561 -6.279085,-16.63764 -7.176208,-34.83793 -1.861028,-53.316777 4.847937,-16.85442 19.764542,-34.539897 37.079514,-37.326606 12.225567,-1.967609 20.308498,2.722369 26.218693,11.991354 6.35654,9.968987 6.05194,22.873528 8.38099,34.464979 2.22196,11.05848 6.0774,20.70036 11.34345,28.60888 1.96003,-23.88745 -8.60033,-57.584043 -7.88336,-79.177653 -0.44975,-13.508354 6.55418,-26.475035 16.97818,-34.81108 1.89666,-1.718033 4.03723,-3.139475 6.04192,-4.726147 2.63333,3.866667 5.26667,7.733333 7.9,11.6 z M 79.8,72.5 c -12.302622,1.773429 -22.223385,14.012456 -27.368039,25.327583 -5.755088,12.657707 -5.711269,28.535027 -1.22462,41.695907 3.512508,10.30339 10.799929,20.72985 20.698242,25.25985 14.275112,6.53306 42.982767,1.49545 46.930067,-14.68534 -3.62133,-2.31845 -7.41286,-4.8626 -9.88227,-8.41529 C 91.570629,116.67443 97.13497,88.802774 88.626985,76.544857 86.671622,74.465009 83.874624,71.912641 79.8,72.5 Z"
       id="path2" />
  </g>
</svg>
