<?xml version="1.0" encoding="UTF-8" standalone="no"?>
<svg
   xmlns:dc="http://purl.org/dc/elements/1.1/"
   xmlns:cc="http://creativecommons.org/ns#"
   xmlns:rdf="http://www.w3.org/1999/02/22-rdf-syntax-ns#"
   xmlns:svg="http://www.w3.org/2000/svg"
   xmlns="http://www.w3.org/2000/svg"
   xmlns:sodipodi="http://sodipodi.sourceforge.net/DTD/sodipodi-0.dtd"
   xmlns:inkscape="http://www.inkscape.org/namespaces/inkscape"
   inkscape:version="1.0 (4035a4fb49, 2020-05-01)"
   sodipodi:docname="u1b0f3.svg"
   id="svg6"
   height="200"
   width="200"
   viewBox="0 0 200 200"
   version="1.1">
  <metadata
     id="metadata12">
    <rdf:RDF>
      <cc:Work
         rdf:about="">
        <dc:format>image/svg+xml</dc:format>
        <dc:type
           rdf:resource="http://purl.org/dc/dcmitype/StillImage" />
      </cc:Work>
    </rdf:RDF>
  </metadata>
  <defs
     id="defs10" />
  <sodipodi:namedview
     inkscape:current-layer="svg6"
     inkscape:window-maximized="1"
     inkscape:window-y="28"
     inkscape:window-x="0"
     inkscape:cy="109.4742"
     inkscape:cx="122.77908"
     inkscape:zoom="2.815"
     showgrid="false"
     id="namedview8"
     inkscape:window-height="846"
     inkscape:window-width="1440"
     inkscape:pageshadow="2"
     inkscape:pageopacity="0"
     guidetolerance="10"
     gridtolerance="10"
     objecttolerance="10"
     borderopacity="1"
     bordercolor="#666666"
     pagecolor="#ffffff" />
  <g
     id="g4"
     fill="black">
    <path
       sodipodi:nodetypes="sccccccccccccccccssccccccccccccsccsccccccccccccccccc"
       d="m 105.55678,24.413838 c 2.01927,5.396404 0.91926,12.227063 1.62358,15.167827 C 113.38945,38.095609 120.78278,34.064584 126.4,30.9 c 2.36667,4.033333 4.73333,8.066667 7.1,12.1 -8.2905,4.685616 -17.10372,8.56289 -26.41055,10.69241 0.0224,2.772304 0.0523,5.544544 0.078,8.31682 21.61489,-1.985508 39.10848,1.438472 57.9326,6.29077 -1.39975,4.329471 -2.79951,8.658941 -4.19926,12.988412 -20.01915,11.021224 -46.30609,17.64699 -62.75062,26.954958 -3.549597,2.37385 2.80988,1.29712 4.43445,1.38125 2.52882,-0.27864 5.00632,-0.98265 7.51543,-1.42462 1.34428,4.3329 2.15131,8.97802 3.82151,13.12151 -3.78837,5.13767 -3.99433,9.75449 -1.22823,12.75449 15.29537,-0.0355 30.52043,1.95117 44.8067,7.324 -1.7,4.36667 -3.4,8.73333 -5.1,13.1 -12.93049,-4.63169 -23.91268,-6.41729 -36.04804,-6.33516 1.85355,20.51518 -2.12356,28.51629 -16.694367,38.73905 -1.483963,0.27671 -6.088745,-2.56371 -8.943869,-4.20806 C 74.639523,173.4382 46.16457,163.98143 49.4,151.2 c 2.054862,-8.11765 19.642128,-11.47497 31.125129,-13.93259 5.257958,-0.8402 9.665806,-1.57688 15.799261,-2.31863 -1.934792,-3.47861 -1.7049,-7.75491 -0.31776,-11.38384 -3.644502,-0.38448 -6.978679,-1.56888 -9.907678,-3.79772 -8.527789,-7.2168 -4.765045,-18.14515 3.14489,-22.108107 C 82.965351,94.14692 77.086994,89.98028 71.175169,85.891784 59.912427,91.441814 52.915826,98.370145 43.4,106.3 40.433333,102.73333 37.466667,99.166667 34.5,95.6 45.849656,86.615874 76.295124,62.559231 74.193701,52.485201 70.005735,49.82569 64.563049,46.154961 60,42 L 71.1,33.4 C 76.235262,39.964731 85.005412,42.114972 93,41.7 92.780201,38.003042 93.263148,32.264532 92.345301,30.242404 90.579002,26.351035 85.291254,25.710198 81.1,25 l 1.7,-13.9 c 10.61301,1.953542 19.73029,5.225668 22.75678,13.313838 z M 67.272953,155.65198 c 10.096198,5.02023 20.223178,9.98001 30.221255,15.19369 5.990382,-5.62184 7.167912,-14.82266 4.554942,-22.35319 -10.956305,-0.16971 -25.196872,3.18342 -34.776197,7.1595 z M 106.59172,89.921096 c 10.72472,-4.337232 21.48072,-8.614067 32.02815,-13.371381 -6.11617,-1.598681 -24.94432,-2.199617 -31.35487,-0.906672 -0.29506,5.207571 -0.22413,10.215915 -0.67328,14.278053 z M 87.164483,79.882414 c 1.913341,1.347711 3.937713,2.527761 5.923936,3.762903 0.182905,-2.069357 0.126914,-3.543775 0.136812,-5.548876 z m -2.435609,-13.82239 c 2.813291,-0.693516 5.581665,-1.591183 8.45626,-2.006074 -0.02685,-2.792647 -0.05371,-5.585295 -0.08056,-8.377943 -2.396941,0.330893 -4.16854,-0.06764 -4.16854,-0.06764 -0.809038,5.765115 -2.303311,7.880293 -4.20716,10.451657 z"
       id="path2" />
  </g>
</svg>
