<?xml version="1.0" encoding="UTF-8" standalone="no"?>
<svg
   xmlns:dc="http://purl.org/dc/elements/1.1/"
   xmlns:cc="http://creativecommons.org/ns#"
   xmlns:rdf="http://www.w3.org/1999/02/22-rdf-syntax-ns#"
   xmlns:svg="http://www.w3.org/2000/svg"
   xmlns="http://www.w3.org/2000/svg"
   xmlns:sodipodi="http://sodipodi.sourceforge.net/DTD/sodipodi-0.dtd"
   xmlns:inkscape="http://www.inkscape.org/namespaces/inkscape"
   inkscape:version="1.0 (4035a4fb49, 2020-05-01)"
   sodipodi:docname="u1b002.svg"
   id="svg6"
   height="200"
   width="200"
   viewBox="0 0 200 200"
   version="1.1">
  <metadata
     id="metadata12">
    <rdf:RDF>
      <cc:Work
         rdf:about="">
        <dc:format>image/svg+xml</dc:format>
        <dc:type
           rdf:resource="http://purl.org/dc/dcmitype/StillImage" />
      </cc:Work>
    </rdf:RDF>
  </metadata>
  <defs
     id="defs10" />
  <sodipodi:namedview
     inkscape:current-layer="svg6"
     inkscape:window-maximized="1"
     inkscape:window-y="28"
     inkscape:window-x="0"
     inkscape:cy="129.65288"
     inkscape:cx="121.70211"
     inkscape:zoom="1.9905056"
     showgrid="false"
     id="namedview8"
     inkscape:window-height="846"
     inkscape:window-width="1440"
     inkscape:pageshadow="2"
     inkscape:pageopacity="0"
     guidetolerance="10"
     gridtolerance="10"
     objecttolerance="10"
     borderopacity="1"
     bordercolor="#666666"
     pagecolor="#ffffff" />
  <g
     id="g4"
     fill="black">
    <path
       sodipodi:nodetypes="cscscccssccccccccssccsacccssaccscccccccccccsccccccccccccc"
       d="m 73.2,9.6 c 5.884207,0.051117 12.482597,2.719584 13.395127,8.505235 0.82393,5.223907 -1.036913,11.735442 -1.490249,16.975673 C 104.57521,27.356428 128.68617,22.899464 146.7,25 168.0757,27.492553 172.74571,47.846984 162.33046,59.088373 151.2793,70.307739 133.87884,69.131104 119.8,68.9 L 120.1,55 c 9.92002,-0.238378 20.85043,0.420299 26.52706,-3.213976 C 151.61813,48.590663 150.64417,40.519325 143.9,39.1 c -5.79021,-1.218562 -14.2439,-0.594005 -21.17762,0.292803 -13.86958,1.761921 -27.30348,6.145371 -40.055317,11.7887 -1.667979,12.245547 -3.045434,24.542444 -3.704149,36.882937 10.343305,-4.779674 21.806666,-8.233243 32.753046,-9.698438 0.46386,-1.515462 0.91421,-3.096624 1.25372,-4.412649 3.77766,0.677759 14.50698,2.553469 14.50698,2.553469 l -0.25114,1.743325 c 12.25247,1.339752 24.6223,4.893695 32.7301,10.618831 9.88527,6.471787 17.0495,13.265682 20.39605,22.006252 5.21502,13.62065 3.60151,37.34211 -15.53105,55.25869 C 147.94268,181.93917 112.25091,190.08323 86.3,191.9 L 85.6,178 c 21.30921,-1.49089 51.8184,-10.34179 61.78945,-16.5835 13.61746,-8.52431 23.9224,-29.37997 18.84833,-44.74982 C 161.2182,101.46191 141.36125,92.514744 124.9,92.2 c -4.53222,27.79539 -7.96131,55.15809 -11.75646,78.46375 -12.94633,-2.27456 -22.34878,-6.91939 -30.26638,-14.09581 -11.709098,12.85272 -30.935308,30.59328 -51.000384,21.81073 -8.165647,-3.57413 -12.783395,-14.54194 -12.840905,-23.98622 -0.04119,-6.76463 2.661071,-14.89863 6.534384,-21.19648 C 35.030805,117.8135 49.574812,105.85741 64.575437,95.596821 64.888261,82.786083 65.940986,71.260413 67.559714,58.471103 54.86289,62.393492 46.072981,74.233348 34.340021,76.215293 29.140212,77.09365 22.49943,73.822537 20.650979,68.284604 17.922131,61.32837 20.0953,53.703511 22,46.8 L 35.3,51 c -0.959771,3.589256 -3.34081,10.816805 -1.8,11.3 2.096603,0.638998 13.696559,-8.744232 20.862914,-12.568789 5.042647,-2.923673 10.299397,-5.468437 15.486707,-8.120538 0.922748,-5.981161 3.447296,-16.951412 2.82665,-18.060504 C 72.135469,22.416345 67.220047,23.639866 64.5,23.8 L 63.4,9.9 C 66.654562,9.5345267 69.929068,9.4233351 73.2,9.6 Z M 33.3,151.9 c -1.078117,6.1704 2.423036,13.10444 7.659543,13.94628 11.54001,1.85522 24.881942,-10.98633 33.425981,-20.88157 -2.659372,-5.81743 -5.660393,-11.5191 -6.544644,-17.93796 C 66.745077,122.64058 65.061166,117.35782 64.932842,112.819 53.595471,121.37403 37.802316,133.90464 33.3,151.9 Z m 67.9,-20.7 c -3.165686,4.70782 -6.089726,9.5876 -9.413873,14.18266 2.502012,3.74567 6.811917,5.57143 10.245453,8.32787 1.90397,-10.90014 3.33819,-21.87286 4.9131,-32.82326 -1.9149,3.43758 -3.82979,6.87515 -5.74468,10.31273 z M 78.795215,104.57973 c 0.250382,5.8655 0.663123,20.39174 5.155877,26.81846 8.667633,-11.00119 15.595694,-26.46799 21.145968,-37.8922 -9.077124,1.0912 -19.16459,5.619394 -26.301845,11.07374 z"
       id="path2" />
  </g>
</svg>
