<?xml version="1.0" encoding="UTF-8" standalone="no"?>
<svg
   xmlns:dc="http://purl.org/dc/elements/1.1/"
   xmlns:cc="http://creativecommons.org/ns#"
   xmlns:rdf="http://www.w3.org/1999/02/22-rdf-syntax-ns#"
   xmlns:svg="http://www.w3.org/2000/svg"
   xmlns="http://www.w3.org/2000/svg"
   xmlns:sodipodi="http://sodipodi.sourceforge.net/DTD/sodipodi-0.dtd"
   xmlns:inkscape="http://www.inkscape.org/namespaces/inkscape"
   inkscape:version="1.0 (4035a4fb49, 2020-05-01)"
   sodipodi:docname="u1b0b6.svg"
   id="svg6"
   height="200"
   width="200"
   viewBox="0 0 200 200"
   version="1.1">
  <metadata
     id="metadata12">
    <rdf:RDF>
      <cc:Work
         rdf:about="">
        <dc:format>image/svg+xml</dc:format>
        <dc:type
           rdf:resource="http://purl.org/dc/dcmitype/StillImage" />
      </cc:Work>
    </rdf:RDF>
  </metadata>
  <defs
     id="defs10" />
  <sodipodi:namedview
     inkscape:current-layer="svg6"
     inkscape:window-maximized="1"
     inkscape:window-y="28"
     inkscape:window-x="0"
     inkscape:cy="107.97102"
     inkscape:cx="79.231717"
     inkscape:zoom="2.815"
     showgrid="false"
     id="namedview8"
     inkscape:window-height="846"
     inkscape:window-width="1440"
     inkscape:pageshadow="2"
     inkscape:pageopacity="0"
     guidetolerance="10"
     gridtolerance="10"
     objecttolerance="10"
     borderopacity="1"
     bordercolor="#666666"
     pagecolor="#ffffff" />
  <g
     id="g4"
     fill="black">
    <path
       sodipodi:nodetypes="cccccccccccccccccccccccccccccccccccccccccccccccccccc"
       d="m 64.9,158.7 c -1.681318,2.7341 0.138568,5.09804 2.91553,5.84041 25.968083,6.83597 55.17164,2.46646 79.28447,-0.54041 0.56667,4.63333 1.13333,9.26667 1.7,13.9 -22.1341,2.5148 -44.45281,5.21346 -66.749243,3.65238 -16.755744,-1.79351 -35.460506,-5.14916 -30.598553,-27.77979 2.99467,1.34406 10.453125,3.58335 13.447796,4.92741 z m 59.00315,-76.341568 c 3.10516,6.495049 0.91751,11.638076 0.54605,17.465612 7.94695,0.444176 15.87162,2.261176 22.9508,5.975956 l -6.9,12.3 c -5.30616,-2.83083 -11.32114,-4.11016 -17.29488,-4.36253 -6.31301,23.01304 -10.51944,35.13713 -35.551397,45.9308 C 83.942352,161.1142 79.935993,161.64196 76.1,162.7 l -2.3,-13.8 c 20.959857,-5.0412 30.68601,-14.42788 35.13696,-34.50984 -6.79823,0.79419 -13.626917,2.22749 -20.13696,4.10984 0.249188,2.53993 2.532495,5.17561 5.447888,2.8768 1.87962,5.02826 3.349515,9.47535 4.441214,12.24156 -12.672693,4.9691 -20.70111,0.90628 -23.278609,-11.10461 -4.37073,1.42916 -8.66956,3.06955 -13.010493,4.58625 -1.666667,-4.33333 -3.333333,-8.66667 -5,-13 5.339201,-1.90754 10.596586,-4.05487 16.036465,-5.66735 C 73.502265,95.036549 76.2391,82.816579 92.9,82.9 L 91,96.8 c -3.769862,-1.16497 -2.436944,6.05863 -2.995318,7.94584 6.866655,-3.02167 15.241338,-3.89181 22.419528,-4.68746 C 111.04398,96.653967 113.75857,88.109925 110.1,87.5 c -2.45058,-0.537175 -4.23195,1.463251 -6.40571,2.119252 C 101.25634,86.368656 99.037947,82.050596 96.6,78.8 c 10.50605,-6.623204 20.90399,-7.645247 27.30315,3.558432 z M 127.7,18.3 c 1.69222,4.69701 2.89966,9.591599 5.3,14 -20.65029,9.877989 -39.903056,22.859511 -56.068473,39.121675 10.692705,-8.350972 27.460713,-15.878745 38.717393,-15.767513 5.9603,0.236687 11.82497,2.295131 16.3052,6.291637 2.96904,2.619652 5.43702,5.98689 7.03684,9.635549 10.75182,0.204775 21.96593,3.555176 29.46993,11.568518 8.9493,11.141872 10.71775,23.812394 7.34075,36.415854 -3.06683,12.15259 -8.20407,21.0384 -17.83359,27.59083 -15.07733,7.70476 -30.62128,2.43663 -44.86805,-2.35655 1.83333,-4.3 3.66667,-8.6 5.5,-12.9 9.17115,3.54246 19.25377,7.10728 29.11747,4.52525 12.67319,-5.25844 18.49982,-27.20365 14.48073,-36.930647 C 155.11244,85.063961 141.55796,84.914112 128.6,85.8 128.29033,79.062614 124.65727,68.864431 117.2004,69.800045 84.22169,72.407915 49.878083,106.89618 35.854458,131.60372 31.301623,130.38841 27.354684,129.60525 22.2,128.3 35.644031,93.139058 66.349479,58.564711 94.031204,38.879554 83.444532,38.732026 72.492413,35.539319 64.896004,27.843204 68.357652,23.799032 70.577256,19.119239 72.686714,17.087126 89.682199,27.041341 111.45159,23.540453 127.7,18.3 Z"
       id="path2" />
  </g>
</svg>
