<?xml version="1.0" encoding="UTF-8" standalone="no"?>
<svg
   xmlns:dc="http://purl.org/dc/elements/1.1/"
   xmlns:cc="http://creativecommons.org/ns#"
   xmlns:rdf="http://www.w3.org/1999/02/22-rdf-syntax-ns#"
   xmlns:svg="http://www.w3.org/2000/svg"
   xmlns="http://www.w3.org/2000/svg"
   xmlns:sodipodi="http://sodipodi.sourceforge.net/DTD/sodipodi-0.dtd"
   xmlns:inkscape="http://www.inkscape.org/namespaces/inkscape"
   inkscape:version="1.0 (4035a4fb49, 2020-05-01)"
   sodipodi:docname="u1b0bb.svg"
   id="svg6"
   height="200"
   width="200"
   viewBox="0 0 200 200"
   version="1.1">
  <metadata
     id="metadata12">
    <rdf:RDF>
      <cc:Work
         rdf:about="">
        <dc:format>image/svg+xml</dc:format>
        <dc:type
           rdf:resource="http://purl.org/dc/dcmitype/StillImage" />
      </cc:Work>
    </rdf:RDF>
  </metadata>
  <defs
     id="defs10" />
  <sodipodi:namedview
     inkscape:current-layer="svg6"
     inkscape:window-maximized="1"
     inkscape:window-y="28"
     inkscape:window-x="0"
     inkscape:cy="85.988475"
     inkscape:cx="166.49779"
     inkscape:zoom="2.815"
     showgrid="false"
     id="namedview8"
     inkscape:window-height="846"
     inkscape:window-width="1440"
     inkscape:pageshadow="2"
     inkscape:pageopacity="0"
     guidetolerance="10"
     gridtolerance="10"
     objecttolerance="10"
     borderopacity="1"
     bordercolor="#666666"
     pagecolor="#ffffff" />
  <g
     id="g4"
     fill="black">
    <path
       sodipodi:nodetypes="ccccccccccccccccccccccccccccccccccccc"
       d="m 53.710147,48.210203 c -5.038727,26.529365 -9.262467,53.357017 -9.788462,80.401757 0.198663,1.53094 -0.225944,7.5526 0.368909,6.22897 C 60.640391,87.97515 79.574334,24.214692 136.52124,24.341007 139.65757,24.243559 142.77289,24.807291 145.9,25 c 0.54098,10.244848 0.83631,21.337051 1.22948,31.911805 0.56872,21.211283 0.90302,42.438161 0.19208,63.650275 C 156.92604,120.34121 166.47264,119.16115 176,118 c 0.63333,4.63333 1.26667,9.26667 1.9,13.9 -10.38843,1.17478 -20.78482,2.52982 -31.25057,2.69457 -1.70711,11.55549 -2.19827,46.64382 -17.64446,44.41478 C 104.12091,175.94508 77.845007,156.10063 78.541957,129.44123 79.745274,104.13357 110.22644,83.795512 133.20805,78.320136 132.9882,66.614353 132.92678,50.16978 132.44929,38.47169 117.66761,39.253469 104.38733,47.663331 94.755887,58.513877 88.904754,64.50648 85.883426,72.45674 81.943984,79.712033 70.357215,102.92619 59.872594,126.9918 54.283557,152.42066 53.264767,157.4364 52.528647,162.56246 51.9,167.6 c -3.544313,2.46251 -6.631678,6.23353 -10,9.2 -2.914643,-3.90966 -5.797525,-7.83672 -7.197418,-12.57597 -3.208416,-8.47266 -4.080083,-17.65201 -4.562664,-26.64761 -0.990455,-25.09201 2.784364,-50.049808 6.698139,-74.762342 1.28174,-8.428758 5.628934,-22.168166 4.646101,-25.145761 C 39.652589,34.254803 35.595036,32.983927 32.1,32 l 3.6,-13.6 c 23.042119,6.305783 19.382994,20.699209 18.010147,29.810203 z m 40.1314,74.749107 c -2.676821,7.0054 -1.314568,15.19052 2.382988,21.56456 8.461315,9.12177 18.482935,18.51679 31.304875,20.31142 3.43341,-8.42062 4.30249,-21.90539 5.26487,-30.86376 -5.3971,-0.1568 -13.54465,-1.78744 -18.44237,-5.85329 -8.39225,-6.73001 -0.63402,-20.98521 7.50882,-31.227928 -11.21409,6.780578 -23.82859,16.406928 -28.019183,26.068998 z m 30.091263,-4.9929 c 0.0246,1.27131 6.22757,1.99213 9.46208,2.30756 0.0952,-6.16917 0.32649,-12.33694 0.30511,-18.5073 -1.67616,1.33123 -9.58423,11.65883 -9.76719,16.19974 z"
       id="path2" />
  </g>
</svg>
