<?xml version="1.0" encoding="UTF-8" standalone="no"?>
<svg
   xmlns:dc="http://purl.org/dc/elements/1.1/"
   xmlns:cc="http://creativecommons.org/ns#"
   xmlns:rdf="http://www.w3.org/1999/02/22-rdf-syntax-ns#"
   xmlns:svg="http://www.w3.org/2000/svg"
   xmlns="http://www.w3.org/2000/svg"
   xmlns:sodipodi="http://sodipodi.sourceforge.net/DTD/sodipodi-0.dtd"
   xmlns:inkscape="http://www.inkscape.org/namespaces/inkscape"
   inkscape:version="1.0 (4035a4fb49, 2020-05-01)"
   sodipodi:docname="u1b0e4.svg"
   id="svg6"
   height="200"
   width="200"
   viewBox="0 0 200 200"
   version="1.1">
  <metadata
     id="metadata12">
    <rdf:RDF>
      <cc:Work
         rdf:about="">
        <dc:format>image/svg+xml</dc:format>
        <dc:type
           rdf:resource="http://purl.org/dc/dcmitype/StillImage" />
      </cc:Work>
    </rdf:RDF>
  </metadata>
  <defs
     id="defs10" />
  <sodipodi:namedview
     inkscape:current-layer="svg6"
     inkscape:window-maximized="1"
     inkscape:window-y="28"
     inkscape:window-x="0"
     inkscape:cy="107.52666"
     inkscape:cx="86.743159"
     inkscape:zoom="2.815"
     showgrid="false"
     id="namedview8"
     inkscape:window-height="846"
     inkscape:window-width="1440"
     inkscape:pageshadow="2"
     inkscape:pageopacity="0"
     guidetolerance="10"
     gridtolerance="10"
     objecttolerance="10"
     borderopacity="1"
     bordercolor="#666666"
     pagecolor="#ffffff" />
  <g
     id="g4"
     fill="black">
    <path
       sodipodi:nodetypes="csaaccccsccscccccsccccccccccssccccscccc"
       d="m 123.42837,41.352272 c 13.53213,1.346234 25.18113,8.090251 34.23598,17.06883 12.53312,12.427545 17.42966,29.331058 15.66966,45.170718 -1.73398,15.60548 -12.02912,30.93675 -24.83059,40.0285 -12.08327,8.58168 -29.80314,12.08508 -43.39481,9.68228 -11.112584,13.90341 -25.913952,24.29209 -41.485701,32.65818 -2.332076,-4.24747 -4.589792,-8.33539 -6.693636,-12.50979 11.965539,-6.34308 24.661873,-14.82602 33.780173,-24.91128 -14.80622,-7.73097 -33.542192,-26.71403 -25.376441,-42.98201 7.3405,-14.623898 29.338374,-18.782441 45.459515,-18.52308 0.47524,-10.406976 0.79425,-20.854288 -0.0151,-31.253397 C 98.396458,58.067864 88.005471,61.444844 78.69071,70.313131 61.017919,87.138833 49.121156,113.1587 44.8,135.2 c -4.69069,1.37711 -9.718601,2.92514 -13.904297,4.12938 C 19.052087,120.20493 26.404159,69.866743 34.772819,53.134536 L 48.1,56.4 C 42.506389,71.372084 39.165658,87.281982 39.322715,103.30555 46.261874,86.400071 55.751983,72.194122 68.548185,60.645608 80.875155,49.520574 96.426523,42.619681 108.63317,42.073227 104.5102,31.149241 86.860751,28.616579 76.2,28.9 l -0.5,-14 c 27.10495,0.546837 41.67691,7.735256 47.72837,26.452272 z M 125.1,60.1 c 0.34484,9.440501 0.12062,18.897077 -0.34616,28.329303 4.733,0.898862 9.41266,2.167848 13.84616,4.070697 -1.76667,4.3 -3.53333,8.6 -5.3,12.9 -3.09757,-1.13771 -6.23697,-2.17448 -9.46693,-2.86774 -0.64045,13.04603 -4.24881,26.78191 -10.13948,37.75266 21.02765,0.10996 39.67317,-15.16445 45.04291,-32.98194 3.23798,-10.744023 0.96155,-23.00471 -6.55034,-33.393876 -6.42026,-8.879418 -15.22932,-15.070327 -27.17904,-18.489841 0.0547,0.915876 0.0382,3.764861 0.0929,4.680737 z m -19.9,41 c -8.851311,0.17368 -25.731982,1.92892 -28,11.8 -1.583236,6.89071 12.174826,20.28726 22.608694,24.3538 6.471776,-11.69138 8.817056,-23.98749 10.146316,-36.23393 -1.58455,-0.0431 -3.17031,0.0608 -4.75501,0.0801 z"
       id="path2" />
  </g>
</svg>
