<?xml version="1.0" encoding="UTF-8" standalone="no"?>
<svg
   xmlns:dc="http://purl.org/dc/elements/1.1/"
   xmlns:cc="http://creativecommons.org/ns#"
   xmlns:rdf="http://www.w3.org/1999/02/22-rdf-syntax-ns#"
   xmlns:svg="http://www.w3.org/2000/svg"
   xmlns="http://www.w3.org/2000/svg"
   xmlns:sodipodi="http://sodipodi.sourceforge.net/DTD/sodipodi-0.dtd"
   xmlns:inkscape="http://www.inkscape.org/namespaces/inkscape"
   inkscape:version="1.0 (4035a4fb49, 2020-05-01)"
   sodipodi:docname="u1b0f1.svg"
   id="svg6"
   height="200"
   width="200"
   viewBox="0 0 200 200"
   version="1.1">
  <metadata
     id="metadata12">
    <rdf:RDF>
      <cc:Work
         rdf:about="">
        <dc:format>image/svg+xml</dc:format>
        <dc:type
           rdf:resource="http://purl.org/dc/dcmitype/StillImage" />
      </cc:Work>
    </rdf:RDF>
  </metadata>
  <defs
     id="defs10" />
  <sodipodi:namedview
     inkscape:current-layer="svg6"
     inkscape:window-maximized="1"
     inkscape:window-y="28"
     inkscape:window-x="0"
     inkscape:cy="108.92182"
     inkscape:cx="111.55335"
     inkscape:zoom="2.815"
     showgrid="false"
     id="namedview8"
     inkscape:window-height="846"
     inkscape:window-width="1440"
     inkscape:pageshadow="2"
     inkscape:pageopacity="0"
     guidetolerance="10"
     gridtolerance="10"
     objecttolerance="10"
     borderopacity="1"
     bordercolor="#666666"
     pagecolor="#ffffff" />
  <g
     id="g4"
     fill="black">
    <path
       sodipodi:nodetypes="sscccccccccccccccscccccccccccccccccccscccc"
       d="m 84.839799,26.617225 c -0.123061,7.106045 -27.13224,21.219468 -25.255485,27.775585 0.747777,2.61223 6.029466,10.451076 6.029466,10.451076 2.524383,-0.447725 3.512164,-1.299475 5.805063,-1.497871 L 74.6,76.7 c -1.797793,0.223573 -2.789736,0.32911 -3.849556,0.736095 1.60022,4.152606 2.923445,8.024752 4.410262,12.45139 13.129233,-10.069979 22.701865,-27.729904 37.990664,-31.874143 7.31727,-1.618655 11.6377,2.77448 13.70469,5.038559 5.7956,-9.699703 10.59533,-26.164613 21.88295,-28.779031 7.1801,-2.493718 14.8155,4.0255 17.33256,9.468438 7.6433,16.699415 8.8764,35.948165 8.67912,52.912229 -0.54428,20.406233 -4.68978,40.874393 -13.58944,59.327043 C 155.069,168.12989 146.67422,179.07791 136.6,188.2 l -10.64502,-11.12091 c 12.69024,-11.2855 23.35826,-25.4816 28.40856,-41.67237 5.55301,-17.51845 7.40937,-36.140163 5.90236,-54.438231 -1.14944,-10.57382 -4.94721,-30.406346 -8.45154,-30.894389 -4.53442,-0.631503 -17.78195,33.909149 -19.88754,57.95079 -4.85316,-0.79101 -9.75821,-0.57539 -14.13114,-1.07244 0.46065,-10.975168 5.98065,-30.384122 -1.39556,-34.08856 -4.08017,-3.082873 -33.847611,29.34546 -37.350632,32.94141 1.291839,11.52028 1.504937,23.28173 -0.945473,34.67141 C 75.969989,153.19609 69.739317,162.37946 63,171.8 c -4.077352,-2.81841 -6.142081,-4.2746 -9.674124,-6.51311 -1.732626,-5.43387 -6.28682,-13.18157 -10.104001,-17.26502 -1.268683,1.73064 -1.654075,2.82552 -3.12833,5.19389 L 27.8,146.6 C 37.388814,129.71595 50.740724,115.40416 63.959317,101.33095 62.858634,95.140264 60.898371,89.095786 58.714176,83.216784 49.513535,88.354761 41.741999,95.668356 35,103.7 l -10.8,-9 C 32.316269,85.145587 41.663164,76.474475 52.775971,70.521404 47.93026,62.430327 42.752154,53.563212 48.650503,45.749095 53.52038,38.296663 67.770892,30.451085 67.853435,27.547328 68.696181,25.935991 64.476168,26.524067 61.361631,25.662624 L 65,12.2 c 9.405012,1.624298 19.993308,5.553015 19.839799,14.417225 z M 51.5,136.5 c 3.508372,3.67284 7.14906,7.28069 9.902035,11.57946 4.073926,-8.25072 5.687989,-19.04508 4.750886,-28.74275 C 60.003662,124.98143 54.369048,131.37129 51.5,136.5 Z"
       id="path2" />
  </g>
</svg>
