<?xml version="1.0" encoding="UTF-8" standalone="no"?>
<svg
   xmlns:dc="http://purl.org/dc/elements/1.1/"
   xmlns:cc="http://creativecommons.org/ns#"
   xmlns:rdf="http://www.w3.org/1999/02/22-rdf-syntax-ns#"
   xmlns:svg="http://www.w3.org/2000/svg"
   xmlns="http://www.w3.org/2000/svg"
   xmlns:sodipodi="http://sodipodi.sourceforge.net/DTD/sodipodi-0.dtd"
   xmlns:inkscape="http://www.inkscape.org/namespaces/inkscape"
   inkscape:version="1.0 (4035a4fb49, 2020-05-01)"
   sodipodi:docname="u1b01e.svg"
   id="svg6"
   height="200"
   width="200"
   viewBox="0 0 200 200"
   version="1.1">
  <metadata
     id="metadata12">
    <rdf:RDF>
      <cc:Work
         rdf:about="">
        <dc:format>image/svg+xml</dc:format>
        <dc:type
           rdf:resource="http://purl.org/dc/dcmitype/StillImage" />
      </cc:Work>
    </rdf:RDF>
  </metadata>
  <defs
     id="defs10" />
  <sodipodi:namedview
     inkscape:current-layer="svg6"
     inkscape:window-maximized="1"
     inkscape:window-y="28"
     inkscape:window-x="0"
     inkscape:cy="98.097484"
     inkscape:cx="22.452311"
     inkscape:zoom="1.9905056"
     showgrid="false"
     id="namedview8"
     inkscape:window-height="846"
     inkscape:window-width="1440"
     inkscape:pageshadow="2"
     inkscape:pageopacity="0"
     guidetolerance="10"
     gridtolerance="10"
     objecttolerance="10"
     borderopacity="1"
     bordercolor="#666666"
     pagecolor="#ffffff" />
  <g
     id="g4"
     fill="black">
    <path
       sodipodi:nodetypes="ccccccccccccccccsscccccccssccccccccccccccccscccccccc"
       d="m 135.9,127.3 c -13.12468,6.08585 -25.79527,13.10237 -38.22069,20.5 23.13353,-0.85836 44.65835,9.48838 60.96854,22.79381 2.38405,2.10206 4.7681,4.20413 7.15215,6.30619 -3.23333,3.36667 -6.46667,6.73333 -9.7,10.1 C 144.77126,176.59951 131.81296,167.2399 116.63441,163.59555 99.8118,160.83387 84.56324,162.08009 70.67056,169.10821 60.879124,173.88307 51.718153,179.92368 43.2,186.7 L 34.3,175.9 C 51.162257,162.07712 69.123156,148.84449 87.907453,137.41625 75.896994,138.12836 64.6189,138.26703 59.870044,123.20303 64.79451,122.25774 67.766528,121.801 73.8,120.7 c 1.082855,3.74782 6.136714,2.93385 9.206283,2.99788 15.761263,-1.15688 31.736597,-6.08555 47.133217,-9.39402 1.37681,4.31759 3.8891,8.96787 5.7605,12.99614 z M 128,32.6 c -1.08119,2.603594 -0.13969,3.832031 0.85863,3.293216 19.52318,-10.537109 33.81243,-10.163784 43.42927,-3.109286 8.81642,6.467344 10.36248,16.460987 3.56975,25.303116 -13.84811,18.101859 -36.02429,28.430596 -54.93987,36.258782 1.78794,0.108614 3.77344,0.139536 4.90737,0.138642 0.15608,4.899372 0.35936,9.09855 0.67485,13.51553 -15.73548,1.04426 -31.586228,1.54256 -47.3,-0.1 L 80.7,94 C 105.72739,88.212799 131.00137,75.497972 149.66869,64.635342 156.77654,60.461035 165.69186,52.420541 165.5,46.8 165.3362,42.00132 158.18772,41.016534 153.07986,41.39437 141.16821,42.275492 126.22118,54.436181 118.69397,51.473244 111.95817,49.628115 110.58132,38.154405 115.1,27.1 Z M 79.4,16.9 c -1.338432,4.531173 -2.967145,9.086319 -4.33287,13.532375 8.520495,-0.599547 17.818125,2.769309 22.350423,10.347772 5.578057,11.902875 3.897777,23.639852 -2.079402,34.01886 C 90.207911,83.146807 82.897239,89.909763 75,95.6 66.412399,89.362462 56.660198,83.912185 48.041032,79.423721 43.718828,85.177043 38.865584,90.505565 34,95.8 L 23.9,86.1 C 33.809493,75.770168 42.467481,64.265194 49.633579,51.874539 43.333933,53.295675 37.129352,55.469637 30.725114,56.152511 24.032154,56.380908 18.571316,50.861391 17.423762,44.50504 16.570845,40.167156 16.4594,35.698488 16.9,31.3 l 13.9,1.3 c -0.16778,3.168819 -0.665875,8.501215 0.465156,9.334684 2.765397,2.037851 17.944802,-4.371028 26.713636,-6.877854 C 61.098997,27.885938 63.65728,20.488108 65.9,13 Z M 67.817838,47.212986 c -3.369248,7.140039 -7.38069,13.961167 -11.566957,20.647484 6.093775,3.30527 12.218376,6.56995 18.04033,10.343964 C 85.332733,71.525232 92.53286,51.556752 82.85556,45.526089 78.006785,43.619018 71.821968,44.731951 67.817838,47.212986 Z"
       id="path2" />
  </g>
</svg>
