<?xml version="1.0" encoding="UTF-8" standalone="no"?>
<svg
   xmlns:dc="http://purl.org/dc/elements/1.1/"
   xmlns:cc="http://creativecommons.org/ns#"
   xmlns:rdf="http://www.w3.org/1999/02/22-rdf-syntax-ns#"
   xmlns:svg="http://www.w3.org/2000/svg"
   xmlns="http://www.w3.org/2000/svg"
   xmlns:sodipodi="http://sodipodi.sourceforge.net/DTD/sodipodi-0.dtd"
   xmlns:inkscape="http://www.inkscape.org/namespaces/inkscape"
   inkscape:version="1.0 (4035a4fb49, 2020-05-01)"
   sodipodi:docname="u1b018.svg"
   id="svg6"
   height="200"
   width="200"
   viewBox="0 0 200 200"
   version="1.1">
  <metadata
     id="metadata12">
    <rdf:RDF>
      <cc:Work
         rdf:about="">
        <dc:format>image/svg+xml</dc:format>
        <dc:type
           rdf:resource="http://purl.org/dc/dcmitype/StillImage" />
      </cc:Work>
    </rdf:RDF>
  </metadata>
  <defs
     id="defs10" />
  <sodipodi:namedview
     inkscape:current-layer="svg6"
     inkscape:window-maximized="1"
     inkscape:window-y="28"
     inkscape:window-x="0"
     inkscape:cy="92.296698"
     inkscape:cx="151.11822"
     inkscape:zoom="2.815"
     showgrid="false"
     id="namedview8"
     inkscape:window-height="846"
     inkscape:window-width="1440"
     inkscape:pageshadow="2"
     inkscape:pageopacity="0"
     guidetolerance="10"
     gridtolerance="10"
     objecttolerance="10"
     borderopacity="1"
     bordercolor="#666666"
     pagecolor="#ffffff" />
  <g
     id="g4"
     fill="black">
    <path
       sodipodi:nodetypes="sccsccccccccccccccccccsccsccccsccccccccccccccc"
       d="m 70.446374,25.351499 c 2.415714,2.782125 2.357921,7.194818 1.756499,11.227356 -1.363691,7.564924 -2.759952,14.23834 -4.240112,21.781061 C 71.495811,57.243779 74.346657,56.506326 78.4,55.4 c 9.519665,-2.598313 17.438458,-0.30338 20.194354,13.729052 3.790396,13.542139 2.619816,27.555407 1.121535,40.375268 -1.782227,9.54757 -3.797674,19.03597 -6.993087,28.22502 -2.318967,7.77318 -5.844439,15.16956 -9.258684,22.50002 -4.272326,9.63033 -13.804691,23.61443 -15.574676,24.51687 -5.408842,-3.17394 -11.25856,-6.60317 -16.010614,-9.38409 -2.548328,-8.71784 -3.056923,-22.96947 -2.192364,-31.93654 4.633333,0.43333 8.480203,0.74107 13.113536,1.1744 -0.562849,7.05824 -0.989188,14.29466 0.846584,21.21064 4.489704,-6.56971 8.582806,-13.53721 11.439798,-21.0122 3.684511,-8.03403 6.063831,-16.61254 8.281935,-25.14002 2.06668,-9.04218 3.450424,-18.18702 4.128259,-27.437968 -0.08114,-6.573243 0.03251,-13.163424 -1.439113,-19.692291 -0.879456,-3.270974 -4.40881,-3.739271 -7.098822,-3.047451 -4.840997,1.249153 -9.424245,3.116618 -14.183522,4.635117 C 59.361249,99.536687 51.524688,124.97914 42.5,149.4 38.133333,147.76667 33.766667,146.13333 29.4,144.5 37.24514,123.20395 44.449701,101.06988 49.407968,78.960009 43.526432,80.419396 37.900059,82.100904 31.990415,82.35456 21.001688,82.826223 15.943349,72.304504 15.9,61.5 l 14,0.9 c -0.0132,2.134668 0.593239,5.963691 2.8,6 6.752647,0.111106 13.846683,-3.015978 20.00225,-5.10075 2.017467,-9.882812 3.772733,-17.888373 5.622767,-27.803698 C 58.812841,31.313121 50.5938,29.048272 46.2,28 l 3.4,-13.6 c 8.223704,2.220057 15.860393,5.209253 20.846374,10.951499 z M 179.81557,67.196011 c 4.31889,7.833821 4.23396,17.345992 2.979,26.008699 -3.60737,25.55939 -24.68375,51.73341 -43.30288,63.13577 -2.5015,-3.6735 -4.84928,-8.01153 -7.29169,-11.94048 15.90082,-9.53567 28.43078,-24.70997 34.46418,-42.24955 2.69976,-8.075295 5.29094,-20.069701 1.43582,-27.55045 -2.59263,-5.264346 -9.66931,-5.720888 -14.65206,-4.339429 -8.7253,3.296471 -15.85036,10.625892 -18.15616,19.76409 C 133.5132,96.517837 133.59288,103.32732 134,110 H 120 C 118.7958,93.452076 117.86323,76.868736 104.79089,70.710995 106.53491,67.222946 109.25598,61.588049 111,58.1 c 6.82,3.709682 12.53192,9.451013 16.00075,16.401589 C 132.80366,65.089131 142.51885,58.888993 152.9,55.6 c 10.15011,-2.551257 21.63438,1.784592 26.91557,11.596011 z"
       id="path2" />
  </g>
</svg>
