<?xml version="1.0" encoding="UTF-8" standalone="no"?>
<svg
   xmlns:dc="http://purl.org/dc/elements/1.1/"
   xmlns:cc="http://creativecommons.org/ns#"
   xmlns:rdf="http://www.w3.org/1999/02/22-rdf-syntax-ns#"
   xmlns:svg="http://www.w3.org/2000/svg"
   xmlns="http://www.w3.org/2000/svg"
   xmlns:sodipodi="http://sodipodi.sourceforge.net/DTD/sodipodi-0.dtd"
   xmlns:inkscape="http://www.inkscape.org/namespaces/inkscape"
   version="1.1"
   viewBox="0 0 200 200"
   width="200"
   height="200"
   id="svg6"
   sodipodi:docname="u1b00f.svg"
   inkscape:version="1.0 (4035a4fb49, 2020-05-01)">
  <metadata
     id="metadata12">
    <rdf:RDF>
      <cc:Work
         rdf:about="">
        <dc:format>image/svg+xml</dc:format>
        <dc:type
           rdf:resource="http://purl.org/dc/dcmitype/StillImage" />
      </cc:Work>
    </rdf:RDF>
  </metadata>
  <defs
     id="defs10" />
  <sodipodi:namedview
     inkscape:document-rotation="0"
     pagecolor="#ffffff"
     bordercolor="#666666"
     borderopacity="1"
     objecttolerance="10"
     gridtolerance="10"
     guidetolerance="10"
     inkscape:pageopacity="0"
     inkscape:pageshadow="2"
     inkscape:window-width="1440"
     inkscape:window-height="846"
     id="namedview8"
     showgrid="false"
     inkscape:zoom="2.815"
     inkscape:cx="85.350957"
     inkscape:cy="85.152744"
     inkscape:window-x="0"
     inkscape:window-y="28"
     inkscape:window-maximized="1"
     inkscape:current-layer="svg6" />
  <g
     fill="black"
     id="g4">
    <path
       id="path2"
       d="m 103.1,157.3 c -3.294044,2.42779 -10.149665,6.45198 -8.614817,7.86854 4.180934,4.93321 24.168297,3.88877 36.438837,3.19462 L 131.1,182.90002 C 117.81627,182.61099 91.305195,186.4864 81.818539,172.7067 73.783536,161.03558 88.273947,150.71838 95.2,145.70002 c 2.633333,3.86667 5.26667,7.73333 7.9,11.6 z M 129,28.7 c -4.74024,3.349624 -9.55285,7.262638 -11.90729,12.718223 9.46932,2.852712 20.10748,6.848201 25.43846,15.154908 9.89748,15.422213 0.94799,34.362308 -11.02153,43.135508 -7.10015,5.204141 -19.35577,9.792941 -29.6497,8.090891 -3.153237,0.17825 -5.633377,3.08754 -8.555828,4.29841 -7.636198,3.97029 -15.515091,7.46767 -23.594472,10.43527 31.51776,-4.20764 60.18028,-20.08884 89.9667,-18.10802 12.70995,0.69523 22.23302,8.7239 12.53639,20.13514 C 159.34759,136.78471 144.26093,142.7053 129.5,149 c -1.76667,-4.3 -3.53333,-8.6 -5.3,-12.9 11.78284,-5.15382 35.17325,-14.28537 34.32857,-17.69643 -1.29218,-4.57752 -37.0075,5.98167 -54.59016,11.00501 -23.527647,7.64233 -52.584093,7.60295 -77.02973,1.18846 0.569651,-2.7629 2.932637,-10.27213 4.084737,-13.92671 3.246758,1.17859 7.999053,3.07915 11.603476,2.59918 9.688389,-1.29011 22.107084,-7.08706 29.377018,-12.18944 -9.540069,2.778 -21.432367,1.88327 -27.243058,-7.423396 -7.285705,-12.907423 0.649452,-26.940248 16.567784,-34.840382 0.821775,-7.884723 3.931844,-14.810133 9.78501,-18.728039 5.216508,-3.49175 13.057328,-4.334945 18.754934,-1.700262 9.037541,4.179132 10.330809,11.734591 11.459599,16.610155 15.80415,3.780955 21.75732,20.025962 13.95588,31.033905 11.54256,-2.698405 19.8512,-18.069877 16.78121,-25.764541 C 127.30878,55.809108 111.35955,54.194098 100.7,52 100.7718,46.889563 103.32446,38.794638 104.19949,35.337968 93.899998,37.807359 77.081006,41.902236 67.1,44.5 59.489878,45.96762 50.288325,42.589508 46.479062,35.256414 45.024491,32.901512 44.145818,30.252122 43.4,27.6 L 57,24.2 c 0.500665,3.571724 3.22408,7.677796 7.343282,6.428473 C 83.012903,26.153821 101.66927,21.606408 120.4,17.4 c 3.4616,3.106465 6.07588,7.716378 8.6,11.3 z M 58.8,94.8 c 3.986588,2.18142 7.828615,1.055193 11.333999,-0.635444 -2.73413,-3.86138 -5.556477,-6.95966 -8.234198,-15.274349 C 54.367584,81.421507 54.060205,92.206433 58.8,94.8 Z m 34.174596,-2.641986 c 3.098127,1.098706 7.527774,-0.593162 9.145014,-3.417033 2.24975,-3.928307 4.15584,-8.908726 -2.337737,-13.378033 -1.495044,5.858238 -4.068477,11.533874 -6.807277,16.795066 z M 74.759848,74.068592 c 0.605846,3.298732 3.054461,8.115906 5.909788,11.257404 2.89859,-3.427236 5.176873,-9.846861 5.801859,-12.790104 -4.593263,-0.366709 -7.236168,-0.244349 -11.711647,1.5327 z M 80.6,56.7 c -1.795724,0.626043 -2.982358,2.585359 -3.333228,3.488641 2.095332,-0.544644 6.97358,-0.962529 8.860341,-0.837942 C 85.222691,57.386455 82.676206,56.098973 80.6,56.7 Z"
       sodipodi:nodetypes="scccscssccsscccccccccccscccasccccccccccccsccscacccccccccc" />
  </g>
</svg>
