<?xml version="1.0" encoding="UTF-8" standalone="no"?>
<svg
   xmlns:dc="http://purl.org/dc/elements/1.1/"
   xmlns:cc="http://creativecommons.org/ns#"
   xmlns:rdf="http://www.w3.org/1999/02/22-rdf-syntax-ns#"
   xmlns:svg="http://www.w3.org/2000/svg"
   xmlns="http://www.w3.org/2000/svg"
   xmlns:sodipodi="http://sodipodi.sourceforge.net/DTD/sodipodi-0.dtd"
   xmlns:inkscape="http://www.inkscape.org/namespaces/inkscape"
   inkscape:version="1.0 (4035a4fb49, 2020-05-01)"
   sodipodi:docname="u1b0ac.svg"
   id="svg6"
   height="200"
   width="200"
   viewBox="0 0 200 200"
   version="1.1">
  <metadata
     id="metadata12">
    <rdf:RDF>
      <cc:Work
         rdf:about="">
        <dc:format>image/svg+xml</dc:format>
        <dc:type
           rdf:resource="http://purl.org/dc/dcmitype/StillImage" />
      </cc:Work>
    </rdf:RDF>
  </metadata>
  <defs
     id="defs10" />
  <sodipodi:namedview
     inkscape:current-layer="g4"
     inkscape:window-maximized="1"
     inkscape:window-y="28"
     inkscape:window-x="0"
     inkscape:cy="110.07106"
     inkscape:cx="96.916613"
     inkscape:zoom="2.815"
     showgrid="false"
     id="namedview8"
     inkscape:window-height="846"
     inkscape:window-width="1440"
     inkscape:pageshadow="2"
     inkscape:pageopacity="0"
     guidetolerance="10"
     gridtolerance="10"
     objecttolerance="10"
     borderopacity="1"
     bordercolor="#666666"
     pagecolor="#ffffff" />
  <g
     id="g4"
     fill="black">
    <path
       sodipodi:nodetypes="sccccccccccccccccccsccccccccccccccccccccccccccccccccccccccccccccccc"
       d="m 41.3,134.5 c -2.543095,3.07984 -5.12794,7.30129 -2.942392,11.23489 2.137623,3.9198 6.260792,5.64287 9.842392,7.96511 6.405052,2.1346 12.726131,4.61071 19.50745,5.21508 10.855055,2.26637 21.975786,2.0374 32.99255,2.78492 14.68719,-0.62847 29.41258,-0.69973 44.01479,-2.5674 7.12841,-0.71087 14.25681,-1.42173 21.38521,-2.1326 0.56667,4.63333 1.13333,9.26667 1.7,13.9 -16.76473,1.48032 -33.46046,3.97104 -50.31141,4.1889 -9.71164,0.43566 -19.423012,0.82887 -29.126651,0.0117 -7.336616,-0.22881 -14.651891,-0.65622 -21.847404,-2.19816 -5.884683,-0.81225 -11.695393,-1.92104 -17.225006,-4.15662 -4.426582,-1.25574 -8.653958,-2.9319 -12.35519,-5.7185 -2.969437,-1.75386 -5.985638,-3.45684 -7.675736,-6.60259 -2.028514,-2.72991 -4.587293,-5.22024 -4.626486,-8.84894 -0.689042,-3.23395 -1.802912,-6.47948 -0.262399,-9.65262 0.668892,-3.40069 1.714072,-6.62523 4.122198,-9.21177 1.467231,-2.14101 2.828286,-5.37876 4.85178,-1.77381 L 41.3,134.50002 Z M 150.93181,30.944728 c 3.5965,4.573762 1.79674,26.679021 1.74418,30.159612 1.67527,0.611568 6.24233,0.222808 5.5812,2.405039 -1.57212,5.974636 -3.83687,11.792203 -5.75719,17.613129 v 20.857082 c 5.47368,2.80692 11.42621,4.47469 17.3,6.22041 -1.23333,4.5 -2.46667,9 -3.7,13.5 -4.69862,-1.39894 -9.43247,-2.69493 -13.94791,-4.62919 C 150.68096,134.33394 147.55847,141.06729 138.9,148.9 126.6726,140.18672 113.58365,131.89903 104.82067,119.40687 92.753898,105.02564 100.961,85.571037 111.62188,78.995532 119.68313,72.168246 128.53683,65.92954 138.63387,62.5447 c 0.54449,-7.61248 0.46816,-13.982637 0.1286,-21.63407 -0.30591,-4.419255 -3.44848,-1.604022 -5.09578,-0.551062 -5.79151,5.037939 -10.72402,10.866386 -16.32627,16.283385 -8.24902,8.532833 -16.36636,17.197305 -24.12085,26.184087 3.608509,5.67017 8.48726,31.29261 -9.00115,49.95423 -5.570589,4.52771 -13.362264,8.43928 -20.46477,5.13657 -5.353792,-2.04055 -13.015141,-9.75348 -9.871485,-21.14077 3.018032,-10.15027 9.496676,-18.767989 15.662299,-27.215298 -8.235131,2.35572 -15.342099,7.750614 -21.01359,14.001608 C 45.805514,107.96628 43.112361,112.38907 40.4,116.8 36.433333,114.33333 32.466667,111.86667 28.5,109.4 41.344104,88.444211 54.317384,67.569408 67.438509,46.785358 59.160978,49.443331 49.70647,49.439731 41.996559,45.075335 38.502059,43.005797 35.616055,40.089902 33,37 l 11.2,-8.4 c 3.542532,4.99948 10.037742,7.189089 15.921364,5.638732 C 68.117777,32.612764 75.36104,28.570702 82.1,24.1 l 11.7,7.7 C 84.110144,46.45446 74.731143,61.309152 65.474843,76.240252 70.510094,74.544488 75.979277,74.343267 81.184299,75.339098 93.536101,60.709282 107.23169,47.121913 120.3,33.4 c 19.90964,-18.930063 28.2192,-6.071183 30.63181,-2.455272 z m -38.4796,73.041502 c 2.4257,7.90369 8.80991,13.75509 14.90026,19.03066 2.7884,2.37587 5.65157,4.65564 8.65494,6.75519 2.24794,-6.47155 2.16823,-13.45499 2.40056,-20.23082 -2.99485,-2.6624 -5.40238,-5.80076 -6.7554,-9.606971 -0.84666,-3.656177 -0.838,-7.563531 0.63421,-11.100189 1.07339,-4.107917 4.85896,-6.780914 6.21322,-10.705529 -13.18531,1.186355 -27.2411,19.103801 -26.04779,25.857659 z m -45.976579,17.46828 c -0.498607,2.20624 3.513946,4.59819 6.247275,3.37701 5.180988,-3.10757 9.346408,-8.85504 10.328255,-15.16291 0.997431,-4.62018 0.526604,-10.440455 -0.115122,-15.09981 -5.232957,4.773313 -15.371636,18.8041 -16.460408,26.88571 z"
       id="path2" />
  </g>
</svg>
