<?xml version="1.0" encoding="UTF-8" standalone="no"?>
<svg
   xmlns:dc="http://purl.org/dc/elements/1.1/"
   xmlns:cc="http://creativecommons.org/ns#"
   xmlns:rdf="http://www.w3.org/1999/02/22-rdf-syntax-ns#"
   xmlns:svg="http://www.w3.org/2000/svg"
   xmlns="http://www.w3.org/2000/svg"
   xmlns:sodipodi="http://sodipodi.sourceforge.net/DTD/sodipodi-0.dtd"
   xmlns:inkscape="http://www.inkscape.org/namespaces/inkscape"
   inkscape:version="1.0 (4035a4fb49, 2020-05-01)"
   sodipodi:docname="u1b0f5.svg"
   id="svg6"
   height="200"
   width="200"
   viewBox="0 0 200 200"
   version="1.1">
  <metadata
     id="metadata12">
    <rdf:RDF>
      <cc:Work
         rdf:about="">
        <dc:format>image/svg+xml</dc:format>
        <dc:type
           rdf:resource="http://purl.org/dc/dcmitype/StillImage" />
      </cc:Work>
    </rdf:RDF>
  </metadata>
  <defs
     id="defs10" />
  <sodipodi:namedview
     inkscape:current-layer="svg6"
     inkscape:window-maximized="1"
     inkscape:window-y="28"
     inkscape:window-x="0"
     inkscape:cy="132.8212"
     inkscape:cx="144.73932"
     inkscape:zoom="2.815"
     showgrid="false"
     id="namedview8"
     inkscape:window-height="846"
     inkscape:window-width="1440"
     inkscape:pageshadow="2"
     inkscape:pageopacity="0"
     guidetolerance="10"
     gridtolerance="10"
     objecttolerance="10"
     borderopacity="1"
     bordercolor="#666666"
     pagecolor="#ffffff" />
  <g
     id="g4"
     fill="black">
    <path
       sodipodi:nodetypes="ssaccccccccccccsccacccccsccsccccccccccccccccccccccccccc"
       d="m 149.7,21.5 c 25.79743,3.735666 30.27524,21.124249 25.54956,42.923539 -2.15803,9.954879 -10.05233,18.401052 -18.14318,24.589339 -5.44472,4.164393 -13.48565,6.542962 -19.16688,7.450822 0.17418,1.30121 -0.13416,3.201598 0.0605,5.42623 1.3292,0.20826 2.47411,0.25711 4.35382,0.70962 L 141.7,115.9 c -1.65825,1.62533 -2.00858,5.03289 -3.44547,7.2284 -0.59639,7.22528 -0.083,15.65305 -0.25453,22.97351 -1.17227,2.70385 -4.40962,10.34934 -6.40491,13.00755 -7.50424,-2.59528 -10.34358,-5.45904 -14.76453,-7.64961 -6.13754,7.70756 -12.56115,10.55849 -10.30686,13.06716 10.06831,7.69558 49.57632,1.74892 64.7763,0.47299 0.43333,4.63333 0.86667,9.26667 1.3,13.9 -19.03449,1.64349 -38.23158,3.21468 -57.31247,1.54631 -8.4956,-0.69815 -23.033364,-5.75656 -22.96233,-14.87631 0.08943,-11.48112 11.83729,-14.70918 12.91546,-20.01912 C 95.884659,137.51226 89.747309,125.26916 90,113 c 1.91546,-1.79926 6.496502,-3.52621 9.966926,-4.75228 7.908134,-2.79387 16.251334,-5.02133 24.474034,-5.84121 0.28928,-3.437998 -1.98205,-4.081645 -4.44198,-5.437634 -3.12825,-2.523227 -4.38696,-6.812302 -3.259,-10.654487 C 118.83838,79.889747 124.64294,75.547083 129.7,71.4 c 2.78205,3.633036 5.56411,7.266073 8.34616,10.899109 C 161.0255,80.201304 171.7495,43.157649 151.42722,36.265711 132.63807,29.893704 111.62487,44.412906 96.8,59.9 L 86.4,50.5 c 12.303776,-11.454162 32.682,-33.433721 63.3,-29 z M 67.7,41 c 0.250067,12.835746 -0.167499,24.35744 -0.356977,35.797044 2.028069,-0.420255 3.313894,-0.0531 4.840827,-0.09108 -0.330357,6.201757 -3.932683,19.266193 -5.097407,25.588936 -0.06233,3.48053 -0.10616,6.9612 -0.08644,10.44235 4.412964,-6.89197 8.349444,-14.073925 12.3,-21.237246 l 12.3,6.7 C 79.513496,120.01445 66.416379,141.8215 48.172048,159.10027 c -2.869564,2.7577 -6.001482,5.20181 -9.172045,7.59973 -2.59616,-3.85183 -5.738511,-7.81844 -8,-11.6 5.131223,-11.20723 10.04174,-22.52157 14.441227,-34.03774 C 36.486989,116.04693 29.268566,108.47425 21.655174,101.82017 24.938487,88.253 42.691874,81.116389 53.367133,78.555232 53.552652,68.502759 53.653537,58.449321 53.779429,48.39597 45.489166,51.10859 36.676391,51.828415 28,52 V 38 c 10.554054,-0.248446 22.058706,-1.074877 30.7,-7.8 z m 52.16676,75.45018 c -5.19655,0.8491 -9.85109,2.70878 -14.69649,4.80387 1.82512,5.37021 5.11689,10.30038 9.53757,13.84422 3.47626,-4.75337 7.03371,-9.71835 9.29216,-15.10977 0.014,-2.87415 -0.86561,-4.33228 -4.13324,-3.53832 z M 53.158778,93.021255 c -4.574476,1.41902 -9.708925,3.309156 -13.507524,6.301308 3.360791,3.019147 6.90388,5.836197 10.666841,8.339877 1.799662,-5.13933 3.043599,-10.703064 2.840683,-14.641185 z"
       id="path2" />
  </g>
</svg>
