<?xml version="1.0" encoding="UTF-8" standalone="no"?>
<svg
   xmlns:dc="http://purl.org/dc/elements/1.1/"
   xmlns:cc="http://creativecommons.org/ns#"
   xmlns:rdf="http://www.w3.org/1999/02/22-rdf-syntax-ns#"
   xmlns:svg="http://www.w3.org/2000/svg"
   xmlns="http://www.w3.org/2000/svg"
   xmlns:sodipodi="http://sodipodi.sourceforge.net/DTD/sodipodi-0.dtd"
   xmlns:inkscape="http://www.inkscape.org/namespaces/inkscape"
   inkscape:version="1.0 (4035a4fb49, 2020-05-01)"
   sodipodi:docname="u1b062.svg"
   id="svg6"
   height="200"
   width="200"
   viewBox="0 0 200 200"
   version="1.1">
  <metadata
     id="metadata12">
    <rdf:RDF>
      <cc:Work
         rdf:about="">
        <dc:format>image/svg+xml</dc:format>
        <dc:type
           rdf:resource="http://purl.org/dc/dcmitype/StillImage" />
      </cc:Work>
    </rdf:RDF>
  </metadata>
  <defs
     id="defs10" />
  <sodipodi:namedview
     inkscape:current-layer="svg6"
     inkscape:window-maximized="1"
     inkscape:window-y="28"
     inkscape:window-x="0"
     inkscape:cy="103.29039"
     inkscape:cx="105.91608"
     inkscape:zoom="2.815"
     showgrid="false"
     id="namedview8"
     inkscape:window-height="846"
     inkscape:window-width="1440"
     inkscape:pageshadow="2"
     inkscape:pageopacity="0"
     guidetolerance="10"
     gridtolerance="10"
     objecttolerance="10"
     borderopacity="1"
     bordercolor="#666666"
     pagecolor="#ffffff" />
  <g
     id="g4"
     fill="black">
    <path
       sodipodi:nodetypes="sscccccccccccccccsccccc"
       d="m 117.82206,26.038742 c 1.86417,3.535732 1.26163,7.577854 -0.45139,10.599286 -4.87052,8.590667 -21.728977,19.953806 -20.463926,23.111182 6.466146,17.347574 13.311106,32.049601 14.713686,49.61438 17.06365,-0.24339 32.2566,3.21341 47.47957,6.93641 -1.43333,4.43333 -2.86667,8.86667 -4.3,13.3 -14.66435,-3.68642 -28.11044,-6.30801 -42.14045,-6.25615 0.63053,17.37493 0.39172,34.9447 -3.06274,52.03531 -0.6656,2.60695 -1.33121,5.21389 -1.99681,7.82084 -4.43333,-1.5 -8.866667,-3 -13.3,-4.5 C 80.072136,165.61467 62.146835,154.21638 48,144.8 c -10.871403,-7.37687 -8.571041,-19.62226 5.848886,-25.3222 14.273232,-5.79286 29.959963,-8.248 44.199586,-9.73463 C 97.740274,86.149873 77.14289,63.281314 84.827363,52.909724 89.88665,44.642611 100.68509,39.256655 105.24,32.76 c 1.38506,-1.675638 -7.262854,-2.864606 -9.382754,-3.048715 0.333333,-4.666667 0.66667,-9.333333 1,-14 9.538084,0.681271 17.838904,4.398596 20.964814,10.327457 z M 60.825354,130.88555 c -2.458634,0.75515 -4.317184,2.65094 -1.616084,4.70763 13.377924,9.26069 25.514839,16.9927 38.318241,27.04394 1.530587,-12.924 1.616802,-25.98054 1.210719,-38.97852 -11.023084,-0.2117 -25.586461,2.82957 -37.912876,7.22695 z"
       id="path2" />
  </g>
</svg>
