<?xml version="1.0" encoding="UTF-8" standalone="no"?>
<svg
   xmlns:dc="http://purl.org/dc/elements/1.1/"
   xmlns:cc="http://creativecommons.org/ns#"
   xmlns:rdf="http://www.w3.org/1999/02/22-rdf-syntax-ns#"
   xmlns:svg="http://www.w3.org/2000/svg"
   xmlns="http://www.w3.org/2000/svg"
   xmlns:sodipodi="http://sodipodi.sourceforge.net/DTD/sodipodi-0.dtd"
   xmlns:inkscape="http://www.inkscape.org/namespaces/inkscape"
   inkscape:version="1.0 (4035a4fb49, 2020-05-01)"
   sodipodi:docname="u1b0ff.svg"
   id="svg6"
   height="200"
   width="200"
   viewBox="0 0 200 200"
   version="1.1">
  <metadata
     id="metadata12">
    <rdf:RDF>
      <cc:Work
         rdf:about="">
        <dc:format>image/svg+xml</dc:format>
        <dc:type
           rdf:resource="http://purl.org/dc/dcmitype/StillImage" />
      </cc:Work>
    </rdf:RDF>
  </metadata>
  <defs
     id="defs10" />
  <sodipodi:namedview
     inkscape:current-layer="svg6"
     inkscape:window-maximized="1"
     inkscape:window-y="28"
     inkscape:window-x="0"
     inkscape:cy="111.58407"
     inkscape:cx="153.16201"
     inkscape:zoom="1.4075"
     showgrid="false"
     id="namedview8"
     inkscape:window-height="846"
     inkscape:window-width="1440"
     inkscape:pageshadow="2"
     inkscape:pageopacity="0"
     guidetolerance="10"
     gridtolerance="10"
     objecttolerance="10"
     borderopacity="1"
     bordercolor="#666666"
     pagecolor="#ffffff" />
  <g
     id="g4"
     fill="black">
    <path
       sodipodi:nodetypes="cscccscccccccccccccccsccccccccsccccccccccc"
       d="m 155.18893,74.754328 c -0.97169,28.289662 -12.70341,54.603302 -10.31328,83.791992 0.16708,2.04038 -0.24633,7.4291 2.82435,5.45368 8.82774,-5.95019 15.32201,-14.53722 22.1,-22.6 3.66667,2.9 7.33333,5.8 11,8.7 -9.89603,9.6265 -17.90144,23.02674 -30.94072,27.6238 -19.44999,6.85718 -19.3061,-23.8157 -18.56503,-34.27889 2.22268,-23.48005 7.94499,-44.433834 9.86994,-66.207451 0.45495,-5.292712 1.23579,-29.052055 -6.92603,-24.420969 -12.37323,5.576423 -22.72854,16.598621 -30.99347,25.51124 -12.034579,12.703289 -24.382323,25.52913 -36.177334,38.63499 -0.870383,18.49085 -1.231905,38.68744 -1.127928,57.19754 -4.716228,1.21062 -8.589756,2.76607 -12.270975,4.83307 -4.370274,-7.75011 -11.532759,-16.22168 -17.863691,-22.38857 -1.375166,2.79916 -1.520656,3.07376 -2.297659,4.68211 C 30.31756,159.92699 23.689543,156.55988 20.5,155.2 c 8.809865,-16.04757 22.96307,-39.45067 10.141797,-54.61898 3.72022,-3.070351 7.180171,-5.874436 10.635548,-8.783638 5.833419,6.81289 8.719844,14.519738 9.171784,22.808308 1.473876,-1.53525 2.196801,-2.42851 2.923495,-3.5001 0.599062,-9.29914 1.346083,-22.177784 2.951247,-31.367526 -9.871519,4.277712 -14.310307,11.130282 -24.213937,7.44402 C 26.197745,84.981489 19.995666,78.310619 21.870066,71.266226 22.763653,67.045418 25.257414,63.363813 28,60.1 l 10.6,9.2 c -0.766059,1.198645 -4.654119,4.951566 -1.275877,4.518882 C 47.130042,68.741515 56.882357,63.556239 66.8,58.7 c 2.220875,3.899231 4.103426,7.769964 6.4,11.9 -1.644819,7.506242 -4.734696,18.002497 -4.445994,23.586189 C 81.048212,81.559883 93.783595,67.704901 104.63171,56.916859 116.91587,45.600038 125.34728,37.019197 138.1,38.1 c 15.9158,1.348876 17.90606,22.903653 17.08893,36.654328 z M 38.668146,151.69634 C 40.612097,149.6309 42.556049,147.56545 44.5,145.5 c 2.506256,2.52825 5.062122,5.00778 7.521753,7.58182 0.138167,-6.42743 0.174812,-12.85744 0.399985,-19.28266 -5.291104,5.31773 -9.847111,12.10249 -13.753592,17.89718 z M 78.3,32.1 75.6,45.8 C 63.681127,43.555734 50.472088,36.344718 44.934171,24.941634 49.249273,23.000138 53.144266,21.099241 57.411751,19.112538 62.297859,26.575599 70.908754,30.477322 78.3,32.1 Z"
       id="path2" />
  </g>
</svg>
