<?xml version="1.0" encoding="UTF-8" standalone="no"?>
<svg
   xmlns:dc="http://purl.org/dc/elements/1.1/"
   xmlns:cc="http://creativecommons.org/ns#"
   xmlns:rdf="http://www.w3.org/1999/02/22-rdf-syntax-ns#"
   xmlns:svg="http://www.w3.org/2000/svg"
   xmlns="http://www.w3.org/2000/svg"
   xmlns:sodipodi="http://sodipodi.sourceforge.net/DTD/sodipodi-0.dtd"
   xmlns:inkscape="http://www.inkscape.org/namespaces/inkscape"
   inkscape:version="1.0 (4035a4fb49, 2020-05-01)"
   sodipodi:docname="u1b11f.svg"
   id="svg6"
   height="200"
   width="200"
   viewBox="0 0 200 200"
   version="1.1">
  <metadata
     id="metadata12">
    <rdf:RDF>
      <cc:Work
         rdf:about="">
        <dc:format>image/svg+xml</dc:format>
        <dc:type
           rdf:resource="http://purl.org/dc/dcmitype/StillImage" />
      </cc:Work>
    </rdf:RDF>
  </metadata>
  <defs
     id="defs10" />
  <sodipodi:namedview
     inkscape:current-layer="svg6"
     inkscape:window-maximized="1"
     inkscape:window-y="28"
     inkscape:window-x="0"
     inkscape:cy="95.949465"
     inkscape:cx="170.83619"
     inkscape:zoom="2.815"
     showgrid="false"
     id="namedview8"
     inkscape:window-height="846"
     inkscape:window-width="1440"
     inkscape:pageshadow="2"
     inkscape:pageopacity="0"
     guidetolerance="10"
     gridtolerance="10"
     objecttolerance="10"
     borderopacity="1"
     bordercolor="#666666"
     pagecolor="#ffffff" />
  <g
     id="g4"
     fill="black">
    <path
       sodipodi:nodetypes="ccccccccccccccccccccccccccccccccccccccccc"
       d="M 121.237,28.572077 C 135.00499,29.668522 149.27157,29.470169 162.4,24.5 l 5.1,12.9 c -10.49954,4.248658 -21.94466,5.606289 -33.2,5.7 2.37519,3.53408 4.01635,7.303724 4.8,11.2 2.00871,9.408666 2.17608,19.072603 2.35967,28.654557 C 151.71487,81.371385 161.58993,77.904748 171,73.6 c 1.96667,4.233333 3.93333,8.466667 5.9,12.7 -11.24576,5.19191 -23.14562,9.102702 -35.42979,10.851712 -0.31443,10.216498 0.1214,20.582178 -1.26518,30.550098 -1.20571,9.21743 -4.23679,18.32222 -9.37873,26.09052 -6.58641,10.42541 -16.43607,18.44188 -27.24496,24.18328 C 97.639876,181.12136 91.349622,183.43178 85,185.6 c -1.366667,-4.43333 -2.733333,-8.86667 -4.1,-13.3 13.030418,-4.32648 25.93016,-10.68025 34.86811,-21.40956 6.38912,-8.51614 11.52131,-21.96791 11.19601,-34.21926 0.41306,-5.98895 0.37906,-12.46282 0.49445,-18.666802 -15.08984,0.9049 -42.626911,1.53669 -52.574352,-8.133462 C 65.593782,79.808386 75.45894,70.803991 81.5,63.5 L 91,73.8 c -1.96139,2.403042 -6.489035,5.571783 -5.145353,7.25 4.548502,4.093332 28.882423,3.645203 41.617003,2.995704 -0.3333,-9.728285 -0.0294,-19.879677 -2.74993,-29.203725 C 121.79655,48.053514 116.03937,41.565833 108.54938,40.651734 98.385235,38.413306 88.658003,32.373115 84,22.8 l 12.7,-5.9 c 5.02933,8.392619 16.58523,10.79603 24.537,11.672077 z m -67.998987,1.631935 c 0.456879,5.165785 -0.724486,10.802805 -1.570564,14.147422 -4.835768,22.463587 -7.390984,43.174989 -6.935588,66.186846 0.176406,7.6552 0.886001,15.30037 2.1997,22.84334 C 52.784087,120.91834 59.780129,109.01455 67,97.3 c 3.966667,2.433333 7.933333,4.86667 11.9,7.3 -5.272945,11.09779 -27.473147,46.81068 -24.6,54.5 l -12.7,5.7 C 37.747661,155.7952 34.814213,145.96901 33.169523,136.06934 29.187758,113.13242 30.484774,89.650396 33.550427,66.679775 35.09419,55.910029 37.022593,46.490067 39.285124,35.84863 39.846031,32.733235 34.238048,29.919286 31,29 l 3.8,-13.5 c 8.695954,3.196405 17.512642,7.498925 18.438013,14.704012 z"
       id="path2" />
  </g>
</svg>
