<?xml version="1.0" encoding="UTF-8" standalone="no"?>
<svg
   xmlns:dc="http://purl.org/dc/elements/1.1/"
   xmlns:cc="http://creativecommons.org/ns#"
   xmlns:rdf="http://www.w3.org/1999/02/22-rdf-syntax-ns#"
   xmlns:svg="http://www.w3.org/2000/svg"
   xmlns="http://www.w3.org/2000/svg"
   xmlns:sodipodi="http://sodipodi.sourceforge.net/DTD/sodipodi-0.dtd"
   xmlns:inkscape="http://www.inkscape.org/namespaces/inkscape"
   inkscape:version="1.0 (4035a4fb49, 2020-05-01)"
   sodipodi:docname="u1b121.svg"
   id="svg6"
   height="200"
   width="200"
   viewBox="0 0 200 200"
   version="1.1">
  <metadata
     id="metadata12">
    <rdf:RDF>
      <cc:Work
         rdf:about="">
        <dc:format>image/svg+xml</dc:format>
        <dc:type
           rdf:resource="http://purl.org/dc/dcmitype/StillImage" />
      </cc:Work>
    </rdf:RDF>
  </metadata>
  <defs
     id="defs10" />
  <sodipodi:namedview
     inkscape:current-layer="svg6"
     inkscape:window-maximized="1"
     inkscape:window-y="28"
     inkscape:window-x="0"
     inkscape:cy="100"
     inkscape:cx="100"
     inkscape:zoom="2.815"
     showgrid="false"
     id="namedview8"
     inkscape:window-height="846"
     inkscape:window-width="1440"
     inkscape:pageshadow="2"
     inkscape:pageopacity="0"
     guidetolerance="10"
     gridtolerance="10"
     objecttolerance="10"
     borderopacity="1"
     bordercolor="#666666"
     pagecolor="#ffffff" />
  <g
     id="g4"
     fill="black">
    <path
       sodipodi:nodetypes="ccccccccccccccccc"
       d="m 148.6,32.2 c -4.02701,6.745012 -8.3475,13.284375 -13.4159,19.299632 C 129.00496,59.023756 122.15128,65.966328 115,72.570093 V 155 h 62 v 14 H 24 v -14 h 77 V 84.314063 C 88.701939,93.686773 75.763608,102.19649 62.193887,109.61539 51.902075,115.14186 41.281573,120.00779 30.5,124.5 28.8,120.13333 27.1,115.76667 25.4,111.4 39.402573,105.6685 53.084481,99.13812 66.049361,91.318749 82.867192,81.123213 98.742498,69.277541 112.71922,55.406741 121.63732,46.56626 129.61471,36.760823 136.04488,25.956348 140.48038,26.898593 144.80954,30.08728 148.6,32.2 Z"
       id="path2" />
  </g>
</svg>
