<?xml version="1.0" encoding="UTF-8" standalone="no"?>
<svg
   xmlns:dc="http://purl.org/dc/elements/1.1/"
   xmlns:cc="http://creativecommons.org/ns#"
   xmlns:rdf="http://www.w3.org/1999/02/22-rdf-syntax-ns#"
   xmlns:svg="http://www.w3.org/2000/svg"
   xmlns="http://www.w3.org/2000/svg"
   xmlns:sodipodi="http://sodipodi.sourceforge.net/DTD/sodipodi-0.dtd"
   xmlns:inkscape="http://www.inkscape.org/namespaces/inkscape"
   inkscape:version="1.0 (4035a4fb49, 2020-05-01)"
   sodipodi:docname="u1b023.svg"
   id="svg6"
   height="200"
   width="200"
   viewBox="0 0 200 200"
   version="1.1">
  <metadata
     id="metadata12">
    <rdf:RDF>
      <cc:Work
         rdf:about="">
        <dc:format>image/svg+xml</dc:format>
        <dc:type
           rdf:resource="http://purl.org/dc/dcmitype/StillImage" />
      </cc:Work>
    </rdf:RDF>
  </metadata>
  <defs
     id="defs10" />
  <sodipodi:namedview
     inkscape:current-layer="svg6"
     inkscape:window-maximized="1"
     inkscape:window-y="28"
     inkscape:window-x="0"
     inkscape:cy="130.65711"
     inkscape:cx="121.17682"
     inkscape:zoom="1.9905056"
     showgrid="false"
     id="namedview8"
     inkscape:window-height="846"
     inkscape:window-width="1440"
     inkscape:pageshadow="2"
     inkscape:pageopacity="0"
     guidetolerance="10"
     gridtolerance="10"
     objecttolerance="10"
     borderopacity="1"
     bordercolor="#666666"
     pagecolor="#ffffff" />
  <g
     id="g4"
     fill="black">
    <path
       sodipodi:nodetypes="sccccssccscsssccccssscccssccsssccccsccscssccsccccssccssscssssccss"
       d="m 106.33086,35.289151 c -0.5173,4.183336 -0.91192,8.529246 -1.23149,12.723367 C 119.56136,45.148045 133.68573,40.78803 147.4,35.4 l 5.1,13.1 c -15.47403,5.863636 -31.31864,10.973931 -47.65828,13.754346 0.33886,4.665067 0.008,10.749586 3.95095,13.686107 5.69487,4.24104 13.61516,2.060128 20.30733,1.559547 3.62132,-0.270879 7.22154,-1.005154 10.8,-1.5 l 2.1,13.9 c -12.52179,2.043036 -24.0067,7.922901 -35.46647,13.10352 -7.173706,3.24302 -14.171992,6.86635 -21.173036,10.46706 2.608032,2.58286 4.542098,6.22793 4.769153,9.78622 0.21858,3.42549 -0.535947,6.6318 -2.564609,9.59556 -3.834609,5.60215 -9.976257,9.0971 -15.904091,12.07563 -4.273573,2.14732 -8.747531,3.79842 -13.229333,5.44062 -0.186198,5.36461 -0.66039,10.7317 -0.107367,16.0899 11.541182,-10.63655 24.260201,-19.98453 37.833942,-27.86493 4.991511,-3.37465 10.673381,-6.54154 16.016321,-9.68898 0.9059,-9.13896 1.66029,-19.46742 8.31634,-26.2827 2.40752,-2.46511 5.4724,-3.803907 9.06201,-4.164464 5.17353,-0.519653 9.97874,2.311974 14.28222,4.544564 5.45438,2.82966 12.1211,4.86134 17.86492,5.098 0.83333,4.56667 1.66667,9.13333 2.5,13.7 -13.5887,2.83796 -26.11617,9.14255 -38.33282,15.52934 0.0277,7.51797 -0.20156,14.86262 1.35212,22.27534 1.34077,6.3969 8.52265,7.78994 14.04474,8.1558 C 153.85826,168.5949 166.43169,166.58723 178.9,165 l 2.1,13.9 c -15.74935,2.03813 -31.90359,4.96602 -47.65567,1.95011 -5.07033,-0.97077 -9.99855,-3.14814 -13.63001,-6.83545 -2.95322,-2.99864 -4.84193,-6.72444 -5.95549,-10.83375 -1.59129,-5.87225 -1.71312,-11.92183 -1.84792,-17.88065 C 91.950035,156.86728 73.94602,169.82829 60.8,183.9 c -4.982325,1.20627 -9.755354,2.17185 -13.891346,3.15926 -2.1659,-10.071 -3.192498,-22.60999 -2.655442,-32.89598 -6.744457,1.42765 -14.544427,2.54731 -20.323372,-1.53597 -9.852104,-6.9613 -7.389355,-16.86054 -1.517201,-26.21428 4.998342,2.71036 8.555513,6.11005 11.79095,8.14901 -1.251707,1.85052 -4.68459,6.72499 -0.570803,6.57228 4.063275,-0.15083 8.063525,-0.75521 11.996939,-1.60515 1.322523,-9.23347 3.198744,-18.70641 7.814226,-26.81944 3.193502,-5.6135 10.12716,-12.849592 16.404356,-11.56708 2.928437,0.59832 3.730903,1.06786 5.777137,2.11419 C 83.789592,99.089372 96.248753,93.923653 103.41729,89.041265 100.3403,86.719661 97.4265,84.509795 95.408864,80.980164 92.646116,76.147042 91.051869,65.456594 91.023333,64.1 71.740806,64.218877 61.42879,62.608851 48.2,52.9 l 9.1,-10.6 c 10.752798,7.005438 22.900459,8.413978 33.765641,7.473401 0.113831,-4.462329 0.86717,-8.991855 1.199031,-14.332116 0.141777,-2.281454 0.490834,-3.563583 -1.133803,-4.914596 C 88.249695,28.130767 84.42479,27.053334 80.9,25.9 l 4,-13.4 c 7.778342,2.790422 16.2023,6.390045 20.00447,12.517022 2.20488,3.553022 1.8753,6.641944 1.42639,10.272129 z M 65.4,119.8 c -2.08235,4.74458 -3.748134,9.62786 -4.727363,14.72537 4.155085,-2.04033 8.880547,-3.6696 12.527775,-6.59054 2.582686,-2.06839 3.110998,-3.30848 1.515663,-5.15627 C 71.244393,118.75748 67.722004,114.50938 65.4,119.8 Z m 64.3373,-6.37858 c -1.21602,2.28457 -1.84999,4.86031 -2.39092,7.37434 3.56569,-1.71919 7.14311,-3.41317 10.76129,-5.01955 -1.85026,-0.85299 -3.71039,-1.69302 -5.489,-2.68653 -1.17233,-0.65486 -2.26914,-0.81849 -2.88137,0.33174 z"
       id="path2" />
  </g>
</svg>
