<?xml version="1.0" encoding="UTF-8" standalone="no"?>
<svg
   xmlns:dc="http://purl.org/dc/elements/1.1/"
   xmlns:cc="http://creativecommons.org/ns#"
   xmlns:rdf="http://www.w3.org/1999/02/22-rdf-syntax-ns#"
   xmlns:svg="http://www.w3.org/2000/svg"
   xmlns="http://www.w3.org/2000/svg"
   xmlns:sodipodi="http://sodipodi.sourceforge.net/DTD/sodipodi-0.dtd"
   xmlns:inkscape="http://www.inkscape.org/namespaces/inkscape"
   inkscape:version="1.0 (4035a4fb49, 2020-05-01)"
   sodipodi:docname="u1b025.svg"
   id="svg6"
   height="200"
   width="200"
   viewBox="0 0 200 200"
   version="1.1">
  <metadata
     id="metadata12">
    <rdf:RDF>
      <cc:Work
         rdf:about="">
        <dc:format>image/svg+xml</dc:format>
        <dc:type
           rdf:resource="http://purl.org/dc/dcmitype/StillImage" />
      </cc:Work>
    </rdf:RDF>
  </metadata>
  <defs
     id="defs10" />
  <sodipodi:namedview
     inkscape:current-layer="svg6"
     inkscape:window-maximized="1"
     inkscape:window-y="28"
     inkscape:window-x="0"
     inkscape:cy="84.146779"
     inkscape:cx="61.829891"
     inkscape:zoom="1.9905056"
     showgrid="false"
     id="namedview8"
     inkscape:window-height="846"
     inkscape:window-width="1440"
     inkscape:pageshadow="2"
     inkscape:pageopacity="0"
     guidetolerance="10"
     gridtolerance="10"
     objecttolerance="10"
     borderopacity="1"
     bordercolor="#666666"
     pagecolor="#ffffff" />
  <g
     id="g4"
     fill="black">
    <path
       sodipodi:nodetypes="sscsscccccccccsscccscccccccccccccccccssccsscssccsccccccscccccsccss"
       d="m 83.170611,19.088447 c 6.453003,1.514077 9.350022,4.652366 10.724921,7.952265 1.331135,3.194861 2.600981,6.41049 3.979819,9.583537 7.891019,-1.608897 16.239639,-3.525401 24.223899,-1.4654 11.11904,2.868799 10.09986,14.814813 4.38865,21.829865 -3.94149,4.841317 -8.54836,9.101185 -13.16795,13.275234 1.93974,4.091655 3.87949,8.183311 5.81924,12.274967 3.87713,-0.794596 7.78186,-1.447342 11.68016,-2.128458 -2.47342,-1.724905 -4.55334,-3.9382 -6.51935,-6.210457 3.53333,-3 7.06667,-6 10.6,-9 7.25008,8.275686 18.46307,11.416737 29,12.8 -0.74556,4.604186 -1.18398,9.237045 -1.3,13.9 -12.4586,-0.432191 -24.94837,1.315785 -37.18655,3.631932 0.83128,1.827247 1.65655,3.398415 2.55434,5.171228 6.58759,-1.759454 16.23625,-3.271824 21.93475,1.23286 3.42814,2.70996 4.97148,7.14923 4.52447,11.46769 -0.86425,8.34934 -5.2288,15.58211 -9.76298,20.5753 6.7454,13.09866 15.42453,28.55925 21.20019,42.08153 -3.77824,2.16277 -7.93793,4.01437 -12.03551,6.0285 -3.1066,-4.90216 -6.65626,-6.95472 -10.63279,-8.65819 -11.3919,-4.88006 -23.61984,-7.42116 -35.6999,-10.01966 C 94.341856,171.47694 80.755451,178.81448 67,185.8 l -6.3,-12.6 c 22.895253,-11.6941 47.19663,-24.68933 66.67766,-41.67975 -2.31173,-4.56868 -4.34941,-9.0047 -6.68302,-13.27811 C 99.973594,126.17087 81.555537,139.30346 65.9,154.9 c -4.323182,-1.69386 -9.248565,-2.31336 -13.8,-3.6 2.348271,-8.35598 0.0045,-17.58604 -5.8,-24 3.533333,-3.03333 7.066667,-6.06667 10.6,-9.1 4.412318,4.98422 7.598671,11.0114 9.092753,17.50351 14.206386,-12.46593 30.360747,-22.88117 47.975377,-29.82239 -1.23477,-2.63751 -2.20731,-4.75651 -3.22423,-6.16697 -22.089421,6.47655 -45.408855,12.80483 -66.742324,21.52514 -2.180921,0.15762 -5.211688,4.28812 -6.317815,1.16711 L 31.3,112 C 53.163985,97.439428 75.181789,82.620692 95.972189,66.400611 93.903622,62.041905 91.966658,57.622409 89.960976,53.234655 79.901373,56.248748 66.412763,63.006594 61.015868,65.847306 58.334511,67.258667 54.481595,67.779561 51.582755,67.237771 42.377134,65.517253 38.371316,54.949432 39.238763,45.655076 L 52.9,46.4 c -0.0874,1.888639 -0.202715,4.181001 0.748457,5.885158 0.811825,1.454497 1.514967,0.646605 2.582643,-0.0064 C 64.93164,46.95714 74.624608,43.288449 84.263356,40.314528 83.601564,39.11559 83.111934,37.713189 82.61954,36.351538 81.825343,34.155288 80.266786,32.600559 77.567127,31.920466 71.108162,30.293335 64.674369,28.565496 58.2,27 l 3.4,-13.6 c 10.115178,2.565637 12.808582,3.632601 21.570611,5.688447 z M 123.21152,152.61102 c 4.61383,1.36787 12.08666,3.00243 18.47181,5.25565 -2.39852,-4.66776 -4.87415,-9.29606 -7.31133,-13.94392 z m 10.21942,-39.35725 c 2.28552,3.76492 2.20908,4.42923 3.70563,6.86488 1.11228,-1.30025 2.35509,-3.46737 2.80154,-5.41445 0.70074,-3.05608 -4.51435,-1.53166 -6.50717,-1.45043 z M 84.213652,92.73129 c 6.445517,-1.955185 14.243584,-4.522226 20.713048,-6.396157 -1.20574,-2.878694 -1.57604,-3.999367 -2.91194,-6.531126 -6.087565,4.172829 -12.538764,9.056808 -17.801108,12.927283 z M 111.9,48.3 c -2.75986,0.290725 -5.50444,0.739116 -8.20513,1.395028 1.1298,2.471431 2.25959,4.942862 3.38939,7.414293 1.98737,-1.740175 3.94742,-3.531788 5.67537,-5.530294 C 114.77069,49.25307 115.91812,47.87673 111.9,48.3 Z"
       id="path2" />
  </g>
</svg>
