<?xml version="1.0" encoding="UTF-8" standalone="no"?>
<svg
   xmlns:dc="http://purl.org/dc/elements/1.1/"
   xmlns:cc="http://creativecommons.org/ns#"
   xmlns:rdf="http://www.w3.org/1999/02/22-rdf-syntax-ns#"
   xmlns:svg="http://www.w3.org/2000/svg"
   xmlns="http://www.w3.org/2000/svg"
   xmlns:sodipodi="http://sodipodi.sourceforge.net/DTD/sodipodi-0.dtd"
   xmlns:inkscape="http://www.inkscape.org/namespaces/inkscape"
   inkscape:version="1.0 (4035a4fb49, 2020-05-01)"
   sodipodi:docname="u1b020.svg"
   id="svg6"
   height="200"
   width="200"
   viewBox="0 0 200 200"
   version="1.1">
  <metadata
     id="metadata12">
    <rdf:RDF>
      <cc:Work
         rdf:about="">
        <dc:format>image/svg+xml</dc:format>
        <dc:type
           rdf:resource="http://purl.org/dc/dcmitype/StillImage" />
      </cc:Work>
    </rdf:RDF>
  </metadata>
  <defs
     id="defs10" />
  <sodipodi:namedview
     inkscape:current-layer="svg6"
     inkscape:window-maximized="1"
     inkscape:window-y="28"
     inkscape:window-x="0"
     inkscape:cy="65.784697"
     inkscape:cx="146.79242"
     inkscape:zoom="1.9905056"
     showgrid="false"
     id="namedview8"
     inkscape:window-height="846"
     inkscape:window-width="1440"
     inkscape:pageshadow="2"
     inkscape:pageopacity="0"
     guidetolerance="10"
     gridtolerance="10"
     objecttolerance="10"
     borderopacity="1"
     bordercolor="#666666"
     pagecolor="#ffffff" />
  <g
     id="g4"
     fill="black">
    <path
       sodipodi:nodetypes="cssscccccccscccsssssssscccccccsccsccccccccccccccaasscccssscs"
       d="m 103.3,10.4 c 11.10699,2.932842 22.95392,8.745652 27.43885,20.05982 2.05013,5.171871 0.65267,12.045024 -3.03764,15.173878 C 122.37928,50.145939 114.71318,48.76071 109,52.2 c -2.19453,1.321088 0.0356,7.395505 0.299,9.808895 1.92574,-0.301164 5.42399,-1.103901 7.88238,-1.712749 1.44178,5.695771 1.75641,7.996138 3.22384,12.871205 -3.85115,1.314583 -6.48432,1.831195 -9.12819,2.530856 1.10809,9.464169 1.49762,20.567977 0.30466,30.020513 24.15831,-1.32749 48.92836,0.32722 71.81831,8.68128 -1.63333,4.36667 -3.26667,8.73333 -4.9,13.1 -21.71954,-7.76922 -45.19572,-9.6907 -68.01322,-7.66708 -4.26139,0.37793 -9.18097,0.9208 -13.656651,1.64215 1.656623,2.64164 3.313251,5.28329 4.969871,7.92493 -2.70529,1.80113 -5.428058,3.57652 -8.122371,5.39382 11.669981,-2.88223 24.114421,-4.76117 36.193091,-2.38655 8.48296,1.66772 16.86211,6.43422 20.73086,14.39145 3.74763,7.70811 2.31598,18.68683 -1.62605,24.75022 -6.49632,9.99224 -18.83074,13.52777 -30.00376,15.82672 -14.37748,2.95829 -30.101104,1.49216 -35.127563,-12.0233 -1.006203,-2.70554 -0.933578,-6.52685 0.611649,-9.84936 2.272742,-4.8868 6.297836,-8.5118 10.95427,-10.70169 7.831524,-3.68312 17.074304,-4.00474 25.434334,-1.90666 6.36196,1.59663 12.67831,4.81345 17.45554,8.90535 1.63453,-5.0542 3e-4,-11.28189 -5.16002,-13.56584 -8.99364,-4.49194 -19.48767,-2.8627 -28.9011,-1.45282 C 89.781073,149.10895 75.951961,155.77029 65.6,166.2 c -8.646405,-0.27318 -10.484173,-0.82409 -13.586388,-0.79058 0.301926,-11.28222 8.384392,-21.4326 16.258551,-28.69756 5.362633,-4.89399 11.287309,-9.11096 17.205765,-13.29751 -15.60989,2.84961 -30.48039,9.63159 -42.48415,20.11226 C 37.790342,148.06981 32.803414,152.84192 28,157.8 c -3.365084,-3.23213 -6.741341,-6.47394 -10.1,-9.7 -0.351523,-4.96189 1.243926,-10.1368 3.970163,-14.43937 C 28.975623,122.44674 38.869167,113.39565 48.5,104.4 c 3.133333,3.46667 6.266667,6.93333 9.4,10.4 -1.504612,1.53077 -5.399444,4.75378 -5.543941,5.32917 C 65.229727,113.09612 79.75496,109.75298 94.195006,107.79059 89.791115,104.77003 84.892906,102.61134 80.1,100.3 l 5.7,-12.7 c 4.336225,1.884225 8.608804,3.934137 12.685311,6.334463 C 98.747967,88.812932 98.381797,83.690613 97.833406,78.600525 84.051268,81.39489 69.450171,83.366406 55.694536,79.530163 49.695996,77.513776 44.007228,74.021501 40.534215,68.611527 38.180413,66.109055 37.755085,62.549773 36.4,59.5 L 50,56.3 c 1.232936,6.558082 7.722324,10.044706 13.861268,10.748666 10.507707,1.562286 21.237715,-0.11276 31.569275,-2.211224 -1.442666,-6.183274 -1.968478,-13.179505 0.699002,-18.886829 1.458496,-3.120589 4.669405,-5.238441 7.677245,-6.917187 3.17967,-1.774652 6.93622,-2.499518 10.48427,-3.068802 3.02027,-0.484602 2.74406,-2.031917 1.18907,-3.856963 C 110.71247,26.512009 102.54054,24.689085 95.6,23 L 98.3,9.3 Z m 2.6,155.6 c -3.1673,0.65233 -8.72737,2.93657 -8.7,4.5 0.04396,2.51117 6.66943,4.71203 10.65659,4.32451 5.87811,-0.5713 13.16162,-1.70123 19.40508,-3.94925 C 121.16289,166.41895 113.28636,164.47872 105.9,166 Z"
       id="path2" />
  </g>
</svg>
