<?xml version="1.0" encoding="UTF-8" standalone="no"?>
<svg
   xmlns:dc="http://purl.org/dc/elements/1.1/"
   xmlns:cc="http://creativecommons.org/ns#"
   xmlns:rdf="http://www.w3.org/1999/02/22-rdf-syntax-ns#"
   xmlns:svg="http://www.w3.org/2000/svg"
   xmlns="http://www.w3.org/2000/svg"
   xmlns:sodipodi="http://sodipodi.sourceforge.net/DTD/sodipodi-0.dtd"
   xmlns:inkscape="http://www.inkscape.org/namespaces/inkscape"
   inkscape:version="1.0 (4035a4fb49, 2020-05-01)"
   sodipodi:docname="u1b027.svg"
   id="svg6"
   height="200"
   width="200"
   viewBox="0 0 200 200"
   version="1.1">
  <metadata
     id="metadata12">
    <rdf:RDF>
      <cc:Work
         rdf:about="">
        <dc:format>image/svg+xml</dc:format>
        <dc:type
           rdf:resource="http://purl.org/dc/dcmitype/StillImage" />
      </cc:Work>
    </rdf:RDF>
  </metadata>
  <defs
     id="defs10" />
  <sodipodi:namedview
     inkscape:current-layer="svg6"
     inkscape:window-maximized="1"
     inkscape:window-y="28"
     inkscape:window-x="0"
     inkscape:cy="64.900106"
     inkscape:cx="100.19571"
     inkscape:zoom="1.9905056"
     showgrid="false"
     id="namedview8"
     inkscape:window-height="846"
     inkscape:window-width="1440"
     inkscape:pageshadow="2"
     inkscape:pageopacity="0"
     guidetolerance="10"
     gridtolerance="10"
     objecttolerance="10"
     borderopacity="1"
     bordercolor="#666666"
     pagecolor="#ffffff" />
  <g
     id="g4"
     fill="black">
    <path
       sodipodi:nodetypes="ascccccssccsscsccccssccsscccssccscsaccacccc"
       d="m 105.10931,28.503051 c 2.74011,3.327075 3.69912,8.071222 3.72857,12.381302 0.0605,8.850798 -0.19614,14.098933 -0.005,21.147732 C 124.05181,58.903794 138.9538,54.459005 153.6,49.3 c 1.56667,4.433333 3.13333,8.866667 4.7,13.3 -16.10939,5.538678 -32.46796,10.406569 -49.19146,13.70944 0.44859,16.600192 1.21788,33.18971 1.60538,49.79167 7.51746,1.6957 14.91834,3.70415 22.03205,6.7374 9.10754,3.88341 17.73772,8.81667 26.06422,14.16726 5.87695,3.77651 11.12029,8.40492 16.68981,12.59423 -3.03333,3.56667 -6.06667,7.13333 -9.1,10.7 -7.10195,-5.79426 -14.3525,-11.381 -22.23396,-16.08668 -7.34947,-4.38806 -15.08128,-8.0788 -23.18012,-10.90409 -3.28399,-1.14562 -6.70366,-1.79917 -10.04545,-2.73106 0.0238,10.34822 0.22966,20.91796 -2.26777,30.97281 C 106.05465,182.09144 100.21307,183.50727 93.2,186.2 86.375548,172.25071 76.144019,159.93856 63.81579,150.57895 53.494857,157.13303 39.758331,169.55714 34.592242,174.62888 32.102369,172.23762 27.389873,167.49126 24.9,165.1 40.565544,148.31363 57.074916,131.96266 69.523741,112.57698 71.404495,109.64821 75.266171,105.61879 72.6,102.3 c -1.830339,-2.27837 -5.271219,-1.92101 -8,-2.3 l 0.7,-14 c 8.18283,0.291231 17.424274,3.592926 20.69789,11.795078 1.612951,4.041302 2.188213,8.819132 0.80211,12.504922 -2.401213,6.38507 -6.630325,11.58159 -10.244461,16.76586 6.549497,-1.93264 13.335961,-2.12812 20.107806,-2.43077 C 96.295947,109.23828 95.570715,93.853187 95.164005,78.4575 84.222165,79.608939 73.124718,79.84954 62.270785,77.834222 55.844216,76.640961 49.636949,74.476779 43.868296,71.334148 40.566599,69.535459 37.857939,66.855801 34.8,64.7 l 9.7,-10.1 c 5.141462,4.750702 11.633392,7.62101 18.406361,9.128157 10.490893,2.334474 21.339504,1.833495 31.959913,0.679659 -0.181715,-6.819681 0.05377,-13.640649 -0.07309,-20.460176 -0.08134,-4.372377 -0.02084,-6.544208 -1.964415,-8.863968 C 89.437139,31.035578 83.489722,29.469422 78.2,29 l 1.5,-13.9 c 12.069195,1.810736 19.321638,6.011336 25.40931,13.403051 z M 76.414031,142.69978 c 7.294807,6.12937 13.921133,13.06216 19.422346,20.8539 C 96.942811,155.3001 97.028526,146.89554 96.9,138.6 c -7.178855,0.23634 -14.828667,0.38024 -20.485969,4.09978 z"
       id="path2" />
  </g>
</svg>
