<?xml version="1.0" encoding="UTF-8" standalone="no"?>
<svg
   xmlns:dc="http://purl.org/dc/elements/1.1/"
   xmlns:cc="http://creativecommons.org/ns#"
   xmlns:rdf="http://www.w3.org/1999/02/22-rdf-syntax-ns#"
   xmlns:svg="http://www.w3.org/2000/svg"
   xmlns="http://www.w3.org/2000/svg"
   xmlns:sodipodi="http://sodipodi.sourceforge.net/DTD/sodipodi-0.dtd"
   xmlns:inkscape="http://www.inkscape.org/namespaces/inkscape"
   inkscape:version="1.0 (4035a4fb49, 2020-05-01)"
   sodipodi:docname="u1b022.svg"
   id="svg6"
   height="200"
   width="200"
   viewBox="0 0 200 200"
   version="1.1">
  <metadata
     id="metadata12">
    <rdf:RDF>
      <cc:Work
         rdf:about="">
        <dc:format>image/svg+xml</dc:format>
        <dc:type
           rdf:resource="http://purl.org/dc/dcmitype/StillImage" />
      </cc:Work>
    </rdf:RDF>
  </metadata>
  <defs
     id="defs10" />
  <sodipodi:namedview
     inkscape:current-layer="svg6"
     inkscape:window-maximized="1"
     inkscape:window-y="28"
     inkscape:window-x="0"
     inkscape:cy="96.075064"
     inkscape:cx="113.92742"
     inkscape:zoom="2.815"
     showgrid="false"
     id="namedview8"
     inkscape:window-height="846"
     inkscape:window-width="1440"
     inkscape:pageshadow="2"
     inkscape:pageopacity="0"
     guidetolerance="10"
     gridtolerance="10"
     objecttolerance="10"
     borderopacity="1"
     bordercolor="#666666"
     pagecolor="#ffffff" />
  <g
     id="g4"
     fill="black">
    <path
       sodipodi:nodetypes="sscssssccssscsssssscssssccccsssssscssccsscssccsssscssssssccssssccs"
       d="m 94.3,11 c 7.03551,0.569677 15.22853,4.766005 15.47173,12.454281 0.17385,5.49598 -2.19856,11.041016 -3.91658,14.757251 6.51267,-3.21332 15.5135,-6.135339 23.12098,-7.034571 9.41268,-1.112613 19.51515,1.076371 26.65322,7.654703 7.5825,6.98792 10.41445,17.207438 4.35878,24.919732 -5.26699,6.707847 -14.45257,8.389783 -22.56111,8.793279 C 128.58922,72.984461 119.76308,71.987432 111,70.9 c 0.63333,-4.633333 1.26667,-9.266667 1.9,-13.9 10.87625,1.286996 22.17425,2.887692 32.93334,0.101385 2.233,-0.578287 4.85595,-2.606604 2.86666,-5.201385 -5.14509,-6.71111 -14.21179,-8.34963 -21.78405,-6.208871 -10.00902,2.829656 -21.61065,7.494697 -28.798783,10.192542 -3.464664,8.182095 -8.249216,19.488453 -9.368969,28.399213 -0.40766,3.244071 1.579692,4.999208 4.463423,5.696184 8.305319,2.007333 16.443049,5.697686 22.319219,12.086382 6.8595,7.45779 10.18826,18.84999 10.4786,27.86672 0.76591,23.78568 -4.80325,46.48862 -21.21453,54.71089 -8.137857,4.07718 -17.320007,4.3101 -26.072977,-1.57108 C 70.66997,177.66181 65.100976,170.89753 59.91083,163.80215 52.404367,169.11229 44.495604,175.75382 34.993242,175.9 c -8.382263,0.12895 -13.28175,-5.61556 -13.742865,-12.14661 -0.43465,-6.1562 0.338165,-12.5083 2.787072,-18.17678 6.308419,-14.60208 17.495329,-18.23233 26.541507,-14.74927 4.208248,1.6203 9.121769,4.82667 13.789692,12.23014 C 72.326862,135.98272 80.260043,128.80609 87.5,122.4 c 3.133333,3.46667 6.266667,6.93333 9.4,10.4 -8.48177,7.43909 -16.933617,14.91729 -25.623748,22.11282 2.02418,4.26189 5.592103,8.6368 9.361064,12.06517 10.877401,9.89443 19.195111,8.45521 26.062944,-4.37336 3.29887,-6.16202 4.5795,-12.9421 5.18345,-19.81851 1.03726,-11.80998 -0.1584,-26.87963 -9.23143,-33.66998 -5.914665,-4.4266 -14.179173,-4.23297 -19.882807,-8.45963 C 77.723004,96.916837 74.428005,90.852928 74.897479,84.410903 75.455673,76.751487 77.642618,69.420402 80.303306,62.332231 71.067469,65.378794 61.585607,69.604357 52,70 45.226482,70.279575 39.047861,64.794381 36.390182,58.457411 34.117861,53.03929 33.265296,47.13414 33,41.3 l 14,-0.7 c 0.505618,4.091523 0.255543,9.086973 2.467003,12.680857 2.765621,4.494461 9.837083,0.942033 13.739098,-0.105694 8.422312,-2.261469 16.57331,-5.420157 24.779929,-8.359472 2.088163,-4.812073 4.411351,-9.57941 6.015821,-14.57935 1.017723,-3.171486 1.631945,-4.885616 -1.145956,-5.295519 C 87.953018,24.21736 82.893953,25.109647 78,25.7 L 75.9,11.9 C 81.983775,11.025003 88.141398,10.501327 94.3,11 Z M 41.8,144.3 c -4.806342,2.4727 -5.9549,8.30977 -6.592318,13.77131 -0.494407,4.23619 1.647621,3.59905 5.075039,1.89092 4.443113,-2.21433 8.449238,-5.3499 12.446995,-8.25681 C 49.245696,146.90617 46.563253,141.84947 41.8,144.3 Z M 154.5,90.8 c 10.80045,2.184207 12.33811,7.925059 11.3876,16.61655 -0.95033,8.6898 -7.38126,13.70287 -12.57782,20.36161 -4.23699,5.42916 -7.90018,8.04248 -1.17719,12.70798 3.95495,2.74459 9.34443,3.75208 13.90272,4.79045 4.71069,1.07309 9.55908,1.33212 14.36469,1.72341 l -0.9,13.9 c -13.05595,-0.91154 -27.19323,-2.40542 -37.79487,-10.75276 -5.3817,-4.23736 -8.96995,-10.42259 -7.06471,-18.11609 2.54405,-10.27309 12.41807,-16.49182 17.71052,-25.30756 1.45425,-2.42238 -3.22642,-2.71211 -4.95094,-1.92359 -2.6201,1.19801 -5.17175,2.51391 -7.5,4.2 -2.73333,-3.76667 -5.46667,-7.53333 -8.2,-11.3 6.52937,-4.721785 14.49794,-8.578951 22.8,-6.9 z"
       id="path2" />
  </g>
</svg>
