<?xml version="1.0" encoding="UTF-8" standalone="no"?>
<svg
   xmlns:dc="http://purl.org/dc/elements/1.1/"
   xmlns:cc="http://creativecommons.org/ns#"
   xmlns:rdf="http://www.w3.org/1999/02/22-rdf-syntax-ns#"
   xmlns:svg="http://www.w3.org/2000/svg"
   xmlns="http://www.w3.org/2000/svg"
   xmlns:sodipodi="http://sodipodi.sourceforge.net/DTD/sodipodi-0.dtd"
   xmlns:inkscape="http://www.inkscape.org/namespaces/inkscape"
   inkscape:version="1.0 (4035a4fb49, 2020-05-01)"
   sodipodi:docname="u1b028.svg"
   id="svg6"
   height="200"
   width="200"
   viewBox="0 0 200 200"
   version="1.1">
  <metadata
     id="metadata12">
    <rdf:RDF>
      <cc:Work
         rdf:about="">
        <dc:format>image/svg+xml</dc:format>
        <dc:type
           rdf:resource="http://purl.org/dc/dcmitype/StillImage" />
      </cc:Work>
    </rdf:RDF>
  </metadata>
  <defs
     id="defs10">
    <inkscape:path-effect
       only_selected="false"
       apply_with_weight="true"
       apply_no_weight="true"
       helper_size="0"
       steps="2"
       weight="33.333333"
       lpeversion="1"
       is_visible="true"
       id="path-effect25"
       effect="bspline" />
  </defs>
  <sodipodi:namedview
     inkscape:current-layer="svg6"
     inkscape:window-maximized="1"
     inkscape:window-y="28"
     inkscape:window-x="0"
     inkscape:cy="102.25028"
     inkscape:cx="129.11208"
     inkscape:zoom="1.9905056"
     showgrid="false"
     id="namedview8"
     inkscape:window-height="846"
     inkscape:window-width="1440"
     inkscape:pageshadow="2"
     inkscape:pageopacity="0"
     guidetolerance="10"
     gridtolerance="10"
     objecttolerance="10"
     borderopacity="1"
     bordercolor="#666666"
     pagecolor="#ffffff" />
  <g
     id="g4"
     fill="black">
    <path
       sodipodi:nodetypes="ssssssccsssssssccss"
       d="m 162.88387,59.761343 c -0.0689,8.494587 -6.27591,14.949837 -10.42065,21.811614 -2.23897,3.7067 0.0726,3.810968 3.12099,4.662432 10.56,2.949613 19.68959,11.362289 22.51803,22.216021 1.38702,5.32251 1.50693,10.90385 1.24306,16.38644 -0.67793,14.08566 -12.62927,29.10906 -21.47602,36.76018 -15.81151,13.6746 -35.07253,22.52884 -54.46928,29.90197 -1.63333,-4.36667 -3.26667,-8.73333 -4.9,-13.1 18.13297,-7.06351 36.40309,-15.13827 51.11404,-28.12834 8.6278,-7.61853 15.76284,-18.06823 15.98596,-30.09018 0.14202,-7.6521 -3.21312,-15.36579 -10.23944,-18.9299 -3.20797,-1.627245 -7.37461,-1.929146 -10.12188,-3.512556 -6.80199,-3.920377 -9.06771,-9.608789 -7.52394,-16.93079 1.63508,-7.755089 8.78776,-13.034134 11.21116,-20.403415 0.96089,-2.921968 -1.14253,-5.352644 -4.30751,-2.883954 C 140.08002,61.060797 135.71248,64.801931 131.8,69 c -3.43333,-3.2 -6.86667,-6.4 -10.3,-9.6 7.04347,-7.090442 14.3011,-15.952201 24.6,-17.3 12.05266,-1.57731 16.85711,8.62726 16.78387,17.661343 z"
       id="path2" />
  </g>
  <path
     sodipodi:nodetypes="ccccccssscssccccccsssccccsc"
     d="m 61.744602,21.64651 c -3.70475,2.887117 -7.73478,5.593339 -11.10547,7.626953 8.47965,13.239456 22.75937,22.91982 38.29688,25.726563 l 2.69922,-13.699219 C 81.210662,39.216336 70.021292,31.16252 61.744602,21.64651 Z m -28.05273,36.474609 c -9.65082,4.759717 -13.8697,19.95526 -5.00977,27.464844 7.44859,6.313345 17.85662,4.828048 26.74023,2.208985 5.52647,-1.62931 4.43889,1.722974 4.54102,6.923828 0.0995,5.06483 -0.3604,11.736804 -0.74805,18.462894 -11.56688,7.21688 -25.1815,13.4341 -31.23437,23.19141 -5.49644,8.86034 0.0519,17.33362 5.07031,22.09179 7.83738,7.43088 27.32617,17.75781 27.32617,17.75781 0,0 7.33541,-5.79885 11.73438,-10.14648 0.83156,-16.54464 1.06428,-30.16849 1.24804,-45.25586 6.77752,-4.11461 14.87881,-8.57494 22.34117,-12.53804 -2.4759,-5.63024 -3.03369,-7.65505 -5.08776,-12.50524 -7.13363,3.707448 -9.29164,4.64708 -16.22215,8.17023 0.29395,-8.999295 0.12277,-13.011581 -0.0195,-18.755858 -0.199,-8.032384 -4.94431,-14.581743 -14.74218,-12.892578 -6.9407,1.196588 -16.92671,5.696071 -20.44336,1.912109 -1.81823,-1.956439 0.40545,-3.689126 3.49218,-6.453125 -4.88586,-4.690812 -5.27504,-5.73243 -8.98632,-9.636719 z m 25.61132,71.298831 c -0.35146,10.30457 -0.72602,19.27638 -1.15429,26.60547 -5.23063,-2.73156 -10.23978,-5.17414 -15.50586,-9.55274 -4.21543,-3.50501 8.71593,-12.61053 16.66015,-17.05273 z"
     style="fill:#000000"
     id="path2-5" />
</svg>
