<?xml version="1.0" encoding="UTF-8" standalone="no"?>
<svg
   xmlns:dc="http://purl.org/dc/elements/1.1/"
   xmlns:cc="http://creativecommons.org/ns#"
   xmlns:rdf="http://www.w3.org/1999/02/22-rdf-syntax-ns#"
   xmlns:svg="http://www.w3.org/2000/svg"
   xmlns="http://www.w3.org/2000/svg"
   xmlns:sodipodi="http://sodipodi.sourceforge.net/DTD/sodipodi-0.dtd"
   xmlns:inkscape="http://www.inkscape.org/namespaces/inkscape"
   inkscape:version="1.0 (4035a4fb49, 2020-05-01)"
   sodipodi:docname="u1b024.svg"
   id="svg6"
   height="200"
   width="200"
   viewBox="0 0 200 200"
   version="1.1">
  <metadata
     id="metadata12">
    <rdf:RDF>
      <cc:Work
         rdf:about="">
        <dc:format>image/svg+xml</dc:format>
        <dc:type
           rdf:resource="http://purl.org/dc/dcmitype/StillImage" />
      </cc:Work>
    </rdf:RDF>
  </metadata>
  <defs
     id="defs10" />
  <sodipodi:namedview
     inkscape:current-layer="svg6"
     inkscape:window-maximized="1"
     inkscape:window-y="28"
     inkscape:window-x="0"
     inkscape:cy="67.283769"
     inkscape:cx="108.13012"
     inkscape:zoom="1.4075"
     showgrid="false"
     id="namedview8"
     inkscape:window-height="846"
     inkscape:window-width="1440"
     inkscape:pageshadow="2"
     inkscape:pageopacity="0"
     guidetolerance="10"
     gridtolerance="10"
     objecttolerance="10"
     borderopacity="1"
     bordercolor="#666666"
     pagecolor="#ffffff" />
  <g
     id="g4"
     fill="black">
    <path
       sodipodi:nodetypes="sscscscccccccsccsscssccccccccccccscccccsccccccccccsccsssssscccscccccss"
       d="m 124,81.6 c 2.3079,0.518429 5.57999,3.650347 5.94163,4.768377 2.46733,7.627931 -2.92862,16.178303 -9.3503,20.089193 -1.07414,23.46724 1.17183,48.68567 -1.11597,68.7904 -0.47784,4.19913 -1.79995,8.15631 -3.37536,12.05203 -7.85389,-3.93199 -15.85385,-7.66204 -23.043324,-12.81306 -3.251948,-2.32991 -6.477983,-4.69542 -9.69197,-7.07518 C 74.201029,173.60815 64.866326,179.65849 54.8,184.3 52.051374,179.00311 50.604273,172.94399 46.7,168.4 56.079841,161.04277 64.738633,152.7662 72.423022,143.64892 65.817978,146.34862 59.622032,149.98844 53.8,154.1 c -2.585296,-3.91617 -5.821773,-7.969 -8,-11.8 6.085312,-4.45511 11.615114,-9.70121 16.189076,-15.70672 -8.777907,2.81263 -18.395616,5.35948 -27.411007,1.60178 C 28.559839,125.68661 24.122176,120.62103 21.1,115 l 12.6,-6.3 c 2.086085,5.28192 7.797102,8.60322 13.397181,7.33234 16.025652,-3.63686 31.480917,-9.48784 46.942464,-15.00865 4.394526,-1.56914 8.803065,-3.12159 13.082725,-4.984721 0.34426,-6.533429 4.28212,-13.757798 11.43787,-14.583737 C 120.42664,81.239806 122.20918,81.197723 124,81.6 Z m -22.3,72.6 c -1.68567,1.70246 -5.692273,3.38457 -5.9,5.1 3.499415,2.39181 6.91205,4.91699 10.52047,7.14414 0.38101,-5.35075 0.50879,-10.72131 0.47953,-16.0857 z m 77.1,7.4 -13.7,2.7 c -5.05754,-15.69323 -10.01325,-25.13737 -24.7,-27.3 0.36667,-4.66667 0.73333,-9.33333 1.1,-14 23.03157,3.59575 33.2749,18.7234 37.3,38.6 z M 82.439893,119.95423 c -1.307536,2.72013 -2.716154,5.39633 -4.34396,7.94044 3.18839,-0.0284 6.374177,-0.6408 8.907434,1.57724 2.779037,2.43324 6.064422,4.21873 9.096633,6.32809 -2.662393,3.9042 -5.5227,7.66335 -8.472067,11.35419 6.415225,-4.68284 12.802587,-9.40714 19.013137,-14.35984 -0.13564,-7.13301 -0.29017,-14.2681 -0.1963,-21.40247 -8.114071,2.89762 -16.856178,6.10712 -24.004877,8.56235 z M 76.912881,37.59829 C 74.847539,42.434922 72.238999,46.975934 69.084916,51.134651 73.78716,50.202837 78.536891,49.531361 83.3,49 l 1.3,13.9 c -1.03977,0.834709 -0.981245,0.861966 -2.35284,2.273908 L 91.4,76.1 C 77.400826,86.850645 61.903909,95.654397 45.6,102.4 43.535125,98.123115 42.49923,93.25479 39.7,89.4 48.35749,82.61974 56.571697,75.203509 63.678378,66.791892 58.597203,68.381772 53.274771,69.672734 48.6,72.2 L 39.3,61.7 C 48.309195,53.230849 58.169052,44.860029 63.588011,33.507167 65.227261,30.072896 64.563537,26.107342 61.7,23.6 l 9.9,-9.9 c 6.165217,6.755589 8.810259,15.708105 5.312881,23.89829 z M 141.8,15.6 c 3.15473,1.719288 5.54359,4.537511 7.14049,7.76845 0.9275,1.876575 -4.64548,4.618507 -2.26545,6.706594 3.01009,2.640858 6.79238,5.026594 8.52496,8.524956 1.27058,2.565522 0.64218,6.396826 -0.52882,9.47715 -3.22319,8.4786 -11.07284,13.928573 -18.00901,19.232427 C 123.68868,76.443446 110.02873,84.559114 96.3,92.5 l -7,-12.1 c 14.88805,-8.778952 30.36833,-16.859254 43.73525,-27.858273 0.61228,-0.503817 -2.33106,0.287946 -5.67049,2.029245 L 116.5,45.5 c 3.55489,-4.215094 6.73794,-8.718014 9.98441,-13.167458 C 122.23877,35.410425 118.11345,38.648853 114,41.9 c -2.83333,-3.7 -5.66667,-7.4 -8.5,-11.1 8.26246,-6.052403 15.81614,-14.119075 26,-16.6 3.57217,-0.870229 7.08041,-0.354637 10.3,1.4 z"
       id="path2" />
  </g>
</svg>
