<?xml version="1.0" encoding="UTF-8" standalone="no"?>
<svg
   xmlns:dc="http://purl.org/dc/elements/1.1/"
   xmlns:cc="http://creativecommons.org/ns#"
   xmlns:rdf="http://www.w3.org/1999/02/22-rdf-syntax-ns#"
   xmlns:svg="http://www.w3.org/2000/svg"
   xmlns="http://www.w3.org/2000/svg"
   xmlns:sodipodi="http://sodipodi.sourceforge.net/DTD/sodipodi-0.dtd"
   xmlns:inkscape="http://www.inkscape.org/namespaces/inkscape"
   inkscape:version="1.0 (4035a4fb49, 2020-05-01)"
   sodipodi:docname="u1b02f.svg"
   id="svg6"
   height="200"
   width="200"
   viewBox="0 0 200 200"
   version="1.1">
  <metadata
     id="metadata12">
    <rdf:RDF>
      <cc:Work
         rdf:about="">
        <dc:format>image/svg+xml</dc:format>
        <dc:type
           rdf:resource="http://purl.org/dc/dcmitype/StillImage" />
      </cc:Work>
    </rdf:RDF>
  </metadata>
  <defs
     id="defs10" />
  <sodipodi:namedview
     inkscape:current-layer="svg6"
     inkscape:window-maximized="1"
     inkscape:window-y="28"
     inkscape:window-x="0"
     inkscape:cy="115.73437"
     inkscape:cx="111.67612"
     inkscape:zoom="2.815"
     showgrid="false"
     id="namedview8"
     inkscape:window-height="846"
     inkscape:window-width="1440"
     inkscape:pageshadow="2"
     inkscape:pageopacity="0"
     guidetolerance="10"
     gridtolerance="10"
     objecttolerance="10"
     borderopacity="1"
     bordercolor="#666666"
     pagecolor="#ffffff" />
  <g
     id="g4"
     fill="black">
    <path
       sodipodi:nodetypes="cccccaccsscccccccssccccccccccccccccccccscccacaa"
       d="m 105.63985,29.451728 c 2.1692,4.460598 2.73527,9.60336 2.30524,14.534998 0.007,2.965509 -1.10488,5.79186 -1.61553,8.692991 11.35468,-8.889144 24.34792,-16.043797 38.06886,-15.963039 6.62648,0.457271 13.21345,2.412441 18.55752,6.448301 9.536,7.49527 15.66706,22.655889 13.37257,34.901258 -2.91162,15.538919 -18.02057,28.739463 -31.85233,35.140413 -4.801,2.32022 -11.90103,4.46772 -17.07316,5.71513 -0.45609,8.39368 7.90595,11.50087 14.2705,14.7729 4.25394,2.18696 4.45021,8.77335 -0.72761,12.5505 -7.99362,5.83123 -18.50652,17.39334 -17.34829,18.93129 C 126.7104,169.45789 151.05179,167.25263 163,166 l 1.8,13.9 c -12.09496,1.36143 -24.41341,2.68241 -36.52548,0.96538 -12.1576,-1.83591 -24.46952,-10.97569 -16.44201,-23.26229 3.82073,-6.20993 9.95322,-11.46674 15.22757,-16.58942 -8.5048,-3.18934 -13.3815,-12.78287 -13.26973,-20.95774 C 109.00049,119.59934 101.45125,118.87692 96.3,115.8 80.080281,106.11172 94.854618,82.346187 113.09879,84.913771 c 9.91968,1.396041 16.10772,6.447441 15.46453,19.281559 26.80556,-8.890494 38.29999,-32.633768 29.82653,-46.225485 C 153.24581,51.13848 143.69449,49.183274 135.82363,51.827089 119.36885,58.302095 93.68476,78.147069 85.6,91.1 L 74.2,82.8 C 83.355266,67.149072 105.90873,41.892974 84.696862,28.539193 86.948387,24.575536 88.833212,21.352065 91.2,15.9 c 6.085851,2.979873 12.14058,8.112028 14.43985,13.551728 z M 60.700056,58.470855 C 54.914224,69.326645 46.325129,78.370023 37.856422,87.124771 35.623709,89.793388 40.203326,91.671752 41.95,93.05 c 10.812383,6.385841 12.215149,21.80481 11.70972,33.01831 1.538153,-1.26881 3.029192,-3.7867 3.986265,-4.91301 L 68.6,129.2 c -9.587641,12.34559 -14.451466,27.83562 -15.6,43.3 -4.795731,1.33227 -9.097232,2.92663 -13.702677,4.29461 -2.381796,-12.63003 -0.470882,-26.74492 -0.04819,-39.46383 C 40.898808,120.38305 40.824505,108.58724 29.8,101.6 24.03038,97.111831 21.066985,88.627218 24.789548,81.962696 28.310643,75.192484 34.926723,70.856653 39.486803,64.797361 46.300846,56.170368 51.58433,46.744031 53.002625,34.699285 53.314652,32.049423 52.089356,30.117828 51.677857,28.299194 L 64.9,23.4 c 3.807116,11.890564 0.738333,25.830857 -4.199944,35.070855 z M 103.96865,102.6223 c 0.0224,3.90986 8.07742,3.3188 11.25566,3.30112 0.55472,-2.16931 0.0557,-5.16445 -1.83829,-6.180725 -2.8925,-1.552051 -9.43618,-0.402936 -9.41737,2.879605 z"
       id="path2" />
  </g>
</svg>
