<?xml version="1.0" encoding="UTF-8" standalone="no"?>
<svg
   xmlns:dc="http://purl.org/dc/elements/1.1/"
   xmlns:cc="http://creativecommons.org/ns#"
   xmlns:rdf="http://www.w3.org/1999/02/22-rdf-syntax-ns#"
   xmlns:svg="http://www.w3.org/2000/svg"
   xmlns="http://www.w3.org/2000/svg"
   xmlns:sodipodi="http://sodipodi.sourceforge.net/DTD/sodipodi-0.dtd"
   xmlns:inkscape="http://www.inkscape.org/namespaces/inkscape"
   inkscape:version="1.0 (4035a4fb49, 2020-05-01)"
   sodipodi:docname="u1b0c2.svg"
   id="svg6"
   height="200"
   width="200"
   viewBox="0 0 200 200"
   version="1.1">
  <metadata
     id="metadata12">
    <rdf:RDF>
      <cc:Work
         rdf:about="">
        <dc:format>image/svg+xml</dc:format>
        <dc:type
           rdf:resource="http://purl.org/dc/dcmitype/StillImage" />
      </cc:Work>
    </rdf:RDF>
  </metadata>
  <defs
     id="defs10" />
  <sodipodi:namedview
     inkscape:current-layer="svg6"
     inkscape:window-maximized="1"
     inkscape:window-y="28"
     inkscape:window-x="0"
     inkscape:cy="113.38696"
     inkscape:cx="65.433822"
     inkscape:zoom="3.9810112"
     showgrid="false"
     id="namedview8"
     inkscape:window-height="846"
     inkscape:window-width="1440"
     inkscape:pageshadow="2"
     inkscape:pageopacity="0"
     guidetolerance="10"
     gridtolerance="10"
     objecttolerance="10"
     borderopacity="1"
     bordercolor="#666666"
     pagecolor="#ffffff" />
  <g
     id="g4"
     fill="black">
    <path
       sodipodi:nodetypes="cccccccccccccccccccccccccc"
       d="m 173.69658,38.146939 c -15.54808,11.103236 -38.47062,39.373023 -37.95388,43.155308 0.57928,2.891923 18.3357,8.159603 22.694,16.142699 8.64286,13.330454 10.08306,35.988524 2.10966,50.012154 -3.26637,5.62252 -7.35239,10.14789 -13.05974,13.25079 -21.20666,10.25665 -49.013154,2.93472 -62.648182,-13.72869 -2.055749,-2.4955 -3.896537,-5.19819 -5.506247,-8.00311 C 69.549978,152.85341 58.328501,165.65155 46.7,178 L 34.676547,167.60599 C 49.82361,153.14901 68.744634,133.34482 79.066693,111.96439 81.45693,107.0454 82.477132,103.47838 83.181018,98.042114 83.496743,94.021668 71.947659,89.590627 65.3,88 l 3.2,-13.6 c 10.962159,2.456283 28.780177,13.814771 29.819391,18.516937 2.146229,9.979903 -7.374732,27.905023 -14.009474,38.478103 1.523936,-0.68318 2.798172,-1.60614 5.407539,-2.8461 10.966404,19.59732 41.507454,31.71377 55.819854,14.7995 6.78813,-9.05209 12.2868,-33.01164 -6.93417,-44.127925 C 125.21809,91.75538 115.83807,84.460834 125.68526,70.867025 131.3563,61.621071 137.82282,52.854136 145.07576,44.78696 115.58998,51.178872 65.349531,64.358969 56.794199,64.01321 44.790726,63.431802 32.348985,53.540916 25.9,44.9 L 37.2,36.6 C 41.842473,43.024202 48.588388,48.570862 56.404235,50.210139 68.181307,50.88721 129.04996,33.751353 165.5,26.1 c 2.81399,4.264031 6.09284,8.548586 8.19658,12.046939 z"
       id="path2" />
  </g>
</svg>
