<?xml version="1.0" encoding="UTF-8" standalone="no"?>
<svg
   xmlns:dc="http://purl.org/dc/elements/1.1/"
   xmlns:cc="http://creativecommons.org/ns#"
   xmlns:rdf="http://www.w3.org/1999/02/22-rdf-syntax-ns#"
   xmlns:svg="http://www.w3.org/2000/svg"
   xmlns="http://www.w3.org/2000/svg"
   xmlns:sodipodi="http://sodipodi.sourceforge.net/DTD/sodipodi-0.dtd"
   xmlns:inkscape="http://www.inkscape.org/namespaces/inkscape"
   inkscape:version="1.0 (4035a4fb49, 2020-05-01)"
   sodipodi:docname="u1b0cc.svg"
   id="svg6"
   height="200"
   width="200"
   viewBox="0 0 200 200"
   version="1.1">
  <metadata
     id="metadata12">
    <rdf:RDF>
      <cc:Work
         rdf:about="">
        <dc:format>image/svg+xml</dc:format>
        <dc:type
           rdf:resource="http://purl.org/dc/dcmitype/StillImage" />
      </cc:Work>
    </rdf:RDF>
  </metadata>
  <defs
     id="defs10" />
  <sodipodi:namedview
     inkscape:current-layer="svg6"
     inkscape:window-maximized="1"
     inkscape:window-y="28"
     inkscape:window-x="0"
     inkscape:cy="105.93304"
     inkscape:cx="101.56597"
     inkscape:zoom="1.9905056"
     showgrid="false"
     id="namedview8"
     inkscape:window-height="846"
     inkscape:window-width="1440"
     inkscape:pageshadow="2"
     inkscape:pageopacity="0"
     guidetolerance="10"
     gridtolerance="10"
     objecttolerance="10"
     borderopacity="1"
     bordercolor="#666666"
     pagecolor="#ffffff" />
  <g
     id="g4"
     fill="black">
    <path
       sodipodi:nodetypes="cccccccccccccccccccccccccccccccccccccc"
       d="m 127,13.7 c 11.15614,1.299242 16.70355,11.980323 14.5,17.8 C 136.19698,43.740421 100.16815,57.99899 96.481431,62.330536 94.628517,64.676267 111.23399,66.98722 118.9,67.7 c -1.0862,9.5655 -2.81959,19.137479 -6.36137,28.126354 12.99791,0.274605 25.92275,2.202094 38.56225,5.196926 0.6837,-1.412726 1.15433,-2.57722 1.9224,-4.182691 3.79788,1.451216 8.16202,3.091412 12.92176,4.628751 -0.41632,1.10152 -1.13588,2.93124 -1.41393,3.81821 1.13895,0.44146 3.65239,1.29113 5.33167,1.8506 -1.10156,3.78053 -2.32887,7.58644 -3.60883,11.80093 -2.37242,-0.91961 -4.65848,-1.46205 -5.92544,-1.805 -14.28527,29.17297 -32.7396,53.90689 -53.87571,71.36538 -2.56074,-2.95714 -6.628462,-7.44947 -9.548187,-10.42738 18.661527,-17.41383 40.058697,-42.99816 49.316487,-64.17632 -13.88042,-2.98781 -29.72317,-4.46075 -42.02489,-4.06875 -9.870227,15.78712 -20.500047,31.51586 -34.661478,43.79934 C 67.395144,155.48639 65.091218,157.13502 62.8,158.8 51.115847,151.16467 40.2148,140.55663 32.198963,130.57542 43.427961,111.2538 78.144099,97.286232 95.86549,96.207176 98.925651,90.509474 101.81968,84.115126 102.99545,78.973864 94.583724,76.584325 83.874193,74.717288 79.5,67.1 74.902809,59.461475 81.433833,55.353457 89.426281,50.229361 102.21136,43.978554 115.59874,38.278582 126.52576,28.974239 128.76851,27.043067 117.73469,28.154377 117.36581,28.307605 116.58751,24.889438 115.45342,19.555409 114.4,14.9 c 4.13111,-0.997222 8.34878,-1.505604 12.6,-1.2 z M 50.409615,130.45303 c 3.656786,3.94005 7.455401,7.80106 11.851696,10.92345 9.383542,-8.6375 17.02092,-18.94813 24.035257,-29.5469 -13.18703,1.98844 -26.897549,10.96653 -35.886953,18.62345 z M 63.8,20.7 c -0.348413,3.916885 -1.939711,9.571998 1.5,11.7 3.532223,1.680783 11.191566,-5.616938 16.8,-8.4 L 88,36.7 C 75.515137,42.107085 66.10711,53.823499 54.813375,41.702911 49.720139,35.457681 49.157951,26.911237 49.9,19.2 Z"
       id="path2" />
  </g>
</svg>
