<?xml version="1.0" encoding="UTF-8" standalone="no"?>
<svg
   xmlns:dc="http://purl.org/dc/elements/1.1/"
   xmlns:cc="http://creativecommons.org/ns#"
   xmlns:rdf="http://www.w3.org/1999/02/22-rdf-syntax-ns#"
   xmlns:svg="http://www.w3.org/2000/svg"
   xmlns="http://www.w3.org/2000/svg"
   xmlns:sodipodi="http://sodipodi.sourceforge.net/DTD/sodipodi-0.dtd"
   xmlns:inkscape="http://www.inkscape.org/namespaces/inkscape"
   version="1.1"
   viewBox="0 0 200 200"
   width="200"
   height="200"
   id="svg6"
   sodipodi:docname="u1b0c7.svg"
   inkscape:version="1.0 (4035a4fb49, 2020-05-01)">
  <metadata
     id="metadata12">
    <rdf:RDF>
      <cc:Work
         rdf:about="">
        <dc:format>image/svg+xml</dc:format>
        <dc:type
           rdf:resource="http://purl.org/dc/dcmitype/StillImage" />
      </cc:Work>
    </rdf:RDF>
  </metadata>
  <defs
     id="defs10" />
  <sodipodi:namedview
     inkscape:document-rotation="0"
     pagecolor="#ffffff"
     bordercolor="#666666"
     borderopacity="1"
     objecttolerance="10"
     gridtolerance="10"
     guidetolerance="10"
     inkscape:pageopacity="0"
     inkscape:pageshadow="2"
     inkscape:window-width="1440"
     inkscape:window-height="846"
     id="namedview8"
     showgrid="false"
     inkscape:zoom="2.815"
     inkscape:cx="81.43547"
     inkscape:cy="127.40654"
     inkscape:window-x="0"
     inkscape:window-y="28"
     inkscape:window-maximized="1"
     inkscape:current-layer="svg6" />
  <g
     fill="black"
     id="g4">
    <path
       id="path2"
       d="m 132.46506,27.532246 c 1.99532,10.850018 -9.9106,17.713207 -17.66472,21.640543 7.17668,-2.1345 14.64219,-3.567257 21.59966,-6.272789 2.36667,4.033333 4.73333,8.066667 7.1,12.1 -23.13338,13.884325 -68.374493,40.425642 -68.373613,43.309472 0.375009,3.107218 12.432095,1.692718 17.043551,1.49274 1.435701,-6.401135 8.282992,-11.470658 14.821252,-9.354414 4.20502,0.941742 8.025,3.953766 10.93587,6.731289 L 120,110.9 l -12.3603,1.6416 c -0.28038,2.32391 0.0836,3.95537 -0.044,5.77756 21.69794,-4.65776 53.26171,-8.6801 67.17236,9.23304 12.15594,15.14375 3.99317,33.54849 -6.20697,42.43492 -7.52384,6.73839 -16.95031,10.82703 -26.36114,14.21291 -1.53333,-4.4 -3.06667,-8.8 -4.6,-13.2 20.68459,-5.75287 37.64615,-27.0539 23.8,-37.5 -17.04491,-9.22311 -37.56242,-4.66347 -54.12808,-1.03805 C 107.00149,147.97347 106.963,163.48652 107,179 H 93 C 92.98549,164.7194 92.96531,150.43874 93.22231,136.15985 68.137443,140.13654 48.823616,168.9712 39.152263,169.12528 25.33468,168.77122 21.127937,142.75612 23.9,128.5 c 4.566667,0.96667 9.133333,1.93333 13.7,2.9 -1.280202,6.18637 -1.849993,17.8446 1.844379,18.61176 2.620709,0.56558 6.972869,-4.15124 13.001099,-8.66609 16.981132,-12.71803 28.373255,-16.92336 40.761941,-19.99952 0.611021,-2.7218 -0.04868,-5.14799 0.411812,-7.63075 -9.344852,0.30058 -20.758286,1.42479 -27.938747,-3.74851 C 58.403518,103.50754 59.376799,92.449372 67.806341,86.315196 76.32538,80.682084 84.966857,75.237646 93.518816,69.65518 78.823029,72.843102 63.952555,76.03628 49.3,78.8 L 46.6,65.1 c 22.509174,-6.558111 61.02935,-22.511897 70.91791,-34.134644 2.01156,-1.924715 -3.02143,-4.218589 -4.02979,-5.734337 2.06277,-2.300329 6.1502,-6.586885 8.41191,-9.631019 4.83364,2.43948 9.55524,7.642834 10.56503,11.932246 z M 64.7,28.1 c -2.331691,2.549425 0.16999,4.599679 2.796569,5.086213 C 70.153531,34.214522 72.994162,34.60276 75.8,35 L 74.1,48.9 C 65.535102,47.750195 55.524016,45.443147 51.150844,37.163185 48.712358,32.131055 49.885479,26.307 52.3,21.5 Z"
       sodipodi:nodetypes="ccccccccccccccccccccccccscccccccccccccccccc" />
  </g>
</svg>
