<?xml version="1.0" encoding="UTF-8" standalone="no"?>
<svg
   xmlns:dc="http://purl.org/dc/elements/1.1/"
   xmlns:cc="http://creativecommons.org/ns#"
   xmlns:rdf="http://www.w3.org/1999/02/22-rdf-syntax-ns#"
   xmlns:svg="http://www.w3.org/2000/svg"
   xmlns="http://www.w3.org/2000/svg"
   xmlns:sodipodi="http://sodipodi.sourceforge.net/DTD/sodipodi-0.dtd"
   xmlns:inkscape="http://www.inkscape.org/namespaces/inkscape"
   inkscape:version="1.0 (4035a4fb49, 2020-05-01)"
   sodipodi:docname="u1b016.svg"
   id="svg6"
   height="200"
   width="200"
   viewBox="0 0 200 200"
   version="1.1">
  <metadata
     id="metadata12">
    <rdf:RDF>
      <cc:Work
         rdf:about="">
        <dc:format>image/svg+xml</dc:format>
        <dc:type
           rdf:resource="http://purl.org/dc/dcmitype/StillImage" />
      </cc:Work>
    </rdf:RDF>
  </metadata>
  <defs
     id="defs10" />
  <sodipodi:namedview
     inkscape:current-layer="svg6"
     inkscape:window-maximized="1"
     inkscape:window-y="28"
     inkscape:window-x="0"
     inkscape:cy="107.98711"
     inkscape:cx="124.47522"
     inkscape:zoom="1.9905056"
     showgrid="false"
     id="namedview8"
     inkscape:window-height="846"
     inkscape:window-width="1440"
     inkscape:pageshadow="2"
     inkscape:pageopacity="0"
     guidetolerance="10"
     gridtolerance="10"
     objecttolerance="10"
     borderopacity="1"
     bordercolor="#666666"
     pagecolor="#ffffff" />
  <g
     id="g4"
     fill="black">
    <path
       sodipodi:nodetypes="scccccccccscccccsccscsscccccccccccccccccccccccccccccccccccccccccc"
       d="m 77.33397,45.984078 c -1.750304,6.438287 -5.122263,9.907645 -7.623127,18.472549 7.00647,8.52993 11.256753,23.266647 7.973553,34.373743 C 73.529629,100.23044 69.945817,101.19822 63.9,102.9 62.637049,98.627835 60.91494,93.376165 56.896418,91.045929 55.817506,90.465 54.682739,90.532175 53.859915,91.636649 50.875482,96.245318 50.166574,102.07317 49.337264,107.42052 46.317015,131.03119 47.928272,154.90342 48.9,178.6 c -4.633333,0.23333 -9.266667,0.46667 -13.9,0.7 -1.193364,-23.78105 -2.509488,-47.72541 0.10529,-71.45282 0.871998,-7.77907 2.226508,-15.719078 6.176351,-22.542931 C 44.553555,79.651604 52.550001,74.770612 57.9,76.5 c 3.903509,0.213746 7.257002,5.695383 2.450815,-1.234588 -1.73067,-2.765823 -4.733004,-4.660097 -4.652548,-8.198642 -0.370473,-5.108368 1.371135,-10.006912 3.535823,-14.590956 0.746305,-1.55056 0.297434,-2.060148 -1.033999,-1.553436 C 51.3522,53.688735 45.238583,56.620039 38.7,53.3 28.140247,47.938167 26.49428,36.58404 26.207323,29.62544 L 40,28.6 c 0.447573,4.096256 1.600212,11.133261 4.472,11.884 4.833062,1.263452 15.297855,-3.376216 22.315894,-5.57925 4.051508,-1.126771 7.244846,-0.573607 9.271678,1.949767 2.404956,2.994133 2.08048,6.164485 1.274398,9.129561 z M 144.6,54.8 c 4.38117,1.311812 8.51279,4.081648 10.20333,8.481249 2.15492,5.647787 1.63924,11.892267 -1.23658,15.743436 5.60983,1.20999 11.99962,5.444308 15.10995,10.162704 6.40143,12.802471 4.60629,34.647831 -6.97879,43.534111 -3.9521,4.53042 -9.36749,7.19274 -14.49562,10.13056 -2.56084,1.20623 -5.63036,2.20772 -7.95779,3.14882 -5.66773,4.82255 -10.12503,8.21573 -14.70743,11.59394 -1.60595,1.54905 -3.72667,4.02238 -0.49178,4.9344 10.09857,2.69263 20.72278,1.59419 31.01953,0.79222 L 170.8,161.1 c 0.76667,4.56667 1.53333,9.13333 2.3,13.7 -9.99995,1.52045 -19.99347,3.10289 -30.12443,3.35972 -6.87543,0.13556 -14.27629,0.41561 -20.54737,-1.63759 -12.16195,-3.96955 -19.26243,-13.76077 -11.59621,-23.65809 1.51282,-2.00782 3.63582,-3.39416 5.66236,-4.72568 -3.32674,-0.53004 -8.07665,-1.51298 -11.41529,-3.4326 -7.861023,-5.76539 -8.766619,-12.01218 -4.92256,-20.74562 4.01117,-8.85937 17.31963,-13.44935 26.97335,-12.41618 9.31413,0.94471 15.73465,7.45796 17.81009,16.83582 1.9665,-0.94012 3.24313,-1.89492 4.57326,-3.17078 3.11683,-2.72663 5.94198,-5.67913 7.60789,-9.52931 3.29203,-7.61699 1.31156,-21.920971 -5.25611,-22.656671 C 139.31307,90.568344 115.03914,101.51571 99.9,108.3 97.933333,104.06667 95.966667,99.833333 94,95.6 104.16736,90.847565 115.01707,87.723211 124.99567,82.528459 130.97093,79.396835 137.66031,76.636335 142,71.3 c 0.86549,-1.096404 0.42158,-2.763658 -1.12367,-2.942367 C 134.10215,67.691142 127.56272,70.22352 121.2,72.2 c -1.53333,-4.4 -3.06667,-8.8 -4.6,-13.2 8.99726,-2.920572 18.44444,-6.052691 28,-4.2 z m -32.54353,77.303 c -0.0892,0.83832 0.65388,1.40029 1.43061,1.74629 4.30695,1.53794 11.31129,0.83308 15.78542,0.27926 0.91389,-0.93189 1.91337,-1.77641 2.15406,-4.05351 0.10989,-3.21725 -4.13375,-4.54068 -6.80143,-4.75472 -4.61249,-0.47877 -12.142,3.28019 -12.56866,6.78268 z M 159.3,38.5 c -19.16562,6.686792 -40.03063,9.406373 -58.1,0 l 7.2,-12 c 17.10813,7.402846 31.6856,2.904435 46.34379,-0.699227 1.51874,4.233076 3.03747,8.466151 4.55621,12.699227 z"
       id="path2" />
  </g>
</svg>
