<?xml version="1.0" encoding="UTF-8" standalone="no"?>
<svg
   xmlns:dc="http://purl.org/dc/elements/1.1/"
   xmlns:cc="http://creativecommons.org/ns#"
   xmlns:rdf="http://www.w3.org/1999/02/22-rdf-syntax-ns#"
   xmlns:svg="http://www.w3.org/2000/svg"
   xmlns="http://www.w3.org/2000/svg"
   xmlns:sodipodi="http://sodipodi.sourceforge.net/DTD/sodipodi-0.dtd"
   xmlns:inkscape="http://www.inkscape.org/namespaces/inkscape"
   inkscape:version="1.0 (4035a4fb49, 2020-05-01)"
   sodipodi:docname="u1b01c.svg"
   id="svg6"
   height="200"
   width="200"
   viewBox="0 0 200 200"
   version="1.1">
  <metadata
     id="metadata12">
    <rdf:RDF>
      <cc:Work
         rdf:about="">
        <dc:format>image/svg+xml</dc:format>
        <dc:type
           rdf:resource="http://purl.org/dc/dcmitype/StillImage" />
      </cc:Work>
    </rdf:RDF>
  </metadata>
  <defs
     id="defs10" />
  <sodipodi:namedview
     inkscape:current-layer="svg6"
     inkscape:window-maximized="1"
     inkscape:window-y="28"
     inkscape:window-x="0"
     inkscape:cy="129.21387"
     inkscape:cx="103.78261"
     inkscape:zoom="2.815"
     showgrid="false"
     id="namedview8"
     inkscape:window-height="846"
     inkscape:window-width="1440"
     inkscape:pageshadow="2"
     inkscape:pageopacity="0"
     guidetolerance="10"
     gridtolerance="10"
     objecttolerance="10"
     borderopacity="1"
     bordercolor="#666666"
     pagecolor="#ffffff" />
  <g
     id="g4"
     fill="black">
    <path
       sodipodi:nodetypes="ccsccccccccccccscccccssccccccsssccsscsccccsccccccc"
       d="M 105.8,41.5 C 88.201913,48.179999 67.381222,55.505597 53.653647,65.409894 50.42593,68.10464 46.509218,71.832676 48.543087,75.334527 50.878065,79.354818 71.330415,74.238195 80.467243,71.388174 83.18325,66.767519 86.239434,62.364321 89.2,57.9 c 8.916407,2.876928 15.29763,7.626219 15.8,19.1 -4.78688,2.889726 -10.939386,3.738116 -15.308577,6.428163 -8.645985,15.026923 -5.736808,19.407517 2.526693,26.389957 2.799676,-1.76417 5.052542,-3.18681 5.052542,-3.18681 1.804756,3.41516 5.124582,9.05353 6.929342,12.46869 -1.49467,0.98958 -2.08574,1.49203 -3.51989,2.30688 6.9072,13.31455 4.37381,29.83195 -0.86365,41.918 C 95.861787,172.8368 89.687491,181.30541 82.9,188.9 71.220242,179.88134 58.984138,171.61769 46.662766,163.50851 c -5.305915,2.81346 -8.044451,3.88523 -12.773922,6.70334 -4.50742,-10.75961 -0.359833,-24.19554 0.256854,-34.77342 0.19581,-3.35868 -3.622389,-7.50569 -7.376044,-8.3569 2.158282,-5.34076 3.633488,-8.67346 5.410248,-12.80008 13.201043,5.31612 17.204696,14.15066 15.700048,26.55934 9.239226,-8.934 19.843836,-16.30232 30.701329,-23.11979 C 67.267868,111.25799 68.561632,98.255373 71.920417,88.283161 62.98083,90.169293 53.308877,92.178419 44.502772,89.688971 32.686026,86.348428 30.238286,73.763672 35.863562,64.817208 44.443284,51.17198 70.020388,40.362629 88.1,33.2 85.651647,29.186286 82.208066,25.680886 77.9,23.7 L 83.8,11 c 11.709772,6.028681 19.68983,19.873123 22,30.5 z M 147,87.3 c 18.07462,5.098674 7.49927,23.33923 3.2591,34.22271 -0.99403,2.94851 -3.02269,6.66259 -0.98423,8.79492 3.10674,3.2498 18.54984,-1.65181 24.11252,5.68181 2.67368,3.52488 5.43312,11.67577 2.50156,16.34218 -7.30331,11.62528 -34.109,19.95795 -50.18895,24.35842 -1.16667,-4.5 -2.33333,-9 -3.5,-13.5 12.95492,-3.91488 26.05812,-8.13711 37.98444,-14.59911 2.27026,-1.23009 2.48086,-4.23493 -0.89441,-4.61131 -6.12266,-0.68275 -13.39842,2.07148 -18.418,-1.79312 -6.6388,-4.31776 -7.17627,-10.89985 -5.26712,-20.41857 1.26141,-6.28919 4.84667,-11.92744 6.59509,-18.07789 1.64271,-4.169213 -2.28558,-2.53236 -4.5933,-1.63234 -4.66452,1.62547 -8.97076,4.0971 -13.3067,6.43234 -2.33333,-4.03333 -4.66667,-8.06667 -7,-12.1 12.08748,-5.257475 19.73463,-11.911134 29.7,-9.1 z m -59.2,41.2 c -11.463772,6.96598 -22.473468,14.79574 -32.04,24.24 8.37699,5.37718 16.522261,11.10881 24.62652,16.8853 6.744816,-10.01271 11.963855,-21.98009 10.476097,-34.29211 -0.297009,-2.52631 -1.242532,-5.01901 -2.132788,-7.38638 C 88.419886,128.13121 88.109943,128.3156 87.8,128.5 Z"
       id="path2" />
  </g>
</svg>
