<?xml version="1.0" encoding="UTF-8" standalone="no"?>
<svg
   xmlns:dc="http://purl.org/dc/elements/1.1/"
   xmlns:cc="http://creativecommons.org/ns#"
   xmlns:rdf="http://www.w3.org/1999/02/22-rdf-syntax-ns#"
   xmlns:svg="http://www.w3.org/2000/svg"
   xmlns="http://www.w3.org/2000/svg"
   xmlns:sodipodi="http://sodipodi.sourceforge.net/DTD/sodipodi-0.dtd"
   xmlns:inkscape="http://www.inkscape.org/namespaces/inkscape"
   inkscape:version="1.0 (4035a4fb49, 2020-05-01)"
   sodipodi:docname="u1b014.svg"
   id="svg6"
   height="200"
   width="200"
   viewBox="0 0 200 200"
   version="1.1">
  <metadata
     id="metadata12">
    <rdf:RDF>
      <cc:Work
         rdf:about="">
        <dc:format>image/svg+xml</dc:format>
        <dc:type
           rdf:resource="http://purl.org/dc/dcmitype/StillImage" />
      </cc:Work>
    </rdf:RDF>
  </metadata>
  <defs
     id="defs10" />
  <sodipodi:namedview
     inkscape:current-layer="svg6"
     inkscape:window-maximized="1"
     inkscape:window-y="28"
     inkscape:window-x="0"
     inkscape:cy="80.312474"
     inkscape:cx="11.650571"
     inkscape:zoom="1.9905056"
     showgrid="false"
     id="namedview8"
     inkscape:window-height="846"
     inkscape:window-width="1440"
     inkscape:pageshadow="2"
     inkscape:pageopacity="0"
     guidetolerance="10"
     gridtolerance="10"
     objecttolerance="10"
     borderopacity="1"
     bordercolor="#666666"
     pagecolor="#ffffff" />
  <g
     id="g4"
     fill="black">
    <path
       sodipodi:nodetypes="cscccscccccccccccccccccccccccccccccccccccsccsccccccccccccccc"
       d="m 120.2,134.6 c -2.38278,2.11395 1.69514,4.15151 3.2921,5.37571 15.48164,11.86794 22.00154,17.4649 30.1079,32.72429 -4.43333,1.5 -8.86667,3 -13.3,4.5 -3.97916,-10.64085 -13.53441,-17.5198 -22.4468,-23.8705 -4.57617,-3.51644 -9.46783,-7.13022 -11.633,-12.68851 -1.82662,-4.68918 -0.20649,-13.40907 4.3908,-15.62999 z M 54.5,29.3 c 7.848235,0.639211 16.637302,4.161978 19.401845,12.173875 0.773364,2.237101 0.872427,4.047824 0.907115,6.404299 -0.175066,7.138115 -0.322727,14.276873 -0.459822,21.41581 C 77.459753,68.08909 80.428693,66.594399 83.3,64.9 L 90.6,77 c -5.218507,2.907836 -10.681216,5.388542 -16.419346,7.080114 l -0.17952,10.950722 c 0.850041,-0.573535 1.089097,-0.770576 1.648176,-1.195226 3.690087,3.706622 5.702838,5.895362 9.346758,9.86407 -3.662384,3.71069 -7.639624,7.94688 -11.299049,11.66049 C 73.437378,133.57308 73.212137,151.78647 73,170 c -4.619478,1.88111 -10.663276,3.8687 -13.615078,4.75286 -3.802556,-10.0367 -12.213946,-18.23501 -20.702126,-24.49014 -1.906417,2.27692 -1.817385,2.30701 -2.307609,3.37911 C 33.0372,152.56483 25.515606,151.52997 22,151.1 c 1.405173,-10.60499 4.178139,-21.15438 9.3,-30.6 3.839683,2.06032 7.679365,4.12063 11.519048,6.18095 5.706373,-5.66108 11.311817,-11.42221 16.957723,-17.1433 C 59.866574,101.93776 60.051167,94.235722 60.1,86.7 48.287904,87.649173 36.411582,86.049099 25,83 l 3.8,-13.5 c 10.243977,2.800261 20.982464,4.204227 31.580513,3.091253 0.128581,-8.184571 0.361979,-16.375546 0.493249,-24.556228 0.044,-1.062537 -0.02847,-1.848844 -0.644942,-2.384235 C 56.953275,43.011292 49.902984,43.504862 46.090127,43.651611 45.613879,38.850299 44.646272,35.208862 43.6,29.9 c 3.60117,-0.641907 7.250368,-0.799764 10.9,-0.6 z m -5.637879,111.13788 c 3.630205,2.85147 7.212589,5.79654 10.379352,9.16498 0.08322,-6.60543 0.164356,-13.21088 0.254705,-19.81621 -3.58001,3.61676 -7.481573,7.49874 -10.634057,10.65123 z M 124,101.9 c -1.94906,2.12089 1.19639,3.82761 2.61659,4.87056 1.88094,1.3813 3.38203,2.1391 5.80517,3.18089 -1.60333,3.76056 -3.61842,8.68799 -5.22176,12.44855 -7.4245,-3.26801 -16.03703,-8.01423 -17.6088,-16.76078 -0.76483,-4.25613 0.72705,-8.558134 3.1088,-12.03922 3.76667,2.766667 7.53333,5.533333 11.3,8.3 z m 4.7,-79.8 c 5.87439,1.734452 8.70734,5.758615 7.8143,12.271312 -0.90138,5.367092 -5.11371,11.370769 -7.73226,16.135522 -4.64321,7.208321 -8.81437,12.818908 -14.48923,19.235402 15.84432,-1.544365 49.8273,-2.543936 62.18651,3.036601 L 172.7,85.6 C 147.80199,80.591925 123.79097,83.162468 100.5,84.8 97.312111,80.532881 95.222509,77.332465 91.677691,72.630099 102.13541,61.656398 114.30226,50.096788 121.11532,36.385326 c 1.00316,-1.983808 -4.31609,0.393839 -6.00185,1.171287 C 112.65128,38.759374 110.32935,40.208286 108.1,41.8 l -8.7,-11 c 8.27762,-6.046551 18.85146,-10.976847 29.3,-8.7 z"
       id="path2" />
  </g>
</svg>
