<?xml version="1.0" encoding="UTF-8" standalone="no"?>
<svg
   xmlns:dc="http://purl.org/dc/elements/1.1/"
   xmlns:cc="http://creativecommons.org/ns#"
   xmlns:rdf="http://www.w3.org/1999/02/22-rdf-syntax-ns#"
   xmlns:svg="http://www.w3.org/2000/svg"
   xmlns="http://www.w3.org/2000/svg"
   xmlns:sodipodi="http://sodipodi.sourceforge.net/DTD/sodipodi-0.dtd"
   xmlns:inkscape="http://www.inkscape.org/namespaces/inkscape"
   inkscape:version="1.0 (4035a4fb49, 2020-05-01)"
   sodipodi:docname="u1b013.svg"
   id="svg6"
   height="200"
   width="200"
   viewBox="0 0 200 200"
   version="1.1">
  <metadata
     id="metadata12">
    <rdf:RDF>
      <cc:Work
         rdf:about="">
        <dc:format>image/svg+xml</dc:format>
        <dc:type
           rdf:resource="http://purl.org/dc/dcmitype/StillImage" />
      </cc:Work>
    </rdf:RDF>
  </metadata>
  <defs
     id="defs10" />
  <sodipodi:namedview
     inkscape:current-layer="svg6"
     inkscape:window-maximized="1"
     inkscape:window-y="28"
     inkscape:window-x="0"
     inkscape:cy="120.27551"
     inkscape:cx="68.570226"
     inkscape:zoom="2.815"
     showgrid="false"
     id="namedview8"
     inkscape:window-height="846"
     inkscape:window-width="1440"
     inkscape:pageshadow="2"
     inkscape:pageopacity="0"
     guidetolerance="10"
     gridtolerance="10"
     objecttolerance="10"
     borderopacity="1"
     bordercolor="#666666"
     pagecolor="#ffffff" />
  <g
     id="g4"
     fill="black">
    <path
       sodipodi:nodetypes="ccccccccccccccccccccccccscccccccccccccccccccccccccccccccccccccccccc"
       d="m 74.5,43 c 5.776072,0.653671 11.763532,3.243087 13.713793,8.989353 1.168001,4.325625 0.06655,9.343168 -0.48652,13.701556 14.032997,-3.765028 27.719157,-11.225396 42.663927,-10.553999 8.30463,-0.110886 17.75574,5.454101 19.85373,14.047871 1.10713,5.188914 1.31702,9.624228 -1.37763,14.195665 -4.0752,6.845068 -12.85341,8.336256 -20.23758,8.528192 C 122.17815,92.063464 115.71385,91.591731 109.3,90.9 c 0.43333,-4.633333 0.86667,-9.266667 1.3,-13.9 8.48407,0.515053 17.30529,2.077857 25.60565,-0.321262 C 138.29071,75.85326 136.97677,71.62251 134.8,70.5 c -6.80052,-3.363616 -14.77595,-0.340835 -21.65229,1.607218 -9.42856,3.345062 -19.02155,6.18485 -28.456018,9.361164 -1.101517,6.847032 -1.788892,13.738744 -2.205544,20.659658 2.736732,-1.09005 5.12189,-2.643987 7.479069,-3.575866 6.604768,-2.341036 13.593743,-3.589816 20.600643,-3.637491 l 1.87009,-2.676493 c 0,0 2.89095,1.763966 5.24478,2.684893 13.52402,0.791662 27.05422,4.127539 38.87699,10.839367 14.21358,8.19184 24.10217,18.29452 17.82147,38.16013 -3.26177,9.20177 -10.05394,16.71167 -18.19882,21.92952 C 139.91813,177.33079 120.71698,184.01002 101.3,187.8 l -2.7,-13.7 c 20.32386,-4.02452 40.751,-11.3861 56.48019,-25.18019 4.53283,-4.85734 8.3596,-12.53682 7.32659,-18.36896 -1.76411,-9.95974 -14.07562,-14.14719 -23.30907,-17.34914 -5.73991,-1.99878 -11.72458,-3.31098 -17.77318,-3.8878 1.14269,18.54702 2.29268,37.11017 2.67547,55.68609 -16.45371,2.97635 -27.693732,-0.40541 -38.537301,-7.35058 -8.541386,7.39519 -17.550391,14.17021 -27.194515,16.38602 -4.155357,0.83716 -8.092011,0.97502 -12.283845,0.8397 -9.757184,-0.84572 -20.100884,-6.94485 -22.095167,-17.15357 -0.975277,-6.81824 1.357497,-11.09098 5.506637,-16.57654 C 39.906737,127.95601 53.647332,117.66748 68.30603,109.4966 68.217003,101.26993 69.049324,93.020075 70.092538,84.861901 59.83373,86.606916 48.129697,86.454872 39.752355,79.462085 36.577784,76.733171 34.360401,73.123492 32.7,69.3 l 13.2,-4.8 c 1.986204,6.269283 9.215946,7.605177 14.957628,7.290383 3.851776,-0.143622 7.664502,-0.729375 11.43501,-1.520253 l 2.058294,-10.845373 c 0.160637,-0.850801 -0.03177,-2.120196 -1.43333,-2.537944 C 69.111301,56.167049 65.991782,57.086605 62.2,57.7 L 59.7,43.9 c 4.885183,-0.870507 9.843015,-1.322889 14.8,-0.9 z m -5.078471,82.0863 c -12.869874,7.06717 -29.60418,23.51308 -31.139629,28.50366 -1.120868,4.66989 4.281807,6.63801 7.935653,7.22015 10.38148,1.4713 23.073702,-6.82135 30.268033,-13.80229 -3.03038,-4.88657 -6.170785,-13.82465 -6.836259,-20.59435 -0.07593,-0.44239 -0.151865,-0.88478 -0.227798,-1.32717 z M 101.7,137.9 l -6.622446,8.89041 c 5.687426,3.7232 10.590416,4.35133 14.432136,4.99869 -0.15536,-7.63613 -0.70926,-16.78818 -1.13791,-24.12526 -2.22393,3.41206 -4.44785,6.82411 -6.67178,10.23616 z m -1.8,-27.8 c -5.572488,1.42697 -10.429057,4.28265 -15.766936,6.7651 -3.232736,1.03418 -0.462561,5.1385 -0.653224,7.60946 0.400862,3.69872 1.246039,7.27497 2.873106,10.63571 6.176297,-7.98074 11.387516,-16.65219 16.363004,-25.41784 -0.93865,0.13586 -1.8773,0.27171 -2.81595,0.40757 z m 23.11296,-88.712918 c 1.2665,5.38973 2.00725,8.583008 3.27585,13.49579 -20.69274,5.385574 -46.364537,3.781137 -64.726437,-7.848147 2.576825,-4.409722 4.469928,-7.882627 7.105452,-12.196804 16.217033,9.265728 39.039235,10.307123 54.345135,6.549161 z"
       id="path2" />
  </g>
</svg>
