<?xml version="1.0" encoding="UTF-8" standalone="no"?>
<svg
   xmlns:dc="http://purl.org/dc/elements/1.1/"
   xmlns:cc="http://creativecommons.org/ns#"
   xmlns:rdf="http://www.w3.org/1999/02/22-rdf-syntax-ns#"
   xmlns:svg="http://www.w3.org/2000/svg"
   xmlns="http://www.w3.org/2000/svg"
   xmlns:sodipodi="http://sodipodi.sourceforge.net/DTD/sodipodi-0.dtd"
   xmlns:inkscape="http://www.inkscape.org/namespaces/inkscape"
   inkscape:version="1.0 (4035a4fb49, 2020-05-01)"
   sodipodi:docname="u1b01f.svg"
   id="svg6"
   height="200"
   width="200"
   viewBox="0 0 200 200"
   version="1.1">
  <metadata
     id="metadata12">
    <rdf:RDF>
      <cc:Work
         rdf:about="">
        <dc:format>image/svg+xml</dc:format>
        <dc:type
           rdf:resource="http://purl.org/dc/dcmitype/StillImage" />
      </cc:Work>
    </rdf:RDF>
  </metadata>
  <defs
     id="defs10" />
  <sodipodi:namedview
     inkscape:current-layer="svg6"
     inkscape:window-maximized="1"
     inkscape:window-y="28"
     inkscape:window-x="0"
     inkscape:cy="107.6576"
     inkscape:cx="98.995456"
     inkscape:zoom="1.9905056"
     showgrid="false"
     id="namedview8"
     inkscape:window-height="846"
     inkscape:window-width="1440"
     inkscape:pageshadow="2"
     inkscape:pageopacity="0"
     guidetolerance="10"
     gridtolerance="10"
     objecttolerance="10"
     borderopacity="1"
     bordercolor="#666666"
     pagecolor="#ffffff" />
  <g
     id="g4"
     fill="black">
    <path
       sodipodi:nodetypes="ccccccccccccscscccccsccsccccccscccscccccccccc"
       d="m 170.07659,52.496425 c -1.67335,10.515017 -15.14599,14.360868 -24.66295,16.328904 6.96334,1.924545 13.70464,4.547096 20.38638,7.274671 -4.94669,19.847752 -27.46415,26.0385 -50.46555,30.43682 0.64223,23.68087 -0.69614,47.35447 -2.43445,70.96318 -4.63333,-0.36667 -9.26667,-0.73333 -13.9,-1.1 C 89.256787,165.33101 74.491096,158.14968 62.5,153.5 c 0.643905,-2.13863 2.445814,-5.72171 2.4,-7 -7.201333,5.20021 -19.271388,17.26248 -30.73703,12.2974 -4.064323,-2.72221 -5.357543,-7.90453 -4.510732,-12.53272 C 30.154635,138.97901 34.509023,132.74907 38.9,127.2 l 10.8,9 c -0.723024,0.93413 -2.141267,2.65704 -3.045319,3.95248 -0.603449,0.8647 -0.977802,1.53894 -0.763381,1.66101 0.0833,0.0514 0.497752,-0.13093 1.180863,-0.50497 C 51.907899,138.66072 70.206713,126.40395 79.8,119.4 c 2.8,3.73333 5.6,7.46667 8.4,11.2 -5.453319,3.90691 -10.933497,7.77556 -16.540642,11.46043 10.108978,4.13041 19.990621,9.13808 28.588362,15.92832 0.97856,-16.26448 1.43131,-32.56481 1.15459,-48.85807 -14.593558,1.77227 -25.09702,3.77036 -40.577576,1.81199 C 53.361238,109.9985 44.933093,102.02654 43.4,94.5 L 57,91.3 c 0.711782,2.31949 1.71762,6.434316 5.651786,6.863661 14.847039,1.620294 25.862008,-1.403948 38.208124,-3.08527 -0.76162,-9.551136 -1.301585,-19.522864 -2.785383,-27.554515 8.951563,-2.483985 19.702633,-3.558878 28.887953,-2.471856 -0.0696,-2.453821 -0.26834,-4.390215 -0.49207,-6.614271 9.28,-1.534496 26.47978,-3.450049 27.92389,-7.667362 2.66175,-7.186965 -7.69333,-12.191979 -15.77096,-12.345696 C 107.34768,37.573912 76.501976,51.595798 45.682221,57.089665 33.780747,59.211198 23.003762,46.187259 22.095994,36.844071 L 36,35.2 c 0.553512,3.334097 3.930884,8.616607 12.3158,7.002946 31.886307,-6.84466 74.73575,-21.730014 97.69783,-17.154287 11.93276,2.37788 26.81335,12.651111 24.06296,27.447766 z m 8.85803,102.227015 c -4.76865,3.19018 -7.13113,4.50891 -12.13462,7.57656 -11.04037,-16.17062 -24.18307,-27.55924 -40.11695,-29.97946 0.64653,-3.8792 1.77042,-10.24134 2.41695,-14.12054 20.44833,3.44997 41.36407,20.27365 49.83462,36.52344 z M 113.6858,78.500835 c 0.46247,4.669694 0.82098,9.352116 1.07757,14.037862 10.90031,-2.061218 20.90767,-3.590056 30.41498,-9.124264 -10.16928,-3.175415 -20.78026,-5.50186 -31.49255,-4.913598 z"
       id="path2" />
  </g>
</svg>
