<?xml version="1.0" encoding="UTF-8" standalone="no"?>
<svg
   xmlns:dc="http://purl.org/dc/elements/1.1/"
   xmlns:cc="http://creativecommons.org/ns#"
   xmlns:rdf="http://www.w3.org/1999/02/22-rdf-syntax-ns#"
   xmlns:svg="http://www.w3.org/2000/svg"
   xmlns="http://www.w3.org/2000/svg"
   xmlns:sodipodi="http://sodipodi.sourceforge.net/DTD/sodipodi-0.dtd"
   xmlns:inkscape="http://www.inkscape.org/namespaces/inkscape"
   inkscape:version="1.0 (4035a4fb49, 2020-05-01)"
   sodipodi:docname="u1b03e.svg"
   id="svg6"
   height="200"
   width="200"
   viewBox="0 0 200 200"
   version="1.1">
  <metadata
     id="metadata12">
    <rdf:RDF>
      <cc:Work
         rdf:about="">
        <dc:format>image/svg+xml</dc:format>
        <dc:type
           rdf:resource="http://purl.org/dc/dcmitype/StillImage" />
      </cc:Work>
    </rdf:RDF>
  </metadata>
  <defs
     id="defs10" />
  <sodipodi:namedview
     inkscape:current-layer="svg6"
     inkscape:window-maximized="1"
     inkscape:window-y="28"
     inkscape:window-x="0"
     inkscape:cy="106.51034"
     inkscape:cx="114.80886"
     inkscape:zoom="2.815"
     showgrid="false"
     id="namedview8"
     inkscape:window-height="846"
     inkscape:window-width="1440"
     inkscape:pageshadow="2"
     inkscape:pageopacity="0"
     guidetolerance="10"
     gridtolerance="10"
     objecttolerance="10"
     borderopacity="1"
     bordercolor="#666666"
     pagecolor="#ffffff" />
  <g
     id="g4"
     fill="black">
    <path
       sodipodi:nodetypes="cccccccccccccccccccccccccccsscccccccccccc"
       d="m 122.25661,23.425116 c 3.39853,4.80023 3.49081,10.593808 3.24944,14.409372 -0.36316,6.044312 -0.83633,12.081366 -1.24946,18.122381 C 138.08004,54.089153 151.35338,49.551714 164.3,44.5 c 1.76667,4.3 3.53333,8.6 5.3,12.9 -14.90102,5.964831 -30.33227,10.977867 -46.34156,12.765109 -0.97681,12.782712 -2.03939,25.558303 -3.21049,38.324741 9.52795,-6.45195 19.28375,-10.191835 30.06587,-10.875622 14.02966,-0.209889 25.39134,7.875992 28.93369,21.172062 3.1172,11.5097 1.57745,23.00694 -4.70225,32.39501 -9.45119,13.98048 -24.48611,22.07395 -39.35812,28.30517 -8.53939,3.70987 -17.55673,6.12989 -26.58714,8.31353 -0.96667,-4.56667 -1.93333,-9.13333 -2.9,-13.7 16.03123,-3.64143 31.84822,-9.46791 45.4032,-18.90075 6.2557,-4.58664 13.04889,-11.03629 15.30161,-17.61633 2.53793,-6.69203 2.13457,-16.86598 -4.91757,-21.56609 C 143.85302,103.70388 123.49779,121.96416 116.7,136 c -4.26203,-1.79583 -8.29655,-4.41748 -12.7,-5.7 1.92597,-19.75627 3.64488,-39.534651 5.12499,-59.328495 C 97.200085,70.671199 85.216798,68.174366 74.6,62.6 l 6.5,-12.4 c 8.951644,4.593685 19.04652,6.817349 29.08671,6.750332 0.42368,-7.62864 0.76747,-12.658087 1.19614,-20.286398 C 111.66047,29.96246 102.03254,28.366957 96.6,28 l 0.7,-14 c 11.49014,1.27055 19.60521,2.845726 24.95661,9.425116 z M 38.9,19.4 c 8.748504,2.827429 12.618478,6.991942 15.048393,11.793775 2.372186,4.687754 0.781637,10.95986 -0.510114,15.75311 -7.2578,26.931231 -10.734533,53.962055 -9.126362,81.345675 0.390732,3.36755 0.532172,7.50703 1.088083,10.40744 4.158298,-11.69268 8.767701,-23.21318 13.7,-34.6 4.3,1.83333 8.6,3.66667 12.9,5.5 -5.822625,14.47638 -20.686258,49.30818 -18.6,59.6 -4.3,1.83333 -8.6,3.66667 -12.9,5.5 C 36.42268,164.5425 33.478106,153.51382 31.79746,142.48126 28.921436,122.3226 29.650675,101.76708 32.364315,81.626672 34.529796,66.851921 36.846494,55.273147 40.529244,40.804362 41.651268,36.455064 35.607947,32.885367 32.1,32 l 3.6,-13.6 z"
       id="path2" />
  </g>
</svg>
