<?xml version="1.0" encoding="UTF-8" standalone="no"?>
<svg
   xmlns:dc="http://purl.org/dc/elements/1.1/"
   xmlns:cc="http://creativecommons.org/ns#"
   xmlns:rdf="http://www.w3.org/1999/02/22-rdf-syntax-ns#"
   xmlns:svg="http://www.w3.org/2000/svg"
   xmlns="http://www.w3.org/2000/svg"
   xmlns:sodipodi="http://sodipodi.sourceforge.net/DTD/sodipodi-0.dtd"
   xmlns:inkscape="http://www.inkscape.org/namespaces/inkscape"
   inkscape:version="1.0 (4035a4fb49, 2020-05-01)"
   sodipodi:docname="u1b036.svg"
   id="svg6"
   height="200"
   width="200"
   viewBox="0 0 200 200"
   version="1.1">
  <metadata
     id="metadata12">
    <rdf:RDF>
      <cc:Work
         rdf:about="">
        <dc:format>image/svg+xml</dc:format>
        <dc:type
           rdf:resource="http://purl.org/dc/dcmitype/StillImage" />
      </cc:Work>
    </rdf:RDF>
  </metadata>
  <defs
     id="defs10" />
  <sodipodi:namedview
     inkscape:current-layer="svg6"
     inkscape:window-maximized="1"
     inkscape:window-y="28"
     inkscape:window-x="0"
     inkscape:cy="105.97816"
     inkscape:cx="190.58225"
     inkscape:zoom="3.9810112"
     showguides="false"
     showgrid="false"
     id="namedview8"
     inkscape:window-height="846"
     inkscape:window-width="1440"
     inkscape:pageshadow="2"
     inkscape:pageopacity="0"
     guidetolerance="10"
     gridtolerance="10"
     objecttolerance="10"
     borderopacity="1"
     bordercolor="#666666"
     pagecolor="#ffffff" />
  <g
     id="g4"
     fill="black">
    <path
       sodipodi:nodetypes="cccccccccccccccccccccccccccccccccccccccccc"
       d="m 181.54886,61.605157 c 0.245,4.749888 0.23397,8.321543 0.3445,13.312825 -10.33257,0.618778 -21.67114,1.690546 -31.77331,4.022755 2.30704,29.070903 3.67616,58.518473 -3.92005,86.959263 -2.29084,7.54447 -5.1366,14.97427 -9.3,21.7 -3.96667,-2.43333 -7.93333,-4.86667 -11.9,-7.3 9.81476,-16.81117 12.00557,-36.74882 12.79802,-55.84846 0.58722,-13.76048 -0.51553,-27.922038 -1.41026,-41.810724 -14.56078,4.81327 -29.12862,13.906376 -37.75205,26.896554 -4.664967,-2.76948 -8.26296,-4.78613 -12.397696,-7.09155 8.366537,-12.275055 22.446676,-23.419817 35.973956,-29.31974 4.29663,-1.783687 8.63828,-3.558224 13.10237,-4.880484 -0.66073,-11.458998 -1.39383,-23.231592 -0.85735,-34.072873 2.5665,-2.457079 7.98126,-7.192437 10.84596,-9.952644 9.04157,8.795882 25.45844,28.920843 36.24591,37.385078 z M 72.99887,95.90339 C 67.865769,110.14726 65.345214,125.45545 66.844135,140.5792 69.381814,134.32374 72.569948,128.36341 75.9,122.5 l 12.1,6.9 c -6.596214,11.64993 -12.274664,25.19979 -15.031491,38.35041 -4.530996,1.31042 -8.639429,2.96351 -12.975184,4.89247 -8.309645,-21.14262 -9.655027,-47.57475 -3.833285,-69.46853 0.361018,-1.1049 -0.09902,-1.47668 -1.046025,-1.17033 -7.812982,2.57926 -15.850837,5.68541 -24.176002,4.02255 C 24.194637,104.07276 20.291235,99.884814 16.4,95.4 l 12.1,-7.2 c 1.781457,3.361274 5.629899,5.152622 9.686378,4.591503 8.422833,-1.151761 15.030731,-5.593596 24.352701,-6.028416 6.667802,-0.376344 12.220606,3.653194 10.459791,9.140303 z M 87.787252,42.418529 c -1.46557,4.787479 -2.330093,9.269446 -3.11865,13.591804 C 79.01914,57.772866 72.944741,61.630775 68.4,65.3 L 59.5,54.6 C 62.109454,52.226245 65.487551,50.0121 68,48 60.985696,42.35902 56.358409,34.231473 54.4,25.5 L 68,22.3 c 2.458063,9.467639 11.186668,18.269017 19.787252,20.118529 z M 148.4,53.9 c 0.22796,3.644721 0.35723,7.2962 0.66448,10.93549 4.26322,-0.915474 8.55278,-1.669301 12.89117,-2.123413 -4.70949,-4.640368 -9.27844,-9.424226 -13.76857,-14.276989 0.071,1.821637 0.14195,3.643275 0.21292,5.464912 z"
       id="path2" />
  </g>
</svg>
