<?xml version="1.0" encoding="UTF-8" standalone="no"?>
<svg
   xmlns:dc="http://purl.org/dc/elements/1.1/"
   xmlns:cc="http://creativecommons.org/ns#"
   xmlns:rdf="http://www.w3.org/1999/02/22-rdf-syntax-ns#"
   xmlns:svg="http://www.w3.org/2000/svg"
   xmlns="http://www.w3.org/2000/svg"
   xmlns:sodipodi="http://sodipodi.sourceforge.net/DTD/sodipodi-0.dtd"
   xmlns:inkscape="http://www.inkscape.org/namespaces/inkscape"
   inkscape:version="1.0 (4035a4fb49, 2020-05-01)"
   sodipodi:docname="u1b03f.svg"
   id="svg6"
   height="200"
   width="200"
   viewBox="0 0 200 200"
   version="1.1">
  <metadata
     id="metadata12">
    <rdf:RDF>
      <cc:Work
         rdf:about="">
        <dc:format>image/svg+xml</dc:format>
        <dc:type
           rdf:resource="http://purl.org/dc/dcmitype/StillImage" />
      </cc:Work>
    </rdf:RDF>
  </metadata>
  <defs
     id="defs10" />
  <sodipodi:namedview
     inkscape:current-layer="svg6"
     inkscape:window-maximized="1"
     inkscape:window-y="28"
     inkscape:window-x="0"
     inkscape:cy="117.42944"
     inkscape:cx="3.9382903"
     inkscape:zoom="1.9905056"
     showgrid="false"
     id="namedview8"
     inkscape:window-height="846"
     inkscape:window-width="1440"
     inkscape:pageshadow="2"
     inkscape:pageopacity="0"
     guidetolerance="10"
     gridtolerance="10"
     objecttolerance="10"
     borderopacity="1"
     bordercolor="#666666"
     pagecolor="#ffffff" />
  <g
     id="g4"
     fill="black">
    <path
       sodipodi:nodetypes="cccsacccccccccccccccccccccccccccccccccccccccccc"
       d="m 74.3,115.6 c -1.287565,1.06016 -4.488143,2.39623 -5.285039,3.58897 -0.273833,0.39766 0.03084,0.66696 0.50661,0.8104 9.700812,2.57386 13.444906,2.79967 21.02043,4.49004 2.896546,0.64632 6.404338,3.87384 6.575088,7.0933 0.194479,3.66686 -3.205209,6.63672 -6.592244,8.82587 -8.029176,4.88523 -12.224046,8.83924 -19.238185,14.81094 -2.602742,2.43513 -0.901009,3.99831 1.142367,5.41448 8.144546,5.79927 18.10744,8.32095 27.764023,10.45104 10.81194,2.13331 21.87761,2.92489 32.88854,2.68162 4.3728,-0.25555 8.74561,-0.51111 13.11841,-0.76666 l 1.5,13.9 c -9.52014,0.65351 -19.0403,1.30453 -28.57624,0.55741 -10.20814,-0.48955 -20.359049,-2.07982 -30.261283,-4.61492 -12.445749,-3.34659 -22.197696,-8.01695 -30.522458,-16.67068 -4.281577,-4.67133 -5.381836,-12.03308 0.415655,-18.45892 4.139028,-4.31509 9.269397,-7.83341 15.368068,-11.35298 1.629614,-0.92271 2.000585,-1.3239 0.07561,-1.59374 -5.649648,-0.73772 -12.686082,-2.37917 -16.757466,-5.64341 -5.272414,-4.25194 -5.705814,-9.93653 -1.11331,-16.76875 2.805131,-4.09347 7.245449,-6.68432 11.471425,-9.15401 2.166667,4.13333 4.333333,8.26667 6.5,12.4 z M 112.5,14.4 c 7.87964,1.751906 14.89117,5.856818 21.6,10.2 -2.63333,3.866667 -5.26667,7.733333 -7.9,11.6 -6.00118,-3.730525 -11.96272,-9.344019 -19.74494,-8.095307 -4.30961,1.057932 -5.24392,9.629789 -5.92273,13.368805 C 124.24104,40.766295 150.95531,36.010949 171.6,32.1 l 2.7,13.7 c -24.51282,4.874813 -49.32007,8.34888 -74.28825,9.685883 0.45643,6.294493 -0.252838,13.749695 4.35847,18.682208 7.01938,5.179863 16.19442,5.579252 24.49818,7.209976 4.60003,0.6154 9.22279,1.069045 13.8316,1.621933 -0.62458,4.588763 -0.79891,9.781999 -1.7,14 -11.64702,0.763425 -22.87785,4.4774 -34.14594,7.32162 C 103.18927,105.2996 99.547346,106.35952 95.9,107.4 L 92,93.9 c 4.381497,-1.22107 8.76489,-2.435256 13.15524,-3.624156 C 100.71842,88.67764 96.456148,86.169336 93.292331,82.691804 89.081343,78.019647 87.349765,71.813677 86.693502,65.674467 86.152884,62.503161 86.265696,59.267704 86.032109,56.066255 65.983547,56.640458 45.888247,55.589483 26,53 l 1.9,-13.9 c 19.345221,2.446462 38.87789,3.594651 58.373747,2.945995 0.497818,-7.495459 1.945524,-15.411091 6.844186,-21.358792 C 98.682629,14.187974 105.47112,12.898874 112.5,14.4 Z"
       id="path2" />
  </g>
</svg>
