<?xml version="1.0" encoding="UTF-8" standalone="no"?>
<svg
   xmlns:dc="http://purl.org/dc/elements/1.1/"
   xmlns:cc="http://creativecommons.org/ns#"
   xmlns:rdf="http://www.w3.org/1999/02/22-rdf-syntax-ns#"
   xmlns:svg="http://www.w3.org/2000/svg"
   xmlns="http://www.w3.org/2000/svg"
   xmlns:sodipodi="http://sodipodi.sourceforge.net/DTD/sodipodi-0.dtd"
   xmlns:inkscape="http://www.inkscape.org/namespaces/inkscape"
   version="1.1"
   viewBox="0 0 200 200"
   width="200"
   height="200"
   id="svg6"
   sodipodi:docname="u1b03d.svg"
   inkscape:version="1.0 (4035a4fb49, 2020-05-01)">
  <metadata
     id="metadata12">
    <rdf:RDF>
      <cc:Work
         rdf:about="">
        <dc:format>image/svg+xml</dc:format>
        <dc:type
           rdf:resource="http://purl.org/dc/dcmitype/StillImage" />
      </cc:Work>
    </rdf:RDF>
  </metadata>
  <defs
     id="defs10" />
  <sodipodi:namedview
     inkscape:document-rotation="0"
     pagecolor="#ffffff"
     bordercolor="#666666"
     borderopacity="1"
     objecttolerance="10"
     gridtolerance="10"
     guidetolerance="10"
     inkscape:pageopacity="0"
     inkscape:pageshadow="2"
     inkscape:window-width="1440"
     inkscape:window-height="846"
     id="namedview8"
     showgrid="false"
     inkscape:zoom="1.9905056"
     inkscape:cx="118.8822"
     inkscape:cy="90.210239"
     inkscape:window-x="0"
     inkscape:window-y="28"
     inkscape:window-maximized="1"
     inkscape:current-layer="svg6" />
  <g
     fill="black"
     id="g4">
    <path
       id="path2"
       d="m 108.4,115.1 c -1.026,1.32162 -6.03417,4.19275 -3.32679,5.31753 5.92474,2.04883 12.32073,1.1716 18.42679,0.58247 0.69866,4.61875 1.14424,9.35286 2,13.9 -7.26897,6.20343 -15.14878,13.11389 -19.80578,20.58959 -1.95709,3.41288 3.38172,6.20683 6.79828,8.04369 9.70931,4.06063 18.76592,4.72998 28.65488,3.98962 5.89966,-0.37088 12.38655,-2.84441 18.04575,-4.45445 1.51872,4.43836 3.03746,8.87672 4.55618,13.31508 -7.03308,1.99805 -14.11538,3.7379 -21.43224,4.24698 -10.0251,0.75001 -21.12576,0.0847 -30.66173,-3.24076 -7.71144,-2.82861 -18.529494,-8.95596 -19.751233,-16.60572 -2.935184,-10.35904 7.309568,-19.76948 13.244783,-25.91702 -4.894,-0.70974 -9.812366,-3.11224 -12.764417,-7.09806 C 90.593842,124.94033 89.620501,121.91878 90.1,118.55426 90.879176,112.51266 95.322473,107.63472 100,104 Z M 60.438645,61.002108 C 54.60831,71.61581 46.190663,80.525454 37.842511,89.143318 c -1.379262,1.539377 1.827228,3.585793 3.265099,4.918982 7.130023,6.27848 9.835666,16.07552 11.248908,24.54636 0.529642,4.36103 1.043625,8.72301 0.898269,13.12478 C 55.019895,128.03105 56.86327,124.36716 58.7,120.7 c 4.166667,2.16667 8.333333,4.33333 12.5,6.5 -7.591222,15.14534 -15.494278,30.60366 -18.2,47.5 -3.692332,1.54672 -8.93971,2.66681 -13.243358,4.03919 -5.271663,-24.50631 3.559918,-35.8866 -2.141647,-62.74115 C 34.483661,102.46835 20.803085,98.749861 23.592441,87.1564 25.800286,78.865283 33.748108,74.292435 38.681298,67.713426 45.38155,60.098663 56.038978,44.894493 51.810254,30.351874 L 64.9,25.4 c 3.885905,12.100075 0.583844,26.211736 -4.461355,35.602108 z M 134,14.5 c 6.30344,2.049236 11.51598,6.232129 16.2,10.8 -3.26667,3.3 -6.53333,6.6 -9.8,9.9 -2.78848,-2.421949 -5.5286,-5.226866 -8.94427,-6.708095 -0.96905,-0.425079 -2.02493,-0.14585 -2.48431,0.753821 -1.4936,3.420076 -1.7502,7.864953 -2.19214,12.031114 C 142.50511,39.781794 158.024,36.543629 173.2,32.2 l 3.9,13.5 c -16.52007,4.619871 -33.38494,8.169241 -50.49683,9.618746 0.42828,6.737167 -0.47197,14.402078 3.6348,20.156757 3.93881,5.775975 17.55857,5.745832 24.39603,7.158985 C 154.17138,87.82243 153.4992,90.68804 152.9,97 c -8.95024,1.300722 -20.98314,6.68138 -29.44388,9.75005 C 121.59004,102.89559 120.07465,99.208355 117.8,94.1 c 3.13846,-1.246489 6.26994,-2.510146 9.38605,-3.811628 -5.13306,-2.44823 -9.28679,-6.749558 -11.37145,-12.059174 -2.90733,-6.933404 -2.88536,-14.63842 -3.18573,-22.049817 C 99.257548,56.4696 85.850878,55.45695 72.7,53 l 2.6,-13.7 c 12.370579,2.199502 24.94188,3.251506 37.50602,2.862638 0.41025,-7.748237 1.17451,-16.208603 5.96783,-22.559673 C 123.12659,14.328334 128.22961,12.985336 134,14.5 Z"
       sodipodi:nodetypes="cccccccccccccccccccccccccccccccccccccccccccccccccccccc" />
  </g>
</svg>
