<?xml version="1.0" encoding="UTF-8" standalone="no"?>
<svg
   xmlns:dc="http://purl.org/dc/elements/1.1/"
   xmlns:cc="http://creativecommons.org/ns#"
   xmlns:rdf="http://www.w3.org/1999/02/22-rdf-syntax-ns#"
   xmlns:svg="http://www.w3.org/2000/svg"
   xmlns="http://www.w3.org/2000/svg"
   xmlns:sodipodi="http://sodipodi.sourceforge.net/DTD/sodipodi-0.dtd"
   xmlns:inkscape="http://www.inkscape.org/namespaces/inkscape"
   inkscape:version="1.0 (4035a4fb49, 2020-05-01)"
   sodipodi:docname="u1b032.svg"
   id="svg6"
   height="200"
   width="200"
   viewBox="0 0 200 200"
   version="1.1">
  <metadata
     id="metadata12">
    <rdf:RDF>
      <cc:Work
         rdf:about="">
        <dc:format>image/svg+xml</dc:format>
        <dc:type
           rdf:resource="http://purl.org/dc/dcmitype/StillImage" />
      </cc:Work>
    </rdf:RDF>
  </metadata>
  <defs
     id="defs10" />
  <sodipodi:namedview
     inkscape:current-layer="svg6"
     inkscape:window-maximized="1"
     inkscape:window-y="28"
     inkscape:window-x="0"
     inkscape:cy="136.3111"
     inkscape:cx="131.80451"
     inkscape:zoom="1.9905056"
     showgrid="false"
     id="namedview8"
     inkscape:window-height="846"
     inkscape:window-width="1440"
     inkscape:pageshadow="2"
     inkscape:pageopacity="0"
     guidetolerance="10"
     gridtolerance="10"
     objecttolerance="10"
     borderopacity="1"
     bordercolor="#666666"
     pagecolor="#ffffff" />
  <g
     id="g4"
     fill="black">
    <path
       sodipodi:nodetypes="ccssssssccsssssccccsscsssssccsscssccsscccccccs"
       d="m 90.1,104.8 c -2.975866,4.40878 -5.556949,9.45702 -5.239735,14.92318 C 89.10835,109.4318 97.942788,100.4382 108.8,98.3 c 12.87224,-2.53503 19.52799,2.27236 26.07704,11.82445 6.31744,9.21427 8.72196,21.03624 6.92296,32.07555 -1.36187,8.35693 -4.76054,16.19733 -10.13284,22.07226 -5.56576,6.08649 -12.80901,10.32769 -20.44505,13.35852 -7.77827,3.08728 -16.024855,4.76857 -24.322479,5.59784 C 77.679965,184.15004 68.422868,183.69255 59.2,182.9 L 60.7,169 c 11.195494,0.9357 22.538591,1.24499 33.601594,-1.0277 10.572806,-2.17199 21.579196,-6.12822 28.513276,-14.83629 3.21399,-4.03625 4.48121,-9.06243 5.18513,-14.13601 0.94433,-6.80634 -0.70354,-14.48031 -4.33319,-20.55132 -3.1311,-5.23713 -9.99501,-7.93976 -15.59261,-4.68158 C 98.358922,119.42205 94.648025,130.91122 94,141.4 89.413423,140.97747 84.262191,141.02687 80.021168,140.31554 66.093071,131.23456 70.648683,104.71778 78.530951,97.103358 81.986142,99.506967 86.644812,102.39639 90.1,104.8 Z m 9.223189,-73.627011 c 1.498091,2.6574 3.539491,7.133776 2.282571,13.786233 -2.51737,13.323608 -6.753941,21.770482 -14.338835,32.743378 -6.210286,8.894473 -13.733989,16.804071 -22.260862,23.4922 -6.360271,4.98873 -13.190177,9.4097 -20.658935,12.51961 -8.655516,3.60407 -13.969699,5.7767 -19.353134,0.0736 -2.43534,-2.57996 -3.222155,-6.17752 -3.023487,-9.93177 C 22.34007,96.872536 26.489814,90.804999 30.806942,85.656518 36.088962,79.357335 42.142206,73.758733 48,68 l 9.9,9.9 c -6.821263,6.963215 -14.361743,13.456909 -19.880038,21.55015 -1.728457,2.53499 0.579128,1.47071 2.648464,0.45371 C 51.433328,94.613304 61.1339,87.213514 69.079208,78.208954 77.862123,68.190888 85.010971,56.273519 87.894143,43.176919 c 0.39999,-1.816922 0.252872,-3.403085 -0.635031,-4.975011 -3.603317,-6.379243 -12.55963,-9.059591 -19.505715,-9.227172 0.340468,-5.784153 0.790099,-10.678201 1.067884,-13.833417 12.750045,0.738376 25.535727,7.222376 30.501908,16.03167 z M 129.7,50.8 c 25.5133,2.033478 35.84571,12.300721 48.9,29 -3.76667,2.766667 -7.53333,5.533333 -11.3,8.3 -22.61333,-6.46172 -40.36203,-6.15863 -57.8,-2.3 -1.03333,-4.566667 -2.06667,-9.133333 -3.1,-13.7 13.02772,-2.775639 26.49193,-3.888551 39.76064,-2.418691 C 133.89312,63.603965 119.61414,63.667836 106.5,66.6 c -1.03333,-4.566667 -2.06667,-9.133333 -3.1,-13.7 8.65759,-1.824519 17.46624,-2.804074 26.3,-2.1 z"
       id="path2" />
  </g>
</svg>
