<?xml version="1.0" encoding="UTF-8" standalone="no"?>
<svg
   xmlns:dc="http://purl.org/dc/elements/1.1/"
   xmlns:cc="http://creativecommons.org/ns#"
   xmlns:rdf="http://www.w3.org/1999/02/22-rdf-syntax-ns#"
   xmlns:svg="http://www.w3.org/2000/svg"
   xmlns="http://www.w3.org/2000/svg"
   xmlns:sodipodi="http://sodipodi.sourceforge.net/DTD/sodipodi-0.dtd"
   xmlns:inkscape="http://www.inkscape.org/namespaces/inkscape"
   inkscape:version="1.0 (4035a4fb49, 2020-05-01)"
   sodipodi:docname="u1b03a.svg"
   id="svg6"
   height="200"
   width="200"
   viewBox="0 0 200 200"
   version="1.1">
  <metadata
     id="metadata12">
    <rdf:RDF>
      <cc:Work
         rdf:about="">
        <dc:format>image/svg+xml</dc:format>
        <dc:type
           rdf:resource="http://purl.org/dc/dcmitype/StillImage" />
      </cc:Work>
    </rdf:RDF>
  </metadata>
  <defs
     id="defs10" />
  <sodipodi:namedview
     inkscape:current-layer="svg6"
     inkscape:window-maximized="1"
     inkscape:window-y="28"
     inkscape:window-x="0"
     inkscape:cy="45.772338"
     inkscape:cx="115.40657"
     inkscape:zoom="1.9905056"
     showgrid="false"
     id="namedview8"
     inkscape:window-height="846"
     inkscape:window-width="1440"
     inkscape:pageshadow="2"
     inkscape:pageopacity="0"
     guidetolerance="10"
     gridtolerance="10"
     objecttolerance="10"
     borderopacity="1"
     bordercolor="#666666"
     pagecolor="#ffffff" />
  <g
     id="g4"
     fill="black">
    <path
       sodipodi:nodetypes="scccccccccccccccccccsccccccccccccccc"
       d="m 133.2318,28.607711 c -0.48893,5.409915 -2.34423,10.653694 -4.48505,15.64841 7.89986,-3.645809 18.71459,-8.139763 26.84232,-11.289481 1.67276,4.682209 2.67829,8.081902 4.31093,13.73336 -5.92239,1.371016 -11.87531,4.039513 -15.11799,9.463364 -5.53665,8.898958 -3.23676,19.738886 -3.46494,29.630432 0.14116,9.10641 0.1766,18.215534 0.15268,27.322774 17.62079,1.51019 20.84762,2.39117 36.09739,10.21204 -2.58964,4.42635 -3.77985,7.49435 -5.86284,11.07319 -11.29035,-5.87499 -21.0646,-7.05923 -30.39641,-7.28422 -0.6694,14.94244 -1.26974,38.00755 -6.07327,52.34165 -4.57723,-0.2594 -8.75826,-0.15729 -14.89788,-0.10532 -10.05994,-8.7952 -28.099272,-34.74239 -37.039535,-54.66172 10.921227,-5.96668 30.442325,-9.31177 44.160915,-10.73268 2.05246,-19.08781 -1.6161,-38.741695 0.76115,-53.555399 C 121.10915,64.098687 114.35278,68.448027 107.7,72.9 c -2.37038,-3.99304 -5.3273,-8.05335 -7.5,-11.9 7.81403,-7.14924 13.44018,-16.528805 17.4,-26.3 2.59284,-6.353886 -3.22739,-7.594074 -5.35321,-8.343537 L 120,14.2 c 6.71871,2.157793 13.9299,6.683437 13.2318,14.407711 z M 55.9,38.3 C 51.612326,69.214159 41.111856,108.44424 44.294457,141.18547 48.720922,128.62702 53.88762,116.34822 59.1,104.1 c 4.3,1.83333 8.6,3.66667 12.9,5.5 -8.129894,20.83271 -16.466428,38.0315 -20.219926,57.71122 C 48.486716,170.47414 45.193358,173.63707 41.9,176.8 21.293977,147.48538 31.608588,96.404173 36.321761,66.057066 37.707268,56.535323 42.514897,40.331754 41.484158,37.668317 39.6528,34.254786 35.595102,32.983329 32.1,32 l 3.6,-13.6 c 10.085021,3.278528 21.356938,10.519148 20.2,19.9 z m 46.53432,94.39237 c 6.42504,11.00452 13.05284,21.23301 21.62072,30.76572 3.14486,-11.92591 2.67887,-23.933 3.26347,-36.18629 -8.41645,0.11163 -17.09945,2.17747 -24.88419,5.42057 z"
       id="path2" />
  </g>
</svg>
