<?xml version="1.0" encoding="UTF-8" standalone="no"?>
<svg
   xmlns:dc="http://purl.org/dc/elements/1.1/"
   xmlns:cc="http://creativecommons.org/ns#"
   xmlns:rdf="http://www.w3.org/1999/02/22-rdf-syntax-ns#"
   xmlns:svg="http://www.w3.org/2000/svg"
   xmlns="http://www.w3.org/2000/svg"
   xmlns:sodipodi="http://sodipodi.sourceforge.net/DTD/sodipodi-0.dtd"
   xmlns:inkscape="http://www.inkscape.org/namespaces/inkscape"
   inkscape:version="1.0 (4035a4fb49, 2020-05-01)"
   sodipodi:docname="u1b03c.svg"
   id="svg6"
   height="200"
   width="200"
   viewBox="0 0 200 200"
   version="1.1">
  <metadata
     id="metadata12">
    <rdf:RDF>
      <cc:Work
         rdf:about="">
        <dc:format>image/svg+xml</dc:format>
        <dc:type
           rdf:resource="http://purl.org/dc/dcmitype/StillImage" />
      </cc:Work>
    </rdf:RDF>
  </metadata>
  <defs
     id="defs10" />
  <sodipodi:namedview
     inkscape:current-layer="svg6"
     inkscape:window-maximized="1"
     inkscape:window-y="28"
     inkscape:window-x="0"
     inkscape:cy="82.482532"
     inkscape:cx="125.96885"
     inkscape:zoom="1.9905056"
     showgrid="false"
     id="namedview8"
     inkscape:window-height="846"
     inkscape:window-width="1440"
     inkscape:pageshadow="2"
     inkscape:pageopacity="0"
     guidetolerance="10"
     gridtolerance="10"
     objecttolerance="10"
     borderopacity="1"
     bordercolor="#666666"
     pagecolor="#ffffff" />
  <g
     id="g4"
     fill="black">
    <path
       sodipodi:nodetypes="asccccccccccccccacscccccccccccccccc"
       d="m 86.159836,53.929252 c 2.140655,3.458854 2.80045,8.130015 1.792132,12.070748 -6.221539,24.315176 -15.332336,45.32302 -19.925336,68.78185 -1.710229,8.65009 -4.269963,23.16356 -3.012707,26.0838 C 66.79119,164.08682 76.191112,164.91801 81.9,166 c 17.808223,1.58949 34.70158,0.30807 52.49896,-0.89324 -4.70538,-14.91368 -10.03162,-28.91556 -15.69315,-43.48529 4.36667,-1.56667 9.08922,-3.54481 13.45589,-5.11148 4.22083,13.10871 19.65599,51.1566 21.00647,60.98269 -19.15887,2.8336 -43.50564,3.86058 -64.312677,3.03203 -8.811949,-0.59637 -17.84275,-1.38057 -26.093184,-4.67703 C 54.397353,173.05214 50.830934,168.36674 51.010586,161.6083 51.150625,142.35657 55.85918,123.38265 60.76288,104.82849 64.513136,90.91033 69.331461,77.25237 73.8,63.6 75.378156,58.170893 65.043919,52.43178 59.207085,50.969218 60.519082,46.455089 61.3218,42.407351 62.5,37.4 73.174169,40.198662 81.096911,45.748616 86.159836,53.929252 Z M 139.23961,29.264323 c 2.21634,3.598886 3.13316,6.965506 1.59405,10.438063 -3.34577,7.548738 -9.48356,14.591851 -12.34418,23.538872 -0.91521,2.903236 1.32801,3.255423 3.36518,3.770047 5.62796,1.348933 13.31782,2.73737 17.24999,7.500152 4.64622,6.371729 4.52788,12.074485 -0.023,18.022821 -6.73176,8.446492 -16.71023,13.319892 -25.92909,18.546812 -7.61121,4.09024 -15.44468,7.74284 -23.35251,11.21891 -1.9,-4.23333 -3.8,-8.46667 -5.7,-12.7 13.4155,-6.25667 27.12462,-12.306144 39.13512,-21.06494 1.5875,-1.439474 3.77376,-2.470212 4.43948,-4.506374 -0.39913,-2.238095 -3.5593,-1.788418 -5.31341,-2.52652 -7.75972,-1.37076 -18.23048,-6.214929 -17.90161,-14.127666 0.27672,-6.10801 1.99717,-12.310465 4.82355,-17.736183 2.51992,-4.782852 4.44199,-7.968237 7.59999,-12.354791 C 129.33159,33.457502 118.35086,27.587854 112.3,27 c 0.43333,-4.633333 0.86667,-9.266667 1.3,-13.9 11.49865,1.348007 21.84431,8.707965 25.63961,16.164323 z"
       id="path2" />
  </g>
</svg>
