<?xml version="1.0" encoding="UTF-8" standalone="no"?>
<svg
   xmlns:dc="http://purl.org/dc/elements/1.1/"
   xmlns:cc="http://creativecommons.org/ns#"
   xmlns:rdf="http://www.w3.org/1999/02/22-rdf-syntax-ns#"
   xmlns:svg="http://www.w3.org/2000/svg"
   xmlns="http://www.w3.org/2000/svg"
   xmlns:sodipodi="http://sodipodi.sourceforge.net/DTD/sodipodi-0.dtd"
   xmlns:inkscape="http://www.inkscape.org/namespaces/inkscape"
   inkscape:version="1.0 (4035a4fb49, 2020-05-01)"
   sodipodi:docname="u1b113.svg"
   id="svg6"
   height="200"
   width="200"
   viewBox="0 0 200 200"
   version="1.1">
  <metadata
     id="metadata12">
    <rdf:RDF>
      <cc:Work
         rdf:about="">
        <dc:format>image/svg+xml</dc:format>
        <dc:type
           rdf:resource="http://purl.org/dc/dcmitype/StillImage" />
      </cc:Work>
    </rdf:RDF>
  </metadata>
  <defs
     id="defs10" />
  <sodipodi:namedview
     inkscape:current-layer="svg6"
     inkscape:window-maximized="1"
     inkscape:window-y="28"
     inkscape:window-x="0"
     inkscape:cy="110.93434"
     inkscape:cx="54.806225"
     inkscape:zoom="1.9905056"
     showgrid="false"
     id="namedview8"
     inkscape:window-height="846"
     inkscape:window-width="1440"
     inkscape:pageshadow="2"
     inkscape:pageopacity="0"
     guidetolerance="10"
     gridtolerance="10"
     objecttolerance="10"
     borderopacity="1"
     bordercolor="#666666"
     pagecolor="#ffffff" />
  <g
     id="g4"
     fill="black">
    <path
       sodipodi:nodetypes="sccccccsssszccssscsccccccsscccccccccssscccccsssccsscccscccccccc"
       d="m 107.25217,32.883575 c 0.79157,4.304961 -0.48802,15.387263 -0.23747,21.700184 3.47416,-2.021952 7.18775,-4.514522 10.4853,-7.083759 2.96667,3.633333 5.93333,7.266667 8.9,10.9 -5.92402,4.605079 -12.49882,8.49006 -19.78677,10.45898 -0.15879,7.093596 -0.25945,14.188216 -0.30056,21.283502 13.65181,-0.369839 4.24799,21.763708 0.84464,28.481428 5.15344,-3.74778 9.52062,-7.91581 15.40868,-10.34591 12.47402,-5.14824 27.8916,-3.46015 37.29768,5.9165 6.84561,6.82419 10.6457,17.72839 11.17228,26.31777 1.00184,16.34162 -4.00253,28.98504 -12.33595,36.18773 -13.3932,11.57592 -30.68719,8.50644 -40.23615,0.32878 -9.54896,-8.17766 -11.00413,-19.1359 -9.70283,-25.57771 -0.56055,-0.4253 7.68459,1.88668 12.93898,3.24893 -1.22838,5.33376 3.0708,9.41999 7.16759,12.46488 6.33938,4.71166 13.62332,5.03985 20.22478,-0.81811 6.76872,-6.00638 8.09433,-14.06014 8.25413,-22.03481 0.2357,-11.76271 -6.29474,-23.71024 -17.55095,-25.03039 -6.45753,-0.85072 -12.86541,1.81802 -17.94297,5.79154 -5.23081,4.09345 -10.65086,7.93945 -15.85258,12.06975 V 146 c -4.54914,0.10123 -7.820359,0.006 -11.74735,0.27788 C 90.070978,149.71907 85.844399,153.11565 81.9,156.9 L 72,147 c 2.28338,-2.72867 4.134048,-5.82945 6.250919,-8.70131 -5.301886,-5.34202 -10.355717,-12.05422 -10.583823,-19.87672 -0.186466,-6.39453 3.978577,-11.6507 8.690282,-15.7208 4.789499,-4.137299 9.934577,-7.329115 15.444659,-9.996154 1.185879,-1.894387 0.184681,-5.062472 0.551188,-7.432336 -0.0018,-4.800121 0.160862,-9.597257 0.294615,-14.394917 C 84.283011,70.823382 76.081923,68.761073 68.3,65.8 l 5.2,-13 c 6.181873,2.485929 12.784206,4.063661 19.467891,4.095371 C 93.17556,50.133082 93.412915,43.338234 93.7,36.6 94.026482,34.032745 86.899296,32.173019 83.1,31 l 3.6,-13.6 c 9.559253,1.80799 19.18106,8.02677 20.55217,15.483575 z m -52.808031,6.521566 c 0.07507,4.200334 -0.75435,7.926479 -1.352373,10.261096 C 45.591879,78.944963 41.158452,109.29434 42.475,139.61 45.722715,131.38706 48.874277,123.1227 52.6,115.1 l 12.7,5.7 c -7.099693,16.69002 -16.497166,39.50992 -16.7,56 -4.433333,1.43333 -8.866667,2.86667 -13.3,4.3 -4.466203,-14.4701 -6.565786,-29.55626 -6.947751,-44.6759 -0.708027,-28.02643 3.539177,-55.943964 9.549811,-83.258011 0.803468,-3.651187 1.698764,-5.647374 1.764279,-9.852515 C 39.722819,39.688367 34.449162,37.914479 31.1,37 l 3.6,-13.6 c 10.084991,3.278511 19.640156,10.187087 19.744139,16.005141 z M 81.71934,117.00649 c -1.935621,3.15935 2.458083,6.76446 4.557548,9.40433 1.824375,-3.2678 4.622625,-6.21063 5.726482,-9.75563 -0.238317,-2.2397 0.550806,-6.44948 -0.304001,-7.50707 -5.141832,1.82239 -8.271647,5.06992 -9.980029,7.85837 z M 154.4,36 c 9.07024,2.10313 17.62545,8.337825 20.17645,17.621788 C 175.58021,56.635438 175.82376,59.84263 176,63 h -14 c 0.22156,-5.223765 -2.45801,-10.726709 -7.71981,-12.336279 -1.62525,-1.462421 -6.02598,-0.438387 -6.15885,-2.545057 C 148.71423,43.812443 149.30711,39.506221 149.9,35.2 Z"
       id="path2" />
  </g>
</svg>
