<?xml version="1.0" encoding="UTF-8" standalone="no"?>
<svg
   xmlns:dc="http://purl.org/dc/elements/1.1/"
   xmlns:cc="http://creativecommons.org/ns#"
   xmlns:rdf="http://www.w3.org/1999/02/22-rdf-syntax-ns#"
   xmlns:svg="http://www.w3.org/2000/svg"
   xmlns="http://www.w3.org/2000/svg"
   xmlns:sodipodi="http://sodipodi.sourceforge.net/DTD/sodipodi-0.dtd"
   xmlns:inkscape="http://www.inkscape.org/namespaces/inkscape"
   inkscape:version="1.0 (4035a4fb49, 2020-05-01)"
   sodipodi:docname="u1b115.svg"
   id="svg6"
   height="200"
   width="200"
   viewBox="0 0 200 200"
   version="1.1">
  <metadata
     id="metadata12">
    <rdf:RDF>
      <cc:Work
         rdf:about="">
        <dc:format>image/svg+xml</dc:format>
        <dc:type
           rdf:resource="http://purl.org/dc/dcmitype/StillImage" />
      </cc:Work>
    </rdf:RDF>
  </metadata>
  <defs
     id="defs10" />
  <sodipodi:namedview
     inkscape:current-layer="svg6"
     inkscape:window-maximized="1"
     inkscape:window-y="28"
     inkscape:window-x="0"
     inkscape:cy="128.82314"
     inkscape:cx="148.39398"
     inkscape:zoom="2.815"
     showgrid="false"
     id="namedview8"
     inkscape:window-height="846"
     inkscape:window-width="1440"
     inkscape:pageshadow="2"
     inkscape:pageopacity="0"
     guidetolerance="10"
     gridtolerance="10"
     objecttolerance="10"
     borderopacity="1"
     bordercolor="#666666"
     pagecolor="#ffffff" />
  <g
     id="g4"
     fill="black">
    <path
       sodipodi:nodetypes="aascsssccssssssccacccccsccssscccccccssssccssssscssccccccccccccsscccccc"
       d="m 156,67.7 c 6.1299,0.846123 13.02696,4.771225 15.28764,10.531515 3.62698,9.241643 -1.71557,20.338073 -6.48764,29.068485 -1.13275,2.07235 -4.82105,5.4241 -3.47161,6.91887 9.93826,4.44016 17.92829,13.95713 18.46005,25.13662 0.14313,3.0091 -0.0907,5.99833 -0.97653,9.07566 -2.91312,10.11966 -11.89257,16.96976 -20.69416,21.95016 C 144.62167,178.0181 129.5908,182.42933 114.7,186.5 c -1.16667,-4.53333 -2.33333,-9.06667 -3.5,-13.6 15.38489,-4.15409 31.09736,-8.66122 44.53715,-17.44681 5.53267,-3.6167 11.38826,-9.37329 9.86646,-16.81586 -1.73215,-8.47132 -10.21962,-12.18133 -17.06983,-14.90894 -6.13687,-2.44357 -6.12769,-9.49664 -1.83694,-14.78197 C 152.34611,101.98768 160.18837,91.91871 158.7,84.7 158.12889,81.930066 153.4693,81.299158 150.78858,81.634421 144.8359,82.378888 139.65833,85.777433 134.8,89.1 l -8.1,-11.4 c 8.47787,-6.03336 19.0771,-11.411088 29.3,-10 z M 99.049947,38.995005 C 106.8807,37.889807 114.50434,35.238711 121.2,31 l 7.5,11.9 c -8.63911,5.095667 -18.18766,8.823275 -28.19101,9.985316 0.25647,2.929231 0.56638,5.854074 0.78295,8.786581 2.53091,0.754267 6.0717,3.181024 6.64544,5.204086 1.5276,5.386453 -2.00974,8.355767 -5.49311,12.601231 0.2195,3.572929 0.33272,7.150034 0.41055,10.728531 9.5583,-0.491984 20.56184,1.035927 26.95044,8.699518 4.32591,5.189237 4.57708,13.171257 3.53281,19.038737 -0.74358,4.17798 -2.76454,7.85684 -5.87496,11.13274 -6.33342,6.67038 -17.20877,7.99855 -24.86658,6.22553 0.022,5.21687 0.35182,8.94517 0.27425,12.89596 L 89,148 c -0.119523,-5.81496 -0.08299,-11.63092 -0.12308,-17.44641 -7.479057,-3.47971 -15.015956,-11.62701 -20.724519,-17.82633 -1.340067,0.60264 -2.183498,0.89709 -3.509957,1.49748 -1.381426,-2.96263 -3.582703,-6.68647 -5.213972,-9.36756 -3.100931,-3.59295 -7.430032,-9.016267 -12.467273,-7.381619 -5.613328,1.821596 -8.341856,8.637009 -10.198822,13.623909 -2.76856,7.435 -4.555061,16.03111 -3.862377,23.50057 0.240716,2.59573 5.376727,-0.32736 7.40748,-1.33821 C 49.263204,128.80391 56.278035,121.37766 63,114.1 c 3.533333,3.06667 7.066667,6.13333 10.6,9.2 -7.867677,8.65771 -16.506905,16.94056 -26.973686,22.39033 -14.03349,7.30686 -24.571654,4.61607 -27.461189,-10.54606 -1.01859,-5.3448 -0.302095,-12.2746 1.201237,-18.15117 1.710956,-6.68818 4.148757,-14.64227 7.920098,-19.97279 C 33.096148,90.222159 39.620339,83.275461 48.44181,83.385792 56.062423,83.481103 62.804758,87.94638 68.012,93.196 74.740909,87.492025 82.544532,82.604738 87.516456,75.310127 89.309693,72.679161 83.04775,74.15549 81.322069,74.828395 78.276728,76.015883 74.795955,77.704032 72,79.9 L 63.4,68.8 C 70.236468,63.677765 78.404139,59.934348 87.055221,59.762655 86.766601,56.941664 86.547294,55.881423 86.373407,53.57452 76.546268,52.983118 64.210094,50.73332 54.8,47.9 L 59,34.6 c 8.474788,2.521494 17.191068,4.334203 26.026142,4.900458 C 84.0953,31.623886 83.044478,23.762141 82,15.9 L 95.9,14 c 1.103078,8.327053 2.288347,17.543166 3.149947,24.995005 z m 3.344523,65.244725 c 0.21565,5.74392 0.14092,11.49433 0.34237,17.23908 4.97511,1.8512 11.89654,2.30377 15.32692,-2.42439 2.39975,-3.30762 2.95955,-9.10944 0.0468,-11.89647 -3.95142,-3.78087 -10.43728,-3.17841 -15.71613,-2.91822 z m -13.604966,1.89321 c -3.655275,0.73407 -4.513701,1.14634 -7.15611,2.08618 1.20814,1.1296 5.340558,4.24218 7.352564,5.29727 -0.14457,-2.32235 -0.08153,-5.27153 -0.196454,-7.38345 z"
       id="path2" />
  </g>
</svg>
