<?xml version="1.0" encoding="UTF-8" standalone="no"?>
<svg
   xmlns:dc="http://purl.org/dc/elements/1.1/"
   xmlns:cc="http://creativecommons.org/ns#"
   xmlns:rdf="http://www.w3.org/1999/02/22-rdf-syntax-ns#"
   xmlns:svg="http://www.w3.org/2000/svg"
   xmlns="http://www.w3.org/2000/svg"
   xmlns:sodipodi="http://sodipodi.sourceforge.net/DTD/sodipodi-0.dtd"
   xmlns:inkscape="http://www.inkscape.org/namespaces/inkscape"
   inkscape:version="1.0 (4035a4fb49, 2020-05-01)"
   sodipodi:docname="u1b116.svg"
   id="svg6"
   height="200"
   width="200"
   viewBox="0 0 200 200"
   version="1.1">
  <metadata
     id="metadata12">
    <rdf:RDF>
      <cc:Work
         rdf:about="">
        <dc:format>image/svg+xml</dc:format>
        <dc:type
           rdf:resource="http://purl.org/dc/dcmitype/StillImage" />
      </cc:Work>
    </rdf:RDF>
  </metadata>
  <defs
     id="defs10" />
  <sodipodi:namedview
     inkscape:current-layer="svg6"
     inkscape:window-maximized="1"
     inkscape:window-y="28"
     inkscape:window-x="0"
     inkscape:cy="51.165036"
     inkscape:cx="120.33528"
     inkscape:zoom="1.4075"
     showgrid="false"
     id="namedview8"
     inkscape:window-height="846"
     inkscape:window-width="1440"
     inkscape:pageshadow="2"
     inkscape:pageopacity="0"
     guidetolerance="10"
     gridtolerance="10"
     objecttolerance="10"
     borderopacity="1"
     bordercolor="#666666"
     pagecolor="#ffffff" />
  <g
     id="g4"
     fill="black">
    <path
       sodipodi:nodetypes="scscccccccsssccssssssccsssscssccccssccsccs"
       d="m 131.2,56.3 c 14.13217,0 41.8399,8.024753 27.73839,22.006649 -7.19926,7.725963 -17.55693,11.43318 -27.36441,14.7005 C 123.84385,95.582407 115.79376,97.313528 107.9,99.1 c -0.98661,9.27458 -1.16139,18.60812 -1.18295,27.92732 13.93196,8e-5 27.00084,3.74515 38.28295,9.67268 -2.03333,4.16667 -4.06667,8.33333 -6.1,12.5 -10.9854,-5.94959 -20.9099,-7.44533 -31.9,-8.12941 -0.33504,12.54904 1.89934,25.66699 -2.67078,37.69048 -1.01523,2.49269 -2.54299,4.68305 -4.12922,6.83893 -10.399467,-8.51908 -19.159524,-14.91907 -28.841761,-22.24975 -8.955194,-6.78021 -16.175556,-13.4913 -14.401858,-19.88706 1.984648,-7.15642 12.838469,-11.82164 23.10778,-14.27522 4.152875,-0.99222 8.366775,-1.89323 12.656469,-1.96134 0.180337,-13.17392 -0.114334,-26.62621 3.310655,-39.446741 14.965775,-4.467581 33.266045,-7.525139 46.028205,-14.003358 2.31827,-1.176783 -3.5589,-2.094237 -5.04765,-2.438402 -8.72672,-2.017423 -21.77185,-0.273991 -31.15805,1.988465 C 88.283632,77.561713 74.934348,81.42589 59.656847,91.347833 54.377324,94.776609 48.480474,96.63731 45.038104,94.920468 38.479235,91.649307 38.124379,84.220759 41.171037,74.585857 42.790182,69.465393 46.522205,65.27676 50,61.2 l 10.6,9 c -1.212098,1.579598 -2.450706,3.150934 -3.601241,4.778942 -2.359924,3.339291 -1.36605,2.435816 1.21812,1.040148 C 75.041499,66.932384 82.399441,63.498933 100.87735,58.982392 106.9618,57.495175 124.85508,56.3 131.2,56.3 Z m -39.9,85 c -5.750778,0.97979 -11.621199,2.02619 -16.911232,4.55661 -2.055403,0.98318 -1.560079,1.18924 -0.0806,2.27094 6.294565,4.60216 12.585347,9.20877 18.848414,13.8525 C 93.337628,155.0549 92.956279,148.13103 93,141.20556 c -0.566667,0.0315 -1.133333,0.063 -1.7,0.0944 z M 119.97392,31.211926 c 0.0824,1.999274 -0.0256,6.367682 -5.72414,10.113182 C 102.51448,49.038459 88.484563,52.449733 75.4,57.5 L 70.5,44.4 c 10.917463,-4.050186 21.846408,-8.127043 32.36632,-13.129474 2.02634,-0.963564 1.76267,-1.987407 -4.013923,-3.563657 C 99.728943,23.861377 100.62345,19.245492 101.5,15.4 c 10.24622,2.552924 18.12323,7.298994 18.47392,15.811926 z"
       id="path2" />
  </g>
</svg>
