<?xml version="1.0" encoding="UTF-8" standalone="no"?>
<svg
   xmlns:dc="http://purl.org/dc/elements/1.1/"
   xmlns:cc="http://creativecommons.org/ns#"
   xmlns:rdf="http://www.w3.org/1999/02/22-rdf-syntax-ns#"
   xmlns:svg="http://www.w3.org/2000/svg"
   xmlns="http://www.w3.org/2000/svg"
   xmlns:sodipodi="http://sodipodi.sourceforge.net/DTD/sodipodi-0.dtd"
   xmlns:inkscape="http://www.inkscape.org/namespaces/inkscape"
   inkscape:version="1.0 (4035a4fb49, 2020-05-01)"
   sodipodi:docname="u1b11b.svg"
   id="svg6"
   height="200"
   width="200"
   viewBox="0 0 200 200"
   version="1.1">
  <metadata
     id="metadata12">
    <rdf:RDF>
      <cc:Work
         rdf:about="">
        <dc:format>image/svg+xml</dc:format>
        <dc:type
           rdf:resource="http://purl.org/dc/dcmitype/StillImage" />
      </cc:Work>
    </rdf:RDF>
  </metadata>
  <defs
     id="defs10" />
  <sodipodi:namedview
     inkscape:current-layer="svg6"
     inkscape:window-maximized="1"
     inkscape:window-y="28"
     inkscape:window-x="0"
     inkscape:cy="106.96727"
     inkscape:cx="49.20591"
     inkscape:zoom="2.815"
     showgrid="false"
     id="namedview8"
     inkscape:window-height="846"
     inkscape:window-width="1440"
     inkscape:pageshadow="2"
     inkscape:pageopacity="0"
     guidetolerance="10"
     gridtolerance="10"
     objecttolerance="10"
     borderopacity="1"
     bordercolor="#666666"
     pagecolor="#ffffff" />
  <g
     id="g4"
     fill="black">
    <path
       sodipodi:nodetypes="ccccccccsccccccssccccssssccsssccccccscccccc"
       d="M 96.9,17.3 C 96.534601,26.939346 93.772575,36.69479 91.508848,42.337593 99.165149,41.141182 108.33873,37.765445 114.8,34.7 l 6.3,12.5 C 109.60544,52.881992 97.009684,56.51062 84.156953,56.963484 79.731188,64.700252 73.767528,71.421241 67.429146,77.642714 85.464335,73.038893 103.212,67.338881 120.6,60.7 c 1.56984,4.484741 3.66672,9.390237 4.93047,13.608874 -4.38037,11.796746 -15.01486,19.584079 -24.76289,26.804486 -3.083493,2.28396 -6.269337,4.43572 -9.515134,6.48439 4.46118,2.37491 8.273103,5.82958 11.407554,9.77225 17.42457,-7.68973 35.21986,-14.54075 53.32191,-20.467863 1.07572,-0.293866 0.76812,-1.751586 0.0575,-2.239078 C 154.14177,93.425215 151.91719,92.655196 149.8,91.9 L 154,78.6 c 8.36098,2.398574 17.07564,6.84176 19.37531,15.826629 1.9491,7.615201 -4.43744,12.713171 -8.99112,14.421341 -18.24269,6.84319 -36.79873,12.84335 -54.60396,20.7605 2.20036,5.12832 3.56638,10.56312 4.81977,15.99153 -4.56667,0.93333 -9.13333,1.86667 -13.7,2.8 -0.930057,-4.28815 -2.057891,-8.52259 -3.653773,-12.61456 -7.686157,4.14171 -15.443088,8.58078 -21.610369,14.79678 -2.894681,2.91755 -6.718669,7.2456 -4.488049,11.48454 2.174557,4.1324 7.74849,4.63437 11.959397,5.46667 15.506713,3.06497 31.514824,1.40357 47.132004,-0.18833 3.59621,-0.36657 7.17386,-0.89673 10.76079,-1.3451 0.63333,4.63333 1.26667,9.26667 1.9,13.9 -21.20906,2.5388 -42.966039,5.36379 -64.1,1.1 -5.421265,-1.09374 -10.891907,-2.84093 -15.304695,-6.27793 -9.407564,-7.32729 -7.25391,-23.11115 -0.642454,-30.41501 7.956701,-8.78999 17.259273,-15.46935 26.996085,-20.53153 C 85.017219,118.82536 77.99376,116.74272 71.2,116.9 L 70.7,103 C 82.214547,98.138679 94.075065,89.28923 102.60843,81.889552 78.568264,89.902815 53.845315,96.243568 28.6,98.9 28.102285,94.238745 27.846898,89.535252 27.2,84.9 38.405815,81.729463 48.71889,75.784602 57.260689,67.916092 61.224135,64.265056 64.947447,60.303402 68.024252,55.85401 59.265797,54.42401 50.803481,51.507199 42.8,47.7 l 6.1,-12.6 c 8.513325,4.062481 17.629221,6.838592 27.037024,7.724786 3.960747,-8.086964 6.176156,-16.89022 7.010315,-25.835903 C 88.055786,16.915202 92.033675,17.054933 96.9,17.3 Z"
       id="path2" />
  </g>
</svg>
