<?xml version="1.0" encoding="UTF-8" standalone="no"?>
<svg
   xmlns:dc="http://purl.org/dc/elements/1.1/"
   xmlns:cc="http://creativecommons.org/ns#"
   xmlns:rdf="http://www.w3.org/1999/02/22-rdf-syntax-ns#"
   xmlns:svg="http://www.w3.org/2000/svg"
   xmlns="http://www.w3.org/2000/svg"
   xmlns:sodipodi="http://sodipodi.sourceforge.net/DTD/sodipodi-0.dtd"
   xmlns:inkscape="http://www.inkscape.org/namespaces/inkscape"
   inkscape:version="1.0 (4035a4fb49, 2020-05-01)"
   sodipodi:docname="u1b110.svg"
   id="svg6"
   height="200"
   width="200"
   viewBox="0 0 200 200"
   version="1.1">
  <metadata
     id="metadata12">
    <rdf:RDF>
      <cc:Work
         rdf:about="">
        <dc:format>image/svg+xml</dc:format>
        <dc:type
           rdf:resource="http://purl.org/dc/dcmitype/StillImage" />
      </cc:Work>
    </rdf:RDF>
  </metadata>
  <defs
     id="defs10" />
  <sodipodi:namedview
     inkscape:current-layer="svg6"
     inkscape:window-maximized="1"
     inkscape:window-y="28"
     inkscape:window-x="0"
     inkscape:cy="72.435788"
     inkscape:cx="128.06935"
     inkscape:zoom="1.9905056"
     showgrid="false"
     id="namedview8"
     inkscape:window-height="846"
     inkscape:window-width="1440"
     inkscape:pageshadow="2"
     inkscape:pageopacity="0"
     guidetolerance="10"
     gridtolerance="10"
     objecttolerance="10"
     borderopacity="1"
     bordercolor="#666666"
     pagecolor="#ffffff" />
  <g
     id="g4"
     fill="black">
    <path
       sodipodi:nodetypes="sscsscssscscsssccssscsccccccssccsssscccsccsssscs"
       d="m 114.04087,31.702677 c 0.37519,3.875148 -1.49004,6.646704 -2.57695,9.620301 -1.37596,3.764416 -3.3238,7.275338 -5.08135,10.869548 9.45474,-1.33839 15.38173,-2.134148 24.53099,0.270594 4.96294,1.304434 12.51769,9.345535 4.88953,16.440307 -5.88222,5.470918 -7.22967,7.373171 -9.39638,12.834537 -0.42585,2.091985 2.03748,2.567982 3.85884,2.875951 3.03833,0.513745 3.84913,0.412037 5.5267,0.964564 7.3568,2.423045 8.16302,8.238136 5.7003,12.119627 -1.93099,3.043434 -7.10417,6.452114 -8.80461,7.914234 10.95528,-2.62154 22.64593,-0.0406 30.58745,4.7465 6.06788,3.6577 9.96613,9.99199 12.037,16.64867 3.37289,15.65174 0.80096,32.37388 -12.78412,41.11396 C 140.99569,181.97465 109.68838,183.07585 86.3,170.9 64.206767,159.39839 76.732761,134.85745 99.08268,135.75034 c 17.01355,0.6797 27.27238,11.16273 37.11732,20.64966 -5.44016,4.76822 -6.1361,5.18804 -9.57898,7.60241 -8.70509,-6.12215 -15.96198,-14.00119 -26.2525,-14.32707 -10.549072,-0.33407 -16.638768,4.31455 -4.490262,10.43531 17.478972,8.80639 40.480672,7.67513 55.577332,-1.38845 11.27314,-6.76805 13.08983,-15.42406 10.48381,-27.49559 -1.24027,-6.23829 -6.68286,-10.77128 -12.87903,-11.68816 -9.84002,-1.45609 -19.9679,-0.12225 -29.53225,2.35627 -3.41208,1.21763 -7.38604,2.20056 -9.82813,5.00528 -4.06566,-3.62021 -7.81768,-6.79381 -10.712475,-8.9739 6.178765,-8.42979 14.470135,-15.48792 22.735885,-21.801652 -3.09308,-1.707375 -6.61104,-3.504165 -7.93254,-6.977634 -1.88967,-2.562532 -1.51592,-6.118065 -1.34116,-9.098779 0.97209,-4.929325 3.60186,-9.216917 6.67639,-13.112246 0.99965,-1.266521 0.57811,-2.36145 -1.10957,-2.248194 -6.96964,0.467716 -13.81051,2.101112 -20.573994,3.814245 -8.946734,14.338607 -19.554584,27.616163 -31.722375,39.35691 -7.182344,6.84552 -10.54338,9.02303 -18.421619,15.06129 -15.896063,12.18349 -22.753605,-1.78406 -20.014386,-15.26663 1.248543,-6.14539 4.584115,-11.038263 8.73998,-15.981854 3.838609,-4.5662 8.186359,-8.777831 12.724426,-12.638606 6.038712,-5.137453 12.583717,-9.568993 19.456108,-13.51902 5.560427,-3.210473 14.209253,-6.700186 20.124837,-9.167765 3.088164,-5.09761 5.351468,-10.17819 8.031017,-15.451363 1.347358,-2.646741 0.83278,-2.34618 -1.510918,-1.831927 C 78.387646,42.674949 61.236447,41.734729 44.7,39 l 2.4,-13.8 c 20.541688,3.541376 28.0231,3.071539 48.579753,-0.930037 15.647177,-3.045892 17.767647,1.303085 18.361117,7.432714 z M 41.960465,107.46058 c -2.577178,4.12032 -1.447238,3.64635 1.585616,1.23447 9.198124,-7.31482 24.661147,-21.045844 31.7291,-31.809 -11.965737,6.404956 -26.660393,19.935795 -33.314716,30.57453 z"
       id="path2" />
  </g>
</svg>
