<?xml version="1.0" encoding="UTF-8" standalone="no"?>
<svg
   xmlns:dc="http://purl.org/dc/elements/1.1/"
   xmlns:cc="http://creativecommons.org/ns#"
   xmlns:rdf="http://www.w3.org/1999/02/22-rdf-syntax-ns#"
   xmlns:svg="http://www.w3.org/2000/svg"
   xmlns="http://www.w3.org/2000/svg"
   xmlns:sodipodi="http://sodipodi.sourceforge.net/DTD/sodipodi-0.dtd"
   xmlns:inkscape="http://www.inkscape.org/namespaces/inkscape"
   inkscape:version="1.0 (4035a4fb49, 2020-05-01)"
   sodipodi:docname="u1b114.svg"
   id="svg6"
   height="200"
   width="200"
   viewBox="0 0 200 200"
   version="1.1">
  <metadata
     id="metadata12">
    <rdf:RDF>
      <cc:Work
         rdf:about="">
        <dc:format>image/svg+xml</dc:format>
        <dc:type
           rdf:resource="http://purl.org/dc/dcmitype/StillImage" />
      </cc:Work>
    </rdf:RDF>
  </metadata>
  <defs
     id="defs10" />
  <sodipodi:namedview
     inkscape:current-layer="svg6"
     inkscape:window-maximized="1"
     inkscape:window-y="28"
     inkscape:window-x="0"
     inkscape:cy="161.0787"
     inkscape:cx="106.04588"
     inkscape:zoom="3.9810112"
     showgrid="false"
     id="namedview8"
     inkscape:window-height="846"
     inkscape:window-width="1440"
     inkscape:pageshadow="2"
     inkscape:pageopacity="0"
     guidetolerance="10"
     gridtolerance="10"
     objecttolerance="10"
     borderopacity="1"
     bordercolor="#666666"
     pagecolor="#ffffff" />
  <g
     id="g4"
     fill="black">
    <path
       sodipodi:nodetypes="sscsssscscccccccccccccssssccsssccsccssssssccsscssccssccccscssssccccc"
       d="m 98.256975,24.820415 c 3.280655,4.945739 1.913915,15.164532 1.328682,20.558365 -1.654666,15.250228 -2.646535,26.812688 -2.896748,39.654553 9.628481,-6.233969 20.511941,-11.557242 30.820661,-13.824833 9.41837,-2.071741 20.04592,-2.18979 28.19974,1.547022 12.81918,5.874896 18.87723,20.646458 14.51592,32.779888 -4.98667,13.87321 -17.01165,20.4593 -30.18624,20.76459 -20.21564,0.46845 -35.66969,-9.04944 -44.452431,-22.48462 -1.366192,22.02995 -0.571494,44.10738 -1.01795,66.15578 -0.122186,6.03421 -1.888746,14.25174 -6.076923,19.01348 C 78.568867,176.84499 71.751191,173.7833 56.3,169.7 c 0.5578,-2.32197 0.716823,-2.9508 1.373348,-5.86113 C 50.084853,167.4355 41.870379,172.82767 36.4,177.5 c -4.342334,-0.59055 -8.954201,-0.6235 -13.4,-1 0.889104,-14.61793 9.066262,-27.75427 19.3,-37.8 l 9.9,9.9 c -1.033412,1.19454 -6.624902,6.39672 -2.995733,4.21808 C 58.627342,147.73327 68.250498,143.02471 78,138.6 c 0.871228,1.97199 1.600582,3.62297 2.555595,5.56549 -0.08367,-10.20668 0.311151,-22.7404 0.647496,-32.93977 -15.059752,9.86894 -31.922501,20.22975 -45.138948,32.55888 -4.289829,-2.74056 -8.302311,-5.25118 -11.680543,-7.1958 9.511013,-15.82623 18.81261,-31.82163 29.366793,-46.978234 1.761719,-2.529961 1.184115,-2.180011 -1.256101,-2.346531 C 47.297908,86.909435 41.9965,85.210671 38.841423,80.882468 37.273262,78.731231 36.357877,75.583687 36.528768,72.901976 36.858177,67.732716 39.91299,63.39103 43.3,59.7 l 9.9,9.9 c -2.784926,2.146509 -2.986323,4.025003 1.07174,3.779034 6.002175,-0.363806 6.101876,-1.794064 11.596448,-1.364386 7.928973,0.620049 9.3658,7.620278 6.035822,13.992692 -5.09323,9.746662 -9.19901,15.38774 -15.218737,24.55764 8.345757,-5.64745 16.789838,-11.147343 25.3312,-16.494225 C 83.220982,73.480943 85.014233,55.05756 87.36543,34.569957 87.863244,30.23216 77.852082,25.731442 72.3,25 l 1.3,-13.9 c 11.245352,1.334055 19.716902,6.27303 24.656975,13.720415 z M 135.08078,138.34762 c 7.95216,-2.77618 15.89549,-5.9121 24.56223,-4.33721 9.37397,1.70341 16.33412,7.33733 18.28952,16.28937 0.40661,1.86149 0.37396,8.02467 -2.4985,11.15935 -7.28347,7.94835 -15.57679,11.32164 -24.62472,14.70225 -9.84842,3.6797 -20.10514,6.14379 -30.30931,8.63862 -1.03333,-4.56667 -2.06667,-9.13333 -3.1,-13.7 14.2056,-3.40238 28.8362,-6.59992 41.6,-13.9 2.02516,-1.15826 5.27948,-2.47042 3.2,-5.6 -3.42279,-5.15121 -9.8462,-4.36414 -14.67489,-2.76808 -5.12939,1.73383 -7.15899,3.23758 -12.32771,4.85464 -3.83058,1.19842 -8.22463,1.39544 -13.17657,-3.26586 -6.13256,-5.77263 -11.43832,-6.19978 -15.54769,-5.62918 -0.28677,-3.06615 -0.88638,-10.82537 -1.17314,-13.89152 8.42876,-1.62772 18.13647,1.13838 23.98811,6.49658 2.28361,2.09104 3.27877,1.82866 5.79267,0.95104 z m -66.561016,20.28392 c 4.102154,1.38578 8.20085,2.82182 12.145229,4.61908 0.06765,-3.4763 -0.0063,-6.95279 -0.02515,-10.42921 -4.091207,1.88388 -8.536772,4.05017 -12.120079,5.81013 z M 132.7,84.2 c -9.12665,1.789981 -17.79877,5.58856 -25.51141,10.850707 2.94481,8.927163 19.37274,17.778133 29.60023,17.349293 7.63923,-0.32031 16.60527,-2.49966 19.85895,-9.84977 2.8324,-6.398426 -0.24606,-14.708505 -7.10672,-17.338516 C 144.09651,83.124565 138.23015,83.115389 132.7,84.2 Z M 75.4,49.1 72.5,62.8 C 56.901172,59.984395 42.862115,50.45129 35.748654,37.304698 c 4.94574,-2.39004 8.541473,-4.29938 13.245685,-6.38056 C 54.088943,40.989478 66.364738,47.04487 75.4,49.1 Z"
       id="path2" />
  </g>
</svg>
