<?xml version="1.0" encoding="UTF-8" standalone="no"?>
<svg
   xmlns:dc="http://purl.org/dc/elements/1.1/"
   xmlns:cc="http://creativecommons.org/ns#"
   xmlns:rdf="http://www.w3.org/1999/02/22-rdf-syntax-ns#"
   xmlns:svg="http://www.w3.org/2000/svg"
   xmlns="http://www.w3.org/2000/svg"
   xmlns:sodipodi="http://sodipodi.sourceforge.net/DTD/sodipodi-0.dtd"
   xmlns:inkscape="http://www.inkscape.org/namespaces/inkscape"
   inkscape:version="1.0 (4035a4fb49, 2020-05-01)"
   sodipodi:docname="u1b118.svg"
   id="svg6"
   height="200"
   width="200"
   viewBox="0 0 200 200"
   version="1.1">
  <metadata
     id="metadata12">
    <rdf:RDF>
      <cc:Work
         rdf:about="">
        <dc:format>image/svg+xml</dc:format>
        <dc:type
           rdf:resource="http://purl.org/dc/dcmitype/StillImage" />
      </cc:Work>
    </rdf:RDF>
  </metadata>
  <defs
     id="defs10" />
  <sodipodi:namedview
     inkscape:current-layer="svg6"
     inkscape:window-maximized="1"
     inkscape:window-y="28"
     inkscape:window-x="0"
     inkscape:cy="84.581546"
     inkscape:cx="95.742085"
     inkscape:zoom="2.815"
     showgrid="false"
     id="namedview8"
     inkscape:window-height="846"
     inkscape:window-width="1440"
     inkscape:pageshadow="2"
     inkscape:pageopacity="0"
     guidetolerance="10"
     gridtolerance="10"
     objecttolerance="10"
     borderopacity="1"
     bordercolor="#666666"
     pagecolor="#ffffff" />
  <g
     id="g4"
     fill="black">
    <path
       sodipodi:nodetypes="sscccccccccccscccssscsscsssccssccsccccccsccsssccsccc"
       d="m 128.18915,72.332447 c 1.2114,5.736725 -0.85224,8.690628 -2.442,10.771458 -2.80392,3.670044 -6.61383,8.273023 -9.39687,11.465894 4.43627,1.033409 5.76092,1.2121 10.35246,1.945334 -2.16717,4.131877 2.63866,1.941544 3.98194,3.014554 0.87178,4.423433 1.74355,8.846873 2.61532,13.270313 -3.49555,0.67671 -6.99767,1.64047 -10.50288,2.4225 -1.07187,5.55621 -1.95646,11.14632 -2.8163,16.7387 4.71875,-0.30013 9.30989,-1.41327 13.92635,-2.36508 -1.5668,-1.5227 -3.78353,-2.46126 -5.62784,-3.69567 1.84022,-4.10015 3.68045,-8.2003 5.52067,-12.30045 16.15436,7.78875 15.95343,12.20327 19.79878,25.63124 -10.36208,2.97924 -24.60843,6.29863 -36.58477,7.0996 -0.39293,4.38267 -1.69572,11.6455 0.98599,13.46916 6.62758,4.50698 39.27677,2.61866 44.21936,-2.81936 6.75125,-8.0208 2.19421,-19.46874 0.0806,-27.98064 4.43333,-1.36667 8.86667,-2.73333 13.3,-4.1 3.19429,10.84053 6.56449,23.03364 1.92366,33.77081 -6.61818,15.31201 -25.14659,16.80707 -37.13448,16.98239 -11.3546,0.16606 -26.45865,1.53296 -33.23788,-7.47217 -4.53195,-6.01998 -5.65028,-14.50281 -4.35397,-20.98049 -5.317989,-0.4052 -10.470608,-0.85993 -15.74556,-2.27101 -10.705764,-2.86385 -15.409338,-12.03363 -8.728377,-22.34483 4.454721,-6.87529 11.519115,-8.21207 16.62754,-12.99411 -1.366375,-1.69038 -4.622661,-3.70351 -2.961558,-10.241459 1.480228,-5.826042 6.68174,-8.710288 11.754505,-12.895749 3.79446,-3.130754 6.61482,-5.542279 9.84328,-9.265328 C 116.0502,74.347679 109.31143,73.224567 106.5,73 l 0.9,-14 c 9.48529,0.950753 19.22088,5.90567 20.78915,13.332447 z M 76.3,36 c 5.363664,0.443014 22.456731,-6.345333 33.6,-9.8 1.41769,4.503817 2.70587,9.230482 4.2,13.6 C 88.791464,77.067418 67.229575,116.67968 45.161221,155.90154 42.098835,161.34429 39.123743,166.83569 36.1,172.3 c -4.225036,-2.03985 -8.072077,-4.98781 -12.6,-6.3 1.901282,-7.01006 -0.416834,-14.21634 -2.2,-21 4.433333,-1.36667 8.866667,-2.73333 13.3,-4.1 0,0 0.519215,1.24519 1.083133,2.69461 C 55.322699,110.39693 75.247987,74.085708 93.263336,45.740999 84.936514,47.389274 77.194892,52.865601 69.5,48.5 62.13742,44.322932 57.186018,36.986414 54.6,29.1 l 13.3,-4.4 c 1.721445,4.501219 4.433271,10.972367 8.4,11.3 z m 14.804615,93.22193 c -2.013303,1.79778 -1.874748,2.17332 0.399326,2.88324 4.523276,1.41209 9.403749,0.9142 14.126519,1.25542 0.59419,-4.51475 1.24175,-9.02573 2.06567,-13.50531 -5.97633,2.1355 -12.342885,5.57283 -16.591515,9.36665 z m 20.313125,-27.96268 c 0.22492,-1.09439 0.46771,-2.027106 0.68505,-3.350135 -3.29573,1.923614 -5.1931,3.919685 -0.68505,3.350135 z"
       id="path2" />
  </g>
</svg>
