<?xml version="1.0" encoding="UTF-8" standalone="no"?>
<svg
   xmlns:dc="http://purl.org/dc/elements/1.1/"
   xmlns:cc="http://creativecommons.org/ns#"
   xmlns:rdf="http://www.w3.org/1999/02/22-rdf-syntax-ns#"
   xmlns:svg="http://www.w3.org/2000/svg"
   xmlns="http://www.w3.org/2000/svg"
   xmlns:sodipodi="http://sodipodi.sourceforge.net/DTD/sodipodi-0.dtd"
   xmlns:inkscape="http://www.inkscape.org/namespaces/inkscape"
   inkscape:version="1.0 (4035a4fb49, 2020-05-01)"
   sodipodi:docname="u1b119.svg"
   id="svg6"
   height="200"
   width="200"
   viewBox="0 0 200 200"
   version="1.1">
  <metadata
     id="metadata12">
    <rdf:RDF>
      <cc:Work
         rdf:about="">
        <dc:format>image/svg+xml</dc:format>
        <dc:type
           rdf:resource="http://purl.org/dc/dcmitype/StillImage" />
      </cc:Work>
    </rdf:RDF>
  </metadata>
  <defs
     id="defs10" />
  <sodipodi:namedview
     inkscape:current-layer="svg6"
     inkscape:window-maximized="1"
     inkscape:window-y="28"
     inkscape:window-x="0"
     inkscape:cy="118.1874"
     inkscape:cx="65.25033"
     inkscape:zoom="2.815"
     showgrid="false"
     id="namedview8"
     inkscape:window-height="846"
     inkscape:window-width="1440"
     inkscape:pageshadow="2"
     inkscape:pageopacity="0"
     guidetolerance="10"
     gridtolerance="10"
     objecttolerance="10"
     borderopacity="1"
     bordercolor="#666666"
     pagecolor="#ffffff" />
  <g
     id="g4"
     fill="black">
    <path
       sodipodi:nodetypes="sccccccccccssssccssscccscccccccccsssascsssssccsssscccssccsssssscs"
       d="m 143.3018,28.465351 c 0.48579,7.384842 -0.84649,15.140959 -1.77493,22.332116 C 150.39845,49.614095 159.37135,49.636317 168.3,50 c -0.23333,4.633333 -0.46667,9.266667 -0.7,13.9 -9.51074,-0.392992 -19.04776,-0.0533 -28.47433,1.315224 -1.54664,8.242343 -3.72242,16.36821 -6.55915,24.26111 C 145.46035,86.299094 158.07646,82.071783 170.5,77.4 c 1.63333,4.366667 3.26667,8.733333 4.9,13.1 -7.5953,4.519928 -13.87057,11.07424 -20.40611,17.00856 -8.94131,8.43941 -17.35202,17.41656 -25.62169,26.50903 2.72538,0.8172 3.72046,5.14801 5.40228,5.75426 7.32906,-7.90773 16.53119,-13.43333 27.48231,-12.93012 6.65522,0.3058 14.0692,4.38572 17.14987,10.47204 2.49903,4.93721 3.20747,10.71 2.04275,15.81562 -2.95984,12.97469 -15.06557,20.88833 -25.76708,27.39966 -4.08217,2.4838 -8.4079,4.53635 -12.68233,6.67095 -2.03333,-4.16667 -4.06667,-8.33333 -6.1,-12.5 10.56587,-5.61242 22.16331,-10.96615 29.33634,-20.91359 2.34252,-3.24857 3.13731,-9.54201 -0.53634,-11.58641 -6.05059,-3.36718 -13.83286,0.76291 -18.64536,5.12809 -3.72644,3.38007 -7.28752,7.52551 -9.17221,12.14679 -5.19749,0.28307 -10.15254,0.1522 -14.09711,0.0136 C 123.48318,155.75997 123.2122,148.71919 121.4,145.6 c -4.91826,2.71866 -8.60972,7.10997 -12.22305,11.06615 C 103.32208,163.07657 97.901324,169.86791 92.3,176.5 c -3.566667,-3.03333 -7.133333,-6.06667 -10.7,-9.1 19.05607,-22.43927 38.27706,-44.7991 59.17518,-65.56005 C 123.24879,106.42389 104.90834,109.6713 86.8,107 l 2.3,-13.8 c 8.740426,1.160599 17.79449,0.983336 26.4,-0.5 4.36958,-7.468468 6.70235,-15.875419 8.61806,-24.251883 -14.2929,3.882844 -27.661099,11.118108 -38.776121,20.804943 -3.600607,2.990192 -6.926308,5.91365 -10.418459,8.982352 6.409491,17.879098 9.055873,32.902418 2.611264,52.220078 -4.114675,12.3337 -13.755915,23.29812 -26.831804,25.96877 -7.047769,1.43945 -15.990507,1.58792 -21.994653,-3.72231 -5.794207,-5.12456 -6.639814,-13.69352 -5.810871,-20.86567 2.061151,-17.83342 13.84923,-33.76146 25.902447,-47.21838 2.722688,-3.03977 5.60333,-5.931049 8.393704,-8.906906 C 54.857433,92.459781 51.37178,90.189357 49.1,86.9 43.802067,79.229014 43.489321,75.792785 47.315174,66.41012 50.147195,59.464766 54.252355,53.102466 58.956954,47.289945 60.588987,45.273572 59.331672,44.918421 57.978206,45.611703 50.073801,49.660556 45.296195,55.525738 36.4,52.7 27.179115,49.771129 20.517046,41.793196 18.4,32.6 L 32,29.2 c 0.883316,4.543056 4.946903,10.709722 8.636998,10.149894 10.852236,-1.646404 20.256711,-12.601447 31.451195,-9.910558 9.126469,2.193787 6.701703,11.559952 2.077624,19.553063 -6.417421,11.093053 -9.817926,12.251594 -14.591154,24.267171 -1.543862,3.88634 2.365287,6.276732 8.324972,12.48599 10.593,-9.71962 21.90917,-18.425777 35.095605,-24.393178 7.69184,-3.487431 15.70635,-6.329474 23.97552,-8.089709 0.95171,-6.221195 1.56967,-12.495883 2.3714,-18.735532 0.25754,-2.004362 0.22181,-2.694749 -1.34017,-3.633484 C 124.53139,28.807862 120.15948,28.530507 116.2,28 c 0.46667,-4.633333 0.93333,-9.266667 1.4,-13.9 10.82688,1.649012 24.95237,2.972706 25.7018,14.365351 z M 60.6,112.3 c -11.28455,12.51458 -23.791399,26.81737 -24.3,44.1 -0.08364,2.842 0.961184,7.08192 4.822628,7.03549 6.894614,-0.0829 14.130582,-2.27291 18.415699,-8.12398 5.170154,-7.05954 7.162867,-16.22118 7.683532,-24.52264 0.467002,-7.44588 -0.547414,-15.04633 -3.128319,-22.0899 -1.164513,1.20034 -2.373592,2.35901 -3.49354,3.60103 z"
       id="path2" />
  </g>
</svg>
