<?xml version="1.0" encoding="UTF-8" standalone="no"?>
<svg
   xmlns:dc="http://purl.org/dc/elements/1.1/"
   xmlns:cc="http://creativecommons.org/ns#"
   xmlns:rdf="http://www.w3.org/1999/02/22-rdf-syntax-ns#"
   xmlns:svg="http://www.w3.org/2000/svg"
   xmlns="http://www.w3.org/2000/svg"
   xmlns:sodipodi="http://sodipodi.sourceforge.net/DTD/sodipodi-0.dtd"
   xmlns:inkscape="http://www.inkscape.org/namespaces/inkscape"
   inkscape:version="1.0 (4035a4fb49, 2020-05-01)"
   sodipodi:docname="u1b11c.svg"
   id="svg6"
   height="200"
   width="200"
   viewBox="0 0 200 200"
   version="1.1">
  <metadata
     id="metadata12">
    <rdf:RDF>
      <cc:Work
         rdf:about="">
        <dc:format>image/svg+xml</dc:format>
        <dc:type
           rdf:resource="http://purl.org/dc/dcmitype/StillImage" />
      </cc:Work>
    </rdf:RDF>
  </metadata>
  <defs
     id="defs10" />
  <sodipodi:namedview
     inkscape:current-layer="svg6"
     inkscape:window-maximized="1"
     inkscape:window-y="28"
     inkscape:window-x="0"
     inkscape:cy="100.32759"
     inkscape:cx="100.48957"
     inkscape:zoom="2.815"
     showgrid="false"
     id="namedview8"
     inkscape:window-height="846"
     inkscape:window-width="1440"
     inkscape:pageshadow="2"
     inkscape:pageopacity="0"
     guidetolerance="10"
     gridtolerance="10"
     objecttolerance="10"
     borderopacity="1"
     bordercolor="#666666"
     pagecolor="#ffffff" />
  <g
     id="g4"
     fill="black">
    <path
       sodipodi:nodetypes="csccccccccsccccscccccccccscccccc"
       d="m 54.1,40.95 c 0.321017,-3.789862 2.088103,-7.420539 4.849569,-9.798732 C 65.478835,25.52822 79.417347,31.177748 85.9,33 c -0.633917,4.584279 -1.294891,9.545493 -1.9,13.9 -3.698305,2.129824 -9.666036,5.498575 -13.808819,6.928299 6.016309,14.333813 19.808741,34.831876 34.748579,45.746417 0.33653,-4.771699 0.75644,-12.755577 1.31627,-17.43606 4.32896,0.335542 9.88607,0.798925 13.37585,0.949061 -0.10269,1.363608 -0.36534,3.976584 -0.40331,5.056705 11.17088,-9.041049 22.68873,-17.743545 33.05458,-27.707692 2.90549,-3.152784 6.17297,-6.367906 8.21685,-10.23673 0.85192,-1.612577 3.74698,-6.195145 0.2,-5.3 -5.42385,0.929676 -10.77035,2.241575 -16.1,3.6 -1.13333,-4.533333 -2.26667,-9.066667 -3.4,-13.6 8.94787,-1.896493 18.25848,-5.181454 27.3,-3.6 14.85344,6.258397 9.37121,24.102792 -3.28093,35.798984 -14.85003,13.728021 -30.79146,26.813489 -46.34838,39.149266 0.17208,2.73175 0.80559,5.48753 2.22931,7.85175 -3.87835,2.74224 -7.91926,5.42292 -11.7,8.2 -1.98583,-0.85483 -4.00175,-5.27193 -5.96143,-3.42299 -7.763913,6.8014 -15.654756,13.58933 -22.287591,21.51247 -2.958504,4.05885 -6.557183,8.49322 -6.601861,13.65552 0.841578,3.07876 4.662574,4.20689 7.42824,5.01767 C 98.277169,162.34654 113.0049,160.55438 128,159 c 0.63333,4.63333 1.26667,9.26667 1.9,13.9 -21.99671,1.98186 -48.721609,5.13423 -62.377572,-5.52714 -7.725386,-6.0313 -9.531161,-18.23515 -1.849825,-29.34453 7.690359,-11.82516 17.696165,-20.12816 28.220485,-29.3768 C 78.145748,92.814696 62.843243,74.660246 55.617674,55.119207 39.56744,53.483361 31.512919,45.913154 21.8,34.8 l 11.4,-8.1 c 5.218834,7.003728 13.626262,12.908217 20.9,14.25 z"
       id="path2" />
  </g>
</svg>
