<?xml version="1.0" encoding="UTF-8" standalone="no"?>
<svg
   xmlns:dc="http://purl.org/dc/elements/1.1/"
   xmlns:cc="http://creativecommons.org/ns#"
   xmlns:rdf="http://www.w3.org/1999/02/22-rdf-syntax-ns#"
   xmlns:svg="http://www.w3.org/2000/svg"
   xmlns="http://www.w3.org/2000/svg"
   xmlns:sodipodi="http://sodipodi.sourceforge.net/DTD/sodipodi-0.dtd"
   xmlns:inkscape="http://www.inkscape.org/namespaces/inkscape"
   inkscape:version="1.0 (4035a4fb49, 2020-05-01)"
   sodipodi:docname="u1b11e.svg"
   id="svg6"
   height="200"
   width="200"
   viewBox="0 0 200 200"
   version="1.1">
  <metadata
     id="metadata12">
    <rdf:RDF>
      <cc:Work
         rdf:about="">
        <dc:format>image/svg+xml</dc:format>
        <dc:type
           rdf:resource="http://purl.org/dc/dcmitype/StillImage" />
      </cc:Work>
    </rdf:RDF>
  </metadata>
  <defs
     id="defs10" />
  <sodipodi:namedview
     inkscape:current-layer="svg6"
     inkscape:window-maximized="1"
     inkscape:window-y="28"
     inkscape:window-x="0"
     inkscape:cy="92.963021"
     inkscape:cx="9.291421"
     inkscape:zoom="1.9905056"
     showgrid="false"
     id="namedview8"
     inkscape:window-height="846"
     inkscape:window-width="1440"
     inkscape:pageshadow="2"
     inkscape:pageopacity="0"
     guidetolerance="10"
     gridtolerance="10"
     objecttolerance="10"
     borderopacity="1"
     bordercolor="#666666"
     pagecolor="#ffffff" />
  <g
     id="g4"
     fill="black">
    <path
       sodipodi:nodetypes="cccccccccsaaccssaacccccccccc"
       d="m 62.7,23.2 c 16.123796,7.865913 30.835302,6.262268 44.12579,4.393339 8.11162,-1.674159 12.29613,9.123566 6.56844,12.428269 C 107.21912,43.99788 94.640733,51.576173 88.159593,65.213263 86.923804,67.5795 86.045321,69.870822 89.209673,69.9 97.058834,69.96937 104.82604,67.788992 112.2,66.2 c 1.15488,4.480977 2.37616,9.128635 3.5,13.5 -4.46093,1.006524 -7.24233,5.281593 -10.8,7.9 -14.409305,13.82444 -27.449936,28.97361 -40.483773,44.07618 17.843834,-4.72285 32.068161,1.62396 42.521503,13.32802 6.76055,7.56944 12.48039,18.5607 22.42305,20.5966 8.20849,1.6808 16.56653,-3.97347 23.70564,-8.35952 7.04584,-4.32875 12.36279,-11.013 17.93358,-17.14128 3.53333,3.06667 7.06667,6.13333 10.6,9.2 -7.99278,8.60794 -16.34723,17.23433 -26.41402,23.25818 -11.24773,6.73051 -27.41022,10.68051 -39.81925,2.60347 -9.7775,-6.36418 -13.29821,-20.07774 -23.257405,-26.15366 -5.761236,-3.51483 -12.902267,-5.79717 -19.608584,-5.04143 -11.124868,1.25368 -20.925076,8.68331 -29.850913,15.39261 C 38.580199,165.09 34.592582,170.88116 30.8,176.8 26.9,174.23333 23,171.66667 19.1,169.1 30.324466,151.88843 42.454988,135.30004 55.976022,120.02797 66.54583,107.66908 77.33943,95.481193 88.740656,83.880334 80.060101,84.346635 71.016141,80.064214 71.956406,70.444484 73.39803,57.251269 88.638815,44.704311 87.803255,42.55389 86.646462,40.253852 67.884051,43.521742 50.8,32.3 l 8,-11.5 z"
       id="path2" />
  </g>
</svg>
