<?xml version="1.0" encoding="UTF-8" standalone="no"?>
<svg
   xmlns:dc="http://purl.org/dc/elements/1.1/"
   xmlns:cc="http://creativecommons.org/ns#"
   xmlns:rdf="http://www.w3.org/1999/02/22-rdf-syntax-ns#"
   xmlns:svg="http://www.w3.org/2000/svg"
   xmlns="http://www.w3.org/2000/svg"
   xmlns:sodipodi="http://sodipodi.sourceforge.net/DTD/sodipodi-0.dtd"
   xmlns:inkscape="http://www.inkscape.org/namespaces/inkscape"
   inkscape:version="1.0 (4035a4fb49, 2020-05-01)"
   sodipodi:docname="u1b11d.svg"
   id="svg6"
   height="200"
   width="200"
   viewBox="0 0 200 200"
   version="1.1">
  <metadata
     id="metadata12">
    <rdf:RDF>
      <cc:Work
         rdf:about="">
        <dc:format>image/svg+xml</dc:format>
        <dc:type
           rdf:resource="http://purl.org/dc/dcmitype/StillImage" />
      </cc:Work>
    </rdf:RDF>
  </metadata>
  <defs
     id="defs10" />
  <sodipodi:namedview
     inkscape:current-layer="svg6"
     inkscape:window-maximized="1"
     inkscape:window-y="28"
     inkscape:window-x="0"
     inkscape:cy="108.01218"
     inkscape:cx="58.35237"
     inkscape:zoom="1.9905056"
     showgrid="false"
     id="namedview8"
     inkscape:window-height="846"
     inkscape:window-width="1440"
     inkscape:pageshadow="2"
     inkscape:pageopacity="0"
     guidetolerance="10"
     gridtolerance="10"
     objecttolerance="10"
     borderopacity="1"
     bordercolor="#666666"
     pagecolor="#ffffff" />
  <g
     id="g4"
     fill="black">
    <path
       sodipodi:nodetypes="ccccccssssccscsccscssccscsccccscssssccccc"
       d="m 80.144416,49.193186 c -1.459539,3.212338 8.44791,4.815723 11.425422,5.389533 -0.354625,3.856075 -0.776318,9.963105 -1.242082,13.685904 -8.878383,8.133059 -19.238754,16.194643 -26.810837,24.058306 -0.98976,0.937497 -0.470125,1.778391 0.744081,1.759134 9.743833,-0.156956 19.438204,-1.502023 29.083698,-2.816674 10.558792,-13.440371 18.895202,-27.339427 32.993442,-34.864507 11.63769,-6.211737 23.83151,-3.814884 28.44867,8.536387 1.38352,3.701014 1.42205,7.665334 0.29904,11.44821 -3.39817,11.44682 -14.3151,18.232733 -24.28079,21.689229 -10.07101,3.493022 -19.66049,4.770322 -29.46135,6.164792 -5.353826,7.62278 -10.888755,15.11495 -16.384915,22.63507 C 96.579325,123.66934 106.34632,130.03834 109,137.8 c 1.87673,5.48917 3.29121,11.04715 4.22908,16.74698 2.49217,11.13392 9.37201,13.13354 18.27092,14.15302 14.02557,1.60681 28.00818,-0.39435 41.5,-1.7 0.63333,4.63333 1.26667,9.26667 1.9,13.9 -17.43566,1.29152 -35.53148,3.61537 -51.03665,0.14788 -8.61489,-1.92659 -15.54763,-5.77491 -19.87717,-12.90425 -3.01909,-5.09282 -4.189052,-10.77299 -5.569062,-16.39391 -3.219447,-13.11314 -6.017824,-14.46116 -17.021156,-7.9377 C 63.952031,154.15386 50.118512,169.71719 35.9,183.9 L 26,174 c 9.710548,-10.12093 19.430401,-20.22094 28.385526,-31.03591 9.725495,-11.74533 19.065315,-23.80877 27.960304,-36.1914 -10.115768,0.95016 -23.550899,2.1691 -28.592531,-0.86617 C 47.302413,102.02282 44.291415,93.670599 52.545518,83.531447 59.085877,76.493607 66.609703,70.487708 73.829586,64.178994 63.203322,56.646661 64.981747,49.734173 66.997413,43.656423 Z m 43.120504,26.911817 c -3.65911,3.780771 -6.96379,7.938069 -10.19932,12.094187 4.97748,-0.517813 9.33471,-1.899626 14.1344,-3.59919 5.99764,-2.123756 12.81503,-5.745332 14.5272,-12.490413 0.64177,-2.528254 -0.95121,-5.728553 -4.19704,-5.001529 -5.67826,1.271855 -10.92903,5.549812 -14.26524,8.996945 z M 124.7,28.3 129.2,41.6 C 104.26574,48.363271 83.883385,42.558716 69,24 l 11.1,-8.6 c 13.058595,15.378766 27.67483,18.432553 44.6,12.9 z"
       id="path2" />
  </g>
</svg>
