<?xml version="1.0" encoding="UTF-8" standalone="no"?>
<svg
   xmlns:dc="http://purl.org/dc/elements/1.1/"
   xmlns:cc="http://creativecommons.org/ns#"
   xmlns:rdf="http://www.w3.org/1999/02/22-rdf-syntax-ns#"
   xmlns:svg="http://www.w3.org/2000/svg"
   xmlns="http://www.w3.org/2000/svg"
   xmlns:sodipodi="http://sodipodi.sourceforge.net/DTD/sodipodi-0.dtd"
   xmlns:inkscape="http://www.inkscape.org/namespaces/inkscape"
   inkscape:version="1.0 (4035a4fb49, 2020-05-01)"
   sodipodi:docname="u1b112.svg"
   id="svg6"
   height="200"
   width="200"
   viewBox="0 0 200 200"
   version="1.1">
  <metadata
     id="metadata12">
    <rdf:RDF>
      <cc:Work
         rdf:about="">
        <dc:format>image/svg+xml</dc:format>
        <dc:type
           rdf:resource="http://purl.org/dc/dcmitype/StillImage" />
      </cc:Work>
    </rdf:RDF>
  </metadata>
  <defs
     id="defs10" />
  <sodipodi:namedview
     inkscape:current-layer="svg6"
     inkscape:window-maximized="1"
     inkscape:window-y="28"
     inkscape:window-x="0"
     inkscape:cy="123.16641"
     inkscape:cx="103.92876"
     inkscape:zoom="2.815"
     showgrid="false"
     id="namedview8"
     inkscape:window-height="846"
     inkscape:window-width="1440"
     inkscape:pageshadow="2"
     inkscape:pageopacity="0"
     guidetolerance="10"
     gridtolerance="10"
     objecttolerance="10"
     borderopacity="1"
     bordercolor="#666666"
     pagecolor="#ffffff" />
  <g
     id="g4"
     fill="black">
    <path
       sodipodi:nodetypes="scccccssscccssccssccsccsccssscsscscasscccccccsccsccsccccccccccccc"
       d="m 91.789453,24.487932 c 1.341322,4.06227 1.056794,8.517932 -0.266823,12.513078 C 101.82929,35.864232 111.91292,33.370855 121.8,30.3 c 1.43333,4.433333 2.86667,8.866667 4.3,13.3 -13.68986,4.348775 -27.831413,7.540211 -42.24,7.9 -0.44201,0.65397 -0.849681,1.264742 -0.932187,1.76146 9.606601,-0.646311 20.027507,-1.716115 28.332187,-1.083761 14.52717,1.106161 26.42085,2.015498 32.11058,14.953301 6.52323,14.833107 2.27592,36.21833 -9.90265,46.73213 -9.56116,8.25418 -26.05294,13.94823 -37.074663,17.3035 -6.360232,5.64221 -15.034623,12.47775 -21.37678,17.08115 9.267202,2.58675 17.096312,9.01372 22.582788,16.80729 C 104.24531,154.25815 114.45909,146.054 125.6,140.4 c 8.90134,-4.51742 20.16116,-1.5761 27.6556,4.70842 10.30082,8.63784 17.75482,19.96487 23.9444,31.69158 -4.16667,2.1 -8.33333,4.2 -12.5,6.3 -5.90624,-10.79889 -12.0926,-22.61061 -23.11955,-28.87594 -3.82754,-2.17475 -8.6957,-2.32923 -12.60761,0.4465 -9.31537,6.60979 -19.93956,16.94279 -22.67284,28.64957 C 101.31074,182.96221 97.008342,182.85222 92,182.6 85.414277,162.79971 62.97327,155.64848 52.110517,164.99372 46.514091,169.80833 40.75887,174.89783 37.4,181.6 c -4.3,-1.76667 -8.6,-3.53333 -12.9,-5.3 5.599737,-12.20789 16.735576,-20.50226 26.950523,-28.68976 8.467868,-6.78718 18.666988,-12.11689 25.967876,-18.3392 -4.19361,-0.57273 -11.492536,-3.85584 -14.120725,-5.73819 -7.493459,2.32105 -15.765264,4.85938 -23.340901,2.5253 -8.789336,-2.70803 -12.362178,-12.5384 -7.525387,-20.45202 1.935232,-3.16629 6.438393,-7.076355 9.747123,-8.947465 2.737783,-1.548236 9.493099,-4.593575 11.713183,-5.014718 1.62367,-4.836877 4.693238,-9.562658 9.910784,-14.672599 8.228155,-8.05846 20.017047,-9.724374 28.676692,0.691668 3.568065,4.29176 3.290458,8.19601 4.216788,11.504106 10.335844,2.250904 17.143754,7.128203 18.036524,14.042188 0.44707,3.46225 0.32791,5.52794 -1.04264,8.05226 4.99816,-2.31596 10.59887,-5.39259 13.69056,-10.16116 C 131.8382,94.22477 134.45288,85.512446 132.7,77.1 131.30788,70.418942 123.5088,68.185577 117.54821,67.111776 104.64284,64.786873 91.3651,66.343884 78.5,68.4 c -2.215054,0.646592 -4.664675,1.160458 -6.6,2.3 L 60,63.2 C 62.618555,59.05089 65.208009,54.883312 67.866067,50.75927 60.881247,49.921977 54.043138,48.193066 47.4,45.9 l 4.9,-13.2 c 7.55048,2.779253 15.488594,4.365801 23.526254,4.717404 1.328149,-1.715382 2.605044,-3.54316 2.887272,-6.322661 0.200238,-1.97203 -1.622914,-2.532575 -3.436851,-3.166851 L 80.3,14.7 c 4.829483,1.973411 9.904411,4.987542 11.489453,9.787932 z M 79.145049,116.07079 c 3.743983,1.40935 7.905928,1.40347 11.848981,1.64563 3.306269,-2.18924 9.18392,-5.19046 9.24656,-10.2663 0.0405,-3.28371 -4.238724,-4.48018 -7.269576,-5.3942 -4.371467,6.28738 -7.991966,10.37596 -13.825965,14.01487 z m -24.745158,-4.40777 c -0.504025,-1.02097 -1.352382,-3.04953 -1.48347,-4.11443 -9.599303,3.83534 -8.383927,8.08194 1.48347,4.11443 z m 12.149813,-8.89771 c -0.451802,1.48324 -0.100831,2.85754 0.07957,4.40022 2.889211,-1.53292 5.874243,-3.12415 8.315663,-5.32155 -1.81498,0.21868 -6.580257,0.70266 -8.395237,0.92133 z M 71.08432,88.200456 c 2.786306,-0.486953 9.15469,-0.668149 11.968499,-0.76559 -2.574725,-5.908057 -9.869193,-1.573141 -11.968499,0.76559 z"
       id="path2" />
  </g>
</svg>
