<?xml version="1.0" encoding="UTF-8" standalone="no"?>
<svg
   xmlns:dc="http://purl.org/dc/elements/1.1/"
   xmlns:cc="http://creativecommons.org/ns#"
   xmlns:rdf="http://www.w3.org/1999/02/22-rdf-syntax-ns#"
   xmlns:svg="http://www.w3.org/2000/svg"
   xmlns="http://www.w3.org/2000/svg"
   xmlns:sodipodi="http://sodipodi.sourceforge.net/DTD/sodipodi-0.dtd"
   xmlns:inkscape="http://www.inkscape.org/namespaces/inkscape"
   inkscape:version="1.0 (4035a4fb49, 2020-05-01)"
   sodipodi:docname="u1b0b1.svg"
   id="svg6"
   height="200"
   width="200"
   viewBox="0 0 200 200"
   version="1.1">
  <metadata
     id="metadata12">
    <rdf:RDF>
      <cc:Work
         rdf:about="">
        <dc:format>image/svg+xml</dc:format>
        <dc:type
           rdf:resource="http://purl.org/dc/dcmitype/StillImage" />
      </cc:Work>
    </rdf:RDF>
  </metadata>
  <defs
     id="defs10" />
  <sodipodi:namedview
     inkscape:current-layer="svg6"
     inkscape:window-maximized="1"
     inkscape:window-y="28"
     inkscape:window-x="0"
     inkscape:cy="100.59297"
     inkscape:cx="118.53838"
     inkscape:zoom="2.815"
     showgrid="false"
     id="namedview8"
     inkscape:window-height="846"
     inkscape:window-width="1440"
     inkscape:pageshadow="2"
     inkscape:pageopacity="0"
     guidetolerance="10"
     gridtolerance="10"
     objecttolerance="10"
     borderopacity="1"
     bordercolor="#666666"
     pagecolor="#ffffff" />
  <g
     id="g4"
     fill="black">
    <path
       sodipodi:nodetypes="ccccccccccccccccccccccccccccccccccccccccccccccccccccccccccc"
       d="m 145.19537,35.749044 c 0.63212,7.826999 -1.60593,15.524186 -3.77704,22.969209 16.5965,9.81633 32.36747,23.350264 36.67935,42.007557 5.52721,18.15149 -0.0934,36.56757 -6.73834,51.92228 4.50428,4.72551 8.30986,10.05359 12.24066,15.25191 -3.76667,2.7 -7.53333,5.4 -11.3,8.1 -3.02862,-4.00666 -6.08503,-7.99759 -9.36278,-11.80392 -17.91622,17.23425 -32.50522,22.1573 -53.33811,14.93375 -9.50893,3.70264 -22.709851,2.56514 -29.093823,-5.04759 -9.897326,-13.22059 -8.904444,-29.29268 -0.06797,-41.26508 4.249025,-5.14704 12.645042,-9.32694 19.257245,-10.50772 3.467428,-13.87936 4.628398,-40.300065 25.795198,-39.001787 17.09819,0.95596 12.96922,31.959287 11.90665,44.042447 6.19968,3.02748 17.29684,9.61744 23.13071,14.6856 3.51106,-8.60905 5.72954,-17.84569 5.67696,-27.16288 C 163.62413,87.706937 146.10884,76.202825 124.1,65.8 c 3.466,-9.367174 7.28838,-19.065375 7.19276,-29.194071 0.0963,-8.20109 -48.396087,18.973842 -50.935758,28.869547 -1.467862,21.956645 -5.93274,45.955854 -12.849722,66.837154 -1.271963,4.21222 -3.00741,8.26642 -4.485751,12.40827 2.725923,5.66564 6.119813,10.94128 9.578471,16.1791 L 61.3,169 c -1.734003,-2.62728 -3.468005,-5.25455 -5.202008,-7.88183 -2.428043,6.01868 -6.154873,13.62917 -8.417739,19.59884 C 15.008672,179.59043 16.125169,159.13819 18.435289,147.49806 22.024951,131.76329 28.340302,116.79768 35.953905,102.60989 33.135352,82.562337 33.732245,62.184586 35.9,42.1 l 13.9,1.7 C 48.445062,56.853474 47.668402,69.982281 48.245984,83.105313 53.937247,74.751323 60.238994,66.833449 66.883327,59.218625 67.293639,48.672863 66.875254,38.121731 66.1,27.6 L 80,26.3 c 0.845585,6.159686 0.998438,12.546501 1,18.835484 13.382983,-11.151331 28.79193,-21.340277 46.39284,-23.757663 10.81214,-1.133106 16.95755,3.842765 17.80253,14.371223 z M 122.89749,168.56088 c 11.78235,1.1486 23.40762,-4.89351 30.21676,-14.40052 -5.48242,-4.88746 -11.48395,-9.34365 -18.16925,-12.44036 -2.92563,9.54125 -7.03384,19.85184 -12.04751,26.84088 z M 92,165.6 c 2.670522,2.04094 6.254555,1.53732 9.39057,1.4 -3.419371,-9.65529 -3.190229,-20.09484 -2.938146,-30.20384 C 87.14335,141.7502 83.806883,159.11941 92,165.6 Z m -53.15503,-0.9214 c 3.42236,-6.28334 6.057117,-12.9393 8.958026,-19.46933 -2.957774,-6.42854 -5.110892,-13.15722 -7.262718,-19.88637 -7.612737,17.67526 -14.438316,34.69193 -1.695308,39.3557 z m 74.49051,-6.94312 c 3.8932,-6.19793 6.38088,-13.15547 8.19178,-20.21905 -3.403,-0.98435 -5.94129,-1.42901 -8.99982,-1.53383 -0.21506,7.34591 -0.22915,15.41991 0.80804,21.75288 z M 50.569603,105.48696 c 1.035172,6.61435 2.55341,13.18064 4.589817,19.55755 4.398864,-13.19648 7.293649,-26.857427 9.417248,-40.588595 -5.109758,6.909678 -10.37731,14.520796 -14.007065,21.031045 z M 121.5,98.9 c -3.61009,7.32676 -5.59238,15.30673 -7.425,23.225 3.2367,0.14175 6.3727,0.98275 9.54589,1.56559 C 123.56961,123.21928 125.0454,91.498691 121.5,98.9 Z"
       id="path2" />
  </g>
</svg>
