<?xml version="1.0" encoding="UTF-8" standalone="no"?>
<svg
   xmlns:dc="http://purl.org/dc/elements/1.1/"
   xmlns:cc="http://creativecommons.org/ns#"
   xmlns:rdf="http://www.w3.org/1999/02/22-rdf-syntax-ns#"
   xmlns:svg="http://www.w3.org/2000/svg"
   xmlns="http://www.w3.org/2000/svg"
   xmlns:sodipodi="http://sodipodi.sourceforge.net/DTD/sodipodi-0.dtd"
   xmlns:inkscape="http://www.inkscape.org/namespaces/inkscape"
   inkscape:version="1.0 (4035a4fb49, 2020-05-01)"
   sodipodi:docname="u1b0bd.svg"
   id="svg6"
   height="200"
   width="200"
   viewBox="0 0 200 200"
   version="1.1">
  <metadata
     id="metadata12">
    <rdf:RDF>
      <cc:Work
         rdf:about="">
        <dc:format>image/svg+xml</dc:format>
        <dc:type
           rdf:resource="http://purl.org/dc/dcmitype/StillImage" />
      </cc:Work>
    </rdf:RDF>
  </metadata>
  <defs
     id="defs10" />
  <sodipodi:namedview
     inkscape:current-layer="svg6"
     inkscape:window-maximized="1"
     inkscape:window-y="28"
     inkscape:window-x="0"
     inkscape:cy="81.829207"
     inkscape:cx="113.82698"
     inkscape:zoom="1.9905056"
     showgrid="false"
     id="namedview8"
     inkscape:window-height="846"
     inkscape:window-width="1440"
     inkscape:pageshadow="2"
     inkscape:pageopacity="0"
     guidetolerance="10"
     gridtolerance="10"
     objecttolerance="10"
     borderopacity="1"
     bordercolor="#666666"
     pagecolor="#ffffff" />
  <g
     id="g4"
     fill="black">
    <path
       sodipodi:nodetypes="ccccccccccccccccccccccccccccccccccccccccscccsccccccccc"
       d="m 150.64827,17.868812 c 6.39492,7.338913 7.41661,15.517664 -3.72032,21.821779 -16.8335,9.334774 -37.65866,10.871427 -55.056931,11.864341 -7.131663,7.674694 -13.398443,16.110989 -19.43412,24.656062 0,0 -8.206352,9.230696 -7.445251,11.233187 0.934753,2.670516 14.283351,0.974187 21.35958,0.472153 3.884893,-0.633801 7.816851,-1.005253 11.66488,-1.844534 0.446964,-9.196883 1.448248,-19.062242 7.305962,-26.543773 4.42656,-4.848747 10.35736,-6.028856 16.39112,-3.278406 11.89505,6.456605 17.67745,17.83727 22.18681,27.450379 -5.9934,3.632424 -12.15744,6.915562 -18.76857,9.28352 -4.32854,1.802192 -8.92481,2.855222 -13.37274,4.323327 -0.0698,3.558633 -0.13955,7.117263 -0.20933,10.675903 4.80014,-0.0358 9.51344,0.48214 14.05251,2.11087 6.74751,1.86184 9.09324,6.67669 7.21275,13.63787 -2.30344,7.78188 -9.60241,12.68284 -16.18345,16.76981 -1.74901,1.07266 -5.89635,2.34879 -4.68907,3.86984 8.92326,0.0718 17.74769,-1.46304 26.4579,-3.27114 1.03333,4.56667 2.06667,9.13333 3.1,13.7 -9.83738,1.94392 -19.79418,3.60727 -29.8478,3.55417 C 110.8515,170.99872 113.36082,181.76275 103.7,189.9 88.742586,174.48316 68.764652,160.85936 53.233186,148.90855 37.576649,134.78828 69.137658,117.43272 81.37858,113.19864 c 5.239783,-1.83851 10.668814,-3.3723 16.147995,-4.26059 0.05544,-2.84124 0.110877,-5.68247 0.166316,-8.52371 -10.419413,1.70227 -21.009928,2.72625 -31.549557,1.61893 C 50.683105,99.899243 46.802893,90.797665 51.2,82.7 58.369562,70.760683 65.447782,61.94651 73.759683,51.006058 61.810594,49.125425 48.31595,38.369444 43.195146,27.141498 47.586048,25.798907 50.890885,24.685133 56.9,22.5 61.825374,32.974847 75.365174,40.134047 85.710062,37.437409 96.20775,26.852889 106.67604,18.915807 119.21449,13.082265 c 9.90234,-4.0359015 24.18732,-3.370723 31.43378,4.786547 z M 63.598682,139.2691 c -0.328641,2.90924 22.751094,17.5471 34.059636,26.40697 0.07938,-3.11768 -0.0056,-6.23566 -0.02872,-9.35353 -5.113039,-2.09824 -8.459973,-5.98509 -8.088299,-11.81483 0.609806,-5.30435 7.89402,-10.11207 7.892554,-11.96744 -0.03217,-3.13077 -0.03852,-6.77044 -0.0077,-9.90125 -8.136894,-0.54349 -32.87927,11.63672 -33.827471,16.63008 z m 47.803308,-11.91104 c 2.22073,-1.51073 6.39628,-3.55667 6.30539,-4.99309 0.16602,-2.14659 -4.97555,-1.4597 -6.29582,-1.19492 -0.008,1.37906 -0.002,4.80895 -0.01,6.18801 z M 114.7,70.5 c -1.45357,3.847567 -2.17836,7.943669 -2.40428,12.041704 4.16339,-1.175989 8.20836,-2.683384 12.18583,-4.379706 -2.5611,-3.449187 -5.56254,-6.800078 -8.7505,-9.349177 C 115.38737,69.375214 115.04368,69.937607 114.7,70.5 Z m -6.68627,-34.526169 c 10.92716,-1.225591 31.96098,-5.471875 31.77612,-8.212006 -0.0903,-2.966255 -8.91095,-3.819713 -13.25008,-2.263582 -6.84727,1.961314 -13.64569,6.618001 -18.52604,10.475588 z"
       id="path2" />
  </g>
</svg>
