<?xml version="1.0" encoding="UTF-8" standalone="no"?>
<svg
   xmlns:dc="http://purl.org/dc/elements/1.1/"
   xmlns:cc="http://creativecommons.org/ns#"
   xmlns:rdf="http://www.w3.org/1999/02/22-rdf-syntax-ns#"
   xmlns:svg="http://www.w3.org/2000/svg"
   xmlns="http://www.w3.org/2000/svg"
   xmlns:sodipodi="http://sodipodi.sourceforge.net/DTD/sodipodi-0.dtd"
   xmlns:inkscape="http://www.inkscape.org/namespaces/inkscape"
   inkscape:version="1.0 (4035a4fb49, 2020-05-01)"
   sodipodi:docname="u1b07a.svg"
   id="svg6"
   height="200"
   width="200"
   viewBox="0 0 200 200"
   version="1.1">
  <metadata
     id="metadata12">
    <rdf:RDF>
      <cc:Work
         rdf:about="">
        <dc:format>image/svg+xml</dc:format>
        <dc:type
           rdf:resource="http://purl.org/dc/dcmitype/StillImage" />
      </cc:Work>
    </rdf:RDF>
  </metadata>
  <defs
     id="defs10" />
  <sodipodi:namedview
     inkscape:current-layer="svg6"
     inkscape:window-maximized="1"
     inkscape:window-y="24"
     inkscape:window-x="0"
     inkscape:cy="106.3552"
     inkscape:cx="54.2114"
     inkscape:zoom="3.0950515"
     showgrid="false"
     id="namedview8"
     inkscape:window-height="850"
     inkscape:window-width="1440"
     inkscape:pageshadow="2"
     inkscape:pageopacity="0"
     guidetolerance="10"
     gridtolerance="10"
     objecttolerance="10"
     borderopacity="1"
     bordercolor="#666666"
     pagecolor="#ffffff" />
  <path
     sodipodi:nodetypes="csccsssccssc"
     id="path837"
     d="m 83.855159,19.045025 c 0,0 -6.199102,14.13617 -16.541252,23.410083 C 60.801567,48.29479 51.374583,52.70463 51.374583,52.70463 l -1.408032,3.350989 c 0,0 23.879016,14.65457 15.556233,31.599475 C 57.2,104.6 28.907115,103.16028 37.901153,86.201995 45.332371,72.19041 112,33.3 121.67601,40.683456 c 7.24005,5.524654 2.47219,24.282646 2.47219,24.282646 l 4.71584,1.59919 c 0,0 27.46507,-4.439585 32.02165,4.492954 C 165.6,80.3 89.436764,88.757523 86.132794,100.41116 c -2.950929,10.4084 35.214106,11.49633 35.214106,11.49633"
     style="font-variation-settings:normal;opacity:1;vector-effect:none;fill:none;fill-opacity:1;stroke:#000000;stroke-width:11.5;stroke-linecap:butt;stroke-linejoin:miter;stroke-miterlimit:4;stroke-dasharray:none;stroke-dashoffset:0;stroke-opacity:1;stop-color:#000000;stop-opacity:1" />
  <path
     sodipodi:nodetypes="ccsc"
     id="path841"
     d="m 84.700028,125.27133 c 0,0 2.489153,13.30059 41.496472,11.30657 0,0 -63.295138,3.7294 -58.045235,24.76594 5.249902,21.03655 67.820955,8.65715 67.820955,8.65715"
     style="font-variation-settings:normal;opacity:1;vector-effect:none;fill:none;fill-opacity:1;stroke:#000000;stroke-width:11.5;stroke-linecap:butt;stroke-linejoin:miter;stroke-miterlimit:4;stroke-dasharray:none;stroke-dashoffset:0;stroke-opacity:1;stop-color:#000000;stop-opacity:1" />
</svg>
