<?xml version="1.0" encoding="UTF-8" standalone="no"?>
<svg
   xmlns:dc="http://purl.org/dc/elements/1.1/"
   xmlns:cc="http://creativecommons.org/ns#"
   xmlns:rdf="http://www.w3.org/1999/02/22-rdf-syntax-ns#"
   xmlns:svg="http://www.w3.org/2000/svg"
   xmlns="http://www.w3.org/2000/svg"
   xmlns:sodipodi="http://sodipodi.sourceforge.net/DTD/sodipodi-0.dtd"
   xmlns:inkscape="http://www.inkscape.org/namespaces/inkscape"
   inkscape:version="1.0 (4035a4fb49, 2020-05-01)"
   sodipodi:docname="u1b0df.svg"
   id="svg6"
   height="200"
   width="200"
   viewBox="0 0 200 200"
   version="1.1">
  <metadata
     id="metadata12">
    <rdf:RDF>
      <cc:Work
         rdf:about="">
        <dc:format>image/svg+xml</dc:format>
        <dc:type
           rdf:resource="http://purl.org/dc/dcmitype/StillImage" />
      </cc:Work>
    </rdf:RDF>
  </metadata>
  <defs
     id="defs10" />
  <sodipodi:namedview
     inkscape:current-layer="svg6"
     inkscape:window-maximized="1"
     inkscape:window-y="24"
     inkscape:window-x="0"
     inkscape:cy="128.62498"
     inkscape:cx="78.854585"
     inkscape:zoom="1.9905056"
     showgrid="false"
     id="namedview8"
     inkscape:window-height="850"
     inkscape:window-width="1440"
     inkscape:pageshadow="2"
     inkscape:pageopacity="0"
     guidetolerance="10"
     gridtolerance="10"
     objecttolerance="10"
     borderopacity="1"
     bordercolor="#666666"
     pagecolor="#ffffff" />
  <path
     sodipodi:nodetypes="csccssc"
     id="path837"
     d="m 49.151741,29.817484 c 0,0 19.536584,5.540074 32.189031,4.34746 12.652447,-1.192614 32.584098,-8.93291 32.584098,-8.93291 v 0 c 0,0 -25.012508,7.000404 -42.420949,31.285697 -17.40844,24.285292 -35.892769,67.910449 -39.095825,87.480749 -3.203056,19.5703 -3.392124,23.91802 -3.392124,23.91802"
     style="font-variation-settings:normal;opacity:1;vector-effect:none;fill:none;fill-opacity:1;stroke:#000000;stroke-width:11.5;stroke-linecap:butt;stroke-linejoin:miter;stroke-miterlimit:4;stroke-dasharray:none;stroke-dashoffset:0;stroke-opacity:1;stop-color:#000000;stop-opacity:1" />
  <path
     sodipodi:nodetypes="csccssssssccsc"
     id="path839"
     d="m 44.927718,103.95333 c 0,0 37.645813,-32.134422 46.099464,-37.390915 8.453651,-5.256492 27.894148,-12.311116 27.894148,-12.311116 l 1.24054,2.257434 c 0,0 -24.588849,25.311496 -20.686762,32.488536 3.902092,7.177041 16.643792,4.055846 20.832402,10.018959 4.18862,5.963112 -0.81147,35.878032 -13.10311,41.375582 -12.291634,5.49755 -21.221485,-4.50454 -18.16807,-12.38708 5.46367,-14.10473 32.4685,-15.75834 27.88813,-0.18795 -5.44843,18.52123 -42.1904,33.50986 -34.849822,44.18971 7.340578,10.67985 65.883652,2.42659 65.883652,2.42659 l -0.43366,-4.06199 c 0,0 -0.81646,-8.54458 -1.14839,-15.87364 -0.44388,-9.80103 0.15545,-22.08958 0.15545,-22.08958"
     style="font-variation-settings:normal;opacity:1;vector-effect:none;fill:none;fill-opacity:1;stroke:#000000;stroke-width:11.5;stroke-linecap:butt;stroke-linejoin:miter;stroke-miterlimit:4;stroke-dasharray:none;stroke-dashoffset:0;stroke-opacity:1;stop-color:#000000;stop-opacity:1" />
  <path
     id="path841"
     d="m 149.04254,57.644409 c 0,0 12.24541,-5.235027 16.87504,1.705711 4.62963,6.940738 8.54824,18.168106 8.54824,18.168106"
     style="font-variation-settings:normal;opacity:1;vector-effect:none;fill:none;fill-opacity:1;stroke:#000000;stroke-width:11.5;stroke-linecap:butt;stroke-linejoin:miter;stroke-miterlimit:4;stroke-dasharray:none;stroke-dashoffset:0;stroke-opacity:1;stop-color:#000000;stop-opacity:1" />
</svg>
