<?xml version="1.0" encoding="UTF-8" standalone="no"?>
<svg
   xmlns:dc="http://purl.org/dc/elements/1.1/"
   xmlns:cc="http://creativecommons.org/ns#"
   xmlns:rdf="http://www.w3.org/1999/02/22-rdf-syntax-ns#"
   xmlns:svg="http://www.w3.org/2000/svg"
   xmlns="http://www.w3.org/2000/svg"
   xmlns:sodipodi="http://sodipodi.sourceforge.net/DTD/sodipodi-0.dtd"
   xmlns:inkscape="http://www.inkscape.org/namespaces/inkscape"
   inkscape:version="1.0 (4035a4fb49, 2020-05-01)"
   sodipodi:docname="u1b00c.svg"
   id="svg6"
   height="200"
   width="200"
   viewBox="0 0 200 200"
   version="1.1">
  <metadata
     id="metadata12">
    <rdf:RDF>
      <cc:Work
         rdf:about="">
        <dc:format>image/svg+xml</dc:format>
        <dc:type
           rdf:resource="http://purl.org/dc/dcmitype/StillImage" />
      </cc:Work>
    </rdf:RDF>
  </metadata>
  <defs
     id="defs10" />
  <sodipodi:namedview
     inkscape:current-layer="svg6"
     inkscape:window-maximized="1"
     inkscape:window-y="24"
     inkscape:window-x="0"
     inkscape:cy="59.556188"
     inkscape:cx="93.047803"
     inkscape:zoom="2.815"
     showgrid="false"
     id="namedview8"
     inkscape:window-height="850"
     inkscape:window-width="1440"
     inkscape:pageshadow="2"
     inkscape:pageopacity="0"
     guidetolerance="10"
     gridtolerance="10"
     objecttolerance="10"
     borderopacity="1"
     bordercolor="#666666"
     pagecolor="#ffffff" />
  <path
     sodipodi:nodetypes="csccssssssssssc"
     id="path837"
     d="m 64.030714,23.918894 c 0,0 9.618144,10.568288 20.100785,11.5737 12.159418,1.166236 34.884331,-3.3492 34.884331,-3.3492 l 0.4187,1.823429 c 0,0 -30.23453,9.733177 -35.124435,27.298966 C 79.165943,79.744897 94.9,97.4 81.698938,120.86571 72.819005,136.65034 54.222253,157.58693 42.063281,153.72703 28.071908,149.28542 32.781348,129.88339 51.355524,111.29635 69.886854,92.752181 107.8,75.9 139.63403,77.235057 c 22.5593,0.946093 33.00158,19.686086 23.33428,42.304493 -7.98637,18.68558 -57.41912,36.15799 -66.640404,26.81462 -8.087046,-8.19412 6.166854,-22.82678 19.058554,-21.97222 12.15973,0.80604 17.94859,9.91914 1.985,23.16468 -15.96359,13.24553 -15.94559,20.46799 -9.11899,24.72129 6.82659,4.25329 31.91491,-2.33236 31.91491,-2.33236"
     style="font-variation-settings:normal;opacity:1;vector-effect:none;fill:none;fill-opacity:1;stroke:#000000;stroke-width:11.5;stroke-linecap:butt;stroke-linejoin:miter;stroke-miterlimit:4;stroke-dasharray:none;stroke-dashoffset:0;stroke-opacity:1;stop-color:#000000;stop-opacity:1" />
</svg>
