<?xml version="1.0" encoding="UTF-8" standalone="no"?>
<svg
   xmlns:dc="http://purl.org/dc/elements/1.1/"
   xmlns:cc="http://creativecommons.org/ns#"
   xmlns:rdf="http://www.w3.org/1999/02/22-rdf-syntax-ns#"
   xmlns:svg="http://www.w3.org/2000/svg"
   xmlns="http://www.w3.org/2000/svg"
   xmlns:sodipodi="http://sodipodi.sourceforge.net/DTD/sodipodi-0.dtd"
   xmlns:inkscape="http://www.inkscape.org/namespaces/inkscape"
   inkscape:version="1.0 (4035a4fb49, 2020-05-01)"
   sodipodi:docname="u1b09b.svg"
   id="svg6"
   height="200"
   width="200"
   viewBox="0 0 200 200"
   version="1.1">
  <metadata
     id="metadata12">
    <rdf:RDF>
      <cc:Work
         rdf:about="">
        <dc:format>image/svg+xml</dc:format>
        <dc:type
           rdf:resource="http://purl.org/dc/dcmitype/StillImage" />
      </cc:Work>
    </rdf:RDF>
  </metadata>
  <defs
     id="defs10" />
  <sodipodi:namedview
     inkscape:current-layer="svg6"
     inkscape:window-maximized="1"
     inkscape:window-y="24"
     inkscape:window-x="0"
     inkscape:cy="115.85968"
     inkscape:cx="59.459392"
     inkscape:zoom="3.0950515"
     showgrid="false"
     id="namedview8"
     inkscape:window-height="850"
     inkscape:window-width="1440"
     inkscape:pageshadow="2"
     inkscape:pageopacity="0"
     guidetolerance="10"
     gridtolerance="10"
     objecttolerance="10"
     borderopacity="1"
     bordercolor="#666666"
     pagecolor="#ffffff" />
  <path
     sodipodi:nodetypes="csccscsssc"
     id="path837"
     d="m 26.771783,31.628356 c 0,0 12.031375,1.851249 25.137223,0.994044 11.310566,-0.739782 23.91485,-6.885768 23.91485,-6.885768 l 2.225873,4.805821 c 0,0 -3.284732,13.803254 -8.350447,22.788948 -5.065716,8.985695 -12.201317,20.517809 -12.201317,20.517809 0,0 17.286623,31.15405 13.123899,62.82365 -3.407591,25.92462 -16.49704,41.17244 -29.287916,39.92466 C 28.543073,175.34974 26.6,137.5 45.212859,116.00725 65.287504,92.826538 83.671843,83.332142 83.671843,83.332142"
     style="font-variation-settings:normal;opacity:1;vector-effect:none;fill:none;fill-opacity:1;stroke:#000000;stroke-width:11.5;stroke-linecap:butt;stroke-linejoin:miter;stroke-miterlimit:4;stroke-dasharray:none;stroke-dashoffset:0;stroke-opacity:1;stop-color:#000000;stop-opacity:1" />
  <path
     sodipodi:nodetypes="csccscsc"
     id="path839"
     d="m 115.61894,66.515288 c 0,0 13.52509,-8.809106 26.65058,-15.737663 9.01353,-4.757973 24.81587,-10.65661 24.81587,-10.65661 l -0.71524,-3.23996 c 0,0 -4.18018,-15.159041 -14.26039,-6.744882 -7.54564,6.298505 -11.42098,82.058547 -11.42098,82.058547 0,0 22.09859,0.38211 28.99644,15.70789 6.75834,15.0158 -42.17638,47.80421 -42.17638,47.80421"
     style="font-variation-settings:normal;opacity:1;vector-effect:none;fill:none;fill-opacity:1;stroke:#000000;stroke-width:11.5;stroke-linecap:butt;stroke-linejoin:miter;stroke-miterlimit:4;stroke-dasharray:none;stroke-dashoffset:0;stroke-opacity:1;stop-color:#000000;stop-opacity:1" />
</svg>
