<?xml version="1.0" encoding="UTF-8" standalone="no"?>
<svg
   xmlns:dc="http://purl.org/dc/elements/1.1/"
   xmlns:cc="http://creativecommons.org/ns#"
   xmlns:rdf="http://www.w3.org/1999/02/22-rdf-syntax-ns#"
   xmlns:svg="http://www.w3.org/2000/svg"
   xmlns="http://www.w3.org/2000/svg"
   xmlns:sodipodi="http://sodipodi.sourceforge.net/DTD/sodipodi-0.dtd"
   xmlns:inkscape="http://www.inkscape.org/namespaces/inkscape"
   inkscape:version="1.0 (4035a4fb49, 2020-05-01)"
   sodipodi:docname="u1b0c5.svg"
   id="svg6"
   height="200"
   width="200"
   viewBox="0 0 200 200"
   version="1.1">
  <metadata
     id="metadata12">
    <rdf:RDF>
      <cc:Work
         rdf:about="">
        <dc:format>image/svg+xml</dc:format>
        <dc:type
           rdf:resource="http://purl.org/dc/dcmitype/StillImage" />
      </cc:Work>
    </rdf:RDF>
  </metadata>
  <defs
     id="defs10" />
  <sodipodi:namedview
     inkscape:current-layer="svg6"
     inkscape:window-maximized="1"
     inkscape:window-y="24"
     inkscape:window-x="0"
     inkscape:cy="161.92858"
     inkscape:cx="32.112008"
     inkscape:zoom="3.9810112"
     showgrid="false"
     id="namedview8"
     inkscape:window-height="850"
     inkscape:window-width="1440"
     inkscape:pageshadow="2"
     inkscape:pageopacity="0"
     guidetolerance="10"
     gridtolerance="10"
     objecttolerance="10"
     borderopacity="1"
     bordercolor="#666666"
     pagecolor="#ffffff" />
  <path
     sodipodi:nodetypes="csccsc"
     id="path837"
     d="m 37.504705,22.835951 c 0,0 -11.781238,80.325799 -8.943764,105.271029 2.837473,24.94523 5.35095,35.29717 5.35095,35.29717 l 2.550143,-0.54774 c 0,0 7.571091,-28.52657 9.124463,-32.76721 1.553372,-4.24063 9.777951,-23.59306 9.777951,-23.59306"
     style="font-variation-settings:normal;opacity:1;vector-effect:none;fill:none;fill-opacity:1;stroke:#000000;stroke-width:11.5;stroke-linecap:butt;stroke-linejoin:miter;stroke-miterlimit:4;stroke-dasharray:none;stroke-dashoffset:0;stroke-opacity:1;stop-color:#000000;stop-opacity:1" />
  <path
     sodipodi:nodetypes="csccsccssssssssc"
     id="path839"
     d="m 66.986731,71.142896 c 0,0 11.840449,-12.71498 28.593496,-17.972516 15.092223,-4.736324 55.585693,-6.008238 55.585693,-6.008238 l 0.29998,-2.48805 c 0,0 -21.59721,-19.69056 -27.57298,-16.500188 -6.74926,3.603331 -10.89956,41.059754 -10.89956,41.059754 l -0.11327,2.252051 c 0,0 37.73158,5.2664 45.99145,27.821111 7.08322,19.34167 0.21142,61.78574 -30.43642,70.88509 -33.853104,10.051 -46.21396,-21.53633 -45.85872,-34.18815 0.355239,-12.65182 5.514193,-43.356801 21.77237,-40.894432 15.29221,2.31607 9.22362,35.136312 -6.092836,49.342042 -17.049621,15.81321 -24.651617,20.00905 -33.516372,14.74459 -8.864754,-5.26446 0.488302,-26.55839 27.81532,-32.12289 25.443478,-5.18097 44.077588,5.19463 59.662078,15.53682 11.6461,7.7286 23.34337,25.63452 23.34337,25.63452"
     style="font-variation-settings:normal;opacity:1;vector-effect:none;fill:none;fill-opacity:1;stroke:#000000;stroke-width:11.5;stroke-linecap:butt;stroke-linejoin:miter;stroke-miterlimit:4;stroke-dasharray:none;stroke-dashoffset:0;stroke-opacity:1;stop-color:#000000;stop-opacity:1" />
</svg>
