<?xml version="1.0" encoding="UTF-8" standalone="no"?>
<svg
   xmlns:dc="http://purl.org/dc/elements/1.1/"
   xmlns:cc="http://creativecommons.org/ns#"
   xmlns:rdf="http://www.w3.org/1999/02/22-rdf-syntax-ns#"
   xmlns:svg="http://www.w3.org/2000/svg"
   xmlns="http://www.w3.org/2000/svg"
   xmlns:sodipodi="http://sodipodi.sourceforge.net/DTD/sodipodi-0.dtd"
   xmlns:inkscape="http://www.inkscape.org/namespaces/inkscape"
   inkscape:version="1.0 (4035a4fb49, 2020-05-01)"
   sodipodi:docname="u1b06f.svg"
   id="svg6"
   height="200"
   width="200"
   viewBox="0 0 200 200"
   version="1.1">
  <metadata
     id="metadata12">
    <rdf:RDF>
      <cc:Work
         rdf:about="">
        <dc:format>image/svg+xml</dc:format>
        <dc:type
           rdf:resource="http://purl.org/dc/dcmitype/StillImage" />
      </cc:Work>
    </rdf:RDF>
  </metadata>
  <defs
     id="defs10" />
  <sodipodi:namedview
     inkscape:current-layer="svg6"
     inkscape:window-maximized="1"
     inkscape:window-y="24"
     inkscape:window-x="0"
     inkscape:cy="105.53332"
     inkscape:cx="36.061907"
     inkscape:zoom="2.1885319"
     showgrid="false"
     id="namedview8"
     inkscape:window-height="850"
     inkscape:window-width="1440"
     inkscape:pageshadow="2"
     inkscape:pageopacity="0"
     guidetolerance="10"
     gridtolerance="10"
     objecttolerance="10"
     borderopacity="1"
     bordercolor="#666666"
     pagecolor="#ffffff" />
  <path
     sodipodi:nodetypes="cssssccc"
     id="path837"
     d="m 58.451431,27.44239 c 0,0 4.597205,13.983489 -2.542678,26.471296 -9.066247,15.857059 -23.737491,27.397723 -25.376098,34.659681 -2.214949,9.816181 12.916821,9.747616 14.386284,26.486853 1.551512,17.67388 -1.378228,42.51522 -1.378228,46.57812 0,4.06291 0.969003,8.70394 0.969003,8.70394 l 1.969608,-0.36768 c 0,0 4.718798,-23.77853 17.9644,-46.91086"
     style="font-variation-settings:normal;opacity:1;vector-effect:none;fill:none;fill-opacity:1;stroke:#000000;stroke-width:11.5;stroke-linecap:butt;stroke-linejoin:miter;stroke-miterlimit:4;stroke-dasharray:none;stroke-dashoffset:0;stroke-opacity:1;stop-color:#000000;stop-opacity:1" />
  <path
     sodipodi:nodetypes="csccccsssc"
     id="path839"
     d="m 97.964974,24.538064 c 0,0 17.140136,5.552816 31.122806,4.827483 14.512,-0.752791 27.47446,-4.184447 27.47446,-4.184447 l 1.94193,1.857133 -50.98744,54.35747 1.28087,1.456517 c 0,0 32.10141,-21.016781 49.01099,-10.856938 16.90958,10.159843 7.39847,29.104978 -17.91352,48.448888 -21.19092,16.19452 -69.326845,42.70516 -31.83601,48.68755 29.82071,4.75847 67.88159,-1.53457 67.88159,-1.53457"
     style="font-variation-settings:normal;opacity:1;vector-effect:none;fill:none;fill-opacity:1;stroke:#000000;stroke-width:11.5;stroke-linecap:butt;stroke-linejoin:miter;stroke-miterlimit:4;stroke-dasharray:none;stroke-dashoffset:0;stroke-opacity:1;stop-color:#000000;stop-opacity:1" />
</svg>
