<?xml version="1.0" encoding="UTF-8" standalone="no"?>
<svg
   xmlns:dc="http://purl.org/dc/elements/1.1/"
   xmlns:cc="http://creativecommons.org/ns#"
   xmlns:rdf="http://www.w3.org/1999/02/22-rdf-syntax-ns#"
   xmlns:svg="http://www.w3.org/2000/svg"
   xmlns="http://www.w3.org/2000/svg"
   xmlns:sodipodi="http://sodipodi.sourceforge.net/DTD/sodipodi-0.dtd"
   xmlns:inkscape="http://www.inkscape.org/namespaces/inkscape"
   inkscape:version="1.0 (4035a4fb49, 2020-05-01)"
   sodipodi:docname="u1b0a8.svg"
   id="svg6"
   height="200"
   width="200"
   viewBox="0 0 200 200"
   version="1.1">
  <metadata
     id="metadata12">
    <rdf:RDF>
      <cc:Work
         rdf:about="">
        <dc:format>image/svg+xml</dc:format>
        <dc:type
           rdf:resource="http://purl.org/dc/dcmitype/StillImage" />
      </cc:Work>
    </rdf:RDF>
  </metadata>
  <defs
     id="defs10" />
  <sodipodi:namedview
     inkscape:current-layer="svg6"
     inkscape:window-maximized="1"
     inkscape:window-y="24"
     inkscape:window-x="0"
     inkscape:cy="47.642869"
     inkscape:cx="70.468072"
     inkscape:zoom="1.4075"
     showgrid="false"
     id="namedview8"
     inkscape:window-height="850"
     inkscape:window-width="1440"
     inkscape:pageshadow="2"
     inkscape:pageopacity="0"
     guidetolerance="10"
     gridtolerance="10"
     objecttolerance="10"
     borderopacity="1"
     bordercolor="#666666"
     pagecolor="#ffffff" />
  <path
     sodipodi:nodetypes="csssssc"
     id="path837"
     d="m 69.123431,18.461162 c 0,0 8.731052,28.788483 7.03047,45.912238 -1.531643,15.422647 -6.203059,32.767163 -2.158509,38.12275 4.044549,5.35559 28.489088,25.71691 17.205095,50.17372 -10.016814,21.71034 -24.709483,29.4892 -33.472818,23.43078 -5.628327,-3.89107 -9.353372,-17.19385 6.061678,-35.79171 17.002131,-20.51262 42.880483,-43.407889 42.880483,-43.407889"
     style="font-variation-settings:normal;opacity:1;vector-effect:none;fill:none;fill-opacity:1;stroke:#000000;stroke-width:11.5;stroke-linecap:butt;stroke-linejoin:miter;stroke-miterlimit:4;stroke-dasharray:none;stroke-dashoffset:0;stroke-opacity:1;stop-color:#000000;stop-opacity:1" />
  <path
     sodipodi:nodetypes="csc"
     id="path841"
     d="m 40.515874,62.359185 c 0,0 3.963132,7.698015 5.342704,23.262135 0.831356,9.379227 -2.144507,17.77964 -2.144507,17.77964"
     style="font-variation-settings:normal;opacity:1;vector-effect:none;fill:none;fill-opacity:1;stroke:#000000;stroke-width:11.5;stroke-linecap:butt;stroke-linejoin:miter;stroke-miterlimit:4;stroke-dasharray:none;stroke-dashoffset:0;stroke-opacity:1;stop-color:#000000;stop-opacity:1" />
  <path
     sodipodi:nodetypes="csssc"
     id="path843"
     d="m 31.009795,178.88734 c 0,0 -1.380221,-6.841 0,-22.73855 2.008496,-23.1341 10.284971,-55.7428 25.522777,-76.158759 C 71.881845,59.42473 81.998737,50.552632 95.304738,49.848106 116.20713,48.741366 118.91446,78.553385 75.898474,83.432175"
     style="font-variation-settings:normal;opacity:1;vector-effect:none;fill:none;fill-opacity:1;stroke:#000000;stroke-width:11.5;stroke-linecap:butt;stroke-linejoin:miter;stroke-miterlimit:4;stroke-dasharray:none;stroke-dashoffset:0;stroke-opacity:1;stop-color:#000000;stop-opacity:1" />
  <path
     sodipodi:nodetypes="cssssc"
     id="path845"
     d="m 131.03329,56.51011 c 0,0 20.59688,-23.836823 29.27968,-11.301489 9.60401,13.865287 -23.4447,31.607958 -23.12472,44.870835 0.28727,11.907104 11.82153,3.327561 18.89462,17.159434 5.75791,11.25995 -38.38434,28.33483 -35.46248,54.69928 2.43813,21.99961 54.86637,10.17184 54.86637,10.17184"
     style="font-variation-settings:normal;opacity:1;vector-effect:none;fill:none;fill-opacity:1;stroke:#000000;stroke-width:11.5;stroke-linecap:butt;stroke-linejoin:miter;stroke-miterlimit:4;stroke-dasharray:none;stroke-dashoffset:0;stroke-opacity:1;stop-color:#000000;stop-opacity:1" />
</svg>
