<?xml version="1.0" encoding="UTF-8" standalone="no"?>
<svg
   xmlns:dc="http://purl.org/dc/elements/1.1/"
   xmlns:cc="http://creativecommons.org/ns#"
   xmlns:rdf="http://www.w3.org/1999/02/22-rdf-syntax-ns#"
   xmlns:svg="http://www.w3.org/2000/svg"
   xmlns="http://www.w3.org/2000/svg"
   xmlns:sodipodi="http://sodipodi.sourceforge.net/DTD/sodipodi-0.dtd"
   xmlns:inkscape="http://www.inkscape.org/namespaces/inkscape"
   inkscape:version="1.0 (4035a4fb49, 2020-05-01)"
   sodipodi:docname="u1b0a3.svg"
   id="svg6"
   height="200"
   width="200"
   viewBox="0 0 200 200"
   version="1.1">
  <metadata
     id="metadata12">
    <rdf:RDF>
      <cc:Work
         rdf:about="">
        <dc:format>image/svg+xml</dc:format>
        <dc:type
           rdf:resource="http://purl.org/dc/dcmitype/StillImage" />
      </cc:Work>
    </rdf:RDF>
  </metadata>
  <defs
     id="defs10" />
  <sodipodi:namedview
     inkscape:current-layer="svg6"
     inkscape:window-maximized="1"
     inkscape:window-y="24"
     inkscape:window-x="0"
     inkscape:cy="39.468669"
     inkscape:cx="62.316583"
     inkscape:zoom="1.4075"
     showgrid="false"
     id="namedview8"
     inkscape:window-height="850"
     inkscape:window-width="1440"
     inkscape:pageshadow="2"
     inkscape:pageopacity="0"
     guidetolerance="10"
     gridtolerance="10"
     objecttolerance="10"
     borderopacity="1"
     bordercolor="#666666"
     pagecolor="#ffffff" />
  <path
     sodipodi:nodetypes="cscscssscsssc"
     id="path837"
     d="m 97.295652,13.437348 c 0,0 4.642738,25.398881 4.353958,42.391667 -0.5103,30.026993 -5.753861,38.708512 -5.753861,38.708512 0,0 -7.205718,-3.670112 -14.230575,-5.965758 -5.607279,-1.832397 -14.624039,-5.23043 -14.624039,-5.23043 0,0 8.547073,-21.306518 32.795414,-30.351581 26.451171,-9.866756 35.493011,2.583568 27.554001,14.07926 -7.36921,10.670623 -34.500107,42.536432 -44.518166,49.578762 -10.018059,7.04232 -51.938433,34.88755 -51.938433,34.88755 0,0 35.908606,-27.53941 70.349289,-36.66789 34.58435,-9.16656 67.20974,-4.4531 65.566,10.31512 -2.64749,23.7864 -76.810916,24.36452 -77.317994,45.38746 -0.306333,12.70024 37.817164,9.97091 37.817164,9.97091"
     style="font-variation-settings:normal;opacity:1;vector-effect:none;fill:none;fill-opacity:1;stroke:#000000;stroke-width:11.5;stroke-linecap:butt;stroke-linejoin:miter;stroke-miterlimit:4;stroke-dasharray:none;stroke-dashoffset:0;stroke-opacity:1;stop-color:#000000;stop-opacity:1" />
</svg>
