<?xml version="1.0" encoding="UTF-8" standalone="no"?>
<svg
   xmlns:dc="http://purl.org/dc/elements/1.1/"
   xmlns:cc="http://creativecommons.org/ns#"
   xmlns:rdf="http://www.w3.org/1999/02/22-rdf-syntax-ns#"
   xmlns:svg="http://www.w3.org/2000/svg"
   xmlns="http://www.w3.org/2000/svg"
   xmlns:sodipodi="http://sodipodi.sourceforge.net/DTD/sodipodi-0.dtd"
   xmlns:inkscape="http://www.inkscape.org/namespaces/inkscape"
   inkscape:version="1.0 (4035a4fb49, 2020-05-01)"
   sodipodi:docname="u1b04d.svg"
   id="svg6"
   height="200"
   width="200"
   viewBox="0 0 200 200"
   version="1.1">
  <metadata
     id="metadata12">
    <rdf:RDF>
      <cc:Work
         rdf:about="">
        <dc:format>image/svg+xml</dc:format>
        <dc:type
           rdf:resource="http://purl.org/dc/dcmitype/StillImage" />
      </cc:Work>
    </rdf:RDF>
  </metadata>
  <defs
     id="defs10" />
  <sodipodi:namedview
     inkscape:current-layer="svg6"
     inkscape:window-maximized="1"
     inkscape:window-y="24"
     inkscape:window-x="0"
     inkscape:cy="58.530931"
     inkscape:cx="214.32175"
     inkscape:zoom="1.9905056"
     showgrid="false"
     id="namedview8"
     inkscape:window-height="850"
     inkscape:window-width="1440"
     inkscape:pageshadow="2"
     inkscape:pageopacity="0"
     guidetolerance="10"
     gridtolerance="10"
     objecttolerance="10"
     borderopacity="1"
     bordercolor="#666666"
     pagecolor="#ffffff" />
  <path
     sodipodi:nodetypes="csccssc"
     id="path14"
     d="m 40.419736,27.585467 c 0,0 13.101803,11.484589 36.420068,10.44672 15.566526,-0.692848 17.727904,-1.163462 17.727904,-1.163462 l -0.5526,-4.700167 c 0,0 -2.257759,-5.173116 -4.670448,-4.259097 -4.55658,1.726205 -26.15435,40.266914 -22.548544,78.702649 2.77874,29.61971 15.227697,54.18721 15.227697,54.18721"
     style="font-variation-settings:normal;opacity:1;vector-effect:none;fill:none;fill-opacity:1;stroke:#000000;stroke-width:11.5;stroke-linecap:butt;stroke-linejoin:miter;stroke-miterlimit:4;stroke-dasharray:none;stroke-dashoffset:0;stroke-opacity:1;stop-color:#000000;stop-opacity:1" />
  <path
     sodipodi:nodetypes="csccsssssc"
     id="path16"
     d="m 103.16266,64.347858 c 0,0 23.5231,13.091552 -4.518551,52.516922 -23.996232,33.73769 -45.722227,44.29544 -45.722227,44.29544 l -5.396982,3.08492 c 0,0 -22.97771,-12.41161 -10.389208,-32.72976 13.086155,-21.12136 45.616098,-43.524388 67.590708,-49.674076 21.97461,-6.149688 36.4426,-2.320943 43.56888,10.258462 4.54945,8.030754 -13.31112,37.894654 -5.64062,44.441944 7.67051,6.54728 24.44514,-3.3009 25.2664,14.58668 0.7062,15.3816 -56.72971,25.19577 -56.72971,25.19577"
     style="font-variation-settings:normal;opacity:1;vector-effect:none;fill:none;fill-opacity:1;stroke:#000000;stroke-width:11.5;stroke-linecap:butt;stroke-linejoin:miter;stroke-miterlimit:4;stroke-dasharray:none;stroke-dashoffset:0;stroke-opacity:1;stop-color:#000000;stop-opacity:1" />
</svg>
