<?xml version="1.0" encoding="UTF-8" standalone="no"?>
<svg
   xmlns:dc="http://purl.org/dc/elements/1.1/"
   xmlns:cc="http://creativecommons.org/ns#"
   xmlns:rdf="http://www.w3.org/1999/02/22-rdf-syntax-ns#"
   xmlns:svg="http://www.w3.org/2000/svg"
   xmlns="http://www.w3.org/2000/svg"
   xmlns:sodipodi="http://sodipodi.sourceforge.net/DTD/sodipodi-0.dtd"
   xmlns:inkscape="http://www.inkscape.org/namespaces/inkscape"
   inkscape:version="1.0 (4035a4fb49, 2020-05-01)"
   sodipodi:docname="u1b0f1.svg"
   id="svg6"
   height="200"
   width="200"
   viewBox="0 0 200 200"
   version="1.1">
  <metadata
     id="metadata12">
    <rdf:RDF>
      <cc:Work
         rdf:about="">
        <dc:format>image/svg+xml</dc:format>
        <dc:type
           rdf:resource="http://purl.org/dc/dcmitype/StillImage" />
      </cc:Work>
    </rdf:RDF>
  </metadata>
  <defs
     id="defs10" />
  <sodipodi:namedview
     inkscape:current-layer="svg6"
     inkscape:window-maximized="1"
     inkscape:window-y="24"
     inkscape:window-x="0"
     inkscape:cy="113.96821"
     inkscape:cx="168.19527"
     inkscape:zoom="2.815"
     showgrid="false"
     id="namedview8"
     inkscape:window-height="850"
     inkscape:window-width="1440"
     inkscape:pageshadow="2"
     inkscape:pageopacity="0"
     guidetolerance="10"
     gridtolerance="10"
     objecttolerance="10"
     borderopacity="1"
     bordercolor="#666666"
     pagecolor="#ffffff" />
  <path
     sodipodi:nodetypes="csssccsc"
     id="path839"
     d="m 77.639368,13.232852 c 0,0 -0.422644,6.084449 -3.422281,11.178992 -2.999637,5.094543 -20.612541,22.706595 -21.312443,29.728769 -0.699901,7.022174 20.17096,30.34603 20.176126,63.820347 0.0043,27.87657 -11.166174,44.40933 -11.166174,44.40933 l -2.306318,-1.76223 c 0,0 -1.293486,-3.76648 -4.163753,-8.35023 -5.601859,-8.94604 -10.308993,-13.14852 -10.308993,-13.14852"
     style="font-variation-settings:normal;opacity:1;vector-effect:none;fill:none;fill-opacity:1;stroke:#000000;stroke-width:11.5;stroke-linecap:butt;stroke-linejoin:miter;stroke-miterlimit:4;stroke-dasharray:none;stroke-dashoffset:0;stroke-opacity:1;stop-color:#000000;stop-opacity:1" />
  <path
     sodipodi:nodetypes="csc"
     id="path841"
     d="m 29.578271,98.985272 c 0,0 9.848622,-11.079808 19.730994,-18.128091 10.992063,-7.839732 23.363806,-10.461296 23.363806,-10.461296"
     style="font-variation-settings:normal;opacity:1;vector-effect:none;fill:none;fill-opacity:1;stroke:#000000;stroke-width:11.5;stroke-linecap:butt;stroke-linejoin:miter;stroke-miterlimit:4;stroke-dasharray:none;stroke-dashoffset:0;stroke-opacity:1;stop-color:#000000;stop-opacity:1" />
  <path
     sodipodi:nodetypes="cssccssc"
     id="path843"
     d="m 34.196269,150.08034 c 0,0 5.212553,-11.41034 17.806116,-24.77679 22.044387,-23.39727 53.697735,-62.23235 65.111125,-60.997897 11.23045,1.214666 7.50595,37.503577 7.50595,37.503577 l 1.36028,0.12453 c 0,0 7.17554,-62.058138 26.58518,-61.071194 17.29082,0.879205 22.39139,68.591114 3.72659,109.601214 -8.33085,18.30446 -24.39486,32.1594 -24.39486,32.1594"
     style="font-variation-settings:normal;opacity:1;vector-effect:none;fill:none;fill-opacity:1;stroke:#000000;stroke-width:11.5;stroke-linecap:butt;stroke-linejoin:miter;stroke-miterlimit:4;stroke-dasharray:none;stroke-dashoffset:0;stroke-opacity:1;stop-color:#000000;stop-opacity:1" />
</svg>
