<?xml version="1.0" encoding="UTF-8" standalone="no"?>
<svg
   xmlns:dc="http://purl.org/dc/elements/1.1/"
   xmlns:cc="http://creativecommons.org/ns#"
   xmlns:rdf="http://www.w3.org/1999/02/22-rdf-syntax-ns#"
   xmlns:svg="http://www.w3.org/2000/svg"
   xmlns="http://www.w3.org/2000/svg"
   xmlns:sodipodi="http://sodipodi.sourceforge.net/DTD/sodipodi-0.dtd"
   xmlns:inkscape="http://www.inkscape.org/namespaces/inkscape"
   inkscape:version="1.0 (4035a4fb49, 2020-05-01)"
   sodipodi:docname="u1b0be.svg"
   id="svg6"
   height="200"
   width="200"
   viewBox="0 0 200 200"
   version="1.1">
  <metadata
     id="metadata12">
    <rdf:RDF>
      <cc:Work
         rdf:about="">
        <dc:format>image/svg+xml</dc:format>
        <dc:type
           rdf:resource="http://purl.org/dc/dcmitype/StillImage" />
      </cc:Work>
    </rdf:RDF>
  </metadata>
  <defs
     id="defs10" />
  <sodipodi:namedview
     inkscape:current-layer="svg6"
     inkscape:window-maximized="1"
     inkscape:window-y="24"
     inkscape:window-x="0"
     inkscape:cy="98.319695"
     inkscape:cx="125.39313"
     inkscape:zoom="2.815"
     showgrid="false"
     id="namedview8"
     inkscape:window-height="850"
     inkscape:window-width="1440"
     inkscape:pageshadow="2"
     inkscape:pageopacity="0"
     guidetolerance="10"
     gridtolerance="10"
     objecttolerance="10"
     borderopacity="1"
     bordercolor="#666666"
     pagecolor="#ffffff" />
  <path
     id="path837"
     d="m 79.89836,14.453785 c 0,0 10.673472,10.252935 20.65373,13.120981 9.98025,2.868046 23.64075,3.355046 23.64075,3.355046"
     style="font-variation-settings:normal;opacity:1;vector-effect:none;fill:none;fill-opacity:1;stroke:#000000;stroke-width:11.5;stroke-linecap:butt;stroke-linejoin:miter;stroke-miterlimit:4;stroke-dasharray:none;stroke-dashoffset:0;stroke-opacity:1;stop-color:#000000;stop-opacity:1" />
  <path
     sodipodi:nodetypes="csssc"
     id="path839"
     d="m 29.810258,48.457233 c 0,0 2.694411,6.199062 15.885981,8.477009 17.013919,2.937999 34.096662,-6.587325 62.879361,-9.500293 29.35964,-2.971357 62.06293,-1.341849 60.07443,14.040293 C 166.66152,76.856384 139.7,73.9 139.7,73.9"
     style="font-variation-settings:normal;opacity:1;vector-effect:none;fill:none;fill-opacity:1;stroke:#000000;stroke-width:11.5;stroke-linecap:butt;stroke-linejoin:miter;stroke-miterlimit:4;stroke-dasharray:none;stroke-dashoffset:0;stroke-opacity:1;stop-color:#000000;stop-opacity:1" />
  <path
     sodipodi:nodetypes="cscsssc"
     id="path841"
     d="m 47.62238,70.8504 c 0,0 7.54921,3.12598 15.53119,3.323642 9.044986,0.223986 18.133876,-2.549802 18.133876,-2.549802 0,0 3.514067,25.205903 -0.953683,31.5181 -4.46775,6.31218 -13.237854,11.01508 -21.988257,6.46223 -9.088635,-4.72884 -3.889125,-16.227378 3.81124,-17.512645 11.404171,-1.903468 18.454271,5.444629 18.454271,5.444629"
     style="font-variation-settings:normal;opacity:1;vector-effect:none;fill:none;fill-opacity:1;stroke:#000000;stroke-width:11.5;stroke-linecap:butt;stroke-linejoin:miter;stroke-miterlimit:4;stroke-dasharray:none;stroke-dashoffset:0;stroke-opacity:1;stop-color:#000000;stop-opacity:1" />
  <path
     sodipodi:nodetypes="csccsssscssc"
     id="path843"
     d="m 48.992281,132.54589 c 0,0 21.382367,-9.92424 30.497577,-17.57169 9.115209,-7.64745 50.606462,-42.115423 50.606462,-42.115423 l 1.69713,1.408205 c 0,0 -6.07726,14.673946 0.84437,21.342566 6.92164,6.668622 20.57735,8.083082 19.25768,12.900092 -1.31966,4.81701 -79.676499,16.62314 -76.197515,30.42392 3.478983,13.80078 24.830345,11.00093 29.342745,11.02966 10.67925,0.068 25.02093,-6.83548 25.02093,-6.83548 0,0 -4.43372,-10.00936 -13.47496,-10.19952 -9.04125,-0.19016 -21.499176,13.9568 -29.556883,23.67662 -8.057706,9.71982 -39.357619,25.61131 -39.357619,25.61131"
     style="font-variation-settings:normal;opacity:1;vector-effect:none;fill:none;fill-opacity:1;stroke:#000000;stroke-width:11.5;stroke-linecap:butt;stroke-linejoin:miter;stroke-miterlimit:4;stroke-dasharray:none;stroke-dashoffset:0;stroke-opacity:1;stop-color:#000000;stop-opacity:1" />
  <path
     sodipodi:nodetypes="csc"
     id="path845"
     d="m 75.154933,166.66461 c 0,0 13.79987,-4.66903 33.618457,-0.65307 19.81858,4.01595 52.19802,19.50205 52.19802,19.50205"
     style="font-variation-settings:normal;opacity:1;vector-effect:none;fill:none;fill-opacity:1;stroke:#000000;stroke-width:11.5;stroke-linecap:butt;stroke-linejoin:miter;stroke-miterlimit:4;stroke-dasharray:none;stroke-dashoffset:0;stroke-opacity:1;stop-color:#000000;stop-opacity:1" />
</svg>
