<?xml version="1.0" encoding="UTF-8" standalone="no"?>
<svg
   xmlns:dc="http://purl.org/dc/elements/1.1/"
   xmlns:cc="http://creativecommons.org/ns#"
   xmlns:rdf="http://www.w3.org/1999/02/22-rdf-syntax-ns#"
   xmlns:svg="http://www.w3.org/2000/svg"
   xmlns="http://www.w3.org/2000/svg"
   xmlns:sodipodi="http://sodipodi.sourceforge.net/DTD/sodipodi-0.dtd"
   xmlns:inkscape="http://www.inkscape.org/namespaces/inkscape"
   inkscape:version="1.0 (4035a4fb49, 2020-05-01)"
   sodipodi:docname="u1b0f8.svg"
   id="svg6"
   height="200"
   width="200"
   viewBox="0 0 200 200"
   version="1.1">
  <metadata
     id="metadata12">
    <rdf:RDF>
      <cc:Work
         rdf:about="">
        <dc:format>image/svg+xml</dc:format>
        <dc:type
           rdf:resource="http://purl.org/dc/dcmitype/StillImage" />
      </cc:Work>
    </rdf:RDF>
  </metadata>
  <defs
     id="defs10" />
  <sodipodi:namedview
     inkscape:current-layer="svg6"
     inkscape:window-maximized="1"
     inkscape:window-y="24"
     inkscape:window-x="0"
     inkscape:cy="101.56144"
     inkscape:cx="150.91965"
     inkscape:zoom="1.9905056"
     showgrid="false"
     id="namedview8"
     inkscape:window-height="850"
     inkscape:window-width="1440"
     inkscape:pageshadow="2"
     inkscape:pageopacity="0"
     guidetolerance="10"
     gridtolerance="10"
     objecttolerance="10"
     borderopacity="1"
     bordercolor="#666666"
     pagecolor="#ffffff" />
  <path
     sodipodi:nodetypes="csccsc"
     id="path14"
     d="m 43.143876,24.583611 c 0,0 -12.475151,78.810989 -9.522893,106.925919 2.427964,23.12197 6.608178,32.01732 6.608178,32.01732 l 2.272621,-1.56354 c 0,0 4.42236,-17.52512 9.062214,-32.20256 3.36276,-10.63755 8.909485,-22.23982 8.909485,-22.23982"
     style="font-variation-settings:normal;opacity:1;vector-effect:none;fill:none;fill-opacity:1;stroke:#000000;stroke-width:11.5;stroke-linecap:butt;stroke-linejoin:miter;stroke-miterlimit:4;stroke-dasharray:none;stroke-dashoffset:0;stroke-opacity:1;stop-color:#000000;stop-opacity:1" />
  <path
     sodipodi:nodetypes="csccsccssc"
     id="path16"
     d="m 75.999587,47.349488 c 0,0 25.104633,9.484134 44.148333,8.048542 18.1167,-1.365711 30.00527,-5.970387 30.00527,-5.970387 l -1.16182,-2.849349 c 0,0 -16.34003,-27.464394 -30.19279,-14.101856 C 104.94582,45.838975 100.2009,93.43657 100.2009,93.43657 l 2.10172,0.05472 c 0,0 28.1,-0.214136 32.59257,21.132268 5.27845,25.08047 -5.34062,56.88543 -22.98999,55.68079 -11.28405,-0.77018 -22.870098,-11.43076 -22.870098,-11.43076"
     style="font-variation-settings:normal;opacity:1;vector-effect:none;fill:none;fill-opacity:1;stroke:#000000;stroke-width:11.5;stroke-linecap:butt;stroke-linejoin:miter;stroke-miterlimit:4;stroke-dasharray:none;stroke-dashoffset:0;stroke-opacity:1;stop-color:#000000;stop-opacity:1" />
  <path
     sodipodi:nodetypes="csc"
     id="path18"
     d="m 97.234603,124.91382 c 0,0 -5.056202,9.7057 -11.213565,16.56816 -8.552202,9.53153 -17.95488,15.86132 -17.95488,15.86132"
     style="font-variation-settings:normal;opacity:1;vector-effect:none;fill:none;fill-opacity:1;stroke:#000000;stroke-width:11.5;stroke-linecap:butt;stroke-linejoin:miter;stroke-miterlimit:4;stroke-dasharray:none;stroke-dashoffset:0;stroke-opacity:1;stop-color:#000000;stop-opacity:1" />
  <path
     sodipodi:nodetypes="csc"
     id="path20"
     d="m 152.95731,127.75978 c 0,0 9.77164,5.94319 14.08784,14.13782 4.13181,7.84452 5.97088,16.0273 5.97088,16.0273"
     style="font-variation-settings:normal;opacity:1;vector-effect:none;fill:none;fill-opacity:1;stroke:#000000;stroke-width:11.5;stroke-linecap:butt;stroke-linejoin:miter;stroke-miterlimit:4;stroke-dasharray:none;stroke-dashoffset:0;stroke-opacity:1;stop-color:#000000;stop-opacity:1" />
</svg>
