<?xml version="1.0" encoding="UTF-8" standalone="no"?>
<svg
   xmlns:dc="http://purl.org/dc/elements/1.1/"
   xmlns:cc="http://creativecommons.org/ns#"
   xmlns:rdf="http://www.w3.org/1999/02/22-rdf-syntax-ns#"
   xmlns:svg="http://www.w3.org/2000/svg"
   xmlns="http://www.w3.org/2000/svg"
   xmlns:sodipodi="http://sodipodi.sourceforge.net/DTD/sodipodi-0.dtd"
   xmlns:inkscape="http://www.inkscape.org/namespaces/inkscape"
   inkscape:version="1.0 (4035a4fb49, 2020-05-01)"
   sodipodi:docname="u1b0f4.svg"
   id="svg6"
   height="200"
   width="200"
   viewBox="0 0 200 200"
   version="1.1">
  <metadata
     id="metadata12">
    <rdf:RDF>
      <cc:Work
         rdf:about="">
        <dc:format>image/svg+xml</dc:format>
        <dc:type
           rdf:resource="http://purl.org/dc/dcmitype/StillImage" />
      </cc:Work>
    </rdf:RDF>
  </metadata>
  <defs
     id="defs10" />
  <sodipodi:namedview
     inkscape:current-layer="svg6"
     inkscape:window-maximized="1"
     inkscape:window-y="24"
     inkscape:window-x="0"
     inkscape:cy="126.43516"
     inkscape:cx="123.01392"
     inkscape:zoom="2.815"
     showgrid="false"
     id="namedview8"
     inkscape:window-height="850"
     inkscape:window-width="1440"
     inkscape:pageshadow="2"
     inkscape:pageopacity="0"
     guidetolerance="10"
     gridtolerance="10"
     objecttolerance="10"
     borderopacity="1"
     bordercolor="#666666"
     pagecolor="#ffffff" />
  <path
     sodipodi:nodetypes="cssccsc"
     id="path14"
     d="m 77.150931,18.890446 c 0,0 -20.260593,9.015825 -18.081226,21.968157 2.179367,12.952332 10.999934,34.290418 10.829339,49.171743 -0.170595,14.881324 -2.820984,24.283904 -2.820984,24.283904 l -3.454563,-1.30476 c 0,0 -2.327767,-4.33253 -4.692276,-8.64056 C 55.277297,97.711639 48.287839,92.233542 48.287839,92.233542"
     style="font-variation-settings:normal;opacity:1;vector-effect:none;fill:none;fill-opacity:1;stroke:#000000;stroke-width:11.5;stroke-linecap:butt;stroke-linejoin:miter;stroke-miterlimit:4;stroke-dasharray:none;stroke-dashoffset:0;stroke-opacity:1;stop-color:#000000;stop-opacity:1" />
  <path
     sodipodi:nodetypes="csccsccsc"
     id="path16"
     d="m 31.333075,65.221393 c 0,0 11.218484,-5.307698 20.714443,-8.320176 9.17653,-2.911143 19.074594,-4.091223 19.074594,-4.091223 l 0.300457,1.09762 c 0,0 -15.212195,19.912042 -19.035547,24.985881 C 42.055483,92.604127 36.644965,97.637534 36.644965,97.637534 l 0.598796,0.802462 c 0,0 8.964015,-9.311802 20.993817,-17.823876 6.253949,-4.425183 22.746111,-13.947533 22.746111,-13.947533"
     style="font-variation-settings:normal;opacity:1;vector-effect:none;fill:none;fill-opacity:1;stroke:#000000;stroke-width:11.5;stroke-linecap:butt;stroke-linejoin:miter;stroke-miterlimit:4;stroke-dasharray:none;stroke-dashoffset:0;stroke-opacity:1;stop-color:#000000;stop-opacity:1" />
  <path
     sodipodi:nodetypes="csccssccsc"
     id="path20"
     d="m 110.94181,54.486617 c 0,0 6.30333,-2.958529 9.77821,1.043561 3.47488,4.002091 2.21759,14.328322 2.21759,14.328322 l 1.99702,0.300729 c 0,0 6.9449,-22.953152 25.58539,-21.025503 C 167.6,50.9 169.30516,68.941011 162.27225,79.801393 151.26658,96.79661 118.85289,102.37918 118.85289,102.37918 m 11.70769,15.32491 c 0,0 -10.7905,7.05693 -26.80535,7.12043 -15.411474,0.0611 -26.942958,-4.39382 -26.942958,-4.39382"
     style="font-variation-settings:normal;opacity:1;vector-effect:none;fill:none;fill-opacity:1;stroke:#000000;stroke-width:11.5;stroke-linecap:butt;stroke-linejoin:miter;stroke-miterlimit:4;stroke-dasharray:none;stroke-dashoffset:0;stroke-opacity:1;stop-color:#000000;stop-opacity:1" />
  <path
     sodipodi:nodetypes="csccsc"
     id="path22"
     d="m 100.53536,100.9585 c 0,0 4.08942,28.11533 4.47898,41.85478 0.37788,13.32737 -0.50595,32.63707 -0.50595,32.63707 l -4.03065,2.69782 c 0,0 -1.625948,-2.63184 -5.511363,-6.64098 C 89.363443,165.72585 81.260391,160.8685 81.260391,160.8685"
     style="font-variation-settings:normal;opacity:1;vector-effect:none;fill:none;fill-opacity:1;stroke:#000000;stroke-width:11.5;stroke-linecap:butt;stroke-linejoin:miter;stroke-miterlimit:4;stroke-dasharray:none;stroke-dashoffset:0;stroke-opacity:1;stop-color:#000000;stop-opacity:1" />
  <path
     sodipodi:nodetypes="csc"
     id="path24"
     d="m 76.284904,141.90062 c 0,0 -7.176726,12.17075 -15.65826,19.24409 -11.669751,9.73222 -21.668202,12.58363 -21.668202,12.58363"
     style="font-variation-settings:normal;opacity:1;vector-effect:none;fill:none;fill-opacity:1;stroke:#000000;stroke-width:11.5;stroke-linecap:butt;stroke-linejoin:miter;stroke-miterlimit:4;stroke-dasharray:none;stroke-dashoffset:0;stroke-opacity:1;stop-color:#000000;stop-opacity:1" />
  <path
     sodipodi:nodetypes="csc"
     id="path26"
     d="m 130.7225,144.90998 c 0,0 10.30338,2.68415 18.15493,10.33879 7.83489,7.63839 11.35497,14.2899 11.35497,14.2899"
     style="font-variation-settings:normal;opacity:1;vector-effect:none;fill:none;fill-opacity:1;stroke:#000000;stroke-width:11.5;stroke-linecap:butt;stroke-linejoin:miter;stroke-miterlimit:4;stroke-dasharray:none;stroke-dashoffset:0;stroke-opacity:1;stop-color:#000000;stop-opacity:1" />
</svg>
