<?xml version="1.0" encoding="UTF-8" standalone="no"?>
<svg
   xmlns:dc="http://purl.org/dc/elements/1.1/"
   xmlns:cc="http://creativecommons.org/ns#"
   xmlns:rdf="http://www.w3.org/1999/02/22-rdf-syntax-ns#"
   xmlns:svg="http://www.w3.org/2000/svg"
   xmlns="http://www.w3.org/2000/svg"
   xmlns:sodipodi="http://sodipodi.sourceforge.net/DTD/sodipodi-0.dtd"
   xmlns:inkscape="http://www.inkscape.org/namespaces/inkscape"
   inkscape:version="1.0 (4035a4fb49, 2020-05-01)"
   sodipodi:docname="u1b00f.svg"
   id="svg6"
   height="200"
   width="200"
   viewBox="0 0 200 200"
   version="1.1">
  <metadata
     id="metadata12">
    <rdf:RDF>
      <cc:Work
         rdf:about="">
        <dc:format>image/svg+xml</dc:format>
        <dc:type
           rdf:resource="http://purl.org/dc/dcmitype/StillImage" />
      </cc:Work>
    </rdf:RDF>
  </metadata>
  <defs
     id="defs10" />
  <sodipodi:namedview
     inkscape:current-layer="svg6"
     inkscape:window-maximized="1"
     inkscape:window-y="24"
     inkscape:window-x="0"
     inkscape:cy="89.708096"
     inkscape:cx="102.58289"
     inkscape:zoom="2.815"
     showgrid="false"
     id="namedview8"
     inkscape:window-height="850"
     inkscape:window-width="1440"
     inkscape:pageshadow="2"
     inkscape:pageopacity="0"
     guidetolerance="10"
     gridtolerance="10"
     objecttolerance="10"
     borderopacity="1"
     bordercolor="#666666"
     pagecolor="#ffffff" />
  <path
     sodipodi:nodetypes="csccsccsssssssssccsssc"
     id="path837"
     d="m 51.498901,22.525896 c 0,0 15.472762,3.527046 30.391942,2.889213 11.067034,-0.473143 34.607747,-5.56993 34.607747,-5.56993 l 1.36608,2.097412 c 0,0 -3.33561,4.10282 -5.94828,6.553158 -2.61267,2.450338 -6.23359,11.307077 -6.23359,11.307077 l -0.0778,2.187499 c 0,0 26.3123,3.496721 31.1153,18.135489 4.6089,14.047225 -6.55235,40.670646 -34.2767,40.639536 C 74.719273,100.73424 64.72647,82.139345 64.16517,70.562046 63.748349,61.964749 68.741853,40.993362 81.387417,44.795713 96.7,49.4 93.135859,79.187299 79.74892,93.341838 66.361981,107.49638 47.280362,102.38246 46.177118,91.695389 45.126442,81.517538 50.149079,70.3829 74.964928,64.100484 c 25.133232,-6.362764 35.237412,9.46222 33.279492,21.123366 -2.23412,13.306185 -18.010646,27.06922 -37.623931,35.31116 -12.347015,5.18848 -34.718295,7.54122 -34.718295,7.54122 l -0.412845,2.10721 c 0,0 16.43946,1.43361 38.655668,-1.80874 20.751615,-3.02859 57.486373,-16.26294 72.386313,-17.60836 15.46209,-1.39618 19.33021,2.11118 18.6922,8.2622 -1.13208,10.91431 -38.68686,26.15882 -38.68686,26.15882"
     style="font-variation-settings:normal;opacity:1;vector-effect:none;fill:none;fill-opacity:1;stroke:#000000;stroke-width:11.5;stroke-linecap:butt;stroke-linejoin:miter;stroke-miterlimit:4;stroke-dasharray:none;stroke-dashoffset:0;stroke-opacity:1;stop-color:#000000;stop-opacity:1" />
  <path
     sodipodi:nodetypes="csc"
     id="path839"
     d="m 96.839586,154.59408 c 0,0 -18.220929,12.20711 -11.175267,19.85799 7.045662,7.65088 43.633731,5.85992 43.633731,5.85992"
     style="font-variation-settings:normal;opacity:1;vector-effect:none;fill:none;fill-opacity:1;stroke:#000000;stroke-width:11.5;stroke-linecap:butt;stroke-linejoin:miter;stroke-miterlimit:4;stroke-dasharray:none;stroke-dashoffset:0;stroke-opacity:1;stop-color:#000000;stop-opacity:1" />
</svg>
