<?xml version="1.0" encoding="UTF-8" standalone="no"?>
<svg
   xmlns:dc="http://purl.org/dc/elements/1.1/"
   xmlns:cc="http://creativecommons.org/ns#"
   xmlns:rdf="http://www.w3.org/1999/02/22-rdf-syntax-ns#"
   xmlns:svg="http://www.w3.org/2000/svg"
   xmlns="http://www.w3.org/2000/svg"
   xmlns:sodipodi="http://sodipodi.sourceforge.net/DTD/sodipodi-0.dtd"
   xmlns:inkscape="http://www.inkscape.org/namespaces/inkscape"
   inkscape:version="1.0 (4035a4fb49, 2020-05-01)"
   sodipodi:docname="u1b0d3.svg"
   id="svg6"
   height="200"
   width="200"
   viewBox="0 0 200 200"
   version="1.1">
  <metadata
     id="metadata12">
    <rdf:RDF>
      <cc:Work
         rdf:about="">
        <dc:format>image/svg+xml</dc:format>
        <dc:type
           rdf:resource="http://purl.org/dc/dcmitype/StillImage" />
      </cc:Work>
    </rdf:RDF>
  </metadata>
  <defs
     id="defs10" />
  <sodipodi:namedview
     inkscape:current-layer="svg6"
     inkscape:window-maximized="1"
     inkscape:window-y="24"
     inkscape:window-x="0"
     inkscape:cy="97.056956"
     inkscape:cx="81.191164"
     inkscape:zoom="1.4075"
     showgrid="false"
     id="namedview8"
     inkscape:window-height="850"
     inkscape:window-width="1440"
     inkscape:pageshadow="2"
     inkscape:pageopacity="0"
     guidetolerance="10"
     gridtolerance="10"
     objecttolerance="10"
     borderopacity="1"
     bordercolor="#666666"
     pagecolor="#ffffff" />
  <path
     id="path837"
     d="m 73.332775,20.542547 c 0,0 0.04637,6.227104 0.04637,11.009095 0,4.78199 4.431423,9.531675 4.431423,9.531675"
     style="font-variation-settings:normal;opacity:1;vector-effect:none;fill:none;fill-opacity:1;stroke:#000000;stroke-width:11.5;stroke-linecap:butt;stroke-linejoin:miter;stroke-miterlimit:4;stroke-dasharray:none;stroke-dashoffset:0;stroke-opacity:1;stop-color:#000000;stop-opacity:1" />
  <path
     sodipodi:nodetypes="cssssssccsc"
     id="path839"
     d="m 108.38158,21.674462 c 0,0 13.73963,-2.065015 13.28765,7.205195 -0.45199,9.270211 -46.117176,47.253473 -47.165273,61.543992 -1.037958,14.152281 13.411321,51.170881 -9.974212,72.264601 -22.358852,20.16765 -31.929675,7.00018 -27.994278,-4.49232 2.99222,-8.73815 8.574846,-21.57476 31.906092,-38.26299 28.588642,-20.44872 46.240961,-26.201082 55.255241,-26.911561 9.01427,-0.71048 14.22408,1.449871 14.22408,1.449871 l -1.12417,2.159542 c 0,0 -31.83584,22.315638 -23.25951,30.426428 6.99816,6.61826 54.95999,-14.18392 54.95999,-14.18392"
     style="font-variation-settings:normal;opacity:1;vector-effect:none;fill:none;fill-opacity:1;stroke:#000000;stroke-width:11.5;stroke-linecap:butt;stroke-linejoin:miter;stroke-miterlimit:4;stroke-dasharray:none;stroke-dashoffset:0;stroke-opacity:1;stop-color:#000000;stop-opacity:1" />
  <path
     sodipodi:nodetypes="csccsc"
     id="path841"
     d="m 143.30398,61.520082 c 0,0 -7.01919,20.946002 -8.50434,34.703321 -1.49365,13.836077 0.16569,77.497637 0.16569,77.497637 l -1.86077,1.00174 c 0,0 -3.19181,-4.97258 -8.02744,-9.91752 -3.40301,-3.47995 -9.40566,-7.23727 -9.40566,-7.23727"
     style="font-variation-settings:normal;opacity:1;vector-effect:none;fill:none;fill-opacity:1;stroke:#000000;stroke-width:11.5;stroke-linecap:butt;stroke-linejoin:miter;stroke-miterlimit:4;stroke-dasharray:none;stroke-dashoffset:0;stroke-opacity:1;stop-color:#000000;stop-opacity:1" />
  <path
     id="path843"
     d="m 26.271672,55.794979 c 0,0 16.081241,4.769155 34.654369,3.505933 18.573128,-1.263222 63.205269,-9.572643 75.254559,-10.982609 12.04929,-1.409967 30.65478,1.328864 30.65478,1.328864"
     style="font-variation-settings:normal;opacity:1;vector-effect:none;fill:none;fill-opacity:1;stroke:#000000;stroke-width:11.5;stroke-linecap:butt;stroke-linejoin:miter;stroke-miterlimit:4;stroke-dasharray:none;stroke-dashoffset:0;stroke-opacity:1;stop-color:#000000;stop-opacity:1" />
  <path
     sodipodi:nodetypes="csc"
     id="path845"
     d="m 154.37939,132.04411 c 0,0 9.22483,4.63988 13.00052,11.55818 4.85057,8.88782 6.366,17.1219 6.366,17.1219"
     style="font-variation-settings:normal;opacity:1;vector-effect:none;fill:none;fill-opacity:1;stroke:#000000;stroke-width:11.5;stroke-linecap:butt;stroke-linejoin:miter;stroke-miterlimit:4;stroke-dasharray:none;stroke-dashoffset:0;stroke-opacity:1;stop-color:#000000;stop-opacity:1" />
</svg>
