<?xml version="1.0" encoding="UTF-8" standalone="no"?>
<svg
   xmlns:dc="http://purl.org/dc/elements/1.1/"
   xmlns:cc="http://creativecommons.org/ns#"
   xmlns:rdf="http://www.w3.org/1999/02/22-rdf-syntax-ns#"
   xmlns:svg="http://www.w3.org/2000/svg"
   xmlns="http://www.w3.org/2000/svg"
   xmlns:sodipodi="http://sodipodi.sourceforge.net/DTD/sodipodi-0.dtd"
   xmlns:inkscape="http://www.inkscape.org/namespaces/inkscape"
   version="1.1"
   viewBox="0 0 200 200"
   width="200"
   height="200"
   id="svg6"
   sodipodi:docname="u1b0c1.svg"
   inkscape:version="1.0 (4035a4fb49, 2020-05-01)">
  <metadata
     id="metadata12">
    <rdf:RDF>
      <cc:Work
         rdf:about="">
        <dc:format>image/svg+xml</dc:format>
        <dc:type
           rdf:resource="http://purl.org/dc/dcmitype/StillImage" />
      </cc:Work>
    </rdf:RDF>
  </metadata>
  <defs
     id="defs10" />
  <sodipodi:namedview
     inkscape:document-rotation="0"
     pagecolor="#ffffff"
     bordercolor="#666666"
     borderopacity="1"
     objecttolerance="10"
     gridtolerance="10"
     guidetolerance="10"
     inkscape:pageopacity="0"
     inkscape:pageshadow="2"
     inkscape:window-width="1440"
     inkscape:window-height="850"
     id="namedview8"
     showgrid="false"
     inkscape:zoom="2.1885319"
     inkscape:cx="82.798317"
     inkscape:cy="84.044694"
     inkscape:window-x="0"
     inkscape:window-y="24"
     inkscape:window-maximized="1"
     inkscape:current-layer="svg6" />
  <path
     style="font-variation-settings:normal;opacity:1;vector-effect:none;fill:none;fill-opacity:1;stroke:#000000;stroke-width:11.5;stroke-linecap:butt;stroke-linejoin:miter;stroke-miterlimit:4;stroke-dasharray:none;stroke-dashoffset:0;stroke-opacity:1;stop-color:#000000;stop-opacity:1"
     d="m 93.766587,14.544437 c 0,0 8.479983,24.185588 9.188243,37.280329 0.70826,13.09474 -2.25818,43.063697 -2.25818,43.063697 l -2.179815,1.041739 c 0,0 -27.716835,-7.330202 -27.224817,-23.601623 0.560309,-18.529845 41.134042,-24.364837 41.134042,-24.364837 l 0.8436,1.862451 c 0,0 -18.901394,17.645917 -17.740345,23.350146 1.16105,5.70423 22.501605,0.609507 22.501605,0.609507"
     id="path837"
     sodipodi:nodetypes="csccsccsc" />
  <path
     style="font-variation-settings:normal;opacity:1;vector-effect:none;fill:none;fill-opacity:1;stroke:#000000;stroke-width:11.5;stroke-linecap:butt;stroke-linejoin:miter;stroke-miterlimit:4;stroke-dasharray:none;stroke-dashoffset:0;stroke-opacity:1;stop-color:#000000;stop-opacity:1"
     d="m 49.28038,56.310641 c 0,0 -13.766698,16.547183 -13.932132,31.498449 -0.474299,42.86538 50.560365,15.08805 72.136542,6.690222 15.53774,-6.047563 48.95966,-28.900045 56.30794,-12.031253 6.51174,14.948396 -67.799468,34.239981 -73.01278,45.470181 -3.825545,8.24075 23.13424,9.52345 23.13424,9.52345"
     id="path839"
     sodipodi:nodetypes="cssssc" />
  <path
     style="font-variation-settings:normal;opacity:1;vector-effect:none;fill:none;fill-opacity:1;stroke:#000000;stroke-width:11.5;stroke-linecap:butt;stroke-linejoin:miter;stroke-miterlimit:4;stroke-dasharray:none;stroke-dashoffset:0;stroke-opacity:1;stop-color:#000000;stop-opacity:1"
     d="m 87.593769,144.80005 c 0,0 2.543027,4.38327 9.368271,7.95317 4.34055,2.2703 14.86643,1.44199 14.86643,1.44199 l 0.16445,1.39584 c 0,0 -34.602582,2.14891 -32.391948,16.08434 2.471222,15.57813 44.900688,6.66902 44.900688,6.66902"
     id="path841"
     sodipodi:nodetypes="csccsc" />
</svg>
