<?xml version="1.0" encoding="UTF-8" standalone="no"?>
<svg
   xmlns:dc="http://purl.org/dc/elements/1.1/"
   xmlns:cc="http://creativecommons.org/ns#"
   xmlns:rdf="http://www.w3.org/1999/02/22-rdf-syntax-ns#"
   xmlns:svg="http://www.w3.org/2000/svg"
   xmlns="http://www.w3.org/2000/svg"
   xmlns:sodipodi="http://sodipodi.sourceforge.net/DTD/sodipodi-0.dtd"
   xmlns:inkscape="http://www.inkscape.org/namespaces/inkscape"
   inkscape:version="1.0 (4035a4fb49, 2020-05-01)"
   sodipodi:docname="u1b0fd.svg"
   id="svg6"
   height="200"
   width="200"
   viewBox="0 0 200 200"
   version="1.1">
  <metadata
     id="metadata12">
    <rdf:RDF>
      <cc:Work
         rdf:about="">
        <dc:format>image/svg+xml</dc:format>
        <dc:type
           rdf:resource="http://purl.org/dc/dcmitype/StillImage" />
      </cc:Work>
    </rdf:RDF>
  </metadata>
  <defs
     id="defs10" />
  <sodipodi:namedview
     inkscape:current-layer="svg6"
     inkscape:window-maximized="1"
     inkscape:window-y="24"
     inkscape:window-x="0"
     inkscape:cy="90.976597"
     inkscape:cx="119.33793"
     inkscape:zoom="2.815"
     showgrid="false"
     id="namedview8"
     inkscape:window-height="850"
     inkscape:window-width="1440"
     inkscape:pageshadow="2"
     inkscape:pageopacity="0"
     guidetolerance="10"
     gridtolerance="10"
     objecttolerance="10"
     borderopacity="1"
     bordercolor="#666666"
     pagecolor="#ffffff" />
  <path
     sodipodi:nodetypes="csccsccsssssccsc"
     id="path14"
     d="m 32.659194,28.490222 c 0,0 12.620105,7.408362 26.861721,6.918326 11.985159,-0.412393 21.653172,-4.451981 21.653172,-4.451981 l -0.705753,-1.567244 c 0,0 -4.6387,-10.187622 -8.096976,-3.59968 -3.458276,6.587943 -2.271208,56.522228 -2.271208,56.522228 l -1.696256,2.319598 c 0,0 -31.699994,-12.822494 -21.846743,-23.729332 10.322902,-11.426707 25.555547,-11.704862 28.258683,-7.071493 2.798543,4.796903 -23.579907,34.767383 -21.044585,49.441416 1.98308,11.47775 26.016669,21.11768 21.710812,46.32015 -2.584396,15.12665 -11.639076,23.27897 -21.5812,23.26405 -8.028187,-0.012 -13.605026,-2.9799 -13.605026,-2.9799 l -3.169213,-1.26869 c 0,0 2.218502,-9.80789 23.87896,-39.84528 21.352406,-29.610204 37.05878,-49.429319 37.05878,-49.429319"
     style="font-variation-settings:normal;opacity:1;vector-effect:none;fill:none;fill-opacity:1;stroke:#000000;stroke-width:11.5;stroke-linecap:butt;stroke-linejoin:miter;stroke-miterlimit:4;stroke-dasharray:none;stroke-dashoffset:0;stroke-opacity:1;stop-color:#000000;stop-opacity:1" />
  <path
     sodipodi:nodetypes="cssssc"
     id="path16"
     d="m 119.74784,49.586717 c 0,0 19.83177,-20.338068 26.80276,-2.78864 4.95451,12.472932 -19.38795,36.304052 -12.0622,50.235961 5.02557,9.557492 13.35475,9.825912 9.97271,20.525042 -4.19631,13.27507 -28.09526,31.07733 -20.96112,43.38419 6.13622,10.58539 50.47848,8.36423 50.47848,8.36423"
     style="font-variation-settings:normal;opacity:1;vector-effect:none;fill:none;fill-opacity:1;stroke:#000000;stroke-width:11.5;stroke-linecap:butt;stroke-linejoin:miter;stroke-miterlimit:4;stroke-dasharray:none;stroke-dashoffset:0;stroke-opacity:1;stop-color:#000000;stop-opacity:1" />
</svg>
