<?xml version="1.0" encoding="UTF-8" standalone="no"?>
<svg
   xmlns:dc="http://purl.org/dc/elements/1.1/"
   xmlns:cc="http://creativecommons.org/ns#"
   xmlns:rdf="http://www.w3.org/1999/02/22-rdf-syntax-ns#"
   xmlns:svg="http://www.w3.org/2000/svg"
   xmlns="http://www.w3.org/2000/svg"
   xmlns:sodipodi="http://sodipodi.sourceforge.net/DTD/sodipodi-0.dtd"
   xmlns:inkscape="http://www.inkscape.org/namespaces/inkscape"
   inkscape:version="1.0 (4035a4fb49, 2020-05-01)"
   sodipodi:docname="u1b0e0.svg"
   id="svg6"
   height="200"
   width="200"
   viewBox="0 0 200 200"
   version="1.1">
  <metadata
     id="metadata12">
    <rdf:RDF>
      <cc:Work
         rdf:about="">
        <dc:format>image/svg+xml</dc:format>
        <dc:type
           rdf:resource="http://purl.org/dc/dcmitype/StillImage" />
      </cc:Work>
    </rdf:RDF>
  </metadata>
  <defs
     id="defs10" />
  <sodipodi:namedview
     inkscape:current-layer="svg6"
     inkscape:window-maximized="1"
     inkscape:window-y="24"
     inkscape:window-x="0"
     inkscape:cy="79.647834"
     inkscape:cx="82.310571"
     inkscape:zoom="3.9810112"
     showgrid="false"
     id="namedview8"
     inkscape:window-height="850"
     inkscape:window-width="1440"
     inkscape:pageshadow="2"
     inkscape:pageopacity="0"
     guidetolerance="10"
     gridtolerance="10"
     objecttolerance="10"
     borderopacity="1"
     bordercolor="#666666"
     pagecolor="#ffffff" />
  <path
     id="path837"
     d="m 44.142989,19.754009 c 0,0 11.471266,13.664393 21.501793,17.029796 10.030527,3.365402 17.423825,-0.500615 17.423825,-0.500615"
     style="font-variation-settings:normal;opacity:1;vector-effect:none;fill:none;fill-opacity:1;stroke:#000000;stroke-width:11.5;stroke-linecap:butt;stroke-linejoin:miter;stroke-miterlimit:4;stroke-dasharray:none;stroke-dashoffset:0;stroke-opacity:1;stop-color:#000000;stop-opacity:1" />
  <path
     sodipodi:nodetypes="csccssssc"
     id="path839"
     d="m 27.689795,47.078433 c 0,0 12.231918,9.032861 26.108596,15.436186 9.129326,4.212683 21.250872,4.796716 21.250872,4.796716 l 0.228315,1.588209 c 0,0 -16.753797,17.703151 -13.277954,30.334311 3.475844,12.631165 16.526844,41.806875 8.586301,56.370725 -7.940543,14.56384 -22.998085,15.53358 -30.696603,10.64971 -7.698519,-4.88388 -10.139228,-18.12 -2.767909,-32.07055 7.37132,-13.95055 47.401861,-52.534768 47.401861,-52.534768"
     style="font-variation-settings:normal;opacity:1;vector-effect:none;fill:none;fill-opacity:1;stroke:#000000;stroke-width:11.5;stroke-linecap:butt;stroke-linejoin:miter;stroke-miterlimit:4;stroke-dasharray:none;stroke-dashoffset:0;stroke-opacity:1;stop-color:#000000;stop-opacity:1" />
  <path
     sodipodi:nodetypes="csccssssc"
     id="path841"
     d="m 117.37338,51.437506 c 0,0 36.09805,-23.648702 50.94288,-1.285268 13.10051,19.735659 -12.42099,34.395328 -12.42099,34.395328 l -0.0538,1.918435 c 0,0 20.50738,7.097684 14.55587,28.140159 -5.78228,20.44413 -30.68841,24.0853 -43.6598,19.90728 -21.93792,-7.06611 -18.70161,-62.596295 -5.59891,-69.097735 22.09567,-10.963667 24.36224,57.553485 19.34675,87.479565 -3.9488,23.56148 -6.39515,27.5922 -6.39515,27.5922"
     style="font-variation-settings:normal;opacity:1;vector-effect:none;fill:none;fill-opacity:1;stroke:#000000;stroke-width:11.5;stroke-linecap:butt;stroke-linejoin:miter;stroke-miterlimit:4;stroke-dasharray:none;stroke-dashoffset:0;stroke-opacity:1;stop-color:#000000;stop-opacity:1" />
</svg>
