<?xml version="1.0" encoding="UTF-8" standalone="no"?>
<svg
   xmlns:dc="http://purl.org/dc/elements/1.1/"
   xmlns:cc="http://creativecommons.org/ns#"
   xmlns:rdf="http://www.w3.org/1999/02/22-rdf-syntax-ns#"
   xmlns:svg="http://www.w3.org/2000/svg"
   xmlns="http://www.w3.org/2000/svg"
   xmlns:sodipodi="http://sodipodi.sourceforge.net/DTD/sodipodi-0.dtd"
   xmlns:inkscape="http://www.inkscape.org/namespaces/inkscape"
   inkscape:version="1.0 (4035a4fb49, 2020-05-01)"
   sodipodi:docname="u1b05f.svg"
   id="svg6"
   height="200"
   width="200"
   viewBox="0 0 200 200"
   version="1.1">
  <metadata
     id="metadata12">
    <rdf:RDF>
      <cc:Work
         rdf:about="">
        <dc:format>image/svg+xml</dc:format>
        <dc:type
           rdf:resource="http://purl.org/dc/dcmitype/StillImage" />
      </cc:Work>
    </rdf:RDF>
  </metadata>
  <defs
     id="defs10" />
  <sodipodi:namedview
     inkscape:current-layer="svg6"
     inkscape:window-maximized="1"
     inkscape:window-y="24"
     inkscape:window-x="0"
     inkscape:cy="113.61596"
     inkscape:cx="111.06097"
     inkscape:zoom="2.815"
     showgrid="false"
     id="namedview8"
     inkscape:window-height="850"
     inkscape:window-width="1440"
     inkscape:pageshadow="2"
     inkscape:pageopacity="0"
     guidetolerance="10"
     gridtolerance="10"
     objecttolerance="10"
     borderopacity="1"
     bordercolor="#666666"
     pagecolor="#ffffff" />
  <path
     sodipodi:nodetypes="csccsccsccsssssssc"
     id="path14"
     d="m 94.594497,17.336971 c 0,0 -5.277985,14.55565 -10.589434,21.356892 -7.752387,9.92683 -16.777205,19.550753 -16.777205,19.550753 l 0.981573,1.832263 c 0,0 14.139577,-5.293665 29.004211,-10.838295 10.751438,-4.010374 28.258308,-9.345726 28.258308,-9.345726 l 0.42144,2.052686 c 0,0 -23.36533,18.853189 -36.396848,31.087688 C 80.177215,81.782583 54.72906,105.32894 54.72906,105.32894 l 0.948456,1.12044 c 0,0 35.486765,-29.226248 60.595614,-23.509926 21.14096,4.812986 32.13528,31.428276 24.0432,62.802656 -7.22349,28.00673 -35.52264,39.03607 -55.571897,27.1888 -20.378132,-12.0416 -7.926587,-61.40022 11.16764,-65.10455 16.326087,-3.1673 12.614387,43.65886 -14.872888,53.02607 -25.338363,8.6349 -41.783781,3.85029 -42.542632,-5.27621 -0.758852,-9.1265 22.084716,-19.36078 55.496309,-17.87759 32.138998,1.42669 56.340348,14.96123 72.663558,31.27585"
     style="font-variation-settings:normal;opacity:1;vector-effect:none;fill:none;fill-opacity:1;stroke:#000000;stroke-width:11.5;stroke-linecap:butt;stroke-linejoin:miter;stroke-miterlimit:4;stroke-dasharray:none;stroke-dashoffset:0;stroke-opacity:1;stop-color:#000000;stop-opacity:1" />
</svg>
