<?xml version="1.0" encoding="UTF-8" standalone="no"?>
<svg
   xmlns:dc="http://purl.org/dc/elements/1.1/"
   xmlns:cc="http://creativecommons.org/ns#"
   xmlns:rdf="http://www.w3.org/1999/02/22-rdf-syntax-ns#"
   xmlns:svg="http://www.w3.org/2000/svg"
   xmlns="http://www.w3.org/2000/svg"
   xmlns:sodipodi="http://sodipodi.sourceforge.net/DTD/sodipodi-0.dtd"
   xmlns:inkscape="http://www.inkscape.org/namespaces/inkscape"
   inkscape:version="1.0 (4035a4fb49, 2020-05-01)"
   sodipodi:docname="u1b05c.svg"
   id="svg6"
   height="200"
   width="200"
   viewBox="0 0 200 200"
   version="1.1">
  <metadata
     id="metadata12">
    <rdf:RDF>
      <cc:Work
         rdf:about="">
        <dc:format>image/svg+xml</dc:format>
        <dc:type
           rdf:resource="http://purl.org/dc/dcmitype/StillImage" />
      </cc:Work>
    </rdf:RDF>
  </metadata>
  <defs
     id="defs10" />
  <sodipodi:namedview
     inkscape:current-layer="svg6"
     inkscape:window-maximized="1"
     inkscape:window-y="24"
     inkscape:window-x="0"
     inkscape:cy="118.37492"
     inkscape:cx="111.22801"
     inkscape:zoom="3.9810112"
     showgrid="false"
     id="namedview8"
     inkscape:window-height="850"
     inkscape:window-width="1440"
     inkscape:pageshadow="2"
     inkscape:pageopacity="0"
     guidetolerance="10"
     gridtolerance="10"
     objecttolerance="10"
     borderopacity="1"
     bordercolor="#666666"
     pagecolor="#ffffff" />
  <path
     sodipodi:nodetypes="csc"
     id="path14"
     d="m 65.417502,22.917108 c 0,0 -4.906273,7.731793 -3.723963,15.537127 0.982231,6.484467 5.883057,10.083144 5.883057,10.083144"
     style="font-variation-settings:normal;opacity:1;vector-effect:none;fill:none;fill-opacity:1;stroke:#000000;stroke-width:11.5;stroke-linecap:butt;stroke-linejoin:miter;stroke-miterlimit:4;stroke-dasharray:none;stroke-dashoffset:0;stroke-opacity:1;stop-color:#000000;stop-opacity:1" />
  <path
     sodipodi:nodetypes="csc"
     id="path16"
     d="m 99.040014,31.403303 c 0,0 31.485116,-20.101758 34.380096,-1.176341 2.32815,15.219848 -74.684602,42.66532 -74.684602,42.66532"
     style="font-variation-settings:normal;opacity:1;vector-effect:none;fill:none;fill-opacity:1;stroke:#000000;stroke-width:11.5;stroke-linecap:butt;stroke-linejoin:miter;stroke-miterlimit:4;stroke-dasharray:none;stroke-dashoffset:0;stroke-opacity:1;stop-color:#000000;stop-opacity:1" />
  <path
     sodipodi:nodetypes="csc"
     id="path18"
     d="m 34.408949,59.342672 c 0,0 9.529616,16.086344 34.060262,13.272002 27.904382,-3.201403 93.006899,-21.13964 93.006899,-21.13964"
     style="font-variation-settings:normal;opacity:1;vector-effect:none;fill:none;fill-opacity:1;stroke:#000000;stroke-width:11.5;stroke-linecap:butt;stroke-linejoin:miter;stroke-miterlimit:4;stroke-dasharray:none;stroke-dashoffset:0;stroke-opacity:1;stop-color:#000000;stop-opacity:1" />
  <path
     sodipodi:nodetypes="csccscsc"
     id="path20"
     d="m 74.632291,71.6339 c 0,0 -13.922929,12.076259 -15.899775,32.98502 -2.344102,24.79316 0.625495,56.9563 0.625495,56.9563 l -2.549075,3.71229 c 0,0 -5.262797,-3.0505 -11.586005,-7.03701 -5.726535,-3.61034 -12.869556,-10.18985 -12.869556,-10.18985 0,0 9.902448,-14.56177 23.902234,-26.39144 10.530343,-8.89803 32.320202,-22.209046 32.320202,-22.209046"
     style="font-variation-settings:normal;opacity:1;vector-effect:none;fill:none;fill-opacity:1;stroke:#000000;stroke-width:11.5;stroke-linecap:butt;stroke-linejoin:miter;stroke-miterlimit:4;stroke-dasharray:none;stroke-dashoffset:0;stroke-opacity:1;stop-color:#000000;stop-opacity:1" />
  <path
     sodipodi:nodetypes="csccssssc"
     id="path22"
     d="m 107.56907,91.907937 c 0,0 23.62043,-13.735096 31.84151,-0.945553 7.20124,11.202976 3.04485,82.722916 3.04485,82.722916 l -2.2436,4.00876 c 0,0 -34.50428,-26.19639 -39.70391,-37.38941 -7.071491,-15.2225 51.29431,-46.806353 52.90311,-28.90173 1.03091,11.47309 -26.23494,18.59836 -26.55518,24.7131 -0.51075,9.75264 16.84932,8.37035 30.20237,17.1278 7.74532,5.07969 13.93024,10.11358 13.93024,10.11358"
     style="font-variation-settings:normal;opacity:1;vector-effect:none;fill:none;fill-opacity:1;stroke:#000000;stroke-width:11.5;stroke-linecap:butt;stroke-linejoin:miter;stroke-miterlimit:4;stroke-dasharray:none;stroke-dashoffset:0;stroke-opacity:1;stop-color:#000000;stop-opacity:1" />
</svg>
