<?xml version="1.0" encoding="UTF-8" standalone="no"?>
<svg
   xmlns:dc="http://purl.org/dc/elements/1.1/"
   xmlns:cc="http://creativecommons.org/ns#"
   xmlns:rdf="http://www.w3.org/1999/02/22-rdf-syntax-ns#"
   xmlns:svg="http://www.w3.org/2000/svg"
   xmlns="http://www.w3.org/2000/svg"
   xmlns:sodipodi="http://sodipodi.sourceforge.net/DTD/sodipodi-0.dtd"
   xmlns:inkscape="http://www.inkscape.org/namespaces/inkscape"
   inkscape:version="1.0 (4035a4fb49, 2020-05-01)"
   sodipodi:docname="u1b03d.svg"
   id="svg6"
   height="200"
   width="200"
   viewBox="0 0 200 200"
   version="1.1">
  <metadata
     id="metadata12">
    <rdf:RDF>
      <cc:Work
         rdf:about="">
        <dc:format>image/svg+xml</dc:format>
        <dc:type
           rdf:resource="http://purl.org/dc/dcmitype/StillImage" />
      </cc:Work>
    </rdf:RDF>
  </metadata>
  <defs
     id="defs10" />
  <sodipodi:namedview
     inkscape:current-layer="svg6"
     inkscape:window-maximized="1"
     inkscape:window-y="24"
     inkscape:window-x="0"
     inkscape:cy="131.44027"
     inkscape:cx="111.01168"
     inkscape:zoom="3.9810112"
     showgrid="false"
     id="namedview8"
     inkscape:window-height="850"
     inkscape:window-width="1440"
     inkscape:pageshadow="2"
     inkscape:pageopacity="0"
     guidetolerance="10"
     gridtolerance="10"
     objecttolerance="10"
     borderopacity="1"
     bordercolor="#666666"
     pagecolor="#ffffff" />
  <path
     sodipodi:nodetypes="cssssccsc"
     id="path14"
     d="m 58.72858,28.398754 c 0,0 3.457361,13.072839 -4.891017,27.682899 -8.348377,14.61006 -24.454423,28.050743 -22.752825,35.176244 1.701597,7.125501 13.219731,12.371383 14.469408,27.423763 1.249676,15.05239 -1.271264,36.17558 -1.271264,41.00403 0,4.82845 0.855057,10.87136 0.855057,10.87136 l 1.031173,-0.24875 c 0,0 1.085433,-12.82889 4.717667,-21.48587 4.969126,-11.84329 13.652727,-24.45502 13.652727,-24.45502"
     style="font-variation-settings:normal;opacity:1;vector-effect:none;fill:none;fill-opacity:1;stroke:#000000;stroke-width:11.5;stroke-linecap:butt;stroke-linejoin:miter;stroke-miterlimit:4;stroke-dasharray:none;stroke-dashoffset:0;stroke-opacity:1;stop-color:#000000;stop-opacity:1" />
  <path
     sodipodi:nodetypes="csc"
     id="path16"
     d="m 73.436953,45.985269 c 0,0 25.410422,5.11293 48.760217,2.291228 22.62528,-2.734147 52.08742,-8.876505 52.08742,-8.876505"
     style="font-variation-settings:normal;opacity:1;vector-effect:none;fill:none;fill-opacity:1;stroke:#000000;stroke-width:11.5;stroke-linecap:butt;stroke-linejoin:miter;stroke-miterlimit:4;stroke-dasharray:none;stroke-dashoffset:0;stroke-opacity:1;stop-color:#000000;stop-opacity:1" />
  <path
     sodipodi:nodetypes="cssccsccsc"
     id="path18"
     d="m 144.4207,29.892309 c 0,0 -10.8645,-12.788295 -17.89188,-8.82555 -9.77203,5.510459 -9.96736,47.334717 -3.90211,55.935643 7.37469,10.457801 24.89666,12.085399 24.89666,12.085399 l -0.0238,2.051042 c 0,0 -56.185146,16.700037 -50.691344,30.190397 3.945634,9.68876 20.759664,7.76112 20.759664,7.76112 l 0.98545,2.81124 c 0,0 -35.773186,23.58187 -11.87787,38.81561 20.5072,13.07375 49.41896,10.36838 49.41896,10.36838"
     style="font-variation-settings:normal;opacity:1;vector-effect:none;fill:none;fill-opacity:1;stroke:#000000;stroke-width:11.5;stroke-linecap:butt;stroke-linejoin:miter;stroke-miterlimit:4;stroke-dasharray:none;stroke-dashoffset:0;stroke-opacity:1;stop-color:#000000;stop-opacity:1" />
</svg>
