<?xml version="1.0" encoding="UTF-8" standalone="no"?>
<svg
   xmlns:dc="http://purl.org/dc/elements/1.1/"
   xmlns:cc="http://creativecommons.org/ns#"
   xmlns:rdf="http://www.w3.org/1999/02/22-rdf-syntax-ns#"
   xmlns:svg="http://www.w3.org/2000/svg"
   xmlns="http://www.w3.org/2000/svg"
   xmlns:sodipodi="http://sodipodi.sourceforge.net/DTD/sodipodi-0.dtd"
   xmlns:inkscape="http://www.inkscape.org/namespaces/inkscape"
   inkscape:version="1.0 (4035a4fb49, 2020-05-01)"
   sodipodi:docname="u1b0a2.svg"
   id="svg6"
   height="200"
   width="200"
   viewBox="0 0 200 200"
   version="1.1">
  <metadata
     id="metadata12">
    <rdf:RDF>
      <cc:Work
         rdf:about="">
        <dc:format>image/svg+xml</dc:format>
        <dc:type
           rdf:resource="http://purl.org/dc/dcmitype/StillImage" />
      </cc:Work>
    </rdf:RDF>
  </metadata>
  <defs
     id="defs10" />
  <sodipodi:namedview
     inkscape:current-layer="svg6"
     inkscape:window-maximized="1"
     inkscape:window-y="24"
     inkscape:window-x="0"
     inkscape:cy="79.528721"
     inkscape:cx="-2.7694697"
     inkscape:zoom="1.4075"
     showgrid="false"
     id="namedview8"
     inkscape:window-height="850"
     inkscape:window-width="1440"
     inkscape:pageshadow="2"
     inkscape:pageopacity="0"
     guidetolerance="10"
     gridtolerance="10"
     objecttolerance="10"
     borderopacity="1"
     bordercolor="#666666"
     pagecolor="#ffffff" />
  <path
     sodipodi:nodetypes="csssssscsscscscsc"
     id="path837"
     d="m 95.840145,15.411919 c 0,0 -3.255508,8.729825 -10.851113,14.101654 -7.595606,5.37183 -17.120275,7.540665 -15.078248,15.3878 2.042027,7.847135 18.66019,29.157172 4.474703,44.077899 C 60.2,103.9 44.894695,101.67747 43.614633,91.927181 42.084053,80.268681 60.228817,70.627104 75.712703,60.618848 90.282574,51.201381 106.15374,41.755664 114.0283,44.347206 c 7.87456,2.591541 6.69563,24.10491 6.69563,24.10491 0,0 18.59239,-3.468778 20.87267,6.438928 2.25385,9.792849 -6.30009,14.050326 -15.03055,18.704118 -32.768066,17.467098 -99.321714,36.027188 -99.321714,36.027188 0,0 63.45661,-15.09367 100.814954,-15.64931 27.287,-0.40584 44.01321,-1.25912 44.01321,-1.25912 0,0 -75.230244,2.40588 -82.319045,29.018 -3.048081,11.44283 12.945795,16.42754 12.945795,16.42754 0,0 -25.827405,2.39955 -24.342281,13.92559 1.865782,14.48033 42.711891,9.09397 42.711891,9.09397"
     style="font-variation-settings:normal;opacity:1;vector-effect:none;fill:none;fill-opacity:1;stroke:#000000;stroke-width:11.5;stroke-linecap:butt;stroke-linejoin:miter;stroke-miterlimit:4;stroke-dasharray:none;stroke-dashoffset:0;stroke-opacity:1;stop-color:#000000;stop-opacity:1" />
</svg>
