<?xml version="1.0" encoding="UTF-8" standalone="no"?>
<svg
   xmlns:dc="http://purl.org/dc/elements/1.1/"
   xmlns:cc="http://creativecommons.org/ns#"
   xmlns:rdf="http://www.w3.org/1999/02/22-rdf-syntax-ns#"
   xmlns:svg="http://www.w3.org/2000/svg"
   xmlns="http://www.w3.org/2000/svg"
   xmlns:sodipodi="http://sodipodi.sourceforge.net/DTD/sodipodi-0.dtd"
   xmlns:inkscape="http://www.inkscape.org/namespaces/inkscape"
   inkscape:version="1.0 (4035a4fb49, 2020-05-01)"
   sodipodi:docname="u1b0b1.svg"
   id="svg6"
   height="200"
   width="200"
   viewBox="0 0 200 200"
   version="1.1">
  <metadata
     id="metadata12">
    <rdf:RDF>
      <cc:Work
         rdf:about="">
        <dc:format>image/svg+xml</dc:format>
        <dc:type
           rdf:resource="http://purl.org/dc/dcmitype/StillImage" />
      </cc:Work>
    </rdf:RDF>
  </metadata>
  <defs
     id="defs10" />
  <sodipodi:namedview
     inkscape:current-layer="svg6"
     inkscape:window-maximized="1"
     inkscape:window-y="24"
     inkscape:window-x="0"
     inkscape:cy="104.79296"
     inkscape:cx="76.873887"
     inkscape:zoom="2.815"
     showgrid="false"
     id="namedview8"
     inkscape:window-height="850"
     inkscape:window-width="1440"
     inkscape:pageshadow="2"
     inkscape:pageopacity="0"
     guidetolerance="10"
     gridtolerance="10"
     objecttolerance="10"
     borderopacity="1"
     bordercolor="#666666"
     pagecolor="#ffffff" />
  <path
     sodipodi:nodetypes="csc"
     id="path837"
     d="m 42.231114,44.010023 c 0,0 -4.445747,41.033815 1.016273,69.815967 5.006333,26.38091 23.006026,51.27641 23.006026,51.27641"
     style="font-variation-settings:normal;opacity:1;vector-effect:none;fill:none;fill-opacity:1;stroke:#000000;stroke-width:11.5;stroke-linecap:butt;stroke-linejoin:miter;stroke-miterlimit:4;stroke-dasharray:none;stroke-dashoffset:0;stroke-opacity:1;stop-color:#000000;stop-opacity:1" />
  <path
     sodipodi:nodetypes="cssssscssssssssc"
     id="path839"
     d="m 72.952482,27.306316 c 0,0 1.755002,45.929598 -3.034217,78.861944 C 65.162173,138.8728 51.821599,180.06918 35.4,178.2 20.806147,176.53886 24.282781,145.38713 28.003591,134.70674 34.457218,116.18192 51.520914,87.30795 74.14141,60.692893 93.282658,38.171485 125.54132,19.385948 135.47066,28.692974 145.4,38 132.10167,63.44637 132.10167,63.44637 c 0,0 40.0233,16.829596 40.1733,57.46594 0.1291,34.97541 -16.86975,59.94305 -48.18347,56.89756 -33.10916,-3.22011 -19.67772,-83.65874 -2.60309,-87.157204 17.07462,-3.498463 10.25724,41.407944 5.22747,56.179774 -5.02977,14.77183 -9.74024,20.25345 -17.52483,25.25522 -10.174199,6.53715 -29.578893,0.83323 -29.911874,-14.97846 -0.284196,-13.49508 9.581018,-25.49795 26.096664,-28.5622 21.00902,-3.89794 36.13358,6.56142 46.63301,14.64211 11.40706,8.77923 24.89614,27.86852 24.89614,27.86852"
     style="font-variation-settings:normal;opacity:1;vector-effect:none;fill:none;fill-opacity:1;stroke:#000000;stroke-width:11.5;stroke-linecap:butt;stroke-linejoin:miter;stroke-miterlimit:4;stroke-dasharray:none;stroke-dashoffset:0;stroke-opacity:1;stop-color:#000000;stop-opacity:1" />
</svg>
