<?xml version="1.0" encoding="UTF-8" standalone="no"?>
<svg
   xmlns:dc="http://purl.org/dc/elements/1.1/"
   xmlns:cc="http://creativecommons.org/ns#"
   xmlns:rdf="http://www.w3.org/1999/02/22-rdf-syntax-ns#"
   xmlns:svg="http://www.w3.org/2000/svg"
   xmlns="http://www.w3.org/2000/svg"
   xmlns:sodipodi="http://sodipodi.sourceforge.net/DTD/sodipodi-0.dtd"
   xmlns:inkscape="http://www.inkscape.org/namespaces/inkscape"
   inkscape:version="1.0 (4035a4fb49, 2020-05-01)"
   sodipodi:docname="u1b0b7.svg"
   id="svg6"
   height="200"
   width="200"
   viewBox="0 0 200 200"
   version="1.1">
  <metadata
     id="metadata12">
    <rdf:RDF>
      <cc:Work
         rdf:about="">
        <dc:format>image/svg+xml</dc:format>
        <dc:type
           rdf:resource="http://purl.org/dc/dcmitype/StillImage" />
      </cc:Work>
    </rdf:RDF>
  </metadata>
  <defs
     id="defs10" />
  <sodipodi:namedview
     inkscape:current-layer="svg6"
     inkscape:window-maximized="1"
     inkscape:window-y="24"
     inkscape:window-x="0"
     inkscape:cy="119.8967"
     inkscape:cx="100.51272"
     inkscape:zoom="2.815"
     showgrid="false"
     id="namedview8"
     inkscape:window-height="850"
     inkscape:window-width="1440"
     inkscape:pageshadow="2"
     inkscape:pageopacity="0"
     guidetolerance="10"
     gridtolerance="10"
     objecttolerance="10"
     borderopacity="1"
     bordercolor="#666666"
     pagecolor="#ffffff" />
  <path
     sodipodi:nodetypes="csccccsccssc"
     id="path839"
     d="m 88.990924,19.621889 c 0,0 10.098128,4.007521 7.747297,11.681691 -2.817941,9.199025 -14.921594,21.584446 -14.921594,21.584446 l 1.335453,1.645936 26.65486,-14.576752 1.52289,1.053578 c 0,0 -6.43941,13.662311 -13.152144,21.271766 -6.559889,7.436187 -22.70872,27.091744 -22.70872,27.091744 l 1.11214,1.136591 c 0,0 27.933704,-27.409958 50.858774,-22.963168 C 147.3,71.4 144.00497,84.111319 139.99886,90.363287 c -5.42745,8.470145 -18.9657,6.825666 -28.36466,2.99676"
     style="font-variation-settings:normal;opacity:1;vector-effect:none;fill:none;fill-opacity:1;stroke:#000000;stroke-width:11.5;stroke-linecap:butt;stroke-linejoin:miter;stroke-miterlimit:4;stroke-dasharray:none;stroke-dashoffset:0;stroke-opacity:1;stop-color:#000000;stop-opacity:1" />
  <path
     sodipodi:nodetypes="csccsssssssc"
     id="path841"
     d="m 101.27338,86.687964 c 0,0 10.38922,-2.131148 9.49023,7.302202 -0.80222,8.417864 -3.96947,17.007654 -3.96947,17.007654 l 1.10803,2.84416 c 0,0 22.21032,-6.8712 33.4238,2.93251 8.98317,7.8538 10.91776,20.90805 -2.14099,34.93051 -10.43811,11.2084 -41.753811,14.65751 -54.240632,2.88719 -12.486822,-11.77033 -8.043495,-25.33191 8.167281,-25.96347 16.210771,-0.63157 18.606481,14.91436 5.269975,19.05652 -21.604168,6.71 -53.864619,-6.42292 -60.819231,4.21009 -7.78303,11.8996 27.924647,28.05085 67.597597,28.51142 38.55563,0.4476 63.17571,-6.14314 63.17571,-6.14314"
     style="font-variation-settings:normal;opacity:1;vector-effect:none;fill:none;fill-opacity:1;stroke:#000000;stroke-width:11.5;stroke-linecap:butt;stroke-linejoin:miter;stroke-miterlimit:4;stroke-dasharray:none;stroke-dashoffset:0;stroke-opacity:1;stop-color:#000000;stop-opacity:1" />
</svg>
