<?xml version="1.0" encoding="UTF-8" standalone="no"?>
<svg
   xmlns:dc="http://purl.org/dc/elements/1.1/"
   xmlns:cc="http://creativecommons.org/ns#"
   xmlns:rdf="http://www.w3.org/1999/02/22-rdf-syntax-ns#"
   xmlns:svg="http://www.w3.org/2000/svg"
   xmlns="http://www.w3.org/2000/svg"
   xmlns:sodipodi="http://sodipodi.sourceforge.net/DTD/sodipodi-0.dtd"
   xmlns:inkscape="http://www.inkscape.org/namespaces/inkscape"
   inkscape:version="1.0 (4035a4fb49, 2020-05-01)"
   sodipodi:docname="u1b03b.svg"
   id="svg6"
   height="200"
   width="200"
   viewBox="0 0 200 200"
   version="1.1">
  <metadata
     id="metadata12">
    <rdf:RDF>
      <cc:Work
         rdf:about="">
        <dc:format>image/svg+xml</dc:format>
        <dc:type
           rdf:resource="http://purl.org/dc/dcmitype/StillImage" />
      </cc:Work>
    </rdf:RDF>
  </metadata>
  <defs
     id="defs10" />
  <sodipodi:namedview
     inkscape:current-layer="svg6"
     inkscape:window-maximized="1"
     inkscape:window-y="24"
     inkscape:window-x="0"
     inkscape:cy="92.165483"
     inkscape:cx="113.55813"
     inkscape:zoom="2.815"
     showgrid="false"
     id="namedview8"
     inkscape:window-height="850"
     inkscape:window-width="1440"
     inkscape:pageshadow="2"
     inkscape:pageopacity="0"
     guidetolerance="10"
     gridtolerance="10"
     objecttolerance="10"
     borderopacity="1"
     bordercolor="#666666"
     pagecolor="#ffffff" />
  <path
     id="path14"
     d="m 48.932871,26.352916 c 0,0 3.929145,12.520459 12.281187,18.394291 8.352042,5.873831 19.917842,8.226714 19.917842,8.226714"
     style="font-variation-settings:normal;opacity:1;vector-effect:none;fill:none;fill-opacity:1;stroke:#000000;stroke-width:11.5;stroke-linecap:butt;stroke-linejoin:miter;stroke-miterlimit:4;stroke-dasharray:none;stroke-dashoffset:0;stroke-opacity:1;stop-color:#000000;stop-opacity:1" />
  <path
     sodipodi:nodetypes="csssccsc"
     id="path16"
     d="m 28.690176,87.00938 c 0,0 -5.919562,10.178162 3.75847,14.84528 9.624431,4.64127 35.682819,-3.02643 39.753227,-8.829444 C 74.440359,89.8339 64.083146,76.207907 59.35013,116.5571 c -4.536137,38.67079 1.613057,47.64892 1.613057,47.64892 l 1.439604,-0.50101 c 0,0 6.110399,-15.05538 13.013545,-29.25743 4.598812,-9.46128 11.305639,-19.47685 11.305639,-19.47685"
     style="font-variation-settings:normal;opacity:1;vector-effect:none;fill:none;fill-opacity:1;stroke:#000000;stroke-width:11.5;stroke-linecap:butt;stroke-linejoin:miter;stroke-miterlimit:4;stroke-dasharray:none;stroke-dashoffset:0;stroke-opacity:1;stop-color:#000000;stop-opacity:1" />
  <path
     sodipodi:nodetypes="csccsssc"
     id="path18"
     d="m 118.16574,45.833211 c 0,0 16.88325,-18.610489 22.70414,-7.573793 5.8209,11.036696 -10.02884,38.762463 -10.02884,38.762463 l 1.93437,1.560976 c 0,0 21.81253,-13.380624 32.55613,3.86438 9.73749,15.630044 7.56492,38.162163 -12.66124,53.898623 -20.93127,16.28505 -28.41486,23.13015 -19.12082,29.71491 11.28027,7.99198 37.02869,1.95275 37.02869,1.95275"
     style="font-variation-settings:normal;opacity:1;vector-effect:none;fill:none;fill-opacity:1;stroke:#000000;stroke-width:11.5;stroke-linecap:butt;stroke-linejoin:miter;stroke-miterlimit:4;stroke-dasharray:none;stroke-dashoffset:0;stroke-opacity:1;stop-color:#000000;stop-opacity:1" />
</svg>
