<?xml version="1.0" encoding="UTF-8" standalone="no"?>
<svg
   xmlns:dc="http://purl.org/dc/elements/1.1/"
   xmlns:cc="http://creativecommons.org/ns#"
   xmlns:rdf="http://www.w3.org/1999/02/22-rdf-syntax-ns#"
   xmlns:svg="http://www.w3.org/2000/svg"
   xmlns="http://www.w3.org/2000/svg"
   xmlns:sodipodi="http://sodipodi.sourceforge.net/DTD/sodipodi-0.dtd"
   xmlns:inkscape="http://www.inkscape.org/namespaces/inkscape"
   inkscape:version="1.0 (4035a4fb49, 2020-05-01)"
   sodipodi:docname="u1b0d5.svg"
   id="svg6"
   height="200"
   width="200"
   viewBox="0 0 200 200"
   version="1.1">
  <metadata
     id="metadata12">
    <rdf:RDF>
      <cc:Work
         rdf:about="">
        <dc:format>image/svg+xml</dc:format>
        <dc:type
           rdf:resource="http://purl.org/dc/dcmitype/StillImage" />
      </cc:Work>
    </rdf:RDF>
  </metadata>
  <defs
     id="defs10" />
  <sodipodi:namedview
     inkscape:current-layer="svg6"
     inkscape:window-maximized="1"
     inkscape:window-y="24"
     inkscape:window-x="0"
     inkscape:cy="80.088954"
     inkscape:cx="68.433406"
     inkscape:zoom="3.9810112"
     showgrid="false"
     id="namedview8"
     inkscape:window-height="850"
     inkscape:window-width="1440"
     inkscape:pageshadow="2"
     inkscape:pageopacity="0"
     guidetolerance="10"
     gridtolerance="10"
     objecttolerance="10"
     borderopacity="1"
     bordercolor="#666666"
     pagecolor="#ffffff" />
  <path
     sodipodi:nodetypes="csccsccsssc"
     id="path837"
     d="m 52.998192,28.227578 c 0,0 22.8976,5.597738 37.978075,4.295369 15.080473,-1.302369 27.887473,-4.228282 27.887473,-4.228282 l 0.47496,1.404253 c 0,0 -28.899837,16.962929 -54.894961,43.999568 C 45.128745,93.787351 27.410217,115.47633 27.410217,115.47633 l 1.029279,0.96894 c 0,0 43.039052,-55.899716 104.282474,-54.288954 C 164.8,63 177.28642,86.87566 173.074,115.96207 c -3.85231,26.59996 -19.70534,50.86179 -30.96731,51.1274 C 124.7,167.5 114.10422,146.73921 114.10422,146.73921"
     style="font-variation-settings:normal;opacity:1;vector-effect:none;fill:none;fill-opacity:1;stroke:#000000;stroke-width:11.5;stroke-linecap:butt;stroke-linejoin:miter;stroke-miterlimit:4;stroke-dasharray:none;stroke-dashoffset:0;stroke-opacity:1;stop-color:#000000;stop-opacity:1" />
  <path
     sodipodi:nodetypes="csc"
     id="path839"
     d="m 74.819646,88.051352 c 0,0 -7.834611,17.645658 -8.084369,30.566758 -0.286805,14.83766 0.450131,28.41935 0.450131,28.41935"
     style="font-variation-settings:normal;opacity:1;vector-effect:none;fill:none;fill-opacity:1;stroke:#000000;stroke-width:11.5;stroke-linecap:butt;stroke-linejoin:miter;stroke-miterlimit:4;stroke-dasharray:none;stroke-dashoffset:0;stroke-opacity:1;stop-color:#000000;stop-opacity:1" />
  <path
     sodipodi:nodetypes="cssccssccc"
     id="path841"
     d="m 97.292532,87.378748 c 0,0 10.508888,-9.152493 19.831728,-2.859335 6.77761,4.575057 10.08831,38.086907 0.43671,47.413337 -9.60389,9.28033 -30.058102,15.18339 -30.058102,15.18339 l -0.482119,-2.4208 c 0,0 -2.059649,-33.21356 8.997699,-32.86332 11.057352,0.35023 14.029252,18.53579 7.103622,35.16393 -6.925622,16.62815 -27.328754,24.73749 -27.328754,24.73749 l 0.196723,1.86022 38.274021,-3.05887"
     style="font-variation-settings:normal;opacity:1;vector-effect:none;fill:none;fill-opacity:1;stroke:#000000;stroke-width:11.5;stroke-linecap:butt;stroke-linejoin:miter;stroke-miterlimit:4;stroke-dasharray:none;stroke-dashoffset:0;stroke-opacity:1;stop-color:#000000;stop-opacity:1" />
</svg>
