<?xml version="1.0" encoding="UTF-8" standalone="no"?>
<svg
   xmlns:dc="http://purl.org/dc/elements/1.1/"
   xmlns:cc="http://creativecommons.org/ns#"
   xmlns:rdf="http://www.w3.org/1999/02/22-rdf-syntax-ns#"
   xmlns:svg="http://www.w3.org/2000/svg"
   xmlns="http://www.w3.org/2000/svg"
   xmlns:sodipodi="http://sodipodi.sourceforge.net/DTD/sodipodi-0.dtd"
   xmlns:inkscape="http://www.inkscape.org/namespaces/inkscape"
   inkscape:version="1.0 (4035a4fb49, 2020-05-01)"
   sodipodi:docname="u1b0dc.svg"
   id="svg6"
   height="200"
   width="200"
   viewBox="0 0 200 200"
   version="1.1">
  <metadata
     id="metadata12">
    <rdf:RDF>
      <cc:Work
         rdf:about="">
        <dc:format>image/svg+xml</dc:format>
        <dc:type
           rdf:resource="http://purl.org/dc/dcmitype/StillImage" />
      </cc:Work>
    </rdf:RDF>
  </metadata>
  <defs
     id="defs10" />
  <sodipodi:namedview
     inkscape:current-layer="svg6"
     inkscape:window-maximized="1"
     inkscape:window-y="24"
     inkscape:window-x="0"
     inkscape:cy="109.75496"
     inkscape:cx="91.881725"
     inkscape:zoom="1.9905056"
     showgrid="false"
     id="namedview8"
     inkscape:window-height="850"
     inkscape:window-width="1440"
     inkscape:pageshadow="2"
     inkscape:pageopacity="0"
     guidetolerance="10"
     gridtolerance="10"
     objecttolerance="10"
     borderopacity="1"
     bordercolor="#666666"
     pagecolor="#ffffff" />
  <path
     sodipodi:nodetypes="csccc"
     id="path837"
     d="m 90.504068,18.016071 c 0,0 -1.776199,10.844831 -2.482245,17.433224 -0.706045,6.588392 0.359674,24.680293 0.359674,24.680293 L 86.723585,62.106596 62.84378,50.202954"
     style="font-variation-settings:normal;opacity:1;vector-effect:none;fill:none;fill-opacity:1;stroke:#000000;stroke-width:11.5;stroke-linecap:butt;stroke-linejoin:miter;stroke-miterlimit:4;stroke-dasharray:none;stroke-dashoffset:0;stroke-opacity:1;stop-color:#000000;stop-opacity:1" />
  <path
     sodipodi:nodetypes="csssccsccsccsc"
     id="path841"
     d="m 33.684229,35.907232 c 0,0 6.760783,5.449821 23.064975,4.719655 C 73.053396,39.89672 125.77986,20.48576 134.83529,31.003236 145.02781,42.841382 68.777975,78.744372 54.651912,87.682988 46.394029,92.908369 34.069829,99.416257 34.069829,99.416257 l 0.478216,1.058953 c 0,0 54.358908,-29.694083 85.027365,-32.192437 21.9701,-1.789757 34.34012,4.412703 34.34012,4.412703 l -0.6427,3.636847 c 0,0 -66.289781,14.277288 -72.274028,26.266497 -5.984247,11.9892 27.614958,7.78125 27.614958,7.78125 l 1.14959,3.31284 c 0,0 -31.780195,24.23858 -35.807506,27.9933 -8.090871,7.54324 -34.818281,36.54808 -34.818281,36.54808"
     style="font-variation-settings:normal;opacity:1;vector-effect:none;fill:none;fill-opacity:1;stroke:#000000;stroke-width:11.5;stroke-linecap:butt;stroke-linejoin:miter;stroke-miterlimit:4;stroke-dasharray:none;stroke-dashoffset:0;stroke-opacity:1;stop-color:#000000;stop-opacity:1" />
  <path
     sodipodi:nodetypes="csccssc"
     id="path843"
     d="m 62.112251,153.33658 c 0,0 11.476165,-7.70026 18.061284,1.23588 6.585118,8.93614 8.779067,20.35548 8.779067,20.35548 l 1.053599,-0.11244 c 0,0 4.923677,-22.53223 45.857029,-32.99354 24.73677,-6.32196 32.61123,5.19973 32.61123,12.60521 0,7.40548 -22.24185,19.10217 -22.24185,19.10217"
     style="font-variation-settings:normal;opacity:1;vector-effect:none;fill:none;fill-opacity:1;stroke:#000000;stroke-width:11.5;stroke-linecap:butt;stroke-linejoin:miter;stroke-miterlimit:4;stroke-dasharray:none;stroke-dashoffset:0;stroke-opacity:1;stop-color:#000000;stop-opacity:1" />
</svg>
