<?xml version="1.0" encoding="UTF-8" standalone="no"?>
<svg
   xmlns:dc="http://purl.org/dc/elements/1.1/"
   xmlns:cc="http://creativecommons.org/ns#"
   xmlns:rdf="http://www.w3.org/1999/02/22-rdf-syntax-ns#"
   xmlns:svg="http://www.w3.org/2000/svg"
   xmlns="http://www.w3.org/2000/svg"
   xmlns:sodipodi="http://sodipodi.sourceforge.net/DTD/sodipodi-0.dtd"
   xmlns:inkscape="http://www.inkscape.org/namespaces/inkscape"
   inkscape:version="1.0 (4035a4fb49, 2020-05-01)"
   sodipodi:docname="u1b0e6.svg"
   id="svg6"
   height="200"
   width="200"
   viewBox="0 0 200 200"
   version="1.1">
  <metadata
     id="metadata12">
    <rdf:RDF>
      <cc:Work
         rdf:about="">
        <dc:format>image/svg+xml</dc:format>
        <dc:type
           rdf:resource="http://purl.org/dc/dcmitype/StillImage" />
      </cc:Work>
    </rdf:RDF>
  </metadata>
  <defs
     id="defs10" />
  <sodipodi:namedview
     inkscape:current-layer="svg6"
     inkscape:window-maximized="1"
     inkscape:window-y="24"
     inkscape:window-x="0"
     inkscape:cy="135.90455"
     inkscape:cx="135.16705"
     inkscape:zoom="1.9905056"
     showgrid="false"
     id="namedview8"
     inkscape:window-height="850"
     inkscape:window-width="1440"
     inkscape:pageshadow="2"
     inkscape:pageopacity="0"
     guidetolerance="10"
     gridtolerance="10"
     objecttolerance="10"
     borderopacity="1"
     bordercolor="#666666"
     pagecolor="#ffffff" />
  <path
     sodipodi:nodetypes="csccsc"
     id="path837"
     d="m 62.376206,17.083464 c 0,0 6.943884,48.031175 7.067893,68.723453 0.12401,20.692273 1.591957,53.360333 1.591957,53.360333 l -3.391217,0.52913 c 0,0 -3.50358,-6.60379 -6.909617,-12.45688 -2.326476,-3.99793 -9.032319,-10.71862 -9.032319,-10.71862"
     style="font-variation-settings:normal;opacity:1;vector-effect:none;fill:none;fill-opacity:1;stroke:#000000;stroke-width:11.5;stroke-linecap:butt;stroke-linejoin:miter;stroke-miterlimit:4;stroke-dasharray:none;stroke-dashoffset:0;stroke-opacity:1;stop-color:#000000;stop-opacity:1" />
  <path
     sodipodi:nodetypes="csccscsccssc"
     id="path839"
     d="m 28.716133,96.201217 c 0,0 -0.02884,8.683143 2.669556,13.446303 2.377724,4.19711 8.906063,10.13846 8.906063,10.13846 l 1.653963,1.09988 c 0,0 93.590245,-101.101617 109.828435,-83.383419 16.23819,17.718199 -18.43647,37.983623 -18.43647,37.983623 0,0 7.97661,23.286279 8.03877,35.715906 0.0935,18.70142 -2.46451,26.25444 -2.46451,26.25444 l -3.35385,2.04756 c 0,0 -6.40627,-3.38849 -15.34253,-7.63245 -12.23319,-5.80971 -25.447318,-9.60959 -18.56982,-17.9534 19.13808,-23.218386 76.14942,-22.346746 76.14942,-22.346746"
     style="font-variation-settings:normal;opacity:1;vector-effect:none;fill:none;fill-opacity:1;stroke:#000000;stroke-width:11.5;stroke-linecap:butt;stroke-linejoin:miter;stroke-miterlimit:4;stroke-dasharray:none;stroke-dashoffset:0;stroke-opacity:1;stop-color:#000000;stop-opacity:1" />
  <path
     id="path841"
     d="m 39.23625,55.23115 c 0,0 9.695326,7.141154 24.113074,7.655406 14.417748,0.514251 26.184284,-5.79328 26.184284,-5.79328"
     style="font-variation-settings:normal;opacity:1;vector-effect:none;fill:none;fill-opacity:1;stroke:#000000;stroke-width:11.5;stroke-linecap:butt;stroke-linejoin:miter;stroke-miterlimit:4;stroke-dasharray:none;stroke-dashoffset:0;stroke-opacity:1;stop-color:#000000;stop-opacity:1" />
  <path
     sodipodi:nodetypes="csc"
     id="path843"
     d="m 43.590585,146.77913 c 0,0 -6.624018,17.68683 13.620423,25.66894 27.521825,10.85147 104.412022,-0.70074 104.412022,-0.70074"
     style="font-variation-settings:normal;opacity:1;vector-effect:none;fill:none;fill-opacity:1;stroke:#000000;stroke-width:11.5;stroke-linecap:butt;stroke-linejoin:miter;stroke-miterlimit:4;stroke-dasharray:none;stroke-dashoffset:0;stroke-opacity:1;stop-color:#000000;stop-opacity:1" />
</svg>
