<?xml version="1.0" encoding="UTF-8" standalone="no"?>
<svg
   xmlns:dc="http://purl.org/dc/elements/1.1/"
   xmlns:cc="http://creativecommons.org/ns#"
   xmlns:rdf="http://www.w3.org/1999/02/22-rdf-syntax-ns#"
   xmlns:svg="http://www.w3.org/2000/svg"
   xmlns="http://www.w3.org/2000/svg"
   xmlns:sodipodi="http://sodipodi.sourceforge.net/DTD/sodipodi-0.dtd"
   xmlns:inkscape="http://www.inkscape.org/namespaces/inkscape"
   inkscape:version="1.0 (4035a4fb49, 2020-05-01)"
   sodipodi:docname="u1b0a7.svg"
   id="svg6"
   height="200"
   width="200"
   viewBox="0 0 200 200"
   version="1.1">
  <metadata
     id="metadata12">
    <rdf:RDF>
      <cc:Work
         rdf:about="">
        <dc:format>image/svg+xml</dc:format>
        <dc:type
           rdf:resource="http://purl.org/dc/dcmitype/StillImage" />
      </cc:Work>
    </rdf:RDF>
  </metadata>
  <defs
     id="defs10" />
  <sodipodi:namedview
     inkscape:current-layer="svg6"
     inkscape:window-maximized="1"
     inkscape:window-y="24"
     inkscape:window-x="0"
     inkscape:cy="106.51647"
     inkscape:cx="53.197732"
     inkscape:zoom="1.9905056"
     showgrid="false"
     id="namedview8"
     inkscape:window-height="850"
     inkscape:window-width="1440"
     inkscape:pageshadow="2"
     inkscape:pageopacity="0"
     guidetolerance="10"
     gridtolerance="10"
     objecttolerance="10"
     borderopacity="1"
     bordercolor="#666666"
     pagecolor="#ffffff" />
  <path
     sodipodi:nodetypes="csc"
     id="path837"
     d="m 53.428647,16.190082 c 0,0 -0.596605,4.823975 3.628475,9.759535 4.22508,4.93556 14.564735,6.296634 14.564735,6.296634"
     style="font-variation-settings:normal;opacity:1;vector-effect:none;fill:none;fill-opacity:1;stroke:#000000;stroke-width:11.5;stroke-linecap:butt;stroke-linejoin:miter;stroke-miterlimit:4;stroke-dasharray:none;stroke-dashoffset:0;stroke-opacity:1;stop-color:#000000;stop-opacity:1" />
  <path
     sodipodi:nodetypes="csc"
     id="path843"
     d="m 122.93684,12.455401 c 0,0 -2.11609,7.119775 -6.48627,12.287817 -5.53585,6.546515 -24.957613,15.154683 -24.957613,15.154683"
     style="font-variation-settings:normal;opacity:1;vector-effect:none;fill:none;fill-opacity:1;stroke:#000000;stroke-width:11.5;stroke-linecap:butt;stroke-linejoin:miter;stroke-miterlimit:4;stroke-dasharray:none;stroke-dashoffset:0;stroke-opacity:1;stop-color:#000000;stop-opacity:1" />
  <path
     sodipodi:nodetypes="cscsccscsc"
     id="path845"
     d="m 27.49704,52.760117 c 0,0 25.718168,3.464829 48.258549,1.705244 22.540381,-1.759585 45.908231,-6.323827 45.908231,-6.323827 0,0 -44.40925,24.804083 -58.625175,33.315793 -9.543083,5.71387 -31.429361,16.292752 -31.429361,16.292752 L 108.46273,78.929103 c 0,0 10.01396,13.217595 27.62864,22.380527 17.61467,9.16293 39.7872,15.32941 39.7872,15.32941 0,0 -10.08919,-4.68475 -15.44803,-12.74979 -5.05119,-7.602021 -9.93811,-15.249925 -9.93811,-15.249925"
     style="font-variation-settings:normal;opacity:1;vector-effect:none;fill:none;fill-opacity:1;stroke:#000000;stroke-width:11.5;stroke-linecap:butt;stroke-linejoin:miter;stroke-miterlimit:4;stroke-dasharray:none;stroke-dashoffset:0;stroke-opacity:1;stop-color:#000000;stop-opacity:1" />
  <path
     sodipodi:nodetypes="csscsssccc"
     id="path847"
     d="m 158.81978,55.958047 c 0,0 -1.83632,6.674685 -10.81221,15.154993 -21.98505,20.771196 -79.100634,33.22091 -79.459736,48.27772 -0.149465,6.26692 51.605166,3.18435 51.605166,3.18435 0,0 -1.0877,-8.54706 -5.44768,-12.53817 -3.78633,-3.46599 -15.498077,-4.02929 -15.399874,14.79888 0.08155,15.635 -0.101282,19.90489 -0.123343,30.6772 -0.02559,12.49573 -0.589115,28.19545 -0.589115,28.19545 0,0 -1.533479,0.55686 -3.122175,1.20195 C 82.636801,173.63916 67.132151,168.4762 67.132151,168.4762"
     style="font-variation-settings:normal;opacity:1;vector-effect:none;fill:none;fill-opacity:1;stroke:#000000;stroke-width:11.5;stroke-linecap:butt;stroke-linejoin:miter;stroke-miterlimit:4;stroke-dasharray:none;stroke-dashoffset:0;stroke-opacity:1;stop-color:#000000;stop-opacity:1" />
  <path
     sodipodi:nodetypes="csc"
     id="path849"
     d="m 71.060315,137.33324 c 0,0 -8.788544,11.61492 -18.280116,16.51195 -13.866638,7.15429 -29.129411,10.10962 -29.129411,10.10962"
     style="font-variation-settings:normal;opacity:1;vector-effect:none;fill:none;fill-opacity:1;stroke:#000000;stroke-width:11.5;stroke-linecap:butt;stroke-linejoin:miter;stroke-miterlimit:4;stroke-dasharray:none;stroke-dashoffset:0;stroke-opacity:1;stop-color:#000000;stop-opacity:1" />
  <path
     sodipodi:nodetypes="csc"
     id="path851"
     d="m 125.57927,137.03964 c 0,0 16.53868,3.4221 26.89086,9.55318 9.18295,5.4386 16.35595,13.9277 16.35595,13.9277"
     style="font-variation-settings:normal;opacity:1;vector-effect:none;fill:none;fill-opacity:1;stroke:#000000;stroke-width:11.5;stroke-linecap:butt;stroke-linejoin:miter;stroke-miterlimit:4;stroke-dasharray:none;stroke-dashoffset:0;stroke-opacity:1;stop-color:#000000;stop-opacity:1" />
</svg>
