<?xml version="1.0" encoding="UTF-8" standalone="no"?>
<svg
   xmlns:dc="http://purl.org/dc/elements/1.1/"
   xmlns:cc="http://creativecommons.org/ns#"
   xmlns:rdf="http://www.w3.org/1999/02/22-rdf-syntax-ns#"
   xmlns:svg="http://www.w3.org/2000/svg"
   xmlns="http://www.w3.org/2000/svg"
   xmlns:sodipodi="http://sodipodi.sourceforge.net/DTD/sodipodi-0.dtd"
   xmlns:inkscape="http://www.inkscape.org/namespaces/inkscape"
   inkscape:version="1.0 (4035a4fb49, 2020-05-01)"
   sodipodi:docname="u1b01d.svg"
   id="svg6"
   height="200"
   width="200"
   viewBox="0 0 200 200"
   version="1.1">
  <metadata
     id="metadata12">
    <rdf:RDF>
      <cc:Work
         rdf:about="">
        <dc:format>image/svg+xml</dc:format>
        <dc:type
           rdf:resource="http://purl.org/dc/dcmitype/StillImage" />
      </cc:Work>
    </rdf:RDF>
  </metadata>
  <defs
     id="defs10" />
  <sodipodi:namedview
     inkscape:current-layer="svg6"
     inkscape:window-maximized="1"
     inkscape:window-y="24"
     inkscape:window-x="0"
     inkscape:cy="95.985949"
     inkscape:cx="139.22011"
     inkscape:zoom="1.9905056"
     showgrid="false"
     id="namedview8"
     inkscape:window-height="850"
     inkscape:window-width="1440"
     inkscape:pageshadow="2"
     inkscape:pageopacity="0"
     guidetolerance="10"
     gridtolerance="10"
     objecttolerance="10"
     borderopacity="1"
     bordercolor="#666666"
     pagecolor="#ffffff" />
  <path
     sodipodi:nodetypes="cssssccssc"
     id="path14"
     d="m 47.998887,57.642592 c 0,0 9.394006,7.150391 24.412752,3.478683 C 84.193689,58.240858 88.0953,54.483812 88.594542,47.399308 89.093784,40.314804 78.795958,24.861826 66.789514,25.745285 55.748788,26.557684 46.019909,50.32262 42.236133,73.193963 39.323683,90.798505 40.483608,99.272991 40.483608,99.272991 l 4.261107,0.223595 c 0,0 27.350435,-7.027741 33.769672,9.586014 6.419236,16.61376 11.136347,51.29615 -10.659521,65.25038 -21.795867,13.95423 -30.381524,-17.02385 -30.381524,-17.02385"
     style="font-variation-settings:normal;opacity:1;vector-effect:none;fill:none;fill-opacity:1;stroke:#000000;stroke-width:11.5;stroke-linecap:butt;stroke-linejoin:miter;stroke-miterlimit:4;stroke-dasharray:none;stroke-dashoffset:0;stroke-opacity:1;stop-color:#000000;stop-opacity:1" />
  <path
     sodipodi:nodetypes="csccsc"
     id="path16"
     d="m 24.475757,139.8946 c 0,0 -3.608226,11.11009 -3.871015,15.72319 -0.369056,6.47854 0.43101,13.68005 0.43101,13.68005 l 3.131821,-0.27126 c 0,0 21.259934,-25.45043 32.163962,-39.14787 7.48652,-9.40443 32.424034,-43.650297 32.424034,-43.650297"
     style="font-variation-settings:normal;opacity:1;vector-effect:none;fill:none;fill-opacity:1;stroke:#000000;stroke-width:11.5;stroke-linecap:butt;stroke-linejoin:miter;stroke-miterlimit:4;stroke-dasharray:none;stroke-dashoffset:0;stroke-opacity:1;stop-color:#000000;stop-opacity:1" />
  <path
     sodipodi:nodetypes="csccsc"
     id="path18"
     d="m 139.19823,19.944696 c 0,0 0.15196,12.746382 -2.29718,21.054156 -4.69163,15.914568 -23.08001,40.267181 -23.08001,40.267181 l 1.57551,1.268893 c 0,0 37.40946,-32.750488 56.7768,-17.846773 11.85713,9.124394 7.64974,34.122031 -22.2045,43.593937"
     style="font-variation-settings:normal;opacity:1;vector-effect:none;fill:none;fill-opacity:1;stroke:#000000;stroke-width:11.5;stroke-linecap:butt;stroke-linejoin:miter;stroke-miterlimit:4;stroke-dasharray:none;stroke-dashoffset:0;stroke-opacity:1;stop-color:#000000;stop-opacity:1" />
  <path
     sodipodi:nodetypes="csccsc"
     id="path20"
     d="m 134.66957,96.006322 c 0,0 3.17874,15.650178 -1.09506,31.986208 -6.08111,23.24424 -33.22936,46.79934 -33.22936,46.79934 l 0.29863,0.40761 c 0,0 22.62792,-27.15683 44.22721,-22.68917 20.12621,4.16297 35.63375,25.1762 35.63375,25.1762"
     style="font-variation-settings:normal;opacity:1;vector-effect:none;fill:none;fill-opacity:1;stroke:#000000;stroke-width:11.5;stroke-linecap:butt;stroke-linejoin:miter;stroke-miterlimit:4;stroke-dasharray:none;stroke-dashoffset:0;stroke-opacity:1;stop-color:#000000;stop-opacity:1" />
</svg>
