<?xml version="1.0" encoding="UTF-8" standalone="no"?>
<svg
   xmlns:dc="http://purl.org/dc/elements/1.1/"
   xmlns:cc="http://creativecommons.org/ns#"
   xmlns:rdf="http://www.w3.org/1999/02/22-rdf-syntax-ns#"
   xmlns:svg="http://www.w3.org/2000/svg"
   xmlns="http://www.w3.org/2000/svg"
   xmlns:sodipodi="http://sodipodi.sourceforge.net/DTD/sodipodi-0.dtd"
   xmlns:inkscape="http://www.inkscape.org/namespaces/inkscape"
   inkscape:version="1.0 (4035a4fb49, 2020-05-01)"
   sodipodi:docname="u1b09d.svg"
   id="svg6"
   height="200"
   width="200"
   viewBox="0 0 200 200"
   version="1.1">
  <metadata
     id="metadata12">
    <rdf:RDF>
      <cc:Work
         rdf:about="">
        <dc:format>image/svg+xml</dc:format>
        <dc:type
           rdf:resource="http://purl.org/dc/dcmitype/StillImage" />
      </cc:Work>
    </rdf:RDF>
  </metadata>
  <defs
     id="defs10" />
  <sodipodi:namedview
     inkscape:current-layer="svg6"
     inkscape:window-maximized="1"
     inkscape:window-y="24"
     inkscape:window-x="0"
     inkscape:cy="113.36527"
     inkscape:cx="68.089883"
     inkscape:zoom="3.0950515"
     showgrid="false"
     id="namedview8"
     inkscape:window-height="850"
     inkscape:window-width="1440"
     inkscape:pageshadow="2"
     inkscape:pageopacity="0"
     guidetolerance="10"
     gridtolerance="10"
     objecttolerance="10"
     borderopacity="1"
     bordercolor="#666666"
     pagecolor="#ffffff" />
  <path
     sodipodi:nodetypes="cc"
     id="path837"
     d="m 65.292559,24.941442 c 0,0 -1.17166,11.872964 16.583789,21.409601"
     style="font-variation-settings:normal;opacity:1;vector-effect:none;fill:none;fill-opacity:1;stroke:#000000;stroke-width:11.5;stroke-linecap:butt;stroke-linejoin:miter;stroke-miterlimit:4;stroke-dasharray:none;stroke-dashoffset:0;stroke-opacity:1;stop-color:#000000;stop-opacity:1" />
  <path
     sodipodi:nodetypes="cssc"
     id="path839"
     d="m 23.312219,58.750771 c 0,0 22.024044,0.978984 37.786716,0.792305 25.181157,-0.298224 44.315055,-3.625527 76.368715,-4.825854 20.78769,-0.778446 36.67742,2.471245 36.67742,2.471245"
     style="font-variation-settings:normal;opacity:1;vector-effect:none;fill:none;fill-opacity:1;stroke:#000000;stroke-width:11.5;stroke-linecap:butt;stroke-linejoin:miter;stroke-miterlimit:4;stroke-dasharray:none;stroke-dashoffset:0;stroke-opacity:1;stop-color:#000000;stop-opacity:1" />
  <path
     sodipodi:nodetypes="csccsccscsc"
     id="path841"
     d="m 126.84286,19.198962 c 0,0 2.55102,10.446908 -3.85463,21.990349 C 114.88948,55.783842 79.164642,87.23065 79.164642,87.23065 l 0.503212,2.092129 c 0,0 16.772452,-4.279141 22.733106,-5.391165 5.96065,-1.112025 17.62199,-3.820746 17.62199,-3.820746 l 0.23415,2.986081 c 0,0 -23.933112,19.634771 -42.875962,39.226121 -18.94285,19.59134 -43.51977,44.94606 -43.51977,44.94606 0,0 6.740435,-14.57392 8.967231,-21.32558 2.631579,-7.97896 0.544398,-13.98106 0.544398,-13.98106"
     style="font-variation-settings:normal;opacity:1;vector-effect:none;fill:none;fill-opacity:1;stroke:#000000;stroke-width:11.5;stroke-linecap:butt;stroke-linejoin:miter;stroke-miterlimit:4;stroke-dasharray:none;stroke-dashoffset:0;stroke-opacity:1;stop-color:#000000;stop-opacity:1" />
  <path
     sodipodi:nodetypes="csccsc"
     id="path843"
     d="m 93.118616,118.71653 c 0,0 -3.029924,18.48544 -3.626423,28.30846 -0.692568,11.40505 -0.667417,24.60538 -0.667417,24.60538 l 2.959623,0.5544 c 0,0 29.829721,-45.29902 62.750471,-42.42703 24.91373,2.17346 23.543,37.46297 -4.03813,46.90155"
     style="font-variation-settings:normal;opacity:1;vector-effect:none;fill:none;fill-opacity:1;stroke:#000000;stroke-width:11.5;stroke-linecap:butt;stroke-linejoin:miter;stroke-miterlimit:4;stroke-dasharray:none;stroke-dashoffset:0;stroke-opacity:1;stop-color:#000000;stop-opacity:1" />
</svg>
