<?xml version="1.0" encoding="UTF-8" standalone="no"?>
<svg
   xmlns:dc="http://purl.org/dc/elements/1.1/"
   xmlns:cc="http://creativecommons.org/ns#"
   xmlns:rdf="http://www.w3.org/1999/02/22-rdf-syntax-ns#"
   xmlns:svg="http://www.w3.org/2000/svg"
   xmlns="http://www.w3.org/2000/svg"
   xmlns:sodipodi="http://sodipodi.sourceforge.net/DTD/sodipodi-0.dtd"
   xmlns:inkscape="http://www.inkscape.org/namespaces/inkscape"
   inkscape:version="1.0 (4035a4fb49, 2020-05-01)"
   sodipodi:docname="u1b0b6.svg"
   id="svg6"
   height="200"
   width="200"
   viewBox="0 0 200 200"
   version="1.1">
  <metadata
     id="metadata12">
    <rdf:RDF>
      <cc:Work
         rdf:about="">
        <dc:format>image/svg+xml</dc:format>
        <dc:type
           rdf:resource="http://purl.org/dc/dcmitype/StillImage" />
      </cc:Work>
    </rdf:RDF>
  </metadata>
  <defs
     id="defs10" />
  <sodipodi:namedview
     inkscape:current-layer="svg6"
     inkscape:window-maximized="1"
     inkscape:window-y="24"
     inkscape:window-x="0"
     inkscape:cy="112.11367"
     inkscape:cx="87.120761"
     inkscape:zoom="1.9905056"
     showgrid="false"
     id="namedview8"
     inkscape:window-height="850"
     inkscape:window-width="1440"
     inkscape:pageshadow="2"
     inkscape:pageopacity="0"
     guidetolerance="10"
     gridtolerance="10"
     objecttolerance="10"
     borderopacity="1"
     bordercolor="#666666"
     pagecolor="#ffffff" />
  <path
     sodipodi:nodetypes="csccsccscssc"
     id="path841"
     d="m 69.145127,22.848186 c 0,0 6.588552,9.183752 23.885493,9.157072 17.29694,-0.02668 30.43401,-5.25253 30.43401,-5.25253 l 0.61747,2.000992 c 0,0 -45.111725,24.885666 -67.930353,54.205915 C 34.297793,111.04035 28.686838,127.66543 28.686838,127.66543 l 1.764404,1.38524 c 0,0 23.641552,-41.607179 63.17955,-60.813463 35.317578,-17.156142 39.950188,10.553781 39.950188,10.553781 0,0 21.70125,-2.020464 32.25782,13.289977 10.35152,15.013055 4.11408,38.316635 -9.49372,48.332075 -13.60781,10.01543 -40.27804,-1.86412 -40.27804,-1.86412"
     style="font-variation-settings:normal;opacity:1;vector-effect:none;fill:none;fill-opacity:1;stroke:#000000;stroke-width:11.5;stroke-linecap:butt;stroke-linejoin:miter;stroke-miterlimit:4;stroke-dasharray:none;stroke-dashoffset:0;stroke-opacity:1;stop-color:#000000;stop-opacity:1" />
  <path
     sodipodi:nodetypes="cssc"
     id="path843"
     d="m 92.119738,89.840178 c 0,0 -7.796011,-0.894883 -10.414929,7.064017 -3.71936,11.303145 -0.351036,23.216515 3.982831,29.192395 4.581272,6.31701 11.056265,1.83265 11.056265,1.83265"
     style="font-variation-settings:normal;opacity:1;vector-effect:none;fill:none;fill-opacity:1;stroke:#000000;stroke-width:11.5;stroke-linecap:butt;stroke-linejoin:miter;stroke-miterlimit:4;stroke-dasharray:none;stroke-dashoffset:0;stroke-opacity:1;stop-color:#000000;stop-opacity:1" />
  <path
     id="path845"
     d="m 59.815104,120.94626 c 0,0 25.755166,-10.17895 46.828206,-13.35505 21.07305,-3.17609 37.57537,4.54908 37.57537,4.54908"
     style="font-variation-settings:normal;opacity:1;vector-effect:none;fill:none;fill-opacity:1;stroke:#000000;stroke-width:11.5;stroke-linecap:butt;stroke-linejoin:miter;stroke-miterlimit:4;stroke-dasharray:none;stroke-dashoffset:0;stroke-opacity:1;stop-color:#000000;stop-opacity:1" />
  <path
     sodipodi:nodetypes="csc"
     id="path847"
     d="m 111.7467,79.23333 c 0,0 7.72247,45.54851 -5.98354,60.89035 -13.853923,15.50739 -30.294864,16.16514 -30.294864,16.16514"
     style="font-variation-settings:normal;opacity:1;vector-effect:none;fill:none;fill-opacity:1;stroke:#000000;stroke-width:11.5;stroke-linecap:butt;stroke-linejoin:miter;stroke-miterlimit:4;stroke-dasharray:none;stroke-dashoffset:0;stroke-opacity:1;stop-color:#000000;stop-opacity:1" />
  <path
     sodipodi:nodetypes="csc"
     id="path849"
     d="m 58.549501,156.30992 c 0,0 -6.649501,12.39008 14.520406,17.05687 20.665035,4.55549 74.099403,-2.2917 74.099403,-2.2917"
     style="font-variation-settings:normal;opacity:1;vector-effect:none;fill:none;fill-opacity:1;stroke:#000000;stroke-width:11.5;stroke-linecap:butt;stroke-linejoin:miter;stroke-miterlimit:4;stroke-dasharray:none;stroke-dashoffset:0;stroke-opacity:1;stop-color:#000000;stop-opacity:1" />
</svg>
