<?xml version="1.0" encoding="UTF-8" standalone="no"?>
<svg
   xmlns:dc="http://purl.org/dc/elements/1.1/"
   xmlns:cc="http://creativecommons.org/ns#"
   xmlns:rdf="http://www.w3.org/1999/02/22-rdf-syntax-ns#"
   xmlns:svg="http://www.w3.org/2000/svg"
   xmlns="http://www.w3.org/2000/svg"
   xmlns:sodipodi="http://sodipodi.sourceforge.net/DTD/sodipodi-0.dtd"
   xmlns:inkscape="http://www.inkscape.org/namespaces/inkscape"
   inkscape:version="1.0 (4035a4fb49, 2020-05-01)"
   sodipodi:docname="u1b06c.svg"
   id="svg6"
   height="200"
   width="200"
   viewBox="0 0 200 200"
   version="1.1">
  <metadata
     id="metadata12">
    <rdf:RDF>
      <cc:Work
         rdf:about="">
        <dc:format>image/svg+xml</dc:format>
        <dc:type
           rdf:resource="http://purl.org/dc/dcmitype/StillImage" />
      </cc:Work>
    </rdf:RDF>
  </metadata>
  <defs
     id="defs10" />
  <sodipodi:namedview
     inkscape:current-layer="svg6"
     inkscape:window-maximized="1"
     inkscape:window-y="24"
     inkscape:window-x="0"
     inkscape:cy="108.20767"
     inkscape:cx="102.06542"
     inkscape:zoom="3.0950515"
     showgrid="false"
     id="namedview8"
     inkscape:window-height="850"
     inkscape:window-width="1440"
     inkscape:pageshadow="2"
     inkscape:pageopacity="0"
     guidetolerance="10"
     gridtolerance="10"
     objecttolerance="10"
     borderopacity="1"
     bordercolor="#666666"
     pagecolor="#ffffff" />
  <path
     sodipodi:nodetypes="csc"
     id="path837"
     d="m 46.680192,50.854848 c 0,0 9.950336,10.414333 24.507336,5.418942 14.557001,-4.995391 25.121729,-9.235676 25.121729,-9.235676"
     style="font-variation-settings:normal;opacity:1;vector-effect:none;fill:none;fill-opacity:1;stroke:#000000;stroke-width:11.5;stroke-linecap:butt;stroke-linejoin:miter;stroke-miterlimit:4;stroke-dasharray:none;stroke-dashoffset:0;stroke-opacity:1;stop-color:#000000;stop-opacity:1" />
  <path
     sodipodi:nodetypes="csc"
     id="path839"
     d="m 68.429523,18.501178 c 0,0 5.787424,20.452394 3.886071,35.525465 -2.378505,18.855718 -12.554979,37.518539 -12.554979,37.518539"
     style="font-variation-settings:normal;opacity:1;vector-effect:none;fill:none;fill-opacity:1;stroke:#000000;stroke-width:11.5;stroke-linecap:butt;stroke-linejoin:miter;stroke-miterlimit:4;stroke-dasharray:none;stroke-dashoffset:0;stroke-opacity:1;stop-color:#000000;stop-opacity:1" />
  <path
     sodipodi:nodetypes="csccsccsssssc"
     id="path841"
     d="m 24.977775,93.953058 c 0,0 23.939587,2.522136 36.786882,-1.630801 12.847295,-4.152938 20.733411,-7.338705 20.733411,-7.338705 l 1.050426,1.541286 c 0,0 -16.028351,22.426682 -22.047392,35.264032 -7.17647,15.3059 -16.03499,37.80898 -16.03499,37.80898 l 1.023063,0.70962 c 0,0 37.68355,-39.17716 57.295425,-52.82592 C 123.39647,93.832796 149.71731,73.407027 156.85865,84.603514 164,95.8 147.58293,100.58157 147.78135,110.59477 c 0.19842,10.01321 21.66628,6.92101 20.73163,21.80699 -1.11267,17.72135 -35.45368,16.52988 -33.12765,31.30886 2.05792,13.07547 32.1934,11.84899 32.1934,11.84899"
     style="font-variation-settings:normal;opacity:1;vector-effect:none;fill:none;fill-opacity:1;stroke:#000000;stroke-width:11.5;stroke-linecap:butt;stroke-linejoin:miter;stroke-miterlimit:4;stroke-dasharray:none;stroke-dashoffset:0;stroke-opacity:1;stop-color:#000000;stop-opacity:1" />
</svg>
