<?xml version="1.0" encoding="UTF-8" standalone="no"?>
<svg
   xmlns:dc="http://purl.org/dc/elements/1.1/"
   xmlns:cc="http://creativecommons.org/ns#"
   xmlns:rdf="http://www.w3.org/1999/02/22-rdf-syntax-ns#"
   xmlns:svg="http://www.w3.org/2000/svg"
   xmlns="http://www.w3.org/2000/svg"
   xmlns:sodipodi="http://sodipodi.sourceforge.net/DTD/sodipodi-0.dtd"
   xmlns:inkscape="http://www.inkscape.org/namespaces/inkscape"
   inkscape:version="1.0 (4035a4fb49, 2020-05-01)"
   sodipodi:docname="u1b0bd.svg"
   id="svg6"
   height="200"
   width="200"
   viewBox="0 0 200 200"
   version="1.1">
  <metadata
     id="metadata12">
    <rdf:RDF>
      <cc:Work
         rdf:about="">
        <dc:format>image/svg+xml</dc:format>
        <dc:type
           rdf:resource="http://purl.org/dc/dcmitype/StillImage" />
      </cc:Work>
    </rdf:RDF>
  </metadata>
  <defs
     id="defs10" />
  <sodipodi:namedview
     inkscape:current-layer="svg6"
     inkscape:window-maximized="1"
     inkscape:window-y="24"
     inkscape:window-x="0"
     inkscape:cy="51.752216"
     inkscape:cx="93.588238"
     inkscape:zoom="3.9810112"
     showgrid="false"
     id="namedview8"
     inkscape:window-height="850"
     inkscape:window-width="1440"
     inkscape:pageshadow="2"
     inkscape:pageopacity="0"
     guidetolerance="10"
     gridtolerance="10"
     objecttolerance="10"
     borderopacity="1"
     bordercolor="#666666"
     pagecolor="#ffffff" />
  <path
     sodipodi:nodetypes="csssssscssccssssssc"
     id="path837"
     d="m 50.402903,25.20834 c 0,0 4.512597,12.968513 18.828391,17.862452 15.526829,5.307939 74.564646,0.21446 77.737666,-14.729708 C 149.18012,17.926986 134.39783,14.59261 124.42573,18.306107 106.1604,25.107909 85.693427,47.359417 73.554052,61.499197 62.505766,74.368091 55.737148,84.099086 58.773088,89.892589 c 4.981583,9.506389 23.023498,5.189754 40.263127,3.272547 13.622635,-1.514964 36.056495,-12.188624 36.056495,-12.188624 0,0 -13.86097,-23.909107 -22.48622,-18.946776 -8.62524,4.962332 -8.7656,33.719897 -8.29618,61.027334 0.46941,27.30743 -0.0396,56.2312 -0.0396,56.2312 l -2.59586,2.23622 c 0,0 -16.954843,-15.25491 -24.603081,-21.40883 -6.188702,-4.97955 -21.812925,-15.15062 -21.303959,-21.35968 0.629651,-7.68134 25.35929,-20.33473 43.231342,-22.99639 16.548768,-2.46459 26.125288,-2.60331 27.002268,5.23453 C 127.3,132.6 92.815026,141.1906 97.073023,146.45343 c 4.539847,5.6112 12.425647,5.64334 20.735277,4.82321 13.09272,-1.29222 21.75326,-3.38025 21.75326,-3.38025"
     style="font-variation-settings:normal;opacity:1;vector-effect:none;fill:none;fill-opacity:1;stroke:#000000;stroke-width:11.5;stroke-linecap:butt;stroke-linejoin:miter;stroke-miterlimit:4;stroke-dasharray:none;stroke-dashoffset:0;stroke-opacity:1;stop-color:#000000;stop-opacity:1" />
</svg>
