<?xml version="1.0" encoding="UTF-8" standalone="no"?>
<svg
   xmlns:dc="http://purl.org/dc/elements/1.1/"
   xmlns:cc="http://creativecommons.org/ns#"
   xmlns:rdf="http://www.w3.org/1999/02/22-rdf-syntax-ns#"
   xmlns:svg="http://www.w3.org/2000/svg"
   xmlns="http://www.w3.org/2000/svg"
   xmlns:sodipodi="http://sodipodi.sourceforge.net/DTD/sodipodi-0.dtd"
   xmlns:inkscape="http://www.inkscape.org/namespaces/inkscape"
   inkscape:version="1.0 (4035a4fb49, 2020-05-01)"
   sodipodi:docname="u1b0f3.svg"
   id="svg6"
   height="200"
   width="200"
   viewBox="0 0 200 200"
   version="1.1">
  <metadata
     id="metadata12">
    <rdf:RDF>
      <cc:Work
         rdf:about="">
        <dc:format>image/svg+xml</dc:format>
        <dc:type
           rdf:resource="http://purl.org/dc/dcmitype/StillImage" />
      </cc:Work>
    </rdf:RDF>
  </metadata>
  <defs
     id="defs10" />
  <sodipodi:namedview
     inkscape:current-layer="svg6"
     inkscape:window-maximized="1"
     inkscape:window-y="24"
     inkscape:window-x="0"
     inkscape:cy="94.987451"
     inkscape:cx="105.62999"
     inkscape:zoom="2.815"
     showgrid="false"
     id="namedview8"
     inkscape:window-height="850"
     inkscape:window-width="1440"
     inkscape:pageshadow="2"
     inkscape:pageopacity="0"
     guidetolerance="10"
     gridtolerance="10"
     objecttolerance="10"
     borderopacity="1"
     bordercolor="#666666"
     pagecolor="#ffffff" />
  <path
     id="path14"
     d="m 65.472432,38.826514 c 0,0 9.871692,10.792813 28.823216,9.798844 18.951522,-0.993969 35.086912,-11.37125 35.086912,-11.37125"
     style="font-variation-settings:normal;opacity:1;vector-effect:none;fill:none;fill-opacity:1;stroke:#000000;stroke-width:11.5;stroke-linecap:butt;stroke-linejoin:miter;stroke-miterlimit:4;stroke-dasharray:none;stroke-dashoffset:0;stroke-opacity:1;stop-color:#000000;stop-opacity:1" />
  <path
     id="path16"
     d="m 95.145262,15.410103 c 0,0 7.794448,30.423698 7.101248,46.878744 -0.6932,16.455045 -2.282903,29.531994 -2.282903,29.531994 L 97.776927,94.307484 71.5269,78.709565"
     style="font-variation-settings:normal;opacity:1;vector-effect:none;fill:none;fill-opacity:1;stroke:#000000;stroke-width:11.5;stroke-linecap:butt;stroke-linejoin:miter;stroke-miterlimit:4;stroke-dasharray:none;stroke-dashoffset:0;stroke-opacity:1;stop-color:#000000;stop-opacity:1" />
  <path
     sodipodi:nodetypes="csccsccssccssccsssc"
     id="path18"
     d="m 75.885605,44.9108 c 0,0 6.586733,4.894162 4.429666,15.565832 -1.271521,6.290603 -37.245089,36.477363 -37.245089,36.477363 l 0.597103,0.72871 c 0,0 23.017313,-26.194046 64.098565,-28.462429 34.75201,-1.918901 49.32426,3.395483 49.32426,3.395483 l -0.61973,2.498211 c 0,0 -31.10857,14.649057 -48.68549,21.472289 -12.941223,5.023691 -21.280421,9.714021 -17.14921,16.350021 2.810639,4.51475 14.52424,2.87097 14.52424,2.87097 l 0.93929,2.99948 c 0,0 -6.05535,6.13325 -3.75911,12.11968 2.64635,6.89919 11.1754,21.58015 7.05964,32.62101 -3.38316,9.07561 -8.12495,14.1336 -8.12495,14.1336 l -2.518386,2.80229 c 0,0 -30.123078,-13.12858 -36.960223,-18.77347 -6.837145,-5.64488 -3.006176,-13.28845 11.050542,-16.40379 18.988505,-4.20834 41.104567,-5.5772 62.706577,-2.21036 12.53977,1.95441 19.17668,4.8687 19.17668,4.8687"
     style="font-variation-settings:normal;opacity:1;vector-effect:none;fill:none;fill-opacity:1;stroke:#000000;stroke-width:11.5;stroke-linecap:butt;stroke-linejoin:miter;stroke-miterlimit:4;stroke-dasharray:none;stroke-dashoffset:0;stroke-opacity:1;stop-color:#000000;stop-opacity:1" />
</svg>
