<?xml version="1.0" encoding="UTF-8" standalone="no"?>
<svg
   xmlns:dc="http://purl.org/dc/elements/1.1/"
   xmlns:cc="http://creativecommons.org/ns#"
   xmlns:rdf="http://www.w3.org/1999/02/22-rdf-syntax-ns#"
   xmlns:svg="http://www.w3.org/2000/svg"
   xmlns="http://www.w3.org/2000/svg"
   xmlns:sodipodi="http://sodipodi.sourceforge.net/DTD/sodipodi-0.dtd"
   xmlns:inkscape="http://www.inkscape.org/namespaces/inkscape"
   inkscape:version="1.0 (4035a4fb49, 2020-05-01)"
   sodipodi:docname="u1b0c6.svg"
   id="svg6"
   height="200"
   width="200"
   viewBox="0 0 200 200"
   version="1.1">
  <metadata
     id="metadata12">
    <rdf:RDF>
      <cc:Work
         rdf:about="">
        <dc:format>image/svg+xml</dc:format>
        <dc:type
           rdf:resource="http://purl.org/dc/dcmitype/StillImage" />
      </cc:Work>
    </rdf:RDF>
  </metadata>
  <defs
     id="defs10" />
  <sodipodi:namedview
     inkscape:current-layer="svg6"
     inkscape:window-maximized="1"
     inkscape:window-y="24"
     inkscape:window-x="0"
     inkscape:cy="112.09657"
     inkscape:cx="75.680932"
     inkscape:zoom="1.9905056"
     showgrid="false"
     id="namedview8"
     inkscape:window-height="850"
     inkscape:window-width="1440"
     inkscape:pageshadow="2"
     inkscape:pageopacity="0"
     guidetolerance="10"
     gridtolerance="10"
     objecttolerance="10"
     borderopacity="1"
     bordercolor="#666666"
     pagecolor="#ffffff" />
  <path
     sodipodi:nodetypes="cscsssssssssc"
     id="path837"
     d="m 72.098044,18.029455 c 0,0 -9.505082,51.735344 -18.386077,69.142093 -8.880995,17.406742 -24.123684,42.812212 -24.123684,42.812212 0,0 38.480453,-61.266401 67.753229,-71.880958 24.893218,-9.026493 57.892048,-7.577584 53.220728,38.886257 -5.04333,50.164021 -33.27633,85.604041 -61.351044,82.873131 -32.020341,-3.11471 -24.035027,-48.25813 -14.323878,-69.16942 5.3158,-11.44666 17.47279,-27.591514 30.550882,-24.247377 15.50495,3.964698 7.11332,31.810767 1.44902,40.983117 -9.514768,15.40752 -37.17937,43.92957 -56.673977,31.01299 -13.181058,-8.7334 -3.613237,-26.51864 17.212652,-34.76079 19.091827,-7.55587 51.775185,-5.44896 70.867845,9.35275 20.27313,15.71687 35.00532,30.49653 35.00532,30.49653"
     style="font-variation-settings:normal;opacity:1;vector-effect:none;fill:none;fill-opacity:1;stroke:#000000;stroke-width:11.5;stroke-linecap:butt;stroke-linejoin:miter;stroke-miterlimit:4;stroke-dasharray:none;stroke-dashoffset:0;stroke-opacity:1;stop-color:#000000;stop-opacity:1" />
</svg>
