<?xml version="1.0" encoding="UTF-8" standalone="no"?>
<svg
   xmlns:dc="http://purl.org/dc/elements/1.1/"
   xmlns:cc="http://creativecommons.org/ns#"
   xmlns:rdf="http://www.w3.org/1999/02/22-rdf-syntax-ns#"
   xmlns:svg="http://www.w3.org/2000/svg"
   xmlns="http://www.w3.org/2000/svg"
   xmlns:sodipodi="http://sodipodi.sourceforge.net/DTD/sodipodi-0.dtd"
   xmlns:inkscape="http://www.inkscape.org/namespaces/inkscape"
   inkscape:version="1.0 (4035a4fb49, 2020-05-01)"
   sodipodi:docname="u1b020.svg"
   id="svg6"
   height="200"
   width="200"
   viewBox="0 0 200 200"
   version="1.1">
  <metadata
     id="metadata12">
    <rdf:RDF>
      <cc:Work
         rdf:about="">
        <dc:format>image/svg+xml</dc:format>
        <dc:type
           rdf:resource="http://purl.org/dc/dcmitype/StillImage" />
      </cc:Work>
    </rdf:RDF>
  </metadata>
  <defs
     id="defs10" />
  <sodipodi:namedview
     inkscape:current-layer="svg6"
     inkscape:window-maximized="1"
     inkscape:window-y="24"
     inkscape:window-x="0"
     inkscape:cy="118.6355"
     inkscape:cx="86.49739"
     inkscape:zoom="1.5475257"
     showgrid="false"
     id="namedview8"
     inkscape:window-height="850"
     inkscape:window-width="1440"
     inkscape:pageshadow="2"
     inkscape:pageopacity="0"
     guidetolerance="10"
     gridtolerance="10"
     objecttolerance="10"
     borderopacity="1"
     bordercolor="#666666"
     pagecolor="#ffffff" />
  <path
     sodipodi:nodetypes="csssccc"
     id="path837"
     d="m 96.97205,16.538902 c 0,0 29.53457,5.569665 27.11174,19.298659 -2.42284,13.728993 -16.40593,1.501234 -21.93496,15.92836 -3.50369,9.142313 2.6398,15.392048 3.02267,34.01981 0.37798,18.389759 -0.82929,20.601019 -0.82929,20.601019 l -0.99421,0.32678 c 0,0 -6.973237,-7.881132 -20.261148,-12.231614"
     style="font-variation-settings:normal;opacity:1;vector-effect:none;fill:none;fill-opacity:1;stroke:#000000;stroke-width:11.5;stroke-linecap:butt;stroke-linejoin:miter;stroke-miterlimit:4;stroke-dasharray:none;stroke-dashoffset:0;stroke-opacity:1;stop-color:#000000;stop-opacity:1" />
  <path
     sodipodi:nodetypes="cc"
     id="path839"
     d="m 42.935182,58.138747 c 0,0 4.291173,32.7474 75.206638,8.234422"
     style="font-variation-settings:normal;opacity:1;vector-effect:none;fill:none;fill-opacity:1;stroke:#000000;stroke-width:11.5;stroke-linecap:butt;stroke-linejoin:miter;stroke-miterlimit:4;stroke-dasharray:none;stroke-dashoffset:0;stroke-opacity:1;stop-color:#000000;stop-opacity:1" />
  <path
     sodipodi:nodetypes="csccc"
     id="path841"
     d="m 51.285185,109.21664 c 0,0 -12.826941,14.23772 -17.846442,20.16998 -5.019501,5.93226 -8.216783,17.93361 -8.216783,17.93361 l 1.377341,0.98231 c 0,0 49.072425,-58.371622 153.791039,-27.26186"
     style="font-variation-settings:normal;opacity:1;vector-effect:none;fill:none;fill-opacity:1;stroke:#000000;stroke-width:11.5;stroke-linecap:butt;stroke-linejoin:miter;stroke-miterlimit:4;stroke-dasharray:none;stroke-dashoffset:0;stroke-opacity:1;stop-color:#000000;stop-opacity:1" />
  <path
     sodipodi:nodetypes="csccsssc"
     id="path843"
     d="m 98.074741,124.06728 c 0,0 -21.418245,11.86189 -30.090645,22.62089 -8.672399,10.75901 -8.559846,16.20093 -8.559846,16.20093 h 1.801079 c 0,0 16.935188,-24.19793 57.084971,-24.71695 34.00138,-0.43954 38.38409,32.22787 5.49155,41.49682 -39.494535,11.12936 -41.669781,-18.20226 -17.18607,-20.90152 24.62034,-2.71433 32.9128,13.89751 32.9128,13.89751"
     style="font-variation-settings:normal;opacity:1;vector-effect:none;fill:none;fill-opacity:1;stroke:#000000;stroke-width:11.5;stroke-linecap:butt;stroke-linejoin:miter;stroke-miterlimit:4;stroke-dasharray:none;stroke-dashoffset:0;stroke-opacity:1;stop-color:#000000;stop-opacity:1" />
</svg>
