<?xml version="1.0" encoding="UTF-8" standalone="no"?>
<svg
   xmlns:dc="http://purl.org/dc/elements/1.1/"
   xmlns:cc="http://creativecommons.org/ns#"
   xmlns:rdf="http://www.w3.org/1999/02/22-rdf-syntax-ns#"
   xmlns:svg="http://www.w3.org/2000/svg"
   xmlns="http://www.w3.org/2000/svg"
   xmlns:sodipodi="http://sodipodi.sourceforge.net/DTD/sodipodi-0.dtd"
   xmlns:inkscape="http://www.inkscape.org/namespaces/inkscape"
   inkscape:version="1.0 (4035a4fb49, 2020-05-01)"
   sodipodi:docname="u1b0a4.svg"
   id="svg6"
   height="200"
   width="200"
   viewBox="0 0 200 200"
   version="1.1">
  <metadata
     id="metadata12">
    <rdf:RDF>
      <cc:Work
         rdf:about="">
        <dc:format>image/svg+xml</dc:format>
        <dc:type
           rdf:resource="http://purl.org/dc/dcmitype/StillImage" />
      </cc:Work>
    </rdf:RDF>
  </metadata>
  <defs
     id="defs10" />
  <sodipodi:namedview
     inkscape:current-layer="svg6"
     inkscape:window-maximized="1"
     inkscape:window-y="24"
     inkscape:window-x="0"
     inkscape:cy="48.395253"
     inkscape:cx="31.668683"
     inkscape:zoom="1.4075"
     showgrid="false"
     id="namedview8"
     inkscape:window-height="850"
     inkscape:window-width="1440"
     inkscape:pageshadow="2"
     inkscape:pageopacity="0"
     guidetolerance="10"
     gridtolerance="10"
     objecttolerance="10"
     borderopacity="1"
     bordercolor="#666666"
     pagecolor="#ffffff" />
  <path
     id="path837"
     d="m 27.107128,45.75165 c 0,0 5.618698,18.448369 27.479528,11.036511 21.860831,-7.411858 23.256813,-9.65793 23.256813,-9.65793 0,0 -25.523743,41.481996 -33.684783,58.754779 -8.16104,17.27279 -18.761676,56.09022 -18.761676,56.09022"
     style="font-variation-settings:normal;opacity:1;vector-effect:none;fill:none;fill-opacity:1;stroke:#000000;stroke-width:11.5;stroke-linecap:butt;stroke-linejoin:miter;stroke-miterlimit:4;stroke-dasharray:none;stroke-dashoffset:0;stroke-opacity:1;stop-color:#000000;stop-opacity:1" />
  <path
     sodipodi:nodetypes="cscsscsssc"
     id="path839"
     d="m 35.062675,130.87581 c 0,0 6.93282,-10.772 14.611432,-9.33739 9.210033,1.72073 12.223786,21.07815 12.223786,21.07815 0,0 6.840116,-24.09418 12.208994,-36.10101 5.17216,-11.566896 10.195391,-21.98692 17.829578,-20.185852 7.634184,1.801069 -3.359623,68.952772 -3.359623,68.952772 0,0 17.482198,-69.471322 30.849658,-84.654079 17.92054,-20.354138 34.48082,-16.988863 42.60429,-13.484325 8.45263,3.646545 15.68462,18.026486 8.03645,28.854699 -5.15114,7.292948 -16.2917,9.27792 -34.50793,4.981919"
     style="font-variation-settings:normal;opacity:1;vector-effect:none;fill:none;fill-opacity:1;stroke:#000000;stroke-width:11.5;stroke-linecap:butt;stroke-linejoin:miter;stroke-miterlimit:4;stroke-dasharray:none;stroke-dashoffset:0;stroke-opacity:1;stop-color:#000000;stop-opacity:1" />
  <path
     sodipodi:nodetypes="cssssssc"
     id="path841"
     d="m 127.09835,19.534307 c 0,0 8.17089,32.694712 6.76092,53.863948 -1.40997,21.169237 -2.18554,21.815982 0.63448,30.743315 2.82002,8.92733 22.29037,34.71809 14.75353,47.48608 -7.53683,12.768 -23.04067,15.59521 -31.01999,14.46879 -11.40275,-1.6097 -15.60658,-8.7371 -13.96529,-16.29884 1.6044,-7.39179 12.78273,-16.01949 32.86314,-7.9078 22.64711,9.14852 36.36754,33.2505 36.36754,33.2505"
     style="font-variation-settings:normal;opacity:1;vector-effect:none;fill:none;fill-opacity:1;stroke:#000000;stroke-width:11.5;stroke-linecap:butt;stroke-linejoin:miter;stroke-miterlimit:4;stroke-dasharray:none;stroke-dashoffset:0;stroke-opacity:1;stop-color:#000000;stop-opacity:1" />
</svg>
