<?xml version="1.0" encoding="UTF-8" standalone="no"?>
<svg
   xmlns:dc="http://purl.org/dc/elements/1.1/"
   xmlns:cc="http://creativecommons.org/ns#"
   xmlns:rdf="http://www.w3.org/1999/02/22-rdf-syntax-ns#"
   xmlns:svg="http://www.w3.org/2000/svg"
   xmlns="http://www.w3.org/2000/svg"
   xmlns:sodipodi="http://sodipodi.sourceforge.net/DTD/sodipodi-0.dtd"
   xmlns:inkscape="http://www.inkscape.org/namespaces/inkscape"
   inkscape:version="1.0 (4035a4fb49, 2020-05-01)"
   sodipodi:docname="u1b0ed.svg"
   id="svg6"
   height="200"
   width="200"
   viewBox="0 0 200 200"
   version="1.1">
  <metadata
     id="metadata12">
    <rdf:RDF>
      <cc:Work
         rdf:about="">
        <dc:format>image/svg+xml</dc:format>
        <dc:type
           rdf:resource="http://purl.org/dc/dcmitype/StillImage" />
      </cc:Work>
    </rdf:RDF>
  </metadata>
  <defs
     id="defs10" />
  <sodipodi:namedview
     inkscape:current-layer="svg6"
     inkscape:window-maximized="1"
     inkscape:window-y="24"
     inkscape:window-x="0"
     inkscape:cy="114.02421"
     inkscape:cx="90.125828"
     inkscape:zoom="2.815"
     showgrid="false"
     id="namedview8"
     inkscape:window-height="850"
     inkscape:window-width="1440"
     inkscape:pageshadow="2"
     inkscape:pageopacity="0"
     guidetolerance="10"
     gridtolerance="10"
     objecttolerance="10"
     borderopacity="1"
     bordercolor="#666666"
     pagecolor="#ffffff" />
  <path
     sodipodi:nodetypes="cssc"
     id="path837"
     d="m 44.427352,37.327102 c 0,0 14.940076,4.534762 37.889728,2.833469 18.18235,-1.347887 80.39888,-19.937893 82.92109,-0.109427 2.52222,19.828467 -57.65732,29.329559 -57.65732,29.329559"
     style="font-variation-settings:normal;opacity:1;vector-effect:none;fill:none;fill-opacity:1;stroke:#000000;stroke-width:11.5;stroke-linecap:butt;stroke-linejoin:miter;stroke-miterlimit:4;stroke-dasharray:none;stroke-dashoffset:0;stroke-opacity:1;stop-color:#000000;stop-opacity:1" />
  <path
     sodipodi:nodetypes="csscccsccc"
     id="path839"
     d="m 71.63695,78.861585 c 0,0 -13.454603,7.884337 -12.814043,21.230355 0.640561,13.34602 5.812351,29.54513 5.633514,47.11428 -0.110973,10.90207 -2.009046,17.57403 -2.009046,17.57403 l -1.876576,2.70268 -26.703324,-20.89718 c 0,0 51.73001,-62.373486 100.353825,-66.753623 16.43224,-1.48025 -9.0014,30.279303 -9.0014,30.279303 l 1.61285,2.2834 39.16004,-5.12849"
     style="font-variation-settings:normal;opacity:1;vector-effect:none;fill:none;fill-opacity:1;stroke:#000000;stroke-width:11.5;stroke-linecap:butt;stroke-linejoin:miter;stroke-miterlimit:4;stroke-dasharray:none;stroke-dashoffset:0;stroke-opacity:1;stop-color:#000000;stop-opacity:1" />
  <path
     sodipodi:nodetypes="cccsssc"
     id="path841"
     d="m 154.71304,95.829967 0.006,54.839683 -2.14979,3.99451 c 0,0 -23.97894,-8.54075 -23.3063,-16.15449 0.88894,-10.06207 27.96467,-12.14961 28.63654,-5.23802 1.59661,16.42444 -37.34568,24.27353 -32.31328,34.87319 3.59607,7.57433 47.35004,2.82838 47.35004,2.82838"
     style="font-variation-settings:normal;opacity:1;vector-effect:none;fill:none;fill-opacity:1;stroke:#000000;stroke-width:11.5;stroke-linecap:butt;stroke-linejoin:miter;stroke-miterlimit:4;stroke-dasharray:none;stroke-dashoffset:0;stroke-opacity:1;stop-color:#000000;stop-opacity:1" />
</svg>
