<?xml version="1.0" encoding="UTF-8" standalone="no"?>
<svg
   xmlns:dc="http://purl.org/dc/elements/1.1/"
   xmlns:cc="http://creativecommons.org/ns#"
   xmlns:rdf="http://www.w3.org/1999/02/22-rdf-syntax-ns#"
   xmlns:svg="http://www.w3.org/2000/svg"
   xmlns="http://www.w3.org/2000/svg"
   xmlns:sodipodi="http://sodipodi.sourceforge.net/DTD/sodipodi-0.dtd"
   xmlns:inkscape="http://www.inkscape.org/namespaces/inkscape"
   version="1.1"
   viewBox="0 0 200 200"
   width="200"
   height="200"
   id="svg6"
   sodipodi:docname="u1b0fe.svg"
   inkscape:version="1.0 (4035a4fb49, 2020-05-01)">
  <metadata
     id="metadata12">
    <rdf:RDF>
      <cc:Work
         rdf:about="">
        <dc:format>image/svg+xml</dc:format>
        <dc:type
           rdf:resource="http://purl.org/dc/dcmitype/StillImage" />
      </cc:Work>
    </rdf:RDF>
  </metadata>
  <defs
     id="defs10" />
  <sodipodi:namedview
     inkscape:document-rotation="0"
     pagecolor="#ffffff"
     bordercolor="#666666"
     borderopacity="1"
     objecttolerance="10"
     gridtolerance="10"
     guidetolerance="10"
     inkscape:pageopacity="0"
     inkscape:pageshadow="2"
     inkscape:window-width="1440"
     inkscape:window-height="850"
     id="namedview8"
     showgrid="false"
     inkscape:zoom="8.7541275"
     inkscape:cx="64.195594"
     inkscape:cy="145.38846"
     inkscape:window-x="0"
     inkscape:window-y="24"
     inkscape:window-maximized="1"
     inkscape:current-layer="svg6" />
  <path
     style="font-variation-settings:normal;opacity:1;vector-effect:none;fill:none;fill-opacity:1;stroke:#000000;stroke-width:11.5;stroke-linecap:butt;stroke-linejoin:miter;stroke-miterlimit:4;stroke-dasharray:none;stroke-dashoffset:0;stroke-opacity:1;stop-color:#000000;stop-opacity:1"
     d="m 52.122493,21.978838 c 0,0 5.595936,9.638925 12.328995,13.010054 6.733058,3.371128 13.092901,3.932908 13.092901,3.932908"
     id="path14" />
  <path
     style="font-variation-settings:normal;opacity:1;vector-effect:none;fill:none;fill-opacity:1;stroke:#000000;stroke-width:11.5;stroke-linecap:butt;stroke-linejoin:miter;stroke-miterlimit:4;stroke-dasharray:none;stroke-dashoffset:0;stroke-opacity:1;stop-color:#000000;stop-opacity:1"
     d="m 102.96127,30.971407 c 0,0 -5.748691,11.302047 -2.13696,17.565541 3.61172,6.263495 11.89244,7.31247 11.89244,7.31247"
     id="path16"
     sodipodi:nodetypes="csc" />
  <path
     style="font-variation-settings:normal;opacity:1;vector-effect:none;fill:none;fill-opacity:1;stroke:#000000;stroke-width:11.5;stroke-linecap:butt;stroke-linejoin:miter;stroke-miterlimit:4;stroke-dasharray:none;stroke-dashoffset:0;stroke-opacity:1;stop-color:#000000;stop-opacity:1"
     d="m 25.824799,71.258886 c 0,0 15.625281,2.978554 23.996768,1.216909 8.371487,-1.761645 15.845789,-4.767149 15.845789,-4.767149 l 0.715672,1.343294 c 0,0 -5.077268,31.74446 -5.420431,49.79282 -0.343163,18.04836 0.97872,53.52819 0.97872,53.52819 l -3.37815,0.57596 c 0,0 -3.307286,-6.34489 -7.474926,-11.92654 -3.853899,-5.16146 -6.243513,-7.64791 -6.243513,-7.64791"
     id="path18"
     sodipodi:nodetypes="csccsccsc" />
  <path
     style="font-variation-settings:normal;opacity:1;vector-effect:none;fill:none;fill-opacity:1;stroke:#000000;stroke-width:11.5;stroke-linecap:butt;stroke-linejoin:miter;stroke-miterlimit:4;stroke-dasharray:none;stroke-dashoffset:0;stroke-opacity:1;stop-color:#000000;stop-opacity:1"
     d="m 36.471368,96.093582 c 0,0 12.075686,11.394298 6.992823,27.406408 -5.082862,16.01211 -12.9199,29.16565 -12.9199,29.16565 l 1.054973,0.37547 c 0,0 32.964517,-46.96604 63.686546,-65.859468 38.47844,-23.663463 82.36966,-19.150968 82.36966,-19.150968"
     id="path20"
     sodipodi:nodetypes="csccsc" />
  <path
     style="font-variation-settings:normal;opacity:1;vector-effect:none;fill:none;fill-opacity:1;stroke:#000000;stroke-width:11.5;stroke-linecap:butt;stroke-linejoin:miter;stroke-miterlimit:4;stroke-dasharray:none;stroke-dashoffset:0;stroke-opacity:1;stop-color:#000000;stop-opacity:1"
     d="m 153.90245,23.377513 c 0,0 -2.49245,21.366553 -12.09826,40.589496 C 131.39637,84.79494 107.5547,112.60727 107.5547,112.60727 l 0.60757,0.49554 c 0,0 46.21918,-35.41076 58.27267,-15.107524 8.20565,13.821834 -40.09965,26.595324 -35.20276,35.465224 2.3976,4.34285 15.13886,2.62118 14.0154,10.43854 -1.40435,9.77183 -23.16016,13.1338 -19.25623,23.39942 3.90393,10.26563 40.27052,7.24122 40.27052,7.24122"
     id="path24"
     sodipodi:nodetypes="csccssssc" />
</svg>
