<?xml version="1.0" encoding="UTF-8" standalone="no"?>
<svg
   xmlns:dc="http://purl.org/dc/elements/1.1/"
   xmlns:cc="http://creativecommons.org/ns#"
   xmlns:rdf="http://www.w3.org/1999/02/22-rdf-syntax-ns#"
   xmlns:svg="http://www.w3.org/2000/svg"
   xmlns="http://www.w3.org/2000/svg"
   xmlns:sodipodi="http://sodipodi.sourceforge.net/DTD/sodipodi-0.dtd"
   xmlns:inkscape="http://www.inkscape.org/namespaces/inkscape"
   inkscape:version="1.0 (4035a4fb49, 2020-05-01)"
   sodipodi:docname="u1b02f.svg"
   id="svg6"
   height="200"
   width="200"
   viewBox="0 0 200 200"
   version="1.1">
  <metadata
     id="metadata12">
    <rdf:RDF>
      <cc:Work
         rdf:about="">
        <dc:format>image/svg+xml</dc:format>
        <dc:type
           rdf:resource="http://purl.org/dc/dcmitype/StillImage" />
      </cc:Work>
    </rdf:RDF>
  </metadata>
  <defs
     id="defs10" />
  <sodipodi:namedview
     inkscape:current-layer="svg6"
     inkscape:window-maximized="1"
     inkscape:window-y="24"
     inkscape:window-x="0"
     inkscape:cy="88.123372"
     inkscape:cx="66.925861"
     inkscape:zoom="2.815"
     showgrid="false"
     id="namedview8"
     inkscape:window-height="850"
     inkscape:window-width="1440"
     inkscape:pageshadow="2"
     inkscape:pageopacity="0"
     guidetolerance="10"
     gridtolerance="10"
     objecttolerance="10"
     borderopacity="1"
     bordercolor="#666666"
     pagecolor="#ffffff" />
  <path
     sodipodi:nodetypes="cssssccsc"
     id="path14"
     d="m 58.227767,26.349788 c 0,0 6.013568,14.214345 -5.397926,32.530242 -10.442973,16.761384 -25.159964,23.757922 -21.970806,32.13394 3.189157,8.376018 15.87478,7.151667 15.467928,30.05847 -0.371456,20.91392 -0.812417,20.55646 -1.50366,30.36152 -0.713185,10.1163 0.342337,17.57089 0.342337,17.57089 L 46.78,168.62619 c 0,0 1.030265,-16.39894 5.534316,-26.3341 3.543373,-7.81607 10.747999,-17.02923 10.747999,-17.02923"
     style="font-variation-settings:normal;opacity:1;vector-effect:none;fill:none;fill-opacity:1;stroke:#000000;stroke-width:11.5;stroke-linecap:butt;stroke-linejoin:miter;stroke-miterlimit:4;stroke-dasharray:none;stroke-dashoffset:0;stroke-opacity:1;stop-color:#000000;stop-opacity:1" />
  <path
     sodipodi:nodetypes="csccsssssccsc"
     id="path16"
     d="m 89.094295,22.169071 c 0,0 16.420595,7.644028 10.54495,27.137177 -5.33425,17.697023 -16.582404,32.635021 -16.582404,32.635021 l 0.75167,0.705564 c 0,0 35.838489,-38.824918 55.180839,-38.911701 22.65998,-0.101667 40.05489,20.175641 26.02051,44.173413 -14.54856,24.876995 -53.44764,27.995195 -63.05599,23.033005 -9.766641,-5.04394 -4.29031,-18.614131 11.808,-18.217976 16.73133,0.411733 2.99444,27.342856 9.96821,36.262566 6.97377,8.91971 14.21902,8.50123 14.21902,8.50123 l 0.0393,1.87069 c 0,0 -31.96598,21.93869 -18.38611,31.74942 13.21071,9.54402 43.89289,1.72263 43.89289,1.72263"
     style="font-variation-settings:normal;opacity:1;vector-effect:none;fill:none;fill-opacity:1;stroke:#000000;stroke-width:11.5;stroke-linecap:butt;stroke-linejoin:miter;stroke-miterlimit:4;stroke-dasharray:none;stroke-dashoffset:0;stroke-opacity:1;stop-color:#000000;stop-opacity:1" />
</svg>
