<?xml version="1.0" encoding="UTF-8" standalone="no"?>
<svg
   xmlns:dc="http://purl.org/dc/elements/1.1/"
   xmlns:cc="http://creativecommons.org/ns#"
   xmlns:rdf="http://www.w3.org/1999/02/22-rdf-syntax-ns#"
   xmlns:svg="http://www.w3.org/2000/svg"
   xmlns="http://www.w3.org/2000/svg"
   xmlns:sodipodi="http://sodipodi.sourceforge.net/DTD/sodipodi-0.dtd"
   xmlns:inkscape="http://www.inkscape.org/namespaces/inkscape"
   inkscape:version="1.0 (4035a4fb49, 2020-05-01)"
   sodipodi:docname="u1b009.svg"
   id="svg6"
   height="200"
   width="200"
   viewBox="0 0 200 200"
   version="1.1">
  <metadata
     id="metadata12">
    <rdf:RDF>
      <cc:Work
         rdf:about="">
        <dc:format>image/svg+xml</dc:format>
        <dc:type
           rdf:resource="http://purl.org/dc/dcmitype/StillImage" />
      </cc:Work>
    </rdf:RDF>
  </metadata>
  <defs
     id="defs10" />
  <sodipodi:namedview
     inkscape:current-layer="svg6"
     inkscape:window-maximized="1"
     inkscape:window-y="24"
     inkscape:window-x="0"
     inkscape:cy="72.281677"
     inkscape:cx="92.229853"
     inkscape:zoom="2.1885319"
     showgrid="false"
     id="namedview8"
     inkscape:window-height="850"
     inkscape:window-width="1440"
     inkscape:pageshadow="2"
     inkscape:pageopacity="0"
     guidetolerance="10"
     gridtolerance="10"
     objecttolerance="10"
     borderopacity="1"
     bordercolor="#666666"
     pagecolor="#ffffff" />
  <path
     sodipodi:nodetypes="cssccsccsc"
     id="path837"
     d="m 56.490914,23.36591 c 0,0 11.073082,-1.180739 8.827637,16.848342 -2.245445,18.029081 -8.105004,76.693878 -7.211648,95.852698 0.825758,17.70911 1.495495,41.91276 1.495495,41.91276 l -1.776291,0.12239 c 0,0 -2.757577,-88.917443 -22.262296,-80.17639 -23.102239,10.35328 -10.713242,52.86473 -10.713242,52.86473 l 4.55164,2.82992 c 0,0 10.064603,-20.43793 19.936814,-33.23715 10.135051,-13.13999 28.989932,-33.276399 28.989932,-33.276399"
     style="font-variation-settings:normal;opacity:1;vector-effect:none;fill:none;fill-opacity:1;stroke:#000000;stroke-width:11.5;stroke-linecap:butt;stroke-linejoin:miter;stroke-miterlimit:4;stroke-dasharray:none;stroke-dashoffset:0;stroke-opacity:1;stop-color:#000000;stop-opacity:1" />
  <path
     sodipodi:nodetypes="cssssssc"
     id="path839"
     d="m 104.16801,66.632925 c 0,0 27.95569,-28.385393 38.95934,-16.967287 10.49548,10.890802 -15.01419,28.031517 -8.12972,37.760825 6.4171,9.068817 48.64845,7.034992 41.59222,44.526357 -5.04141,26.7861 -26.69101,49.06701 -54.70449,42.99517 -26.917291,-5.83424 -29.332374,-75.481668 -6.04742,-74.94356 23.28496,0.5381 9.42372,59.28253 -25.428135,65.83833 -29.807014,5.60684 -1.407118,-75.805037 60.397175,-25.52125"
     style="font-variation-settings:normal;opacity:1;vector-effect:none;fill:none;fill-opacity:1;stroke:#000000;stroke-width:11.5;stroke-linecap:butt;stroke-linejoin:miter;stroke-miterlimit:4;stroke-dasharray:none;stroke-dashoffset:0;stroke-opacity:1;stop-color:#000000;stop-opacity:1" />
</svg>
