<?xml version="1.0" encoding="UTF-8" standalone="no"?>
<svg
   xmlns:dc="http://purl.org/dc/elements/1.1/"
   xmlns:cc="http://creativecommons.org/ns#"
   xmlns:rdf="http://www.w3.org/1999/02/22-rdf-syntax-ns#"
   xmlns:svg="http://www.w3.org/2000/svg"
   xmlns="http://www.w3.org/2000/svg"
   xmlns:sodipodi="http://sodipodi.sourceforge.net/DTD/sodipodi-0.dtd"
   xmlns:inkscape="http://www.inkscape.org/namespaces/inkscape"
   inkscape:version="1.0 (4035a4fb49, 2020-05-01)"
   sodipodi:docname="u1b0b5.svg"
   id="svg6"
   height="200"
   width="200"
   viewBox="0 0 200 200"
   version="1.1">
  <metadata
     id="metadata12">
    <rdf:RDF>
      <cc:Work
         rdf:about="">
        <dc:format>image/svg+xml</dc:format>
        <dc:type
           rdf:resource="http://purl.org/dc/dcmitype/StillImage" />
      </cc:Work>
    </rdf:RDF>
  </metadata>
  <defs
     id="defs10" />
  <sodipodi:namedview
     inkscape:current-layer="svg6"
     inkscape:window-maximized="1"
     inkscape:window-y="24"
     inkscape:window-x="0"
     inkscape:cy="75.533052"
     inkscape:cx="32.307513"
     inkscape:zoom="1.9905056"
     showgrid="false"
     id="namedview8"
     inkscape:window-height="850"
     inkscape:window-width="1440"
     inkscape:pageshadow="2"
     inkscape:pageopacity="0"
     guidetolerance="10"
     gridtolerance="10"
     objecttolerance="10"
     borderopacity="1"
     bordercolor="#666666"
     pagecolor="#ffffff" />
  <path
     id="path837"
     d="m 72.448882,14.994289 c 0,0 -4.656874,8.914212 -5.888136,18.131702 -1.231262,9.21749 -0.225445,26.447948 -0.225445,26.447948 l -1.386978,1.650367 c 0,0 -5.78758,-6.05046 -8.24624,-8.629038 -2.45866,-2.578578 -8.01925,-10.827008 -8.01925,-10.827008"
     style="font-variation-settings:normal;opacity:1;vector-effect:none;fill:none;fill-opacity:1;stroke:#000000;stroke-width:11.5;stroke-linecap:butt;stroke-linejoin:miter;stroke-miterlimit:4;stroke-dasharray:none;stroke-dashoffset:0;stroke-opacity:1;stop-color:#000000;stop-opacity:1" />
  <path
     id="path839"
     d="m 35.098315,26.628923 c 0,0 -4.15654,6.841472 -3.801303,13.236086 0.355237,6.394615 5.637467,14.852071 5.637467,14.852071"
     style="font-variation-settings:normal;opacity:1;vector-effect:none;fill:none;fill-opacity:1;stroke:#000000;stroke-width:11.5;stroke-linecap:butt;stroke-linejoin:miter;stroke-miterlimit:4;stroke-dasharray:none;stroke-dashoffset:0;stroke-opacity:1;stop-color:#000000;stop-opacity:1" />
  <path
     id="path841"
     d="m 96.462791,27.295079 c 0,0 0.907656,17.335096 -13.053334,29.03985 C 69.448468,68.039683 28.723562,96.766134 28.723562,96.766134"
     style="font-variation-settings:normal;opacity:1;vector-effect:none;fill:none;fill-opacity:1;stroke:#000000;stroke-width:11.5;stroke-linecap:butt;stroke-linejoin:miter;stroke-miterlimit:4;stroke-dasharray:none;stroke-dashoffset:0;stroke-opacity:1;stop-color:#000000;stop-opacity:1" />
  <path
     sodipodi:nodetypes="csssssccsc"
     id="path843"
     d="m 68.029141,67.744085 c 0,0 18.912295,-9.698491 26.646707,0.09057 7.734412,9.789063 12.868162,19.453226 2.071693,32.483773 -10.796468,13.03054 -34.758663,15.35985 -36.661568,5.74766 -1.921979,-9.70853 7.3902,-18.54377 32.327531,-37.032359 30.274806,-22.4458 48.281396,-33.366421 55.034296,-29.506085 9.0474,5.172 -4.0417,24.634462 -4.0417,24.634462 l 0.89199,2.8618 c 0,0 28.55745,-1.894842 24.71981,15.485964 -3.05768,13.848331 -33.89382,23.664428 -33.89382,23.664428"
     style="font-variation-settings:normal;opacity:1;vector-effect:none;fill:none;fill-opacity:1;stroke:#000000;stroke-width:11.5;stroke-linecap:butt;stroke-linejoin:miter;stroke-miterlimit:4;stroke-dasharray:none;stroke-dashoffset:0;stroke-opacity:1;stop-color:#000000;stop-opacity:1" />
  <path
     sodipodi:nodetypes="csc"
     id="path845"
     d="m 56.982586,125.56163 c 0,0 -19.16506,16.49751 11.791698,20.10722 28.864429,3.36574 71.232876,-15.42611 71.232876,-15.42611"
     style="font-variation-settings:normal;opacity:1;vector-effect:none;fill:none;fill-opacity:1;stroke:#000000;stroke-width:11.5;stroke-linecap:butt;stroke-linejoin:miter;stroke-miterlimit:4;stroke-dasharray:none;stroke-dashoffset:0;stroke-opacity:1;stop-color:#000000;stop-opacity:1" />
  <path
     sodipodi:nodetypes="csc"
     id="path847"
     d="m 109.93881,112.24601 c 0,0 -21.567959,18.08711 -33.073042,32.54096 -12.370365,15.5409 -26.304342,39.90242 -26.304342,39.90242"
     style="font-variation-settings:normal;opacity:1;vector-effect:none;fill:none;fill-opacity:1;stroke:#000000;stroke-width:11.5;stroke-linecap:butt;stroke-linejoin:miter;stroke-miterlimit:4;stroke-dasharray:none;stroke-dashoffset:0;stroke-opacity:1;stop-color:#000000;stop-opacity:1" />
  <path
     sodipodi:nodetypes="csc"
     id="path849"
     d="m 110.31677,156.05432 c 0,0 12.5367,-5.19686 21.69659,4.67733 9.15989,9.87418 16.59553,22.7945 16.59553,22.7945"
     style="font-variation-settings:normal;opacity:1;vector-effect:none;fill:none;fill-opacity:1;stroke:#000000;stroke-width:11.5;stroke-linecap:butt;stroke-linejoin:miter;stroke-miterlimit:4;stroke-dasharray:none;stroke-dashoffset:0;stroke-opacity:1;stop-color:#000000;stop-opacity:1" />
</svg>
