<?xml version="1.0" encoding="UTF-8" standalone="no"?>
<svg
   xmlns:dc="http://purl.org/dc/elements/1.1/"
   xmlns:cc="http://creativecommons.org/ns#"
   xmlns:rdf="http://www.w3.org/1999/02/22-rdf-syntax-ns#"
   xmlns:svg="http://www.w3.org/2000/svg"
   xmlns="http://www.w3.org/2000/svg"
   xmlns:sodipodi="http://sodipodi.sourceforge.net/DTD/sodipodi-0.dtd"
   xmlns:inkscape="http://www.inkscape.org/namespaces/inkscape"
   version="1.1"
   viewBox="0 0 200 200"
   width="200"
   height="200"
   id="svg6"
   sodipodi:docname="u1b0a0.svg"
   inkscape:version="1.0 (4035a4fb49, 2020-05-01)">
  <metadata
     id="metadata12">
    <rdf:RDF>
      <cc:Work
         rdf:about="">
        <dc:format>image/svg+xml</dc:format>
        <dc:type
           rdf:resource="http://purl.org/dc/dcmitype/StillImage" />
      </cc:Work>
    </rdf:RDF>
  </metadata>
  <defs
     id="defs10" />
  <sodipodi:namedview
     inkscape:document-rotation="0"
     pagecolor="#ffffff"
     bordercolor="#666666"
     borderopacity="1"
     objecttolerance="10"
     gridtolerance="10"
     guidetolerance="10"
     inkscape:pageopacity="0"
     inkscape:pageshadow="2"
     inkscape:window-width="1440"
     inkscape:window-height="850"
     id="namedview8"
     showgrid="false"
     inkscape:zoom="2.815"
     inkscape:cx="79.55128"
     inkscape:cy="73.792627"
     inkscape:window-x="0"
     inkscape:window-y="24"
     inkscape:window-maximized="1"
     inkscape:current-layer="svg6" />
  <path
     style="font-variation-settings:normal;opacity:1;vector-effect:none;fill:none;fill-opacity:1;stroke:#000000;stroke-width:11.5;stroke-linecap:butt;stroke-linejoin:miter;stroke-miterlimit:4;stroke-dasharray:none;stroke-dashoffset:0;stroke-opacity:1;stop-color:#000000;stop-opacity:1"
     d="m 81.785071,38.660358 c 0,0 5.727568,8.071038 18.362949,8.094901 12.63537,0.02386 37.70487,-10.197786 50.18279,-10.425438 12.26688,-0.223802 16.15578,9.138422 12.17007,15.500081 -3.9857,6.361659 -28.23796,6.120585 -28.23796,6.120585"
     id="path839"
     sodipodi:nodetypes="csssc" />
  <path
     style="font-variation-settings:normal;opacity:1;vector-effect:none;fill:none;fill-opacity:1;stroke:#000000;stroke-width:11.5;stroke-linecap:butt;stroke-linejoin:miter;stroke-miterlimit:4;stroke-dasharray:none;stroke-dashoffset:0;stroke-opacity:1;stop-color:#000000;stop-opacity:1"
     d="m 122.08595,12.382459 c 0,0 3.38361,10.987003 2.37429,22.735655 -1.00932,11.748652 -7.44878,31.568241 -3.06429,34.955744 4.38449,3.387503 18.52834,4.122422 12.72348,15.600188 -5.80485,11.477766 -18.26518,15.993964 -29.81774,16.090474 -11.247884,0.094 -20.150344,-5.186537 -19.094375,-12.05154 1.05597,-6.865002 15.150665,-12.80016 46.726725,-0.424393 31.57606,12.375763 42.69786,23.902503 42.69786,23.902503"
     id="path841"
     sodipodi:nodetypes="cssssssc" />
  <path
     style="font-variation-settings:normal;opacity:1;vector-effect:none;fill:none;fill-opacity:1;stroke:#000000;stroke-width:11.5;stroke-linecap:butt;stroke-linejoin:miter;stroke-miterlimit:4;stroke-dasharray:none;stroke-dashoffset:0;stroke-opacity:1;stop-color:#000000;stop-opacity:1"
     d="m 81.772752,109.39488 c 0,0 -12.227134,11.81332 -10.209424,26.85856 2.397797,17.8794 21.116358,33.46137 21.116358,33.46137"
     id="path843"
     sodipodi:nodetypes="csc" />
  <path
     style="font-variation-settings:normal;opacity:1;vector-effect:none;fill:none;fill-opacity:1;stroke:#000000;stroke-width:11.5;stroke-linecap:butt;stroke-linejoin:miter;stroke-miterlimit:4;stroke-dasharray:none;stroke-dashoffset:0;stroke-opacity:1;stop-color:#000000;stop-opacity:1"
     d="m 121.14983,106.19635 c 0,0 -22.309467,44.33924 -38.291779,54.85837 -15.982312,10.51913 -34.618897,16.73356 -45.363831,11.20914 -13.819551,-7.1052 -12.561712,-29.60873 32.031404,-42.4303 44.593116,-12.82157 94.309566,-19.81769 102.297016,13.73012 7.98744,33.54781 -70.30845,40.78427 -70.30845,40.78427"
     id="path845"
     sodipodi:nodetypes="cssssc" />
  <path
     sodipodi:nodetypes="cscsc"
     id="path834"
     d="m 52.45072,20.624178 c 0,0 -8.598203,16.782923 -12.397193,34.48085 -4.389659,20.449617 -2.454331,41.112052 -2.454331,41.112052 0,0 4.031018,-9.72115 13.409374,-18.977778 6.081659,-6.002721 16.382782,-16.999249 16.382782,-16.999249"
     style="font-variation-settings:normal;opacity:1;vector-effect:none;fill:none;fill-opacity:1;stroke:#000000;stroke-width:11.5;stroke-linecap:butt;stroke-linejoin:miter;stroke-miterlimit:4;stroke-dasharray:none;stroke-dashoffset:0;stroke-opacity:1;stop-color:#000000;stop-opacity:1" />
</svg>
