<?xml version="1.0" encoding="UTF-8" standalone="no"?>
<svg
   xmlns:dc="http://purl.org/dc/elements/1.1/"
   xmlns:cc="http://creativecommons.org/ns#"
   xmlns:rdf="http://www.w3.org/1999/02/22-rdf-syntax-ns#"
   xmlns:svg="http://www.w3.org/2000/svg"
   xmlns="http://www.w3.org/2000/svg"
   xmlns:sodipodi="http://sodipodi.sourceforge.net/DTD/sodipodi-0.dtd"
   xmlns:inkscape="http://www.inkscape.org/namespaces/inkscape"
   inkscape:version="1.0 (4035a4fb49, 2020-05-01)"
   sodipodi:docname="u1b105.svg"
   id="svg6"
   height="200"
   width="200"
   viewBox="0 0 200 200"
   version="1.1">
  <metadata
     id="metadata12">
    <rdf:RDF>
      <cc:Work
         rdf:about="">
        <dc:format>image/svg+xml</dc:format>
        <dc:type
           rdf:resource="http://purl.org/dc/dcmitype/StillImage" />
      </cc:Work>
    </rdf:RDF>
  </metadata>
  <defs
     id="defs10" />
  <sodipodi:namedview
     inkscape:current-layer="svg6"
     inkscape:window-maximized="1"
     inkscape:window-y="24"
     inkscape:window-x="0"
     inkscape:cy="96.17557"
     inkscape:cx="69.238047"
     inkscape:zoom="1.9905056"
     showgrid="false"
     id="namedview8"
     inkscape:window-height="850"
     inkscape:window-width="1440"
     inkscape:pageshadow="2"
     inkscape:pageopacity="0"
     guidetolerance="10"
     gridtolerance="10"
     objecttolerance="10"
     borderopacity="1"
     bordercolor="#666666"
     pagecolor="#ffffff" />
  <path
     sodipodi:nodetypes="csc"
     id="path837"
     d="m 22.875455,66.888065 c 0,0 15.367578,5.139848 25.107096,6.318876 9.739519,1.179029 24.317812,-0.640606 24.317812,-0.640606"
     style="font-variation-settings:normal;opacity:1;vector-effect:none;fill:none;fill-opacity:1;stroke:#000000;stroke-width:11.5;stroke-linecap:butt;stroke-linejoin:miter;stroke-miterlimit:4;stroke-dasharray:none;stroke-dashoffset:0;stroke-opacity:1;stop-color:#000000;stop-opacity:1" />
  <path
     sodipodi:nodetypes="cssc"
     id="path839"
     d="m 50.664863,18.306448 c 0,0 1.376702,22.362486 0.941536,41.016366 -0.513778,22.023702 -2.804046,70.506586 -2.804046,84.439276 0,13.93269 2.191909,38.22936 2.191909,38.22936"
     style="font-variation-settings:normal;opacity:1;vector-effect:none;fill:none;fill-opacity:1;stroke:#000000;stroke-width:11.5;stroke-linecap:butt;stroke-linejoin:miter;stroke-miterlimit:4;stroke-dasharray:none;stroke-dashoffset:0;stroke-opacity:1;stop-color:#000000;stop-opacity:1" />
  <path
     sodipodi:nodetypes="cscsc"
     id="path841"
     d="m 48.651284,75.795379 c 0,0 -18.399568,34.810991 -21.01924,49.659961 -3.273472,18.55489 -0.49496,26.4431 -0.49496,26.4431 0,0 11.858077,-4.19984 22.658326,-18.84749 10.800248,-14.64764 22.731017,-40.873075 22.731017,-40.873075"
     style="font-variation-settings:normal;opacity:1;vector-effect:none;fill:none;fill-opacity:1;stroke:#000000;stroke-width:11.5;stroke-linecap:butt;stroke-linejoin:miter;stroke-miterlimit:4;stroke-dasharray:none;stroke-dashoffset:0;stroke-opacity:1;stop-color:#000000;stop-opacity:1" />
  <path
     sodipodi:nodetypes="csc"
     id="path843"
     d="m 89.526341,30.195591 c 0,0 -2.16619,8.364276 1.137948,15.629003 3.304137,7.264727 10.523541,11.205846 10.523541,11.205846"
     style="font-variation-settings:normal;opacity:1;vector-effect:none;fill:none;fill-opacity:1;stroke:#000000;stroke-width:11.5;stroke-linecap:butt;stroke-linejoin:miter;stroke-miterlimit:4;stroke-dasharray:none;stroke-dashoffset:0;stroke-opacity:1;stop-color:#000000;stop-opacity:1" />
  <path
     sodipodi:nodetypes="csc"
     id="path845"
     d="m 152.41885,25.997393 c 0,0 0.54865,15.10914 -8.17293,24.701568 -8.72158,9.592427 -20.36492,14.452152 -20.36492,14.452152"
     style="font-variation-settings:normal;opacity:1;vector-effect:none;fill:none;fill-opacity:1;stroke:#000000;stroke-width:11.5;stroke-linecap:butt;stroke-linejoin:miter;stroke-miterlimit:4;stroke-dasharray:none;stroke-dashoffset:0;stroke-opacity:1;stop-color:#000000;stop-opacity:1" />
  <path
     sodipodi:nodetypes="csccc"
     id="path847"
     d="m 122.21643,12.181148 c 0,0 -8.42302,59.766827 -8.80962,79.047554 -1.18356,59.026458 4.35983,73.357758 4.35983,73.357758 0,0 1.82792,0.71058 3.5234,1.28909 6.76243,-8.97144 16.65034,-18.33275 16.65034,-18.33275"
     style="font-variation-settings:normal;opacity:1;vector-effect:none;fill:none;fill-opacity:1;stroke:#000000;stroke-width:11.5;stroke-linecap:butt;stroke-linejoin:miter;stroke-miterlimit:4;stroke-dasharray:none;stroke-dashoffset:0;stroke-opacity:1;stop-color:#000000;stop-opacity:1" />
  <path
     sodipodi:nodetypes="csc"
     id="path849"
     d="m 82.443872,73.77521 c 0,0 6.691324,11.782834 25.889878,11.059752 22.06526,-0.831053 47.57905,-18.697615 47.57905,-18.697615"
     style="font-variation-settings:normal;opacity:1;vector-effect:none;fill:none;fill-opacity:1;stroke:#000000;stroke-width:11.5;stroke-linecap:butt;stroke-linejoin:miter;stroke-miterlimit:4;stroke-dasharray:none;stroke-dashoffset:0;stroke-opacity:1;stop-color:#000000;stop-opacity:1" />
  <path
     sodipodi:nodetypes="csssssc"
     id="path851"
     d="m 144.49294,90.776298 c 0,0 7.51876,14.799432 -20.20436,46.840002 -12.54897,14.50328 -28.071327,27.02389 -38.103822,27.32859 C 71.2,165.4 64.3,155.8 72.09877,141.34649 c 7.371894,-13.66238 32.06736,-35.31647 63.97918,-32.39902 22.35653,2.04388 38.04844,17.23361 37.6812,34.72826 -0.73386,34.95938 -44.1599,41.76789 -44.1599,41.76789"
     style="font-variation-settings:normal;opacity:1;vector-effect:none;fill:none;fill-opacity:1;stroke:#000000;stroke-width:11.5;stroke-linecap:butt;stroke-linejoin:miter;stroke-miterlimit:4;stroke-dasharray:none;stroke-dashoffset:0;stroke-opacity:1;stop-color:#000000;stop-opacity:1" />
</svg>
