<?xml version="1.0" encoding="UTF-8" standalone="no"?>
<svg
   xmlns:dc="http://purl.org/dc/elements/1.1/"
   xmlns:cc="http://creativecommons.org/ns#"
   xmlns:rdf="http://www.w3.org/1999/02/22-rdf-syntax-ns#"
   xmlns:svg="http://www.w3.org/2000/svg"
   xmlns="http://www.w3.org/2000/svg"
   xmlns:sodipodi="http://sodipodi.sourceforge.net/DTD/sodipodi-0.dtd"
   xmlns:inkscape="http://www.inkscape.org/namespaces/inkscape"
   inkscape:version="1.0 (4035a4fb49, 2020-05-01)"
   sodipodi:docname="u1b09b.svg"
   id="svg6"
   height="200"
   width="200"
   viewBox="0 0 200 200"
   version="1.1">
  <metadata
     id="metadata12">
    <rdf:RDF>
      <cc:Work
         rdf:about="">
        <dc:format>image/svg+xml</dc:format>
        <dc:type
           rdf:resource="http://purl.org/dc/dcmitype/StillImage" />
      </cc:Work>
    </rdf:RDF>
  </metadata>
  <defs
     id="defs10" />
  <sodipodi:namedview
     inkscape:current-layer="svg6"
     inkscape:window-maximized="1"
     inkscape:window-y="28"
     inkscape:window-x="0"
     inkscape:cy="125.78101"
     inkscape:cx="138.17489"
     inkscape:zoom="1.4075"
     showgrid="false"
     id="namedview8"
     inkscape:window-height="846"
     inkscape:window-width="1440"
     inkscape:pageshadow="2"
     inkscape:pageopacity="0"
     guidetolerance="10"
     gridtolerance="10"
     objecttolerance="10"
     borderopacity="1"
     bordercolor="#666666"
     pagecolor="#ffffff" />
  <g
     id="g4"
     fill="black">
    <path
       sodipodi:nodetypes="ccccccccccccccccccsccccccccccccccccccccccccc"
       d="m 84.542412,28.903269 c 1.836056,9.890473 -11.888823,33.30398 -19.391266,44.857165 1.812945,3.208098 3.353814,6.567309 4.756483,9.971848 C 73.28825,81.238688 76.846592,78.992335 80.3,76.6 l 7.6,11.8 c -4.494189,3.060785 -9.056541,6.025827 -13.348036,9.371318 2.752333,11.094732 3.991166,22.435702 3.077424,33.519752 C 76.822809,146.01587 73.51871,161.60796 63.276,172.7888 48.750181,187.04836 27.483823,187.57392 24.791842,164.12402 21.43186,135.14888 36.525399,110.67009 58.059978,93.132486 58.508013,91.10522 56.426409,88.33114 55.71905,86.136236 53.800005,81.767468 51.263901,77.712452 48.7,73.7 56.820553,62.705783 64.091726,49.839787 68.490155,38.705011 69.106844,37.244949 68.184905,37.034194 66.998433,37.548252 56.677757,41.59379 47.811984,48.616153 37,46.2 26.294019,43.019673 20.052776,35.628176 18.862522,25.686205 L 33,24.5 c 0.478833,4.260466 3.707759,8.170871 8.167804,8.170976 7.39759,0.309631 21.761668,-8.87512 32.510573,-10.433331 7.435633,-1.077904 10.065931,3.729155 10.864035,6.665624 z M 173,44.7 c -6.589,1.929402 -12.89278,4.726948 -19.01724,7.808621 -2.95617,19.18924 -4.42425,38.569854 -5.55014,57.941679 6.92652,2.67476 14.71697,4.43226 21.27942,6.86129 5.81767,2.11375 8.65111,6.34439 8.69585,11.48298 -0.16834,5.79792 -4.63779,14.10338 -7.98536,18.66852 -9.91062,12.39129 -22.90957,21.84255 -35.76549,30.95629 -2.41644,2.15233 -4.73064,3.74346 -6.02616,-0.25759 -1.94363,-2.85393 -3.88725,-5.70786 -5.83088,-8.56179 13.51503,-9.47073 27.50419,-18.99463 37.67842,-32.18461 1.89466,-2.66886 4.65927,-7.56427 0.55714,-8.96426 C 151.18107,125.39848 144.85913,123.49798 133.8,119.2 135.2301,99.334641 136.45007,79.004167 138.65991,60.697472 132.1951,64.379027 125.86857,68.295092 119.6,72.3 c -2.53333,-3.933333 -5.06667,-7.866667 -7.6,-11.8 9.71021,-6.053849 19.42617,-12.1357 29.57921,-17.428061 1.28037,-6.254014 2.86036,-12.670084 6.85906,-17.791265 C 155.93692,17.215477 169.7866,34.119287 173,44.7 Z M 62.471392,107.96865 C 51.279738,118.43259 41.354479,131.50982 38.9,147 c -0.866209,6.17901 -1.357926,13.32144 0.8,19.5 1.074664,4.10835 5.988025,2.48667 8.425261,0.68905 9.478999,-5.71177 13.064676,-17.26064 14.620051,-27.62303 1.755325,-10.46198 1.405901,-21.14892 -0.27392,-31.59737 z"
       id="path2" />
  </g>
</svg>
