<?xml version="1.0" encoding="UTF-8" standalone="no"?>
<svg
   xmlns:dc="http://purl.org/dc/elements/1.1/"
   xmlns:cc="http://creativecommons.org/ns#"
   xmlns:rdf="http://www.w3.org/1999/02/22-rdf-syntax-ns#"
   xmlns:svg="http://www.w3.org/2000/svg"
   xmlns="http://www.w3.org/2000/svg"
   xmlns:sodipodi="http://sodipodi.sourceforge.net/DTD/sodipodi-0.dtd"
   xmlns:inkscape="http://www.inkscape.org/namespaces/inkscape"
   inkscape:version="1.0 (4035a4fb49, 2020-05-01)"
   sodipodi:docname="u1b09f.svg"
   id="svg6"
   height="200"
   width="200"
   viewBox="0 0 200 200"
   version="1.1">
  <metadata
     id="metadata12">
    <rdf:RDF>
      <cc:Work
         rdf:about="">
        <dc:format>image/svg+xml</dc:format>
        <dc:type
           rdf:resource="http://purl.org/dc/dcmitype/StillImage" />
      </cc:Work>
    </rdf:RDF>
  </metadata>
  <defs
     id="defs10" />
  <sodipodi:namedview
     inkscape:current-layer="svg6"
     inkscape:window-maximized="1"
     inkscape:window-y="28"
     inkscape:window-x="0"
     inkscape:cy="98.508745"
     inkscape:cx="107.73463"
     inkscape:zoom="3.9810112"
     showgrid="false"
     id="namedview8"
     inkscape:window-height="846"
     inkscape:window-width="1440"
     inkscape:pageshadow="2"
     inkscape:pageopacity="0"
     guidetolerance="10"
     gridtolerance="10"
     objecttolerance="10"
     borderopacity="1"
     bordercolor="#666666"
     pagecolor="#ffffff" />
  <g
     id="g4"
     fill="black">
    <path
       sodipodi:nodetypes="cccccccccccccccccccccccccccccccccccccccccccccc"
       d="m 106.89186,23.988549 c 1.07078,2.603143 2.04623,5.705551 1.91258,10.240018 -0.43059,19.274346 -0.66521,38.552432 -0.57335,57.831605 17.52704,4.503958 12.11763,19.032358 0.41994,31.263898 0.0692,3.3298 0.14305,6.65951 0.20573,9.98944 10.52992,2.25121 21.26272,3.38592 31.94324,4.68649 -0.56667,4.63333 -1.13333,9.26667 -1.7,13.9 -10.01048,-1.30109 -20.05153,-2.42303 -29.98515,-4.24406 -0.0846,13.40442 1.47005,32.85059 -6.82625,41.89851 -16.882254,-14.58094 -36.595313,-30.35524 -52.879422,-46.12047 -7.685747,-7.3238 -2.293656,-18.28897 3.009636,-24.43314 8.946675,-9.23515 19.930631,-16.4226 31.671507,-21.579661 3.371135,-1.220213 6.602066,-2.887555 10.155727,-3.525669 C 94.131838,72.559474 94.476586,51.796901 94.770134,33.197317 94.601194,31.560866 94.220625,30.67271 93.557549,29.708524 91.146623,26.170293 85.380795,26.2424 80.759527,26.060651 L 81.3,12 c 11.045894,0.968753 22.42313,3.902652 25.59186,11.988549 z M 59.847278,134.36795 c 1.992617,2.0277 4.812672,3.83997 6.935711,5.86625 9.497127,8.02343 18.996714,16.04928 28.20712,24.40247 0.336386,-6.94514 0.141565,-13.89837 0.06488,-20.84743 -13.166627,-5.83348 -11.786392,-19.48309 -0.764618,-27.37383 -0.03468,-3.38431 -0.0457,-4.67983 -0.07525,-7.47692 -11.889606,3.10047 -27.514403,14.58129 -34.349485,23.09695 -0.689218,0.80032 -0.617827,1.78031 -0.01836,2.33251 z M 56.4,51.4 c -1.871663,3.241848 -3.361963,7.266508 -2.232658,10.963864 0.303538,0.813494 0.84589,0.935403 1.831683,0.520204 C 63.932599,59.44141 70.786593,53.96879 77.5,48.6 l 8.9,10.7 C 77.604824,66.474463 68.347806,73.783979 57.372026,77.212908 52.101266,79.03591 44.786933,74.874919 42.02971,69.440025 38.041026,61.352317 39.815134,51.653149 44.4,44.2 Z M 148,34 c 9.09238,2.585309 14.21854,13.886736 10.5857,22.927161 -2.59711,5.570994 -6.96692,8.838339 -13.28477,9.929717 C 132.10375,68.874675 123.17712,59.47714 115,51.9 l 9.9,-9.9 c 4.86223,4.547376 9.92516,9.803056 16.62745,11.3 2.46116,0.216178 4.39827,-1.609913 3.66074,-3.814716 -0.68327,-1.702716 -3.6812,-2.126333 -6.22085,-0.722629 C 136.7449,44.975103 134.52245,41.187552 132.3,37.4 137.07792,34.66989 142.44987,32.67075 148,34 Z"
       id="path2" />
  </g>
</svg>
