<?xml version="1.0" encoding="UTF-8" standalone="no"?>
<svg
   xmlns:dc="http://purl.org/dc/elements/1.1/"
   xmlns:cc="http://creativecommons.org/ns#"
   xmlns:rdf="http://www.w3.org/1999/02/22-rdf-syntax-ns#"
   xmlns:svg="http://www.w3.org/2000/svg"
   xmlns="http://www.w3.org/2000/svg"
   xmlns:sodipodi="http://sodipodi.sourceforge.net/DTD/sodipodi-0.dtd"
   xmlns:inkscape="http://www.inkscape.org/namespaces/inkscape"
   inkscape:version="1.0 (4035a4fb49, 2020-05-01)"
   sodipodi:docname="u1b091.svg"
   id="svg6"
   height="200"
   width="200"
   viewBox="0 0 200 200"
   version="1.1">
  <metadata
     id="metadata12">
    <rdf:RDF>
      <cc:Work
         rdf:about="">
        <dc:format>image/svg+xml</dc:format>
        <dc:type
           rdf:resource="http://purl.org/dc/dcmitype/StillImage" />
      </cc:Work>
    </rdf:RDF>
  </metadata>
  <defs
     id="defs10" />
  <sodipodi:namedview
     inkscape:current-layer="svg6"
     inkscape:window-maximized="1"
     inkscape:window-y="28"
     inkscape:window-x="0"
     inkscape:cy="117.2708"
     inkscape:cx="16.949784"
     inkscape:zoom="1.9905056"
     showgrid="false"
     id="namedview8"
     inkscape:window-height="846"
     inkscape:window-width="1440"
     inkscape:pageshadow="2"
     inkscape:pageopacity="0"
     guidetolerance="10"
     gridtolerance="10"
     objecttolerance="10"
     borderopacity="1"
     bordercolor="#666666"
     pagecolor="#ffffff" />
  <g
     id="g4"
     fill="black">
    <path
       sodipodi:nodetypes="cccccccccccccccccccccccccccccccccccccccccccccssccsccccccc"
       d="m 60.5,134.1 c -1.0116,0.9071 -3.469246,3.13812 -3.995296,3.70825 9.84081,-3.28059 20.967962,-3.65766 29.219964,1.32052 6.270403,3.71899 10.633381,9.80743 15.043632,15.47447 7.49592,-10.87254 19.82611,-18.05908 32.1317,-21.00324 17.32455,-3.62529 31.60155,3.73145 40.7489,14.81291 5.15151,6.24931 8.49563,13.81116 10.9511,21.48709 -4.43333,1.36667 -8.86667,2.73333 -13.3,4.1 -6.82469,-17.74734 -20.14363,-31.47583 -38.5,-25.6 -9.00702,3.3352 -16.94673,9.62911 -22.58693,17.45961 -2.33769,3.6468 -4.67538,7.29359 -7.01307,10.94039 -9.489009,-5.93385 -14.318977,-16.54295 -22.368425,-23.94737 -12.432124,-9.66774 -37.79142,2.11068 -44.448071,13.04706 C 34.859377,168.40643 33.600881,171.03 32.3,173.8 L 19.6,168.1 C 27.132626,151.12047 37.225843,134.71949 51.9,123 Z M 98.133117,29.746962 c 16.264313,-5.104106 39.187513,-4.123646 52.202093,4.569313 6.87364,4.579795 11.20297,12.189513 12.77691,20.196174 2.90725,15.627989 -3.23943,32.409156 -13.49388,42.494528 C 144.30953,108.5001 132.35326,116.99405 122.31752,120.92769 111.61078,124.96896 100.4144,127.52129 89.2,129.7 l -2.5,-13.8 c 11.944002,-2.36022 24.80817,-5.37926 35.40164,-10.46354 -5.58869,0.20948 -12.3795,-2.15917 -16.95924,-6.181788 -9.427349,-9.244899 -2.39859,-20.771314 6.2203,-25.002127 C 119.79399,70.318547 135.91114,68.724164 146,79.3 c 3.91021,-8.09867 5.42636,-17.97762 2.08367,-26.508173 -3.38085,-8.345575 -12.93681,-10.976798 -21.06872,-11.960383 -6.03985,-0.515969 -22.48566,0.171065 -29.767188,4.115071 -2.15378,10.957203 -4.850073,21.028144 -14.439716,36.542196 2.163093,1.656586 4.723472,2.349595 6.661965,3.375917 -1.066154,2.297549 -4.55322,10.272519 -6.093226,11.569517 C 80.533101,95.192824 77.465246,94.415192 74.813629,92.77659 67.888552,99.56775 56.356882,109.21405 48.786156,111.42393 28.18762,117.37717 17.143853,99.557314 27.02252,80.582776 32.01498,71.444669 38.797894,63.354541 46.604548,56.482422 43.945983,47.680218 42.755216,38.539821 42,29.4 l 14,-0.9 c 0.431251,6.333185 1.160029,12.649146 2.665588,18.823869 C 66.515273,41.979277 75.167419,37.968799 84.00402,34.549753 84.409139,30.178932 83.975595,25.782464 84,21.4 l 13.9,-0.9 c 0.07771,3.082321 0.155411,6.164642 0.233117,9.246962 z M 40.128439,85.803381 c -7.484991,12.619833 2.139066,15.571719 9.401525,10.389788 4.866068,-3.472052 9.445181,-7.392375 13.478731,-11.829101 -4.157993,-4.206154 -7.919439,-8.865619 -10.659218,-14.122953 -4.793695,4.800516 -8.856311,9.889275 -12.221038,15.562266 z m 74.126271,3.940304 c 2.69864,2.516644 17.57821,5.551414 22.28124,-0.664603 -0.71861,-8.469901 -26.99806,-4.874013 -22.28124,0.664603 z M 63.307325,61.053917 c 2.194697,4.585482 5.078496,8.844164 8.677487,12.445111 4.679929,-7.014174 7.935678,-14.90738 9.896232,-23.089446 -6.352292,3.122062 -13.434091,6.823786 -18.573719,10.644335 z"
       id="path2" />
  </g>
</svg>
