<?xml version="1.0" encoding="UTF-8" standalone="no"?>
<svg
   xmlns:dc="http://purl.org/dc/elements/1.1/"
   xmlns:cc="http://creativecommons.org/ns#"
   xmlns:rdf="http://www.w3.org/1999/02/22-rdf-syntax-ns#"
   xmlns:svg="http://www.w3.org/2000/svg"
   xmlns="http://www.w3.org/2000/svg"
   xmlns:sodipodi="http://sodipodi.sourceforge.net/DTD/sodipodi-0.dtd"
   xmlns:inkscape="http://www.inkscape.org/namespaces/inkscape"
   version="1.1"
   viewBox="0 0 200 200"
   width="200"
   height="200"
   id="svg6"
   sodipodi:docname="u1b093.svg"
   inkscape:version="1.0 (4035a4fb49, 2020-05-01)">
  <metadata
     id="metadata12">
    <rdf:RDF>
      <cc:Work
         rdf:about="">
        <dc:format>image/svg+xml</dc:format>
        <dc:type
           rdf:resource="http://purl.org/dc/dcmitype/StillImage" />
      </cc:Work>
    </rdf:RDF>
  </metadata>
  <defs
     id="defs10" />
  <sodipodi:namedview
     inkscape:document-rotation="0"
     pagecolor="#ffffff"
     bordercolor="#666666"
     borderopacity="1"
     objecttolerance="10"
     gridtolerance="10"
     guidetolerance="10"
     inkscape:pageopacity="0"
     inkscape:pageshadow="2"
     inkscape:window-width="1440"
     inkscape:window-height="846"
     id="namedview8"
     showgrid="false"
     inkscape:zoom="2.815"
     inkscape:cx="105.04792"
     inkscape:cy="93.429687"
     inkscape:window-x="0"
     inkscape:window-y="28"
     inkscape:window-maximized="1"
     inkscape:current-layer="svg6" />
  <g
     fill="black"
     id="g4">
    <path
       sodipodi:nodetypes="cccccccccccccccccccccccccccccccccccc"
       id="path2"
       d="M 120.14754,37.371452 C 111.84897,44.801729 106.79288,49.045686 102.5,57.3 c -1.20464,2.103502 3.01136,6.697629 5.91349,12.528318 9.86566,-1.787469 33.69509,-4.349039 35.71003,11.548009 0.88434,11.568757 -5.35056,22.288493 -12.41919,30.960313 -2.19892,2.71518 -4.59895,5.11696 -6.80433,7.66336 0.0431,4.61355 0.48463,9.25066 0.27263,13.84912 6.35616,2.24082 13.09969,3.06641 19.72737,4.15088 -0.63333,4.63333 -1.26667,9.26667 -1.9,13.9 -6.86686,-1.00137 -13.72358,-2.14597 -20.37874,-4.14174 -1.48109,5.03082 -3.06909,10.01652 -5.89254,14.48069 -2.63261,5.42669 -6.53193,10.12025 -10.25432,14.81545 L 98.7,185.1 C 80.476408,166.77655 62.949105,145.1416 48.142313,126.86572 38.300315,113.05241 42.698219,104.62726 54.796786,94.595825 60.464106,89.34812 67.367511,85.843092 73.960538,81.936119 80.765766,78.957484 87.345104,75.396665 94.548331,73.443785 90.471359,65.997121 86.788317,61.727221 89.525627,52.377957 92.779619,44.08856 99.583704,37.817585 106.66268,32.66707 c 0.37691,-0.312505 0.56839,-0.57234 0.0586,-0.835881 C 104.26781,30.929589 101.68188,30.384475 99.1,30 c 0.566667,-4.633333 1.13333,-9.266667 1.7,-13.9 9.09909,1.579078 12.87913,2.93825 19.5529,8.23997 3.76286,3.66502 4.05721,9.618502 -0.20536,13.031482 z M 56.619765,113.24813 c -0.14836,5.58291 26.953368,35.72961 41.186498,51.31258 4.618407,-3.77661 7.744167,-10.36325 9.807217,-15.64346 0.75946,-2.40394 1.6068,-4.78738 2.31342,-7.20364 -7.56043,-8.89575 -7.91821,-17.46004 0.0335,-26.20439 -1.02677,-7.12258 -3.37738,-13.98116 -5.67608,-20.768851 l -3.63039,-8.607545 C 90.683539,88.661777 57.321456,104.42678 56.619765,113.24813 Z M 114.47842,82.969539 c 2.95676,6.342065 5.0158,13.007186 6.95304,19.716141 4.38823,-5.500675 10.83062,-16.237766 8.85824,-19.132953 -1.76457,-2.877072 -10.36736,-1.512639 -15.81128,-0.583188 z" />
  </g>
</svg>
