<?xml version="1.0" encoding="UTF-8" standalone="no"?>
<svg
   xmlns:dc="http://purl.org/dc/elements/1.1/"
   xmlns:cc="http://creativecommons.org/ns#"
   xmlns:rdf="http://www.w3.org/1999/02/22-rdf-syntax-ns#"
   xmlns:svg="http://www.w3.org/2000/svg"
   xmlns="http://www.w3.org/2000/svg"
   xmlns:sodipodi="http://sodipodi.sourceforge.net/DTD/sodipodi-0.dtd"
   xmlns:inkscape="http://www.inkscape.org/namespaces/inkscape"
   inkscape:version="1.0 (4035a4fb49, 2020-05-01)"
   sodipodi:docname="u1b090.svg"
   id="svg6"
   height="200"
   width="200"
   viewBox="0 0 200 200"
   version="1.1">
  <metadata
     id="metadata12">
    <rdf:RDF>
      <cc:Work
         rdf:about="">
        <dc:format>image/svg+xml</dc:format>
        <dc:type
           rdf:resource="http://purl.org/dc/dcmitype/StillImage" />
      </cc:Work>
    </rdf:RDF>
  </metadata>
  <defs
     id="defs10" />
  <sodipodi:namedview
     inkscape:current-layer="svg6"
     inkscape:window-maximized="1"
     inkscape:window-y="28"
     inkscape:window-x="0"
     inkscape:cy="99.333986"
     inkscape:cx="81.028829"
     inkscape:zoom="1.9905056"
     showgrid="false"
     id="namedview8"
     inkscape:window-height="846"
     inkscape:window-width="1440"
     inkscape:pageshadow="2"
     inkscape:pageopacity="0"
     guidetolerance="10"
     gridtolerance="10"
     objecttolerance="10"
     borderopacity="1"
     bordercolor="#666666"
     pagecolor="#ffffff" />
  <g
     id="g4"
     fill="black">
    <path
       sodipodi:nodetypes="cccscscccsccsscaccccccssacccccccccsaccsaaaccacccc"
       d="m 110.3947,26.340462 c 0.91969,3.762405 0.14089,9.099257 -0.14493,12.936474 -0.80428,6.135154 -1.42249,11.522281 -2.18765,17.598361 17.24628,-0.618208 33.69734,3.262885 44.47886,14.534539 14.29631,14.946234 14.17316,39.321524 10.25088,52.685634 10.17063,9.6366 19.81756,21.35958 20.66898,34.83428 0.49598,7.84943 -6.22553,18.93601 -15.24812,22.22124 -2.30666,0.8682 -5.84238,2.67971 -7.72599,2.08564 -1.06224,-4.34554 -2.12449,-8.69109 -3.18673,-13.03663 4.75293,-1.56802 11.08049,-4.14783 12.3,-9.1 1.82527,-7.41202 -6.33322,-17.03416 -12.07299,-23.09266 -4.05173,8.12994 -9.43842,13.8745 -14.93228,18.90424 -12.22592,11.09118 -33.7198,11.36275 -41.46597,-9.18635 -4.065975,-10.78625 -0.61821,-26.20762 8.23826,-33.58586 10.74628,-8.95263 27.05932,-5.17182 41.13921,1.1295 3.36018,-13.41537 -3.03905,-29.750097 -13.36163,-38.655787 -8.12374,-7.008668 -21.38738,-6.301857 -31.63439,-5.94266 -3.19168,13.953426 -7.644809,29.127607 -13.664888,42.142327 -0.798575,2.8275 -3.375946,5.29655 -3.770725,8.00544 2.841718,6.11228 5.048079,12.48163 7.425403,18.78181 -4.366667,1.56667 -8.733333,3.13333 -13.1,4.7 -1.232983,-3.20576 -2.465966,-6.41151 -3.698949,-9.61727 C 70.247882,146.65529 61.255206,157.87444 48.2,161.2 35.974534,164.3142 23.263705,161.62045 16.989858,143.66957 13.121999,132.60276 13.10851,119.52282 17.1,108.5 22.140586,94.580018 35.296453,80.948151 45.429576,74.294797 38.311555,64.826429 30.412962,55.938807 21.9,47.7 l 9.6,-10.1 c 9.558322,9.229495 18.464255,19.145538 26.242308,29.928846 11.351088,-4.687225 22.50529,-7.796294 35.976101,-9.575284 C 95.457796,48.97131 96.373558,40.029984 96.788135,32.035526 96.685726,29.82554 92.321932,29.287013 90,29 V 15 c 9.458954,0.284572 19.10429,3.798609 20.3947,11.340462 z m 10.64188,96.741658 c -7.10502,4.04155 -10.00057,17.04129 -5.53685,23.88897 2.33683,3.58487 8.46311,4.18085 12.61234,2.39529 9.49952,-4.49967 14.28972,-13.26659 18.20329,-20.42905 -6.78105,-4.73336 -20.23581,-8.72379 -25.27878,-5.85521 z M 30.630451,112.43033 c -3.464114,10.17707 -4.58428,23.47626 1.688126,32.20722 1.961578,2.73045 6.074523,4.34524 9.376934,3.715 13.703266,-2.61517 22.796868,-17.45349 30.497666,-28.66112 C 66.796299,107.95429 60.63825,96.531363 53.470032,85.779096 43.831697,92.266783 34.400413,101.35473 30.630451,112.43033 Z M 65.957162,79.350245 c 5.291407,7.965761 9.921297,16.343463 14.329185,24.824095 4.447348,-9.953693 8.405485,-21.419895 10.812256,-32.047992 -8.370091,1.244321 -18.269138,4.296705 -25.141441,7.223897 z"
       id="path2" />
  </g>
</svg>
