<?xml version="1.0" encoding="UTF-8" standalone="no"?>
<svg
   xmlns:dc="http://purl.org/dc/elements/1.1/"
   xmlns:cc="http://creativecommons.org/ns#"
   xmlns:rdf="http://www.w3.org/1999/02/22-rdf-syntax-ns#"
   xmlns:svg="http://www.w3.org/2000/svg"
   xmlns="http://www.w3.org/2000/svg"
   xmlns:sodipodi="http://sodipodi.sourceforge.net/DTD/sodipodi-0.dtd"
   xmlns:inkscape="http://www.inkscape.org/namespaces/inkscape"
   inkscape:version="1.0 (4035a4fb49, 2020-05-01)"
   sodipodi:docname="u1b096.svg"
   id="svg6"
   height="200"
   width="200"
   viewBox="0 0 200 200"
   version="1.1">
  <metadata
     id="metadata12">
    <rdf:RDF>
      <cc:Work
         rdf:about="">
        <dc:format>image/svg+xml</dc:format>
        <dc:type
           rdf:resource="http://purl.org/dc/dcmitype/StillImage" />
      </cc:Work>
    </rdf:RDF>
  </metadata>
  <defs
     id="defs10" />
  <sodipodi:namedview
     inkscape:current-layer="svg6"
     inkscape:window-maximized="1"
     inkscape:window-y="28"
     inkscape:window-x="0"
     inkscape:cy="113.12614"
     inkscape:cx="130.48574"
     inkscape:zoom="1.9905056"
     showgrid="false"
     id="namedview8"
     inkscape:window-height="846"
     inkscape:window-width="1440"
     inkscape:pageshadow="2"
     inkscape:pageopacity="0"
     guidetolerance="10"
     gridtolerance="10"
     objecttolerance="10"
     borderopacity="1"
     bordercolor="#666666"
     pagecolor="#ffffff" />
  <g
     id="g4"
     fill="black">
    <path
       sodipodi:nodetypes="cccccccccccccssccccccccccccccccccccccccccccccccc"
       d="m 153.11118,38.689652 c 1.30349,9.900483 -2.7152,19.333926 -4.41162,28.975787 -0.39478,1.58168 0.578,2.764768 2.21486,3.01511 7.50409,1.187346 15.3114,3.91093 19.46353,10.595241 3.00801,4.787961 4.11497,12.78121 -1.25271,18.559215 -8.2573,8.709485 -15.77634,13.235025 -25.11904,20.712015 -12.80509,9.72124 -25.7314,19.28206 -38.74592,28.72096 -1.74638,1.15782 -1.4237,2.17987 0.25448,2.23515 17.89063,0.032 35.90254,0.37603 53.43393,4.25279 6.47899,1.04137 12.49251,3.86134 18.75131,5.74408 -1.83333,4.3 -3.66667,8.6 -5.5,12.9 -7.11542,-2.44943 -14.19973,-5.01643 -21.69245,-6.03983 -13.50398,-2.51759 -27.33188,-2.67726 -41.03683,-2.8309 -7.40594,-0.1761 -11.067265,0.12285 -15.780544,-2.34333 -6.469682,-3.3852 -9.33091,-13.61362 -0.626281,-20.73857 7.537465,-6.16961 34.719465,-26.64781 56.652535,-44.214978 2.96626,-2.696641 9.00541,-6.058231 9.04474,-8.127573 -0.24251,-3.710103 -4.31315,-4.667404 -7.93047,-5.158679 -9.07616,-0.992999 -17.0878,-3.588995 -16.66576,-13.20665 0.22833,-10.346154 5.1711,-19.984096 5.27519,-30.316454 -0.56816,-3.117514 -2.75912,-2.03867 -4.85382,-0.01805 -9.92889,8.179032 -17.03518,19.130808 -25.00865,29.103666 -12.906619,16.945441 -25.53203,34.111818 -37.540224,51.707868 0.276047,10.29702 -3.380993,15.55261 -8.470049,18.95407 0.216538,6.01677 0.667114,16.946 1.332613,22.92941 -4.631035,0.56548 -9.282446,1.13653 -13.9,1.7 -1.45047,-1.42413 -2.51657,-2.48851 -4.38731,-4.26913 C 43.791154,166.37462 41.792974,171.98276 39.3,177 c -4.233333,-2.03333 -8.466667,-4.06667 -12.7,-6.1 3.056014,-6.0977 6.227067,-12.13447 9.566588,-18.082 -5.608272,-4.19104 -11.390476,-10.21143 -11.324622,-17.78477 0.218496,-10.22571 13.685802,-21.91214 24.904359,-24.94025 1.153373,-16.789789 3.44842,-33.640691 8.777383,-49.657522 C 50.233945,61.972053 40.966002,60.001457 35.072347,53.717155 31.415994,49.696896 29.429081,44.550181 28.3,39.3 L 42,36.6 c 0.887448,4.534944 3.338872,10.048445 8.705844,10.162438 C 57.480329,47.577637 63.991273,44.855677 70.2,42.5 c 1.942471,4.061072 3.285776,8.693305 5.6,12.4 -7.819608,16.961444 -10.526915,36.089795 -12.053784,54.69162 15.555981,-22.639246 22.402115,-31.49341 39.285964,-53.153449 4.67166,-6.223077 21.86985,-27.066018 30.41154,-30.396938 10.86044,-3.890925 18.72788,3.636466 19.66746,12.648419 z M 49.132092,124.57721 c -2.528203,1.43486 -5.210711,3.36975 -7.729273,5.93561 -4.753952,5.61026 -2.305167,6.79612 1.834308,10.55643 2.129696,-3.19617 4.245205,-6.73446 5.997533,-9.43421 0.04844,-2.01873 -0.357363,-5.6459 -0.102568,-7.05783 z"
       id="path2" />
  </g>
</svg>
