<?xml version="1.0" encoding="UTF-8" standalone="no"?>
<svg
   xmlns:dc="http://purl.org/dc/elements/1.1/"
   xmlns:cc="http://creativecommons.org/ns#"
   xmlns:rdf="http://www.w3.org/1999/02/22-rdf-syntax-ns#"
   xmlns:svg="http://www.w3.org/2000/svg"
   xmlns="http://www.w3.org/2000/svg"
   xmlns:sodipodi="http://sodipodi.sourceforge.net/DTD/sodipodi-0.dtd"
   xmlns:inkscape="http://www.inkscape.org/namespaces/inkscape"
   inkscape:version="1.0 (4035a4fb49, 2020-05-01)"
   sodipodi:docname="u1b09c.svg"
   id="svg6"
   height="200"
   width="200"
   viewBox="0 0 200 200"
   version="1.1">
  <metadata
     id="metadata12">
    <rdf:RDF>
      <cc:Work
         rdf:about="">
        <dc:format>image/svg+xml</dc:format>
        <dc:type
           rdf:resource="http://purl.org/dc/dcmitype/StillImage" />
      </cc:Work>
    </rdf:RDF>
  </metadata>
  <defs
     id="defs10" />
  <sodipodi:namedview
     inkscape:current-layer="svg6"
     inkscape:window-maximized="1"
     inkscape:window-y="28"
     inkscape:window-x="0"
     inkscape:cy="93.729407"
     inkscape:cx="60.573998"
     inkscape:zoom="1.4075"
     showgrid="false"
     id="namedview8"
     inkscape:window-height="846"
     inkscape:window-width="1440"
     inkscape:pageshadow="2"
     inkscape:pageopacity="0"
     guidetolerance="10"
     gridtolerance="10"
     objecttolerance="10"
     borderopacity="1"
     bordercolor="#666666"
     pagecolor="#ffffff" />
  <g
     id="g4"
     fill="black">
    <path
       sodipodi:nodetypes="ccccccccccccccccccccccccccccccc"
       d="m 168.33433,56.916527 c 0.36189,4.474661 0.81005,9.111851 1.26567,13.983473 -14.31964,1.431376 -28.66198,2.814034 -42.82741,5.414075 -0.342,19.322072 -0.0644,38.696055 0.12741,57.985925 0.42062,9.63788 27.56655,17.57958 45.4,23.5 -1.80453,5.4256 -3.05843,8.89931 -4.62867,12.87529 C 149.86847,165.28016 117.2529,157.10041 114.4162,140.05131 110.96094,120.23433 112.47176,97.350875 112.74272,79.125338 99.878296,82.152065 87.297548,86.389961 75.485399,92.403049 75.153786,113.82092 79.925697,157.12047 68.436084,167.95923 57.509653,181.30927 40.2167,175.91397 31.485002,160.44145 23.464503,145.12659 27.552286,117.4271 36.203036,106.37676 43.051897,97.31855 51.757288,89.79364 60.93135,84.676201 58.407652,64.385925 57.006802,50.413606 48.6,33.6 L 60.4,26 C 69.32338,42.080819 72.66412,60.663174 74.783186,77.887443 85.049644,71.231056 102.04552,66.957055 112.97421,64.689526 113.07352,54.353469 113.63342,44.031712 113.9,33.7 c 3.50286,-2.802455 6.63835,-6.538642 10,-9.7 12.64594,11.820069 31.16243,27.088618 44.43433,32.916527 z M 40.796667,132.87417 c -0.359094,8.99485 -0.11457,17.6221 5.081082,24.63018 2.372319,3.26081 7.043557,5.51834 10.693266,2.9022 3.057936,-2.29728 4.631364,-6.26464 5.03648,-9.98347 0.7288,-12.69302 0.418913,-25.43082 0.452501,-38.14331 -0.08461,-3.84303 -0.07157,-7.68908 -0.226417,-11.52995 -13.265244,8.30485 -19.327944,21.48975 -21.036912,32.12435 z M 127.3,62 c 5.28559,-0.903836 10.58727,-1.707882 15.90493,-2.398163 C 137.70638,55.579521 132.48305,51.199443 127.41901,46.645571 127.21298,52.75366 127.38213,57.450889 127.3,62 Z"
       id="path2" />
  </g>
</svg>
