<?xml version="1.0" encoding="UTF-8" standalone="no"?>
<svg
   xmlns:dc="http://purl.org/dc/elements/1.1/"
   xmlns:cc="http://creativecommons.org/ns#"
   xmlns:rdf="http://www.w3.org/1999/02/22-rdf-syntax-ns#"
   xmlns:svg="http://www.w3.org/2000/svg"
   xmlns="http://www.w3.org/2000/svg"
   xmlns:sodipodi="http://sodipodi.sourceforge.net/DTD/sodipodi-0.dtd"
   xmlns:inkscape="http://www.inkscape.org/namespaces/inkscape"
   inkscape:version="1.0 (4035a4fb49, 2020-05-01)"
   sodipodi:docname="u1b109.svg"
   id="svg6"
   height="200"
   width="200"
   viewBox="0 0 200 200"
   version="1.1">
  <metadata
     id="metadata12">
    <rdf:RDF>
      <cc:Work
         rdf:about="">
        <dc:format>image/svg+xml</dc:format>
        <dc:type
           rdf:resource="http://purl.org/dc/dcmitype/StillImage" />
      </cc:Work>
    </rdf:RDF>
  </metadata>
  <defs
     id="defs10" />
  <sodipodi:namedview
     inkscape:current-layer="svg6"
     inkscape:window-maximized="1"
     inkscape:window-y="28"
     inkscape:window-x="0"
     inkscape:cy="107.18118"
     inkscape:cx="111.10368"
     inkscape:zoom="5.63"
     showgrid="false"
     id="namedview8"
     inkscape:window-height="846"
     inkscape:window-width="1440"
     inkscape:pageshadow="2"
     inkscape:pageopacity="0"
     guidetolerance="10"
     gridtolerance="10"
     objecttolerance="10"
     borderopacity="1"
     bordercolor="#666666"
     pagecolor="#ffffff" />
  <g
     id="g4"
     fill="black">
    <path
       sodipodi:nodetypes="asscccsscssssccssscsscsccccsscccccsssccacccccccc"
       d="m 87.650496,31.815432 c 1.416429,3.775314 -0.506943,9.04711 -3.143288,11.681314 -6.860114,6.854544 -16.708384,8.194851 -21.660192,16.794484 -1.52831,2.654162 2.923252,10.684329 5.23604,14.616955 8.6291,-0.433786 7.507723,11.020275 5.897674,19.637445 1.455423,5.51976 2.294225,11.1507 2.958124,16.81317 8.353431,-5.15684 16.337044,-10.95988 25.095126,-15.320899 6.6927,-3.332574 15.17352,-3.627754 21.4439,0.880682 2.20444,1.585003 4.19894,3.613617 5.92212,5.581417 6.79867,-5.478771 14.74663,-9.573038 23.24818,-11.579708 7.26877,-1.71569 15.36297,1.216625 19.53048,7.498027 3.11369,4.693051 4.89778,10.661701 4.72134,15.981681 -0.22054,6.64971 -3.04751,13.49345 -6.69828,19.33696 C 162.10869,146.69083 150.28931,156.78072 138,165.6 c -2.7,-3.76667 -5.4,-7.53333 -8.1,-11.3 11.73168,-8.76272 23.87356,-18.2978 30.42502,-31.72338 2.39232,-4.90247 3.31305,-10.72529 0.64847,-15.7911 -2.08547,-3.96482 -7.20609,-2.07016 -10.13118,-0.66389 -9.52494,4.57922 -17.49339,10.48264 -26.04231,15.27837 -3.01442,-4.84304 -5.13044,-11.34456 -10.51989,-13.73996 -3.3945,-1.50872 -9.89423,2.94783 -14.09102,5.46508 -7.562264,4.53587 -14.842152,9.52608 -22.262149,14.29087 -0.03511,11.94617 -1.371417,24.4945 -5.136458,35.88048 -1.955143,5.91261 -5.71147,13.3484 -10.028246,17.50891 -7.680709,-9.33827 -19.453222,-23.12198 -24.261481,-27.21485 -0.819227,0.68285 -4.219316,3.66094 -5.792121,5.10265 L 23.8,147.4 c 0.04727,-1.36977 1.885441,-4.3298 3.027462,-6.29552 5.072073,-8.73037 11.834227,-16.80749 18.474157,-24.10884 C 51.40685,110.28225 56.464947,102.44119 59.44321,93.790123 59.276279,92.958641 58.862142,91.5001 58.862142,91.5001 50.396674,95.149611 41.942836,103.71815 36.7,109.1 33.333333,105.86667 29.966667,102.63333 26.6,99.4 34.709812,91.005638 43.66941,83.111312 54.456569,78.365935 51.883673,71.529812 46.573383,66.023264 48.35889,58.686899 c 2.14552,-8.815599 10.610021,-13.69301 17.871954,-18.0828 2.516341,-1.521111 4.469647,-1.763169 6.660282,-3.725407 0.984114,-0.881511 0.311896,-2.085336 -3.132077,-2.10705 L 71.5,21 c 8.842777,1.127754 13.874556,4.749196 16.150496,10.815432 z M 49.256159,146.40964 c 3.321617,4.08083 6.621465,8.20132 10.274921,11.9902 2.208083,-7.00845 3.648226,-14.28333 4.034545,-21.62573 -4.845199,3.14331 -9.916558,5.91361 -14.309466,9.63553 z m 8.899065,-23.07356 c 1.47282,-0.88733 3.297739,-2.46344 5.938518,-4.21727 0.02028,-1.92748 0.176467,-1.35298 -0.130041,-3.30211 -0.843491,1.1849 -4.964986,6.33448 -5.808477,7.51938 z"
       id="path2" />
  </g>
</svg>
