<?xml version="1.0" encoding="UTF-8" standalone="no"?>
<svg
   xmlns:dc="http://purl.org/dc/elements/1.1/"
   xmlns:cc="http://creativecommons.org/ns#"
   xmlns:rdf="http://www.w3.org/1999/02/22-rdf-syntax-ns#"
   xmlns:svg="http://www.w3.org/2000/svg"
   xmlns="http://www.w3.org/2000/svg"
   xmlns:sodipodi="http://sodipodi.sourceforge.net/DTD/sodipodi-0.dtd"
   xmlns:inkscape="http://www.inkscape.org/namespaces/inkscape"
   inkscape:version="1.0 (4035a4fb49, 2020-05-01)"
   sodipodi:docname="u1b107.svg"
   id="svg6"
   height="200"
   width="200"
   viewBox="0 0 200 200"
   version="1.1">
  <metadata
     id="metadata12">
    <rdf:RDF>
      <cc:Work
         rdf:about="">
        <dc:format>image/svg+xml</dc:format>
        <dc:type
           rdf:resource="http://purl.org/dc/dcmitype/StillImage" />
      </cc:Work>
    </rdf:RDF>
  </metadata>
  <defs
     id="defs10" />
  <sodipodi:namedview
     inkscape:current-layer="svg6"
     inkscape:window-maximized="1"
     inkscape:window-y="28"
     inkscape:window-x="0"
     inkscape:cy="100.08031"
     inkscape:cx="96.898371"
     inkscape:zoom="1.9905056"
     showgrid="false"
     id="namedview8"
     inkscape:window-height="846"
     inkscape:window-width="1440"
     inkscape:pageshadow="2"
     inkscape:pageopacity="0"
     guidetolerance="10"
     gridtolerance="10"
     objecttolerance="10"
     borderopacity="1"
     bordercolor="#666666"
     pagecolor="#ffffff" />
  <g
     id="g4"
     fill="black">
    <path
       sodipodi:nodetypes="cccccccccsccscsccscssccssscccccscsssscssscccssssscssccccccccssccssscccccsscsssc"
       d="m 82.099609,13.199219 -6.5,12.40039 c 16.392424,8.808695 35.070041,8.568092 52.865361,3.7385 -1.16604,-4.497596 -2.3327,-8.979119 -3.49874,-13.476715 -17.735,2.618627 -28.586746,4.122158 -42.866621,-2.662175 z m 47.326521,17.894529 c -9.97501,3.214042 -20.70712,5.619668 -31.172224,9.037111 -2.365809,-0.439877 -2.387684,-0.434407 -5.835968,-1.060823 -0.254644,1.059818 -0.591854,2.063659 -0.814422,3.15848 C 76.158963,46.793291 55.9859,54.556162 44.763672,54.052734 42.636868,53.957326 36.422899,47.603116 36.900391,42.5 l -14,-1.099609 c 0.234053,10.663291 7.669537,23.791121 20.150191,25.769957 14.270948,2.262691 31.075302,-5.508995 44.970185,-9.504001 0.252055,8.601872 11.253667,9.703938 11.471236,11.833762 C 99.783796,72.356528 92.254977,74.776141 88,75.900391 l 3.800781,13.5 c 13.008669,-4.675393 28.443159,-14.450316 21.931099,-25.960406 -3.74934,-6.62697 -13.43382,-5.17381 -10.19672,-10.318891 15.45869,-5.033477 31.18062,-9.286794 47.25195,-12.123047 15.42064,-2.72142 24.92086,7.126042 14.33984,14.068359 -7.98235,5.237306 -18.76358,1.460927 -27.92773,0.132813 -0.83333,4.6 -1.66667,9.200781 -2.5,13.800781 10.46035,1.591465 21.53451,3.831247 31.94832,1.087959 7.98067,-2.10233 15.70529,-9.050028 17.16897,-17.369935 2.0748,-11.793696 -5.45988,-22.240429 -15.86335,-24.94068 -12.58075,-3.26537 -26.07321,0.459829 -38.52699,3.316404 z M 123.5,71 c -7.20652,10.908676 -14.71906,21.823267 -24.300781,30.80078 2.939721,3.52409 6.681811,6.55539 9.101561,10.39844 8.82972,-3.35004 17.29352,-6.89079 26.33287,-9.86046 2.67108,-0.87752 -1.16554,5.51844 -1.73521,7.88585 -12.94899,4.42617 -25.56462,11.35545 -34.207034,22.19141 -6.119596,7.67282 -9.613945,17.33437 -9.583984,27.1289 0.01539,5.03253 2.108133,12.04014 7.742187,14.38281 6.664231,2.77103 13.782221,-1.98464 18.095701,-6.35546 13.50397,-13.6835 22.27561,-31.59489 28.64196,-45.93409 2.9695,-1.6316 5.42623,-1.61769 5.18975,0.54719 -0.25387,2.32406 -5.77153,13.43862 -5.08418,20.16628 0.59121,5.78669 6.04747,9.45078 14.87747,9.42765 11.55811,-0.0303 6.31179,6.09549 0.79297,9.6582 -13.81093,8.14539 -30.0319,10.52317 -45.5625,13.46289 0.73333,4.6 1.46589,9.19883 2.19922,13.79883 10.05305,-1.64792 20.0945,-3.51283 29.85547,-6.45703 10.5294,-3.17598 21.96312,-7.05572 28.89844,-15.98047 4.86566,-6.2614 5.62574,-14.27983 2.3457,-20.54688 -3.64131,-6.95732 -11.94349,-8.36093 -19.17063,-7.96778 -0.57897,0.0315 -1.56501,-0.36679 -1.20829,-1.2287 9.782,-23.63579 3.5533,-30.65588 -7.25202,-29.82084 1.65713,-4.34152 2.281,-8.856096 2.34312,-13.293207 0.0889,-6.351428 -6.60421,-8.643363 -11.9114,-7.103532 -4.29936,1.24742 -8.54463,2.678883 -12.75977,4.185547 2.8297,-3.885682 5.54143,-7.856113 8.16016,-11.886719 C 131.36745,76.066276 127.43333,73.533333 123.5,71 Z M 60,71.09961 46.814821,74.370096 c 3.021871,12.622823 16.358393,20.667403 26.98596,22.530296 L 76.099609,83 C 67.290403,79.940926 62.405975,78.725065 60,71.09961 Z m -8.357422,43.69531 c -3.754601,0.40515 -7.497105,1.42827 -11.103516,2.25 -4.534353,1.03316 -11.555464,3.25362 -15.200404,-1.05308 -3.766667,2.76667 -6.6716,6.14188 -10.438267,8.90855 2.327938,1.79779 4.111961,4.35352 6.818359,5.6543 7.40982,3.56139 15.643395,2.00046 23.172996,-0.17717 1.255489,-0.3631 1.619926,0.88553 1.416166,1.68926 -3.890527,15.34614 -1.735001,31.92358 5.391307,46.03283 4.072605,-1.88621 8.099047,-4.41414 12.201172,-5.90039 2.902905,-8.52927 7.887037,-16.72474 12.90039,-24.39844 -3.9,-2.56667 -7.801172,-5.1345 -11.701172,-7.70117 -2.418213,3.44764 -4.517732,7.0941 -6.644531,10.72266 -0.676418,-9.33111 1.331125,-17.11616 3.161323,-26.37333 1.235318,-6.24826 -4.913754,-10.20004 -9.973823,-9.65402 z m 73.355472,14.0332 c -4.52817,8.99563 -9.51695,17.92017 -16.39258,25.34766 -1.21656,1.31421 -5.41231,5.81334 -5.43555,4.32031 -0.17217,-11.06331 7.43994,-20.74041 16.42969,-26.5957 1.73489,-1.12998 3.59909,-2.04803 5.39844,-3.07227 z"
       id="path2" />
  </g>
</svg>
