<?xml version="1.0" encoding="UTF-8" standalone="no"?>
<svg
   xmlns:dc="http://purl.org/dc/elements/1.1/"
   xmlns:cc="http://creativecommons.org/ns#"
   xmlns:rdf="http://www.w3.org/1999/02/22-rdf-syntax-ns#"
   xmlns:svg="http://www.w3.org/2000/svg"
   xmlns="http://www.w3.org/2000/svg"
   xmlns:sodipodi="http://sodipodi.sourceforge.net/DTD/sodipodi-0.dtd"
   xmlns:inkscape="http://www.inkscape.org/namespaces/inkscape"
   inkscape:version="1.0 (4035a4fb49, 2020-05-01)"
   sodipodi:docname="u1b104.svg"
   id="svg6"
   height="200"
   width="200"
   viewBox="0 0 200 200"
   version="1.1">
  <metadata
     id="metadata12">
    <rdf:RDF>
      <cc:Work
         rdf:about="">
        <dc:format>image/svg+xml</dc:format>
        <dc:type
           rdf:resource="http://purl.org/dc/dcmitype/StillImage" />
      </cc:Work>
    </rdf:RDF>
  </metadata>
  <defs
     id="defs10" />
  <sodipodi:namedview
     inkscape:current-layer="svg6"
     inkscape:window-maximized="1"
     inkscape:window-y="28"
     inkscape:window-x="0"
     inkscape:cy="136.55197"
     inkscape:cx="54.129879"
     inkscape:zoom="1.9905056"
     showgrid="false"
     id="namedview8"
     inkscape:window-height="846"
     inkscape:window-width="1440"
     inkscape:pageshadow="2"
     inkscape:pageopacity="0"
     guidetolerance="10"
     gridtolerance="10"
     objecttolerance="10"
     borderopacity="1"
     bordercolor="#666666"
     pagecolor="#ffffff" />
  <g
     id="g4"
     fill="black">
    <path
       sodipodi:nodetypes="scsccsscccccccccccaaccaaccccccccsscccccsccsssccscccccsccscc"
       d="m 103.51064,25.133039 c -0.57364,12.27311 -2.14101,22.850856 -2.69773,33.319416 7.17098,-2.500772 21.99076,-9.975185 29.5632,-19.271281 2.16359,-2.656074 -4.87668,1.377462 -6.58454,1.201974 C 121.76105,36.322099 119.73052,32.261049 117.7,28.2 c 8.07493,-4.266586 17.82043,-5.756451 24.87074,0.980992 7.08366,6.76932 1.47107,16.674816 -4.86091,22.010812 C 126.68587,60.481762 113.84015,67.278891 101.2,74.1 100.4764,73.256645 100.39244,72.979791 99.530004,72.185746 99.215911,74.979095 99.208878,76.08257 99.130641,78.081409 111.89202,75.763643 127.07732,68.423326 138.3,62 c 2.43333,3.966667 4.86667,7.933333 7.3,11.9 -15.94482,9.492621 -31.05642,15.396026 -47.20596,18.101324 -0.240881,4.58535 -0.30007,9.178826 -0.467316,13.767476 7.936396,-2.05294 16.019766,-3.37763 24.097406,-4.73076 -0.004,-1.986016 -0.35358,-3.533943 -0.9781,-5.429031 L 133.8,90.1 c 1.62972,3.500519 2.3328,8.384296 1.98486,12.28641 14.3097,2.59677 28.78954,12.09747 33.68255,25.2484 4.70498,12.64557 -0.23895,28.9879 -8.6421,39.54414 C 148.42117,182.76132 128.32573,188.51761 106.8,192.7 c -1.23333,-4.5 -2.46667,-9 -3.7,-13.5 15.93799,-4.79586 35.04497,-7.78939 45.38046,-20.83703 5.93268,-7.48948 9.36992,-19.28151 5.68066,-28.09505 -3.354,-8.01262 -13.12684,-12.94129 -21.81956,-14.24672 -9.20288,15.59012 -20.75619,24.00636 -32.379503,32.73803 0.692153,2.73359 0.718563,2.94822 1.236173,4.96717 2.74706,-3.32694 7.81549,-8.61826 10.80177,-11.72635 l 9.9,9.9 c -6.07051,6.26536 -12.39382,12.692 -16.1,20.7 -4.07872,-1.63149 -10.916624,-3.20022 -16.074605,-4.39063 -1.090301,-4.82744 -1.868545,-8.71456 -2.532405,-10.97981 -11.384336,6.23097 -23.9754,15.76204 -40.609973,11.27165 -20.337927,-5.49008 -22.486718,-34.36023 10.095629,-48.77796 9.278487,-4.10574 17.813208,-7.61991 27.127664,-10.23406 L 84.284484,93.518243 C 65.676089,93.893197 57.536268,91.636677 43.89536,79.780457 L 55.2,71.7 c 8.394493,7.84981 21.66815,7.90479 29.788683,8.052479 C 86.175654,63.036205 88.495528,48.259594 89.397154,31.499993 89.617974,27.395347 83.325947,25.302787 79.6,25 l 0.7,-14 c 10.553379,1.093642 23.59806,5.844056 23.21064,14.133039 z M 60.130728,134.91408 c -12.542323,6.68562 -14.291253,16.10525 -8.278601,18.39792 8.043548,3.06706 19.153014,-2.93931 33.097622,-11.36064 -0.70393,-5.93675 -0.780473,-11.93756 -1.057796,-17.90662 -8.242799,2.64918 -17.157776,7.34941 -23.761225,10.86934 z M 97.86802,120.103 c -0.06249,4.15366 0.215922,8.29707 0.440497,12.4421 6.880253,-4.66845 13.021443,-10.24591 18.051703,-16.34679 -8.29174,1.00051 -12.10046,1.88255 -18.4922,3.90469 z M 64.3,38.1 c -0.934758,2.643858 -0.974227,6.363879 0.584454,7.430224 C 66.537144,46.660883 72.273352,41.703784 76.1,39.1 l 7.7,11.7 C 77.058267,55.412742 71.654606,60.979637 63.606777,60.118677 48.036854,58.453 49.330165,40.563249 51.035174,34.1863 Z"
       id="path2" />
  </g>
</svg>
