<?xml version="1.0" encoding="UTF-8" standalone="no"?>
<svg
   xmlns:dc="http://purl.org/dc/elements/1.1/"
   xmlns:cc="http://creativecommons.org/ns#"
   xmlns:rdf="http://www.w3.org/1999/02/22-rdf-syntax-ns#"
   xmlns:svg="http://www.w3.org/2000/svg"
   xmlns="http://www.w3.org/2000/svg"
   xmlns:sodipodi="http://sodipodi.sourceforge.net/DTD/sodipodi-0.dtd"
   xmlns:inkscape="http://www.inkscape.org/namespaces/inkscape"
   inkscape:version="1.0 (4035a4fb49, 2020-05-01)"
   sodipodi:docname="u1b103.svg"
   id="svg6"
   height="200"
   width="200"
   viewBox="0 0 200 200"
   version="1.1">
  <metadata
     id="metadata12">
    <rdf:RDF>
      <cc:Work
         rdf:about="">
        <dc:format>image/svg+xml</dc:format>
        <dc:type
           rdf:resource="http://purl.org/dc/dcmitype/StillImage" />
      </cc:Work>
    </rdf:RDF>
  </metadata>
  <defs
     id="defs10" />
  <sodipodi:namedview
     inkscape:current-layer="svg6"
     inkscape:window-maximized="1"
     inkscape:window-y="28"
     inkscape:window-x="0"
     inkscape:cy="114.2685"
     inkscape:cx="133.97408"
     inkscape:zoom="2.815"
     showgrid="false"
     id="namedview8"
     inkscape:window-height="846"
     inkscape:window-width="1440"
     inkscape:pageshadow="2"
     inkscape:pageopacity="0"
     guidetolerance="10"
     gridtolerance="10"
     objecttolerance="10"
     borderopacity="1"
     bordercolor="#666666"
     pagecolor="#ffffff" />
  <g
     id="g4"
     fill="black">
    <path
       sodipodi:nodetypes="sccccccccccccccccccaccs"
       d="m 72.894828,37.755172 c 8.898754,1.549868 29.386572,-6.437743 45.143292,-8.66801 9.43731,-1.304721 12.47075,3.98891 11.6401,10.062144 -0.89608,8.323845 -47.191969,58.887597 -49.801147,61.450204 12.537452,-6.04172 25.445227,-11.480675 38.477487,-16.097846 7.72384,-2.456802 16.91577,-3.624624 23.92967,1.341836 5.96726,4.926436 8.51882,10.831713 6.52472,18.01631 C 143.07213,122.35804 131.47465,138.57102 126,157.1 c -0.89269,2.66909 0.65005,5.42866 3.47003,5.86772 12.51156,2.73854 23.92638,0.77879 35.32997,-0.96772 0.76667,4.63333 1.53333,9.26667 2.3,13.9 -12.85139,1.95165 -26.09377,3.81787 -38.97689,1.24508 -14.32327,-3.98568 -18.53918,-14.25624 -14.3829,-27.68855 5.42669,-16.30666 15.02039,-31.04648 20.90025,-47.23801 3.35921,-11.754567 -15.66817,-3.005604 -20.71558,-1.19834 -20.157924,8.11368 -40.259721,16.99617 -58.060157,29.60628 C 51.284305,133.92329 46.988713,137.60793 43.1,141.7 39.666667,138.53333 36.233333,135.36667 32.8,132.2 59.860528,102.09503 106.82709,49.449958 105.74742,46.572045 104.90444,43.461976 78.19613,54.946931 65.894329,49.817561 57.725275,46.411385 52.135559,37.862505 48.8,29.5 l 13,-5.2 c 2.389803,5.523789 5.367867,12.457725 11.094828,13.455172 z"
       id="path2" />
  </g>
</svg>
