<?xml version="1.0" encoding="UTF-8" standalone="no"?>
<svg
   xmlns:dc="http://purl.org/dc/elements/1.1/"
   xmlns:cc="http://creativecommons.org/ns#"
   xmlns:rdf="http://www.w3.org/1999/02/22-rdf-syntax-ns#"
   xmlns:svg="http://www.w3.org/2000/svg"
   xmlns="http://www.w3.org/2000/svg"
   xmlns:sodipodi="http://sodipodi.sourceforge.net/DTD/sodipodi-0.dtd"
   xmlns:inkscape="http://www.inkscape.org/namespaces/inkscape"
   inkscape:version="1.0 (4035a4fb49, 2020-05-01)"
   sodipodi:docname="u1b101.svg"
   id="svg6"
   height="200"
   width="200"
   viewBox="0 0 200 200"
   version="1.1">
  <metadata
     id="metadata12">
    <rdf:RDF>
      <cc:Work
         rdf:about="">
        <dc:format>image/svg+xml</dc:format>
        <dc:type
           rdf:resource="http://purl.org/dc/dcmitype/StillImage" />
      </cc:Work>
    </rdf:RDF>
  </metadata>
  <defs
     id="defs10" />
  <sodipodi:namedview
     inkscape:current-layer="svg6"
     inkscape:window-maximized="1"
     inkscape:window-y="28"
     inkscape:window-x="0"
     inkscape:cy="106.26286"
     inkscape:cx="-20.907026"
     inkscape:zoom="1.4075"
     showgrid="false"
     id="namedview8"
     inkscape:window-height="846"
     inkscape:window-width="1440"
     inkscape:pageshadow="2"
     inkscape:pageopacity="0"
     guidetolerance="10"
     gridtolerance="10"
     objecttolerance="10"
     borderopacity="1"
     bordercolor="#666666"
     pagecolor="#ffffff" />
  <g
     id="g4"
     fill="black">
    <path
       sodipodi:nodetypes="sssssssccssssssccsscccascccccccccccccccccccccccccccccsccscccccccccsscccccccc"
       d="m 140.1453,132.87316 c 0.002,5.51604 -1.35294,10.85675 -0.32888,16.24832 0.36298,1.91108 2.03758,2.47847 3.83289,2.31999 5.49552,-0.48512 10.81837,-1.64784 16.20473,-1.98788 7.83267,-0.49447 14.84522,2.09714 17.13,6.03215 3.80381,6.55117 3.18412,15.19756 -6.24013,20.98926 -6.97835,4.28857 -20.44108,5.14212 -32.46636,6.9793 -7.5171,1.14843 -15.10635,1.74899 -22.67755,2.4457 -0.43333,-4.63333 -0.86667,-9.26667 -1.3,-13.9 16.7778,-1.75352 34.22583,-1.90278 50,-8.1 1.52558,-0.59936 -0.46073,-1.94075 -5.7,-1 -7.97071,1.43121 -16.96914,4.98615 -24.76914,0.94062 -5.5836,-2.89598 -7.56956,-9.39774 -8.02385,-15.38721 -0.3733,-4.92169 0.29773,-9.48395 0.379,-14.21473 0.0349,-2.03398 0.39274,-3.37822 -1.92258,-2.13062 -2.18825,1.17913 -4.32222,2.48212 -6.36343,3.89194 l -8.3,-11.3 c 6.25119,-4.28633 13.8187,-9.10027 21.69497,-6.39511 5.59313,1.92101 8.84787,6.76784 8.85033,14.56827 z M 123.6,24.4 c -3.9968,1.599326 -7.97129,3.261461 -12.12584,4.416693 7.33658,2.067879 13.04474,8.091453 15.75251,15.09664 8.94791,-0.184075 19.01049,2.327029 22.4237,9.72481 2.0548,4.453577 1.11559,9.985683 -4.30665,14.069888 -8.33381,6.277293 -14.7378,8.589695 -25.29546,12.476358 -1.96916,4.364449 -3.18478,7.371702 -5.4453,10.657874 C 123.24587,88.824975 134.43357,87.573175 143.3,88 c -0.36824,4.561573 -0.2135,9.673124 -0.9,13.9 -14.55485,5.70263 -27.60285,14.57106 -40.59928,23.12419 -6.746454,4.52058 -13.432247,9.13584 -19.947635,13.98349 1.880172,6.67283 1.108718,13.72585 1.156161,20.58208 C 87.173405,154.90413 91.548114,150.41151 96,146 l 9.9,9.9 c -7.450364,7.66488 -15.390862,15.10988 -21.14,24.18 -4.03762,1.50921 -9.193157,2.29034 -13.66,3.52 -2.468095,-11.30305 -2.115927,-22.90462 -2,-34.39701 -14.027673,11.16779 -27.964726,22.45242 -41.6,34.09701 -3.033333,-3.56667 -6.066667,-7.13333 -9.1,-10.7 2.28293,-5.75063 1.737714,-12.13516 1.6,-18.2 l 13.9,-0.9 c -0.01566,2.89725 0.05519,4.19761 0.0061,6.13363 C 42.795799,152.47732 54.088959,143.18766 63,136.05775 V 125 c 3.568023,0.64543 7.461832,0.3295 10.433867,2.73364 8.523963,-6.29826 18.122594,-13.38971 27.164313,-19.36665 C 80.63999,114.09956 62.664689,113.86838 48.8,109.9 c 1.4,-4.43333 2.8,-8.86667 4.2,-13.3 13.72775,3.93522 28.31395,2.102921 41.968752,-1.201937 C 102.7716,85.222971 111.17261,66.950267 112.24583,60.018538 105.1307,60.991133 98.402354,62.19923 91.905861,64.547706 91.295915,72.965123 91.58184,81.575191 92.9,89.9 L 79,92 C 77.954511,84.260661 77.14541,76.467581 77.408686,68.647993 68.515006,71.205417 61.321264,77.920493 53.516891,73.125939 45.779126,68.372306 44.257775,59.931661 44.9,51.5 l 14,0.9 c -0.08862,2.71588 -0.218521,7.528567 1.573884,7.466223 2.46453,-0.08572 11.945034,-4.553252 18.489919,-6.303334 1.500953,-7.48325 4.293055,-14.781066 8.631874,-21.085143 C 79.067592,32.419856 70.620847,29.422168 64.1,23.9 l 9.2,-10.5 c 8.799912,7.252882 21.256441,5.639516 31.4585,2.768816 4.6184,-1.245535 9.11433,-2.864199 13.5415,-4.668816 1.76667,4.3 3.53333,8.6 5.3,12.9 z m 2.62567,33.512378 c -0.72858,3.230499 -1.03379,4.020898 -1.69243,6.541379 2.50512,-0.987025 6.07559,-2.551869 8.94706,-4.076393 1.83501,-0.974245 1.28237,-1.774135 -0.28762,-2.105158 -2.27012,-0.478641 -4.54831,-0.448708 -6.96701,-0.359828 z M 94.973871,32.54485 c 1.715369,1.97254 2.593957,2.403897 6.108839,5.249459 -2.323587,3.0197 -5.419469,8.31985 -6.623994,11.929544 5.924124,-1.214236 11.867324,-2.338185 17.839574,-3.290235 C 111.64998,43.4852 107.9211,41.769673 105,42 V 30.575 c -3.96388,1.277635 -6.431996,1.474486 -10.026129,1.96985 z"
       id="path2" />
  </g>
</svg>
