<?xml version="1.0" encoding="UTF-8" standalone="no"?>
<svg
   xmlns:dc="http://purl.org/dc/elements/1.1/"
   xmlns:cc="http://creativecommons.org/ns#"
   xmlns:rdf="http://www.w3.org/1999/02/22-rdf-syntax-ns#"
   xmlns:svg="http://www.w3.org/2000/svg"
   xmlns="http://www.w3.org/2000/svg"
   xmlns:sodipodi="http://sodipodi.sourceforge.net/DTD/sodipodi-0.dtd"
   xmlns:inkscape="http://www.inkscape.org/namespaces/inkscape"
   inkscape:version="1.0 (4035a4fb49, 2020-05-01)"
   sodipodi:docname="u1b10f.svg"
   id="svg6"
   height="200"
   width="200"
   viewBox="0 0 200 200"
   version="1.1">
  <metadata
     id="metadata12">
    <rdf:RDF>
      <cc:Work
         rdf:about="">
        <dc:format>image/svg+xml</dc:format>
        <dc:type
           rdf:resource="http://purl.org/dc/dcmitype/StillImage" />
      </cc:Work>
    </rdf:RDF>
  </metadata>
  <defs
     id="defs10" />
  <sodipodi:namedview
     inkscape:current-layer="svg6"
     inkscape:window-maximized="1"
     inkscape:window-y="28"
     inkscape:window-x="0"
     inkscape:cy="104.72646"
     inkscape:cx="99.740979"
     inkscape:zoom="3.9810112"
     showgrid="false"
     id="namedview8"
     inkscape:window-height="846"
     inkscape:window-width="1440"
     inkscape:pageshadow="2"
     inkscape:pageopacity="0"
     guidetolerance="10"
     gridtolerance="10"
     objecttolerance="10"
     borderopacity="1"
     bordercolor="#666666"
     pagecolor="#ffffff" />
  <g
     id="g4"
     fill="black">
    <path
       sodipodi:nodetypes="sccccccccsssssccssssscscccsssssccsss"
       d="M 112.9726,43.594296 C 101.84289,61.377279 92.594065,73.606279 81.991839,91.720171 93.24172,84.967419 105.80272,80.580109 118.60616,77.866253 120.35114,73.495983 122.35363,69.229431 124.2,64.9 c 4.23333,1.966667 8.46667,3.933333 12.7,5.9 -1.08925,2.443916 -1.41065,2.792647 -2.08298,4.314538 C 138.58808,74.777503 145.52813,74.327819 149.3,74 c 0.43333,4.633333 0.86667,9.266667 1.3,13.9 -7.22427,0.564061 -14.42906,1.348298 -21.61362,2.289203 -2.81049,8.504102 -5.48094,17.436117 -4.75906,26.489447 0.31759,3.983 2.48666,8.08547 6.72053,8.75693 6.46795,1.02577 13.07002,-0.45679 19.62527,0.48694 7.87337,1.13349 16.7543,4.23735 19.80428,12.16059 7.92956,20.5994 -18.49833,33.2758 -30.31078,37.82336 -5.38222,2.07205 -10.97159,3.53063 -16.56662,4.89353 -1.03333,-4.56667 -2.06667,-9.13333 -3.1,-13.7 12.31091,-2.96714 25.54646,-6.75517 34.22288,-16.51817 1.81546,-2.04281 5.22424,-5.49016 2.45133,-7.8669 -5.05694,-4.33444 -12.59454,-3.34978 -18.90017,-3.05283 -3.17519,0.14953 -7.15583,0.22501 -10.48295,-0.67076 -8.7476,-2.35514 -13.75919,-7.41258 -16.36663,-15.3176 -3.32422,-10.07808 -0.82238,-20.79116 1.98905,-30.138982 C 99.926733,97.26984 87.287054,103.65401 76.480963,112.41428 72.63863,115.52918 68.933136,118.97261 65.50872,122.4879 57.248507,139.13998 50.498281,156.48404 44.6,174.1 40.166667,172.66667 35.733333,171.23333 31.3,169.8 38.267662,148.80438 46.717963,128.31475 56.761374,108.59285 68.66843,85.211373 82.825262,63.075879 97.777547,41.547398 98.7631,40.128388 97.102816,39.602896 95.970515,39.965926 82.590462,44.255735 69.34684,49.516473 56.1,53.5 48.392405,55.817791 40.914931,50.059885 36.219468,44.093677 33.033223,40.04513 30.541831,35.517707 28.1,31 l 12.6,-6.3 c 3.08535,5.415875 8.474974,15.531077 11.591178,14.951635 15.02871,-2.79451 27.07224,-7.558916 43.189237,-12.658437 16.806195,-5.317589 25.057655,4.513037 17.492185,16.601098 z"
       id="path2" />
  </g>
</svg>
