<?xml version="1.0" encoding="UTF-8" standalone="no"?>
<svg
   xmlns:dc="http://purl.org/dc/elements/1.1/"
   xmlns:cc="http://creativecommons.org/ns#"
   xmlns:rdf="http://www.w3.org/1999/02/22-rdf-syntax-ns#"
   xmlns:svg="http://www.w3.org/2000/svg"
   xmlns="http://www.w3.org/2000/svg"
   xmlns:sodipodi="http://sodipodi.sourceforge.net/DTD/sodipodi-0.dtd"
   xmlns:inkscape="http://www.inkscape.org/namespaces/inkscape"
   inkscape:version="1.0 (4035a4fb49, 2020-05-01)"
   sodipodi:docname="u1b102.svg"
   id="svg6"
   height="200"
   width="200"
   viewBox="0 0 200 200"
   version="1.1">
  <metadata
     id="metadata12">
    <rdf:RDF>
      <cc:Work
         rdf:about="">
        <dc:format>image/svg+xml</dc:format>
        <dc:type
           rdf:resource="http://purl.org/dc/dcmitype/StillImage" />
      </cc:Work>
    </rdf:RDF>
  </metadata>
  <defs
     id="defs10" />
  <sodipodi:namedview
     inkscape:current-layer="svg6"
     inkscape:window-maximized="1"
     inkscape:window-y="28"
     inkscape:window-x="0"
     inkscape:cy="98.573128"
     inkscape:cx="139.67582"
     inkscape:zoom="1.4075"
     showgrid="false"
     id="namedview8"
     inkscape:window-height="846"
     inkscape:window-width="1440"
     inkscape:pageshadow="2"
     inkscape:pageopacity="0"
     guidetolerance="10"
     gridtolerance="10"
     objecttolerance="10"
     borderopacity="1"
     bordercolor="#666666"
     pagecolor="#ffffff" />
  <g
     id="g4"
     fill="black">
    <path
       sodipodi:nodetypes="ssssccssscssssccssccssssccssscccscssssss"
       d="m 108.66602,18.675781 c -11.734288,0.220215 -23.387236,3.895859 -34.945317,8.908203 -8.539608,3.703336 -16.080292,9.366393 -24.537109,13.191407 -0.84812,0.383604 -1.669421,-0.651014 -1.40625,-1.570313 0.884244,-3.088813 2.809742,-5.168072 5.123047,-7.404297 L 43.5,21.400391 c -2.765357,2.713746 -5.05933,5.817025 -6.849609,9.263671 -2.955388,5.689715 -4.133438,14.406736 -1.47461,18.533204 5.609527,8.705915 13.655703,7.756947 22.634766,3.066406 15.629998,-8.164899 34.069371,-20.736309 54.267573,-19.484375 11.88633,0.834821 22.83517,6.650803 8.02149,15.419922 C 102.54362,58.591678 83.670549,66.890256 67.449219,79.363281 60.99763,84.324085 54.420048,89.190479 48.880859,95.185547 41.62797,103.03535 36.472927,112.85599 34.625,123.45508 c -1.798126,10.31345 -0.424844,20.8482 2.675781,30.74414 l 13.298828,-4.5 c 1.503252,-3.54683 3.244133,-6.1496 5.164063,-8.91602 6.139716,-8.84669 14.348658,-16.11713 23.703125,-21.36914 7.375361,-4.14086 15.422918,-7.21693 23.699223,-8.98242 15.21738,-2.62711 28.01882,-3.14826 41.63476,2.46875 12.93656,7.87461 -0.35185,13.02743 -9,15.59961 -13.83925,4.11614 -28.35292,7.07781 -39.339842,15.21094 -3.433329,2.54154 -6.74779,5.59316 -8.914063,9.34961 -8.946491,15.51376 2.937961,27.3198 15.791015,29.49804 14.54668,2.46527 34.13181,0.0382 50.86133,-2.75781 -0.78287,-4.29012 -1.5648,-9.7316 -2.34766,-14.02171 -13.17339,1.56638 -49.70569,7.89961 -53.57588,-1.48363 -1.618902,-3.92501 3.35629,-7.20312 6.79854,-9.58255 16.64844,-11.50814 45.22184,-11.81818 56.67352,-26.12283 6.89964,-8.61855 3.04007,-19.55823 -5.60516,-25.00412 C 151.87683,100.25973 146.74544,98.716769 141.69922,97 125.40327,93.266596 108.20349,94.318308 93.449219,98.513672 83.367053,101.43843 73.735322,105.87699 65.107422,111.8125 c -5.575535,3.83566 -12.251873,10.464 -16.822266,15.45508 1.561171,-13.99895 8.102716,-19.86259 19.710938,-30.199221 9.555179,-8.508485 20.97848,-15.186694 32.212886,-21.505859 10.5131,-5.913439 21.14313,-11.680688 31.20508,-18.373047 12.47796,-8.299284 15.38008,-18.81312 6.91992,-28.460937 -5.89191,-6.719033 -15.48152,-9.297048 -24.63476,-9.927735 -1.67961,-0.11573 -3.35688,-0.156459 -5.0332,-0.125 z"
       id="path2" />
  </g>
</svg>
