<?xml version="1.0" encoding="UTF-8" standalone="no"?>
<svg
   xmlns:dc="http://purl.org/dc/elements/1.1/"
   xmlns:cc="http://creativecommons.org/ns#"
   xmlns:rdf="http://www.w3.org/1999/02/22-rdf-syntax-ns#"
   xmlns:svg="http://www.w3.org/2000/svg"
   xmlns="http://www.w3.org/2000/svg"
   xmlns:sodipodi="http://sodipodi.sourceforge.net/DTD/sodipodi-0.dtd"
   xmlns:inkscape="http://www.inkscape.org/namespaces/inkscape"
   inkscape:version="1.0 (4035a4fb49, 2020-05-01)"
   sodipodi:docname="u1b106.svg"
   id="svg6"
   height="200"
   width="200"
   viewBox="0 0 200 200"
   version="1.1">
  <metadata
     id="metadata12">
    <rdf:RDF>
      <cc:Work
         rdf:about="">
        <dc:format>image/svg+xml</dc:format>
        <dc:type
           rdf:resource="http://purl.org/dc/dcmitype/StillImage" />
      </cc:Work>
    </rdf:RDF>
  </metadata>
  <defs
     id="defs10" />
  <sodipodi:namedview
     inkscape:current-layer="svg6"
     inkscape:window-maximized="1"
     inkscape:window-y="28"
     inkscape:window-x="0"
     inkscape:cy="113.63375"
     inkscape:cx="120.93511"
     inkscape:zoom="2.815"
     showgrid="false"
     id="namedview8"
     inkscape:window-height="846"
     inkscape:window-width="1440"
     inkscape:pageshadow="2"
     inkscape:pageopacity="0"
     guidetolerance="10"
     gridtolerance="10"
     objecttolerance="10"
     borderopacity="1"
     bordercolor="#666666"
     pagecolor="#ffffff" />
  <g
     id="g4"
     fill="black">
    <path
       sodipodi:nodetypes="sccsscccccsscsssssscccssssscsssscccccsssccssssscsccccc"
       d="m 85.8,111.3 c 1.471493,-6.85204 5.539148,-12.998167 10.820694,-17.689478 9.397336,-8.869931 21.565956,-14.171877 33.750736,-18.067665 1.46786,-4.756106 2.9156,-9.516659 4.03818,-14.366421 0.17342,-0.74919 -0.25792,-1.367955 -0.97619,-1.03968 C 123.52809,64.663826 113.65143,69.254888 103.8,73.9 101.83333,69.666667 99.866667,65.433333 97.9,61.2 108.80571,52.095307 117.2029,31.409012 118,19.6 l 13.9,0.7 c -0.4916,10.072458 -3.36017,19.987113 -8.07563,28.886813 4.71214,-2.221256 6.23657,-2.781544 11.17352,-4.447555 8.12605,-2.742196 14.42017,3.448956 14.30842,9.150497 -0.10992,5.607898 -1.35644,9.766659 -3.85147,18.411463 8.17989,-0.250484 16.60993,4.415194 15.06671,17.258262 -0.96435,8.025539 -2.86025,15.91078 -4.62429,23.80267 -0.16532,0.73959 0.76601,1.5045 1.88526,1.47652 7.49797,-0.18742 15.50341,2.11025 19.71785,8.69629 2.70411,4.2258 3.71324,8.99328 3.17927,13.85995 -0.81006,7.383 -4.96262,14.04009 -10.30972,18.99681 -12.32797,11.42792 -28.5646,17.27985 -44.26205,22.57884 -3.76929,1.14315 -7.53858,2.28629 -11.30787,3.42944 -1.26667,-4.5 -2.53333,-9 -3.8,-13.5 16.17333,-4.7701 32.86683,-9.75195 46.51238,-19.96533 4.95827,-3.71115 10.89816,-9.51955 9.08762,-16.23467 -1.37202,-5.08869 -8.92405,-3.71149 -13.00952,-4.21618 -9.3624,-1.15655 -11.05893,-6.68964 -11.86385,-10.68607 -1.28272,-6.36862 4.05075,-21.107922 4.94611,-29.708302 0.322,-3.092953 -3.26775,-1.966603 -5.27188,-1.455198 -4.93476,12.743517 -11.91859,28.69214 -22.06283,38.10288 -9.6692,8.97004 -25.164752,7.90915 -30.87341,1.66635 C 84.329779,121.88176 84.620013,116.79464 85.8,111.3 Z M 70.585368,96.827136 C 67.71207,110.55342 64.345627,121.4554 65.844135,136.5792 68.38199,130.32382 71.56997,124.36343 74.9,118.5 l 12.1,6.9 c -6.596159,11.64998 -12.088349,24.60595 -14.84527,37.75655 -4.723284,1.81501 -7.510668,3.29721 -12.881534,5.57654 -8.271665,-21.03777 -10.182408,-44.70326 -4.201668,-69.223513 0.247271,-1.01378 -0.07441,-1.786416 -1.071805,-1.467692 -7.795437,2.491075 -15.764027,5.668085 -24.032469,3.987445 C 23.208885,100.65562 19.747279,96.410423 15.4,91.4 l 12.1,-7.2 c 1.782294,3.356806 5.393382,4.853451 9.18365,4.197515 8.378471,-1.44996 16.360721,-5.825513 24.853311,-5.635215 4.864971,0.109012 11.327718,3.176141 9.048407,14.064836 z M 99.5,114.5 c -1.402879,5.61889 8.62595,1.81404 12.65912,-2.33235 5.2116,-5.3579 8.46751,-12.421529 11.55018,-19.219875 C 112.84069,98.048513 102.42827,102.7715 99.5,114.5 Z M 86.235595,38.187133 C 85.02725,43.241689 83.864804,48.083929 83.098845,51.856181 69.315641,48.528393 56.422838,35.116012 53.439124,21.295105 c 6.393227,-0.848562 9.214707,-1.37859 13.672656,-2.559332 2.532259,9.190524 11.502361,17.324405 19.123815,19.45136 z"
       id="path2" />
  </g>
</svg>
